<?xml version="1.0" standalone="no"?>
<!DOCTYPE svg PUBLIC "-//W3C//DTD SVG 20010904//EN"
 "http://www.w3.org/TR/2001/REC-SVG-20010904/DTD/svg10.dtd">
<svg version="1.0" xmlns="http://www.w3.org/2000/svg"
 width="300.000000pt" height="523.000000pt" viewBox="0 0 300.000000 523.000000"
 preserveAspectRatio="xMidYMid meet">
<metadata>
Created by potrace 1.15, written by Peter Selinger 2001-2017
</metadata>
<g transform="translate(0.000000,523.000000) scale(0.100000,-0.100000)"
fill="#000000" stroke="none">
<g>
<path d="M0 2615 l0 -2615 1494 0 1495 0 6 21 c4 12 4 54 1 93 -8 91 -8 666 0
3119 l6 1997 -1501 0 -1501 0 0 -2615z m2963 1015 c-1 -872 -2 -1847 -2 -2168
l-1 -582 -24 6 c-17 4 -27 0 -34 -12 -10 -18 -11 -18 -31 0 -21 19 -22 19 -45
-3 -29 -27 -65 -25 -116 7 -44 27 -42 27 -80 -4 -30 -25 -34 -26 -83 -16 -29
6 -70 14 -92 17 -22 4 -48 14 -58 23 -16 14 -20 13 -45 -9 -15 -13 -38 -30
-52 -38 -33 -19 -222 -32 -287 -20 -34 6 -59 6 -70 0 -12 -6 -56 -5 -123 1
-58 6 -132 12 -165 14 -58 3 -118 19 -176 49 -37 20 -67 19 -115 -4 -75 -35
-331 -33 -359 4 -8 9 -25 11 -56 8 -40 -5 -53 -1 -97 28 -29 19 -52 38 -52 43
0 14 -42 56 -55 56 -8 0 -14 21 -17 52 -3 31 -12 56 -22 63 -10 7 -16 26 -16
48 0 42 -12 52 -57 48 -30 -2 -32 -1 -38 43 -5 29 -12 46 -21 46 -9 0 -14 11
-14 28 0 34 -25 72 -49 72 -21 0 -46 -42 -38 -64 4 -10 -3 -22 -18 -32 -14 -9
-25 -21 -25 -27 0 -5 -7 -15 -16 -21 -8 -7 -18 -31 -21 -54 -3 -23 -10 -42
-15 -42 -13 0 -48 -87 -48 -118 0 -15 -9 -41 -19 -58 l-19 -32 -87 3 c-47 1
-91 7 -98 14 -17 17 -42 13 -62 -9 -10 -11 -20 -19 -22 -17 -4 4 -4 2876 -1
3677 l3 545 180 5 c99 3 499 7 889 8 390 1 712 4 714 7 3 2 264 3 581 2 l576
-2 -2 -1585z m-2433 -2240 c0 -5 -7 -10 -15 -10 -8 0 -15 5 -15 10 0 6 7 10
15 10 8 0 15 -4 15 -10z m5 -67 c-3 -48 9 -78 26 -67 5 3 9 -3 9 -13 0 -22 49
-48 64 -33 18 18 25 10 24 -25 -1 -24 6 -43 21 -59 28 -30 26 -73 -4 -68 -23
4 -47 31 -39 44 9 15 -7 48 -23 48 -9 0 -24 -7 -33 -15 -9 -8 -37 -19 -62 -23
-25 -5 -62 -19 -81 -31 -24 -15 -36 -18 -39 -10 -3 8 -12 3 -26 -11 l-22 -24
6 34 c4 19 11 39 15 45 5 5 9 19 9 32 0 13 5 23 10 23 6 0 10 -9 10 -21 0 -12
5 -19 13 -16 8 2 11 20 9 50 -3 37 0 47 12 48 36 3 40 5 44 17 3 9 -5 11 -27
7 -39 -7 -40 6 -1 23 17 8 30 20 30 28 0 8 5 14 10 14 6 0 10 9 10 19 0 11 8
22 18 24 9 3 18 5 19 6 1 0 0 -20 -2 -46z m82 -269 l23 -29 -37 -5 c-20 -3
-38 -11 -41 -17 -2 -9 5 -11 29 -6 25 5 35 2 46 -13 14 -18 15 -18 33 6 16 20
20 22 20 8 0 -10 7 -18 15 -18 8 0 15 -4 15 -10 0 -5 9 -10 21 -10 22 0 60
-25 116 -77 19 -18 41 -33 48 -33 7 0 19 -10 27 -22 10 -14 30 -23 64 -29 134
-21 192 -32 219 -44 71 -31 158 -46 258 -45 56 0 131 -3 167 -7 l64 -8 16 -43
c16 -47 47 -71 93 -72 15 0 27 -5 27 -11 0 -7 -72 -9 -227 -7 -210 3 -228 2
-231 -14 -2 -11 3 -18 12 -18 9 0 16 -4 16 -10 0 -5 -24 -10 -52 -11 -29 0
-89 -2 -133 -4 -93 -4 -595 -16 -835 -20 -91 -1 -211 0 -267 3 l-103 5 0 134
0 133 33 1 c17 1 58 3 90 4 73 4 173 52 232 112 22 23 56 50 75 60 21 12 35
27 35 39 0 13 8 20 28 22 34 4 36 22 1 22 -37 0 -87 -26 -104 -54 -26 -41 -99
-115 -140 -141 -47 -29 -51 -30 -43 -9 5 14 1 16 -30 10 -24 -4 -37 -3 -37 4
0 5 -7 10 -16 10 -8 0 -12 5 -9 10 3 6 15 10 25 10 23 0 150 50 167 66 6 6 20
25 30 42 10 16 43 51 73 76 53 45 57 47 109 43 46 -3 58 -9 78 -33z m128 -64
c3 -5 1 -10 -4 -10 -6 0 -11 5 -11 10 0 6 2 10 4 10 3 0 8 -4 11 -10z m-568
-39 c13 7 25 10 28 7 10 -10 -49 -42 -90 -49 -22 -3 -52 -10 -67 -14 -25 -6
-28 -5 -28 19 0 40 42 58 94 39 33 -11 45 -11 63 -2z m143 4 c-7 -8 -19 -15
-27 -15 -8 0 -27 -8 -41 -19 -15 -10 -38 -22 -52 -26 -22 -7 -23 -6 -11 9 7 9
20 16 28 16 7 0 16 7 19 15 4 8 17 15 29 15 13 0 27 5 30 10 3 6 13 10 22 10
13 0 13 -3 3 -15z m657 -87 c9 -14 12 -15 153 -24 99 -7 272 10 278 27 5 12
39 12 47 0 3 -5 20 -12 38 -16 17 -4 51 -16 74 -28 35 -16 47 -18 67 -9 13 6
27 8 30 5 6 -7 58 -15 99 -15 36 -1 35 -16 -2 -29 -19 -7 -31 -19 -33 -32 -3
-20 -8 -22 -63 -19 -32 2 -64 6 -70 10 -5 4 -61 5 -122 3 -109 -3 -113 -2
-113 18 0 22 -14 28 -25 11 -8 -13 -64 -2 -95 19 -14 10 -38 16 -55 15 -16 -1
-35 3 -42 8 -7 5 -16 7 -20 5 -22 -14 -183 34 -183 55 0 13 28 10 37 -4z
m1408 -9 c-4 -5 15 -10 42 -10 75 -2 106 -12 119 -37 6 -13 23 -36 38 -51 37
-38 33 -91 -6 -91 -15 0 -18 -5 -13 -19 8 -27 -12 -36 -27 -11 -15 24 -43 26
-52 4 -8 -22 -29 -6 -22 18 3 14 -3 27 -16 38 -17 13 -19 20 -9 37 6 12 21 23
33 25 33 4 39 63 7 73 -16 5 -28 0 -50 -25 -16 -17 -29 -40 -29 -51 0 -12 -7
-19 -20 -19 -26 0 -25 6 5 42 14 16 25 34 25 39 0 15 -37 10 -51 -7 -7 -9 -22
-14 -36 -11 -25 5 -40 -7 -23 -18 6 -4 8 -11 4 -16 -3 -6 -12 -5 -21 3 -9 7
-21 13 -27 14 -6 0 -17 2 -24 2 -7 1 -10 7 -7 12 4 6 19 9 33 7 16 -3 38 4 54
14 14 11 30 19 36 19 5 0 12 9 15 21 3 12 10 18 16 14 6 -3 9 -11 6 -16z m315
-4 c8 -10 10 -30 6 -59 -5 -33 -3 -48 9 -60 14 -14 14 -18 0 -45 -8 -16 -20
-33 -25 -36 -6 -4 -8 -15 -5 -26 4 -11 2 -19 -4 -19 -6 0 -11 5 -11 11 0 6 -6
9 -14 6 -8 -3 -22 0 -31 7 -15 11 -15 13 -1 25 28 23 21 86 -14 121 -30 31
-33 63 -4 39 11 -9 18 -9 26 -1 7 7 8 12 3 12 -4 0 0 9 10 20 22 24 38 25 55
5z m250 -43 l0 -39 -56 5 c-35 3 -64 0 -80 -8 -20 -11 -28 -11 -49 0 -14 8
-24 20 -23 28 4 21 104 45 129 31 16 -8 26 -7 42 5 33 22 37 20 37 -22z
m-2815 -12 c25 -7 19 -8 -30 -9 -34 -1 -66 -6 -73 -13 -9 -9 -12 -7 -12 8 0
12 3 23 6 27 6 6 62 0 109 -13z m1841 11 c5 -5 27 -11 49 -13 49 -4 52 -21 5
-28 -20 -4 -42 -10 -49 -15 -18 -11 -41 19 -34 45 6 22 14 25 29 11z m184 -5
c0 -11 -19 -15 -25 -6 -3 5 1 10 9 10 9 0 16 -2 16 -4z m-260 -28 c15 -16 20
-35 20 -75 0 -55 14 -70 29 -31 5 14 10 17 15 10 8 -14 -5 -40 -32 -65 -15
-14 -25 -16 -46 -8 -14 6 -39 8 -56 5 -19 -4 -38 -1 -55 10 -25 17 -33 50 -15
61 6 3 10 20 10 37 0 21 6 31 19 35 11 3 21 13 24 24 7 27 60 25 87 -3z m210
18 c0 -11 -19 -15 -25 -6 -3 5 1 10 9 10 9 0 16 -2 16 -4z m125 -53 c11 -11
40 -18 89 -21 65 -4 73 -7 84 -30 7 -14 12 -33 12 -42 0 -23 20 -40 47 -40 19
0 23 -5 23 -31 l0 -31 -222 8 c-123 4 -258 7 -300 7 -43 0 -78 4 -78 8 0 5 10
9 23 9 28 0 73 45 82 83 5 19 14 27 29 27 11 0 34 7 49 15 15 8 34 12 41 9 7
-3 26 6 42 20 34 30 56 32 79 9z m718 0 c4 -2 7 -20 7 -39 0 -24 -5 -34 -15
-34 -12 0 -14 4 -6 17 17 31 -5 53 -52 54 -33 0 -38 2 -22 9 18 8 69 4 88 -7z
m-834 3 c-12 -10 -60 -16 -54 -6 3 5 18 10 32 10 15 0 24 -2 22 -4z m668 -2
c-3 -3 -12 -4 -19 -1 -8 3 -5 6 6 6 11 1 17 -2 13 -5z m-747 -24 c-20 -13 -50
-13 -50 0 0 6 15 10 33 10 24 0 28 -3 17 -10z m800 -24 c0 -18 -7 -25 -30 -29
-39 -8 -42 -44 -5 -53 l26 -6 -26 -14 c-14 -7 -42 -16 -61 -20 -34 -6 -35 -6
-28 22 11 45 31 89 46 101 7 6 27 13 43 16 17 2 31 5 33 6 1 0 2 -10 2 -23z
m103 -53 c-13 -2 -33 -2 -45 0 -13 2 -3 4 22 4 25 0 35 -2 23 -4z m-319 -48
c21 -16 17 -19 -46 -30 -38 -6 -45 -1 -30 21 6 10 25 18 52 23 3 0 14 -6 24
-14z m331 -25 c4 -6 -10 -10 -34 -10 -22 0 -43 5 -46 10 -4 6 10 10 34 10 22
0 43 -4 46 -10z m-1176 -36 c44 -7 23 -24 -30 -24 -40 0 -63 -19 -53 -44 5
-12 0 -16 -23 -16 -16 0 -76 -7 -134 -16 -91 -14 -189 -15 -809 -10 -387 4
-706 9 -708 11 -2 2 -1 8 2 13 5 9 620 23 1192 27 165 1 306 5 312 9 17 10 15
23 -9 47 l-20 20 123 -6 c68 -3 138 -8 157 -11z m994 10 c16 -17 -8 -34 -49
-34 -57 0 -62 27 -6 33 20 2 40 4 43 5 3 1 8 -1 12 -4z m-135 -16 c-3 -7 -24
-14 -49 -16 -68 -5 -32 19 39 27 8 0 12 -5 10 -11z m285 1 c-8 -8 -16 -8 -30
0 -16 9 -14 10 12 11 21 0 26 -3 18 -11z m-538 -9 c13 -6 -10 -8 -65 -8 -79 1
-81 2 -30 8 30 4 60 7 65 8 6 0 19 -3 30 -8z m-126 -20 c214 -9 268 -15 234
-27 -27 -10 -11 -23 27 -23 22 0 40 5 40 10 0 6 -4 10 -10 10 -5 0 -10 5 -10
10 0 6 23 10 50 10 51 0 61 -8 35 -30 -8 -7 -15 -19 -15 -26 0 -12 -73 -14
-442 -13 -244 1 -432 4 -418 8 28 8 41 41 16 41 -9 0 -16 5 -16 10 0 6 11 10
24 10 13 0 31 3 40 6 11 4 16 1 16 -11 0 -13 8 -16 38 -13 29 2 36 7 34 21 -3
21 13 21 357 7z m561 -24 c0 -19 3 -41 6 -50 5 -14 -4 -16 -65 -16 -67 0 -72
2 -81 25 -14 38 -3 55 38 55 23 0 44 -8 59 -22 l23 -21 0 31 c0 18 5 32 10 32
6 0 10 -15 10 -34z m129 17 c3 -2 5 -19 6 -38 1 -37 -12 -45 -72 -45 -29 0
-33 3 -33 26 0 20 4 25 22 22 11 -2 23 3 25 10 3 7 -5 12 -21 12 -17 0 -26 5
-26 16 0 13 8 14 48 8 26 -3 49 -8 51 -11z m-21 -108 l32 -6 0 -124 0 -124
-27 2 c-22 2 -29 -3 -31 -20 -3 -20 1 -23 27 -23 27 0 31 -3 31 -27 l0 -28
-911 -2 -910 -3 20 26 c12 15 21 41 21 60 0 24 5 34 16 34 10 0 14 7 12 23 -2
16 -9 22 -28 21 -31 -2 -44 16 -23 31 20 15 10 45 -14 45 -10 0 -24 -9 -31
-21 -11 -17 -10 -29 6 -72 36 -97 36 -103 -1 -125 -33 -19 -49 -19 -553 -13
-285 3 -525 10 -531 14 -10 6 -13 52 -13 172 l0 164 28 3 c49 5 2846 -1 2880
-7z"/>
<g>
<path d="M995 5068 c-23 -38 -30 -105 -14 -125 6 -7 21 -13 33 -13 24 0 46
-17 46 -36 0 -7 -14 -28 -32 -48 -29 -33 -33 -35 -52 -22 -25 16 -60 6 -74
-21 -5 -10 -13 -42 -17 -72 l-7 -54 46 6 c75 11 118 54 100 101 -3 8 -2 22 3
31 8 14 14 9 38 -27 26 -37 29 -52 30 -116 0 -48 4 -75 13 -81 29 -17 36 -133
35 -521 -2 -360 -3 -385 -20 -391 -30 -12 -32 -11 -44 35 -6 25 -26 63 -45 85
-41 48 -43 66 -7 83 42 20 58 62 44 109 -7 22 -17 39 -24 39 -23 -1 -87 -65
-96 -96 -6 -23 -4 -40 9 -67 14 -29 15 -37 5 -37 -8 0 -17 5 -20 10 -3 6 -16
10 -29 10 -18 0 -29 13 -51 55 -27 54 -28 55 -70 55 -35 0 -48 -5 -63 -25 -11
-14 -27 -25 -36 -25 -30 0 -31 -32 -2 -57 35 -30 93 -31 130 -2 30 24 34 9 7
-29 -17 -25 -17 -30 -2 -79 9 -32 21 -53 30 -53 19 0 91 74 91 94 0 22 44 21
66 -1 22 -22 43 -74 37 -90 -8 -22 6 -63 22 -63 9 0 15 -9 15 -24 0 -13 6 -26
14 -29 21 -8 25 -78 31 -572 l5 -440 -42 -22 c-24 -13 -73 -36 -110 -52 -60
-26 -68 -33 -77 -68 -6 -21 -11 -63 -11 -93 0 -53 -1 -56 -37 -75 -32 -17 -40
-28 -49 -70 -20 -84 -17 -119 11 -145 31 -29 31 -32 0 -78 -25 -37 -30 -73
-19 -132 5 -23 16 -36 39 -47 l32 -15 -4 -67 c-5 -65 -4 -67 26 -89 17 -12 74
-35 126 -49 l95 -27 0 -141 c0 -78 3 -197 7 -265 l6 -122 33 -14 c47 -20 60
-18 94 14 34 30 31 9 46 353 l7 156 151 13 c83 6 194 14 246 17 l95 4 -23 -23
c-12 -14 -22 -32 -22 -41 0 -10 -8 -17 -20 -17 -27 0 -99 -29 -134 -54 -33
-25 -69 -91 -85 -162 -22 -91 10 -201 79 -277 55 -62 196 -106 248 -78 17 9
25 7 48 -14 63 -58 220 -3 239 85 4 18 19 34 46 49 47 27 79 82 72 127 -4 28
-1 33 26 42 42 15 117 95 131 140 6 20 13 42 15 49 3 9 11 9 32 -2 16 -9 55
-15 91 -15 47 0 62 -3 62 -14 0 -24 -11 -46 -24 -46 -6 0 -23 -13 -39 -29 -31
-31 -85 -51 -143 -51 -37 -1 -38 -1 -19 -17 l20 -15 -20 5 c-11 2 -28 8 -37
12 -26 10 -22 -12 3 -26 47 -25 209 15 201 49 -1 8 2 11 8 7 23 -14 80 69 80
118 0 18 9 26 38 37 53 19 129 70 174 115 46 47 88 177 88 275 0 53 -26 132
-67 205 -26 47 -81 85 -123 85 -11 0 -20 7 -20 15 0 8 9 15 19 15 30 0 77 65
90 123 17 79 -7 180 -50 211 -21 14 -21 17 -7 33 47 53 40 158 -15 216 -28 29
-30 39 -32 102 0 51 -7 81 -23 111 -29 56 -97 112 -150 126 -34 8 -42 14 -36
27 14 31 16 100 4 136 -7 20 -25 52 -41 70 -32 36 -108 85 -132 85 -11 0 -16
16 -19 62 -4 59 -6 63 -51 101 -26 21 -47 44 -47 51 0 19 -62 71 -101 84 -102
34 -286 -64 -345 -185 -27 -54 -29 -66 -29 -173 1 -109 2 -118 32 -175 17 -34
52 -80 77 -103 38 -35 45 -47 40 -67 -15 -61 30 -145 77 -145 27 0 23 15 -6
28 -14 6 -25 15 -25 19 -6 93 -4 113 8 108 8 -3 25 -5 38 -5 14 0 34 -11 47
-26 12 -15 43 -37 69 -49 52 -24 53 -35 3 -35 -33 0 -92 -38 -128 -83 -40 -50
-67 -126 -67 -190 1 -81 24 -130 90 -190 57 -51 57 -53 -2 -87 -9 -6 -22 -34
-29 -65 -10 -47 -10 -60 5 -98 9 -25 26 -53 36 -62 36 -33 23 -37 -87 -33
-119 4 -185 28 -198 69 -4 12 -30 47 -59 79 -28 31 -64 74 -79 94 -16 21 -31
35 -34 33 -8 -9 62 -110 102 -147 40 -38 75 -98 75 -129 0 -11 5 -23 10 -26 6
-3 10 3 10 14 0 23 19 28 39 9 13 -14 233 -15 301 -3 l35 7 -47 -44 c-138
-128 -126 -320 24 -398 21 -11 52 -20 68 -20 l28 0 -29 -29 c-33 -33 -36 -56
-14 -88 19 -27 79 -41 100 -23 19 16 19 46 0 54 -10 4 -15 -1 -15 -14 0 -23
-29 -27 -48 -8 -16 16 -15 53 1 66 7 6 24 8 37 5 19 -5 22 -3 17 10 -5 13 -1
17 17 17 29 0 96 -71 96 -101 0 -21 0 -21 -19 2 -25 31 -36 20 -16 -17 8 -16
15 -34 15 -41 0 -7 7 -16 15 -21 19 -10 10 -43 -10 -36 -7 3 -22 -10 -34 -29
-22 -36 -71 -73 -134 -102 -20 -10 -37 -21 -37 -26 0 -27 -139 7 -197 49 -41
29 -79 109 -64 133 16 26 14 49 -4 49 -8 0 -15 -7 -15 -15 0 -21 -53 -19 -73
3 -9 10 -19 35 -22 57 -6 36 -3 43 25 70 31 29 32 29 46 11 8 -11 14 -28 14
-37 0 -23 49 -63 104 -84 37 -14 50 -15 81 -5 48 16 75 47 74 84 0 17 -3 24
-6 16 -29 -75 -84 -95 -160 -56 -63 31 -86 75 -58 106 18 20 18 20 -99 14 -95
-6 -120 -4 -126 7 -7 11 -15 10 -47 -5 -25 -12 -76 -21 -153 -27 -168 -11
-196 -1 -150 58 26 33 25 46 -4 79 l-23 28 28 24 c31 25 37 50 17 70 -9 9 -7
13 8 18 26 10 34 24 34 62 0 33 14 43 24 17 3 -8 13 -15 23 -15 16 1 16 3 -3
19 -43 36 -63 95 -78 228 -10 96 -20 142 -39 183 -14 30 -31 73 -38 95 -14 47
-14 172 2 211 12 34 42 64 64 64 22 0 18 -14 -7 -25 -31 -14 -44 -55 -32 -102
9 -37 10 -38 54 -38 45 1 45 1 72 -55 29 -57 117 -175 125 -166 10 10 -9 44
-41 77 -49 50 -84 124 -97 209 -11 78 -36 120 -70 120 -16 0 -17 12 -12 148 3
81 9 155 14 164 5 9 9 28 9 42 0 15 4 34 9 44 21 41 41 94 41 107 0 7 7 21 17
30 9 10 16 31 15 51 -1 24 4 37 18 44 29 16 38 12 42 -17 2 -23 10 -30 43 -39
22 -6 48 -14 58 -18 23 -11 24 -9 32 44 5 38 3 49 -15 68 -24 25 -71 29 -90 7
-13 -16 -50 -21 -50 -6 0 4 8 19 18 32 9 13 22 31 27 40 6 9 18 28 29 43 20
29 17 57 -12 95 -19 23 -19 23 -47 5 -15 -10 -34 -34 -42 -52 -11 -26 -17 -32
-26 -23 -18 18 -25 13 -43 -25 -15 -30 -15 -39 -3 -61 7 -14 24 -29 36 -34 34
-13 28 -41 -13 -62 -20 -10 -39 -15 -43 -12 -12 13 -13 353 -2 525 7 96 14
272 15 390 l3 215 37 68 c30 57 36 79 36 128 0 117 -40 164 -150 175 l-69 7
34 40 c42 48 34 67 -28 67 l-40 0 20 23 c26 28 43 61 43 81 0 14 -9 15 -57 10
-32 -3 -70 -14 -85 -25 -27 -19 -27 -19 -34 4 -8 27 -43 67 -59 67 -6 0 -19
-15 -30 -32z m65 -60 c0 -14 5 -18 16 -14 8 3 12 2 9 -4 -9 -14 -42 -12 -49 3
-3 9 -9 7 -19 -6 -14 -16 -15 -16 -20 10 -3 17 1 38 10 52 l16 25 18 -23 c11
-13 19 -32 19 -43z m163 2 c-3 -11 -18 -29 -33 -40 -31 -22 -51 -27 -32 -8 16
16 15 28 -3 28 -9 0 -18 -7 -21 -15 -8 -21 -24 -19 -24 4 0 26 38 50 82 50 31
1 35 -2 31 -19z m-133 -70 c0 -11 -4 -20 -9 -20 -14 0 -23 18 -16 30 10 17 25
11 25 -10z m38 -52 c-14 -44 -26 -55 -34 -34 -9 22 11 66 30 66 12 0 13 -6 4
-32z m122 22 c13 -8 12 -12 -5 -29 -24 -23 -75 -39 -75 -22 0 6 8 11 18 11 14
1 14 4 -6 20 l-23 19 33 4 c18 2 35 4 38 5 3 1 12 -3 20 -8z m-61 -81 c26 1
29 5 -46 -51 -8 -6 -17 0 -29 17 -15 23 -15 28 -3 36 8 5 23 7 34 3 11 -3 31
-5 44 -5z m-239 -34 c-7 -8 -9 -22 -6 -31 6 -16 8 -16 25 0 17 15 31 13 31 -6
0 -18 -41 -48 -66 -48 -21 0 -25 3 -19 18 4 9 7 24 8 32 0 8 7 23 15 33 18 21
30 23 12 2z m285 -126 c-5 -59 -4 -80 4 -75 6 4 12 31 13 59 l1 52 7 -60 c6
-52 7 -55 8 -18 2 54 20 65 24 16 l3 -38 23 25 22 24 0 -30 c0 -16 -7 -39 -15
-50 -8 -12 -12 -24 -9 -27 3 -3 -4 -10 -15 -17 -12 -6 -20 -14 -18 -18 3 -4 1
-16 -4 -27 -7 -18 -8 -18 -9 5 -2 14 -2 31 -1 38 1 7 -12 15 -29 18 -30 6 -31
8 -26 48 3 22 8 67 11 99 4 31 9 57 12 57 3 0 2 -37 -2 -81z m52 59 c-3 -8 -6
-5 -6 6 -1 11 2 17 5 13 3 -3 4 -12 1 -19z m123 -49 c0 -16 -4 -28 -9 -25 -8
5 -3 56 5 56 2 0 4 -14 4 -31z m-255 -48 c7 -12 -12 -24 -25 -16 -11 7 -4 25
10 25 5 0 11 -4 15 -9z m35 -16 c0 -18 -5 -25 -20 -25 -11 0 -20 5 -20 11 0 6
7 9 15 5 10 -4 15 1 15 14 0 11 2 20 5 20 3 0 5 -11 5 -25z m180 -24 c0 -30
-4 -40 -20 -44 -28 -7 -35 10 -10 23 12 6 20 21 20 35 0 14 2 25 5 25 3 0 5
-17 5 -39z m-120 -126 c-10 -12 -10 -19 -2 -27 7 -7 12 -20 12 -29 0 -10 6
-19 13 -22 9 -3 9 -7 0 -17 -8 -9 -9 -19 -2 -32 5 -10 7 -23 4 -28 -3 -6 2
-10 11 -10 16 0 16 -1 1 -18 -10 -10 -17 -23 -17 -28 0 -5 -9 -10 -20 -11 -15
-1 -20 4 -20 23 0 25 15 33 23 12 3 -7 5 5 5 27 0 22 -2 34 -5 28 -8 -21 -26
-15 -20 6 3 14 1 18 -9 14 -16 -6 -17 10 -8 81 5 37 11 46 27 46 16 0 17 -2 7
-15z m60 5 c0 -5 -4 -10 -10 -10 -5 0 -10 5 -10 10 0 6 5 10 10 10 6 0 10 -4
10 -10z m5 -222 c5 4 5 2 1 -5 -8 -14 -36 -6 -36 9 0 7 5 6 13 -1 8 -6 18 -7
22 -3z m-85 -192 c0 -3 -4 -8 -10 -11 -5 -3 -10 -1 -10 4 0 6 5 11 10 11 6 0
10 -2 10 -4z m17 -53 c-3 -3 -11 -2 -17 2 -8 5 -7 11 2 22 12 15 13 14 16 -1
2 -10 1 -20 -1 -23z m33 -23 c0 -47 5 -55 33 -51 4 0 7 -13 7 -31 0 -17 -3
-28 -7 -24 -4 4 -8 15 -8 24 0 9 -6 16 -12 15 -7 -2 -13 3 -13 10 0 6 -9 1
-19 -12 l-19 -24 -11 21 c-17 33 -14 44 12 36 21 -6 21 -6 -3 14 l-25 22 23 6
c13 4 22 14 22 25 0 11 5 19 10 19 6 0 10 -22 10 -50z m-237 -10 c7 -28 -3
-60 -18 -60 -8 0 -20 -3 -29 -6 -12 -5 -16 0 -16 20 0 25 30 66 49 66 5 0 11
-9 14 -20z m-227 -70 c-1 -37 -38 -56 -79 -41 -15 6 -27 14 -27 18 0 16 56 52
81 53 23 0 26 -4 25 -30z m477 -30 c3 -11 1 -23 -4 -26 -5 -3 -9 6 -9 20 0 31
6 34 13 6z m-405 -65 c33 -17 33 -26 2 -72 -18 -29 -30 -29 -30 -2 0 11 -4 29
-10 39 -5 10 -7 26 -4 34 7 19 4 19 42 1z m407 6 c3 -5 1 -12 -5 -16 -5 -3
-10 1 -10 9 0 18 6 21 15 7z m-46 -17 c6 4 11 0 11 -9 0 -8 -7 -18 -15 -21 -8
-4 -15 -17 -15 -29 0 -27 -17 -42 -31 -28 -5 5 -2 20 6 37 8 16 15 38 15 50 0
16 2 18 9 7 5 -7 14 -10 20 -7z m38 -36 c-3 -8 -6 -5 -6 6 -1 11 2 17 5 13 3
-3 4 -12 1 -19z m11 -66 c-2 -4 -8 -6 -14 -4 -7 1 -15 -2 -19 -8 -10 -16 -22
-12 -28 10 -5 18 3 25 26 21 4 -1 10 6 14 16 5 14 8 13 14 -6 5 -11 8 -25 7
-29z m-142 -45 c8 3 14 -1 14 -11 0 -18 -15 -22 -25 -6 -10 16 -25 12 -25 -7
0 -9 -3 -14 -6 -10 -3 3 -3 15 1 27 5 15 10 19 17 12 6 -6 17 -8 24 -5z m104
-7 c0 -5 -5 -10 -11 -10 -5 0 -7 5 -4 10 3 6 8 10 11 10 2 0 4 -4 4 -10z m-32
-38 c2 -12 7 -20 12 -17 5 3 12 -15 15 -40 4 -25 11 -42 16 -39 5 3 9 -11 9
-31 0 -22 4 -34 10 -30 6 3 10 18 10 33 1 22 2 24 10 10 13 -21 -1 -93 -18
-94 -7 -1 -16 -2 -22 -3 -5 0 -10 -19 -10 -42 0 -28 4 -38 12 -33 7 5 8 3 4
-5 -5 -7 0 -18 10 -26 16 -12 16 -14 3 -15 -8 0 -25 -9 -37 -21 -12 -11 -27
-17 -33 -13 -7 4 -9 -5 -6 -29 2 -19 1 -41 -4 -48 -6 -10 -9 -3 -9 20 0 33 -1
34 -15 15 -12 -16 -14 -16 -15 -3 0 9 7 22 15 29 18 15 20 46 3 53 -9 4 -10 8
-2 14 16 12 12 209 -4 206 -6 -2 -12 2 -12 7 0 6 7 10 15 10 8 0 16 10 17 23
1 12 5 -16 8 -63 l6 -85 2 98 2 97 -25 -6 c-16 -4 -25 -2 -25 6 0 7 7 10 15 6
11 -4 15 2 15 20 0 31 24 27 28 -4z m870 2 c18 -8 40 -13 51 -9 13 4 26 -4 45
-25 31 -38 33 -50 5 -50 -58 0 -172 -78 -204 -140 -18 -35 -27 -97 -16 -104
12 -8 51 41 51 63 0 9 7 27 15 41 8 14 19 35 24 47 9 20 57 48 115 67 10 3 36
1 58 -4 31 -9 43 -18 54 -45 31 -75 12 -115 -53 -115 -33 0 -53 16 -53 42 0
15 5 17 25 12 18 -4 25 -2 25 9 0 21 -26 28 -55 15 -29 -13 -35 -58 -10 -78
12 -10 5 -16 -38 -39 -91 -47 -141 -164 -123 -286 8 -50 4 -53 -37 -27 -36 24
-74 77 -82 113 -7 30 -25 40 -25 13 0 -8 -4 -13 -10 -9 -5 3 -12 33 -16 66 -5
45 -10 59 -20 55 -20 -8 -18 57 2 95 16 33 12 51 -8 31 -7 -7 -15 -12 -19 -12
-10 0 10 60 26 80 28 34 29 43 6 37 -21 -5 -21 -4 -9 15 8 11 32 30 53 42 22
11 42 24 45 27 3 3 13 9 24 12 14 6 16 10 6 21 -9 12 -4 16 33 21 24 4 52 5
63 3 13 -2 19 2 18 15 -2 21 -4 21 34 1z m-790 -38 c-1 -29 -3 -32 -15 -20
-11 10 -11 18 -3 34 15 28 20 25 18 -14z m222 -25 c16 -39 7 -52 -25 -38 -25
12 -30 23 -19 51 10 25 30 19 44 -13z m400 19 c0 -5 -5 -10 -11 -10 -5 0 -7 5
-4 10 3 6 8 10 11 10 2 0 4 -4 4 -10z m-485 -100 c8 -25 -1 -41 -20 -34 -16 7
-27 32 -19 45 9 16 32 10 39 -11z m-125 -125 c0 -9 -6 -12 -15 -9 -8 4 -15 10
-15 15 0 5 7 9 15 9 8 0 15 -7 15 -15z m286 -20 c-4 -11 -12 -15 -22 -11 -9 3
-22 6 -30 6 -8 0 -14 5 -14 10 0 6 11 10 25 10 14 0 25 5 25 12 0 9 3 9 11 1
7 -7 9 -19 5 -28z m788 -20 c82 -48 116 -100 116 -178 0 -66 -42 -116 -95
-117 -35 0 -55 15 -55 42 0 10 -7 18 -15 18 -20 0 -20 -44 1 -64 20 -20 86
-21 125 -1 36 19 103 11 95 -11 -3 -8 8 -20 29 -30 19 -9 35 -23 35 -30 0 -8
4 -14 9 -14 19 0 44 -89 39 -135 -6 -46 -1 -54 20 -33 20 20 15 -12 -8 -49
-21 -35 -13 -44 15 -17 15 15 17 15 35 -1 11 -10 18 -30 18 -48 0 -18 2 -58 5
-89 3 -32 2 -60 -2 -62 -4 -3 -24 0 -44 6 -37 11 -37 12 -37 65 0 68 -17 107
-72 163 -44 45 -106 74 -134 63 -8 -3 -25 4 -37 15 -28 26 -86 47 -157 57 -30
4 -66 13 -80 20 -14 7 -44 21 -66 31 -23 10 -40 24 -37 30 2 7 -3 24 -12 38
-13 19 -16 37 -11 67 5 30 3 40 -6 37 -7 -3 -15 -15 -19 -29 -7 -24 -7 -24 -8
4 -1 15 4 27 9 27 6 0 10 13 10 28 0 15 8 44 19 64 11 23 15 40 9 46 -13 13
69 82 97 82 11 0 25 4 31 9 8 9 40 14 112 19 13 1 42 -9 66 -23z m-1154 -100
c-8 -9 -8 -15 0 -20 6 -3 7 -12 3 -18 -4 -7 1 -5 11 3 17 13 18 13 15 -4 -5
-22 -38 -31 -40 -10 -5 50 -5 60 -1 67 2 4 8 5 13 1 6 -4 6 -11 -1 -19z m92
-31 c-7 -27 -11 -34 -16 -23 -7 16 10 76 19 67 3 -3 1 -23 -3 -44z m485 -16
c-3 -8 -6 -5 -6 6 -1 11 2 17 5 13 3 -3 4 -12 1 -19z m-490 -50 c-3 -8 -6 -5
-6 6 -1 11 2 17 5 13 3 -3 4 -12 1 -19z m-87 -18 c0 -16 -4 -30 -9 -30 -8 0
-9 43 -2 58 5 11 11 -3 11 -28z m-30 -52 c0 -16 -3 -19 -11 -11 -6 6 -8 16 -5
22 11 17 16 13 16 -11z m95 -18 c-3 -5 -10 -10 -16 -10 -5 0 -9 5 -9 10 0 6 7
10 16 10 8 0 12 -4 9 -10z m-95 -20 c0 -5 -5 -10 -11 -10 -5 0 -7 5 -4 10 3 6
8 10 11 10 2 0 4 -4 4 -10z m20 -43 c0 -7 -9 -13 -20 -14 -11 -1 -20 4 -20 13
0 8 9 14 20 14 11 0 20 -6 20 -13z m9 -38 c-19 -11 -24 -3 -8 14 8 9 16 11 18
5 2 -6 -3 -14 -10 -19z m57 -24 c-14 -14 -16 -14 -16 -2 0 9 6 17 13 20 19 7
21 -1 3 -18z m-46 -21 c0 -21 -4 -33 -10 -29 -5 3 -10 -1 -10 -9 0 -9 6 -16
13 -16 8 0 7 -4 -3 -11 -11 -8 -12 -12 -2 -16 7 -2 12 -22 12 -44 0 -22 4 -38
8 -35 4 2 14 1 21 -4 11 -6 9 -13 -8 -31 -11 -12 -21 -27 -21 -32 0 -5 -9 -20
-20 -34 -20 -25 -20 -25 -20 -4 0 12 -4 19 -10 16 -5 -3 -10 -1 -10 4 0 6 5
11 11 11 6 0 9 9 6 20 -3 10 1 24 9 31 17 14 19 49 3 49 -6 0 -8 7 -5 16 4 10
-1 23 -11 31 -17 14 -17 14 0 9 21 -7 22 3 3 18 -20 15 -9 67 15 73 11 3 19 9
19 14 0 5 2 9 5 9 3 0 5 -16 5 -36z m1112 -63 c23 -10 56 -33 72 -50 33 -34
46 -39 46 -16 0 8 6 15 13 15 21 0 72 -28 92 -51 16 -17 17 -22 5 -29 -11 -7
-11 -11 -1 -24 8 -9 21 -16 31 -16 18 0 30 -19 30 -46 0 -8 -5 -13 -12 -12 -7
2 -15 -16 -19 -43 -8 -54 -21 -82 -60 -127 -16 -18 -29 -37 -29 -42 0 -6 -11
-10 -24 -10 l-24 0 29 53 c23 42 29 65 29 115 0 34 -7 78 -14 97 -18 43 -42
48 -31 8 4 -16 9 -58 12 -96 4 -59 1 -75 -24 -127 -17 -37 -34 -60 -44 -60 -9
0 -32 -11 -51 -24 l-36 -24 -28 24 c-16 13 -36 24 -44 24 -10 0 -7 5 7 13 72
40 97 149 48 213 -34 44 -86 59 -132 37 -34 -16 -63 -48 -63 -68 0 -39 90 -75
103 -41 4 10 -3 13 -26 12 -26 -1 -33 3 -35 22 -5 32 25 62 60 62 25 0 28 -3
23 -20 -5 -14 -2 -20 10 -20 28 0 40 -23 43 -79 2 -51 0 -56 -35 -87 -47 -42
-110 -59 -164 -43 -82 25 -169 134 -169 211 0 69 46 178 74 178 8 0 24 16 36
35 12 19 26 35 32 35 6 0 5 -6 -2 -15 -24 -29 -2 -26 31 3 19 16 41 32 49 35
27 12 147 -2 192 -22z m-967 -195 c8 -52 2 -66 -30 -66 -26 0 -35 17 -35 64 0
39 6 46 36 46 19 0 24 -7 29 -44z m-263 -156 c-3 -69 -6 -79 -18 -69 -8 6 -18
8 -22 4 -4 -4 3 -14 16 -22 19 -14 22 -24 22 -87 0 -71 1 -72 41 -111 50 -49
72 -98 66 -147 -4 -33 -3 -38 16 -38 28 0 107 -48 107 -65 0 -12 -7 -11 -32 5
-18 11 -47 20 -64 20 -40 0 -78 -29 -72 -55 4 -18 6 -17 16 8 10 23 17 27 51
27 77 0 109 -71 38 -83 -38 -6 -164 10 -190 24 -25 14 -37 1 -14 -16 10 -7 57
-16 105 -19 99 -8 122 -13 122 -27 0 -6 -9 -7 -21 -4 -30 10 -86 -3 -93 -20
-6 -18 3 -45 15 -45 5 0 9 11 9 25 0 22 4 25 34 25 23 0 36 -6 40 -17 8 -19
-16 -42 -43 -44 -25 -1 -53 -5 -94 -13 -41 -8 -67 -2 -192 46 -159 60 -145 48
-145 126 0 59 3 72 23 90 l23 22 90 -60 c49 -33 92 -60 97 -60 23 0 -2 23 -75
70 -85 55 -142 102 -159 132 -8 15 -6 38 16 144 4 19 14 26 50 33 6 1 15 -26
20 -60 l10 -62 85 -59 c94 -65 155 -97 185 -98 10 0 -9 15 -45 33 -35 17 -65
37 -67 43 -7 20 27 45 51 38 30 -9 66 -44 66 -66 0 -10 5 -18 10 -18 20 0 9
47 -17 72 -43 41 -77 45 -108 14 -25 -25 -27 -25 -51 -9 -14 9 -40 23 -57 32
-40 20 -47 50 -50 203 -2 110 -1 118 22 142 13 14 35 28 50 31 14 3 49 16 76
29 27 14 52 23 55 21 3 -2 4 -40 2 -85z m99 60 c5 0 9 -28 9 -62 -1 -60 -1
-62 -15 -38 -8 14 -14 49 -13 80 0 30 2 47 5 38 2 -10 9 -18 14 -18z m1514
-70 c35 -22 58 -57 30 -46 -18 7 -19 -2 -2 -37 6 -15 17 -27 23 -27 13 0 24
-22 24 -46 0 -8 -6 -14 -14 -14 -9 0 -16 -16 -20 -44 -4 -24 -13 -52 -21 -62
-8 -11 -15 -27 -15 -36 0 -29 -20 -20 -20 8 0 60 -80 162 -153 194 l-39 17 29
11 c37 15 55 31 78 70 23 38 52 42 100 12z m-1488 -62 c-3 -8 -6 -5 -6 6 -1
11 2 17 5 13 3 -3 4 -12 1 -19z m20 -70 c-3 -8 -6 -5 -6 6 -1 11 2 17 5 13 3
-3 4 -12 1 -19z m1013 -5 c16 -9 33 -27 39 -40 11 -25 31 -31 31 -10 0 8 11
24 25 37 34 32 136 40 184 16 66 -35 131 -134 131 -201 0 -53 -17 -113 -43
-149 -34 -49 -157 -89 -157 -52 0 8 -7 16 -15 20 -8 3 -15 12 -15 21 0 8 -7
15 -16 15 -11 0 -14 6 -9 20 9 29 -18 26 -34 -4 -15 -28 -5 -54 35 -85 52 -41
165 -20 220 41 21 23 58 94 59 113 1 11 17 9 57 -6 40 -16 100 -111 92 -144
-9 -38 4 -98 21 -91 11 4 13 -2 10 -22 -2 -15 -7 -54 -10 -87 -6 -59 -42 -135
-66 -135 -5 0 -33 -22 -60 -49 -63 -62 -123 -91 -189 -91 -27 0 -50 -4 -50 -9
0 -16 64 -19 110 -5 24 7 46 11 48 9 8 -8 -104 -35 -146 -35 -62 0 -105 29
-127 85 -23 61 -59 102 -96 110 -28 6 -29 8 -15 24 19 21 55 101 56 123 0 9
-11 30 -25 45 -19 21 -24 24 -25 11 0 -9 5 -20 11 -24 7 -4 9 -23 5 -52 -9
-64 -59 -112 -117 -112 -43 0 -111 30 -141 64 -23 25 -38 79 -38 140 0 55 39
137 80 170 14 11 49 43 78 71 42 40 54 58 59 90 9 73 -59 123 -109 78 -22 -19
-23 -46 -4 -63 18 -14 58 -10 64 8 3 9 -3 13 -19 10 -16 -2 -24 2 -24 12 0 22
33 24 55 5 26 -24 16 -72 -21 -107 -34 -32 -53 -34 -108 -12 -43 17 -56 40
-64 112 -5 41 -3 44 50 92 56 50 63 52 166 58 16 1 42 -5 57 -15z m-1033 -73
c5 -39 12 -52 23 -45 6 4 10 -17 10 -57 l-1 -63 -20 25 c-19 23 -20 25 -3 37
16 12 16 14 1 31 -9 10 -17 31 -17 47 0 16 -3 25 -7 22 -9 -10 -34 13 -27 25
11 17 37 3 41 -22z m30 -202 c-3 -8 -6 -5 -6 6 -1 11 2 17 5 13 3 -3 4 -12 1
-19z m63 -44 c0 -14 -12 -19 -23 -8 -9 9 4 35 14 28 5 -3 9 -12 9 -20z m-340
-267 c35 -16 72 -21 165 -24 66 -3 125 -9 132 -15 16 -13 17 -58 2 -58 -5 0
-8 3 -6 8 3 4 1 17 -4 30 -16 43 -106 20 -120 -30 -8 -31 8 -50 17 -21 12 38
22 48 50 48 25 0 29 -4 29 -29 0 -25 -5 -30 -45 -43 -86 -26 -123 -25 -212 2
-98 31 -128 58 -128 114 0 66 9 68 120 18z m234 -166 c3 -5 -1 -14 -9 -21 -8
-7 -15 -10 -15 -7 0 3 -3 12 -6 21 -7 17 20 23 30 7z m4 -80 c-1 -14 -7 -32
-12 -39 -5 -8 -6 -12 0 -11 19 3 34 -1 34 -12 0 -5 -4 -7 -10 -4 -5 3 -10 -3
-10 -14 0 -12 -4 -21 -10 -21 -5 0 -12 -11 -16 -25 -3 -14 -10 -25 -14 -25 -4
0 -5 -11 -2 -25 2 -15 0 -25 -7 -25 -22 0 -10 83 16 111 18 19 20 26 8 26 -8
0 -15 -4 -15 -8 0 -3 -9 -9 -20 -12 -11 -3 -20 -1 -20 4 0 5 7 9 15 9 9 0 15
10 15 26 0 14 4 23 10 19 9 -6 14 9 13 41 0 6 6 11 14 11 9 0 13 -9 11 -26z
m1537 9 c-10 -11 -21 -18 -23 -15 -3 3 3 12 14 20 27 20 30 18 9 -5z m-45 -35
c-7 -8 -17 -15 -23 -15 -6 0 -2 7 9 15 25 19 30 19 14 0z m-996 -1 c9 -3 16
-16 16 -29 0 -25 23 -49 62 -64 17 -6 33 -24 42 -45 39 -93 143 -159 251 -159
33 0 69 2 80 4 16 3 21 -2 23 -27 4 -41 -32 -83 -78 -93 -31 -6 -35 -10 -32
-33 7 -59 -74 -122 -143 -114 -59 7 -68 21 -41 61 42 61 42 141 1 175 -21 18
-78 18 -99 1 -20 -17 -21 -51 -1 -51 8 0 15 6 15 14 0 18 33 30 59 21 23 -7
32 -39 24 -88 -4 -28 -16 -45 -45 -69 -36 -28 -44 -30 -94 -25 -63 6 -154 54
-182 95 -70 104 -77 204 -23 318 27 58 59 84 131 107 8 3 16 6 17 6 1 1 8 -2
17 -5z m614 -156 c-20 -31 -69 -78 -79 -78 -18 0 -8 16 24 38 19 12 40 34 47
47 7 14 15 23 18 20 3 -2 -2 -15 -10 -27z m-1088 6 c0 -4 -8 -13 -17 -21 -13
-10 -15 -16 -5 -19 17 -8 15 -24 -3 -24 -8 0 -12 -6 -10 -12 3 -7 1 -26 -4
-43 -8 -24 -9 -15 -8 42 2 55 6 73 17 77 25 6 30 6 30 0z m1240 -84 c-8 -5
-22 -9 -30 -9 -10 0 -8 3 5 9 27 12 43 12 25 0z m-63 -16 c-3 -3 -12 -4 -19
-1 -8 3 -5 6 6 6 11 1 17 -2 13 -5z m-1207 -83 c0 -6 -4 -13 -10 -16 -5 -3
-10 1 -10 9 0 9 5 16 10 16 6 0 10 -4 10 -9z m-55 -62 c8 -23 1 -34 -14 -24
-13 8 -15 45 -2 45 5 0 13 -9 16 -21z"/>
<g>
<path d="M1231 3414 c0 -11 3 -14 6 -6 3 7 2 16 -1 19 -3 4 -6 -2 -5 -13z"/>
</g>
<g>
<path d="M2100 3431 c-25 -21 -42 -42 -37 -47 4 -4 20 4 35 19 15 14 44 33 65
42 44 18 47 25 10 25 -18 0 -44 -14 -73 -39z"/>
</g>
<g>
<path d="M2252 3446 c1 -10 8 -17 13 -17 15 1 12 24 -3 29 -9 3 -13 -2 -10
-12z"/>
</g>
<g>
<path d="M2269 3131 c-24 -24 -29 -38 -29 -76 0 -40 5 -52 34 -81 26 -26 42
-34 70 -34 49 0 45 15 -6 26 -35 7 -47 16 -62 44 -33 62 5 140 68 140 16 0 51
-38 43 -46 -4 -4 -13 -1 -21 5 -19 16 -32 -5 -15 -25 30 -37 82 5 61 50 -10
23 -17 26 -63 26 -43 0 -55 -5 -80 -29z"/>
</g>
<g>
<path d="M1216 2671 c-4 -5 -2 -12 3 -15 5 -4 12 -2 15 3 4 5 2 12 -3 15 -5 4
-12 2 -15 -3z"/>
</g>
<g>
<path d="M1054 2212 c5 -8 66 -4 66 4 0 2 -16 4 -36 4 -19 0 -33 -4 -30 -8z"/>
</g>
<g>
<path d="M1085 1920 c-7 -12 2 -30 16 -30 12 0 12 27 0 35 -5 3 -12 1 -16 -5z"/>
</g>
<g>
<path d="M1085 1780 c-7 -11 2 -30 13 -30 4 0 8 9 8 20 0 21 -11 26 -21 10z"/>
</g>
<g>
<path d="M2862 1717 c-5 -6 -13 -32 -17 -57 -6 -40 -5 -43 8 -30 19 18 38 88
27 95 -4 3 -12 -1 -18 -8z"/>
</g>
<g>
<path d="M1094 1620 c-1 -26 3 -39 10 -37 14 5 15 69 1 74 -6 2 -11 -15 -11
-37z"/>
</g>
</g>
<g>
<path d="M821 4387 c-12 -24 -21 -56 -21 -71 0 -33 41 -76 73 -76 25 0 87 57
87 80 -1 23 -34 61 -55 64 -11 1 -24 12 -30 24 -15 33 -31 27 -54 -21z m70
-27 c19 0 51 -38 43 -51 -3 -6 -17 -8 -31 -4 -20 5 -24 2 -21 -12 3 -17 -2
-23 -20 -23 -22 0 -43 96 -25 113 3 4 14 0 23 -8 9 -8 23 -15 31 -15z"/>
</g>
<g>
<path d="M1657 4195 c-9 -20 -17 -48 -17 -62 0 -37 40 -93 67 -93 28 0 93 61
93 88 0 21 -52 72 -75 72 -7 0 -18 7 -25 15 -18 22 -24 19 -43 -20z m92 -34
c24 -13 27 -39 8 -65 -12 -17 -14 -16 -25 8 -6 14 -16 26 -21 26 -16 0 -24
-21 -12 -33 14 -14 15 -30 1 -22 -20 12 -42 67 -36 90 5 21 10 23 35 15 15 -4
38 -13 50 -19z"/>
</g>
<g>
<path d="M1466 3998 c-21 -80 15 -135 80 -125 101 17 99 127 -3 127 -17 0 -35
5 -38 10 -11 18 -32 11 -39 -12z m107 -35 c21 -19 23 -53 3 -53 -8 0 -18 5
-21 10 -3 6 -13 10 -22 10 -11 0 -14 -6 -10 -22 6 -21 6 -21 -13 -2 -10 10
-22 30 -25 45 -6 23 -4 25 32 26 22 1 45 -5 56 -14z"/>
</g>
<g>
<path d="M1606 3804 c-25 -25 -20 -70 13 -106 28 -31 29 -32 67 -19 58 19 77
37 77 71 0 39 -28 61 -69 54 -18 -3 -35 -1 -38 5 -10 16 -32 14 -50 -5z m44
-26 c16 -10 24 -10 39 -1 25 16 53 -12 44 -45 -7 -29 -27 -28 -41 4 -14 30
-32 23 -32 -13 0 -22 -2 -24 -16 -12 -20 16 -36 57 -28 70 7 12 10 11 34 -3z"/>
</g>
<g>
<path d="M746 3340 c1 -83 18 -110 70 -110 26 0 39 7 58 33 15 19 26 39 26 45
0 20 -23 62 -34 62 -7 0 -29 9 -51 20 -65 33 -70 30 -69 -50z m77 15 c20 -8
37 -23 40 -36 8 -31 0 -41 -23 -27 -24 15 -37 4 -20 -17 17 -21 5 -32 -16 -14
-23 19 -35 56 -28 85 7 28 3 28 47 9z"/>
</g>
<g>
<path d="M530 3183 c11 -113 49 -136 121 -75 22 19 25 60 7 85 -7 9 -31 21
-53 26 -22 5 -49 12 -60 16 -20 6 -21 3 -15 -52z m97 -1 c11 -7 16 -26 14 -50
0 -7 -6 -10 -12 -6 -7 4 -24 7 -38 8 -21 1 -27 7 -29 29 -3 24 0 27 25 27 15
0 33 -4 40 -8z m-22 -82 c3 -5 1 -10 -4 -10 -6 0 -11 5 -11 10 0 6 2 10 4 10
3 0 8 -4 11 -10z"/>
</g>
<g>
<path d="M1460 3042 c-33 -27 -33 -97 -1 -123 13 -10 32 -19 42 -19 10 0 19
-4 19 -9 0 -6 12 -6 31 1 55 19 60 87 8 113 -15 8 -30 24 -34 35 -8 25 -36 26
-65 2z m69 -58 c23 -12 31 -22 29 -37 -4 -28 -28 -35 -28 -8 0 14 -6 21 -20
21 -11 0 -20 -5 -20 -11 0 -5 -4 -7 -10 -4 -15 9 -12 55 3 55 8 0 28 -7 46
-16z"/>
</g>
<g>
<path d="M789 2991 c-27 -89 29 -149 97 -105 39 26 49 52 28 75 -9 10 -25 19
-35 19 -10 0 -26 11 -37 25 -27 35 -39 31 -53 -14z m89 -41 c6 0 12 -6 12 -13
0 -13 -70 -22 -70 -9 0 4 -3 17 -6 30 -6 21 -6 22 22 7 16 -8 35 -15 42 -15z"/>
</g>
<g>
<path d="M1986 2842 c-3 -6 1 -13 10 -16 23 -9 28 -2 10 13 -8 7 -17 8 -20 3z"/>
</g>
<g>
<path d="M1487 1863 c-4 -6 2 -18 13 -28 23 -21 27 -8 7 20 -8 11 -16 14 -20
8z"/>
</g>
<g>
<path d="M1965 1583 c-41 -10 -41 -26 0 -19 22 3 57 6 78 6 20 0 37 5 37 10 0
10 -77 12 -115 3z"/>
</g>
<g>
<path d="M2470 1264 c-19 -7 -45 -13 -57 -13 -12 -1 -25 -5 -28 -11 -12 -20
68 -8 110 17 29 17 15 21 -25 7z"/>
</g>
<g>
<path d="M496 1253 c-11 -11 -6 -23 9 -23 8 0 15 4 15 9 0 13 -16 22 -24 14z"/>
</g>
<g>
<path d="M1440 850 c0 -5 5 -10 10 -10 6 0 10 5 10 10 0 6 -4 10 -10 10 -5 0
-10 -4 -10 -10z"/>
</g>
<g>
<path d="M1425 780 c-12 -19 5 -30 30 -18 13 6 22 15 19 19 -7 12 -41 11 -49
-1z"/>
</g>
<g>
<path d="M2270 796 c0 -2 8 -10 18 -17 15 -13 16 -12 3 4 -13 16 -21 21 -21
13z"/>
</g>
<g>
<path d="M160 331 c0 -5 4 -13 10 -16 11 -7 -19 -96 -61 -178 -20 -38 -15 -50
21 -44 28 5 37 16 38 53 2 43 17 64 46 64 40 0 58 -23 60 -75 l3 -49 41 -3
c49 -3 62 11 34 37 -19 18 -31 59 -50 170 l-7 45 -68 3 c-39 2 -67 -1 -67 -7z
m84 -53 c9 -35 8 -38 -19 -38 -25 0 -31 13 -19 44 9 23 31 19 38 -6z"/>
</g>
<g>
<path d="M412 312 c-101 -91 -46 -227 91 -224 51 1 85 20 73 41 -4 6 -20 11
-36 11 -46 0 -76 16 -100 54 -19 32 -20 40 -10 71 8 24 19 37 37 41 33 9 59
-8 55 -35 -2 -14 2 -21 13 -21 27 0 55 20 55 39 0 33 -33 51 -91 51 -46 0 -60
-5 -87 -28z"/>
</g>
<g>
<path d="M2041 331 c-11 -7 -10 -11 4 -18 15 -9 17 -23 14 -103 -3 -63 -8 -95
-16 -98 -29 -9 -10 -22 32 -22 49 0 53 4 30 26 -10 10 -15 36 -15 76 0 34 2
59 4 57 16 -16 106 -145 106 -152 0 -5 15 -7 33 -5 l32 3 0 103 c0 88 3 105
18 113 26 15 11 29 -33 29 -41 0 -62 -16 -36 -26 12 -5 16 -20 16 -60 0 -30
-4 -54 -10 -54 -5 0 -10 4 -10 9 0 5 -16 28 -35 51 -19 23 -39 48 -43 55 -9
16 -72 27 -91 16z"/>
</g>
<g>
<path d="M636 313 c11 -24 5 -185 -7 -200 -16 -19 5 -24 86 -22 72 2 76 3 100
35 30 39 18 55 -14 18 -17 -20 -30 -25 -59 -22 -35 3 -37 5 -40 40 -3 34 -1
38 20 35 20 -2 23 3 26 36 3 35 -9 49 -23 27 -11 -18 -26 -10 -23 13 2 15 11
23 29 25 21 2 28 -2 33 -22 7 -29 31 -35 40 -10 3 8 3 26 0 40 -6 23 -10 24
-91 24 -78 0 -84 -2 -77 -17z"/>
</g>
<g>
<path d="M1333 322 c-26 -4 -32 -22 -8 -22 9 0 22 -15 30 -32 26 -60 65 -164
65 -176 0 -7 16 -12 40 -12 42 0 52 14 23 35 -15 11 -14 16 13 59 32 50 42 55
64 29 49 -58 62 -93 35 -93 -8 0 -15 -4 -15 -10 0 -5 17 -10 38 -10 l37 0 1
45 c0 24 5 50 11 57 5 7 15 32 22 56 9 31 19 46 39 54 l27 11 -25 7 c-37 12
-90 11 -90 0 0 -5 9 -10 21 -10 11 0 19 -3 17 -7 -2 -5 -12 -32 -23 -60 -11
-29 -22 -53 -25 -52 -3 0 -19 19 -35 42 -17 23 -38 43 -46 45 -8 1 -30 -18
-49 -43 -18 -25 -37 -45 -41 -45 -11 0 -59 90 -59 110 0 19 -28 28 -67 22z"/>
</g>
<g>
<path d="M1800 319 c0 -4 6 -9 14 -12 11 -5 7 -24 -20 -99 -18 -51 -38 -94
-44 -96 -26 -9 -5 -22 35 -22 25 0 45 5 45 10 0 6 -5 10 -11 10 -13 0 -5 56
11 75 5 6 25 9 44 7 36 -4 46 -20 46 -74 0 -26 3 -28 45 -28 48 0 53 4 31 25
-15 15 -49 182 -40 196 3 5 2 9 -3 9 -4 0 -41 2 -80 3 -40 2 -73 0 -73 -4z
m90 -48 c0 -11 3 -26 6 -35 5 -13 -1 -16 -25 -16 l-31 0 17 35 c18 39 33 46
33 16z"/>
</g>
<g>
<path d="M2354 319 c-3 -6 -1 -16 5 -22 15 -15 14 -170 -1 -185 -20 -20 0 -26
80 -27 57 0 85 5 104 17 30 20 58 70 58 106 0 37 -39 93 -76 108 -40 17 -160
19 -170 3z m166 -38 c13 -25 13 -102 0 -135 -7 -20 -17 -26 -38 -26 -28 0 -30
3 -36 53 -3 28 -6 69 -6 90 0 36 1 37 35 37 24 0 37 -6 45 -19z"/>
</g>
<g>
<path d="M2719 316 c-13 -6 -28 -24 -33 -38 -14 -40 14 -68 69 -68 48 0 68
-17 63 -52 -3 -20 -10 -23 -49 -26 -40 -3 -47 0 -52 18 -3 11 -12 20 -20 20
-16 0 -63 -57 -55 -66 3 -2 46 -5 97 -6 83 -1 93 1 117 23 46 43 11 101 -69
114 -49 8 -67 20 -67 46 0 30 57 25 91 -7 l27 -26 12 22 c22 41 10 54 -52 56
-31 1 -67 -3 -79 -10z"/>
</g>
<g>
<path d="M1021 169 c-26 -25 -26 -41 -1 -64 17 -15 24 -16 49 -5 16 6 32 17
34 23 5 15 -9 57 -20 58 -4 0 -16 2 -25 4 -9 2 -26 -6 -37 -16z m39 -24 c0 -8
-7 -15 -15 -15 -9 0 -12 6 -9 15 4 8 10 15 15 15 5 0 9 -7 9 -15z"/>
</g>
</g>
</g>
</svg>
