<?xml version="1.0" standalone="no"?>
<!DOCTYPE svg PUBLIC "-//W3C//DTD SVG 20010904//EN"
 "http://www.w3.org/TR/2001/REC-SVG-20010904/DTD/svg10.dtd">
<svg version="1.0" xmlns="http://www.w3.org/2000/svg"
 width="300.000000pt" height="526.000000pt" viewBox="0 0 300.000000 526.000000"
 preserveAspectRatio="xMidYMid meet">
<metadata>
Created by potrace 1.15, written by Peter Selinger 2001-2017
</metadata>
<g transform="translate(0.000000,526.000000) scale(0.100000,-0.100000)"
fill="#000000" stroke="none">
<g>
<path d="M7 5046 c-4 -115 -7 -1297 -7 -2628 l0 -2418 1500 0 1500 0 0 2619 0
2619 -122 6 c-68 4 -740 7 -1494 9 l-1371 2 -6 -209z m2971 159 c12 -12 5
-4495 -7 -4495 -3 1 -17 7 -31 15 -29 17 -76 19 -85 5 -11 -18 -103 -12 -124
9 -31 31 -94 71 -113 71 -9 0 -21 -8 -27 -17 -5 -10 -11 -16 -13 -13 -2 3 -12
22 -22 43 -11 20 -24 37 -31 37 -6 0 -29 -18 -50 -40 -23 -24 -45 -38 -55 -35
-9 3 -26 -8 -42 -29 -31 -39 -138 -96 -179 -96 -15 0 -40 5 -54 10 -20 8 -32
6 -48 -5 -12 -8 -37 -15 -57 -15 -19 0 -53 -5 -75 -10 -43 -11 -220 3 -287 22
-30 9 -42 8 -62 -5 -29 -19 -177 -47 -245 -47 -88 1 -176 24 -219 58 -22 18
-75 44 -119 58 -43 14 -82 30 -88 37 -36 43 -88 77 -120 77 -52 0 -63 -8 -90
-65 -14 -30 -28 -56 -33 -58 -4 -3 -36 0 -70 5 -59 9 -66 8 -83 -11 -11 -12
-23 -21 -28 -21 -4 0 -18 -10 -31 -22 -21 -20 -35 -23 -95 -22 -50 1 -81 7
-110 23 -59 32 -126 29 -178 -8 -23 -17 -53 -33 -67 -36 l-25 -6 -3 442 -3
442 26 -21 c14 -12 42 -26 61 -32 34 -11 34 -12 34 -70 0 -71 27 -140 67 -168
70 -50 189 -67 260 -37 34 14 38 14 58 -5 22 -21 89 -28 100 -11 3 6 17 6 36
-1 49 -17 182 -4 223 22 51 31 116 108 116 138 0 22 3 24 33 17 17 -4 103 -9
189 -12 166 -5 181 -10 158 -53 -40 -74 27 -160 125 -160 25 0 40 8 64 35 34
39 38 65 17 116 -7 19 -11 51 -9 72 l5 37 59 0 c33 0 74 6 92 14 40 16 97 72
97 94 0 10 9 23 21 30 26 16 49 71 49 115 0 30 4 35 30 40 38 8 62 46 68 107
3 38 0 55 -16 78 -12 17 -17 33 -12 38 4 5 9 23 11 39 5 69 2 74 -63 105 -35
17 -75 30 -90 30 -38 0 -58 10 -58 29 0 9 -5 22 -12 29 -6 6 -9 15 -5 18 11
12 292 -23 325 -40 29 -15 32 -15 50 4 29 31 39 194 17 267 -4 12 -29 5 -110
-32 -38 -17 -298 -45 -310 -34 -4 5 -29 105 -42 172 -3 17 -15 33 -28 39 -22
10 -23 15 -19 92 2 44 7 498 10 1007 l7 927 36 6 c79 13 80 12 74 -47 -4 -41
-2 -57 11 -69 9 -9 16 -26 16 -37 0 -22 24 -28 48 -13 21 14 27 76 8 91 -10 8
-16 29 -16 55 0 38 3 44 35 59 21 10 42 30 51 50 9 18 29 40 45 50 22 12 29
22 25 35 -4 11 2 30 14 45 12 15 19 31 16 36 -3 5 0 14 8 20 21 17 26 -7 33
-139 6 -113 -11 -320 -39 -482 -6 -39 -9 -111 -5 -175 5 -95 11 -125 53 -243
42 -122 47 -144 48 -230 1 -86 -1 -99 -26 -140 -14 -25 -31 -61 -36 -81 -13
-47 4 -148 29 -173 18 -19 18 -19 29 8 5 15 15 60 22 99 6 40 15 74 19 77 3 3
9 14 12 25 3 11 3 0 0 -24 -4 -34 -2 -42 8 -39 30 10 52 70 57 152 3 48 10 86
18 94 22 21 35 88 30 144 -3 29 -3 45 0 36 3 -10 12 -18 20 -18 21 0 18 89 -6
153 -11 29 -19 64 -19 78 2 31 -40 117 -96 198 -25 36 -45 73 -45 83 0 27 8
22 30 -22 19 -37 45 -60 69 -60 6 0 10 6 9 12 -2 7 7 14 20 16 29 5 28 23 -6
63 -23 28 -24 32 -7 25 39 -16 55 -18 55 -8 0 6 -5 14 -10 17 -10 6 -50 78
-50 90 0 3 7 5 15 5 20 0 20 48 0 86 -23 45 -20 60 10 40 52 -34 60 -10 15 44
-17 19 -30 41 -30 49 0 11 3 11 13 -3 14 -19 48 -19 54 0 2 6 -8 27 -22 48
l-25 37 28 10 27 11 -28 23 c-15 13 -44 27 -64 31 l-36 7 43 16 c52 19 61 37
26 51 -30 11 -32 22 -10 44 20 20 14 52 -9 48 -13 -2 -17 4 -17 25 0 39 -27
75 -49 68 -14 -4 -18 1 -19 26 -1 41 -9 48 -21 16 -13 -34 -28 -41 -34 -16 -5
17 -11 20 -35 14 -30 -6 -57 4 -95 35 -15 12 -20 12 -27 1 -4 -8 -6 -20 -3
-28 3 -7 2 -21 -1 -30 -5 -12 -9 -14 -18 -5 -18 18 -28 14 -28 -9 0 -31 -41
-119 -55 -119 -20 0 -39 28 -28 43 5 6 16 27 23 45 12 32 11 35 -21 68 -32 33
-71 44 -84 24 -3 -5 -15 -10 -25 -10 -27 0 -43 -36 -36 -81 4 -24 2 -39 -4
-39 -5 0 -10 22 -10 49 0 46 -3 53 -47 95 -27 25 -54 46 -61 46 -34 0 -82 -81
-82 -140 0 -45 0 -45 -14 -18 -8 15 -12 36 -9 46 6 24 -13 38 -64 47 -38 6
-45 4 -67 -19 -35 -38 -37 -60 -10 -99 27 -40 23 -44 -52 -54 -29 -3 -44 0
-53 11 -8 9 -22 16 -33 16 -11 0 -28 11 -39 24 -31 39 -129 44 -129 6 0 -10 7
-23 15 -30 22 -18 18 -31 -8 -25 -28 7 -70 -8 -97 -35 -31 -31 -26 -47 16 -42
59 7 61 -17 3 -44 -27 -13 -49 -29 -49 -36 0 -8 -20 -30 -44 -50 -24 -21 -46
-48 -48 -63 -5 -26 6 -43 17 -25 16 26 21 6 8 -32 -15 -43 -14 -87 1 -91 5 -1
23 19 41 44 25 37 34 44 48 35 24 -15 32 0 30 55 -1 54 2 57 29 32 14 -13 21
-14 30 -5 20 20 28 14 28 -23 0 -31 -3 -35 -25 -35 -18 0 -32 -11 -50 -40 -14
-22 -32 -40 -40 -40 -21 0 -68 -67 -62 -89 3 -11 -1 -28 -8 -38 -20 -29 -23
-87 -5 -91 26 -5 49 21 68 72 19 55 39 70 44 34 4 -28 36 -36 45 -11 12 34 24
44 40 32 11 -10 11 -15 -3 -30 -8 -9 -14 -28 -12 -41 2 -18 8 -22 27 -20 l24
4 -21 -29 c-11 -15 -34 -41 -51 -57 -20 -19 -31 -40 -31 -57 0 -42 19 -45 49
-8 26 31 29 32 45 17 27 -27 20 -66 -14 -86 -17 -9 -33 -28 -37 -42 -3 -13
-15 -39 -26 -57 -19 -33 -18 -83 2 -83 5 0 23 17 40 37 36 44 37 39 11 -40
-25 -76 -27 -79 -50 -65 -14 9 -22 9 -34 -1 -21 -17 -20 -40 1 -63 13 -15 14
-23 5 -44 -22 -47 -10 -122 13 -84 11 18 25 10 25 -15 0 -18 -5 -25 -19 -25
-10 0 -24 -7 -31 -15 -15 -18 -8 -51 11 -47 8 2 18 4 23 5 5 1 15 -18 22 -42
16 -52 40 -82 60 -74 19 7 18 74 -2 110 -16 27 -16 30 9 66 15 22 28 33 32 27
11 -18 35 9 35 40 0 15 -5 41 -11 59 -8 23 -8 35 1 45 16 21 2 82 -27 116 -20
24 -23 36 -17 65 8 44 24 56 24 18 0 -33 15 -61 27 -49 4 4 13 24 18 44 12 41
30 52 40 23 11 -35 42 -26 49 13 8 40 -8 84 -53 150 -17 25 -31 51 -31 60 0 8
-11 27 -25 42 -29 31 -31 46 -10 64 9 7 15 30 15 54 1 38 2 40 15 22 10 -13
15 -43 15 -82 0 -47 5 -67 20 -87 46 -58 70 20 30 98 -17 33 -19 44 -9 63 10
18 10 25 -4 40 -8 9 -27 29 -41 45 -14 15 -35 27 -46 27 -12 0 -18 4 -15 10 4
6 15 8 25 5 24 -8 30 13 26 99 -2 59 -5 70 -27 87 l-24 18 23 23 22 22 0 -32
c0 -25 6 -35 25 -44 14 -6 25 -17 25 -23 0 -20 41 -66 66 -75 29 -11 33 -58 9
-104 -16 -30 -14 -48 18 -118 25 -57 42 -24 50 96 4 49 8 90 9 91 2 2 27 0 57
-2 l54 -6 -7 -281 c-3 -155 -8 -328 -11 -386 -3 -58 -7 -206 -10 -330 -10
-391 -24 -832 -31 -930 -5 -75 -11 -100 -26 -117 -12 -12 -18 -29 -15 -37 3
-8 0 -20 -8 -26 -7 -6 -16 -27 -20 -48 -4 -20 -13 -49 -21 -64 -15 -28 -15
-28 -103 -24 -49 2 -93 6 -98 9 -13 8 -153 37 -180 37 -22 0 -23 -4 -24 -72 0
-40 -3 -99 -5 -131 -3 -46 -1 -59 12 -64 9 -3 68 4 131 16 63 13 129 20 146
17 18 -3 50 1 72 9 22 8 56 14 76 15 34 0 36 -2 31 -27 -3 -16 -10 -31 -16
-35 -8 -5 -7 -11 2 -20 10 -10 78 -14 265 -18 246 -5 253 -6 297 -30 42 -24
45 -28 48 -71 4 -57 -11 -71 -81 -75 -28 -1 -52 -6 -52 -10 0 -4 28 -7 62 -5
57 2 63 0 79 -24 30 -46 -1 -155 -45 -155 -11 0 -22 6 -25 13 -5 10 -7 10 -12
0 -7 -16 -34 -17 -34 -2 0 8 -5 8 -15 -1 -12 -10 -15 -10 -15 4 0 9 -4 16 -10
16 -5 0 -10 -7 -10 -16 0 -8 -4 -13 -9 -10 -5 3 -7 16 -4 29 4 21 3 21 -11 -3
l-15 -25 -1 25 c-1 24 -1 24 -15 6 -15 -19 -15 -19 -15 2 0 35 -39 29 -51 -8
-8 -22 -21 -33 -50 -41 -21 -7 -36 -16 -33 -21 3 -4 14 -4 24 2 10 5 73 10
140 10 l122 0 -7 -42 c-11 -76 -24 -98 -56 -98 -16 0 -29 5 -29 11 0 5 -5 7
-10 4 -6 -3 -10 2 -10 12 -1 15 -4 14 -21 -6 l-20 -25 6 30 c6 28 6 28 -9 10
-9 -11 -16 -23 -16 -28 0 -4 -7 -8 -15 -8 -18 0 -18 5 -5 31 7 13 7 19 1 19
-6 0 -13 -11 -17 -24 -4 -17 -14 -25 -35 -28 -37 -6 -42 0 -24 26 19 27 19 47
0 22 -14 -19 -15 -19 -15 -1 0 18 0 18 -14 -1 -11 -14 -11 -22 -4 -32 9 -10 6
-15 -13 -20 -23 -6 -23 -6 6 -12 17 -3 55 -3 85 0 86 8 150 1 150 -16 0 -7
-18 -32 -40 -54 -40 -40 -40 -40 -120 -40 -47 0 -80 4 -80 10 0 6 7 11 15 11
8 1 21 2 28 3 15 1 23 46 8 46 -6 0 -11 -4 -11 -10 0 -5 -6 -10 -12 -10 -21 0
-39 -16 -42 -36 -3 -17 -11 -19 -77 -17 -41 0 -102 4 -135 8 -39 5 -69 3 -80
-4 -15 -8 -7 -11 41 -11 33 -1 74 -7 90 -14 30 -13 30 -13 -35 -23 -110 -18
-306 -1 -390 34 -8 4 -31 7 -50 9 -273 19 -336 38 -371 111 -18 37 -20 56 -16
121 5 74 10 101 40 205 l13 47 152 4 c88 3 152 1 152 -5 0 -22 24 -3 131 105
63 62 128 120 144 129 27 15 28 16 7 17 -14 0 -54 -29 -112 -81 -50 -44 -90
-76 -90 -70 0 17 -52 72 -77 82 -19 7 -23 16 -23 52 0 23 -7 53 -16 66 -15 21
-15 27 1 75 12 36 16 64 11 89 -9 51 -59 105 -102 113 -28 5 -34 10 -28 23 44
101 42 213 -6 297 -34 61 -35 64 -17 64 23 0 64 48 71 83 10 56 -17 111 -71
142 -34 21 -43 30 -37 43 15 33 16 158 1 193 -21 51 -64 97 -121 129 -95 55
-238 35 -322 -45 -23 -22 -47 -56 -54 -75 -12 -34 -14 -35 -65 -36 -31 0 -60
-6 -71 -15 -16 -13 -17 12 -10 501 3 283 9 711 11 950 3 239 8 453 11 475 l5
41 1460 -2 c803 -1 1463 -5 1467 -9z m-1447 -276 c-4 -12 -12 -14 -27 -9 -19
7 -21 14 -16 62 3 29 12 64 21 78 16 24 16 23 22 -45 3 -39 3 -77 0 -86z m63
129 c18 -17 25 -37 28 -80 4 -51 2 -57 -16 -62 -45 -12 -46 -10 -46 79 0 47 2
85 5 85 3 0 16 -10 29 -22z m195 -33 c19 -21 21 -28 11 -40 -7 -8 -10 -22 -6
-30 3 -10 -3 -17 -20 -21 -31 -8 -27 -23 14 -50 37 -25 149 -48 188 -38 21 5
25 4 20 -7 -3 -8 -9 -22 -12 -31 -7 -19 -24 -23 -39 -9 -21 20 -255 66 -375
75 -104 7 -304 -21 -408 -58 -41 -15 -43 -15 -53 7 -21 47 -39 73 -64 93 l-26
21 38 -2 c30 -1 37 -5 35 -18 -2 -9 2 -17 8 -17 5 0 10 -9 10 -20 0 -14 7 -20
23 -21 122 -8 250 32 206 65 -9 6 -14 17 -12 24 3 6 -2 12 -11 12 -22 0 -20
32 4 58 22 23 40 29 40 12 0 -6 12 -9 27 -8 21 2 27 -1 28 -17 1 -11 2 -32 3
-46 3 -45 56 -63 168 -57 102 6 130 18 113 49 -5 11 -6 25 -2 32 4 6 6 19 5
28 -2 14 29 37 53 38 6 0 21 -11 34 -24z m270 -54 c-15 -5 -22 6 -14 19 6 9
10 9 16 -1 5 -8 4 -15 -2 -18z m9 -47 c-8 -9 -24 -14 -34 -11 -17 3 -16 5 6
15 36 16 47 14 28 -4z m-109 -13 c8 -5 11 -16 6 -30 -5 -16 -10 -19 -19 -12
-7 6 -16 8 -19 5 -3 -3 -11 -3 -17 1 -8 5 -6 13 6 26 19 21 23 22 43 10z
m-799 -31 c0 -5 -4 -10 -10 -10 -5 0 -10 5 -10 10 0 6 5 10 10 10 6 0 10 -4
10 -10z m-190 -25 c-29 -17 -50 -19 -50 -6 0 8 20 14 65 19 6 1 -1 -5 -15 -13z
m1167 2 c-41 -16 -31 -41 18 -45 91 -6 109 -23 38 -37 -48 -9 -95 -33 -88 -45
4 -6 31 -10 61 -10 62 0 74 -15 14 -17 -72 -3 -82 -24 -18 -39 54 -12 63 -34
14 -34 -29 0 -36 -4 -36 -20 0 -10 9 -24 19 -30 13 -6 19 -20 19 -38 -1 -25
16 -70 31 -82 4 -3 12 -18 19 -35 14 -34 14 -34 -54 58 -22 30 -42 47 -52 45
-19 -4 -28 -43 -14 -61 14 -18 25 -87 13 -87 -5 0 -11 6 -14 13 -2 6 -8 9 -12
5 -12 -11 -22 -83 -15 -104 4 -10 10 -40 13 -66 6 -42 4 -48 -12 -48 -10 0
-24 -7 -31 -15 -10 -12 -8 -21 12 -47 37 -50 72 -114 54 -99 -20 17 -56 5 -56
-19 0 -10 10 -31 23 -46 22 -25 23 -30 11 -65 -12 -33 -11 -43 10 -96 25 -61
43 -183 28 -183 -5 0 -14 24 -20 53 -12 57 -46 162 -70 216 -19 45 -22 250 -5
376 7 50 16 122 20 160 10 84 10 347 0 392 -6 31 -5 32 41 46 55 18 79 20 39
4z m-418 -18 c105 -19 229 -65 224 -82 -2 -4 -5 -6 -6 -4 -12 8 -38 -30 -34
-50 5 -25 -7 -40 -18 -23 -27 43 -245 77 -424 66 -109 -7 -205 -26 -224 -45
-22 -22 -37 -12 -35 21 3 26 -1 33 -22 38 -14 3 -26 13 -28 21 -4 22 87 49
213 65 149 18 228 16 354 -7z m-739 -123 c0 -8 6 -16 13 -19 6 -2 1 -2 -13 0
-30 6 -34 9 -25 22 9 16 25 13 25 -3z m467 -9 c-3 -9 -16 -12 -36 -9 -41 6
-40 20 2 24 39 4 41 3 34 -15z m83 1 c0 -44 -23 -1614 -24 -1650 0 -21 -5 -38
-10 -38 -4 0 -3 -7 4 -15 6 -8 9 -22 6 -32 -3 -10 -6 -65 -7 -123 -1 -63 -7
-108 -13 -112 -8 -6 -6 -11 4 -18 13 -9 13 -11 0 -20 -13 -9 -13 -11 0 -19 12
-9 12 -11 -3 -17 -14 -5 -15 -9 -6 -20 9 -11 7 -14 -10 -14 -11 0 -20 -3 -19
-7 3 -11 -32 -76 -38 -71 -2 3 2 180 10 394 8 214 17 533 21 709 3 176 10 421
15 545 6 124 12 284 14 355 3 72 5 140 5 153 1 17 7 22 26 22 19 0 25 -5 25
-22z m86 -740 c-8 -937 -16 -1448 -25 -1447 -3 0 -21 23 -39 51 -26 39 -33 57
-28 82 3 17 10 476 16 1021 6 545 13 1005 16 1023 4 28 9 32 35 32 l31 0 -6
-762z m129 743 l30 -7 -34 -12 c-32 -11 -101 -17 -101 -8 0 34 33 43 105 27z
m-405 -11 c0 -5 -4 -10 -9 -10 -6 0 -13 5 -16 10 -3 6 1 10 9 10 9 0 16 -4 16
-10z m-50 -10 c0 -5 -2 -10 -4 -10 -3 0 -8 5 -11 10 -3 6 -1 10 4 10 6 0 11
-4 11 -10z m530 4 c0 -16 -24 -84 -29 -84 -3 0 -5 20 -3 45 3 30 9 45 18 45 8
0 14 -3 14 -6z m447 0 c-3 -3 -12 -4 -19 -1 -8 3 -5 6 6 6 11 1 17 -2 13 -5z
m-892 -22 c-3 -3 -11 0 -18 7 -9 10 -8 11 6 5 10 -3 15 -9 12 -12z m-112 -14
c6 -23 1 -38 -13 -38 -12 0 -23 37 -15 50 10 16 22 11 28 -12z m-193 -3 c0 -2
-7 -5 -15 -9 -9 -3 -15 0 -15 9 0 9 6 12 15 9 8 -4 15 -7 15 -9z m347 9 c-3
-3 -12 -4 -19 -1 -8 3 -5 6 6 6 11 1 17 -2 13 -5z m332 -4 c-26 -15 -99 -24
-99 -12 0 6 19 13 43 15 23 2 49 4 57 5 12 1 12 0 -1 -8z m125 -7 c4 -10 -1
-24 -13 -37 -25 -25 -35 -17 -26 23 7 34 29 41 39 14z m-454 -17 c32 -15 34
-50 2 -54 -12 -2 -38 2 -57 8 -30 10 -35 16 -35 42 0 28 2 29 33 23 17 -4 43
-12 57 -19z m-110 -47 c0 -67 -15 -62 -16 6 -1 30 2 52 7 49 5 -3 9 -27 9 -55z
m450 17 c0 -33 -1 -34 -50 -40 -59 -8 -70 -3 -70 28 0 23 9 27 113 45 4 0 7
-14 7 -33z m33 -86 c-3 -11 -7 -20 -9 -20 -2 0 -4 9 -4 20 0 11 4 20 9 20 5 0
7 -9 4 -20z m-763 -50 c0 -5 -4 -10 -10 -10 -5 0 -10 5 -10 10 0 6 5 10 10 10
6 0 10 -4 10 -10z m270 -41 c0 -34 -15 -38 -24 -6 -9 36 -7 47 9 41 9 -4 15
-19 15 -35z m518 13 c4 -24 -7 -29 -26 -10 -18 18 -15 40 6 36 9 -2 18 -13 20
-26z m359 -31 c8 -7 11 -16 8 -20 -9 -8 -35 29 -34 48 0 14 1 14 6 1 4 -8 12
-21 20 -29z m-1081 -21 c5 -24 3 -32 -4 -25 -5 6 -13 26 -17 45 -5 25 -4 32 4
25 6 -6 14 -26 17 -45z m1114 -59 c-1 -13 -4 -12 -15 3 -8 11 -15 27 -15 35 1
13 4 12 15 -3 8 -11 15 -27 15 -35z m-41 -101 c0 -8 -9 5 -19 30 -10 25 -19
59 -19 75 1 23 5 17 20 -30 10 -33 19 -67 18 -75z m-1127 8 c-7 -7 -12 -8 -12
-2 0 14 12 26 19 19 2 -3 -1 -11 -7 -17z m-34 -30 c-2 -6 -10 -14 -16 -16 -7
-2 -10 2 -6 12 7 18 28 22 22 4z m112 -133 c-16 -49 -30 -34 -30 32 l0 56 21
-27 c18 -23 19 -30 9 -61z m1027 43 c68 -102 71 -108 53 -108 -5 0 -10 5 -10
10 0 6 -9 24 -20 40 -11 17 -29 43 -40 60 -11 16 -20 32 -20 35 0 13 12 2 37
-37z m-11 -65 c-5 -5 -36 50 -36 64 0 4 9 -7 21 -26 11 -18 18 -35 15 -38z
m-1134 -75 c-7 -7 -12 -8 -12 -2 0 14 12 26 19 19 2 -3 -1 -11 -7 -17z m1225
-4 c-9 -9 -28 6 -21 18 4 6 10 6 17 -1 6 -6 8 -13 4 -17z m-41 -16 c44 -49 69
-89 83 -131 18 -53 8 -69 -12 -19 -9 23 -21 42 -26 42 -5 0 -12 13 -16 29 -3
16 -13 35 -21 42 -23 19 -57 69 -47 69 5 0 22 -15 39 -32z m61 -292 c9 -49
-12 -19 -26 36 -6 26 -11 50 -10 55 1 14 30 -58 36 -91z m-1157 58 c0 -18 -14
-18 -29 0 -9 11 -9 15 1 19 17 6 28 -1 28 -19z m-117 -9 c-3 -9 -8 -14 -10
-11 -3 3 -2 9 2 15 9 16 15 13 8 -4z m1194 -47 c-3 -8 -6 -5 -6 6 -1 11 2 17
5 13 3 -3 4 -12 1 -19z m-1131 -25 c-11 -11 -19 6 -11 24 8 17 8 17 12 0 3
-10 2 -21 -1 -24z m1153 -143 l0 -25 -14 25 c-8 14 -14 34 -15 44 0 20 0 20
15 0 8 -10 14 -30 14 -44z m-49 -64 c-5 -14 -14 -26 -20 -26 -6 0 -6 9 0 26 6
14 10 40 11 57 l1 32 9 -32 c6 -19 5 -41 -1 -57z m-1649 -18 c56 -19 118 -67
138 -106 18 -37 37 -170 19 -138 -16 29 -28 17 -28 -29 0 -32 -6 -50 -21 -64
-20 -18 -20 -20 -3 -29 18 -10 18 -11 0 -31 -21 -23 -38 -28 -31 -8 3 6 0 19
-5 27 -8 12 -13 13 -30 3 -27 -17 -55 -16 -70 2 -10 12 -8 18 10 33 31 25 21
71 -21 96 -38 22 -67 16 -114 -25 -31 -28 -35 -37 -35 -79 l0 -49 -27 15 c-16
7 -35 14 -44 14 -27 0 -29 12 -9 40 30 43 22 100 -21 146 -19 20 -19 24 -5 59
20 46 46 69 121 105 65 31 121 37 176 18z m1624 -38 c4 -6 1 -18 -6 -26 -6 -8
-13 -42 -15 -75 -2 -33 -6 -70 -10 -82 -7 -19 -9 -17 -15 18 -12 64 -10 114 6
145 16 31 29 37 40 20z m-1941 -174 c34 -32 51 -86 26 -86 -5 0 -10 8 -10 19
0 30 -45 71 -78 71 -47 0 -79 -32 -79 -80 0 -46 11 -60 26 -31 14 25 40 34 58
20 18 -16 30 -2 16 19 -7 12 -21 16 -44 14 -29 -3 -31 -2 -20 12 17 20 40 20
69 0 16 -11 22 -25 22 -55 0 -24 5 -39 13 -40 6 -1 -4 -6 -23 -13 -62 -21 -86
-37 -106 -69 l-19 -32 -3 118 c-3 116 -2 118 24 142 39 36 84 33 128 -9z m267
-66 c27 -15 24 -45 -6 -58 -29 -13 -31 -28 -8 -54 9 -10 12 -18 7 -18 -19 0
-35 18 -43 46 -4 16 -12 29 -17 29 -17 0 -16 -56 2 -76 27 -30 6 -36 -23 -7
-36 36 -35 79 2 118 30 32 54 37 86 20z m229 -94 c0 -3 -16 -22 -35 -43 -41
-45 -44 -57 -12 -49 19 4 26 0 36 -20 6 -14 16 -22 21 -19 13 8 3 43 -18 68
-14 15 -14 17 1 17 20 0 47 -38 47 -67 0 -12 -14 -36 -31 -54 -29 -29 -31 -30
-49 -14 -47 43 -148 56 -232 30 l-48 -14 0 40 c0 38 1 39 22 28 31 -17 137
-15 179 3 20 9 49 34 65 57 16 22 35 41 42 41 6 0 12 -2 12 -4z m-393 -58 c14
-13 29 -30 34 -40 7 -13 5 -15 -11 -11 -23 6 -27 -15 -9 -48 8 -16 13 -18 25
-8 8 6 14 7 14 2 0 -5 -14 -19 -30 -32 -17 -12 -42 -40 -57 -63 -21 -35 -26
-53 -25 -111 0 -38 5 -74 11 -80 16 -16 14 -37 -4 -37 -8 0 -27 -19 -42 -41
-22 -33 -27 -53 -28 -100 l0 -58 -49 -13 c-30 -8 -54 -21 -63 -35 -9 -13 -20
-23 -25 -23 -6 0 -7 107 -3 293 8 332 13 355 90 409 35 25 47 28 94 24 37 -3
61 -12 78 -28z m463 0 c0 -6 -7 -5 -15 2 -8 7 -15 17 -15 22 0 6 7 5 15 -2 8
-7 15 -17 15 -22z m-1 -105 c-21 -40 -26 -25 -10 29 14 46 16 49 19 23 2 -15
-2 -39 -9 -52z m-147 -34 c45 -23 81 -59 104 -104 13 -27 12 -26 -17 8 -32 39
-76 67 -104 67 -24 0 -18 -20 10 -30 78 -29 137 -202 96 -278 -17 -31 -24 -22
-11 13 14 36 2 120 -21 148 -16 20 -18 20 -24 4 -4 -9 0 -35 9 -57 21 -53 20
-87 -4 -133 -11 -20 -20 -44 -20 -52 0 -26 21 -16 31 15 6 17 14 30 17 30 15
0 27 -16 27 -35 0 -15 9 -21 38 -26 21 -3 43 -12 50 -18 9 -10 6 -10 -16 0
-32 14 -50 3 -24 -15 21 -16 22 -26 2 -26 -8 0 -15 -4 -15 -8 0 -15 38 -44 49
-38 5 4 12 -3 16 -14 7 -20 25 -28 25 -10 0 6 5 10 10 10 15 0 12 -38 -6 -65
-23 -35 -39 -31 -50 12 -17 71 -131 105 -221 68 -20 -9 -59 -36 -87 -62 -102
-92 -100 -91 -123 -82 -34 12 -53 49 -51 99 l1 45 6 -42 c6 -46 32 -83 56 -83
19 0 19 14 0 30 -8 7 -15 22 -15 33 0 19 1 19 18 4 22 -20 32 -13 32 20 0 25
-19 30 -38 11 -9 -9 -12 -8 -12 4 0 9 13 28 30 41 18 16 28 32 24 40 -14 39
85 25 114 -15 17 -23 32 -23 32 0 0 34 -44 63 -106 71 -74 10 -111 0 -151 -44
-36 -39 -50 -87 -35 -119 6 -11 13 -33 16 -48 8 -36 42 -66 83 -74 30 -6 33
-10 33 -40 0 -30 -3 -34 -27 -34 -46 0 -105 -20 -152 -51 -31 -22 -47 -27 -56
-19 -9 7 -16 6 -24 -4 -10 -11 -8 -15 6 -19 12 -3 13 -5 3 -6 -8 0 -22 4 -30
9 -13 9 -11 13 10 30 15 11 34 17 46 14 31 -8 40 14 17 39 -11 12 -23 30 -27
41 -5 14 -9 16 -20 7 -19 -16 -27 30 -13 75 12 39 5 53 -18 34 -8 -7 -15 -8
-15 -3 0 12 38 47 68 63 22 11 23 10 17 -10 -5 -16 -3 -21 6 -18 8 3 14 9 14
14 0 5 10 20 23 34 12 13 20 31 17 39 -3 8 0 18 7 22 7 5 11 25 10 51 -1 24 2
50 8 58 7 11 8 4 3 -22 -7 -44 12 -53 27 -14 5 13 17 29 27 34 17 10 17 11 -1
31 -11 12 -24 21 -31 21 -17 0 -51 -39 -69 -80 l-16 -35 5 39 c4 40 34 81 66
91 10 3 35 -3 56 -15 38 -20 103 -27 103 -11 0 5 -14 11 -31 15 -25 5 -29 9
-24 27 5 16 2 22 -15 26 -29 8 -62 84 -54 121 4 15 13 40 21 55 13 27 13 28
-4 25 -10 -2 -24 -16 -31 -31 -7 -15 -18 -27 -24 -27 -12 0 14 43 51 84 41 45
96 66 179 66 54 0 83 -5 114 -21z m-345 -201 c-3 -7 -5 -2 -5 12 0 14 2 19 5
13 2 -7 2 -19 0 -25z m1283 -87 c17 -32 12 -41 -25 -41 -38 0 -44 13 -18 42
21 23 30 23 43 -1z m105 -72 c4 -6 5 -13 2 -15 -9 -9 -257 8 -257 17 0 13 247
11 255 -2z m-218 -35 c-3 -3 -12 -4 -19 -1 -8 3 -5 6 6 6 11 1 17 -2 13 -5z
m225 -21 c9 -10 19 -45 23 -77 l7 -59 -69 6 c-37 4 -94 7 -125 7 -47 0 -56 3
-52 15 5 11 -1 15 -22 16 -24 1 -25 2 -6 6 28 5 29 23 1 23 -11 0 -17 5 -14
10 3 6 17 10 31 10 13 0 24 5 24 10 0 6 -19 10 -42 10 -32 0 -39 3 -28 10 8 5
30 10 48 10 20 0 31 4 27 10 -4 6 28 10 88 10 77 0 97 -3 109 -17z m-1477
-112 c-3 -5 -18 -12 -34 -16 -49 -11 -99 -68 -107 -122 -6 -41 -4 -49 15 -61
24 -16 30 -55 7 -46 -20 8 -29 -12 -16 -38 11 -22 10 -22 -4 -4 -12 15 -16 43
-16 111 l0 91 38 37 c22 21 53 40 77 46 22 5 41 9 43 10 2 1 1 -3 -3 -8z m910
-21 c44 -5 262 -11 485 -12 347 -3 415 -1 473 13 l67 17 6 -23 c3 -12 4 -36 1
-51 -4 -29 -4 -28 -6 4 0 17 -5 32 -11 32 -5 0 -10 -15 -11 -32 0 -18 -3 -27
-6 -20 -10 26 -23 10 -23 -28 0 -34 3 -40 20 -40 12 0 24 10 30 23 7 18 9 15
9 -20 1 -47 -2 -49 -59 -33 -170 46 -689 61 -920 26 -69 -10 -129 -22 -135
-26 -17 -12 -74 -20 -80 -10 -3 4 8 11 25 15 26 6 30 11 31 43 1 24 3 29 6 15
6 -31 23 -29 23 2 0 13 -12 38 -27 54 -65 70 -67 76 -15 67 20 -4 73 -11 117
-16z m-488 -16 c-3 -3 -12 -4 -19 -1 -8 3 -5 6 6 6 11 1 17 -2 13 -5z m127
-20 c23 -23 33 -44 41 -90 6 -40 -6 -67 -20 -44 -11 18 -83 12 -105 -10 -22
-22 -23 -25 -14 -57 4 -14 14 -23 25 -23 15 0 17 5 13 30 -8 35 14 49 49 32
21 -10 21 -11 -5 -11 -32 -1 -36 -16 -9 -31 26 -13 29 -13 34 8 3 9 5 3 6 -15
1 -26 -2 -30 -19 -26 -15 4 -20 0 -20 -15 0 -11 -7 -25 -15 -32 -24 -20 -19
-42 8 -35 18 5 17 3 -5 -10 -16 -9 -44 -17 -64 -18 -34 -2 -38 1 -48 32 -16
45 -69 89 -120 99 -38 7 -41 10 -44 45 -3 35 9 49 23 27 13 -21 23 -9 29 34 7
46 59 116 86 116 11 0 11 -3 2 -12 -17 -17 -15 -38 3 -38 8 0 15 4 15 9 0 5
14 14 30 21 38 16 75 2 92 -35 13 -29 32 -28 36 3 2 13 -4 25 -17 32 -21 11
-29 30 -12 30 5 0 17 -7 25 -16z m233 -66 c-3 -8 -6 -5 -6 6 -1 11 2 17 5 13
3 -3 4 -12 1 -19z m1130 -10 c-3 -8 -6 -5 -6 6 -1 11 2 17 5 13 3 -3 4 -12 1
-19z m-1267 -38 c0 -5 -4 -10 -10 -10 -5 0 -10 5 -10 10 0 6 5 10 10 10 6 0
10 -4 10 -10z m806 -42 c-2 -30 -9 -44 -20 -46 -9 -2 -16 3 -16 12 0 13 -12
16 -57 16 -70 0 -66 8 7 13 50 3 55 5 52 25 -2 17 2 22 17 22 19 0 21 -5 17
-42z m93 23 c11 -11 24 -29 30 -40 10 -18 8 -21 -13 -27 -40 -10 -81 -1 -84
19 -11 59 28 87 67 48z m-883 -57 c-5 -14 -55 -38 -63 -31 -10 10 11 37 29 37
12 0 22 9 26 23 5 19 7 19 10 4 2 -10 1 -25 -2 -33z m671 -10 c-3 -3 -12 -4
-19 -1 -8 3 -5 6 6 6 11 1 17 -2 13 -5z m50 0 c-3 -3 -12 -4 -19 -1 -8 3 -5 6
6 6 11 1 17 -2 13 -5z m-682 -34 c4 -6 -7 -10 -24 -10 -18 0 -31 -5 -31 -12 0
-7 -3 -23 -6 -35 -5 -19 -2 -23 15 -23 12 0 21 -6 21 -14 0 -22 -13 -26 -41
-13 -35 18 -36 70 -2 97 28 22 58 26 68 10z m-448 -20 c22 -10 43 -26 46 -35
4 -8 18 -15 31 -15 32 0 42 -32 27 -86 -6 -21 -8 -47 -5 -58 3 -14 -6 -34 -26
-58 -49 -59 -126 -62 -172 -4 -31 37 -14 106 25 106 24 0 31 -19 13 -39 -31
-34 -16 -52 24 -31 16 8 18 8 14 -5 -8 -20 15 -19 38 2 31 28 16 105 -27 135
-39 28 -178 -23 -148 -53 8 -8 8 -16 1 -28 -7 -12 -6 -31 4 -66 17 -60 61 -95
119 -95 22 0 39 -1 39 -2 0 -2 -7 -28 -15 -58 -8 -30 -15 -70 -15 -87 0 -23
-5 -33 -15 -33 -19 0 -63 27 -86 52 -24 27 -52 24 -44 -4 6 -21 4 -21 -19 5
-14 15 -29 40 -32 55 -10 49 -14 54 -30 48 -14 -5 -16 3 -12 64 3 53 0 70 -9
70 -9 0 -11 8 -7 28 11 43 24 65 58 94 24 21 27 28 14 28 -10 0 -18 4 -18 10
0 14 102 60 133 60 14 0 29 5 32 10 9 14 15 13 62 -10z m473 -30 c12 -12 25
-18 30 -15 6 4 10 -5 10 -18 0 -22 -16 -37 -41 -37 -5 0 -9 11 -9 25 0 13 -10
33 -22 45 -18 17 -19 20 -5 20 9 0 26 -9 37 -20z m-836 -15 c18 -14 38 -25 44
-25 14 0 16 -22 4 -35 -11 -13 -32 -86 -32 -111 0 -13 -11 -24 -30 -31 l-30
-11 0 119 c0 65 3 119 6 119 3 0 20 -11 38 -25z m700 -51 c9 -23 9 -23 -31
-22 l-36 1 23 19 c27 22 36 23 44 2z m-401 -21 c-7 -2 -19 -2 -25 0 -7 3 -2 5
12 5 14 0 19 -2 13 -5z m54 -75 c-3 -7 -5 -2 -5 12 0 14 2 19 5 13 2 -7 2 -19
0 -25z m-337 -73 c0 -3 -10 -19 -21 -35 -38 -51 -8 -160 43 -160 10 0 18 7 18
15 0 8 -4 15 -9 15 -13 0 -33 55 -29 82 4 19 6 16 16 -17 6 -22 28 -64 47 -94
31 -47 34 -56 22 -69 -13 -12 -21 -11 -61 7 -54 23 -77 64 -83 146 -3 38 1 58
16 83 18 28 41 43 41 27z m419 -91 c-6 -27 -13 -55 -15 -61 -5 -18 -34 -16
-34 2 0 21 32 99 44 107 17 11 17 4 5 -48z m1 -160 c0 -8 -5 -12 -10 -9 -6 4
-8 11 -5 16 9 14 15 11 15 -7z m-30 -22 c0 -42 56 -120 97 -137 41 -17 73 -19
73 -5 0 6 -7 10 -17 10 -24 0 -81 46 -98 80 -23 44 -18 47 16 7 18 -21 43 -38
62 -42 62 -13 70 -16 58 -28 -19 -19 -12 -30 16 -24 60 11 75 -33 20 -59 -31
-15 -35 -15 -91 13 -42 20 -71 44 -102 83 -42 54 -68 130 -45 130 6 0 11 -13
11 -28z m-213 -13 c16 -16 120 -24 136 -10 12 9 18 2 32 -35 9 -25 39 -68 66
-95 49 -50 49 -50 32 -74 -58 -78 -217 -75 -288 6 -21 24 -9 19 36 -14 37 -27
91 -36 143 -25 54 11 69 27 60 63 -6 23 -10 26 -33 20 -45 -12 -73 -8 -103 15
-18 13 -36 19 -46 15 -14 -5 -12 -11 17 -37 32 -29 38 -30 93 -25 52 5 57 4
41 -9 -31 -23 -102 -17 -146 13 -46 32 -67 69 -67 119 0 33 -2 36 -24 32 -22
-5 -23 -3 -14 24 10 29 44 38 65 17z m503 -99 c0 -5 -4 -10 -10 -10 -5 0 -10
5 -10 10 0 6 5 10 10 10 6 0 10 -4 10 -10z m188 4 c17 -5 21 -11 16 -28 -35
-124 -148 -191 -273 -163 -39 9 -60 20 -74 39 -26 35 -17 44 24 23 46 -24 107
-15 138 21 19 23 22 36 18 71 l-5 43 67 0 c36 0 76 -3 89 -6z m552 -18 c-7 -7
-13 -7 -20 0 -6 6 -3 10 10 10 13 0 16 -4 10 -10z m41 -11 c0 -6 -10 -12 -22
-13 -19 -3 -20 -2 -8 12 15 16 31 17 30 1z m-774 -27 c-3 -7 -5 -2 -5 12 0 14
2 19 5 13 2 -7 2 -19 0 -25z m776 -37 c5 -5 11 -26 14 -48 5 -35 2 -40 -21
-51 -33 -15 -46 -15 -46 -2 0 6 7 10 15 10 8 0 15 4 15 9 0 12 -45 22 -64 15
-9 -3 -16 -1 -16 5 0 6 -4 11 -10 11 -16 0 -12 -32 8 -54 17 -21 17 -21 -5 -2
-29 24 -29 65 -1 101 19 24 25 26 62 21 23 -4 45 -11 49 -15z m-783 0 c0 -5
-7 -12 -16 -15 -14 -5 -15 -4 -4 9 14 17 20 19 20 6z m-160 -93 c0 -15 -27 -8
-44 11 -27 30 -9 47 20 20 13 -12 24 -26 24 -31z m242 -373 c-1 -5 -13 -13
-26 -16 -23 -6 -25 -3 -17 29 1 2 11 2 24 0 12 -2 21 -7 19 -13z m1698 5 c0
-5 -4 -10 -10 -10 -5 0 -10 5 -10 10 0 6 5 10 10 10 6 0 10 -4 10 -10z m-16
-41 c-3 -5 -10 -7 -15 -3 -5 3 -7 10 -3 15 3 5 10 7 15 3 5 -3 7 -10 3 -15z
m-1861 -79 c16 -15 -15 -45 -76 -75 -34 -16 -76 -40 -93 -52 -17 -13 -36 -23
-43 -23 -6 0 -19 -4 -29 -10 -41 -23 -130 -60 -143 -60 -25 0 -132 -30 -167
-46 -48 -22 -80 -12 -87 30 -4 18 -5 46 -3 62 3 29 3 29 88 35 49 3 99 13 117
22 18 10 44 17 58 17 15 0 65 8 113 17 84 16 154 52 175 88 8 14 73 10 90 -5z
m120 -16 c-3 -9 -23 -13 -36 -6 -4 2 -5 7 -2 12 7 11 41 6 38 -6z m2157 6 c0
-5 -5 -10 -11 -10 -5 0 -7 5 -4 10 3 6 8 10 11 10 2 0 4 -4 4 -10z m-575 -40
c-3 -5 -10 -10 -16 -10 -5 0 -9 5 -9 10 0 6 7 10 16 10 8 0 12 -4 9 -10z
m-630 -16 c22 -1 78 -5 125 -9 58 -5 116 -3 185 8 125 18 165 20 165 7 0 -5
-9 -10 -21 -10 -11 0 -41 -12 -67 -27 -47 -26 -71 -30 -294 -49 -61 -5 -84 -3
-111 10 -43 20 -70 20 -106 1 -42 -21 -169 -10 -261 23 -8 3 37 9 100 14 63 4
124 12 135 17 57 25 72 29 90 24 11 -4 38 -7 60 -9z m-1665 -34 c0 -5 -7 -10
-15 -10 -8 0 -15 5 -15 10 0 6 7 10 15 10 8 0 15 -4 15 -10z m573 4 c4 -4 -7
-22 -23 -41 -27 -31 -33 -62 -9 -47 5 3 7 10 4 15 -4 5 2 6 12 2 23 -9 69 -64
65 -78 -2 -5 -1 -7 3 -3 4 3 7 10 7 15 -1 4 7 16 15 26 15 16 18 16 34 1 13
-12 19 -12 25 -3 4 8 3 10 -4 5 -8 -5 -10 -1 -6 11 5 15 4 16 -5 3 -10 -14
-11 -13 -11 18 0 4 8 7 18 7 9 -1 16 -7 14 -14 -1 -7 3 -19 9 -27 6 -8 9 -14
5 -14 -16 0 -22 -3 -38 -17 -9 -8 -22 -12 -27 -8 -6 3 -17 3 -23 -2 -7 -4 -22
-9 -33 -10 -11 -1 -35 -6 -53 -9 -24 -5 -32 -3 -30 6 2 7 -3 15 -9 17 -7 3
-13 -3 -13 -12 0 -12 -10 -16 -42 -16 -24 1 -110 -2 -193 -5 -112 -4 -147 -3
-139 6 6 6 41 15 78 21 37 5 78 16 91 25 14 9 31 14 39 11 9 -4 21 5 31 19 13
20 19 23 30 14 10 -8 15 -8 21 1 5 8 3 9 -6 4 -9 -5 -11 -4 -6 4 6 9 14 8 32
-4 13 -8 24 -13 24 -10 0 13 -6 20 -14 17 -24 -8 20 29 54 46 28 14 42 16 50
8 8 -8 9 -6 5 7 -7 16 5 24 18 11z m86 -3 c13 -3 -33 -39 -47 -36 -9 1 -24 -3
-32 -9 -8 -6 -6 -1 4 12 11 12 16 22 12 22 -4 0 -5 4 -2 8 4 7 42 9 65 3z
m1518 -26 c76 -4 106 -15 92 -31 -9 -11 -41 -14 -130 -14 -121 0 -147 9 -85
30 19 6 37 18 40 27 5 12 9 13 21 3 8 -7 36 -13 62 -15z m487 7 c9 -14 -33
-42 -64 -42 -52 0 -45 33 10 43 42 7 49 7 54 -1z m-1824 -16 c0 -3 -4 -8 -10
-11 -5 -3 -10 -1 -10 4 0 6 5 11 10 11 6 0 10 -2 10 -4z m1916 -34 c-8 -7 -66
-10 -70 -3 -2 3 13 7 35 7 22 1 37 -1 35 -4z m-1967 -28 c-6 -7 -15 -11 -21
-8 -5 3 -4 12 3 20 6 7 15 11 21 8 5 -3 4 -12 -3 -20z m-149 -10 c0 -8 -19
-13 -24 -6 -3 5 1 9 9 9 8 0 15 -2 15 -3z m280 -40 c0 -8 -4 -12 -10 -9 -5 3
-10 10 -10 16 0 5 5 9 10 9 6 0 10 -7 10 -16z m1990 6 c0 -5 -4 -10 -10 -10
-5 0 -10 5 -10 10 0 6 5 10 10 10 6 0 10 -4 10 -10z m-1900 -10 c0 -5 -4 -10
-10 -10 -5 0 -10 5 -10 10 0 6 5 10 10 10 6 0 10 -4 10 -10z m1130 -11 c0 -5
-9 -9 -20 -9 -19 0 -26 11 -14 23 8 8 34 -3 34 -14z m-730 -9 c0 -5 -7 -10
-15 -10 -8 0 -15 5 -15 10 0 6 7 10 15 10 8 0 15 -4 15 -10z m1502 -123 c6
-127 1 -157 -28 -157 -19 0 -24 -5 -24 -25 0 -20 5 -25 25 -25 21 0 25 -5 25
-30 l0 -30 -222 0 c-123 -1 -383 -1 -578 0 -195 0 -521 0 -725 0 -310 1 -367
3 -352 14 11 8 17 27 17 51 0 24 6 42 17 50 14 11 15 16 4 43 -13 32 -41 34
-41 3 -1 -12 -5 -11 -21 8 -18 23 -19 25 -2 43 23 25 4 45 -26 26 -28 -17 -27
-51 4 -96 31 -45 33 -94 5 -122 -20 -20 -32 -20 -530 -20 l-510 1 0 24 c0 21
5 25 30 25 20 0 33 6 37 17 28 84 35 93 79 93 29 0 44 -5 48 -16 11 -29 6 -62
-11 -68 -31 -12 3 -27 53 -24 55 3 54 -2 28 98 -9 36 -17 71 -18 78 -5 32 -36
52 -80 52 -58 0 -80 -8 -66 -25 7 -9 3 -28 -15 -66 -14 -30 -25 -59 -25 -65 0
-13 -38 -54 -50 -54 -6 0 -10 55 -10 135 l0 135 193 2 c105 2 771 5 1478 6
l1286 4 5 -85z m-2784 -50 c3 -23 0 -27 -22 -27 -26 0 -32 13 -20 45 10 25 39
13 42 -18z"/>
<g>
<path d="M1072 3108 c-16 -16 -15 -71 2 -113 11 -24 23 -36 43 -40 15 -3 45
-15 66 -26 35 -19 38 -19 44 -2 24 62 -6 127 -67 143 -22 6 -44 20 -50 30 -12
23 -21 25 -38 8z m77 -58 c25 0 61 -45 61 -78 0 -20 -3 -23 -12 -14 -7 7 -27
12 -44 12 -38 0 -64 29 -64 73 0 24 2 26 19 17 11 -5 29 -10 40 -10z"/>
</g>
<g>
<path d="M1841 3077 c-6 -6 -11 -33 -11 -60 0 -42 5 -54 34 -83 25 -25 43 -34
67 -34 18 0 40 -7 50 -15 15 -14 18 -14 33 0 39 39 5 127 -54 140 -16 3 -47
19 -68 35 -29 21 -43 25 -51 17z m71 -57 c18 -11 41 -20 50 -20 21 0 38 -29
38 -65 0 -22 -3 -24 -19 -15 -11 5 -32 10 -47 10 -50 0 -85 49 -68 94 8 20 7
20 46 -4z"/>
</g>
<g>
<path d="M1082 2838 c-15 -15 -4 -97 15 -120 8 -9 25 -19 38 -22 13 -3 33 -20
45 -36 29 -41 44 -38 57 11 19 73 -22 149 -82 149 -12 0 -28 7 -35 15 -15 18
-22 19 -38 3z m77 -50 c28 -4 68 -66 58 -91 -6 -15 -10 -14 -43 8 -20 14 -41
25 -45 25 -15 0 -30 40 -24 61 5 14 10 17 18 10 7 -5 23 -11 36 -13z"/>
</g>
<g>
<path d="M849 2784 c-23 -28 -18 -98 10 -128 14 -14 32 -26 41 -26 10 0 28 -9
42 -19 40 -32 61 -30 71 5 14 49 -14 100 -72 125 -25 12 -53 30 -62 41 -14 18
-16 19 -30 2z m126 -107 c17 -24 20 -57 6 -57 -6 0 -13 5 -17 11 -3 6 -26 19
-50 29 -42 19 -65 54 -50 79 8 12 91 -34 111 -62z"/>
</g>
<g>
<path d="M2093 2792 c-18 -11 1 -139 25 -171 10 -14 30 -28 43 -29 13 -2 28
-8 34 -13 26 -26 64 6 65 55 0 38 -41 92 -77 100 -15 4 -39 20 -53 36 -15 18
-30 27 -37 22z m127 -121 c11 -22 14 -71 4 -71 -31 0 -84 26 -93 47 -12 26
-15 66 -5 76 10 10 82 -31 94 -52z"/>
</g>
<g>
<path d="M1777 2762 c-23 -25 -21 -84 3 -114 13 -18 34 -28 65 -32 25 -4 49
-14 54 -24 13 -24 41 2 41 39 0 49 -17 75 -62 97 -24 11 -50 27 -57 36 -17 20
-24 20 -44 -2z m33 -20 c0 -5 12 -15 28 -22 45 -23 72 -52 72 -78 0 -19 -4
-23 -17 -17 -10 4 -32 11 -49 16 -46 13 -82 78 -57 102 9 10 23 9 23 -1z"/>
</g>
<g>
<path d="M1540 1965 c0 -14 5 -25 10 -25 6 0 10 11 10 25 0 14 -4 25 -10 25
-5 0 -10 -11 -10 -25z"/>
</g>
<g>
<path d="M1680 1961 c0 -18 -9 -40 -20 -51 -36 -36 -7 -58 65 -50 21 2 35 17
35 38 0 19 -18 14 -25 -8 -3 -11 -13 -20 -21 -20 -13 0 -12 4 1 30 19 36 4 40
-19 5 -9 -14 -21 -23 -26 -20 -5 3 0 15 10 25 21 21 27 65 10 75 -6 4 -10 -7
-10 -24z"/>
</g>
<g>
<path d="M1517 1973 c-11 -10 -8 -53 3 -53 6 0 10 14 10 30 0 31 -2 35 -13 23z"/>
</g>
<g>
<path d="M1480 1939 c0 -11 5 -17 10 -14 6 3 10 13 10 21 0 8 -4 14 -10 14 -5
0 -10 -9 -10 -21z"/>
</g>
<g>
<path d="M1450 1936 c0 -9 5 -16 10 -16 6 0 10 4 10 9 0 6 -4 13 -10 16 -5 3
-10 -1 -10 -9z"/>
</g>
<g>
<path d="M1420 1910 c0 -5 5 -10 11 -10 5 0 7 5 4 10 -3 6 -8 10 -11 10 -2 0
-4 -4 -4 -10z"/>
</g>
<g>
<path d="M1767 1880 c-4 -15 0 -20 13 -20 13 0 17 5 13 20 -3 11 -9 20 -13 20
-4 0 -10 -9 -13 -20z"/>
</g>
<g>
<path d="M1580 1829 c0 -5 4 -9 9 -9 5 0 16 -3 25 -6 10 -4 16 -1 16 9 0 9
-10 15 -25 15 -14 0 -25 -4 -25 -9z"/>
</g>
<g>
<path d="M1580 1750 c0 -6 -5 -8 -11 -4 -12 7 -29 -12 -29 -34 0 -8 9 -12 21
-10 23 3 45 43 29 53 -6 4 -10 1 -10 -5z"/>
</g>
<g>
<path d="M1610 1748 c0 -7 -3 -24 -6 -38 -5 -20 -4 -23 6 -13 7 6 18 9 25 7 7
-3 17 7 23 25 13 36 -4 44 -18 9 l-9 -23 0 23 c-1 23 -21 32 -21 10z"/>
</g>
<g>
<path d="M1520 1735 c0 -9 -6 -12 -15 -9 -9 4 -15 0 -15 -10 0 -10 6 -13 18
-9 27 10 44 43 22 43 -5 0 -10 -7 -10 -15z"/>
</g>
<g>
<path d="M1440 1710 c0 -5 5 -10 10 -10 6 0 10 5 10 10 0 6 -4 10 -10 10 -5 0
-10 -4 -10 -10z"/>
</g>
<g>
<path d="M1512 1568 c-17 -17 -15 -33 3 -18 12 10 15 10 15 0 0 -10 3 -10 15
0 8 7 15 17 15 22 0 6 -6 6 -14 -1 -10 -8 -15 -9 -18 -1 -2 7 -7 7 -16 -2z"/>
</g>
<g>
<path d="M1445 1560 c-18 -8 -17 -9 8 -9 15 -1 27 4 27 9 0 12 -8 12 -35 0z"/>
</g>
<g>
<path d="M950 1430 c-9 -6 -46 -7 -90 -4 -89 8 -89 -2 0 -17 63 -10 120 1 120
22 0 12 -11 11 -30 -1z"/>
</g>
<g>
<path d="M1370 1430 c0 -5 5 -10 11 -10 5 0 7 5 4 10 -3 6 -8 10 -11 10 -2 0
-4 -4 -4 -10z"/>
</g>
<g>
<path d="M1400 1433 c1 -31 50 -44 50 -13 0 15 -6 20 -25 20 -14 0 -25 -3 -25
-7z"/>
</g>
<g>
<path d="M1476 1415 c-4 -11 1 -15 19 -15 16 0 25 6 25 15 0 8 -9 15 -19 15
-10 0 -21 -7 -25 -15z"/>
</g>
<g>
<path d="M1720 4985 c-14 -17 -5 -35 19 -35 26 0 44 23 29 38 -16 16 -33 15
-48 -3z"/>
</g>
<g>
<path d="M1332 4973 c2 -12 12 -18 28 -18 16 0 26 6 28 18 3 13 -3 17 -28 17
-25 0 -31 -4 -28 -17z"/>
</g>
<g>
<path d="M1540 4831 c-35 -10 -34 -45 2 -49 20 -2 28 2 33 18 9 28 -3 39 -35
31z"/>
</g>
<g>
<path d="M1307 4814 c-16 -17 -6 -44 19 -50 30 -8 47 6 42 32 -3 19 -47 32
-61 18z"/>
</g>
<g>
<path d="M1724 4806 c-10 -27 4 -46 35 -46 50 0 49 43 -2 55 -20 5 -28 3 -33
-9z"/>
</g>
<g>
<path d="M590 3291 c0 -11 5 -23 10 -26 6 -3 10 -15 10 -26 0 -10 7 -19 15
-19 20 0 19 25 -2 61 -20 34 -33 37 -33 10z"/>
</g>
<g>
<path d="M150 2987 c-14 -7 -25 -21 -25 -31 0 -11 -12 -32 -27 -48 -28 -30
-65 -114 -55 -124 10 -10 27 7 27 27 0 16 5 19 19 14 14 -4 21 0 26 15 4 11
15 20 26 20 11 0 17 5 14 10 -10 16 -29 12 -53 -10 -12 -12 -22 -17 -22 -11 0
5 16 23 35 40 26 22 46 31 71 31 24 0 34 4 31 13 -2 7 -19 11 -43 10 -37 -2
-38 -2 -19 13 12 9 36 14 57 12 42 -2 60 8 38 22 -21 14 -71 12 -100 -3z"/>
</g>
<g>
<path d="M440 2834 c0 -11 9 -14 37 -12 52 4 56 28 4 28 -30 0 -41 -4 -41 -16z"/>
</g>
<g>
<path d="M337 2823 c-12 -11 -8 -23 7 -23 7 0 19 7 26 15 10 12 9 15 -7 15
-11 0 -23 -3 -26 -7z"/>
</g>
<g>
<path d="M356 2748 c-14 -13 -28 -39 -31 -59 -9 -49 31 -99 79 -99 35 0 66 25
66 53 0 23 -17 21 -30 -3 -14 -27 -55 -26 -74 2 -22 31 -20 51 9 78 20 18 31
22 62 17 48 -8 73 -35 80 -85 6 -46 -23 -106 -57 -117 -19 -6 -29 -35 -12 -35
22 0 83 65 93 100 17 57 -3 123 -46 150 -45 28 -107 26 -139 -2z"/>
</g>
<g>
<path d="M386 2698 c-18 -25 -5 -58 22 -58 14 0 17 9 17 40 0 45 -15 52 -39
18z"/>
</g>
<g>
<path d="M307 2463 c-10 -9 -9 -23 1 -23 5 0 17 7 28 15 19 14 19 14 -2 15
-11 0 -24 -3 -27 -7z"/>
</g>
<g>
<path d="M2017 2223 c-11 -10 -8 -51 3 -58 6 -4 10 8 10 29 0 37 -2 41 -13 29z"/>
</g>
<g>
<path d="M1983 2204 c-3 -8 -1 -20 6 -27 8 -8 11 -4 11 16 0 30 -7 35 -17 11z"/>
</g>
<g>
<path d="M1961 2194 c0 -11 3 -14 6 -6 3 7 2 16 -1 19 -3 4 -6 -2 -5 -13z"/>
</g>
<g>
<path d="M1020 2184 c0 -8 5 -12 10 -9 6 3 10 10 10 16 0 5 -4 9 -10 9 -5 0
-10 -7 -10 -16z"/>
</g>
<g>
<path d="M1055 2190 c4 -6 11 -8 16 -5 14 9 11 15 -7 15 -8 0 -12 -5 -9 -10z"/>
</g>
<g>
<path d="M913 1348 c-6 -7 -14 -23 -17 -35 -10 -33 -62 -79 -107 -93 -48 -16
-60 -30 -24 -30 32 0 103 35 126 64 30 35 52 87 42 97 -6 6 -14 5 -20 -3z"/>
</g>
<g>
<path d="M836 1305 c-17 -27 -21 -45 -8 -45 12 0 52 44 52 58 0 21 -27 13 -44
-13z"/>
</g>
<g>
<path d="M106 522 c-3 -5 1 -9 9 -9 8 0 12 4 9 9 -3 4 -7 8 -9 8 -2 0 -6 -4
-9 -8z"/>
</g>
<g>
<path d="M586 571 c-4 -5 -2 -12 3 -15 5 -4 12 -2 15 3 4 5 2 12 -3 15 -5 4
-12 2 -15 -3z"/>
</g>
<g>
<path d="M620 439 c0 -5 5 -7 10 -4 6 3 10 8 10 11 0 2 -4 4 -10 4 -5 0 -10
-5 -10 -11z"/>
</g>
<g>
<path d="M663 574 c0 -14 23 -12 37 2 7 7 2 10 -13 10 -13 0 -24 -5 -24 -12z"/>
</g>
<g>
<path d="M1808 323 c-36 -4 -55 -23 -23 -23 18 0 19 -20 3 -55 -14 -31 -19
-31 -48 0 -32 34 -64 32 -92 -5 l-22 -30 -28 45 c-15 25 -28 49 -28 54 0 5
-59 8 -131 7 -124 -1 -133 -2 -146 -23 -9 -13 -13 -33 -9 -47 5 -19 14 -25 53
-31 71 -10 91 -37 60 -79 -11 -16 -18 -16 -55 -7 -26 7 -42 18 -42 27 0 31
-30 26 -65 -11 -19 -21 -35 -42 -35 -48 0 -5 43 -8 109 -5 124 4 151 17 151
73 0 49 -20 67 -78 73 -42 4 -52 8 -52 23 0 23 39 26 71 7 17 -11 22 -10 35 7
8 11 28 20 45 21 28 2 33 -3 72 -82 40 -81 41 -83 22 -104 -18 -20 -18 -20 13
-20 17 0 37 -3 46 -6 22 -9 32 23 18 59 -10 25 -8 34 9 59 l21 29 35 -51 c36
-53 36 -70 0 -70 -35 0 -2 -24 36 -27 49 -3 64 5 42 21 -18 13 -17 17 15 102
19 49 40 93 47 97 13 8 9 29 -5 25 -4 -1 -24 -3 -44 -5z"/>
</g>
<g>
<path d="M1919 307 c-84 -56 -62 -170 39 -205 42 -15 103 8 132 48 25 35 26
107 2 136 -40 50 -117 59 -173 21z m115 -39 c25 -35 21 -103 -6 -122 -31 -22
-45 -20 -73 10 -30 32 -33 88 -8 116 23 25 68 23 87 -4z"/>
</g>
<g>
<path d="M2147 323 c-2 -5 1 -50 7 -102 9 -84 8 -94 -7 -103 -26 -14 -10 -28
32 -28 l38 0 -5 50 c-4 42 -2 50 13 50 18 0 54 -37 55 -57 0 -17 41 -43 67
-43 18 0 23 6 23 24 0 15 -7 27 -19 31 -10 3 -26 14 -35 24 -15 16 -15 21 -1
47 18 35 20 85 3 102 -13 13 -164 17 -171 5z m133 -46 c0 -29 -18 -47 -47 -47
-20 0 -23 5 -23 35 0 33 2 35 35 35 30 0 35 -3 35 -23z"/>
</g>
<g>
<path d="M2390 321 c0 -6 5 -13 10 -16 6 -3 10 -46 10 -95 0 -49 -4 -92 -10
-95 -5 -3 -10 -11 -10 -17 0 -6 26 -9 73 -6 110 5 167 50 167 131 0 70 -59
107 -169 107 -39 0 -71 -4 -71 -9z m150 -51 c28 -26 31 -35 26 -62 -7 -34 -29
-63 -60 -80 -28 -15 -36 6 -36 95 0 69 2 77 19 77 10 0 33 -14 51 -30z"/>
</g>
<g>
<path d="M2730 317 c-19 -10 -25 -20 -25 -47 0 -41 28 -60 87 -60 32 0 39 -4
44 -26 9 -37 -14 -58 -49 -45 -15 6 -27 15 -27 21 0 5 -8 10 -18 10 -20 0 -48
-42 -38 -58 3 -5 33 -12 68 -15 102 -9 133 19 112 101 -7 26 -51 52 -87 52
-27 0 -52 23 -42 40 9 14 37 12 59 -5 27 -20 35 -19 45 8 5 14 4 25 -3 29 -18
12 -99 9 -126 -5z"/>
</g>
<g>
<path d="M381 298 c-79 -39 -93 -133 -27 -183 26 -20 44 -25 89 -25 30 0 62 3
71 6 28 11 17 24 -19 24 -65 0 -113 51 -99 106 10 40 41 50 76 24 32 -24 43
-20 53 22 6 24 3 27 -32 37 -53 15 -62 14 -112 -11z"/>
</g>
<g>
<path d="M586 301 c-3 -5 0 -14 8 -20 16 -14 22 -156 7 -166 -28 -17 -3 -25
78 -25 91 0 92 0 128 44 21 25 -6 31 -31 7 -14 -13 -35 -21 -59 -21 -33 0 -37
3 -43 35 -8 43 1 56 20 29 17 -23 21 -19 29 23 7 37 -10 55 -28 30 -17 -24
-25 -21 -25 8 0 32 46 58 61 34 5 -8 9 -22 9 -32 0 -34 25 -11 28 26 l3 37
-90 0 c-49 0 -92 -4 -95 -9z"/>
</g>
<g>
<path d="M952 174 c-42 -29 -19 -78 35 -72 20 2 30 11 37 31 15 43 -31 70 -72
41z m38 -24 c0 -5 -4 -10 -10 -10 -5 0 -10 5 -10 10 0 6 5 10 10 10 6 0 10 -4
10 -10z"/>
</g>
</g>
</g>
</svg>
