<?xml version="1.0" standalone="no"?>
<!DOCTYPE svg PUBLIC "-//W3C//DTD SVG 20010904//EN"
 "http://www.w3.org/TR/2001/REC-SVG-20010904/DTD/svg10.dtd">
<svg version="1.0" xmlns="http://www.w3.org/2000/svg"
 width="300.000000pt" height="537.000000pt" viewBox="0 0 300.000000 537.000000"
 preserveAspectRatio="xMidYMid meet">
<metadata>
Created by potrace 1.15, written by Peter Selinger 2001-2017
</metadata>
<g transform="translate(0.000000,537.000000) scale(0.100000,-0.100000)"
fill="#000000" stroke="none">
<g>
<path d="M125 5360 l-120 -5 -3 -1144 c-1 -630 0 -1143 2 -1140 2 2 7 256 10
564 3 308 9 815 12 1127 l7 566 132 7 c73 4 368 4 656 -1 288 -4 896 -8 1351
-8 784 -1 828 0 828 17 0 16 -48 17 -908 18 -499 0 -1118 1 -1377 2 -259 1
-524 0 -590 -3z"/>
</g>
<g>
<path d="M1112 5228 c0 -35 -7 -97 -15 -138 -8 -41 -18 -109 -22 -150 -6 -75
-6 -76 31 -131 37 -57 103 -109 137 -109 10 0 15 5 12 10 -3 6 -13 10 -21 10
-21 0 -92 68 -121 117 -22 38 -24 50 -18 106 13 131 28 207 40 207 6 0 17 18
24 41 7 23 15 38 18 35 6 -5 -10 -70 -43 -175 -17 -53 -18 -107 -3 -116 6 -4
10 -21 9 -39 -3 -48 -1 -58 10 -51 5 3 10 19 10 35 0 16 5 32 10 35 11 7 15
-19 11 -82 -2 -33 1 -45 14 -50 11 -4 21 0 27 10 11 21 28 22 28 2 0 -26 39 6
42 35 4 30 19 31 33 1 14 -31 25 -26 26 12 0 17 3 26 6 19 7 -19 23 -4 23 24
0 16 -6 24 -18 24 -9 0 -29 10 -43 23 -14 12 -34 27 -45 33 -13 8 -19 22 -19
47 0 19 -8 43 -17 54 -9 10 -19 35 -21 56 -2 20 -7 40 -10 44 -4 3 -7 24 -7
45 0 30 -4 38 -18 38 -10 0 -25 9 -35 20 -28 33 -36 23 -35 -42z m62 -162
c-14 -31 -28 -55 -31 -53 -2 3 4 25 15 49 10 23 22 52 27 63 4 11 9 15 11 9 3
-6 -7 -36 -22 -68z m27 -19 c-9 -23 -31 -46 -31 -32 0 12 32 67 36 62 3 -2 0
-16 -5 -30z m4 -76 c-4 -23 -10 -39 -15 -36 -7 4 -4 42 6 74 9 29 16 1 9 -38z
m-38 -8 c-3 -10 -5 -4 -5 12 0 17 2 24 5 18 2 -7 2 -21 0 -30z m64 -65 c-15
-41 -14 -58 3 -58 7 0 18 15 24 33 5 18 10 24 11 14 1 -10 6 -15 11 -12 6 3
10 3 10 -2 -1 -14 -27 -43 -39 -43 -6 0 -20 -9 -30 -19 -20 -20 -20 -19 -15
32 7 66 26 129 32 104 2 -10 -1 -32 -7 -49z m49 32 c0 -5 -4 -10 -10 -10 -5 0
-10 5 -10 10 0 6 5 10 10 10 6 0 10 -4 10 -10z m30 -20 c0 -5 -4 -10 -10 -10
-5 0 -10 5 -10 10 0 6 5 10 10 10 6 0 10 -4 10 -10z m24 -25 c-6 -16 -24 -21
-24 -7 0 11 11 22 21 22 5 0 6 -7 3 -15z"/>
</g>
<g>
<path d="M1885 5268 c-3 -13 -7 -36 -9 -53 -11 -77 -19 -112 -31 -140 -31 -71
-39 -85 -50 -85 -6 0 -22 -11 -34 -24 -13 -14 -36 -30 -52 -37 -27 -10 -32 -9
-54 11 -30 29 -32 59 -4 94 11 14 19 34 17 44 -3 12 -9 6 -22 -21 -23 -47 -36
-55 -36 -23 0 14 5 26 10 26 6 0 10 5 10 12 0 6 -9 3 -20 -7 -21 -19 -28 -65
-10 -65 6 0 10 -11 10 -23 0 -13 9 -32 20 -42 15 -14 17 -21 9 -32 -9 -9 -9
-13 0 -13 6 0 11 5 11 11 0 16 25 5 26 -12 1 -8 2 -20 3 -28 1 -11 4 -11 17 0
13 10 17 10 25 -2 5 -8 7 -22 5 -31 -5 -22 10 -24 18 -2 3 8 10 12 16 9 15 -9
12 -51 -5 -65 -8 -7 -12 -17 -9 -22 10 -16 43 65 48 117 7 66 26 83 26 24 0
-25 -4 -49 -9 -55 -4 -5 -11 -23 -14 -41 l-6 -31 28 14 c15 8 33 25 39 39 13
28 32 34 32 10 0 -8 4 -15 9 -15 5 0 14 7 21 15 7 8 9 15 4 15 -5 0 -9 38 -9
85 0 77 1 82 12 52 6 -17 12 -45 12 -60 1 -35 21 -26 21 9 0 16 4 23 11 18 7
-4 9 -24 6 -56 -7 -59 -46 -112 -114 -157 -25 -17 -41 -31 -35 -31 22 0 109
70 136 109 39 55 43 102 16 181 -16 47 -24 98 -28 183 l-5 117 -28 0 c-21 0
-30 -6 -34 -22z m35 -36 c0 -22 5 -76 11 -121 13 -96 6 -119 -11 -34 -6 32
-16 73 -22 91 -11 36 -3 102 12 102 6 0 10 -17 10 -38z m-33 -129 c-3 -10 -5
-4 -5 12 0 17 2 24 5 18 2 -7 2 -21 0 -30z m22 -73 c1 -13 0 -13 -9 0 -5 8 -9
24 -9 35 l0 20 9 -20 c5 -11 9 -27 9 -35z m-39 19 c0 -11 5 -29 11 -40 5 -11
9 -30 7 -42 -3 -19 -7 -16 -21 17 -19 43 -22 86 -7 86 6 0 10 -9 10 -21z m-21
-109 c0 -29 -2 -31 -9 -15 -5 11 -9 34 -9 50 -1 23 2 26 9 15 5 -8 9 -31 9
-50z m-59 3 c0 -10 -4 -24 -9 -31 -6 -10 -10 -10 -21 3 -10 12 -10 18 0 30 17
20 30 19 30 -2z m-40 -38 c0 -8 -4 -17 -10 -20 -6 -4 -10 5 -10 20 0 15 4 24
10 20 6 -3 10 -12 10 -20z m-35 -16 c-10 -15 -25 -10 -19 6 4 8 10 12 15 9 5
-3 7 -10 4 -15z m175 -4 c0 -14 -4 -25 -10 -25 -11 0 -14 33 -3 43 11 11 13 8
13 -18z m-110 -21 c0 -8 -9 -14 -20 -14 -18 0 -19 3 -10 20 12 22 30 18 30 -6z
m56 -52 c-19 -20 -21 -4 -3 35 12 27 12 27 15 4 2 -13 -3 -31 -12 -39z"/>
</g>
<g>
<path d="M1638 5120 c-50 -26 -176 -30 -213 -6 -23 15 -26 15 -32 0 -4 -10 3
-24 19 -39 25 -23 45 -86 33 -105 -3 -6 1 -10 9 -10 20 0 20 30 1 77 -8 19
-15 37 -15 39 0 2 7 4 15 4 8 0 15 -8 15 -18 0 -10 7 -27 16 -38 14 -18 15
-17 9 19 l-6 37 46 0 c25 0 62 7 82 15 20 9 42 14 48 11 17 -6 39 10 31 23
-10 15 -16 14 -58 -9z"/>
</g>
<g>
<path d="M1521 5044 c0 -11 3 -14 6 -6 3 7 2 16 -1 19 -3 4 -6 -2 -5 -13z"/>
</g>
<g>
<path d="M1560 5045 c0 -8 2 -15 4 -15 2 0 6 7 10 15 3 8 1 15 -4 15 -6 0 -10
-7 -10 -15z"/>
</g>
<g>
<path d="M1585 4940 c3 -5 8 -10 11 -10 2 0 4 5 4 10 0 6 -5 10 -11 10 -5 0
-7 -4 -4 -10z"/>
</g>
<g>
<path d="M1469 4923 c-13 -16 -12 -17 4 -4 16 13 21 21 13 21 -2 0 -10 -8 -17
-17z"/>
</g>
<g>
<path d="M1420 4890 c0 -5 5 -10 11 -10 5 0 7 5 4 10 -3 6 -8 10 -11 10 -2 0
-4 -4 -4 -10z"/>
</g>
<g>
<path d="M1392 4803 c-8 -15 -9 -24 -1 -28 15 -10 21 0 17 27 l-3 23 -13 -22z"/>
</g>
<g>
<path d="M1676 4796 c3 -9 11 -16 16 -16 13 0 5 23 -10 28 -7 2 -10 -2 -6 -12z"/>
</g>
<g>
<path d="M1354 4769 c-3 -6 -1 -16 5 -22 8 -8 11 -5 11 11 0 24 -5 28 -16 11z"/>
</g>
<g>
<path d="M1290 4760 c0 -5 5 -10 10 -10 6 0 10 5 10 10 0 6 -4 10 -10 10 -5 0
-10 -4 -10 -10z"/>
</g>
<g>
<path d="M1660 4750 c0 -5 5 -10 11 -10 5 0 7 5 4 10 -3 6 -8 10 -11 10 -2 0
-4 -4 -4 -10z"/>
</g>
<g>
<path d="M1630 4700 c8 -5 24 -9 35 -9 l20 0 -20 9 c-11 5 -27 9 -35 9 -13 1
-13 0 0 -9z"/>
</g>
<g>
<path d="M1281 4685 c5 -5 46 -9 89 -8 88 3 93 0 96 -61 1 -23 9 -45 18 -52
25 -18 19 -31 -24 -55 -41 -23 -82 -75 -93 -119 -3 -13 -2 -44 4 -69 6 -28 6
-48 0 -54 -15 -15 -28 22 -34 100 -4 53 -12 82 -32 113 -15 24 -33 64 -41 91
-19 64 -52 89 -118 89 -103 0 -124 -41 -137 -259 -5 -84 -8 -244 -7 -355 0
-110 0 -403 0 -651 -1 -247 0 -468 1 -490 6 -68 -1 -68 -77 -6 -223 182 -297
213 -364 151 -39 -36 -30 -77 29 -132 l51 -47 -29 -25 c-15 -14 -38 -26 -50
-26 -24 0 -53 -43 -53 -78 0 -32 42 -60 125 -83 86 -23 200 -77 303 -142 l65
-41 -8 -375 c-4 -207 -7 -495 -7 -641 0 -146 -2 -312 -5 -368 l-6 -104 -171 7
c-221 8 -367 22 -420 40 -23 8 -73 15 -111 16 -39 1 -74 5 -80 9 -23 18 -98
30 -145 24 -71 -9 -62 -24 13 -22 42 1 72 -4 92 -15 63 -35 92 -45 144 -52 49
-7 53 -6 47 10 -5 14 -2 16 16 10 13 -4 38 -9 56 -12 18 -3 35 -9 38 -14 3 -5
-93 -9 -225 -9 l-231 0 0 -26 c0 -24 2 -25 32 -18 30 6 31 5 19 -10 -8 -10
-23 -15 -33 -13 -15 4 -18 -1 -18 -30 0 -33 2 -35 27 -29 100 22 173 19 173
-8 0 -17 -53 -32 -58 -17 -6 18 -52 13 -52 -5 0 -14 -8 -16 -45 -12 -33 4 -45
2 -45 -7 0 -8 6 -16 13 -18 10 -4 10 -6 0 -6 -17 -1 -17 -78 0 -84 9 -4 9 -6
0 -6 -7 -1 -13 -5 -13 -11 0 -14 58 -12 62 2 2 6 10 8 16 4 25 -15 11 -26 -33
-26 -69 0 -53 -20 18 -21 34 -1 52 -4 40 -6 -13 -2 -23 -9 -23 -14 0 -5 -7 -9
-15 -9 -8 0 -15 5 -15 10 0 6 -11 10 -25 10 -26 0 -34 -15 -12 -23 9 -4 9 -6
0 -6 -7 -1 -13 -8 -13 -16 0 -11 5 -12 26 -5 38 15 101 12 134 -5 40 -20 38
-33 -5 -41 -45 -8 -40 -30 5 -26 52 6 80 -5 80 -31 0 -35 -30 -46 -139 -48
-82 -1 -101 -4 -101 -16 0 -13 181 -14 1495 -8 l1495 8 -2 -189 -3 -189 -845
3 c-464 2 -845 4 -846 5 -2 1 0 21 3 45 3 26 11 42 19 42 20 0 17 41 -5 69
-21 28 -45 20 -36 -12 5 -20 3 -19 -19 6 -14 15 -26 33 -25 40 0 9 2 9 6 0 6
-17 33 -16 33 1 0 21 -27 38 -49 31 -25 -8 -35 -38 -22 -64 15 -27 15 -27 -15
-26 -15 0 -32 -8 -38 -17 -17 -28 4 -53 45 -53 31 0 34 2 34 32 0 36 9 34 30
-7 13 -25 13 -34 2 -62 -16 -39 68 -34 -679 -36 -505 -2 -578 -4 -578 -17 0
-13 177 -15 1500 -14 l1500 0 -2 272 c-1 150 -3 248 -5 219 -5 -60 6 -57 -148
-53 -98 3 -125 11 -125 36 0 17 23 25 76 25 58 0 90 16 73 36 -6 8 -18 14 -25
14 -12 0 -11 5 2 25 9 14 25 25 35 25 16 0 19 -8 20 -57 1 -32 1 -66 0 -75 -2
-12 5 -18 19 -18 19 0 21 5 18 42 -2 29 1 43 10 44 6 1 17 2 22 3 19 2 10 31
-9 31 -11 0 -22 4 -26 9 -10 17 11 20 38 6 l27 -14 0 44 c0 37 -3 44 -22 48
l-23 4 23 2 c36 2 25 21 -13 21 -19 0 -35 5 -35 10 0 6 16 10 35 10 44 0 46
17 3 23 l-33 4 33 1 c32 2 43 16 20 25 -9 4 -9 8 -3 14 17 13 11 38 -10 45
-19 6 -18 6 3 7 15 1 22 7 22 20 0 25 -45 33 -174 31 -199 -3 -266 0 -266 11
0 9 53 10 203 5 111 -4 210 -4 220 0 12 4 17 18 17 49 l0 43 -117 7 c-64 4
-252 4 -417 0 -340 -10 -345 -10 -354 0 -6 5 -5 439 1 718 1 45 9 58 22 37 20
-33 143 -52 186 -30 14 8 19 7 19 -3 0 -15 82 -96 120 -118 60 -36 165 -51
252 -38 59 9 164 55 172 75 3 8 -21 0 -54 -17 -139 -71 -307 -56 -409 36 -42
38 -88 124 -91 171 -4 52 2 50 13 -6 9 -42 16 -55 30 -54 9 1 17 -2 17 -7 0
-28 107 -119 140 -119 21 0 9 18 -20 30 -37 15 -96 81 -105 118 -4 15 -16 35
-26 46 -11 10 -18 25 -15 33 3 8 6 19 6 24 0 5 12 9 28 9 67 0 164 52 148 79
-6 9 -12 7 -23 -9 -35 -50 -144 -66 -211 -31 -112 58 -155 186 -95 289 27 47
50 71 67 72 5 0 -1 -11 -14 -25 -34 -37 -15 -44 23 -8 17 16 41 33 52 37 16 6
17 9 5 16 -11 7 -5 10 21 10 22 0 47 -8 63 -21 24 -19 26 -24 20 -75 -13 -110
48 -215 133 -229 67 -11 72 -17 58 -82 -6 -28 -84 -66 -119 -57 -14 3 -30 12
-37 20 -6 8 -15 11 -21 8 -5 -3 1 -15 14 -26 19 -17 32 -19 78 -15 47 5 60 11
88 41 22 25 32 45 32 68 0 30 4 34 43 46 23 8 49 20 58 28 15 13 22 12 61 -13
38 -24 45 -33 46 -62 2 -40 10 -51 22 -31 8 13 12 12 24 -5 15 -20 15 -20 16
3 0 15 -7 26 -19 29 -31 8 -33 30 -4 38 14 3 26 5 27 3 7 -12 36 -105 36 -115
0 -7 -7 -10 -15 -7 -12 5 -15 -2 -15 -30 0 -41 7 -46 20 -13 l9 22 0 -23 c1
-32 -24 -87 -60 -133 -17 -22 -29 -43 -25 -46 8 -9 64 45 82 79 17 33 19 209
3 240 -8 14 -8 23 0 31 6 6 11 19 11 29 0 16 -5 18 -35 12 -30 -5 -112 14
-133 31 -2 2 2 22 8 46 6 23 9 57 5 76 -7 40 -60 103 -86 103 -10 0 -19 6 -19
14 0 8 -6 17 -12 19 -7 3 4 6 25 6 40 1 118 33 138 57 16 20 7 18 -47 -11 -69
-37 -102 -33 -38 5 56 32 111 90 146 154 48 89 18 275 -57 350 -17 18 -50 38
-74 46 -27 9 -55 29 -76 54 -22 26 -35 35 -35 25 0 -30 40 -68 104 -99 55 -26
67 -36 86 -77 77 -164 65 -288 -36 -387 -43 -42 -122 -86 -154 -86 -20 0 -19
2 8 30 56 56 79 108 91 209 12 96 1 201 -20 201 -11 0 -11 -12 1 -70 13 -66
-7 -202 -40 -264 -27 -50 -98 -116 -126 -116 -23 0 -16 17 9 24 65 16 125 125
134 245 6 88 -4 134 -47 209 -44 75 -55 55 -14 -26 57 -112 55 -222 -7 -344
-24 -48 -95 -82 -151 -73 -46 8 -52 -10 -8 -20 33 -7 37 -20 15 -49 -20 -27
-69 -25 -100 4 -29 28 -25 42 5 15 11 -10 23 -16 26 -13 9 10 -20 48 -33 43
-7 -2 -13 0 -13 5 0 15 76 60 113 67 61 11 113 83 124 172 7 65 -26 171 -75
236 -61 82 -73 105 -70 132 4 37 23 39 23 3 0 -40 20 -38 21 3 0 23 11 42 37
69 30 29 37 43 37 75 0 21 -7 48 -15 59 -20 30 -73 39 -97 18 -35 -32 -17 -84
29 -84 28 0 30 16 3 23 -12 3 -20 14 -20 26 0 31 57 30 69 -1 22 -60 -33 -147
-83 -132 -51 16 -66 24 -77 45 l-12 22 28 -21 c28 -22 85 -30 85 -12 0 6 -9
10 -19 10 -33 0 -52 12 -62 37 -8 21 -12 23 -24 13 -13 -10 -15 -8 -15 13 0
16 7 26 20 30 13 3 22 17 26 37 5 24 13 32 35 37 34 7 39 23 7 23 -84 -2 -145
-119 -100 -192 21 -33 21 -34 2 -46 -22 -14 -26 -52 -8 -70 15 -15 -19 -54
-69 -77 -34 -16 -36 -16 -62 4 -34 28 -101 58 -146 67 l-35 6 -2 147 c-1 80 0
259 2 396 2 138 4 374 4 525 1 254 -1 279 -20 330 -14 38 -29 59 -47 68 -24
12 -27 19 -28 70 -1 107 -40 164 -103 148 -29 -7 -63 -54 -73 -98 -8 -41 -23
-34 -23 10 0 50 -23 82 -60 82 -37 0 -48 -20 -55 -101 -4 -34 -9 -67 -11 -71
-3 -5 -21 2 -39 16 -18 14 -44 28 -59 32 -16 4 -26 13 -26 25 0 10 4 19 8 19
17 0 32 52 26 86 -9 50 -26 42 -19 -8 5 -34 2 -47 -12 -63 -10 -11 -24 -31
-30 -45 -11 -24 -12 -24 -12 -3 -1 12 -10 27 -21 33 -15 8 -20 21 -20 54 0 26
-6 48 -15 56 -18 15 -209 20 -194 5z m-72 -66 c17 -17 31 -39 31 -50 0 -10 0
-22 1 -26 0 -4 -4 -9 -10 -11 -6 -2 -11 8 -11 22 0 34 -33 66 -67 66 -35 -1
-78 -35 -94 -75 -8 -22 -12 -326 -15 -1165 -2 -624 -6 -1337 -9 -1585 -5 -417
-13 -1030 -14 -1047 -1 -5 -6 -8 -11 -8 -7 0 -9 97 -5 293 2 160 7 886 10
1612 3 726 7 1442 10 1590 6 344 16 386 98 405 51 12 54 12 86 -21z m754 9
c16 -12 37 -100 37 -155 0 -38 -30 -28 -31 10 -1 17 -3 39 -4 47 -1 8 -3 23
-4 33 -1 14 -8 18 -28 15 -40 -4 -60 -56 -73 -185 -5 -59 -10 -118 -10 -130 0
-13 -4 -23 -10 -23 -9 0 -7 78 6 204 7 63 36 159 55 182 14 17 40 18 62 2z
m-181 -15 c12 -11 18 -29 17 -57 l-1 -41 -12 34 c-15 41 -35 52 -43 22 -6 -24
-23 -29 -23 -6 0 22 22 65 33 65 6 0 19 -7 29 -17z m-612 -33 c28 -28 25 -47
-14 -91 -41 -45 -50 -85 -43 -182 4 -60 2 -77 -15 -104 -11 -18 -22 -33 -25
-33 -10 0 1 317 13 358 21 74 47 89 84 52z m773 -32 c6 -18 -3 -129 -13 -153
-4 -11 -13 -33 -19 -48 -6 -15 -11 -43 -11 -62 0 -34 -13 -47 -23 -22 -10 27
12 223 29 260 18 38 29 46 37 25z m-176 -131 c-2 -23 -3 -1 -3 48 0 50 1 68 3
42 2 -26 2 -67 0 -90z m-29 -79 c-2 -138 -6 -192 -15 -195 -9 -3 -11 18 -6 89
3 51 5 139 3 196 -1 69 2 102 9 102 8 0 11 -56 9 -192z m-471 150 c11 -13 26
-33 32 -45 14 -27 32 -275 21 -286 -4 -5 -11 50 -15 121 -9 161 -24 195 -82
190 -27 -2 -41 -9 -49 -25 -8 -17 -11 -497 -12 -1724 -1 -936 -5 -1706 -9
-1710 -4 -4 -8 688 -7 1539 0 851 -2 1617 -6 1702 -7 146 -6 158 14 200 19 41
38 55 82 59 6 1 20 -9 31 -21z m370 -4 c45 -29 65 -73 59 -132 -2 -30 -12 -65
-21 -78 -50 -77 -185 -87 -247 -18 -29 34 -43 99 -29 143 19 65 108 127 125
89 4 -10 9 -8 18 5 15 21 56 17 95 -9z m-418 -119 c14 -84 9 -115 -20 -115
-17 0 -19 7 -19 64 0 69 9 126 19 126 4 0 13 -34 20 -75z m50 31 c18 -71 9
-228 -12 -226 -10 0 -16 270 -6 270 4 0 12 -20 18 -44z m801 -31 l25 -50 -3
-410 c-2 -225 -7 -457 -11 -515 -6 -79 -9 -18 -10 250 0 195 -1 382 -1 415 1
33 -4 111 -9 174 -11 122 -24 151 -66 151 -36 0 -47 -24 -61 -128 l-13 -97 3
93 c3 80 7 98 30 133 24 35 31 40 59 37 27 -3 36 -10 57 -53z m-283 -47 c-2
-13 -4 -5 -4 17 -1 22 1 32 4 23 2 -10 2 -28 0 -40z m203 -29 c0 -31 -4 -48
-10 -44 -17 11 -12 95 7 95 2 0 3 -23 3 -51z m44 10 c9 -45 7 -79 -3 -79 -13
0 -21 27 -21 71 0 47 15 52 24 8z m-227 -55 c-3 -3 -12 -4 -19 -1 -8 3 -5 6 6
6 11 1 17 -2 13 -5z m-348 -40 c51 -25 106 -29 156 -9 25 9 51 14 58 12 6 -3
1 -6 -13 -6 -20 -1 -22 -3 -10 -11 11 -7 7 -10 -17 -10 -48 0 -40 -18 10 -23
23 -2 5 -4 -40 -5 -48 -1 -83 -6 -83 -12 0 -5 -9 -10 -20 -10 -13 0 -18 5 -14
15 5 12 -5 15 -57 16 -53 1 -58 3 -29 9 36 7 29 15 -20 23 -18 3 -13 5 15 7
l40 3 -40 7 -40 7 36 2 c20 0 50 -6 68 -15z m377 -62 c-11 -10 -14 3 -7 38 l6
35 3 -33 c2 -19 1 -36 -2 -40z m-716 2 c0 -8 -4 -12 -10 -9 -5 3 -10 13 -10
21 0 8 5 12 10 9 6 -3 10 -13 10 -21z m905 -5 c0 -17 -101 -58 -175 -71 -158
-26 -567 -11 -633 23 -51 27 -44 61 11 48 139 -33 683 -30 748 3 34 18 49 17
49 -3z m-602 4 c-13 -2 -33 -2 -45 0 -13 2 -3 4 22 4 25 0 35 -2 23 -4z m-196
-79 c-3 -3 -12 -4 -19 -1 -8 3 -5 6 6 6 11 1 17 -2 13 -5z m723 0 l32 -7 -28
-13 -29 -12 25 -1 c14 -1 36 6 48 15 31 21 43 7 15 -16 -13 -10 -23 -21 -23
-25 0 -3 10 -3 23 1 21 6 21 6 -3 -14 -14 -12 -21 -21 -16 -22 6 0 1 -7 -10
-15 -18 -14 -18 -14 5 -15 23 0 23 -1 8 -18 -10 -10 -17 -24 -17 -30 0 -7 -4
-12 -10 -12 -5 0 -7 -7 -4 -15 4 -9 0 -15 -10 -15 -9 0 -16 -4 -16 -9 0 -5 9
-7 20 -4 37 10 21 -18 -20 -34 -41 -16 -57 -40 -19 -28 15 5 19 4 15 -4 -4 -6
-16 -11 -26 -11 -29 0 -50 -11 -50 -26 0 -8 -7 -14 -15 -14 -8 0 -15 -7 -15
-15 0 -8 -9 -15 -19 -15 -23 0 -36 -16 -21 -25 6 -4 -6 -18 -27 -32 -49 -32
-72 -62 -73 -93 0 -18 -3 -21 -9 -11 -5 8 -16 11 -28 7 -18 -6 -20 -2 -20 36
0 69 -61 97 -114 52 -16 -15 -15 -69 2 -80 5 -3 9 -10 9 -16 0 -6 -7 -5 -17 3
-13 11 -17 11 -20 1 -8 -22 -23 -1 -17 23 9 38 -39 81 -102 89 -83 12 -102 35
-30 38 38 1 41 4 26 28 -6 9 -5 17 3 22 20 12 1 19 -27 9 -17 -7 -43 -7 -78
-1 -71 14 -72 20 -2 15 56 -4 57 -4 19 6 -95 24 -102 28 -45 24 l55 -4 -45 10
c-60 14 -80 34 -25 25 22 -4 48 -9 58 -12 9 -3 17 -1 17 5 0 6 -12 13 -27 17
-16 3 -41 10 -58 15 l-30 9 30 -4 c17 -2 48 -7 70 -11 26 -4 35 -3 25 3 -8 5
-36 13 -62 16 -26 4 -50 12 -54 18 -4 7 4 8 26 3 23 -5 30 -4 26 4 -4 6 -18
11 -31 11 -13 0 -27 5 -31 11 -4 8 14 9 62 5 l69 -6 -59 15 c-75 19 -86 30
-22 21 33 -5 46 -4 41 3 -3 6 -24 11 -46 11 -21 0 -39 3 -39 8 0 4 19 6 41 4
29 -3 40 -1 35 7 -4 6 -20 11 -36 11 -16 0 -32 5 -36 12 -5 8 2 9 24 5 31 -6
45 6 20 16 -7 3 -1 6 15 6 29 1 40 31 10 31 -9 0 -14 2 -11 5 3 3 91 -1 197
-9 191 -14 369 -8 424 14 28 11 37 11 77 4z m94 -596 c-3 -456 -7 -510 -33
-483 -5 6 -12 188 -15 406 l-5 395 24 49 c14 26 25 61 25 77 0 15 2 28 4 28 2
0 2 -212 0 -472z m-954 409 c0 -16 4 -36 9 -46 5 -9 12 -134 15 -277 3 -142 9
-332 12 -422 6 -157 5 -164 -15 -183 -27 -25 -27 -73 -1 -99 12 -12 20 -33 20
-55 0 -38 -13 -44 -45 -19 -20 15 -20 27 -21 547 -1 545 2 620 17 596 5 -8 9
-27 9 -42z m880 -279 c1 -79 3 -248 6 -375 4 -144 2 -233 -4 -233 -5 0 -10 85
-11 208 -1 114 -4 282 -7 375 -4 115 -2 167 5 167 7 0 11 -48 11 -142z m-714
70 c22 -16 46 -28 52 -28 9 0 10 -12 6 -39 -7 -43 8 -81 33 -81 12 0 14 -7 9
-32 -4 -18 -11 -34 -16 -36 -15 -6 -12 -32 5 -38 8 -4 15 -13 15 -22 0 -13 2
-13 18 0 9 8 25 18 35 21 24 9 21 30 -10 67 -25 31 -26 33 -9 46 11 7 16 20
13 29 -7 16 -47 21 -47 5 0 -5 -5 -10 -11 -10 -6 0 -9 14 -7 33 3 29 6 32 36
30 58 -2 72 -25 72 -112 0 -42 -1 -157 0 -256 0 -135 -3 -183 -13 -193 -22
-21 -169 -72 -209 -72 l-38 0 0 78 c0 42 -3 201 -7 354 -6 279 -3 327 20 298
7 -8 30 -27 53 -42z m37 45 c-7 -2 -21 -2 -30 0 -10 3 -4 5 12 5 17 0 24 -2
18 -5z m52 -3 c3 -5 -1 -10 -9 -10 -9 0 -16 5 -16 10 0 6 4 10 9 10 6 0 13 -4
16 -10z m591 -365 l7 -361 -79 7 c-44 4 -85 8 -92 8 -10 1 -12 41 -12 184 2
200 5 233 25 217 9 -7 20 -3 40 16 27 25 27 25 9 47 -11 12 -29 32 -42 44 -21
21 -21 23 -5 23 11 0 24 5 31 12 17 17 15 65 -4 76 -12 7 -2 17 47 50 34 23
63 41 65 39 1 -1 6 -164 10 -362z m-346 265 c0 -5 -4 -10 -9 -10 -6 0 -13 5
-16 10 -3 6 1 10 9 10 9 0 16 -4 16 -10z m210 -25 c0 -22 -3 -24 -19 -15 -11
5 -27 7 -35 4 -9 -3 -16 -1 -16 5 0 12 34 29 58 30 6 1 12 -10 12 -24z m-250
1 c0 -21 20 -30 33 -17 27 27 38 -8 13 -41 -14 -20 -36 -24 -36 -8 0 6 5 10
10 10 6 0 10 5 10 11 0 6 -6 9 -14 6 -7 -3 -19 0 -25 6 -14 14 -15 47 -1 47 6
0 10 -6 10 -14z m193 -307 c-2 -231 -5 -271 -18 -258 -3 4 -8 458 -5 502 0 4
6 7 13 7 10 0 12 -54 10 -251z m-215 203 c2 -6 -5 -15 -15 -20 -10 -4 -18 -13
-19 -19 -4 -50 -7 -52 -15 -8 -6 35 -5 52 4 57 16 11 39 6 45 -10z m132 -19
c-1 -36 -2 -37 -15 -19 -16 21 -19 39 -8 49 15 16 23 5 23 -30z m-266 -9 c10
-26 7 -34 -13 -34 -23 0 -34 23 -18 39 15 15 24 14 31 -5z m196 7 c0 -5 3 -16
6 -25 4 -11 0 -16 -14 -16 -27 0 -37 17 -22 35 14 17 30 20 30 6z m206 -29
c-22 -5 -30 3 -21 18 5 8 11 7 22 -2 15 -12 14 -13 -1 -16z m-97 -119 c-1
-105 -2 -112 -10 -63 -8 49 -3 180 7 180 2 0 3 -53 3 -117z m-143 82 c5 -13 8
-13 27 0 57 40 74 -4 81 -210 3 -98 11 -182 21 -218 9 -32 13 -62 10 -67 -3
-5 0 -12 7 -16 8 -5 6 -10 -8 -15 -18 -7 -18 -8 1 -9 20 -1 20 -1 1 -15 -19
-14 -19 -15 7 -15 25 0 33 -12 28 -42 0 -5 3 -8 9 -8 5 0 6 -7 3 -17 -4 -11
-3 -14 5 -9 7 4 17 4 23 0 8 -4 7 -9 -2 -15 -11 -7 -9 -9 5 -9 11 0 16 -3 13
-7 -10 -10 13 -33 33 -33 10 0 20 -5 22 -12 4 -12 38 -4 38 10 0 4 -15 17 -32
27 l-33 20 32 3 c40 4 114 -21 128 -42 12 -20 -5 -33 -55 -41 -19 -3 -71 -11
-115 -19 -59 -10 -82 -11 -87 -2 -6 8 -10 8 -15 0 -13 -19 -130 -44 -206 -44
-63 1 -70 2 -54 14 13 10 15 15 5 18 -9 3 2 21 30 51 23 26 50 63 59 82 17 35
41 43 35 11 -2 -9 3 -16 10 -17 7 0 4 -5 -7 -10 -17 -7 -16 -8 9 -6 22 1 31
-3 37 -20 8 -21 5 -23 -24 -23 -31 0 -57 -14 -57 -32 0 -4 31 -6 70 -5 42 1
68 6 66 12 -2 6 -24 41 -50 79 -25 38 -46 73 -46 78 0 5 -5 6 -10 3 -6 -4 -8
-11 -5 -16 4 -5 2 -9 -4 -9 -5 0 -11 6 -14 13 -3 7 -7 4 -11 -8 -24 -71 -83
-157 -94 -138 -4 6 -43 14 -87 18 l-80 7 72 73 c55 56 80 74 104 77 18 2 34 9
37 15 2 9 -5 11 -27 7 -20 -4 -31 -2 -31 5 0 6 11 11 24 11 14 0 28 5 31 10 4
6 -5 10 -20 10 -35 0 -28 24 8 28 31 4 37 22 7 22 -11 0 -20 5 -20 10 0 6 7
10 16 10 9 0 18 8 20 18 8 27 5 37 -11 37 -24 0 -22 20 3 23 27 4 29 22 2 22
-11 0 -20 4 -20 9 0 5 9 11 20 14 23 6 27 27 5 27 -8 0 -15 4 -15 9 0 5 7 8
16 7 9 0 19 5 21 12 3 7 -4 12 -16 12 -12 0 -21 5 -21 10 0 6 9 10 19 10 11 0
23 5 26 10 4 6 -5 10 -20 10 -32 0 -29 23 3 28 12 2 22 8 22 14 0 6 -9 8 -20
5 -17 -4 -20 0 -20 29 0 27 4 34 16 32 10 -2 19 3 22 11 3 9 -1 11 -17 6 -17
-5 -21 -2 -21 14 0 38 11 51 39 45 25 -5 25 -5 7 10 -18 14 -18 16 -3 16 10 0
20 -7 23 -15z m535 -317 c2 -224 2 -249 -5 -256 -16 -15 -19 24 -18 213 1 183
4 225 17 225 2 0 5 -82 6 -182z m-394 70 c-3 -8 -6 -5 -6 6 -1 11 2 17 5 13 3
-3 4 -12 1 -19z m-949 -130 c88 -60 232 -179 232 -192 0 -12 -96 7 -157 30
-34 13 -71 24 -83 24 -11 0 -48 23 -81 50 -33 28 -69 50 -80 50 -26 0 -24 28
4 58 19 21 28 23 70 18 30 -3 64 -17 95 -38z m1746 16 c19 -7 22 -44 4 -44 -7
0 -23 -3 -34 -6 -28 -7 -41 31 -16 46 20 11 26 12 46 4z m-1059 -56 c-11 -69
-41 -127 -70 -138 -15 -6 -60 -10 -101 -10 l-74 0 0 64 0 64 53 7 c28 4 81 18
117 30 36 13 69 23 73 24 5 1 6 -18 2 -41z m388 3 c43 -6 109 -11 146 -11 l68
0 7 -61 c3 -34 6 -88 6 -120 l0 -57 -28 13 c-15 8 -80 25 -144 37 -132 26
-124 19 -158 140 -21 76 -19 93 8 79 10 -5 53 -14 95 -20z m694 -48 c10 -21
35 -59 56 -86 53 -64 81 -154 71 -227 -4 -30 -9 -49 -11 -42 -8 21 -23 13 -23
-12 0 -20 -27 -45 -38 -34 -2 2 -10 -8 -17 -22 -8 -14 -14 -19 -15 -12 0 22
-20 2 -20 -21 0 -20 0 -20 -15 -1 -14 18 -14 18 -15 -6 0 -18 -3 -21 -9 -12
-7 11 -12 12 -29 1 -11 -7 -23 -22 -26 -32 -2 -10 -9 -16 -15 -13 -5 4 -13 0
-18 -8 -10 -18 -113 -36 -206 -36 -38 0 -66 -4 -63 -8 6 -10 174 -8 240 3 68
11 52 -10 -19 -25 -66 -14 -108 -41 -149 -98 -28 -39 -31 -52 -32 -119 -1 -64
-4 -76 -23 -90 -12 -8 -24 -13 -26 -11 -4 3 -7 433 -6 776 1 151 1 152 24 151
60 -1 148 -57 177 -113 21 -43 69 -100 76 -93 3 3 -2 19 -10 36 -20 37 -22 71
-4 53 22 -22 29 -12 11 15 -17 26 -17 27 0 20 11 -4 17 -2 17 9 0 17 73 94 89
94 6 0 19 -17 28 -37z m-1867 -13 c27 -23 39 -40 29 -40 -18 0 -99 58 -99 71
0 19 26 7 70 -31z m480 -27 c0 -19 -3 -24 -10 -17 -6 6 -8 18 -4 27 9 24 14
21 14 -10z m-321 -53 l22 -11 -25 -26 c-26 -25 -32 -55 -20 -88 7 -16 86 -58
135 -70 14 -3 38 -16 53 -28 24 -19 27 -28 24 -69 l-3 -46 -80 48 c-45 26 -98
53 -118 61 -23 8 -43 24 -52 41 -7 15 -12 28 -10 28 9 0 165 -88 199 -112 40
-29 56 -34 56 -20 0 5 -49 38 -110 73 -60 35 -110 69 -110 74 0 14 -105 85
-125 85 -7 0 -17 -5 -21 -11 -11 -19 -27 8 -20 35 9 37 58 56 127 52 31 -2 66
-9 78 -16z m174 -40 c8 -7 16 -157 9 -164 -7 -8 -168 65 -180 82 -16 21 -7 63
16 77 37 22 133 25 155 5z m362 10 c-11 -5 -29 -8 -40 -8 -16 0 -15 2 5 8 34
11 60 11 35 0z m-85 -7 c-65 -21 -70 -22 -70 -7 0 10 12 14 43 13 23 0 35 -3
27 -6z m821 -161 c-8 -12 -10 3 -11 60 0 105 14 134 18 35 2 -42 -2 -85 -7
-95z m-1504 138 c3 -11 9 -20 15 -20 5 0 14 -5 21 -10 7 -6 23 -19 37 -31 l25
-20 -25 7 c-14 4 -42 8 -63 10 -51 2 -60 13 -46 52 12 36 28 42 36 12z m682
-15 c-26 -7 -52 -15 -58 -19 -6 -4 -11 -3 -11 3 0 13 48 29 85 29 25 0 22 -2
-16 -13z m-557 -26 c65 -42 61 -55 -7 -22 -30 15 -55 33 -55 40 0 19 8 17 62
-18z m427 -106 c1 -86 -5 -97 -41 -70 -12 10 -18 35 -22 99 -2 47 -2 89 1 92
3 3 18 -5 34 -17 26 -21 28 -26 28 -104z m171 113 c0 -11 -19 -15 -25 -6 -3 5
1 10 9 10 9 0 16 -2 16 -4z m725 -31 c30 -29 31 -43 8 -61 -27 -20 -33 -17
-31 21 1 19 -5 41 -12 50 -21 26 8 18 35 -10z m-780 5 c3 -5 -3 -10 -15 -10
-29 0 -21 -22 11 -31 17 -5 19 -7 6 -8 -26 -1 -57 17 -57 34 0 21 43 34 55 15z
m-553 -47 c21 -8 38 -19 38 -24 0 -5 -24 0 -52 11 -29 11 -63 20 -75 20 -13 0
-23 5 -23 11 0 14 56 5 112 -18z m704 -100 c15 -18 24 -22 29 -13 5 7 19 10
40 6 18 -4 73 2 126 13 176 37 317 54 386 48 36 -4 68 -8 70 -11 7 -6 3 -1023
-5 -1534 l-2 -93 -27 3 -28 3 3 320 c2 176 5 430 8 565 2 135 4 298 4 363 0
113 1 118 23 127 21 8 21 9 -5 9 -15 1 -78 -6 -140 -14 -186 -24 -401 -36
-410 -22 -8 13 14 21 110 38 34 6 62 14 62 18 0 4 -39 1 -87 -6 -49 -8 -106
-12 -128 -10 -66 8 -138 38 -175 73 -20 19 -41 34 -48 34 -8 0 -12 26 -12 89
l0 90 93 -36 c54 -21 101 -45 113 -60z m32 70 c-6 -7 -32 -10 -71 -8 -81 4
-79 4 -72 14 3 5 39 9 79 8 56 -2 72 -5 64 -14z m-18 -33 c0 -5 -5 -10 -11
-10 -5 0 -7 5 -4 10 3 6 8 10 11 10 2 0 4 -4 4 -10z m680 -122 c0 -83 -3 -118
-10 -108 -13 20 -13 230 0 230 6 0 10 -47 10 -122z m-981 36 c15 -19 21 -41
21 -75 0 -48 0 -49 -25 -37 -24 11 -44 52 -31 65 3 3 12 0 21 -7 9 -8 15 -8
15 -2 0 6 -8 17 -19 24 -10 7 -21 23 -25 36 -10 32 17 29 43 -4z m209 -129
c31 -11 55 -25 52 -30 -3 -6 -9 -8 -15 -7 -5 2 -35 9 -65 15 -65 12 -110 42
-110 72 0 36 12 37 47 3 19 -18 59 -42 91 -53z m-208 -5 c19 -19 20 -33 20
-487 0 -258 -3 -566 -7 -685 l-6 -218 -38 0 -37 0 4 177 c2 98 6 363 9 588 5
353 11 634 14 643 3 8 24 -1 41 -18z m100 -5 c16 -15 133 -47 205 -58 17 -2
-6 -5 -50 -5 -66 -2 -89 3 -132 23 -31 14 -53 31 -53 40 0 19 9 19 30 0z m207
-31 c-3 -3 -12 -4 -19 -1 -8 3 -5 6 6 6 11 1 17 -2 13 -5z m518 -187 c-7 -237
-7 -199 -6 -607 1 -195 0 -402 -1 -460 l-3 -105 -76 -3 -76 -3 -5 38 c-9 66
-1 1294 8 1303 10 9 144 29 156 23 4 -2 5 -86 3 -186z m41 -329 c-3 -288 -6
-629 -6 -758 -1 -169 -5 -228 -12 -210 -6 16 -8 276 -4 755 3 402 5 731 6 733
0 1 5 2 10 2 7 0 9 -173 6 -522z m-678 470 c41 -9 88 -9 205 0 84 7 162 15
174 18 l22 6 0 -669 0 -668 -127 0 c-70 1 -187 2 -259 3 l-133 2 0 668 c0 368
3 671 6 674 3 4 17 0 32 -8 15 -7 51 -19 80 -26z m796 -768 c-2 -173 -6 -394
-10 -490 -4 -96 -7 -223 -8 -283 -1 -65 -5 -106 -11 -104 -9 3 -10 255 -1 642
2 83 4 348 6 590 2 242 6 445 9 450 9 16 18 -458 15 -805z m596 799 c0 -6 -7
-9 -15 -5 -23 8 -66 -12 -72 -34 -3 -11 -14 -20 -24 -20 -23 0 -24 13 -4 30 8
7 15 19 15 26 0 10 14 14 50 14 30 0 50 -4 50 -11z m-946 -682 c0 -369 -3
-679 -7 -687 -3 -8 -8 -24 -10 -35 -7 -29 -8 136 -6 745 1 300 1 564 0 588 -2
42 4 62 17 62 4 0 7 -303 6 -673z m946 645 c0 -5 -11 -14 -25 -20 -55 -25 -35
-102 26 -102 38 0 28 -29 -13 -37 -19 -4 -26 -9 -19 -16 15 -15 59 1 77 28 13
20 14 28 2 51 -17 35 -38 43 -38 14 0 -27 -33 -24 -38 3 -6 30 27 57 68 57 49
0 81 -34 88 -95 6 -57 -20 -115 -50 -107 -10 2 -18 0 -18 -5 0 -17 -55 -40
-87 -36 -40 5 -45 -14 -5 -20 26 -4 26 -4 -4 -6 -17 0 -47 6 -66 14 -34 14
-98 76 -98 95 0 18 33 11 57 -12 31 -29 41 -16 14 18 -15 19 -21 41 -21 75 0
26 3 50 8 52 4 3 7 -11 7 -31 0 -26 4 -37 15 -37 11 0 14 9 12 32 -3 25 0 32
10 28 9 -4 19 4 26 20 14 30 72 60 72 37z m-177 -99 c6 -34 -1 -46 -10 -15 -3
12 -9 22 -14 22 -5 0 -9 5 -9 10 0 23 28 8 33 -17z m-323 -177 c0 -2 -9 -6
-20 -9 -11 -3 -18 -1 -14 4 5 9 34 13 34 5z m54 -63 c48 -45 51 -52 57 -108 3
-33 9 -74 13 -91 8 -30 7 -31 -34 -38 -42 -7 -119 18 -135 43 -4 7 10 3 31 -8
40 -22 114 -29 114 -11 0 6 -17 10 -37 11 -45 1 -97 28 -102 55 -2 10 -9 23
-17 29 -18 14 -30 139 -12 133 7 -3 14 -17 16 -31 2 -15 9 -27 16 -27 16 0 30
44 16 48 -22 8 -8 36 19 41 2 1 27 -20 55 -46z m106 -67 c0 -3 -4 -8 -10 -11
-5 -3 -10 -1 -10 4 0 6 5 11 10 11 6 0 10 -2 10 -4z m-2033 -872 c-3 -3 -12
-4 -19 -1 -8 3 -5 6 6 6 11 1 17 -2 13 -5z m833 -232 c-4 -95 -10 -175 -11
-176 -9 -7 -89 7 -89 16 0 5 15 6 35 2 28 -5 35 -3 35 10 0 12 -10 16 -40 16
-39 0 -40 0 -37 35 2 30 5 33 25 28 13 -3 22 -1 22 6 0 6 -9 11 -20 11 -11 0
-20 7 -20 15 0 8 9 15 20 15 11 0 23 1 28 3 4 1 8 -13 9 -31 1 -28 -3 -35 -30
-46 -27 -12 -29 -15 -14 -21 10 -4 29 -3 43 3 21 10 24 18 25 74 1 64 4 134 7
198 1 21 6 30 11 25 6 -6 7 -76 1 -183z m-586 157 c-7 -12 -354 -12 -354 1 0
6 64 11 158 12 169 3 205 1 196 -13z m663 15 c-3 -3 -12 -4 -19 -1 -8 3 -5 6
6 6 11 1 17 -2 13 -5z m616 -1 c-7 -2 -19 -2 -25 0 -7 3 -2 5 12 5 14 0 19 -2
13 -5z m70 0 c-7 -2 -19 -2 -25 0 -7 3 -2 5 12 5 14 0 19 -2 13 -5z m-1876 -9
c-3 -3 -12 -4 -19 -1 -8 3 -5 6 6 6 11 1 17 -2 13 -5z m941 -54 c1 -71 -9
-189 -15 -172 -6 14 -83 17 -83 2 0 -5 -13 -10 -29 -10 -27 0 -28 1 -18 25 11
22 17 25 62 22 28 -1 50 2 50 8 0 6 -27 10 -60 11 -73 1 -135 13 -135 26 0 6
9 7 23 3 41 -13 197 -18 197 -7 0 7 -29 12 -72 14 l-73 3 3 32 c3 30 1 33 -40
44 -26 7 -71 9 -113 5 -38 -3 -116 -6 -172 -7 -71 -1 -103 -5 -103 -12 0 -7
-4 -6 -9 2 -7 11 -38 13 -166 9 -116 -4 -154 -3 -145 6 7 8 114 12 345 14 192
2 335 8 335 13 0 5 -17 9 -37 10 -26 0 -32 3 -20 7 10 4 75 7 146 7 l128 0 1
-55z m140 30 c0 -16 -4 -32 -9 -36 -5 -3 -7 -14 -4 -25 5 -15 1 -19 -20 -19
-21 0 -26 -4 -21 -16 4 -10 1 -14 -6 -12 -7 3 -14 23 -16 46 -3 34 0 41 12 36
8 -3 12 -12 9 -20 -3 -8 1 -14 11 -14 9 0 16 4 16 9 0 5 3 16 6 25 5 13 -1 16
-26 16 -27 0 -30 2 -20 14 6 8 17 13 25 10 7 -3 16 -1 20 5 12 20 22 11 23
-19z m-980 3 c-10 -2 -28 -2 -40 0 -13 2 -5 4 17 4 22 1 32 -1 23 -4z m1544
-32 c4 -41 22 -51 33 -19 7 21 8 20 12 -10 5 -39 -11 -62 -41 -61 -20 0 -20 1
2 10 23 9 22 29 0 29 -19 0 -47 31 -41 46 4 11 -14 14 -99 14 -58 0 -160 3
-228 7 -85 4 -121 3 -117 -4 4 -6 42 -14 84 -19 43 -4 69 -9 59 -12 -11 -2
-52 -1 -93 3 -69 6 -73 8 -73 31 l0 25 250 -3 249 -2 3 -35z m175 33 c-3 -3
-12 -4 -19 -1 -8 3 -5 6 6 6 11 1 17 -2 13 -5z m170 0 c-3 -3 -12 -4 -19 -1
-8 3 -5 6 6 6 11 1 17 -2 13 -5z m257 -9 c4 -12 -5 -15 -49 -15 -44 0 -53 3
-49 15 4 10 20 15 49 15 29 0 45 -5 49 -15z m166 5 c0 -5 -9 -10 -21 -10 -11
0 -17 5 -14 10 3 6 13 10 21 10 8 0 14 -4 14 -10z m90 0 c0 -6 -7 -13 -15 -16
-20 -8 -48 3 -40 16 8 13 55 13 55 0z m405 -10 c3 -5 -1 -10 -10 -10 -9 0 -13
5 -10 10 3 6 8 10 10 10 2 0 7 -4 10 -10z m-1045 -14 c14 -2 -12 -4 -57 -5
-46 0 -83 2 -83 7 0 6 81 6 140 -2z m130 -11 c0 -9 -6 -12 -16 -8 -13 5 -13 7
-2 14 17 11 18 11 18 -6z m-1246 -25 c18 -18 18 -20 3 -26 -9 -3 -25 -3 -34 1
-31 14 -54 15 -71 5 -14 -8 -12 -9 11 -10 35 0 32 -23 -3 -28 -32 -5 -101 19
-97 32 2 6 19 22 38 34 29 20 42 23 84 17 29 -3 58 -14 69 -25z m1671 20 c-4
-6 -46 -9 -98 -8 l-92 2 80 6 c44 3 88 7 98 8 10 1 15 -2 12 -8z m-937 -7
c-21 -2 -57 -2 -80 0 -24 2 -7 4 37 4 44 0 63 -2 43 -4z m92 -3 c12 -8 11 -10
-7 -10 -13 0 -23 5 -23 10 0 13 11 13 30 0z m610 0 c0 -5 -4 -10 -9 -10 -6 0
-13 5 -16 10 -3 6 1 10 9 10 9 0 16 -4 16 -10z m-1917 -7 c-13 -2 -35 -2 -50
0 -16 2 -5 4 22 4 28 0 40 -2 28 -4z m77 -8 c0 -8 -3 -15 -6 -15 -3 0 -12 7
-20 15 -14 13 -13 15 5 15 12 0 21 -6 21 -15z m184 -12 c-4 -16 -8 -29 -9 -31
-2 -2 -31 -7 -65 -12 -35 -5 -67 -13 -73 -19 -11 -11 -37 -4 -37 10 0 5 17 10
38 11 27 1 22 3 -23 8 l-60 7 77 1 c42 1 79 6 82 11 3 4 20 12 38 16 32 8 31
9 -22 15 l-55 7 58 1 57 2 -6 -27z m1366 15 c0 -5 -31 -8 -69 -8 -38 0 -76 -3
-85 -6 -10 -4 -16 -1 -16 9 0 12 16 14 85 13 47 0 85 -4 85 -8z m-624 -8 c46
0 84 -4 84 -9 0 -5 -42 -8 -95 -6 -97 4 -127 -5 -78 -23 23 -9 24 -11 8 -11
-12 -1 -26 -6 -33 -13 -9 -9 -12 -9 -13 3 -4 44 8 72 27 65 9 -3 54 -6 100 -6z
m1139 -10 c6 -9 -175 -4 -184 6 -2 2 37 4 87 4 50 0 94 -4 97 -10z m220 0 c-3
-5 -28 -10 -56 -10 -27 0 -49 5 -49 10 0 6 25 10 56 10 34 0 53 -4 49 -10z
m61 -5 c5 -12 26 -15 98 -16 73 -1 83 -3 51 -9 -22 -4 -72 -5 -111 -3 -71 6
-75 8 -65 41 3 8 23 -1 27 -13z m87 8 c-7 -2 -21 -2 -30 0 -10 3 -4 5 12 5 17
0 24 -2 18 -5z m115 0 c-10 -2 -26 -2 -35 0 -10 3 -2 5 17 5 19 0 27 -2 18 -5z
m-2603 -13 c-3 -5 -24 -10 -46 -10 -21 0 -39 5 -39 10 0 6 21 10 46 10 27 0
43 -4 39 -10z m1263 3 c-16 -2 -40 -2 -55 0 -16 2 -3 4 27 4 30 0 43 -2 28 -4z
m293 -13 l49 0 0 -35 c0 -19 -5 -35 -10 -35 -5 0 -9 6 -7 12 1 9 -14 12 -55 9
-37 -2 -58 1 -58 8 0 7 22 11 56 11 36 0 53 4 49 11 -4 6 -28 10 -54 9 -61 -2
-63 -2 -56 11 4 6 14 8 22 5 8 -3 37 -6 64 -6z m349 -3 c0 -7 -9 -13 -20 -14
-25 -2 -27 14 -2 20 9 3 18 5 20 6 1 0 2 -5 2 -12z m-1122 -20 c5 -24 -15 -21
-21 4 -3 13 -1 19 6 16 7 -2 13 -11 15 -20z m192 13 c0 -5 -4 -10 -10 -10 -5
0 -10 5 -10 10 0 6 5 10 10 10 6 0 10 -4 10 -10z m310 -4 c19 -1 -27 -3 -102
-4 -126 -2 -172 -11 -132 -26 9 -3 69 -6 135 -6 73 0 119 -4 119 -10 0 -5 7
-10 15 -10 8 0 15 -4 15 -10 0 -14 -19 -13 -34 3 -8 8 -56 13 -142 15 -71 2
-129 5 -130 5 -1 1 -4 13 -7 27 l-6 25 117 -3 c64 -1 133 -4 152 -6z m945 -6
c94 -4 190 -8 214 -9 24 -1 42 -4 38 -7 -10 -10 -411 -4 -421 6 -6 6 -32 10
-59 10 -27 0 -46 4 -42 9 3 5 27 7 53 4 26 -3 124 -9 217 -13z m-2265 -6 c0
-2 -19 -4 -42 -4 -26 0 -38 4 -30 8 12 8 72 4 72 -4z m1475 6 c3 -5 1 -10 -4
-10 -6 0 -11 5 -11 10 0 6 2 10 4 10 3 0 8 -4 11 -10z m-997 -31 c17 -6 32
-17 32 -25 0 -19 -75 -19 -132 0 -70 23 -83 24 -83 1 0 -17 -8 -20 -53 -23
-55 -3 -114 20 -96 38 26 25 259 31 332 9z m462 -10 c0 -5 -4 -9 -10 -9 -5 0
-10 7 -10 16 0 8 5 12 10 9 6 -3 10 -10 10 -16z m485 11 c-3 -5 -12 -7 -20 -3
-21 7 -19 13 6 13 11 0 18 -4 14 -10z m303 -12 c-5 -15 -23 -11 -26 6 -2 11 2
14 13 10 9 -4 14 -11 13 -16z m882 12 c0 -13 -11 -13 -30 0 -12 8 -11 10 8 10
12 0 22 -4 22 -10z m-2535 -9 c3 -6 -11 -13 -32 -17 -79 -14 -86 -47 -8 -38
50 6 55 5 55 -13 0 -31 -29 -50 -97 -64 -75 -15 -134 -2 -159 37 -15 23 -15
26 1 44 9 10 31 22 49 26 17 3 36 10 41 14 22 18 140 26 150 11z m2255 -12 c0
-12 -87 -12 -94 0 -3 4 -4 10 -1 12 7 8 95 -3 95 -12z m-210 0 c0 -9 -120 -19
-222 -19 -65 0 -88 3 -88 13 0 10 35 13 155 12 85 0 155 -3 155 -6z m434 -1
c-8 -12 -204 -10 -204 2 0 7 37 10 104 8 58 -1 103 -6 100 -10z m-971 -5 c-7
-2 -21 -2 -30 0 -10 3 -4 5 12 5 17 0 24 -2 18 -5z m-1453 -13 c12 -8 11 -10
-7 -10 -13 0 -23 5 -23 10 0 13 11 13 30 0z m777 -22 c-6 -4 -8 -10 -4 -14 7
-8 348 -6 356 2 14 13 -23 19 -124 19 -63 0 -108 3 -102 7 7 4 77 8 157 7 134
0 142 -1 113 -14 -18 -8 -33 -21 -33 -30 0 -15 -13 -17 -102 -14 -152 5 -268
0 -268 -11 0 -6 52 -10 137 -10 96 0 134 -3 126 -11 -6 -6 -57 -9 -137 -7
-115 3 -126 1 -126 -14 0 -10 -5 -18 -11 -18 -8 0 -10 15 -5 46 3 26 6 58 6
71 0 20 2 22 14 11 10 -9 10 -15 3 -20z m-1122 12 c-3 -5 -20 -10 -36 -10 -18
0 -28 4 -24 10 3 6 20 10 36 10 18 0 28 -4 24 -10z m595 -6 c0 -2 -12 -4 -26
-4 -14 0 -23 4 -20 9 6 8 46 4 46 -5z m1233 -5 c20 -5 37 -14 37 -19 0 -4 -35
-11 -77 -14 -43 -3 -108 -10 -146 -16 -52 -8 -75 -7 -100 3 l-32 14 25 13 c14
7 39 17 55 21 46 11 196 10 238 -2z m117 3 c0 -5 -13 -7 -30 -4 -16 2 -30 6
-30 8 0 2 14 4 30 4 17 0 30 -4 30 -8z m380 -8 c0 -13 -19 -15 -142 -13 -79 1
-147 5 -153 8 -5 3 42 8 105 12 63 3 132 6 153 7 28 2 37 -2 37 -14z m107 -6
c-3 -8 -6 -5 -6 6 -1 11 2 17 5 13 3 -3 4 -12 1 -19z m363 5 c30 -9 32 -11 16
-18 -10 -5 -32 -3 -50 3 -19 7 -90 12 -164 12 -86 0 -132 4 -132 11 0 13 280
7 330 -8z m-2389 -5 c-1 -5 -3 -8 -6 -8 -54 0 -60 2 -40 10 23 10 46 9 46 -2z
m184 -9 c59 3 31 -16 -32 -21 -29 -3 -53 -4 -53 -2 0 1 -3 10 -7 20 -5 15 -2
16 23 9 16 -4 47 -7 69 -6z m315 -13 c25 -1 38 -17 39 -45 1 -12 -2 -12 -11
-3 -18 18 -51 15 -44 -4 3 -8 2 -13 -3 -9 -17 10 -71 13 -77 4 -10 -16 -24 -9
-24 12 0 19 4 20 39 14 22 -4 42 -2 45 3 7 12 -65 26 -91 18 -10 -3 -45 1 -78
8 -59 14 -58 14 60 9 66 -3 131 -6 145 -7z m-430 -26 c0 -25 -4 -30 -25 -30
-30 0 -33 16 -5 23 11 3 20 9 19 14 -2 13 0 23 6 23 3 0 5 -13 5 -30z m2065 9
c13 -13 -2 -24 -64 -44 -71 -23 -213 -18 -255 10 -27 18 -27 19 -10 33 19 14
35 13 193 -4 44 -5 56 -3 63 10 9 17 52 13 73 -5z m-2185 -1 l-25 -11 25 -7
c14 -5 18 -9 10 -10 -48 -7 -70 -8 -70 -4 0 14 39 42 60 43 l25 0 -25 -11z
m50 2 c0 -5 -5 -10 -11 -10 -5 0 -7 5 -4 10 3 6 8 10 11 10 2 0 4 -4 4 -10z
m1760 1 c0 -17 -14 -18 -75 -6 l-60 12 68 2 c37 0 67 -3 67 -8z m560 -1 c0
-12 -49 -12 -105 -1 -36 8 -33 9 33 10 42 1 72 -3 72 -9z m-1981 -24 c36 -37
-54 -75 -145 -61 -47 7 -59 22 -21 27 25 3 25 22 -1 24 -9 1 -24 2 -31 3 -21
1 -1 18 29 24 45 10 153 -2 169 -17z m1193 14 c100 -28 4 -97 -106 -76 -41 8
-49 26 -11 26 14 0 25 5 25 11 0 8 -20 10 -69 5 -38 -4 -81 -4 -95 0 -26 6
-26 7 -8 20 11 7 54 15 98 17 43 1 90 4 104 5 14 1 41 -3 62 -8z m-485 -6 c-3
-3 -12 -4 -19 -1 -8 3 -5 6 6 6 11 1 17 -2 13 -5z m659 -19 c14 -3 31 -2 37 4
8 6 20 3 36 -10 l23 -19 -55 0 c-74 0 -117 10 -117 26 0 10 8 13 25 9 14 -3
37 -7 51 -10z m679 6 c17 -1 25 -5 20 -10 -11 -9 -247 -2 -241 8 4 5 56 6 221
2z m-2280 -22 c0 -11 -32 -14 -180 -16 -124 -1 -169 2 -145 8 19 5 93 8 164 7
94 -1 131 2 134 11 5 16 27 8 27 -10z m1105 0 c0 -5 -21 -8 -47 -8 -34 2 -39
3 -18 6 17 3 34 9 39 13 10 10 26 4 26 -11z m-382 -6 c-21 -2 -55 -2 -75 0
-21 2 -4 4 37 4 41 0 58 -2 38 -4z m89 1 c-3 -3 -12 -4 -19 -1 -8 3 -5 6 6 6
11 1 17 -2 13 -5z m191 1 c-10 -10 -128 -14 -128 -4 0 5 30 9 67 9 36 0 64 -2
61 -5z m1170 -8 c23 -2 41 -7 40 -12 -2 -6 -16 -9 -33 -7 -16 2 -65 5 -108 8
-44 3 -75 10 -71 15 3 5 33 7 67 4 34 -4 81 -7 105 -8z m-1523 -17 c160 -6
163 -7 54 -8 -140 -2 -269 8 -269 20 0 5 10 6 23 2 12 -4 99 -10 192 -14z
m-959 0 c41 0 63 -4 59 -10 -10 -17 -119 -12 -141 6 -17 14 -17 15 -1 10 10
-3 48 -6 83 -6z m613 1 c9 -6 22 -6 32 -1 9 5 20 6 24 2 10 -10 29 -9 37 3 5
6 8 3 8 -7 0 -21 -44 -53 -60 -43 -6 3 -8 10 -5 15 3 5 -4 7 -16 5 -13 -3 -27
2 -33 11 -10 13 -15 13 -44 -1 -17 -9 -40 -14 -50 -12 -13 4 -13 5 4 6 12 0
27 8 34 16 14 17 47 19 69 6z m919 2 c-10 -2 -28 -2 -40 0 -13 2 -5 4 17 4 22
1 32 -1 23 -4z m-1249 -9 c33 -4 61 -10 61 -15 0 -4 -51 -9 -114 -11 -100 -3
-116 -1 -125 15 -10 15 -6 17 52 17 35 0 92 -3 126 -6z m891 2 c0 -11 -13 -36
-19 -36 -4 0 -7 9 -7 20 0 11 6 20 13 20 7 0 13 -2 13 -4z m155 -11 c-43 -12
-52 -12 -65 1 -12 12 -6 14 50 13 l65 0 -50 -14z m793 -1 c57 -3 101 -9 97
-12 -3 -3 -25 -5 -48 -3 -23 2 -116 4 -206 5 -109 1 -166 5 -168 12 -4 11 116
11 325 -2z m-892 -8 c8 -8 14 -20 14 -27 0 -7 -9 -4 -20 9 -29 31 -24 48 6 18z
m1199 4 c3 -5 -2 -10 -12 -10 -20 0 -43 -18 -43 -32 0 -5 11 -13 24 -18 19 -7
22 -14 18 -35 l-5 -27 -78 4 c-100 6 -148 42 -105 78 44 36 186 64 201 40z
m-1612 -7 c-13 -2 -33 -2 -45 0 -13 2 -3 4 22 4 25 0 35 -2 23 -4z m947 -5 c0
-4 -19 -8 -42 -8 -26 0 -38 3 -30 8 17 11 72 11 72 0z m744 -4 c8 -21 9 -20
-41 -29 -29 -4 -43 -3 -43 4 0 6 9 11 20 11 11 0 23 7 26 15 8 20 30 19 38 -1z
m-2427 -41 c-3 -10 -5 -2 -5 17 0 19 2 27 5 18 2 -10 2 -26 0 -35z m896 40
c-23 -2 -64 -2 -90 0 -26 2 -7 3 42 3 50 0 71 -1 48 -3z m485 -8 c39 -12 52
-20 52 -35 0 -32 -38 -43 -149 -44 -122 -1 -132 7 -75 59 44 40 86 45 172 20z
m85 8 c-7 -2 -19 -2 -25 0 -7 3 -2 5 12 5 14 0 19 -2 13 -5z m80 0 c-13 -2
-33 -2 -45 0 -13 2 -3 4 22 4 25 0 35 -2 23 -4z m-1587 -10 c-11 -12 -84 -14
-91 -3 -4 6 14 10 46 10 29 0 49 -3 45 -7z m389 -3 c7 -11 -55 -15 -192 -11
-64 2 -93 0 -93 -8 0 -7 45 -11 143 -12 l142 -2 -138 -8 c-96 -6 -145 -13
-160 -24 -26 -18 -46 -20 -29 -3 7 7 12 24 12 38 0 15 3 30 7 33 11 11 301 8
308 -3z m1629 -10 c-12 -12 -502 -22 -509 -10 -3 6 50 11 127 13 325 7 392 7
382 -3z m76 0 c0 -5 -9 -10 -20 -10 -11 0 -20 5 -20 10 0 6 9 10 20 10 11 0
20 -4 20 -10z m-1500 -16 c31 -13 44 -14 53 -5 18 18 134 14 141 -4 7 -18 -12
-52 -34 -61 -8 -4 -85 -9 -171 -11 l-156 -5 -6 23 c-7 27 7 47 48 65 41 18 77
17 125 -2z m327 5 c-11 -7 -32 -7 -60 -1 l-42 10 60 1 c46 0 56 -2 42 -10z
m103 1 c0 -5 -4 -10 -9 -10 -6 0 -13 5 -16 10 -3 6 1 10 9 10 9 0 16 -4 16
-10z m100 -15 c0 -16 -9 -19 -34 -9 -25 9 -19 24 9 24 16 0 25 -6 25 -15z
m-153 -11 c-3 -3 -12 -4 -19 -1 -8 3 -5 6 6 6 11 1 17 -2 13 -5z m1163 -6 c0
-10 19 -9 -317 -14 -155 -2 -290 0 -300 4 -10 4 70 9 177 12 283 8 440 7 440
-2z m-1085 -8 c3 -5 -1 -10 -9 -10 -9 0 -16 5 -16 10 0 6 4 10 9 10 6 0 13 -4
16 -10z m-707 -7 c-21 -2 -55 -2 -75 0 -21 2 -4 4 37 4 41 0 58 -2 38 -4z
m-338 -23 c0 -5 24 -10 54 -10 30 0 58 -5 62 -11 4 -8 -5 -9 -32 -5 -22 3 -60
8 -86 12 -26 3 -45 10 -42 15 7 12 44 11 44 -1z m326 0 c30 0 54 -4 54 -8 0
-12 -183 -2 -195 10 -7 7 6 9 39 4 27 -3 73 -6 102 -6z m1569 -4 c11 -2 -95
-4 -235 -4 -140 0 -247 2 -238 6 17 7 433 5 473 -2z m-820 -6 c4 -6 -7 -10
-25 -10 -18 0 -29 4 -25 10 3 6 15 10 25 10 10 0 22 -4 25 -10z m130 0 c4 -6
-9 -10 -32 -9 -30 0 -34 2 -18 9 27 12 43 12 50 0z m838 3 c-13 -2 -35 -2 -50
0 -16 2 -5 4 22 4 28 0 40 -2 28 -4z m110 0 c-7 -2 -19 -2 -25 0 -7 3 -2 5 12
5 14 0 19 -2 13 -5z m-1973 -19 c0 -2 -7 -4 -15 -4 -8 0 -15 4 -15 10 0 5 7 7
15 4 8 -4 15 -8 15 -10z m653 9 c-7 -2 -19 -2 -25 0 -7 3 -2 5 12 5 14 0 19
-2 13 -5z m47 -298 c0 -8 -4 -15 -9 -15 -13 0 -22 16 -14 24 11 11 23 6 23 -9z"/>
<g>
<path d="M1518 4414 l5 -47 -52 5 c-49 5 -51 4 -51 -20 0 -20 3 -23 12 -14 7
7 29 12 49 12 35 0 37 -2 41 -35 2 -19 0 -42 -5 -50 -6 -12 -2 -15 17 -15 23
0 24 3 23 48 -2 45 -1 47 26 50 16 2 34 -1 41 -7 7 -6 16 -8 19 -4 11 10 8 53
-3 53 -5 0 -10 -5 -10 -11 0 -6 -16 -9 -37 -7 -38 3 -38 3 -37 46 1 37 -2 42
-21 42 -21 0 -22 -4 -17 -46z"/>
</g>
<g>
<path d="M1408 3998 c17 -17 17 -205 0 -211 -7 -3 8 -6 34 -6 l47 -1 -5 33
c-4 25 2 39 25 67 l30 35 55 -55 c31 -30 56 -63 56 -73 0 -15 5 -18 23 -13 12
3 33 6 47 6 19 0 21 3 12 12 -8 8 -12 48 -12 115 l0 103 -26 0 -26 0 6 -77 7
-78 -56 59 -57 59 -44 -44 -44 -43 0 62 0 62 -42 0 c-33 0 -39 -3 -30 -12z"/>
</g>
<g>
<path d="M1568 3734 c-11 -10 -10 -36 2 -54 9 -14 110 -24 110 -11 -1 23 -18
31 -45 21 -37 -14 -53 -7 -57 25 -2 15 -6 23 -10 19z"/>
</g>
<g>
<path d="M1756 3723 c-9 -9 -7 -33 3 -33 12 0 22 28 12 34 -5 3 -11 3 -15 -1z"/>
</g>
<g>
<path d="M1438 3713 c6 -2 18 -2 25 0 6 3 1 5 -13 5 -14 0 -19 -2 -12 -5z"/>
</g>
<g>
<path d="M1530 3700 c0 -11 5 -20 10 -20 6 0 10 9 10 20 0 11 -4 20 -10 20 -5
0 -10 -9 -10 -20z"/>
</g>
<g>
<path d="M1390 3699 c0 -15 33 -40 47 -35 7 3 23 0 33 -6 16 -10 23 -10 37 5
16 15 16 17 1 17 -9 0 -18 4 -20 9 -4 11 -98 21 -98 10z"/>
</g>
<g>
<path d="M1710 3690 c-13 -8 -13 -10 2 -10 9 0 20 5 23 10 8 13 -5 13 -25 0z"/>
</g>
<g>
<path d="M1221 3483 c-26 -50 -6 -103 39 -103 27 0 30 3 30 30 0 19 -7 33 -21
40 -11 6 -24 21 -28 33 l-8 21 -12 -21z m49 -75 c0 -12 -14 -10 -28 4 -19 19
-14 29 8 16 11 -7 20 -16 20 -20z"/>
</g>
<g>
<path d="M1226 3271 c-15 -16 -16 -25 -7 -58 15 -53 22 -61 56 -65 27 -3 30 0
33 29 2 24 -3 39 -22 58 -14 14 -29 32 -34 40 -7 14 -10 13 -26 -4z m56 -76
c12 -16 9 -25 -7 -18 -9 3 -23 20 -32 37 l-16 31 24 -20 c13 -11 27 -24 31
-30z"/>
</g>
<g>
<path d="M1507 3364 c-4 -4 -4 -10 -1 -15 6 -10 34 0 34 12 0 10 -24 12 -33 3z"/>
</g>
<g>
<path d="M1500 3280 c0 -5 7 -10 15 -10 8 0 15 5 15 10 0 6 -7 10 -15 10 -8 0
-15 -4 -15 -10z"/>
</g>
<g>
<path d="M1540 3110 c0 -22 20 -26 38 -8 19 19 14 28 -13 28 -18 0 -25 -5 -25
-20z"/>
</g>
<g>
<path d="M1555 3040 c-3 -5 -1 -10 4 -10 6 0 11 5 11 10 0 6 -2 10 -4 10 -3 0
-8 -4 -11 -10z"/>
</g>
<g>
<path d="M1555 3000 c3 -5 8 -10 11 -10 2 0 4 5 4 10 0 6 -5 10 -11 10 -5 0
-7 -4 -4 -10z"/>
</g>
<g>
<path d="M1543 2954 c-9 -23 13 -40 32 -24 8 7 15 19 15 26 0 19 -39 18 -47
-2z"/>
</g>
<g>
<path d="M1407 2803 c-16 -16 -4 -24 30 -21 48 4 57 28 11 28 -19 0 -38 -3
-41 -7z"/>
</g>
<g>
<path d="M1360 2756 c0 -10 14 -16 43 -19 33 -3 29 -4 -20 -5 -67 -2 -83 -15
-32 -26 75 -15 99 -6 113 42 7 21 5 22 -48 22 -42 0 -56 -4 -56 -14z"/>
</g>
<g>
<path d="M1578 2703 c6 -2 18 -2 25 0 6 3 1 5 -13 5 -14 0 -19 -2 -12 -5z"/>
</g>
<g>
<path d="M1540 2628 c0 -4 30 -8 66 -8 36 0 63 4 60 9 -7 11 -126 11 -126 -1z"/>
</g>
<g>
<path d="M2136 2321 c-23 -26 -6 -74 25 -69 33 5 46 32 29 62 -16 31 -31 33
-54 7z m34 -31 c0 -5 -4 -10 -10 -10 -5 0 -10 5 -10 10 0 6 5 10 10 10 6 0 10
-4 10 -10z"/>
</g>
<g>
<path d="M1665 2400 c3 -5 10 -10 16 -10 5 0 9 5 9 10 0 6 -7 10 -16 10 -8 0
-12 -4 -9 -10z"/>
</g>
<g>
<path d="M1720 2400 c0 -5 5 -10 10 -10 6 0 10 5 10 10 0 6 -4 10 -10 10 -5 0
-10 -4 -10 -10z"/>
</g>
<g>
<path d="M1822 1889 c-14 -13 -22 -32 -22 -54 0 -29 5 -37 31 -51 30 -15 33
-15 52 5 l21 21 -22 23 c-12 13 -22 33 -22 45 0 30 -14 34 -38 11z m38 -80 c0
-5 -7 -9 -15 -9 -8 0 -15 7 -15 15 0 9 6 12 15 9 8 -4 15 -10 15 -15z"/>
</g>
<g>
<path d="M1812 1706 c-25 -33 -26 -39 -11 -69 16 -29 26 -35 54 -29 37 7 42
40 12 66 -14 11 -27 30 -29 41 -3 17 -5 17 -26 -9z m48 -67 c0 -18 -35 -5 -38
14 -3 16 -1 17 17 7 12 -6 21 -15 21 -21z"/>
</g>
<g>
<path d="M1808 1159 c-30 -17 -22 -56 13 -75 29 -14 33 -14 48 0 13 14 13 19
3 34 -7 9 -15 25 -18 35 -7 19 -21 21 -46 6z m30 -31 c7 -7 12 -18 12 -25 0
-11 -5 -11 -20 -3 -11 6 -20 17 -20 25 0 18 12 19 28 3z"/>
</g>
<g>
<path d="M1576 2201 c-8 -13 1 -71 15 -87 6 -8 22 -14 35 -14 19 0 24 5 24 25
0 14 -9 30 -20 37 -11 7 -20 21 -20 30 0 18 -25 25 -34 9z m39 -61 c3 -5 1
-10 -4 -10 -6 0 -11 5 -11 10 0 6 2 10 4 10 3 0 8 -4 11 -10z"/>
</g>
<g>
<path d="M1382 2028 c-15 -15 -15 -43 -2 -68 10 -19 64 -43 74 -33 16 16 3 49
-25 65 -17 10 -28 22 -24 27 9 15 -10 22 -23 9z m44 -65 c-8 -8 -36 5 -36 17
0 7 6 7 21 0 11 -7 18 -14 15 -17z"/>
</g>
<g>
<path d="M1232 1388 c-18 -18 -15 -56 6 -67 9 -5 28 -11 42 -12 20 -3 26 1 28
21 2 15 -6 34 -18 48 -23 25 -40 28 -58 10z m46 -30 c16 -16 15 -28 -2 -28
-17 0 -38 24 -29 33 9 10 17 9 31 -5z"/>
</g>
<g>
<path d="M1238 1225 c-10 -13 -18 -32 -18 -43 0 -25 44 -65 67 -60 26 5 28 41
3 63 -11 10 -20 29 -20 42 0 29 -10 29 -32 -2z m30 -47 c7 -7 12 -19 12 -27 0
-11 -4 -10 -20 4 -21 19 -26 35 -12 35 4 0 13 -5 20 -12z"/>
</g>
<g>
<path d="M1404 1189 c-19 -21 -18 -21 19 -56 66 -60 106 -22 43 42 -19 19 -37
35 -39 35 -2 0 -12 -9 -23 -21z m52 -33 c10 -8 15 -18 11 -22 -4 -4 -17 2 -29
14 -25 25 -13 30 18 8z"/>
</g>
<g>
<path d="M2773 2215 c23 -36 37 -44 37 -22 0 13 -40 57 -53 57 -3 0 4 -16 16
-35z"/>
</g>
<g>
<path d="M2602 2161 c2 -7 7 -12 11 -12 12 1 9 15 -3 20 -7 2 -11 -2 -8 -8z"/>
</g>
<g>
<path d="M2785 2139 c-10 -15 3 -25 16 -12 7 7 7 13 1 17 -6 3 -14 1 -17 -5z"/>
</g>
<g>
<path d="M2532 2078 c3 -7 13 -15 24 -17 16 -3 17 -1 5 13 -16 19 -34 21 -29
4z"/>
</g>
<g>
<path d="M2150 1871 c0 -11 10 -31 23 -45 23 -26 77 -46 77 -28 0 5 -11 13
-26 16 -14 4 -34 22 -46 41 -23 40 -28 43 -28 16z"/>
</g>
<g>
<path d="M800 920 c0 -5 15 -10 34 -10 18 0 54 -3 80 -6 38 -6 46 -4 46 10 0
13 -13 16 -80 16 -47 0 -80 -4 -80 -10z"/>
</g>
<g>
<path d="M850 880 c0 -5 25 -10 55 -10 30 0 55 5 55 10 0 6 -25 10 -55 10 -30
0 -55 -4 -55 -10z"/>
</g>
</g>
<g>
<path d="M1740 4690 c0 -5 14 -7 33 -3 45 8 47 13 4 13 -20 0 -37 -4 -37 -10z"/>
</g>
<g>
<path d="M2801 3969 c-85 -25 -176 -118 -187 -191 -4 -21 -12 -38 -18 -38 -29
0 -121 -54 -156 -91 -44 -48 -53 -79 -44 -167 8 -77 45 -133 114 -172 37 -20
58 -25 115 -24 71 1 165 32 165 53 0 6 -21 1 -47 -10 -65 -28 -157 -28 -215 2
-62 32 -83 59 -99 128 -8 36 4 130 21 171 13 28 72 70 100 70 10 0 22 5 25 10
10 16 61 12 83 -7 31 -27 37 -65 14 -93 -17 -21 -22 -23 -36 -11 -9 8 -15 20
-12 28 3 7 -1 13 -9 13 -22 0 -18 -43 5 -57 39 -25 100 22 100 78 0 25 -48 79
-70 79 -29 0 -9 76 36 134 52 68 179 109 272 88 32 -8 42 -7 39 1 -5 15 -150
19 -196 6z"/>
</g>
<g>
<path d="M2845 3941 c-3 -6 22 -9 60 -9 36 0 62 4 59 9 -7 12 -111 12 -119 0z"/>
</g>
<g>
<path d="M2755 3910 c-3 -5 1 -10 9 -10 8 0 18 5 21 10 3 6 -1 10 -9 10 -8 0
-18 -4 -21 -10z"/>
</g>
<g>
<path d="M2940 3910 c36 -12 60 -12 60 0 0 6 -19 10 -42 9 -37 -1 -39 -2 -18
-9z"/>
</g>
<g>
<path d="M2787 3879 c-56 -30 -40 -33 18 -4 28 13 43 24 35 24 -8 0 -32 -9
-53 -20z"/>
</g>
<g>
<path d="M2689 3858 c-29 -33 -45 -65 -36 -75 3 -2 13 8 23 24 10 15 29 40 43
56 14 15 19 27 12 27 -7 0 -25 -15 -42 -32z"/>
</g>
<g>
<path d="M2880 3872 c0 -4 21 -6 48 -4 75 5 82 10 15 11 -35 0 -63 -2 -63 -7z"/>
</g>
<g>
<path d="M2717 3823 c-4 -3 -7 -11 -7 -17 0 -6 5 -5 12 2 6 6 9 14 7 17 -3 3
-9 2 -12 -2z"/>
</g>
<g>
<path d="M2594 3674 c-17 -14 -17 -15 -1 -10 10 3 25 6 33 6 9 0 12 5 9 10 -9
14 -18 13 -41 -6z"/>
</g>
<g>
<path d="M2540 3640 c-8 -5 -11 -12 -7 -16 4 -4 15 0 24 9 18 18 8 23 -17 7z"/>
</g>
<g>
<path d="M2483 3605 c-13 -19 -19 -37 -14 -40 8 -5 51 53 51 69 0 16 -17 3
-37 -29z"/>
</g>
<g>
<path d="M876 3554 c-17 -43 17 -104 59 -104 42 0 39 82 -4 88 -12 2 -25 10
-28 18 -7 19 -19 18 -27 -2z m67 -41 c12 -7 8 -31 -7 -36 -18 -7 -56 20 -56
39 0 11 7 13 28 8 15 -4 30 -9 35 -11z"/>
</g>
<g>
<path d="M2507 3563 c-11 -10 -8 -63 3 -63 6 0 10 16 10 35 0 36 -2 40 -13 28z"/>
</g>
<g>
<path d="M2450 3479 c0 -25 37 -89 51 -89 13 0 12 5 -11 47 -11 21 -20 43 -20
50 0 7 -4 13 -10 13 -5 0 -10 -10 -10 -21z"/>
</g>
<g>
<path d="M2147 3415 c-23 -29 -26 -38 -17 -56 22 -40 80 -42 80 -3 0 20 -24
94 -30 94 -3 0 -18 -16 -33 -35z m31 -43 c2 -7 -3 -12 -12 -12 -9 0 -16 7 -16
16 0 17 22 14 28 -4z"/>
</g>
<g>
<path d="M2520 3440 c0 -5 7 -10 16 -10 8 0 12 5 9 10 -3 6 -10 10 -16 10 -5
0 -9 -4 -9 -10z"/>
</g>
<g>
<path d="M2781 3426 c-45 -48 -104 -54 -183 -21 -11 4 -18 3 -18 -4 0 -17 45
-31 97 -31 51 0 133 40 133 65 0 20 -3 19 -29 -9z"/>
</g>
<g>
<path d="M773 3373 c-20 -8 -16 -77 5 -96 23 -21 71 -22 78 -3 8 20 -12 53
-36 61 -11 3 -20 15 -20 26 0 19 -5 21 -27 12z m53 -90 c-3 -3 -17 -1 -31 5
-17 8 -25 20 -25 38 l0 26 31 -32 c17 -17 29 -34 25 -37z"/>
</g>
<g>
<path d="M2550 3359 c0 -23 129 -40 174 -23 34 13 13 20 -49 16 -35 -2 -78 1
-95 6 -19 7 -30 7 -30 1z"/>
</g>
<g>
<path d="M2764 3300 c-46 -22 -86 -60 -63 -60 8 0 19 8 26 18 30 49 155 48
201 -1 58 -62 38 -180 -35 -208 -21 -8 -30 -6 -50 12 -12 13 -23 33 -23 46 0
23 8 27 43 24 24 -3 21 16 -4 24 -25 8 -69 -29 -69 -58 0 -27 54 -77 83 -77
36 0 114 78 122 122 8 43 -18 111 -53 138 -13 11 -21 20 -16 20 4 0 20 -12 36
-27 28 -27 43 -28 33 -1 -9 24 -45 36 -120 42 -55 4 -79 1 -111 -14z"/>
</g>
<g>
<path d="M2245 3268 c10 -57 11 -58 50 -58 38 0 56 30 34 56 -11 13 -72 44
-86 44 -3 0 -2 -19 2 -42z m55 -13 c7 -9 10 -18 7 -21 -10 -11 -37 5 -37 21 0
19 14 19 30 0z"/>
</g>
<g>
<path d="M2793 3269 c-35 -10 -54 -29 -29 -29 8 0 18 5 21 10 3 6 24 10 46 10
40 0 79 -26 91 -60 2 -7 9 -10 16 -6 16 10 -13 53 -49 72 -31 16 -49 16 -96 3z"/>
</g>
<g>
<path d="M2803 3243 c-12 -2 -27 -12 -35 -20 -11 -15 -11 -16 7 -8 52 21 71
18 104 -20 33 -38 48 -41 37 -8 -6 19 -66 64 -82 62 -5 -1 -19 -4 -31 -6z"/>
</g>
<g>
<path d="M2672 3201 c-16 -27 -9 -98 13 -127 18 -25 32 -10 17 19 -6 12 -13
47 -14 77 -3 52 -4 54 -16 31z"/>
</g>
<g>
<path d="M2711 3202 c-8 -15 -9 -27 -3 -35 6 -7 12 -25 14 -42 1 -16 8 -28 13
-25 11 5 9 50 -4 97 l-8 28 -12 -23z"/>
</g>
<g>
<path d="M2184 3123 c-36 -49 -38 -68 -8 -92 33 -26 35 -26 57 5 18 24 18 26
0 52 -10 15 -20 35 -23 45 -4 16 -8 15 -26 -10z m30 -56 c12 -19 3 -32 -19
-24 -17 7 -21 51 -3 45 6 -2 16 -12 22 -21z"/>
</g>
<g>
<path d="M2490 3137 c0 -11 32 -37 46 -37 20 0 18 16 -3 24 -10 3 -24 9 -30
12 -7 3 -13 3 -13 1z"/>
</g>
<g>
<path d="M881 3112 c-16 -29 -14 -69 4 -84 9 -7 22 -19 30 -26 21 -18 35 -6
35 29 0 18 -6 32 -16 36 -9 3 -22 20 -29 36 -12 29 -13 30 -24 9z m32 -55 c9
-3 17 -11 17 -16 0 -12 -32 -2 -42 13 -4 6 -8 16 -8 21 0 6 3 6 8 -1 4 -6 15
-13 25 -17z"/>
</g>
<g>
<path d="M2902 3118 c-14 -14 -16 -28 -2 -28 5 0 14 9 20 20 12 22 1 27 -18 8z"/>
</g>
<g>
<path d="M2979 3055 c-15 -33 -15 -34 2 -24 11 5 19 21 19 34 0 32 -2 31 -21
-10z"/>
</g>
<g>
<path d="M2620 3007 c0 -26 24 -65 32 -51 7 13 -11 74 -22 74 -6 0 -10 -10
-10 -23z"/>
</g>
<g>
<path d="M2930 2908 c25 -24 50 -52 57 -63 11 -19 12 -19 12 3 1 26 -72 102
-98 102 -10 0 2 -16 29 -42z"/>
</g>
<g>
<path d="M2580 2912 c0 -5 16 -26 35 -48 40 -45 47 -27 9 23 -24 31 -44 43
-44 25z"/>
</g>
<g>
<path d="M2700 2630 c0 -76 -17 -130 -52 -167 -30 -32 -15 -40 17 -9 45 45 60
99 56 204 -2 72 -21 47 -21 -28z"/>
</g>
<g>
<path d="M2974 2473 c-12 -24 -17 -43 -13 -43 14 0 41 48 37 67 -2 13 -9 6
-24 -24z"/>
</g>
<g>
<path d="M811 2443 c-20 -38 -13 -67 20 -86 37 -21 49 -15 49 22 0 20 -6 30
-20 34 -11 3 -24 15 -28 28 l-9 23 -12 -21z m33 -49 c23 -9 20 -23 -4 -17 -11
3 -20 9 -20 14 0 11 3 11 24 3z"/>
</g>
<g>
<path d="M2949 2373 c-25 -13 -69 -26 -98 -30 -29 -3 -48 -9 -44 -14 4 -4 39
-1 78 7 70 15 115 36 115 54 0 6 -1 9 -2 9 -2 -1 -24 -13 -49 -26z"/>
</g>
<g>
<path d="M2345 2288 c-38 -13 -75 -47 -75 -68 0 -9 -5 -21 -11 -27 -13 -13 -8
-65 6 -61 6 2 9 18 9 36 -1 17 2 32 7 32 5 0 15 13 23 28 16 31 53 52 91 52
14 0 25 5 25 10 0 13 -36 12 -75 -2z"/>
</g>
<g>
<path d="M2216 2188 c-18 -25 -21 -94 -6 -118 5 -8 11 -12 13 -10 5 6 16 150
11 150 -1 0 -10 -10 -18 -22z"/>
</g>
<g>
<path d="M2965 2135 c-16 -7 -35 -11 -42 -8 -7 3 -13 0 -13 -7 0 -9 12 -11 41
-7 44 6 53 11 48 25 -2 5 -17 3 -34 -3z"/>
</g>
<g>
<path d="M817 2065 c-37 -36 -9 -105 41 -105 17 0 22 6 22 24 0 14 -5 28 -11
32 -6 3 -17 20 -23 36 -12 28 -14 29 -29 13z m36 -78 c-8 -13 -33 14 -33 35 0
19 1 19 19 -3 11 -13 17 -28 14 -32z"/>
</g>
<g>
<path d="M2255 2053 c-5 -22 0 -33 32 -64 48 -48 100 -61 166 -42 35 10 47 18
47 33 0 17 -5 19 -32 13 -44 -8 -48 -13 -12 -14 l29 -1 -33 -14 c-21 -9 -46
-12 -67 -8 -39 7 -121 73 -92 74 20 0 21 9 3 33 -19 24 -33 21 -41 -10z"/>
</g>
<g>
<path d="M2960 2071 c-22 -4 -30 -9 -23 -14 15 -9 63 2 63 14 0 5 -1 8 -2 8
-2 -1 -19 -4 -38 -8z"/>
</g>
<g>
<path d="M2315 2021 c-6 -11 29 -33 39 -24 7 7 -12 33 -25 33 -4 0 -10 -4 -14
-9z"/>
</g>
<g>
<path d="M709 1913 c-8 -21 -7 -35 4 -59 13 -26 21 -31 48 -30 24 1 35 6 37
19 4 21 -24 57 -45 57 -7 0 -13 9 -13 20 0 29 -19 25 -31 -7z m71 -64 c0 -11
-3 -11 -34 1 -14 5 -26 16 -26 24 0 13 4 12 30 0 17 -9 30 -20 30 -25z"/>
</g>
<g>
<path d="M2510 1890 c0 -5 7 -10 15 -10 8 0 15 5 15 10 0 6 -7 10 -15 10 -8 0
-15 -4 -15 -10z"/>
</g>
<g>
<path d="M2407 1867 c-7 -18 8 -41 21 -33 11 7 4 46 -8 46 -4 0 -10 -6 -13
-13z"/>
</g>
<g>
<path d="M2915 1848 c-16 -58 -40 -96 -85 -133 -63 -52 -100 -65 -183 -63 -76
1 -96 -6 -42 -16 45 -9 141 2 176 20 37 19 118 94 133 123 20 38 30 91 17 91
-5 0 -12 -10 -16 -22z"/>
</g>
<g>
<path d="M2845 1778 c-6 -12 -27 -35 -48 -52 -30 -24 -49 -31 -97 -34 -33 -2
-60 -8 -60 -13 0 -15 67 -10 111 7 46 19 119 80 119 101 0 20 -14 15 -25 -9z"/>
</g>
<g>
<path d="M2440 1778 c0 -17 18 -44 24 -37 8 7 -5 49 -15 49 -5 0 -9 -6 -9 -12z"/>
</g>
<g>
<path d="M2890 1712 c-72 -74 -112 -93 -216 -100 -52 -3 -81 -9 -77 -15 10
-17 158 -1 207 23 41 19 128 99 148 135 18 31 -9 13 -62 -43z"/>
</g>
<g>
<path d="M2490 1720 c0 -11 38 -28 84 -37 21 -4 27 -3 22 5 -4 7 -15 12 -24
12 -9 0 -30 7 -46 15 -34 18 -36 18 -36 5z"/>
</g>
<g>
<path d="M856 1667 c-11 -46 10 -66 72 -67 16 0 22 6 22 23 0 29 -18 47 -45
47 -12 0 -26 5 -32 11 -7 7 -12 3 -17 -14z"/>
</g>
<g>
<path d="M2227 1653 c7 -47 19 -63 47 -63 12 0 27 -5 32 -10 8 -8 15 -6 24 5
17 21 -1 62 -34 75 -13 5 -27 14 -31 19 -3 6 -15 11 -25 11 -16 0 -18 -5 -13
-37z m75 -20 c23 -21 23 -33 -1 -33 -33 0 -51 11 -51 31 0 24 27 25 52 2z"/>
</g>
<g>
<path d="M2168 1449 c-21 -12 -24 -49 -6 -67 17 -17 53 -15 69 4 10 13 10 20
-3 42 -19 31 -35 36 -60 21z m42 -50 c0 -12 -7 -19 -20 -19 -14 0 -20 7 -20
23 0 13 3 27 7 30 10 11 33 -13 33 -34z"/>
</g>
<g>
<path d="M2152 1240 c-6 -11 -12 -26 -12 -34 0 -15 37 -46 54 -46 6 0 0 7 -12
16 -12 8 -22 22 -22 30 0 13 4 12 30 -1 17 -9 30 -22 30 -30 0 -8 5 -15 10
-15 6 0 10 10 10 23 0 16 -9 26 -30 34 -16 6 -30 18 -30 27 0 22 -13 20 -28
-4z"/>
</g>
<g>
<path d="M820 1154 c-20 -23 -1 -65 34 -77 21 -7 30 -6 37 4 13 21 12 24 -20
58 -34 36 -34 36 -51 15z m45 -34 c16 -17 16 -20 2 -26 -22 -8 -37 3 -37 27 0
24 12 24 35 -1z"/>
</g>
<g>
<path d="M2320 1154 c0 -11 -5 -25 -11 -31 -8 -8 -6 -18 6 -37 18 -28 52 -34
86 -16 15 9 17 15 9 30 -6 11 -16 20 -22 20 -7 0 -25 12 -40 27 -26 24 -28 25
-28 7z m65 -64 c0 -23 -49 -20 -53 3 -3 15 2 18 25 15 17 -2 28 -9 28 -18z"/>
</g>
<g>
<path d="M2060 333 c-49 -8 -55 -12 -36 -26 16 -11 18 -27 15 -110 l-4 -97 48
0 c45 0 62 12 33 23 -8 3 -13 20 -12 43 1 37 2 39 46 46 25 4 51 15 58 25 13
19 16 62 4 79 -8 13 -112 25 -152 17z m96 -33 c8 0 14 -10 14 -25 0 -18 -7
-26 -24 -31 -32 -8 -46 2 -46 30 0 28 9 38 28 31 7 -3 20 -5 28 -5z"/>
</g>
<g>
<path d="M2325 330 c-57 -23 -57 -82 0 -106 19 -8 50 -14 70 -14 36 0 40 -6
29 -47 -5 -19 -13 -23 -49 -23 -35 0 -44 4 -54 26 -15 33 -45 28 -49 -8 -2
-16 -11 -28 -24 -31 -74 -20 84 -29 197 -11 33 5 55 39 55 86 0 35 -30 52 -79
43 -56 -9 -91 8 -91 45 0 28 3 30 35 30 28 0 35 -4 35 -19 0 -32 18 -34 34 -3
l15 30 -37 6 c-47 7 -62 7 -87 -4z"/>
</g>
<g>
<path d="M310 310 c0 -11 -22 -63 -50 -116 -27 -53 -50 -98 -50 -100 0 -2 12
-4 26 -4 20 0 24 4 19 19 -3 10 1 24 10 31 9 8 22 28 30 47 11 27 20 33 43 33
35 0 42 -13 42 -81 0 -48 1 -49 30 -49 l30 0 0 98 c0 53 3 107 6 120 6 21 4
22 -65 22 -64 0 -71 -2 -71 -20z m60 -55 c-12 -15 -45 -22 -38 -7 33 67 32 66
42 43 6 -14 5 -25 -4 -36z"/>
</g>
<g>
<path d="M554 310 c-100 -50 -77 -186 34 -204 58 -9 142 20 142 49 0 19 -9 19
-29 1 -30 -27 -64 -29 -101 -4 -41 28 -50 64 -24 102 16 26 44 35 44 16 0 -17
26 -11 45 10 42 46 -36 67 -111 30z"/>
</g>
<g>
<path d="M1720 320 c-13 -9 -13 -12 2 -20 12 -7 15 -20 13 -48 -6 -56 20 -125
54 -145 42 -25 72 -21 109 14 30 28 32 34 32 99 0 38 5 72 10 75 24 15 9 35
-25 35 -24 0 -35 -5 -35 -15 0 -8 5 -15 10 -15 7 0 10 -27 8 -72 l-3 -73 -36
-3 c-44 -4 -57 10 -65 72 -5 36 -3 51 11 66 9 10 14 24 10 29 -8 14 -75 14
-95 1z"/>
</g>
<g>
<path d="M750 221 c0 -67 -4 -101 -12 -103 -6 -2 -8 -10 -4 -16 10 -17 146 -4
169 16 9 8 17 19 17 24 0 13 -17 9 -34 -8 -10 -10 -29 -14 -53 -12 -36 3 -38
5 -41 41 -2 28 1 39 14 44 10 4 19 2 22 -5 8 -25 32 -12 32 18 0 20 -5 30 -15
30 -8 0 -15 -4 -15 -10 0 -5 -7 -10 -15 -10 -10 0 -15 11 -15 35 0 34 1 35 40
35 22 0 40 -5 40 -11 0 -5 5 -7 10 -4 6 3 10 13 10 21 0 11 -16 14 -75 14
l-75 0 0 -99z"/>
</g>
<g>
<path d="M1494 286 c-28 -28 -34 -41 -34 -78 0 -37 5 -49 36 -79 30 -29 42
-34 82 -33 50 1 137 38 127 54 -3 5 -20 0 -38 -10 -40 -25 -70 -25 -108 -3
-36 21 -46 53 -29 94 19 46 79 82 65 39 -9 -27 25 -27 50 0 31 34 13 50 -56
50 -56 0 -64 -3 -95 -34z"/>
</g>
<g>
<path d="M2593 159 c-15 -5 -21 -14 -17 -24 7 -17 31 -19 54 -5 24 15 -8 41
-37 29z"/>
</g>
</g>
</svg>
