<?xml version="1.0" standalone="no"?>
<!DOCTYPE svg PUBLIC "-//W3C//DTD SVG 20010904//EN"
 "http://www.w3.org/TR/2001/REC-SVG-20010904/DTD/svg10.dtd">
<svg version="1.0" xmlns="http://www.w3.org/2000/svg"
 width="300.000000pt" height="526.000000pt" viewBox="0 0 300.000000 526.000000"
 preserveAspectRatio="xMidYMid meet">
<metadata>
Created by potrace 1.15, written by Peter Selinger 2001-2017
</metadata>
<g transform="translate(0.000000,526.000000) scale(0.100000,-0.100000)"
fill="#000000" stroke="none">
<g>
<path d="M11 5246 c-12 -15 -16 -5246 -4 -5246 5 0 7 171 5 380 l-2 380 70 0
c38 0 70 -4 70 -8 0 -11 107 -191 127 -213 13 -15 11 -20 -11 -42 -32 -32 -32
-38 0 -70 l26 -26 -22 -58 c-12 -32 -32 -87 -45 -123 -29 -82 -69 -157 -103
-192 l-26 -28 32 0 c18 0 31 3 30 8 -3 10 63 124 69 118 2 -2 -7 -26 -21 -52
-33 -61 -33 -74 0 -74 15 0 23 4 19 10 -4 6 12 57 35 113 23 56 46 112 50 123
7 19 14 21 62 17 67 -6 81 -10 73 -24 -4 -6 -29 -9 -56 -8 -27 2 -50 -1 -51
-7 -2 -5 28 -10 65 -12 48 -2 67 -7 64 -15 -3 -8 -28 -12 -76 -11 -39 1 -71
-2 -71 -7 0 -5 19 -10 43 -11 23 0 47 -2 52 -3 6 -2 23 -3 38 -4 23 -1 31 -9
47 -47 11 -25 20 -46 20 -47 0 -1 -30 0 -67 1 -69 4 -173 -13 -173 -27 0 -5
61 -7 136 -5 133 3 136 3 131 -17 l-6 -21 1230 4 1229 3 0 2628 0 2627 -1489
0 c-1193 -1 -1491 -3 -1500 -14z m2636 -15 l322 -2 6 -52 c3 -29 2 -495 -2
-1036 l-8 -985 -75 67 c-41 37 -79 77 -84 88 -13 29 -88 60 -170 71 -39 5 -98
21 -131 35 -111 46 -121 44 -200 -27 -34 -31 -65 -50 -79 -50 -15 0 -37 -15
-62 -42 -58 -66 -70 -72 -104 -58 -46 19 -76 6 -100 -43 -39 -81 -89 -162
-107 -174 -10 -7 -52 -17 -93 -23 -122 -17 -115 -14 -128 -71 -17 -74 -80
-213 -108 -240 -14 -13 -24 -34 -24 -49 0 -14 -7 -35 -15 -46 -8 -10 -15 -27
-15 -36 0 -10 -11 -25 -25 -34 -14 -9 -25 -22 -25 -30 0 -18 -32 -34 -68 -34
-30 0 -42 -14 -42 -48 0 -29 -31 -52 -72 -52 -31 0 -38 4 -38 19 0 33 -37 36
-80 7 -48 -31 -71 -33 -96 -5 -12 14 -25 18 -41 14 -19 -4 -24 0 -29 22 -3 16
-7 33 -9 40 -4 14 -94 55 -105 48 -10 -6 -27 14 -53 67 -28 56 -61 62 -109 19
l-34 -29 -30 26 c-39 34 -62 68 -108 162 -64 127 -68 134 -110 178 -63 67 -69
68 -115 27 -21 -20 -49 -57 -61 -83 -31 -65 -78 -112 -113 -112 -23 0 -31 -7
-47 -45 -11 -25 -22 -45 -24 -45 -5 0 4 2541 8 2547 1 1 114 5 251 8 138 4
251 8 252 8 2 3 1702 1 2100 -2z m-281 -1862 c-3 -35 -19 -49 -58 -49 -35 0
-36 13 -3 28 13 6 30 20 37 32 18 29 28 25 24 -11z m259 -14 c81 -11 125 -25
125 -40 0 -7 3 -20 6 -29 5 -12 0 -16 -18 -16 -13 0 -29 5 -36 12 -9 9 -15 9
-24 0 -9 -9 -6 -18 15 -40 15 -15 27 -31 27 -35 0 -11 -64 31 -93 63 -16 16
-32 30 -37 30 -4 0 -20 16 -35 36 l-28 37 24 -6 c13 -3 47 -9 74 -12z m-278
-141 c-3 -3 -16 -4 -29 -2 l-23 5 25 10 c23 10 41 1 27 -13z m-222 -13 c-3 -6
-14 -11 -23 -11 -15 1 -15 2 2 15 21 16 32 13 21 -4z m235 -87 c0 -21 -4 -33
-10 -29 -5 3 -10 19 -10 36 0 16 5 29 10 29 6 0 10 -16 10 -36z m386 -11 c-4
-4 -14 1 -22 11 -22 31 -17 43 8 19 12 -13 18 -26 14 -30z m-428 -19 c3 -35 2
-37 -10 -20 -19 24 -51 17 -58 -14 -6 -25 -7 -25 -14 -3 -8 24 10 67 23 58 5
-2 14 2 21 10 20 24 34 12 38 -31z m523 24 c11 -21 11 -22 -4 -9 -10 7 -17 17
-17 22 0 15 9 10 21 -13z m-163 -31 c7 -15 19 -27 27 -27 8 0 19 -9 25 -20 6
-11 8 -20 4 -20 -3 0 -1 -7 7 -16 11 -14 13 -14 21 0 5 9 6 22 3 29 -4 6 1 3
9 -7 9 -11 16 -29 16 -40 0 -12 3 -32 6 -46 l5 -25 -15 26 c-16 29 -42 43 -58
33 -5 -3 -7 -13 -4 -21 3 -8 1 -11 -4 -8 -6 3 -10 19 -10 34 0 17 -11 38 -29
55 -16 15 -31 41 -33 57 -6 36 12 34 30 -4z m-531 1 c28 -26 30 -43 4 -28 -11
5 -24 10 -30 10 -17 0 -13 -27 4 -34 9 -3 15 -19 15 -41 0 -38 13 -45 30 -17
10 16 10 15 8 -3 -2 -11 -12 -21 -23 -23 -11 -2 -27 -10 -36 -18 -20 -18 -33
-5 -15 15 13 15 20 41 17 69 -1 14 -31 17 -31 2 0 -5 -7 -10 -15 -10 -9 0 -24
-14 -33 -30 -9 -17 -27 -33 -39 -36 -13 -4 -23 -10 -23 -15 0 -5 -4 -9 -10 -9
-18 0 -11 18 9 25 11 3 24 19 30 35 5 17 21 41 35 55 15 14 26 30 26 35 0 18
-21 10 -45 -16 -23 -25 -25 -25 -25 -7 0 29 29 51 75 56 22 2 42 4 44 5 3 1
15 -8 28 -20z m733 -35 c0 -13 -3 -13 -15 -3 -8 7 -15 19 -15 27 0 13 3 13 15
3 8 -7 15 -19 15 -27z m-633 -65 c-3 -8 -6 -5 -6 6 -1 11 2 17 5 13 3 -3 4
-12 1 -19z m-172 -38 c-9 -17 -20 -28 -25 -25 -5 3 0 21 13 40 26 40 35 30 12
-15z m-1670 -88 c-3 -8 -5 -21 -5 -30 -1 -26 -40 28 -40 55 0 12 -4 25 -10 28
-5 3 -10 14 -10 23 0 12 11 4 35 -23 19 -22 32 -46 30 -53z m1945 78 c0 -5 -4
-10 -10 -10 -5 0 -10 5 -10 10 0 6 5 10 10 10 6 0 10 -4 10 -10z m527 -122
c-2 -24 -4 -7 -4 37 0 44 2 63 4 43 2 -21 2 -57 0 -80z m-250 6 c-9 -6 -77
-11 -77 -6 0 15 45 28 62 18 9 -6 16 -11 15 -12z m-72 -44 c3 -5 23 -10 43
-10 35 -1 36 -2 18 -15 -11 -8 -28 -15 -38 -15 -10 0 -18 -5 -18 -11 0 -6 9
-9 20 -6 11 3 23 1 26 -4 3 -5 -3 -9 -13 -9 -11 0 -34 -16 -53 -35 -33 -34
-55 -38 -46 -7 2 10 7 29 10 45 4 15 13 27 21 27 21 0 28 19 15 35 -8 10 -9
15 -2 15 6 0 14 -4 17 -10z m-2229 -115 c13 -9 24 -29 28 -53 4 -27 14 -45 31
-56 29 -19 57 -72 73 -137 21 -84 73 -209 88 -209 8 0 14 11 15 28 l1 27 7
-25 c5 -17 15 -26 33 -28 16 -2 28 -11 31 -24 9 -32 32 -16 29 20 -4 37 17 36
33 -1 6 -12 16 -22 23 -22 7 0 17 -7 22 -15 5 -8 12 -11 17 -7 15 16 3 87 -26
151 -30 68 -33 108 -5 85 11 -9 19 -8 34 6 19 17 21 17 40 0 11 -10 20 -29 20
-42 0 -16 8 -27 25 -33 28 -11 75 -97 75 -137 0 -13 6 -23 14 -23 13 0 26 -20
26 -40 0 -4 -8 -7 -17 -6 -15 1 -18 -9 -21 -66 -3 -63 -5 -68 -25 -67 -12 0
-16 3 -9 6 6 2 12 12 12 20 0 14 -16 15 -137 10 -75 -4 -167 -7 -206 -7 -60 0
-70 -2 -74 -20 -5 -17 -11 -19 -52 -13 -57 8 -158 68 -188 112 -23 34 -23 80
0 109 7 9 7 16 0 20 -23 16 -62 101 -69 150 -7 53 -7 54 15 41 11 -8 21 -20
21 -27 0 -7 14 -42 30 -79 24 -53 30 -79 30 -135 0 -64 2 -69 19 -63 15 4 20
0 23 -17 6 -42 32 -27 40 22 13 88 -2 179 -42 265 -61 128 -67 159 -54 259 6
41 9 46 28 40 12 -3 31 -12 42 -19z m-106 -91 c0 -57 -3 -83 -11 -79 -9 6 -12
141 -2 158 10 18 13 2 13 -79z m2359 59 c0 -16 -4 -48 -8 -73 -8 -43 -9 -41
-10 28 0 42 3 72 9 72 6 0 10 -12 9 -27z m-2159 -55 c0 -5 -9 -4 -20 2 -11 6
-20 20 -20 32 0 21 0 21 20 -2 11 -13 20 -27 20 -32z m-270 18 c0 -8 -4 -18
-10 -21 -5 -3 -10 3 -10 14 0 12 5 21 10 21 6 0 10 -6 10 -14z m610 -38 c0 -5
-7 -8 -15 -8 -15 0 -20 21 -8 33 7 7 23 -11 23 -25z m-637 -200 c1 -38 -7 -57
-20 -45 -9 10 -14 208 -5 221 7 11 22 -100 25 -176z m597 172 c0 -5 -7 -10
-16 -10 -8 0 -12 5 -9 10 3 6 10 10 16 10 5 0 9 -4 9 -10z m1826 -167 c-8 -65
-22 -188 -31 -273 -19 -195 -23 -220 -37 -220 -6 0 -8 15 -4 43 3 23 11 83 16
132 6 50 14 113 19 140 4 28 16 107 26 178 10 70 20 125 22 123 3 -3 -2 -58
-11 -123z m-1652 76 c10 8 16 9 21 1 9 -14 -3 -30 -22 -30 -19 0 -63 38 -63
53 0 6 11 0 25 -13 19 -18 27 -21 39 -11z m-271 -116 c11 -56 -9 -36 -26 27
-10 33 -17 65 -17 72 1 20 37 -63 43 -99z m-343 47 c13 -31 7 -51 -10 -34 -5
5 -13 25 -16 43 -9 41 8 36 26 -9z m655 20 c3 -5 1 -10 -4 -10 -6 0 -11 5 -11
10 0 6 2 10 4 10 3 0 8 -4 11 -10z m-265 -54 c4 -20 6 -36 4 -36 -5 0 -34 70
-34 83 0 23 22 -11 30 -47z m692 7 c6 -7 5 -14 -2 -18 -14 -9 -17 -5 -20 20
-4 32 2 53 7 30 3 -11 9 -25 15 -32z m1438 32 c14 -3 34 -10 45 -15 11 -4 39
-13 62 -19 45 -12 88 -65 80 -98 -3 -15 -6 -13 -15 8 -13 33 -54 66 -93 74
-43 10 -47 -1 -7 -18 33 -14 78 -59 78 -78 0 -5 -9 -9 -21 -9 -15 0 -19 -5
-15 -15 4 -12 -4 -15 -39 -15 -24 0 -47 5 -50 10 -3 6 -15 10 -26 10 -12 0
-27 12 -37 30 -10 18 -25 30 -38 30 -11 0 -28 6 -37 13 -16 11 -16 14 0 49 10
20 27 41 38 47 20 9 25 9 75 -4z m-1756 -68 c4 -18 1 -16 -19 8 -13 17 -24 34
-25 39 0 17 38 -25 44 -47z m-724 -68 c0 -33 -4 -59 -10 -59 -6 0 -10 29 -10
66 0 41 4 63 10 59 6 -3 10 -33 10 -66z m950 51 c13 0 16 -6 13 -23 -5 -23 -1
-24 64 -30 37 -4 110 -7 161 -7 50 0 92 -3 92 -8 0 -4 -4 -22 -10 -40 -12 -43
-15 -121 -6 -149 6 -17 3 -23 -8 -23 -9 0 -16 4 -16 9 0 6 -12 16 -27 23 -15
7 -29 22 -31 33 -7 35 -21 40 -109 40 l-86 0 -12 58 c-6 31 -16 61 -21 66 -5
5 -45 13 -88 18 -45 4 -81 13 -83 20 -5 14 45 22 106 17 24 -2 52 -4 61 -4z
m1376 -58 c-8 -9 -19 -13 -22 -9 -10 9 16 38 28 31 6 -4 4 -13 -6 -22z m-2436
-17 c11 -13 10 -18 -9 -32 -20 -13 -22 -21 -17 -55 5 -30 3 -39 -6 -36 -25 9
-31 63 -13 102 19 40 26 43 45 21z m779 -40 c0 -5 -6 1 -14 15 -8 14 -14 30
-14 35 0 6 6 -1 14 -15 8 -14 14 -29 14 -35z m1743 37 c6 -14 126 -53 150 -48
13 3 42 7 66 10 l42 6 0 -46 0 -46 -37 5 c-21 3 -72 17 -113 31 -94 33 -188
35 -245 6 -49 -25 -49 -25 -40 7 8 32 23 45 45 38 8 -3 33 6 55 20 41 25 71
31 77 17z m-1708 -18 c3 -8 2 -12 -4 -9 -6 3 -10 10 -10 16 0 14 7 11 14 -7z
m76 -55 c0 -5 -4 -9 -8 -9 -9 0 -32 44 -32 58 1 10 40 -38 40 -49z m-84 -29
c8 0 14 5 14 10 0 20 20 9 26 -15 4 -15 26 -37 58 -57 l51 -33 -32 -3 c-17 -2
-37 -10 -43 -18 -7 -8 -23 -14 -36 -14 -18 0 -25 7 -30 28 -3 15 -12 48 -20
74 -8 26 -13 50 -13 55 1 4 3 0 6 -9 2 -10 11 -18 19 -18z m1797 -4 c27 -8 64
-30 88 -54 36 -34 46 -39 66 -31 23 8 24 7 21 -23 -5 -50 -35 -60 -201 -61
-115 -2 -152 2 -194 16 l-53 19 0 46 c0 26 4 52 8 57 30 42 174 58 265 31z
m-363 -66 l-8 -55 -1 51 c-1 43 6 71 15 61 1 -1 -1 -27 -6 -57z m-254 38 c4
-6 -3 -19 -16 -30 -28 -23 -34 -19 -21 16 11 28 25 33 37 14z m-1223 -55 c4
-19 2 -33 -3 -33 -6 0 -10 17 -10 37 0 43 5 41 13 -4z m1162 -23 c8 -13 -14
-79 -36 -105 -9 -11 -19 -28 -22 -37 -10 -29 -28 -21 -22 10 9 39 26 115 31
130 4 14 40 16 49 2z m-115 -21 c0 -5 -7 -9 -15 -9 -8 0 -15 7 -15 15 0 9 6
12 15 9 8 -4 15 -10 15 -15z m-1413 -13 c-10 -24 16 -36 77 -36 37 0 65 -5 75
-14 13 -11 87 -15 381 -18 403 -4 521 0 528 20 3 9 -17 12 -75 12 -44 0 -72 4
-65 8 7 5 61 7 120 4 82 -3 110 -8 120 -20 19 -25 15 -115 -7 -143 -46 -59
-71 -127 -71 -192 0 -103 -11 -122 -94 -163 -99 -50 -121 -64 -152 -102 -20
-25 -32 -32 -49 -28 -18 5 -24 1 -29 -19 -4 -14 -13 -25 -21 -25 -20 0 -19 44
1 61 31 25 36 58 14 89 -22 31 -26 50 -10 50 6 0 10 9 10 20 0 25 17 32 66 28
38 -4 38 -4 14 -15 -39 -17 -7 -24 96 -21 80 3 89 5 89 22 0 11 6 21 13 24 17
5 15 49 -4 56 -9 3 -26 6 -39 6 -13 0 -26 4 -30 10 -11 18 -73 29 -105 17 -16
-6 -32 -8 -36 -5 -3 4 10 35 30 71 20 35 36 72 36 83 0 10 7 32 15 48 36 69
16 76 -240 77 -202 0 -278 -9 -288 -36 -3 -6 4 -33 15 -58 24 -54 20 -66 -14
-43 -12 9 -30 16 -40 16 -22 0 -22 2 -4 44 17 40 10 53 -35 66 -48 14 -370 14
-452 0 -58 -10 -68 -15 -73 -36 -4 -15 2 -39 15 -64 20 -40 20 -40 1 -40 -11
0 -20 6 -20 13 0 6 -16 24 -35 40 -37 30 -95 47 -95 28 0 -18 -25 -13 -45 9
-13 15 -31 20 -67 20 -36 0 -53 -5 -65 -20 -23 -27 -43 -25 -43 4 0 18 7 25
27 29 104 21 142 25 220 22 88 -4 128 5 108 24 -6 5 -19 11 -30 14 -11 3 25 5
80 4 80 -2 100 1 100 12 0 8 13 18 29 22 17 5 34 15 38 24 11 19 22 20 15 1z
m151 7 c-10 -2 -28 -2 -40 0 -13 2 -5 4 17 4 22 1 32 -1 23 -4z m-395 -30 c-7
-2 -21 -2 -30 0 -10 3 -4 5 12 5 17 0 24 -2 18 -5z m2215 -49 c22 -15 51 -17
214 -15 l188 2 0 -92 0 -91 -102 7 c-56 4 -116 13 -133 21 -44 18 -110 21
-130 4 -24 -20 -37 -1 -25 38 12 43 5 59 -31 66 -27 5 -29 8 -29 54 0 50 13
80 18 44 2 -11 15 -28 30 -38z m-1571 40 c-3 -3 -12 -4 -19 -1 -8 3 -5 6 6 6
11 1 17 -2 13 -5z m353 -4 c0 -5 -16 -10 -36 -10 -21 0 -33 4 -29 10 3 6 19
10 36 10 16 0 29 -4 29 -10z m105 0 c-3 -5 -19 -10 -36 -10 -16 0 -29 5 -29
10 0 6 16 10 36 10 21 0 33 -4 29 -10z m565 -2 c0 -20 -24 -78 -32 -78 -4 0
-8 -6 -8 -14 0 -16 -18 -31 -26 -23 -5 5 20 99 31 117 9 14 35 12 35 -2z m408
-5 c-2 -10 -7 -17 -11 -15 -4 1 -29 2 -57 2 -61 0 -67 17 -7 23 23 2 50 4 60
5 13 1 17 -4 15 -15z m-2300 0 c-15 -2 -42 -2 -60 0 -18 2 -6 4 27 4 33 0 48
-2 33 -4z m1815 -2 c4 -1 -12 -40 -36 -88 -25 -49 -50 -103 -57 -120 -16 -42
-54 -83 -78 -83 -10 0 -27 6 -37 14 -19 14 -19 16 -2 50 9 20 22 36 28 36 15
0 89 53 89 64 0 4 -11 5 -25 2 -25 -6 -25 -6 -25 57 0 35 2 66 4 68 4 3 114 4
139 0z m1030 -2 c-11 -11 -222 -26 -212 -15 3 4 48 10 100 15 52 4 101 9 109
10 10 1 11 -2 3 -10z m-254 -15 c2 -2 -16 -4 -42 -4 -25 0 -49 4 -52 10 -6 9
83 3 94 -6z m-321 -31 c68 -12 27 -23 -83 -23 -63 0 -115 3 -115 8 0 27 90 34
198 15z m-936 -39 c25 -15 -14 -24 -110 -24 -147 0 -180 11 -82 26 70 12 172
10 192 -2z m-771 -19 c-1 -13 -111 -19 -111 -6 0 5 19 12 43 14 57 5 68 4 68
-8z m1807 -1 c6 -2 12 -8 12 -14 0 -13 -237 -14 -245 0 -3 6 0 10 7 11 76 6
113 10 116 14 5 4 87 -3 110 -11z m-1248 -31 c-55 -8 -71 -14 -65 -23 3 -6 28
-10 56 -10 27 0 49 -4 49 -10 0 -5 -16 -10 -35 -10 -19 0 -35 -4 -35 -10 0 -5
24 -10 53 -10 37 0 48 -3 37 -10 -8 -5 -30 -10 -47 -10 -18 0 -33 -4 -33 -9 0
-5 21 -9 46 -9 59 0 66 -8 15 -17 -23 -4 -41 -11 -41 -16 0 -11 24 -11 73 0
21 5 37 5 37 0 0 -9 -12 -13 -90 -29 -41 -8 -39 -9 29 -7 65 3 70 1 45 -9 -16
-7 -49 -17 -74 -23 l-45 -10 43 3 c59 6 50 -16 -11 -28 -26 -4 -47 -13 -47
-18 0 -6 7 -7 16 -4 9 3 33 9 55 12 29 5 39 11 39 25 0 11 7 19 15 19 18 0 18
-5 5 -30 -6 -12 -31 -23 -65 -31 -58 -13 -77 -32 -22 -23 17 3 38 7 45 10 19
6 14 -14 -7 -26 -11 -5 -30 -10 -43 -10 -13 0 -30 -5 -38 -11 -11 -7 0 -8 39
-3 38 4 52 3 47 -5 -4 -6 -20 -11 -37 -11 -16 0 -29 -5 -29 -11 0 -6 -14 -9
-32 -7 -22 2 -32 8 -30 17 4 16 -7 45 -56 151 -67 147 -92 202 -92 206 0 2 57
3 128 3 70 -1 116 -3 102 -6z m-520 -13 c-14 -4 -52 -8 -84 -9 -43 -1 -57 -4
-49 -12 6 -6 46 -9 102 -7 75 2 88 1 74 -9 -9 -7 -32 -13 -50 -13 -18 0 -33
-4 -33 -10 0 -14 68 -11 115 5 21 8 41 12 43 10 8 -8 -9 -24 -26 -24 -35 -1
-132 -25 -132 -33 0 -4 15 -8 33 -8 56 0 66 -17 19 -31 -23 -7 -42 -16 -42
-20 0 -5 12 -4 26 1 14 6 35 10 47 9 19 -1 18 -2 -8 -14 -16 -8 -40 -14 -52
-15 -12 0 -25 -5 -29 -12 -7 -12 53 -7 89 7 9 4 17 3 17 -3 0 -5 -22 -15 -50
-22 -58 -14 -68 -31 -12 -23 28 4 34 3 26 -6 -6 -6 -32 -12 -57 -13 -26 0 -47
-5 -47 -10 0 -6 20 -8 45 -6 25 2 45 0 45 -4 0 -8 -66 -28 -92 -28 -10 0 -18
-4 -18 -10 0 -8 41 -6 77 5 19 6 25 -12 7 -19 -9 -3 -31 -6 -50 -6 -19 0 -34
-4 -34 -10 0 -5 5 -10 10 -10 6 0 10 -5 10 -11 0 -6 -12 -9 -26 -7 -27 3 -36
17 -144 238 -28 58 -56 108 -62 111 -6 4 -7 12 -4 18 5 7 61 11 174 10 99 -1
157 -4 142 -9z m1497 -16 c17 -2 34 -11 37 -19 4 -12 26 -15 93 -16 66 -1 81
-3 59 -9 -16 -5 -42 -6 -57 -3 -16 3 -35 0 -43 -7 -8 -6 -24 -9 -36 -5 -11 4
-20 2 -20 -4 0 -18 48 -24 132 -18 44 3 76 2 72 -3 -14 -13 -158 -29 -171 -18
-7 5 -14 5 -17 -1 -13 -21 37 -33 116 -29 43 3 78 1 78 -2 0 -7 -126 -29 -173
-31 -21 0 -21 -1 3 -11 14 -5 53 -8 88 -5 34 3 62 2 62 -2 0 -10 -77 -31 -116
-31 -24 0 -34 -4 -31 -12 3 -9 23 -12 61 -10 76 3 64 -15 -14 -24 -33 -4 -60
-11 -60 -17 0 -6 16 -7 39 -3 22 3 42 2 45 -3 7 -11 -18 -21 -55 -21 -16 0
-29 -4 -29 -10 0 -5 16 -10 35 -10 19 0 35 -4 35 -10 0 -6 -33 -10 -79 -10
l-78 0 -26 38 c-13 20 -28 54 -32 76 -3 21 -19 66 -35 99 -17 33 -32 75 -36
93 -3 19 -10 34 -16 34 -5 0 -6 5 -3 11 7 10 84 7 172 -7z m156 9 c-7 -2 -19
-2 -25 0 -7 3 -2 5 12 5 14 0 19 -2 13 -5z m270 -66 c6 -15 124 -39 235 -46
l84 -6 3 -185 c4 -220 0 -253 -26 -245 -10 3 -120 7 -244 9 -172 2 -229 6
-235 16 -5 9 -23 11 -55 8 -51 -6 -69 10 -46 41 29 41 41 80 30 104 -9 20 -3
35 42 113 94 160 111 184 133 189 11 2 30 6 41 8 11 3 23 5 26 6 4 0 9 -5 12
-12z m-755 -71 c-2 -20 -11 -35 -26 -42 -12 -6 -34 -22 -47 -34 -20 -19 -25
-20 -25 -7 0 9 6 20 14 24 18 11 36 47 36 74 0 12 8 31 17 41 17 19 17 19 26
-4 4 -12 7 -36 5 -52z m-1470 7 c-15 -2 -42 -2 -60 0 -18 2 -6 4 27 4 33 0 48
-2 33 -4z m-253 -13 c4 -6 64 -10 148 -10 l142 0 45 -93 c25 -50 46 -95 48
-99 2 -5 -5 -11 -15 -15 -41 -15 -45 -63 -8 -97 24 -22 33 -46 18 -46 -3 0
-15 8 -25 17 -14 12 -33 16 -71 14 -29 -1 -68 -3 -87 -4 -29 -2 -35 1 -35 18
0 15 8 21 34 25 41 6 51 25 19 35 -18 6 -12 9 31 15 56 8 98 35 70 44 -8 3
-23 6 -34 8 -11 2 -24 13 -30 25 -6 15 -22 24 -49 29 -33 5 -42 3 -55 -15 -14
-18 -21 -20 -46 -12 -17 5 -56 15 -88 22 -32 7 -60 16 -63 20 -2 4 -19 5 -38
2 -55 -9 -74 8 -72 64 l1 48 50 6 c82 10 104 10 110 -1z m722 -10 c-3 -12 1
-24 11 -30 13 -7 7 -9 -25 -10 -33 0 -46 -6 -62 -26 -12 -15 -21 -31 -21 -36
0 -8 162 -5 298 6 9 1 20 -17 29 -48 14 -46 13 -49 -6 -63 -25 -17 -27 -40 -6
-63 11 -12 13 -24 7 -39 -7 -20 -9 -21 -21 -7 -8 9 -21 16 -31 16 -9 0 -20 3
-24 7 -7 8 -15 9 -102 19 l-61 7 -6 -31 c-3 -17 -14 -33 -24 -36 -10 -3 -36
-22 -57 -42 -30 -27 -41 -32 -47 -22 -15 22 -10 59 11 85 25 33 25 61 0 88
-19 21 -20 23 -4 61 9 21 34 72 56 112 33 60 44 72 65 72 20 0 24 -4 20 -20z
m1006 -70 c6 -24 43 -27 72 -6 11 7 39 16 63 19 42 5 43 4 63 -36 12 -23 33
-57 46 -75 19 -25 22 -37 14 -45 -18 -18 -13 -62 9 -82 22 -20 23 -24 11 -44
-5 -8 -14 -10 -22 -5 -8 4 -28 7 -46 5 -31 -2 -33 0 -33 28 0 30 -2 31 -42 31
-77 0 -202 -23 -223 -40 -14 -13 -38 -17 -82 -17 -35 0 -63 4 -63 9 0 16 -73
8 -106 -13 -28 -17 -34 -18 -34 -5 0 8 5 18 10 21 6 3 10 13 10 22 0 13 -3 13
-15 3 -13 -11 -15 -8 -15 18 0 34 9 43 65 64 38 15 42 15 64 -3 31 -26 48 -24
140 11 128 49 158 86 86 104 -29 7 -33 31 -7 45 24 15 29 14 35 -9z m-413 -50
c0 -5 -4 -10 -10 -10 -5 0 -10 5 -10 10 0 6 5 10 10 10 6 0 10 -4 10 -10z
m-1110 -30 c12 -8 11 -10 -7 -10 -13 0 -23 5 -23 10 0 13 11 13 30 0z m-140
-27 c-8 -3 -23 -15 -32 -27 -12 -14 -20 -17 -25 -10 -5 7 -17 13 -27 15 -45 9
-22 24 37 25 34 1 55 -1 47 -3z m1029 -55 c12 -44 -17 -72 -63 -62 -41 8 -79
45 -70 68 9 23 30 14 26 -12 -2 -12 4 -25 15 -31 16 -8 19 -6 18 16 0 14 6 28
13 30 8 3 12 -6 12 -26 0 -17 4 -31 9 -31 14 0 23 37 16 60 -4 11 -2 20 4 20
6 0 15 -15 20 -32z m-519 -30 c0 -28 -18 -58 -35 -58 -8 0 -15 -7 -15 -15 0
-9 -9 -15 -25 -15 -37 0 -30 -18 8 -22 28 -3 32 -7 35 -33 3 -30 2 -31 -38
-27 -32 3 -40 1 -40 -12 0 -12 10 -16 40 -16 22 0 40 -5 40 -11 0 -6 -15 -9
-37 -7 -24 2 -38 -2 -41 -11 -4 -11 6 -13 47 -9 42 4 51 2 51 -11 0 -13 -11
-16 -52 -16 -30 0 -53 -5 -55 -12 -3 -8 14 -10 57 -7 57 4 61 3 70 -22 15 -39
12 -46 -17 -44 -66 5 -123 -1 -123 -11 0 -8 26 -10 80 -7 44 2 80 -1 80 -5 0
-15 32 -81 48 -100 28 -32 1 -39 -170 -44 -146 -5 -165 -4 -177 11 -10 12 -11
20 -4 24 5 4 25 48 42 97 86 240 118 320 138 336 7 6 13 24 13 40 0 42 17 44
31 4 7 -19 17 -35 21 -35 11 0 10 32 -1 50 -6 8 -7 18 -4 23 8 13 33 -13 33
-35z m1466 26 c-3 -9 -6 -22 -6 -30 0 -19 -19 -18 -26 1 -9 22 3 45 22 45 11
0 14 -5 10 -16z m130 -27 c1 -25 -3 -37 -12 -37 -20 0 -33 32 -23 58 13 34 34
21 35 -21z m-1770 11 c-3 -13 -6 -27 -6 -31 0 -5 -4 -5 -10 -2 -17 10 -12 55
6 55 12 0 15 -6 10 -22z m69 -20 c-10 -46 -19 -52 -35 -24 -16 31 -7 56 20 56
19 0 21 -4 15 -32z m675 12 c0 -11 -4 -20 -10 -20 -5 0 -10 9 -10 20 0 11 5
20 10 20 6 0 10 -9 10 -20z m962 -10 c6 -37 -5 -46 -26 -24 -22 22 -21 54 3
54 13 0 20 -9 23 -30z m-1297 -80 c9 -14 -1 -12 -35 5 -17 9 -30 22 -30 31 0
13 5 12 30 -6 16 -11 32 -25 35 -30z m150 -109 c-45 -178 -91 -301 -114 -301
-3 0 -12 9 -18 19 -10 16 -9 24 6 43 11 13 30 51 44 83 14 33 39 92 55 131 16
39 36 97 43 129 7 32 14 54 16 48 2 -6 -12 -74 -32 -152z m873 105 c-7 -61
-40 -111 -91 -134 -44 -22 -164 -35 -173 -20 -3 4 -35 5 -72 2 l-67 -7 43 48
c23 26 42 55 42 64 0 30 23 41 82 41 l58 0 -6 -29 c-6 -28 12 -55 20 -29 25
84 26 85 22 26 -3 -32 -1 -58 4 -58 10 0 20 36 20 75 1 50 16 61 89 64 l34 1
-5 -44z m-718 14 c0 -6 -16 -8 -41 -4 -33 6 -41 4 -37 -7 2 -8 22 -16 43 -19
21 -3 40 -10 42 -17 3 -8 -11 -10 -52 -6 -46 5 -55 3 -50 -9 4 -10 21 -14 58
-14 41 0 53 -3 55 -17 3 -14 -5 -17 -47 -17 -28 0 -51 -4 -51 -10 0 -5 24 -10
53 -10 54 0 54 0 65 -39 7 -21 12 -42 12 -46 0 -4 -25 -4 -55 0 -46 5 -55 4
-55 -9 0 -13 12 -16 60 -16 53 0 62 -3 70 -22 5 -13 17 -41 26 -63 9 -22 16
-44 15 -48 -1 -5 9 -17 21 -27 20 -16 21 -19 6 -25 -9 -4 -26 -1 -37 5 -15 7
-70 9 -172 5 l-150 -5 7 22 c3 13 15 42 25 64 10 23 32 93 49 155 53 201 47
189 97 189 23 0 43 -5 43 -10z m1027 4 c-3 -3 -12 -4 -19 -1 -8 3 -5 6 6 6 11
1 17 -2 13 -5z m-2287 -28 c0 -30 16 -42 34 -27 10 9 17 5 30 -14 l16 -25 -50
0 -50 0 0 45 c0 25 5 45 10 45 6 0 10 -11 10 -24z m2230 9 c0 -10 11 -15 35
-15 19 0 35 -4 35 -10 0 -5 -8 -9 -17 -8 -33 2 -53 -2 -53 -12 0 -5 17 -11 38
-12 36 -1 36 -1 5 -5 -45 -6 -42 -21 4 -25 24 -2 39 -9 41 -18 2 -12 -7 -14
-48 -12 -32 3 -50 0 -50 -7 0 -6 19 -12 43 -13 23 0 48 -2 56 -2 9 -1 22 -31
36 -81 11 -44 34 -107 51 -140 l29 -59 92 -1 c65 0 93 4 93 12 0 14 -118 28
-150 18 -15 -5 -20 -4 -16 4 9 15 203 15 261 0 93 -23 96 -84 6 -111 -28 -8
-96 -13 -173 -13 -115 0 -129 2 -142 20 -17 24 -4 45 28 45 16 1 12 5 -14 16
-28 12 -67 15 -192 12 l-156 -3 15 35 c9 19 26 69 39 110 13 41 35 108 48 147
14 40 28 88 32 108 6 34 24 49 24 20z m-620 -1 c0 -4 -9 -23 -21 -43 -28 -50
-88 -91 -133 -91 l-37 0 36 36 c21 20 34 42 31 50 -4 9 2 14 15 14 12 0 32 9
46 20 24 19 63 27 63 14z m-615 -22 c-3 -3 -11 0 -18 7 -9 10 -8 11 6 5 10 -3
15 -9 12 -12z m-591 -14 c-18 -58 -24 -66 -54 -73 -46 -10 -59 9 -21 31 17 10
31 24 31 31 0 12 27 32 43 33 5 0 5 -10 1 -22z m474 5 c2 -8 -6 -13 -22 -13
-25 0 -33 10 -19 24 10 10 36 3 41 -11z m1202 3 c0 -8 -5 -18 -11 -22 -17 -10
12 -24 38 -18 21 6 21 5 8 -38 -7 -23 -20 -59 -29 -79 -15 -36 -16 -37 -63
-32 -70 6 -143 24 -143 34 0 5 4 9 8 9 17 0 93 85 109 121 15 34 21 39 50 39
22 0 33 -5 33 -14z m340 -7 c0 -7 7 -17 15 -23 13 -10 14 -22 3 -94 -7 -52
-17 -86 -25 -89 -7 -3 -13 -9 -13 -14 0 -13 34 -11 48 3 10 10 17 10 31 1 13
-8 40 -8 100 -1 69 9 88 8 124 -6 23 -9 60 -16 80 -16 33 0 38 -3 35 -22 -5
-37 19 -31 35 9 14 33 16 35 16 13 1 -14 -6 -38 -14 -54 -8 -15 -15 -37 -15
-47 0 -24 -32 -25 -67 -1 -22 14 -56 18 -188 20 l-161 4 -16 41 c-15 37 -68
245 -68 267 0 8 25 16 63 19 9 0 17 -4 17 -10z m-2210 -19 c0 -5 -2 -10 -4
-10 -3 0 -8 5 -11 10 -3 6 -1 10 4 10 6 0 11 -4 11 -10z m2621 -10 c15 -9 19
-21 18 -73 -1 -102 -6 -117 -39 -117 -16 0 -68 9 -116 21 -70 16 -92 18 -109
9 -23 -12 -59 -11 -58 3 1 4 4 41 8 82 l7 74 62 4 c135 7 208 6 227 -3z m-336
-22 c-4 -13 -9 -40 -12 -61 -5 -36 -23 -63 -23 -33 0 31 24 116 33 116 5 0 6
-10 2 -22z m449 -57 c3 -41 6 -113 6 -161 0 -88 0 -88 -27 -93 -17 -3 -34 0
-43 9 -13 12 -12 18 3 43 14 23 17 54 17 154 0 117 1 126 19 124 16 -1 19 -12
25 -76z m-2805 43 c32 -7 43 -24 15 -24 -9 0 -22 -8 -29 -17 -11 -14 -16 -15
-46 -3 -74 28 -89 35 -89 42 0 10 105 10 149 2z m301 -29 c0 -17 21 -20 37 -4
17 17 24 -6 8 -29 -14 -19 -25 -20 -175 -21 -136 -1 -160 1 -160 13 0 9 13 22
29 31 25 13 41 13 103 4 63 -10 78 -10 103 4 38 20 55 21 55 2z m1120 -10 c0
-9 -9 -15 -21 -15 -18 0 -19 2 -9 15 7 8 16 15 21 15 5 0 9 -7 9 -15z m-172
-32 c-10 -2 -26 -2 -35 0 -10 3 -2 5 17 5 19 0 27 -2 18 -5z m446 -14 c-7 -11
-88 -30 -134 -31 -69 -1 -261 14 -254 21 16 16 398 26 388 10z m-1731 -20 c31
-8 35 -12 24 -23 -7 -8 -36 -16 -63 -19 -27 -3 -58 -6 -68 -8 -14 -3 -19 2
-21 19 -3 38 53 52 128 31z m903 -14 c-5 -13 -25 -15 -126 -13 -66 1 -120 5
-120 10 0 4 42 9 93 9 50 1 106 4 122 8 36 9 39 7 31 -14z m-550 2 c4 -4 -15
-7 -42 -7 -27 0 -95 -3 -151 -7 -71 -4 -103 -2 -103 5 0 16 281 24 296 9z
m1174 -28 c39 -10 134 -3 167 13 25 12 221 2 244 -13 12 -7 11 -15 -7 -46 -21
-36 -24 -38 -79 -41 -72 -3 -174 -29 -197 -49 -10 -9 -18 -24 -18 -35 0 -34
-19 -18 -22 19 -4 53 -31 63 -191 70 -104 5 -135 10 -144 22 -7 9 -13 19 -13
23 0 9 101 38 133 38 14 0 29 5 32 10 6 10 21 8 95 -11z m-235 1 c-3 -5 -13
-10 -21 -10 -8 0 -14 5 -14 10 0 6 9 10 21 10 11 0 17 -4 14 -10z m-965 -55
c-21 -34 -22 -34 -93 -33 -181 1 -287 -28 -287 -80 0 -25 -3 -28 -37 -27 l-38
0 0 50 c0 49 1 50 33 53 33 3 43 18 17 28 -23 9 -18 31 8 37 12 3 92 6 177 7
85 1 173 5 195 9 22 4 41 3 43 -1 2 -4 -6 -24 -18 -43z m501 35 c41 0 49 -3
49 -19 0 -10 -10 -29 -22 -42 -20 -21 -30 -24 -86 -21 -58 4 -64 6 -78 34 -24
47 -12 62 43 54 25 -3 68 -6 94 -6z m1147 -105 c-19 -38 -38 -58 -38 -40 0 7
52 85 56 85 2 0 -6 -20 -18 -45z m-1678 4 c0 -6 11 -25 26 -44 14 -18 21 -35
17 -38 -21 -11 -202 -8 -222 5 -30 18 -26 25 18 32 22 3 46 12 53 19 32 30
108 49 108 26z m1268 -5 c26 -18 28 -40 5 -52 -45 -24 -303 -42 -303 -22 0 6
13 10 28 10 16 0 32 3 36 8 4 4 15 7 24 8 66 4 68 6 27 19 l-40 13 60 2 c76 3
98 1 110 -11 14 -14 25 -11 25 6 0 9 -9 15 -24 15 -14 0 -28 5 -31 10 -10 16
58 12 83 -6z m389 -68 c26 0 72 1 102 4 35 2 56 0 58 -7 7 -20 -38 -26 -176
-26 l-134 1 -22 28 -23 29 51 5 c42 4 56 2 74 -14 15 -13 38 -19 70 -20z
m-1170 18 c-3 -3 -12 -4 -19 -1 -8 3 -5 6 6 6 11 1 17 -2 13 -5z m113 -9 c14
-1 36 -3 50 -4 l25 -3 -25 -8 c-14 -4 -68 -8 -120 -7 -52 0 -78 2 -58 4 20 2
42 11 49 19 7 9 19 12 33 7 12 -3 32 -7 46 -8z m190 5 c0 -5 -15 -10 -32 -9
-28 0 -30 2 -13 9 28 12 45 12 45 0z m1756 -220 l1 -189 -46 6 c-25 3 -47 10
-49 15 -2 4 -24 8 -48 8 -25 0 -44 5 -44 11 0 6 19 10 48 9 70 -3 82 -1 82 10
0 6 -28 10 -65 10 -37 0 -65 4 -65 10 0 6 22 10 49 10 28 0 53 5 56 10 4 6
-17 10 -55 10 -52 0 -60 2 -58 18 2 10 -3 17 -12 17 -8 0 -16 -10 -18 -22 -2
-14 -10 -23 -21 -23 -22 0 -45 -25 -36 -40 3 -5 15 -10 26 -10 11 0 17 -4 14
-10 -3 -5 -17 -10 -30 -10 -41 0 -41 36 -1 123 22 46 42 77 51 77 8 0 15 9 15
21 0 11 16 41 35 66 19 25 35 50 35 54 0 5 30 9 68 9 l67 0 1 -190z m-1536
162 c3 -2 -1 -7 -7 -9 -7 -3 -13 -12 -13 -20 0 -11 7 -14 25 -9 14 4 25 2 25
-4 0 -5 -7 -10 -15 -10 -8 0 -15 -9 -15 -20 0 -17 -5 -19 -25 -14 -14 3 -25 2
-25 -3 0 -18 54 -36 113 -39 79 -4 81 -10 8 -19 -60 -7 -86 -25 -36 -25 31 0
33 -17 3 -22 -29 -4 -36 -28 -8 -28 19 0 70 -36 59 -42 -2 -2 -13 -8 -24 -14
-11 -6 -21 -21 -23 -33 -2 -11 -8 -21 -14 -21 -7 0 -8 13 -5 34 5 32 3 35 -25
41 -23 5 -35 17 -49 49 -11 22 -23 48 -28 56 -18 31 -81 160 -81 165 0 7 153
-5 160 -13z m881 8 c13 0 129 -251 129 -279 0 -6 -7 -11 -15 -11 -24 0 -20
-61 5 -67 24 -6 25 -24 6 -66 -8 -18 -28 -72 -45 -121 -41 -121 -84 -186 -122
-186 -44 0 -93 78 -144 232 -30 93 -31 96 -3 125 19 20 20 27 10 60 -11 36 -9
42 50 153 33 63 67 128 76 143 9 18 19 26 29 23 8 -3 19 -6 24 -6z m-2036 -20
c11 -5 36 -11 55 -13 33 -4 32 -4 -7 -5 -59 -3 -54 -17 10 -29 42 -8 46 -11
20 -12 -18 0 -33 -5 -33 -11 0 -5 15 -11 33 -11 17 -1 24 -3 15 -6 -34 -9 -17
-23 27 -23 25 0 45 -4 45 -10 0 -12 -65 -24 -80 -15 -9 5 -10 1 -5 -15 6 -20
4 -22 -14 -17 -11 3 -23 2 -25 -2 -9 -14 38 -44 66 -43 15 0 28 -4 28 -9 0 -5
-12 -9 -27 -9 -16 0 -38 -3 -50 -6 -18 -5 -20 -9 -12 -28 7 -15 7 -31 -1 -50
l-11 -29 -24 23 c-31 29 -31 37 -3 67 16 17 20 28 13 37 -45 63 -135 214 -135
226 0 10 88 2 115 -10z m499 12 c4 -8 61 -8 81 -1 6 2 11 0 13 -6 2 -5 -11
-13 -28 -16 -17 -4 -34 -9 -37 -13 -10 -10 46 -26 95 -27 26 -1 37 -4 25 -6
-41 -8 -24 -23 25 -23 41 -1 45 -2 29 -14 -9 -7 -44 -17 -77 -20 -63 -7 -76
-30 -15 -24 59 5 49 -10 -12 -18 l-58 -7 35 -10 c23 -7 29 -12 18 -14 -27 -7
-21 -20 13 -32 39 -13 29 -31 -16 -29 -30 1 -39 7 -59 42 -13 23 -31 66 -41
96 -10 30 -26 67 -36 82 -11 14 -19 31 -19 37 0 12 56 15 64 3z m492 -44 c53
-109 86 -173 93 -178 18 -12 21 -44 5 -61 -15 -17 -15 -20 0 -44 16 -24 16
-30 1 -83 -9 -31 -20 -66 -25 -77 -5 -11 -25 -55 -44 -97 -19 -43 -49 -98 -67
-123 -30 -41 -36 -45 -75 -45 -39 0 -45 4 -71 43 -52 77 -89 176 -99 263 -6
44 -3 57 16 83 17 25 20 40 15 69 -5 29 0 49 24 97 16 33 41 87 55 119 36 82
41 86 97 86 l49 0 26 -52z m546 15 c13 -21 39 -75 58 -120 24 -58 39 -83 51
-83 14 0 11 14 -22 91 -22 50 -47 102 -56 115 -8 14 -13 27 -11 30 10 9 87 -8
85 -19 -1 -7 34 -15 95 -22 110 -11 139 -25 55 -25 -86 0 -72 -28 16 -32 37
-1 35 -2 -16 -7 -31 -3 -57 -10 -57 -16 0 -5 26 -12 57 -15 46 -4 53 -7 33
-12 -14 -4 -37 -8 -52 -8 -15 0 -30 -4 -33 -10 -4 -6 13 -10 44 -10 66 0 73
-16 11 -24 -60 -8 -67 -26 -10 -26 22 0 40 -4 40 -10 0 -5 -15 -10 -34 -10
-52 0 -53 -18 -2 -40 48 -20 60 -46 32 -70 -12 -9 -16 -6 -21 23 -6 30 -12 36
-43 43 -21 4 -41 6 -46 5 -5 -1 -17 6 -28 16 -18 16 -20 16 -44 -12 -25 -30
-25 -55 2 -85 11 -13 11 -25 -2 -75 -23 -88 -78 -218 -117 -278 -15 -21 -26
-27 -56 -27 -32 0 -44 7 -77 42 -49 53 -67 85 -92 168 -23 76 -19 141 11 181
13 18 18 37 15 54 -6 31 9 74 69 198 24 48 43 92 43 97 0 6 17 10 39 10 33 0
41 -5 63 -37z m-1124 -5 c11 -18 30 -58 42 -88 24 -62 45 -107 63 -132 9 -14
9 -22 0 -37 -10 -16 -9 -23 8 -42 10 -12 19 -29 19 -37 0 -30 -103 -269 -139
-322 -32 -48 -41 -55 -73 -58 -28 -2 -38 1 -42 16 -4 10 -14 27 -24 38 -36 39
-95 184 -107 267 -5 34 -2 51 15 80 17 29 20 45 15 76 -7 44 4 72 61 151 19
26 39 61 45 78 6 19 19 32 32 35 53 10 66 7 85 -25z m1789 -27 c-1 -11 12 -18
51 -24 34 -6 52 -13 52 -23 0 -10 14 -14 52 -14 63 0 54 -20 -10 -23 -56 -2
-55 -25 1 -30 l42 -4 -48 -1 c-56 -2 -62 -25 -9 -30 37 -4 33 -22 -4 -22 -14
0 -24 -6 -24 -14 0 -20 -19 -25 -71 -19 l-44 5 -47 112 c-27 62 -48 115 -48
117 0 3 25 0 55 -5 40 -8 54 -14 52 -25z m91 2 c-10 -2 -26 -2 -35 0 -10 3 -2
5 17 5 19 0 27 -2 18 -5z m147 -23 c-11 -5 -38 -8 -60 -8 l-40 1 45 7 c64 10
78 10 55 0z m-1200 -10 c3 -5 -3 -10 -15 -10 -12 0 -18 5 -15 10 3 6 10 10 15
10 5 0 12 -4 15 -10z m115 6 c0 -11 -19 -15 -25 -6 -3 5 1 10 9 10 9 0 16 -2
16 -4z m-100 -96 c0 -5 -4 -10 -10 -10 -5 0 -10 5 -10 10 0 6 5 10 10 10 6 0
10 -4 10 -10z m-1097 -7 c-7 -2 -19 -2 -25 0 -7 3 -2 5 12 5 14 0 19 -2 13 -5z
m1164 -15 c-3 -8 -6 -5 -6 6 -1 11 2 17 5 13 3 -3 4 -12 1 -19z m-67 -18 c0
-5 -4 -10 -10 -10 -5 0 -10 5 -10 10 0 6 5 10 10 10 6 0 10 -4 10 -10z m-1147
-61 c6 -23 -17 -87 -26 -72 -8 12 4 93 13 93 4 0 10 -9 13 -21z m2237 17 c0
-11 -19 -15 -25 -6 -3 5 1 10 9 10 9 0 16 -2 16 -4z m-2194 -55 c-9 -17 -19
-31 -22 -31 -2 0 0 9 6 20 6 11 8 25 5 30 -9 15 5 34 17 22 6 -6 4 -21 -6 -41z
m429 20 c-5 -23 -2 -32 14 -40 21 -12 40 2 21 14 -8 5 -7 11 1 21 18 21 29 17
29 -12 0 -32 22 -27 30 7 8 35 36 31 33 -4 -3 -48 -20 -60 -78 -53 -34 5 -55
14 -67 29 -28 35 -21 63 15 66 5 1 6 -12 2 -28z m558 -6 c-3 -13 -9 -22 -14
-19 -10 6 -12 38 -3 47 13 12 21 -3 17 -28z m157 0 c0 -14 -4 -25 -9 -25 -10
0 -21 36 -13 44 12 13 22 5 22 -19z m390 -4 c0 -11 3 -28 6 -38 5 -13 0 -11
-21 8 -27 27 -27 49 1 49 8 0 14 -9 14 -19z m608 -22 c-1 -12 -8 -24 -15 -26
-17 -6 -27 35 -12 53 16 19 32 4 27 -27z m72 15 c0 -13 -22 -44 -30 -44 -6 0
-10 16 -10 35 0 33 2 35 20 25 11 -6 20 -13 20 -16z m-1120 -19 c0 -19 -4 -35
-10 -35 -11 0 -14 53 -3 63 11 12 13 8 13 -28z m490 15 c0 -11 -4 -20 -10 -20
-5 0 -10 9 -10 20 0 11 5 20 10 20 6 0 10 -9 10 -20z m488 3 c-4 -22 -22 -20
-26 1 -2 10 3 16 13 16 10 0 15 -7 13 -17z m232 -54 c11 -6 8 -8 -13 -9 -32 0
-43 -20 -27 -49 16 -32 42 -28 34 5 -5 20 -3 25 7 22 8 -3 14 -19 15 -39 1
-78 17 -170 28 -166 7 3 10 35 8 100 l-4 97 54 0 c29 0 70 3 91 6 l37 7 -5
-158 c-3 -87 -8 -161 -11 -164 -3 -3 -48 -5 -100 -5 -86 2 -96 4 -114 25 -11
13 -23 35 -26 49 -4 14 -12 32 -18 40 -20 25 -54 122 -61 172 -10 77 36 107
105 67z m179 4 c23 -6 23 -7 5 -14 -10 -4 -45 -8 -76 -8 -45 -1 -58 2 -58 14
0 11 12 15 53 15 28 0 63 -3 76 -7z m-873 -23 c13 0 24 -4 24 -10 0 -5 -12
-10 -26 -10 -14 0 -23 -4 -19 -10 3 -5 19 -10 36 -10 16 0 29 -4 29 -10 0 -5
-14 -10 -32 -10 -36 0 -30 -10 14 -26 27 -9 34 -20 58 -87 l27 -77 -83 0 c-49
0 -84 -4 -84 -10 0 -6 36 -10 88 -10 86 0 89 -1 110 -29 l21 -29 -87 -6 c-48
-4 -117 -8 -154 -11 -41 -3 -68 -1 -68 5 0 5 9 33 21 62 37 93 89 256 90 280
0 13 3 17 6 11 2 -7 16 -13 29 -13z m-1174 -10 c-2 -7 -7 -42 -11 -79 -10 -73
-50 -189 -84 -238 -17 -26 -29 -33 -54 -33 -18 0 -33 2 -33 5 0 3 11 24 25 46
27 42 77 152 116 256 13 35 29 61 34 59 6 -2 9 -9 7 -16z m1718 10 c0 -5 -7
-10 -15 -10 -8 0 -15 5 -15 10 0 6 7 10 15 10 8 0 15 -4 15 -10z m-2199 -10
c10 0 19 -7 19 -15 0 -17 -65 -22 -75 -5 -9 15 5 32 22 26 8 -3 23 -6 34 -6z
m1145 3 c-10 -10 -76 -11 -76 -1 0 4 19 8 42 8 23 0 38 -3 34 -7z m-586 -20
c0 -7 -11 -13 -25 -13 -23 0 -32 10 -20 21 10 10 45 4 45 -8z m1005 -66 c-8
-20 -17 -37 -18 -37 -2 0 3 28 12 62 11 41 17 53 19 37 2 -13 -4 -41 -13 -62z
m531 51 c-13 -67 -99 -262 -120 -276 -5 -3 -7 1 -4 9 65 156 88 212 102 252
20 54 31 62 22 15z m114 2 c13 -8 12 -10 -1 -15 -9 -3 -20 -5 -25 -4 -5 1 -17
1 -27 0 -33 -2 -7 -21 29 -21 19 0 34 -4 34 -9 0 -4 -25 -9 -55 -9 -58 0 -62
3 -43 43 8 19 19 25 42 25 17 0 38 -4 46 -10z m-1077 -7 c-7 -2 -21 -2 -30 0
-10 3 -4 5 12 5 17 0 24 -2 18 -5z m-1105 -19 c6 -2 12 -10 12 -17 0 -11 -11
-13 -47 -10 -51 6 -69 15 -59 31 6 9 58 7 94 -4z m547 -5 c-8 -12 -52 -12 -60
0 -3 5 7 11 22 13 33 4 45 0 38 -13z m415 -91 c-17 -51 -43 -112 -56 -135 -27
-46 -64 -75 -64 -50 0 8 6 19 13 25 12 10 63 113 109 220 34 82 33 44 -2 -60z
m164 55 c4 -16 9 -36 12 -45 5 -16 -2 -18 -50 -18 -62 0 -78 -19 -18 -21 40
-1 104 -15 87 -19 -5 -1 -40 -1 -77 0 -38 1 -68 -2 -68 -8 0 -10 138 -27 147
-18 5 5 33 -38 33 -50 0 -2 -35 -4 -77 -4 -60 1 -74 3 -60 11 11 6 38 8 68 4
31 -4 49 -3 49 3 0 14 -24 19 -97 21 -51 1 -63 -2 -63 -14 0 -8 6 -15 13 -15
6 0 4 -5 -5 -11 -10 -5 -18 -15 -18 -20 0 -6 6 -7 13 -3 9 6 9 5 -1 -8 -11
-13 -5 -16 49 -21 34 -3 86 -3 115 0 37 4 54 2 54 -6 0 -8 -47 -11 -161 -11
-88 0 -159 3 -157 8 2 4 16 32 32 62 30 57 79 190 70 190 -3 0 -2 5 1 10 3 6
28 10 55 10 44 0 48 -2 54 -27z m-575 1 c11 -10 -10 -14 -47 -8 -23 4 -39 11
-36 16 6 9 73 2 83 -8z m1637 -19 c12 -3 24 -13 27 -22 2 -10 8 -26 12 -37 8
-17 4 -18 -58 -13 -37 3 -67 2 -67 -3 0 -10 102 -24 122 -18 13 5 58 -70 58
-95 0 -9 -42 -13 -145 -15 -163 -3 -161 -4 -121 69 13 24 31 67 40 95 l17 51
47 -4 c26 -2 57 -6 68 -8z m-1616 -49 c7 -23 17 -47 22 -53 8 -10 -6 -13 -66
-13 -42 0 -76 -4 -76 -9 0 -12 80 -21 122 -15 27 5 37 2 41 -10 6 -14 -4 -16
-66 -17 -40 0 -81 -4 -92 -9 -37 -15 10 -23 96 -17 70 6 80 4 88 -12 6 -10 7
-21 4 -25 -3 -3 -66 -6 -140 -6 l-133 0 20 40 c11 21 29 64 41 95 l21 57 49
-4 c30 -2 48 1 46 7 -2 6 -22 11 -45 13 -59 4 -53 23 7 21 48 -2 49 -3 61 -43z
m935 -3 c-10 -42 -67 -163 -76 -163 -13 0 -12 3 25 77 18 37 37 78 40 91 10
32 19 27 11 -5z m-1687 -24 c-6 -16 -12 -28 -14 -26 -5 5 13 57 20 57 3 0 0
-14 -6 -31z"/>
<g>
<path d="M1258 5103 c-34 -5 -38 -33 -5 -33 16 0 29 -13 50 -49 37 -66 36 -89
-5 -93 -17 -2 -33 -9 -35 -15 -4 -10 42 -12 199 -10 173 2 203 4 203 17 0 8
-10 16 -22 18 -21 3 -23 9 -23 60 0 47 4 61 23 77 l22 19 -31 7 c-17 3 -69 5
-115 4 -149 -4 -140 -2 -133 -29 6 -24 -10 -66 -25 -66 -15 0 -33 52 -21 64
31 31 1 41 -82 29z m194 -55 c2 -13 1 -42 -1 -65 -3 -40 -5 -43 -32 -43 -35 0
-36 9 -7 77 23 57 35 66 40 31z m66 -46 c2 -51 0 -62 -13 -62 -12 0 -15 13
-15 66 0 48 3 65 13 62 7 -3 13 -28 15 -66z m62 1 c0 -39 -4 -63 -9 -57 -10
10 -21 111 -13 119 16 15 22 -2 22 -62z"/>
</g>
<g>
<path d="M573 4389 c-65 -25 -142 -98 -179 -169 -24 -47 -29 -66 -28 -130 2
-218 189 -363 403 -315 62 15 77 23 147 84 75 67 125 131 123 161 0 13 -1 13
-6 0 -3 -8 -22 -37 -41 -64 -95 -130 -299 -129 -398 1 -90 118 -56 284 73 360
42 24 58 28 126 28 l78 0 -25 22 c-54 46 -182 57 -273 22z m217 -10 c11 -6 9
-8 -11 -9 -67 0 -133 -31 -189 -89 -66 -68 -86 -120 -77 -209 13 -146 122
-241 277 -242 l75 -1 -40 -22 c-61 -33 -190 -31 -266 4 -95 45 -152 118 -170
219 -17 96 0 165 58 242 50 65 88 92 164 113 55 15 149 12 179 -6z"/>
</g>
<g>
<path d="M916 4317 c79 -42 115 -103 124 -207 l7 -75 1 67 c1 37 -3 79 -8 94
-17 44 -70 103 -111 124 -53 27 -64 24 -13 -3z"/>
</g>
<g>
<path d="M655 4199 c-10 -15 2 -24 17 -11 7 5 27 12 43 15 24 3 22 4 -12 6
-23 0 -45 -4 -48 -10z"/>
</g>
<g>
<path d="M853 4203 c-27 -10 -11 -18 36 -18 38 0 47 3 39 13 -10 12 -51 15
-75 5z"/>
</g>
<g>
<path d="M735 4161 c-6 -5 -21 -11 -35 -13 l-25 -5 25 -10 c27 -12 56 4 49 26
-3 8 -8 8 -14 2z"/>
</g>
<g>
<path d="M910 4149 c0 -7 -10 -9 -25 -5 -14 4 -25 2 -25 -3 0 -16 52 -23 61
-9 12 18 11 28 -1 28 -5 0 -10 -5 -10 -11z"/>
</g>
<g>
<path d="M825 4030 c3 -5 8 -10 11 -10 2 0 4 5 4 10 0 6 -5 10 -11 10 -5 0 -7
-4 -4 -10z"/>
</g>
<g>
<path d="M760 3979 c-18 -5 -7 -7 38 -8 35 -1 61 3 58 8 -7 11 -61 11 -96 0z"/>
</g>
<g>
<path d="M1680 1901 c0 -12 37 -24 50 -16 20 12 10 25 -20 25 -16 0 -30 -4
-30 -9z"/>
</g>
<g>
<path d="M2855 1805 c-5 -1 -45 -11 -88 -20 -70 -16 -97 -29 -85 -41 3 -2 40
5 83 15 57 15 96 18 142 14 54 -5 63 -4 63 11 0 12 -9 16 -39 16 -22 0 -45 2
-53 4 -7 3 -17 3 -23 1z"/>
</g>
<g>
<path d="M2110 1730 c0 -6 27 -10 61 -10 37 0 58 4 54 10 -3 6 -31 10 -61 10
-30 0 -54 -4 -54 -10z"/>
</g>
<g>
<path d="M650 1205 c13 -16 70 -21 70 -6 0 9 -34 21 -64 21 -15 0 -16 -3 -6
-15z"/>
</g>
<g>
<path d="M662 1033 c-18 -3 -30 -9 -27 -14 8 -12 115 -12 115 1 0 6 -6 10 -14
10 -8 0 -20 2 -28 3 -7 2 -28 2 -46 0z"/>
</g>
<g>
<path d="M558 874 c-19 -18 13 -24 123 -24 73 0 119 4 119 10 0 6 -39 10 -97
10 -54 0 -107 3 -118 6 -11 3 -24 2 -27 -2z"/>
</g>
<g>
<path d="M1237 1103 c-16 -15 -5 -23 33 -23 43 0 54 14 18 24 -30 8 -43 7 -51
-1z"/>
</g>
<g>
<path d="M1120 870 c0 -6 52 -10 135 -10 83 0 135 4 135 10 0 6 -52 10 -135
10 -83 0 -135 -4 -135 -10z"/>
</g>
<g>
<path d="M2240 1070 c0 -6 29 -10 68 -10 47 0 63 3 52 10 -20 13 -120 13 -120
0z"/>
</g>
<g>
<path d="M2286 1011 c13 -12 94 -23 94 -12 0 13 -26 21 -68 21 -21 0 -32 -4
-26 -9z"/>
</g>
<g>
<path d="M2160 865 c0 -13 21 -15 130 -15 72 0 130 4 130 9 0 15 -41 21 -152
21 -89 0 -108 -3 -108 -15z"/>
</g>
<g>
<path d="M2778 595 c-14 -15 2 -23 40 -20 20 1 29 1 20 -2 -33 -8 -18 -23 22
-23 39 0 63 20 46 37 -10 10 -120 16 -128 8z"/>
</g>
<g>
<path d="M2820 310 c0 -5 7 -10 15 -10 8 0 15 5 15 10 0 6 -7 10 -15 10 -8 0
-15 -4 -15 -10z"/>
</g>
<g>
<path d="M2050 260 c0 -5 11 -10 25 -10 14 0 25 5 25 10 0 6 -11 10 -25 10
-14 0 -25 -4 -25 -10z"/>
</g>
<g>
<path d="M2047 234 c-12 -12 4 -24 34 -24 34 0 39 15 7 24 -29 7 -33 7 -41 0z"/>
</g>
<g>
<path d="M2000 181 c0 -10 51 -22 64 -14 4 3 2 9 -5 14 -18 11 -59 11 -59 0z"/>
</g>
<g>
<path d="M1960 72 c0 -14 51 -22 146 -22 49 0 84 4 84 10 0 6 -17 10 -37 10
-21 1 -73 3 -115 7 -49 3 -78 2 -78 -5z"/>
</g>
<g>
<path d="M1460 260 c0 -5 21 -10 46 -10 27 0 43 4 39 10 -3 6 -24 10 -46 10
-21 0 -39 -4 -39 -10z"/>
</g>
<g>
<path d="M2553 222 c-41 -6 -24 -22 22 -22 25 0 45 4 45 9 0 11 -37 18 -67 13z"/>
</g>
<g>
<path d="M2540 131 c0 -9 110 -21 120 -13 2 1 -2 7 -10 12 -19 12 -110 13
-110 1z"/>
</g>
<g>
<path d="M880 170 c0 -5 23 -10 51 -10 31 0 48 4 44 10 -3 6 -26 10 -51 10
-24 0 -44 -4 -44 -10z"/>
</g>
</g>
<g>
<path d="M318 124 c-16 -16 -5 -19 77 -22 56 -2 85 0 85 7 0 6 -8 11 -19 11
-10 0 -45 3 -77 6 -32 3 -62 3 -66 -2z"/>
</g>
<g>
<path d="M43 3 c9 -2 23 -2 30 0 6 3 -1 5 -18 5 -16 0 -22 -2 -12 -5z"/>
</g>
<g>
<path d="M488 3 c6 -2 18 -2 25 0 6 3 1 5 -13 5 -14 0 -19 -2 -12 -5z"/>
</g>
</g>
</svg>
