<?xml version="1.0" standalone="no"?>
<!DOCTYPE svg PUBLIC "-//W3C//DTD SVG 20010904//EN"
 "http://www.w3.org/TR/2001/REC-SVG-20010904/DTD/svg10.dtd">
<svg version="1.0" xmlns="http://www.w3.org/2000/svg"
 width="300.000000pt" height="518.000000pt" viewBox="0 0 300.000000 518.000000"
 preserveAspectRatio="xMidYMid meet">
<metadata>
Created by potrace 1.15, written by Peter Selinger 2001-2017
</metadata>
<g transform="translate(0.000000,518.000000) scale(0.100000,-0.100000)"
fill="#000000" stroke="none">
<g>
<path d="M0 2590 c0 -2298 2 -2590 15 -2590 8 0 15 5 15 10 0 13 47 13 55 0 3
-5 14 -10 23 -10 14 0 15 2 2 10 -18 11 -14 14 29 26 44 12 55 36 13 28 -17
-4 -32 -1 -36 5 -4 6 -20 11 -36 11 -41 0 -60 10 -60 31 0 22 28 26 36 4 4 -9
14 -13 28 -10 11 3 45 1 74 -3 29 -5 55 -5 58 -1 3 5 -6 9 -19 9 -13 0 -32 10
-43 22 -19 21 -19 21 1 13 11 -4 83 -9 160 -10 77 -2 149 -4 160 -6 13 -3 19
1 17 10 -2 11 19 12 128 6 73 -4 146 -11 162 -16 58 -16 175 -22 183 -10 4 7
5 14 4 16 -2 1 -65 8 -141 14 -75 7 -149 16 -165 20 l-28 8 37 8 c20 4 82 5
138 2 74 -4 100 -2 97 6 -2 8 -45 13 -128 15 -141 3 -171 -1 -163 -23 5 -12
-5 -15 -59 -15 -36 0 -69 5 -72 10 -3 6 -41 10 -84 10 -54 0 -79 4 -80 13 -2
6 -5 76 -8 154 l-4 141 58 7 c87 10 96 19 21 23 -77 3 -79 6 -75 95 2 52 4 57
25 57 13 0 22 6 22 16 0 13 13 15 88 12 48 -2 94 -6 102 -8 10 -3 14 1 12 13
-2 12 4 17 23 17 14 0 25 -5 25 -11 0 -7 16 -9 48 -4 26 3 73 6 106 5 46 -1
57 2 53 13 -4 12 7 13 64 9 41 -3 69 -1 69 5 0 12 -212 37 -240 28 -19 -6 -20
-2 -20 77 l0 84 34 -4 c26 -3 39 2 58 23 21 23 29 25 46 16 11 -6 34 -11 50
-11 50 0 92 -12 92 -26 0 -17 3 -17 -59 -3 -45 9 -55 8 -85 -10 -18 -12 -50
-21 -70 -21 -25 0 -36 -5 -36 -14 0 -19 63 -11 108 15 28 16 39 17 87 7 46 -9
56 -15 62 -36 10 -40 -5 -200 -22 -232 -15 -29 -18 -30 -88 -31 -140 -2 -232
3 -245 13 -8 7 -38 8 -79 5 -41 -4 -71 -3 -79 4 -16 13 -64 -16 -64 -38 0 -12
7 -14 28 -9 78 20 153 26 172 16 11 -6 87 -13 168 -16 81 -3 148 -7 149 -8 1
-1 0 -11 -3 -22 -5 -20 -15 -21 -212 -28 -180 -6 -238 -14 -221 -30 2 -2 60
-1 128 3 68 3 149 3 180 0 l56 -6 -62 -2 c-45 -1 -63 -5 -63 -14 0 -10 20 -13
83 -11 45 2 84 3 86 4 2 0 -2 7 -9 15 -10 12 -10 15 3 15 8 0 17 -9 20 -20 4
-17 11 -19 39 -14 59 12 132 43 160 69 20 18 38 25 68 25 36 0 41 2 35 19 -5
17 0 21 30 27 48 9 140 -3 168 -21 38 -25 118 -38 145 -24 19 11 22 18 16 43
-3 17 -11 36 -16 43 -13 17 17 60 46 65 13 3 43 2 67 -2 24 -4 38 -8 32 -9
-30 -3 -10 -21 22 -21 43 0 95 25 95 45 0 9 9 15 23 15 12 0 33 3 47 7 23 6
24 5 11 -11 -13 -15 -12 -18 7 -23 25 -6 30 -23 7 -23 -9 0 -12 -6 -8 -17 5
-14 1 -15 -36 -9 -33 5 -43 3 -48 -10 -9 -25 8 -33 59 -27 32 4 48 11 51 23 4
17 58 31 171 46 27 3 59 12 72 21 20 13 26 13 53 -1 16 -9 38 -16 49 -16 10 0
26 -6 36 -13 16 -12 16 -14 2 -26 -23 -19 -20 -33 7 -29 16 2 21 9 20 24 -3
25 24 34 113 39 l52 3 -11 -34 c-6 -19 -7 -37 -4 -41 12 -12 30 15 31 46 1 20
5 29 13 27 6 -3 29 -8 50 -12 21 -3 45 -12 53 -20 24 -21 98 -34 109 -20 7 9
7 16 0 23 -6 6 -8 17 -4 23 5 8 14 4 29 -15 21 -26 26 -27 116 -29 62 -1 95
-5 97 -13 5 -15 -81 -21 -152 -11 -62 9 -125 0 -125 -18 0 -11 -20 -14 -82
-16 -99 -2 -115 -2 -148 3 -17 3 -25 -1 -25 -11 0 -9 9 -15 22 -15 12 0 25 -4
29 -7 12 -12 208 4 225 18 16 14 143 23 156 11 3 -4 -8 -7 -25 -7 -17 0 -37
-6 -44 -14 -8 -7 -54 -18 -102 -24 -49 -5 -92 -15 -96 -22 -5 -8 -56 -14 -154
-17 -142 -6 -146 -5 -146 14 0 17 -9 22 -51 27 -32 4 -56 3 -62 -3 -14 -14
-97 -14 -228 0 -93 9 -105 8 -116 -7 -11 -15 -29 -16 -175 -10 -221 9 -278 15
-278 31 0 7 -10 15 -22 19 -36 9 -98 7 -98 -4 0 -5 7 -10 16 -10 8 0 13 -4 10
-9 -3 -5 0 -13 7 -19 12 -10 232 -29 346 -30 65 -1 98 -15 72 -32 -15 -9 -51
-7 -196 11 -115 14 -150 11 -150 -16 0 -29 -49 -32 -397 -30 -164 1 -298 -1
-298 -4 0 -4 12 -12 28 -18 24 -10 25 -11 5 -12 -12 -1 -25 3 -28 9 -9 14 -92
13 -118 -2 -12 -6 -64 -12 -114 -12 -57 -1 -92 -5 -90 -11 4 -16 199 -13 231
5 20 10 29 11 34 3 9 -15 534 -23 529 -8 -2 6 -69 11 -166 13 -102 1 -160 6
-156 12 7 11 239 13 386 4 81 -6 96 -9 94 -23 -2 -13 -13 -16 -54 -14 -28 1
-51 -1 -51 -6 0 -13 102 -23 147 -15 32 5 36 4 25 -7 -10 -11 -60 -15 -200
-19 -186 -5 -187 -5 -186 -27 1 -25 5 -24 -201 -28 -177 -4 -325 -17 -325 -30
0 -17 121 -30 149 -16 11 6 117 14 245 18 218 6 225 7 228 27 3 20 9 21 119
22 130 1 214 22 224 55 8 23 -1 39 -21 39 -8 0 -12 5 -9 10 4 6 23 7 46 4 27
-5 39 -3 39 6 0 6 -9 14 -20 17 -11 3 -20 8 -20 12 0 8 561 4 569 -4 3 -4 -2
-12 -12 -19 -9 -7 -17 -20 -17 -28 0 -15 -56 -28 -119 -28 -38 0 -70 -25 -53
-41 6 -7 12 -15 12 -19 0 -3 -51 -6 -114 -7 -121 -3 -169 -13 -160 -36 4 -11
-6 -16 -38 -21 -59 -8 -373 -28 -480 -30 -59 -1 -91 -6 -100 -15 -11 -11 14
-12 162 -7 96 4 252 14 346 22 224 20 255 18 273 -20 l14 -29 169 7 c160 6
169 6 166 -11 -2 -14 -14 -19 -53 -21 -28 -1 -84 -9 -125 -17 -41 -7 -116 -17
-167 -20 -84 -6 -92 -5 -102 13 -17 32 -98 39 -350 33 -59 -1 -144 -11 -195
-23 -149 -33 -213 -39 -375 -33 -125 5 -152 4 -149 -7 11 -31 386 -26 498 6
30 9 80 19 110 22 30 3 61 7 68 10 7 2 21 -2 32 -8 14 -9 44 -9 127 1 108 12
108 12 158 -14 49 -25 53 -26 180 -19 72 3 155 12 186 20 31 8 87 14 123 14
59 0 68 3 74 21 8 20 9 20 25 4 12 -12 41 -19 97 -22 46 -4 84 -11 90 -19 19
-22 -8 -27 -76 -13 -52 10 -84 10 -157 1 -164 -22 -505 -35 -562 -23 -65 15
-387 10 -392 -5 -3 -8 38 -10 139 -7 92 3 181 0 249 -10 67 -8 127 -11 160 -6
30 4 97 8 149 9 52 0 147 7 210 14 74 9 147 11 204 6 49 -4 103 -3 120 1 17 5
43 11 57 13 15 4 29 14 32 26 4 17 13 20 69 20 44 0 71 -5 88 -17 21 -15 54
-19 190 -23 l165 -5 -3 -37 c-2 -28 1 -38 12 -38 13 0 15 293 14 2593 0 1425
-4 2563 -8 2527 -8 -67 -13 -219 -13 -350 0 -41 0 -298 0 -570 1 -272 2 -586
3 -697 1 -141 -2 -203 -9 -203 -6 0 -11 14 -11 31 0 16 -5 50 -11 74 -8 32 -8
53 1 79 21 66 -34 110 -99 79 -35 -18 -36 -19 -36 -78 -1 -130 -4 -145 -24
-145 -17 0 -18 10 -18 136 0 132 -1 137 -25 161 -50 49 -128 1 -114 -69 10
-46 8 -90 -3 -101 -5 -5 -41 -12 -79 -15 -61 -4 -71 -2 -80 14 -13 26 -23 172
-11 179 19 12 9 75 -16 100 -31 32 -56 31 -94 -1 -33 -27 -43 -78 -20 -101 8
-8 8 -36 -1 -102 l-13 -91 -87 0 -87 0 -6 57 c-3 32 -2 62 3 67 18 18 10 62
-15 86 -20 18 -31 22 -61 17 -49 -8 -67 -28 -65 -69 3 -65 1 -183 -4 -215 -6
-31 -8 -33 -48 -32 -23 0 -60 3 -82 7 l-40 7 -16 77 c-8 43 -12 83 -7 90 10
16 10 70 0 83 -10 14 -59 35 -83 35 -11 0 -31 -11 -44 -25 -29 -28 -34 -85
-10 -105 12 -10 15 -37 15 -126 l0 -114 -39 0 c-39 0 -39 1 -51 50 -18 73 -62
109 -138 112 -177 5 -202 10 -202 44 0 19 17 18 28 -2 11 -19 89 -29 108 -13
9 7 19 6 36 -4 18 -11 104 -16 125 -8 2 1 -5 10 -14 20 -12 14 -24 18 -45 14
-21 -4 -28 -2 -28 11 0 10 9 16 25 16 14 0 25 5 25 10 0 6 -7 10 -15 10 -21 0
-65 22 -65 32 0 5 14 7 30 3 17 -4 30 -4 30 -2 0 14 -62 65 -86 71 l-26 7 7
79 c6 73 6 79 -14 89 -30 17 -26 32 7 26 26 -6 26 -6 7 10 -11 8 -26 13 -34
10 -8 -3 -28 8 -47 26 -22 21 -39 30 -53 26 -12 -3 -22 1 -25 9 -6 15 -44 18
-95 8 -37 -8 -41 -24 -6 -24 14 0 25 -4 25 -10 0 -5 -6 -10 -14 -10 -7 0 -19
-7 -26 -15 -7 -8 -17 -15 -22 -15 -6 0 -5 7 2 15 15 18 14 18 -27 6 -35 -10
-57 3 -23 14 11 4 18 10 15 15 -10 16 -103 -28 -144 -69 -51 -51 -62 -115 -32
-175 11 -21 18 -43 15 -48 -3 -5 -1 -15 6 -23 6 -7 10 -31 8 -52 -3 -33 0 -38
17 -36 10 1 25 -7 33 -18 7 -10 23 -19 35 -19 25 0 12 -16 -18 -22 -11 -2 -19
-11 -19 -21 1 -9 -2 -14 -7 -12 -12 8 -30 -31 -23 -50 4 -9 13 -14 20 -11 9 4
14 -2 14 -15 0 -11 -4 -18 -9 -15 -5 4 -1 -12 10 -33 21 -45 23 -51 10 -51 -5
0 -11 14 -15 31 -6 31 -30 37 -32 8 0 -8 -6 -27 -12 -42 -7 -16 -12 -35 -12
-43 0 -24 24 -10 30 17 5 21 7 22 13 6 12 -31 8 -76 -9 -102 -22 -33 -31 -32
-26 4 6 41 -15 48 -27 9 -9 -32 -9 -32 -10 16 -1 43 -3 48 -21 43 -11 -3 -23
-1 -26 5 -3 5 4 12 16 15 17 5 21 12 18 42 -2 30 -7 36 -25 35 -18 -1 -21 2
-13 16 5 10 7 20 3 23 -3 4 0 13 7 22 7 8 10 15 7 15 -20 0 53 54 73 55 32 0
33 19 1 23 -72 11 -144 -38 -157 -107 -6 -27 -11 -31 -39 -31 -39 0 -45 11
-45 85 0 30 -5 66 -12 79 -9 21 -8 29 5 44 24 26 21 55 -7 81 -18 17 -33 22
-67 19 -36 -2 -46 -8 -60 -33 -15 -25 -16 -37 -7 -71 8 -27 8 -67 2 -125 l-9
-84 -65 -6 c-36 -3 -69 -3 -74 -1 -5 3 -6 41 -2 85 6 67 4 83 -10 98 -21 23
-66 24 -99 3 -25 -16 -25 -16 -24 -183 l1 -166 -32 -25 c-94 -72 -102 -83 -93
-120 12 -42 27 -42 90 1 l43 30 0 -50 c0 -37 4 -53 17 -60 16 -9 19 -34 23
-243 4 -155 2 -235 -5 -240 -25 -18 -33 -3 -50 85 -9 50 -21 107 -27 125 -7
23 -6 37 2 47 6 7 10 33 8 56 -2 32 -9 47 -31 62 -25 19 -30 20 -64 8 -21 -8
-43 -20 -50 -27 -23 -22 -27 -71 -9 -99 14 -21 16 -48 14 -163 l-3 -137 -28
-3 c-21 -3 -27 1 -27 15 0 10 -1 95 -2 188 -3 389 14 2561 20 2567 10 9 448
12 902 6 212 -3 617 0 900 7 l515 11 -1177 2 -1178 2 0 -2590z m1000 1286 c0
-2 -8 -10 -17 -17 -16 -13 -17 -12 -4 4 13 16 21 21 21 13z m370 -97 c0 -10
-4 -19 -10 -19 -5 0 -10 12 -10 26 0 14 4 23 10 19 6 -3 10 -15 10 -26z m-316
-75 c32 -8 123 12 176 37 57 28 74 18 25 -13 -36 -23 -74 -58 -63 -58 13 0 86
41 98 55 10 12 16 13 26 4 25 -20 10 -69 -20 -69 -6 0 -5 5 2 12 7 7 12 19 12
27 0 10 -11 4 -33 -17 -59 -57 -186 -92 -281 -78 -63 10 -58 27 4 19 37 -4 55
-2 68 9 9 9 32 19 49 23 18 3 36 11 40 17 4 8 0 9 -13 3 -52 -23 -144 -17
-144 9 0 17 -27 28 -51 21 -14 -5 -22 1 -29 21 -12 30 -6 44 12 26 19 -19 30
-14 22 10 -6 19 0 17 34 -14 23 -21 52 -40 66 -44z m106 36 c-22 -14 -97 -23
-112 -14 -8 6 4 11 37 15 85 10 92 10 75 -1z m1261 0 c24 -13 25 -56 2 -68
-25 -15 -63 6 -63 34 0 13 8 28 18 33 21 13 20 13 43 1z m-1438 -79 c10 -11 7
-13 -13 -7 -14 3 -29 6 -33 6 -5 0 -6 4 -3 9 8 12 33 8 49 -8z m1118 -1 c18 0
10 -69 -9 -79 -23 -12 -65 7 -70 31 -4 22 35 61 55 54 8 -3 19 -6 24 -6z
m-331 -45 l24 -25 -21 -28 c-36 -49 -97 -38 -95 18 2 62 50 80 92 35z m660
-37 c0 -29 3 -70 6 -90 6 -34 4 -38 -15 -38 -22 0 -22 -1 -25 100 -2 53 7 80
25 80 5 0 9 -24 9 -52z m312 17 c14 -31 -3 -55 -39 -55 -29 0 -37 18 -24 53
13 35 47 36 63 2z m-2114 -1 c41 -29 15 -94 -38 -94 -53 0 -67 80 -17 100 30
12 30 12 55 -6z m594 -6 c3 -45 -3 -63 -27 -88 -24 -25 -24 -50 0 -30 8 7 18
1 32 -18 19 -26 20 -28 2 -70 -10 -23 -25 -45 -34 -48 -14 -6 -22 -34 -9 -34
21 0 62 45 72 79 13 42 45 62 65 42 9 -9 5 -17 -14 -34 -29 -25 -131 -159
-154 -203 -8 -16 -15 -43 -15 -61 0 -41 -9 -63 -26 -63 -18 0 -30 26 -38 83
-4 26 -12 47 -17 47 -15 0 -49 87 -49 126 0 19 5 34 10 34 6 0 10 -11 10 -26
0 -48 113 -70 128 -24 4 10 -4 12 -29 8 -19 -3 -40 -3 -46 -1 -20 7 -62 99
-56 123 5 19 7 20 29 5 31 -20 57 -19 85 5 25 20 11 27 -20 10 -13 -6 -27 -5
-45 3 -33 15 -34 31 0 24 21 -4 84 17 84 28 0 5 -93 -2 -110 -8 -10 -4 -26 9
-47 38 l-31 43 56 1 c32 1 80 7 107 15 72 21 85 20 87 -6z m1698 -73 c0 -37
-25 -51 -53 -30 -36 26 -9 79 34 68 14 -4 19 -15 19 -38z m-806 -2 c3 -21 6
-64 6 -95 0 -51 -2 -58 -20 -58 -11 0 -20 7 -20 15 0 9 -10 15 -27 16 -23 1
-25 2 -8 7 11 4 19 14 19 22 -1 8 -2 25 -3 37 0 12 -9 24 -18 26 -13 3 -11 5
6 6 16 1 21 5 17 16 -3 8 -1 15 4 15 6 0 10 7 10 15 0 32 28 14 34 -22z m-709
-3 c-3 -5 -15 -10 -26 -10 -11 0 -17 5 -14 10 3 6 15 10 26 10 11 0 17 -4 14
-10z m387 -83 c18 -105 17 -112 -18 -115 -30 -3 -31 -2 -32 40 -1 24 -7 45
-12 46 -7 3 -7 9 1 19 10 12 10 16 -2 24 -10 6 -10 9 -1 9 7 0 12 13 12 29 0
32 20 46 33 24 5 -7 13 -41 19 -76z m950 29 c10 -114 -1 -129 -72 -106 l-25 8
28 1 c29 1 38 20 10 22 -17 1 -17 2 0 6 9 2 17 9 17 15 0 5 -7 8 -15 5 -8 -4
-17 -2 -20 3 -4 6 3 10 14 10 17 0 21 7 22 33 1 17 2 37 4 42 1 6 3 13 3 18 1
4 8 7 16 7 9 0 15 -19 18 -64z m-2404 18 c30 -21 29 -61 -4 -87 -26 -20 -26
-21 -7 -28 15 -5 19 -14 16 -32 -3 -13 0 -41 6 -63 9 -32 8 -41 -5 -54 -13
-11 -18 -12 -21 -2 -3 6 -12 12 -20 12 -12 0 -13 3 -4 14 9 10 9 16 1 21 -8 5
-8 11 -1 19 6 7 8 16 4 20 -4 4 -9 24 -10 44 -1 20 -7 38 -13 40 -18 6 -12 90
8 101 23 14 24 14 50 -5z m302 -28 c0 -24 3 -64 6 -90 l7 -46 -49 1 c-27 1
-41 3 -31 6 15 4 18 11 13 31 -4 15 -9 50 -12 79 -5 44 -3 52 13 56 48 12 53
9 53 -37z m2273 -13 c3 -5 8 -29 12 -55 7 -47 7 -48 -19 -48 -14 0 -26 5 -26
10 0 6 -8 11 -17 11 -16 1 -16 2 0 6 10 3 16 11 13 18 -3 8 0 16 7 19 9 5 9 7
0 12 -7 3 -9 12 -6 20 5 15 29 19 36 7z m-1407 -16 c4 -4 0 -7 -9 -7 -9 0 -17
-4 -17 -10 0 -5 10 -10 22 -10 21 0 21 0 2 -15 -18 -14 -18 -14 6 -16 14 -1
31 -1 38 0 6 1 12 -3 12 -9 0 -5 -6 -9 -12 -7 -7 1 -13 -5 -13 -13 0 -9 7 -14
18 -12 10 2 17 -3 17 -13 0 -8 -9 -15 -20 -15 -16 0 -19 -6 -16 -31 3 -27 -1
-49 -22 -109 -3 -8 -6 -28 -6 -44 -1 -31 -26 -50 -26 -19 0 10 -7 31 -15 47
-8 15 -12 39 -9 52 9 36 -15 30 -31 -8 -11 -28 -11 -34 0 -41 14 -7 32 -74 23
-83 -11 -10 -38 9 -38 27 0 10 -4 19 -10 19 -5 0 -10 -16 -10 -35 0 -19 -5
-35 -10 -35 -6 0 -9 -6 -8 -12 2 -8 -6 -12 -19 -11 -16 2 -23 -3 -23 -14 0
-10 -3 -13 -9 -7 -4 5 -4 49 2 99 5 50 9 109 8 133 -1 39 1 43 19 37 12 -4 20
-2 20 5 0 6 -4 8 -10 5 -5 -3 -10 -2 -10 3 0 21 -40 20 -55 -1 -11 -15 -15
-17 -15 -6 0 8 7 25 16 37 12 18 19 20 29 12 16 -14 35 -5 35 16 0 16 16 19
25 4 4 -6 11 -7 17 -4 6 4 5 9 -3 15 -7 4 -14 25 -14 46 l0 38 57 0 c31 -1 60
-4 64 -8z m1104 -13 l0 -24 -225 0 -225 0 0 25 0 25 225 -1 225 -2 0 -23z
m-1259 -27 c-10 -9 -11 -8 -5 6 3 10 9 15 12 12 3 -3 0 -11 -7 -18z m1249 -25
c0 -4 -16 -6 -35 -4 -19 2 -35 6 -35 8 0 2 16 4 35 4 19 0 35 -4 35 -8z m-700
-12 c0 -5 -15 -10 -32 -10 -25 0 -29 3 -18 10 20 13 50 13 50 0z m550 -30 c0
-34 -3 -40 -21 -40 -17 0 -19 -3 -10 -14 9 -11 11 -125 8 -443 -7 -825 -28
-2048 -35 -2055 -9 -9 -7 1423 2 2010 7 426 7 462 -8 462 -15 0 -17 -27 -16
-297 1 -391 -18 -2174 -23 -2179 -6 -6 -18 1696 -13 1705 3 5 6 182 6 395 l1
386 27 15 27 14 -34 1 c-33 0 -34 1 -15 15 17 13 17 14 2 15 -12 0 -18 8 -18
25 0 24 3 25 60 25 l60 0 0 -40z m-253 17 l103 -2 0 -29 0 -29 -61 7 c-34 3
-91 6 -125 6 l-64 0 0 30 c0 26 3 30 23 25 12 -3 68 -6 124 -8z m641 -13 c83
-6 90 -10 76 -48 -5 -13 -22 -14 -102 -10 -54 3 -151 6 -217 7 l-120 2 -1 25
c-1 14 0 28 2 31 4 7 222 2 362 -7z m-810 -25 c3 -25 2 -25 -100 -37 -102 -13
-262 -38 -305 -49 -21 -5 -23 -2 -23 35 l0 41 43 -1 c23 0 112 9 197 20 85 11
162 19 170 18 8 0 16 -13 18 -27z m-1278 -19 c0 -16 -7 -20 -32 -20 -18 -1
-91 -5 -163 -10 -131 -9 -144 -6 -145 27 0 13 53 17 243 21 91 2 97 1 97 -18z
m2230 -25 l0 -35 -100 0 c-83 0 -100 3 -100 15 0 13 12 14 79 9 l78 -7 7 27
c10 40 36 33 36 -9z m-2160 16 c0 -11 -26 -22 -34 -14 -12 12 -5 23 14 23 11
0 20 -4 20 -9z m749 -28 c-1 -21 -5 -51 -10 -68 -6 -23 -7 -18 -4 22 2 29 0
55 -6 58 -11 7 -3 25 12 25 5 0 8 -17 8 -37z m543 -18 c-2 -22 -5 -41 -6 -43
-2 -1 -14 2 -27 7 -13 5 -18 10 -11 10 21 1 13 21 -8 21 -11 0 -24 -8 -27 -17
-6 -15 -8 -14 -13 7 -8 33 24 61 65 57 29 -2 30 -4 27 -42z m208 -353 l0 -393
-27 -47 c-15 -26 -39 -62 -55 -80 -33 -38 -32 -35 -12 -94 11 -34 14 -75 12
-150 l-3 -103 -35 -5 c-33 -5 -35 -7 -38 -47 -7 -90 -19 -37 -25 105 -11 250
-9 1095 3 1127 6 15 8 36 5 46 -11 33 4 39 91 36 l84 -2 0 -393z m226 371 c1
-7 2 -17 3 -23 0 -5 11 -10 23 -10 12 0 30 -7 40 -16 19 -18 23 -14 30 31 3
17 12 21 56 23 l52 3 0 -31 c0 -27 3 -30 24 -24 21 5 23 3 19 -20 -3 -14 -1
-32 5 -39 6 -7 11 -107 12 -258 l1 -245 -35 4 -34 4 4 211 c4 204 7 240 19
300 6 30 3 32 -24 15 -15 -9 -25 -9 -43 -1 -18 9 -19 12 -5 12 31 2 18 21 -14
21 -24 0 -30 -4 -25 -15 3 -9 1 -15 -7 -14 -32 4 -40 -1 -27 -16 10 -12 12
-63 7 -228 -4 -117 -7 -213 -7 -214 0 -2 -3 -3 -7 -3 -12 0 -33 51 -33 76 0
44 -19 33 -55 -31 -36 -63 -37 -68 -38 -177 -2 -92 -5 -113 -19 -122 -9 -5
-19 -8 -20 -6 -2 3 -2 186 0 408 l4 403 46 -3 c29 -2 47 -8 48 -15z m64 -3 c0
-5 -7 -10 -15 -10 -8 0 -15 5 -15 10 0 6 7 10 15 10 8 0 15 -4 15 -10z m-619
-22 c1 -13 3 -34 5 -48 3 -32 23 -945 24 -1108 0 -73 -4 -121 -9 -117 -17 10
-48 -49 -55 -105 -7 -54 -28 -90 -52 -90 -8 0 -14 30 -18 103 -6 105 -25 877
-28 1165 -1 89 -4 162 -8 162 -3 0 -11 -9 -18 -20 -8 -14 -22 -20 -45 -19 -17
1 -24 3 -14 6 32 8 17 23 -23 23 -45 0 -51 13 -17 34 36 22 87 28 93 11 8 -19
34 -20 34 -1 0 16 23 23 88 25 37 1 42 -2 43 -21z m-697 -35 c-8 -59 -25 -82
-20 -27 4 39 14 74 23 74 2 0 1 -21 -3 -47z m-814 29 c0 -10 -69 -57 -175
-121 -38 -23 -86 -53 -106 -66 l-37 -24 -5 25 c-4 21 5 32 53 68 32 24 68 50
81 57 13 6 26 15 29 18 17 21 45 34 77 38 21 2 39 6 42 8 8 8 41 5 41 -3z
m176 -12 c2 -33 4 -40 14 -40 6 0 10 14 10 30 0 28 3 30 34 30 19 0 38 -6 43
-12 10 -17 4 -191 -8 -203 -11 -11 -12 -92 -1 -99 5 -3 5 -34 1 -70 -7 -71 -2
-113 14 -134 6 -8 12 -24 14 -35 3 -19 16 -51 45 -110 5 -11 4 -26 -3 -39 -7
-13 -10 -57 -7 -118 3 -70 0 -100 -9 -109 -15 -14 -17 -57 -3 -66 6 -3 10 -21
10 -40 0 -19 4 -36 9 -39 5 -3 7 -15 4 -26 -4 -14 0 -20 11 -20 9 0 16 8 16
20 0 15 7 20 24 20 14 0 28 5 31 10 4 6 11 8 16 5 15 -10 31 5 20 19 -12 14
71 47 258 101 127 36 246 48 301 30 l25 -9 -25 -7 c-14 -4 -55 -7 -91 -8 -93
-1 -237 -40 -371 -99 -23 -11 -57 -25 -75 -32 -17 -6 -34 -18 -37 -25 -7 -19
0 -223 9 -262 10 -42 35 -44 35 -3 0 16 -5 50 -12 75 -9 34 -9 48 0 57 19 19
29 -25 36 -162 4 -69 9 -157 11 -195 2 -39 11 -90 20 -114 8 -24 15 -61 15
-82 0 -28 4 -39 15 -39 12 0 15 -15 16 -67 1 -38 0 -72 -1 -78 -2 -11 -2 -147
0 -155 1 -3 3 -31 5 -62 3 -50 1 -58 -17 -64 -26 -8 -28 -5 -34 47 -3 24 -12
70 -20 102 -8 32 -12 62 -9 67 3 6 2 10 -4 10 -5 0 -12 19 -15 43 -17 150 -30
218 -39 224 -7 4 -2 9 13 13 32 7 36 35 16 95 -9 25 -18 78 -22 118 -3 39 -12
90 -19 112 -8 22 -17 71 -20 109 -9 124 -17 165 -33 171 -8 3 -19 0 -24 -7
-11 -18 -10 -125 3 -173 10 -40 25 -206 33 -365 2 -47 7 -130 11 -186 l7 -101
-51 -17 c-58 -19 -87 -20 -128 -6 -29 11 -30 13 -36 93 -4 45 -7 126 -7 180 0
53 -4 97 -8 97 -4 0 -7 -165 -6 -367 2 -313 1 -341 -6 -188 -11 231 -29 1019
-37 1614 -5 397 -4 463 8 459 14 -5 20 -313 28 -1315 1 -128 5 -193 12 -193 7
0 8 225 4 751 -5 550 -4 754 5 764 16 19 -3 27 -35 15 -14 -5 -43 -9 -63 -9
-34 2 -35 2 -7 6 46 7 55 23 12 23 -26 0 -37 4 -37 15 0 11 7 14 24 9 13 -3
27 -1 30 5 5 7 -3 11 -21 12 -25 0 -26 1 -8 9 30 14 80 7 81 -10z m1036 -30
c3 -16 1 -30 -4 -30 -4 0 -8 -4 -8 -10 0 -5 6 -10 14 -10 26 0 24 37 62 -1079
16 -470 16 -504 1 -513 -9 -5 -17 -15 -17 -23 0 -8 -12 -22 -27 -32 -16 -10
-30 -20 -33 -23 -12 -13 -70 -40 -84 -40 -10 0 -16 9 -16 23 0 12 -11 153 -24
312 -24 283 -28 492 -11 630 7 59 6 61 -30 103 -21 23 -33 42 -29 41 26 -4 34
2 28 25 -4 17 9 49 47 117 28 52 56 97 61 100 5 3 11 22 15 42 4 30 3 37 -11
37 -20 0 -22 56 -2 79 11 12 12 30 6 75 -5 32 -13 63 -19 69 -6 6 -11 37 -11
68 0 55 1 58 28 62 57 9 60 8 64 -23z m1236 -2 c2 -17 9 -28 19 -28 11 0 14 8
11 30 -3 20 0 30 9 30 10 0 13 -31 13 -142 0 -79 3 -227 7 -330 6 -171 5 -188
-10 -188 -13 0 -17 9 -17 36 0 28 -5 37 -21 41 -18 5 -20 11 -15 47 3 23 7
128 8 234 0 106 5 195 10 198 4 3 8 11 8 17 0 8 -21 12 -60 13 -33 1 -63 3
-65 6 -3 3 -2 19 1 37 7 31 8 32 53 29 42 -3 46 -5 49 -30z m-2420 -9 c0 -17
7 -38 16 -48 22 -24 26 -77 36 -516 5 -220 14 -542 20 -715 5 -173 11 -379 14
-457 l4 -143 -24 0 c-14 0 -37 -9 -52 -20 -15 -11 -42 -24 -59 -29 -30 -9 -33
-7 -35 12 -1 12 -2 29 -3 37 -1 8 -5 222 -9 475 -4 253 -9 490 -11 528 -4 59
-3 67 13 67 27 0 42 20 42 58 0 28 -5 36 -30 45 l-30 11 0 328 1 327 47 35
c26 19 50 35 53 35 3 1 6 -13 7 -30z m1596 -129 c8 -178 20 -1846 13 -1840 -6
5 -14 396 -33 1565 -3 209 -8 383 -11 388 -7 11 8 30 17 20 4 -4 11 -64 14
-133z m-47 25 c21 -845 30 -2486 13 -2145 -3 69 -7 285 -8 480 -2 195 -7 447
-12 560 -5 113 -12 421 -15 685 -3 264 -8 490 -11 503 -4 19 -1 23 13 20 16
-3 18 -16 20 -103z m620 87 c12 -8 5 -449 -16 -937 -11 -245 -25 -712 -37
-1184 -4 -146 -10 -276 -15 -290 -4 -14 -6 105 -4 264 13 832 16 1019 25 1345
6 195 12 418 15 495 2 77 4 179 5 228 0 85 3 94 27 79z m54 -157 c-2 -150 -7
-310 -16 -525 -12 -273 -25 -609 -37 -930 -7 -190 -15 -329 -18 -310 -3 19 -2
154 2 300 17 648 30 1047 39 1200 5 91 9 223 9 293 0 93 3 128 11 125 9 -3 11
-48 10 -153z m-891 33 c1 -57 5 -290 10 -518 5 -228 11 -599 14 -825 5 -474
-2 -330 -28 540 -26 908 -26 905 -10 905 11 0 14 -21 14 -102z m-1235 -537 c3
-288 7 -527 9 -530 2 -3 6 -184 9 -401 3 -274 2 -343 -3 -225 -23 465 -46
1835 -30 1735 4 -30 11 -291 15 -579z m1179 597 c3 -18 14 -418 25 -888 32
-1300 34 -1405 28 -1400 -3 3 -12 185 -21 405 -9 220 -23 551 -31 735 -8 184
-19 499 -25 700 -6 201 -12 391 -15 423 -4 51 -3 57 15 57 14 0 20 -9 24 -32z
m1080 -75 c-2 -54 -6 -294 -9 -533 -8 -715 -17 -1034 -27 -1045 -8 -9 -3 1025
7 1400 2 72 4 163 4 203 1 55 4 72 15 72 11 0 13 -19 10 -97z m42 -225 c-3
-178 -11 -469 -16 -648 -5 -179 -14 -521 -20 -760 -6 -239 -15 -478 -20 -530
-7 -78 -8 -65 -4 75 2 94 9 418 14 720 6 303 15 681 20 840 5 160 10 365 10
458 0 120 3 167 12 167 8 0 9 -81 4 -322z m-2536 285 c0 -9 -8 -25 -17 -36
-17 -20 -17 -20 0 -14 26 10 17 -12 -13 -32 -22 -15 -24 -15 -17 2 5 13 1 17
-13 17 -26 0 -27 36 -2 61 22 23 62 25 62 2z m790 -23 c0 -5 -5 -10 -11 -10
-5 0 -7 5 -4 10 3 6 8 10 11 10 2 0 4 -4 4 -10z m270 1 c0 -6 -4 -13 -10 -16
-5 -3 -10 1 -10 9 0 9 5 16 10 16 6 0 10 -4 10 -9z m140 -11 c0 -5 -5 -10 -11
-10 -5 0 -7 5 -4 10 3 6 8 10 11 10 2 0 4 -4 4 -10z m40 -63 c0 -28 -5 -34
-37 -45 -77 -27 -122 -30 -374 -25 -200 3 -259 2 -259 -8 0 -8 -7 -5 -20 6
-11 10 -35 19 -53 20 -17 1 -40 5 -49 9 -9 4 -25 9 -35 10 -23 4 -30 34 -9 42
9 3 40 -5 69 -19 65 -32 119 -42 145 -28 12 7 31 7 50 1 54 -15 365 20 472 54
25 8 57 14 73 15 24 1 27 -2 27 -32z m-1234 -256 c4 -185 3 -261 -5 -261 -8 0
-11 70 -12 225 -1 124 -2 240 -3 258 -2 33 2 52 11 44 2 -3 7 -122 9 -266z
m944 259 c0 -5 -4 -10 -10 -10 -5 0 -10 5 -10 10 0 6 5 10 10 10 6 0 10 -4 10
-10z m-990 -302 c0 -116 -2 -209 -4 -207 -8 9 -13 429 -5 423 5 -3 9 -100 9
-216z m703 201 c-8 -8 -16 -8 -30 0 -16 9 -14 10 12 11 21 0 26 -3 18 -11z
m160 4 c-7 -2 -19 -2 -25 0 -7 3 -2 5 12 5 14 0 19 -2 13 -5z m357 -13 c0 -5
-4 -10 -10 -10 -5 0 -10 5 -10 10 0 6 5 10 10 10 6 0 10 -4 10 -10z m-556 -60
c1 -42 3 -45 28 -45 17 1 24 -3 19 -8 -5 -5 -32 -6 -60 -2 -45 6 -50 9 -39 22
7 9 11 26 10 39 -4 30 6 46 26 42 11 -2 16 -15 16 -48z m240 15 c-19 -29 -29
-27 -19 4 3 12 13 21 21 21 12 0 12 -4 -2 -25z m182 -10 c1 -14 -2 -25 -7 -25
-5 0 -9 14 -9 32 0 36 12 31 16 -7z m-561 15 c4 -6 -5 -10 -19 -10 -14 0 -26
5 -26 10 0 6 9 10 19 10 11 0 23 -4 26 -10z m672 -6 c-3 -3 -12 -4 -19 -1 -8
3 -5 6 6 6 11 1 17 -2 13 -5z m-1347 -24 c38 -38 16 -100 -34 -100 -66 0 -86
45 -41 94 29 31 48 33 75 6z m870 1 c0 -6 -4 -13 -10 -16 -5 -3 -10 1 -10 9 0
9 5 16 10 16 6 0 10 -4 10 -9z m560 1 c0 -52 -242 -104 -495 -106 -196 -1
-345 24 -345 58 0 24 15 27 53 11 19 -8 68 -22 108 -31 132 -30 394 -5 574 54
65 22 105 27 105 14z m-300 -32 c0 -5 -4 -10 -10 -10 -5 0 -10 5 -10 10 0 6 5
10 10 10 6 0 10 -4 10 -10z m-130 -21 c0 -5 -13 -8 -30 -7 -31 2 -40 13 -17
21 17 5 47 -3 47 -14z m40 11 c0 -5 -5 -10 -11 -10 -5 0 -7 5 -4 10 3 6 8 10
11 10 2 0 4 -4 4 -10z m1354 -95 c8 -19 22 -35 31 -35 13 0 15 -14 14 -95 -2
-62 -6 -94 -13 -92 -6 2 -13 14 -16 28 -4 18 -13 25 -38 27 l-32 3 1 87 c1 48
3 79 6 70 2 -10 11 -18 19 -18 17 0 19 27 2 32 -6 2 -8 10 -4 16 11 18 14 15
30 -23z m43 3 c-3 -8 -6 -5 -6 6 -1 11 2 17 5 13 3 -3 4 -12 1 -19z m-2420
-83 c12 -50 22 -105 22 -124 1 -31 -1 -33 -26 -26 -31 7 -56 36 -43 49 10 10
2 37 -14 49 -8 5 -7 10 3 16 7 5 9 11 4 14 -5 3 -9 30 -7 59 2 65 0 60 21 56
13 -2 23 -27 40 -93z m654 76 c13 -10 47 -21 74 -25 28 -4 118 -23 200 -42 83
-20 179 -42 215 -50 35 -8 69 -19 74 -24 6 -6 -3 -6 -25 0 -43 13 -69 13 -69
0 0 -5 23 -16 52 -25 29 -8 76 -29 105 -47 48 -29 51 -34 46 -62 -3 -17 -7
-33 -9 -34 -1 -2 -33 12 -71 31 -37 19 -104 42 -148 52 -44 9 -98 23 -120 31
-33 11 -36 13 -14 14 14 0 39 -4 55 -9 54 -17 84 -21 84 -12 0 9 -121 51 -146
51 -8 0 -28 8 -46 18 -18 10 -56 21 -85 25 -49 6 -72 15 -167 66 -38 20 -56
37 -56 54 0 13 27 7 51 -12z m441 0 c-4 -19 8 -51 19 -51 5 0 9 16 9 36 0 21
4 33 10 29 15 -9 12 -71 -3 -84 -8 -6 -17 -8 -21 -4 -4 4 -23 6 -43 5 -29 -2
-34 0 -29 14 3 9 1 23 -5 30 -6 8 -9 21 -5 30 8 20 72 16 68 -5z m125 -68 c-3
-10 -5 -2 -5 17 0 19 2 27 5 18 2 -10 2 -26 0 -35z m1385 -548 c-1 -314 -5
-657 -8 -762 l-6 -193 -27 0 c-14 0 -37 3 -50 7 l-24 6 7 206 c3 113 9 292 11
396 3 105 7 228 10 275 3 47 7 164 10 260 3 96 8 221 11 278 l6 103 32 -3 31
-3 -3 -570z m-1928 540 c19 -20 79 -41 153 -54 75 -14 98 -36 28 -27 -101 14
-215 60 -215 88 0 13 17 9 34 -7z m2092 -64 l25 -11 -6 -182 c-3 -101 -7 -424
-9 -718 -3 -382 -7 -535 -15 -538 -6 -2 -11 6 -11 17 0 17 -6 21 -36 21 l-36
0 6 93 c3 50 8 229 11 397 3 168 8 341 10 385 2 44 7 195 11 335 5 177 10 248
16 234 6 -12 21 -27 34 -33z m-2096 9 c0 -5 8 -10 17 -10 10 0 35 -6 58 -14
22 -8 66 -18 97 -21 32 -4 60 -10 63 -14 6 -11 -203 -24 -238 -16 -27 7 -35
32 -21 69 7 18 24 22 24 6z m1720 -134 c0 -8 7 -17 16 -20 8 -3 12 -11 9 -16
-4 -6 -11 -185 -15 -398 -17 -748 -21 -856 -33 -864 -14 -9 -83 -10 -113 -2
l-22 6 -1 501 c-1 511 5 750 19 742 11 -7 120 16 120 25 0 3 -13 5 -30 2 -36
-5 -37 3 -8 62 l21 45 19 -35 c10 -19 18 -40 18 -48z m-2160 20 l0 -33 -72 -6
c-58 -4 -243 -38 -327 -59 -14 -3 -23 49 -10 58 11 7 246 54 314 63 99 14 95
15 95 -23z m617 -22 c-3 -3 -12 -4 -19 -1 -8 3 -5 6 6 6 11 1 17 -2 13 -5z
m268 -1 c-36 -4 -130 -20 -202 -34 -29 -6 -53 -15 -53 -21 0 -6 9 -8 23 -4
106 30 316 45 348 25 15 -9 -5 -14 -86 -24 -53 -7 -76 -13 -282 -75 -151 -45
-173 -54 -173 -76 0 -11 -8 -14 -27 -12 -25 3 -29 8 -36 57 -4 34 -3 58 3 66
17 20 217 79 325 95 28 4 82 7 120 7 39 0 57 -2 40 -4z m-931 -155 c16 -301
36 -1451 25 -1462 -9 -9 -18 248 -29 849 -6 303 -12 589 -13 638 -4 127 10
107 17 -25z m1924 59 c3 -41 1 -46 -15 -40 -26 9 -53 44 -53 70 0 20 5 22 33
20 31 -2 32 -4 35 -50z m-2004 -144 c10 -281 25 -714 31 -835 l5 -108 -25 0
c-23 0 -25 4 -25 48 0 26 -5 157 -10 292 -12 293 -19 777 -12 785 3 3 11 5 18
5 9 0 14 -50 18 -187z m55 -503 c17 -658 21 -909 11 -755 -8 128 -28 814 -35
1235 -3 206 -3 209 5 70 5 -80 14 -327 19 -550z m-126 599 c-4 -4 -33 -10 -63
-14 l-55 -5 48 13 c26 8 50 17 54 20 14 14 -7 19 -37 9 -32 -12 -64 -6 -54 9
3 5 17 9 32 9 15 0 38 9 52 20 l25 19 3 -36 c2 -20 0 -39 -5 -44z m-141 -30
c6 -4 16 -129 24 -315 8 -170 16 -322 19 -339 2 -16 7 -105 11 -197 l7 -167
-35 -6 c-19 -4 -50 -5 -69 -3 l-34 3 -2 546 -2 546 32 10 c32 9 32 9 35 -31 2
-23 8 -44 14 -47z m2216 -603 c-2 -397 -6 -510 -15 -514 -9 -2 -13 7 -13 27 0
22 -5 31 -17 31 -26 0 -84 -43 -78 -58 3 -9 -1 -12 -13 -10 -16 3 -18 34 -25
386 -5 210 -6 390 -3 398 5 12 10 14 20 5 20 -16 26 -3 26 56 l0 53 33 0 c58
0 61 6 54 128 -6 100 -5 111 11 114 23 5 23 -7 20 -616z m-2063 396 c6 -278
16 -650 20 -707 8 -124 28 -1104 22 -1118 -3 -9 -13 -14 -21 -11 -16 6 -22
124 -31 614 -6 314 -30 1091 -40 1307 -6 112 -5 122 12 125 10 2 22 -2 26 -9
5 -8 10 -98 12 -201z m-79 147 c8 -121 24 -441 29 -579 19 -555 25 -743 31
-1054 4 -221 3 -346 -3 -343 -6 4 -13 106 -17 229 -4 123 -11 315 -16 428 -5
113 -12 275 -15 360 -3 85 -15 343 -26 573 -11 230 -17 422 -13 428 13 21 28
1 30 -42z m974 31 c0 -5 -2 -10 -4 -10 -3 0 -8 5 -11 10 -3 6 -1 10 4 10 6 0
11 -4 11 -10z m-90 -24 c0 -2 -6 -9 -14 -15 -11 -9 -16 -9 -22 0 -4 7 -3 9 4
5 6 -3 13 -2 17 4 6 10 15 14 15 6z m-183 -108 c-3 -8 -6 -5 -6 6 -1 11 2 17
5 13 3 -3 4 -12 1 -19z m191 0 c7 -7 12 -16 12 -20 0 -12 -58 -10 -65 2 -16
26 30 41 53 18z m146 -197 c1 -61 5 -114 9 -117 8 -8 -1 -24 -12 -24 -10 0
-20 170 -13 222 8 64 14 35 16 -81z m-89 62 c14 -25 8 -393 -7 -393 -7 0 -9
23 -6 70 3 39 1 70 -3 70 -5 0 -9 -9 -9 -20 0 -11 -4 -20 -10 -20 -5 0 -10
-25 -10 -55 0 -30 -4 -55 -10 -55 -5 0 -10 25 -10 56 0 30 -4 53 -9 50 -5 -3
-9 4 -9 17 0 12 -2 41 -5 64 -3 24 -1 45 4 48 5 4 9 -5 9 -19 0 -14 4 -27 9
-30 14 -9 30 18 31 50 0 16 0 39 0 52 1 12 1 42 0 67 -2 62 14 84 35 48z m161
-428 c-8 -202 -13 -272 -20 -284 -4 -6 -3 -11 3 -11 6 0 8 -6 6 -12 -3 -7 -6
-69 -8 -137 -1 -89 -6 -126 -14 -129 -7 -2 -13 -8 -13 -13 0 -4 6 -6 14 -3 15
6 14 -26 -4 -121 -8 -40 -8 -40 -9 -6 -1 25 -5 32 -16 27 -9 -3 -15 0 -15 9 0
8 -6 34 -14 57 -18 52 -39 292 -30 336 7 32 24 45 24 17 0 -8 5 -15 11 -15 8
0 8 -4 0 -14 -8 -9 -11 -44 -9 -95 2 -66 6 -81 18 -78 10 2 14 12 12 29 -1 15
2 29 8 33 6 3 7 12 3 18 -19 31 -21 181 -2 204 8 9 9 14 2 10 -15 -9 -22 18
-17 63 3 19 7 55 9 80 11 121 15 154 20 171 3 9 1 20 -5 24 -13 8 -13 52 0 60
8 5 8 11 0 20 -6 8 -7 16 -2 19 5 3 9 39 9 80 0 51 4 80 14 92 12 15 15 -4 22
-152 4 -93 5 -218 3 -279z m748 203 c4 -79 5 -242 4 -363 l-3 -220 -62 -3 -63
-3 0 29 c0 20 6 31 18 34 19 5 62 107 62 148 0 12 5 40 12 61 13 45 3 63 -18
35 -12 -18 -14 -18 -14 -3 0 10 9 35 20 57 25 48 27 78 5 60 -27 -22 -62 -114
-57 -148 2 -18 8 -32 13 -32 17 0 9 -57 -14 -110 l-24 -53 -6 153 c-12 261 -9
360 8 360 8 0 15 9 15 19 0 12 12 25 30 33 26 11 30 18 30 50 0 31 4 38 19 38
17 0 19 -12 25 -142z m-834 -108 c0 -27 -4 -50 -10 -50 -11 0 -14 83 -3 93 12
12 13 8 13 -43z m-263 -32 c-3 -8 -6 -5 -6 6 -1 11 2 17 5 13 3 -3 4 -12 1
-19z m463 4 c0 -13 -12 -22 -22 -16 -10 6 -1 24 13 24 5 0 9 -4 9 -8z m-38
-37 c3 -14 1 -28 -3 -31 -5 -3 -9 9 -9 25 0 38 6 40 12 6z m430 -253 l3 -142
-38 0 c-21 0 -47 5 -58 11 -20 10 -20 11 -2 25 16 12 16 15 3 24 -8 5 -22 10
-31 10 -19 0 -44 49 -52 103 -5 32 -2 40 19 54 14 9 34 33 44 54 11 20 35 47
55 59 19 12 36 29 36 38 4 50 18 -113 21 -236z m-602 168 c-3 -30 -9 -48 -12
-40 -15 37 -16 50 -8 55 6 4 10 18 10 33 0 15 4 22 9 17 4 -6 5 -35 1 -65z
m140 20 c0 -5 -4 -10 -10 -10 -5 0 -10 5 -10 10 0 6 5 10 10 10 6 0 10 -4 10
-10z m294 -84 c-10 -8 -21 -12 -24 -10 -5 6 21 24 34 24 6 0 1 -6 -10 -14z
m-154 -28 c0 -19 -2 -20 -10 -8 -13 19 -13 30 0 30 6 0 10 -10 10 -22z m1367
-230 c-1 -46 -3 -9 -3 82 0 91 2 128 3 83 2 -46 2 -120 0 -165z m-1459 154 c2
-7 -3 -12 -12 -12 -9 0 -16 7 -16 16 0 17 22 14 28 -4z m-261 -24 c-3 -8 -6
-5 -6 6 -1 11 2 17 5 13 3 -3 4 -12 1 -19z m-523 6 c10 -4 16 -18 16 -40 0
-28 -4 -34 -21 -34 -11 0 -17 5 -14 10 4 6 -18 10 -57 11 l-63 0 42 17 c23 10
48 23 55 30 14 14 20 15 42 6z m329 -56 c2 -18 3 -35 1 -37 -1 -2 -24 4 -50
13 -26 9 -76 16 -111 16 -35 0 -63 4 -63 10 0 5 20 7 48 4 30 -4 62 0 87 10
65 24 82 21 88 -16z m967 -64 c0 -36 -4 -64 -10 -64 -6 0 -10 30 -10 71 0 44
4 68 10 64 6 -3 10 -35 10 -71z m-579 -1 c-8 -14 -10 -9 -10 27 1 42 1 43 10
18 7 -18 7 -33 0 -45z m309 59 c0 -5 16 -27 36 -50 40 -47 43 -78 4 -39 -41
41 -51 57 -45 67 3 6 1 10 -4 10 -6 0 -11 5 -11 10 0 6 5 10 10 10 6 0 10 -4
10 -8z m-1477 -29 c-7 -2 -19 -2 -25 0 -7 3 -2 5 12 5 14 0 19 -2 13 -5z m467
-98 l0 -85 -29 0 c-39 0 -84 -17 -76 -30 7 -11 -39 -25 -54 -15 -6 3 -11 23
-11 45 l0 38 80 7 c48 4 77 11 74 17 -4 6 -35 7 -80 3 l-74 -7 0 31 0 31 63 0
c100 0 120 28 29 41 l-47 6 63 2 62 1 0 -85z m770 -9 c0 -36 4 -67 9 -71 5 -3
12 -19 16 -36 6 -25 9 -28 22 -18 9 8 12 21 8 38 l-6 26 16 -23 c13 -18 14
-26 4 -38 -14 -17 -21 -84 -8 -84 5 0 9 -5 9 -11 0 -8 -5 -8 -15 1 -15 13 -16
12 -31 -38 -2 -7 1 -10 6 -7 6 3 10 -1 10 -9 0 -9 5 -16 10 -16 6 0 10 -8 10
-17 1 -17 1 -17 11 0 6 10 8 30 4 45 -6 25 -4 24 29 -13 43 -48 45 -64 9 -64
-16 1 -41 -3 -57 -7 -27 -6 -29 -5 -23 17 6 23 5 23 -14 -3 -12 -16 -28 -28
-38 -28 -9 0 -27 -7 -39 -16 -18 -12 -37 -14 -95 -8 -39 4 -83 14 -96 22 -24
16 -49 23 -88 22 -13 0 -23 5 -23 10 0 6 6 10 14 10 17 0 28 24 20 45 -4 9 0
15 9 15 19 0 27 21 20 49 -3 12 -1 21 4 21 13 0 34 -65 27 -83 -3 -9 -1 -24 4
-34 10 -17 11 -17 17 0 10 23 32 22 40 -4 4 -11 12 -18 19 -16 7 3 21 -6 31
-19 18 -24 45 -33 45 -14 0 6 11 10 25 10 30 0 32 10 5 33 -20 17 -27 61 -11
71 5 3 6 42 4 86 -4 55 -2 80 6 80 8 0 7 6 -1 20 -11 17 -10 22 2 30 25 16 30
12 30 -22 1 -28 2 -30 11 -15 6 10 8 31 4 46 -8 37 3 81 21 81 11 0 14 -16 14
-64z m140 49 c0 -9 -6 -12 -15 -9 -8 4 -15 10 -15 15 0 5 7 9 15 9 8 0 15 -7
15 -15z m1147 -7 c-3 -8 -6 -5 -6 6 -1 11 2 17 5 13 3 -3 4 -12 1 -19z m-1940
-22 c9 -4 21 -2 27 4 13 13 136 13 170 0 39 -14 34 -39 -8 -37 -19 1 -32 5
-29 10 2 4 -10 8 -26 9 -17 0 -36 1 -43 2 -6 1 -13 -5 -15 -11 -3 -9 7 -13 29
-14 l33 -1 -31 -9 c-17 -5 -39 -18 -49 -29 -11 -12 -31 -20 -52 -20 l-33 0 1
68 c1 37 3 60 6 50 2 -9 11 -19 20 -22z m1067 1 c11 -42 7 -48 -26 -45 -29 3
-33 7 -36 35 -2 24 1 32 15 35 27 6 40 -1 47 -25z m-1624 8 c0 -12 -15 -15
-72 -15 -87 0 -82 17 7 23 33 2 61 4 63 5 1 1 2 -5 2 -13z m181 -75 c3 -81 3
-85 -19 -88 -20 -3 -22 0 -22 51 0 35 5 58 13 61 10 5 10 7 0 12 -19 9 -16 42
5 46 9 3 18 4 19 4 0 -1 3 -39 4 -86z m1066 43 c-3 -10 -5 -2 -5 17 0 19 2 27
5 18 2 -10 2 -26 0 -35z m875 17 c15 0 18 -9 18 -54 l0 -53 -70 -10 c-39 -5
-73 -7 -75 -4 -3 2 -5 27 -5 55 0 48 2 52 26 54 14 1 35 9 47 17 14 10 25 11
31 5 6 -6 18 -10 28 -10z m-252 -55 c0 -54 0 -54 -34 -60 -18 -4 -44 -5 -57
-3 -21 3 -24 8 -24 47 l0 45 50 12 c28 6 53 12 58 13 4 0 7 -24 7 -54z m550
14 c0 -41 0 -41 -31 -35 -17 3 -51 6 -75 6 -44 0 -44 0 -44 35 l0 35 75 0 75
0 0 -41z m77 -101 c-2 -29 -3 -8 -3 47 0 55 1 79 3 53 2 -26 2 -71 0 -100z
m294 122 c28 0 29 -2 29 -45 l0 -45 -50 0 -50 0 0 43 c0 48 7 60 28 52 7 -3
27 -5 43 -5z m-2789 -57 c2 -32 1 -61 -2 -66 -4 -4 -36 -10 -72 -14 -62 -5
-66 -4 -73 16 -8 27 2 72 18 84 9 6 9 10 -1 14 -28 11 3 23 63 23 l63 0 4 -57z
m2621 48 c8 -1 10 -63 1 -85 -4 -11 -19 -16 -50 -16 l-44 0 0 53 0 53 43 -2
c23 -1 45 -2 50 -3z m-906 -123 c-2 -24 -4 -5 -4 42 0 47 2 66 4 43 2 -24 2
-62 0 -85z m-460 90 c-3 -8 -6 -5 -6 6 -1 11 2 17 5 13 3 -3 4 -12 1 -19z
m1410 -10 c-3 -8 -6 -5 -6 6 -1 11 2 17 5 13 3 -3 4 -12 1 -19z m-2190 -35
c-3 -10 -5 -2 -5 17 0 19 2 27 5 18 2 -10 2 -26 0 -35z m1083 22 c0 -9 10 -16
28 -16 23 -2 24 -2 5 -6 -32 -6 -29 -21 5 -25 25 -3 27 -7 30 -50 l3 -46 -51
-26 c-59 -30 -70 -32 -70 -12 0 8 10 16 23 18 12 2 22 10 23 18 0 8 4 27 8 41
5 18 1 37 -13 63 -21 36 -20 56 0 56 5 0 9 -7 9 -15z m-110 -15 c0 -5 7 -10
14 -10 23 0 66 -45 66 -68 0 -15 -5 -19 -20 -15 -11 3 -17 9 -15 14 3 4 -10
24 -30 43 -37 37 -42 46 -25 46 6 0 10 -4 10 -10z m920 -30 c11 -7 6 -10 -20
-10 -26 0 -31 -3 -20 -10 8 -5 30 -10 48 -10 29 0 32 -3 32 -29 l0 -29 -72 3
-73 2 -3 33 c-5 51 3 60 50 60 24 0 50 -5 58 -10z m-1927 -47 c4 -21 4 -55 0
-76 -6 -37 -7 -39 -36 -33 -16 3 -51 6 -78 6 l-49 0 0 34 0 34 70 7 c53 5 70
11 70 22 0 12 -9 14 -47 8 -27 -3 -58 -9 -70 -12 -13 -3 -23 -1 -23 5 0 14 29
24 50 17 9 -3 30 1 46 10 47 24 61 19 67 -22z m34 -75 c-2 -24 -4 -7 -4 37 0
44 2 63 4 43 2 -21 2 -57 0 -80z m1661 70 l-3 -43 -53 0 c-40 0 -57 -5 -67
-18 -11 -16 -13 -14 -19 14 -3 17 -6 42 -6 55 0 25 15 30 103 33 l48 1 -3 -42z
m-808 8 c0 -18 49 -66 78 -77 21 -8 21 -9 5 -29 -20 -23 -53 -27 -53 -6 0 8
-7 16 -15 20 -8 3 -21 18 -27 33 -7 15 -15 30 -19 33 -10 8 10 52 21 45 5 -3
10 -12 10 -19z m1276 14 c20 0 24 -5 23 -27 -1 -34 -17 -79 -18 -50 -1 12 -10
17 -31 18 -16 1 -35 2 -41 3 -7 0 -13 16 -15 35 -4 33 -3 33 27 27 17 -3 42
-6 55 -6z m216 -6 c3 -3 4 -14 1 -25 -4 -15 -14 -19 -54 -19 -46 0 -49 1 -47
25 2 23 7 25 49 25 25 0 48 -3 51 -6z m-950 -54 c-4 -67 -7 -72 -36 -58 -14 6
-28 20 -32 30 -3 11 -17 23 -30 28 -23 9 -31 29 -17 44 4 4 32 6 63 4 l55 -3
-3 -45z m-1887 30 c-3 -5 -31 -10 -61 -10 -34 0 -53 4 -49 10 3 6 31 10 61 10
34 0 53 -4 49 -10z m188 3 c-7 -2 -19 -2 -25 0 -7 3 -2 5 12 5 14 0 19 -2 13
-5z m2320 -80 c-7 -91 -13 -93 -13 -5 0 40 4 72 9 72 5 0 6 -30 4 -67z m-2483
-92 l0 -129 -34 -16 c-26 -12 -41 -14 -61 -6 -14 5 -31 9 -38 7 -20 -4 -22
151 -2 173 14 15 14 18 0 30 -15 13 -20 51 -8 63 3 4 37 7 75 7 l68 0 0 -129z
m173 110 c5 -22 0 -31 -20 -31 -13 0 -18 31 -6 43 11 12 21 8 26 -12z m2627 9
c12 -8 9 -10 -12 -10 -15 0 -30 5 -33 10 -8 13 25 13 45 0z m-485 -10 c3 -5 1
-10 -4 -10 -6 0 -11 5 -11 10 0 6 2 10 4 10 3 0 8 -4 11 -10z m408 -5 c-3 -9
-8 -14 -10 -11 -3 3 -2 9 2 15 9 16 15 13 8 -4z m-340 -2 c-7 -2 -19 -2 -25 0
-7 3 -2 5 12 5 14 0 19 -2 13 -5z m227 -45 l0 -41 -23 21 c-13 12 -31 22 -40
22 -9 0 -17 7 -17 16 0 12 6 15 23 11 12 -4 29 -2 37 3 8 5 16 10 18 10 1 0 2
-19 2 -42z m-840 12 c0 -5 -5 -10 -11 -10 -5 0 -7 5 -4 10 3 6 8 10 11 10 2 0
4 -4 4 -10z m350 0 c0 -5 -7 -10 -16 -10 -8 0 -12 5 -9 10 3 6 10 10 16 10 5
0 9 -4 9 -10z m270 -25 c0 -11 -11 -15 -40 -15 -63 0 -48 25 18 29 13 1 22 -5
22 -14z m415 5 c-3 -5 -17 -10 -31 -10 -13 0 -24 5 -24 10 0 6 14 10 31 10 17
0 28 -4 24 -10z m-985 -15 c-7 -9 -15 -13 -17 -11 -7 7 7 26 19 26 6 0 6 -6
-2 -15z m421 -6 c-47 -16 -60 -17 -95 -7 l-41 13 75 6 c41 3 84 6 95 6 11 1
-4 -7 -34 -18z m-1305 -76 l24 -16 -33 -40 c-31 -38 -124 -97 -153 -97 -22 0
-26 20 -10 45 9 13 16 32 16 41 0 9 19 35 41 56 44 42 65 44 115 11z m403 0
c8 -16 17 -35 22 -44 12 -25 3 -28 -44 -16 -50 12 -90 41 -94 67 -3 18 3 20
50 20 49 0 55 -3 66 -27z m1468 -65 c-3 -8 -6 -5 -6 6 -1 11 2 17 5 13 3 -3 4
-12 1 -19z m-34 5 c-7 -2 -19 -2 -25 0 -7 3 -2 5 12 5 14 0 19 -2 13 -5z m-33
-37 c8 0 27 3 43 7 22 6 27 4 27 -12 0 -17 -6 -19 -60 -14 -33 3 -60 2 -60 -3
0 -5 14 -22 30 -38 24 -22 37 -27 61 -24 l31 5 -6 -51 c-6 -63 -6 -59 0 -123
5 -43 3 -53 -9 -53 -9 0 -19 5 -22 10 -4 7 -11 7 -18 2 -17 -14 -80 -13 -89 1
-15 24 -7 28 48 25 46 -2 59 0 68 15 9 14 7 20 -7 28 -9 6 -14 15 -11 21 5 7
-2 9 -20 6 -29 -6 -37 15 -10 26 24 9 6 26 -27 26 -31 0 -34 8 -30 64 3 37
-13 46 -66 39 -29 -4 -43 -2 -43 6 0 6 16 11 38 11 26 0 43 7 55 21 13 15 24
18 40 13 12 -4 29 -8 37 -8z m-950 -36 c0 -5 -12 -10 -26 -10 -14 0 -23 4 -19
10 3 6 15 10 26 10 10 0 19 -4 19 -10z m280 0 c0 -4 -5 -10 -12 -12 -6 -2 -9
-9 -5 -15 5 -8 77 -9 236 -5 126 3 236 2 245 -1 14 -5 15 -11 6 -27 -8 -15
-21 -20 -49 -20 -25 0 -44 -7 -56 -20 -20 -22 -14 -53 10 -44 8 3 15 1 15 -6
0 -6 -4 -9 -8 -6 -5 3 -19 -2 -32 -11 l-23 -16 22 -18 c13 -11 17 -20 11 -24
-8 -5 -7 -11 1 -21 9 -12 5 -14 -25 -14 -29 0 -36 4 -36 20 0 15 -9 22 -31 27
l-30 6 28 12 c15 7 36 16 46 19 25 8 32 33 14 51 -13 12 -45 16 -165 17 -130
1 -149 3 -148 17 1 9 -8 17 -21 19 -17 2 -23 10 -23 28 0 17 -7 25 -26 30 -14
4 -21 9 -16 13 16 10 72 11 72 1z m-2072 -27 c-3 -26 -38 -48 -38 -24 0 6 7
11 15 11 18 0 20 26 3 33 -8 3 -5 6 5 6 14 1 18 -5 15 -26z m-98 7 c0 -5 -4
-10 -10 -10 -5 0 -10 5 -10 10 0 6 5 10 10 10 6 0 10 -4 10 -10z m2075 -20
l30 -8 -33 -1 c-26 -1 -33 -5 -30 -18 2 -13 14 -19 41 -21 32 -3 37 -6 32 -23
-7 -22 -6 -23 191 -19 82 1 134 -2 138 -8 9 -15 -1 -19 -85 -31 -42 -6 -89
-15 -104 -21 -26 -10 -27 -12 -12 -27 10 -11 39 -18 77 -21 48 -4 60 -8 56
-19 -9 -23 31 -31 157 -29 l117 1 0 -31 c0 -39 25 -75 39 -55 5 8 6 24 1 36
-15 40 -1 45 111 43 l104 -3 1 -61 c1 -52 -1 -61 -15 -58 -9 2 -78 5 -154 8
-110 3 -141 7 -150 20 -17 22 -87 35 -155 29 -64 -6 -92 -17 -92 -37 0 -8 -6
-13 -12 -12 -17 3 -58 29 -58 37 0 4 27 9 60 13 33 4 62 11 65 15 8 14 -18 29
-45 26 -22 -2 -26 1 -25 24 0 25 -2 26 -80 34 -44 5 -84 13 -89 18 -6 6 -5 9
3 9 20 0 44 29 37 45 -4 12 -22 14 -98 9 -51 -3 -118 -9 -148 -13 -61 -9 -150
-3 -150 9 0 4 32 10 72 14 96 9 120 16 114 32 -3 8 5 19 17 25 12 7 24 13 26
15 7 7 -32 44 -46 44 -7 0 -13 5 -13 10 0 11 60 11 105 0z m-2015 -40 c0 -5
-19 -10 -42 -9 -33 0 -38 2 -23 9 28 12 65 12 65 0z m1260 -20 c12 -8 11 -10
-7 -10 -12 0 -25 5 -28 10 -8 13 15 13 35 0z m-593 -6 c-3 -3 -12 -4 -19 -1
-8 3 -5 6 6 6 11 1 17 -2 13 -5z m-628 -29 c13 -13 18 -172 6 -183 -6 -5 -37
-15 -70 -22 -33 -7 -66 -15 -72 -17 -9 -4 -13 8 -13 41 0 35 4 48 18 53 22 9
42 29 42 42 0 5 17 11 37 13 63 5 51 26 -18 30 -54 3 -63 1 -70 -17 -6 -15 -8
-10 -8 21 -1 22 1 43 4 46 9 9 134 3 144 -7z m1976 -71 c13 -5 14 -8 3 -15
-24 -15 15 -39 83 -49 35 -6 78 -14 94 -17 27 -7 26 -8 -20 -13 -45 -5 -50 -7
-47 -29 2 -18 -2 -22 -14 -17 -8 3 -21 6 -28 6 -7 0 -12 10 -12 22 1 17 -13
29 -63 55 -35 19 -69 37 -75 41 -9 5 10 13 56 21 3 0 14 -2 23 -5z m58 -1 c-7
-2 -19 -2 -25 0 -7 3 -2 5 12 5 14 0 19 -2 13 -5z m-126 -47 c32 -17 66 -35
76 -39 9 -3 17 -13 17 -21 0 -12 -5 -13 -22 -7 -13 5 -75 6 -138 3 l-116 -5 4
41 c4 36 1 42 -25 57 -27 15 -25 16 59 10 74 -5 97 -11 145 -39z m-235 -2 c5
-3 8 -10 8 -16 0 -11 -156 -2 -175 10 -24 16 142 21 167 6z m868 6 c-20 -13
-73 -13 -65 0 3 6 23 10 43 10 28 0 33 -3 22 -10z"/>
<g>
<path d="M1050 3530 c0 -5 5 -10 10 -10 6 0 10 5 10 10 0 6 -4 10 -10 10 -5 0
-10 -4 -10 -10z"/>
</g>
<g>
<path d="M1085 3530 c-3 -5 3 -10 14 -10 12 0 21 5 21 10 0 6 -6 10 -14 10 -8
0 -18 -4 -21 -10z"/>
</g>
<g>
<path d="M1420 3374 c0 -14 3 -14 15 -4 8 7 15 14 15 16 0 2 -7 4 -15 4 -8 0
-15 -7 -15 -16z"/>
</g>
<g>
<path d="M1346 3153 c-3 -3 -6 -24 -6 -45 0 -51 23 -46 26 5 3 35 -6 53 -20
40z"/>
</g>
<g>
<path d="M870 2100 c0 -5 4 -10 9 -10 6 0 13 5 16 10 3 6 -1 10 -9 10 -9 0
-16 -4 -16 -10z"/>
</g>
<g>
<path d="M2510 2300 c0 -11 5 -20 10 -20 6 0 10 9 10 20 0 11 -4 20 -10 20 -5
0 -10 -9 -10 -20z"/>
</g>
<g>
<path d="M940 2301 c-40 -13 -90 -41 -90 -51 0 -13 0 -13 49 11 24 11 59 23
77 26 19 3 37 10 40 14 6 11 -41 10 -76 0z"/>
</g>
<g>
<path d="M2166 1833 c-12 -12 -6 -43 9 -43 8 0 15 9 15 19 0 21 -13 34 -24 24z"/>
</g>
<g>
<path d="M1695 1224 c-19 -29 -12 -44 13 -28 18 12 29 54 14 54 -5 0 -17 -12
-27 -26z"/>
</g>
<g>
<path d="M1395 860 c-3 -5 -1 -10 4 -10 6 0 11 5 11 10 0 6 -2 10 -4 10 -3 0
-8 -4 -11 -10z"/>
</g>
<g>
<path d="M1357 793 c-4 -3 -7 -11 -7 -17 0 -6 5 -5 12 2 6 6 9 14 7 17 -3 3
-9 2 -12 -2z"/>
</g>
<g>
<path d="M1290 771 c0 -11 14 -31 31 -45 24 -21 34 -24 45 -15 15 13 19 34 5
25 -5 -4 -22 7 -38 24 -33 35 -43 37 -43 11z"/>
</g>
<g>
<path d="M705 1020 c3 -5 15 -10 25 -10 10 0 22 5 25 10 4 6 -7 10 -25 10 -18
0 -29 -4 -25 -10z"/>
</g>
<g>
<path d="M2725 1000 c-4 -6 5 -10 19 -10 14 0 26 5 26 10 0 6 -9 10 -19 10
-11 0 -23 -4 -26 -10z"/>
</g>
<g>
<path d="M2886 259 c4 -8 30 -6 38 2 3 3 -5 5 -19 5 -13 0 -22 -3 -19 -7z"/>
</g>
<g>
<path d="M2560 269 c0 -5 5 -7 10 -4 6 3 10 8 10 11 0 2 -4 4 -10 4 -5 0 -10
-5 -10 -11z"/>
</g>
</g>
<g>
<path d="M1423 5102 c-104 -1 -173 -6 -173 -12 0 -6 10 -10 23 -10 22 0 45
-29 74 -94 17 -37 17 -36 -14 -36 -16 0 -35 -5 -43 -10 -10 -6 55 -10 193 -10
122 0 207 4 207 9 0 6 -14 11 -31 13 -42 4 -53 24 -45 81 6 41 10 47 32 47 39
0 28 18 -13 21 -21 2 -116 3 -210 1z m-10 -29 c2 -5 -4 -28 -14 -53 -15 -38
-18 -42 -25 -25 -4 11 -16 31 -26 44 -10 13 -18 28 -18 32 0 11 77 12 83 2z
m111 -50 c4 -34 3 -60 -4 -67 -14 -14 -17 -8 -25 62 -6 51 -4 62 8 62 10 0 16
-17 21 -57z m56 -3 c0 -62 -14 -81 -23 -33 -6 34 3 93 14 93 5 0 9 -27 9 -60z
m-112 -30 c-2 -28 -8 -36 -27 -38 -22 -4 -23 -1 -18 30 3 18 11 47 17 63 l12
30 10 -25 c5 -13 8 -40 6 -60z"/>
</g>
<g>
<path d="M2142 664 c-31 -32 -31 -34 -10 -34 12 0 32 10 45 22 19 17 23 19 17
5 -5 -14 -1 -17 22 -15 31 2 54 15 54 29 0 5 -6 9 -14 9 -8 0 -16 6 -19 13 -3
9 -7 9 -20 -2 -11 -9 -17 -10 -17 -2 0 20 -25 10 -58 -25z"/>
</g>
<g>
<path d="M615 680 c-172 -5 -222 -25 -63 -24 356 3 404 6 392 25 -5 9 -42 9
-329 -1z"/>
</g>
<g>
<path d="M2455 680 c-4 -6 -14 -9 -23 -8 -26 5 -26 -29 0 -36 24 -6 48 15 48
41 0 15 -16 17 -25 3z"/>
</g>
<g>
<path d="M2053 667 c-55 -16 -64 -27 -21 -27 41 0 98 18 98 31 0 11 -24 10
-77 -4z"/>
</g>
<g>
<path d="M2540 646 c0 -35 18 -42 30 -11 13 35 13 35 -10 35 -15 0 -20 -7 -20
-24z"/>
</g>
<g>
<path d="M2596 653 c-11 -11 -6 -23 9 -23 8 0 15 4 15 9 0 13 -16 22 -24 14z"/>
</g>
<g>
<path d="M367 634 c-8 -8 1 -24 14 -24 5 0 9 7 9 15 0 15 -12 20 -23 9z"/>
</g>
<g>
<path d="M1592 628 c3 -7 21 -14 41 -16 31 -3 36 -7 34 -25 -2 -21 1 -22 116
-25 93 -2 118 0 115 10 -4 10 -26 12 -86 9 -67 -2 -82 0 -82 11 0 29 -35 48
-89 48 -38 0 -51 -4 -49 -12z"/>
</g>
<g>
<path d="M1952 581 c3 -14 26 -16 163 -19 171 -3 296 7 302 23 2 6 -80 10
-232 11 -212 1 -236 0 -233 -15z"/>
</g>
<g>
<path d="M1040 481 c0 -11 300 -20 313 -10 4 3 -23 9 -60 12 -102 10 -253 8
-253 -2z"/>
</g>
<g>
<path d="M665 352 c-3 -3 -77 -6 -165 -8 -157 -3 -180 -6 -180 -24 0 -9 257
-5 350 5 19 2 64 4 99 4 40 1 61 5 55 10 -10 10 -151 21 -159 13z"/>
</g>
<g>
<path d="M1450 270 c-41 -4 -114 -11 -162 -15 -49 -4 -88 -11 -88 -16 0 -12
308 0 333 13 16 8 15 30 -1 27 -4 -1 -41 -5 -82 -9z"/>
</g>
<g>
<path d="M477 214 c-13 -13 5 -24 39 -24 24 0 34 4 32 13 -5 13 -60 22 -71 11z"/>
</g>
<g>
<path d="M416 82 c-8 -14 0 -18 56 -26 41 -6 72 4 51 17 -19 12 -101 18 -107
9z"/>
</g>
<g>
<path d="M187 35 c-7 -17 9 -30 18 -15 3 5 15 10 26 10 10 0 19 5 19 10 0 16
-57 12 -63 -5z"/>
</g>
<g>
<path d="M335 40 c3 -5 15 -10 26 -10 10 0 19 5 19 10 0 6 -12 10 -26 10 -14
0 -23 -4 -19 -10z"/>
</g>
</g>
</svg>
