<?xml version="1.0" standalone="no"?>
<!DOCTYPE svg PUBLIC "-//W3C//DTD SVG 20010904//EN"
 "http://www.w3.org/TR/2001/REC-SVG-20010904/DTD/svg10.dtd">
<svg version="1.0" xmlns="http://www.w3.org/2000/svg"
 width="300.000000pt" height="530.000000pt" viewBox="0 0 300.000000 530.000000"
 preserveAspectRatio="xMidYMid meet">
<metadata>
Created by potrace 1.15, written by Peter Selinger 2001-2017
</metadata>
<g transform="translate(0.000000,530.000000) scale(0.100000,-0.100000)"
fill="#000000" stroke="none">
<g>
<path d="M215 5291 c-99 -3 -184 -9 -190 -13 -8 -5 -13 -3635 -7 -4976 l2
-303 972 4 c591 2 973 7 975 13 2 5 -238 9 -622 8 l-625 0 -15 22 c-14 22 -13
22 58 28 40 3 98 9 130 12 48 5 57 3 57 -10 0 -9 5 -16 10 -16 6 0 10 7 10 15
0 10 11 15 35 15 28 0 35 -4 35 -20 0 -11 7 -20 15 -20 9 0 15 9 15 21 0 20 4
21 48 14 26 -4 50 -12 53 -17 4 -6 15 -8 24 -4 10 3 23 2 29 -2 14 -11 82 -22
90 -15 3 3 1 14 -5 25 -10 18 -8 19 26 12 20 -3 247 -7 503 -7 547 -1 772 14
845 56 23 13 58 30 77 37 19 8 42 23 51 34 14 17 22 19 45 11 34 -13 44 -35
14 -35 -16 0 -20 4 -16 16 4 10 1 14 -6 12 -23 -8 -19 -26 9 -36 l28 -10 -32
-12 c-22 -8 -31 -18 -30 -31 2 -25 17 -25 17 1 0 15 7 20 25 20 23 0 25 -4 25
-40 0 -71 26 -45 34 35 2 23 9 31 28 33 22 3 25 -1 26 -27 0 -23 -4 -31 -21
-34 -22 -4 -22 -4 1 -6 16 -1 22 -7 22 -25 0 -14 -5 -28 -11 -32 -6 -3 -228
-9 -493 -13 -312 -4 -480 -10 -478 -16 2 -11 278 -11 652 -2 113 3 238 6 278
6 l72 1 0 2640 0 2640 -27 0 c-22 0 -25 -2 -13 -10 13 -8 15 -285 17 -2376 2
-1992 0 -2365 -11 -2361 -8 3 -42 -3 -77 -14 -53 -17 -79 -19 -154 -13 -49 3
-103 12 -119 20 -16 8 -35 14 -42 14 -13 0 -85 -39 -94 -51 -11 -14 -65 -18
-242 -19 l-186 -2 -58 30 c-43 21 -58 34 -56 46 3 15 -2 17 -25 12 -27 -6
-180 40 -242 74 -28 14 -35 9 -18 -14 7 -9 55 -31 107 -49 52 -18 100 -36 106
-39 20 -13 267 -113 316 -128 48 -15 278 -132 278 -141 0 -5 -6 -12 -14 -15
-8 -3 -16 -14 -19 -25 -8 -31 -35 -24 -29 9 5 24 4 26 -11 13 -15 -12 -17 -11
-17 3 0 23 -50 33 -62 12 -13 -23 -27 -20 -21 4 4 14 0 20 -11 20 -9 0 -16 -7
-16 -15 0 -8 -4 -15 -9 -15 -18 0 -22 19 -9 39 18 30 -1 40 -23 12 -22 -27
-36 -22 -20 8 8 14 8 22 -1 27 -6 4 -14 2 -16 -4 -6 -20 -21 -13 -15 7 5 21
-29 35 -46 18 -15 -15 -14 -37 1 -37 6 0 9 -2 6 -5 -13 -13 -38 9 -38 34 -1
22 -2 24 -11 8 -16 -27 -30 -20 -23 11 7 26 6 27 -13 10 -24 -22 -40 -24 -23
-3 16 19 5 34 -12 17 -19 -19 -30 -14 -18 7 14 27 13 30 -10 24 -11 -3 -20
-12 -20 -19 0 -8 -4 -14 -10 -14 -12 0 -12 2 -1 33 6 14 7 28 4 31 -10 10 -33
-15 -33 -35 0 -20 -15 -26 -24 -10 -3 5 1 14 9 21 8 7 15 16 15 21 0 15 -27
10 -34 -6 -3 -8 -10 -15 -15 -15 -6 0 -8 7 -5 15 7 18 -7 20 -23 4 -15 -15
-33 -3 -33 22 0 10 -4 19 -10 19 -5 0 -10 -7 -10 -15 0 -8 -7 -15 -16 -15 -10
0 -14 6 -10 15 3 8 3 22 -1 30 -5 13 -8 13 -20 -5 -18 -26 -37 -26 -21 0 16
26 3 37 -20 17 -25 -23 -35 -21 -27 3 5 14 2 20 -9 20 -9 0 -16 5 -16 10 0 6
-7 10 -15 10 -8 0 -15 3 -15 8 0 4 -12 13 -27 19 -27 13 -35 9 -46 -22 -3 -5
-7 -7 -11 -3 -4 3 -3 15 3 27 13 23 -1 37 -18 17 -18 -21 -51 -8 -51 20 0 29
-16 32 -25 4 -10 -31 -26 -24 -19 8 l7 27 -23 -20 -23 -20 6 23 c4 15 0 25
-14 32 -15 9 -17 8 -12 -7 5 -14 0 -12 -27 7 -32 23 -33 23 -46 5 -13 -18 -14
-18 -14 3 0 15 -6 22 -20 22 -11 0 -20 7 -20 15 0 22 -18 18 -25 -5 -3 -11
-10 -20 -14 -20 -16 0 -19 13 -8 31 13 21 2 38 -15 21 -8 -8 -15 -7 -24 6 -12
15 -15 15 -24 2 -5 -8 -11 -19 -13 -25 -3 -5 -8 -7 -12 -3 -4 4 -3 13 2 20 5
7 13 20 16 29 8 24 -30 12 -44 -12 -15 -29 -30 -23 -19 7 9 24 8 26 -10 21
-13 -3 -20 0 -20 9 0 21 -18 17 -30 -6 -6 -11 -15 -20 -21 -20 -6 0 -3 10 5
22 21 30 20 38 -5 38 -12 0 -23 -8 -26 -20 -8 -32 -23 -23 -21 11 2 19 -2 34
-9 36 -8 3 -13 -5 -13 -21 0 -13 -5 -28 -11 -32 -7 -4 -10 4 -8 22 5 43 -6 54
-42 44 -16 -5 -36 -7 -43 -4 -8 3 -16 -2 -20 -11 -3 -9 -10 -13 -16 -10 -7 4
-7 13 0 26 12 21 7 24 -20 9 -16 -8 -18 -8 -14 5 4 10 0 15 -10 15 -9 0 -16
-7 -16 -15 0 -8 -7 -15 -15 -15 -12 0 -13 4 -5 19 5 11 10 24 10 30 0 19 -17
12 -28 -11 -10 -21 -11 -21 -9 -3 3 29 -16 34 -28 7 -5 -12 -13 -22 -17 -22
-12 0 -10 18 3 25 7 5 2 15 -12 28 l-22 21 -18 -23 c-17 -21 -19 -22 -19 -4 0
10 5 24 11 30 7 7 7 13 0 17 -5 4 -18 -5 -27 -19 -20 -30 -31 -27 -13 4 17 26
2 42 -16 17 -8 -10 -16 -24 -18 -30 -2 -6 -8 -8 -12 -4 -4 4 -2 14 5 23 7 9
10 19 6 23 -4 4 -14 -2 -22 -12 -14 -20 -14 -20 -14 0 0 11 5 25 12 32 9 9 9
12 0 12 -6 0 -17 -9 -24 -20 -13 -21 -28 -27 -28 -11 0 5 7 16 15 25 11 10 12
17 4 22 -12 7 -29 -12 -29 -33 0 -7 -4 -13 -10 -13 -13 0 -13 37 0 45 6 4 8
11 4 16 -8 13 -34 -8 -34 -27 0 -8 -9 -14 -20 -14 -24 0 -26 13 -5 30 15 13
21 40 8 40 -3 0 -15 -8 -25 -17 -15 -14 -18 -14 -13 -2 8 20 -20 43 -42 35 -9
-4 -20 -2 -23 5 -6 8 -13 8 -29 -1 -21 -10 -22 -10 -12 8 15 29 0 36 -22 10
-18 -23 -18 -23 -12 -1 8 29 -11 39 -25 12 -7 -11 -14 -18 -17 -15 -3 3 0 12
7 21 7 9 10 19 6 23 -4 4 -16 -4 -27 -18 l-21 -25 6 27 c6 27 -6 38 -19 18
-13 -21 -32 -9 -32 20 0 17 5 30 11 30 6 0 43 -12 81 -26 39 -15 115 -43 170
-63 96 -35 192 -84 207 -106 4 -5 8 -6 8 0 0 5 5 4 12 -3 7 -7 23 -12 37 -12
13 0 32 -6 40 -14 9 -8 52 -26 96 -41 44 -16 85 -34 91 -41 6 -8 14 -11 17 -8
7 7 130 -31 169 -52 14 -8 34 -14 43 -14 9 0 41 -11 71 -25 30 -14 60 -25 67
-25 7 0 17 -4 23 -9 5 -4 42 -21 81 -36 40 -14 73 -30 73 -33 0 -4 10 -8 23
-8 12 -1 74 -22 137 -47 81 -32 117 -42 122 -34 9 15 2 20 -47 36 -78 25 -181
63 -285 106 -233 97 -386 154 -550 207 -52 16 -123 43 -156 59 -34 16 -67 29
-72 29 -6 0 -17 6 -25 14 -13 13 -162 76 -179 76 -5 0 -36 13 -70 29 -35 17
-84 35 -111 42 -26 6 -50 15 -53 20 -3 5 -14 9 -26 9 -14 0 -18 5 -14 16 3 9
6 81 6 160 l0 144 37 -16 c21 -9 83 -32 138 -51 55 -19 127 -46 160 -62 56
-26 83 -36 203 -77 26 -9 61 -22 77 -29 65 -27 141 -55 148 -55 14 0 282 -102
287 -109 7 -10 65 -33 278 -107 39 -14 72 -30 72 -34 0 -5 6 -15 13 -22 7 -7
21 -26 31 -42 17 -26 17 -30 2 -38 -18 -10 -22 -43 -5 -53 5 -4 18 0 27 9 16
14 19 13 30 -4 13 -22 47 -27 57 -9 4 6 -3 22 -16 35 -16 18 -20 27 -12 32 16
10 4 26 -31 43 -16 8 -31 19 -33 25 -5 16 68 -9 359 -120 36 -14 71 -26 76
-26 8 0 172 -65 227 -90 88 -40 141 -60 160 -60 12 0 28 -7 35 -15 7 -8 18
-15 25 -15 6 0 20 -9 30 -20 20 -22 74 -27 93 -8 12 12 12 11 27 -37 4 -14 62
-55 78 -55 4 0 11 8 14 18 4 9 13 22 21 28 8 6 12 16 8 22 -5 8 2 12 18 12 16
0 26 6 26 14 0 7 9 16 20 19 26 7 26 33 0 47 -16 8 -34 7 -75 -5 -30 -8 -55
-19 -55 -24 0 -10 -31 -24 -38 -16 -3 2 0 10 5 17 26 32 -3 54 -153 112 -82
32 -169 66 -194 76 -25 10 -79 30 -120 45 -41 15 -88 32 -104 38 l-28 10 27
14 c21 12 33 12 55 3 15 -6 41 -10 56 -8 23 2 29 8 27 24 -2 17 2 21 17 17 16
-4 20 0 20 20 0 29 -32 52 -57 43 -9 -4 -22 -1 -30 5 -21 18 -60 -4 -67 -38
-10 -46 -59 -59 -141 -38 -66 16 -166 52 -240 84 -22 10 -83 35 -135 55 -52
21 -151 59 -220 86 -69 27 -213 81 -320 120 -210 77 -307 114 -355 135 -115
50 -210 84 -218 76 -9 -9 55 -51 79 -51 8 0 13 -4 10 -9 -6 -9 36 -23 79 -26
19 -1 46 -11 110 -40 26 -12 176 -66 273 -98 20 -6 32 -17 32 -28 0 -10 4 -20
9 -23 11 -7 2 -46 -10 -46 -5 0 -9 8 -9 18 0 9 -12 22 -26 29 -28 13 -49 9
-39 -8 4 -5 1 -9 -5 -9 -6 0 -10 7 -8 16 2 10 -3 19 -9 21 -7 3 -13 0 -13 -6
0 -6 -5 -11 -10 -11 -7 0 -7 7 0 20 14 26 5 40 -25 40 -15 0 -26 -7 -30 -20
-3 -11 -10 -20 -15 -20 -5 0 -4 11 2 25 16 35 1 45 -22 15 l-18 -24 -5 29 c-4
28 -5 29 -12 8 -9 -29 -22 -30 -21 -1 1 13 -4 23 -11 23 -6 0 -15 3 -19 7 -12
13 -22 9 -27 -10 -4 -12 -5 -11 -6 6 -1 30 -30 41 -47 17 -13 -18 -14 -17 -15
6 -1 13 0 29 1 34 1 6 -2 7 -6 3 -4 -4 -13 -3 -21 3 -7 6 -13 8 -13 4 0 -4 -7
-2 -15 5 -12 10 -16 9 -21 -5 -7 -17 -8 -17 -20 0 -12 16 -14 16 -19 3 -8 -19
-55 -18 -55 1 0 11 -3 11 -15 1 -18 -15 -35 -5 -35 21 0 21 -30 27 -30 7 -1
-7 -7 1 -14 17 -12 29 -13 29 -20 8 -10 -31 -24 -29 -18 2 5 30 -17 35 -25 5
-8 -28 -21 -15 -15 15 6 31 -15 34 -27 2 -8 -19 -9 -18 -9 11 1 17 6 32 11 32
12 0 -24 29 -36 30 -5 0 -6 -9 -2 -19 3 -11 1 -22 -4 -25 -6 -4 -8 -13 -4 -21
3 -8 1 -15 -3 -15 -17 0 -35 17 -34 31 6 43 -10 52 -28 17 -11 -21 -11 -20 -6
9 6 36 -8 44 -25 16 -9 -15 -10 -13 -9 12 1 17 -1 36 -6 43 -17 28 43 11 136
-39 10 -5 26 -9 36 -9 10 0 22 -4 28 -9 7 -7 99 -41 111 -41 2 0 3 5 3 10 0 6
-12 15 -27 21 -15 6 -41 16 -58 24 -107 48 -201 85 -217 85 -17 0 -18 18 -18
346 0 273 3 345 13 340 6 -2 57 -19 112 -36 55 -17 123 -42 150 -55 28 -13
111 -44 185 -69 128 -42 183 -63 465 -169 144 -54 302 -116 425 -167 74 -31
108 -44 150 -60 33 -13 100 -66 100 -81 0 -4 -8 -6 -17 -5 -25 2 -23 -37 2
-48 11 -5 27 -23 35 -40 11 -22 23 -32 44 -34 27 -3 29 -2 23 27 -6 26 -3 31
13 31 11 0 20 7 20 14 0 18 -61 66 -83 66 -10 0 -17 5 -17 11 0 7 7 8 18 4 9
-4 42 -15 72 -25 47 -16 126 -46 205 -79 11 -5 51 -23 89 -40 38 -18 103 -45
145 -61 125 -47 201 -80 239 -103 21 -13 67 -38 103 -56 62 -30 71 -32 125
-24 l59 8 10 -40 c8 -33 15 -41 38 -43 32 -4 35 10 7 45 -26 33 -17 43 13 15
30 -28 35 -28 47 3 6 15 17 25 30 25 28 0 27 38 -2 49 -13 4 -43 8 -69 9 -37
0 -47 -4 -55 -21 -11 -26 -28 -26 -32 0 -5 24 -42 63 -59 63 -8 0 -2 -11 14
-24 23 -20 26 -27 15 -37 -10 -11 -18 -7 -42 19 -34 38 -70 42 -100 10 -11
-12 -20 -16 -20 -9 0 8 -7 10 -20 6 -14 -5 -20 -2 -20 10 0 12 -6 15 -20 10
-11 -4 -20 -3 -19 2 4 23 -2 35 -16 29 -8 -3 -15 -1 -15 5 0 6 -9 8 -21 4 -13
-5 -19 -3 -15 3 3 5 -1 15 -9 22 -12 10 -15 9 -15 -4 0 -9 -4 -16 -10 -16 -5
0 -10 7 -10 15 0 9 -6 12 -15 9 -8 -4 -15 -1 -15 5 0 6 -12 11 -27 11 -21 0
-24 3 -15 12 16 16 15 28 -3 28 -9 0 -18 -7 -21 -15 -4 -8 -10 -15 -15 -15 -6
0 -5 8 1 19 13 25 -8 42 -22 17 -5 -9 -14 -16 -20 -16 -6 0 -6 6 2 15 9 11 10
19 3 26 -8 8 -13 5 -18 -10 -8 -25 -27 -29 -23 -5 2 10 -3 19 -9 21 -7 3 -13
0 -13 -6 0 -6 -5 -11 -11 -11 -8 0 -8 4 1 15 15 18 7 31 -27 40 -20 5 -31 2
-41 -12 -12 -16 -13 -15 -7 10 6 20 4 27 -8 27 -8 0 -17 -7 -21 -15 -8 -23
-29 -18 -23 5 7 26 -9 35 -30 18 -14 -11 -16 -11 -11 4 10 24 -3 30 -24 11
-17 -15 -18 -15 -18 7 0 19 -3 21 -12 12 -17 -17 -29 -15 -22 3 4 10 0 15 -16
15 -11 0 -19 -4 -15 -9 3 -5 1 -12 -5 -16 -6 -4 -10 5 -10 19 0 28 -17 35 -26
11 -10 -25 -27 -17 -20 10 5 18 2 25 -9 25 -8 0 -15 -7 -15 -15 0 -8 -7 -15
-15 -15 -8 0 -12 6 -9 15 10 26 -6 38 -28 18 -11 -9 -19 -13 -18 -8 7 31 -2
45 -25 45 -14 0 -28 -7 -31 -15 -9 -21 -24 -8 -24 21 0 25 -24 34 -33 12 -3
-8 -6 -6 -6 5 -1 21 -31 23 -31 1 0 -8 -4 -13 -9 -10 -5 3 -7 16 -4 27 5 19 3
21 -20 15 -16 -4 -27 -2 -30 7 -3 9 -7 9 -20 -2 -15 -12 -17 -11 -17 7 0 11
-8 22 -17 26 -10 3 -24 9 -30 12 -8 3 -13 -1 -13 -10 0 -9 -7 -16 -16 -16 -12
0 -15 6 -11 21 4 16 -2 24 -30 35 -32 14 -36 14 -49 -3 -12 -17 -13 -16 -14 6
0 18 -4 22 -20 18 -13 -3 -20 0 -20 9 0 24 -46 40 -66 23 -16 -13 -17 -12 -12
9 7 25 -22 48 -47 38 -8 -3 -17 -1 -20 4 -4 6 -15 10 -26 10 -10 0 -19 5 -19
11 0 6 -9 8 -21 4 -14 -5 -28 0 -42 13 -27 24 -75 33 -99 19 -15 -10 -21 -8
-34 11 -15 22 -17 22 -30 5 -13 -17 -13 -17 -14 4 0 27 -18 40 -26 19 -3 -9
-11 -16 -16 -16 -7 0 -6 5 1 14 9 10 8 15 -3 19 -8 3 -20 -1 -26 -8 -15 -18
-31 -10 -23 12 5 14 1 15 -25 10 -25 -5 -32 -3 -32 9 0 12 -7 14 -30 9 -26 -6
-30 -4 -30 16 0 21 -1 21 -19 5 -19 -17 -39 -7 -26 13 10 17 -13 21 -29 5 -18
-18 -38 -10 -29 11 6 18 -8 20 -25 3 -9 -9 -12 -8 -12 5 0 10 -8 17 -19 17
-11 0 -21 9 -24 22 -6 21 -7 21 -25 5 -20 -18 -34 -14 -26 8 7 18 -15 30 -29
16 -16 -16 -37 -14 -37 4 0 17 -16 20 -25 5 -13 -21 -24 -9 -18 21 5 29 4 31
-16 24 -12 -4 -21 -2 -21 4 0 17 -21 13 -37 -7 -12 -15 -13 -13 -7 17 5 26 3
32 -7 29 -8 -3 -15 -14 -17 -26 -2 -12 -7 -20 -12 -17 -4 3 -6 13 -3 24 3 14
-2 20 -26 24 -34 7 -43 27 -11 27 18 0 37 -6 108 -37 18 -8 57 -21 87 -28 51
-14 169 -57 304 -112 39 -16 66 -34 69 -45 5 -20 43 -34 67 -24 14 5 41 -4
130 -44 22 -10 81 -32 130 -48 161 -55 236 -84 345 -135 30 -14 89 -37 130
-51 90 -30 138 -46 165 -57 11 -4 29 -10 40 -12 55 -14 476 -173 558 -211 32
-14 63 -26 70 -26 20 1 -16 18 -130 64 -147 58 -139 55 -223 86 -241 87 -342
124 -395 145 -33 12 -71 26 -85 30 -25 7 -40 13 -142 59 -31 14 -60 26 -65 26
-4 0 -15 4 -23 10 -12 7 -12 12 4 29 23 25 36 27 36 5 0 -10 7 -14 23 -12 35
5 29 42 -8 48 -16 3 -29 9 -27 13 1 4 2 12 2 17 0 6 7 10 16 10 11 0 14 -5 10
-16 -4 -10 -1 -14 6 -12 7 3 13 13 13 24 0 15 -10 20 -54 27 -30 4 -57 5 -60
2 -3 -4 2 -26 11 -51 15 -42 15 -45 -3 -55 -12 -6 -26 -6 -36 0 -10 5 -61 23
-113 41 -110 38 -346 131 -405 160 -52 25 -249 102 -348 135 -43 14 -90 31
-105 37 -15 6 -36 14 -47 18 -81 30 -75 22 -75 106 0 68 2 75 18 69 9 -4 49
-18 87 -32 39 -14 84 -31 102 -39 17 -8 37 -14 43 -14 22 0 330 -106 450 -155
63 -26 147 -57 185 -70 39 -12 81 -27 95 -33 14 -6 57 -23 95 -37 39 -15 84
-33 100 -40 17 -7 80 -32 140 -55 61 -23 162 -64 225 -91 63 -26 145 -60 182
-73 59 -22 108 -55 108 -71 0 -3 -11 -5 -25 -5 -18 0 -25 -5 -25 -20 0 -17 9
-24 31 -22 3 1 18 -10 34 -24 31 -27 75 -32 75 -10 0 8 -4 17 -9 20 -10 7 9
56 22 56 7 0 119 -41 207 -75 19 -8 53 -19 75 -26 22 -7 48 -20 57 -27 13 -11
32 -13 76 -8 68 8 92 1 92 -25 0 -24 35 -59 59 -59 10 0 21 9 24 20 3 11 13
20 22 20 11 0 16 7 13 24 -1 13 3 31 11 40 20 24 -1 44 -47 44 -49 1 -72 -6
-72 -22 0 -8 -10 -12 -22 -11 -34 4 -35 4 -14 20 17 13 18 16 3 39 -16 24
-158 86 -197 86 -10 0 -20 4 -22 8 -1 5 -48 26 -103 47 -55 21 -124 48 -153
61 -68 31 -292 117 -362 139 -30 10 -117 42 -192 71 -76 30 -141 54 -145 54
-4 0 -14 4 -22 9 -11 7 -9 14 15 34 26 23 30 23 51 10 33 -22 68 -14 67 17 -1
13 5 31 13 38 23 23 11 47 -25 50 -17 2 -32 -1 -32 -7 0 -5 -10 -11 -22 -13
-19 -2 -22 -8 -20 -30 2 -19 -1 -28 -10 -28 -7 0 -22 -9 -31 -21 -29 -33 -86
-22 -307 56 -52 19 -133 47 -180 64 -216 75 -630 225 -680 247 l-55 23 -3 306
c-1 168 0 305 2 305 6 0 43 -15 103 -41 24 -11 49 -19 57 -19 8 0 17 -4 20 -9
3 -5 18 -12 33 -16 31 -7 132 -50 286 -119 32 -14 59 -26 62 -26 2 0 42 -18
89 -40 47 -22 89 -40 94 -40 5 0 19 -12 33 -26 24 -27 24 -27 2 -22 -34 9 -49
-16 -24 -41 11 -11 24 -29 31 -40 12 -24 60 -29 60 -7 0 7 10 16 21 19 17 5
20 11 17 31 -3 14 -4 26 -3 26 6 0 92 -31 110 -39 11 -6 81 -33 155 -62 139
-55 200 -85 200 -99 0 -4 14 -13 30 -19 17 -5 30 -17 30 -25 0 -16 34 -31 50
-21 5 3 10 12 10 20 0 9 9 5 25 -10 29 -30 51 -32 65 -5 6 11 16 20 23 20 7 0
18 5 25 12 16 16 -13 48 -44 48 -16 0 -22 5 -18 14 9 23 -26 49 -59 42 -22 -5
-28 -3 -24 8 6 15 -49 74 -59 63 -3 -3 3 -12 15 -19 29 -18 26 -29 -5 -26 -32
4 -44 -17 -14 -25 11 -3 20 -13 20 -22 0 -11 5 -15 15 -11 21 8 19 -17 -3 -37
-25 -23 -50 -24 -32 -2 11 13 8 20 -19 44 -17 15 -31 33 -31 39 0 21 -20 13
-29 -10 -8 -21 -10 -21 -16 -5 -5 12 -16 17 -34 15 -20 -2 -27 2 -29 20 -4 25
-32 31 -32 6 0 -8 -5 -12 -10 -9 -6 4 -8 15 -5 26 8 23 -7 25 -25 4 -19 -22
-33 -18 -26 8 4 19 0 25 -26 35 -27 10 -33 9 -45 -6 -13 -16 -13 -16 -11 2 2
10 -3 21 -9 23 -7 3 -13 0 -13 -6 0 -6 -4 -11 -10 -11 -5 0 -10 10 -10 22 0
17 -3 19 -12 10 -17 -17 -39 -15 -36 4 2 10 -3 19 -9 21 -7 3 -13 0 -13 -6 0
-6 -5 -11 -11 -11 -5 0 -8 4 -4 9 8 15 -15 25 -28 12 -17 -17 -27 -13 -27 9 0
21 -15 27 -25 10 -10 -17 -25 -11 -25 10 0 23 -10 26 -29 8 -11 -11 -12 -9 -6
10 8 26 -15 31 -35 7 -16 -19 -33 -9 -25 16 7 21 -5 25 -22 8 -9 -9 -10 -7 -6
10 4 15 1 21 -10 21 -8 0 -18 -6 -20 -12 -3 -8 -6 -6 -6 5 -1 20 -12 22 -28 6
-15 -15 -34 -3 -26 16 6 17 -12 21 -22 5 -10 -17 -25 -11 -25 10 0 23 -10 26
-28 8 -16 -16 -28 -2 -14 15 7 8 9 17 5 21 -4 4 -15 -3 -24 -15 -20 -27 -43
-16 -35 17 8 29 -10 32 -30 7 -12 -17 -13 -16 -14 4 0 12 -4 24 -10 28 -5 3
-7 12 -3 20 3 8 0 15 -6 15 -6 0 -11 -7 -11 -16 0 -11 -6 -14 -20 -9 -11 4
-20 2 -20 -4 0 -6 -7 -11 -15 -11 -11 0 -15 11 -15 36 0 21 4 33 10 29 6 -3
10 -13 10 -21 0 -20 24 -12 28 9 2 11 -9 19 -39 27 -50 14 -63 4 -44 -33 13
-26 13 -28 -3 -25 -9 2 -18 13 -20 26 -4 27 -10 28 -29 5 -12 -16 -13 -14 -8
17 l6 35 -20 -22 c-26 -31 -34 -29 -26 6 6 26 3 30 -24 36 -17 4 -33 11 -36
16 -11 17 -33 9 -40 -13 -6 -20 -8 -20 -12 -5 -5 19 -18 22 -28 7 -11 -18 -25
-10 -25 15 0 16 -6 25 -15 25 -10 0 -15 10 -15 34 l0 34 78 -27 c42 -16 126
-49 185 -75 59 -25 112 -46 117 -46 6 0 10 -4 10 -8 0 -4 42 -23 93 -41 50
-19 121 -47 157 -63 35 -17 94 -39 130 -50 36 -11 85 -30 110 -43 25 -12 63
-28 85 -35 22 -7 64 -23 93 -36 29 -13 57 -24 63 -24 10 0 62 -22 177 -76 29
-13 62 -24 75 -24 24 0 -70 48 -138 70 -22 7 -49 18 -60 23 -11 6 -22 12 -25
13 -8 1 -40 15 -85 35 -23 10 -54 21 -70 24 -17 4 -62 23 -102 41 -39 19 -77
34 -83 34 -7 0 -26 6 -43 14 -18 8 -63 28 -102 44 -38 16 -79 33 -90 38 -16 7
-12 9 22 12 77 6 84 52 8 52 -38 0 -44 3 -47 22 -3 25 -25 33 -48 18 -12 -8
-13 -13 -3 -29 27 -43 -31 -42 -128 3 -134 62 -237 106 -305 131 -36 13 -68
26 -70 28 -3 2 -3 70 -2 150 l3 145 85 -33 c47 -19 117 -46 155 -60 39 -14 84
-32 100 -40 17 -8 84 -35 150 -61 65 -26 126 -50 135 -54 8 -5 107 -44 220
-88 185 -73 232 -89 365 -125 53 -14 117 -46 131 -66 9 -12 9 -18 -3 -26 -22
-16 -12 -49 15 -53 12 -2 30 -14 38 -28 19 -28 42 -31 51 -6 3 9 13 25 20 34
8 9 12 22 7 29 -10 16 35 5 106 -28 30 -14 107 -44 170 -68 63 -24 144 -58
180 -75 35 -18 75 -36 90 -41 14 -4 50 -17 80 -29 30 -13 80 -31 110 -42 30
-11 96 -39 145 -63 50 -24 109 -48 133 -55 34 -9 45 -17 56 -45 8 -18 25 -41
39 -49 26 -18 57 -12 57 10 0 16 -16 19 -25 4 -9 -15 -45 7 -45 27 0 14 2 14
19 -1 19 -17 21 -17 43 4 23 21 23 22 4 36 -11 8 -33 14 -50 14 l-30 0 22 16
c27 19 59 11 84 -22 19 -23 48 -23 48 1 0 7 10 19 22 27 12 8 19 19 15 25 -7
11 -81 10 -109 -2 -13 -5 -20 -1 -27 17 -11 30 -66 78 -89 78 -21 0 -179 53
-218 73 -16 8 -35 12 -41 10 -7 -3 -28 4 -45 15 -18 11 -58 30 -88 42 -30 12
-102 42 -160 67 -90 39 -136 58 -245 103 -11 4 -49 20 -85 35 -139 57 -199 79
-302 110 -49 14 -103 34 -120 44 -18 10 -51 24 -73 31 -43 12 -47 14 -140 53
-33 14 -78 30 -100 36 -53 15 -71 26 -55 36 6 4 17 2 23 -4 20 -20 46 -12 53
17 3 15 7 33 10 40 4 15 -31 52 -50 52 -8 0 -18 -4 -21 -10 -3 -5 -15 -10 -25
-10 -14 0 -18 -7 -18 -30 2 -52 -12 -54 -98 -20 -44 18 -142 56 -219 86 -169
65 -162 62 -255 107 -115 55 -167 77 -184 77 -8 0 -27 5 -41 12 -24 11 -25 14
-25 110 0 54 3 98 6 98 3 0 47 -21 97 -46 50 -25 113 -55 141 -65 28 -11 69
-29 91 -39 78 -36 135 -60 141 -60 3 0 20 -6 37 -14 87 -39 131 -57 227 -89
58 -19 119 -41 135 -47 52 -21 67 -26 195 -65 69 -21 158 -53 198 -71 40 -19
79 -34 86 -34 7 0 16 -3 19 -6 4 -4 64 -27 134 -51 185 -64 417 -143 422 -143
2 0 1 6 -2 14 -3 7 -1 18 5 24 6 6 6 12 -2 17 -6 4 -17 2 -23 -4 -16 -16 -30
-14 -23 4 6 17 -19 21 -29 5 -12 -20 -25 -9 -19 15 7 30 -19 36 -35 8 -7 -11
-11 -13 -11 -5 0 9 -7 11 -21 7 -19 -6 -21 -4 -17 19 7 35 -6 42 -21 10 -6
-14 -16 -22 -21 -19 -6 4 -8 11 -5 16 4 5 3 14 -1 21 -5 8 -11 6 -20 -6 -14
-20 -36 -13 -27 9 3 9 -1 15 -11 15 -9 0 -16 -4 -16 -10 0 -5 -4 -10 -9 -10
-5 0 -7 9 -4 20 6 23 -15 28 -23 5 -9 -22 -27 -18 -21 5 7 25 -7 34 -23 15
-19 -23 -31 -18 -24 10 4 16 2 25 -6 25 -6 0 -14 -9 -17 -20 -3 -11 -9 -17
-15 -14 -5 3 -5 11 2 19 8 10 8 15 0 20 -6 4 -18 -1 -26 -11 -14 -18 -15 -17
-9 9 6 31 -9 36 -25 7 -15 -28 -30 -25 -30 5 0 29 -8 32 -26 8 -10 -15 -15
-16 -25 -5 -7 6 -21 12 -31 12 -13 0 -18 8 -18 25 0 14 5 25 10 25 6 0 10 -7
10 -16 0 -8 5 -12 10 -9 6 3 10 1 10 -4 0 -6 7 -11 15 -11 23 0 18 35 -7 48
-36 17 -88 25 -88 13 0 -6 5 -11 10 -11 12 0 13 -27 2 -34 -5 -3 -19 4 -31 15
-12 12 -29 18 -37 15 -8 -3 -14 1 -14 9 0 18 -27 20 -32 3 -2 -6 -10 -8 -16
-4 -9 5 -9 13 -2 26 14 27 -6 36 -22 10 -16 -26 -28 -26 -28 0 0 21 -26 28
-32 8 -3 -7 -12 -9 -22 -5 -14 6 -16 10 -7 21 9 11 9 16 0 22 -7 4 -17 0 -24
-9 -13 -18 -35 -23 -35 -8 0 6 4 13 10 16 15 10 12 25 -6 25 -9 0 -18 -9 -21
-20 -3 -11 -9 -20 -14 -20 -12 0 -11 27 1 35 13 8 3 25 -14 25 -8 0 -16 -9
-19 -21 -3 -12 -10 -18 -17 -14 -8 5 -8 10 0 20 7 8 7 16 2 19 -6 3 -15 -1
-22 -9 -19 -23 -31 -18 -24 11 5 20 4 25 -5 20 -7 -4 -18 -2 -26 4 -11 9 -17
7 -27 -9 -16 -27 -31 -27 -23 -1 5 14 2 20 -9 20 -9 0 -16 -4 -16 -10 0 -5 -5
-10 -11 -10 -6 0 -8 8 -4 19 8 27 -12 36 -25 11 -13 -25 -30 -18 -23 10 6 23
-15 28 -23 5 -4 -8 -10 -15 -15 -15 -5 0 -9 7 -9 15 0 8 4 15 10 15 16 0 24
51 9 61 -20 12 -4 22 18 10 10 -6 90 -37 178 -70 141 -52 263 -102 317 -132
10 -5 22 -9 27 -9 5 0 22 -5 38 -11 56 -23 159 -61 218 -79 77 -24 136 -48
250 -99 36 -17 301 -111 311 -111 2 0 4 4 4 8 0 8 -38 24 -265 107 -118 44
-205 86 -188 92 7 2 21 0 32 -6 33 -18 53 -14 49 12 -2 16 -11 23 -31 25 -16
2 -31 10 -34 18 -7 18 -34 18 -59 -1 -25 -19 -35 -19 -28 0 4 9 0 15 -10 15
-9 0 -16 -8 -16 -20 0 -11 -4 -20 -8 -20 -12 0 -267 96 -317 119 -69 32 -255
108 -370 151 -127 48 -132 50 -205 83 -30 13 -84 34 -120 46 -36 12 -73 27
-84 32 -28 16 -308 130 -333 136 -21 5 -22 11 -25 119 -2 63 -2 119 0 124 2 6
16 3 32 -5 16 -8 39 -15 52 -15 13 0 47 -11 76 -25 30 -14 58 -25 64 -25 5 0
33 -11 62 -25 29 -14 67 -28 84 -31 18 -4 32 -10 32 -15 0 -5 8 -9 17 -9 10 0
53 -18 98 -39 44 -21 96 -42 115 -46 29 -6 121 -39 390 -140 19 -7 98 -38 175
-68 77 -31 207 -82 289 -113 103 -40 151 -64 154 -76 2 -10 8 -18 12 -18 5 0
11 -9 15 -19 6 -21 52 -41 93 -41 23 0 24 -1 9 -12 -21 -16 -8 -40 25 -44 12
-1 26 -3 29 -3 4 -1 12 -14 19 -30 12 -30 35 -46 51 -35 15 9 4 72 -16 94 -24
26 -14 25 70 -6 212 -80 211 -80 234 -60 31 28 26 44 -16 52 -21 4 -44 11 -51
17 -10 8 -14 5 -19 -11 -3 -12 -10 -22 -15 -22 -6 0 -7 11 -4 26 6 21 3 27
-14 31 -16 4 -21 12 -17 29 2 13 0 21 -4 18 -10 -6 -12 9 -3 19 7 6 51 -7 111
-34 24 -10 47 -19 51 -19 5 0 17 -9 27 -20 9 -10 27 -18 39 -17 15 1 20 -3 18
-15 -2 -10 2 -18 8 -18 5 0 10 5 10 11 0 13 40 5 84 -17 16 -8 35 -14 42 -14
22 0 24 -16 2 -17 -26 -2 -27 -3 -30 -41 -1 -21 -6 -28 -12 -22 -15 15 -29 12
-23 -4 4 -10 1 -13 -9 -9 -18 7 -18 12 5 32 21 18 37 61 23 61 -5 0 -12 -9
-15 -20 -3 -13 -11 -18 -21 -14 -10 4 -17 -2 -22 -20 -9 -39 -24 -31 -17 9 7
41 -3 46 -17 10 -5 -14 -14 -25 -20 -25 -13 0 -13 17 0 25 6 3 10 16 10 28 -1
21 -2 20 -27 -8 -15 -16 -24 -22 -20 -12 4 9 10 24 13 32 10 24 -13 17 -35
-11 -28 -35 -27 -38 14 -57 92 -44 282 -123 330 -137 22 -7 45 -17 52 -22 14
-11 47 -3 67 18 13 12 20 9 52 -26 39 -42 81 -53 103 -26 9 11 1 22 -40 55
l-52 41 37 0 c20 0 36 -5 36 -11 0 -15 64 -39 88 -32 32 8 27 31 -12 54 -23
14 -32 25 -29 38 12 46 -57 47 -80 1 -17 -33 -44 -38 -49 -9 -2 12 -10 26 -18
30 -23 13 -295 118 -390 151 -47 16 -110 39 -140 53 -30 13 -93 37 -140 55
-47 17 -121 47 -165 65 -44 19 -154 62 -244 95 -90 33 -182 69 -205 79 -36 16
-251 100 -418 164 -32 12 -58 25 -58 29 0 12 35 9 48 -4 17 -17 50 15 35 34
-6 7 -13 24 -15 38 -2 21 -8 25 -35 25 -18 0 -38 6 -44 13 -31 30 -96 -1 -69
-33 7 -8 21 -15 31 -15 22 0 35 -18 22 -31 -14 -14 -174 39 -308 102 -22 10
-92 37 -155 60 -63 22 -129 47 -146 54 -16 8 -49 17 -72 21 -23 4 -42 10 -42
14 0 9 -125 70 -145 70 -28 0 -15 -18 17 -25 18 -4 44 -15 58 -25 14 -10 35
-21 48 -24 12 -4 22 -14 22 -21 0 -8 6 -12 14 -9 8 3 17 1 21 -5 3 -6 16 -9
28 -6 12 3 58 -8 102 -24 185 -68 251 -94 265 -105 8 -7 33 -18 55 -25 22 -7
73 -28 113 -47 40 -19 77 -34 83 -34 15 0 97 -39 103 -49 3 -5 29 -15 58 -21
59 -15 249 -87 263 -101 5 -5 15 -9 21 -9 7 0 25 -5 41 -11 15 -6 30 -10 33
-10 3 0 12 -6 20 -14 8 -7 35 -19 60 -26 25 -7 50 -16 55 -20 6 -3 25 -10 43
-14 18 -3 30 -11 27 -16 -4 -5 0 -6 8 -3 8 3 31 -2 53 -9 96 -36 152 -59 184
-76 19 -10 49 -22 67 -25 42 -10 106 -43 94 -50 -5 -3 -31 5 -58 18 -26 13
-72 29 -100 36 -29 6 -50 16 -47 21 3 5 -1 6 -9 3 -29 -11 -227 65 -227 87 0
5 -3 8 -7 7 -5 -1 -21 4 -38 11 -19 8 -31 9 -33 2 -2 -7 -12 -7 -29 0 -14 5
-27 8 -28 7 -1 -2 -8 -13 -14 -25 -13 -25 -37 -32 -27 -8 3 8 9 22 12 30 4 10
0 15 -13 15 -10 0 -23 4 -28 9 -6 5 -25 12 -43 16 -24 5 -33 3 -38 -9 -10 -26
-25 -18 -18 9 8 30 -11 34 -26 5 -16 -30 -32 -14 -24 23 l6 32 -24 -22 c-31
-29 -36 -29 -30 2 5 30 -14 34 -23 5 -9 -27 -25 -25 -22 2 3 28 -29 37 -36 11
-4 -14 -5 -13 -6 5 -1 26 -16 29 -29 6 -6 -11 -12 -13 -16 -6 -3 6 -2 13 4 17
11 7 14 45 3 45 -4 0 -18 -12 -31 -27 l-23 -28 6 33 c7 33 -10 46 -21 17 -9
-24 -23 -17 -17 8 3 12 2 19 -2 15 -5 -4 -14 -3 -20 2 -9 7 -16 6 -25 -5 -19
-23 -31 -18 -24 10 4 16 2 25 -6 25 -6 0 -14 -9 -17 -20 -8 -30 -24 -24 -21 8
4 34 -25 38 -30 5 -5 -33 -23 -28 -20 5 4 33 -16 47 -20 15 -5 -34 -22 -28
-22 7 0 34 -15 40 -25 10 -3 -11 -13 -20 -21 -20 -12 0 -13 8 -8 35 7 42 -10
48 -28 10 -6 -14 -15 -25 -20 -25 -5 0 -6 11 -2 25 4 16 2 25 -6 25 -6 0 -14
-9 -17 -20 -8 -32 -25 -23 -18 9 9 41 -13 50 -26 12 -6 -17 -15 -31 -20 -31
-15 0 -23 30 -10 43 15 15 14 27 -3 27 -7 0 -16 -9 -19 -20 -3 -11 -11 -20
-17 -20 -7 0 -10 8 -7 20 7 26 -13 38 -28 17 -7 -10 -20 -17 -29 -17 -14 0
-16 6 -11 30 5 23 3 30 -8 30 -8 0 -17 -9 -20 -20 -3 -13 -10 -18 -21 -14 -11
4 -14 13 -10 30 5 18 2 24 -10 24 -9 0 -16 -7 -16 -15 0 -8 -7 -15 -15 -15
-17 0 -20 25 -5 35 15 9 12 25 -5 25 -8 0 -19 -9 -25 -20 -13 -24 -40 -27 -40
-4 0 8 5 24 11 36 9 17 8 19 -8 16 -10 -2 -22 -13 -28 -26 -5 -12 -13 -22 -18
-22 -14 0 -20 32 -9 50 11 19 7 30 -13 30 -6 0 -11 -10 -12 -21 -1 -12 -7 -27
-12 -32 -16 -16 -25 17 -12 42 12 21 2 35 -15 23 -6 -4 -13 -15 -17 -24 -3
-10 -11 -18 -17 -18 -13 0 -13 17 0 25 14 8 13 35 -1 35 -7 0 -18 -8 -26 -17
-13 -17 -14 -16 -8 4 10 35 -13 36 -29 1 l-15 -33 6 40 c6 36 5 39 -10 26 -10
-7 -17 -20 -17 -27 0 -8 -4 -14 -10 -14 -6 0 -8 23 -6 58 2 31 5 159 5 283 l0
227 33 5 c35 6 593 13 1808 23 415 3 757 8 759 10 6 6 -2214 1 -2424 -5z m750
-741 c3 -5 -1 -10 -9 -10 -9 0 -16 5 -16 10 0 6 4 10 9 10 6 0 13 -4 16 -10z
m-798 -205 c59 -25 137 -61 173 -79 36 -18 79 -36 95 -40 36 -8 158 -58 165
-67 3 -3 15 -9 28 -13 12 -4 22 -15 22 -26 0 -10 7 -20 15 -24 19 -7 19 -26 0
-26 -8 0 -15 -7 -15 -15 0 -8 -7 -15 -16 -15 -16 0 -16 11 1 68 5 16 3 22 -8
22 -9 0 -17 -13 -21 -35 -4 -19 -11 -35 -17 -35 -5 0 -7 11 -3 24 5 21 1 25
-27 31 -24 5 -35 3 -44 -8 -7 -10 -16 -13 -25 -7 -11 7 -12 11 0 24 7 9 11 17
9 19 -47 27 -48 27 -63 5 -19 -27 -35 -15 -18 12 10 17 10 20 -7 20 -10 0 -22
-7 -25 -16 -3 -8 -11 -12 -16 -9 -8 5 -7 11 1 21 18 21 2 30 -19 11 -26 -24
-33 -21 -26 8 8 31 -8 32 -30 3 -16 -21 -17 -21 -13 -3 3 11 8 27 11 36 12 28
-35 33 -56 6 -10 -12 -18 -17 -18 -10 0 6 5 15 10 18 16 10 12 23 -7 28 -10 2
-26 -3 -36 -12 -16 -13 -17 -13 -11 2 8 21 -18 47 -45 47 -12 0 -21 4 -21 9 0
5 -16 15 -35 22 -22 8 -35 20 -35 31 0 10 4 18 9 18 5 0 58 -20 118 -45z
m1189 -152 c-10 -10 -19 5 -10 18 6 11 8 11 12 0 2 -7 1 -15 -2 -18z m54 -7
c0 -3 -4 -8 -10 -11 -5 -3 -10 -1 -10 4 0 6 5 11 10 11 6 0 10 -2 10 -4z m127
-41 c-7 -13 -14 -20 -15 -14 -5 14 6 39 17 39 5 0 4 -11 -2 -25z m47 6 c3 -4
-1 -17 -9 -27 -14 -18 -14 -18 -15 9 0 26 13 36 24 18z m34 -40 c-7 -9 -14
-18 -15 -20 -2 -3 -2 7 -1 21 1 17 7 24 15 21 11 -4 11 -9 1 -22z m-1058 -21
c0 -5 -4 -10 -10 -10 -5 0 -10 5 -10 10 0 6 5 10 10 10 6 0 10 -4 10 -10z
m1100 -4 c0 -3 -4 -8 -10 -11 -5 -3 -10 -1 -10 4 0 6 5 11 10 11 6 0 10 -2 10
-4z m80 -21 c0 -14 -4 -25 -10 -25 -5 0 -10 11 -10 25 0 14 5 25 10 25 6 0 10
-11 10 -25z m55 -15 c3 -5 -1 -10 -10 -10 -9 0 -13 5 -10 10 3 6 8 10 10 10 2
0 7 -4 10 -10z m45 -15 c0 -25 -14 -34 -24 -16 -8 12 3 41 15 41 5 0 9 -11 9
-25z m-1658 -38 c31 -13 63 -28 70 -34 7 -6 36 -18 63 -28 28 -10 55 -21 60
-25 6 -4 51 -21 100 -39 50 -18 158 -61 240 -96 83 -34 166 -66 185 -70 19 -4
41 -11 50 -16 33 -18 157 -68 185 -75 17 -4 62 -22 102 -40 39 -19 80 -34 91
-34 12 0 23 -4 26 -9 3 -5 23 -12 43 -16 21 -3 65 -17 98 -30 33 -13 92 -35
130 -50 39 -15 75 -31 80 -35 6 -4 28 -13 50 -20 22 -7 94 -36 160 -65 66 -28
142 -60 169 -70 44 -17 47 -20 28 -28 -12 -6 -22 -18 -22 -29 0 -10 -4 -18
-10 -18 -5 0 -10 5 -10 10 0 6 -6 10 -14 10 -8 0 -16 6 -19 13 -3 9 -8 9 -21
-2 -16 -13 -17 -12 -11 15 l6 29 -19 -22 c-26 -30 -34 -29 -26 2 7 29 -2 32
-29 8 -19 -17 -19 -17 -13 5 6 16 3 22 -8 22 -9 0 -16 -7 -16 -16 0 -9 -3 -14
-8 -12 -4 2 -24 10 -44 18 -21 8 -38 18 -38 22 0 11 18 10 25 -2 3 -5 15 -10
26 -10 31 0 12 18 -33 32 -33 10 -42 10 -46 0 -7 -23 -24 -12 -20 13 3 14 4
25 2 25 -1 0 -9 3 -17 6 -9 3 -16 -3 -20 -15 -8 -31 -30 -27 -25 4 5 25 -14
36 -27 15 -12 -20 -25 -9 -19 16 6 23 4 25 -15 19 -12 -4 -21 -2 -21 4 0 17
-28 13 -38 -5 -12 -22 -35 -8 -27 17 8 23 -7 25 -25 4 -18 -22 -28 -18 -32 12
-3 28 -28 45 -28 19 0 -9 -7 -16 -15 -16 -10 0 -15 10 -15 33 l-1 32 -18 -22
c-22 -27 -36 -30 -27 -7 9 23 -3 37 -19 24 -10 -8 -13 -6 -11 7 1 14 -5 17
-28 15 -22 -3 -28 0 -23 11 8 21 -122 45 -134 25 -7 -10 -9 -10 -10 2 -1 8 -1
19 0 23 1 4 -16 15 -36 23 -21 8 -57 24 -80 35 -54 26 -182 69 -204 69 -9 0
-19 -7 -23 -15 -3 -8 -10 -15 -15 -15 -6 0 -8 7 -5 15 7 17 -11 21 -21 5 -12
-20 -25 -9 -19 15 8 33 -20 35 -31 3 l-8 -23 -4 23 c-3 13 1 30 7 38 10 11 9
14 -9 14 -11 0 -22 -4 -22 -10 -1 -5 -2 -14 -3 -20 0 -5 -5 -10 -11 -9 -5 1
-8 6 -6 13 13 42 13 48 0 44 -8 -2 -18 -14 -24 -26 -11 -24 -31 -31 -21 -7 3
8 9 22 12 30 9 23 -23 18 -36 -5 -13 -25 -35 -27 -25 -2 12 32 10 37 -13 35
-13 -2 -21 1 -17 6 13 22 -20 23 -37 1 -10 -12 -21 -20 -25 -16 -4 3 -1 12 5
18 7 7 12 16 12 20 0 14 -27 9 -40 -7 -7 -8 -19 -15 -26 -15 -8 0 -14 7 -14
15 0 8 5 15 10 15 6 0 10 7 10 15 0 21 -16 19 -33 -5 -9 -13 -20 -18 -31 -14
-18 7 -21 20 -6 29 15 10 12 25 -6 25 -9 0 -18 -9 -21 -20 -9 -32 -25 -23 -18
10 7 34 -13 44 -22 10 -3 -11 -9 -20 -14 -20 -12 0 -11 27 1 35 6 4 7 11 4 17
-5 7 -16 0 -32 -18 -24 -29 -27 -19 -7 29 11 27 -11 20 -35 -10 l-22 -28 8 29
c5 22 4 27 -7 24 -8 -3 -22 1 -31 10 -16 13 -18 13 -24 -2 -8 -21 -26 -21 -22
0 2 10 -3 19 -9 21 -7 3 -13 -2 -13 -11 0 -9 -7 -16 -16 -16 -13 0 -15 7 -10
33 5 26 3 34 -9 34 -9 0 -15 -10 -15 -25 0 -43 -14 -14 -16 32 l-1 43 41 -13
c22 -7 67 -24 98 -37z m1808 5 c90 -44 85 -41 78 -47 -3 -3 -18 1 -34 10 -37
19 -50 19 -58 0 -8 -23 -26 -18 -23 6 1 12 -4 24 -10 26 -7 3 -13 -2 -13 -11
0 -9 -5 -16 -10 -16 -6 0 -8 11 -4 25 7 30 -12 34 -33 8 -13 -17 -14 -17 -11
2 2 11 -3 26 -12 33 -28 24 50 2 130 -36z m-224 -7 c26 -14 53 -25 60 -25 8 0
14 -4 14 -9 0 -5 -21 -6 -47 -4 -44 5 -82 30 -83 56 0 11 5 9 56 -18z m-906
-19 c0 -3 -4 -8 -10 -11 -5 -3 -10 -1 -10 4 0 6 5 11 10 11 6 0 10 -2 10 -4z
m1190 -46 c0 -5 -4 -10 -10 -10 -5 0 -10 5 -10 10 0 6 5 10 10 10 6 0 10 -4
10 -10z m40 -20 c0 -5 -4 -10 -10 -10 -5 0 -10 5 -10 10 0 6 5 10 10 10 6 0
10 -4 10 -10z m-180 -46 c0 -8 -4 -12 -10 -9 -5 3 -10 10 -10 16 0 5 5 9 10 9
6 0 10 -7 10 -16z m260 6 c0 -5 -4 -10 -10 -10 -5 0 -10 5 -10 10 0 6 5 10 10
10 6 0 10 -4 10 -10z m-1225 -60 c-3 -5 -11 -10 -16 -10 -6 0 -7 5 -4 10 3 6
11 10 16 10 6 0 7 -4 4 -10z m1681 -26 c30 -15 62 -24 73 -21 26 6 45 -7 38
-27 -4 -10 -18 -16 -36 -16 -16 0 -31 -6 -35 -15 -11 -29 -27 -15 -24 22 3 34
1 37 -32 45 -55 14 -62 17 -55 28 9 14 11 13 71 -16z m-146 -4 c0 -5 -4 -10
-10 -10 -5 0 -10 5 -10 10 0 6 5 10 10 10 6 0 10 -4 10 -10z m-1920 -20 c0 -5
-4 -10 -10 -10 -5 0 -10 5 -10 10 0 6 5 10 10 10 6 0 10 -4 10 -10z m2015 -33
c11 -1 20 -9 20 -17 0 -21 -44 -26 -51 -5 -4 10 -13 13 -25 10 -11 -4 -19 -2
-19 3 0 16 14 23 35 17 11 -3 29 -7 40 -8z m350 -37 c8 -13 -15 -13 -35 0 -12
8 -11 10 7 10 12 0 25 -4 28 -10z m-235 -15 c0 -8 -7 -15 -15 -15 -16 0 -20
12 -8 23 11 12 23 8 23 -8z m110 -15 c0 -5 -7 -10 -15 -10 -8 0 -15 5 -15 10
0 6 7 10 15 10 8 0 15 -4 15 -10z m-1939 -13 c-1 -12 -15 -9 -19 4 -3 6 1 10
8 8 6 -3 11 -8 11 -12z m157 -46 c12 -6 22 -19 22 -28 0 -12 -3 -13 -14 -4 -7
6 -20 9 -28 6 -10 -4 -17 1 -21 15 -4 17 -11 20 -26 15 -12 -4 -21 -2 -21 4 0
6 -9 11 -19 11 -10 0 -21 6 -24 14 -4 11 5 10 51 -3 32 -10 67 -23 80 -30z
m1813 11 c-7 -2 -18 1 -23 6 -8 8 -4 9 13 5 13 -4 18 -8 10 -11z m-1751 -57
c-7 -9 -15 -13 -17 -11 -7 7 7 26 19 26 6 0 6 -6 -2 -15z m37 -17 c-3 -8 -6
-5 -6 6 -1 11 2 17 5 13 3 -3 4 -12 1 -19z m-947 -63 c0 -8 -4 -15 -10 -15 -5
0 -7 7 -4 15 4 8 8 15 10 15 2 0 4 -7 4 -15z m410 5 c0 -5 -4 -10 -10 -10 -5
0 -10 5 -10 10 0 6 5 10 10 10 6 0 10 -4 10 -10z m-370 -9 c0 -6 -4 -13 -10
-16 -5 -3 -10 1 -10 9 0 9 5 16 10 16 6 0 10 -4 10 -9z m460 -31 c0 -5 -4 -10
-10 -10 -5 0 -10 5 -10 10 0 6 5 10 10 10 6 0 10 -4 10 -10z m-230 -80 c0 -5
-4 -10 -10 -10 -5 0 -10 5 -10 10 0 6 5 10 10 10 6 0 10 -4 10 -10z m1772
-166 c15 -8 30 -18 33 -24 3 -5 19 -10 35 -10 16 0 62 -13 102 -29 40 -16 104
-38 141 -50 37 -11 75 -27 83 -35 19 -20 19 -50 -1 -42 -8 3 -22 9 -30 12 -11
4 -15 0 -15 -16 0 -14 4 -19 13 -14 6 4 5 0 -3 -9 -13 -14 -21 -14 -68 -2 -66
18 -81 26 -58 35 17 6 23 24 9 26 -5 0 -20 7 -36 14 -21 10 -30 11 -39 2 -17
-17 -28 -15 -22 3 7 18 -22 21 -29 3 -4 -8 -8 -4 -12 10 -8 23 -20 28 -30 12
-10 -15 -27 0 -21 17 5 12 1 14 -14 10 -11 -3 -20 0 -20 6 0 8 -4 7 -12 -1
-18 -18 -30 -14 -23 8 5 16 2 20 -16 20 -22 0 -22 1 -4 13 10 8 15 19 11 25
-10 17 -56 15 -62 -3 -4 -8 -10 -15 -15 -15 -16 0 -10 19 13 40 23 21 38 20
90 -6z m-1320 -101 c6 -8 4 -10 -10 -6 -14 3 -18 11 -14 26 4 15 7 17 10 7 3
-8 9 -20 14 -27z m268 -27 c0 -3 -4 -8 -10 -11 -5 -3 -10 -1 -10 4 0 6 5 11
10 11 6 0 10 -2 10 -4z m395 -106 c3 -5 2 -10 -4 -10 -5 0 -13 5 -16 10 -3 6
-2 10 4 10 5 0 13 -4 16 -10z m1175 -10 c0 -5 -2 -10 -4 -10 -3 0 -8 5 -11 10
-3 6 -1 10 4 10 6 0 11 -4 11 -10z m-2567 -150 c53 -17 110 -38 125 -46 15 -7
33 -14 40 -14 7 0 20 -4 30 -9 9 -5 62 -26 117 -47 194 -72 254 -99 255 -114
0 -12 2 -13 9 -1 7 11 26 8 102 -17 52 -17 116 -40 144 -53 27 -12 101 -39
165 -61 111 -37 321 -116 387 -144 17 -8 34 -14 37 -14 4 0 23 -7 44 -16 20
-9 44 -18 52 -19 40 -7 495 -177 585 -220 27 -12 28 -14 7 -14 -12 -1 -25 -8
-28 -16 -9 -22 -24 -18 -24 5 0 43 -31 15 -34 -31 -1 -11 -3 -20 -6 -22 -3 -1
-33 11 -67 26 -44 20 -60 32 -56 42 3 9 -1 15 -9 15 -8 0 -23 9 -33 20 -10 12
-24 19 -31 16 -6 -2 -16 0 -22 6 -13 13 -32 2 -32 -20 0 -12 -3 -13 -12 -4 -9
9 -9 15 0 24 18 18 15 28 -8 28 -11 0 -20 5 -20 10 0 14 -27 13 -32 -1 -3 -8
-20 -5 -53 10 -31 13 -51 18 -53 11 -2 -5 -8 -10 -14 -10 -5 0 -6 9 -3 20 5
15 2 20 -11 20 -9 0 -24 8 -33 19 -18 21 -81 24 -81 4 0 -15 -6 -15 -35 -4
-11 4 -20 16 -20 26 0 24 -25 32 -26 8 0 -16 -1 -16 -9 2 -4 11 -4 24 -1 28
12 13 42 -4 52 -29 11 -31 29 -31 29 0 0 30 -46 56 -100 56 -43 0 -99 24 -78
34 7 3 3 3 -9 0 -12 -3 -40 4 -63 16 -54 28 -74 21 -27 -9 21 -12 35 -27 31
-32 -9 -15 -24 -10 -24 7 0 11 -6 15 -20 11 -13 -3 -20 0 -20 9 0 16 -16 19
-25 4 -10 -17 -25 -11 -25 10 0 22 -15 27 -23 8 -3 -7 -6 -3 -6 10 -1 21 -21
33 -21 12 0 -5 -4 -10 -10 -10 -5 0 -10 8 -10 18 0 21 -18 42 -37 42 -7 0 -13
-9 -13 -20 0 -11 -5 -20 -11 -20 -7 0 -9 11 -6 30 8 35 -17 44 -26 9 -3 -13
-10 -18 -17 -14 -9 5 -9 10 -1 18 17 17 13 29 -9 22 -15 -5 -18 -3 -14 9 4 10
1 16 -9 16 -9 0 -19 -9 -22 -20 -3 -11 -10 -20 -15 -20 -6 0 -6 10 0 25 5 14
6 25 1 25 -21 0 -41 -13 -41 -27 0 -13 -3 -13 -15 -3 -11 9 -12 16 -5 25 5 6
7 14 4 18 -10 10 -34 -4 -34 -20 0 -8 -4 -12 -9 -9 -4 3 -6 16 -4 29 4 20 0
25 -24 30 -15 3 -35 0 -43 -6 -8 -6 -12 -7 -8 -3 4 5 3 15 -3 23 -13 15 -49
18 -49 3 0 -5 -8 -10 -17 -10 -13 0 -14 3 -5 12 16 16 15 28 -3 28 -8 0 -15
-4 -15 -10 0 -5 -4 -10 -10 -10 -6 0 -6 9 0 25 9 23 8 25 -10 15 -11 -6 -20
-18 -20 -27 0 -12 -3 -14 -11 -6 -8 8 -8 17 0 32 15 27 -3 28 -26 1 -22 -25
-37 -26 -31 -2 4 13 -6 22 -36 36 -73 33 -121 60 -136 77 -21 24 -79 33 -86
14 -4 -8 -10 -13 -15 -10 -4 3 -6 11 -3 18 2 7 -5 18 -17 25 -17 11 -25 11
-45 -3 -13 -8 -24 -22 -24 -31 0 -9 -6 -14 -12 -11 -7 2 -12 16 -11 31 2 31
-21 35 -37 6 -15 -28 -32 -25 -25 3 5 18 0 28 -19 40 -35 23 -43 21 -55 -10
-10 -26 -11 -26 -6 9 6 40 -8 58 -24 31 -9 -15 -10 -12 -11 15 0 23 4 32 13
29 6 -3 56 -20 110 -37z m152 -148 c-8 -9 -45 11 -45 24 0 12 4 12 24 -3 13
-10 23 -20 21 -21z m65 -12 c0 -13 -11 -13 -30 0 -12 8 -11 10 8 10 12 0 22
-4 22 -10z m40 -10 c0 -5 -5 -10 -11 -10 -5 0 -7 5 -4 10 3 6 8 10 11 10 2 0
4 -4 4 -10z m40 -14 c0 -3 -4 -8 -10 -11 -5 -3 -10 -1 -10 4 0 6 5 11 10 11 6
0 10 -2 10 -4z m70 -26 c0 -5 -5 -10 -11 -10 -5 0 -7 5 -4 10 3 6 8 10 11 10
2 0 4 -4 4 -10z m860 -44 c0 -8 -7 -16 -15 -20 -15 -5 -21 14 -8 27 11 12 23
8 23 -7z m-540 -76 c0 -5 -4 -10 -10 -10 -5 0 -10 5 -10 10 0 6 5 10 10 10 6
0 10 -4 10 -10z m-195 -160 c3 -5 1 -10 -4 -10 -6 0 -11 5 -11 10 0 6 2 10 4
10 3 0 8 -4 11 -10z m729 -29 c3 -5 -1 -14 -9 -21 -13 -10 -15 -9 -15 9 0 21
14 28 24 12z m40 -17 c20 -8 21 -24 2 -24 -8 0 -16 7 -20 15 -6 17 -4 18 18 9z
m-224 -40 c0 -8 -4 -12 -10 -9 -5 3 -10 13 -10 21 0 8 5 12 10 9 6 -3 10 -13
10 -21z m280 6 c0 -5 -5 -10 -11 -10 -5 0 -7 5 -4 10 3 6 8 10 11 10 2 0 4 -4
4 -10z m-571 -66 c5 4 13 1 16 -4 4 -6 18 -16 32 -21 14 -5 23 -12 19 -16 -3
-3 -16 -2 -29 4 -12 6 -37 16 -54 23 -18 7 -30 17 -27 22 3 5 11 4 19 -2 8 -7
19 -9 24 -6z m721 -4 c0 -5 -2 -10 -4 -10 -3 0 -8 5 -11 10 -3 6 -1 10 4 10 6
0 11 -4 11 -10z m-610 -40 c8 -5 12 -12 9 -15 -8 -8 -39 5 -39 16 0 11 11 11
30 -1z m760 -15 c0 -8 -4 -15 -10 -15 -5 0 -10 7 -10 15 0 8 5 15 10 15 6 0
10 -7 10 -15z m-692 -15 c8 0 13 -3 9 -6 -3 -4 -18 -3 -34 0 -21 6 -24 9 -12
16 8 6 15 6 17 0 2 -6 11 -10 20 -10z m752 -10 c0 -5 -4 -10 -9 -10 -6 0 -13
5 -16 10 -3 6 1 10 9 10 9 0 16 -4 16 -10z m-665 -20 c3 -5 2 -10 -4 -10 -5 0
-13 5 -16 10 -3 6 -2 10 4 10 5 0 13 -4 16 -10z m135 -50 c0 -5 -4 -10 -10
-10 -5 0 -10 5 -10 10 0 6 5 10 10 10 6 0 10 -4 10 -10z m617 4 c-3 -3 -12 -4
-19 -1 -8 3 -5 6 6 6 11 1 17 -2 13 -5z m483 -47 c38 -19 33 -43 -9 -39 -32 3
-33 2 -27 -22 6 -23 3 -26 -19 -26 -14 0 -34 9 -45 20 -11 11 -30 20 -42 20
-23 1 -58 21 -58 34 0 10 34 3 42 -8 21 -29 101 5 83 35 -9 14 32 6 75 -14z
m155 -117 c8 -13 -5 -13 -25 0 -13 8 -13 10 2 10 9 0 20 -4 23 -10z m-865
-151 c0 -5 -4 -9 -10 -9 -5 0 -10 7 -10 16 0 8 5 12 10 9 6 -3 10 -10 10 -16z
m918 -217 c13 -20 13 -21 -15 -19 -25 2 -29 6 -25 25 5 27 19 25 40 -6z m242
-17 c0 -17 -4 -18 -37 -9 -33 9 -28 24 7 24 20 0 30 -5 30 -15z m-50 -40 c0
-8 -4 -15 -10 -15 -5 0 -10 7 -10 15 0 8 5 15 10 15 6 0 10 -7 10 -15z m-45
-45 c3 -5 1 -10 -4 -10 -6 0 -11 5 -11 10 0 6 2 10 4 10 3 0 8 -4 11 -10z
m-1958 -42 c-3 -8 -6 -5 -6 6 -1 11 2 17 5 13 3 -3 4 -12 1 -19z m227 -6 c4
-7 -31 -72 -40 -72 -6 0 1 39 9 46 4 4 2 13 -4 21 -9 10 -7 13 9 13 12 0 23
-4 26 -8z m38 -33 c16 -8 22 -8 29 2 5 9 11 11 18 4 7 -7 2 -20 -14 -40 -18
-23 -24 -26 -25 -13 0 14 -4 16 -25 8 -22 -8 -25 -7 -25 14 0 36 10 42 42 25z
m232 -64 c61 -23 131 -50 156 -58 79 -27 161 -68 155 -77 -3 -6 0 -7 8 -4 7 2
43 -6 78 -19 35 -14 109 -41 164 -62 55 -21 103 -42 106 -47 3 -5 13 -6 22 -2
10 3 23 2 30 -3 6 -6 55 -24 107 -42 52 -18 109 -39 125 -46 49 -22 139 -57
155 -60 34 -7 130 -60 130 -72 0 -8 -13 -13 -35 -13 -19 0 -35 -4 -35 -10 0
-5 5 -10 11 -10 5 0 7 -4 4 -10 -3 -5 -17 -10 -30 -10 -24 0 -40 23 -36 53 2
18 -14 23 -24 7 -11 -17 -22 -11 -21 13 1 13 -5 22 -14 22 -8 0 -14 -6 -13
-12 2 -7 -2 -13 -8 -13 -6 0 -9 6 -6 13 3 8 1 20 -4 28 -7 11 -10 9 -15 -8 -4
-13 -10 -23 -14 -23 -5 0 -6 9 -3 20 3 11 1 20 -3 20 -5 0 -19 3 -31 6 -17 5
-23 2 -23 -10 0 -9 -5 -16 -11 -16 -6 0 -8 11 -5 28 6 25 4 27 -24 27 -17 0
-35 -7 -41 -15 -8 -12 -9 -11 -5 5 4 15 -1 23 -21 33 -33 15 -53 16 -53 2 0
-5 -5 -10 -10 -10 -6 0 -10 7 -8 16 2 10 -3 19 -9 21 -7 3 -13 0 -13 -6 0 -6
-7 -11 -15 -11 -8 0 -15 7 -15 16 0 12 -6 15 -25 10 -18 -5 -25 -2 -25 8 0 7
-11 21 -25 30 -14 9 -25 13 -25 10 0 -4 -8 0 -19 10 -17 16 -19 15 -34 -6
l-16 -23 -7 23 c-6 22 -28 30 -39 12 -8 -14 -35 -1 -29 15 6 16 -12 29 -21 15
-10 -16 -25 -12 -25 6 0 12 -6 15 -26 10 -20 -5 -24 -3 -22 11 2 13 -4 19 -22
21 -14 2 -30 8 -36 13 -8 6 -14 4 -18 -6 -3 -9 -10 -14 -15 -10 -6 3 -8 12 -4
20 6 17 -12 20 -22 4 -5 -6 -12 -4 -21 8 -12 17 -13 17 -14 1 0 -28 -20 -21
-20 7 0 14 -4 25 -10 25 -5 0 -10 -9 -10 -20 0 -11 -4 -20 -10 -20 -5 0 -10
13 -10 28 0 25 -4 28 -37 30 -20 2 -41 5 -46 9 -5 3 -13 -1 -18 -8 -12 -19
-12 3 0 34 11 28 -6 42 -43 38 -12 -2 -16 1 -11 10 6 9 2 10 -16 6 -13 -4 -32
-7 -41 -7 -11 0 -18 -8 -18 -21 0 -14 -5 -19 -17 -17 -15 3 -17 13 -15 48 l2
45 -21 -32 c-24 -38 -34 -42 -26 -13 7 28 -11 36 -29 14 -14 -18 -15 -17 -8 6
16 61 20 61 188 -5z m-24 -75 c13 -8 13 -10 -2 -10 -9 0 -20 5 -23 10 -8 13 5
13 25 0z m50 -15 c-7 -9 -15 -13 -17 -11 -7 7 7 26 19 26 6 0 6 -6 -2 -15z
m-1252 -10 c15 -8 56 -26 92 -41 36 -14 88 -37 116 -50 28 -13 57 -24 64 -24
7 0 38 -13 69 -29 92 -48 159 -76 281 -116 63 -20 142 -48 175 -60 33 -13 138
-52 233 -87 94 -35 168 -64 162 -66 -17 -6 -11 -20 10 -27 25 -8 26 -23 3 -32
-46 -17 -43 -50 5 -56 20 -3 49 -9 65 -12 22 -6 27 -4 27 12 0 11 -3 23 -7 27
-4 4 -8 15 -8 24 0 9 -8 18 -18 20 -11 2 -28 13 -39 24 l-20 20 24 -7 c12 -4
41 -16 62 -27 22 -10 59 -26 83 -34 25 -9 91 -38 146 -65 l102 -50 -105 5
c-150 8 -303 31 -595 92 -38 8 -80 14 -93 14 -18 0 -21 4 -17 23 14 59 -39
126 -90 113 -22 -6 -26 -11 -21 -29 5 -22 4 -23 -62 -19 -45 3 -70 9 -75 19
-6 10 -17 13 -33 9 -24 -6 -80 24 -68 36 2 3 -1 17 -7 32 -10 21 -19 26 -49
26 -29 0 -41 6 -54 25 -19 29 -70 35 -80 10 -3 -8 -14 -15 -25 -15 -11 0 -29
-12 -41 -27 -22 -29 -69 -53 -101 -53 -11 0 -31 -17 -47 -39 -26 -37 -83 -67
-104 -55 -13 8 -10 504 3 504 6 0 23 -7 37 -15z m1362 -30 c0 -8 -4 -15 -10
-15 -5 0 -10 7 -10 15 0 8 5 15 10 15 6 0 10 -7 10 -15z m700 -25 c0 -5 -4
-10 -9 -10 -6 0 -13 5 -16 10 -3 6 1 10 9 10 9 0 16 -4 16 -10z m-43 -46 c-3
-3 -12 -4 -19 -1 -8 3 -5 6 6 6 11 1 17 -2 13 -5z m-547 -54 c0 -5 -4 -10 -9
-10 -6 0 -13 5 -16 10 -3 6 1 10 9 10 9 0 16 -4 16 -10z m-50 -52 c0 -16 -3
-19 -11 -11 -6 6 -8 16 -5 22 11 17 16 13 16 -11z m70 -8 c0 -5 -4 -10 -10
-10 -5 0 -10 5 -10 10 0 6 5 10 10 10 6 0 10 -4 10 -10z m-1147 -121 c3 -10 3
-27 0 -38 -6 -22 -47 -46 -62 -36 -7 4 -18 1 -26 -5 -16 -13 -36 -5 -30 13 2
7 6 24 9 40 7 28 30 37 39 14 8 -22 52 -14 52 9 0 10 -6 18 -13 16 -8 -1 -11
2 -7 7 9 15 32 2 38 -20z m2282 -69 c-3 -5 -21 -10 -38 -9 -31 1 -31 1 -7 9
36 11 52 11 45 0z m-2199 -24 c22 -7 57 -25 78 -40 33 -22 47 -25 94 -22 66 4
105 -7 125 -37 16 -24 57 -37 187 -61 47 -8 126 -23 175 -32 50 -9 113 -21
140 -25 83 -14 408 -41 440 -36 17 2 39 1 50 -3 57 -22 135 -54 173 -72 42
-19 43 -20 26 -39 -17 -19 -16 -19 30 -13 27 4 56 2 69 -4 49 -24 166 -72 176
-72 6 0 11 -4 11 -10 0 -10 -55 -6 -145 11 -27 5 -115 13 -195 19 -146 9 -297
27 -313 37 -5 3 -77 16 -160 29 -206 32 -254 42 -296 65 -19 10 -41 19 -47 19
-7 0 -11 8 -10 18 1 13 -7 17 -34 18 -53 1 -62 3 -56 12 3 5 31 5 63 0 32 -5
76 -10 98 -13 70 -8 219 -42 257 -59 34 -15 118 -27 378 -57 47 -5 101 -12
120 -15 23 -4 32 -3 25 3 -18 18 -77 33 -128 33 -28 0 -76 4 -106 10 -31 5
-100 14 -154 20 -55 6 -118 19 -140 29 -23 11 -71 25 -107 32 -36 7 -70 20
-77 28 -9 12 -16 13 -29 5 -11 -6 -39 -7 -73 -3 -31 4 -91 10 -133 14 -59 5
-78 10 -78 21 0 12 -11 14 -57 9 -32 -4 -70 -7 -85 -7 -16 -1 -28 -7 -28 -13
0 -14 44 -26 168 -46 54 -9 83 -20 110 -41 23 -18 44 -27 56 -24 10 3 32 -2
47 -10 96 -49 531 -113 1032 -151 31 -3 57 -10 57 -15 0 -8 -59 -8 -197 -2
-109 5 -283 9 -388 9 -104 0 -396 4 -647 9 -345 7 -458 6 -458 -2 0 -7 6 -13
13 -14 26 -5 -324 -13 -421 -10 l-103 3 3 112 3 112 40 5 c22 3 45 9 51 12 6
4 62 12 125 18 63 6 142 18 177 26 66 16 230 23 250 10 7 -4 12 -16 12 -27 0
-24 19 -25 26 -1 3 9 11 27 16 39 6 12 8 29 5 37 -7 18 -48 21 -63 6 -7 -7
-28 -7 -63 0 -79 15 -231 12 -318 -6 -57 -12 -78 -13 -83 -4 -11 18 -115 0
-115 -20 0 -10 10 -15 30 -14 17 0 33 -4 37 -9 4 -7 33 -4 80 8 94 23 348 43
277 21 -34 -10 -224 -37 -334 -47 -66 -7 -124 -16 -130 -20 -18 -17 -25 -9
-25 30 0 38 1 39 52 54 29 9 69 19 88 23 52 10 87 30 93 55 4 16 11 20 26 16
12 -3 21 -2 21 1 0 11 65 52 96 62 41 12 47 12 90 -4z m-249 -59 c-32 -33 -54
-46 -92 -55 -93 -20 -125 -22 -125 -7 0 13 56 35 87 35 6 0 18 7 26 15 17 16
103 52 129 54 12 1 4 -12 -25 -42z m2339 -24 c-8 -8 -36 10 -36 25 0 13 3 12
20 -3 11 -10 18 -20 16 -22z m37 30 c-7 -2 -19 -2 -25 0 -7 3 -2 5 12 5 14 0
19 -2 13 -5z m-1278 -93 c3 -5 2 -10 -4 -10 -5 0 -13 5 -16 10 -3 6 -2 10 4
10 5 0 13 -4 16 -10z m1235 -30 c13 -8 12 -11 -5 -24 -11 -9 -28 -16 -37 -16
-9 0 -19 -4 -22 -9 -7 -11 -76 -20 -76 -9 0 4 6 8 13 8 6 0 32 14 57 30 50 34
49 33 70 20z m388 -25 c-1 -24 -5 -32 -12 -26 -17 14 -143 12 -154 -2 -6 -7
-12 -21 -14 -32 -4 -18 -6 -18 -16 6 -14 34 -37 42 -79 28 -38 -12 -49 -8 -40
16 7 17 31 18 93 6 30 -6 58 -2 115 15 105 31 109 31 107 -11z m-608 -45 c0
-5 -25 -10 -56 -10 -34 0 -53 4 -49 10 3 6 28 10 56 10 27 0 49 -4 49 -10z
m390 -24 c0 -28 64 -35 95 -12 14 10 25 11 39 4 10 -6 34 -8 52 -5 30 5 34 3
34 -16 0 -22 -2 -22 -146 -19 -101 2 -150 -1 -158 -8 -8 -9 20 -11 112 -8 112
3 138 -1 112 -17 -5 -3 -7 -12 -3 -20 4 -13 -10 -15 -88 -15 -52 0 -104 -3
-116 -6 -25 -7 -31 -29 -10 -37 23 -8 0 -17 -67 -25 -37 -5 -69 -5 -72 0 -3 4
0 8 5 8 16 0 13 26 -3 39 -11 9 -20 9 -35 2 -16 -9 -44 1 -160 60 -78 40 -140
73 -139 74 2 1 53 -1 113 -5 67 -4 115 -3 123 3 6 5 30 7 52 3 30 -5 42 -3 46
8 7 17 44 9 44 -10 0 -18 24 -18 40 1 7 9 21 13 34 9 11 -2 30 2 41 10 22 16
55 5 55 -18z m215 -97 c10 -16 0 -21 -29 -13 -14 3 -23 10 -20 15 7 12 41 11
49 -2z m-166 -49 c-19 -13 7 -40 39 -40 38 0 21 -10 -24 -14 -26 -3 -38 -9
-37 -18 4 -20 -142 -86 -217 -97 -101 -15 -404 -32 -620 -34 -239 -2 -659 13
-682 24 -10 6 -19 5 -23 -1 -3 -5 -20 -10 -36 -10 -23 0 -29 4 -27 18 4 24
-42 30 -58 7 -7 -9 -17 -14 -23 -11 -5 4 -12 2 -15 -2 -3 -5 -23 -9 -45 -9
-33 0 -41 4 -45 22 -10 40 -61 40 -76 0 -7 -18 -19 -23 -72 -30 -105 -13 -658
-16 -658 -3 0 6 -10 8 -24 4 -19 -5 -26 -1 -31 14 -9 27 -29 25 -49 -5 -19
-29 -14 -45 14 -45 10 0 22 -5 25 -10 5 -7 11 -8 18 -1 7 5 102 10 219 11 199
1 206 0 201 -18 -4 -18 -20 -20 -259 -27 -140 -4 -258 -4 -262 -1 -3 4 -1 16
6 27 9 14 9 25 2 39 -5 10 -10 39 -10 64 l0 44 267 1 c191 1 273 5 288 14 23
14 125 14 875 3 267 -4 536 -11 598 -16 69 -5 144 -4 190 2 42 6 91 10 107 9
17 0 42 -1 58 -1 15 -1 27 -5 27 -11 0 -14 62 -49 87 -49 52 0 29 56 -26 67
-33 6 -34 7 -12 15 12 4 27 6 32 3 5 -4 36 -3 69 1 69 8 118 37 100 59 -10 11
-1 15 47 17 64 3 82 0 62 -12z m91 -21 c0 -11 -31 -12 -57 -2 -15 6 -13 8 12
13 33 7 45 4 45 -11z m80 1 c0 -5 -13 -10 -30 -10 -16 0 -30 5 -30 10 0 6 14
10 30 10 17 0 30 -4 30 -10z m-636 -15 c-7 -17 -20 -20 -28 -6 -4 5 0 12 6 14
23 9 28 7 22 -8z m634 -45 c-1 -26 -5 -30 -29 -30 -24 0 -28 4 -26 23 2 21 18
35 44 36 7 1 11 -12 11 -29z m-453 -30 c3 -5 -1 -10 -9 -10 -8 0 -18 5 -21 10
-3 6 1 10 9 10 8 0 18 -4 21 -10z m-1845 -120 c0 -5 -4 -10 -10 -10 -5 0 -10
5 -10 10 0 6 5 10 10 10 6 0 10 -4 10 -10z"/>
<g>
<path d="M2537 3034 c-4 -4 -7 -14 -7 -23 0 -11 3 -12 11 -4 6 6 10 16 7 23
-2 6 -7 8 -11 4z"/>
</g>
<g>
<path d="M1261 2361 c-7 -5 -10 -14 -6 -20 5 -9 10 -9 21 0 26 22 14 38 -15
20z"/>
</g>
<g>
<path d="M2087 2016 c-7 -16 1 -26 20 -26 7 0 13 9 13 20 0 23 -25 27 -33 6z"/>
</g>
<g>
<path d="M2142 2018 c-14 -14 -16 -38 -2 -38 13 0 32 38 22 44 -5 3 -14 0 -20
-6z"/>
</g>
<g>
<path d="M835 424 c-20 -20 -6 -40 36 -49 16 -4 31 -11 34 -16 9 -14 35 -11
35 5 0 18 -57 76 -75 76 -7 0 -21 -7 -30 -16z"/>
</g>
<g>
<path d="M445 400 c-15 -16 -15 -22 -5 -35 7 -8 19 -15 26 -15 8 0 14 -4 14
-10 0 -18 22 -10 27 10 7 25 11 25 39 -1 29 -28 54 -19 54 20 0 32 -25 45 -55
28 -14 -7 -21 -6 -30 7 -16 22 -48 20 -70 -4z"/>
</g>
<g>
<path d="M753 403 c-32 -6 -30 -41 2 -53 24 -9 75 4 75 19 -1 25 -38 41 -77
34z"/>
</g>
<g>
<path d="M70 351 c-8 -16 -5 -23 16 -40 19 -15 30 -18 39 -11 9 7 20 3 39 -15
29 -27 46 -32 46 -14 0 7 9 9 21 6 24 -6 59 20 59 44 0 9 -11 21 -25 27 -32
15 -105 16 -105 1 0 -5 -10 -3 -22 5 -30 21 -55 20 -68 -3z"/>
</g>
<g>
<path d="M846 331 c-3 -5 1 -14 9 -21 12 -10 18 -10 30 0 8 7 15 16 15 21 0
12 -47 12 -54 0z"/>
</g>
<g>
<path d="M925 320 c-3 -5 3 -10 14 -10 12 0 21 5 21 10 0 6 -6 10 -14 10 -8 0
-18 -4 -21 -10z"/>
</g>
<g>
<path d="M311 311 c-19 -12 -6 -45 15 -37 9 3 24 6 35 6 10 0 19 7 19 15 0 8
-6 15 -14 15 -8 0 -20 2 -28 5 -7 3 -19 1 -27 -4z"/>
</g>
<g>
<path d="M2432 378 c7 -20 48 -23 48 -4 0 11 -9 16 -26 16 -16 0 -24 -5 -22
-12z"/>
</g>
<g>
<path d="M2525 380 c3 -5 10 -10 16 -10 5 0 9 5 9 10 0 6 -7 10 -16 10 -8 0
-12 -4 -9 -10z"/>
</g>
<g>
<path d="M2597 383 c-12 -11 -8 -23 8 -23 8 0 15 7 15 15 0 16 -12 20 -23 8z"/>
</g>
</g>
<g>
<path d="M1460 5223 c-79 -2 -149 -8 -154 -13 -7 -7 -1 -10 17 -10 17 0 31 -8
39 -22 14 -26 49 -111 45 -113 -1 -1 -13 -7 -27 -13 -21 -10 -3 -12 99 -7 68
3 155 5 193 5 39 0 68 4 68 10 0 6 -9 10 -20 10 -19 0 -21 5 -18 72 3 67 4 71
27 75 52 8 31 13 -45 11 -43 -1 -144 -4 -224 -5z m9 -41 c0 -9 -9 -35 -19 -57
-16 -35 -19 -38 -25 -20 -5 11 -14 35 -21 54 -8 18 -14 35 -14 37 0 4 64 10
73 6 4 -2 7 -11 6 -20z m75 -49 l7 -73 -45 0 c-25 0 -46 2 -46 5 0 18 45 122
58 132 9 7 16 12 17 10 2 -1 6 -35 9 -74z m59 45 c5 -40 -3 -108 -13 -108 -8
0 -20 120 -13 133 9 16 21 5 26 -25z m63 -24 c2 -58 -5 -94 -17 -94 -5 0 -9
34 -9 76 0 55 3 75 12 72 7 -3 13 -25 14 -54z"/>
</g>
<g>
<path d="M745 4080 c-22 -9 -29 -5 95 -51 30 -11 63 -25 72 -30 10 -5 48 -17
85 -28 37 -10 77 -22 87 -27 12 -5 17 -4 13 3 -4 6 -28 16 -54 23 -53 14 -226
84 -258 104 -12 8 -28 10 -40 6z"/>
</g>
<g>
<path d="M2170 3940 c-23 -7 -24 -8 -6 -15 13 -6 21 -4 24 3 2 7 8 12 14 12 6
0 8 -6 5 -12 -3 -8 5 -13 20 -13 l24 0 -22 18 c-23 19 -23 18 -59 7z"/>
</g>
<g>
<path d="M2378 3863 c7 -3 16 -2 19 1 4 3 -2 6 -13 5 -11 0 -14 -3 -6 -6z"/>
</g>
<g>
<path d="M2072 3609 c3 -10 133 -69 151 -69 5 0 23 -7 40 -15 18 -8 57 -24 87
-36 30 -11 66 -26 80 -31 14 -6 32 -12 40 -13 37 -7 245 -86 248 -95 2 -6 12
-10 21 -10 20 0 54 -33 45 -43 -4 -4 -18 -4 -30 -1 -16 4 -24 2 -25 -7 0 -8
-4 -5 -8 6 -7 17 -9 16 -15 -12 -9 -38 -27 -45 -20 -9 5 30 -11 43 -25 19 -7
-14 -13 -15 -21 -7 -8 8 -9 14 -1 18 6 4 11 12 11 17 0 6 -4 7 -10 4 -5 -3
-10 0 -10 7 0 7 -10 2 -21 -12 l-21 -25 6 28 c7 31 0 34 -27 10 -19 -17 -19
-17 -13 5 5 16 3 22 -8 22 -8 0 -18 -4 -21 -10 -3 -5 -11 -10 -17 -10 -6 0 -3
8 6 19 16 17 16 19 0 25 -16 6 -33 -8 -34 -27 0 -5 -5 -5 -10 -2 -6 4 -8 15
-5 26 8 24 -2 24 -28 2 -19 -17 -19 -17 -13 4 10 31 -11 38 -34 11 -14 -17
-19 -19 -20 -7 0 8 5 20 12 27 23 23 -3 25 -27 2 -29 -27 -35 -9 -9 28 15 22
15 22 -10 10 -14 -6 -26 -15 -26 -20 0 -4 -4 -8 -10 -8 -5 0 -10 6 -10 14 0 8
-7 17 -16 20 -23 9 -31 7 -15 -3 7 -5 10 -14 7 -20 -11 -16 -26 -3 -26 22 -1
21 -2 21 -14 4 -14 -19 -26 -11 -40 27 -6 19 -7 19 -21 0 -13 -18 -14 -18 -20
-2 -5 13 -14 16 -31 12 -20 -5 -24 -2 -24 17 0 22 0 22 -14 3 -13 -17 -11 -20
33 -41 50 -24 131 -88 131 -104 0 -5 -7 -9 -15 -9 -12 0 -35 -28 -35 -44 0
-14 34 -36 49 -31 11 3 25 -3 36 -15 23 -25 55 -26 55 -2 0 10 -6 24 -12 30
-10 10 -10 15 2 22 22 14 0 44 -34 48 -24 3 -59 42 -37 42 19 0 427 -174 471
-201 26 -15 64 -30 83 -32 9 -1 17 -8 17 -17 0 -34 49 -56 51 -22 0 13 2 12 9
-5 10 -23 39 -43 65 -43 12 0 15 8 13 31 -3 33 -7 37 -71 65 -45 20 -44 27 2
14 18 -5 39 -6 47 -3 23 9 17 43 -10 53 -18 6 -23 14 -19 29 7 29 -26 44 -60
26 -23 -12 -27 -11 -46 9 -11 11 -48 32 -83 45 -35 13 -72 27 -83 31 -11 4
-45 16 -75 28 -71 26 -216 81 -255 97 -16 7 -59 25 -95 40 -104 44 -142 56
-138 44z m233 -309 c3 -5 2 -10 -4 -10 -5 0 -13 5 -16 10 -3 6 -2 10 4 10 5 0
13 -4 16 -10z m561 -15 c-8 -8 -21 -15 -28 -15 -8 1 -6 6 6 15 26 20 42 19 22
0z m-106 -24 c0 -5 -7 -14 -15 -21 -13 -10 -15 -9 -15 9 0 12 6 21 15 21 8 0
15 -4 15 -9z m41 -11 c27 -15 23 -27 -10 -28 -24 0 -28 3 -24 19 6 22 8 22 34
9z m117 -15 c13 -12 -5 -12 -33 0 l-30 14 29 -4 c16 -2 31 -7 34 -10z m20 -93
c6 -18 -15 -14 -22 4 -4 10 -1 14 6 12 6 -2 14 -10 16 -16z"/>
</g>
<g>
<path d="M1990 3555 c-10 -12 -10 -15 4 -15 9 0 16 7 16 15 0 8 -2 15 -4 15
-2 0 -9 -7 -16 -15z"/>
</g>
<g>
<path d="M2034 3545 c-4 -8 -14 -15 -23 -16 -9 -1 -5 -4 9 -8 23 -7 37 4 39
32 2 13 -20 7 -25 -8z"/>
</g>
<g>
<path d="M2295 3480 c3 -5 11 -10 16 -10 6 0 7 5 4 10 -3 6 -11 10 -16 10 -6
0 -7 -4 -4 -10z"/>
</g>
<g>
<path d="M2281 1696 c2 -2 15 -9 29 -16 23 -12 24 -12 11 3 -7 10 -20 17 -29
17 -8 0 -13 -2 -11 -4z"/>
</g>
<g>
<path d="M2369 1654 c27 -19 121 -57 121 -49 0 6 -124 65 -136 65 -5 0 2 -7
15 -16z"/>
</g>
<g>
<path d="M2510 1596 c0 -2 7 -7 16 -10 8 -3 12 -2 9 4 -6 10 -25 14 -25 6z"/>
</g>
<g>
<path d="M335 1580 c-3 -5 -1 -10 4 -10 6 0 11 5 11 10 0 6 -2 10 -4 10 -3 0
-8 -4 -11 -10z"/>
</g>
<g>
<path d="M2480 1570 c0 -5 5 -10 11 -10 5 0 7 5 4 10 -3 6 -8 10 -11 10 -2 0
-4 -4 -4 -10z"/>
</g>
<g>
<path d="M2555 1570 c3 -5 8 -10 11 -10 2 0 4 5 4 10 0 6 -5 10 -11 10 -5 0
-7 -4 -4 -10z"/>
</g>
<g>
<path d="M1967 663 c-4 -3 -7 -23 -7 -43 0 -32 4 -38 35 -53 20 -9 46 -17 58
-17 31 0 62 24 54 42 -3 9 -1 20 5 26 13 13 -7 52 -28 52 -8 0 -25 -5 -36 -11
-14 -8 -23 -8 -31 0 -12 12 -40 15 -50 4z m115 -35 c-6 -6 -15 -8 -19 -4 -4 4
-1 11 7 16 19 12 27 3 12 -12z m-52 -37 c0 -5 8 -12 18 -15 10 -3 7 -4 -7 -3
-24 2 -44 27 -22 27 6 0 11 -4 11 -9z"/>
</g>
<g>
<path d="M880 60 c0 -11 6 -20 13 -20 19 0 27 10 20 26 -8 21 -33 17 -33 -6z"/>
</g>
</g>
</svg>
