<?xml version="1.0" standalone="no"?>
<!DOCTYPE svg PUBLIC "-//W3C//DTD SVG 20010904//EN"
 "http://www.w3.org/TR/2001/REC-SVG-20010904/DTD/svg10.dtd">
<svg version="1.0" xmlns="http://www.w3.org/2000/svg"
 width="300.000000pt" height="526.000000pt" viewBox="0 0 300.000000 526.000000"
 preserveAspectRatio="xMidYMid meet">
<metadata>
Created by potrace 1.15, written by Peter Selinger 2001-2017
</metadata>
<g transform="translate(0.000000,526.000000) scale(0.100000,-0.100000)"
fill="#000000" stroke="none">
<g>
<path d="M24 5249 c-14 -22 -22 -655 -21 -1759 1 -887 2 -965 8 -545 4 270 10
890 14 1380 5 730 9 893 20 904 12 12 25 12 88 1 60 -10 98 -10 198 0 86 9
202 11 379 6 140 -4 620 -9 1065 -13 928 -6 1185 -9 1202 -11 8 -1 13 -33 16
-99 l3 -98 0 109 -1 110 -290 3 c-968 10 -2237 16 -2460 12 -33 0 -94 3 -136
6 -59 6 -79 4 -85 -6z"/>
</g>
<g>
<path d="M1394 5128 c-3 -5 3 -12 14 -15 11 -3 37 -29 56 -59 38 -57 44 -74
24 -74 -6 0 -8 -3 -4 -7 3 -4 28 -8 54 -9 26 -1 39 0 30 2 -10 3 -18 10 -18
14 0 23 49 118 64 123 22 9 21 29 -1 25 -10 -1 -24 1 -30 5 -20 13 -35 -1 -23
-23 7 -13 5 -27 -6 -49 -22 -45 -28 -45 -58 1 -20 31 -24 43 -14 49 7 4 10 10
8 12 -11 10 -91 14 -96 5z"/>
</g>
<g>
<path d="M364 5044 c-5 -18 0 -32 17 -50 l22 -24 -34 0 c-39 0 -59 -15 -59
-42 0 -26 26 -33 58 -17 15 7 30 15 35 17 15 8 6 -19 -13 -38 -21 -21 -28 -88
-11 -105 20 -22 77 -294 67 -321 -2 -6 0 -16 5 -21 5 -5 11 -58 13 -119 3 -61
10 -133 16 -160 7 -27 14 -76 16 -109 3 -33 18 -103 33 -155 25 -81 50 -204
102 -500 5 -30 9 -75 8 -100 -1 -25 1 -71 4 -104 4 -48 1 -62 -14 -77 -10 -10
-25 -43 -34 -73 -19 -63 -22 -67 -95 -93 -69 -26 -81 -43 -57 -84 9 -17 17
-39 17 -49 0 -21 -25 -50 -43 -50 -7 0 -6 4 2 9 12 8 13 16 2 48 -7 21 -11 51
-9 68 2 23 -2 32 -20 40 -12 5 -22 17 -22 27 0 9 -8 23 -18 30 -9 7 -26 26
-36 42 -16 26 -22 28 -59 22 -29 -4 -50 -15 -68 -36 -14 -17 -32 -30 -41 -30
-25 0 -47 -44 -52 -104 -5 -44 -3 -56 9 -56 7 0 15 -12 17 -26 2 -20 15 -33
51 -52 42 -22 46 -27 34 -41 -25 -30 -65 -116 -72 -154 -4 -20 -16 -48 -26
-61 -11 -13 -19 -30 -19 -38 0 -7 -9 -26 -20 -43 -24 -36 -26 -73 -5 -82 21
-7 32 4 17 19 -17 17 -15 42 8 71 11 14 20 32 20 41 0 9 6 19 14 22 8 3 22 33
32 66 10 33 25 63 34 67 8 3 15 17 15 31 0 16 6 25 15 25 8 0 19 6 23 13 4 6
17 12 27 12 10 0 22 5 25 10 3 6 19 10 35 10 27 0 29 -2 23 -30 -7 -40 15 -40
28 0 6 16 25 38 43 49 18 12 41 38 52 58 10 21 25 42 32 46 6 4 12 14 12 22 0
7 13 24 28 37 20 16 36 48 57 111 33 102 46 118 75 92 20 -18 20 -18 -2 -42
-25 -26 -14 -32 14 -6 22 19 25 1 3 -20 -9 -10 -13 -26 -9 -44 3 -18 -2 -42
-16 -68 -11 -21 -20 -45 -20 -52 0 -7 -8 -17 -19 -22 -21 -12 -34 -48 -19 -57
24 -15 -35 -176 -85 -231 -29 -32 -9 -29 25 4 26 25 28 25 28 7 0 -11 -10 -31
-21 -43 -18 -19 -29 -22 -58 -17 -20 3 -41 12 -47 21 -13 18 -24 20 -24 4 0
-7 11 -22 25 -35 24 -22 27 -22 70 -10 25 8 45 10 45 6 0 -4 -7 -11 -16 -14
-8 -3 -12 -10 -9 -16 4 -7 13 -6 27 1 16 9 22 8 29 -2 6 -9 3 -15 -6 -17 -20
-4 -19 -22 0 -22 8 0 15 -9 15 -20 0 -11 7 -23 15 -26 19 -8 19 -56 0 -93 -12
-24 -75 -78 -133 -114 -16 -11 -112 1 -112 14 0 5 11 9 25 9 19 0 25 5 25 21
0 29 -82 159 -97 154 -19 -6 -44 25 -38 45 3 10 1 21 -6 25 -6 4 -18 23 -26
42 -10 25 -19 33 -30 29 -8 -4 -22 -1 -30 5 -24 21 -25 2 -1 -40 22 -39 22
-41 6 -68 -9 -15 -26 -29 -37 -31 -12 -2 -21 -7 -21 -12 0 -5 6 -7 14 -4 8 3
19 -3 26 -15 9 -18 8 -23 -12 -31 -13 -5 -17 -9 -9 -9 8 -1 11 -7 7 -17 -5
-13 -2 -15 14 -11 11 3 20 1 20 -3 0 -14 -58 -22 -79 -10 -11 6 -25 19 -31 30
-6 11 -16 17 -25 14 -13 -5 -13 -10 3 -38 23 -42 30 -46 83 -46 35 0 54 7 86
30 22 17 48 28 56 25 8 -4 22 -24 32 -45 17 -37 17 -41 1 -65 -9 -14 -20 -25
-25 -25 -15 0 -91 -82 -91 -98 0 -8 -8 -21 -18 -28 -16 -13 -16 -15 1 -25 9
-5 15 -15 11 -20 -4 -6 -11 -6 -20 2 -11 9 -14 8 -14 -6 0 -9 -18 -33 -40 -52
-61 -55 -50 -93 26 -93 26 0 49 -7 62 -18 18 -15 19 -24 12 -97 -11 -102 -30
-154 -79 -213 -42 -50 -80 -124 -81 -157 0 -11 -5 -37 -11 -57 -9 -33 -14 -38
-39 -38 -30 0 -30 -1 -30 -55 0 -57 14 -72 30 -32 18 46 11 -18 -10 -83 -11
-34 -17 -67 -14 -72 12 -20 227 25 258 53 16 14 23 10 30 -15 4 -15 17 -28 38
-35 17 -6 40 -19 50 -28 14 -13 20 -13 33 -3 12 10 13 15 3 28 -12 13 -10 14
9 1 20 -12 24 -11 36 6 14 18 16 18 68 -7 52 -26 155 -45 249 -47 25 0 102 -2
173 -4 129 -3 166 3 137 23 -8 6 -35 9 -59 7 -41 -5 -46 -2 -81 36 -21 22 -53
45 -71 51 -32 10 -34 14 -37 62 -3 46 0 52 28 74 20 15 30 32 30 50 0 23 4 27
29 28 16 0 32 -5 34 -12 3 -7 -2 -12 -12 -12 -26 1 -29 -19 -3 -22 20 -3 23
-8 20 -40 -3 -37 -3 -37 -54 -40 -43 -2 -53 -7 -57 -24 -8 -30 -1 -38 36 -38
18 0 46 -4 64 -9 23 -7 37 -5 53 6 17 12 39 14 111 8 53 -4 86 -11 83 -17 -3
-5 3 -12 15 -15 12 -3 21 -13 21 -24 0 -11 7 -19 17 -19 9 0 24 -6 32 -14 25
-21 80 -36 131 -36 26 0 62 -3 79 -6 27 -6 30 -9 24 -33 -11 -45 -41 -107 -60
-122 -33 -28 -94 -59 -139 -70 -46 -12 -68 -36 -58 -63 5 -14 -10 -16 -125
-16 -99 0 -139 4 -161 15 -28 15 -30 14 -30 -4 0 -32 31 -41 147 -42 108 -1
113 -2 59 -14 -16 -3 -25 -10 -20 -14 13 -11 195 2 192 14 -2 6 -11 9 -20 8
-28 -4 -21 14 12 30 21 11 40 13 67 7 78 -18 93 -18 106 -6 8 9 35 13 73 12
l59 -1 -3 80 c-4 98 8 135 42 135 32 0 57 -10 51 -21 -3 -4 -17 -4 -30 1 -13
5 -27 5 -30 1 -7 -13 22 -34 39 -28 7 3 19 0 25 -6 10 -9 15 -8 24 4 9 12 25
15 65 13 40 -3 52 0 52 11 0 12 18 15 93 15 52 0 97 -3 101 -7 3 -4 32 -8 63
-10 32 -2 60 -7 63 -11 12 -17 55 -29 71 -19 12 7 24 4 47 -13 18 -13 32 -30
32 -37 0 -7 9 -13 20 -13 30 0 24 19 -20 62 -43 40 -59 45 -78 26 -9 -9 -16
-7 -31 6 -21 19 -111 34 -226 37 l-60 2 50 7 c28 5 94 9 147 9 81 1 109 -3
164 -24 36 -14 74 -25 84 -25 16 0 19 -13 25 -85 7 -79 9 -86 31 -91 14 -4 38
-1 54 6 17 7 45 9 68 5 26 -4 57 -1 90 10 56 19 85 15 216 -26 32 -11 66 -19
74 -19 52 0 -99 55 -182 66 -60 9 -206 87 -206 112 0 17 95 16 123 -3 13 -8
70 -18 145 -24 67 -5 127 -13 132 -16 9 -6 15 -175 6 -175 -3 0 -41 13 -86 30
-45 16 -98 30 -118 29 -42 -1 -45 1 88 -39 125 -38 121 -33 119 -174 0 -67 -3
-124 -5 -127 -6 -11 -64 3 -64 17 0 8 -18 15 -47 19 -72 10 -74 13 -10 14 31
1 57 6 57 11 0 6 -27 10 -60 10 -33 0 -60 4 -60 10 0 6 17 10 37 10 46 0 33
17 -17 23 -30 3 -28 4 13 5 79 3 75 62 -5 62 -36 0 -39 -2 -33 -22 6 -17 4
-20 -9 -15 -12 5 -19 -1 -26 -18 -7 -18 -17 -25 -37 -25 -16 0 -35 -5 -43 -10
-13 -9 -12 -12 4 -25 11 -8 33 -15 50 -15 40 0 28 -9 -25 -18 -54 -9 -58 -31
-9 -47 l35 -12 -53 -5 c-64 -6 -78 -17 -57 -44 14 -19 15 -19 21 4 6 19 13 22
59 22 l52 0 6 -74 c7 -80 14 -106 29 -106 6 0 7 34 2 90 l-7 90 79 0 c44 0 89
3 102 6 l22 6 0 -145 0 -145 -697 5 c-384 3 -1015 4 -1403 4 -388 -1 -740 -1
-782 -1 -59 0 -78 -3 -78 -14 0 -11 247 -13 1495 -14 l1495 -1 0 859 c0 482
-4 861 -9 864 -17 11 -21 -59 -15 -221 l7 -163 -54 3 c-30 2 -67 9 -82 16 -16
6 -43 11 -61 11 l-33 0 -6 88 c-4 62 -13 108 -31 152 -22 53 -26 79 -26 161 0
91 2 100 25 125 22 23 25 36 25 94 0 51 -4 71 -17 81 -9 8 -23 30 -31 49 -28
65 -72 195 -72 211 0 9 13 34 28 55 16 21 45 68 65 104 41 72 65 106 70 99 5
-4 18 -111 66 -504 35 -281 49 -352 72 -346 8 2 28 4 44 4 17 0 33 4 36 9 7
11 13 3135 5 3128 -2 -3 -8 -419 -11 -925 -7 -858 -9 -921 -25 -940 -10 -11
-25 -37 -35 -57 -29 -63 -48 -46 -46 41 1 87 -8 133 -30 138 -12 3 -20 17 -23
37 -28 188 -37 261 -46 382 -14 197 -15 194 23 234 59 63 104 125 110 150 8
30 -12 100 -30 107 -14 5 -71 -36 -73 -52 0 -5 -12 -23 -25 -40 -21 -25 -27
-27 -35 -15 -9 15 -11 29 -28 210 -9 95 -3 125 20 102 16 -16 58 -15 58 2 0 7
-7 19 -15 26 -8 7 -15 25 -15 41 0 18 -5 29 -14 29 -22 0 -36 -24 -29 -49 4
-18 2 -22 -8 -19 -10 3 -17 41 -27 139 -13 141 -42 245 -71 257 -10 4 -17 20
-18 40 -1 41 -21 67 -38 52 -9 -7 -16 -6 -25 5 -21 25 -30 17 -30 -25 0 -29
-4 -40 -15 -40 -8 0 -15 -8 -15 -17 0 -13 3 -14 12 -5 7 7 19 12 27 12 14 -1
14 -2 1 -13 -21 -17 -25 -75 -7 -95 20 -23 36 -102 52 -267 8 -77 17 -168 21
-202 5 -48 4 -63 -6 -63 -7 0 -10 6 -7 14 7 17 -16 40 -27 28 -4 -4 -14 2 -22
12 -12 17 -14 17 -20 3 -3 -9 -3 -21 1 -27 4 -6 1 -17 -5 -25 -13 -16 -5 -35
14 -35 8 0 20 -10 28 -22 13 -19 18 -21 31 -10 8 7 17 9 20 5 9 -15 29 -178
26 -202 -5 -31 -25 -38 -32 -11 -5 20 -7 20 -66 -11 -70 -37 -76 -51 -8 -19
46 22 67 20 67 -5 0 -8 -21 -19 -51 -26 -38 -10 -53 -19 -60 -37 -5 -13 -14
-20 -19 -17 -6 4 -7 12 -3 18 4 7 0 7 -10 -1 -20 -17 -65 -22 -92 -12 -15 6
-41 -2 -90 -26 l-70 -33 -22 21 c-20 19 -23 19 -29 4 -4 -10 -13 -14 -24 -11
-25 8 -46 -20 -30 -40 10 -13 7 -17 -23 -30 -20 -8 -40 -15 -46 -15 -8 0 20
80 57 162 13 29 23 38 42 38 18 0 21 -3 11 -9 -8 -5 -9 -11 -3 -15 6 -3 14 -2
17 4 4 6 15 8 25 5 23 -7 36 11 20 30 -8 9 -8 15 0 20 8 5 8 11 -1 21 -18 22
-48 17 -59 -11 -5 -14 -15 -25 -21 -25 -6 0 -9 6 -7 13 3 6 20 57 37 112 58
179 156 435 167 435 24 0 47 39 41 69 -4 21 0 43 15 70 18 33 19 43 8 56 -7 8
-21 15 -31 15 -12 0 -19 7 -19 18 0 10 -5 23 -11 29 -15 15 -39 -7 -39 -36 0
-14 -9 -23 -26 -27 l-26 -7 28 -22 27 -22 -23 -16 c-30 -21 -57 -68 -66 -114
-4 -21 -24 -81 -45 -135 -22 -53 -39 -101 -39 -108 0 -14 -42 -9 -47 6 -2 6 6
14 17 17 19 5 20 10 14 44 -8 47 -12 53 -29 53 -20 0 -37 -37 -30 -61 6 -17 4
-20 -12 -15 -10 3 -25 1 -33 -4 -12 -8 -12 -11 3 -28 9 -10 17 -24 17 -31 0
-9 9 -11 29 -6 24 5 32 2 41 -15 9 -16 4 -40 -25 -123 -20 -56 -44 -122 -55
-147 -45 -110 -60 -150 -60 -161 0 -27 -54 -129 -69 -130 -37 -3 -42 -5 -50
-17 -4 -7 -54 -31 -111 -52 -57 -22 -104 -41 -105 -42 -1 -2 -6 -19 -11 -38
-6 -23 -19 -40 -38 -48 -15 -8 -29 -12 -32 -10 -2 3 -7 26 -10 51 -5 38 -4 47
8 47 8 0 23 9 34 21 11 12 26 18 39 16 11 -3 31 -1 45 3 20 6 15 8 -23 9 -50
1 -59 -3 -111 -54 -32 -32 -47 -31 -89 4 -9 7 -20 10 -25 7 -5 -3 -17 1 -27 8
-26 19 -65 1 -132 -60 -48 -43 -53 -50 -47 -80 5 -28 2 -33 -25 -47 -19 -10
-44 -14 -65 -10 -28 4 -32 9 -28 28 5 26 -14 43 -31 26 -6 -6 -19 -11 -28 -11
-9 0 -22 -6 -28 -14 -9 -11 -4 -18 25 -35 28 -17 34 -25 26 -33 -20 -20 -196
-78 -206 -68 -5 5 -9 65 -10 134 -1 90 -5 127 -13 131 -7 2 -13 13 -13 22 0
10 -6 28 -14 39 -8 11 -22 60 -30 108 -8 49 -19 93 -24 100 -5 6 -9 22 -10 35
-1 26 -26 164 -44 250 -10 46 -9 58 5 83 13 23 14 34 6 50 -17 32 -4 48 41 48
35 0 40 3 39 23 -1 16 -2 18 -6 5 -5 -20 -28 -24 -38 -8 -3 6 0 10 7 10 14 0
19 62 6 75 -10 10 -40 -22 -59 -63 l-16 -34 -17 66 c-9 36 -16 99 -16 141 0
42 -5 86 -12 98 -7 12 -16 56 -21 97 -4 41 -13 107 -18 145 -5 39 -10 90 -12
115 -2 50 -29 100 -52 100 -19 0 -19 14 0 30 34 28 -3 51 -43 26 -7 -4 -12 -1
-12 9 0 11 5 15 14 12 8 -3 21 2 29 11 25 30 29 42 14 42 -8 0 -18 -10 -21
-22 l-6 -23 -19 22 c-10 12 -22 19 -26 15 -5 -4 -5 1 -2 10 7 21 -14 68 -30
68 -7 0 -16 -11 -19 -26z m36 -19 c0 -8 -4 -15 -10 -15 -5 0 -10 7 -10 15 0 8
5 15 10 15 6 0 10 -7 10 -15z m-30 -90 c-13 -16 -40 -20 -40 -7 0 14 12 22 33
22 16 0 17 -3 7 -15z m110 -15 c0 -5 -4 -10 -10 -10 -5 0 -10 5 -10 10 0 6 5
10 10 10 6 0 10 -4 10 -10z m-41 -39 c11 -7 10 -13 -7 -31 -20 -22 -42 -20
-42 4 0 12 19 36 30 36 3 0 11 -4 19 -9z m71 -66 c0 -7 -6 -15 -14 -18 -18 -7
-31 24 -14 34 15 9 28 2 28 -16z m-5 -55 c3 -5 1 -10 -4 -10 -6 0 -11 5 -11
10 0 6 2 10 4 10 3 0 8 -4 11 -10z m-55 -55 c0 -8 -4 -15 -10 -15 -5 0 -10 7
-10 15 0 8 5 15 10 15 6 0 10 -7 10 -15z m74 -21 c4 -10 -2 -14 -19 -14 -25 0
-40 14 -31 29 8 13 43 2 50 -15z m2041 -23 c-3 -11 -1 -22 5 -26 14 -8 -6 -35
-25 -35 -22 0 -23 34 -2 58 25 27 30 28 22 3z m-2075 -21 c0 -5 -4 -10 -10
-10 -5 0 -10 5 -10 10 0 6 5 10 10 10 6 0 10 -4 10 -10z m33 -36 c-3 -8 1 -21
8 -30 10 -13 10 -17 -2 -24 -12 -8 -12 -13 -1 -30 16 -26 6 -46 -15 -29 -22
19 -44 67 -33 74 5 3 6 15 1 28 -8 19 -5 22 20 24 21 2 27 -2 22 -13z m2098
-26 c1 -7 1 -19 0 -25 -1 -7 4 -13 11 -13 8 0 6 -5 -5 -11 -21 -12 -13 -29 14
-29 18 0 17 -2 -7 -23 -19 -17 -25 -28 -18 -38 4 -8 9 -25 9 -39 0 -19 5 -24
20 -22 14 2 16 0 7 -6 -7 -5 -11 -26 -10 -50 1 -33 5 -42 20 -42 10 0 18 -4
18 -10 0 -5 -9 -10 -19 -10 -20 0 -37 -32 -26 -50 3 -5 17 -10 31 -10 13 0 24
-5 24 -10 0 -6 -6 -10 -12 -9 -28 3 -38 -2 -38 -18 -1 -10 -7 -31 -16 -48
l-14 -30 4 35 c2 19 -1 60 -6 90 -5 30 -11 73 -13 95 -2 22 -7 81 -12 130 -5
50 -6 97 -2 105 4 8 10 23 13 33 6 20 25 23 27 5z m-322 -5 c0 -5 -4 -17 -9
-28 -8 -18 -9 -17 -9 8 -1 15 4 27 9 27 6 0 10 -3 9 -7z m43 -58 c0 -5 -5 -11
-11 -13 -6 -2 -11 4 -11 13 0 9 5 15 11 13 6 -2 11 -8 11 -13z m-72 -5 c0 -5
-7 -10 -15 -10 -8 0 -15 5 -15 10 0 6 7 10 15 10 8 0 15 -4 15 -10z m-1740
-113 c4 -29 2 -45 -5 -44 -5 1 -11 -10 -13 -25 -2 -16 -8 -28 -13 -28 -14 0
-11 46 5 59 10 8 11 22 6 52 -5 28 -4 39 4 36 6 -2 13 -24 16 -50z m1768 41
c23 -23 14 -45 -23 -52 -57 -11 -73 11 -33 45 25 22 39 24 56 7z m-81 -82 c-4
-28 -2 -36 16 -44 20 -10 19 -11 -10 -11 -35 -1 -38 4 -27 58 9 42 28 40 21
-3z m-1709 -98 c6 -23 15 -34 30 -36 25 -4 31 -32 7 -32 -9 0 -19 -8 -22 -17
-5 -11 -12 0 -24 38 -21 62 -23 79 -9 79 5 0 13 -15 18 -32z m1692 12 c0 -5
-5 -10 -11 -10 -5 0 -7 5 -4 10 3 6 8 10 11 10 2 0 4 -4 4 -10z m580 -10 c0
-5 -4 -10 -10 -10 -5 0 -10 5 -10 10 0 6 5 10 10 10 6 0 10 -4 10 -10z m-2200
-10 c0 -5 -4 -10 -9 -10 -6 0 -13 5 -16 10 -3 6 1 10 9 10 9 0 16 -4 16 -10z
m1605 -21 c-4 -5 -1 -9 4 -9 6 0 11 -4 11 -9 0 -5 -10 -7 -22 -3 -17 4 -20 2
-15 -12 4 -10 3 -15 -3 -11 -6 4 -10 -8 -10 -27 0 -31 -32 -98 -46 -98 -4 0
-2 6 4 13 6 6 14 30 18 52 10 57 42 127 54 120 6 -4 8 -11 5 -16z m488 4 c-7
-2 -19 -2 -25 0 -7 3 -2 5 12 5 14 0 19 -2 13 -5z m-623 -52 c0 -6 -4 -13 -10
-16 -5 -3 -10 1 -10 9 0 9 5 16 10 16 6 0 10 -4 10 -9z m-1483 -63 c-3 -8 -6
-5 -6 6 -1 11 2 17 5 13 3 -3 4 -12 1 -19z m1443 1 c0 -5 -4 -9 -10 -9 -5 0
-10 7 -10 16 0 8 5 12 10 9 6 -3 10 -10 10 -16z m693 -50 c3 -13 1 -19 -6 -16
-15 5 -22 37 -9 37 5 0 12 -9 15 -21z m-45 -36 c2 -21 5 -45 7 -53 3 -8 1 -21
-4 -28 -6 -10 -10 -10 -20 2 -8 10 -9 16 -1 21 13 8 13 72 0 80 -6 4 -8 11 -4
16 10 17 20 1 22 -38z m-2110 20 c-4 -22 -22 -20 -26 1 -2 10 3 16 13 16 10 0
15 -7 13 -17z m2336 -68 c6 -32 5 -38 -5 -27 -7 6 -21 12 -31 12 -25 0 -23 18
5 40 12 10 23 18 23 17 1 -1 5 -20 8 -42z m-2284 25 c0 -5 -4 -10 -10 -10 -5
0 -10 5 -10 10 0 6 5 10 10 10 6 0 10 -4 10 -10z m1496 -32 c4 -6 3 -8 -3 -5
-6 4 -16 -6 -22 -23 -14 -40 -22 -38 -10 2 5 18 9 34 9 35 0 8 20 1 26 -9z
m-1522 -65 c3 -25 14 -55 23 -65 18 -20 12 -34 -10 -25 -8 3 -17 26 -21 54 -4
26 -9 56 -12 66 -3 9 -1 17 4 17 5 0 12 -21 16 -47z m2246 34 c0 -8 -9 -22
-20 -32 -19 -17 -19 -17 -7 14 12 32 27 42 27 18z m-103 -54 c-3 -10 -5 -2 -5
17 0 19 2 27 5 18 2 -10 2 -26 0 -35z m-57 22 c0 -8 -4 -15 -9 -15 -13 0 -22
16 -14 24 11 11 23 6 23 -9z m-623 -57 c-3 -8 -6 -5 -6 6 -1 11 2 17 5 13 3
-3 4 -12 1 -19z m633 2 c0 -5 -7 -10 -15 -10 -8 0 -15 5 -15 10 0 6 7 10 15
10 8 0 15 -4 15 -10z m110 6 c0 -3 -4 -8 -10 -11 -5 -3 -10 -1 -10 4 0 6 5 11
10 11 6 0 10 -2 10 -4z m-92 -100 c3 -45 -9 -78 -23 -64 -4 3 -9 32 -12 63 -6
52 -4 57 13 53 15 -2 20 -13 22 -52z m39 22 c-3 -8 -6 -5 -6 6 -1 11 2 17 5
13 3 -3 4 -12 1 -19z m-2092 -24 c16 -12 18 -18 7 -34 -14 -23 -16 -74 -3 -65
14 8 25 -15 12 -28 -13 -13 -35 36 -46 101 -7 45 -2 50 30 26z m1363 -76 c-6
-18 -28 -21 -28 -4 0 9 7 16 16 16 9 0 14 -5 12 -12z m322 -38 c-16 -11 -40
-13 -40 -5 0 8 44 24 50 18 2 -2 -2 -8 -10 -13z m-345 0 c3 -5 -1 -10 -10 -10
-9 0 -13 5 -10 10 3 6 8 10 10 10 2 0 7 -4 10 -10z m517 -41 c-23 -22 -42 -37
-42 -33 0 12 73 84 79 78 3 -3 -14 -23 -37 -45z m-172 8 c0 -4 -22 -6 -49 -5
-27 1 -48 5 -45 9 6 10 94 6 94 -4z m354 -143 c20 -164 20 -184 1 -184 -10 0
-15 11 -15 35 0 31 -3 35 -25 35 -14 0 -34 5 -45 12 -26 16 -32 7 -17 -25 13
-29 27 -35 27 -12 0 8 5 15 11 15 5 0 9 -8 8 -17 -4 -43 2 -51 44 -62 l43 -13
13 -72 c8 -52 9 -81 1 -100 -5 -15 -10 -56 -10 -90 0 -39 -5 -68 -13 -74 -7
-6 -42 -11 -79 -11 -52 0 -70 4 -83 19 -16 18 -28 19 -109 14 -87 -5 -90 -5
-61 10 20 11 30 24 31 41 1 14 -2 25 -6 25 -4 0 -13 20 -19 45 -11 45 -44 77
-54 52 -4 -8 -6 -6 -6 4 -1 9 -13 21 -27 27 -14 7 -22 17 -19 22 3 6 -1 10 -9
10 -9 0 -16 -5 -16 -11 0 -8 -4 -8 -12 -1 -7 5 -21 11 -31 13 -13 3 18 38 120
134 76 72 178 172 227 223 72 75 92 90 101 80 7 -7 20 -72 29 -144z m85 104
c1 -5 -3 -8 -9 -8 -5 0 -10 12 -9 28 0 24 1 25 9 7 5 -11 9 -23 9 -27z m-549
6 c0 -10 -6 -14 -15 -11 -8 4 -17 2 -20 -3 -8 -12 -35 -13 -35 -2 0 10 38 30
58 31 6 1 12 -6 12 -15z m134 -62 c-38 -37 -95 -90 -125 -118 -29 -29 -94 -95
-144 -148 -49 -53 -92 -96 -95 -96 -6 0 -41 68 -58 111 -28 73 23 128 174 187
61 24 155 65 209 92 54 28 101 47 104 44 3 -3 -26 -36 -65 -72z m-44 58 c0 -5
-4 -10 -10 -10 -5 0 -10 5 -10 10 0 6 5 10 10 10 6 0 10 -4 10 -10z m-180 -31
c0 -15 -4 -19 -16 -15 -9 3 -21 6 -27 6 -13 1 22 30 35 30 4 0 8 -9 8 -21z
m320 -4 c0 -8 -7 -15 -15 -15 -24 0 -68 -32 -55 -40 6 -4 2 -13 -12 -25 -13
-11 -17 -13 -10 -5 20 23 14 35 -8 15 -11 -10 -20 -28 -20 -39 0 -16 -2 -18
-9 -7 -12 19 -31 5 -31 -23 0 -23 -30 -58 -46 -55 -28 5 -36 -2 -30 -26 6 -25
-8 -36 -17 -12 -4 8 -12 4 -26 -13 -11 -14 -21 -19 -21 -12 0 19 262 272 283
272 9 0 17 -7 17 -15z m-394 -20 c-19 -15 -46 -20 -46 -10 0 6 40 24 55 24 6
0 1 -6 -9 -14z m435 -3 c-13 -24 -40 -46 -47 -39 -4 3 7 17 22 31 35 31 38 31
25 8z m257 -6 c3 -15 1 -16 -17 -6 -12 6 -19 16 -15 21 9 15 28 5 32 -15z
m-2058 -3 c0 -5 -5 -15 -10 -23 -8 -12 -10 -11 -10 8 0 12 5 22 10 22 6 0 10
-3 10 -7z m2094 -88 l6 -70 -35 -17 c-40 -20 -47 -9 -11 20 24 19 30 51 11 64
-6 4 -13 -4 -16 -20 -7 -27 -7 -27 -8 4 -1 24 4 33 20 37 15 4 20 11 15 22 -5
15 2 42 9 33 1 -2 5 -34 9 -73z m-34 55 c0 -5 -4 -10 -10 -10 -5 0 -10 5 -10
10 0 6 5 10 10 10 6 0 10 -4 10 -10z m-907 -20 c3 -11 1 -20 -4 -20 -5 0 -9 9
-9 20 0 11 2 20 4 20 2 0 6 -9 9 -20z m117 0 c0 -5 -7 -10 -15 -10 -8 0 -15 5
-15 10 0 6 7 10 15 10 8 0 15 -4 15 -10z m-214 -67 c-10 -10 -19 5 -10 18 6
11 8 11 12 0 2 -7 1 -15 -2 -18z m94 12 c0 -8 -4 -15 -10 -15 -5 0 -10 7 -10
15 0 8 5 15 10 15 6 0 10 -7 10 -15z m490 -5 c0 -5 -4 -10 -10 -10 -5 0 -10 5
-10 10 0 6 5 10 10 10 6 0 10 -4 10 -10z m-523 -37 c11 -8 13 -20 8 -40 l-7
-28 -19 37 c-11 21 -16 44 -12 54 5 14 8 15 11 3 2 -7 11 -19 19 -26z m-151
18 c-8 -12 -46 -21 -46 -11 0 9 18 18 38 19 7 1 11 -3 8 -8z m54 5 c0 -2 -7
-7 -16 -10 -8 -3 -12 -2 -9 4 6 10 25 14 25 6z m-380 -19 c0 -7 -13 -18 -30
-24 -24 -9 -30 -9 -30 2 0 15 27 34 48 35 6 0 12 -6 12 -13z m-570 -7 c0 -5
-2 -10 -4 -10 -3 0 -8 5 -11 10 -3 6 -1 10 4 10 6 0 11 -4 11 -10z m637 -10
c-1 -22 -18 -32 -36 -20 -10 5 -7 12 10 24 29 20 28 20 26 -4z m-77 -45 c8
-11 14 -24 12 -28 -1 -4 19 -17 45 -29 41 -18 45 -22 28 -28 -19 -7 -19 -8 -2
-15 14 -6 15 -10 6 -21 -9 -11 -9 -21 -1 -39 8 -18 8 -26 -4 -35 -8 -7 -14
-23 -14 -35 0 -30 -27 -41 -35 -14 -4 10 -11 19 -16 19 -18 0 -9 31 16 54 13
13 22 26 19 29 -8 8 -59 -8 -86 -27 -31 -22 -34 -21 -52 16 -19 37 -19 38 -6
38 6 0 10 -6 10 -14 0 -22 17 -28 40 -16 27 15 25 30 -5 30 -19 0 -23 4 -18
17 5 12 2 15 -8 11 -10 -4 -20 4 -28 24 -11 25 -11 32 3 47 9 10 16 23 16 29
0 19 64 9 80 -13z m460 -14 c14 -42 2 -81 -25 -81 -8 0 -15 -5 -15 -11 0 -5 8
-9 18 -8 37 3 73 -1 68 -10 -3 -5 -25 -6 -49 -4 -35 4 -45 2 -51 -12 -3 -9 -4
-21 -1 -25 9 -14 -14 -60 -29 -60 -7 0 -19 7 -26 15 -7 8 -25 14 -44 12 l-31
-2 2 50 c4 100 10 114 67 139 99 45 100 45 116 -3z m490 24 c-7 -9 -15 -13
-19 -10 -3 3 1 10 9 15 21 14 24 12 10 -5z m-1571 -25 c6 0 11 5 11 10 0 6 5
10 11 10 8 0 8 -4 1 -13 -7 -8 -6 -17 3 -30 12 -17 14 -17 29 -1 9 9 20 13 24
9 4 -3 -1 -13 -12 -20 -10 -8 -15 -18 -11 -24 3 -6 -1 -21 -9 -33 -9 -12 -16
-18 -16 -13 0 6 -5 3 -10 -5 -5 -8 -7 -23 -4 -32 3 -10 1 -18 -5 -18 -14 0
-20 12 -27 56 -3 22 -10 43 -15 49 -5 5 -9 27 -9 50 1 35 2 38 14 23 7 -10 18
-18 25 -18z m676 -18 c-3 -3 -11 0 -18 7 -9 10 -8 11 6 5 10 -3 15 -9 12 -12z
m205 -4 c0 -5 -7 -8 -15 -4 -8 3 -15 1 -15 -4 0 -6 6 -10 13 -10 20 0 14 -40
-8 -56 -17 -12 -17 -14 -2 -14 22 0 22 -16 0 -29 -14 -8 -15 -13 -5 -19 7 -5
10 -15 7 -24 -3 -8 1 -21 10 -28 9 -8 15 -29 15 -60 0 -39 -5 -51 -30 -73 -32
-29 -60 -35 -60 -14 0 7 -7 22 -15 33 -14 18 -15 17 -10 -11 6 -30 6 -30 -11
-8 -14 19 -18 20 -30 8 -8 -7 -14 -18 -14 -24 0 -6 -7 -11 -15 -11 -8 0 -15
-6 -15 -12 0 -9 -3 -8 -10 2 -10 15 -6 46 12 93 10 25 12 26 28 12 24 -22 43
-19 37 6 -5 20 -2 29 27 84 6 11 11 54 12 95 l2 75 38 5 c43 6 54 4 54 -12z
m1230 -8 c0 -5 -7 -10 -16 -10 -8 0 -12 5 -9 10 3 6 10 10 16 10 5 0 9 -4 9
-10z m-658 -42 c-9 -9 -12 -7 -12 12 0 19 3 21 12 12 9 -9 9 -15 0 -24z m-312
18 c0 -2 -7 -6 -15 -10 -8 -3 -15 -1 -15 4 0 6 7 10 15 10 8 0 15 -2 15 -4z
m-825 -16 c3 -5 2 -10 -4 -10 -5 0 -13 5 -16 10 -3 6 -2 10 4 10 5 0 13 -4 16
-10z m1801 -14 c9 -39 -6 -53 -27 -25 -24 31 -24 49 1 49 12 0 22 -9 26 -24z
m-1626 -4 c0 -15 -22 -30 -37 -25 -11 4 -10 8 4 19 21 15 33 18 33 6z m685
-29 c3 -14 1 -31 -4 -36 -8 -8 -11 -4 -11 12 0 12 -5 31 -10 41 -8 16 -7 18 4
14 8 -3 17 -17 21 -31z m65 17 c0 -5 -7 -10 -15 -10 -8 0 -15 -7 -15 -15 0
-17 16 -20 25 -5 12 19 26 10 19 -12 -8 -28 -62 -98 -75 -98 -12 0 -12 37 1
45 6 3 10 22 10 42 0 22 7 41 18 49 21 16 32 17 32 4z m130 -5 c0 -8 -10 -20
-22 -26 -13 -7 -27 -18 -31 -25 -4 -8 -17 -19 -28 -25 -19 -9 -19 -9 -10 9 14
26 70 82 82 82 5 0 9 -7 9 -15z m-616 -10 c-4 -8 -10 -12 -15 -9 -14 8 -10 24
6 24 9 0 12 -6 9 -15z m-354 -25 c0 -5 -12 -10 -27 -10 -22 0 -25 2 -13 10 20
13 40 13 40 0z m690 0 c0 -5 -11 -10 -25 -10 -14 0 -25 5 -25 10 0 6 11 10 25
10 14 0 25 -4 25 -10z m1000 -20 c0 -11 5 -20 11 -20 5 0 7 -4 4 -10 -11 -17
-38 -12 -31 6 4 9 1 23 -5 30 -9 11 -8 14 5 14 9 0 16 -8 16 -20z m-537 -3
c-3 -4 5 -16 16 -26 17 -15 23 -34 27 -90 5 -71 5 -71 -20 -71 -30 0 -35 -19
-7 -27 21 -5 64 -80 55 -95 -11 -17 -54 -28 -72 -19 -9 5 -24 12 -33 14 -20 6
-33 75 -17 94 6 7 17 13 25 13 8 0 11 5 8 10 -4 6 -23 7 -44 4 -35 -6 -39 -4
-50 24 -7 16 -11 42 -9 58 4 33 28 46 28 15 0 -14 6 -21 20 -21 21 0 27 15 10
25 -5 3 -10 18 -10 31 0 23 -3 25 -30 19 -44 -10 -37 9 11 33 40 20 103 26 92
9z m47 3 c0 -5 -2 -10 -4 -10 -3 0 -8 5 -11 10 -3 6 -1 10 4 10 6 0 11 -4 11
-10z m-530 -14 c0 -3 -4 -8 -10 -11 -5 -3 -10 -1 -10 4 0 6 5 11 10 11 6 0 10
-2 10 -4z m1069 -32 c-41 -30 -62 -32 -23 -2 16 13 31 26 32 30 2 5 8 5 13 2
6 -3 -4 -17 -22 -30z m-1742 11 c36 -15 53 -30 53 -48 0 -5 -5 -5 -10 -2 -14
9 -42 -14 -33 -28 4 -7 0 -8 -13 -2 -61 25 -197 56 -204 46 -6 -7 -47 -31 -55
-31 -3 0 -5 9 -5 21 0 12 5 19 13 16 6 -2 20 2 29 11 14 12 25 13 57 4 31 -7
43 -7 51 4 10 12 32 19 68 23 7 0 29 -6 49 -14z m173 -21 c0 -19 -7 -28 -30
-37 -16 -6 -30 -16 -30 -21 0 -14 -29 27 -30 42 0 6 11 12 25 12 16 0 25 6 25
15 0 8 9 15 20 15 15 0 20 -7 20 -26z m820 -59 c8 18 9 17 9 -7 1 -15 10 -42
21 -60 11 -18 20 -36 20 -40 0 -5 -20 -8 -43 -8 -31 0 -49 -6 -62 -20 -31 -35
-75 -24 -100 24 -14 26 -13 28 63 104 l77 77 4 -45 c2 -35 5 -41 11 -25z m681
30 c23 -8 58 2 82 23 9 8 17 11 17 6 0 -5 -14 -18 -30 -29 -37 -25 -39 -38 -2
-25 l27 10 -25 -21 c-14 -12 -24 -26 -22 -31 1 -6 -2 -16 -8 -23 -6 -8 -15
-26 -18 -40 -7 -26 -8 -26 -29 -8 -18 14 -23 32 -26 90 -3 40 -2 75 2 78 3 4
7 0 9 -9 2 -8 12 -18 23 -21z m-401 4 c0 -6 -4 -7 -10 -4 -5 3 -10 11 -10 16
0 6 5 7 10 4 6 -3 10 -11 10 -16z m-650 -11 c0 -16 -3 -19 -11 -11 -6 6 -18 9
-25 6 -8 -3 -14 1 -14 11 0 10 9 16 25 16 19 0 25 -5 25 -22z m53 2 c-10 -11
-21 -20 -26 -20 -4 0 -3 9 3 20 6 11 17 20 25 20 12 0 12 -4 -2 -20z m577 -14
c0 -5 -7 -3 -15 4 -8 7 -12 17 -9 22 7 10 24 -9 24 -26z m-490 -45 c-24 -28
-48 -51 -53 -51 -10 0 -4 8 57 77 47 53 43 29 -4 -26z m-10 39 c0 -5 -5 -10
-11 -10 -5 0 -7 5 -4 10 3 6 8 10 11 10 2 0 4 -4 4 -10z m-683 -20 c-1 -11 -7
-20 -14 -20 -16 0 -17 12 -1 28 16 16 17 15 15 -8z m-377 6 c0 -2 3 -11 6 -19
3 -10 -3 -16 -20 -19 -22 -4 -26 -2 -26 18 0 17 6 24 20 24 11 0 20 -2 20 -4z
m960 -24 c0 -10 -7 -27 -15 -38 -14 -18 -15 -17 -9 11 10 47 24 62 24 27z
m1238 -32 c-2 -27 -8 -50 -13 -50 -6 0 -15 -10 -20 -22 -6 -11 -20 -25 -32
-29 -20 -7 -23 -5 -23 16 0 14 7 26 19 30 10 3 28 28 40 55 12 28 24 50 27 50
2 0 3 -22 2 -50z m-1928 30 c13 -8 12 -10 -2 -10 -20 0 -21 -2 -12 -24 8 -20
33 -21 40 -1 7 16 39 20 48 6 3 -5 -1 -11 -9 -15 -8 -3 -15 -12 -15 -21 0 -8
-4 -15 -10 -15 -5 0 -10 -7 -10 -15 0 -8 -9 -15 -20 -15 -11 0 -20 -7 -20 -15
0 -8 9 -15 20 -15 11 0 20 -7 20 -15 0 -23 -35 -18 -69 11 -20 16 -29 20 -25
10 7 -19 -21 -23 -32 -5 -5 9 -8 73 -5 118 1 5 9 7 20 4 11 -3 21 2 24 11 7
18 34 21 57 6z m1295 0 c3 -5 -1 -10 -9 -10 -9 0 -16 5 -16 10 0 6 4 10 9 10
6 0 13 -4 16 -10z m-1995 -13 c0 -7 -5 -18 -10 -23 -16 -16 16 -40 33 -25 8 6
17 8 20 4 9 -8 -4 -56 -17 -66 -7 -5 -5 -12 7 -21 24 -19 23 -50 -3 -43 -21 5
-34 -7 -35 -33 0 -8 -6 -14 -13 -12 -7 1 -26 -5 -42 -13 -39 -20 -40 -20 -40
14 0 21 6 32 20 36 11 3 20 12 20 20 0 7 8 21 17 30 13 14 14 21 5 35 -9 14
-8 21 3 30 8 7 15 16 15 21 0 16 -21 10 -54 -16 -36 -27 -46 -30 -46 -15 0 5
18 19 40 30 22 11 46 29 52 40 15 23 28 26 28 7z m860 3 c0 -5 -6 -10 -14 -10
-8 0 -18 5 -21 10 -3 6 3 10 14 10 12 0 21 -4 21 -10z m-670 -39 c-28 -22 -68
-32 -76 -20 -3 5 0 9 5 9 18 0 20 0 48 15 39 21 53 18 23 -4z m347 -6 c7 -11
15 -25 18 -32 10 -18 -34 -58 -48 -44 -6 6 -8 11 -5 11 4 0 0 16 -8 35 -8 20
-12 40 -9 44 9 15 40 7 52 -14z m-750 -37 c-3 -8 -6 -5 -6 6 -1 11 2 17 5 13
3 -3 4 -12 1 -19z m2290 6 c-3 -3 -12 -4 -19 -1 -8 3 -5 6 6 6 11 1 17 -2 13
-5z m-1254 -24 c4 -17 0 -20 -24 -20 -21 0 -27 4 -23 14 3 8 13 17 22 19 10 3
18 5 18 6 1 0 4 -8 7 -19z m537 10 c0 -5 -2 -10 -4 -10 -3 0 -8 5 -11 10 -3 6
-1 10 4 10 6 0 11 -4 11 -10z m-210 -10 c0 -5 -4 -10 -10 -10 -5 0 -10 5 -10
10 0 6 5 10 10 10 6 0 10 -4 10 -10z m361 -2 c0 -10 2 -10 6 0 9 23 23 12 17
-13 -5 -20 -3 -24 10 -19 19 7 22 -17 5 -48 -7 -13 -8 -23 -1 -30 7 -7 16 1
28 23 17 31 19 32 22 12 5 -32 17 -29 32 7 14 34 16 35 53 18 32 -16 34 -29 6
-54 -12 -10 -31 -39 -42 -64 l-20 -45 -6 30 c-7 34 -24 20 -21 -18 4 -46 -3
-40 -10 8 -6 40 -8 46 -15 28 -4 -13 -11 -21 -15 -18 -4 3 -10 -4 -13 -15 -3
-11 -10 -20 -16 -20 -15 0 -31 43 -21 54 5 5 2 15 -6 23 -8 8 -14 27 -14 41 0
15 -4 41 -9 59 -6 21 -5 35 2 42 15 15 27 14 28 -1z m219 1 c0 -6 8 -8 19 -4
14 4 20 0 25 -17 9 -35 8 -38 -19 -38 -19 0 -25 5 -25 23 0 13 -5 28 -12 35
-9 9 -9 12 0 12 7 0 12 -5 12 -11z m564 -3 c23 22 30 12 21 -32 -5 -28 -9 -34
-16 -23 -8 12 -11 11 -23 -3 -18 -24 -29 -23 -21 2 8 25 -10 27 -24 3 -9 -17
-11 -17 -25 2 -14 18 -13 22 11 42 25 20 29 21 44 7 15 -13 18 -13 33 2z m133
-8 c28 -26 30 -41 3 -33 -26 8 -28 -20 -2 -34 16 -10 15 -12 -10 -15 -12 -1
-14 -8 -23 -91 -3 -27 -10 -51 -15 -53 -6 -2 -10 -10 -10 -18 0 -8 -4 -14 -10
-14 -5 0 -10 -11 -10 -24 0 -15 -15 -39 -39 -63 -21 -21 -41 -49 -44 -63 -3
-21 -5 -19 -6 8 -2 52 -21 27 -21 -28 0 -27 -5 -52 -10 -55 -7 -4 -8 12 -4 48
5 45 3 63 -16 100 l-23 45 38 34 c21 18 48 33 59 33 16 0 22 7 24 28 3 28 4
28 23 11 28 -26 36 -8 9 21 -23 25 -23 26 -7 60 9 20 17 46 17 58 1 68 33 87
77 45z m-2046 -21 c4 -16 10 -70 14 -120 3 -51 17 -132 29 -182 40 -153 46
-184 46 -221 0 -30 5 -37 32 -49 38 -15 59 -8 33 11 -24 17 -17 24 17 17 17
-3 25 -10 21 -19 -3 -8 1 -14 10 -14 19 0 26 26 16 60 -14 48 -19 110 -9 110
12 0 68 -96 76 -133 4 -22 -1 -35 -26 -63 -17 -20 -29 -43 -26 -50 9 -22 -24
-85 -68 -131 -46 -50 -56 -53 -56 -18 0 14 -4 25 -10 25 -5 0 -10 6 -10 13 0
8 -23 38 -50 68 -65 70 -110 158 -110 213 0 23 -13 99 -29 169 -29 126 -29
127 -11 174 36 96 40 116 28 130 -12 15 -12 15 22 30 36 17 53 12 61 -20z
m1749 22 c0 -5 -13 -9 -30 -9 -16 0 -30 -4 -30 -10 0 -5 11 -10 24 -10 42 0
39 -19 -4 -26 -49 -8 -53 -24 -6 -24 40 0 59 -28 26 -37 -15 -4 -18 -9 -10
-18 9 -11 4 -13 -25 -11 -19 2 -38 -1 -41 -5 -3 -5 13 -9 35 -9 23 0 41 -4 41
-10 0 -5 -13 -10 -30 -10 -16 0 -30 -4 -30 -10 0 -5 14 -10 30 -10 36 0 41
-24 8 -35 l-23 -7 24 -7 c36 -10 36 -27 0 -35 -69 -13 -77 -10 -83 37 -17 140
-17 135 10 156 17 13 28 33 31 59 5 36 7 38 44 39 21 1 39 -2 39 -8z m-1708
-14 c0 -5 -5 -11 -11 -13 -6 -2 -11 4 -11 13 0 9 5 15 11 13 6 -2 11 -8 11
-13z m688 5 c0 -5 -4 -10 -10 -10 -5 0 -10 5 -10 10 0 6 5 10 10 10 6 0 10 -4
10 -10z m910 -9 c0 -11 -11 -33 -25 -49 -15 -19 -25 -43 -25 -63 l-1 -34 -24
30 c-14 17 -25 32 -25 35 0 3 14 13 30 22 17 10 38 31 48 48 20 35 22 36 22
11z m610 -1 c0 -5 -4 -10 -10 -10 -5 0 -10 5 -10 10 0 6 5 10 10 10 6 0 10 -4
10 -10z m-2826 -25 c-4 -8 -10 -13 -15 -10 -4 3 -6 12 -3 20 4 8 10 13 15 10
4 -3 6 -12 3 -20z m1032 -6 c9 -10 25 -19 34 -19 9 0 29 -11 44 -25 15 -14 31
-25 36 -25 13 0 44 -49 36 -57 -3 -3 -6 -1 -6 6 0 7 -4 10 -9 6 -6 -3 -15 4
-21 15 -7 12 -19 20 -30 18 -11 -2 -18 0 -17 3 1 3 -4 13 -11 22 -11 13 -18
14 -38 5 -24 -11 -35 -34 -11 -25 19 7 67 -25 67 -45 0 -20 -15 -24 -25 -7 -4
6 -13 8 -21 5 -19 -7 -64 14 -64 31 0 19 -18 16 -23 -4 -3 -10 -5 -3 -6 15 -1
22 4 32 13 32 9 0 14 9 13 20 -1 21 -6 24 -31 14 -10 -4 -16 -18 -16 -40 0
-19 -2 -34 -4 -34 -3 0 -17 11 -32 25 -17 16 -39 25 -60 25 -18 0 -47 8 -66
18 -18 9 -35 18 -37 19 -1 1 0 6 3 12 4 6 27 2 61 -10 59 -21 115 -25 115 -9
0 6 7 10 15 10 8 0 15 6 15 13 0 20 55 9 76 -14z m1737 -42 c-9 -14 -23 4 -23
31 l1 27 13 -25 c8 -14 12 -28 9 -33z m-1219 34 c4 -5 -7 -12 -24 -16 -30 -7
-57 -39 -52 -63 3 -14 -40 -11 -44 4 -3 11 86 83 103 84 6 0 14 -4 17 -9z
m-104 -17 c-8 -8 -22 -20 -33 -25 -15 -9 -18 -8 -15 7 3 15 13 21 57 33 2 1
-2 -6 -9 -15z m186 -41 c2 -53 28 -93 70 -105 66 -20 81 -22 127 -23 43 0 48
-2 53 -25 2 -14 8 -37 13 -51 6 -19 4 -29 -8 -37 -13 -9 -6 -11 31 -11 26 -1
58 3 71 8 17 7 39 5 68 -3 24 -8 62 -13 84 -12 33 1 42 6 52 28 10 20 25 29
63 38 73 18 83 11 78 -55 -3 -53 14 -84 20 -37 2 12 7 20 12 17 10 -6 -3 -66
-25 -120 -10 -21 -37 -62 -61 -89 -25 -28 -54 -71 -66 -96 -26 -56 -46 -80
-78 -92 -17 -6 -21 -11 -12 -17 10 -6 10 -11 -3 -21 -22 -19 -18 -32 6 -19 16
8 20 8 17 -1 -2 -7 -24 -21 -48 -30 -38 -15 -45 -22 -45 -46 -1 -18 -8 -31
-23 -37 -15 -7 -20 -16 -17 -27 5 -15 0 -17 -27 -14 -18 2 -37 9 -42 14 -7 7
1 8 24 4 26 -5 32 -4 24 5 -14 16 -141 61 -171 61 -22 0 -23 3 -17 38 3 20 15
74 26 120 11 46 17 89 14 97 -2 7 0 15 7 18 8 2 6 11 -6 30 -9 15 -17 45 -17
69 0 24 -7 54 -16 67 -20 28 -7 66 25 76 20 6 30 25 13 25 -5 0 -38 -27 -73
-60 -66 -61 -82 -67 -87 -34 -2 10 -10 24 -17 29 -7 6 -15 33 -17 60 -5 52
-44 217 -60 248 -5 12 -3 25 8 42 21 33 29 25 30 -32z m-1009 5 c-3 -7 -5 -2
-5 12 0 14 2 19 5 13 2 -7 2 -19 0 -25z m2196 -180 c-6 -474 -5 -448 -14 -388
-4 30 -12 132 -18 225 -7 94 -16 199 -22 233 -10 63 -9 64 21 95 16 17 30 34
30 39 0 4 1 8 3 8 1 0 2 -96 0 -212z m-2578 192 c-3 -5 -10 -10 -16 -10 -5 0
-9 5 -9 10 0 6 7 10 16 10 8 0 12 -4 9 -10z m475 -10 c0 -5 -4 -10 -10 -10 -5
0 -10 5 -10 10 0 6 5 10 10 10 6 0 10 -4 10 -10z m40 0 c0 -5 -7 -10 -15 -10
-8 0 -15 5 -15 10 0 6 7 10 15 10 8 0 15 -4 15 -10z m590 0 c0 -6 -8 -14 -17
-17 -10 -4 -21 -11 -24 -16 -8 -11 -108 -16 -115 -6 -2 5 12 11 33 15 21 4 52
13 68 20 37 16 55 17 55 4z m341 -61 l-9 -24 -11 28 c-6 16 -11 36 -11 45 0
14 3 14 20 -4 16 -16 19 -25 11 -45z m-820 32 c13 -11 24 -27 24 -38 0 -19 7
-20 113 -22 40 -1 42 -3 36 -25 -3 -13 -1 -34 6 -45 9 -17 8 -21 -4 -21 -8 0
-18 5 -21 11 -5 7 -12 6 -23 -4 -23 -19 -77 -28 -90 -15 -8 8 -18 7 -35 -5
-23 -15 -26 -15 -43 4 -9 11 -18 34 -18 53 -1 26 -5 32 -18 28 -27 -7 -25 54
2 68 11 6 18 15 15 21 -11 17 32 9 56 -10z m549 -17 c0 -2 -7 -4 -15 -4 -8 0
-15 4 -15 10 0 5 7 7 15 4 8 -4 15 -8 15 -10z m-695 -45 c5 -29 10 -38 16 -28
5 8 9 9 9 3 0 -15 -27 -37 -33 -27 -11 19 -18 93 -9 93 6 0 13 -19 17 -41z
m868 -1 c3 -18 8 -41 12 -50 5 -13 2 -18 -9 -18 -12 0 -16 10 -16 35 0 19 -4
35 -10 35 -5 0 -10 7 -10 15 0 29 27 15 33 -17z m-188 11 c12 -19 -5 -23 -22
-6 -16 16 -16 17 -1 17 9 0 20 -5 23 -11z m-95 -9 c0 -5 -5 -10 -12 -10 -6 0
-22 -10 -34 -21 l-23 -21 -28 22 -28 22 25 -7 c15 -4 38 0 55 9 35 18 45 20
45 6z m1122 -26 c-35 -43 -52 -43 -52 0 0 32 1 33 40 33 l40 0 -28 -33z m308
16 c0 -5 -4 -10 -9 -10 -6 0 -13 5 -16 10 -3 6 1 10 9 10 9 0 16 -4 16 -10z
m-1560 -20 c0 -24 -18 -36 -33 -21 -6 6 -22 11 -35 11 -40 0 -9 26 33 27 28 1
35 -3 35 -17z m201 4 c12 -14 11 -16 -5 -13 -11 2 -21 10 -24 17 -5 17 13 15
29 -4z m543 10 c9 -3 16 -14 16 -24 0 -9 9 -27 20 -40 26 -30 25 -38 -6 -46
-31 -8 -44 7 -44 53 0 17 -3 38 -6 47 -7 18 -4 19 20 10z m-579 -24 c3 -5 2
-10 -4 -10 -5 0 -13 5 -16 10 -3 6 -2 10 4 10 5 0 13 -4 16 -10z m1375 -14 c0
-11 -14 -19 -50 -26 -2 -1 -6 3 -8 9 -2 6 7 15 20 20 32 13 38 13 38 -3z
m-1160 -16 c0 -5 -4 -10 -10 -10 -5 0 -10 5 -10 10 0 6 5 10 10 10 6 0 10 -4
10 -10z m626 -20 c0 -14 -7 -20 -23 -20 -27 0 -30 15 -5 29 24 15 28 14 28 -9z
m-1496 -20 c0 -5 -4 -10 -10 -10 -5 0 -10 5 -10 10 0 6 5 10 10 10 6 0 10 -4
10 -10z m436 -10 c23 0 16 -28 -8 -32 -12 -2 -23 -9 -26 -17 -3 -10 2 -13 22
-9 20 4 26 1 26 -13 0 -10 -5 -21 -11 -24 -11 -7 -79 34 -79 48 0 19 34 58 47
53 8 -4 21 -6 29 -6z m471 -27 c-3 -10 -5 -4 -5 12 0 17 2 24 5 18 2 -7 2 -21
0 -30z m526 12 c9 -17 6 -18 -48 -11 -32 3 -62 9 -67 12 -20 13 6 22 53 20 37
-2 54 -8 62 -21z m-1398 -25 c-3 -5 -11 -10 -16 -10 -6 0 -7 5 -4 10 3 6 11
10 16 10 6 0 7 -4 4 -10z m822 -12 c-3 -8 -6 -5 -6 6 -1 11 2 17 5 13 3 -3 4
-12 1 -19z m-37 2 c0 -5 -4 -10 -10 -10 -5 0 -10 5 -10 10 0 6 5 10 10 10 6 0
10 -4 10 -10z m-265 -10 c-3 -5 -11 -10 -16 -10 -6 0 -7 5 -4 10 3 6 11 10 16
10 6 0 7 -4 4 -10z m1515 0 c0 -5 -4 -10 -10 -10 -5 0 -10 5 -10 10 0 6 5 10
10 10 6 0 10 -4 10 -10z m-1705 -19 c3 -5 1 -12 -5 -16 -20 -12 -10 -26 10
-15 39 21 22 -30 -26 -79 l-46 -46 -22 26 c-12 14 -27 24 -34 21 -7 -2 -12 2
-12 10 0 7 -9 30 -19 50 -20 37 -19 50 4 42 7 -3 15 -2 18 3 8 11 125 15 132
4z m135 -31 c-11 -11 -20 -24 -20 -30 0 -5 -11 -12 -24 -16 -15 -3 -23 -11
-20 -19 4 -10 -1 -12 -15 -8 -12 3 -21 8 -20 12 1 11 104 88 111 84 4 -2 -2
-13 -12 -23z m330 10 c0 -11 -4 -20 -10 -20 -5 0 -10 9 -10 20 0 11 5 20 10
20 6 0 10 -9 10 -20z m49 -22 c-1 -37 -2 -39 -9 -18 -12 36 -12 60 0 60 6 0
10 -19 9 -42z m-722 6 c-9 -9 -28 6 -21 18 4 6 10 6 17 -1 6 -6 8 -13 4 -17z
m1910 -6 c-3 -8 -6 -5 -6 6 -1 11 2 17 5 13 3 -3 4 -12 1 -19z m-1148 -60 c-2
-48 2 -73 9 -76 18 -6 14 -19 -7 -25 -48 -12 -64 -133 -19 -145 22 -5 22 -17
-2 -117 -34 -143 -43 -175 -52 -175 -4 0 -8 -12 -8 -27 0 -26 1 -26 15 -7 13
18 14 17 15 -19 0 -21 -7 -51 -15 -67 -13 -25 -18 -27 -47 -20 -69 16 -70 18
-63 74 4 28 9 59 12 69 5 18 5 18 18 0 20 -27 30 -8 17 35 -10 32 -32 228 -32
284 0 14 6 16 31 11 34 -7 49 6 49 45 0 14 6 22 16 22 14 0 16 8 10 46 -7 54
1 94 19 94 14 0 25 22 25 51 0 10 3 19 6 19 3 0 4 -32 3 -72z m740 -68 c-28
-39 -56 -70 -62 -70 -9 0 2 17 36 55 25 27 53 82 63 125 l9 35 3 -38 c3 -32
-4 -47 -49 -107z m-675 99 c4 -21 0 -38 -12 -54 -26 -36 -41 -31 -26 9 3 8 12
12 20 9 16 -6 19 12 4 22 -12 8 -13 45 -1 45 5 0 11 -14 15 -31z m-143 -52
c-10 -40 -10 -41 -7 -5 3 21 0 38 -7 41 -6 2 -8 11 -3 23 7 18 8 18 17 1 7
-11 7 -32 0 -60z m270 -23 c-8 -19 -7 -35 5 -70 19 -56 10 -71 -11 -19 -9 20
-19 35 -22 32 -3 -3 2 -19 10 -36 9 -17 12 -33 7 -36 -5 -3 -11 4 -15 15 -3
11 -11 20 -16 20 -12 0 -11 -6 3 -30 15 -24 4 -37 -17 -20 -12 10 -15 10 -15
-4 0 -19 -50 -22 -68 -4 -17 17 -28 2 -12 -17 7 -8 28 -15 47 -15 23 0 33 -4
30 -12 -4 -13 -41 -14 -82 -4 -11 3 -28 21 -38 39 -21 38 -14 64 22 89 10 7
21 23 25 36 4 12 21 29 37 37 16 9 36 26 45 40 22 33 46 36 63 7 10 -19 10
-30 2 -48z m-721 28 c0 -5 -11 -22 -25 -38 -14 -16 -20 -30 -15 -32 15 -5 12
-22 -5 -22 -8 0 -22 -11 -31 -25 -12 -19 -20 -23 -29 -15 -9 8 -14 6 -19 -5
-3 -8 -16 -15 -28 -15 -19 0 -9 14 57 80 76 76 95 91 95 72z m337 -24 c-3 -8
-6 -5 -6 6 -1 11 2 17 5 13 3 -3 4 -12 1 -19z m-472 -58 c-21 -21 -43 -36 -48
-33 -6 3 -7 1 -4 -4 4 -6 0 -16 -8 -23 -12 -10 -15 -9 -15 8 0 12 9 27 19 34
11 8 23 26 26 40 4 16 12 25 20 22 7 -3 16 0 20 6 5 9 10 9 18 1 8 -8 0 -22
-28 -51z m262 18 c-3 -8 -6 -5 -6 6 -1 11 2 17 5 13 3 -3 4 -12 1 -19z m1183
-8 c0 -21 -15 -27 -25 -10 -7 12 2 30 16 30 5 0 9 -9 9 -20z m-1206 -9 c7 -10
-22 -37 -30 -28 -9 8 3 37 15 37 5 0 12 -4 15 -9z m1536 -11 c0 -5 -5 -10 -11
-10 -5 0 -7 5 -4 10 3 6 8 10 11 10 2 0 4 -4 4 -10z m-378 -63 c-4 -51 -7 -57
-23 -52 -13 5 -19 1 -19 -10 0 -11 5 -15 15 -11 8 3 15 1 15 -4 0 -6 -7 -10
-15 -10 -20 0 -19 -17 3 -29 15 -10 15 -11 -5 -17 -24 -7 -30 -19 -13 -29 18
-11 11 -47 -10 -52 -11 -3 -20 -8 -20 -12 0 -3 -3 -16 -6 -28 -5 -20 -2 -23
21 -23 17 0 25 4 22 13 -2 6 -10 11 -16 9 -7 -1 -10 2 -6 7 3 6 12 8 20 5 13
-6 35 48 35 88 0 25 20 33 38 14 15 -15 15 -16 -6 -16 -12 0 -22 -4 -22 -10 0
-5 9 -10 20 -10 18 0 20 -5 15 -71 -2 -40 -7 -80 -11 -91 -8 -25 -30 -17 -27
11 2 11 -2 21 -7 21 -6 0 -10 -6 -10 -12 -1 -7 -9 -3 -19 10 -23 26 -41 29
-39 5 4 -52 -2 -63 -32 -63 -27 0 -30 3 -30 29 0 25 -5 30 -26 33 -61 7 -56
75 11 164 24 32 62 82 83 109 22 28 45 61 51 73 17 33 19 26 13 -41z m-1112
25 c0 -15 -2 -15 -10 -2 -13 20 -13 33 0 25 6 -3 10 -14 10 -23z m171 5 c-13
-13 -26 -3 -16 12 3 6 11 8 17 5 6 -4 6 -10 -1 -17z m-870 -9 c7 -13 31 -45
54 -73 61 -72 80 -112 66 -141 -11 -26 -34 -34 -25 -9 4 8 10 15 15 15 5 0 9
5 9 11 0 7 -10 9 -25 5 -14 -4 -25 -2 -25 4 0 5 5 10 10 10 6 0 10 7 10 15 0
9 -6 12 -15 9 -11 -5 -13 -2 -8 11 5 15 2 17 -15 13 -23 -6 -32 15 -12 27 15
9 2 25 -15 18 -9 -3 -15 1 -15 11 0 19 -16 21 -23 4 -2 -7 -8 -9 -13 -5 -4 4
-3 17 4 27 17 27 16 30 -14 30 -26 0 -26 -2 -22 -49 3 -27 1 -56 -4 -66 -5 -9
-10 -50 -12 -91 -1 -54 -6 -79 -19 -91 -26 -27 -32 -7 -18 60 27 121 31 160
19 174 -8 9 -7 13 2 13 7 0 10 12 8 31 -2 26 2 33 27 44 41 18 43 18 56 -7z
m949 -9 c0 -11 -7 -19 -16 -19 -11 0 -14 5 -10 16 3 9 6 20 6 25 0 6 5 7 10 4
6 -3 10 -15 10 -26z m910 -50 c0 -57 -3 -69 -16 -69 -14 0 -15 7 -9 53 5 28 9
62 9 74 1 11 4 19 9 16 4 -2 7 -35 7 -74z m-1290 61 c0 -5 -4 -10 -10 -10 -5
0 -10 5 -10 10 0 6 5 10 10 10 6 0 10 -4 10 -10z m63 -2 c38 -22 57 -40 57
-56 0 -8 7 -20 15 -26 17 -12 23 -86 10 -125 -4 -13 -2 -28 6 -37 9 -11 8 -18
-5 -32 -9 -10 -16 -22 -16 -25 0 -13 34 -7 52 10 25 22 32 11 47 -72 7 -38 18
-86 24 -105 6 -19 10 -61 9 -93 -2 -32 5 -96 14 -143 9 -49 12 -90 7 -95 -5
-5 -29 -5 -53 -1 -43 7 -46 10 -67 62 -18 44 -22 72 -21 140 2 95 -3 116 -38
167 -32 47 -31 79 1 87 14 4 25 11 25 16 0 13 -67 13 -75 0 -20 -32 -25 4 -23
165 2 96 4 175 6 175 1 0 12 -6 25 -12z m-107 -70 c-3 -23 -10 -46 -16 -52 -5
-5 -10 -18 -10 -28 0 -10 -4 -18 -10 -18 -5 0 -10 8 -10 18 0 10 -5 23 -11 29
-15 15 -2 34 18 26 13 -5 15 -2 9 12 -4 11 0 25 10 36 24 26 25 24 20 -23z
m323 16 c-17 -21 -2 -31 22 -15 12 7 23 10 26 8 2 -3 9 -66 15 -139 10 -122
10 -138 -6 -169 -13 -23 -21 -73 -27 -158 -4 -68 -10 -125 -13 -128 -8 -8 -15
50 -12 101 1 28 -6 79 -16 115 -10 37 -21 97 -25 135 -5 59 -4 71 12 82 15 12
16 18 6 58 -14 58 -14 109 1 124 16 16 32 3 17 -14z m1060 -75 c1 -37 -5 -82
-13 -100 l-15 -34 3 45 c2 25 4 79 5 120 3 93 19 68 20 -31z m61 69 c0 -5 -4
-8 -10 -8 -5 0 -10 10 -10 23 0 18 2 19 10 7 5 -8 10 -18 10 -22z m-2234 2
c20 -8 24 -14 16 -22 -7 -7 -17 -4 -33 11 -26 24 -22 26 17 11z m624 -1 c0 -6
-33 -44 -72 -86 -40 -41 -79 -82 -86 -89 -16 -17 -52 -37 -57 -32 -5 5 197
216 208 217 4 1 7 -4 7 -10z m-670 -29 c0 -5 -7 -7 -15 -4 -8 4 -15 8 -15 10
0 2 7 4 15 4 8 0 15 -4 15 -10z m876 -25 c-4 -22 -3 -35 4 -35 5 0 10 -4 10
-10 0 -12 -10 -13 -27 -2 -15 9 -6 82 9 82 6 0 8 -14 4 -35z m689 -72 c-9 -43
-23 -85 -31 -94 -8 -8 -14 -20 -14 -25 0 -6 -15 -27 -32 -47 -18 -20 -43 -56
-54 -79 -26 -52 -59 -191 -50 -214 4 -9 -9 -47 -31 -90 -34 -66 -41 -74 -67
-74 -28 0 -28 0 -21 48 4 26 11 55 16 65 6 10 26 61 44 114 27 75 35 112 35
167 0 39 9 107 20 151 11 44 20 90 20 103 0 26 32 42 88 42 20 0 48 6 62 13
14 7 26 10 28 6 2 -4 -4 -43 -13 -86z m-1600 77 c3 -5 1 -10 -4 -10 -6 0 -11
5 -11 10 0 6 2 10 4 10 3 0 8 -4 11 -10z m60 -57 c-22 -40 -116 -123 -140
-123 -22 0 -49 27 -35 35 6 4 25 3 43 -1 28 -6 30 -5 19 9 -11 13 -10 16 6 21
11 4 22 16 25 26 3 12 14 20 26 20 15 0 26 12 38 40 14 32 19 37 27 23 6 -11
3 -27 -9 -50z m280 46 c8 -23 1 -34 -14 -24 -13 8 -15 45 -2 45 5 0 13 -9 16
-21z m1995 -3 c0 -2 -7 -6 -15 -10 -8 -3 -15 -1 -15 4 0 6 7 10 15 10 8 0 15
-2 15 -4z m-2419 -33 c-12 -20 -14 -14 -5 12 4 9 9 14 11 11 3 -2 0 -13 -6
-23z m2459 -14 c0 -5 -16 -9 -35 -9 -24 0 -35 5 -35 15 0 8 6 12 14 9 8 -3 17
0 21 6 7 12 35 -5 35 -21z m-2220 11 c0 -5 -2 -10 -4 -10 -3 0 -8 5 -11 10 -3
6 -1 10 4 10 6 0 11 -4 11 -10z m214 -72 c7 -37 -6 -53 -18 -23 -3 8 -12 12
-21 9 -9 -4 -15 -1 -15 9 0 8 9 17 20 20 17 4 20 11 15 34 -4 22 -3 23 3 8 5
-11 12 -37 16 -57z m416 40 c37 -39 11 -135 -50 -185 -13 -10 -11 -12 12 -13
15 0 30 5 33 10 4 6 11 8 16 4 6 -4 6 -10 1 -17 -9 -11 -32 -54 -119 -217 -13
-25 -29 -49 -36 -55 -28 -22 -57 -69 -57 -91 0 -13 -11 -47 -24 -76 -13 -29
-27 -63 -30 -75 -7 -23 -45 -39 -70 -30 -29 11 -31 118 -4 192 7 17 29 51 50
76 21 26 41 62 45 80 3 19 14 50 25 69 10 19 18 41 18 49 0 7 5 31 11 52 11
35 15 38 51 41 21 2 37 8 36 13 -2 6 -10 9 -18 8 -23 -4 -64 16 -77 36 -10 15
-8 22 8 37 15 14 19 14 19 3 0 -8 -5 -20 -12 -27 -9 -9 -7 -12 10 -12 18 0 22
6 22 29 0 39 13 46 46 25 22 -15 27 -15 35 -3 13 22 12 46 -3 31 -8 -8 -17 -8
-30 -1 -21 11 -14 33 8 25 9 -3 19 4 26 19 14 31 31 32 58 3z m-599 -21 c-16
-16 -25 -1 -10 16 8 8 16 11 18 5 2 -5 -2 -15 -8 -21z m-44 2 c4 -12 17 -22
34 -26 16 -3 29 -7 29 -9 0 -8 -43 -80 -57 -96 -19 -21 -73 -32 -154 -29 -40
2 -69 -2 -73 -8 -10 -16 -26 -13 -26 4 0 19 58 29 116 20 36 -5 45 -4 42 7 -3
7 -23 14 -46 16 -23 2 -42 8 -42 14 0 7 24 8 70 3 44 -4 70 -3 70 3 0 14 -26
22 -72 22 -57 0 -41 11 22 15 57 4 65 8 55 25 -5 7 -20 9 -41 5 -21 -3 -34 -2
-34 5 0 5 18 10 40 10 22 0 40 5 40 10 0 6 -6 10 -14 10 -8 0 -18 5 -21 10 -4
6 7 10 25 10 24 0 33 -5 37 -21z m2233 2 c0 -9 -60 -24 -68 -16 -5 5 36 23 56
24 6 1 12 -3 12 -8z m-1250 -11 c0 -5 -5 -10 -11 -10 -5 0 -7 5 -4 10 3 6 8
10 11 10 2 0 4 -4 4 -10z m-253 -22 c-3 -8 -6 -5 -6 6 -1 11 2 17 5 13 3 -3 4
-12 1 -19z m1511 -10 c-7 -19 -78 -29 -78 -11 0 8 4 11 10 8 5 -3 18 -1 27 4
25 14 45 13 41 -1z m-1958 -27 c0 -5 -13 -15 -30 -23 -16 -7 -30 -17 -30 -21
0 -5 -4 -5 -10 -2 -15 9 -12 25 4 25 7 0 19 7 26 15 14 16 40 20 40 6z m-530
-16 c0 -2 -4 -16 -10 -30 -9 -23 -15 -26 -52 -23 -50 4 -63 26 -19 34 17 4 35
12 42 20 9 11 39 10 39 -1z m660 6 c0 -12 -20 -25 -27 -18 -7 7 6 27 18 27 5
0 9 -4 9 -9z m307 -13 c-3 -8 -6 -5 -6 6 -1 11 2 17 5 13 3 -3 4 -12 1 -19z
m823 12 c12 -8 9 -10 -12 -10 -16 0 -28 5 -28 10 0 13 20 13 40 0z m-846 -31
c-3 -5 -10 -7 -15 -3 -5 3 -7 10 -3 15 3 5 10 7 15 3 5 -3 7 -10 3 -15z m808
8 c47 -16 58 -27 30 -27 -38 0 -24 -17 21 -24 23 -4 51 -8 62 -9 24 -1 49 -23
36 -32 -5 -3 -12 -1 -16 5 -16 26 -22 0 -28 -126 -3 -75 -9 -139 -12 -142 -3
-3 -22 4 -43 15 -20 12 -53 24 -72 27 -19 4 -45 12 -57 18 -17 8 -33 8 -60 0
-46 -14 -53 -10 -53 39 0 38 12 51 26 27 10 -15 34 19 34 48 0 11 11 38 25 58
25 37 31 56 18 56 -15 0 -30 -15 -46 -45 -10 -19 -16 -24 -17 -13 0 15 97 137
110 137 3 1 22 -5 42 -12z m-1712 -7 c0 -5 -4 -10 -10 -10 -5 0 -10 5 -10 10
0 6 5 10 10 10 6 0 10 -4 10 -10z m421 -42 c43 -34 94 -96 109 -130 5 -13 13
-53 18 -90 8 -66 8 -68 -24 -115 -18 -26 -33 -58 -34 -70 0 -43 -10 -53 -55
-53 -29 0 -47 6 -60 20 -27 29 -50 25 -98 -19 -51 -48 -170 -93 -299 -115 -44
-8 -51 9 -18 39 11 10 20 23 20 29 0 6 16 35 35 63 19 29 35 57 35 62 0 5 9
16 20 24 12 8 34 56 56 123 59 178 77 210 116 218 19 3 49 17 68 30 41 29 59
26 111 -16z m555 15 c-10 -10 -19 5 -10 18 6 11 8 11 12 0 2 -7 1 -15 -2 -18z
m1394 -17 c0 -14 -50 -40 -98 -50 -33 -8 -47 9 -17 20 8 4 15 12 15 20 0 18
10 18 38 -2 21 -14 23 -14 32 11 10 26 30 26 30 1z m-1423 -6 c12 0 14 -8 10
-32 -7 -44 -34 -124 -58 -173 -11 -23 -22 -57 -25 -76 -5 -32 -3 -39 24 -58
35 -24 42 -25 76 -10 16 8 26 23 30 45 4 18 17 55 29 81 l22 48 3 -69 c5 -109
-12 -164 -65 -210 -28 -26 -47 -36 -51 -29 -4 7 -32 10 -72 8 -56 -4 -65 -7
-62 -22 3 -13 1 -15 -8 -7 -6 6 -15 42 -20 80 -6 38 -15 88 -21 111 -10 38 -9
46 16 90 16 26 44 80 64 118 40 76 83 133 89 116 2 -6 11 -11 19 -11z m975
-36 c-4 -44 12 -61 39 -42 12 8 12 10 0 15 -11 4 -11 7 0 13 10 7 10 11 0 24
-11 13 -11 16 3 16 9 0 16 -8 16 -20 0 -12 7 -34 15 -50 14 -27 14 -29 -4 -25
-26 5 -61 -5 -61 -17 0 -5 19 -6 45 -2 l45 6 0 -31 c0 -25 -4 -31 -22 -31 -35
0 -68 -11 -68 -22 0 -6 6 -8 14 -5 8 3 30 9 50 12 l34 7 7 -46 c5 -32 3 -51
-5 -61 -17 -20 -5 -32 15 -15 9 7 18 11 20 8 3 -3 12 -55 20 -116 11 -87 22
-125 48 -179 19 -37 39 -81 45 -98 15 -42 32 -163 32 -229 0 -52 -2 -56 -23
-56 -20 0 -24 8 -34 60 -11 57 -30 101 -84 196 -18 31 -22 53 -21 106 2 62 0
67 -20 70 -16 2 -33 23 -60 77 -41 79 -47 111 -23 111 9 0 28 11 43 25 28 26
24 32 -8 15 -23 -12 -70 3 -70 23 0 13 60 37 94 37 9 0 16 5 16 10 0 13 -36
13 -61 -1 -11 -6 -25 -9 -31 -7 -6 2 11 12 38 21 l49 18 -45 -5 c-40 -4 -48
-2 -61 19 -22 38 -41 16 -50 -57 -5 -43 -4 -65 4 -70 6 -4 8 -10 4 -14 -4 -4
-14 -1 -22 7 -12 12 -13 33 -6 123 5 68 13 111 21 116 9 6 8 10 -6 18 -22 12
-13 27 11 19 8 -4 15 -18 15 -32 0 -16 6 -25 16 -25 23 0 13 96 -12 116 -18
14 -17 14 11 12 28 -3 30 -5 27 -44z m138 30 c0 -8 -5 -12 -10 -9 -6 4 -8 11
-5 16 9 14 15 11 15 -7z m33 -145 c30 -63 35 -109 12 -109 -8 0 -15 6 -15 13
0 8 -3 7 -10 -3 -5 -8 -13 -11 -17 -6 -4 4 0 13 10 21 16 12 16 13 -5 20 -19
6 -20 8 -5 12 9 2 17 11 17 19 0 17 -16 19 -23 2 -3 -7 -6 3 -7 22 0 19 -11
57 -25 84 -13 27 -22 54 -19 58 7 11 49 -54 87 -133z m121 125 c9 -8 16 -25
16 -37 0 -12 10 -47 21 -77 12 -30 25 -79 30 -109 4 -29 25 -86 45 -127 48
-92 40 -110 -32 -70 -46 26 -98 34 -108 17 -3 -5 -19 -11 -36 -13 -34 -5 -35
-3 -45 93 -6 61 -5 67 14 72 34 8 27 69 -19 162 -21 44 -37 81 -36 82 1 1 20
-2 41 -8 35 -10 41 -9 55 10 18 25 33 26 54 5z m-2164 -4 c0 -5 -2 -10 -4 -10
-3 0 -8 5 -11 10 -3 6 -1 10 4 10 6 0 11 -4 11 -10z m120 0 c0 -5 -4 -10 -10
-10 -5 0 -10 5 -10 10 0 6 5 10 10 10 6 0 10 -4 10 -10z m846 -3 c2 -7 -2 -27
-11 -43 -8 -16 -15 -37 -15 -46 0 -10 -4 -18 -10 -18 -14 0 -13 32 2 80 13 41
25 50 34 27z m1634 3 c0 -6 10 -15 23 -19 19 -8 20 -10 5 -16 -10 -4 -25 -5
-33 -1 -17 6 -21 46 -5 46 6 0 10 -5 10 -10z m-1670 -130 c0 -5 -4 -10 -10
-10 -5 0 -10 5 -10 10 0 6 5 10 10 10 6 0 10 -4 10 -10z m111 -80 c-7 -38 -9
-40 -10 -14 -1 41 12 107 16 79 2 -11 -1 -40 -6 -65z m-131 29 c-7 -11 -14
-18 -17 -15 -8 8 5 36 17 36 7 0 7 -6 0 -21z m382 3 c-7 -2 -12 -10 -12 -18 0
-8 -4 -14 -10 -14 -5 0 -10 6 -10 13 0 19 21 37 34 30 6 -4 6 -8 -2 -11z
m-392 -51 c0 -5 -6 -12 -12 -14 -10 -4 -10 -8 -1 -14 15 -11 21 -41 8 -44 -13
-3 -30 45 -22 65 7 17 27 22 27 7z m742 -22 c20 -5 40 -14 43 -19 4 -6 -22
-44 -57 -86 -35 -41 -80 -97 -100 -124 -21 -27 -47 -55 -58 -63 -15 -10 -21
-30 -26 -88 -8 -79 -24 -114 -94 -199 -49 -59 -62 -84 -75 -149 -11 -51 -13
-54 -54 -68 -50 -17 -62 -11 -37 16 10 11 15 25 11 30 -6 10 48 173 65 196 4
6 24 62 45 125 20 63 39 122 42 130 4 8 7 20 9 27 14 68 89 229 128 274 14 17
24 19 69 13 28 -3 69 -10 89 -15z m-349 4 c-7 -2 -13 -18 -13 -34 0 -16 -4
-29 -10 -29 -5 0 -10 -8 -11 -17 0 -15 -2 -15 -9 2 -12 28 -12 37 0 30 6 -3
10 5 10 19 0 23 12 34 35 34 6 0 4 -2 -2 -5z m1087 -38 c0 -14 -4 -25 -10 -25
-5 0 -10 11 -10 25 0 14 5 25 10 25 6 0 10 -11 10 -25z m-1314 -111 c-9 -6
-16 -16 -16 -23 0 -6 -7 -14 -15 -17 -8 -4 -15 -11 -15 -18 0 -17 -35 -35 -49
-26 -10 5 -9 9 3 13 9 4 16 16 16 27 0 12 7 28 15 36 8 9 15 30 15 47 0 18 3
43 7 56 5 21 9 17 30 -30 22 -48 23 -54 9 -65z m709 47 c-3 -6 -11 -11 -17
-11 -6 0 -6 6 2 15 14 17 26 13 15 -4z m79 -31 c22 -56 21 -60 -24 -60 -34 0
-40 3 -40 20 0 25 27 80 39 80 5 0 16 -18 25 -40z m-564 -4 c0 -13 6 -29 14
-35 17 -14 31 -69 21 -79 -3 -3 -10 0 -16 8 -8 13 -11 12 -23 -3 -9 -12 -16
-14 -21 -7 -4 6 -2 17 5 25 8 10 8 24 1 52 -15 51 -14 63 4 63 9 0 15 -9 15
-24z m-560 -112 c24 -76 70 -134 105 -134 8 0 15 -5 15 -11 0 -5 14 -15 30
-20 41 -15 37 -38 -5 -29 -39 7 -108 13 -154 12 -51 -2 -53 -1 -46 21 3 12 7
29 7 37 1 8 6 18 12 23 8 5 6 10 -4 17 -13 9 -13 11 0 20 13 8 12 10 -4 10
-20 0 -20 0 0 15 17 13 17 14 2 15 -20 0 -25 20 -6 20 6 0 5 7 -5 18 -13 14
-14 21 -5 30 9 9 9 12 -2 12 -13 0 -13 2 0 10 29 18 37 10 60 -66z m510 61 c0
-10 -10 -15 -27 -16 -27 0 -27 -1 -5 -9 19 -8 22 -17 22 -59 0 -44 4 -53 30
-73 55 -40 36 -73 -48 -84 l-53 -7 3 67 c1 46 6 66 15 66 7 0 13 5 13 10 0 6
-5 10 -11 10 -7 0 -9 11 -5 30 4 22 2 30 -9 30 -8 0 -15 7 -15 15 0 14 22 20
63 16 9 -1 17 3 17 8 0 6 2 11 5 11 3 0 5 -7 5 -15z m883 -1 c-5 -14 -1 -15
25 -10 16 4 33 3 36 -2 6 -11 -59 -21 -86 -14 -21 5 -24 28 -5 35 25 11 36 7
30 -9z m-1717 -26 c-3 -13 -6 -31 -6 -40 0 -11 -8 -18 -20 -18 -11 0 -20 7
-20 15 0 11 -12 15 -45 15 -49 0 -61 -16 -17 -23 15 -3 1 -3 -31 -1 -91 6
-103 21 -24 29 69 8 84 23 36 36 -14 4 8 7 55 8 77 1 78 0 72 -21z m467 -5
c-7 -2 -19 -2 -25 0 -7 3 -2 5 12 5 14 0 19 -2 13 -5z m727 -13 c0 -22 -7 -25
-29 -11 -16 10 -6 31 15 31 8 0 14 -9 14 -20z m245 11 c-16 -15 -48 -17 -52
-3 -3 8 6 12 28 12 20 0 29 -4 24 -9z m395 -1 c12 -8 11 -10 -7 -10 -12 0 -25
5 -28 10 -8 13 15 13 35 0z m-1318 -22 c-5 -5 -20 -8 -33 -6 l-24 5 25 10 c28
12 47 6 32 -9z m1659 2 c33 0 59 -4 59 -10 0 -11 -80 -13 -129 -4 -17 4 -28
11 -25 16 3 5 13 7 21 4 8 -3 41 -6 74 -6z m-1733 -20 c10 -16 21 -19 57 -16
25 2 49 6 52 10 4 3 13 0 22 -8 23 -19 117 -28 130 -12 6 7 7 17 3 21 -4 5 -2
5 4 2 6 -3 12 -30 13 -59 2 -29 3 -66 4 -83 2 -28 0 -30 -37 -30 -58 0 -57
-22 1 -27 26 -3 52 -1 58 4 16 14 45 9 39 -7 -5 -11 1 -15 23 -15 38 0 44 -7
31 -36 -7 -16 -14 -20 -18 -13 -4 6 -25 11 -46 10 -42 0 -89 14 -114 35 -19
15 -96 23 -92 9 1 -6 10 -11 20 -11 9 -1 21 -2 26 -3 5 -1 3 -7 -3 -15 -10
-12 -8 -13 8 -9 12 3 28 0 36 -7 8 -7 15 -10 15 -6 0 4 14 -1 31 -9 17 -9 29
-19 26 -22 -3 -2 -14 0 -24 5 -10 5 -38 13 -63 17 -25 4 -56 11 -70 17 -28 12
-55 55 -38 60 20 7 -2 43 -34 57 -58 25 -137 90 -138 114 0 4 14 7 31 7 26 0
31 3 26 20 -7 26 5 26 21 0z m-1025 -18 c-2 -14 3 -22 12 -22 8 0 15 7 15 15
0 8 5 15 11 15 20 0 4 -35 -19 -38 -23 -4 -30 -18 -11 -24 7 -2 3 -22 -10 -56
-27 -67 -27 -92 -2 -92 11 0 21 5 23 11 4 11 78 2 78 -10 0 -9 -67 -31 -120
-40 -25 -4 -51 -11 -59 -15 -20 -13 -31 13 -19 43 6 14 14 44 18 66 20 105 32
161 37 168 3 5 15 7 26 5 16 -2 21 -9 20 -26z m2092 18 c3 -5 -1 -10 -9 -10
-9 0 -16 5 -16 10 0 6 4 10 9 10 6 0 13 -4 16 -10z m241 -15 c26 -4 44 -2 49
4 10 17 40 13 65 -9 17 -15 26 -17 37 -9 10 9 13 8 14 -2 1 -8 3 -21 4 -29 1
-8 3 -33 4 -56 0 -22 7 -49 15 -60 12 -16 18 -17 34 -7 17 10 22 9 34 -8 7
-10 27 -21 43 -23 17 -2 43 -9 58 -15 16 -6 43 -11 61 -11 30 0 33 2 28 25 -5
26 3 31 27 16 13 -8 13 -12 1 -26 -11 -13 -11 -18 -1 -24 7 -5 11 -20 9 -34
l-3 -25 -39 19 c-22 10 -65 23 -95 29 -153 27 -220 36 -237 30 -10 -4 -24 -1
-32 7 -7 7 -23 13 -36 13 -19 0 -25 10 -43 71 -17 59 -18 71 -6 76 15 6 95 -2
132 -13 18 -5 23 -4 19 7 -6 18 -45 26 -129 28 -63 1 -67 2 -71 26 -4 18 -2
22 6 16 6 -5 30 -12 52 -16z m339 -5 c3 -5 0 -10 -7 -10 -35 -1 26 -20 77 -24
32 -3 63 -10 69 -16 8 -8 4 -10 -16 -5 -18 5 -28 3 -28 -4 0 -6 6 -11 14 -11
19 0 45 -37 42 -58 -4 -25 -44 -27 -69 -4 -12 11 -33 25 -47 32 -19 9 -16 4
13 -23 38 -35 50 -77 22 -77 -9 0 -33 9 -55 20 -22 11 -48 20 -58 20 -23 0
-77 66 -62 75 6 3 17 -1 26 -10 22 -22 49 -15 48 13 0 17 2 19 13 10 26 -21
25 1 -1 25 -31 29 -34 57 -7 57 11 0 23 -4 26 -10z m-906 -16 c3 2 4 -17 3
-44 l-4 -47 -44 5 c-29 3 -44 1 -44 -7 0 -6 -4 -11 -10 -11 -13 0 -13 57 1 65
5 4 14 18 19 30 8 21 13 23 41 15 17 -5 35 -8 38 -6z m1046 6 c-3 -5 -22 -10
-41 -10 -19 0 -34 5 -34 10 0 6 18 10 41 10 24 0 38 -4 34 -10z m-2234 -46
c-1 -21 -7 -44 -12 -50 -5 -6 -5 -15 -1 -19 4 -5 2 -5 -5 -1 -7 4 -10 13 -7
20 8 21 -15 30 -34 14 -20 -17 -52 -12 -52 7 0 8 -10 17 -22 21 -13 4 -26 12
-30 18 -4 6 -29 16 -55 21 -41 10 -30 11 87 10 l135 -2 -4 -39z m56 24 c-3 -8
-6 -5 -6 6 -1 11 2 17 5 13 3 -3 4 -12 1 -19z m-357 3 c0 -5 29 -15 65 -22 50
-10 72 -20 100 -47 19 -19 38 -32 42 -29 3 4 15 0 27 -8 11 -8 28 -15 38 -15
15 0 16 -3 4 -32 -10 -22 -11 -40 -5 -56 9 -24 8 -25 -27 -19 -20 3 -44 1 -54
-5 -14 -9 -25 -7 -54 10 -21 12 -54 22 -75 22 -21 0 -58 7 -81 15 -23 8 -56
15 -72 15 -16 0 -36 7 -44 15 -8 8 -42 17 -75 21 -73 8 -78 31 -10 48 25 6 46
16 48 23 4 12 -21 12 -33 0 -10 -9 -44 -9 -44 1 1 17 17 27 50 28 19 1 55 7
80 14 25 6 56 14 70 16 13 3 27 7 29 10 8 7 21 4 21 -5z m410 -1 c0 -5 -4 -10
-10 -10 -5 0 -10 5 -10 10 0 6 5 10 10 10 6 0 10 -4 10 -10z m800 -15 c0 -12
-29 -3 -34 10 -4 13 -2 14 14 5 11 -6 20 -13 20 -15z m532 9 c42 -5 62 -3 74
7 14 11 18 10 30 -6 8 -10 14 -36 14 -57 0 -31 -4 -38 -19 -38 -11 0 -21 5
-23 12 -2 6 -32 13 -69 16 -35 2 -68 8 -73 13 -16 14 -46 10 -46 -6 0 -8 -4
-15 -10 -15 -15 0 -12 25 8 60 13 23 22 29 37 25 11 -3 46 -8 77 -11z m-1356
-24 c6 -6 9 -32 6 -59 -6 -62 9 -88 61 -110 23 -10 49 -26 57 -36 13 -15 12
-19 -5 -31 -11 -8 -26 -12 -35 -9 -8 4 -37 9 -64 12 -39 5 -57 14 -83 39 -38
39 -40 44 -13 44 13 0 20 7 20 18 0 10 5 23 12 30 9 9 9 15 0 24 -18 18 -15
49 3 42 11 -5 15 1 15 20 0 27 9 33 26 16z m1964 -30 c0 -5 -4 -10 -10 -10 -5
0 -10 5 -10 10 0 6 5 10 10 10 6 0 10 -4 10 -10z m-543 -52 c6 -5 9 -16 7 -23
-3 -7 4 -19 15 -25 22 -11 23 -11 33 29 3 9 9 5 21 -12 28 -44 26 -49 -26 -49
-38 -1 -51 4 -63 21 -10 13 -26 21 -45 21 -18 0 -28 4 -24 10 4 6 -18 10 -59
10 -37 0 -66 4 -66 10 0 26 175 33 207 8z m-1287 -13 c0 -2 -9 -3 -19 -2 -11
0 -18 5 -15 9 4 6 34 0 34 -7z m30 -5 c0 -5 -2 -10 -4 -10 -3 0 -8 5 -11 10
-3 6 -1 10 4 10 6 0 11 -4 11 -10z m620 -10 c0 -5 -4 -10 -9 -10 -6 0 -13 5
-16 10 -3 6 1 10 9 10 9 0 16 -4 16 -10z m290 2 c0 -18 -26 -32 -62 -32 -41 0
-41 0 -32 24 4 11 19 16 50 16 24 0 44 -4 44 -8z m228 -19 c-10 -2 -28 -2 -40
0 -13 2 -5 4 17 4 22 1 32 -1 23 -4z m84 -43 c18 -14 44 -20 93 -22 l68 -3 15
-45 c8 -25 18 -53 23 -62 12 -23 -3 -23 -67 -1 -32 11 -98 19 -193 22 -97 4
-146 10 -148 18 -2 6 6 13 19 15 19 2 24 10 26 40 3 34 6 38 40 43 20 4 44 8
52 10 34 7 49 4 72 -15z m393 -6 c25 -2 39 -7 37 -15 -2 -9 13 -10 60 -6 35 4
57 4 51 1 -26 -11 -12 -24 26 -24 22 0 42 -4 45 -9 3 -4 20 -11 38 -15 65 -13
118 -38 118 -57 0 -9 -6 -20 -12 -23 -10 -5 -10 -7 0 -12 10 -5 18 -44 9 -44
-2 0 -18 7 -36 16 -41 20 -65 12 -26 -9 17 -9 28 -16 25 -17 -31 -1 -235 31
-243 39 -15 15 -130 14 -144 0 -14 -14 -20 18 -26 124 -4 65 -4 67 17 61 11
-4 39 -9 61 -10z m-595 -4 c0 -5 -5 -10 -11 -10 -5 0 -7 -5 -3 -12 5 -8 2 -9
-9 -5 -9 3 -19 2 -22 -4 -4 -5 -11 -7 -16 -4 -5 4 -9 -1 -9 -10 0 -9 -16 -25
-37 -37 -20 -12 -31 -24 -25 -26 17 -5 15 -22 -3 -22 -8 0 -15 6 -15 14 0 11
-10 13 -40 9 -22 -3 -40 -2 -40 3 0 5 16 26 35 47 27 30 39 36 52 29 11 -6 27
-6 43 1 92 39 100 41 100 27z m-1262 -45 c-3 -3 -9 2 -12 12 -6 14 -5 15 5 6
7 -7 10 -15 7 -18z m1022 -18 c-2 -26 -16 -37 -46 -37 -34 0 -34 0 -19 23 10
16 24 23 40 23 14 -1 25 -5 25 -9z m185 -37 c-3 -5 -11 -10 -16 -10 -6 0 -7 5
-4 10 3 6 11 10 16 10 6 0 7 -4 4 -10z m-125 -46 c0 -13 -3 -14 -14 -5 -7 6
-21 9 -30 5 -9 -3 -16 -1 -16 5 0 6 14 11 30 11 21 0 30 -5 30 -16z m705 -83
c4 -20 14 -31 28 -34 12 -2 5 -5 -17 -6 -30 -1 -37 2 -32 14 3 9 -1 18 -9 21
-22 9 -18 34 4 34 13 0 21 -9 26 -29z m-1068 -77 c-1 -34 -2 -35 -32 -31 -16
3 -38 1 -47 -4 -19 -10 -68 -2 -68 11 0 5 17 11 38 15 21 3 52 15 68 25 40 26
42 25 41 -16z m1178 17 c3 -5 1 -12 -5 -16 -5 -3 -10 1 -10 9 0 18 6 21 15 7z
m-1031 -17 c4 -9 5 -19 2 -21 -6 -6 -46 20 -46 29 0 15 38 8 44 -8z m896 8 c0
-13 -12 -22 -22 -16 -10 6 -1 24 13 24 5 0 9 -4 9 -8z m-1000 -22 c0 -5 -4
-10 -9 -10 -6 0 -13 5 -16 10 -3 6 1 10 9 10 9 0 16 -4 16 -10z m1320 -220 c0
-5 -5 -10 -11 -10 -5 0 -7 5 -4 10 3 6 8 10 11 10 2 0 4 -4 4 -10z m-95 -140
c3 -5 -1 -10 -10 -10 -9 0 -13 5 -10 10 3 6 8 10 10 10 2 0 7 -4 10 -10z m164
6 c-7 -8 -98 -10 -105 -3 -4 4 19 7 51 7 32 0 56 -2 54 -4z m9 -32 c43 -12 21
-22 -48 -21 -65 0 -87 8 -57 20 17 8 78 8 105 1z"/>
<g>
<path d="M2280 3175 c0 -2 10 -10 23 -16 20 -11 21 -11 8 4 -13 16 -31 23 -31
12z"/>
</g>
<g>
<path d="M1260 3290 c-19 -12 -21 -50 -3 -50 8 0 13 8 11 18 -2 9 3 16 10 15
6 -2 12 1 12 6 0 15 -15 20 -30 11z"/>
</g>
<g>
<path d="M1520 3220 c0 -5 5 -10 11 -10 5 0 7 5 4 10 -3 6 -8 10 -11 10 -2 0
-4 -4 -4 -10z"/>
</g>
<g>
<path d="M2206 3093 c-16 -16 -4 -33 25 -33 17 0 28 4 24 10 -9 15 -41 30 -49
23z"/>
</g>
<g>
<path d="M2157 2985 c-8 -20 9 -28 41 -20 26 6 26 7 8 21 -25 18 -42 18 -49
-1z"/>
</g>
<g>
<path d="M2430 2760 c0 -5 4 -10 9 -10 6 0 13 5 16 10 3 6 -1 10 -9 10 -9 0
-16 -4 -16 -10z"/>
</g>
<g>
<path d="M2295 2329 c-4 -17 -7 -47 -7 -67 0 -24 -9 -49 -24 -69 -13 -17 -24
-36 -24 -42 0 -6 -4 -11 -9 -11 -13 0 -81 -141 -81 -166 0 -10 5 -26 10 -34 8
-12 10 -9 10 12 0 28 51 147 73 171 39 41 96 204 81 229 -10 17 -23 7 -29 -23z"/>
</g>
<g>
<path d="M950 2690 c0 -5 5 -10 10 -10 6 0 10 5 10 10 0 6 -4 10 -10 10 -5 0
-10 -4 -10 -10z"/>
</g>
<g>
<path d="M1042 2618 c-17 -17 -15 -28 7 -28 27 0 46 26 25 34 -20 8 -18 8 -32
-6z"/>
</g>
<g>
<path d="M1127 2423 c-15 -15 -6 -43 13 -43 11 0 20 6 20 14 0 17 -24 38 -33
29z"/>
</g>
<g>
<path d="M2465 2171 c-3 -5 -1 -12 5 -16 5 -3 10 1 10 9 0 18 -6 21 -15 7z"/>
</g>
<g>
<path d="M2502 1978 c5 -15 28 -23 28 -10 0 5 -7 13 -16 16 -10 4 -14 1 -12
-6z"/>
</g>
<g>
<path d="M2495 1910 c-3 -5 1 -10 10 -10 9 0 13 5 10 10 -3 6 -8 10 -10 10 -2
0 -7 -4 -10 -10z"/>
</g>
<g>
<path d="M1340 1979 c0 -5 5 -7 10 -4 6 3 10 8 10 11 0 2 -4 4 -10 4 -5 0 -10
-5 -10 -11z"/>
</g>
<g>
<path d="M1020 1900 c0 -5 5 -10 10 -10 6 0 10 5 10 10 0 6 -4 10 -10 10 -5 0
-10 -4 -10 -10z"/>
</g>
<g>
<path d="M904 1589 c-3 -6 -1 -16 5 -22 8 -8 11 -5 11 11 0 24 -5 28 -16 11z"/>
</g>
<g>
<path d="M2000 1821 c0 -6 11 -11 24 -11 13 0 33 -3 43 -6 13 -5 15 -4 8 4
-15 17 -75 27 -75 13z"/>
</g>
<g>
<path d="M2020 1780 c0 -5 6 -10 14 -10 8 0 23 -3 33 -6 16 -5 16 -4 -1 10
-22 18 -46 21 -46 6z"/>
</g>
<g>
<path d="M2035 1730 c3 -5 13 -10 21 -10 8 0 12 5 9 10 -3 6 -13 10 -21 10 -8
0 -12 -4 -9 -10z"/>
</g>
<g>
<path d="M2218 1693 c-10 -2 -18 -9 -18 -14 0 -11 -3 -12 45 6 30 11 34 14 15
13 -14 0 -33 -2 -42 -5z"/>
</g>
<g>
<path d="M2241 1554 c-19 -8 -31 -17 -28 -20 6 -7 77 23 77 31 0 8 -13 5 -49
-11z"/>
</g>
<g>
<path d="M1331 1248 c-34 -12 -16 -26 43 -34 37 -5 48 -4 45 5 -7 21 -62 39
-88 29z"/>
</g>
<g>
<path d="M2565 1199 c-4 -5 2 -9 12 -9 10 0 29 -3 43 -6 18 -5 22 -4 15 4 -14
15 -63 23 -70 11z"/>
</g>
<g>
<path d="M355 1224 c-10 -8 -34 -14 -53 -14 -22 0 -31 -4 -26 -11 9 -15 92 -5
111 14 21 20 -6 30 -32 11z"/>
</g>
<g>
<path d="M2520 1005 c0 -11 11 -15 40 -15 48 0 53 15 9 24 -45 9 -49 8 -49 -9z"/>
</g>
<g>
<path d="M2725 950 c3 -5 19 -10 34 -10 15 0 51 -11 80 -26 29 -14 58 -23 64
-21 19 7 -119 67 -153 67 -18 0 -29 -4 -25 -10z"/>
</g>
<g>
<path d="M2830 880 c0 -5 7 -10 15 -10 8 0 15 5 15 10 0 6 -7 10 -15 10 -8 0
-15 -4 -15 -10z"/>
</g>
</g>
<g>
<path d="M307 4632 c3 -14 11 -18 24 -15 13 4 19 0 19 -11 0 -10 -6 -13 -15
-10 -20 8 -19 2 6 -27 l21 -24 -23 -5 c-28 -7 -34 -23 -15 -39 10 -9 20 -9 40
0 35 16 45 4 18 -21 -21 -20 -29 -40 -16 -40 4 0 13 8 20 18 13 16 13 16 14
-2 0 -15 3 -16 15 -6 13 10 13 16 0 39 -12 25 -12 30 2 44 13 13 14 19 3 31
-15 19 -36 21 -43 4 -3 -7 -6 1 -6 18 -1 33 -13 47 -48 58 -18 6 -20 3 -16
-12z m53 -110 c0 -13 -12 -22 -22 -16 -10 6 -1 24 13 24 5 0 9 -4 9 -8z"/>
</g>
<g>
<path d="M1560 3409 c0 -5 5 -7 10 -4 6 3 10 8 10 11 0 2 -4 4 -10 4 -5 0 -10
-5 -10 -11z"/>
</g>
<g>
<path d="M365 2630 c-9 -15 4 -67 21 -81 20 -16 28 -5 15 19 -6 12 -11 30 -11
41 0 23 -16 36 -25 21z"/>
</g>
<g>
<path d="M2898 1363 c12 -2 32 -2 45 0 12 2 2 4 -23 4 -25 0 -35 -2 -22 -4z"/>
</g>
<g>
<path d="M1180 1025 c0 -3 16 -11 35 -19 19 -8 35 -22 35 -30 0 -16 12 -21 23
-10 12 12 -13 42 -44 53 -35 12 -49 14 -49 6z"/>
</g>
<g>
<path d="M277 980 c-4 -17 3 -24 36 -40 53 -23 123 -35 131 -21 4 6 -9 13 -31
16 -54 9 -83 25 -83 47 0 26 -46 25 -53 -2z"/>
</g>
<g>
<path d="M49 966 c16 -19 44 -21 39 -3 -3 6 -15 14 -28 15 -21 3 -22 2 -11
-12z"/>
</g>
<g>
<path d="M482 968 c10 -29 305 -86 376 -73 50 9 42 35 -12 35 -25 0 -48 5 -51
10 -4 6 -38 8 -84 5 -62 -3 -91 0 -135 15 -64 23 -100 26 -94 8z"/>
</g>
<g>
<path d="M1144 969 c-3 -6 -1 -15 6 -19 11 -7 -22 -11 -190 -23 -19 -1 -33 -6
-30 -12 3 -6 57 -9 138 -8 72 1 132 -2 132 -7 0 -14 64 -42 68 -30 2 5 14 7
27 4 12 -3 26 -1 29 5 4 6 38 11 77 11 38 0 69 4 69 9 0 11 -47 22 -75 17 -11
-2 -30 0 -42 5 -12 5 -25 4 -28 0 -5 -9 -63 16 -90 39 -8 7 -21 10 -30 7 -8
-4 -17 -2 -20 3 -8 13 -32 13 -41 -1z m88 -57 c-25 -4 -60 24 -39 31 6 2 23
-3 37 -12 l24 -16 -22 -3z"/>
</g>
<g>
<path d="M1320 963 c0 -6 30 -13 66 -16 36 -2 71 -10 77 -16 16 -16 47 -14 47
3 0 8 -3 17 -7 19 -17 11 -183 19 -183 10z"/>
</g>
<g>
<path d="M18 943 c-25 -6 -22 -21 4 -25 31 -4 33 -25 3 -32 -43 -11 -23 -66
24 -66 26 0 27 9 4 26 -17 13 -17 13 -1 14 10 0 34 -9 55 -19 34 -18 65 -20
291 -23 193 -3 252 -1 252 9 0 6 12 11 29 11 15 -1 33 2 39 5 5 4 12 1 15 -6
4 -10 44 -16 152 -21 162 -7 214 -21 255 -68 14 -15 29 -28 33 -28 16 0 5 28
-20 51 -52 46 -100 61 -223 66 -63 3 -135 10 -160 17 -27 7 -106 11 -200 11
-85 -1 -165 2 -177 6 -26 9 -56 2 -47 -12 7 -11 -1 -12 -110 -9 -68 2 -99 7
-129 23 -22 11 -35 23 -28 25 6 2 22 -3 35 -12 32 -20 180 -33 174 -14 -3 7
-18 14 -34 16 -42 5 -87 9 -102 11 -9 1 -11 8 -7 21 5 15 2 20 -13 20 -11 0
-22 -6 -25 -12 -3 -10 -10 -10 -33 2 -36 18 -35 17 -56 13z m395 -100 c-7 -2
-19 -2 -25 0 -7 3 -2 5 12 5 14 0 19 -2 13 -5z"/>
</g>
<g>
<path d="M1360 850 c0 -5 9 -10 19 -10 11 0 23 5 26 10 4 6 -5 10 -19 10 -14
0 -26 -4 -26 -10z"/>
</g>
<g>
<path d="M1886 851 c-8 -12 29 -21 87 -21 71 0 54 21 -20 26 -34 2 -64 0 -67
-5z"/>
</g>
<g>
<path d="M2060 820 c0 -5 9 -10 19 -10 11 0 26 -3 35 -6 11 -4 16 -1 16 10 0
12 -10 16 -35 16 -19 0 -35 -4 -35 -10z"/>
</g>
<g>
<path d="M2180 800 c0 -5 7 -10 15 -10 8 0 15 5 15 10 0 6 -7 10 -15 10 -8 0
-15 -4 -15 -10z"/>
</g>
<g>
<path d="M715 790 c-3 -5 0 -10 7 -10 7 0 24 -3 38 -6 24 -5 24 -5 6 10 -23
18 -42 20 -51 6z"/>
</g>
<g>
<path d="M1097 736 c32 -39 43 -44 43 -18 0 23 -30 52 -54 52 -15 0 -13 -6 11
-34z"/>
</g>
<g>
<path d="M2290 763 c0 -14 48 -54 54 -45 7 13 -22 52 -40 52 -8 0 -14 -3 -14
-7z"/>
</g>
<g>
<path d="M33 724 c-42 -21 -41 -30 5 -44 20 -7 41 -16 46 -21 6 -5 24 -9 40
-9 17 0 38 -5 46 -11 11 -7 -4 -9 -52 -4 -78 8 -95 -9 -20 -19 68 -10 106 -7
117 8 7 10 49 16 138 21 115 7 127 6 121 -9 -5 -14 10 -16 152 -15 88 0 177 4
199 8 27 6 -18 9 -142 10 -115 1 -183 5 -183 11 0 6 7 10 15 10 8 0 15 3 15 8
0 4 -89 7 -197 7 -143 0 -210 4 -243 14 -28 9 -38 16 -27 18 9 3 17 11 17 19
0 18 -7 17 -47 -2z"/>
</g>
<g>
<path d="M1062 724 c1 -9 9 -19 16 -22 9 -3 13 2 10 14 -1 9 -9 19 -16 22 -9
3 -13 -2 -10 -14z"/>
</g>
<g>
<path d="M2370 730 c0 -5 5 -10 10 -10 6 0 10 5 10 10 0 6 -4 10 -10 10 -5 0
-10 -4 -10 -10z"/>
</g>
<g>
<path d="M812 709 c10 -5 39 -11 65 -13 27 -2 38 -2 26 1 -13 2 -23 9 -23 14
0 5 -19 9 -42 9 -34 -1 -39 -3 -26 -11z"/>
</g>
<g>
<path d="M1640 671 c0 -4 25 -11 55 -14 58 -6 97 -28 114 -64 13 -28 31 -30
31 -3 0 31 18 24 41 -15 36 -61 55 -35 21 28 -14 28 -21 32 -42 26 -17 -4 -32
0 -47 13 -33 30 -173 54 -173 29z"/>
</g>
<g>
<path d="M2707 633 c-6 -9 163 -47 171 -38 12 11 -14 23 -65 29 -31 4 -67 9
-79 12 -12 3 -24 2 -27 -3z"/>
</g>
<g>
<path d="M260 610 c0 -5 7 -10 15 -10 8 0 15 5 15 10 0 6 -7 10 -15 10 -8 0
-15 -4 -15 -10z"/>
</g>
<g>
<path d="M1930 612 c0 -11 28 -36 57 -51 12 -6 46 -13 75 -16 29 -3 68 -10 86
-16 18 -6 36 -9 39 -6 10 11 -39 28 -108 36 -55 7 -77 15 -98 35 -27 26 -51
34 -51 18z"/>
</g>
<g>
<path d="M830 600 c0 -5 23 -10 51 -10 31 0 48 4 44 10 -3 6 -26 10 -51 10
-24 0 -44 -4 -44 -10z"/>
</g>
<g>
<path d="M1760 587 c0 -17 38 -53 46 -44 7 7 -25 57 -37 57 -5 0 -9 -6 -9 -13z"/>
</g>
<g>
<path d="M2070 582 c21 -13 109 -21 116 -11 3 5 -3 9 -14 9 -11 0 -41 3 -68 6
-32 3 -44 2 -34 -4z"/>
</g>
<g>
<path d="M2280 541 c0 -24 16 -35 53 -37 33 -2 36 19 5 40 -31 22 -58 20 -58
-3z"/>
</g>
<g>
<path d="M1710 530 c0 -5 5 -10 10 -10 6 0 10 5 10 10 0 6 -4 10 -10 10 -5 0
-10 -4 -10 -10z"/>
</g>
<g>
<path d="M2780 270 c0 -5 7 -10 15 -10 8 0 15 5 15 10 0 6 -7 10 -15 10 -8 0
-15 -4 -15 -10z"/>
</g>
</g>
</svg>
