<?xml version="1.0" standalone="no"?>
<!DOCTYPE svg PUBLIC "-//W3C//DTD SVG 20010904//EN"
 "http://www.w3.org/TR/2001/REC-SVG-20010904/DTD/svg10.dtd">
<svg version="1.0" xmlns="http://www.w3.org/2000/svg"
 width="300.000000pt" height="527.000000pt" viewBox="0 0 300.000000 527.000000"
 preserveAspectRatio="xMidYMid meet">
<metadata>
Created by potrace 1.15, written by Peter Selinger 2001-2017
</metadata>
<g transform="translate(0.000000,527.000000) scale(0.100000,-0.100000)"
fill="#000000" stroke="none">
<g>
<path d="M4 5261 c-2 -2 -4 -1187 -4 -2633 0 -2403 1 -2628 16 -2628 14 0 16
16 13 133 -2 72 -3 270 -1 440 l2 307 165 0 165 0 12 -45 c7 -25 16 -45 20
-45 4 0 10 -17 14 -38 4 -20 12 -44 19 -52 7 -8 16 -36 20 -61 l7 -47 -39 -12
c-87 -28 -77 -51 32 -71 41 -7 75 -15 75 -18 0 -4 -14 -14 -31 -23 -30 -18
-32 -17 -111 14 -54 21 -85 40 -96 57 -24 40 -43 51 -82 51 -50 0 -104 -37
-108 -74 -4 -32 30 -76 59 -76 16 0 107 -67 108 -80 1 -3 -24 -18 -54 -34 -30
-15 -57 -31 -60 -37 -3 -5 25 6 62 25 37 19 99 48 136 66 37 18 70 37 73 41 3
5 11 9 19 9 7 0 53 23 101 50 60 35 90 48 97 41 6 -6 9 -13 6 -15 -16 -15
-524 -264 -531 -260 -5 3 -3 13 4 22 12 14 10 14 -9 3 -28 -15 -29 -35 -3 -61
21 -21 60 -27 60 -10 0 6 6 10 13 10 6 0 43 16 81 34 55 27 75 32 94 25 13 -5
34 -9 46 -9 13 0 65 -23 117 -51 52 -29 147 -80 212 -115 65 -35 128 -70 140
-79 22 -16 78 -22 61 -6 -5 4 -58 34 -119 66 -60 31 -157 81 -214 111 -57 30
-115 63 -130 73 -22 17 -24 20 -9 26 10 4 40 -6 75 -26 32 -17 105 -57 163
-89 58 -31 130 -70 160 -87 133 -72 159 -85 171 -81 8 3 1 11 -16 19 -17 9
-120 66 -230 129 -110 62 -209 118 -220 125 -40 22 -65 40 -65 47 0 23 63 -4
273 -118 127 -70 257 -140 287 -156 30 -16 59 -34 64 -39 6 -5 21 -9 35 -9 33
0 21 10 -59 52 -36 19 -101 55 -145 80 -44 25 -120 66 -170 93 -165 88 -222
124 -228 144 -5 21 -5 21 95 73 55 29 64 43 44 73 -25 38 -43 41 -93 16 -24
-12 -42 -17 -39 -12 4 5 2 12 -4 16 -5 3 -10 17 -10 29 0 19 10 27 52 43 61
23 68 44 20 58 l-32 9 2 99 3 99 208 5 c114 3 232 2 262 -2 l55 -6 0 -58 c0
-57 1 -59 31 -65 40 -8 103 -8 123 0 25 10 19 32 -14 49 -23 12 -30 22 -30 45
l0 29 170 3 c194 3 178 13 160 -96 -8 -52 -7 -63 10 -91 37 -59 29 -72 -47
-80 -38 -4 -97 -9 -133 -10 l-65 -2 -62 64 c-66 67 -84 73 -133 48 -41 -21
-39 -52 10 -107 l39 -45 -80 -11 c-60 -9 -91 -9 -123 0 -38 10 -47 9 -77 -8
-29 -17 -34 -26 -37 -64 -3 -36 1 -47 20 -62 27 -21 86 -23 113 -4 13 8 64 16
137 20 65 4 125 9 134 13 15 5 80 -56 132 -124 13 -18 27 -23 59 -23 24 0 43
-2 43 -5 0 -3 -10 -17 -22 -30 -16 -17 -45 -28 -99 -39 -78 -16 -162 -47 -173
-64 -3 -5 1 -18 9 -28 13 -18 28 -19 275 -17 l261 2 10 -26 c6 -15 11 -40 12
-55 1 -19 7 -28 20 -28 9 0 17 3 17 6 0 3 -32 134 -70 292 -39 158 -78 316
-86 352 -9 36 -22 88 -29 115 -8 28 -37 144 -65 260 -28 116 -65 263 -81 327
-34 138 -33 128 -14 128 8 0 17 -12 21 -27 3 -16 21 -77 39 -138 18 -60 56
-207 84 -325 29 -118 74 -307 101 -420 27 -113 63 -266 80 -340 17 -74 35
-156 41 -182 10 -46 21 -58 33 -39 3 4 -12 80 -34 167 -21 87 -64 265 -95 394
-31 129 -60 251 -65 270 -6 19 -24 96 -41 170 -17 74 -43 178 -57 230 -13 52
-33 127 -43 165 -22 84 -23 105 -5 105 15 0 17 -6 87 -300 28 -118 75 -314
104 -435 30 -121 65 -272 79 -335 14 -63 38 -164 52 -225 14 -60 31 -134 36
-163 6 -33 15 -52 24 -52 18 0 19 -11 -20 153 -19 78 -38 158 -42 177 -10 41
-6 161 6 173 8 10 67 19 330 52 107 14 209 26 225 29 29 4 31 2 55 -73 20 -60
25 -98 26 -181 1 -137 -1 -128 39 -151 19 -12 38 -32 41 -45 9 -34 80 -92 128
-105 21 -6 80 -11 129 -11 116 0 119 3 81 107 -12 34 -25 47 -79 79 -37 21
-73 52 -85 71 -26 42 -58 168 -61 239 -3 80 14 101 94 115 35 6 75 11 90 11
14 0 28 4 31 8 2 4 -31 3 -74 -2 -77 -8 -110 -5 -110 12 0 10 246 35 260 27
12 -7 14 -142 3 -148 -5 -3 -43 -8 -85 -12 -55 -5 -78 -4 -78 4 0 6 19 12 43
13 l42 1 -44 6 c-62 8 -65 29 -4 33 35 2 48 7 48 18 0 11 -13 16 -45 18 -33 2
-41 0 -30 -7 11 -8 8 -10 -15 -8 -26 2 -30 -2 -33 -25 -3 -22 -9 -27 -35 -30
-47 -4 -49 -35 -3 -44 46 -8 46 -20 0 -28 -43 -9 -44 -39 -1 -44 33 -4 34 -9
5 -31 -13 -11 -19 -24 -15 -34 9 -23 27 -21 27 3 0 11 4 20 10 20 5 0 10 -28
12 -62 2 -38 8 -63 16 -66 9 -3 12 14 12 62 l0 66 90 0 90 0 0 -195 c0 -149 3
-195 13 -195 9 0 12 388 10 1912 -2 1052 -5 2238 -9 2636 l-6 722 -27 0 c-15
0 -21 -3 -14 -8 7 -4 12 -39 14 -86 l2 -78 -55 -31 c-54 -30 -57 -30 -89 -15
-37 19 -48 16 -109 -28 -51 -37 -128 -70 -138 -60 -3 4 -1 15 5 26 17 27 -5
44 -40 31 -17 -7 -28 -7 -32 -1 -14 23 -53 5 -146 -67 -118 -92 -109 -86 -179
-118 -30 -14 -62 -30 -70 -35 -58 -37 -123 -69 -130 -65 -18 11 -4 55 29 92
19 21 36 44 37 51 1 6 14 26 28 42 l25 30 -25 25 -25 26 73 72 c68 66 120 148
105 163 -3 3 -23 0 -44 -7 -21 -7 -48 -14 -60 -15 -12 -1 -42 -16 -65 -32 -24
-16 -70 -44 -103 -62 -33 -18 -73 -43 -90 -55 -16 -12 -61 -39 -100 -59 -38
-21 -87 -51 -108 -68 -26 -21 -42 -27 -50 -20 -11 9 -52 15 -88 13 -9 -1 -30
-14 -47 -31 -18 -16 -37 -30 -44 -30 -20 -1 -58 -37 -58 -55 0 -13 6 -16 25
-11 60 15 5 -30 -115 -93 -36 -19 -91 -51 -123 -73 -74 -48 -97 -50 -62 -5 16
22 9 47 -13 47 -13 0 -13 2 1 18 23 26 21 44 -9 66 -26 18 -61 18 -109 0 -20
-7 -20 -7 -1 15 25 28 11 43 -32 35 -29 -6 -49 -21 -103 -81 -10 -10 -33 -29
-53 -43 -30 -21 -35 -29 -30 -52 4 -19 0 -30 -14 -40 -25 -17 -33 -54 -12 -52
8 1 22 5 31 9 14 5 16 1 10 -26 -5 -26 -20 -42 -69 -75 -53 -37 -67 -42 -97
-37 -29 5 -41 1 -63 -19 -34 -31 -103 -78 -116 -78 -6 0 7 18 28 39 21 22 35
44 32 50 -4 6 0 22 9 35 32 49 -1 54 -91 15 -22 -10 -49 -28 -60 -40 -10 -11
-36 -30 -56 -40 -20 -10 -63 -40 -95 -66 -113 -92 -157 -116 -131 -72 10 17
10 23 1 26 -10 4 -13 111 -13 489 l0 484 647 0 c420 0 644 3 637 10 -9 9
-1301 20 -1310 11z m2170 -90 c-8 -16 -30 -41 -49 -55 -18 -14 -36 -34 -39
-44 -3 -10 -20 -26 -37 -36 -27 -16 -29 -21 -23 -49 3 -18 11 -35 17 -39 6 -4
0 -18 -16 -38 -15 -17 -27 -37 -27 -44 0 -6 -17 -29 -39 -50 -32 -31 -38 -44
-38 -77 0 -25 4 -39 13 -39 14 0 150 66 174 85 8 6 44 24 80 40 36 15 85 44
110 64 99 81 134 102 143 86 7 -13 12 -13 38 1 35 18 37 17 42 -17 5 -28 30
-36 66 -19 68 32 108 54 126 70 31 27 48 29 72 7 l23 -20 60 30 61 30 12 -21
c12 -22 21 -983 23 -2637 l1 -755 -38 -22 -38 -22 -66 49 c-100 75 -133 126
-179 277 -15 49 -34 104 -42 122 -20 47 -18 64 9 62 50 -5 67 2 111 45 26 25
53 45 59 46 7 1 21 2 31 3 11 0 34 20 50 44 26 37 31 54 34 119 5 95 -12 180
-55 267 -18 38 -30 72 -27 75 4 3 9 0 11 -6 7 -20 20 -15 26 9 4 14 -4 36 -23
65 -17 24 -30 53 -30 65 0 18 -19 46 -74 110 -21 24 -46 74 -46 92 0 21 -163
186 -186 187 -10 1 -25 1 -31 0 -18 -3 -16 19 13 154 14 66 29 143 34 170 5
28 32 156 60 285 88 407 83 371 65 413 -18 43 -25 45 -51 15 -23 -27 -34 -59
-65 -192 -13 -55 -25 -94 -27 -88 -4 13 23 198 42 292 12 57 12 67 -1 82 -21
24 -42 12 -41 -25 2 -80 -133 -709 -149 -694 -2 2 8 55 22 118 14 63 30 139
35 169 6 30 17 84 25 120 52 240 61 295 46 286 -5 -4 -12 -25 -16 -49 -26
-167 -114 -571 -150 -691 -8 -26 -15 -54 -15 -61 0 -16 -65 -39 -87 -31 -8 4
-22 1 -29 -5 -11 -9 -14 -9 -14 0 0 8 -8 10 -22 5 -20 -6 -21 -5 -9 10 8 9 12
18 9 21 -7 7 -48 -7 -48 -16 0 -5 -7 -9 -15 -9 -8 0 -15 4 -15 8 0 11 47 52
60 52 14 0 13 17 -2 26 -6 4 -17 -1 -24 -11 -7 -10 -24 -23 -36 -29 -18 -9
-24 -21 -26 -59 -5 -75 27 -113 56 -66 7 12 16 18 19 15 3 -3 0 -13 -7 -21
-11 -13 -10 -27 9 -83 13 -37 34 -77 47 -89 13 -12 24 -28 24 -35 0 -28 -61
-87 -99 -98 -47 -12 -58 -25 -63 -70 -4 -40 -21 -47 -26 -10 -2 14 -8 30 -13
36 -4 5 -6 20 -2 32 4 17 0 24 -20 31 -14 6 -26 20 -29 34 -5 27 22 93 52 125
22 23 26 47 10 57 -6 3 -10 -5 -10 -18 0 -28 -26 -48 -133 -104 -33 -18 -61
-10 -53 14 3 10 2 24 -3 32 -11 18 -3 41 14 41 19 0 29 20 16 33 -7 7 -12 6
-17 -6 -10 -27 -41 -20 -50 11 -5 20 -8 23 -11 10 -3 -10 -11 -18 -19 -18 -11
0 -13 6 -8 23 16 53 25 68 34 62 5 -3 10 -2 10 3 0 5 9 12 20 15 11 3 20 10
20 16 0 7 -9 9 -23 6 -30 -8 -55 26 -59 81 -2 31 0 38 13 36 11 -1 18 7 22 28
7 32 27 41 28 13 0 -15 3 -14 16 5 19 27 33 29 26 2 -7 -27 11 -25 30 3 18 27
33 17 18 -11 -25 -47 0 -90 34 -62 8 7 30 20 48 30 37 20 46 53 21 81 -16 18
-16 19 2 19 11 0 25 -5 32 -12 8 -8 15 -8 26 2 13 10 17 8 26 -15 5 -14 14
-23 20 -20 5 3 10 1 10 -5 0 -6 7 -18 15 -27 14 -13 18 -12 36 9 l20 23 -6
-22 c-5 -19 -2 -23 16 -23 16 0 19 -3 12 -12 -6 -7 -9 -21 -8 -30 2 -10 -1
-20 -6 -24 -30 -18 24 -34 65 -18 20 8 21 44 2 44 -8 0 -17 7 -20 16 -3 8 -2
13 3 9 12 -7 41 5 41 16 0 5 -12 7 -27 4 -27 -6 -27 -6 -9 9 11 9 24 16 29 16
4 0 5 5 2 10 -5 8 -11 7 -20 0 -18 -15 -36 -4 -28 17 5 12 2 15 -9 10 -26 -10
-29 4 -7 35 23 31 19 49 -6 28 -12 -10 -15 -10 -15 4 0 10 -5 14 -10 11 -16
-10 -70 -15 -70 -7 0 5 6 14 13 21 10 11 6 13 -22 7 -19 -3 -39 -1 -47 5 -12
10 -100 -9 -144 -31 -29 -14 -23 -37 11 -38 38 -1 44 -6 31 -28 -5 -10 -12
-12 -16 -6 -3 6 -23 8 -47 5 l-41 -6 17 27 c16 24 14 31 -9 27 -5 -1 -12 3
-16 9 -10 17 -50 -10 -50 -32 0 -11 -8 -18 -19 -18 -11 0 -22 -6 -24 -12 -4
-10 -8 -10 -15 1 -9 12 -13 12 -26 2 -21 -17 -21 -84 -1 -101 8 -7 15 -29 15
-50 0 -21 6 -50 14 -65 13 -25 13 -33 -4 -77 -17 -46 -17 -49 0 -58 9 -5 20
-7 22 -4 9 8 25 -19 31 -51 4 -25 0 -33 -25 -50 -37 -24 -84 -105 -94 -160 -3
-22 -17 -64 -30 -94 -13 -29 -24 -59 -24 -67 0 -7 -6 -19 -12 -26 -35 -37 -53
-93 -54 -167 0 -44 -7 -96 -17 -124 -19 -53 -22 -113 -7 -122 17 -11 11 -50
-11 -69 -12 -10 -63 -40 -113 -66 -139 -72 -188 -100 -227 -131 -20 -16 -42
-29 -48 -29 -6 0 -11 -4 -11 -10 0 -11 -104 -90 -119 -90 -14 0 -3 30 21 56
32 36 -12 47 -67 18 -16 -9 -57 -30 -90 -47 -33 -16 -118 -73 -188 -124 -71
-52 -131 -92 -134 -89 -4 3 1 14 10 24 50 55 -9 140 -93 133 -38 -3 -100 -44
-100 -66 0 -7 -21 -27 -46 -43 -36 -25 -52 -29 -80 -25 -26 4 -42 1 -62 -14
-15 -11 -37 -25 -50 -32 -22 -12 -23 -11 -13 7 5 10 31 42 56 70 26 29 44 52
40 52 -4 0 9 18 29 40 20 22 36 42 36 44 0 3 -24 4 -54 2 -46 -2 -61 -8 -107
-45 -62 -49 -67 -45 -65 49 4 186 3 183 42 210 20 14 71 53 115 87 43 34 93
70 111 79 18 9 47 28 65 41 18 14 37 22 42 19 6 -4 27 3 48 14 38 20 93 27 93
12 0 -5 -11 -19 -25 -32 -14 -13 -25 -31 -25 -39 0 -9 -9 -22 -19 -28 -13 -8
-18 -19 -14 -34 5 -17 11 -20 35 -15 15 3 45 17 66 31 36 25 37 25 40 5 4 -21
35 -44 46 -33 3 3 6 1 6 -5 0 -39 110 15 233 113 96 78 128 116 63 76 -37 -23
-56 -27 -56 -10 0 20 123 104 295 201 81 46 201 128 280 192 26 21 28 26 16
40 -13 15 -8 23 37 69 55 56 61 67 37 67 -19 0 -19 9 1 31 45 50 -37 29 -95
-24 -37 -34 -142 -107 -154 -107 -6 0 -3 8 6 18 10 10 17 22 17 26 0 4 10 22
22 39 15 21 18 32 10 35 -7 2 -12 10 -12 18 0 16 -36 19 -45 4 -3 -5 0 -10 7
-10 7 0 18 -8 25 -18 9 -16 7 -22 -13 -37 -13 -10 -24 -26 -24 -35 0 -10 -7
-23 -15 -30 -13 -11 -13 -15 -3 -21 24 -16 37 -9 144 71 58 44 108 80 111 80
2 0 -3 -10 -11 -22 -14 -19 -14 -23 1 -33 14 -10 11 -15 -24 -40 -43 -31 -70
-80 -49 -89 6 -3 1 -12 -14 -23 -13 -10 -51 -38 -83 -63 -33 -25 -80 -57 -106
-71 -221 -122 -238 -133 -331 -208 -55 -45 -85 -85 -74 -102 3 -6 0 -17 -8
-26 -20 -25 -120 -87 -138 -85 -8 1 -25 2 -37 2 -17 0 -21 6 -20 28 3 39 -28
40 -83 3 -45 -31 -70 -39 -70 -22 0 5 7 11 15 15 8 3 15 13 15 22 0 9 11 29
25 46 29 34 32 53 9 62 -28 11 -56 6 -90 -15 -19 -11 -40 -19 -47 -16 -13 5
-82 -27 -92 -43 -3 -6 -25 -20 -48 -31 -23 -12 -62 -40 -87 -63 -25 -23 -71
-61 -102 -84 l-58 -43 0 150 0 149 48 31 c27 17 59 42 72 56 13 14 34 25 47
25 13 0 37 10 53 22 24 17 32 19 44 9 12 -10 25 -6 69 22 29 19 70 49 91 67
20 18 40 30 43 26 4 -3 17 4 30 16 l23 21 0 -26 c0 -22 5 -27 24 -27 14 0 36
4 49 9 25 10 77 56 77 69 0 8 119 132 127 132 3 0 18 11 35 25 16 14 39 25 51
25 12 1 40 7 62 15 25 9 43 11 50 5 7 -6 15 -7 18 -3 16 15 5 -27 -12 -49 -37
-46 -27 -122 10 -86 73 68 195 171 219 183 17 9 30 20 30 26 0 12 -18 2 -90
-50 -30 -23 -72 -52 -92 -66 -21 -14 -44 -34 -50 -45 -16 -26 -28 -26 -28 0 0
11 4 20 8 20 5 0 16 16 26 37 23 47 12 54 -81 49 -102 -6 -170 -51 -276 -184
-42 -53 -103 -100 -114 -88 -4 3 -1 12 5 18 37 37 -17 53 -61 18 -14 -11 -34
-20 -45 -20 -12 0 -24 -5 -28 -11 -3 -6 -33 -31 -66 -55 -44 -32 -64 -41 -76
-35 -16 9 -79 -14 -93 -33 -4 -5 -17 -6 -30 -3 -19 4 -34 -4 -69 -38 -47 -46
-59 -51 -40 -15 17 31 -3 50 -28 27 -10 -9 -21 -17 -24 -17 -2 0 -4 86 -4 191
1 158 4 193 16 202 9 7 38 36 64 65 36 38 46 56 38 64 -18 18 14 56 179 211
21 19 25 37 9 37 -25 0 -21 33 6 61 28 30 29 31 10 45 -11 8 -28 12 -38 8 -10
-3 -18 -3 -18 0 0 19 107 148 234 282 54 57 88 85 110 90 33 7 109 57 100 66
-3 4 -24 -5 -47 -18 -23 -13 -50 -24 -59 -24 -22 0 -169 -139 -206 -196 -17
-24 -43 -54 -58 -66 -38 -30 -126 -170 -114 -182 5 -5 19 -3 34 7 31 21 48 2
17 -19 -15 -11 -19 -22 -15 -39 3 -12 1 -26 -5 -29 -5 -4 -8 -12 -6 -19 3 -7
-31 -43 -74 -82 -75 -66 -100 -104 -98 -147 0 -15 -60 -95 -73 -97 -3 -1 -5
245 -4 546 l1 548 78 53 c43 29 83 59 89 66 15 19 140 103 164 110 11 4 27 15
37 26 10 11 26 20 37 20 21 0 24 -15 4 -23 -7 -3 -16 -19 -19 -35 -3 -17 -15
-39 -25 -49 -23 -22 -36 -69 -22 -78 6 -4 32 9 59 28 26 19 57 38 68 41 12 4
26 13 33 21 7 9 22 12 38 9 21 -4 41 4 87 36 33 23 78 53 101 67 34 22 40 31
41 62 1 20 -5 43 -13 53 -11 11 -12 18 -4 23 8 5 8 10 0 20 -9 11 2 27 48 73
60 58 60 58 71 35 10 -23 12 -23 40 -8 37 18 92 20 88 3 -1 -7 6 -12 16 -10
21 4 22 -11 2 -28 -19 -16 -20 -50 -1 -50 11 0 10 -8 -5 -40 -10 -21 -19 -42
-19 -45 0 -15 52 -1 93 25 26 16 77 46 114 66 38 20 77 44 89 55 11 10 24 19
28 19 15 0 116 84 113 94 -2 6 -14 13 -28 16 -23 6 -23 7 11 25 19 10 39 24
43 31 11 19 52 18 68 -2 17 -21 62 -12 97 21 15 14 50 37 77 51 28 14 59 34
71 45 11 10 23 19 27 19 4 0 31 15 60 34 161 103 216 128 289 135 15 1 15 -2
2 -28z m404 -1033 c-15 -68 -44 -188 -63 -268 -19 -80 -46 -197 -60 -260 -14
-63 -34 -151 -45 -195 -10 -44 -26 -116 -34 -160 -8 -44 -31 -150 -51 -235
-43 -186 -97 -426 -121 -533 -15 -69 -20 -78 -38 -75 -12 2 -20 6 -19 11 0 4
17 74 37 155 19 81 47 197 61 257 14 61 30 128 35 150 5 22 16 69 24 105 27
116 76 320 126 525 27 110 68 279 91 375 55 233 69 281 78 275 5 -2 -5 -60
-21 -127z m-101 -50 c-3 -8 -6 -5 -6 6 -1 11 2 17 5 13 3 -3 4 -12 1 -19z
m-13 -77 c-4 -17 -9 -30 -11 -27 -3 2 -2 19 2 36 9 41 17 33 9 -9z m23 -73
c-3 -8 -6 -5 -6 6 -1 11 2 17 5 13 3 -3 4 -12 1 -19z m-40 -20 c-3 -7 -5 -2
-5 12 0 14 2 19 5 13 2 -7 2 -19 0 -25z m-7 -48 c0 -11 -4 -20 -9 -20 -5 0 -7
9 -4 20 3 11 7 20 9 20 2 0 4 -9 4 -20z m85 -110 l-15 -45 6 50 c3 28 8 59 12
70 6 18 7 18 10 -5 1 -14 -4 -45 -13 -70z m-106 0 c-5 -41 -16 -104 -24 -140
-8 -36 -21 -99 -30 -140 -21 -112 -54 -261 -65 -295 -5 -16 -18 -75 -30 -130
-12 -55 -28 -122 -36 -150 l-14 -50 6 60 c3 33 12 74 19 92 7 17 11 34 8 37
-5 4 11 87 25 126 2 8 6 24 7 35 8 63 37 200 44 205 4 3 13 39 19 80 10 74 58
312 68 339 11 31 12 1 3 -69z m-409 -15 c0 -25 -4 -30 -20 -26 -22 5 -24 9
-10 26 16 19 30 19 30 0z m135 -35 c-3 -5 -11 -10 -16 -10 -6 0 -7 5 -4 10 3
6 11 10 16 10 6 0 7 -4 4 -10z m356 -72 c-11 -42 -40 -183 -62 -303 -7 -33
-16 -66 -21 -72 -6 -7 -11 -32 -13 -55 -2 -38 -24 -146 -71 -348 -8 -36 -16
-76 -18 -90 -5 -33 -43 -221 -59 -289 -7 -30 -19 -57 -26 -59 -12 -4 -11 4 10
89 5 20 20 94 33 165 14 71 36 176 50 234 13 58 29 130 35 160 17 89 41 200
61 280 37 151 59 246 65 285 7 44 14 59 22 51 3 -3 1 -25 -6 -48z m-176 -98
c-7 -36 -20 -99 -30 -140 -9 -41 -32 -149 -50 -240 -19 -91 -56 -274 -84 -408
-28 -134 -51 -245 -51 -248 0 -2 -7 -4 -16 -4 -12 0 -15 6 -10 23 4 12 18 76
31 142 14 66 45 210 71 320 25 110 50 218 54 240 5 22 25 108 44 190 20 83 39
161 42 174 3 13 7 22 8 20 2 -2 -2 -33 -9 -69z m-58 -107 c-8 -32 -18 -70 -21
-85 -5 -22 -11 -27 -39 -26 -47 0 -66 7 -78 29 -16 31 6 52 47 45 35 -7 67 1
58 15 -3 5 -16 6 -29 3 -13 -3 -33 -1 -44 6 -14 7 -21 7 -21 0 0 -5 -5 -10
-11 -10 -6 0 -9 6 -6 13 4 13 20 13 61 3 21 -5 27 -2 32 19 4 15 13 25 24 25
10 0 21 7 24 16 4 9 9 14 13 11 3 -4 -1 -32 -10 -64z m-452 -244 c28 0 28 -1
8 -9 -25 -10 -30 -25 -12 -36 6 -3 9 -15 6 -25 -3 -10 -1 -22 4 -25 5 -3 7
-10 3 -15 -3 -5 -1 -15 4 -22 6 -7 11 -15 11 -19 1 -5 3 -8 6 -8 3 0 9 0 15 0
5 0 7 7 4 15 -14 35 13 11 31 -29 19 -40 19 -43 3 -38 -10 2 -18 -1 -18 -7 0
-17 42 -61 59 -61 26 0 39 -13 46 -45 6 -23 5 -27 -5 -19 -14 14 -50 7 -50
-10 0 -6 14 -17 30 -23 21 -8 28 -16 24 -27 -4 -9 -11 -16 -18 -15 -37 5 -51
-16 -18 -28 22 -8 52 -34 52 -45 0 -4 -9 -8 -19 -8 -11 0 -23 -5 -27 -11 -8
-13 13 -29 39 -29 10 0 27 -9 39 -20 20 -18 23 -19 39 -4 16 15 17 14 12 -8
-3 -12 -9 -27 -13 -33 -3 -5 -7 -23 -8 -38 -1 -16 -9 -41 -17 -55 -8 -15 -19
-39 -24 -53 -9 -25 -11 -26 -66 -18 -66 9 -85 4 -85 -21 0 -10 -7 -23 -15 -30
-12 -10 -15 -7 -20 17 -4 15 -15 61 -25 102 -11 41 -17 77 -15 81 2 4 -3 31
-12 61 -9 30 -19 92 -22 138 -7 101 -26 120 -36 37 -8 -58 -25 -77 -25 -27 0
32 -22 56 -45 47 -8 -3 -15 -15 -15 -27 0 -18 -4 -20 -26 -15 -15 4 -32 2 -40
-5 -11 -9 -14 -8 -14 5 0 9 5 16 10 16 6 0 10 7 10 15 0 12 7 14 26 9 25 -7
26 -6 19 39 -6 37 -2 56 18 101 14 31 29 76 32 101 4 25 11 45 16 45 5 0 9 9
9 19 0 10 14 34 30 51 23 25 34 30 42 22 7 -7 26 -12 43 -13z m679 11 c47 -18
149 -137 160 -188 4 -17 12 -34 17 -37 5 -4 9 -15 9 -25 0 -11 15 -34 34 -52
30 -29 32 -34 18 -44 -15 -11 -15 -17 -3 -49 11 -31 11 -42 0 -62 -7 -14 -19
-21 -27 -18 -7 3 -18 5 -23 5 -5 0 -9 9 -9 20 0 11 -7 23 -15 26 -9 4 -15 19
-15 35 0 26 -4 29 -30 29 -24 0 -31 -5 -36 -27 -4 -14 -3 -39 3 -53 7 -20 7
-32 -3 -45 -15 -21 -15 -21 -32 18 -14 33 -46 36 -64 5 -7 -13 -11 -26 -10
-30 3 -11 -12 -10 -24 2 -15 15 -42 2 -50 -22 -6 -21 11 -73 34 -100 15 -17
17 -53 14 -189 -2 -46 -7 -61 -29 -86 -43 -45 -75 -93 -63 -93 6 0 8 -4 5 -10
-3 -5 -17 -10 -30 -10 -14 0 -29 -9 -35 -20 -6 -12 -21 -20 -36 -20 -23 0 -25
3 -20 28 4 15 14 33 23 39 9 7 14 16 10 19 -3 3 -74 11 -157 17 -133 9 -153
13 -162 30 -5 11 -6 23 -1 28 5 5 59 4 123 -1 63 -6 158 -13 210 -16 l96 -7
-1 39 c0 38 -1 39 -42 45 -24 3 -46 8 -49 12 -6 6 23 165 56 302 17 75 43 200
56 270 7 39 15 84 19 100 3 17 11 56 17 88 11 60 17 64 62 47z m-434 -229 c0
-5 -7 -14 -15 -21 -12 -10 -15 -10 -15 2 0 8 3 18 7 21 9 10 23 9 23 -2z m66
-25 c16 -17 18 -64 4 -86 -6 -10 -10 -11 -10 -2 0 6 -11 12 -25 12 -14 0 -25
5 -25 10 0 6 11 10 25 10 18 0 25 5 25 19 0 11 -4 23 -10 26 -11 7 -14 25 -4
25 3 0 12 -6 20 -14z m-6 -147 c0 -15 -4 -19 -16 -15 -9 3 -20 6 -25 6 -5 0
-9 7 -9 15 0 9 9 15 25 15 19 0 25 -5 25 -21z m87 -21 c-3 -7 -5 -2 -5 12 0
14 2 19 5 13 2 -7 2 -19 0 -25z m603 -19 c0 -6 -4 -7 -10 -4 -5 3 -10 11 -10
16 0 6 5 7 10 4 6 -3 10 -11 10 -16z m-728 -24 c0 -5 -5 -11 -11 -13 -6 -2
-11 4 -11 13 0 9 5 15 11 13 6 -2 11 -8 11 -13z m398 -66 c0 -5 -4 -9 -10 -9
-5 0 -10 7 -10 16 0 8 5 12 10 9 6 -3 10 -10 10 -16z m-890 7 c0 -3 -4 -8 -10
-11 -5 -3 -10 -1 -10 4 0 6 5 11 10 11 6 0 10 -2 10 -4z m587 -28 c-3 -8 -6
-5 -6 6 -1 11 2 17 5 13 3 -3 4 -12 1 -19z m-627 -79 c0 -10 -7 -19 -15 -19
-16 0 -19 9 -9 34 8 20 24 11 24 -15z m1280 21 c0 -5 -4 -10 -10 -10 -5 0 -10
5 -10 10 0 6 5 10 10 10 6 0 10 -4 10 -10z m-1303 -87 c-3 -10 -5 -4 -5 12 0
17 2 24 5 18 2 -7 2 -21 0 -30z m588 -30 c6 1 11 -12 13 -29 3 -33 -13 -44
-65 -44 -20 0 -22 4 -16 33 8 44 21 59 42 48 9 -5 21 -8 26 -8z m-29 -105 c14
-15 -9 -29 -35 -22 -14 4 -51 6 -83 5 -56 -2 -75 7 -65 33 4 10 22 11 91 1 47
-6 88 -14 92 -17z m108 16 c40 -6 47 -10 44 -28 -3 -18 -10 -21 -58 -21 -53 0
-55 1 -58 28 -4 30 -1 31 72 21z m-705 -91 c0 -43 -8 -118 -18 -168 -13 -64
-15 -94 -8 -103 8 -10 7 -16 -4 -23 -8 -5 -17 -9 -20 -9 -10 0 -29 76 -29 119
0 78 -44 115 -100 86 -61 -31 -77 -87 -36 -128 23 -23 46 -117 28 -117 -5 0
-19 -22 -32 -50 -13 -27 -29 -50 -36 -50 -7 0 -14 -3 -16 -7 -6 -15 -90 -64
-96 -58 -4 4 2 13 13 21 17 12 18 16 5 24 -12 7 -12 12 4 29 20 22 14 41 -12
41 -9 0 -47 -21 -84 -46 -76 -51 -134 -73 -124 -48 11 29 -26 26 -93 -9 -68
-35 -81 -37 -81 -9 0 56 -61 108 -122 104 -15 -1 -28 1 -28 5 0 5 44 39 96 78
53 38 98 75 101 82 3 7 17 13 33 13 15 0 45 13 66 28 21 16 50 31 62 35 22 5
23 4 8 -12 -9 -10 -16 -25 -16 -33 0 -9 -9 -18 -21 -21 -25 -7 -20 -31 7 -35
25 -4 134 66 194 123 25 23 68 55 95 70 28 15 82 46 120 70 72 44 124 72 138
74 4 1 7 -34 6 -76z m839 50 c5 -17 -26 -29 -40 -15 -6 6 -7 15 -3 22 9 14 37
9 43 -7z m-468 -17 c0 -36 -15 -40 -17 -5 -1 16 2 29 7 29 6 0 10 -11 10 -24z
m52 -38 c3 -29 7 -33 43 -40 48 -10 55 -17 45 -43 -7 -15 -9 -16 -9 -4 -1 18
-21 29 -50 29 -30 0 -58 44 -52 83 3 21 20 3 23 -25z m-93 -79 c-5 -10 -13
-19 -18 -19 -4 0 -16 -16 -27 -35 -10 -19 -23 -35 -27 -35 -16 0 3 53 24 68
10 7 19 21 19 31 0 25 11 33 26 20 10 -8 11 -16 3 -30z m338 -6 c-3 -25 -10
-39 -23 -44 -28 -10 -34 -2 -34 42 0 37 2 39 30 39 29 0 30 -2 27 -37z m-203
-19 c16 -7 32 -11 37 -8 5 3 12 -2 15 -11 4 -11 -5 -28 -25 -49 -34 -35 -37
-50 -19 -93 6 -15 12 -35 12 -43 1 -15 67 -39 126 -45 19 -2 57 -6 84 -9 52
-5 65 1 150 71 38 32 38 32 59 12 31 -28 70 -24 105 11 17 17 32 30 34 30 14
0 -7 -59 -21 -63 -32 -8 -42 -113 -16 -165 9 -17 20 -55 25 -84 4 -29 15 -73
24 -98 8 -25 18 -74 21 -110 7 -67 42 -247 51 -262 10 -15 -28 -8 -60 11 -54
34 -116 136 -116 190 0 35 -27 72 -46 64 -10 -4 -14 4 -14 26 0 17 -5 31 -11
31 -17 0 -6 -137 13 -175 33 -64 29 -79 -6 -28 -20 29 -36 59 -36 67 0 8 -4
17 -9 20 -5 3 -16 36 -26 73 -26 103 -23 97 -40 83 -34 -28 20 -215 76 -266
10 -9 19 -22 19 -29 0 -6 10 -21 23 -32 12 -12 33 -33 46 -48 28 -31 91 -65
121 -65 11 0 20 -4 20 -9 0 -16 -95 2 -136 25 -70 41 -150 132 -197 224 -55
109 -77 168 -77 208 0 35 -14 42 -29 14 -9 -18 3 -77 28 -137 50 -118 125
-245 144 -245 6 0 97 -91 97 -98 0 -3 -28 -1 -62 3 -35 4 -79 9 -98 9 -19 1
-50 11 -68 24 -20 15 -39 21 -50 17 -14 -6 -10 -13 27 -46 35 -32 40 -39 23
-39 -21 0 -72 52 -72 75 0 7 -10 20 -23 28 -33 22 -64 137 -37 137 6 0 10 -5
10 -12 0 -21 54 -118 66 -118 22 0 24 16 5 56 -64 137 -64 134 -65 256 -2 113
-10 156 -23 110 -3 -12 -9 -22 -14 -22 -12 0 -11 37 0 45 13 8 7 113 -7 127
-9 9 -15 9 -24 -1 -18 -17 -17 -306 0 -323 7 -7 12 -43 12 -87 0 -85 13 -143
41 -183 28 -38 24 -48 -20 -48 -37 0 -40 2 -60 49 -42 100 -65 374 -41 502 11
59 1 84 -25 58 -12 -11 -15 -45 -16 -159 -1 -144 14 -371 26 -390 3 -6 0 -10
-8 -10 -7 0 -19 12 -26 26 -7 15 -17 24 -25 21 -11 -4 -14 18 -16 111 -6 250
-2 359 14 394 24 54 31 122 12 137 -13 11 -17 11 -21 0 -3 -8 -12 -32 -20 -54
l-15 -40 6 40 c8 61 43 167 60 186 13 14 13 21 3 37 -17 27 -5 52 26 52 31 0
33 22 3 35 -12 6 -24 16 -26 24 -5 16 34 9 82 -15z m444 -44 c12 -18 22 -37
22 -41 0 -4 -18 -20 -40 -36 -23 -15 -61 -47 -86 -70 -47 -45 -68 -54 -57 -27
5 14 3 14 -26 -1 -18 -9 -38 -14 -44 -11 -7 2 -2 8 11 11 12 4 22 11 22 16 0
12 -4 12 -45 -8 -19 -9 -38 -13 -42 -8 -5 4 -2 10 4 12 7 3 23 13 35 24 l23
20 -25 -7 c-14 -4 -36 -15 -49 -25 -22 -18 -51 -25 -51 -14 0 9 72 70 91 77
12 5 19 17 19 33 0 31 -21 33 -75 5 -54 -28 -56 -25 -10 18 l40 37 90 -2 c74
-2 95 1 120 16 38 24 45 22 73 -19z m-1024 -2 c12 -33 -14 -68 -49 -68 -46 0
-62 57 -22 85 31 22 60 15 71 -17z m456 22 c0 -5 -4 -10 -10 -10 -5 0 -10 5
-10 10 0 6 5 10 10 10 6 0 10 -4 10 -10z m-17 -47 c4 -3 1 -16 -7 -28 -17 -27
-53 -141 -65 -210 -5 -27 -17 -70 -26 -95 -9 -24 -19 -78 -23 -119 l-7 -76
-65 0 c-61 0 -65 2 -74 26 -14 42 -3 53 74 80 l72 24 -5 48 c-7 73 -15 76
-104 44 -42 -15 -78 -25 -81 -22 -3 3 13 21 36 41 29 25 43 46 48 72 10 54 21
70 57 85 22 10 37 26 47 51 11 28 26 44 60 61 50 27 54 28 63 18z m204 -37
c-18 -26 -23 -30 -29 -17 -4 10 1 23 14 34 32 27 39 20 15 -17z m-446 -7 c12
-6 18 -17 15 -25 -5 -12 -1 -14 16 -9 20 7 20 6 -6 -40 -14 -27 -29 -65 -32
-86 -4 -23 -12 -39 -20 -39 -8 0 -14 -5 -14 -12 0 -6 -3 -8 -7 -5 -9 10 -34
-14 -26 -26 3 -6 1 -7 -5 -3 -24 14 -13 60 18 81 16 11 30 23 30 28 0 13 -20
7 -49 -14 -27 -20 -29 -20 -64 -3 l-37 18 -30 -29 c-16 -16 -33 -25 -37 -21
-5 4 0 13 10 20 9 7 17 18 17 24 0 20 44 42 81 42 42 0 76 33 86 82 6 30 22
35 54 17z m-1399 -42 c-12 -13 -22 -28 -22 -35 0 -6 -15 -27 -32 -46 -18 -19
-48 -53 -65 -76 l-33 -42 0 68 1 69 49 38 c34 26 56 36 69 32 11 -3 22 -1 26
5 3 5 11 10 17 10 6 0 2 -10 -10 -23z m1898 13 c0 -5 -5 -10 -11 -10 -5 0 -7
5 -4 10 3 6 8 10 11 10 2 0 4 -4 4 -10z m-712 -24 c5 -24 -6 -66 -17 -66 -10
0 -21 70 -14 83 8 13 28 2 31 -17z m-894 -29 c7 -33 0 -49 -13 -28 -5 7 -13
11 -19 7 -6 -3 -14 -2 -17 4 -5 8 -11 7 -21 -1 -8 -6 -18 -9 -22 -5 -4 4 1 13
10 20 10 7 15 16 11 20 -12 11 16 23 42 19 16 -4 25 -14 29 -36z m2131 6 c3
-13 2 -23 -3 -23 -11 0 -22 24 -22 48 0 21 15 5 25 -25z m-39 -68 c-3 -8 -10
-15 -15 -15 -7 0 -6 10 1 26 12 26 25 16 14 -11z m-2144 3 c-7 -7 -12 -8 -12
-2 0 14 12 26 19 19 2 -3 -1 -11 -7 -17z m2212 -37 c22 -74 73 -173 106 -205
17 -16 30 -40 30 -53 0 -16 10 -29 31 -41 17 -9 54 -32 82 -49 28 -18 59 -33
69 -33 13 0 18 -8 18 -26 0 -25 -1 -26 -44 -20 -38 6 -46 4 -55 -12 -7 -13 -7
-22 2 -31 8 -8 7 -15 -5 -28 -24 -23 -49 -1 -42 36 6 27 -26 81 -48 81 -17 0
-58 49 -58 69 0 10 -16 54 -36 97 -30 67 -74 214 -74 252 0 25 10 10 24 -37z
m-2314 14 c-11 -13 -9 -19 11 -33 13 -9 35 -19 48 -22 37 -8 39 -30 3 -30 -17
0 -37 -6 -44 -13 -7 -7 -20 -16 -29 -19 -9 -3 -22 -27 -29 -53 -13 -45 -14
-47 -44 -40 -17 3 -48 9 -68 12 -21 3 -42 11 -49 19 -6 8 -29 14 -50 14 -39 0
-39 0 -39 41 0 32 3 40 15 36 8 -4 17 -2 20 3 4 6 13 10 22 10 8 0 28 11 45
25 36 30 44 31 51 5 5 -20 6 -20 44 2 21 12 49 30 62 40 29 22 48 24 31 3z
m1005 5 c-3 -5 -11 -10 -16 -10 -6 0 -7 5 -4 10 3 6 11 10 16 10 6 0 7 -4 4
-10z m471 -12 c-12 -40 -17 -50 -22 -46 -5 6 13 58 20 58 3 0 4 -6 2 -12z
m-385 -35 c8 -16 18 -31 24 -35 6 -5 2 -8 -7 -8 -10 0 -18 -7 -18 -15 0 -8 5
-15 10 -15 6 0 10 -7 10 -15 0 -8 6 -15 13 -16 13 0 -21 -17 -39 -18 -18 -1
-45 96 -34 124 12 32 23 32 41 -2z m-292 -8 c-19 -19 -13 -95 7 -95 8 0 38 14
67 30 30 17 57 30 60 30 4 0 7 -20 7 -44 0 -51 19 -75 42 -53 11 12 17 12 31
2 15 -11 12 -15 -32 -34 -27 -11 -57 -21 -66 -21 -21 0 -35 -40 -23 -64 10
-18 7 -19 -38 -12 -26 3 -57 15 -69 26 -12 11 -30 20 -40 20 -10 0 -27 8 -37
17 -17 15 -28 16 -124 4 -58 -7 -108 -11 -110 -8 -3 3 -8 23 -11 45 -5 40 -5
41 48 71 58 33 73 33 43 0 -19 -22 -19 -22 6 -16 49 10 128 45 171 74 39 26
63 40 79 42 2 1 -2 -6 -11 -14z m-659 -5 c0 -5 -7 -10 -16 -10 -8 0 -12 5 -9
10 3 6 10 10 16 10 5 0 9 -4 9 -10z m253 -22 c9 -11 17 -32 16 -47 0 -26 0
-26 -10 -3 -17 44 -28 12 -23 -71 3 -45 1 -102 -4 -127 l-10 -45 -1 53 c-1 39
-5 52 -16 52 -10 0 -15 10 -15 29 0 16 -6 31 -15 35 -11 4 -15 20 -15 58 0 38
3 49 10 38 5 -8 10 -27 10 -42 0 -19 4 -26 14 -22 20 8 25 50 10 80 -8 14 -14
31 -14 36 0 15 43 -2 63 -24z m597 25 c-1 -5 -7 -33 -15 -63 l-13 -55 -1 63
c-1 49 2 62 14 62 8 0 15 -3 15 -7z m-782 -15 c16 -16 15 -39 -1 -32 -11 4
-12 -20 -9 -118 3 -68 8 -125 12 -128 4 -3 5 -22 2 -42 -4 -37 -20 -47 -57
-38 -5 2 -28 4 -50 4 -46 2 -65 27 -65 84 0 49 -28 139 -45 146 -22 8 -18 30
10 60 18 19 34 26 63 26 23 0 45 6 52 15 7 8 23 15 36 15 13 0 24 5 24 10 0
14 13 13 28 -2z m832 -80 c0 -15 -20 -8 -30 11 -17 33 -11 47 10 21 11 -14 20
-28 20 -32z m320 17 c0 -30 -28 -50 -95 -66 -27 -6 -59 -17 -70 -24 -11 -7
-36 -16 -55 -20 -35 -7 -129 -44 -182 -70 -25 -13 -29 -12 -39 6 -16 30 -6 44
42 58 24 7 77 28 117 47 40 19 79 34 87 34 7 0 42 13 77 30 81 38 118 40 118
5z m130 -12 c0 -5 -5 -15 -10 -23 -8 -12 -10 -11 -10 8 0 12 5 22 10 22 6 0
10 -3 10 -7z m-1073 -45 c-3 -8 -6 -5 -6 6 -1 11 2 17 5 13 3 -3 4 -12 1 -19z
m-140 -38 c-3 -10 1 -24 9 -31 18 -14 18 -146 0 -204 -10 -34 -16 -40 -39 -40
-15 -1 -27 2 -27 5 0 3 7 43 15 90 8 47 15 108 15 136 0 28 3 54 7 57 13 14
25 6 20 -13z m2063 -24 c0 -17 43 -118 60 -142 8 -11 27 -29 43 -39 20 -13 25
-21 17 -30 -20 -24 33 -106 58 -91 5 3 16 -1 23 -10 20 -24 -37 -72 -101 -84
-66 -13 -73 -17 -66 -46 8 -29 2 -30 -23 -5 -14 14 -16 22 -8 30 7 7 7 18 -1
36 -19 41 -14 50 9 20 18 -22 27 -26 53 -20 17 3 45 8 61 9 35 3 50 36 16 36
-12 0 -21 6 -21 15 0 8 -9 20 -19 27 -10 6 -17 17 -14 24 2 7 -5 19 -17 26
-25 14 -70 106 -70 141 0 12 -7 40 -15 62 -8 22 -14 48 -15 59 0 15 3 16 15 6
8 -7 15 -18 15 -24z m-1632 -27 c9 -13 20 -19 32 -16 11 3 27 -5 41 -19 l22
-24 -91 0 c-50 0 -94 5 -97 10 -3 6 1 10 9 10 8 0 27 5 43 11 26 10 27 11 10
24 -13 10 -15 14 -5 18 21 9 23 8 36 -14z m767 -152 c3 -87 7 -168 11 -182 4
-15 2 -25 -5 -25 -6 0 -11 7 -11 15 0 9 -11 20 -24 24 -17 7 -25 20 -29 48
-10 57 -8 112 3 134 6 10 12 44 14 75 2 34 8 59 17 64 7 5 15 8 16 6 2 -2 5
-73 8 -159z m-1460 81 c15 -121 3 -168 -41 -168 -19 0 -25 -4 -22 -17 2 -10
11 -17 21 -17 27 3 20 -13 -9 -20 -36 -9 -54 9 -54 55 0 40 -7 48 -28 27 -14
-14 -16 0 -3 20 5 8 22 12 42 10 28 -2 34 0 35 17 1 33 38 164 45 160 3 -3 10
-33 14 -67z m1205 42 c8 -15 8 -21 -2 -25 -57 -20 -102 -35 -109 -35 -5 0 -9
10 -9 23 0 19 9 26 48 39 62 21 60 21 72 -2z m-770 -41 c0 -22 -6 -32 -25 -39
-21 -8 -25 -16 -25 -48 0 -24 -8 -49 -20 -65 -24 -30 -25 -45 -4 -68 14 -16
14 -19 -6 -39 -22 -22 -24 -59 -5 -145 5 -24 2 -35 -18 -54 -14 -13 -30 -20
-36 -16 -15 9 -14 25 3 25 9 0 12 8 8 26 -2 14 1 67 8 117 14 104 16 123 18
190 1 27 6 46 11 43 4 -3 22 12 39 33 24 29 28 41 19 50 -9 9 -8 14 3 21 20
13 30 3 30 -31z m-510 -15 c0 -8 -4 -12 -10 -9 -5 3 -10 10 -10 16 0 5 5 9 10
9 6 0 10 -7 10 -16z m1279 -8 c-2 -2 -18 -7 -34 -10 l-30 -6 30 14 c26 12 46
14 34 2z m-1414 -12 c-17 -13 -18 -16 -5 -25 8 -5 23 -7 33 -5 22 5 23 -26 2
-58 -14 -21 -14 -25 0 -39 22 -22 20 -24 -31 -25 -25 0 -51 -6 -58 -12 -8 -9
3 -11 52 -8 44 3 66 0 73 -9 8 -9 7 -14 -5 -19 -30 -12 -17 -27 19 -21 19 3
37 1 40 -4 4 -5 15 -9 26 -9 26 0 24 -27 -6 -120 -14 -41 -25 -98 -25 -127 0
-46 3 -53 20 -53 24 0 27 -15 4 -24 -23 -9 -197 -7 -211 2 -7 4 -12 21 -12 37
0 17 -2 48 -5 70 -2 22 0 45 6 53 8 9 8 16 0 24 -16 16 -15 91 0 106 9 9 9 12
0 12 -16 0 -15 37 1 43 9 3 9 7 1 18 -7 8 -11 43 -10 79 1 58 3 65 24 70 13 3
23 10 23 15 0 6 -10 13 -23 16 -17 5 -19 8 -8 12 21 8 52 15 75 16 20 0 20 0
0 -15z m55 -5 c0 -6 -4 -7 -10 -4 -5 3 -10 11 -10 16 0 6 5 7 10 4 6 -3 10
-11 10 -16z m1030 10 c0 -29 -51 -88 -77 -89 -26 0 -43 -44 -43 -112 l0 -68
-35 0 c-44 0 -46 -18 -3 -22 31 -3 31 -4 29 -53 -1 -27 -2 -88 -4 -135 l-2
-85 -224 0 -224 0 -1 45 c-1 39 2 45 21 48 11 2 34 21 49 43 25 36 26 43 16
73 -21 58 -16 100 18 124 16 12 38 22 50 22 12 0 20 7 20 16 0 13 -7 15 -32
10 -30 -6 -30 -5 -15 12 10 10 17 24 17 30 0 7 13 9 36 5 29 -5 36 -3 32 8 -3
8 -13 13 -22 13 -9 -1 -16 6 -16 16 0 14 9 20 33 22 24 2 31 7 29 21 -2 11 4
17 17 17 11 0 23 5 26 10 4 6 -8 10 -29 10 -25 0 -36 -4 -36 -15 0 -8 -9 -15
-20 -15 -16 0 -20 7 -20 30 l0 30 205 0 c138 0 205 -3 205 -11z m476 -5 c-3
-9 -6 -22 -6 -29 0 -8 -13 -15 -32 -17 -43 -4 -50 -28 -8 -28 25 0 31 -3 26
-16 -3 -9 -6 -24 -6 -34 0 -11 -10 -20 -26 -24 -32 -8 -26 -30 10 -34 23 -3
26 -7 20 -25 -8 -28 -7 -27 -31 -21 -12 4 -23 17 -27 32 -3 15 -8 37 -12 50
-6 19 -3 22 26 22 21 0 30 4 27 13 -2 6 -18 12 -35 12 -24 0 -32 4 -32 17 0 9
-5 28 -11 42 -18 39 2 56 68 56 46 0 54 -3 49 -16z m-1039 -46 c-2 -13 -4 -5
-4 17 -1 22 1 32 4 23 2 -10 2 -28 0 -40z m695 23 c23 -5 40 -5 47 2 7 7 13 2
21 -17 13 -35 13 -73 0 -81 -17 -11 -11 -25 15 -35 30 -11 33 -40 5 -40 -11 0
-20 -7 -20 -15 0 -9 9 -15 24 -15 22 0 26 -7 41 -75 17 -77 15 -95 -11 -95 -8
0 -14 -4 -14 -10 0 -5 14 -10 30 -10 25 0 30 -4 30 -25 0 -18 -5 -25 -20 -25
-30 0 -24 -18 7 -22 20 -2 29 -10 34 -32 9 -34 0 -56 -13 -32 -12 21 -64 21
-77 -1 -8 -15 -11 -15 -25 -4 -13 11 -24 12 -55 2 -52 -15 -94 -14 -88 2 2 6
10 11 17 9 18 -4 50 8 50 19 0 5 -11 9 -25 9 -18 0 -25 5 -25 20 0 15 7 20 25
20 16 0 25 6 25 15 0 10 -10 15 -30 15 -20 0 -30 5 -30 15 0 8 9 15 20 15 11
0 20 5 20 10 0 6 -11 10 -23 10 -21 0 -25 8 -36 56 -13 57 -9 76 11 56 14 -14
68 -16 68 -3 0 5 -7 11 -15 15 -11 4 -13 11 -5 30 7 18 5 38 -5 67 -9 23 -14
58 -13 78 1 20 -1 46 -6 59 -8 25 -6 25 46 13z m-572 -61 c0 -11 -7 -20 -15
-20 -13 0 -14 4 -5 20 6 11 13 20 15 20 3 0 5 -9 5 -20z m-254 -23 c-1 -28 3
-32 27 -35 23 -3 26 -7 23 -28 -3 -14 -14 -44 -25 -67 -10 -23 -25 -81 -32
-129 -9 -65 -16 -88 -27 -88 -10 0 -12 4 -5 13 6 6 13 39 17 71 4 33 17 86 30
118 24 59 20 87 -6 45 -21 -33 -58 -153 -58 -190 0 -40 -12 -59 -32 -52 -19 7
-38 -34 -38 -81 0 -46 -19 -40 -37 11 -10 29 -11 52 -3 94 21 114 28 145 48
204 14 42 15 49 2 57 -13 8 -13 13 -1 32 10 16 11 23 2 26 -25 8 25 30 70 30
46 1 47 0 45 -31z m756 -30 c9 -23 19 -53 23 -67 6 -24 6 -25 -10 -5 -10 11
-21 32 -27 48 -16 44 -32 33 -25 -18 12 -86 -13 -136 -51 -103 -9 9 -23 13
-29 11 -18 -7 -16 12 3 27 11 10 14 23 9 52 -5 26 -3 38 5 38 6 0 10 6 7 13
-9 24 13 47 46 47 28 0 34 -5 49 -43z m1695 21 c-3 -8 -6 -5 -6 6 -1 11 2 17
5 13 3 -3 4 -12 1 -19z m-271 -9 c10 -12 18 -29 16 -39 -2 -11 5 -20 18 -23
24 -6 27 -25 5 -33 -21 -8 -43 12 -54 50 -5 17 -12 39 -16 49 -10 24 8 21 31
-4z m238 -10 c-3 -6 3 -13 15 -16 16 -4 21 -13 21 -38 0 -27 -5 -34 -25 -39
-14 -4 -25 -11 -25 -16 0 -6 11 -10 25 -10 19 0 25 -5 25 -22 0 -22 -4 -23
-68 -22 -88 1 -94 2 -87 14 3 6 24 10 45 10 45 0 57 12 35 34 -18 17 -4 31 32
31 27 0 32 19 6 23 -10 2 -22 7 -26 11 -11 11 11 64 23 56 6 -4 8 -11 4 -16z
m-2303 -84 l-9 -40 -2 40 c-3 48 -1 65 7 85 12 26 15 -41 4 -85z m-305 -79
c-14 -47 -28 -107 -32 -133 -9 -62 -16 -74 -25 -40 -5 19 1 55 22 118 16 49
29 98 29 107 0 18 20 45 27 38 2 -2 -7 -42 -21 -90z m1394 79 c0 -8 -4 -15
-10 -15 -5 0 -10 7 -10 15 0 8 5 15 10 15 6 0 10 -7 10 -15z m-1139 -132 c-6
-23 -11 -70 -11 -105 -1 -68 -20 -112 -41 -91 -11 11 -14 75 -5 118 2 11 9 54
17 95 7 41 20 86 28 100 16 24 16 24 19 -25 2 -27 -2 -68 -7 -92z m1069 78 c0
-11 -4 -23 -10 -26 -6 -4 -10 5 -10 19 0 14 5 26 10 26 6 0 10 -9 10 -19z
m1150 -31 c0 -22 7 -24 108 -20 l62 2 0 -51 c0 -45 -2 -51 -21 -51 -12 0 -19
-5 -16 -12 2 -7 12 -12 21 -12 10 1 16 -6 16 -18 0 -16 -5 -19 -24 -14 -27 7
-56 -1 -56 -15 0 -5 18 -9 40 -9 22 0 40 -4 40 -10 0 -5 -9 -10 -20 -10 -11 0
-20 -4 -20 -10 0 -5 9 -10 20 -10 11 0 20 -4 20 -10 0 -5 -25 -9 -55 -8 -40 1
-52 5 -45 13 21 25 -28 36 -52 12 -29 -29 -88 -29 -88 -1 0 17 -51 19 -68 2
-9 -9 -12 -8 -12 5 0 10 -9 37 -20 59 -11 23 -20 43 -20 45 0 1 20 0 44 -3 43
-6 45 -5 51 22 14 61 16 66 33 59 44 -17 72 -17 72 -1 0 15 -22 21 -57 17 -21
-3 -15 15 10 32 30 21 37 21 37 -3z m-1610 -30 c0 -5 -4 -10 -10 -10 -5 0 -10
5 -10 10 0 6 5 10 10 10 6 0 10 -4 10 -10z m40 -39 c0 -10 7 -32 15 -47 20
-38 20 -100 0 -108 -26 -10 -45 5 -45 35 0 19 -5 29 -15 29 -10 0 -15 10 -15
31 0 24 3 30 16 25 9 -3 17 -6 20 -6 2 0 1 -8 -2 -17 -5 -16 -4 -15 6 1 7 10
10 33 7 52 -4 20 -2 32 4 29 5 -4 9 -14 9 -24z m1428 -9 c2 -7 -2 -10 -12 -6
-9 3 -16 11 -16 16 0 13 23 5 28 -10z m-582 -17 c18 -14 18 -14 -8 -15 -34 0
-35 -6 -5 -31 27 -22 57 -25 57 -4 0 8 -4 15 -10 15 -5 0 -10 4 -10 9 0 13
104 0 113 -15 9 -16 87 -19 87 -4 0 6 6 10 14 10 7 0 18 -19 24 -42 22 -82 22
-83 -27 -86 -35 -3 -42 0 -38 11 3 8 1 19 -5 25 -16 16 0 36 18 21 11 -9 18
-8 30 2 14 12 14 14 -6 21 -12 5 -29 3 -41 -5 -17 -10 -22 -9 -30 6 -7 12 -23
17 -54 17 -25 0 -45 -4 -45 -10 0 -5 5 -11 10 -11 6 -1 15 -3 20 -4 6 -1 21
-3 35 -4 27 -1 29 -19 5 -38 -13 -10 -13 -12 0 -16 8 -3 22 -8 30 -10 8 -3
-29 -6 -82 -6 -73 -1 -97 2 -95 12 3 19 -53 21 -67 2 -7 -10 -22 -16 -37 -13
-20 3 -25 10 -33 55 -7 45 -6 56 14 87 20 33 25 36 69 36 26 0 56 -7 67 -15z
m187 -21 c-3 -8 -12 -13 -20 -10 -8 3 -17 6 -19 6 -3 0 -2 5 1 10 11 17 45 12
38 -6z m-1113 -9 c0 -8 -4 -15 -10 -15 -5 0 -7 7 -4 15 4 8 8 15 10 15 2 0 4
-7 4 -15z m-833 -57 c-3 -8 -6 -5 -6 6 -1 11 2 17 5 13 3 -3 4 -12 1 -19z
m860 -20 c-3 -7 -5 -2 -5 12 0 14 2 19 5 13 2 -7 2 -19 0 -25z m-33 7 c-4 -8
-8 -15 -10 -15 -2 0 -4 7 -4 15 0 8 4 15 10 15 5 0 7 -7 4 -15z m-707 -40 c-3
-43 -17 -34 -17 11 0 21 4 33 10 29 5 -3 9 -21 7 -40z m-107 9 c0 -14 -12 -19
-23 -8 -9 9 4 35 14 28 5 -3 9 -12 9 -20z m154 -9 c-4 -8 -10 -12 -15 -9 -11
6 -2 24 11 24 5 0 7 -7 4 -15z m726 -35 c0 -11 -4 -20 -10 -20 -5 0 -10 9 -10
20 0 11 5 20 10 20 6 0 10 -9 10 -20z m837 14 c-3 -3 -12 -4 -19 -1 -8 3 -5 6
6 6 11 1 17 -2 13 -5z m-1550 -127 c5 -43 3 -47 -21 -58 -23 -11 -28 -10 -41
7 -7 10 -18 38 -24 60 -6 23 -13 48 -16 56 -4 9 3 19 17 25 35 17 79 -30 85
-90z m56 94 c13 -1 3 -84 -10 -88 -7 -3 -15 10 -19 31 -3 20 -10 39 -15 42
-18 11 -9 24 14 20 12 -3 26 -5 30 -5z m1790 -3 c21 -11 21 -11 2 -19 -11 -4
-107 -8 -213 -8 -151 -1 -193 2 -190 12 8 21 364 35 401 15z m627 -8 c0 -19
-6 -20 -150 -18 -144 1 -168 6 -143 31 3 4 71 7 150 7 136 0 143 -1 143 -20z
m-2610 -4 c0 -16 -100 -20 -242 -9 -134 9 -85 23 82 23 131 0 160 -3 160 -14z
m750 4 c0 -5 -10 -10 -22 -10 -12 0 -117 -1 -232 -1 -251 -2 -256 -2 -256 11
0 6 92 10 255 10 163 0 255 -4 255 -10z m450 -5 c0 -13 -21 -15 -152 -13 -110
2 -152 6 -156 16 -3 9 32 12 152 12 133 0 156 -2 156 -15z m-402 -90 c1 -30
-3 -55 -8 -55 -11 0 -14 69 -4 94 9 24 10 21 12 -39z m45 35 c-8 -31 5 -68 27
-75 32 -10 23 -25 -15 -25 l-35 0 0 53 c0 30 3 57 7 60 13 13 21 7 16 -13z
m1156 6 c7 -8 13 -48 14 -92 l2 -78 -35 -7 c-58 -12 -373 -41 -402 -38 l-27 4
30 73 c34 86 35 96 10 121 -11 11 -17 21 -15 24 3 2 96 5 208 6 168 2 205 0
215 -13z m613 -47 c1 -34 1 -64 -2 -69 -3 -4 -63 -11 -133 -16 -149 -10 -141
-14 -153 84 l-7 62 146 0 145 0 4 -61z m-2402 -28 c0 -6 -4 -13 -10 -16 -5 -3
-10 1 -10 9 0 9 5 16 10 16 6 0 10 -4 10 -9z m1268 -18 c26 -3 48 0 57 7 21
17 31 5 18 -23 -6 -12 -16 -36 -23 -53 -14 -38 -52 -50 -86 -27 -13 8 -27 12
-33 9 -5 -3 -14 17 -20 44 -14 66 -15 63 17 55 15 -4 46 -9 70 -12z m-1313
-25 c-8 -27 -8 -20 1 -135 l7 -92 -39 6 c-22 3 -50 9 -64 13 -23 6 -22 7 17
22 l40 17 -8 52 c-7 43 -5 56 8 71 15 17 14 18 -15 18 -41 0 -41 12 1 33 47
23 61 22 52 -5z m1909 -7 c4 -5 40 -17 82 -27 58 -14 83 -16 114 -8 l38 11 11
-40 c9 -37 8 -43 -15 -64 -14 -13 -33 -23 -42 -23 -9 0 -24 -4 -32 -10 -8 -5
-17 -5 -20 -1 -3 4 -25 14 -50 22 -31 10 -46 20 -48 34 -6 30 -20 41 -34 27
-22 -22 -28 -13 -28 38 0 46 11 63 24 41z m-1857 -93 c9 -10 14 -18 10 -18 -3
0 -12 -2 -20 -6 -11 -4 -16 6 -20 42 -3 26 -2 55 2 63 3 10 7 0 9 -24 2 -22
11 -48 19 -57z m1019 65 c-10 -10 -19 5 -10 18 6 11 8 11 12 0 2 -7 1 -15 -2
-18z m1249 -13 c-71 -9 -132 -15 -134 -13 -11 8 13 14 85 22 145 15 182 9 49
-9z m-1503 -167 c92 -92 168 -173 168 -180 0 -19 -68 -17 -72 1 -2 8 -49 64
-106 125 -149 159 -195 221 -165 221 4 0 83 -75 175 -167z m1043 117 c-4 -6
-1 -18 6 -26 6 -8 10 -16 8 -18 -12 -9 -475 -66 -541 -66 -5 0 -4 9 2 20 7 14
21 20 43 20 18 0 84 7 147 15 63 9 159 19 213 24 92 8 117 14 105 26 -6 6
-152 -7 -353 -31 -73 -8 -123 -10 -128 -5 -13 13 23 18 213 35 200 17 293 19
285 6z m-1209 -32 c17 -18 37 -42 45 -53 13 -19 13 -19 -6 -5 -22 16 -85 80
-85 86 0 12 20 0 46 -28z m642 12 c23 0 24 -3 17 -37 -4 -21 -10 -42 -15 -48
-4 -5 -10 -19 -13 -30 -4 -16 -5 -15 -6 6 0 15 -8 46 -16 69 -18 52 -19 68 -3
52 7 -7 23 -12 36 -12z m-158 -136 c17 -65 37 -147 45 -181 7 -34 18 -79 24
-100 18 -64 17 -65 -46 -58 -36 4 -81 2 -118 -6 -102 -22 -355 -19 -318 4 7 4
46 14 88 22 93 18 132 34 177 74 20 17 40 31 46 31 5 0 15 6 21 14 16 19 41
182 41 265 0 35 2 62 5 60 2 -3 18 -59 35 -125z m-70 81 c0 -12 -13 -15 -55
-15 -57 0 -76 16 -27 23 61 9 82 7 82 -8z m-165 -42 c1 -46 -1 -46 -52 5 -28
28 -28 30 0 35 44 9 51 4 52 -40z m-1180 21 c14 -9 25 -25 25 -36 0 -22 61
-54 123 -64 20 -4 37 -10 37 -13 0 -8 -65 -41 -80 -41 -5 0 -12 9 -15 20 -3
11 -12 20 -19 20 -7 0 -25 9 -39 20 -20 16 -30 18 -52 10 -44 -17 -73 -12 -90
14 -13 19 -14 28 -4 43 24 40 76 52 114 27z m2340 3 l51 1 21 -133 c19 -122
24 -137 54 -174 19 -22 57 -52 85 -67 39 -20 56 -36 72 -70 12 -25 22 -46 22
-48 0 -2 -36 -7 -79 -11 -72 -6 -85 -5 -135 18 -39 18 -59 35 -71 59 -21 41
-55 78 -71 78 -8 0 -13 35 -16 123 -3 81 -10 138 -22 170 -19 54 -14 72 18 61
11 -4 44 -7 71 -7z m-1292 -80 c-3 -6 -17 3 -30 19 -33 41 -29 53 7 19 16 -15
26 -33 23 -38z m297 37 c0 -11 -9 -14 -37 -12 -47 4 -55 25 -11 30 40 4 48 1
48 -18z m-383 4 c15 -7 22 -19 21 -35 -3 -26 -18 -32 -18 -7 0 15 -11 16 -91
11 -67 -4 -89 -3 -86 6 2 7 28 17 58 23 78 15 91 15 116 2z m-231 -16 c39 -27
13 -81 -36 -74 -33 5 -51 32 -42 64 5 19 56 25 78 10z m2004 -22 c0 -29 -2
-30 -44 -30 -24 0 -64 -3 -90 -6 -31 -5 -46 -3 -46 5 0 7 21 11 56 11 34 0 53
4 49 10 -3 6 -26 10 -51 10 -24 0 -44 4 -44 9 0 11 38 17 118 19 52 2 52 2 52
-28z m-1398 -10 c0 -3 -2 -35 -6 -72 -7 -66 -26 -105 -26 -54 0 14 -3 26 -7
26 -5 0 -28 23 -52 51 -30 35 -38 50 -25 46 10 -4 35 -2 54 3 36 8 60 9 62 0z
m-162 -127 c0 -20 -6 -16 -54 35 -25 26 -46 56 -46 66 0 15 13 6 50 -35 27
-29 50 -60 50 -66z m1350 113 c0 -11 -19 -15 -25 -6 -3 5 1 10 9 10 9 0 16 -2
16 -4z m200 -36 c0 -6 -34 -10 -81 -10 -51 0 -78 4 -74 10 3 6 40 10 81 10 43
0 74 -4 74 -10z m-2440 -55 c0 -7 -26 -23 -57 -35 -32 -13 -63 -27 -70 -32
-19 -15 -36 1 -21 19 11 14 10 15 -11 8 -38 -12 -16 10 31 31 24 10 49 24 56
31 15 15 72 -2 72 -22z"/>
<g>
<path d="M2900 4850 c-14 -11 -37 -22 -52 -25 -15 -4 -32 -13 -39 -21 -6 -8
-18 -14 -26 -14 -30 0 -103 -41 -103 -58 0 -16 -111 -92 -198 -136 -18 -10
-36 -25 -40 -36 -4 -10 -42 -41 -84 -70 -43 -29 -88 -62 -100 -74 -13 -12 -61
-47 -108 -78 -95 -63 -229 -191 -211 -203 7 -4 32 3 57 14 59 28 122 14 82
-18 -24 -19 -149 -111 -186 -136 -20 -14 -47 -25 -59 -25 -13 0 -57 -23 -98
-52 -81 -56 -108 -58 -55 -4 32 34 36 66 8 66 -17 0 -88 -48 -88 -60 0 -5 -8
-11 -19 -15 -10 -3 -34 -20 -54 -38 -19 -18 -70 -61 -112 -97 -42 -36 -99 -84
-126 -107 -59 -51 -76 -56 -31 -10 18 18 32 41 32 50 0 10 40 46 95 87 52 39
95 75 95 80 0 18 -31 24 -62 12 l-28 -10 20 25 c13 17 17 30 11 37 -10 12 19
56 36 56 16 0 73 74 73 94 0 9 -29 7 -48 -4 -32 -18 -241 -110 -250 -110 -5 0
-26 -11 -47 -25 -42 -29 -52 -27 -35 5 6 12 10 23 8 26 -9 9 -77 -18 -99 -39
-20 -20 -114 -77 -125 -77 -2 0 -4 9 -4 20 0 30 -31 25 -90 -16 -28 -19 -54
-33 -57 -30 -4 3 37 50 90 104 96 97 116 132 77 132 -11 0 -20 5 -20 10 0 12
-33 13 -46 1 -5 -5 -26 -14 -46 -20 -36 -12 -66 -37 -56 -47 3 -3 30 6 59 20
66 32 79 32 79 2 0 -17 -24 -48 -80 -103 -52 -51 -80 -86 -80 -101 0 -31 22
-28 86 13 30 19 56 35 58 35 2 0 6 -9 9 -20 8 -31 29 -25 118 35 45 30 84 55
86 55 2 0 1 -11 -1 -25 -7 -36 6 -38 55 -11 24 14 69 34 99 46 30 12 90 37
133 57 43 19 81 32 84 29 7 -6 -37 -47 -102 -96 -60 -45 -93 -80 -76 -80 7 0
21 5 32 10 16 9 19 7 19 -9 0 -17 5 -19 35 -14 19 3 35 2 35 -3 0 -5 -29 -29
-63 -54 -88 -64 -147 -119 -141 -134 3 -7 -6 -21 -20 -30 -27 -17 -36 -56 -13
-56 23 0 159 105 257 197 25 24 48 43 52 43 4 0 39 27 77 60 70 60 125 86 64
30 -19 -17 -30 -35 -27 -44 3 -8 1 -17 -5 -21 -15 -9 -14 -25 2 -25 8 0 54 27
103 60 49 33 99 60 110 60 22 0 107 53 154 95 14 12 45 35 70 50 88 54 152
146 95 137 -11 -2 -31 -4 -45 -6 -14 -1 -38 -8 -54 -14 -16 -7 -31 -10 -34 -7
-6 6 69 72 112 99 17 10 60 42 96 71 113 90 197 145 222 145 30 0 61 31 53 52
-4 11 23 33 100 79 59 35 123 78 143 95 21 17 65 43 99 59 57 25 102 59 92 69
-2 3 -15 -4 -29 -14z"/>
</g>
<g>
<path d="M1923 3564 c-19 -18 -22 -24 -10 -20 15 5 17 2 12 -14 -10 -31 3 -42
30 -24 24 16 45 12 45 -8 0 -6 -9 -8 -19 -5 -15 4 -20 -2 -25 -26 -4 -20 -2
-34 6 -39 9 -5 8 -8 -5 -8 -10 0 -15 -4 -12 -10 10 -16 33 -11 55 12 21 23 28
92 10 103 -15 9 -12 25 5 25 8 0 15 7 15 15 0 21 -16 19 -40 -5 -26 -26 -48
-16 -24 11 28 31 -9 25 -43 -7z m64 -116 c-3 -8 -6 -5 -6 6 -1 11 2 17 5 13 3
-3 4 -12 1 -19z"/>
</g>
<g>
<path d="M2862 3554 c-12 -8 -22 -22 -22 -30 0 -8 -5 -14 -10 -14 -16 0 -95
-60 -95 -73 0 -7 -4 -18 -8 -24 -5 -9 -3 -13 7 -13 31 0 15 -16 -79 -80 -52
-36 -95 -71 -95 -77 0 -18 7 -16 73 17 33 16 65 26 73 23 7 -3 30 5 50 17 26
17 38 20 43 11 6 -9 15 -9 35 -1 36 13 43 13 28 -2 -20 -20 -15 -40 9 -33 18
6 19 4 10 -13 -5 -10 -22 -27 -36 -36 -14 -9 -25 -23 -25 -30 0 -8 -7 -16 -15
-20 -14 -5 -22 -36 -10 -36 3 0 32 14 65 30 33 17 66 30 75 30 8 0 15 4 15 9
0 21 -20 20 -55 0 -50 -30 -57 -15 -12 26 41 38 42 40 25 78 -10 21 -21 27
-53 29 -22 2 -56 -2 -75 -8 -19 -6 -52 -17 -73 -23 -51 -17 -56 -8 -12 19 58
36 85 70 79 99 -5 21 0 29 28 45 39 22 99 84 89 91 -4 2 -17 -3 -29 -11z"/>
</g>
<g>
<path d="M1857 3013 c-12 -11 -8 -23 8 -23 8 0 15 7 15 15 0 16 -12 20 -23 8z"/>
</g>
<g>
<path d="M1954 1917 c-8 -21 14 -67 31 -67 17 0 19 18 5 54 -10 28 -28 34 -36
13z"/>
</g>
<g>
<path d="M2344 1795 c-4 -8 -3 -30 0 -49 4 -19 1 -45 -5 -59 -13 -29 -5 -77
14 -77 19 0 38 121 26 165 -10 37 -26 45 -35 20z"/>
</g>
<g>
<path d="M2193 1576 c4 -10 7 -24 7 -32 0 -8 5 -14 11 -14 15 0 6 53 -10 58
-10 3 -12 0 -8 -12z"/>
</g>
<g>
<path d="M65 1420 c3 -5 15 -10 26 -10 10 0 19 5 19 10 0 6 -12 10 -26 10 -14
0 -23 -4 -19 -10z"/>
</g>
<g>
<path d="M110 1260 c0 -5 6 -10 14 -10 8 0 18 5 21 10 3 6 -3 10 -14 10 -12 0
-21 -4 -21 -10z"/>
</g>
<g>
<path d="M207 1262 c-39 -3 -42 -22 -4 -22 22 0 56 16 47 22 -3 2 -22 2 -43 0z"/>
</g>
<g>
<path d="M100 1210 c0 -5 9 -10 20 -10 11 0 20 5 20 10 0 6 -9 10 -20 10 -11
0 -20 -4 -20 -10z"/>
</g>
<g>
<path d="M175 1190 c3 -5 12 -10 20 -10 8 0 17 5 20 10 4 6 -5 10 -20 10 -15
0 -24 -4 -20 -10z"/>
</g>
<g>
<path d="M100 1140 c0 -5 18 -10 41 -10 24 0 38 4 34 10 -3 6 -22 10 -41 10
-19 0 -34 -4 -34 -10z"/>
</g>
<g>
<path d="M195 1139 c-4 -6 -4 -13 -1 -16 8 -8 36 5 36 17 0 13 -27 13 -35 -1z"/>
</g>
<g>
<path d="M85 1080 c3 -5 22 -10 41 -10 19 0 34 5 34 10 0 6 -18 10 -41 10 -24
0 -38 -4 -34 -10z"/>
</g>
<g>
<path d="M190 1080 c0 -5 5 -10 10 -10 6 0 10 5 10 10 0 6 -4 10 -10 10 -5 0
-10 -4 -10 -10z"/>
</g>
<g>
<path d="M112 1008 c5 -15 87 -18 91 -3 1 6 -20 11 -47 13 -36 2 -47 0 -44
-10z"/>
</g>
<g>
<path d="M957 1514 c-20 -20 42 -34 71 -15 10 6 4 10 -18 15 -40 8 -45 8 -53
0z"/>
</g>
<g>
<path d="M1095 1510 c-4 -6 7 -10 24 -10 17 0 34 0 38 -1 4 0 9 4 11 10 5 14
-65 15 -73 1z"/>
</g>
<g>
<path d="M900 1470 c-13 -9 -13 -11 0 -20 20 -13 57 -13 66 1 14 23 -37 38
-66 19z"/>
</g>
<g>
<path d="M1013 1473 c-26 -10 -13 -33 17 -33 23 0 30 4 30 20 0 20 -19 25 -47
13z"/>
</g>
<g>
<path d="M917 1414 c-4 -4 -7 -11 -7 -16 0 -13 50 -6 53 7 2 12 -36 19 -46 9z"/>
</g>
<g>
<path d="M987 1404 c-11 -12 3 -24 29 -24 16 0 24 5 22 13 -5 13 -40 22 -51
11z"/>
</g>
<g>
<path d="M865 1339 c-10 -15 1 -23 20 -15 9 3 13 10 10 16 -8 13 -22 13 -30
-1z"/>
</g>
<g>
<path d="M970 1320 c20 -13 90 -13 90 0 0 6 -24 10 -52 10 -38 0 -49 -3 -38
-10z"/>
</g>
<g>
<path d="M807 1294 c-13 -13 -7 -24 14 -24 11 0 19 5 17 12 -5 14 -22 21 -31
12z"/>
</g>
<g>
<path d="M720 1270 c0 -5 11 -10 25 -10 14 0 25 5 25 10 0 6 -11 10 -25 10
-14 0 -25 -4 -25 -10z"/>
</g>
<g>
<path d="M900 1270 c0 -5 14 -10 30 -10 17 0 30 5 30 10 0 6 -13 10 -30 10
-16 0 -30 -4 -30 -10z"/>
</g>
<g>
<path d="M725 1222 c-12 -12 10 -22 46 -22 24 0 39 5 39 13 0 11 -74 19 -85 9z"/>
</g>
<g>
<path d="M870 1200 c0 -6 30 -10 70 -10 40 0 70 4 70 10 0 6 -30 10 -70 10
-40 0 -70 -4 -70 -10z"/>
</g>
<g>
<path d="M726 1161 c-3 -5 1 -11 9 -15 18 -6 45 2 45 15 0 12 -47 12 -54 0z"/>
</g>
<g>
<path d="M810 1160 c0 -5 9 -10 19 -10 11 0 23 5 26 10 4 6 -5 10 -19 10 -14
0 -26 -4 -26 -10z"/>
</g>
<g>
<path d="M930 1161 c0 -12 56 -25 70 -16 22 13 8 25 -30 25 -22 0 -40 -4 -40
-9z"/>
</g>
<g>
<path d="M800 1111 c0 -10 40 -22 52 -15 18 11 6 24 -22 24 -16 0 -30 -4 -30
-9z"/>
</g>
<g>
<path d="M930 1101 c0 -12 29 -23 41 -15 18 10 9 24 -16 24 -14 0 -25 -4 -25
-9z"/>
</g>
<g>
<path d="M700 1090 c0 -5 9 -10 20 -10 11 0 20 5 20 10 0 6 -9 10 -20 10 -11
0 -20 -4 -20 -10z"/>
</g>
<g>
<path d="M780 1050 c0 -5 14 -10 30 -10 17 0 30 5 30 10 0 6 -13 10 -30 10
-16 0 -30 -4 -30 -10z"/>
</g>
<g>
<path d="M635 1030 c-11 -17 3 -28 30 -22 28 5 33 17 9 26 -22 8 -32 8 -39 -4z"/>
</g>
<g>
<path d="M765 1001 c-7 -13 17 -24 40 -19 9 1 16 8 16 13 0 14 -48 19 -56 6z"/>
</g>
<g>
<path d="M957 1004 c-16 -17 -5 -25 31 -22 20 2 37 8 37 13 0 12 -57 19 -68 9z"/>
</g>
<g>
<path d="M1590 1510 c0 -5 14 -10 30 -10 17 0 30 5 30 10 0 6 -13 10 -30 10
-16 0 -30 -4 -30 -10z"/>
</g>
<g>
<path d="M1320 1465 c0 -8 9 -15 20 -15 11 0 20 7 20 15 0 8 -9 15 -20 15 -11
0 -20 -7 -20 -15z"/>
</g>
<g>
<path d="M1313 1408 c2 -7 16 -13 32 -13 16 0 30 6 33 13 2 8 -8 12 -33 12
-25 0 -35 -4 -32 -12z"/>
</g>
<g>
<path d="M1330 1345 c0 -10 10 -15 30 -15 20 0 30 5 30 15 0 10 -10 15 -30 15
-20 0 -30 -5 -30 -15z"/>
</g>
<g>
<path d="M1335 1280 c-4 -6 7 -10 24 -10 17 0 31 5 31 10 0 6 -11 10 -24 10
-14 0 -28 -4 -31 -10z"/>
</g>
<g>
<path d="M1375 1240 c-4 -6 7 -10 24 -10 17 0 31 5 31 10 0 6 -11 10 -24 10
-14 0 -28 -4 -31 -10z"/>
</g>
<g>
<path d="M1260 1195 c0 -13 8 -16 38 -13 20 2 37 8 37 13 0 6 -17 11 -37 13
-30 3 -38 0 -38 -13z"/>
</g>
<g>
<path d="M1380 1200 c0 -12 45 -24 59 -15 22 13 10 25 -24 25 -19 0 -35 -4
-35 -10z"/>
</g>
<g>
<path d="M1347 1144 c-4 -4 -4 -10 -2 -14 6 -10 45 0 45 11 0 10 -33 12 -43 3z"/>
</g>
<g>
<path d="M1377 1074 c-14 -14 -7 -25 13 -22 12 2 21 8 21 13 0 12 -24 18 -34
9z"/>
</g>
<g>
<path d="M1390 1020 c0 -5 11 -10 25 -10 14 0 25 5 25 10 0 6 -11 10 -25 10
-14 0 -25 -4 -25 -10z"/>
</g>
<g>
<path d="M417 1303 c-2 -4 -5 -52 -6 -106 -1 -75 2 -98 11 -95 16 5 24 186 10
200 -6 6 -12 6 -15 1z"/>
</g>
<g>
<path d="M2862 1168 c5 -15 77 -18 81 -3 1 6 -18 11 -42 13 -32 2 -42 0 -39
-10z"/>
</g>
<g>
<path d="M2800 1125 c0 -10 7 -15 18 -13 21 4 19 22 -2 26 -10 2 -16 -3 -16
-13z"/>
</g>
<g>
<path d="M2717 1100 c4 -14 0 -20 -11 -20 -9 0 -16 -4 -16 -10 0 -5 9 -10 20
-10 11 0 20 6 20 14 0 7 9 16 21 19 27 7 15 27 -16 27 -18 0 -22 -4 -18 -20z"/>
</g>
<g>
<path d="M2837 1094 c-14 -14 -6 -24 19 -24 16 0 24 5 22 13 -5 14 -31 21 -41
11z"/>
</g>
<g>
<path d="M2640 1036 c0 -14 34 -28 44 -18 15 14 4 32 -19 32 -15 0 -25 -6 -25
-14z"/>
</g>
<g>
<path d="M2755 1031 c-7 -13 17 -24 40 -19 9 1 16 8 16 13 0 14 -48 19 -56 6z"/>
</g>
<g>
<path d="M1955 1120 c-3 -6 1 -13 10 -16 19 -8 30 0 20 15 -8 14 -22 14 -30 1z"/>
</g>
<g>
<path d="M1920 1069 c0 -5 5 -7 10 -4 6 3 10 8 10 11 0 2 -4 4 -10 4 -5 0 -10
-5 -10 -11z"/>
</g>
<g>
<path d="M1966 1059 c-17 -17 -18 -19 -3 -19 9 0 17 5 17 10 0 6 11 10 25 10
14 0 25 5 25 10 0 17 -44 10 -64 -11z"/>
</g>
<g>
<path d="M2080 1030 c0 -5 9 -10 21 -10 11 0 17 5 14 10 -3 6 -13 10 -21 10
-8 0 -14 -4 -14 -10z"/>
</g>
<g>
<path d="M1940 1010 c0 -5 7 -10 15 -10 8 0 15 5 15 10 0 6 -7 10 -15 10 -8 0
-15 -4 -15 -10z"/>
</g>
<g>
<path d="M2100 990 c0 -5 12 -10 26 -10 14 0 23 4 19 10 -3 6 -15 10 -26 10
-10 0 -19 -4 -19 -10z"/>
</g>
</g>
<g>
<path d="M1428 5263 c-49 -2 -88 -8 -88 -13 0 -7 85 -8 233 -4 127 3 408 9
622 13 l390 8 -535 -1 c-294 0 -574 -2 -622 -3z"/>
</g>
<g>
<path d="M1287 5192 c-31 -6 -18 -22 18 -22 32 0 37 -4 56 -45 12 -25 25 -48
30 -51 21 -13 8 -34 -20 -34 -17 0 -33 -4 -36 -10 -8 -12 174 -14 194 -1 18
12 -3 24 -28 16 -32 -10 -34 13 -4 75 24 51 32 60 56 60 15 0 27 5 27 10 0 10
-243 11 -293 2z m192 -24 c0 -7 -11 -35 -23 -63 l-23 -50 -15 36 c-31 73 -31
77 -1 82 53 8 63 7 62 -5z"/>
</g>
<g>
<path d="M2928 653 c6 -2 18 -2 25 0 6 3 1 5 -13 5 -14 0 -19 -2 -12 -5z"/>
</g>
<g>
<path d="M2810 350 c0 -5 7 -10 15 -10 8 0 15 5 15 10 0 6 -7 10 -15 10 -8 0
-15 -4 -15 -10z"/>
</g>
<g>
<path d="M2633 3 c9 -2 25 -2 35 0 9 3 1 5 -18 5 -19 0 -27 -2 -17 -5z"/>
</g>
</g>
</svg>
