<?xml version="1.0" standalone="no"?>
<!DOCTYPE svg PUBLIC "-//W3C//DTD SVG 20010904//EN"
 "http://www.w3.org/TR/2001/REC-SVG-20010904/DTD/svg10.dtd">
<svg version="1.0" xmlns="http://www.w3.org/2000/svg"
 width="300.000000pt" height="537.000000pt" viewBox="0 0 300.000000 537.000000"
 preserveAspectRatio="xMidYMid meet">
<metadata>
Created by potrace 1.15, written by Peter Selinger 2001-2017
</metadata>
<g transform="translate(0.000000,537.000000) scale(0.100000,-0.100000)"
fill="#000000" stroke="none">
<g>
<path d="M7 5363 c-4 -3 -6 -261 -5 -572 1 -552 1 -559 10 -281 5 157 6 375 3
486 -3 111 -2 233 1 271 l7 70 76 7 c74 6 310 6 711 1 719 -10 1659 -12 1654
-4 -3 5 0 9 5 9 6 0 11 -5 11 -11 0 -8 54 -9 196 -5 108 4 220 4 250 0 l54 -6
0 -1824 0 -1824 -58 0 c-48 0 -65 5 -98 29 -50 36 -152 76 -231 91 -70 12
-276 16 -344 5 l-47 -7 -7 41 c-4 22 -6 80 -4 128 1 49 -3 117 -9 153 -6 36
-13 130 -17 210 -3 80 -8 206 -11 280 -5 136 -17 346 -34 627 -8 132 -13 159
-37 212 -17 37 -37 65 -53 73 -14 7 -28 16 -31 21 -3 4 -34 13 -70 19 -75 13
-87 20 -91 56 -3 23 -9 28 -43 32 -30 4 -41 10 -43 25 -2 11 -8 24 -13 30 -5
5 -9 17 -9 27 0 12 -7 18 -21 18 -13 0 -35 15 -52 36 -39 45 -80 66 -112 58
-19 -5 -25 -2 -25 10 0 13 -11 16 -55 16 -69 0 -121 -25 -160 -77 -16 -21 -32
-40 -35 -43 -3 -3 -11 -34 -19 -69 -11 -59 -11 -66 6 -88 10 -14 36 -34 58
-46 77 -43 92 -70 60 -113 -8 -10 -15 -27 -15 -37 0 -10 -7 -28 -15 -40 -14
-23 -33 -106 -54 -242 -6 -38 -13 -151 -16 -250 -3 -99 -7 -236 -9 -305 -3
-69 -1 -224 3 -345 6 -220 -6 -555 -21 -555 -4 0 -8 7 -8 15 0 8 -9 15 -21 15
-16 0 -19 4 -14 20 4 12 -1 36 -12 58 -11 20 -25 56 -33 80 -14 44 -29 52 -54
27 -20 -20 -29 -19 -21 4 4 14 -3 22 -29 35 -48 23 -59 21 -54 -9 4 -21 1 -25
-18 -25 -25 0 -33 -24 -11 -34 6 -3 -5 -4 -25 -1 -29 5 -38 2 -38 -8 0 -8 7
-18 16 -21 10 -4 13 -13 9 -25 -4 -14 0 -23 15 -31 11 -6 20 -17 20 -25 0 -20
-19 -19 -27 1 -5 13 -16 14 -68 9 -40 -5 -65 -3 -69 4 -4 5 -9 41 -13 78 -7
80 -15 93 -57 93 -19 0 -47 11 -66 25 -26 19 -46 25 -86 25 -29 0 -55 4 -58 8
-3 5 -8 45 -12 90 -6 77 -8 81 -36 93 -33 13 -102 20 -135 12 -22 -5 -30 -27
-39 -98 -4 -32 -6 -32 -13 0 -4 19 -16 35 -35 44 -25 12 -31 11 -55 -6 -14
-11 -31 -29 -36 -40 -18 -35 -36 -52 -49 -47 -7 3 -21 -4 -31 -16 -10 -11 -24
-20 -30 -20 -12 0 -24 -52 -26 -107 -1 -13 -7 -23 -15 -23 -11 0 -14 -23 -14
-116 0 -77 3 -113 10 -109 6 4 17 1 25 -5 24 -20 88 17 115 67 12 23 31 50 41
59 21 19 39 11 24 -10 -43 -59 -49 -70 -37 -74 25 -8 -28 -57 -79 -72 -28 -8
-50 -19 -49 -25 3 -24 140 11 140 35 0 6 8 10 17 10 9 0 30 12 45 27 30 29 39
14 13 -21 -19 -25 -19 -36 -1 -36 19 0 55 46 63 79 3 14 13 41 20 60 l15 34
22 -28 c15 -18 39 -33 66 -39 58 -14 65 -36 12 -36 -26 0 -45 6 -57 20 -10 11
-27 20 -38 20 -17 0 -19 -5 -14 -35 4 -27 2 -35 -9 -35 -8 0 -19 -11 -25 -24
-6 -13 -22 -29 -35 -35 -25 -11 -33 -31 -12 -31 19 0 128 74 128 87 0 21 192
2 247 -24 34 -16 69 -11 58 7 -3 5 0 10 8 10 8 0 20 6 26 14 9 11 19 12 44 4
70 -22 120 -28 133 -17 10 8 23 6 50 -10 24 -15 52 -21 87 -21 29 1 78 -2 110
-6 69 -7 95 0 78 20 -7 8 -8 17 -3 20 16 10 22 -6 22 -64 l0 -57 -47 -6 c-27
-3 -90 -9 -141 -13 -70 -5 -98 -11 -110 -24 -13 -14 -47 -20 -147 -29 -71 -6
-157 -14 -190 -17 -33 -3 -103 -5 -156 -5 -75 0 -103 -4 -131 -19 -21 -11 -84
-25 -154 -34 -185 -25 -184 -25 -184 -46 0 -16 4 -18 22 -11 13 5 75 16 138
26 63 9 140 25 170 35 56 18 138 27 335 35 150 7 302 25 350 42 22 8 87 16
145 18 l105 4 -70 -13 c-38 -7 -105 -20 -147 -30 -42 -9 -92 -16 -111 -16 -18
0 -58 -4 -88 -9 -30 -6 -108 -15 -174 -21 -265 -23 -333 -33 -415 -60 -47 -15
-107 -31 -135 -34 -77 -11 -125 -28 -125 -44 0 -10 6 -12 23 -8 12 4 59 13
104 22 45 8 121 27 170 43 76 25 115 31 283 41 107 6 201 13 209 16 8 3 58 9
110 14 53 5 132 19 176 30 100 25 185 36 185 23 0 -5 -39 -17 -87 -27 -49 -9
-110 -24 -137 -32 -27 -8 -62 -14 -78 -14 -18 0 -28 -5 -28 -15 0 -19 -20 -19
-34 0 -9 13 -20 14 -66 5 -59 -11 -117 -17 -250 -25 -104 -7 -133 -13 -125
-25 8 -12 118 -13 165 -1 19 5 73 11 120 13 70 4 77 3 40 -4 -25 -5 -70 -19
-100 -30 -30 -11 -75 -27 -100 -35 -25 -9 -52 -19 -61 -24 -18 -8 -39 7 -39
28 0 28 -37 34 -91 14 -58 -22 -78 -41 -106 -96 -18 -34 -26 -40 -89 -56 -38
-10 -97 -24 -132 -30 -34 -6 -62 -16 -62 -21 0 -6 13 -8 33 -4 145 29 217 43
217 42 0 -1 -9 -29 -21 -61 -14 -40 -20 -75 -17 -106 l5 -46 -38 14 c-38 13
-95 8 -105 -8 -3 -5 -21 -9 -40 -9 -31 0 -34 -3 -34 -30 0 -22 4 -28 15 -24
11 5 15 -1 15 -20 0 -15 -7 -29 -15 -32 -12 -5 -15 -27 -15 -113 0 -122 12
-174 46 -206 28 -26 22 -36 -17 -28 -28 5 -29 4 -29 -30 0 -24 5 -37 18 -42
16 -6 16 -7 0 -16 -15 -8 -18 -25 -18 -98 l0 -88 49 -2 c33 0 55 5 66 15 17
17 12 34 -11 34 -23 0 -16 17 10 24 14 3 31 12 39 20 12 12 16 3 32 -67 10
-47 29 -98 44 -120 24 -35 29 -37 73 -35 28 1 45 6 42 12 -5 16 63 56 83 49 9
-4 25 -15 35 -25 10 -10 33 -18 50 -18 25 0 29 -3 18 -10 -10 -6 98 -10 313
-10 259 0 328 3 325 13 -6 16 -64 36 -110 36 -21 1 -40 7 -45 15 -4 8 -26 16
-48 18 l-40 4 40 7 c111 21 136 37 101 66 -8 7 -84 15 -192 19 -147 7 -193 5
-259 -8 -92 -18 -110 -40 -54 -64 l33 -14 -64 -4 c-36 -2 -69 0 -75 4 -5 5 7
21 30 40 22 18 62 54 88 80 42 41 52 46 82 41 27 -4 36 -1 47 16 12 19 22 21
108 21 112 0 143 -8 211 -51 27 -18 61 -35 73 -36 23 -3 23 -1 29 119 5 115
-1 166 -17 140 -3 -6 -11 -45 -16 -88 -6 -42 -12 -80 -15 -83 -3 -3 -4 37 -3
88 3 83 5 94 21 97 30 4 30 10 3 51 -16 22 -26 52 -26 73 0 19 -4 51 -9 71 -6
25 -4 43 5 60 7 13 13 42 14 64 0 30 3 36 12 27 7 -7 43 -12 90 -12 76 0 78
-1 78 -24 0 -36 26 -56 71 -56 38 0 39 -1 39 -37 1 -68 64 -113 159 -113 40 0
49 -3 47 -17 -1 -13 18 -27 62 -48 46 -22 64 -37 69 -55 3 -14 12 -32 19 -40
11 -13 11 -22 -3 -53 -15 -33 -22 -37 -72 -47 -152 -30 -191 -63 -133 -112 27
-23 41 -25 161 -31 179 -10 261 1 261 33 0 13 9 21 28 25 69 14 77 19 75 50
-2 17 -3 43 -3 60 -1 16 -8 37 -16 46 -11 12 -14 33 -12 70 l3 54 45 1 c71 1
77 3 109 30 25 21 30 31 25 52 -4 15 -9 30 -13 34 -3 4 -5 27 -3 52 3 37 8 46
31 56 30 12 66 64 56 80 -3 5 -2 16 2 23 12 20 113 1 113 -21 0 -28 -58 -182
-95 -255 -20 -38 -33 -72 -30 -77 16 -26 100 -50 177 -50 62 0 80 -3 85 -16
14 -37 -68 -227 -124 -286 -41 -42 -39 -64 7 -81 17 -6 30 -14 30 -18 0 -4
-107 -10 -237 -13 -368 -10 -433 -13 -440 -20 -3 -3 276 -6 620 -6 l627 0 0
278 c0 177 -4 272 -10 262 -5 -8 -9 -124 -9 -259 0 -134 -2 -246 -4 -248 -3
-2 -56 -2 -118 -1 -95 3 -107 5 -71 12 52 11 54 28 7 76 -44 45 -72 125 -81
227 -5 60 -3 86 8 109 9 18 12 38 7 54 -17 57 -9 88 41 172 27 45 57 98 67
115 18 35 51 47 114 41 l34 -3 3 -90 c1 -49 4 -97 6 -105 2 -8 4 1051 5 2355
l1 2370 -1493 3 c-821 1 -1496 -1 -1500 -5z m1531 -1539 c28 -13 51 -34 39
-34 -3 0 -26 10 -52 21 -36 16 -59 20 -92 15 -25 -3 -43 -2 -43 4 0 16 114 12
148 -6z m-13 -44 c7 -11 -9 -11 -45 0 -24 8 -24 8 7 9 17 1 35 -3 38 -9z m-68
-36 c-3 -3 -12 -4 -19 -1 -8 3 -5 6 6 6 11 1 17 -2 13 -5z m-57 -14 c11 -7 5
-10 -25 -10 -23 0 -53 -9 -70 -20 -35 -23 -53 -26 -31 -5 8 8 19 15 25 15 6 0
11 4 11 9 0 8 14 13 65 19 6 1 17 -3 25 -8z m138 -5 c14 -14 -10 -14 -39 0
l-34 15 34 -5 c19 -3 37 -7 39 -10z m93 -22 c13 -16 12 -17 -3 -4 -10 7 -18
15 -18 17 0 8 8 3 21 -13z m-213 -9 c39 -11 23 -22 -20 -13 -25 4 -47 4 -52
-2 -13 -12 -26 -12 -26 0 0 17 58 25 98 15z m98 -10 c30 -8 54 -18 54 -20 0
-8 -74 8 -100 22 -34 18 -19 17 46 -2z m199 6 c3 -5 -1 -10 -9 -10 -9 0 -16 5
-16 10 0 6 4 10 9 10 6 0 13 -4 16 -10z m-418 -45 c-7 -14 -15 -25 -19 -25
-11 0 -10 8 2 31 16 28 30 23 17 -6z m262 -11 c23 -4 43 -10 46 -14 8 -13 -93
8 -119 25 -35 23 -33 29 3 11 16 -9 47 -18 70 -22z m-100 -10 c29 -14 65 -26
82 -26 19 -1 27 -4 20 -11 -15 -15 -73 0 -111 28 -37 27 -66 32 -73 13 -2 -7
-8 -9 -13 -5 -9 9 13 27 33 27 6 0 34 -12 62 -26z m276 16 c3 -5 1 -10 -4 -10
-6 0 -11 5 -11 10 0 6 2 10 4 10 3 0 8 -4 11 -10z m75 -19 c0 -5 3 -17 6 -26
6 -14 3 -14 -29 2 -28 14 -31 19 -18 25 24 10 41 9 41 -1z m-377 -28 c-7 -2
-21 -2 -30 0 -10 3 -4 5 12 5 17 0 24 -2 18 -5z m210 0 c-7 -2 -19 -2 -25 0
-7 3 -2 5 12 5 14 0 19 -2 13 -5z m127 -8 c0 -8 -4 -15 -10 -15 -5 0 -10 7
-10 15 0 8 5 15 10 15 6 0 10 -7 10 -15z m-40 -15 c0 -5 -4 -10 -10 -10 -5 0
-10 5 -10 10 0 6 5 10 10 10 6 0 10 -4 10 -10z m-113 -14 c0 -10 -18 -16 -58
-21 -32 -4 -75 -15 -96 -26 -46 -23 -51 -24 -49 -1 0 9 -5 16 -12 14 -8 -1
-12 3 -10 10 6 17 49 27 70 17 9 -5 43 -3 80 5 34 8 66 14 69 15 3 1 6 -5 6
-13z m278 -26 c27 -7 25 -8 -17 -9 -27 0 -48 4 -48 9 0 11 21 11 65 0z m63
-28 c2 -7 -2 -10 -12 -6 -9 3 -16 11 -16 16 0 13 23 5 28 -10z m-344 -33 c-6
-10 -39 4 -49 21 -3 5 7 5 25 -1 16 -6 27 -15 24 -20z m304 19 c19 -19 14 -30
-8 -18 -11 6 -20 15 -20 20 0 14 14 12 28 -2z m-137 -35 c13 -15 12 -15 -8 -4
-24 12 -29 21 -14 21 5 0 15 -7 22 -17z m238 -43 c0 -11 -3 -10 -14 4 -8 11
-15 27 -15 35 0 11 4 10 15 -5 8 -10 14 -26 14 -34z m-69 -82 c0 -34 -2 -59
-4 -57 -8 10 -13 129 -5 123 5 -3 9 -33 9 -66z m88 27 c-3 -3 -9 2 -12 12 -6
14 -5 15 5 6 7 -7 10 -15 7 -18z m-600 -101 c-1 -58 -5 -107 -10 -110 -4 -3
-8 21 -8 53 0 59 10 163 16 163 1 0 2 -48 2 -106z m432 42 c0 -3 -4 -8 -10
-11 -5 -3 -10 -1 -10 4 0 6 5 11 10 11 6 0 10 -2 10 -4z m-3 -78 c-3 -7 -5 -2
-5 12 0 14 2 19 5 13 2 -7 2 -19 0 -25z m90 -60 c-2 -18 -4 -6 -4 27 0 33 2
48 4 33 2 -15 2 -42 0 -60z m100 -15 c-2 -16 -4 -5 -4 22 0 28 2 40 4 28 2
-13 2 -35 0 -50z m-621 -145 c-3 -62 -5 -137 -5 -166 -1 -35 -5 -51 -12 -47
-7 5 -8 59 -5 163 5 181 3 162 16 162 6 0 9 -41 6 -112z m669 -178 c3 -5 -1
-10 -9 -10 -9 0 -16 5 -16 10 0 6 4 10 9 10 6 0 13 -4 16 -10z m-14 -118 c-4
-67 -11 -66 -11 3 0 32 3 55 7 51 4 -4 6 -28 4 -54z m-670 -77 l-9 -60 -1 86
c0 47 2 89 7 93 11 12 13 -53 3 -119z m535 28 c-11 -11 -19 6 -11 24 8 17 8
17 12 0 3 -10 2 -21 -1 -24z m152 -25 c-6 -18 -28 -21 -28 -4 0 9 7 16 16 16
9 0 14 -5 12 -12z m-148 -74 c0 -8 -5 -12 -10 -9 -6 4 -8 11 -5 16 9 14 15 11
15 -7z m140 -15 c0 -17 -4 -28 -10 -24 -5 3 -10 17 -10 31 0 13 5 24 10 24 6
0 10 -14 10 -31z m-513 -31 c-3 -7 -5 -2 -5 12 0 14 2 19 5 13 2 -7 2 -19 0
-25z m370 -140 c-2 -24 -4 -5 -4 42 0 47 2 66 4 43 2 -24 2 -62 0 -85z m158
82 c-3 -5 -10 -10 -16 -10 -5 0 -9 5 -9 10 0 6 7 10 16 10 8 0 12 -4 9 -10z
m5 -36 c0 -2 -9 -4 -21 -4 -11 0 -18 4 -14 10 5 8 35 3 35 -6z m-703 -326 c-1
-46 -3 -9 -3 82 0 91 2 128 3 83 2 -46 2 -120 0 -165z m160 220 c-3 -8 -6 -5
-6 6 -1 11 2 17 5 13 3 -3 4 -12 1 -19z m380 -130 c-2 -24 -4 -5 -4 42 0 47 2
66 4 43 2 -24 2 -62 0 -85z m184 79 c-1 -4 -1 -21 -1 -39 0 -17 -3 -28 -7 -24
-5 4 -8 11 -8 14 0 4 -4 13 -8 20 -5 7 -3 12 3 12 7 0 9 7 6 16 -3 9 -1 14 5
12 6 -2 10 -7 10 -11z m-564 -64 c-2 -16 -4 -5 -4 22 0 28 2 40 4 28 2 -13 2
-35 0 -50z m563 -27 c0 -11 -19 -15 -25 -6 -3 5 1 10 9 10 9 0 16 -2 16 -4z
m-1726 -38 c3 -13 6 -50 6 -84 0 -81 16 -113 55 -112 16 0 38 5 49 10 28 15
34 -4 31 -86 -3 -64 -23 -148 -24 -103 -1 25 -20 21 -31 -7 -7 -19 -14 -23
-37 -18 -31 5 -72 47 -73 74 0 23 -11 48 -20 48 -4 0 -5 -12 -2 -26 4 -21 1
-25 -14 -22 -16 3 -19 11 -17 48 2 25 -2 55 -8 67 -8 15 -8 47 0 118 6 54 14
102 17 106 3 5 18 9 33 9 21 0 30 -6 35 -22z m1721 2 c-3 -5 -10 -10 -16 -10
-5 0 -9 5 -9 10 0 6 7 10 16 10 8 0 12 -4 9 -10z m5 -50 c0 -5 -2 -10 -4 -10
-3 0 -8 5 -11 10 -3 6 -1 10 4 10 6 0 11 -4 11 -10z m-555 -20 c3 -5 1 -10 -4
-10 -6 0 -11 5 -11 10 0 6 2 10 4 10 3 0 8 -4 11 -10z m550 -40 c3 -5 1 -10
-4 -10 -6 0 -11 5 -11 10 0 6 2 10 4 10 3 0 8 -4 11 -10z m-1513 -116 c7 -43
3 -177 -8 -218 -5 -22 -12 -26 -40 -26 -19 0 -34 4 -34 10 0 5 10 35 21 66 13
34 23 87 25 133 2 42 3 78 3 79 1 2 7 2 13 0 7 -3 16 -22 20 -44z m1531 19
c-7 -2 -19 -2 -25 0 -7 3 -2 5 12 5 14 0 19 -2 13 -5z m-1949 -77 c-9 -15 -19
-24 -22 -22 -2 3 3 17 12 32 10 14 20 23 23 21 2 -3 -3 -17 -13 -31z m1953 8
c-3 -3 -12 -4 -19 -1 -8 3 -5 6 6 6 11 1 17 -2 13 -5z m-741 -41 c-11 -11 -19
6 -11 24 8 17 8 17 12 0 3 -10 2 -21 -1 -24z m744 -19 c0 -8 -5 -12 -10 -9 -6
4 -8 11 -5 16 9 14 15 11 15 -7z m425 -23 c99 -21 235 -85 235 -110 0 -3 -34
-17 -75 -30 l-75 -23 -26 21 c-43 34 -118 25 -151 -18 -7 -9 -13 -35 -13 -58
0 -29 -6 -49 -20 -63 -27 -27 -44 -26 -37 2 9 32 -3 131 -18 151 -8 11 -32 20
-61 23 -46 5 -51 4 -87 -32 -21 -20 -39 -35 -41 -33 -5 5 -9 82 -7 130 1 31 5
37 34 47 55 17 243 14 342 -7z m-2508 -23 c-3 -8 -6 -5 -6 6 -1 11 2 17 5 13
3 -3 4 -12 1 -19z m1330 0 c-3 -8 -6 -5 -6 6 -1 11 2 17 5 13 3 -3 4 -12 1
-19z m763 -12 c0 -29 -3 -33 -20 -29 -29 8 -35 23 -10 23 17 0 20 4 15 20 -4
11 -2 20 4 20 6 0 11 -15 11 -34z m-1036 -38 c-10 -16 -19 -7 -20 18 -2 23 -1
24 11 7 7 -10 11 -21 9 -25z m456 32 c0 -5 -4 -10 -10 -10 -5 0 -10 5 -10 10
0 6 5 10 10 10 6 0 10 -4 10 -10z m-671 -40 c21 -11 -57 -20 -85 -10 -39 15
-18 32 30 25 22 -4 47 -11 55 -15z m155 4 c4 -10 1 -14 -6 -12 -15 5 -23 28
-10 28 5 0 13 -7 16 -16z m-381 -21 c2 -5 -2 -18 -8 -31 -11 -21 -12 -21 -28
-4 -13 14 -14 21 -5 30 14 14 35 16 41 5z m323 -25 c11 -18 -3 -18 -40 0 -20
10 -34 21 -30 24 7 8 62 -11 70 -24z m568 -40 c4 -24 3 -38 -4 -38 -5 0 -10
19 -10 42 0 49 5 47 14 -4z m1365 36 l31 -6 0 -144 0 -144 -49 0 c-64 0 -81
-7 -81 -34 0 -12 -9 -25 -22 -31 -18 -8 -23 -18 -23 -45 0 -19 4 -40 8 -47 4
-6 3 -14 -3 -18 -13 -8 -13 -45 -1 -45 6 0 13 5 16 10 17 27 25 3 24 -69 -2
-85 3 -103 27 -94 13 5 15 16 11 50 -6 58 1 83 24 83 10 0 21 5 24 10 3 6 -3
10 -14 10 -11 0 -23 5 -26 10 -4 6 12 10 39 10 l46 0 0 -130 0 -130 -55 0
c-39 0 -57 4 -61 14 -3 8 -18 19 -32 25 -34 14 -172 30 -205 24 -34 -7 -43 14
-19 40 11 12 30 46 42 76 12 30 32 78 45 105 13 28 27 65 31 81 4 17 11 35 15
41 17 22 -10 70 -47 83 -46 17 -278 30 -328 19 -31 -7 -42 -5 -57 8 -13 12
-29 15 -54 11 l-35 -6 0 60 c0 33 4 59 10 59 6 0 10 -9 10 -20 0 -11 4 -20 10
-20 5 0 7 -7 4 -15 -8 -21 14 -19 65 6 29 13 41 25 37 35 -4 9 1 14 14 14 13
0 20 -7 20 -19 0 -11 5 -23 10 -26 18 -11 0 -25 -31 -25 -20 0 -29 -5 -29 -16
0 -17 -1 -17 110 2 19 4 44 14 55 24 11 10 37 21 58 24 23 4 37 12 37 21 0 8
-3 15 -7 15 -5 0 -9 11 -9 25 -2 20 3 25 20 25 32 0 39 -11 19 -32 -11 -12
-13 -22 -7 -28 7 -7 25 3 54 27 27 24 75 50 129 69 96 35 105 37 150 28z
m-1755 -25 c30 -7 29 -7 -11 -8 -23 -1 -44 3 -47 8 -8 12 5 22 17 14 6 -3 24
-10 41 -14z m987 4 c1 -5 3 -83 4 -175 l3 -168 -27 0 c-22 1 -24 3 -11 13 12
9 15 39 16 135 1 75 -2 122 -8 122 -6 0 -7 7 -4 15 3 8 9 22 12 30 4 10 0 15
-12 15 -16 0 -17 2 -4 10 18 12 29 13 31 3z m202 -34 c4 -15 -1 -22 -19 -30
-45 -16 -49 -13 -38 29 8 29 49 31 57 1z m-806 -111 c-2 -13 -4 -5 -4 17 -1
22 1 32 4 23 2 -10 2 -28 0 -40z m743 37 c-7 -8 -20 -15 -29 -15 -13 1 -13 3
3 15 26 19 42 19 26 0z m-340 -20 c0 -14 -4 -25 -10 -25 -11 0 -14 33 -3 43
11 11 13 8 13 -18z m-583 -167 c-2 -24 -4 -5 -4 42 0 47 2 66 4 43 2 -24 2
-62 0 -85z m193 52 c0 -33 -4 -60 -10 -60 -6 0 -10 27 -10 60 0 33 4 60 10 60
6 0 10 -27 10 -60z m377 28 c-3 -8 -6 -5 -6 6 -1 11 2 17 5 13 3 -3 4 -12 1
-19z m343 -27 c0 -5 -13 -12 -29 -16 -69 -15 -66 -43 20 -187 34 -56 63 -117
66 -135 3 -18 10 -36 14 -39 5 -3 4 -14 -2 -26 -6 -11 -8 -35 -4 -54 l6 -34
-60 0 -60 0 -5 43 c-3 23 -8 71 -11 107 -3 36 -9 88 -13 115 -4 28 -7 88 -7
135 l0 85 35 6 c19 4 38 7 43 8 4 0 7 -3 7 -8z m-1042 -13 c-3 -7 -29 -17 -60
-23 -30 -5 -63 -18 -72 -27 -18 -19 -96 -26 -96 -9 0 11 62 41 87 41 10 0 41
7 68 14 64 18 78 19 73 4z m1307 2 c3 -5 1 -10 -4 -10 -6 0 -11 -3 -11 -7 0
-5 21 -9 48 -10 96 -5 102 -6 102 -20 0 -21 -57 -41 -151 -52 -114 -15 -171
-14 -210 4 -19 8 -29 14 -23 15 7 0 14 9 17 21 3 11 15 23 27 26 16 4 18 8 8
14 -8 5 10 9 47 9 33 0 67 5 75 10 20 13 67 13 75 0z m-255 -40 c0 -5 -4 -10
-10 -10 -5 0 -10 5 -10 10 0 6 5 10 10 10 6 0 10 -4 10 -10z m605 0 c3 -5 -1
-10 -10 -10 -9 0 -13 5 -10 10 3 6 8 10 10 10 2 0 7 -4 10 -10z m-1660 -10 c3
-5 -1 -10 -10 -10 -9 0 -13 5 -10 10 3 6 8 10 10 10 2 0 7 -4 10 -10z m712
-47 c-3 -10 -5 -2 -5 17 0 19 2 27 5 18 2 -10 2 -26 0 -35z m-1114 30 c-7 -2
-19 -2 -25 0 -7 3 -2 5 12 5 14 0 19 -2 13 -5z m217 -24 c8 1 50 4 94 7 53 4
81 3 85 -5 9 -14 13 -367 5 -393 -5 -15 -17 -18 -86 -18 l-81 0 7 79 7 80 -63
-4 c-39 -2 -85 -13 -121 -29 -42 -19 -75 -26 -120 -26 -60 0 -63 1 -75 30 -20
45 -40 61 -66 54 -19 -4 -34 5 -77 51 -30 31 -55 60 -57 64 -4 11 145 72 198
81 25 4 65 12 90 18 66 17 87 19 170 14 41 -2 82 -4 90 -3z m1615 -33 c-12
-19 -33 -27 -98 -40 -45 -9 -91 -18 -102 -20 -11 -2 5 -4 36 -5 31 0 70 4 87
10 41 14 60 8 39 -13 -9 -8 -43 -18 -76 -22 -80 -9 -79 -26 1 -19 75 7 74 -12
-2 -22 -28 -4 -50 -11 -50 -17 0 -6 16 -7 40 -3 24 4 40 3 40 -3 0 -13 -25
-22 -61 -22 -19 0 -28 -4 -23 -11 3 -6 17 -8 31 -4 23 5 25 4 18 -17 -4 -13
-11 -41 -15 -63 l-8 -40 1 49 c1 56 -9 65 -46 42 -23 -15 -24 -15 -35 9 -8 17
-20 25 -36 25 -18 0 -33 13 -60 54 -20 30 -36 59 -36 64 0 5 -10 21 -21 36
-32 40 -15 50 60 35 34 -6 95 -9 136 -7 41 3 72 1 69 -4 -3 -4 -21 -8 -40 -8
-19 0 -34 -5 -34 -10 0 -22 135 12 163 42 25 25 41 13 22 -16z m-1300 -134
c-10 -10 -11 3 -5 73 l5 70 3 -69 c2 -37 0 -71 -3 -74z m195 128 c0 -5 -4 -10
-10 -10 -5 0 -10 5 -10 10 0 6 5 10 10 10 6 0 10 -4 10 -10z m1390 -15 c0 -8
-5 -15 -11 -15 -5 0 -8 4 -4 9 3 5 -3 12 -12 14 -14 4 -13 5 5 6 13 1 22 -5
22 -14z m-2521 -22 c7 -16 39 -50 71 -78 32 -27 59 -56 59 -62 1 -7 6 -13 11
-13 18 0 10 -23 -17 -52 -20 -21 -27 -40 -31 -83 -2 -30 -9 -55 -15 -55 -6 0
-8 20 -5 49 4 38 2 48 -9 44 -12 -5 -15 -18 -18 -82 0 -14 -6 -26 -13 -29 -15
-5 -17 94 -2 103 15 9 12 25 -4 25 -21 0 -38 -62 -30 -105 6 -33 4 -37 -12
-33 -15 3 -19 12 -18 48 0 25 4 65 8 90 5 28 5 41 -1 35 -15 -17 -35 -85 -35
-121 0 -19 -4 -31 -9 -28 -14 8 -10 91 6 131 18 43 18 43 1 43 -29 0 -53 -142
-33 -196 6 -16 2 -23 -17 -32 -28 -13 -43 5 -19 23 11 8 12 17 3 40 -12 31 -7
80 16 159 18 62 18 74 0 56 -21 -23 -49 -155 -43 -206 6 -57 -10 -58 -18 0 -8
53 24 190 56 243 16 25 18 34 8 31 -19 -5 -67 -103 -78 -158 -6 -30 -9 -36
-10 -19 -2 44 37 156 66 190 31 36 80 69 104 69 9 0 22 -12 28 -27z m1730 1
c-6 -8 -18 -14 -25 -14 -11 0 -10 4 3 19 9 11 20 18 25 15 5 -3 4 -12 -3 -20z
m716 6 c-3 -5 -10 -10 -16 -10 -5 0 -9 5 -9 10 0 6 7 10 16 10 8 0 12 -4 9
-10z m-1328 -57 c-3 -10 -5 -2 -5 17 0 19 2 27 5 18 2 -10 2 -26 0 -35z m1368
27 c4 -6 -7 -10 -27 -9 -31 1 -32 1 -8 9 14 4 26 8 27 9 1 1 5 -3 8 -9z m-735
-83 c0 -30 5 -79 11 -111 9 -43 9 -60 0 -69 -8 -8 -11 -8 -11 1 0 6 -11 22
-25 36 -20 20 -22 27 -11 33 18 11 29 50 16 58 -5 3 -10 24 -10 46 0 24 -5 39
-12 39 -9 0 -8 4 2 10 32 20 40 11 40 -43z m-810 -44 c0 -10 -5 -25 -10 -33
-7 -11 -10 -7 -10 18 0 17 5 32 10 32 6 0 10 -8 10 -17z m-709 -62 c6 -30 5
-31 -10 -16 -10 8 -27 15 -39 15 -28 0 -28 12 1 26 32 16 41 12 48 -25z m899
3 c0 -21 -4 -33 -10 -29 -5 3 -10 19 -10 36 0 16 5 29 10 29 6 0 10 -16 10
-36z m-519 -64 c-2 -36 -7 -76 -12 -89 -9 -22 -13 -23 -56 -17 -26 3 -48 8
-50 10 -7 6 20 140 30 154 6 8 26 12 51 10 l41 -3 -4 -65z m979 60 c0 -5 -4
-10 -9 -10 -6 0 -13 5 -16 10 -3 6 1 10 9 10 9 0 16 -4 16 -10z m422 -25 c4
-17 1 -25 -8 -25 -8 0 -14 11 -14 25 0 14 4 25 9 25 5 0 11 -11 13 -25z
m-1091 -98 c-8 -8 -11 5 -11 44 0 72 14 86 18 18 2 -28 -2 -57 -7 -62z m1139
99 c0 -8 -4 -18 -10 -21 -5 -3 -10 3 -10 14 0 12 5 21 10 21 6 0 10 -6 10 -14z
m-1860 -6 c0 -5 7 -10 15 -10 8 0 15 -9 15 -21 l0 -20 -29 20 c-16 12 -36 21
-45 21 -27 0 -18 -20 17 -35 41 -18 62 -49 42 -65 -8 -6 -26 -10 -42 -7 -27 4
-27 5 -5 12 12 4 22 11 22 15 0 9 -39 23 -57 21 -16 -2 -17 33 -3 60 11 20 70
28 70 9z m275 -42 c-4 -29 -12 -60 -17 -68 -6 -11 -7 -7 -3 13 4 21 2 28 -7
25 -8 -3 -13 -22 -14 -48 -1 -71 -24 -62 -24 9 0 34 -4 61 -10 61 -6 0 -10
-28 -10 -65 0 -40 -4 -65 -11 -65 -7 0 -8 14 -4 40 7 44 -1 100 -16 100 -5 0
-9 -18 -9 -41 0 -24 -4 -38 -10 -34 -5 3 -10 24 -10 46 0 35 -2 40 -19 34 -11
-3 -22 -1 -26 5 -4 6 13 10 47 11 29 0 71 6 93 14 22 7 44 13 48 14 5 1 6 -23
2 -51z m390 32 c3 -5 1 -10 -4 -10 -6 0 -11 5 -11 10 0 6 2 10 4 10 3 0 8 -4
11 -10z m1443 -35 c17 -3 32 -11 32 -17 0 -6 -7 -7 -17 -3 -10 4 -38 9 -63 11
l-45 4 58 -16 c37 -11 57 -21 57 -31 0 -10 -7 -14 -20 -10 -11 3 -23 1 -26 -4
-3 -5 -55 -9 -115 -9 -74 0 -108 3 -104 10 4 6 16 10 28 8 18 -2 22 2 19 21
-2 21 1 23 29 17 24 -5 30 -3 26 8 -3 8 -3 16 0 19 5 6 86 1 141 -8z m-1998
-25 c0 -5 -5 -10 -11 -10 -5 0 -7 5 -4 10 3 6 8 10 11 10 2 0 4 -4 4 -10z
m1460 0 c0 -5 -4 -10 -10 -10 -5 0 -10 5 -10 10 0 6 5 10 10 10 6 0 10 -4 10
-10z m270 6 c0 -2 -7 -6 -15 -10 -8 -3 -15 -1 -15 4 0 6 7 10 15 10 8 0 15 -2
15 -4z m330 -25 c0 -12 -20 -25 -27 -18 -7 7 6 27 18 27 5 0 9 -4 9 -9z
m-2542 -90 c48 -32 103 -64 123 -71 32 -12 37 -18 42 -53 6 -47 -5 -82 -29
-91 -23 -9 -31 2 -11 17 11 8 14 21 10 40 -5 28 -23 38 -23 13 0 -7 -7 -19
-16 -27 -8 -7 -13 -21 -11 -30 3 -10 -2 -24 -11 -31 -14 -12 -15 -7 -9 45 6
45 4 57 -7 57 -9 0 -16 -20 -22 -62 -5 -36 -15 -63 -23 -66 -9 -3 -11 2 -8 14
3 11 9 43 12 72 5 41 4 52 -7 52 -10 0 -17 -24 -24 -80 -10 -75 -18 -99 -28
-89 -2 2 0 24 4 49 14 70 12 152 -2 147 -7 -2 -13 -17 -14 -33 0 -16 -5 -54
-9 -84 -4 -30 -9 -64 -11 -75 -1 -11 -3 -22 -3 -25 -1 -2 -6 1 -12 7 -9 9 -8
28 1 76 14 67 7 134 -11 106 -7 -11 -9 -9 -9 9 0 13 6 22 15 22 8 0 15 9 15
20 0 11 -5 17 -12 15 -14 -6 -19 48 -6 61 4 4 5 18 2 30 -4 13 -3 24 0 24 4 0
46 -26 94 -59z m-190 19 c-5 -17 -7 -38 -3 -48 7 -14 9 -13 15 8 4 18 12 24
26 22 10 -2 21 -6 23 -8 2 -2 -1 -48 -8 -101 -7 -54 -15 -117 -18 -140 -3 -24
-9 -43 -13 -43 -5 0 -12 -9 -15 -20 -3 -11 -12 -20 -19 -20 -26 0 -44 36 -50
104 -6 58 -5 68 8 63 12 -5 14 6 13 61 0 42 4 67 11 70 7 2 12 13 12 23 0 20
17 59 25 59 2 0 -1 -14 -7 -30z m1957 20 c3 -5 1 -10 -4 -10 -6 0 -11 5 -11
10 0 6 2 10 4 10 3 0 8 -4 11 -10z m380 -102 c-5 -34 -19 -89 -54 -208 -8 -28
-39 -37 -70 -20 -28 14 -26 27 8 96 16 33 34 77 41 99 7 22 22 64 33 94 l21
54 13 -37 c7 -21 10 -56 8 -78z m229 85 c6 -12 21 -14 72 -8 43 4 64 3 64 -4
0 -7 -23 -11 -57 -11 -62 0 -64 -16 -3 -23 30 -3 28 -4 -12 -5 -56 -2 -66 -17
-11 -17 20 0 38 -6 40 -12 3 -9 -8 -13 -36 -13 -23 0 -41 -4 -41 -10 0 -5 11
-10 25 -10 14 0 25 -4 25 -10 0 -5 -16 -10 -35 -10 -19 0 -35 -5 -35 -11 0 -7
9 -9 24 -5 29 7 38 -1 26 -24 -6 -12 -17 -16 -30 -13 -11 3 -20 0 -20 -6 0 -6
7 -11 16 -11 24 0 11 -25 -16 -28 -34 -5 -59 -41 -60 -87 l-1 -40 -15 29 c-11
18 -14 40 -9 62 5 29 3 34 -14 34 -12 0 -19 6 -19 18 0 9 -22 64 -50 122 -27
58 -48 107 -47 110 2 3 50 4 107 2 78 -3 105 -8 112 -19z m-1884 -20 c24 -24
25 -24 6 -39 -30 -21 -44 -17 -39 10 5 22 1 26 -32 32 -20 3 -93 4 -161 2 -68
-3 -126 -2 -130 1 -11 11 159 26 246 23 74 -4 88 -7 110 -29z m1227 -30 c-2
-16 -4 -5 -4 22 0 28 2 40 4 28 2 -13 2 -35 0 -50z m-1019 48 c13 -8 -25 -38
-94 -74 -64 -33 -294 -79 -294 -59 0 5 19 12 43 16 69 11 187 56 241 91 52 34
81 41 104 26z m-588 -26 c0 -8 -9 -15 -20 -15 -25 0 -26 17 -2 23 9 3 18 5 20
6 1 0 2 -6 2 -14z m620 -19 c0 -7 3 -34 6 -60 6 -38 4 -46 -10 -46 -10 0 -16
9 -16 25 0 14 -4 25 -10 25 -5 0 -10 -12 -10 -27 -1 -24 -2 -26 -11 -10 -7 12
-17 16 -30 12 -11 -4 -19 -2 -19 4 0 6 -4 11 -10 11 -5 0 -10 -8 -10 -17 0
-13 -3 -14 -12 -5 -19 19 -30 14 -26 -15 2 -15 -2 -28 -9 -30 -8 -3 -13 5 -13
21 0 30 0 29 -34 16 -14 -5 -26 -17 -26 -27 0 -13 -3 -14 -11 -6 -20 20 -3 38
57 58 33 10 84 34 114 52 60 35 80 40 80 19z m300 4 c0 -5 -4 -10 -10 -10 -5
0 -10 5 -10 10 0 6 5 10 10 10 6 0 10 -4 10 -10z m697 -62 c-3 -8 -6 -5 -6 6
-1 11 2 17 5 13 3 -3 4 -12 1 -19z m-1487 -8 c0 -5 -4 -10 -10 -10 -5 0 -10 5
-10 10 0 6 5 10 10 10 6 0 10 -4 10 -10z m1940 0 c0 -5 -4 -10 -10 -10 -5 0
-10 5 -10 10 0 6 5 10 10 10 6 0 10 -4 10 -10z m-1729 -62 c-4 -27 -6 -29 -9
-10 -2 12 -8 22 -13 22 -6 0 -7 5 -4 10 15 24 31 9 26 -22z m-41 -3 c0 -14 -4
-25 -10 -25 -5 0 -10 11 -10 25 0 14 5 25 10 25 6 0 10 -11 10 -25z m120 10
c0 -8 -4 -15 -10 -15 -5 0 -7 7 -4 15 4 8 8 15 10 15 2 0 4 -7 4 -15z m85 5
c3 -5 1 -10 -4 -10 -6 0 -11 5 -11 10 0 6 2 10 4 10 3 0 8 -4 11 -10z m-255
-15 c0 -8 -4 -15 -10 -15 -5 0 -7 7 -4 15 4 8 8 15 10 15 2 0 4 -7 4 -15z
m380 5 c0 -5 -4 -10 -10 -10 -5 0 -10 5 -10 10 0 6 5 10 10 10 6 0 10 -4 10
-10z m1470 -2 c0 -4 -13 -8 -30 -8 -16 0 -30 4 -30 8 0 5 14 9 30 9 17 0 30
-4 30 -9z m18 -39 c2 -10 -11 -15 -48 -16 -38 -2 -50 1 -50 11 0 10 13 16 38
19 49 5 56 3 60 -14z m-1641 5 c-3 -3 -12 -4 -19 -1 -8 3 -5 6 6 6 11 1 17 -2
13 -5z m-319 -16 c-5 -16 -48 -24 -48 -10 0 11 17 20 38 21 8 1 12 -5 10 -11z
m1612 2 c0 -13 -49 -44 -57 -37 -3 4 6 11 21 16 14 6 26 15 26 21 0 5 2 10 5
10 3 0 5 -4 5 -10z m-1255 -10 c3 -5 1 -10 -4 -10 -6 0 -11 5 -11 10 0 6 2 10
4 10 3 0 8 -4 11 -10z m134 -25 l24 -35 -39 -34 c-27 -24 -69 -43 -139 -65
-133 -42 -175 -49 -175 -28 0 11 17 21 49 31 80 23 166 74 207 121 22 24 41
45 44 45 3 0 16 -16 29 -35z m-289 10 c14 -3 49 -10 78 -14 106 -16 91 -47
-50 -100 l-81 -32 -19 21 c-26 28 -81 27 -100 -2 l-15 -23 -79 18 c-175 39
-263 67 -209 67 10 0 26 6 34 13 9 7 41 21 72 30 51 15 60 16 92 2 48 -20 73
-19 89 4 7 10 22 21 33 24 22 6 116 1 155 -8z m953 -2 c-7 -2 -19 -2 -25 0 -7
3 -2 5 12 5 14 0 19 -2 13 -5z m787 -10 c0 -7 -10 -13 -22 -13 -13 0 -33 -3
-45 -6 -18 -5 -23 -2 -23 13 0 17 7 20 45 20 31 0 45 -5 45 -14z m-700 -23 c0
-5 -21 -9 -47 -9 -43 1 -45 2 -18 9 44 11 65 11 65 0z m849 -27 c8 -27 7 -39
-1 -44 -7 -4 -15 -6 -18 -4 -6 4 -1 85 6 85 1 0 8 -17 13 -37z m-159 8 c16 -4
-30 -21 -57 -21 -32 0 -45 14 -20 23 10 3 60 2 77 -2z m49 -13 c12 -15 11 -18
-3 -18 -10 0 -16 8 -16 22 0 12 1 19 3 17 1 -2 9 -12 16 -21z m-679 -23 c0 -8
-4 -15 -10 -15 -5 0 -10 7 -10 15 0 8 5 15 10 15 6 0 10 -7 10 -15z m63 -32
c3 -24 1 -43 -4 -43 -5 0 -9 21 -9 47 0 56 5 54 13 -4z m-95 19 c2 -7 -3 -12
-12 -12 -9 0 -16 7 -16 16 0 17 22 14 28 -4z m-782 -33 c-3 -17 -6 -38 -6 -45
0 -8 -7 -14 -15 -14 -13 0 -15 7 -9 38 8 44 12 52 26 52 6 0 8 -12 4 -31z
m-621 -9 c39 -11 84 -20 102 -20 51 0 63 -9 63 -45 0 -19 -5 -37 -10 -40 -6
-4 -9 -16 -8 -28 2 -12 -1 -24 -7 -27 -5 -3 -11 5 -13 18 -6 39 -21 24 -24
-25 -3 -56 -21 -60 -28 -8 -8 55 -24 41 -25 -20 0 -31 -4 -54 -10 -52 -5 1 -9
6 -7 12 6 18 -9 95 -19 95 -5 0 -9 -31 -9 -68 0 -47 -5 -74 -16 -88 -14 -18
-15 -16 -9 29 8 64 -13 187 -33 187 -11 0 -12 -10 -5 -52 16 -101 6 -218 -18
-218 -7 0 -8 12 -3 32 15 69 6 190 -21 267 -14 41 -25 77 -25 79 0 6 35 -2
125 -28z m2155 15 c0 -8 5 -15 11 -15 12 0 7 -43 -28 -233 -26 -138 -43 -173
-65 -134 -5 10 -20 17 -32 17 -13 0 -34 8 -47 19 l-23 19 40 58 c39 57 106
200 119 257 8 29 25 37 25 12z m-2420 -15 c0 -16 -7 -20 -31 -20 -36 0 -35 21
2 31 13 4 25 7 27 8 1 1 2 -8 2 -19z m1719 -42 c1 -15 -4 -30 -9 -33 -6 -4 -8
-11 -4 -16 4 -6 11 -6 19 1 8 7 18 9 23 6 10 -6 14 -80 6 -108 -5 -15 -7 -15
-25 3 -11 11 -24 17 -29 14 -6 -4 -10 -1 -10 6 0 8 -6 6 -18 -4 -23 -21 -42
-21 -57 0 -7 9 -17 13 -24 9 -9 -6 -9 -11 0 -22 6 -8 7 -14 3 -14 -5 0 -15 9
-22 20 -15 25 -42 26 -42 3 -1 -17 -1 -17 -10 -1 -11 18 -37 18 -85 -1 -38
-16 -75 -6 -75 18 0 22 36 36 115 46 95 12 103 15 115 46 7 16 16 29 20 29 5
0 10 7 12 17 2 9 20 21 43 28 44 12 53 5 54 -47z m-1224 43 c3 -5 -4 -13 -16
-16 -23 -8 -34 -1 -24 14 8 13 32 14 40 2z m339 -18 c-9 -36 -12 -39 -20 -19
-7 20 1 46 16 46 6 0 8 -11 4 -27z m-753 -57 c5 -6 9 6 9 32 0 55 16 53 43 -5
19 -42 22 -64 21 -181 -1 -155 -9 -175 -54 -126 -32 36 -71 181 -68 255 1 37
2 39 5 12 6 -48 25 -40 23 10 -3 59 2 89 7 47 3 -19 9 -39 14 -44z m699 39 c0
-19 -4 -35 -10 -35 -11 0 -14 53 -3 63 11 12 13 8 13 -28z m1710 19 c0 -8 -5
-12 -10 -9 -6 4 -8 11 -5 16 9 14 15 11 15 -7z m-1760 -25 c0 -11 -4 -17 -10
-14 -5 3 -10 13 -10 21 0 8 5 14 10 14 6 0 10 -9 10 -21z m-194 -54 c-17 -26
-36 -26 -36 1 0 8 7 14 15 14 8 0 15 5 15 10 0 6 -16 10 -35 10 -41 0 -47 17
-7 22 16 2 35 -3 46 -13 18 -17 18 -19 2 -44z m152 44 c-2 -6 -8 -10 -13 -10
-5 0 -11 4 -13 10 -2 6 4 11 13 11 9 0 15 -5 13 -11z m1804 -9 c-1 -7 3 -18 9
-26 14 -18 6 -27 -26 -31 -28 -4 -32 8 -10 27 12 10 13 15 4 20 -14 9 -2 33
14 27 7 -3 11 -10 9 -17z m-1662 -15 c0 -8 -4 -15 -10 -15 -5 0 -10 7 -10 15
0 8 5 15 10 15 6 0 10 -7 10 -15z m50 -5 c0 -5 -7 -10 -15 -10 -8 0 -15 5 -15
10 0 6 7 10 15 10 8 0 15 -4 15 -10z m910 -21 c0 -10 -4 -19 -10 -19 -5 0 -10
12 -10 26 0 14 4 23 10 19 6 -3 10 -15 10 -26z m-1100 17 c0 -3 -4 -8 -10 -11
-5 -3 -10 -1 -10 4 0 6 5 11 10 11 6 0 10 -2 10 -4z m235 -76 c9 -14 1 -13
-39 7 -19 9 -33 20 -30 25 6 9 59 -16 69 -32z m-925 14 c0 -8 -4 -12 -10 -9
-5 3 -10 10 -10 16 0 5 5 9 10 9 6 0 10 -7 10 -16z m2514 -6 c-1 -10 1 -18 5
-18 3 0 15 -17 26 -37 11 -21 28 -47 38 -58 10 -11 28 -32 39 -47 l19 -28 -27
-10 c-49 -19 -159 -34 -189 -25 -27 7 -21 10 60 31 50 12 78 23 64 23 -14 1
-39 -3 -55 -8 -16 -5 -42 -12 -57 -16 -28 -6 -29 -5 -22 27 4 18 13 38 21 44
10 8 11 13 2 22 -15 15 -2 29 32 35 25 4 25 4 -2 6 -24 1 -27 5 -25 29 5 41
16 54 45 50 19 -2 27 -9 26 -20z m-1726 -104 c130 -10 123 -29 -14 -41 -40 -3
-78 -9 -86 -14 -22 -14 5 -31 59 -36 26 -3 56 -12 65 -20 9 -9 41 -17 70 -20
29 -3 54 -6 55 -7 1 -1 -94 -3 -212 -4 -187 -2 -214 0 -209 13 5 12 -4 15 -47
15 -62 0 -99 8 -99 21 0 5 19 9 43 9 47 0 84 20 73 38 -4 7 -16 12 -27 12 -28
0 -19 23 12 31 32 9 204 11 317 3z"/>
<g>
<path d="M373 2123 c-7 -3 -13 -18 -13 -34 0 -38 26 -39 33 -1 6 30 -1 42 -20
35z"/>
</g>
<g>
<path d="M515 1899 c-10 -15 3 -25 16 -12 7 7 7 13 1 17 -6 3 -14 1 -17 -5z"/>
</g>
<g>
<path d="M452 1888 c6 -18 28 -21 28 -4 0 9 -7 16 -16 16 -9 0 -14 -5 -12 -12z"/>
</g>
<g>
<path d="M2610 1320 c-13 -9 -13 -10 0 -10 8 0 26 -3 40 -6 24 -5 24 -5 6 10
-23 19 -26 19 -46 6z"/>
</g>
<g>
<path d="M1817 386 c-24 -18 -21 -26 8 -26 15 0 25 6 25 14 0 22 -13 26 -33
12z"/>
</g>
<g>
<path d="M1793 332 c-9 -6 -7 -11 7 -20 17 -11 20 -10 20 8 0 21 -7 25 -27 12z"/>
</g>
<g>
<path d="M1865 280 c-3 -5 1 -10 9 -10 9 0 16 5 16 10 0 6 -4 10 -9 10 -6 0
-13 -4 -16 -10z"/>
</g>
<g>
<path d="M2620 240 c0 -13 11 -13 30 0 12 8 11 10 -7 10 -13 0 -23 -4 -23 -10z"/>
</g>
<g>
<path d="M2633 153 c9 -2 25 -2 35 0 9 3 1 5 -18 5 -19 0 -27 -2 -17 -5z"/>
</g>
<g>
<path d="M2635 119 c-5 -7 8 -8 41 -3 64 9 68 14 11 14 -25 0 -49 -5 -52 -11z"/>
</g>
<g>
<path d="M2600 109 c0 -5 5 -7 10 -4 6 3 10 8 10 11 0 2 -4 4 -10 4 -5 0 -10
-5 -10 -11z"/>
</g>
</g>
<g>
<path d="M1418 5213 c-33 -5 -35 -14 -8 -30 19 -12 44 -78 45 -118 0 -16 7
-20 34 -20 32 0 34 2 46 48 7 27 22 61 34 77 30 42 27 52 -16 48 -34 -3 -38
-6 -35 -28 3 -27 -16 -80 -28 -80 -12 0 -31 53 -28 79 3 26 -4 30 -44 24z"/>
</g>
<g>
<path d="M5 3795 c0 -220 1 -309 2 -197 2 112 2 292 0 400 -1 108 -2 17 -2
-203z"/>
</g>
<g>
<path d="M4 3095 c0 -154 2 -216 3 -137 2 79 2 205 0 280 -1 75 -3 11 -3 -143z"/>
</g>
<g>
<path d="M275 1243 c-27 -14 -57 -31 -65 -38 -13 -11 -100 -24 -182 -27 -20
-1 -28 -6 -28 -19 0 -22 21 -24 53 -7 12 6 50 12 84 14 51 2 69 8 113 38 28
19 67 38 86 42 19 3 34 10 34 15 0 17 -45 8 -95 -18z"/>
</g>
<g>
<path d="M186 1139 c-22 -12 -63 -22 -95 -24 -66 -3 -91 -12 -91 -31 0 -11 4
-12 19 -4 11 5 37 10 59 10 44 0 164 42 170 59 6 17 -18 13 -62 -10z"/>
</g>
<g>
<path d="M2985 580 c-3 -5 -1 -10 4 -10 6 0 11 5 11 10 0 6 -2 10 -4 10 -3 0
-8 -4 -11 -10z"/>
</g>
<g>
<path d="M1505 10 l-190 -6 213 -2 c140 -1 211 1 207 8 -3 6 -14 9 -23 8 -9
-1 -102 -5 -207 -8z"/>
</g>
<g>
<path d="M58 3 c34 -2 88 -2 120 0 31 2 3 3 -63 3 -66 0 -92 -1 -57 -3z"/>
</g>
<g>
<path d="M438 3 c7 -3 16 -2 19 1 4 3 -2 6 -13 5 -11 0 -14 -3 -6 -6z"/>
</g>
</g>
</svg>
