<?xml version="1.0" standalone="no"?>
<!DOCTYPE svg PUBLIC "-//W3C//DTD SVG 20010904//EN"
 "http://www.w3.org/TR/2001/REC-SVG-20010904/DTD/svg10.dtd">
<svg version="1.0" xmlns="http://www.w3.org/2000/svg"
 width="300.000000pt" height="526.000000pt" viewBox="0 0 300.000000 526.000000"
 preserveAspectRatio="xMidYMid meet">
<metadata>
Created by potrace 1.15, written by Peter Selinger 2001-2017
</metadata>
<g transform="translate(0.000000,526.000000) scale(0.100000,-0.100000)"
fill="#000000" stroke="none">
<g>
<path d="M31 5246 c-14 -17 -18 -453 -27 -3163 l-7 -2083 1501 1 1501 1 1
2629 0 2629 -1479 0 c-1231 0 -1481 -3 -1490 -14z m2593 -64 c-2 -29 -11 -67
-20 -85 l-17 -31 -19 51 c-22 60 -58 90 -87 72 -17 -12 -17 -14 13 -44 34 -34
65 -128 52 -160 -8 -22 -31 -5 -40 30 -6 24 -26 35 -26 15 0 -5 -7 -10 -15
-10 -17 0 -18 -18 -5 -77 11 -47 -1 -93 -24 -93 -19 0 -30 53 -17 79 18 33 14
53 -9 46 -17 -5 -20 -2 -20 24 0 16 5 33 10 36 13 8 13 42 0 50 -6 4 -17 2
-25 -5 -24 -20 -27 8 -5 53 36 72 98 101 221 102 l37 1 -4 -54z m-1040 42 c40
-6 46 -10 46 -30 0 -36 18 -74 35 -74 17 0 20 -16 5 -25 -5 -3 -10 -21 -10
-38 0 -48 -10 -55 -84 -63 l-69 -7 6 39 c4 21 7 47 7 57 0 12 8 17 26 17 16 0
24 5 21 13 -3 9 -37 11 -140 8 l-137 -3 0 26 c0 22 4 26 29 26 19 0 36 8 49
24 19 24 25 26 143 34 14 1 47 -1 73 -4z m469 -4 c32 0 38 -3 29 -12 -16 -16
-15 -40 2 -63 12 -17 16 -18 31 -5 16 14 17 13 10 -10 -16 -51 -36 -81 -53
-78 -13 3 -16 12 -14 40 5 51 -13 82 -38 68 -13 -7 -20 -21 -20 -39 0 -15 -9
-36 -19 -45 -19 -17 -20 -17 -31 4 -23 43 15 158 47 146 8 -4 33 -6 56 -6z
m680 4 c4 -4 -2 -23 -13 -43 -29 -55 -50 -111 -50 -136 0 -38 37 -75 76 -75
27 0 34 -4 34 -20 0 -11 5 -29 12 -40 10 -15 10 -26 0 -53 -17 -47 -15 -104 5
-137 15 -27 15 -29 -13 -74 -32 -50 -39 -53 -66 -29 -14 13 -18 31 -18 93 0
52 -4 81 -13 89 -21 17 -45 -8 -49 -49 l-3 -35 -18 39 c-28 62 -24 72 28 71
24 -1 48 -4 51 -8 4 -4 18 -7 31 -7 28 0 40 24 24 44 -7 8 -11 26 -9 41 4 35
-23 55 -46 36 -9 -8 -16 -26 -16 -42 0 -69 -39 -2 -47 81 -4 45 0 67 21 119
14 36 26 82 26 103 0 33 3 38 23 38 13 0 27 -3 30 -6z m162 -14 c10 -11 23
-20 30 -20 32 0 53 -113 24 -131 -11 -6 -11 -11 -1 -21 12 -12 16 -50 6 -60
-3 -4 -7 -48 -8 -99 -3 -83 -5 -94 -27 -112 -21 -17 -22 -20 -7 -28 10 -5 20
-26 23 -47 4 -20 13 -57 22 -80 22 -62 14 -149 -17 -174 -18 -15 -21 -24 -16
-54 14 -71 -17 -124 -44 -75 -17 33 -11 93 15 149 36 78 32 99 -20 86 -18 -4
-25 -13 -25 -29 0 -13 -5 -27 -10 -30 -18 -11 -40 16 -40 47 0 35 57 158 77
165 17 7 17 23 -1 23 -20 0 -46 45 -46 81 0 17 11 53 25 81 14 27 25 52 25 54
0 2 -12 4 -26 4 -24 0 -26 3 -21 33 3 17 9 44 12 60 8 29 -7 57 -31 57 -8 0
-25 -18 -39 -40 -30 -48 -41 -50 -50 -10 -5 22 3 48 32 110 l38 80 41 0 c28 0
46 -6 59 -20z m85 11 c0 -6 -4 -13 -10 -16 -5 -3 -10 1 -10 9 0 9 5 16 10 16
6 0 10 -4 10 -9z m-2408 -26 c-9 -66 -3 -115 16 -140 17 -21 19 -31 11 -60 -6
-20 -9 -59 -7 -88 2 -43 7 -54 26 -62 12 -5 22 -17 22 -26 0 -8 14 -28 30 -44
19 -18 30 -39 30 -56 0 -33 22 -52 60 -52 41 0 70 29 70 70 0 31 18 63 35 63
4 0 13 -7 21 -15 9 -8 28 -15 43 -15 31 0 54 38 67 106 3 22 16 49 27 61 l20
23 19 -30 c10 -17 26 -30 36 -30 10 0 23 -5 29 -11 16 -16 88 43 103 85 7 17
21 47 31 67 10 20 19 44 19 54 0 12 5 15 18 10 9 -4 25 -10 35 -12 13 -4 17
-16 17 -54 0 -48 -1 -49 -31 -49 -20 0 -29 -4 -26 -12 2 -9 33 -14 98 -15 52
-1 111 -2 133 -2 l39 -1 -6 -66 c-4 -60 -3 -68 22 -96 14 -18 31 -45 36 -61
13 -40 39 -56 64 -40 19 12 19 11 9 -19 -7 -20 -9 -88 -5 -194 3 -90 2 -166
-2 -169 -9 -5 -7 -87 8 -290 5 -71 7 -308 5 -525 -6 -759 -5 -1017 6 -1045 15
-39 12 -67 -11 -119 -16 -38 -18 -53 -10 -76 11 -32 7 -50 -33 -149 -14 -36
-26 -78 -26 -93 0 -16 -7 -31 -15 -34 -9 -4 -27 -27 -42 -53 -14 -25 -42 -63
-62 -84 -32 -33 -41 -38 -76 -35 -33 2 -42 -1 -49 -18 -5 -12 -24 -27 -43 -33
-18 -7 -39 -18 -46 -25 -7 -8 -33 -24 -58 -36 -78 -40 -99 -59 -99 -91 0 -19
-10 -37 -30 -56 -17 -15 -30 -36 -30 -50 0 -16 -6 -23 -19 -23 -11 0 -23 5
-26 10 -8 13 -48 13 -62 -1 -14 -14 -63 27 -63 52 0 42 -65 33 -75 -11 -6 -26
-28 -56 -24 -33 5 27 -5 46 -31 61 -16 9 -31 26 -32 37 -2 11 -12 21 -23 23
-16 3 -18 1 -7 -9 19 -20 14 -30 -12 -23 -17 4 -32 0 -47 -15 -21 -19 -46 -20
-34 0 14 21 -15 7 -34 -17 -24 -31 -29 -121 -8 -143 10 -10 8 -16 -10 -28 -13
-9 -23 -21 -23 -28 0 -18 -15 -21 -85 -19 -69 2 -106 10 -154 31 -24 11 -50
13 -91 9 -50 -6 -61 -4 -94 19 -38 26 -66 32 -66 15 0 -5 -5 -10 -10 -10 -7 0
-9 258 -5 778 3 427 5 1287 5 1910 l0 1132 268 -2 c260 -3 267 -3 264 -23z
m77 -18 c-12 -43 -12 -42 16 -73 14 -15 25 -37 25 -50 0 -31 39 -66 66 -60 20
5 21 2 17 -42 -6 -58 11 -83 54 -84 28 -1 31 -3 22 -20 -5 -10 -14 -16 -20
-12 -22 13 -39 -19 -39 -71 0 -44 -3 -54 -20 -58 -29 -7 -35 29 -21 119 14 86
9 112 -25 120 -30 8 -54 -11 -54 -42 0 -25 -25 -34 -33 -11 -8 22 6 121 19
142 25 36 18 55 -18 53 l-33 -3 2 48 c1 30 8 56 19 68 23 26 34 15 23 -24z
m61 24 c0 -24 -10 -51 -19 -51 -4 0 -5 16 -3 35 4 37 22 49 22 16z m193 -1
c11 -14 15 -29 11 -45 -10 -42 3 -75 30 -75 33 0 41 -26 11 -34 -32 -8 -40
-35 -15 -53 23 -16 28 -88 9 -142 -16 -45 -42 -42 -33 4 9 51 -2 82 -37 99
-26 13 -31 13 -36 0 -3 -7 -9 -14 -14 -14 -14 0 -10 39 7 65 18 28 11 60 -17
75 -16 9 -24 6 -43 -15 -13 -14 -26 -25 -30 -25 -12 0 -6 98 8 131 20 47 23
49 80 49 39 0 56 -5 69 -20z m285 0 c16 -16 22 -32 22 -66 0 -43 -1 -46 -24
-40 -38 9 -58 -21 -44 -66 13 -43 3 -108 -17 -108 -8 0 -22 11 -31 25 -14 22
-15 33 -4 89 7 36 9 69 5 75 -12 20 -45 12 -55 -14 -11 -28 -22 -31 -39 -11
-16 19 1 81 30 112 31 33 124 34 157 4z m152 10 c0 -5 -4 -10 -10 -10 -5 0
-10 5 -10 10 0 6 5 10 10 10 6 0 10 -4 10 -10z m390 -4 c0 -8 4 -16 8 -18 15
-6 52 -75 52 -96 0 -24 -15 -37 -25 -22 -3 5 -17 7 -31 4 -25 -7 -32 4 -13 23
16 16 3 43 -20 43 -24 0 -31 11 -36 50 -4 28 -2 30 30 30 24 0 35 -5 35 -14z
m195 4 c-3 -5 -11 -10 -16 -10 -6 0 -7 5 -4 10 3 6 11 10 16 10 6 0 7 -4 4
-10z m235 5 c0 -3 -7 -17 -17 -31 -12 -19 -18 -22 -24 -12 -17 26 -10 48 16
48 14 0 25 -2 25 -5z m240 -2 c0 -5 -14 -19 -31 -32 -35 -28 -59 -70 -59 -104
0 -14 -8 -35 -19 -48 l-18 -23 -17 26 c-16 24 -16 29 -1 64 13 31 14 43 4 61
-10 18 -15 20 -35 11 -13 -6 -27 -24 -33 -39 -5 -16 -14 -29 -20 -29 -14 0 3
54 29 90 21 30 23 30 111 30 49 0 89 -3 89 -7z m-502 -128 c5 -22 11 -44 12
-50 4 -16 -12 -75 -21 -75 -32 0 -51 98 -29 156 13 33 26 23 38 -31z m-652
-10 c-4 -14 -13 -25 -20 -25 -12 0 -12 5 1 31 17 35 28 32 19 -6z m254 17 c0
-12 -24 -62 -30 -62 -3 0 -13 16 -22 35 l-18 35 35 0 c19 0 35 -4 35 -8z m-80
-42 c26 -51 25 -60 -5 -60 -20 0 -25 6 -31 35 -6 33 -1 65 10 65 3 0 15 -18
26 -40z m770 -20 c0 -6 -4 -10 -9 -10 -6 0 -31 -36 -58 -80 -34 -58 -57 -84
-82 -96 -37 -18 -53 -10 -66 34 -8 26 17 41 40 22 34 -29 105 24 105 80 0 49
25 84 51 70 10 -6 19 -15 19 -20z m-1170 -10 c0 -5 -4 -10 -10 -10 -5 0 -10 5
-10 10 0 6 5 10 10 10 6 0 10 -4 10 -10z m973 -10 c-3 -12 -8 -19 -11 -16 -5
6 5 36 12 36 2 0 2 -9 -1 -20z m347 -1 c-7 -13 -9 -40 -5 -69 8 -55 -8 -75
-23 -30 -15 42 8 118 36 120 1 0 -2 -9 -8 -21z m-614 -6 c16 -21 18 -79 4 -88
-6 -4 -17 -2 -25 5 -11 9 -17 4 -31 -25 -14 -31 -15 -40 -3 -61 13 -25 16 -90
5 -101 -11 -11 -20 7 -19 41 1 27 -4 34 -28 43 -28 11 -29 14 -29 76 l0 66 32
3 c24 2 36 10 46 31 15 31 29 34 48 10z m-526 -19 c0 -8 -5 -12 -10 -9 -6 4
-8 11 -5 16 9 14 15 11 15 -7z m878 -11 c-2 -17 -10 -29 -20 -31 -14 -3 -18 3
-18 27 0 25 4 31 21 31 16 0 20 -5 17 -27z m147 -14 c0 -14 -8 -28 -20 -35
-14 -7 -19 -18 -17 -37 1 -15 -1 -27 -5 -26 -29 5 -35 -2 -28 -40 6 -34 4 -39
-16 -44 -18 -5 -21 -11 -16 -34 8 -39 -5 -58 -29 -45 -11 5 -25 7 -31 5 -18
-6 -16 -32 2 -39 16 -6 41 -72 31 -82 -4 -3 -15 -1 -24 6 -9 7 -29 18 -44 25
-16 6 -28 19 -28 29 0 9 -4 20 -10 23 -14 9 -12 35 3 32 7 -1 12 8 11 21 0 12
5 22 13 22 8 0 19 13 24 29 6 16 25 40 44 52 19 14 51 55 75 97 42 72 65 87
65 41z m-330 -49 c-3 -5 -10 -10 -16 -10 -5 0 -9 5 -9 10 0 6 7 10 16 10 8 0
12 -4 9 -10z m647 -9 c-1 -7 -4 -26 -6 -44 -3 -25 -8 -31 -22 -29 -11 2 -25 4
-31 4 -17 2 -16 17 1 24 8 3 19 19 25 36 10 28 39 36 33 9z m-159 -53 c7 -25
3 -33 -12 -23 -13 8 -15 45 -2 45 5 0 11 -10 14 -22z m-78 2 c4 -6 1 -26 -5
-46 -14 -40 -8 -53 15 -34 19 16 20 1 1 -25 -7 -11 -17 -34 -20 -52 -4 -17
-18 -39 -32 -48 -14 -9 -29 -27 -34 -41 -13 -34 -27 -30 -34 11 -8 40 11 83
49 113 27 22 34 52 10 52 -16 0 -12 19 13 58 16 24 27 28 37 12z m-515 -43 c0
-7 -6 -21 -13 -32 -13 -16 -14 -15 -15 14 0 21 4 31 14 31 8 0 14 -6 14 -13z
m181 -4 c12 -15 12 -16 -5 -10 -10 4 -25 2 -33 -4 -11 -9 -17 -9 -26 0 -9 9
-9 14 3 21 23 15 46 12 61 -7z m499 -13 c25 -23 31 -36 27 -56 -4 -21 3 -33
30 -57 22 -20 33 -37 30 -48 -3 -10 2 -24 10 -30 20 -18 35 6 29 47 -4 28 -1
33 20 37 21 4 24 1 24 -25 0 -16 7 -45 16 -66 9 -20 17 -66 18 -102 1 -54 6
-72 26 -97 25 -32 72 -44 85 -23 10 16 28 11 21 -6 -12 -30 13 -93 42 -108 28
-14 41 -11 110 31 19 12 20 9 23 -750 2 -419 2 -1011 -1 -1315 l-5 -554 -27
21 c-15 12 -33 20 -40 19 -7 -2 -13 6 -13 17 -1 39 -15 48 -37 25 -11 -12 -31
-25 -44 -30 -24 -9 -54 -4 -54 9 0 4 -18 17 -40 30 -22 12 -40 27 -40 32 0 13
38 131 58 181 18 46 11 211 -13 278 -8 23 -15 58 -15 77 0 19 -6 41 -12 48 -7
8 -24 30 -38 49 -25 35 -121 98 -195 128 -104 42 -149 58 -161 58 -7 0 -16 5
-20 12 -5 8 -2 9 9 5 9 -3 19 -2 23 4 3 5 15 9 27 7 18 -3 23 3 25 32 2 19 7
39 12 45 4 5 6 46 5 90 -3 90 -26 158 -64 194 -17 16 -21 26 -13 29 21 7 13
22 -13 22 -13 0 -55 5 -92 12 l-68 11 0 81 c0 45 -4 142 -8 216 -10 184 -13
997 -4 1006 4 4 14 -2 22 -13 8 -12 25 -23 38 -25 17 -2 22 -10 24 -36 2 -37
27 -82 46 -82 8 0 20 -15 28 -32 11 -25 21 -34 44 -36 29 -3 30 -4 27 -53 -4
-54 8 -79 39 -79 23 0 24 -21 3 -67 -16 -32 -16 -37 -1 -69 17 -35 59 -59 84
-50 15 6 40 60 50 108 9 48 -18 31 -36 -23 -12 -33 -21 -44 -33 -41 -24 5 -34
48 -19 87 6 17 11 40 11 51 0 21 -35 48 -50 39 -15 -9 -12 53 4 84 8 15 16 41
18 57 3 27 1 29 -27 27 -16 -1 -35 -10 -42 -19 -6 -9 -16 -13 -22 -9 -14 8
-14 52 -1 60 6 3 10 14 10 24 0 10 11 28 25 41 31 29 31 36 3 44 l-23 6 25 14
c34 20 89 45 98 45 4 1 7 -8 7 -18 0 -11 18 -33 40 -51 56 -44 65 -58 65 -105
0 -52 -8 -60 -31 -32 -17 21 -19 21 -35 5 -17 -16 -16 -20 14 -68 18 -28 32
-54 32 -57 0 -2 -9 -12 -20 -21 -19 -17 -19 -18 -2 -67 9 -27 18 -52 20 -55 9
-13 33 38 32 70 0 19 3 52 6 73 4 22 2 43 -5 51 -9 11 -6 20 15 41 24 24 26
31 20 78 -7 54 -8 67 -5 118 1 17 -3 34 -10 39 -8 5 -11 16 -6 30 9 28 -13
110 -32 117 -7 3 -19 0 -26 -6 -9 -7 -17 -7 -24 0 -20 20 -40 -2 -46 -47 -5
-45 -32 -88 -48 -78 -16 9 -9 88 10 131 27 59 9 73 -35 26 -33 -35 -41 -23
-19 32 19 52 16 62 -13 46 -29 -15 -32 -14 -32 10 0 25 37 89 51 89 5 0 9 6 9
14 0 13 13 23 31 25 4 1 21 -13 39 -29z m-516 -46 c3 -8 2 -12 -4 -9 -6 3 -10
10 -10 16 0 14 7 11 14 -7z m-66 -50 c-10 -10 -28 6 -28 24 0 15 1 15 17 -1 9
-9 14 -19 11 -23z m-41 -26 c12 -16 13 -108 1 -108 -15 0 -8 -29 11 -42 22
-15 18 -66 -5 -75 -19 -7 -18 -28 2 -44 9 -8 13 -21 10 -35 -4 -13 -2 -25 3
-29 14 -8 41 -65 41 -86 0 -12 -5 -16 -14 -13 -18 7 -29 -27 -22 -64 3 -15 6
-65 7 -112 2 -48 8 -92 14 -100 25 -30 36 -88 29 -148 -7 -64 5 -102 32 -102
12 0 14 -7 9 -30 -5 -22 0 -38 19 -67 32 -46 33 -57 5 -42 -15 8 -24 8 -32 0
-6 -6 -9 -12 -6 -13 2 -2 19 -13 37 -26 29 -20 32 -21 32 -5 0 11 11 0 25 -26
29 -50 29 -51 11 -51 -21 0 -27 -27 -10 -41 12 -10 12 -14 2 -20 -10 -6 -8
-16 6 -46 21 -43 21 -46 8 -51 -5 -1 -13 10 -17 25 -6 28 -51 83 -67 83 -12 0
-10 -34 3 -47 16 -16 50 -93 41 -93 -5 0 -14 6 -20 12 -10 10 -15 10 -22 -2
-7 -11 -2 -22 15 -40 29 -30 31 -40 10 -40 -8 0 -15 -9 -15 -20 0 -14 7 -20
21 -20 15 0 19 4 14 19 -3 11 -1 22 5 26 7 4 9 18 5 32 -5 20 -2 24 12 21 9
-2 24 -15 33 -30 14 -25 13 -28 -5 -42 -17 -12 -18 -17 -7 -38 28 -52 7 -103
-50 -124 -10 -3 -20 -16 -24 -28 -3 -11 -15 -30 -26 -42 -25 -28 -26 -109 -2
-208 15 -59 23 -76 37 -76 29 0 33 -30 6 -51 -38 -30 -120 -66 -164 -72 -29
-5 -49 -16 -72 -42 l-31 -36 -11 53 c-6 29 -11 140 -10 248 1 107 1 240 0 296
-2 99 -1 101 24 112 14 7 32 12 40 12 8 0 15 7 15 16 0 13 -7 15 -40 9 -33 -6
-40 -4 -40 10 0 9 5 13 10 10 16 -10 50 5 50 21 0 9 -11 14 -32 14 -17 0 -28
3 -24 8 4 4 13 7 19 7 19 0 19 23 0 34 -15 7 -18 18 -15 45 2 19 9 34 14 33 6
-1 13 4 15 11 3 6 -2 12 -11 12 -14 0 -16 22 -16 170 0 144 2 170 15 170 8 0
15 5 15 10 0 6 -7 10 -15 10 -19 0 -20 16 -1 23 10 4 15 20 14 46 0 47 7 61
31 61 23 0 46 26 31 35 -5 3 -14 3 -20 0 -5 -3 -17 -2 -27 3 -13 8 -8 11 24
17 41 6 41 7 39 48 -2 37 -5 42 -27 43 -13 0 -37 7 -54 16 -32 17 -32 19 -39
151 -2 37 -7 74 -10 82 -3 8 -1 15 4 15 6 0 10 12 10 26 0 17 6 28 20 31 15 4
20 14 20 40 0 30 -3 34 -20 28 -11 -4 -20 -2 -20 4 0 6 9 11 20 11 21 0 27 24
9 36 -8 4 -8 9 0 17 6 6 11 19 11 29 0 10 5 18 11 18 6 0 9 -14 7 -32 -2 -25
1 -33 16 -36 12 -3 16 0 11 8 -4 6 -1 24 5 41 10 23 10 32 -1 46 -11 13 -11
17 -1 20 21 8 13 33 -10 33 -21 0 -21 0 3 24 29 28 33 30 46 14z m83 -29 c0
-6 -4 -7 -10 -4 -5 3 -10 11 -10 16 0 6 5 7 10 4 6 -3 10 -11 10 -16z m405 -9
c3 -5 3 -16 -2 -22 -4 -7 -6 -20 -5 -29 1 -8 -7 -24 -18 -34 -33 -30 -33 -22
-4 83 4 15 20 16 29 2z m-419 -65 c3 -17 1 -24 -6 -20 -5 3 -10 18 -10 32 0
32 9 25 16 -12z m-156 15 c0 -5 -4 -10 -10 -10 -5 0 -10 5 -10 10 0 6 5 10 10
10 6 0 10 -4 10 -10z m256 -13 c8 3 21 0 29 -7 14 -11 14 -15 0 -30 -11 -13
-13 -20 -5 -25 13 -8 40 12 40 31 0 8 4 14 10 14 6 0 6 -10 -1 -27 -11 -31
-37 -63 -50 -63 -16 0 -61 101 -53 119 7 15 7 15 11 -1 3 -10 10 -15 19 -11z
m140 -57 c-15 -18 -26 -44 -26 -60 0 -23 -4 -28 -16 -23 -17 6 -16 16 13 100
18 51 18 52 37 33 19 -18 19 -19 -8 -50z m398 18 c3 -13 6 -36 6 -51 0 -22 -4
-28 -17 -25 -20 4 -28 37 -19 74 8 30 22 31 30 2z m186 -11 c0 -40 24 -77 51
-77 29 0 23 -17 -8 -23 -40 -9 -63 22 -63 84 0 27 5 49 10 49 6 0 10 -15 10
-33z m-470 -27 l24 -6 -30 -22 c-50 -37 -54 -42 -54 -62 0 -30 -16 -24 -30 10
-12 28 -10 34 21 80 30 45 35 48 39 28 3 -13 16 -25 30 -28z m93 5 c-3 -28 -1
-50 6 -59 14 -17 -9 -39 -36 -34 -23 4 -29 50 -9 68 9 7 16 25 16 41 0 19 5
29 15 29 12 0 13 -9 8 -45z m-383 -12 c21 -36 26 -73 10 -73 -5 0 -10 11 -10
25 0 15 -12 35 -30 52 -35 30 -38 43 -10 36 10 -3 28 -21 40 -40z m85 -83 c4
-19 2 -36 -5 -45 -7 -8 -10 -24 -7 -35 8 -31 -9 -24 -32 14 -25 41 -26 44 -3
42 13 -1 17 6 15 27 -2 38 24 35 32 -3z m504 7 c6 -8 8 -17 5 -20 -7 -7 -44
14 -44 25 0 13 27 9 39 -5z m-269 -52 c12 -22 11 -30 -5 -63 l-18 -37 -10 38
c-9 38 -3 87 12 87 4 0 14 -11 21 -25z m-301 -62 c9 -7 25 -10 35 -6 14 4 18
1 13 -10 -3 -9 1 -21 9 -28 8 -6 12 -14 10 -17 -3 -2 -19 7 -36 22 -50 42 -72
33 -71 -27 1 -17 1 -41 2 -51 0 -10 7 -28 15 -40 19 -27 19 -76 -1 -76 -8 0
-18 12 -21 28 -4 15 -11 33 -17 40 -16 21 -8 172 9 172 7 0 15 8 19 18 6 14 8
15 13 2 3 -8 12 -20 21 -27z m45 -109 c32 -33 35 -74 5 -74 -13 0 -25 11 -35
35 -27 66 -15 83 30 39z m13 -126 c27 -25 29 -38 8 -38 -8 0 -15 -4 -15 -10 0
-22 -21 -8 -33 23 -10 23 -11 34 -3 39 16 11 17 10 43 -14z m-122 -9 c4 -11 4
-23 1 -27 -10 -9 -39 25 -32 37 11 17 24 13 31 -10z m-190 -29 c3 -5 1 -10 -4
-10 -6 0 -11 5 -11 10 0 6 2 10 4 10 3 0 8 -4 11 -10z m55 -26 c0 -8 -4 -12
-10 -9 -5 3 -10 10 -10 16 0 5 5 9 10 9 6 0 10 -7 10 -16z m276 -28 c3 -8 4
-26 2 -41 l-3 -27 -27 22 c-36 28 -37 60 -3 60 14 0 28 -6 31 -14z m-51 -96
c16 -17 34 -29 41 -26 6 2 11 -9 12 -29 1 -27 -2 -32 -16 -28 -16 4 -31 23
-70 91 -18 31 -1 27 33 -8z m-22 -101 c10 -13 17 -32 17 -41 0 -11 12 -24 28
-30 38 -17 38 -17 18 -31 -16 -11 -16 -15 -1 -49 16 -40 21 -108 6 -93 -5 6
-21 46 -36 90 -15 44 -30 82 -34 85 -16 11 -49 97 -55 140 l-5 45 23 -46 c12
-25 30 -57 39 -70z m41 -940 c4 5 16 7 29 4 12 -2 47 -6 77 -8 82 -4 90 -9 90
-64 0 -25 6 -58 14 -72 12 -23 12 -35 0 -80 -17 -63 -15 -94 6 -94 11 0 14 10
13 38 -3 45 20 47 25 3 4 -36 -24 -63 -78 -75 -22 -5 -52 -17 -66 -26 -25 -16
-27 -16 -41 4 -8 12 -20 21 -26 21 -7 0 -20 7 -30 15 -15 10 -17 21 -12 44 4
17 13 31 21 31 8 0 14 7 14 17 0 14 2 14 20 -2 18 -16 25 -14 21 8 0 4 8 7 20
7 11 0 17 5 14 10 -3 6 -26 10 -49 10 -24 0 -48 6 -53 13 -13 17 -37 96 -31
102 11 11 40 -9 49 -33 13 -33 17 -25 12 20 -4 29 -13 42 -38 58 -21 13 -33
28 -32 40 1 14 5 16 13 9 8 -7 14 -7 18 0z m-9 -59 c3 -5 2 -10 -4 -10 -5 0
-13 5 -16 10 -3 6 -2 10 4 10 5 0 13 -4 16 -10z m-141 -270 c17 -6 24 -15 20
-24 -3 -8 2 -30 11 -49 18 -39 126 -157 142 -157 7 0 13 -10 15 -22 2 -14 11
-24 24 -26 19 -3 21 -9 19 -75 -1 -77 -8 -97 -31 -97 -19 0 -18 34 1 50 26 22
11 33 -48 36 -38 1 -60 -2 -67 -11 -13 -16 -5 -35 15 -35 8 0 11 -7 8 -20 -3
-11 -11 -20 -18 -20 -8 0 -21 -3 -30 -6 -9 -4 -15 -3 -13 2 5 18 -26 90 -54
125 -22 27 -40 38 -69 43 -40 6 -51 19 -23 30 18 7 9 26 -12 26 -9 0 -22 6
-30 14 -7 8 -19 16 -25 18 -9 3 -8 13 2 41 11 31 16 36 36 31 17 -5 23 -2 23
10 0 9 -7 16 -15 16 -26 0 -17 26 24 69 41 43 53 47 95 31z m620 -31 c21 18
44 2 106 -69 36 -41 47 -60 35 -60 -9 0 -35 -20 -57 -45 -34 -37 -47 -45 -77
-45 -43 0 -82 -32 -106 -87 -40 -91 -34 -87 -142 -99 -54 -7 -106 -15 -115
-19 -11 -4 -18 -3 -18 4 0 6 5 10 12 9 7 -2 13 9 13 24 1 16 7 34 14 40 11 11
13 7 8 -19 -6 -32 -5 -33 26 -33 34 0 57 15 57 37 0 7 -10 13 -23 13 -21 0
-23 4 -22 53 0 38 5 56 18 65 11 9 16 21 12 32 -4 13 3 25 25 42 20 14 29 29
27 40 -6 20 47 73 63 63 14 -8 50 22 50 42 0 10 6 12 19 8 11 -3 22 -1 26 5 5
8 11 8 21 -1 11 -9 17 -9 28 0z m-114 -9 c0 -5 -5 -10 -11 -10 -5 0 -7 5 -4
10 3 6 8 10 11 10 2 0 4 -4 4 -10z m-243 -62 c-3 -8 -6 -5 -6 6 -1 11 2 17 5
13 3 -3 4 -12 1 -19z m24 -39 c-16 -13 -20 -24 -16 -42 5 -19 2 -25 -16 -30
-31 -8 -36 -1 -16 21 10 10 17 22 17 26 0 15 35 54 44 48 5 -3 -1 -13 -13 -23z
m-121 -14 c13 -14 21 -25 18 -25 -2 0 -15 11 -28 25 -13 14 -21 25 -18 25 2 0
15 -11 28 -25z m-15 -25 c10 -11 16 -20 13 -20 -3 0 -13 9 -23 20 -10 11 -16
20 -13 20 3 0 13 -9 23 -20z m165 -151 c0 -4 -7 -9 -15 -13 -11 -4 -15 2 -15
26 0 30 1 31 15 12 8 -10 15 -22 15 -25z m-53 -11 c-3 -8 -6 -5 -6 6 -1 11 2
17 5 13 3 -3 4 -12 1 -19z m192 -125 c43 -5 50 -8 33 -14 -34 -13 -27 -33 8
-25 17 3 30 2 30 -3 0 -10 -78 -17 -170 -17 -63 1 -65 2 -68 28 -3 22 1 27 25
31 48 7 86 7 142 0z m-719 -210 c15 -23 50 -43 76 -43 8 0 17 -7 20 -15 4 -8
12 -15 20 -15 23 0 16 -14 -14 -28 -23 -11 -29 -10 -39 5 -7 9 -13 23 -13 30
0 7 -7 13 -15 13 -10 0 -15 -10 -15 -30 0 -22 -5 -30 -18 -30 -9 0 -34 -11
-54 -25 -20 -14 -42 -25 -47 -25 -15 0 -113 -88 -137 -124 -20 -29 -25 -86
-15 -173 1 -12 21 -36 79 -97 19 -20 23 -30 14 -33 -16 -6 -25 -16 -63 -76
-17 -26 -36 -47 -43 -46 -26 3 -52 -14 -74 -47 -13 -20 -21 -39 -17 -42 3 -4
10 0 14 7 13 21 27 6 51 -56 12 -32 31 -76 41 -98 10 -22 21 -52 24 -68 3 -15
14 -36 25 -47 19 -19 19 -20 0 -30 -42 -22 -38 -98 5 -97 31 0 40 11 20 27
-19 16 -19 40 -1 40 8 0 21 3 30 6 13 5 16 -1 16 -31 0 -26 7 -42 22 -55 20
-16 22 -25 19 -91 -2 -41 -4 -85 -5 -99 -2 -14 -4 -65 -5 -115 -1 -49 -5 -95
-9 -102 -6 -9 -22 -7 -66 8 -69 22 -89 24 -84 7 5 -15 118 -57 134 -51 14 5
28 -13 19 -26 -3 -6 -22 -4 -48 4 -23 7 -63 19 -89 26 -27 7 -48 16 -48 20 0
3 11 26 25 50 45 79 72 143 88 209 23 92 25 135 8 135 -9 0 -19 -21 -28 -60
-24 -107 -62 -213 -89 -245 -6 -8 -22 -33 -34 -55 l-22 -39 28 -23 c16 -13 42
-23 57 -23 15 0 44 -7 65 -15 60 -26 151 -34 202 -20 25 8 64 16 87 20 65 10
70 25 29 80 -20 26 -36 51 -36 57 0 6 -6 19 -13 27 -18 21 -43 106 -63 218
-15 84 -15 94 0 115 19 26 21 61 5 86 -9 14 -6 34 14 93 15 41 42 119 61 174
21 62 31 104 26 110 -16 20 110 9 180 -14 36 -13 90 -29 120 -37 30 -8 79 -24
108 -36 35 -15 56 -18 62 -12 19 19 -21 40 -140 73 -63 18 -124 37 -135 41
-51 20 -85 30 -148 45 -38 8 -92 26 -120 39 -29 13 -80 34 -115 46 -45 17 -67
31 -77 50 -7 14 -21 32 -29 39 -9 8 -16 22 -16 32 0 11 -7 19 -16 19 -17 0
-12 31 10 60 70 94 117 132 101 81 -6 -21 8 -34 50 -48 17 -5 30 -16 31 -24 4
-53 43 -77 146 -90 135 -16 148 -19 148 -34 0 -8 18 -19 43 -26 23 -7 49 -18
58 -26 8 -7 20 -13 25 -13 5 0 35 -26 67 -59 55 -56 141 -111 174 -111 13 0
15 -8 10 -45 -6 -44 6 -92 28 -107 6 -5 3 -8 -7 -8 -9 0 -26 14 -38 30 -21 30
-40 32 -40 4 0 -7 16 -31 35 -53 19 -21 35 -41 35 -44 0 -3 14 -19 30 -37 17
-18 30 -38 30 -46 0 -18 22 -57 38 -67 6 -4 12 -16 12 -27 0 -21 49 -60 76
-60 10 0 28 10 41 22 24 22 31 48 13 48 -6 0 -10 32 -10 77 0 75 -6 96 -62
206 -15 31 -22 114 -9 121 6 4 53 10 104 13 94 6 175 29 205 60 13 13 17 38
19 115 0 55 4 111 8 125 8 35 -18 71 -70 94 -24 11 -46 23 -49 28 -3 4 -23 13
-45 21 -50 16 -100 68 -80 81 8 5 17 9 21 9 3 0 28 23 55 50 l48 50 35 -28
c19 -16 52 -35 74 -42 25 -8 34 -15 26 -20 -15 -9 -4 -30 16 -30 8 0 14 10 14
26 0 29 18 28 34 -2 6 -10 12 -21 13 -23 2 -2 10 2 19 10 25 20 64 19 64 -2 0
-10 -6 -19 -12 -22 -10 -3 -10 -9 0 -26 9 -16 12 -72 11 -204 l-1 -182 -26
-19 c-14 -11 -22 -14 -18 -7 4 6 5 19 2 27 -8 21 -46 -4 -46 -31 -1 -18 -1
-19 -11 -2 -10 16 -40 23 -51 11 -4 -3 0 -18 7 -32 8 -15 16 -35 19 -45 7 -24
25 -21 35 6 8 20 10 21 16 4 6 -15 15 -17 41 -12 32 6 34 4 35 -22 1 -15 0
-32 -1 -38 -1 -5 -2 -49 -1 -97 1 -56 -3 -88 -9 -88 -7 0 -8 -6 0 -19 12 -23
14 -341 2 -341 -4 0 -13 5 -20 12 -9 9 -15 9 -23 1 -7 -7 -25 -9 -40 -6 -24 4
-29 2 -29 -14 0 -38 77 -73 96 -42 17 28 24 -27 24 -187 0 -94 -3 -185 -6
-202 l-6 -30 -157 3 c-193 3 -179 2 -177 23 0 9 -6 17 -14 17 -8 0 -14 -8 -14
-17 2 -15 -7 -18 -51 -18 -28 0 -101 -2 -161 -4 -60 -3 -99 -3 -86 0 23 6 30
36 13 63 -8 12 -14 12 -41 0 -27 -12 -31 -18 -27 -42 l4 -29 -91 7 c-73 6 -94
11 -106 26 -17 21 -45 18 -54 -7 -4 -10 -25 -14 -83 -14 -76 0 -78 1 -95 31
-20 34 -38 31 -38 -7 0 -23 -19 -35 -21 -14 -1 6 -2 16 -3 22 -1 18 -34 22
-51 8 -12 -10 -15 -9 -15 4 0 9 -8 16 -20 16 -17 0 -20 -6 -18 -27 3 -26 0
-28 -34 -31 -29 -2 -40 2 -50 17 -14 23 -48 29 -48 9 0 -6 -7 -3 -15 8 -15 19
-16 19 -31 -4 -16 -22 -20 -22 -221 -22 -196 0 -205 1 -210 20 -6 22 -6 22
-27 14 -9 -3 -16 -12 -16 -20 0 -11 -16 -13 -72 -11 -40 1 -116 0 -168 -2 -74
-3 -94 -2 -92 9 2 9 -4 10 -20 5 -13 -3 -50 -8 -83 -10 -33 -3 -79 -7 -103
-11 -35 -5 -41 -4 -36 9 3 8 1 18 -5 22 -13 7 -43 -19 -34 -29 4 -3 -63 -5
-148 -4 -85 1 -137 3 -116 5 24 3 37 9 34 16 -2 7 -14 11 -25 9 -12 -2 -22 2
-22 7 0 14 -23 14 -38 -1 -7 -7 -8 -17 -1 -30 8 -16 6 -18 -20 -18 -34 0 -38
7 -33 61 5 45 13 47 83 25 24 -8 65 -17 91 -21 26 -3 50 -10 53 -16 10 -15 53
-10 72 9 10 10 44 31 77 47 32 16 60 35 63 41 5 13 -31 89 -46 98 -5 3 -17 32
-27 64 -9 31 -21 61 -26 66 -14 17 -9 26 17 26 16 0 25 6 25 15 0 9 10 15 26
15 21 0 25 4 22 22 -4 32 -36 35 -47 6 -6 -15 -18 -24 -35 -26 -31 -2 -35 18
-6 36 21 13 27 46 11 57 -5 3 -17 -5 -25 -17 -18 -26 -23 -23 -28 17 -3 26 1
30 26 35 16 3 31 11 34 19 3 9 -2 11 -17 6 -16 -5 -21 -2 -21 11 0 10 -7 25
-15 34 -13 15 -13 21 7 61 12 24 21 47 20 51 -1 4 2 18 7 30 7 19 17 24 49 25
23 1 53 10 67 19 18 12 29 14 33 7 4 -6 23 -10 42 -8 50 4 50 4 50 16 0 6 -12
9 -27 7 -22 -2 -29 1 -31 18 -7 48 -111 31 -112 -18 0 -11 -7 -16 -21 -15 -18
1 -20 6 -16 32 3 17 21 58 41 92 41 70 43 83 18 106 -39 36 -281 46 -381 17
-19 -5 -37 -8 -39 -5 -3 2 -6 22 -7 45 -2 30 4 47 21 68 23 26 28 27 124 28
60 1 105 6 114 13 10 8 16 9 21 1 4 -6 20 -8 38 -5 39 7 56 7 133 0 51 -5 71
-2 124 19 35 14 74 26 87 26 13 0 51 12 86 26 36 14 86 26 118 27 60 3 102 24
168 86 18 17 40 31 48 31 12 0 14 8 9 35 -6 31 -4 36 23 50 26 13 31 23 37 64
6 45 9 50 47 68 23 10 57 29 77 42 19 13 63 30 98 37 77 16 144 62 180 124
l27 45 6 -40 c3 -22 11 -50 19 -62z m106 -1 c-9 -9 -37 8 -31 18 5 8 11 7 21
-1 8 -6 12 -14 10 -17z m352 -11 c7 -4 20 -21 28 -37 12 -22 13 -33 3 -50 -15
-29 -4 -94 16 -94 10 0 15 11 15 35 0 19 2 35 5 35 16 0 75 -48 93 -77 l22
-33 -25 -12 c-35 -16 -31 -31 6 -23 22 5 29 4 25 -4 -4 -6 -17 -11 -29 -11
-32 0 -50 -15 -53 -44 -2 -21 2 -26 20 -26 13 0 42 7 65 15 53 18 53 4 0 -19
-23 -10 -44 -27 -46 -36 -6 -23 -53 -36 -65 -18 -5 7 -13 21 -19 31 -8 14 -17
17 -35 13 -14 -4 -24 -2 -24 4 0 13 -41 71 -79 113 -14 15 -35 27 -48 27 -24
0 -32 -15 -10 -23 6 -2 9 -8 5 -12 -5 -5 -16 -1 -26 8 -10 10 -24 17 -30 17
-19 0 -14 -25 9 -46 19 -17 49 -65 49 -79 0 -3 -5 -5 -11 -5 -5 0 -16 15 -24
34 -24 58 -166 162 -189 139 -13 -13 -5 -31 16 -36 12 -4 19 -9 15 -13 -6 -6
-29 3 -111 42 -16 8 -35 14 -43 14 -7 0 -13 4 -13 9 0 25 144 29 179 4 22 -15
25 -15 36 1 7 9 17 16 21 15 5 -1 17 1 28 6 11 5 26 4 36 -3 28 -17 70 6 70
40 0 20 6 27 22 30 15 2 29 16 41 41 17 37 31 44 55 28z m304 -193 c10 -10 18
-24 17 -30 0 -10 -2 -10 -6 0 -2 6 -11 12 -18 12 -7 0 -16 7 -19 16 -6 15 -8
15 -30 1 -26 -17 -36 -13 -36 14 0 15 6 17 37 12 20 -3 44 -14 55 -25z m-732
-59 c0 -12 -27 -11 -35 1 -11 17 5 32 21 19 8 -6 14 -15 14 -20z m792 22 c-11
-6 -10 -10 4 -15 10 -4 21 -2 24 4 5 8 9 6 14 -5 4 -11 13 -15 25 -12 15 4 19
0 16 -14 -2 -10 4 -23 13 -29 9 -5 13 -10 7 -10 -5 0 -27 -4 -47 -9 -26 -6
-35 -5 -32 3 2 6 -10 26 -28 45 -26 26 -29 34 -17 42 8 5 19 9 24 9 6 0 4 -4
-3 -9z m-1722 -26 c0 -2 -4 -15 -10 -29 -7 -20 -6 -27 8 -35 9 -5 13 -13 9
-17 -5 -5 -11 -3 -15 3 -4 6 -19 14 -34 18 -22 6 -46 33 -36 40 39 27 53 33
64 28 8 -3 14 -7 14 -8z m40 -25 c0 -13 -7 -20 -20 -20 -19 0 -19 1 -3 20 10
11 19 20 20 20 2 0 3 -9 3 -20z m120 -43 c23 -6 27 -27 6 -27 -19 0 -46 39
-45 65 0 16 2 15 10 -6 6 -15 19 -29 29 -32z m1750 23 c0 -5 -7 -10 -15 -10
-8 0 -15 5 -15 10 0 6 7 10 15 10 8 0 15 -4 15 -10z m-1983 -34 c-7 -21 -25
-16 -29 8 -4 21 -3 23 14 13 10 -7 17 -16 15 -21z m771 20 c-7 -8 -16 -12 -21
-9 -11 7 2 23 19 23 12 0 12 -2 2 -14z m318 -17 c13 -12 28 -18 35 -14 9 6 7
12 -6 22 -11 7 -14 13 -8 13 17 0 46 -38 40 -54 -10 -26 -67 -3 -88 36 -13 24
0 23 27 -3z m144 -31 c0 -10 -4 -18 -10 -18 -5 0 -10 9 -10 19 0 11 -3 28 -6
38 -6 16 -5 16 9 -2 9 -11 17 -28 17 -37z m560 22 c0 -5 -5 -10 -11 -10 -5 0
-7 5 -4 10 3 6 8 10 11 10 2 0 4 -4 4 -10z m304 -23 c6 -9 7 -19 3 -23 -9 -9
-37 15 -37 33 0 18 20 12 34 -10z m-254 -6 c0 -5 -7 -14 -15 -21 -13 -10 -15
-9 -15 9 0 12 6 21 15 21 8 0 15 -4 15 -9z m-105 -10 c-6 -5 -21 -12 -35 -16
-24 -7 -24 -7 -5 9 21 16 56 23 40 7z m291 -3 c38 -14 54 -55 54 -146 0 -87
-10 -107 -62 -121 -52 -13 -254 -18 -319 -7 -32 6 -49 5 -54 -3 -5 -8 -14 -4
-30 13 -15 17 -30 23 -44 19 -22 -6 -58 14 -113 63 -50 44 -51 49 -5 50 23 0
89 13 145 28 122 33 222 34 245 2 8 -11 19 -16 25 -12 20 12 13 35 -14 49
l-26 14 48 31 c51 35 95 40 150 20z m-361 -28 c-3 -5 -12 -10 -18 -10 -7 0 -6
4 3 10 19 12 23 12 15 0z m-1598 -22 c-3 -8 -6 -5 -6 6 -1 11 2 17 5 13 3 -3
4 -12 1 -19z m1328 12 c3 -5 -1 -10 -9 -10 -8 0 -18 5 -21 10 -3 6 1 10 9 10
8 0 18 -4 21 -10z m-1974 -26 c22 -26 53 -33 115 -24 42 5 78 3 124 -7 36 -8
91 -15 122 -16 61 -2 78 -11 59 -30 -12 -12 -36 -13 -281 -19 -86 -2 -124 -7
-149 -20 -19 -10 -38 -18 -43 -18 -9 0 -11 74 -2 119 7 35 33 42 55 15z m2131
4 c-9 -9 -15 -9 -24 0 -9 9 -7 12 12 12 19 0 21 -3 12 -12z m-1574 -17 c3 -10
0 -12 -12 -8 -9 4 -25 1 -36 -5 -24 -15 -37 -4 -20 17 16 19 61 16 68 -4z
m-48 -51 c0 -5 -7 -10 -15 -10 -8 0 -15 -4 -15 -10 0 -5 -7 -10 -15 -10 -22 0
-18 14 8 26 29 15 37 16 37 4z m1118 -222 c-7 -20 -128 -22 -164 -3 -28 14
-25 15 69 15 75 0 98 -3 95 -12z m-1287 -14 c11 -14 10 -18 -6 -30 -38 -28
-235 -13 -235 19 0 10 97 8 149 -4 50 -11 65 -4 37 17 -19 13 -18 14 11 14 17
0 37 -7 44 -16z m1092 -46 c17 -7 56 -8 98 -4 43 4 68 3 65 -3 -4 -5 -41 -13
-84 -17 -53 -5 -71 -9 -57 -15 11 -4 44 -5 73 -2 44 5 52 3 52 -11 0 -13 -11
-16 -55 -16 -30 0 -55 -4 -55 -10 0 -5 23 -10 51 -10 63 0 63 -23 0 -28 -27
-2 -41 -7 -38 -15 2 -7 18 -11 36 -9 47 3 39 -31 -9 -39 -30 -5 -31 -7 -8 -8
36 -1 39 -9 21 -64 -14 -42 -14 -48 1 -62 20 -20 20 -39 2 -54 -12 -10 -15 -7
-18 21 -4 48 -32 44 -36 -4 -2 -25 -8 -38 -18 -38 -10 0 -13 7 -9 25 16 79 17
74 -17 77 -30 3 -35 9 -59 68 -15 36 -34 81 -42 100 -26 63 -27 78 -3 83 17 3
15 5 -6 6 -41 2 -34 19 10 24 l37 4 -42 1 c-24 1 -43 7 -43 12 0 13 111 4 153
-12z m-1338 -35 c33 -3 97 0 142 7 46 7 85 11 88 8 3 -2 -9 -32 -25 -66 -17
-34 -30 -66 -30 -70 0 -4 -15 -43 -34 -87 l-33 -80 -68 -3 c-51 -2 -66 0 -62
10 2 7 11 12 20 10 8 -1 18 2 22 7 3 6 -10 13 -30 17 -19 3 -35 10 -35 16 0 5
5 6 11 3 5 -4 22 -3 37 1 25 7 23 8 -22 19 -63 14 -78 40 -17 30 25 -4 41 -3
41 3 0 5 -21 14 -47 18 -67 13 -70 35 -4 27 35 -4 51 -2 51 6 0 6 -12 11 -26
11 -36 0 -104 21 -99 31 3 4 34 5 70 2 79 -6 89 12 13 22 -87 12 -90 25 -5 18
103 -8 100 9 -6 25 -45 8 -86 18 -92 24 -7 7 3 8 35 4 25 -4 72 -10 105 -13z
m-125 -173 c6 -22 15 -40 19 -40 5 0 12 -12 16 -27 3 -16 14 -36 22 -45 14
-16 13 -18 -11 -27 -32 -13 -36 -54 -7 -85 17 -19 18 -27 9 -73 -10 -49 -13
-53 -39 -53 -28 0 -29 1 -29 55 0 50 2 55 21 52 12 -1 24 4 27 11 3 9 -3 13
-19 10 -22 -3 -23 0 -27 70 -4 68 -2 72 17 72 27 0 27 16 1 30 -15 8 -20 21
-20 50 0 51 6 51 20 0z m110 -150 c0 -5 -4 -10 -10 -10 -5 0 -10 5 -10 10 0 6
5 10 10 10 6 0 10 -4 10 -10z m115 -6 c19 -20 16 -69 -5 -69 -9 0 -15 11 -17
28 -1 16 -7 35 -14 43 -17 21 15 19 36 -2z m-65 -30 c0 -8 -4 -12 -10 -9 -5 3
-10 10 -10 16 0 5 5 9 10 9 6 0 10 -7 10 -16z m-24 -51 c-8 -8 -36 5 -36 17 0
7 6 7 21 0 11 -7 18 -14 15 -17z m62 1 c23 -11 32 -23 32 -39 0 -25 30 -121
74 -239 14 -38 26 -72 26 -76 0 -5 -13 -13 -30 -19 -17 -5 -30 -15 -30 -20 0
-15 4 -14 45 9 23 13 35 16 35 7 -1 -17 -103 -77 -132 -77 -46 0 -202 37 -206
48 -2 7 0 12 5 12 18 0 119 -19 136 -25 11 -5 17 -2 17 7 0 9 -26 18 -77 28
-88 17 -85 11 -56 110 20 67 31 82 54 75 9 -3 20 -2 23 4 3 5 -5 12 -19 15
-35 9 -31 26 5 26 17 0 30 5 30 10 0 6 -12 10 -26 10 -16 0 -24 5 -21 13 3 10
55 13 64 3 1 -1 8 -55 14 -119 7 -64 16 -117 20 -117 5 0 9 -11 9 -25 0 -29
31 -50 48 -33 8 8 8 15 1 24 -8 10 -3 17 23 28 18 8 27 15 20 15 -9 1 -11 8
-7 23 6 18 4 20 -11 13 -45 -18 -49 -14 -56 70 -16 205 -20 225 -39 225 -11 0
-19 7 -19 15 0 19 9 19 48 -1z m-63 -34 c3 -5 -3 -10 -15 -10 -12 0 -18 5 -15
10 3 6 10 10 15 10 5 0 12 -4 15 -10z m1415 6 c0 -3 -4 -8 -10 -11 -5 -3 -10
-1 -10 4 0 6 5 11 10 11 6 0 10 -2 10 -4z m-1420 -52 c0 -2 -9 -4 -21 -4 -11
0 -18 4 -14 10 5 8 35 3 35 -6z m1430 -49 c-7 -8 -19 -15 -26 -15 -20 0 -17
38 4 43 25 5 37 -9 22 -28z m-1530 -31 c0 -21 -31 -117 -41 -128 -5 -6 -9 15
-9 49 0 40 5 64 17 77 20 22 33 23 33 2z m1543 -9 c1 -6 -10 -11 -25 -13 -31
-4 -39 14 -10 21 23 6 33 4 35 -8z m24 -51 c5 -15 -66 -29 -80 -15 -7 7 -3 13
14 20 30 12 61 10 66 -5z m10 -68 c-4 -9 -15 -16 -26 -16 -11 0 -23 -4 -26
-10 -4 -6 11 -10 37 -10 l43 -1 -38 -14 c-53 -18 -57 -25 -15 -25 20 0 41 7
48 15 8 10 17 12 23 6 16 -16 -1 -28 -53 -35 -33 -4 -50 -11 -50 -21 0 -11 11
-13 53 -9 35 4 47 2 37 -4 -8 -6 -40 -12 -70 -13 l-54 -4 -3 56 c-3 51 -2 57
19 64 l23 8 -23 4 c-35 7 -20 27 24 33 44 7 60 -1 51 -24z m-1630 -58 c-3 -8
-6 -5 -6 6 -1 11 2 17 5 13 3 -3 4 -12 1 -19z m263 -8 c-20 -13 -43 -13 -35 0
3 6 16 10 28 10 18 0 19 -2 7 -10z"/>
<g>
<path d="M560 3171 c-40 -13 -83 -38 -113 -66 -23 -22 -31 -24 -43 -15 -9 8
-31 11 -60 7 -84 -9 -130 -80 -99 -154 20 -48 20 -50 -16 -68 -24 -13 -30 -22
-27 -43 2 -20 9 -28 26 -30 22 -3 23 -1 17 26 -5 25 -3 30 17 35 30 8 31 6 18
-42 -8 -31 -16 -41 -31 -41 -30 0 -114 -46 -131 -72 -34 -53 -27 -111 23 -170
26 -32 30 -33 97 -33 58 0 74 -3 85 -19 11 -16 21 -18 59 -12 29 4 49 3 53 -4
3 -5 15 -10 25 -10 10 0 20 -5 22 -10 5 -16 109 -14 148 3 19 8 46 24 59 36
13 11 33 21 43 21 11 0 32 9 47 19 27 19 27 19 39 0 8 -13 23 -19 49 -19 20 0
44 -6 52 -13 9 -8 39 -20 66 -27 28 -8 65 -20 83 -27 31 -13 32 -16 27 -51
-16 -97 -69 -243 -103 -284 -13 -15 -11 -22 15 -55 16 -21 35 -51 43 -67 8
-16 20 -31 27 -33 6 -3 69 9 140 26 70 16 146 34 168 38 54 12 55 32 2 88 -65
70 -100 183 -102 332 -1 111 -1 112 -30 135 -49 38 -65 57 -65 77 0 11 6 21
12 24 7 2 10 8 6 12 -12 12 -58 -24 -58 -45 0 -11 -4 -20 -8 -20 -11 0 -12 69
-1 76 5 3 9 14 9 25 0 28 -56 186 -81 227 -24 42 -25 72 -1 71 41 -1 143 -25
136 -32 -4 -4 2 -7 14 -7 11 0 25 -7 30 -17 8 -13 19 -15 61 -10 47 6 51 4 51
-15 0 -11 -13 -42 -29 -68 -43 -69 -61 -133 -59 -198 1 -31 -1 -65 -6 -74 -12
-27 19 -23 38 4 19 27 21 59 4 76 -15 15 1 70 52 177 73 155 94 213 81 229
-19 23 -222 49 -315 41 -76 -6 -127 -23 -141 -44 -3 -6 4 -27 15 -48 11 -21
20 -43 20 -49 0 -6 15 -45 34 -85 18 -41 37 -89 40 -107 4 -17 12 -34 17 -37
13 -8 11 -52 -2 -61 -6 -3 -9 -21 -7 -39 3 -29 0 -34 -30 -45 -39 -14 -64 -5
-112 40 -38 36 -44 62 -20 88 18 19 20 32 16 125 -2 57 -9 114 -16 127 -27 51
-70 80 -119 80 -38 0 -61 9 -61 24 0 14 -35 49 -65 63 -29 15 -106 23 -135 14z
m114 -36 c18 -9 43 -29 54 -45 15 -20 34 -31 59 -35 65 -11 88 -24 116 -67 32
-50 34 -78 7 -103 -18 -16 -18 -20 -5 -46 36 -68 -1 -128 -71 -115 -30 6 -34
11 -34 36 0 39 -32 41 -56 5 -14 -21 -15 -30 -5 -52 l12 -26 -56 6 c-49 5 -55
4 -55 -13 0 -10 -11 -32 -25 -48 -40 -48 -195 -77 -195 -36 0 7 -12 20 -28 29
-59 35 -96 128 -82 206 9 46 21 59 88 91 42 20 43 21 37 62 -17 109 131 202
239 151z m-293 -67 c19 -18 25 -35 27 -73 2 -46 0 -51 -26 -63 -16 -6 -38 -21
-49 -31 -20 -19 -22 -19 -36 -3 -17 20 -35 79 -31 105 4 31 34 67 54 67 10 0
22 5 25 10 8 13 9 13 36 -12z m1015 1 c13 -22 -19 -34 -109 -41 -97 -7 -167
-1 -167 13 0 5 20 9 44 9 24 0 48 6 54 13 13 15 168 21 178 6z m-1156 -319 c0
-5 9 -10 20 -10 13 0 24 -10 31 -27 6 -16 24 -42 41 -60 28 -29 30 -36 22 -65
-16 -53 -86 -74 -163 -47 -52 18 -78 93 -46 135 8 10 15 26 15 34 0 25 80 65
80 40z m643 -83 c12 -37 -9 -81 -45 -95 -26 -10 -28 -9 -28 16 -1 15 -7 38
-15 52 -21 36 -19 40 20 40 19 0 35 5 35 11 0 20 24 3 33 -24z m-144 -26 c29
-29 24 -95 -7 -99 -12 -2 -36 3 -52 11 -33 17 -43 9 -35 -26 13 -49 -93 -77
-153 -40 -44 27 -102 86 -102 103 1 11 7 8 21 -10 20 -23 27 -25 92 -22 56 2
82 9 128 34 40 21 59 37 59 49 0 25 25 24 49 0z m473 -59 c40 -23 47 -47 8
-27 -33 17 -60 20 -60 5 0 -5 10 -10 23 -10 13 0 34 -12 48 -27 l24 -26 -25
16 c-33 23 -72 21 -87 -2 -11 -18 -8 -21 35 -35 l47 -15 -75 6 c-82 6 -200 41
-225 67 -23 23 -16 62 10 57 49 -9 155 -5 167 7 15 15 70 7 110 -16z m-834
-66 c3 -12 -1 -17 -10 -14 -7 3 -15 13 -16 22 -3 12 1 17 10 14 7 -3 15 -13
16 -22z m837 -16 c7 -12 -12 -12 -40 0 -18 8 -17 9 7 9 15 1 30 -3 33 -9z
m-60 -157 c-4 -54 -8 -116 -10 -138 -2 -22 -4 -43 -4 -48 -1 -4 -12 -5 -26 -1
-15 4 -25 2 -25 -5 0 -6 6 -11 13 -11 21 0 40 -17 32 -29 -5 -9 -10 -9 -20 -1
-8 7 -22 10 -32 8 -14 -3 -11 -8 15 -21 32 -17 40 -31 23 -41 -4 -3 -20 8 -35
25 -15 17 -32 27 -38 23 -8 -5 2 -19 27 -41 21 -18 35 -36 32 -40 -9 -9 -77
57 -77 74 0 7 14 41 31 75 35 73 69 188 69 235 0 23 5 33 16 33 13 0 14 -13 9
-97z m85 87 c0 -5 -9 -10 -20 -10 -11 0 -20 5 -20 10 0 6 9 10 20 10 11 0 20
-4 20 -10z m0 -34 c1 0 3 -18 6 -38 5 -36 4 -38 -21 -38 -14 0 -24 -4 -21 -9
3 -5 15 -7 25 -4 16 4 22 -4 35 -48 9 -29 15 -53 13 -54 -1 -2 -23 -6 -49 -9
l-48 -7 0 38 c0 21 3 61 6 90 5 42 10 50 23 46 12 -4 11 -2 -3 9 -23 18 -14
38 14 31 11 -3 20 -6 20 -7z m59 -242 c12 -33 10 -48 -7 -50 -53 -4 -94 -19
-103 -36 -10 -18 -9 -20 7 -14 11 4 33 10 49 13 17 3 38 12 47 21 19 16 52 9
46 -10 -3 -7 -19 -14 -37 -15 -18 -2 -40 -8 -49 -14 -18 -11 -8 -10 81 6 20 4
37 3 37 -2 0 -5 -46 -19 -102 -32 -57 -12 -114 -25 -128 -28 -23 -6 -24 -5
-10 13 23 30 40 62 40 79 0 18 24 31 73 40 20 4 37 11 37 15 0 4 -17 4 -37 -1
-55 -12 -73 -9 -38 6 l30 14 -27 1 c-44 0 -32 18 15 23 23 2 47 4 52 5 6 1 17
-14 24 -34z m-72 -80 c-3 -3 -12 -4 -19 -1 -8 3 -5 6 6 6 11 1 17 -2 13 -5z"/>
<g>
<path d="M715 2933 c-46 -10 -74 -26 -78 -46 -23 -94 -16 -157 17 -157 10 0
14 20 14 77 1 87 8 97 72 107 41 6 84 -5 112 -31 18 -16 38 -10 38 11 0 36
-95 57 -175 39z"/>
</g>
<g>
<path d="M1110 2190 c0 -5 5 -10 11 -10 5 0 7 5 4 10 -3 6 -8 10 -11 10 -2 0
-4 -4 -4 -10z"/>
</g>
<g>
<path d="M1210 2240 c0 -5 4 -10 9 -10 6 0 13 5 16 10 3 6 -1 10 -9 10 -9 0
-16 -4 -16 -10z"/>
</g>
</g>
<g>
<path d="M1308 2928 c9 -9 15 -9 24 0 9 9 7 12 -12 12 -19 0 -21 -3 -12 -12z"/>
</g>
<g>
<path d="M1220 2646 c0 -33 16 -42 29 -17 16 29 13 41 -9 41 -15 0 -20 -7 -20
-24z"/>
</g>
<g>
<path d="M767 5163 c-13 -12 -7 -23 13 -23 11 0 20 7 20 15 0 15 -21 21 -33 8z"/>
</g>
<g>
<path d="M1791 4387 c-6 -8 -8 -17 -4 -21 4 -3 -3 -15 -15 -26 -28 -27 -30
-54 -2 -45 20 6 25 -2 20 -34 -1 -9 6 -12 24 -9 14 3 27 0 29 -5 7 -23 27 6
27 39 0 26 -8 43 -28 63 -15 16 -26 33 -24 40 5 15 -13 14 -27 -2z"/>
</g>
<g>
<path d="M1733 4254 c-8 -21 9 -48 33 -53 15 -3 16 -1 6 11 -10 12 -6 14 21
11 l32 -4 -32 15 c-18 8 -33 20 -33 26 0 16 -20 12 -27 -6z"/>
</g>
<g>
<path d="M1735 4171 c-6 -11 41 -51 61 -51 26 0 44 13 44 32 0 16 -5 18 -34
13 -20 -4 -36 -2 -40 4 -9 13 -23 14 -31 2z"/>
</g>
<g>
<path d="M1742 4098 c6 -18 66 -34 80 -20 18 18 -1 32 -43 32 -28 0 -39 -4
-37 -12z"/>
</g>
<g>
<path d="M1795 3870 c4 -6 11 -8 16 -5 14 9 11 15 -7 15 -8 0 -12 -5 -9 -10z"/>
</g>
<g>
<path d="M1760 3706 c0 -9 5 -16 10 -16 6 0 10 4 10 9 0 6 -4 13 -10 16 -5 3
-10 -1 -10 -9z"/>
</g>
<g>
<path d="M1760 3578 c1 -31 1 -32 15 -13 17 21 15 37 -3 43 -8 2 -12 -8 -12
-30z"/>
</g>
<g>
<path d="M2005 3469 c-4 -6 -5 -13 -2 -16 7 -7 27 6 27 18 0 12 -17 12 -25 -2z"/>
</g>
<g>
<path d="M1740 3346 c0 -9 7 -16 16 -16 9 0 14 5 12 12 -6 18 -28 21 -28 4z"/>
</g>
<g>
<path d="M1734 3110 c3 -14 6 -31 6 -37 0 -7 5 -13 10 -13 12 0 2 50 -13 65
-6 7 -8 2 -3 -15z"/>
</g>
<g>
<path d="M2138 2773 c12 -2 32 -2 45 0 12 2 2 4 -23 4 -25 0 -35 -2 -22 -4z"/>
</g>
<g>
<path d="M2145 2741 c-3 -5 -2 -12 3 -15 13 -8 53 5 46 15 -7 12 -41 12 -49 0z"/>
</g>
<g>
<path d="M2080 2651 c0 -5 6 -11 13 -14 18 -6 48 4 41 14 -7 12 -54 12 -54 0z"/>
</g>
<g>
<path d="M2220 2597 c0 -20 -75 -47 -112 -40 -27 4 -31 3 -21 -7 15 -16 64
-16 95 1 46 23 75 59 48 59 -5 0 -10 -6 -10 -13z"/>
</g>
<g>
<path d="M1740 2320 c0 -21 38 -37 65 -26 22 8 18 19 -12 34 -38 17 -53 15
-53 -8z"/>
</g>
<g>
<path d="M2047 2183 c-17 -17 -6 -34 20 -31 36 4 45 38 10 38 -13 0 -27 -3
-30 -7z"/>
</g>
<g>
<path d="M1604 1812 c-5 -5 -28 -14 -51 -22 -23 -7 -52 -23 -64 -36 -12 -13
-26 -21 -31 -18 -5 3 -18 -2 -28 -11 -10 -9 -24 -14 -30 -10 -6 4 -20 -1 -30
-10 -10 -9 -23 -14 -29 -11 -16 10 -95 -38 -109 -67 -7 -15 -20 -27 -28 -27
-9 0 -14 -10 -14 -27 0 -15 -8 -36 -19 -47 -10 -12 -21 -33 -25 -48 -5 -24 -3
-28 14 -28 11 0 23 7 26 15 5 11 10 13 19 5 16 -13 60 2 68 24 8 19 -11 32
-26 17 -14 -14 -47 -15 -47 -1 0 6 4 10 9 10 5 0 9 10 9 23 0 12 15 39 34 60
39 42 48 46 41 17 -5 -20 12 -50 28 -50 5 0 9 17 9 39 0 37 2 39 48 56 26 10
51 22 57 26 5 5 18 9 30 9 11 0 36 8 55 19 31 16 36 16 46 3 8 -11 15 -12 30
-4 44 25 44 26 30 65 -7 21 -16 33 -22 29z"/>
</g>
<g>
<path d="M2683 1663 c-19 -39 -16 -45 19 -41 37 4 52 28 17 28 -18 0 -20 3
-11 12 16 16 15 28 0 28 -7 0 -19 -12 -25 -27z"/>
</g>
<g>
<path d="M1435 1660 c-11 -17 5 -32 21 -19 7 6 11 15 8 20 -7 12 -21 11 -29
-1z"/>
</g>
<g>
<path d="M1354 1635 c-8 -21 4 -35 32 -35 17 0 24 6 24 19 0 29 -46 43 -56 16z"/>
</g>
<g>
<path d="M2605 1631 c-3 -5 -1 -12 5 -16 12 -7 30 2 30 16 0 12 -27 12 -35 0z"/>
</g>
<g>
<path d="M2875 1589 c-10 -15 3 -25 16 -12 7 7 7 13 1 17 -6 3 -14 1 -17 -5z"/>
</g>
<g>
<path d="M1272 1571 c-14 -8 -6 -41 9 -41 14 0 23 30 13 40 -5 5 -15 6 -22 1z"/>
</g>
<g>
<path d="M2894 1545 c-9 -22 4 -35 37 -35 19 0 29 5 29 15 0 8 -7 15 -15 15
-8 0 -15 5 -15 10 0 16 -30 12 -36 -5z"/>
</g>
<g>
<path d="M2750 1535 c0 -10 7 -15 18 -13 21 4 19 22 -2 26 -10 2 -16 -3 -16
-13z"/>
</g>
<g>
<path d="M2816 1531 c-9 -15 23 -36 36 -23 5 5 7 15 4 21 -9 13 -33 14 -40 2z"/>
</g>
<g>
<path d="M1304 1499 c-3 -6 -2 -15 4 -21 13 -13 32 -2 32 18 0 16 -26 19 -36
3z"/>
</g>
<g>
<path d="M1133 1412 c-30 -3 -33 -6 -33 -37 0 -36 14 -54 24 -30 3 9 17 20 31
25 23 9 34 35 18 42 -5 2 -23 2 -40 0z"/>
</g>
<g>
<path d="M1204 1406 c-8 -22 3 -33 18 -18 9 9 9 15 0 24 -9 9 -13 7 -18 -6z"/>
</g>
<g>
<path d="M2860 1380 c0 -5 5 -10 10 -10 6 0 10 5 10 10 0 6 -4 10 -10 10 -5 0
-10 -4 -10 -10z"/>
</g>
<g>
<path d="M1196 1355 c-3 -9 0 -15 9 -15 8 0 15 7 15 15 0 8 -4 15 -9 15 -5 0
-11 -7 -15 -15z"/>
</g>
<g>
<path d="M1000 1345 c-10 -12 -10 -15 3 -15 19 0 31 16 18 24 -5 3 -14 -1 -21
-9z"/>
</g>
<g>
<path d="M1277 1353 c-12 -12 -7 -22 8 -17 8 4 15 10 15 15 0 11 -14 12 -23 2z"/>
</g>
<g>
<path d="M2870 1309 c0 -25 33 -22 38 4 2 12 -3 17 -17 17 -15 0 -21 -6 -21
-21z"/>
</g>
<g>
<path d="M890 1300 c0 -5 9 -10 20 -10 11 0 20 5 20 10 0 6 -9 10 -20 10 -11
0 -20 -4 -20 -10z"/>
</g>
<g>
<path d="M2920 1294 c0 -9 7 -14 17 -12 25 5 28 28 4 28 -12 0 -21 -6 -21 -16z"/>
</g>
<g>
<path d="M1185 1290 c-3 -5 -17 -10 -31 -10 -28 0 -31 -12 -8 -31 12 -10 20
-10 35 -1 10 7 26 12 34 12 20 0 19 26 -1 34 -21 8 -22 8 -29 -4z"/>
</g>
<g>
<path d="M837 1284 c-11 -11 -8 -44 3 -44 15 0 24 30 13 41 -5 5 -12 6 -16 3z"/>
</g>
<g>
<path d="M1356 1267 c-28 -17 -56 -46 -56 -56 0 -5 7 -14 16 -21 13 -11 16
-10 21 8 3 12 9 22 14 22 5 0 9 7 9 16 0 8 5 12 10 9 15 -9 30 4 23 20 -6 18
-12 18 -37 2z"/>
</g>
<g>
<path d="M780 1260 c0 -5 -10 -9 -21 -7 -25 2 -38 -20 -17 -28 21 -8 68 12 68
30 0 8 -7 15 -15 15 -8 0 -15 -4 -15 -10z"/>
</g>
<g>
<path d="M1260 1266 c0 -9 30 -14 35 -6 4 6 -3 10 -14 10 -12 0 -21 -2 -21 -4z"/>
</g>
<g>
<path d="M995 1250 c-4 -6 -15 -8 -26 -5 -23 8 -38 -20 -20 -38 8 -8 14 -8 23
1 7 7 20 12 30 12 11 0 18 7 18 20 0 21 -15 27 -25 10z"/>
</g>
<g>
<path d="M637 1244 c-9 -10 4 -34 19 -34 8 0 14 9 14 20 0 19 -19 27 -33 14z"/>
</g>
<g>
<path d="M1060 1235 c0 -10 7 -15 18 -13 21 4 19 22 -2 26 -10 2 -16 -3 -16
-13z"/>
</g>
<g>
<path d="M425 1219 c-4 -6 -4 -13 -1 -16 8 -8 36 5 36 17 0 13 -27 13 -35 -1z"/>
</g>
<g>
<path d="M676 1200 c-11 -24 -12 -30 -1 -30 7 0 15 8 19 18 3 9 9 23 12 30 13
27 -16 10 -30 -18z"/>
</g>
<g>
<path d="M140 1200 c-12 -23 -6 -40 16 -40 9 0 14 11 14 30 0 35 -14 39 -30
10z"/>
</g>
<g>
<path d="M344 1205 c-10 -8 -14 -14 -9 -15 15 0 40 18 34 24 -3 3 -14 -1 -25
-9z"/>
</g>
<g>
<path d="M585 1211 c-7 -12 12 -24 25 -16 11 7 4 25 -10 25 -5 0 -11 -4 -15
-9z"/>
</g>
<g>
<path d="M267 1203 c-4 -3 -7 -11 -7 -17 0 -6 5 -5 12 2 6 6 9 14 7 17 -3 3
-9 2 -12 -2z"/>
</g>
<g>
<path d="M720 1200 c0 -5 5 -10 10 -10 6 0 10 5 10 10 0 6 -4 10 -10 10 -5 0
-10 -4 -10 -10z"/>
</g>
<g>
<path d="M810 1200 c0 -5 7 -10 15 -10 8 0 15 5 15 10 0 6 -7 10 -15 10 -8 0
-15 -4 -15 -10z"/>
</g>
<g>
<path d="M1381 1196 c-8 -10 -9 -16 -1 -21 5 -3 13 1 16 10 9 22 -1 29 -15 11z"/>
</g>
<g>
<path d="M190 1191 c0 -13 26 -32 33 -24 14 13 6 33 -13 33 -11 0 -20 -4 -20
-9z"/>
</g>
<g>
<path d="M522 1188 c-6 -6 -12 -18 -12 -26 0 -12 -3 -12 -16 -1 -14 11 -18 10
-30 -6 -15 -21 -19 -55 -6 -55 5 0 17 7 28 15 10 8 31 15 47 15 30 0 36 23 14
53 -10 14 -15 15 -25 5z"/>
</g>
<g>
<path d="M1181 1191 c-16 -10 -6 -31 14 -31 14 0 27 24 18 34 -8 8 -15 7 -32
-3z"/>
</g>
<g>
<path d="M45 1180 c-9 -15 4 -30 20 -23 8 3 15 0 15 -6 0 -6 7 -11 15 -11 8 0
15 5 15 10 0 6 -6 10 -14 10 -8 0 -16 7 -20 15 -6 17 -22 20 -31 5z"/>
</g>
<g>
<path d="M1065 1180 c4 -6 11 -8 16 -5 14 9 11 15 -7 15 -8 0 -12 -5 -9 -10z"/>
</g>
<g>
<path d="M1267 1184 c-3 -4 -2 -16 4 -26 13 -24 33 -10 23 15 -6 18 -16 21
-27 11z"/>
</g>
<g>
<path d="M375 1170 c3 -5 13 -10 21 -10 8 0 14 5 14 10 0 6 -9 10 -21 10 -11
0 -17 -4 -14 -10z"/>
</g>
<g>
<path d="M915 1169 c-4 -6 -5 -13 -2 -16 7 -7 27 6 27 18 0 12 -17 12 -25 -2z"/>
</g>
<g>
<path d="M850 1160 c0 -5 7 -10 15 -10 8 0 15 5 15 10 0 6 -7 10 -15 10 -8 0
-15 -4 -15 -10z"/>
</g>
<g>
<path d="M1095 1141 c-3 -5 -1 -12 4 -15 12 -8 41 3 41 15 0 12 -37 12 -45 0z"/>
</g>
<g>
<path d="M705 1121 c-73 -10 -142 -28 -150 -40 -3 -5 6 -31 19 -58 13 -26 27
-64 31 -83 4 -19 23 -64 41 -99 19 -35 34 -68 34 -73 0 -12 -37 -10 -61 5 -17
10 -23 10 -26 0 -3 -7 -17 -13 -31 -13 -32 0 -60 -36 -43 -53 8 -8 19 -4 41
11 29 22 30 22 30 2 0 -17 6 -20 41 -18 31 1 43 6 47 20 5 19 14 23 25 11 4
-3 0 -14 -9 -24 -25 -27 -10 -78 28 -94 17 -7 26 -15 20 -19 -5 -3 -13 -34
-17 -67 -4 -34 -18 -91 -30 -128 -13 -36 -31 -88 -41 -116 -9 -27 -26 -60 -37
-72 -26 -30 -11 -48 56 -68 28 -8 61 -22 74 -30 46 -30 113 -30 184 0 35 15
74 31 87 36 55 22 72 34 72 50 0 18 -25 49 -40 49 -5 0 -21 25 -36 56 -15 31
-32 58 -38 60 -6 2 -12 23 -13 46 -2 23 -7 44 -12 47 -4 3 -11 20 -14 36 -3
17 -11 49 -17 72 -11 37 -10 44 5 59 12 12 15 28 12 53 -4 39 14 128 37 176 8
17 24 62 37 100 12 39 28 79 36 91 17 27 9 48 -25 64 -32 15 -232 22 -317 11z
m302 -34 c18 -18 -18 -27 -108 -27 -76 0 -100 3 -96 13 2 6 20 12 40 12 19 0
39 3 43 7 8 8 112 4 121 -5z m-17 -66 c0 -21 -35 -136 -50 -166 -6 -11 -19
-47 -29 -80 l-19 -60 -48 -3 c-58 -4 -114 22 -113 53 0 11 3 14 6 8 2 -7 18
-13 35 -13 25 0 28 3 19 14 -7 8 -27 17 -46 20 -53 10 -42 27 11 19 38 -5 46
-3 42 8 -4 12 -29 21 -105 35 -45 9 -22 24 37 24 46 0 58 3 54 14 -3 9 -24 14
-60 15 -59 1 -74 6 -74 22 0 7 27 8 73 5 39 -3 79 -1 87 4 19 12 7 16 -70 25
-68 8 -100 15 -100 24 0 9 103 7 118 -3 7 -4 24 -5 38 -2 48 13 18 27 -65 31
-46 2 -86 7 -90 10 -3 4 26 5 64 3 39 -3 108 -1 155 2 47 4 95 8 108 8 15 2
22 -4 22 -17z m-150 -368 c0 -37 -24 -22 -28 17 -3 30 -2 32 12 21 9 -8 16
-25 16 -38z m-72 10 c-4 -22 -22 -20 -26 1 -2 10 3 16 13 16 10 0 15 -7 13
-17z m132 3 c0 -8 -4 -18 -10 -21 -5 -3 -10 3 -10 14 0 12 5 21 10 21 6 0 10
-6 10 -14z m-120 -56 c0 -5 -4 -10 -10 -10 -5 0 -10 5 -10 10 0 6 5 10 10 10
6 0 10 -4 10 -10z m70 -10 c13 0 22 -11 29 -37 6 -20 9 -37 8 -38 -34 -16 -56
-23 -60 -18 -3 2 -3 20 0 39 4 27 2 34 -11 34 -9 0 -16 7 -16 16 0 11 5 14 16
10 9 -3 24 -6 34 -6z m-55 -40 c3 -5 -1 -10 -9 -10 -9 0 -16 5 -16 10 0 6 4
10 9 10 6 0 13 -4 16 -10z m-11 -218 c-2 -115 1 -181 8 -189 15 -19 -13 -17
-38 2 -10 8 -26 15 -34 15 -20 1 -55 28 -47 37 4 3 22 -2 42 -12 19 -11 38
-16 42 -12 9 10 -14 26 -49 34 -16 3 -28 11 -28 18 0 21 11 23 38 9 32 -17 42
-17 42 -3 0 5 -13 15 -30 20 -16 6 -30 18 -30 26 0 11 4 13 13 6 20 -16 47
-23 47 -12 0 5 -11 15 -25 21 -27 12 -31 27 -16 56 16 29 41 119 41 146 0 17
4 24 14 20 10 -4 12 -40 10 -182z m121 126 c13 -50 12 -52 -20 -59 -16 -4 -38
-10 -47 -14 -14 -6 -18 -2 -18 18 0 22 5 26 32 29 35 3 52 28 19 28 -11 0 -23
-4 -26 -10 -10 -17 -27 -11 -23 7 3 15 18 22 69 32 4 0 10 -14 14 -31z m41
-114 c8 -18 14 -35 14 -37 0 -3 -19 -7 -41 -10 -40 -5 -68 -21 -57 -32 2 -3
27 2 54 10 27 8 50 15 51 15 8 0 51 -99 46 -104 -11 -11 -23 -6 -23 10 0 13
-8 15 -42 9 -105 -15 -119 -23 -78 -45 14 -7 26 -8 39 0 11 5 30 10 43 10 38
0 -45 -39 -99 -47 -42 -6 -45 -5 -39 14 6 20 9 89 5 123 -1 8 -1 36 -1 63 l2
47 39 0 c22 0 43 5 46 10 10 15 25 1 41 -36z"/>
<g>
<path d="M745 370 c3 -5 11 -10 16 -10 6 0 7 5 4 10 -3 6 -11 10 -16 10 -6 0
-7 -4 -4 -10z"/>
</g>
<g>
<path d="M732 338 c3 -7 13 -15 24 -17 16 -3 17 -1 5 13 -16 19 -34 21 -29 4z"/>
</g>
<g>
<path d="M870 335 c0 -19 11 -19 36 0 18 14 18 14 -8 15 -18 0 -28 -5 -28 -15z"/>
</g>
<g>
<path d="M852 238 c3 -7 23 -14 47 -16 32 -2 42 0 39 10 -3 7 -23 14 -47 16
-32 2 -42 0 -39 -10z"/>
</g>
</g>
<g>
<path d="M2760 1120 c0 -11 48 -25 56 -17 4 3 3 10 -1 16 -8 14 -55 14 -55 1z"/>
</g>
<g>
<path d="M2701 1101 c-12 -8 -12 -12 -2 -25 16 -19 27 -14 34 14 5 21 -8 26
-32 11z"/>
</g>
<g>
<path d="M1155 1090 c-3 -5 -4 -14 -1 -19 9 -13 46 -1 46 15 0 16 -36 19 -45
4z"/>
</g>
<g>
<path d="M2650 1075 c0 -9 5 -15 11 -13 6 2 11 8 11 13 0 5 -5 11 -11 13 -6 2
-11 -4 -11 -13z"/>
</g>
<g>
<path d="M2484 1059 c-10 -17 13 -36 27 -22 12 12 4 33 -11 33 -5 0 -12 -5
-16 -11z"/>
</g>
<g>
<path d="M2735 1046 c-14 -14 -25 -32 -25 -41 0 -9 -4 -13 -10 -10 -5 3 -10
15 -10 26 0 28 -24 19 -28 -10 l-4 -23 -28 27 c-20 19 -35 25 -47 21 -15 -6
-15 -8 -3 -16 13 -8 12 -10 -2 -10 -21 0 -23 -27 -4 -52 22 -29 36 -22 30 15
-4 24 -3 28 5 17 6 -8 11 -25 11 -37 0 -32 19 -38 29 -10 13 34 55 30 59 -6 2
-15 10 -27 18 -27 15 0 17 7 14 57 -1 21 5 38 19 50 12 9 21 23 21 30 0 24
-20 24 -45 -1z"/>
</g>
<g>
<path d="M1813 1041 c-3 -11 -9 -21 -14 -21 -5 0 -9 -7 -9 -15 0 -21 30 -31
41 -14 6 10 9 11 9 1 0 -9 7 -8 25 4 30 20 34 54 6 54 -11 0 -27 3 -36 6 -11
5 -18 0 -22 -15z"/>
</g>
<g>
<path d="M501 1021 c-12 -22 -7 -28 24 -27 13 1 20 8 20 21 0 27 -31 31 -44 6z"/>
</g>
<g>
<path d="M1920 1014 c0 -8 5 -12 10 -9 6 3 10 10 10 16 0 5 -4 9 -10 9 -5 0
-10 -7 -10 -16z"/>
</g>
<g>
<path d="M2860 1016 c0 -20 21 -31 55 -31 20 0 30 5 30 15 0 10 -10 15 -27 15
-14 0 -30 3 -34 8 -12 11 -24 8 -24 -7z"/>
</g>
<g>
<path d="M1090 1011 c0 -6 5 -13 10 -16 6 -3 10 1 10 9 0 9 -4 16 -10 16 -5 0
-10 -4 -10 -9z"/>
</g>
<g>
<path d="M1171 990 c-13 -11 -21 -24 -17 -27 4 -4 10 -3 14 3 4 6 18 11 32 10
16 -1 25 4 25 14 0 22 -27 22 -54 0z"/>
</g>
<g>
<path d="M1282 972 c-6 -14 -10 -28 -7 -30 7 -8 35 19 35 34 0 24 -15 22 -28
-4z"/>
</g>
<g>
<path d="M2767 993 c-4 -3 -7 -17 -7 -30 0 -17 5 -23 16 -21 8 2 15 6 15 11
-1 4 -1 16 -1 27 0 20 -11 26 -23 13z"/>
</g>
<g>
<path d="M2016 973 c-12 -12 -6 -33 9 -33 8 0 15 6 15 14 0 17 -14 28 -24 19z"/>
</g>
<g>
<path d="M1966 963 c-12 -12 -6 -33 9 -33 8 0 15 6 15 14 0 17 -14 28 -24 19z"/>
</g>
<g>
<path d="M2110 930 c0 -13 5 -20 13 -17 6 2 12 10 12 17 0 7 -6 15 -12 18 -8
2 -13 -5 -13 -18z"/>
</g>
<g>
<path d="M2154 939 c-3 -6 -2 -15 4 -21 13 -13 32 -2 32 18 0 16 -26 19 -36 3z"/>
</g>
<g>
<path d="M1230 889 c0 -15 4 -19 16 -15 9 3 24 6 35 6 10 0 19 7 19 15 0 10
-11 15 -35 15 -29 0 -35 -4 -35 -21z"/>
</g>
<g>
<path d="M1773 903 c-35 -3 -43 -8 -43 -24 0 -10 -6 -19 -14 -19 -18 0 -29
-17 -21 -31 5 -7 14 -4 26 7 11 9 22 14 26 11 3 -4 16 -1 29 8 20 13 22 12 27
-5 3 -11 12 -20 20 -20 10 0 14 11 13 40 0 22 -5 39 -11 38 -5 -1 -29 -3 -52
-5z"/>
</g>
<g>
<path d="M2554 896 c-8 -22 3 -33 18 -18 9 9 9 15 0 24 -9 9 -13 7 -18 -6z"/>
</g>
<g>
<path d="M1071 886 c-7 -8 -24 -17 -38 -21 -34 -8 -18 -25 29 -29 19 -2 41 -7
48 -11 15 -9 54 31 44 46 -8 14 -34 10 -40 -6 -9 -22 -26 -18 -19 4 7 24 -9
35 -24 17z"/>
</g>
<g>
<path d="M1860 880 c0 -23 25 -27 33 -6 7 16 -1 26 -20 26 -7 0 -13 -9 -13
-20z"/>
</g>
<g>
<path d="M2050 870 c0 -24 -13 -26 -30 -5 -16 19 -29 19 -36 1 -8 -21 33 -58
55 -51 11 3 26 -1 34 -10 11 -10 18 -12 22 -4 4 6 2 16 -4 22 -6 6 -11 24 -11
39 0 18 -5 28 -15 28 -8 0 -15 -9 -15 -20z"/>
</g>
<g>
<path d="M2679 872 c-10 -16 -20 -19 -41 -15 -32 6 -35 -3 -10 -33 11 -12 30
-21 49 -22 27 -1 32 3 36 31 3 19 0 38 -8 46 -11 11 -15 10 -26 -7z"/>
</g>
<g>
<path d="M2122 868 c-18 -18 -14 -28 8 -28 11 0 20 6 20 14 0 21 -15 27 -28
14z"/>
</g>
<g>
<path d="M1308 863 c7 -3 16 -2 19 1 4 3 -2 6 -13 5 -11 0 -14 -3 -6 -6z"/>
</g>
<g>
<path d="M1170 845 c0 -8 4 -15 9 -15 5 0 14 7 21 15 10 13 9 15 -9 15 -12 0
-21 -6 -21 -15z"/>
</g>
<g>
<path d="M2840 847 c0 -25 31 -57 56 -57 27 0 40 20 30 46 -5 14 -9 14 -22 3
-13 -11 -17 -10 -25 4 -12 20 -39 23 -39 4z"/>
</g>
<g>
<path d="M2753 843 c-18 -6 -16 -43 1 -43 16 0 30 30 19 40 -4 4 -14 5 -20 3z"/>
</g>
<g>
<path d="M2585 811 c-8 -15 3 -31 21 -31 9 0 14 7 12 17 -4 20 -24 28 -33 14z"/>
</g>
<g>
<path d="M1906 802 c-7 -11 4 -52 14 -52 4 0 10 9 13 20 5 20 -17 48 -27 32z"/>
</g>
<g>
<path d="M2156 802 c-7 -12 3 -42 14 -42 16 0 19 17 6 35 -8 11 -15 14 -20 7z"/>
</g>
<g>
<path d="M2195 800 c-3 -6 1 -13 10 -16 19 -8 30 0 20 15 -8 14 -22 14 -30 1z"/>
</g>
<g>
<path d="M1240 788 c-8 -8 -24 -12 -38 -10 -20 4 -23 1 -20 -19 3 -23 7 -24
63 -21 65 3 79 10 69 35 -7 19 -34 23 -34 5 0 -6 -6 -4 -13 6 -12 16 -15 17
-27 4z"/>
</g>
<g>
<path d="M1721 790 c-12 -7 -12 -12 3 -34 22 -35 40 -34 31 2 -8 35 -17 43
-34 32z"/>
</g>
<g>
<path d="M1770 780 c0 -11 7 -20 15 -20 8 0 15 9 15 20 0 11 -7 20 -15 20 -8
0 -15 -9 -15 -20z"/>
</g>
<g>
<path d="M1845 787 c-4 -9 -2 -24 5 -32 28 -33 42 -5 16 31 -14 18 -15 18 -21
1z"/>
</g>
<g>
<path d="M408 768 c-36 -8 -48 -15 -48 -28 0 -27 22 -39 70 -38 52 2 58 8 52
48 -5 32 -4 32 -74 18z"/>
</g>
<g>
<path d="M1090 768 c1 -7 12 -26 25 -43 20 -24 27 -27 37 -17 10 10 10 18 -2
40 -16 28 -60 43 -60 20z"/>
</g>
<g>
<path d="M1975 770 c3 -5 10 -10 16 -10 5 0 9 5 9 10 0 6 -7 10 -16 10 -8 0
-12 -4 -9 -10z"/>
</g>
<g>
<path d="M1330 749 c0 -5 5 -7 10 -4 6 3 10 8 10 11 0 2 -4 4 -10 4 -5 0 -10
-5 -10 -11z"/>
</g>
<g>
<path d="M1685 750 c-4 -6 -3 -16 3 -22 6 -6 12 -6 17 2 4 6 3 16 -3 22 -6 6
-12 6 -17 -2z"/>
</g>
<g>
<path d="M2305 750 c-4 -6 -4 -32 0 -57 6 -42 8 -44 24 -29 13 12 16 25 12 53
-6 37 -24 53 -36 33z"/>
</g>
<g>
<path d="M1010 740 c-12 -8 -12 -10 2 -15 10 -4 21 -4 27 -1 5 4 12 2 16 -4 8
-13 45 -13 45 0 0 6 -6 12 -12 14 -39 12 -65 14 -78 6z"/>
</g>
<g>
<path d="M2090 730 c0 -5 7 -10 15 -10 8 0 15 5 15 10 0 6 -7 10 -15 10 -8 0
-15 -4 -15 -10z"/>
</g>
<g>
<path d="M2180 734 c0 -3 12 -21 26 -39 22 -29 29 -33 46 -24 13 7 18 19 16
36 -3 30 -28 44 -28 17 0 -16 -1 -16 -18 -1 -18 17 -42 23 -42 11z"/>
</g>
<g>
<path d="M2026 685 c-3 -8 -12 -12 -21 -9 -23 9 -29 -21 -9 -50 13 -20 20 -24
30 -15 7 6 22 8 32 5 15 -5 23 1 35 26 17 36 8 59 -16 39 -12 -9 -16 -8 -21 4
-7 19 -22 19 -30 0z"/>
</g>
<g>
<path d="M2736 678 c20 -66 48 -95 60 -63 4 8 12 15 20 15 9 0 14 11 14 30 0
38 -27 52 -46 25 -13 -17 -14 -17 -14 -2 0 11 -8 17 -21 17 -17 0 -19 -4 -13
-22z"/>
</g>
<g>
<path d="M2860 684 c0 -9 7 -14 17 -12 25 5 28 28 4 28 -12 0 -21 -6 -21 -16z"/>
</g>
<g>
<path d="M1285 665 c-23 -8 -43 -11 -49 -5 -11 11 -36 1 -36 -15 0 -34 81 -52
148 -32 32 10 44 27 18 27 -7 0 -16 9 -19 20 -6 23 -9 24 -62 5z"/>
</g>
<g>
<path d="M1777 673 c-4 -3 -7 -16 -7 -27 0 -20 -1 -20 -20 4 -16 21 -20 23
-25 8 -7 -18 10 -58 25 -58 6 0 10 6 10 13 0 9 3 8 9 -2 15 -23 34 -7 38 32 2
26 0 37 -10 37 -8 0 -17 -3 -20 -7z"/>
</g>
<g>
<path d="M2674 669 c-8 -14 11 -33 25 -25 16 10 13 36 -3 36 -8 0 -18 -5 -22
-11z"/>
</g>
<g>
<path d="M965 662 c-3 -3 -5 -14 -5 -24 0 -10 -5 -18 -11 -18 -5 0 -8 -4 -4
-9 7 -12 83 -12 91 0 3 5 16 9 28 9 24 0 54 26 43 37 -8 7 -135 12 -142 5z"/>
</g>
<g>
<path d="M1836 651 c-14 -15 -15 -24 -6 -40 17 -33 37 -26 36 13 -2 45 -9 51
-30 27z"/>
</g>
<g>
<path d="M1920 649 c0 -5 5 -7 10 -4 6 3 10 8 10 11 0 2 -4 4 -10 4 -5 0 -10
-5 -10 -11z"/>
</g>
<g>
<path d="M515 640 c-4 -6 -27 -8 -61 -5 -53 5 -54 5 -54 -21 0 -23 3 -26 25
-22 14 3 28 1 31 -3 3 -5 14 -9 25 -9 11 0 30 -7 43 -16 16 -10 26 -12 31 -5
4 7 14 5 30 -5 23 -15 25 -15 31 2 3 11 10 27 15 36 14 27 11 58 -6 58 -26 0
-65 -23 -58 -34 3 -6 2 -7 -3 -3 -5 5 -9 14 -9 20 0 15 -31 21 -40 7z"/>
</g>
<g>
<path d="M1120 640 c0 -5 9 -10 20 -10 11 0 20 5 20 10 0 6 -9 10 -20 10 -11
0 -20 -4 -20 -10z"/>
</g>
<g>
<path d="M2127 644 c-9 -10 2 -24 19 -24 8 0 14 7 14 15 0 15 -21 21 -33 9z"/>
</g>
<g>
<path d="M2880 609 c0 -14 5 -19 17 -17 26 5 29 38 4 38 -15 0 -21 -6 -21 -21z"/>
</g>
<g>
<path d="M2230 588 c1 -43 13 -58 46 -58 32 0 34 2 34 35 0 38 -13 45 -30 18
-10 -17 -10 -17 -20 0 -13 20 -30 23 -30 5z"/>
</g>
<g>
<path d="M654 579 c-3 -6 -2 -15 4 -21 15 -15 46 -5 50 15 3 12 -3 17 -22 17
-14 0 -28 -5 -32 -11z"/>
</g>
<g>
<path d="M2509 585 c-1 -3 -3 -9 -4 -15 -1 -5 -3 -13 -4 -17 -1 -5 -8 0 -16
11 -9 11 -20 16 -31 12 -14 -6 -15 -9 -2 -28 18 -27 104 -37 94 -11 -3 8 -6
23 -6 34 0 16 -28 29 -31 14z"/>
</g>
<g>
<path d="M1256 559 c-21 -16 -26 -17 -26 -5 0 11 -8 13 -37 9 -51 -8 -67 -21
-51 -40 9 -11 23 -13 54 -8 26 3 45 2 49 -5 3 -5 22 -10 41 -10 25 0 34 4 34
16 0 11 -6 15 -20 11 -16 -4 -18 -1 -13 24 7 35 4 35 -31 8z"/>
</g>
<g>
<path d="M2587 574 c-4 -4 -7 -18 -7 -31 0 -18 5 -24 18 -21 10 2 17 12 17 27
0 24 -15 37 -28 25z"/>
</g>
<g>
<path d="M985 546 c-10 -12 -18 -76 -9 -76 16 0 44 23 44 35 0 8 9 15 19 15
24 0 37 18 23 32 -8 8 -16 7 -27 -2 -10 -9 -19 -9 -27 -2 -9 7 -16 6 -23 -2z"/>
</g>
<g>
<path d="M2190 541 c0 -24 18 -37 31 -24 13 13 1 43 -17 43 -8 0 -14 -9 -14
-19z"/>
</g>
<g>
<path d="M469 529 c-14 -9 -3 -29 17 -29 8 0 14 -7 14 -15 0 -20 73 -21 89 -1
14 17 0 29 -23 20 -10 -4 -16 -1 -16 9 0 16 -62 28 -81 16z"/>
</g>
<g>
<path d="M1887 533 c-4 -3 -7 -15 -7 -25 0 -17 -1 -18 -26 -2 -37 25 -53 4
-22 -28 13 -13 28 -33 34 -44 10 -16 13 -17 28 -5 9 8 19 11 23 8 10 -10 33
13 33 33 0 10 7 21 16 24 23 9 5 28 -21 22 -15 -4 -25 -1 -29 9 -6 16 -18 19
-29 8z"/>
</g>
<g>
<path d="M1705 521 c-9 -16 14 -61 31 -61 23 0 23 16 0 45 -17 20 -25 25 -31
16z"/>
</g>
<g>
<path d="M2709 519 c-11 -8 -11 -12 -1 -16 19 -7 14 -23 -7 -23 -10 0 -21 -9
-24 -20 -4 -15 -14 -20 -41 -20 -62 0 -58 -51 5 -65 37 -8 38 -25 2 -25 -16
-1 -41 -6 -57 -13 -26 -12 -27 -14 -11 -27 9 -8 33 -14 53 -14 l37 0 -37 -14
c-21 -8 -38 -20 -38 -26 0 -19 30 -56 45 -56 22 0 29 22 12 35 -23 17 -21 25
7 25 19 0 24 -6 30 -37 3 -21 6 -54 6 -74 0 -42 25 -73 36 -44 4 9 4 46 0 82
l-7 65 78 -7 c70 -6 81 -5 103 14 21 16 23 23 14 38 -11 18 -16 20 -66 22 -21
1 -28 6 -28 21 0 17 -7 20 -50 20 -27 0 -50 5 -50 10 0 6 30 10 69 10 72 0
107 16 49 22 -21 2 -33 8 -33 18 0 10 -14 17 -45 20 -49 5 -58 27 -9 22 16 -1
39 3 49 8 22 12 27 49 8 51 -7 1 -29 3 -49 4 -19 2 -42 -1 -50 -6z m149 -237
c3 -10 -12 -12 -64 -10 -44 2 -69 7 -72 16 -3 10 12 12 64 10 44 -2 69 -7 72
-16z"/>
</g>
<g>
<path d="M627 493 c-16 -15 -6 -34 15 -31 29 4 38 38 10 38 -10 0 -22 -3 -25
-7z"/>
</g>
<g>
<path d="M1973 473 c-3 -8 -3 -16 0 -20 10 -9 37 5 37 20 0 18 -30 18 -37 0z"/>
</g>
<g>
<path d="M2074 479 c-8 -14 46 -70 60 -62 6 4 20 7 31 8 14 0 19 6 17 20 -6
34 -22 42 -39 20 -15 -20 -15 -20 -30 3 -17 24 -28 28 -39 11z"/>
</g>
<g>
<path d="M1674 469 c-10 -17 13 -36 27 -22 12 12 4 33 -11 33 -5 0 -12 -5 -16
-11z"/>
</g>
<g>
<path d="M1233 456 c-23 -11 -28 -30 -17 -59 8 -21 42 -9 47 17 4 17 5 16 6
-6 0 -15 5 -29 10 -32 13 -8 41 4 41 18 0 6 9 17 21 24 26 16 18 26 -24 28
-17 1 -33 7 -35 13 -4 13 -19 12 -49 -3z"/>
</g>
<g>
<path d="M2213 460 c-15 -6 -21 -15 -17 -25 8 -20 17 -19 37 3 29 31 22 39
-20 22z"/>
</g>
<g>
<path d="M2275 440 c-16 -18 -16 -20 -1 -26 19 -7 46 12 46 32 0 20 -24 17
-45 -6z"/>
</g>
<g>
<path d="M1024 426 c-28 -21 -7 -41 46 -43 28 0 50 3 50 8 0 5 9 9 20 9 13 0
20 7 20 19 0 17 -8 19 -60 19 -33 -1 -67 -6 -76 -12z"/>
</g>
<g>
<path d="M2426 432 c-9 -15 9 -30 39 -33 24 -3 30 0 30 16 0 15 -8 20 -32 22
-18 2 -34 -1 -37 -5z"/>
</g>
<g>
<path d="M547 419 c-9 -6 -26 -8 -36 -4 -11 3 -22 1 -25 -4 -4 -6 -13 -8 -21
-4 -9 3 -22 0 -31 -7 -13 -12 -12 -16 11 -40 20 -21 35 -27 70 -28 31 0 45 4
45 13 0 8 13 15 32 17 39 4 54 38 17 38 -12 0 -27 7 -33 15 -8 10 -16 11 -29
4z"/>
</g>
<g>
<path d="M2522 416 c1 -10 8 -17 13 -17 15 1 12 24 -3 29 -9 3 -13 -2 -10 -12z"/>
</g>
<g>
<path d="M1130 370 c0 -5 7 -10 15 -10 8 0 15 5 15 10 0 6 -7 10 -15 10 -8 0
-15 -4 -15 -10z"/>
</g>
<g>
<path d="M1145 335 c-67 -38 -55 -59 38 -69 51 -6 57 -5 57 12 0 10 5 23 11
29 6 6 9 19 7 29 -5 26 -64 26 -113 -1z"/>
</g>
<g>
<path d="M1930 341 c-14 -28 -12 -41 6 -41 18 0 43 27 44 48 0 19 -38 14 -50
-7z"/>
</g>
<g>
<path d="M1812 343 c3 -5 10 -23 17 -40 10 -27 19 -33 42 -33 27 0 29 3 29 40
0 41 -7 49 -28 28 -9 -9 -15 -9 -24 0 -13 13 -42 17 -36 5z"/>
</g>
<g>
<path d="M2157 343 c-3 -5 -1 -18 4 -30 6 -17 16 -23 39 -23 28 0 31 3 30 38
0 4 -9 7 -19 7 -11 0 -23 3 -27 8 -4 4 -11 7 -15 7 -4 0 -10 -3 -12 -7z"/>
</g>
<g>
<path d="M1752 328 c6 -16 36 -34 44 -25 9 9 -15 37 -33 37 -8 0 -13 -5 -11
-12z"/>
</g>
<g>
<path d="M2257 333 c-14 -13 -6 -33 12 -33 16 0 31 18 31 36 0 7 -36 5 -43 -3z"/>
</g>
<g>
<path d="M2383 323 c-4 -9 -1 -19 5 -21 7 -2 12 -10 12 -17 0 -25 20 -27 50
-5 31 22 32 45 1 35 -10 -3 -24 1 -31 10 -16 20 -29 19 -37 -2z"/>
</g>
<g>
<path d="M2080 319 c0 -17 32 -38 58 -39 30 0 28 12 -7 33 -34 20 -51 22 -51
6z"/>
</g>
<g>
<path d="M451 276 c-9 -11 -10 -20 -1 -35 13 -25 18 -26 59 -5 35 17 37 39 4
39 -12 0 -25 3 -29 8 -11 11 -20 9 -33 -7z"/>
</g>
<g>
<path d="M565 280 c-3 -5 -4 -10 -1 -10 2 0 11 -3 20 -6 11 -4 16 -1 16 10 0
18 -25 22 -35 6z"/>
</g>
<g>
<path d="M1436 261 c-7 -11 22 -23 35 -15 5 3 7 10 4 15 -8 12 -32 12 -39 0z"/>
</g>
<g>
<path d="M2305 229 c-10 -14 -1 -21 19 -13 9 3 13 10 10 15 -7 12 -21 11 -29
-2z"/>
</g>
<g>
<path d="M2089 203 c0 -16 -3 -22 -6 -15 -7 17 -33 15 -33 -3 0 -17 -16 -20
-25 -5 -3 6 -10 10 -16 10 -13 0 -11 -33 4 -55 12 -15 19 -16 45 -7 19 7 32 7
32 1 0 -5 7 -9 15 -9 10 0 15 10 15 33 0 17 3 42 6 55 5 18 2 22 -15 22 -16 0
-21 -6 -22 -27z"/>
</g>
<g>
<path d="M2194 216 c-9 -24 21 -55 38 -38 8 8 15 9 25 1 18 -16 29 16 13 36
-16 20 -30 19 -30 -2 0 -14 -2 -14 -20 2 -18 17 -20 17 -26 1z"/>
</g>
<g>
<path d="M1932 208 c6 -18 28 -21 28 -4 0 9 -7 16 -16 16 -9 0 -14 -5 -12 -12z"/>
</g>
<g>
<path d="M2783 208 c2 -7 10 -13 17 -13 7 0 15 6 18 13 2 7 -5 12 -18 12 -13
0 -20 -5 -17 -12z"/>
</g>
<g>
<path d="M1194 202 c-6 -4 -13 -15 -17 -25 -5 -13 -13 -16 -32 -11 -21 5 -25
3 -25 -16 0 -16 -4 -20 -19 -15 -27 8 -35 -10 -15 -40 22 -33 44 -32 44 3 l0
27 18 -22 c14 -19 25 -22 71 -20 l55 2 1 43 c1 46 -9 62 -28 43 -17 -17 -27
-13 -27 8 0 23 -11 33 -26 23z"/>
</g>
<g>
<path d="M2520 201 c0 -7 -11 -16 -25 -21 -14 -5 -25 -16 -25 -25 0 -8 -4 -15
-10 -15 -5 0 -10 9 -10 19 0 18 -45 39 -57 27 -9 -9 8 -46 22 -46 7 0 15 -5
17 -11 2 -7 16 -13 31 -15 21 -2 27 2 27 16 0 10 5 22 10 25 6 3 10 -5 10 -19
0 -25 15 -43 23 -29 12 20 11 96 0 100 -7 3 -13 0 -13 -6z"/>
</g>
<g>
<path d="M2336 183 c-11 -11 -6 -23 9 -23 8 0 15 4 15 9 0 13 -16 22 -24 14z"/>
</g>
<g>
<path d="M2913 173 c-30 -6 -29 -21 3 -33 38 -15 46 -12 42 12 -3 23 -12 27
-45 21z"/>
</g>
<g>
<path d="M1824 157 c-9 -24 15 -67 37 -67 9 0 20 -6 23 -12 3 -10 9 -8 19 5
10 12 17 14 22 8 12 -21 37 -12 33 12 -2 14 -10 22 -23 22 -11 0 -28 9 -37 20
-15 18 -17 19 -23 3 -6 -16 -9 -16 -25 5 -17 20 -19 21 -26 4z"/>
</g>
<g>
<path d="M483 144 c-44 -19 -46 -28 -12 -53 l31 -23 19 21 c11 12 30 21 43 21
21 0 36 16 36 40 0 13 -81 8 -117 -6z"/>
</g>
<g>
<path d="M2144 147 c-8 -21 2 -35 16 -21 5 5 6 15 0 24 -8 12 -10 12 -16 -3z"/>
</g>
<g>
<path d="M1295 130 c-9 -14 13 -50 30 -50 10 0 15 10 15 30 0 23 -5 30 -19 30
-11 0 -23 -4 -26 -10z"/>
</g>
<g>
<path d="M1972 118 c6 -18 28 -21 28 -4 0 9 -7 16 -16 16 -9 0 -14 -5 -12 -12z"/>
</g>
<g>
<path d="M625 110 c-11 -18 5 -31 26 -20 11 6 17 15 14 21 -8 12 -32 12 -40
-1z"/>
</g>
<g>
<path d="M1360 101 c0 -24 18 -37 31 -24 13 13 1 43 -17 43 -8 0 -14 -9 -14
-19z"/>
</g>
<g>
<path d="M2357 74 c-11 -11 3 -24 24 -24 12 0 19 5 17 13 -5 14 -31 21 -41 11z"/>
</g>
<g>
<path d="M2106 1564 c-3 -9 -6 -31 -6 -50 0 -32 2 -34 20 -24 24 13 30 90 6
90 -8 0 -17 -7 -20 -16z"/>
</g>
<g>
<path d="M677 1533 c-12 -11 -8 -23 8 -23 8 0 15 7 15 15 0 16 -12 20 -23 8z"/>
</g>
<g>
<path d="M1530 770 c0 -5 11 -10 24 -10 14 0 28 5 31 10 4 6 -7 10 -24 10 -17
0 -31 -4 -31 -10z"/>
</g>
</g>
</g>
</svg>
