<?xml version="1.0" standalone="no"?>
<!DOCTYPE svg PUBLIC "-//W3C//DTD SVG 20010904//EN"
 "http://www.w3.org/TR/2001/REC-SVG-20010904/DTD/svg10.dtd">
<svg version="1.0" xmlns="http://www.w3.org/2000/svg"
 width="300.000000pt" height="534.000000pt" viewBox="0 0 300.000000 534.000000"
 preserveAspectRatio="xMidYMid meet">
<metadata>
Created by potrace 1.15, written by Peter Selinger 2001-2017
</metadata>
<g transform="translate(0.000000,534.000000) scale(0.100000,-0.100000)"
fill="#000000" stroke="none">
<g>
<path d="M5 5262 c4 -42 7 -264 6 -492 -1 -228 -2 -1395 -4 -2592 l-2 -2178
1498 0 1497 0 0 2670 -1 2671 -1500 -1 -1501 -1 7 -77z m1216 -44 c4 -51 10
-255 13 -453 4 -198 11 -592 16 -875 12 -639 13 -980 2 -980 -5 0 -21 51 -37
113 -36 147 -103 384 -120 422 -10 23 -15 230 -23 945 -6 503 -9 917 -7 920 2
4 37 5 77 4 l73 -2 6 -94z m1739 -52 l0 -154 -57 -4 c-32 -2 -283 -5 -558 -7
-320 -1 -504 -6 -510 -12 -7 -7 175 -8 556 -4 l566 7 7 -35 c4 -19 7 -608 7
-1309 l1 -1273 -537 -3 -536 -2 -17 30 c-22 39 -67 42 -84 6 -6 -14 -18 -28
-27 -32 -25 -11 -242 -18 -251 -8 -4 5 -11 194 -14 419 -3 226 -11 615 -17
865 -6 250 -9 651 -7 890 l3 435 163 3 c99 1 162 6 162 12 0 7 -64 9 -176 8
l-177 -3 2 -560 c0 -308 6 -733 12 -945 6 -212 14 -556 17 -764 l7 -379 82 2
c46 1 102 -1 126 -4 l44 -7 -27 -51 c-16 -29 -31 -72 -35 -97 -4 -24 -15 -63
-25 -86 -17 -40 -21 -42 -105 -68 -48 -15 -106 -28 -129 -30 -23 -1 -47 -6
-54 -10 -7 -4 -70 -2 -140 4 -88 8 -183 8 -308 2 -162 -8 -185 -12 -212 -31
-41 -29 -133 -31 -188 -4 -47 23 -79 19 -99 -10 -8 -12 -29 -29 -47 -38 -37
-18 -179 -46 -280 -55 l-68 -6 0 787 c0 620 3 787 13 790 6 2 242 5 524 7
l512 3 12 -45 c6 -25 22 -81 34 -125 13 -44 35 -127 50 -185 15 -58 33 -124
40 -147 8 -24 10 -45 5 -48 -4 -3 -246 -8 -536 -11 -291 -4 -554 -10 -584 -15
-31 -4 204 -6 547 -4 l602 4 -5 -47 c-4 -43 -1 -51 30 -87 42 -48 55 -44 100
29 28 45 29 48 14 74 -19 31 -18 24 -44 1385 -9 450 -13 824 -11 831 4 11 46
14 183 15 98 1 180 4 183 7 10 10 -11 17 -54 18 -52 1 -55 9 -24 73 17 36 26
43 49 43 16 0 31 4 34 9 10 16 -40 21 -165 16 -67 -3 -144 -2 -170 1 -47 6
-48 7 -47 40 l1 34 741 3 c408 1 776 3 819 5 l77 2 0 -154z m-2297 130 c8 -19
-1 -26 -34 -26 -29 0 -44 13 -34 30 9 15 62 12 68 -4z m197 -7 c0 -5 -7 -9
-15 -9 -15 0 -20 12 -9 23 8 8 24 -1 24 -14z m58 9 c-6 -18 -28 -21 -28 -4 0
9 7 16 16 16 9 0 14 -5 12 -12z m126 -460 c3 -260 9 -674 13 -919 l6 -446
-512 -8 c-282 -4 -515 -4 -518 -1 -21 21 34 26 278 26 145 0 275 -1 289 -2 73
-5 397 4 409 11 11 7 13 47 10 217 -2 115 -3 311 -4 437 0 125 -2 227 -5 227
-3 0 -5 95 -5 210 0 191 -2 210 -17 210 -9 0 -20 5 -23 10 -3 6 -24 10 -46 10
-37 0 -39 2 -39 30 l0 30 60 0 c33 0 60 4 60 10 0 6 -24 10 -54 10 -47 0 -54
3 -60 22 -8 31 9 45 23 19 12 -22 45 -27 71 -11 13 8 14 38 12 195 l-4 185 25
0 24 0 7 -472z m256 431 c0 -16 -4 -29 -10 -29 -5 0 -10 16 -10 36 0 21 4 33
10 29 6 -3 10 -19 10 -36z m-862 1 c31 -25 20 -40 -29 -40 -41 0 -46 8 -29 41
13 24 29 24 58 -1z m282 -1 c0 -11 -4 -17 -10 -14 -5 3 -10 13 -10 21 0 8 5
14 10 14 6 0 10 -9 10 -21z m70 -19 c0 -20 -6 -31 -21 -35 -29 -10 -32 -2 -15
40 17 41 36 39 36 -5z m170 -6 c0 -32 -4 -44 -12 -42 -16 6 -22 32 -14 64 10
40 26 27 26 -22z m-727 19 c-7 -2 -19 -2 -25 0 -7 3 -2 5 12 5 14 0 19 -2 13
-5z m-173 -29 c0 -14 -4 -23 -10 -19 -5 3 -10 15 -10 26 0 10 5 19 10 19 6 0
10 -12 10 -26z m265 16 c-3 -5 -10 -10 -16 -10 -5 0 -9 5 -9 10 0 6 7 10 16
10 8 0 12 -4 9 -10z m536 -57 c13 -46 16 -87 13 -165 -5 -114 -8 -128 -26
-128 -10 0 -12 24 -10 102 5 117 -2 128 -72 128 -47 0 -58 -6 -75 -37 -18 -34
-47 -29 -55 8 -8 40 -8 93 0 113 7 19 54 11 67 -11 6 -9 20 -11 50 -7 50 8 67
20 67 46 0 39 24 10 41 -49z m-256 47 c3 -5 -1 -10 -9 -10 -9 0 -16 5 -16 10
0 6 4 10 9 10 6 0 13 -4 16 -10z m-430 -66 c-9 -64 -14 -74 -37 -74 -17 0 -19
4 -12 28 4 15 8 39 9 55 3 38 3 37 26 37 20 0 21 -4 14 -46z m176 10 c15 -18
3 -83 -17 -91 -8 -3 -25 -2 -39 1 -23 6 -25 11 -25 60 0 29 3 55 6 59 8 8 61
-12 75 -29z m949 -29 c0 -30 -4 -55 -10 -55 -5 0 -10 25 -10 55 0 30 5 55 10
55 6 0 10 -25 10 -55z m62 15 c1 -22 2 -48 2 -57 1 -10 -6 -18 -14 -18 -11 0
-17 15 -21 50 -7 56 -4 65 17 65 9 0 15 -13 16 -40z m127 -8 c17 -27 31 -54
31 -60 0 -8 -20 -12 -56 -12 l-55 0 2 53 c3 62 5 67 29 67 11 0 30 -19 49 -48z
m97 28 c-3 -11 -9 -29 -12 -40 -8 -29 -21 -25 -44 13 -27 44 -26 47 21 47 36
0 40 -2 35 -20z m-1105 -17 c-8 -15 -10 -15 -11 -2 0 17 10 32 18 25 2 -3 -1
-13 -7 -23z m776 -20 c-3 -10 -5 -2 -5 17 0 19 2 27 5 18 2 -10 2 -26 0 -35z
m-829 13 c3 -11 -1 -17 -9 -14 -7 2 -13 12 -15 22 -3 23 20 15 24 -8z m-338 0
c0 -16 -18 -31 -27 -22 -8 8 5 36 17 36 5 0 10 -6 10 -14z m150 -21 c0 -18 -5
-25 -20 -25 -20 0 -28 28 -13 43 15 16 33 6 33 -18z m730 -26 c0 -46 -7 -48
-43 -11 -34 36 -34 50 1 54 38 5 42 2 42 -43z m-575 -19 c-5 -8 -11 -8 -17 -2
-6 6 -7 16 -3 22 5 8 11 8 17 2 6 -6 7 -16 3 -22z m81 10 c21 0 20 -96 -2
-104 -23 -9 -47 21 -49 63 -2 44 3 54 22 47 8 -3 21 -6 29 -6z m-403 -24 c14
-21 14 -26 1 -52 -25 -47 -32 -49 -39 -10 -8 39 0 86 14 86 5 0 16 -11 24 -24z
m742 -46 l0 -65 -51 -3 -51 -3 -7 42 c-4 25 -3 46 4 53 5 5 10 18 10 29 0 15
7 18 48 15 l47 -3 0 -65z m-207 8 c-2 -39 -7 -53 -18 -53 -11 0 -16 14 -18 53
-3 47 -1 52 18 52 19 0 21 -5 18 -52z m336 -2 c32 -43 34 -60 4 -50 -36 10
-48 24 -48 55 0 38 12 37 44 -5z m-667 -38 c8 -17 9 -30 3 -33 -6 -4 -10 -1
-10 4 0 20 -32 11 -37 -9 -3 -11 -8 -20 -12 -20 -4 0 -16 -6 -26 -14 -16 -12
-17 -16 -6 -30 19 -22 -6 -22 -31 1 -17 15 -18 15 -18 0 0 -9 11 -24 25 -33
28 -18 33 -44 9 -44 -14 0 -46 29 -81 73 -7 9 -13 29 -12 44 l1 28 8 -25 c7
-24 8 -24 26 16 25 54 47 74 79 74 14 0 28 6 31 14 5 12 8 12 22 -2 9 -10 22
-29 29 -44z m121 9 c3 -35 2 -37 -27 -37 -25 0 -31 4 -31 21 0 64 53 79 58 16z
m859 -34 c-2 -16 -4 -3 -4 27 0 30 2 43 4 28 2 -16 2 -40 0 -55z m61 -710 c7
-434 12 -923 11 -1088 l-2 -300 -7 350 c-4 193 -13 575 -19 850 -17 712 -18
975 -5 975 7 0 14 -248 22 -787z m-640 747 c2 -10 -5 -16 -18 -16 -13 0 -20 7
-20 19 0 22 33 20 38 -3z m-238 -62 c0 -19 -2 -20 -10 -8 -13 19 -13 30 0 30
6 0 10 -10 10 -22z m56 -4 c1 -29 -9 -40 -17 -18 -12 29 -10 46 4 41 6 -2 12
-12 13 -23z m184 -15 c0 -49 -21 -49 -31 -1 -7 34 -3 42 18 42 9 0 13 -13 13
-41z m-633 -11 c-3 -8 -6 -5 -6 6 -1 11 2 17 5 13 3 -3 4 -12 1 -19z m201 -5
c-15 -15 -31 -24 -34 -20 -10 10 26 47 45 47 11 0 8 -7 -11 -27z m146 18 c3
-5 -15 -11 -40 -13 -44 -3 -61 2 -47 16 10 9 81 7 87 -3z m394 3 c13 -4 22
-14 22 -25 0 -16 -6 -18 -47 -12 -56 7 -57 7 -50 28 7 16 36 19 75 9z m-410
-50 c18 -5 22 -13 20 -33 -4 -36 -37 -39 -68 -6 -21 22 -22 28 -10 35 18 11
27 12 58 4z m267 -23 c16 -7 14 -9 -14 -14 -49 -10 -61 -9 -61 8 0 16 40 19
75 6z m113 -13 c3 -14 -3 -18 -27 -18 -25 0 -31 4 -31 21 0 16 5 20 27 17 17
-2 29 -10 31 -20z m98 11 c10 -16 -9 -29 -34 -23 -35 10 -26 25 20 33 4 0 10
-4 14 -10z m-771 -19 c3 -11 4 -24 0 -30 -3 -5 -1 -19 5 -30 6 -11 8 -25 4
-31 -9 -15 -29 18 -41 69 -10 38 -9 42 7 42 10 0 21 -9 25 -20z m188 6 c20
-16 23 -46 3 -46 -8 0 -19 14 -25 30 -11 33 -6 37 22 16z m187 4 c12 -8 11
-10 -7 -10 -13 0 -23 5 -23 10 0 13 11 13 30 0z m206 -63 c1 -15 -3 -27 -7
-27 -13 0 -31 39 -24 51 12 18 30 3 31 -24z m-72 17 c20 -8 21 -57 3 -73 -19
-15 -27 -4 -27 41 0 41 0 41 24 32z m-180 -20 c8 -22 -4 -40 -15 -23 -11 18
-11 39 0 39 5 0 12 -7 15 -16z m76 6 c0 -5 -4 -10 -9 -10 -6 0 -13 5 -16 10
-3 6 1 10 9 10 9 0 16 -4 16 -10z m-142 -12 c17 -17 15 -38 -3 -38 -16 0 -38
34 -28 44 9 9 18 7 31 -6z m582 4 c0 -13 -30 -52 -41 -52 -13 0 -11 34 3 48
13 13 38 16 38 4z m343 -404 c24 -1370 26 -1516 17 -1473 -4 22 -13 387 -19
810 -6 424 -13 836 -14 917 -2 81 0 145 3 143 4 -2 10 -181 13 -397z m-970
370 c6 -22 -9 -41 -25 -32 -4 3 -8 16 -8 30 0 30 26 32 33 2z m199 -12 c11
-16 10 -46 -2 -46 -39 0 -75 42 -53 63 9 9 46 -2 55 -17z m-442 -6 c0 -14 65
-113 88 -133 11 -10 31 -17 44 -15 17 2 23 -2 22 -14 0 -10 -1 -41 -2 -68 -2
-42 -6 -52 -24 -59 -20 -7 -21 -14 -19 -76 1 -38 7 -78 13 -90 7 -12 11 -73 9
-158 -2 -113 1 -143 14 -163 14 -22 14 -25 0 -30 -9 -4 -17 -5 -18 -3 -1 2
-17 23 -35 46 -44 57 -52 83 -52 166 -1 75 -17 136 -44 166 -14 15 -16 50 -16
235 0 142 3 215 10 211 6 -3 10 -10 10 -15z m920 11 c0 -6 -4 -13 -10 -16 -5
-3 -10 1 -10 9 0 9 5 16 10 16 6 0 10 -4 10 -9z m-320 -26 c0 -7 -7 -15 -15
-19 -16 -6 -19 3 -9 28 7 18 24 12 24 -9z m70 5 c0 -5 -7 -10 -15 -10 -8 0
-15 5 -15 10 0 6 7 10 15 10 8 0 15 -4 15 -10z m-316 -25 c25 -20 28 -26 17
-39 -18 -21 -27 -20 -51 4 -22 22 -27 60 -7 60 6 -1 25 -11 41 -25z m-208 -5
c56 0 65 -12 19 -24 -31 -8 -105 10 -105 25 0 6 7 8 16 5 9 -3 40 -6 70 -6z
m285 -46 c12 -14 11 -16 -5 -13 -11 2 -21 10 -24 17 -5 17 13 15 29 -4z m179
-9 c0 -20 -6 -25 -35 -31 -19 -3 -43 -3 -52 2 -15 6 -13 8 10 12 15 2 32 12
37 23 15 27 40 24 40 -6z m-280 -36 c11 -8 7 -9 -17 -4 -18 4 -33 4 -33 1 0
-3 15 -10 33 -15 l32 -9 -35 -1 c-26 -1 -31 -4 -20 -11 13 -8 13 -10 1 -10
-11 0 -9 -4 5 -14 11 -8 15 -18 10 -23 -5 -4 -11 -2 -13 5 -3 6 -11 12 -19 12
-9 0 -13 -4 -10 -8 3 -4 -15 -3 -40 2 -40 10 -45 14 -42 36 2 14 13 30 28 37
30 15 99 17 120 2z m83 4 c-7 -2 -19 -2 -25 0 -7 3 -2 5 12 5 14 0 19 -2 13
-5z m396 -17 c9 -10 8 -15 -3 -19 -16 -7 -26 1 -26 20 0 17 14 17 29 -1z m121
-16 c0 -5 -4 -10 -10 -10 -5 0 -10 5 -10 10 0 6 5 10 10 10 6 0 10 -4 10 -10z
m-492 -17 c5 -18 -23 -16 -39 3 -11 14 -10 15 11 12 13 -1 25 -9 28 -15z m422
-18 c0 -23 -24 -45 -49 -45 -17 0 -13 31 6 52 23 26 43 23 43 -7z m-476 -1
c15 -6 23 -54 9 -54 -10 0 -53 42 -53 52 0 9 22 11 44 2z m526 -25 c0 -12 -5
-19 -11 -17 -6 2 -10 7 -10 11 1 4 1 14 1 23 0 8 5 12 10 9 6 -3 10 -15 10
-26z m-145 11 c-3 -5 -12 -10 -20 -10 -8 0 -17 5 -20 10 -4 6 5 10 20 10 15 0
24 -4 20 -10z m-540 -24 c16 -11 20 -28 21 -100 2 -74 0 -86 -14 -86 -32 0
-68 135 -49 183 8 21 17 21 42 3z m330 -4 c0 -18 -20 -15 -23 4 -3 10 1 15 10
12 7 -3 13 -10 13 -16z m-196 -22 c30 -41 20 -52 -34 -33 -58 19 -63 29 -23
47 18 8 33 15 34 15 0 1 10 -13 23 -29z m261 15 c0 -8 -4 -15 -9 -15 -13 0
-22 16 -14 24 11 11 23 6 23 -9z m169 -21 c38 -19 48 -36 52 -89 5 -54 -18
-54 -37 0 -7 22 -25 50 -40 61 -15 12 -23 27 -20 33 9 14 7 14 45 -5z m85 0
c11 -10 16 -34 16 -70 0 -67 -16 -63 -25 6 -4 27 -11 53 -16 56 -5 3 -7 10 -4
15 8 12 11 12 29 -7z m-160 -78 c-2 -84 -3 -91 -30 -103 -21 -10 -30 -9 -50 4
-28 18 -31 33 -7 33 13 0 14 3 5 12 -14 14 -16 48 -3 48 5 0 12 12 16 27 8 34
22 43 49 33 17 -6 21 -15 20 -54z m-283 42 c5 -63 2 -161 -4 -165 -24 -15 -34
44 -28 160 1 19 30 24 32 5z m119 -8 c0 -11 -4 -20 -10 -20 -5 0 -10 9 -10 20
0 11 5 20 10 20 6 0 10 -9 10 -20z m60 12 c0 -5 -7 -17 -15 -28 -14 -19 -14
-19 -15 2 0 11 3 24 7 27 9 10 23 9 23 -1z m-268 -28 c37 -19 42 -44 22 -114
-12 -45 -14 -67 -6 -84 6 -14 7 -60 1 -132 -4 -60 -8 -115 -8 -121 -1 -7 -5
-13 -11 -13 -6 0 -10 36 -10 88 0 69 -6 104 -29 172 -16 47 -31 118 -35 158
l-6 72 27 -6 c16 -4 40 -13 55 -20z m437 -51 c12 -47 6 -62 -26 -63 -14 0 -17
48 -7 88 10 34 21 26 33 -25z m143 -137 c-3 -5 -11 13 -18 40 -9 37 -9 51 -1
56 8 5 14 -8 18 -40 3 -26 4 -51 1 -56z m-342 78 c0 -8 -4 -12 -10 -9 -5 3
-10 10 -10 16 0 5 5 9 10 9 6 0 10 -7 10 -16z m280 -9 c0 -8 -4 -15 -9 -15 -5
0 -14 7 -21 15 -10 13 -9 15 9 15 12 0 21 -6 21 -15z m-433 -87 c-3 -8 -6 -5
-6 6 -1 11 2 17 5 13 3 -3 4 -12 1 -19z m148 -58 c0 -16 -6 -26 -18 -28 -19
-4 -32 20 -23 44 9 25 41 13 41 -16z m-166 -33 c1 -28 -24 -14 -25 14 -1 13 1
28 4 33 6 11 20 -20 21 -47z m-417 8 c-12 -22 -27 -2 -18 22 5 12 10 13 17 6
7 -7 8 -17 1 -28z m732 17 c11 -18 -7 -51 -43 -80 l-37 -30 -2 25 c-4 49 62
118 82 85z m-540 -40 c3 -5 -1 -9 -9 -9 -8 0 -15 4 -15 9 0 4 4 8 9 8 6 0 12
-4 15 -8z m425 -67 c1 -41 -2 -75 -6 -75 -20 1 -44 31 -49 61 -4 25 0 41 16
62 12 15 25 27 30 27 4 0 8 -34 9 -75z m-305 48 c3 -10 5 -55 5 -100 -1 -78
-2 -83 -23 -83 -40 0 -67 12 -62 27 4 10 -1 13 -17 11 -18 -2 -23 2 -25 25 -2
15 -8 27 -13 27 -5 0 -9 9 -9 20 0 11 7 20 15 20 8 0 20 10 27 21 12 21 60 48
85 49 6 0 14 -8 17 -17z m-254 -100 c0 -2 -9 -3 -20 -3 -20 0 -27 19 -28 75 0
26 2 25 24 -20 13 -28 24 -51 24 -52z m140 82 c0 -2 -7 -8 -15 -15 -12 -10
-15 -10 -15 2 0 8 7 15 15 15 8 0 15 -1 15 -2z m215 -45 c0 -29 -4 -49 -10
-47 -11 4 -19 62 -11 83 11 29 21 12 21 -36z m373 7 c2 -16 -5 -39 -18 -57
-17 -24 -29 -30 -56 -30 -20 0 -44 5 -54 10 -25 13 -15 40 11 33 19 -5 59 21
59 39 0 16 25 38 40 35 8 -1 16 -15 18 -30z m-788 -87 c0 -11 -4 -20 -10 -20
-5 0 -10 9 -10 20 0 11 5 20 10 20 6 0 10 -9 10 -20z m45 -20 c-6 -9 -9 -9
-16 1 -10 17 0 34 13 21 6 -6 7 -16 3 -22z m53 -43 c4 -68 -13 -76 -22 -11 -9
66 -8 76 7 72 7 -3 13 -27 15 -61z m312 51 c0 -9 3 -9 12 0 23 23 28 11 28
-72 0 -75 -3 -88 -23 -112 -38 -44 -49 -25 -41 69 5 45 8 92 7 105 0 12 3 22
8 22 5 0 9 -5 9 -12z m240 -8 c0 -5 -4 -10 -10 -10 -5 0 -10 5 -10 10 0 6 5
10 10 10 6 0 10 -4 10 -10z m-456 -17 c18 -18 88 -31 119 -22 54 15 57 13 57
-40 0 -27 -3 -62 -6 -78 -5 -25 -10 -29 -41 -29 -27 0 -40 -6 -55 -27 -18 -25
-25 -27 -89 -27 l-69 0 0 48 c0 47 17 159 27 175 5 9 47 9 57 0z m546 -19 c14
-35 13 -36 -12 -32 -17 2 -24 11 -26 31 -4 36 25 37 38 1z m-147 1 c-6 -18
-34 -16 -41 3 -2 7 6 12 22 12 19 0 24 -4 19 -15z m-567 -42 c-11 -11 -17 4
-9 23 7 18 8 18 11 1 2 -10 1 -21 -2 -24z m654 -54 c0 -36 -4 -49 -12 -46 -7
2 -13 11 -12 20 0 10 1 33 2 53 3 54 22 30 22 -27z m73 34 c2 -5 7 -25 11 -45
7 -37 6 -38 -23 -38 -27 0 -29 3 -33 45 -3 41 -1 45 19 45 12 0 24 -3 26 -7z
m-725 -41 c3 -16 -2 -22 -17 -22 -24 0 -35 15 -27 36 9 23 40 13 44 -14z m532
10 c0 -13 -12 -22 -22 -16 -10 6 -1 24 13 24 5 0 9 -4 9 -8z m-484 -39 c-10
-10 -19 5 -10 18 6 11 8 11 12 0 2 -7 1 -15 -2 -18z m-60 -14 c3 -6 1 -16 -5
-22 -15 -15 -14 -33 5 -52 20 -20 10 -33 -14 -19 -27 17 -29 104 -3 104 5 0
13 -5 17 -11z m595 -32 c-8 -8 -11 -5 -11 9 0 27 14 41 18 19 2 -9 -1 -22 -7
-28z m-238 -3 c31 -7 31 -8 17 -35 -9 -15 -22 -19 -69 -19 -45 0 -60 -4 -65
-16 -5 -13 -9 -14 -21 -4 -20 17 -19 30 3 30 10 0 31 14 46 31 17 19 33 28 44
25 9 -3 29 -8 45 -12z m73 -11 c-10 -10 -19 5 -10 18 6 11 8 11 12 0 2 -7 1
-15 -2 -18z m331 14 c0 -1 4 -19 8 -39 6 -34 5 -38 -13 -38 -25 0 -52 36 -52
68 0 21 3 23 27 17 16 -4 29 -7 30 -8z m-716 -10 c-1 -12 -15 -9 -19 4 -3 6 1
10 8 8 6 -3 11 -8 11 -12z m617 1 c19 -19 15 -48 -8 -48 -16 0 -20 7 -20 30 0
32 9 37 28 18z m-598 -78 c0 -31 -16 -41 -26 -15 -5 13 11 45 22 45 2 0 4 -13
4 -30z m480 9 c0 -5 -4 -9 -10 -9 -5 0 -10 7 -10 16 0 8 5 12 10 9 6 -3 10
-10 10 -16z m-307 -29 c9 0 17 7 17 16 0 9 6 14 13 12 13 -5 18 -88 5 -88 -5
0 -28 0 -53 0 -40 0 -45 3 -51 26 -6 21 -11 25 -33 20 -25 -6 -24 -5 9 23 35
29 35 30 56 10 11 -10 28 -19 37 -19z m-253 20 c0 -5 -4 -10 -10 -10 -5 0 -10
5 -10 10 0 6 5 10 10 10 6 0 10 -4 10 -10z m380 -10 c0 -5 -4 -10 -10 -10 -5
0 -10 5 -10 10 0 6 5 10 10 10 6 0 10 -4 10 -10z m348 -11 c2 -12 -6 -18 -27
-21 -38 -6 -56 5 -48 27 9 22 71 17 75 -6z m222 0 c0 -15 -4 -19 -16 -15 -9 3
-52 6 -97 6 -50 0 -77 4 -71 9 11 12 51 18 127 20 52 1 57 -1 57 -20z m-339
-22 c-5 -5 -19 -6 -32 -2 -22 7 -22 8 -4 21 14 10 22 11 32 2 9 -7 10 -15 4
-21z m-584 17 c-3 -3 -12 -4 -19 -1 -8 3 -5 6 6 6 11 1 17 -2 13 -5z m410 -19
c7 -19 5 -20 -29 -29 -20 -4 -28 -3 -28 7 0 32 46 50 57 22z m-87 -10 c0 -8
-4 -15 -10 -15 -5 0 -10 7 -10 15 0 8 5 15 10 15 6 0 10 -7 10 -15z m-209 -5
c5 0 9 -4 9 -10 0 -5 -13 -10 -30 -10 -29 0 -38 9 -23 24 4 3 13 4 21 1 7 -3
18 -5 23 -5z m606 -6 c-3 -3 -12 -4 -19 -1 -8 3 -5 6 6 6 11 1 17 -2 13 -5z
m533 -714 c0 -5 -7 -10 -15 -10 -8 0 -15 5 -15 10 0 6 7 10 15 10 8 0 15 -4
15 -10z m-44 -25 c9 -8 26 -15 39 -15 13 0 27 -4 30 -10 3 -5 -1 -10 -9 -10
-9 0 -16 -6 -16 -14 0 -27 -20 -27 -30 -1 -6 16 -14 23 -22 19 -7 -4 -8 -3 -4
5 4 6 2 18 -4 26 -16 20 -3 19 16 0z m598 -462 c9 -26 16 -59 16 -74 0 -15 3
-34 6 -43 11 -28 24 -17 24 19 0 19 5 35 10 35 12 0 13 -134 1 -158 -5 -9 -16
-34 -25 -54 -13 -33 -20 -38 -48 -38 -18 0 -53 -6 -78 -14 l-45 -13 -5 -63
c-3 -38 -10 -65 -18 -68 -6 -2 -12 -17 -12 -33 0 -16 -4 -29 -10 -29 -5 0 -10
12 -10 26 0 15 -4 23 -11 19 -6 -4 -8 -22 -4 -46 4 -24 3 -39 -4 -39 -5 0 -13
20 -17 45 -10 67 -27 56 -19 -12 6 -62 -7 -57 -20 7 -7 32 -51 87 -62 76 -2
-2 2 -17 10 -33 20 -38 31 -93 19 -93 -5 0 -20 28 -32 63 -13 34 -31 73 -41
86 -20 25 -25 51 -10 51 6 0 13 -4 16 -10 3 -5 17 -10 29 -10 16 0 26 -7 29
-21 3 -12 10 -18 16 -14 20 12 11 24 -35 51 -25 15 -42 30 -37 34 22 20 114
40 186 40 l79 0 -6 38 c-3 20 -8 80 -10 132 l-5 95 12 -59 c7 -33 18 -61 25
-64 6 -2 12 3 12 12 0 9 6 16 13 16 10 0 12 16 5 73 -4 39 -10 82 -13 95 -3
12 -1 22 3 22 5 0 15 -40 23 -90 8 -59 17 -90 25 -90 14 0 9 91 -7 122 -12 22
-11 71 0 64 5 -4 16 -27 25 -53z m1093 -359 c2 -347 -4 -450 -21 -397 -4 13
-25 45 -47 73 -32 40 -39 57 -39 93 0 48 -28 140 -55 181 -11 17 -26 26 -44
26 -17 0 -22 3 -13 8 9 6 6 12 -10 20 -18 10 -38 10 -88 1 -36 -6 -88 -11
-117 -10 -28 1 -54 -2 -56 -6 -3 -5 23 -8 56 -7 60 0 107 -15 107 -36 0 -14
-34 -12 -49 3 -11 10 -11 8 -2 -10 13 -26 28 -28 55 -8 19 15 19 15 -4 40
l-23 25 45 0 c45 0 59 -10 62 -46 1 -6 9 -18 19 -28 20 -21 19 -57 -2 -64 -9
-3 -11 1 -7 15 3 11 -1 27 -10 39 -15 19 -16 19 -9 -1 3 -11 3 -16 -1 -13 -3
4 -20 0 -36 -8 -16 -9 -36 -13 -44 -10 -8 3 -17 -1 -20 -8 -3 -8 -14 -12 -25
-9 -20 6 -27 -11 -9 -22 18 -11 11 -23 -10 -18 -11 3 -20 0 -20 -6 0 -6 -19
-11 -47 -11 -45 0 -46 0 -28 -20 10 -11 24 -20 32 -20 7 0 13 -7 13 -15 0 -18
-1 -18 38 -4 20 7 37 7 48 1 14 -8 13 -12 -15 -28 -31 -18 -42 -56 -21 -69 16
-10 11 -26 -7 -23 -13 2 -17 -3 -16 -19 4 -35 -14 -27 -21 8 -7 36 22 92 56
110 25 14 18 22 -11 11 -12 -4 -31 -21 -41 -37 l-20 -30 6 33 c6 31 6 32 -29
32 -49 0 -65 8 -83 42 -15 28 -15 29 11 22 34 -8 32 11 -5 59 -16 22 -26 45
-24 51 3 7 23 18 45 25 21 6 39 16 39 21 0 14 -82 -24 -94 -43 -8 -12 -7 -23
2 -37 18 -29 4 -47 -15 -20 -12 16 -23 21 -45 18 -24 -4 -32 0 -41 19 -7 16
-41 39 -96 67 -48 24 -102 53 -121 64 -19 12 -45 22 -57 22 -12 0 -25 5 -28
10 -3 6 -15 10 -26 10 -23 0 -23 5 -4 60 27 76 17 190 -16 190 -11 0 -19 5
-19 10 0 6 -1 13 -2 18 -3 6 617 18 932 17 l125 0 2 -361z m-1168 247 c1 -35
-5 -22 -12 24 -5 28 -4 34 3 20 5 -11 9 -31 9 -44z m-83 -64 c-4 -65 -18 -107
-38 -107 -6 0 -8 10 -5 23 3 12 11 45 17 72 22 98 31 102 26 12z m124 -172
c-11 -13 -8 -15 13 -15 14 0 29 -4 32 -10 3 -5 -1 -10 -9 -10 -10 0 -16 -9
-16 -25 0 -19 5 -25 23 -26 16 -1 18 -2 5 -6 -22 -5 -24 -23 -3 -23 8 0 15 -4
15 -10 0 -5 -7 -10 -15 -10 -22 0 -18 -17 5 -23 27 -7 25 -27 -2 -27 -23 -1
-23 -1 -3 -16 14 -11 16 -18 8 -21 -18 -7 -16 -23 2 -23 8 0 15 -4 15 -10 0
-5 -5 -10 -12 -10 -6 0 -1 -11 12 -26 17 -17 21 -27 13 -32 -6 -4 -11 -16 -10
-27 2 -17 -7 -22 -50 -29 -29 -5 -53 -13 -53 -18 0 -8 16 -7 101 7 l47 7 4
-39 c3 -21 1 -42 -3 -47 -5 -6 -9 -20 -9 -33 0 -33 -19 -29 -74 17 -44 37 -66
48 -66 35 0 -8 51 -53 83 -72 34 -22 34 -25 -4 -42 -26 -12 -32 -11 -49 4 -10
9 -22 30 -25 46 -8 34 -36 54 -53 37 -7 -7 -12 -33 -12 -59 0 -47 -9 -59 -46
-59 -11 0 -9 10 11 43 14 24 22 47 18 50 -14 15 -30 5 -46 -28 -9 -19 -21 -35
-27 -35 -12 0 -13 42 -1 56 17 18 20 82 5 95 -12 10 -11 13 7 23 11 6 27 22
34 36 17 34 37 155 43 262 l4 88 31 9 c18 5 40 10 51 10 15 1 16 -2 6 -14z
m115 -15 c-3 -5 -10 -10 -16 -10 -5 0 -9 5 -9 10 0 6 7 10 16 10 8 0 12 -4 9
-10z m150 -25 c32 -19 77 -42 100 -51 30 -11 47 -25 58 -50 15 -31 19 -33 44
-23 34 13 39 6 111 -132 54 -103 70 -157 32 -109 -11 14 -20 33 -20 42 0 24
-88 106 -109 102 -19 -5 -65 62 -57 82 3 8 -1 14 -9 14 -8 0 -15 5 -15 10 0
16 -32 11 -46 -7 -13 -17 -14 -17 -20 4 -3 12 -12 19 -19 17 -13 -5 -50 38
-75 89 -13 25 -15 26 -36 12 -25 -16 -40 -5 -30 20 8 23 28 18 91 -20z m-827
10 c41 -6 52 -11 48 -22 -4 -8 -3 -20 1 -26 4 -7 10 -2 14 13 l7 25 1 -27 c1
-28 21 -40 21 -13 0 24 16 18 29 -11 11 -25 10 -26 -9 -21 -15 4 -24 -1 -30
-16 l-9 -22 0 23 c-1 28 -21 19 -21 -9 0 -16 7 -19 40 -19 31 0 40 4 40 18 1
9 12 -5 26 -31 24 -46 26 -80 3 -47 -9 12 -11 13 -16 1 -5 -11 -7 -11 -14 0
-8 12 -12 11 -23 -3 -16 -22 -26 -23 -26 -3 0 8 -4 15 -10 15 -5 0 -10 -7 -10
-15 0 -8 -4 -15 -10 -15 -5 0 -10 7 -10 15 0 8 -4 15 -10 15 -5 0 -10 -7 -10
-15 0 -20 -17 -19 -29 3 -9 15 -11 15 -20 -8 -7 -18 -10 -20 -10 -7 -1 9 -8
17 -16 17 -9 0 -12 -6 -8 -17 4 -11 3 -14 -5 -9 -7 4 -12 15 -12 24 0 12 -3
13 -11 5 -6 -6 -18 -9 -25 -6 -9 3 -14 -2 -15 -13 0 -15 -3 -14 -12 6 l-11 25
-4 -27 c-4 -33 -22 -37 -29 -8 -8 29 -23 24 -24 -7 -1 -26 -1 -27 -7 -5 -8 28
-28 29 -24 2 4 -28 -14 -25 -22 3 -5 19 -8 20 -17 7 -8 -11 -12 -12 -16 -2 -8
20 -23 14 -24 -10 -1 -17 -2 -19 -6 -5 -2 9 -8 17 -13 17 -5 0 -15 3 -24 6
-12 4 -16 0 -17 -17 -2 -24 -2 -24 -6 -1 -4 18 -11 22 -44 22 -32 0 -39 3 -39
20 0 17 -5 19 -31 13 -27 -5 -31 -3 -27 13 4 23 37 31 49 13 6 -10 27 -13 76
-10 37 2 82 4 98 5 24 1 29 5 27 21 -5 28 -12 32 -22 15 -9 -13 -10 -13 -10 0
-1 11 -4 10 -15 -4 -11 -14 -15 -16 -15 -5 0 12 -2 12 -11 -1 -8 -11 -12 -12
-16 -2 -7 17 -23 15 -23 -4 0 -9 -7 -14 -17 -12 -11 2 -17 11 -15 21 4 24 -15
21 -23 -3 -8 -24 -25 -27 -25 -4 0 12 -6 15 -24 10 -17 -4 -26 -1 -30 10 -11
29 -6 34 38 34 25 0 48 5 51 10 4 6 15 8 26 5 12 -4 19 -2 19 7 0 19 -37 20
-44 2 -4 -11 -10 -12 -25 -4 -13 7 -28 7 -46 0 -38 -14 -43 -13 -41 14 1 26
-2 26 181 39 68 5 307 0 363 -8z m-763 -32 c20 -15 20 -15 -2 -8 -25 7 -53
-28 -32 -41 8 -4 7 -9 -2 -14 -10 -7 -10 -12 0 -23 9 -12 9 -16 -1 -20 -10 -4
-8 -9 5 -17 23 -15 22 -62 -3 -91 l-19 -24 -1 27 c0 15 5 30 10 33 18 11 10
26 -10 20 -14 -5 -20 -2 -20 9 0 9 -9 36 -21 61 l-21 44 27 36 c29 38 47 39
90 8z m2273 -29 l3 -29 -16 29 c-18 34 -19 39 -2 34 6 -3 13 -18 15 -34z
m-2093 0 c0 -15 -8 -20 -42 -22 -37 -3 -43 0 -43 17 0 15 8 21 33 24 45 5 52
3 52 -19z m1295 3 c0 -14 44 -41 67 -42 25 -1 42 -41 36 -80 -6 -37 -7 -38
-16 -14 l-10 24 -7 -30 c-6 -24 -8 -25 -9 -7 -2 45 -21 20 -23 -30 l-2 -53 -3
48 c-5 58 -23 62 -24 5 l-1 -43 -10 48 c-12 54 -27 62 -29 15 l-2 -33 -4 30
c-3 17 -8 35 -13 40 -7 8 -15 104 -11 128 2 13 61 8 61 -6z m-1420 -17 c0 -5
-5 -10 -11 -10 -5 0 -7 5 -4 10 3 6 8 10 11 10 2 0 4 -4 4 -10z m900 0 c0 -5
-7 -10 -15 -10 -8 0 -15 5 -15 10 0 6 7 10 15 10 8 0 15 -4 15 -10z m-778 -25
c10 -10 -5 -55 -18 -55 -10 0 -14 -13 -14 -42 l-1 -43 -13 31 c-9 20 -24 34
-41 38 -19 5 -25 11 -21 22 3 9 6 20 6 25 0 19 87 39 102 24z m48 -5 c0 -5 -4
-10 -10 -10 -5 0 -10 5 -10 10 0 6 5 10 10 10 6 0 10 -4 10 -10z m-396 -41
l27 -41 -26 -22 c-21 -18 -24 -28 -20 -56 l5 -35 -10 33 c-14 42 -30 32 -23
-13 4 -28 2 -35 -10 -35 -10 0 -17 11 -19 28 -4 36 -23 30 -24 -8 0 -35 -17
-41 -22 -8 -6 41 -22 44 -22 5 0 -42 -17 -50 -22 -10 -2 14 -8 28 -15 30 -8 3
-10 -6 -6 -31 4 -29 2 -36 -11 -36 -11 0 -16 9 -16 29 0 17 -4 33 -10 36 -6 4
-10 -8 -10 -29 0 -20 -4 -36 -10 -36 -5 0 -10 14 -10 31 0 24 -3 30 -16 25 -9
-3 -20 -6 -25 -6 -5 0 -9 -11 -9 -25 0 -14 -4 -25 -10 -25 -6 0 -10 40 -10
100 l0 99 33 5 c17 3 55 8 82 12 28 3 68 10 90 14 81 15 90 13 119 -31z m216
37 c0 -1 -5 -17 -11 -34 -11 -31 -33 -37 -24 -7 3 8 7 22 10 30 4 13 25 22 25
11z m2161 -83 c-9 -11 -17 -20 -18 -20 0 1 1 24 4 51 6 49 6 49 18 20 10 -24
9 -33 -4 -51z m-2304 42 c8 -22 -6 -33 -17 -15 -13 20 -12 30 0 30 6 0 13 -7
17 -15z m313 5 c0 -5 -4 -10 -10 -10 -5 0 -10 5 -10 10 0 6 5 10 10 10 6 0 10
-4 10 -10z m785 -30 c3 -5 -1 -10 -9 -10 -9 0 -16 5 -16 10 0 6 4 10 9 10 6 0
13 -4 16 -10z m675 -9 c0 -9 -52 -22 -60 -15 -7 7 23 24 43 24 9 0 17 -4 17
-9z m440 -1 c0 -5 -4 -10 -10 -10 -5 0 -10 5 -10 10 0 6 5 10 10 10 6 0 10 -4
10 -10z m-382 -19 c3 -8 -1 -12 -9 -9 -7 2 -15 10 -17 17 -3 8 1 12 9 9 7 -2
15 -10 17 -17z m-1551 -23 c-3 -8 -6 -5 -6 6 -1 11 2 17 5 13 3 -3 4 -12 1
-19z m2053 7 c0 -8 -4 -15 -10 -15 -5 0 -10 7 -10 15 0 8 5 15 10 15 6 0 10
-7 10 -15z m-1263 -19 c-9 -7 -17 -18 -17 -25 0 -9 -7 -25 -27 -60 -2 -2 -10
2 -18 9 -13 11 -18 10 -30 -6 -13 -17 -14 -18 -15 -1 0 9 -4 17 -9 17 -5 0
-12 -8 -16 -17 -6 -17 -7 -17 -16 0 -12 21 -29 22 -29 2 0 -20 -10 -19 -26 3
-13 16 -13 16 -14 0 0 -21 -16 -24 -23 -5 -4 8 -8 9 -14 1 -14 -18 -53 -24
-53 -8 0 8 -7 14 -15 14 -8 0 -15 -7 -15 -15 0 -8 -7 -15 -15 -15 -8 0 -15 6
-15 14 0 24 -21 30 -27 7 -7 -27 -22 -27 -32 1 l-8 22 -13 -24 c-12 -23 -13
-23 -26 -5 -14 18 -14 18 -28 0 -13 -18 -14 -18 -26 5 -12 23 -14 23 -20 6 -9
-26 -37 -29 -43 -5 -7 25 -27 24 -27 -1 0 -11 -4 -20 -10 -20 -5 0 -10 7 -10
15 0 20 -17 19 -29 -2 -10 -17 -10 -17 -11 0 0 9 -4 17 -10 17 -5 0 -14 -8
-19 -17 -10 -17 -10 -17 -11 0 0 9 -4 17 -10 17 -5 0 -10 9 -10 20 0 22 10 26
27 9 9 -9 60 -7 200 5 103 8 250 18 326 22 102 5 137 10 137 20 0 7 12 14 28
16 35 4 41 -1 19 -16z m-1130 -18 c-3 -7 -5 -2 -5 12 0 14 2 19 5 13 2 -7 2
-19 0 -25z m85 -70 c-6 -6 -12 6 -16 32 -9 57 6 76 17 21 5 -26 5 -47 -1 -53z
m97 37 c0 -26 -2 -27 -9 -10 -5 11 -9 31 -9 45 -1 20 1 22 9 10 5 -8 9 -28 9
-45z m1621 29 c24 -13 37 -14 50 -7 11 7 22 8 34 1 9 -5 38 -11 63 -12 36 -2
51 -8 70 -30 12 -15 23 -36 23 -48 0 -19 -1 -19 -21 3 l-21 24 7 -25 c15 -60
18 -110 5 -110 -8 0 -10 8 -6 24 3 14 2 28 -4 31 -11 7 -15 -2 -26 -60 -6 -30
-9 -34 -12 -17 -5 32 -19 27 -27 -9 -5 -23 -10 -28 -18 -20 -16 16 -24 14 -30
-10 -3 -12 -10 -18 -16 -15 -5 4 -12 2 -16 -4 -10 -16 -25 -12 -25 7 0 15 -1
15 -18 0 -17 -15 -18 -15 -19 5 -1 12 2 30 8 40 5 10 6 18 2 17 -38 -6 -42 0
-40 71 1 39 0 70 -3 70 -3 0 -10 12 -17 26 -10 21 -9 29 5 45 9 10 17 19 18
19 0 0 16 -7 34 -16z m541 2 c-14 -17 -71 -39 -71 -27 0 7 58 39 74 40 5 1 3
-5 -3 -13z m23 -19 c-3 -9 -19 -20 -36 -26 -45 -16 -45 -14 -2 18 42 31 48 32
38 8z m-1194 -2 c0 -8 -4 -15 -9 -15 -13 0 -22 16 -14 24 11 11 23 6 23 -9z
m426 -32 c-11 -11 -19 6 -11 24 8 17 8 17 12 0 3 -10 2 -21 -1 -24z m109 17
c-3 -11 -2 -20 2 -20 12 0 33 -60 33 -93 0 -40 -18 -32 -25 11 -3 20 -10 51
-15 68 -13 39 -13 54 1 54 6 0 8 -9 4 -20z m551 -28 c-9 -9 -37 8 -31 18 5 8
11 7 21 -1 8 -6 12 -14 10 -17z m-567 -109 c1 -40 -3 -73 -8 -73 -11 0 -19 82
-13 140 7 66 20 23 21 -67z m-574 86 c4 -6 -2 -13 -14 -16 -12 -3 -21 -14 -22
-27 -1 -17 -2 -17 -6 -3 -5 19 -14 20 -62 11 -26 -6 -30 -10 -25 -30 4 -15 2
-24 -5 -24 -6 0 -11 11 -11 25 0 14 -4 25 -10 25 -5 0 -10 -9 -10 -20 0 -11
-4 -20 -10 -20 -5 0 -10 7 -10 15 0 8 -4 15 -10 15 -5 0 -10 -12 -10 -26 0
-14 -4 -23 -10 -19 -5 3 -10 15 -10 26 0 10 -4 19 -10 19 -5 0 -10 -9 -10 -20
0 -11 -4 -20 -10 -20 -5 0 -9 8 -7 18 2 18 -3 22 -32 22 -11 0 -22 -8 -24 -17
-4 -14 -5 -14 -6 3 -2 31 -46 38 -60 10 -9 -19 -10 -19 -8 -2 3 28 -19 31 -28
4 l-8 -23 -4 23 c-5 27 -23 29 -23 3 0 -11 -4 -23 -10 -26 -6 -4 -10 5 -10 19
0 14 -4 26 -10 26 -5 0 -10 -9 -10 -20 0 -11 -4 -20 -10 -20 -5 0 -10 12 -10
26 0 19 -4 25 -15 21 -8 -4 -17 -2 -20 3 -4 6 79 10 222 11 125 0 246 4 268 8
22 5 43 9 47 10 4 0 10 -4 13 -10z m523 -33 c2 -26 0 -36 -8 -31 -6 4 -8 15
-5 25 3 10 1 21 -5 25 -14 9 -13 28 3 23 6 -3 13 -22 15 -42z m740 8 c-1 -10
-15 -21 -30 -25 -20 -5 -25 -4 -22 6 3 8 12 16 20 19 8 3 14 13 14 23 0 12 3
14 11 6 6 -6 9 -19 7 -29z m-2131 20 c-3 -3 -12 -4 -19 -1 -8 3 -5 6 6 6 11 1
17 -2 13 -5z m2256 -5 c7 0 3 -4 -8 -9 -29 -13 -35 -12 -35 6 0 11 5 14 16 10
9 -3 21 -6 27 -7z m-251 -24 c3 -14 2 -25 -2 -25 -4 0 -10 11 -12 25 -3 14 -2
25 2 25 4 0 10 -11 12 -25z m-1782 -10 c0 -14 -4 -25 -10 -25 -5 0 -10 7 -10
15 0 8 -6 15 -12 15 -9 0 -8 4 2 10 23 15 30 12 30 -15z m40 15 c0 -5 -2 -10
-4 -10 -3 0 -8 5 -11 10 -3 6 -1 10 4 10 6 0 11 -4 11 -10z m-90 -20 c0 -14
-7 -20 -22 -20 -19 0 -20 2 -8 10 8 5 11 10 7 10 -11 0 2 20 14 20 5 0 9 -9 9
-20z m743 6 c6 -16 -2 -28 -14 -20 -12 7 -11 34 0 34 5 0 11 -6 14 -14z m-587
-23 c-10 -10 -19 5 -10 18 6 11 8 11 12 0 2 -7 1 -15 -2 -18z m194 2 c0 -8 -4
-15 -10 -15 -5 0 -7 7 -4 15 4 8 8 15 10 15 2 0 4 -7 4 -15z m277 -17 c-3 -7
-5 -2 -5 12 0 14 2 19 5 13 2 -7 2 -19 0 -25z m1233 -9 c0 -6 -4 -7 -10 -4 -5
3 -10 11 -10 16 0 6 5 7 10 4 6 -3 10 -11 10 -16z m70 -11 c0 -5 -9 -8 -20 -8
-13 0 -20 7 -20 20 0 18 2 19 20 8 11 -7 20 -16 20 -20z m-240 -14 c0 -8 -4
-12 -10 -9 -5 3 -10 10 -10 16 0 5 5 9 10 9 6 0 10 -7 10 -16z m100 6 c0 -5
-4 -10 -10 -10 -5 0 -10 5 -10 10 0 6 5 10 10 10 6 0 10 -4 10 -10z m-50 -10
c0 -5 -2 -10 -4 -10 -3 0 -8 5 -11 10 -3 6 -1 10 4 10 6 0 11 -4 11 -10z
m-2452 -7 c-10 -2 -26 -2 -35 0 -10 3 -2 5 17 5 19 0 27 -2 18 -5z m107 -3
c-22 -4 -47 -4 -55 1 -10 5 5 8 40 8 55 -1 55 -1 15 -9z m745 -4 c8 -2 -41 -4
-110 -3 -69 0 -107 3 -85 6 38 6 163 4 195 -3z m1830 -6 c0 -5 -4 -10 -10 -10
-5 0 -10 5 -10 10 0 6 5 10 10 10 6 0 10 -4 10 -10z m-2140 -9 c0 -6 -17 -11
-37 -13 -63 -6 306 -20 558 -21 186 -2 235 1 232 11 -3 6 2 12 11 12 9 0 16
-7 16 -16 0 -14 10 -16 73 -10 39 3 86 8 102 12 29 5 32 3 55 -45 31 -68 52
-85 98 -83 20 1 53 2 72 3 76 4 216 31 254 50 46 22 69 24 99 7 27 -14 127
-14 154 0 17 9 24 8 39 -10 19 -20 24 -21 226 -14 237 7 266 4 274 -30 3 -13
12 -24 19 -24 7 0 18 -7 25 -15 12 -14 -10 -15 -201 -11 -118 3 -764 5 -1436
5 l-1223 1 0 80 0 80 41 0 c32 0 40 3 35 15 -4 11 2 15 26 15 26 0 29 -2 18
-15 -11 -13 2 -15 111 -14 68 0 147 4 174 9 48 7 46 7 -35 10 -79 3 -81 4 -35
10 78 11 255 11 255 1z m1940 5 c0 -3 -4 -8 -10 -11 -5 -3 -10 -1 -10 4 0 6 5
11 10 11 6 0 10 -2 10 -4z m97 -2 c-3 -3 -12 -4 -19 -1 -8 3 -5 6 6 6 11 1 17
-2 13 -5z m-2429 -11 c-10 -2 -28 -2 -40 0 -13 2 -5 4 17 4 22 1 32 -1 23 -4z
m1047 -8 c6 -2 -89 -3 -210 -2 -172 1 -195 2 -105 6 110 6 294 3 315 -4z
m1515 -15 c0 -5 -6 -10 -14 -10 -8 0 -18 5 -21 10 -3 6 3 10 14 10 12 0 21 -4
21 -10z m-310 -20 c0 -5 -4 -10 -10 -10 -5 0 -10 5 -10 10 0 6 5 10 10 10 6 0
10 -4 10 -10z m470 -24 c0 -3 -4 -8 -10 -11 -5 -3 -10 -1 -10 4 0 6 5 11 10
11 6 0 10 -2 10 -4z m0 -52 c0 -12 -21 -44 -29 -44 -10 0 -21 37 -13 44 7 8
42 8 42 0z m20 -64 c11 -7 6 -10 -20 -10 -26 0 -31 3 -20 10 8 5 17 10 20 10
3 0 12 -5 20 -10z m-2908 -50 c-2 -16 -8 -30 -13 -30 -5 0 -9 3 -9 8 0 4 -3
17 -6 30 -5 17 -2 22 13 22 16 0 19 -5 15 -30z m38 5 c0 -14 -4 -25 -10 -25
-5 0 -10 11 -10 25 0 14 5 25 10 25 6 0 10 -11 10 -25z m130 0 c0 -14 -4 -25
-10 -25 -5 0 -10 9 -10 19 0 14 -8 21 -27 24 -23 3 -21 4 10 6 33 1 37 -2 37
-24z m40 -5 c0 -16 -4 -30 -10 -30 -5 0 -10 14 -10 30 0 17 5 30 10 30 6 0 10
-13 10 -30z m90 0 c0 -16 -4 -30 -10 -30 -5 0 -10 14 -10 30 0 17 5 30 10 30
6 0 10 -13 10 -30z m50 0 c0 -31 -16 -41 -26 -15 -8 19 2 45 16 45 5 0 10 -13
10 -30z m189 -2 c0 -18 -3 -26 -6 -18 -14 44 -15 45 -29 15 l-13 -30 -1 28 c0
15 -4 27 -10 27 -5 0 -10 -9 -10 -19 0 -11 -4 -23 -10 -26 -5 -3 -10 3 -10 14
0 28 -18 27 -30 -1 -8 -22 -9 -22 -9 5 -1 34 -21 36 -21 2 0 -14 -4 -25 -10
-25 -11 0 -14 43 -3 53 3 4 42 7 85 7 l78 0 -1 -32z m169 0 c2 -16 -1 -28 -7
-28 -6 0 -11 11 -11 25 0 36 -16 31 -26 -7 l-8 -33 -3 33 c-5 39 -30 43 -35 5
-3 -27 -4 -27 -9 5 l-6 33 51 -3 c47 -3 51 -5 54 -30z m200 0 c-3 -38 -21 -44
-26 -10 -4 27 -22 29 -22 2 0 -11 -4 -20 -10 -20 -5 0 -10 12 -10 26 0 14 -4
23 -10 19 -5 -3 -10 -15 -10 -26 0 -10 -4 -19 -10 -19 -5 0 -10 9 -10 20 0 11
-4 20 -10 20 -5 0 -10 -9 -10 -20 0 -11 -4 -20 -10 -20 -5 0 -10 12 -10 26 0
20 -4 25 -16 20 -8 -3 -12 -2 -9 4 3 6 44 10 91 10 l85 0 -3 -32z m72 3 c0
-17 -4 -33 -10 -36 -6 -4 -10 5 -10 20 0 20 -4 26 -15 21 -8 -3 -15 -1 -15 4
0 7 17 15 43 19 4 0 7 -12 7 -28z m180 -1 c0 -16 -4 -30 -9 -30 -5 0 -11 14
-13 30 -3 20 0 30 9 30 8 0 13 -12 13 -30z m212 0 c-5 -36 -22 -40 -22 -5 0
14 -4 25 -10 25 -5 0 -10 -7 -10 -15 0 -8 -4 -15 -10 -15 -5 0 -10 7 -10 15 0
8 -7 15 -16 15 -12 0 -15 -6 -10 -24 3 -14 2 -28 -4 -31 -6 -4 -10 5 -10 20 0
19 -4 26 -14 22 -7 -3 -18 -1 -24 5 -8 8 -13 7 -17 -5 -15 -49 -19 -52 -23
-23 -5 39 9 46 104 46 l81 0 -5 -30z m138 -5 c0 -38 -14 -47 -23 -15 -6 23
-27 27 -27 5 0 -8 -4 -15 -10 -15 -5 0 -10 11 -10 25 0 14 -4 25 -10 25 -5 0
-10 -11 -10 -24 0 -25 -15 -43 -23 -29 -3 5 -3 20 0 36 5 25 8 27 59 27 l54 0
0 -35z m352 0 c-5 -41 -25 -42 -30 -2 -4 37 -22 34 -22 -3 0 -20 -5 -30 -15
-30 -9 0 -15 9 -15 24 0 14 -4 28 -10 31 -6 4 -10 -7 -10 -24 0 -17 -4 -31
-10 -31 -5 0 -10 14 -10 31 0 20 -4 29 -12 26 -8 -2 -12 -15 -10 -30 3 -22 -1
-27 -17 -27 -17 0 -21 6 -21 31 0 38 -24 35 -28 -4 -5 -41 -42 -38 -42 3 0 17
-4 30 -10 30 -5 0 -10 -13 -10 -30 0 -16 -4 -30 -10 -30 -11 0 -14 53 -3 63 3
4 70 7 148 7 l141 0 -4 -35z m40 0 c-2 -19 -8 -35 -13 -35 -10 0 -12 31 -3 54
11 28 20 17 16 -19z m188 0 c0 -19 -5 -35 -11 -35 -7 0 -9 11 -5 30 4 22 2 30
-9 30 -10 0 -15 -10 -15 -30 0 -18 -5 -30 -13 -30 -7 0 -13 11 -12 27 0 14 -6
28 -12 30 -9 3 -13 -6 -13 -26 0 -39 -27 -43 -32 -4 -4 39 -28 42 -28 4 0 -17
-4 -31 -10 -31 -11 0 -12 15 -4 48 6 20 12 22 85 22 l79 0 0 -35z m210 21 c13
-17 10 -56 -5 -59 -5 -1 -12 12 -15 28 -6 34 -25 32 -25 -2 -1 -35 -15 -40
-15 -5 0 39 -20 53 -21 15 l-1 -28 -11 28 c-15 37 -27 34 -27 -9 0 -41 -15
-38 -23 6 -8 38 -29 40 -25 3 4 -34 -16 -48 -20 -15 -7 47 2 52 91 52 62 0 88
-4 97 -14z m-2233 -33 c-3 -10 -5 -4 -5 12 0 17 2 24 5 18 2 -7 2 -21 0 -30z
m193 12 c0 -14 -4 -25 -10 -25 -5 0 -10 11 -10 25 0 14 5 25 10 25 6 0 10 -11
10 -25z m320 -7 c0 -36 -4 -35 -14 5 -4 16 -2 27 4 27 5 0 10 -14 10 -32z
m450 8 c0 -26 -15 -43 -24 -28 -7 12 4 52 15 52 5 0 9 -11 9 -24z m42 -7 c-3
-20 -8 -27 -14 -21 -11 11 -2 52 11 52 4 0 6 -14 3 -31z m40 6 c-2 -14 -6 -25
-8 -25 -2 0 -4 11 -4 25 0 14 4 25 9 25 4 0 6 -11 3 -25z m435 -12 c-3 -10 -5
-4 -5 12 0 17 2 24 5 18 2 -7 2 -21 0 -30z m833 33 c0 -3 -4 -8 -10 -11 -5 -3
-10 -1 -10 4 0 6 5 11 10 11 6 0 10 -2 10 -4z m31 -33 c-4 -35 -5 -36 -12 -13
-11 39 -10 50 4 50 9 0 12 -11 8 -37z m49 8 c0 -17 -4 -33 -10 -36 -5 -3 -10
3 -10 14 0 10 -3 26 -6 35 -4 11 -1 16 10 16 11 0 16 -9 16 -29z m40 -6 c0
-19 -4 -35 -10 -35 -11 0 -13 30 -4 54 10 25 14 19 14 -19z m40 5 c0 -16 -4
-30 -10 -30 -5 0 -10 14 -10 30 0 17 5 30 10 30 6 0 10 -13 10 -30z m40 6 c0
-14 -4 -28 -10 -31 -6 -4 -10 7 -10 24 0 17 5 31 10 31 6 0 10 -11 10 -24z
m40 -11 c0 -22 -5 -35 -13 -35 -9 0 -12 11 -9 35 2 19 8 35 13 35 5 0 9 -16 9
-35z m50 0 c0 -24 -5 -35 -15 -35 -10 0 -15 11 -15 35 0 24 5 35 15 35 10 0
15 -11 15 -35z m40 0 c0 -19 -4 -35 -10 -35 -5 0 -10 16 -10 35 0 19 5 35 10
35 6 0 10 -16 10 -35z m42 0 c3 -24 0 -35 -9 -35 -8 0 -13 13 -13 35 0 19 4
35 9 35 5 0 11 -16 13 -35z m38 0 c0 -19 -4 -35 -10 -35 -5 0 -10 16 -10 35 0
19 5 35 10 35 6 0 10 -16 10 -35z m40 13 c0 -40 -17 -54 -22 -19 -3 17 -2 33
0 36 12 12 22 3 22 -17z m41 -28 c5 0 9 11 9 25 0 16 6 25 16 25 12 0 15 -6
10 -22 -3 -13 -6 -29 -6 -35 0 -8 -13 -13 -30 -13 -31 0 -35 8 -22 50 l7 25 3
-27 c2 -16 8 -28 13 -28z m-529 15 c3 -14 1 -25 -3 -25 -5 0 -9 11 -9 25 0 14
2 25 4 25 2 0 6 -11 8 -25z m-2352 -173 c0 -4 62 -8 138 -8 75 -1 348 -4 607
-8 259 -3 828 -9 1265 -12 1016 -8 915 -5 915 -29 0 -19 -7 -20 -130 -20 -349
0 -2411 26 -2556 31 -191 8 -239 2 -239 -26 0 -12 9 -21 23 -24 30 -7 1234
-25 2067 -31 377 -3 720 -8 763 -12 l77 -6 0 -54 0 -53 -37 5 c-21 2 -400 7
-843 10 -443 3 -1085 8 -1427 12 -411 4 -623 3 -623 -4 0 -11 617 -20 1805
-28 865 -6 1128 -13 1122 -29 -2 -6 -19 -11 -38 -10 -19 0 -290 4 -604 7 -314
4 -664 9 -780 12 -174 4 -1264 19 -1443 20 -28 0 -53 -4 -55 -10 -4 -18 123
-23 813 -29 377 -4 780 -9 895 -11 116 -2 430 -5 699 -6 269 0 495 -3 503 -6
12 -5 14 -45 12 -227 -1 -121 -3 -229 -6 -238 -3 -14 -9 -15 -29 -8 -14 6 -42
11 -62 12 -37 1 -37 1 8 8 45 7 45 7 8 8 -55 3 -58 22 -4 22 65 0 69 20 4 22
-42 1 -45 2 -16 5 25 3 35 8 32 17 -3 8 4 16 16 19 30 8 20 30 -18 41 -46 13
-82 1 -82 -28 0 -21 -6 -24 -50 -28 -28 -3 -54 -8 -57 -12 -11 -10 16 -24 59
-31 50 -9 48 -21 -4 -23 -23 -1 -44 -4 -47 -8 -9 -9 21 -24 61 -30 21 -4 35
-11 32 -15 -3 -5 -9 -7 -14 -4 -14 9 -62 -14 -54 -26 4 -8 9 -8 17 0 18 18 48
13 54 -9 7 -26 23 -26 23 0 0 16 5 19 30 14 16 -4 43 -2 60 4 28 10 30 9 30
-13 0 -18 -7 -26 -27 -31 -15 -4 -234 -4 -488 1 -253 4 -903 11 -1445 14
l-985 6 0 63 c4 689 6 802 15 802 6 0 10 -3 10 -8z m2860 -662 c0 -5 -11 -10
-25 -10 -14 0 -25 5 -25 10 0 6 11 10 25 10 14 0 25 -4 25 -10z m-85 -49 c3
-5 2 -12 -3 -15 -13 -8 -53 5 -46 15 7 12 41 12 49 0z m-2 -72 c-8 -8 -16 -8
-30 0 -16 9 -14 10 12 11 21 0 26 -3 18 -11z m107 -29 c0 -5 -18 -10 -40 -10
-22 0 -40 5 -40 10 0 6 18 10 40 10 22 0 40 -4 40 -10z m-2823 -76 c-3 -3 -12
-4 -19 -1 -8 3 -5 6 6 6 11 1 17 -2 13 -5z m2606 -8 c212 -1 257 -3 257 -15 0
-12 -64 -13 -407 -7 -225 3 -831 9 -1348 12 -517 3 -974 10 -1015 14 -41 5
449 6 1090 2 641 -3 1281 -6 1423 -6z m-1493 -32 c591 -3 1228 -9 1415 -13
l340 -6 0 -40 0 -40 -455 1 c-250 0 -913 1 -1472 2 -559 1 -1019 5 -1021 9 -2
5 -2 29 1 54 l4 45 56 -3 c32 -1 541 -5 1132 -9z"/>
<g>
<path d="M1657 4922 c-20 -21 -21 -45 -6 -73 7 -15 6 -28 -6 -51 -8 -17 -18
-62 -22 -100 l-6 -68 -48 0 -49 0 0 -39 c0 -41 13 -51 72 -51 23 0 28 -5 34
-37 4 -21 2 -43 -4 -53 -8 -13 -7 -23 6 -41 9 -13 17 -42 17 -64 1 -22 5 -446
10 -943 l8 -903 29 -24 c16 -14 36 -25 44 -25 41 0 42 24 50 1006 5 756 9 943
20 958 9 13 10 24 4 31 -6 8 -7 28 -2 51 7 35 11 39 45 45 51 8 63 22 51 56
-9 26 -14 28 -65 31 l-56 3 -6 73 c-4 40 -11 85 -16 99 -7 17 -7 28 -1 32 17
10 11 51 -11 79 -24 31 -68 35 -92 8z m65 -14 c25 -20 26 -51 4 -81 -19 -24
-43 -12 -56 29 -18 52 13 82 52 52z m-9 -114 c9 -3 12 -14 10 -28 -3 -13 0
-27 6 -30 5 -4 8 -13 4 -21 -3 -10 1 -15 12 -15 13 0 15 -3 6 -13 -6 -8 -8
-17 -5 -20 13 -13 -26 -37 -60 -37 l-36 0 0 48 c0 94 21 133 63 116z m167
-203 c0 -26 -45 -32 -205 -28 -116 2 -120 3 -123 25 l-3 22 165 0 c158 0 166
-1 166 -19z m-125 -62 c-4 -5 2 -9 12 -9 17 -1 17 -1 1 -11 -10 -5 -18 -15
-18 -20 0 -6 5 -7 10 -4 6 3 10 1 10 -4 0 -6 -4 -11 -10 -11 -5 0 -7 -7 -4
-15 4 -8 12 -15 20 -15 8 0 14 -4 14 -10 0 -6 -30 -10 -70 -10 -41 0 -70 4
-70 10 0 6 15 8 39 4 24 -4 41 -2 45 5 5 7 -6 11 -32 11 -42 0 -52 13 -52 67
0 19 6 22 48 25 53 3 65 1 57 -13z m-42 -211 c8 -102 8 -1623 1 -1736 -6 -75
-9 -91 -19 -80 -10 10 -14 226 -19 951 -6 910 -5 937 13 937 16 0 19 -10 24
-72z m53 -863 c-3 -514 -9 -941 -12 -950 -15 -39 -19 12 -18 252 4 1713 3
1633 21 1633 15 0 16 -67 9 -935z"/>
</g>
<g>
<path d="M2110 4921 c-12 -24 -13 -68 -1 -75 5 -4 3 -28 -5 -59 -7 -28 -14
-75 -14 -104 l0 -52 -67 -3 -68 -3 3 -30 c5 -43 19 -55 67 -55 41 0 43 -1 48
-37 5 -26 2 -42 -8 -52 -12 -12 -12 -18 5 -40 17 -25 19 -69 29 -641 26 -1404
20 -1262 47 -1288 30 -29 48 -28 68 4 15 22 18 86 26 547 5 287 10 682 10 877
0 195 5 395 10 444 8 64 7 92 -1 102 -8 10 -8 23 1 49 10 30 16 35 44 35 39 0
56 15 56 52 0 30 -11 35 -85 40 l-40 3 -7 75 c-4 41 -9 102 -10 136 -2 33 -9
68 -17 77 -19 24 -78 22 -91 -2z m90 -57 c0 -7 -10 -20 -22 -29 -19 -13 -21
-18 -11 -34 9 -14 9 -21 0 -30 -8 -8 -5 -11 11 -11 12 0 22 -4 22 -10 0 -5 -9
-10 -20 -10 -11 0 -20 -4 -20 -10 0 -5 9 -10 20 -10 11 0 20 -4 20 -10 0 -5
-9 -10 -20 -10 -11 0 -20 -4 -20 -10 0 -5 11 -10 25 -10 14 0 25 -4 25 -10 0
-5 -7 -10 -15 -10 -8 0 -15 -7 -15 -16 0 -11 -8 -14 -27 -12 -26 3 -28 7 -31
50 -2 26 2 73 7 104 8 41 8 61 0 70 -14 17 -3 52 19 57 18 4 52 -27 52 -49z
m130 -278 l0 -26 -159 0 c-166 0 -191 3 -191 25 0 20 12 22 188 24 l162 2 0
-25z m-157 -63 c-4 -9 -2 -14 3 -11 5 3 18 2 29 -3 17 -6 17 -8 3 -8 -20 -1
-24 -17 -6 -23 26 -9 -6 -28 -47 -28 -49 0 -51 1 -60 53 l-7 37 46 0 c38 0 44
-3 39 -17z m72 -93 c4 -6 -23 -10 -75 -10 -52 0 -79 4 -75 10 3 6 37 10 75 10
38 0 72 -4 75 -10z m-17 -40 c15 0 -12 -1868 -27 -1883 -8 -8 -11 11 -11 74 0
46 -3 467 -7 935 -3 468 -3 859 0 869 5 10 13 15 23 11 9 -3 19 -6 22 -6z
m-69 -702 c1 -387 4 -809 7 -939 5 -164 4 -238 -4 -243 -6 -3 -13 -3 -15 1 -3
5 -8 215 -12 468 -3 253 -10 600 -16 770 -5 171 -9 385 -9 478 l0 167 24 0 24
0 1 -702z"/>
</g>
<g>
<path d="M2565 4906 c-14 -32 -14 -39 0 -59 12 -19 13 -34 5 -77 -5 -29 -10
-72 -10 -96 l0 -44 -64 0 c-80 0 -96 -6 -96 -35 0 -30 16 -41 68 -48 24 -3 46
-8 49 -10 4 -5 6 -25 22 -247 5 -69 12 -440 15 -825 4 -385 9 -763 12 -840 l5
-140 31 -28 c24 -23 33 -25 45 -16 38 32 41 57 43 354 2 366 20 1585 24 1645
1 25 3 57 4 72 2 26 4 27 65 30 l62 3 3 36 c4 42 -9 49 -94 49 l-51 0 -6 68
c-3 37 -12 81 -18 99 -10 25 -10 37 0 59 18 39 -12 78 -63 82 -34 3 -38 0 -51
-32z m89 -9 c9 -14 6 -26 -12 -57 -18 -33 -20 -40 -7 -40 8 0 15 -4 15 -10 0
-5 -4 -10 -10 -10 -19 0 -10 -18 13 -25 19 -6 19 -8 5 -12 -22 -6 -24 -23 -3
-23 20 0 19 -17 -2 -29 -17 -10 -17 -10 0 -11 9 0 17 -4 17 -10 0 -5 -5 -10
-11 -10 -8 0 -8 -5 1 -15 11 -13 6 -15 -34 -15 l-46 0 0 42 c0 23 7 70 16 104
14 57 14 65 -1 87 -21 32 -10 59 23 55 14 -2 30 -11 36 -21z m171 -312 c0 -19
-8 -20 -192 -23 -180 -2 -193 -1 -202 16 -6 11 -7 22 -3 26 3 4 94 6 202 4
187 -3 195 -4 195 -23z m-185 -43 c0 -5 10 -14 23 -20 18 -9 19 -11 4 -11 -10
-1 -15 -6 -12 -12 4 -6 13 -8 21 -5 23 9 16 -10 -9 -23 -13 -7 -43 -11 -68 -9
-43 3 -44 4 -47 40 -3 31 0 37 20 41 41 8 68 7 68 -1z m60 -111 c0 -15 -22
-18 -87 -13 -88 6 -79 22 12 22 41 0 75 -4 75 -9z m-74 -50 c-3 -4 -6 -432 -6
-949 -1 -518 -5 -944 -10 -947 -5 -3 -11 -1 -14 4 -10 15 -15 207 -21 736 -3
281 -8 657 -11 838 l-7 327 37 0 c21 0 35 -4 32 -9z m55 -596 c-2 -1049 -10
-1325 -40 -1325 -8 0 -4 1452 5 1728 5 174 8 203 21 200 14 -3 16 -73 14 -603z"/>
</g>
<g>
<path d="M660 5155 c0 -14 5 -25 10 -25 6 0 10 11 10 25 0 14 -4 25 -10 25 -5
0 -10 -11 -10 -25z"/>
</g>
<g>
<path d="M830 5155 c0 -8 5 -15 10 -15 6 0 10 7 10 15 0 8 -4 15 -10 15 -5 0
-10 -7 -10 -15z"/>
</g>
<g>
<path d="M180 5004 c0 -17 22 -14 28 4 2 7 -3 12 -12 12 -9 0 -16 -7 -16 -16z"/>
</g>
<g>
<path d="M732 4398 c-17 -17 -15 -28 4 -28 8 0 13 4 10 9 -4 5 -1 11 6 13 8 3
8 7 2 11 -6 3 -16 1 -22 -5z"/>
</g>
<g>
<path d="M320 3920 c0 -5 4 -10 9 -10 6 0 13 5 16 10 3 6 -1 10 -9 10 -9 0
-16 -4 -16 -10z"/>
</g>
<g>
<path d="M2470 1900 c0 -11 4 -20 9 -20 5 0 7 9 4 20 -3 11 -7 20 -9 20 -2 0
-4 -9 -4 -20z"/>
</g>
<g>
<path d="M1783 1993 c-19 -7 10 -33 36 -33 26 0 27 9 4 26 -19 14 -22 15 -40
7z"/>
</g>
<g>
<path d="M1865 1580 c3 -5 24 -10 46 -10 24 0 38 4 34 10 -3 6 -24 10 -46 10
-24 0 -38 -4 -34 -10z"/>
</g>
<g>
<path d="M2335 1820 c3 -5 11 -10 16 -10 6 0 7 5 4 10 -3 6 -11 10 -16 10 -6
0 -7 -4 -4 -10z"/>
</g>
<g>
<path d="M2299 1801 c17 -31 33 -37 29 -10 -2 13 -11 25 -21 27 -16 3 -17 1
-8 -17z"/>
</g>
<g>
<path d="M2360 1779 c0 -5 5 -7 10 -4 6 3 10 8 10 11 0 2 -4 4 -10 4 -5 0 -10
-5 -10 -11z"/>
</g>
<g>
<path d="M2375 1740 c-3 -5 1 -10 10 -10 9 0 13 5 10 10 -3 6 -8 10 -10 10 -2
0 -7 -4 -10 -10z"/>
</g>
<g>
<path d="M1120 1953 c0 -7 -6 -10 -14 -7 -8 3 -17 0 -21 -6 -5 -8 -10 -8 -20
0 -9 8 -15 8 -20 0 -3 -6 -11 -7 -18 -3 -21 13 -71 13 -79 1 -6 -10 -10 -10
-17 2 -12 18 -24 9 -16 -12 5 -12 38 -14 203 -14 178 1 197 3 200 19 4 20 -13
23 -22 5 -5 -10 -7 -10 -12 0 -7 15 -76 16 -91 1 -7 -7 -13 -7 -17 0 -4 5 -14
7 -22 4 -9 -3 -20 0 -25 8 -6 10 -9 10 -9 2z"/>
</g>
<g>
<path d="M1276 1883 c-8 -26 -26 -31 -26 -8 0 8 -4 15 -10 15 -5 0 -10 -9 -10
-20 0 -15 7 -20 25 -20 26 0 40 19 33 42 -3 8 -8 4 -12 -9z"/>
</g>
<g>
<path d="M1310 1884 c0 -8 5 -12 10 -9 6 4 8 11 5 16 -9 14 -15 11 -15 -7z"/>
</g>
<g>
<path d="M1151 1882 c-1 -7 -6 -10 -12 -6 -6 3 -16 0 -21 -7 -7 -11 -11 -11
-15 -1 -7 17 -23 15 -23 -3 0 -8 -4 -15 -10 -15 -5 0 -10 7 -10 15 0 23 -17
18 -23 -6 -6 -21 -4 -22 61 -15 37 3 80 6 95 6 25 0 27 2 16 22 -10 19 -13 20
-23 6 -11 -15 -13 -15 -23 0 -8 12 -12 13 -12 4z"/>
</g>
<g>
<path d="M2466 678 c-3 -13 -6 -42 -6 -65 0 -41 -1 -43 -30 -43 -17 0 -39 5
-50 12 -14 9 -25 9 -42 1 -29 -14 -738 -32 -1548 -40 l-605 -5 -39 -26 -38
-26 33 -28 c33 -27 36 -28 169 -29 74 -1 149 -2 165 -4 17 -1 179 -5 360 -9
182 -4 368 -9 415 -11 47 -2 310 -7 584 -10 275 -3 504 -9 510 -13 6 -4 34 -9
61 -12 l50 -5 3 -72 3 -73 39 0 c46 0 51 9 49 94 -1 31 2 61 7 66 5 4 45 15
89 24 49 10 85 22 93 33 9 13 15 14 24 5 31 -31 108 11 108 58 0 54 -90 91
-131 54 -16 -14 -26 -14 -101 -2 l-83 13 -3 68 -3 67 -38 0 c-32 0 -40 -4 -45
-22z m48 6 c14 -5 16 -34 16 -219 0 -174 -3 -215 -15 -225 -8 -6 -19 -9 -25
-5 -11 7 -15 437 -3 448 8 8 8 8 27 1z m-134 -145 c0 -10 -4 -19 -10 -19 -5 0
-10 12 -10 26 0 14 4 23 10 19 6 -3 10 -15 10 -26z m-40 -25 l0 -36 -1089 5
c-812 4 -1091 3 -1094 -6 -2 -8 -5 -8 -10 1 -5 6 3 18 18 28 23 15 89 17 693
20 367 2 768 8 892 12 124 5 307 9 408 10 l182 2 0 -36z m118 -16 c-2 -30 -8
-53 -15 -56 -7 -2 -13 4 -13 12 0 9 -7 19 -15 22 -9 4 -15 19 -15 40 0 31 2
34 31 34 30 0 30 0 27 -52z m375 31 c13 -21 2 -65 -19 -73 -8 -3 -26 -3 -40 0
-20 5 -24 12 -24 44 0 21 6 41 13 44 22 9 60 1 70 -15z m-129 -5 c18 -7 23
-69 6 -79 -5 -3 -10 1 -10 9 0 9 -4 16 -10 16 -5 0 -10 -9 -10 -20 0 -11 -4
-20 -10 -20 -5 0 -10 12 -10 26 0 16 -5 24 -12 21 -8 -2 -12 -15 -10 -30 3
-20 -1 -27 -13 -27 -11 0 -16 7 -13 23 3 30 -15 34 -24 5 -5 -20 -6 -18 -7 10
-1 34 -16 44 -24 15 -3 -10 -5 2 -6 26 l-1 44 69 -7 c38 -3 76 -9 85 -12z
m-2484 -64 c0 -5 -7 -10 -15 -10 -8 0 -15 5 -15 10 0 6 7 10 15 10 8 0 15 -4
15 -10z m80 0 c0 -5 -13 -10 -30 -10 -16 0 -30 5 -30 10 0 6 14 10 30 10 17 0
30 -4 30 -10z m40 0 c0 -5 -4 -10 -10 -10 -5 0 -10 5 -10 10 0 6 5 10 10 10 6
0 10 -4 10 -10z m60 0 c0 -5 -9 -10 -21 -10 -11 0 -17 5 -14 10 3 6 13 10 21
10 8 0 14 -4 14 -10z m45 0 c3 -5 -1 -10 -10 -10 -9 0 -13 5 -10 10 3 6 8 10
10 10 2 0 7 -4 10 -10z m125 -4 c0 -11 -19 -15 -25 -6 -3 5 1 10 9 10 9 0 16
-2 16 -4z m100 -6 c0 -5 -4 -10 -10 -10 -5 0 -10 5 -10 10 0 6 5 10 10 10 6 0
10 -4 10 -10z m50 0 c0 -5 -4 -10 -10 -10 -5 0 -10 5 -10 10 0 6 5 10 10 10 6
0 10 -4 10 -10z m40 0 c0 -5 -4 -10 -10 -10 -5 0 -10 5 -10 10 0 6 5 10 10 10
6 0 10 -4 10 -10z m40 0 c0 -5 -4 -10 -10 -10 -5 0 -10 5 -10 10 0 6 5 10 10
10 6 0 10 -4 10 -10z m65 0 c3 -5 1 -10 -4 -10 -6 0 -11 5 -11 10 0 6 2 10 4
10 3 0 8 -4 11 -10z m165 0 c0 -5 -4 -10 -10 -10 -5 0 -10 5 -10 10 0 6 5 10
10 10 6 0 10 -4 10 -10z m50 1 c0 -6 -4 -13 -10 -16 -5 -3 -10 1 -10 9 0 9 5
16 10 16 6 0 10 -4 10 -9z m60 -6 c0 -8 -4 -15 -10 -15 -5 0 -10 7 -10 15 0 8
5 15 10 15 6 0 10 -7 10 -15z m57 -7 c-3 -8 -6 -5 -6 6 -1 11 2 17 5 13 3 -3
4 -12 1 -19z m43 7 c0 -8 -4 -15 -10 -15 -5 0 -10 7 -10 15 0 8 5 15 10 15 6
0 10 -7 10 -15z m627 -17 c-3 -7 -5 -2 -5 12 0 14 2 19 5 13 2 -7 2 -19 0 -25z
m343 7 c0 -14 -4 -25 -10 -25 -11 0 -14 33 -3 43 11 11 13 8 13 -18z m125 -15
c-12 -19 -22 -10 -17 16 4 22 6 24 14 10 5 -9 6 -21 3 -26z m-945 20 c0 -5 -4
-10 -10 -10 -5 0 -10 5 -10 10 0 6 5 10 10 10 6 0 10 -4 10 -10z m150 2 c0
-13 -12 -22 -22 -16 -10 6 -1 24 13 24 5 0 9 -4 9 -8z m150 -2 c0 -5 -4 -10
-10 -10 -5 0 -10 5 -10 10 0 6 5 10 10 10 6 0 10 -4 10 -10z m40 0 c0 -5 -4
-10 -10 -10 -5 0 -10 5 -10 10 0 6 5 10 10 10 6 0 10 -4 10 -10z m220 -5 c0
-8 -4 -15 -10 -15 -5 0 -10 7 -10 15 0 8 5 15 10 15 6 0 10 -7 10 -15z m66
-11 c-4 -9 -9 -15 -11 -12 -3 3 -3 13 1 22 4 9 9 15 11 12 3 -3 3 -13 -1 -22z
m106 -6 c-9 -9 -12 -7 -12 12 0 19 3 21 12 12 9 -9 9 -15 0 -24z m48 18 c0 -8
-4 -18 -10 -21 -5 -3 -10 3 -10 14 0 12 5 21 10 21 6 0 10 -6 10 -14z m76 -23
c-11 -11 -19 6 -11 24 8 17 8 17 12 0 3 -10 2 -21 -1 -24z m44 17 c0 -11 -4
-20 -10 -20 -5 0 -10 9 -10 20 0 11 5 20 10 20 6 0 10 -9 10 -20z"/>
</g>
</g>
</g>
</svg>
