<?xml version="1.0" standalone="no"?>
<!DOCTYPE svg PUBLIC "-//W3C//DTD SVG 20010904//EN"
 "http://www.w3.org/TR/2001/REC-SVG-20010904/DTD/svg10.dtd">
<svg version="1.0" xmlns="http://www.w3.org/2000/svg"
 width="300.000000pt" height="530.000000pt" viewBox="0 0 300.000000 530.000000"
 preserveAspectRatio="xMidYMid meet">
<metadata>
Created by potrace 1.15, written by Peter Selinger 2001-2017
</metadata>
<g transform="translate(0.000000,530.000000) scale(0.100000,-0.100000)"
fill="#000000" stroke="none">
<g>
<path d="M1 3370 c0 -1262 4 -1906 10 -1888 8 21 15 26 37 23 15 -2 30 -4 35
-4 14 -2 7 -21 -8 -21 -18 0 -20 -21 -2 -39 10 -10 8 -14 -6 -22 -14 -8 -17
-18 -11 -42 3 -18 12 -39 20 -48 16 -17 19 -49 5 -49 -5 0 -11 9 -14 21 -7 28
-37 21 -56 -13 -19 -32 -6 -51 15 -23 14 19 16 19 25 3 14 -26 46 -22 65 7 18
27 34 25 34 -4 0 -23 -43 -53 -64 -45 -13 5 -16 -1 -16 -30 0 -29 4 -36 16
-34 11 2 18 -5 19 -20 2 -29 -10 -28 -39 3 -13 14 -30 25 -39 25 -10 0 -17 11
-20 32 -2 18 -5 -4 -5 -49 l-2 -83 21 21 c17 17 29 20 58 15 39 -6 68 5 57 23
-4 6 0 11 8 11 9 0 16 -5 16 -11 0 -5 5 -7 11 -3 8 4 8 9 0 17 -20 20 -12 37
18 37 20 0 30 -6 34 -20 6 -24 27 -27 27 -3 0 9 3 13 7 10 7 -8 12 -39 16
-102 1 -22 6 -43 12 -47 13 -9 5 -16 -25 -21 -42 -8 -78 -25 -132 -62 -60 -40
-72 -43 -63 -15 9 30 -2 55 -31 68 -14 7 -27 12 -29 12 -3 0 -4 -30 -4 -67 1
-38 4 -58 6 -46 4 22 27 31 36 16 8 -14 -12 -53 -28 -53 -8 0 -15 -6 -15 -13
0 -11 62 -14 307 -15 168 -1 308 -4 311 -6 2 -3 -7 -11 -20 -19 -20 -13 -65
-14 -311 -9 -207 5 -287 4 -287 -4 0 -8 84 -13 275 -16 152 -3 278 -8 282 -11
3 -3 -3 -14 -12 -24 -47 -46 -57 -122 -24 -180 29 -53 45 -69 82 -84 18 -7 34
-16 37 -20 19 -25 222 -28 310 -4 146 40 298 105 347 150 41 37 73 89 73 118
0 43 33 33 40 -13 8 -53 57 -118 109 -144 133 -67 290 -100 449 -94 108 4 121
6 171 34 30 17 68 47 85 68 28 34 30 43 31 118 l0 81 245 -6 c135 -4 299 -7
365 -7 l120 0 -6 -345 c-3 -190 -9 -348 -13 -352 -8 -8 -2117 -8 -2663 -1
-237 4 -303 2 -303 -8 0 -8 25 -14 73 -18 85 -6 1274 -16 2242 -17 l680 -1 0
983 c0 541 -1 863 -2 715 l-3 -268 -23 7 c-12 3 -32 9 -44 12 -13 3 -23 9 -23
14 0 12 -37 11 -45 -1 -12 -19 -66 -41 -85 -35 -17 5 -20 16 -20 64 0 43 -5
62 -18 74 -22 20 -92 23 -110 5 -15 -15 -16 -45 -2 -50 12 -4 -12 -59 -34 -77
-11 -9 -14 2 -19 56 -4 38 -7 88 -7 113 0 92 -40 168 -82 154 -10 -3 -18 -1
-18 5 0 25 -31 9 -36 -19 -4 -16 -11 -30 -16 -30 -5 0 -8 -8 -7 -17 1 -10 1
-89 0 -175 -1 -131 -3 -158 -16 -158 -17 0 -25 36 -34 159 -1 9 -9 11 -26 7
-27 -7 -35 8 -10 18 25 9 18 36 -10 36 -14 0 -25 5 -25 10 0 21 -26 9 -52 -24
-31 -38 -34 -52 -15 -59 8 -3 7 -10 -7 -26 -19 -21 -19 -22 2 -42 17 -16 22
-31 22 -74 0 -49 -2 -55 -20 -55 -11 0 -22 6 -24 13 -12 40 -19 51 -23 40 -3
-7 -8 -13 -11 -13 -13 0 -1 134 13 164 8 16 15 35 15 43 0 23 -102 123 -126
123 -19 0 -22 8 -28 62 -3 34 -11 77 -18 95 -11 30 -10 35 10 49 15 10 22 25
22 48 0 37 25 66 58 66 21 0 22 4 22 105 0 89 3 108 18 123 50 50 56 210 13
336 -17 52 -25 88 -19 94 11 11 -39 116 -79 170 -19 25 -31 32 -59 32 -22 0
-37 6 -41 15 -7 19 -72 48 -91 40 -7 -2 -26 5 -41 16 -21 15 -34 19 -47 12
-11 -5 -50 -7 -87 -4 l-68 6 23 25 c13 13 23 27 24 30 0 3 4 13 9 24 6 13 3
21 -7 27 -9 5 -14 18 -11 32 3 14 -2 31 -12 41 -15 15 -16 22 -5 62 7 24 17
47 21 50 5 3 9 14 9 24 0 14 -10 21 -35 26 -19 3 -35 8 -35 10 0 2 16 24 35
50 120 156 56 373 -131 444 -185 69 -381 -60 -392 -260 -5 -79 25 -156 82
-214 32 -31 35 -37 19 -42 -69 -22 -73 -26 -66 -53 3 -14 10 -37 15 -50 5 -15
5 -28 -2 -35 -17 -17 -12 -114 7 -149 10 -18 35 -48 55 -68 46 -43 47 -53 7
-47 -25 4 -36 -1 -61 -28 -26 -27 -37 -32 -72 -31 -39 2 -48 -4 -119 -68 l-78
-70 5 -57 c3 -43 1 -60 -11 -70 -12 -9 -14 -24 -9 -66 4 -30 10 -62 15 -71 5
-10 3 -51 -6 -105 -13 -72 -13 -97 -3 -140 7 -28 13 -73 14 -101 0 -27 5 -55
9 -62 5 -8 -3 -18 -20 -29 -34 -22 -67 -54 -81 -80 -14 -27 -3 -134 14 -141 8
-3 14 -20 14 -39 0 -27 -5 -37 -25 -46 -44 -20 -92 -161 -65 -193 7 -8 10 -20
7 -27 -4 -8 -8 -5 -12 9 -5 16 -18 25 -42 29 -40 8 -50 0 -55 -41 -2 -22 -9
-31 -26 -33 -12 -2 -23 -6 -23 -10 -5 -31 -4 -144 2 -148 11 -6 21 50 17 93
-2 22 2 38 10 41 7 2 12 -5 12 -17 0 -30 13 -32 37 -7 23 24 21 39 -3 29 -22
-8 -16 13 9 30 18 13 19 16 5 16 -24 1 -23 21 1 21 16 0 20 -9 24 -52 8 -75
18 -118 28 -118 5 0 9 -13 9 -30 0 -52 -32 -32 -45 27 -3 18 -11 33 -16 33 -5
0 -7 -10 -4 -23 8 -29 -58 -99 -68 -73 -4 9 -13 16 -22 16 -10 0 -15 10 -15
34 0 19 -4 38 -10 41 -5 3 -10 -1 -10 -10 0 -10 -7 -15 -17 -13 -16 3 -18 18
-21 113 -2 100 -5 112 -26 131 -29 28 -61 38 -82 26 -14 -8 -17 -28 -18 -118
0 -60 -5 -115 -9 -122 -14 -21 -34 3 -41 50 -9 55 -21 68 -62 68 l-34 0 0 -90
c0 -49 -4 -90 -9 -90 -12 0 -21 26 -21 61 0 16 -4 29 -10 29 -5 0 -10 -15 -10
-34 0 -37 -14 -56 -23 -32 -3 8 -18 16 -34 18 l-28 3 -3 123 c-1 67 1 122 4
122 4 0 15 -6 23 -14 9 -8 32 -16 51 -20 19 -3 28 -3 20 1 -8 3 -36 23 -61 44
-26 22 -49 39 -52 39 -2 0 -7 -22 -11 -48 l-6 -48 -37 4 -36 5 7 696 c5 580
20 2886 18 2986 l0 30 766 0 c422 0 1090 2 1485 4 697 4 717 4 717 23 0 19
-31 19 -1500 16 l-1500 -3 1 -1915z m1533 386 c56 -33 93 -80 112 -142 18 -61
18 -92 -2 -151 -35 -102 -108 -159 -215 -169 -36 -4 -82 -1 -105 5 -56 15
-118 71 -150 137 -23 47 -26 63 -22 119 9 101 71 188 160 222 56 21 168 11
222 -21z m104 -480 c2 -3 -6 -31 -18 -63 l-21 -58 -117 0 c-64 0 -155 -3 -203
-7 l-85 -8 -11 53 c-13 58 -2 77 44 77 18 0 23 -6 23 -25 0 -34 39 -53 76 -37
18 9 24 19 22 35 -3 21 1 22 65 25 61 3 67 1 67 -16 0 -15 9 -21 38 -25 47 -5
52 -2 52 35 0 29 2 30 32 24 17 -3 33 -8 36 -10z m-88 -17 c0 -5 -7 -9 -15 -9
-15 0 -20 12 -9 23 8 8 24 -1 24 -14z m-246 5 c9 -3 16 -13 16 -21 0 -21 -44
-12 -48 10 -4 18 6 21 32 11z m225 -149 c45 -14 18 -31 -59 -37 -32 -3 -35 -6
-38 -35 -3 -26 0 -33 15 -33 14 0 15 2 4 9 -9 6 -10 10 -2 16 7 4 18 1 26 -5
12 -10 20 -9 39 3 22 15 25 15 41 -3 17 -19 14 -73 -6 -85 -5 -4 -9 -21 -9
-39 0 -45 -61 -93 -102 -80 -21 6 -21 7 5 21 15 7 27 17 27 22 0 5 7 8 16 7 9
0 19 5 21 12 3 8 -5 12 -25 12 -34 0 -46 9 -33 24 7 8 -2 12 -30 12 -21 1 -39
-2 -39 -7 0 -5 8 -9 17 -9 25 0 3 -18 -27 -22 -14 -1 -26 -10 -28 -19 -2 -12
3 -15 21 -12 18 4 26 0 30 -16 14 -53 -82 -2 -112 59 -16 34 -18 50 -12 86 5
25 12 48 16 52 4 4 5 -2 3 -13 -4 -23 34 -34 56 -16 10 8 17 7 26 -4 14 -16
30 -11 30 10 0 26 -31 45 -72 45 -44 0 -50 22 -7 28 13 2 32 10 43 17 19 14
122 14 165 0z m-70 -316 c20 -7 31 -18 31 -30 0 -25 -27 -36 -52 -20 -17 10
-24 9 -42 -7 -24 -22 -83 -52 -101 -52 -7 0 -23 -10 -36 -21 -13 -12 -34 -28
-46 -36 -18 -12 -23 -25 -23 -61 0 -52 -15 -47 -25 8 -5 28 -2 42 15 63 12 15
27 27 33 27 7 0 18 9 24 20 17 26 -3 38 -22 14 -8 -11 -15 -14 -15 -8 0 20 42
55 103 84 66 32 105 37 156 19z m81 -60 c0 -37 -2 -40 -22 -33 -31 9 -31 7
-11 43 24 42 33 39 33 -10z m-38 -61 c3 -7 19 -11 39 -10 105 6 206 -137 192
-273 -5 -46 -11 -59 -34 -75 -15 -11 -30 -33 -34 -49 -14 -65 -91 -105 -200
-105 -70 0 -87 4 -134 30 -95 51 -154 170 -135 271 19 105 86 180 194 216 31
11 108 7 112 -5z m318 -353 c0 -50 3 -65 14 -65 8 0 16 10 19 23 2 12 4 -7 5
-42 0 -63 0 -65 -47 -115 -27 -28 -60 -63 -73 -78 -30 -33 -86 -38 -113 -11
-16 15 -15 18 13 39 27 22 30 29 36 113 6 70 12 93 27 107 23 21 38 10 21 -16
-27 -43 -10 -67 31 -45 15 8 27 11 27 8 0 -3 7 0 15 7 11 9 13 26 8 76 -4 45
-2 64 6 64 7 0 11 -23 11 -65z m-833 -37 c-3 -7 -5 -2 -5 12 0 14 2 19 5 13 2
-7 2 -19 0 -25z m597 -173 c-4 -8 -13 -15 -21 -15 -13 0 -13 3 -3 15 7 8 16
15 21 15 5 0 6 -7 3 -15z m7 -80 c-7 -46 -8 -48 -16 -22 -4 17 -3 38 4 54 17
37 21 25 12 -32z m-665 -242 c-2 -3 -9 -2 -15 2 -8 4 -7 13 1 28 l13 22 3 -23
c2 -13 1 -26 -2 -29z m131 41 c-10 -10 -97 -12 -97 -3 0 5 23 9 52 9 28 0 49
-3 45 -6z m1399 -170 c-5 -12 0 -15 22 -12 l27 3 3 -226 c2 -224 2 -227 -19
-232 -17 -5 -20 -11 -17 -31 3 -15 0 -27 -8 -30 -8 -3 -14 -10 -14 -17 0 -6 7
-9 15 -5 9 3 15 0 15 -9 0 -19 -66 -21 -73 -2 -3 9 -7 9 -19 0 -8 -7 -17 -11
-19 -9 -2 2 -26 7 -54 10 -45 5 -75 24 -75 47 0 13 -30 18 -55 9 -17 -7 -25
-17 -25 -34 0 -14 -4 -28 -10 -31 -6 -4 -10 10 -10 34 0 30 5 43 20 51 28 15
66 3 93 -30 26 -30 77 -46 77 -24 0 8 -6 14 -14 14 -31 0 -47 49 -52 156 -4
70 -2 104 5 104 6 0 10 -6 8 -12 -1 -7 6 -13 17 -13 13 0 20 8 22 28 2 17 -2
27 -11 27 -7 0 -16 7 -19 16 -5 12 0 15 22 12 l27 -3 5 -155 c3 -85 9 -160 13
-167 5 -8 19 -10 37 -6 19 3 30 1 30 -6 0 -6 5 -11 10 -11 6 0 10 7 10 15 0 8
-5 15 -11 15 -7 0 -8 5 -3 13 5 6 7 126 4 265 -3 140 -3 256 -1 258 12 11 33
2 27 -12z m-1616 -29 c0 -28 -4 -35 -19 -35 -29 0 -35 17 -17 45 23 35 36 31
36 -10z m1260 4 c0 -6 -4 -7 -10 -4 -5 3 -10 11 -10 16 0 6 5 7 10 4 6 -3 10
-11 10 -16z m60 -66 c0 -7 -4 -13 -9 -13 -5 0 -16 -3 -25 -6 -12 -5 -16 0 -16
18 0 14 3 27 6 31 9 9 44 -16 44 -30z m-1320 -22 c0 -26 -4 -29 -36 -33 -19
-2 -38 0 -40 4 -11 17 26 58 51 58 21 0 25 -5 25 -29z m1884 2 c11 -39 10
-268 -2 -290 -9 -16 -9 -29 -2 -49 14 -35 2 -114 -16 -114 -8 0 -14 -7 -14
-15 0 -8 7 -15 15 -15 12 0 15 -15 15 -72 -1 -72 -1 -72 -15 -40 -8 18 -21 32
-31 32 -27 0 -54 -30 -54 -61 0 -28 1 -28 48 -22 l48 5 -4 -36 -4 -36 -104 0
c-106 0 -123 7 -92 38 9 9 7 12 -9 12 -19 0 -20 3 -10 25 12 25 12 25 26 5 15
-22 71 -28 71 -7 0 6 3 22 6 34 5 18 1 25 -17 32 -15 5 -31 5 -42 -1 -10 -5
-22 -7 -25 -3 -4 4 -7 51 -7 106 0 108 -1 106 67 100 23 -3 31 14 13 29 -20
16 -20 90 -1 90 10 0 12 7 8 22 -3 14 -2 19 6 14 7 -4 12 -31 12 -61 0 -35 5
-59 16 -69 8 -9 16 -16 17 -16 1 0 0 64 -2 142 -3 123 -1 143 13 154 10 6 26
9 37 7 17 -5 20 -2 17 18 -2 20 -9 24 -35 24 -25 0 -33 4 -33 17 0 26 76 26
84 1z m-2276 0 c-10 -2 -18 -9 -18 -15 0 -5 6 -8 14 -5 12 5 15 -12 18 -88 2
-79 0 -98 -15 -117 -15 -18 -20 -19 -28 -7 -5 7 -7 20 -4 27 3 8 5 58 5 113 0
96 1 99 23 98 16 -1 18 -2 5 -6z m1668 -227 c-3 -105 -7 -253 -7 -329 -1 -76
-5 -140 -10 -143 -4 -2 -46 5 -93 17 -84 21 -85 22 -71 42 8 12 15 41 15 64 0
41 11 55 25 33 11 -17 25 0 25 29 0 16 7 42 15 57 8 16 15 52 15 80 0 39 5 55
21 70 20 18 20 25 13 147 -7 138 -2 157 39 135 19 -10 19 -19 13 -202z m-1275
18 c-3 -128 5 -164 38 -164 10 0 32 -13 49 -30 18 -16 41 -30 53 -30 36 0 59
-19 59 -48 0 -16 -5 -33 -11 -39 -13 -13 -4 -46 17 -68 24 -24 9 -32 -68 -40
-40 -4 -95 -13 -122 -21 -28 -8 -53 -11 -58 -6 -10 10 -15 544 -5 560 5 7 19
12 30 10 21 -3 22 -6 18 -124z m2102 79 c29 -4 36 -10 41 -35 10 -50 7 -178
-4 -178 -6 0 -10 35 -10 84 0 91 -4 99 -59 110 -40 7 -61 -7 -61 -41 0 -15 -4
-22 -11 -17 -6 3 -9 19 -5 35 3 16 1 29 -4 29 -6 0 -10 5 -10 10 0 6 6 10 14
10 7 0 19 7 26 15 12 14 15 14 30 0 10 -9 33 -18 53 -22z m-2640 15 c25 -20
26 -131 2 -158 -10 -11 -22 -20 -27 -20 -4 0 -8 34 -8 75 0 43 4 75 10 75 6 0
10 5 10 11 0 5 -4 7 -10 4 -5 -3 -10 1 -10 9 0 19 11 20 33 4z m2307 -33 c0
-27 -4 -35 -18 -35 -22 0 -23 30 -3 54 19 22 21 20 21 -19z m171 -8 c-1 -4 -1
-14 -1 -22 0 -8 -4 -15 -9 -15 -5 0 -8 11 -8 25 0 14 4 24 9 23 5 -2 9 -7 9
-11z m129 -37 c-19 -13 -30 -13 -30 0 0 6 10 10 23 10 18 0 19 -2 7 -10z
m-513 -16 c-3 -3 -12 -4 -19 -1 -8 3 -5 6 6 6 11 1 17 -2 13 -5z m-1882 -51
c31 -35 31 -53 2 -53 -30 0 -71 52 -54 69 17 17 26 14 52 -16z m1882 1 c-3 -3
-12 -4 -19 -1 -8 3 -5 6 6 6 11 1 17 -2 13 -5z m-237 -55 c0 -21 -4 -39 -10
-39 -5 0 -10 21 -10 46 0 27 4 43 10 39 6 -3 10 -24 10 -46z m-1240 1 c0 -36
-2 -40 -25 -40 -22 0 -25 4 -25 40 0 36 3 40 25 40 23 0 25 -4 25 -40z m751
-20 c5 0 9 9 9 21 0 14 5 19 18 17 19 -4 30 -64 14 -80 -5 -5 -37 -11 -71 -13
l-62 -5 3 43 c3 37 7 44 38 60 l35 17 3 -30 c2 -16 7 -30 13 -30z m-661 26
c37 -11 46 -18 51 -42 17 -79 4 -91 -71 -64 l-45 16 -2 52 c-3 58 -2 59 67 38z
m768 -44 c2 -28 7 -42 15 -39 7 2 11 17 9 34 -3 26 1 31 23 36 31 5 38 -6 33
-59 -3 -36 -5 -39 -37 -42 -19 -2 -44 -1 -57 2 -22 6 -24 12 -24 62 0 47 3 55
18 52 12 -2 18 -15 20 -46z m-1358 17 c0 -5 -12 -9 -27 -9 -21 -1 -34 -10 -51
-37 -22 -34 -23 -52 -6 -97 4 -11 0 -14 -15 -13 -18 1 -21 8 -21 44 0 23 5 45
11 49 6 4 8 20 4 40 -4 26 -3 34 9 34 8 0 18 -5 21 -10 5 -8 11 -7 20 0 8 7
19 9 25 5 5 -3 10 -1 10 5 0 6 5 8 10 5 6 -3 10 -10 10 -16z m918 -5 c39 -10
67 -11 104 -4 78 15 78 15 78 -33 0 -35 -4 -46 -22 -54 -40 -20 -65 -21 -130
-7 -35 7 -80 13 -100 14 -20 0 -40 5 -43 10 -10 16 -19 12 -30 -12 -9 -20 -16
-22 -55 -19 -25 1 -46 4 -46 4 -1 1 -5 25 -9 53 l-7 51 46 1 c26 1 54 6 64 12
18 11 66 6 150 -16z m212 -30 c0 -24 -4 -44 -10 -44 -5 0 -10 23 -10 51 0 31
4 48 10 44 6 -3 10 -26 10 -51z m848 35 c-2 -6 -8 -10 -13 -10 -5 0 -11 4 -13
10 -2 6 4 11 13 11 9 0 15 -5 13 -11z m432 -39 c9 0 23 -7 30 -15 8 -10 31
-15 71 -15 l59 0 -1 -92 c-1 -59 -4 -80 -8 -58 -7 41 -37 51 -77 26 -15 -10
-33 -14 -49 -10 -36 9 -73 -18 -80 -60 -9 -45 2 -76 26 -76 10 0 19 -2 19 -4
0 -2 3 -12 6 -21 6 -14 0 -16 -42 -13 -38 2 -48 6 -45 18 2 8 3 92 2 187 l-1
172 28 3 c20 2 29 -2 35 -19 5 -13 17 -23 27 -23z m-430 -9 c0 -6 -4 -13 -10
-16 -5 -3 -10 1 -10 9 0 9 5 16 10 16 6 0 10 -4 10 -9z m-1680 -16 c0 -8 10
-16 23 -16 21 -2 20 -2 -3 -6 l-24 -5 24 -14 c25 -13 25 -13 3 -14 -13 0 -23
-4 -23 -10 0 -5 9 -10 20 -10 28 0 25 -20 -2 -21 l-23 0 23 -9 c24 -10 29 -26
10 -33 -10 -4 -9 -8 2 -16 8 -5 12 -11 10 -13 -44 -28 -80 -32 -64 -7 3 5 0
16 -6 24 -9 11 -9 15 -1 15 6 0 11 5 11 10 0 6 -7 10 -15 10 -8 0 -15 5 -15
10 0 6 -7 10 -15 10 -12 0 -15 13 -15 55 l0 55 40 0 c29 0 40 -4 40 -15z
m1490 -30 c0 -8 12 -21 28 -30 l27 -15 -30 6 c-16 4 -33 9 -37 11 -12 6 -10
43 2 43 6 0 10 -7 10 -15z m-1729 -57 c-31 -57 -51 -72 -51 -38 0 16 -4 20
-15 16 -25 -9 -55 16 -55 46 l0 28 74 0 75 0 -28 -52z m966 28 l82 0 11 -53
c10 -46 9 -58 -5 -79 -9 -14 -15 -37 -13 -52 2 -22 -3 -30 -34 -45 -20 -10
-48 -36 -62 -58 -15 -21 -31 -39 -36 -39 -5 0 -16 15 -24 34 -8 19 -28 44 -45
57 -17 13 -31 32 -31 44 0 11 -8 32 -17 45 -10 14 -19 39 -19 55 -1 17 -5 48
-9 69 l-8 39 64 -8 c35 -5 101 -9 146 -9z m369 8 c18 -5 23 -16 28 -65 4 -32
11 -61 16 -64 6 -4 10 -22 10 -42 0 -32 -2 -35 -22 -29 -13 3 -38 6 -56 6 -26
0 -35 5 -42 25 -12 31 2 104 22 116 10 7 10 12 1 28 -18 29 -3 37 43 25z
m-1226 -34 c0 -10 -31 -23 -38 -15 -8 7 19 35 29 29 5 -3 9 -9 9 -14z m640
-42 c0 -10 -7 -18 -15 -18 -20 0 -19 -17 3 -40 9 -10 25 -32 35 -49 18 -30 18
-31 -1 -31 -11 0 -22 -9 -25 -20 -3 -12 -14 -20 -26 -20 -14 0 -21 -6 -21 -20
0 -11 -9 -25 -20 -32 -11 -7 -20 -22 -20 -33 0 -23 -95 -109 -110 -100 -5 3
-24 -2 -42 -11 l-33 -17 50 -12 c28 -7 72 -22 99 -34 27 -12 53 -18 58 -13 5
5 -5 27 -21 50 l-30 41 29 31 c16 17 36 51 46 76 11 29 27 50 46 60 26 13 31
13 58 -3 68 -40 60 -125 -18 -199 -55 -52 -113 -81 -247 -124 -86 -28 -116
-33 -210 -34 -140 -1 -194 14 -246 68 -32 32 -39 47 -39 78 0 83 63 156 178
209 56 26 181 58 230 59 21 0 2 -24 -55 -69 -52 -40 -54 -41 -133 -41 -82 0
-103 -12 -52 -30 70 -26 71 -22 -6 -85 -101 -83 -94 -94 28 -45 157 63 200 69
200 29 0 -10 5 -19 10 -19 6 0 10 7 10 15 0 28 22 61 48 73 35 15 62 64 62
111 0 46 5 52 35 41 20 -8 25 -5 31 13 5 12 7 29 5 36 -2 8 5 21 15 28 16 11
16 13 1 19 -26 10 -20 25 7 18 21 -5 24 -1 31 33 10 53 25 70 42 47 7 -10 13
-26 13 -36z m660 16 c0 -8 -4 -14 -10 -14 -5 0 -10 9 -10 21 0 11 5 17 10 14
6 -3 10 -13 10 -21z m410 -4 c0 -5 -2 -10 -4 -10 -3 0 -8 5 -11 10 -3 6 -1 10
4 10 6 0 11 -4 11 -10z m60 -39 c0 -46 -33 -80 -57 -59 -19 16 -16 35 7 41 11
3 20 14 20 24 0 11 3 23 7 26 15 16 23 5 23 -32z m110 31 c0 -4 -18 -13 -40
-19 -22 -5 -40 -9 -40 -7 0 21 17 34 46 34 19 0 34 -4 34 -8z m-1823 -24 c-3
-8 -6 -5 -6 6 -1 11 2 17 5 13 3 -3 4 -12 1 -19z m1593 7 c0 -8 -4 -15 -10
-15 -5 0 -10 7 -10 15 0 8 5 15 10 15 6 0 10 -7 10 -15z m236 -21 c-3 -9 -6
-17 -6 -19 0 -2 -10 -1 -22 3 -17 4 -20 2 -15 -11 5 -12 1 -17 -13 -17 -32 0
-24 30 10 37 17 3 30 9 30 14 0 5 5 9 11 9 6 0 8 -7 5 -16z m474 6 c0 -5 -4
-10 -10 -10 -5 0 -10 5 -10 10 0 6 5 10 10 10 6 0 10 -4 10 -10z m-750 -10 c0
-5 -9 -10 -21 -10 -18 0 -20 -4 -13 -32 6 -29 5 -31 -10 -19 -19 16 -21 37 -3
56 14 16 47 20 47 5z m663 -4 c10 -8 17 -26 17 -44 0 -25 -5 -33 -24 -38 -26
-6 -46 1 -46 17 0 5 9 9 20 9 11 0 20 7 20 15 0 8 -6 15 -14 15 -12 0 -14 14
-7 38 2 6 17 0 34 -12z m-2422 -1 c26 -8 24 -21 -3 -29 l-23 -7 23 -9 c12 -5
22 -14 22 -20 0 -5 7 -10 15 -10 8 0 14 -6 12 -12 -1 -8 7 -12 19 -11 15 2 24
-4 27 -18 7 -26 -16 -35 -49 -21 -13 6 -31 9 -39 6 -10 -4 -15 0 -15 10 0 9
-7 16 -15 16 -9 0 -20 11 -25 25 -5 14 -16 25 -25 25 -17 0 -20 -16 -5 -25 10
-6 2 -35 -10 -35 -4 0 -11 12 -15 28 l-8 27 -6 -25 c-6 -21 -14 -25 -50 -28
-28 -2 -41 0 -36 7 3 6 17 11 29 11 27 0 51 24 41 40 -9 15 -35 12 -35 -4 0
-7 -9 -16 -20 -19 -11 -3 -18 0 -17 6 2 13 -51 10 -68 -3 -5 -4 -21 -11 -35
-15 -24 -7 38 40 99 75 28 16 176 26 212 15z m1205 -20 c1 -32 -5 -36 -32 -19
-13 9 -24 13 -24 10 0 -4 -5 -4 -10 -1 -18 11 6 31 37 30 21 0 28 -5 29 -20z
m-936 -35 c0 -14 -28 -1 -34 16 -4 12 -2 12 14 4 11 -6 20 -15 20 -20z m50 5
c0 -19 -5 -25 -22 -25 -21 1 -22 2 -5 14 9 7 17 18 17 25 0 6 2 11 5 11 3 0 5
-11 5 -25z m1158 7 c2 -7 -3 -12 -12 -12 -9 0 -16 7 -16 16 0 17 22 14 28 -4z
m-1428 -8 c0 -8 -4 -12 -10 -9 -5 3 -10 10 -10 16 0 5 5 9 10 9 6 0 10 -7 10
-16z m1775 -15 c0 -26 -29 -39 -48 -20 -8 8 -5 11 12 11 18 0 21 4 16 21 -5
16 -3 20 6 17 8 -3 14 -15 14 -29z m209 7 c-3 -8 -17 -16 -32 -19 l-27 -5 24
19 c27 22 43 25 35 5z m-886 -13 c-5 -6 -16 -9 -24 -6 -22 8 -17 18 10 18 18
0 22 -3 14 -12z m-884 -35 c-3 -5 -15 -8 -27 -6 -16 2 -21 -2 -19 -14 3 -20 1
-21 -22 -12 -22 8 -20 30 4 54 19 19 22 19 45 4 14 -9 22 -20 19 -26z m336 13
c0 -19 -23 -71 -31 -71 -5 0 -9 2 -9 4 0 2 -7 20 -15 40 l-15 36 35 0 c19 0
35 -4 35 -9z m560 -15 c0 -2 -9 -2 -20 1 -11 3 -20 9 -20 15 0 5 9 4 20 -2 11
-6 20 -12 20 -14z m575 14 c3 -5 1 -10 -4 -10 -6 0 -11 5 -11 10 0 6 2 10 4
10 3 0 8 -4 11 -10z m225 -21 c0 -26 -3 -30 -22 -27 -13 2 -24 10 -26 18 -2
13 6 19 46 39 1 0 2 -13 2 -30z m-1665 11 c3 -5 1 -10 -4 -10 -6 0 -11 5 -11
10 0 6 2 10 4 10 3 0 8 -4 11 -10z m-565 -10 c0 -5 -8 -10 -18 -10 -10 0 -23
-5 -29 -11 -6 -6 -21 -8 -33 -4 -12 4 -19 9 -16 12 5 5 49 16 89 22 4 0 7 -3
7 -9z m1750 -6 c117 -20 228 -69 260 -114 15 -21 25 -52 28 -84 4 -49 2 -54
-32 -87 -32 -31 -48 -38 -133 -54 -128 -24 -242 -15 -367 27 -141 47 -178 70
-214 129 -43 71 -25 138 42 164 43 16 47 16 71 1 14 -9 25 -25 25 -35 0 -11 3
-26 6 -35 5 -12 0 -16 -20 -16 -14 0 -26 -4 -26 -10 0 -5 8 -10 18 -10 9 0 36
-9 60 -20 31 -14 42 -25 43 -42 0 -13 3 -17 6 -10 6 15 123 17 123 2 0 -5 -6
-10 -12 -10 -7 0 -35 -12 -63 -25 -58 -29 -77 -31 -69 -10 4 8 2 15 -4 15 -10
0 -22 -23 -22 -41 0 -11 43 -12 56 -1 5 5 44 23 87 40 l77 32 123 -29 c67 -16
125 -26 130 -22 10 10 -25 46 -74 76 -46 30 -48 38 -13 53 38 18 22 29 -41 29
-51 0 -60 4 -106 43 -46 38 -54 42 -72 31 -16 -10 -21 -10 -28 1 -22 34 2 36
141 12z m-1530 -4 c0 -5 -4 -10 -10 -10 -5 0 -10 5 -10 10 0 6 5 10 10 10 6 0
10 -4 10 -10z m2512 -2 c16 16 91 16 86 0 -3 -8 -27 -14 -61 -16 -49 -3 -57
-1 -57 15 0 15 2 16 10 3 7 -12 12 -12 22 -2z m-1232 -26 c0 -10 -5 -23 -12
-30 -6 -6 -9 -15 -5 -19 4 -3 14 2 21 13 8 10 18 16 22 12 4 -4 1 -14 -6 -23
-16 -19 -6 -32 13 -17 21 18 64 22 64 6 0 -7 -3 -11 -6 -9 -4 2 -15 -3 -25
-11 -16 -11 -17 -16 -6 -29 7 -8 9 -19 5 -23 -4 -4 -10 -1 -12 6 -3 6 -12 12
-22 12 -9 0 -29 13 -44 28 -39 41 -36 97 6 101 4 1 7 -7 7 -17z m-693 -11 c16
-26 8 -31 -51 -31 l-51 1 30 24 c36 30 56 31 72 6z m858 -2 c4 -5 19 -15 33
-22 26 -11 25 -12 -22 -15 -56 -4 -61 -1 -46 27 12 23 25 27 35 10z m1068 -6
c61 -4 87 -10 87 -19 0 -7 -3 -15 -7 -17 -5 -2 -181 -2 -393 2 -348 5 -387 8
-410 24 -24 17 -14 18 305 17 182 -1 369 -4 418 -7z m-1920 -65 c-10 -11 -33
-26 -52 -34 -30 -13 -39 -12 -78 2 -40 15 -43 19 -29 32 14 15 149 33 169 24
5 -2 0 -13 -10 -24z m-186 6 c-3 -3 -12 -4 -19 -1 -8 3 -5 6 6 6 11 1 17 -2
13 -5z m1146 -13 c7 -7 -3 -16 -38 -31 -26 -11 -50 -18 -53 -15 -3 2 -6 19 -7
36 l-3 31 45 -5 c25 -2 50 -10 56 -16z m54 13 c-3 -3 -12 -4 -19 -1 -8 3 -5 6
6 6 11 1 17 -2 13 -5z m-185 -29 c0 -5 -5 -11 -11 -13 -6 -2 -11 4 -11 13 0 9
5 15 11 13 6 -2 11 -8 11 -13z m-989 -21 l32 -17 -40 -12 c-22 -7 -62 -22 -88
-34 -27 -11 -47 -16 -45 -11 3 9 97 88 106 89 2 1 17 -6 35 -15z m1193 -15
c25 -17 43 -33 41 -35 -5 -5 -139 16 -147 23 -5 5 41 42 53 43 5 0 29 -14 53
-31z m-914 -46 c27 -24 22 -33 -12 -22 -30 11 -36 20 -23 32 9 10 15 9 35 -10z"/>
<g>
<path d="M1368 3688 l-24 -63 -75 3 -74 2 57 -52 56 -53 -18 -50 c-20 -53 -25
-105 -12 -105 5 0 34 18 65 40 30 22 58 40 62 40 3 0 28 -18 56 -40 44 -35 69
-48 69 -37 0 2 -9 30 -20 63 -11 32 -20 66 -20 74 0 8 20 31 44 50 24 19 42
38 39 43 -2 4 -26 7 -53 7 -56 0 -80 7 -80 24 0 25 -31 116 -40 116 -4 0 -19
-28 -32 -62z m48 -36 c6 -30 4 -32 -20 -32 -30 0 -30 2 -14 47 14 37 25 33 34
-15z m-103 -52 c21 0 23 -28 1 -37 -10 -4 -26 5 -42 22 l-27 28 25 -7 c14 -3
33 -6 43 -6z m103 -6 c26 -7 48 -62 32 -81 -26 -31 -47 -34 -78 -11 -31 23
-37 46 -20 79 11 19 29 23 66 13z m104 -17 c0 -7 -9 -18 -20 -24 -16 -11 -21
-10 -30 6 -15 28 -13 31 20 31 17 0 30 -5 30 -13z m-140 -109 c0 -7 -74 -68
-84 -68 -11 0 -6 24 14 68 l20 43 24 -18 c14 -10 26 -21 26 -25z m98 5 c27
-74 26 -75 -23 -36 -32 25 -33 29 -18 45 22 24 29 23 41 -9z"/>
</g>
<g>
<path d="M1475 3000 c3 -5 10 -10 16 -10 5 0 9 5 9 10 0 6 -7 10 -16 10 -8 0
-12 -4 -9 -10z"/>
</g>
<g>
<path d="M1328 2988 c9 -9 15 -9 24 0 9 9 7 12 -12 12 -19 0 -21 -3 -12 -12z"/>
</g>
<g>
<path d="M1419 2559 l-24 -81 -67 6 c-37 3 -69 2 -72 -2 -3 -5 20 -27 50 -51
30 -23 54 -45 54 -49 0 -4 -9 -31 -20 -60 -22 -57 -26 -92 -10 -92 10 0 59 28
70 40 3 3 19 15 37 27 l32 23 61 -41 c77 -51 97 -47 69 12 -12 23 -23 56 -26
74 -5 28 -1 35 37 63 24 17 48 33 54 35 25 9 -6 17 -75 20 l-73 2 -29 78 c-16
42 -33 77 -37 77 -4 0 -18 -36 -31 -81z m46 -15 c22 -53 19 -64 -15 -64 -16 0
-30 3 -30 6 0 12 23 94 26 94 2 0 11 -16 19 -36z m-104 -84 c27 0 29 -2 19
-20 -13 -25 -28 -25 -57 -1 -27 22 -30 36 -7 27 9 -3 29 -6 45 -6z m243 1 c5
-8 -15 -30 -41 -45 -14 -8 -37 29 -28 44 8 12 62 13 69 1z m-97 -13 c20 -29
15 -65 -14 -85 -31 -22 -46 -20 -81 12 -20 18 -23 28 -17 54 6 29 9 31 55 31
26 0 52 -6 57 -12z m-67 -116 c0 -7 -51 -50 -79 -66 -10 -7 -12 -2 -6 25 4 19
11 44 16 57 8 22 10 22 39 7 16 -9 30 -19 30 -23z m119 -2 c35 -67 27 -77 -28
-32 -31 26 -32 30 -20 50 19 30 24 28 48 -18z"/>
</g>
<g>
<path d="M2457 1623 c-13 -12 -7 -43 8 -43 9 0 15 9 15 25 0 24 -10 32 -23 18z"/>
</g>
<g>
<path d="M2460 1380 c0 -5 7 -10 16 -10 8 0 12 5 9 10 -3 6 -10 10 -16 10 -5
0 -9 -4 -9 -10z"/>
</g>
<g>
<path d="M2455 1310 c-3 -6 1 -13 10 -16 19 -8 30 0 20 15 -8 14 -22 14 -30 1z"/>
</g>
<g>
<path d="M2460 1245 c0 -8 5 -15 10 -15 6 0 10 7 10 15 0 8 -4 15 -10 15 -5 0
-10 -7 -10 -15z"/>
</g>
<g>
<path d="M2650 1410 c0 -5 8 -10 18 -10 14 0 15 -2 2 -10 -12 -8 -11 -10 5
-10 14 0 21 6 21 20 0 14 -7 20 -23 20 -13 0 -23 -4 -23 -10z"/>
</g>
<g>
<path d="M2650 1340 c0 -5 5 -10 10 -10 6 0 10 5 10 10 0 6 -4 10 -10 10 -5 0
-10 -4 -10 -10z"/>
</g>
<g>
<path d="M2670 1260 c0 -5 5 -10 10 -10 6 0 10 5 10 10 0 6 -4 10 -10 10 -5 0
-10 -4 -10 -10z"/>
</g>
<g>
<path d="M2535 1140 c-7 -12 2 -30 16 -30 5 0 9 9 9 20 0 21 -15 27 -25 10z"/>
</g>
<g>
<path d="M2602 1134 c4 -21 22 -23 26 -1 2 10 -3 17 -13 17 -10 0 -15 -6 -13
-16z"/>
</g>
<g>
<path d="M2647 1103 c-13 -12 -7 -33 8 -33 8 0 15 9 15 20 0 20 -11 26 -23 13z"/>
</g>
<g>
<path d="M430 1490 c0 -5 5 -10 10 -10 6 0 10 5 10 10 0 6 -4 10 -10 10 -5 0
-10 -4 -10 -10z"/>
</g>
<g>
<path d="M2767 1204 c-8 -8 1 -24 14 -24 5 0 9 7 9 15 0 15 -12 20 -23 9z"/>
</g>
<g>
<path d="M2873 1106 c-10 -11 -9 -15 3 -20 26 -10 34 -7 34 14 0 23 -19 26
-37 6z"/>
</g>
<g>
<path d="M660 1140 c0 -5 5 -10 10 -10 6 0 10 5 10 10 0 6 -4 10 -10 10 -5 0
-10 -4 -10 -10z"/>
</g>
<g>
<path d="M380 1095 c0 -8 5 -15 10 -15 6 0 10 7 10 15 0 8 -4 15 -10 15 -5 0
-10 -7 -10 -15z"/>
</g>
<g>
<path d="M420 1090 c0 -5 5 -10 10 -10 6 0 10 5 10 10 0 6 -4 10 -10 10 -5 0
-10 -4 -10 -10z"/>
</g>
<g>
<path d="M1180 905 c-18 -21 -3 -32 16 -13 10 9 12 18 6 22 -5 3 -15 -1 -22
-9z"/>
</g>
<g>
<path d="M1065 740 c3 -5 11 -10 16 -10 6 0 7 5 4 10 -3 6 -11 10 -16 10 -6 0
-7 -4 -4 -10z"/>
</g>
<g>
<path d="M1025 700 c-3 -5 1 -10 10 -10 9 0 13 5 10 10 -3 6 -8 10 -10 10 -2
0 -7 -4 -10 -10z"/>
</g>
</g>
<g>
<path d="M1280 5160 c0 -6 26 -10 59 -10 33 0 62 -4 65 -8 2 -4 2 -36 -1 -70
l-6 -62 -44 0 c-27 0 -42 -4 -38 -10 4 -6 80 -10 196 -10 119 0 189 4 189 10
0 9 -7 11 -52 14 -27 2 -30 12 -17 58 12 42 35 78 48 76 24 -3 51 4 51 12 0 6
-82 10 -225 10 -143 0 -225 -4 -225 -10z m226 -18 c9 -6 54 -112 54 -127 0 -3
-22 -5 -49 -5 l-48 0 -6 62 c-3 34 -3 66 -1 70 6 10 35 10 50 0z m109 -24
c-13 -60 -22 -65 -39 -24 -22 52 -21 56 15 56 29 0 30 -1 24 -32z"/>
</g>
<g>
<path d="M2992 2160 c0 -14 2 -19 5 -12 2 6 2 18 0 25 -3 6 -5 1 -5 -13z"/>
</g>
<g>
<path d="M2465 1827 c-4 -10 -5 -21 -1 -24 10 -10 18 4 13 24 -4 17 -4 17 -12
0z"/>
</g>
<g>
<path d="M20 1470 c0 -5 5 -10 10 -10 6 0 10 5 10 10 0 6 -4 10 -10 10 -5 0
-10 -4 -10 -10z"/>
</g>
<g>
<path d="M2 1420 c0 -19 2 -27 5 -17 2 9 2 25 0 35 -3 9 -5 1 -5 -18z"/>
</g>
<g>
<path d="M10 1350 c0 -5 7 -10 15 -10 8 0 15 5 15 10 0 6 -7 10 -15 10 -8 0
-15 -4 -15 -10z"/>
</g>
<g>
<path d="M120 1090 c0 -5 5 -10 10 -10 6 0 10 5 10 10 0 6 -4 10 -10 10 -5 0
-10 -4 -10 -10z"/>
</g>
<g>
<path d="M2783 590 c-15 -6 -23 -18 -23 -34 0 -21 -6 -26 -37 -32 -48 -8 -53
-12 -47 -28 3 -8 21 -17 40 -20 45 -9 44 -26 -1 -26 -23 0 -38 -6 -42 -16 -7
-20 13 -34 49 -34 15 0 30 -4 33 -10 3 -6 -4 -10 -17 -10 -40 0 -52 -14 -37
-41 l14 -24 3 23 c2 14 10 22 23 22 17 0 19 -7 19 -60 0 -33 4 -60 10 -60 6 0
10 27 10 60 l0 60 71 0 c74 0 109 11 109 35 0 15 -38 21 -101 16 -14 -1 -36 3
-50 8 -21 8 -17 10 24 10 59 1 54 20 -6 23 l-42 1 48 6 c62 8 65 25 5 29 -27
2 -48 6 -48 10 0 4 20 6 45 4 58 -5 59 14 3 26 -39 9 -40 10 -12 11 33 1 48
19 38 46 -7 17 -46 19 -81 5z m-30 -167 c-7 -2 -21 -2 -30 0 -10 3 -4 5 12 5
17 0 24 -2 18 -5z m147 -37 c8 -2 -13 -4 -47 -5 -35 0 -63 2 -63 7 0 7 76 5
110 -2z"/>
</g>
<g>
<path d="M2822 323 c2 -10 10 -18 18 -18 8 0 16 8 18 18 2 12 -3 17 -18 17
-15 0 -20 -5 -18 -17z"/>
</g>
<g>
<path d="M2760 196 c0 -9 5 -16 10 -16 6 0 10 4 10 9 0 6 -4 13 -10 16 -5 3
-10 -1 -10 -9z"/>
</g>
</g>
</svg>
