<?xml version="1.0" standalone="no"?>
<!DOCTYPE svg PUBLIC "-//W3C//DTD SVG 20010904//EN"
 "http://www.w3.org/TR/2001/REC-SVG-20010904/DTD/svg10.dtd">
<svg version="1.0" xmlns="http://www.w3.org/2000/svg"
 width="300.000000pt" height="527.000000pt" viewBox="0 0 300.000000 527.000000"
 preserveAspectRatio="xMidYMid meet">
<metadata>
Created by potrace 1.15, written by Peter Selinger 2001-2017
</metadata>
<g transform="translate(0.000000,527.000000) scale(0.100000,-0.100000)"
fill="#000000" stroke="none">
<g>
<path d="M0 3318 c0 -1073 2 -1949 4 -1947 2 2 7 861 10 1909 3 1048 8 1920
12 1938 l7 34 686 -2 c377 -1 803 -1 946 0 143 1 433 2 645 1 212 -1 400 1
417 5 18 3 84 3 148 -1 l115 -7 3 -341 2 -342 3 353 2 352 -1500 0 -1500 0 0
-1952z"/>
</g>
<g>
<path d="M1413 5173 l47 -4 0 -55 c0 -47 -3 -54 -19 -54 -11 0 -23 -4 -26 -10
-4 -7 44 -10 137 -9 79 0 136 3 128 6 -8 2 -21 6 -28 8 -9 3 -5 20 15 59 24
49 30 55 62 59 29 3 26 4 -14 5 -45 2 -51 0 -52 -19 -2 -23 -29 -69 -41 -69
-4 0 -18 16 -31 36 -21 30 -22 37 -10 45 9 5 -29 8 -101 7 -63 -1 -94 -3 -67
-5z m117 -10 c0 -5 16 -26 35 -48 19 -22 35 -43 35 -47 0 -5 -25 -8 -55 -8
l-55 0 0 55 c0 48 2 55 20 55 11 0 20 -3 20 -7z"/>
</g>
<g>
<path d="M1608 5173 c6 -2 18 -2 25 0 6 3 1 5 -13 5 -14 0 -19 -2 -12 -5z"/>
</g>
<g>
<path d="M413 4913 c-16 -6 -17 -65 -3 -79 16 -16 0 -44 -25 -44 -13 0 -33 -9
-46 -20 -21 -17 -22 -21 -9 -30 8 -5 30 -9 49 -7 47 3 52 -30 11 -72 l-30 -29
3 -131 c2 -129 -6 -159 -28 -108 -11 24 -38 26 -87 6 -21 -9 -28 -18 -28 -38
0 -16 12 -40 28 -58 23 -26 32 -29 66 -25 34 4 38 2 33 -13 -4 -9 -7 -23 -7
-30 0 -8 -16 -17 -37 -21 -95 -17 -117 -56 -64 -116 15 -18 31 -50 35 -70 6
-33 3 -41 -24 -69 -35 -38 -38 -54 -9 -69 14 -8 18 -17 13 -28 -4 -9 -8 -28
-10 -42 -2 -14 -6 -36 -10 -50 -5 -20 -2 -18 16 10 12 19 29 39 36 43 18 11
18 61 -1 77 -12 10 -11 17 12 46 21 29 25 42 21 82 -3 29 -14 61 -28 79 -25
35 -20 53 16 53 14 0 34 5 45 10 19 11 19 1 21 -527 2 -296 2 -576 0 -623 -1
-47 -3 -366 -4 -710 -3 -607 -4 -625 -22 -622 -10 2 -23 -2 -27 -10 -5 -7 -7
4 -4 27 3 24 2 32 -3 20 -4 -11 -20 -38 -36 -59 -28 -36 -30 -43 -31 -139 -1
-87 -5 -110 -27 -157 -30 -63 -88 -120 -122 -120 -13 0 -37 -3 -54 -6 l-31 -6
-4 58 c-2 33 -3 3 -3 -66 -1 -79 1 -105 5 -70 l6 55 68 17 c45 10 74 23 83 37
9 12 21 21 27 21 19 0 56 118 67 209 5 46 12 86 15 90 10 9 25 -22 26 -54 l1
-30 11 26 c7 18 18 27 33 27 29 0 34 -32 33 -265 0 -169 -1 -184 -19 -193 -37
-20 -43 -13 -37 40 6 50 6 50 -22 50 -16 0 -34 -6 -40 -14 -9 -11 -6 -12 16
-8 l28 5 -27 -26 c-18 -17 -34 -23 -48 -20 -26 7 -25 -1 2 -27 l23 -21 -45 7
c-25 4 -49 13 -53 20 -4 8 -13 14 -18 14 -11 0 -39 -25 -39 -35 0 -10 -28 -35
-39 -35 -21 0 -21 -20 1 -39 l22 -21 -24 -25 c-13 -14 -21 -28 -17 -31 8 -8
-11 -44 -23 -44 -5 0 -11 37 -13 83 -1 45 -4 -155 -5 -445 l-2 -528 1500 0
1500 0 0 620 c-1 383 -5 622 -10 625 -6 4 -10 13 -10 21 0 8 5 12 10 9 6 -4
10 8 10 29 0 19 -6 37 -12 39 -10 4 -10 6 0 6 9 1 11 63 10 284 -2 260 -3 266
-5 75 -2 -115 -7 -208 -11 -208 -4 0 -14 6 -21 12 -10 11 -14 10 -22 -4 -13
-23 -27 -23 -51 -1 -17 15 -20 15 -28 3 -6 -8 -10 -23 -10 -32 0 -10 -11 -25
-25 -34 -14 -9 -25 -23 -25 -31 0 -13 -3 -13 -15 -3 -11 9 -19 9 -28 2 -20
-17 -56 -3 -63 25 -4 13 -5 230 -2 482 4 434 3 458 -14 448 -29 -19 -33 1 -5
24 23 17 27 28 27 68 0 56 -5 64 -31 48 -23 -14 -25 -27 -4 -27 8 0 15 -7 15
-15 0 -8 -9 -15 -20 -15 -11 0 -20 -4 -20 -10 0 -5 12 -10 26 -10 14 0 24 -5
22 -11 -2 -6 -7 -10 -12 -9 -5 1 -13 -4 -17 -12 -7 -10 -9 -10 -9 0 0 6 -7 12
-16 12 -12 0 -15 9 -12 43 2 23 -1 43 -7 44 -6 2 -10 -22 -10 -57 0 -33 4 -60
8 -60 5 0 5 -5 1 -11 -8 -14 14 -29 44 -29 12 0 22 -4 22 -10 0 -5 -11 -10
-25 -10 -16 0 -25 -6 -25 -15 0 -11 7 -14 25 -9 19 5 25 2 25 -10 0 -10 -9
-16 -23 -16 -29 0 -37 -7 -30 -26 4 -11 9 -12 19 -3 15 12 38 3 29 -12 -4 -5
-15 -9 -26 -9 -22 0 -24 -11 -7 -28 9 -9 9 -12 0 -12 -7 0 -12 -4 -12 -10 0
-5 9 -10 20 -10 16 0 20 -7 20 -35 0 -30 -3 -35 -24 -35 -14 0 -28 -4 -31 -10
-6 -10 6 -14 38 -11 9 1 17 -4 17 -12 0 -10 -8 -13 -25 -9 -20 3 -25 0 -25
-17 0 -18 4 -20 25 -15 24 6 25 4 25 -35 0 -29 -4 -41 -14 -41 -8 0 -18 5 -21
10 -3 6 1 10 10 10 9 0 15 6 13 13 -3 6 -13 12 -24 12 -15 0 -19 -7 -19 -35 0
-32 2 -35 28 -32 16 2 27 -1 27 -8 0 -7 -8 -10 -19 -7 -21 5 -49 -8 -39 -18 4
-4 18 -8 32 -9 21 -1 26 -6 26 -28 0 -16 -4 -28 -9 -28 -5 0 -11 -10 -13 -22
-2 -15 -13 -24 -36 -30 -24 -7 -32 -13 -28 -24 3 -9 6 -18 6 -20 0 -2 11 -4
25 -4 14 0 25 4 25 10 0 5 7 7 15 4 8 -4 15 -17 15 -31 0 -20 -4 -24 -17 -18
-31 11 -37 10 -41 -7 -3 -14 3 -18 29 -18 37 0 29 -16 -10 -22 -16 -2 -25 -11
-27 -25 -4 -23 6 -28 49 -24 11 2 17 -5 17 -18 0 -14 -6 -21 -20 -21 -11 0
-20 -4 -20 -10 0 -5 9 -10 20 -10 11 0 20 -7 20 -15 0 -9 -9 -15 -25 -15 -14
0 -25 -4 -25 -10 0 -5 11 -12 25 -16 14 -3 25 -11 25 -16 0 -6 -11 -7 -26 -4
-21 6 -25 4 -22 -11 2 -11 12 -18 28 -18 34 0 42 -42 9 -47 -33 -4 -36 -28 -5
-28 15 0 26 -6 26 -13 0 -8 -10 -13 -21 -13 -12 1 -24 -5 -27 -13 -3 -10 2
-13 22 -9 18 4 26 1 26 -8 0 -8 -8 -14 -17 -14 -10 0 -25 -5 -33 -10 -13 -9
-13 -11 0 -19 9 -7 19 -6 27 1 18 15 21 10 24 -47 3 -41 0 -50 -14 -53 -9 -2
-17 -9 -17 -15 0 -7 -3 -22 -6 -34 -5 -18 -1 -22 20 -25 33 -4 35 -22 2 -26
-18 -2 -23 -8 -19 -23 6 -21 18 -25 28 -9 8 13 25 3 25 -16 0 -9 -10 -14 -28
-14 -25 0 -28 -4 -29 -35 -1 -33 1 -35 30 -36 24 -1 26 -3 10 -6 -13 -2 -23
-9 -23 -14 0 -5 10 -9 23 -10 20 -1 19 -2 -6 -11 -30 -11 -28 -28 4 -28 10 0
19 -5 19 -11 0 -6 -7 -9 -15 -5 -19 7 -47 -3 -39 -15 2 -5 0 -18 -6 -29 -10
-18 -8 -20 25 -20 25 0 35 -4 33 -12 -3 -8 -20 -11 -46 -9 -23 1 -42 -1 -42
-6 0 -13 56 -34 74 -27 10 4 16 1 16 -9 0 -18 -30 -30 -53 -22 -8 4 -18 2 -22
-4 -3 -6 -2 -11 3 -11 15 0 11 -54 -5 -65 -12 -9 -18 -58 -14 -120 2 -20 2
-20 16 -1 8 11 15 35 15 54 0 27 3 32 13 24 7 -6 23 -9 35 -5 12 3 22 1 22 -5
0 -6 -10 -12 -22 -14 -35 -5 -33 -26 4 -30 l33 -4 -28 -12 c-31 -13 -27 -37 5
-26 17 5 19 2 16 -23 -2 -23 -8 -29 -34 -31 -29 -3 -31 -1 -27 22 3 15 1 26
-5 26 -15 0 -31 -31 -25 -47 5 -14 -23 -18 -31 -4 -4 6 -6 86 -5 236 0 119 1
232 0 240 -3 45 -15 553 -16 638 0 59 -3 107 -6 107 -4 0 -6 11 -6 25 0 14 4
25 9 25 7 0 7 5 1 12 -13 18 -17 92 -5 84 6 -3 13 -2 17 4 3 5 15 10 26 10 12
0 19 5 16 13 -2 6 3 17 11 23 14 10 13 13 -5 22 -18 10 -24 6 -47 -26 l-27
-37 4 105 c3 58 8 121 12 140 3 19 6 40 5 45 -2 12 -9 527 -10 690 0 66 3 181
7 255 3 74 6 149 5 165 -8 147 -8 336 -1 341 6 3 5 11 -2 20 -16 19 -4 44 21
44 18 0 20 -4 14 -40 -4 -27 -3 -40 5 -40 6 0 11 4 11 9 0 5 9 7 21 4 19 -5
17 -8 -15 -35 -43 -35 -46 -50 -9 -46 34 4 47 -30 14 -39 -21 -5 -29 -23 -11
-23 6 0 8 -15 4 -40 -5 -33 -4 -40 10 -40 12 0 16 10 17 38 0 20 3 31 6 24 9
-22 23 -2 23 33 0 37 21 52 40 29 7 -8 16 -14 21 -14 14 0 10 26 -6 40 -8 7
-15 25 -15 40 0 23 5 29 31 34 25 5 30 10 27 28 -2 13 -9 23 -15 23 -14 0 -15
9 -2 42 10 27 3 49 -16 57 -17 6 -57 -47 -53 -70 2 -9 -1 -19 -7 -20 -15 -6
-20 213 -5 231 17 21 38 19 45 -5 8 -25 41 -26 53 -2 5 9 5 35 0 60 -8 36 -14
44 -39 49 -35 7 -30 19 11 28 37 8 40 36 7 62 -13 10 -22 24 -19 31 6 20 20
14 34 -15 8 -16 23 -29 36 -31 31 -5 38 -27 17 -58 -15 -23 -15 -27 -1 -43 13
-14 15 -31 10 -79 -6 -53 -5 -62 9 -62 10 0 14 5 11 15 -8 20 6 19 22 -2 12
-17 13 -16 14 4 0 12 -5 23 -12 25 -9 3 -9 15 1 50 10 36 10 51 1 68 -10 18
-9 24 1 31 10 6 10 13 1 33 -6 14 -16 26 -21 26 -5 0 -16 12 -26 26 -16 25
-16 27 4 48 l21 23 -21 26 c-11 15 -27 27 -35 27 -8 0 -14 5 -14 10 0 6 5 10
10 10 6 0 10 7 10 16 0 11 -6 14 -21 9 -17 -6 -20 -3 -17 12 2 10 13 19 26 21
12 2 22 8 22 13 0 13 -34 11 -48 -3 -9 -10 -16 -9 -28 4 -15 15 -15 18 5 44
11 14 21 33 21 40 0 17 12 18 28 2 16 -16 15 -38 0 -38 -17 -1 -53 -28 -46
-35 9 -10 70 27 78 49 7 17 9 15 9 -16 1 -39 16 -51 25 -20 8 24 -2 72 -21
101 -13 21 -21 23 -64 19 -27 -3 -53 -8 -56 -12 -4 -4 -10 -28 -13 -54 -8 -73
-25 -55 -28 31 -3 76 -3 77 -30 77 -20 0 -23 3 -13 9 8 5 20 7 28 4 9 -3 13 3
13 20 0 13 7 38 15 53 23 45 19 76 -16 107 -17 15 -35 24 -40 21 -5 -3 -9 2
-9 10 0 9 -4 16 -10 16 -5 0 -10 5 -10 10 0 6 13 10 28 10 33 0 52 16 52 43 0
14 -4 17 -17 12 -10 -5 -33 -13 -50 -19 -18 -6 -33 -14 -33 -17 0 -4 -18 -5
-40 -2 -21 3 -47 3 -56 -1 -16 -6 -15 -8 1 -26 10 -11 25 -20 33 -20 12 0 12
-4 -4 -21 -15 -17 -16 -22 -4 -29 8 -5 25 -7 37 -3 14 3 23 1 23 -6 0 -6 -6
-11 -14 -11 -9 0 -15 -23 -20 -84 -7 -103 -12 -116 -41 -116 -27 0 -37 -12
-55 -68 -13 -40 -12 -44 10 -67 13 -14 29 -25 37 -25 7 0 13 -7 13 -15 0 -18
-12 -19 -27 -4 -8 8 -13 8 -18 -1 -4 -7 5 -15 23 -22 23 -9 29 -18 30 -41 1
-25 -2 -28 -21 -23 -12 3 -32 6 -44 6 -18 0 -23 7 -28 38 -12 72 -16 83 -28
79 -7 -2 -17 -13 -23 -25 -6 -12 -19 -31 -29 -42 -10 -11 -15 -28 -12 -40 4
-16 0 -20 -18 -20 -27 0 -41 -15 -24 -26 9 -5 8 -10 -3 -18 -8 -6 -17 -18 -21
-26 -3 -8 -6 74 -5 182 0 158 3 198 14 202 8 3 14 12 14 20 0 12 -8 14 -32 10
-27 -4 -29 -3 -11 5 20 9 42 66 29 78 -3 4 -17 -4 -31 -17 -23 -22 -25 -22
-31 -4 -3 10 -10 30 -15 43 -9 23 -10 23 -29 6 -22 -20 -27 -74 -8 -93 18 -18
-7 -16 -35 3 -20 13 -25 13 -45 -1 -33 -23 -13 -54 35 -54 l36 0 -20 -22 c-19
-21 -20 -32 -16 -120 4 -85 3 -98 -11 -98 -9 0 -16 6 -16 13 0 8 -8 21 -19 31
-16 15 -20 15 -31 1 -7 -8 -10 -25 -6 -40 3 -14 1 -33 -6 -44 -19 -30 6 -54
49 -46 18 3 33 2 33 -3 0 -12 -34 -42 -48 -42 -7 0 -12 -4 -12 -10 0 -5 14
-10 30 -10 17 0 30 -5 30 -11 0 -8 -11 -9 -31 -5 -17 3 -35 6 -39 6 -4 0 -10
9 -13 20 -7 26 -32 25 -51 -2 -15 -22 -16 -22 -16 -2 0 43 -53 61 -63 22 -4
-15 1 -30 14 -44 14 -15 18 -29 14 -46 -6 -22 -12 -25 -46 -25 -22 0 -42 4
-45 8 -9 16 -25 9 -22 -8 3 -16 -6 -18 -77 -18 -58 0 -88 5 -110 17 -52 31
-122 21 -167 -24 l-22 -22 -6 24 c-3 14 -12 26 -20 26 -44 5 -60 17 -60 45 0
16 -5 29 -11 29 -6 0 -8 -7 -5 -16 10 -26 -5 -37 -21 -15 -18 26 -35 27 -58 1
-10 -11 -29 -20 -43 -20 -22 0 -24 3 -19 34 l5 34 -26 -14 c-32 -17 -58 -18
-68 -3 -3 6 -22 9 -42 7 -26 -3 -42 1 -57 14 -19 19 -19 19 3 25 14 3 22 12
20 22 -3 12 -15 16 -46 16 -43 0 -54 8 -27 19 10 3 15 19 15 46 l0 41 -30 -16
c-24 -12 -30 -22 -30 -47 0 -17 -3 -28 -6 -25 -8 8 -16 106 -14 175 0 30 -4
78 -10 109 -10 47 -10 57 5 73 9 10 14 24 10 29 -8 14 -38 14 -52 0 -8 -8 -13
-7 -19 2 -4 7 -3 14 4 17 15 5 16 59 1 68 -6 3 -18 -1 -27 -10 -14 -13 -14
-21 -4 -49 16 -45 15 -49 -9 -42 -28 9 -64 -22 -48 -42 6 -7 22 -13 35 -13 32
0 30 -9 -12 -58 -32 -38 -35 -45 -25 -72 12 -35 -3 -90 -25 -90 -8 0 -14 3
-14 8 0 4 -11 20 -23 36 l-24 29 -22 -22 c-17 -17 -21 -30 -17 -54 3 -18 3
-25 -1 -17 -3 8 -14 23 -24 33 -12 13 -16 29 -12 47 3 16 0 31 -7 35 -8 5 -1
19 23 44 55 57 57 80 7 114 -36 25 -58 21 -80 -15 l-20 -33 -1 30 c-1 17 -1
64 1 106 1 61 -2 79 -16 93 -19 19 -27 73 -13 82 11 6 12 58 2 67 -3 4 -17 -3
-30 -15 l-23 -21 0 21 c0 11 5 24 10 27 26 16 0 97 -27 88z m-16 -150 c5 -13
-32 -27 -47 -18 -15 10 -12 23 8 28 23 6 35 3 39 -10z m70 -5 c-3 -8 -6 -5 -6
6 -1 11 2 17 5 13 3 -3 4 -12 1 -19z m-7 -28 c0 -5 -7 -10 -16 -10 -8 0 -12 5
-9 10 3 6 10 10 16 10 5 0 9 -4 9 -10z m2115 -53 c7 -7 4 -8 -8 -3 -10 3 -25
6 -33 6 -8 0 -14 5 -14 11 0 12 40 2 55 -14z m-2155 -27 c0 -6 7 -6 19 1 20
13 51 6 51 -11 0 -5 -6 -10 -14 -10 -22 0 -27 -37 -5 -43 11 -3 19 -10 19 -17
0 -7 -8 -9 -20 -5 -11 3 -20 2 -20 -3 0 -5 10 -12 22 -15 22 -6 22 -6 3 -27
-14 -16 -16 -21 -5 -18 11 2 15 -7 15 -37 0 -33 -3 -39 -19 -37 -10 2 -15 -1
-12 -7 4 -5 2 -12 -4 -16 -22 -14 -9 -27 20 -21 25 5 30 2 30 -15 0 -17 -3
-18 -21 -9 -11 7 -28 9 -36 6 -9 -4 -26 4 -41 19 -13 14 -22 26 -18 26 3 1 11
3 16 4 6 1 13 3 16 4 4 0 1 7 -5 15 -9 11 -7 15 11 20 23 6 23 7 4 21 -12 9
-15 15 -7 15 7 0 11 6 8 15 -4 8 -2 17 3 20 5 3 8 16 6 28 -2 16 -9 21 -25 19
-11 -2 -21 2 -21 7 0 6 5 11 11 11 8 0 10 12 6 35 -3 19 -2 35 4 35 5 0 9 -5
9 -10z m2153 -27 c-7 -2 -19 -2 -25 0 -7 3 -2 5 12 5 14 0 19 -2 13 -5z m110
-19 c9 -4 17 -16 17 -30 0 -25 -15 -40 -25 -24 -4 6 -12 4 -22 -6 -14 -13 -14
-17 -2 -26 11 -7 11 -11 1 -15 -30 -12 -44 -37 -39 -69 3 -20 0 -39 -8 -51
-20 -25 -19 -73 0 -73 9 0 18 -7 21 -15 4 -8 10 -12 15 -9 5 3 9 0 9 -5 0 -6
-11 -11 -24 -11 -14 0 -28 -5 -32 -11 -12 -19 -25 6 -31 59 -6 62 2 102 22
102 8 0 15 5 15 10 0 6 -6 10 -14 10 -14 0 -15 10 -7 63 0 4 8 7 17 5 10 -2
19 3 22 11 3 9 -1 11 -17 6 -31 -9 -26 4 7 17 l27 11 -35 6 -35 6 40 28 c22
15 44 25 50 22 5 -3 18 -8 28 -11z m-483 -74 c0 -16 -4 -30 -10 -30 -11 0 -14
43 -3 53 11 12 13 8 13 -23z m-1400 -49 c0 -14 -18 -23 -30 -16 -6 4 -8 11 -5
16 8 12 35 12 35 0z m-224 -13 c4 -7 3 -8 -4 -4 -7 4 -12 2 -12 -5 0 -7 -3
-10 -6 -6 -6 5 3 27 11 27 2 0 7 -5 11 -12z m1554 -9 c0 -5 -7 -9 -15 -9 -15
0 -20 12 -9 23 8 8 24 -1 24 -14z m540 11 c0 -5 -7 -10 -16 -10 -8 0 -12 5 -9
10 3 6 10 10 16 10 5 0 9 -4 9 -10z m-2055 -11 c11 -17 -1 -21 -15 -4 -8 9 -8
15 -2 15 6 0 14 -5 17 -11z m-49 -57 c-18 -16 -18 -16 -6 6 6 13 14 21 18 18
3 -4 -2 -14 -12 -24z m294 13 c7 -8 10 -22 6 -30 -3 -8 -1 -15 4 -15 6 0 10
-4 10 -10 0 -5 -7 -10 -15 -10 -9 0 -22 -15 -30 -32 -13 -32 -13 -33 16 -41
38 -10 28 -27 -15 -27 -32 0 -34 -2 -32 -32 2 -30 4 -33 29 -30 24 3 27 0 27
-27 0 -17 5 -31 10 -31 6 0 10 -4 10 -10 0 -5 -22 -10 -49 -10 l-50 0 -6 43
c-3 23 -5 69 -4 102 1 33 -1 70 -6 82 -5 17 -3 24 11 30 24 9 38 23 47 46 8
21 21 22 37 2z m-240 1 c0 -2 -8 -10 -17 -17 -16 -13 -17 -12 -4 4 13 16 21
21 21 13z m1620 -36 c-30 -8 -34 -6 -26 15 5 13 9 14 28 4 l23 -13 -25 -6z
m-1920 4 c0 -8 -5 -12 -10 -9 -6 4 -8 11 -5 16 9 14 15 11 15 -7z m1863 9 c4
-3 2 -12 -4 -20 -12 -13 -2 -17 46 -14 11 0 14 -2 8 -5 -7 -3 -13 -12 -13 -20
0 -8 -4 -14 -10 -14 -6 0 -6 -9 -1 -22 5 -13 16 -22 25 -20 9 2 16 -4 16 -12
0 -9 -11 -16 -27 -18 -22 -2 -29 -9 -31 -30 -3 -24 0 -28 22 -28 14 0 26 5 26
10 0 6 -4 10 -10 10 -5 0 -10 5 -10 10 0 6 7 10 15 10 23 0 20 -60 -2 -60 -17
-1 -17 -1 0 -14 25 -19 21 -34 -8 -28 -14 2 -25 0 -25 -5 0 -5 11 -15 25 -21
20 -9 25 -19 25 -49 0 -21 2 -73 4 -116 2 -54 -1 -80 -10 -88 -9 -8 -10 -18
-3 -35 5 -14 9 -37 9 -50 0 -21 -4 -24 -20 -19 -24 8 -64 -11 -40 -19 8 -3 24
-6 35 -8 16 -3 21 -12 23 -51 2 -28 -1 -47 -7 -47 -6 0 -11 9 -11 21 0 14 -5
19 -17 17 -10 -2 -18 -11 -18 -21 0 -10 -7 -22 -15 -27 -12 -8 -12 -10 5 -11
11 -1 30 -1 43 0 20 2 22 -2 22 -57 0 -33 -5 -63 -12 -70 -10 -10 -10 -15 1
-22 12 -7 12 -11 2 -24 -7 -8 -10 -24 -6 -36 5 -15 1 -22 -19 -30 -29 -11 -37
-56 -11 -66 18 -7 9 -53 -14 -72 -15 -11 -14 -13 2 -23 10 -6 14 -15 10 -22
-13 -21 -11 -81 4 -95 15 -16 14 -47 -2 -47 -15 -1 -52 -24 -40 -26 55 -8 65
-7 65 7 0 8 4 14 9 14 12 0 12 -338 0 -346 -5 -3 -9 46 -9 111 0 75 -4 114
-10 110 -6 -4 -7 -23 -4 -46 6 -35 4 -39 -15 -39 -28 0 -27 -20 2 -21 l22 -2
-22 -4 c-26 -5 -31 -23 -8 -23 19 0 22 -96 3 -103 -10 -3 -10 -9 0 -26 16 -28
16 -31 -10 -31 -16 0 -19 -3 -11 -11 17 -17 58 -7 57 14 -1 9 2 17 7 17 11 0
12 -77 0 -82 -12 -4 -24 -108 -12 -108 5 0 12 10 14 23 3 16 5 13 6 -10 1 -32
-11 -44 -24 -23 -13 20 -35 10 -35 -16 0 -23 3 -25 25 -20 34 9 32 -3 -3 -15
-20 -7 -28 -16 -27 -33 0 -29 9 -39 35 -43 16 -2 20 5 23 40 3 33 4 28 5 -21
2 -58 1 -61 -17 -51 -25 16 -47 6 -53 -25 -6 -30 -1 -32 30 -10 20 14 22 14
22 0 0 -9 -7 -16 -15 -16 -8 0 -15 -7 -15 -15 0 -9 9 -15 25 -15 14 0 25 -4
25 -10 0 -5 -11 -10 -25 -10 -34 0 -32 -20 3 -21 24 0 25 -1 7 -9 -27 -12 -57
-12 -50 -1 3 5 1 12 -5 16 -6 3 -10 -4 -10 -18 0 -25 21 -37 68 -37 13 0 22
-6 22 -16 0 -10 -6 -13 -18 -9 -25 7 -67 -16 -68 -38 -1 -12 6 -17 22 -17 15
0 24 6 24 15 0 8 4 15 9 15 20 0 -2 -37 -30 -49 -17 -7 -32 -12 -33 -10 -2 2
-6 48 -9 101 -6 89 -5 97 11 92 10 -4 13 -2 7 3 -16 13 -38 67 -28 70 13 5 8
839 -6 906 -9 43 -10 66 -1 91 13 41 10 166 -5 166 -5 0 -4 4 4 9 9 6 10 14 4
27 -6 11 -8 57 -7 104 2 47 5 159 8 250 6 192 9 219 27 231 11 7 10 9 -3 9
-35 0 -36 97 -2 163 15 27 15 29 0 24 -11 -5 -16 -1 -16 13 0 13 7 20 20 20
11 0 20 5 20 10 0 6 -7 10 -15 10 -8 0 -15 6 -15 14 0 8 -6 17 -12 20 -10 5
-10 7 0 12 15 7 16 34 1 34 -8 0 -8 5 1 15 14 16 23 19 33 8z m487 -3 c0 -5
-7 -7 -15 -4 -8 4 -15 8 -15 10 0 2 7 4 15 4 8 0 15 -4 15 -10z m-150 -41 c0
-5 -4 -9 -10 -9 -5 0 -10 7 -10 16 0 8 5 12 10 9 6 -3 10 -10 10 -16z m251 0
c-12 -12 -25 -18 -28 -15 -9 9 18 36 35 36 12 0 11 -5 -7 -21z m75 -7 c-4 -3
-14 2 -24 12 -16 18 -16 18 6 6 13 -6 21 -14 18 -18z m-195 -5 c-13 -13 -26
-3 -16 12 3 6 11 8 17 5 6 -4 6 -10 -1 -17z m-2297 -16 c7 -11 -18 -21 -52
-21 l-27 1 30 14 c37 17 42 17 49 6z m1894 -16 c-3 -3 -9 2 -12 12 -6 14 -5
15 5 6 7 -7 10 -15 7 -18z m-1808 -5 c0 -5 -12 -10 -26 -10 -14 0 -23 4 -19
10 3 6 15 10 26 10 10 0 19 -4 19 -10z m2090 -6 c0 -8 -4 -12 -10 -9 -5 3 -10
10 -10 16 0 5 5 9 10 9 6 0 10 -7 10 -16z m-1860 -55 c0 -17 -4 -28 -10 -24
-5 3 -10 17 -10 31 0 13 5 24 10 24 6 0 10 -14 10 -31z m-246 -25 c3 -9 4 -20
0 -25 -3 -5 9 -9 25 -9 17 0 31 -4 31 -10 0 -5 -9 -10 -20 -10 -11 0 -20 -4
-20 -10 0 -5 9 -10 20 -10 23 0 26 -10 8 -28 -10 -10 -10 -15 -1 -20 6 -4 15
-21 19 -37 7 -29 7 -30 -13 -12 -23 20 -33 22 -33 4 0 -7 14 -23 30 -35 38
-28 37 -50 0 -82 -37 -30 -38 -50 -5 -50 40 0 29 -18 -17 -27 -43 -9 -65 -33
-29 -33 11 0 22 4 25 9 3 5 15 7 26 4 18 -5 20 -14 20 -73 0 -87 -9 -131 -26
-128 -7 2 -13 0 -13 -4 -2 -23 1 -28 16 -28 15 0 15 -1 0 -18 -13 -15 -14 -21
-4 -31 9 -11 9 -14 0 -18 -7 -3 -13 -17 -13 -32 0 -15 -5 -32 -12 -39 -9 -9
-6 -12 15 -12 15 0 27 -4 27 -10 0 -5 -11 -10 -25 -10 -14 0 -25 -4 -25 -10 0
-5 11 -10 25 -10 23 0 25 -3 24 -42 -2 -30 -3 -35 -6 -15 -4 24 -22 39 -24 20
0 -5 -2 -19 -5 -33 -17 -106 -17 -118 7 -122 30 -4 38 -48 9 -48 -11 0 -20 -5
-20 -11 0 -7 10 -9 25 -7 19 4 25 1 25 -13 0 -11 -4 -19 -10 -19 -5 0 -10 -6
-10 -14 0 -8 -6 -21 -14 -28 -16 -17 -3 -58 19 -58 8 0 15 -5 15 -11 0 -7 -10
-9 -25 -7 -35 7 -31 -8 6 -21 32 -11 31 -31 -2 -31 -11 0 -18 -4 -14 -10 3 -5
12 -7 20 -3 9 3 15 -1 15 -11 0 -9 -7 -16 -15 -16 -8 0 -15 -4 -15 -10 0 -5 7
-10 15 -10 9 0 15 -9 15 -22 0 -15 -3 -19 -8 -11 -5 8 -13 9 -22 3 -12 -8 -12
-10 3 -16 12 -4 15 -13 11 -30 -4 -15 -2 -24 5 -24 14 0 14 -23 -1 -38 -9 -9
-14 -7 -24 6 -14 19 -19 17 -28 -13 -8 -27 10 -56 23 -36 7 10 13 11 30 1 25
-13 23 -37 -3 -32 -9 2 -16 -4 -16 -11 0 -8 -8 -18 -18 -22 -16 -6 -16 -8 3
-22 14 -11 16 -17 8 -20 -22 -8 -14 -20 17 -26 17 -4 30 -11 30 -17 0 -6 -10
-8 -25 -4 -15 4 -25 2 -25 -5 0 -6 7 -11 15 -11 8 0 15 -7 15 -15 0 -8 5 -15
11 -15 19 0 3 -24 -20 -30 -28 -6 -28 -25 1 -25 12 0 23 -6 26 -13 2 -7 -5
-12 -17 -12 -12 0 -21 -6 -21 -15 0 -8 7 -15 15 -15 8 0 15 -4 15 -10 0 -5 -9
-10 -20 -10 -11 0 -20 -4 -20 -10 0 -5 11 -10 25 -10 14 0 25 -4 25 -10 0 -5
-9 -10 -20 -10 -27 0 -25 -16 3 -25 21 -7 21 -8 -6 -12 -32 -5 -31 -26 1 -31
14 -2 22 -11 22 -22 0 -16 -5 -19 -32 -13 -22 4 -29 3 -24 -5 4 -7 16 -12 27
-12 31 0 22 -17 -13 -25 l-33 -7 35 -13 35 -13 -28 -3 c-37 -5 -38 -23 -2 -29
16 -3 28 -8 27 -12 -1 -5 -2 -12 -2 -17 0 -4 -12 -6 -26 -3 -35 6 -28 -20 7
-28 l24 -6 -25 -7 c-23 -7 -24 -8 -7 -21 16 -13 16 -14 -4 -19 -13 -3 -18 -10
-14 -17 4 -7 16 -10 26 -7 12 3 19 0 19 -10 0 -9 -8 -13 -20 -11 -10 2 -19 -1
-20 -7 0 -5 8 -11 20 -13 27 -4 27 -42 0 -42 -25 0 -26 -17 -2 -23 14 -4 14
-6 -5 -12 -33 -11 -28 -30 10 -43 31 -10 31 -10 -20 -11 -67 -1 -69 -18 -3
-27 64 -8 70 -34 8 -35 l-43 -1 37 -12 c37 -11 51 -31 21 -31 -9 0 -18 -6 -21
-13 -2 -7 5 -12 17 -12 12 0 21 -4 21 -10 0 -5 -9 -10 -20 -10 -11 0 -20 -4
-20 -10 0 -5 9 -10 20 -10 11 0 20 -4 20 -10 0 -5 -7 -10 -15 -10 -8 0 -15 -4
-15 -10 0 -5 7 -10 15 -10 22 0 18 -18 -5 -25 -26 -8 -26 -25 0 -25 11 0 20
-7 20 -16 0 -8 -5 -12 -10 -9 -17 11 -32 -5 -19 -21 9 -11 9 -14 -1 -14 -20 0
-5 -24 21 -31 24 -7 24 -7 -3 -8 -39 -1 -43 -17 -5 -26 l32 -7 -32 -9 c-36
-10 -42 -23 -17 -33 10 -4 13 -13 9 -26 -5 -16 -2 -20 14 -20 26 0 28 -16 3
-22 -14 -4 -18 -14 -17 -37 1 -20 -3 -31 -12 -31 -11 0 -11 -4 -1 -20 8 -12
19 -18 30 -14 12 3 18 0 18 -10 0 -9 -7 -16 -17 -16 -14 0 -14 -2 3 -21 17
-18 17 -21 2 -18 -26 6 -22 -15 4 -23 22 -6 21 -6 -4 -7 -35 -1 -37 -21 -2
-21 15 0 23 -4 19 -10 -4 -6 -15 -8 -26 -5 -13 4 -19 2 -19 -9 0 -10 9 -16 25
-16 16 0 25 -6 25 -15 0 -10 -10 -15 -31 -15 -27 0 -30 -2 -19 -15 10 -12 10
-19 2 -27 -16 -16 -15 -28 3 -28 8 0 15 -7 15 -16 0 -11 -6 -13 -19 -9 -25 8
-46 -26 -28 -44 6 -6 11 -23 12 -39 0 -16 6 -28 15 -28 8 -1 20 -3 25 -4 6 -1
13 -2 17 -1 5 0 8 -6 8 -14 0 -8 -7 -15 -15 -15 -8 0 -15 -4 -15 -10 0 -5 7
-10 16 -10 24 0 11 -24 -17 -30 -13 -3 -24 -10 -25 -15 0 -6 -4 -18 -9 -28
-10 -23 -2 -30 35 -29 l30 1 0 -60 c0 -56 -1 -59 -25 -59 -14 0 -25 -5 -25
-10 0 -6 11 -8 25 -4 23 6 25 3 25 -25 0 -28 -3 -31 -31 -31 -19 0 -28 -4 -23
-11 3 -6 17 -8 30 -5 20 5 24 3 24 -17 0 -13 -5 -28 -12 -35 -9 -9 -9 -12 0
-12 7 0 12 -9 12 -20 0 -28 -17 -25 -24 5 -8 33 -34 33 -31 0 3 -19 -1 -25
-16 -25 -10 0 -19 3 -20 8 -6 71 -11 265 -14 607 -2 231 -7 466 -10 522 -5 77
-3 103 6 103 9 0 9 3 -1 14 -8 10 -11 50 -9 124 1 59 0 113 -3 118 -3 5 -4
245 -2 534 2 289 4 761 3 1048 0 366 3 528 11 537 8 9 8 15 0 20 -16 10 -10
235 6 235 6 0 15 -7 18 -16z m316 -12 c0 -13 -12 -22 -22 -16 -10 6 -1 24 13
24 5 0 9 -4 9 -8z m-400 -11 c0 -11 -25 -21 -50 -21 -9 0 -23 -7 -30 -15 -11
-13 -10 -20 8 -43 30 -37 44 -72 37 -91 -5 -11 -11 -5 -20 22 -7 22 -23 49
-34 61 -12 12 -21 34 -21 49 0 21 6 28 33 36 42 12 77 13 77 2z m2073 -23 c2
-18 1 -34 -4 -36 -15 -6 -10 -20 9 -26 10 -3 6 -4 -8 -3 -30 2 -40 14 -40 45
0 22 18 51 31 52 4 0 9 -15 12 -32z m187 13 c0 -12 -20 -25 -27 -18 -7 7 6 27
18 27 5 0 9 -4 9 -9z m-1900 -23 c0 -13 -32 -6 -37 9 -3 7 3 9 16 6 12 -3 21
-10 21 -15z m260 6 c0 -8 -5 -12 -10 -9 -6 4 -8 11 -5 16 9 14 15 11 15 -7z
m-404 -129 c14 -31 15 -40 4 -60 -12 -21 -11 -28 5 -45 10 -11 26 -20 36 -20
12 0 16 -5 13 -15 -4 -8 -1 -15 5 -15 6 0 11 -6 11 -14 0 -24 20 -29 36 -10
14 18 15 17 11 -15 l-4 -33 39 5 c28 4 38 1 38 -8 0 -8 -5 -17 -11 -20 -6 -5
-4 -12 7 -20 21 -15 27 -172 40 -1054 6 -447 5 -523 -7 -519 -8 2 -18 21 -23
41 -12 45 -22 47 -31 6 -4 -17 -27 -55 -51 -85 -41 -50 -45 -61 -48 -117 -5
-79 -5 -80 -21 -32 l-13 40 -1 -33 c-1 -22 -12 -44 -36 -70 l-34 -37 -1 475
c0 261 -4 585 -8 720 -8 267 -8 439 -1 802 3 199 6 232 16 203 6 -19 19 -50
29 -70z m1524 95 c0 -5 -4 -10 -10 -10 -5 0 -10 5 -10 10 0 6 5 10 10 10 6 0
10 -4 10 -10z m748 -12 c7 -7 12 -16 12 -22 0 -6 -5 -5 -12 2 -7 7 -23 12 -36
12 -13 0 -20 4 -17 10 8 14 38 13 53 -2z m-1828 -18 c0 -5 -4 -10 -10 -10 -5
0 -10 5 -10 10 0 6 5 10 10 10 6 0 10 -4 10 -10z m1353 -7 c-7 -2 -19 -2 -25
0 -7 3 -2 5 12 5 14 0 19 -2 13 -5z m147 -3 c0 -5 -9 -10 -20 -10 -11 0 -20 5
-20 10 0 6 9 10 20 10 11 0 20 -4 20 -10z m-1926 -16 c3 -8 2 -12 -4 -9 -6 3
-10 10 -10 16 0 14 7 11 14 -7z m310 -11 c4 -9 4 -18 1 -21 -3 -3 -5 0 -5 6 0
7 -7 12 -16 12 -11 0 -14 -6 -8 -22 3 -13 11 -24 15 -26 5 -2 9 -14 9 -28 0
-17 -4 -22 -15 -18 -10 4 -15 0 -15 -11 0 -11 5 -15 15 -11 11 4 15 -1 15 -19
0 -20 -5 -25 -25 -25 -20 0 -27 -6 -31 -30 -4 -16 -9 -30 -13 -30 -14 0 -11
-179 3 -251 9 -41 16 -104 16 -141 0 -37 5 -70 11 -73 7 -5 8 -41 3 -111 l-7
-104 32 0 c21 0 31 -5 31 -15 0 -9 -9 -15 -25 -15 -14 0 -25 -4 -25 -10 0 -5
11 -10 25 -10 32 0 34 -31 3 -53 l-23 -16 23 0 c31 -1 29 -31 -3 -31 -14 0
-25 -4 -25 -10 0 -5 11 -12 25 -16 21 -5 25 -12 25 -46 0 -23 -4 -37 -10 -33
-5 3 -10 -1 -10 -10 0 -9 5 -13 10 -10 5 3 10 -1 10 -10 0 -9 -6 -15 -14 -13
-16 3 -16 3 -16 -43 0 -27 2 -30 15 -19 13 10 15 9 15 -9 0 -13 -7 -29 -15
-38 -14 -14 -14 -17 2 -29 17 -12 16 -13 -7 -14 l-25 -1 23 -18 c26 -23 28
-33 6 -29 -10 2 -19 -3 -21 -9 -3 -8 5 -13 19 -14 22 -1 22 -2 -4 -12 -23 -9
-28 -17 -28 -44 0 -26 5 -34 25 -39 28 -7 33 -29 10 -38 -18 -6 -15 -44 4 -56
10 -6 9 -10 -5 -18 -18 -11 -18 -11 1 -26 20 -16 20 -16 -2 -22 -27 -7 -31
-33 -5 -35 16 -1 16 -2 0 -6 -10 -2 -18 -11 -18 -19 0 -8 8 -15 18 -15 16 -1
16 -2 0 -6 -19 -5 -25 -33 -8 -33 6 0 -3 -14 -20 -30 -27 -26 -31 -37 -28 -73
3 -42 3 -42 41 -41 40 1 47 -11 20 -32 -17 -13 -17 -15 0 -25 23 -13 22 -32
-2 -24 -13 4 -20 0 -24 -15 -4 -16 0 -20 19 -20 15 0 24 -6 24 -15 0 -9 -7
-15 -16 -13 -25 4 -29 -22 -5 -29 27 -7 27 -33 0 -40 -21 -6 -21 -7 -4 -19 16
-12 16 -16 4 -30 -11 -13 -11 -18 -1 -21 17 -6 15 -23 -3 -23 -20 0 -19 -19 1
-27 15 -5 15 -7 0 -15 -20 -11 -21 -28 -1 -28 8 0 15 -4 15 -10 0 -5 -9 -10
-20 -10 -11 0 -20 -7 -20 -15 0 -8 9 -15 20 -15 27 0 25 -16 -2 -25 l-23 -8
23 -4 c25 -5 30 -23 7 -23 -21 0 -19 -26 3 -35 16 -6 16 -7 0 -16 -22 -12 -23
-29 -3 -29 8 0 15 -4 15 -10 0 -5 -7 -10 -15 -10 -8 0 -15 -7 -15 -15 0 -8 7
-15 15 -15 23 0 18 -28 -5 -32 -26 -4 -26 -23 0 -22 11 0 20 -5 20 -13 0 -7
-9 -13 -20 -13 -11 0 -20 -5 -20 -11 0 -6 9 -13 20 -16 11 -3 20 -9 20 -13 0
-4 -9 -10 -20 -13 -27 -7 -25 -27 3 -28 l22 -2 -22 -4 c-28 -5 -30 -33 -3 -33
23 0 27 -18 5 -26 -19 -8 -19 -24 0 -24 8 0 15 -4 15 -10 0 -5 -6 -10 -14 -10
-8 0 -13 -10 -13 -25 0 -15 5 -25 13 -25 8 0 14 -4 14 -10 0 -5 -9 -10 -20
-10 -26 0 -26 -20 0 -27 23 -6 27 -23 5 -23 -22 0 -18 -21 5 -27 11 -3 20 -10
20 -15 0 -5 -9 -7 -19 -3 -26 8 -36 -11 -14 -24 10 -6 12 -11 6 -11 -18 0 -16
-20 2 -20 25 0 17 -30 -7 -31 l-23 0 23 -16 c27 -19 28 -33 2 -33 -11 0 -20
-5 -20 -11 0 -6 9 -13 20 -16 27 -7 25 -31 -2 -36 l-23 -4 23 -8 c27 -9 28
-21 2 -28 -11 -3 -20 -10 -20 -16 0 -6 9 -11 20 -11 11 0 20 -4 20 -10 0 -5
-9 -10 -21 -10 -16 0 -19 -4 -14 -20 4 -12 2 -20 -6 -20 -9 0 -10 -32 -6 -127
3 -71 9 -136 12 -145 5 -13 2 -18 -9 -18 -12 0 -16 -10 -16 -45 0 -46 -14 -60
-25 -25 -3 10 -6 45 -6 77 0 32 -3 95 -6 141 -2 46 -2 91 2 100 6 15 13 200
15 387 0 33 -1 302 -3 597 -2 378 0 539 7 542 7 3 5 9 -4 16 -10 8 -11 13 -4
16 8 3 9 18 5 42 -3 20 -6 259 -6 529 0 280 -4 493 -9 493 -5 0 -6 56 -3 128
2 70 0 168 -5 217 -12 103 -12 116 -10 247 2 91 3 96 22 91 14 -4 20 0 20 11
0 9 -8 16 -20 16 -11 0 -20 6 -20 13 0 9 10 12 30 9 21 -3 32 1 36 11 7 18 30
12 38 -10z m1904 15 c-3 -7 -11 -13 -18 -13 -7 0 -15 6 -17 13 -3 7 4 12 17
12 13 0 20 -5 18 -12z m-2095 -23 c4 -8 2 -17 -3 -20 -6 -4 -10 3 -10 14 0 25
6 27 13 6z m1252 6 c3 -5 1 -12 -5 -16 -5 -3 -10 1 -10 9 0 18 6 21 15 7z
m605 -71 c0 -46 -3 -60 -15 -60 -8 0 -19 -8 -24 -19 -8 -14 -5 -23 14 -41 34
-32 31 -45 -10 -64 -34 -16 -35 -18 -28 -59 l6 -42 -27 33 c-16 18 -26 38 -23
46 3 7 0 19 -6 25 -9 9 -9 14 2 20 17 11 6 31 -16 31 -9 0 -30 10 -47 23 -17
12 -44 28 -60 35 -19 9 -26 16 -19 23 8 8 158 31 181 27 27 -3 42 5 42 22 0
17 20 60 27 60 2 0 3 -27 3 -60z m51 53 c6 -36 5 -104 -2 -108 -9 -6 -3 -117
9 -160 5 -16 7 -43 6 -60 -3 -35 -11 -108 -13 -114 -1 -2 -8 2 -17 9 -13 11
-15 42 -14 199 2 196 6 241 21 241 5 0 10 -3 10 -7z m59 -3 c0 -5 -4 -10 -10
-10 -5 0 -10 5 -10 10 0 6 5 10 10 10 6 0 10 -4 10 -10z m-230 -25 c0 -14 -4
-25 -10 -25 -5 0 -10 11 -10 25 0 14 5 25 10 25 6 0 10 -11 10 -25z m-1680 5
c0 -5 -7 -10 -16 -10 -8 0 -12 5 -9 10 3 6 10 10 16 10 5 0 9 -4 9 -10z m366
-25 c33 -51 -6 -111 -62 -96 -25 6 -29 13 -32 48 -3 37 0 43 25 56 40 21 51
20 69 -8z m978 -6 c5 -5 11 -33 14 -64 l5 -55 -28 10 c-15 6 -35 8 -45 5 -9
-3 -22 1 -29 9 -9 11 -7 15 10 19 26 7 22 37 -6 52 -49 25 -51 29 -20 36 34 7
85 1 99 -12z m576 17 c0 -3 -4 -8 -10 -11 -5 -3 -10 -1 -10 4 0 6 5 11 10 11
6 0 10 -2 10 -4z m-1987 -13 c-7 -2 -19 -2 -25 0 -7 3 -2 5 12 5 14 0 19 -2
13 -5z m613 -20 c-10 -10 -19 5 -10 18 6 11 8 11 12 0 2 -7 1 -15 -2 -18z
m1464 23 c0 -2 3 -11 6 -20 4 -10 1 -16 -9 -16 -17 0 -40 24 -30 33 7 8 33 10
33 3z m-2140 -24 c0 -10 -22 -32 -32 -32 -13 0 -9 28 5 33 19 8 27 8 27 -1z
m-330 -12 c0 -5 -4 -10 -10 -10 -5 0 -10 5 -10 10 0 6 5 10 10 10 6 0 10 -4
10 -10z m384 -27 c4 -9 0 -23 -8 -32 -14 -13 -16 -13 -22 2 -7 20 1 47 15 47
5 0 12 -8 15 -17z m886 9 c0 -5 -11 -14 -25 -20 -20 -9 -25 -9 -25 2 0 7 3 16
7 19 9 10 43 9 43 -1z m170 -32 c0 -5 10 -10 23 -10 28 -1 68 -30 50 -37 -7
-3 -13 -12 -13 -20 0 -10 5 -13 18 -8 9 4 29 8 44 9 15 1 36 10 46 19 22 20
35 21 79 5 43 -16 42 -28 -2 -28 -27 0 -35 -4 -35 -18 0 -10 5 -23 12 -30 15
-15 -7 -42 -33 -42 -14 0 -19 -7 -19 -30 0 -37 -7 -37 -44 0 -16 17 -32 30
-36 30 -3 0 -26 -18 -50 -40 -50 -46 -64 -36 -36 25 21 43 20 44 -9 55 -34 13
-32 29 5 37 36 7 37 13 9 39 -32 29 -43 54 -24 54 8 0 15 -4 15 -10z m-150
-31 c0 -20 -24 -26 -35 -9 -8 13 14 42 26 34 5 -3 9 -14 9 -25z m1077 9 c-3
-8 -6 -5 -6 6 -1 11 2 17 5 13 3 -3 4 -12 1 -19z m-1932 -28 c-5 -23 -10 -29
-18 -21 -7 7 -7 18 2 37 6 15 14 24 17 21 3 -3 3 -20 -1 -37z m1993 8 c-2 -13
-7 -23 -13 -23 -5 0 -11 10 -13 23 -2 15 2 22 13 22 11 0 15 -7 13 -22z m56
-19 c4 -17 1 -31 -8 -38 -11 -9 -15 -5 -19 19 -12 59 13 76 27 19z m-2494 1
c0 -11 -4 -20 -9 -20 -5 0 -7 9 -4 20 3 11 7 20 9 20 2 0 4 -9 4 -20z m1120 5
c-14 -16 -40 -20 -40 -6 0 10 17 19 39 20 11 1 11 -2 1 -14z m1225 5 c3 -5 1
-10 -4 -10 -6 0 -11 5 -11 10 0 6 2 10 4 10 3 0 8 -4 11 -10z m-1388 -16 c3
-9 -3 -21 -16 -30 -12 -9 -21 -26 -21 -40 0 -17 -6 -24 -19 -24 -23 0 -45 -25
-36 -41 5 -7 22 -9 46 -6 44 6 61 -8 52 -41 -5 -22 -23 -31 -23 -12 0 14 -57
13 -66 -2 -4 -6 4 -21 19 -34 28 -24 35 -48 16 -60 -6 -3 -8 -17 -4 -31 5 -22
3 -24 -17 -17 -27 8 -37 20 -45 57 -8 37 -20 43 -44 21 -18 -16 -21 -16 -35
-2 -14 14 -13 18 13 42 23 21 26 29 17 44 -6 9 -17 17 -25 18 -8 0 -25 4 -37
8 -18 6 -30 2 -47 -14 -27 -25 -45 -19 -45 14 0 46 62 85 114 72 16 -4 29 0
41 14 10 11 24 20 32 20 7 0 13 6 13 14 0 16 21 26 55 26 13 0 27 5 30 10 9
15 25 12 32 -6z m-373 -50 c-18 -15 -18 -15 4 -11 20 5 22 1 22 -34 0 -35 -3
-39 -25 -39 -14 0 -25 -4 -25 -9 0 -12 29 -23 41 -15 5 3 9 0 9 -5 0 -6 -9
-11 -20 -11 -15 0 -20 -7 -20 -26 0 -23 3 -25 25 -20 18 5 25 2 25 -8 0 -9
-10 -13 -32 -11 -28 2 -34 7 -40 36 -8 34 -3 135 8 163 3 8 12 12 20 9 8 -3
14 1 15 8 0 11 2 11 6 1 3 -7 -3 -20 -13 -28z m446 26 c0 -5 -7 -10 -16 -10
-8 0 -12 5 -9 10 3 6 10 10 16 10 5 0 9 -4 9 -10z m800 -6 c0 -8 -4 -12 -10
-9 -5 3 -10 10 -10 16 0 5 5 9 10 9 6 0 10 -7 10 -16z m-845 -14 c-3 -5 -11
-10 -16 -10 -6 0 -7 5 -4 10 3 6 11 10 16 10 6 0 7 -4 4 -10z m355 0 c0 -5 -4
-10 -10 -10 -5 0 -10 5 -10 10 0 6 5 10 10 10 6 0 10 -4 10 -10z m1040 0 c0
-5 -7 -10 -15 -10 -8 0 -15 5 -15 10 0 6 7 10 15 10 8 0 15 -4 15 -10z m-1287
-24 c-3 -14 -14 -26 -26 -29 -12 -3 -33 -8 -47 -12 l-25 -6 25 15 c14 8 33 15
43 16 10 0 17 8 17 20 0 11 4 20 9 20 4 0 6 -11 4 -24z m1177 -25 c0 -34 -3
-38 -20 -34 -23 6 -27 23 -5 23 9 0 15 9 15 25 0 14 2 25 5 25 3 0 5 -18 5
-39z m-1120 -12 c0 -20 -4 -29 -12 -27 -15 5 -22 33 -14 54 9 24 26 6 26 -27z
m70 32 c0 -6 -4 -13 -10 -16 -5 -3 -10 -17 -10 -31 0 -13 -4 -24 -9 -24 -9 0
-21 60 -14 73 6 10 43 9 43 -2z m180 -11 c0 -5 -4 -10 -10 -10 -5 0 -10 5 -10
10 0 6 5 10 10 10 6 0 10 -4 10 -10z m980 0 c0 -5 -7 -10 -15 -10 -8 0 -15 5
-15 10 0 6 7 10 15 10 8 0 15 -4 15 -10z m-1070 -76 c0 -7 -25 -4 -38 4 -10 7
-10 15 -2 38 l12 29 14 -34 c8 -18 14 -35 14 -37z m35 38 c0 -18 -20 -15 -23
4 -3 10 1 15 10 12 7 -3 13 -10 13 -16z m-274 -19 c-18 -8 -38 -12 -45 -10 -6
2 5 11 24 19 19 8 39 13 45 10 5 -3 -6 -12 -24 -19z m1307 -55 c-2 -107 -12
-124 -19 -33 -6 82 -3 105 12 105 5 0 8 -33 7 -72z m-963 52 c3 -5 1 -10 -4
-10 -6 0 -11 5 -11 10 0 6 2 10 4 10 3 0 8 -4 11 -10z m112 -15 c-7 -14 -15
-25 -19 -25 -11 0 -10 7 4 30 18 28 28 25 15 -5z m738 -6 c4 -6 -3 -13 -14
-16 -19 -5 -20 -8 -8 -22 8 -9 17 -29 21 -46 8 -35 16 -978 8 -1047 -3 -34 -9
-48 -23 -51 -13 -3 -19 -14 -19 -31 0 -23 -4 -26 -35 -26 -28 0 -37 5 -50 30
-9 17 -19 30 -23 30 -4 0 -18 -24 -31 -52 -13 -29 -30 -61 -38 -70 -9 -10 -13
-24 -8 -35 23 -59 14 -83 -32 -83 l-23 0 -2 303 c0 166 -2 421 -3 567 -3 306
3 395 25 395 9 0 14 -7 12 -17 -2 -10 2 -18 8 -18 5 0 10 7 10 15 0 8 7 15 16
15 12 0 15 8 13 34 -2 19 0 38 4 42 11 12 38 -18 32 -36 -3 -9 1 -23 10 -30
11 -9 12 -17 4 -32 -8 -14 -8 -23 0 -31 8 -8 11 -4 11 15 0 15 6 29 13 32 8 3
7 9 -7 20 -23 19 -14 35 18 29 21 -4 27 1 40 32 9 21 16 48 16 60 0 30 41 48
55 24z m-438 -62 c-2 -49 -7 -68 -25 -87 -12 -13 -22 -29 -22 -34 0 -6 -7 2
-15 18 -12 22 -13 31 -4 37 6 3 9 13 7 20 -3 8 3 25 12 39 10 14 21 35 24 48
14 43 26 21 23 -41z m353 37 c0 -8 -4 -12 -10 -9 -5 3 -10 10 -10 16 0 5 5 9
10 9 6 0 10 -7 10 -16z m-1100 -11 c-1 -22 -23 -53 -39 -53 -16 0 -14 16 5 45
19 29 34 32 34 8z m550 -8 c0 -30 -10 -32 -32 -6 -18 21 -14 31 14 31 13 0 18
-7 18 -25z m-899 -5 c5 0 4 -9 -3 -19 -13 -22 -45 -34 -53 -20 -9 13 19 50 33
44 8 -3 18 -5 23 -5z m499 -11 c0 -5 -7 -9 -15 -9 -15 0 -20 12 -9 23 8 8 24
-1 24 -14z m1244 6 c-4 -8 -10 -15 -15 -15 -5 0 -9 7 -9 15 0 8 7 15 15 15 9
0 12 -6 9 -15z m-1154 -17 c0 -6 -6 -5 -15 2 -8 7 -15 14 -15 16 0 2 7 1 15
-2 8 -4 15 -11 15 -16z m850 -18 c0 -5 -2 -10 -4 -10 -3 0 -8 5 -11 10 -3 6
-1 10 4 10 6 0 11 -4 11 -10z m-844 -27 c-10 -10 -19 5 -10 18 6 11 8 11 12 0
2 -7 1 -15 -2 -18z m284 23 c0 -11 -19 -15 -25 -6 -3 5 1 10 9 10 9 0 16 -2
16 -4z m-990 -14 c0 -5 -13 -9 -30 -9 -16 0 -30 4 -30 9 0 4 14 8 30 8 17 0
30 -4 30 -8z m1428 -20 c2 -7 -2 -10 -12 -6 -9 3 -16 11 -16 16 0 13 23 5 28
-10z m-1212 -38 c13 -14 24 -33 24 -43 0 -10 7 -24 15 -31 8 -7 15 -20 15 -29
0 -17 65 -91 79 -91 15 0 33 29 28 44 -8 20 38 43 57 27 11 -9 22 -9 52 4 37
15 53 10 54 -17 0 -5 7 -8 15 -8 8 0 15 -4 15 -10 0 -19 50 -23 70 -5 21 19
48 11 30 -10 -6 -8 -7 -21 -2 -35 9 -25 16 -20 26 22 4 18 1 32 -10 42 -20 21
-30 20 -54 -4 -28 -28 -30 -25 -15 17 15 43 46 59 78 41 50 -28 86 -36 98 -22
15 18 29 18 29 -1 0 -8 5 -15 10 -15 6 0 10 8 10 18 0 9 10 22 23 27 17 8 21
17 19 43 -1 23 2 32 14 32 9 0 14 -8 13 -17 -2 -29 0 -35 14 -26 20 12 35 12
47 -2 6 -7 21 -11 33 -8 l22 5 -22 -20 c-25 -22 -30 -51 -11 -70 18 -18 28
-15 37 11 6 17 16 22 42 22 42 0 50 25 20 66 -12 15 -21 38 -21 49 0 34 33 20
53 -23 11 -24 24 -37 37 -37 15 0 20 -7 20 -26 0 -23 -2 -25 -15 -14 -13 10
-18 11 -28 1 -9 -10 -8 -15 6 -25 22 -17 22 -32 0 -45 -13 -7 -18 -24 -20 -61
-1 -40 1 -50 10 -41 6 6 11 29 11 51 -1 30 3 41 17 45 12 4 19 16 19 30 0 25
16 42 28 30 9 -8 11 -119 17 -686 4 -390 3 -449 -11 -459 -11 -10 -20 -10 -39
-2 -22 10 -25 18 -25 61 0 53 -1 55 -42 65 -35 8 -37 -7 -4 -22 22 -10 25 -19
28 -69 l3 -58 48 -3 47 -3 2 -57 c1 -31 2 -262 3 -513 l0 -457 -32 -21 c-48
-31 -153 -179 -153 -216 0 -10 -10 -15 -29 -15 -23 0 -30 -5 -35 -27 -5 -17
-3 -29 6 -34 7 -4 9 -11 5 -15 -4 -4 -16 3 -27 16 -22 25 -22 25 -38 -5 -25
-45 14 273 43 356 8 23 15 53 15 66 0 23 3 25 28 18 58 -14 92 -12 92 5 0 26
-45 63 -68 56 -16 -5 -24 5 -50 61 -33 74 -43 112 -47 182 -2 35 -9 50 -29 66
-14 11 -26 26 -26 33 0 16 29 47 52 55 17 6 17 7 9 117 -1 20 -3 22 -11 10 -8
-12 -12 -13 -19 -1 -6 10 -13 11 -29 2 -28 -15 -32 -14 -32 9 0 11 7 20 15 20
8 0 15 6 15 13 0 7 9 18 19 24 11 7 22 25 24 40 4 27 5 27 12 6 7 -22 7 -22
36 7 33 33 35 42 14 60 -9 7 -14 19 -11 26 3 7 1 16 -4 19 -6 4 -10 15 -10 26
0 12 -7 19 -19 19 -11 0 -23 5 -26 10 -3 6 -19 10 -34 10 -15 0 -32 5 -39 12
-17 17 -42 -8 -42 -43 0 -15 -5 -31 -11 -35 -6 -3 -9 -15 -6 -25 3 -11 -2 -23
-11 -28 -13 -7 -14 -12 -4 -24 8 -9 9 -18 4 -21 -14 -8 -45 73 -34 88 5 6 12
23 16 37 5 22 2 28 -16 32 -12 4 -27 2 -34 -4 -8 -6 -13 -5 -18 6 -3 8 -12 15
-21 15 -8 0 -15 5 -15 10 0 18 -16 11 -48 -20 -18 -16 -36 -30 -41 -30 -5 0
-9 -13 -9 -29 1 -43 -9 -51 -68 -51 -49 0 -55 -3 -64 -25 -8 -22 -15 -25 -57
-24 -39 0 -44 2 -25 9 12 5 22 14 22 20 0 6 12 22 27 36 23 21 25 27 15 49 -6
14 -16 25 -22 25 -5 0 -10 14 -10 31 l0 31 -45 -6 c-41 -7 -45 -5 -45 14 0 31
-30 38 -48 12 -8 -12 -20 -22 -27 -22 -6 0 -23 -9 -36 -21 -21 -19 -22 -21 -7
-30 9 -5 24 -16 32 -24 8 -8 21 -12 29 -9 8 3 18 1 22 -5 3 -6 -1 -11 -9 -11
-9 0 -16 -1 -16 -2 0 -2 -7 -21 -16 -43 l-15 -40 6 38 c8 51 -12 48 -25 -5 -6
-24 -13 -48 -15 -55 -2 -7 -20 -15 -40 -19 -26 -5 -37 -12 -41 -30 -7 -29 -20
-31 -27 -4 -3 11 -12 20 -21 20 -14 0 -16 48 -17 478 -1 262 -2 599 -3 749 0
149 1 273 4 276 3 2 23 7 45 11 31 5 36 4 23 -4 -10 -6 -18 -17 -18 -24 0 -8
-10 -17 -22 -21 l-23 -8 24 -4 c13 -3 31 -12 39 -20 11 -11 27 -13 59 -8 48 7
60 -9 18 -25 -14 -5 -25 -12 -25 -14 0 -13 24 -56 32 -56 11 0 10 7 -2 31 -9
16 -7 21 14 28 36 14 39 27 11 57 -14 15 -25 31 -25 35 0 13 -44 11 -58 -3 -6
-6 -15 -8 -19 -4 -11 11 27 36 54 36 13 0 26 7 29 15 8 20 13 19 40 -11z m524
6 c0 -5 -5 -10 -11 -10 -5 0 -7 5 -4 10 3 6 8 10 11 10 2 0 4 -4 4 -10z m-255
-10 c-3 -5 -11 -10 -16 -10 -6 0 -7 5 -4 10 3 6 11 10 16 10 6 0 7 -4 4 -10z
m45 -4 c0 -3 -4 -8 -10 -11 -5 -3 -10 -1 -10 4 0 6 5 11 10 11 6 0 10 -2 10
-4z m470 -12 c0 -8 -4 -12 -10 -9 -5 3 -10 10 -10 16 0 5 5 9 10 9 6 0 10 -7
10 -16z m210 -16 c0 -29 -2 -31 -15 -17 -9 9 -13 23 -9 32 10 28 24 19 24 -15z
m604 17 c6 -18 -2 -45 -15 -45 -5 0 -9 14 -9 30 0 32 14 40 24 15z m-1014 -22
c-1 -5 -7 -19 -15 -33 -12 -22 -14 -23 -20 -7 -4 9 -2 24 5 32 13 16 30 20 30
8z m65 -2 c3 -5 1 -12 -5 -16 -5 -3 -10 1 -10 9 0 18 6 21 15 7z m-715 -10 c0
-12 -20 -25 -27 -18 -7 7 6 27 18 27 5 0 9 -4 9 -9z m200 -11 c0 -5 -4 -10
-10 -10 -5 0 -10 5 -10 10 0 6 5 10 10 10 6 0 10 -4 10 -10z m735 -20 c3 -5 1
-10 -4 -10 -6 0 -11 5 -11 10 0 6 2 10 4 10 3 0 8 -4 11 -10z m-605 -10 c0 -5
-5 -10 -11 -10 -5 0 -7 5 -4 10 3 6 8 10 11 10 2 0 4 -4 4 -10z m97 -7 c-9 -9
-19 -14 -23 -11 -10 10 6 28 24 28 15 0 15 -1 -1 -17z m-257 -13 c0 -5 -4 -10
-9 -10 -6 0 -13 5 -16 10 -3 6 1 10 9 10 9 0 16 -4 16 -10z m280 -10 c0 -5 -4
-10 -10 -10 -5 0 -10 5 -10 10 0 6 5 10 10 10 6 0 10 -4 10 -10z m-240 -40 c0
-5 -4 -10 -10 -10 -5 0 -10 5 -10 10 0 6 5 10 10 10 6 0 10 -4 10 -10z m-379
-73 c-13 -13 -14 5 -3 43 l7 25 3 -29 c2 -16 -1 -33 -7 -39z m-404 11 c-3 -7
-5 -2 -5 12 0 14 2 19 5 13 2 -7 2 -19 0 -25z m1763 -128 l-6 -95 -2 105 c-1
57 2 100 6 95 4 -6 5 -53 2 -105z m-1350 80 c0 -5 -5 -10 -11 -10 -5 0 -7 5
-4 10 3 6 8 10 11 10 2 0 4 -4 4 -10z m-400 -185 c0 -8 -7 -15 -15 -15 -26 0
-18 20 13 29 1 1 2 -6 2 -14z m410 -467 c0 -4 -9 -8 -20 -8 -11 0 -20 4 -20 8
0 4 9 8 20 8 11 0 20 -4 20 -8z m1650 -202 c0 -24 -3 -64 -6 -90 -6 -39 -10
-46 -30 -46 -12 0 -24 4 -26 9 -2 6 -30 7 -65 4 -72 -7 -75 -23 -5 -22 26 0
64 -2 85 -6 35 -7 37 -9 38 -49 1 -22 2 -198 4 -391 2 -192 4 -359 6 -370 3
-16 -3 -20 -41 -26 -61 -9 -180 -55 -205 -79 -12 -11 -25 -20 -29 -20 -4 0 -6
211 -4 469 l3 469 29 6 c39 8 56 24 56 52 0 19 5 24 25 24 18 0 23 -4 18 -16
-4 -12 -2 -15 8 -12 8 3 13 10 12 16 -1 5 6 17 15 25 16 15 18 15 17 -6 0 -42
20 -24 49 44 17 37 33 66 38 63 4 -3 8 -25 8 -48z m-68 17 c-6 -2 -9 -10 -6
-15 4 -7 2 -8 -5 -4 -6 4 -18 3 -25 -3 -10 -9 -15 -8 -19 3 -8 20 2 26 37 25
17 0 25 -3 18 -6z m-1366 -201 c-8 -9 -19 -13 -22 -9 -10 9 16 38 28 31 6 -4
4 -13 -6 -22z m-246 -12 c0 -5 -4 -10 -10 -10 -5 0 -10 5 -10 10 0 6 5 10 10
10 6 0 10 -4 10 -10z m-120 -26 c0 -8 7 -14 15 -14 17 0 18 -2 9 -24 -4 -10
-18 -16 -38 -15 -17 0 -24 3 -16 6 8 2 21 7 29 9 11 4 11 8 -3 22 -17 20 -22
47 -6 37 6 -3 10 -13 10 -21z m1022 4 c16 16 28 15 28 -3 0 -20 -50 -32 -61
-14 -14 22 -10 33 6 19 12 -10 19 -10 27 -2z m-482 -23 c0 -8 -4 -15 -10 -15
-5 0 -10 7 -10 15 0 8 5 15 10 15 6 0 10 -7 10 -15z m558 -47 c-6 -18 -28 -21
-28 -4 0 9 7 16 16 16 9 0 14 -5 12 -12z m-1155 -25 c-21 -8 -15 -33 7 -33 13
0 20 7 20 20 0 28 29 25 40 -4 5 -13 13 -27 19 -30 6 -4 9 -172 8 -485 -2
-358 -5 -472 -13 -452 -6 14 -18 32 -27 40 -10 7 -17 28 -17 47 0 40 -11 48
-55 40 -24 -5 -34 -13 -37 -31 -3 -13 -1 -28 4 -33 6 -6 -1 -18 -20 -32 -17
-12 -33 -31 -35 -41 -3 -11 -14 -19 -25 -19 -15 0 -21 9 -26 48 -13 83 -24
456 -14 468 5 7 11 35 15 63 3 28 10 54 14 57 5 3 9 40 9 82 0 67 2 74 14 57
13 -18 14 -18 23 1 6 10 8 25 6 32 -3 6 0 12 6 12 6 0 11 -19 11 -44 0 -25 4
-47 9 -50 13 -8 21 57 21 182 l0 112 28 -1 c15 0 21 -3 15 -6z m891 1 c21 -8
20 -46 -3 -97 -10 -23 -24 -66 -31 -95 -13 -58 -21 -61 -24 -11 -2 20 8 53 26
86 32 61 37 109 11 116 -10 3 -13 5 -6 6 6 0 18 -2 27 -5z m-130 -14 c28 1 29
-1 23 -39 -4 -33 -2 -40 14 -44 10 -3 19 -1 19 4 0 5 -4 9 -10 9 -5 0 -10 5
-10 10 0 6 8 10 18 10 10 0 23 5 30 12 9 9 12 9 12 0 0 -23 -31 -73 -71 -114
-21 -22 -45 -52 -52 -66 -16 -33 -87 -77 -87 -54 0 5 11 14 25 20 25 12 34 45
15 57 -5 3 -10 14 -10 24 0 10 -11 26 -25 35 -30 20 -35 20 -35 0 0 -8 -5 -12
-11 -8 -6 3 -15 1 -19 -7 -7 -10 -12 -10 -23 -1 -17 15 -64 1 -82 -25 -11 -14
-14 -13 -29 8 -24 34 -36 10 -29 -60 5 -52 4 -55 -11 -36 -13 17 -15 17 -16 4
0 -9 6 -22 14 -28 18 -15 40 -158 33 -213 -6 -45 6 -96 16 -68 3 8 8 62 12
120 3 58 7 118 8 134 2 32 -19 48 -26 19 -3 -10 -5 8 -6 40 0 31 1 57 3 57 2
0 15 -17 27 -37 13 -20 25 -31 27 -25 7 21 52 -45 52 -76 0 -16 7 -35 15 -42
22 -18 26 -9 15 30 -5 19 -6 36 -1 39 16 11 22 50 11 71 -15 28 -33 14 -28
-21 4 -23 2 -26 -9 -18 -17 14 -16 49 1 72 16 21 26 22 26 3 0 -7 10 -16 21
-19 20 -5 21 -11 16 -54 -3 -26 -9 -56 -13 -67 -5 -14 -3 -17 7 -14 8 3 16 18
19 33 3 16 10 28 15 28 6 -1 16 3 23 9 33 27 21 -13 -37 -130 -58 -116 -149
-258 -159 -248 -5 5 14 124 23 149 4 10 3 17 -3 17 -6 0 -14 -17 -17 -37 -4
-21 -7 -45 -9 -53 -1 -8 -7 -14 -14 -13 -16 4 -53 -72 -46 -91 3 -9 12 -16 20
-16 16 0 18 12 5 26 -6 5 -5 18 3 33 l13 23 7 -32 c6 -35 -6 -60 -30 -60 -8 0
-14 -9 -14 -19 0 -11 -4 -23 -10 -26 -16 -10 -12 -45 6 -52 9 -3 26 4 40 18
46 43 264 387 264 416 0 22 -27 -14 -73 -97 -69 -125 -68 -104 3 35 39 77 77
146 85 155 7 8 14 18 15 22 5 25 26 68 32 68 13 0 9 -31 -12 -89 -10 -31 -23
-74 -29 -96 -9 -37 -40 -124 -94 -265 -12 -30 -27 -62 -34 -71 -7 -8 -13 -19
-13 -23 0 -5 -14 -29 -31 -53 -18 -28 -27 -49 -21 -55 6 -6 22 13 41 47 42 75
50 64 12 -15 -51 -105 -89 -157 -129 -175 -20 -10 -40 -19 -44 -21 -3 -2 -4 5
-1 16 6 21 -11 28 -23 9 -4 -7 -10 -7 -16 -1 -7 7 -4 19 11 38 12 15 19 35 16
44 -3 10 -1 29 4 43 7 18 7 28 0 33 -15 9 -18 3 -25 -52 -4 -27 -15 -61 -26
-76 -20 -29 -13 -61 14 -71 10 -3 9 -12 -4 -35 -9 -17 -14 -40 -11 -51 4 -16
-1 -20 -29 -23 -25 -2 -33 -8 -34 -23 -2 -39 -4 -45 -15 -45 -7 0 -9 9 -6 23
5 17 -1 27 -24 42 l-30 20 -5 370 c-7 487 4 749 29 654 8 -30 61 -23 65 9 3
17 10 22 34 22 22 0 29 -4 25 -14 -23 -60 -18 -156 8 -156 10 0 12 6 8 18 -6
15 -5 16 11 2 17 -14 18 -13 12 16 -4 18 -1 44 9 67 20 48 19 50 -12 42 l-28
-7 21 24 c12 13 25 33 29 46 9 30 27 28 19 -2 -5 -20 -1 -24 26 -28 22 -3 30
-1 26 8 -8 20 13 28 38 15 15 -8 38 -10 71 -4 42 7 51 12 53 32 3 20 8 22 35
17 18 -4 45 -6 61 -6z m311 0 c-3 -5 -13 -10 -21 -10 -8 0 -12 5 -9 10 3 6 13
10 21 10 8 0 12 -4 9 -10z m-245 -20 c0 -5 -5 -10 -11 -10 -5 0 -7 5 -4 10 3
6 8 10 11 10 2 0 4 -4 4 -10z m140 -25 c0 -9 -9 -29 -20 -45 -11 -17 -28 -42
-38 -57 -15 -23 -21 -64 -31 -223 -6 -107 -11 -278 -10 -380 1 -190 -11 -270
-57 -378 -8 -19 -14 -43 -14 -53 0 -21 -1 -22 -24 -13 -13 5 -14 9 -5 20 13
15 4 64 -11 64 -6 0 -8 -12 -4 -27 4 -21 3 -24 -5 -13 -15 22 -26 3 -13 -25
11 -23 10 -24 -14 -15 -37 14 -49 13 -34 -5 15 -18 7 -19 -21 -5 -11 6 -25 8
-31 4 -7 -4 -22 -8 -35 -9 -16 0 -22 4 -18 15 2 8 9 44 14 80 6 36 14 79 20
95 8 26 9 27 10 7 1 -26 27 -40 43 -24 6 6 12 55 13 109 2 126 2 123 25 123
11 0 23 7 26 15 4 8 25 23 48 34 l42 18 1 208 c1 186 3 212 21 249 11 22 28
68 37 101 32 116 46 145 66 145 10 0 19 -7 19 -15z m36 -13 c-23 -26 -49 -112
-42 -143 4 -20 1 -28 -12 -31 -30 -8 -22 58 15 127 9 17 21 40 27 52 6 12 14
19 19 16 5 -3 2 -12 -7 -21z m554 -23 c0 -5 -6 -9 -14 -9 -24 0 -30 -21 -7
-27 32 -8 25 -23 -10 -23 -26 0 -29 -3 -20 -14 9 -11 8 -15 -4 -20 -23 -9 -8
-26 23 -27 17 -1 21 -3 10 -6 -22 -5 -23 -17 -3 -37 22 -21 19 -26 -16 -26
-26 0 -29 -2 -19 -15 6 -8 9 -23 5 -35 -5 -17 -2 -20 22 -21 22 -1 24 -3 6 -6
-12 -2 -27 -11 -33 -19 -10 -12 -7 -14 19 -14 34 0 42 -15 12 -23 -15 -4 -19
-12 -16 -41 3 -26 0 -36 -11 -36 -8 0 -14 -7 -14 -15 0 -10 11 -16 33 -17 l32
-1 -32 -4 c-47 -6 -44 -33 3 -33 24 0 34 -4 31 -12 -2 -8 -17 -12 -36 -10 -43
5 -38 -19 7 -33 28 -8 32 -14 32 -42 0 -26 -5 -34 -25 -39 -31 -8 -33 -22 -3
-26 32 -5 35 -28 3 -28 -32 0 -29 -23 3 -28 30 -5 28 -22 -3 -22 -32 0 -34
-29 -2 -31 l22 -2 -22 -4 c-32 -6 -30 -33 2 -33 14 0 25 -4 25 -10 0 -5 -14
-10 -31 -10 -20 0 -29 -4 -26 -12 2 -7 16 -13 30 -13 15 1 27 -3 27 -7 0 -4
-13 -8 -30 -8 -20 0 -30 -5 -30 -15 0 -10 10 -15 30 -15 20 0 30 -5 30 -15 0
-10 -10 -15 -30 -15 -16 0 -30 -5 -30 -11 0 -7 12 -10 30 -7 20 3 30 0 30 -9
0 -8 -12 -13 -31 -13 -20 0 -29 -4 -26 -12 2 -7 16 -12 31 -10 14 1 26 -2 26
-8 0 -5 -11 -10 -25 -10 -22 0 -25 -4 -25 -36 0 -33 2 -36 25 -32 17 4 25 1
25 -8 0 -8 -9 -14 -20 -14 -16 0 -20 -7 -20 -30 0 -23 4 -30 20 -30 36 0 21
-17 -22 -25 l-43 -8 43 -10 c23 -5 42 -14 42 -19 0 -6 -18 -7 -42 -3 -40 6
-42 6 -23 -9 11 -8 30 -16 43 -16 12 0 22 -4 22 -10 0 -5 -11 -10 -25 -10 -14
0 -25 -4 -25 -10 0 -10 7 -12 40 -14 9 -1 16 -13 18 -32 3 -28 1 -31 -21 -27
-14 3 -28 0 -31 -6 -5 -7 4 -14 23 -17 17 -4 31 -10 31 -15 0 -12 -57 -11 -65
1 -3 5 -12 7 -20 3 -17 -6 -19 22 -14 182 1 50 1 198 -1 330 -3 303 -3 488 1
688 l3 157 27 0 c15 0 31 5 34 10 7 12 25 4 25 -11z m-488 -21 c-7 -7 -12 -8
-12 -2 0 6 3 14 7 17 3 4 9 5 12 2 2 -3 -1 -11 -7 -17z m-42 3 c0 -6 -4 -13
-10 -16 -16 -10 -12 -28 5 -21 9 3 15 0 15 -9 0 -18 -14 -27 -33 -19 -14 5
-14 20 -1 62 4 14 24 17 24 3z m-630 -41 c0 -5 -2 -10 -4 -10 -3 0 -8 5 -11
10 -3 6 -1 10 4 10 6 0 11 -4 11 -10z m1160 -30 c0 -5 -2 -10 -4 -10 -3 0 -8
5 -11 10 -3 6 -1 10 4 10 6 0 11 -4 11 -10z m-1710 -95 c0 -24 -4 -47 -10 -50
-6 -4 -10 15 -10 50 0 35 4 54 10 50 6 -3 10 -26 10 -50z m827 39 c-3 -3 -12
-4 -19 -1 -8 3 -5 6 6 6 11 1 17 -2 13 -5z m463 2 c0 -3 -4 -8 -10 -11 -5 -3
-10 -1 -10 4 0 6 5 11 10 11 6 0 10 -2 10 -4z m-80 -77 c0 -5 -4 -9 -10 -9 -5
0 -10 7 -10 16 0 8 5 12 10 9 6 -3 10 -10 10 -16z m916 -6 c-10 -10 -19 5 -10
18 6 11 8 11 12 0 2 -7 1 -15 -2 -18z m-426 7 c0 -5 -5 -10 -11 -10 -5 0 -7 5
-4 10 3 6 8 10 11 10 2 0 4 -4 4 -10z m-744 -88 c-12 -12 -18 8 -10 35 l8 28
4 -28 c2 -16 1 -31 -2 -35z m174 38 c0 -5 -4 -10 -10 -10 -5 0 -10 5 -10 10 0
6 5 10 10 10 6 0 10 -4 10 -10z m-523 -32 c-3 -7 -5 -2 -5 12 0 14 2 19 5 13
2 -7 2 -19 0 -25z m-777 -48 c0 -5 -4 -10 -10 -10 -5 0 -10 5 -10 10 0 6 5 10
10 10 6 0 10 -4 10 -10z m1117 -292 c-17 -11 -21 43 -11 172 l8 105 8 -134 c6
-104 5 -137 -5 -143z m-262 65 c-50 -80 -96 -136 -103 -129 -3 3 12 25 32 50
20 24 36 48 36 52 0 7 69 94 75 94 2 0 -16 -30 -40 -67z m1705 57 c0 -5 -4
-10 -10 -10 -5 0 -10 5 -10 10 0 6 5 10 10 10 6 0 10 -4 10 -10z m-1510 -67
c0 -30 -3 -44 -10 -37 -8 8 -3 84 6 84 2 0 4 -21 4 -47z m1560 28 c0 -10 -30
-24 -37 -17 -3 3 -2 9 2 15 8 13 35 15 35 2z m-420 -141 l0 -100 -37 0 c-43 0
-96 -28 -113 -60 -9 -17 -14 -19 -26 -9 -11 9 -18 8 -32 -5 -26 -22 -32 -20
-33 12 l-2 27 -4 -27 c-3 -20 -10 -28 -24 -28 -17 0 -19 8 -19 89 l0 90 35 26
c46 36 171 84 218 85 l37 0 0 -100z m191 84 c11 -13 10 -17 -4 -25 -9 -6 -17
-14 -17 -19 0 -8 41 -30 82 -44 10 -3 15 -11 12 -20 -6 -14 32 -34 43 -22 4 3
-1 6 -11 6 -10 0 -14 5 -10 11 8 14 70 -46 91 -88 8 -18 12 -37 8 -43 -3 -5 1
-13 9 -16 23 -9 19 -26 -4 -19 -11 4 -20 2 -20 -4 0 -6 -4 -11 -10 -11 -5 0
-10 6 -10 14 0 8 -5 18 -11 22 -8 4 -9 -1 -4 -16 6 -18 4 -22 -8 -17 -24 9
-44 -20 -29 -43 6 -11 8 -21 3 -24 -5 -3 -11 3 -14 14 -3 11 -10 20 -16 20 -6
0 -8 -6 -5 -14 3 -9 -4 -19 -17 -26 -21 -12 -21 -11 -14 26 4 21 11 47 16 56
14 26 70 47 92 36 30 -15 34 2 7 24 -31 25 -98 20 -130 -10 -13 -12 -26 -19
-30 -17 -3 2 -6 -4 -6 -13 0 -58 -5 -82 -17 -82 -14 0 -27 139 -27 293 0 59 2
67 19 67 10 0 25 -7 32 -16z m126 10 c-3 -3 -12 -4 -19 -1 -8 3 -5 6 6 6 11 1
17 -2 13 -5z m-17 -30 c0 -2 -7 -4 -15 -4 -8 0 -15 4 -15 10 0 5 7 7 15 4 8
-4 15 -8 15 -10z m118 -16 c16 -16 15 -28 -3 -28 -8 0 -15 2 -15 4 0 2 -3 11
-6 20 -7 19 7 21 24 4z m-1617 -61 c-6 -6 -11 -44 -11 -84 0 -58 -3 -73 -15
-73 -11 0 -13 8 -10 30 3 17 7 43 9 59 3 15 0 33 -5 38 -7 7 -3 24 13 54 23
44 23 44 26 15 2 -16 -1 -33 -7 -39z m-106 -181 c-34 -97 -84 -183 -127 -223
-17 -15 -32 -19 -55 -16 -40 6 -41 16 -7 65 27 39 40 46 46 27 7 -21 108 101
108 130 0 11 63 122 67 117 2 -1 -13 -46 -32 -100z m332 52 c-3 -7 -5 -2 -5
12 0 14 2 19 5 13 2 -7 2 -19 0 -25z m552 -38 c-1 -73 -12 -99 -23 -54 -9 35
-39 28 -46 -11 -3 -16 -14 -34 -26 -40 -11 -5 -19 -16 -16 -23 7 -22 -18 -12
-29 11 -9 21 -4 32 41 93 51 68 76 94 92 94 4 0 7 -32 7 -70z m-833 33 c-3
-10 -10 -41 -15 -70 -6 -28 -22 -80 -36 -114 -28 -70 -32 -94 -9 -64 15 19 15
19 11 -10 -3 -28 -7 -30 -46 -31 -23 0 -44 2 -46 6 -2 3 14 36 35 72 39 64 73
145 85 201 3 15 10 27 16 27 6 0 8 -8 5 -17z m-1007 -19 c-14 -18 -24 -11 -15
11 3 9 11 13 16 10 8 -5 7 -11 -1 -21z m2261 -3 c0 -21 -76 -106 -83 -94 -9
18 2 75 18 93 24 26 65 27 65 1z m130 9 c0 -5 -4 -10 -10 -10 -5 0 -10 5 -10
10 0 6 5 10 10 10 6 0 10 -4 10 -10z m-1992 -20 c17 0 22 -6 22 -25 0 -14 -4
-33 -9 -43 -5 -9 -16 -35 -25 -56 -20 -45 -39 -37 -42 17 -1 17 -5 52 -9 76
-8 43 -8 44 16 38 13 -4 34 -7 47 -7z m912 1 c0 -12 -20 -25 -27 -18 -7 7 6
27 18 27 5 0 9 -4 9 -9z m-1469 -24 c-13 -13 -26 -3 -16 12 3 6 11 8 17 5 6
-4 6 -10 -1 -17z m2232 -17 c-7 -27 -22 -35 -29 -16 -7 18 13 49 26 41 5 -3 6
-14 3 -25z m-2045 11 c10 -6 7 -10 -13 -15 -32 -8 -46 1 -25 14 18 12 22 12
38 1z m1312 -1 c0 -5 -4 -10 -10 -10 -5 0 -10 5 -10 10 0 6 5 10 10 10 6 0 10
-4 10 -10z m680 1 c-1 -17 -20 -33 -34 -28 -25 10 -19 32 9 33 14 1 25 -1 25
-5z m87 -13 c-3 -8 -6 -5 -6 6 -1 11 2 17 5 13 3 -3 4 -12 1 -19z m-1787 -21
c0 -8 -9 -22 -19 -31 -26 -24 -39 -1 -15 24 23 23 34 25 34 7z m-491 -23 c-6
-8 -18 -14 -25 -14 -20 0 -17 28 4 33 25 5 35 -3 21 -19z m426 16 c3 -5 1 -10
-4 -10 -6 0 -11 5 -11 10 0 6 2 10 4 10 3 0 8 -4 11 -10z m625 5 c0 -4 -7 -19
-15 -35 -17 -33 -65 -43 -65 -15 0 8 7 15 15 15 8 0 23 9 32 20 17 19 33 26
33 15z m-854 -38 c-3 -16 -13 -38 -21 -50 -13 -18 -15 -19 -15 -4 0 9 -5 26
-12 36 -16 26 -5 46 26 46 25 0 27 -3 22 -28z m1266 6 c11 2 24 10 29 18 6 10
9 7 9 -13 0 -33 20 -38 21 -5 1 15 4 11 9 -13 5 -19 4 -42 -1 -52 -12 -23 -12
-78 1 -78 6 0 10 14 10 30 0 17 5 30 10 30 6 0 10 -18 10 -40 0 -38 -2 -40
-31 -40 l-31 0 7 61 c9 77 -10 73 -20 -4 -6 -37 -10 -47 -15 -32 -7 19 -7 19
-19 -3 -14 -26 -49 -29 -58 -6 -3 9 2 49 12 88 21 81 28 98 33 74 2 -11 11
-17 24 -15z m809 0 c-8 -15 -10 -15 -11 -2 0 17 10 32 18 25 2 -3 -1 -13 -7
-23z m529 23 c0 -2 -9 -6 -20 -9 -11 -3 -20 -1 -20 4 0 5 9 9 20 9 11 0 20 -2
20 -4z m40 -21 c0 -9 -6 -12 -16 -8 -13 5 -13 7 -2 14 17 11 18 11 18 -6z
m-1183 -100 c-13 -57 -15 -60 -45 -63 -31 -3 -32 -2 -32 33 0 31 3 36 19 30
17 -5 21 0 27 32 3 21 14 46 23 57 15 18 16 18 19 -5 1 -13 -3 -51 -11 -84z
m953 95 c0 -5 -5 -10 -11 -10 -5 0 -7 5 -4 10 3 6 8 10 11 10 2 0 4 -4 4 -10z
m-420 -21 c0 -11 -4 -18 -10 -14 -5 3 -7 12 -3 20 7 21 13 19 13 -6z m148 10
c-2 -6 -8 -10 -13 -10 -5 0 -11 4 -13 10 -2 6 4 11 13 11 9 0 15 -5 13 -11z
m-1913 -9 c3 -5 20 -10 36 -10 44 0 59 -38 33 -85 -22 -41 -25 -42 -42 -14
-11 17 -11 20 4 17 9 -2 19 2 20 7 2 6 -7 11 -20 11 -20 2 -26 -4 -28 -24 -2
-14 -9 -27 -15 -30 -10 -3 -13 15 -13 67 0 65 9 87 25 61z m175 -60 c-4 -14
-13 -24 -20 -22 -7 1 -18 -3 -26 -9 -11 -9 -14 -8 -14 4 0 8 7 21 16 28 9 7
21 25 26 39 10 23 11 24 18 5 4 -11 4 -31 0 -45z m1800 40 c0 -11 -7 -20 -15
-20 -13 0 -14 4 -5 20 6 11 13 20 15 20 3 0 5 -9 5 -20z m202 -22 l-5 -33 -8
29 c-8 30 -3 50 10 42 4 -3 5 -20 3 -38z m168 32 c0 -5 -5 -10 -11 -10 -5 0
-7 5 -4 10 3 6 8 10 11 10 2 0 4 -4 4 -10z m-200 -10 c0 -5 -10 -10 -22 -10
-19 0 -20 2 -8 10 19 13 30 13 30 0z m-2505 -47 c-14 -33 -45 -77 -34 -48 26
69 34 85 41 85 5 0 1 -17 -7 -37z m2225 22 c0 -8 -4 -15 -10 -15 -5 0 -10 7
-10 15 0 8 5 15 10 15 6 0 10 -7 10 -15z m550 2 c0 -14 -19 -37 -31 -37 -4 0
-2 11 4 25 13 27 27 33 27 12z m-2870 -14 c0 -5 -4 -14 -9 -21 -6 -10 -10 -9
-14 7 -3 14 0 21 9 21 8 0 14 -3 14 -7z m1825 -2 c3 -5 1 -12 -5 -16 -5 -3
-10 1 -10 9 0 18 6 21 15 7z m985 -32 c0 -30 -17 -22 -22 11 -4 24 -2 27 9 19
7 -7 13 -20 13 -30z m-2400 4 c-1 -24 -2 -26 -11 -10 -5 9 -7 22 -4 27 10 17
15 11 15 -17z m2350 23 c0 -2 -7 -6 -15 -10 -8 -3 -15 -1 -15 4 0 6 7 10 15
10 8 0 15 -2 15 -4z m-2749 -53 c-9 -16 -10 -15 -11 8 0 14 3 29 8 33 12 12
14 -22 3 -41z m2362 22 c-3 -8 -9 -15 -14 -15 -10 0 -12 24 -3 33 11 11 24 -3
17 -18z m87 5 c0 -11 -5 -20 -12 -20 -6 0 -8 3 -5 7 4 3 2 12 -4 20 -9 10 -8
13 5 13 9 0 16 -8 16 -20z m-1610 -13 c10 -4 8 -6 -7 -6 -16 -1 -23 5 -23 17
0 10 3 13 8 6 4 -6 14 -14 22 -17z m-744 -14 c-10 -10 -19 5 -10 18 6 11 8 11
12 0 2 -7 1 -15 -2 -18z m119 8 c-3 -6 -11 -11 -17 -11 -6 0 -6 6 2 15 14 17
26 13 15 -4z m455 -7 c0 -8 -4 -14 -10 -14 -5 0 -10 9 -10 21 0 11 5 17 10 14
6 -3 10 -13 10 -21z m1200 12 c0 -9 -30 -14 -35 -6 -4 6 3 10 14 10 12 0 21
-2 21 -4z m860 -16 c0 -5 -4 -10 -10 -10 -5 0 -10 5 -10 10 0 6 5 10 10 10 6
0 10 -4 10 -10z m-284 -12 c4 -5 -9 -8 -30 -8 -20 0 -35 4 -32 8 6 10 52 10
62 0z m-2176 -34 c0 -12 -29 -14 -169 -14 -168 0 -201 4 -201 21 0 6 78 9 185
9 153 -1 185 -4 185 -16z m313 6 c44 0 77 -4 77 -10 0 -6 -47 -10 -120 -10
-66 0 -120 4 -120 8 0 18 16 24 50 18 19 -3 70 -6 113 -6z m2295 -236 l2 -239
-60 3 c-72 4 -80 19 -12 24 l47 4 -42 8 c-57 11 -54 26 5 28 l47 2 -47 3 c-27
2 -48 9 -48 14 0 6 12 8 29 4 17 -3 32 -2 36 4 4 7 -9 11 -35 11 -37 0 -41 2
-38 23 2 16 11 23 33 25 33 4 25 -12 -10 -21 -13 -3 -10 -5 11 -6 17 0 37 6
44 14 10 12 7 15 -13 20 -50 13 -80 2 -89 -31 -7 -26 -14 -33 -43 -38 -46 -9
-45 -24 2 -28 47 -4 55 -26 11 -30 -40 -4 -40 -19 -1 -33 l29 -10 3 -120 c1
-66 5 -123 7 -127 15 -24 19 5 17 122 l-3 130 45 0 c44 0 62 -14 28 -23 -10
-2 -3 -3 15 -1 l32 3 0 -150 0 -150 -812 7 c-1015 10 -1150 10 -1528 -1 -168
-4 -380 -4 -472 0 l-167 7 0 377 -1 377 168 -4 c92 -1 176 -4 187 -5 19 -2 20
-10 22 -204 1 -111 5 -208 10 -216 11 -20 118 -33 129 -16 4 7 6 109 5 226
l-3 213 121 0 c80 0 121 -4 121 -11 0 -158 13 -405 21 -416 6 -7 28 -13 49
-13 34 0 38 2 33 21 -4 16 -2 20 8 17 8 -3 14 -11 14 -19 0 -8 7 -14 15 -14
13 0 15 30 15 213 l0 212 220 0 c121 0 339 -2 485 -5 146 -3 318 -5 383 -5
l117 0 1 -122 c1 -68 4 -157 8 -198 l6 -75 40 -3 c22 -1 53 -3 70 -5 42 -3 56
29 49 118 -4 38 -10 74 -15 80 -5 5 -9 55 -9 112 l0 103 136 -4 c75 -3 139 -7
142 -11 4 -3 6 -70 5 -148 -2 -143 7 -211 30 -220 6 -2 41 -2 77 2 l65 6 -1
40 c0 22 -5 107 -9 189 l-8 149 126 -7 c81 -4 128 -3 132 4 4 7 -39 10 -124
10 -124 0 -131 1 -131 20 0 18 8 20 123 22 67 2 127 3 132 2 6 0 11 -90 13
-240z m-858 218 c0 -12 -87 -13 -600 -10 -467 2 -602 6 -612 16 -10 10 105 12
600 10 521 -1 612 -4 612 -16z m430 -3 c0 -21 -3 -22 -82 -16 -46 4 -111 7
-145 7 -49 0 -63 3 -63 15 0 13 23 15 145 15 142 0 145 0 145 -21z m-1664 -80
c7 -12 -15 -31 -28 -23 -9 6 1 34 12 34 5 0 12 -5 16 -11z m-386 -9 c0 -5 -7
-10 -15 -10 -8 0 -15 5 -15 10 0 6 7 10 15 10 8 0 15 -4 15 -10z m390 -54 c0
-8 -7 -16 -15 -20 -10 -4 -15 1 -15 14 0 11 7 20 15 20 8 0 15 -6 15 -14z
m1800 -6 c0 -5 -7 -10 -15 -10 -8 0 -15 5 -15 10 0 6 7 10 15 10 8 0 15 -4 15
-10z m8 -54 c3 -14 -2 -17 -24 -14 -32 4 -43 24 -17 31 27 7 38 2 41 -17z
m-1808 -1 c0 -8 -4 -15 -9 -15 -13 0 -22 16 -14 24 11 11 23 6 23 -9z m1282
-100 c3 -115 -4 -149 -16 -77 -9 58 -7 192 3 192 6 0 11 -52 13 -115z m78 85
c0 -5 -11 -10 -25 -10 -14 0 -25 5 -25 10 0 6 11 10 25 10 14 0 25 -4 25 -10z
m-1355 -40 c-3 -5 -13 -10 -21 -10 -8 0 -14 5 -14 10 0 6 9 10 21 10 11 0 17
-4 14 -10z m1365 0 c0 -5 -11 -10 -25 -10 -34 0 -32 -18 3 -23 26 -4 26 -4 5
-12 -26 -8 -21 -25 8 -25 10 0 19 -4 19 -10 0 -5 -11 -10 -25 -10 -14 0 -25
-4 -25 -10 0 -5 11 -10 25 -10 31 0 33 -17 3 -22 -13 -2 -22 -9 -20 -16 1 -6
-2 -12 -7 -12 -9 0 -21 72 -21 131 0 37 2 39 30 39 17 0 30 -4 30 -10z m-1365
-99 c3 -5 1 -12 -5 -16 -5 -3 -10 1 -10 9 0 18 6 21 15 7z m1938 -18 c-7 -2
-21 -2 -30 0 -10 3 -4 5 12 5 17 0 24 -2 18 -5z m-3 -63 c0 -5 -7 -10 -15 -10
-8 0 -15 5 -15 10 0 6 7 10 15 10 8 0 15 -4 15 -10z"/>
<g>
<path d="M810 4145 c0 -8 6 -15 14 -15 8 0 16 7 20 15 4 10 -1 15 -14 15 -11
0 -20 -7 -20 -15z"/>
</g>
<g>
<path d="M2203 4030 c3 -11 2 -22 -3 -25 -7 -4 -2 -55 5 -55 24 0 32 14 25 40
-5 19 -5 30 3 33 15 5 -1 27 -20 27 -10 0 -14 -6 -10 -20z"/>
</g>
<g>
<path d="M2189 3923 c-19 -5 -31 -60 -15 -67 7 -3 5 -9 -4 -15 -12 -8 -8 -11
18 -11 17 0 32 5 32 10 0 6 -4 10 -10 10 -5 0 -10 5 -10 10 0 6 6 10 14 10 8
0 16 13 18 30 5 31 -2 34 -43 23z"/>
</g>
<g>
<path d="M2164 3809 c-4 -7 -3 -14 4 -17 6 -2 8 -10 5 -18 -4 -10 4 -14 31
-14 20 0 36 5 36 10 0 6 -5 10 -10 10 -6 0 -10 8 -8 18 4 21 -46 30 -58 11z"/>
</g>
<g>
<path d="M2192 3545 c-23 -24 -30 -55 -11 -55 8 0 8 -4 -1 -15 -9 -11 -8 -19
7 -39 10 -14 21 -26 26 -26 10 0 9 28 -3 35 -5 3 -1 20 10 41 23 40 25 58 7
72 -9 8 -18 4 -35 -13z"/>
</g>
<g>
<path d="M2175 2981 c-3 -5 -2 -12 3 -15 13 -8 46 0 50 12 4 14 -44 16 -53 3z"/>
</g>
<g>
<path d="M2190 2940 c0 -5 9 -10 20 -10 11 0 20 5 20 10 0 6 -9 10 -20 10 -11
0 -20 -4 -20 -10z"/>
</g>
<g>
<path d="M2180 2740 c0 -5 5 -10 10 -10 6 0 10 5 10 10 0 6 -4 10 -10 10 -5 0
-10 -4 -10 -10z"/>
</g>
<g>
<path d="M2177 2561 c-6 -24 0 -31 25 -31 20 0 24 16 6 23 -7 3 -3 6 10 6 33
1 27 21 -7 21 -20 0 -30 -6 -34 -19z"/>
</g>
<g>
<path d="M2186 2511 c-3 -5 1 -11 9 -15 15 -6 29 7 18 18 -9 9 -21 8 -27 -3z"/>
</g>
<g>
<path d="M438 3989 c-21 -12 -23 -32 -5 -47 16 -14 51 22 43 44 -6 16 -15 17
-38 3z"/>
</g>
<g>
<path d="M411 3791 c-11 -7 -10 -10 5 -13 26 -5 64 2 64 13 0 12 -51 11 -69 0z"/>
</g>
<g>
<path d="M425 3750 c-4 -6 7 -10 24 -10 17 0 31 5 31 10 0 6 -11 10 -24 10
-14 0 -28 -4 -31 -10z"/>
</g>
<g>
<path d="M431 3710 c-10 -5 -8 -9 4 -14 23 -8 35 -8 35 3 0 13 -25 20 -39 11z"/>
</g>
<g>
<path d="M434 3126 c-10 -27 2 -43 14 -19 8 14 9 24 2 28 -6 3 -13 -1 -16 -9z"/>
</g>
<g>
<path d="M450 2500 c0 -5 7 -10 15 -10 8 0 15 5 15 10 0 6 -7 10 -15 10 -8 0
-15 -4 -15 -10z"/>
</g>
<g>
<path d="M468 632 c-10 -2 -18 -8 -18 -13 0 -13 27 -11 35 2 9 13 4 16 -17 11z"/>
</g>
<g>
<path d="M467 593 c-12 -11 -8 -23 8 -23 8 0 15 7 15 15 0 16 -12 20 -23 8z"/>
</g>
<g>
<path d="M460 500 c0 -13 11 -13 30 0 12 8 11 10 -7 10 -13 0 -23 -4 -23 -10z"/>
</g>
<g>
<path d="M430 440 c0 -5 16 -10 35 -10 19 0 35 5 35 10 0 6 -16 10 -35 10 -19
0 -35 -4 -35 -10z"/>
</g>
<g>
<path d="M805 3960 c-7 -31 -1 -50 16 -50 5 0 9 18 9 40 0 47 -16 53 -25 10z"/>
</g>
<g>
<path d="M857 3093 c-12 -11 -8 -23 8 -23 8 0 15 7 15 15 0 16 -12 20 -23 8z"/>
</g>
<g>
<path d="M860 2940 c19 -13 30 -13 30 0 0 6 -10 10 -22 10 -19 0 -20 -2 -8
-10z"/>
</g>
<g>
<path d="M1806 3811 c-9 -10 -16 -23 -16 -29 0 -19 20 -14 41 11 l19 22 6 -22
c9 -32 24 -28 24 5 0 25 -4 29 -29 30 -16 0 -36 -7 -45 -17z"/>
</g>
<g>
<path d="M840 3750 c0 -5 9 -10 20 -10 11 0 20 5 20 10 0 6 -9 10 -20 10 -11
0 -20 -4 -20 -10z"/>
</g>
<g>
<path d="M2505 3610 c3 -5 8 -10 11 -10 2 0 4 5 4 10 0 6 -5 10 -11 10 -5 0
-7 -4 -4 -10z"/>
</g>
<g>
<path d="M1096 3485 c19 -29 29 -27 19 4 -3 12 -13 21 -21 21 -12 0 -12 -4 2
-25z"/>
</g>
<g>
<path d="M1810 3440 c0 -5 7 -10 16 -10 8 0 12 5 9 10 -3 6 -10 10 -16 10 -5
0 -9 -4 -9 -10z"/>
</g>
<g>
<path d="M945 3411 c-3 -5 -1 -12 5 -16 5 -3 10 1 10 9 0 18 -6 21 -15 7z"/>
</g>
<g>
<path d="M1575 3410 c3 -5 8 -10 11 -10 2 0 4 5 4 10 0 6 -5 10 -11 10 -5 0
-7 -4 -4 -10z"/>
</g>
<g>
<path d="M1630 3390 c0 -5 5 -10 10 -10 6 0 10 5 10 10 0 6 -4 10 -10 10 -5 0
-10 -4 -10 -10z"/>
</g>
<g>
<path d="M1310 3370 c0 -5 5 -10 10 -10 6 0 10 5 10 10 0 6 -4 10 -10 10 -5 0
-10 -4 -10 -10z"/>
</g>
<g>
<path d="M1950 3370 c0 -5 5 -10 10 -10 6 0 10 5 10 10 0 6 -4 10 -10 10 -5 0
-10 -4 -10 -10z"/>
</g>
<g>
<path d="M1320 3330 c0 -5 5 -10 11 -10 5 0 7 5 4 10 -3 6 -8 10 -11 10 -2 0
-4 -4 -4 -10z"/>
</g>
<g>
<path d="M1950 3330 c0 -5 5 -10 10 -10 6 0 10 5 10 10 0 6 -4 10 -10 10 -5 0
-10 -4 -10 -10z"/>
</g>
<g>
<path d="M1654 2956 c4 -19 3 -37 -2 -40 -5 -3 -21 -36 -37 -73 -43 -100 -110
-211 -165 -269 -37 -39 -47 -57 -43 -73 5 -20 23 -30 23 -13 0 4 10 8 23 8 12
1 67 9 122 19 76 13 125 15 204 10 123 -8 141 -20 141 -89 0 -48 17 -106 31
-106 5 0 6 30 3 70 -5 48 -3 74 5 84 16 20 8 32 -64 96 -74 66 -131 148 -151
220 -36 129 -47 166 -50 178 -2 6 -13 12 -25 12 -19 0 -20 -4 -15 -34z m6
-150 c0 -8 -4 -18 -10 -21 -5 -3 -10 3 -10 14 0 12 5 21 10 21 6 0 10 -6 10
-14z m-34 -194 c-12 -13 -18 -13 -30 -2 -24 19 -19 27 15 22 28 -4 29 -6 15
-20z"/>
</g>
<g>
<path d="M1603 2498 c-20 -34 7 -78 48 -78 27 0 29 3 29 39 0 26 -5 41 -16 45
-25 10 -52 7 -61 -6z"/>
</g>
<g>
<path d="M1448 2383 c3 -57 9 -94 18 -104 8 -8 14 -27 14 -42 0 -14 5 -29 10
-32 17 -10 12 71 -5 85 -11 9 -15 34 -15 96 0 61 -3 84 -12 84 -10 0 -12 -22
-10 -87z"/>
</g>
<g>
<path d="M1990 2310 c0 -11 5 -20 10 -20 6 0 10 9 10 20 0 11 -4 20 -10 20 -5
0 -10 -9 -10 -20z"/>
</g>
<g>
<path d="M1985 2194 c-4 -29 -3 -50 4 -57 8 -8 11 -5 11 9 0 10 3 36 6 57 4
22 3 37 -4 37 -5 0 -13 -21 -17 -46z"/>
</g>
<g>
<path d="M1950 2070 c0 -16 5 -30 10 -30 6 0 10 14 10 30 0 17 -4 30 -10 30
-5 0 -10 -13 -10 -30z"/>
</g>
<g>
<path d="M1949 1993 c-1 -5 -3 -26 -4 -48 0 -22 -5 -104 -10 -182 -5 -94 -5
-143 2 -143 6 0 13 51 16 120 4 65 10 151 13 190 5 50 4 70 -5 70 -6 0 -12 -3
-12 -7z"/>
</g>
<g>
<path d="M1820 1940 c0 -5 5 -10 10 -10 6 0 10 5 10 10 0 6 -4 10 -10 10 -5 0
-10 -4 -10 -10z"/>
</g>
<g>
<path d="M2520 2364 c0 -8 5 -12 10 -9 6 3 10 10 10 16 0 5 -4 9 -10 9 -5 0
-10 -7 -10 -16z"/>
</g>
<g>
<path d="M1450 2040 c0 -5 5 -10 10 -10 6 0 10 5 10 10 0 6 -4 10 -10 10 -5 0
-10 -4 -10 -10z"/>
</g>
<g>
<path d="M1470 1950 c0 -5 5 -10 10 -10 6 0 10 5 10 10 0 6 -4 10 -10 10 -5 0
-10 -4 -10 -10z"/>
</g>
<g>
<path d="M1308 1441 c-25 -29 -38 -57 -38 -81 0 -25 -28 -66 -97 -139 -29 -31
-53 -60 -52 -66 0 -5 32 24 73 65 70 74 106 126 106 159 0 9 9 27 20 41 31 40
21 59 -12 21z"/>
</g>
<g>
<path d="M952 953 c-10 -4 -10 -9 3 -23 17 -19 45 -17 45 2 0 6 -7 8 -15 5 -8
-4 -17 -2 -20 3 -3 4 1 11 7 13 7 3 9 5 3 5 -5 0 -16 -2 -23 -5z"/>
</g>
<g>
<path d="M2200 1415 c0 -17 2 -18 24 -9 23 9 20 24 -4 24 -11 0 -20 -7 -20
-15z"/>
</g>
<g>
<path d="M2212 689 c2 -6 8 -10 13 -10 5 0 11 4 13 10 2 6 -4 11 -13 11 -9 0
-15 -5 -13 -11z"/>
</g>
<g>
<path d="M1576 953 c-2 -10 -7 -28 -11 -40 -4 -13 -2 -23 4 -23 5 0 12 8 15
18 2 9 7 27 11 40 4 12 2 22 -4 22 -5 0 -12 -8 -15 -17z"/>
</g>
<g>
<path d="M2782 311 c-19 -12 -11 -45 12 -49 15 -3 18 1 14 22 -4 17 0 26 11
29 12 4 11 5 -4 6 -11 0 -26 -3 -33 -8z"/>
</g>
<g>
<path d="M2900 240 c0 -5 12 -10 26 -10 14 0 23 4 19 10 -3 6 -15 10 -26 10
-10 0 -19 -4 -19 -10z"/>
</g>
</g>
<g>
<path d="M2575 4789 c-8 -48 5 -70 33 -53 26 17 11 94 -18 94 -5 0 -11 -18
-15 -41z m30 -18 c3 -5 1 -12 -5 -16 -5 -3 -10 1 -10 9 0 18 6 21 15 7z"/>
</g>
<g>
<path d="M2994 4220 c0 -146 2 -205 3 -132 2 72 2 192 0 265 -1 72 -3 13 -3
-133z"/>
</g>
<g>
<path d="M2460 4171 c0 -6 5 -13 10 -16 6 -3 10 1 10 9 0 9 -4 16 -10 16 -5 0
-10 -4 -10 -9z"/>
</g>
<g>
<path d="M2308 4143 c7 -3 16 -2 19 1 4 3 -2 6 -13 5 -11 0 -14 -3 -6 -6z"/>
</g>
<g>
<path d="M1035 4071 c-7 -12 12 -24 25 -16 11 7 4 25 -10 25 -5 0 -11 -4 -15
-9z"/>
</g>
<g>
<path d="M1680 4011 c0 -6 5 -13 10 -16 6 -3 10 1 10 9 0 9 -4 16 -10 16 -5 0
-10 -4 -10 -9z"/>
</g>
<g>
<path d="M1210 4000 c0 -5 5 -10 10 -10 6 0 10 5 10 10 0 6 -4 10 -10 10 -5 0
-10 -4 -10 -10z"/>
</g>
<g>
<path d="M1435 3990 c-3 -5 -1 -10 4 -10 6 0 11 5 11 10 0 6 -2 10 -4 10 -3 0
-8 -4 -11 -10z"/>
</g>
<g>
<path d="M1710 3959 c0 -5 5 -7 10 -4 6 3 10 8 10 11 0 2 -4 4 -10 4 -5 0 -10
-5 -10 -11z"/>
</g>
<g>
<path d="M2793 3945 c-15 -16 -16 -25 -5 -25 4 0 13 9 20 20 14 23 3 26 -15 5z"/>
</g>
<g>
<path d="M2991 3884 c0 -11 3 -14 6 -6 3 7 2 16 -1 19 -3 4 -6 -2 -5 -13z"/>
</g>
<g>
<path d="M2994 3655 c0 -110 2 -156 3 -103 2 53 2 143 0 200 -1 57 -3 13 -3
-97z"/>
</g>
<g>
<path d="M2994 3310 c0 -69 1 -97 3 -62 2 34 2 90 0 125 -2 34 -3 6 -3 -63z"/>
</g>
<g>
<path d="M2645 3271 c-25 -5 -30 -11 -32 -38 -2 -31 0 -33 35 -34 30 -2 32 -3
10 -6 -37 -6 -36 -20 2 -25 28 -4 30 -2 30 25 0 19 -4 28 -12 24 -7 -2 -22 -1
-33 4 -17 7 -16 8 8 8 22 1 27 6 27 26 0 14 -1 24 -2 24 -2 -1 -16 -4 -33 -8z"/>
</g>
<g>
<path d="M2655 3130 c-44 -8 -44 -38 0 -73 38 -31 46 -20 15 20 -11 15 -19 28
-17 30 8 8 36 -10 40 -25 3 -11 5 -7 6 8 1 36 -10 47 -44 40z"/>
</g>
<g>
<path d="M2634 3013 c4 -18 0 -30 -12 -39 -16 -12 -16 -13 1 -19 9 -4 24 -2
31 4 11 9 15 9 19 -1 3 -7 5 0 4 16 -1 15 -7 31 -14 33 -7 3 -13 11 -13 19 0
8 -5 14 -10 14 -6 0 -8 -12 -6 -27z"/>
</g>
<g>
<path d="M2660 2929 c-8 -4 -24 -11 -35 -15 -18 -7 -17 -8 8 -12 34 -4 36 -22
3 -22 -28 0 -43 -15 -23 -23 7 -3 25 -3 40 0 20 4 27 1 27 -11 0 -11 -9 -16
-30 -16 -20 0 -30 -5 -30 -15 0 -9 9 -15 25 -15 16 0 25 -6 25 -16 0 -12 -6
-15 -25 -10 -20 5 -25 3 -25 -14 0 -15 7 -20 25 -20 14 0 25 -4 25 -10 0 -5
-11 -10 -25 -10 -16 0 -25 -6 -25 -15 0 -9 9 -15 25 -15 15 0 25 -6 25 -15 0
-9 -8 -14 -22 -12 -14 1 -23 -4 -26 -15 -3 -14 3 -18 29 -18 31 0 31 -1 26
-37 -4 -21 -2 -45 3 -53 7 -10 10 30 12 120 4 223 -4 285 -32 269z"/>
</g>
<g>
<path d="M2613 2596 c0 -7 6 -13 14 -13 7 0 13 4 13 8 0 4 -6 9 -13 12 -8 3
-14 0 -14 -7z"/>
</g>
<g>
<path d="M2763 2303 c52 -4 60 -7 75 -33 9 -17 21 -30 25 -30 12 0 32 22 39
42 4 9 17 18 30 21 17 3 15 5 -9 6 -27 1 -34 -3 -39 -24 -8 -31 -26 -32 -39
-2 -9 19 -18 22 -75 23 l-65 1 58 -4z"/>
</g>
<g>
<path d="M2940 2270 c0 -5 5 -10 10 -10 6 0 10 5 10 10 0 6 -4 10 -10 10 -5 0
-10 -4 -10 -10z"/>
</g>
<g>
<path d="M2630 2130 c0 -11 7 -20 15 -20 8 0 15 6 15 14 0 8 -7 16 -15 20 -10
4 -15 -1 -15 -14z"/>
</g>
<g>
<path d="M2640 1200 c0 -5 7 -10 15 -10 8 0 15 5 15 10 0 6 -7 10 -15 10 -8 0
-15 -4 -15 -10z"/>
</g>
<g>
<path d="M2685 439 c-4 -6 -5 -13 -2 -16 7 -7 27 6 27 18 0 12 -17 12 -25 -2z"/>
</g>
</g>
</svg>
