<?xml version="1.0" standalone="no"?>
<!DOCTYPE svg PUBLIC "-//W3C//DTD SVG 20010904//EN"
 "http://www.w3.org/TR/2001/REC-SVG-20010904/DTD/svg10.dtd">
<svg version="1.0" xmlns="http://www.w3.org/2000/svg"
 width="300.000000pt" height="518.000000pt" viewBox="0 0 300.000000 518.000000"
 preserveAspectRatio="xMidYMid meet">
<metadata>
Created by potrace 1.15, written by Peter Selinger 2001-2017
</metadata>
<g transform="translate(0.000000,518.000000) scale(0.100000,-0.100000)"
fill="#000000" stroke="none">
<g>
<path d="M9 5178 c-5 -16 -3 -868 2 -870 4 -2 3 -30 -2 -63 -5 -33 -8 -1002
-8 -2152 l0 -2093 1501 0 1501 0 -7 553 c-3 303 -8 1243 -11 2087 -3 844 -8
1761 -11 2038 -6 493 -7 502 -26 502 -19 0 -20 -5 -15 -109 3 -61 3 -112 0
-115 -2 -2 -17 2 -31 10 -71 36 -189 77 -302 104 -30 8 -59 17 -64 22 -6 4
-39 8 -74 8 -81 0 -114 -19 -187 -107 -36 -44 -64 -93 -89 -156 -41 -104 -43
-124 -20 -215 15 -59 15 -72 1 -146 -9 -44 -19 -108 -22 -140 -4 -33 -17 -83
-29 -110 -25 -55 -95 -126 -124 -126 -10 0 -41 -11 -67 -25 -60 -30 -101 -40
-110 -26 -8 14 -155 15 -155 1 0 -5 18 -10 40 -10 23 0 40 -5 40 -11 0 -15
-96 -5 -116 12 -25 21 -17 86 17 136 31 45 32 45 48 25 27 -34 57 -36 106 -8
41 24 69 62 163 211 22 36 36 76 33 98 -1 10 9 29 23 42 14 13 28 36 31 52 3
15 12 40 20 56 l14 27 -50 0 c-28 0 -59 -5 -71 -11 -16 -9 -24 -7 -41 10 -12
11 -26 19 -32 18 -5 -1 -11 8 -13 21 -2 16 -8 22 -18 18 -8 -3 -14 -1 -14 5 0
6 -14 27 -30 48 -20 24 -28 44 -24 54 7 19 -4 21 -40 7 -23 -8 -28 -5 -57 36
-17 25 -41 49 -52 54 -19 7 -18 9 16 15 46 9 49 25 4 25 -25 0 -39 7 -54 29
l-22 28 28 27 c15 14 37 26 49 26 13 0 22 6 22 15 0 13 -27 15 -207 13 -154
-2 -207 -6 -211 -15 -2 -9 8 -13 31 -13 26 0 39 -6 51 -24 15 -24 14 -26 -20
-55 -24 -22 -45 -31 -69 -31 -38 0 -56 -17 -28 -26 10 -3 43 -19 74 -35 59
-30 69 -29 69 7 0 25 25 39 37 21 13 -20 33 -81 33 -100 0 -30 29 -77 47 -77
16 0 16 1 0 13 -41 31 -43 115 -3 142 26 19 36 19 36 -1 0 -11 5 -14 18 -9 55
23 65 15 36 -30 -19 -29 -11 -45 21 -45 12 0 26 -7 29 -16 4 -10 13 -13 27 -9
18 6 20 3 17 -32 -2 -31 -6 -38 -23 -35 -102 13 -119 12 -142 -10 -13 -12 -23
-33 -23 -49 0 -35 50 -79 91 -79 28 0 30 2 27 33 -2 26 -8 33 -28 35 -23 2
-24 1 -7 -11 15 -13 24 -37 12 -37 -17 0 -55 26 -65 45 -20 36 3 62 56 63 42
0 44 -1 44 -29 0 -33 31 -69 59 -69 17 0 31 -18 31 -41 0 -18 -40 -9 -51 12
-7 13 -14 18 -20 12 -16 -16 2 -44 33 -50 35 -7 26 -20 -22 -28 -93 -16 -118
-51 -122 -165 l-3 -85 -47 0 c-26 0 -49 -4 -50 -10 -2 -5 4 -10 12 -11 34 -2
40 -5 40 -16 0 -8 -17 -14 -45 -15 -53 -2 -65 -8 -65 -34 0 -21 7 -23 30 -9 9
5 19 5 26 -1 7 -5 21 -6 35 -1 35 12 50 9 63 -11 8 -13 8 -19 -1 -25 -13 -8 0
-89 18 -106 5 -6 9 -25 9 -43 0 -30 -3 -33 -30 -33 -24 0 -31 5 -36 28 -3 15
-10 48 -17 75 -8 36 -8 50 1 59 18 18 14 30 -7 23 -13 -4 -23 0 -29 11 -7 12
-11 13 -16 5 -4 -7 -3 -17 2 -24 9 -11 16 -50 13 -68 -1 -4 -20 -3 -43 3 -30
6 -56 23 -95 63 -71 71 -86 109 -77 191 4 41 3 64 -4 64 -11 0 -22 -34 -22
-72 0 -16 -3 -28 -7 -28 -17 0 -53 55 -53 82 0 15 -4 28 -10 28 -13 0 -13 -56
1 -81 9 -19 9 -19 -10 -10 -11 6 -31 11 -44 11 -80 0 -73 128 11 177 30 18 33
22 15 23 -45 0 -113 -82 -113 -139 0 -31 48 -81 78 -81 l25 0 -23 -25 c-27
-29 -49 -31 -91 -10 -53 28 -65 101 -24 139 31 29 32 42 3 49 -25 7 -38 0 -20
-12 8 -5 6 -12 -8 -24 -22 -19 -27 -77 -11 -121 12 -31 93 -80 119 -72 13 5
22 -1 30 -19 14 -30 55 -34 84 -8 17 15 19 15 36 0 10 -10 23 -17 29 -17 13 0
23 -47 23 -105 0 -51 -22 -74 -70 -73 -19 1 -63 -2 -96 -7 -58 -7 -65 -6 -118
25 -31 17 -75 55 -99 83 -23 28 -59 69 -80 90 -42 45 -54 79 -39 110 6 12 18
56 27 98 11 59 12 84 4 109 -6 17 -9 55 -6 83 5 57 -15 210 -35 270 -17 47
-73 118 -117 147 -27 18 -42 21 -80 16 -25 -3 -95 -10 -154 -14 -59 -5 -113
-14 -119 -20 -7 -7 -18 -12 -24 -12 -7 0 -27 -13 -44 -29 -18 -16 -45 -31 -60
-34 -15 -4 -40 -9 -54 -13 l-27 -6 3 118 3 119 715 3 c393 1 1044 6 1445 11
697 7 664 8 -727 9 -802 1 -1458 1 -1459 0z m1504 -113 c17 -24 17 -26 -4 -55
-29 -39 -60 -39 -83 0 -17 30 -17 31 6 55 29 31 58 31 81 0z m57 15 c0 -5 -7
-10 -15 -10 -8 0 -15 5 -15 10 0 6 7 10 15 10 8 0 15 -4 15 -10z m875 -27 c-6
-27 -6 -27 9 -8 16 18 17 19 46 2 33 -20 39 -13 13 15 -9 11 -11 18 -5 18 7 0
12 -4 12 -9 0 -5 18 -11 39 -15 48 -7 64 -26 23 -26 -16 0 -32 -3 -35 -7 -10
-10 -57 -13 -54 -3 3 12 -17 13 -21 1 -2 -6 5 -14 15 -17 10 -4 28 -16 39 -26
21 -19 21 -19 20 4 -1 19 4 22 23 20 21 -2 50 -26 51 -42 1 -13 -102 -1 -119
14 -13 12 -21 14 -26 6 -8 -13 12 -40 31 -40 7 0 16 -5 20 -11 5 -9 -1 -10
-22 -5 -31 7 -67 43 -58 57 9 15 -13 10 -29 -6 -8 -8 -17 -11 -21 -8 -3 4 -6
-6 -6 -22 0 -19 -11 -38 -36 -62 -43 -40 -39 -59 13 -69 65 -11 89 -47 31 -44
-18 1 -43 2 -55 1 -29 -1 -31 -31 -2 -31 15 0 19 -4 15 -16 -3 -9 -6 -19 -6
-24 0 -4 -9 -10 -19 -13 -13 -3 -20 -13 -19 -28 2 -35 17 -49 50 -49 26 0 29
-2 18 -15 -10 -12 -10 -15 4 -15 9 0 16 -4 16 -10 0 -5 -18 -10 -40 -10 -40 0
-54 -15 -25 -26 21 -8 19 -24 -4 -24 -10 0 -24 -7 -31 -15 -7 -8 -17 -12 -22
-9 -6 4 -2 -5 7 -20 10 -14 28 -29 41 -32 39 -10 28 -27 -12 -21 -32 5 -35 4
-32 -16 1 -12 -2 -28 -7 -36 -5 -10 -4 -16 4 -19 9 -3 9 -7 -1 -19 -10 -12 -9
-17 4 -27 15 -11 13 -14 -15 -31 l-32 -19 33 -8 c29 -8 37 -28 11 -28 -6 0 -7
5 -4 10 14 23 -16 8 -31 -16 -9 -14 -23 -23 -30 -20 -15 6 -22 -14 -22 -63 -1
-38 29 -68 60 -63 9 2 19 -1 22 -7 12 -18 -62 -3 -85 18 -17 15 -26 18 -40 10
-11 -5 -19 -17 -19 -25 0 -8 -5 -12 -11 -9 -6 4 -8 13 -5 21 3 7 1 16 -4 19
-13 8 0 35 17 35 9 0 13 -6 10 -14 -4 -10 -1 -13 9 -9 21 8 17 18 -11 33 -14
7 -25 17 -25 22 0 4 11 8 25 8 14 0 25 5 25 10 0 6 -7 10 -15 10 -23 0 -18 17
8 24 21 7 21 8 3 15 -19 7 -19 8 2 13 22 6 31 28 12 28 -5 0 -10 7 -10 16 0
10 6 14 15 10 18 -7 20 15 3 32 -10 10 -8 14 10 19 24 6 25 30 1 25 -8 -1 -5
4 5 13 17 13 18 15 3 15 -9 0 -17 4 -17 9 0 23 14 41 31 41 10 0 19 5 19 10 0
6 -9 10 -21 10 -11 0 -17 5 -14 10 3 6 15 10 26 10 30 0 22 20 -8 21 l-28 2
28 4 c28 4 38 23 12 23 -17 0 -20 25 -5 35 15 9 12 25 -5 25 -8 0 -15 4 -15 9
0 5 7 11 15 15 8 3 15 12 15 21 0 18 -17 20 -23 3 -2 -7 -8 -9 -13 -5 -5 4 -4
11 2 15 6 4 13 17 16 30 5 16 2 22 -9 22 -14 0 -14 2 0 18 20 22 22 48 5 56
-7 3 -3 3 10 0 17 -4 22 -1 22 15 0 13 -7 21 -17 21 -14 1 -11 6 10 22 22 16
25 23 15 29 -9 6 -7 9 9 9 28 0 38 15 11 17 -26 2 -32 9 -23 23 4 7 16 10 26
7 21 -6 26 8 7 16 -7 3 -1 6 15 6 33 1 36 18 5 24 -17 3 -15 5 8 6 17 0 37 8
44 16 10 12 8 16 -11 23 l-23 9 21 11 c16 9 23 9 26 -1 4 -9 8 -8 16 3 7 10 6
17 -2 22 -18 12 1 10 24 -2 18 -10 24 -4 20 23 0 4 6 7 14 7 12 0 14 -7 10
-27z m-1916 -35 c-4 -31 2 -40 21 -35 14 3 20 0 20 -10 0 -14 2 -14 19 1 18
16 20 15 55 -26 32 -37 35 -44 21 -54 -19 -14 -20 -34 0 -34 22 0 20 -56 -2
-70 -13 -8 -14 -13 -5 -16 6 -3 12 -13 12 -21 0 -11 7 -14 25 -9 14 4 25 2 25
-3 0 -5 -9 -11 -20 -14 -11 -3 -20 -11 -20 -17 0 -7 8 -10 20 -7 11 3 20 2 20
-3 0 -4 -9 -10 -21 -13 -12 -3 -18 -10 -14 -17 4 -6 14 -9 22 -6 12 5 14 -1
10 -31 -9 -75 -29 -119 -46 -108 -4 2 -8 -2 -8 -10 0 -11 4 -12 14 -4 18 16
30 -16 13 -36 -10 -12 -9 -15 9 -15 25 0 29 -31 6 -50 -8 -7 -15 -9 -15 -5 0
4 -7 2 -15 -5 -22 -19 -18 -32 8 -24 26 8 17 -4 -15 -20 -23 -12 -32 -46 -14
-57 5 -4 11 -30 14 -58 6 -65 46 -112 82 -99 20 7 21 6 10 -7 -17 -21 -4 -32
20 -17 27 16 26 -1 -2 -38 -24 -33 -17 -51 12 -32 18 11 20 9 20 -13 0 -18 -5
-25 -19 -25 -10 0 -24 -7 -31 -15 -15 -19 -55 -21 -43 -2 4 6 8 25 9 40 2 25
-1 28 -20 23 -25 -6 -54 8 -37 18 6 4 11 16 11 28 0 21 -7 21 -67 3 -15 -5
-23 -3 -23 4 0 6 6 11 13 11 17 0 64 50 49 51 -16 2 -24 4 -44 13 -11 5 -28 0
-47 -13 -17 -12 -32 -17 -36 -12 -3 6 4 15 15 21 24 13 26 30 4 30 -23 0 0 27
29 36 12 3 27 11 34 16 11 9 11 10 -22 93 -5 11 -7 24 -6 28 1 4 -6 16 -15 25
-11 10 -13 17 -5 20 15 5 14 32 -1 32 -9 0 -10 3 -2 8 15 10 26 59 15 66 -5 3
-21 -1 -37 -8 -44 -21 -72 -28 -78 -18 -6 10 78 72 99 72 8 0 15 7 15 16 0 8
13 20 29 25 24 9 28 15 28 49 0 27 -4 40 -16 43 -19 5 -29 81 -11 92 18 11 11
27 -11 22 -17 -5 -18 -3 -7 10 11 14 6 15 -42 8 -30 -4 -65 -13 -77 -21 -26
-17 -33 -17 -33 -4 0 6 25 21 55 35 30 13 55 26 55 30 0 9 -24 49 -35 58 -20
15 -78 -5 -130 -44 -31 -23 -63 -39 -79 -39 -30 0 -65 33 -66 63 0 9 -6 17
-14 17 -9 0 -12 7 -9 20 3 11 13 20 23 20 10 0 21 6 23 13 4 9 8 8 16 -3 9
-13 11 -12 16 1 9 23 62 21 68 -3 6 -23 35 -23 60 0 10 9 37 22 60 29 56 15
58 15 56 1z m2131 -19 c0 -11 -27 -12 -34 0 -3 4 -3 11 0 14 8 8 34 -3 34 -14z
m-1276 -10 c-3 -5 -10 -7 -15 -3 -5 3 -7 10 -3 15 3 5 10 7 15 3 5 -3 7 -10 3
-15z m180 0 c-3 -5 -10 -7 -15 -3 -5 3 -7 10 -3 15 3 5 10 7 15 3 5 -3 7 -10
3 -15z m1156 -9 c0 -5 -4 -10 -10 -10 -5 0 -10 5 -10 10 0 6 5 10 10 10 6 0
10 -4 10 -10z m73 -24 c9 -1 22 -7 27 -12 12 -12 51 -157 44 -164 -3 -3 -16 8
-30 25 -15 20 -21 37 -18 52 4 13 2 23 -4 23 -6 0 -12 10 -14 22 -2 15 -12 25
-28 28 -15 3 -26 12 -27 23 -1 13 3 16 15 11 10 -3 25 -7 35 -8z m-1223 -6 c0
-5 -9 -10 -21 -10 -11 0 -17 5 -14 10 3 6 13 10 21 10 8 0 14 -4 14 -10z
m1147 -10 c2 -20 -8 -26 -20 -13 -4 3 -2 12 4 20 15 17 14 17 16 -7z m-2527 1
c0 -6 -4 -13 -10 -16 -5 -3 -10 1 -10 9 0 9 5 16 10 16 6 0 10 -4 10 -9z
m1145 -1 c3 -5 1 -10 -4 -10 -6 0 -11 5 -11 10 0 6 2 10 4 10 3 0 8 -4 11 -10z
m325 -42 c18 -26 19 -29 4 -17 -10 9 -27 19 -36 22 -21 7 -24 27 -5 27 7 0 24
-15 37 -32z m760 12 c0 -5 -4 -10 -10 -10 -5 0 -10 5 -10 10 0 6 5 10 10 10 6
0 10 -4 10 -10z m510 -38 c0 -15 -2 -15 -10 -2 -13 20 -13 33 0 25 6 -3 10
-14 10 -23z m-1288 1 c19 -17 24 -43 9 -43 -5 0 -11 7 -15 15 -3 8 -17 15 -30
15 -18 0 -24 4 -20 15 8 20 33 19 56 -2z m902 -18 c-7 -17 -20 -20 -28 -6 -7
10 3 21 20 21 8 0 11 -6 8 -15z m-2304 -35 c9 -6 10 -10 3 -10 -6 0 -18 -3
-27 -6 -11 -4 -16 -1 -16 10 0 18 17 21 40 6z m145 -4 c-11 -9 -24 -16 -28
-16 -19 0 -67 -45 -67 -63 0 -30 19 -57 40 -57 25 0 26 -17 1 -25 -11 -3 -22
-12 -25 -20 -3 -8 -13 -15 -22 -15 -15 0 -14 4 6 25 20 21 21 25 7 31 -10 3
-28 -3 -44 -16 -26 -20 -28 -20 -40 -4 -18 25 -16 34 13 61 23 21 25 22 19 3
-5 -16 -3 -19 10 -14 11 5 15 14 11 30 -3 12 -1 26 4 29 6 4 8 10 5 15 -7 11
22 33 33 26 6 -3 14 0 20 7 6 7 26 14 44 15 31 3 32 2 13 -12z m1381 0 c8 -8
14 -24 14 -35 0 -11 5 -23 10 -26 6 -3 10 -17 10 -31 0 -18 -5 -24 -21 -24
-31 0 -47 -22 -42 -60 l4 -35 -15 33 c-13 27 -20 32 -50 32 -26 0 -36 5 -41
20 -8 24 3 43 20 36 23 -8 46 28 39 61 -5 25 -2 32 12 36 34 9 45 7 60 -7z
m-1321 -56 c-10 -11 -22 -17 -27 -14 -12 8 11 34 30 34 13 0 12 -3 -3 -20z
m2205 10 c0 -5 -4 -10 -10 -10 -5 0 -10 5 -10 10 0 6 5 10 10 10 6 0 10 -4 10
-10z m287 -64 c-2 -20 -33 -31 -43 -15 -3 5 5 9 17 9 l22 0 -22 24 c-14 14
-20 30 -16 37 11 16 46 -30 42 -55z m-97 46 c0 -13 -41 -56 -73 -75 -15 -10
-26 -13 -25 -8 2 5 -6 16 -16 24 -18 14 -17 15 20 27 21 7 48 19 59 26 22 16
35 18 35 6z m-2488 -24 c-9 -9 -15 -9 -24 0 -9 9 -7 12 12 12 19 0 21 -3 12
-12z m172 -13 c-7 -16 -24 -21 -24 -6 0 8 7 13 27 20 1 1 0 -6 -3 -14z m2149
8 c-7 -2 -21 -2 -30 0 -10 3 -4 5 12 5 17 0 24 -2 18 -5z m-2293 -24 c0 -5 -4
-9 -10 -9 -5 0 -10 7 -10 16 0 8 5 12 10 9 6 -3 10 -10 10 -16z m1480 -44 c0
-12 -6 -27 -12 -33 -10 -10 -10 -17 0 -32 7 -11 10 -31 6 -44 -4 -16 2 -32 21
-54 l27 -32 -30 -6 c-21 -4 -32 -14 -37 -31 -8 -32 10 -53 46 -53 42 0 36 -16
-18 -45 -27 -14 -60 -33 -75 -43 -25 -15 -28 -15 -47 2 -17 15 -20 26 -15 56
4 27 2 41 -11 54 -29 29 -3 39 27 11 15 -14 39 -25 53 -25 35 0 31 14 -7 25
-17 6 -36 18 -42 28 -9 15 -6 22 13 38 31 26 23 69 -14 69 -18 0 -25 5 -25 20
0 15 7 20 26 20 23 0 25 3 20 28 -8 32 7 55 49 76 32 17 45 9 45 -29z m-1421
12 c-72 -53 -102 -79 -140 -119 -42 -44 -50 -48 -92 -48 -26 0 -47 3 -47 8 0
7 47 32 61 32 4 0 53 31 110 69 57 38 106 67 108 65 2 -2 2 -5 0 -7z m1469
-16 c3 -8 -1 -12 -9 -9 -7 2 -15 10 -17 17 -3 8 1 12 9 9 7 -2 15 -10 17 -17z
m122 2 c0 -3 -7 -15 -17 -25 -9 -11 -11 -18 -5 -18 22 0 12 -28 -19 -60 -22
-22 -30 -37 -26 -52 3 -12 1 -30 -4 -40 -8 -15 -13 -17 -25 -7 -8 6 -14 17
-14 25 0 7 -10 23 -22 34 -21 20 -22 22 -6 48 12 18 24 26 39 24 22 -2 51 26
42 41 -10 17 7 37 32 37 14 0 25 -3 25 -7z m794 -43 c-15 -22 -31 -37 -36 -34
-9 6 -3 16 32 55 28 32 30 19 4 -21z m-49 20 c-3 -5 -14 -10 -23 -10 -15 0
-15 2 -2 10 20 13 33 13 25 0z m160 0 c3 -5 -1 -10 -10 -10 -9 0 -13 5 -10 10
3 6 8 10 10 10 2 0 7 -4 10 -10z m-2721 -31 c-3 -5 -10 -7 -15 -3 -5 3 -7 10
-3 15 3 5 10 7 15 3 5 -3 7 -10 3 -15z m1691 10 c12 -19 -5 -23 -22 -6 -16 16
-16 17 -1 17 9 0 20 -5 23 -11z m535 7 c0 -2 -9 -6 -20 -9 -11 -3 -20 -1 -20
4 0 5 9 9 20 9 11 0 20 -2 20 -4z m284 -11 c-6 -14 -44 -22 -44 -10 0 4 29 19
47 24 1 1 0 -6 -3 -14z m-2294 -21 c0 -3 -13 -10 -30 -15 -36 -13 -41 -34 -5
-25 39 10 30 -1 -19 -24 -60 -27 -80 -25 -58 5 28 39 112 84 112 59z m2240 2
c0 -2 -9 -6 -20 -9 -11 -3 -20 -1 -20 4 0 5 9 9 20 9 11 0 20 -2 20 -4z
m-2500 -26 c0 -5 -4 -10 -10 -10 -5 0 -10 5 -10 10 0 6 5 10 10 10 6 0 10 -4
10 -10z m2603 2 c3 -4 -3 -17 -13 -30 -10 -12 -20 -17 -22 -11 -2 7 -20 3 -51
-11 -25 -12 -52 -20 -59 -17 -7 2 13 17 45 32 31 15 60 31 63 36 6 11 31 12
37 1z m-328 -22 c-3 -5 -11 -10 -16 -10 -6 0 -7 5 -4 10 3 6 11 10 16 10 6 0
7 -4 4 -10z m145 -3 c0 -33 -84 -97 -126 -96 -25 0 -22 3 19 16 45 15 47 17
33 37 -7 12 -18 21 -24 21 -21 0 -22 13 -2 18 11 3 22 1 25 -3 3 -5 18 -2 33
6 34 17 42 18 42 1z m-2458 -32 c-5 -26 -67 -85 -89 -85 -17 0 -17 3 10 50 21
37 63 71 78 64 4 -2 4 -15 1 -29z m2776 29 c34 -10 26 -24 -10 -20 -18 3 -41
5 -51 5 -10 1 -15 6 -12 11 7 11 39 13 73 4z m-1153 -35 c0 -7 -8 -15 -17 -17
-18 -3 -25 18 -11 32 10 10 28 1 28 -15z m-100 -18 c8 -17 11 -32 6 -36 -11
-6 -53 49 -44 59 12 12 23 6 38 -23z m-1247 1 c5 -17 -48 -36 -62 -22 -8 8 -4
12 12 16 12 4 22 11 22 16 0 13 23 5 28 -10z m-96 -44 c35 -17 36 -28 1 -28
-15 0 -53 -7 -86 -17 -52 -14 -58 -18 -53 -38 5 -18 -1 -25 -34 -38 -22 -8
-40 -14 -40 -12 0 14 25 55 37 59 9 4 12 1 8 -7 -4 -6 2 -1 13 13 11 13 20 28
19 32 -3 10 85 57 98 53 6 -2 22 -9 37 -17z m148 18 c0 -3 -4 -8 -10 -11 -5
-3 -10 -1 -10 4 0 6 5 11 10 11 6 0 10 -2 10 -4z m1927 -2 c-3 -3 -12 -4 -19
-1 -8 3 -5 6 6 6 11 1 17 -2 13 -5z m-475 -28 c15 0 15 -2 -2 -18 -28 -26 -50
-23 -50 8 0 21 3 25 18 19 9 -5 25 -8 34 -9z m-1455 -22 c-9 -9 -28 6 -21 18
4 6 10 6 17 -1 6 -6 8 -13 4 -17z m1187 -134 c-9 -30 -21 -64 -26 -75 -21 -45
-56 -106 -63 -108 -4 -1 -13 12 -20 30 -11 27 -11 34 2 53 12 17 13 27 4 46
-6 13 -17 24 -26 24 -8 0 -15 7 -15 15 0 9 9 15 25 15 22 0 25 4 25 38 0 49
17 71 58 76 18 2 36 7 40 11 15 15 13 -73 -4 -125z m806 80 c0 -5 -4 -10 -9
-10 -6 0 -13 5 -16 10 -3 6 1 10 9 10 9 0 16 -4 16 -10z m93 3 c-7 -2 -19 -2
-25 0 -7 3 -2 5 12 5 14 0 19 -2 13 -5z m262 -25 c11 -1 23 -7 28 -12 5 -7 11
-5 18 7 11 19 50 22 80 7 18 -10 19 -23 19 -235 0 -124 -3 -225 -7 -225 -3 0
-14 7 -24 16 -20 18 -99 32 -99 17 0 -5 18 -16 41 -23 22 -8 45 -22 50 -33 15
-26 3 -34 -20 -13 -21 19 -70 27 -70 11 0 -5 11 -13 25 -17 15 -4 34 -17 43
-30 26 -37 53 -90 48 -95 -3 -2 -11 8 -19 23 -17 36 -58 60 -84 49 -18 -7 -17
-8 5 -14 30 -8 59 -46 67 -90 6 -31 5 -33 -15 -26 -24 7 -26 -2 -6 -29 8 -11
15 -30 15 -42 0 -32 17 -38 24 -9 15 60 21 14 18 -142 -2 -115 -7 -170 -15
-175 -9 -6 -9 -10 1 -17 17 -10 11 -47 -6 -44 -16 4 -15 -10 0 -25 10 -10 10
-15 -2 -22 -21 -14 -30 -12 -36 5 -10 25 -25 17 -18 -10 7 -28 -5 -32 -36 -13
-28 18 -39 -1 -12 -22 23 -19 28 -30 12 -30 -17 0 -50 43 -50 67 0 13 -5 23
-11 23 -14 0 -6 -77 9 -92 5 -5 27 -15 48 -23 41 -14 46 -25 31 -62 -8 -17
-16 -21 -34 -17 -14 4 -23 2 -23 -5 0 -6 8 -12 18 -12 23 -2 -35 -16 -70 -18
-18 -1 -28 4 -28 13 0 8 -12 29 -27 47 -20 23 -28 43 -28 70 0 43 -22 61 -41
35 -6 -9 -17 -16 -25 -16 -10 1 -8 5 5 15 13 10 17 21 12 38 -7 30 20 61 29
33 3 -9 7 -24 10 -33 5 -14 10 -11 28 15 15 21 28 30 40 26 10 -3 19 1 23 10
3 8 12 12 19 10 20 -8 65 65 65 106 0 39 -64 145 -81 134 -6 -4 -4 -14 6 -27
33 -45 56 -106 49 -132 -9 -37 -27 -31 -21 8 5 34 -19 93 -48 117 -11 9 -14
22 -10 40 4 18 -1 34 -15 53 l-21 27 25 0 c43 0 29 18 -20 26 -57 8 -89 -12
-121 -78 -28 -58 -79 -86 -121 -66 -48 23 -40 108 10 108 15 0 18 -5 13 -20
-4 -14 -2 -20 9 -20 20 0 31 38 15 56 -11 13 -64 15 -116 4 -11 -2 -34 -67
-29 -83 3 -12 0 -27 -6 -34 -8 -10 -6 -18 7 -33 11 -12 15 -26 10 -37 -6 -16
-8 -16 -16 5 -13 35 -28 17 -23 -26 4 -28 3 -34 -5 -22 -10 13 -13 12 -26 -4
-25 -33 -14 -50 14 -23 15 13 14 12 -17 -54 -15 -32 -33 -52 -56 -63 -21 -10
-44 -33 -58 -57 -26 -47 -48 -48 -62 -1 -10 35 -22 41 -29 15 -3 -10 -5 -5 -6
12 -1 36 4 44 47 74 48 33 39 47 -12 18 -26 -14 -42 -19 -40 -12 6 13 77 65
91 65 4 0 17 10 30 22 29 27 31 73 3 88 -20 11 -28 40 -11 40 6 0 11 15 13 33
2 26 10 36 43 52 22 11 42 21 44 23 2 1 1 5 -2 9 -4 3 -18 1 -31 -5 -13 -6
-27 -8 -30 -5 -8 9 80 53 106 53 11 0 18 5 15 13 -2 6 -11 11 -21 9 -9 -2 -16
2 -16 8 0 13 61 40 90 40 24 0 27 20 3 21 -12 0 -7 5 12 14 17 7 35 10 40 7 6
-4 20 -5 32 -4 12 2 34 -5 49 -15 l27 -17 -24 -7 -24 -7 23 -7 c12 -4 22 -14
22 -21 0 -19 26 -18 34 2 9 25 -22 73 -59 91 -19 9 -35 22 -35 29 0 7 -3 19
-6 27 -7 20 34 57 63 57 13 0 23 -4 23 -10 0 -5 5 -10 10 -10 6 0 10 11 10 25
0 19 4 23 16 18 14 -5 16 -2 11 19 -8 30 6 44 60 63 34 12 41 11 71 -7 36 -22
59 -15 27 8 -16 12 -17 16 -6 23 24 15 7 93 -28 130 -33 35 -41 38 -41 15 0
-9 13 -29 30 -44 l30 -28 -26 -5 c-44 -8 -103 31 -131 87 -23 45 -24 53 -13
90 25 84 99 152 155 141 17 -3 39 -6 50 -7z m-2385 -19 c0 -5 -10 -9 -21 -9
-18 0 -19 2 -9 15 12 15 30 12 30 -6z m-210 1 c0 -5 -5 -10 -11 -10 -5 0 -7 5
-4 10 3 6 8 10 11 10 2 0 4 -4 4 -10z m970 -20 c0 -5 -4 -10 -10 -10 -5 0 -10
5 -10 10 0 6 5 10 10 10 6 0 10 -4 10 -10z m581 -40 c8 0 32 12 52 26 42 28
61 25 34 -4 -10 -10 -17 -23 -17 -28 0 -11 -57 -42 -80 -45 -31 -3 -38 2 -42
34 -3 17 -9 41 -13 52 -7 16 -2 15 22 -7 16 -16 36 -28 44 -28z m-632 26 c10
-12 8 -19 -8 -35 -26 -26 -33 -26 -49 -1 -13 22 -7 45 9 35 5 -4 9 -1 9 4 0
16 26 13 39 -3z m1471 4 c0 -5 -9 -10 -19 -10 -11 0 -23 5 -26 10 -4 6 5 10
19 10 14 0 26 -4 26 -10z m-2332 -37 c-31 -31 -97 -56 -113 -43 -6 5 -37 7
-68 5 -45 -4 -57 -2 -57 9 0 11 11 14 45 10 48 -5 55 1 28 22 -15 11 -6 13 65
12 45 -1 85 2 89 5 3 4 13 7 22 7 11 0 8 -7 -11 -27z m-191 11 c-3 -3 -12 -4
-19 -1 -8 3 -5 6 6 6 11 1 17 -2 13 -5z m1113 -15 c0 -6 -4 -7 -10 -4 -5 3
-10 11 -10 16 0 6 5 7 10 4 6 -3 10 -11 10 -16z m-822 -16 c-7 -9 -28 -22 -45
-30 -18 -7 -44 -31 -58 -53 -24 -38 -55 -54 -55 -29 0 18 112 126 135 131 29
6 38 -1 23 -19z m57 -33 c-3 -5 -14 -10 -23 -10 -15 0 -15 2 -2 10 20 13 33
13 25 0z m-321 -44 c15 -13 36 -21 46 -19 12 3 22 -3 30 -17 17 -32 8 -41 -24
-25 -36 19 -45 12 -21 -15 10 -12 31 -20 49 -20 17 0 40 -7 50 -15 11 -8 28
-15 39 -15 10 0 16 -4 12 -10 -3 -5 -36 -9 -73 -8 -58 1 -70 5 -92 27 -13 14
-25 30 -25 36 0 5 -11 12 -24 15 -14 3 -27 12 -29 19 -3 9 2 11 17 6 30 -9 27
13 -4 27 -14 6 -25 17 -25 25 0 21 42 15 74 -11z m356 13 c0 -13 -62 -39 -92
-38 -19 0 -17 3 12 15 19 8 42 19 50 24 20 12 30 12 30 -1z m2100 1 c0 -5 -7
-10 -16 -10 -8 0 -12 5 -9 10 3 6 10 10 16 10 5 0 9 -4 9 -10z m-205 -10 c3
-5 1 -10 -4 -10 -6 0 -11 5 -11 10 0 6 2 10 4 10 3 0 8 -4 11 -10z m-1042 -62
c23 -24 53 -70 67 -103 14 -33 29 -60 35 -60 15 0 13 36 -3 63 -17 29 -10 37
17 22 36 -19 27 -61 -25 -119 -59 -65 -77 -65 -143 0 -51 50 -64 87 -28 81 20
-3 22 8 5 28 -11 12 -10 12 3 2 20 -15 33 -4 18 15 -9 10 -7 18 7 35 19 20 19
21 -6 14 l-25 -7 25 21 c24 21 24 22 5 36 -10 8 -13 14 -7 14 7 0 32 -19 55
-42z m775 -9 c-1 -17 -7 -33 -13 -36 -5 -4 -7 -3 -3 1 4 5 3 18 -2 31 -9 23
-5 35 12 35 4 0 7 -14 6 -31z m-1843 -9 c3 -5 23 -10 43 -11 32 0 34 -1 15 -9
-24 -10 -83 5 -83 21 0 12 17 11 25 -1z m1761 -7 c-11 -11 -67 -12 -60 -2 3 5
19 9 36 9 17 0 28 -3 24 -7z m-1571 -29 c22 -4 45 -6 50 -5 7 2 7 -1 0 -7 -15
-14 -85 -23 -85 -11 0 6 -4 8 -9 4 -6 -3 -15 3 -20 14 -15 28 -14 33 7 22 9
-6 35 -13 57 -17z m1394 -83 c-12 -53 -4 -64 21 -31 16 21 20 22 20 7 0 -24
-28 -90 -43 -99 -7 -4 -20 -8 -31 -8 -16 0 -16 2 -5 16 9 12 10 17 1 23 -9 5
-9 22 0 68 10 53 9 65 -5 86 -23 36 -8 42 25 10 25 -26 27 -31 17 -72z m-939
62 c0 -20 -3 -24 -11 -16 -7 7 -9 19 -6 27 10 24 17 19 17 -11z m1158 5 c-2
-19 -8 -22 -35 -20 -19 2 -33 -1 -33 -7 0 -6 -4 -11 -10 -11 -5 0 -8 10 -6 23
3 17 9 21 29 19 14 -1 28 2 32 8 11 18 26 10 23 -12z m-1998 8 c0 -3 -4 -8
-10 -11 -5 -3 -10 -1 -10 4 0 6 5 11 10 11 6 0 10 -2 10 -4z m1850 -17 c0 -5
-9 -9 -20 -9 -22 0 -27 16 -7 23 15 5 27 -1 27 -14z m43 -20 c-7 -7 -12 -3
-15 16 -5 25 -4 25 10 11 12 -11 13 -19 5 -27z m-1090 -11 c-3 -6 -12 -3 -20
5 -9 9 -12 20 -8 28 6 9 11 8 21 -6 7 -10 11 -22 7 -27z m1267 38 c0 -3 -4 -8
-10 -11 -5 -3 -10 -1 -10 4 0 6 5 11 10 11 6 0 10 -2 10 -4z m-2020 -16 c0 -5
-2 -10 -4 -10 -2 0 -12 -3 -22 -7 -16 -6 -17 -5 -4 10 17 19 30 22 30 7z
m1064 -21 c14 -17 26 -36 26 -43 0 -17 91 -103 117 -111 22 -6 22 -7 6 -31
-15 -24 -17 -24 -42 -8 -49 31 -82 69 -117 134 -19 35 -34 70 -34 77 0 22 17
15 44 -18z m-28 -57 c13 -29 24 -59 24 -66 0 -21 45 -64 93 -89 l44 -24 -48
-74 c-45 -70 -69 -94 -69 -70 0 6 -7 11 -15 11 -8 0 -15 4 -15 10 0 5 -23 32
-51 60 -49 49 -51 53 -46 93 5 35 0 52 -25 97 -16 30 -42 67 -56 82 -29 32
-24 36 53 40 65 4 81 -6 111 -70z m-629 48 c-25 -20 -87 -38 -87 -26 0 9 72
44 94 45 16 1 15 -2 -7 -19z m1184 -62 c-6 -10 -11 -23 -11 -29 0 -16 40 21
51 46 6 15 8 16 8 4 1 -26 -52 -87 -82 -93 -20 -4 -37 1 -58 16 -18 14 -43 22
-64 21 -19 -1 -32 3 -29 8 3 5 22 9 43 9 46 0 62 15 54 51 -5 27 5 38 21 22 4
-4 18 -9 31 -10 18 -3 25 1 26 14 0 11 5 7 11 -11 8 -21 8 -34 -1 -48z m-1551
56 c0 -3 -13 -18 -29 -33 -21 -20 -34 -25 -45 -19 -12 7 -14 5 -10 -6 3 -7 1
-17 -4 -20 -13 -8 -25 25 -14 36 26 26 102 57 102 42z m425 -14 c4 -6 -18 -21
-50 -35 -42 -19 -64 -23 -87 -17 -28 7 -26 8 31 21 33 7 66 20 72 27 14 17 25
18 34 4z m975 4 c0 -10 -29 -34 -37 -32 -4 2 -9 0 -10 -4 -5 -14 -43 -48 -53
-48 -5 0 -11 -6 -11 -12 -2 -22 -5 -32 -13 -50 -5 -10 -5 -25 -2 -34 5 -14 16
-7 56 34 48 49 51 51 82 40 42 -14 51 -23 16 -14 -23 5 -28 3 -28 -12 0 -10
-12 -25 -28 -34 -36 -21 -67 -56 -58 -65 3 -4 26 12 50 36 35 35 48 41 72 37
16 -2 32 -5 37 -5 4 -1 7 -6 7 -11 0 -6 -10 -8 -24 -4 -29 7 -68 -17 -72 -43
-2 -9 -10 -20 -18 -25 -20 -11 -21 -28 -1 -28 8 0 15 -4 15 -10 0 -5 -7 -10
-15 -10 -8 0 -14 -5 -12 -11 1 -6 -7 -16 -17 -22 -34 -21 -57 -47 -50 -58 4
-8 -1 -9 -17 -4 -22 7 -23 7 -9 -10 14 -16 13 -17 -6 -11 -24 7 -39 -15 -22
-32 7 -7 0 -12 -21 -17 -32 -7 -60 -38 -65 -72 -2 -10 -8 -18 -14 -17 -7 1
-19 2 -27 3 -8 0 -15 9 -15 19 0 11 -9 27 -20 37 -11 10 -20 24 -20 30 0 34
158 313 201 356 14 14 28 29 30 35 9 20 81 74 99 74 11 0 20 -3 20 -6z m459
-15 c67 -15 110 -38 126 -68 7 -15 26 -33 42 -41 15 -8 39 -22 52 -32 13 -10
32 -18 42 -18 11 0 19 -4 19 -10 0 -5 -11 -10 -25 -10 -15 0 -39 -7 -56 -15
-44 -23 -72 -6 -63 41 7 39 -7 46 -24 12 -10 -19 -11 -20 -9 -4 4 31 -19 29
-33 -4 -7 -16 -16 -30 -21 -30 -14 0 -11 12 11 48 24 39 24 42 6 42 -7 0 -19
-13 -26 -29 -6 -16 -25 -41 -41 -57 -16 -15 -29 -31 -29 -36 0 -13 22 -9 40 7
14 13 20 12 51 -15 41 -35 50 -37 46 -9 -2 25 11 33 33 19 12 -8 11 -12 -7
-32 -11 -13 -28 -36 -37 -53 -8 -16 -23 -40 -33 -51 -20 -25 -63 -41 -63 -25
0 6 8 11 19 11 10 0 25 7 32 17 13 14 11 16 -11 10 -14 -3 -35 -9 -47 -12 -29
-9 -29 5 -2 34 l22 23 -29 24 c-16 13 -32 23 -36 24 -16 0 -7 -19 15 -35 22
-16 22 -16 3 -31 -18 -13 -23 -11 -53 18 -37 35 -47 19 -11 -19 21 -23 13 -34
-10 -11 -6 6 -15 8 -19 4 -5 -4 4 -18 20 -31 15 -13 27 -27 27 -30 0 -14 -29
-2 -50 20 -13 14 -38 28 -57 31 -26 5 -33 11 -33 29 0 23 32 45 38 26 6 -19
29 -12 69 22 21 17 39 34 39 37 -1 9 26 95 35 112 12 23 11 48 -1 48 -5 0 -10
-6 -10 -14 0 -8 -5 -18 -11 -22 -8 -4 -9 3 -4 24 3 16 2 33 -4 36 -5 3 -12 -8
-16 -26 -4 -18 -13 -48 -22 -67 -13 -28 -17 -31 -24 -18 -6 10 -4 28 5 49 45
107 47 110 63 104 9 -4 37 -11 62 -17z m661 17 c0 -3 -4 -8 -10 -11 -5 -3 -10
-1 -10 4 0 6 5 11 10 11 6 0 10 -2 10 -4z m-2347 -13 c-7 -2 -21 -2 -30 0 -10
3 -4 5 12 5 17 0 24 -2 18 -5z m1902 -13 c4 -6 22 -17 42 -25 30 -13 34 -17
23 -30 -10 -12 -16 -13 -26 -4 -8 6 -11 16 -7 22 3 5 2 7 -4 4 -11 -7 -53 19
-53 34 0 12 17 12 25 -1z m-2039 -40 c-20 -22 -36 -47 -36 -55 0 -9 -11 -20
-25 -25 -14 -5 -28 -17 -31 -25 -4 -8 -13 -15 -21 -15 -10 0 -5 12 17 40 17
22 35 38 40 35 4 -3 10 2 14 10 3 8 0 17 -5 21 -17 10 31 54 59 54 24 0 24 -1
-12 -40z m829 -27 c15 -24 25 -47 22 -49 -3 -4 -65 86 -76 111 -11 26 31 -22
54 -62z m-295 13 c-16 -20 -31 -21 -24 -1 4 10 0 15 -12 15 -16 0 -16 1 2 14
16 13 21 13 33 1 12 -11 12 -17 1 -29z m234 8 c51 -53 96 -181 50 -143 -11 9
-14 8 -14 -7 -1 -13 -9 -5 -26 24 -14 23 -30 42 -35 42 -9 0 -4 -13 26 -73 15
-30 16 -40 6 -50 -10 -10 -19 -4 -47 27 -40 46 -46 29 -7 -22 l26 -35 -25 5
c-20 4 -25 1 -21 -9 3 -8 -3 -20 -13 -28 -11 -7 -16 -17 -11 -21 4 -4 13 -2
19 4 14 14 38 16 38 4 0 -5 -14 -19 -32 -32 l-31 -23 -25 29 c-16 18 -27 24
-30 16 -2 -6 -10 -12 -17 -12 -11 0 -11 6 3 29 14 24 14 31 3 45 -19 22 -34
20 -21 -3 16 -31 12 -36 -9 -10 -31 40 -61 107 -55 122 3 8 1 18 -5 22 -28 17
70 100 140 119 75 20 74 20 113 -20z m-344 -4 c0 -5 -7 -10 -16 -10 -8 0 -12
5 -9 10 3 6 10 10 16 10 5 0 9 -4 9 -10z m-533 -48 c-26 -26 -37 -32 -37 -20
0 17 60 71 69 62 3 -3 -12 -21 -32 -42z m453 39 c0 -26 -100 -74 -118 -57 -8
9 16 31 53 50 34 18 65 21 65 7z m2050 -11 c0 -5 -4 -10 -10 -10 -5 0 -10 5
-10 10 0 6 5 10 10 10 6 0 10 -4 10 -10z m-825 -40 c-10 -11 -33 -22 -51 -26
-19 -3 -34 -12 -34 -20 0 -17 0 -17 43 1 47 19 63 20 48 2 -13 -17 -89 -52
-96 -45 -3 2 -8 19 -11 36 -5 22 -2 33 7 36 8 2 34 11 59 19 25 8 47 15 49 16
2 0 -4 -8 -14 -19z m-1108 -15 c-7 -14 -18 -25 -24 -25 -7 0 -13 -7 -13 -15 0
-8 -4 -15 -10 -15 -20 0 -9 29 21 54 38 32 40 32 26 1z m-307 1 c0 -21 -49
-52 -92 -59 -21 -3 -38 -4 -38 -2 0 4 53 29 83 39 9 3 17 9 16 13 -3 17 2 23
16 23 8 0 15 -6 15 -14z m2130 4 c0 -5 -2 -10 -4 -10 -3 0 -8 5 -11 10 -3 6
-1 10 4 10 6 0 11 -4 11 -10z m-607 -56 c-14 -22 -41 -36 -28 -14 8 14 -12 13
-38 -2 -12 -7 -31 -12 -42 -12 -13 -1 -19 -7 -17 -18 2 -10 -2 -18 -8 -18 -6
0 -9 4 -6 9 4 5 0 11 -6 14 -7 2 7 14 32 25 25 11 56 31 70 44 22 21 27 23 42
10 16 -13 16 -16 1 -38z m-1643 36 c-20 -13 -33 -13 -25 0 3 6 14 10 23 10 15
0 15 -2 2 -10z m260 -15 c0 -17 -36 -39 -51 -29 -7 4 -4 13 7 25 20 23 44 25
44 4z m182 -27 c-7 -7 -12 -8 -12 -2 0 14 12 26 19 19 2 -3 -1 -11 -7 -17z
m975 -10 c-2 -7 -10 -12 -17 -10 -7 1 -26 -11 -42 -29 -20 -21 -33 -28 -40
-21 -13 13 27 58 57 65 36 9 47 7 42 -5z m263 0 c0 -16 -31 -48 -47 -48 -18 0
-17 5 10 34 25 27 37 32 37 14z m502 -4 c21 -13 4 -32 -47 -53 -36 -15 -69
-39 -96 -69 -27 -31 -48 -46 -60 -44 -14 2 -19 -3 -19 -19 0 -18 -3 -20 -12
-11 -10 10 -9 23 5 63 10 28 16 53 14 55 -7 7 -47 -46 -47 -62 0 -8 -5 -14
-11 -14 -11 0 -5 29 17 71 16 32 108 82 134 74 11 -3 20 0 24 11 5 13 14 15
48 10 22 -4 45 -9 50 -12z m-2287 -10 c-11 -9 -28 -20 -39 -26 -14 -8 -17 -7
-11 4 18 29 28 38 49 38 21 -1 21 -1 1 -16z m451 -21 c-10 -10 -19 5 -10 18 6
11 8 11 12 0 2 -7 1 -15 -2 -18z m64 12 c0 -8 5 -15 10 -15 6 0 10 -7 10 -15
0 -8 4 -15 10 -15 5 0 16 -13 25 -30 9 -16 20 -30 26 -30 7 0 8 11 4 30 -8 38
-2 38 26 -1 18 -26 19 -33 8 -40 -11 -7 -8 -15 16 -35 17 -14 40 -34 53 -46
12 -11 29 -18 37 -14 16 6 21 -9 7 -18 -14 -8 -105 50 -150 96 -44 45 -102
124 -102 140 0 4 5 8 10 8 6 0 10 -7 10 -15z m60 5 c0 -5 -4 -10 -10 -10 -5 0
-10 5 -10 10 0 6 5 10 10 10 6 0 10 -4 10 -10z m357 -22 c-3 -8 -6 -5 -6 6 -1
11 2 17 5 13 3 -3 4 -12 1 -19z m628 12 c3 -5 4 -10 1 -10 -2 0 -12 -3 -20 -6
-12 -5 -15 -2 -10 10 7 18 20 21 29 6z m-1382 -24 c-27 -37 -68 -58 -98 -50
-47 12 -31 25 46 38 21 4 42 13 49 21 20 24 22 17 3 -9z m217 9 c0 -8 -7 -15
-15 -15 -16 0 -20 12 -8 23 11 12 23 8 23 -8z m1290 5 c0 -5 -5 -10 -11 -10
-5 0 -7 5 -4 10 3 6 8 10 11 10 2 0 4 -4 4 -10z m-776 -39 c-6 -6 -24 19 -24
34 1 6 7 1 15 -9 8 -11 12 -22 9 -25z m602 -48 c17 -98 17 -93 -4 -93 -27 0
-72 -23 -72 -37 0 -7 -5 -13 -11 -13 -6 0 -9 7 -5 15 3 9 0 15 -9 15 -8 0 -15
-9 -15 -20 0 -11 -4 -20 -10 -20 -5 0 -10 9 -10 19 0 19 19 32 52 36 30 3 32
13 21 78 -10 61 -10 62 16 84 14 11 28 20 30 18 1 -2 9 -39 17 -82z m74 67 c0
-5 -5 -10 -11 -10 -5 0 -7 5 -4 10 3 6 8 10 11 10 2 0 4 -4 4 -10z m-1125 -20
c18 0 38 -7 45 -15 8 -9 9 -15 2 -15 -6 0 -14 5 -17 10 -9 15 -25 12 -25 -5 0
-7 8 -18 17 -24 28 -15 9 -22 -27 -9 -26 9 -35 9 -38 0 -2 -7 -13 -12 -25 -12
-35 0 -95 -19 -112 -36 -27 -28 -37 -4 -10 28 14 16 25 33 25 38 0 12 60 53
67 46 3 -3 -1 -14 -10 -24 -21 -23 -21 -32 -3 -32 8 0 27 16 43 36 15 20 29
31 31 25 2 -6 18 -11 37 -11z m1185 10 c0 -5 -7 -10 -16 -10 -8 0 -12 5 -9 10
3 6 10 10 16 10 5 0 9 -4 9 -10z m-765 -20 c3 -5 -1 -10 -9 -10 -8 0 -18 5
-21 10 -3 6 1 10 9 10 8 0 18 -4 21 -10z m55 -10 c0 -5 -5 -10 -11 -10 -5 0
-7 5 -4 10 3 6 8 10 11 10 2 0 4 -4 4 -10z m647 3 c-4 -3 -2 -12 4 -20 9 -10
8 -13 -5 -13 -9 0 -16 6 -16 13 0 14 9 27 18 27 3 0 2 -3 -1 -7z m-1516 -39
c9 -12 3 -22 -36 -56 -26 -23 -54 -57 -62 -75 -17 -41 -33 -34 -33 14 0 26 5
36 20 40 29 8 24 23 -7 23 l-28 1 33 29 c17 16 32 32 32 36 0 3 -15 3 -32 -1
-23 -5 -30 -4 -23 3 24 25 111 16 136 -14z m769 15 c0 -6 -4 -7 -10 -4 -5 3
-10 11 -10 16 0 6 5 7 10 4 6 -3 10 -11 10 -16z m817 15 c-3 -3 -12 -4 -19 -1
-8 3 -5 6 6 6 11 1 17 -2 13 -5z m-742 -24 c-3 -5 -10 -10 -16 -10 -5 0 -9 5
-9 10 0 6 7 10 16 10 8 0 12 -4 9 -10z m60 -10 c3 -5 -1 -10 -9 -10 -9 0 -16
5 -16 10 0 6 4 10 9 10 6 0 13 -4 16 -10z m585 -16 c0 -8 -4 -12 -10 -9 -5 3
-10 10 -10 16 0 5 5 9 10 9 6 0 10 -7 10 -16z m145 6 c-3 -5 -15 -10 -26 -10
-10 0 -19 5 -19 10 0 6 12 10 26 10 14 0 23 -4 19 -10z m-842 -11 c-6 -6 -9
-18 -6 -25 7 -18 -11 -18 -26 0 -10 11 -8 17 6 25 24 14 40 14 26 0z m-690
-20 c8 -13 3 -26 -23 -59 -32 -41 -33 -43 -15 -56 11 -8 20 -29 22 -51 5 -52
10 -63 28 -63 12 0 14 4 5 19 -16 31 -12 61 13 82 19 16 19 18 5 19 -22 0 -24
19 -3 25 51 16 50 16 35 26 -11 7 -6 8 18 4 28 -6 34 -4 39 13 6 24 44 42 86
41 l32 -1 -32 -10 c-50 -16 -39 -27 21 -21 31 3 61 1 72 -5 16 -10 11 -11 -28
-12 -27 0 -48 -4 -48 -10 0 -5 18 -10 39 -10 28 0 48 -7 65 -24 15 -13 26 -25
26 -28 0 -2 -19 -5 -42 -5 -46 -2 -98 -20 -98 -34 0 -12 1 -11 41 5 19 7 53
16 76 19 l42 5 -16 -24 c-14 -22 -17 -23 -28 -8 -11 15 -15 15 -56 -3 -48 -22
-73 -46 -83 -80 -11 -36 10 -35 27 2 21 44 59 69 92 61 39 -10 29 -31 -22 -47
-41 -12 -51 -20 -68 -56 -17 -35 -24 -41 -43 -36 -27 6 -69 -13 -93 -41 -16
-19 -16 -19 -39 2 -13 12 -27 19 -32 16 -4 -3 -14 -2 -20 3 -7 4 -24 6 -38 5
-15 -2 -38 6 -53 18 -21 17 -27 30 -27 61 0 40 -7 48 -28 27 -9 -9 -12 -1 -12
39 0 45 4 56 35 89 19 20 35 38 35 40 0 11 -27 1 -47 -18 -13 -12 -25 -19 -28
-16 -9 8 35 58 79 89 43 32 73 34 89 8z m775 -1 c17 -19 19 -26 8 -40 -15 -21
-26 -13 -26 17 0 11 -5 26 -12 33 -7 7 -8 12 -2 12 6 0 20 -10 32 -22z m692 8
c0 -3 -4 -8 -10 -11 -5 -3 -10 -1 -10 4 0 6 5 11 10 11 6 0 10 -2 10 -4z m100
-5 c0 -6 -15 -11 -32 -13 -18 -2 -31 -7 -29 -13 1 -5 8 -8 15 -6 6 2 35 4 64
5 49 1 55 -1 68 -26 8 -15 14 -38 14 -53 0 -23 -3 -25 -44 -25 -50 0 -79 -10
-116 -39 -21 -16 -22 -21 -10 -35 10 -13 10 -20 2 -28 -15 -15 -16 -88 -2 -88
6 0 10 13 10 30 0 41 51 97 101 110 25 7 37 15 33 22 -5 8 -1 9 10 5 10 -4 26
-7 37 -7 30 0 22 -18 -11 -25 -16 -4 -41 -20 -55 -37 -22 -26 -26 -40 -23 -77
l3 -46 -47 3 c-41 3 -49 0 -64 -22 -9 -14 -19 -24 -23 -21 -4 2 -15 41 -25 87
-9 46 -21 97 -27 114 -5 17 -9 42 -9 55 0 14 -6 34 -14 44 -11 16 -18 17 -55
8 -36 -10 -40 -9 -30 3 6 8 24 14 39 14 18 0 33 8 44 25 14 21 20 23 42 14 20
-7 31 -6 43 4 28 25 91 37 91 18z m-927 -44 c-2 -4 -14 -2 -25 4 -21 11 -21
12 -3 26 17 12 20 11 26 -4 4 -10 5 -21 2 -26z m567 33 c0 -5 -5 -10 -11 -10
-5 0 -7 5 -4 10 3 6 8 10 11 10 2 0 4 -4 4 -10z m500 1 c0 -12 -28 -22 -34
-12 -3 5 -3 11 1 15 9 9 33 7 33 -3z m127 -57 c-3 -4 -14 -3 -24 0 -15 6 -15
8 -3 16 16 10 39 -4 27 -16z m-57 -4 c0 -5 -4 -10 -10 -10 -5 0 -10 5 -10 10
0 6 5 10 10 10 6 0 10 -4 10 -10z m-1312 -12 c19 -19 15 -25 -19 -32 -39 -7
-49 -2 -42 24 6 22 42 27 61 8z m389 -46 c-10 -9 -17 -11 -17 -5 0 7 5 15 10
18 8 5 8 11 1 19 -6 7 -8 16 -4 20 4 4 12 -2 17 -14 7 -15 5 -25 -7 -38z
m-212 38 c-3 -5 -13 -10 -21 -10 -8 0 -12 5 -9 10 3 6 13 10 21 10 8 0 12 -4
9 -10z m1758 3 c-7 -2 -19 -2 -25 0 -7 3 -2 5 12 5 14 0 19 -2 13 -5z m-1703
-11 c0 -10 -69 -47 -75 -40 -3 3 9 15 27 27 35 22 48 26 48 13z m120 -2 c0
-16 -61 -43 -72 -32 -13 13 0 35 18 28 7 -3 16 -1 19 4 8 13 35 13 35 0z m110
-34 c-1 -21 -1 -21 -15 -2 -21 27 -20 53 0 36 8 -7 15 -22 15 -34z m458 -21
c7 -33 22 -97 32 -143 25 -104 25 -102 -6 -102 -14 0 -34 -5 -46 -11 -11 -6
-21 -9 -23 -7 -2 2 -13 68 -23 148 l-20 145 20 18 c35 30 52 18 66 -48z m744
23 c6 -14 5 -16 -7 -12 -8 4 -15 18 -14 33 0 15 3 20 6 11 3 -8 10 -23 15 -32z
m-342 16 c0 -8 -4 -12 -10 -9 -5 3 -10 10 -10 16 0 5 5 9 10 9 6 0 10 -7 10
-16z m-80 -10 c0 -8 -5 -12 -10 -9 -6 4 -8 11 -5 16 9 14 15 11 15 -7z m-979
-37 c-15 -15 -36 6 -27 28 5 15 7 15 22 0 13 -12 14 -19 5 -28z m419 39 c0 -3
-4 -8 -10 -11 -5 -3 -10 -1 -10 4 0 6 5 11 10 11 6 0 10 -2 10 -4z m70 -18
c-25 -12 -49 -27 -55 -34 -5 -7 -37 -18 -70 -25 -33 -7 -52 -14 -41 -17 33 -7
107 9 125 27 10 10 33 23 51 29 40 14 40 14 40 3 0 -4 -17 -15 -37 -24 -32
-12 -34 -15 -14 -16 20 -1 22 -3 10 -17 -12 -14 -11 -16 6 -12 12 2 19 10 17
21 -2 9 2 17 8 17 19 0 11 -48 -10 -55 -11 -3 -20 -11 -20 -16 0 -6 9 -7 20
-4 17 5 20 2 20 -23 0 -16 3 -43 6 -60 6 -29 4 -31 -30 -37 -20 -4 -36 -12
-36 -17 0 -10 17 -8 51 6 12 5 18 0 23 -19 8 -31 1 -45 -23 -45 -10 0 -44 -9
-77 -21 -32 -11 -87 -26 -120 -33 l-61 -13 -11 101 c-11 104 -11 210 0 221 3
4 39 15 80 25 40 10 93 27 118 38 25 12 52 21 60 20 8 0 -5 -9 -30 -20z m1115
-8 c-4 -12 -2 -20 5 -20 6 0 8 -5 5 -10 -4 -6 14 -19 39 -31 63 -27 71 -44 18
-35 -26 4 -42 2 -42 -4 0 -5 -7 -10 -16 -10 -8 0 -13 -4 -10 -9 4 -5 0 -11 -6
-14 -10 -3 -10 -7 -1 -17 9 -10 9 -17 0 -32 -10 -15 -9 -20 2 -27 7 -5 11 -13
8 -18 -4 -6 -30 -2 -66 11 -68 23 -85 17 -51 -19 19 -20 21 -27 10 -40 -7 -8
-16 -13 -20 -10 -4 2 -17 -9 -28 -25 -19 -26 -20 -30 -6 -38 14 -8 14 -10 -1
-22 -13 -11 -19 -9 -40 10 -27 25 -46 21 -25 -5 16 -20 30 -94 19 -101 -5 -3
-9 3 -9 13 0 51 -22 93 -65 124 -25 18 -45 40 -45 51 0 24 31 23 37 -2 8 -31
23 -24 24 13 1 22 3 25 6 10 6 -33 28 -47 43 -28 10 12 9 15 -5 15 -13 0 -15
3 -6 13 8 11 5 19 -15 36 -16 14 -23 26 -17 32 11 11 78 14 121 5 20 -5 32 -4
32 3 0 13 -52 22 -113 19 -26 -2 -47 0 -47 5 0 4 9 7 19 7 10 0 21 7 25 15 7
20 32 19 41 -2 5 -14 13 -5 36 40 21 40 35 57 49 57 11 0 20 4 20 9 0 9 58 49
73 50 5 1 5 -8 2 -19z m-1807 1 c9 -5 30 -13 47 -18 17 -5 35 -20 43 -36 7
-15 17 -27 23 -27 5 0 9 -4 9 -9 0 -9 -80 -26 -165 -36 -73 -8 -79 -18 -66
-103 17 -108 15 -222 -4 -222 -18 0 -18 -1 -5 -34 29 -78 -78 -152 -162 -112
-34 16 -68 61 -68 89 0 36 88 75 105 47 10 -17 -16 -41 -36 -35 -22 7 -24 -4
-5 -30 13 -18 17 -18 56 -5 65 21 73 65 22 123 -25 29 6 20 34 -10 31 -33 45
-22 17 15 -14 19 -31 28 -56 30 -22 2 -37 -1 -37 -7 0 -6 -7 -11 -15 -11 -9 0
-12 6 -8 16 5 13 2 15 -18 9 -26 -8 -39 -22 -39 -43 0 -8 -9 -25 -20 -39 -11
-14 -20 -34 -20 -44 0 -11 -5 -19 -10 -19 -9 0 -44 49 -54 75 -2 6 -7 7 -11 2
-5 -4 -2 -19 5 -35 24 -46 23 -48 -9 -14 -32 33 -39 56 -21 67 12 7 14 45 2
45 -13 0 -34 -59 -27 -80 3 -11 2 -20 -3 -20 -16 0 -19 79 -4 94 19 19 22 111
3 111 -7 0 -17 -10 -22 -22 -5 -14 -5 -23 1 -23 6 0 10 -4 10 -10 0 -14 -26
-12 -38 3 -14 18 -3 76 18 87 18 10 80 -7 80 -22 0 -16 18 -8 22 10 4 15 14
18 52 16 25 -2 46 -1 46 1 0 2 -12 11 -27 20 l-28 16 30 -6 c16 -4 33 -12 37
-18 5 -8 10 -5 14 10 4 14 17 23 40 28 35 6 47 25 17 25 -15 0 -16 2 -3 10 8
5 32 10 53 10 20 0 37 5 37 10 0 6 -8 10 -17 10 -15 0 -14 2 3 19 11 10 31 22
44 26 16 5 19 9 10 15 -7 5 -19 6 -27 3 -7 -3 -13 -3 -13 1 0 3 19 10 42 17
32 8 47 8 61 -1 24 -15 34 -5 16 16 -9 11 -22 14 -41 10 -18 -3 -27 -2 -23 4
8 12 79 13 103 1z m362 -6 c0 -9 -9 -15 -21 -15 -18 0 -19 2 -9 15 7 8 16 15
21 15 5 0 9 -7 9 -15z m1500 5 c0 -5 -4 -10 -9 -10 -6 0 -13 5 -16 10 -3 6 1
10 9 10 9 0 16 -4 16 -10z m-2572 -134 c10 -17 27 -33 37 -35 11 -2 31 -12 44
-22 13 -11 35 -19 50 -19 24 -1 25 -2 8 -14 -14 -11 -16 -21 -10 -52 5 -22 7
-49 5 -61 -7 -47 -91 -37 -132 15 -26 32 -37 22 -15 -12 19 -28 10 -34 -19
-13 -12 9 -20 31 -24 65 -4 45 -2 52 13 52 10 0 15 5 12 13 -4 10 2 13 21 10
26 -4 26 -3 -10 27 -36 31 -38 35 -38 94 0 85 22 108 33 35 4 -29 15 -67 25
-83z m1787 124 c-27 -12 -43 -12 -25 0 8 5 22 9 30 9 10 0 8 -3 -5 -9z m-915
-15 c7 -9 10 -18 7 -22 -8 -7 -37 15 -37 28 0 14 16 11 30 -6z m865 -5 c-3 -5
-11 -10 -16 -10 -6 0 -7 5 -4 10 3 6 11 10 16 10 6 0 7 -4 4 -10z m275 6 c0
-9 -30 -14 -35 -6 -4 6 3 10 14 10 12 0 21 -2 21 -4z m-1070 -16 c0 -5 -4 -10
-10 -10 -5 0 -10 5 -10 10 0 6 5 10 10 10 6 0 10 -4 10 -10z m160 0 c0 -5 -7
-10 -16 -10 -8 0 -12 5 -9 10 3 6 10 10 16 10 5 0 9 -4 9 -10z m1490 0 c13 -8
13 -10 -2 -10 -9 0 -20 5 -23 10 -8 13 5 13 25 0z m-540 -15 c0 -8 -4 -15 -9
-15 -13 0 -22 16 -14 24 11 11 23 6 23 -9z m-150 -5 c0 -5 -11 -10 -24 -10
-29 0 -46 -20 -55 -63 -4 -17 -9 -27 -12 -22 -12 20 12 75 39 89 32 18 52 20
52 6z m190 -46 c-7 -7 -21 -14 -31 -14 -10 0 -44 -25 -75 -55 -54 -53 -56 -57
-52 -100 4 -52 -15 -57 -20 -6 -3 33 -24 39 -30 8 -5 -23 34 -75 54 -73 9 0
19 -5 21 -11 7 -19 -17 -16 -106 13 -62 20 -84 23 -100 15 -28 -15 -36 -14
-21 5 11 13 10 16 -8 21 -24 6 -27 19 -12 43 8 13 11 13 22 -2 13 -18 58 -15
58 4 0 5 -10 6 -21 3 -15 -5 -20 -3 -17 6 3 8 19 15 36 17 19 2 32 9 32 17 0
9 6 12 16 8 14 -5 16 -2 10 21 -7 29 9 96 24 96 5 0 10 -12 12 -27 2 -14 9
-29 17 -31 10 -3 12 2 8 20 -7 26 16 69 29 55 4 -4 2 -7 -4 -7 -7 0 -12 -7
-12 -15 0 -8 4 -15 8 -15 15 0 30 22 25 36 -7 20 17 17 55 -6 44 -27 60 -25
74 8 11 26 12 27 16 4 2 -13 -2 -30 -8 -38z m-1186 40 c20 -8 11 -24 -14 -24
-13 0 -17 5 -14 15 7 17 7 17 28 9z m71 -4 c3 -5 -3 -10 -15 -10 -12 0 -18 5
-15 10 3 6 10 10 15 10 5 0 12 -4 15 -10z m1695 -25 c0 -13 -3 -13 -20 -3 -11
7 -20 19 -20 26 0 10 5 10 20 2 11 -6 20 -17 20 -25z m-1529 -105 c4 -63 10
-123 14 -134 5 -11 3 -21 -6 -27 -12 -7 -11 -11 3 -25 15 -15 24 -16 80 -5 35
7 79 19 98 26 19 8 47 16 62 19 14 3 33 9 42 12 12 4 15 2 10 -9 -3 -8 -1 -18
5 -22 14 -8 14 -48 0 -62 -9 -9 -5 -11 15 -9 20 3 26 -1 26 -15 0 -11 -5 -16
-13 -13 -7 2 -27 -8 -45 -23 -19 -15 -39 -28 -46 -29 -8 -1 -27 -5 -44 -9 -29
-6 -31 -4 -38 29 -3 20 -10 33 -15 30 -5 -3 -7 -9 -4 -14 3 -5 1 -12 -5 -15
-8 -5 -8 -11 0 -20 14 -17 -5 -31 -60 -42 -35 -7 -45 -13 -43 -28 1 -11 -2
-26 -7 -35 -5 -9 0 -54 11 -109 11 -52 19 -117 17 -145 l-3 -51 -42 -6 c-24
-3 -47 -1 -52 4 -5 5 -17 4 -29 -2 -12 -6 -23 -7 -26 -2 -9 14 -25 142 -31
245 -5 101 -14 123 -45 109 -8 -3 -55 -13 -105 -20 -49 -8 -98 -19 -107 -24
-31 -16 -56 -11 -60 14 -2 14 -10 22 -23 22 -17 0 -20 7 -20 43 0 23 -4 42 -8
42 -5 0 -5 5 -2 10 3 6 32 10 63 10 31 1 77 5 102 11 25 5 68 12 95 16 46 5
100 36 91 52 -2 3 -7 72 -10 153 l-6 146 27 11 c16 5 51 9 78 8 l50 -2 6 -115z
m353 -20 c4 -46 3 -58 -4 -42 -5 12 -12 60 -15 105 -5 94 8 47 19 -63z m-550
93 c9 -34 18 -232 11 -261 -5 -24 -13 -31 -38 -36 -64 -12 -271 -35 -278 -31
-4 3 -7 44 -8 92 -1 49 -6 114 -12 147 -6 32 -9 60 -7 62 2 2 44 8 94 14 49 5
103 14 119 19 54 16 113 13 119 -6z m1683 -18 c8 -22 -6 -33 -17 -15 -13 20
-12 30 0 30 6 0 13 -7 17 -15z m-52 -15 c3 -5 2 -10 -4 -10 -5 0 -13 5 -16 10
-3 6 -2 10 4 10 5 0 13 -4 16 -10z m15 -60 c0 -5 -4 -10 -9 -10 -6 0 -13 5
-16 10 -3 6 1 10 9 10 9 0 16 -4 16 -10z m-970 -58 c0 -9 -82 -33 -89 -26 -3
2 4 11 15 19 20 15 74 20 74 7z m1220 -31 c0 -6 -4 -13 -10 -16 -5 -3 -10 -2
-10 4 0 5 -8 12 -17 14 -11 3 -7 5 10 6 15 0 27 -3 27 -8z m-1199 -22 c17 -27
9 -54 -20 -70 -16 -9 -35 -29 -42 -45 -24 -47 -36 -39 -42 28 -4 49 -2 67 10
80 25 27 78 32 94 7z m832 1 c3 -11 1 -23 -4 -26 -5 -3 -9 6 -9 20 0 31 6 34
13 6z m-277 -12 c3 -11 3 -22 0 -25 -3 -3 1 -15 9 -27 23 -32 18 -53 -12 -61
-16 -3 -50 -21 -77 -38 -28 -18 -60 -30 -73 -29 -14 2 -25 -3 -29 -12 -7 -17
-34 -18 -46 -1 -5 6 -8 5 -8 -2 0 -20 -20 -15 -21 5 0 14 -2 14 -9 -3 -5 -11
-9 -15 -9 -9 -1 16 -33 12 -51 -6 -8 -8 -24 -15 -35 -14 -11 0 -31 -7 -45 -16
-35 -24 -93 -51 -97 -46 -2 2 26 23 61 47 36 24 66 50 66 57 0 8 -6 11 -12 8
-7 -3 -21 -9 -30 -12 -10 -4 -18 -10 -18 -15 0 -5 -5 -9 -10 -9 -19 0 -80 -45
-86 -62 -3 -10 -15 -18 -27 -17 -12 0 -16 3 -9 6 6 2 12 11 12 18 0 15 87 91
100 88 4 -1 18 9 30 22 22 23 22 25 4 25 -10 0 -28 -7 -38 -15 -10 -8 -22 -12
-26 -10 -4 3 -13 -2 -20 -10 -7 -8 -19 -15 -26 -15 -8 0 -19 -10 -24 -22 -14
-34 -48 -74 -56 -66 -14 15 28 78 88 131 35 31 60 58 57 61 -7 7 -79 -26 -79
-36 0 -4 -8 -8 -17 -8 -9 0 -13 -3 -10 -6 3 -4 -5 -16 -19 -26 -33 -27 -41
-16 -15 20 12 17 21 34 21 40 0 5 38 28 84 51 l84 42 63 -21 c34 -11 92 -25
128 -31 36 -5 76 -14 89 -19 17 -7 22 -6 22 5 0 8 -7 18 -16 23 -13 7 -10 12
19 25 19 10 40 17 46 17 6 0 11 3 11 8 0 4 11 8 25 8 16 1 26 -5 31 -18z
m-498 -13 c-3 -3 -9 2 -12 12 -6 14 -5 15 5 6 7 -7 10 -15 7 -18z m-188 5 c0
-5 -7 -10 -16 -10 -8 0 -12 5 -9 10 3 6 10 10 16 10 5 0 9 -4 9 -10z m1037
-27 c-3 -10 -5 -4 -5 12 0 17 2 24 5 18 2 -7 2 -21 0 -30z m-2357 17 c0 -5 -4
-10 -10 -10 -5 0 -10 5 -10 10 0 6 5 10 10 10 6 0 10 -4 10 -10z m2667 -393
c4 -271 3 -397 -4 -397 -6 0 -25 -3 -42 -6 -28 -6 -31 -4 -31 17 0 32 -30 109
-55 140 -29 35 -91 69 -128 69 -56 -1 -111 -18 -132 -42 -11 -13 -38 -30 -60
-39 -30 -11 -41 -21 -43 -39 -2 -14 -12 -44 -24 -67 -11 -23 -18 -49 -14 -59
5 -13 2 -15 -21 -10 -16 4 -49 20 -76 36 -26 16 -58 31 -72 33 -14 2 -42 19
-63 38 -37 34 -56 40 -80 26 -8 -6 -15 0 -22 17 -5 14 -13 26 -18 26 -20 0
-21 -15 -2 -45 l20 -32 -24 -22 -23 -22 -28 46 c-18 31 -30 44 -37 37 -6 -6 0
-24 18 -52 23 -34 25 -43 13 -51 -29 -18 -44 -8 -67 43 -17 39 -26 48 -34 40
-9 -9 -6 -21 10 -51 27 -48 27 -51 -2 -51 -30 0 -42 15 -51 63 -11 57 -29 46
-22 -13 6 -50 6 -50 -23 -50 -16 0 -52 5 -80 11 -46 10 -50 13 -50 40 0 16 -4
29 -10 29 -5 0 -10 -13 -10 -30 0 -32 -2 -33 -37 -24 -17 5 -23 14 -24 38 -1
17 -3 23 -6 14 -6 -22 -81 -24 -189 -4 -49 8 -89 10 -130 3 -32 -4 -85 -10
-117 -11 -50 -3 -62 0 -84 20 -29 27 -47 20 -57 -21 -9 -33 -50 -52 -114 -50
-36 1 -62 8 -82 23 -33 25 -65 28 -73 9 -7 -18 -90 -57 -122 -57 -18 0 -33 12
-55 43 -57 81 -55 80 -99 35 -29 -30 -34 -31 -62 -21 -16 6 -46 9 -65 6 -30
-5 -40 -1 -68 26 l-33 32 -17 -25 c-9 -15 -20 -26 -24 -26 -4 0 -15 19 -26 41
-17 37 -20 40 -50 34 -17 -4 -35 -14 -41 -22 -23 -36 -44 -58 -49 -52 -3 3 -8
159 -11 347 l-5 342 37 0 c37 1 89 10 144 24 23 7 27 4 32 -22 12 -61 90 -122
156 -122 24 0 41 -11 74 -45 40 -41 48 -45 91 -45 55 0 105 19 135 51 11 12
21 20 21 17 0 -3 5 -29 10 -58 6 -30 10 -124 11 -209 0 -86 4 -163 9 -171 29
-47 615 46 797 126 l58 26 -53 -56 c-58 -61 -60 -78 -19 -124 33 -36 82 -44
205 -32 166 15 283 56 327 114 31 41 32 70 3 96 -13 12 -30 27 -38 35 -8 7
-26 16 -40 20 -37 9 -80 51 -80 77 0 30 -15 52 -28 44 -6 -4 -16 3 -22 15 -9
17 -9 24 2 35 18 18 106 43 189 54 83 11 138 26 163 45 25 19 70 19 86 0 16
-19 64 -19 80 0 7 8 16 13 20 10 5 -3 12 0 16 6 5 8 9 8 14 -1 11 -18 46 4 62
38 8 15 23 28 36 30 13 2 27 14 32 28 5 13 16 24 25 24 8 0 15 6 15 13 0 6 13
-11 29 -39 37 -64 84 -89 148 -80 61 8 99 30 111 65 10 28 52 84 59 77 2 -1 6
-181 10 -399z m-2890 373 c14 -11 21 -20 15 -20 -12 0 -60 39 -49 40 5 0 20
-9 34 -20z m2467 -32 c-11 -17 -24 -6 -24 19 0 26 1 26 14 8 8 -11 12 -23 10
-27z m-45 -13 c-9 -9 -49 8 -49 20 0 21 34 23 44 3 5 -10 7 -20 5 -23z m-1906
3 c20 -16 32 -64 18 -72 -7 -5 -11 4 -11 22 0 33 -13 48 -50 55 l-25 4 26 2
c14 0 33 -5 42 -11z m1047 -138 c2 -60 -1 -71 -10 -35 -4 17 -8 59 -8 95 0 59
1 61 8 25 5 -22 9 -60 10 -85z m735 50 c-3 -5 -15 -10 -26 -10 -10 0 -19 5
-19 10 0 6 12 10 26 10 14 0 23 -4 19 -10z m-775 -18 c0 -4 -20 -14 -45 -21
-25 -7 -45 -17 -45 -22 0 -13 17 -11 51 7 17 8 34 13 37 9 10 -9 -28 -35 -50
-35 -21 0 -82 -29 -76 -35 2 -3 33 4 68 15 35 11 66 17 69 14 9 -8 -30 -34
-50 -34 -10 0 -21 -5 -25 -11 -4 -8 4 -9 27 -4 60 14 64 12 67 -22 3 -27 0
-33 -17 -33 -11 0 -23 -4 -26 -10 -3 -6 4 -10 18 -10 22 0 24 -4 23 -46 -1
-45 -2 -47 -53 -76 -55 -31 -132 -57 -194 -65 l-36 -5 -13 104 c-22 184 -23
215 -9 224 14 9 229 60 262 63 9 0 17 -3 17 -7z m-499 -124 c0 -13 6 -77 12
-143 16 -163 17 -161 -46 -175 -63 -15 -236 -25 -270 -16 l-24 6 -1 154 -1
155 57 12 c57 12 164 25 235 28 32 1 37 -2 38 -21z m749 -14 c15 -40 13 -44
-29 -44 -22 0 -50 -4 -63 -9 -37 -14 -77 -3 -75 21 2 22 45 45 97 51 19 2 41
5 48 5 7 1 17 -10 22 -24z m47 -70 c-3 -3 -42 -11 -88 -19 -46 -7 -96 -16
-111 -20 -21 -5 -28 -3 -28 7 0 19 103 48 170 48 33 0 50 4 51 13 1 6 3 4 6
-6 3 -10 3 -21 0 -23z m-237 7 c0 -6 -4 -13 -10 -16 -5 -3 -10 1 -10 9 0 9 5
16 10 16 6 0 10 -4 10 -9z m190 -55 c0 -19 4 -23 20 -19 11 3 20 0 20 -6 0 -6
-15 -11 -34 -11 -36 0 -141 -23 -189 -42 -15 -6 -30 -8 -33 -5 -4 3 29 16 71
28 43 13 73 25 66 27 -7 2 -35 -3 -63 -13 -54 -17 -78 -13 -35 6 15 7 24 16
21 20 -3 5 -2 9 3 10 4 1 37 7 73 14 36 7 68 13 73 14 4 0 7 -10 7 -23z m43
17 c-7 -2 -19 -2 -25 0 -7 3 -2 5 12 5 14 0 19 -2 13 -5z m47 -23 c0 -7 -14
-8 -37 -4 -52 9 -54 14 -5 14 23 0 42 -5 42 -10z m103 -64 c27 -20 20 -29 -8
-10 -21 14 -41 16 -108 10 -79 -6 -252 -37 -291 -52 -13 -5 -17 -4 -13 3 8 12
30 19 147 43 105 22 248 25 273 6z m-33 -57 c15 -28 -1 -46 -48 -52 -20 -3
-58 -9 -83 -12 -37 -6 -47 -4 -52 9 -5 11 -1 16 12 16 46 0 72 29 29 31 -33 1
-11 8 57 18 33 5 63 9 67 10 4 0 12 -8 18 -20z m745 -50 c41 -21 65 -52 65
-86 0 -11 -5 -9 -21 8 l-21 24 7 -25 c14 -56 17 -100 8 -100 -6 0 -10 11 -10
26 0 14 -10 35 -22 48 -11 12 -21 28 -21 35 0 27 -41 71 -66 71 -14 0 -22 4
-19 10 10 16 55 11 100 -11z m-100 -13 c31 -11 41 -20 43 -40 4 -33 -16 -34
-24 -1 -3 14 -10 25 -15 25 -14 0 -11 -33 6 -57 13 -19 13 -21 -6 -26 -12 -3
-18 -10 -14 -17 5 -8 11 -8 21 1 10 8 14 8 14 0 0 -6 -4 -11 -10 -11 -5 0 -10
-7 -10 -15 0 -9 -9 -15 -25 -15 -29 0 -34 -20 -6 -27 11 -3 19 -12 19 -21 -1
-48 6 -103 14 -108 4 -3 8 -10 8 -15 0 -6 -4 -7 -10 -4 -16 10 -12 -11 5 -25
8 -7 15 -17 15 -23 0 -7 -4 -7 -12 1 -7 7 -18 12 -26 12 -7 0 0 -12 17 -26 17
-14 31 -32 31 -40 0 -21 -10 -17 -32 12 -12 15 -26 23 -35 19 -9 -3 -31 0 -49
7 -36 13 -39 21 -35 95 3 53 -11 80 -49 88 -42 9 -45 21 -15 61 15 19 25 40
22 47 -2 7 0 22 4 35 7 19 16 23 41 22 18 -1 44 -2 57 -1 23 1 23 2 8 19 -13
14 -14 21 -5 30 7 7 12 12 13 12 0 0 18 -7 40 -14z m-1075 -38 c16 -20 27 -23
92 -22 58 1 67 -1 43 -8 -61 -18 -165 9 -165 44 0 14 11 9 30 -14z m223 -15
c-7 -2 -21 -2 -30 0 -10 3 -4 5 12 5 17 0 24 -2 18 -5z m-1611 -70 c30 -61 72
-83 155 -83 34 0 64 4 68 9 3 5 19 12 35 16 17 4 43 20 59 37 l29 31 33 -51
c38 -58 87 -85 154 -85 24 0 55 7 70 17 24 16 27 16 50 -2 34 -27 108 -46 149
-38 20 4 48 17 63 30 41 34 69 46 108 48 24 1 36 7 41 20 11 37 61 51 150 44
106 -8 129 -17 149 -60 10 -20 21 -36 26 -36 5 0 9 -4 9 -9 0 -5 -17 -11 -38
-14 -47 -8 -128 -65 -113 -80 6 -6 11 -18 11 -27 0 -9 14 -29 30 -45 33 -32
41 -61 13 -51 -12 5 -37 -14 -90 -66 -65 -65 -73 -70 -73 -48 -1 35 -23 60
-53 60 -35 0 -57 -25 -57 -66 0 -44 -25 -46 -48 -3 -9 17 -26 43 -38 58 -11
14 -23 34 -27 44 -3 9 -13 17 -22 17 -11 0 -6 -13 19 -47 18 -27 37 -58 41
-71 10 -34 48 -55 85 -47 16 4 30 11 30 16 0 5 9 9 20 9 11 0 20 -5 20 -10 0
-6 7 -13 16 -17 11 -4 40 18 91 68 50 49 73 66 68 52 -10 -34 7 -28 32 12 22
33 24 34 72 28 39 -4 60 -1 95 16 25 11 58 21 72 21 28 0 204 -56 217 -69 4
-4 -4 -16 -18 -25 -20 -13 -26 -25 -25 -49 1 -18 2 -38 1 -44 -1 -19 -32 -16
-68 7 -40 24 -44 10 -6 -20 19 -14 38 -20 62 -18 35 3 36 4 36 44 0 39 17 74
37 74 5 0 7 -4 3 -9 -3 -5 -1 -12 5 -16 13 -8 13 -45 0 -45 -5 0 -10 9 -10 20
0 11 -4 20 -10 20 -16 0 -11 -33 8 -56 41 -48 97 -37 165 33 20 20 37 31 37
24 0 -7 -27 -39 -60 -71 -33 -32 -60 -65 -60 -73 0 -9 -5 -19 -10 -22 -14 -9
-12 -56 5 -85 21 -36 20 -126 -1 -134 -22 -8 -44 11 -37 31 5 12 2 15 -9 11
-9 -4 -21 -1 -27 5 -8 8 -11 8 -11 0 0 -6 7 -13 15 -17 8 -3 15 -13 15 -21 0
-12 -8 -15 -32 -13 l-33 3 -1 95 c-1 106 -21 156 -70 178 -32 15 -34 15 -34
-3 0 -8 6 -15 13 -15 8 0 24 -11 37 -25 24 -25 24 -26 4 -44 -28 -28 -91 -33
-80 -6 10 26 -14 63 -46 69 -37 7 -68 -12 -68 -42 0 -21 -3 -23 -27 -17 -34 8
-53 23 -53 41 0 8 -7 14 -15 14 -12 0 -13 -5 -3 -24 12 -28 78 -59 123 -58 16
1 35 -4 41 -9 20 -17 87 -14 124 4 l35 18 -28 -28 c-22 -22 -37 -28 -71 -28
-50 0 -47 7 -47 -109 0 -45 5 -84 12 -92 7 -8 9 -18 5 -22 -10 -10 -46 36 -46
58 0 24 -36 36 -57 18 -15 -12 -16 -10 -9 12 14 52 19 130 8 130 -7 0 -36 26
-67 57 -30 31 -58 53 -62 49 -5 -4 0 -13 10 -20 9 -7 17 -17 17 -21 0 -4 8
-14 18 -21 15 -12 11 -13 -31 -14 -27 0 -74 -11 -109 -25 -34 -14 -67 -25 -74
-25 -17 0 -24 24 -24 86 0 64 15 100 70 169 21 27 37 52 34 55 -3 3 -15 -6
-26 -20 -11 -14 -32 -39 -48 -56 -15 -17 -31 -41 -35 -52 -3 -12 -14 -22 -23
-22 -11 0 -13 -3 -5 -8 6 -4 14 -34 17 -67 11 -128 22 -165 41 -135 4 6 11 7
17 4 7 -4 2 -14 -13 -25 -18 -13 -25 -31 -29 -76 -4 -32 -10 -65 -14 -74 -6
-13 -2 -16 18 -12 19 4 26 1 26 -11 0 -13 -11 -16 -56 -16 -47 0 -60 4 -86 29
l-32 30 57 0 c72 0 79 4 60 42 -8 16 -12 41 -9 54 5 19 2 23 -14 22 -16 -1
-18 -6 -13 -27 11 -42 9 -65 -6 -65 -19 0 -43 89 -37 138 2 20 -2 65 -10 99
-9 38 -11 65 -5 71 9 9 -28 47 -79 79 -14 8 -36 38 -49 64 -13 27 -27 56 -31
64 -4 8 -16 16 -27 18 -12 2 -29 12 -39 24 -19 20 -19 21 4 13 22 -6 22 -5 10
14 -12 19 -14 20 -25 5 -18 -24 0 -58 36 -68 22 -6 31 -15 31 -30 0 -12 5 -27
11 -33 5 -5 18 -25 27 -44 9 -19 29 -39 43 -46 39 -19 55 -43 70 -108 18 -82
19 -80 -28 -81 -35 -1 -43 2 -43 18 0 10 7 18 15 18 16 0 20 36 7 57 -12 19
-55 31 -79 22 -22 -8 -29 -31 -25 -81 1 -14 -3 -14 -28 -5 -28 11 -29 14 -23
52 3 22 9 47 13 55 11 22 23 120 15 120 -4 0 -14 -8 -21 -17 -13 -17 -13 -17
-14 0 0 25 -9 21 -69 -28 -56 -45 -71 -48 -71 -15 0 24 -15 34 -27 17 -17 -23
-33 -94 -33 -151 0 -31 -3 -56 -7 -56 -5 1 -19 24 -33 52 -13 27 -30 52 -37
55 -6 3 -9 11 -7 18 3 7 -8 35 -24 61 -28 47 -30 54 -27 144 2 52 6 110 10
127 11 50 -2 103 -25 103 -10 0 -22 5 -25 10 -3 6 -13 10 -22 10 -9 0 -26 9
-38 20 l-22 21 -33 -31 c-17 -16 -35 -28 -39 -25 -13 7 -108 -22 -144 -44 -64
-39 -71 -53 -74 -156 -2 -57 0 -96 7 -100 5 -3 10 -14 10 -24 0 -20 71 -57 89
-47 7 5 11 -2 11 -18 0 -16 -7 -27 -20 -31 -12 -4 -26 -25 -37 -56 -18 -48
-18 -49 -53 -43 -19 4 -37 10 -40 14 -3 4 -14 9 -25 11 -13 3 -21 14 -23 32
-3 23 0 27 23 27 15 0 28 7 32 17 8 20 -14 105 -30 115 -35 22 -110 -3 -92
-32 3 -5 0 -10 -7 -10 -10 0 -12 44 -10 222 l3 223 29 28 c17 15 30 32 30 38
0 9 33 27 52 28 4 1 18 -20 30 -46z m2553 23 c19 -29 16 -91 -4 -91 -11 0 -38
72 -41 108 -1 17 31 5 45 -17z m-556 -18 c17 -18 31 -37 31 -42 0 -4 9 -6 20
-3 11 3 52 -11 97 -34 57 -29 90 -39 124 -39 52 0 67 -17 46 -50 -9 -16 -22
-20 -62 -18 l-50 1 45 4 c25 3 50 9 55 14 7 7 -8 8 -47 4 -59 -7 -187 15 -216
38 -9 7 -27 3 -62 -13 -28 -13 -51 -22 -53 -19 -15 19 -47 83 -47 93 0 7 11
23 25 36 20 18 28 21 37 12 20 -20 32 -13 14 7 -17 19 -15 41 4 41 5 0 23 -15
39 -32z m-1049 -26 c91 -9 42 -37 -85 -48 l-50 -5 28 25 c15 14 27 35 27 48 1
22 1 22 15 4 10 -13 31 -20 65 -24z m-837 2 c25 -21 36 -24 69 -19 30 5 38 4
38 -8 0 -21 -37 -28 -99 -18 -64 10 -77 21 -59 50 16 26 14 26 51 -5z m2560
-1 c10 -53 -20 -163 -45 -163 -18 0 -2 75 23 109 18 24 20 34 11 43 -14 14
-16 38 -3 38 5 0 11 -12 14 -27z m-1278 -13 c3 -5 -3 -10 -14 -10 -12 0 -21 5
-21 10 0 6 6 10 14 10 8 0 18 -4 21 -10z m-760 -11 c15 -23 103 -41 198 -40
48 1 45 -17 -6 -42 -35 -18 -40 -18 -94 -2 -32 9 -70 26 -86 37 -18 13 -32 17
-36 11 -14 -23 -54 -34 -93 -28 l-40 7 50 23 c27 13 53 28 56 34 9 14 43 14
51 0z m2002 -24 c-4 -8 -11 -15 -17 -15 -6 0 -6 7 2 20 14 22 24 19 15 -5z
m-1253 -17 c22 -13 43 -26 44 -30 2 -5 10 -8 17 -8 8 0 20 -8 27 -18 9 -14 31
-21 78 -25 36 -3 137 -15 225 -27 112 -14 214 -21 339 -21 174 0 206 -5 206
-32 0 -18 -398 -1 -530 23 -209 38 -226 40 -271 40 -25 0 -49 4 -55 10 -5 5
-34 16 -64 24 -30 8 -47 15 -37 15 25 1 21 18 -10 46 -35 31 -23 32 31 3z
m494 -18 l23 -40 -40 0 c-30 0 -43 5 -51 19 -15 28 -13 37 13 49 31 15 30 16
55 -28z m656 -13 c-8 -36 5 -109 18 -101 5 3 7 12 4 20 -3 8 -1 24 4 36 9 23
9 23 9 -2 1 -59 -11 -100 -31 -100 -10 0 -18 6 -17 13 1 6 -6 30 -15 51 -15
34 -16 45 -6 77 7 20 9 42 5 49 -5 8 0 7 14 -2 17 -10 20 -19 15 -41z m-1044
18 c0 -14 5 -25 10 -25 6 0 10 9 10 20 0 26 33 27 59 1 11 -11 45 -25 75 -33
65 -15 76 -34 14 -24 -24 3 -68 9 -98 13 -30 3 -62 11 -70 18 -8 7 -33 22 -55
33 l-40 21 48 1 c44 0 47 -2 47 -25z m1290 16 c0 -5 -18 -13 -40 -19 -45 -11
-55 1 -12 16 35 13 52 14 52 3z m-1090 -21 c0 -5 0 -13 0 -17 -1 -11 -35 -4
-68 13 -27 14 -27 14 21 14 26 0 47 -4 47 -10z m88 -2 c20 -20 14 -28 -23 -28
-28 0 -35 4 -35 20 0 23 38 28 58 8z m832 8 c0 -3 -4 -8 -10 -11 -5 -3 -10 -1
-10 4 0 6 5 11 10 11 6 0 10 -2 10 -4z m150 -26 c-14 -4 -34 -8 -45 -8 l-20
-1 20 9 c11 5 31 8 45 8 l25 0 -25 -8z m-2430 -15 c7 -8 18 -15 25 -15 7 0 15
-6 18 -14 4 -9 14 -12 28 -9 21 6 22 4 14 -48 -4 -30 -7 -101 -6 -159 3 -103
8 -123 47 -177 16 -23 16 -23 -17 -17 -32 5 -33 5 -15 -10 11 -9 23 -16 27
-16 11 0 21 -41 29 -130 4 -47 13 -107 19 -134 6 -27 12 -69 13 -93 1 -43 14
-67 22 -41 15 52 56 303 56 344 0 64 10 124 21 124 5 0 9 -13 9 -30 0 -37 9
-38 41 -4 33 35 79 68 79 55 0 -5 -7 -16 -15 -25 -18 -18 -19 -26 -2 -26 7 0
21 14 32 32 10 18 20 27 23 20 2 -6 -13 -31 -32 -55 -43 -52 -49 -82 -9 -46
23 21 25 22 18 4 -4 -11 -11 -36 -15 -55 -11 -55 -32 -90 -54 -96 -19 -4 -24
-20 -43 -149 -12 -79 -26 -152 -32 -162 -17 -32 -24 -57 -22 -80 3 -27 -44
-103 -64 -103 -8 0 -15 -4 -15 -10 0 -14 33 -13 48 2 22 22 27 -4 25 -131 -2
-161 -15 -196 -112 -302 -53 -58 -79 -79 -97 -79 -20 0 -24 -4 -19 -19 3 -11
1 -22 -5 -26 -6 -4 -10 12 -10 45 0 47 1 50 19 40 24 -12 41 -13 41 -1 0 5
-13 12 -29 16 -16 3 -32 13 -35 21 -5 13 1 15 34 9 24 -4 40 -3 40 3 0 6 -18
13 -41 17 -51 9 -42 20 14 17 31 -2 38 0 27 7 -8 6 -23 11 -33 11 -27 0 -11
17 23 23 47 10 35 23 -20 24 -52 1 -90 22 -90 50 0 8 -4 11 -10 8 -6 -3 -10
-15 -10 -26 0 -10 -4 -19 -10 -19 -18 0 -11 -15 13 -25 21 -9 22 -17 25 -119
1 -62 8 -116 14 -123 8 -11 4 -21 -17 -43 -23 -24 -37 -30 -69 -30 -32 0 -38
3 -26 11 11 8 12 12 3 16 -7 2 -13 13 -13 24 0 16 5 18 25 13 15 -4 25 -2 25
5 0 6 -11 11 -24 11 -14 0 -27 4 -31 9 -9 15 13 23 34 11 14 -7 22 -7 26 0 4
6 -7 15 -24 21 -44 16 -38 30 9 23 22 -4 40 -4 40 0 0 3 -18 13 -40 22 -34 14
-40 21 -40 46 0 25 3 28 20 23 11 -3 20 -2 20 3 0 5 -9 12 -20 15 -27 7 -25
27 3 27 22 0 22 0 -4 23 -14 12 -32 41 -39 63 -17 56 -10 94 41 241 21 62 21
64 4 134 -9 40 -37 113 -61 163 -42 88 -43 95 -50 217 -8 144 -4 165 32 208
23 27 31 31 59 25 20 -3 35 -1 40 5 4 7 20 9 41 5 30 -5 34 -4 34 15 0 12 4
29 9 39 5 9 16 45 24 80 l14 63 -58 60 c-31 32 -61 59 -67 59 -13 0 -33 58
-22 65 5 3 21 -6 36 -20 33 -31 46 -32 42 -2 -2 16 -9 21 -26 20 -30 -4 -28 4
11 27 39 24 41 24 57 5z m993 -15 c-4 -15 2 -23 28 -34 l34 -14 -35 -6 c-19
-3 -53 -7 -75 -10 l-40 -5 30 14 c17 8 36 14 43 15 6 0 12 5 12 11 0 11 -8 10
-75 -7 -15 -4 -13 1 10 20 16 14 38 27 50 29 11 2 21 5 22 6 0 0 -1 -8 -4 -19z
m783 -1 c40 -12 71 -26 68 -30 -3 -5 -54 -9 -114 -9 -120 0 -144 12 -81 42 46
21 41 22 127 -3z m676 -136 c4 -182 0 -255 -13 -248 -5 4 -9 16 -9 29 0 32
-32 58 -66 54 -20 -2 -33 -14 -50 -44 -22 -39 -22 -44 -8 -72 8 -17 24 -34 34
-37 32 -10 25 -42 -10 -49 -17 -3 -33 -6 -37 -6 -4 0 -9 14 -11 32 -2 18 -8
40 -13 50 -11 20 -3 63 17 93 10 13 14 53 14 125 1 152 37 220 117 220 l32 0
3 -147z m-972 127 c0 -13 -60 -13 -80 0 -11 7 -2 10 33 10 26 0 47 -4 47 -10z
m-373 -20 c21 -11 56 -20 79 -20 55 0 304 -37 329 -49 11 -6 138 -14 281 -18
l261 -9 37 -27 c31 -24 36 -26 36 -10 0 10 12 -4 26 -31 24 -45 26 -57 20
-119 -3 -38 -12 -79 -18 -90 -12 -21 -31 -73 -85 -222 -34 -96 -28 -191 15
-244 57 -70 78 -134 67 -195 -9 -44 -70 -113 -111 -126 -28 -8 -28 -9 -6 -15
24 -8 27 -15 13 -30 -4 -6 -14 -46 -20 -90 -7 -44 -21 -130 -32 -190 -21 -109
-21 -111 -2 -167 11 -32 18 -60 15 -63 -17 -16 -43 4 -87 66 -122 172 -113
154 -125 274 -12 135 -13 242 -1 249 5 3 12 32 16 63 4 32 13 73 20 90 17 41
1 53 -17 13 -7 -16 -16 -30 -19 -30 -3 0 -16 31 -28 68 -23 74 -28 180 -10
214 13 24 49 164 49 191 0 18 31 20 58 3 7 -4 16 -5 19 -2 10 10 -17 33 -46
39 -40 8 -61 33 -61 72 0 55 74 117 104 88 4 -5 28 -8 52 -9 40 -1 44 1 44 23
0 22 -3 23 -74 23 -70 0 -256 40 -281 60 -5 5 -28 11 -50 15 -40 7 -183 46
-240 66 -16 6 -58 19 -93 29 l-62 19 -72 -30 c-50 -20 -81 -28 -100 -24 -17 4
-25 11 -22 17 4 7 2 8 -5 4 -6 -4 -18 -1 -25 7 -13 12 -10 16 23 26 21 6 45
11 54 11 9 0 19 5 23 12 5 8 -3 9 -32 3 -49 -9 -95 -8 -106 3 -5 5 24 12 69
16 76 7 108 19 97 37 -3 5 -14 9 -24 9 -10 0 -22 5 -25 10 -11 17 33 11 72
-10z m478 9 c4 -6 5 -12 3 -14 -7 -8 -78 7 -78 16 0 13 68 11 75 -2z m-1728
-5 c-3 -3 -12 -4 -19 -1 -8 3 -5 6 6 6 11 1 17 -2 13 -5z m2403 -99 c-14 -17
-21 -320 -7 -367 4 -18 4 -28 -3 -28 -5 0 -10 9 -10 19 0 11 -4 22 -9 25 -5 3
-9 80 -8 171 0 126 3 168 13 176 8 6 14 19 14 27 0 12 3 13 12 4 8 -8 8 -15
-2 -27z m-2355 -25 c3 -5 1 -10 -4 -10 -6 0 -11 5 -11 10 0 6 2 10 4 10 3 0 8
-4 11 -10z m75 -46 c0 -8 -5 -12 -10 -9 -6 4 -8 11 -5 16 9 14 15 11 15 -7z
m1574 -52 l30 -8 -38 -42 c-21 -23 -44 -42 -51 -42 -7 0 -15 16 -18 36 -3 20
-14 45 -24 56 -18 20 -17 20 27 14 25 -3 58 -10 74 -14z m-851 -22 c-6 -22 12
-28 21 -7 3 6 5 3 3 -8 -1 -14 -11 -21 -30 -23 -29 -4 -34 7 -15 38 16 26 28
26 21 0z m1574 -2 c-3 -8 -6 -5 -6 6 -1 11 2 17 5 13 3 -3 4 -12 1 -19z
m-2500 -10 c-3 -8 -6 -5 -6 6 -1 11 2 17 5 13 3 -3 4 -12 1 -19z m1945 -19
l37 -9 -23 -51 c-13 -27 -26 -50 -30 -50 -3 1 -46 1 -96 1 -49 0 -90 3 -90 8
0 4 13 15 30 24 16 9 42 35 57 57 30 44 27 43 115 20z m-2092 -21 c14 -15 20
-33 18 -53 -3 -28 -6 -30 -50 -32 -30 -1 -51 3 -58 12 -17 20 -5 45 20 45 12
0 18 4 15 10 -10 16 2 40 19 40 9 0 25 -10 36 -22z m2766 -25 c4 -16 11 -33
16 -40 17 -22 4 -46 -26 -49 -21 -2 -29 2 -33 17 -3 10 -9 19 -14 19 -15 0
-10 28 7 34 10 4 13 13 9 26 -5 16 -2 20 14 20 14 0 23 -9 27 -27z m-2820 -98
c8 -20 -12 -44 -34 -41 -10 2 -18 14 -20 29 -3 23 0 27 23 27 14 0 28 -7 31
-15z m1615 -6 c9 -17 8 -23 -2 -30 -30 -19 -61 0 -40 25 6 7 8 16 4 19 -3 4 1
7 10 7 9 0 21 -10 28 -21z m492 14 c-13 -2 -33 -2 -45 0 -13 2 -3 4 22 4 25 0
35 -2 23 -4z m517 -9 c0 -8 -4 -12 -10 -9 -5 3 -10 10 -10 16 0 5 5 9 10 9 6
0 10 -7 10 -16z m235 -38 c-10 -14 -22 -23 -31 -19 -18 7 -18 43 0 43 7 0 20
7 27 17 13 15 14 15 17 0 2 -9 -4 -27 -13 -41z m-826 28 c2 -2 -19 -4 -47 -4
-29 0 -52 4 -52 10 0 9 88 3 99 -6z m114 -11 c-13 -2 -33 -2 -45 0 -13 2 -3 4
22 4 25 0 35 -2 23 -4z m-1155 -9 c25 -7 31 -34 7 -34 -8 0 -15 -4 -15 -10 0
-5 -9 -10 -19 -10 -16 0 -19 6 -16 28 2 15 4 28 4 30 1 3 14 2 39 -4z m1110
-6 c93 -3 113 -18 24 -18 -99 0 -212 12 -206 22 4 5 27 7 53 4 25 -3 83 -7
129 -8z m512 -47 c-1 -10 -6 -7 -15 9 -19 33 -18 50 0 26 8 -11 15 -27 15 -35z
m-2566 23 c23 -9 20 -17 -14 -32 -16 -8 -30 -18 -30 -23 0 -13 34 -11 47 2 9
9 19 6 39 -10 15 -11 33 -21 40 -21 8 0 14 -4 14 -9 0 -5 -21 -5 -47 0 -30 6
-59 6 -77 -1 -53 -18 -66 -14 -66 25 0 28 4 35 19 35 25 0 38 20 20 31 -17 10
30 13 55 3z m596 -126 c0 -28 -4 -38 -16 -38 -11 0 -14 6 -9 20 4 12 2 20 -5
20 -7 0 -10 7 -7 15 4 8 2 17 -3 20 -6 4 -10 27 -10 53 l1 47 24 -50 c14 -27
25 -67 25 -87z m1438 117 c56 -2 101 -7 100 -11 -3 -8 -203 -5 -235 3 -33 8
-28 26 5 19 15 -3 73 -8 130 -11z m502 -34 c0 -10 -7 -24 -15 -31 -13 -11 -15
-8 -15 17 0 16 3 33 6 36 11 10 24 -3 24 -22z m270 -53 c-12 -13 -29 -34 -38
-48 -9 -14 -38 -53 -65 -87 -27 -35 -45 -67 -42 -73 4 -6 24 11 47 40 54 68
57 63 5 -10 -23 -33 -46 -58 -52 -56 -24 7 -13 49 31 117 25 41 56 90 69 109
12 19 30 49 41 65 l19 30 3 -32 c2 -23 -3 -39 -18 -55z m-1352 56 c15 -5 22
-14 22 -32 0 -24 -1 -25 -62 -19 -35 4 -76 10 -92 13 -24 6 -27 4 -22 -12 4
-14 -1 -22 -19 -31 -28 -12 -33 -2 -10 17 22 18 10 27 -27 22 -43 -6 -35 1 27
27 49 20 137 27 183 15z m687 -15 c11 -11 -38 -11 -163 -3 -51 4 -92 11 -92
15 0 11 242 -1 255 -12z m-2025 1 c0 -5 -9 -10 -20 -10 -11 0 -20 5 -20 10 0
6 9 10 20 10 11 0 20 -4 20 -10z m710 -10 c-24 -15 -36 -11 -14 4 10 8 21 12
24 10 2 -3 -2 -9 -10 -14z m1930 10 c0 -5 -13 -10 -29 -10 -15 0 -40 -10 -55
-21 -15 -12 -29 -19 -31 -17 -9 9 8 47 24 51 32 9 91 7 91 -3z m-1084 -22 c-3
-13 -6 -26 -6 -30 0 -11 -80 -10 -80 0 0 24 37 50 74 51 14 1 17 -4 12 -21z
m367 0 c53 -1 97 -6 97 -10 0 -11 -228 -10 -234 1 -8 12 5 22 23 17 9 -3 60
-6 114 -8z m-1045 -19 c23 -7 42 -16 42 -21 0 -14 -118 -10 -123 5 -3 9 -9 9
-28 0 -27 -15 -129 -26 -129 -15 1 45 134 63 238 31z m1611 -39 c0 -9 -6 -4
-14 10 -19 33 -19 49 0 24 8 -10 14 -26 14 -34z m120 29 c-6 -12 -20 -24 -30
-26 -10 -3 -19 -12 -19 -19 0 -8 -2 -14 -4 -14 -2 0 -11 -3 -20 -6 -28 -11
-18 24 12 43 15 10 31 23 35 30 4 7 15 13 23 13 12 0 13 -4 3 -21z m-1322 -30
c7 -6 13 -19 12 -28 0 -10 -2 -11 -6 -3 -2 6 -11 12 -18 12 -8 0 -19 9 -25 20
-6 11 -17 20 -25 20 -7 0 -17 5 -20 11 -8 11 61 -15 82 -32z m1120 19 c-3 -8
-6 -5 -6 6 -1 11 2 17 5 13 3 -3 4 -12 1 -19z m-397 2 c10 -7 -25 -10 -107
-10 -76 0 -123 4 -123 10 0 13 210 13 230 0z m449 -45 c0 -5 -6 1 -14 15 -8
14 -14 30 -14 35 0 6 6 -1 14 -15 8 -14 14 -29 14 -35z m-2484 36 c18 -4 31
-14 33 -25 3 -16 -1 -17 -40 -11 -23 4 -49 12 -56 17 -7 7 -35 8 -67 4 -32 -4
-55 -2 -55 3 0 17 124 25 185 12z m1366 -3 c-1 -5 -1 -18 -1 -30 0 -21 -1 -21
-15 6 -19 35 -19 38 1 34 8 -2 15 -6 15 -10z m1371 -43 c-1 -47 -3 -50 -107
-175 -63 -76 -85 -104 -85 -112 0 -22 25 2 100 97 46 58 85 105 87 105 2 0 3
-26 3 -57 l-1 -58 -120 -150 c-156 -195 -144 -184 -169 -158 -19 22 -19 22 1
69 21 47 22 95 3 164 -7 23 -6 24 9 11 15 -12 20 -10 42 15 14 16 25 34 25 40
0 7 7 14 15 18 25 9 17 -8 -30 -63 -50 -59 -53 -82 -4 -35 39 37 209 268 209
284 0 10 -3 10 -15 0 -22 -18 -18 3 6 34 27 34 32 29 31 -29z m-1112 35 c0 -5
-4 -10 -9 -10 -6 0 -13 5 -16 10 -3 6 1 10 9 10 9 0 16 -4 16 -10z m-806 -35
c-10 -24 16 -65 53 -84 21 -10 57 -38 80 -61 32 -33 54 -45 90 -51 36 -7 57
-18 81 -44 18 -19 34 -35 37 -35 3 0 5 18 5 40 0 38 12 52 25 30 3 -5 15 -15
26 -21 18 -9 19 -8 7 10 -7 11 -10 23 -7 26 9 9 62 -22 81 -47 l18 -23 0 25
c0 25 4 27 83 38 101 15 147 15 147 2 0 -5 -11 -12 -25 -16 -14 -3 -22 -10
-19 -15 8 -14 18 -11 58 16 20 14 47 27 60 31 17 4 27 17 36 47 22 73 22 74
29 47 5 -17 16 -27 36 -31 17 -4 24 -7 18 -8 -20 -2 -15 -21 5 -21 16 -1 16
-1 -1 -11 -13 -8 -15 -14 -7 -30 10 -17 7 -19 -29 -19 -34 0 -41 -4 -55 -34
-22 -46 -110 -124 -114 -102 -3 12 -10 14 -30 9 -15 -3 -30 -11 -34 -17 -5 -7
-8 -6 -8 4 0 22 -18 -2 -22 -30 -2 -17 -16 -32 -45 -48 l-43 -23 -2 -77 c-1
-42 -1 -90 0 -107 7 -99 10 -234 6 -258 -6 -27 -7 -28 -62 -25 -45 2 -57 7
-60 21 -6 29 6 53 20 39 7 -7 28 -11 47 -11 20 1 27 3 16 6 -37 8 -66 27 -79
51 l-13 24 -26 -31 c-14 -17 -36 -35 -49 -40 -23 -10 -23 -10 4 -10 15 -1 30
4 33 9 13 21 25 9 25 -25 l0 -35 -60 0 c-66 0 -70 3 -91 81 -16 57 -15 136 1
174 18 41 20 247 3 240 -16 -5 -17 7 -2 22 8 8 1 18 -25 38 -20 15 -36 34 -36
42 0 8 -5 11 -12 7 -6 -4 -20 4 -33 20 -11 14 -37 35 -56 45 -18 10 -44 33
-56 52 -41 64 -58 80 -88 83 -21 3 -29 8 -27 19 1 9 -3 19 -9 23 -8 4 -4 12
12 21 24 14 24 14 -6 9 -41 -6 -68 9 -29 17 16 3 38 8 49 10 11 3 25 6 31 6 7
1 14 11 18 24 5 17 8 19 15 8 5 -8 7 -19 5 -26z m396 25 c0 -5 -2 -10 -4 -10
-3 0 -8 5 -11 10 -3 6 -1 10 4 10 6 0 11 -4 11 -10z m350 0 c0 -5 -3 -10 -7
-10 -5 0 -18 -3 -30 -6 -17 -5 -23 -2 -23 10 0 11 9 16 30 16 17 0 30 -4 30
-10z m883 -31 c-8 -29 -13 -23 -13 14 0 22 3 28 9 18 5 -7 6 -22 4 -32z
m-2534 17 c7 -8 33 -17 59 -21 61 -8 73 -16 66 -41 -5 -19 -13 -21 -77 -20
-40 0 -89 -4 -110 -8 l-38 -9 3 49 c3 47 4 49 38 55 19 4 38 7 41 8 4 0 12 -5
18 -13z m854 7 c-7 -2 -19 -2 -25 0 -7 3 -2 5 12 5 14 0 19 -2 13 -5z m132 -4
c-30 -5 -54 -4 -59 1 -7 7 12 10 50 9 l59 -1 -50 -9z m1495 1 c0 -5 -4 -10
-10 -10 -5 0 -10 5 -10 10 0 6 5 10 10 10 6 0 10 -4 10 -10z m120 -47 c-1 -28
-3 -34 -10 -22 -8 14 -3 59 6 59 2 0 4 -17 4 -37z m-1376 12 c-4 -8 -10 -15
-15 -15 -4 0 -6 7 -3 15 4 8 10 15 15 15 4 0 6 -7 3 -15z m881 -42 c-4 -32 -9
-61 -12 -65 -8 -14 -73 -8 -99 8 -21 15 -28 15 -52 3 -15 -7 -31 -15 -35 -17
-5 -2 -7 4 -5 14 3 20 0 21 -69 23 -39 1 -43 4 -43 25 0 14 -5 28 -11 31 -14
9 -46 -21 -53 -50 -6 -22 -10 -24 -58 -20 -57 4 -71 19 -58 65 l6 25 170 5
c93 3 204 7 248 8 l78 2 -7 -57z m-1525 43 c0 -3 -4 -8 -10 -11 -5 -3 -10 -1
-10 4 0 6 5 11 10 11 6 0 10 -2 10 -4z m887 -38 c-3 -8 -6 -5 -6 6 -1 11 2 17
5 13 3 -3 4 -12 1 -19z m53 -3 c0 -16 -6 -25 -16 -25 -11 0 -14 5 -10 16 3 9
6 20 6 25 0 5 5 9 10 9 6 0 10 -11 10 -25z m1044 -18 c5 -27 4 -37 -3 -32 -6
3 -11 22 -11 42 0 44 5 41 14 -10z m-74 13 c0 -5 -9 -10 -21 -10 -11 0 -17 5
-14 10 3 6 13 10 21 10 8 0 14 -4 14 -10z m-2445 -40 c-28 -12 -88 -12 -80 0
3 6 27 10 53 9 35 0 42 -3 27 -9z m85 0 c0 -5 -12 -10 -27 -9 l-28 1 25 8 c14
4 26 8 28 9 1 1 2 -3 2 -9z m650 -5 c7 -8 26 -15 43 -15 32 0 67 -24 67 -46 0
-10 -16 -13 -52 -13 -29 0 -73 -1 -98 -3 l-45 -3 4 40 c1 22 5 43 8 48 8 13
60 7 73 -8z m1827 -7 c-3 -8 -6 -5 -6 6 -1 11 2 17 5 13 3 -3 4 -12 1 -19z
m-1042 2 c8 -13 -55 -40 -91 -40 -22 0 -25 2 -14 15 7 8 23 15 36 15 12 0 26
5 29 10 8 13 32 13 40 0z m120 -12 c55 -25 11 -45 -88 -39 l-62 3 35 19 c42
22 61 24 54 5 -3 -9 2 -13 18 -11 34 4 34 4 12 20 -23 17 -5 20 31 3z m382
-28 c12 0 23 -4 23 -10 0 -6 -30 -10 -70 -10 -38 0 -70 4 -70 8 0 5 -15 7 -32
4 l-33 -4 35 19 c31 16 40 17 79 6 24 -7 55 -13 68 -13z m-2147 12 c0 -4 26
-33 57 -62 109 -105 142 -140 182 -191 23 -28 41 -55 41 -61 0 -6 -10 2 -22
18 -46 60 -235 247 -241 237 -3 -5 37 -51 88 -103 130 -131 168 -178 161 -197
-6 -14 -13 -11 -41 17 -38 36 -49 31 -14 -6 12 -12 19 -28 17 -36 -3 -7 -17 4
-35 29 -47 65 -93 115 -103 111 -4 -2 20 -37 56 -78 64 -75 77 -97 50 -87 -10
4 -13 1 -10 -7 5 -13 -104 -119 -117 -114 -13 5 -100 141 -96 151 1 5 25 -20
51 -57 45 -60 66 -79 66 -58 0 4 -25 40 -55 81 -30 41 -55 81 -55 89 0 8 22
-16 50 -54 63 -89 76 -104 84 -104 15 0 2 25 -56 102 -73 97 -95 135 -83 145
4 5 10 2 12 -4 3 -7 9 -13 15 -13 5 0 0 14 -12 31 -12 16 -20 33 -17 36 5 5
45 -35 156 -157 19 -20 28 -26 22 -14 -5 11 -48 63 -96 115 -47 51 -85 98 -85
104 1 5 18 -10 40 -35 22 -24 42 -41 46 -38 3 4 -14 31 -40 60 -69 79 -45 72
39 -12 41 -41 77 -71 81 -67 4 4 -32 46 -80 94 -52 52 -84 93 -81 101 3 7 5
20 5 28 0 8 5 14 10 14 6 0 10 -4 10 -8z m210 -2 c16 -5 -10 -8 -75 -9 -68 0
-95 2 -85 9 18 11 124 11 160 0z m2357 4 c-3 -3 -12 -4 -19 -1 -8 3 -5 6 6 6
11 1 17 -2 13 -5z m-1067 -34 c0 -5 -4 -10 -10 -10 -5 0 -10 5 -10 10 0 6 5
10 10 10 6 0 10 -4 10 -10z m-1250 -5 c0 -3 -16 -12 -36 -20 -62 -26 -144 -16
-144 17 0 4 40 8 90 8 50 0 90 -2 90 -5z m1040 -5 c0 -13 -11 -13 -30 0 -12 8
-11 10 8 10 12 0 22 -4 22 -10z m783 -10 c49 -5 90 -10 91 -12 1 -2 8 -16 14
-32 12 -27 12 -28 -10 -22 -13 3 -71 9 -130 12 -156 10 -136 -9 24 -24 121
-11 148 -16 137 -26 -2 -2 -67 0 -143 4 -110 5 -146 4 -168 -7 -36 -18 -98
-28 -98 -16 0 13 39 32 74 35 16 2 32 9 34 17 4 11 -3 13 -32 8 -38 -6 -48 6
-18 21 9 6 36 13 60 17 33 5 42 11 42 27 0 15 5 18 16 14 9 -4 57 -11 107 -16z
m547 13 c0 -5 -7 -16 -14 -25 -12 -17 -14 -17 -30 1 -19 21 -21 19 37 30 4 0
7 -2 7 -6z m-1700 -31 c16 -10 27 -21 24 -25 -10 -9 75 -48 111 -50 19 -2 38
-6 42 -11 18 -19 -105 7 -152 32 -38 20 -65 26 -110 27 -71 0 -91 19 -25 23
25 2 49 7 55 13 13 13 20 12 55 -9z m1740 -2 c0 -5 -4 -10 -10 -10 -5 0 -10 5
-10 10 0 6 5 10 10 10 6 0 10 -4 10 -10z m-2392 -17 c2 -8 -5 -13 -17 -13 -12
0 -29 -5 -39 -11 -13 -8 -26 -7 -52 5 -26 11 -29 14 -10 11 14 -3 39 2 55 10
35 16 57 15 63 -2z m766 -18 c20 -15 20 -15 0 -15 -10 0 -28 7 -38 15 -20 15
-20 15 0 15 10 0 28 -7 38 -15z m1866 -8 c0 -7 -18 -31 -40 -52 -59 -58 -50
-25 15 52 13 16 25 16 25 0z m-1973 -25 c31 -23 135 -47 159 -38 9 3 27 -3 41
-14 l26 -20 -39 1 c-49 0 -146 21 -165 34 -45 32 -84 47 -122 45 -61 -4 -79
-1 -72 10 11 17 140 4 172 -18z m-637 3 c11 -13 6 -15 -36 -15 -45 1 -48 2
-30 15 25 19 50 19 66 0z m605 -36 c61 -39 144 -61 225 -61 27 1 52 -4 56 -9
7 -12 -158 -10 -201 3 -98 30 -183 48 -202 43 -24 -6 -38 8 -29 30 8 23 113
19 151 -6z m-579 -52 c18 -76 3 -101 -29 -48 -21 36 -21 41 -2 41 29 0 15 18
-21 27 -20 4 -36 13 -35 18 0 10 61 25 71 17 3 -2 10 -27 16 -55z m2584 31 c0
-44 -15 -67 -32 -50 -9 9 -9 12 5 12 19 0 23 25 7 35 -8 5 -7 11 1 21 17 20
19 18 19 -18z m-740 4 c8 -4 -52 -9 -135 -12 -160 -5 -192 -2 -133 15 39 11
243 9 268 -3z m-336 -34 c-3 -13 -7 -24 -8 -24 0 -1 -38 -4 -83 -8 -72 -6 -82
-4 -77 9 4 8 18 15 33 15 15 0 31 4 37 9 5 5 23 11 39 14 65 9 67 9 59 -15z
m-955 -13 c30 -8 59 -19 65 -26 8 -9 -16 -10 -103 -5 -63 4 -116 8 -118 10 -2
2 -1 11 3 20 8 21 78 21 153 1z m1361 0 c0 -13 -21 -15 -144 -15 -89 0 -147
-4 -151 -10 -4 -6 33 -66 82 -133 49 -67 124 -171 166 -232 43 -60 107 -150
142 -200 35 -49 65 -93 65 -97 0 -5 -29 -8 -64 -8 l-65 0 -48 85 c-26 47 -72
127 -101 178 -30 51 -64 110 -77 132 -12 22 -57 99 -98 170 l-77 130 48 5 c26
3 109 7 185 8 117 2 137 0 137 -13z m640 -31 c0 -2 -11 -4 -25 -4 -14 0 -25 4
-25 9 0 4 11 6 25 3 14 -2 25 -6 25 -8z m-1023 -64 c-1 -38 -5 -70 -9 -70 -10
0 -11 124 -1 133 12 13 13 7 10 -63z m-29 21 c2 -20 -2 -37 -10 -42 -16 -11
-145 -10 -213 1 l-50 7 60 2 c101 2 195 13 195 23 0 6 -50 7 -127 3 l-128 -7
23 21 c12 12 26 20 30 18 4 -2 41 -1 82 3 125 12 134 11 138 -29z m1088 23
c-3 -9 -6 -18 -6 -20 0 -2 -7 -4 -15 -4 -13 0 -13 3 -3 20 15 24 33 27 24 4z
m-1746 -15 c0 -11 -4 -17 -10 -14 -5 3 -10 13 -10 21 0 8 5 14 10 14 6 0 10
-9 10 -21z m40 11 c0 -5 -2 -10 -4 -10 -3 0 -8 5 -11 10 -3 6 -1 10 4 10 6 0
11 -4 11 -10z m1513 -58 c-59 -69 -73 -64 -17 7 27 33 51 56 53 50 2 -6 -14
-31 -36 -57z m-1643 53 c0 -6 -178 -211 -234 -269 -21 -23 -71 -77 -109 -121
-39 -44 -99 -111 -134 -149 -35 -37 -70 -77 -77 -88 -11 -15 -23 -19 -56 -16
l-43 3 92 95 c51 52 123 131 161 176 38 44 124 133 190 198 67 65 119 121 115
124 -6 7 -17 7 -167 10 -71 2 -78 4 -78 22 0 19 7 20 170 20 94 0 170 -2 170
-5z m50 -67 c0 -23 -3 -39 -6 -35 -9 9 -10 86 -1 80 4 -2 7 -23 7 -45z m76 13
c-3 -5 -15 -7 -26 -4 -28 7 -25 13 6 13 14 0 23 -4 20 -9z m1500 -132 c71 -72
148 -150 172 -172 40 -38 42 -43 42 -96 l0 -55 -57 61 c-161 170 -313 345
-313 361 0 6 20 32 25 32 1 0 60 -59 131 -131z m79 121 c-3 -5 -13 -10 -21
-10 -8 0 -14 -5 -14 -11 0 -13 -41 -59 -52 -59 -15 0 -7 17 23 53 17 21 40 37
51 37 10 0 16 -4 13 -10z m75 0 c0 -5 -4 -10 -10 -10 -5 0 -10 5 -10 10 0 6 5
10 10 10 6 0 10 -4 10 -10z m-2550 -14 c0 -2 -7 -17 -15 -32 -8 -16 -15 -36
-15 -44 0 -8 -9 -28 -19 -43 -19 -29 -267 -287 -275 -287 -3 0 -4 35 -2 77 2
74 4 77 35 99 43 29 47 34 35 42 -14 10 -74 94 -74 104 0 22 21 3 51 -47 19
-30 37 -55 40 -55 6 0 68 54 174 152 34 32 65 48 65 34z m910 -16 c0 -5 -13
-10 -30 -10 -16 0 -30 5 -30 10 0 6 14 10 30 10 17 0 30 -4 30 -10z m610 0 c0
-6 -54 -10 -141 -10 -91 0 -138 4 -134 10 4 6 62 10 141 10 83 0 134 -4 134
-10z m1010 0 c0 -5 -2 -10 -4 -10 -3 0 -8 5 -11 10 -3 6 -1 10 4 10 6 0 11 -4
11 -10z m50 -4 c0 -3 -4 -8 -10 -11 -5 -3 -10 -1 -10 4 0 6 5 11 10 11 6 0 10
-2 10 -4z m-140 -41 c-7 -9 -15 -13 -17 -11 -6 6 20 36 26 30 2 -2 -2 -10 -9
-19z m50 11 c0 -19 -40 -67 -51 -61 -5 4 3 22 19 41 30 38 32 39 32 20z m120
7 c-1 -15 -110 -126 -117 -120 -3 4 1 15 10 25 10 10 17 33 17 51 0 30 2 33
24 27 15 -4 28 0 36 9 13 16 30 20 30 8z m-1683 -33 c3 -24 1 -25 -39 -22 -41
3 -45 1 -80 -47 -21 -28 -38 -53 -38 -55 0 -3 -29 -46 -65 -97 -36 -50 -65
-98 -65 -105 0 -11 38 -14 204 -14 113 0 216 4 229 9 14 6 27 8 30 5 2 -3 108
-7 233 -8 126 -2 257 -4 291 -5 53 -1 63 -4 68 -22 4 -11 4 -23 0 -27 -8 -8
-1114 -14 -1172 -7 -24 4 -43 9 -43 13 0 4 13 21 28 38 15 17 42 49 60 72 18
22 44 53 58 69 14 15 48 56 77 91 111 136 121 143 173 140 42 -3 48 -6 51 -28z
m572 20 l77 0 72 -128 c39 -70 83 -150 98 -177 14 -27 34 -62 45 -77 21 -29
17 -36 -21 -34 -22 1 -35 22 -115 183 l-90 182 -163 0 -163 1 3 23 c3 20 10
23 78 28 41 3 81 4 88 2 8 -2 48 -3 91 -3z m-739 -20 c0 -5 -4 -10 -10 -10 -5
0 -10 5 -10 10 0 6 5 10 10 10 6 0 10 -4 10 -10z m897 -12 c-3 -8 -6 -5 -6 6
-1 11 2 17 5 13 3 -3 4 -12 1 -19z m-1000 -40 c-3 -7 -5 -2 -5 12 0 14 2 19 5
13 2 -7 2 -19 0 -25z m68 23 c3 -5 1 -12 -5 -16 -5 -3 -10 1 -10 9 0 18 6 21
15 7z m1845 -38 c-24 -27 -45 -50 -47 -52 -2 -2 -3 0 -3 6 0 14 70 93 82 93 6
0 -9 -21 -32 -47z m-913 5 c-3 -7 -5 -2 -5 12 0 14 2 19 5 13 2 -7 2 -19 0
-25z m830 15 c-9 -9 -19 -14 -23 -11 -10 10 6 28 24 28 15 0 15 -1 -1 -17z
m-1862 -87 c-3 -24 -19 -56 -36 -76 l-29 -34 0 31 c0 26 3 30 19 26 15 -4 20
3 25 41 4 25 4 51 1 56 -4 6 -1 18 7 27 12 15 13 14 16 -7 2 -13 1 -42 -3 -64z
m62 52 c-3 -7 -5 -2 -5 12 0 14 2 19 5 13 2 -7 2 -19 0 -25z m1898 -18 c-16
-16 -31 -28 -34 -25 -2 3 8 19 24 35 16 16 31 28 34 25 2 -3 -8 -19 -24 -35z
m-2872 -23 c-6 -11 -32 23 -32 43 -1 10 6 7 18 -10 11 -13 17 -28 14 -33z
m1984 31 c-3 -8 -6 -5 -6 6 -1 11 2 17 5 13 3 -3 4 -12 1 -19z m-1120 -65 c-3
-10 -5 -2 -5 17 0 19 2 27 5 18 2 -10 2 -26 0 -35z m1123 31 c0 -8 -4 -12 -10
-9 -5 3 -10 10 -10 16 0 5 5 9 10 9 6 0 10 -7 10 -16z m898 -35 c-32 -20 -39
2 -10 34 17 19 17 19 20 -3 2 -13 -2 -27 -10 -31z m-871 19 c-3 -8 -6 -5 -6 6
-1 11 2 17 5 13 3 -3 4 -12 1 -19z m-1196 -93 l-9 -40 -1 56 c-1 31 2 59 7 63
11 12 14 -35 3 -79z m939 65 c0 -5 -7 -10 -15 -10 -8 0 -15 5 -15 10 0 6 7 10
15 10 8 0 15 -4 15 -10z m257 -22 c-3 -8 -6 -5 -6 6 -1 11 2 17 5 13 3 -3 4
-12 1 -19z m52 -55 c1 -13 -3 -23 -9 -23 -5 0 -10 19 -9 43 0 32 2 37 9 22 5
-11 9 -30 9 -42z m-1284 -22 c-9 -75 -24 -82 -18 -8 5 60 11 82 19 74 3 -3 3
-33 -1 -66z m335 59 c0 -5 -5 -10 -11 -10 -5 0 -7 5 -4 10 3 6 8 10 11 10 2 0
4 -4 4 -10z m757 -25 c-1 -19 -5 -35 -9 -35 -9 0 -10 17 -2 48 9 32 13 27 11
-13z m-152 5 c-3 -5 -23 -9 -43 -9 l-37 1 30 8 c44 11 57 11 50 0z m80 -40 c4
-6 -9 -10 -32 -9 -38 1 -38 1 -8 9 17 4 31 8 32 9 1 0 5 -3 8 -9z m285 -31 c0
-11 -4 -17 -10 -14 -5 3 -10 13 -10 21 0 8 5 14 10 14 6 0 10 -9 10 -21z
m-1379 -40 c-8 -38 -9 -40 -10 -12 -1 17 2 39 5 48 11 29 14 10 5 -36z m1419
21 c0 -5 -5 -10 -11 -10 -5 0 -7 5 -4 10 3 6 8 10 11 10 2 0 4 -4 4 -10z m470
-4 c0 -9 -30 -14 -35 -6 -4 6 3 10 14 10 12 0 21 -2 21 -4z m-1925 -81 c-4
-36 -10 -64 -12 -61 -3 3 -2 35 2 71 4 37 9 64 12 62 3 -3 2 -35 -2 -72z
m1455 35 c0 -5 -4 -10 -10 -10 -5 0 -10 5 -10 10 0 6 5 10 10 10 6 0 10 -4 10
-10z m-1493 -32 c-3 -8 -6 -5 -6 6 -1 11 2 17 5 13 3 -3 4 -12 1 -19z m1525
-50 c-5 -21 -20 -33 -29 -24 -3 3 0 12 7 21 7 8 10 21 7 29 -3 8 -3 17 1 21 9
9 20 -26 14 -47z m-1440 6 c4 -35 -7 -54 -22 -38 -9 11 -1 74 10 74 4 0 10
-16 12 -36z m-90 -9 c-2 -14 -9 -25 -14 -25 -6 0 -7 7 -4 16 3 9 6 22 6 30 0
9 4 13 9 10 4 -3 6 -17 3 -31z m241 8 c3 -16 1 -32 -4 -37 -11 -12 -15 -8 -22
32 -5 23 -3 32 7 32 8 0 16 -12 19 -27z m77 -2 c9 -38 30 -38 30 -1 0 25 4 31
18 28 9 -2 18 -13 20 -26 2 -12 10 -22 17 -22 8 0 17 -4 20 -10 4 -6 -17 -10
-54 -10 l-61 0 0 31 c0 36 -21 35 -31 -2 -6 -21 -7 -20 -8 9 -1 29 2 33 21 30
14 -2 24 -12 28 -27z m133 9 c-3 -12 -8 -19 -11 -16 -5 6 5 36 12 36 2 0 2 -9
-1 -20z m105 -12 c2 -16 -1 -28 -7 -28 -6 0 -11 11 -11 24 0 15 -7 27 -17 30
-11 3 -7 4 7 3 19 -2 26 -8 28 -29z m178 2 c1 -17 -3 -30 -7 -30 -5 0 -9 11
-9 25 0 26 -15 34 -23 13 -3 -8 -6 -6 -6 5 -1 11 6 17 22 17 18 0 22 -6 23
-30z m43 23 c-7 -41 16 -60 24 -20 4 18 4 17 6 -6 1 -24 -2 -28 -21 -25 -17 2
-24 11 -26 31 -2 15 1 27 7 27 6 0 10 -3 10 -7z m98 -23 c6 -16 8 -30 3 -30
-4 0 -13 14 -19 30 -5 17 -7 30 -3 30 4 0 13 -13 19 -30z m65 0 c3 -20 0 -30
-9 -30 -8 0 -13 12 -13 30 0 17 4 30 9 30 5 0 11 -13 13 -30z m38 0 c0 -39
-14 -39 -17 0 -1 17 2 30 7 30 6 0 10 -13 10 -30z m86 0 c1 -37 -17 -35 -27 3
-6 21 -4 27 9 27 12 0 17 -9 18 -30z m34 0 c0 -16 -2 -30 -4 -30 -2 0 -6 14
-8 30 -3 17 -1 30 4 30 4 0 8 -13 8 -30z m80 10 c0 -11 5 -20 10 -20 6 0 10 9
10 20 0 11 5 20 10 20 6 0 10 -14 10 -31 0 -27 -3 -30 -27 -27 -22 2 -29 9
-31 31 -2 15 1 27 7 27 6 0 11 -9 11 -20z m78 -10 c0 -16 -4 -30 -9 -30 -5 0
-9 14 -9 30 0 17 4 30 8 30 5 0 9 -13 10 -30z m42 0 c0 -18 -5 -30 -13 -30 -9
0 -12 10 -9 30 2 17 8 30 13 30 5 0 9 -13 9 -30z m40 5 c0 -14 -4 -25 -10 -25
-5 0 -10 11 -10 25 0 14 5 25 10 25 6 0 10 -11 10 -25z m40 0 c0 -14 -4 -25
-10 -25 -5 0 -10 11 -10 25 0 14 5 25 10 25 6 0 10 -11 10 -25z m44 3 c3 -13
2 -26 -3 -31 -5 -5 -11 5 -13 22 -5 36 7 42 16 9z m46 3 c0 -11 -4 -23 -10
-26 -6 -4 -10 5 -10 19 0 14 5 26 10 26 6 0 10 -9 10 -19z m-1283 -28 c-3 -10
-5 -4 -5 12 0 17 2 24 5 18 2 -7 2 -21 0 -30z m410 5 c-3 -7 -5 -2 -5 12 0 14
2 19 5 13 2 -7 2 -19 0 -25z m546 12 c3 -11 1 -23 -4 -26 -5 -3 -9 6 -9 20 0
31 6 34 13 6z m-123 -20 c0 -5 -4 -10 -10 -10 -5 0 -10 5 -10 10 0 6 5 10 10
10 6 0 10 -4 10 -10z m1250 -215 c0 -132 -3 -175 -12 -177 -48 -5 -105 -6
-363 -5 -481 1 -642 0 -1612 -8 l-932 -8 -10 25 c-5 15 -7 91 -4 181 l6 157
636 2 c350 2 1008 4 1464 6 l827 2 0 -175z"/>
<g>
<path d="M285 4940 c-14 -15 -15 -23 -6 -34 6 -8 21 -12 31 -9 21 6 26 18 10
28 -5 3 -7 12 -3 20 8 21 -11 18 -32 -5z"/>
</g>
<g>
<path d="M2764 4694 c-18 -14 -18 -14 6 -3 31 14 36 19 24 19 -6 0 -19 -7 -30
-16z"/>
</g>
<g>
<path d="M1940 4545 c-7 -9 -11 -18 -8 -20 3 -3 11 1 18 10 7 9 11 18 8 20 -3
3 -11 -1 -18 -10z"/>
</g>
<g>
<path d="M2645 4196 c-33 -51 -21 -110 30 -145 48 -32 56 -19 15 24 -40 41
-46 91 -15 125 16 18 16 20 2 20 -9 0 -24 -11 -32 -24z"/>
</g>
<g>
<path d="M2900 3500 c0 -5 5 -10 10 -10 6 0 10 5 10 10 0 6 -4 10 -10 10 -5 0
-10 -4 -10 -10z"/>
</g>
<g>
<path d="M2720 2987 c0 -19 26 -40 40 -32 13 8 5 22 -21 35 -15 8 -19 7 -19
-3z"/>
</g>
<g>
<path d="M1090 3729 c0 -16 103 -115 107 -102 4 10 -91 113 -102 113 -3 0 -5
-5 -5 -11z"/>
</g>
<g>
<path d="M2035 3685 c32 -26 45 -31 45 -16 0 11 -45 41 -62 41 -7 0 1 -11 17
-25z"/>
</g>
<g>
<path d="M902 3873 c14 -16 29 -38 33 -50 7 -24 25 -32 25 -10 0 22 -50 87
-67 87 -13 0 -11 -6 9 -27z"/>
</g>
<g>
<path d="M860 3872 c0 -13 39 -46 46 -39 3 3 3 10 -1 16 -9 15 -45 33 -45 23z"/>
</g>
<g>
<path d="M1850 3479 c-25 -5 -55 -7 -67 -4 -14 3 -23 1 -23 -6 0 -15 127 -6
143 10 12 12 10 12 -53 0z"/>
</g>
<g>
<path d="M1811 3300 c-17 -10 -6 -63 11 -58 12 4 18 57 8 63 -3 2 -12 0 -19
-5z"/>
</g>
<g>
<path d="M1350 3310 c-11 -7 -7 -10 17 -10 17 0 35 5 38 10 8 13 -35 13 -55 0z"/>
</g>
<g>
<path d="M1488 3264 c-30 -16 -35 -24 -15 -24 16 0 54 27 47 33 -3 3 -17 -1
-32 -9z"/>
</g>
<g>
<path d="M1481 3219 c-18 -6 -31 -13 -28 -16 9 -9 77 7 77 17 0 12 -4 11 -49
-1z"/>
</g>
<g>
<path d="M1525 3129 c-4 -6 -5 -13 -2 -16 7 -7 27 6 27 18 0 12 -17 12 -25 -2z"/>
</g>
<g>
<path d="M2570 3354 c0 -8 5 -12 10 -9 6 4 8 11 5 16 -9 14 -15 11 -15 -7z"/>
</g>
<g>
<path d="M2486 3338 c-19 -26 -8 -49 11 -23 12 18 18 45 9 45 -3 0 -12 -10
-20 -22z"/>
</g>
<g>
<path d="M2440 3155 c-7 -9 -10 -18 -7 -21 6 -7 47 18 47 28 0 14 -27 9 -40
-7z"/>
</g>
<g>
<path d="M815 3370 c-3 -5 4 -14 15 -20 11 -6 20 -18 20 -27 0 -12 3 -14 11
-6 6 6 9 19 7 28 -3 20 -44 39 -53 25z"/>
</g>
<g>
<path d="M805 3320 c-3 -5 1 -10 9 -10 9 0 16 5 16 10 0 6 -4 10 -9 10 -6 0
-13 -4 -16 -10z"/>
</g>
<g>
<path d="M1943 3083 c9 -9 19 -14 23 -11 10 10 -6 28 -24 28 -15 0 -15 -1 1
-17z"/>
</g>
<g>
<path d="M1195 3010 c-3 -5 -1 -10 4 -10 6 0 11 5 11 10 0 6 -2 10 -4 10 -3 0
-8 -4 -11 -10z"/>
</g>
<g>
<path d="M1330 2985 c0 -8 7 -15 15 -15 8 0 15 4 15 9 0 5 -7 11 -15 15 -9 3
-15 0 -15 -9z"/>
</g>
<g>
<path d="M1506 2991 c-4 -7 -5 -15 -2 -18 9 -9 19 4 14 18 -4 11 -6 11 -12 0z"/>
</g>
<g>
<path d="M1132 2941 c2 -7 7 -12 11 -12 12 1 9 15 -3 20 -7 2 -11 -2 -8 -8z"/>
</g>
<g>
<path d="M1433 2926 c15 -31 27 -32 58 -6 l24 21 -33 -6 c-20 -4 -38 -2 -47 5
-12 10 -12 8 -2 -14z"/>
</g>
<g>
<path d="M860 2830 c0 -5 4 -10 9 -10 6 0 13 5 16 10 3 6 -1 10 -9 10 -9 0
-16 -4 -16 -10z"/>
</g>
<g>
<path d="M920 3269 c-19 -5 -56 -11 -82 -14 -27 -4 -48 -10 -48 -15 0 -14 113
0 180 21 50 16 52 17 20 17 -19 0 -51 -4 -70 -9z"/>
</g>
<g>
<path d="M828 3208 c-16 -6 -28 -14 -28 -19 0 -5 11 -4 26 1 14 6 39 10 55 10
16 0 29 3 29 8 0 10 -50 10 -82 0z"/>
</g>
<g>
<path d="M730 3199 c0 -5 5 -7 10 -4 6 3 10 8 10 11 0 2 -4 4 -10 4 -5 0 -10
-5 -10 -11z"/>
</g>
<g>
<path d="M770 3150 c-12 -8 -11 -10 7 -10 12 0 25 5 28 10 8 13 -15 13 -35 0z"/>
</g>
<g>
<path d="M1750 2295 c0 -14 5 -25 10 -25 6 0 10 11 10 25 0 14 -4 25 -10 25
-5 0 -10 -11 -10 -25z"/>
</g>
<g>
<path d="M1530 2740 c-11 -7 -7 -10 17 -10 17 0 35 5 38 10 8 13 -35 13 -55 0z"/>
</g>
<g>
<path d="M1533 2638 c-24 -11 -43 -24 -43 -29 0 -5 23 2 50 16 46 23 61 36 43
35 -5 -1 -27 -10 -50 -22z"/>
</g>
<g>
<path d="M1525 2593 c-16 -9 -43 -20 -60 -24 l-30 -7 31 -1 c27 -1 114 33 114
44 0 10 -26 4 -55 -12z"/>
</g>
<g>
<path d="M795 2600 c-3 -5 -1 -10 4 -10 6 0 11 5 11 10 0 6 -2 10 -4 10 -3 0
-8 -4 -11 -10z"/>
</g>
<g>
<path d="M813 2563 c9 -2 23 -2 30 0 6 3 -1 5 -18 5 -16 0 -22 -2 -12 -5z"/>
</g>
<g>
<path d="M895 2530 c3 -5 8 -10 11 -10 2 0 4 5 4 10 0 6 -5 10 -11 10 -5 0 -7
-4 -4 -10z"/>
</g>
<g>
<path d="M780 2518 c0 -10 34 -9 75 2 24 6 20 8 -22 7 -29 -1 -53 -5 -53 -9z"/>
</g>
<g>
<path d="M872 2500 c-40 -5 -76 -11 -80 -15 -10 -10 149 5 168 16 18 10 21 10
-88 -1z"/>
</g>
<g>
<path d="M993 2490 c-35 -14 -27 -20 10 -8 17 6 34 13 36 14 8 7 -24 3 -46 -6z"/>
</g>
<g>
<path d="M1040 2470 c-12 -8 -12 -10 5 -10 11 0 27 5 35 10 12 8 12 10 -5 10
-11 0 -27 -5 -35 -10z"/>
</g>
<g>
<path d="M845 2450 c4 -6 11 -8 16 -5 14 9 11 15 -7 15 -8 0 -12 -5 -9 -10z"/>
</g>
<g>
<path d="M1597 1909 c-32 -17 -36 -23 -26 -35 7 -8 23 -14 35 -12 17 2 37 -11
73 -46 27 -26 54 -47 61 -44 7 2 -18 31 -54 65 -36 34 -62 64 -57 67 5 4 25
-10 45 -30 19 -19 40 -33 45 -30 9 6 -65 87 -78 86 -3 -1 -23 -10 -44 -21z"/>
</g>
<g>
<path d="M850 1730 c-6 -12 -9 -24 -7 -27 3 -2 11 5 17 17 6 12 9 24 7 27 -3
2 -11 -5 -17 -17z"/>
</g>
<g>
<path d="M359 1603 c-12 -32 -3 -133 12 -133 6 0 9 27 8 63 0 34 2 70 6 80 4
10 3 17 -4 17 -6 0 -16 -12 -22 -27z"/>
</g>
<g>
<path d="M436 1604 c-4 -9 -4 -19 -2 -21 8 -8 26 8 26 23 0 19 -16 18 -24 -2z"/>
</g>
<g>
<path d="M463 1578 c-12 -17 -19 -36 -16 -41 3 -5 10 -1 16 9 5 11 19 29 30
42 15 16 17 22 6 22 -8 0 -24 -15 -36 -32z"/>
</g>
<g>
<path d="M470 1531 c-12 -24 -13 -41 -1 -41 5 0 14 14 20 30 11 33 -2 41 -19
11z"/>
</g>
<g>
<path d="M474 1456 c-3 -8 3 -25 14 -36 25 -27 55 -131 46 -164 -7 -28 46
-139 80 -168 23 -19 56 -24 56 -8 0 6 -8 10 -19 10 -22 0 -29 8 -70 83 -32 58
-32 59 -14 85 18 28 27 86 11 76 -4 -3 -6 -9 -3 -14 3 -5 0 -12 -6 -16 -7 -4
-9 -3 -5 4 3 6 1 14 -5 18 -9 5 -6 11 7 22 17 13 17 14 1 8 -15 -5 -17 -2 -12
14 5 15 3 18 -9 14 -10 -4 -16 -1 -16 9 0 8 -7 20 -15 27 -8 7 -15 21 -15 31
0 22 -18 25 -26 5z"/>
</g>
<g>
<path d="M356 1441 c-6 -10 64 -131 95 -164 10 -11 22 -18 25 -14 4 4 -1 16
-12 28 -19 21 -55 83 -76 132 -13 28 -23 34 -32 18z"/>
</g>
<g>
<path d="M401 1298 c-1 -10 10 -50 23 -90 13 -40 27 -101 31 -135 7 -63 25
-88 25 -35 0 38 -26 155 -43 194 -8 18 -19 44 -25 58 -7 18 -11 20 -11 8z"/>
</g>
<g>
<path d="M456 972 c-12 -19 -19 -162 -9 -162 6 0 14 36 17 81 7 78 5 101 -8
81z"/>
</g>
<g>
<path d="M360 747 c0 -8 7 -17 15 -21 8 -3 15 -2 15 3 0 5 -7 14 -15 21 -12
10 -15 10 -15 -3z"/>
</g>
<g>
<path d="M370 610 c0 -13 28 -25 38 -16 3 4 0 11 -8 16 -20 13 -30 12 -30 0z"/>
</g>
<g>
<path d="M1499 2019 c16 -6 28 -6 35 1 7 7 -1 10 -24 9 -33 0 -34 -1 -11 -10z"/>
</g>
<g>
<path d="M2568 1946 c9 -25 19 -43 23 -40 8 5 -1 56 -14 72 -20 25 -24 11 -9
-32z"/>
</g>
<g>
<path d="M2544 1899 c-3 -6 -1 -16 5 -22 8 -8 11 -5 11 11 0 24 -5 28 -16 11z"/>
</g>
<g>
<path d="M2904 1333 c-18 -30 -71 -94 -141 -172 -46 -51 -51 -61 -30 -61 16 0
207 232 207 251 0 18 -18 8 -36 -18z"/>
</g>
<g>
<path d="M2687 1034 c-16 -19 -26 -38 -23 -42 7 -6 76 57 76 70 0 19 -27 5
-53 -28z"/>
</g>
<g>
<path d="M1563 1260 c-13 -5 -23 -11 -23 -14 0 -3 69 -1 120 4 3 0 -2 5 -10
10 -18 12 -57 12 -87 0z"/>
</g>
<g>
<path d="M1672 1249 c2 -6 8 -10 13 -10 5 0 11 4 13 10 2 6 -4 11 -13 11 -9 0
-15 -5 -13 -11z"/>
</g>
<g>
<path d="M1432 1010 c-1 -56 1 -106 5 -113 8 -12 21 165 15 196 -10 42 -17 10
-20 -83z"/>
</g>
<g>
<path d="M2251 331 c-22 -6 -23 -8 -8 -23 12 -11 19 -43 23 -102 6 -76 5 -86
-10 -86 -9 0 -16 -4 -16 -10 0 -5 18 -10 40 -10 36 0 54 13 31 22 -11 4 -20
128 -9 128 4 0 8 -4 8 -8 0 -5 27 -36 59 -70 43 -45 66 -62 85 -62 l26 0 0 94
c0 52 3 101 6 109 4 11 -4 17 -25 22 -36 8 -57 -1 -42 -18 14 -18 17 -110 4
-114 -6 -2 -14 5 -17 15 -4 11 -22 35 -41 53 -19 19 -35 40 -35 47 0 6 -6 12
-14 12 -8 0 -20 2 -28 4 -7 2 -24 1 -37 -3z"/>
</g>
<g>
<path d="M2548 334 c-23 -7 -25 -64 -3 -64 8 0 15 7 15 16 0 11 8 14 28 12 27
-3 27 -4 30 -85 2 -53 -1 -83 -8 -83 -5 0 -10 -4 -10 -10 0 -13 87 -13 95 0 3
6 -1 17 -9 26 -12 11 -16 35 -16 85 l0 69 30 0 c23 0 30 -4 30 -20 0 -32 17
-23 23 13 2 17 3 34 0 37 -6 6 -185 10 -205 4z"/>
</g>
<g>
<path d="M2050 321 c-44 -4 -70 -9 -62 -14 15 -10 17 -187 2 -187 -5 0 -10 -5
-10 -11 0 -8 25 -9 83 -4 83 7 127 28 127 62 0 18 -13 16 -43 -7 -14 -12 -40
-20 -61 -20 -35 0 -36 1 -36 40 0 38 1 40 21 29 26 -14 42 0 37 32 -4 30 -24
35 -31 8 -8 -29 -27 -14 -27 22 0 26 3 29 35 29 24 0 37 -6 45 -20 13 -25 29
-18 27 13 -1 20 -15 39 -27 35 -3 -1 -39 -4 -80 -7z"/>
</g>
<g>
<path d="M363 307 c-2 -4 -1 -16 2 -28 5 -14 10 -17 18 -10 7 5 26 11 42 13
28 3 30 1 33 -36 3 -39 -14 -96 -28 -96 -4 0 -10 7 -14 15 -7 19 -40 19 -55 1
-34 -41 53 -87 115 -61 38 16 45 34 41 118 -2 65 5 77 32 53 17 -16 19 -16 25
-1 12 33 -7 40 -107 40 -55 0 -101 -3 -104 -8z"/>
</g>
<g>
<path d="M615 311 c-3 -5 -1 -12 5 -16 5 -3 10 -34 11 -68 0 -34 5 -78 12 -97
10 -30 17 -35 46 -38 22 -2 43 3 60 16 26 19 27 19 50 1 17 -14 27 -16 42 -9
28 15 23 29 -8 27 l-28 -2 -3 88 c-2 55 1 87 8 87 5 0 10 5 10 10 0 6 -13 10
-30 10 -16 0 -30 -4 -30 -10 0 -5 5 -10 10 -10 6 0 10 -29 10 -68 0 -60 -3
-71 -24 -92 -49 -45 -91 13 -84 117 l4 63 -27 0 c-15 0 -30 -4 -34 -9z"/>
</g>
<g>
<path d="M927 314 c-2 -2 1 -40 7 -85 6 -58 6 -91 -2 -112 l-11 -30 75 5 c88
6 119 24 139 80 28 83 -44 151 -156 147 -27 -1 -50 -4 -52 -5z m140 -40 c35
-54 6 -145 -48 -152 -24 -3 -24 -1 -27 88 l-2 90 30 0 c21 0 35 -8 47 -26z"/>
</g>
<g>
<path d="M1240 306 c-70 -25 -89 -125 -34 -180 26 -26 63 -34 134 -31 35 2 45
6 44 19 0 9 -1 32 -2 51 -2 35 -3 35 -47 35 -25 0 -45 -4 -45 -10 0 -5 9 -10
19 -10 29 0 35 -18 15 -41 -13 -14 -25 -18 -44 -14 -35 9 -50 32 -50 80 0 71
56 104 108 62 20 -16 40 8 26 31 -14 21 -76 26 -124 8z"/>
</g>
<g>
<path d="M1427 314 c-3 -4 0 -12 7 -20 9 -8 15 -40 16 -81 1 -37 2 -72 2 -78
0 -5 -3 -17 -6 -26 -6 -15 1 -16 66 -11 61 4 77 9 96 29 31 33 23 50 -10 24
-15 -12 -41 -21 -61 -21 -31 0 -35 3 -40 32 -5 33 11 65 20 41 8 -23 33 -14
33 11 0 29 -19 44 -31 25 -10 -17 -15 -11 -24 22 -6 25 -4 27 30 31 31 3 36 1
41 -19 7 -28 20 -30 27 -4 10 39 -9 51 -87 51 -40 0 -75 -3 -79 -6z"/>
</g>
<g>
<path d="M1675 205 c0 -70 4 -115 10 -115 26 1 31 17 25 80 -4 36 -5 69 -3 73
3 4 26 -16 53 -45 41 -45 50 -50 64 -39 8 7 18 22 22 34 7 22 28 47 39 47 3 0
5 -30 4 -67 l-3 -68 32 -3 31 -3 -11 37 c-5 21 -8 71 -6 111 l3 73 -33 0 c-18
0 -31 -4 -27 -9 8 -14 -54 -101 -68 -95 -7 2 -23 21 -36 42 -31 47 -49 62 -75
62 -20 0 -21 -6 -21 -115z"/>
</g>
<g>
<path d="M2763 159 c-16 -16 1 -39 29 -39 14 0 19 6 16 22 -3 26 -28 34 -45
17z"/>
</g>
</g>
<g>
<path d="M1164 4936 c-18 -14 -16 -16 29 -35 26 -11 47 -24 47 -28 0 -4 -12
-20 -27 -35 l-27 -28 34 -35 c28 -29 31 -35 17 -41 -11 -4 -33 9 -66 38 l-49
43 23 23 c13 12 36 22 50 22 14 0 25 5 25 10 0 28 -90 -2 -120 -41 -3 -3 -23
-10 -45 -15 -28 -7 -46 -19 -62 -43 -27 -39 -31 -102 -8 -121 8 -7 15 -19 15
-27 0 -23 -35 -54 -59 -51 -33 4 -48 -23 -33 -57 7 -15 17 -23 23 -19 8 4 8 9
0 17 -20 20 -12 37 17 37 18 0 38 11 56 29 l28 30 -22 36 c-62 101 49 194 142
118 18 -16 38 -34 43 -41 13 -17 64 -6 72 15 3 9 -6 25 -21 39 -31 29 -31 32
-6 64 11 14 20 28 20 32 0 14 -44 48 -62 48 -21 0 -24 16 -5 23 6 3 7 6 1 6
-5 1 -19 -5 -30 -13z"/>
</g>
<g>
<path d="M1436 4701 c7 -35 8 -35 -70 -20 -71 15 -110 0 -103 -39 6 -32 -18
-52 -64 -52 -32 0 -41 -4 -51 -25 -6 -14 -15 -25 -20 -25 -5 0 -6 -5 -2 -11 4
-8 9 -8 17 0 14 14 27 14 27 0 0 -5 -4 -8 -8 -5 -13 8 -62 -43 -62 -64 0 -11
5 -20 10 -20 6 0 10 9 10 21 0 15 11 25 40 36 39 15 51 35 30 48 -20 12 -10
25 19 25 40 0 96 47 80 67 -23 27 4 36 78 25 72 -10 93 -4 93 28 0 10 -7 23
-15 30 -13 11 -14 8 -9 -19z"/>
</g>
<g>
<path d="M1225 4551 c-3 -6 0 -11 7 -12 7 -1 20 -2 28 -3 8 -2 36 -3 62 -4 38
-2 46 -5 42 -17 -4 -9 0 -15 9 -15 8 0 21 -7 28 -16 12 -15 11 -16 -11 -9 -14
5 -42 9 -62 10 -20 0 -40 4 -44 7 -11 11 -24 -1 -24 -22 0 -15 6 -18 33 -16
17 2 24 1 15 -1 -10 -2 -18 -8 -18 -13 0 -25 92 -42 105 -20 3 6 -1 10 -9 10
-9 0 -16 5 -16 11 0 6 7 9 15 6 8 -4 17 -2 20 3 3 5 12 7 19 4 16 -6 58 35 53
51 -2 5 -19 18 -39 27 -42 20 -203 35 -213 19z"/>
</g>
<g>
<path d="M1137 4463 c-15 -15 -6 -80 13 -98 20 -18 20 -17 20 26 -1 43 -20 85
-33 72z"/>
</g>
</g>
</svg>
