<?xml version="1.0" standalone="no"?>
<!DOCTYPE svg PUBLIC "-//W3C//DTD SVG 20010904//EN"
 "http://www.w3.org/TR/2001/REC-SVG-20010904/DTD/svg10.dtd">
<svg version="1.0" xmlns="http://www.w3.org/2000/svg"
 width="300.000000pt" height="530.000000pt" viewBox="0 0 300.000000 530.000000"
 preserveAspectRatio="xMidYMid meet">
<metadata>
Created by potrace 1.15, written by Peter Selinger 2001-2017
</metadata>
<g transform="translate(0.000000,530.000000) scale(0.100000,-0.100000)"
fill="#000000" stroke="none">
<g>
<path d="M27 5288 c-12 -7 -13 -262 -17 -3263 -1 -703 4 -1516 9 -1532 3 -8
100 -1 167 12 43 8 79 13 82 11 13 -14 -115 -43 -213 -49 l-40 -2 4 -45 c3
-45 10 -64 17 -45 3 8 2209 13 2857 6 l97 -1 -2 -182 -3 -183 -605 -2 c-333
-2 -625 -4 -650 -6 -25 -2 251 -4 613 -5 l657 -2 0 240 0 240 -53 0 c-62 0
-131 19 -201 55 -27 14 -64 25 -81 25 -47 0 -118 -24 -156 -53 -40 -30 -154
-57 -238 -57 -81 0 -169 24 -237 65 -32 19 -71 35 -88 35 -16 0 -77 -19 -135
-42 -100 -39 -112 -42 -206 -42 -103 1 -216 23 -245 49 -27 24 -88 45 -130 45
-23 0 -69 -11 -103 -24 -210 -82 -324 -89 -441 -29 -153 80 -220 93 -316 64
-118 -36 -246 -62 -286 -58 -33 3 -39 8 -42 29 -3 25 -2 25 90 31 51 4 126 16
165 27 131 36 183 29 383 -55 103 -44 232 -36 410 25 121 42 185 39 288 -12
149 -75 238 -75 385 0 84 43 98 47 164 47 70 0 73 -1 110 -37 49 -47 99 -68
183 -75 103 -9 186 11 272 64 51 32 89 47 126 53 60 8 149 -5 172 -25 36 -31
96 -56 151 -62 l59 -6 0 90 0 90 -37 0 c-140 1 -163 3 -163 18 0 11 11 15 38
15 41 0 84 31 63 45 -6 3 -11 -1 -11 -9 0 -13 -12 -16 -61 -16 -74 0 -71 19 4
21 29 1 44 3 35 6 -11 3 -15 12 -12 29 3 17 0 24 -11 24 -8 0 -15 5 -15 10 0
6 -8 10 -17 10 -17 1 -17 1 0 11 25 15 21 36 -8 43 -33 8 -45 1 -45 -30 0 -19
-5 -24 -26 -24 -34 0 -29 -31 6 -41 l25 -7 -27 -1 c-32 -1 -37 -20 -8 -28 28
-7 25 -23 -4 -23 -25 0 -40 -12 -30 -23 3 -3 16 -2 29 3 18 7 24 5 28 -9 4
-18 -44 -22 -348 -32 -5 0 -82 2 -170 5 -88 2 -230 5 -316 5 l-156 0 -21 59
c-13 35 -22 83 -22 117 0 51 2 56 18 50 49 -21 146 -26 307 -15 133 10 183 9
230 0 33 -7 85 -16 115 -21 30 -4 81 -12 113 -17 101 -15 96 17 -15 92 -42 28
-45 43 -11 58 15 7 36 20 45 29 14 14 35 18 100 18 46 -1 88 0 93 1 21 5 29
-1 15 -10 -12 -8 -11 -10 6 -10 23 0 29 -8 138 -170 43 -63 89 -127 102 -143
l24 -29 0 140 0 139 -42 -8 c-68 -13 -115 -10 -133 7 -21 21 -12 28 53 42 83
18 110 16 115 -10 4 -20 4 -19 6 5 0 15 -2 27 -6 28 -5 0 -19 3 -33 5 -14 3
-43 0 -65 -6 -64 -17 -103 -19 -109 -5 -8 21 108 58 166 53 58 -6 64 7 8 17
-28 5 -62 0 -115 -16 -56 -16 -79 -19 -87 -11 -12 12 -16 11 67 32 78 20 112
23 145 12 17 -7 30 -7 30 -2 0 23 -63 24 -210 4 -49 -7 -53 1 -5 11 124 25
157 29 185 18 24 -9 30 -9 30 2 0 24 -83 29 -165 10 -42 -10 -77 -16 -80 -13
-3 2 -8 18 -11 35 -6 29 -4 30 49 47 55 17 147 18 192 1 11 -4 5 3 -12 16 -18
13 -35 32 -39 42 -10 30 -79 69 -136 76 -65 7 -65 25 0 29 69 4 137 -27 159
-72 17 -37 43 -55 43 -31 0 8 -4 15 -9 15 -5 0 -13 9 -16 21 -11 34 -64 87
-99 99 -17 5 -53 11 -79 12 -69 3 -58 18 13 18 66 0 107 -15 158 -56 17 -15
32 -21 32 -15 0 46 -136 105 -216 94 -37 -5 -46 -3 -42 7 5 17 63 38 103 39
38 0 64 -15 104 -61 37 -43 51 -47 51 -18 0 11 -4 20 -8 20 -4 0 -30 21 -57
46 -47 44 -50 46 -94 40 -25 -3 -56 -8 -68 -12 -32 -9 -29 14 3 26 45 17 100
12 131 -13 15 -13 42 -33 59 -45 l31 -22 2 64 c1 58 -1 64 -21 70 -19 5 -20 8
-8 15 8 5 18 7 22 5 4 -3 8 17 8 45 0 30 -5 51 -12 54 -10 4 -10 7 0 18 7 8
12 41 12 86 0 58 -3 73 -15 73 -8 0 -15 7 -15 16 0 10 6 14 15 10 12 -4 15 4
15 44 0 45 -2 49 -26 52 -24 3 -26 7 -29 57 -1 37 2 60 11 69 8 7 14 28 14 45
l0 32 -20 -32 c-23 -38 -36 -42 -45 -14 -6 20 -6 20 -26 0 -10 -10 -19 -23
-19 -29 0 -10 -21 -14 -47 -11 -19 3 -15 -16 5 -24 15 -6 12 -11 -18 -36 -43
-37 -61 -24 -37 26 12 25 17 61 17 117 0 69 3 85 21 104 27 28 7 42 -21 14
-22 -22 -23 -30 -20 -135 1 -63 -1 -74 -27 -109 l-29 -40 -64 3 c-61 2 -109
23 -132 56 -4 5 -8 7 -9 3 -2 -11 -6 -27 -9 -35 -3 -11 -18 75 -19 110 -1 18
4 27 14 27 8 0 15 5 15 11 0 5 -5 7 -10 4 -6 -3 -10 1 -10 9 0 9 -16 33 -35
55 -19 21 -35 43 -35 49 0 25 36 82 53 82 23 0 22 31 -3 53 -19 16 -23 16 -50
2 -27 -14 -60 -12 -60 4 0 4 12 13 27 20 28 13 28 13 9 -8 -27 -30 -12 -26 45
13 28 19 46 37 40 40 -6 4 -19 2 -30 -4 -11 -5 -30 -10 -43 -9 -13 0 -17 3 -9
6 33 13 71 71 39 60 -7 -2 -17 2 -23 10 -8 10 -18 11 -48 2 -52 -14 -63 -3
-32 33 14 16 25 37 25 46 0 34 21 90 35 96 13 5 13 2 0 -24 -27 -52 -14 -115
28 -136 84 -43 89 -47 84 -66 -4 -14 -1 -18 9 -14 7 3 13 2 12 -2 -1 -4 3 -17
10 -29 10 -18 22 -23 50 -23 44 0 62 14 62 47 0 13 3 23 6 23 11 0 134 -103
134 -112 0 -4 -9 -8 -21 -8 -35 0 -12 -17 31 -23 55 -7 70 -22 70 -67 0 -30
-6 -44 -31 -65 -17 -14 -29 -28 -26 -32 4 -3 22 10 42 30 26 26 35 43 35 69
-1 43 -14 58 -137 157 -57 46 -103 89 -103 96 0 8 8 29 19 47 24 43 33 122 16
145 -20 27 -109 27 -121 -1 -5 -11 -15 -22 -22 -24 -8 -2 -2 14 13 36 27 40
27 41 76 35 l50 -6 -11 27 c-16 43 -13 181 5 196 11 9 12 17 5 30 -13 24 -13
90 0 90 6 0 10 20 10 45 0 38 4 48 30 67 81 59 -11 109 -175 93 -49 -4 -83
-13 -97 -25 l-23 -18 44 -40 c30 -28 42 -45 38 -57 -4 -9 0 -32 8 -51 9 -22
13 -53 10 -84 -3 -27 -1 -51 5 -55 5 -3 10 -24 10 -46 0 -35 -2 -40 -19 -34
-14 4 -23 -1 -32 -17 -11 -21 -11 -22 4 -10 9 8 21 11 27 7 14 -9 13 -148 -2
-163 -23 -23 -26 -12 -21 63 5 59 3 75 -7 73 -8 -2 -17 17 -25 50 -15 66 -81
198 -108 217 -38 27 -10 234 45 340 17 31 27 34 87 19 91 -21 162 3 188 63 17
42 10 99 -19 154 -39 76 -223 230 -356 299 -64 33 -292 120 -357 136 -33 8
-63 18 -67 22 -5 5 3 30 15 58 13 27 27 63 31 79 4 17 15 38 23 48 15 15 15
19 -2 37 -12 13 -25 18 -37 14 -11 -3 -27 1 -36 9 -22 20 -81 35 -165 42 -37
4 -67 11 -67 16 0 14 -46 11 -59 -5 -6 -7 -41 -16 -79 -19 -37 -4 -97 -16
-132 -28 -36 -12 -83 -22 -104 -23 -24 -1 -42 -7 -46 -16 -4 -8 -12 -25 -18
-37 -22 -41 -14 -81 28 -144 l40 -60 -26 -9 c-14 -6 -31 -10 -39 -10 -19 0
-265 -94 -305 -117 -19 -12 -62 -36 -95 -55 -223 -128 -325 -230 -325 -327 0
-47 34 -106 70 -121 43 -18 113 -7 160 24 22 14 44 26 50 26 6 0 18 -16 27
-35 16 -34 16 -36 -5 -55 -30 -28 -28 -75 3 -116 41 -53 41 -52 -102 -249 -79
-108 -160 -264 -173 -335 -5 -30 -14 -64 -19 -75 -5 -11 -19 -42 -30 -70 -12
-27 -26 -57 -31 -65 -6 -8 -19 -34 -31 -58 l-22 -43 42 -50 c47 -55 47 -55 10
-177 -10 -35 -20 -88 -21 -119 -2 -47 1 -58 20 -73 16 -13 22 -29 22 -56 0
-31 -22 -209 -46 -373 -5 -33 -6 -33 -48 -27 -59 9 -127 -9 -165 -45 -33 -30
-47 -34 -76 -23 -14 6 -14 9 5 29 27 29 12 40 -26 20 -36 -19 -44 -19 -44 0 0
31 48 49 129 46 74 -2 78 -1 114 31 32 29 37 40 37 76 0 23 -4 42 -10 42 -5 0
-10 7 -10 15 0 8 -10 19 -21 26 -29 15 -143 2 -189 -21 -19 -10 -39 -19 -43
-21 -9 -4 -16 3336 -7 3388 l5 33 840 4 c1135 7 2109 17 2115 23 8 8 -2961 -1
-2973 -9z m1473 -768 c0 -5 -11 -10 -24 -10 -12 0 -37 -5 -55 -11 -17 -6 -39
-8 -49 -4 -13 6 -6 11 28 20 56 16 100 18 100 5z m317 -2 c43 -17 6 -21 -47
-4 -43 13 -43 14 -13 15 17 1 44 -4 60 -11z m-187 -7 c0 -14 -18 -23 -31 -15
-8 4 -7 9 2 15 18 11 29 11 29 0z m75 -9 c-3 -3 -11 0 -18 7 -9 10 -8 11 6 5
10 -3 15 -9 12 -12z m-192 -22 c-7 -26 -19 -34 -29 -19 -4 7 1 18 11 26 24 17
24 17 18 -7z m37 10 c0 -5 -5 -10 -11 -10 -5 0 -7 5 -4 10 3 6 8 10 11 10 2 0
4 -4 4 -10z m90 -11 c-7 -11 -14 -18 -17 -15 -3 3 0 12 7 21 18 21 23 19 10
-6z m280 1 c0 -5 -4 -10 -10 -10 -5 0 -10 5 -10 10 0 6 5 10 10 10 6 0 10 -4
10 -10z m-662 -11 c-2 -6 -8 -10 -13 -10 -5 0 -11 4 -13 10 -2 6 4 11 13 11 9
0 15 -5 13 -11z m597 -9 c3 -5 2 -10 -4 -10 -5 0 -13 5 -16 10 -3 6 -2 10 4
10 5 0 13 -4 16 -10z m-65 -10 c0 -5 -7 -7 -15 -4 -8 4 -15 8 -15 10 0 2 7 4
15 4 8 0 15 -4 15 -10z m-467 -20 c-3 -11 -12 -20 -19 -20 -17 0 -18 12 -2 28
18 18 27 15 21 -8z m97 10 c0 -5 -4 -10 -10 -10 -5 0 -10 5 -10 10 0 6 5 10
10 10 6 0 10 -4 10 -10z m236 -45 c-8 -32 -56 -37 -56 -6 0 26 18 37 27 15 5
-15 8 -14 15 6 11 30 22 18 14 -15z m-79 3 c-3 -8 -6 -5 -6 6 -1 11 2 17 5 13
3 -3 4 -12 1 -19z m-52 -18 c10 -11 24 -20 32 -20 16 0 17 -16 2 -25 -5 -4
-18 0 -28 9 -10 9 -32 16 -49 16 -30 0 -42 16 -25 33 13 14 50 6 68 -13z m258
-1 c10 -11 16 -30 14 -42 -3 -21 -4 -20 -15 6 -9 21 -18 27 -42 27 -16 0 -30
4 -30 8 0 29 49 29 73 1z m-385 -40 c-20 -13 -38 -11 -38 5 0 19 22 26 38 13
11 -8 11 -12 0 -18z m302 7 c0 -17 -27 -29 -35 -16 -4 6 -3 15 0 20 9 15 35
12 35 -4z m-400 -43 c0 -21 -28 -15 -35 7 -9 30 4 45 21 23 7 -10 14 -24 14
-30z m37 32 c8 -22 -6 -33 -17 -15 -13 20 -12 30 0 30 6 0 13 -7 17 -15z m109
-33 c-12 -11 -18 7 -10 30 l8 23 4 -23 c2 -13 1 -26 -2 -30z m189 39 c3 -6 -3
-9 -14 -8 -11 0 -17 5 -15 9 7 11 22 10 29 -1z m115 -1 c0 -5 -4 -10 -10 -10
-5 0 -10 5 -10 10 0 6 5 10 10 10 6 0 10 -4 10 -10z m-226 -15 c3 -9 18 -15
36 -15 18 0 29 -4 25 -10 -9 -15 -41 -12 -55 5 -7 9 -20 15 -29 14 -26 -2 -33
0 -26 11 9 15 42 12 49 -5z m-123 -38 c-13 -13 -26 -3 -16 12 3 6 11 8 17 5 6
-4 6 -10 -1 -17z m157 -17 c11 0 24 5 27 10 8 13 55 13 55 1 0 -5 -26 -13 -57
-16 -32 -4 -65 -9 -74 -11 -12 -3 -16 2 -14 18 3 33 3 33 23 15 10 -10 28 -17
40 -17z m260 2 c4 -26 1 -26 -58 -8 -36 11 -41 15 -26 21 11 5 21 3 28 -6 7
-12 11 -11 21 4 15 22 31 17 35 -11z m-478 -22 c9 -5 19 -5 27 2 22 18 28 0 7
-23 l-19 -21 -17 22 c-10 12 -22 19 -28 15 -5 -3 -10 -1 -10 4 0 13 20 14 40
1z m95 -10 c-3 -5 -10 -10 -16 -10 -5 0 -9 5 -9 10 0 6 7 10 16 10 8 0 12 -4
9 -10z m288 -6 c39 -18 50 -44 19 -44 -41 0 -51 -20 -39 -87 6 -35 9 -65 6
-67 -10 -10 -50 7 -45 19 7 19 -5 27 -21 14 -20 -17 -16 -33 15 -51 l27 -17
-32 -7 c-38 -7 -40 -12 -15 -30 21 -17 52 -17 73 -1 16 13 20 34 19 105 -1 37
2 43 17 40 14 -3 18 -12 17 -43 -2 -78 -17 -165 -31 -176 -30 -25 -173 6 -222
49 l-32 27 9 98 c9 93 11 100 43 133 50 52 127 67 192 38z m258 -24 c230 -66
398 -154 555 -293 46 -40 104 -112 104 -128 0 -4 -6 -9 -14 -11 -10 -2 -11 -9
-4 -28 7 -18 11 -21 17 -11 6 9 10 7 14 -8 6 -25 -2 -61 -14 -61 -5 0 -9 -9
-9 -20 0 -41 -127 -57 -171 -21 l-23 18 21 11 c18 10 20 9 16 -7 -4 -16 -1
-19 16 -14 14 4 21 13 21 29 0 35 -26 41 -62 14 -16 -12 -31 -20 -32 -18 -2 1
-8 12 -14 23 -10 19 -11 19 -18 1 -5 -12 -2 -21 9 -28 9 -5 14 -15 10 -24 -5
-13 -8 -13 -24 2 -10 9 -23 13 -28 9 -15 -8 -14 -23 2 -28 6 -2 2 -2 -10 0
-29 4 -31 -23 -3 -32 11 -4 18 -10 15 -15 -3 -5 -17 -4 -31 2 -18 9 -27 9 -36
0 -11 -11 -11 -12 37 -27 30 -9 14 -24 -20 -18 -43 7 -47 -11 -5 -26 17 -5 30
-15 30 -20 0 -13 -2 -13 -34 -1 -16 6 -27 6 -31 -1 -4 -5 7 -14 24 -20 37 -13
42 -34 7 -25 -14 3 -27 2 -31 -4 -3 -5 6 -12 20 -16 29 -7 32 -19 9 -32 -11
-6 -14 -14 -9 -23 11 -17 13 -59 3 -59 -4 0 -13 20 -19 45 -6 25 -15 48 -20
51 -5 3 -9 17 -9 31 0 13 -7 37 -15 51 -7 15 -21 53 -30 84 -15 56 -39 79 -65
63 -6 -3 -18 8 -28 25 -21 39 -91 120 -103 120 -13 0 -69 61 -85 93 -8 15 -19
27 -25 27 -6 0 -24 14 -41 31 -31 30 -31 31 -14 60 13 22 14 33 6 49 -13 24
-25 27 -16 4 7 -19 -12 -47 -25 -38 -5 3 -9 21 -9 41 0 27 3 34 15 30 12 -5
13 4 9 56 -5 57 -4 64 21 90 14 15 30 27 34 27 5 0 55 -13 112 -30z m-706 -27
c30 -35 49 -110 40 -161 -5 -31 -1 -45 21 -77 16 -24 22 -41 15 -43 -6 -2 -11
-10 -11 -18 0 -8 -10 -14 -25 -14 -36 0 -73 -20 -78 -42 -3 -11 -10 -17 -16
-14 -14 9 -117 -32 -190 -76 -34 -21 -66 -38 -70 -38 -4 0 -28 -22 -53 -50
-55 -59 -79 -63 -101 -17 -22 45 -97 133 -97 113 0 -21 -36 -21 -49 1 -16 29
-44 -3 -39 -44 5 -39 -8 -44 -22 -8 -7 19 -6 36 5 62 17 41 18 43 7 43 -12 0
-42 -55 -42 -77 0 -10 7 -30 14 -45 18 -34 10 -36 -21 -6 -38 35 -26 94 31
155 33 36 29 54 -6 31 -34 -22 -68 -93 -68 -141 0 -31 7 -48 27 -69 33 -34 12
-38 -22 -3 -19 18 -25 35 -25 66 0 100 78 186 273 302 170 101 360 180 470
196 4 0 19 -11 32 -26z m189 -65 c-3 -51 -7 -103 -10 -115 -10 -50 -77 -81
-103 -49 -7 8 -13 58 -15 120 -3 112 -1 116 49 116 13 0 27 5 30 10 3 6 17 10
30 10 24 0 24 0 19 -92z m276 22 c0 -5 -4 -10 -10 -10 -5 0 -10 5 -10 10 0 6
5 10 10 10 6 0 10 -4 10 -10z m-266 -216 c9 -24 7 -28 -9 -14 -17 14 -20 30
-6 30 5 0 12 -7 15 -16z m-61 -35 c-1 -18 13 -37 54 -72 30 -27 57 -47 59 -44
10 9 -8 34 -36 51 -32 18 -42 43 -12 31 9 -4 31 -9 47 -11 87 -10 106 -16 94
-30 -21 -26 21 -29 65 -6 31 17 41 19 48 10 6 -10 10 -10 18 2 5 8 10 22 10
31 0 23 26 31 40 13 10 -11 9 -14 -3 -14 -18 0 -50 -47 -42 -61 9 -13 35 8 35
27 0 8 10 14 25 14 16 0 25 6 25 16 0 9 5 14 12 12 23 -8 19 -27 -11 -42 -31
-16 -45 -43 -36 -67 5 -15 -14 -26 -100 -62 -83 -33 -151 -39 -199 -16 -46 22
-46 22 -46 9 0 -6 20 -19 45 -30 46 -20 74 -19 147 2 30 9 39 8 52 -5 15 -14
13 -19 -22 -48 -41 -34 -102 -48 -102 -23 0 21 -37 17 -53 -6 l-14 -20 -26 20
c-14 11 -30 20 -36 20 -19 0 -12 18 9 25 12 4 28 1 36 -6 8 -6 18 -9 22 -5 9
9 -35 46 -54 46 -7 0 -18 9 -24 19 -5 11 -19 22 -29 26 -20 6 -81 58 -81 69 0
15 41 4 67 -18 28 -23 66 -46 77 -46 3 0 6 7 6 15 0 18 1 18 37 4 35 -13 163
-13 177 1 7 7 -11 10 -56 10 -80 0 -124 14 -163 51 -29 27 -65 39 -65 22 0 -4
12 -18 27 -30 40 -35 20 -39 -24 -5 -51 40 -79 48 -92 25 -8 -14 -12 -15 -22
-6 -16 16 -1 34 51 59 32 15 40 24 40 47 0 19 4 27 13 24 6 -2 11 -15 10 -28z
m517 -126 c-1 -5 -19 -20 -41 -36 -22 -15 -37 -32 -34 -37 4 -6 12 -5 23 1 14
9 26 6 55 -10 29 -16 43 -19 57 -11 29 16 51 12 48 -7 -2 -14 3 -17 20 -15 39
6 23 -13 -30 -33 -52 -20 -75 -45 -41 -45 10 0 37 11 60 24 39 23 53 24 53 5
0 -11 -83 -59 -103 -59 -18 0 -32 -18 -23 -28 9 -8 74 16 109 40 16 11 31 17
34 14 4 -3 4 -7 2 -9 -102 -70 -161 -94 -343 -138 -46 -11 -49 -11 -67 12 -11
14 -19 41 -19 66 0 23 -4 45 -10 48 -14 9 -12 28 3 22 6 -2 11 -10 10 -16 -5
-20 23 -12 47 14 23 25 16 37 -8 13 -8 -8 -15 -9 -23 -1 -7 7 -1 18 21 37 32
26 50 27 50 0 0 -8 5 -14 10 -14 6 0 10 6 10 13 0 7 9 21 21 30 12 10 18 25
15 33 -7 18 31 73 59 84 26 11 35 12 35 3z m85 -43 c18 -19 17 -20 -1 -20 -13
0 -20 7 -20 20 0 11 1 20 2 20 0 0 9 -9 19 -20z m-1335 -25 c0 -3 -9 -5 -20
-5 -11 0 -20 7 -20 15 0 13 4 14 20 5 11 -6 20 -13 20 -15z m-45 -65 c3 -5 -1
-10 -9 -10 -9 0 -16 5 -16 10 0 6 4 10 9 10 6 0 13 -4 16 -10z m795 0 c0 -5
-5 -10 -11 -10 -5 0 -7 5 -4 10 3 6 8 10 11 10 2 0 4 -4 4 -10z m-276 -71 c9
-88 8 -149 -3 -149 -15 0 -19 27 -19 123 -1 100 12 116 22 26z m311 7 c17 -12
39 -26 50 -32 13 -8 19 -21 18 -35 -6 -62 -15 -89 -28 -89 -8 0 -12 6 -9 14 3
9 -5 20 -23 29 l-28 15 30 12 c26 10 28 13 13 21 -10 6 -18 16 -18 24 0 7 -12
15 -27 17 -19 2 -29 10 -34 30 -8 31 5 29 56 -6z m95 -17 c0 -11 -4 -17 -10
-14 -5 3 -10 13 -10 21 0 8 5 14 10 14 6 0 10 -9 10 -21z m-550 -70 c0 -4 10
-11 22 -15 12 -3 42 -28 67 -53 25 -26 68 -57 94 -70 26 -13 46 -25 44 -28 -3
-2 -49 -8 -103 -14 -121 -11 -189 -27 -210 -51 -24 -25 -10 -94 29 -153 18
-27 44 -67 59 -89 30 -45 34 -56 17 -56 -19 0 -80 64 -74 79 6 16 -23 53 -36
45 -5 -3 -9 -16 -9 -29 0 -25 -32 -39 -147 -65 -56 -13 -133 -70 -133 -99 0
-22 48 -81 66 -81 17 0 18 12 2 28 -6 6 -8 15 -4 19 4 5 16 -3 27 -17 10 -14
23 -30 29 -37 16 -20 13 -38 -5 -23 -23 19 -33 3 -28 -45 8 -71 -35 -122 -64
-76 -10 15 -8 23 9 40 11 12 18 25 15 27 -8 8 -44 -14 -51 -31 -3 -8 -13 -15
-23 -15 -15 0 -18 8 -18 40 0 46 -12 61 -49 63 -14 1 -24 7 -22 12 3 10 18 11
45 4 7 -2 16 2 18 9 3 6 -2 12 -9 12 -21 0 -54 27 -45 36 4 5 11 3 15 -3 4 -6
16 -13 26 -15 15 -2 21 5 27 32 7 29 5 38 -12 52 l-21 18 28 29 c15 16 33 27
41 24 21 -8 15 21 -7 35 -11 7 -20 19 -20 27 0 18 17 20 22 3 3 -7 10 -8 17
-3 11 6 10 10 -3 17 -25 14 -19 29 9 22 27 -7 32 4 13 27 -11 12 -11 12 2 2
20 -18 23 -17 49 18 21 29 22 32 6 49 -11 12 -13 20 -6 25 6 3 11 1 11 -4 0
-6 7 -11 15 -11 18 0 19 12 4 27 -9 9 -7 10 10 6 23 -6 28 6 9 26 -11 10 -8
11 15 6 28 -7 35 3 15 23 -17 17 -2 27 17 12 20 -17 32 -5 15 15 -15 19 -5 34
12 17 19 -19 30 -14 22 11 -6 21 -6 22 14 4 27 -25 39 -4 13 24 -11 12 -17 27
-14 35 4 10 10 8 23 -9 10 -12 22 -19 26 -15 4 5 0 16 -9 26 -27 30 -21 49 7
23 14 -13 26 -18 30 -13 3 6 20 13 36 17 33 7 37 20 15 49 -8 11 -15 27 -15
35 1 13 4 12 15 -3 8 -11 15 -23 15 -27z m600 24 c0 -5 -4 -15 -10 -23 -5 -9
-5 -19 2 -27 8 -10 7 -12 -6 -7 -21 8 -22 64 -1 64 8 0 15 -3 15 -7z m47 -33
c-4 -30 -2 -40 9 -40 21 0 16 -89 -7 -122 -11 -14 -19 -30 -19 -35 0 -6 -9
-18 -20 -28 -17 -16 -20 -16 -20 -2 0 9 4 18 9 21 13 8 2 43 -15 50 -7 3 -11
12 -8 21 4 10 0 15 -10 15 -10 0 -16 9 -16 25 0 20 5 25 25 25 18 0 26 7 31
25 3 13 12 29 20 36 8 7 12 20 9 30 -4 11 -1 19 6 19 8 0 10 -13 6 -40z m-687
-1 c0 -6 -4 -7 -10 -4 -5 3 -10 11 -10 16 0 6 5 7 10 4 6 -3 10 -11 10 -16z
m1170 11 c0 -5 -7 -10 -16 -10 -8 0 -12 5 -9 10 3 6 10 10 16 10 5 0 9 -4 9
-10z m549 -91 c17 -6 31 -14 31 -19 0 -11 -53 -45 -65 -42 -5 2 -15 -5 -23
-15 -11 -15 -14 -16 -22 -4 -6 11 -12 12 -22 4 -7 -6 -25 -9 -41 -6 -25 5 -26
6 -10 19 17 12 15 14 -14 24 -40 15 -42 28 -5 36 15 3 32 7 37 9 23 8 104 4
134 -6z m-451 -37 c2 -12 -1 -22 -7 -22 -6 0 -8 7 -5 15 7 17 -13 20 -35 6 -8
-5 -11 -16 -6 -31 5 -17 13 -21 31 -17 30 5 41 -8 17 -22 -10 -5 -15 -13 -11
-17 4 -4 14 -1 23 6 12 10 18 8 35 -11 10 -13 19 -34 20 -47 0 -19 4 -22 20
-17 24 8 26 -1 4 -23 -20 -19 -1 -30 21 -12 11 9 16 7 25 -10 6 -11 8 -30 4
-42 -5 -16 -3 -20 8 -15 10 3 21 -6 32 -30 9 -20 15 -38 12 -41 -3 -2 -10 7
-15 21 -12 30 -31 44 -31 23 0 -27 -72 -14 -92 18 -4 5 -30 11 -58 12 -28 1
-56 6 -63 13 -8 8 -7 11 6 11 9 0 17 5 17 10 0 6 -15 8 -39 4 -26 -4 -48 -1
-67 10 l-29 15 35 1 c19 0 42 5 50 10 10 7 -9 10 -64 10 -86 0 -94 6 -26 18
63 11 63 30 1 24 -27 -2 -71 -1 -96 3 -46 6 -46 7 -29 26 17 19 19 19 31 3 14
-19 50 -26 60 -11 3 5 -1 13 -8 18 -10 6 -4 9 18 9 40 0 52 17 16 23 -20 3
-15 4 15 6 34 1 49 7 71 31 26 29 73 51 96 46 6 -1 11 -12 13 -24z m-241 -58
c-3 -3 -12 -4 -19 -1 -8 3 -5 6 6 6 11 1 17 -2 13 -5z m658 -42 c-6 -16 -7
-16 -16 1 -8 13 -7 23 3 34 12 15 13 15 16 -1 2 -9 1 -25 -3 -34z m-1421 8 c3
0 6 7 6 15 0 12 9 13 48 8 99 -12 144 -51 86 -73 -14 -6 -80 -9 -147 -9 -67 1
-112 4 -99 6 17 3 21 9 17 24 -5 16 -1 19 28 19 31 0 35 3 30 23 -4 20 -3 21
10 5 8 -10 17 -18 21 -18z m-105 16 c-3 -3 -31 -9 -64 -15 -33 -6 -71 -13 -85
-16 -22 -6 -23 -5 -7 5 25 16 170 40 156 26z m1441 -5 c0 -5 -9 -19 -20 -32
-19 -23 -19 -23 -20 -3 0 20 17 44 32 44 4 0 8 -4 8 -9z m48 -16 c16 -35 15
-54 -4 -62 -13 -5 -13 -7 -2 -14 8 -5 9 -9 2 -9 -7 0 -19 11 -28 26 -15 22
-15 29 -4 55 16 36 22 36 36 4z m-1520 -22 c-16 -2 -40 -2 -55 0 -16 2 -3 4
27 4 30 0 43 -2 28 -4z m484 -43 c10 -17 13 -32 7 -35 -5 -4 -7 -11 -4 -16 12
-18 -2 -8 -36 27 -19 19 -26 32 -16 29 12 -5 17 -2 17 9 0 25 13 19 32 -14z
m132 15 c25 -1 45 -9 55 -21 9 -11 25 -23 35 -27 18 -7 18 -9 -8 -22 -16 -8
-36 -14 -45 -14 -14 1 -13 2 2 6 19 5 22 18 7 28 -6 4 -8 11 -5 16 4 5 2 9 -4
9 -5 0 -16 3 -24 6 -10 4 -14 -2 -14 -20 0 -14 5 -26 11 -26 6 0 4 -5 -4 -10
-9 -6 -11 -13 -5 -17 6 -5 10 -15 10 -23 0 -11 9 -14 33 -12 18 2 32 -1 32 -7
0 -6 -6 -11 -12 -12 -7 -1 -21 -2 -30 -3 -30 -2 -20 -21 14 -26 l33 -6 -32 -8
c-26 -6 -32 -12 -29 -29 2 -16 11 -23 34 -25 26 -3 32 -8 32 -28 0 -15 -6 -24
-15 -24 -8 0 -15 8 -15 18 -1 15 -2 15 -11 -2 -14 -22 3 -36 33 -28 15 3 19 1
16 -9 -3 -8 -11 -14 -19 -14 -8 0 -14 -4 -14 -10 0 -5 10 -9 23 -7 12 1 22 -2
22 -8 0 -9 -6 -12 -39 -14 -8 -1 -16 -6 -18 -13 -3 -8 8 -10 36 -6 34 5 41 3
41 -11 0 -12 -9 -16 -35 -16 -19 0 -35 -4 -35 -10 0 -5 20 -10 45 -10 25 0 45
-4 45 -10 0 -5 -18 -10 -41 -10 -53 0 -41 -19 14 -22 l42 -1 -37 -4 c-62 -7
-46 -26 17 -21 30 3 55 1 55 -4 0 -4 -18 -8 -40 -8 -22 0 -40 -5 -40 -11 0 -7
17 -10 45 -7 31 2 45 -1 45 -9 0 -7 -11 -13 -25 -13 -14 0 -25 -5 -25 -11 0
-6 15 -9 37 -7 22 2 38 -2 41 -10 2 -7 -6 -12 -22 -12 -14 0 -26 -4 -26 -10 0
-5 9 -10 21 -10 11 0 18 -4 14 -9 -3 -5 -1 -12 4 -15 13 -8 42 4 35 15 -10 17
9 9 43 -17 25 -19 33 -22 33 -10 0 9 -4 16 -8 16 -21 0 -94 89 -143 177 -64
112 -78 161 -86 291 -5 81 -4 92 11 92 19 0 21 -16 4 -24 -10 -5 -10 -7 0 -12
6 -3 9 -10 6 -15 -6 -11 13 -39 28 -39 5 0 6 9 3 20 -4 11 -2 20 4 20 6 0 11
-13 11 -30 0 -23 -4 -28 -16 -23 -11 4 -15 1 -13 -13 2 -10 0 -24 -4 -31 -4
-6 -3 -14 2 -18 6 -3 8 -12 4 -20 -4 -11 2 -15 21 -15 14 0 26 -4 26 -10 0 -5
-12 -10 -26 -10 -14 0 -23 -4 -19 -10 3 -5 19 -10 36 -10 16 0 29 -4 29 -10 0
-5 -9 -10 -19 -10 -11 0 -23 -4 -26 -10 -9 -15 13 -50 33 -51 10 0 12 -3 5 -6
-23 -9 -14 -23 15 -23 24 -1 25 -2 10 -14 -20 -15 -14 -26 14 -26 10 0 18 -4
18 -10 0 -5 -7 -10 -16 -10 -9 0 -14 -6 -11 -12 2 -7 14 -13 26 -12 11 0 21
-3 21 -8 0 -4 -4 -8 -10 -8 -5 0 -10 -4 -10 -10 0 -5 12 -10 26 -10 20 0 25
-4 22 -22 -2 -17 2 -23 17 -23 11 0 21 -8 23 -18 2 -9 9 -17 16 -17 7 0 27
-15 45 -34 28 -29 45 -37 102 -46 60 -10 72 -16 104 -51 19 -21 35 -46 35 -54
0 -8 6 -15 14 -15 22 0 29 -71 8 -87 -16 -12 -16 -14 1 -24 13 -8 15 -14 7
-29 -17 -32 -12 -68 10 -75 25 -8 26 -21 2 -27 -17 -5 -20 -21 -26 -139 -3
-74 -8 -151 -10 -171 -4 -36 -3 -38 25 -38 20 0 29 5 29 16 0 10 -6 14 -15 11
-28 -11 -26 13 2 25 27 11 27 12 6 15 -19 4 -21 8 -13 23 5 10 7 26 4 34 -4
11 -1 16 10 16 9 0 16 -8 17 -17 0 -10 4 -67 9 -128 5 -60 11 -153 14 -205 9
-139 20 -205 34 -202 7 1 12 -4 12 -12 0 -8 10 -17 23 -19 l22 -4 -22 -8 c-32
-10 -37 -55 -18 -149 20 -98 15 -122 -25 -128 -16 -3 -30 -1 -30 4 0 4 7 8 15
8 23 0 18 18 -7 23 l-23 4 23 8 c30 10 28 28 -3 23 -29 -6 -32 0 -7 18 15 12
14 14 -13 15 -17 1 -23 3 -12 6 22 6 22 23 0 24 -14 1 -15 2 -3 5 9 3 21 13
28 24 11 18 10 20 -12 20 -13 0 -29 6 -35 14 -10 12 -7 15 21 18 l33 4 -35 12
c-29 10 -30 11 -7 8 40 -5 41 8 1 23 -42 15 -45 33 -4 25 19 -4 30 -2 30 5 0
6 -4 11 -10 11 -5 0 -7 6 -4 14 3 8 -4 16 -20 20 -14 3 -26 11 -26 16 0 6 11
8 25 4 14 -3 25 -2 25 4 0 5 -11 13 -25 16 -14 4 -25 11 -25 16 0 6 11 8 25 4
14 -3 25 -2 25 4 0 5 -11 13 -25 16 -14 4 -23 11 -20 16 3 5 12 7 20 3 21 -7
19 7 -2 23 -17 13 -17 13 0 14 21 0 23 20 2 20 -8 0 -15 5 -15 10 0 6 7 10 15
10 8 0 15 5 15 10 0 6 -7 10 -15 10 -21 0 -19 17 3 23 14 4 14 6 -5 12 -13 4
-23 11 -23 16 0 5 -13 9 -30 9 -20 0 -30 -5 -30 -15 0 -9 6 -15 13 -14 6 1 20
1 30 0 27 -2 10 -21 -19 -21 -15 0 -24 -6 -24 -15 0 -8 9 -15 20 -15 13 0 20
-7 20 -18 0 -15 -6 -18 -31 -14 -24 4 -30 1 -27 -9 3 -8 17 -14 31 -14 23 1
27 -4 27 -27 0 -15 -5 -30 -11 -34 -8 -4 -9 1 -4 15 6 20 4 22 -21 19 -21 -2
-28 -9 -31 -30 -3 -25 -1 -28 26 -28 16 0 33 -5 36 -10 4 -6 -8 -10 -28 -10
-21 0 -41 -7 -52 -20 -20 -22 -14 -39 7 -23 7 6 28 13 46 16 24 5 32 3 32 -8
0 -10 -11 -15 -35 -15 -19 0 -35 -4 -35 -10 0 -5 16 -12 35 -16 44 -8 46 -19
3 -19 -17 0 -33 -6 -36 -14 -3 -10 5 -12 36 -9 l40 3 6 -50 c7 -55 32 -150 48
-178 12 -24 8 -28 -20 -20 -13 3 -22 13 -22 24 0 15 -7 19 -32 19 -25 0 -29 3
-20 12 26 26 -2 43 -46 27 -25 -10 -26 -12 -9 -23 9 -7 17 -20 17 -29 0 -8 8
-18 18 -20 12 -3 11 -5 -6 -6 -13 0 -51 -21 -85 -44 -34 -24 -72 -49 -84 -56
-35 -18 -160 -30 -253 -24 l-85 6 -63 65 -63 64 -62 -6 c-62 -6 -62 -6 -39 12
15 12 34 17 53 14 36 -5 39 14 2 21 -33 6 -133 -55 -133 -82 0 -27 -47 -62
-104 -77 -27 -7 -52 -12 -53 -10 -2 2 6 19 17 39 16 27 24 69 35 179 7 79 25
202 38 273 14 72 30 195 36 275 16 205 17 197 -19 198 -24 0 -30 -4 -31 -21 0
-13 -3 -16 -6 -9 -3 8 0 24 5 35 6 12 13 36 15 52 3 25 4 23 6 -10 2 -37 3
-39 16 -21 8 10 12 23 9 27 -2 4 5 13 16 19 11 6 20 20 20 31 0 12 14 34 30
49 18 17 26 31 20 35 -21 13 -49 -7 -66 -46 -19 -42 -40 -54 -29 -16 4 12 16
37 27 55 11 18 18 36 14 39 -8 8 -46 -27 -46 -42 0 -15 -29 -53 -30 -39 0 7
16 36 35 64 20 29 33 55 30 58 -9 10 -47 -33 -78 -87 -17 -30 -33 -49 -35 -42
-2 7 2 20 10 29 45 53 79 142 54 142 -21 0 -84 -62 -68 -68 7 -2 22 4 34 14
15 14 13 8 -8 -24 -30 -46 -39 -50 -48 -26 -11 28 -6 47 16 71 12 13 18 26 14
30 -11 11 -66 -54 -66 -77 0 -12 7 -23 15 -27 14 -5 14 -7 1 -22 -24 -28 -36
-156 -39 -428 l-2 -263 -27 0 c-23 0 -28 -4 -28 -25 0 -22 4 -25 39 -25 22 0
43 5 46 10 3 6 15 10 26 10 10 0 19 5 19 10 0 6 -11 10 -25 10 -28 0 -26 -13
-29 189 l-1 85 39 0 c56 1 60 26 4 27 l-43 1 33 10 c39 13 42 28 5 28 -37 0
-25 6 25 13 40 5 42 4 42 -20 0 -19 4 -24 16 -19 14 5 15 -3 9 -71 -4 -43 -13
-109 -21 -148 -15 -68 -27 -141 -39 -237 -5 -39 -10 -48 -26 -48 -10 0 -19 -4
-19 -10 0 -5 9 -10 20 -10 23 0 24 -10 9 -94 -11 -63 -48 -124 -68 -112 -15
10 -14 26 2 26 7 0 18 9 24 20 11 16 9 21 -9 34 -20 14 -23 14 -36 -5 -7 -11
-11 -27 -8 -35 4 -11 0 -13 -19 -8 -16 4 -25 2 -25 -6 0 -6 9 -14 20 -17 21
-6 26 -18 11 -28 -6 -3 -26 10 -45 30 -19 19 -42 35 -50 35 -8 0 -18 4 -21 10
-13 22 -54 9 -85 -26 l-32 -37 -24 29 c-31 38 -30 51 4 59 26 5 81 60 124 124
14 20 18 22 18 9 0 -20 2 -21 24 -12 20 8 21 24 1 24 -11 0 -13 8 -8 33 3 17
9 37 13 42 4 6 10 54 12 108 4 77 9 102 24 118 17 19 19 38 19 173 1 83 4 161
9 174 6 18 4 22 -13 22 -19 0 -21 6 -21 51 0 28 4 48 9 44 5 -3 8 -23 6 -45
-2 -22 0 -40 5 -40 14 0 20 60 21 228 2 121 6 165 16 173 20 17 8 26 -31 21
-22 -3 -36 -10 -36 -18 0 -8 -10 -14 -25 -14 -22 0 -24 3 -15 19 11 21 23 26
86 36 26 4 44 2 49 -4 9 -16 23 -13 42 9 10 11 24 20 33 20 11 0 9 -5 -8 -18
-22 -17 -49 -88 -38 -100 4 -3 20 7 36 23 20 19 26 31 19 36 -8 4 4 15 30 29
47 23 62 20 43 -10 -15 -24 -1 -34 24 -15 22 17 77 19 104 5 11 -6 46 -13 80
-17 59 -6 85 -23 35 -23 -16 0 -25 -6 -25 -15 0 -9 9 -15 22 -15 31 0 83 -43
98 -82 18 -44 39 -68 62 -68 22 0 24 18 3 27 -22 8 -47 61 -40 84 9 27 26 13
23 -19 -2 -21 1 -27 16 -27 21 0 39 -45 29 -70 -2 -8 2 -27 10 -42 9 -15 18
-36 21 -45 8 -26 26 -22 27 5 l0 22 9 -21 c5 -12 13 -25 19 -29 6 -3 11 -12
11 -18 0 -7 -4 -6 -10 3 -9 13 -11 13 -20 0 -5 -8 -7 -23 -4 -33 5 -17 -9 -34
-95 -108 -34 -30 -41 -42 -41 -72 0 -53 30 -81 82 -74 56 8 84 29 134 107 46
72 50 80 35 80 -5 0 -22 -24 -39 -52 -39 -71 -75 -105 -118 -113 -45 -8 -64 7
-64 50 0 36 30 74 78 99 35 18 52 43 52 76 0 16 5 20 15 16 11 -4 15 2 15 24
0 16 -4 32 -10 35 -16 10 -12 25 6 25 12 0 15 5 9 23 -16 50 -18 90 -4 85 9
-3 14 -19 14 -43 0 -22 5 -40 13 -42 8 -3 12 6 12 26 0 17 5 31 10 31 15 0 11
21 -14 73 -15 29 -19 47 -11 47 6 0 20 -17 30 -37 l19 -38 6 35 c5 32 6 34 18
15 10 -17 11 -16 5 14 -5 30 -4 33 11 28 13 -5 17 -2 14 10 -5 25 -64 27 -103
4 -42 -25 -127 -36 -155 -21 -21 11 -21 12 -4 31 21 23 13 35 -14 20 -12 -7
-22 -7 -29 0 -13 13 -67 -7 -58 -21 4 -6 15 -8 25 -5 10 3 21 1 25 -5 3 -5 -1
-10 -9 -10 -9 0 -16 -5 -16 -10 0 -18 -49 24 -50 41 0 11 12 18 35 22 19 3 72
24 118 45 118 57 204 85 238 78 21 -4 29 -2 29 9 0 24 -45 28 -100 10 -55 -18
-66 -16 -56 11 4 10 12 14 22 10 9 -4 23 -1 30 5 16 13 142 -2 185 -21 60 -27
79 -42 79 -62 0 -17 4 -19 25 -14 18 5 25 2 25 -9 0 -8 7 -15 15 -15 23 0 13
36 -18 64 -15 14 -27 35 -27 47 0 22 0 22 -21 3 -20 -18 -20 -18 -14 9 5 17 3
27 -4 27 -6 0 -11 -7 -11 -15 0 -8 -7 -15 -16 -15 -12 0 -15 6 -10 25 7 27 -3
32 -21 14 -7 -7 -19 -8 -30 -3 -19 8 -29 11 -51 13 -7 0 -11 5 -8 9 3 5 -16 7
-42 5 -98 -7 -118 -4 -185 27 -89 42 -130 91 -152 180 -18 73 -40 105 -51 76
-5 -12 -10 -14 -19 -6 -7 6 -20 8 -29 4 -9 -3 -16 -1 -16 4 0 6 15 12 33 14
36 3 36 2 13 103 -9 39 -21 108 -26 155 -14 123 -18 137 -43 144 -19 5 -20 8
-7 16 8 6 26 7 40 4 14 -4 43 -8 64 -9z m-649 -5 c-3 -5 -10 -10 -16 -10 -5 0
-9 5 -9 10 0 6 7 10 16 10 8 0 12 -4 9 -10z m275 -27 c-14 -2 -30 -11 -37 -20
-6 -8 -17 -12 -22 -8 -6 3 -21 3 -34 -1 l-22 -8 24 -6 c41 -10 37 -30 -6 -30
-21 0 -45 -5 -53 -10 -17 -11 -10 -13 39 -10 42 2 38 -23 -5 -28 -39 -5 -56
-22 -22 -22 33 0 48 -20 16 -21 -13 -1 -26 -1 -30 -1 -3 1 -12 -5 -18 -13 -11
-13 -6 -15 31 -16 34 -2 37 -3 14 -6 -37 -6 -58 -23 -28 -23 12 0 25 -4 28
-10 3 -5 -1 -10 -9 -10 -9 0 -16 -4 -16 -10 0 -5 7 -10 15 -10 10 0 15 -10 15
-29 0 -17 5 -33 10 -36 6 -3 10 1 10 9 0 9 5 16 10 16 16 0 12 -46 -5 -60 -8
-7 -21 -10 -30 -7 -19 8 -29 -9 -12 -20 18 -10 38 -48 30 -56 -7 -8 -53 59
-53 78 0 11 -12 15 -40 15 -34 0 -40 3 -40 20 0 17 6 20 27 18 23 -2 28 1 29
20 1 16 -6 26 -22 33 -13 4 -24 13 -24 18 0 6 -20 33 -45 61 -50 56 -82 110
-65 110 6 0 8 5 5 10 -4 6 -11 7 -17 4 -12 -8 -28 14 -28 38 0 16 17 18 173
21 94 1 186 3 202 3 24 1 25 0 5 -3z m1227 1 c-3 -3 -12 -4 -19 -1 -8 3 -5 6
6 6 11 1 17 -2 13 -5z m-1028 -38 c13 -13 25 -42 28 -65 6 -41 6 -42 -26 -39
-29 2 -31 4 -31 43 0 23 5 46 12 53 9 9 8 12 -5 12 -9 0 -17 5 -17 10 0 17 15
11 39 -14z m1099 -1 c20 -7 14 -25 -9 -25 -16 0 -19 -4 -14 -17 7 -17 7 -184
1 -191 -2 -2 -16 0 -30 4 -25 6 -25 7 -9 20 17 13 17 13 1 14 -19 0 -26 20 -8
20 18 0 11 20 -7 21 -12 1 -9 4 7 9 l25 7 -25 11 -25 11 25 1 c24 1 24 1 6 15
-14 11 -16 15 -5 15 12 0 12 2 -1 10 -10 6 -11 10 -2 10 6 0 12 7 12 15 0 8 5
15 10 15 6 0 10 5 10 10 0 6 -11 10 -24 10 -27 0 -44 16 -24 23 14 4 66 0 86
-8z m-758 -25 c0 -5 -4 -10 -10 -10 -5 0 -10 5 -10 10 0 6 5 10 10 10 6 0 10
-4 10 -10z m-250 -20 c0 -5 -7 -10 -15 -10 -8 0 -15 5 -15 10 0 6 7 10 15 10
8 0 15 -4 15 -10z m0 -45 c-7 -8 -16 -15 -21 -15 -5 0 -9 7 -9 15 0 9 9 15 21
15 18 0 19 -2 9 -15z m480 -25 c0 -5 -2 -10 -4 -10 -3 0 -8 5 -11 10 -3 6 -1
10 4 10 6 0 11 -4 11 -10z m-516 -142 c31 -161 52 -224 105 -304 29 -47 49
-65 92 -86 58 -28 81 -27 54 2 -21 23 -5 33 31 19 21 -7 25 -12 15 -18 -9 -6
-10 -11 -2 -15 6 -4 14 0 17 9 6 14 9 14 23 2 9 -8 30 -18 46 -22 30 -8 29 -8
-20 -22 -45 -12 -113 -11 -151 4 -8 3 -19 -9 -28 -32 -21 -50 -20 -62 4 -40
11 10 20 24 20 32 0 7 4 13 8 13 18 0 20 -13 5 -36 -9 -14 -12 -28 -9 -32 9
-8 36 26 36 45 0 7 7 13 15 13 17 0 20 -16 5 -25 -15 -9 -12 -25 5 -25 8 0 17
11 21 25 8 31 24 33 24 3 l0 -23 18 23 c16 21 20 22 31 8 11 -13 10 -17 -5
-22 -11 -4 -56 -24 -100 -45 -70 -34 -91 -39 -150 -39 -38 0 -86 5 -108 11
-43 12 -91 53 -80 70 5 8 8 8 14 0 9 -15 40 -3 40 16 0 9 -6 12 -19 8 -13 -4
-20 0 -23 13 -4 16 -1 18 16 14 11 -3 24 -10 28 -16 5 -8 12 -8 24 -1 21 13
18 31 -3 27 -30 -6 -65 8 -59 24 4 10 -3 16 -24 21 -17 3 -30 12 -30 19 0 19
13 18 54 -7 20 -11 40 -19 46 -17 15 5 -27 48 -48 48 -22 1 -69 36 -60 46 4 4
13 2 20 -3 24 -19 108 -52 108 -42 0 5 -19 18 -42 28 -67 29 -76 41 -71 84 4
31 9 37 29 37 13 0 24 5 24 10 0 6 -9 10 -21 10 -11 0 -18 4 -14 10 3 5 12 7
20 3 8 -3 15 0 15 6 0 6 -7 11 -15 11 -8 0 -15 5 -15 10 0 6 9 10 20 10 11 0
20 5 20 10 0 6 -7 10 -15 10 -23 0 -18 17 8 25 l22 8 -22 4 c-13 2 -23 9 -23
14 0 5 10 10 23 10 l22 2 -22 4 c-28 5 -30 23 -3 23 11 0 20 5 20 10 0 6 -9
10 -20 10 -11 0 -20 5 -20 10 0 6 9 10 19 10 11 0 23 5 26 10 4 6 -5 10 -20
10 -17 0 -25 5 -22 13 2 6 9 12 15 12 22 0 23 13 1 20 l-22 7 24 14 24 14 -22
6 c-30 8 -29 19 1 20 22 2 24 -4 50 -138z m46 122 c0 -5 -9 -10 -20 -10 -11 0
-20 5 -20 10 0 6 9 10 20 10 11 0 20 -4 20 -10z m510 -45 c-16 -17 -30 -35
-30 -39 0 -4 -9 -19 -20 -33 -11 -14 -20 -21 -20 -14 0 6 -10 11 -22 12 l-23
0 23 9 c12 5 22 12 22 15 0 4 -10 5 -22 3 -26 -3 -28 1 -28 38 0 18 4 25 14
21 7 -3 18 -1 24 5 8 8 17 4 31 -13 l20 -24 1 28 c0 17 5 27 15 27 8 0 15 5
15 11 0 8 5 7 15 -1 14 -12 12 -17 -15 -45z m60 45 c0 -5 -4 -10 -10 -10 -5 0
-10 5 -10 10 0 6 5 10 10 10 6 0 10 -4 10 -10z m-423 -16 c-3 -3 -12 -4 -19
-1 -8 3 -5 6 6 6 11 1 17 -2 13 -5z m-903 -22 c3 -10 22 -34 41 -54 l35 -36
-27 -7 c-40 -9 -82 -53 -94 -98 -11 -42 2 -73 28 -63 9 4 13 -3 13 -23 0 -33
20 -54 44 -45 9 3 16 1 16 -5 0 -16 -33 -27 -38 -13 -5 17 -22 15 -22 -3 0 -8
-4 -15 -10 -15 -9 0 -12 9 -14 53 -1 10 -13 23 -26 30 -33 16 -38 59 -11 93
22 28 27 44 13 44 -4 0 -16 -16 -26 -35 -11 -19 -21 -33 -24 -31 -9 10 12 49
44 81 32 32 33 35 13 35 -21 0 -22 1 -4 20 10 11 13 20 7 20 -6 0 -14 -4 -17
-10 -9 -15 -25 -12 -19 4 7 18 -25 29 -42 15 -16 -13 -57 -2 -51 14 3 11 111
44 149 46 9 1 19 -7 22 -17z m1440 -7 c9 -34 28 -32 21 3 -6 26 -6 26 9 8 9
-11 16 -24 16 -28 0 -5 7 -8 16 -6 10 2 19 -3 21 -9 3 -8 -3 -13 -14 -13 -25
0 -87 -40 -111 -70 -10 -14 -26 -45 -36 -69 -27 -68 -72 -121 -104 -121 -25 1
-62 20 -62 33 0 3 18 8 39 12 22 3 46 12 54 18 19 16 72 116 65 123 -8 7 -85
-41 -91 -58 -4 -10 -8 -10 -16 2 -6 9 -7 18 0 26 7 8 6 14 -1 19 -5 3 -10 11
-10 17 0 6 8 4 18 -5 17 -15 19 -14 36 18 10 19 29 44 42 56 l24 22 25 -23
c24 -23 37 -16 13 8 -6 6 -8 15 -4 19 4 4 16 -3 26 -17 12 -15 20 -19 20 -11
0 8 -7 22 -16 32 -9 10 -13 23 -9 28 11 18 22 12 29 -14z m-679 -5 c-3 -5 -10
-10 -16 -10 -5 0 -9 5 -9 10 0 6 7 10 16 10 8 0 12 -4 9 -10z m-345 -20 c0 -5
-4 -10 -10 -10 -5 0 -10 5 -10 10 0 6 5 10 10 10 6 0 10 -4 10 -10z m-612 -32
c-4 -27 -28 -36 -28 -10 0 20 8 32 22 32 5 0 8 -10 6 -22z m1757 12 c3 -5 -1
-10 -9 -10 -9 0 -16 5 -16 10 0 6 4 10 9 10 6 0 13 -4 16 -10z m-803 -12 c-9
-9 -15 -9 -24 0 -9 9 -7 12 12 12 19 0 21 -3 12 -12z m517 -33 c1 -5 -6 -2
-15 7 -10 9 -13 21 -8 29 5 9 9 8 15 -7 4 -10 8 -23 8 -29z m-174 15 c3 -5 1
-10 -4 -10 -6 0 -11 5 -11 10 0 6 2 10 4 10 3 0 8 -4 11 -10z m435 0 c13 -9
13 -11 0 -20 -9 -6 -18 -6 -24 0 -16 16 -26 11 -26 -12 0 -21 -1 -21 -13 -3
-18 23 -32 3 -17 -24 5 -11 10 -23 10 -28 -1 -10 -39 39 -40 50 0 7 76 46 90
47 3 0 12 -5 20 -10z m-773 -16 c-3 -3 -12 -4 -19 -1 -8 3 -5 6 6 6 11 1 17
-2 13 -5z m-882 -22 c-3 -3 -11 0 -18 7 -9 10 -8 11 6 5 10 -3 15 -9 12 -12z
m31 -14 c-18 -26 -22 -17 -5 14 6 11 13 17 16 15 3 -3 -2 -16 -11 -29z m524
22 c0 -5 -7 -10 -16 -10 -8 0 -12 5 -9 10 3 6 10 10 16 10 5 0 9 -4 9 -10z
m1140 1 c0 -6 -4 -12 -10 -16 -5 -3 -7 -12 -3 -21 3 -8 -2 -23 -12 -34 -10
-11 -15 -26 -11 -35 3 -9 2 -13 -4 -10 -6 3 -10 -1 -10 -9 0 -25 -17 -18 -22
8 -5 25 16 79 41 110 15 18 31 21 31 7z m-530 -11 c0 -5 -8 -10 -17 -10 -15 0
-16 2 -3 10 19 12 20 12 20 0z m85 -17 c19 -12 18 -13 -6 -13 -24 0 -49 16
-49 32 0 9 28 0 55 -19z m-1103 -17 c-17 -19 -33 -44 -37 -55 -7 -22 -25 -29
-25 -11 0 19 39 88 52 93 34 14 38 4 10 -27z m1748 8 c0 -14 -6 -16 -49 -17
-14 0 -34 -11 -47 -26 -12 -14 -25 -23 -29 -19 -14 14 33 62 71 73 43 13 54
11 54 -11z m-987 9 c-7 -2 -21 -2 -30 0 -10 3 -4 5 12 5 17 0 24 -2 18 -5z
m-657 -25 c29 2 31 0 27 -25 l-5 -28 24 28 c19 24 28 27 51 22 33 -9 87 -60
87 -82 0 -13 -3 -13 -17 -2 -10 8 -28 24 -40 36 -33 35 -60 30 -79 -14 -12
-28 -18 -33 -21 -20 -3 9 -11 17 -19 17 -28 0 19 -47 58 -59 21 -7 50 -23 65
-38 16 -14 21 -21 13 -16 -23 14 -112 41 -137 41 -17 1 -23 -5 -23 -20 l0 -21
-23 21 c-26 24 -67 96 -67 117 0 19 50 56 63 48 6 -4 25 -6 43 -5z m291 6 c-3
-3 -12 -4 -19 -1 -8 3 -5 6 6 6 11 1 17 -2 13 -5z m1033 -58 c0 -7 -6 -21 -14
-31 -13 -18 -14 -18 -25 3 -10 18 -9 22 4 22 19 0 19 9 0 34 -25 32 -17 41 10
12 14 -15 25 -33 25 -40z m-1066 38 c23 -9 20 -24 -4 -24 -11 0 -20 7 -20 15
0 17 2 18 24 9z m766 2 c0 -3 -4 -8 -10 -11 -5 -3 -10 -1 -10 4 0 6 5 11 10
11 6 0 10 -2 10 -4z m460 -25 c0 -11 4 -22 9 -25 8 -6 7 -53 -2 -63 -11 -11
-47 24 -47 45 0 21 1 22 16 8 17 -18 40 -11 26 7 -15 20 -22 47 -12 47 6 0 10
-9 10 -19z m155 9 c3 -6 -5 -14 -18 -19 -14 -6 -28 -15 -32 -20 -10 -17 -35
-13 -35 4 0 9 15 22 33 30 39 17 44 18 52 5z m-950 -85 c0 -14 6 -19 18 -17
19 3 22 -9 6 -25 -8 -8 -5 -23 10 -55 18 -40 23 -45 47 -40 19 3 25 1 22 -8
-20 -61 -133 78 -154 190 l-7 35 29 -30 c16 -16 29 -39 29 -50z m-409 38 c10
-10 12 -19 6 -21 -14 -4 -52 16 -52 28 0 16 27 11 46 -7z m-185 -16 c-13 -13
-26 -3 -16 12 3 6 11 8 17 5 6 -4 6 -10 -1 -17z m-327 -26 c-6 -6 -24 19 -24
34 1 6 7 1 15 -9 8 -11 12 -22 9 -25z m1861 20 c-8 -13 -35 -15 -35 -2 0 5 8
11 18 13 21 5 26 2 17 -11z m-353 -33 c-14 -14 -43 -1 -50 23 -2 9 1 8 11 -3
15 -18 37 -24 37 -10 0 4 -4 13 -10 20 -5 7 -2 5 7 -3 14 -12 15 -17 5 -27z
m-1759 -15 c-3 -18 -9 -33 -14 -33 -10 0 -12 63 -2 74 13 12 21 -9 16 -41z
m647 26 c18 -33 6 -42 -23 -17 -27 23 -27 38 -1 38 7 0 18 -9 24 -21z m105 0
c4 -6 13 -8 21 -5 8 3 14 -1 14 -10 0 -11 -6 -13 -20 -9 -13 4 -20 2 -21 -7 0
-12 -17 18 -18 35 -1 11 17 8 24 -4z m-46 -26 c0 -25 -1 -26 -9 -8 -12 27 -12
35 0 35 6 0 10 -12 9 -27z m1379 -38 c-3 -54 -3 -55 -33 -54 -29 1 -30 1 -5 9
l25 8 -25 2 c-18 2 -20 4 -7 7 9 2 17 9 17 15 0 6 -9 8 -20 5 -12 -3 -18 -1
-14 5 4 6 0 14 -7 19 -12 7 -12 9 0 9 11 0 11 3 1 15 -11 13 -7 15 29 15 l42
0 -3 -55z m-1854 29 c3 -8 -1 -26 -10 -40 -10 -15 -12 -24 -5 -24 6 0 11 5 11
10 0 21 30 21 56 1 15 -12 35 -21 45 -21 26 0 24 -13 -3 -25 -12 -6 -29 -27
-37 -48 -13 -34 -12 -42 2 -73 20 -41 49 -45 86 -11 l24 22 -15 -23 c-9 -13
-14 -31 -11 -42 3 -10 0 -21 -6 -24 -19 -12 -13 -60 9 -74 11 -7 20 -18 19
-25 0 -9 -2 -9 -6 1 -2 6 -11 12 -18 12 -16 0 -27 -38 -13 -46 7 -4 5 -10 -4
-15 -20 -11 -11 -59 11 -60 14 -1 13 -2 -1 -6 -33 -8 -18 -23 22 -23 42 0 52
12 23 29 -17 10 -17 10 0 11 9 0 17 8 17 17 0 13 3 14 12 5 7 -7 21 -13 33
-13 16 -1 17 -2 3 -6 -24 -6 -23 -23 0 -23 28 0 34 -11 14 -26 -10 -8 -12 -13
-4 -14 6 0 12 -7 12 -15 0 -8 7 -15 16 -15 13 0 14 -3 5 -14 -10 -12 -8 -15
11 -19 20 -4 20 -4 -4 -6 -16 0 -28 -5 -28 -11 0 -13 41 -13 75 0 20 8 26 7
23 -2 -3 -7 -23 -14 -46 -16 -23 -2 -42 -8 -42 -14 0 -7 14 -8 41 -4 53 9 49
-13 -7 -30 l-39 -12 43 -1 c40 -1 62 -21 23 -21 -11 0 -23 -4 -26 -10 -4 -6 5
-10 19 -10 37 0 34 -29 -4 -36 -16 -4 -27 -11 -24 -16 3 -5 12 -7 20 -4 7 3
16 1 19 -4 4 -6 -7 -10 -24 -10 -45 0 -38 -20 7 -21 l37 -2 -37 -10 c-48 -13
-50 -31 -3 -25 24 3 35 0 35 -9 0 -8 -14 -13 -40 -13 -22 0 -40 -4 -40 -10 0
-5 18 -10 40 -10 29 0 40 -4 40 -15 0 -9 -9 -15 -24 -15 -14 0 -28 -4 -31 -10
-4 -6 7 -10 24 -10 47 0 40 -27 -9 -35 -34 -6 -39 -9 -29 -21 6 -8 8 -14 4
-14 -4 0 -2 -7 5 -15 11 -13 8 -15 -18 -15 l-30 0 -5 133 c-3 72 -5 161 -4
197 2 118 -3 176 -15 193 -12 15 -18 15 -57 3 -62 -18 -66 -38 -7 -30 60 9 60
-8 0 -24 -47 -13 -53 -36 -6 -27 l27 6 -27 -16 c-40 -22 -35 -28 17 -21 36 6
45 4 45 -7 0 -10 -7 -13 -19 -10 -10 3 -22 0 -25 -6 -4 -6 -16 -11 -26 -11
-10 0 -22 -5 -26 -11 -5 -9 7 -10 44 -5 30 4 52 3 52 -3 0 -12 -25 -21 -61
-21 -16 0 -29 -4 -29 -10 0 -5 16 -10 36 -10 21 0 33 -4 29 -10 -3 -5 -20 -10
-36 -10 -20 0 -28 -4 -23 -11 4 -7 22 -9 46 -6 35 5 38 4 21 -9 -10 -7 -28
-14 -40 -14 -13 0 -23 -5 -23 -11 0 -8 14 -10 40 -6 46 6 55 -11 10 -20 -44
-8 -47 -23 -6 -23 44 0 47 -18 6 -27 -44 -8 -47 -23 -6 -23 41 0 48 -17 11
-26 -35 -9 -31 -24 6 -24 17 0 28 -4 24 -10 -3 -5 -22 -10 -41 -10 -19 0 -34
-4 -34 -10 0 -5 18 -10 40 -10 49 0 51 -12 5 -29 -46 -16 -46 -35 0 -27 50 10
44 -11 -7 -26 l-43 -12 40 -6 40 -6 -37 -7 c-54 -11 -62 -32 -10 -24 56 7 53
-8 -3 -22 -25 -6 -43 -16 -40 -21 3 -5 18 -5 38 1 40 11 37 11 37 -4 0 -7 -20
-19 -45 -26 -56 -17 -60 -35 -5 -26 31 5 40 4 40 -8 0 -9 -14 -16 -41 -20 -23
-3 -47 -11 -53 -17 -8 -10 -1 -11 32 -6 49 7 50 -8 2 -19 -17 -4 -30 -11 -30
-16 0 -6 4 -8 9 -4 5 3 12 1 15 -4 3 -5 -8 -11 -25 -15 -21 -4 -29 -10 -26
-20 3 -7 0 -19 -6 -26 -10 -10 -5 -11 21 -8 l32 5 -26 -28 c-15 -15 -21 -29
-16 -33 6 -4 18 4 26 16 13 18 16 19 16 5 0 -11 8 -17 22 -17 17 0 19 -3 10
-12 -7 -7 -12 -19 -12 -28 0 -24 -19 -47 -28 -33 -12 19 -62 3 -72 -23 -11
-28 -28 -32 -26 -7 0 10 -9 20 -24 24 -23 6 -23 7 8 8 51 2 34 31 -19 31 -10
0 -19 5 -19 10 0 6 16 10 35 10 19 0 35 5 35 10 0 6 -7 10 -16 10 -11 0 -14 6
-9 20 5 16 2 20 -19 20 -14 0 -26 5 -26 10 0 6 7 10 15 10 18 0 20 17 3 23
-10 3 -10 7 1 20 7 10 10 17 5 17 -4 0 -1 6 8 13 21 16 30 67 12 67 -8 0 -14
-4 -14 -10 0 -5 -10 -14 -21 -21 -21 -11 -22 -10 -15 42 4 30 12 80 18 112 11
54 11 59 -10 79 -20 20 -22 20 -28 4 -4 -10 -2 -21 6 -26 17 -10 -8 -150 -27
-150 -14 0 -17 12 -6 24 13 12 11 35 -3 47 -21 17 -20 177 1 185 21 8 19 24
-2 24 -16 1 -16 2 2 16 19 14 19 16 2 25 -21 12 -13 29 14 29 10 0 19 5 19 10
0 6 -11 10 -25 10 -20 0 -25 5 -25 25 0 15 6 25 14 25 7 0 20 7 27 17 13 15
11 16 -12 10 l-26 -7 -2 88 c-1 48 -4 132 -6 187 -2 55 -4 108 -5 118 0 9 -7
17 -15 17 -8 0 -15 5 -15 11 0 6 7 8 16 5 13 -5 15 -1 11 21 -2 16 -10 60 -17
100 -14 78 -7 143 12 109 5 -10 11 -52 12 -94 1 -66 4 -77 20 -80 10 -2 22 2
27 10 13 20 11 28 -9 28 -16 0 -18 10 -18 88 1 92 14 129 43 118 8 -3 11 -1 8
5 -4 5 1 21 10 36 14 21 15 27 4 34 -11 7 -11 9 2 9 9 0 20 -7 23 -16z m-294
-4 c0 -5 -4 -10 -10 -10 -5 0 -10 5 -10 10 0 6 5 10 10 10 6 0 10 -4 10 -10z
m1638 -30 c6 0 19 -11 28 -25 9 -14 22 -25 29 -25 7 0 19 -7 26 -16 12 -15 11
-16 -11 -9 -14 4 -49 33 -80 64 -30 30 -43 45 -29 33 14 -12 31 -22 37 -22z
m-1419 -1 c12 7 21 8 21 2 0 -8 -62 -45 -64 -39 -1 2 -7 13 -13 25 -21 36 -15
48 11 24 20 -19 28 -21 45 -12z m387 14 c60 -20 128 -63 100 -63 -11 0 -27 6
-35 14 -9 8 -27 16 -41 19 -33 5 -80 28 -80 39 0 10 -2 11 56 -9z m244 -12 c0
-14 -5 -18 -20 -14 -11 3 -20 12 -20 19 0 8 9 14 20 14 13 0 20 -7 20 -19z
m999 3 c2 -2 -12 -4 -32 -4 -20 0 -39 -5 -42 -10 -4 -6 -11 -8 -16 -4 -6 4 -6
11 1 19 10 12 75 11 89 -1z m-1868 -11 c13 -16 12 -17 -3 -4 -10 7 -18 15 -18
17 0 8 8 3 21 -13z m809 -19 c0 -8 -6 -14 -14 -14 -9 0 -12 7 -9 20 6 22 23
18 23 -6z m-809 -21 c13 -15 12 -15 -8 -4 -24 12 -29 21 -14 21 5 0 15 -7 22
-17z m869 7 c0 -5 -4 -10 -10 -10 -5 0 -10 5 -10 10 0 6 5 10 10 10 6 0 10 -4
10 -10z m-206 -6 c25 -10 19 -24 -11 -24 -26 -1 -27 -2 -10 -15 15 -11 18 -21
13 -52 -10 -58 -18 -66 -51 -53 -15 6 -30 8 -33 5 -3 -3 9 -11 26 -17 18 -7
32 -15 32 -19 0 -9 -52 -6 -68 5 -24 15 -25 -3 -1 -23 13 -11 19 -20 12 -21
-7 0 -21 10 -32 22 l-21 21 23 31 c22 29 31 48 56 119 10 27 32 34 65 21z
m-610 -31 c-4 -16 -10 -32 -15 -37 -7 -8 -4 17 7 52 7 24 14 11 8 -15z m-59
-13 c8 -13 -1 -13 -26 0 -10 6 -19 15 -19 21 0 11 35 -5 45 -21z m795 22 c0
-5 -17 -13 -37 -19 -33 -8 -35 -11 -19 -18 14 -6 31 -2 58 12 21 12 38 17 38
11 0 -19 -29 -38 -69 -44 -60 -10 -52 -27 9 -19 31 4 50 3 50 -3 0 -11 -33
-22 -67 -22 -13 0 -23 -5 -23 -11 0 -8 17 -10 51 -7 29 3 45 2 37 -3 -7 -5
-21 -9 -30 -9 -36 0 -17 -20 20 -21 29 -1 24 -3 -23 -10 -66 -10 -115 -27
-115 -40 0 -12 14 -11 26 1 6 6 40 12 75 14 35 2 76 7 92 11 15 4 27 3 27 -3
0 -5 -24 -14 -52 -21 -29 -6 -81 -17 -115 -25 -34 -7 -67 -10 -74 -6 -13 8
-12 16 19 125 30 105 30 104 68 103 19 -1 37 2 41 5 9 9 13 9 13 -1z m-636
-37 c3 -8 1 -15 -4 -15 -6 0 -10 7 -10 15 0 8 2 15 4 15 2 0 6 -7 10 -15z
m1816 -16 c-21 -17 -22 -19 -3 -10 34 17 40 12 14 -10 -23 -19 -25 -19 -34 -3
-7 13 -5 21 9 31 29 21 41 15 14 -8z m-325 -19 c3 -5 -1 -10 -9 -10 -9 0 -16
5 -16 10 0 6 4 10 9 10 6 0 13 -4 16 -10z m-1551 -16 c20 -8 21 -24 2 -24 -10
0 -14 -10 -14 -30 1 -16 6 -30 12 -30 6 0 5 -4 -3 -9 -21 -14 -24 -61 -3 -61
16 -1 16 -2 0 -14 -24 -18 -23 -26 5 -27 21 0 21 -1 -3 -11 -23 -10 -23 -11
-5 -15 54 -10 65 -14 65 -22 0 -5 -16 -8 -37 -7 -21 0 -38 -4 -40 -11 -3 -9 8
-13 36 -13 57 0 61 -18 4 -22 -43 -3 -48 -5 -47 -28 0 -17 6 -26 24 -30 24 -6
24 -7 -7 -13 -52 -10 -39 -22 24 -22 56 0 58 -1 61 -27 2 -20 -1 -28 -12 -28
-9 0 -13 6 -10 14 8 20 -49 41 -75 26 -32 -16 -25 -30 12 -25 l32 5 -35 -17
-35 -17 45 -6 45 -6 -37 -8 c-56 -12 -46 -28 15 -25 29 2 51 -1 49 -6 -1 -6
-17 -10 -35 -11 -54 -1 -67 -4 -67 -14 0 -5 20 -10 44 -10 25 0 48 -4 51 -10
4 -6 -13 -10 -44 -10 -55 0 -72 -20 -18 -21 17 0 41 -4 52 -9 15 -6 6 -9 -32
-9 -60 -1 -73 -20 -15 -22 26 -1 29 -3 12 -6 -14 -2 -32 -6 -40 -9 -23 -8 8
-23 50 -25 34 -1 34 -1 -9 -10 -51 -10 -47 -6 -54 -46 -6 -33 -6 -33 32 -33
45 0 71 -8 71 -22 0 -6 -16 -7 -37 -4 -21 4 -44 2 -52 -3 -11 -7 -4 -11 25
-16 55 -9 64 -13 64 -25 0 -8 -11 -9 -30 -5 -16 4 -40 3 -52 -1 -21 -7 -20 -9
12 -14 l35 -6 -35 -11 -35 -10 53 -7 52 -8 0 -51 0 -52 -52 4 c-62 4 -60 -7 3
-15 23 -3 47 -7 51 -10 11 -7 10 -52 -2 -59 -5 -3 -10 -24 -10 -46 0 -21 -4
-39 -9 -39 -5 0 -8 8 -7 18 1 12 -8 18 -30 20 -27 3 -32 -1 -36 -23 -4 -17 0
-30 13 -38 9 -7 17 -21 16 -31 -1 -13 5 -20 20 -21 31 -2 40 -13 19 -21 -17
-7 -106 9 -157 28 -15 5 -31 19 -36 31 -12 25 17 435 41 602 8 55 18 134 21
175 3 41 10 109 15 150 5 41 11 93 14 115 6 58 29 155 37 155 4 0 14 -3 23 -6z
m855 -50 c-11 -14 -10 -19 11 -34 l23 -18 -22 -12 c-13 -6 -23 -10 -24 -8 -1
2 -10 18 -19 35 -16 31 -16 33 0 43 9 5 23 10 31 10 11 0 11 -3 0 -16z m96
-54 c3 -6 -5 -10 -19 -10 -14 0 -28 5 -31 10 -3 6 5 10 19 10 14 0 28 -4 31
-10z m-550 -40 c-3 -5 -10 -10 -16 -10 -5 0 -9 5 -9 10 0 6 7 10 16 10 8 0 12
-4 9 -10z m42 -26 c-3 -3 -12 -4 -19 -1 -8 3 -5 6 6 6 11 1 17 -2 13 -5z
m-390 -30 c-3 -3 -12 -4 -19 -1 -8 3 -5 6 6 6 11 1 17 -2 13 -5z m343 -44 c0
-5 -4 -10 -10 -10 -5 0 -10 5 -10 10 0 6 5 10 10 10 6 0 10 -4 10 -10z m1974
-26 c21 -8 20 -30 -7 -86 l-22 -48 -2 53 c-2 48 3 87 12 87 2 0 10 -3 19 -6z
m-1754 -58 c0 -8 5 -18 10 -21 6 -3 10 -10 10 -16 0 -5 -4 -9 -10 -9 -5 0 -10
5 -10 11 0 6 -9 23 -20 39 -11 15 -17 30 -14 33 9 9 34 -19 34 -37z m50 23 c0
-15 -18 -19 -23 -6 -3 8 1 14 9 14 8 0 14 -4 14 -8z m677 -11 c-3 -8 -6 -5 -6
6 -1 11 2 17 5 13 3 -3 4 -12 1 -19z m49 -50 c-14 -8 -14 -12 -1 -38 9 -17 14
-30 11 -30 -2 0 -11 -2 -18 -5 -16 -6 -18 55 -3 115 l9 35 9 -34 c7 -27 5 -36
-7 -43z m-1316 11 c0 -11 -4 -17 -10 -14 -5 3 -10 15 -10 26 0 11 5 17 10 14
6 -3 10 -15 10 -26z m2240 21 c0 -5 -7 -10 -16 -10 -8 0 -12 5 -9 10 3 6 10
10 16 10 5 0 9 -4 9 -10z m-365 -43 c-8 -20 11 -39 39 -39 16 0 31 -8 37 -20
14 -26 6 -33 -41 -31 -31 2 -38 -1 -33 -13 3 -8 12 -13 20 -10 21 9 53 -12 53
-34 0 -22 -37 -37 -53 -21 -8 8 -4 11 16 11 26 0 36 13 19 24 -18 11 -49 -7
-59 -32 -9 -22 -11 -6 -12 81 -1 67 3 106 9 102 5 -3 7 -11 5 -18z m-1395 -12
c13 -14 20 -28 16 -32 -4 -5 -18 4 -29 18 -12 15 -29 29 -37 32 -10 4 -9 6 6
6 11 1 31 -10 44 -24z m1434 10 c-4 -8 -14 -15 -23 -15 -14 1 -13 3 3 15 25
19 27 19 20 0z m201 -125 c-3 -58 -8 -203 -11 -323 -6 -215 -7 -218 -28 -215
-21 3 -21 4 -18 258 2 140 6 264 9 275 5 18 4 19 -12 4 -14 -14 -17 -52 -21
-312 -3 -267 -2 -297 13 -313 16 -15 16 -17 -2 -30 -22 -16 -51 -18 -60 -4 -6
10 -25 8 -72 -6 -17 -5 -23 -2 -23 10 0 9 6 16 14 16 8 0 23 8 35 18 20 16 22
30 31 296 9 235 13 283 26 298 13 14 14 21 5 32 -16 19 -1 27 43 22 39 -5 52
5 38 31 -7 11 -5 27 7 49 24 47 31 19 26 -106z m191 114 c-4 -9 -9 -15 -11
-12 -3 3 -3 13 1 22 4 9 9 15 11 12 3 -3 3 -13 -1 -22z m-236 -4 c0 -13 -100
-13 -120 0 -11 7 5 10 53 10 38 0 67 -4 67 -10z m-1510 -20 c0 -5 -4 -10 -10
-10 -5 0 -10 5 -10 10 0 6 5 10 10 10 6 0 10 -4 10 -10z m-200 -10 c0 -5 -5
-10 -11 -10 -5 0 -7 5 -4 10 3 6 8 10 11 10 2 0 4 -4 4 -10z m1986 -17 c-3
-10 -15 -24 -26 -30 -16 -11 -18 -10 -14 1 3 8 0 17 -7 22 -17 10 -92 -78 -76
-89 9 -6 9 -10 0 -14 -21 -8 -15 -25 6 -18 12 3 21 0 25 -10 3 -8 10 -14 15
-13 9 3 11 -1 11 -28 0 -14 -7 -15 -47 -9 -27 5 -56 8 -65 7 -31 -1 -37 21
-18 63 10 22 21 48 24 58 3 10 11 15 17 12 12 -8 71 44 64 56 -3 4 8 5 25 3
16 -3 38 -1 47 5 22 12 27 8 19 -16z m-302 2 c-4 -8 -14 -15 -24 -15 -10 0
-23 7 -30 15 -11 13 -7 15 23 15 28 0 35 -3 31 -15z m-2023 -348 c1 -191 -1
-350 -4 -354 -4 -3 -7 155 -7 352 0 197 2 356 5 354 2 -3 5 -161 6 -352z m750
306 c-12 -20 -14 -14 -5 12 4 9 9 14 11 11 3 -2 0 -13 -6 -23z m1039 1 c0 -16
-16 -19 -25 -4 -8 13 4 32 16 25 5 -4 9 -13 9 -21z m490 -44 c-6 -11 -15 -18
-21 -14 -6 4 -6 11 2 20 17 21 31 17 19 -6z m-1534 -17 c-10 -10 -19 5 -10 18
6 11 8 11 12 0 2 -7 1 -15 -2 -18z m-221 7 c3 -5 1 -10 -4 -10 -6 0 -11 5 -11
10 0 6 2 10 4 10 3 0 8 -4 11 -10z m175 0 c0 -5 -7 -10 -15 -10 -8 0 -15 5
-15 10 0 6 7 10 15 10 8 0 15 -4 15 -10z m-170 -62 l0 -33 -14 25 c-13 26 -12
40 5 40 5 0 9 -15 9 -32z m156 17 c-3 -9 0 -15 9 -15 7 0 17 -4 20 -10 4 -6
-5 -10 -19 -10 -21 0 -26 5 -26 25 0 14 5 25 11 25 6 0 9 -7 5 -15z m-1041
-20 c29 -28 32 -66 9 -86 -20 -17 -69 -20 -102 -8 -21 8 -23 14 -18 39 6 31
-10 42 -20 15 -12 -31 5 -65 36 -72 34 -6 63 -33 36 -33 -9 0 -16 4 -16 10 0
5 -14 8 -30 6 -17 -2 -33 0 -36 5 -3 5 -14 9 -24 9 -10 0 -20 6 -23 13 -3 8
-13 4 -31 -13 l-28 -25 8 29 c4 19 2 31 -7 37 -11 6 -9 13 11 33 13 15 29 26
36 26 12 0 26 -24 28 -49 1 -8 6 -16 11 -18 12 -4 12 33 0 60 -9 22 3 37 15
17 8 -13 11 -13 22 2 7 9 29 19 48 21 19 2 39 5 43 5 4 1 19 -9 32 -23z m2285
-185 c0 -113 -5 -212 -10 -220 -8 -12 -13 -13 -30 -2 -11 6 -26 12 -34 12 -10
0 -14 10 -13 35 2 34 4 35 42 36 l40 2 -38 6 c-46 7 -48 19 -4 28 l32 6 -33 6
c-18 3 -33 11 -33 16 0 6 15 13 33 16 l33 5 -27 8 c-31 9 -27 31 3 23 10 -3
22 -1 25 4 3 5 -9 9 -25 9 -17 0 -31 5 -31 10 0 6 11 10 25 10 14 0 25 5 25
10 0 17 -48 11 -59 -7 -8 -14 -10 -5 -10 37 1 30 3 48 5 40 4 -12 14 -15 39
-12 43 5 46 22 5 22 -16 0 -30 5 -30 10 0 6 9 10 20 10 11 0 20 5 20 10 0 16
-32 11 -46 -7 -12 -16 -13 -15 -14 13 0 34 11 42 48 39 12 -1 22 3 22 8 0 5
-15 7 -35 4 -19 -3 -35 -2 -35 2 0 15 12 19 51 17 l39 -1 0 -205z m395 160
c-9 -10 -15 -26 -12 -35 4 -8 3 -15 -2 -15 -16 0 -19 40 -4 55 22 22 39 18 18
-5z m-1605 -22 c0 -6 -7 -7 -15 -4 -9 3 -18 -1 -21 -9 -9 -23 -22 -18 -19 8 3
27 0 25 30 19 14 -2 25 -9 25 -14z m1407 -10 c-3 -8 -6 -5 -6 6 -1 11 2 17 5
13 3 -3 4 -12 1 -19z m-1414 -55 c-7 -2 -21 -2 -30 0 -10 3 -4 5 12 5 17 0 24
-2 18 -5z m1443 -52 c-3 -4 13 -7 36 -5 41 4 41 4 21 -15 -16 -15 -30 -18 -62
-14 -44 6 -51 16 -23 32 21 13 35 14 28 2z m-1605 -16 c0 -13 -41 -19 -41 -7
0 11 20 22 33 18 5 -1 8 -6 8 -11z m1709 5 c0 -5 -4 -10 -10 -10 -5 0 -10 5
-10 10 0 6 5 10 10 10 6 0 10 -4 10 -10z m-2533 -37 c3 -8 -6 -10 -31 -6 -30
5 -47 -1 -97 -32 -33 -20 -62 -35 -64 -33 -14 13 13 50 49 68 45 22 136 25
143 3z m-301 -22 c-8 -13 15 -29 49 -34 25 -3 24 -4 -11 -6 -48 -1 -88 22 -64
39 19 12 33 13 26 1z m1050 -43 c-3 -29 -6 -68 -6 -85 0 -26 -4 -33 -20 -33
-11 0 -20 -4 -20 -9 0 -5 -3 -16 -6 -25 -4 -12 0 -16 16 -16 15 0 20 4 17 15
-4 8 -2 17 3 20 6 4 10 -13 10 -39 0 -45 -1 -46 -33 -46 -29 0 -33 3 -32 28 0
20 -5 27 -20 27 -14 0 -19 -6 -17 -17 2 -11 -3 -18 -14 -18 -11 0 -14 5 -10
16 3 9 6 22 6 30 0 9 11 14 30 14 17 0 30 5 30 10 0 6 -12 10 -26 10 -21 0
-25 4 -22 23 2 15 11 23 28 25 41 6 48 22 10 23 -35 1 -35 1 13 17 33 11 47
21 47 34 0 10 -6 18 -12 18 -11 1 19 30 30 30 2 0 2 -24 -2 -52z m67 45 c-7
-2 -19 -2 -25 0 -7 3 -2 5 12 5 14 0 19 -2 13 -5z m1639 -3 c54 0 46 -6 -19
-13 -44 -5 -53 -3 -53 10 0 10 6 13 16 9 9 -3 34 -6 56 -6z m142 -11 c37 -29
26 -34 -18 -8 -50 29 -46 5 5 -27 22 -14 39 -28 36 -30 -3 -3 -25 9 -51 27
-35 25 -43 35 -35 46 16 18 32 16 63 -8z m-2594 2 c0 -4 -19 -11 -42 -14 -23
-3 -47 -12 -53 -19 -19 -26 -155 -63 -140 -39 3 6 14 11 23 11 9 0 32 10 51
23 19 12 44 28 55 34 24 14 106 17 106 4z m-7 -28 c-7 -2 -21 -2 -30 0 -10 3
-4 5 12 5 17 0 24 -2 18 -5z m-248 -36 c7 -7 4 -8 -8 -3 -10 3 -30 6 -43 6
-13 0 -24 4 -24 10 0 12 61 1 75 -13z m265 -6 c0 -5 -19 -12 -42 -16 -31 -6
-52 -18 -76 -44 -70 -75 -75 -83 -44 -74 9 2 28 20 42 38 27 38 83 70 106 61
22 -8 17 -23 -10 -30 -13 -3 -46 -26 -73 -51 -40 -38 -45 -45 -26 -45 12 0 32
13 45 29 14 16 34 34 46 40 19 10 22 9 22 -9 0 -11 -7 -20 -15 -20 -8 0 -24
-13 -37 -30 -12 -16 -28 -30 -35 -30 -7 0 -13 -4 -13 -10 0 -22 41 -8 62 20
27 37 38 38 38 5 0 -14 -5 -25 -11 -25 -6 0 -22 -9 -36 -20 -14 -11 -28 -20
-32 -20 -3 0 -32 24 -63 54 l-57 54 32 38 c70 83 86 94 133 94 24 0 44 -4 44
-9z m-247 -31 c29 -14 38 -37 10 -25 -10 4 -38 12 -63 18 -53 12 -54 13 -46
25 7 11 56 2 99 -18z m81 5 c-4 -8 -12 -15 -20 -15 -17 0 -18 17 -1 23 22 9
27 7 21 -8z m-98 -43 c36 -12 48 -21 40 -28 -15 -14 -32 -15 -28 -1 5 16 -19
27 -61 27 -23 0 -36 4 -32 10 9 14 23 13 81 -8z m-21 -32 c-3 -5 -17 -10 -31
-10 -13 0 -24 5 -24 10 0 6 14 10 31 10 17 0 28 -4 24 -10z m2415 0 c0 -5 -4
-10 -10 -10 -5 0 -10 5 -10 10 0 6 5 10 10 10 6 0 10 -4 10 -10z m46 -29 c-7
-11 -56 -21 -56 -11 0 13 13 20 37 20 13 0 22 -4 19 -9z m-1409 -23 c-3 -8 -6
-5 -6 6 -1 11 2 17 5 13 3 -3 4 -12 1 -19z m-996 2 c5 0 38 -27 75 -60 53 -49
72 -60 100 -60 19 0 34 -4 34 -10 0 -5 -9 -10 -20 -10 -39 0 -95 31 -138 75
-44 46 -64 52 -147 46 -16 -2 -27 1 -23 5 10 10 79 23 96 18 8 -2 18 -4 23 -4z
m541 -27 c-3 -16 -7 -22 -10 -15 -4 13 4 42 11 42 2 0 2 -12 -1 -27z m2023 17
c3 -5 2 -10 -4 -10 -5 0 -13 5 -16 10 -3 6 -2 10 4 10 5 0 13 -4 16 -10z
m-168 -6 c-3 -3 -12 -4 -19 -1 -8 3 -5 6 6 6 11 1 17 -2 13 -5z m-1267 -14 c0
-5 -5 -10 -11 -10 -5 0 -7 5 -4 10 3 6 8 10 11 10 2 0 4 -4 4 -10z m1535 1
c16 -7 14 -9 -14 -14 -45 -9 -61 -9 -61 2 0 17 44 24 75 12z m-1815 -11 c0 -5
25 -10 56 -10 40 0 54 -3 51 -12 -3 -8 -21 -12 -51 -11 -25 1 -46 -3 -46 -9 0
-6 7 -8 15 -4 8 3 15 0 15 -6 0 -6 11 -8 30 -4 17 3 30 1 30 -4 0 -5 -16 -12
-35 -16 -20 -3 -35 -12 -35 -20 0 -8 -10 -14 -25 -14 -22 0 -25 3 -19 25 5 19
2 25 -10 25 -9 0 -16 -8 -16 -19 0 -24 -18 -37 -32 -23 -6 6 -4 15 6 25 9 9
16 22 16 30 0 8 7 17 15 21 8 3 15 12 15 21 0 8 5 15 10 15 6 0 10 -4 10 -10z
m1708 -2 c19 -19 14 -30 -8 -18 -11 6 -20 15 -20 20 0 14 14 12 28 -2z m-2598
-8 c0 -5 -11 -10 -25 -10 -14 0 -28 0 -32 -1 -4 0 -9 4 -11 10 -2 7 11 11 32
11 20 0 36 -4 36 -10z m2796 -26 c43 -45 43 -55 -1 -41 -27 8 -48 7 -96 -7
-60 -16 -88 -14 -59 5 20 12 80 29 105 29 15 0 16 3 7 12 -9 9 -22 9 -57 0
-54 -14 -68 -15 -60 -3 3 5 30 13 60 16 30 4 52 11 49 16 -14 24 23 5 52 -27z
m-2752 20 c23 -9 20 -24 -4 -24 -11 0 -20 7 -20 15 0 17 2 18 24 9z m206 -18
c0 -14 -34 -28 -44 -18 -5 4 21 23 42 31 1 1 2 -5 2 -13z m-224 -37 c3 -5 -18
-9 -45 -9 -28 0 -51 4 -51 9 0 19 84 19 96 0z m501 -56 c-2 -16 -4 -5 -4 22 0
28 2 40 4 28 2 -13 2 -35 0 -50z m43 51 c0 -8 -5 -12 -10 -9 -6 4 -8 11 -5 16
9 14 15 11 15 -7z m2040 -4 c0 -13 -34 -30 -61 -30 -21 0 -22 1 -4 20 18 20
65 28 65 10z m-2120 -10 c0 -5 -9 -10 -20 -10 -11 0 -20 5 -20 10 0 6 9 10 20
10 11 0 20 -4 20 -10z m2020 -20 c28 -30 63 -39 75 -20 8 13 25 3 25 -14 0
-20 -58 -42 -73 -27 -6 6 -19 11 -28 11 -10 0 -27 14 -39 30 -16 22 -27 29
-41 25 -21 -7 -27 10 -6 18 31 13 61 5 87 -23z m-1532 -2 c-9 -13 -24 -24 -34
-26 -18 -3 -18 -2 -1 8 9 6 17 18 17 25 0 8 7 15 16 15 15 0 15 -2 2 -22z
m-948 -12 c0 -8 -14 -17 -32 -21 -18 -4 -41 -14 -50 -23 -17 -14 -18 -13 -18
9 0 35 18 49 62 49 26 0 38 -4 38 -14z m250 -6 c12 -8 10 -10 -10 -10 -15 0
-31 -5 -37 -11 -11 -11 -53 7 -53 23 0 11 82 9 100 -2z m290 -10 c0 -11 -4
-20 -10 -20 -5 0 -10 9 -10 20 0 11 5 20 10 20 6 0 10 -9 10 -20z m270 12 c0
-13 -12 -22 -22 -16 -10 6 -1 24 13 24 5 0 9 -4 9 -8z m42 -27 c-3 -19 1 -27
19 -34 l24 -10 -24 0 c-16 -1 -21 -5 -18 -15 5 -13 -11 -26 -32 -26 -4 0 -2
25 3 55 6 30 15 55 22 55 7 0 9 -10 6 -25z m1580 0 c26 -33 87 -51 117 -35 27
14 39 6 21 -15 -21 -25 -96 -20 -126 10 -14 14 -31 25 -39 25 -8 0 -15 9 -15
20 0 27 18 25 42 -5z m-2270 -13 c20 -9 57 -35 80 -58 24 -22 54 -46 66 -53
25 -13 30 -41 7 -41 -9 0 -34 17 -58 38 -63 58 -122 82 -198 82 -50 0 -74 -6
-108 -25 -24 -14 -46 -23 -49 -21 -11 12 51 76 81 85 53 15 139 12 179 -7z
m208 -13 c0 -16 -4 -19 -22 -14 -37 12 -42 11 -46 -7 -2 -13 3 -18 17 -18 12
0 21 -6 21 -15 0 -31 -47 -5 -90 49 -14 18 -13 19 21 14 20 -4 42 -2 50 3 25
16 49 10 49 -12z m550 17 c0 -3 -4 -8 -10 -11 -5 -3 -10 -1 -10 4 0 6 5 11 10
11 6 0 10 -2 10 -4z m1503 -61 c-7 -21 -13 -19 -13 6 0 11 4 18 10 14 5 -3 7
-12 3 -20z m-2257 -13 c22 -11 55 -37 74 -57 25 -27 29 -34 13 -26 -12 6 -25
16 -28 21 -3 5 -31 22 -61 36 -66 31 -120 28 -198 -12 -26 -14 -50 -24 -52
-22 -7 8 50 61 80 74 40 19 122 12 172 -14z m324 7 c0 -5 -4 -9 -10 -9 -5 0
-10 7 -10 16 0 8 5 12 10 9 6 -3 10 -10 10 -16z m-60 3 c0 -4 -13 -23 -28 -42
-19 -22 -31 -30 -36 -22 -4 7 -1 12 9 12 12 0 15 6 10 20 -5 15 -3 18 9 14 11
-4 16 -1 16 10 0 9 5 16 10 16 6 0 10 -4 10 -8z m435 -49 c-11 -7 -26 -13 -35
-13 -37 0 -55 -55 -25 -80 8 -7 15 -18 15 -26 0 -19 37 -28 106 -25 50 1 67
-3 98 -24 23 -16 51 -25 74 -25 34 0 160 19 241 36 31 6 34 5 27 -12 -23 -59
-17 -151 11 -179 8 -9 13 -18 10 -21 -12 -12 -1108 3 -1120 15 -5 5 -4 18 2
29 23 43 39 50 106 50 36 -1 68 2 72 6 3 3 -16 6 -43 6 -27 0 -56 5 -64 10
-11 7 -2 10 33 10 30 0 46 4 42 10 -3 6 -22 10 -42 10 -20 0 -33 3 -29 7 4 4
22 6 41 5 19 -2 35 2 35 8 0 5 -12 11 -27 11 l-28 2 28 4 c28 4 36 18 15 26
-21 6 10 37 37 37 13 0 37 13 53 29 16 17 41 33 56 37 14 3 26 11 26 16 0 7
14 8 36 5 21 -4 46 -1 58 5 30 17 189 56 200 50 5 -3 1 -11 -9 -19z m-722 0
c18 -10 46 -30 64 -44 17 -15 54 -33 82 -40 51 -13 51 -13 35 -37 -8 -13 -13
-29 -11 -37 8 -19 -31 -7 -70 22 -18 13 -40 36 -49 52 -27 46 -70 65 -146 65
-71 1 -75 4 -25 23 46 17 85 15 120 -4z m307 11 c0 -3 -5 -15 -11 -26 -8 -14
-8 -23 0 -31 18 -18 13 -57 -6 -57 -10 0 -33 -9 -51 -20 -36 -22 -42 -24 -42
-12 0 4 16 16 36 27 27 14 34 24 30 39 -6 21 21 86 35 86 5 0 9 -3 9 -6z m110
-20 c0 -8 -6 -14 -14 -14 -9 0 -12 7 -9 20 6 22 23 18 23 -6z m-422 -51 c13
-8 32 -29 43 -47 23 -39 85 -76 128 -76 35 0 37 -6 15 -35 -11 -14 -18 -16
-21 -7 -3 6 -11 12 -18 12 -18 0 -79 35 -130 75 -60 46 -111 66 -187 72 -38 3
-65 10 -62 15 4 6 21 7 39 4 18 -4 43 -2 56 4 30 12 107 3 137 -17z m1382 17
c0 -6 -11 -8 -27 -4 -40 10 -41 14 -5 14 18 0 32 -5 32 -10z m698 -21 c2 -23
2 -23 -13 -5 -18 24 -20 39 -2 34 6 -3 13 -15 15 -29z m67 -19 c3 -5 1 -10 -4
-10 -6 0 -11 5 -11 10 0 6 2 10 4 10 3 0 8 -4 11 -10z m-2210 -31 c35 -17 79
-46 97 -64 21 -22 50 -39 81 -47 52 -13 54 -17 30 -54 -14 -23 -21 -24 -57
-18 -61 10 -117 34 -155 66 -40 35 -82 55 -133 63 -26 4 -38 11 -38 22 0 13 9
15 54 10 62 -6 105 -26 149 -69 34 -33 120 -78 150 -78 27 0 20 19 -10 30 -42
15 -82 39 -144 86 -54 42 -101 57 -186 63 -7 1 -13 6 -13 11 0 6 25 10 56 10
41 0 71 -8 119 -31z m1420 21 c-3 -5 -12 -10 -18 -10 -7 0 -6 4 3 10 19 12 23
12 15 0z m755 -6 c0 -8 -4 -12 -10 -9 -5 3 -10 10 -10 16 0 5 5 9 10 9 6 0 10
-7 10 -16z m-30 -13 c0 -14 5 -18 20 -14 11 3 20 0 20 -6 0 -15 -33 -14 -48 1
-15 15 -16 38 -2 38 6 0 10 -9 10 -19z m70 -1 c0 -5 -4 -10 -10 -10 -5 0 -10
5 -10 10 0 6 5 10 10 10 6 0 10 -4 10 -10z m560 -9 c0 -15 -10 -19 -52 -23
-97 -10 -109 14 -15 29 34 6 63 11 65 12 1 0 2 -7 2 -18z m-1360 -21 c0 -5 -4
-10 -10 -10 -5 0 -10 5 -10 10 0 6 5 10 10 10 6 0 10 -4 10 -10z m810 -11 c0
-5 -7 -9 -15 -9 -15 0 -20 12 -9 23 8 8 24 -1 24 -14z m-1140 -4 c0 -11 -10
-15 -32 -14 -24 1 -27 3 -10 6 12 2 22 9 22 14 0 5 5 9 10 9 6 0 10 -7 10 -15z
m333 -15 c9 0 17 -4 17 -10 0 -14 -5 -13 -45 9 -19 10 -32 21 -28 25 3 3 14
-1 23 -9 9 -8 24 -15 33 -15z m877 15 c0 -8 -4 -15 -10 -15 -5 0 -10 7 -10 15
0 8 5 15 10 15 6 0 10 -7 10 -15z m-822 -32 c-6 -7 -16 -13 -22 -12 -7 0 -6 2
2 6 6 2 12 14 12 26 0 18 2 19 10 7 5 -9 5 -19 -2 -27z m859 1 c-9 -9 -28 6
-21 18 4 6 10 6 17 -1 6 -6 8 -13 4 -17z m443 16 c0 -5 -8 -11 -17 -11 -10 -1
-29 -3 -43 -4 -30 -3 -43 3 -35 16 8 12 95 12 95 -1z m-1438 -32 c-7 -7 -12
-8 -12 -2 0 14 12 26 19 19 2 -3 -1 -11 -7 -17z m18 -23 c-16 -17 -19 -25 -9
-25 12 0 11 -2 -1 -10 -24 -16 -32 -12 -20 11 16 29 43 59 49 54 2 -3 -6 -16
-19 -30z m-1445 15 c8 -13 -5 -13 -25 0 -13 8 -13 10 2 10 9 0 20 -4 23 -10z
m1540 -6 c20 -15 20 -16 -4 -12 -14 2 -26 9 -29 16 -5 16 9 15 33 -4z m1325
-34 c0 -27 -3 -50 -7 -50 -7 0 -51 60 -61 82 -2 4 9 8 25 11 15 2 31 5 36 6 4
0 7 -21 7 -49z m-2885 16 c22 -8 57 -30 78 -50 21 -19 57 -41 80 -47 68 -18
75 -22 48 -27 -37 -6 -61 4 -150 63 -47 30 -93 55 -103 55 -10 0 -18 5 -18 10
0 14 17 12 65 -4z m1505 -10 c0 -3 -4 -8 -10 -11 -5 -3 -10 -1 -10 4 0 6 5 11
10 11 6 0 10 -2 10 -4z m90 -18 c0 -6 -7 -7 -16 -4 -9 3 -23 6 -32 7 -13 0
-13 2 3 8 23 9 45 4 45 -11z m-83 -25 c-15 -16 -17 -16 -17 -1 0 9 6 18 13 21
20 7 22 -2 4 -20z m1210 21 c-3 -3 -12 -4 -19 -1 -8 3 -5 6 6 6 11 1 17 -2 13
-5z m-2716 -45 c47 -37 130 -69 179 -69 43 0 54 -10 45 -40 -5 -17 -14 -20
-53 -18 l-47 1 43 4 c47 5 58 23 13 23 -50 0 -125 30 -166 67 -22 19 -50 39
-63 44 -13 5 -20 14 -17 19 7 12 16 8 66 -31z m184 0 c16 -16 -19 -9 -40 7
-19 16 -19 16 5 9 14 -4 29 -11 35 -16z m1427 1 c21 -20 21 -21 4 -38 -18 -16
-19 -16 -13 1 4 10 1 17 -6 17 -7 0 -13 9 -14 20 -2 25 2 25 29 0z m-116 -33
c1 -15 -3 -27 -8 -27 -5 0 -7 9 -3 20 5 15 3 18 -9 14 -16 -6 -22 7 -9 20 13
13 28 -1 29 -27z m-1229 17 c-3 -3 -12 -4 -19 -1 -8 3 -5 6 6 6 11 1 17 -2 13
-5z m1293 -9 c0 -9 -6 -12 -15 -9 -8 4 -12 10 -9 15 8 14 24 10 24 -6z m-1587
-19 c18 -13 58 -36 90 -50 31 -14 57 -28 57 -31 0 -11 -63 7 -78 21 -7 8 -18
14 -23 14 -14 0 -89 51 -89 61 0 14 9 11 43 -15z m2707 -7 c0 -5 -4 -9 -10 -9
-5 0 -10 7 -10 16 0 8 5 12 10 9 6 -3 10 -10 10 -16z m-2207 -45 c11 -19 57
-18 57 1 0 8 5 15 10 15 6 0 10 -18 10 -40 0 -22 5 -40 10 -40 6 0 10 19 10
43 1 54 15 30 23 -36 4 -42 3 -47 -12 -41 -65 28 -198 76 -220 79 -14 1 -27 3
-28 4 -2 0 5 10 15 22 15 17 24 19 67 13 28 -3 54 -13 58 -20z m1154 1 c-4 -8
-11 -15 -17 -15 -6 0 -6 7 2 20 14 22 24 19 15 -5z m348 19 c17 -4 21 -14 23
-50 2 -48 7 -64 22 -64 6 0 7 20 3 46 -5 38 -3 46 8 42 8 -2 15 -21 17 -41 2
-20 7 -37 13 -37 14 0 11 78 -3 83 -7 2 37 6 97 10 62 3 114 1 120 -4 5 -6 4
-9 -4 -9 -16 0 -11 -52 7 -58 8 -2 12 7 12 26 0 31 14 42 54 42 19 0 22 -4 18
-25 -2 -15 0 -25 7 -25 6 0 11 14 11 30 0 17 5 30 10 30 6 0 10 -11 10 -24 0
-14 5 -28 10 -31 6 -4 10 7 10 24 0 35 15 41 23 10 3 -12 10 -18 16 -15 6 4 8
13 4 21 -4 11 3 15 25 15 23 0 31 -5 34 -24 4 -21 0 -25 -35 -30 -21 -4 -58
-19 -81 -35 -38 -26 -64 -39 -139 -70 -15 -6 -61 -11 -101 -11 -97 0 -173 27
-219 76 -33 36 -38 38 -106 42 -61 4 -71 7 -71 23 0 11 5 19 10 19 6 0 10 -7
10 -15 0 -8 5 -15 10 -15 6 0 10 9 10 19 0 17 8 21 53 24 28 2 61 4 72 5 11 1
29 -1 40 -4z m675 -19 c0 -34 28 -32 33 3 3 22 4 20 6 -10 1 -47 19 -50 23 -5
2 17 8 30 13 27 6 -3 9 -14 7 -25 -4 -28 7 -65 19 -65 6 0 9 12 8 28 -7 90 16
92 26 2 4 -33 11 -60 17 -60 6 0 7 22 3 60 -6 51 -5 60 9 60 13 0 16 -12 16
-59 0 -33 5 -63 10 -66 6 -4 10 18 10 59 0 37 4 66 10 66 6 0 10 -30 10 -71
l0 -72 -42 6 c-50 6 -80 18 -126 52 -19 13 -53 27 -78 31 -38 5 -44 10 -44 30
0 30 16 32 23 3 7 -25 27 -16 27 12 0 10 5 19 10 19 6 0 10 -11 10 -25z
m-2655 -15 c31 -16 66 -30 76 -30 10 0 19 -4 19 -9 0 -11 -51 -21 -111 -21
l-49 0 0 45 c0 25 2 45 4 45 2 0 30 -13 61 -30z m635 1 c0 -17 5 -33 10 -36 6
-4 10 8 10 29 0 20 5 36 10 36 6 0 10 -7 10 -15 0 -8 5 -15 10 -15 6 0 10 7
10 15 0 18 36 20 44 3 5 -10 7 -10 12 0 3 6 12 12 20 12 10 0 14 -14 14 -50 0
-40 3 -50 16 -50 13 0 15 7 11 35 -3 19 -1 37 4 40 5 4 9 -5 9 -18 0 -14 7
-30 15 -37 13 -11 15 -6 15 31 1 39 2 42 14 26 15 -20 45 -14 60 12 8 13 11
12 17 -9 l6 -25 11 25 10 25 7 -32 c4 -18 11 -33 16 -33 5 0 10 15 11 33 l1
32 4 -33 c5 -37 27 -39 28 -2 0 13 6 25 13 27 8 3 12 -5 12 -24 0 -26 -6 -31
-70 -56 -101 -39 -184 -57 -272 -57 -108 0 -108 0 -108 76 0 36 4 64 10 64 6
0 10 -13 10 -29z m470 4 c0 -14 -4 -25 -10 -25 -5 0 -10 11 -10 25 0 14 5 25
10 25 6 0 10 -11 10 -25z m54 10 c7 -19 -3 -47 -15 -39 -12 7 -12 54 0 54 5 0
11 -7 15 -15z m76 -20 c0 -19 -4 -35 -9 -35 -27 0 -41 15 -41 41 0 24 4 29 25
29 22 0 25 -4 25 -35z m85 14 c-4 -5 -1 -9 5 -9 6 0 13 7 16 15 14 35 24 10
24 -56 0 -44 -4 -68 -10 -64 -5 3 -10 22 -10 41 0 41 -21 43 -30 3 -5 -20 -7
-16 -12 20 -7 47 -1 74 13 65 5 -3 7 -10 4 -15z m107 -16 c2 -20 8 -38 15 -40
8 -3 10 6 6 31 -5 29 -2 36 11 36 12 0 16 -7 14 -22 -4 -30 15 -36 22 -7 8 33
28 4 32 -49 6 -58 18 -65 18 -9 l0 46 47 3 c39 2 50 7 60 28 12 24 13 23 13
-17 0 -79 -69 -117 -200 -111 l-75 3 -3 73 c-3 66 -1 72 17 72 16 0 20 -8 23
-37z m1138 12 c0 -14 -4 -25 -10 -25 -5 0 -10 11 -10 25 0 14 5 25 10 25 6 0
10 -11 10 -25z m-1293 -42 c-3 -10 -5 -2 -5 17 0 19 2 27 5 18 2 -10 2 -26 0
-35z m472 6 c-17 -10 -31 -7 -36 8 -5 13 40 22 46 9 2 -4 -3 -12 -10 -17z
m-1602 -5 c-3 -3 -12 -4 -19 -1 -8 3 -5 6 6 6 11 1 17 -2 13 -5z m293 -67 c0
-1 -38 -2 -84 -2 -90 0 -105 12 -21 17 40 2 105 -7 105 -15z m803 -38 c37 -18
65 -34 63 -36 -2 -2 -26 3 -53 12 -59 19 -156 11 -291 -24 -49 -13 -105 -21
-135 -19 l-52 3 80 19 c44 10 103 27 130 38 28 11 66 26 85 34 48 19 95 12
173 -27z m-700 -7 c48 -26 60 -42 16 -22 -54 25 -112 60 -89 54 14 -3 46 -18
73 -32z m2097 14 c63 -33 145 -56 203 -56 35 0 47 -4 44 -12 -6 -19 -112 -11
-177 14 -79 29 -168 27 -250 -6 -69 -28 -219 -49 -207 -28 4 5 26 13 50 17 53
9 106 31 132 54 50 45 138 53 205 17z m-2144 -31 c44 -21 108 -46 144 -56 57
-17 59 -18 20 -14 -25 3 -91 21 -147 40 -121 42 -172 44 -273 11 -86 -28 -300
-47 -300 -27 0 7 20 11 52 11 51 0 67 4 178 41 149 50 211 48 326 -6z m1394
25 c21 -11 41 -24 45 -29 11 -19 121 -45 215 -51 l95 -7 -101 -1 c-88 -2 -111
2 -180 27 -116 41 -158 45 -233 21 -88 -28 -268 -47 -312 -33 -30 10 -22 11
63 12 97 1 214 29 278 66 35 20 84 18 130 -5z m-608 -59 c46 -16 108 -32 138
-36 59 -7 261 16 318 36 43 15 138 8 181 -14 19 -9 43 -17 55 -17 12 0 16 -4
11 -9 -6 -6 -48 -6 -105 -2 -86 7 -89 8 -35 11 l60 2 -39 10 c-27 8 -49 7 -77
-1 -99 -30 -483 -40 -498 -14 -14 26 -128 38 -215 23 -43 -7 -84 -19 -91 -27
-9 -8 -39 -13 -91 -13 -85 0 -91 8 -17 21 27 5 89 20 138 33 119 33 166 32
267 -3z m-807 -6 c49 -24 49 -25 18 -25 -17 0 -34 4 -37 9 -12 18 -94 22 -161
6 -73 -16 -146 -20 -110 -5 111 46 215 51 290 15z m904 9 c10 -9 -35 -3 -49 6
-11 8 -7 9 15 4 17 -4 32 -8 34 -10z m1330 -14 c33 -13 75 -20 116 -20 42 0
65 -4 65 -11 0 -18 -134 -4 -204 20 -73 26 -92 26 -156 1 -28 -11 -67 -20 -88
-19 -36 0 -34 1 33 30 81 34 147 34 234 -1z m-1504 -14 l70 -14 -81 -1 c-45 0
-103 -3 -130 -6 l-49 -5 50 19 c60 23 53 23 140 7z m-805 -6 c0 -5 -11 -10
-24 -10 -14 0 -28 5 -31 10 -4 6 7 10 24 10 17 0 31 -4 31 -10z m2265 0 c13
-6 -6 -9 -60 -9 -55 -1 -75 2 -65 9 18 12 98 12 125 0z"/>
<g>
<path d="M1545 4174 l-30 -14 28 5 c34 7 35 -2 1 -15 -22 -9 -24 -13 -14 -25
7 -8 27 -15 45 -15 29 0 32 3 27 22 -3 11 -1 19 4 15 5 -3 18 1 28 9 18 13 18
14 -8 24 -35 13 -44 12 -81 -6z m35 -44 c0 -5 -4 -10 -10 -10 -5 0 -10 5 -10
10 0 6 5 10 10 10 6 0 10 -4 10 -10z"/>
</g>
<g>
<path d="M2510 3865 c0 -3 11 -16 23 -28 22 -20 70 -128 64 -145 -1 -4 3 -8 8
-9 16 -3 7 64 -15 106 -26 52 -80 102 -80 76z"/>
</g>
<g>
<path d="M2510 3773 c0 -5 12 -19 25 -32 20 -18 25 -33 25 -72 0 -27 5 -49 10
-49 18 0 11 93 -10 128 -17 28 -50 45 -50 25z"/>
</g>
<g>
<path d="M2505 3723 c4 -10 12 -30 17 -45 9 -25 28 -39 28 -22 0 27 -26 84
-38 84 -9 0 -12 -6 -7 -17z"/>
</g>
<g>
<path d="M2430 3705 c0 -8 5 -15 10 -15 6 0 10 7 10 15 0 8 -4 15 -10 15 -5 0
-10 -7 -10 -15z"/>
</g>
<g>
<path d="M670 3760 c0 -5 5 -10 10 -10 6 0 10 5 10 10 0 6 -4 10 -10 10 -5 0
-10 -4 -10 -10z"/>
</g>
<g>
<path d="M730 3750 c0 -5 5 -10 10 -10 6 0 10 5 10 10 0 6 -4 10 -10 10 -5 0
-10 -4 -10 -10z"/>
</g>
<g>
<path d="M767 3743 c-12 -11 -8 -23 8 -23 8 0 15 7 15 15 0 16 -12 20 -23 8z"/>
</g>
<g>
<path d="M800 3715 c-7 -9 -10 -18 -7 -22 8 -7 37 15 37 28 0 14 -16 11 -30
-6z"/>
</g>
<g>
<path d="M823 3684 c-22 -16 -22 -19 5 -63 4 -7 52 22 52 32 0 5 -11 7 -25 4
-24 -4 -24 -3 -10 13 28 31 15 40 -22 14z"/>
</g>
<g>
<path d="M1960 3630 c-22 -14 -5 -23 31 -15 23 5 28 10 18 16 -18 11 -30 11
-49 -1z"/>
</g>
<g>
<path d="M640 2804 c0 -11 34 -33 50 -33 10 0 8 6 -9 19 -23 20 -41 26 -41 14z"/>
</g>
<g>
<path d="M642 2758 c2 -6 10 -14 16 -16 7 -2 10 2 6 12 -7 18 -28 22 -22 4z"/>
</g>
<g>
<path d="M660 2660 c0 -5 5 -10 10 -10 6 0 10 5 10 10 0 6 -4 10 -10 10 -5 0
-10 -4 -10 -10z"/>
</g>
<g>
<path d="M1603 3393 c-14 -5 -18 -23 -5 -23 5 0 17 7 28 15 14 11 15 14 4 14
-8 0 -21 -3 -27 -6z"/>
</g>
<g>
<path d="M1640 3360 c0 -5 5 -10 10 -10 6 0 10 5 10 10 0 6 -4 10 -10 10 -5 0
-10 -4 -10 -10z"/>
</g>
<g>
<path d="M1600 3344 c0 -9 33 -33 44 -34 6 0 0 9 -12 20 -22 21 -32 25 -32 14z"/>
</g>
<g>
<path d="M2639 3377 c5 -5 19 -7 32 -5 20 3 19 5 -9 9 -20 3 -29 2 -23 -4z"/>
</g>
<g>
<path d="M2523 3373 c9 -2 25 -2 35 0 9 3 1 5 -18 5 -19 0 -27 -2 -17 -5z"/>
</g>
<g>
<path d="M2050 3239 c0 -5 5 -7 10 -4 6 3 10 8 10 11 0 2 -4 4 -10 4 -5 0 -10
-5 -10 -11z"/>
</g>
<g>
<path d="M2340 3130 c0 -5 5 -10 10 -10 6 0 10 5 10 10 0 6 -4 10 -10 10 -5 0
-10 -4 -10 -10z"/>
</g>
<g>
<path d="M1976 2552 c-2 -4 7 -12 20 -19 19 -9 24 -8 24 2 0 7 -7 16 -16 19
-20 8 -22 8 -28 -2z"/>
</g>
<g>
<path d="M2204 2364 c3 -9 6 -18 6 -20 0 -2 5 -4 10 -4 6 0 10 9 10 20 0 12
-7 20 -16 20 -11 0 -14 -5 -10 -16z"/>
</g>
<g>
<path d="M2162 2348 c2 -13 8 -23 13 -23 6 0 11 10 13 23 2 15 -2 22 -13 22
-11 0 -15 -7 -13 -22z"/>
</g>
<g>
<path d="M2247 2364 c-8 -8 1 -24 14 -24 5 0 9 7 9 15 0 15 -12 20 -23 9z"/>
</g>
<g>
<path d="M2113 2343 c-16 -3 -23 -11 -23 -29 0 -29 -1 -28 39 -8 26 13 30 19
20 30 -6 8 -12 13 -13 13 0 -1 -11 -4 -23 -6z"/>
</g>
<g>
<path d="M2055 2309 c12 -39 27 -48 23 -15 -2 16 -9 31 -17 34 -10 3 -11 -2
-6 -19z"/>
</g>
<g>
<path d="M2016 2312 c-7 -12 5 -52 15 -52 5 0 9 14 9 30 0 28 -13 40 -24 22z"/>
</g>
<g>
<path d="M2238 2303 c-9 -2 -24 -15 -32 -29 -15 -22 -45 -36 -31 -14 3 6 1 10
-4 10 -6 0 -11 -7 -11 -15 0 -12 -27 -64 -89 -170 -28 -49 -65 -145 -81 -215
-13 -54 -19 -64 -34 -62 -15 3 -18 -1 -13 -17 7 -28 -10 -37 -18 -10 -5 15
-10 18 -18 10 -7 -7 -6 -15 3 -26 14 -17 0 -21 -17 -4 -15 15 -33 3 -33 -22 0
-14 7 -19 30 -19 43 0 108 61 115 108 9 54 54 190 75 226 104 182 123 202 197
211 43 5 54 10 51 23 -3 17 -53 26 -90 15z"/>
</g>
<g>
<path d="M1980 2275 c0 -14 5 -25 10 -25 6 0 10 11 10 25 0 14 -4 25 -10 25
-5 0 -10 -11 -10 -25z"/>
</g>
<g>
<path d="M2185 2290 c3 -5 8 -10 11 -10 2 0 4 5 4 10 0 6 -5 10 -11 10 -5 0
-7 -4 -4 -10z"/>
</g>
<g>
<path d="M1893 2279 c-23 -8 -31 -33 -14 -44 6 -3 14 3 20 12 9 16 10 16 11
-4 0 -14 6 -23 16 -23 12 0 15 7 11 27 -5 26 -4 26 9 9 16 -23 28 -16 20 12
-7 21 -35 25 -73 11z"/>
</g>
<g>
<path d="M2120 2245 c0 -8 5 -15 10 -15 6 0 10 7 10 15 0 8 -4 15 -10 15 -5 0
-10 -7 -10 -15z"/>
</g>
<g>
<path d="M1485 2239 c-4 -6 -5 -12 -3 -14 8 -8 108 8 108 16 0 13 -98 11 -105
-2z"/>
</g>
<g>
<path d="M2265 2230 c-3 -5 1 -10 9 -10 9 0 16 5 16 10 0 6 -4 10 -9 10 -6 0
-13 -4 -16 -10z"/>
</g>
<g>
<path d="M2215 2174 c-15 -19 -24 -38 -21 -41 6 -7 66 55 66 68 0 19 -19 8
-45 -27z"/>
</g>
<g>
<path d="M1810 2029 c0 -5 -10 -9 -22 -7 -23 3 -23 2 -19 -107 2 -60 5 -113 8
-118 11 -18 23 8 23 49 0 37 6 51 30 76 17 16 30 36 30 44 0 21 -10 17 -32
-11 -28 -35 -38 -31 -38 15 0 29 4 40 15 40 18 0 19 -12 3 -29 -11 -10 -9 -12
7 -9 24 4 33 68 9 68 -8 0 -14 -5 -14 -11z"/>
</g>
<g>
<path d="M1836 1906 c-30 -40 -32 -46 -12 -46 15 0 56 50 56 69 0 20 -18 11
-44 -23z"/>
</g>
<g>
<path d="M1862 1864 c-12 -15 -21 -29 -18 -31 8 -8 56 29 56 43 0 21 -12 17
-38 -12z"/>
</g>
<g>
<path d="M2355 1770 c-3 -5 1 -10 9 -10 8 0 18 5 21 10 3 6 -1 10 -9 10 -8 0
-18 -4 -21 -10z"/>
</g>
<g>
<path d="M2400 1756 c0 -9 5 -16 10 -16 6 0 10 4 10 9 0 6 -4 13 -10 16 -5 3
-10 -1 -10 -9z"/>
</g>
<g>
<path d="M2340 1726 c0 -11 9 -16 26 -16 31 0 28 23 -4 28 -15 2 -22 -2 -22
-12z"/>
</g>
<g>
<path d="M2400 1700 c0 -5 5 -10 10 -10 6 0 10 5 10 10 0 6 -4 10 -10 10 -5 0
-10 -4 -10 -10z"/>
</g>
<g>
<path d="M2092 1689 c2 -6 8 -10 13 -10 5 0 11 4 13 10 2 6 -4 11 -13 11 -9 0
-15 -5 -13 -11z"/>
</g>
<g>
<path d="M2330 1686 c0 -11 9 -16 26 -16 31 0 28 23 -4 28 -15 2 -22 -2 -22
-12z"/>
</g>
<g>
<path d="M2415 1650 c3 -5 8 -10 11 -10 2 0 4 5 4 10 0 6 -5 10 -11 10 -5 0
-7 -4 -4 -10z"/>
</g>
<g>
<path d="M2080 1640 c0 -5 7 -10 15 -10 8 0 15 5 15 10 0 6 -7 10 -15 10 -8 0
-15 -4 -15 -10z"/>
</g>
<g>
<path d="M1916 1623 c-37 -11 -55 -12 -73 -4 -13 6 -26 11 -28 11 -6 0 0 -44
8 -57 4 -6 -1 -25 -10 -43 -17 -35 -18 -17 29 -375 10 -81 23 -104 73 -135 37
-23 50 -21 50 8 0 20 40 28 60 12 10 -9 20 -7 42 5 l28 16 -34 -5 c-19 -4 -39
-2 -45 3 -6 5 -20 11 -31 14 -16 4 -14 5 7 6 30 1 49 21 21 22 -15 0 -14 2 3
9 24 9 41 30 25 30 -23 0 -62 -21 -56 -30 4 -6 -17 -10 -55 -10 -44 0 -61 3
-58 12 3 8 20 11 44 10 36 -3 42 0 53 25 8 15 20 53 27 83 7 30 17 73 23 95 6
22 11 50 11 63 0 36 -19 25 -25 -15 -13 -75 -31 -118 -50 -118 -10 0 -20 5
-22 11 -2 7 2 11 9 10 7 0 14 4 16 9 1 6 -24 18 -55 29 -64 21 -69 23 -61 32
3 3 31 -2 63 -11 59 -17 76 -15 57 8 -9 10 -8 17 0 25 9 9 9 12 -1 12 -11 0
-11 3 -2 14 14 17 6 23 -76 52 -41 14 -53 23 -53 38 0 13 3 16 8 10 18 -27
128 -57 120 -33 -2 7 -20 18 -39 23 -34 10 -34 10 -6 14 15 2 27 10 27 18 0 8
-11 14 -27 15 -17 1 -21 3 -10 6 24 6 21 22 -5 32 -23 9 -23 9 5 20 16 6 32
11 36 11 10 0 35 29 30 34 -2 2 -26 -3 -53 -11z m-56 -203 c13 -8 13 -10 -2
-10 -9 0 -19 -10 -21 -22 -3 -17 -5 -14 -6 10 -1 34 4 38 29 22z m40 -135 c32
-18 5 -19 -35 0 -23 10 -25 13 -10 14 11 0 31 -6 45 -14z m23 -48 c26 -7 47
-15 47 -20 0 -5 -10 -5 -22 -1 -13 4 -38 11 -57 15 -18 4 -39 13 -45 20 -8 9
-6 10 9 5 11 -4 41 -13 68 -19z m15 -41 c12 -1 22 -2 22 -3 0 -15 -22 -53 -31
-53 -8 0 -9 4 0 13 8 11 5 16 -15 25 -14 7 -31 12 -39 12 -8 0 -15 5 -15 11 0
7 9 9 28 3 15 -4 37 -8 50 -8z m-7 -131 c-1 -15 -24 -12 -29 3 -3 9 2 13 12
10 10 -1 17 -7 17 -13z"/>
</g>
<g>
<path d="M1314 1606 c-6 -16 -1 -57 9 -73 4 -6 3 -14 -3 -18 -16 -10 -1 -25
26 -25 28 0 31 14 7 30 -17 11 -17 11 -1 6 24 -7 32 11 11 23 -17 10 -17 10 0
11 9 0 17 5 17 10 0 6 -8 10 -17 10 -17 1 -17 1 0 14 9 7 17 16 17 20 0 12
-61 6 -66 -8z"/>
</g>
<g>
<path d="M2036 1538 c-3 -18 -8 -50 -11 -72 -5 -29 -3 -37 7 -34 15 5 25 44
27 101 1 45 -16 49 -23 5z"/>
</g>
<g>
<path d="M1318 1475 c-3 -3 -3 -17 0 -30 3 -17 11 -25 24 -25 17 0 18 3 9 14
-10 11 -8 17 6 25 10 6 13 11 6 11 -6 0 -18 2 -25 5 -8 3 -17 3 -20 0z"/>
</g>
<g>
<path d="M1236 1413 c-11 -11 -6 -23 9 -23 8 0 15 4 15 9 0 13 -16 22 -24 14z"/>
</g>
<g>
<path d="M1320 1390 c0 -5 4 -10 9 -10 6 0 13 5 16 10 3 6 -1 10 -9 10 -9 0
-16 -4 -16 -10z"/>
</g>
<g>
<path d="M2481 1344 c0 -11 3 -14 6 -6 3 7 2 16 -1 19 -3 4 -6 -2 -5 -13z"/>
</g>
<g>
<path d="M2256 1343 c-11 -11 -6 -23 9 -23 8 0 15 4 15 9 0 13 -16 22 -24 14z"/>
</g>
<g>
<path d="M1322 1321 c4 -13 18 -16 19 -4 0 4 -5 9 -11 12 -7 2 -11 -2 -8 -8z"/>
</g>
<g>
<path d="M1235 1300 c-39 -16 -55 -47 -55 -105 0 -47 -3 -55 -19 -55 -28 0
-71 -39 -71 -63 1 -21 2 -21 23 6 22 26 57 37 57 17 0 -5 -5 -10 -11 -10 -6 0
-9 -6 -6 -14 3 -8 1 -17 -6 -19 -8 -3 -7 -10 5 -22 14 -15 20 -16 32 -5 9 7
16 10 16 6 0 -3 8 2 18 12 10 10 19 33 19 50 0 34 -6 39 -23 22 -8 -8 -11 6
-13 46 -3 85 2 93 49 87 43 -6 50 2 23 23 -17 13 -17 13 0 14 9 0 17 5 17 10
0 12 -27 12 -55 0z m-25 -220 c0 -5 -2 -10 -4 -10 -3 0 -8 5 -11 10 -3 6 -1
10 4 10 6 0 11 -4 11 -10z"/>
</g>
<g>
<path d="M2240 1282 c0 -4 5 -13 12 -20 9 -9 9 -12 0 -12 -15 0 -16 -42 -1
-57 12 -12 49 -6 49 8 0 5 -9 9 -21 9 -21 0 -21 0 1 18 l23 19 -21 21 c-22 22
-42 29 -42 14z"/>
</g>
<g>
<path d="M2320 1261 c0 -10 30 -24 37 -17 3 3 2 9 -2 15 -8 13 -35 15 -35 2z"/>
</g>
<g>
<path d="M2036 1243 c-11 -11 -6 -23 9 -23 8 0 15 4 15 9 0 13 -16 22 -24 14z"/>
</g>
<g>
<path d="M1227 1233 c-13 -12 -7 -23 12 -23 26 0 35 16 15 24 -19 7 -19 7 -27
-1z"/>
</g>
<g>
<path d="M1320 1210 c0 -5 7 -10 15 -10 8 0 15 5 15 10 0 6 -7 10 -15 10 -8 0
-15 -4 -15 -10z"/>
</g>
<g>
<path d="M2013 1193 c-22 -8 -14 -25 10 -18 17 4 16 2 -6 -10 -36 -20 -28 -32
11 -16 17 7 28 19 28 31 0 19 -17 24 -43 13z"/>
</g>
<g>
<path d="M1220 1176 c0 -9 7 -16 16 -16 17 0 14 22 -4 28 -7 2 -12 -3 -12 -12z"/>
</g>
<g>
<path d="M2245 1160 c3 -5 22 -10 41 -10 19 0 34 5 34 10 0 6 -18 10 -41 10
-24 0 -38 -4 -34 -10z"/>
</g>
<g>
<path d="M1311 1132 c10 -16 10 -24 -4 -45 -12 -18 -13 -27 -4 -36 16 -16 30
-14 24 4 -4 8 -2 17 3 20 4 3 8 20 7 37 -2 23 -8 34 -20 36 -16 3 -17 1 -6
-16z"/>
</g>
<g>
<path d="M1705 1123 c-39 -9 -40 -23 -1 -23 20 0 46 -5 58 -11 27 -15 35 -3
13 21 -18 20 -31 22 -70 13z"/>
</g>
<g>
<path d="M2167 1046 c-31 -7 -63 -18 -69 -24 -7 -7 -31 -12 -55 -12 -24 0 -43
-4 -43 -10 0 -16 96 -12 109 4 7 8 31 17 54 21 60 9 77 15 77 26 0 11 1 11
-73 -5z"/>
</g>
<g>
<path d="M1720 1040 c0 -5 9 -10 20 -10 11 0 20 -6 20 -14 0 -8 9 -18 21 -21
12 -4 37 -18 56 -31 26 -17 50 -24 84 -24 27 0 49 5 49 10 0 6 -18 10 -39 10
-30 0 -55 11 -107 45 -64 43 -104 57 -104 35z"/>
</g>
<g>
<path d="M1450 1025 c-7 -8 -19 -15 -26 -15 -8 0 -14 -4 -14 -10 0 -5 6 -10
13 -10 17 0 57 29 57 41 0 14 -16 11 -30 -6z"/>
</g>
<g>
<path d="M1025 3069 c29 -11 85 -11 85 1 0 5 -24 9 -52 8 -37 0 -47 -3 -33 -9z"/>
</g>
<g>
<path d="M1105 3052 c-49 -6 -54 -22 -8 -22 23 0 44 4 48 9 8 13 -5 17 -40 13z"/>
</g>
<g>
<path d="M1085 3000 c-4 -6 7 -10 24 -10 17 0 31 5 31 10 0 6 -11 10 -24 10
-14 0 -28 -4 -31 -10z"/>
</g>
<g>
<path d="M1118 2974 c-8 -7 3 -44 13 -44 4 0 10 3 13 8 5 9 -19 44 -26 36z"/>
</g>
<g>
<path d="M1184 2864 c3 -9 6 -21 6 -27 0 -8 3 -8 11 0 13 13 5 43 -12 43 -6 0
-8 -7 -5 -16z"/>
</g>
<g>
<path d="M1520 3082 c0 -22 5 -32 16 -32 11 0 14 6 9 23 -12 38 -25 43 -25 9z"/>
</g>
<g>
<path d="M1500 2641 c0 -11 39 -26 47 -17 8 8 3 12 -24 20 -13 4 -23 3 -23 -3z"/>
</g>
<g>
<path d="M1500 2601 c0 -9 52 -22 59 -15 6 6 -1 11 -31 18 -16 3 -28 2 -28 -3z"/>
</g>
<g>
<path d="M1681 2414 c-18 -13 -25 -14 -31 -4 -6 9 -12 9 -29 1 -11 -7 -21 -16
-21 -21 0 -4 -3 -15 -6 -24 -4 -9 -1 -16 6 -16 6 0 14 9 17 20 4 15 11 19 25
14 10 -3 26 0 34 7 12 10 17 10 23 0 6 -9 11 -8 20 3 12 15 8 36 -7 36 -4 0
-18 -7 -31 -16z"/>
</g>
<g>
<path d="M1736 2401 c-11 -12 -16 -24 -12 -28 9 -9 39 22 34 37 -2 7 -10 4
-22 -9z"/>
</g>
<g>
<path d="M1645 2360 c-3 -5 1 -10 9 -10 9 0 16 5 16 10 0 6 -4 10 -9 10 -6 0
-13 -4 -16 -10z"/>
</g>
<g>
<path d="M665 2300 c3 -5 10 -10 16 -10 5 0 9 5 9 10 0 6 -7 10 -16 10 -8 0
-12 -4 -9 -10z"/>
</g>
<g>
<path d="M680 1810 c0 -5 7 -10 15 -10 8 0 15 5 15 10 0 6 -7 10 -15 10 -8 0
-15 -4 -15 -10z"/>
</g>
<g>
<path d="M833 1150 c-19 -8 -33 -30 -19 -30 15 0 66 24 66 31 0 11 -18 11 -47
-1z"/>
</g>
<g>
<path d="M1080 2500 c0 -5 5 -10 10 -10 6 0 10 5 10 10 0 6 -4 10 -10 10 -5 0
-10 -4 -10 -10z"/>
</g>
<g>
<path d="M1070 2460 c0 -5 5 -10 11 -10 5 0 7 5 4 10 -3 6 -8 10 -11 10 -2 0
-4 -4 -4 -10z"/>
</g>
<g>
<path d="M515 1540 c-4 -6 10 -10 35 -10 25 0 39 4 35 10 -3 6 -19 10 -35 10
-16 0 -32 -4 -35 -10z"/>
</g>
<g>
<path d="M510 1500 c0 -5 18 -10 40 -10 22 0 40 5 40 10 0 6 -18 10 -40 10
-22 0 -40 -4 -40 -10z"/>
</g>
<g>
<path d="M520 1420 c0 -5 18 -10 41 -10 24 0 38 4 34 10 -3 6 -22 10 -41 10
-19 0 -34 -4 -34 -10z"/>
</g>
<g>
<path d="M525 1380 c-4 -6 8 -10 30 -10 22 0 34 4 30 10 -3 6 -17 10 -30 10
-13 0 -27 -4 -30 -10z"/>
</g>
<g>
<path d="M2500 2013 c0 -8 12 -13 30 -13 17 0 30 4 30 9 0 5 -13 11 -30 13
-20 3 -30 0 -30 -9z"/>
</g>
<g>
<path d="M2795 1890 c-3 -5 -1 -10 4 -10 6 0 11 5 11 10 0 6 -2 10 -4 10 -3 0
-8 -4 -11 -10z"/>
</g>
<g>
<path d="M214 1809 c-8 -14 11 -33 25 -25 6 4 11 11 11 16 0 13 -29 20 -36 9z"/>
</g>
<g>
<path d="M70 1790 c0 -6 7 -10 15 -10 8 0 15 2 15 4 0 2 -7 6 -15 10 -8 3 -15
1 -15 -4z"/>
</g>
<g>
<path d="M2508 1823 c6 -2 18 -2 25 0 6 3 1 5 -13 5 -14 0 -19 -2 -12 -5z"/>
</g>
<g>
<path d="M2490 1716 c0 -9 7 -12 20 -9 11 3 17 9 14 14 -8 14 -34 10 -34 -5z"/>
</g>
<g>
<path d="M2520 1490 c0 -5 5 -10 10 -10 6 0 10 5 10 10 0 6 -4 10 -10 10 -5 0
-10 -4 -10 -10z"/>
</g>
<g>
<path d="M1015 1491 c-3 -5 -1 -12 5 -16 13 -8 50 3 50 16 0 12 -47 12 -55 0z"/>
</g>
<g>
<path d="M1070 1380 c0 -5 4 -10 9 -10 6 0 13 5 16 10 3 6 -1 10 -9 10 -9 0
-16 -4 -16 -10z"/>
</g>
<g>
<path d="M433 756 c-13 -15 -7 -26 13 -26 8 0 11 6 8 14 -4 11 4 16 33 19 l38
4 -40 1 c-23 1 -45 -5 -52 -12z"/>
</g>
<g>
<path d="M2047 664 c-10 -11 3 -24 24 -24 10 0 19 7 19 15 0 15 -31 21 -43 9z"/>
</g>
<g>
<path d="M2348 665 c-9 -14 -13 -93 -5 -101 3 -4 9 0 12 8 8 21 2 106 -7 93z"/>
</g>
<g>
<path d="M2290 616 c0 -20 5 -36 10 -36 6 0 10 13 10 29 0 17 -4 33 -10 36 -6
4 -10 -8 -10 -29z"/>
</g>
<g>
<path d="M2260 590 c0 -5 5 -10 10 -10 6 0 10 5 10 10 0 6 -4 10 -10 10 -5 0
-10 -4 -10 -10z"/>
</g>
<g>
<path d="M1677 614 c-10 -10 -9 -42 2 -49 14 -8 19 6 12 33 -3 13 -9 20 -14
16z"/>
</g>
</g>
<g>
<path d="M2530 2510 c-34 -7 -34 -7 13 -9 30 0 46 3 42 9 -3 6 -9 9 -13 9 -4
-1 -23 -5 -42 -9z"/>
</g>
<g>
<path d="M2525 2483 c-37 -9 -43 -26 -6 -19 18 3 46 6 62 6 16 0 29 5 29 10 0
10 -48 12 -85 3z"/>
</g>
<g>
<path d="M2447 2374 c-8 -14 8 -37 22 -33 8 3 8 10 -2 23 -8 11 -17 15 -20 10z"/>
</g>
<g>
<path d="M2610 2238 c-26 -60 -36 -103 -21 -94 6 4 11 15 11 24 1 9 9 33 19
52 l19 35 15 -36 c8 -20 18 -45 21 -57 9 -28 30 -29 23 -1 -7 28 13 71 30 65
7 -3 13 1 13 9 0 23 -26 18 -43 -7 l-15 -23 -16 38 c-9 20 -21 37 -27 37 -5 0
-19 -19 -29 -42z"/>
</g>
<g>
<path d="M2523 2230 c-20 -31 -15 -48 6 -21 11 15 23 21 31 16 8 -5 11 -3 8 6
-7 22 -32 21 -45 -1z"/>
</g>
<g>
<path d="M2537 2194 c-4 -4 -7 -14 -7 -23 0 -13 2 -13 9 -3 4 8 11 13 15 13 3
-1 6 2 7 6 1 10 -16 15 -24 7z"/>
</g>
<g>
<path d="M2624 2185 c-4 -11 -9 -23 -11 -27 -1 -3 6 -4 17 -1 22 6 24 11 10
33 -7 12 -10 11 -16 -5z"/>
</g>
<g>
<path d="M2720 2185 c-11 -13 -10 -14 4 -9 9 3 16 10 16 15 0 13 -6 11 -20 -6z"/>
</g>
<g>
<path d="M2985 2100 c3 -5 8 -10 11 -10 2 0 4 5 4 10 0 6 -5 10 -11 10 -5 0
-7 -4 -4 -10z"/>
</g>
<g>
<path d="M2980 1371 c0 -6 5 -13 10 -16 6 -3 10 1 10 9 0 9 -4 16 -10 16 -5 0
-10 -4 -10 -9z"/>
</g>
<g>
<path d="M2832 1211 c-110 -32 -89 -44 24 -14 51 14 72 15 104 6 47 -12 54 0
9 16 -42 14 -61 13 -137 -8z"/>
</g>
<g>
<path d="M20 155 c0 -97 4 -155 10 -155 6 0 10 58 10 155 0 97 -4 155 -10 155
-6 0 -10 -58 -10 -155z"/>
</g>
<g>
<path d="M264 190 l1 -100 28 0 c25 0 27 3 27 45 0 25 4 45 8 45 16 0 74 -68
68 -79 -5 -7 8 -11 38 -11 l45 0 -54 55 c-30 30 -55 58 -55 63 0 12 68 62 84
62 9 0 16 5 16 10 0 6 -11 10 -25 10 -17 0 -39 -14 -64 -40 -45 -48 -61 -50
-61 -10 0 17 5 30 10 30 6 0 10 5 10 10 0 6 -17 10 -38 10 l-39 0 1 -100z"/>
</g>
<g>
<path d="M520 281 c0 -6 4 -12 9 -16 5 -3 10 -40 10 -82 0 -78 9 -100 34 -90
11 4 15 27 16 95 2 85 1 90 -21 96 -33 8 -48 7 -48 -3z"/>
</g>
<g>
<path d="M645 278 c-2 -7 -6 -52 -7 -101 l-3 -87 30 0 30 0 -3 57 -3 58 46
-52 c36 -41 53 -53 76 -53 l29 0 0 80 c0 47 4 80 10 80 6 0 10 5 10 10 0 6
-18 10 -40 10 -22 0 -40 -4 -40 -10 0 -5 7 -10 15 -10 12 0 15 -13 15 -61 0
-54 -2 -60 -15 -49 -9 7 -30 37 -47 66 -37 62 -92 95 -103 62z"/>
</g>
<g>
<path d="M955 279 c-50 -15 -67 -35 -72 -81 -7 -57 25 -93 90 -103 69 -11 87
-1 87 46 l0 39 -45 0 c-46 0 -63 -16 -23 -22 13 -2 24 -11 26 -20 3 -14 -3
-18 -25 -18 -40 0 -53 17 -53 70 0 57 12 70 68 70 30 0 42 4 40 13 -6 15 -53
19 -93 6z"/>
</g>
<g>
<path d="M2119 270 c0 -3 0 -42 1 -87 1 -53 -3 -83 -9 -83 -6 0 -11 -5 -11
-11 0 -6 14 -9 32 -7 32 3 33 4 30 45 -3 41 -3 42 35 49 63 12 95 66 53 92
-19 12 -129 14 -131 2z m89 -36 c3 -23 -21 -49 -38 -39 -5 3 -10 20 -10 36 0
26 3 30 23 27 13 -2 23 -11 25 -24z"/>
</g>
<g>
<path d="M1690 263 c-62 -25 -81 -103 -35 -148 19 -20 34 -25 74 -25 54 0 80
16 29 18 -72 2 -104 52 -73 111 12 24 22 31 46 31 28 0 31 -2 25 -25 -4 -14
-3 -25 2 -25 13 0 56 49 49 56 -9 9 -99 15 -117 7z"/>
</g>
<g>
<path d="M1866 252 c16 -13 21 -30 22 -71 3 -79 18 -92 104 -89 46 2 68 7 68
16 0 6 -5 12 -11 12 -7 0 -9 26 -7 75 l3 75 -29 0 c-23 0 -26 -3 -17 -14 7 -9
11 -40 9 -78 -3 -61 -4 -63 -31 -66 -46 -5 -57 12 -57 89 l0 69 -37 0 c-37 0
-38 -1 -17 -18z"/>
</g>
<g>
<path d="M2314 256 c-14 -38 0 -61 45 -72 49 -11 68 -31 57 -59 -5 -15 -13
-16 -49 -11 -72 12 -82 12 -82 -4 0 -18 85 -26 137 -12 28 7 33 13 36 41 5 45
-12 61 -63 61 -35 0 -44 4 -48 22 -11 40 21 52 55 21 13 -12 22 -13 29 -6 20
20 -2 33 -57 33 -38 0 -56 -4 -60 -14z"/>
</g>
<g>
<path d="M1306 244 c-22 -21 -20 -32 14 -83 34 -51 40 -104 13 -120 -10 -5
-14 -13 -10 -17 4 -4 18 2 30 14 17 17 22 34 22 72 0 33 4 50 13 50 15 0 15 6
2 31 -13 24 -30 25 -30 2 -1 -15 -4 -14 -20 6 -25 29 -28 60 -5 41 17 -14 31
-8 20 9 -9 16 -31 13 -49 -5z"/>
</g>
<g>
<path d="M1220 150 c-15 -36 -1 -60 36 -60 24 0 54 24 54 43 -1 23 -28 47 -52
47 -19 0 -29 -8 -38 -30z m58 -14 c3 -13 -1 -17 -14 -14 -11 2 -20 11 -22 22
-3 13 1 17 14 14 11 -2 20 -11 22 -22z"/>
</g>
<g>
<path d="M2560 120 c-11 -6 -12 -12 -4 -20 13 -13 46 -2 41 13 -5 15 -20 18
-37 7z"/>
</g>
</g>
</svg>
