<?xml version="1.0" standalone="no"?>
<!DOCTYPE svg PUBLIC "-//W3C//DTD SVG 20010904//EN"
 "http://www.w3.org/TR/2001/REC-SVG-20010904/DTD/svg10.dtd">
<svg version="1.0" xmlns="http://www.w3.org/2000/svg"
 width="300.000000pt" height="526.000000pt" viewBox="0 0 300.000000 526.000000"
 preserveAspectRatio="xMidYMid meet">
<metadata>
Created by potrace 1.15, written by Peter Selinger 2001-2017
</metadata>
<g transform="translate(0.000000,526.000000) scale(0.100000,-0.100000)"
fill="#000000" stroke="none">
<g>
<path d="M23 5248 c-10 -16 -20 -787 -13 -983 3 -77 2 -180 -1 -230 -4 -49 -8
-975 -8 -2056 l-2 -1966 143 -6 c79 -3 754 -6 1500 -7 l1358 -2 0 2608 c0
1434 -2 2605 -5 2602 -3 -3 -6 -368 -6 -811 -1 -888 4 -821 -60 -774 -30 21
-53 18 -93 -14 -16 -13 -26 -30 -26 -47 0 -38 -10 -48 -51 -56 -21 -4 -49 -16
-63 -27 -31 -24 -50 -87 -37 -121 8 -22 7 -24 -25 -24 -27 0 -34 4 -34 19 0
44 -34 83 -81 92 l-34 6 -1 104 c-2 91 -5 108 -28 151 -39 72 -57 89 -122 124
-51 28 -65 31 -110 26 l-51 -6 -1 486 c-1 268 -5 490 -7 494 -7 11 -7 401 -1
408 3 3 191 7 418 9 226 2 414 6 417 8 2 3 -664 5 -1482 5 -1178 0 -1487 -3
-1494 -12z m826 -14 c8 -8 3 -373 -7 -474 -7 -67 -10 -79 -16 -55 -52 221 -91
342 -116 369 -34 34 -54 30 -73 -15 -14 -34 -12 -52 16 -214 8 -49 23 -139 32
-200 9 -60 23 -146 31 -190 8 -44 25 -154 39 -245 13 -91 33 -222 44 -291 21
-131 17 -183 -14 -219 -20 -23 -35 -66 -51 -155 -9 -44 -24 -111 -35 -150 -11
-38 -31 -112 -45 -164 -14 -52 -34 -113 -44 -135 -62 -138 -104 -255 -120
-330 -6 -32 -23 -80 -37 -107 -13 -28 -34 -88 -46 -135 -23 -96 -17 -137 21
-142 24 -4 31 -39 11 -59 -6 -6 -12 -47 -13 -91 -1 -75 1 -82 27 -106 23 -21
27 -33 27 -76 0 -28 4 -59 9 -68 5 -9 12 -55 15 -102 l7 -85 -25 59 c-29 68
-92 137 -151 166 -44 22 -175 29 -175 10 0 -5 -11 -10 -25 -10 -14 0 -43 -9
-65 -20 -22 -11 -42 -20 -45 -20 -3 0 -3 291 0 648 3 356 7 1086 10 1621 3
536 8 978 13 983 14 14 788 16 801 2z m64 -1 c-7 -2 -19 -2 -25 0 -7 3 -2 5
12 5 14 0 19 -2 13 -5z m187 -7 c0 -12 29 -15 158 -18 164 -3 195 -1 187 12
-3 5 -1 11 5 15 5 3 10 0 10 -7 0 -10 40 -13 188 -14 146 -2 195 -5 222 -18
24 -10 29 -15 15 -16 -14 0 -16 -3 -8 -11 14 -14 49 -7 46 9 -2 7 5 12 15 12
11 0 18 -7 18 -20 0 -18 -7 -20 -55 -20 -35 0 -52 -3 -45 -10 10 -10 247 -16
263 -5 7 3 11 -2 11 -13 0 -11 -6 -20 -12 -19 -7 0 -57 -1 -110 -1 l-97 -2 19
-42 c27 -59 26 -141 -1 -185 -28 -45 -85 -73 -149 -73 -59 0 -66 -14 -12 -26
29 -6 32 -9 15 -12 -13 -2 -23 -7 -23 -12 0 -5 10 -10 23 -12 14 -2 23 -11 25
-26 2 -13 10 -26 18 -29 21 -8 7 -22 -16 -16 -11 3 -27 0 -35 -7 -16 -13 -5
-41 30 -72 19 -17 19 -19 3 -32 -24 -18 -23 -32 4 -50 17 -12 19 -19 11 -27
-9 -9 -9 -18 -2 -31 6 -11 8 -26 5 -34 -3 -8 -1 -14 4 -14 6 0 10 7 10 16 0 9
7 14 18 12 11 -2 20 2 21 7 1 6 -7 11 -19 13 -29 5 -25 25 10 45 34 21 37 37
13 73 -16 25 -16 27 20 60 19 19 43 34 51 34 9 0 16 5 16 10 0 6 7 10 16 10
10 0 14 -6 11 -14 -4 -11 5 -13 43 -11 l49 2 6 -38 c4 -21 11 -41 16 -45 5 -3
9 -16 9 -29 0 -12 8 -26 18 -30 15 -6 15 -8 -7 -26 -14 -11 -34 -39 -45 -62
-19 -38 -28 -44 -86 -64 -47 -16 -60 -23 -47 -28 10 -4 39 2 68 14 36 15 56
18 68 11 13 -8 11 -9 -12 -10 -17 0 -26 -4 -22 -10 4 -7 24 -8 51 -4 30 4 44
3 44 -5 0 -7 -20 -11 -50 -11 -47 0 -50 -2 -50 -25 0 -14 -7 -37 -16 -50 -22
-33 -84 -35 -114 -3 -23 25 -36 19 -20 -11 10 -19 8 -21 -22 -22 -31 0 -31 -1
-10 -10 14 -5 30 -5 40 0 9 5 26 5 40 0 14 -5 40 -8 58 -7 18 1 36 -1 40 -5 4
-4 -5 -7 -20 -7 -17 0 -25 -4 -20 -11 3 -6 16 -8 27 -5 30 8 73 -4 55 -15 -9
-6 -3 -9 19 -9 55 0 49 32 -7 43 -16 3 -10 5 18 6 l43 1 -3 -42 c-2 -23 -9
-43 -16 -46 -6 -2 -12 2 -12 10 0 7 -11 14 -25 14 -27 2 -34 -13 -11 -22 19
-7 29 -65 17 -97 -13 -33 -50 -67 -73 -67 -10 0 -18 -4 -18 -10 0 -5 10 -10
23 -10 18 0 19 -2 7 -10 -8 -5 -15 -15 -15 -22 0 -7 -8 -14 -18 -16 -10 -2
-17 0 -16 5 1 4 1 19 0 32 -1 27 -11 23 -15 -5 -3 -19 -26 -33 -26 -15 0 6 -4
11 -10 11 -5 0 -10 -7 -10 -15 0 -14 12 -20 33 -16 16 3 38 -29 33 -47 -4 -10
0 -27 8 -37 13 -18 14 -18 31 -1 24 24 46 17 59 -19 8 -22 16 -30 30 -27 15 3
17 0 12 -14 -4 -10 -1 -21 6 -25 15 -9 20 -116 6 -125 -5 -3 -18 6 -29 20 -11
14 -29 26 -40 26 -11 0 -22 6 -25 14 -8 21 -43 27 -53 9 -7 -12 -14 -7 -34 28
-29 48 -26 70 7 41 23 -22 66 -38 66 -25 0 4 -15 15 -32 23 -34 16 -48 48 -49
110 -1 32 -2 33 -15 15 -16 -22 -18 -33 -14 -95 2 -33 12 -59 39 -97 35 -51
51 -64 51 -43 0 6 -4 10 -10 10 -5 0 -10 5 -10 10 0 6 9 10 20 10 12 0 17 -5
14 -13 -3 -10 4 -14 26 -14 32 0 50 -11 53 -34 2 -8 6 -19 9 -25 5 -7 -1 -9
-18 -6 -19 3 -32 -2 -50 -22 -27 -29 -39 -32 -50 -14 -5 8 -2 9 9 5 14 -5 17
0 17 23 0 16 -4 32 -10 35 -5 3 -10 -3 -10 -14 0 -12 -4 -21 -9 -21 -11 0 -71
116 -71 136 0 7 -9 18 -20 24 -11 6 -23 22 -26 35 -3 14 -20 36 -36 50 -25 21
-29 30 -23 53 13 54 17 93 9 91 -5 -1 -16 0 -24 3 -8 4 -35 13 -60 21 -72 24
-119 43 -126 50 -10 10 26 9 63 -2 35 -10 47 -3 34 18 -5 7 -17 11 -27 7 -11
-3 -26 -1 -34 4 -13 9 -13 10 0 11 8 1 21 0 29 -1 8 -1 12 4 8 14 -6 16 9 25
33 19 22 -6 46 -46 31 -51 -17 -6 -13 -32 6 -32 9 0 27 10 40 22 l23 22 -2
-24 c-4 -30 26 -39 41 -12 7 13 6 26 -5 47 -18 35 -15 38 18 21 15 -8 29 -11
32 -8 4 3 4 -8 0 -24 -4 -22 0 -36 20 -59 14 -16 28 -26 32 -22 4 4 0 15 -9
25 -10 10 -17 25 -17 33 1 18 21 44 40 52 11 4 10 7 -7 12 -13 4 -20 11 -17
17 3 5 14 6 25 3 10 -4 19 -2 19 4 0 5 -10 12 -22 14 -13 2 -8 3 10 1 27 -2
33 0 28 12 -4 12 -1 14 14 9 11 -4 20 -2 20 4 0 6 0 14 0 17 0 4 -35 6 -78 6
-69 -2 -169 12 -132 18 8 2 -1 6 -20 10 -30 6 -32 8 -15 15 27 11 36 26 29 47
-4 13 -1 16 10 12 18 -7 20 4 7 25 -10 16 -18 12 -72 -36 -22 -20 -32 -23 -67
-17 -34 5 -46 14 -63 41 -21 33 -21 37 -6 63 26 43 21 76 -13 102 -17 12 -37
23 -46 24 -16 3 -64 50 -64 64 0 4 -6 11 -12 13 -8 3 -6 6 5 6 9 1 17 8 17 16
0 8 5 15 10 15 6 0 10 5 10 10 0 6 -9 10 -20 10 -13 0 -18 5 -13 15 3 9 13 15
22 14 21 -3 51 11 51 22 0 5 -9 9 -20 9 -11 0 -20 7 -20 15 0 16 55 22 64 6 3
-5 20 -11 36 -13 23 -3 30 -1 26 9 -7 16 6 17 22 1 9 -9 12 -9 12 0 0 6 -9 16
-19 22 -25 13 -171 13 -171 0 0 -5 -4 -10 -10 -10 -5 0 -10 7 -10 15 0 12 18
15 98 15 63 0 102 -4 110 -12 7 -7 12 -8 13 -2 0 5 2 20 4 34 1 14 -3 32 -10
40 -7 8 -15 39 -18 68 l-6 53 35 -3 c22 -2 38 3 44 12 5 8 12 11 16 8 10 -10
46 11 39 23 -4 5 1 9 9 9 9 0 16 5 16 10 0 6 -18 10 -41 10 -26 0 -38 4 -34
11 4 6 22 9 40 7 19 -1 37 0 40 4 15 15 -9 80 -43 113 l-36 35 -116 0 c-80 0
-120 4 -129 13 -8 8 -42 11 -110 9 -54 -1 -109 2 -122 7 -22 9 -22 10 11 11
98 4 215 -2 221 -11 10 -16 175 -17 171 -1 -1 6 2 12 8 12 5 0 10 -4 10 -10 0
-5 9 -10 19 -10 11 0 23 5 26 10 3 6 21 10 40 10 66 0 43 17 -32 24 -114 9
-223 7 -223 -4 0 -5 19 -11 43 -11 23 -1 56 -5 72 -10 20 -6 4 -7 -49 -4 -44
3 -83 10 -86 15 -6 9 -581 16 -634 8 -10 -2 -21 3 -23 10 -4 9 20 12 98 12
116 0 124 10 16 20 l-72 7 88 2 c69 1 87 -2 87 -13z m913 -2 c31 -6 37 -11 37
-30 0 -19 5 -24 25 -24 14 0 25 -4 25 -10 0 -5 -11 -11 -25 -11 -14 -1 -31 -2
-37 -3 -13 -1 -14 3 -17 44 -1 16 -8 20 -36 20 -19 0 -35 5 -35 10 0 12 11 12
63 4z m-811 -52 c45 -2 56 -5 52 -16 -4 -11 5 -16 38 -18 35 -2 42 -6 40 -21
-2 -10 2 -17 10 -16 29 4 42 -1 32 -11 -12 -12 -57 1 -69 19 -3 6 -21 11 -40
11 -79 0 -173 -76 -120 -96 14 -6 13 -8 -2 -20 -17 -13 -17 -13 1 -14 15 0 16
-3 6 -14 -10 -13 -2 -16 52 -22 l63 -8 -45 -7 c-25 -3 -51 -4 -57 -2 -7 3 -13
-2 -13 -11 0 -9 7 -16 15 -16 8 0 15 -4 15 -10 0 -5 6 -10 14 -10 8 0 16 -4
18 -9 5 -15 53 -18 51 -3 -3 13 25 16 51 6 20 -8 21 -24 2 -24 -8 0 -16 -10
-18 -22 -4 -29 -62 -40 -133 -26 -68 14 -91 31 -116 84 -21 44 -23 101 -4 147
6 15 -1 17 -81 19 l-89 2 88 3 c70 3 88 7 84 17 -4 9 3 16 16 20 22 5 22 5 2
20 -19 14 -17 15 28 16 28 0 47 4 47 12 0 8 -29 9 -106 5 -111 -6 -134 0 -42
12 51 6 90 7 210 3z m-292 -12 c0 -5 -4 -10 -10 -10 -5 0 -10 5 -10 10 0 6 5
10 10 10 6 0 10 -4 10 -10z m130 -30 c0 -5 -9 -10 -21 -10 -11 0 -17 5 -14 10
3 6 13 10 21 10 8 0 14 -4 14 -10z m-89 -38 c-30 -2 -58 0 -62 5 -4 4 20 6 54
3 l62 -5 -54 -3z m492 11 c-7 -2 -21 -2 -30 0 -10 3 -4 5 12 5 17 0 24 -2 18
-5z m81 -8 c-7 -17 -20 -20 -29 -6 -3 5 3 12 12 14 10 3 19 5 20 6 1 0 0 -6
-3 -14z m76 8 c-8 -3 -21 -10 -27 -16 -9 -7 -13 -5 -13 7 0 11 8 16 28 15 15
0 21 -3 12 -6z m75 -23 c-28 -12 -47 -12 -40 0 3 6 18 10 33 9 24 0 25 -1 7
-9z m451 -7 c-11 -11 -143 -16 -163 -7 -12 6 13 10 72 14 94 5 103 5 91 -7z
m-848 0 c-10 -2 -28 -2 -40 0 -13 2 -5 4 17 4 22 1 32 -1 23 -4z m485 0 c-7
-2 -21 -2 -30 0 -10 3 -4 5 12 5 17 0 24 -2 18 -5z m-1064 -178 c12 -60 28
-137 35 -170 18 -78 38 -187 77 -405 16 -91 44 -255 105 -630 9 -52 21 -113
26 -135 6 -22 14 -65 19 -95 4 -30 15 -100 24 -155 8 -55 18 -112 21 -127 5
-24 2 -28 -18 -28 -19 0 -26 9 -41 58 -9 31 -17 68 -17 81 0 28 -10 91 -55
341 -47 258 -79 446 -111 650 -48 313 -52 345 -42 357 5 7 4 13 -3 15 -7 2
-24 71 -40 158 -29 161 -34 215 -22 247 6 14 9 11 14 -17 4 -19 16 -84 28
-145z m828 153 c-3 -8 -6 -5 -6 6 -1 11 2 17 5 13 3 -3 4 -12 1 -19z m-807
-48 c0 -15 4 -30 9 -35 12 -13 53 -177 85 -340 31 -153 52 -256 71 -345 8 -36
24 -132 35 -215 12 -82 34 -211 50 -285 28 -128 38 -184 60 -325 6 -33 19
-103 30 -155 26 -127 26 -140 -4 -140 -32 0 -27 -20 -77 305 -5 33 -16 94 -24
135 -9 41 -20 107 -25 145 -13 90 -44 273 -77 450 -37 200 -42 230 -53 325 -6
47 -15 101 -20 120 -5 19 -16 69 -24 110 -9 41 -25 116 -36 166 -22 102 -26
149 -10 124 5 -8 10 -26 10 -40z m570 42 c0 -4 -19 -6 -42 -4 -71 5 -77 10
-15 11 31 0 57 -2 57 -7z m140 -9 c25 -11 38 -23 35 -31 -3 -7 2 -20 10 -28
19 -19 19 -44 1 -44 -8 0 -22 -7 -31 -17 -22 -21 -104 -29 -127 -11 -23 17
-33 95 -16 115 29 35 72 40 128 16z m304 1 c9 -8 16 -32 16 -53 0 -30 -6 -42
-30 -59 -16 -13 -44 -25 -61 -29 -25 -5 -35 -1 -56 21 -16 18 -32 26 -44 23
-14 -4 -19 0 -19 13 0 11 5 22 11 26 6 3 8 15 6 26 -4 12 -1 18 6 15 7 -2 25
5 42 15 37 22 108 24 129 2z m71 6 c-3 -5 -13 -10 -21 -10 -8 0 -14 5 -14 10
0 6 9 10 21 10 11 0 17 -4 14 -10z m329 -12 c10 -39 7 -88 -6 -89 -72 -4 -148
-3 -148 3 0 4 32 8 72 10 39 2 73 8 75 13 2 7 -19 10 -63 7 -41 -3 -70 0 -77
7 -8 8 3 11 41 12 29 1 57 3 62 4 6 1 17 3 26 4 8 0 12 6 9 11 -3 6 -37 10
-76 10 -89 0 -90 18 -1 23 37 2 70 4 73 5 4 1 9 -8 13 -20z m-911 -15 c-7 -2
-21 -2 -30 0 -10 3 -4 5 12 5 17 0 24 -2 18 -5z m600 -10 c-7 -2 -21 -2 -30 0
-10 3 -4 5 12 5 17 0 24 -2 18 -5z m-583 -23 c0 -12 -8 -12 -35 0 -18 8 -17 9
8 9 15 1 27 -3 27 -9z m-240 -11 c0 -5 -28 -9 -62 -8 -43 1 -55 3 -38 8 39 11
100 11 100 0z m-27 -36 c-13 -2 -33 -2 -45 0 -13 2 -3 4 22 4 25 0 35 -2 23
-4z m827 -3 c-19 -13 -30 -13 -30 0 0 6 10 10 23 10 18 0 19 -2 7 -10z m-547
-17 c-7 -2 -21 -2 -30 0 -10 3 -4 5 12 5 17 0 24 -2 18 -5z m264 -30 c-3 -10
-5 -4 -5 12 0 17 2 24 5 18 2 -7 2 -21 0 -30z m591 22 c3 -3 -26 -5 -64 -4
-42 1 -60 4 -45 8 27 7 100 5 109 -4z m-1130 -2 c-16 -2 -40 -2 -55 0 -16 2
-3 4 27 4 30 0 43 -2 28 -4z m514 -47 c3 -58 -15 -95 -55 -109 -31 -12 -77 20
-77 53 0 20 52 78 66 73 6 -2 19 6 29 17 27 30 33 25 37 -34z m107 30 c13 -13
33 -27 46 -30 27 -7 38 -39 23 -71 -7 -16 -21 -24 -45 -27 -47 -6 -73 30 -73
101 0 58 13 65 49 27z m-589 -16 c0 -6 -28 -10 -65 -10 -37 0 -65 4 -65 10 0
6 28 10 65 10 37 0 65 -4 65 -10z m1052 3 c-15 -3 -22 -10 -18 -19 4 -10 -2
-14 -18 -14 -19 0 -23 4 -19 20 4 16 13 20 42 19 24 -1 29 -3 13 -6z m-530
-63 c2 -25 0 -39 -7 -37 -5 2 -11 23 -13 46 -4 55 14 46 20 -9z m608 22 c0
-17 -12 -20 -102 -26 -65 -4 -105 -3 -112 4 -7 7 25 10 98 10 92 0 107 2 102
15 -3 8 -1 15 4 15 6 0 10 -8 10 -18z m-1100 -2 c0 -6 -33 -10 -80 -10 -47 0
-80 -4 -80 -10 0 -6 41 -10 103 -11 56 0 111 -4 122 -9 13 -5 -26 -9 -105 -9
-150 -1 -145 -16 7 -19 59 -2 109 -5 112 -7 2 -3 -50 -5 -117 -5 l-121 0 -4
-27 c-2 -16 -5 2 -6 38 0 36 2 69 6 72 11 11 163 8 163 -3z m1110 -97 c0 -44
-3 -54 -12 -45 -15 15 -98 16 -98 1 0 -8 -5 -7 -15 1 -11 9 -37 11 -88 7 -59
-5 -69 -4 -55 7 9 7 55 14 105 15 48 2 100 4 116 5 30 1 32 4 14 28 -13 17
-119 29 -134 15 -3 -4 11 -7 33 -8 73 -1 85 -17 14 -20 -193 -6 -190 -6 -190
9 0 12 11 14 60 9 33 -3 60 -1 60 4 0 5 -18 9 -41 9 -22 0 -38 4 -35 8 3 5 64
9 135 11 l131 2 0 -58z m-871 34 c6 -8 8 -17 4 -20 -3 -4 -7 -27 -8 -52 -2
-36 0 -45 14 -45 9 0 21 10 26 22 13 29 35 35 35 10 0 -14 6 -19 18 -17 9 1
16 9 14 19 -3 18 32 21 78 6 24 -8 24 -8 -7 -9 -17 -1 -35 -5 -38 -11 -6 -10
6 -14 35 -11 10 1 16 -7 17 -21 1 -12 8 -25 15 -29 15 -8 18 -93 4 -106 -4 -4
-16 3 -26 17 -16 21 -26 25 -78 24 -46 0 -66 -6 -93 -24 -18 -14 -45 -26 -59
-28 -14 -2 -36 -13 -49 -25 l-24 -22 7 38 c5 29 3 39 -8 43 -14 5 -14 9 0 35
11 21 12 34 4 48 -16 31 -12 41 16 41 24 0 25 -2 13 -17 -12 -15 -12 -16 5
-10 14 6 17 4 12 -9 -4 -11 -1 -14 12 -12 20 4 18 34 -4 59 -16 18 -9 29 18
29 25 0 23 21 -2 27 -24 6 -21 29 4 27 25 -3 19 24 -6 29 -17 3 -15 5 8 6 17
0 37 -5 43 -12z m78 -13 c-3 -3 -12 -4 -19 -1 -8 3 -5 6 6 6 11 1 17 -2 13 -5z
m223 -14 c0 -6 -16 -10 -35 -10 -45 0 -45 14 0 17 19 2 35 -2 35 -7z m130 -6
c0 -2 -15 -4 -32 -4 -23 0 -29 3 -19 9 12 8 51 4 51 -5z m-310 -15 c0 -5 -11
-9 -25 -9 -26 0 -34 15 -12 23 16 5 37 -3 37 -14z m-363 5 c-3 -3 -12 -4 -19
-1 -8 3 -5 6 6 6 11 1 17 -2 13 -5z m-1 -49 c19 -8 32 -10 29 -5 -3 6 1 10 10
10 9 0 14 -4 10 -9 -3 -5 3 -16 13 -23 10 -7 27 -26 37 -42 17 -26 18 -29 2
-38 -21 -11 -22 -32 -1 -62 10 -17 12 -26 4 -31 -8 -5 -7 -11 1 -22 10 -12 10
-16 -2 -24 -8 -5 -22 -9 -31 -9 -30 0 -48 -12 -48 -31 0 -30 -16 -27 -142 29
-28 13 -34 20 -28 33 10 17 1 131 -9 124 -4 -2 -8 5 -8 17 -1 13 3 18 11 15 8
-3 24 5 37 19 12 13 28 24 35 24 8 0 11 6 8 15 -4 10 -19 15 -48 14 -29 -2
-33 -3 -14 -6 l28 -4 -27 -25 c-30 -28 -47 -20 -37 20 6 25 9 26 70 26 36 0
80 -7 100 -15z m778 -41 c5 -14 4 -15 -9 -4 -17 14 -19 20 -6 20 5 0 12 -7 15
-16z m56 -12 c0 -4 -9 -13 -20 -20 -23 -14 -26 -8 -7 13 13 16 27 19 27 7z
m-15 -52 c3 -5 1 -10 -4 -10 -6 0 -11 5 -11 10 0 6 2 10 4 10 3 0 8 -4 11 -10z
m25 -39 c0 -3 -4 -12 -9 -20 -8 -12 -12 -12 -25 -2 -22 19 -20 26 9 27 14 1
25 -1 25 -5z m-460 -16 c16 -8 34 -25 40 -36 11 -19 13 -20 30 -4 24 21 55 6
64 -31 10 -38 -6 -50 -45 -34 -17 8 -51 13 -74 11 -28 -1 -46 3 -55 14 -11 14
-14 13 -25 -2 -8 -11 -26 -17 -51 -17 -22 0 -41 -2 -44 -5 -10 -13 -62 -31
-71 -26 -13 9 -11 39 4 56 6 8 11 12 10 10 -5 -8 20 -31 34 -31 11 0 14 7 11
25 -4 21 -2 24 12 20 11 -4 20 3 28 19 7 15 25 29 44 35 47 13 55 13 88 -4z
m730 -95 c0 -5 -4 -10 -10 -10 -5 0 -10 5 -10 10 0 6 5 10 10 10 6 0 10 -4 10
-10z m-525 -36 c11 -18 14 -29 7 -36 -23 -23 -61 15 -48 47 8 22 21 18 41 -11z
m-471 0 c21 -21 20 -26 -9 -54 -21 -19 -25 -21 -25 -7 0 9 -8 17 -17 17 -17 1
-17 1 0 11 9 5 17 17 17 26 0 13 -3 14 -12 5 -16 -16 -28 -15 -28 3 0 20 54
20 74 -1z m996 4 c0 -5 -11 -8 -25 -8 -14 0 -25 4 -25 9 0 5 11 8 25 7 14 0
25 -4 25 -8z m-1205 -8 c4 -6 -7 -10 -24 -10 -17 0 -31 5 -31 10 0 6 11 10 24
10 14 0 28 -4 31 -10z m455 -8 c0 -4 -5 -13 -12 -20 -9 -9 -9 -12 0 -12 7 0
12 -10 12 -21 0 -19 -2 -20 -17 -8 -13 11 -17 11 -21 1 -3 -10 -7 -10 -18 -1
-19 15 -18 33 1 25 8 -3 15 -1 15 4 0 6 -4 10 -10 10 -5 0 -10 7 -10 15 0 10
10 15 30 15 17 0 30 -4 30 -8z m95 -2 c-3 -5 -10 -10 -16 -10 -5 0 -9 5 -9 10
0 6 7 10 16 10 8 0 12 -4 9 -10z m45 0 c0 -5 -5 -10 -11 -10 -6 0 -9 -7 -5
-15 3 -9 0 -15 -8 -15 -22 0 -25 11 -8 31 18 21 32 25 32 9z m-88 -18 c-17 -5
-15 -22 3 -22 8 0 15 -4 15 -10 0 -12 -3 -12 -24 -4 -16 6 -22 35 -10 47 4 4
12 4 17 0 8 -5 7 -8 -1 -11z m-400 -15 c30 -26 48 -65 48 -102 0 -20 -7 -25
-35 -31 -47 -8 -82 2 -90 26 -4 13 -15 20 -31 20 -25 0 -33 15 -11 23 7 3 5 6
-5 6 -10 1 -18 6 -18 12 0 6 12 9 28 7 22 -2 27 1 25 17 -1 11 0 26 2 33 7 20
58 14 87 -11z m178 8 c0 -8 4 -15 9 -15 5 0 18 -3 28 -6 16 -5 16 -4 -1 10
-19 16 -19 16 1 16 28 0 37 -14 19 -29 -13 -11 -116 -12 -116 -2 0 3 7 13 17
23 20 22 43 24 43 3z m-285 -25 c-3 -5 -15 -10 -26 -10 -10 0 -19 5 -19 10 0
6 12 10 26 10 14 0 23 -4 19 -10z m641 -50 c16 0 23 -7 26 -30 3 -17 3 -32 0
-34 -2 -3 -24 6 -49 20 -41 22 -58 24 -167 24 -128 0 -184 -10 -228 -41 -34
-25 -36 -24 -40 9 -3 24 2 29 47 45 31 11 78 18 125 17 41 0 107 4 145 8 49 5
77 3 95 -5 14 -7 35 -13 46 -13z m504 20 c-11 -7 -5 -10 25 -11 35 -1 37 -2
15 -9 -44 -14 -60 -11 -60 10 0 12 7 20 18 20 14 0 15 -2 2 -10z m-20 -50 c0
-5 -5 -10 -11 -10 -5 0 -7 5 -4 10 3 6 8 10 11 10 2 0 4 -4 4 -10z m75 0 c-3
-5 -15 -10 -26 -10 -10 0 -19 5 -19 10 0 6 12 10 26 10 14 0 23 -4 19 -10z
m-670 -37 c17 -23 10 -33 -25 -33 -15 0 -35 -3 -44 -6 -20 -8 -21 -34 -1 -34
7 0 18 -7 23 -16 10 -18 48 -15 45 4 -2 8 4 9 20 3 18 -7 22 -15 19 -47 -1
-21 -9 -45 -16 -53 -8 -9 -17 -28 -20 -43 -3 -16 -8 -38 -11 -51 -7 -34 -59
-60 -103 -52 -60 11 -90 31 -97 67 -8 34 -21 62 -43 89 -9 12 -11 32 -6 68 6
49 8 51 38 50 27 0 29 -1 10 -9 -34 -13 -37 -29 -10 -41 27 -13 61 -5 51 11
-3 5 1 10 9 10 9 0 17 -4 17 -10 1 -5 3 -14 4 -20 1 -5 3 -20 4 -32 2 -38 14
-10 15 38 2 56 -18 74 -83 74 l-45 0 22 23 c18 17 37 23 95 27 98 7 116 5 132
-17z m590 7 c3 -5 -1 -10 -9 -10 -9 0 -16 5 -16 10 0 6 4 10 9 10 6 0 13 -4
16 -10z m84 6 c-11 -9 -69 -14 -69 -6 0 6 17 10 37 10 20 0 34 -2 32 -4z
m-400 -32 c2 -2 -12 -4 -32 -4 -20 0 -37 4 -37 10 0 8 58 3 69 -6z m-721 -23
c10 -6 8 -10 -10 -14 -12 -4 -33 -7 -45 -7 -13 0 -23 -4 -23 -10 0 -5 -4 -10
-10 -10 -5 0 -10 9 -10 19 0 15 8 21 38 24 20 2 39 4 42 5 3 1 11 -2 18 -7z
m547 -9 c0 -18 -20 -15 -23 4 -3 10 1 15 10 12 7 -3 13 -10 13 -16z m61 -9
c-10 -10 -19 5 -10 18 6 11 8 11 12 0 2 -7 1 -15 -2 -18z m-131 -3 c3 -6 -1
-7 -9 -4 -18 7 -21 14 -7 14 6 0 13 -4 16 -10z m239 -39 c-6 -6 -24 19 -24 34
1 6 7 1 15 -9 8 -11 12 -22 9 -25z m-710 18 c-3 -6 0 -15 7 -20 23 -14 0 -23
-27 -10 -21 9 -24 14 -14 26 14 17 45 21 34 4z m59 4 c-7 -2 -21 -2 -30 0 -10
3 -4 5 12 5 17 0 24 -2 18 -5z m841 -5 c-2 -3 2 -9 8 -11 7 -3 -8 -3 -34 0
-27 3 -53 1 -60 -5 -9 -7 -17 -6 -25 3 -6 7 -10 14 -8 16 6 7 123 4 119 -3z
m-362 -60 c-9 -20 -11 -18 -11 22 0 40 2 42 11 23 8 -17 8 -29 0 -45z m118 42
c15 0 21 -3 14 -10 -12 -12 -84 -1 -84 12 0 6 10 8 23 4 12 -3 33 -6 47 -6z
m110 -41 c0 -11 -4 -17 -10 -14 -5 3 -10 15 -10 26 0 11 5 17 10 14 6 -3 10
-15 10 -26z m350 21 c0 -5 -5 -10 -11 -10 -5 0 -7 5 -4 10 3 6 8 10 11 10 2 0
4 -4 4 -10z m-1136 -22 c8 -12 13 -25 10 -30 -3 -4 2 -8 10 -8 12 0 15 -8 12
-32 -2 -18 1 -39 6 -45 7 -9 7 -17 -1 -27 -17 -20 -2 -26 55 -20 42 3 51 1 62
-17 19 -30 7 -36 -31 -16 -18 9 -50 18 -72 19 -41 3 -46 12 -30 51 5 11 3 17
-7 17 -8 0 -23 9 -33 20 -10 12 -25 18 -32 16 -9 -4 -13 5 -13 32 0 60 35 82
64 40z m666 5 c0 -5 -11 -13 -25 -20 -20 -9 -25 -8 -25 2 0 8 10 16 23 18 12
2 23 5 25 6 1 0 2 -2 2 -6z m-574 -39 c1 -13 -3 -24 -10 -24 -6 0 -4 -5 4 -10
8 -5 10 -10 5 -10 -17 0 -34 21 -28 36 3 8 0 14 -6 14 -6 0 -8 6 -5 14 8 22
39 7 40 -20z m1042 -34 c-1 -18 -8 -30 -16 -30 -11 0 -12 3 -3 13 6 8 8 17 5
20 -6 6 3 27 12 27 2 0 3 -13 2 -30z m-522 -57 c-12 -12 -34 18 -28 39 5 20 6
19 19 -7 8 -15 12 -29 9 -32z m-536 17 c0 -5 -2 -10 -4 -10 -3 0 -8 5 -11 10
-3 6 -1 10 4 10 6 0 11 -4 11 -10z m1057 -6 c-3 -3 -12 -4 -19 -1 -8 3 -5 6 6
6 11 1 17 -2 13 -5z m-402 -18 c40 -14 52 -32 54 -84 1 -21 -2 -23 -31 -17
-53 12 -89 56 -55 68 8 3 3 11 -13 25 -30 26 -14 28 45 8z m393 -13 c-10 -2
-26 -2 -35 0 -10 3 -2 5 17 5 19 0 27 -2 18 -5z m2 -17 c0 -9 -30 -14 -35 -6
-4 6 3 10 14 10 12 0 21 -2 21 -4z m-1136 -31 c-4 -8 -11 -15 -16 -15 -6 0 -5
6 2 15 7 8 14 15 16 15 2 0 1 -7 -2 -15z m1089 8 c4 -3 0 -15 -10 -25 -9 -10
-11 -18 -5 -18 6 0 13 4 17 10 9 15 34 0 28 -17 -5 -13 -2 -15 15 -11 20 6 22
2 22 -30 l-1 -37 -19 23 c-10 12 -20 27 -22 33 -2 6 -18 12 -35 13 -39 2 -53
14 -30 27 9 6 17 17 17 24 0 16 12 20 23 8z m57 -13 c0 -5 -4 -10 -9 -10 -6 0
-13 5 -16 10 -3 6 1 10 9 10 9 0 16 -4 16 -10z m-500 -50 c0 -11 -2 -20 -4
-20 -2 0 -6 9 -9 20 -3 11 -1 20 4 20 5 0 9 -9 9 -20z m668 4 c46 -19 88 -58
112 -104 40 -78 46 -208 13 -273 l-14 -29 54 7 c69 9 92 -9 84 -66 l-5 -38 51
1 c62 0 76 15 70 72 -6 50 22 92 67 100 98 19 90 14 90 60 0 35 4 45 24 56 30
15 56 7 63 -21 3 -11 11 -18 18 -15 7 2 21 -1 30 -8 15 -11 14 -15 -11 -44
-22 -25 -36 -32 -65 -32 -42 0 -57 -26 -33 -57 18 -25 17 -73 -2 -94 -22 -24
-11 -53 17 -44 33 11 66 -3 89 -35 20 -28 21 -38 15 -126 -7 -85 -10 -97 -31
-111 -20 -13 -27 -13 -39 -3 -31 26 -36 -4 -9 -55 24 -46 25 -54 15 -92 -17
-63 -53 -100 -109 -111 -70 -15 -105 -5 -151 39 -49 48 -62 96 -36 135 9 14
15 28 12 30 -2 2 -26 -1 -53 -7 -63 -15 -120 0 -159 41 -26 27 -30 40 -33 100
-4 74 -21 96 -24 33 -3 -74 3 -97 38 -140 39 -48 94 -69 155 -59 l37 6 -5 -39
c-6 -44 15 -84 70 -133 51 -45 155 -53 203 -16 69 53 90 101 80 183 -5 44 -3
54 11 59 20 8 33 -10 26 -38 -2 -12 -4 -100 -4 -196 0 -96 -2 -297 -5 -446
l-6 -270 -29 4 c-24 4 -29 9 -29 33 0 34 -48 92 -95 115 -19 9 -64 16 -102 17
-58 2 -75 -2 -114 -25 -46 -27 -119 -110 -119 -135 0 -16 -58 -53 -83 -53 -41
0 -143 -70 -160 -110 -16 -37 7 62 27 120 25 70 48 169 67 290 10 63 9 97 -5
210 -9 74 -25 162 -36 195 -71 221 -91 300 -90 348 1 29 -2 79 -6 111 -5 44
-4 57 4 52 7 -4 12 -13 12 -20 0 -31 84 -73 122 -60 26 8 22 24 -6 24 -12 0
-37 5 -55 11 -26 9 -34 19 -43 55 -7 24 -17 44 -24 44 -16 0 -22 87 -23 342
-2 200 -1 217 16 221 38 10 85 6 121 -9z m-835 -16 c-18 -20 -48 -24 -58 -8
-10 17 2 25 39 26 34 0 35 0 19 -18z m-209 -9 c-3 -5 -10 -7 -15 -3 -5 3 -7
10 -3 15 3 5 10 7 15 3 5 -3 7 -10 3 -15z m495 -3 c9 -7 29 -18 46 -23 21 -7
31 -18 38 -43 7 -29 5 -36 -15 -52 -19 -15 -21 -19 -8 -27 9 -6 19 -6 27 1 13
10 14 8 25 -32 3 -8 15 -15 28 -15 30 0 77 -80 59 -101 -6 -8 -15 -12 -18 -9
-4 2 -8 -2 -8 -10 0 -8 5 -11 11 -7 23 14 47 11 52 -6 3 -9 9 -24 14 -33 4 -9
4 -22 0 -29 -10 -16 -3 -33 11 -25 11 8 29 -37 29 -75 0 -18 -8 -33 -24 -43
-28 -19 -30 -17 -67 58 -13 28 -32 61 -41 74 -21 28 -24 61 -5 62 6 0 1 5 -13
11 -14 6 -30 10 -36 9 -11 -1 -64 91 -64 113 0 7 -27 44 -60 83 -52 63 -59 75
-54 102 5 25 12 31 32 31 14 0 33 -6 41 -14z m-735 -5 c26 -10 28 -22 8 -58
-16 -28 -36 -30 -29 -3 3 11 1 20 -4 20 -5 0 -9 11 -9 25 0 28 0 28 34 16z
m116 -49 l22 -18 -22 -39 c-12 -22 -35 -56 -50 -75 -15 -19 -29 -43 -31 -53
-7 -32 -24 -23 -24 13 -1 19 -4 41 -9 48 -4 7 1 24 12 40 11 15 20 30 21 35 1
12 44 67 52 67 4 0 17 -8 29 -18z m256 -26 c68 0 124 -4 124 -9 0 -4 33 -51
73 -105 97 -131 97 -130 86 -183 -4 -24 -5 -82 -2 -129 4 -47 7 -221 7 -387 0
-187 3 -303 9 -303 5 0 7 15 4 35 -6 39 8 57 18 23 4 -13 21 -38 39 -57 29
-31 30 -34 12 -45 -10 -6 -28 -19 -40 -28 -21 -17 -21 -17 17 -32 20 -9 37
-21 37 -26 0 -6 6 -10 14 -10 8 0 16 -7 18 -16 5 -24 97 -52 131 -39 33 11 46
-2 98 -100 25 -49 32 -75 36 -140 l5 -80 -37 -47 -37 -47 -2 -168 c0 -93 -10
-313 -21 -491 l-19 -323 -26 3 c-14 2 -26 10 -28 21 -2 10 2 16 9 15 7 -2 15
5 17 15 5 24 -34 23 -47 -1 -15 -28 -2 -59 30 -72 24 -10 33 -10 54 4 24 16
25 20 19 76 -3 32 -1 118 5 192 6 73 16 216 22 318 6 102 15 189 20 194 5 6 9
-103 10 -285 1 -433 1 -436 80 -526 34 -38 74 -73 91 -79 17 -5 42 -25 56 -42
l25 -32 -25 0 c-14 0 -38 4 -54 10 -16 5 -47 14 -70 20 -23 5 -53 20 -67 32
-48 43 -70 57 -100 64 -26 5 -34 2 -56 -25 -25 -31 -28 -32 -71 -22 -39 9 -45
8 -58 -11 -14 -19 -22 -20 -149 -16 -75 3 -138 9 -141 15 -9 12 -82 25 -82 14
0 -5 9 -11 20 -14 11 -3 20 -10 20 -17 0 -6 -8 -9 -17 -6 -10 3 -42 10 -71 16
-61 11 -87 4 -143 -41 -35 -27 -44 -30 -82 -24 -23 4 -60 17 -82 28 -32 16
-55 20 -112 18 -40 -2 -107 0 -148 4 l-76 7 2 37 c2 25 -1 35 -10 33 -30 -6
-62 -37 -82 -79 l-22 -45 -71 7 c-39 3 -87 11 -106 18 -19 6 -47 10 -62 8 -14
-1 -29 2 -32 8 -9 13 49 127 67 134 9 3 17 25 20 54 9 82 38 274 54 358 13 68
21 186 27 428 1 57 13 62 22 7 4 -22 13 -45 20 -51 8 -6 14 -20 14 -30 0 -11
5 -19 10 -19 16 0 11 42 -7 62 -14 15 -15 21 -4 27 10 7 10 13 -1 32 -7 13
-18 27 -25 32 -23 15 -68 150 -64 198 2 32 -2 49 -13 58 -9 8 -16 20 -16 27 0
8 -4 14 -10 14 -24 0 3 184 31 214 11 12 -1 -134 -13 -158 -7 -13 -7 -16 1
-12 7 4 11 -1 11 -12 0 -21 27 -49 37 -39 3 4 2 16 -3 28 -13 29 1 186 21 237
13 31 14 46 6 55 -7 10 -5 29 8 73 15 50 64 158 78 174 10 11 23 -29 23 -71 0
-41 4 -51 39 -82 64 -58 145 -61 198 -8 15 15 35 32 44 37 8 5 25 24 38 42 33
47 54 43 46 -10 -5 -35 -3 -47 14 -65 29 -30 74 -38 105 -18 35 23 40 46 20
95 -13 32 -15 47 -6 60 8 13 8 20 -1 29 -8 8 -7 17 2 34 7 13 13 45 13 71 1
26 5 49 10 52 4 3 8 14 8 25 0 39 18 18 23 -28 15 -116 20 -143 30 -143 6 0 7
21 2 58 -18 142 -18 135 5 129 49 -13 62 23 39 106 -10 36 -11 37 -49 31 l-40
-7 0 64 c1 86 -33 399 -42 399 -12 0 -9 -73 7 -190 8 -58 15 -147 15 -198 0
-84 -2 -93 -17 -90 -24 4 -60 113 -84 251 -10 60 -21 117 -24 127 -3 11 0 22
9 27 8 4 35 47 59 94 25 48 58 105 73 128 24 38 30 41 57 35 16 -3 85 -7 153
-8z m236 -1 c-2 -5 -12 -9 -22 -7 -26 4 -25 -12 0 -29 12 -8 22 -23 23 -35 1
-15 6 -20 19 -16 10 2 18 -1 18 -8 0 -18 -42 -7 -54 15 -6 11 -17 24 -23 28
-7 4 -13 15 -13 23 0 8 -7 17 -15 20 -30 12 -14 25 28 22 23 -2 41 -7 39 -13z
m-809 -74 c-1 -28 2 -39 9 -35 7 5 9 1 5 -9 -3 -9 -1 -31 5 -49 9 -24 8 -33 0
-36 -16 -5 -15 -27 3 -62 11 -21 12 -31 3 -36 -7 -5 -8 -3 -3 7 7 11 6 12 -6
3 -8 -6 -22 -10 -32 -9 -9 2 -15 0 -12 -5 3 -4 -2 -13 -10 -20 -16 -14 -20
-30 -7 -30 5 0 14 10 20 23 11 21 11 21 7 -6 -3 -19 0 -25 8 -20 7 4 16 8 22
8 5 0 10 7 11 15 2 30 4 32 19 20 8 -7 15 -26 14 -44 0 -17 3 -45 6 -63 7 -29
5 -31 -16 -26 -23 6 -23 6 -6 -14 26 -29 -1 -95 -29 -72 -16 13 -44 -4 -44
-25 0 -23 -22 -37 -38 -23 -12 9 -18 8 -30 -11 -8 -12 -21 -22 -29 -22 -8 0
-21 -7 -30 -16 -18 -18 -40 -4 -27 18 5 7 9 18 10 23 1 6 4 24 7 42 3 18 12
47 21 64 9 18 16 42 16 55 0 13 5 26 10 29 10 6 12 -8 14 -67 1 -15 8 -34 17
-43 14 -14 17 -13 37 8 21 23 22 25 5 38 -14 12 -16 12 -8 0 6 -10 4 -12 -5
-6 -8 5 -11 4 -7 -2 3 -5 0 -10 -8 -10 -8 0 -11 5 -8 10 4 6 1 7 -7 2 -9 -5
-11 -4 -6 4 4 6 10 9 14 7 4 -2 16 2 27 10 19 14 19 16 2 25 -12 7 -16 17 -12
30 4 11 2 25 -3 32 -16 20 -23 71 -11 87 8 11 12 12 16 3 10 -25 23 -12 23 22
0 29 5 37 26 45 22 9 24 13 14 25 -19 23 -40 18 -40 -10 0 -25 -19 -36 -21
-12 -3 33 20 146 34 165 18 23 32 6 30 -37z m928 -87 c22 -30 38 -58 35 -61
-3 -3 -21 -2 -41 1 -33 7 -36 9 -30 34 3 17 0 35 -9 47 -18 23 -20 35 -6 35 5
0 28 -25 51 -56z m374 -44 c3 -11 11 -20 16 -20 5 0 9 -7 9 -16 0 -8 -4 -12
-10 -9 -6 4 -10 -10 -10 -34 0 -54 0 -56 11 -53 5 1 9 -2 9 -8 0 -9 -17 -14
-47 -13 -7 1 -13 -3 -13 -8 0 -5 14 -9 30 -9 17 0 30 -4 30 -10 0 -5 -5 -10
-11 -10 -5 0 -8 -4 -4 -9 9 -16 -13 -23 -35 -11 -11 6 -20 18 -20 28 0 9 -11
43 -25 76 l-24 59 27 33 c30 38 58 44 67 14z m851 -217 c-3 -3 -12 2 -21 11
-9 9 -26 16 -39 16 -21 0 -22 5 -23 69 -1 69 -1 70 27 76 16 3 35 13 42 22 11
14 13 0 16 -87 1 -56 1 -105 -2 -107z m-1176 152 c0 -8 9 -15 20 -15 11 0 20
-6 20 -12 0 -7 12 -24 25 -37 14 -12 22 -27 19 -32 -3 -5 7 -23 21 -41 14 -18
25 -35 23 -38 -2 -3 12 -24 30 -47 17 -22 32 -47 32 -55 0 -7 7 -24 16 -36 8
-12 12 -22 8 -22 -3 0 -1 -6 5 -13 6 -8 8 -17 4 -20 -3 -4 3 -18 15 -30 22
-23 22 -24 4 -40 -24 -21 -37 -10 -16 14 9 10 11 19 5 23 -5 4 -12 2 -15 -3
-9 -14 -54 11 -66 38 -9 19 -7 26 7 37 17 13 17 15 -1 29 -11 8 -27 15 -35 15
-15 0 -41 41 -41 63 0 5 11 6 24 3 36 -9 40 9 9 34 l-27 21 -18 -23 c-15 -19
-18 -20 -18 -5 0 9 4 17 9 17 7 0 8 17 2 38 -1 1 0 4 2 5 8 12 -29 37 -47 31
-21 -6 -21 -6 -1 10 12 10 16 19 10 23 -5 5 -15 17 -21 28 -6 11 -16 21 -23
21 -6 1 -14 2 -17 3 -9 2 17 31 27 31 5 0 9 -7 9 -15z m-964 -55 c0 -9 -5 -17
-11 -17 -6 0 -11 8 -11 17 0 9 5 17 11 17 6 0 11 -8 11 -17z m914 -34 c0 -8
11 -28 25 -44 30 -36 56 -106 49 -130 -5 -14 -4 -14 5 -2 5 8 11 12 13 10 3
-5 14 -24 36 -65 6 -11 20 -42 32 -70 12 -27 28 -63 35 -80 16 -36 14 -40 -15
-25 -13 7 -37 9 -60 5 -32 -5 -40 -3 -49 14 -6 11 -17 18 -25 15 -10 -4 -14 9
-15 58 -1 35 -6 64 -11 66 -6 2 -4 17 4 36 12 29 12 34 -3 44 -13 10 -13 11 0
6 12 -4 15 3 14 36 0 22 -7 46 -14 52 -10 11 -12 10 -9 -2 1 -8 -2 -16 -7 -17
-5 -2 -10 12 -10 30 0 17 -4 42 -8 55 -5 14 -4 22 2 22 6 0 11 -6 11 -14z
m410 -101 c0 -19 -5 -25 -22 -25 -18 0 -20 2 -8 10 12 7 11 10 -5 16 -18 7
-18 8 1 15 30 12 34 10 34 -16z m-125 -30 c-2 -16 1 -23 7 -19 6 4 8 3 5 -3
-3 -5 0 -10 8 -10 13 0 13 3 -1 18 -9 10 -13 23 -9 29 9 14 28 1 21 -15 -2 -7
1 -18 7 -24 12 -12 18 -32 21 -73 2 -14 10 -38 20 -52 9 -14 14 -26 11 -26 -3
0 1 -13 10 -29 8 -17 11 -32 6 -35 -10 -7 -46 43 -37 51 3 3 -3 18 -14 33 -11
16 -20 35 -20 43 0 9 -4 19 -10 22 -5 3 -10 14 -10 24 0 10 -7 24 -15 31 -9 7
-13 15 -10 18 3 3 0 11 -6 18 -6 7 -8 18 -4 24 11 17 23 2 20 -25z m-1270 -5
c-14 -15 -21 -17 -32 -9 -18 15 -16 19 7 14 11 -2 22 0 25 6 4 5 9 9 12 9 3 0
-2 -9 -12 -20z m1385 -10 c0 -5 -6 -10 -14 -10 -8 0 -18 5 -21 10 -3 6 3 10
14 10 12 0 21 -4 21 -10z m2 -32 c-9 -9 -15 -9 -24 0 -9 9 -7 12 12 12 19 0
21 -3 12 -12z m8 -28 c0 -5 -4 -10 -10 -10 -5 0 -10 5 -10 10 0 6 5 10 10 10
6 0 10 -4 10 -10z m-1102 -7 c-10 -2 -26 -2 -35 0 -10 3 -2 5 17 5 19 0 27 -2
18 -5z m-73 -13 c-27 -12 -43 -12 -25 0 8 5 22 9 30 9 10 0 8 -3 -5 -9z m113
-32 c-4 -27 -54 -43 -93 -28 -22 8 -25 13 -15 25 12 14 36 21 83 24 24 1 28
-3 25 -21z m1072 12 c0 -5 -4 -10 -10 -10 -5 0 -10 5 -10 10 0 6 5 10 10 10 6
0 10 -4 10 -10z m-900 -95 c0 -31 -4 -45 -14 -45 -7 0 -71 -5 -141 -10 -100
-8 -144 -17 -202 -39 -40 -16 -75 -26 -77 -22 -2 3 -6 22 -10 41 l-6 36 171
33 c94 18 181 36 193 41 11 5 36 9 54 9 31 1 32 0 32 -44z m814 -42 c4 -10 4
-14 0 -10 -4 4 -13 2 -20 -4 -16 -13 -48 -4 -39 11 5 8 11 7 21 -1 11 -9 15
-8 20 5 8 20 10 20 18 -1z m-1503 -26 c-8 -8 -11 -7 -11 4 0 20 13 34 18 19 3
-7 -1 -17 -7 -23z m59 12 c0 -5 -7 -9 -15 -9 -15 0 -20 12 -9 23 8 8 24 -1 24
-14z m170 -42 c0 -15 6 -36 12 -47 16 -26 -1 -46 -24 -28 -13 10 -15 25 -11
71 6 59 23 62 23 4z m1370 19 c0 -5 -6 -3 -13 3 -8 6 -18 7 -23 3 -4 -4 -2 1
5 11 11 14 16 15 22 5 5 -7 9 -17 9 -22z m-284 -27 c6 -5 14 -5 19 -1 4 4 6 0
3 -8 -3 -10 -18 -15 -44 -15 -52 -1 -64 4 -64 25 0 16 6 18 38 13 20 -3 42
-10 48 -14z m-776 -9 c0 -8 -51 -40 -65 -40 -17 0 -1 28 23 37 36 14 42 15 42
3z m1090 -52 c0 -10 -4 -18 -10 -18 -5 0 -10 9 -10 19 0 11 -5 21 -12 23 -7 3
-9 12 -4 24 7 18 8 17 21 -6 8 -14 14 -33 15 -42z m-1182 24 c3 -21 1 -22 -17
-12 -12 6 -26 8 -32 4 -16 -10 22 -46 43 -41 22 6 24 -18 3 -27 -8 -3 -30 -3
-48 0 -31 6 -32 6 -10 -10 12 -9 32 -20 45 -25 21 -9 21 -10 3 -10 -33 -1 -85
37 -101 74 -17 42 -17 48 -1 42 6 -2 23 5 36 15 34 26 75 20 79 -10z m-168
-22 c0 -11 -4 -20 -10 -20 -5 0 -10 9 -10 20 0 11 5 20 10 20 6 0 10 -9 10
-20z m1254 -1 c-3 -5 -10 -7 -15 -3 -5 3 -7 10 -3 15 3 5 10 7 15 3 5 -3 7
-10 3 -15z m-984 1 c0 -14 -59 -42 -72 -34 -6 4 3 14 23 25 39 21 49 23 49 9z
m870 -10 c0 -5 -2 -10 -4 -10 -3 0 -8 5 -11 10 -3 6 -1 10 4 10 6 0 11 -4 11
-10z m-205 -10 c3 -5 3 -15 -1 -21 -6 -11 -23 6 -24 24 0 10 18 9 25 -3z m130
-10 c3 -5 -3 -10 -14 -10 -12 0 -21 5 -21 10 0 6 6 10 14 10 8 0 18 -4 21 -10z
m192 -25 c-12 -24 -27 -34 -27 -17 0 5 3 12 8 16 4 4 8 12 8 17 3 18 4 20 13
15 5 -4 4 -17 -2 -31z m-1323 -7 c4 3 4 -1 0 -11 -8 -23 -21 -21 -34 4 -10 18
-10 19 8 10 11 -6 22 -7 26 -3z m72 -33 c6 -14 8 -13 19 2 11 15 15 15 29 4
25 -21 19 -31 -17 -31 -31 0 -57 14 -57 32 0 14 20 9 26 -7z m1089 -5 c-3 -5
-10 -10 -16 -10 -5 0 -9 5 -9 10 0 6 7 10 16 10 8 0 12 -4 9 -10z m305 -65
c12 -35 20 -79 18 -97 l-3 -33 -17 34 c-10 18 -15 38 -12 43 3 5 1 14 -4 21
-14 16 -24 97 -12 97 4 0 18 -29 30 -65z m-1530 36 c0 -5 -7 -11 -14 -14 -10
-4 -13 -1 -9 9 6 15 23 19 23 5z m343 2 c-7 -2 -19 -2 -25 0 -7 3 -2 5 12 5
14 0 19 -2 13 -5z m-163 -43 c0 -5 -4 -10 -10 -10 -5 0 -10 5 -10 10 0 6 5 10
10 10 6 0 10 -4 10 -10z m-170 -56 c0 -2 -4 -4 -10 -4 -5 0 -10 8 -10 18 0 15
-2 15 -11 2 -9 -12 -10 -12 -5 3 3 10 6 24 6 30 0 7 7 -1 15 -17 8 -15 15 -30
15 -32z m123 49 c-7 -2 -19 -2 -25 0 -7 3 -2 5 12 5 14 0 19 -2 13 -5z m-383
-17 c0 -7 -6 -19 -14 -25 -11 -9 -12 -6 -8 14 5 26 22 35 22 11z m644 8 c21
-8 21 -58 0 -74 -11 -10 -23 -11 -42 -4 -38 13 -39 65 -2 75 14 4 26 7 27 8 1
1 8 -2 17 -5z m862 -29 c-4 -14 -1 -34 6 -45 10 -16 10 -22 1 -28 -9 -6 -9
-16 1 -47 13 -37 13 -40 -11 -58 -32 -25 -43 -13 -15 16 12 13 22 26 22 30 0
17 -29 4 -60 -28 -47 -48 -61 -44 -16 5 40 44 44 61 20 84 -27 27 -49 18 -83
-34 -18 -27 -37 -50 -42 -50 -14 0 -11 10 24 75 22 41 39 61 57 65 16 4 24 12
22 23 -2 14 5 17 39 17 39 0 41 -1 35 -25z m-1056 5 c0 -5 -4 -10 -10 -10 -5
0 -10 5 -10 10 0 6 5 10 10 10 6 0 10 -4 10 -10z m1189 -108 c6 -20 12 -53 13
-72 3 -32 1 -35 -22 -32 -21 3 -22 2 -11 -12 7 -8 9 -21 5 -28 -4 -7 2 -5 14
6 23 20 26 18 35 -36 3 -22 0 -28 -14 -28 -12 0 -19 7 -19 20 0 22 -10 26 -27
9 -22 -22 -43 -3 -38 35 4 26 0 38 -13 45 -19 11 -20 9 33 26 10 3 15 17 15
40 0 36 -15 48 -23 18 -3 -12 -5 -9 -6 8 -1 30 2 34 28 36 16 1 23 -7 30 -35z
m-229 -34 c0 -16 -30 -48 -46 -48 -10 0 -9 7 2 30 15 29 44 41 44 18z m330 -6
c0 -10 -6 -24 -12 -32 -11 -12 -10 -12 5 0 16 12 20 12 28 -1 5 -8 9 -27 9
-43 0 -28 -1 -28 -13 -11 -10 12 -16 14 -21 7 -15 -25 -27 -11 -22 26 3 20 5
45 6 55 0 23 20 22 20 -1z m-1790 -47 c0 -8 -4 -15 -10 -15 -5 0 -10 7 -10 15
0 8 5 15 10 15 6 0 10 -7 10 -15z m1828 -156 c0 -24 -2 -58 -4 -76 l-5 -32
-20 20 c-15 15 -18 24 -10 32 15 15 14 44 -1 50 -10 3 -10 9 0 26 6 11 12 28
12 37 0 13 2 13 14 2 7 -8 14 -34 14 -59z m-93 -77 c-3 -13 -1 -30 5 -37 8 -9
10 -42 6 -97 -3 -46 -8 -137 -12 -203 -7 -133 -24 -191 -53 -176 -14 8 -17 29
-19 125 -1 65 2 116 7 116 5 0 11 -6 14 -12 2 -7 8 -10 12 -6 4 4 4 15 0 25
-11 26 -6 276 5 287 14 14 12 26 -4 26 -27 0 -26 19 1 32 27 13 28 13 36 -22
4 -19 5 -46 2 -58z m618 -26 c52 -22 89 -68 94 -120 5 -45 6 -45 42 -43 34 2
36 0 39 -32 4 -41 -8 -51 -67 -51 -38 0 -43 -2 -38 -19 4 -16 -1 -21 -21 -23
-16 -2 -28 -10 -30 -20 -3 -14 3 -18 27 -18 21 0 31 -5 31 -15 0 -11 -11 -15
-39 -15 -46 0 -91 -15 -91 -30 0 -5 11 -10 25 -10 45 0 26 -19 -22 -22 -26 -2
-48 -9 -51 -15 -4 -15 6 -19 71 -28 26 -3 45 -10 42 -15 -3 -5 2 -13 12 -18
14 -8 8 -12 -30 -17 -49 -8 -68 -35 -24 -35 34 0 1 -18 -48 -25 -62 -10 -75
-15 -75 -31 0 -11 15 -14 59 -14 33 0 62 -4 65 -9 6 -10 -51 -21 -111 -21 -50
0 -73 -8 -73 -25 0 -8 17 -15 43 -18 77 -10 109 -19 114 -34 3 -7 25 -27 49
-44 44 -30 58 -59 28 -59 -11 0 -15 -6 -12 -18 4 -15 0 -17 -28 -14 -18 2 -39
10 -45 18 -23 28 -79 13 -76 -21 2 -17 -4 -19 -45 -16 -37 2 -48 -1 -48 -13 0
-20 17 -29 51 -28 36 1 46 -14 19 -28 -28 -15 -25 -27 10 -45 29 -15 30 -17
30 -90 0 -82 -11 -94 -50 -55 -24 24 -33 25 -65 4 -13 -8 -34 -14 -46 -12 -20
3 -23 9 -24 47 -1 44 -8 52 -72 97 -12 9 -52 20 -88 24 -37 5 -69 11 -72 14
-12 11 -24 184 -20 275 6 131 14 160 43 167 30 8 30 19 -1 56 -19 22 -25 41
-25 77 0 94 94 191 157 162 32 -15 33 -14 33 10 0 16 4 19 20 14 12 -4 20 -2
20 5 0 8 9 10 25 6 24 -6 25 -4 25 38 0 25 8 61 17 81 33 69 163 107 246 71z
m-2426 -210 c62 -47 95 -99 107 -168 4 -21 13 -38 20 -38 10 0 13 -34 12 -154
-1 -85 -3 -157 -6 -160 -3 -3 -23 -1 -45 4 -22 5 -61 10 -87 10 -40 0 -48 3
-48 18 0 12 15 25 42 38 55 24 64 54 16 54 -22 0 -37 6 -46 20 -9 14 -23 20
-50 20 l-37 0 25 19 c24 19 24 19 5 41 -18 20 -27 22 -83 17 -34 -2 -69 -11
-78 -18 -14 -11 -13 -15 8 -30 l23 -18 -20 -19 c-12 -10 -32 -22 -47 -25 -14
-4 -33 -10 -42 -13 -14 -5 -16 14 -16 184 l0 190 28 18 c55 38 106 53 184 53
75 1 77 0 135 -43z m1695 -6 c-2 -16 -8 -30 -13 -30 -10 0 -12 21 -3 44 10 27
21 18 16 -14z m885 -111 c-14 -8 -22 -8 -30 0 -8 8 -3 11 19 11 25 -1 27 -2
11 -11z m-698 -180 c-21 -13 -32 -11 -25 7 3 9 6 23 6 32 0 12 4 11 16 -7 14
-19 14 -25 3 -32z m-62 19 c-3 -8 -6 -5 -6 6 -1 11 2 17 5 13 3 -3 4 -12 1
-19z m-43 -190 c-1 -141 -4 -173 -15 -173 -8 0 -12 7 -10 15 2 8 3 20 3 25 -3
50 -6 63 -15 82 -7 16 -7 40 0 78 5 31 6 58 1 61 -15 9 -8 37 14 61 12 13 22
23 22 23 1 0 1 -78 0 -172z m826 102 c0 -5 -15 -10 -32 -9 -31 1 -32 1 -8 9
35 11 40 11 40 0z m-2755 -40 c-3 -5 -13 -10 -21 -10 -8 0 -14 5 -14 10 0 6 9
10 21 10 11 0 17 -4 14 -10z m60 0 c3 -6 -4 -10 -17 -10 -18 0 -20 2 -8 10 19
12 18 12 25 0z m-160 -20 l20 -8 -20 -7 c-63 -22 -75 -29 -70 -39 3 -6 8 -19
11 -29 4 -9 18 -20 33 -23 35 -9 51 -23 51 -45 0 -23 -25 -25 -34 -3 -3 9 -13
14 -20 11 -8 -3 -16 -1 -19 6 -2 7 -12 12 -23 12 -16 0 -19 8 -22 53 -3 47 -1
52 18 52 11 0 23 7 26 15 7 16 19 18 49 5z m244 6 c-10 -10 -79 -24 -79 -16 0
5 8 11 18 13 22 6 67 8 61 3z m2461 -16 c0 -5 -4 -10 -10 -10 -5 0 -10 5 -10
10 0 6 5 10 10 10 6 0 10 -4 10 -10z m80 -4 c0 -3 -4 -8 -10 -11 -5 -3 -10 -1
-10 4 0 6 5 11 10 11 6 0 10 -2 10 -4z m-711 -121 l0 -20 -9 20 c-5 11 -8 38
-8 60 l0 40 9 -40 c4 -22 8 -49 8 -60z m641 85 c0 -5 -4 -10 -10 -10 -5 0 -10
5 -10 10 0 6 5 10 10 10 6 0 10 -4 10 -10z m95 0 c-3 -5 -10 -10 -16 -10 -5 0
-9 5 -9 10 0 6 7 10 16 10 8 0 12 -4 9 -10z m39 -5 c-4 -8 -8 -15 -10 -15 -2
0 -4 7 -4 15 0 8 4 15 10 15 5 0 7 -7 4 -15z m-84 -15 c0 -5 -4 -10 -10 -10
-5 0 -10 5 -10 10 0 6 5 10 10 10 6 0 10 -4 10 -10z m-50 -40 c0 -5 -5 -10
-11 -10 -5 0 -7 5 -4 10 3 6 8 10 11 10 2 0 4 -4 4 -10z m-2351 -125 c-5 -60
-13 -123 -18 -140 -5 -16 -12 -50 -15 -73 -9 -63 -35 -120 -45 -103 -7 10 -15
0 -30 -34 -12 -26 -21 -51 -21 -56 0 -13 -12 -11 -33 6 -18 13 -18 14 2 32 12
9 21 20 21 23 0 3 -24 5 -52 5 l-53 0 -7 65 c-9 75 0 237 13 263 6 9 15 17 21
17 7 0 22 12 34 28 l22 27 19 -21 c12 -14 35 -23 66 -26 26 -3 47 -4 47 -3 0
2 3 10 6 18 4 11 -2 16 -22 19 -42 5 -39 22 8 46 23 11 43 20 44 19 1 -1 -2
-51 -7 -112z m-239 79 c0 -14 -4 -23 -9 -20 -5 3 -7 15 -4 26 7 28 13 25 13
-6z m2667 -31 c-3 -10 -5 -2 -5 17 0 19 2 27 5 18 2 -10 2 -26 0 -35z m-2627
-2 c-12 -23 -30 -36 -30 -22 0 10 27 41 36 41 3 0 0 -9 -6 -19z m2617 -53 c-3
-7 -5 -2 -5 12 0 14 2 19 5 13 2 -7 2 -19 0 -25z m70 -130 c-2 -29 -3 -8 -3
47 0 55 1 79 3 53 2 -26 2 -71 0 -100z m-2847 112 c0 -5 -7 -10 -15 -10 -8 0
-15 5 -15 10 0 6 7 10 15 10 8 0 15 -4 15 -10z m65 1 c3 -5 1 -12 -5 -16 -5
-3 -10 1 -10 9 0 18 6 21 15 7z m2019 -22 c-2 -4 0 -10 6 -14 5 -3 10 -17 10
-30 0 -32 10 -36 91 -41 61 -3 75 -8 110 -36 29 -23 39 -39 39 -60 0 -15 -4
-28 -10 -28 -5 0 -10 5 -10 10 0 6 -9 10 -19 10 -24 0 -35 -29 -22 -63 5 -14
7 -28 4 -31 -4 -3 -1 -6 6 -6 7 0 10 -4 7 -8 -3 -5 -28 -7 -56 -6 -37 1 -60 9
-84 28 -29 22 -36 23 -46 11 -18 -22 -99 2 -85 25 3 4 -2 13 -10 20 -12 10
-15 36 -15 116 0 106 6 122 42 116 9 -2 19 2 23 9 6 8 10 8 16 -2 4 -7 6 -16
3 -20z m629 -48 c6 -70 -4 -131 -27 -166 -23 -36 -39 -27 -49 26 -12 59 3 100
34 92 16 -4 20 -2 17 8 -2 8 -14 15 -26 17 -26 4 -19 22 8 22 24 0 35 17 21
34 -10 12 -5 26 9 26 4 0 10 -26 13 -59z m-2669 17 c4 -13 9 -76 13 -140 l6
-118 -27 0 c-27 0 -100 43 -126 75 -10 12 -13 40 -11 99 3 83 11 100 43 90 10
-3 26 -1 35 5 31 18 60 13 67 -11z m2733 -155 c-3 -10 -5 -2 -5 17 0 19 2 27
5 18 2 -10 2 -26 0 -35z m-187 -35 c-7 -19 -9 -15 -9 22 0 37 2 41 9 23 6 -14
6 -32 0 -45z m-104 -55 c-3 -3 -17 -2 -32 1 -25 7 -26 8 -9 26 18 20 18 20 33
-1 8 -11 12 -23 8 -26z m-2453 -36 c33 7 36 -13 5 -27 -13 -6 -30 -14 -38 -19
-8 -5 -34 -13 -57 -18 l-43 -10 0 74 0 74 53 -40 c41 -29 60 -38 80 -34z
m2667 13 c0 -5 -5 -10 -11 -10 -5 0 -7 5 -4 10 3 6 8 10 11 10 2 0 4 -4 4 -10z
m80 1 c0 -6 -4 -13 -10 -16 -5 -3 -10 1 -10 9 0 9 5 16 10 16 6 0 10 -4 10 -9z
m-450 -11 c0 -5 -2 -10 -4 -10 -3 0 -8 5 -11 10 -3 6 -1 10 4 10 6 0 11 -4 11
-10z m204 4 c19 -7 22 -34 4 -34 -7 0 -26 9 -43 20 l-30 20 27 0 c14 0 33 -3
42 -6z m171 -26 c9 -9 -6 -118 -16 -118 -5 0 -9 5 -9 12 0 6 -6 19 -14 27 -7
9 -16 32 -20 52 -6 36 -6 37 23 35 16 -1 33 -4 36 -8z m142 -70 c-2 -13 -4 -3
-4 22 0 25 2 35 4 23 2 -13 2 -33 0 -45z m-967 42 c0 -5 -9 -10 -21 -10 -11 0
-17 5 -14 10 3 6 13 10 21 10 8 0 14 -4 14 -10z m480 -24 c0 -8 6 -17 13 -20
6 -3 0 -4 -15 -1 -29 6 -39 -11 -13 -21 8 -4 15 -11 15 -16 0 -15 -89 1 -116
20 -35 26 -29 37 21 40 27 1 45 -3 45 -9 0 -6 -7 -9 -15 -5 -16 6 -21 -9 -6
-19 6 -3 18 6 28 19 20 28 43 34 43 12z m-2335 -16 c-11 -5 -34 -9 -52 -9 -17
-1 -35 -5 -38 -11 -3 -5 -13 -10 -22 -10 -12 0 -13 3 -3 14 12 16 42 22 100
24 28 0 31 -1 15 -8z m2445 -19 c0 -12 -20 -25 -27 -18 -7 7 6 27 18 27 5 0 9
-4 9 -9z m-1909 -34 c-8 -8 -11 -7 -11 4 0 20 13 34 18 19 3 -7 -1 -17 -7 -23z
m1375 14 c14 -11 47 -25 74 -32 29 -7 50 -18 50 -26 0 -10 -21 -13 -92 -12
-51 1 -101 -2 -111 -6 -15 -6 -283 24 -377 42 -51 10 5 20 138 26 73 4 140 11
150 16 9 6 46 11 80 11 48 0 70 -5 88 -19z m477 -6 c-6 -16 -43 -16 -43 0 0
18 9 23 30 18 10 -3 16 -11 13 -18z m212 19 c15 -6 51 -64 39 -64 -7 0 -64 57
-64 64 0 8 4 7 25 0z m-2337 -46 c-9 -26 -226 -44 -249 -21 -9 9 2 11 42 7 37
-4 65 -1 89 10 44 19 124 22 118 4z m57 2 c3 -5 -1 -10 -10 -10 -9 0 -13 5
-10 10 3 6 8 10 10 10 2 0 7 -4 10 -10z m115 -4 c0 -3 -4 -8 -10 -11 -5 -3
-10 -1 -10 4 0 6 5 11 10 11 6 0 10 -2 10 -4z m2053 -28 c9 -5 17 -15 17 -22
0 -11 -9 -12 -42 -4 -24 5 -81 8 -128 6 -81 -3 -85 -2 -88 19 -3 21 -2 22 110
16 62 -3 121 -10 131 -15z m-1319 6 c71 -10 55 -19 -34 -19 -44 0 -80 3 -80 6
0 20 33 24 114 13z m376 -16 c79 -18 301 -37 325 -28 39 15 85 2 85 -24 0 -40
-17 -46 -145 -46 -103 0 -126 3 -159 21 -28 15 -71 23 -165 31 -69 6 -130 14
-135 19 -5 4 -6 15 -3 23 5 13 22 15 84 14 43 -1 94 -5 113 -10z m1135 -7 c-3
-6 -11 -11 -17 -11 -6 0 -6 6 2 15 14 17 26 13 15 -4z m-2730 -1 c-3 -5 -13
-10 -21 -10 -8 0 -14 5 -14 10 0 6 9 10 21 10 11 0 17 -4 14 -10z m1095 1 c0
-9 -33 -21 -59 -21 -11 0 -9 4 5 15 21 16 54 20 54 6z m1754 -1 c25 -9 26 -12
26 -94 0 -84 0 -85 -22 -77 -13 5 -22 12 -21 17 1 5 -4 15 -10 22 -6 7 -6 12
-1 11 19 -3 34 1 34 12 0 6 -16 9 -40 8 -21 -2 -42 0 -46 4 -4 4 2 8 14 8 41
3 45 4 50 17 3 10 -7 13 -44 11 -55 -4 -64 13 -12 21 27 4 32 9 30 28 -4 24 4
27 42 12z m-2601 -7 c-24 -2 -43 -8 -43 -13 0 -6 8 -9 18 -8 37 3 116 -4 102
-9 -8 -3 -23 -12 -32 -20 -9 -8 -21 -12 -27 -9 -5 4 -17 -8 -26 -27 -8 -18
-29 -41 -45 -51 -17 -9 -30 -21 -30 -27 0 -5 -5 -9 -10 -9 -6 0 -8 11 -4 26 5
19 4 25 -5 20 -6 -4 -11 -1 -11 8 0 28 -21 17 -32 -16 -10 -28 -12 -29 -24
-14 -12 17 -15 16 -51 -8 -21 -15 -39 -22 -41 -16 -2 5 -10 10 -18 10 -19 0
-18 20 2 49 12 17 14 25 5 34 -9 9 -17 6 -31 -13 -10 -14 -22 -21 -27 -17 -4
5 -1 12 7 18 11 6 12 11 3 17 -8 5 -8 11 1 24 23 31 66 40 164 33 52 -4 92 -4
91 1 -4 21 4 24 54 22 50 -1 50 -2 10 -5z m267 -3 c11 -7 -4 -10 -48 -10 -40
0 -61 4 -57 10 8 13 85 13 105 0z m2118 -8 c3 -9 -2 -13 -14 -10 -9 1 -19 9
-22 16 -3 9 2 13 14 10 9 -1 19 -9 22 -16z m-1930 -2 c27 0 0 -16 -50 -30 -41
-11 -49 -10 -63 3 -21 22 -19 30 8 24 12 -3 31 -1 42 3 11 5 26 7 33 4 8 -2
21 -4 30 -4z m209 -18 c-25 -28 -21 -35 18 -29 19 3 35 2 35 -4 0 -5 -4 -9
-10 -9 -5 0 -20 -10 -32 -22 -14 -14 -23 -18 -26 -10 -5 17 -112 16 -113 0 0
-7 -5 -2 -10 11 -12 31 -5 37 56 52 28 6 57 15 65 20 26 14 34 10 17 -9z
m1603 2 c0 -2 -14 -4 -31 -4 -16 0 -28 4 -25 9 5 8 56 3 56 -5z m190 -7 c0
-17 -8 -25 -32 -32 -44 -13 -46 -47 -3 -56 l30 -7 -31 -1 c-38 -1 -46 -9 -33
-32 7 -14 17 -17 39 -12 19 3 30 1 30 -5 0 -6 -15 -14 -34 -18 -26 -4 -36 -12
-41 -31 -6 -26 13 -60 22 -37 22 60 63 56 63 -6 0 -34 3 -41 18 -38 10 2 17
13 17 28 0 16 7 26 18 28 12 2 16 9 13 18 -5 12 3 15 42 12 l47 -3 3 -52 3
-53 -43 -1 c-24 0 -117 -2 -208 -3 l-166 -3 -21 30 c-23 32 -22 47 3 47 8 0
14 7 14 15 0 9 -22 21 -61 32 -70 21 -88 45 -63 82 13 18 25 21 89 21 64 0 76
3 85 20 9 17 8 20 -9 20 -11 0 -22 4 -25 9 -4 5 37 9 96 8 98 -2 103 -1 113
21 13 29 25 28 25 -1z m-1440 4 c0 -10 -89 -21 -104 -13 -5 3 -1 9 10 13 27
11 94 11 94 0z m-877 -24 c3 -7 -13 -28 -35 -47 -37 -30 -42 -32 -53 -17 -7 9
-20 17 -29 17 -10 0 -14 5 -11 10 3 6 15 10 26 10 10 0 19 4 19 8 0 8 45 29
66 31 7 1 14 -5 17 -12z m995 6 c-10 -2 -26 -2 -35 0 -10 3 -2 5 17 5 19 0 27
-2 18 -5z m974 -14 c83 -13 98 -29 27 -29 -39 0 -58 -5 -74 -20 l-22 -20 -63
37 -64 38 35 6 c37 6 59 4 161 -12z m-899 4 c-7 -2 -19 -2 -25 0 -7 3 -2 5 12
5 14 0 19 -2 13 -5z m657 -3 c13 -8 13 -10 -2 -10 -9 0 -20 5 -23 10 -8 13 5
13 25 0z m-1520 -14 c84 -14 120 -32 120 -58 0 -20 -107 -105 -118 -94 -4 4 1
13 11 20 19 15 22 26 7 26 -6 0 -20 -11 -32 -25 -16 -19 -24 -22 -35 -13 -10
8 -19 6 -37 -11 -33 -31 -72 -25 -69 10 1 24 -2 27 -37 27 -25 1 -44 -6 -56
-19 -9 -10 -29 -19 -43 -19 -14 0 -42 -5 -61 -10 -25 -8 -41 -7 -58 2 -19 10
-26 8 -45 -10 -26 -24 -78 -29 -135 -13 -28 8 -36 7 -50 -10 -23 -27 -32 -24
-32 10 0 25 5 31 30 36 16 4 30 10 30 14 0 4 12 13 26 20 22 10 30 9 45 -5 15
-13 16 -20 8 -31 -38 -45 60 -7 112 43 34 33 84 51 94 34 3 -4 -2 -13 -10 -20
-14 -12 -21 -40 -10 -40 13 0 64 39 105 80 67 68 112 79 240 56z m510 6 c0 -4
36 -7 80 -7 45 1 83 -2 86 -7 3 -4 24 -8 47 -9 23 0 60 -4 82 -8 44 -9 34 -12
-60 -15 -27 -1 -118 -6 -201 -11 -111 -6 -153 -5 -158 4 -4 6 -1 11 7 11 8 0
20 7 27 15 7 8 23 15 36 15 12 0 26 5 29 10 7 12 25 13 25 2z m536 -1 c-5 -8
-56 -3 -56 5 0 2 14 4 31 4 16 0 28 -4 25 -9z m16 -26 c32 -1 64 -7 70 -12 9
-7 69 -8 177 -2 117 6 168 6 177 -2 8 -6 20 -9 29 -6 21 9 60 -15 62 -36 1
-17 -5 -18 -65 -13 -37 3 -112 8 -167 12 -55 4 -122 9 -150 11 -42 3 -216 11
-277 13 -13 0 -18 8 -18 26 0 27 0 27 53 19 28 -4 78 -9 109 -10z m1135 -31
c-3 -3 -12 -4 -19 -1 -8 3 -5 6 6 6 11 1 17 -2 13 -5z m-2 -24 c-3 -5 -12 -10
-18 -10 -7 0 -6 4 3 10 19 12 23 12 15 0z m-1047 -16 c4 -7 60 -16 132 -22
133 -11 166 -16 218 -34 32 -12 43 -28 19 -28 -8 0 -22 -9 -32 -20 -10 -11
-24 -20 -30 -20 -7 0 -33 -9 -58 -20 -42 -19 -65 -20 -251 -19 -137 2 -210 -1
-218 -9 -9 -7 -19 -7 -28 -2 -9 6 -173 10 -380 10 -201 0 -395 3 -433 7 -62 5
-66 7 -47 20 11 8 20 20 20 27 0 28 35 45 98 47 57 2 67 7 63 32 -1 4 34 8 76
8 107 0 136 3 151 13 8 4 61 10 120 12 58 3 107 6 108 7 2 1 107 2 234 2 162
0 233 -3 238 -11z m1062 -14 c0 -5 -17 -10 -37 -9 -31 0 -34 2 -18 9 28 12 55
12 55 0z m-2856 -9 c3 -5 -1 -11 -9 -15 -9 -3 -15 0 -15 9 0 16 16 20 24 6z
m162 -28 c-10 -10 -19 5 -10 18 6 11 8 11 12 0 2 -7 1 -15 -2 -18z m2226 -18
c35 -29 78 -85 78 -100 0 -7 -138 -6 -252 2 -54 3 -98 10 -98 16 0 6 17 7 41
4 30 -4 42 -1 46 9 3 8 15 14 27 12 18 -3 21 3 24 34 3 29 8 39 30 47 45 16
62 12 104 -24z m-1904 -36 c27 -24 36 -27 58 -19 19 8 29 6 40 -5 9 -8 20 -15
25 -15 6 0 8 -3 6 -7 -3 -5 -38 -6 -78 -3 -73 5 -74 5 -79 35 -4 17 -10 29
-16 28 -5 -1 -23 -4 -39 -8 l-30 -7 25 14 c36 21 51 18 88 -13z m-268 -3 c0
-8 -5 -18 -10 -21 -6 -4 -8 -11 -5 -16 3 -5 0 -6 -8 -3 -12 4 -12 10 -3 30 12
27 26 32 26 10z m441 4 c5 0 9 -4 9 -10 0 -5 -11 -10 -25 -10 -16 0 -25 6 -25
16 0 11 5 14 16 10 9 -3 20 -6 25 -6z m-381 -32 c0 -16 -3 -19 -11 -11 -6 6
-8 16 -5 22 11 17 16 13 16 -11z m30 2 c0 -5 -5 -10 -11 -10 -5 0 -7 5 -4 10
3 6 8 10 11 10 2 0 4 -4 4 -10z m1040 -54 c481 -2 1034 -5 1228 -5 l352 -1 0
-175 0 -175 -437 -2 c-241 0 -445 0 -453 1 -8 2 -442 4 -965 5 -522 2 -984 4
-1025 5 l-75 1 3 167 c2 93 4 173 6 178 2 6 92 9 247 8 134 -1 638 -5 1119 -7z"/>
<g>
<path d="M1725 4640 c3 -5 11 -10 16 -10 6 0 7 5 4 10 -3 6 -11 10 -16 10 -6
0 -7 -4 -4 -10z"/>
</g>
<g>
<path d="M1605 4564 c-22 -22 -6 -38 27 -25 14 5 35 7 47 4 23 -6 28 6 9 25
-17 17 -64 15 -83 -4z"/>
</g>
<g>
<path d="M2000 4565 c-17 -21 -9 -27 44 -31 50 -4 56 4 28 29 -23 21 -56 22
-72 2z"/>
</g>
<g>
<path d="M1870 4394 c0 -8 5 -12 10 -9 6 4 8 11 5 16 -9 14 -15 11 -15 -7z"/>
</g>
<g>
<path d="M1870 4350 c0 -5 5 -10 10 -10 6 0 10 5 10 10 0 6 -4 10 -10 10 -5 0
-10 -4 -10 -10z"/>
</g>
<g>
<path d="M1683 4343 c3 -5 24 -15 47 -23 31 -10 46 -11 65 -2 34 16 32 34 -2
25 -34 -9 -50 -8 -87 2 -18 5 -27 4 -23 -2z"/>
</g>
<g>
<path d="M1840 4326 c0 -9 5 -16 10 -16 6 0 10 4 10 9 0 6 -4 13 -10 16 -5 3
-10 -1 -10 -9z"/>
</g>
<g>
<path d="M1702 4288 c-8 -8 -8 -17 -1 -30 12 -22 29 -15 29 12 0 24 -13 33
-28 18z"/>
</g>
<g>
<path d="M1965 4280 c-3 -5 3 -10 14 -10 12 0 21 5 21 10 0 6 -6 10 -14 10 -8
0 -18 -4 -21 -10z"/>
</g>
<g>
<path d="M1890 4170 c0 -5 18 -10 40 -10 22 0 40 5 40 10 0 6 -18 10 -40 10
-22 0 -40 -4 -40 -10z"/>
</g>
<g>
<path d="M2046 4093 c-3 -4 -6 -18 -6 -32 l0 -25 20 22 c11 12 20 23 20 26 0
7 -28 15 -34 9z"/>
</g>
<g>
<path d="M1730 4039 c0 -5 5 -7 10 -4 6 3 10 8 10 11 0 2 -4 4 -10 4 -5 0 -10
-5 -10 -11z"/>
</g>
<g>
<path d="M1965 3990 c-3 -5 -1 -10 4 -10 6 0 11 5 11 10 0 6 -2 10 -4 10 -3 0
-8 -4 -11 -10z"/>
</g>
<g>
<path d="M2056 3711 c15 -14 54 -23 54 -13 0 11 -24 22 -48 22 -10 0 -12 -3
-6 -9z"/>
</g>
<g>
<path d="M2140 3680 c0 -5 5 -10 11 -10 5 0 7 5 4 10 -3 6 -8 10 -11 10 -2 0
-4 -4 -4 -10z"/>
</g>
<g>
<path d="M2095 3670 c3 -5 11 -10 16 -10 6 0 7 5 4 10 -3 6 -11 10 -16 10 -6
0 -7 -4 -4 -10z"/>
</g>
<g>
<path d="M1337 5010 c-16 -14 -19 -21 -11 -30 9 -9 17 -9 32 1 16 10 24 10 35
1 18 -15 29 -4 17 18 -14 26 -47 31 -73 10z"/>
</g>
<g>
<path d="M1642 5018 c-13 -13 -16 -41 -5 -52 4 -4 15 3 25 16 13 18 19 21 29
11 20 -20 31 -15 27 10 -2 16 -11 23 -33 25 -17 2 -36 -3 -43 -10z"/>
</g>
<g>
<path d="M1395 4819 c-10 -14 2 -24 31 -24 27 -1 30 5 12 23 -15 15 -35 15
-43 1z"/>
</g>
<g>
<path d="M1600 4810 c-17 -11 -13 -15 23 -24 29 -7 35 2 15 22 -14 14 -18 15
-38 2z"/>
</g>
<g>
<path d="M2120 4770 c0 -5 5 -10 10 -10 6 0 10 5 10 10 0 6 -4 10 -10 10 -5 0
-10 -4 -10 -10z"/>
</g>
<g>
<path d="M1265 4630 c-3 -5 1 -10 9 -10 9 0 16 5 16 10 0 6 -4 10 -9 10 -6 0
-13 -4 -16 -10z"/>
</g>
<g>
<path d="M1315 4590 c-14 -15 -16 -23 -7 -32 9 -9 16 -8 30 5 11 10 26 14 41
10 19 -5 22 -2 19 13 -5 28 -59 31 -83 4z"/>
</g>
<g>
<path d="M1187 4569 c-9 -6 -15 -15 -11 -20 4 -6 11 -6 19 1 10 8 16 7 24 -7
9 -15 12 -16 20 -3 7 9 6 19 -1 27 -13 15 -27 16 -51 2z"/>
</g>
<g>
<path d="M947 4582 c-17 -19 -23 -42 -10 -42 4 0 17 9 29 21 18 17 26 19 42
10 34 -18 47 -13 27 9 -23 25 -67 26 -88 2z"/>
</g>
<g>
<path d="M1495 4460 c-9 -14 -6 -17 20 -22 13 -2 20 3 20 12 0 18 -30 26 -40
10z"/>
</g>
<g>
<path d="M994 4275 c-9 -24 5 -36 26 -23 14 9 16 16 8 25 -14 17 -27 16 -34
-2z"/>
</g>
<g>
<path d="M1335 4021 c-3 -2 2 -12 11 -22 17 -19 12 -39 -11 -39 -8 0 -16 -4
-19 -8 -3 -5 26 -8 64 -8 42 1 68 5 66 11 -2 6 -22 9 -45 8 l-43 -2 26 26 c14
14 26 29 26 32 0 8 -68 10 -75 2z"/>
</g>
<g>
<path d="M1360 3920 c0 -5 4 -10 9 -10 6 0 13 5 16 10 3 6 -1 10 -9 10 -9 0
-16 -4 -16 -10z"/>
</g>
<g>
<path d="M964 4045 c-8 -19 2 -34 21 -31 23 3 29 14 15 31 -16 19 -29 19 -36
0z"/>
</g>
<g>
<path d="M1030 3744 c0 -8 5 -12 10 -9 6 4 8 11 5 16 -9 14 -15 11 -15 -7z"/>
</g>
<g>
<path d="M1086 3681 c-9 -10 -14 -25 -10 -35 8 -21 16 -20 37 4 34 41 9 71
-27 31z"/>
</g>
<g>
<path d="M1625 3440 c-4 -39 -6 -130 -4 -203 2 -72 0 -184 -5 -247 -11 -148 7
-136 22 15 16 157 20 497 5 502 -7 3 -13 -21 -18 -67z"/>
</g>
<g>
<path d="M1210 3282 c0 -100 4 -182 9 -182 9 0 7 347 -3 357 -3 3 -6 -75 -6
-175z"/>
</g>
<g>
<path d="M1589 3248 c-13 -34 -52 -401 -57 -533 -7 -157 -10 -184 -27 -207
-11 -15 -27 -28 -35 -28 -20 0 -96 -77 -87 -86 4 -4 25 7 46 24 22 18 47 32
55 32 8 0 25 21 37 48 20 40 24 71 30 217 3 94 16 233 27 310 34 221 34 225
23 225 -6 0 -11 -1 -12 -2z"/>
</g>
<g>
<path d="M1348 3104 c-5 -4 -8 -55 -8 -113 0 -58 -9 -155 -19 -216 -11 -64
-16 -114 -10 -119 10 -11 14 -1 29 67 6 27 8 52 5 57 -3 5 1 57 8 117 13 104
10 223 -5 207z"/>
</g>
<g>
<path d="M1486 2983 c-9 -168 -46 -387 -81 -479 -29 -77 -168 -142 -211 -99
-16 15 -54 21 -54 8 1 -16 72 -43 111 -43 51 0 136 57 163 108 17 34 53 176
77 305 6 33 12 103 14 155 2 51 6 97 9 100 12 12 6 62 -8 62 -11 0 -15 -26
-20 -117z"/>
</g>
<g>
<path d="M1343 2629 c-6 -8 -16 -30 -23 -49 -23 -66 -44 -82 -113 -89 -72 -7
-63 -25 12 -22 55 2 81 24 117 98 26 51 30 90 7 62z"/>
</g>
<g>
<path d="M879 2415 c-96 -35 -158 -85 -186 -147 -7 -16 -15 -63 -19 -106 -7
-85 4 -317 15 -307 3 4 6 88 6 188 1 205 7 232 65 287 64 61 197 91 244 55 25
-19 36 -19 36 -2 0 43 -85 60 -161 32z"/>
</g>
<g>
<path d="M1743 2405 c-17 -7 -41 -11 -52 -8 -35 9 -69 -5 -121 -52 -28 -25
-59 -45 -70 -45 -11 0 -42 -9 -70 -20 -78 -31 -153 -27 -226 11 -77 40 -103
48 -198 59 -72 9 -82 8 -118 -12 -43 -24 -74 -63 -58 -73 6 -4 22 3 36 14 15
12 33 21 40 21 8 0 14 5 14 10 0 14 139 13 181 -2 19 -6 56 -25 84 -42 70 -43
144 -47 254 -12 97 31 135 49 153 74 14 20 69 52 88 52 6 0 -20 -30 -57 -67
-69 -67 -118 -128 -190 -230 -24 -36 -43 -53 -57 -53 -12 0 -27 -5 -33 -11 -8
-8 -15 -6 -24 5 -12 14 -130 114 -225 191 -18 14 -37 25 -43 25 -6 0 -11 4
-11 9 0 11 -73 41 -101 41 -31 0 -17 -24 19 -31 43 -9 84 -35 203 -129 114
-91 131 -106 148 -137 19 -36 14 -45 -19 -38 -22 5 -30 3 -30 -7 0 -32 33
-127 65 -190 19 -36 43 -101 54 -145 25 -104 60 -181 107 -233 33 -36 36 -44
26 -61 -15 -24 3 -68 21 -50 7 7 6 15 -3 26 -7 8 -10 18 -7 21 3 3 17 -11 32
-30 15 -20 31 -36 36 -36 15 0 -18 56 -70 121 -61 76 -98 149 -112 224 -7 33
-27 94 -46 135 -35 75 -73 175 -73 192 0 4 14 8 31 8 31 0 31 1 26 35 -5 33
-4 35 22 35 23 0 39 15 93 83 35 45 78 103 95 128 46 66 187 179 226 179 9 0
17 7 17 15 0 18 -15 18 -57 0z"/>
</g>
<g>
<path d="M1863 2353 c-21 -8 -15 -27 23 -77 41 -54 73 -121 74 -153 0 -14 6
-23 15 -23 33 0 0 102 -59 179 -31 42 -32 51 -6 51 11 0 20 7 20 15 0 15 -39
20 -67 8z"/>
</g>
<g>
<path d="M1870 2210 c-8 -15 -5 -32 18 -77 52 -104 65 -166 59 -262 -10 -145
-46 -461 -58 -504 -7 -26 -8 -81 -4 -154 7 -109 8 -114 29 -111 15 2 22 11 24
32 3 26 2 28 -12 17 -14 -12 -16 -4 -16 85 0 55 5 128 11 164 6 36 17 133 25
215 7 83 19 195 25 249 12 109 10 117 -54 260 -22 49 -28 71 -19 74 17 5 15
32 -3 32 -8 0 -19 -9 -25 -20z"/>
</g>
<g>
<path d="M1452 2180 c-23 -21 -57 -41 -76 -44 -31 -6 -140 13 -165 29 -6 3
-11 -1 -11 -9 0 -24 36 -37 115 -43 81 -6 111 5 168 65 42 44 19 46 -31 2z"/>
</g>
<g>
<path d="M924 2166 c-70 -31 -112 -135 -100 -245 3 -31 21 -103 41 -160 19
-57 35 -112 35 -123 0 -29 19 -58 37 -58 22 0 12 57 -34 190 -41 120 -57 270
-33 316 21 38 92 75 129 68 36 -7 43 10 9 20 -33 8 -49 7 -84 -8z"/>
</g>
<g>
<path d="M941 1971 c-28 -28 -27 -77 6 -214 21 -90 27 -140 29 -257 1 -80 7
-174 13 -210 6 -39 7 -91 2 -130 -9 -67 -6 -84 9 -61 6 10 11 5 18 -20 5 -19
13 -42 17 -52 7 -17 6 -17 -34 -1 -35 14 -46 14 -65 5 -13 -7 -31 -11 -41 -9
-26 5 -29 -18 -6 -41 26 -26 44 -27 36 -2 -4 14 0 23 14 30 20 11 45 4 123
-34 22 -11 29 -11 38 0 9 10 8 19 -3 37 -22 34 -45 140 -57 253 -5 55 -14 123
-19 150 -5 28 -10 79 -11 115 0 36 -10 115 -21 175 -37 195 -39 218 -27 248
14 36 5 44 -21 18z"/>
</g>
<g>
<path d="M709 1809 c-9 -17 -12 -88 -11 -261 1 -178 -2 -256 -13 -310 -9 -39
-13 -85 -10 -102 4 -27 -2 -39 -43 -83 -40 -44 -57 -55 -95 -62 -35 -6 -56
-18 -82 -47 -19 -21 -35 -42 -35 -46 0 -17 16 -6 40 27 26 36 46 45 95 45 25
0 42 12 93 69 61 68 61 70 65 137 3 38 10 125 17 194 10 93 10 159 3 260 -6
80 -7 145 -1 159 12 34 -6 50 -23 20z"/>
</g>
<g>
<path d="M812 1578 c-2 -128 -13 -227 -38 -362 -9 -52 -11 -83 -4 -90 6 -6 11
-4 15 5 14 37 45 261 51 361 4 69 12 122 20 136 13 19 12 25 -2 47 -33 50 -40
32 -42 -97z"/>
</g>
<g>
<path d="M856 1564 c-3 -9 -6 -78 -6 -154 0 -117 -4 -151 -25 -226 -15 -53
-33 -93 -43 -99 -9 -5 -47 -41 -84 -78 -61 -63 -87 -101 -75 -113 10 -10 36 9
41 31 6 25 93 115 111 115 15 0 49 37 69 78 24 46 28 82 31 285 3 160 -2 206
-19 161z"/>
</g>
<g>
<path d="M1390 1417 c0 -2 7 -26 17 -53 15 -46 28 -68 87 -154 13 -19 27 -52
31 -73 16 -86 133 -237 185 -237 35 0 57 24 41 44 -9 11 -6 17 14 30 14 9 25
25 25 36 0 24 -1 24 -45 6 -35 -15 -49 -50 -22 -59 6 -2 9 -8 4 -12 -26 -29
-144 115 -171 209 -9 29 -38 87 -66 130 -27 42 -50 82 -50 89 -1 17 -25 47
-39 47 -6 0 -11 -1 -11 -3z"/>
</g>
<g>
<path d="M1593 1208 c1 -17 8 -33 15 -36 13 -4 16 25 6 52 -10 27 -22 18 -21
-16z"/>
</g>
<g>
<path d="M970 982 c0 -10 47 -55 80 -75 14 -8 51 -20 82 -27 32 -6 60 -15 63
-20 3 -4 22 -4 42 2 21 5 48 12 61 15 12 3 22 12 22 19 0 19 -54 18 -83 0 -19
-13 -30 -13 -92 4 -38 11 -73 20 -76 20 -4 0 -24 16 -45 35 -37 35 -54 43 -54
27z"/>
</g>
<g>
<path d="M666 3121 c-4 -5 -2 -12 3 -15 5 -4 12 -2 15 3 4 5 2 12 -3 15 -5 4
-12 2 -15 -3z"/>
</g>
<g>
<path d="M2075 3410 c3 -5 11 -10 16 -10 6 0 7 5 4 10 -3 6 -11 10 -16 10 -6
0 -7 -4 -4 -10z"/>
</g>
<g>
<path d="M1875 3311 c-3 -5 -1 -12 5 -16 6 -4 7 -12 3 -18 -4 -7 1 -6 10 2 13
10 15 17 6 27 -14 17 -16 17 -24 5z"/>
</g>
<g>
<path d="M2039 3003 c-13 -16 -12 -17 4 -4 9 7 17 15 17 17 0 8 -8 3 -21 -13z"/>
</g>
<g>
<path d="M1835 3070 c-3 -5 -1 -10 4 -10 6 0 11 5 11 10 0 6 -2 10 -4 10 -3 0
-8 -4 -11 -10z"/>
</g>
<g>
<path d="M1876 3052 c-4 -7 -5 -16 -2 -19 3 -3 1 -12 -5 -19 -6 -7 -6 -14 -1
-18 16 -10 29 17 22 44 -4 18 -8 21 -14 12z"/>
</g>
<g>
<path d="M2169 1255 c-1 -5 -3 -26 -4 -45 -1 -19 -5 -46 -9 -60 -8 -32 1 -76
17 -78 7 0 22 -4 35 -7 12 -4 22 -3 23 1 9 86 -1 133 -23 103 -8 -11 -9 -10
-4 4 3 9 1 17 -4 17 -6 0 -10 10 -10 23 0 23 -18 59 -21 42z m4 -145 c3 -11 1
-18 -4 -14 -5 3 -9 12 -9 20 0 20 7 17 13 -6z"/>
</g>
<g>
<path d="M2317 1146 c-4 -10 -1 -13 8 -9 8 3 12 9 9 14 -7 12 -11 11 -17 -5z"/>
</g>
<g>
<path d="M2256 1131 c-4 -5 -2 -12 3 -15 5 -4 12 -2 15 3 4 5 2 12 -3 15 -5 4
-12 2 -15 -3z"/>
</g>
<g>
<path d="M2358 1083 c-19 -21 -24 -43 -9 -43 15 0 33 28 29 46 -3 14 -5 14
-20 -3z"/>
</g>
<g>
<path d="M2252 1058 c-17 -17 -15 -38 3 -38 9 0 15 9 15 25 0 29 -1 30 -18 13z"/>
</g>
<g>
<path d="M95 680 c-3 -5 1 -10 9 -10 9 0 16 5 16 10 0 6 -4 10 -9 10 -6 0 -13
-4 -16 -10z"/>
</g>
<g>
<path d="M155 679 c-10 -15 3 -25 16 -12 7 7 7 13 1 17 -6 3 -14 1 -17 -5z"/>
</g>
<g>
<path d="M240 640 c0 -5 5 -10 10 -10 6 0 10 5 10 10 0 6 -4 10 -10 10 -5 0
-10 -4 -10 -10z"/>
</g>
<g>
<path d="M267 273 c8 -30 7 -29 3 -123 l-4 -65 33 -3 33 -3 -7 39 c-9 57 7 59
57 6 l43 -45 82 -2 c45 -1 84 1 88 4 8 9 14 209 6 213 -14 8 -80 -7 -74 -17 9
-15 3 -160 -8 -173 -21 -26 -97 4 -134 52 l-25 33 47 32 c70 48 80 59 62 70
-22 13 -49 11 -49 -5 0 -8 -8 -17 -19 -21 -10 -3 -26 -14 -36 -25 -31 -34 -48
-26 -40 20 l7 40 -36 0 c-35 0 -36 -1 -29 -27z"/>
</g>
<g>
<path d="M645 190 l0 -110 35 0 35 0 -3 83 -3 82 43 -80 c36 -67 47 -80 68
-80 25 0 25 1 28 90 2 56 7 92 15 97 16 10 -9 28 -40 28 -24 0 -31 -14 -13
-25 11 -7 14 -145 3 -144 -5 0 -26 37 -48 82 -39 81 -41 82 -80 85 l-40 3 0
-111z"/>
</g>
<g>
<path d="M927 282 c-50 -20 -74 -120 -39 -160 20 -23 72 -42 117 -42 28 0 33
4 38 30 9 45 -1 60 -38 60 -44 0 -54 -17 -18 -32 l28 -12 -25 -4 c-47 -8 -79
74 -50 129 14 25 50 25 50 1 0 -25 7 -31 31 -25 13 4 19 14 19 34 0 28 -2 29
-47 28 -27 0 -56 -4 -66 -7z"/>
</g>
<g>
<path d="M1433 280 c-35 -14 -46 -45 -28 -80 12 -23 22 -30 44 -30 36 0 51
-18 40 -47 -9 -26 -30 -23 -66 9 -27 25 -58 20 -58 -9 0 -12 -3 -25 -7 -29
-19 -18 -3 -21 80 -17 102 6 122 18 122 73 0 46 -17 61 -61 58 -28 -2 -34 1
-34 16 0 10 8 24 18 30 14 9 20 7 28 -7 12 -21 29 -13 29 13 0 29 -57 40 -107
20z"/>
</g>
<g>
<path d="M1578 284 c-6 -5 8 -40 22 -54 3 -3 11 -23 19 -45 21 -60 59 -115 75
-109 7 3 16 22 20 42 7 40 25 73 32 57 19 -43 52 -90 66 -93 12 -2 22 13 37
53 29 77 59 135 71 135 6 0 10 3 10 8 0 9 -77 8 -87 -1 -3 -4 1 -7 10 -7 10 0
17 -3 17 -7 0 -15 -45 -113 -52 -113 -9 0 -57 103 -52 112 3 5 14 8 25 8 11 0
17 5 14 10 -7 11 -98 14 -108 4 -4 -4 1 -20 10 -35 16 -27 16 -31 -1 -66 l-18
-38 -23 48 c-13 27 -25 58 -27 70 -2 15 -11 23 -28 25 -14 2 -29 0 -32 -4z"/>
</g>
<g>
<path d="M1953 264 c-36 -27 -58 -82 -48 -116 27 -87 157 -105 184 -26 40 113
-52 208 -136 142z m84 -24 c7 -14 13 -46 13 -72 0 -59 -25 -82 -71 -65 -16 6
-29 17 -29 23 0 30 21 119 32 131 16 20 40 12 55 -17z"/>
</g>
<g>
<path d="M2122 283 c-10 -4 -10 -8 -1 -19 7 -9 10 -46 8 -104 l-4 -90 26 0
c25 0 26 2 25 56 -1 73 15 79 45 19 24 -48 66 -79 88 -66 9 6 2 18 -23 43 -41
41 -45 67 -16 93 46 41 13 75 -73 73 -34 0 -68 -3 -75 -5z m113 -38 c0 -14 -8
-21 -27 -23 -24 -3 -28 0 -28 23 0 23 4 26 28 23 19 -2 27 -9 27 -23z"/>
</g>
<g>
<path d="M2320 271 c0 -5 4 -11 9 -13 6 -1 11 -44 13 -95 l3 -92 35 -6 c37 -6
98 13 117 37 17 20 26 76 18 115 -5 27 -13 38 -40 49 -38 15 -155 19 -155 5z
m134 -20 c4 -5 9 -36 12 -69 6 -54 5 -60 -17 -76 -13 -9 -31 -16 -41 -16 -16
0 -18 10 -18 85 l0 85 29 0 c17 0 32 -4 35 -9z"/>
</g>
<g>
<path d="M2563 263 c-16 -11 -23 -26 -23 -49 0 -28 4 -35 25 -39 14 -3 36 -7
49 -10 29 -6 45 -43 25 -56 -24 -15 -79 -11 -79 6 0 20 -13 19 -33 -3 -31 -34
-21 -42 51 -43 74 -1 105 1 112 7 2 3 4 28 5 57 l0 52 -40 3 c-22 2 -45 8 -52
14 -18 15 -16 58 2 58 8 0 15 -6 15 -14 0 -7 6 -19 14 -25 12 -10 17 -8 26 9
6 12 9 28 6 36 -7 19 -75 17 -103 -3z"/>
</g>
<g>
<path d="M1227 263 c-14 -13 -6 -45 19 -79 31 -40 38 -109 14 -124 -13 -8 -12
-10 2 -10 23 0 50 43 53 83 1 18 5 40 10 51 9 20 -11 39 -34 31 -14 -6 -41 11
-41 26 0 5 7 9 15 9 8 0 15 5 15 10 0 11 -43 14 -53 3z"/>
</g>
<g>
<path d="M1146 165 c-23 -23 -20 -42 9 -61 21 -14 31 -15 51 -5 21 9 25 17 22
44 -3 28 -7 32 -34 35 -19 2 -38 -3 -48 -13z m64 -25 c0 -13 -7 -20 -20 -20
-11 0 -20 2 -20 4 0 2 -3 11 -6 20 -5 12 0 16 20 16 19 0 26 -5 26 -20z"/>
</g>
<g>
<path d="M2757 93 c-12 -11 -8 -33 6 -33 6 0 19 5 27 10 13 9 13 11 0 20 -18
12 -24 12 -33 3z"/>
</g>
</g>
<g>
<path d="M2540 4161 c0 -5 13 -12 29 -16 16 -3 35 -13 41 -20 9 -11 16 -12 31
-2 15 9 22 8 39 -11 22 -23 35 -27 44 -13 10 16 -41 53 -63 46 -13 -4 -27 -1
-37 9 -16 17 -84 22 -84 7z"/>
</g>
<g>
<path d="M2463 4086 c-30 -16 -34 -21 -19 -24 10 -2 23 1 29 7 14 14 44 14 49
0 3 -8 10 -8 25 2 19 11 25 11 43 -6 16 -15 23 -16 33 -6 9 10 7 16 -12 29
-34 23 -103 22 -148 -2z"/>
</g>
</g>
</svg>
