<?xml version="1.0" standalone="no"?>
<!DOCTYPE svg PUBLIC "-//W3C//DTD SVG 20010904//EN"
 "http://www.w3.org/TR/2001/REC-SVG-20010904/DTD/svg10.dtd">
<svg version="1.0" xmlns="http://www.w3.org/2000/svg"
 width="300.000000pt" height="522.000000pt" viewBox="0 0 300.000000 522.000000"
 preserveAspectRatio="xMidYMid meet">
<metadata>
Created by potrace 1.15, written by Peter Selinger 2001-2017
</metadata>
<g transform="translate(0.000000,522.000000) scale(0.100000,-0.100000)"
fill="#000000" stroke="none">
<g>
<path d="M13 5193 c-4 -16 -8 -1187 -8 -2603 l0 -2575 1497 0 1498 0 -2 2045
c-1 1125 -3 2022 -5 1993 l-4 -52 -35 1 c-19 1 -40 -4 -46 -10 -21 -21 -30
-13 -24 22 12 65 -30 78 -161 50 -27 -5 -33 -3 -33 10 0 9 -4 16 -10 16 -5 0
-10 -9 -10 -20 0 -10 -6 -23 -14 -27 -7 -4 -23 -24 -35 -43 -21 -34 -22 -41
-15 -267 5 -159 4 -233 -3 -233 -15 0 -21 35 -19 118 2 84 -8 101 -24 41 -11
-39 -13 -41 -41 -35 -28 5 -30 4 -27 -22 3 -23 7 -27 30 -24 18 2 30 -4 37
-17 13 -24 6 -43 -34 -97 -16 -23 -39 -56 -50 -75 -35 -58 -40 -67 -54 -83
-11 -13 -11 -19 -1 -31 10 -12 9 -16 -3 -21 -20 -7 -92 13 -103 29 -12 16 -2
407 11 427 5 8 10 32 11 53 1 21 8 46 16 55 23 27 38 70 38 106 0 21 6 36 15
40 8 3 15 17 15 31 0 15 6 25 14 25 23 0 37 55 21 77 -17 21 -19 53 -5 53 16
0 12 66 -5 80 -19 16 -19 30 -1 30 16 0 45 57 53 106 7 42 -1 43 -72 10 -29
-14 -69 -25 -92 -24 -22 0 -50 -3 -62 -7 -12 -4 -27 -2 -34 3 -7 6 -33 13 -59
17 -45 7 -48 6 -48 -14 0 -13 -10 -26 -25 -33 -14 -6 -25 -19 -25 -30 0 -10
-5 -18 -11 -18 -20 0 -49 21 -49 35 0 9 -5 24 -12 35 -18 29 -4 34 42 16 47
-19 60 -20 60 -6 0 6 -8 10 -17 10 -10 0 -31 7 -47 15 -40 21 -67 19 -73 -5
-7 -27 -24 -21 -41 13 -11 23 -16 25 -33 17 -10 -6 -19 -17 -19 -25 0 -24 -37
-28 -59 -6 -12 12 -28 21 -36 21 -7 0 -18 7 -23 17 -9 15 -12 15 -50 0 -40
-16 -72 -14 -72 4 0 5 -9 9 -20 9 -27 0 -70 29 -70 46 0 17 -32 18 -48 2 -7
-7 -12 -18 -12 -26 0 -18 -40 -51 -63 -52 -17 0 -39 -38 -30 -52 2 -5 -2 -17
-10 -28 -10 -14 -13 -36 -9 -65 2 -25 2 -45 -1 -45 -3 0 -18 11 -33 25 -15 14
-38 25 -50 25 -29 0 -32 20 -5 27 11 3 21 13 24 23 3 13 11 17 24 14 11 -3 25
2 34 12 12 16 12 17 -4 11 -10 -4 -30 -7 -44 -7 -15 0 -27 -7 -30 -17 -2 -10
-16 -26 -29 -36 -20 -15 -28 -16 -39 -7 -12 10 -22 7 -51 -15 -29 -22 -34 -32
-30 -51 4 -14 2 -24 -4 -24 -5 0 -10 7 -10 15 0 8 -5 15 -11 15 -6 0 -9 -9 -6
-19 6 -23 -9 -31 -46 -24 -17 3 -27 13 -29 26 -2 12 -15 28 -30 35 l-27 12 26
28 c32 34 46 70 38 99 -7 29 -17 29 -64 -2 -34 -23 -46 -25 -104 -21 -37 3
-69 1 -72 -4 -7 -12 46 -23 58 -11 6 6 18 4 33 -6 30 -19 33 -63 4 -70 -23 -6
-27 -28 -5 -37 36 -13 10 -54 -44 -68 -11 -3 -15 -23 -16 -74 -2 -87 -16 -124
-48 -124 -21 0 -24 4 -22 34 1 18 5 37 7 42 3 5 3 33 1 62 -5 42 -9 52 -24 52
-25 0 -69 39 -69 62 0 23 -41 33 -70 18 -12 -6 -24 -10 -26 -7 -7 6 16 22 54
37 28 11 35 10 50 -2 9 -9 29 -18 44 -22 14 -3 34 -9 43 -12 14 -6 16 -1 13
27 -2 21 -8 33 -15 32 -7 -2 -13 4 -13 12 0 26 -27 16 -34 -11 -6 -21 -10 -24
-19 -15 -9 9 -9 16 1 31 6 11 12 27 12 35 0 18 21 20 38 3 15 -15 26 -4 19 17
-5 11 -22 15 -72 15 -36 0 -65 4 -65 8 0 18 -49 32 -75 22 -37 -14 -30 -55 18
-107 l20 -23 -26 -21 c-30 -22 -33 -39 -15 -68 9 -15 8 -24 -5 -45 -19 -28
-22 -71 -7 -81 6 -3 10 -18 10 -32 0 -15 8 -35 17 -45 14 -16 15 -21 3 -28
-18 -11 -17 -66 2 -87 9 -10 19 -43 23 -73 4 -30 15 -71 25 -90 9 -19 20 -52
23 -73 5 -35 2 -43 -35 -83 -23 -25 -47 -43 -54 -40 -7 3 -16 -3 -19 -13 -3
-10 -17 -23 -31 -29 -27 -13 -63 -82 -64 -121 0 -44 -20 -9 -42 75 -11 43 -20
96 -20 116 1 29 -3 40 -20 49 -19 10 -19 12 -5 21 20 11 23 56 4 64 -8 3 -26
0 -42 -6 -15 -6 -30 -8 -33 -5 -9 9 71 74 100 80 16 4 39 20 51 37 19 25 27
29 61 26 45 -3 62 18 23 27 -29 8 -58 -5 -105 -46 -43 -38 -66 -38 -59 -1 3
15 8 37 12 50 5 14 3 22 -4 22 -15 0 -43 -71 -37 -94 3 -13 -7 -33 -29 -58
-19 -21 -35 -45 -35 -53 0 -10 -10 -15 -29 -15 -34 0 -81 -34 -81 -60 0 -10
12 -28 26 -39 20 -15 31 -18 50 -11 21 8 24 7 24 -14 0 -19 -7 -24 -34 -29
-51 -8 -129 14 -141 41 -5 12 -15 20 -22 18 -6 -3 -15 1 -20 7 -5 7 -7 373 -3
837 l5 824 1470 0 1470 0 5 -290 5 -289 3 303 2 302 -1490 0 -1490 0 -7 -27z
m1527 -743 c0 -5 -4 -10 -10 -10 -5 0 -10 5 -10 10 0 6 5 10 10 10 6 0 10 -4
10 -10z m88 -51 c-2 -6 -8 -10 -13 -10 -5 0 -11 4 -13 10 -2 6 4 11 13 11 9 0
15 -5 13 -11z m-75 -6 c-7 -2 -19 -2 -25 0 -7 3 -2 5 12 5 14 0 19 -2 13 -5z
m212 -17 c11 -5 26 -10 33 -12 6 -2 12 -8 12 -14 0 -5 -6 -10 -12 -10 -22 -1
-58 -37 -58 -59 0 -12 -6 -21 -15 -21 -10 0 -14 10 -13 34 2 43 -20 74 -49 70
-13 -2 -23 0 -23 5 0 18 84 22 125 7z m-1135 -21 c8 -7 24 -15 35 -17 12 -2
20 -11 20 -23 0 -17 -7 -20 -40 -20 -33 0 -43 5 -62 34 -13 19 -23 38 -23 44
0 12 50 0 70 -18z m820 21 c0 -3 -4 -8 -10 -11 -5 -3 -10 -1 -10 4 0 6 5 11
10 11 6 0 10 -2 10 -4z m-427 -24 c8 -12 -44 -92 -59 -92 -25 0 -16 52 14 77
29 24 38 27 45 15z m1447 -1 c0 -13 -44 -73 -62 -85 -21 -13 -24 -10 -32 35
-6 34 -5 37 26 46 42 14 68 15 68 4z m-262 -13 c16 -16 15 -28 -3 -28 -7 0
-19 8 -24 18 -8 12 -10 13 -11 3 0 -8 -3 -12 -6 -8 -9 8 5 27 20 27 6 0 17 -5
24 -12z m-523 -8 c7 -11 -5 -63 -13 -56 -3 3 -6 19 -7 36 -3 29 8 40 20 20z
m653 -13 c2 -10 -3 -17 -12 -17 -8 0 -18 -9 -21 -21 -6 -16 -9 -18 -22 -8 -11
10 -16 10 -22 0 -6 -9 -10 -8 -15 6 -7 17 -8 17 -22 -1 -17 -25 -29 -15 -15
12 12 22 46 37 74 33 9 -1 17 3 17 9 0 18 34 7 38 -13z m-898 5 c0 -4 -5 -13
-11 -19 -8 -8 -8 -17 0 -31 15 -28 14 -52 -3 -52 -18 0 -31 77 -15 96 13 15
29 19 29 6z m200 -2 c0 -5 -4 -10 -10 -10 -5 0 -10 5 -10 10 0 6 5 10 10 10 6
0 10 -4 10 -10z m159 -52 c1 -5 -6 -8 -14 -8 -15 0 -21 31 -8 44 7 6 20 -17
22 -36z m384 10 c-6 -31 -23 -38 -23 -10 0 16 20 46 26 39 1 -1 0 -14 -3 -29z
m-703 1 c0 -5 -4 -9 -10 -9 -5 0 -10 7 -10 16 0 8 5 12 10 9 6 -3 10 -10 10
-16z m166 -20 c51 -29 61 -31 119 -26 62 6 63 6 68 -21 3 -15 1 -31 -4 -36
-12 -13 -12 -26 0 -26 5 0 12 11 15 25 3 13 15 29 26 35 19 10 23 9 18 -7 -2
-4 17 -12 41 -18 73 -18 65 -37 -14 -34 -45 2 -69 -2 -75 -10 -6 -10 -13 -10
-36 2 -16 8 -35 12 -42 10 -7 -3 -19 0 -27 7 -19 16 -147 15 -177 -1 -12 -7
-31 -14 -40 -16 -9 -1 -34 -12 -55 -24 -21 -12 -58 -32 -82 -45 l-43 -24 -29
21 c-52 37 -33 67 62 98 45 15 78 34 107 61 25 25 51 40 66 40 14 0 28 5 31
10 9 14 9 14 71 -21z m368 2 c3 -4 -5 -18 -18 -30 -27 -25 -43 -13 -26 19 11
20 35 27 44 11z m-799 -10 c3 -5 1 -12 -5 -16 -5 -3 -10 1 -10 9 0 18 6 21 15
7z m920 -21 c11 -4 33 -13 48 -19 15 -6 40 -11 55 -11 37 -1 65 -23 50 -38 -7
-7 -18 -12 -26 -12 -10 0 -12 -6 -7 -17 25 -58 29 -92 13 -110 -10 -11 -14
-28 -11 -44 3 -19 0 -28 -12 -33 -27 -10 -47 12 -34 36 8 15 6 25 -6 44 -10
16 -15 41 -13 70 3 44 2 46 -32 57 -19 7 -40 23 -46 36 -15 30 -34 42 -56 35
-17 -5 -24 6 -12 19 7 7 58 0 89 -13z m95 0 c0 -5 -4 -10 -10 -10 -5 0 -10 5
-10 10 0 6 5 10 10 10 6 0 10 -4 10 -10z m130 -4 c0 -24 -15 -26 -28 -5 -11
16 -9 19 8 19 11 0 20 -6 20 -14z m-1400 -6 c0 -5 -7 -10 -15 -10 -8 0 -15 5
-15 10 0 6 7 10 15 10 8 0 15 -4 15 -10z m366 -5 c11 -27 -1 -30 -25 -7 -24
22 -24 22 -2 22 12 0 24 -7 27 -15z m634 -5 c0 -5 -4 -10 -10 -10 -5 0 -10 5
-10 10 0 6 5 10 10 10 6 0 10 -4 10 -10z m467 -32 c-3 -7 -5 -2 -5 12 0 14 2
19 5 13 2 -7 2 -19 0 -25z m-1127 13 c0 -6 -4 -13 -10 -16 -5 -3 -10 1 -10 9
0 9 5 16 10 16 6 0 10 -4 10 -9z m-83 -37 c-9 -9 -28 6 -21 18 4 6 10 6 17 -1
6 -6 8 -13 4 -17z m443 -4 c0 -5 -5 -10 -11 -10 -5 0 -7 5 -4 10 3 6 8 10 11
10 2 0 4 -4 4 -10z m-390 -8 c0 -13 -12 -22 -22 -16 -10 6 -1 24 13 24 5 0 9
-4 9 -8z m330 -2 c0 -5 -7 -10 -15 -10 -8 0 -15 5 -15 10 0 6 7 10 15 10 8 0
15 -4 15 -10z m125 0 c3 -5 -1 -10 -9 -10 -9 0 -16 5 -16 10 0 6 4 10 9 10 6
0 13 -4 16 -10z m-1020 -10 c3 -5 1 -10 -4 -10 -6 0 -11 5 -11 10 0 6 2 10 4
10 3 0 8 -4 11 -10z m255 -9 c0 -6 -5 -13 -11 -17 -8 -4 -2 -12 15 -21 29 -15
36 -46 9 -41 -21 4 -47 53 -39 74 6 16 26 19 26 5z m1200 -1 c0 -5 -4 -10 -9
-10 -6 0 -13 5 -16 10 -3 6 1 10 9 10 9 0 16 -4 16 -10z m-980 -21 c0 -5 -4
-9 -10 -9 -5 0 -10 7 -10 16 0 8 5 12 10 9 6 -3 10 -10 10 -16z m345 11 c-3
-5 -10 -10 -16 -10 -5 0 -9 5 -9 10 0 6 7 10 16 10 8 0 12 -4 9 -10z m805 -29
c-6 -12 -15 -19 -21 -16 -13 8 -11 23 4 40 17 19 31 1 17 -24z m-730 19 c0 -5
-7 -10 -15 -10 -8 0 -15 5 -15 10 0 6 7 10 15 10 8 0 15 -4 15 -10z m57 4 c-3
-3 -12 -4 -19 -1 -8 3 -5 6 6 6 11 1 17 -2 13 -5z m50 0 c-3 -3 -12 -4 -19 -1
-8 3 -5 6 6 6 11 1 17 -2 13 -5z m-1077 -14 c0 -5 -4 -10 -10 -10 -5 0 -10 5
-10 10 0 6 5 10 10 10 6 0 10 -4 10 -10z m108 -18 c14 -19 16 -42 2 -42 -16 0
-60 42 -60 57 0 18 40 8 58 -15z m165 11 c-3 -10 -12 -27 -20 -38 -13 -19 -13
-19 -13 4 0 13 8 30 18 37 22 17 23 17 15 -3z m567 7 c0 -5 -7 -10 -16 -10 -8
0 -12 5 -9 10 3 6 10 10 16 10 5 0 9 -4 9 -10z m-207 -12 c28 -14 38 -34 11
-24 -9 3 -27 9 -40 12 -13 3 -21 10 -18 15 7 12 15 11 47 -3z m1134 -10 c-3
-8 -6 -5 -6 6 -1 11 2 17 5 13 3 -3 4 -12 1 -19z m-302 2 c3 -6 -4 -10 -17
-10 -18 0 -20 2 -8 10 19 12 18 12 25 0z m65 -10 c0 -18 -2 -19 -20 -8 -11 7
-20 16 -20 20 0 5 9 8 20 8 13 0 20 -7 20 -20z m280 4 c0 -8 -4 -12 -10 -9 -5
3 -10 10 -10 16 0 5 5 9 10 9 6 0 10 -7 10 -16z m-1020 -4 c0 -5 -4 -10 -10
-10 -5 0 -10 5 -10 10 0 6 5 10 10 10 6 0 10 -4 10 -10z m50 -10 c0 -5 -4 -10
-10 -10 -5 0 -10 5 -10 10 0 6 5 10 10 10 6 0 10 -4 10 -10z m-168 -50 c-3
-35 -1 -50 7 -50 8 0 10 8 6 20 -3 11 -3 20 2 20 9 0 33 -48 33 -66 0 -7 -6
-15 -12 -18 -10 -5 -10 -7 0 -12 17 -8 15 -63 -3 -98 -8 -15 -15 -42 -15 -58
0 -16 -9 -41 -20 -55 -11 -14 -20 -31 -20 -38 0 -6 -15 -19 -32 -27 -88 -41
-128 -57 -128 -49 0 8 90 51 107 51 5 0 16 12 25 28 9 15 26 38 37 51 12 13
19 32 16 41 -3 8 4 33 15 55 25 50 25 77 0 93 -12 7 -18 17 -15 22 4 6 -1 17
-10 26 -11 12 -14 26 -9 52 12 78 23 85 16 12z m398 33 l35 -6 -32 -13 c-38
-16 -43 -45 -16 -101 13 -28 14 -39 5 -54 -7 -10 -12 -26 -12 -34 0 -8 -5 -15
-10 -15 -6 0 -27 -7 -47 -15 -28 -12 -34 -18 -25 -27 9 -9 15 -9 24 0 7 7 24
12 39 12 35 0 79 17 79 30 0 5 -9 10 -20 10 -21 0 -27 15 -9 25 6 5 8 22 4 47
-5 30 -4 39 5 33 6 -4 17 1 25 11 27 38 33 -3 17 -126 -12 -92 -18 -106 -45
-114 -35 -9 -103 -7 -134 5 -15 6 -28 9 -29 7 0 -2 -9 3 -18 11 -12 10 -16 26
-15 53 3 30 -1 41 -19 54 -26 18 -30 70 -7 100 12 16 14 17 15 2 0 -33 90 -34
90 -1 0 12 -8 14 -34 10 -23 -4 -36 -1 -39 8 -7 17 54 30 64 14 4 -8 11 -4 19
11 16 30 6 36 -33 22 -40 -14 -57 -15 -57 -3 0 5 14 11 30 15 17 3 33 11 35
18 6 15 62 20 115 11z m337 1 c-3 -3 -12 -4 -19 -1 -8 3 -5 6 6 6 11 1 17 -2
13 -5z m-862 -14 c-28 -12 -47 -12 -40 0 3 6 18 10 33 9 24 0 25 -1 7 -9z m57
-17 c-5 -24 -6 -25 -12 -8 -8 21 -4 35 9 35 5 0 6 -12 3 -27z m140 2 c3 -13 3
-27 0 -30 -9 -9 -32 17 -32 36 0 28 27 23 32 -6z m458 5 c0 -11 -2 -20 -5 -20
-2 0 -9 9 -15 20 -9 16 -8 20 5 20 8 0 15 -9 15 -20z m88 3 c-5 -24 -27 -28
-25 -4 1 12 7 21 15 21 7 0 12 -8 10 -17z m-1195 -14 c-4 -15 -9 -17 -17 -9
-8 8 -7 13 4 20 8 5 16 10 17 10 0 0 -1 -9 -4 -21z m707 17 c0 -11 -19 -15
-25 -6 -3 5 1 10 9 10 9 0 16 -2 16 -4z m580 -11 c-7 -9 -15 -13 -17 -11 -7 7
7 26 19 26 6 0 6 -6 -2 -15z m-929 -8 c8 -7 24 -25 33 -42 17 -29 17 -28 -14
5 l-32 35 7 -30 c6 -26 5 -28 -8 -15 -22 22 -31 60 -15 60 7 0 20 -6 29 -13z
m648 -28 c-20 -13 -29 -11 -29 5 0 16 33 27 39 13 2 -5 -3 -13 -10 -18z m-847
-1 c-7 -7 -12 -8 -12 -2 0 14 12 26 19 19 2 -3 -1 -11 -7 -17z m278 6 c0 -8
-4 -12 -10 -9 -5 3 -10 10 -10 16 0 5 5 9 10 9 6 0 10 -7 10 -16z m790 12 c0
-3 -4 -8 -10 -11 -5 -3 -10 -1 -10 4 0 6 5 11 10 11 6 0 10 -2 10 -4z m136
-25 c-4 -6 -13 -11 -19 -11 -8 0 -7 3 2 9 8 5 10 14 6 22 -6 11 -5 11 5 2 7
-6 9 -16 6 -22z m704 -15 c0 -29 6 -51 18 -62 16 -17 16 -18 0 -11 -15 5 -18
0 -18 -31 0 -25 -9 -50 -25 -72 -14 -19 -25 -37 -25 -41 0 -4 -16 -35 -35 -69
-36 -63 -43 -94 -25 -105 12 -8 13 -185 1 -185 -5 0 -11 8 -15 18 -3 9 -14 30
-23 45 -16 26 -17 50 -13 238 3 115 2 209 -2 209 -5 0 -8 13 -8 30 0 32 34 60
51 43 6 -6 28 -1 57 13 26 13 50 24 55 24 4 0 7 -20 7 -44z m168 14 c9 -16 20
-30 25 -30 4 0 7 -18 7 -40 0 -32 -4 -40 -18 -40 -10 0 -23 -5 -30 -12 -9 -9
-15 -9 -24 0 -8 8 -17 8 -31 0 -18 -9 -19 -8 -14 21 5 23 3 31 -8 31 -8 0 -15
3 -15 8 0 11 71 92 82 92 5 0 17 -13 26 -30z m-963 0 c-10 -12 -25 -18 -32
-16 -7 3 -20 -8 -29 -25 -8 -17 -18 -28 -21 -25 -7 7 36 76 48 76 5 0 9 -5 9
-12 0 -8 6 -6 17 5 24 24 30 21 8 -3z m-151 -30 c4 -25 3 -31 -4 -20 -5 8 -10
26 -10 39 0 32 6 24 14 -19z m-1199 10 c3 -5 2 -10 -4 -10 -5 0 -13 5 -16 10
-3 6 -2 10 4 10 5 0 13 -4 16 -10z m283 -2 c15 -15 16 -38 2 -38 -5 0 -10 7
-10 15 0 8 -4 15 -10 15 -5 0 -10 5 -10 10 0 14 13 13 28 -2z m-188 -18 c0 -5
-5 -10 -11 -10 -5 0 -7 5 -4 10 3 6 8 10 11 10 2 0 4 -4 4 -10z m120 0 c0 -5
-4 -10 -10 -10 -5 0 -10 5 -10 10 0 6 5 10 10 10 6 0 10 -4 10 -10z m150 0 c0
-5 -4 -10 -10 -10 -5 0 -10 5 -10 10 0 6 5 10 10 10 6 0 10 -4 10 -10z m957
-13 c-7 -7 -21 -25 -31 -40 -10 -16 -20 -26 -23 -23 -9 9 48 86 59 80 5 -3 3
-11 -5 -17z m-876 0 c-1 -12 -15 -9 -19 4 -3 6 1 10 8 8 6 -3 11 -8 11 -12z
m189 -2 c0 -8 5 -15 10 -15 6 0 10 -11 10 -25 0 -28 -24 -34 -54 -12 -15 11
-16 17 -5 40 13 29 39 37 39 12z m784 -39 c-8 -34 -15 -28 -21 21 -4 35 -4 37
12 22 11 -11 14 -24 9 -43z m111 27 c-8 -34 -20 -47 -34 -39 -12 8 -15 49 -4
59 3 4 15 7 26 7 16 0 18 -5 12 -27z m-1361 -5 c13 -22 -5 -44 -28 -35 -22 9
-22 60 0 55 9 -2 22 -11 28 -20z m341 -21 c6 -32 -8 -42 -35 -25 -23 15 -27
33 -5 24 11 -4 15 2 15 21 0 33 18 19 25 -20z m-445 12 c0 -18 -2 -19 -15 -9
-8 7 -15 16 -15 21 0 5 7 9 15 9 9 0 15 -9 15 -21z m1530 1 c0 -11 -7 -20 -15
-20 -8 0 -15 2 -15 4 0 2 -3 11 -6 20 -4 12 0 16 15 16 14 0 21 -6 21 -20z
m-1209 -2 c22 14 25 2 9 -29 -14 -24 -35 -24 -60 1 -28 28 -25 42 6 28 20 -9
30 -9 45 0z m844 -46 c-4 -20 -2 -39 6 -48 8 -10 8 -14 0 -14 -20 0 -36 47
-22 64 10 12 10 20 0 38 -11 21 -11 22 5 9 13 -11 16 -23 11 -49z m148 25 c4
3 7 2 7 -4 0 -6 -7 -16 -15 -23 -12 -10 -16 -8 -24 11 -11 30 -2 47 14 26 7
-9 15 -14 18 -10z m-794 -36 c-7 -2 -18 4 -26 15 -22 30 -15 39 13 13 16 -15
21 -25 13 -28z m876 39 c3 -5 -1 -10 -9 -10 -9 0 -16 5 -16 10 0 6 4 10 9 10
6 0 13 -4 16 -10z m715 -26 c0 -8 -5 -12 -10 -9 -6 4 -8 11 -5 16 9 14 15 11
15 -7z m-2173 -26 c-3 -8 -6 -5 -6 6 -1 11 2 17 5 13 3 -3 4 -12 1 -19z m1563
7 c0 -8 -7 -15 -15 -15 -9 0 -12 6 -9 15 4 8 10 15 15 15 5 0 9 -7 9 -15z
m700 -5 c0 -12 7 -20 16 -20 9 0 18 9 21 20 3 11 14 20 24 20 22 0 23 -36 12
-352 -6 -174 -8 -188 -25 -188 -11 0 -18 -7 -18 -18 0 -21 -36 -59 -46 -49 -4
4 0 17 9 30 12 18 15 56 16 162 1 76 6 144 11 150 7 8 3 27 -11 56 -12 24 -28
56 -35 71 -11 23 -10 88 2 126 6 20 24 14 24 -8z m-2120 -15 c22 -24 22 -25 4
-25 -11 0 -29 7 -40 15 -16 13 -17 16 -4 25 8 5 15 10 16 10 0 0 11 -11 24
-25z m60 5 c0 -5 -4 -10 -10 -10 -5 0 -10 5 -10 10 0 6 5 10 10 10 6 0 10 -4
10 -10z m1260 0 c0 -5 -4 -10 -10 -10 -5 0 -10 5 -10 10 0 6 5 10 10 10 6 0
10 -4 10 -10z m-1270 -70 c0 -6 -9 -5 -20 2 -11 7 -20 16 -20 21 0 4 9 3 20
-3 11 -6 20 -15 20 -20z m-110 -5 c0 -8 -4 -15 -10 -15 -5 0 -10 7 -10 15 0 8
5 15 10 15 6 0 10 -7 10 -15z m80 -26 c0 -6 -4 -7 -10 -4 -5 3 -10 11 -10 16
0 6 5 7 10 4 6 -3 10 -11 10 -16z m1427 -5 c-9 -9 -28 6 -21 18 4 6 10 6 17
-1 6 -6 8 -13 4 -17z m-251 -15 c53 -31 66 -47 26 -35 -21 7 -100 66 -88 66 3
0 31 -14 62 -31z m-1326 17 c0 -3 -4 -8 -10 -11 -5 -3 -10 -1 -10 4 0 6 5 11
10 11 6 0 10 -2 10 -4z m1338 -63 c7 -7 22 -13 33 -13 10 0 27 -9 36 -20 21
-25 41 -27 22 -2 -13 15 -12 16 4 3 27 -21 3 -41 -49 -41 -32 0 -44 -4 -44
-15 0 -8 -9 -15 -19 -15 -11 0 -23 -4 -26 -10 -12 -19 -31 -10 -42 19 -6 16
-7 33 -2 38 4 4 11 23 14 42 3 19 8 38 11 42 5 9 38 -6 62 -28z m246 31 c20
-8 11 -24 -15 -24 -19 0 -25 11 -12 23 8 8 8 8 27 1z m-1884 -33 c0 -10 -7
-24 -15 -31 -21 -17 -19 -37 5 -43 29 -7 15 -33 -22 -41 -36 -7 -48 -1 -48 25
0 25 -22 24 -45 -1 -14 -15 -21 -17 -32 -9 -17 15 -17 38 2 59 12 13 27 16 65
12 46 -4 50 -3 60 22 11 30 30 35 30 7z m1894 -43 c-3 -4 -11 -5 -20 -1 -11 4
-12 8 -3 20 10 11 14 11 20 1 4 -6 6 -15 3 -20z m-976 -8 c7 -11 22 -20 35
-20 18 0 19 -2 7 -10 -13 -8 -13 -10 2 -10 14 0 16 -6 12 -32 -3 -18 -7 -39
-10 -45 -4 -16 -38 -17 -66 -2 -14 8 -23 8 -31 0 -17 -17 -27 -13 -27 9 0 16
-5 19 -28 14 -34 -7 -57 15 -47 46 7 22 53 50 84 50 11 0 23 5 26 10 10 16 29
12 43 -10z m1452 6 c0 -11 -19 -15 -25 -6 -3 5 1 10 9 10 9 0 16 -2 16 -4z
m100 -36 c0 -5 14 -10 31 -10 17 0 28 -4 24 -10 -3 -5 -20 -10 -36 -10 -19 0
-28 -4 -23 -11 3 -6 17 -8 30 -5 14 4 24 2 24 -4 0 -5 -10 -11 -22 -11 -21 -1
-21 -2 -3 -6 28 -7 43 -23 22 -23 -9 0 -17 -4 -17 -10 0 -5 5 -10 10 -10 6 0
10 -4 10 -10 0 -5 -7 -10 -15 -10 -24 0 -17 -18 8 -22 18 -2 23 -10 25 -47 l3
-44 -35 6 c-20 3 -36 2 -36 -4 0 -5 15 -10 33 -10 28 -1 26 -3 -16 -11 -26 -6
-63 -7 -81 -4 -28 5 -37 13 -46 41 -8 24 -8 40 -1 54 6 10 8 37 5 60 -4 32 -1
45 15 62 12 13 21 17 21 10 0 -7 5 -9 10 -6 6 4 10 14 9 23 -1 10 -1 20 0 25
2 11 51 8 51 -3z m-2180 -49 c0 -38 0 -38 -50 -48 l-50 -10 48 47 c26 26 48
47 50 48 1 1 2 -15 2 -37z m418 10 c-13 -15 -25 -27 -26 -25 -6 4 32 53 41 54
5 0 -2 -13 -15 -29z m1106 1 c8 -16 22 -34 30 -41 16 -13 23 -36 8 -27 -16 10
-73 96 -63 96 6 0 17 -13 25 -28z m-1374 8 c0 -5 -2 -10 -4 -10 -3 0 -8 5 -11
10 -3 6 -1 10 4 10 6 0 11 -4 11 -10z m-683 -60 c9 0 13 -8 11 -21 -2 -14 -16
-25 -42 -34 -22 -8 -43 -12 -48 -9 -4 3 -8 30 -8 59 l0 54 36 -24 c20 -14 43
-25 51 -25z m237 34 c17 -16 21 -34 9 -34 -14 1 -43 27 -43 39 0 16 16 14 34
-5z m2209 -46 c-3 -18 -12 -28 -23 -28 -12 0 -20 -10 -24 -31 -7 -39 1 -54 21
-37 13 10 15 9 11 -7 -2 -11 -10 -19 -16 -17 -7 1 -24 -9 -37 -24 -17 -18 -28
-23 -39 -17 -13 7 -9 20 25 78 37 63 79 119 85 112 1 -1 0 -14 -3 -29z m-1493
16 c0 -1 -3 -9 -6 -18 -8 -21 -24 -21 -24 0 0 14 -2 15 -17 3 -16 -12 -17 -12
-6 1 9 12 53 23 53 14z m948 -42 c12 -2 22 -8 22 -13 0 -5 13 -9 29 -9 35 0
46 -13 26 -30 -8 -7 -15 -18 -15 -25 0 -12 -22 -25 -79 -43 -40 -13 -55 -7
-47 21 3 11 1 28 -5 38 -6 11 -5 20 1 24 5 3 10 15 10 26 0 11 5 30 12 42 l12
22 6 -25 c4 -16 14 -26 28 -28z m62 41 c-8 -3 -22 -11 -30 -17 -13 -10 -13 -9
-1 7 7 9 21 17 30 16 13 0 14 -1 1 -6z m524 -18 c3 -8 1 -15 -4 -15 -6 0 -10
7 -10 15 0 8 2 15 4 15 2 0 6 -7 10 -15z m-2364 -3 c0 -4 -4 -13 -9 -21 -5 -8
-6 -21 -1 -30 4 -9 12 -29 17 -46 9 -33 44 -45 69 -24 13 10 17 10 24 -1 6
-10 4 -17 -5 -23 -8 -4 -15 -15 -15 -23 0 -26 -27 -26 -77 -2 -56 28 -133 30
-162 4 -30 -27 -51 -20 -50 17 2 66 12 81 62 95 33 9 51 21 56 35 7 17 18 22
50 24 22 0 41 -2 41 -5z m100 -20 c32 4 37 -20 6 -32 -19 -7 -26 -17 -26 -35
0 -29 -23 -34 -47 -10 -12 13 -13 18 -3 31 11 12 10 17 -6 28 -15 12 -16 16
-5 30 11 14 15 14 35 0 13 -8 33 -13 46 -12z m290 -10 c0 -10 -5 -24 -10 -32
-7 -12 -12 -12 -22 -2 -6 6 -25 12 -40 12 -31 0 -37 14 -11 29 29 16 83 11 83
-7z m1598 -22 c19 -25 21 -34 11 -53 -17 -32 -18 -32 -33 -11 -14 19 -15 18
-39 -4 -25 -23 -25 -24 -6 -43 20 -20 26 -59 9 -59 -5 0 -10 8 -10 18 0 11 -9
27 -20 37 -16 14 -22 15 -35 5 -8 -7 -42 -25 -75 -41 -40 -19 -58 -33 -54 -42
9 -25 -24 -42 -57 -30 -16 6 -31 7 -34 3 -9 -15 33 -31 72 -28 29 2 38 -1 41
-14 2 -10 -2 -18 -10 -18 -7 0 -19 -13 -26 -30 -16 -35 -47 -40 -57 -10 -7 21
-30 27 -40 10 -8 -14 -35 -13 -35 1 0 6 7 26 16 45 9 19 14 37 11 41 -4 3 -31
-2 -62 -12 -50 -15 -55 -19 -53 -44 3 -23 -1 -26 -30 -29 -21 -2 -34 2 -38 11
-4 11 -24 14 -90 12 -92 -3 -94 -4 -98 -32 -2 -13 -12 -18 -37 -18 -29 0 -34
3 -31 21 2 19 -2 21 -50 21 -29 0 -79 3 -110 7 -54 7 -57 6 -60 -16 -2 -19
-10 -24 -41 -26 -31 -3 -39 1 -46 20 -8 20 -10 21 -16 6 -10 -26 -1 -53 17
-52 10 1 14 -4 11 -12 -7 -19 -17 -18 -37 5 -23 26 -17 63 13 77 23 12 19 14
-55 37 l-79 24 -22 -26 c-19 -22 -22 -23 -23 -8 0 11 -7 34 -16 53 -10 20 -14
44 -10 59 8 30 28 23 24 -8 -2 -17 7 -25 53 -42 94 -37 211 -54 379 -54 164
-1 190 2 190 24 0 7 7 16 16 19 18 7 10 26 -11 26 -8 0 -23 -10 -35 -22 -17
-18 -20 -19 -20 -5 0 23 44 50 70 42 12 -4 36 -22 55 -41 34 -33 35 -34 78
-22 41 11 45 14 56 60 9 32 18 48 29 48 12 0 13 -3 4 -12 -9 -9 -7 -14 6 -24
16 -13 15 -14 -5 -20 -13 -3 -23 -10 -23 -15 0 -16 37 -9 87 15 26 13 86 37
132 53 75 25 92 35 145 90 34 33 66 62 72 62 5 1 20 -13 32 -29z m-1678 -20
c16 0 30 -4 30 -10 0 -5 -8 -10 -19 -10 -10 0 -30 -9 -45 -21 -33 -26 -37 -82
-6 -101 11 -7 20 -16 20 -20 0 -12 -38 -9 -46 3 -11 18 -7 108 6 124 6 8 9 23
5 34 -9 30 6 50 16 23 6 -16 17 -22 39 -22z m569 29 c11 6 29 11 41 11 23 0
23 -8 4 -73 -4 -11 -1 -17 8 -15 8 2 14 -9 16 -28 6 -64 -100 -102 -144 -52
-19 21 -19 21 4 15 22 -5 23 -3 17 21 -9 35 -10 36 -33 23 -29 -15 -32 -14
-32 14 0 34 66 100 85 85 10 -8 19 -8 34 -1z m1516 -8 c-3 -5 -1 -12 5 -16 12
-7 4 -25 -11 -25 -5 0 -9 11 -9 25 0 14 5 25 11 25 5 0 8 -4 4 -9z m-1650 -11
c-9 -14 8 -13 23 2 8 8 12 8 12 1 0 -16 -28 -36 -40 -28 -5 3 -10 4 -10 1 0
-2 -3 -12 -6 -21 -4 -10 -2 -15 6 -13 7 2 15 -3 17 -9 3 -9 -4 -12 -21 -11
-14 1 -26 4 -26 6 0 8 41 82 46 82 3 0 2 -4 -1 -10z m307 -40 c-11 -18 -10
-20 13 -20 30 0 33 -15 5 -30 -28 -15 -25 -28 8 -32 27 -3 38 -28 14 -36 -8
-2 -10 2 -6 13 5 13 2 16 -17 13 -20 -2 -24 1 -24 22 0 14 -6 30 -14 36 -11 8
-11 15 -2 32 8 15 8 22 1 22 -6 0 -13 -6 -16 -14 -3 -8 -13 -17 -21 -20 -19
-7 -45 12 -37 26 4 6 10 5 15 -3 8 -12 12 -11 22 2 28 37 82 26 59 -11z m-898
14 c9 -25 7 -34 -8 -34 -19 0 -29 17 -22 35 7 20 22 19 30 -1z m2206 -4 c0 -5
-4 -10 -10 -10 -5 0 -10 5 -10 10 0 6 5 10 10 10 6 0 10 -4 10 -10z m-2036
-27 c4 -5 22 -8 38 -8 17 0 33 -6 35 -12 3 -7 -2 -13 -11 -13 -11 0 -16 -9
-16 -31 0 -31 0 -32 -42 -25 -47 8 -61 21 -52 51 12 38 32 54 48 38z m2076 -8
c0 -8 -4 -15 -10 -15 -5 0 -10 7 -10 15 0 8 5 15 10 15 6 0 10 -7 10 -15z
m-43 -11 c-3 -3 -12 -4 -19 -1 -8 3 -5 6 6 6 11 1 17 -2 13 -5z m88 -14 c-3
-5 -10 -10 -16 -10 -5 0 -9 5 -9 10 0 6 7 10 16 10 8 0 12 -4 9 -10z m-366
-40 c20 -35 20 -41 7 -46 -18 -7 -49 14 -40 27 3 5 -1 9 -9 9 -8 0 -22 9 -31
19 -13 15 -14 20 -4 24 35 14 55 6 77 -33z m211 28 c0 -4 -9 -8 -20 -8 -11 0
-20 4 -20 8 0 4 9 8 20 8 11 0 20 -4 20 -8z m-2154 -28 c4 -17 15 -32 26 -36
11 -3 17 -12 14 -20 -3 -7 -1 -16 4 -19 6 -4 10 -13 10 -22 0 -11 -6 -14 -22
-10 -12 4 -28 1 -36 -5 -11 -10 -16 -8 -23 5 -12 21 -29 22 -29 1 0 -26 -25
-9 -28 19 -3 21 2 29 22 37 20 7 26 17 26 38 0 50 27 59 36 12z m2252 23 c-10
-2 -28 -2 -40 0 -13 2 -5 4 17 4 22 1 32 -1 23 -4z m251 -9 c-23 -27 -58 -35
-100 -23 -50 15 -51 31 -1 24 20 -3 51 -1 67 4 44 14 49 13 34 -5z m-2664 -14
c6 -4 22 -10 38 -14 30 -7 33 -19 13 -55 -11 -19 -14 -21 -19 -7 -8 20 -32 20
-83 2 -51 -17 -134 -1 -134 26 0 21 29 38 65 38 14 0 28 7 31 15 5 12 15 14
43 9 20 -4 41 -10 46 -14z m229 4 c11 -28 7 -35 -14 -24 -23 12 -27 40 -6 40
8 0 17 -7 20 -16z m206 6 c0 -5 -2 -10 -4 -10 -3 0 -8 5 -11 10 -3 6 -1 10 4
10 6 0 11 -4 11 -10z m153 -15 c54 -22 84 -65 85 -120 2 -63 -19 -110 -57
-130 -18 -9 -31 -23 -31 -35 0 -23 -58 -38 -87 -21 -15 9 -11 10 24 11 23 0
45 5 48 10 4 6 -8 10 -29 10 -43 0 -57 17 -19 23 22 3 19 4 -11 6 -44 1 -86
32 -86 63 0 11 -4 16 -10 13 -18 -11 -11 64 10 104 13 26 33 45 62 60 51 25
55 25 101 6z m211 -17 c7 -5 5 -8 -5 -8 -18 0 -32 24 -21 35 4 3 8 0 11 -7 2
-7 9 -16 15 -20z m1574 6 c6 -11 17 -15 31 -11 19 5 21 1 21 -36 -1 -60 -17
-77 -75 -77 -50 0 -115 18 -115 32 0 4 7 8 15 8 8 0 15 5 15 10 0 6 -7 10 -15
10 -8 0 -15 5 -15 10 0 7 13 8 35 4 47 -8 45 10 -2 23 l-38 11 43 -3 c47 -4
55 14 11 26 -17 5 -9 7 28 8 39 1 54 -3 61 -15z m-175 -4 c15 0 18 -7 17 -37
-3 -50 8 -80 31 -86 15 -4 19 -14 19 -51 0 -49 -14 -61 -26 -23 -3 12 -12 29
-19 37 -18 22 -85 149 -85 161 0 7 9 9 23 5 12 -3 30 -6 40 -6z m454 -15 c-6
-16 -70 -25 -94 -13 -36 18 -28 23 37 23 35 0 59 -4 57 -10z m-837 -11 c0 -8
-4 -13 -9 -9 -5 3 -12 1 -15 -4 -4 -5 -2 -12 4 -16 13 -8 13 -25 1 -25 -5 0
-13 10 -17 22 -4 15 -1 25 12 35 23 16 24 16 24 -3z m947 -16 c-3 -7 -5 -2 -5
12 0 14 2 19 5 13 2 -7 2 -19 0 -25z m-2347 13 c0 -6 -4 -12 -9 -15 -5 -3 -12
-22 -15 -42 -6 -27 -11 -34 -23 -30 -8 4 -21 2 -28 -4 -9 -8 -15 -8 -20 0 -11
18 3 40 25 40 14 0 20 7 20 23 0 13 3 27 7 30 10 10 43 8 43 -2z m715 -11 c8
-13 -25 -13 -45 0 -12 8 -9 10 12 10 15 0 30 -4 33 -10z m1556 -12 c21 -23 24
-38 9 -38 -5 0 -10 7 -10 15 0 19 -7 19 -27 -1 -14 -13 -14 -17 -2 -25 8 -5
10 -9 5 -9 -5 0 -2 -8 5 -17 8 -9 9 -14 3 -10 -6 4 -19 -2 -28 -12 -16 -17
-16 -19 4 -24 l21 -6 -20 -20 c-12 -12 -26 -21 -32 -21 -5 0 -8 -4 -4 -10 3
-5 13 -7 23 -4 16 5 16 5 0 -9 -10 -8 -18 -24 -18 -36 0 -11 -4 -21 -9 -21
-13 0 -19 190 -6 191 6 0 -1 5 -15 12 -24 11 -24 11 13 15 20 2 37 6 37 10 0
4 -18 6 -40 4 -25 -3 -40 0 -40 7 0 6 19 11 44 11 25 0 48 5 51 10 9 15 15 13
36 -12z m-561 2 c0 -5 -4 -10 -10 -10 -5 0 -10 5 -10 10 0 6 5 10 10 10 6 0
10 -4 10 -10z m-235 -57 c33 -31 49 -50 35 -43 -41 20 -118 100 -97 100 1 0
29 -25 62 -57z m237 12 c9 4 26 1 38 -5 18 -9 20 -17 14 -43 -3 -18 -11 -38
-16 -44 -6 -7 -7 -14 -2 -14 5 -1 16 -2 24 -3 9 0 14 -9 12 -21 -2 -11 -4 -41
-5 -67 -1 -25 -5 -45 -8 -42 -3 2 -12 -8 -19 -21 -14 -25 -30 -33 -30 -15 0 6
-13 10 -29 10 -22 0 -37 9 -56 35 -15 19 -25 40 -22 47 2 8 10 0 18 -17 13
-29 30 -47 37 -40 9 8 -35 73 -79 118 -27 28 -47 53 -44 56 3 3 30 -21 60 -52
30 -31 57 -57 60 -57 16 0 2 42 -17 50 -18 7 -19 9 -5 9 25 1 21 21 -5 22
l-23 0 22 11 c45 22 65 -22 41 -89 -15 -41 -5 -52 43 -46 35 5 36 7 36 43 0
40 -24 59 -46 37 -18 -18 -12 3 10 34 15 21 17 29 7 29 -8 0 -21 16 -28 35 -8
20 -20 41 -27 47 -7 6 -13 16 -13 22 0 6 8 1 18 -12 11 -15 24 -21 34 -17z
m-2268 12 c16 -12 16 -14 2 -26 -21 -17 -46 -7 -46 19 0 23 18 26 44 7z m154
-12 c2 -11 11 -29 21 -39 16 -18 14 -19 -44 -13 -49 5 -65 2 -92 -14 -29 -18
-33 -18 -33 -5 0 9 7 19 15 22 8 4 15 14 15 24 0 12 14 23 43 33 52 19 71 17
75 -8z m277 -27 c4 -24 17 -53 28 -66 19 -21 20 -24 4 -39 -13 -13 -19 -14
-31 -3 -9 7 -16 21 -16 32 0 11 -4 28 -10 38 -11 20 -3 80 10 80 5 0 11 -19
15 -42z m1340 32 c-3 -5 -11 -10 -16 -10 -6 0 -7 5 -4 10 3 6 11 10 16 10 6 0
7 -4 4 -10z m1139 -5 c-4 -8 -8 -15 -10 -15 -2 0 -4 7 -4 15 0 8 4 15 10 15 5
0 7 -7 4 -15z m-2704 -16 c0 -7 11 -9 30 -6 16 4 32 2 35 -3 9 -15 -31 -21
-59 -9 -26 12 -35 29 -16 29 6 0 10 -5 10 -11z m166 -7 c-3 -6 -16 -7 -29 -4
-22 6 -22 6 3 12 28 8 35 6 26 -8z m584 14 c0 -3 -4 -8 -10 -11 -5 -3 -10 -1
-10 4 0 6 5 11 10 11 6 0 10 -2 10 -4z m1740 -15 c0 -5 -7 -11 -15 -15 -8 -3
-15 -10 -15 -17 0 -6 7 -9 15 -6 8 4 17 2 20 -3 4 -6 -5 -10 -19 -10 -28 0
-36 26 -14 48 14 14 28 16 28 3z m-620 -89 c0 -5 -7 -16 -16 -23 -9 -8 -27
-31 -40 -51 -14 -21 -31 -38 -39 -38 -22 0 -18 19 11 57 14 19 24 36 21 39 -4
5 -34 -29 -71 -81 -13 -20 -21 -24 -30 -15 -8 8 -8 13 0 18 6 4 14 23 18 42 4
19 17 48 31 64 23 29 24 29 50 12 35 -23 45 -12 17 17 -36 38 -25 40 13 3 19
-20 35 -39 35 -44z m-1720 58 c0 -5 -4 -10 -9 -10 -6 0 -13 5 -16 10 -3 6 1
10 9 10 9 0 16 -4 16 -10z m840 1 c0 -19 -12 -41 -20 -36 -10 6 -1 45 11 45 5
0 9 -4 9 -9z m273 -41 c-3 -12 4 -24 20 -34 20 -14 23 -22 18 -49 -4 -18 -13
-32 -21 -32 -12 0 -14 -14 -12 -71 2 -44 0 -74 -7 -78 -7 -5 -11 9 -11 40 0
37 -3 45 -12 36 -19 -19 -23 -14 -24 28 -1 22 -9 49 -18 59 -9 9 -16 23 -16
29 0 6 -14 19 -30 27 -40 21 -29 36 24 33 56 -2 69 7 61 40 -6 26 -6 26 13 9
12 -11 18 -26 15 -37z m255 33 c-2 -11 -11 -17 -21 -15 -11 2 -25 -10 -38 -33
-23 -39 -29 -43 -29 -19 0 18 62 84 80 84 6 0 10 -8 8 -17z m816 -24 c15 -16
24 -29 18 -29 -13 0 -5 -62 11 -72 9 -6 9 -10 -3 -18 -11 -7 -7 -10 20 -11 19
0 28 -3 20 -6 -43 -14 -44 -16 -15 -23 l30 -7 -42 -12 c-50 -14 -51 -15 -54
-70 -3 -36 -6 -41 -23 -39 -13 2 -22 12 -24 25 -2 17 1 21 11 17 10 -4 15 2
15 20 0 20 -6 26 -23 26 -17 0 -25 9 -35 39 -11 33 -17 39 -38 38 -36 -3 -39
21 -4 34 28 9 29 12 24 54 -7 63 -1 72 44 67 26 -3 49 -14 68 -33z m-2008 -5
c10 -20 26 -39 35 -41 10 -3 21 -17 24 -33 7 -34 -4 -82 -17 -74 -5 3 -24 6
-43 6 -24 0 -35 5 -38 18 -4 14 -11 17 -28 13 -23 -5 -23 -5 -7 12 11 11 34
19 65 20 61 3 62 4 40 16 -9 5 -22 7 -27 4 -6 -4 -19 -3 -31 0 -16 5 -18 10
-8 21 6 8 9 27 5 44 -8 41 9 38 30 -6z m1014 -23 c-3 -33 -10 -64 -14 -68 -5
-4 -6 14 -2 41 3 27 6 57 6 67 0 11 4 19 8 19 4 0 5 -27 2 -59z m1344 53 c20
-8 23 -129 4 -138 -10 -5 -10 -7 0 -12 18 -8 16 -128 -2 -143 -12 -10 -18 -6
-31 23 -18 38 -13 76 11 76 8 0 14 5 14 10 0 6 -4 10 -10 10 -5 0 -10 6 -10
14 0 7 -7 19 -15 26 -18 15 -20 41 -2 35 18 -7 43 17 44 43 2 22 -6 26 -39 23
-10 -1 -18 3 -18 8 0 6 7 11 15 11 8 0 15 5 15 10 0 12 3 12 24 4z m-2741 -16
c31 1 37 -2 37 -19 0 -12 -8 -23 -20 -26 -13 -3 -20 -14 -20 -29 0 -14 -6 -24
-15 -24 -9 0 -12 6 -9 15 7 17 -7 20 -22 5 -8 -8 -15 -6 -23 4 -8 10 -9 16 -1
21 16 10 12 28 -6 21 -27 -10 -37 4 -18 26 13 13 25 17 39 12 11 -4 37 -6 58
-6z m133 4 c-5 -8 -76 -4 -76 4 0 2 18 4 41 4 22 0 38 -4 35 -8z m972 -27 c-6
-14 -13 -23 -16 -21 -7 7 9 46 18 46 5 0 4 -11 -2 -25z m-118 -19 c0 -5 -7 -3
-15 4 -8 7 -12 17 -9 22 7 10 24 -9 24 -26z m800 25 c0 -5 -7 -11 -15 -15 -8
-3 -12 -11 -9 -19 3 -8 -2 -20 -11 -27 -13 -11 -15 -8 -15 17 0 16 5 34 12 41
14 14 38 16 38 3z m-1684 -25 c-41 -35 -41 -59 -1 -93 19 -17 35 -37 35 -45 0
-9 7 -21 15 -28 22 -18 13 -34 -21 -40 -19 -4 -37 -17 -53 -43 l-24 -37 -119
0 c-98 0 -120 3 -125 15 -9 24 0 26 45 11 40 -14 42 -14 57 7 8 12 15 27 15
34 0 7 7 13 16 13 8 0 13 4 9 9 -3 5 7 11 21 13 38 4 52 30 37 69 -10 26 -9
34 2 46 8 8 15 21 15 29 0 8 7 17 15 20 8 4 15 15 15 25 0 15 7 18 36 17 l35
-1 -25 -21z m124 13 c0 -7 7 -17 15 -23 13 -9 13 -17 2 -55 -14 -49 -35 -65
-44 -32 -6 22 -27 28 -38 11 -9 -15 -25 -12 -25 5 0 8 -9 15 -20 15 -11 0 -20
7 -20 15 0 19 35 55 54 55 8 0 26 -14 39 -30 14 -17 28 -26 32 -20 8 13 -22
58 -43 63 -9 3 -2 5 16 6 18 0 32 -4 32 -10z m1337 -21 c-3 -7 -5 -2 -5 12 0
14 2 19 5 13 2 -7 2 -19 0 -25z m61 2 c-1 -35 -15 -49 -25 -25 -3 10 0 21 8
26 12 8 12 11 -1 19 -13 8 -13 10 2 10 12 0 16 -8 16 -30z m925 23 c-7 -2 -21
-2 -30 0 -10 3 -4 5 12 5 17 0 24 -2 18 -5z m-2666 -30 c13 -14 23 -30 23 -35
0 -4 9 -8 20 -8 l20 0 -20 -20 c-11 -11 -20 -24 -20 -30 0 -5 -7 -10 -15 -10
-8 0 -15 7 -15 16 0 12 -6 15 -24 10 -32 -8 -42 18 -15 43 22 20 12 35 -15 25
-10 -4 -16 -1 -16 8 0 37 46 38 77 1z m1063 12 c0 -8 -4 -15 -10 -15 -5 0 -10
7 -10 15 0 8 5 15 10 15 6 0 10 -7 10 -15z m76 -102 c-4 -65 -9 -134 -12 -153
l-5 -35 19 24 c11 13 17 33 14 46 -2 12 2 26 9 30 8 5 10 4 5 -3 -4 -7 -1 -12
7 -12 9 0 17 14 21 35 10 52 25 52 20 -1 -5 -55 -11 -67 -33 -61 -21 5 -26
-29 -5 -37 8 -3 14 -13 14 -23 0 -15 -2 -15 -15 3 -14 18 -14 18 -15 -5 0 -16
-4 -21 -15 -17 -11 4 -15 -2 -15 -24 0 -16 4 -31 9 -35 10 -6 -5 -61 -19 -70
-9 -6 -6 265 5 378 12 118 19 92 11 -40z m138 91 c3 -9 6 -27 6 -40 0 -19 5
-24 24 -24 13 0 28 -6 34 -13 17 -20 26 -93 13 -101 -7 -5 -11 2 -11 17 0 14
-6 30 -14 37 -8 6 -12 18 -9 26 4 10 -2 14 -21 14 -26 0 -30 -7 -40 -75 -2
-16 -3 16 -2 72 1 98 7 122 20 87z m306 12 c0 -3 -4 -8 -10 -11 -5 -3 -10 -1
-10 4 0 6 5 11 10 11 6 0 10 -2 10 -4z m500 -30 c0 -17 -68 -68 -75 -56 -7 11
-3 19 27 53 22 24 48 26 48 3z m-850 -2 c0 -8 -5 -12 -10 -9 -6 4 -8 11 -5 16
9 14 15 11 15 -7z m459 -108 c-5 -6 -8 18 -8 55 l2 64 7 -55 c4 -30 3 -59 -1
-64z m131 93 c0 -6 -4 -7 -10 -4 -5 3 -10 11 -10 16 0 6 5 7 10 4 6 -3 10 -11
10 -16z m-867 -28 c-30 -42 -43 -48 -21 -10 11 21 37 48 46 49 2 0 -9 -18 -25
-39z m616 -23 c18 -52 30 -129 14 -91 -3 10 -8 9 -20 -2 -9 -9 -23 -13 -34
-10 -27 9 -25 -20 3 -39 12 -8 22 -25 24 -38 1 -13 3 -25 3 -27 1 -2 8 2 16 9
13 11 15 8 15 -20 0 -32 1 -32 19 -16 18 17 20 16 26 -4 8 -27 -2 -40 -16 -20
-8 11 -12 12 -16 2 -7 -18 -23 -4 -23 20 0 12 -3 18 -7 14 -5 -4 -8 -110 -8
-234 0 -199 -2 -231 -18 -259 -22 -40 -43 -44 -23 -5 13 26 13 31 -2 45 -10
11 -12 17 -4 17 7 0 12 -5 12 -11 0 -8 4 -8 14 1 21 16 8 40 -21 40 -21 0 -23
3 -18 23 4 12 12 27 18 32 7 7 8 4 3 -9 -6 -18 7 -35 26 -36 4 0 4 75 1 168
-5 128 -10 173 -22 192 -11 16 -12 22 -3 16 27 -16 8 71 -21 98 -23 22 -27 32
-25 78 1 43 2 46 5 16 5 -41 18 -50 26 -18 4 17 9 19 31 10 29 -11 33 0 17 42
-12 34 -22 78 -17 78 2 0 14 -28 25 -62z m1099 22 c4 0 13 -9 19 -19 11 -18
10 -19 -13 -15 -19 4 -26 -1 -34 -21 -6 -15 -10 -39 -10 -55 0 -30 -26 -48
-44 -30 -7 7 -3 10 12 10 21 0 22 4 22 87 l0 87 20 -22 c12 -12 24 -22 28 -22z
m-1868 15 c0 -7 -8 -18 -17 -24 -17 -9 -17 -10 0 -29 17 -19 17 -20 -7 -36
-16 -10 -23 -22 -20 -31 4 -8 2 -15 -4 -15 -16 0 -30 128 -15 143 13 14 63 7
63 -8z m955 5 c3 -5 1 -10 -4 -10 -6 0 -11 5 -11 10 0 6 2 10 4 10 3 0 8 -4
11 -10z m360 0 c3 -5 -6 -17 -20 -26 l-26 -17 29 -17 c38 -24 81 -76 105 -129
24 -54 20 -177 -6 -228 -43 -81 -134 -142 -227 -150 -189 -18 -341 166 -289
350 13 49 84 135 131 159 33 18 39 18 52 5 15 -14 69 -14 106 0 8 3 27 7 41 9
15 1 38 14 52 28 28 28 42 32 52 16z m-1060 -32 c-10 -46 -25 -59 -25 -22 0
26 15 54 28 54 2 0 1 -15 -3 -32z m769 -3 c-29 -22 -42 -17 -15 6 13 11 26 17
29 14 3 -3 -3 -12 -14 -20z m977 -12 c-8 -15 -10 -15 -11 -2 0 17 10 32 18 25
2 -3 -1 -13 -7 -23z m-2720 7 c12 -7 19 -21 19 -40 0 -32 -9 -37 -27 -19 -15
15 -34 3 -26 -16 3 -9 -1 -15 -10 -15 -8 0 -17 -13 -21 -31 -6 -33 -33 -36
-28 -3 2 10 6 34 9 52 3 17 11 32 17 32 7 0 19 11 26 25 15 29 15 28 41 15z
m616 -22 c7 -18 17 -69 23 -114 6 -45 15 -96 20 -115 13 -44 13 -72 0 -64 -5
3 -10 1 -10 -6 0 -8 -15 -10 -52 -5 -59 8 -90 28 -71 47 9 9 23 7 57 -4 43
-15 46 -15 43 3 -2 10 -8 24 -13 32 -6 7 -10 43 -9 81 2 37 0 67 -4 67 -3 0
-7 25 -7 55 -1 62 7 70 23 23z m379 -15 c-11 -11 -19 6 -11 24 8 17 8 17 12 0
3 -10 2 -21 -1 -24z m-790 -10 c-11 -11 -17 4 -9 23 7 18 8 18 11 1 2 -10 1
-21 -2 -24z m112 -4 c10 -32 10 -45 2 -53 -9 -8 -16 -5 -27 12 -9 12 -24 22
-34 22 -11 0 -19 3 -19 7 0 7 51 52 60 53 3 0 11 -19 18 -41z m-434 15 c9 -25
7 -64 -4 -64 -5 0 -10 5 -10 10 0 6 -7 10 -15 10 -10 0 -15 10 -15 30 0 23 5
30 19 30 10 0 22 -7 25 -16z m2389 -19 c9 -20 17 -46 17 -58 0 -12 7 -44 15
-71 17 -55 19 -76 7 -76 -7 0 -23 65 -37 154 -4 21 -13 50 -22 62 -8 13 -11
24 -6 24 5 0 17 -16 26 -35z m-1905 6 c3 -8 -1 -12 -9 -9 -7 2 -15 10 -17 17
-3 8 1 12 9 9 7 -2 15 -10 17 -17z m177 10 c3 -5 1 -12 -5 -16 -5 -3 -10 1
-10 9 0 18 6 21 15 7z m253 -26 c33 5 41 2 67 -25 32 -33 21 -41 -15 -10 -28
24 -58 26 -88 4 -29 -20 -44 -10 -36 24 10 42 17 47 26 23 7 -20 13 -22 46
-16z m-13 25 c3 -5 1 -10 -4 -10 -6 0 -11 5 -11 10 0 6 2 10 4 10 3 0 8 -4 11
-10z m-314 -55 c14 9 11 -9 -6 -31 -13 -17 -14 -15 -13 31 0 28 3 38 5 22 2
-15 9 -25 14 -22z m463 21 c-6 -15 -34 -23 -34 -10 0 8 34 34 38 30 1 -2 0
-11 -4 -20z m656 14 c0 -5 -2 -10 -4 -10 -3 0 -8 5 -11 10 -3 6 -1 10 4 10 6
0 11 -4 11 -10z m915 -9 c-3 -6 -11 -8 -17 -5 -6 4 -5 9 3 15 16 10 23 4 14
-10z m-1968 -23 c-3 -8 -6 -5 -6 6 -1 11 2 17 5 13 3 -3 4 -12 1 -19z m443
-188 c-5 -3 -17 -26 -25 -51 -12 -38 -13 -39 -9 -9 4 19 12 53 20 75 8 22 15
74 16 115 2 68 2 66 5 -24 3 -62 0 -102 -7 -106z m595 139 c-10 -21 -25 -39
-33 -39 -12 0 -10 6 7 24 13 14 21 30 19 38 -3 7 0 18 6 24 19 21 19 -6 1 -47z
m-618 29 c-3 -8 -6 -5 -6 6 -1 11 2 17 5 13 3 -3 4 -12 1 -19z m1215 -23 c21
-55 8 -60 -15 -7 -19 43 -21 52 -9 52 4 0 15 -20 24 -45z m-1894 -8 c20 -16
15 -47 -8 -47 -15 0 -20 -7 -20 -25 0 -27 -24 -35 -34 -10 -3 9 -12 12 -21 9
-13 -5 -15 -2 -9 20 7 31 -9 35 -38 9 -17 -15 -18 -15 -18 9 0 33 23 52 55 44
14 -4 25 -2 25 2 0 11 50 3 68 -11z m251 9 c7 -8 8 -17 3 -19 -4 -3 -13 3 -20
14 -14 22 0 26 17 5z m315 -12 c18 -17 21 -34 7 -34 -5 0 -14 7 -21 15 -17 20
-59 19 -82 -2 -10 -9 -21 -13 -26 -9 -13 13 39 46 73 46 19 0 41 -7 49 -16z
m1793 2 c-5 -15 -67 -15 -67 -1 0 9 12 13 35 12 19 -1 34 -6 32 -11z m-1927
-6 c0 -5 -9 -10 -20 -10 -11 0 -20 5 -20 10 0 6 9 10 20 10 11 0 20 -4 20 -10z
m1800 0 c0 -5 -2 -10 -4 -10 -3 0 -8 5 -11 10 -3 6 -1 10 4 10 6 0 11 -4 11
-10z m-2130 -21 c0 -4 -7 -6 -15 -3 -8 4 -15 10 -15 15 0 4 7 6 15 3 8 -4 15
-10 15 -15z m97 -4 c29 -12 33 -17 23 -30 -6 -8 -20 -17 -31 -20 -11 -4 -19
-15 -19 -30 0 -27 -46 -63 -62 -47 -7 7 -16 7 -29 -1 -14 -9 -21 -9 -31 1 -18
18 -56 14 -75 -8 -24 -28 -35 -25 -31 8 2 19 9 28 25 30 14 2 25 13 29 28 3
13 10 21 16 18 5 -3 7 -12 4 -20 -4 -9 2 -14 15 -14 11 0 22 7 25 15 4 8 15
15 25 15 10 0 19 6 19 14 0 11 45 54 58 56 1 0 19 -7 39 -15z m938 -15 c6 -25
2 -36 -19 -57 -34 -34 -34 -57 -1 -51 23 5 25 3 25 -36 0 -23 5 -47 11 -53 7
-7 7 -13 0 -17 -15 -10 -34 32 -27 60 5 19 2 24 -13 24 -10 0 -24 7 -31 15
-10 13 -10 19 2 33 25 28 32 62 14 62 -9 0 -16 5 -16 10 0 6 9 10 21 10 15 0
19 5 15 15 -3 8 -1 15 4 15 4 0 11 -14 15 -30z m1375 -55 c0 -56 -3 -74 -15
-79 -20 -7 -36 32 -23 57 7 15 4 17 -27 17 -31 0 -35 3 -30 19 5 15 2 18 -13
14 -22 -5 -88 25 -77 35 7 7 165 20 178 14 4 -2 7 -36 7 -77z m-1633 53 c-3
-8 -6 -5 -6 6 -1 11 2 17 5 13 3 -3 4 -12 1 -19z m1423 -3 c16 -14 17 -20 8
-27 -8 -5 1 -8 23 -8 29 0 45 -8 78 -42 23 -22 40 -46 38 -52 -3 -7 -37 -11
-93 -11 -49 0 -93 -3 -99 -6 -5 -4 -45 -4 -87 -2 l-78 6 0 78 0 78 58 3 c94 6
131 2 152 -17z m-1876 -47 c1 -26 9 -55 17 -65 25 -28 29 -61 11 -96 l-16 -32
-7 35 c-4 19 -12 64 -18 100 -6 36 -14 76 -17 89 -6 18 -3 22 11 20 13 -3 18
-15 19 -51z m-839 32 c3 -5 -1 -10 -10 -10 -9 0 -13 5 -10 10 3 6 8 10 10 10
2 0 7 -4 10 -10z m485 0 c0 -13 -11 -13 -30 0 -12 8 -11 10 8 10 12 0 22 -4
22 -10z m1854 -76 c2 -39 10 -90 16 -114 13 -47 6 -92 -16 -111 -9 -7 -14 -8
-14 -1 0 6 5 14 10 17 13 8 12 49 -4 110 -7 28 -15 43 -19 35 -3 -10 -6 -7 -6
8 -1 12 4 22 10 22 8 0 10 18 5 62 -4 40 -3 59 4 52 5 -5 11 -41 14 -80z
m-2060 61 c15 -8 35 -15 43 -15 11 0 13 -11 11 -47 -2 -38 -6 -47 -20 -45 -11
2 -18 -5 -20 -20 -3 -20 -10 -23 -50 -26 -41 -3 -47 -1 -42 13 6 14 -1 16 -40
14 -43 -3 -66 -18 -28 -20 13 0 12 -3 -6 -12 -16 -7 -26 -7 -30 -1 -4 6 -29
12 -56 13 -28 1 -54 5 -58 7 -15 10 -7 124 9 124 7 0 16 7 19 15 9 22 226 21
268 0z m954 -31 c-14 -14 -15 -14 -10 11 3 19 8 23 15 16 8 -8 7 -16 -5 -27z
m-596 -16 c-7 -7 -12 -8 -12 -2 0 14 12 26 19 19 2 -3 -1 -11 -7 -17z m302
-20 c-5 -8 -10 -5 -14 8 -10 25 0 41 12 20 5 -9 6 -21 2 -28z m205 -44 c-5
-26 -7 -49 -5 -52 3 -2 15 3 28 12 31 22 64 20 90 -6 19 -19 22 -20 33 -4 11
15 13 14 19 -6 3 -13 6 -33 6 -45 0 -13 4 -23 8 -23 10 0 32 -45 32 -63 0 -7
-10 -23 -21 -37 -18 -22 -20 -22 -16 -5 3 11 8 28 12 37 5 13 2 15 -14 11 -13
-3 -23 0 -27 11 -4 12 -10 13 -24 6 -29 -15 -42 -12 -35 9 4 13 0 20 -15 24
-29 7 -25 25 10 45 36 21 38 30 6 38 -52 13 -67 -2 -98 -99 -15 -44 -15 -48 1
-46 36 3 43 -1 38 -22 -3 -12 0 -30 6 -41 9 -16 9 -22 0 -25 -7 -3 -13 -13
-13 -24 0 -10 -4 -19 -10 -19 -14 0 -12 24 2 38 10 10 10 14 0 21 -9 5 -11 17
-6 34 5 21 2 27 -9 27 -19 0 -111 -77 -115 -96 -4 -15 -22 -19 -22 -5 0 5 20
30 45 57 25 26 45 55 45 64 0 9 6 36 14 61 8 24 18 74 21 112 4 37 10 65 15
62 4 -2 4 -26 -1 -51z m192 -56 c2 -20 0 -40 -4 -44 -4 -4 -7 6 -7 22 -1 16
-7 40 -15 54 -21 37 -18 57 4 28 11 -13 21 -40 22 -60z m343 63 c10 -11 16
-26 14 -33 -3 -8 -9 -5 -17 10 -6 12 -18 22 -26 22 -8 0 -15 5 -15 10 0 17 26
11 44 -9z m-970 -17 c87 -13 86 -34 -3 -34 -38 0 -73 5 -76 10 -8 13 5 56 14
43 3 -6 33 -14 65 -19z m246 -61 c-8 -30 -23 -64 -34 -76 -12 -12 -20 -20 -19
-18 2 2 -2 10 -9 18 -8 11 -7 12 5 8 8 -4 19 -1 23 6 9 16 25 94 26 129 0 22
1 22 10 6 7 -13 7 -35 -2 -73z m-464 55 c0 -12 -7 -23 -15 -26 -10 -3 -12 0
-8 12 4 10 7 22 7 27 0 5 4 9 9 9 4 0 8 -10 7 -22z m83 4 c12 -23 3 -68 -18
-84 -14 -12 -15 -11 -2 5 12 15 11 17 -3 17 -10 0 -16 8 -16 21 0 16 4 19 21
14 15 -5 20 -3 17 6 -7 22 -38 23 -53 2 -8 -10 -15 -14 -15 -9 0 14 32 46 46
46 7 0 18 -8 23 -18z m241 -1 c0 -10 3 -33 7 -51 4 -23 3 -31 -5 -26 -13 8
-33 76 -26 88 9 15 24 8 24 -11z m680 9 c0 -5 -7 -10 -15 -10 -8 0 -15 -5 -15
-12 0 -6 -3 -8 -7 -4 -5 4 1 14 11 22 23 17 26 17 26 4z m968 -65 c-3 -41 -2
-75 3 -75 4 0 12 -14 18 -30 5 -17 6 -28 1 -25 -4 3 -16 -2 -24 -11 -9 -8 -16
-11 -16 -5 0 5 5 13 10 16 16 10 12 48 -4 42 -9 -4 -16 3 -20 19 -5 18 -13 24
-32 24 -25 0 -26 2 -19 38 8 46 9 46 34 32 20 -10 30 -41 14 -39 -28 5 -35 -3
-13 -14 32 -17 40 -6 40 56 0 26 3 47 6 47 4 0 4 -34 2 -75z m462 -92 c-1
-135 -3 -155 -14 -140 -12 16 -21 17 -72 8 -33 -5 -67 -12 -76 -16 -13 -5 -17
0 -20 22 -2 20 -8 28 -23 28 -15 0 -21 8 -23 33 -3 25 -7 32 -19 28 -8 -3 -19
-6 -24 -6 -5 0 -9 -9 -9 -20 0 -22 -10 -26 -27 -9 -12 12 -6 49 8 49 4 0 9 30
11 68 3 65 4 67 31 70 15 2 27 9 27 18 0 9 11 14 30 14 33 0 35 -7 30 -110 -6
-114 -5 -143 8 -147 9 -4 12 25 12 121 0 69 4 126 8 126 5 0 8 -30 8 -67 -1
-44 3 -67 12 -70 9 -4 12 14 13 64 l2 68 9 -70 c8 -59 7 -71 -6 -81 -10 -7
-16 -26 -16 -51 0 -37 2 -40 28 -41 20 0 30 6 39 24 9 20 9 26 -3 31 -21 8
-18 45 4 41 16 -3 19 -11 21 -70 1 -16 6 -28 11 -28 15 0 8 162 -7 167 -6 2
-13 -4 -16 -14 -3 -12 -5 -8 -6 10 0 15 4 27 10 27 8 0 8 4 0 14 -15 18 2 66
24 66 13 0 15 -23 15 -157z m-400 102 c0 -14 5 -25 10 -25 6 0 10 9 10 20 0
11 5 20 10 20 6 0 10 -9 10 -20 0 -17 4 -19 26 -14 23 6 25 4 22 -21 -4 -33
-28 -47 -28 -16 0 12 -4 21 -10 21 -5 0 -10 -14 -10 -31 0 -24 4 -30 15 -25
11 4 15 -2 15 -21 l0 -26 -25 23 c-14 13 -25 34 -25 46 0 32 -18 40 -29 12 -8
-19 -10 -13 -10 30 -1 28 4 52 9 52 6 0 10 -11 10 -25z m330 15 c0 -5 -4 -10
-10 -10 -5 0 -10 5 -10 10 0 6 5 10 10 10 6 0 10 -4 10 -10z m-1416 -15 c-4
-9 0 -15 10 -15 9 0 16 -4 16 -9 0 -5 -8 -8 -17 -7 -19 3 -32 46 -14 46 6 0 8
-7 5 -15z m866 -5 c0 -17 -36 -47 -45 -38 -4 3 37 57 43 58 1 0 2 -9 2 -20z
m-2297 -27 c4 20 13 37 19 37 6 0 8 -11 6 -25 -3 -14 -1 -25 3 -25 5 0 9 5 9
10 0 6 5 10 10 10 6 0 10 -6 10 -14 0 -8 7 -17 16 -20 23 -9 24 -8 24 14 0 11
4 20 9 20 4 0 6 -22 3 -50 -3 -31 -1 -50 6 -50 6 0 13 6 15 13 3 6 6 -19 7
-58 1 -63 12 -177 21 -215 3 -10 -5 -14 -29 -15 -28 0 -34 4 -41 30 -9 29 -9
29 -10 -12 -1 -23 -6 -45 -11 -48 -7 -4 -10 58 -10 180 0 131 -3 184 -11 179
-7 -4 -10 -49 -9 -128 1 -66 1 -195 0 -286 -3 -203 -18 -159 -21 60 -1 96 -4
132 -9 106 -4 -21 -13 -42 -21 -47 -10 -6 -11 -11 -3 -16 7 -5 11 -46 11 -108
0 -55 -2 -74 -4 -42 -2 31 -8 57 -13 57 -6 0 -10 34 -10 75 0 46 4 75 11 75 5
0 7 6 3 12 -14 23 -19 266 -6 303 5 15 8 11 12 -20 l6 -40 7 38z m177 7 c0
-16 -4 -30 -10 -30 -11 0 -14 43 -3 53 11 12 13 8 13 -23z m598 13 c2 -9 -7
-13 -27 -13 -16 0 -42 -5 -57 -10 -36 -14 -61 -6 -44 15 20 24 120 31 128 8z
m-701 -15 c-3 -8 -6 -5 -6 6 -1 11 2 17 5 13 3 -3 4 -12 1 -19z m143 2 c0 -11
-4 -20 -10 -20 -5 0 -10 9 -10 20 0 11 5 20 10 20 6 0 10 -9 10 -20z m40 0 c0
-11 -4 -20 -10 -20 -5 0 -10 9 -10 20 0 11 5 20 10 20 6 0 10 -9 10 -20z m30
-5 c0 -14 -4 -25 -9 -25 -4 0 -6 11 -3 25 2 14 6 25 8 25 2 0 4 -11 4 -25z
m33 5 c3 -11 1 -20 -4 -20 -5 0 -9 9 -9 20 0 11 2 20 4 20 2 0 6 -9 9 -20z
m114 4 c-3 -3 -12 -4 -19 -1 -8 3 -5 6 6 6 11 1 17 -2 13 -5z m613 -10 c0 -2
-9 -4 -21 -4 -11 0 -18 4 -14 10 5 8 35 3 35 -6z m-913 -41 c-3 -10 -5 -2 -5
17 0 19 2 27 5 18 2 -10 2 -26 0 -35z m663 27 c0 -10 -20 -16 -77 -24 -48 -6
-40 9 10 21 57 14 67 15 67 3z m-390 -10 c0 -5 -4 -10 -10 -10 -5 0 -10 5 -10
10 0 6 5 10 10 10 6 0 10 -4 10 -10z m429 -77 c1 -52 -13 -63 -28 -21 -15 42
-14 85 2 91 16 5 25 -19 26 -70z m182 50 c-12 -20 -14 -14 -5 12 4 9 9 14 11
11 3 -2 0 -13 -6 -23z m19 -38 c-11 -26 -23 -45 -26 -42 -3 3 5 29 17 58 13
29 24 48 26 42 2 -5 -6 -31 -17 -58z m-750 36 c35 -11 56 -24 58 -36 3 -14 -1
-16 -27 -10 -23 5 -31 3 -31 -8 0 -10 -9 -13 -36 -10 -29 3 -37 0 -41 -17 -6
-22 -22 -27 -24 -7 -8 110 -8 107 20 107 14 0 51 -9 81 -19z m270 3 c0 -8 -4
-12 -10 -9 -5 3 -10 10 -10 16 0 5 5 9 10 9 6 0 10 -7 10 -16z m829 -41 c1
-81 5 -104 19 -131 16 -27 7 -78 -14 -86 -17 -7 -18 -2 -2 23 9 15 9 28 0 59
-23 77 -28 192 -8 192 3 0 5 -26 5 -57z m158 25 c-3 -7 -5 -2 -5 12 0 14 2 19
5 13 2 -7 2 -19 0 -25z m-1047 15 c0 -5 3 -18 6 -30 5 -17 2 -23 -10 -23 -9 0
-16 6 -16 14 0 8 -10 16 -22 18 -38 5 -33 28 6 28 20 0 36 -3 36 -7z m944 -25
c8 -5 7 -14 -2 -29 -7 -11 -11 -23 -9 -25 9 -9 35 8 46 29 11 21 11 21 6 -3
-2 -14 -5 -42 -5 -62 0 -45 -18 -51 -26 -9 -4 17 -14 31 -26 34 -17 5 -18 8
-6 27 11 17 11 22 -1 29 -9 6 -11 16 -6 27 6 16 8 16 13 4 3 -8 10 -18 16 -22z
m964 25 c-11 -3 -16 -13 -15 -30 1 -14 -2 -27 -8 -29 -5 -2 -9 10 -9 26 2 41
1 40 27 39 15 -1 17 -3 5 -6z m-188 -7 c0 -2 -12 -11 -27 -20 l-28 -17 24 20
c23 21 31 25 31 17z m277 -18 c-3 -8 -6 -5 -6 6 -1 11 2 17 5 13 3 -3 4 -12 1
-19z m-2066 -18 c12 0 52 -40 46 -46 -7 -7 -67 46 -66 59 0 8 2 8 6 0 2 -7 9
-13 14 -13z m159 10 c0 -5 -2 -10 -4 -10 -3 0 -8 5 -11 10 -3 6 -1 10 4 10 6
0 11 -4 11 -10z m396 -51 c-15 -34 -15 -34 -9 -4 7 35 13 48 20 42 2 -3 -3
-20 -11 -38z m569 22 c3 -5 1 -12 -5 -16 -5 -3 -10 1 -10 9 0 18 6 21 15 7z
m-1179 -26 c-2 -7 5 -15 17 -19 20 -5 20 -6 2 -26 -27 -30 -35 -25 -35 26 0
29 4 43 11 39 6 -4 8 -13 5 -20z m34 5 c0 -5 -4 -10 -10 -10 -5 0 -10 5 -10
10 0 6 5 10 10 10 6 0 10 -4 10 -10z m2417 -12 c-3 -8 -6 -5 -6 6 -1 11 2 17
5 13 3 -3 4 -12 1 -19z m-2486 -30 c2 -20 0 -40 -4 -44 -4 -4 -7 14 -7 41 0
56 7 57 11 3z m-26 -18 c1 -22 -3 -40 -7 -40 -4 0 -8 21 -8 47 0 56 14 49 15
-7z m1515 40 c0 -5 -22 -26 -50 -47 -55 -41 -59 -49 -30 -58 11 -3 20 -13 20
-21 0 -21 -71 -91 -100 -99 -19 -5 -21 -4 -10 4 12 8 12 13 2 23 -10 10 -16
10 -33 0 -24 -16 -32 -12 -23 12 8 20 21 20 58 1 28 -15 31 -14 58 12 31 29
37 53 13 53 -23 0 -18 35 8 58 30 28 81 71 85 72 1 0 2 -4 2 -10z m589 -20
c-28 -38 -56 -50 -33 -14 14 20 40 42 52 44 1 0 -7 -13 -19 -30z m-2252 -57
c-2 -16 -4 -3 -4 27 0 30 2 43 4 28 2 -16 2 -40 0 -55z m111 32 c-2 -28 1 -46
8 -47 8 -2 5 -15 -7 -38 l-19 -35 0 83 c0 53 4 82 11 82 7 0 10 -17 7 -45z
m1702 41 c0 -3 -4 -8 -10 -11 -5 -3 -10 -1 -10 4 0 6 5 11 10 11 6 0 10 -2 10
-4z m191 -23 c13 -15 12 -16 -11 -8 -14 5 -50 8 -80 8 -39 -1 -49 1 -35 7 36
16 111 11 126 -7z m-1934 -130 c-2 -27 -3 -5 -3 47 0 52 1 74 3 48 2 -27 2
-69 0 -95z m2133 127 c0 -5 -5 -10 -11 -10 -5 0 -7 5 -4 10 3 6 8 10 11 10 2
0 4 -4 4 -10z m-1264 -57 c-4 -61 -17 -107 -35 -118 -6 -3 -11 -15 -11 -26 0
-16 5 -19 20 -14 22 7 26 -5 8 -23 -9 -9 -8 -12 5 -12 22 0 22 1 -8 -58 -14
-28 -25 -57 -25 -66 0 -19 -16 -21 -23 -3 -3 6 -6 2 -6 -9 -1 -12 6 -28 15
-35 14 -11 18 -10 30 6 8 10 14 35 14 54 0 65 63 136 140 159 58 17 120 23
120 12 0 -5 -20 -10 -44 -10 -41 0 -106 -16 -106 -27 0 -16 32 -33 53 -27 16
3 30 0 38 -9 12 -12 19 -13 54 0 30 10 66 12 146 7 104 -7 209 7 209 26 0 5 9
12 20 15 12 4 37 22 55 41 21 20 35 29 35 21 0 -8 -7 -20 -15 -27 -8 -7 -15
-15 -15 -19 0 -11 43 -6 69 8 13 7 35 14 49 16 14 1 32 12 41 23 24 30 64 52
123 68 61 16 111 19 89 5 -11 -7 -6 -12 20 -19 19 -5 43 -13 54 -18 18 -7 18
-6 6 9 -24 29 8 20 35 -10 13 -16 41 -46 61 -68 21 -23 39 -54 42 -75 5 -30
11 -35 44 -43 43 -10 50 -27 11 -27 -25 0 -26 -3 -21 -33 3 -19 1 -40 -4 -48
-6 -10 -9 -4 -9 21 -1 32 -2 33 -15 17 -13 -18 -14 -16 -17 14 -2 25 -10 37
-30 47 -17 8 -28 21 -28 33 0 10 -4 19 -10 19 -5 0 -10 9 -10 20 0 11 6 20 14
20 8 0 17 4 20 9 7 10 -34 65 -42 57 -3 -4 -12 0 -21 8 -9 7 -47 23 -85 35
-111 36 -187 10 -135 -46 19 -19 20 -23 6 -23 -9 0 -17 4 -17 9 0 23 -42 22
-66 0 -13 -12 -24 -26 -24 -30 0 -4 19 -9 43 -12 31 -3 49 0 69 14 30 21 58
25 58 8 0 -5 -4 -8 -8 -5 -4 2 -14 1 -22 -5 -12 -7 -12 -9 -1 -9 11 0 11 -3 1
-15 -11 -13 -8 -15 14 -15 16 0 25 4 21 10 -3 6 1 10 9 10 10 0 13 -6 10 -15
-4 -9 0 -15 9 -15 22 0 27 23 8 37 -13 10 -10 11 17 2 35 -12 52 -29 29 -29
-8 0 -18 -7 -21 -16 -5 -12 -14 -14 -46 -9 -28 5 -46 2 -62 -9 -12 -9 -32 -16
-44 -16 -29 0 -48 -22 -32 -38 9 -9 0 -12 -38 -12 -47 0 -52 -2 -67 -32 -13
-27 -16 -29 -16 -12 -1 12 9 34 21 49 24 30 49 96 41 108 -8 13 -74 -65 -99
-118 -20 -42 -24 -46 -24 -24 0 15 -7 30 -16 33 -11 4 -14 1 -10 -12 4 -12 -1
-26 -14 -37 -11 -10 -20 -13 -20 -7 0 6 5 14 10 17 7 4 7 12 0 25 -16 31 -12
61 10 67 26 7 25 17 -3 36 -16 10 -28 12 -40 5 -51 -28 -129 -45 -192 -41 -67
5 -68 4 -62 -19 4 -12 7 -31 7 -40 0 -10 7 -18 15 -18 8 0 15 -4 15 -10 0 -14
-16 -12 -32 3 -7 8 -21 11 -31 8 -12 -5 -3 -12 35 -30 59 -27 167 -44 185 -29
7 6 21 7 30 2 10 -4 25 -8 33 -8 19 -1 26 -46 8 -57 -24 -16 -31 -9 -13 11 16
18 16 20 1 26 -9 4 -43 4 -75 0 -46 -5 -70 -2 -111 13 -43 17 -52 17 -57 5 -7
-19 -33 1 -33 25 0 22 -106 69 -122 53 -16 -16 -1 -31 57 -56 29 -13 56 -29
59 -35 11 -17 -2 -13 -32 9 -40 28 -78 35 -86 15 -8 -22 1 -35 23 -35 23 0 48
-28 35 -39 -5 -5 -18 -11 -28 -13 -29 -5 -30 -23 -1 -36 29 -13 34 -56 10 -88
-8 -10 -15 -28 -15 -38 0 -15 -3 -17 -12 -8 -8 8 -7 22 7 58 l18 46 -29 24
c-28 23 -28 24 -10 39 11 8 26 15 33 15 7 0 13 5 13 11 0 5 -8 9 -18 7 -36 -6
-71 49 -43 66 5 3 7 15 4 26 -12 44 41 65 85 35 20 -15 24 -14 44 5 18 17 19
20 5 20 -9 0 -17 5 -17 10 0 6 5 10 12 10 9 0 9 3 1 11 -8 8 -17 7 -34 -2 -22
-11 -23 -11 -10 4 11 14 11 17 0 17 -44 -1 -169 -62 -169 -82 0 -6 -3 -8 -7
-5 -3 4 -17 -2 -29 -14 -22 -21 -23 -21 -17 -1 6 23 -28 47 -53 38 -22 -8 -16
-26 9 -26 12 0 17 -4 12 -8 -18 -12 -55 -69 -55 -84 0 -13 -34 -48 -46 -48 -4
0 -4 12 -1 27 3 15 1 36 -4 45 -13 23 -59 184 -59 204 0 11 6 14 23 8 39 -13
49 -10 53 16 3 14 13 37 24 52 37 50 18 81 -21 36 l-20 -23 6 22 c3 12 0 31
-7 42 -11 17 -9 24 12 46 13 14 34 25 47 25 21 0 22 -3 19 -57z m914 52 c0 -2
-10 -9 -22 -15 -22 -11 -22 -10 -4 4 21 17 26 19 26 11z m200 -9 c0 -3 -4 -8
-10 -11 -5 -3 -10 -1 -10 4 0 6 5 11 10 11 6 0 10 -2 10 -4z m491 -9 c-1 -12
-15 -9 -19 4 -3 6 1 10 8 8 6 -3 11 -8 11 -12z m-1834 -13 c-3 -3 -12 -4 -19
-1 -8 3 -5 6 6 6 11 1 17 -2 13 -5z m1066 -17 c-15 -13 -40 -31 -55 -40 -16
-10 -28 -24 -28 -32 0 -8 -4 -15 -10 -15 -31 0 23 65 78 94 41 21 47 19 15 -7z
m373 10 c4 -3 3 -14 -1 -24 -6 -16 -8 -16 -16 5 -9 24 -10 25 -33 16 -14 -5
-13 -10 9 -30 14 -13 25 -29 25 -36 0 -7 -13 1 -28 18 -48 53 -102 62 -232 38
-22 -4 -22 -3 5 10 22 11 60 14 147 12 65 -1 120 -5 124 -9z m530 -12 c-17
-13 -17 -15 -3 -29 9 -9 20 -16 24 -16 5 0 19 -11 31 -25 23 -26 30 -65 12
-65 -5 0 -10 -11 -10 -23 0 -16 -9 -28 -25 -35 -14 -6 -25 -19 -25 -27 0 -8
11 -21 25 -27 14 -6 25 -19 25 -30 0 -10 5 -18 10 -18 6 0 10 -15 10 -34 0
-26 -5 -36 -21 -41 -27 -9 -30 -5 -44 57 -9 41 -17 56 -38 66 -35 17 -35 49
-2 62 25 9 34 29 15 31 -5 1 -14 3 -20 4 -5 1 -12 3 -15 4 -15 3 20 44 48 56
31 14 31 14 6 15 -32 0 -79 -47 -79 -81 0 -51 -11 -69 -36 -63 -28 7 -31 -3
-8 -21 13 -9 14 -16 6 -31 -6 -10 -13 -27 -16 -37 -11 -34 -26 -6 -25 46 2 95
43 246 72 264 14 9 90 21 97 15 3 -2 -3 -10 -14 -17z m-1886 11 c0 -3 -4 -8
-10 -11 -5 -3 -10 -1 -10 4 0 6 5 11 10 11 6 0 10 -2 10 -4z m1507 -2 c-3 -3
-12 -4 -19 -1 -8 3 -5 6 6 6 11 1 17 -2 13 -5z m-2258 -66 c-1 -47 -3 -57 -9
-38 -12 36 -12 100 0 100 6 0 10 -27 9 -62z m624 55 c-7 -2 -19 -2 -25 0 -7 3
-2 5 12 5 14 0 19 -2 13 -5z m2057 -15 c0 -16 -3 -19 -11 -11 -6 6 -8 16 -5
22 11 17 16 13 16 -11z m27 -15 c-3 -10 -5 -4 -5 12 0 17 2 24 5 18 2 -7 2
-21 0 -30z m-2016 10 c13 -15 12 -15 -8 -4 -24 12 -29 21 -14 21 5 0 15 -7 22
-17z m566 -5 c-3 -8 -6 -5 -6 6 -1 11 2 17 5 13 3 -3 4 -12 1 -19z m373 12 c0
-5 -9 -14 -20 -20 -19 -10 -20 -10 -8 9 13 22 28 28 28 11z m-1210 -20 c-113
-4 -229 -8 -258 -9 -50 -1 -54 -3 -67 -33 -13 -31 -14 -31 -14 -8 -1 29 8 45
29 52 8 3 128 6 265 5 l250 -1 -205 -6z m870 -11 c0 -6 -4 -7 -10 -4 -5 3 -10
11 -10 16 0 6 5 7 10 4 6 -3 10 -11 10 -16z m-515 -20 c9 -17 14 -33 11 -36
-3 -3 -11 6 -17 21 -9 20 -15 23 -26 15 -16 -14 -17 3 -1 19 16 16 15 16 33
-19z m680 6 c0 -29 -20 -28 -21 0 -1 16 3 24 10 22 6 -2 11 -12 11 -22z m275
6 c0 -5 -7 -11 -15 -15 -8 -3 -15 -12 -15 -21 0 -8 -5 -15 -11 -15 -6 0 -8 6
-5 13 3 6 9 20 12 30 6 17 34 24 34 8z m-592 -8 c-10 -2 -26 -2 -35 0 -10 3
-2 5 17 5 19 0 27 -2 18 -5z m107 -33 c0 -13 -7 -25 -15 -27 -13 -4 -13 -3 0
6 13 9 13 14 2 32 -11 18 -11 20 0 17 7 -3 13 -15 13 -28z m-35 0 c0 -5 -7
-10 -16 -10 -8 0 -12 5 -9 10 3 6 10 10 16 10 5 0 9 -4 9 -10z m-1133 -52 c13
-15 13 -16 -4 -14 -12 2 -19 12 -20 32 -1 16 0 22 4 14 3 -8 12 -23 20 -32z
m1208 22 c3 -5 1 -10 -4 -10 -6 0 -11 5 -11 10 0 6 2 10 4 10 3 0 8 -4 11 -10z
m521 -5 c15 -11 16 -14 3 -15 -8 0 -24 7 -35 15 -15 11 -16 14 -3 15 8 0 24
-7 35 -15z m-432 -17 c15 -24 -1 -36 -18 -13 -12 16 -16 17 -30 6 -19 -16 -21
-6 -3 14 15 18 37 15 51 -7z m-663 -104 c-3 -118 12 -211 31 -182 5 9 8 4 8
-14 0 -15 -4 -30 -10 -33 -5 -3 -10 1 -10 9 0 8 -6 21 -13 28 -22 22 -41 113
-28 137 6 11 11 44 11 73 0 44 8 98 14 98 1 0 -1 -52 -3 -116z m-741 76 c0
-11 -6 -20 -14 -20 -7 0 -16 -9 -19 -20 -7 -28 -29 -25 -25 3 2 16 -1 21 -14
19 -20 -3 -21 -1 -12 22 4 11 19 16 45 16 32 0 39 -3 39 -20z m1165 10 c-3 -5
-11 -10 -16 -10 -6 0 -7 5 -4 10 3 6 11 10 16 10 6 0 7 -4 4 -10z m-1011 -230
c3 -124 9 -290 12 -370 4 -83 3 -141 -2 -137 -12 11 -23 169 -24 327 -2 226 0
413 4 409 2 -2 6 -105 10 -229z m1916 210 c0 -5 -4 -10 -10 -10 -5 0 -10 5
-10 10 0 6 5 10 10 10 6 0 10 -4 10 -10z m-20 -31 c0 -5 -7 -9 -15 -9 -15 0
-20 12 -9 23 8 8 24 -1 24 -14z m-2023 -11 c-3 -8 -6 -5 -6 6 -1 11 2 17 5 13
3 -3 4 -12 1 -19z m-126 5 c0 -5 2 -25 4 -45 3 -24 -1 -41 -11 -48 -12 -11
-14 -4 -14 44 0 31 5 56 10 56 6 0 10 -3 11 -7z m2098 -53 c5 0 12 -7 15 -16
9 -24 -33 -7 -71 29 -43 40 -31 56 13 17 19 -16 39 -30 43 -30z m-289 46 c0
-3 -4 -8 -10 -11 -5 -3 -10 -1 -10 4 0 6 5 11 10 11 6 0 10 -2 10 -4z m290 -6
c0 -5 -2 -10 -4 -10 -3 0 -8 5 -11 10 -3 6 -1 10 4 10 6 0 11 -4 11 -10z
m-1350 -184 c-7 -7 -10 16 -10 75 0 111 14 125 18 18 2 -48 -2 -87 -8 -93z
m127 152 c-3 -8 -6 -5 -6 6 -1 11 2 17 5 13 3 -3 4 -12 1 -19z m-837 -3 c0 -8
-4 -15 -10 -15 -5 0 -10 7 -10 15 0 8 5 15 10 15 6 0 10 -7 10 -15z m1920 5
c0 -5 -6 -10 -12 -10 -8 0 -5 -7 6 -15 11 -8 15 -15 9 -15 -14 0 -44 35 -36
43 10 11 33 8 33 -3z m44 -3 c11 -8 17 -18 15 -24 -2 -5 -15 1 -29 13 -26 26
-16 33 14 11z m709 6 c4 -3 2 -12 -4 -20 -9 -10 -8 -18 6 -33 16 -18 16 -20 2
-20 -10 0 -26 9 -37 20 -17 17 -18 21 -5 26 8 4 15 12 15 20 0 15 12 19 23 7z
m-1993 -74 c0 -38 -4 -51 -19 -59 -28 -15 -39 -13 -51 11 -9 16 -8 24 4 38 9
10 21 32 27 49 16 47 39 24 39 -39z m1450 41 c34 -32 50 -74 50 -132 0 -32 3
-38 22 -38 39 0 75 -48 48 -65 -6 -4 -15 7 -21 24 -7 19 -18 31 -29 31 -16 0
-19 -13 -25 -107 -13 -209 -14 -309 -2 -365 8 -45 8 -61 -1 -70 -9 -9 -12 -5
-12 19 0 34 -18 58 -50 68 -29 9 -25 27 5 19 18 -4 25 -2 25 8 0 27 -23 83
-39 95 -14 10 -17 6 -23 -29 -4 -22 -15 -46 -25 -54 -14 -11 -15 -13 -3 -14
13 0 13 -1 0 -10 -13 -8 -13 -11 -1 -19 11 -7 10 -11 -5 -20 -18 -10 -18 -10
1 -11 12 0 16 -3 9 -8 -16 -10 -13 -40 4 -47 10 -3 12 0 8 10 -3 8 -1 15 3 15
17 0 22 -34 7 -42 -8 -5 -36 -24 -61 -43 -61 -47 -79 -46 -70 1 3 20 8 59 10
87 2 27 8 53 13 56 12 8 11 41 -1 41 -5 0 -7 6 -4 14 3 7 0 19 -6 25 -8 8 -7
11 5 11 20 0 19 52 -2 62 -12 5 -12 7 3 7 25 1 21 21 -5 22 l-23 2 23 4 c13 3
19 9 16 15 -4 6 -7 24 -6 39 0 16 -4 29 -9 29 -5 0 -9 5 -9 10 0 6 8 10 18 10
13 0 14 2 3 9 -8 5 -9 11 -3 15 13 8 65 -83 58 -101 -3 -7 2 -13 11 -13 8 0
34 -17 56 -37 27 -24 42 -32 45 -24 5 14 -30 83 -56 114 -13 15 -13 17 1 17 8
0 25 -16 37 -35 12 -19 24 -35 27 -35 3 0 3 24 0 53 -3 34 0 64 9 86 17 40 18
169 3 226 -7 25 -24 52 -47 72 -20 18 -32 32 -26 33 7 0 26 -13 44 -30z m66 5
c8 -13 12 -29 8 -36 -5 -8 -12 -3 -21 15 -7 14 -18 26 -23 26 -6 0 -10 5 -10
10 0 19 30 10 46 -15z m-2049 -17 c-3 -7 -5 -2 -5 12 0 14 2 19 5 13 2 -7 2
-19 0 -25z m-57 -2 c0 -34 -13 -39 -46 -20 l-29 16 28 -5 c21 -3 27 0 27 14 0
11 5 19 10 19 6 0 10 -11 10 -24z m226 -11 c8 -19 19 -35 25 -35 6 0 7 -13 3
-35 -5 -31 -2 -38 31 -70 21 -19 41 -35 46 -35 20 0 39 14 40 29 0 12 3 10 11
-6 12 -25 53 -31 86 -14 59 32 132 37 163 12 28 -22 21 -38 -9 -22 -34 18 -60
12 -84 -19 -23 -32 -62 -40 -72 -15 -3 8 -10 15 -15 15 -13 0 -9 -103 4 -112
7 -5 6 -14 -3 -28 -7 -12 -8 -20 -2 -20 5 0 10 -5 10 -12 0 -6 -3 -8 -7 -5 -3
4 -15 -1 -26 -10 -15 -14 -21 -15 -24 -5 -3 7 -12 19 -20 28 -13 12 -15 30
-10 90 6 75 -3 93 -24 52 -6 -13 -13 -24 -14 -26 -8 -10 -54 24 -57 42 -4 27
-46 33 -87 12 -39 -21 -43 -20 -39 6 2 12 16 28 35 37 36 18 39 27 18 55 -22
28 -20 126 2 126 2 0 11 -16 19 -35z m814 5 c0 -5 -4 -10 -10 -10 -5 0 -10 5
-10 10 0 6 5 10 10 10 6 0 10 -4 10 -10z m1374 -60 c-9 -48 -12 -52 -35 -40
-20 11 -19 41 4 88 10 22 12 22 24 6 8 -12 11 -31 7 -54z m-2646 -5 c-3 -70
-18 -60 -18 11 0 35 4 53 10 49 6 -4 9 -30 8 -60z m2101 31 c19 -30 72 -209
71 -239 -1 -20 -47 116 -55 160 -3 23 -17 56 -31 74 -27 37 -28 39 -15 39 5 0
19 -15 30 -34z m-845 -15 c-1 -1 -12 3 -23 11 -12 8 -18 17 -15 21 6 5 43 -25
38 -32z m958 22 c20 -17 24 -58 8 -68 -6 -4 -10 6 -10 23 0 32 -22 58 -40 47
-7 -4 -9 -19 -5 -36 4 -16 4 -29 0 -29 -5 0 -35 62 -35 73 0 12 67 3 82 -10z
m-1243 -38 l0 -20 -9 20 c-5 11 -9 27 -9 35 -1 13 0 13 9 0 5 -8 9 -24 9 -35z
m841 -30 c-7 -31 -18 -59 -23 -62 -5 -3 -7 3 -4 13 4 11 11 41 18 67 6 26 14
45 17 42 3 -2 -1 -30 -8 -60z m175 43 c7 -8 4 -9 -10 -3 -11 4 -30 7 -43 6
-14 0 -21 3 -16 10 7 12 54 3 69 -13z m-1695 -4 c0 -8 -4 -12 -10 -9 -5 3 -10
10 -10 16 0 5 5 9 10 9 6 0 10 -7 10 -16z m914 -16 c10 -14 23 -18 52 -16 l39
3 -2 -39 c-2 -21 -7 -44 -13 -51 -8 -9 -8 -15 0 -20 17 -10 12 -36 -9 -42 -10
-2 -26 -21 -36 -41 l-18 -37 -11 26 c-15 37 -28 39 -37 7 -5 -21 -4 -28 7 -28
20 0 18 -39 -3 -47 -13 -5 -12 -8 8 -15 21 -8 22 -11 8 -21 -9 -7 -19 -34 -23
-61 -6 -35 -11 -45 -18 -38 -8 8 -8 15 1 26 12 15 6 61 -11 83 -6 7 -7 30 -3
50 12 69 7 117 -15 135 -34 27 -21 62 25 70 11 1 29 11 40 21 17 15 18 19 5
27 -8 5 -23 10 -32 10 -18 0 -24 11 -12 22 10 10 44 -4 58 -24z m681 -4 c-8
-6 -18 -22 -24 -35 -5 -13 -17 -41 -26 -63 l-16 -39 25 5 c33 7 79 -39 74 -73
-4 -23 -5 -23 -12 -4 -14 39 -23 50 -42 54 -18 3 -18 3 -1 -17 10 -11 17 -26
16 -34 -3 -26 1 -38 15 -38 7 0 21 -12 31 -26 10 -15 22 -23 31 -20 8 3 14 -1
14 -8 0 -30 -13 -46 -36 -46 -23 0 -24 -2 -24 -80 0 -44 -4 -80 -9 -80 -6 0
-7 15 -4 34 7 46 -15 96 -44 96 -54 0 -72 36 -32 64 l21 14 -22 12 c-16 9 -20
19 -18 43 2 27 8 33 31 35 15 2 27 8 27 14 0 13 -30 48 -40 48 -4 0 -23 -36
-41 -80 -37 -90 -67 -129 -54 -72 7 35 19 60 49 105 15 23 21 44 25 100 1 5 5
6 10 3 4 -3 21 23 36 59 22 52 29 62 40 52 12 -10 12 -14 0 -23z m594 19 c10
-17 12 -17 25 0 14 18 41 23 50 8 4 -5 0 -12 -6 -14 -10 -4 -10 -8 -1 -14 17
-12 27 -60 14 -67 -7 -4 -11 1 -11 14 0 27 -25 36 -55 20 -20 -11 -27 -11 -40
0 -14 12 -18 11 -26 -1 -7 -11 -9 -9 -9 9 0 36 1 37 16 34 8 -2 14 4 14 13 0
20 17 19 29 -2z m-2324 -45 c-5 -48 -11 -67 -18 -57 -7 9 6 109 14 109 5 0 7
-23 4 -52z m32 30 c-3 -8 -6 -5 -6 6 -1 11 2 17 5 13 3 -3 4 -12 1 -19z m33
12 c0 -5 -4 -10 -10 -10 -5 0 -10 5 -10 10 0 6 5 10 10 10 6 0 10 -4 10 -10z
m468 -7 c-2 -13 3 -18 20 -17 12 0 21 -4 19 -10 -4 -10 -126 -11 -136 -1 -11
11 24 34 57 38 20 2 38 4 40 5 2 1 2 -6 0 -15z m1692 7 c0 -5 -4 -10 -10 -10
-5 0 -10 -4 -10 -9 0 -5 8 -7 19 -4 10 3 22 0 26 -6 8 -14 -3 -51 -16 -51 -6
0 -8 8 -4 19 4 14 -1 20 -20 25 -22 6 -24 9 -13 26 14 21 28 26 28 10z m-1810
-8 c0 -12 -49 -37 -56 -29 -4 3 -4 13 -1 22 7 15 57 22 57 7z m-450 -12 c0 -5
-4 -10 -9 -10 -6 0 -13 5 -16 10 -3 6 1 10 9 10 9 0 16 -4 16 -10z m-85 -10
c3 -5 1 -10 -4 -10 -6 0 -11 5 -11 10 0 6 2 10 4 10 3 0 8 -4 11 -10z m1907
-5 c0 -5 -5 -11 -11 -13 -6 -2 -11 4 -11 13 0 9 5 15 11 13 6 -2 11 -8 11 -13z
m102 0 c11 -8 16 -18 12 -22 -3 -4 -16 3 -28 15 -25 25 -13 29 16 7z m-1726
-4 c6 -1 12 -7 12 -15 0 -16 -51 -29 -64 -16 -14 14 1 39 21 35 10 -2 24 -4
31 -4z m1192 -12 c46 3 56 0 71 -21 l18 -23 31 24 c20 14 35 20 41 14 10 -10
-2 -75 -26 -143 -14 -40 -45 -54 -45 -21 0 12 -4 21 -10 21 -15 0 -1 -60 32
-128 16 -35 27 -66 24 -69 -3 -3 -21 27 -39 67 -20 45 -36 69 -41 62 -4 -7
-16 -12 -27 -12 -25 0 -24 -12 1 -28 12 -7 18 -16 16 -21 -5 -8 9 -45 33 -91
4 -8 18 -17 31 -20 13 -3 25 -11 27 -17 5 -13 -24 -43 -42 -43 -8 0 -12 -11
-11 -32 1 -26 -3 -33 -24 -38 -16 -4 -24 -12 -22 -23 5 -27 -15 -20 -53 21
-30 31 -34 42 -30 69 4 20 0 44 -10 63 -14 26 -14 31 -1 36 8 3 23 1 35 -5 11
-6 32 -11 46 -11 22 0 26 4 23 23 -2 14 -10 22 -23 23 -39 2 -45 4 -45 15 0 6
8 8 19 4 24 -7 35 19 15 35 -21 18 -17 47 8 53 18 5 19 8 8 21 -10 13 -10 16
4 16 21 0 20 15 -1 51 -21 35 -37 38 -29 4 5 -19 3 -23 -8 -19 -9 3 -20 -3
-28 -15 -16 -26 -28 -27 -28 -2 0 10 -7 21 -15 25 -10 4 -13 14 -9 34 4 17 1
32 -5 36 -24 15 -10 28 24 22 37 -7 45 3 19 25 -13 10 -17 10 -24 0 -5 -9 -10
-10 -14 -2 -12 19 4 30 37 25 17 -3 39 -5 47 -5z m1287 0 c15 -6 38 -16 50
-22 18 -8 27 -7 41 6 37 33 52 22 52 -37 0 -54 -1 -55 -36 -66 -37 -13 -37
-10 -17 -72 4 -14 -1 -18 -24 -18 -17 0 -38 -9 -48 -20 -25 -28 -42 -25 -60
10 -20 39 -19 57 4 63 27 7 35 68 9 75 -10 2 -18 9 -18 15 0 6 -8 19 -17 30
-17 18 -17 19 2 33 23 17 26 17 62 3z m-2692 -8 c6 -10 -13 -26 -30 -26 -15 0
-18 -34 -4 -51 9 -11 9 -18 1 -26 -8 -8 -14 -4 -22 16 -5 15 -10 34 -10 42 0
29 -25 7 -28 -24 -5 -45 -22 -40 -22 6 0 33 4 41 33 55 36 18 73 22 82 8z
m1791 -10 c-17 -18 -17 -19 1 -24 14 -4 14 -5 -4 -6 -27 -1 -29 11 -7 33 22
23 31 20 10 -3z m-146 -8 c2 -2 -1 -12 -7 -22 -9 -14 -9 -21 0 -30 13 -13 -2
-14 -23 -1 -12 7 -12 12 -2 22 16 16 15 28 -3 28 -8 0 -15 5 -15 11 0 9 37 4
50 -8z m268 -21 c5 -30 -10 -28 -25 4 -10 22 -9 25 5 22 9 -2 18 -13 20 -26z
m-1068 2 c0 -8 -4 -13 -9 -10 -14 9 -64 -73 -72 -117 l-6 -42 -2 36 c-1 40 11
68 49 116 28 36 40 41 40 17z m-692 -17 c2 -12 -1 -15 -12 -11 -19 7 -22 38
-3 32 6 -3 13 -12 15 -21z m1794 -19 c-9 -9 -12 -7 -12 12 0 19 3 21 12 12 9
-9 9 -15 0 -24z m518 15 c17 -7 28 -9 52 -11 22 -2 64 -80 50 -94 -14 -14 -32
-1 -32 22 0 28 -17 33 -51 16 -30 -15 -31 -15 -26 4 7 28 -15 25 -43 -5 -29
-31 -40 -32 -40 -3 0 16 -3 19 -11 11 -9 -9 -9 -27 0 -71 13 -66 8 -92 -19
-92 -17 0 -19 11 -22 100 l-3 100 26 0 c15 0 29 6 32 13 5 13 62 20 87 10z
m-2415 -13 c3 -5 23 -10 44 -10 40 0 61 -14 61 -41 0 -24 -18 -33 -36 -18 -11
9 -18 9 -26 1 -15 -15 -28 -15 -28 -1 0 7 -11 22 -25 35 -14 13 -25 28 -25 34
0 13 27 13 35 0z m800 -22 c-4 -18 -4 -30 1 -25 4 4 16 0 26 -10 19 -17 25
-78 8 -88 -5 -3 -10 -17 -10 -31 0 -13 -4 -24 -10 -24 -14 0 -13 46 2 69 9 15
9 25 0 45 -22 49 -31 39 -73 -81 -15 -43 -27 -63 -38 -62 -10 0 -11 3 -4 6 7
2 15 21 19 41 4 20 17 60 30 87 12 28 27 62 33 78 14 37 24 34 16 -5z m92 10
c-3 -8 -6 -5 -6 6 -1 11 2 17 5 13 3 -3 4 -12 1 -19z m743 -5 c0 -8 -47 -33
-62 -33 -19 0 -6 19 20 28 34 13 42 14 42 5z m-686 -197 c4 -105 9 -192 11
-194 3 -3 9 6 14 19 8 21 10 22 16 6 5 -11 1 -25 -9 -36 -9 -10 -13 -21 -9
-25 5 -4 -1 -6 -11 -4 -16 2 -22 -5 -29 -42 -6 -30 -5 -50 2 -62 14 -23 14
-61 -1 -76 -19 -19 -30 -14 -18 7 14 28 12 41 -6 41 -11 0 -14 5 -10 17 4 10
16 60 28 112 18 84 19 105 10 195 -6 56 -9 119 -7 141 2 22 4 53 4 69 1 16 3
27 5 25 2 -2 6 -89 10 -193z m996 158 c0 -8 -6 -14 -14 -14 -9 0 -12 7 -9 20
6 22 23 18 23 -6z m-1540 -60 c0 -8 -3 -14 -7 -14 -12 0 -42 58 -35 65 9 8 42
-33 42 -51z m200 49 c-1 -11 -26 -43 -34 -43 -8 0 -8 35 1 43 9 9 33 9 33 0z
m-323 -35 c-3 -7 -5 -2 -5 12 0 14 2 19 5 13 2 -7 2 -19 0 -25z m403 2 c0 -25
-18 -36 -26 -16 -8 21 3 49 16 41 5 -3 10 -15 10 -25z m-563 -32 c-2 -13 -4
-5 -4 17 -1 22 1 32 4 23 2 -10 2 -28 0 -40z m988 10 c-12 -62 -26 -96 -40
-102 -20 -7 -18 10 5 63 11 24 20 49 20 57 0 8 5 14 11 14 7 0 8 -12 4 -32z
m832 26 c-3 -3 -12 -4 -19 -1 -8 3 -5 6 6 6 11 1 17 -2 13 -5z m-2073 -12 c5
-8 -16 -82 -24 -82 -3 0 -5 20 -6 45 -1 31 3 45 12 45 7 0 15 -3 18 -8z m136
-2 c0 -5 -4 -10 -10 -10 -5 0 -10 5 -10 10 0 6 5 10 10 10 6 0 10 -4 10 -10z
m80 -10 c0 -5 -2 -10 -4 -10 -3 0 -8 5 -11 10 -3 6 -1 10 4 10 6 0 11 -4 11
-10z m2314 -28 c-4 -15 -10 -34 -15 -43 -5 -9 -6 -19 -4 -23 3 -3 -3 1 -12 9
-10 8 -18 30 -20 49 -1 30 1 33 28 34 27 1 29 -2 23 -26z m-2389 5 c17 -1 36
-6 43 -10 18 -12 5 -26 -18 -20 -14 4 -22 -2 -30 -21 -5 -14 -16 -27 -25 -27
-8 -1 -21 -2 -27 -3 -8 -1 -12 9 -10 27 4 30 0 32 -28 15 -27 -17 -36 -3 -15
28 14 22 22 25 48 19 18 -3 46 -7 62 -8z m562 -54 c-11 -11 -12 -7 -9 24 4 35
5 36 14 14 6 -17 5 -29 -5 -38z m133 41 c0 -2 -7 -4 -15 -4 -8 0 -15 4 -15 10
0 5 7 7 15 4 8 -4 15 -8 15 -10z m1790 -4 c0 -5 -4 -10 -10 -10 -5 0 -10 5
-10 10 0 6 5 10 10 10 6 0 10 -4 10 -10z m-2230 -10 c0 -5 -4 -10 -10 -10 -5
0 -10 5 -10 10 0 6 5 10 10 10 6 0 10 -4 10 -10z m60 -6 c0 -8 -4 -12 -10 -9
-5 3 -10 10 -10 16 0 5 5 9 10 9 6 0 10 -7 10 -16z m2130 1 c10 -12 10 -19 2
-27 -11 -11 -17 0 -13 25 0 4 -4 7 -10 7 -6 0 -8 -9 -4 -21 5 -15 4 -19 -4
-15 -16 10 -14 46 3 46 7 0 19 -7 26 -15z m-2103 -17 c-3 -8 -6 -5 -6 6 -1 11
2 17 5 13 3 -3 4 -12 1 -19z m103 2 c0 -5 -7 -10 -15 -10 -8 0 -15 5 -15 10 0
6 7 10 15 10 8 0 15 -4 15 -10z m210 -12 c0 -21 -18 -60 -21 -48 -5 16 -6 56
-2 63 9 15 23 6 23 -15z m-510 -2 c0 -8 -4 -17 -9 -21 -12 -7 -24 12 -16 25 9
15 25 12 25 -4z m118 -17 c2 -23 2 -23 -13 -5 -18 24 -20 39 -2 34 6 -3 13
-15 15 -29z m1932 6 c0 -33 -15 -33 -16 0 -1 14 2 25 7 25 5 0 9 -11 9 -25z
m-1895 5 c3 -5 1 -10 -4 -10 -6 0 -11 5 -11 10 0 6 2 10 4 10 3 0 8 -4 11 -10z
m815 -62 c23 -193 44 -308 66 -355 13 -29 31 -76 40 -104 12 -35 34 -69 64
-101 46 -48 48 -48 101 -45 34 2 69 12 96 27 49 29 59 24 38 -16 -8 -16 -15
-35 -15 -41 0 -15 16 -17 25 -3 9 14 27 12 23 -2 -3 -7 -18 -15 -34 -18 -42
-7 -41 -45 1 -46 51 -2 55 -4 55 -21 0 -13 -3 -14 -12 -5 -19 19 -66 15 -78
-8 -6 -11 -15 -18 -21 -15 -5 4 -7 9 -5 13 10 16 -21 38 -54 37 -32 0 -35 2
-35 30 -1 24 -5 31 -25 33 -37 5 -88 49 -105 88 -8 20 -19 33 -25 29 -6 -4
-10 7 -10 27 0 19 -6 43 -14 54 -22 31 -45 127 -61 252 -16 121 -19 132 -39
132 -8 0 -16 9 -19 21 -4 16 -2 20 11 17 15 -4 17 2 13 46 -4 71 10 51 19 -26z
m-1084 25 c-11 -11 -17 4 -9 23 7 18 8 18 11 1 2 -10 1 -21 -2 -24z m488 22
c-4 -8 -8 -15 -10 -15 -2 0 -4 7 -4 15 0 8 4 15 10 15 5 0 7 -7 4 -15z m1986
-1 c0 -8 -4 -12 -10 -9 -5 3 -10 10 -10 16 0 5 5 9 10 9 6 0 10 -7 10 -16z
m-2060 -4 c0 -5 -2 -10 -4 -10 -3 0 -8 5 -11 10 -3 6 -1 10 4 10 6 0 11 -4 11
-10z m1860 -25 c0 -16 -6 -25 -15 -25 -9 0 -15 9 -15 25 0 16 6 25 15 25 9 0
15 -9 15 -25z m170 15 c0 -5 -9 -10 -21 -10 -11 0 -17 5 -14 10 3 6 13 10 21
10 8 0 14 -4 14 -10z m-2162 -38 c3 -19 -1 -23 -15 -20 -10 2 -19 14 -21 26
-3 19 1 23 15 20 10 -2 19 -14 21 -26z m70 10 c6 -18 -15 -14 -22 4 -4 10 -1
14 6 12 6 -2 14 -10 16 -16z m657 -18 c-3 -21 -2 -40 3 -43 5 -3 12 -16 16
-27 5 -17 2 -23 -15 -27 -19 -5 -21 -11 -16 -46 3 -28 1 -41 -8 -45 -8 -3 -16
-20 -18 -38 -2 -18 -3 -1 0 37 2 39 9 95 15 125 6 30 12 62 13 70 2 8 4 18 4
23 1 4 4 7 7 7 3 0 3 -16 -1 -36z m1331 -1 c-6 -14 -9 -15 -16 -4 -11 19 -1
46 13 32 5 -5 7 -18 3 -28z m-780 1 c4 -17 2 -29 -7 -35 -21 -13 -34 -11 -63
12 -33 26 -26 38 9 15 30 -20 45 -14 38 14 -3 11 0 20 6 20 6 0 14 -12 17 -26z
m218 7 c10 -11 16 -28 13 -38 -3 -14 -6 -12 -16 12 -7 16 -18 33 -24 37 -8 5
-8 8 -1 8 6 0 19 -9 28 -19z m-1696 -5 c3 -3 -1 -12 -7 -20 -8 -10 -9 -16 -1
-21 5 -3 10 -17 10 -29 0 -21 -3 -23 -32 -17 -23 5 -33 13 -33 26 0 26 -22 30
-35 5 -6 -11 -15 -18 -21 -15 -12 8 -12 42 2 67 10 18 17 20 61 15 28 -4 53
-9 56 -11z m484 -48 c2 -20 0 -34 -4 -32 -4 3 -8 21 -8 40 0 25 -4 34 -17 35
-15 0 -15 2 2 8 22 9 22 9 27 -51z m1848 47 c6 -8 8 -20 4 -26 -5 -9 -11 -7
-21 6 -23 33 -9 51 17 20z m-202 -55 l-1 -55 -7 45 c-4 25 -8 39 -8 33 -1 -7
-11 -13 -21 -13 -28 0 -36 -19 -15 -35 11 -7 15 -17 10 -22 -5 -4 -11 -2 -13
5 -3 6 -11 12 -19 12 -30 0 -12 43 24 54 12 4 22 11 22 16 0 5 -10 11 -22 13
-13 3 -6 4 15 4 l37 -1 -2 -56z m-1831 44 c-3 -3 -12 -4 -19 -1 -8 3 -5 6 6 6
11 1 17 -2 13 -5z m153 -8 c0 -3 -4 -8 -10 -11 -5 -3 -10 -1 -10 4 0 6 5 11
10 11 6 0 10 -2 10 -4z m1750 -6 c0 -5 -9 -10 -20 -10 -11 0 -20 5 -20 10 0 6
9 10 20 10 11 0 20 -4 20 -10z m-2446 -17 c10 -25 -9 -37 -28 -18 -9 9 -16 21
-16 26 0 16 38 10 44 -8z m82 -8 c4 -14 4 -29 0 -32 -10 -10 -45 28 -39 43 9
23 32 16 39 -11z m434 15 c0 -15 -30 -27 -56 -22 -13 2 -24 9 -24 14 0 6 11 7
24 4 14 -3 28 -2 31 4 8 13 25 13 25 0z m2043 -14 c4 -10 0 -12 -14 -9 -10 3
-16 9 -13 14 8 13 21 11 27 -5z m47 10 c0 -3 -4 -8 -10 -11 -5 -3 -10 -1 -10
4 0 6 5 11 10 11 6 0 10 -2 10 -4z m-2078 -28 c-7 -7 -12 -8 -12 -2 0 14 12
26 19 19 2 -3 -1 -11 -7 -17z m1961 2 c-3 -11 -7 -20 -9 -20 -2 0 -4 9 -4 20
0 11 4 20 9 20 5 0 7 -9 4 -20z m-682 0 c28 -16 28 -100 -1 -107 -11 -3 -20
-9 -20 -13 0 -4 9 -15 20 -25 26 -23 26 -39 0 -32 -11 3 -27 -1 -35 -10 -13
-13 -16 -13 -21 2 -4 10 -1 21 7 26 11 7 10 11 -6 23 -15 11 -17 17 -7 28 10
12 8 19 -8 33 -24 22 -27 75 -5 75 9 0 15 -10 15 -26 0 -22 4 -25 27 -22 14 2
28 9 31 16 3 9 -3 13 -16 10 -12 -2 -21 0 -22 5 -1 22 1 27 11 27 6 0 19 -5
30 -10z m-1164 -17 c-9 -9 -19 -14 -23 -11 -10 10 6 28 24 28 15 0 15 -1 -1
-17z m1813 -19 c0 -17 -8 -18 -24 -1 -18 17 -9 42 10 26 8 -6 14 -18 14 -25z
m93 22 c19 -15 24 -31 5 -20 -6 4 -17 0 -23 -10 -11 -14 -14 -15 -25 -1 -10
12 -10 18 0 30 15 18 20 18 43 1z m-2055 -16 c4 -12 3 -13 -10 -2 -9 7 -23 10
-31 6 -9 -3 -24 -1 -34 5 -14 8 -9 10 26 8 29 -1 46 -7 49 -17z m192 -5 c-7
-9 -15 -13 -18 -10 -3 2 1 11 8 20 7 9 15 13 18 10 3 -2 -1 -11 -8 -20z m985
5 c-4 -12 -1 -28 6 -36 16 -19 4 -30 -16 -14 -15 13 -20 51 -8 63 14 14 24 6
18 -13z m935 5 c0 -8 -4 -15 -10 -15 -5 0 -10 7 -10 15 0 8 5 15 10 15 6 0 10
-7 10 -15z m-593 -57 c-2 -13 -4 -3 -4 22 0 25 2 35 4 23 2 -13 2 -33 0 -45z
m-1729 9 c2 -15 0 -27 -5 -27 -13 0 -34 40 -27 51 10 17 29 4 32 -24z m1336
17 c18 -17 22 -84 6 -84 -5 0 -10 13 -10 29 0 17 -4 33 -10 36 -10 6 -14 35
-6 35 3 0 12 -7 20 -16z m-1192 -16 c-7 -7 -12 -8 -12 -2 0 14 12 26 19 19 2
-3 -1 -11 -7 -17z m385 0 c-3 -8 -6 -5 -6 6 -1 11 2 17 5 13 3 -3 4 -12 1 -19z
m423 18 c0 -2 -7 -16 -15 -32 -12 -23 -15 -25 -21 -11 -6 17 11 47 27 47 5 0
9 -2 9 -4z m632 -112 l-9 -99 -2 110 c-1 73 2 106 9 99 7 -7 7 -44 2 -110z
m508 91 c0 -14 -4 -25 -10 -25 -11 0 -14 33 -3 43 11 11 13 8 13 -18z m-30 -2
c0 -10 -4 -24 -8 -31 -6 -8 -9 -2 -9 18 0 16 4 30 9 30 4 0 8 -8 8 -17z m265
7 c3 -5 -1 -10 -9 -10 -9 0 -16 5 -16 10 0 6 4 10 9 10 6 0 13 -4 16 -10z
m-2445 -12 c0 -7 -8 -26 -19 -41 -16 -24 -19 -26 -31 -12 -20 24 -30 18 -30
-20 0 -25 -4 -35 -16 -35 -9 0 -18 9 -21 19 -3 11 -13 21 -24 24 -13 3 -19 14
-19 31 0 23 4 26 38 27 20 1 45 1 54 0 10 -1 26 2 35 8 24 14 33 13 33 -1z
m167 -10 c-3 -8 -6 -5 -6 6 -1 11 2 17 5 13 3 -3 4 -12 1 -19z m-103 -4 c9
-24 7 -34 -8 -34 -14 0 -28 34 -18 44 10 10 20 6 26 -10z m262 -21 c-11 -11
-19 6 -11 24 8 17 8 17 12 0 3 -10 2 -21 -1 -24z m2385 27 c32 -18 22 -29 -17
-19 -25 8 -39 7 -50 -2 -17 -14 -19 2 -2 19 15 15 43 15 69 2z m-2044 -80 c14
-11 43 -23 65 -26 45 -8 54 -38 13 -48 -21 -5 -24 -11 -19 -31 5 -22 1 -27
-40 -45 -26 -11 -46 -26 -46 -35 0 -8 -4 -15 -9 -15 -14 0 -19 61 -9 98 6 22
6 38 -1 46 -7 8 -6 32 2 76 10 52 13 58 15 33 2 -21 13 -40 29 -53z m1939 25
c-7 -39 -16 -57 -29 -61 -12 -4 -17 -13 -15 -27 3 -19 11 -23 58 -27 l55 -5
-30 -24 c-27 -21 -37 -23 -103 -18 -70 5 -121 -7 -137 -34 -4 -5 -15 -9 -27
-9 -16 0 -18 3 -9 14 9 11 7 22 -9 51 -22 39 -19 55 9 55 31 0 32 13 2 44 -31
32 -51 86 -33 86 20 0 66 -24 103 -52 45 -34 57 -35 69 -3 10 26 64 65 90 65
14 0 14 -8 6 -55z m-1925 25 c20 -11 27 -50 9 -50 -5 0 -10 7 -10 15 0 9 -7
18 -15 21 -8 4 -15 10 -15 15 0 12 7 11 31 -1z m531 -1 c14 -8 18 -17 14 -34
-4 -15 -1 -25 9 -29 17 -6 9 -36 -10 -36 -8 0 -17 -5 -20 -10 -4 -6 6 -9 26
-8 44 4 53 -27 13 -42 -34 -13 -23 -25 21 -22 36 4 50 -9 40 -36 -6 -16 -7
-16 -16 1 -6 9 -22 17 -37 17 -49 0 -58 15 -29 44 l26 26 -29 0 c-33 0 -38 11
-15 33 18 19 8 29 -16 17 -30 -17 -33 8 -3 35 l26 25 -27 10 c-14 6 -31 7 -37
4 -7 -4 -8 -2 -4 4 9 15 41 15 68 1z m863 1 c3 -5 -1 -10 -9 -10 -8 0 -18 5
-21 10 -3 6 1 10 9 10 8 0 18 -4 21 -10z m-1905 -120 c0 -71 -4 -110 -11 -110
-5 0 -8 4 -5 9 3 5 -3 20 -14 32 -25 31 -25 9 0 -41 11 -22 20 -50 19 -62 l0
-23 -11 23 c-15 31 -30 28 -18 -4 12 -31 13 -44 1 -44 -5 0 -12 16 -15 36 -8
41 -27 51 -62 35 -30 -13 -27 -36 5 -35 11 0 21 -5 21 -12 0 -19 -27 -24 -40
-8 -18 21 -27 17 -33 -16 -5 -21 -12 -30 -27 -30 -26 0 -25 14 2 33 l23 16
-27 0 c-34 1 -38 28 -5 33 15 2 21 9 19 21 -2 13 4 17 27 17 16 0 33 5 37 11
3 6 19 9 35 5 34 -6 34 -4 13 37 -36 69 -36 67 -12 76 26 10 31 7 52 -34 16
-29 16 -28 16 58 0 48 2 87 5 87 3 0 5 -49 5 -110z m1686 29 c-6 -86 -16 -86
-16 0 0 46 4 70 10 66 6 -4 8 -32 6 -66z m357 28 c8 -18 22 -41 32 -50 9 -10
15 -20 12 -23 -7 -7 -52 37 -60 59 -9 23 -33 16 -29 -8 2 -10 -1 -14 -7 -10
-26 15 -5 53 36 64 2 1 9 -14 16 -32z m521 4 c4 -5 -12 -12 -33 -16 -22 -4
-45 -13 -52 -21 -15 -18 -29 -18 -29 0 0 33 97 64 114 37z m-633 -18 c10 -12
11 -17 2 -20 -34 -12 -104 -68 -115 -94 -9 -19 -20 -29 -35 -29 -29 0 -53 10
-53 22 0 7 5 7 13 0 9 -8 20 -8 37 1 32 16 37 37 11 44 l-22 6 23 25 c53 57
113 77 139 45z m-2229 -18 c15 -34 -3 -55 -28 -34 -13 11 -18 11 -21 2 -7 -20
-23 -15 -23 6 0 17 34 49 53 50 4 1 13 -10 19 -24z m128 -14 c0 -11 5 -21 11
-23 8 -3 6 -10 -6 -21 -14 -14 -15 -20 -4 -33 9 -11 9 -18 1 -26 -8 -8 -13 -7
-18 5 -8 21 -26 23 -22 3 2 -8 0 -14 -5 -13 -11 3 -38 -55 -33 -70 3 -8 -1
-16 -10 -20 -11 -4 -14 -14 -10 -33 6 -33 -2 -44 -21 -29 -9 9 -13 8 -13 0 0
-6 -4 -11 -10 -11 -5 0 -7 7 -4 15 4 10 0 15 -15 15 -30 0 -26 17 6 25 14 3
36 13 47 22 21 15 21 15 -1 8 -14 -4 -23 -2 -23 4 0 6 5 11 11 11 6 0 8 9 4
20 -5 16 -2 20 15 20 14 0 20 5 17 13 -5 14 27 50 55 60 13 5 16 14 11 41 -4
24 -2 36 6 36 6 0 11 -9 11 -19z m52 -23 c-15 -15 -26 -4 -18 18 5 13 9 15 18
6 9 -9 9 -15 0 -24z m905 -25 c-3 -10 -5 -2 -5 17 0 19 2 27 5 18 2 -10 2 -26
0 -35z m1209 32 c2 -5 -15 -21 -38 -35 -22 -14 -54 -38 -71 -53 -32 -29 -61
-29 -55 0 2 11 14 19 31 21 28 3 36 17 15 25 -7 3 -2 6 12 6 19 1 22 3 10 11
-12 7 -10 11 10 18 14 5 32 12 40 15 21 8 43 4 46 -8z m-1666 -26 c0 -12 -7
-19 -20 -19 -24 0 -26 -15 -3 -24 10 -4 20 -1 25 9 9 16 63 21 72 7 10 -16
-11 -34 -33 -27 -12 3 -21 2 -21 -3 0 -6 18 -13 40 -17 42 -7 46 -25 4 -25
-29 0 -32 -16 -4 -25 19 -6 28 -25 12 -25 -4 0 -12 -10 -17 -22 -13 -29 -82
-43 -105 -22 -32 27 -67 -7 -125 -121 l-15 -30 2 30 c1 17 -1 36 -5 42 -6 9
-1 12 14 10 16 -1 24 4 28 19 13 46 47 73 96 78 26 3 49 7 52 10 10 9 -8 26
-29 26 -15 0 -18 4 -13 18 16 37 11 47 -25 49 -27 1 -30 0 -12 -5 28 -8 32
-26 8 -30 -10 -2 -24 6 -32 17 -19 26 -29 26 -66 0 -20 -15 -28 -28 -25 -40 3
-11 1 -22 -4 -25 -15 -9 -10 -34 6 -28 10 4 15 0 15 -11 0 -12 -5 -15 -20 -10
-14 4 -20 2 -20 -9 0 -10 6 -13 15 -10 8 4 15 1 15 -5 0 -6 -2 -11 -4 -11 -2
0 -11 -3 -20 -6 -12 -5 -16 0 -16 17 -1 21 -2 22 -11 7 -5 -10 -15 -18 -21
-18 -9 0 -9 3 0 12 7 7 12 23 12 35 0 21 -3 22 -20 13 -17 -9 -20 -7 -20 12 0
13 -1 34 -2 48 -2 17 3 25 15 28 12 2 17 -3 17 -17 0 -29 21 -37 36 -15 7 10
18 24 24 31 15 19 12 30 -11 36 -17 5 -19 9 -9 26 15 30 40 27 40 -5 0 -22 4
-25 23 -21 12 3 39 9 60 12 39 8 44 14 26 32 -9 9 -3 14 22 21 40 11 49 7 49
-19z m-100 1 c0 -11 -2 -20 -4 -20 -2 0 -11 -3 -19 -6 -17 -6 -31 33 -13 40
24 10 36 5 36 -14z m1173 8 c15 -7 27 -16 27 -20 0 -17 40 -7 40 10 0 10 3 13
8 7 4 -6 19 -16 35 -22 23 -11 27 -10 27 2 0 19 -2 19 48 -5 22 -11 45 -20 50
-20 5 0 15 -7 22 -15 11 -13 8 -15 -19 -15 -17 0 -30 -3 -30 -7 1 -5 0 -11 -1
-15 -1 -5 -3 -12 -4 -18 0 -5 -4 -10 -8 -10 -5 0 -13 0 -19 0 -5 0 -7 5 -3 12
5 8 2 9 -12 3 -10 -4 -31 -10 -46 -13 -38 -6 -36 17 2 31 32 12 34 15 21 36
-6 10 -20 2 -56 -32 -38 -37 -46 -50 -41 -69 l7 -23 -14 23 c-15 26 -27 20
-27 -14 0 -31 -30 -104 -42 -104 -6 0 -3 11 6 25 18 28 21 75 5 75 -7 0 -9 9
-5 23 4 16 -1 27 -17 39 -20 16 -21 18 -6 34 12 11 15 27 12 55 -6 42 -1 46
40 27z m642 -7 c17 -7 13 -13 -37 -44 -31 -20 -59 -41 -63 -47 -9 -15 -45 -12
-45 4 0 20 25 37 44 30 12 -4 15 -2 11 9 -4 9 6 22 27 35 37 24 35 24 63 13z
m-2155 -31 c0 -11 -6 -20 -14 -20 -18 0 -29 16 -21 30 11 18 35 11 35 -10z
m1812 -12 c-11 -11 -32 -3 -32 12 0 12 34 18 39 7 2 -5 -1 -13 -7 -19z m402 7
c22 -16 21 -17 -40 -60 -21 -15 -84 -11 -84 5 0 7 90 70 100 70 3 -1 14 -7 24
-15z m78 -63 c35 -30 1 -37 -75 -16 -21 6 -13 22 17 34 22 8 31 6 58 -18z
m-1980 1 c25 -22 23 -33 -7 -33 -20 0 -25 5 -25 25 0 29 7 31 32 8z m628 -33
c0 -5 -9 -10 -20 -10 -11 0 -20 -4 -20 -10 0 -14 6 -13 46 6 19 9 38 14 41 10
11 -11 11 -50 1 -63 -8 -10 -5 -13 8 -13 16 -1 14 -4 -8 -21 -33 -25 -35 -35
-8 -44 27 -9 25 -34 -2 -33 -52 1 -76 10 -81 30 -5 17 -9 19 -20 10 -8 -7 -17
-9 -20 -5 -8 7 -46 -37 -47 -54 0 -7 -9 -17 -19 -23 -11 -5 -27 -17 -35 -26
-12 -11 -16 -12 -16 -2 0 7 16 26 35 41 30 24 33 30 23 47 -16 25 5 50 43 50
16 0 29 5 29 11 0 5 -4 7 -10 4 -5 -3 2 27 17 68 25 72 26 74 44 56 11 -11 19
-23 19 -29z m-293 8 c-1 -17 4 -24 21 -26 12 -2 22 -8 22 -13 0 -15 -42 -10
-60 6 -18 17 -53 10 -47 -9 2 -6 13 -12 25 -14 12 -2 22 -10 22 -18 0 -17 12
-18 28 -2 9 9 12 9 12 1 0 -7 -14 -21 -30 -33 -25 -18 -29 -25 -19 -36 15 -18
4 -30 -14 -15 -8 6 -27 12 -43 13 -16 1 -41 10 -56 20 -32 22 -57 23 -103 4
-32 -14 -48 -36 -25 -36 5 0 7 -7 4 -15 -4 -8 -2 -15 3 -15 6 0 15 -11 21 -25
9 -20 9 -25 -2 -25 -8 0 -17 6 -20 13 -5 10 -7 10 -12 0 -8 -18 -25 -15 -54 9
-16 14 -21 22 -12 25 6 3 12 10 12 17 0 31 89 86 139 86 21 0 52 17 103 55 40
30 76 55 80 55 4 0 7 -10 5 -22z m543 2 c0 -5 -5 -10 -11 -10 -5 0 -7 5 -4 10
3 6 8 10 11 10 2 0 4 -4 4 -10z m1396 -80 c-26 -54 -26 -73 -1 -64 8 4 17 0
19 -7 2 -8 7 -23 12 -34 4 -11 9 -50 11 -87 l3 -67 -44 -6 c-56 -9 -69 -5 -55
15 8 11 12 12 16 3 2 -7 11 -13 19 -13 9 0 12 5 8 13 -4 6 -4 9 1 5 9 -9 49
11 41 20 -4 3 -30 5 -59 5 -28 -1 -41 1 -27 4 31 6 51 23 27 23 -9 0 -17 5
-17 10 0 6 6 10 14 10 20 0 27 26 11 40 -8 6 -29 10 -47 8 -29 -3 -33 -6 -33
-33 0 -23 -5 -31 -22 -33 -16 -2 -23 -10 -23 -27 0 -15 8 -25 23 -30 19 -6 19
-8 5 -12 -22 -6 -23 -19 -2 -31 9 -5 14 -14 10 -21 -8 -12 -56 38 -56 58 0 6
-15 11 -34 11 -19 0 -41 3 -50 6 -22 8 -20 34 2 34 23 0 56 35 47 49 -3 6 -22
11 -40 11 -26 0 -39 6 -51 25 -10 16 -26 25 -42 25 l-26 0 22 22 c19 20 33 23
100 23 42 -1 95 -5 116 -9 l39 -9 -6 31 c-9 46 10 79 52 93 20 6 41 16 46 21
21 20 15 -31 -9 -82z m-1730 52 c-18 -16 -18 -16 -6 6 6 13 14 21 18 18 3 -4
-2 -14 -12 -24z m234 1 c0 -22 -2 -25 -10 -13 -13 20 -13 40 0 40 6 0 10 -12
10 -27z m-358 -5 c-7 -7 -12 -8 -12 -2 0 14 12 26 19 19 2 -3 -1 -11 -7 -17z
m1128 -13 c-7 -8 -10 -24 -7 -35 4 -16 0 -20 -19 -20 -13 0 -24 4 -24 9 0 14
51 73 58 67 3 -3 -1 -12 -8 -21z m-593 3 c7 -11 12 -78 6 -78 -1 0 -13 5 -27
11 -17 8 -25 19 -23 33 1 15 -4 22 -21 24 -12 2 -20 8 -17 13 9 13 73 11 82
-3z m499 -55 c-3 -3 -12 -3 -20 0 -13 5 -13 10 2 39 l17 33 3 -33 c2 -19 1
-36 -2 -39z m399 28 c-4 -17 -11 -31 -16 -31 -5 0 -9 -7 -9 -16 0 -14 -2 -15
-17 -3 -15 13 -16 12 -11 -8 7 -26 -7 -41 -16 -18 -4 11 -10 13 -23 6 -10 -5
-26 -12 -35 -15 -11 -3 -18 -15 -18 -31 0 -20 -5 -25 -27 -25 -30 0 -63 -25
-64 -49 0 -12 -3 -11 -8 4 -10 24 1 40 51 71 27 17 35 28 31 43 -4 16 5 24 46
42 28 12 51 25 51 29 0 9 63 41 68 35 2 -2 1 -17 -3 -34z m-2005 -27 c0 -8 -6
-11 -17 -7 -12 5 -15 2 -10 -10 3 -9 2 -19 -4 -22 -5 -4 -7 -10 -4 -15 3 -5 1
-11 -4 -14 -11 -7 -23 22 -15 35 3 5 -4 9 -16 9 -12 0 -18 5 -15 10 3 6 15 10
26 10 10 0 19 6 19 14 0 9 7 12 20 9 11 -3 20 -11 20 -19z m640 16 c0 -5 -4
-10 -10 -10 -5 0 -10 5 -10 10 0 6 5 10 10 10 6 0 10 -4 10 -10z m1143 -15
c26 -18 5 -26 -32 -12 -36 13 -44 43 -8 31 12 -4 30 -12 40 -19z m-833 -9 c0
-14 5 -28 10 -31 19 -12 10 -25 -15 -23 -14 1 -25 8 -25 15 0 7 -15 23 -32 34
l-33 21 32 -6 c18 -3 35 -1 38 4 11 18 25 10 25 -14z m-1121 -22 c-16 -19 -29
-17 -29 4 0 26 11 34 27 21 10 -9 10 -15 2 -25z m767 -16 c-9 -12 -16 -30 -16
-40 0 -10 -4 -18 -10 -18 -5 0 -3 18 5 41 19 53 27 67 33 51 2 -6 -4 -22 -12
-34z m584 22 c0 -5 -4 -10 -10 -10 -5 0 -10 5 -10 10 0 6 5 10 10 10 6 0 10
-4 10 -10z m-1425 -10 c3 -5 1 -10 -4 -10 -6 0 -11 5 -11 10 0 6 2 10 4 10 3
0 8 -4 11 -10z m1955 0 c0 -5 -4 -10 -9 -10 -6 0 -13 5 -16 10 -3 6 1 10 9 10
9 0 16 -4 16 -10z m-300 -26 c-6 -14 -21 -40 -35 -58 -15 -20 -22 -39 -19 -53
4 -15 0 -25 -15 -33 -21 -11 -41 -6 -41 10 0 4 9 6 21 3 18 -5 20 -2 17 20 -2
16 10 46 32 81 37 59 56 73 40 30z m130 16 c0 -5 -4 -10 -10 -10 -5 0 -10 5
-10 10 0 6 5 10 10 10 6 0 10 -4 10 -10z m-1203 -6 c-3 -3 -12 -4 -19 -1 -8 3
-5 6 6 6 11 1 17 -2 13 -5z m1019 -32 c-18 -34 -34 -48 -44 -37 -4 3 1 11 11
17 10 5 22 21 28 35 5 14 12 23 15 20 3 -3 -2 -19 -10 -35z m1124 28 c0 -5 -4
-10 -10 -10 -5 0 -10 5 -10 10 0 6 5 10 10 10 6 0 10 -4 10 -10z m-2418 -12
c-9 -9 -15 -9 -24 0 -9 9 -7 12 12 12 19 0 21 -3 12 -12z m206 -8 c-14 -22
-24 -19 -15 5 4 8 11 15 17 15 6 0 6 -7 -2 -20z m-408 -19 c0 -5 -9 -7 -20 -4
-11 3 -20 12 -20 20 0 11 4 11 20 3 11 -6 20 -15 20 -19z m1190 -13 c0 -12 59
-61 88 -74 15 -7 21 -13 14 -13 -7 -1 -11 -5 -8 -10 3 -5 34 -7 69 -4 76 7 71
-3 -9 -18 -32 -5 -67 -13 -78 -16 -13 -4 -16 -1 -11 7 8 13 5 13 -60 -5 -21
-6 -43 19 -50 56 -6 28 14 23 25 -7 6 -15 15 -23 23 -20 6 3 20 9 29 12 15 5
9 15 -32 63 -28 32 -50 61 -50 65 0 9 49 -27 50 -36z m-1410 28 c0 -3 -4 -8
-10 -11 -5 -3 -10 -1 -10 4 0 6 5 11 10 11 6 0 10 -2 10 -4z m134 -12 c4 -10
13 -13 25 -9 27 8 44 -17 32 -48 -5 -14 -7 -28 -3 -32 3 -3 0 -10 -8 -15 -11
-7 -11 -11 -1 -24 8 -10 11 -26 7 -42 -6 -23 -11 -26 -38 -20 -17 3 -37 6 -44
6 -8 0 -14 9 -14 20 0 19 1 20 25 4 30 -19 55 -12 55 15 0 17 -5 20 -30 15
-23 -5 -30 -3 -30 10 0 15 17 21 47 17 9 -1 12 9 8 35 -5 44 -9 48 -30 40 -11
-4 -14 -12 -10 -27 5 -15 2 -22 -14 -26 -12 -3 -25 -19 -32 -42 -6 -20 -14
-40 -17 -45 -6 -10 -20 20 -21 44 -1 13 1 13 8 1 8 -12 11 -9 16 12 4 15 14
31 23 36 20 11 8 45 -14 37 -9 -3 -12 -2 -9 5 4 5 1 16 -5 24 -7 9 -8 15 -2
15 5 0 15 -7 22 -15 17 -21 30 -19 30 5 0 24 15 27 24 4z m166 -21 c0 -7 -8
-13 -17 -13 -13 0 -14 3 -6 11 6 6 9 19 6 28 -4 14 -3 14 6 1 6 -8 11 -21 11
-27z m1830 29 c0 -13 -12 -22 -22 -16 -10 6 -1 24 13 24 5 0 9 -4 9 -8z m200
0 c0 -5 -11 -14 -24 -20 -23 -10 -24 -14 -15 -48 8 -27 7 -39 -2 -48 -9 -8
-11 -6 -7 10 6 24 -7 54 -24 54 -7 0 -9 -14 -5 -37 3 -21 1 -47 -3 -58 -10
-23 -10 -23 -14 30 -2 22 -6 47 -10 55 -5 11 8 23 46 43 60 31 58 30 58 19z
m-1665 -30 c0 -31 -19 -28 -23 4 -3 18 0 25 10 22 7 -3 13 -14 13 -26z m675
-63 c0 -45 3 -59 14 -59 8 0 18 -4 21 -10 9 -15 -28 -12 -50 4 -17 12 -18 17
-7 41 11 25 10 30 -9 48 -14 13 -18 22 -11 25 7 2 12 11 12 19 0 13 3 13 15 3
10 -8 15 -31 15 -71z m588 57 c13 -5 22 -3 22 3 0 6 5 11 11 11 5 0 7 -5 4
-10 -3 -6 5 -14 19 -20 14 -5 26 -12 26 -15 0 -11 -75 8 -105 28 -16 10 -23
17 -15 14 8 -2 25 -7 38 -11z m-784 -12 c11 -30 6 -62 -11 -68 -10 -4 -31 -14
-46 -22 -16 -9 -31 -13 -35 -10 -3 4 3 9 15 12 22 6 39 32 28 43 -3 3 -15 -1
-26 -8 -25 -15 -37 -7 -19 14 15 18 41 20 58 3 20 -20 40 7 24 32 -7 11 -8 20
-3 20 5 0 12 -7 15 -16z m-1115 -63 c-11 -18 -13 -33 -8 -38 5 -5 12 -34 14
-64 l5 -54 -11 42 c-16 68 -31 88 -61 88 -31 0 -39 19 -9 21 11 1 27 4 36 8
14 5 15 9 5 21 -7 8 -9 22 -6 32 6 15 9 14 29 -5 21 -22 21 -24 6 -51z m376
59 c8 -13 -57 -30 -70 -18 -6 6 -5 12 5 18 20 13 57 13 65 0z m335 -37 l0 -26
-20 26 c-11 14 -20 30 -20 36 0 9 5 9 20 1 12 -6 20 -21 20 -37z m1320 37 c0
-5 -5 -10 -11 -10 -5 0 -7 5 -4 10 3 6 8 10 11 10 2 0 4 -4 4 -10z m288 -8 c6
-18 -15 -14 -22 4 -4 10 -1 14 6 12 6 -2 14 -10 16 -16z m402 14 c0 -11 -19
-15 -25 -6 -3 5 1 10 9 10 9 0 16 -2 16 -4z m-2430 -50 c0 -15 3 -16 14 -7 20
17 121 28 112 13 -4 -7 -20 -12 -36 -12 -32 0 -60 -9 -60 -19 0 -3 46 -6 103
-6 79 0 112 -4 145 -19 60 -27 53 -39 -20 -31 -128 13 -169 11 -179 -7 -8 -14
-19 -16 -57 -12 -26 4 -54 13 -62 21 -13 13 -8 15 43 10 66 -6 88 9 27 19 -22
4 -40 12 -40 19 0 7 -3 28 -6 46 -4 26 -3 30 5 19 6 -8 11 -23 11 -34z m-77
19 c-2 -5 -14 -10 -27 -10 -16 -1 -22 4 -19 13 6 15 49 12 46 -3z m647 0 c-7
-8 -17 -15 -22 -15 -11 0 14 29 26 30 5 0 3 -7 -4 -15z m133 -2 c-8 -25 -24
-43 -35 -43 -5 0 -1 14 9 30 19 33 36 41 26 13z m971 -16 c3 4 6 2 6 -4 0 -18
-27 -23 -54 -10 -41 19 -33 39 8 22 18 -8 36 -11 40 -8z m-1376 -5 c82 -7 87
-8 90 -31 6 -41 -16 -50 -44 -18 -19 22 -37 30 -80 36 -30 4 -60 14 -67 21 -9
10 -9 11 1 6 7 -4 52 -11 100 -14z m1557 8 c3 -5 -1 -10 -9 -10 -9 0 -16 5
-16 10 0 6 4 10 9 10 6 0 13 -4 16 -10z m-262 -14 c3 -7 0 -19 -6 -26 -9 -9
-5 -11 23 -5 30 7 33 6 22 -7 -6 -8 -9 -18 -5 -21 3 -4 1 -7 -5 -7 -7 0 -12
-10 -12 -23 0 -12 -9 -28 -20 -35 -11 -7 -20 -19 -20 -27 0 -21 -56 -20 -64 1
-3 8 3 25 14 36 11 12 21 27 22 32 0 6 2 16 3 21 2 6 4 15 5 20 1 6 3 15 5 20
1 6 3 16 3 23 3 16 29 15 35 -2z m302 4 c3 -5 1 -10 -4 -10 -6 0 -11 5 -11 10
0 6 2 10 4 10 3 0 8 -4 11 -10z m-1915 -16 c0 -2 -9 -4 -21 -4 -11 0 -18 4
-14 10 5 8 35 3 35 -6z m629 -35 c-21 -16 -109 -28 -109 -14 0 7 67 36 82 34
27 -3 38 2 39 19 1 14 2 14 6 -2 3 -12 -3 -26 -18 -37z m1561 41 c0 -5 -7 -10
-16 -10 -8 0 -12 5 -9 10 3 6 10 10 16 10 5 0 9 -4 9 -10z m-1680 -52 c0 -15
-18 -8 -24 10 -3 9 -9 24 -12 32 -4 8 3 4 15 -9 11 -13 21 -28 21 -33z m370
42 c0 -5 -2 -10 -4 -10 -3 0 -8 5 -11 10 -3 6 -1 10 4 10 6 0 11 -4 11 -10z
m115 -10 c3 -5 1 -10 -4 -10 -6 0 -11 5 -11 10 0 6 2 10 4 10 3 0 8 -4 11 -10z
m850 0 c-3 -5 -13 -10 -21 -10 -8 0 -12 5 -9 10 3 6 13 10 21 10 8 0 12 -4 9
-10z m55 -20 c-15 -12 -21 -23 -17 -35 4 -9 4 -22 0 -28 -4 -7 -9 -3 -13 12
-3 14 -12 27 -19 29 -11 4 -12 -4 -8 -34 l6 -39 -12 32 c-20 53 -30 51 -24 -4
7 -62 -7 -72 -17 -13 -7 47 -38 59 -32 13 2 -16 1 -21 -1 -13 -3 8 -9 19 -14
25 -10 10 -12 0 -10 -50 l0 -30 -10 28 c-8 21 -16 27 -29 24 -11 -3 -21 1 -24
8 -6 17 38 47 58 39 11 -4 16 0 16 14 0 17 5 19 38 15 25 -3 50 2 77 15 46 23
69 17 35 -8z m-995 0 c3 -5 -1 -10 -9 -10 -9 0 -16 5 -16 10 0 6 4 10 9 10 6
0 13 -4 16 -10z m-1245 -20 c13 -8 13 -10 -2 -10 -9 0 -20 5 -23 10 -8 13 5
13 25 0z m1764 -10 c16 -6 26 -13 23 -16 -7 -8 -130 17 -142 29 -13 12 78 3
119 -13z m86 11 c0 -17 -18 -21 -24 -6 -3 9 0 15 9 15 8 0 15 -4 15 -9z m670
0 c0 -5 -11 -8 -24 -7 -13 0 -22 4 -19 9 6 10 43 9 43 -2z m-1505 -21 c-10
-11 -27 -20 -37 -20 -10 0 -29 -6 -41 -14 -28 -17 -132 -8 -132 12 0 9 24 14
80 16 44 2 91 9 105 14 38 16 45 14 25 -8z m110 11 c-7 -13 -75 -35 -82 -27
-4 3 8 9 26 12 17 4 34 11 37 15 3 5 10 9 15 9 6 0 8 -4 4 -9z m293 -13 c48 0
94 2 102 3 8 1 30 1 49 1 l34 -2 -38 -26 c-22 -14 -46 -23 -57 -21 -14 4 -20
-1 -25 -24 -7 -35 -44 -45 -131 -34 -109 13 -162 34 -162 64 0 31 17 43 59 43
22 0 43 4 47 9 4 6 11 6 20 -2 9 -7 48 -12 102 -11z m892 14 c0 -10 -22 -32
-32 -32 -5 0 -3 9 4 20 13 20 28 27 28 12z m150 -26 c0 -4 -11 -5 -24 -2 -16
4 -26 1 -30 -9 -3 -9 -17 -15 -33 -15 l-28 1 33 28 c29 25 37 27 58 17 13 -6
24 -15 24 -20z m110 19 c0 -8 -4 -15 -10 -15 -5 0 -10 7 -10 15 0 8 5 15 10
15 6 0 10 -7 10 -15z m-2288 -7 c16 16 28 15 28 -3 0 -8 -7 -15 -15 -15 -8 0
-23 -8 -34 -19 -28 -28 -49 -10 -25 22 13 16 21 21 26 14 5 -9 10 -9 20 1z
m-248 -33 c6 -11 14 -22 17 -25 6 -5 12 -24 24 -73 8 -37 -17 -32 -25 4 -6 21
-11 24 -44 21 -34 -3 -36 -1 -27 17 6 10 16 22 23 25 10 3 8 9 -6 20 -20 16
-13 39 11 34 9 -2 21 -12 27 -23z m97 -9 c-14 -17 -7 -36 15 -36 9 0 14 11 14
30 0 17 3 30 8 30 4 0 6 -29 4 -64 -3 -59 -6 -65 -29 -71 -28 -7 -53 9 -53 34
0 10 7 39 16 65 11 33 20 44 27 37 7 -7 6 -15 -2 -25z m523 23 c30 -1 -180
-48 -216 -49 -29 0 -20 18 11 25 16 3 35 13 43 22 10 12 25 14 72 9 32 -3 73
-6 90 -7z m1110 -18 c16 -6 26 -14 23 -18 -4 -3 -20 0 -36 7 -16 6 -38 10 -48
8 -13 -3 -6 -10 27 -28 25 -14 46 -33 48 -42 3 -15 -1 -15 -45 -1 -26 8 -72
20 -100 25 -56 11 -65 24 -36 54 13 13 29 15 77 11 34 -3 74 -10 90 -16z
m-1407 3 c13 -4 20 -10 17 -15 -3 -5 2 -9 10 -9 30 0 16 -17 -27 -34 -50 -19
-57 -20 -57 -6 0 6 6 10 14 10 8 0 18 5 21 10 4 6 -8 10 -30 10 -35 0 -36 -1
-30 -29 5 -26 3 -28 -19 -28 -15 0 -26 3 -26 8 0 5 7 9 15 9 9 0 15 9 15 23 0
31 14 49 32 42 9 -4 19 -2 23 4 7 13 12 13 42 5z m2329 -11 c-3 -17 -26 -32
-26 -16 0 8 20 33 26 33 1 0 1 -8 0 -17z m-2482 -8 c3 -9 0 -15 -9 -15 -9 0
-12 6 -9 15 4 8 7 15 9 15 2 0 5 -7 9 -15z m936 5 c0 -5 -2 -10 -4 -10 -3 0
-8 5 -11 10 -3 6 -1 10 4 10 6 0 11 -4 11 -10z m-44 -17 c28 -38 4 -70 -47
-63 -43 6 -89 -1 -89 -14 0 -17 21 -26 68 -27 85 -3 -55 -17 -153 -15 -89 1
-100 3 -97 19 4 22 -7 21 -96 -3 -82 -23 -82 -23 -82 -11 0 9 31 22 98 40 43
12 49 31 9 31 -19 0 -141 -37 -212 -64 -11 -5 -7 1 9 12 16 11 54 28 85 37 31
9 82 25 113 35 55 18 147 21 205 7 13 -3 25 -1 29 4 19 32 138 40 160 12z
m1206 -8 c-5 -28 -20 -33 -29 -9 -3 9 0 20 8 25 22 14 27 11 21 -16z m-1635 9
c-3 -3 -12 -4 -19 -1 -8 3 -5 6 6 6 11 1 17 -2 13 -5z m1370 -31 c-3 -10 -5
-4 -5 12 0 17 2 24 5 18 2 -7 2 -21 0 -30z m713 15 c0 -18 -2 -20 -9 -8 -6 8
-7 18 -5 22 9 14 14 9 14 -14z m-2195 -6 c-17 -15 -63 -31 -69 -25 -12 12 -6
22 17 26 40 8 61 7 52 -1z m605 -2 c0 -5 -2 -10 -4 -10 -3 0 -8 5 -11 10 -3 6
-1 10 4 10 6 0 11 -4 11 -10z m1627 -42 c-3 -7 -5 -2 -5 12 0 14 2 19 5 13 2
-7 2 -19 0 -25z m-57 1 c0 -5 -4 -9 -10 -9 -5 0 -10 7 -10 16 0 8 5 12 10 9 6
-3 10 -10 10 -16z m-1463 5 c-3 -3 -12 -4 -19 -1 -8 3 -5 6 6 6 11 1 17 -2 13
-5z m-1234 -56 c6 -4 8 -10 4 -15 -12 -11 -27 18 -25 47 l1 25 4 -25 c3 -14
10 -28 16 -32z m2364 46 c-3 -3 -12 -4 -19 -1 -8 3 -5 6 6 6 11 1 17 -2 13 -5z
m253 -4 c-20 -13 -33 -13 -25 0 3 6 14 10 23 10 15 0 15 -2 2 -10z m-2352 -19
c-4 -19 -22 -18 -26 2 -2 7 4 14 13 14 9 0 15 -7 13 -16z m1162 9 c0 -5 -19
-10 -42 -9 -37 1 -39 2 -18 9 36 12 60 12 60 0z m820 0 c0 -5 -4 -10 -10 -10
-5 0 -10 5 -10 10 0 6 5 10 10 10 6 0 10 -4 10 -10z m-1902 -17 c2 -8 -6 -13
-22 -13 -25 0 -33 10 -19 24 10 10 36 3 41 -11z m1582 -3 c0 -5 -4 -10 -10
-10 -5 0 -10 5 -10 10 0 6 5 10 10 10 6 0 10 -4 10 -10z m-690 -86 c679 -1
1321 1 1425 5 117 4 195 3 203 -3 10 -7 13 -45 11 -158 -1 -82 -4 -159 -6
-171 l-4 -22 -1460 0 -1459 0 0 27 c0 22 5 27 28 30 25 3 27 7 32 58 l6 55 23
-50 c16 -33 20 -50 12 -53 -6 -2 -9 -8 -5 -13 7 -11 81 -12 88 -1 3 5 18 7 34
4 l28 -4 -7 69 c-5 37 -6 87 -3 110 5 36 3 42 -16 48 -12 4 -24 4 -28 1 -3 -4
-5 -51 -3 -106 2 -62 -1 -100 -7 -100 -13 0 -72 101 -72 122 0 8 11 25 25 38
14 13 25 27 25 32 0 4 -11 8 -25 8 -17 0 -25 -5 -25 -18 0 -15 -32 -52 -45
-52 -3 0 -5 16 -5 35 0 32 -2 35 -30 35 -29 0 -30 2 -30 46 0 46 0 46 28 39
15 -5 583 -9 1262 -11z m-1270 -182 c0 -42 -5 -84 -10 -92 -7 -10 -10 16 -10
83 0 63 4 96 10 92 6 -3 10 -41 10 -83z"/>
<g>
<path d="M1640 3850 c0 -5 7 -10 15 -10 8 0 15 5 15 10 0 6 -7 10 -15 10 -8 0
-15 -4 -15 -10z"/>
</g>
<g>
<path d="M1683 3773 c-13 -2 -23 -9 -23 -14 0 -15 53 -7 58 9 2 6 0 11 -5 11
-4 -1 -18 -4 -30 -6z"/>
</g>
<g>
<path d="M2700 3904 l-45 -14 55 6 c30 3 59 9 65 15 13 13 -21 10 -75 -7z"/>
</g>
<g>
<path d="M2690 3860 c0 -5 5 -10 10 -10 6 0 10 5 10 10 0 6 -4 10 -10 10 -5 0
-10 -4 -10 -10z"/>
</g>
<g>
<path d="M2900 3926 c0 -10 9 -16 25 -16 14 0 25 5 25 10 0 6 -4 10 -9 10 -5
0 -16 3 -25 6 -11 4 -16 1 -16 -10z"/>
</g>
<g>
<path d="M2910 3730 c0 -5 5 -10 10 -10 6 0 10 5 10 10 0 6 -4 10 -10 10 -5 0
-10 -4 -10 -10z"/>
</g>
<g>
<path d="M2950 3320 c0 -5 5 -10 10 -10 6 0 10 5 10 10 0 6 -4 10 -10 10 -5 0
-10 -4 -10 -10z"/>
</g>
<g>
<path d="M2790 3525 c0 -8 5 -15 10 -15 6 0 10 7 10 15 0 8 -4 15 -10 15 -5 0
-10 -7 -10 -15z"/>
</g>
<g>
<path d="M2770 3430 c0 -5 5 -10 10 -10 6 0 10 5 10 10 0 6 -4 10 -10 10 -5 0
-10 -4 -10 -10z"/>
</g>
<g>
<path d="M2865 3380 c-3 -5 1 -10 10 -10 9 0 13 5 10 10 -3 6 -8 10 -10 10 -2
0 -7 -4 -10 -10z"/>
</g>
<g>
<path d="M851 3072 c-7 -13 -11 -26 -8 -28 8 -8 29 25 25 38 -3 8 -9 4 -17
-10z"/>
</g>
<g>
<path d="M809 3013 c-13 -15 -12 -15 9 -4 23 12 28 21 13 21 -5 0 -15 -7 -22
-17z"/>
</g>
<g>
<path d="M2337 3114 c-11 -11 3 -24 24 -24 12 0 19 5 17 13 -5 14 -31 21 -41
11z"/>
</g>
<g>
<path d="M2345 2890 c4 -6 11 -8 16 -5 14 9 11 15 -7 15 -8 0 -12 -5 -9 -10z"/>
</g>
<g>
<path d="M2550 2980 c0 -11 5 -20 10 -20 6 0 10 9 10 20 0 11 -4 20 -10 20 -5
0 -10 -9 -10 -20z"/>
</g>
<g>
<path d="M2560 2780 c0 -5 5 -10 10 -10 6 0 10 5 10 10 0 6 -4 10 -10 10 -5 0
-10 -4 -10 -10z"/>
</g>
<g>
<path d="M2041 2858 c-5 -13 -18 -44 -30 -70 l-20 -48 -81 0 c-101 0 -104 -11
-18 -65 27 -17 48 -34 48 -38 0 -5 -13 -38 -30 -74 -16 -35 -30 -68 -30 -73 0
-24 27 -16 98 30 l79 50 74 -50 c81 -54 89 -57 89 -34 0 21 -31 117 -41 129
-16 16 -10 24 52 65 33 23 58 47 56 53 -3 8 -30 12 -80 12 l-76 -1 -24 66
c-26 70 -50 88 -66 48z m44 -64 c8 -20 12 -40 9 -45 -7 -13 -64 -11 -64 1 0
15 28 80 34 80 3 0 13 -16 21 -36z m155 -73 c0 -5 -8 -11 -17 -15 -10 -3 -25
-11 -35 -18 -13 -9 -20 -9 -32 1 -25 21 -19 29 22 34 20 2 43 4 50 5 6 1 12
-2 12 -7z m-267 -7 c7 -7 -14 -44 -26 -44 -16 0 -57 32 -51 41 6 10 67 12 77
3z m151 -16 c10 -39 7 -45 -32 -71 l-39 -25 -34 21 c-19 11 -36 22 -38 24 -3
2 3 19 12 38 16 34 19 35 71 35 47 0 54 -3 60 -22z m-129 -90 c14 -6 24 -15
23 -19 -2 -4 -25 -23 -52 -44 -26 -20 -47 -33 -45 -28 2 4 12 29 23 56 10 26
20 47 22 47 2 0 15 -5 29 -12z m170 -34 c9 -25 15 -48 12 -51 -9 -9 -97 57
-97 73 0 8 4 12 10 9 5 -3 18 -1 27 4 27 16 29 14 48 -35z"/>
</g>
<g>
<path d="M245 2590 c-4 -6 7 -10 24 -10 17 0 31 5 31 10 0 6 -11 10 -24 10
-14 0 -28 -4 -31 -10z"/>
</g>
<g>
<path d="M2780 2530 c0 -27 -3 -30 -32 -31 -29 0 -30 -1 -11 -9 38 -16 63 -2
63 36 0 19 -4 34 -10 34 -5 0 -10 -13 -10 -30z"/>
</g>
<g>
<path d="M2956 2551 c-4 -7 -5 -15 -2 -18 9 -9 19 4 14 18 -4 11 -6 11 -12 0z"/>
</g>
<g>
<path d="M2750 2425 c0 -8 5 -15 10 -15 6 0 10 7 10 15 0 8 -4 15 -10 15 -5 0
-10 -7 -10 -15z"/>
</g>
<g>
<path d="M2700 2400 c0 -5 5 -10 10 -10 6 0 10 5 10 10 0 6 -4 10 -10 10 -5 0
-10 -4 -10 -10z"/>
</g>
<g>
<path d="M2765 2361 c-6 -11 9 -23 19 -14 9 9 7 23 -3 23 -6 0 -12 -4 -16 -9z"/>
</g>
<g>
<path d="M136 2409 c-7 -39 -8 -154 0 -147 6 7 17 178 11 178 -3 0 -7 -14 -11
-31z"/>
</g>
<g>
<path d="M50 2420 c0 -5 5 -10 11 -10 5 0 7 5 4 10 -3 6 -8 10 -11 10 -2 0 -4
-4 -4 -10z"/>
</g>
<g>
<path d="M60 2319 c0 -27 4 -48 8 -45 12 7 14 96 2 96 -5 0 -10 -23 -10 -51z"/>
</g>
<g>
<path d="M168 2270 c-2 -67 0 -91 10 -95 7 -3 11 -9 7 -14 -3 -5 0 -13 6 -17
9 -5 11 9 6 56 -4 35 -7 85 -7 111 0 87 -18 52 -22 -41z"/>
</g>
<g>
<path d="M142 2210 c0 -14 2 -19 5 -12 2 6 2 18 0 25 -3 6 -5 1 -5 -13z"/>
</g>
<g>
<path d="M1115 2280 c-3 -5 3 -10 14 -10 12 0 21 5 21 10 0 6 -6 10 -14 10 -8
0 -18 -4 -21 -10z"/>
</g>
<g>
<path d="M1110 2245 c7 -9 15 -13 17 -11 7 7 -7 26 -19 26 -6 0 -6 -6 2 -15z"/>
</g>
<g>
<path d="M2200 1500 c0 -5 9 -10 21 -10 11 0 17 5 14 10 -3 6 -13 10 -21 10
-8 0 -14 -4 -14 -10z"/>
</g>
<g>
<path d="M2205 1470 c-3 -5 1 -10 10 -10 9 0 13 5 10 10 -3 6 -8 10 -10 10 -2
0 -7 -4 -10 -10z"/>
</g>
<g>
<path d="M1543 1803 c-7 -2 -13 -16 -13 -30 0 -15 5 -23 13 -20 6 2 11 13 9
23 -3 18 -3 18 12 -1 13 -18 15 -19 21 -3 4 10 12 15 19 12 6 -3 2 2 -8 10
-20 16 -31 18 -53 9z"/>
</g>
<g>
<path d="M1865 1320 c3 -5 8 -10 11 -10 2 0 4 5 4 10 0 6 -5 10 -11 10 -5 0
-7 -4 -4 -10z"/>
</g>
<g>
<path d="M728 1029 c4 -29 16 -37 26 -20 8 12 -3 38 -18 44 -8 3 -11 -4 -8
-24z"/>
</g>
<g>
<path d="M2430 1060 c0 -5 5 -10 10 -10 6 0 10 5 10 10 0 6 -4 10 -10 10 -5 0
-10 -4 -10 -10z"/>
</g>
<g>
<path d="M862 899 c-13 -21 -12 -21 15 -14 36 9 41 14 23 25 -21 13 -24 13
-38 -11z"/>
</g>
<g>
<path d="M1545 950 c3 -5 8 -10 11 -10 2 0 4 5 4 10 0 6 -5 10 -11 10 -5 0 -7
-4 -4 -10z"/>
</g>
<g>
<path d="M178 543 c-21 -5 -23 -19 -5 -30 23 -14 37 -11 37 7 0 22 -9 28 -32
23z"/>
</g>
<g>
<path d="M2320 341 c0 -6 7 -11 15 -11 12 0 14 -19 12 -110 l-2 -110 62 0 c53
0 64 3 74 21 16 30 -3 44 -26 19 -10 -11 -24 -20 -32 -20 -15 0 -16 10 -17
130 l-1 85 -42 3 c-26 2 -43 -1 -43 -7z"/>
</g>
<g>
<path d="M2516 341 c-3 -5 0 -11 7 -14 16 -6 24 -207 7 -207 -5 0 -10 -5 -10
-10 0 -6 12 -9 28 -6 15 2 43 5 63 5 28 1 38 6 47 26 8 16 8 26 1 31 -6 3 -13
-3 -16 -15 -4 -15 -13 -21 -34 -21 -28 0 -29 2 -29 45 0 33 4 45 15 45 8 0 15
-4 15 -10 0 -5 5 -10 10 -10 6 0 10 16 10 35 0 36 -13 47 -24 19 -10 -25 -26
-6 -26 32 0 29 3 34 24 34 13 0 26 -7 30 -15 9 -26 27 -16 24 13 -3 26 -5 27
-70 30 -36 2 -69 -1 -72 -7z"/>
</g>
<g>
<path d="M2743 335 c-29 -21 -30 -68 -2 -96 16 -16 30 -20 62 -17 37 3 42 0
51 -23 5 -15 6 -34 3 -43 -9 -24 -64 -21 -79 4 -16 26 -48 26 -48 1 0 -10 -10
-26 -22 -35 -22 -15 -19 -16 62 -15 47 1 93 6 103 11 26 13 38 53 27 83 -10
28 -78 64 -118 65 -29 0 -40 27 -19 48 14 14 20 14 44 2 15 -8 32 -16 36 -18
5 -2 7 6 5 19 -2 20 -10 24 -43 27 -25 2 -49 -3 -62 -13z"/>
</g>
<g>
<path d="M1664 330 c-13 -13 -7 -50 7 -50 5 0 9 7 9 16 0 11 8 14 28 12 27 -3
27 -3 30 -91 2 -57 -1 -94 -9 -103 -9 -12 -4 -14 30 -14 39 0 53 11 31 25 -5
3 -10 46 -10 96 l0 89 35 0 c24 0 35 -5 35 -15 0 -20 19 -19 26 0 13 32 -14
42 -109 44 -57 1 -96 -2 -103 -9z"/>
</g>
<g>
<path d="M1936 331 c-4 -6 -5 -15 -2 -19 3 -5 -8 -49 -23 -98 -21 -67 -34 -92
-52 -101 -22 -12 -20 -13 26 -13 45 0 48 1 33 16 -14 14 -14 20 0 55 15 38 17
40 56 37 38 -3 41 -6 52 -43 8 -27 8 -44 1 -52 -7 -10 0 -13 30 -13 l40 0 -19
58 c-11 31 -28 76 -38 99 -11 23 -17 49 -14 58 4 9 1 15 -9 15 -8 0 -28 3 -45
6 -17 4 -32 1 -36 -5z m59 -68 c7 -45 5 -47 -32 -37 -27 7 -28 11 -7 59 18 44
29 37 39 -22z"/>
</g>
<g>
<path d="M2155 325 c-66 -34 -85 -99 -44 -156 35 -50 92 -70 156 -55 57 13 47
32 -18 31 -75 0 -91 14 -93 88 0 30 2 58 5 62 4 3 23 9 43 12 34 5 36 4 36
-21 0 -19 5 -26 20 -26 11 0 21 6 21 13 3 27 -4 52 -15 59 -19 13 -79 9 -111
-7z"/>
</g>
<g>
<path d="M1071 322 c-23 -2 -30 -6 -22 -12 18 -10 29 -200 12 -200 -6 0 -11
-4 -11 -10 0 -5 18 -10 40 -10 22 0 40 5 40 10 0 6 -4 10 -10 10 -5 0 -10 20
-10 45 0 40 3 45 23 45 34 0 86 36 93 66 6 21 2 31 -16 46 -23 18 -38 19 -139
10z m109 -52 c0 -31 -22 -50 -59 -50 -18 0 -20 5 -17 33 3 17 5 35 5 40 1 4
17 7 36 7 32 0 35 -2 35 -30z"/>
</g>
<g>
<path d="M1252 238 c2 -51 -1 -104 -4 -119 -7 -25 -7 -25 61 -26 61 -1 72 2
92 23 17 19 19 24 7 24 -9 0 -20 -6 -26 -13 -7 -8 -28 -11 -56 -9 -40 4 -46 7
-46 27 0 36 10 55 30 55 10 0 20 -7 24 -15 11 -30 26 -14 26 30 0 51 -4 54
-29 23 -12 -14 -24 -19 -35 -15 -16 6 -16 25 0 75 5 17 63 15 70 -3 10 -24 36
-18 32 7 -3 19 -10 22 -76 26 l-72 4 2 -94z"/>
</g>
<g>
<path d="M1430 320 c0 -5 5 -10 10 -10 15 0 13 -197 -2 -203 -7 -3 1 -6 17 -6
l30 -1 -3 67 -3 68 27 -40 c42 -63 76 -95 99 -95 21 0 21 3 17 101 -3 76 0
104 9 110 10 6 10 9 -4 15 -25 9 -52 -3 -40 -19 12 -15 17 -147 6 -147 -11 1
-93 137 -93 155 0 10 -11 15 -35 15 -19 0 -35 -4 -35 -10z"/>
</g>
<g>
<path d="M446 311 c-3 -5 1 -11 9 -15 11 -4 15 -21 15 -61 0 -30 -2 -55 -4
-55 -10 0 -96 95 -102 112 -3 10 -15 18 -27 18 -21 0 -22 -4 -22 -110 l0 -110
30 1 c17 0 24 3 18 6 -14 5 -19 123 -5 122 4 0 29 -27 55 -60 31 -37 56 -59
69 -59 20 0 21 4 15 95 -3 55 -1 97 4 101 5 3 7 10 4 15 -8 12 -52 12 -59 0z"/>
</g>
<g>
<path d="M585 303 c-28 -5 -65 -63 -65 -101 0 -21 10 -43 31 -67 31 -34 34
-36 95 -33 50 2 64 6 64 18 0 8 3 25 6 38 6 21 3 22 -46 22 -37 0 -50 -4 -48
-12 3 -7 17 -14 32 -16 29 -4 31 -25 2 -30 -31 -6 -66 8 -77 32 -18 38 5 103
43 122 29 15 32 15 44 -1 15 -20 34 -12 34 16 0 16 -7 19 -47 18 -27 -1 -57
-4 -68 -6z"/>
</g>
<g>
<path d="M876 255 c-9 -9 -16 -19 -16 -21 0 -12 24 -50 47 -73 20 -21 24 -34
20 -69 -3 -23 0 -42 4 -42 17 0 31 54 24 90 -7 34 -6 34 12 17 11 -9 22 -14
26 -11 10 10 -33 85 -44 78 -6 -3 -8 -12 -5 -20 9 -24 -17 -28 -36 -4 -22 27
-23 44 -2 36 11 -4 14 -1 12 11 -4 23 -23 27 -42 8z"/>
</g>
<g>
<path d="M810 165 c-19 -22 -4 -64 25 -71 48 -12 73 36 37 69 -23 21 -46 22
-62 2z m50 -28 c0 -8 -3 -17 -7 -20 -9 -9 -34 13 -27 24 8 14 34 11 34 -4z"/>
</g>
<g>
<path d="M2923 143 c-23 -9 -15 -35 10 -31 12 2 22 9 22 17 0 16 -14 22 -32
14z"/>
</g>
</g>
<g>
<path d="M844 4276 c-7 -20 2 -46 16 -46 13 0 13 47 0 55 -6 3 -13 -1 -16 -9z"/>
</g>
<g>
<path d="M802 4239 c1 -12 9 -24 16 -27 9 -3 13 3 10 19 -1 12 -9 24 -16 27
-9 3 -13 -3 -10 -19z"/>
</g>
</g>
</svg>
