<?xml version="1.0" standalone="no"?>
<!DOCTYPE svg PUBLIC "-//W3C//DTD SVG 20010904//EN"
 "http://www.w3.org/TR/2001/REC-SVG-20010904/DTD/svg10.dtd">
<svg version="1.0" xmlns="http://www.w3.org/2000/svg"
 width="300.000000pt" height="534.000000pt" viewBox="0 0 300.000000 534.000000"
 preserveAspectRatio="xMidYMid meet">
<metadata>
Created by potrace 1.15, written by Peter Selinger 2001-2017
</metadata>
<g transform="translate(0.000000,534.000000) scale(0.100000,-0.100000)"
fill="#000000" stroke="none">
<g>
<path d="M88 5333 c-31 -2 -61 -9 -66 -16 -11 -14 -23 -1581 -13 -1727 l6 -95
8 124 c4 68 7 408 7 756 0 347 3 700 7 784 l6 152 576 -6 c633 -7 660 -7 711
4 19 4 88 5 153 3 l118 -4 -2 -372 c-1 -382 -5 -476 -20 -476 -5 0 -9 9 -9 20
0 11 -6 23 -14 26 -7 3 -16 22 -20 42 -9 54 -20 69 -40 53 -13 -11 -17 -11
-22 3 -9 24 -33 19 -40 -9 -3 -14 -17 -34 -30 -44 -16 -12 -24 -29 -24 -49 0
-27 -3 -30 -47 -35 -27 -3 -55 -8 -64 -12 -12 -5 -18 2 -22 25 -7 30 -7 30
-32 14 -15 -10 -25 -12 -25 -5 0 6 -8 11 -19 11 -13 0 -20 9 -24 30 -9 44 -24
37 -41 -21 -16 -56 -13 -71 28 -127 16 -21 26 -53 31 -95 4 -34 11 -69 16 -79
5 -10 4 -29 -5 -50 -29 -71 -29 -77 -2 -88 26 -9 33 -33 27 -97 -2 -27 32 -47
66 -38 44 11 15 -12 -32 -25 -24 -7 -50 -19 -56 -26 -6 -8 -17 -14 -23 -14
-34 0 -116 -158 -116 -223 0 -20 -4 -37 -10 -37 -5 0 -12 -17 -16 -37 -4 -21
-20 -73 -35 -116 -16 -43 -29 -87 -29 -97 0 -21 -36 -86 -62 -112 -12 -12 -15
-27 -11 -51 4 -29 1 -37 -23 -56 -34 -27 -53 -58 -54 -87 0 -29 -48 -51 -67
-31 -16 15 -35 7 -124 -50 -27 -18 -48 -23 -103 -23 l-69 0 6 143 c6 127 19
359 32 580 2 43 12 93 20 111 15 32 19 34 65 32 35 -1 54 4 67 16 16 17 16 18
-1 31 -19 14 -14 43 5 31 35 -22 91 39 82 89 -7 35 -23 45 -30 18 -3 -11 -15
-23 -27 -27 -11 -3 -29 -13 -38 -22 -17 -14 -18 -13 -18 7 0 33 -27 37 -57 7
-20 -21 -25 -32 -20 -59 4 -26 0 -38 -19 -56 l-24 -23 5 103 c3 57 8 128 11
158 2 30 7 127 10 215 8 261 13 308 35 313 10 3 19 12 19 20 0 8 9 26 20 40
21 27 18 79 -5 98 -6 6 -17 27 -24 48 -13 38 -41 51 -41 19 0 -10 -7 -27 -15
-38 -19 -26 -19 -73 2 -96 9 -10 13 -21 9 -25 -4 -4 -11 -1 -16 7 -5 8 -24 14
-43 14 -32 0 -34 2 -25 22 7 15 6 30 -3 50 -19 38 -39 43 -39 9 0 -25 -3 -27
-30 -23 -24 4 -30 1 -30 -13 0 -19 25 -49 41 -49 10 0 2 -277 -9 -294 -3 -6
-9 0 -12 14 -5 18 -12 24 -28 23 -12 -2 -23 4 -27 15 -6 18 -50 72 -60 72 -11
0 -5 -96 8 -109 10 -10 9 -14 -6 -22 -13 -8 -15 -14 -7 -28 7 -14 26 -20 75
-26 63 -6 70 -11 67 -45 0 -3 -5 -60 -11 -125 -11 -130 -20 -307 -26 -535 -5
-233 -15 -507 -21 -618 -5 -87 -9 -106 -27 -122 -16 -16 -21 -33 -22 -92 -2
-42 2 -79 9 -87 13 -16 14 -145 3 -271 -4 -47 -12 -152 -18 -235 -6 -82 -14
-206 -20 -275 -17 -225 -31 -444 -32 -502 -1 -31 -6 -61 -12 -66 -10 -10 -69
-21 -135 -25 l-35 -2 4 1073 c2 780 0 1072 -8 1072 -8 0 -11 -373 -11 -1367 0
-753 4 -1362 9 -1355 6 10 25 12 78 7 61 -6 72 -11 81 -31 10 -20 18 -23 78
-23 37 0 72 -5 77 -10 13 -13 8 -14 -181 -12 -107 1 -142 -2 -142 -12 0 -9 43
-12 185 -11 102 0 185 -3 185 -8 0 -4 -76 -8 -170 -8 -107 0 -170 -4 -170 -10
0 -12 -10 -12 205 -11 l180 2 58 -57 c31 -31 54 -60 51 -65 -5 -9 -397 -6
-433 3 -7 2 -15 -2 -18 -9 -5 -15 153 -24 348 -21 l146 3 36 -30 c69 -58 69
-58 -283 -50 -291 7 -320 6 -320 -9 0 -13 12 -16 78 -15 42 0 376 -2 742 -5
936 -8 1190 -7 1475 7 138 7 293 10 345 7 120 -7 311 2 308 14 -4 13 -457 12
-788 -3 -298 -13 -895 -11 -937 4 -13 4 -23 14 -23 21 0 9 -11 14 -28 14 -15
0 -33 5 -39 11 -9 9 -20 9 -44 0 -43 -15 -44 -15 -78 16 -16 16 -50 43 -75 62
-40 31 -43 36 -28 48 9 7 12 13 6 13 -5 0 -15 -5 -22 -12 -17 -17 -44 12 -44
46 0 26 -12 34 -23 16 -9 -15 -35 -12 -35 5 0 8 12 21 28 29 18 10 21 15 10
16 -9 0 -24 3 -34 7 -10 4 -15 2 -11 -3 3 -5 -3 -10 -14 -10 -12 0 -15 4 -9
10 20 20 9 28 -16 11 l-27 -17 7 28 c6 24 5 26 -8 15 -13 -11 -19 -11 -31 -1
-8 7 -15 19 -15 26 0 8 -6 11 -15 8 -9 -4 -15 0 -15 10 0 9 -3 15 -7 15 -20
-3 -24 2 -13 16 10 12 10 15 -2 15 -8 0 -19 -5 -25 -11 -7 -7 -13 -7 -17 -1
-4 6 4 18 16 27 l23 17 -25 -7 c-14 -4 -27 -12 -30 -16 -4 -5 -16 -1 -29 7
-18 13 -20 18 -10 25 22 14 33 10 19 -6 -7 -8 -8 -15 -2 -15 5 0 15 7 22 15 9
11 9 15 1 15 -7 0 -9 5 -5 12 5 8 2 9 -9 5 -46 -19 -53 -19 -33 -3 23 19 14
21 -17 5 -22 -12 -22 -12 -3 10 22 25 16 39 -7 16 -12 -12 -22 -13 -42 -5 -24
9 -25 12 -14 27 12 14 11 15 -9 9 -24 -8 -29 3 -10 22 15 15 3 16 -23 2 -21
-12 -25 -1 -6 19 10 11 8 12 -8 7 -11 -3 -25 -2 -32 2 -18 11 -32 57 -26 81 4
15 1 21 -11 21 -9 0 -16 7 -16 15 0 8 0 18 0 23 0 4 6 7 12 7 8 0 16 23 20 59
4 32 9 60 11 62 1 2 69 5 151 8 121 3 148 1 153 -10 3 -8 -1 -21 -8 -30 -12
-14 -108 -62 -189 -94 -39 -16 -61 -34 -64 -53 -1 -6 -5 -18 -9 -25 -19 -30
150 -51 243 -31 25 6 81 19 125 29 44 10 108 21 143 23 36 3 74 13 90 23 19
13 46 18 93 17 73 0 131 -19 221 -69 31 -18 71 -35 90 -39 18 -4 48 -18 66
-32 31 -23 34 -24 65 -8 28 14 120 38 200 52 21 4 40 -3 70 -24 101 -73 215
-106 281 -82 31 11 43 11 88 -6 29 -10 69 -27 88 -37 39 -20 61 -23 76 -8 6 6
21 6 39 1 121 -38 130 -39 192 -24 58 15 64 14 150 -11 49 -14 98 -23 109 -20
12 3 26 -1 33 -10 12 -14 10 -16 -7 -16 -12 0 -26 -9 -32 -20 -6 -11 -8 -20
-4 -20 3 0 1 -6 -5 -14 -8 -10 -9 -16 -1 -21 17 -10 2 -24 -20 -18 -16 4 -18
8 -9 19 9 11 7 14 -9 14 -40 0 -54 -49 -14 -51 11 0 12 -3 5 -6 -24 -9 -13
-31 19 -37 l32 -6 -34 -18 c-44 -21 -54 -69 -19 -90 27 -17 37 -8 15 13 -21
21 -20 38 2 58 33 30 40 21 34 -52 -7 -97 14 -102 23 -4 l7 76 74 -7 c64 -5
76 -3 81 11 11 29 -22 41 -94 35 -52 -4 -64 -2 -58 8 5 8 21 11 45 7 22 -3 50
2 71 11 l34 16 -80 6 c-49 3 -75 8 -67 13 7 5 24 6 38 3 14 -4 24 -2 24 4 0 5
-13 10 -30 10 -39 0 -39 16 0 23 21 5 28 11 24 22 -4 10 0 15 14 15 11 0 22 4
24 10 2 5 18 12 35 16 l33 6 -2 -406 c0 -223 -4 -406 -7 -406 -230 0 -724 -10
-729 -14 -3 -3 166 -6 376 -6 l382 0 0 1872 c0 1029 -2 1869 -4 1867 -3 -3
-13 -1255 -16 -2003 0 -103 -2 -117 -15 -106 -17 14 -72 5 -96 -16 -8 -8 -38
-15 -65 -16 l-49 -3 -8 70 c-4 39 -15 115 -25 170 -19 114 -19 126 -9 820 4
281 9 976 12 1545 4 569 9 1050 12 1068 l5 32 127 0 c77 0 120 4 111 9 -18 11
-686 18 -696 8 -4 -4 35 -7 87 -7 122 0 137 -5 131 -36 -5 -26 15 -34 24 -9 4
8 9 13 13 10 8 -4 5 -632 -4 -885 -2 -69 -4 -223 -5 -342 0 -187 -2 -218 -15
-218 -9 0 -15 -9 -15 -21 0 -15 5 -19 15 -15 12 4 15 -3 15 -32 -1 -28 -7 -42
-26 -56 -22 -15 -28 -16 -35 -5 -12 19 -11 39 1 39 14 0 12 23 -5 56 -8 16
-15 37 -15 47 0 14 -5 17 -19 12 -15 -4 -20 0 -23 17 -2 18 -9 22 -28 20 -13
-1 -28 -10 -33 -18 -8 -14 -10 -13 -22 3 -12 17 -14 17 -32 1 -14 -13 -22 -15
-30 -7 -18 18 -63 2 -63 -22 0 -11 6 -22 14 -25 11 -4 13 -12 6 -29 -6 -16 -4
-29 5 -41 16 -22 20 -54 6 -54 -28 0 -40 13 -31 30 13 24 -3 35 -29 20 -17 -8
-19 -15 -11 -34 7 -19 5 -26 -6 -30 -22 -8 -33 1 -27 22 2 11 -6 32 -21 49
-14 17 -26 34 -26 37 0 16 -56 76 -71 76 -9 0 -22 11 -29 25 -7 14 -22 25 -32
25 -10 0 -22 8 -25 18 -15 37 -32 45 -89 38 -46 -5 -59 -3 -83 15 -16 12 -34
18 -40 15 -16 -10 -24 19 -12 42 12 23 3 36 -16 21 -9 -8 -13 -8 -13 -1 0 6 4
14 10 17 5 3 10 18 9 33 0 15 -3 21 -6 14 -8 -19 -23 -4 -23 24 0 14 4 23 9
19 11 -6 26 33 17 43 -3 3 -13 -3 -21 -14 -12 -16 -14 -17 -15 -3 0 22 28 75
37 71 13 -6 21 33 10 47 -9 10 -6 18 13 32 58 43 62 50 56 88 -7 45 12 78 39
67 14 -5 16 -9 7 -18 -20 -20 -14 -55 12 -72 15 -10 27 -12 31 -6 3 6 3 10 -1
10 -4 0 1 7 12 15 27 21 61 18 74 -5 13 -24 48 -27 56 -5 5 11 10 13 19 5 13
-11 25 -4 25 16 0 8 -19 16 -49 20 -62 8 -83 20 -59 35 10 5 22 19 28 30 9 16
6 22 -25 40 -27 16 -35 27 -35 50 0 27 3 29 38 29 27 0 48 -8 68 -25 16 -14
47 -30 69 -36 67 -19 86 -31 79 -51 -3 -10 -1 -18 5 -18 6 0 11 -7 11 -15 0
-8 7 -15 15 -15 9 0 19 -8 22 -17 11 -28 43 -54 70 -56 34 -3 41 20 10 32 -32
12 -39 34 -18 53 30 26 64 29 86 8 32 -30 51 -12 39 37 -8 32 -15 39 -46 48
-65 18 -62 29 8 25 17 0 40 7 53 17 21 17 22 20 7 33 -15 12 -18 10 -23 -9 -4
-17 -11 -21 -27 -17 -11 3 -25 6 -29 6 -5 0 -5 5 -2 10 4 6 11 8 16 5 17 -11
20 23 5 54 -9 16 -16 44 -16 61 0 27 -3 30 -29 30 -17 0 -33 5 -36 11 -5 7
-15 5 -31 -5 -29 -20 -34 -20 -34 -1 0 19 -10 19 -39 -1 -17 -12 -22 -24 -19
-45 6 -38 -31 -76 -59 -61 -10 5 -56 12 -103 16 -47 3 -94 7 -105 8 -11 2 -37
-6 -58 -16 -30 -15 -40 -16 -53 -6 -21 18 -14 52 16 68 35 18 108 8 169 -24
42 -22 61 -26 102 -22 61 6 78 26 79 88 0 37 -4 47 -22 55 -13 6 -22 17 -20
24 1 7 -2 19 -8 26 -8 10 -8 19 -1 34 14 25 14 31 1 31 -6 0 -16 -11 -22 -25
-6 -14 -19 -25 -29 -25 -23 0 -59 -38 -59 -62 0 -12 7 -18 21 -18 17 0 19 -3
11 -13 -14 -16 18 -47 48 -47 29 0 32 -16 5 -30 -26 -14 -33 -12 -135 39 -12
6 -82 7 -135 2 -6 -1 -23 -13 -38 -27 -36 -33 -35 -92 1 -110 33 -16 33 -17
12 -59 -24 -47 -25 -65 -5 -65 19 0 20 -16 1 -23 -8 -3 -17 1 -20 9 -8 20 -17
18 -48 -11 -15 -14 -29 -21 -32 -16 -3 4 -1 34 4 66 5 32 9 98 9 147 -1 73 2
91 16 102 11 8 15 22 13 41 l-4 30 -11 -25 c-10 -22 -12 -16 -12 44 -1 54 3
72 17 82 16 13 16 15 0 28 -22 16 -22 23 -3 42 19 20 19 44 0 44 -20 0 -20 47
0 67 17 17 14 40 -4 36 -6 -2 -11 8 -11 22 0 16 6 25 15 25 10 0 15 10 15 26
l0 27 248 -6 c136 -3 256 -2 267 2 30 12 -668 30 -845 22 -87 -4 -1116 -2
-1175 2 -33 2 -86 2 -117 0z m1559 -566 c-2 -213 -7 -301 -15 -309 -10 -10
-12 72 -12 367 0 209 4 405 8 435 12 102 23 -171 19 -493z m948 466 c-2 -38
-5 -310 -6 -605 -1 -473 -3 -538 -17 -543 -16 -6 -34 13 -26 26 9 16 22 534
23 942 1 211 3 247 16 247 12 0 14 -13 10 -67z m95 -23 c0 -5 -12 -10 -27 -10
-22 0 -25 2 -13 10 20 13 40 13 40 0z m-3 -63 c3 -4 -8 -7 -25 -7 -18 0 -32 4
-32 8 0 9 47 8 57 -1z m3 -62 c0 -16 -17 -19 -44 -9 -25 10 -19 20 14 22 21 2
30 -2 30 -13z m-7 -62 c-7 -2 -19 -2 -25 0 -7 3 -2 5 12 5 14 0 19 -2 13 -5z
m12 -153 c-3 -5 -19 -10 -36 -10 -16 0 -29 5 -29 10 0 6 16 10 36 10 21 0 33
-4 29 -10z m-10 -60 c4 -6 -7 -10 -27 -9 -31 1 -32 1 -8 9 14 4 26 8 27 9 1 1
5 -3 8 -9z m-2155 -35 c0 -19 -4 -35 -10 -35 -11 0 -13 30 -4 54 10 25 14 19
14 -19z m-160 -45 c0 -5 -4 -10 -9 -10 -6 0 -13 5 -16 10 -3 6 1 10 9 10 9 0
16 -4 16 -10z m200 -20 c0 -11 -4 -20 -10 -20 -5 0 -10 9 -10 20 0 11 5 20 10
20 6 0 10 -9 10 -20z m2120 0 c0 -5 -7 -10 -16 -10 -8 0 -12 5 -9 10 3 6 10
10 16 10 5 0 9 -4 9 -10z m-30 -50 c0 -5 -4 -10 -9 -10 -6 0 -13 5 -16 10 -3
6 1 10 9 10 9 0 16 -4 16 -10z m27 -46 c-3 -3 -12 -4 -19 -1 -8 3 -5 6 6 6 11
1 17 -2 13 -5z m-2262 -24 c8 -13 -4 -50 -16 -50 -5 0 -9 14 -9 30 0 30 13 40
25 20z m1045 -53 c4 -5 14 -1 23 7 22 22 32 1 13 -26 -22 -32 -20 -41 9 -34
22 6 25 3 25 -18 0 -17 -9 -29 -27 -38 -17 -8 -28 -21 -28 -33 0 -17 7 -20 47
-20 25 0 49 -3 54 -7 10 -11 64 -10 64 0 0 4 -5 13 -12 20 -14 14 -3 28 27 34
11 2 21 12 23 23 7 48 13 65 23 65 8 0 8 -4 0 -14 -8 -9 -8 -16 -2 -20 5 -4
12 -2 16 4 13 22 21 8 20 -37 0 -44 -3 -49 -32 -62 -25 -11 -37 -26 -52 -65
-11 -28 -23 -50 -28 -49 -96 19 -195 28 -308 29 l-140 0 -7 43 c-4 23 -19 56
-33 72 -19 24 -25 42 -25 80 0 27 5 49 10 49 6 0 10 -16 8 -37 -3 -34 -1 -38
20 -36 13 2 21 -1 17 -6 -10 -17 12 -21 25 -6 17 20 30 19 30 -4 0 -10 -10
-25 -21 -33 -19 -12 -20 -16 -8 -36 18 -29 69 -30 87 -1 13 20 15 20 32 4 12
-11 32 -15 61 -13 38 3 44 6 41 23 -2 11 -11 28 -20 38 -13 15 -14 22 -4 37 7
11 12 29 12 40 0 26 44 71 48 50 2 -8 7 -19 12 -23z m1217 27 c-3 -3 -12 -4
-19 -1 -8 3 -5 6 6 6 11 1 17 -2 13 -5z m-782 -35 c12 -19 -2 -21 -32 -5 l-28
15 27 1 c15 0 30 -5 33 -11z m-1455 -49 c0 -5 -4 -10 -10 -10 -5 0 -10 5 -10
10 0 6 5 10 10 10 6 0 10 -4 10 -10z m-190 -31 c0 -10 -4 -19 -10 -19 -5 0
-10 12 -10 26 0 14 4 23 10 19 6 -3 10 -15 10 -26z m2430 21 c0 -5 -13 -10
-30 -10 -16 0 -30 5 -30 10 0 6 14 10 30 10 17 0 30 -4 30 -10z m-2238 -22
c18 18 28 15 28 -11 0 -24 -49 -80 -51 -59 -1 7 -2 18 -3 25 -1 6 -9 11 -19
11 -18 -2 -21 5 -11 30 5 12 9 13 25 3 14 -9 21 -9 31 1z m2238 -38 c0 -12 -8
-12 -35 0 -18 8 -17 9 8 9 15 1 27 -3 27 -9z m-2355 -30 c3 -5 -1 -10 -10 -10
-9 0 -13 5 -10 10 3 6 8 10 10 10 2 0 7 -4 10 -10z m141 -147 c-6 -103 -11
-131 -27 -151 -10 -14 -19 -32 -19 -41 0 -14 -2 -14 -10 -1 -15 23 -12 49 9
76 15 19 17 31 11 61 -6 27 -5 45 7 67 12 23 13 34 4 48 -21 34 -12 68 17 68
13 0 14 -18 8 -127z m2214 87 c0 -5 -13 -10 -30 -10 -16 0 -30 5 -30 10 0 6
14 10 30 10 17 0 30 -4 30 -10z m0 -50 c0 -5 -15 -10 -32 -9 -28 0 -30 2 -13
9 28 12 45 12 45 0z m-1390 -20 c23 -23 21 -13 23 -120 2 -70 6 -90 24 -116
29 -40 72 -58 123 -51 42 5 50 -2 25 -23 -8 -7 -15 -23 -15 -35 0 -27 -52 -75
-81 -75 -12 0 -23 10 -29 25 -5 14 -14 25 -19 25 -5 0 -11 17 -13 38 l-3 37
-52 -3 c-54 -3 -73 9 -53 33 7 9 8 15 0 20 -16 10 -12 22 13 30 19 6 19 8 5
12 -10 2 -18 13 -18 24 0 14 -7 19 -26 19 -24 0 -26 3 -21 28 9 44 26 82 37
82 5 0 10 -7 10 -15 0 -19 9 -19 32 2 24 22 23 33 -4 33 -13 0 -30 5 -38 10
-11 7 -6 10 20 10 40 0 30 16 -15 23 -24 3 -21 4 13 6 30 1 48 -5 62 -19z
m215 -20 c3 -5 -1 -10 -10 -10 -9 0 -13 5 -10 10 3 6 8 10 10 10 2 0 7 -4 10
-10z m-45 -10 c0 -5 -4 -10 -10 -10 -5 0 -10 5 -10 10 0 6 5 10 10 10 6 0 10
-4 10 -10z m-1050 -10 c0 -5 -7 -10 -15 -10 -8 0 -15 5 -15 10 0 6 7 10 15 10
8 0 15 -4 15 -10z m2258 3 c-10 -2 -26 -2 -35 0 -10 3 -2 5 17 5 19 0 27 -2
18 -5z m17 -53 c-3 -5 -19 -10 -36 -10 -16 0 -29 5 -29 10 0 6 16 10 36 10 21
0 33 -4 29 -10z m-1169 -75 c-1 -29 -16 -35 -16 -7 0 16 8 32 16 32 1 0 1 -11
0 -25z m1159 15 c-3 -5 -15 -10 -25 -10 -10 0 -22 5 -25 10 -4 6 7 10 25 10
18 0 29 -4 25 -10z m-98 -104 c-4 -28 -7 -205 -7 -393 -1 -189 -5 -343 -10
-343 -15 0 -19 86 -20 448 l-1 363 22 -12 c19 -10 21 -17 16 -63z m60 58 c-3
-3 -12 -4 -19 -1 -8 3 -5 6 6 6 11 1 17 -2 13 -5z m43 -4 c0 -5 -4 -10 -9 -10
-6 0 -13 5 -16 10 -3 6 1 10 9 10 9 0 16 -4 16 -10z m-1140 -10 c0 -5 -4 -10
-10 -10 -5 0 -10 5 -10 10 0 6 5 10 10 10 6 0 10 -4 10 -10z m-1089 -43 c-13
-13 -26 -3 -16 12 3 6 11 8 17 5 6 -4 6 -10 -1 -17z m1114 -21 c-16 -13 -32
-22 -34 -20 -8 7 32 44 48 44 11 0 6 -8 -14 -24z m75 4 c0 -5 -4 -10 -9 -10
-6 0 -13 5 -16 10 -3 6 1 10 9 10 9 0 16 -4 16 -10z m-1200 -30 c0 -11 -4 -20
-10 -20 -5 0 -10 9 -10 20 0 11 5 20 10 20 6 0 10 -9 10 -20z m2250 -1 c0 -5
-18 -9 -40 -9 -48 0 -54 17 -7 22 36 4 47 1 47 -13z m-2140 -25 c-18 -21 -24
-10 -8 15 7 12 14 17 16 11 2 -6 -2 -17 -8 -26z m1180 23 c0 -8 -11 -24 -25
-37 -14 -13 -25 -31 -25 -39 0 -9 -7 -25 -15 -35 -8 -11 -15 -28 -15 -38 0
-10 -10 -46 -22 -80 -23 -67 -105 -173 -143 -184 -11 -4 -33 -17 -48 -30 -16
-13 -38 -24 -50 -24 -22 1 -22 1 -2 16 55 41 67 56 56 67 -19 19 -12 39 30 78
23 21 38 43 34 48 -9 16 26 56 50 56 13 0 23 10 29 30 5 17 15 44 22 62 8 17
14 36 14 41 0 14 80 82 97 82 7 0 13 -6 13 -13z m-1065 -17 c-21 -23 -45 -26
-45 -6 0 16 15 24 44 25 18 1 18 0 1 -19z m-244 -10 c21 0 7 -28 -16 -32 -21
-5 -25 -1 -25 19 0 19 4 24 16 19 9 -3 20 -6 25 -6z m1314 -50 c-16 -16 -34
-30 -39 -30 -10 1 53 60 63 60 3 0 -8 -13 -24 -30z m208 -4 c-6 -36 9 -54 30
-39 25 19 42 8 48 -32 4 -22 6 -41 5 -41 0 -1 -15 0 -31 3 -20 3 -36 14 -47
34 -19 33 -43 37 -70 12 -32 -29 -19 -66 27 -75 27 -5 30 -68 3 -68 -12 0 -18
7 -18 21 0 17 -5 20 -37 17 -28 -2 -41 -9 -52 -30 -14 -24 -14 -28 3 -47 11
-12 27 -21 36 -21 10 0 21 -7 24 -15 8 -23 -35 -37 -50 -17 -6 8 -16 12 -22 8
-6 -4 -20 -3 -30 3 -10 5 -24 6 -31 1 -19 -11 -5 -61 19 -67 21 -6 29 -56 10
-68 -10 -6 -44 11 -72 38 -25 24 -39 18 -60 -23 -16 -31 -16 -36 -2 -58 12
-18 13 -27 4 -37 -7 -8 -9 -19 -5 -25 9 -15 -24 -12 -41 4 -8 8 -14 23 -14 33
0 28 -15 45 -36 41 -15 -3 -19 -12 -19 -48 -1 -25 5 -53 13 -62 12 -14 11 -18
-6 -27 -24 -13 -32 -5 -32 29 0 18 -8 31 -26 40 -34 19 -47 0 -40 -61 5 -44 4
-46 -20 -41 -32 6 -40 20 -21 39 14 14 12 19 -19 50 -21 20 -41 32 -50 29 -19
-7 -36 -54 -28 -79 3 -11 1 -23 -7 -27 -26 -17 -35 0 -33 60 3 71 -10 88 -59
74 -33 -10 -49 -41 -27 -54 8 -5 7 -9 -3 -13 -10 -4 -22 4 -32 20 -15 23 -16
33 -3 112 13 82 27 105 38 64 3 -11 24 -36 47 -57 35 -31 44 -35 49 -22 3 9
11 13 16 10 16 -10 110 -12 136 -3 13 5 22 5 22 -1 0 -35 97 14 156 78 54 60
114 139 114 152 0 6 6 10 14 10 19 0 22 6 31 59 5 31 4 42 -4 37 -6 -4 -11 0
-11 10 0 23 67 84 93 84 12 0 29 5 37 10 8 5 32 10 52 10 36 0 37 -1 31 -34z
m737 24 c0 -5 -16 -10 -35 -10 -19 0 -35 5 -35 10 0 6 16 10 35 10 19 0 35 -4
35 -10z m-2290 -51 c0 -11 -4 -17 -10 -14 -5 3 -10 13 -10 21 0 8 5 14 10 14
6 0 10 -9 10 -21z m1100 6 c0 -3 -9 -16 -20 -28 -14 -14 -19 -29 -15 -45 4
-17 0 -24 -20 -32 -20 -8 -24 -15 -20 -33 6 -21 3 -23 -43 -22 -53 0 -82 16
-82 46 0 10 -4 21 -10 24 -13 8 -13 41 0 66 11 19 11 19 33 -1 18 -17 29 -19
67 -14 57 9 90 21 90 34 0 5 5 10 10 10 6 0 10 -2 10 -5z m1160 -5 c0 -5 -4
-10 -10 -10 -5 0 -10 5 -10 10 0 6 5 10 10 10 6 0 10 -4 10 -10z m-1434 -28
c-3 -10 -7 -38 -7 -62 -1 -25 -6 -50 -10 -56 -6 -7 -1 -21 11 -37 18 -22 18
-27 6 -34 -13 -7 -13 -15 -2 -53 13 -46 41 -69 81 -70 24 0 50 -16 39 -23 -10
-5 -113 14 -131 26 -6 4 -14 31 -18 60 -4 28 -14 63 -22 76 -11 16 -13 36 -9
64 5 29 2 44 -9 57 -15 17 -14 20 22 44 44 31 56 33 49 8z m285 -35 c-17 -17
-24 -1 -9 22 11 18 14 19 16 5 2 -9 -1 -21 -7 -27z m180 -18 c-6 -24 -9 -28
-10 -12 -1 24 9 56 16 50 2 -3 0 -20 -6 -38z m999 31 c0 -5 -16 -10 -36 -10
-21 0 -33 4 -29 10 3 6 19 10 36 10 16 0 29 -4 29 -10z m-2270 -10 c0 -5 -9
-10 -20 -10 -11 0 -20 5 -20 10 0 6 9 10 20 10 11 0 20 -4 20 -10z m1090 -34
c0 -3 -4 -8 -10 -11 -5 -3 -10 -1 -10 4 0 6 5 11 10 11 6 0 10 -2 10 -4z m460
-11 c7 -8 8 -15 2 -15 -5 0 -15 7 -22 15 -7 8 -8 15 -2 15 5 0 15 -7 22 -15z
m128 -3 c5 -16 -10 -15 -33 1 -17 13 -16 14 5 12 13 -1 26 -7 28 -13z m586 -2
c-6 -6 -21 -6 -39 -1 -30 9 -30 9 10 10 25 1 36 -2 29 -9z m-2284 -8 c0 -14
-11 -21 -26 -15 -8 3 -11 9 -8 14 7 11 34 12 34 1z m704 -59 c-1 -32 -3 -59
-3 -60 -1 -2 -1 -6 0 -9 0 -4 -5 -10 -12 -15 -11 -6 -10 -12 3 -26 14 -15 15
-26 8 -58 -17 -74 -98 -113 -87 -41 10 61 25 108 42 126 9 10 16 33 17 51 0
43 17 101 27 94 5 -2 7 -31 5 -62z m946 42 c0 -8 -4 -15 -9 -15 -13 0 -22 16
-14 24 11 11 23 6 23 -9z m-1610 -26 c0 -10 -5 -19 -11 -19 -6 0 -9 -9 -6 -20
3 -11 1 -23 -4 -26 -16 -9 -10 -24 14 -34 22 -9 22 -9 -4 -9 -22 -1 -25 -6
-26 -35 -1 -25 4 -36 16 -39 9 -3 4 -5 -11 -6 -31 -1 -38 -25 -11 -35 14 -6
15 -9 4 -16 -9 -5 -15 -30 -16 -69 -2 -54 0 -61 16 -61 11 0 19 -4 19 -10 0
-5 -14 -10 -31 -10 -39 0 -34 -22 7 -31 23 -5 24 -7 7 -8 -27 -1 -30 -19 -5
-37 16 -13 16 -13 -1 -14 -12 0 -17 -6 -15 -17 2 -11 11 -17 21 -15 9 2 17 -2
17 -7 0 -5 -10 -11 -22 -13 -26 -3 -31 -33 -6 -33 9 0 20 -4 24 -8 4 -4 -2 -7
-14 -7 -18 0 -22 -6 -22 -29 0 -17 5 -33 12 -37 7 -5 4 -10 -11 -16 -19 -7
-21 -11 -11 -23 6 -8 9 -19 5 -25 -4 -7 2 -14 14 -17 28 -7 22 -27 -10 -31
-13 -2 -32 -11 -41 -19 -15 -14 -17 -13 -15 6 1 12 8 21 15 21 11 0 12 3 4 13
-7 8 -10 77 -7 202 6 310 13 382 43 443 21 45 23 55 11 63 -10 6 -10 9 -1 9 6
0 12 9 12 19 0 19 18 32 33 24 4 -2 7 -13 7 -24z m1657 -21 c-31 -20 -51 4
-25 30 10 10 15 9 25 -5 10 -13 10 -18 0 -25z m-837 22 c0 -5 -4 -10 -10 -10
-5 0 -10 5 -10 10 0 6 5 10 10 10 6 0 10 -4 10 -10z m746 -35 c3 -19 10 -35
15 -35 5 0 9 3 9 8 0 4 10 7 23 7 12 1 35 4 50 8 22 6 28 5 25 -5 -3 -7 -21
-14 -40 -16 -20 -2 -44 -12 -53 -23 -25 -27 -43 -24 -38 5 3 13 0 27 -6 30 -6
4 -11 21 -11 37 0 39 17 28 26 -16z m647 38 c-7 -2 -19 -2 -25 0 -7 3 -2 5 12
5 14 0 19 -2 13 -5z m-422 -21 c-7 -2 -18 1 -23 6 -8 8 -4 9 13 5 13 -4 18 -8
10 -11z m295 -4 c-3 -13 -5 -40 -5 -62 -1 -33 -3 -37 -16 -26 -12 10 -20 9
-41 -5 -25 -16 -26 -20 -22 -84 5 -61 4 -64 -8 -36 -19 43 -18 135 1 135 8 0
15 9 15 19 0 10 7 21 15 25 8 3 15 11 15 19 0 17 20 37 37 37 8 0 11 -9 9 -22z
m-1074 -3 c0 -5 -5 -11 -11 -13 -6 -2 -11 4 -11 13 0 9 5 15 11 13 6 -2 11 -8
11 -13z m-69 -3 c9 -1 17 -9 17 -17 0 -11 -9 -14 -32 -13 -26 3 -33 -1 -39
-22 -6 -20 -7 -21 -8 -5 -1 11 -11 26 -22 34 -35 21 -2 30 84 23z m927 -2 c0
-5 -11 -10 -24 -10 -14 0 -28 5 -31 10 -4 6 7 10 24 10 17 0 31 -4 31 -10z
m375 -20 c-3 -5 -17 -10 -30 -10 -13 0 -27 5 -30 10 -4 6 8 10 30 10 22 0 34
-4 30 -10z m-735 -16 c0 -8 -6 -11 -15 -8 -10 4 -15 0 -15 -15 0 -12 -3 -21
-8 -21 -11 0 -34 39 -28 49 9 13 66 9 66 -5z m-339 -27 c-13 -12 -20 -15 -16
-7 14 26 28 41 33 35 3 -3 -5 -16 -17 -28z m-351 3 c0 -5 -5 -10 -11 -10 -5 0
-7 5 -4 10 3 6 8 10 11 10 2 0 4 -4 4 -10z m130 0 c0 -5 -7 -10 -16 -10 -8 0
-12 5 -9 10 3 6 10 10 16 10 5 0 9 -4 9 -10z m1290 -10 c0 -5 -11 -10 -24 -10
-14 0 -28 5 -31 10 -4 6 7 10 24 10 17 0 31 -4 31 -10z m-490 -44 c0 -6 -7 -2
-15 8 -8 11 -15 25 -15 30 0 6 7 2 15 -8 8 -11 15 -25 15 -30z m47 29 c9 -25
-2 -27 -22 -5 -17 18 -17 20 -1 20 9 0 19 -7 23 -15z m-817 -5 c0 -5 -4 -10
-10 -10 -5 0 -10 5 -10 10 0 6 5 10 10 10 6 0 10 -4 10 -10z m668 -12 c-2 -15
3 -24 14 -26 13 -2 15 2 11 19 -5 16 -3 20 6 14 8 -4 11 -18 7 -36 -3 -18 0
-34 10 -43 13 -13 10 -16 -22 -22 -47 -9 -72 12 -54 46 13 24 4 43 -10 20 -5
-8 -12 -11 -16 -8 -10 11 24 58 42 58 10 0 14 -8 12 -22z m-93 -8 c3 -5 -1
-10 -10 -10 -15 0 -14 -4 4 -34 15 -24 19 -42 15 -65 -6 -27 -4 -31 15 -31 26
0 26 -1 0 -44 -11 -19 -18 -40 -14 -46 4 -6 1 -9 -6 -8 -24 6 -20 -22 5 -32
44 -16 29 -18 -31 -4 -32 8 -74 14 -94 14 -29 0 -38 5 -42 21 -4 14 -11 19
-24 16 -18 -6 -55 31 -69 67 -6 17 19 22 50 10 24 -9 19 -26 -5 -19 -17 6 -20
3 -17 -12 2 -10 14 -19 28 -21 14 -2 29 -8 35 -13 5 -5 20 -9 33 -9 13 0 20
-4 17 -10 -7 -12 22 -26 33 -16 3 4 0 11 -7 15 -10 7 -9 10 8 16 27 8 44 39
51 95 4 31 10 44 19 42 8 -2 3 8 -10 22 -29 31 -43 33 -36 5 5 -19 4 -20 -12
-5 -10 9 -27 16 -39 16 -12 0 -22 5 -22 10 0 6 -4 10 -10 10 -5 0 -10 -7 -10
-16 0 -11 -6 -14 -22 -8 -54 16 -31 29 47 27 41 -1 69 3 81 12 23 17 31 18 39
5z m230 -40 c9 -18 11 -30 5 -30 -9 0 -30 40 -30 56 0 12 11 1 25 -26z m-30
-25 c2 -38 -10 -54 -28 -36 -8 8 -8 14 1 23 7 7 12 23 12 37 0 37 12 17 15
-24z m-680 25 c-3 -5 -11 -10 -16 -10 -6 0 -7 5 -4 10 3 6 11 10 16 10 6 0 7
-4 4 -10z m975 -37 c0 -13 5 -23 10 -23 6 0 10 7 10 15 0 8 4 15 9 15 5 0 7
-40 5 -89 -2 -50 0 -92 5 -96 6 -3 6 -18 0 -38 -5 -17 -9 -76 -9 -129 0 -54
-3 -98 -8 -98 -6 0 -66 109 -100 183 -2 4 11 7 28 7 68 0 78 57 41 239 -13 65
-13 70 -1 51 5 -8 10 -25 10 -37z m-660 13 c0 -2 -7 -17 -15 -32 l-15 -29 0
33 c0 22 5 32 15 32 8 0 15 -2 15 -4z m508 -33 c21 -33 23 -73 2 -73 -8 0 -70
91 -70 103 0 4 10 7 23 7 14 -1 30 -13 45 -37z m-438 16 c12 -8 10 -9 -7 -4
-19 5 -22 2 -21 -23 1 -46 -12 -60 -29 -28 -24 46 15 85 57 55z m260 -28 c0
-5 -7 -11 -15 -15 -15 -5 -20 5 -8 17 9 10 23 9 23 -2z m518 2 c-10 -2 -28 -2
-40 0 -13 2 -5 4 17 4 22 1 32 -1 23 -4z m-628 -7 c0 -11 -19 -15 -25 -6 -3 5
1 10 9 10 9 0 16 -2 16 -4z m198 -8 c-2 -7 5 -12 15 -12 10 1 17 -5 17 -17 0
-21 -20 -25 -38 -7 -15 15 -16 48 -2 48 6 0 9 -6 8 -12z m-318 -11 c0 -15 -37
-53 -44 -46 -2 2 -2 16 1 32 4 18 12 27 24 27 11 0 19 -6 19 -13z m170 3 c12
-8 9 -10 -12 -10 -16 0 -28 5 -28 10 0 13 20 13 40 0z m90 -4 c0 -3 -4 -8 -10
-11 -5 -3 -10 -1 -10 4 0 6 5 11 10 11 6 0 10 -2 10 -4z m-1144 -64 c-9 -27
-68 -25 -79 2 -10 26 2 35 17 14 12 -17 14 -17 31 2 21 24 40 12 31 -18z
m1073 12 c16 -12 20 -19 12 -27 -17 -17 -13 -29 9 -22 30 9 26 -19 -6 -44 -27
-21 -64 -28 -64 -13 0 5 9 17 20 27 24 22 29 75 5 55 -8 -7 -15 -19 -15 -27 0
-8 -4 -11 -10 -8 -5 3 -10 15 -10 26 0 10 -5 19 -11 19 -8 0 -8 5 1 15 16 19
40 19 69 -1z m84 -32 c-6 -13 -8 -13 -14 4 -4 10 -8 26 -8 34 0 12 3 11 14 -3
7 -11 11 -26 8 -35z m-1773 28 c0 -5 -7 -10 -15 -10 -8 0 -15 5 -15 10 0 6 7
10 15 10 8 0 15 -4 15 -10z m2030 -35 c3 -47 1 -55 -14 -55 -15 0 -18 22 -9
73 6 35 21 23 23 -18z m-760 -1 c0 -8 -4 -14 -9 -14 -11 0 -22 26 -14 34 9 9
23 -3 23 -20z m65 1 c20 -21 21 -26 9 -36 -18 -15 -30 -4 -39 34 -9 34 1 34
30 2z m566 -2 c21 -54 28 -83 18 -83 -5 0 -9 5 -9 10 0 6 -7 21 -16 35 l-15
24 -42 -22 c-33 -18 -44 -30 -51 -60 -5 -20 -16 -37 -23 -37 -21 0 -4 -25 37
-55 62 -45 124 -27 132 40 l4 30 12 -29 c10 -23 10 -31 1 -37 -7 -4 -9 -15 -5
-24 5 -13 2 -16 -9 -11 -40 15 -23 -36 35 -107 8 -11 15 -26 15 -35 0 -9 6
-17 14 -17 16 0 29 -28 30 -64 1 -23 0 -24 -19 -6 -14 13 -17 21 -9 31 7 9 6
14 -2 20 -7 4 -15 2 -17 -4 -5 -17 -22 -5 -22 15 0 23 -39 104 -63 131 -31 34
-84 25 -115 -20 -16 -22 -48 -24 -56 -3 -3 9 0 15 9 15 8 0 15 -5 15 -12 0
-23 28 16 35 50 4 22 3 32 -5 32 -7 0 -10 -7 -6 -16 3 -8 2 -12 -4 -9 -6 3
-10 12 -10 18 0 7 -7 25 -15 41 -12 23 -13 31 -3 37 10 7 10 11 0 21 -19 19
-14 28 13 28 27 0 32 9 13 28 -14 14 6 42 31 43 12 0 58 15 89 28 1 0 7 -11
13 -26z m-1304 -45 c-3 -7 -5 -2 -5 12 0 14 2 19 5 13 2 -7 2 -19 0 -25z m-67
7 c0 -8 -4 -15 -10 -15 -5 0 -7 7 -4 15 4 8 8 15 10 15 2 0 4 -7 4 -15z m662
-17 l-22 -22 0 21 c0 12 7 23 18 25 27 6 28 -1 4 -24z m-442 7 c0 -22 -13 -55
-21 -55 -5 0 -9 11 -9 25 0 31 -15 33 -25 3 l-7 -23 -7 25 c-4 14 -6 28 -4 32
5 10 73 4 73 -7z m-110 -31 c0 -8 -4 -14 -10 -14 -5 0 -10 9 -10 21 0 11 5 17
10 14 6 -3 10 -13 10 -21z m170 -7 c0 -5 -4 -5 -10 -2 -5 3 -10 14 -10 23 0
15 2 15 10 2 5 -8 10 -19 10 -23z m1160 23 c0 -5 -4 -10 -10 -10 -5 0 -10 5
-10 10 0 6 5 10 10 10 6 0 10 -4 10 -10z m-546 -6 c23 -9 20 -24 -4 -24 -11 0
-20 7 -20 15 0 17 2 18 24 9z m426 -7 l-25 -11 27 -4 c31 -4 49 -45 30 -64
-16 -16 -43 -2 -35 18 5 13 2 16 -9 11 -11 -4 -18 2 -22 19 -9 33 0 44 32 43
l27 0 -25 -12z m-1255 -17 c17 -19 17 -22 2 -37 -13 -13 -20 -14 -39 -5 l-23
12 23 -6 c25 -6 31 13 7 22 -19 8 -20 34 -2 34 8 0 22 -9 32 -20z m984 4 c2
-2 1 -7 -2 -11 -4 -3 -22 1 -40 10 l-32 17 35 -6 c19 -4 37 -8 39 -10z m566
-139 c0 -90 -4 -154 -9 -152 -5 2 -11 14 -13 28 -5 42 -4 260 2 270 16 25 20
-4 20 -146z m-462 132 c25 1 37 -3 34 -10 -2 -7 -17 -12 -34 -12 -32 0 -73
-29 -73 -52 0 -23 -17 -14 -22 11 -4 18 0 26 14 30 15 3 18 10 13 27 -6 19 -5
21 11 13 11 -4 36 -8 57 -7z m-146 -19 c18 -7 33 -18 33 -25 0 -20 -19 -16
-52 12 -33 28 -30 30 19 13z m-690 -56 c3 -46 -2 -49 -34 -27 -20 14 -21 17
-6 46 20 40 36 32 40 -19z m-375 6 c-6 -25 -20 -38 -40 -38 -8 0 -1 13 15 30
15 16 29 29 30 30 0 0 -1 -10 -5 -22z m158 -10 c0 -5 -4 -8 -10 -8 -5 0 -10
10 -10 23 0 18 2 19 10 7 5 -8 10 -18 10 -22z m425 -8 c-3 -6 -10 -10 -16 -10
-10 0 -12 33 -2 44 9 9 26 -22 18 -34z m-350 20 c4 -6 -7 -10 -24 -10 -17 0
-31 5 -31 10 0 6 11 10 24 10 14 0 28 -4 31 -10z m-180 -10 c3 -5 -3 -10 -14
-10 -12 0 -21 5 -21 10 0 6 6 10 14 10 8 0 18 -4 21 -10z m1125 -10 c0 -5 -4
-10 -10 -10 -5 0 -10 5 -10 10 0 6 5 10 10 10 6 0 10 -4 10 -10z m50 -10 c0
-5 -2 -10 -4 -10 -3 0 -8 5 -11 10 -3 6 -1 10 4 10 6 0 11 -4 11 -10z m-1120
-35 c0 -25 -14 -31 -38 -16 -17 10 -92 -7 -92 -21 0 -5 14 -15 30 -21 38 -14
41 -47 5 -47 -14 0 -25 -5 -25 -11 0 -5 4 -8 9 -5 12 8 23 -23 15 -46 -6 -19
-44 -41 -74 -42 -12 0 -15 10 -13 47 1 26 -3 45 -8 41 -5 -3 -9 0 -9 6 0 6 -4
8 -10 5 -23 -14 -7 11 30 47 22 22 40 46 40 53 0 8 6 12 13 9 7 -2 27 2 43 11
16 8 41 15 57 15 22 0 27 -4 27 -25z m35 15 c3 -5 -1 -10 -10 -10 -9 0 -13 5
-10 10 3 6 8 10 10 10 2 0 7 -4 10 -10z m1623 3 c-10 -2 -26 -2 -35 0 -10 3
-2 5 17 5 19 0 27 -2 18 -5z m-1818 -13 c0 -5 -5 -10 -11 -10 -5 0 -7 5 -4 10
3 6 8 10 11 10 2 0 4 -4 4 -10z m633 -21 c-5 -47 -14 -72 -23 -63 -13 13 0 96
14 91 6 -2 10 -15 9 -28z m597 11 c0 -20 -1 -20 -25 -4 -14 9 -25 18 -25 20 0
2 11 4 25 4 18 0 25 -5 25 -20z m-990 -10 c0 -5 -2 -10 -4 -10 -3 0 -8 5 -11
10 -3 6 -1 10 4 10 6 0 11 -4 11 -10z m164 -62 c-9 -84 -14 -86 -14 -5 0 40 4
67 10 67 7 0 9 -21 4 -62z m351 4 c-6 -16 -7 -16 -16 1 -8 13 -7 23 3 34 12
15 13 15 16 -1 2 -9 1 -25 -3 -34z m825 17 c0 -5 -7 -9 -15 -9 -15 0 -20 12
-9 23 8 8 24 -1 24 -14z m-758 -15 c-2 -10 -5 -50 -8 -89 -3 -38 -12 -86 -19
-106 -8 -20 -11 -39 -8 -43 12 -12 33 -6 33 9 0 8 5 15 11 15 5 0 7 5 4 10 -4
6 -2 17 4 24 7 8 11 18 10 22 -3 10 6 32 34 94 14 29 23 39 25 28 2 -9 9 -15
17 -12 18 7 12 -88 -10 -140 -9 -21 -13 -41 -10 -45 13 -12 55 50 56 82 0 18
5 41 10 52 8 17 8 16 4 -7 -3 -15 0 -39 6 -55 13 -36 13 -36 -8 -39 -10 -2
-26 -13 -35 -24 -12 -15 -24 -20 -38 -15 -16 5 -18 10 -10 20 7 8 7 16 2 19
-14 9 -33 -19 -26 -37 4 -11 -6 -27 -28 -47 -18 -17 -33 -36 -33 -43 -1 -13
-28 -11 -33 4 -6 15 -23 10 -54 -17 -17 -14 -44 -28 -59 -31 -16 -3 -29 -12
-29 -19 0 -8 -10 -24 -21 -35 -21 -21 -37 -105 -18 -94 4 3 10 -3 13 -13 6
-19 64 -54 99 -59 12 -2 50 -5 85 -8 48 -3 62 -1 62 10 0 16 35 29 51 19 7 -4
10 -1 7 6 -2 8 10 26 26 41 26 23 34 25 46 15 12 -10 82 -14 118 -7 1 1 4 0 5
-1 2 -2 12 4 22 12 16 13 18 13 13 0 -3 -8 2 -20 10 -26 10 -7 13 -19 8 -38
-7 -28 -26 -27 -26 2 0 9 -7 25 -14 34 -12 17 -14 17 -31 -2 -15 -16 -15 -22
-5 -35 10 -12 10 -15 -3 -15 -8 0 -18 6 -21 13 -3 6 -5 -6 -5 -28 2 -87 -1
-106 -17 -112 -23 -9 -36 18 -18 38 16 18 19 49 4 49 -5 0 -10 8 -10 18 0 13
-9 18 -31 20 -29 2 -31 1 -25 -23 5 -18 2 -25 -9 -25 -10 0 -15 -10 -15 -34 0
-41 -15 -86 -30 -86 -5 0 -7 13 -3 30 5 26 2 30 -15 30 -12 0 -24 5 -27 10
-11 18 -20 10 -33 -30 -21 -70 -57 -95 -149 -105 -88 -9 -99 -4 -107 53 -4 26
-13 55 -21 65 -21 29 -77 67 -97 67 -30 0 -21 -34 11 -47 23 -8 32 -20 41 -53
6 -23 9 -47 6 -53 -2 -7 -5 -4 -5 6 -1 10 -5 16 -10 13 -12 -8 -54 41 -46 53
6 11 -7 15 -34 11 -9 -1 -12 6 -9 23 5 24 3 25 -16 12 -12 -7 -36 -12 -54 -10
-38 3 -49 -12 -32 -45 17 -32 -5 -73 -34 -64 -12 4 -22 11 -24 15 -2 5 -8 9
-13 9 -6 0 -7 -5 -4 -10 3 -6 -1 -13 -10 -16 -12 -5 -14 -14 -10 -35 5 -21 2
-31 -9 -35 -18 -7 -32 -64 -18 -73 5 -3 12 -15 15 -26 4 -18 5 -18 6 3 0 12 5
22 11 22 9 0 5 -47 -7 -80 -11 -30 -13 -149 -3 -155 5 -3 10 -18 10 -33 0 -20
-3 -23 -9 -13 -6 10 -9 2 -8 -22 0 -21 4 -37 8 -37 8 0 6 -56 -2 -64 -3 -3 -1
-45 3 -93 9 -94 1 -144 -13 -83 -5 19 -13 78 -20 130 -8 73 -15 97 -30 108
-10 7 -19 20 -19 28 0 8 -4 14 -9 14 -23 0 -31 -205 -10 -220 14 -10 23 -90
10 -90 -7 0 -9 -5 -5 -11 3 -6 0 -15 -7 -20 -11 -6 -11 -11 -1 -21 9 -9 12 -9
12 5 0 9 5 17 10 17 6 0 10 -22 10 -49 0 -28 -4 -53 -10 -56 -5 -3 -10 -26
-10 -51 0 -30 4 -43 11 -38 6 3 8 16 6 28 -3 11 -2 30 3 41 7 17 9 18 14 4 4
-9 6 -20 5 -25 -1 -5 1 -16 4 -24 3 -8 7 -26 9 -39 4 -33 26 -38 37 -9 8 19
10 20 10 4 1 -15 6 -17 31 -12 17 3 30 1 30 -4 0 -6 -8 -10 -18 -10 -10 0 -22
-4 -28 -10 -5 -5 -18 -11 -29 -13 -11 -1 -26 -6 -33 -11 -7 -4 -19 -3 -25 3
-9 7 -21 6 -41 -5 -21 -10 -32 -11 -42 -3 -7 6 -18 8 -23 5 -16 -10 -35 72
-20 90 14 18 -3 19 -30 3 -15 -10 -22 -8 -40 10 -15 15 -17 21 -7 21 8 0 18
-5 21 -10 12 -20 23 1 15 29 -5 17 -4 33 2 39 6 6 6 12 -1 16 -6 4 -12 0 -12
-8 -3 -36 -16 -59 -29 -51 -4 3 -10 -2 -13 -9 -4 -9 -18 -14 -35 -14 -16 1
-34 -2 -39 -5 -25 -15 -41 28 -42 116 -2 90 8 133 20 87 l6 -25 12 28 c15 37
14 110 -1 125 -9 9 -9 15 0 24 7 7 12 20 12 29 0 10 5 30 11 46 7 15 11 42 10
59 -1 17 4 38 12 46 22 21 22 48 3 92 -19 42 -15 69 8 60 9 -3 23 1 32 10 14
14 14 24 6 58 -9 33 -8 46 4 62 17 25 18 63 2 69 -10 3 -8 12 5 36 15 25 17
43 12 82 -4 27 -11 51 -16 55 -5 3 -9 13 -9 24 0 24 -38 16 -62 -14 -11 -13
-18 -16 -18 -8 0 22 20 53 31 47 5 -4 9 5 9 19 0 14 2 26 4 26 2 0 11 3 20 6
11 4 16 1 16 -10 0 -21 20 -20 65 1 28 14 40 15 54 6 11 -7 22 -9 25 -6 3 3
27 7 53 7 33 1 47 5 46 14 -2 8 13 12 52 12 41 0 61 5 76 19 21 20 62 31 110
31 16 0 29 5 29 11 0 6 9 8 20 4 12 -4 20 -2 20 4 0 7 15 9 40 6 21 -2 41 -1
44 4 9 13 -21 34 -49 34 -23 0 -21 2 16 29 22 16 42 35 45 43 3 8 14 17 25 20
12 4 19 16 19 30 0 13 8 30 18 37 22 16 58 114 67 181 6 48 13 55 32 36 8 -8
10 -36 6 -83 -5 -61 -11 -77 -41 -118 -20 -27 -40 -48 -44 -48 -4 0 -8 -9 -8
-20 0 -11 6 -20 13 -20 20 0 81 80 94 124 14 43 33 141 34 166 1 47 12 91 22
87 7 -2 11 -13 9 -23z m44 -1 c-10 -10 -19 5 -10 18 6 11 8 11 12 0 2 -7 1
-15 -2 -18z m764 6 c0 -5 -4 -9 -10 -9 -5 0 -10 7 -10 16 0 8 5 12 10 9 6 -3
10 -10 10 -16z m-690 -4 c0 -8 -4 -15 -10 -15 -5 0 -10 7 -10 15 0 8 5 15 10
15 6 0 10 -7 10 -15z m535 5 c3 -5 -3 -18 -13 -28 -26 -26 -72 -19 -72 11 0
19 1 19 18 4 23 -21 36 -22 29 -3 -9 24 24 38 38 16z m-1614 -24 c-13 -15 -6
-22 54 -54 19 -11 18 -11 -7 -12 -28 0 -37 -13 -18 -25 6 -4 10 -14 8 -23 -1
-10 1 -23 5 -29 4 -7 2 -23 -5 -35 -7 -13 -11 -26 -10 -30 1 -5 -5 -8 -13 -8
-12 0 -14 11 -9 61 6 66 -8 124 -34 138 -15 9 -14 11 8 20 34 13 34 13 21 -3z
m1799 -26 c0 -5 -9 -6 -20 -3 -20 5 -25 15 -13 26 7 8 33 -11 33 -23z m-1740
10 c0 -5 -4 -10 -10 -10 -5 0 -10 5 -10 10 0 6 5 10 10 10 6 0 10 -4 10 -10z
m1354 -22 c22 -28 23 -34 11 -48 -8 -9 -13 -29 -12 -45 2 -26 0 -28 -36 -28
-25 0 -45 7 -62 23 -16 15 -30 20 -42 16 -17 -7 -16 -9 4 -24 24 -18 58 -90
48 -101 -9 -8 -35 28 -35 49 0 9 -13 24 -30 33 -28 17 -41 47 -21 47 5 0 12
11 15 24 6 25 59 56 95 56 12 0 21 6 21 15 0 24 17 17 44 -17z m105 -21 c5
-12 6 -26 4 -31 -7 -10 -52 44 -53 62 0 20 40 -5 49 -31z m101 28 c0 -8 -7
-15 -16 -15 -14 0 -14 3 -4 15 7 8 14 15 16 15 2 0 4 -7 4 -15z m-964 -103
c-13 -13 -17 9 -9 55 l8 48 3 -49 c2 -26 1 -51 -2 -54z m98 90 c2 -4 -2 -43
-10 -87 -7 -44 -14 -95 -14 -113 0 -36 -29 -101 -54 -121 -13 -11 -16 -11 -16
-1 0 9 -5 8 -18 -3 -28 -25 -49 -22 -26 4 10 11 19 28 19 37 0 10 7 17 15 17
9 0 14 -7 12 -20 -4 -20 -4 -20 11 0 12 15 13 23 4 34 -9 10 -8 16 4 25 8 6
21 34 28 61 7 28 15 57 18 65 3 8 5 36 4 63 -2 42 9 61 23 39z m-764 -33 c0
-18 -9 -23 -35 -20 -6 0 -16 -12 -23 -28 -26 -59 -57 -81 -112 -81 -27 0 -50
2 -50 5 0 20 39 45 70 45 31 1 33 2 18 14 -10 7 -15 16 -11 19 3 4 -3 7 -15 7
-12 0 -31 5 -41 12 -14 9 -31 9 -63 2 -74 -17 -75 -3 -2 23 57 20 75 22 104
14 32 -9 113 -1 126 12 11 11 34 -5 34 -24z m1950 1 c0 -5 -8 -10 -17 -10 -15
0 -16 2 -3 10 19 12 20 12 20 0z m-311 -34 c9 -11 9 -19 -1 -36 -12 -19 -10
-24 20 -49 24 -21 32 -36 32 -60 0 -18 4 -40 9 -49 4 -9 5 -46 1 -81 -9 -73
-36 -118 -68 -113 -16 2 -23 -4 -28 -22 -3 -14 -13 -26 -21 -26 -7 0 -13 -6
-11 -13 2 -7 -15 -29 -37 -49 -32 -30 -37 -40 -26 -47 12 -8 10 -16 -13 -45
-15 -20 -32 -36 -39 -36 -7 0 -4 6 6 14 19 15 22 32 8 41 -5 3 -22 -22 -37
-55 -26 -59 -54 -87 -74 -75 -12 8 -52 -13 -46 -24 7 -11 -79 -48 -142 -61
-94 -18 -202 -10 -202 16 0 8 -12 16 -27 20 -16 3 -32 7 -38 8 -5 2 0 8 12 15
18 9 27 9 42 -1 24 -15 39 -4 22 16 -10 12 -9 17 7 25 23 12 33 5 25 -16 -7
-19 22 -43 51 -43 20 0 20 0 0 14 -13 10 -16 18 -8 25 12 13 74 4 74 -10 0 -5
9 -9 20 -9 24 0 25 8 4 31 -14 16 -14 18 6 24 11 4 27 2 34 -4 10 -8 22 -8 40
-1 15 5 38 10 52 10 13 0 24 5 24 11 0 7 9 9 21 6 12 -3 35 -3 51 0 25 5 29 9
24 30 -5 18 1 30 29 54 19 17 64 69 100 115 36 46 71 87 78 91 19 13 77 112
68 118 -10 6 -68 -22 -77 -37 -4 -6 -10 -25 -13 -42 -7 -30 -8 -31 -64 -31
-37 0 -57 4 -57 12 0 21 67 83 90 83 13 0 24 8 27 20 3 10 13 22 23 25 33 10
39 27 29 79 -5 27 -16 57 -24 66 -19 21 -20 80 -1 80 7 0 19 -6 25 -14z m49
-5 c3 -8 -1 -12 -9 -9 -7 2 -15 10 -17 17 -3 8 1 12 9 9 7 -2 15 -10 17 -17z
m149 -13 c7 19 19 14 31 -13 16 -35 16 -53 0 -37 -18 18 -30 14 -23 -8 3 -11
2 -20 -4 -20 -13 0 -41 58 -41 84 1 21 1 21 16 1 11 -14 18 -16 21 -7z m-2167
4 c0 -15 -27 -45 -32 -36 -18 33 -17 44 7 44 14 0 25 -4 25 -8z m950 -21 c0
-17 -4 -33 -10 -36 -5 -3 -10 -15 -10 -27 0 -28 -58 -98 -81 -98 -28 0 -24 9
31 69 39 42 50 62 50 88 0 18 5 33 10 33 6 0 10 -13 10 -29z m-226 13 c24 -9
19 -31 -14 -73 -24 -30 -36 -37 -56 -33 -21 4 -24 1 -22 -19 2 -16 -3 -24 -17
-27 -11 -2 -22 -8 -25 -13 -7 -10 -120 1 -120 11 0 13 33 21 39 11 4 -6 12 -6
21 -1 8 5 25 7 36 4 12 -3 25 -1 28 5 4 7 -2 12 -16 12 -13 1 -42 3 -65 4 -37
3 -46 -1 -68 -26 l-25 -30 -22 20 c-12 12 -25 21 -30 21 -4 0 -8 5 -8 10 0 6
16 10 35 10 26 0 33 -3 29 -15 -4 -8 -1 -15 5 -15 11 0 13 6 15 44 1 10 8 22
16 27 42 22 85 39 100 39 9 0 21 5 28 12 9 9 12 8 12 -5 0 -21 16 -22 28 -1 5
9 24 19 43 24 19 4 35 8 36 9 1 1 8 -2 17 -5z m1312 -31 c-11 -11 -19 6 -11
24 8 17 8 17 12 0 3 -10 2 -21 -1 -24z m-2119 5 c-3 -8 -6 -5 -6 6 -1 11 2 17
5 13 3 -3 4 -12 1 -19z m508 2 c-3 -5 -10 -10 -16 -10 -5 0 -9 5 -9 10 0 6 7
10 16 10 8 0 12 -4 9 -10z m1166 -80 c-6 -32 -8 -33 -18 -15 -6 11 -8 26 -6
33 3 6 0 12 -7 12 -6 0 -8 -5 -4 -12 5 -7 2 -9 -7 -6 -8 3 -25 1 -39 -4 -18
-7 -21 -11 -11 -17 20 -13 5 -29 -26 -28 -16 0 -22 2 -15 4 6 3 12 11 12 20 0
8 17 34 38 58 l37 44 27 -27 c23 -23 26 -32 19 -62z m-551 60 c0 -5 -7 -10
-16 -10 -8 0 -12 5 -9 10 3 6 10 10 16 10 5 0 9 -4 9 -10z m-600 -21 c0 -6 -4
-7 -10 -4 -5 3 -10 11 -10 16 0 6 5 7 10 4 6 -3 10 -11 10 -16z m400 11 c0 -5
-5 -10 -11 -10 -5 0 -7 5 -4 10 3 6 8 10 11 10 2 0 4 -4 4 -10z m1075 -20 c-6
-9 -9 -9 -16 1 -10 17 0 34 13 21 6 -6 7 -16 3 -22z m-1931 -16 c-5 -20 -2
-26 15 -31 28 -7 27 -23 -1 -20 -13 1 -31 12 -42 25 -18 23 -18 23 0 37 28 21
35 18 28 -11z m111 16 c3 -5 1 -10 -4 -10 -6 0 -11 5 -11 10 0 6 2 10 4 10 3
0 8 -4 11 -10z m2017 -25 c13 -17 9 -67 -4 -62 -8 2 -12 17 -10 36 1 22 -2 31
-13 31 -8 0 -15 7 -15 16 0 14 2 15 18 3 9 -8 20 -18 24 -24z m-1829 15 c8 0
8 -3 2 -8 -6 -4 -23 -26 -38 -50 -16 -25 -42 -49 -61 -57 -18 -8 -57 -36 -86
-64 -30 -28 -56 -49 -58 -46 -2 2 -1 42 3 89 l7 84 48 21 c27 12 64 21 82 21
18 0 40 5 48 10 8 5 21 8 28 5 8 -3 19 -5 25 -5z m132 0 c3 -6 -4 -10 -17 -10
-18 0 -20 2 -8 10 19 12 18 12 25 0z m1888 3 c-7 -2 -21 -2 -30 0 -10 3 -4 5
12 5 17 0 24 -2 18 -5z m-673 -13 c0 -5 -7 -10 -15 -10 -8 0 -15 5 -15 10 0 6
7 10 15 10 8 0 15 -4 15 -10z m320 -42 c0 -16 -4 -28 -10 -28 -5 0 -10 19 -10
43 0 31 3 38 10 27 5 -8 10 -27 10 -42z m-500 32 c0 -5 -5 -10 -11 -10 -5 0
-7 5 -4 10 3 6 8 10 11 10 2 0 4 -4 4 -10z m420 -16 c-6 -14 -8 -29 -5 -34 3
-5 1 -11 -5 -15 -6 -4 -7 -11 -4 -17 4 -6 9 -5 15 3 6 11 11 11 20 2 7 -7 11
-14 8 -16 -2 -1 -23 -15 -47 -30 -23 -15 -48 -39 -54 -52 -6 -14 -19 -25 -29
-25 -9 0 -19 -6 -22 -12 -2 -7 -8 -10 -12 -6 -7 6 -1 28 21 82 5 14 4 17 -4
12 -7 -4 -12 -3 -12 3 0 21 19 20 34 -1 l16 -23 25 26 26 25 -26 26 c-16 16
-22 29 -15 33 5 3 14 4 19 1 15 -9 43 5 37 19 -5 14 2 25 15 25 5 0 4 -12 -1
-26z m310 16 c0 -5 -4 -10 -10 -10 -5 0 -10 5 -10 10 0 6 5 10 10 10 6 0 10
-4 10 -10z m54 -6 c3 -8 2 -12 -3 -9 -5 3 -11 -5 -13 -17 -2 -15 -9 -22 -20
-20 -12 2 -16 -2 -12 -13 3 -8 2 -15 -4 -15 -22 0 -20 30 3 49 14 10 25 24 25
30 0 16 17 13 24 -5z m-1904 -7 c0 -16 -90 -99 -102 -95 -10 4 80 108 93 108
5 0 9 -6 9 -13z m621 -50 c-6 -6 -11 -18 -11 -27 0 -9 -11 -22 -25 -28 -43
-20 -48 -14 -17 22 16 18 35 48 43 65 l14 32 3 -27 c2 -14 -1 -31 -7 -37z
m962 26 c-3 -7 -9 -13 -14 -13 -11 0 -12 34 -2 43 9 10 22 -13 16 -30z m397
17 c0 -5 -9 -10 -20 -10 -11 0 -20 5 -20 10 0 6 9 10 20 10 11 0 20 -4 20 -10z
m-237 -72 c4 -27 2 -50 -3 -53 -6 -3 -10 -3 -11 2 -10 116 1 156 14 51z
m-1693 22 c0 -10 -8 -20 -18 -22 -15 -4 -19 0 -19 22 0 22 4 26 19 22 10 -2
18 -12 18 -22z m1140 5 c-15 -18 3 -47 25 -39 7 3 16 0 20 -6 4 -7 -2 -14 -14
-17 -27 -7 -17 -23 15 -23 13 0 24 -4 24 -10 0 -5 -9 -10 -20 -10 -17 0 -20
-6 -18 -27 2 -19 -2 -28 -13 -31 -13 -2 -15 3 -12 22 8 38 -39 111 -78 125
-40 14 -33 22 20 23 23 0 44 5 47 10 3 5 8 7 11 4 3 -3 0 -12 -7 -21z m60 15
c0 -5 -4 -10 -10 -10 -5 0 -10 5 -10 10 0 6 5 10 10 10 6 0 10 -4 10 -10z
m-1577 -30 c4 0 7 -3 7 -7 -1 -5 -12 -7 -26 -5 -20 3 -25 0 -22 -14 2 -10 14
-24 27 -30 l24 -12 -24 -4 c-16 -2 -24 -10 -24 -23 0 -11 -3 -25 -8 -32 -4 -6
-4 -19 0 -28 4 -13 2 -16 -8 -13 -11 4 -13 24 -10 94 1 49 5 92 8 96 2 4 14 1
26 -7 12 -8 25 -14 30 -15z m752 0 c-14 -23 -89 -70 -109 -69 -19 1 -19 2 5
12 14 7 43 27 64 44 37 31 55 37 40 13z m605 0 c0 -5 -12 -10 -26 -10 -14 0
-23 4 -19 10 3 6 15 10 26 10 10 0 19 -4 19 -10z m774 -5 c3 -9 -3 -19 -14
-25 -17 -9 -20 -7 -20 15 0 27 24 35 34 10z m-1614 -14 c0 -14 -9 -18 -59 -26
-34 -6 -42 -4 -39 6 3 8 16 14 31 14 14 1 29 4 33 8 11 10 34 9 34 -2z m1280
-6 c-7 -9 -15 -13 -17 -11 -7 7 7 26 19 26 6 0 6 -6 -2 -15z m-438 -7 l86 1
13 -31 c12 -30 12 -32 -30 -70 -24 -21 -50 -38 -57 -38 -8 0 -14 -7 -14 -15 0
-9 -12 -21 -27 -28 -16 -6 -32 -17 -36 -24 -9 -15 -67 -18 -67 -3 0 6 11 10
23 10 26 0 39 9 32 20 -3 4 -22 4 -42 -1 -102 -22 -101 -22 -51 5 26 14 56 26
68 26 11 0 20 5 20 10 0 16 -41 11 -85 -10 -43 -21 -65 -25 -65 -12 0 4 24 16
53 26 49 18 77 39 77 59 0 5 -11 2 -25 -7 -13 -9 -30 -16 -37 -16 -7 0 -31 -9
-52 -21 -24 -12 -42 -17 -48 -11 -6 6 4 15 25 25 19 9 40 23 46 31 7 8 23 17
36 20 14 4 25 13 25 22 0 8 -4 13 -9 9 -5 -3 -12 -1 -16 4 -8 14 27 31 50 24
11 -4 59 -6 107 -5z m945 -75 c-2 -16 -4 -3 -4 27 0 30 2 43 4 28 2 -16 2 -40
0 -55z m-1487 55 c0 -13 -27 -21 -46 -14 -8 3 -13 10 -10 15 7 11 56 11 56 -1z
m-415 -7 c15 -6 2 -14 -62 -35 -45 -15 -84 -33 -87 -39 -3 -8 -9 -7 -19 6 -8
9 -20 17 -27 17 -16 0 -3 15 13 15 30 1 127 29 127 37 0 10 28 9 55 -1z m769
-6 c-10 -8 -26 -14 -34 -14 -11 0 -10 3 4 14 11 8 27 15 35 15 11 0 10 -4 -5
-15z m1022 -11 c-3 -9 -4 -20 -1 -24 9 -15 35 1 35 21 0 21 25 26 36 8 9 -15
-53 -72 -71 -65 -22 8 -19 76 3 76 2 0 1 -7 -2 -16z m-1346 -24 c0 -5 -4 -10
-10 -10 -5 0 -10 5 -10 10 0 6 5 10 10 10 6 0 10 -4 10 -10z m90 -10 c0 -5 -5
-10 -11 -10 -5 0 -7 5 -4 10 3 6 8 10 11 10 2 0 4 -4 4 -10z m-930 -4 c0 -3
-4 -8 -10 -11 -5 -3 -10 -1 -10 4 0 6 5 11 10 11 6 0 10 -2 10 -4z m2128 -33
c-5 -25 -28 -28 -28 -4 0 12 6 21 16 21 9 0 14 -7 12 -17z m-1918 -6 c0 -8
-12 -24 -26 -38 -14 -13 -32 -38 -41 -56 -8 -18 -19 -33 -23 -33 -10 0 49 123
64 132 17 11 26 9 26 -5z m245 3 c-3 -5 -13 -10 -21 -10 -8 0 -14 5 -14 10 0
6 9 10 21 10 11 0 17 -4 14 -10z m1291 -44 c-10 -21 -13 -46 -9 -69 8 -52 -3
-86 -33 -98 -21 -8 -25 -14 -20 -34 6 -23 3 -25 -24 -25 -29 0 -42 21 -21 34
5 3 12 18 16 33 3 16 12 35 20 43 7 8 20 41 29 73 16 54 47 103 54 85 2 -5 -3
-24 -12 -42z m-1466 35 c0 -20 -13 -41 -25 -41 -12 0 -29 -40 -20 -48 3 -3 24
11 47 30 49 40 81 58 100 58 10 0 9 -3 -2 -10 -8 -5 -15 -17 -15 -27 0 -10
-12 -23 -26 -30 -15 -7 -34 -28 -43 -47 -18 -37 -45 -54 -57 -34 -7 10 -11 10
-21 0 -8 -8 -11 -41 -10 -105 3 -100 -6 -197 -18 -197 -4 0 -7 56 -7 124 1 91
-3 129 -13 141 -26 32 -21 66 15 101 19 18 35 36 35 39 0 10 43 55 53 55 4 0
7 -4 7 -9z m1760 -6 c0 -8 -8 -23 -17 -33 -10 -10 -19 -27 -19 -37 -1 -11 -14
-51 -29 -90 -15 -38 -30 -81 -34 -95 -4 -14 -13 -25 -21 -25 -7 0 -15 -6 -17
-12 -3 -7 0 -13 6 -13 7 0 9 -10 5 -27 -10 -42 -22 -49 -30 -19 -5 20 -9 25
-18 16 -8 -8 -7 -13 4 -20 8 -5 11 -12 7 -16 -4 -4 -2 -13 3 -19 7 -8 5 -26
-5 -55 -52 -149 -79 -344 -54 -392 8 -14 8 -23 0 -31 -6 -6 -11 -16 -11 -22 0
-5 6 -3 13 5 10 12 67 25 67 15 0 -1 -4 -26 -10 -54 -12 -63 -3 -85 40 -99 20
-8 30 -18 30 -32 0 -19 25 -39 35 -28 11 11 -22 69 -42 74 -33 9 -51 33 -32
45 10 6 10 9 2 9 -7 0 -13 9 -13 20 0 11 5 20 10 20 6 0 10 -7 10 -15 0 -8 5
-15 11 -15 6 0 9 -7 5 -15 -3 -8 -1 -15 4 -15 5 0 15 7 24 15 8 8 19 15 24 15
5 0 9 7 8 16 0 9 5 19 13 22 15 5 14 -12 -9 -202 -6 -54 -6 -85 1 -98 6 -11 9
-29 6 -39 -3 -10 -1 -22 4 -25 5 -3 9 9 9 25 0 17 4 31 9 31 15 0 23 -70 11
-85 -7 -8 -9 -19 -5 -25 3 -5 2 -10 -4 -10 -5 0 -11 6 -14 13 -3 9 -7 9 -20
-2 -13 -10 -14 -18 -6 -33 8 -15 14 -17 24 -8 9 7 15 8 19 1 14 -21 38 1 34
31 -4 27 -2 29 19 23 13 -3 23 -1 23 5 0 14 37 12 68 -4 40 -21 98 -86 111
-125 6 -19 11 -56 11 -82 0 -47 1 -48 49 -76 28 -15 53 -37 56 -48 6 -18 8
-18 12 -3 4 16 7 17 34 2 29 -14 85 -13 143 3 12 3 17 1 14 -8 -6 -17 -82 -43
-86 -29 -2 5 -8 10 -14 10 -6 0 -8 -7 -4 -15 8 -21 -21 -19 -32 2 -7 12 -18
14 -40 10 -37 -8 -99 9 -110 30 -6 9 -12 12 -16 5 -4 -7 -17 -7 -40 0 -36 11
-45 28 -47 88 0 29 -2 31 -9 15 l-9 -20 0 20 c-1 16 -3 17 -11 5 -7 -12 -11
-12 -28 3 -25 23 -97 36 -90 17 2 -8 17 -18 34 -23 16 -5 36 -16 45 -23 9 -8
19 -11 23 -7 4 4 6 -10 4 -31 -3 -35 -7 -40 -41 -52 -49 -17 -88 -5 -80 25 3
12 1 21 -6 21 -6 0 -11 -7 -11 -16 0 -16 -1 -16 -85 -2 -11 2 -28 19 -37 38
-17 32 -30 53 -85 130 -10 14 -17 30 -15 37 1 6 -2 14 -8 18 -5 3 -10 1 -10
-4 0 -6 -4 -11 -10 -11 -13 0 -30 68 -27 115 1 22 -2 40 -7 40 -11 0 -28 46
-20 54 4 3 9 0 11 -6 7 -19 23 -16 23 5 0 9 -9 23 -20 30 -17 10 -20 10 -20
-5 0 -15 -2 -16 -10 -3 -5 8 -10 25 -10 38 0 23 0 23 25 5 33 -24 55 -72 55
-120 0 -22 7 -48 15 -59 8 -10 15 -29 15 -42 0 -26 19 -63 38 -75 7 -5 11 -16
8 -25 -6 -19 9 -50 20 -39 4 3 20 -5 36 -18 16 -14 34 -25 39 -25 5 0 9 -16 9
-35 0 -19 5 -35 11 -35 7 0 9 10 5 26 -6 23 -4 25 11 19 52 -22 90 -34 108
-35 12 0 26 -5 32 -11 7 -7 13 -7 17 -1 3 6 -3 14 -15 17 -12 4 -18 12 -15 21
6 16 -9 19 -19 5 -6 -11 -88 11 -110 29 -8 6 -11 18 -8 27 5 12 1 14 -15 9
-23 -8 -37 4 -93 76 -31 41 -73 153 -71 191 3 34 -22 85 -58 117 -23 20 -31
40 -43 108 -10 60 -12 95 -5 128 6 25 7 48 3 52 -13 13 -31 -27 -44 -101 -11
-64 -11 -79 2 -108 18 -40 28 -104 20 -125 -4 -12 -8 -12 -20 -2 -13 10 -14 8
-11 -12 3 -25 9 -27 39 -15 12 5 18 -2 23 -26 3 -18 12 -39 19 -47 6 -8 12
-27 13 -41 2 -80 5 -90 44 -130 22 -22 40 -45 40 -51 0 -5 14 -25 30 -43 17
-19 33 -49 36 -66 6 -31 6 -31 -25 -20 -17 6 -31 15 -31 19 0 4 -37 18 -82 30
-46 12 -87 26 -92 31 -17 15 -28 10 -21 -10 3 -11 1 -22 -5 -26 -5 -3 -10 1
-10 9 0 9 -4 16 -10 16 -5 0 -10 -4 -10 -10 0 -13 -26 -13 -67 2 -18 7 -33 18
-33 26 0 9 -6 12 -15 8 -17 -6 -65 12 -65 25 0 4 9 14 21 22 17 13 19 19 10
36 -16 29 -24 26 -16 -6 5 -23 4 -25 -9 -14 -8 7 -20 10 -26 6 -13 -8 -95 57
-111 88 -9 16 -9 22 0 25 14 5 15 42 1 42 -5 0 -10 -9 -10 -20 0 -32 -14 -23
-32 22 -19 45 -17 58 7 38 12 -10 15 -10 15 3 0 9 -4 19 -10 22 -5 3 -10 18
-10 32 0 18 -4 24 -15 19 -8 -3 -15 -1 -15 5 0 6 -5 7 -10 4 -6 -3 -15 6 -20
20 -14 36 -13 45 5 39 18 -7 19 -3 4 30 -6 13 -17 22 -23 20 -23 -9 -44 68
-39 139 6 72 -1 87 -15 35 l-9 -33 -7 46 c-10 57 -4 95 12 92 6 -2 12 1 12 5
0 19 -13 20 -32 2 -18 -17 -20 -27 -14 -83 3 -36 20 -102 37 -148 47 -128 52
-150 39 -163 -8 -8 -13 -7 -20 4 -9 13 -11 13 -20 0 -5 -8 -10 -20 -10 -27 0
-18 17 -25 23 -9 4 9 14 12 29 9 27 -7 38 -21 38 -48 0 -15 -3 -16 -12 -7 -14
14 -48 16 -48 3 0 -5 -9 -12 -19 -16 -11 -3 -22 -16 -24 -28 -4 -18 -5 -17 -6
6 -2 40 -21 33 -21 -8 0 -19 4 -35 9 -35 5 0 16 -3 24 -6 11 -4 13 1 10 23
l-4 28 15 -25 c15 -25 19 -22 18 15 -1 17 0 17 4 3 9 -30 27 -21 20 9 -5 23
-4 25 5 10 8 -14 14 -15 24 -7 10 8 19 -1 42 -45 15 -31 40 -69 55 -83 31 -31
35 -42 13 -42 -8 0 -15 5 -15 10 0 6 -4 10 -10 10 -5 0 -10 -7 -10 -15 0 -8
-7 -15 -16 -15 -14 0 -14 3 -4 15 10 12 10 15 -4 15 -26 0 -31 -4 -29 -22 2
-13 -4 -18 -25 -18 -15 0 -36 -7 -46 -15 -27 -20 -39 -19 -28 3 5 9 9 42 10
72 1 46 -1 51 -9 30 l-10 -25 -20 23 c-27 34 -41 95 -41 180 1 69 -9 86 -21
37 -4 -16 -5 -14 -6 6 0 15 -7 29 -15 32 -12 5 -21 65 -26 190 -1 18 -20 25
-20 7 0 -5 -6 -10 -14 -10 -10 0 -16 -21 -20 -77 -6 -63 -14 -276 -16 -400 0
-14 -5 -21 -12 -18 -10 4 -12 36 -10 128 2 67 7 123 12 125 5 2 6 36 3 76 -4
49 -2 75 6 80 6 4 11 29 11 56 0 28 5 50 12 52 8 3 3 20 -15 52 -27 48 -27 51
-27 236 l0 188 33 29 c28 25 39 28 84 25 39 -3 50 -7 46 -18 -7 -18 13 -18 24
0 4 7 26 16 48 19 22 3 32 3 23 1 -32 -9 -20 -32 20 -37 20 -2 71 -12 112 -21
63 -15 88 -16 158 -6 46 6 102 19 125 28 78 32 172 91 213 134 48 50 144 186
144 205 0 7 18 24 39 39 22 14 42 32 45 40 7 19 26 18 26 -1z m-2047 -2 c-7
-2 -19 -2 -25 0 -7 3 -2 5 12 5 14 0 19 -2 13 -5z m1836 -6 c-9 -7 -21 -22
-28 -34 -13 -25 -35 -30 -47 -11 -4 6 -3 8 3 5 5 -3 22 7 37 24 15 16 33 29
39 29 7 -1 5 -6 -4 -13z m471 3 c0 -5 -4 -10 -10 -10 -5 0 -10 5 -10 10 0 6 5
10 10 10 6 0 10 -4 10 -10z m-2220 -20 c0 -5 -4 -10 -10 -10 -5 0 -10 5 -10
10 0 6 5 10 10 10 6 0 10 -4 10 -10z m-114 -57 c14 2 24 0 24 -7 0 -6 -15 -11
-32 -11 -32 0 -33 -2 -32 -37 1 -21 -2 -38 -6 -38 -9 0 -11 130 -2 145 3 5 10
-6 15 -24 7 -28 12 -32 33 -28z m2090 -55 c-8 -46 -20 -101 -25 -123 -6 -22
-22 -98 -37 -170 -14 -71 -35 -161 -46 -200 -11 -38 -24 -91 -30 -118 -9 -38
-13 -45 -24 -36 -11 9 -14 5 -14 -24 0 -70 -39 -49 -47 26 -4 36 1 79 21 175
11 52 18 63 34 57 8 -3 19 0 24 7 13 21 9 31 -7 18 -37 -31 -8 82 87 329 32
84 62 159 65 165 15 22 14 -24 -1 -106z m124 101 c0 -7 11 -21 24 -33 21 -18
24 -26 17 -56 l-8 -35 -7 37 c-5 22 -15 38 -26 41 -21 5 -34 57 -14 57 8 0 14
-5 14 -11z m54 -4 c-4 -8 -10 -15 -15 -15 -5 0 -9 7 -9 15 0 8 7 15 15 15 9 0
12 -6 9 -15z m-2114 0 c0 -10 -42 -95 -50 -100 -12 -7 6 73 20 90 12 14 30 20
30 10z m310 -19 c0 -3 -4 -8 -10 -11 -5 -3 -10 -1 -10 4 0 6 5 11 10 11 6 0
10 -2 10 -4z m1830 -94 c0 -72 -3 -89 -15 -89 -8 0 -15 7 -15 14 0 8 5 11 10
8 6 -3 10 -1 10 4 0 6 -5 11 -11 11 -6 0 -8 11 -5 28 3 15 8 46 11 70 4 23 9
42 11 42 2 0 4 -40 4 -88z m-440 72 c0 -11 -41 -64 -50 -64 -12 0 -1 30 18 53
15 17 32 23 32 11z m304 -61 c-3 -27 -8 -51 -11 -55 -8 -14 -43 -8 -43 7 0 9
6 12 15 9 8 -4 15 -1 15 5 0 6 -4 11 -10 11 -5 0 -10 7 -10 15 0 9 6 12 15 9
11 -5 15 1 15 20 0 14 5 26 11 26 7 0 8 -16 3 -47z m176 37 c0 -5 -4 -10 -10
-10 -5 0 -10 5 -10 10 0 6 5 10 10 10 6 0 10 -4 10 -10z m-120 -47 c0 -5 -4
-15 -10 -23 -11 -18 -25 -7 -17 15 6 15 27 21 27 8z m-2073 -35 c-3 -8 -6 -5
-6 6 -1 11 2 17 5 13 3 -3 4 -12 1 -19z m-178 -35 c-16 -18 7 -63 33 -63 10 0
18 -4 18 -10 0 -5 -9 -10 -20 -10 -26 0 -26 -20 0 -27 20 -5 20 -7 4 -24 -9
-11 -25 -19 -34 -19 -9 0 -21 -12 -28 -27 -9 -23 -11 -6 -6 87 3 63 8 118 11
123 2 4 11 3 19 -4 11 -9 12 -15 3 -26z m2371 27 c0 -5 -2 -10 -4 -10 -3 0 -8
5 -11 10 -3 6 -1 10 4 10 6 0 11 -4 11 -10z m-2189 -273 c0 -400 -2 -460 -13
-481 -8 -15 -8 -21 1 -24 19 -6 12 -20 -8 -15 -17 4 -18 20 -16 311 3 323 11
475 27 466 5 -3 9 -113 9 -257z m2094 246 c-12 -67 -16 -151 -6 -157 6 -4 11
-16 11 -26 0 -17 4 -18 26 -10 38 15 54 12 54 -9 0 -16 -9 -20 -53 -23 l-52
-3 -2 54 c-3 62 -7 69 -27 52 -24 -20 -39 -3 -31 37 9 47 22 72 39 72 8 0 19
7 26 15 16 19 20 19 15 -2z m92 -35 c-3 -8 -6 -5 -6 6 -1 11 2 17 5 13 3 -3 4
-12 1 -19z m-197 -2 c0 -11 -19 -15 -25 -6 -3 5 1 10 9 10 9 0 16 -2 16 -4z
m-1774 -33 c-10 -10 -19 5 -10 18 6 11 8 11 12 0 2 -7 1 -15 -2 -18z m1914 -8
c0 -28 20 -35 21 -7 0 12 3 10 10 -7 12 -31 -4 -51 -29 -35 -19 12 -30 74 -13
74 6 0 11 -11 11 -25z m-156 -20 c-26 -20 -34 -18 -34 4 0 13 8 21 23 23 29 4
34 -9 11 -27z m-818 -4 c-8 -12 -46 -21 -46 -11 0 9 18 18 38 19 7 1 11 -3 8
-8z m-380 -28 c-10 -10 -19 5 -10 18 6 11 8 11 12 0 2 -7 1 -15 -2 -18z m1204
-60 c0 -21 -4 -44 -8 -51 -9 -13 -42 -6 -42 9 0 4 7 6 15 3 10 -4 15 0 15 11
0 13 -6 16 -25 11 -21 -5 -25 -3 -25 14 0 16 5 19 24 14 16 -4 25 -1 29 10 10
27 17 18 17 -21z m-1260 7 c0 -5 -2 -10 -4 -10 -3 0 -8 5 -11 10 -3 6 -1 10 4
10 6 0 11 -4 11 -10z m-810 -40 c0 -5 -5 -10 -11 -10 -5 0 -7 5 -4 10 3 6 8
10 11 10 2 0 4 -4 4 -10z m2140 1 c0 -13 -26 -32 -33 -24 -14 13 -6 33 13 33
11 0 20 -4 20 -9z m-2242 -8 c-24 -4 -26 -6 -15 -24 6 -10 17 -19 24 -19 19 0
16 -8 -14 -36 -16 -14 -23 -23 -16 -20 21 11 24 -13 3 -24 -19 -10 -20 -8 -20
53 0 35 3 67 7 70 3 4 18 6 32 6 l26 -2 -27 -4z m54 -33 c-2 -16 -9 -30 -14
-30 -6 0 -7 7 -4 16 3 9 6 22 6 30 0 8 4 14 8 14 5 0 7 -13 4 -30z m215 -22
c-2 -13 -4 -5 -4 17 -1 22 1 32 4 23 2 -10 2 -28 0 -40z m578 -52 c-2 -47 -6
-90 -10 -95 -3 -6 -1 -20 5 -32 9 -16 8 -24 -5 -39 -13 -15 -14 -23 -5 -39 6
-12 7 -27 3 -34 -4 -6 -7 -36 -6 -64 1 -29 -2 -55 -7 -58 -5 -3 -5 -18 1 -33
10 -28 7 -124 -4 -152 -3 -8 -7 -28 -9 -45 -4 -43 -23 -32 -21 13 1 20 2 116
2 212 1 151 6 223 26 375 2 17 4 32 5 35 2 5 6 18 8 33 1 4 6 7 11 7 6 0 8
-36 6 -84z m1440 44 c-4 -19 -3 -30 4 -30 6 0 11 9 11 19 0 23 16 36 25 21 10
-16 -18 -70 -36 -70 -28 0 -40 55 -17 78 18 18 20 15 13 -18z m-139 -52 c-4
-29 -12 -58 -18 -65 -14 -18 -38 -16 -38 2 0 8 7 15 15 15 8 0 15 5 15 10 0 6
-6 10 -14 10 -8 0 -18 -4 -21 -10 -3 -5 -10 -10 -16 -10 -12 0 -11 51 1 70 8
13 10 12 10 -2 0 -13 8 -18 28 -18 24 1 25 2 10 14 -24 17 -23 24 5 29 12 2
24 5 26 6 2 0 0 -23 -3 -51z m70 12 c-4 -21 -2 -29 5 -25 13 9 51 -24 42 -37
-3 -6 1 -14 8 -19 21 -13 49 -11 49 4 0 8 11 20 25 27 14 7 25 20 25 28 0 27
14 3 27 -46 16 -63 16 -92 -1 -92 -7 0 -19 -7 -26 -15 -24 -29 -32 -16 -25 38
l7 52 -21 -19 c-19 -17 -24 -18 -47 -6 -19 11 -32 11 -55 3 l-29 -11 0 74 c0
48 4 74 11 74 7 0 9 -11 5 -30z m142 0 c-11 -33 -28 -49 -28 -28 0 13 27 58
35 58 2 0 -1 -14 -7 -30z m-2091 -27 c-3 -10 -5 -4 -5 12 0 17 2 24 5 18 2 -7
2 -21 0 -30z m-266 -31 c-6 -2 -11 -13 -11 -24 0 -31 34 -18 42 17 6 30 6 30
5 -4 -2 -30 -10 -40 -45 -58 -2 0 -4 -8 -6 -16 -1 -8 -7 -22 -14 -30 -10 -11
-9 -17 3 -27 8 -7 22 -10 30 -6 17 6 21 36 5 36 -15 0 -12 17 5 24 12 4 15 -3
15 -34 0 -38 -2 -40 -30 -40 -23 0 -30 -4 -30 -20 0 -15 7 -20 25 -20 14 0 25
-4 25 -10 0 -5 -13 -7 -30 -3 -23 4 -30 2 -30 -10 0 -8 8 -18 18 -22 16 -6 16
-7 -2 -21 -20 -14 -20 -14 0 -29 12 -10 14 -14 5 -13 -8 2 -17 -5 -19 -14 -3
-14 3 -18 22 -18 16 0 26 -6 26 -15 0 -9 -9 -13 -27 -12 -19 1 -28 -3 -28 -13
0 -10 10 -15 28 -15 21 1 27 -4 27 -20 0 -15 -2 -17 -9 -6 -9 14 -41 9 -41 -8
0 -12 29 -23 41 -15 5 3 9 -3 9 -14 0 -15 -5 -18 -25 -14 -18 3 -25 0 -25 -12
0 -9 5 -16 12 -16 9 0 9 -3 0 -12 -17 -17 -15 -26 8 -33 11 -3 20 -11 20 -16
0 -6 -4 -7 -10 -4 -5 3 -10 -1 -10 -9 0 -22 -20 -20 -21 2 -2 31 -28 -82 -30
-128 -2 -50 8 -93 20 -85 5 2 16 -2 26 -9 17 -12 16 -14 -9 -20 -21 -5 -26
-11 -21 -25 3 -11 1 -22 -5 -26 -5 -3 -10 -20 -10 -37 0 -28 2 -30 30 -26 20
3 30 0 30 -9 0 -7 -9 -13 -19 -13 -44 0 -51 -10 -51 -69 0 -31 5 -62 12 -69 8
-8 8 -15 -2 -27 -29 -35 -53 -3 -45 62 2 17 6 89 9 160 11 259 18 334 34 350
12 12 13 19 4 33 -7 12 -8 20 0 28 8 8 8 15 -2 26 -8 10 -10 28 -6 48 4 18 9
89 11 158 2 69 6 139 10 155 3 17 9 46 12 65 8 48 21 64 40 48 10 -8 11 -14 4
-16z m256 -54 c-2 -13 -4 -5 -4 17 -1 22 1 32 4 23 2 -10 2 -28 0 -40z m1920
0 c-2 -13 -4 -5 -4 17 -1 22 1 32 4 23 2 -10 2 -28 0 -40z m-1237 -6 c0 -9 -9
-28 -19 -41 l-19 -24 -3 47 c-3 26 -2 49 0 51 9 9 41 -17 41 -33z m-873 6 c-3
-8 -6 -5 -6 6 -1 11 2 17 5 13 3 -3 4 -12 1 -19z m2003 1 c0 -5 -4 -9 -10 -9
-5 0 -10 -4 -10 -10 0 -16 37 -12 44 5 3 8 13 15 22 15 11 0 14 -5 10 -16 -3
-9 -6 -25 -6 -37 0 -16 -3 -18 -12 -9 -16 16 -38 15 -38 -2 0 -8 -10 -13 -25
-13 -28 0 -30 5 -14 58 8 25 16 36 25 32 8 -3 14 -9 14 -14z m260 -40 c0 -5
-4 -9 -10 -9 -5 0 -10 7 -10 16 0 8 5 12 10 9 6 -3 10 -10 10 -16z m-115 -9
c-3 -5 -10 -10 -16 -10 -5 0 -9 5 -9 10 0 6 7 10 16 10 8 0 12 -4 9 -10z m-45
-52 c0 -10 -6 -18 -13 -18 -9 0 -12 10 -9 31 3 22 7 27 13 18 5 -8 9 -22 9
-31z m107 11 c2 -8 -1 -21 -6 -29 -8 -12 -12 -12 -29 3 -32 29 -57 18 -29 -13
10 -12 9 -12 -5 -1 -10 7 -18 24 -18 36 0 21 4 23 43 21 27 -2 43 -8 44 -17z
m-1347 -53 c-5 -5 -10 -18 -10 -28 0 -10 -5 -18 -10 -18 -7 0 -10 19 -9 45 3
43 4 44 21 28 13 -11 15 -20 8 -27z m1400 -37 c0 -33 -4 -59 -10 -59 -5 0 -10
11 -10 25 0 14 -4 25 -10 25 -5 0 -10 -6 -10 -14 0 -14 -71 -29 -96 -19 -16 6
-19 53 -4 53 5 0 7 -6 4 -14 -7 -19 13 -30 28 -16 7 6 28 20 47 31 18 11 35
29 38 39 10 38 23 8 23 -51z m-284 46 c-24 -18 -12 -33 14 -17 22 14 35 0 25
-26 -5 -14 -7 -14 -15 -2 -7 12 -12 12 -22 2 -6 -6 -20 -12 -30 -12 -25 0 -25
57 0 63 37 10 48 7 28 -8z m344 5 c0 -5 -7 -10 -15 -10 -8 0 -15 -4 -15 -10 0
-13 6 -13 31 0 17 10 19 7 19 -19 0 -30 -21 -54 -28 -33 -2 7 -10 12 -17 12
-14 0 -29 45 -20 60 8 13 45 13 45 0z m-2150 -40 c0 -5 -5 -10 -11 -10 -5 0
-7 5 -4 10 3 6 8 10 11 10 2 0 4 -4 4 -10z m1921 -12 c-1 -5 -2 -29 -2 -55 -1
-27 -3 -40 -6 -30 -2 9 -9 17 -14 17 -5 0 -9 18 -9 41 0 31 4 40 16 37 8 -2
15 -6 15 -10z m-1843 -163 l-1 -90 -8 80 c-15 147 -15 160 -10 170 10 18 20
-68 19 -160z m-302 128 c-10 -10 -19 5 -10 18 6 11 8 11 12 0 2 -7 1 -15 -2
-18z m907 -12 c-4 -28 13 -27 22 2 6 20 8 20 12 3 3 -10 0 -23 -6 -29 -15 -15
-14 -30 2 -21 10 6 10 4 0 -7 -7 -7 -13 -21 -13 -31 0 -10 -5 -18 -11 -18 -6
0 -8 -9 -3 -22 3 -12 6 -47 6 -77 0 -41 -5 -58 -18 -68 -10 -7 -21 -13 -24
-13 -7 0 -4 114 6 238 4 49 10 72 17 69 7 -2 11 -14 10 -26z m-808 -12 c-8
-12 -35 -12 -35 0 0 11 22 20 33 14 4 -2 5 -9 2 -14z m-95 -15 c0 -8 -5 -12
-10 -9 -6 4 -8 11 -5 16 9 14 15 11 15 -7z m2405 -11 c-3 -15 -18 -38 -32 -51
-25 -23 -25 -45 0 -24 8 7 17 9 20 5 11 -10 8 -63 -3 -63 -5 0 -10 7 -10 15 0
24 -20 17 -21 -7 -1 -22 -1 -22 -9 2 -14 43 -11 87 5 94 8 3 15 14 15 24 0 22
8 32 28 32 10 0 12 -7 7 -27z m239 21 c14 -5 16 -41 16 -295 l0 -289 -47 19
c-36 14 -48 24 -49 40 -1 12 -13 38 -27 58 -21 29 -24 40 -16 56 15 27 3 77
-26 117 -14 19 -25 38 -25 42 0 5 -9 29 -20 52 -16 36 -18 55 -12 102 l7 59
46 7 c26 5 60 15 75 23 31 16 53 19 78 9z m-470 -34 c-5 -23 0 -38 21 -65 23
-31 32 -36 63 -33 29 2 37 7 37 22 0 30 22 30 29 0 4 -15 11 -62 16 -103 5
-42 12 -85 15 -96 5 -16 -2 -23 -35 -38 -56 -24 -67 -13 -30 29 22 26 30 45
30 73 0 43 -21 67 -83 95 -41 19 -57 16 -38 -7 9 -11 8 -17 -3 -27 -23 -19
-37 -2 -36 43 0 23 -2 57 -6 74 -7 36 0 63 15 63 6 0 8 -13 5 -30z m176 4 c0
-8 -4 -12 -10 -9 -5 3 -10 10 -10 16 0 5 5 9 10 9 6 0 10 -7 10 -16z m-2267
-6 c12 1 17 -7 17 -24 0 -18 10 -31 34 -45 22 -12 33 -26 30 -34 -8 -20 -85
-55 -122 -55 l-33 0 2 86 1 86 27 -8 c14 -4 34 -6 44 -6z m599 -10 c-7 -7 -12
-8 -12 -2 0 14 12 26 19 19 2 -3 -1 -11 -7 -17z m1564 -13 c-7 -18 5 -20 23
-2 10 10 12 7 9 -13 -2 -20 -8 -24 -28 -22 -33 5 -34 7 -20 31 12 24 25 28 16
6z m-2029 -37 c-3 -8 -6 -5 -6 6 -1 11 2 17 5 13 3 -3 4 -12 1 -19z m1921 -21
c2 -27 -1 -37 -11 -37 -11 0 -13 7 -9 22 4 17 2 20 -11 15 -20 -7 -21 -3 -6
24 15 30 34 18 37 -24z m-1918 -66 c0 -58 -1 -60 -25 -57 -14 1 -27 5 -31 8
-3 3 -16 1 -30 -6 -18 -8 -24 -18 -22 -35 2 -13 -3 -26 -9 -28 -9 -3 -13 6
-13 27 0 35 -24 38 -26 4 -3 -35 -6 -39 -12 -16 -7 23 -27 27 -27 5 0 -6 -4
-15 -8 -19 -4 -4 -7 8 -7 27 0 42 15 59 52 59 33 0 116 48 124 72 3 10 12 18
20 18 10 0 14 -14 14 -59z m810 43 c0 -8 -4 -12 -10 -9 -5 3 -10 10 -10 16 0
5 5 9 10 9 6 0 10 -7 10 -16z m-311 -21 c1 10 6 17 12 15 6 -2 10 -7 10 -11
-1 -4 -1 -32 -1 -62 0 -34 -4 -55 -11 -55 -7 0 -10 12 -7 30 3 17 1 30 -3 30
-14 0 -31 41 -24 58 6 15 8 15 15 -3 8 -18 9 -18 9 -2z m317 -231 c-8 -183
-25 -190 -26 -11 0 80 3 168 7 195 l7 49 9 -55 c5 -30 6 -110 3 -178z m1133
106 c1 -13 -7 -18 -24 -18 -16 0 -25 6 -25 15 0 8 -9 15 -20 15 -16 0 -20 7
-20 30 0 36 6 37 31 8 18 -23 18 -23 19 -2 0 36 14 37 26 2 7 -18 13 -41 13
-50z m117 55 c7 -26 -4 -54 -23 -60 -17 -6 -23 24 -12 57 13 37 26 38 35 3z
m114 -7 c0 -29 -3 -33 -20 -29 -20 5 -29 33 -10 33 6 0 10 7 10 15 0 8 5 15
10 15 6 0 10 -15 10 -34z m-170 14 c0 -5 -4 -10 -10 -10 -5 0 -10 5 -10 10 0
6 5 10 10 10 6 0 10 -4 10 -10z m-12 -49 c3 -8 -1 -12 -9 -9 -7 2 -15 10 -17
17 -3 8 1 12 9 9 7 -2 15 -10 17 -17z m-1411 -28 l-2 -38 60 -5 c69 -6 61 -21
-14 -26 -79 -5 -99 19 -68 84 16 33 27 27 24 -15z m-989 2 l42 -18 0 -78 c0
-43 -5 -81 -10 -84 -6 -3 -10 1 -10 9 0 9 -4 16 -10 16 -5 0 -10 10 -10 21 0
16 -5 20 -20 16 -30 -8 -24 12 8 24 15 6 22 13 15 16 -7 2 -22 -1 -33 -7 -27
-15 -41 -3 -17 14 23 18 22 29 -2 16 -27 -14 -34 -13 -27 5 4 12 0 14 -22 9
l-27 -7 25 22 25 22 -29 -6 c-25 -5 -28 -4 -17 9 11 13 56 26 71 21 3 -1 24
-10 48 -20z m1260 -117 c-2 -95 -6 -133 -16 -136 -9 -3 -11 13 -7 70 18 240
27 264 23 66z m-343 113 c3 -5 1 -12 -5 -16 -5 -3 -10 1 -10 9 0 18 6 21 15 7z
m145 5 c0 -3 -4 -8 -10 -11 -5 -3 -10 -1 -10 4 0 6 5 11 10 11 6 0 10 -2 10
-4z m1560 -3 c0 -10 -32 -43 -42 -43 -14 0 -9 22 10 36 19 15 32 18 32 7z
m-272 -55 c-3 -7 -11 -13 -18 -13 -7 0 -15 6 -17 13 -3 7 4 12 17 12 13 0 20
-5 18 -12z m69 0 c31 -11 45 -28 23 -28 -13 0 -70 29 -70 35 0 8 11 6 47 -7z
m-1800 -21 c16 -14 20 -24 13 -32 -7 -8 -2 -18 15 -33 14 -12 25 -26 25 -30 0
-12 -37 -28 -88 -40 -40 -10 -44 -9 -52 13 -5 13 -14 26 -21 31 -9 5 -11 -3
-6 -32 l6 -39 -21 28 c-15 21 -23 25 -29 16 -6 -10 -11 -10 -22 0 -10 8 -17 9
-22 1 -3 -5 -15 -10 -26 -10 -16 0 -19 -5 -14 -20 8 -25 -10 -26 -24 -2 -10
16 -12 16 -25 0 -7 -10 -20 -18 -28 -18 -20 0 -42 26 -33 40 7 11 79 45 157
74 25 10 58 31 73 46 33 34 88 37 122 7z m1953 -13 c0 -8 -5 -14 -11 -14 -6 0
-8 -8 -4 -19 6 -20 -18 -46 -35 -36 -13 8 -13 35 0 35 6 0 10 11 10 24 0 23
17 38 33 29 4 -2 7 -11 7 -19z m84 19 c4 -5 12 -8 17 -8 10 0 11 -12 3 -37
-12 -40 -74 -29 -74 13 0 24 9 24 27 2 13 -16 14 -16 8 10 -5 26 3 35 19 20z
m-2494 -41 c0 -11 -8 -17 -25 -17 -29 0 -33 19 -8 34 21 11 33 5 33 -17z m958
-27 c0 -37 -4 -55 -12 -52 -6 2 -11 9 -10 15 1 7 2 30 3 52 2 61 19 48 19 -15z
m185 -72 c5 -60 3 -71 -9 -66 -10 4 -14 24 -14 81 0 94 15 84 23 -15z m-233
57 c8 -5 12 -11 9 -14 -7 -8 -49 5 -49 15 0 12 21 11 40 -1z m-345 -20 c3 -5
-1 -10 -9 -10 -9 0 -16 5 -16 10 0 6 4 10 9 10 6 0 13 -4 16 -10z m1946 -6
c22 4 31 1 39 -14 17 -32 12 -45 -11 -24 -13 12 -36 19 -64 19 -47 0 -67 11
-45 25 8 5 22 4 33 -2 11 -5 32 -7 48 -4z m-2781 2 c0 -3 -4 -8 -10 -11 -5 -3
-10 -1 -10 4 0 6 5 11 10 11 6 0 10 -2 10 -4z m2690 -51 c0 -8 -4 -15 -10 -15
-5 0 -10 7 -10 15 0 8 5 15 10 15 6 0 10 -7 10 -15z m-2680 -15 c12 -12 18
-25 15 -30 -9 -14 -45 12 -45 32 0 23 5 23 30 -2z m525 10 c3 -5 1 -10 -4 -10
-6 0 -11 5 -11 10 0 6 2 10 4 10 3 0 8 -4 11 -10z m2271 -13 c11 -11 -7 -44
-31 -57 -28 -15 -50 -4 -22 11 24 14 22 32 -3 24 -19 -6 -29 13 -14 28 7 7 62
2 70 -6z m-2546 -17 c0 -5 -2 -10 -4 -10 -3 0 -8 5 -11 10 -3 6 -1 10 4 10 6
0 11 -4 11 -10z m-180 -21 c0 -11 -4 -17 -10 -14 -5 3 -10 13 -10 21 0 8 5 14
10 14 6 0 10 -9 10 -21z m177 -21 c-3 -8 -6 -5 -6 6 -1 11 2 17 5 13 3 -3 4
-12 1 -19z m2440 -25 c9 -26 23 -33 65 -33 27 0 41 6 50 20 18 28 28 25 28 -7
0 -14 7 -35 17 -45 9 -10 13 -21 10 -24 -11 -11 -57 6 -57 21 0 11 -7 14 -23
10 -12 -3 -36 1 -52 9 -17 9 -36 16 -42 16 -7 0 -13 4 -13 9 0 5 -3 16 -6 25
-3 9 -1 16 5 16 7 0 15 -8 18 -17z m235 -17 c15 4 19 2 16 -7 -5 -16 -32 -23
-54 -15 -12 5 -12 9 -2 26 11 17 14 18 16 5 3 -11 10 -14 24 -9z m-162 4 c0
-5 -4 -10 -10 -10 -5 0 -10 5 -10 10 0 6 5 10 10 10 6 0 10 -4 10 -10z m-2736
-27 c9 4 25 -5 38 -22 13 -15 31 -30 40 -33 12 -5 16 -18 15 -52 -2 -45 -6
-53 -21 -39 -7 7 -31 12 -81 16 -16 2 -31 7 -33 12 -4 15 32 18 73 6 32 -8 36
-8 33 7 -2 13 -16 18 -61 20 l-57 3 0 43 c0 48 7 61 26 45 8 -6 20 -9 28 -6z
m96 -20 c0 -25 0 -26 -20 -8 -11 10 -20 22 -20 27 0 4 9 8 20 8 15 0 20 -7 20
-27z m129 -10 c0 -25 -1 -25 -8 -8 -5 11 -7 23 -4 28 8 14 13 7 12 -20z m78
-35 c-3 -8 -6 -5 -6 6 -1 11 2 17 5 13 3 -3 4 -12 1 -19z m50 -15 c-3 -10 -5
-4 -5 12 0 17 2 24 5 18 2 -7 2 -21 0 -30z m-83 -68 c-9 -37 -24 -20 -24 28 0
40 1 41 15 20 10 -14 13 -32 9 -48z m46 49 c0 -9 7 -14 18 -12 9 2 21 -5 27
-17 6 -11 20 -21 32 -23 20 -3 22 -10 25 -74 2 -49 7 -73 17 -76 10 -3 11 3 6
27 -6 28 -4 32 11 29 15 -3 17 4 15 48 -1 29 2 55 7 58 5 3 7 -15 4 -44 -4
-41 -2 -50 12 -50 13 0 16 -12 16 -75 0 -58 3 -75 14 -75 11 0 14 13 11 58 -3
43 -2 49 4 22 l7 -35 16 35 c15 32 17 33 23 13 4 -11 15 -23 26 -26 10 -3 22
-13 26 -24 3 -10 14 -28 24 -41 9 -12 20 -40 24 -62 4 -22 11 -42 16 -46 21
-13 8 -34 -22 -34 -31 0 -85 42 -202 155 -23 22 -77 71 -120 109 -52 47 -74
73 -67 80 5 5 10 29 10 53 0 24 5 43 10 43 6 0 10 -7 10 -16z m120 -4 c0 -5
-4 -10 -10 -10 -5 0 -10 5 -10 10 0 6 5 10 10 10 6 0 10 -4 10 -10z m-223 -32
c-3 -8 -6 -5 -6 6 -1 11 2 17 5 13 3 -3 4 -12 1 -19z m2568 -18 c3 -5 -1 -10
-10 -10 -9 0 -13 5 -10 10 3 6 8 10 10 10 2 0 7 -4 10 -10z m-2248 -92 c-3 -8
-6 -5 -6 6 -1 11 2 17 5 13 3 -3 4 -12 1 -19z m2190 -24 c-3 -3 -12 -4 -19 -1
-8 3 -5 6 6 6 11 1 17 -2 13 -5z m143 -24 c22 -14 10 -17 -40 -12 -35 4 -41 7
-25 13 27 11 47 10 65 -1z m-2020 -104 c0 -3 -4 -8 -10 -11 -5 -3 -10 -1 -10
4 0 6 5 11 10 11 6 0 10 -2 10 -4z m-59 -97 l-9 -34 -1 46 c-1 25 2 49 7 53
12 12 14 -29 3 -65z m49 46 c0 -8 -4 -15 -10 -15 -5 0 -10 7 -10 15 0 8 5 15
10 15 6 0 10 -7 10 -15z m-100 1 c0 -11 -19 -15 -25 -6 -3 5 1 10 9 10 9 0 16
-2 16 -4z m140 -15 c0 -6 -4 -13 -10 -16 -5 -3 -10 1 -10 9 0 9 5 16 10 16 6
0 10 -4 10 -9z m-128 -41 c-6 -16 -11 -20 -16 -11 -4 6 -2 19 5 27 16 20 21
12 11 -16z m168 10 c0 -5 -4 -10 -10 -10 -5 0 -10 5 -10 10 0 6 5 10 10 10 6
0 10 -4 10 -10z m-86 -16 c4 -10 1 -14 -6 -12 -15 5 -23 28 -10 28 5 0 13 -7
16 -16z"/>
<g>
<path d="M1980 3351 c0 -6 5 -13 10 -16 6 -3 10 1 10 9 0 9 -4 16 -10 16 -5 0
-10 -4 -10 -9z"/>
</g>
<g>
<path d="M1950 3316 c0 -9 7 -16 16 -16 9 0 14 5 12 12 -6 18 -28 21 -28 4z"/>
</g>
<g>
<path d="M2265 3300 c-3 -5 -1 -10 4 -10 6 0 11 5 11 10 0 6 -2 10 -4 10 -3 0
-8 -4 -11 -10z"/>
</g>
<g>
<path d="M1740 2910 c0 -5 5 -10 10 -10 6 0 10 5 10 10 0 6 -4 10 -10 10 -5 0
-10 -4 -10 -10z"/>
</g>
<g>
<path d="M1171 2478 c-32 -11 -18 -25 34 -33 66 -9 104 -28 159 -80 33 -31 53
-42 59 -36 16 16 -69 104 -125 131 -52 25 -93 31 -127 18z"/>
</g>
<g>
<path d="M1425 2460 c3 -5 8 -10 11 -10 2 0 4 5 4 10 0 6 -5 10 -11 10 -5 0
-7 -4 -4 -10z"/>
</g>
<g>
<path d="M1445 2400 c-3 -5 -1 -10 4 -10 6 0 11 5 11 10 0 6 -2 10 -4 10 -3 0
-8 -4 -11 -10z"/>
</g>
<g>
<path d="M811 2374 c0 -11 3 -14 6 -6 3 7 2 16 -1 19 -3 4 -6 -2 -5 -13z"/>
</g>
<g>
<path d="M1581 2373 c-1 -27 11 -30 29 -8 10 12 16 13 29 3 14 -12 14 -11 2 4
-10 13 -18 15 -31 8 -13 -7 -20 -6 -23 3 -3 6 -6 2 -6 -10z"/>
</g>
<g>
<path d="M1585 2321 c-3 -5 -1 -12 4 -16 6 -3 8 -12 4 -20 -4 -11 3 -15 26
-15 17 0 31 5 31 10 0 6 -6 10 -14 10 -7 0 -16 9 -19 20 -5 21 -22 27 -32 11z"/>
</g>
<g>
<path d="M940 2245 c-8 -10 -10 -30 -6 -57 7 -52 -5 -144 -19 -140 -6 2 -9 11
-7 20 2 15 1 15 -8 2 -7 -11 -5 -19 10 -32 23 -19 26 -38 6 -38 -19 0 -28 -57
-22 -142 2 -40 0 -71 -6 -74 -5 -4 -8 -18 -5 -33 3 -14 -1 -58 -9 -96 -27
-126 -27 -132 -9 -139 24 -9 65 20 65 44 0 11 -4 20 -9 20 -11 0 -6 87 14 240
15 115 31 440 22 440 -2 0 -10 -7 -17 -15z"/>
</g>
<g>
<path d="M1510 2251 c0 -5 7 -15 17 -22 15 -13 15 -12 4 9 -12 23 -21 28 -21
13z"/>
</g>
<g>
<path d="M861 2124 c0 -11 3 -14 6 -6 3 7 2 16 -1 19 -3 4 -6 -2 -5 -13z"/>
</g>
<g>
<path d="M851 2044 c0 -11 3 -14 6 -6 3 7 2 16 -1 19 -3 4 -6 -2 -5 -13z"/>
</g>
<g>
<path d="M851 1994 c0 -11 3 -14 6 -6 3 7 2 16 -1 19 -3 4 -6 -2 -5 -13z"/>
</g>
<g>
<path d="M842 1690 c0 -14 2 -19 5 -12 2 6 2 18 0 25 -3 6 -5 1 -5 -13z"/>
</g>
<g>
<path d="M817 1664 c-4 -4 -7 -14 -7 -23 0 -11 3 -12 11 -4 6 6 10 16 7 23 -2
6 -7 8 -11 4z"/>
</g>
<g>
<path d="M821 1514 c0 -11 3 -14 6 -6 3 7 2 16 -1 19 -3 4 -6 -2 -5 -13z"/>
</g>
<g>
<path d="M937 1513 c-4 -3 -7 -11 -7 -17 0 -6 5 -5 12 2 6 6 9 14 7 17 -3 3
-9 2 -12 -2z"/>
</g>
<g>
<path d="M910 1250 c-12 -7 -12 -12 -3 -21 15 -15 26 -7 21 15 -2 11 -7 13
-18 6z"/>
</g>
<g>
<path d="M597 2893 c-11 -10 -8 -43 3 -43 6 0 10 4 10 9 0 5 3 16 6 25 6 16
-7 22 -19 9z"/>
</g>
<g>
<path d="M1917 2186 c-4 -10 0 -12 14 -9 22 6 26 23 5 23 -8 0 -16 -6 -19 -14z"/>
</g>
<g>
<path d="M1970 2185 c0 -8 0 -17 0 -20 0 -3 3 -5 8 -4 4 1 6 5 5 10 -2 5 2 9
7 9 6 0 10 5 10 10 0 6 -7 10 -15 10 -8 0 -15 -7 -15 -15z"/>
</g>
<g>
<path d="M1888 2133 c-10 -2 -18 -8 -18 -13 0 -10 38 -1 46 11 5 9 1 10 -28 2z"/>
</g>
<g>
<path d="M1710 2120 c19 -13 30 -13 30 0 0 6 -10 10 -22 10 -19 0 -20 -2 -8
-10z"/>
</g>
<g>
<path d="M1780 2120 c0 -5 9 -10 20 -10 11 0 20 5 20 10 0 6 -9 10 -20 10 -11
0 -20 -4 -20 -10z"/>
</g>
<g>
<path d="M1060 2835 c-11 -13 -15 -13 -22 -3 -6 10 -13 8 -28 -11 -11 -13 -20
-27 -20 -32 0 -15 17 -10 24 7 3 9 12 14 20 11 15 -6 56 19 56 34 0 14 -16 11
-30 -6z"/>
</g>
<g>
<path d="M864 2786 c-10 -8 -16 -18 -12 -22 4 -4 14 -1 23 6 8 7 15 8 15 2 0
-18 43 -22 62 -5 21 18 13 40 -8 22 -10 -8 -14 -8 -14 0 0 16 -42 14 -66 -3z"/>
</g>
<g>
<path d="M2073 2366 c-6 -8 -9 -17 -6 -20 7 -7 33 13 33 25 0 13 -13 10 -27
-5z"/>
</g>
<g>
<path d="M2343 2443 c-15 -5 -18 -33 -4 -33 8 0 25 30 19 35 -2 1 -9 0 -15 -2z"/>
</g>
<g>
<path d="M2300 2366 c0 -8 5 -18 10 -21 6 -3 10 1 10 9 0 8 -4 18 -10 21 -5 3
-10 -1 -10 -9z"/>
</g>
<g>
<path d="M2280 2325 c0 -8 5 -15 10 -15 6 0 10 7 10 15 0 8 -4 15 -10 15 -5 0
-10 -7 -10 -15z"/>
</g>
<g>
<path d="M2250 2285 c-10 -13 -9 -15 9 -15 12 0 21 6 21 15 0 8 -4 15 -9 15
-5 0 -14 -7 -21 -15z"/>
</g>
<g>
<path d="M2230 2224 c0 -8 5 -12 10 -9 6 3 10 10 10 16 0 5 -4 9 -10 9 -5 0
-10 -7 -10 -16z"/>
</g>
<g>
<path d="M2177 2185 c-15 -14 -27 -34 -26 -43 0 -10 3 -12 6 -4 2 6 9 12 14
12 14 0 49 33 49 47 0 19 -12 16 -43 -12z"/>
</g>
<g>
<path d="M2095 2140 c-3 -5 -2 -10 4 -10 5 0 13 5 16 10 3 6 2 10 -4 10 -5 0
-13 -4 -16 -10z"/>
</g>
<g>
<path d="M2210 2125 c0 -8 5 -15 10 -15 6 0 10 7 10 15 0 8 -4 15 -10 15 -5 0
-10 -7 -10 -15z"/>
</g>
<g>
<path d="M2057 2113 c-5 -4 -14 -8 -20 -8 -7 0 -13 -10 -15 -22 -2 -13 1 -23
7 -23 6 0 11 5 11 12 0 9 3 9 11 1 7 -7 -6 -34 -45 -93 -77 -113 -98 -183
-104 -344 -3 -104 -8 -135 -23 -160 -23 -38 -24 -88 -3 -170 20 -79 36 -115
73 -157 17 -19 31 -41 31 -50 0 -24 19 -36 67 -44 42 -7 80 -36 69 -54 -6 -10
34 -44 42 -36 7 7 -26 70 -47 89 -11 10 -38 20 -60 23 -40 6 -41 6 -47 54 -4
27 -10 49 -15 49 -5 0 -9 -4 -9 -10 0 -21 -16 -9 -36 28 -12 20 -31 71 -42
113 -25 89 -20 147 11 158 19 7 20 15 18 145 -1 81 2 152 9 174 22 72 20 69
31 50 12 -21 26 -23 32 -5 2 6 3 4 2 -5 -2 -10 1 -21 6 -24 5 -3 9 11 9 30 0
26 -5 36 -20 41 -11 3 -20 11 -20 16 0 33 117 189 136 182 8 -3 14 0 14 7 0 6
-4 9 -9 6 -5 -4 -12 0 -15 6 -3 10 -9 8 -20 -5 -14 -18 -15 -17 -18 8 -2 15
-7 23 -11 18z"/>
</g>
<g>
<path d="M1373 2103 c-7 -2 -13 -12 -13 -20 0 -9 3 -13 7 -10 3 4 12 2 19 -4
20 -16 36 -2 24 22 -11 19 -16 21 -37 12z"/>
</g>
<g>
<path d="M2180 2081 c0 -17 5 -31 10 -31 6 0 10 11 10 24 0 14 -4 28 -10 31
-6 4 -10 -7 -10 -24z"/>
</g>
<g>
<path d="M1985 2067 c-4 -10 -5 -21 -1 -24 10 -10 18 4 13 24 -4 17 -4 17 -12
0z"/>
</g>
<g>
<path d="M1293 2054 c-7 -18 4 -31 32 -36 14 -2 21 3 23 20 2 12 -1 22 -7 22
-6 0 -11 -4 -11 -10 0 -5 -5 -10 -11 -10 -6 0 -9 7 -5 15 3 8 1 15 -5 15 -5 0
-12 -7 -16 -16z"/>
</g>
<g>
<path d="M1525 2060 c-3 -5 -2 -10 4 -10 5 0 13 5 16 10 3 6 2 10 -4 10 -5 0
-13 -4 -16 -10z"/>
</g>
<g>
<path d="M1565 2060 c-3 -5 -2 -10 4 -10 5 0 13 5 16 10 3 6 2 10 -4 10 -5 0
-13 -4 -16 -10z"/>
</g>
<g>
<path d="M1413 2045 c-3 -9 -3 -34 1 -55 5 -32 3 -40 -9 -40 -8 0 -15 -5 -15
-11 0 -6 6 -9 14 -6 17 7 22 -4 25 -59 2 -30 -2 -43 -13 -47 -9 -4 -16 -16
-16 -27 0 -11 -4 -20 -10 -20 -5 0 -10 -9 -10 -20 0 -11 5 -20 10 -20 6 0 10
9 10 20 0 11 5 20 10 20 6 0 10 -40 10 -100 0 -161 16 -115 24 68 9 227 -5
363 -31 297z"/>
</g>
<g>
<path d="M2134 2035 c-23 -25 -37 -55 -26 -55 13 1 42 27 42 39 0 6 5 11 10
11 6 0 10 7 10 15 0 20 -11 17 -36 -10z"/>
</g>
<g>
<path d="M2211 2046 c-7 -8 -8 -17 -3 -20 6 -3 12 3 15 14 6 24 4 25 -12 6z"/>
</g>
<g>
<path d="M1460 2034 c0 -10 6 -14 15 -10 8 3 15 1 15 -4 0 -6 5 -10 10 -10 6
0 10 9 10 20 0 15 -7 20 -25 20 -16 0 -25 -6 -25 -16z"/>
</g>
<g>
<path d="M1885 2019 c-4 -11 -4 -23 0 -27 7 -7 25 17 25 36 0 20 -18 14 -25
-9z"/>
</g>
<g>
<path d="M1923 2025 c-8 -22 6 -33 17 -15 13 20 12 30 0 30 -6 0 -13 -7 -17
-15z"/>
</g>
<g>
<path d="M1525 2019 c-4 -6 -5 -13 -2 -16 7 -7 27 6 27 18 0 12 -17 12 -25 -2z"/>
</g>
<g>
<path d="M1570 2020 c0 -5 5 -10 10 -10 6 0 10 5 10 10 0 6 -4 10 -10 10 -5 0
-10 -4 -10 -10z"/>
</g>
<g>
<path d="M1607 2023 c-10 -9 -9 -23 2 -23 5 0 11 7 15 15 5 15 -5 20 -17 8z"/>
</g>
<g>
<path d="M1640 2015 c0 -6 10 -11 23 -10 12 1 25 -3 30 -9 5 -8 10 -6 17 4 16
24 12 27 -30 27 -24 0 -40 -5 -40 -12z"/>
</g>
<g>
<path d="M1767 2023 c-4 -3 -7 -15 -7 -27 0 -20 0 -20 15 0 8 10 15 22 15 27
0 9 -14 9 -23 0z"/>
</g>
<g>
<path d="M1846 2014 c-9 -22 3 -32 14 -14 12 19 12 30 1 30 -5 0 -12 -7 -15
-16z"/>
</g>
<g>
<path d="M1355 2009 c-10 -15 3 -25 16 -12 7 7 7 13 1 17 -6 3 -14 1 -17 -5z"/>
</g>
<g>
<path d="M1727 2013 c-10 -9 -9 -23 2 -23 5 0 11 7 15 15 5 15 -5 20 -17 8z"/>
</g>
<g>
<path d="M1807 2014 c-4 -4 -7 -14 -7 -23 0 -11 3 -12 11 -4 6 6 10 16 7 23
-2 6 -7 8 -11 4z"/>
</g>
<g>
<path d="M1980 2005 c-18 -21 -3 -32 16 -13 10 9 12 18 6 22 -5 3 -15 -1 -22
-9z"/>
</g>
<g>
<path d="M1310 1960 c0 -19 11 -26 23 -14 8 8 -3 34 -14 34 -5 0 -9 -9 -9 -20z"/>
</g>
<g>
<path d="M1560 1968 c0 -4 0 -11 0 -15 0 -16 35 -7 38 9 2 12 -3 16 -17 15
-12 -1 -21 -5 -21 -9z"/>
</g>
<g>
<path d="M2040 1965 c0 -9 10 -30 22 -48 13 -18 24 -34 26 -37 2 -2 7 2 12 10
10 16 -3 46 -31 73 -22 21 -29 22 -29 2z"/>
</g>
<g>
<path d="M2197 1974 c-4 -4 -7 -14 -7 -23 0 -11 3 -12 11 -4 6 6 10 16 7 23
-2 6 -7 8 -11 4z"/>
</g>
<g>
<path d="M1940 1960 c0 -5 5 -10 10 -10 6 0 10 5 10 10 0 6 -4 10 -10 10 -5 0
-10 -4 -10 -10z"/>
</g>
<g>
<path d="M2155 1959 c-4 -6 -5 -13 -2 -16 7 -7 27 6 27 18 0 12 -17 12 -25 -2z"/>
</g>
<g>
<path d="M1487 1954 c-11 -11 -8 -52 4 -59 17 -11 21 0 12 35 -5 17 -12 28
-16 24z"/>
</g>
<g>
<path d="M1610 1946 c0 -8 5 -18 10 -21 6 -3 10 3 10 14 0 12 -4 21 -10 21 -5
0 -10 -6 -10 -14z"/>
</g>
<g>
<path d="M1520 1905 c0 -19 5 -35 10 -35 6 0 10 -9 10 -20 0 -11 5 -20 10 -20
6 0 10 16 10 35 0 19 -4 35 -10 35 -5 0 -10 9 -10 20 0 11 -4 20 -10 20 -5 0
-10 -16 -10 -35z"/>
</g>
<g>
<path d="M1660 1921 c0 -12 5 -21 10 -21 6 0 10 6 10 14 0 8 -4 18 -10 21 -5
3 -10 -3 -10 -14z"/>
</g>
<g>
<path d="M1366 1921 c-4 -7 -5 -15 -2 -18 9 -9 19 4 14 18 -4 11 -6 11 -12 0z"/>
</g>
<g>
<path d="M1750 1908 c0 -16 5 -28 10 -28 13 0 13 20 0 40 -8 12 -10 9 -10 -12z"/>
</g>
<g>
<path d="M1710 1901 c0 -12 5 -21 10 -21 6 0 10 6 10 14 0 8 -4 18 -10 21 -5
3 -10 -3 -10 -14z"/>
</g>
<g>
<path d="M1790 1908 c0 -19 18 -43 25 -36 9 9 -4 48 -16 48 -5 0 -9 -6 -9 -12z"/>
</g>
<g>
<path d="M1885 1909 c-10 -15 3 -25 16 -12 7 7 7 13 1 17 -6 3 -14 1 -17 -5z"/>
</g>
<g>
<path d="M2166 1903 c-4 -9 -2 -21 4 -27 7 -7 10 -2 10 17 0 31 -5 34 -14 10z"/>
</g>
<g>
<path d="M1842 1901 c4 -13 18 -16 19 -4 0 4 -5 9 -11 12 -7 2 -11 -2 -8 -8z"/>
</g>
<g>
<path d="M2130 1884 c0 -14 4 -23 10 -19 6 3 10 15 10 26 0 10 -4 19 -10 19
-5 0 -10 -12 -10 -26z"/>
</g>
<g>
<path d="M1297 1884 c-12 -13 -7 -45 9 -61 12 -13 18 -13 24 -4 4 7 11 12 16
11 5 0 10 10 12 22 2 22 2 22 -12 5 -14 -18 -15 -18 -18 4 -3 23 -19 35 -31
23z"/>
</g>
<g>
<path d="M1592 1858 c-7 -7 -12 -20 -12 -29 0 -18 44 -52 54 -42 10 10 7 53
-4 53 -5 0 -10 -7 -10 -15 0 -8 -5 -15 -11 -15 -7 0 -9 11 -5 30 6 34 5 35
-12 18z"/>
</g>
<g>
<path d="M1470 1817 c0 -15 4 -27 10 -27 5 0 9 9 7 20 -5 31 -17 36 -17 7z"/>
</g>
<g>
<path d="M2034 1813 c1 -17 6 -27 14 -25 6 1 12 -4 12 -11 0 -7 9 -20 20 -30
19 -16 20 -16 20 3 0 11 -4 20 -9 20 -5 0 -12 9 -16 20 -3 11 -12 19 -18 17
-7 -1 -11 6 -9 16 2 9 -1 17 -6 17 -5 0 -9 -12 -8 -27z"/>
</g>
<g>
<path d="M1662 1808 c2 -12 8 -23 14 -25 7 -2 10 6 7 22 -6 30 -26 34 -21 3z"/>
</g>
<g>
<path d="M1756 1822 c-8 -13 3 -42 15 -42 11 0 11 21 0 39 -5 8 -11 9 -15 3z"/>
</g>
<g>
<path d="M1800 1811 c0 -12 5 -21 10 -21 6 0 10 6 10 14 0 8 -4 18 -10 21 -5
3 -10 -3 -10 -14z"/>
</g>
<g>
<path d="M1840 1814 c0 -8 5 -12 10 -9 6 3 10 10 10 16 0 5 -4 9 -10 9 -5 0
-10 -7 -10 -16z"/>
</g>
<g>
<path d="M1895 1820 c-3 -5 -1 -10 4 -10 6 0 11 5 11 10 0 6 -2 10 -4 10 -3 0
-8 -4 -11 -10z"/>
</g>
<g>
<path d="M2090 1809 c0 -11 4 -18 10 -14 5 3 7 12 3 20 -7 21 -13 19 -13 -6z"/>
</g>
<g>
<path d="M2120 1793 c0 -43 5 -41 13 5 4 18 2 32 -3 32 -6 0 -10 -16 -10 -37z"/>
</g>
<g>
<path d="M2157 1823 c-11 -10 -8 -43 3 -43 6 0 10 11 10 25 0 26 -2 29 -13 18z"/>
</g>
<g>
<path d="M1710 1800 c0 -19 11 -26 23 -14 8 8 -3 34 -14 34 -5 0 -9 -9 -9 -20z"/>
</g>
<g>
<path d="M1311 1738 c0 -28 2 -30 9 -13 12 28 12 45 0 45 -5 0 -10 -15 -9 -32z"/>
</g>
<g>
<path d="M1341 1733 c0 -25 1 -26 9 -8 12 27 12 35 0 35 -5 0 -10 -12 -9 -27z"/>
</g>
<g>
<path d="M1771 1725 c6 -29 49 -33 49 -6 0 12 -4 21 -10 21 -5 0 -10 -5 -10
-11 0 -8 -6 -7 -16 2 -14 12 -16 11 -13 -6z"/>
</g>
<g>
<path d="M1834 1729 c-3 -6 -1 -16 5 -22 8 -8 11 -5 11 11 0 24 -5 28 -16 11z"/>
</g>
<g>
<path d="M1870 1724 c0 -8 5 -12 10 -9 6 3 10 10 10 16 0 5 -4 9 -10 9 -5 0
-10 -7 -10 -16z"/>
</g>
<g>
<path d="M1957 1727 c-3 -7 4 -24 14 -38 15 -20 19 -21 19 -6 0 9 -4 17 -9 17
-5 0 -7 9 -4 20 6 22 -12 28 -20 7z"/>
</g>
<g>
<path d="M1733 1713 c-7 -3 -13 -14 -13 -25 0 -14 5 -18 16 -14 9 3 18 6 20 6
7 0 4 29 -3 33 -5 2 -14 2 -20 0z"/>
</g>
<g>
<path d="M2010 1695 c0 -15 4 -24 10 -20 6 3 10 12 10 20 0 8 -4 17 -10 20 -6
4 -10 -5 -10 -20z"/>
</g>
<g>
<path d="M1657 1698 c-5 -18 3 -48 14 -48 5 0 9 14 9 30 0 30 -15 41 -23 18z"/>
</g>
<g>
<path d="M1336 1678 c-9 -34 -8 -37 13 -35 19 1 35 32 25 49 -10 16 -32 8 -38
-14z"/>
</g>
<g>
<path d="M1544 1685 c3 -21 16 -31 16 -12 0 9 -4 18 -9 21 -5 4 -8 -1 -7 -9z"/>
</g>
<g>
<path d="M1690 1676 c0 -14 5 -28 10 -31 6 -4 10 7 10 24 0 17 -4 31 -10 31
-5 0 -10 -11 -10 -24z"/>
</g>
<g>
<path d="M2110 1684 c0 -8 5 -12 10 -9 6 3 10 -1 10 -9 0 -9 5 -16 10 -16 6 0
10 10 10 23 0 16 -6 23 -20 24 -12 1 -20 -4 -20 -13z"/>
</g>
<g>
<path d="M1570 1673 c0 -23 15 -39 24 -25 3 5 -1 18 -9 28 -14 18 -14 18 -15
-3z"/>
</g>
<g>
<path d="M1606 1681 c-4 -7 -5 -15 -2 -18 9 -9 19 4 14 18 -4 11 -6 11 -12 0z"/>
</g>
<g>
<path d="M1785 1659 c-4 -6 -5 -12 -2 -15 2 -3 7 2 10 11 7 17 1 20 -8 4z"/>
</g>
<g>
<path d="M1867 1646 c-5 -15 -6 -31 -3 -34 8 -8 18 25 14 45 -3 13 -6 10 -11
-11z"/>
</g>
<g>
<path d="M2168 1664 c-5 -4 -8 -16 -8 -28 0 -14 3 -17 11 -9 6 6 9 19 7 28 -1
9 -6 13 -10 9z"/>
</g>
<g>
<path d="M1837 1653 c-4 -3 -7 -17 -7 -30 0 -12 -4 -23 -10 -23 -5 0 -10 7
-10 16 0 8 -4 13 -8 10 -12 -7 -14 -64 -2 -71 5 -3 10 3 10 14 0 13 5 19 14
15 9 -4 16 6 20 31 7 38 5 50 -7 38z"/>
</g>
<g>
<path d="M1958 1605 c-3 -14 -1 -25 3 -25 5 0 9 11 9 25 0 14 -2 25 -4 25 -2
0 -6 -11 -8 -25z"/>
</g>
<g>
<path d="M1990 1604 c0 -14 4 -23 10 -19 6 3 10 15 10 26 0 10 -4 19 -10 19
-5 0 -10 -12 -10 -26z"/>
</g>
<g>
<path d="M2022 1610 c0 -14 2 -19 5 -12 2 6 2 18 0 25 -3 6 -5 1 -5 -13z"/>
</g>
<g>
<path d="M1391 1585 c1 -40 1 -40 10 -10 5 18 5 33 -1 39 -7 7 -10 -4 -9 -29z"/>
</g>
<g>
<path d="M1547 1573 c-5 -46 -3 -62 8 -51 11 10 17 98 8 98 -6 0 -13 -21 -16
-47z"/>
</g>
<g>
<path d="M1590 1591 c0 -12 5 -21 10 -21 6 0 10 6 10 14 0 8 -4 18 -10 21 -5
3 -10 -3 -10 -14z"/>
</g>
<g>
<path d="M1640 1590 c0 -5 5 -10 11 -10 5 0 7 5 4 10 -3 6 -8 10 -11 10 -2 0
-4 -4 -4 -10z"/>
</g>
<g>
<path d="M1760 1564 c0 -21 4 -33 10 -29 6 3 10 19 10 36 0 16 -4 29 -10 29
-5 0 -10 -16 -10 -36z"/>
</g>
<g>
<path d="M2100 1575 c0 -21 31 -41 43 -28 10 10 -6 41 -24 46 -15 4 -19 0 -19
-18z"/>
</g>
<g>
<path d="M2160 1561 c0 -12 5 -21 10 -21 6 0 10 6 10 14 0 8 -4 18 -10 21 -5
3 -10 -3 -10 -14z"/>
</g>
<g>
<path d="M2190 1566 c0 -8 5 -18 10 -21 6 -3 10 3 10 14 0 12 -4 21 -10 21 -5
0 -10 -6 -10 -14z"/>
</g>
<g>
<path d="M2220 1569 c0 -5 5 -7 10 -4 6 3 10 8 10 11 0 2 -4 4 -10 4 -5 0 -10
-5 -10 -11z"/>
</g>
<g>
<path d="M1717 1563 c-11 -10 -8 -53 3 -53 6 0 10 14 10 30 0 31 -2 35 -13 23z"/>
</g>
<g>
<path d="M1412 1548 c-14 -14 -16 -48 -3 -48 5 0 12 8 14 18 3 9 5 -2 6 -24 1
-28 6 -44 17 -48 24 -9 24 -9 24 35 0 30 -6 47 -22 60 -25 22 -21 22 -36 7z"/>
</g>
<g>
<path d="M1641 1560 c-2 -3 -5 -18 -7 -35 -4 -23 -2 -27 6 -19 7 7 10 22 7 35
-2 13 -5 22 -6 19z"/>
</g>
<g>
<path d="M1678 1540 c-7 -24 -3 -38 8 -28 3 4 4 17 2 30 l-3 23 -7 -25z"/>
</g>
<g>
<path d="M1608 1544 c-5 -4 -8 -19 -8 -33 0 -18 3 -22 11 -14 6 6 9 21 7 33
-1 12 -6 18 -10 14z"/>
</g>
<g>
<path d="M1575 1527 c-4 -10 -5 -21 -1 -24 10 -10 18 4 13 24 -4 17 -4 17 -12
0z"/>
</g>
<g>
<path d="M2360 1529 c0 -5 5 -7 10 -4 6 3 10 8 10 11 0 2 -4 4 -10 4 -5 0 -10
-5 -10 -11z"/>
</g>
<g>
<path d="M1847 1512 c-9 -10 -13 -23 -8 -30 6 -10 12 -7 24 12 20 29 7 43 -16
18z"/>
</g>
<g>
<path d="M1962 1513 c4 -22 38 -30 38 -10 0 8 -7 18 -16 21 -23 9 -26 8 -22
-11z"/>
</g>
<g>
<path d="M1487 1503 c-11 -10 -8 -63 3 -63 6 0 10 16 10 35 0 36 -2 40 -13 28z"/>
</g>
<g>
<path d="M2021 1484 c0 -11 3 -14 6 -6 3 7 2 16 -1 19 -3 4 -6 -2 -5 -13z"/>
</g>
<g>
<path d="M2120 1483 c0 -17 44 -46 54 -36 2 3 0 16 -6 29 -8 18 -14 21 -20 12
-6 -10 -8 -10 -8 0 0 6 -4 12 -10 12 -5 0 -10 -8 -10 -17z"/>
</g>
<g>
<path d="M2190 1451 c0 -17 5 -31 10 -31 6 0 10 11 10 24 0 14 -4 28 -10 31
-6 4 -10 -7 -10 -24z"/>
</g>
<g>
<path d="M2230 1450 c0 -20 5 -30 14 -30 12 0 13 6 5 30 -6 17 -13 30 -15 30
-2 0 -4 -13 -4 -30z"/>
</g>
<g>
<path d="M2270 1456 c0 -18 35 -22 45 -6 3 6 2 10 -4 10 -5 0 -16 3 -25 6 -11
4 -16 1 -16 -10z"/>
</g>
<g>
<path d="M1767 1449 c-9 -6 -17 -18 -17 -27 0 -13 -2 -14 -9 -3 -6 9 -11 10
-15 2 -4 -6 -12 -8 -18 -5 -6 4 -8 -1 -6 -12 2 -11 11 -17 19 -15 8 2 22 4 32
5 9 0 17 4 17 9 0 5 7 4 15 -3 13 -11 15 -8 12 19 -5 39 -8 42 -30 30z"/>
</g>
<g>
<path d="M1810 1443 c0 -13 5 -23 10 -23 13 0 13 11 0 30 -8 12 -10 11 -10 -7z"/>
</g>
<g>
<path d="M1953 1430 c1 -11 5 -20 9 -20 4 0 8 9 8 20 0 11 -4 20 -9 20 -6 0
-9 -9 -8 -20z"/>
</g>
<g>
<path d="M1615 1427 c-4 -10 -5 -21 -1 -24 10 -10 18 4 13 24 -4 17 -4 17 -12
0z"/>
</g>
<g>
<path d="M1916 1423 c-4 -9 -2 -21 4 -27 7 -7 10 -7 10 1 0 6 3 18 6 27 3 9 2
16 -4 16 -5 0 -13 -8 -16 -17z"/>
</g>
<g>
<path d="M1990 1420 c0 -11 5 -20 10 -20 6 0 10 9 10 20 0 11 -4 20 -10 20 -5
0 -10 -9 -10 -20z"/>
</g>
<g>
<path d="M2030 1420 c0 -19 3 -21 12 -12 9 9 9 15 0 24 -9 9 -12 7 -12 -12z"/>
</g>
<g>
<path d="M1650 1410 c0 -5 5 -10 10 -10 6 0 10 5 10 10 0 6 -4 10 -10 10 -5 0
-10 -4 -10 -10z"/>
</g>
<g>
<path d="M1510 1400 c0 -5 5 -10 10 -10 6 0 10 5 10 10 0 6 -4 10 -10 10 -5 0
-10 -4 -10 -10z"/>
</g>
<g>
<path d="M2340 1390 c0 -5 5 -10 11 -10 5 0 7 5 4 10 -3 6 -8 10 -11 10 -2 0
-4 -4 -4 -10z"/>
</g>
<g>
<path d="M2190 1375 c0 -9 31 -34 43 -35 4 0 7 7 7 15 0 8 -4 15 -9 15 -5 0
-16 3 -25 6 -9 3 -16 3 -16 -1z"/>
</g>
<g>
<path d="M2250 1351 c0 -25 6 -27 13 -6 4 8 2 17 -3 20 -6 4 -10 -3 -10 -14z"/>
</g>
<g>
<path d="M2280 1354 c0 -8 5 -12 10 -9 6 4 8 11 5 16 -9 14 -15 11 -15 -7z"/>
</g>
<g>
<path d="M2315 1361 c-3 -5 -1 -12 5 -16 5 -3 10 1 10 9 0 18 -6 21 -15 7z"/>
</g>
<g>
<path d="M1913 1344 c-3 -8 -1 -20 6 -27 8 -8 11 -4 11 16 0 30 -7 35 -17 11z"/>
</g>
<g>
<path d="M1940 1334 c0 -19 4 -25 15 -20 8 3 15 1 15 -4 0 -6 5 -10 11 -10 19
0 4 43 -18 51 -20 7 -23 5 -23 -17z"/>
</g>
<g>
<path d="M1995 1338 c10 -31 25 -47 25 -26 0 24 -11 48 -22 48 -5 0 -6 -10 -3
-22z"/>
</g>
<g>
<path d="M1460 1320 c0 -11 5 -20 10 -20 6 0 10 9 10 20 0 11 -4 20 -10 20 -5
0 -10 -9 -10 -20z"/>
</g>
<g>
<path d="M1656 1332 c-4 -6 2 -28 13 -49 22 -42 26 -27 7 26 -8 22 -15 30 -20
23z"/>
</g>
<g>
<path d="M1747 1323 c-8 -13 2 -43 14 -43 10 0 10 8 0 34 -5 12 -10 16 -14 9z"/>
</g>
<g>
<path d="M1780 1318 c0 -18 18 -34 28 -24 3 4 -2 14 -11 23 -16 16 -17 16 -17
1z"/>
</g>
<g>
<path d="M1830 1315 c0 -8 5 -15 10 -15 6 0 10 7 10 15 0 8 -4 15 -10 15 -5 0
-10 -7 -10 -15z"/>
</g>
<g>
<path d="M1690 1312 c0 -5 6 -17 14 -28 19 -25 31 -12 14 15 -13 21 -28 28
-28 13z"/>
</g>
<g>
<path d="M2314 1285 c4 -38 16 -43 16 -7 0 18 -4 32 -9 32 -5 0 -8 -11 -7 -25z"/>
</g>
<g>
<path d="M2256 1274 c-9 -8 -16 -11 -16 -5 0 6 -9 11 -20 11 -22 0 -27 -15 -8
-26 11 -7 78 -7 85 0 6 6 -9 36 -17 36 -5 0 -16 -7 -24 -16z"/>
</g>
<g>
<path d="M2355 1280 c-3 -5 -1 -10 4 -10 6 0 11 5 11 10 0 6 -2 10 -4 10 -3 0
-8 -4 -11 -10z"/>
</g>
<g>
<path d="M2060 1254 c0 -14 4 -23 10 -19 6 3 10 15 10 26 0 10 -4 19 -10 19
-5 0 -10 -12 -10 -26z"/>
</g>
<g>
<path d="M2020 1251 c0 -11 5 -23 10 -26 6 -4 10 5 10 19 0 14 -4 26 -10 26
-5 0 -10 -9 -10 -19z"/>
</g>
<g>
<path d="M1940 1251 c0 -6 5 -13 10 -16 6 -3 10 1 10 9 0 9 -4 16 -10 16 -5 0
-10 -4 -10 -9z"/>
</g>
<g>
<path d="M1980 1239 c0 -11 5 -17 10 -14 6 3 10 13 10 21 0 8 -4 14 -10 14 -5
0 -10 -9 -10 -21z"/>
</g>
<g>
<path d="M1820 1225 c0 -8 5 -15 10 -15 6 0 10 7 10 15 0 8 -4 15 -10 15 -5 0
-10 -7 -10 -15z"/>
</g>
<g>
<path d="M1740 1213 c0 -12 5 -25 10 -28 13 -8 13 15 0 35 -8 12 -10 11 -10
-7z"/>
</g>
<g>
<path d="M1770 1210 c0 -11 5 -20 10 -20 6 0 10 9 10 20 0 11 -4 20 -10 20 -5
0 -10 -9 -10 -20z"/>
</g>
<g>
<path d="M1700 1206 c0 -15 18 -31 26 -23 7 7 -7 37 -17 37 -5 0 -9 -6 -9 -14z"/>
</g>
<g>
<path d="M1866 1201 c-4 -7 -5 -15 -2 -18 9 -9 19 4 14 18 -4 11 -6 11 -12 0z"/>
</g>
<g>
<path d="M2329 1203 c-1 -4 -1 -12 0 -17 1 -5 -4 -4 -13 3 -9 7 -16 8 -20 2
-8 -12 11 -24 41 -28 17 -3 20 1 16 17 -6 21 -22 37 -24 23z"/>
</g>
<g>
<path d="M2050 1176 c0 -16 6 -26 14 -26 9 0 12 7 9 20 -8 31 -23 34 -23 6z"/>
</g>
<g>
<path d="M2088 1195 c-8 -9 3 -45 13 -45 5 0 9 6 9 13 0 17 -15 39 -22 32z"/>
</g>
<g>
<path d="M2160 1191 c0 -6 5 -13 10 -16 6 -3 10 1 10 9 0 9 -4 16 -10 16 -5 0
-10 -4 -10 -9z"/>
</g>
<g>
<path d="M2230 1189 c0 -10 40 -32 47 -25 3 2 2 9 -1 14 -8 13 -46 22 -46 11z"/>
</g>
<g>
<path d="M2020 1176 c0 -9 5 -16 10 -16 6 0 10 4 10 9 0 6 -4 13 -10 16 -5 3
-10 -1 -10 -9z"/>
</g>
<g>
<path d="M2496 1182 c-7 -11 16 -22 46 -22 11 0 18 5 16 13 -5 15 -54 22 -62
9z"/>
</g>
<g>
<path d="M1570 1154 c0 -11 7 -29 16 -40 15 -18 15 -18 9 11 -8 37 -25 57 -25
29z"/>
</g>
<g>
<path d="M1832 1159 c2 -7 10 -15 17 -17 8 -3 12 1 9 9 -2 7 -10 15 -17 17 -8
3 -12 -1 -9 -9z"/>
</g>
<g>
<path d="M1535 1133 c7 -30 13 -39 19 -32 8 8 -6 59 -16 59 -6 0 -7 -11 -3
-27z"/>
</g>
<g>
<path d="M1610 1151 c0 -13 29 -35 37 -28 7 8 -15 37 -28 37 -5 0 -9 -4 -9 -9z"/>
</g>
<g>
<path d="M1757 1143 c-11 -10 -8 -43 3 -43 6 0 10 11 10 25 0 26 -2 29 -13 18z"/>
</g>
<g>
<path d="M1792 1139 c2 -7 10 -15 17 -17 8 -3 12 1 9 9 -2 7 -10 15 -17 17 -8
3 -12 -1 -9 -9z"/>
</g>
<g>
<path d="M2497 1123 c15 -24 15 -26 1 -15 -10 8 -27 10 -42 6 -31 -7 -31 -9
-7 -33 22 -22 33 -18 23 7 -5 15 -4 15 12 3 15 -12 19 -12 33 2 15 15 15 18
-2 37 -26 29 -38 25 -18 -7z"/>
</g>
<g>
<path d="M2591 1134 c0 -11 3 -14 6 -6 3 7 2 16 -1 19 -3 4 -6 -2 -5 -13z"/>
</g>
<g>
<path d="M1930 1106 c0 -14 5 -26 10 -26 6 0 10 9 10 19 0 11 -4 23 -10 26 -6
4 -10 -5 -10 -19z"/>
</g>
<g>
<path d="M1890 1108 c0 -18 18 -34 28 -24 3 4 -2 14 -11 23 -16 16 -17 16 -17
1z"/>
</g>
<g>
<path d="M2042 1108 c6 -18 28 -21 28 -4 0 9 -7 16 -16 16 -9 0 -14 -5 -12
-12z"/>
</g>
<g>
<path d="M2280 1107 c0 -8 7 -20 15 -27 12 -10 15 -10 15 3 0 8 -7 20 -15 27
-12 10 -15 10 -15 -3z"/>
</g>
<g>
<path d="M1850 1091 c0 -10 7 -21 15 -25 16 -6 19 3 9 28 -8 22 -24 20 -24 -3z"/>
</g>
<g>
<path d="M2092 1098 c5 -15 28 -23 28 -10 0 5 -7 13 -16 16 -10 4 -14 1 -12
-6z"/>
</g>
<g>
<path d="M2320 1096 c0 -9 5 -16 10 -16 6 0 10 4 10 9 0 6 -4 13 -10 16 -5 3
-10 -1 -10 -9z"/>
</g>
<g>
<path d="M2583 1093 c9 -2 17 -10 17 -17 0 -7 7 -13 15 -13 29 0 11 30 -20 33
-16 1 -22 0 -12 -3z"/>
</g>
<g>
<path d="M2400 1083 c0 -4 7 -17 15 -27 17 -23 34 -13 19 11 -12 19 -34 29
-34 16z"/>
</g>
<g>
<path d="M2360 1069 c0 -8 9 -20 20 -27 11 -7 20 -8 20 -4 0 5 -9 17 -20 27
-15 14 -20 15 -20 4z"/>
</g>
<g>
<path d="M2559 1065 c-3 -2 -14 -6 -25 -8 -30 -4 -32 -22 -1 -25 15 -2 27 2
27 8 0 6 5 8 10 5 6 -3 10 1 10 9 0 15 -11 21 -21 11z"/>
</g>
<g>
<path d="M2150 1044 c0 -17 37 -60 45 -53 3 4 -5 20 -19 35 -14 16 -26 24 -26
18z"/>
</g>
<g>
<path d="M2326 1035 c4 -8 11 -15 16 -15 6 0 5 6 -2 15 -7 8 -14 15 -16 15 -2
0 -1 -7 2 -15z"/>
</g>
<g>
<path d="M1930 1031 c0 -5 7 -14 15 -21 16 -14 18 -10 9 14 -6 17 -24 22 -24
7z"/>
</g>
<g>
<path d="M1980 1026 c0 -9 5 -16 10 -16 6 0 10 4 10 9 0 6 -4 13 -10 16 -5 3
-10 -1 -10 -9z"/>
</g>
<g>
<path d="M2042 1029 c2 -7 10 -15 17 -17 8 -3 12 1 9 9 -2 7 -10 15 -17 17 -8
3 -12 -1 -9 -9z"/>
</g>
<g>
<path d="M1900 1011 c0 -5 7 -14 15 -21 16 -14 18 -10 9 14 -6 17 -24 22 -24
7z"/>
</g>
<g>
<path d="M2621 998 c-1 -16 4 -28 9 -28 12 0 12 8 0 35 -8 18 -9 17 -9 -7z"/>
</g>
<g>
<path d="M2400 1006 c0 -12 33 -36 48 -36 14 1 12 5 -7 20 -21 19 -41 26 -41
16z"/>
</g>
<g>
<path d="M2200 962 c0 -11 22 -32 32 -32 5 0 4 9 -2 20 -11 20 -30 28 -30 12z"/>
</g>
<g>
<path d="M2322 940 c0 -14 2 -19 5 -12 2 6 2 18 0 25 -3 6 -5 1 -5 -13z"/>
</g>
<g>
<path d="M2620 942 c0 -11 41 -44 47 -38 3 2 2 14 -2 27 -6 17 -9 19 -16 8 -6
-10 -9 -11 -9 -1 0 6 -4 12 -10 12 -5 0 -10 -3 -10 -8z"/>
</g>
<g>
<path d="M2380 923 c0 -13 5 -23 10 -23 13 0 13 11 0 30 -8 12 -10 11 -10 -7z"/>
</g>
<g>
<path d="M2682 918 c2 -6 10 -14 16 -16 7 -2 10 2 6 12 -7 18 -28 22 -22 4z"/>
</g>
<g>
<path d="M2730 880 c0 -5 5 -10 10 -10 6 0 10 5 10 10 0 6 -4 10 -10 10 -5 0
-10 -4 -10 -10z"/>
</g>
<g>
<path d="M2390 2299 c0 -5 5 -7 10 -4 6 3 10 8 10 11 0 2 -4 4 -10 4 -5 0 -10
-5 -10 -11z"/>
</g>
<g>
<path d="M2367 2264 c-4 -4 -7 -17 -7 -28 1 -19 1 -20 11 -3 11 19 8 43 -4 31z"/>
</g>
<g>
<path d="M2365 2190 c-3 -5 -1 -10 4 -10 6 0 11 5 11 10 0 6 -2 10 -4 10 -3 0
-8 -4 -11 -10z"/>
</g>
<g>
<path d="M2317 2146 c-9 -22 4 -86 15 -80 6 4 7 -3 3 -17 -4 -14 -4 -20 1 -16
12 12 13 87 1 87 -5 0 -7 7 -4 15 4 8 2 17 -2 20 -5 3 -11 -2 -14 -9z"/>
</g>
<g>
<path d="M2285 1931 c-3 -5 -1 -12 5 -16 5 -3 10 1 10 9 0 18 -6 21 -15 7z"/>
</g>
<g>
<path d="M2246 1904 c-8 -21 -8 -24 3 -24 12 0 22 28 12 35 -5 3 -12 -2 -15
-11z"/>
</g>
<g>
<path d="M2255 1849 c-11 -17 1 -21 15 -4 8 9 8 15 2 15 -6 0 -14 -5 -17 -11z"/>
</g>
<g>
<path d="M2236 1781 c-4 -7 -5 -15 -2 -18 9 -9 19 4 14 18 -4 11 -6 11 -12 0z"/>
</g>
<g>
<path d="M2530 2235 c0 -8 5 -15 10 -15 6 0 10 7 10 15 0 8 -4 15 -10 15 -5 0
-10 -7 -10 -15z"/>
</g>
<g>
<path d="M2515 1900 c-3 -5 -1 -10 4 -10 6 0 11 5 11 10 0 6 -2 10 -4 10 -3 0
-8 -4 -11 -10z"/>
</g>
<g>
<path d="M2660 1870 c0 -5 5 -10 10 -10 6 0 10 5 10 10 0 6 -4 10 -10 10 -5 0
-10 -4 -10 -10z"/>
</g>
<g>
<path d="M2665 1830 c-3 -5 -1 -10 4 -10 6 0 11 5 11 10 0 6 -2 10 -4 10 -3 0
-8 -4 -11 -10z"/>
</g>
<g>
<path d="M2631 1454 c0 -11 3 -14 6 -6 3 7 2 16 -1 19 -3 4 -6 -2 -5 -13z"/>
</g>
<g>
<path d="M716 1182 c-7 -12 36 -62 53 -62 18 0 13 15 -18 44 -17 16 -31 23
-35 18z"/>
</g>
<g>
<path d="M670 1153 c1 -13 38 -53 49 -53 15 0 14 12 -5 38 -14 21 -44 31 -44
15z"/>
</g>
<g>
<path d="M707 503 c-11 -10 -8 -43 3 -43 6 0 10 11 10 25 0 26 -2 29 -13 18z"/>
</g>
</g>
<g>
<path d="M2192 5228 c-5 -7 -12 -22 -14 -33 -2 -15 -10 -19 -29 -17 -19 2 -25
-2 -25 -18 0 -17 5 -19 34 -14 32 6 33 5 23 -14 -16 -30 -13 -96 5 -136 23
-47 55 -61 133 -59 63 2 68 4 104 42 20 22 37 36 37 31 0 -5 -4 -12 -10 -15
-5 -3 -10 -13 -10 -22 0 -12 3 -13 13 -4 8 6 17 8 20 5 3 -4 14 1 23 10 15 16
15 18 -1 30 -11 8 -15 18 -11 25 5 7 0 21 -9 31 -10 11 -15 26 -11 36 9 23
-31 74 -70 90 -18 8 -60 14 -93 14 -43 0 -60 4 -65 15 -7 18 -30 20 -44 3z
m192 -89 c-3 -5 -10 -7 -15 -3 -5 3 -7 10 -3 15 3 5 10 7 15 3 5 -3 7 -10 3
-15z m-44 -18 c0 -5 -11 -8 -25 -8 -14 0 -25 3 -25 8 0 5 11 9 25 9 14 0 25
-4 25 -9z m-40 -46 c0 -7 -7 -15 -15 -19 -16 -6 -19 3 -9 28 7 18 24 12 24 -9z
m61 -27 c6 -23 4 -27 -15 -30 -13 -2 -22 -11 -24 -25 -3 -23 -28 -38 -37 -23
-4 6 -15 10 -25 10 -26 0 -50 27 -50 58 l0 26 21 -22 c11 -12 25 -20 31 -16 6
4 13 1 17 -5 14 -21 41 0 41 31 0 38 30 35 41 -4z"/>
</g>
<g>
<path d="M2012 5216 c-15 -7 -21 -17 -18 -28 5 -20 -14 -24 -32 -6 -15 15 -72
24 -124 19 -10 0 -37 -26 -62 -57 -39 -50 -43 -61 -42 -105 1 -27 8 -55 14
-61 7 -7 12 -23 12 -37 l0 -25 -16 22 c-21 31 -39 27 -42 -9 -2 -30 -2 -31 40
-28 30 2 48 10 61 26 18 22 44 33 32 13 -10 -17 26 -24 58 -12 20 8 35 8 42 2
27 -22 95 93 89 149 -2 19 0 38 6 41 8 5 8 15 0 34 -7 19 -7 25 1 21 13 -9 38
25 32 42 -6 15 -19 15 -51 -1z m-102 -48 c0 -9 4 -8 10 2 8 12 10 11 10 -6 0
-30 -9 -35 -35 -18 -27 18 -50 10 -52 -17 -2 -18 2 -20 24 -16 16 3 32 -1 41
-9 8 -8 22 -12 33 -9 16 6 19 1 19 -32 0 -32 -5 -42 -29 -56 -32 -19 -76 -23
-86 -7 -3 6 0 10 7 10 7 0 21 12 31 26 14 19 16 28 7 39 -17 21 -45 12 -45
-16 0 -15 -7 -25 -19 -27 -15 -3 -18 0 -13 17 3 12 0 35 -6 51 -10 27 -9 32
13 48 21 14 51 26 83 31 4 0 7 -5 7 -11z"/>
</g>
<g>
<path d="M2506 5201 c-4 -7 -5 -15 -2 -18 9 -9 19 4 14 18 -4 11 -6 11 -12 0z"/>
</g>
<g>
<path d="M2501 5106 c-10 -12 -6 -26 10 -26 11 0 19 29 10 35 -5 2 -14 -1 -20
-9z"/>
</g>
<g>
<path d="M2501 4961 c-14 -24 -14 -31 -1 -31 14 0 32 38 21 45 -6 3 -15 -3
-20 -14z"/>
</g>
<g>
<path d="M2495 4890 c-11 -17 5 -32 21 -19 7 6 11 15 8 20 -7 12 -21 11 -29
-1z"/>
</g>
<g>
<path d="M2487 4796 c-3 -8 -3 -16 0 -19 9 -10 33 5 33 19 0 18 -26 18 -33 0z"/>
</g>
<g>
<path d="M1690 4765 c0 -14 5 -25 10 -25 6 0 10 11 10 25 0 14 -4 25 -10 25
-5 0 -10 -11 -10 -25z"/>
</g>
<g>
<path d="M2487 4703 c-4 -3 -7 -13 -7 -21 0 -12 3 -12 15 -2 8 7 15 16 15 21
0 11 -14 12 -23 2z"/>
</g>
<g>
<path d="M1697 4683 c-11 -10 -8 -43 3 -43 6 0 10 11 10 25 0 26 -2 29 -13 18z"/>
</g>
<g>
<path d="M2491 4606 c-8 -10 -9 -16 -1 -21 5 -3 13 1 16 10 9 22 -1 29 -15 11z"/>
</g>
<g>
<path d="M1687 4584 c-10 -10 -9 -44 2 -44 13 0 23 32 13 42 -5 5 -11 5 -15 2z"/>
</g>
<g>
<path d="M2494 4496 c-4 -10 -2 -22 4 -28 8 -8 13 -7 18 6 4 10 2 22 -4 28 -8
8 -13 7 -18 -6z"/>
</g>
<g>
<path d="M2064 4410 c-12 -5 -25 -13 -28 -18 -3 -6 -15 -8 -26 -5 -26 7 -78
-15 -90 -37 -6 -11 -17 -16 -28 -14 -10 3 -27 -5 -41 -20 -29 -31 -51 -20 -51
24 0 26 -2 27 -24 17 -13 -6 -21 -17 -19 -24 3 -7 -2 -13 -11 -13 -17 0 -20
-9 -10 -34 4 -11 13 -14 30 -10 14 4 24 2 24 -5 0 -15 51 -38 73 -34 19 5 23
-7 6 -24 -18 -18 8 -108 41 -144 23 -23 26 -31 14 -36 -20 -7 -18 -26 7 -57
16 -21 29 -26 63 -26 48 0 61 -7 46 -25 -6 -7 -8 -20 -4 -29 7 -18 34 -22 34
-5 0 5 5 7 12 3 8 -5 9 5 4 35 l-7 43 41 -7 c68 -12 161 31 194 89 25 43 31
116 16 188 -11 51 -21 70 -59 109 -60 61 -143 85 -207 59z m140 -59 c12 -11
27 -21 34 -21 6 0 9 -6 6 -14 -3 -8 -1 -23 5 -34 5 -10 11 -50 12 -88 2 -56
-1 -74 -17 -92 -36 -44 -113 -64 -155 -42 -31 17 -22 27 27 33 26 3 54 13 65
24 17 17 18 20 4 40 -9 12 -22 20 -29 17 -8 -3 -17 -1 -21 5 -12 21 -25 11
-25 -20 0 -24 -4 -29 -17 -25 -10 3 -35 8 -55 12 -35 6 -38 4 -39 -17 0 -18
-5 -12 -16 19 -17 50 -14 59 17 40 19 -12 24 -10 48 20 15 18 36 32 48 32 17
0 22 6 20 25 0 14 -6 25 -13 25 -6 0 -14 6 -17 13 -3 8 -8 7 -16 -6 -9 -15
-14 -16 -26 -6 -13 11 -15 9 -13 -12 4 -44 -1 -59 -19 -59 -52 0 -57 59 -7 89
20 11 38 29 42 38 10 26 17 29 78 27 42 -1 62 -7 79 -23z m-264 -161 c0 -5 -4
-10 -10 -10 -5 0 -10 5 -10 10 0 6 5 10 10 10 6 0 10 -4 10 -10z m154 -185 c3
-8 1 -15 -4 -15 -6 0 -10 7 -10 15 0 8 2 15 4 15 2 0 6 -7 10 -15z m-70 -24
c4 -5 -3 -7 -14 -4 -23 6 -26 13 -6 13 8 0 17 -4 20 -9z"/>
</g>
<g>
<path d="M2490 4395 c0 -9 5 -15 11 -13 6 2 11 8 11 13 0 5 -5 11 -11 13 -6 2
-11 -4 -11 -13z"/>
</g>
<g>
<path d="M2490 4305 c-9 -11 -10 -19 -3 -26 7 -7 14 -5 23 6 9 11 10 19 3 26
-7 7 -14 5 -23 -6z"/>
</g>
<g>
<path d="M2490 4205 c-10 -12 -10 -15 4 -15 9 0 16 7 16 15 0 8 -2 15 -4 15
-2 0 -9 -7 -16 -15z"/>
</g>
<g>
<path d="M2477 4163 c-12 -11 -8 -23 8 -23 8 0 15 7 15 15 0 16 -12 20 -23 8z"/>
</g>
<g>
<path d="M2487 4103 c-4 -3 -7 -15 -7 -25 0 -26 22 -18 27 10 3 21 -7 29 -20
15z"/>
</g>
<g>
<path d="M2487 4013 c-4 -3 -7 -15 -7 -25 0 -26 24 -17 28 10 3 21 -8 29 -21
15z"/>
</g>
<g>
<path d="M2500 3925 c-14 -16 -6 -50 10 -40 5 3 9 17 8 30 -3 29 -2 29 -18 10z"/>
</g>
<g>
<path d="M335 1040 c-3 -5 -1 -10 4 -10 6 0 11 5 11 10 0 6 -2 10 -4 10 -3 0
-8 -4 -11 -10z"/>
</g>
<g>
<path d="M355 1020 c-3 -5 -2 -10 4 -10 5 0 13 5 16 10 3 6 2 10 -4 10 -5 0
-13 -4 -16 -10z"/>
</g>
<g>
<path d="M23 743 c-13 -2 -23 -10 -23 -16 0 -17 112 -6 118 11 4 12 -44 15
-95 5z"/>
</g>
<g>
<path d="M1870 737 c0 -8 11 -20 25 -27 14 -7 25 -16 25 -20 0 -4 13 -27 30
-51 l29 -44 -22 -6 c-22 -6 -22 -6 3 -17 19 -8 21 -11 7 -11 -10 -1 -17 -7
-14 -13 2 -7 14 -12 25 -10 12 2 22 -2 22 -8 0 -22 18 0 24 31 4 23 10 30 22
25 9 -3 32 -6 52 -7 34 0 35 -1 13 -10 -18 -7 -22 -12 -13 -21 9 -9 17 -9 34
0 41 20 67 23 88 12 32 -17 23 -30 -22 -31 l-43 -1 32 -10 c26 -9 37 -7 58 6
22 15 24 20 14 33 -11 13 -4 14 67 9 106 -6 159 2 189 30 25 23 33 44 17 44
-5 0 -14 -11 -20 -24 -8 -19 -22 -26 -64 -33 -29 -5 -58 -6 -64 -1 -20 15
-146 46 -215 53 -36 3 -78 13 -94 21 -15 8 -33 14 -40 14 -6 0 -20 9 -30 20
-10 11 -24 20 -32 20 -7 0 -12 5 -10 12 2 12 -32 25 -70 27 -13 1 -23 -5 -23
-12z m326 -142 c-8 -8 -18 -15 -22 -15 -3 0 -1 7 6 15 7 8 17 15 22 15 5 0 3
-7 -6 -15z"/>
</g>
<g>
<path d="M2 547 l-2 -119 115 5 c64 2 119 7 122 11 4 3 -46 6 -110 6 l-117 0
0 45 0 45 115 0 c70 0 115 4 115 10 0 6 -41 11 -100 11 -55 1 -106 2 -112 3
-8 0 -15 22 -19 51 -4 34 -6 13 -7 -68z"/>
</g>
<g>
<path d="M940 570 c0 -5 5 -10 10 -10 6 0 10 5 10 10 0 6 -4 10 -10 10 -5 0
-10 -4 -10 -10z"/>
</g>
<g>
<path d="M2850 570 c0 -5 7 -10 15 -10 8 0 15 5 15 10 0 6 -7 10 -15 10 -8 0
-15 -4 -15 -10z"/>
</g>
<g>
<path d="M1054 474 c-18 -14 -18 -15 6 -8 14 3 32 10 40 15 12 7 11 8 -6 9
-11 0 -29 -7 -40 -16z"/>
</g>
<g>
<path d="M3 305 c0 -38 2 -53 4 -32 2 20 2 52 0 70 -2 17 -4 1 -4 -38z"/>
</g>
<g>
<path d="M410 309 c-22 -6 -23 -7 -7 -14 16 -7 18 -19 17 -84 -3 -114 -4 -111
30 -111 17 0 30 3 31 8 0 4 1 51 2 104 2 96 2 96 -23 100 -14 2 -36 1 -50 -3z"/>
</g>
<g>
<path d="M55 301 c-3 -5 5 -11 17 -13 22 -3 23 -7 23 -96 l0 -93 35 3 34 3 -3
50 -3 50 29 -26 c15 -14 39 -33 53 -43 14 -9 25 -22 25 -29 0 -15 74 -22 88
-8 8 8 5 11 -8 11 -22 1 -145 94 -145 110 0 13 76 60 119 74 l36 11 -43 3
c-29 2 -47 -2 -58 -13 -23 -22 -80 -65 -87 -65 -4 0 -7 18 -7 40 l0 40 -49 0
c-28 0 -52 -4 -56 -9z"/>
</g>
<g>
<path d="M545 293 c8 -20 7 -166 -1 -188 -4 -9 4 -13 29 -12 l34 1 -5 63 c-6
73 7 82 33 22 21 -46 58 -76 101 -81 l29 -3 7 88 c4 48 12 96 18 107 10 18 7
20 -29 20 -37 0 -63 -14 -42 -22 12 -4 24 -148 12 -148 -5 0 -16 15 -25 33
-65 126 -70 132 -121 135 -43 3 -47 1 -40 -15z"/>
</g>
<g>
<path d="M871 303 c-61 -24 -83 -132 -36 -178 20 -21 34 -25 85 -25 l61 0 -3
37 c-3 35 -6 38 -36 41 -18 2 -39 -1 -46 -7 -31 -26 -51 64 -22 102 16 21 52
22 60 2 6 -17 32 -20 41 -6 16 27 -59 52 -104 34z"/>
</g>
<g>
<path d="M1530 300 c0 -5 11 -10 24 -10 31 0 39 -12 66 -93 26 -77 51 -114 69
-103 6 4 25 36 41 72 16 35 31 64 34 64 3 0 13 -15 22 -32 22 -44 73 -108 85
-108 6 0 19 21 30 48 41 99 71 152 85 152 8 0 14 5 14 10 0 11 -33 13 -68 4
-17 -5 -20 -9 -11 -20 8 -10 5 -27 -15 -69 -13 -30 -27 -55 -30 -55 -11 0 -61
96 -62 120 -1 22 -6 25 -43 28 -43 3 -43 3 -36 -26 6 -28 -20 -102 -35 -102
-11 0 -51 102 -46 116 4 11 -9 14 -59 14 -37 0 -65 -4 -65 -10z"/>
</g>
<g>
<path d="M2017 304 c-3 -3 -3 -12 0 -20 6 -16 -22 -107 -49 -153 -21 -37 -14
-56 18 -49 13 2 18 11 16 24 -1 12 2 33 7 47 9 23 16 27 51 27 36 0 42 -3 57
-36 15 -30 15 -36 3 -44 -20 -13 -9 -20 38 -25 49 -4 62 9 32 33 -21 17 -70
137 -70 171 0 13 -10 20 -37 25 -48 7 -58 7 -66 0z m63 -50 c15 -38 13 -44
-19 -44 -29 0 -29 1 -18 35 12 42 24 44 37 9z"/>
</g>
<g>
<path d="M2191 301 c-19 -12 3 -24 30 -16 20 7 20 4 17 -93 l-3 -101 28 -4
c34 -4 38 -1 29 27 -4 11 -5 40 -2 64 l5 43 36 -48 c20 -26 39 -56 43 -67 4
-11 12 -16 22 -12 9 3 20 6 26 6 8 0 9 29 5 89 -6 84 -5 90 16 104 21 15 20
16 -33 16 -46 0 -52 -2 -39 -12 16 -12 21 -68 8 -81 -3 -4 -18 14 -34 38 -22
35 -35 45 -64 50 -49 8 -74 7 -90 -3z"/>
</g>
<g>
<path d="M2485 200 l0 -110 60 0 c37 0 73 7 95 18 32 15 36 23 44 74 15 95
-20 128 -137 128 l-62 0 0 -110z m131 45 c17 -42 18 -99 2 -112 -21 -16 -56
-22 -60 -9 -3 6 -5 44 -7 84 -3 72 -3 72 24 72 20 0 29 -8 41 -35z"/>
</g>
<g>
<path d="M2770 297 c-28 -14 -38 -51 -20 -73 7 -7 29 -14 50 -14 41 0 58 -14
62 -51 3 -23 1 -24 -61 -21 -51 2 -66 0 -77 -15 -22 -30 -16 -35 34 -29 26 4
69 8 96 9 38 1 52 6 63 24 16 24 10 57 -14 85 -11 12 -13 28 -8 57 l7 41 -54
0 c-29 0 -64 -6 -78 -13z m81 -23 c37 -33 -6 -60 -47 -29 -19 15 -19 15 0 30
24 19 25 19 47 -1z"/>
</g>
<g>
<path d="M1268 279 c-24 -14 -23 -22 12 -91 38 -75 39 -111 1 -149 l-29 -29
-314 -3 c-172 -1 44 -3 481 -5 437 -1 792 0 789 3 -3 3 -180 6 -394 5 -416 0
-549 6 -518 23 33 17 44 39 44 89 0 36 3 46 14 42 20 -8 27 21 9 45 -18 27
-35 23 -44 -10 -7 -24 -7 -24 -18 6 -13 36 -11 51 6 47 7 -2 13 6 13 18 0 22
-23 26 -52 9z"/>
</g>
<g>
<path d="M4 110 c0 -63 1 -89 3 -57 2 31 2 83 0 115 -2 31 -3 5 -3 -58z"/>
</g>
<g>
<path d="M1191 187 c-56 -28 -52 -74 7 -91 55 -16 82 32 46 82 -18 25 -21 26
-53 9z m36 -33 c3 -8 1 -20 -6 -27 -14 -14 -47 15 -37 32 10 16 36 13 43 -5z"/>
</g>
<g>
<path d="M183 3 c43 -2 110 -2 150 0 40 1 5 3 -78 3 -82 0 -115 -2 -72 -3z"/>
</g>
</g>
</svg>
