<?xml version="1.0" standalone="no"?>
<!DOCTYPE svg PUBLIC "-//W3C//DTD SVG 20010904//EN"
 "http://www.w3.org/TR/2001/REC-SVG-20010904/DTD/svg10.dtd">
<svg version="1.0" xmlns="http://www.w3.org/2000/svg"
 width="300.000000pt" height="527.000000pt" viewBox="0 0 300.000000 527.000000"
 preserveAspectRatio="xMidYMid meet">
<metadata>
Created by potrace 1.15, written by Peter Selinger 2001-2017
</metadata>
<g transform="translate(0.000000,527.000000) scale(0.100000,-0.100000)"
fill="#000000" stroke="none">
<g>
<path d="M197 5262 c-129 -2 -172 -6 -183 -17 -12 -11 -14 -272 -12 -1757 1
-959 4 -1720 7 -1693 5 38 10 50 24 51 12 1 16 -3 13 -15 -2 -9 -8 -45 -11
-81 -9 -81 -18 -97 -26 -45 l-6 40 -2 -49 c0 -27 2 -47 5 -43 3 3 35 -16 70
-43 78 -60 98 -67 130 -45 29 19 42 47 43 96 0 35 16 172 22 199 3 11 -6 16
-28 18 -33 3 -36 9 -25 50 7 22 12 18 81 -52 59 -58 88 -80 140 -101 75 -30
90 -28 162 25 l42 30 42 -38 c22 -20 45 -46 51 -57 5 -11 18 -21 29 -23 11 -2
30 -8 42 -14 20 -10 72 -7 165 8 28 5 40 2 55 -13 41 -41 197 -137 266 -163
40 -16 108 -36 152 -45 44 -9 83 -20 88 -24 8 -8 -4 -78 -29 -171 -22 -81 -35
-110 -48 -110 -21 0 -58 -47 -60 -75 l-1 -27 -77 5 c-93 6 -163 -10 -163 -39
0 -10 8 -20 18 -22 19 -4 107 -60 146 -92 16 -15 22 -28 19 -45 -6 -27 9 -35
18 -11 5 12 9 11 24 -4 10 -10 33 -21 51 -25 19 -4 40 -12 46 -17 24 -20 41 0
52 63 16 95 53 206 61 184 4 -11 9 -14 13 -8 4 6 -3 21 -14 34 -23 27 -21 55
13 174 39 139 49 188 42 204 -4 9 -6 28 -5 44 2 20 -2 27 -14 27 -14 0 -16 -7
-13 -30 5 -33 -9 -116 -35 -215 -9 -33 -19 -73 -22 -88 -5 -25 -8 -27 -21 -16
-11 9 -13 21 -9 38 3 14 12 53 20 86 51 223 58 245 77 245 11 0 27 -4 36 -9
10 -5 38 -5 67 0 108 20 132 21 140 9 4 -6 5 -13 3 -15 -6 -7 -152 -43 -188
-48 l-35 -4 40 -1 c22 -1 56 2 76 7 48 11 75 -3 36 -18 -16 -6 -35 -11 -43
-11 -8 0 -14 -5 -14 -10 0 -7 14 -9 38 -5 27 5 33 4 22 -4 -8 -6 -23 -11 -32
-11 -10 0 -18 -5 -18 -11 0 -7 13 -9 38 -5 37 5 37 5 -13 -19 -44 -21 -47 -24
-22 -24 24 -1 41 -21 17 -21 -5 0 -10 -4 -10 -10 0 -5 15 -11 33 -11 30 -2 30
-2 5 -6 -30 -5 -34 -13 -17 -30 8 -8 5 -14 -11 -23 -21 -11 -21 -12 -4 -31 16
-18 16 -19 -7 -20 l-24 0 27 -21 c26 -21 26 -21 10 -57 -9 -20 -20 -38 -23
-41 -3 -3 -8 -13 -12 -22 -3 -10 -11 -18 -17 -18 -14 0 -13 17 2 22 17 6 0 28
-23 28 -21 0 -26 -16 -6 -23 7 -3 5 -6 -5 -6 -25 -1 -22 -15 7 -31 31 -17 22
-33 -11 -18 -20 10 -27 8 -38 -7 -8 -11 -12 -24 -9 -31 2 -6 -3 -14 -13 -18
-11 -4 -13 -10 -6 -19 5 -6 13 -23 17 -37 6 -24 6 -24 -18 4 -24 30 -25 57 -3
85 9 11 8 13 -4 9 -8 -2 -26 -38 -38 -79 -13 -41 -28 -83 -32 -94 -5 -11 -12
-30 -15 -42 -8 -28 -10 -28 -96 -2 -39 12 -72 19 -75 16 -7 -6 49 -37 66 -37
13 0 32 -14 74 -56 17 -17 38 -34 46 -37 15 -5 -245 -13 -285 -8 -27 3 -246
21 -320 26 -126 8 -178 17 -258 44 -74 25 -88 27 -119 16 -29 -10 -42 -9 -68
2 -40 16 -53 17 -48 1 10 -28 124 -49 134 -24 4 11 21 8 85 -14 44 -16 83 -31
86 -34 9 -9 -48 -7 -171 4 -113 11 -154 8 -126 -10 8 -6 36 -10 63 -10 28 0
47 -5 47 -11 0 -23 -140 -6 -203 24 -58 28 -138 41 -134 22 1 -5 16 -10 32
-11 17 0 46 -9 65 -19 84 -44 231 -55 269 -21 13 12 41 16 114 16 72 0 96 3
94 12 -1 7 5 11 13 9 8 -2 69 -8 135 -12 66 -4 152 -12 191 -18 105 -15 649
-17 667 -3 10 8 110 13 327 17 172 3 316 7 318 10 14 14 -620 7 -657 -7 -37
-14 -134 -18 -183 -9 -23 5 -35 9 -26 10 9 1 23 7 31 15 16 16 117 24 155 12
16 -5 29 -3 40 7 12 11 41 15 107 16 135 0 655 -12 655 -16 0 -1 -25 -14 -55
-29 -34 -17 -64 -41 -80 -65 -15 -20 -37 -40 -50 -43 -33 -8 -135 -111 -170
-170 l-28 -48 -1061 7 c-584 4 -1068 9 -1076 11 -8 1 -21 3 -28 3 -10 1 -12
20 -10 73 4 86 22 94 26 12 4 -72 25 -68 32 7 l5 54 62 -3 c34 -2 71 -1 82 3
29 9 27 43 -1 47 -13 2 -22 9 -21 16 2 6 -8 14 -21 18 -14 3 -27 12 -30 20 -3
9 -21 14 -48 15 l-43 1 48 10 c36 8 47 15 47 29 0 18 -22 25 -72 20 -9 -1 -19
3 -23 9 -3 5 -15 10 -26 10 -16 0 -19 7 -19 50 0 48 2 51 76 127 l76 78 21
-25 c12 -14 35 -34 52 -44 16 -11 61 -45 101 -78 67 -54 94 -69 94 -50 0 4
-23 28 -52 53 l-52 46 53 61 c29 33 68 68 86 77 19 8 37 20 41 26 3 6 22 -8
42 -33 53 -61 231 -237 269 -264 55 -39 45 -13 -23 55 l-65 66 37 32 37 33 41
-38 c43 -38 160 -125 206 -152 26 -15 63 -18 260 -23 63 -2 123 -7 134 -11 14
-7 18 -6 14 5 -3 11 -39 16 -149 22 -247 13 -221 7 -314 74 -91 65 -124 94
-131 115 -10 34 -48 32 -101 -5 l-48 -36 -50 48 c-28 26 -74 73 -103 104 -44
48 -56 56 -71 47 -18 -9 -113 -105 -163 -164 l-25 -29 -56 41 c-30 23 -58 46
-62 52 -14 23 -45 7 -104 -55 -35 -36 -64 -65 -67 -65 -2 0 -5 168 -7 373 -1
204 -3 4 -5 -445 l-2 -817 1494 1 1495 0 5 27 c3 14 5 1198 3 2631 l-2 2605
-1315 0 c-723 0 -1391 -1 -1483 -3z m1313 -30 c547 1 1097 2 1222 2 124 1 229
-2 232 -5 6 -5 14 -2809 8 -2809 -2 0 -18 11 -36 25 -18 14 -38 25 -44 25 -7
0 -12 4 -12 8 0 14 -96 32 -165 32 -71 0 -139 -20 -194 -55 -76 -50 -101 -32
-45 33 20 24 34 49 30 57 -3 8 -36 35 -75 59 -38 25 -72 49 -75 55 -4 5 -13 8
-20 5 -14 -5 -28 37 -17 54 15 23 74 32 128 20 47 -11 53 -15 53 -39 0 -36 27
-64 80 -82 54 -18 74 -13 66 19 -4 13 -3 24 2 24 14 0 32 -23 32 -41 0 -17 44
-59 61 -59 11 0 32 40 25 48 -4 3 -12 0 -18 -6 -18 -18 -24 -15 -38 21 -7 17
-20 38 -28 45 -21 16 -24 39 -6 46 7 3 11 12 8 21 -10 24 4 51 18 37 7 -7 22
-12 33 -12 12 0 30 -9 40 -20 10 -11 22 -17 27 -14 13 8 38 -16 38 -37 0 -15
-4 -17 -24 -9 -28 10 -46 -4 -46 -37 0 -25 10 -29 27 -12 9 9 19 6 42 -10 17
-12 34 -20 38 -18 5 3 6 28 5 56 -3 41 -10 56 -35 81 -30 30 -36 32 -91 45
-27 6 -28 7 -12 23 11 12 33 17 69 17 43 0 52 3 55 20 3 11 12 25 21 32 14 11
14 14 1 23 -8 5 -23 10 -33 10 -10 0 -29 7 -42 16 -19 12 -23 22 -19 40 8 31
-17 60 -57 69 -16 4 -34 15 -39 26 -6 10 -18 19 -28 19 -14 1 -13 4 6 19 24
21 29 46 10 55 -10 5 -10 7 0 12 7 3 18 12 25 19 8 7 22 14 33 17 12 2 20 13
22 30 3 27 4 27 61 21 67 -6 90 9 52 36 -12 9 -41 33 -64 54 -40 36 -44 37
-94 32 l-53 -6 0 31 c0 20 -9 39 -23 53 -13 12 -29 32 -36 45 -7 13 -26 28
-43 34 -25 9 -29 14 -24 34 13 52 -89 181 -174 219 -26 12 -40 24 -40 37 0 11
-18 51 -41 89 -45 75 -65 169 -46 219 8 22 5 30 -23 58 -27 28 -31 38 -26 64
8 39 12 44 28 31 29 -23 67 -23 108 -2 22 12 40 25 40 30 0 5 5 9 10 9 22 0 7
-37 -30 -80 -34 -38 -40 -51 -40 -90 0 -32 7 -56 25 -83 27 -39 49 -47 63 -21
8 14 10 14 21 0 8 -9 20 -16 27 -16 9 0 14 -11 14 -31 0 -17 8 -44 18 -61 30
-51 113 -89 95 -43 -3 8 -1 15 5 15 20 0 21 31 2 65 -27 49 -25 63 5 31 23
-25 29 -27 72 -20 44 6 46 6 40 -15 -12 -48 80 -85 113 -46 10 13 9 15 -9 15
-31 0 -38 27 -12 51 27 25 27 55 0 99 -14 22 -17 36 -10 38 6 2 11 17 11 34 0
21 -11 41 -41 71 l-41 42 29 6 c43 9 73 28 73 47 0 14 -7 17 -33 14 -23 -3
-38 2 -51 17 -18 20 -18 20 18 10 52 -14 96 15 110 74 8 32 -6 35 -34 7 -26
-26 -70 -26 -103 0 -14 11 -48 50 -75 87 -76 102 -83 106 -173 107 -68 1 -80
-2 -118 -28 -23 -16 -46 -37 -51 -46 -8 -15 -20 -17 -78 -12 -51 3 -78 0 -103
-12 -43 -20 -79 -73 -79 -114 0 -32 0 -32 -28 -18 -16 8 -35 22 -42 31 -8 9
-30 25 -49 34 -56 28 -69 19 -127 -84 -10 -16 -33 -52 -53 -80 -49 -68 -61
-94 -60 -135 1 -19 -1 -63 -5 -97 -7 -77 5 -116 43 -149 17 -14 31 -36 31 -47
0 -12 7 -35 15 -51 18 -35 14 -42 -29 -50 -18 -4 -44 -16 -57 -27 -13 -11 -36
-28 -51 -37 -15 -8 -35 -32 -45 -51 -10 -20 -35 -56 -55 -80 -37 -43 -52 -101
-29 -115 17 -11 20 -66 5 -101 -8 -20 -19 -35 -23 -33 -13 5 -111 200 -111
221 0 11 -8 32 -17 48 -11 19 -14 32 -8 37 15 10 35 49 35 67 0 9 7 30 16 47
13 25 14 36 5 50 -6 10 -11 29 -11 42 0 14 -4 28 -10 31 -19 11 -3 170 21 217
5 10 9 24 9 33 0 23 56 48 79 35 27 -14 36 -13 22 4 -16 19 5 32 24 16 12 -10
15 -9 15 9 0 16 -6 21 -26 21 -14 0 -23 4 -19 9 3 5 1 13 -5 16 -15 9 -40 -13
-40 -35 0 -14 -37 -36 -47 -27 -1 2 2 32 8 67 5 36 16 121 25 190 18 149 27
186 44 182 7 -2 26 2 42 7 23 8 35 7 51 -4 28 -20 46 -19 21 0 -18 15 -18 16
11 14 45 -2 49 0 35 16 -7 8 -21 15 -32 15 -16 0 -18 3 -9 14 9 10 9 20 0 40
-15 31 -20 32 -43 7 -11 -12 -15 -27 -12 -39 7 -22 -7 -36 -47 -46 l-28 -7 6
48 c4 26 13 74 21 106 19 75 10 157 -17 157 -14 0 -19 7 -19 28 0 35 -16 52
-51 52 -32 0 -46 15 -24 24 19 7 39 56 27 68 -5 5 -22 -4 -40 -21 -37 -34 -40
-29 -12 17 23 37 23 41 10 62 -7 12 -12 12 -29 -4 -12 -11 -21 -25 -21 -33 0
-15 -16 -17 -25 -3 -3 6 -15 10 -26 10 -23 0 -27 -41 -5 -59 13 -11 12 -15 -6
-33 -19 -19 -20 -21 -3 -30 9 -6 34 -8 54 -4 l36 5 0 -99 c1 -84 -2 -100 -15
-100 -33 0 -43 17 -37 57 5 28 2 45 -8 59 -15 19 -15 19 -30 0 -8 -11 -15 -30
-15 -42 0 -12 -7 -24 -15 -28 -28 -10 -17 -35 17 -38 22 -2 34 -9 36 -20 2
-13 -1 -16 -12 -12 -9 3 -16 2 -16 -3 0 -20 14 -22 41 -6 27 16 30 16 45 1 15
-15 15 -29 5 -135 -22 -216 -32 -272 -47 -266 -12 4 -13 -5 -7 -53 9 -74 9
-64 -11 -224 -22 -176 -23 -180 -44 -180 -10 0 -32 -11 -48 -25 l-30 -25 3
-102 c3 -57 8 -116 13 -133 5 -16 12 -71 15 -122 6 -82 5 -92 -12 -101 -24
-13 -60 1 -68 27 -4 14 -15 21 -31 21 -13 0 -24 5 -24 10 0 6 6 10 14 10 15 0
46 37 46 55 0 5 -20 10 -44 10 -24 0 -56 7 -71 15 -21 11 -30 12 -45 2 -20
-12 -80 -6 -80 9 0 5 10 9 23 9 27 0 67 26 67 43 0 8 -24 12 -80 11 -89 -2
-143 -24 -148 -62 -4 -26 -8 -27 -28 -8 -14 15 -54 11 -54 -5 0 -5 -15 -9 -32
-9 -61 -1 -149 -54 -133 -80 3 -5 -2 -13 -12 -16 -103 -32 -170 -92 -160 -142
3 -16 -1 -35 -9 -46 -8 -11 -14 -30 -14 -43 0 -30 -14 -29 -28 2 -9 20 -15 23
-34 16 -22 -8 -23 -13 -23 -114 0 -105 0 -106 30 -131 17 -14 35 -26 40 -26 6
0 16 -14 23 -30 8 -17 19 -36 26 -43 6 -6 18 -32 25 -56 17 -58 41 -84 73 -76
17 4 31 0 48 -17 38 -36 73 -81 90 -113 8 -16 26 -32 40 -35 41 -10 37 -47
-14 -129 -45 -73 -46 -74 -71 -27 -15 28 -75 56 -149 68 -59 10 -68 9 -106
-11 -22 -11 -46 -21 -53 -21 -16 -1 -57 -35 -57 -49 0 -22 -22 -21 -63 3 -24
15 -51 26 -60 26 -16 0 -17 53 -17 683 0 376 3 995 7 1375 l6 692 181 3 c100
1 208 1 241 0 33 -2 508 -2 1055 -1z m-140 -79 c0 -5 -5 -15 -10 -23 -8 -12
-10 -11 -10 8 0 12 5 22 10 22 6 0 10 -3 10 -7z m26 -80 c-10 -10 -19 5 -10
18 6 11 8 11 12 0 2 -7 1 -15 -2 -18z m-68 -15 c-5 -16 -48 -24 -48 -9 0 8 17
16 43 20 5 0 7 -5 5 -11z m112 -85 c0 -10 -6 -12 -20 -8 -22 7 -26 1 -10 -18
6 -7 17 -21 25 -32 12 -17 17 -18 34 -7 18 10 21 10 21 -4 0 -8 -7 -22 -15
-30 -17 -17 -21 -59 -5 -49 6 3 10 15 10 26 0 10 5 19 10 19 6 0 8 -10 5 -23
-3 -12 -9 -45 -13 -72 -6 -40 -11 -50 -26 -50 -21 0 -31 -41 -14 -62 14 -17 6
-58 -11 -58 -20 0 -26 -24 -7 -31 25 -10 19 -25 -7 -19 -17 5 -24 2 -24 -9 0
-9 6 -16 14 -16 7 0 13 -5 13 -11 0 -6 -10 -9 -22 -7 -19 2 -22 8 -20 31 2 16
-2 34 -7 41 -7 9 -7 23 0 47 6 19 12 107 13 197 2 128 5 165 16 172 17 10 40
-6 40 -27z m150 -258 c0 -8 -4 -15 -10 -15 -5 0 -7 7 -4 15 4 8 8 15 10 15 2
0 4 -7 4 -15z m919 -118 c6 -8 8 -17 4 -20 -8 -9 78 -47 90 -40 5 3 16 -5 25
-18 9 -13 32 -41 50 -61 36 -40 31 -54 -6 -15 -27 28 -90 62 -99 53 -9 -8 153
-163 179 -171 10 -4 16 -11 13 -16 -10 -15 -87 2 -129 28 -51 33 -69 16 -22
-20 19 -15 39 -27 45 -27 6 0 11 -6 11 -14 0 -8 -15 -17 -35 -20 -68 -13 -157
73 -111 107 21 15 30 63 15 73 -8 5 -10 2 -5 -7 4 -8 0 -5 -8 5 -9 11 -16 23
-16 27 0 4 -16 17 -35 29 -45 28 -45 44 -2 37 25 -4 34 -2 34 9 0 8 -6 13 -14
10 -8 -3 -15 4 -19 19 -10 39 12 59 35 32z m73 -14 c10 -9 18 -22 18 -30 0
-12 -2 -12 -12 -1 -42 44 -46 68 -6 31z m-402 -68 c-3 -5 -13 -9 -23 -8 -10 2
-20 -4 -23 -12 -6 -16 -44 -21 -44 -6 0 15 41 37 69 36 14 0 24 -4 21 -10z
m150 -16 c-10 -17 -17 -20 -51 -14 -32 6 -39 4 -39 -9 0 -9 7 -19 15 -22 8 -4
15 -10 15 -15 0 -5 -7 -9 -15 -9 -8 0 -15 5 -15 10 0 6 -9 10 -21 10 -15 0
-19 4 -15 16 3 9 6 20 6 25 0 5 17 9 38 10 20 0 46 4 57 9 32 14 36 11 25 -11z
m60 -9 c-10 -19 -40 -28 -40 -12 0 13 23 32 37 32 11 0 11 -5 3 -20z m-965
-13 c7 -6 2 -8 -15 -3 -14 3 -31 6 -37 6 -7 0 -13 5 -13 10 0 12 50 2 65 -13z
m537 -52 c35 -25 92 -65 128 -89 58 -38 66 -47 71 -82 6 -45 23 -79 44 -91 12
-7 12 -14 1 -48 -8 -22 -21 -41 -30 -43 -24 -5 -19 -32 6 -32 16 0 19 -3 11
-11 -7 -7 -19 -9 -28 -6 -24 10 -31 38 -12 52 21 15 22 29 2 21 -11 -4 -19 3
-26 22 -6 15 -18 36 -27 46 -13 14 -14 20 -4 23 14 5 17 33 3 33 -6 0 -13 -5
-17 -11 -4 -8 -9 -8 -18 1 -8 8 -7 13 4 20 12 7 12 12 3 21 -9 9 -15 9 -27 0
-20 -17 -41 -5 -26 14 8 10 8 15 -1 20 -6 4 -15 2 -19 -5 -10 -17 -31 -3 -28
18 2 12 -3 16 -19 15 -17 -2 -23 2 -23 17 0 24 -2 24 51 0 24 -11 50 -20 57
-20 24 0 11 30 -20 46 -18 9 -40 22 -48 29 -8 6 -36 18 -62 25 -39 10 -51 10
-63 0 -25 -21 -24 -8 2 33 28 45 30 45 115 -18z m426 17 c2 -7 -7 -12 -23 -12
-24 0 -26 2 -15 15 14 17 31 16 38 -3z m-998 -2 c0 -5 -5 -10 -11 -10 -5 0 -7
-4 -4 -10 3 -5 15 -10 26 -10 10 0 19 -4 19 -10 0 -5 -9 -10 -20 -10 -26 0
-28 -54 -2 -69 16 -10 16 -10 0 -11 -10 0 -18 -7 -18 -15 0 -8 5 -15 10 -15 6
0 10 -4 10 -10 0 -5 -7 -10 -15 -10 -21 0 -19 -28 3 -33 13 -4 12 -5 -5 -6
-18 -1 -22 -9 -28 -51 -4 -27 -11 -52 -16 -56 -5 -3 -9 -34 -9 -69 0 -35 -5
-67 -10 -70 -8 -5 -7 -11 1 -21 9 -11 7 -14 -11 -14 -20 0 -22 4 -17 33 4 17
11 81 17 142 7 60 18 124 25 141 7 18 14 65 16 105 1 41 4 77 6 82 6 11 33 9
33 -3z m1425 -30 c-3 -5 -13 -10 -21 -10 -8 0 -12 5 -9 10 3 6 13 10 21 10 8
0 12 -4 9 -10z m-65 -10 c0 -5 -4 -10 -9 -10 -6 0 -13 5 -16 10 -3 6 1 10 9
10 9 0 16 -4 16 -10z m-401 -9 c12 -8 12 -12 2 -25 -8 -9 -20 -16 -29 -16 -13
0 -12 3 3 20 20 22 14 26 -16 10 -11 -6 -25 -8 -31 -4 -8 5 -5 10 8 15 26 10
46 10 63 0z m-231 -19 c3 -9 -2 -13 -14 -10 -9 1 -19 9 -22 16 -3 9 2 13 14
10 9 -1 19 -9 22 -16z m332 -9 c0 -11 -4 -11 -20 -3 -11 6 -20 15 -20 19 0 5
9 7 20 4 11 -3 20 -12 20 -20z m-554 3 c26 -20 10 -32 -48 -39 -53 -5 -60 5
-26 34 25 23 47 24 74 5z m294 -57 c0 -13 -4 -11 -29 10 -14 12 -20 25 -15 32
5 9 12 6 26 -10 10 -13 18 -27 18 -32z m129 -5 c-29 -16 -53 -18 -44 -3 9 14
48 28 59 21 5 -2 -2 -11 -15 -18z m154 4 c6 -21 2 -36 -7 -27 -10 11 -16 49
-8 49 5 0 12 -10 15 -22z m-711 -10 c-7 -7 -12 -8 -12 -2 0 14 12 26 19 19 2
-3 -1 -11 -7 -17z m198 -36 c50 -31 61 -44 48 -59 -9 -11 -7 -17 10 -28 11 -8
30 -31 42 -50 24 -39 44 -47 35 -12 -5 20 -5 20 9 -3 8 -14 12 -37 9 -51 -7
-38 21 -62 67 -56 36 5 36 4 67 -62 17 -36 30 -67 29 -68 -1 -1 -38 16 -83 38
l-82 40 -32 77 c-40 98 -62 128 -107 151 -68 35 -167 32 -212 -5 -17 -15 -33
-24 -36 -21 -8 8 29 77 42 77 6 0 14 7 18 15 3 8 12 12 21 9 8 -3 15 -1 15 6
0 6 3 9 8 6 4 -2 18 2 32 9 27 15 61 10 100 -13z m550 -9 c0 -17 -18 -54 -21
-43 -9 34 -6 60 7 60 8 0 14 -8 14 -17z m60 -28 c6 -8 10 -20 8 -26 -2 -6 -12
0 -21 15 -18 27 -8 37 13 11z m-89 -27 c38 15 49 3 40 -40 -8 -34 -58 -108
-73 -108 -16 0 -18 41 -4 62 20 29 20 38 -1 38 -26 0 -63 -41 -63 -69 -1 -25
-1 -25 -15 -7 -20 27 -8 76 26 106 16 14 29 31 29 39 0 8 7 5 18 -9 14 -18 22
-20 43 -12z m139 -29 c0 -5 -6 -9 -14 -9 -7 0 -21 -10 -29 -22 l-16 -23 0 22
c-1 12 9 29 21 37 21 15 38 13 38 -5z m146 -18 c-9 -14 -46 -14 -46 0 0 5 5 7
10 4 6 -3 10 4 10 17 0 20 1 21 16 6 9 -9 13 -21 10 -27z m-826 -2 c0 -12 8
-23 19 -26 27 -7 48 -50 35 -71 -17 -26 -1 -56 31 -62 16 -3 29 -9 28 -15 0
-14 -90 -65 -105 -60 -29 9 -108 12 -114 4 -10 -17 -22 -9 -38 25 -23 48 -21
76 3 69 13 -3 21 -15 23 -36 2 -17 8 -32 14 -34 15 -5 1 101 -16 123 -21 27
-33 34 -47 29 -7 -2 -13 1 -13 7 0 6 11 8 29 5 17 -4 36 0 47 8 11 8 29 15 41
15 13 0 28 9 35 20 16 26 28 25 28 -1z m744 -5 c7 -19 -10 -44 -30 -44 -8 0
-14 -7 -14 -16 0 -9 -5 -12 -12 -8 -7 4 -6 -1 3 -12 26 -30 31 -54 13 -61 -23
-8 -44 18 -49 61 -4 31 -2 37 10 32 10 -4 15 1 15 15 0 11 4 17 10 14 5 -3 15
3 22 15 15 24 24 25 32 4z m-693 -11 c13 -17 13 -17 -6 -3 -11 8 -22 16 -24
17 -2 2 0 3 6 3 6 0 17 -8 24 -17z m-184 -9 c-3 -3 -12 -4 -19 -1 -8 3 -5 6 6
6 11 1 17 -2 13 -5z m-440 -46 c-3 -7 -5 -2 -5 12 0 14 2 19 5 13 2 -7 2 -19
0 -25z m1178 -5 c-17 -41 -16 -64 4 -97 l22 -35 -21 -11 c-16 -9 -25 -8 -36 1
-18 15 -19 43 0 36 11 -5 12 1 4 30 -10 37 4 93 24 93 6 0 7 -8 3 -17z m-805
-14 c0 -5 -4 -9 -10 -9 -5 0 -10 7 -10 16 0 8 5 12 10 9 6 -3 10 -10 10 -16z
m45 11 c-3 -5 -13 -10 -21 -10 -8 0 -12 5 -9 10 3 6 13 10 21 10 8 0 12 -4 9
-10z m242 -12 c-3 -8 -6 -5 -6 6 -1 11 2 17 5 13 3 -3 4 -12 1 -19z m-217 -18
c0 -5 -4 -10 -10 -10 -5 0 -10 5 -10 10 0 6 5 10 10 10 6 0 10 -4 10 -10z
m214 -15 c3 -8 1 -15 -4 -15 -6 0 -10 7 -10 15 0 8 2 15 4 15 2 0 6 -7 10 -15z
m690 -9 c-3 -9 -10 -16 -15 -16 -14 0 -11 28 4 33 16 6 19 3 11 -17z m-954
-17 c0 -5 -4 -9 -10 -9 -5 0 -10 7 -10 16 0 8 5 12 10 9 6 -3 10 -10 10 -16z
m990 -13 c0 -2 -7 -9 -15 -16 -13 -11 -14 -10 -9 4 5 14 24 23 24 12z m-662
-54 c2 -11 10 -22 19 -24 12 -2 11 -7 -6 -30 -13 -16 -21 -41 -21 -63 0 -29
-3 -36 -15 -31 -8 3 -15 0 -15 -7 0 -8 -3 -8 -9 2 -6 9 -11 10 -15 2 -4 -6 -5
-15 -2 -20 7 -11 -17 -21 -50 -21 -16 0 -24 5 -23 18 0 10 3 12 6 5 9 -24 23
-13 21 17 -1 17 -5 30 -8 30 -3 0 -22 -4 -43 -9 -30 -7 -40 -6 -44 5 -8 20 5
30 19 16 16 -16 28 -15 28 2 0 23 22 31 32 12 5 -9 14 -14 19 -10 6 4 6 10 -1
19 -8 9 -6 14 7 19 10 4 19 2 21 -3 2 -6 8 -11 14 -11 7 0 6 5 -1 14 -10 12
-7 18 14 32 14 9 23 19 21 21 -3 3 -18 -4 -35 -16 -16 -12 -49 -28 -72 -36
-48 -17 -123 -20 -114 -5 3 6 22 10 41 10 34 0 99 28 159 69 35 24 49 22 53
-7z m-777 -22 c30 -16 23 -26 -21 -27 -24 -1 -40 3 -40 10 0 8 -3 8 -11 0 -19
-19 -4 -41 24 -36 24 5 83 -24 73 -35 -3 -3 -11 0 -18 5 -18 14 -78 12 -78 -3
0 -6 10 -15 23 -19 l22 -7 -24 -7 c-25 -7 -42 -31 -21 -31 7 0 8 -6 0 -19 -5
-11 -10 -40 -10 -65 0 -25 -4 -48 -10 -51 -6 -4 -10 8 -11 27 0 60 -8 162 -14
196 -4 21 -2 32 6 32 6 0 9 6 6 14 -3 8 -3 17 0 20 10 10 83 7 104 -4z m602
-17 c-7 -2 -19 -2 -25 0 -7 3 -2 5 12 5 14 0 19 -2 13 -5z m207 -82 c0 -14 8
-18 38 -17 20 1 39 -3 41 -9 5 -11 -105 -89 -159 -113 -92 -40 -229 -44 -244
-6 -4 12 -1 14 14 9 22 -7 26 5 8 23 -7 7 -8 12 -2 12 5 0 15 -5 22 -12 6 -6
15 -8 19 -3 5 4 2 10 -4 12 -31 11 -9 20 38 15 31 -3 75 2 116 13 59 16 67 21
81 54 9 20 15 40 14 44 -2 5 2 6 8 2 5 -3 10 -14 10 -24z m-260 4 c0 -8 -7
-15 -15 -15 -8 0 -15 7 -15 15 0 8 7 15 15 15 8 0 15 -7 15 -15z m460 -31 c0
-3 -4 -13 -10 -23 -13 -25 19 -54 54 -49 33 4 36 20 7 33 -19 9 -29 25 -16 25
15 0 55 -34 55 -46 0 -8 5 -14 10 -14 6 0 10 -4 10 -10 0 -5 -12 -10 -27 -10
-27 0 -73 -34 -73 -55 0 -6 11 -22 25 -35 22 -21 29 -22 45 -12 36 22 55 15
57 -22 1 -31 -2 -34 -39 -47 -39 -12 -42 -12 -56 9 -8 12 -20 22 -27 22 -8 0
-15 6 -18 13 -3 9 -9 9 -27 -1 -29 -18 -35 -9 -20 28 11 27 10 33 -6 53 -11
12 -23 25 -29 29 -12 9 -58 10 -79 2 -28 -11 -17 -24 14 -17 37 7 70 -18 70
-53 0 -25 -16 -41 -22 -22 -3 7 -10 8 -17 4 -9 -6 -10 -11 -2 -19 15 -15 14
-30 -1 -21 -6 4 -17 -1 -24 -10 -8 -11 -21 -16 -36 -13 -21 3 -21 5 10 16 34
14 41 34 18 57 -22 21 -36 17 -36 -10 0 -29 -10 -38 -30 -26 -13 8 -12 13 3
39 16 28 15 61 -3 61 -15 0 -58 -60 -65 -90 -8 -36 -25 -40 -25 -6 0 14 -4 27
-9 30 -16 10 -38 -4 -36 -25 2 -23 40 -53 60 -45 7 2 20 -6 29 -19 9 -13 29
-32 46 -41 20 -12 28 -24 25 -35 -4 -11 2 -18 17 -22 21 -6 21 -7 4 -26 -18
-19 -18 -21 3 -54 27 -45 30 -141 4 -156 -15 -8 -15 -13 -5 -36 16 -35 15 -45
-4 -45 -12 0 -15 -6 -11 -21 4 -16 -1 -23 -24 -31 -16 -5 -26 -14 -23 -19 3
-5 -6 -9 -19 -9 -17 0 -29 10 -42 33 -26 49 -16 65 22 33 40 -33 53 -33 53 2
0 37 -8 44 -32 31 -15 -8 -23 -8 -31 0 -18 18 12 32 51 25 29 -6 32 -4 32 20
0 16 -9 31 -25 42 -35 23 -87 4 -122 -47 -27 -37 -43 -49 -43 -31 0 5 7 17 15
28 21 28 18 36 -12 33 -16 -1 -50 -1 -78 0 l-50 2 55 19 c61 21 114 73 124
123 13 64 -43 157 -94 157 -10 0 -20 5 -22 12 -5 13 -28 2 -28 -13 0 -5 12
-15 28 -22 41 -18 62 -39 78 -76 12 -28 12 -40 2 -68 -18 -48 -98 -87 -98 -48
0 10 10 15 29 15 31 0 45 12 54 48 4 18 1 22 -20 22 -20 0 -23 -4 -18 -20 6
-17 2 -20 -29 -20 -26 0 -36 -4 -36 -15 0 -28 -31 -30 -51 -4 -10 13 -19 30
-19 38 0 19 30 40 57 41 33 0 39 21 13 42 -30 24 -38 23 -46 -7 -3 -14 -12
-25 -20 -25 -20 0 -17 14 11 56 31 45 32 64 3 64 -22 0 -68 -36 -68 -52 0 -12
-30 -42 -31 -31 -1 4 0 21 1 37 2 30 -6 29 -42 -2 -13 -11 -18 -12 -18 -2 0
24 32 135 48 165 l16 30 6 -24 c3 -14 10 -26 16 -28 17 -6 47 47 46 79 0 15 1
28 2 28 2 0 11 -24 20 -54 14 -43 23 -57 46 -66 38 -16 75 -6 102 25 12 14 29
25 39 25 28 0 104 36 171 81 35 23 81 50 103 60 39 18 85 25 85 13z m-393 -36
c-3 -7 -5 -2 -5 12 0 14 2 19 5 13 2 -7 2 -19 0 -25z m-622 -18 c3 -5 -1 -10
-9 -10 -9 0 -16 -4 -16 -10 0 -5 5 -10 10 -10 6 0 10 -4 10 -10 0 -16 -20 -12
-26 5 -12 30 15 61 31 35z m395 -40 c0 -5 -4 -10 -10 -10 -5 0 -10 5 -10 10 0
6 5 10 10 10 6 0 10 -4 10 -10z m-30 -18 c0 -5 -9 -27 -20 -50 -11 -22 -20
-46 -20 -52 0 -14 -7 -13 -35 6 -20 13 -23 19 -14 36 6 11 17 17 25 14 10 -4
18 4 26 24 9 27 38 43 38 22z m-380 -28 c0 -8 -6 -13 -12 -11 -8 1 -11 -6 -9
-18 8 -43 1 -118 -13 -129 -8 -6 -16 -20 -19 -31 -3 -11 -5 1 -6 28 0 26 4 47
9 47 6 0 8 11 4 25 -3 14 -2 25 3 25 5 0 8 13 5 30 -2 16 -2 36 2 45 6 18 36
9 36 -11z m1226 -41 c4 -13 3 -34 0 -47 -4 -16 -1 -28 7 -33 8 -4 19 -18 25
-29 15 -28 4 -37 -61 -53 -47 -11 -50 -11 -72 15 -13 15 -28 24 -35 19 -7 -5
6 -24 39 -57 47 -46 53 -49 98 -48 65 2 67 2 55 -13 -14 -17 -81 -21 -116 -7
-15 5 -41 24 -58 40 -18 18 -40 30 -56 30 -23 1 -25 2 -9 11 22 13 12 32 -14
24 -11 -4 -19 -2 -19 4 0 6 11 11 25 11 14 0 25 5 25 10 0 6 -8 10 -19 10 -10
0 -24 6 -30 14 -19 23 20 25 42 3 15 -15 27 -17 51 -12 17 4 44 9 59 11 16 2
33 6 38 9 13 9 11 39 -3 53 -10 10 -10 15 1 21 29 18 4 38 -43 36 -52 -2 -61
10 -16 20 16 4 32 11 36 16 8 13 43 -28 50 -58z m-1621 27 c17 -7 15 -9 -13
-9 -22 -1 -34 -7 -38 -18 -9 -31 -22 -48 -33 -46 -6 2 -8 -3 -5 -11 9 -23 42
-25 65 -5 27 24 41 24 37 2 -2 -10 -17 -22 -33 -27 -41 -14 -41 -13 -12 -40
15 -14 27 -33 27 -43 -1 -14 -5 -12 -24 11 -17 20 -30 27 -45 23 -14 -3 -25 2
-35 18 -8 12 -12 26 -8 30 4 4 7 28 7 53 0 44 2 47 35 59 41 14 49 14 75 3z
m138 -78 c34 -4 54 -22 24 -22 -19 0 -59 -49 -53 -65 3 -10 14 -11 40 -5 38 8
50 2 40 -23 -3 -10 2 -18 15 -22 14 -4 19 -14 18 -32 -1 -18 3 -26 17 -29 28
-4 56 14 56 36 0 26 43 27 67 1 10 -10 35 -24 56 -30 20 -7 37 -19 37 -27 0
-17 -4 -17 -47 -2 -48 17 -62 0 -32 -41 12 -17 29 -31 36 -31 7 0 18 -11 23
-24 6 -18 19 -26 49 -31 22 -4 45 -4 51 0 17 10 11 -7 -7 -20 -19 -14 -9 -35
18 -35 21 0 22 -1 13 -24 -6 -17 -44 -23 -44 -7 0 11 -61 37 -77 33 -8 -2 -13
7 -13 23 0 27 -31 65 -54 65 -8 0 -16 6 -19 14 -4 9 -14 12 -26 9 -16 -4 -21
-1 -21 16 0 17 -6 21 -35 21 -21 0 -43 8 -54 19 -11 11 -27 21 -38 23 -13 3
-17 11 -15 29 1 17 -8 34 -28 54 -27 26 -33 28 -51 17 -15 -10 -24 -10 -34 -2
-10 8 -14 7 -18 -2 -3 -7 -6 -1 -6 14 -1 15 -5 30 -11 33 -18 11 -10 35 15 45
14 5 28 17 32 25 3 11 11 14 22 9 9 -4 33 -9 54 -12z m-304 -23 c13 8 22 8 26
1 4 -6 12 -7 18 -3 8 5 8 2 0 -9 -7 -8 -9 -18 -5 -23 4 -4 -5 -6 -20 -3 -15 3
-29 1 -31 -5 -2 -6 -10 -5 -22 2 -16 10 -28 9 -64 -7 -38 -17 -82 -20 -67 -5
3 3 -2 12 -10 20 -17 17 -8 37 13 29 9 -4 22 -1 30 6 9 7 17 8 21 2 12 -17 62
-14 62 5 1 14 2 14 14 -2 12 -15 18 -16 35 -8z m1511 -4 c0 -9 -9 -15 -22 -15
-21 0 -21 0 -2 15 24 18 24 18 24 0z m-846 -72 c18 -38 37 -79 41 -93 4 -14
23 -39 41 -56 24 -23 34 -40 34 -62 0 -17 5 -34 12 -38 15 -10 -19 -34 -49
-34 -27 0 -29 6 -8 26 24 24 18 37 -15 32 -39 -6 -49 7 -54 68 -2 27 -4 52 -5
57 -1 4 -7 7 -13 7 -7 0 -20 5 -28 10 -13 8 -12 12 8 25 23 17 31 40 10 32 -7
-2 -24 -7 -38 -11 -21 -6 -23 -5 -10 6 22 18 24 68 4 68 -14 0 -14 3 -4 15 23
27 39 16 74 -52z m896 27 c0 -5 -7 -10 -16 -10 -8 0 -12 5 -9 10 3 6 10 10 16
10 5 0 9 -4 9 -10z m-720 -10 c0 -5 -4 -10 -10 -10 -5 0 -10 5 -10 10 0 6 5
10 10 10 6 0 10 -4 10 -10z m-910 -31 c0 -19 -25 -36 -60 -41 -19 -3 -42 -8
-51 -12 -11 -5 -19 1 -28 20 -15 34 -9 40 27 25 22 -9 35 -9 62 3 42 18 50 19
50 5z m1600 -62 c0 -33 -5 -49 -15 -53 -17 -7 -20 -40 -5 -49 6 -4 10 -24 8
-44 -1 -25 5 -48 20 -68 12 -17 22 -38 22 -47 0 -9 7 -19 15 -22 23 -9 18 -24
-9 -24 -34 0 -53 -26 -38 -51 11 -17 9 -19 -13 -20 -14 -1 -30 -2 -37 -3 -13
-1 -17 53 -17 229 1 64 5 113 11 116 6 4 7 12 2 20 -5 8 -7 24 -5 37 2 18 -2
22 -26 23 -27 0 -27 0 7 12 56 20 80 3 80 -56z m-660 53 c0 -5 -2 -10 -4 -10
-3 0 -8 5 -11 10 -3 6 -1 10 4 10 6 0 11 -4 11 -10z m-1155 -21 c0 -8 -5 -25
-12 -39 -7 -14 -13 -30 -13 -37 0 -6 -14 -22 -31 -34 -17 -12 -37 -36 -45 -53
-12 -29 -13 -29 -14 -7 0 14 10 35 22 48 17 18 19 26 10 35 -21 21 -13 46 25
77 39 32 58 35 58 10z m2185 -4 c0 -14 -4 -25 -10 -25 -5 0 -10 11 -10 25 0
14 5 25 10 25 6 0 10 -11 10 -25z m-1624 -44 c-23 -26 -15 -49 19 -53 21 -2
30 -11 40 -42 8 -22 12 -43 9 -48 -10 -15 -24 -8 -24 12 0 12 -5 17 -14 14
-20 -8 -56 60 -56 106 0 23 -5 40 -14 43 -18 7 -56 -3 -56 -14 0 -5 -5 -9 -12
-9 -6 0 -4 8 6 19 24 27 76 31 100 9 19 -17 19 -18 2 -37z m-156 30 c0 -6 -5
-13 -11 -16 -6 -4 -8 -13 -5 -21 3 -8 -1 -14 -10 -14 -11 0 -13 6 -8 22 6 20
5 21 -10 9 -9 -8 -19 -11 -23 -7 -9 9 28 35 50 36 9 0 17 -4 17 -9z m-365 -61
c0 -33 -4 -60 -9 -60 -5 0 -2 -8 7 -18 10 -10 17 -26 17 -35 0 -9 5 -17 11
-17 5 0 7 -5 4 -10 -4 -7 -11 -6 -20 2 -8 7 -21 19 -30 26 -17 14 -21 102 -5
102 6 0 10 16 10 35 0 19 3 35 8 35 4 0 7 -27 7 -60z m1080 -14 c7 -12 16 -56
20 -98 7 -75 7 -77 -14 -71 -23 6 -27 18 -10 29 8 5 6 10 -5 16 -11 6 -16 23
-16 51 0 24 -5 48 -12 55 -9 9 -8 22 2 54 14 41 14 42 18 14 2 -16 10 -39 17
-50z m-910 36 c-3 -3 -20 -6 -38 -6 -26 -1 -32 -5 -32 -23 0 -13 -3 -23 -7
-23 -5 0 -12 0 -18 0 -16 0 -12 42 5 54 16 11 102 9 90 -2z m1735 -2 c10 0 20
-8 22 -17 2 -12 13 -18 33 -18 20 0 30 -5 30 -15 0 -10 9 -14 28 -12 15 1 27
-2 27 -8 0 -5 -12 -10 -26 -10 -16 0 -24 -5 -21 -12 2 -8 16 -12 35 -10 43 5
41 -14 -3 -28 -50 -16 -43 -28 13 -22 73 7 47 -4 -68 -32 -58 -13 -113 -28
-122 -31 -30 -12 -20 9 13 28 38 21 33 32 -7 17 -27 -9 -27 -9 -10 5 10 8 24
16 30 18 6 2 7 8 3 13 -4 4 -17 3 -27 -4 -28 -17 -25 2 3 21 16 12 18 16 7 16
-9 1 -22 -5 -29 -11 -11 -11 -13 -10 -9 2 2 8 18 22 34 30 23 11 25 15 11 18
-9 2 -15 8 -11 13 7 13 -15 41 -27 33 -5 -3 -9 -1 -9 5 0 11 29 20 48 15 8 -2
22 -4 32 -4z m380 -21 c0 -5 -7 -9 -15 -9 -15 0 -20 12 -9 23 8 8 24 -1 24
-14z m-110 -24 c0 -12 -9 -30 -20 -40 -11 -10 -20 -24 -20 -32 0 -7 -4 -13 -9
-13 -15 0 -29 24 -36 61 -6 34 -5 36 27 46 42 12 58 7 58 -22z m-1960 15 c0
-5 -7 -10 -16 -10 -8 0 -12 5 -9 10 3 6 10 10 16 10 5 0 9 -4 9 -10z m984 -40
c9 -21 32 -46 56 -60 21 -14 40 -32 40 -41 0 -18 20 -29 51 -29 10 0 19 -5 19
-11 0 -6 12 -9 28 -7 24 3 27 0 25 -24 -1 -22 3 -28 18 -28 13 0 19 -7 19 -24
0 -13 9 -35 20 -49 26 -33 25 -37 -7 -37 -22 0 -35 10 -60 49 -20 31 -41 51
-58 55 -35 9 -44 0 -19 -18 53 -39 57 -44 50 -61 -6 -16 -8 -16 -24 -2 -26 23
-58 26 -54 5 3 -22 -14 -23 -34 -4 -9 10 -26 13 -49 9 -46 -7 -45 10 1 32 65
31 21 67 -52 42 -18 -6 -24 -2 -33 24 -15 45 -14 89 3 89 11 0 13 14 9 63 -5
58 -4 63 15 63 13 0 25 -12 36 -36z m-77 -2 c-3 -7 -5 -2 -5 12 0 14 2 19 5
13 2 -7 2 -19 0 -25z m-707 1 c0 -8 4 -8 14 0 10 8 16 8 24 -2 10 -12 1 -13
-50 -8 -12 1 -9 21 2 21 6 0 10 -5 10 -11z m-167 -19 c-3 -11 -7 -20 -9 -20
-2 0 -4 9 -4 20 0 11 4 20 9 20 5 0 7 -9 4 -20z m-337 -18 c-8 -9 -19 -13 -22
-9 -10 9 16 38 28 31 6 -4 4 -13 -6 -22z m250 3 c1 -14 -2 -22 -7 -19 -11 6
-12 44 -1 44 4 0 8 -11 8 -25z m521 -5 c5 -18 20 -25 50 -21 6 1 14 -3 18 -9
3 -5 15 -10 26 -10 16 0 19 -7 19 -40 0 -42 5 -46 57 -41 17 1 21 -2 17 -14
-5 -11 2 -17 24 -21 16 -3 42 -17 57 -30 26 -23 27 -24 7 -24 -13 0 -22 6 -22
15 0 9 -9 15 -21 15 -15 0 -19 -4 -15 -16 3 -9 6 -22 6 -30 0 -8 7 -14 15 -14
8 0 15 -9 15 -20 0 -11 8 -24 17 -27 12 -5 -4 -12 -47 -23 -36 -9 -132 -33
-214 -54 -142 -37 -150 -38 -177 -22 -15 9 -35 16 -46 16 -16 0 -18 9 -18 92
0 77 -4 101 -23 137 -12 25 -22 50 -22 55 0 6 -9 17 -20 24 -12 7 -18 17 -14
23 4 7 10 7 18 0 7 -6 16 -8 19 -4 4 3 7 1 7 -5 0 -18 32 -14 59 7 16 12 20
21 12 25 -6 4 -11 12 -11 19 0 6 8 3 18 -7 16 -16 16 -18 -6 -36 -15 -12 -19
-21 -11 -26 7 -4 9 -22 6 -45 -6 -43 -2 -47 24 -23 13 11 16 25 12 50 -4 22
-2 34 6 34 6 0 11 -8 11 -18 0 -24 26 -59 36 -49 4 4 2 13 -4 19 -18 18 -14
28 12 28 13 0 27 7 30 16 3 9 13 14 21 11 9 -4 12 -1 8 9 -4 10 0 12 11 8 9
-3 16 -1 16 5 0 10 -14 15 -32 12 -16 -2 -7 18 10 22 31 8 34 7 39 -13z m-402
-40 c3 -5 -1 -10 -9 -10 -9 0 -16 5 -16 10 0 6 4 10 9 10 6 0 13 -4 16 -10z
m-395 -14 c0 -11 -19 -15 -25 -6 -3 5 1 10 9 10 9 0 16 -2 16 -4z m204 -7 c9
14 56 -11 56 -31 0 -10 -5 -18 -11 -18 -6 0 -17 -7 -25 -15 -9 -8 -20 -15 -27
-15 -6 0 -2 6 9 14 19 14 19 15 0 22 -13 5 -23 2 -31 -10 -16 -21 -72 -38 -81
-24 -3 5 -16 7 -27 4 -39 -10 -64 37 -34 63 11 8 18 6 32 -9 26 -29 69 -26 90
6 13 20 19 23 30 14 8 -7 15 -7 19 -1z m259 -96 c12 -40 15 -149 4 -159 -2 -2
-20 40 -41 94 -29 76 -35 101 -27 114 6 10 11 28 11 40 0 21 2 20 19 -9 11
-17 26 -53 34 -80z m-523 55 c0 -4 -4 -8 -10 -8 -5 0 -10 7 -10 15 0 8 -4 15
-10 15 -5 0 -10 5 -10 12 0 6 9 3 20 -7 11 -10 20 -22 20 -27z m453 22 c-3
-12 -8 -19 -11 -16 -5 6 5 36 12 36 2 0 2 -9 -1 -20z m1847 -2 c-19 -5 -50 -9
-67 -8 -27 0 -33 -3 -33 -20 0 -11 -4 -20 -10 -20 -5 0 -7 7 -4 15 4 9 1 15
-7 15 -18 0 1 17 26 23 11 3 45 5 75 5 53 0 53 0 20 -10z m-200 -33 c0 -8 -11
-17 -25 -21 -37 -9 -42 2 -8 20 35 19 33 19 33 1z m227 -22 c-3 -10 -5 -4 -5
12 0 17 2 24 5 18 2 -7 2 -21 0 -30z m-1956 0 c6 -15 17 -43 26 -61 9 -18 13
-35 10 -39 -4 -3 0 -15 8 -27 8 -11 15 -31 15 -43 0 -13 5 -32 10 -43 6 -11
15 -29 20 -40 9 -17 6 -22 -17 -32 -16 -6 -35 -10 -42 -9 -8 2 -20 -3 -26 -11
-5 -7 -24 -21 -42 -31 -27 -15 -33 -15 -40 -3 -8 14 -12 16 -34 16 -5 0 -7 5
-3 12 5 8 2 9 -9 5 -14 -5 -15 -2 -6 20 8 21 7 24 -6 19 -13 -4 -15 -1 -10 14
6 19 -2 25 -32 21 -25 -3 -18 109 8 133 9 8 10 7 4 -4 -5 -8 -4 -11 0 -7 11 9
16 37 7 36 -34 -5 -72 3 -72 15 0 16 30 26 77 26 17 0 44 5 60 12 15 6 31 12
36 13 4 2 10 4 15 5 4 1 10 2 14 1 4 0 5 6 2 14 -4 8 -1 15 5 15 6 0 16 -12
22 -27z m899 -24 c0 -16 5 -29 10 -29 6 0 10 6 10 13 0 8 4 7 10 -3 5 -8 10
-29 10 -45 0 -29 -3 -31 -55 -42 -55 -12 -85 -9 -85 8 0 9 39 22 56 18 19 -3
34 1 34 11 0 6 -7 10 -15 10 -17 0 -21 35 -5 45 6 3 10 17 10 31 0 14 4 22 10
19 6 -3 10 -19 10 -36z m995 31 c3 -5 -1 -10 -10 -10 -9 0 -13 5 -10 10 3 6 8
10 10 10 2 0 7 -4 10 -10z m-2221 -39 c-4 -17 -9 -30 -11 -27 -3 2 -2 19 2 36
9 41 17 33 9 -9z m2006 9 c0 -5 -5 -10 -11 -10 -5 0 -7 5 -4 10 3 6 8 10 11
10 2 0 4 -4 4 -10z m168 -10 c2 -6 10 -10 18 -10 8 0 14 -4 14 -10 0 -18 20
-11 21 8 0 13 2 12 9 -5 10 -25 29 -31 31 -10 0 6 5 0 11 -16 5 -15 14 -25 19
-21 5 3 7 9 4 14 -3 5 -1 11 5 15 5 3 10 -3 10 -14 0 -11 5 -23 10 -26 25 -16
-6 -135 -35 -135 -8 0 -15 -6 -15 -12 0 -7 -8 2 -16 20 -17 33 -44 44 -44 18
0 -8 -4 -17 -9 -20 -4 -3 -6 6 -3 19 3 16 0 25 -8 25 -7 0 -10 6 -7 14 8 20
-4 28 -20 14 -11 -8 -12 -7 -7 6 3 9 1 16 -5 16 -6 0 -11 7 -11 15 0 22 -15
18 -28 -7 -9 -19 -10 -17 -5 17 l5 40 -21 -25 -21 -25 9 31 c7 26 5 34 -11 48
-23 20 -38 13 -38 -19 0 -13 -5 -27 -11 -30 -6 -4 -8 -14 -4 -23 5 -13 2 -12
-15 3 -23 21 -27 37 -6 29 11 -4 17 5 21 30 6 30 11 35 39 39 45 5 110 -2 114
-13z m-2228 -10 c0 -5 -5 -10 -11 -10 -5 0 -7 5 -4 10 3 6 8 10 11 10 2 0 4
-4 4 -10z m2112 -52 c-7 -7 -12 -8 -12 -2 0 14 12 26 19 19 2 -3 -1 -11 -7
-17z m-262 8 c0 -11 -19 -15 -25 -6 -3 5 1 10 9 10 9 0 16 -2 16 -4z m604 -22
c9 -22 -3 -32 -14 -14 -12 19 -12 30 -1 30 5 0 12 -7 15 -16z m-1006 -27 c17
-18 19 -26 10 -35 -9 -9 -9 -15 0 -24 9 -9 16 -7 32 7 16 14 22 15 35 5 8 -7
22 -9 31 -6 9 4 23 1 30 -5 16 -13 19 -65 4 -74 -22 -13 -10 -44 18 -47 23 -4
24 -5 9 -12 -12 -6 -24 -3 -37 9 -20 18 -57 17 -120 -1 -22 -7 -23 -6 -10 8 9
8 25 20 38 27 27 14 30 51 4 51 -20 0 -62 -51 -62 -75 0 -10 -7 -15 -17 -13
-10 2 -18 12 -18 22 0 11 -9 22 -19 26 -14 4 -16 9 -8 14 7 4 9 13 5 19 -5 7
-8 23 -8 36 0 18 -7 27 -24 31 -21 5 -22 7 -8 19 14 11 22 10 50 -8 44 -27 47
-26 47 4 0 20 -5 25 -26 25 -14 0 -23 4 -19 10 11 17 41 11 63 -13z m594 -14
c30 -33 41 -53 62 -114 19 -54 19 -59 2 -59 -8 0 -17 15 -20 34 -7 35 -36 72
-36 45 0 -8 4 -29 9 -47 5 -17 6 -32 1 -32 -4 0 -12 16 -17 36 -11 46 -29 40
-25 -8 3 -29 0 -38 -12 -38 -10 0 -16 9 -16 24 0 32 -10 56 -22 56 -7 0 -8
-15 -4 -40 3 -22 2 -40 -3 -40 -4 0 -11 18 -15 40 -8 53 -26 51 -26 -2 0 -47
-9 -45 -19 4 -9 43 -27 33 -23 -12 2 -19 1 -32 -3 -28 -7 7 -13 32 -14 61 -1
10 -5 15 -11 12 -11 -7 -11 -7 -14 58 -1 46 -1 48 34 57 100 26 143 24 172 -7z
m-263 -14 c14 -15 21 -42 26 -99 8 -90 3 -114 -33 -152 -20 -22 -22 -28 -10
-28 9 0 18 -5 20 -12 6 -18 28 0 28 23 0 36 19 60 43 54 12 -3 41 -7 65 -9 23
-3 47 -8 53 -12 26 -16 39 -75 37 -171 0 -54 -3 -83 -5 -65 -5 39 -26 38 -31
-1 -4 -32 20 -82 61 -124 28 -30 57 -43 57 -26 0 4 -17 24 -37 45 -20 21 -33
41 -29 45 4 4 12 0 17 -10 6 -9 27 -26 48 -37 21 -10 41 -26 44 -34 9 -24 64
-47 92 -40 33 8 57 45 51 75 -9 40 36 79 90 79 l27 0 -21 -23 c-27 -29 -28
-41 -2 -58 l20 -14 -20 -32 c-15 -26 -27 -33 -50 -33 -19 0 -30 -5 -30 -14 0
-9 -9 -14 -24 -13 -39 3 -33 -16 13 -37 47 -22 51 -32 16 -38 -18 -4 -26 0
-31 14 -5 17 -12 19 -42 13 -20 -4 -40 -9 -44 -12 -10 -6 2 -56 15 -65 7 -4 6
-12 -3 -23 -19 -23 -14 -81 10 -107 22 -24 25 -34 10 -43 -19 -12 -10 -45 15
-55 51 -19 17 -56 -36 -39 -75 24 -89 32 -89 50 0 12 -17 29 -50 47 -27 15
-50 31 -50 36 0 5 -7 18 -17 28 -15 17 -14 18 16 18 39 0 94 40 116 83 43 86
-22 199 -107 185 -21 -4 -20 -5 12 -20 60 -27 87 -73 75 -128 -5 -25 -12 -30
-36 -30 -16 0 -29 5 -29 10 0 6 6 10 14 10 7 0 16 10 20 23 11 41 7 48 -21 45
-24 -2 -28 -7 -25 -29 1 -17 -3 -29 -14 -33 -11 -4 -14 -13 -10 -31 9 -36 -27
-33 -65 5 -28 28 -32 62 -6 42 7 -4 18 -7 25 -6 6 1 16 2 21 3 23 3 21 61 -2
61 -6 0 -19 -8 -29 -17 -12 -11 -22 -13 -29 -6 -14 14 0 43 21 43 9 0 25 9 35
20 15 16 15 22 5 35 -7 8 -21 15 -32 15 -19 0 -98 -73 -98 -91 0 -6 -4 -8 -10
-4 -5 3 -6 13 -3 22 5 13 1 15 -23 11 -24 -3 -33 2 -51 29 l-22 33 24 0 c19 0
25 -5 25 -21 0 -14 5 -19 14 -16 7 3 19 0 25 -6 8 -8 11 -5 11 10 0 12 6 23
13 26 9 3 9 9 0 25 -10 16 -9 21 2 26 22 8 55 67 55 99 0 29 -34 110 -53 126
-10 8 -72 15 -102 12 -19 -2 20 -21 44 -21 34 0 71 -44 71 -85 0 -41 -17 -82
-38 -90 -17 -6 -18 -6 -26 21 -5 18 -1 22 24 27 36 8 40 34 9 60 -27 23 -49
15 -49 -18 0 -18 -5 -25 -20 -25 -22 0 -26 -20 -8 -38 9 -9 9 -15 1 -23 -27
-27 -113 28 -113 72 0 21 1 21 25 -5 21 -23 28 -26 40 -16 8 7 15 19 15 26 0
8 7 14 15 14 20 0 19 27 -1 48 -15 15 -18 14 -34 -6 -21 -26 -36 -28 -44 -7
-4 11 3 19 19 25 29 11 35 54 9 64 -25 9 -83 -21 -94 -49 -5 -14 -14 -25 -20
-25 -16 0 -12 37 7 56 12 12 14 19 6 21 -36 12 -63 46 -63 78 0 19 4 36 9 39
11 7 118 -49 151 -79 42 -38 90 -57 90 -36 0 5 -9 13 -21 16 -20 7 -20 7 5 40
31 40 50 113 34 132 -16 20 -31 4 -24 -28 6 -31 -8 -49 -18 -23 -5 13 -9 14
-21 4 -8 -7 -15 -18 -15 -25 0 -16 -28 -40 -37 -31 -3 3 1 14 10 23 34 38 41
109 8 89 -7 -5 -11 3 -11 23 0 38 -9 61 -25 61 -6 0 -20 9 -29 19 -17 19 -17
20 16 24 86 10 117 7 137 -14z m351 -9 c0 -5 -4 -10 -9 -10 -6 0 -13 5 -16 10
-3 6 1 10 9 10 9 0 16 -4 16 -10z m-910 -28 c0 -17 -159 -86 -249 -109 -95
-23 -177 -30 -167 -14 3 5 23 12 43 16 21 3 58 13 83 20 178 56 218 69 245 81
35 16 45 17 45 6z m1293 -9 c4 -2 5 -9 1 -14 -3 -5 0 -16 6 -24 22 -26 -12
-18 -42 10 -15 14 -32 25 -38 25 -5 0 -10 5 -10 10 0 10 63 4 83 -7z m-1193
-3 c0 -5 -4 -10 -10 -10 -5 0 -10 5 -10 10 0 6 5 10 10 10 6 0 10 -4 10 -10z
m850 -26 c0 -2 -9 -4 -20 -4 -11 0 -20 4 -20 9 0 5 9 7 20 4 11 -3 20 -7 20
-9z m-1235 -13 c-10 -8 -94 -31 -116 -31 -23 0 2 15 44 27 52 14 84 16 72 4z
m-266 -28 c-8 -9 -16 -10 -22 -4 -13 13 0 31 19 24 11 -4 12 -8 3 -20z m621
-18 c14 -18 33 -36 43 -38 22 -7 23 -62 0 -107 -33 -66 -14 -125 38 -118 l27
4 -23 -33 c-23 -35 -23 -37 1 -136 3 -15 2 -33 -4 -40 -6 -7 -27 -56 -47 -107
-20 -52 -57 -135 -82 -185 -43 -84 -46 -96 -47 -170 -1 -67 3 -86 22 -116 12
-20 31 -39 41 -42 27 -7 33 -99 9 -149 -10 -20 -18 -42 -18 -48 0 -14 -75 -4
-153 21 -88 28 -272 128 -313 170 l-37 38 59 6 c52 6 67 14 129 64 74 60 135
151 122 184 -7 20 -37 12 -37 -9 0 -31 -41 -94 -85 -129 -37 -30 -48 -35 -60
-25 -18 15 -38 3 -32 -20 3 -12 -2 -20 -14 -23 -14 -4 -19 0 -19 15 0 13 -6
18 -17 16 -11 -2 -17 -11 -15 -21 3 -20 -16 -23 -24 -3 -4 10 -18 13 -52 10
-58 -6 -72 -18 -72 -60 0 -19 -4 -34 -10 -34 -5 0 -10 6 -10 14 0 21 -27 40
-33 24 -3 -11 -9 -10 -27 1 -21 12 -25 11 -36 -3 -10 -15 -12 -15 -18 -1 -3 8
-12 15 -20 15 -19 0 -39 37 -32 57 4 10 -1 17 -15 20 -14 4 -19 11 -16 25 4
15 -2 22 -23 30 -25 8 -28 12 -17 28 6 11 8 23 4 27 -5 4 -12 1 -17 -7 -5 -8
-12 -12 -15 -8 -4 3 2 19 11 34 l18 27 -29 -7 -30 -8 23 24 c25 28 19 43 -10
27 -27 -14 -35 -3 -15 19 21 23 21 32 1 32 -9 0 -14 6 -11 14 8 19 -30 47 -60
44 -14 -2 -28 3 -30 10 -3 7 4 12 16 12 22 0 28 14 10 26 -6 3 -9 15 -6 25 7
25 -7 33 -23 14 -7 -8 -17 -15 -22 -15 -6 0 -5 6 2 15 9 11 9 21 -1 44 -17 39
-48 53 -91 40 -51 -14 -87 -11 -119 12 -37 26 -73 22 -77 -9 -2 -13 -11 -26
-20 -29 -21 -8 -47 -43 -47 -63 0 -8 -7 -15 -15 -15 -19 0 -25 -32 -9 -51 17
-20 2 -31 -22 -16 -16 10 -21 10 -26 -5 -4 -9 -1 -19 5 -21 21 -7 13 -24 -9
-19 -15 4 -23 0 -26 -14 -11 -39 -23 -17 -23 39 0 46 4 63 20 77 11 10 20 27
20 37 0 32 40 98 86 143 24 24 44 47 44 52 1 14 42 39 96 58 89 31 210 -5 247
-75 10 -19 28 -44 41 -55 13 -11 49 -49 82 -85 89 -98 130 -130 170 -130 19 0
34 -4 34 -10 0 -15 17 -12 40 7 24 21 26 33 5 33 -8 0 -15 4 -15 10 0 13 31
29 77 38 25 5 39 14 41 26 4 16 -1 18 -34 11 -56 -10 -92 -31 -109 -65 -9 -17
-18 -30 -21 -30 -27 0 -88 43 -149 106 -82 83 -88 101 -61 179 12 34 19 40 47
43 18 2 42 -2 54 -8 24 -13 97 -9 117 7 7 6 31 14 52 17 21 4 45 14 53 22 24
24 32 16 35 -38 l3 -53 40 3 c22 2 47 9 55 16 8 7 47 26 85 43 39 17 108 48
155 68 47 21 116 58 153 82 66 42 68 44 61 77 -5 32 12 106 26 106 3 0 16 -16
30 -35z m909 5 c16 -36 9 -60 -17 -60 -23 0 -48 76 -28 84 23 9 32 5 45 -24z
m192 -1 c-24 -23 -31 -24 -31 -4 0 16 30 36 43 28 5 -3 -1 -14 -12 -24z
m-1246 11 c-3 -5 -11 -10 -16 -10 -6 0 -7 5 -4 10 3 6 11 10 16 10 6 0 7 -4 4
-10z m-375 -4 c0 -11 -19 -15 -25 -6 -3 5 1 10 9 10 9 0 16 -2 16 -4z m322
-31 c-3 -19 0 -25 14 -25 16 0 16 -2 -4 -16 -12 -8 -20 -20 -17 -25 4 -5 -3
-9 -14 -9 -13 0 -21 6 -21 18 0 9 -9 23 -20 30 -12 7 -18 17 -15 22 9 14 36
12 33 -1 -2 -6 3 -14 11 -17 10 -3 13 1 9 16 -5 18 2 29 23 31 3 1 4 -10 1
-24z m1254 -22 c-10 -10 -19 5 -10 18 6 11 8 11 12 0 2 -7 1 -15 -2 -18z
m-1686 8 c0 -9 -24 -21 -41 -21 -16 0 -10 18 9 23 28 8 32 7 32 -2z m315 -11
c-3 -5 -15 -10 -25 -10 -20 0 -36 -17 -26 -28 4 -3 15 -1 25 5 17 10 19 9 17
-15 0 -15 -8 -33 -16 -39 -13 -11 -13 -15 5 -28 11 -9 28 -14 37 -12 9 3 19
-2 23 -11 6 -17 7 -16 -22 -31 -29 -15 -34 -14 -27 4 4 10 0 15 -11 15 -12 0
-16 -6 -12 -19 3 -12 -1 -22 -12 -26 -9 -4 -58 -22 -109 -41 -81 -29 -94 -31
-99 -18 -8 21 8 64 28 77 10 7 28 3 59 -12 54 -26 64 -26 57 -2 -3 15 2 20 24
25 33 6 49 47 29 71 -17 21 -37 19 -43 -5 -8 -31 -24 -24 -19 9 2 17 -3 40
-13 55 l-17 26 38 1 c22 1 50 5 64 9 36 11 52 11 45 0z m528 -57 c3 -27 8 -59
11 -73 3 -14 8 -46 11 -72 4 -32 11 -48 21 -48 9 0 14 -10 14 -27 0 -16 14
-46 30 -67 17 -22 30 -44 30 -50 0 -6 20 -23 44 -37 64 -39 135 -151 107 -168
-16 -11 84 -151 108 -151 18 0 12 15 -14 40 -14 13 -25 28 -25 32 0 5 -12 25
-26 43 -24 32 -25 36 -10 51 16 15 48 13 45 -3 -5 -27 5 -49 34 -78 18 -18 31
-38 29 -45 -3 -7 3 -17 13 -23 18 -9 18 -10 0 -23 -17 -13 -17 -14 -2 -14 9 0
17 -4 17 -9 0 -4 -11 -6 -24 -4 -13 3 -34 0 -46 -7 -17 -9 -25 -9 -39 4 -10 9
-26 16 -36 16 -14 0 -16 -6 -12 -30 14 -66 -45 -42 -77 33 -13 29 -26 71 -29
93 -4 23 -16 61 -27 85 -11 24 -20 53 -20 64 0 26 -54 83 -84 91 -27 6 -67
-11 -63 -27 1 -6 -15 -17 -36 -25 -33 -12 -39 -11 -44 2 -3 8 -1 26 5 40 6 13
9 31 6 39 -5 11 1 15 18 15 35 0 60 47 53 100 -4 35 -1 45 17 61 13 10 18 18
12 19 -6 0 -32 -22 -58 -50 -31 -33 -46 -58 -46 -77 -1 -28 -1 -28 -16 7 -20
45 -13 67 36 120 22 24 41 48 42 54 3 21 5 52 7 99 0 26 5 47 10 47 5 0 11
-21 14 -47z m818 32 c-1 -5 -7 -10 -13 -10 -7 0 -14 -8 -16 -17 -3 -18 9 -24
22 -11 3 4 13 8 21 9 12 2 12 -2 5 -17 -6 -10 -17 -19 -25 -19 -8 0 -15 -7
-15 -17 0 -15 -1 -15 -18 0 -10 10 -24 17 -30 17 -18 0 -23 16 -13 42 6 12 10
19 10 15 1 -5 11 -1 24 8 23 16 48 17 48 0z m-1721 -5 c0 -5 -4 -10 -10 -10
-5 0 -10 5 -10 10 0 6 5 10 10 10 6 0 10 -4 10 -10z m177 3 c-11 -11 -67 -13
-67 -3 0 6 17 10 37 10 20 0 33 -3 30 -7z m243 -19 c0 -8 -4 -14 -10 -14 -5 0
-10 9 -10 21 0 11 5 17 10 14 6 -3 10 -13 10 -21z m365 -31 c-4 -27 -11 -56
-16 -65 -12 -22 5 -32 31 -18 13 7 20 7 20 1 0 -12 -33 -31 -54 -31 -21 0 -21
67 -1 94 8 11 15 30 15 43 0 13 3 23 6 23 4 0 3 -21 -1 -47z m333 17 c-7 -10
-14 -17 -17 -15 -4 4 18 35 25 35 2 0 -1 -9 -8 -20z m-1259 -144 c-5 -6 -16
-3 -28 8 -18 17 -20 17 -30 -1 -9 -16 -10 -16 -11 5 0 12 -7 33 -16 47 -14 22
-14 25 7 49 13 15 29 24 36 21 8 -2 17 3 21 13 4 11 11 -11 18 -58 7 -43 8
-79 3 -84z m249 110 c13 -24 22 -52 20 -63 -2 -12 -13 1 -31 41 -30 64 -30 66
-19 66 4 0 18 -20 30 -44z m52 34 c9 15 9 16 25 -35 11 -36 -36 -8 -60 35 -8
13 -7 13 9 1 15 -13 19 -13 26 -1z m68 -14 c3 -12 -1 -17 -10 -14 -7 3 -15 13
-16 22 -3 12 1 17 10 14 7 -3 15 -13 16 -22z m292 -7 c0 -12 -8 -28 -17 -35
-26 -20 -39 -17 -20 4 10 10 17 26 17 35 0 9 5 17 10 17 6 0 10 -10 10 -21z
m-49 -12 c-13 -13 -26 -3 -16 12 3 6 11 8 17 5 6 -4 6 -10 -1 -17z m-171 -42
c0 -8 -7 -15 -15 -15 -26 0 -18 20 13 29 1 1 2 -6 2 -14z m-324 -39 c-8 -41
-76 -100 -76 -66 0 6 6 10 13 10 16 0 39 37 28 44 -5 3 -14 -1 -21 -9 -7 -8
-19 -15 -28 -15 -10 0 -7 8 12 25 14 13 32 22 40 19 8 -3 16 4 19 17 10 36 20
14 13 -25z m79 24 c7 -21 -10 -60 -26 -60 -6 0 -6 8 2 21 6 12 9 30 6 40 -7
25 10 25 18 -1z m1434 -28 l33 -27 -33 -35 c-18 -19 -30 -28 -27 -20 3 8 10
24 14 34 6 15 4 18 -9 13 -11 -4 -14 -2 -10 9 3 7 0 14 -6 14 -6 0 -11 9 -11
20 0 27 9 25 49 -8z m51 -96 c0 -3 -4 -8 -10 -11 -5 -3 -10 -1 -10 4 0 6 5 11
10 11 6 0 10 -2 10 -4z m411 -25 c24 -12 59 -35 78 -51 29 -25 35 -37 39 -83
4 -54 4 -54 -28 -60 -17 -4 -40 -2 -50 3 -10 6 -30 10 -44 10 -16 0 -26 6 -26
15 0 10 -11 15 -35 15 -43 0 -105 -50 -105 -86 0 -26 -11 -30 -40 -14 -26 14
-15 43 22 59 18 8 36 27 44 47 18 44 18 51 -6 59 -29 9 -25 20 15 45 19 12 33
25 31 29 -9 13 -106 11 -144 -4 -27 -11 -44 -27 -55 -51 -16 -32 -20 -35 -59
-32 -31 2 -44 8 -46 21 -2 11 3 17 15 17 11 0 40 13 66 30 25 16 68 36 94 45
67 21 177 15 234 -14z m-2819 -46 c-6 -34 -12 -32 -12 6 0 16 4 28 9 25 4 -3
6 -17 3 -31z m1732 17 c2 -4 0 -14 -5 -22 -8 -13 -10 -13 -19 0 -5 8 -10 18
-10 23 0 10 28 9 34 -1z m-1719 -82 c-3 -5 -1 -11 4 -14 12 -8 -16 -66 -31
-66 -6 0 -8 12 -4 31 3 17 6 43 6 56 0 21 2 23 15 13 8 -7 13 -16 10 -20z
m1825 -70 c20 -15 22 -20 11 -34 -8 -9 -9 -16 -3 -16 12 0 62 -86 62 -107 0
-9 -6 -13 -15 -9 -23 8 -18 -9 8 -28 22 -16 22 -16 -8 -10 -29 5 -29 5 -11
-10 17 -14 18 -16 3 -16 -22 0 -22 -9 1 -27 16 -13 15 -14 -5 -8 -32 9 -37
-12 -6 -24 28 -11 28 -11 -4 -5 -37 6 -45 -11 -11 -22 28 -8 88 -47 88 -56 0
-3 -24 7 -52 23 -29 16 -59 29 -65 29 -24 0 -13 -17 17 -30 36 -15 80 -48 80
-60 0 -5 -26 7 -57 26 -60 36 -73 40 -73 24 0 -5 17 -19 38 -30 34 -20 31 -21
-10 -5 -31 12 -19 -11 19 -38 41 -30 38 -35 -6 -12 -16 8 -31 12 -34 9 -3 -3
-19 4 -35 16 -18 13 -46 22 -72 23 l-42 2 5 46 c4 28 1 51 -6 58 -8 8 -7 11 6
11 13 0 17 9 17 34 0 36 23 141 42 188 10 27 40 44 57 33 17 -10 24 18 8 30
-9 7 -14 14 -11 17 8 9 36 -1 64 -22z m910 2 c0 -4 -5 -13 -12 -20 -9 -9 -9
-15 0 -24 16 -16 15 -28 -3 -28 -8 0 -15 -9 -15 -20 0 -15 7 -20 26 -20 22 0
24 -3 15 -14 -10 -11 -8 -17 9 -29 21 -14 21 -16 3 -26 -17 -11 -17 -12 2 -24
11 -7 34 -27 52 -44 17 -18 44 -38 58 -43 32 -12 28 -31 -8 -44 -21 -8 -32 -5
-61 17 -36 28 -61 33 -86 17 -12 -8 -10 -14 12 -37 20 -21 25 -32 18 -43 -14
-22 -12 -28 11 -35 16 -5 18 -10 8 -21 -23 -28 -55 -17 -72 26 -13 34 -20 40
-44 40 -28 0 -53 15 -53 32 0 4 6 8 14 8 8 0 26 14 40 31 38 45 36 108 -4 159
l-30 38 25 16 c14 9 25 24 25 33 0 20 38 63 57 63 7 0 13 -4 13 -8z m-2367
-64 l47 -46 -26 -6 c-17 -5 -37 0 -62 16 -60 36 -102 70 -97 78 2 4 24 7 47 6
36 -2 51 -10 91 -48z m2490 21 c7 0 -1 -5 -17 -10 -33 -9 -42 -6 -31 11 4 6
14 9 22 6 8 -3 20 -6 26 -7z m64 -245 c-2 -2 -18 3 -35 12 -37 18 -71 62 -69
89 1 11 -8 24 -21 30 -36 19 -40 28 -8 21 27 -7 86 9 86 22 0 3 -7 13 -16 23
-14 16 -13 18 15 24 17 4 34 12 38 18 5 7 9 -44 11 -112 1 -68 1 -125 -1 -127z
m-2740 189 c4 -62 4 -105 0 -109 -6 -6 -67 48 -67 59 0 11 50 77 59 77 3 0 7
-12 8 -27z m86 -124 c-6 -22 -5 -23 12 -9 10 8 27 29 38 45 l19 30 -7 -29 c-4
-20 -1 -33 12 -46 17 -17 19 -17 43 4 13 11 19 14 12 5 -17 -22 -8 -27 42 -22
43 5 44 5 80 -49 37 -56 44 -78 26 -78 -5 0 -10 5 -10 10 0 6 -6 10 -14 10
-18 0 -25 -38 -12 -68 8 -18 5 -27 -13 -45 -17 -18 -23 -19 -30 -8 -5 7 -20
14 -35 14 -14 0 -23 3 -21 8 11 17 -18 20 -37 2 -21 -18 -21 -18 -7 4 15 26 6
41 -15 24 -16 -13 -32 1 -21 19 3 6 0 13 -9 16 -8 3 -12 12 -9 21 4 11 0 14
-18 11 -22 -3 -24 0 -21 32 4 35 4 35 -17 16 -22 -20 -28 -8 -12 23 12 22 0
42 -27 44 -25 1 -30 36 -12 82 l10 26 29 -34 c23 -25 28 -40 24 -58z m2366 60
c16 -47 14 -74 -9 -100 l-20 -24 6 29 7 28 -27 -17 c-14 -10 -26 -24 -26 -31
0 -9 -11 -14 -27 -14 -21 0 -33 8 -46 31 -21 38 -15 51 11 19 16 -20 21 -21
43 -10 15 9 19 15 11 18 -10 3 -10 7 0 20 10 12 10 16 1 19 -20 7 -15 33 6 33
10 0 24 7 31 15 18 22 27 19 39 -16z m-2108 -12 c-13 -13 -26 -3 -16 12 3 6
11 8 17 5 6 -4 6 -10 -1 -17z m1069 -14 c0 -20 -3 -24 -11 -16 -7 7 -9 19 -6
27 10 24 17 19 17 -11z m-1140 -3 c0 -5 -4 -10 -10 -10 -5 0 -10 5 -10 10 0 6
5 10 10 10 6 0 10 -4 10 -10z m-336 -74 c25 -30 46 -57 46 -60 0 -4 -18 3 -40
14 -38 19 -40 20 -49 1 -7 -13 -18 -17 -36 -13 -23 4 -25 8 -19 36 11 52 23
76 38 76 7 0 34 -24 60 -54z m2086 34 c0 -5 -5 -10 -11 -10 -5 0 -7 5 -4 10 3
6 8 10 11 10 2 0 4 -4 4 -10z m-1980 -29 c0 -6 -4 -13 -10 -16 -5 -3 -10 1
-10 9 0 9 5 16 10 16 6 0 10 -4 10 -9z m2530 -61 c0 -5 -2 -10 -4 -10 -3 0 -8
5 -11 10 -3 6 -1 10 4 10 6 0 11 -4 11 -10z m180 -31 c0 -37 -2 -40 -22 -33
-25 8 -31 8 -70 -2 -21 -5 -28 -3 -28 9 0 9 14 17 38 21 21 3 47 15 57 26 10
11 20 20 22 20 1 0 3 -18 3 -41z m-610 -15 c0 -8 -10 -12 -25 -10 -31 3 -39
11 -32 31 5 12 11 13 32 3 14 -6 25 -17 25 -24z m-2190 14 c0 -7 -7 -21 -15
-32 -7 -10 -17 -44 -20 -75 -4 -31 -8 -67 -10 -81 -2 -14 -4 -40 -4 -58 -1
-37 -21 -35 -21 2 0 15 -7 26 -20 29 -22 6 -24 21 -9 87 5 25 12 59 15 75 3
17 14 38 26 48 23 20 58 23 58 5z m1979 -109 c57 -47 186 -66 223 -32 24 21
23 33 -2 33 -26 0 -25 15 2 34 20 14 24 14 40 -1 14 -12 34 -16 76 -14 65 3
86 15 78 47 -4 13 0 27 10 35 14 12 19 11 32 -9 9 -14 25 -22 42 -22 15 0 33
-6 39 -14 12 -14 5 -46 -11 -46 -5 0 -31 -22 -58 -49 -45 -45 -49 -53 -43 -83
11 -61 58 -88 69 -41 11 43 23 24 18 -29 -7 -76 15 -99 100 -105 43 -4 66 -2
71 6 14 23 -4 57 -40 74 -34 16 -54 41 -42 53 3 3 14 0 25 -7 25 -16 52 2 52
35 0 19 4 21 38 18 20 -2 42 -8 48 -13 14 -11 41 10 47 36 7 31 -1 -793 -9
-942 -5 -105 -10 -133 -21 -133 -10 0 -12 -6 -8 -20 5 -14 2 -20 -10 -20 -12
0 -15 -5 -10 -21 6 -19 4 -21 -15 -16 -18 5 -21 2 -17 -14 4 -15 0 -19 -19
-19 -29 0 -30 -7 -6 -33 17 -20 16 -20 -13 -13 -48 12 -50 12 -47 -6 2 -11 -3
-18 -13 -18 -20 0 -19 -16 1 -24 8 -3 12 -10 9 -16 -4 -6 -13 -7 -23 -1 -22
11 -42 3 -36 -13 4 -10 -15 -13 -75 -14 -44 -1 -82 2 -85 7 -12 19 37 61 104
91 14 6 37 23 52 37 14 14 31 22 37 19 5 -4 17 7 26 23 8 16 23 36 34 43 10 7
39 36 64 64 42 46 47 57 53 116 l7 66 -39 25 c-22 15 -67 31 -104 37 -36 6
-79 15 -97 21 -17 6 -43 12 -57 15 -149 27 -406 223 -470 360 -36 75 -39 163
-7 218 28 50 34 54 109 101 35 21 70 48 77 59 19 26 6 45 -14 20 -9 -11 -44
-37 -79 -58 -34 -20 -81 -60 -104 -88 -78 -92 -126 -94 -147 -5 -11 49 -8 72
10 62 5 -4 14 7 21 22 6 15 20 38 31 50 10 12 16 26 12 32 -8 14 -62 14 -70 1
-10 -15 -25 -12 -25 6 0 11 -8 15 -27 13 -29 -2 -123 38 -123 53 0 13 9 10 47
-17 20 -13 40 -22 45 -19 4 3 20 30 35 60 34 69 48 82 74 66 28 -18 47 -15 55
11 7 18 9 15 14 -22 5 -34 15 -51 39 -72z m2 84 c-8 -15 -10 -15 -11 -2 0 17
10 32 18 25 2 -3 -1 -13 -7 -23z m69 2 c0 -32 28 -45 45 -21 10 14 20 15 46 9
18 -5 35 -15 37 -22 4 -11 -5 -12 -41 -7 -40 6 -46 5 -52 -13 -8 -26 -49 -37
-81 -22 -33 15 -32 35 2 27 24 -6 25 -5 19 23 -4 17 -4 35 0 41 11 18 25 10
25 -15z m600 -10 c0 -8 -4 -15 -10 -15 -5 0 -10 7 -10 15 0 8 5 15 10 15 6 0
10 -7 10 -15z m89 -32 c-7 -10 -14 -19 -15 -21 -1 -1 -14 3 -30 9 l-29 12 30
7 c54 13 59 12 44 -7z m-1209 -5 l-25 -11 34 -9 c36 -10 54 -3 31 12 -12 8
-11 10 6 10 28 0 41 -16 89 -113 25 -51 47 -83 58 -85 16 -3 17 -1 7 18 -10
18 -9 21 1 15 7 -5 18 -1 26 11 12 16 15 17 23 5 7 -12 15 -13 46 -3 21 6 39
10 41 8 2 -1 -4 -17 -13 -34 -10 -21 -23 -32 -37 -33 -12 -1 -42 -2 -67 -3
-25 -2 -51 2 -58 7 -7 6 -28 43 -47 84 -18 40 -38 73 -44 73 -6 0 -11 -4 -11
-8 0 -17 63 -138 83 -161 21 -23 21 -24 2 -17 -11 5 -24 9 -30 10 -5 1 -15 5
-22 9 -15 10 -26 -8 -18 -32 4 -15 -3 -21 -39 -31 -54 -15 -86 -6 -86 23 -1
31 -25 73 -34 58 -4 -6 -4 -21 -1 -34 5 -17 4 -19 -4 -7 -6 8 -11 36 -11 62 0
34 -5 50 -17 57 -18 9 -11 26 9 26 6 0 16 15 23 34 14 42 49 71 84 70 l26 0
-25 -11z m1270 -25 c0 -26 -3 -28 -40 -28 -26 -1 -40 3 -40 12 0 7 9 13 20 13
11 0 23 7 26 15 10 26 34 17 34 -12z m-642 -31 c2 -8 -11 -12 -37 -12 -45 0
-49 5 -24 32 14 16 19 16 37 5 11 -8 22 -19 24 -25z m-2121 -39 c-8 -84 -16
-115 -29 -107 -7 4 -8 35 -4 82 8 81 11 92 28 92 7 0 9 -22 5 -67z m2653 47
c0 -5 -7 -10 -15 -10 -8 0 -15 5 -15 10 0 6 7 10 15 10 8 0 15 -4 15 -10z
m-160 -34 c-5 -14 -21 -32 -35 -38 -16 -7 -28 -23 -32 -40 -7 -34 -21 -36 -29
-4 -10 40 12 68 49 64 23 -2 32 1 32 12 1 18 15 43 21 37 3 -2 0 -16 -6 -31z
m238 2 c9 -9 7 -17 -10 -35 -30 -32 -53 -30 -54 7 -1 22 4 30 20 33 12 2 23 5
27 6 3 0 10 -4 17 -11z m-124 -35 c4 -9 1 -23 -7 -30 -12 -12 -14 -10 -15 16
-1 33 12 41 22 14z m-54 -14 c0 -11 -4 -17 -10 -14 -5 3 -10 13 -10 21 0 8 5
14 10 14 6 0 10 -9 10 -21z m-34 -64 c-9 -25 11 -63 44 -80 42 -22 41 -50 -1
-41 -17 3 -37 6 -44 6 -28 0 -47 94 -23 118 17 17 31 15 24 -3z m-812 -59 c-3
-14 -10 -26 -15 -26 -11 0 -11 3 1 36 13 33 23 26 14 -10z m56 -42 c-19 -34
-34 -30 -26 7 3 17 6 39 6 47 0 12 4 10 16 -7 14 -19 14 -27 4 -47z m-1802 40
c14 -15 14 -16 -3 -13 -10 2 -20 10 -23 17 -5 17 6 15 26 -4z m1746 -66 c3 -7
7 -25 10 -40 4 -19 14 -28 36 -33 39 -9 39 -32 -1 -40 -41 -9 -67 19 -74 79
-5 37 -3 46 10 46 9 0 17 -6 19 -12z m86 3 c0 -6 -4 -13 -10 -16 -5 -3 -10 1
-10 9 0 9 5 16 10 16 6 0 10 -4 10 -9z m20 -50 c0 -5 -13 -9 -30 -9 -16 1 -30
5 -30 10 0 4 14 8 30 8 17 0 30 -4 30 -9z m-185 -11 c-3 -5 -12 -10 -18 -10
-7 0 -6 4 3 10 19 12 23 12 15 0z m280 -52 c12 -93 58 -171 154 -265 72 -72
177 -153 197 -153 3 0 22 -13 42 -30 40 -32 110 -56 242 -85 76 -16 120 -36
120 -54 0 -8 -45 -27 -111 -46 -64 -18 -221 -21 -662 -14 -278 4 -278 4 -299
-18 -16 -17 -25 -20 -34 -12 -7 6 -32 10 -56 9 -60 -3 -68 -1 -68 10 0 6 17
10 38 10 47 0 82 10 82 22 0 6 -8 7 -17 3 -10 -3 -29 -9 -43 -11 -24 -5 -25
-3 -27 45 -3 62 23 135 111 308 48 95 68 146 76 197 6 38 13 73 16 77 2 4 17
1 32 -7 37 -18 94 -3 116 30 14 22 31 30 73 35 6 0 14 -21 18 -51z m-308 -154
c-3 -3 -12 -4 -19 -1 -8 3 -5 6 6 6 11 1 17 -2 13 -5z m-12 -34 c3 -5 1 -10
-4 -10 -6 0 -11 5 -11 10 0 6 2 10 4 10 3 0 8 -4 11 -10z m-266 -134 c24 -28
4 -29 -22 0 -16 17 -36 27 -55 28 -37 1 -32 13 11 24 28 8 33 6 42 -13 6 -12
16 -30 24 -39z m-34 -31 c27 -22 28 -26 14 -40 -14 -14 -19 -13 -59 8 -24 12
-45 28 -46 35 -1 7 0 8 3 2 7 -16 33 -12 33 5 0 22 21 18 55 -10z m-235 -25
c12 -23 8 -24 -55 -13 l-40 6 30 13 c42 18 53 17 65 -6z m54 -7 c4 -9 2 -21
-3 -26 -7 -7 -13 -4 -17 9 -4 10 -12 22 -18 26 -6 5 -2 8 10 8 12 0 25 -8 28
-17z m56 -22 c14 -27 13 -41 -4 -41 -20 0 -37 25 -30 44 8 21 21 20 34 -3z
m313 6 c10 9 7 -7 -8 -47 -10 -29 -14 -32 -20 -17 -4 10 -2 24 5 32 10 12 10
19 -1 33 -12 15 -12 16 2 5 9 -7 19 -10 22 -6z m-93 -118 c0 -5 -7 -9 -15 -9
-15 0 -20 12 -9 23 8 8 24 -1 24 -14z m-99 -26 c-8 -15 -10 -15 -11 -2 0 17
10 32 18 25 2 -3 -1 -13 -7 -23z m83 -47 c9 -19 23 -36 30 -38 13 -3 13 -6 1
-22 -14 -18 -15 -18 -44 10 -23 23 -28 35 -24 57 7 36 17 34 37 -7z m1260 -58
c-5 -9 -2 -8 9 1 42 34 32 -27 -13 -83 -43 -54 -113 -107 -146 -109 -19 -1
-28 2 -26 11 1 6 -5 12 -13 12 -8 0 -19 9 -25 21 -9 15 -15 18 -24 10 -7 -6
-16 -8 -20 -4 -4 4 -9 -2 -12 -14 -4 -15 -11 -19 -27 -15 -16 4 -19 2 -14 -11
5 -13 1 -17 -19 -17 -19 0 -25 -4 -20 -15 4 -11 -2 -15 -22 -15 -19 0 -30 -7
-37 -22 -7 -16 -22 -25 -48 -29 -46 -7 -69 -26 -47 -39 8 -5 19 -6 24 -2 19
11 69 12 82 1 8 -6 21 -9 29 -5 10 3 13 2 10 -5 -4 -5 -16 -9 -27 -7 -12 2
-23 -3 -25 -9 -3 -9 8 -13 37 -13 25 0 39 -4 35 -10 -3 -6 -18 -7 -32 -4 -18
5 -24 3 -19 -5 5 -8 -23 -11 -103 -11 -122 0 -138 10 -82 49 16 12 43 43 60
70 27 41 57 65 82 63 7 -1 52 41 92 86 16 18 33 29 39 26 5 -3 17 1 26 9 9 8
31 17 47 21 33 7 43 10 65 19 8 4 38 12 65 17 28 6 56 12 63 13 7 2 18 9 24
15 16 16 21 15 12 0z m-2779 -63 l40 -14 -42 -1 c-23 0 -44 -5 -46 -12 -3 -7
-6 -1 -6 15 -1 31 0 32 54 12z m142 -139 c-2 -6 -13 -11 -25 -10 -82 2 -102 5
-102 13 0 11 71 18 108 12 13 -2 21 -9 19 -15z m2423 -16 c0 -5 -12 -10 -27
-9 -25 0 -26 1 -8 9 27 12 35 12 35 0z m39 -14 c-2 -2 -28 -20 -56 -39 -46
-31 -53 -33 -53 -17 0 13 5 17 15 14 18 -7 20 12 3 23 -8 5 1 10 27 14 56 9
69 10 64 5z m291 -36 c0 -11 -7 -20 -15 -20 -18 0 -19 12 -3 28 16 16 18 15
18 -8z m0 -70 c0 -29 -2 -30 -46 -30 -32 0 -44 4 -41 13 2 6 16 11 30 9 14 -1
28 2 32 8 3 5 -1 10 -9 10 -8 0 -18 5 -21 10 -4 6 7 10 24 10 28 0 31 -3 31
-30z m-2210 -85 c168 -3 334 -6 370 -7 211 -1 1431 12 1616 17 l222 6 7 -107
c7 -101 3 -220 -8 -231 -3 -2 -106 -4 -229 -3 -849 4 -1315 8 -1327 9 -11 1
-8 7 8 22 14 13 21 30 19 45 -2 13 4 29 14 36 15 11 15 15 3 32 -12 16 -17 17
-30 6 -14 -12 -18 -11 -26 1 -13 20 -11 29 6 29 8 0 15 5 15 11 0 6 -12 9 -27
7 -37 -4 -41 -34 -13 -88 23 -45 21 -90 -5 -90 -8 0 -15 -4 -15 -9 0 -6 -154
-9 -377 -9 -208 1 -461 -3 -563 -7 -160 -7 -259 -9 -372 -6 l-28 1 0 169 0
170 38 3 c45 4 297 1 702 -7z"/>
<g>
<path d="M1636 4721 c-4 -5 -2 -12 3 -15 5 -4 12 -2 15 3 4 5 2 12 -3 15 -5 4
-12 2 -15 -3z"/>
</g>
<g>
<path d="M1273 4468 c-6 -7 -13 -22 -15 -33 -2 -12 -11 -20 -23 -20 -11 0 -21
-8 -23 -17 -6 -29 41 -22 72 11 27 28 32 61 10 68 -6 2 -16 -2 -21 -9z"/>
</g>
<g>
<path d="M1416 4802 c-3 -6 0 -22 8 -36 11 -22 15 -24 25 -12 7 8 11 23 9 33
-4 20 -33 30 -42 15z"/>
</g>
<g>
<path d="M1420 4645 c-10 -12 -10 -15 4 -15 9 0 16 7 16 15 0 8 -2 15 -4 15
-2 0 -9 -7 -16 -15z"/>
</g>
<g>
<path d="M2532 4512 c-14 -9 -6 -42 10 -42 5 0 6 -4 3 -10 -3 -6 1 -7 10 -4
11 5 13 10 5 19 -6 7 -8 20 -4 29 7 17 -3 21 -24 8z"/>
</g>
<g>
<path d="M2610 4389 c0 -4 6 -9 13 -12 8 -3 14 0 14 7 0 7 -6 13 -14 13 -7 0
-13 -4 -13 -8z"/>
</g>
<g>
<path d="M2117 4174 c-8 -8 1 -24 14 -24 5 0 9 7 9 15 0 15 -12 20 -23 9z"/>
</g>
<g>
<path d="M2147 4134 c-11 -11 3 -24 18 -18 8 4 12 10 9 15 -6 11 -18 12 -27 3z"/>
</g>
<g>
<path d="M1860 4350 c0 -5 7 -10 16 -10 8 0 12 5 9 10 -3 6 -10 10 -16 10 -5
0 -9 -4 -9 -10z"/>
</g>
<g>
<path d="M1879 4099 c-13 -10 -20 -21 -16 -25 4 -4 15 0 25 9 22 20 43 22 60
5 6 -6 15 -8 19 -4 9 9 -24 29 -49 31 -9 1 -27 -6 -39 -16z"/>
</g>
<g>
<path d="M1892 4068 c-24 -24 21 -48 62 -32 23 9 20 19 -9 32 -32 15 -38 15
-53 0z m53 -18 c3 -5 -1 -10 -9 -10 -9 0 -16 5 -16 10 0 6 4 10 9 10 6 0 13
-4 16 -10z"/>
</g>
<g>
<path d="M1865 3950 c-3 -5 -2 -10 4 -10 5 0 13 5 16 10 3 6 2 10 -4 10 -5 0
-13 -4 -16 -10z"/>
</g>
<g>
<path d="M2060 3890 c0 -5 5 -10 11 -10 5 0 7 5 4 10 -3 6 -8 10 -11 10 -2 0
-4 -4 -4 -10z"/>
</g>
<g>
<path d="M2221 3072 c-13 -25 -14 -42 -2 -42 10 0 25 50 17 57 -2 3 -9 -4 -15
-15z"/>
</g>
<g>
<path d="M2631 3284 c0 -11 3 -14 6 -6 3 7 2 16 -1 19 -3 4 -6 -2 -5 -13z"/>
</g>
<g>
<path d="M1350 2939 c0 -5 5 -7 10 -4 6 3 10 8 10 11 0 2 -4 4 -10 4 -5 0 -10
-5 -10 -11z"/>
</g>
<g>
<path d="M617 3033 c-42 -22 -59 -55 -51 -97 9 -50 43 -69 71 -40 8 8 18 12
22 10 8 -5 15 35 14 86 -1 26 3 36 11 31 6 -4 5 1 -3 10 -16 20 -26 20 -64 0z
m31 -42 c3 -8 -1 -12 -9 -9 -7 2 -15 10 -17 17 -3 8 1 12 9 9 7 -2 15 -10 17
-17z"/>
</g>
<g>
<path d="M2210 2404 c0 -10 52 -74 61 -74 16 0 10 26 -12 54 -18 23 -49 36
-49 20z"/>
</g>
<g>
<path d="M1182 2726 c1 -10 8 -17 13 -17 15 1 12 24 -3 29 -9 3 -13 -2 -10
-12z"/>
</g>
<g>
<path d="M1042 2538 c7 -19 38 -22 38 -4 0 10 -9 16 -21 16 -12 0 -19 -5 -17
-12z"/>
</g>
<g>
<path d="M1801 2389 c-26 -16 -31 -23 -21 -29 9 -5 24 -2 41 11 15 10 34 19
43 19 9 0 16 5 16 10 0 17 -43 11 -79 -11z"/>
</g>
<g>
<path d="M2505 1140 c-3 -5 -5 -10 -3 -11 33 -8 38 -7 27 7 -14 17 -16 17 -24
4z"/>
</g>
<g>
<path d="M2655 1009 c-3 -4 2 -6 10 -5 21 3 28 13 10 13 -9 0 -18 -4 -20 -8z"/>
</g>
<g>
<path d="M1660 1646 c0 -15 24 -66 31 -66 12 0 11 27 -1 51 -9 16 -30 27 -30
15z"/>
</g>
<g>
<path d="M1710 1617 c0 -15 5 -27 10 -27 6 0 10 4 10 10 0 5 7 7 15 4 10 -4
15 0 15 11 0 10 -5 15 -14 12 -7 -3 -19 0 -25 6 -8 8 -11 4 -11 -16z"/>
</g>
<g>
<path d="M525 270 c-3 -5 -3 -16 2 -22 4 -7 8 -49 8 -93 0 -75 1 -80 23 -83
21 -3 22 0 22 73 0 42 5 86 11 97 9 16 8 23 -2 29 -19 12 -56 11 -64 -1z"/>
</g>
<g>
<path d="M40 261 c0 -5 7 -11 15 -15 19 -7 22 -166 3 -166 -9 0 -9 -3 -1 -11
7 -7 23 -9 37 -5 24 6 26 11 26 56 0 61 15 64 52 11 19 -29 23 -42 15 -50 -8
-8 12 -11 76 -11 51 0 87 4 87 10 0 6 -4 10 -10 10 -6 0 -10 29 -10 68 l0 67
20 -25 c11 -14 20 -31 20 -37 0 -7 5 -13 10 -13 6 0 10 -6 10 -12 1 -25 39
-60 62 -56 22 3 23 8 26 96 3 91 2 92 -21 92 -22 0 -23 -3 -20 -62 l4 -63 -36
55 c-31 48 -41 56 -77 62 -41 7 -71 -3 -49 -16 6 -4 11 -40 11 -87 0 -78 0
-79 -25 -79 -14 0 -25 4 -25 8 0 5 -17 30 -37 56 -40 51 -39 71 5 91 31 14 27
25 -8 25 -17 0 -30 -5 -30 -12 0 -7 -12 -21 -25 -31 -24 -17 -25 -17 -25 2 0
11 5 23 10 26 23 14 7 25 -40 25 -27 0 -50 -4 -50 -9z"/>
</g>
<g>
<path d="M634 236 c-27 -27 -34 -42 -34 -73 0 -56 34 -86 96 -85 53 0 61 6 66
47 3 30 3 30 -50 30 -50 0 -52 1 -52 27 0 24 22 58 37 58 4 0 14 -7 23 -15 15
-14 18 -14 30 0 21 26 4 45 -41 45 -33 0 -47 -6 -75 -34z m86 -115 c0 -5 -7
-12 -16 -15 -22 -9 -24 -8 -24 9 0 8 9 15 20 15 11 0 20 -4 20 -9z"/>
</g>
<g>
<path d="M805 176 c0 -93 0 -95 25 -99 36 -7 40 -2 40 54 0 46 2 49 25 49 23
0 25 -3 25 -50 l0 -50 36 0 c31 0 35 2 24 15 -8 10 -11 41 -8 95 l3 80 -27 0
c-25 0 -28 -3 -28 -35 0 -30 -3 -35 -24 -35 -19 0 -25 7 -30 35 -6 30 -11 35
-34 35 l-27 0 0 -94z"/>
</g>
<g>
<path d="M1014 255 c-4 -8 -3 -22 0 -31 6 -16 8 -16 24 0 35 31 42 20 42 -69
l0 -85 28 0 27 0 -3 76 c-5 81 5 107 32 85 19 -16 36 -6 36 20 0 17 -8 19 -90
19 -71 0 -92 -3 -96 -15z"/>
</g>
<g>
<path d="M1556 262 c-3 -5 3 -17 14 -27 11 -10 20 -24 20 -32 0 -20 57 -143
67 -143 18 0 33 17 48 53 8 20 19 37 23 37 4 0 20 -19 36 -41 44 -62 63 -52
103 50 18 47 38 88 45 92 9 6 8 10 -5 15 -23 9 -69 -4 -61 -17 6 -11 -14 -98
-26 -112 -9 -11 -68 84 -63 101 3 6 14 12 24 12 11 0 17 5 14 10 -7 11 -125
14 -125 3 0 -5 7 -17 15 -27 19 -24 19 -53 0 -86 l-13 -25 -11 28 c-6 16 -14
46 -17 68 -5 27 -12 39 -23 39 -9 0 -26 3 -37 6 -12 3 -24 1 -28 -4z"/>
</g>
<g>
<path d="M1947 263 c-3 -3 -3 -11 0 -18 5 -15 -33 -133 -48 -149 -18 -20 -9
-36 19 -36 35 0 45 9 30 27 -8 10 -8 20 1 39 10 22 16 25 53 22 36 -3 43 -7
49 -30 4 -16 3 -30 -2 -34 -5 -3 -7 -10 -4 -15 8 -12 152 -12 160 1 3 6 -1 10
-9 10 -13 0 -16 13 -16 65 0 36 2 65 5 65 2 0 16 -21 31 -46 35 -60 72 -96 92
-92 14 3 17 17 19 73 2 39 4 80 6 93 4 19 0 22 -31 22 l-34 0 7 -55 c7 -61 -3
-71 -24 -25 -7 17 -23 43 -36 58 -20 24 -29 27 -64 24 -42 -4 -53 -15 -25 -26
23 -9 15 -149 -8 -154 -11 -2 -18 7 -23 30 -6 26 -30 85 -59 145 -3 5 -85 11
-89 6z m69 -67 c4 -16 3 -27 -2 -24 -5 3 -17 8 -26 11 -15 5 -16 10 -6 32 13
29 23 23 34 -19z"/>
</g>
<g>
<path d="M2360 263 c0 -5 5 -14 11 -20 7 -7 10 -41 8 -91 l-4 -80 43 -6 c81
-11 142 34 142 106 0 62 -30 86 -122 94 -46 4 -78 3 -78 -3z m126 -31 c18 -12
34 -49 34 -80 0 -35 -30 -65 -62 -60 -21 3 -23 8 -26 76 -3 69 -2 72 20 72 13
0 28 -4 34 -8z"/>
</g>
<g>
<path d="M2642 260 c-48 -7 -62 -21 -62 -63 0 -28 1 -29 50 -25 28 2 50 -1 51
-7 0 -5 4 -17 9 -25 4 -8 4 -25 -1 -37 -6 -16 -15 -21 -35 -18 -16 1 -30 8
-32 14 -6 18 -27 13 -52 -14 l-23 -25 82 4 c94 4 115 16 113 66 -1 45 -18 60
-68 60 -24 0 -44 4 -44 9 0 5 -3 16 -6 25 -8 22 35 22 51 -1 13 -17 35 -10 35
11 0 24 -24 32 -68 26z"/>
</g>
<g>
<path d="M1262 138 c-32 -32 2 -78 45 -62 36 13 51 38 34 58 -16 19 -62 21
-79 4z m48 -29 c0 -5 -7 -9 -15 -9 -8 0 -15 7 -15 15 0 9 6 12 15 9 8 -4 15
-10 15 -15z"/>
</g>
<g>
<path d="M2780 95 c-17 -21 -2 -36 28 -29 25 7 29 29 6 38 -21 8 -20 8 -34 -9z"/>
</g>
</g>
<g>
<path d="M1725 1186 c24 -19 48 -21 43 -3 -3 6 -18 13 -34 15 -28 3 -28 3 -9
-12z"/>
</g>
<g>
<path d="M1700 1161 c0 -10 24 -21 43 -21 7 0 3 7 -7 15 -22 17 -36 19 -36 6z"/>
</g>
<g>
<path d="M444 1005 c-18 -25 -54 -113 -54 -130 0 -3 7 -5 15 -5 8 0 15 5 15
11 0 5 12 35 26 65 31 66 30 104 -2 59z"/>
</g>
<g>
<path d="M782 921 c-25 -35 -28 -51 -8 -51 15 0 40 52 34 70 -2 6 -13 -2 -26
-19z"/>
</g>
<g>
<path d="M732 652 c-18 -4 -31 -11 -30 -17 2 -5 10 -8 18 -6 8 2 40 4 70 4 30
0 345 -1 700 -2 769 -3 765 -3 756 7 -4 4 -296 7 -649 8 -353 1 -685 3 -737 7
-52 3 -110 2 -128 -1z"/>
</g>
<g>
<path d="M275 642 c-10 -11 8 -22 36 -22 18 0 29 -5 29 -14 0 -21 85 -29 227
-23 133 7 159 10 170 21 5 5 -8 6 -27 2 -60 -10 -286 -19 -314 -12 -14 3 -26
12 -26 19 0 12 -86 38 -95 29z"/>
</g>
<g>
<path d="M2280 630 c0 -5 21 -10 47 -10 55 0 54 5 -4 14 -27 4 -43 2 -43 -4z"/>
</g>
<g>
<path d="M1086 579 c2 -4 151 -7 332 -7 180 0 320 2 312 3 -32 8 -649 11 -644
4z"/>
</g>
<g>
<path d="M2065 580 l-80 -6 82 -2 c46 -1 85 2 88 8 3 6 3 9 -2 8 -4 -1 -44 -5
-88 -8z"/>
</g>
<g>
<path d="M1883 573 c9 -2 23 -2 30 0 6 3 -1 5 -18 5 -16 0 -22 -2 -12 -5z"/>
</g>
<g>
<path d="M2178 573 c6 -2 18 -2 25 0 6 3 1 5 -13 5 -14 0 -19 -2 -12 -5z"/>
</g>
<g>
<path d="M1066 528 c-6 -4 -21 -8 -33 -8 -13 0 -23 -5 -23 -11 0 -7 10 -9 28
-4 15 4 63 10 107 14 l80 7 -74 5 c-40 2 -78 1 -85 -3z"/>
</g>
<g>
<path d="M105 520 c3 -5 13 -10 21 -10 8 0 14 5 14 10 0 6 -9 10 -21 10 -11 0
-17 -4 -14 -10z"/>
</g>
<g>
<path d="M1235 520 c3 -4 46 -11 97 -15 51 -4 105 -8 120 -10 16 -2 30 0 33 4
2 5 -39 11 -93 15 -53 4 -112 9 -129 11 -18 2 -31 -1 -28 -5z"/>
</g>
<g>
<path d="M838 513 c23 -2 61 -2 85 0 23 2 4 4 -43 4 -47 0 -66 -2 -42 -4z"/>
</g>
<g>
<path d="M1876 512 c-2 -4 -1 -14 3 -21 6 -9 49 -14 152 -16 l144 -4 -130 10
c-97 7 -131 13 -138 24 -9 16 -23 20 -31 7z"/>
</g>
<g>
<path d="M238 503 c18 -2 45 -2 60 0 15 2 0 4 -33 4 -33 0 -45 -2 -27 -4z"/>
</g>
<g>
<path d="M1558 503 c23 -2 61 -2 85 0 23 2 4 4 -43 4 -47 0 -66 -2 -42 -4z"/>
</g>
</g>
</svg>
