<?xml version="1.0" standalone="no"?>
<!DOCTYPE svg PUBLIC "-//W3C//DTD SVG 20010904//EN"
 "http://www.w3.org/TR/2001/REC-SVG-20010904/DTD/svg10.dtd">
<svg version="1.0" xmlns="http://www.w3.org/2000/svg"
 width="300.000000pt" height="524.000000pt" viewBox="0 0 300.000000 524.000000"
 preserveAspectRatio="xMidYMid meet">
<metadata>
Created by potrace 1.15, written by Peter Selinger 2001-2017
</metadata>
<g transform="translate(0.000000,524.000000) scale(0.100000,-0.100000)"
fill="#000000" stroke="none">
<g>
<path d="M14 5222 c-14 -25 -10 -4490 4 -4522 l11 -25 0 27 c1 15 5 29 11 33
13 8 137 -116 150 -150 6 -15 8 -36 5 -45 -7 -23 -36 -35 -46 -19 -4 6 -12 8
-18 5 -6 -4 -18 6 -29 23 -9 17 -20 31 -24 31 -14 0 -8 -17 12 -35 24 -21 26
-57 5 -75 -12 -10 -19 -7 -39 17 -22 24 -25 38 -26 96 0 43 -4 66 -10 62 -16
-10 -13 -645 3 -645 9 0 12 38 12 163 -1 89 1 167 3 173 2 8 131 12 445 15
492 4 447 4 832 1 306 -2 1622 14 1642 19 10 3 14 -34 18 -151 3 -85 3 -167
-1 -182 l-6 -28 -376 -3 -377 -2 390 -3 390 -2 0 940 c-1 717 -4 943 -13 952
-9 9 -11 -21 -6 -137 7 -165 0 -201 -38 -207 -18 -2 -24 -10 -26 -35 -4 -39
-22 -45 -22 -8 0 23 -3 25 -27 19 -16 -4 -31 -11 -34 -16 -7 -11 -39 0 -39 13
0 6 9 47 20 92 11 45 24 107 30 138 9 49 14 56 30 52 16 -4 20 0 20 21 0 27
15 36 23 14 2 -7 8 -9 13 -5 4 4 3 16 -3 25 -8 14 -6 23 12 45 22 24 23 35 23
142 0 63 -5 115 -9 115 -5 0 -9 6 -9 14 0 8 -17 29 -38 47 -34 29 -37 35 -28
56 6 12 16 22 21 20 19 -6 90 -161 80 -177 -8 -13 4 -52 14 -46 10 7 11 306 0
306 -5 0 -6 54 -2 123 4 67 6 345 5 617 -1 272 -2 844 -2 1270 -1 426 -3 792
-7 813 l-6 37 -1476 -1 c-1365 -1 -1478 -2 -1487 -17z m2464 -4 c-3 -9 -38
-15 -109 -18 -107 -6 -137 -14 -372 -97 -54 -19 -119 -44 -144 -55 -41 -18
-43 -21 -29 -37 15 -16 10 -19 -72 -45 -48 -15 -104 -34 -125 -42 -45 -17 -61
-11 -46 17 6 12 8 23 5 26 -7 7 -76 -16 -106 -35 -14 -9 -34 -21 -45 -27 -11
-6 -20 -19 -20 -29 0 -16 -13 -22 -68 -33 -96 -19 -116 -29 -123 -58 -3 -14
-13 -25 -22 -25 -8 0 -13 -3 -9 -6 11 -11 57 6 57 22 0 20 57 43 134 55 69 11
116 27 116 40 0 5 -9 9 -20 9 -31 0 -24 14 19 38 48 27 54 27 46 2 -4 -14 -1
-22 10 -26 33 -13 325 92 325 116 0 6 -5 10 -11 10 -54 0 199 98 339 131 47
11 125 22 175 24 56 3 98 10 112 19 23 15 164 22 373 18 l92 -2 0 -43 c0 -33
-6 -49 -25 -67 -25 -23 -34 -60 -15 -60 6 0 10 9 10 20 0 11 7 20 15 20 12 0
15 -14 15 -63 l0 -64 -51 -11 c-68 -16 -87 -15 -135 7 -23 10 -55 22 -73 26
-27 6 -31 4 -31 -14 0 -18 3 -19 18 -10 14 9 28 7 63 -9 71 -32 82 -33 143
-17 33 9 60 14 62 12 3 -3 7 -572 5 -763 l-1 -100 -69 -33 c-38 -18 -98 -36
-133 -41 -69 -11 -282 -3 -338 11 -25 6 -49 4 -87 -8 l-53 -17 -41 42 c-34 34
-39 44 -30 56 7 8 9 25 6 39 -5 19 -1 29 17 42 13 9 54 39 91 66 53 40 86 56
155 74 110 30 170 51 202 72 14 9 64 37 113 61 62 31 87 49 85 60 -2 9 5 18
16 20 22 5 55 40 56 60 0 20 -15 14 -37 -16 -12 -16 -38 -33 -63 -41 -23 -7
-48 -15 -56 -18 -8 -3 -14 0 -14 6 0 6 8 11 18 11 26 0 102 38 102 51 0 7 -7
8 -17 4 -10 -4 -42 -10 -72 -13 l-54 -5 21 31 c12 16 22 36 22 43 0 7 8 37 17
66 27 87 6 84 -94 -15 -58 -57 -103 -92 -140 -108 -30 -13 -59 -29 -66 -34
-47 -39 -61 -50 -69 -50 -18 0 -174 -116 -219 -162 -25 -26 -56 -69 -68 -97
-14 -28 -32 -52 -43 -54 -11 -3 -22 -14 -25 -25 -5 -23 -51 -36 -70 -20 -6 5
-15 22 -18 38 -6 27 -9 28 -78 32 -45 3 -107 -2 -167 -14 -52 -10 -96 -18 -97
-18 -2 0 -3 -20 -3 -44 l0 -43 -52 -6 c-29 -3 -62 -9 -73 -13 -12 -4 -7 5 15
23 31 27 33 32 20 48 -14 17 -52 17 -95 0 -34 -14 39 57 82 80 66 34 93 58 93
81 0 12 10 28 22 36 12 8 18 19 14 26 -9 15 -65 16 -100 2 -14 -5 -26 -6 -26
-1 0 9 86 53 150 76 57 22 109 51 179 103 65 49 162 102 211 117 39 11 93 37
118 56 21 16 21 18 6 27 -15 8 -13 12 14 26 18 9 32 24 32 33 0 13 -8 15 -40
10 -22 -3 -42 -1 -45 4 -9 14 55 48 115 60 58 12 98 28 71 29 -41 1 -171 -44
-191 -65 -32 -35 -20 -58 25 -49 43 8 47 -9 5 -26 -31 -13 -37 -24 -20 -35 17
-11 2 -23 -53 -41 -78 -25 -217 -98 -257 -134 -46 -41 -140 -94 -223 -124 -79
-29 -126 -55 -141 -78 -17 -28 1 -33 52 -15 81 29 112 18 47 -17 -36 -20 -46
-36 -20 -36 27 0 5 -25 -48 -53 -91 -48 -182 -152 -114 -131 12 3 34 13 49 20
30 16 68 19 68 5 0 -4 -20 -21 -45 -36 -76 -49 -65 -79 19 -51 49 17 114 21
131 8 6 -4 16 -41 23 -82 6 -41 14 -88 18 -104 5 -20 4 -27 -4 -22 -12 7 -52
-10 -62 -25 -11 -16 -82 3 -88 23 -5 20 -37 25 -47 7 -5 -7 -15 -4 -29 9 -11
11 -39 25 -61 32 -22 7 -44 16 -50 20 -22 17 -130 48 -139 40 -10 -10 17 -23
129 -65 39 -14 80 -34 93 -43 l22 -17 -21 -43 c-12 -24 -36 -57 -53 -74 -20
-20 -26 -33 -18 -36 20 -6 14 -22 -10 -22 -12 0 -33 13 -47 29 -14 16 -53 44
-86 61 -75 39 -117 76 -113 98 2 9 -5 25 -16 35 -10 9 -15 17 -11 17 5 0 1 6
-9 13 -15 11 -16 17 -7 35 17 31 13 37 -9 17 -11 -10 -20 -13 -20 -8 0 6 7 16
15 23 13 10 25 10 66 -4 58 -18 69 -19 69 -8 0 5 -29 23 -64 41 -71 36 -88 51
-108 101 -18 41 -40 62 -70 64 -12 0 -23 6 -25 13 -4 11 75 33 117 33 24 0 34
33 22 74 -12 43 -32 52 -91 40 -46 -10 -53 -9 -70 10 -31 35 -38 56 -86 247
-25 101 -59 227 -76 280 -16 52 -32 111 -35 130 -5 32 -2 36 39 62 49 30 77
35 77 12 0 -8 4 -15 10 -15 24 0 92 34 101 51 5 11 19 19 30 19 10 0 36 10 57
23 20 13 60 31 87 41 28 11 55 23 61 27 6 5 139 9 295 10 249 1 914 12 992 17
19 1 27 -2 25 -10z m-1968 -8 c11 0 20 -23 33 -84 24 -118 24 -118 -28 -139
-28 -12 -52 -31 -65 -52 -14 -23 -34 -38 -63 -48 -32 -10 -42 -19 -42 -36 0
-15 -14 -29 -44 -47 -44 -25 -64 -27 -36 -4 8 7 15 17 15 23 0 6 10 21 23 35
22 23 22 24 3 38 -11 8 -28 14 -38 14 -22 0 -85 -39 -112 -69 -13 -14 -26 -19
-41 -15 -25 6 -65 -10 -65 -27 0 -6 8 -5 21 2 17 8 23 8 29 -2 6 -9 17 -5 45
17 69 55 98 74 116 74 23 0 25 -25 4 -34 -8 -3 -15 -13 -15 -22 0 -10 -7 -25
-16 -35 -9 -10 -14 -25 -11 -33 7 -18 40 -11 87 21 19 12 40 23 47 23 8 0 13
12 13 29 0 25 5 31 30 36 33 7 80 45 80 63 0 7 18 21 39 32 50 25 55 19 75
-95 9 -49 23 -124 31 -165 20 -101 19 -106 -12 -118 -16 -5 -36 -13 -47 -17
-16 -7 -17 -6 -7 13 16 30 3 28 -77 -12 -37 -18 -79 -36 -94 -40 -36 -8 -88
-54 -88 -76 0 -18 1 -18 43 0 23 11 53 20 67 20 24 0 24 -1 -7 -21 -29 -18
-46 -59 -25 -59 18 1 32 18 26 33 -4 11 -1 17 7 17 24 1 65 38 54 49 -9 9 -36
6 -104 -15 -18 -5 -23 -4 -19 7 3 8 39 27 81 44 42 16 79 33 83 38 12 12 24 8
24 -8 0 -19 5 -19 67 5 l53 20 5 -23 c2 -12 14 -62 25 -110 11 -49 20 -113 20
-142 l0 -54 -56 -11 c-31 -7 -58 -18 -61 -26 -3 -9 1 -39 8 -67 11 -42 19 -53
38 -55 13 -2 28 1 34 7 6 6 19 11 29 11 14 0 18 -8 18 -34 0 -19 4 -37 9 -41
5 -3 12 -18 16 -34 7 -34 43 -61 79 -61 29 0 39 -21 30 -66 -12 -62 37 -101
108 -87 15 3 30 14 33 24 9 29 24 24 100 -34 39 -29 92 -66 118 -82 27 -15 58
-41 70 -56 11 -16 26 -29 32 -29 13 0 43 -33 62 -66 10 -19 9 -22 -10 -27 -12
-2 -30 -8 -40 -12 -17 -7 -18 -6 -5 14 35 57 -57 45 -259 -35 -34 -13 -76 -24
-94 -24 l-33 0 27 28 c15 15 27 33 27 38 0 6 12 21 26 33 18 16 23 26 16 33
-15 15 -75 2 -105 -22 -33 -26 -56 -26 -32 0 16 18 16 20 1 26 -16 6 -34 3
-68 -11 -13 -5 -18 -2 -18 9 0 21 1 21 -67 -10 -156 -71 -330 -170 -319 -182
3 -2 35 16 73 40 79 52 147 87 222 117 64 25 71 26 71 6 0 -19 9 -19 34 0 25
19 56 21 38 3 -19 -19 -14 -38 9 -38 11 0 37 11 57 25 37 25 72 33 72 15 0 -5
-9 -14 -20 -20 -11 -6 -20 -18 -20 -26 0 -8 -12 -26 -26 -39 -14 -13 -23 -29
-19 -34 11 -19 73 -12 134 14 67 28 229 70 237 62 3 -3 -4 -15 -16 -27 -35
-35 -12 -45 53 -24 l56 17 27 -32 c28 -34 110 -79 122 -67 3 4 1 15 -4 24 -10
16 -3 17 85 16 93 -1 142 -11 156 -33 3 -6 15 -11 25 -11 10 0 28 -16 42 -37
25 -41 67 -82 84 -83 6 0 21 -11 33 -24 13 -13 34 -27 47 -30 28 -7 31 -21 8
-34 -11 -6 -15 -17 -12 -30 6 -22 -35 -62 -104 -100 -39 -22 -98 -19 -98 5 0
15 -20 14 -64 -3 -32 -12 -15 13 22 32 20 11 37 27 37 36 0 9 4 20 8 24 4 4 7
13 7 20 0 10 -7 10 -35 -2 -19 -7 -43 -14 -53 -14 -10 0 -29 -11 -42 -25 -14
-15 -35 -25 -51 -25 -14 0 -32 -7 -39 -16 -8 -8 -23 -20 -34 -26 -20 -10 -19
-9 2 11 15 15 22 33 22 60 0 41 11 56 50 66 39 10 66 37 80 80 7 22 20 45 28
51 11 8 12 13 3 18 -7 5 -23 -5 -40 -23 -16 -17 -37 -31 -47 -31 -10 0 -47 -7
-83 -16 -52 -13 -75 -25 -108 -57 -24 -23 -43 -49 -43 -59 0 -10 -7 -18 -15
-18 -14 0 -14 3 0 30 8 16 15 35 15 41 0 7 7 21 17 31 15 17 15 18 -7 18 -19
0 -82 -31 -160 -80 -8 -5 -41 -12 -73 -15 -38 -4 -65 -13 -78 -26 -28 -28 -44
-24 -24 7 12 19 14 29 6 37 -8 8 -14 8 -23 -1 -7 -7 -18 -12 -26 -12 -12 0
-12 3 -2 15 7 9 13 34 13 57 0 32 5 46 26 64 14 12 24 24 21 27 -9 8 -132 -13
-147 -24 -7 -6 -13 -25 -13 -41 0 -32 -32 -67 -61 -68 -9 0 -19 -7 -23 -15 -3
-8 -13 -15 -23 -15 -25 0 -63 -40 -63 -67 0 -14 5 -33 11 -44 10 -19 8 -20
-26 -13 -29 5 -47 0 -104 -30 -85 -45 -121 -48 -63 -6 59 42 53 70 -14 70 -45
0 -377 -137 -371 -154 2 -6 -6 -19 -17 -29 -15 -13 -17 -20 -8 -23 23 -10 12
-21 -53 -55 -36 -18 -65 -37 -65 -41 0 -5 36 10 80 33 75 38 97 62 68 72 -7 2
1 11 18 20 18 9 31 24 30 32 -1 17 28 31 187 89 142 52 191 47 117 -13 -65
-52 -46 -79 33 -46 41 17 61 19 52 6 -9 -16 -127 -71 -150 -71 -21 0 -50 -18
-100 -64 -13 -12 -55 -41 -93 -65 -63 -39 -70 -48 -76 -82 -3 -22 -1 -57 6
-80 10 -32 19 -42 40 -46 15 -3 33 -12 39 -19 6 -8 24 -14 40 -14 23 0 28 -5
31 -27 3 -25 8 -29 53 -36 32 -6 63 -5 88 3 35 10 40 9 56 -12 18 -22 18 -23
0 -58 -26 -48 -26 -100 0 -100 11 0 23 5 27 11 4 7 22 9 48 5 121 -17 149 -17
238 -2 51 9 135 28 186 43 86 23 94 24 111 9 10 -9 22 -16 27 -16 12 0 74 -94
74 -112 0 -7 6 -21 14 -30 9 -13 10 -32 3 -80 -9 -58 -10 -95 -6 -195 3 -62
-7 -151 -18 -165 -5 -7 -24 -39 -42 -70 -41 -74 -129 -153 -226 -203 -42 -22
-81 -45 -87 -52 -6 -7 -16 -13 -22 -13 -6 0 -40 -35 -76 -77 -64 -74 -252
-268 -300 -309 -40 -33 -48 -36 -126 -45 -49 -5 -85 -15 -104 -29 -16 -11 -31
-16 -34 -11 -9 15 31 193 70 309 19 57 37 121 40 143 5 30 12 41 30 45 24 6
33 37 14 49 -25 15 4 105 34 105 18 0 66 24 66 33 0 4 -6 7 -14 7 -12 0 -31
29 -24 35 2 1 22 -8 45 -20 35 -19 39 -24 23 -28 -31 -8 -24 -34 11 -41 47 -9
85 -7 129 6 38 12 58 41 23 32 -10 -2 -24 0 -32 5 -12 8 -12 12 -2 25 11 13 9
17 -15 27 -76 30 -78 38 -11 67 55 24 77 27 77 13 0 -12 37 -23 95 -28 105 -8
110 -5 67 34 -28 26 -30 32 -25 76 5 39 10 50 29 57 13 5 31 7 39 4 9 -4 15 0
15 9 0 16 -58 27 -146 27 -48 0 -54 2 -54 20 0 16 5 19 24 14 13 -3 27 -1 31
5 8 13 -35 31 -76 31 -37 0 -39 27 -4 40 51 19 19 40 -62 40 -40 0 -43 2 -43
26 0 21 3 24 14 15 7 -6 20 -9 29 -5 8 3 18 1 22 -5 10 -17 40 -13 68 9 31 24
45 25 68 4 23 -20 49 -12 49 16 0 15 -8 22 -30 27 -17 3 -30 12 -30 19 0 11
-17 14 -69 14 -69 0 -131 -15 -131 -31 0 -5 -11 -9 -25 -9 -29 0 -32 -8 -7
-26 14 -10 15 -15 5 -25 -7 -7 -13 -21 -13 -30 0 -22 -61 -34 -91 -19 -25 14
-102 3 -96 -13 2 -7 18 -13 35 -15 18 -2 45 -16 64 -34 l32 -30 -42 -19 c-44
-21 -52 -33 -27 -43 22 -8 19 -47 -5 -53 -19 -5 -20 -7 -5 -30 15 -22 15 -26
-4 -56 -20 -34 -41 -96 -61 -187 -7 -30 -19 -60 -28 -67 -11 -10 -12 -16 -3
-26 13 -16 7 -62 -16 -122 -8 -21 -15 -52 -15 -68 -1 -20 -8 -31 -25 -38 -27
-10 -30 -24 -6 -38 16 -8 15 -15 -11 -88 -16 -43 -36 -109 -46 -148 -19 -77
-18 -76 -122 -88 -58 -7 -58 -7 -58 19 0 40 22 107 40 121 12 10 12 12 1 13
-16 0 -7 63 15 97 8 12 14 31 14 42 0 11 5 32 12 48 9 22 12 24 15 11 3 -10
10 -18 17 -18 20 0 81 46 78 59 -1 6 9 16 22 22 29 14 52 57 37 72 -13 13 -88
-8 -115 -31 -18 -16 -18 -16 -12 4 5 17 1 23 -16 29 -13 4 -29 6 -37 5 -10 -1
-12 6 -6 27 9 38 14 41 29 20 15 -19 32 -22 41 -7 7 12 -25 50 -43 50 -9 0
-12 10 -10 28 2 19 12 31 36 41 18 8 31 20 28 27 -2 6 1 17 7 23 8 8 4 11 -18
11 -27 0 -28 0 -10 20 21 24 53 26 61 5 8 -19 25 -19 91 2 31 10 53 22 53 31
0 9 -6 12 -15 8 -9 -3 -18 1 -21 9 -3 8 -14 17 -24 20 -12 4 -17 12 -13 21 5
12 -2 15 -38 12 -25 -2 -44 1 -44 7 0 6 9 10 20 10 23 0 95 42 95 55 0 34
-118 37 -180 5 -30 -16 -31 -17 -16 -40 9 -13 16 -31 16 -39 0 -8 6 -16 13
-19 6 -2 -4 -7 -24 -11 -37 -6 -37 -7 -43 -69 -18 -185 -25 -217 -47 -217 -10
0 -12 1761 -2 1883 4 44 10 67 18 67 7 0 18 7 26 16 18 22 88 56 99 49 6 -3
18 -1 27 4 15 9 14 10 -10 11 -29 0 -99 -31 -130 -58 -9 -8 -20 -13 -23 -10
-5 6 -15 1789 -9 1798 2 3 106 4 232 3 125 -2 235 -3 243 -3z m85 -125 c15
-60 33 -125 41 -144 26 -63 26 -23 0 71 -32 119 -43 202 -26 196 15 -5 33 -60
56 -168 9 -41 22 -86 29 -100 7 -14 20 -52 28 -85 40 -154 117 -475 117 -485
0 -5 -9 -10 -19 -10 -13 0 -23 11 -30 33 -18 57 -51 196 -76 318 -14 66 -32
132 -40 147 l-16 27 6 -40 c3 -22 10 -60 15 -85 43 -196 61 -274 76 -332 15
-53 16 -70 6 -80 -7 -7 -15 -8 -21 -3 -11 12 -52 178 -81 330 -12 61 -31 153
-42 205 -60 280 -71 337 -59 325 5 -6 21 -59 36 -120z m456 85 c-29 -16 -70
-35 -90 -42 -20 -7 -49 -25 -65 -40 -30 -29 -51 -32 -51 -7 -1 18 -35 14 -92
-11 -24 -10 -47 -20 -51 -20 -7 -1 -41 111 -42 138 0 9 51 12 223 12 l222 0
-54 -30z m1728 -484 c-13 -22 -28 -35 -38 -34 -11 2 -15 -3 -14 -19 2 -14 -3
-23 -10 -23 -31 0 -24 17 25 66 29 29 54 51 56 50 1 -2 -7 -20 -19 -40z m-102
-83 c-4 -3 1 -12 11 -19 16 -12 16 -13 -4 -14 -11 0 -24 3 -27 7 -7 6 10 33
21 33 3 0 2 -3 -1 -7z m-64 -44 c-6 -6 -9 -18 -6 -27 5 -12 1 -14 -20 -8 -14
3 -29 2 -32 -4 -7 -12 -35 -13 -35 -2 0 8 77 50 95 51 5 1 4 -4 -2 -10z m47
-79 c0 -6 -30 -10 -72 -9 -52 1 -66 3 -48 9 36 12 120 12 120 0z m167 -6 c-16
-8 -34 -13 -40 -11 -7 3 -1 9 13 15 38 16 59 13 27 -4z m-347 -19 c-35 -20
-57 -20 -40 0 7 8 24 15 39 15 l26 -1 -25 -14z m155 -18 c-45 -31 -125 -47
-125 -26 0 7 9 9 21 6 12 -3 37 3 58 14 42 22 77 27 46 6z m-208 -35 c-12 -2
-27 -8 -34 -14 -7 -5 -17 -6 -24 -2 -8 5 -5 12 11 24 18 14 27 15 46 6 l24
-11 -23 -3z m270 12 c-3 -3 -12 -4 -19 -1 -8 3 -5 6 6 6 11 1 17 -2 13 -5z
m-217 -41 c0 -5 -20 -17 -45 -29 -54 -25 -60 -13 -7 15 41 22 52 25 52 14z
m45 -33 c-3 -5 -18 -10 -33 -9 -24 0 -25 1 -7 9 28 12 47 12 40 0z m-1672 -13
c4 -10 -4 -14 -25 -14 -28 0 -29 1 -12 14 10 7 21 13 25 13 4 0 9 -6 12 -13z
m7 -47 c-8 -5 -24 -10 -35 -10 -17 0 -17 2 -5 10 8 5 24 10 35 10 17 0 17 -2
5 -10z m153 -20 c3 -11 2 -18 -3 -15 -4 2 -15 -4 -25 -15 -10 -11 -21 -17 -26
-14 -4 2 -16 0 -26 -5 -21 -11 -176 -51 -199 -51 -8 0 -13 4 -9 9 3 5 1 12 -5
16 -5 3 -10 -3 -10 -14 0 -24 -15 -28 -24 -6 -3 8 -17 15 -31 15 -14 0 -25 5
-25 10 0 6 9 10 20 10 10 0 72 13 137 29 98 24 182 44 214 50 4 0 9 -8 12 -19z
m1231 -25 c-4 -8 -11 -15 -16 -15 -6 0 -5 6 2 15 7 8 14 15 16 15 2 0 1 -7 -2
-15z m-51 -55 c-3 -11 -10 -20 -15 -20 -6 0 -7 7 -4 16 3 9 6 20 6 25 0 6 4 8
9 5 5 -3 7 -15 4 -26z m-213 -50 c13 -28 38 -65 55 -83 50 -50 50 -63 1 -61
-22 0 -49 -3 -58 -8 -20 -10 -55 8 -63 32 -5 14 -130 102 -184 130 -33 17 -10
30 55 30 45 0 54 -4 77 -31 14 -17 37 -37 51 -44 24 -13 26 -12 26 6 0 11 -7
33 -15 49 -15 29 -15 30 8 30 19 0 29 -11 47 -50z m-1082 28 c-3 -7 -11 -13
-18 -13 -7 0 -15 6 -17 13 -3 7 4 12 17 12 13 0 20 -5 18 -12z m1250 -25 c2
-7 -5 -20 -15 -30 -31 -31 -24 -61 19 -80 39 -17 47 -28 26 -35 -7 -3 -5 -13
7 -31 15 -24 16 -27 1 -21 -20 8 -21 -9 -2 -39 8 -12 17 -40 20 -62 5 -36 5
-37 -5 -12 -6 15 -15 27 -20 27 -10 0 -2 -43 13 -73 13 -26 1 -34 -17 -11 -14
18 -14 18 -15 -3 0 -18 -6 -23 -25 -23 -40 0 -29 -20 13 -21 l37 -1 -50 -14
c-64 -17 -106 -18 -130 0 -16 12 -13 13 32 9 45 -5 52 -3 58 16 3 11 11 21 16
21 12 0 12 37 -1 45 -5 3 -10 15 -10 26 0 16 -6 18 -42 15 -27 -2 -46 -11 -57
-25 -17 -22 -17 -22 -30 16 -14 40 -73 103 -96 103 -18 0 -28 17 -19 31 4 8 9
7 15 -2 8 -12 10 -12 18 0 7 11 11 9 20 -8 7 -11 21 -21 32 -21 12 0 23 -10
29 -25 20 -52 91 -52 148 -2 33 30 28 66 -18 127 -42 56 -50 76 -26 67 15 -6
46 22 46 42 0 15 22 10 28 -6z m-1340 -5 c-3 -7 -17 -15 -33 -20 -38 -10 -58
8 -24 21 34 14 61 13 57 -1z m153 2 c6 0 18 -17 27 -37 10 -21 26 -51 36 -66
16 -24 17 -30 5 -38 -31 -19 -75 13 -86 63 -7 37 -27 52 -50 39 -18 -9 -54 2
-42 13 13 13 75 35 87 31 8 -3 18 -5 23 -5z m-141 -45 c0 -9 -71 -37 -78 -30
-10 10 28 35 55 35 13 0 23 -2 23 -5z m13 -45 c-9 -9 -38 -14 -63 -10 -8 1 1
7 20 14 35 13 59 11 43 -4z m76 -24 c14 -55 14 -66 1 -66 -5 0 -10 7 -10 15 0
8 -7 15 -15 15 -18 0 -20 17 -2 23 9 3 9 7 -1 20 -13 16 -9 37 7 37 5 0 14
-20 20 -44z m-109 -21 c0 -8 -4 -15 -9 -15 -13 0 -22 16 -14 24 11 11 23 6 23
-9z m1238 -81 c14 -15 14 -16 -3 -13 -10 2 -20 10 -23 17 -5 17 6 15 26 -4z
m-1080 -29 c15 -32 6 -54 -24 -61 -30 -8 -54 11 -54 40 0 48 59 64 78 21z
m783 -12 c-8 -15 -10 -15 -11 -2 0 17 10 32 18 25 2 -3 -1 -13 -7 -23z m26
-25 c-3 -8 -6 -5 -6 6 -1 11 2 17 5 13 3 -3 4 -12 1 -19z m126 -31 c3 -23 8
-49 10 -57 2 -8 7 -28 12 -45 4 -16 12 -35 17 -41 4 -6 51 -17 103 -25 53 -7
100 -18 105 -24 14 -17 -15 -53 -57 -70 -48 -20 -76 -19 -91 5 -14 23 -47 25
-82 5 -35 -20 -47 -18 -54 8 -4 16 1 27 16 39 19 14 20 18 8 33 -9 10 -22 14
-37 10 -18 -4 -23 -1 -23 15 0 11 -4 20 -10 20 -5 0 -10 -5 -10 -12 0 -8 -3
-9 -10 -2 -7 7 -8 28 -4 52 7 43 20 54 30 27 4 -8 17 -15 30 -15 19 0 24 5 24
25 0 16 -6 25 -15 25 -18 0 -20 26 -2 34 10 5 10 7 0 12 -23 10 -14 32 11 27
19 -4 25 -13 29 -46z m-63 23 c0 -5 -4 -10 -10 -10 -5 0 -10 5 -10 10 0 6 5
10 10 10 6 0 10 -4 10 -10z m419 -35 c0 -5 -4 -3 -9 5 -5 8 -9 22 -9 30 0 16
17 -16 18 -35z m-524 -4 c-4 -17 -11 -31 -16 -31 -12 0 -12 17 1 25 6 3 10 16
10 27 0 12 3 19 6 15 3 -3 3 -19 -1 -36z m75 8 c0 -5 -4 -9 -10 -9 -5 0 -10 7
-10 16 0 8 5 12 10 9 6 -3 10 -10 10 -16z m160 -10 c0 -11 -4 -17 -10 -14 -5
3 -10 15 -10 26 0 11 5 17 10 14 6 -3 10 -15 10 -26z m-470 -35 c-31 -49 -18
-54 30 -10 42 38 48 40 67 28 9 -6 8 -18 -3 -53 -13 -39 -13 -53 -3 -90 7 -24
14 -53 15 -64 2 -11 6 -33 10 -50 7 -28 6 -29 -12 -15 -29 24 -81 50 -96 50
-8 0 -22 -8 -31 -18 -14 -15 -15 -23 -5 -50 15 -39 5 -51 -22 -27 -22 20 -27
73 -10 106 9 16 7 19 -10 19 -11 0 -20 7 -20 15 0 19 36 20 47 1 4 -8 17 -16
28 -18 15 -2 19 2 17 17 -6 35 -6 59 2 78 15 33 -29 19 -47 -15 l-17 -33 3 48
c1 38 9 56 32 82 39 44 52 44 25 -1z m794 -3 c-2 -3 -12 3 -22 13 -16 17 -16
18 5 5 12 -7 20 -15 17 -18z m-429 9 c3 -5 1 -10 -4 -10 -6 0 -11 5 -11 10 0
6 2 10 4 10 3 0 8 -4 11 -10z m385 -11 c0 -6 -4 -7 -10 -4 -5 3 -10 11 -10 16
0 6 5 7 10 4 6 -3 10 -11 10 -16z m53 -26 c-7 -2 -21 -2 -30 0 -10 3 -4 5 12
5 17 0 24 -2 18 -5z m-343 -13 c0 -5 -4 -10 -10 -10 -5 0 -10 5 -10 10 0 6 5
10 10 10 6 0 10 -4 10 -10z m655 -86 c48 -20 61 -39 45 -69 -20 -38 -2 -86 37
-99 48 -17 61 -33 41 -52 -21 -21 -45 -12 -58 21 -8 22 -13 24 -29 15 -25 -13
-40 6 -17 23 14 11 13 18 -5 72 -23 69 -29 77 -49 65 -11 -7 -12 -13 -2 -35 7
-14 12 -34 12 -43 -1 -15 -2 -14 -12 2 -17 29 -61 65 -80 66 -31 0 -29 -19 7
-46 39 -30 39 -45 0 -24 -20 10 -28 11 -37 2 -16 -16 -3 -28 64 -61 40 -20 52
-32 54 -51 1 -14 4 -31 6 -39 1 -7 -3 -16 -9 -18 -7 -3 -13 3 -13 12 0 12 -5
15 -17 10 -61 -24 -108 -33 -125 -24 -29 15 -21 29 17 29 19 0 35 5 35 10 0 6
-18 10 -40 10 -22 0 -40 -4 -40 -10 0 -19 -17 -10 -28 15 -16 34 -15 46 2 39
20 -8 28 10 16 40 -6 17 -6 26 0 26 6 0 10 7 10 15 0 8 -7 15 -15 15 -36 0 25
53 105 92 37 18 69 16 125 -8z m230 -43 c3 -5 2 -12 -3 -15 -5 -3 -9 1 -9 9 0
17 3 19 12 6z m-488 -108 c-3 -10 -5 -4 -5 12 0 17 2 24 5 18 2 -7 2 -21 0
-30z m-791 -10 c-7 -8 -46 12 -46 24 0 11 5 10 24 -4 13 -10 23 -19 22 -20z
m1084 -84 c0 -13 70 -20 91 -9 18 10 25 8 50 -16 16 -15 29 -31 29 -35 0 -7
-39 -22 -92 -33 -21 -5 -28 -3 -28 9 0 12 -7 14 -27 9 l-28 -7 25 22 c20 18
22 24 10 31 -8 6 -20 10 -27 10 -14 0 -33 31 -33 52 1 13 30 -19 30 -33z
m-376 5 c20 -19 20 -34 1 -34 -8 0 -19 -9 -25 -20 -6 -11 -21 -20 -33 -20 -13
0 -28 -5 -35 -12 -7 -7 -12 -8 -12 -4 0 13 44 45 63 46 12 0 17 8 17 30 0 34
3 36 24 14z m66 -19 c10 -12 10 -15 -4 -15 -9 0 -16 7 -16 15 0 8 2 15 4 15 2
0 9 -7 16 -15z m-282 -25 c37 -34 39 -40 13 -40 -19 0 -61 43 -61 61 0 16 14
9 48 -21z m502 1 c0 -12 -20 -25 -27 -18 -7 7 6 27 18 27 5 0 9 -4 9 -9z
m-225 -27 c13 -5 14 -9 3 -15 -13 -8 -12 -13 17 -81 6 -14 2 -18 -18 -18 -55
0 -95 36 -96 87 -1 27 52 43 94 27z m75 -4 c0 -5 -2 -10 -4 -10 -3 0 -8 5 -11
10 -3 6 -1 10 4 10 6 0 11 -4 11 -10z m-270 -10 c0 -5 -4 -10 -10 -10 -5 0
-10 5 -10 10 0 6 5 10 10 10 6 0 10 -4 10 -10z m763 -12 c9 -16 13 -58 13
-132 l-1 -109 -35 -12 c-35 -12 -51 -37 -31 -50 6 -3 11 -14 11 -24 0 -15 -5
-17 -32 -12 -32 7 -33 9 -44 79 -6 40 -7 72 -3 72 4 0 9 -5 11 -12 8 -22 28 3
28 33 0 45 -17 69 -47 69 -17 0 -23 4 -17 9 20 19 49 16 67 -6 10 -13 23 -21
28 -18 17 11 9 42 -13 58 l-23 15 29 31 c35 37 41 38 59 9z m-1881 -5 c-6 -10
-6 -27 0 -45 12 -34 7 -41 -43 -66 -34 -17 -49 -46 -32 -63 5 -5 24 0 46 11
44 24 51 25 44 6 -3 -7 0 -19 6 -25 8 -8 2 -11 -22 -11 -18 0 -42 -5 -54 -12
-12 -6 -42 -12 -67 -13 -25 0 -53 -5 -62 -9 -21 -10 -37 23 -30 61 5 25 22 32
22 9 0 -7 7 -19 15 -26 13 -10 19 -10 33 4 10 9 24 16 30 16 12 0 16 18 13 50
-1 9 10 27 24 40 15 14 25 35 25 51 0 28 10 37 43 38 14 1 16 -3 9 -16z m979
7 c24 -14 26 -42 2 -33 -18 7 -33 22 -33 36 0 10 8 9 31 -3z m528 -11 c35 -12
41 -29 10 -29 -25 0 -59 17 -59 30 0 13 10 13 49 -1z m-151 -24 c-3 -3 -9 2
-12 12 -6 14 -5 15 5 6 7 -7 10 -15 7 -18z m-728 -10 c0 -8 -17 -19 -41 -26
-49 -15 -79 -51 -79 -95 0 -26 -8 -39 -42 -67 -49 -41 -47 -67 6 -67 27 0 41
8 70 40 26 29 44 40 64 40 19 0 38 10 55 30 15 17 32 30 37 30 20 0 9 -27 -20
-48 -36 -27 -37 -40 -5 -71 24 -22 33 -23 80 -6 11 4 -2 -8 -28 -25 l-48 -33
-99 17 c-54 9 -144 16 -199 16 -64 0 -102 4 -107 11 -5 8 -30 10 -80 5 -71 -5
-84 -1 -65 19 13 15 31 76 26 86 -3 4 -19 3 -36 -3 -16 -6 -33 -8 -36 -4 -10
10 58 34 117 41 30 4 74 17 97 31 53 31 57 30 38 -6 -9 -16 -21 -30 -28 -30
-27 0 -50 -26 -43 -48 9 -28 21 -28 86 6 42 21 59 36 73 67 25 53 46 75 71 75
12 1 32 7 46 15 34 19 90 20 90 0z m1115 5 c3 -5 -3 -10 -15 -10 -12 0 -18 5
-15 10 3 6 10 10 15 10 5 0 12 -4 15 -10z m-75 -25 c0 -8 -7 -15 -15 -15 -8 0
-15 7 -15 15 0 8 7 15 15 15 8 0 15 -7 15 -15z m-510 -10 c-7 -8 -16 -12 -21
-9 -13 8 -1 24 18 24 13 0 13 -3 3 -15z m47 9 c-3 -3 -12 -4 -19 -1 -8 3 -5 6
6 6 11 1 17 -2 13 -5z m-110 -10 c-3 -3 -12 -4 -19 -1 -8 3 -5 6 6 6 11 1 17
-2 13 -5z m473 -29 c7 -9 21 -13 31 -10 13 5 25 -5 45 -37 15 -23 27 -49 28
-57 1 -19 -55 -35 -66 -18 -6 9 -10 8 -18 -3 -8 -12 -10 -10 -10 9 0 21 -2 22
-17 10 -9 -8 -19 -13 -22 -11 -3 2 -9 -7 -13 -20 -5 -19 -6 -17 -7 12 -1 19
-8 54 -16 78 -9 24 -13 48 -10 53 10 15 61 10 75 -6z m-330 -10 c15 -18 -7
-75 -30 -75 -8 0 -28 -16 -43 -35 -32 -40 -47 -44 -47 -15 0 17 -6 20 -27 18
-24 -3 -28 1 -31 25 -3 23 -6 26 -18 16 -8 -6 -14 -8 -14 -3 0 4 -13 -7 -29
-26 -16 -19 -33 -32 -37 -27 -4 4 5 20 20 35 15 17 24 35 21 44 -5 12 4 16 45
20 28 3 58 12 66 20 21 20 108 23 124 3z m500 -57 c0 -34 -17 -37 -30 -4 -5
13 -14 27 -20 31 -21 13 1 24 25 13 18 -8 25 -19 25 -40z m-1874 15 c-10 -10
-19 5 -10 18 6 11 8 11 12 0 2 -7 1 -15 -2 -18z m1605 -1 c15 -40 10 -49 -35
-61 -61 -15 -77 -14 -70 4 4 8 2 15 -4 15 -6 0 -12 -5 -14 -12 -3 -7 -11 2
-19 20 -11 27 -18 32 -36 27 -16 -4 -23 -1 -23 9 0 22 17 25 109 23 77 -2 84
-4 92 -25z m489 -129 l-1 -98 -26 52 -26 52 22 27 c11 15 21 35 21 45 0 11 2
19 5 19 3 0 5 -44 5 -97z m-643 65 c-3 -8 -6 -5 -6 6 -1 11 2 17 5 13 3 -3 4
-12 1 -19z m-1207 -6 c0 -27 -106 -93 -135 -83 -11 4 -36 9 -47 10 -5 1 -8 7
-8 15 0 24 53 51 115 57 33 3 63 7 68 7 4 1 7 -2 7 -6z m1374 -4 c-5 -7 -8
-28 -7 -48 1 -35 -12 -70 -25 -70 -9 0 -9 56 0 65 4 4 4 20 1 36 -5 25 -2 29
16 29 15 0 20 -4 15 -12z m-414 -8 c0 -5 -4 -10 -10 -10 -5 0 -10 5 -10 10 0
6 5 10 10 10 6 0 10 -4 10 -10z m-1204 -37 c21 -28 16 -39 -6 -15 -11 12 -20
24 -20 27 0 11 13 4 26 -12z m1244 7 c0 -5 -5 -10 -11 -10 -5 0 -7 5 -4 10 3
6 8 10 11 10 2 0 4 -4 4 -10z m-1305 -30 c15 -6 32 -24 41 -45 8 -19 19 -35
24 -35 6 0 10 -15 10 -34 0 -33 -4 -36 -107 -95 -60 -34 -113 -61 -119 -61 -7
0 -24 24 -39 52 -15 29 -42 65 -59 80 -17 15 -28 29 -26 31 8 6 99 47 106 47
3 0 3 -11 0 -24 -7 -29 4 -34 81 -37 52 -3 77 6 57 19 -5 4 -18 20 -28 36 -16
25 -22 28 -57 23 -46 -6 -43 5 9 33 42 22 69 24 107 10z m1084 -30 c-18 -22
-37 -39 -43 -37 -6 3 -20 0 -31 -5 -11 -6 2 11 28 36 62 58 91 62 46 6z m-99
25 c0 -2 -10 -10 -22 -16 -21 -11 -22 -11 -9 4 13 16 31 23 31 12z m226 -4 c5
-5 20 -11 34 -13 21 -2 25 -8 22 -33 -2 -16 -7 -33 -10 -37 -7 -7 -142 9 -150
17 -2 2 9 20 25 39 27 35 59 46 79 27z m334 -48 c119 -64 140 -80 140 -109 0
-25 -37 -84 -52 -84 -14 0 -9 27 7 40 26 22 17 37 -57 87 -135 91 -178 109
-205 82 -6 -6 -19 -9 -29 -7 -15 3 -12 7 16 25 45 28 72 23 180 -34z m40 53
c0 -11 -19 -15 -25 -6 -3 5 1 10 9 10 9 0 16 -2 16 -4z m-1325 -56 c-17 -19
-45 -27 -45 -13 0 4 10 17 22 30 28 30 51 14 23 -17z m340 11 c83 -5 165 -10
183 -10 17 -1 32 -5 32 -9 0 -9 -182 -97 -316 -153 -73 -30 -259 -99 -269 -99
-4 0 -27 115 -29 142 -2 22 8 37 47 70 73 64 104 79 157 73 25 -3 113 -9 195
-14z m330 9 c-3 -5 -12 -10 -18 -10 -7 0 -6 4 3 10 19 12 23 12 15 0z m59 -5
c-10 -8 -23 -14 -29 -14 -5 0 -1 6 9 14 11 8 24 15 30 15 5 0 1 -7 -10 -15z
m-1094 -29 c0 -8 -4 -17 -9 -21 -12 -7 -24 12 -16 25 9 15 25 12 25 -4z m917
-36 c-38 -22 -71 -40 -74 -40 -2 0 -50 -22 -106 -48 -112 -53 -167 -74 -167
-63 0 6 92 51 105 51 7 0 138 59 170 77 53 30 120 62 130 62 6 0 -21 -17 -58
-39z m914 23 c16 -10 29 -25 29 -35 0 -9 4 -19 9 -22 5 -3 7 -15 4 -26 -3 -12
1 -22 11 -26 28 -11 17 -24 -15 -17 -21 4 -34 1 -40 -8 -5 -8 -6 6 -3 36 5 43
3 53 -15 69 -19 18 -29 46 -15 46 3 0 19 -8 35 -17z m369 11 c0 -3 -7 -12 -15
-20 -13 -14 -15 -13 -15 5 0 12 6 21 15 21 8 0 15 -3 15 -6z m-292 -29 c-3
-14 -1 -28 3 -31 12 -7 11 -24 0 -24 -12 0 -25 56 -16 70 11 18 17 11 13 -15z
m-884 7 c2 -4 -19 -28 -47 -53 -154 -134 -298 -220 -472 -280 -92 -32 -111
-36 -118 -24 -4 8 -19 15 -32 15 -18 0 -25 6 -25 18 0 19 73 57 235 122 110
44 221 95 340 157 108 56 111 57 119 45z m-754 -19 c0 -6 -4 -15 -10 -18 -5
-3 -10 -1 -10 4 0 6 -7 11 -15 11 -8 0 -15 4 -15 10 0 5 11 9 25 8 14 -1 25
-8 25 -15z m870 7 c0 -5 -5 -10 -11 -10 -5 0 -7 5 -4 10 3 6 8 10 11 10 2 0 4
-4 4 -10z m190 -15 c47 -4 73 -13 95 -30 l30 -24 -17 -79 c-22 -110 -76 -220
-140 -289 -214 -228 -400 -352 -581 -386 -90 -17 -97 -13 -77 48 10 30 8 45
-10 103 -27 80 -86 182 -106 182 -32 0 -10 18 44 34 31 10 94 36 138 57 45 22
85 39 89 39 8 0 83 57 105 80 8 9 53 48 100 86 82 68 144 135 168 180 10 19
16 21 54 14 24 -4 72 -11 108 -15z m-1508 -32 c45 -46 93 -134 81 -147 -11
-10 -23 -7 -23 7 0 6 -18 40 -39 74 -37 58 -43 62 -86 69 l-46 6 28 19 c15 9
30 18 33 18 3 1 27 -20 52 -46z m2235 23 c20 -14 45 -42 57 -63 16 -28 30 -39
58 -46 23 -5 38 -16 41 -28 7 -26 -24 -25 -48 1 -10 11 -23 20 -30 20 -6 0
-28 18 -48 40 -36 40 -67 52 -67 25 0 -8 8 -19 19 -24 10 -6 22 -18 25 -27 10
-26 -54 -9 -81 22 -30 33 -29 58 3 83 33 26 28 26 71 -3z m153 -22 c0 -2 -9
-4 -20 -4 -11 0 -20 4 -20 9 0 5 9 7 20 4 11 -3 20 -7 20 -9z m-2010 -12 c0
-5 -24 -26 -54 -48 -172 -124 -206 -145 -228 -142 -21 3 -20 5 12 21 44 22 66
39 71 54 4 12 175 121 192 122 4 1 7 -3 7 -7z m813 -12 c-3 -11 0 -27 7 -35 6
-8 8 -19 4 -26 -5 -8 -9 -7 -16 4 -6 12 -17 15 -41 10 l-32 -6 34 37 c39 41
52 45 44 16z m67 11 c0 -5 -9 -19 -20 -32 -21 -26 -27 -11 -10 22 11 19 30 26
30 10z m-814 -28 c-10 -10 -19 5 -10 18 6 11 8 11 12 0 2 -7 1 -15 -2 -18z
m-508 4 c32 -18 95 -126 95 -162 0 -16 5 -33 11 -37 8 -5 8 -8 0 -8 -6 0 -21
11 -34 25 -30 32 -47 31 -132 -6 -54 -23 -72 -28 -83 -19 -8 6 -23 9 -35 5
-15 -5 -22 0 -30 20 -6 15 -8 31 -4 36 7 13 58 11 71 -2 16 -16 33 -2 33 27 0
18 -10 31 -37 47 -23 13 -32 23 -23 25 8 1 42 16 75 32 70 34 64 33 93 17z
m2482 -13 c0 -14 -4 -23 -10 -19 -5 3 -10 15 -10 26 0 10 5 19 10 19 6 0 10
-12 10 -26z m-2020 -14 c6 -11 10 -46 8 -78 l-3 -57 -115 -21 c-162 -30 -173
-10 -44 78 43 29 89 63 103 75 32 28 38 28 51 3z m1730 -20 c0 -5 -4 -10 -10
-10 -5 0 -10 5 -10 10 0 6 5 10 10 10 6 0 10 -4 10 -10z m-447 -84 c-16 -19
-23 -38 -20 -52 2 -14 -2 -25 -11 -29 -8 -3 -11 -12 -8 -20 3 -9 0 -15 -10
-15 -8 0 -22 -16 -30 -36 -18 -44 -6 -64 38 -64 28 0 30 -2 23 -27 -3 -16 -14
-36 -22 -46 -13 -14 -14 -22 -5 -43 17 -35 15 -44 -7 -44 -16 0 -19 6 -17 34
2 18 6 38 10 45 11 17 -12 41 -39 41 -13 0 -38 -16 -59 -37 -38 -40 -42 -48
-26 -58 31 -19 -5 -74 -37 -56 -14 8 -15 10 -3 11 13 0 13 2 1 9 -12 8 -12 12
-2 25 8 10 9 16 3 16 -18 0 -40 -40 -35 -61 3 -12 20 -23 44 -29 22 -6 39 -15
39 -20 0 -5 -22 -28 -50 -52 -37 -32 -50 -50 -50 -70 0 -17 -8 -33 -20 -40
-11 -7 -20 -18 -20 -25 0 -19 -40 -37 -90 -41 -25 -1 -59 -4 -77 -5 -17 -1
-29 -5 -27 -9 3 -4 -11 -15 -30 -25 -20 -9 -36 -23 -36 -30 0 -7 -4 -13 -10
-13 -5 0 -10 -7 -10 -15 0 -8 5 -15 11 -15 5 0 7 -4 4 -10 -3 -5 -15 -10 -25
-10 -11 0 -27 -12 -37 -27 -9 -16 -18 -30 -20 -32 -4 -6 -33 21 -33 31 0 6 7
8 15 5 8 -4 17 -2 20 3 9 14 -7 41 -21 36 -8 -3 -14 -1 -14 5 0 6 -10 9 -22 7
-20 -3 -23 -8 -20 -45 2 -40 0 -43 -23 -43 -14 0 -25 -4 -25 -10 0 -5 -4 -10
-10 -10 -16 0 -23 50 -11 76 9 20 8 26 -4 30 -8 4 -21 1 -29 -5 -11 -9 -15 -5
-20 20 -3 17 -6 53 -6 80 l0 49 38 0 c65 0 182 43 287 105 95 56 303 222 304
243 1 6 6 12 11 12 6 0 10 4 10 9 0 5 21 31 48 59 40 43 92 129 118 197 4 11
8 22 9 25 1 3 8 20 14 37 l13 33 18 -22 c17 -22 17 -23 -7 -52z m-554 13 c-45
-39 -176 -129 -187 -129 -6 0 -12 6 -15 14 -3 8 -18 16 -34 18 -36 4 -34 18 6
39 17 9 38 22 46 29 21 17 29 7 14 -18 -15 -24 -5 -54 15 -46 8 3 16 15 18 27
2 17 11 23 41 25 21 2 37 8 37 16 0 14 48 61 70 68 28 9 22 -14 -11 -43z
m-659 4 c0 -7 -4 -13 -10 -13 -5 0 -10 12 -10 28 0 21 2 24 10 12 5 -8 10 -21
10 -27z m240 25 c-98 -44 -134 -58 -198 -82 -40 -14 -96 -30 -125 -35 -29 -5
-70 -14 -92 -20 -52 -14 -136 -14 -115 -1 8 5 30 10 48 10 48 0 144 26 322 85
144 49 218 68 160 43z m360 2 c0 -5 -9 -10 -21 -10 -11 0 -17 5 -14 10 3 6 13
10 21 10 8 0 14 -4 14 -10z m1180 -1 c0 -3 -10 -15 -22 -27 -23 -20 -23 -20
-46 -2 -13 11 -21 23 -18 28 5 9 86 10 86 1z m-344 -50 c-3 -16 -13 -40 -22
-52 l-16 -22 7 25 c18 70 43 109 31 49z m434 22 c0 -5 -7 -12 -16 -15 -24 -9
-28 -7 -14 9 14 17 30 20 30 6z m53 -8 c-7 -2 -19 -2 -25 0 -7 3 -2 5 12 5 14
0 19 -2 13 -5z m-379 -9 c9 -3 16 -12 16 -20 0 -8 5 -14 10 -14 23 0 8 -28
-17 -33 -35 -7 -43 1 -19 18 21 16 13 35 -15 35 -10 0 -19 5 -19 10 0 11 20
13 44 4z m380 -23 c3 -5 -5 -11 -19 -13 -24 -5 -32 2 -18 15 9 10 31 9 37 -2z
m-81 -12 c-8 -8 -8 -20 -1 -40 6 -18 6 -34 0 -45 -9 -16 -11 -15 -21 5 -9 15
-18 20 -32 16 -14 -5 -19 -2 -19 14 0 11 -4 23 -10 26 -5 3 -10 10 -10 15 0
11 43 0 53 -14 5 -6 6 -2 3 9 -5 17 -1 21 21 23 20 2 24 -1 16 -9z m-593 -54
c-7 -8 -16 -12 -21 -9 -14 8 -11 52 4 57 19 7 32 -30 17 -48z m-1805 15 c-3
-5 -13 -10 -21 -10 -8 0 -12 5 -9 10 3 6 13 10 21 10 8 0 12 -4 9 -10z m215 1
c0 -5 -13 -19 -30 -31 -35 -25 -39 -16 -8 17 22 24 38 30 38 14z m2079 -31
c11 -24 11 -24 -3 -6 -9 11 -16 24 -16 30 0 12 5 7 19 -24z m155 24 c22 -8 20
-31 -3 -37 -15 -3 -18 1 -17 19 0 13 2 24 3 24 1 0 8 -3 17 -6z m-2434 -19
c-14 -7 -27 -11 -30 -9 -6 7 22 24 40 23 9 0 5 -6 -10 -14z m2130 -44 c0 -34
20 -76 44 -93 22 -15 -16 -8 -44 8 -53 32 -79 112 -43 133 26 14 43 -5 43 -48z
m-2195 39 c-3 -5 -13 -10 -21 -10 -8 0 -14 5 -14 10 0 6 9 10 21 10 11 0 17
-4 14 -10z m592 -15 c-4 -8 -11 -15 -17 -15 -14 0 -13 27 3 33 16 6 21 1 14
-18z m1966 -12 c3 -21 8 -49 12 -63 l8 -25 -26 28 c-28 29 -31 38 -21 75 9 33
21 27 27 -15z m-2403 19 c0 -4 -9 -13 -20 -20 -11 -7 -20 -19 -20 -27 0 -9
-10 -15 -25 -15 -16 0 -25 6 -25 15 0 17 -25 20 -35 5 -9 -14 -27 -12 -23 2 9
25 148 63 148 40z m1730 -2 c0 -5 -4 -10 -10 -10 -5 0 -10 5 -10 10 0 6 5 10
10 10 6 0 10 -4 10 -10z m-1385 -10 c3 -5 -3 -10 -14 -10 -12 0 -21 5 -21 10
0 6 6 10 14 10 8 0 18 -4 21 -10z m309 -45 c-38 -34 -61 -41 -97 -26 -14 5 -4
13 45 33 86 36 99 35 52 -7z m216 30 c0 -6 -48 -30 -77 -39 -28 -9 -31 11 -5
30 16 12 82 20 82 9z m829 -11 c3 -2 -3 -12 -12 -21 -11 -11 -17 -13 -17 -5 0
9 -7 9 -29 -2 -24 -13 -30 -13 -34 -2 -11 27 22 48 63 40 14 -3 27 -8 29 -10z
m-1501 -4 c9 -5 40 -14 67 -19 47 -9 45 -9 -37 -9 -79 1 -88 2 -88 19 0 21 29
26 58 9z m2136 -15 c13 -20 14 -25 3 -25 -17 0 -49 34 -40 43 11 12 20 8 37
-18z m-2244 -18 c0 -16 -35 -1 -38 16 -3 16 -1 17 17 5 12 -7 21 -17 21 -21z
m300 13 c0 -5 -7 -10 -16 -10 -8 0 -12 5 -9 10 3 6 10 10 16 10 5 0 9 -4 9
-10z m343 -17 c7 -7 -59 -42 -78 -42 -5 0 3 11 18 24 28 25 48 31 60 18z
m1412 -2 c10 -17 -12 -21 -25 -6 -10 12 -10 15 3 15 9 0 18 -4 22 -9z m-454
-38 c-12 -20 -14 -14 -5 12 4 9 9 14 11 11 3 -2 0 -13 -6 -23z m134 16 c4 -6
17 -14 29 -19 17 -7 17 -9 4 -9 -10 -1 -18 -5 -18 -11 0 -5 -10 -14 -21 -21
-16 -8 -27 -8 -45 2 l-24 12 28 28 c30 31 38 34 47 18z m-1372 -6 c-7 -2 -19
-2 -25 0 -7 3 -2 5 12 5 14 0 19 -2 13 -5z m1747 1 c0 -3 -7 -12 -15 -20 -16
-17 -18 -14 -9 10 6 15 24 23 24 10z m-1842 -38 c-16 -15 -28 -32 -28 -37 0
-14 33 -10 54 6 25 19 36 19 36 1 0 -16 -13 -19 -122 -36 -82 -13 -108 -10
-108 14 0 23 39 30 59 12 24 -22 38 -20 46 4 12 39 -11 50 -103 50 -91 0 -122
-13 -122 -52 0 -10 -7 -18 -15 -18 -22 0 -18 25 10 58 l25 30 147 -2 148 -1
-27 -29z m1605 28 c12 -13 -3 -21 -28 -17 -13 3 -22 9 -19 14 6 10 38 12 47 3z
m-1403 -24 c17 -10 15 -11 -54 -29 -48 -13 -56 -7 -30 18 20 21 60 26 84 11z
m1775 -30 c17 -33 11 -60 -8 -41 -6 6 -28 11 -48 11 -25 0 -39 5 -43 17 -9 24
9 39 28 23 13 -10 17 -9 22 4 10 25 32 19 49 -14z m-281 -7 c11 -15 20 -30 19
-33 -1 -6 34 -10 85 -11 17 0 32 -5 32 -10 0 -5 -5 -9 -12 -9 -6 0 -19 -7 -28
-15 -14 -12 -23 -13 -51 -4 -49 17 -76 44 -76 79 0 37 4 37 31 3z m345 13 c10
-12 9 -21 -3 -43 -13 -23 -15 -25 -16 -8 0 11 -3 30 -6 43 -7 25 7 29 25 8z
m-2246 -16 c4 -16 0 -20 -19 -20 -13 0 -24 6 -24 13 0 32 35 37 43 7z m1417
-9 c0 -16 -6 -32 -12 -34 -10 -4 -10 -8 1 -15 18 -13 7 -28 -23 -34 -23 -5
-24 -3 -21 34 6 58 14 78 36 78 14 0 19 -7 19 -29z m640 25 c0 -3 -4 -8 -10
-11 -5 -3 -10 -1 -10 4 0 6 5 11 10 11 6 0 10 -2 10 -4z m-265 -21 c0 -5 -10
-11 -22 -13 -25 -4 -30 -17 -10 -25 9 -4 8 -8 -3 -16 -13 -10 -13 -12 0 -21 8
-5 23 -10 32 -10 22 0 48 -11 48 -20 0 -4 -17 -3 -38 3 -22 6 -48 7 -58 3 -16
-7 -13 -10 20 -22 52 -19 56 -24 14 -17 -51 8 -55 -11 -6 -30 23 -9 39 -19 36
-22 -3 -3 -17 -1 -31 6 -15 7 -37 8 -54 4 l-28 -8 37 -11 c46 -14 63 -30 23
-22 -55 11 -57 -8 -4 -33 52 -25 71 -22 52 8 -11 17 -9 17 32 2 43 -15 43 -30
0 -31 -11 0 -28 -7 -38 -15 -16 -12 -21 -11 -38 6 -15 15 -28 19 -48 14 -23
-5 -29 -2 -34 14 -5 22 -41 29 -52 11 -10 -16 -45 -12 -45 5 0 8 6 15 14 15
20 0 45 32 29 37 -20 7 -15 38 18 108 41 88 52 97 108 93 25 -2 46 -7 46 -13z
m40 -55 c3 -5 -1 -10 -9 -10 -8 0 -18 5 -21 10 -3 6 1 10 9 10 8 0 18 -4 21
-10z m450 -29 c-3 -6 -11 -11 -17 -11 -6 0 -6 6 2 15 14 17 26 13 15 -4z
m-873 -37 c-3 -15 1 -29 7 -34 9 -5 8 -16 -5 -43 -21 -45 -34 -47 -34 -8 0 20
6 31 18 34 14 3 12 6 -10 17 -25 12 -26 14 -11 36 21 33 42 31 35 -2z m468
-49 c17 -9 30 -17 30 -19 0 -9 -51 8 -61 20 -15 18 -5 18 31 -1z m120 -25 c-6
-11 -13 -20 -16 -20 -2 0 0 9 6 20 6 11 13 20 16 20 2 0 0 -9 -6 -20z m-135
-16 c20 -8 35 -17 32 -20 -6 -6 -77 22 -77 30 0 8 4 8 45 -10z m-519 -21 c3
-10 11 -31 19 -48 20 -44 8 -215 -16 -215 -11 0 -47 71 -65 129 -21 71 -18
106 12 130 33 26 43 26 50 4z m638 -9 c3 -8 2 -12 -4 -9 -6 3 -10 10 -10 16 0
14 7 11 14 -7z m-354 -80 c25 -57 26 -77 2 -46 -20 26 -32 19 -51 -29 -5 -13
-10 -17 -10 -9 -1 8 8 32 19 53 11 20 16 37 11 37 -5 0 -11 9 -14 20 -10 40
22 20 43 -26z m330 36 c0 -5 -12 -10 -27 -10 -66 0 -142 -37 -127 -62 5 -7 9
-16 10 -20 1 -5 2 -10 3 -13 0 -3 18 4 39 14 56 29 85 36 80 20 -3 -8 -15 -16
-29 -17 -13 -2 -31 -10 -39 -17 -8 -7 -31 -15 -50 -17 -27 -2 -34 -7 -32 -20
2 -10 -2 -18 -8 -18 -5 0 -10 5 -10 10 0 17 -29 11 -50 -10 -21 -21 -37 -24
-64 -14 -24 9 -21 37 3 29 13 -4 24 1 34 15 11 16 20 19 46 14 37 -8 51 5 51
47 0 15 7 33 16 40 33 28 154 50 154 29z m-222 -16 c12 -4 22 -11 22 -16 0 -6
-10 -8 -22 -5 -12 3 -30 1 -41 -5 -20 -10 -20 -11 4 -29 17 -13 19 -19 9 -19
-9 0 -21 5 -28 12 -17 17 -15 48 3 48 8 0 15 5 15 10 0 11 6 12 38 4z m202
-19 c0 -11 -54 -26 -69 -19 -12 5 -8 9 14 14 39 10 55 11 55 5z m-407 -34 c-3
-11 -14 -27 -24 -37 -24 -22 -24 -29 2 -66 19 -26 27 -30 59 -25 20 2 49 -1
66 -8 l29 -13 -28 -11 c-16 -6 -35 -11 -43 -11 -25 0 -84 28 -84 41 0 6 -10
23 -23 38 -28 33 -31 86 -5 86 10 0 23 6 30 13 18 18 27 15 21 -7z m-283 -7
c0 -8 -4 -12 -10 -9 -5 3 -10 10 -10 16 0 5 5 9 10 9 6 0 10 -7 10 -16z m944
-3 c3 -5 0 -11 -8 -14 -15 -6 -26 1 -26 15 0 11 27 10 34 -1z m-2304 -20 c0
-5 -7 -12 -16 -15 -24 -9 -28 -7 -14 9 14 17 30 20 30 6z m1777 -13 c-3 -8 -6
-5 -6 6 -1 11 2 17 5 13 3 -3 4 -12 1 -19z m577 -5 c-10 -39 -57 -104 -101
-139 -40 -32 -108 -54 -168 -54 -36 0 -99 36 -90 51 3 4 32 5 65 2 55 -5 67
-3 135 31 52 26 88 52 117 86 24 28 44 50 46 50 1 0 -1 -12 -4 -27z m-975 -26
c1 -5 -3 -5 -9 -2 -5 3 -10 16 -9 28 0 21 1 21 9 2 5 -11 9 -24 9 -28z m-1254
13 c-3 -5 -16 -10 -28 -10 -18 0 -19 2 -7 10 20 13 43 13 35 0z m1099 -158
c16 -32 59 -56 119 -66 20 -4 37 -10 37 -13 0 -15 -44 -103 -52 -103 -4 0 -8
-7 -8 -15 0 -8 -6 -14 -12 -12 -9 1 -12 -9 -11 -28 2 -27 1 -28 -12 -12 -13
17 -15 18 -39 2 l-25 -17 20 -34 c27 -49 24 -54 -10 -14 -36 43 -51 33 -22
-14 28 -45 10 -57 -20 -14 -12 18 -24 35 -25 37 -2 1 -8 0 -14 -4 -8 -5 -7
-14 4 -31 9 -13 16 -25 16 -28 0 -4 -46 -18 -65 -20 -5 -1 -20 -7 -32 -14 -12
-6 -29 -9 -39 -5 -14 5 -16 2 -10 -20 5 -20 3 -27 -8 -27 -7 0 -16 9 -19 21
-4 16 -9 19 -24 11 -10 -6 -22 -11 -28 -12 -5 0 -9 -13 -8 -27 l2 -26 -16 22
c-10 16 -19 19 -26 12 -7 -7 -6 -15 3 -26 10 -12 10 -15 -4 -15 -9 0 -16 7
-16 15 0 8 -7 15 -16 15 -12 0 -15 -6 -11 -21 4 -17 3 -19 -6 -10 -16 16 -30
14 -23 -5 4 -11 1 -14 -13 -9 -12 3 -21 0 -24 -10 -4 -8 -13 -12 -20 -9 -8 3
-17 -2 -20 -10 -4 -9 -13 -13 -22 -10 -8 4 -17 -1 -21 -10 -3 -9 -13 -16 -21
-16 -9 0 -22 -8 -30 -17 -10 -13 -16 -15 -19 -5 -3 6 -10 12 -15 12 -13 0 -69
-61 -69 -76 0 -15 -89 -98 -127 -118 -35 -18 -173 -56 -203 -56 -11 0 -20 -5
-20 -11 0 -6 -9 -8 -20 -4 -11 4 -20 2 -20 -4 0 -6 -7 -11 -15 -11 -8 0 -15
-4 -15 -10 0 -5 -7 -10 -15 -10 -8 0 -15 -7 -15 -16 0 -10 -6 -14 -15 -10 -9
3 -15 0 -15 -9 0 -8 -7 -15 -15 -15 -8 0 -15 -5 -15 -10 0 -6 -10 -8 -24 -4
-20 5 -25 0 -34 -25 -7 -20 -16 -29 -25 -25 -9 3 -16 -3 -20 -16 -3 -12 -15
-24 -26 -27 -12 -3 -17 -11 -14 -19 4 -10 0 -12 -13 -7 -14 5 -16 3 -11 -12 6
-14 5 -16 -6 -7 -19 16 -28 4 -14 -20 10 -17 7 -24 -25 -54 -38 -34 -83 -45
-104 -25 -5 5 -22 11 -39 13 -16 2 -36 10 -43 18 -11 13 -12 12 -7 -6 4 -15 0
-24 -11 -28 -11 -4 -30 9 -60 43 -25 28 -45 54 -45 58 1 4 23 9 49 9 50 2 99
21 121 48 8 9 19 16 25 16 46 0 331 208 462 338 53 52 145 122 162 122 5 0 19
16 31 35 11 19 25 35 31 35 23 0 130 84 255 200 72 66 137 120 146 120 18 0
29 20 29 50 0 10 6 20 14 23 8 3 17 19 21 36 8 39 19 39 35 1 16 -38 77 -90
106 -90 12 0 27 7 34 15 8 10 17 12 23 6 13 -13 0 -31 -23 -31 -10 0 -21 -4
-24 -9 -5 -8 82 -23 134 -23 57 0 104 9 108 20 2 7 -22 37 -55 66 -114 106
-111 100 -95 206 6 40 10 45 37 50 29 5 30 4 47 -62 9 -36 24 -80 32 -96z m32
123 c-6 -28 -4 -35 9 -35 8 0 15 -8 15 -18 0 -10 11 -29 25 -42 19 -18 22 -26
14 -37 -27 -32 -56 -5 -88 80 -25 70 -26 74 -3 80 32 9 34 7 28 -28z m958 23
c-3 -4 -12 -8 -20 -8 -8 0 -14 4 -14 8 0 4 9 8 19 8 11 0 17 -4 15 -8z m-839
-57 c7 -19 5 -20 -26 -14 -20 4 -26 11 -26 33 0 28 1 28 23 12 13 -9 26 -23
29 -31z m755 35 c0 -3 -4 -8 -10 -11 -5 -3 -10 -1 -10 4 0 6 5 11 10 11 6 0
10 -2 10 -4z m20 -31 c7 -9 8 -15 2 -15 -5 0 -12 7 -16 15 -3 8 -4 15 -2 15 2
0 9 -7 16 -15z m-2239 -46 l-21 -34 0 31 c0 33 19 59 33 45 5 -5 -1 -23 -12
-42z m1662 45 c3 -4 -10 -36 -30 -73 -20 -36 -69 -131 -110 -211 -40 -80 -85
-156 -99 -170 -37 -36 -29 -14 60 155 163 313 164 314 179 299z m-1611 -97
c-38 -37 -50 -31 -26 15 28 56 37 63 48 39 8 -18 4 -28 -22 -54z m778 47 c0
-8 -4 -12 -10 -9 -5 3 -10 10 -10 16 0 5 5 9 10 9 6 0 10 -7 10 -16z m1155
-24 c0 -8 -10 -16 -22 -18 -22 -3 -32 16 -16 32 12 11 38 2 38 -14z m-1850
-19 c-3 -6 -11 -11 -17 -11 -6 0 -6 6 2 15 14 17 26 13 15 -4z m729 -24 c6
-26 5 -27 -14 -15 -22 14 -23 18 -14 43 8 20 19 9 28 -28z m632 22 c3 -6 -3
-21 -15 -32 -12 -12 -21 -16 -21 -9 0 7 -10 12 -22 13 -21 1 -21 2 5 13 15 7
24 15 21 19 -4 4 0 7 9 7 9 0 19 -5 23 -11z m199 1 c3 -5 26 -10 51 -10 24 0
44 -4 44 -10 0 -5 -11 -10 -25 -10 -22 0 -24 -2 -13 -19 17 -28 -55 -134 -96
-141 -17 -3 -28 -9 -27 -15 2 -5 6 -16 9 -23 2 -7 -19 -48 -49 -90 -60 -88
-68 -96 -91 -104 -10 -4 -15 -14 -11 -26 9 -35 -11 -37 -66 -5 -2 2 1 8 6 15
6 7 13 24 16 38 4 14 19 46 35 70 16 25 64 111 106 193 71 135 94 164 111 137z
m161 -55 c-1 -45 -11 -59 -22 -30 -4 8 -3 23 2 33 7 16 9 23 13 37 4 19 8 -2
7 -40z m174 31 c0 -17 -14 -29 -23 -20 -8 8 3 34 14 34 5 0 9 -6 9 -14z m-968
-36 c6 -37 -6 -39 -28 -4 -15 21 -15 27 -4 34 20 12 27 5 32 -30z m1058 -12
c0 -47 -38 -217 -51 -233 -14 -15 -10 24 11 105 11 41 20 96 20 123 0 26 5 47
10 47 6 0 10 -19 10 -42z m96 -69 c-20 -86 -59 -182 -71 -177 -11 3 -9 46 5
93 4 17 14 65 20 107 11 66 16 77 34 80 28 4 31 -22 12 -103z m48 44 c-24
-121 -61 -233 -77 -233 -10 0 -11 -5 30 125 18 55 35 117 38 138 3 20 10 37
14 37 5 0 3 -30 -5 -67z m-1094 31 c0 -8 -4 -12 -10 -9 -5 3 -10 10 -10 16 0
5 5 9 10 9 6 0 10 -7 10 -16z m-341 -49 c6 -3 11 -13 11 -22 0 -13 -5 -12 -24
6 -27 25 -43 14 -21 -15 8 -10 15 -22 15 -26 0 -15 -15 -7 -33 17 -18 25 -18
26 4 57 21 29 23 30 30 11 4 -12 12 -24 18 -28z m51 21 c0 -24 -18 -28 -30 -6
-9 17 -8 20 10 20 11 0 20 -6 20 -14z m1267 -8 c-3 -8 -6 -5 -6 6 -1 11 2 17
5 13 3 -3 4 -12 1 -19z m-1037 8 c0 -3 -4 -8 -10 -11 -5 -3 -10 -1 -10 4 0 6
5 11 10 11 6 0 10 -2 10 -4z m690 -17 c0 -5 -7 -9 -16 -9 -11 0 -15 -6 -11
-19 3 -14 -2 -20 -19 -24 -25 -4 -24 -1 9 45 19 25 37 29 37 7z m267 -11 c-3
-7 -5 -2 -5 12 0 14 2 19 5 13 2 -7 2 -19 0 -25z m-810 6 c-3 -3 -12 -4 -19
-1 -8 3 -5 6 6 6 11 1 17 -2 13 -5z m664 -38 c14 -15 11 -46 -5 -52 -8 -3 -17
-25 -21 -50 -3 -24 -11 -44 -17 -44 -6 0 -8 11 -3 27 3 15 7 32 8 38 2 11 -64
8 -73 -3 -9 -12 -50 -33 -50 -26 0 4 33 39 73 78 48 48 73 66 75 56 2 -8 8
-19 13 -24z m109 8 c0 -8 -4 -12 -10 -9 -5 3 -10 10 -10 16 0 5 5 9 10 9 6 0
10 -7 10 -16z m27 -26 c-3 -8 -6 -5 -6 6 -1 11 2 17 5 13 3 -3 4 -12 1 -19z
m-1277 -39 c0 -16 -19 -9 -34 13 -21 30 -7 47 16 19 10 -13 18 -27 18 -32z
m945 21 c3 -5 1 -10 -4 -10 -6 0 -11 5 -11 10 0 6 2 10 4 10 3 0 8 -4 11 -10z
m-996 -29 c9 -16 8 -18 -9 -14 -11 3 -20 12 -20 19 0 20 18 17 29 -5z m1318
-13 c-3 -8 -6 -5 -6 6 -1 11 2 17 5 13 3 -3 4 -12 1 -19z m-352 2 c3 -5 1 -10
-4 -10 -6 0 -11 5 -11 10 0 6 2 10 4 10 3 0 8 -4 11 -10z m250 -22 c-8 -35
-12 -44 -19 -37 -7 8 6 69 16 69 6 0 7 -13 3 -32z m37 -3 c-2 -19 -6 -35 -8
-35 -2 0 -4 16 -4 35 0 19 4 35 8 35 4 0 6 -16 4 -35z m-1274 -9 c3 -15 1 -16
-18 -6 -21 11 -22 10 -17 -12 8 -30 -1 -42 -20 -26 -18 15 -29 2 -14 -16 9
-11 9 -16 0 -22 -6 -4 -16 0 -21 10 -14 25 -31 19 -24 -9 4 -14 2 -25 -4 -25
-5 0 -10 5 -10 10 0 6 -5 10 -10 10 -6 0 -8 -11 -4 -26 6 -23 4 -25 -17 -22
-20 2 -23 -1 -21 -22 3 -20 2 -22 -10 -12 -18 14 -29 6 -21 -15 5 -12 1 -14
-15 -8 -14 4 -22 2 -22 -5 0 -7 -23 -34 -52 -61 -41 -38 -55 -46 -69 -38 -10
5 -20 13 -24 18 -9 15 15 24 30 11 23 -19 38 -2 20 23 -21 31 -18 47 4 18 21
-27 38 -13 21 18 -15 28 -12 35 6 20 15 -12 16 -10 10 19 -8 33 1 41 23 20 11
-11 13 -9 8 10 -3 13 -1 22 7 22 6 0 35 16 63 35 29 19 59 35 68 35 8 0 15 7
15 15 0 8 3 15 8 16 4 0 17 2 30 3 13 2 31 10 40 19 20 20 36 17 40 -7z m1133
-12 c-5 -16 -10 -21 -10 -12 -1 18 10 51 15 45 2 -1 -1 -16 -5 -33z m414 -7
c-4 -15 -13 -31 -21 -38 -12 -10 -13 -8 -4 12 6 13 13 32 16 42 10 26 16 13 9
-16z m-887 -13 c-4 -3 -12 5 -18 18 -12 22 -12 22 6 6 10 -10 15 -20 12 -24z
m297 9 c-9 -8 -19 -13 -22 -9 -9 8 18 37 28 30 5 -3 2 -12 -6 -21z m340 -75
c118 -30 329 -27 426 7 l39 14 0 -317 0 -317 -47 0 c-47 0 -48 -1 -51 -32 -3
-29 -8 -34 -43 -43 -45 -12 -48 -33 -6 -38 33 -4 36 -22 3 -22 -25 0 -51 -22
-39 -33 3 -4 22 -7 42 -7 19 0 31 -4 25 -8 -5 -5 -56 -5 -114 0 -58 5 -150 10
-205 13 -55 2 -131 12 -168 21 l-69 18 -73 -38 c-86 -44 -148 -55 -353 -61
-155 -5 -175 -1 -357 71 -51 20 -90 28 -143 29 -59 2 -76 6 -92 23 -11 11 -28
23 -38 27 -11 3 -22 18 -25 35 -7 34 -70 100 -96 100 -10 0 -36 12 -57 26 -21
15 -57 34 -79 44 l-39 17 53 27 c30 15 84 54 121 86 37 33 71 60 75 60 3 0 21
11 39 25 33 25 164 75 197 75 9 0 59 16 109 35 50 19 94 35 96 35 2 0 4 -16 4
-35 0 -29 -6 -38 -42 -63 -52 -36 -158 -161 -158 -187 0 -13 46 -3 64 14 12
10 39 28 62 40 40 22 41 23 132 7 129 -22 139 -21 157 14 19 36 24 37 60 8 16
-12 47 -24 71 -26 35 -3 45 1 58 20 9 12 16 30 16 40 0 28 60 63 119 68 59 5
85 30 32 30 -17 0 -31 -4 -31 -9 0 -5 -21 -12 -47 -16 -27 -4 -54 -12 -61 -17
-16 -14 -26 -4 -19 17 4 9 19 15 41 15 19 0 38 5 41 10 4 7 -8 8 -36 4 l-42
-7 7 43 c12 73 58 140 98 140 10 0 26 4 36 9 50 27 218 32 307 9z m-618 -113
c-2 -33 -15 -94 -28 -135 -13 -41 -23 -76 -24 -77 0 -1 -25 2 -55 7 -30 4 -43
8 -29 9 15 0 31 7 36 14 20 24 43 111 43 159 0 40 -4 50 -25 64 -43 28 -77 0
-111 -91 -7 -19 -8 -19 -12 3 -2 14 6 39 20 60 14 20 27 44 30 53 5 13 15 15
55 8 36 -6 50 -4 58 6 8 12 12 11 28 -3 16 -14 18 -27 14 -77z m-1837 35 c0
-11 -4 -20 -10 -20 -5 0 -10 9 -10 20 0 11 5 20 10 20 6 0 10 -9 10 -20z
m1520 -16 c0 -8 -4 -12 -10 -9 -5 3 -10 13 -10 21 0 8 5 12 10 9 6 -3 10 -13
10 -21z m-1470 -6 c0 -13 -5 -30 -10 -38 -7 -11 -10 -5 -10 23 0 20 5 37 10
37 6 0 10 -10 10 -22z m1923 -38 c-17 -27 -21 -29 -27 -14 -9 23 22 70 36 56
8 -8 5 -20 -9 -42z m-233 34 c0 -10 -45 -42 -52 -37 -14 8 12 43 32 43 11 0
20 -3 20 -6z m162 -51 c10 -9 18 -29 18 -44 0 -15 6 -32 13 -36 8 -4 17 -25
20 -46 8 -49 -14 -60 -48 -23 -13 14 -33 26 -45 26 -13 0 -20 7 -20 19 0 23
31 121 38 121 3 0 14 -7 24 -17z m-152 -10 c0 -10 -8 -39 -17 -65 -16 -46 -19
-48 -55 -48 -47 0 -142 -35 -187 -68 -45 -34 -37 -15 23 48 32 34 73 64 122
87 41 20 79 42 85 49 16 19 29 17 29 -3z m-1733 -35 c-3 -8 -6 -5 -6 6 -1 11
2 17 5 13 3 -3 4 -12 1 -19z m743 -5 c22 -19 26 -33 9 -33 -12 0 -38 29 -39
43 0 11 8 8 30 -10z m-24 -60 c-3 -3 -15 2 -26 12 -24 22 -39 12 -22 -15 15
-25 15 -30 -1 -30 -7 0 -18 10 -26 21 -12 20 -10 24 15 44 l28 22 19 -24 c11
-13 17 -27 13 -30z m-740 -4 l-15 -34 -1 31 c0 16 6 36 12 42 19 19 20 0 4
-39z m664 -54 c0 -6 -10 -21 -22 -33 -22 -20 -24 -20 -45 -2 -23 18 -31 40
-14 40 5 0 14 -7 21 -15 7 -8 19 -15 27 -15 13 0 13 4 -1 25 -21 33 -11 53 15
29 10 -9 19 -22 19 -29z m-110 -70 c11 -20 11 -28 1 -38 -10 -9 -11 -9 -6 4 3
9 -1 22 -10 29 -16 13 -20 30 -7 30 5 0 15 -11 22 -25z m-40 -67 c0 -6 -7 -5
-15 2 -8 7 -15 17 -15 22 0 6 7 5 15 -2 8 -7 15 -17 15 -22z m-137 -10 c-11
-13 -31 -35 -43 -50 -16 -19 -36 -29 -69 -34 -25 -3 -59 -16 -76 -28 -41 -30
-112 -66 -131 -66 -8 0 -17 -7 -20 -15 -4 -8 -17 -15 -30 -15 -23 0 -24 3 -24
65 l0 64 37 6 c21 4 45 9 53 12 8 3 44 7 79 9 54 3 68 7 85 28 31 35 55 45
110 46 l49 0 -20 -22z m97 7 c7 -9 10 -18 7 -22 -8 -7 -37 15 -37 28 0 14 16
11 30 -6z m-30 -35 c6 -11 7 -20 2 -20 -10 0 -32 21 -32 32 0 16 19 8 30 -12z
m440 -13 c25 -7 56 -20 70 -29 14 -9 43 -24 65 -33 44 -18 75 -42 75 -58 0 -5
-21 -7 -51 -5 -55 6 -113 -14 -106 -35 2 -7 19 -13 38 -14 71 -5 145 -26 181
-52 21 -14 38 -29 38 -32 0 -4 -17 -6 -37 -5 -53 1 -49 -21 9 -46 51 -22 77
-19 85 11 13 51 322 -4 323 -58 1 -20 24 -51 37 -51 6 0 45 -11 87 -25 42 -14
97 -25 121 -25 25 0 73 -10 107 -22 58 -20 75 -21 266 -15 115 3 213 2 227 -3
13 -5 76 -12 140 -16 64 -4 112 -10 108 -14 -8 -8 -477 -14 -1853 -23 -410 -3
-762 -9 -782 -12 -34 -7 -38 -6 -38 14 0 11 0 24 -1 29 0 4 8 9 18 11 10 2 30
14 45 27 16 12 38 26 50 30 37 11 73 44 78 70 3 14 17 33 32 42 25 15 28 15
45 0 40 -36 75 -13 238 164 53 56 88 82 153 114 29 15 55 31 58 36 10 16 67
37 99 37 17 0 50 -5 75 -12z m-490 -38 c0 -6 -4 -7 -10 -4 -5 3 -10 11 -10 16
0 6 5 7 10 4 6 -3 10 -11 10 -16z m-50 -27 c0 -13 -12 -22 -22 -16 -10 6 -1
24 13 24 5 0 9 -4 9 -8z m-80 -32 c0 -5 -4 -10 -10 -10 -5 0 -10 5 -10 10 0 6
5 10 10 10 6 0 10 -4 10 -10z m2620 -25 c0 -8 -7 -15 -15 -15 -8 0 -15 7 -15
15 0 8 7 15 15 15 8 0 15 -7 15 -15z m-2760 -20 c-14 -17 -40 -20 -40 -6 0 8
18 16 44 20 5 0 3 -6 -4 -14z m2798 -32 c-2 -22 -9 -29 -32 -31 -16 -2 -33 1
-39 7 -8 8 -1 11 24 12 l34 1 -27 11 c-39 15 -35 27 8 27 33 0 35 -2 32 -27z
m-98 -17 c0 -3 -4 -8 -10 -11 -5 -3 -10 -1 -10 4 0 6 5 11 10 11 6 0 10 -2 10
-4z m97 -66 c-1 -39 -2 -40 -39 -40 -21 0 -38 5 -38 10 0 6 14 10 30 10 41 0
38 20 -2 21 l-33 1 30 8 c23 6 25 8 8 9 -41 2 -36 21 6 21 l40 0 -2 -40z
m-107 0 c0 -13 -11 -13 -30 0 -12 8 -11 10 8 10 12 0 22 -4 22 -10z m-6 -111
c-3 -5 -10 -7 -15 -3 -5 3 -7 10 -3 15 3 5 10 7 15 3 5 -3 7 -10 3 -15z m116
-61 c0 -63 -3 -79 -12 -70 -13 13 -18 61 -9 77 3 6 7 24 8 40 1 35 1 35 8 35
3 0 5 -37 5 -82z m-220 42 c0 -11 -4 -20 -10 -20 -5 0 -10 9 -10 20 0 11 5 20
10 20 6 0 10 -9 10 -20z m-411 -34 c8 -10 9 -16 1 -21 -13 -8 -30 3 -30 21 0
18 14 18 29 0z m-2275 -51 c3 -8 2 -15 -3 -15 -5 0 -14 7 -21 15 -10 12 -10
15 3 15 8 0 17 -7 21 -15z"/>
<g>
<path d="M2541 5060 c-23 -49 -24 -69 -2 -55 6 3 11 15 11 25 0 10 5 20 12 22
11 4 19 58 8 58 -3 0 -16 -23 -29 -50z"/>
</g>
<g>
<path d="M2715 5073 c11 -2 41 -27 67 -54 25 -27 49 -49 52 -49 16 0 2 26 -36
66 -33 33 -50 43 -73 43 -20 -1 -23 -3 -10 -6z"/>
</g>
<g>
<path d="M2575 4930 c-42 -11 -1 -11 50 -1 34 7 35 9 10 9 -16 0 -43 -4 -60
-8z"/>
</g>
<g>
<path d="M2420 4910 l-25 -8 25 0 c14 -1 43 3 65 7 l40 9 -40 0 c-22 0 -51 -4
-65 -8z"/>
</g>
<g>
<path d="M2606 4821 c5 -5 18 -11 29 -13 12 -2 21 -13 23 -26 2 -12 9 -22 17
-22 16 0 26 -25 18 -46 -4 -12 -2 -15 8 -12 23 7 23 46 0 60 -12 7 -21 18 -21
25 0 7 -13 19 -30 28 -32 17 -60 20 -44 6z"/>
</g>
<g>
<path d="M985 4758 c-149 -69 -178 -85 -169 -91 6 -3 61 18 122 48 62 30 113
51 113 47 1 -4 0 -15 0 -25 -3 -25 25 -32 72 -17 62 20 70 33 15 25 -48 -7
-69 7 -28 18 34 9 22 27 -17 27 -21 0 -69 -14 -108 -32z"/>
</g>
<g>
<path d="M2465 4650 c-3 -5 -1 -10 4 -10 6 0 11 5 11 10 0 6 -2 10 -4 10 -3 0
-8 -4 -11 -10z"/>
</g>
<g>
<path d="M2427 4623 c-4 -6 -4 -18 -1 -26 3 -8 1 -18 -5 -22 -12 -7 -15 -35
-3 -35 14 0 31 51 23 72 -5 13 -10 17 -14 11z"/>
</g>
<g>
<path d="M1120 3820 c0 -5 5 -10 10 -10 6 0 10 5 10 10 0 6 -4 10 -10 10 -5 0
-10 -4 -10 -10z"/>
</g>
<g>
<path d="M340 4376 c0 -8 -7 -16 -15 -20 -8 -3 -20 -17 -25 -31 -5 -14 -15
-25 -21 -25 -7 0 -10 -2 -7 -5 11 -11 58 18 58 35 0 10 9 20 20 23 23 6 27 37
5 37 -8 0 -15 -6 -15 -14z"/>
</g>
<g>
<path d="M177 4244 c-82 -54 -124 -91 -114 -101 4 -4 22 -1 40 6 18 7 45 16
60 18 24 5 28 2 25 -13 -2 -10 -12 -23 -23 -29 -48 -24 -127 -79 -118 -82 11
-4 99 48 141 84 22 18 25 25 16 40 -12 19 -31 20 -74 7 -23 -7 -24 -6 -10 11
8 10 44 37 80 61 36 24 60 44 55 44 -6 -1 -41 -21 -78 -46z"/>
</g>
<g>
<path d="M365 3575 l-30 -14 33 6 c40 7 43 -11 5 -31 -16 -8 -39 -26 -52 -40
l-24 -26 29 0 29 0 -22 -18 c-13 -10 -21 -28 -21 -45 0 -26 3 -28 32 -21 44 9
70 25 28 18 -29 -6 -32 -4 -26 12 4 11 13 26 21 35 12 14 12 19 -1 32 -13 13
-10 18 25 46 62 50 46 79 -26 46z"/>
</g>
<g>
<path d="M276 3525 c-46 -36 -61 -55 -28 -36 23 14 88 70 81 71 -3 0 -27 -16
-53 -35z"/>
</g>
<g>
<path d="M2415 3470 c-4 -7 -3 -15 1 -20 9 -8 103 -30 129 -30 33 0 11 17 -42
34 -32 10 -63 21 -69 23 -7 2 -15 -1 -19 -7z"/>
</g>
<g>
<path d="M1825 2182 c-16 -10 -31 -20 -33 -24 -2 -5 -10 -8 -18 -8 -22 0 -54
-38 -54 -65 0 -55 95 -59 156 -5 37 32 48 62 37 103 -6 22 -47 21 -88 -1z m69
-7 c9 -24 -5 -46 -26 -43 -21 3 -26 23 -5 23 6 0 11 8 9 18 -4 21 14 23 22 2z
m-79 -85 c-9 -16 -21 -30 -28 -30 -19 0 -37 21 -37 42 0 14 8 18 40 18 l41 0
-16 -30z m55 16 c0 -3 -4 -8 -10 -11 -5 -3 -10 -1 -10 4 0 6 5 11 10 11 6 0
10 -2 10 -4z"/>
</g>
<g>
<path d="M1582 2058 c-7 -7 -16 -13 -20 -14 -20 -2 -88 -17 -95 -21 -7 -4 16
-33 27 -33 2 0 12 7 20 16 13 12 16 12 16 2 0 -34 -55 -53 -66 -23 -8 21 -24
19 -24 -2 1 -17 76 -73 98 -73 6 0 12 -4 14 -10 2 -5 13 -7 25 -4 13 4 20 10
17 16 -3 5 -15 6 -26 2 -15 -4 -19 -2 -16 7 3 8 13 16 23 18 28 5 75 60 75 87
0 13 -9 28 -19 34 -25 13 -34 13 -49 -2z m15 -15 c-4 -3 -2 -12 4 -20 6 -7 10
-13 8 -14 -31 -6 -40 -6 -45 3 -3 5 2 16 12 23 20 15 32 20 21 8z m-7 -63 c0
-5 -7 -10 -16 -10 -8 0 -12 5 -9 10 3 6 10 10 16 10 5 0 9 -4 9 -10z m-40 -25
c0 -8 -7 -15 -15 -15 -16 0 -20 12 -8 23 11 12 23 8 23 -8z"/>
</g>
<g>
<path d="M2165 2510 c-3 -5 -1 -10 4 -10 6 0 11 5 11 10 0 6 -2 10 -4 10 -3 0
-8 -4 -11 -10z"/>
</g>
<g>
<path d="M2085 2370 c-3 -5 -2 -10 4 -10 5 0 13 5 16 10 3 6 2 10 -4 10 -5 0
-13 -4 -16 -10z"/>
</g>
<g>
<path d="M1902 1688 c6 -18 28 -21 28 -4 0 9 -7 16 -16 16 -9 0 -14 -5 -12
-12z"/>
</g>
<g>
<path d="M1880 1650 c0 -5 7 -10 15 -10 8 0 15 5 15 10 0 6 -7 10 -15 10 -8 0
-15 -4 -15 -10z"/>
</g>
<g>
<path d="M1695 1470 c-9 -15 16 -43 27 -32 10 10 0 42 -12 42 -5 0 -12 -5 -15
-10z"/>
</g>
<g>
<path d="M196 637 c3 -10 9 -15 12 -12 3 3 0 11 -7 18 -10 9 -11 8 -5 -6z"/>
</g>
</g>
<g>
<path d="M2971 2035 c0 -17 4 -39 9 -50 7 -18 8 -18 15 7 5 18 2 34 -9 50
l-16 22 1 -29z"/>
</g>
<g>
<path d="M2980 1945 c0 -8 5 -15 10 -15 6 0 10 7 10 15 0 8 -4 15 -10 15 -5 0
-10 -7 -10 -15z"/>
</g>
<g>
<path d="M120 625 c7 -9 15 -13 17 -11 7 7 -7 26 -19 26 -6 0 -6 -6 2 -15z"/>
</g>
<g>
<path d="M100 586 c0 -2 7 -9 15 -16 13 -11 14 -10 9 4 -5 14 -24 23 -24 12z"/>
</g>
<g>
<path d="M161 544 c0 -11 3 -14 6 -6 3 7 2 16 -1 19 -3 4 -6 -2 -5 -13z"/>
</g>
<g>
<path d="M50 545 c0 -5 9 -23 20 -40 11 -16 20 -25 20 -20 0 6 -9 24 -20 40
-11 17 -20 26 -20 20z"/>
</g>
<g>
<path d="M2035 280 c-27 -4 -44 -8 -37 -8 10 -2 13 -24 11 -94 -2 -88 -1 -93
20 -96 19 -3 21 1 21 49 l0 53 48 -47 c26 -26 55 -47 65 -47 25 0 21 10 -18
53 -39 43 -41 47 -20 47 8 0 22 11 30 24 13 19 14 29 5 45 -6 12 -16 21 -23
21 -7 0 -21 2 -32 4 -11 2 -42 0 -70 -4z m70 -40 c0 -20 -6 -26 -27 -28 -24
-3 -28 0 -28 21 0 30 9 39 35 35 14 -2 20 -10 20 -28z"/>
</g>
<g>
<path d="M2205 280 c-3 -5 -5 -50 -3 -99 3 -89 3 -90 31 -95 50 -10 82 3 111
47 20 32 25 49 20 72 -10 45 -23 65 -50 75 -33 13 -101 13 -109 0z m95 -30
c13 -13 20 -33 20 -61 0 -56 -14 -79 -50 -79 l-30 0 0 80 c0 73 2 80 20 80 11
0 29 -9 40 -20z"/>
</g>
<g>
<path d="M2450 282 c-35 -5 -50 -20 -50 -48 0 -17 8 -27 24 -34 30 -11 60 -54
52 -75 -9 -24 -45 -18 -56 10 -6 16 -14 23 -25 19 -13 -5 -16 -15 -15 -51 1
-13 49 -22 86 -16 67 11 72 87 9 125 -44 26 -47 50 -5 42 17 -4 30 -2 30 4 0
17 -24 28 -50 24z"/>
</g>
<g>
<path d="M1530 270 c-10 -6 -9 -9 1 -12 7 -2 22 -40 33 -84 15 -57 26 -80 39
-82 11 -2 17 3 17 15 0 21 22 73 31 73 3 0 11 -11 17 -24 15 -34 44 -66 59
-66 15 0 25 22 43 100 8 30 20 63 28 73 14 16 12 17 -24 16 -21 0 -33 -3 -26
-6 6 -2 12 -10 12 -17 0 -24 -31 -116 -39 -116 -5 0 -18 24 -30 52 -19 47 -20
54 -6 64 22 17 19 19 -29 20 l-44 1 10 -34 c9 -34 3 -73 -12 -73 -4 0 -14 22
-21 49 -12 49 -33 67 -59 51z"/>
</g>
<g>
<path d="M1830 253 c-38 -34 -50 -91 -27 -126 33 -51 143 -39 169 18 16 36 2
91 -31 115 -40 27 -75 25 -111 -7z m79 -11 c5 -10 13 -42 17 -70 6 -50 6 -51
-21 -58 -51 -13 -81 53 -55 120 11 31 45 35 59 8z"/>
</g>
<g>
<path d="M1402 254 c-44 -31 -14 -108 35 -90 29 12 61 -42 35 -58 -17 -10 -82
6 -82 21 0 27 -35 9 -38 -20 l-3 -27 65 0 c53 0 70 4 86 20 23 23 25 39 8 75
-10 23 -17 26 -52 23 -30 -2 -41 1 -41 11 0 20 36 40 42 24 8 -23 33 -14 33
12 0 22 -4 25 -33 25 -18 0 -43 -7 -55 -16z"/>
</g>
<g>
<path d="M715 251 c-3 -6 -1 -11 4 -11 7 0 11 -32 11 -85 0 -78 2 -85 20 -85
17 0 20 7 20 49 0 46 1 48 24 44 21 -4 25 -12 28 -47 2 -28 8 -41 18 -41 12 0
15 17 15 93 0 81 -2 92 -17 92 -14 0 -18 -8 -18 -41 0 -33 -3 -40 -16 -35 -9
3 -19 6 -24 6 -5 0 -10 15 -12 33 -2 24 -8 33 -25 35 -11 2 -24 -2 -28 -7z"/>
</g>
<g>
<path d="M883 245 c-8 -22 4 -30 21 -16 8 7 20 10 26 6 13 -8 13 -145 0 -145
-5 0 -10 -4 -10 -10 0 -5 16 -10 35 -10 34 0 46 12 25 25 -13 8 -13 145 0 145
5 0 13 -7 18 -17 12 -21 42 -10 42 17 0 18 -6 20 -75 20 -59 0 -77 -3 -82 -15z"/>
</g>
<g>
<path d="M104 155 c1 -92 2 -95 24 -95 20 0 22 5 22 45 0 25 4 45 8 45 14 0
53 -60 47 -70 -4 -6 7 -10 25 -10 l31 0 -21 23 c-47 49 -77 93 -72 105 2 8 18
22 36 33 29 18 29 19 7 19 -13 0 -32 -11 -44 -27 l-21 -27 -6 25 c-3 13 -13
25 -21 27 -13 2 -15 -12 -15 -93z"/>
</g>
<g>
<path d="M300 170 c3 -48 1 -85 -5 -91 -7 -8 -4 -10 10 -7 17 3 20 12 21 53 1
74 2 74 34 19 36 -61 54 -78 74 -71 12 5 14 20 9 76 -4 50 -2 75 7 86 11 13 8
15 -17 15 l-29 0 3 -67 4 -68 -21 35 c-11 19 -29 49 -39 65 -9 17 -26 31 -37
33 -18 3 -19 -3 -14 -78z"/>
</g>
<g>
<path d="M494 178 c3 -40 5 -79 6 -85 0 -7 7 -13 15 -13 16 0 17 8 19 107 1
59 0 63 -22 63 -22 0 -23 -2 -18 -72z"/>
</g>
<g>
<path d="M579 221 c-19 -20 -29 -40 -29 -59 0 -37 9 -62 22 -62 5 0 16 -7 24
-15 22 -21 49 -19 79 8 36 31 25 57 -24 57 -33 -1 -35 -2 -17 -15 18 -14 16
-45 -3 -45 -30 0 -43 108 -16 130 12 10 19 10 27 2 18 -18 28 -14 28 8 0 32
-55 27 -91 -9z"/>
</g>
<g>
<path d="M1182 238 c-16 -16 -15 -59 3 -82 17 -23 19 -64 5 -102 -13 -33 -10
-36 13 -19 9 7 23 36 30 64 6 28 17 51 24 51 15 0 17 28 4 49 -8 12 -12 13
-26 1 -14 -11 -19 -11 -33 4 -16 16 -16 18 2 32 15 10 16 14 5 14 -8 0 -20 -5
-27 -12z"/>
</g>
<g>
<path d="M1105 136 c-8 -13 -13 -31 -9 -40 9 -24 52 -32 71 -13 14 13 14 20 3
46 -15 37 -43 40 -65 7z m48 -10 c7 -16 -1 -26 -20 -26 -7 0 -13 9 -13 20 0
23 25 27 33 6z"/>
</g>
<g>
<path d="M2624 119 c-3 -6 -2 -14 2 -19 11 -10 54 6 54 20 0 13 -47 13 -56 -1z"/>
</g>
<g>
<path d="M353 3 c9 -2 25 -2 35 0 9 3 1 5 -18 5 -19 0 -27 -2 -17 -5z"/>
</g>
<g>
<path d="M612 3 c59 -2 158 -2 220 0 62 1 14 3 -107 3 -121 0 -172 -2 -113 -3z"/>
</g>
<g>
<path d="M998 3 c7 -3 16 -2 19 1 4 3 -2 6 -13 5 -11 0 -14 -3 -6 -6z"/>
</g>
<g>
<path d="M1688 3 c46 -2 118 -2 160 0 42 1 5 3 -83 3 -88 0 -123 -2 -77 -3z"/>
</g>
<g>
<path d="M1938 3 c6 -2 18 -2 25 0 6 3 1 5 -13 5 -14 0 -19 -2 -12 -5z"/>
</g>
<g>
<path d="M2038 3 c7 -3 16 -2 19 1 4 3 -2 6 -13 5 -11 0 -14 -3 -6 -6z"/>
</g>
<g>
<path d="M2168 3 c6 -2 18 -2 25 0 6 3 1 5 -13 5 -14 0 -19 -2 -12 -5z"/>
</g>
</g>
</svg>
