<?xml version="1.0" standalone="no"?>
<!DOCTYPE svg PUBLIC "-//W3C//DTD SVG 20010904//EN"
 "http://www.w3.org/TR/2001/REC-SVG-20010904/DTD/svg10.dtd">
<svg version="1.0" xmlns="http://www.w3.org/2000/svg"
 width="300.000000pt" height="517.000000pt" viewBox="0 0 300.000000 517.000000"
 preserveAspectRatio="xMidYMid meet">
<metadata>
Created by potrace 1.15, written by Peter Selinger 2001-2017
</metadata>
<g transform="translate(0.000000,517.000000) scale(0.100000,-0.100000)"
fill="#000000" stroke="none">
<g>
<path d="M0 4055 c0 -610 4 -1429 10 -1820 11 -868 24 -2135 22 -2192 -2 -34
1 -43 14 -43 14 0 16 20 12 180 -2 152 -1 182 12 190 9 6 568 9 1465 7 l1450
-2 3 -182 c2 -167 1 -182 -15 -186 -13 -3 -12 -5 6 -6 l24 -1 -7 1913 c-3
1051 -8 1955 -10 2007 -2 52 -4 327 -5 610 -2 547 -5 640 -27 640 -10 0 -12
-22 -9 -97 6 -127 20 -1550 20 -1896 l-1 -267 -33 -31 c-18 -16 -34 -29 -36
-27 -1 2 -8 26 -15 53 -25 92 -142 295 -171 295 -5 0 -33 16 -61 36 -126 86
-224 108 -405 92 -103 -9 -164 -26 -171 -47 -4 -10 0 -12 14 -6 72 29 232 46
328 34 97 -12 100 -13 106 -19 3 -3 26 -18 53 -34 26 -15 45 -31 42 -35 -2 -5
-23 -11 -45 -15 -31 -5 -52 -19 -95 -62 -51 -52 -55 -54 -55 -31 0 14 4 29 10
32 5 3 10 13 10 22 0 9 8 26 19 37 10 12 26 34 36 49 l18 28 -29 -7 c-16 -4
-40 -15 -54 -24 -19 -13 -29 -15 -42 -6 -14 8 -24 4 -54 -24 -37 -36 -74 -98
-74 -124 0 -16 -18 -31 -26 -23 -8 7 41 112 76 162 18 26 29 49 26 52 -8 8
-28 -15 -69 -82 -20 -33 -37 -53 -37 -44 0 8 7 25 16 37 17 24 14 39 -5 27
-21 -12 -52 -87 -76 -178 -21 -82 -23 -87 -24 -49 -2 85 48 216 93 246 14 9
26 21 26 26 0 21 -24 8 -65 -32 -46 -47 -71 -112 -86 -223 l-7 -60 1 80 c1 44
-2 86 -6 93 -5 7 -4 19 3 27 9 10 8 19 -4 37 -36 56 -75 230 -56 253 14 17 24
85 11 85 -19 0 -13 64 9 83 46 39 11 127 -45 113 -23 -6 -24 -8 -11 -29 8 -14
13 -46 12 -87 l-2 -65 -35 0 c-32 0 -34 2 -37 38 -3 32 0 37 18 37 12 0 18 5
15 10 -3 6 -17 10 -30 10 -34 0 -52 36 -31 59 9 9 12 21 8 27 -5 5 -15 29 -22
54 -8 25 -20 54 -27 65 -17 25 -16 35 2 35 8 0 15 -7 15 -15 0 -26 25 -16 27
11 1 24 -2 26 -32 22 -30 -3 -35 0 -49 30 -20 40 -15 51 19 44 15 -2 25 0 25
7 0 6 -16 11 -36 11 -20 0 -33 4 -29 10 3 5 19 7 36 3 28 -5 30 -4 24 20 -6
22 -3 26 22 29 51 6 93 -3 93 -20 0 -13 12 -14 86 -8 103 8 107 -10 4 -20 -39
-3 -70 -11 -70 -17 0 -6 23 -8 60 -4 67 6 70 2 41 -52 -11 -21 -21 -30 -25
-22 -9 14 -56 15 -56 1 0 -5 11 -10 24 -10 34 0 41 -16 20 -47 -15 -24 -18
-25 -29 -10 -7 9 -21 17 -31 17 -18 -1 -18 -1 -1 -14 27 -21 20 -36 -18 -36
-19 0 -35 -4 -35 -10 0 -14 53 -13 68 2 15 15 24 6 16 -16 -4 -10 -13 -15 -24
-11 -22 7 -72 -4 -65 -15 2 -4 16 -5 30 -2 14 2 31 -1 39 -7 11 -9 30 21 100
162 47 95 86 182 86 194 0 11 -7 26 -15 33 -13 11 -15 9 -15 -13 0 -14 -7 -28
-16 -31 -21 -8 -24 -8 -24 5 0 5 4 8 9 5 5 -3 11 1 14 8 4 10 -1 14 -14 13
-12 -1 -19 -9 -19 -23 0 -17 -8 -23 -37 -28 -48 -7 -223 -6 -288 2 -42 6 -51
11 -53 30 -3 17 4 26 30 37 18 8 28 14 21 15 -26 0 -83 -36 -83 -53 0 -10 13
-38 30 -61 26 -39 117 -237 134 -293 5 -16 2 -23 -14 -28 -32 -10 -45 -48 -30
-85 7 -16 18 -30 26 -30 21 0 27 -20 7 -27 -10 -4 -38 -26 -62 -50 -24 -24
-51 -43 -58 -43 -9 0 -11 -5 -7 -12 11 -17 12 -56 4 -108 l-8 -45 -1 55 c-3
107 2 103 -122 95 -164 -11 -179 -2 -219 130 -25 82 -130 269 -173 308 -88 79
-102 85 -219 93 -80 5 -112 4 -123 -6 -24 -20 -42 -6 -37 30 6 44 37 54 127
40 90 -15 126 -28 147 -54 l18 -21 0 21 c0 17 8 22 41 27 23 3 46 11 50 19 15
23 9 57 -12 72 -25 17 -19 45 11 53 16 4 19 11 14 32 -10 39 -26 52 -22 16 2
-24 -1 -30 -14 -29 -10 1 -18 -4 -18 -12 0 -9 -11 -14 -30 -14 -16 0 -30 -4
-30 -10 0 -5 11 -10 25 -10 28 0 32 -12 10 -30 -11 -9 -29 -6 -90 16 -72 27
-94 44 -57 44 19 0 67 55 82 95 13 34 36 42 60 20 13 -12 20 -14 20 -6 0 7 7
19 15 27 19 20 19 34 -1 34 -9 0 -14 6 -11 13 2 6 12 12 23 12 15 0 19 -6 16
-32 l-2 -33 41 45 c46 50 46 70 -1 86 -33 12 -38 30 -15 49 8 7 15 17 15 22 0
14 -52 79 -58 73 -3 -3 5 -17 19 -31 15 -17 20 -28 12 -31 -28 -10 -105 -67
-151 -113 -28 -28 -55 -50 -60 -50 -5 0 -15 -13 -22 -30 -13 -31 -45 -44 -33
-14 7 19 -13 34 -45 34 -13 0 -21 4 -17 9 3 5 1 12 -5 16 -6 4 -2 18 11 36 20
28 20 31 4 49 -16 18 -15 23 25 95 23 42 59 94 80 116 20 21 33 39 28 39 -12
0 -49 -37 -82 -81 -26 -36 -40 -42 -120 -52 -12 -1 -20 5 -22 17 -1 11 -10 24
-19 29 -13 7 -15 17 -10 48 10 60 -2 95 -41 118 -40 24 -45 18 -9 -11 20 -15
25 -28 25 -64 0 -24 -4 -44 -10 -44 -5 0 -10 9 -10 20 0 30 -26 76 -47 84 -9
4 -40 5 -68 3 -27 -2 -38 -2 -22 0 15 2 27 8 27 14 0 12 -29 11 -195 -6 -77
-8 -171 -15 -208 -15 -58 0 -68 -3 -65 -16 2 -10 21 -22 43 -29 22 -6 53 -19
69 -27 l30 -15 -97 -18 c-53 -10 -97 -21 -97 -26 0 -5 -12 -9 -27 -9 -14 0
-35 -8 -45 -17 -19 -17 -20 -14 -18 187 1 113 5 231 8 262 l5 57 656 1 c597 1
942 9 1231 28 58 4 -353 7 -912 7 l-1018 0 0 -1110z m487 719 c-3 -3 -12 -4
-19 -1 -8 3 -5 6 6 6 11 1 17 -2 13 -5z m-182 -19 c6 -2 -16 -4 -47 -4 -32 -1
-58 3 -58 8 0 8 79 5 105 -4z m98 8 c-13 -2 -33 -2 -45 0 -13 2 -3 4 22 4 25
0 35 -2 23 -4z m277 -2 c0 -5 -9 -7 -20 -4 -11 3 -20 7 -20 9 0 2 9 4 20 4 11
0 20 -4 20 -9z m-47 -27 c15 -14 29 -36 33 -48 3 -11 17 -36 31 -53 13 -18 18
-30 10 -27 -7 2 -27 28 -45 57 -43 71 -64 83 -108 62 -19 -9 -42 -14 -52 -12
-13 3 -9 7 13 15 17 7 37 16 45 21 25 16 46 12 73 -15z m87 16 c0 -5 -5 -10
-11 -10 -5 0 -7 5 -4 10 3 6 8 10 11 10 2 0 4 -4 4 -10z m-373 -26 c-3 -3 -12
-4 -19 -1 -8 3 -5 6 6 6 11 1 17 -2 13 -5z m126 -21 c-7 -2 -19 -2 -25 0 -7 3
-2 5 12 5 14 0 19 -2 13 -5z m112 -3 c-3 -5 -16 -10 -28 -9 -21 0 -21 1 -2 9
28 12 37 12 30 0z m145 0 c0 -5 -4 -10 -10 -10 -5 0 -10 5 -10 10 0 6 5 10 10
10 6 0 10 -4 10 -10z m-250 -29 c-24 -13 -80 -21 -80 -11 0 9 28 17 70 18 18
1 21 -1 10 -7z m-171 -5 c-10 -9 -79 -14 -74 -5 4 5 22 9 42 9 20 0 34 -2 32
-4z m266 -16 c-3 -5 -11 -10 -16 -10 -6 0 -7 5 -4 10 3 6 11 10 16 10 6 0 7
-4 4 -10z m-85 -10 c-8 -5 -22 -9 -30 -9 -10 0 -8 3 5 9 27 12 43 12 25 0z
m-145 -10 c-3 -5 -20 -10 -36 -10 -17 0 -39 -5 -50 -10 -24 -14 -26 5 -1 19
22 14 95 14 87 1z m230 -20 c-3 -5 -11 -10 -16 -10 -6 0 -7 5 -4 10 3 6 11 10
16 10 6 0 7 -4 4 -10z m-459 -32 c6 -4 56 -11 110 -15 55 -3 104 -9 109 -13
23 -17 150 -20 198 -5 35 10 55 12 75 4 15 -6 43 -8 62 -5 47 7 91 -24 73 -51
-38 -55 -55 -104 -49 -145 17 -132 17 -131 33 -109 11 16 11 25 2 42 -6 12
-11 47 -12 78 -1 45 4 64 27 101 36 56 52 71 98 93 66 31 83 20 51 -34 -14
-24 -15 -32 -4 -53 12 -21 11 -27 -2 -40 -8 -9 -13 -24 -10 -34 2 -11 -6 -31
-21 -49 -14 -17 -26 -41 -26 -52 0 -32 44 -71 79 -71 22 0 29 -4 27 -17 -2
-13 -10 -17 -26 -15 -17 3 -21 0 -17 -11 7 -19 -18 -43 -28 -27 -11 18 -37 12
-30 -9 5 -15 1 -18 -20 -13 -26 4 -33 -6 -15 -24 7 -7 -6 -10 -40 -11 -49 -1
-84 17 -60 32 5 3 10 18 10 33 -1 30 3 35 -51 -65 -14 -26 0 -50 35 -63 26 -9
85 6 111 29 11 10 27 22 35 26 12 6 13 5 3 -6 -7 -7 -13 -22 -13 -34 0 -11
-20 -42 -45 -68 -44 -47 -52 -69 -45 -130 1 -10 -3 -24 -8 -30 -5 -7 -12 -46
-15 -88 -5 -68 -2 -83 19 -125 13 -26 24 -60 24 -75 0 -15 4 -39 10 -53 5 -14
17 -82 25 -150 l16 -124 -25 -79 c-14 -43 -28 -91 -32 -108 -7 -26 -8 -27 -11
-8 -5 28 -59 45 -118 36 -50 -6 -70 -33 -63 -83 l5 -32 -47 6 c-26 4 -61 13
-78 22 -68 33 -147 49 -247 49 -62 -1 -109 -6 -123 -14 -13 -7 -27 -10 -30 -6
-4 4 -9 368 -10 810 l-4 804 39 -6 c21 -3 43 -10 49 -15z m394 -7 c0 -5 -9
-11 -20 -14 -22 -6 -28 8 -7 16 19 8 27 8 27 -2z m290 0 c0 -13 -29 -35 -37
-28 -7 8 15 37 28 37 5 0 9 -4 9 -9z m439 -138 c-6 -7 -17 -13 -24 -13 -7 0
-18 -7 -25 -15 -7 -9 -21 -13 -31 -10 -9 3 -20 1 -24 -5 -3 -5 -1 -10 6 -10 7
0 9 -3 5 -7 -4 -5 -17 -8 -29 -8 -15 0 -22 -6 -22 -20 0 -11 -6 -19 -12 -17
-18 3 -50 -31 -45 -49 4 -11 2 -12 -9 -1 -20 19 11 69 87 142 l63 60 35 -17
c28 -13 33 -19 25 -30z m-362 -112 c-7 -27 11 -51 38 -51 14 0 25 -4 25 -10 0
-16 -57 -12 -74 6 -19 19 -20 40 -3 59 16 19 20 18 14 -4z m133 -67 c0 -8 -4
-12 -10 -9 -5 3 -10 10 -10 16 0 5 5 9 10 9 6 0 10 -7 10 -16z m62 -130 c60
-20 118 -34 129 -31 15 4 19 1 17 -11 -3 -14 -15 -17 -68 -16 -91 3 -180 15
-180 25 0 5 10 10 23 10 16 1 18 2 5 6 -10 2 -18 11 -18 19 0 8 -7 14 -15 14
-8 0 -15 5 -15 10 0 14 0 14 122 -26z m-326 -53 c10 8 18 9 25 2 7 -7 0 -14
-22 -22 -43 -15 -55 -14 -73 5 -24 24 -10 34 24 17 25 -12 34 -12 46 -2z
m1424 -6 c0 -9 -9 -14 -27 -13 -16 1 -54 -2 -85 -6 -41 -6 -58 -5 -58 3 0 6
21 11 53 12 41 1 97 10 115 18 1 0 2 -6 2 -14z m-360 -35 c0 -5 -4 -10 -10
-10 -5 0 -10 5 -10 10 0 6 5 10 10 10 6 0 10 -4 10 -10z m-680 -55 c7 -9 11
-18 8 -21 -7 -7 -58 17 -58 28 0 14 37 9 50 -7z m-131 -86 c64 -28 108 -64
131 -109 11 -21 33 -48 49 -60 39 -27 32 -54 -13 -47 -35 6 -66 -12 -66 -36 0
-10 -16 -23 -37 -32 -49 -21 -103 -63 -103 -81 0 -22 -13 -17 -51 22 l-34 35
27 -6 c32 -8 78 1 78 15 0 6 -17 10 -37 11 -39 1 -38 3 10 13 38 9 34 26 -8
26 -38 0 -103 30 -130 60 -10 12 -20 42 -23 72 -3 29 -9 56 -14 59 -19 12 14
56 55 71 49 19 101 14 166 -13z m153 -41 c-9 -9 -15 -9 -24 0 -9 9 -7 12 12
12 19 0 21 -3 12 -12z m53 -39 c-4 -5 -13 -9 -22 -9 -13 0 -13 3 -3 15 13 15
35 11 25 -6z m80 -71 c-12 -7 -15 -17 -10 -39 9 -38 -9 -38 -31 0 -10 16 -29
35 -43 41 -25 12 -25 12 -6 26 11 8 28 13 37 11 10 -3 23 2 29 10 11 12 15 10
27 -13 13 -24 12 -28 -3 -36z m609 -40 c-15 -16 -16 -22 -5 -40 9 -14 9 -24 2
-31 -7 -7 -14 1 -24 24 -13 31 -13 36 6 56 11 12 24 20 29 17 5 -3 1 -15 -8
-26z m166 -34 c0 -12 -6 -26 -13 -32 -11 -9 -13 -1 -13 39 0 44 2 49 13 33 7
-10 13 -28 13 -40z m-1240 -29 c0 -21 -17 -18 -30 4 -15 28 -13 33 10 21 11
-6 20 -17 20 -25z m-60 15 c0 -5 -4 -10 -10 -10 -5 0 -10 5 -10 10 0 6 5 10
10 10 6 0 10 -4 10 -10z m438 -48 c31 -31 72 -70 90 -85 32 -28 33 -29 17 -53
-35 -53 -58 -75 -67 -62 -6 10 -12 8 -23 -6 -15 -20 -15 -20 -15 0 0 11 5 25
11 31 15 15 3 34 -16 26 -8 -3 -15 0 -15 6 0 6 -6 11 -14 11 -7 0 -19 7 -26
15 -7 8 -16 12 -21 9 -5 -3 -6 2 -3 10 3 9 1 16 -5 16 -6 0 -11 7 -11 16 0 10
-6 14 -15 10 -10 -4 -15 1 -15 15 0 12 10 23 25 29 19 7 25 17 25 40 0 16 5
30 10 30 6 0 36 -26 68 -58z m136 27 c36 -28 33 -45 -3 -20 -16 12 -34 21 -40
21 -6 0 -11 5 -11 10 0 16 26 11 54 -11z m-464 -9 c8 -5 12 -11 9 -14 -3 -3
-14 1 -25 9 -21 16 -8 20 16 5z m1054 -27 c-4 -16 -11 -33 -16 -39 -11 -15 12
-24 62 -24 72 0 99 -26 33 -32 -21 -2 -37 -7 -35 -13 2 -5 14 -9 27 -7 38 5
38 -15 0 -22 -37 -7 -48 -23 -15 -22 31 1 28 -18 -5 -25 -23 -5 -25 -7 -7 -8
31 -1 28 -17 -5 -24 -39 -8 -86 2 -101 22 -11 14 -14 14 -22 1 -8 -12 -10 -11
-10 7 0 24 -19 43 -21 21 -1 -7 -1 -16 0 -20 0 -5 -3 -8 -8 -8 -5 0 -11 18
-13 40 -3 36 1 46 38 85 23 25 49 45 58 45 9 0 16 6 16 13 0 12 19 37 27 37 2
0 0 -12 -3 -27z m-607 -25 c33 -31 28 -43 -7 -16 -28 20 -39 38 -23 38 4 0 17
-10 30 -22z m97 -73 c4 -20 4 -57 0 -83 -5 -26 -7 -53 -5 -60 1 -7 -3 -11 -10
-10 -6 2 -14 -3 -16 -9 -3 -7 2 -13 11 -13 9 0 16 -4 16 -10 0 -5 -9 -10 -20
-10 -25 0 -26 -16 -2 -29 15 -9 15 -10 -5 -11 -25 0 -31 -15 -10 -23 7 -3 5
-6 -5 -6 -31 -2 -19 -21 12 -21 32 0 38 -16 20 -51 -13 -23 -27 -25 -27 -4 0
8 6 15 14 15 26 0 12 18 -17 22 -35 5 -44 0 -29 -18 16 -20 -31 -4 -55 18 -11
10 -23 18 -28 18 -4 0 -8 5 -8 11 0 8 5 7 15 -1 20 -17 32 -5 15 15 -11 13
-10 14 4 9 22 -8 21 12 -1 25 -17 9 -17 10 0 17 10 4 16 13 12 23 -6 21 81
137 100 133 9 -2 15 5 15 18 0 11 -4 20 -10 20 -5 0 -10 11 -10 25 0 37 17 30
24 -10z m-579 -5 c13 -6 15 -9 5 -9 -8 0 -22 4 -30 9 -18 12 -2 12 25 0z m528
-30 c-8 -17 -37 -53 -63 -80 l-49 -51 17 38 c20 45 59 103 80 120 24 20 32 5
15 -27z m-443 1 c0 -5 -7 -12 -16 -15 -22 -9 -24 -8 -24 9 0 8 9 15 20 15 11
0 20 -4 20 -9z m803 -21 c3 -11 1 -23 -4 -26 -5 -3 -9 -14 -9 -25 0 -12 -4
-17 -11 -14 -6 4 -13 -2 -16 -14 -7 -29 -23 -26 -23 4 0 14 -4 25 -9 25 -12 0
-24 -37 -16 -50 3 -5 3 -10 0 -10 -3 0 -11 14 -17 31 l-11 32 -17 -23 -17 -23
-7 24 c-4 14 -9 19 -13 12 -6 -17 -23 -17 -23 0 0 8 -9 13 -20 13 -10 -1 -19
2 -20 7 -2 45 -4 44 108 53 59 5 110 8 113 7 4 -2 9 -12 12 -23z m-276 -77
c-2 -21 -4 -6 -4 32 0 39 2 55 4 38 2 -18 2 -50 0 -70z m-607 61 c0 -9 -5 -14
-12 -12 -18 6 -21 28 -4 28 9 0 16 -7 16 -16z m175 6 c3 -5 -1 -10 -9 -10 -9
0 -16 5 -16 10 0 6 4 10 9 10 6 0 13 -4 16 -10z m-75 -20 c-14 -11 -34 -20
-44 -20 -22 0 -17 7 16 26 37 20 56 16 28 -6z m83 -20 c11 0 17 -8 17 -25 0
-25 -14 -33 -25 -15 -8 14 -78 13 -92 -1 -6 -6 -9 -18 -6 -25 6 -15 -6 -18
-31 -8 -31 12 -18 40 24 53 21 6 42 16 46 22 3 6 16 8 28 5 11 -3 29 -6 39 -6z
m807 -23 c0 -1 -16 -40 -35 -85 l-34 -82 48 -41 48 -41 -19 -36 c-29 -57 -24
-139 13 -220 17 -37 32 -89 35 -117 3 -43 3 -46 -6 -20 -5 17 -28 65 -50 108
-34 67 -40 88 -40 141 0 39 5 69 15 82 20 26 20 55 0 47 -24 -9 -55 -78 -55
-121 0 -49 25 -133 49 -163 26 -34 65 -165 51 -174 -13 -8 -36 28 -38 59 -1
17 -17 59 -35 95 -38 73 -54 131 -60 207 -3 47 -1 53 22 67 39 23 78 67 59 67
-8 0 -25 -11 -37 -24 -23 -24 -113 -68 -162 -80 l-27 -6 1 89 c1 73 -2 93 -16
109 -25 28 -13 33 95 36 51 2 96 4 100 5 11 2 29 67 22 84 -5 14 0 17 25 17
17 0 31 -1 31 -3z m190 -39 c6 -24 20 -67 31 -96 12 -29 20 -55 18 -57 -2 -2
-29 -6 -59 -9 -30 -3 -76 -9 -101 -12 -31 -4 -49 -2 -54 6 -11 17 -6 19 83 26
45 4 82 11 82 15 0 5 -34 9 -76 9 l-75 0 3 28 c3 24 8 28 46 33 23 3 48 11 54
17 9 9 2 11 -35 6 -42 -6 -47 -5 -47 12 0 32 13 42 65 52 28 5 51 10 52 11 1
0 7 -18 13 -41z m-160 -7 c0 -5 -6 -12 -12 -15 -10 -5 -10 -7 -1 -12 14 -6 8
-51 -9 -69 -6 -6 -7 -4 -3 8 4 9 3 17 -3 17 -14 0 -24 -31 -14 -44 5 -6 12
-20 16 -31 6 -17 3 -16 -19 6 l-26 25 27 62 c24 55 44 79 44 53z m-400 -68 c0
-18 -4 -33 -10 -33 -5 0 -10 21 -10 48 0 34 3 43 10 32 5 -8 10 -30 10 -47z
m-500 -7 c0 -11 -19 -15 -25 -6 -3 5 1 10 9 10 9 0 16 -2 16 -4z m1414 -57
c-10 -12 -27 -40 -36 -62 -9 -23 -17 -36 -17 -29 -2 33 54 130 67 117 3 -3 -3
-14 -14 -26z m-914 11 c0 -5 -4 -10 -10 -10 -5 0 -10 5 -10 10 0 6 5 10 10 10
6 0 10 -4 10 -10z m64 4 c31 -12 12 -60 -26 -68 -7 -2 -21 -6 -31 -11 -35 -15
-27 3 9 22 41 21 56 43 29 43 -9 0 -13 5 -10 10 7 12 8 12 29 4z m-388 -15 c3
-6 1 -16 -5 -22 -6 -6 -11 -19 -11 -29 0 -22 -18 -24 -27 -2 -7 18 12 64 26
64 5 0 13 -5 17 -11z m1247 -44 c-15 -30 -28 -53 -30 -51 -4 4 27 78 39 94 20
24 17 11 -9 -43z m323 14 c22 -16 53 -57 71 -90 17 -33 36 -65 41 -72 6 -7 14
-25 17 -40 7 -26 6 -27 -16 -19 -13 5 -30 7 -36 5 -7 -3 -13 3 -13 12 0 12 5
15 21 10 18 -6 20 -4 14 17 -10 33 -35 58 -57 58 -16 0 -17 3 -7 22 10 19 8
25 -15 45 -16 14 -40 23 -60 23 -48 0 -129 -43 -170 -91 -41 -48 -46 -40 -14
21 28 52 67 80 118 87 43 6 55 23 16 23 -39 0 -92 -27 -130 -66 -43 -44 -47
-37 -8 13 33 43 93 72 148 73 31 0 51 -8 80 -31z m-1251 11 c-3 -5 -11 -10
-16 -10 -6 0 -7 5 -4 10 3 6 11 10 16 10 6 0 7 -4 4 -10z m-538 -6 c-3 -3 -12
-4 -19 -1 -8 3 -5 6 6 6 11 1 17 -2 13 -5z m330 -16 c13 -12 23 -30 23 -39 0
-15 -6 -17 -32 -12 -42 8 -39 4 -32 41 8 38 11 39 41 10z m74 -16 c-7 -2 -23
6 -35 18 l-21 22 35 -18 c21 -10 30 -19 21 -22z m990 15 c-10 -9 -11 -8 -5 6
3 10 9 15 12 12 3 -3 0 -11 -7 -18z m-1291 -7 c0 -5 -6 -10 -14 -10 -8 0 -18
5 -21 10 -3 6 3 10 14 10 12 0 21 -4 21 -10z m1044 -12 c-24 -71 -30 -113 -23
-161 10 -73 11 -177 0 -177 -24 0 -34 317 -11 345 20 24 43 19 34 -7z m-113
-9 c-27 -91 -25 -137 10 -360 11 -68 11 -80 -5 -113 -9 -20 -21 -36 -26 -36
-5 0 -6 33 -3 73 4 64 2 80 -26 149 -17 42 -31 81 -31 87 0 6 -4 11 -10 11 -5
0 -10 25 -10 56 0 92 44 161 95 149 6 -1 8 -9 6 -16z m49 11 c0 -5 -4 -10 -10
-10 -5 0 -10 5 -10 10 0 6 5 10 10 10 6 0 10 -4 10 -10z m-590 -9 c0 -5 -10
-11 -22 -13 -18 -2 -24 -10 -26 -38 -1 -19 -5 -42 -8 -50 -8 -24 -24 9 -24 52
0 34 3 38 33 47 43 12 47 13 47 2z m140 1 c0 -7 -57 -32 -74 -32 -14 0 6 21
28 30 27 11 46 12 46 2z m-728 -24 c-7 -7 -12 -8 -12 -2 0 14 12 26 19 19 2
-3 -1 -11 -7 -17z m126 -20 c23 -5 42 -11 42 -12 0 -2 -7 -17 -15 -34 -17 -34
-35 -34 -50 1 -7 16 -20 23 -48 25 -34 3 -36 5 -26 24 8 14 16 18 32 13 12 -3
41 -11 65 -17z m1717 13 c-44 -11 -72 -28 -121 -73 -24 -22 -44 -34 -44 -27 1
19 18 39 60 70 44 33 57 37 100 37 l35 0 -30 -7z m-1115 -11 c0 -12 -35 -31
-44 -23 -8 9 14 33 30 33 8 0 14 -4 14 -10z m-749 -51 c-9 -23 -10 -23 -10 -2
-1 12 2 30 6 40 6 15 8 15 11 2 1 -8 -2 -26 -7 -40z m1899 26 c0 -5 -13 -10
-30 -11 -17 -1 -36 -6 -43 -11 -6 -6 -21 -13 -32 -17 -13 -4 -9 3 13 21 32 27
92 39 92 18z m-1615 -5 c3 -5 -1 -10 -9 -10 -8 0 -24 -12 -35 -26 -23 -29 -82
-64 -108 -64 -22 0 -63 39 -63 59 0 11 7 8 23 -11 31 -37 59 -43 90 -17 15 11
27 26 27 34 0 14 38 44 57 44 6 1 15 -3 18 -9z m895 -27 c0 -27 -3 -34 -11
-26 -7 7 -9 23 -5 37 9 37 16 32 16 -11z m-745 -5 c6 -6 -6 -8 -34 -6 -26 2
-46 9 -49 16 -3 10 5 12 34 6 22 -3 44 -11 49 -16z m303 -8 c0 -16 -4 -30 -9
-30 -5 0 -9 14 -9 30 0 17 4 30 8 30 5 0 9 -13 10 -30z m142 21 c0 -6 -4 -13
-10 -16 -5 -3 -11 -25 -11 -48 l-1 -42 -11 42 c-7 32 -7 46 3 58 14 17 30 20
30 6z m-1005 -10 c15 -6 9 -9 -27 -12 -36 -3 -44 -1 -36 8 12 14 33 16 63 4z
m455 -21 c16 -12 41 -20 68 -20 23 0 42 -4 42 -9 0 -16 -37 -18 -76 -4 -21 7
-51 11 -66 9 -32 -6 -45 8 -28 29 16 20 30 19 60 -5z m159 -30 c0 -9 -4 -8 -9
5 -5 11 -9 27 -9 35 0 9 4 8 9 -5 5 -11 9 -27 9 -35z m197 13 c-11 -11 -19 6
-11 24 8 17 8 17 12 0 3 -10 2 -21 -1 -24z m124 21 c0 -9 -5 -14 -12 -12 -18
6 -21 28 -4 28 9 0 16 -7 16 -16z m786 -49 c-7 -46 -34 -88 -68 -106 -17 -9
-16 -4 9 33 35 53 53 92 54 121 0 12 3 16 6 9 3 -7 2 -33 -1 -57z m282 53 c-3
-7 -18 -16 -35 -20 -33 -9 -75 -44 -110 -93 -12 -16 -24 -27 -28 -23 -4 4 3
17 15 30 12 13 29 35 38 51 24 40 131 89 120 55z m-2002 -28 c10 0 14 -13 14
-49 0 -28 5 -53 10 -56 6 -3 10 -22 10 -42 0 -30 -3 -35 -20 -30 -27 7 -25
-11 3 -23 21 -8 20 -9 -8 -10 -28 -1 -29 -2 -7 -10 12 -5 22 -14 22 -20 0 -9
-38 -5 -46 4 -1 0 -4 31 -7 69 -5 55 -4 67 8 67 8 0 15 5 15 10 0 6 -13 10
-30 10 -38 0 -40 17 -2 22 27 4 27 4 -8 15 -24 8 -29 12 -15 13 11 1 26 2 33
1 6 -1 12 3 12 9 0 5 -7 10 -15 10 -8 0 -15 5 -15 11 0 6 7 8 16 5 9 -3 22 -6
30 -6z m2057 -17 c21 -43 21 -102 1 -124 -14 -15 -14 -21 -4 -34 15 -18 12
-18 -27 -4 -29 10 -30 12 -26 57 5 62 24 132 34 132 5 0 15 -12 22 -27z
m-2421 8 c13 -4 50 -17 83 -27 43 -14 74 -33 115 -70 l55 -52 -2 -77 c-1 -42
-12 -108 -23 -146 -25 -84 -41 -256 -30 -325 10 -59 51 -153 76 -175 11 -9 34
-24 52 -33 17 -9 32 -21 32 -27 0 -8 -5 -7 -15 1 -25 21 -36 0 -24 -44 11 -38
5 -65 -7 -30 -3 10 -12 33 -20 51 -8 17 -14 36 -14 42 0 6 -4 11 -10 11 -5 0
-10 -9 -10 -20 0 -17 -3 -19 -19 -10 -30 16 -34 -4 -10 -47 31 -55 22 -135
-21 -198 -26 -38 -37 -46 -56 -42 -27 5 -44 -11 -25 -23 9 -5 3 -15 -19 -34
-36 -30 -52 -32 -70 -11 -16 19 -50 19 -50 0 0 -8 12 -18 27 -21 l27 -7 -30
-23 c-30 -25 -54 -31 -54 -14 0 6 -7 10 -15 10 -18 0 -20 -26 -2 -33 6 -3 -3
-6 -22 -6 -25 -1 -32 -5 -28 -16 7 -17 -9 -30 -18 -15 -11 17 -25 11 -25 -11
0 -18 -3 -19 -15 -9 -18 15 -40 3 -26 -14 8 -10 2 -21 -25 -45 -19 -18 -37
-31 -38 -29 -2 1 -7 304 -11 673 -4 369 -9 699 -11 735 -4 76 -1 83 46 103 39
17 194 23 232 8z m1385 -33 c-3 -7 -5 -2 -5 12 0 14 2 19 5 13 2 -7 2 -19 0
-25z m824 9 c-10 -9 -11 -8 -5 6 3 10 9 15 12 12 3 -3 0 -11 -7 -18z m-1781 3
c0 -5 -4 -10 -10 -10 -5 0 -10 5 -10 10 0 6 5 10 10 10 6 0 10 -4 10 -10z m60
6 c0 -3 -4 -8 -10 -11 -5 -3 -10 -1 -10 4 0 6 5 11 10 11 6 0 10 -2 10 -4z
m123 -45 c17 -7 27 -18 27 -30 0 -31 -19 -35 -30 -7 -7 19 -17 26 -35 26 -18
0 -25 5 -25 18 0 26 11 34 24 17 6 -8 23 -19 39 -24z m97 29 c0 -5 -7 -10 -16
-10 -8 0 -12 5 -9 10 3 6 10 10 16 10 5 0 9 -4 9 -10z m241 -39 c14 -47 6 -88
-20 -96 -10 -3 -21 -16 -25 -28 -5 -21 -6 -21 -20 -2 -13 18 -13 22 3 40 24
26 34 71 21 94 -7 14 -6 21 3 24 23 10 26 7 38 -32z m210 -2 c-9 -23 -10 -22
-10 11 -1 23 2 31 9 24 7 -7 7 -19 1 -35z m829 16 c-13 -14 -29 -25 -37 -25
-7 0 -13 -4 -13 -10 0 -18 33 -11 58 13 22 20 24 20 14 2 -16 -32 -49 -57 -69
-53 -24 4 -32 58 -8 58 9 0 28 9 42 20 35 27 41 25 13 -5z m-1470 -9 c0 -13
-39 -30 -48 -21 -6 6 32 42 41 38 4 -2 7 -10 7 -17z m1804 10 c-6 -17 -34 -30
-34 -16 0 5 8 14 18 19 22 13 22 13 16 -3z m-1064 -6 c0 -5 -4 -10 -10 -10 -5
0 -10 5 -10 10 0 6 5 10 10 10 6 0 10 -4 10 -10z m1227 4 c-3 -3 -12 -4 -19
-1 -8 3 -5 6 6 6 11 1 17 -2 13 -5z m62 -51 c7 -32 19 -70 27 -85 8 -14 14
-35 14 -46 0 -28 -47 -82 -71 -82 -33 0 -89 -28 -89 -44 0 -9 -4 -16 -10 -16
-17 0 -11 46 8 62 9 9 32 19 50 23 49 10 68 45 55 101 -7 28 -7 47 -1 50 9 6
6 28 -8 77 -3 9 -1 17 4 17 5 0 14 -26 21 -57z m-1491 10 c68 -74 82 -101 82
-164 0 -33 -3 -59 -6 -59 -17 0 -33 39 -34 78 0 23 -4 42 -10 42 -5 0 -10 4
-10 10 0 5 -16 32 -35 59 -55 76 -46 97 13 34z m151 25 c0 -7 -4 -22 -9 -33
-7 -17 -9 -15 -9 13 -1 17 4 32 9 32 6 0 10 -6 9 -12z m151 -4 c0 -8 -4 -12
-10 -9 -5 3 -10 10 -10 16 0 5 5 9 10 9 6 0 10 -7 10 -16z m-1083 -12 c7 -4
16 -23 19 -42 5 -24 4 -31 -4 -26 -7 4 -12 12 -12 18 0 7 -10 22 -22 35 -15
16 -17 23 -7 23 8 0 20 -4 26 -8z m1400 -24 c-3 -8 -6 -5 -6 6 -1 11 2 17 5
13 3 -3 4 -12 1 -19z m498 2 c-3 -5 -12 -10 -18 -10 -7 0 -6 4 3 10 19 12 23
12 15 0z m125 5 c0 -8 -52 -26 -58 -20 -3 2 6 9 19 14 28 11 39 13 39 6z m352
-7 c8 -21 -3 -88 -14 -88 -5 0 -18 10 -28 22 -17 22 -17 23 4 50 24 30 32 34
38 16z m-2122 -13 c0 -12 -19 -12 -23 0 -4 9 -1 12 9 8 7 -3 14 -7 14 -8z
m1978 -10 c-3 -3 -9 2 -12 12 -6 14 -5 15 5 6 7 -7 10 -15 7 -18z m-1160 -10
c-3 -3 -9 2 -12 12 -6 14 -5 15 5 6 7 -7 10 -15 7 -18z m745 1 c18 -14 17 -15
-4 -21 -22 -7 -43 10 -33 27 7 11 16 10 37 -6z m217 4 c0 -5 -4 -10 -10 -10
-5 0 -10 5 -10 10 0 6 5 10 10 10 6 0 10 -4 10 -10z m-1140 -27 c-1 -24 -2
-26 -11 -10 -5 9 -7 22 -4 27 10 17 15 11 15 -17z m-160 7 c0 -5 -4 -10 -10
-10 -5 0 -10 5 -10 10 0 6 5 10 10 10 6 0 10 -4 10 -10z m1016 -18 c1 -12 -6
-27 -16 -32 -32 -17 -92 -101 -95 -132 -2 -25 -7 -32 -28 -34 -57 -6 -124 -63
-142 -121 -8 -30 -13 -29 -60 11 l-39 33 24 47 c24 43 27 46 58 40 30 -6 37
-1 96 60 35 36 73 85 85 108 20 42 22 43 68 43 43 0 48 -2 49 -23z m181 3 c-7
-16 -37 -21 -37 -5 0 10 32 31 39 25 2 -2 1 -11 -2 -20z m-769 -15 c33 -44 27
-59 -8 -20 -16 18 -30 37 -30 42 0 17 17 7 38 -22z m891 15 c71 -13 136 -54
117 -72 -4 -4 -10 -3 -14 3 -13 20 -54 36 -101 39 -52 2 -95 21 -85 36 3 6 18
8 32 4 15 -3 38 -7 51 -10z m-1876 -20 c-7 -21 -13 -19 -13 6 0 11 4 18 10 14
5 -3 7 -12 3 -20z m92 15 c-3 -5 -10 -10 -16 -10 -5 0 -9 5 -9 10 0 6 7 10 16
10 8 0 12 -4 9 -10z m1585 -12 c-1 -14 -129 -93 -137 -85 -9 9 53 66 88 81 42
19 49 19 49 4z m-1121 -25 c16 -16 41 -49 55 -75 l25 -46 -44 -21 c-24 -11
-46 -25 -50 -31 -10 -15 -35 -12 -35 5 0 8 -8 15 -17 15 -16 1 -16 2 1 15 17
13 18 15 2 21 -13 5 -14 9 -5 20 9 11 8 14 -7 14 -17 0 -17 1 2 14 18 14 18
15 2 21 -10 4 -18 11 -18 17 0 9 45 58 54 58 3 0 18 -12 35 -27z m231 -3 c0
-10 -5 -22 -10 -25 -6 -4 -7 -28 -4 -61 4 -30 4 -54 0 -54 -15 0 -66 31 -66
40 0 13 17 13 25 0 10 -15 35 -12 35 5 0 8 -4 15 -10 15 -13 0 -13 24 1 71 12
39 29 44 29 9z m590 18 c0 -7 -5 -20 -10 -28 -8 -12 -10 -9 -10 13 0 15 5 27
10 27 6 0 10 -6 10 -12z m-340 -118 c63 -75 150 -162 196 -195 81 -61 106 -85
86 -85 -11 0 -37 13 -58 29 -54 39 -234 230 -276 291 -10 14 -27 39 -39 55
-17 24 -15 23 12 -6 19 -20 54 -60 79 -89z m257 98 c-3 -8 -6 -5 -6 6 -1 11 2
17 5 13 3 -3 4 -12 1 -19z m562 -4 c25 -7 48 -11 52 -8 5 2 17 -1 29 -8 22
-14 21 -45 -4 -93 -8 -14 -10 -41 -7 -67 8 -58 31 -61 78 -9 34 39 63 53 63
31 0 -5 -6 -10 -12 -10 -24 0 -60 -65 -52 -95 9 -36 -12 -73 -47 -80 -16 -4
-31 -11 -34 -16 -4 -5 -16 -9 -27 -9 -23 0 -97 -75 -98 -98 0 -8 -6 -12 -12
-9 -20 6 -38 -25 -27 -45 13 -25 -4 -22 -27 3 -24 27 -116 69 -150 69 -21 0
-25 4 -19 18 3 9 28 73 55 142 48 124 82 200 122 272 23 41 20 41 117 12z
m-2018 -109 c-14 -56 -24 -402 -12 -442 5 -18 21 -44 35 -58 29 -29 33 -45 13
-45 -33 0 -81 94 -95 185 -10 64 9 261 31 325 9 25 19 70 24 100 8 53 8 54 11
16 2 -22 -1 -58 -7 -81z m895 88 c-10 -10 -19 5 -10 18 6 11 8 11 12 0 2 -7 1
-15 -2 -18z m-661 -3 c0 -7 -6 -15 -12 -17 -8 -3 -13 4 -13 17 0 13 5 20 13
18 6 -3 12 -11 12 -18z m-102 -18 c10 -9 16 -27 15 -43 -1 -15 4 -34 11 -43
10 -11 14 -69 17 -214 3 -204 11 -252 40 -252 15 0 16 -8 9 -62 -5 -35 -9
-102 -9 -149 -1 -101 11 -123 74 -133 41 -6 52 -19 24 -30 -21 -8 -60 2 -115
31 -44 23 -47 27 -58 84 -17 82 -2 189 25 189 31 0 11 20 -48 47 -59 28 -64
33 -74 74 -7 26 -8 72 -5 114 4 39 6 97 4 130 -1 33 0 110 3 171 l6 110 32 -4
c17 -2 39 -11 49 -20z m1701 -42 c-37 -67 -42 -56 -8 16 15 32 29 53 32 46 2
-6 -9 -34 -24 -62z m371 51 c-3 -6 -11 -11 -16 -11 -5 0 -4 6 3 14 14 16 24
13 13 -3z m135 -6 c0 -14 -13 -39 -29 -57 -24 -28 -35 -32 -80 -33 -28 -1 -45
2 -38 7 6 4 24 8 39 8 33 0 84 41 92 75 8 32 16 32 16 0z m-1897 -4 c20 -8 77
-70 77 -85 0 -18 -31 -1 -53 27 -14 19 -40 38 -58 43 -40 12 -55 40 -16 30 14
-3 37 -10 50 -15z m82 -2 c10 -30 2 -32 -12 -3 -6 13 -7 24 -3 24 5 0 12 -9
15 -21z m1275 7 c0 -21 -23 -56 -36 -56 -13 0 -14 3 -4 15 7 8 9 15 5 15 -4 0
-2 7 5 15 12 14 30 21 30 11z m-507 -68 c-3 -16 -10 -28 -15 -28 -6 0 -7 7 -4
16 3 9 6 25 6 37 0 13 4 17 9 12 5 -6 7 -22 4 -37z m-980 25 c-7 -2 -19 -2
-25 0 -7 3 -2 5 12 5 14 0 19 -2 13 -5z m1157 -28 c-7 -8 -17 -12 -23 -8 -6 4
-3 11 8 19 23 17 32 10 15 -11z m-1030 -15 c13 -19 19 -37 15 -50 -7 -22 -13
-24 -35 -10 -12 7 -12 12 0 34 12 24 11 28 -6 41 -10 8 -14 15 -7 15 6 0 21
-13 33 -30z m550 -16 c0 -7 -4 -16 -10 -19 -20 -12 -11 -82 15 -113 14 -17 25
-33 25 -36 0 -14 -22 -4 -45 19 -20 20 -25 34 -25 78 0 30 3 69 7 87 6 31 7
32 20 15 7 -11 13 -24 13 -31z m1367 24 c-3 -8 -6 -5 -6 6 -1 11 2 17 5 13 3
-3 4 -12 1 -19z m-2012 -8 c-11 -5 -31 -8 -45 -8 l-25 0 25 8 c14 4 34 8 45 8
l20 1 -20 -9z m486 -14 c-17 -21 23 -43 45 -26 11 10 15 9 20 -4 3 -9 3 -24 0
-33 -6 -15 -8 -15 -16 -3 -18 30 -33 -6 -31 -74 3 -90 -7 -136 -30 -136 -10 0
-25 -10 -33 -22 -19 -26 -32 -18 -17 10 13 24 5 52 -15 52 -8 0 -14 5 -14 10
0 6 -6 10 -14 10 -8 0 -17 7 -20 16 -3 9 -13 14 -20 11 -8 -3 -20 0 -26 8 -6
8 -17 12 -23 10 -7 -3 -22 4 -35 15 -22 18 -22 20 -5 40 17 21 64 50 79 50 4
0 -11 -14 -34 -32 -40 -31 -52 -48 -33 -48 5 0 30 17 56 39 45 38 69 52 110
66 l20 7 -20 8 c-18 7 -16 10 15 24 44 19 56 20 41 2z m929 4 c0 -5 -10 -10
-22 -10 -19 0 -20 2 -8 10 19 13 30 13 30 0z m613 -512 c2 -230 1 -418 -3
-418 -12 0 -30 24 -30 42 0 39 -101 53 -108 15 -4 -22 -31 -51 -55 -60 -21 -8
-22 -36 -2 -43 22 -9 18 -24 -5 -24 -13 0 -20 -7 -20 -20 0 -11 5 -20 10 -20
6 0 10 -7 10 -14 0 -11 -14 -16 -47 -18 -40 -2 -47 -6 -45 -21 2 -10 -7 -31
-20 -46 -13 -16 -31 -43 -41 -61 -13 -25 -22 -31 -39 -27 -30 8 -89 -25 -145
-80 -69 -69 -95 -83 -148 -81 -50 1 -76 -15 -95 -61 -11 -27 -43 -51 -93 -70
-25 -10 -26 -9 -15 9 7 11 16 20 20 20 5 0 8 11 8 24 0 13 29 65 65 115 36 51
73 107 82 124 9 18 26 46 38 62 25 33 50 87 71 154 20 65 5 108 -59 169 -59
57 -82 77 -129 110 -121 85 -120 84 -113 111 4 14 10 75 15 135 7 98 10 111
34 134 30 31 47 23 18 -8 -28 -30 -33 -57 -15 -75 8 -9 12 -22 9 -30 -3 -8 -1
-15 5 -15 6 0 9 -7 5 -15 -3 -8 -1 -15 5 -15 5 0 9 -8 7 -17 -2 -10 3 -17 10
-16 6 2 12 -2 12 -8 0 -5 9 -9 20 -7 14 2 25 -5 33 -21 18 -36 58 -62 106 -68
37 -5 46 -2 67 21 14 14 31 26 38 26 7 0 26 10 41 21 20 17 26 28 22 48 -5 25
21 72 72 130 12 13 21 28 21 32 0 5 23 34 52 64 34 36 59 55 75 55 42 0 83 56
83 114 0 35 13 55 25 36 11 -17 25 -11 25 10 0 13 12 27 31 38 17 9 41 25 53
34 21 16 21 16 28 -30 5 -26 9 -235 11 -464z m-1033 493 c0 -15 -39 -19 -51
-5 -9 11 -6 14 20 14 17 0 31 -4 31 -9z m447 -43 c-8 -18 -27 -67 -42 -108
-40 -114 -48 -129 -53 -107 -2 10 1 23 6 30 5 7 13 27 17 46 4 18 15 52 25 75
10 22 26 59 35 81 10 22 19 35 22 28 2 -7 -2 -27 -10 -45z m500 35 c-9 -9 -20
-13 -24 -9 -4 4 -1 11 7 16 25 16 35 11 17 -7z m-1808 -48 c-31 -45 -39 -53
-39 -35 0 9 58 80 66 80 2 0 -10 -20 -27 -45z m1154 -164 c-1 -2 -9 2 -17 9
-10 7 -30 10 -53 6 -69 -11 -101 39 -68 104 19 37 78 82 98 75 8 -4 19 0 23 7
8 11 24 -189 17 -201z m112 199 c-3 -5 -11 -10 -16 -10 -6 0 -7 5 -4 10 3 6
11 10 16 10 6 0 7 -4 4 -10z m-387 -22 c-6 -18 -28 -21 -28 -4 0 9 7 16 16 16
9 0 14 -5 12 -12z m-1110 -38 c-7 -11 -16 -20 -20 -20 -13 0 -9 28 5 33 23 10
27 7 15 -13z m1472 5 c0 -8 -7 -15 -16 -15 -14 0 -14 3 -4 15 7 8 14 15 16 15
2 0 4 -7 4 -15z m-1201 -28 c14 -17 5 -26 -19 -20 -11 3 -16 11 -13 19 7 18
17 18 32 1z m621 3 c0 -5 -4 -10 -10 -10 -5 0 -10 5 -10 10 0 6 5 10 10 10 6
0 10 -4 10 -10z m-177 -57 c12 -14 32 -23 49 -23 18 0 28 -5 28 -14 0 -20 -21
-31 -30 -17 -5 9 -10 8 -19 -3 -14 -16 -7 -36 12 -36 21 1 56 36 63 64 6 26 8
24 46 -38 49 -83 138 -179 195 -212 37 -22 43 -30 43 -59 0 -52 -9 -65 -44
-65 -17 0 -37 -4 -45 -9 -20 -13 13 -28 81 -39 44 -7 70 -21 145 -75 50 -37
95 -67 101 -67 19 0 151 -137 158 -165 4 -17 0 -48 -11 -84 -10 -31 -19 -63
-20 -72 0 -9 -9 -24 -18 -33 -9 -9 -37 -43 -63 -76 -26 -33 -53 -60 -61 -60
-8 0 -13 -8 -11 -17 2 -10 -4 -18 -12 -19 -30 -2 -32 -4 -19 -21 13 -15 12
-16 -8 -11 -28 7 -38 -5 -18 -22 18 -15 10 -31 -10 -23 -10 3 -15 -2 -15 -16
0 -12 -5 -21 -10 -21 -6 0 -8 -11 -4 -25 5 -22 3 -25 -20 -25 -14 0 -26 -4
-26 -10 0 -5 5 -10 10 -10 6 0 10 -7 10 -15 0 -8 -7 -15 -15 -15 -9 0 -15 -9
-15 -25 0 -13 -11 -36 -25 -50 -25 -24 -40 -29 -77 -26 -10 1 -18 -3 -18 -9 0
-7 -8 -9 -19 -5 -27 8 -101 -32 -101 -55 0 -11 5 -22 10 -25 15 -9 -7 -45 -27
-45 -9 0 -13 -3 -10 -7 14 -13 -16 -33 -49 -33 -28 0 -36 5 -45 27 -6 15 -8
42 -4 59 7 40 39 107 59 124 17 14 22 50 7 50 -29 0 -105 -158 -99 -206 2 -19
0 -34 -4 -34 -4 0 -8 4 -8 10 0 5 -7 7 -15 4 -8 -4 -13 -10 -10 -14 3 -5 1
-11 -5 -15 -6 -4 -10 5 -10 20 0 37 -33 29 -42 -10 -5 -22 -6 -18 -3 12 3 26
1 43 -5 43 -5 0 -10 7 -10 16 0 11 -5 14 -16 10 -24 -9 -11 45 23 97 41 61
102 90 172 82 61 -6 81 -18 81 -46 0 -23 13 -24 45 -3 18 12 25 25 25 50 0 35
1 36 100 121 59 50 93 97 151 209 l36 71 -19 37 c-11 21 -16 46 -13 57 12 38
14 79 3 85 -5 4 -14 0 -19 -7 -4 -7 -11 -10 -16 -6 -4 4 -2 17 5 27 10 17 10
20 -3 20 -8 0 -17 -11 -21 -25 -6 -23 -9 -24 -53 -19 -67 8 -73 11 -66 34 7
23 -13 28 -21 5 -4 -8 -13 -15 -21 -15 -9 0 -13 6 -9 15 6 17 -5 20 -20 5 -8
-8 -44 -6 -120 6 -99 15 -111 19 -136 47 -32 36 -35 62 -11 89 15 17 15 18 0
18 -9 0 -24 -11 -33 -25 -22 -34 -11 -71 34 -114 36 -33 36 -34 10 -28 -65 17
-76 24 -71 51 4 21 0 28 -21 36 -14 5 -26 16 -26 25 0 9 -11 20 -24 25 -26 10
-23 -12 -42 283 -3 50 -10 97 -15 104 -7 8 4 21 36 44 54 39 68 64 86 153 10
52 15 63 22 49 5 -10 19 -28 30 -40z m-537 -3 c-21 -54 -22 -207 -1 -237 8
-12 12 -28 9 -37 -9 -24 -24 -19 -24 8 0 13 -7 29 -16 37 -10 8 -13 20 -9 33
4 12 6 51 5 88 -1 37 3 69 9 73 6 3 11 17 11 31 0 13 5 24 10 24 6 0 10 8 10
17 0 9 3 14 6 10 4 -3 -1 -24 -10 -47z m1274 25 c-7 -8 -17 -15 -22 -15 -6 0
-5 7 2 15 7 8 17 15 22 15 6 0 5 -7 -2 -15z m-1150 -48 c0 -7 -9 -18 -19 -24
-16 -10 -20 -9 -25 3 -10 27 -7 34 19 34 14 0 25 -6 25 -13z m720 9 c0 -11
-19 -15 -25 -6 -3 5 1 10 9 10 9 0 16 -2 16 -4z m-990 -41 c11 -13 10 -14 -2
-10 -8 3 -23 -3 -33 -15 -28 -31 -39 -24 -15 10 24 34 32 36 50 15z m1313 -12
c-7 -2 -19 -2 -25 0 -7 3 -2 5 12 5 14 0 19 -2 13 -5z m-1268 -13 c3 -5 2 -10
-4 -10 -5 0 -13 5 -16 10 -3 6 -2 10 4 10 5 0 13 -4 16 -10z m257 -15 c0 -5
-5 -11 -11 -13 -6 -2 -11 4 -11 13 0 9 5 15 11 13 6 -2 11 -8 11 -13z m702 -9
c-3 -9 -10 -16 -15 -16 -5 0 -4 9 3 20 14 22 21 20 12 -4z m-999 -16 c10 -11
24 -20 32 -20 7 0 13 -4 13 -10 0 -13 -1 -13 -38 6 -24 11 -36 13 -52 4 -24
-13 -26 -3 -3 22 20 23 26 23 48 -2z m1111 -25 c3 -13 4 -30 1 -37 -3 -7 -6
-1 -6 15 -1 15 -5 27 -11 27 -5 0 -10 5 -10 10 0 20 20 9 26 -15z m-852 -1 c7
-19 -2 -37 -15 -29 -12 8 -12 45 0 45 5 0 12 -7 15 -16z m946 6 c0 -5 -2 -10
-4 -10 -3 0 -8 5 -11 10 -3 6 -1 10 4 10 6 0 11 -4 11 -10z m-789 -23 c33 -23
34 -25 32 -88 -1 -35 -7 -86 -12 -114 -19 -98 -34 -306 -22 -318 6 -6 11 -14
11 -18 0 -7 -72 -59 -82 -59 -3 0 -8 45 -12 101 -5 72 -4 105 5 115 8 10 8 18
1 27 -13 16 -6 331 9 358 13 25 29 24 70 -4z m617 4 c3 -8 -1 -12 -9 -9 -7 2
-15 10 -17 17 -3 8 1 12 9 9 7 -2 15 -10 17 -17z m142 -27 c0 -8 -4 -14 -10
-14 -5 0 -10 9 -10 21 0 11 5 17 10 14 6 -3 10 -13 10 -21z m314 17 c3 -4 19
-11 36 -15 33 -6 80 -47 80 -68 -1 -9 -4 -8 -10 3 -5 9 -41 30 -80 48 -38 18
-70 34 -70 37 0 8 39 4 44 -5z m-1490 -20 c10 -11 28 -22 40 -24 14 -3 11 -5
-10 -6 -18 0 -37 6 -44 14 -8 10 -21 13 -33 9 -17 -5 -18 -4 -6 9 19 22 32 21
53 -2z m1288 -7 c-12 -8 -22 -22 -22 -30 0 -8 -4 -12 -10 -9 -18 11 -10 34 18
48 34 17 43 12 14 -9z m-990 -86 c-2 -57 -9 -109 -15 -116 -8 -10 -8 -16 0
-20 14 -9 18 -192 4 -192 -6 0 -12 15 -12 33 -1 17 -4 61 -6 97 -2 36 -5 82
-5 103 -1 20 -6 37 -11 37 -6 0 -2 7 9 15 14 11 15 14 4 15 -13 0 -13 2 -1 9
8 5 14 24 13 43 -1 42 6 78 16 78 4 0 6 -46 4 -102z m1207 62 c50 -25 59 -33
57 -55 -1 -20 -6 -25 -26 -25 l-24 0 22 -16 c12 -8 22 -20 22 -26 0 -7 -4 -7
-14 1 -17 14 -46 4 -47 -18 -1 -9 -2 -23 -3 -31 0 -9 -18 -18 -45 -23 -57 -11
-76 8 -84 81 -7 63 6 66 36 9 20 -40 27 -43 58 -27 23 13 25 57 3 88 -11 15
-25 22 -50 22 -35 0 -44 16 -22 38 19 19 55 14 117 -18z m-351 -35 c-3 -3 -13
7 -23 22 l-17 28 23 -22 c12 -12 20 -25 17 -28z m-1073 -5 c-3 -5 -13 -6 -21
-3 -12 4 -13 8 -3 14 15 9 32 2 24 -11z m-77 -8 c2 -7 -2 -10 -12 -6 -9 3 -16
11 -16 16 0 13 23 5 28 -10z m79 -44 c-3 -8 -6 -5 -6 6 -1 11 2 17 5 13 3 -3
4 -12 1 -19z m1243 -4 c0 -8 -4 -12 -10 -9 -5 3 -10 10 -10 16 0 5 5 9 10 9 6
0 10 -7 10 -16z m-1500 -34 c0 -5 -6 -10 -14 -10 -8 0 -18 5 -21 10 -3 6 3 10
14 10 12 0 21 -4 21 -10z m300 -220 c-14 -85 -35 -145 -55 -160 -28 -21 -87
-54 -172 -96 -50 -25 -70 -40 -66 -50 3 -8 0 -14 -7 -14 -6 0 -8 5 -5 10 8 13
-1 13 -26 -1 -16 -8 -18 -13 -9 -24 12 -15 154 -16 176 -3 6 4 22 5 34 3 13
-3 28 -1 34 4 21 16 76 23 141 16 69 -8 83 -19 37 -30 -31 -6 -101 -59 -91
-69 3 -3 30 1 60 10 44 13 62 14 97 5 56 -15 83 -14 106 4 11 8 31 15 44 15
23 0 24 -2 17 -37 -19 -94 -41 -269 -35 -276 4 -5 -1 -25 -12 -45 -14 -27 -18
-51 -15 -85 7 -75 1 -77 -166 -73 -90 2 -167 10 -211 21 -63 16 -107 16 -146
1 -9 -4 -34 10 -64 34 -62 51 -104 54 -165 10 -42 -31 -119 -55 -202 -63 -41
-4 -48 -1 -65 22 -10 14 -48 58 -85 96 -111 119 -109 114 -109 225 0 123 -6
116 205 252 39 25 97 62 130 83 97 62 160 121 180 167 30 68 32 70 72 42 20
-13 44 -24 55 -24 10 0 36 -11 58 -25 38 -24 103 -52 145 -61 29 -7 75 40 75
76 0 33 -19 40 -40 15 -15 -18 -30 -11 -30 15 0 23 44 123 71 161 10 14 21 38
26 55 11 41 23 -145 13 -206z m1033 183 c-6 -38 -23 -70 -23 -43 0 7 -7 22
-17 32 -14 16 -14 18 -1 18 9 0 18 7 22 15 11 30 25 14 19 -22z m377 16 c0 -5
-4 -9 -10 -9 -5 0 -10 7 -10 16 0 8 5 12 10 9 6 -3 10 -10 10 -16z m-1490 -70
c0 -5 -11 -9 -25 -9 -28 0 -34 16 -7 23 20 4 32 -1 32 -14z m510 -194 c-8 -9
-22 -14 -33 -11 -31 8 -47 -4 -47 -35 0 -16 -4 -29 -10 -29 -5 0 -8 6 -6 13 3
6 7 24 10 40 6 23 11 27 41 27 26 0 35 4 35 17 0 13 3 14 12 5 8 -8 8 -15 -2
-27z m-250 -107 c0 -34 -3 -58 -7 -55 -8 9 -22 109 -16 120 12 20 23 -11 23
-65z m240 62 c12 -8 9 -10 -12 -10 -16 0 -28 5 -28 10 0 13 20 13 40 0z m37
-41 c27 -7 82 -22 123 -34 l75 -23 -93 -1 c-51 -1 -101 -5 -110 -10 -9 -4 -31
-11 -49 -14 -27 -5 -32 -3 -37 18 -10 38 3 75 25 75 10 0 40 -5 66 -11z m-120
-79 c-5 -39 -7 -77 -4 -84 7 -17 88 -28 104 -14 10 8 13 5 13 -12 0 -22 -2
-22 -62 -16 -34 4 -66 10 -71 13 -9 5 0 170 10 186 14 22 18 -11 10 -73z
m-279 50 c5 -13 3 -13 -11 -2 -13 11 -23 12 -54 1 -21 -6 -40 -15 -43 -18 -6
-8 -185 -101 -195 -101 -19 0 13 21 92 60 48 24 99 52 112 62 29 22 92 21 99
-2z m612 10 c0 -12 -17 -12 -45 0 -17 7 -15 9 13 9 17 1 32 -3 32 -9z m-380
-10 c0 -5 -7 -10 -16 -10 -8 0 -12 5 -9 10 3 6 10 10 16 10 5 0 9 -4 9 -10z
m624 -25 c49 -8 92 -15 96 -15 4 0 13 -27 19 -60 7 -33 16 -62 21 -65 16 -10
12 -32 -20 -99 -36 -76 -122 -187 -171 -221 -44 -29 -69 -66 -69 -101 l0 -27
-25 23 c-23 21 -35 24 -116 24 -83 1 -90 2 -85 20 3 10 0 26 -6 35 -26 43 68
285 176 454 33 52 40 58 64 53 15 -3 67 -13 116 -21z m-624 -47 l0 -41 -22 19
c-13 10 -24 19 -25 19 -7 2 30 45 38 45 5 0 9 -19 9 -42z m415 32 c3 -5 0 -10
-9 -10 -8 0 -23 -3 -33 -6 -16 -6 -16 -5 2 9 24 19 32 21 40 7z m-655 -24 c0
-3 -4 -8 -10 -11 -5 -3 -10 -1 -10 4 0 6 5 11 10 11 6 0 10 -2 10 -4z m1920
-6 c0 -5 -4 -10 -10 -10 -5 0 -10 5 -10 10 0 6 5 10 10 10 6 0 10 -4 10 -10z
m-1350 -8 c0 -4 -5 -13 -12 -20 -9 -9 -5 -12 20 -12 18 0 32 -4 32 -10 0 -5
-13 -10 -30 -10 -16 0 -30 -4 -30 -10 0 -5 9 -10 20 -10 24 0 25 -7 6 -46 -76
-157 -97 -228 -100 -326 -1 -61 -4 -70 -33 -100 -41 -43 -67 -111 -88 -233 -9
-54 -23 -111 -31 -126 -47 -91 -67 -238 -36 -271 14 -17 12 -18 -43 -18 -47 0
-64 5 -82 22 -13 12 -23 28 -23 37 0 10 6 7 17 -9 9 -14 18 -27 19 -29 1 -1 7
0 13 4 8 4 8 12 0 27 -8 15 -8 26 1 44 11 19 11 26 0 39 -17 20 -5 85 16 85
13 0 14 -8 9 -42 -5 -28 -4 -40 3 -33 13 13 42 164 42 218 0 23 7 55 15 70 13
26 13 28 -7 36 -18 7 -19 9 -5 14 24 9 21 27 -5 28 -13 0 -17 3 -10 6 18 7 15
20 -8 26 -16 4 -19 11 -14 39 9 52 12 58 29 52 8 -3 15 -1 15 5 0 6 -10 12
-22 12 l-23 2 23 4 c25 5 30 23 7 23 -8 0 -15 5 -15 10 0 6 9 10 20 10 25 0
26 17 3 23 -14 4 -13 5 4 6 27 1 38 17 18 25 -19 7 -19 26 0 26 24 0 17 20 -7
21 l-23 2 23 4 c25 5 30 23 7 23 -8 0 -15 5 -15 10 0 6 11 10 25 10 30 0 34
17 5 22 -31 5 -29 23 3 26 37 4 34 22 -4 22 -17 0 -28 4 -24 10 3 6 17 10 31
10 13 0 24 5 24 10 0 6 -11 10 -25 10 -14 0 -25 4 -25 9 0 11 48 24 60 16 5
-3 11 -1 15 5 4 6 -8 10 -30 10 -48 0 -36 20 13 21 30 2 32 3 10 6 -46 7 -31
23 21 23 47 0 50 2 56 31 4 17 13 33 21 36 12 4 12 7 -2 17 -14 11 -13 14 10
29 14 9 33 17 43 17 10 0 25 5 33 10 18 12 40 13 40 2z m70 -1 c0 -6 -4 -13
-10 -16 -5 -3 -10 1 -10 9 0 9 5 16 10 16 6 0 10 -4 10 -9z m1163 -21 c-5 -54
-11 -92 -17 -97 -9 -9 14 -45 27 -40 7 2 17 33 23 68 9 51 12 57 13 27 2 -63
40 -59 41 5 0 15 5 27 10 27 19 0 10 -83 -15 -137 -17 -36 -28 -78 -32 -131
-6 -78 -6 -79 -29 -68 -19 9 -24 19 -24 49 0 47 -46 113 -67 95 -10 -8 -13 -7
-13 5 0 8 6 17 14 20 7 3 16 29 20 59 10 71 9 90 -5 98 -8 5 -6 14 7 29 24 28
50 23 47 -9z m-1943 -25 c-7 -8 -17 -15 -22 -15 -6 0 -5 7 2 15 7 8 17 15 22
15 6 0 5 -7 -2 -15z m224 -54 c3 -4 -22 -15 -56 -23 -59 -15 -60 -15 -37 3 13
10 35 20 49 22 14 2 28 5 32 6 4 0 9 -3 12 -8z m1626 -41 c0 -27 -4 -50 -9
-50 -9 0 -27 -38 -23 -51 0 -4 -17 -21 -39 -39 -32 -25 -38 -35 -29 -46 10
-11 16 -11 38 4 25 16 26 16 19 -1 -4 -10 -7 -22 -7 -27 0 -5 -12 -22 -26 -39
-14 -17 -22 -35 -19 -41 4 -6 1 -50 -5 -97 -11 -77 -11 -88 4 -98 23 -17 20
-62 -4 -77 -11 -7 -20 -22 -21 -33 0 -11 -3 -14 -6 -7 -2 6 -12 12 -21 12 -8
0 -23 6 -31 14 -23 21 -66 9 -81 -22 -10 -22 -9 -28 6 -39 10 -7 27 -13 38
-13 15 0 17 -3 8 -12 -6 -6 -33 -11 -59 -10 -26 0 -54 -4 -61 -10 -25 -21 -24
2 2 57 14 31 26 61 26 69 0 7 9 21 20 31 18 17 19 20 5 35 -14 15 -14 19 -1
29 12 10 17 9 28 -8 21 -35 38 -25 38 21 0 38 1 40 13 23 19 -25 37 -11 37 30
0 37 -15 54 -33 36 -14 -14 -37 -14 -37 -1 0 6 11 15 25 20 25 9 47 47 38 63
-14 23 -99 -14 -89 -40 3 -8 -1 -16 -9 -19 -22 -9 -18 -34 5 -34 11 0 20 -6
20 -13 0 -22 -10 -26 -37 -16 -17 6 -30 6 -38 -1 -9 -7 -21 -7 -39 0 -42 16
-67 12 -73 -10 -4 -15 -11 -18 -29 -14 -17 4 -31 -1 -49 -17 -30 -29 -32 -55
-5 -69 11 -6 18 -16 14 -21 -3 -6 4 -13 16 -16 18 -5 21 -11 15 -32 -3 -14 -9
-40 -12 -58 -3 -19 -12 -33 -23 -36 -26 -7 -29 0 -17 34 9 23 8 32 -4 44 -22
23 -58 6 -78 -36 -9 -19 -23 -34 -31 -34 -10 0 -14 -9 -13 -29 2 -27 1 -28
-34 -23 -43 7 -50 14 -35 29 7 7 12 22 12 35 0 13 7 26 15 29 11 5 12 11 4 25
-8 16 -2 26 34 63 25 24 52 59 62 78 25 48 45 136 32 141 -6 2 -3 14 9 30 16
22 27 26 69 27 30 0 60 7 74 16 19 14 25 14 32 3 7 -11 12 -12 28 -2 25 16 31
8 17 -23 -6 -13 -26 -30 -43 -36 -38 -14 -40 -19 -15 -35 15 -9 28 -7 66 9 26
12 45 26 43 32 -3 6 -11 10 -18 8 -8 -1 0 10 16 25 17 14 30 36 30 47 0 15 7
22 28 24 27 3 35 16 17 27 -5 3 -7 12 -3 20 13 36 -68 7 -121 -43 l-40 -37 34
43 c18 24 51 56 73 70 36 24 40 25 52 9 7 -9 16 -17 21 -17 13 0 47 40 61 73
25 57 64 97 94 97 28 0 29 -2 29 -50z m209 -253 c0 -105 0 -257 -2 -337 -1
-80 -1 -178 0 -217 2 -70 1 -73 -21 -73 -32 0 -41 26 -13 35 20 7 18 8 -13 15
-19 4 -30 8 -25 9 6 1 3 6 -5 11 -13 8 -11 11 8 16 25 7 27 13 9 38 -9 13 -20
16 -40 11 -27 -7 -52 -37 -40 -48 3 -4 -6 -11 -21 -16 -30 -12 -33 -26 -8 -40
15 -9 15 -10 1 -11 -12 0 -18 -11 -21 -34 -4 -33 -2 -34 23 -29 21 4 27 1 32
-16 6 -25 1 -26 -86 -5 -55 14 -67 20 -61 33 13 33 8 46 -26 63 -36 18 -115
25 -106 9 3 -4 24 -11 47 -14 54 -7 71 -23 44 -43 -15 -11 -17 -18 -9 -31 12
-19 26 -24 144 -49 81 -17 140 -44 140 -65 0 -5 -29 -9 -65 -9 -49 0 -65 3
-65 14 0 18 -26 25 -148 36 -151 14 -172 19 -172 41 0 11 7 19 18 19 9 0 24 5
32 10 12 8 13 11 2 22 -11 11 -16 10 -25 -3 -7 -9 -21 -18 -32 -20 -12 -3 -21
-14 -23 -26 -3 -18 5 -26 35 -40 21 -10 39 -18 39 -18 1 0 5 -10 8 -22 7 -21
4 -23 -33 -23 -28 0 -41 4 -41 14 0 19 -22 26 -109 36 -43 5 -80 14 -89 24
-14 14 -13 16 12 26 15 5 35 10 45 10 24 0 45 26 37 45 -3 9 -25 24 -48 35
l-43 20 75 -6 c41 -3 93 -9 115 -14 37 -8 55 -6 43 5 -3 3 -61 13 -129 22 -68
9 -127 19 -131 22 -8 7 159 -4 240 -15 31 -4 52 -3 52 3 0 5 -43 15 -96 23
-125 17 -110 32 36 38 107 4 112 6 121 29 8 23 13 24 52 18 147 -23 217 -16
217 22 0 8 13 33 29 56 16 23 35 62 42 87 7 25 17 50 22 57 5 7 6 17 2 23 -10
17 -33 11 -49 -12 -14 -20 -51 -31 -69 -21 -4 3 0 17 9 31 12 18 13 27 6 30
-8 2 -9 10 -3 20 5 9 12 38 15 65 4 26 11 47 17 47 13 0 11 -67 -3 -89 -13
-21 -5 -51 15 -51 21 0 35 61 47 195 15 176 21 216 30 210 5 -3 9 -92 9 -198z
m-197 108 c-5 -18 -11 -25 -15 -18 -10 16 3 67 14 56 5 -5 5 -22 1 -38z m46
-92 c0 -49 -6 -113 -13 -143 -7 -30 -13 -77 -13 -103 0 -36 -6 -55 -22 -72
-12 -13 -19 -28 -15 -34 9 -16 51 -13 65 4 17 20 60 20 60 -1 0 -8 -16 -36
-35 -61 -19 -25 -35 -51 -35 -58 0 -7 -6 -15 -14 -18 -23 -9 -99 5 -133 24
-18 10 -35 15 -37 10 -3 -5 -19 -11 -35 -14 -17 -4 -32 -14 -36 -25 -5 -17
-18 -20 -103 -25 -53 -3 -107 -8 -119 -12 -43 -14 -24 13 20 28 86 30 113 36
159 39 27 2 48 5 48 8 0 3 17 14 38 24 81 40 87 45 101 88 8 24 20 48 28 53
19 14 25 56 12 82 -9 17 -9 26 1 38 16 20 26 125 11 125 -12 0 -15 48 -5 74
12 31 22 16 17 -24 -3 -22 -1 -40 4 -40 21 0 33 27 33 72 0 26 4 48 9 48 4 0
8 -39 9 -87z m-92 -49 c-3 -9 -6 -21 -6 -27 0 -8 -3 -8 -11 0 -13 13 -5 43 12
43 6 0 8 -7 5 -16z m-2606 -96 c36 -39 84 -99 108 -132 40 -57 43 -64 37 -108
-5 -39 -1 -57 20 -98 14 -27 23 -50 20 -50 -3 0 2 -16 10 -37 8 -20 13 -38 10
-41 -7 -8 -183 81 -189 96 -5 11 3 12 34 7 43 -7 50 0 23 22 -16 13 -16 14 10
8 17 -3 27 -1 27 6 0 14 -51 55 -63 51 -5 -1 -16 3 -24 9 -12 11 -10 16 14 35
15 13 22 23 16 24 -22 0 -53 38 -46 56 5 14 3 15 -15 5 -24 -13 -29 -3 -9 18
10 11 8 11 -10 0 -27 -16 -41 -6 -22 17 13 16 12 16 -8 5 l-23 -12 0 96 c0 52
3 95 8 95 4 0 36 -32 72 -72z m2587 0 c-3 -7 -5 -2 -5 12 0 14 2 19 5 13 2 -7
2 -19 0 -25z m-573 -30 c-5 -7 -9 -15 -9 -18 -1 -3 -13 -29 -29 -59 l-27 -53
-20 21 c-23 25 -21 24 -53 10 -34 -16 -40 -36 -16 -56 27 -23 25 -30 -7 -38
-38 -9 -63 -34 -63 -62 0 -12 -4 -23 -10 -23 -5 0 -10 14 -10 30 0 17 5 30 10
30 6 0 10 14 10 30 0 26 -4 30 -27 30 -48 0 -75 -37 -47 -65 12 -11 12 -15 2
-16 -30 -1 -61 -10 -89 -25 -17 -8 -62 -17 -102 -18 -40 -2 -88 -7 -107 -11
-31 -7 -34 -7 -22 7 7 9 29 24 48 33 30 14 41 15 65 5 59 -25 159 16 159 65 0
33 115 96 181 100 58 4 97 28 101 63 2 16 13 31 28 39 27 14 47 3 34 -19z
m-94 -27 c-10 -20 -30 -29 -30 -14 0 10 33 44 37 39 3 -2 0 -14 -7 -25z
m-1418 6 c7 -7 33 -26 58 -42 43 -28 46 -33 42 -68 -3 -29 0 -37 13 -37 8 0
18 -7 21 -15 7 -17 34 -21 34 -5 0 6 5 10 10 10 6 0 10 -9 10 -19 0 -18 -9
-19 -172 -18 -108 1 -173 6 -173 12 0 6 27 10 63 9 59 -1 62 1 62 24 0 29 24
25 28 -6 4 -28 32 -29 32 -2 0 11 4 20 9 20 5 0 13 -9 16 -20 10 -30 22 -24
27 13 3 17 7 39 9 47 3 10 -5 16 -22 18 -17 2 -29 11 -32 23 -5 17 -8 18 -31
8 -20 -10 -28 -9 -41 5 -22 22 -32 20 -50 -8 -18 -28 -15 -73 6 -87 10 -6 1
-9 -28 -9 -39 0 -43 2 -43 24 0 29 -33 44 -56 25 -17 -14 -29 -6 -21 14 3 8
18 17 34 20 16 3 51 21 78 40 53 37 95 45 117 24z m233 -57 c14 -5 23 -15 20
-20 -5 -8 -11 -7 -21 1 -7 6 -20 9 -27 6 -7 -3 -24 1 -38 9 l-24 13 32 1 c17
0 44 -4 58 -10z m-525 -39 c0 -4 -5 -12 -12 -19 -9 -9 -8 -15 8 -27 19 -14 19
-14 -1 -15 -14 0 -23 10 -31 35 -6 19 -9 37 -7 39 6 6 43 -5 43 -13z m653 12
c-7 -2 -19 -2 -25 0 -7 3 -2 5 12 5 14 0 19 -2 13 -5z m70 -3 c8 0 8 -3 0 -11
-9 -9 -16 -7 -30 7 -17 17 -17 18 0 11 10 -4 24 -7 30 -7z m185 -22 c14 -30
17 -63 7 -115 l-8 -43 -156 1 c-86 1 -147 4 -136 6 35 9 75 44 75 65 0 11 5
18 13 15 6 -2 11 -16 9 -31 -2 -20 2 -26 16 -26 10 0 23 -5 30 -12 8 -8 13 -5
20 13 6 13 19 33 31 43 26 24 26 36 1 69 -11 14 -20 28 -20 31 0 3 24 6 53 6
46 0 55 -3 65 -22z m1196 -13 c-19 -30 -26 -28 -17 3 3 12 12 22 19 22 12 0
11 -5 -2 -25z m-68 -9 c19 -14 19 -15 -1 -43 -11 -15 -27 -40 -34 -55 -16 -30
-31 -37 -31 -13 0 21 33 125 40 125 3 0 15 -6 26 -14z m-2306 -6 c0 -5 -4 -10
-10 -10 -5 0 -10 5 -10 10 0 6 5 10 10 10 6 0 10 -4 10 -10z m360 -42 c0 -5
-7 -8 -15 -8 -10 0 -15 10 -15 27 0 26 1 26 15 7 8 -10 15 -22 15 -26z m458
-1 c2 -12 -3 -17 -17 -17 -15 0 -21 6 -21 21 0 25 33 22 38 -4z m-521 -3 c-3
-3 -12 -4 -19 -1 -8 3 -5 6 6 6 11 1 17 -2 13 -5z m631 -12 c3 -9 -2 -13 -14
-10 -9 1 -19 9 -22 16 -3 9 2 13 14 10 9 -1 19 -9 22 -16z m-330 -22 c160 0
292 -4 292 -9 0 -4 -19 -12 -42 -17 -28 -6 -43 -15 -43 -24 0 -13 28 -15 175
-18 96 -1 179 -7 184 -12 4 -4 6 -20 2 -33 l-6 -25 -275 -2 c-161 0 -275 3
-275 8 0 16 27 33 55 37 32 3 50 19 42 38 -6 17 -78 27 -194 27 -109 0 -283
20 -283 33 0 6 15 7 38 3 20 -3 169 -6 330 -6z m797 -49 c-6 -5 -25 10 -25 20
0 5 6 4 14 -3 8 -7 12 -15 11 -17z m-1020 1 c39 -4 118 -6 178 -5 59 1 107 -1
107 -5 0 -16 -25 -32 -50 -32 -30 0 -51 -17 -43 -36 2 -7 28 -21 56 -30 45
-15 80 -16 290 -10 l240 7 -6 -34 c-3 -19 -15 -54 -26 -78 -12 -23 -21 -62
-21 -86 l0 -43 -142 0 c-79 0 -187 -1 -241 -2 -74 -2 -100 1 -107 12 -7 12
-11 12 -25 0 -12 -10 -51 -14 -131 -15 -106 -2 -139 4 -115 20 6 3 6 17 2 33
-5 15 -16 61 -26 102 -10 41 -22 80 -27 86 -4 6 -14 31 -22 55 -7 24 -17 53
-21 63 -8 17 -5 18 26 12 19 -4 66 -10 104 -14z m1438 11 c-7 -2 -21 -2 -30 0
-10 3 -4 5 12 5 17 0 24 -2 18 -5z m-1723 -24 c0 -5 -7 -9 -15 -9 -9 0 -27
-11 -41 -26 -14 -14 -31 -23 -37 -21 -9 3 -18 54 -11 67 4 9 104 -2 104 -11z
m1787 -14 c-11 -24 -15 -25 -72 -19 -71 7 -85 10 -85 23 0 5 28 9 61 10 34 0
64 3 67 6 3 3 13 5 23 5 15 0 16 -3 6 -25z m134 -10 l44 -25 -35 -2 c-46 -2
-80 0 -110 8 -25 6 -25 6 10 24 46 23 42 24 91 -5z m146 19 c-3 -3 -12 -4 -19
-1 -8 3 -5 6 6 6 11 1 17 -2 13 -5z m73 -19 c0 -16 -35 -21 -45 -6 -4 8 9 15
38 20 4 0 7 -6 7 -14z m-590 -21 c36 -2 107 -7 158 -10 51 -3 104 -9 118 -14
14 -6 46 -10 72 -10 26 -1 70 -7 97 -15 l50 -14 -72 0 c-40 -1 -116 3 -170 9
-410 40 -503 46 -503 31 0 -5 45 -12 101 -16 55 -3 128 -11 162 -16 34 -5 131
-14 216 -19 85 -6 159 -14 165 -19 6 -5 41 -12 78 -16 129 -14 193 -54 111
-70 -119 -22 -92 -69 55 -96 39 -7 72 -17 72 -21 0 -3 -50 -5 -110 -4 -81 2
-115 7 -128 18 -9 9 -28 19 -42 23 -37 11 -71 35 -65 45 4 6 21 10 39 10 21 0
40 8 52 21 19 21 18 21 -5 40 -42 34 -89 42 -446 74 -93 8 -198 18 -233 21
-51 5 -62 9 -58 21 3 8 6 22 6 30 0 16 7 16 280 -3z m573 -21 c15 -3 30 -9 33
-14 7 -12 -34 -11 -119 3 -71 13 -71 13 -32 19 38 6 52 6 118 -8z m614 1 c-3
-3 -12 -4 -19 -1 -8 3 -5 6 6 6 11 1 17 -2 13 -5z m-2817 -28 c0 -15 -18 -31
-26 -23 -7 7 7 37 17 37 5 0 9 -6 9 -14z m145 -24 c22 -14 53 -28 70 -32 43
-8 75 -60 75 -121 0 -47 -1 -49 -27 -49 -16 1 -50 9 -78 18 -37 13 -50 22 -50
37 0 13 -17 29 -52 50 -29 16 -53 34 -53 38 0 10 43 -12 52 -27 4 -6 10 -3 14
8 5 13 0 24 -17 37 -13 10 -30 19 -36 19 -7 0 -13 5 -13 11 0 7 7 8 18 4 62
-24 103 -10 42 15 -16 7 -30 17 -30 22 0 14 39 0 85 -30z m1495 -17 c293 -25
420 -47 420 -71 0 -8 -18 -18 -45 -25 -50 -13 -59 -21 -50 -47 6 -18 65 -52
90 -52 8 0 15 -4 15 -10 0 -6 -27 -10 -60 -10 -45 0 -62 4 -66 15 -4 8 -13 15
-21 15 -9 0 -13 -6 -9 -15 5 -13 -27 -15 -253 -15 -143 0 -266 3 -275 6 -19 7
-21 35 -4 52 17 17 3 25 -22 12 -15 -8 -19 -17 -15 -31 5 -14 2 -19 -14 -19
-15 0 -22 9 -27 37 -12 62 -9 140 5 157 17 21 98 21 331 1z m-1640 -18 c0 -7
-7 -22 -15 -33 -14 -18 -14 -17 -15 14 0 22 5 32 15 32 8 0 15 -6 15 -13z
m2860 -37 c0 -5 -16 -10 -36 -10 -21 0 -33 4 -29 10 3 6 19 10 36 10 16 0 29
-4 29 -10z m33 -72 c-1 -29 -2 -54 -2 -56 -1 -1 -10 6 -22 17 -12 11 -35 25
-53 32 -41 16 -39 14 -26 38 8 17 20 21 58 21 l47 0 -2 -52z m-2861 14 c13
-15 55 -41 95 -57 40 -17 73 -33 73 -36 0 -8 -33 -5 -48 5 -6 4 -18 4 -24 0
-7 -5 -36 -9 -65 -11 -42 -3 -57 1 -73 17 -24 24 -25 30 -5 30 8 0 15 7 15 15
0 8 -6 14 -12 13 -8 -2 -14 9 -16 25 -4 37 28 37 60 -1z m2557 -62 c105 -12
131 -30 44 -30 -33 0 -81 -3 -105 -6 -44 -6 -45 -5 -45 20 0 30 -5 29 106 16z"/>
<g>
<path d="M1170 4420 c0 -5 5 -10 10 -10 6 0 10 5 10 10 0 6 -4 10 -10 10 -5 0
-10 -4 -10 -10z"/>
</g>
<g>
<path d="M1094 3696 c-21 -10 -35 -11 -42 -4 -16 16 -22 -5 -7 -25 13 -18 14
-18 34 2 14 14 34 21 62 21 24 0 38 4 34 10 -9 14 -44 12 -81 -4z"/>
</g>
<g>
<path d="M1905 3320 c3 -5 12 -10 20 -10 8 0 17 5 20 10 4 6 -5 10 -20 10 -15
0 -24 -4 -20 -10z"/>
</g>
<g>
<path d="M1947 3253 c-33 -2 -55 -8 -52 -14 11 -17 125 -6 125 12 0 5 -3 8 -7
7 -5 -1 -34 -3 -66 -5z"/>
</g>
<g>
<path d="M360 1721 c0 -16 27 -31 44 -25 13 5 14 9 5 20 -13 15 -49 19 -49 5z"/>
</g>
<g>
<path d="M254 1679 c-9 -16 33 -56 46 -43 6 6 5 17 -6 32 -17 24 -29 28 -40
11z"/>
</g>
<g>
<path d="M76 1505 c-3 -9 0 -15 9 -15 8 0 15 7 15 15 0 19 -16 19 -24 0z"/>
</g>
<g>
<path d="M2603 2714 c-3 -8 -1 -20 6 -27 13 -13 16 -10 25 21 6 16 3 22 -9 22
-8 0 -18 -7 -22 -16z"/>
</g>
<g>
<path d="M2480 2652 c0 -4 5 -13 11 -19 8 -8 8 -17 0 -31 -15 -29 -11 -102 6
-102 7 0 13 -11 13 -25 0 -14 -5 -25 -12 -25 -9 0 -9 -3 0 -12 24 -24 82 71
82 135 0 26 -6 36 -30 50 -16 10 -30 22 -30 28 0 5 -9 9 -20 9 -11 0 -20 -4
-20 -8z m60 -52 c0 -5 -4 -10 -10 -10 -5 0 -10 5 -10 10 0 6 5 10 10 10 6 0
10 -4 10 -10z"/>
</g>
<g>
<path d="M670 2692 c0 -10 41 -24 49 -17 6 7 0 11 -26 19 -13 4 -23 3 -23 -2z"/>
</g>
<g>
<path d="M688 2645 c13 -9 26 -14 29 -11 8 8 3 12 -27 21 l-25 7 23 -17z"/>
</g>
<g>
<path d="M680 2600 c20 -13 43 -13 35 0 -3 6 -16 10 -28 10 -18 0 -19 -2 -7
-10z"/>
</g>
<g>
<path d="M1805 1720 c4 -6 11 -8 16 -5 14 9 11 15 -7 15 -8 0 -12 -5 -9 -10z"/>
</g>
<g>
<path d="M1946 1704 c-4 -10 -1 -14 6 -12 15 5 23 28 10 28 -5 0 -13 -7 -16
-16z"/>
</g>
<g>
<path d="M1997 1695 c-4 -8 -2 -17 3 -20 6 -4 10 -4 10 -1 0 2 3 11 6 20 3 9
2 16 -4 16 -5 0 -12 -7 -15 -15z"/>
</g>
<g>
<path d="M2270 1170 c0 -5 5 -10 11 -10 8 0 8 -5 -1 -15 -7 -8 -9 -15 -5 -15
4 0 2 -7 -5 -15 -13 -16 -11 -18 36 -28 27 -6 39 2 48 31 6 16 3 22 -9 22 -9
0 -13 5 -10 10 4 6 10 8 14 5 5 -2 17 2 27 10 17 13 13 14 -43 15 -36 0 -63
-4 -63 -10z"/>
</g>
<g>
<path d="M2275 1070 c3 -5 15 -10 26 -10 10 0 19 5 19 10 0 6 -12 10 -26 10
-14 0 -23 -4 -19 -10z"/>
</g>
<g>
<path d="M2170 930 c-42 -37 -32 -54 29 -44 32 5 43 12 47 30 13 51 -24 58
-76 14z"/>
</g>
<g>
<path d="M1230 864 c0 -8 5 -12 10 -9 6 3 10 10 10 16 0 5 -4 9 -10 9 -5 0
-10 -7 -10 -16z"/>
</g>
<g>
<path d="M400 720 c0 -5 5 -10 10 -10 6 0 10 5 10 10 0 6 -4 10 -10 10 -5 0
-10 -4 -10 -10z"/>
</g>
<g>
<path d="M365 700 c4 -6 11 -8 16 -5 14 9 11 15 -7 15 -8 0 -12 -5 -9 -10z"/>
</g>
<g>
<path d="M400 620 c0 -5 5 -10 10 -10 6 0 10 5 10 10 0 6 -4 10 -10 10 -5 0
-10 -4 -10 -10z"/>
</g>
<g>
<path d="M595 600 c3 -5 10 -10 16 -10 5 0 9 5 9 10 0 6 -7 10 -16 10 -8 0
-12 -4 -9 -10z"/>
</g>
<g>
<path d="M1070 594 c0 -8 5 -12 10 -9 6 4 8 11 5 16 -9 14 -15 11 -15 -7z"/>
</g>
<g>
<path d="M457 593 c-12 -11 -8 -23 8 -23 8 0 15 7 15 15 0 16 -12 20 -23 8z"/>
</g>
<g>
<path d="M500 570 c0 -5 4 -10 9 -10 6 0 13 5 16 10 3 6 -1 10 -9 10 -9 0 -16
-4 -16 -10z"/>
</g>
<g>
<path d="M1040 569 c0 -5 5 -7 10 -4 6 3 10 8 10 11 0 2 -4 4 -10 4 -5 0 -10
-5 -10 -11z"/>
</g>
<g>
<path d="M1122 551 c4 -13 18 -16 19 -4 0 4 -5 9 -11 12 -7 2 -11 -2 -8 -8z"/>
</g>
<g>
<path d="M565 540 c-3 -5 1 -10 10 -10 9 0 13 5 10 10 -3 6 -8 10 -10 10 -2 0
-7 -4 -10 -10z"/>
</g>
<g>
<path d="M405 530 c3 -5 10 -10 16 -10 5 0 9 5 9 10 0 6 -7 10 -16 10 -8 0
-12 -4 -9 -10z"/>
</g>
<g>
<path d="M823 527 c-3 -5 -1 -13 4 -18 11 -11 63 5 63 19 0 11 -60 10 -67 -1z"/>
</g>
<g>
<path d="M956 515 c-3 -9 1 -18 9 -22 10 -3 13 -12 10 -24 -5 -16 -1 -19 24
-19 37 0 40 16 6 32 -18 8 -24 17 -19 30 7 22 -21 25 -30 3z"/>
</g>
<g>
<path d="M1105 517 c-4 -10 -5 -21 -1 -24 10 -10 18 4 13 24 -4 17 -4 17 -12
0z"/>
</g>
<g>
<path d="M480 500 c0 -13 5 -20 13 -17 6 2 12 10 12 17 0 7 -6 15 -12 18 -8 2
-13 -5 -13 -18z"/>
</g>
<g>
<path d="M664 507 c-8 -21 2 -35 16 -21 5 5 6 15 0 24 -8 12 -10 12 -16 -3z"/>
</g>
<g>
<path d="M530 494 c0 -17 22 -14 28 4 2 7 -3 12 -12 12 -9 0 -16 -7 -16 -16z"/>
</g>
<g>
<path d="M710 495 c0 -8 2 -15 4 -15 2 0 6 7 10 15 3 8 1 15 -4 15 -6 0 -10
-7 -10 -15z"/>
</g>
<g>
<path d="M425 490 c-3 -5 1 -10 10 -10 9 0 13 5 10 10 -3 6 -8 10 -10 10 -2 0
-7 -4 -10 -10z"/>
</g>
<g>
<path d="M1060 490 c0 -5 5 -10 10 -10 6 0 10 5 10 10 0 6 -4 10 -10 10 -5 0
-10 -4 -10 -10z"/>
</g>
<g>
<path d="M536 463 c-11 -11 -6 -23 9 -23 8 0 15 4 15 9 0 13 -16 22 -24 14z"/>
</g>
<g>
<path d="M726 454 c-8 -21 -8 -24 3 -24 12 0 22 28 12 35 -5 3 -12 -2 -15 -11z"/>
</g>
<g>
<path d="M770 450 c0 -11 7 -20 15 -20 17 0 18 2 9 24 -9 23 -24 20 -24 -4z"/>
</g>
<g>
<path d="M430 440 c0 -5 5 -10 10 -10 6 0 10 5 10 10 0 6 -4 10 -10 10 -5 0
-10 -4 -10 -10z"/>
</g>
<g>
<path d="M480 440 c0 -5 7 -10 15 -10 8 0 15 5 15 10 0 6 -7 10 -15 10 -8 0
-15 -4 -15 -10z"/>
</g>
<g>
<path d="M920 440 c0 -5 4 -10 9 -10 6 0 13 5 16 10 3 6 -1 10 -9 10 -9 0 -16
-4 -16 -10z"/>
</g>
<g>
<path d="M1105 439 c-4 -6 -5 -13 -2 -16 7 -7 27 6 27 18 0 12 -17 12 -25 -2z"/>
</g>
<g>
<path d="M600 430 c0 -5 5 -10 10 -10 6 0 10 5 10 10 0 6 -4 10 -10 10 -5 0
-10 -4 -10 -10z"/>
</g>
<g>
<path d="M860 429 c0 -5 5 -7 10 -4 6 3 10 8 10 11 0 2 -4 4 -10 4 -5 0 -10
-5 -10 -11z"/>
</g>
<g>
<path d="M1520 596 c0 -9 5 -16 10 -16 6 0 10 4 10 9 0 6 -4 13 -10 16 -5 3
-10 -1 -10 -9z"/>
</g>
<g>
<path d="M1560 595 c0 -8 5 -15 10 -15 6 0 10 7 10 15 0 8 -4 15 -10 15 -5 0
-10 -7 -10 -15z"/>
</g>
<g>
<path d="M1760 550 c0 -5 5 -10 10 -10 6 0 10 5 10 10 0 6 -4 10 -10 10 -5 0
-10 -4 -10 -10z"/>
</g>
<g>
<path d="M1566 541 c-4 -7 -5 -15 -2 -18 9 -9 19 4 14 18 -4 11 -6 11 -12 0z"/>
</g>
<g>
<path d="M2020 540 c0 -5 6 -10 14 -10 8 0 18 5 21 10 3 6 -3 10 -14 10 -12 0
-21 -4 -21 -10z"/>
</g>
<g>
<path d="M1840 530 c0 -5 5 -10 11 -10 5 0 7 5 4 10 -3 6 -8 10 -11 10 -2 0
-4 -4 -4 -10z"/>
</g>
<g>
<path d="M1500 520 c0 -5 7 -10 15 -10 8 0 15 5 15 10 0 6 -7 10 -15 10 -8 0
-15 -4 -15 -10z"/>
</g>
<g>
<path d="M1795 510 c4 -6 11 -8 16 -5 14 9 11 15 -7 15 -8 0 -12 -5 -9 -10z"/>
</g>
<g>
<path d="M1440 499 c0 -5 5 -7 10 -4 6 3 10 8 10 11 0 2 -4 4 -10 4 -5 0 -10
-5 -10 -11z"/>
</g>
<g>
<path d="M1585 500 c-3 -5 -1 -10 4 -10 6 0 11 5 11 10 0 6 -2 10 -4 10 -3 0
-8 -4 -11 -10z"/>
</g>
<g>
<path d="M1960 490 c0 -5 5 -10 10 -10 6 0 10 5 10 10 0 6 -4 10 -10 10 -5 0
-10 -4 -10 -10z"/>
</g>
<g>
<path d="M1750 480 c0 -5 4 -10 9 -10 6 0 13 5 16 10 3 6 -1 10 -9 10 -9 0
-16 -4 -16 -10z"/>
</g>
<g>
<path d="M1840 480 c0 -5 4 -10 9 -10 6 0 13 5 16 10 3 6 -1 10 -9 10 -9 0
-16 -4 -16 -10z"/>
</g>
<g>
<path d="M1490 470 c0 -5 7 -10 16 -10 8 0 12 5 9 10 -3 6 -10 10 -16 10 -5 0
-9 -4 -9 -10z"/>
</g>
<g>
<path d="M1680 470 c0 -5 7 -10 15 -10 8 0 15 5 15 10 0 6 -7 10 -15 10 -8 0
-15 -4 -15 -10z"/>
</g>
<g>
<path d="M1807 473 c-12 -11 -8 -23 8 -23 8 0 15 7 15 15 0 16 -12 20 -23 8z"/>
</g>
<g>
<path d="M1990 470 c0 -5 5 -10 10 -10 6 0 10 5 10 10 0 6 -4 10 -10 10 -5 0
-10 -4 -10 -10z"/>
</g>
<g>
<path d="M1926 451 c-3 -5 1 -11 9 -15 15 -6 29 7 18 18 -9 9 -21 8 -27 -3z"/>
</g>
<g>
<path d="M1520 434 c0 -8 5 -12 10 -9 6 3 10 10 10 16 0 5 -4 9 -10 9 -5 0
-10 -7 -10 -16z"/>
</g>
<g>
<path d="M1616 441 c-4 -5 -2 -12 3 -15 5 -4 12 -2 15 3 4 5 2 12 -3 15 -5 4
-12 2 -15 -3z"/>
</g>
<g>
<path d="M1560 430 c0 -5 4 -10 9 -10 6 0 13 5 16 10 3 6 -1 10 -9 10 -9 0
-16 -4 -16 -10z"/>
</g>
<g>
<path d="M1750 430 c0 -5 5 -10 10 -10 6 0 10 5 10 10 0 6 -4 10 -10 10 -5 0
-10 -4 -10 -10z"/>
</g>
<g>
<path d="M1872 432 c-26 -4 -20 -22 8 -22 20 0 36 16 23 22 -5 2 -18 2 -31 0z"/>
</g>
<g>
<path d="M2046 431 c-4 -5 -2 -12 3 -15 5 -4 12 -2 15 3 4 5 2 12 -3 15 -5 4
-12 2 -15 -3z"/>
</g>
<g>
<path d="M2900 515 c0 -8 5 -15 10 -15 6 0 10 7 10 15 0 8 -4 15 -10 15 -5 0
-10 -7 -10 -15z"/>
</g>
<g>
<path d="M100 440 c0 -5 7 -10 15 -10 8 0 15 5 15 10 0 6 -7 10 -15 10 -8 0
-15 -4 -15 -10z"/>
</g>
</g>
<g>
<path d="M2112 5163 c37 -2 100 -2 140 0 40 1 10 3 -67 3 -77 0 -110 -1 -73
-3z"/>
</g>
<g>
<path d="M2498 5163 c57 -2 147 -2 200 0 53 1 7 3 -103 3 -110 0 -154 -2 -97
-3z"/>
</g>
<g>
<path d="M1070 4701 c0 -5 12 -17 28 -26 l27 -18 -24 27 c-26 28 -31 31 -31
17z"/>
</g>
<g>
<path d="M1121 4640 c-1 -8 -18 -31 -38 -52 -30 -31 -35 -41 -27 -59 9 -20 12
-19 44 25 19 25 43 48 53 51 9 4 14 11 11 17 -4 5 -18 -2 -35 -18 -30 -29 -41
-23 -13 7 9 10 14 24 11 31 -4 10 -6 9 -6 -2z"/>
</g>
<g>
<path d="M1983 4173 c15 -2 39 -2 55 0 15 2 2 4 -28 4 -30 0 -43 -2 -27 -4z"/>
</g>
<g>
<path d="M1828 4163 c6 -2 18 -2 25 0 6 3 1 5 -13 5 -14 0 -19 -2 -12 -5z"/>
</g>
<g>
<path d="M2120 4160 c14 -4 32 -8 40 -9 13 -1 13 0 0 9 -8 5 -26 9 -40 9 l-25
-1 25 -8z"/>
</g>
<g>
<path d="M1870 4141 c-79 -6 -104 -15 -97 -34 2 -8 35 -12 95 -12 81 0 92 2
92 18 0 20 49 24 68 5 9 -9 12 -9 12 2 0 9 6 5 16 -9 19 -27 40 -14 29 18 -6
19 -13 21 -73 19 -37 -1 -101 -4 -142 -7z"/>
</g>
<g>
<path d="M2102 4120 c0 -14 2 -19 5 -12 2 6 2 18 0 25 -3 6 -5 1 -5 -13z"/>
</g>
<g>
<path d="M2030 3950 c0 -5 16 -10 35 -10 19 0 35 5 35 10 0 6 -16 10 -35 10
-19 0 -35 -4 -35 -10z"/>
</g>
<g>
<path d="M2050 3870 c0 -5 4 -10 9 -10 6 0 13 5 16 10 3 6 -1 10 -9 10 -9 0
-16 -4 -16 -10z"/>
</g>
<g>
<path d="M1950 3685 c0 -19 5 -35 10 -35 6 0 10 16 10 35 0 19 -4 35 -10 35
-5 0 -10 -16 -10 -35z"/>
</g>
<g>
<path d="M106 293 c-10 -10 -7 -25 3 -18 16 9 20 -8 23 -103 l3 -92 32 0 c18
0 33 5 33 10 0 6 -7 10 -15 10 -11 0 -15 11 -15 38 0 21 3 41 6 45 4 3 35 -18
71 -48 63 -54 112 -71 128 -45 3 6 -3 10 -13 10 -21 0 -142 86 -142 100 0 15
78 70 99 70 25 0 28 15 5 24 -9 3 -16 6 -18 6 -1 0 -28 -20 -61 -45 -33 -25
-63 -45 -67 -45 -13 0 -9 55 4 68 14 14 15 13 -33 17 -21 2 -40 1 -43 -2z"/>
</g>
<g>
<path d="M406 273 c14 -33 17 -162 4 -178 -11 -13 -7 -15 23 -15 38 0 57 14
32 24 -11 4 -15 20 -15 57 0 45 2 50 15 39 8 -7 15 -17 15 -23 0 -18 51 -78
74 -86 41 -16 47 -4 45 88 -2 48 1 92 5 99 5 8 -1 12 -17 12 -23 0 -24 -1 -20
-82 l5 -83 -21 30 c-12 17 -21 34 -21 38 0 5 -14 28 -30 53 -27 38 -36 44 -67
44 -30 0 -34 -3 -27 -17z"/>
</g>
<g>
<path d="M640 282 c0 -4 4 -12 10 -18 5 -5 10 -45 12 -89 3 -77 4 -80 28 -83
l25 -3 -4 86 c-2 57 1 90 9 100 11 13 6 15 -34 15 -25 0 -46 -4 -46 -8z"/>
</g>
<g>
<path d="M781 260 c-26 -27 -31 -39 -30 -78 0 -40 5 -51 29 -70 23 -18 40 -22
77 -20 48 3 48 3 51 41 3 36 3 37 -32 37 -20 0 -39 0 -43 1 -4 0 -9 -4 -11
-10 -2 -6 6 -11 17 -11 14 0 21 -6 21 -20 0 -25 -8 -25 -40 0 -21 16 -25 27
-24 66 1 33 6 51 19 61 28 20 55 16 55 -8 0 -12 5 -19 13 -16 6 2 12 15 12 28
0 21 -5 24 -41 27 -35 3 -46 -2 -73 -28z"/>
</g>
<g>
<path d="M942 189 l-3 -100 27 3 c24 3 28 8 31 48 3 25 5 46 6 46 1 1 16 4 32
6 30 3 30 2 35 -52 3 -30 8 -54 13 -52 4 1 14 2 22 2 12 0 13 12 8 64 -7 78 0
104 23 85 13 -10 16 -9 21 9 3 12 9 22 13 22 10 0 23 -112 18 -150 -3 -22 1
-25 30 -28 18 -2 32 1 32 7 0 6 -4 11 -10 11 -6 0 -10 32 -10 75 0 76 9 92 38
63 19 -19 40 6 22 27 -16 19 -140 21 -158 3 -8 -8 -12 -8 -12 -1 0 6 -16 11
-35 10 -34 -1 -35 -1 -29 -39 6 -37 6 -38 -25 -38 -30 0 -31 2 -31 40 0 37 -2
40 -27 40 l-28 0 -3 -101z"/>
</g>
<g>
<path d="M1731 264 c-56 -47 -54 -135 3 -159 55 -23 82 -24 115 -4 33 20 44
47 14 34 -35 -15 -85 -17 -109 -5 -20 11 -24 21 -24 56 0 34 5 45 26 58 36 24
69 17 69 -13 0 -35 18 -36 38 -2 27 45 14 61 -48 61 -43 0 -60 -5 -84 -26z"/>
</g>
<g>
<path d="M1920 280 c0 -5 5 -10 10 -10 6 0 10 -28 10 -63 0 -41 5 -70 16 -85
14 -20 22 -22 82 -18 37 3 69 5 71 5 3 1 -3 7 -13 14 -16 11 -18 25 -14 90 l3
77 -29 0 c-24 0 -27 -2 -16 -15 9 -11 11 -34 6 -77 -7 -70 -15 -83 -45 -73
-33 10 -39 68 -15 148 4 14 -1 17 -30 17 -20 0 -36 -4 -36 -10z"/>
</g>
<g>
<path d="M2135 189 c0 -95 1 -100 20 -95 11 3 28 6 38 6 9 0 17 5 17 10 0 6
-7 10 -15 10 -15 0 -20 26 -9 54 3 9 16 16 29 16 29 0 75 36 75 59 0 31 -22
41 -89 41 l-66 0 0 -101z m95 64 c0 -27 -16 -47 -33 -40 -22 8 -10 57 14 57
11 0 19 -7 19 -17z"/>
</g>
<g>
<path d="M2328 279 c-21 -12 -24 -59 -6 -77 7 -7 31 -12 54 -12 38 0 43 -3 53
-31 8 -24 8 -36 0 -46 -22 -26 0 -25 26 1 19 20 24 32 19 49 -11 38 -26 49
-58 44 -39 -6 -66 8 -66 34 0 27 30 37 46 14 16 -21 47 -13 42 12 -2 14 -14
19 -48 20 -25 2 -53 -2 -62 -8z"/>
</g>
<g>
<path d="M1429 241 l-24 -19 29 -31 c24 -25 30 -42 34 -90 3 -36 0 -61 -7 -65
-16 -10 -14 -26 4 -26 24 0 38 39 33 96 -4 49 -3 53 18 56 l23 3 -19 25 c-17
21 -21 23 -30 10 -7 -12 -13 -12 -27 -4 -18 11 -31 46 -16 43 22 -4 43 2 38
11 -9 15 -30 12 -56 -9z"/>
</g>
<g>
<path d="M1346 160 c-27 -33 9 -68 61 -58 21 4 29 43 13 63 -15 18 -57 15 -74
-5z m44 -15 c0 -8 -4 -15 -10 -15 -5 0 -10 7 -10 15 0 8 5 15 10 15 6 0 10 -7
10 -15z"/>
</g>
<g>
<path d="M2313 145 c-27 -30 -15 -42 40 -43 44 -1 49 1 33 11 -10 7 -26 20
-35 30 -18 20 -22 21 -38 2z"/>
</g>
<g>
<path d="M2550 115 c0 -11 7 -15 23 -13 12 2 22 8 22 13 0 6 -10 11 -22 13
-16 2 -23 -2 -23 -13z"/>
</g>
<g>
<path d="M2263 3 c15 -2 37 -2 50 0 12 2 0 4 -28 4 -27 0 -38 -2 -22 -4z"/>
</g>
<g>
<path d="M2643 3 c48 -2 126 -2 175 0 48 1 8 3 -88 3 -96 0 -136 -2 -87 -3z"/>
</g>
</g>
</svg>
