<?xml version="1.0" standalone="no"?>
<!DOCTYPE svg PUBLIC "-//W3C//DTD SVG 20010904//EN"
 "http://www.w3.org/TR/2001/REC-SVG-20010904/DTD/svg10.dtd">
<svg version="1.0" xmlns="http://www.w3.org/2000/svg"
 width="300.000000pt" height="527.000000pt" viewBox="0 0 300.000000 527.000000"
 preserveAspectRatio="xMidYMid meet">
<metadata>
Created by potrace 1.15, written by Peter Selinger 2001-2017
</metadata>
<g transform="translate(0.000000,527.000000) scale(0.100000,-0.100000)"
fill="#000000" stroke="none">
<g>
<path d="M222 5262 l-222 -2 1 -2630 c1 -1936 5 -2630 13 -2630 8 0 11 57 9
197 0 109 1 191 3 182 4 -13 27 -17 127 -23 112 -6 2059 -29 2594 -30 l233 -1
0 -157 0 -158 -277 -3 -278 -2 288 -3 287 -2 -1 1398 c-1 768 -3 1390 -5 1382
-2 -8 -5 -357 -6 -774 -2 -495 -6 -760 -13 -763 -5 -1 -20 13 -33 32 -12 19
-29 35 -37 35 -19 0 -85 -59 -85 -76 0 -8 -10 -14 -25 -14 -18 0 -28 7 -35 25
-5 14 -16 25 -25 25 -8 0 -15 9 -15 20 0 38 -83 41 -88 2 -3 -22 -10 -26 -48
-23 -27 3 -38 -23 -21 -50 10 -17 9 -22 -6 -30 -27 -15 -11 -29 34 -29 51 0
42 -16 -13 -23 -73 -10 -245 -56 -442 -117 -55 -16 -124 -33 -155 -36 -31 -4
-64 -11 -73 -16 -21 -10 -21 -9 -8 85 6 37 21 94 35 127 29 69 31 90 9 135
-15 32 -14 38 5 102 11 37 32 115 46 172 14 58 26 105 28 106 1 1 16 11 32 22
17 11 41 24 55 28 27 8 100 62 100 74 0 11 -63 31 -98 31 -25 0 -32 4 -32 19
0 10 7 24 15 31 8 7 15 18 15 25 0 7 18 25 40 40 38 26 80 93 80 128 0 9 8 21
19 26 31 17 53 87 46 143 -4 26 -11 50 -16 53 -5 3 -6 25 -3 48 5 36 0 53 -34
117 -22 41 -43 92 -47 114 -8 38 -7 38 16 26 36 -19 89 -77 89 -97 0 -10 6
-28 14 -39 18 -25 23 -55 13 -71 -10 -16 5 -17 21 -1 9 9 12 9 12 -1 0 -7 4
-9 10 -6 5 3 8 20 6 37 -2 17 2 42 9 57 8 14 18 44 24 66 12 46 59 107 67 87
3 -6 9 -10 14 -7 5 3 16 -2 24 -11 9 -8 16 -11 16 -5 0 6 9 11 20 11 14 0 18
-5 13 -17 -3 -11 1 -9 12 6 16 21 19 21 27 7 5 -9 16 -16 25 -16 15 0 15 2 0
18 -19 20 -22 42 -8 42 5 0 18 -12 29 -27 l19 -27 31 25 c17 13 34 32 37 42 4
9 10 17 14 17 4 0 6 13 3 28 -2 18 2 35 12 45 14 13 15 24 6 63 -6 25 -8 54
-5 64 10 30 -5 70 -26 70 -14 0 -19 7 -19 25 0 14 -4 25 -10 25 -5 0 -10 13
-10 30 0 33 -28 110 -44 123 -7 6 -4 7 7 3 12 -4 17 0 17 12 0 9 3 33 6 54 5
30 2 40 -19 58 -32 28 -33 83 0 88 14 2 20 8 16 18 -3 8 -1 14 5 14 6 0 12 -6
15 -12 2 -7 7 -10 11 -6 4 3 1 20 -8 36 -15 30 -15 30 13 27 15 -1 33 -5 40
-9 7 -5 15 -6 17 -3 8 7 -15 47 -26 47 -5 0 -7 7 -3 16 3 8 12 13 19 10 7 -3
16 -1 19 3 3 5 14 7 25 4 11 -3 27 0 35 7 12 10 15 9 15 -6 1 -18 1 -18 11 -1
14 25 -4 48 -23 29 -17 -17 -31 -15 -24 3 4 10 -1 15 -14 15 -11 0 -20 -6 -20
-12 -1 -8 -6 -6 -14 5 -17 22 -44 13 -48 -16 -2 -12 -11 -23 -21 -25 -16 -3
-17 1 -11 32 5 29 3 36 -10 36 -9 0 -16 8 -16 21 0 25 -16 17 -23 -11 -4 -15
1 -24 16 -30 21 -8 21 -8 3 -16 -13 -5 -21 -3 -24 4 -2 7 -13 13 -25 13 -18 1
-19 2 -4 6 28 7 16 39 -13 35 -24 -2 -24 -2 -5 12 11 8 23 12 28 9 4 -2 14 1
22 7 8 6 19 8 26 4 7 -4 10 -2 7 7 -3 8 -15 14 -27 13 -13 0 -20 4 -17 11 2 7
0 18 -4 25 -7 11 -11 11 -24 1 -9 -8 -16 -20 -16 -29 0 -9 -10 -26 -22 -39
-17 -18 -19 -26 -10 -35 17 -17 15 -28 -4 -28 -23 0 -43 29 -44 61 0 15 -8 37
-19 50 l-19 23 -21 -42 c-13 -25 -21 -61 -22 -94 -1 -59 -4 -55 -14 12 -5 38
-12 49 -43 70 -41 28 -81 42 -94 34 -4 -3 -1 -18 9 -34 14 -24 15 -34 5 -54
-7 -15 -19 -25 -29 -24 -50 4 -114 -3 -108 -12 3 -5 1 -10 -4 -10 -6 0 -11 4
-11 9 0 6 -17 7 -37 5 l-38 -6 25 21 c14 11 40 25 58 30 91 26 172 145 172
254 0 84 -44 175 -108 222 -132 98 -307 79 -407 -44 -49 -62 -63 -100 -64
-177 -1 -50 5 -73 28 -117 28 -53 28 -56 11 -72 -10 -9 -40 -22 -66 -30 -81
-22 -112 -38 -123 -61 -7 -15 -25 -26 -58 -34 -26 -6 -58 -14 -70 -17 -17 -4
-23 -1 -23 11 0 10 -4 15 -9 12 -11 -7 -27 13 -34 44 -10 45 -33 99 -50 118
-9 10 -17 22 -17 26 0 4 -28 39 -62 78 -51 56 -63 77 -63 104 0 26 4 34 17 34
33 0 84 32 108 68 31 45 33 82 6 104 -17 15 -18 20 -7 27 11 7 11 15 2 41 -17
50 -14 71 16 102 21 22 23 28 10 28 -20 0 -23 15 -5 26 6 4 14 2 16 -4 5 -17
22 -4 22 18 0 22 -96 130 -116 130 -8 0 -48 18 -89 40 -41 22 -82 40 -90 40
-8 0 -24 -11 -37 -24 -26 -28 -112 -41 -114 -18 -1 6 -2 17 -3 23 0 6 -10 8
-22 4 -15 -5 -19 -4 -14 5 9 14 -28 50 -51 50 -9 0 -32 11 -50 25 -41 31 -54
31 -87 1 -18 -16 -33 -22 -51 -19 -17 4 -26 1 -26 -7 0 -9 -4 -9 -16 1 -15 12
-19 11 -32 -9 -8 -12 -23 -22 -32 -22 -18 0 -60 -44 -60 -62 0 -4 11 -14 25
-20 14 -6 25 -15 25 -20 0 -5 -5 -6 -11 -2 -15 9 -58 -45 -59 -73 0 -12 8 -26
18 -32 15 -8 15 -13 4 -31 -7 -12 -10 -30 -7 -41 4 -13 2 -19 -8 -19 -23 0
-28 -28 -8 -42 9 -7 20 -21 24 -30 8 -23 32 -23 49 0 7 11 23 24 36 31 12 6
22 19 22 29 0 9 9 23 19 29 23 14 37 2 43 -37 4 -29 48 -43 48 -16 0 35 28 14
35 -26 16 -81 10 -160 -13 -198 -23 -37 -28 -65 -13 -74 18 -11 75 15 102 46
15 18 31 29 35 25 5 -5 1 -13 -9 -18 -11 -7 -16 -17 -12 -28 3 -11 -2 -24 -11
-32 -10 -8 -39 -47 -65 -87 -44 -68 -48 -79 -54 -158 -10 -112 0 -203 36 -353
28 -115 30 -131 21 -205 -5 -45 -11 -88 -13 -96 -3 -9 17 -25 55 -45 35 -17
62 -39 67 -52 9 -26 17 -28 -111 30 -30 13 -72 27 -92 31 -20 4 -38 12 -40 18
-2 6 -10 8 -16 4 -8 -4 -12 -36 -12 -85 0 -43 -2 -80 -5 -83 -3 -3 -36 3 -73
12 -37 10 -107 25 -156 33 -64 12 -96 23 -113 39 l-25 23 -17 -21 c-10 -13
-35 -25 -62 -29 -24 -4 -61 -14 -83 -21 -21 -8 -41 -13 -43 -10 -2 2 -5 525
-6 1163 l-2 1160 543 7 c926 11 2370 19 2396 12 25 -6 25 -8 29 -114 l3 -107
2 118 2 117 -1277 -2 c-703 -2 -1378 -4 -1501 -6z m538 -627 c-10 -19 -11 -28
-2 -37 9 -9 18 -6 38 13 26 23 26 23 15 2 -6 -13 -16 -23 -20 -23 -18 0 -21
-34 -6 -49 15 -15 17 -14 26 2 6 9 15 17 21 17 6 0 4 -8 -5 -18 -10 -10 -17
-25 -17 -33 0 -21 -27 -56 -36 -47 -4 5 0 16 9 26 20 22 13 32 -20 32 -24 0
-31 14 -13 25 17 11 11 25 -16 36 -24 8 -25 11 -11 22 9 7 21 25 27 41 6 16
13 26 17 22 3 -3 0 -17 -7 -31z m-90 -49 c0 -8 10 -16 22 -19 19 -5 20 -8 8
-23 -9 -10 -16 -12 -18 -5 -5 16 -32 13 -38 -4 -9 -22 -27 -18 -21 5 3 11 1
20 -5 20 -5 0 -12 -9 -15 -20 -7 -26 -19 -26 -26 1 -4 16 -10 19 -28 14 -21
-7 -22 -6 -7 8 9 9 24 14 37 10 15 -4 21 -1 21 11 0 19 11 21 28 4 9 -9 13 -7
18 5 7 19 24 13 24 -7z m487 -31 c23 -14 43 -29 43 -33 0 -4 -24 -23 -53 -42
-52 -36 -70 -71 -49 -92 11 -11 101 49 102 67 0 11 51 45 67 45 12 0 73 -51
73 -60 0 -4 -24 -19 -52 -34 -29 -14 -69 -40 -88 -58 -20 -18 -55 -48 -78 -67
-42 -32 -44 -32 -58 -15 -8 11 -20 31 -25 47 -13 31 -43 36 -71 10 -17 -15
-18 -15 -18 0 0 10 7 17 15 17 8 0 15 4 15 8 0 8 41 75 81 134 24 34 26 56 4
38 -8 -7 -15 -19 -15 -26 0 -8 -4 -14 -10 -14 -15 0 -13 7 16 56 14 24 33 44
42 44 8 0 35 -11 59 -25z m-255 -7 c17 17 33 15 18 -3 -7 -8 -20 -15 -30 -15
-10 0 -23 -7 -30 -15 -18 -22 -23 -12 -9 19 10 20 15 23 26 14 10 -8 17 -8 25
0z m113 -18 c7 -11 -50 -111 -83 -145 -23 -25 -37 -151 -18 -159 6 -2 3 -5 -6
-5 -20 -1 -24 -21 -7 -38 7 -7 -1 -7 -25 1 -37 11 -48 26 -21 26 19 0 19 10 1
35 -19 29 -24 69 -16 118 10 52 6 57 -19 26 -11 -13 -20 -19 -21 -13 0 6 7 17
16 25 10 8 14 23 12 41 -4 21 0 28 13 28 9 0 23 7 30 17 31 36 130 66 144 43z
m-340 -55 c0 -41 0 -41 -82 -36 -28 1 -30 21 -3 28 11 3 18 9 15 13 -3 5 0 12
6 15 6 4 13 -2 16 -14 8 -31 29 -19 25 14 -2 19 1 26 10 23 8 -3 13 -20 13
-43z m75 -5 c0 -5 -4 -10 -9 -10 -6 0 -13 5 -16 10 -3 6 1 10 9 10 9 0 16 -4
16 -10z m-200 -40 c0 -5 -9 -10 -20 -10 -11 0 -20 5 -20 10 0 6 9 10 20 10 11
0 20 -4 20 -10z m210 -6 c0 -14 -3 -14 -15 -4 -8 7 -15 14 -15 16 0 2 7 4 15
4 8 0 15 -7 15 -16z m-160 -40 c0 -2 -9 -4 -21 -4 -11 0 -18 4 -14 10 5 8 35
3 35 -6z m154 -45 c-3 -5 -10 -7 -15 -3 -5 3 -7 10 -3 15 3 5 10 7 15 3 5 -3
7 -10 3 -15z m530 5 c10 -27 7 -30 -30 -26 -34 4 -34 5 -18 23 21 23 40 24 48
3z m-474 -39 c0 -14 -4 -25 -9 -25 -5 0 -8 11 -8 25 0 14 3 25 8 25 5 0 9 -11
9 -25z m-245 5 c3 -5 2 -10 -4 -10 -5 0 -13 5 -16 10 -3 6 -2 10 4 10 5 0 13
-4 16 -10z m649 -6 c9 -3 13 -10 11 -15 -6 -9 30 -49 45 -49 6 0 10 8 10 18 1
10 8 4 20 -18 24 -44 24 -50 2 -50 -9 0 -23 -9 -30 -20 -7 -11 -19 -20 -27
-20 -8 0 -15 -7 -15 -15 0 -18 2 -19 -70 1 l-59 17 24 18 c13 11 28 19 34 19
6 0 11 9 11 19 0 11 5 23 10 26 6 3 10 22 10 41 0 37 0 37 24 28z m-184 -44
c0 -5 -13 -10 -30 -10 -16 0 -30 5 -30 10 0 6 14 10 30 10 17 0 30 -4 30 -10z
m-76 -51 c-12 -13 -20 -16 -22 -9 -3 7 2 16 9 21 25 16 32 9 13 -12z m62 -8
c-3 -5 -52 -43 -108 -86 -57 -42 -111 -88 -121 -101 -18 -23 -47 -33 -47 -16
0 14 156 136 196 154 13 6 24 15 24 19 0 5 12 15 28 23 32 18 35 19 28 7z
m-170 -30 c5 -5 18 -11 29 -13 19 -4 19 -5 -3 -17 -21 -11 -26 -10 -39 8 -8
12 -19 19 -24 16 -5 -4 -9 -1 -9 4 0 13 32 14 46 2z m191 -27 c-3 -3 -12 -4
-19 -1 -8 3 -5 6 6 6 11 1 17 -2 13 -5z m1091 -14 c112 -51 162 -127 162 -245
0 -57 -5 -81 -26 -121 -28 -54 -95 -117 -102 -96 -2 6 -15 12 -29 12 -18 0
-24 -4 -19 -15 4 -11 -1 -15 -17 -15 -18 0 -19 2 -7 10 11 7 2 10 -31 10 -59
0 -84 23 -51 46 24 16 29 40 10 46 -16 6 -1 28 19 28 8 0 37 -12 64 -27 27
-14 52 -23 56 -20 3 4 -4 29 -17 57 -26 56 -23 65 42 106 21 14 38 29 38 34 0
6 -32 10 -73 10 l-74 0 -16 51 c-10 28 -17 65 -17 81 0 51 -24 26 -37 -40 -20
-99 -23 -102 -103 -102 -39 0 -70 -4 -70 -9 0 -5 26 -24 58 -42 31 -18 59 -34
61 -35 2 -2 -4 -23 -13 -48 -15 -38 -22 -45 -59 -55 -23 -7 -47 -14 -54 -17
-15 -6 -39 39 -52 96 -13 58 4 155 34 202 28 42 96 92 146 106 56 17 130 13
177 -8z m-1298 -9 c0 -4 -12 -18 -27 -32 -23 -21 -25 -22 -18 -4 4 11 9 28 12
37 5 16 33 15 33 -1z m365 -16 l60 -15 -64 4 c-35 3 -68 9 -74 15 -15 15 3 14
78 -4z m-139 -16 c2 -31 5 -33 19 -15 15 19 35 14 35 -10 0 -17 0 -17 38 2 36
17 54 12 45 -14 -6 -15 -3 -14 16 3 19 16 25 17 43 6 15 -9 23 -10 31 -2 15
15 40 14 35 -1 -6 -18 -59 -29 -75 -16 -9 7 -17 7 -27 -1 -17 -14 -224 -22
-232 -9 -3 4 4 8 15 8 12 0 21 5 21 10 0 6 -7 10 -15 10 -8 0 -15 4 -15 10 0
5 7 7 16 3 10 -4 17 2 21 16 6 23 27 24 29 0z m-89 -41 c-2 -13 -4 -5 -4 17
-1 22 1 32 4 23 2 -10 2 -28 0 -40z m360 46 c-3 -3 -12 -4 -19 -1 -8 3 -5 6 6
6 11 1 17 -2 13 -5z m720 -108 c10 -31 9 -35 -11 -40 -30 -8 -38 5 -24 42 16
41 22 40 35 -2z m-1023 18 c13 -5 14 -9 5 -20 -16 -20 -119 -19 -119 0 0 11
14 16 48 19 26 2 48 4 49 5 1 1 9 -1 17 -4z m47 -17 c-1 -12 -15 -9 -19 4 -3
6 1 10 8 8 6 -3 11 -8 11 -12z m59 -23 c0 -8 -5 -12 -10 -9 -6 4 -8 11 -5 16
9 14 15 11 15 -7z m952 -65 c16 -28 16 -29 -9 -49 -31 -24 -51 -25 -75 -3 -36
32 -15 81 35 81 26 0 36 -6 49 -29z m78 22 c0 -5 -11 -16 -25 -25 -23 -15 -25
-15 -34 3 -6 10 -7 21 -4 25 10 9 63 7 63 -3z m-210 -21 c0 -23 -10 -26 -28
-8 -18 18 -15 28 8 28 13 0 20 -7 20 -20z m-839 -32 c22 -12 39 -25 39 -30 0
-4 -18 -25 -41 -45 -22 -20 -49 -54 -61 -76 -14 -29 -23 -36 -31 -28 -8 8 -8
26 1 69 14 70 15 82 3 82 -5 0 -12 -18 -16 -40 -7 -44 -25 -65 -24 -28 1 45
25 93 44 90 13 -3 16 1 12 12 -9 23 27 20 74 -6z m-139 -1 c-6 -7 -14 -44 -19
-82 l-7 -70 -9 43 c-6 23 -13 42 -18 42 -4 0 -10 -19 -12 -42 -3 -41 -4 -40
-5 10 -2 48 1 56 30 83 32 29 60 40 40 16z m1022 -40 c16 -12 15 -14 -8 -36
-31 -29 -40 -23 -31 18 7 34 13 37 39 18z m136 -39 c0 -13 -23 -9 -44 7 -16
12 -17 17 -6 30 12 15 15 14 32 -7 9 -13 18 -26 18 -30z m-938 5 c60 -66 73
-103 35 -103 -31 0 -86 -43 -136 -107 -22 -28 -45 -54 -51 -58 -17 -10 -11 9
8 27 30 29 38 43 45 77 4 19 23 56 42 82 36 50 37 63 3 32 -18 -16 -18 -16
-12 0 11 30 -15 18 -36 -15 -11 -18 -20 -28 -20 -23 0 20 74 115 90 115 3 0
18 -12 32 -27z m-205 -85 c-3 -8 -6 -5 -6 6 -1 11 2 17 5 13 3 -3 4 -12 1 -19z
m-67 -101 c0 -17 -2 -17 -30 3 -20 14 -30 30 -30 48 l0 26 30 -29 c17 -16 30
-37 30 -48z m314 47 c4 -11 1 -14 -11 -12 -9 2 -18 9 -21 16 -6 18 25 15 32
-4z m-171 -32 c-5 -12 -7 -12 -15 2 -11 20 1 44 12 25 5 -6 6 -19 3 -27z
m-246 -4 c-3 -8 -6 -5 -6 6 -1 11 2 17 5 13 3 -3 4 -12 1 -19z m363 15 c0 -5
-18 -28 -41 -53 -26 -29 -36 -36 -28 -20 27 56 69 101 69 73z m66 -18 c-10 -8
-24 -16 -30 -18 -6 -2 -7 -8 -3 -13 4 -4 17 -3 27 4 11 7 23 12 27 12 5 0 0
-5 -9 -11 -10 -5 -18 -15 -18 -20 0 -6 14 0 31 12 30 21 31 21 50 3 19 -19 18
-20 -17 -77 -35 -56 -54 -71 -54 -43 0 7 -7 19 -15 26 -13 11 -20 9 -40 -10
-31 -29 -32 -18 -4 22 24 32 19 49 -8 27 -12 -10 -15 -10 -9 -1 4 7 3 19 -4
27 -9 11 -3 20 31 44 41 30 83 45 45 16z m404 0 c-7 -8 -18 -15 -24 -15 -6 0
-2 7 8 15 25 19 32 19 16 0z m-630 -31 c0 -16 -16 -19 -25 -4 -8 13 4 32 16
25 5 -4 9 -13 9 -21z m-17 -61 c6 -32 -10 -29 -28 7 -20 38 -19 43 4 28 11 -6
21 -22 24 -35z m967 31 c0 -2 -16 -4 -36 -4 -19 0 -33 4 -30 8 5 8 66 4 66 -4z
m341 2 c-9 -11 -9 -20 -2 -35 6 -11 10 -37 9 -58 l-1 -38 -4 35 c-3 19 -9 39
-14 45 -16 16 -11 65 7 65 13 0 14 -3 5 -14z m-911 -18 c0 -13 -9 -38 -20 -56
-11 -18 -20 -39 -20 -47 0 -8 -4 -15 -10 -15 -5 0 -10 -7 -10 -15 0 -8 -7 -15
-15 -15 -21 0 -19 -26 3 -40 16 -11 16 -11 0 -6 -10 3 -24 8 -31 11 -16 7 -42
-38 -33 -54 10 -16 36 -13 36 4 0 8 5 15 10 15 18 0 10 -45 -10 -58 -11 -7
-20 -23 -20 -36 0 -14 -4 -28 -10 -31 -6 -4 -10 12 -10 40 0 37 -5 51 -27 71
l-27 25 19 34 c11 18 44 70 74 114 42 63 60 81 78 81 17 0 23 -6 23 -22z
m1244 6 c3 -8 2 -12 -4 -9 -6 3 -10 10 -10 16 0 14 7 11 14 -7z m-294 -20 c6
-14 9 -42 9 -62 -2 -35 -2 -35 -8 9 -4 26 -13 54 -20 63 -9 11 -10 16 -2 16 6
0 16 -12 21 -26z m-442 6 c-5 -16 -88 -63 -88 -50 0 28 33 60 62 60 16 0 28
-5 26 -10z m133 -6 c7 -9 21 -13 33 -10 25 6 47 -32 39 -64 -7 -27 -17 -25
-31 5 -6 14 -18 25 -26 25 -12 0 -46 40 -46 55 0 11 18 5 31 -11z m-951 -29
c0 -9 -9 -15 -25 -15 -26 0 -34 15 -12 23 23 10 37 7 37 -8z m913 -11 c22 -30
15 -44 -10 -21 -10 8 -34 17 -53 19 -35 4 -35 4 -10 15 38 18 53 15 73 -13z
m547 16 c0 -5 -4 -10 -10 -10 -5 0 -10 5 -10 10 0 6 5 10 10 10 6 0 10 -4 10
-10z m190 -11 c0 -5 -4 -9 -10 -9 -5 0 -10 7 -10 16 0 8 5 12 10 9 6 -3 10
-10 10 -16z m-1303 -14 c-10 -7 -15 -19 -11 -29 3 -9 1 -16 -5 -16 -6 0 -11
11 -11 25 0 16 6 25 15 25 8 0 15 5 15 12 0 6 3 8 7 4 5 -4 0 -13 -10 -21z
m803 -7 c0 -7 -5 -20 -10 -28 -8 -12 -10 -9 -10 13 0 15 5 27 10 27 6 0 10 -6
10 -12z m-1030 -23 c-7 -9 -15 -13 -18 -10 -3 2 1 11 8 20 7 9 15 13 18 10 3
-2 -1 -11 -8 -20z m668 4 c12 -19 11 -20 -7 -14 -27 8 -67 -13 -52 -28 12 -12
13 -76 1 -122 -6 -24 -8 -18 -9 31 -1 41 -6 66 -16 74 -22 18 -19 24 22 53 45
32 45 32 61 6z m-358 1 c0 -5 -4 -10 -10 -10 -5 0 -10 5 -10 10 0 6 5 10 10
10 6 0 10 -4 10 -10z m84 -50 c5 -17 4 -20 -2 -10 -5 8 -13 26 -16 40 -5 17
-4 20 2 10 5 -8 13 -26 16 -40z m576 45 c0 -13 -34 -57 -51 -66 -16 -8 -19 -6
-19 16 0 16 4 24 11 20 6 -4 17 2 25 14 14 19 34 29 34 16z m-641 -57 c16 -55
14 -61 -12 -71 -18 -7 -20 -6 -9 4 16 17 15 24 -5 44 -14 14 -14 18 -2 27 11
7 11 11 2 15 -17 6 -16 23 1 23 7 0 19 -19 25 -42z m391 32 c0 -5 -7 -10 -15
-10 -8 0 -15 5 -15 10 0 6 7 10 15 10 8 0 15 -4 15 -10z m-508 -50 c3 -20 0
-30 -9 -30 -13 0 -18 41 -6 53 10 10 10 9 15 -23z m833 -41 c-14 -30 -23 -42
-20 -28 7 38 37 106 42 93 2 -6 -8 -36 -22 -65z m-885 51 c0 -5 -4 -10 -10
-10 -5 0 -10 5 -10 10 0 6 5 10 10 10 6 0 10 -4 10 -10z m274 -45 c5 -19 -2
-40 -26 -80 -34 -55 -56 -67 -78 -40 -7 8 -24 15 -37 15 -41 0 -20 23 35 38
45 13 52 18 52 40 0 27 27 65 40 57 4 -3 11 -16 14 -30z m566 6 c0 -5 -7 -24
-15 -42 l-14 -34 -1 36 c0 20 3 39 7 42 9 10 23 9 23 -2z m-133 -78 c-2 -16
-4 -5 -4 22 0 28 2 40 4 28 2 -13 2 -35 0 -50z m-507 38 c0 -10 -24 -21 -43
-21 -7 0 -3 7 7 15 22 17 36 19 36 6z m1080 -6 c17 -20 5 -32 -15 -15 -14 11
-33 10 -82 -6 -10 -3 -4 3 12 14 36 25 68 27 85 7z m-1250 -9 c0 -3 -5 -17
-10 -32 -8 -20 -8 -29 1 -35 6 -4 8 -12 5 -18 -22 -35 -44 17 -26 60 10 24 30
40 30 25z m55 -16 c-27 -12 -43 -12 -25 0 8 5 22 9 30 9 10 0 8 -3 -5 -9z
m261 -47 c-3 -4 -14 1 -24 10 -15 16 -15 19 -2 27 11 7 17 4 24 -10 5 -11 6
-23 2 -27z m922 27 c3 -9 -1 -11 -12 -7 -10 4 -25 7 -34 8 -14 0 -13 2 3 9 25
11 37 8 43 -10z m-44 -42 c6 -4 7 -10 3 -15 -10 -9 -27 16 -26 37 1 13 1 13 6
0 3 -8 11 -18 17 -22z m-1248 7 c18 -15 18 -15 -10 -13 -16 2 -31 9 -34 16 -5
17 20 15 44 -3z m294 -5 c0 -5 -4 -10 -10 -10 -5 0 -10 5 -10 10 0 6 5 10 10
10 6 0 10 -4 10 -10z m-138 -22 c-9 -9 -15 -9 -24 0 -9 9 -7 12 12 12 19 0 21
-3 12 -12z m1145 -44 c-3 -3 -12 -4 -19 -1 -8 3 -5 6 6 6 11 1 17 -2 13 -5z
m-1023 -79 c-4 -8 -8 -15 -10 -15 -2 0 -4 7 -4 15 0 8 4 15 10 15 5 0 7 -7 4
-15z m734 -5 c-7 -10 -14 -17 -17 -15 -4 4 18 35 25 35 2 0 -1 -9 -8 -20z
m-798 -40 c0 -5 -4 -10 -10 -10 -5 0 -10 5 -10 10 0 6 5 10 10 10 6 0 10 -4
10 -10z m-48 -93 c26 -11 78 -95 78 -125 0 -7 7 -15 15 -18 22 -9 19 -20 -13
-51 -15 -16 -41 -46 -57 -67 -16 -22 -31 -34 -33 -28 -3 9 -9 9 -24 1 -22 -12
-19 0 10 34 24 27 1 20 -30 -10 -15 -15 -28 -22 -28 -15 0 6 5 14 10 17 6 3
10 14 10 23 0 13 -5 12 -21 -8 l-20 -25 6 30 c5 25 1 35 -21 54 -21 18 -28 20
-35 10 -7 -11 -9 -9 -9 5 0 18 -1 18 -20 1 -19 -18 -20 -17 -20 5 0 20 -2 21
-17 9 -15 -13 -16 -12 -11 9 4 12 2 20 -3 16 -5 -3 -9 2 -9 11 0 12 -6 15 -20
10 -19 -6 -20 -4 -14 22 7 26 6 27 -11 13 -17 -14 -18 -13 -12 8 4 18 2 22 -9
18 -11 -4 -12 -2 -4 14 16 29 12 35 -10 15 -22 -20 -26 -14 -10 16 10 17 19
18 88 14 42 -3 97 -2 122 3 48 10 78 7 122 -11z m58 8 c20 -24 6 -28 -15 -5
-10 11 -13 20 -8 20 6 0 16 -7 23 -15z m730 -37 c0 -10 -1 -10 -39 3 -17 6
-31 17 -31 24 0 10 8 9 35 -3 19 -9 35 -20 35 -24z m-1390 -23 c14 -68 10 -90
-15 -90 -17 0 -20 8 -23 50 -5 103 20 129 38 40z m1634 49 c9 -3 16 -13 16
-21 0 -10 -6 -13 -16 -9 -9 3 -18 6 -20 6 -2 0 -4 7 -4 15 0 17 2 18 24 9z
m-408 -41 c-8 -9 -46 18 -40 28 4 6 13 4 25 -7 11 -9 17 -19 15 -21z m-467
-55 c15 -44 9 -44 -14 0 -11 20 -31 47 -45 60 -21 20 -19 20 12 -3 20 -14 41
-40 47 -57z m666 62 c3 -5 1 -10 -4 -10 -6 0 -11 5 -11 10 0 6 2 10 4 10 3 0
8 -4 11 -10z m-80 -38 c-3 -3 -11 0 -18 7 -9 10 -8 11 6 5 10 -3 15 -9 12 -12z
m295 -2 c0 -5 -4 -10 -10 -10 -5 0 -10 5 -10 10 0 6 5 10 10 10 6 0 10 -4 10
-10z m-152 -48 c77 -25 98 -43 58 -50 -10 -2 -55 15 -102 38 -122 61 -116 63
44 12z m-1789 7 c28 -10 43 -29 23 -29 -15 0 -62 25 -62 33 0 9 1 9 39 -4z
m186 -4 c23 -10 26 -14 10 -14 -29 -1 -65 10 -65 20 0 13 20 10 55 -6z m402
-7 c-3 -8 -6 -5 -6 6 -1 11 2 17 5 13 3 -3 4 -12 1 -19z m603 1 c14 -25 3 -41
-11 -16 -6 9 -14 15 -20 12 -5 -3 -6 1 -3 9 8 22 21 20 34 -5z m951 -2 c-10
-9 -11 -8 -5 6 3 10 9 15 12 12 3 -3 0 -11 -7 -18z m-1001 -59 c0 -6 -7 -5
-15 2 -8 7 -15 17 -15 22 0 6 7 5 15 -2 8 -7 15 -17 15 -22z m800 22 c0 -5 -9
-10 -21 -10 -11 0 -17 5 -14 10 3 6 13 10 21 10 8 0 14 -4 14 -10z m-1601 -26
c3 -16 1 -17 -13 -5 -19 16 -21 34 -3 29 6 -3 14 -13 16 -24z m1676 5 c6 -19
0 -38 -9 -28 -10 12 -16 49 -7 49 5 0 13 -9 16 -21z m-945 -30 c0 -29 5 -38
21 -42 17 -5 20 -11 17 -31 -3 -15 0 -27 8 -30 14 -6 37 -104 32 -142 -2 -18
-14 -32 -36 -45 -33 -17 -35 -17 -65 2 -56 33 -120 60 -134 55 -7 -3 -13 -1
-13 4 0 12 78 33 96 26 8 -3 13 -10 12 -15 -2 -5 2 -11 7 -12 6 -2 11 6 13 18
4 28 -30 38 -94 29 -29 -4 -43 -2 -39 4 3 6 16 10 28 11 20 1 20 2 -3 8 -30 8
-19 17 35 26 22 4 52 14 67 21 15 8 36 14 48 14 12 0 20 7 20 16 0 14 -7 15
-42 10 l-43 -6 29 24 c16 14 24 26 18 30 -6 3 -13 2 -17 -4 -9 -15 -25 -12
-25 5 0 26 -14 17 -45 -30 -26 -39 -45 -56 -45 -40 0 8 72 109 87 121 8 7 25
11 38 10 22 -1 25 -6 25 -37z m837 19 c-2 -7 -11 -12 -19 -10 -8 1 -23 -7 -33
-18 -21 -23 -35 -26 -35 -7 0 12 55 45 78 46 8 1 12 -5 9 -11z m-2308 -88 c0
-23 -15 7 -22 45 l-6 30 14 -30 c8 -16 14 -37 14 -45z m801 55 c7 -8 8 -15 2
-15 -5 0 -15 7 -22 15 -7 8 -8 15 -2 15 5 0 15 -7 22 -15z m-141 -37 c0 -28
-2 -30 -9 -13 -12 28 -12 45 0 45 6 0 10 -15 9 -32z m-619 -11 c0 -5 -4 -5
-10 -2 -5 3 -10 14 -10 23 0 15 2 15 10 2 5 -8 10 -19 10 -23z m995 17 c48 -9
129 -40 132 -50 2 -5 -16 -17 -39 -26 -23 -10 -39 -21 -36 -24 4 -3 2 -18 -3
-33 -12 -34 -1 -65 36 -104 17 -17 35 -27 48 -25 25 3 50 -10 42 -22 -3 -4 5
-14 18 -23 21 -13 23 -22 25 -133 3 -130 -12 -246 -35 -282 l-15 -24 -20 22
c-23 25 -43 21 -42 -8 0 -13 -4 -18 -10 -14 -6 3 -19 5 -28 4 -14 -3 -17 5
-17 35 0 21 -3 52 -6 68 -4 17 -10 80 -15 140 -4 61 -13 146 -20 190 -12 69
-11 93 4 179 16 97 15 119 -4 100 -12 -12 -31 -105 -32 -157 -1 -74 -13 -24
-18 76 -4 90 -7 102 -22 99 -10 -2 -18 1 -18 6 0 14 13 23 26 18 7 -3 29 -8
49 -12z m-805 -15 c0 -6 -4 -7 -10 -4 -5 3 -10 11 -10 16 0 6 5 7 10 4 6 -3
10 -11 10 -16z m634 -35 c6 -24 2 -44 -8 -33 -9 11 -15 59 -7 59 5 0 12 -12
15 -26z m876 -36 c0 -10 -6 -18 -13 -18 -10 0 -14 27 -8 60 3 11 21 -26 21
-42z m-920 -18 c0 -6 -9 -5 -20 2 -11 7 -20 16 -20 21 0 4 9 3 20 -3 11 -6 20
-15 20 -20z m-863 -2 c-3 -8 -6 -5 -6 6 -1 11 2 17 5 13 3 -3 4 -12 1 -19z
m80 -20 c-3 -8 -6 -5 -6 6 -1 11 2 17 5 13 3 -3 4 -12 1 -19z m210 -25 c-3
-10 -5 -4 -5 12 0 17 2 24 5 18 2 -7 2 -21 0 -30z m60 0 c-3 -10 -5 -4 -5 12
0 17 2 24 5 18 2 -7 2 -21 0 -30z m935 15 c-7 -7 -12 -8 -12 -2 0 6 3 14 7 17
3 4 9 5 12 2 2 -3 -1 -11 -7 -17z m452 7 c-4 -8 -10 -15 -15 -15 -5 0 -9 7 -9
15 0 8 7 15 15 15 9 0 12 -6 9 -15z m-714 -55 c0 -33 -4 -60 -9 -60 -4 0 -7
26 -5 58 3 65 2 62 9 62 3 0 5 -27 5 -60z m-120 20 c0 -16 -2 -30 -5 -30 -9 0
-26 41 -20 50 12 20 25 9 25 -20z m850 -10 c0 -5 -7 -10 -15 -10 -8 0 -15 5
-15 10 0 6 7 10 15 10 8 0 15 -4 15 -10z m-1217 -25 c-7 -21 -13 -19 -13 6 0
11 4 18 10 14 5 -3 7 -12 3 -20z m767 16 c0 -5 -7 -11 -14 -14 -10 -4 -13 -1
-9 9 6 15 23 19 23 5z m-95 -11 c-3 -5 -12 -10 -18 -10 -7 0 -6 4 3 10 19 12
23 12 15 0z m-1338 -22 c-3 -8 -6 -5 -6 6 -1 11 2 17 5 13 3 -3 4 -12 1 -19z
m1483 -8 c0 -5 -7 -7 -15 -4 -8 4 -15 8 -15 10 0 2 7 4 15 4 8 0 15 -4 15 -10z
m75 -20 c3 -5 -1 -10 -9 -10 -8 0 -18 5 -21 10 -3 6 1 10 9 10 8 0 18 -4 21
-10z m171 -15 c4 -8 3 -27 0 -41 -5 -20 -10 -23 -20 -15 -17 14 -26 4 -26 -31
0 -15 -5 -37 -12 -48 -7 -10 -9 -23 -4 -27 10 -10 47 38 41 55 -2 6 -1 12 3
12 5 0 13 -42 20 -94 6 -52 25 -149 41 -216 26 -108 28 -125 16 -144 -20 -31
-6 -79 26 -86 21 -5 25 -12 29 -68 4 -54 3 -62 -12 -62 -20 0 -24 26 -5 33 9
3 9 8 -2 21 -13 15 -13 19 -1 26 17 10 13 15 -19 25 -23 7 -24 6 -19 -38 4
-37 3 -44 -9 -40 -10 4 -13 15 -9 34 3 16 2 29 -2 29 -14 0 -32 -24 -32 -42 0
-10 -4 -18 -10 -18 -5 0 -10 7 -10 16 0 11 -6 14 -20 9 -16 -5 -20 -2 -20 14
0 14 12 27 35 38 40 19 45 33 13 34 -13 0 -17 3 -10 6 18 7 15 23 -5 24 -14 0
-13 2 5 9 36 15 25 23 -20 17 -42 -6 -42 -6 -20 9 26 19 29 34 5 34 -15 0 -14
2 3 15 18 14 18 14 -11 15 -16 1 -24 4 -17 7 17 7 15 21 -5 25 -9 2 -21 20
-28 43 -8 29 -16 39 -28 37 -22 -4 -33 24 -17 43 10 12 10 15 0 15 -7 0 -10 7
-6 15 4 11 -1 15 -17 15 -20 1 -21 2 -4 14 25 19 21 29 -8 22 -14 -4 -25 -2
-25 4 0 5 12 13 28 17 l27 7 -25 7 -25 6 25 11 25 11 -28 0 c-16 1 -26 5 -22
11 9 15 47 12 90 -6 37 -15 65 -13 65 5 0 6 -16 13 -35 17 -45 8 -60 26 -45
53 9 17 7 24 -11 38 -12 10 -33 27 -47 39 l-26 21 77 -2 c63 -2 82 1 100 16
27 23 36 23 43 4z m-256 -12 c18 -17 17 -18 -11 -19 -16 -1 -29 0 -29 2 0 7
13 34 16 34 3 0 13 -8 24 -17z m-347 -137 c11 1 17 -6 18 -20 3 -62 7 -104 14
-126 6 -20 5 -23 -5 -13 -9 9 -20 7 -46 -8 -19 -10 -34 -15 -35 -11 -8 55 -7
102 1 107 5 3 10 26 10 49 0 24 3 65 8 92 l7 49 5 -60 c4 -49 8 -60 23 -59z
m667 -160 c22 -98 39 -181 36 -184 -7 -6 -6 -9 -55 188 -23 91 -41 179 -40
195 1 30 1 30 9 5 4 -14 27 -105 50 -204z m70 220 c0 -2 -9 -6 -20 -9 -11 -3
-20 -1 -20 4 0 5 9 9 20 9 11 0 20 -2 20 -4z m-873 -113 c-2 -16 -4 -5 -4 22
0 28 2 40 4 28 2 -13 2 -35 0 -50z m-975 25 c-8 -8 -9 -4 -5 13 4 13 8 18 11
10 2 -7 -1 -18 -6 -23z m148 11 c0 -5 -4 -9 -10 -9 -5 0 -10 7 -10 16 0 8 5
12 10 9 6 -3 10 -10 10 -16z m1380 11 c0 -5 -7 -10 -15 -10 -8 0 -15 5 -15 10
0 6 7 10 15 10 8 0 15 -4 15 -10z m282 -42 c-7 -7 -12 -8 -12 -2 0 6 3 14 7
17 3 4 9 5 12 2 2 -3 -1 -11 -7 -17z m198 2 c-33 -26 -49 -26 -19 0 13 10 29
19 34 19 6 1 -1 -8 -15 -19z m12 -35 c-17 -14 -34 -25 -38 -25 -11 1 48 50 59
50 5 0 -5 -11 -21 -25z m-1605 -22 c-3 -10 -5 -4 -5 12 0 17 2 24 5 18 2 -7 2
-21 0 -30z m610 -105 c-3 -8 -6 -5 -6 6 -1 11 2 17 5 13 3 -3 4 -12 1 -19z
m20 -135 c-2 -16 -4 -3 -4 27 0 30 2 43 4 28 2 -16 2 -40 0 -55z m98 -21 c-6
-15 -8 -15 -21 2 -18 25 -18 36 1 36 8 0 16 8 16 18 1 9 4 4 6 -11 3 -16 2
-36 -2 -45z m-654 32 c15 -18 88 -56 140 -73 36 -11 36 -12 43 -79 11 -118 8
-182 -9 -182 -8 0 -19 -9 -25 -19 -13 -26 -13 -31 5 -31 8 0 12 -6 9 -14 -3
-8 -1 -17 5 -21 6 -3 11 -15 11 -26 0 -10 7 -19 15 -19 8 0 15 -7 15 -15 0
-24 19 -17 26 10 3 14 12 25 20 25 8 0 14 5 14 10 0 6 -4 10 -9 10 -4 0 -6 11
-3 25 2 14 11 25 18 25 19 0 18 24 -1 40 -12 10 -15 36 -15 117 l0 106 53 -7
c28 -4 78 -8 110 -8 l57 -2 0 -46 c0 -25 -5 -51 -12 -58 -14 -14 -3 -28 27
-34 14 -2 20 -11 20 -30 1 -14 7 -33 14 -42 10 -12 12 -33 8 -76 -7 -60 6 -90
37 -90 22 0 40 -73 41 -178 1 -59 7 -108 13 -114 6 -6 43 -12 82 -14 68 -2 71
-1 92 27 21 28 23 29 30 9 9 -24 35 -26 60 -4 13 12 21 14 31 6 7 -6 17 -8 23
-4 17 11 33 160 27 244 -5 67 -4 78 11 84 24 9 27 2 14 -33 -10 -26 -8 -34 12
-62 20 -29 22 -40 16 -89 -4 -32 -11 -91 -16 -133 -5 -42 -13 -85 -19 -95 -5
-11 -13 -45 -16 -76 -7 -66 -19 -79 -71 -77 -22 0 -101 0 -177 -1 -131 -1
-139 0 -187 26 -47 25 -51 26 -92 13 -51 -16 -243 -15 -363 3 -44 6 -114 12
-155 13 -57 2 -89 9 -135 30 -39 17 -71 25 -93 23 -28 -4 -37 1 -54 26 -12 17
-23 33 -24 35 -2 2 -24 -15 -51 -37 -26 -22 -58 -43 -70 -47 l-23 -6 0 243 0
243 33 52 c43 69 184 213 233 238 78 39 140 84 179 129 43 50 56 54 76 30z
m896 -66 c-3 -8 -6 -5 -6 6 -1 11 2 17 5 13 3 -3 4 -12 1 -19z m443 12 c0 -5
-4 -10 -10 -10 -5 0 -10 5 -10 10 0 6 5 10 10 10 6 0 10 -4 10 -10z m-330 -76
c0 -24 -4 -44 -10 -44 -5 0 -10 23 -10 51 0 31 4 48 10 44 6 -3 10 -26 10 -51z
m-483 14 c-3 -8 -6 -5 -6 6 -1 11 2 17 5 13 3 -3 4 -12 1 -19z m1101 13 c23
-14 -14 -34 -70 -37 -28 -1 -55 -7 -61 -13 -6 -6 -22 -11 -36 -11 -33 0 -47
-10 -54 -35 -4 -18 -5 -17 -6 3 -1 14 -6 22 -13 19 -7 -2 -12 -18 -12 -36 1
-17 -2 -28 -7 -25 -5 3 -9 27 -9 54 l0 49 43 12 c89 24 202 35 225 20z m-738
-160 c-5 -11 -10 -31 -10 -45 0 -17 -5 -26 -16 -26 -14 0 -14 3 -4 15 8 10 10
29 6 54 -7 44 0 56 21 36 10 -11 11 -19 3 -34z m216 -12 c3 -5 23 -9 45 -9 21
0 39 -4 39 -10 0 -5 -18 -10 -40 -10 -30 0 -40 -4 -40 -16 0 -13 -6 -15 -27
-9 -39 9 -46 18 -32 47 11 25 41 29 55 7z m267 -35 c-4 -11 -34 -23 -55 -24
-5 0 -8 7 -8 15 0 9 -6 12 -17 9 -12 -4 -14 -3 -6 3 18 13 92 11 86 -3z m-438
-24 c3 -5 -1 -10 -9 -10 -9 0 -16 5 -16 10 0 6 4 10 9 10 6 0 13 -4 16 -10z
m15 -40 c0 -5 -7 -10 -15 -10 -8 0 -15 5 -15 10 0 6 7 10 15 10 8 0 15 -4 15
-10z m-10 -42 c0 -5 -6 -8 -14 -8 -7 0 -16 -9 -19 -20 -4 -16 -14 -20 -52 -20
-28 0 -44 4 -40 10 3 6 24 10 46 10 27 0 39 4 39 14 0 8 -6 16 -12 19 -7 2 2
4 19 3 18 -1 33 -4 33 -8z m-340 -2 c0 -3 -4 -8 -10 -11 -5 -3 -10 -1 -10 4 0
6 5 11 10 11 6 0 10 -2 10 -4z m180 -22 c0 -3 -9 -17 -20 -31 -19 -24 -19 -27
-3 -38 16 -12 16 -14 1 -29 -10 -10 -19 -12 -23 -6 -3 5 -16 10 -28 11 l-22 0
22 9 c15 6 20 15 16 28 -3 12 4 28 18 41 22 20 39 27 39 15z m142 -89 c-2 -28
-7 -53 -10 -57 -11 -11 -56 -16 -77 -8 -16 7 -12 9 23 15 45 8 52 18 25 34
-12 7 -13 11 -5 11 27 0 4 25 -29 31 l-34 6 32 2 c17 0 35 6 38 12 4 5 14 9
23 7 14 -3 16 -13 14 -53z m95 18 c-3 -10 -5 -4 -5 12 0 17 2 24 5 18 2 -7 2
-21 0 -30z m-236 -125 c3 -146 0 -158 -37 -129 -15 12 -37 21 -50 21 -12 0
-26 5 -29 10 -4 6 9 10 32 10 79 0 78 28 -2 41 l-40 6 46 2 c25 0 49 4 52 8
14 14 -17 33 -57 35 l-41 1 45 6 c49 6 61 24 20 29 -68 8 -52 18 48 30 8 2 12
-19 13 -70z m119 3 c0 -5 -18 -9 -40 -9 -22 0 -40 3 -40 7 0 5 18 9 40 9 22 0
40 -3 40 -7z m0 -51 c0 -5 -18 -10 -40 -10 -22 0 -40 5 -40 10 0 6 18 10 40
10 22 0 40 -4 40 -10z m-23 -62 c-3 -8 -6 -5 -6 6 -1 11 2 17 5 13 3 -3 4 -12
1 -19z m1428 -17 c17 -3 26 -9 20 -11 -17 -9 -175 1 -175 11 0 10 108 10 155
0z m145 -38 c0 -17 -22 -16 -46 1 -18 14 -18 15 6 24 26 10 40 1 40 -25z
m-1283 -60 c-11 -126 -28 -158 -22 -40 2 54 7 102 10 108 14 22 18 4 12 -68z
m-1528 -54 c24 -29 28 -30 54 -18 27 12 35 11 100 -22 9 -5 38 -16 63 -25 40
-13 48 -13 67 -1 19 12 28 12 67 0 63 -19 393 -34 446 -20 35 9 50 7 102 -12
55 -21 73 -22 179 -17 83 3 106 2 78 -4 -48 -11 -183 -12 -395 -2 -85 4 -173
4 -195 0 -36 -7 -157 -4 -300 7 -27 2 -70 9 -95 16 -25 7 -82 11 -128 10 -80
-2 -188 14 -198 30 -5 9 51 41 58 34 2 -3 17 9 33 25 16 17 31 30 34 30 2 0
16 -14 30 -31z m2401 -83 c0 -3 -4 -8 -10 -11 -5 -3 -10 -1 -10 4 0 6 5 11 10
11 6 0 10 -2 10 -4z m-340 -16 c0 -5 -7 -10 -16 -10 -8 0 -12 5 -9 10 3 6 10
10 16 10 5 0 9 -4 9 -10z m285 0 c-3 -5 -10 -10 -16 -10 -5 0 -9 5 -9 10 0 6
7 10 16 10 8 0 12 -4 9 -10z m-840 -72 c-8 -36 -21 -49 -42 -41 -22 8 -15 25
8 18 19 -6 20 -4 14 24 -5 25 -3 31 10 31 13 0 15 -6 10 -32z m-205 -18 c0 -5
-4 -10 -10 -10 -5 0 -10 5 -10 10 0 6 5 10 10 10 6 0 10 -4 10 -10z m270 -60
c-7 -28 -17 -53 -23 -57 -6 -4 -8 -1 -5 8 3 8 11 38 19 68 7 29 15 48 17 42 2
-6 -2 -34 -8 -61z m570 35 c0 -8 -4 -15 -10 -15 -5 0 -7 7 -4 15 4 8 8 15 10
15 2 0 4 -7 4 -15z m662 -120 c0 -49 -1 -143 -1 -207 l-1 -118 -76 0 c-63 0
-74 2 -65 13 8 10 7 14 -4 14 -7 0 -13 -5 -12 -11 1 -7 -32 -12 -93 -14 -81
-2 -101 0 -138 18 -33 17 -41 26 -37 40 3 10 0 22 -7 26 -17 11 -59 13 -52 3
2 -4 13 -6 24 -4 13 2 17 -1 14 -10 -3 -8 -12 -11 -20 -8 -8 3 -14 -1 -14 -10
0 -25 -20 -31 -35 -11 -14 21 -15 41 -2 36 5 -1 5 3 2 9 -5 7 -11 7 -17 1 -6
-6 -23 -3 -48 9 -22 11 -43 19 -49 19 -5 0 -13 5 -17 12 -4 6 -3 8 4 4 6 -3
13 -2 17 4 4 6 12 7 18 3 7 -4 6 1 -2 10 -12 16 -16 16 -31 2 -25 -22 -56 -18
-74 10 -9 14 -14 25 -11 25 16 0 20 -3 17 -13 -2 -6 3 -5 12 2 8 7 23 11 33 9
13 -2 18 3 18 22 0 17 7 26 25 30 27 6 38 36 21 53 -17 17 -13 27 12 27 25 1
107 22 122 32 6 3 35 9 65 13 30 4 60 10 65 13 6 4 19 8 30 9 11 2 43 8 70 13
28 6 67 9 88 8 20 -1 39 1 42 3 2 3 28 5 56 4 l52 0 -1 -90z m-1067 75 c3 -5
-1 -10 -10 -10 -9 0 -13 5 -10 10 3 6 8 10 10 10 2 0 7 -4 10 -10z m-215 -30
c0 -5 -4 -10 -10 -10 -5 0 -10 5 -10 10 0 6 5 10 10 10 6 0 10 -4 10 -10z
m700 -10 c0 -5 -7 -10 -16 -10 -8 0 -12 5 -9 10 3 6 10 10 16 10 5 0 9 -4 9
-10z m-643 -62 c-3 -8 -6 -5 -6 6 -1 11 2 17 5 13 3 -3 4 -12 1 -19z m-541
-24 c15 -11 38 -27 53 -36 l26 -18 -30 -2 c-16 -1 -39 -2 -50 -3 -11 -1 -26
-4 -33 -9 -25 -16 -10 -26 41 -27 82 -2 116 -17 40 -18 -35 -1 -63 -5 -63 -11
0 -5 17 -10 38 -10 44 0 152 -26 166 -41 6 -5 21 -9 34 -9 17 0 23 4 18 15 -7
19 -1 19 27 1 26 -17 47 -20 145 -18 69 2 73 3 83 29 l10 27 21 -21 c13 -13
21 -35 22 -60 l1 -38 -611 -3 -611 -2 -11 24 c-9 20 -23 28 -71 37 -45 10 -61
18 -65 32 -4 18 -1 19 57 14 77 -7 191 10 237 36 20 11 53 20 77 19 27 0 48 6
62 19 11 11 34 22 51 25 16 4 30 10 30 14 0 10 -26 20 -51 20 -11 0 -30 5 -42
12 l-22 12 23 5 c13 3 102 5 198 5 152 -2 178 -4 200 -20z m227 -14 c-3 -11
-7 -20 -8 -20 -1 0 -5 9 -8 20 -3 12 0 20 8 20 8 0 11 -8 8 -20z m248 -44
c-21 -20 -22 -20 -15 -1 11 32 28 49 32 35 3 -7 -5 -22 -17 -34z m-911 24 c0
-5 -7 -10 -15 -10 -8 0 -15 5 -15 10 0 6 7 10 15 10 8 0 15 -4 15 -10z m1530
-19 c0 -5 -7 -14 -15 -21 -13 -10 -15 -9 -15 9 0 12 6 21 15 21 8 0 15 -4 15
-9z m-2142 -31 c7 -12 23 -20 41 -20 16 0 42 -3 59 -6 30 -6 30 -7 15 -30 -18
-29 -11 -54 16 -54 11 0 24 -8 29 -17 8 -13 22 -16 66 -14 32 1 56 -2 56 -7 0
-17 -58 -25 -125 -17 -50 5 -68 12 -88 33 -14 15 -27 38 -29 52 -2 14 -14 30
-28 37 -25 12 -50 40 -50 55 0 16 25 8 38 -12z m259 7 c96 -2 119 -5 111 -14
-10 -12 1 -18 25 -14 5 1 5 -3 2 -9 -9 -15 -163 -2 -192 16 -12 8 -39 14 -60
15 -21 1 -49 5 -63 10 -19 6 -16 7 15 3 22 -2 95 -5 162 -7z m259 6 c-10 -10
-79 -33 -85 -28 -11 12 26 35 57 35 19 0 32 -3 28 -7z m744 -73 c0 -5 -4 -10
-10 -10 -5 0 -10 5 -10 10 0 6 5 10 10 10 6 0 10 -4 10 -10z m624 -56 c21 -31
35 -58 32 -62 -3 -3 -6 0 -6 6 0 8 -25 12 -72 13 -40 1 -63 4 -50 6 17 3 21 9
17 23 -3 11 0 20 10 24 8 3 15 15 15 26 0 33 15 23 54 -36z m224 30 c56 -14
145 -71 139 -88 -4 -11 -164 -16 -244 -8 -36 3 -44 9 -58 38 -9 19 -20 34 -24
34 -11 0 -23 29 -17 39 7 10 144 1 204 -15z m-445 -11 c-7 -2 -19 -2 -25 0 -7
3 -2 5 12 5 14 0 19 -2 13 -5z"/>
<g>
<path d="M991 1714 c0 -11 3 -14 6 -6 3 7 2 16 -1 19 -3 4 -6 -2 -5 -13z"/>
</g>
<g>
<path d="M2813 742 c-20 -3 -28 -18 -24 -44 0 -5 -6 -9 -14 -9 -36 -3 -75 -19
-75 -30 0 -5 3 -9 8 -9 4 0 14 -4 21 -9 12 -8 11 -13 -10 -30 -21 -17 -22 -20
-6 -26 21 -9 23 -25 2 -25 -16 0 -19 -17 -9 -44 8 -20 24 -11 24 15 0 13 7 19
24 19 23 0 23 -2 21 -80 -2 -63 0 -80 11 -80 11 0 14 17 14 69 0 47 4 72 14
80 9 8 16 8 20 2 4 -5 2 -13 -4 -16 -8 -5 -7 -11 1 -21 9 -11 15 -12 25 -3 11
9 11 15 3 25 -9 11 -7 14 13 14 13 0 28 -4 34 -9 5 -6 18 -3 34 9 l25 20 -60
1 c-36 1 -46 4 -25 6 19 2 46 6 60 9 l25 6 -25 13 c-25 14 -27 20 -8 43 6 6 9
12 7 13 -2 0 -15 3 -29 5 -13 3 -28 11 -33 19 -4 8 -20 15 -35 16 -20 1 -16 4
16 11 25 5 42 14 39 21 -4 13 -52 24 -84 19z m45 -19 c-10 -2 -26 -2 -35 0
-10 3 -2 5 17 5 19 0 27 -2 18 -5z m22 -123 c0 -5 -18 -10 -40 -10 -22 0 -40
5 -40 10 0 6 18 10 40 10 22 0 40 -4 40 -10z"/>
</g>
<g>
<path d="M2441 626 c-9 -11 -6 -12 14 -8 14 2 25 8 25 13 0 14 -26 11 -39 -5z"/>
</g>
<g>
<path d="M2596 611 c-4 -5 -2 -12 3 -15 5 -4 12 -2 15 3 4 5 2 12 -3 15 -5 4
-12 2 -15 -3z"/>
</g>
<g>
<path d="M2425 530 c-3 -4 1 -13 9 -19 10 -9 16 -8 26 4 7 8 11 15 9 16 -31 6
-40 6 -44 -1z m35 -6 c0 -8 -19 -13 -24 -6 -3 5 1 9 9 9 8 0 15 -2 15 -3z"/>
</g>
<g>
<path d="M2513 525 c0 -8 4 -12 9 -9 5 3 6 10 3 15 -9 13 -12 11 -12 -6z"/>
</g>
<g>
<path d="M2675 421 c-3 -5 -2 -12 3 -15 5 -3 9 1 9 9 0 17 -3 19 -12 6z"/>
</g>
<g>
<path d="M1300 452 c0 -4 21 -14 48 -22 26 -8 53 -16 60 -18 29 -9 9 19 -24
33 -39 16 -84 20 -84 7z"/>
</g>
<g>
<path d="M1455 410 c-4 -6 13 -10 44 -10 28 0 51 5 51 10 0 6 -20 10 -44 10
-25 0 -48 -4 -51 -10z"/>
</g>
</g>
<g>
<path d="M2780 3510 c0 -5 4 -10 9 -10 5 0 11 -7 13 -15 2 -10 7 -7 15 10 10
23 9 25 -13 25 -13 0 -24 -4 -24 -10z"/>
</g>
<g>
<path d="M2994 3365 c0 -55 1 -76 3 -47 2 29 2 74 0 100 -2 26 -3 2 -3 -53z"/>
</g>
<g>
<path d="M2994 3095 c0 -82 2 -115 3 -72 2 43 2 110 0 150 -1 40 -3 5 -3 -78z"/>
</g>
<g>
<path d="M40 280 c0 -5 7 -10 15 -10 12 0 15 -17 15 -90 0 -53 -4 -90 -10 -90
-5 0 -10 -4 -10 -8 0 -5 14 -7 30 -4 24 3 29 8 25 23 -7 21 4 89 14 89 11 0
71 -89 71 -105 0 -10 10 -15 31 -15 l31 0 -34 43 c-18 23 -42 55 -52 71 -18
29 -18 29 5 48 13 10 34 21 47 24 34 9 26 24 -14 24 -19 0 -33 -4 -29 -9 5 -9
-44 -51 -59 -51 -14 0 -5 41 11 47 15 6 15 7 -3 14 -28 11 -84 11 -84 -1z"/>
</g>
<g>
<path d="M265 271 c-3 -6 -1 -11 4 -11 7 0 11 -35 11 -95 l0 -95 43 0 c36 1
40 2 25 13 -11 9 -16 27 -16 62 l1 48 24 -29 c12 -16 23 -34 23 -40 0 -17 45
-54 66 -54 17 0 19 8 19 100 l0 100 -35 -1 c-19 -1 -27 -3 -17 -6 14 -4 17
-16 17 -69 0 -40 -4 -63 -10 -59 -5 3 -26 35 -46 70 -24 43 -42 65 -54 65 -10
0 -25 3 -33 6 -8 3 -18 1 -22 -5z"/>
</g>
<g>
<path d="M876 271 c-3 -5 0 -11 7 -14 9 -3 12 -16 9 -36 -3 -24 -9 -31 -28
-31 -19 0 -23 6 -26 38 -3 34 -6 37 -37 40 -30 3 -33 2 -22 -12 9 -11 12 -39
8 -96 -4 -79 -4 -80 19 -80 13 0 25 6 25 13 2 15 6 48 7 65 1 6 13 12 27 12
24 0 26 -3 24 -45 -2 -24 0 -48 4 -52 16 -16 25 18 29 110 4 95 3 97 -18 97
-13 0 -25 -4 -28 -9z"/>
</g>
<g>
<path d="M968 272 c-20 -4 -23 -19 -9 -41 7 -11 11 -9 20 8 7 11 15 21 20 21
12 0 10 -162 -2 -177 -7 -10 1 -13 34 -13 33 0 40 3 31 12 -7 7 -12 44 -12 95
0 76 2 83 20 83 11 0 19 -3 18 -7 -2 -5 0 -9 5 -10 19 -7 27 -1 27 17 0 19 -5
21 -67 18 -38 -2 -76 -4 -85 -6z"/>
</g>
<g>
<path d="M1380 260 c6 -11 10 -39 9 -63 -2 -23 -2 -61 -1 -84 2 -40 4 -43 31
-43 l30 0 -4 54 c-4 53 -4 55 24 61 38 8 62 35 55 62 -7 25 -30 33 -102 33
-50 0 -52 -1 -42 -20z m88 -32 c-4 -46 -28 -49 -28 -4 0 26 4 36 16 36 11 0
14 -8 12 -32z"/>
</g>
<g>
<path d="M1560 274 c-13 -4 -15 -21 -13 -102 l3 -97 52 0 c59 0 78 8 78 36 0
25 -30 24 -37 -1 -7 -27 -29 -25 -37 2 -7 27 -7 68 1 51 9 -23 33 -14 33 11 0
26 -21 47 -28 28 -8 -25 -22 -10 -22 23 0 30 3 35 24 35 13 0 26 -6 29 -12 2
-7 8 -10 12 -6 4 4 5 14 2 23 -6 14 -58 19 -97 9z"/>
</g>
<g>
<path d="M1695 270 c-2 -3 0 -12 6 -20 13 -22 11 -154 -3 -168 -9 -9 -5 -12
18 -12 l29 0 -3 61 c-4 68 7 72 28 9 15 -46 31 -62 66 -66 21 -2 24 2 25 29 1
54 7 141 11 157 2 11 -7 16 -31 18 -32 3 -33 2 -27 -23 17 -66 18 -85 7 -85
-6 0 -11 6 -11 13 0 7 -11 29 -25 48 -17 26 -33 38 -55 41 -17 3 -33 2 -35 -2z"/>
</g>
<g>
<path d="M1912 268 c-15 -15 -16 -48 -2 -48 6 0 13 7 16 15 4 8 13 15 21 15
12 0 14 -7 9 -32 -4 -18 -4 -59 0 -90 5 -48 10 -58 25 -58 17 0 19 9 19 85 0
77 2 85 19 85 10 0 22 -8 25 -17 5 -11 10 -13 17 -6 16 16 2 50 -24 57 -38 10
-112 7 -125 -6z"/>
</g>
<g>
<path d="M2086 271 c-3 -5 0 -14 8 -20 11 -10 7 -26 -28 -96 l-42 -85 45 1
c25 1 36 4 24 6 -26 5 -27 8 -12 52 9 24 17 31 37 31 38 0 49 -10 64 -55 12
-36 17 -40 48 -43 19 -1 30 1 24 5 -13 9 -64 154 -64 182 0 26 -90 45 -104 22z
m62 -74 c3 -28 -4 -33 -27 -18 -8 5 -11 16 -6 30 9 29 29 21 33 -12z"/>
</g>
<g>
<path d="M510 170 l0 -100 25 0 c21 0 25 5 25 33 0 17 3 62 5 100 l5 67 -30 0
-30 0 0 -100z"/>
</g>
<g>
<path d="M642 259 c-45 -18 -63 -49 -59 -103 6 -65 34 -89 96 -81 48 6 63 18
59 50 -2 15 -12 21 -35 23 -32 3 -46 -12 -20 -21 6 -2 9 -8 5 -12 -4 -4 -14
-5 -23 -2 -11 5 -15 21 -15 61 0 45 4 57 20 66 23 12 40 6 40 -16 0 -8 4 -14
8 -14 16 0 30 22 25 41 -4 14 -14 19 -42 18 -20 0 -47 -4 -59 -10z"/>
</g>
<g>
<path d="M2449 263 c-1 -5 0 -12 1 -18 2 -5 2 -49 1 -97 l-1 -88 58 0 c57 0
82 11 82 37 0 18 -27 16 -34 -2 -3 -8 -16 -15 -29 -15 -23 0 -23 1 -19 95 l4
95 -31 0 c-17 0 -32 -3 -32 -7z"/>
</g>
<g>
<path d="M2792 262 c-7 -5 -20 -21 -27 -36 -13 -24 -12 -29 5 -46 11 -11 32
-20 48 -20 38 0 54 -13 50 -41 -4 -29 -39 -37 -58 -14 -21 25 -42 19 -38 -12
3 -26 7 -28 53 -31 79 -5 111 36 75 95 -15 25 -29 34 -60 39 -30 5 -40 11 -38
23 4 22 56 27 64 7 8 -22 24 -10 24 18 0 19 -6 23 -42 24 -24 1 -49 -2 -56 -6z"/>
</g>
<g>
<path d="M2303 250 c-31 -13 -56 -65 -48 -100 14 -64 85 -108 132 -81 15 9 14
10 -13 11 -35 0 -49 12 -59 53 -19 75 28 136 66 86 16 -21 18 -22 24 -6 13 31
-2 47 -42 46 -21 0 -48 -4 -60 -9z"/>
</g>
<g>
<path d="M2590 251 c0 -6 5 -13 10 -16 15 -9 13 -162 -2 -168 -7 -3 18 -6 55
-6 61 -1 68 1 76 22 11 28 -4 35 -29 12 -26 -24 -50 -12 -50 24 0 23 4 29 15
25 10 -4 15 0 15 14 0 11 -7 23 -16 26 -10 4 -14 15 -12 33 4 33 25 42 30 12
4 -27 26 -37 34 -15 11 29 -15 46 -72 46 -30 0 -54 -4 -54 -9z"/>
</g>
<g>
<path d="M1235 216 c-19 -13 -18 -15 9 -56 21 -33 27 -51 24 -81 -2 -22 0 -39
4 -39 11 0 28 36 28 58 0 11 9 22 21 25 17 5 19 9 9 26 -13 25 -26 27 -34 5
-5 -14 -9 -12 -26 9 -26 33 -26 50 0 42 24 -7 27 10 4 19 -20 8 -17 8 -39 -8z"/>
</g>
<g>
<path d="M1142 148 c-26 -26 -6 -68 33 -68 20 0 55 27 55 43 0 3 -7 13 -16 21
-18 19 -55 21 -72 4z m58 -34 c0 -9 -7 -14 -17 -12 -25 5 -28 28 -4 28 12 0
21 -6 21 -16z"/>
</g>
<g>
<path d="M2945 80 c-3 -5 -1 -10 4 -10 6 0 11 5 11 10 0 6 -2 10 -4 10 -3 0
-8 -4 -11 -10z"/>
</g>
<g>
<path d="M1180 10 c-176 -3 23 -6 470 -6 426 0 755 1 730 3 -90 6 -903 8
-1200 3z"/>
</g>
</g>
</svg>
