<?xml version="1.0" standalone="no"?>
<!DOCTYPE svg PUBLIC "-//W3C//DTD SVG 20010904//EN"
 "http://www.w3.org/TR/2001/REC-SVG-20010904/DTD/svg10.dtd">
<svg version="1.0" xmlns="http://www.w3.org/2000/svg"
 width="300.000000pt" height="529.000000pt" viewBox="0 0 300.000000 529.000000"
 preserveAspectRatio="xMidYMid meet">
<metadata>
Created by potrace 1.15, written by Peter Selinger 2001-2017
</metadata>
<g transform="translate(0.000000,529.000000) scale(0.100000,-0.100000)"
fill="#000000" stroke="none">
<g>
<path d="M0 4684 c0 -549 2 -606 16 -600 9 3 24 6 35 6 26 0 24 18 -3 23 -20
4 -19 4 5 6 17 1 27 -4 27 -13 0 -9 18 -17 47 -22 25 -5 48 -14 50 -20 5 -15
-103 -29 -146 -19 -27 6 -31 4 -31 -14 0 -16 6 -21 25 -21 14 0 33 -8 44 -19
17 -17 17 -18 0 -29 -13 -8 -26 -9 -44 -2 l-25 10 1 -283 c1 -265 5 -292 24
-173 5 27 12 40 27 44 20 5 20 5 -3 23 l-24 19 23 6 c25 7 30 24 7 24 -19 0
-19 19 0 26 19 8 19 24 0 24 -8 0 -15 5 -15 11 0 6 10 9 23 7 20 -3 23 -11 29
-78 9 -89 32 -170 62 -225 13 -22 21 -45 19 -50 -3 -11 -83 -8 -95 4 -5 4 8 5
27 3 21 -3 35 0 35 7 0 6 -15 11 -32 11 -18 0 -44 3 -58 7 -22 6 -24 5 -11
-10 12 -15 11 -17 -13 -17 l-27 0 2 -1675 1 -1675 27 1 c17 1 20 3 8 6 -16 4
-17 35 -15 511 l3 507 33 -3 c40 -4 79 19 84 50 2 16 12 24 36 29 18 4 41 13
50 21 9 9 37 18 60 22 55 8 149 85 154 125 2 22 8 26 33 26 22 0 33 6 40 22 7
17 18 23 42 23 l33 0 0 -61 c0 -37 5 -66 13 -74 10 -10 15 -72 20 -243 4 -127
9 -237 12 -244 11 -29 40 -35 143 -30 l102 5 0 58 0 58 35 -15 c19 -7 48 -14
64 -14 53 0 61 -8 61 -59 0 -53 -23 -83 -72 -95 -43 -10 -162 -142 -156 -173
6 -30 42 -41 106 -31 71 12 109 29 161 72 43 36 52 40 111 50 46 8 61 32 49
82 -4 22 -9 56 -9 77 0 27 -4 37 -16 37 -8 0 -12 5 -8 11 3 6 15 8 26 6 11 -3
48 3 82 13 96 28 110 30 148 19 42 -11 123 0 180 25 37 16 37 16 50 -11 9 -19
25 -30 50 -36 41 -10 59 -44 33 -63 -12 -9 -13 -21 -6 -60 11 -57 25 -69 92
-78 28 -4 67 -13 87 -20 99 -36 228 -40 254 -9 9 12 8 22 -7 49 -29 54 -78 92
-130 99 -66 10 -55 25 18 22 l62 -2 5 73 c3 41 2 79 -2 85 -4 6 3 24 14 40 20
27 20 36 12 134 -5 58 -6 107 -2 109 5 3 9 -1 9 -8 3 -34 18 75 18 134 1 37 6
70 11 73 13 8 135 8 161 0 15 -5 19 -13 15 -28 -10 -45 15 -58 126 -68 144
-12 158 -16 158 -44 0 -29 19 -45 67 -52 63 -10 73 -19 73 -68 0 -51 29 -81
89 -90 70 -11 86 -19 92 -50 4 -17 7 29 8 100 l1 130 -42 0 c-42 0 -62 -11
-52 -27 3 -4 23 -8 45 -8 58 0 47 -18 -13 -22 l-53 -3 -3 -39 -3 -38 56 7 c51
6 55 5 55 -14 0 -18 -6 -21 -39 -21 -22 0 -42 4 -45 9 -3 4 -19 11 -36 15
l-31 6 6 107 c3 60 12 149 20 198 12 80 23 253 30 445 6 187 16 402 21 455 7
68 10 109 19 250 11 181 14 195 41 195 l24 0 -2 983 c-2 540 -5 845 -8 677
l-5 -305 -55 3 c-30 1 -89 -2 -130 -7 -41 -5 -76 -8 -77 -7 -3 3 17 51 42 99
41 79 -80 116 -302 93 l-73 -8 6 44 c5 37 2 49 -17 72 -13 15 -41 31 -61 35
-50 12 -249 3 -266 -12 -28 -23 29 -255 75 -309 12 -13 12 -21 3 -38 -6 -12
-9 -28 -6 -36 9 -23 -14 -113 -46 -184 -30 -63 -31 -64 -39 -36 -4 15 -14 36
-22 45 -8 9 -19 26 -26 38 -11 21 -10 21 44 16 45 -5 55 -3 55 9 0 18 -29 28
-87 28 l-41 0 -22 70 c-39 128 -25 228 54 385 52 101 46 130 -29 156 -55 18
-238 16 -286 -5 -48 -20 -54 -39 -25 -89 13 -23 26 -57 30 -75 3 -19 17 -56
31 -84 15 -30 23 -58 19 -72 -3 -12 0 -35 7 -51 35 -84 -7 -288 -77 -382 -29
-38 -30 -43 -5 -43 11 0 21 -5 23 -10 2 -6 58 -18 125 -27 l123 -17 41 22 c55
29 63 28 43 -9 -31 -61 6 -89 119 -89 21 0 48 -5 59 -11 13 -7 41 -8 76 -4 47
6 61 13 89 43 39 43 36 63 -28 185 -13 23 13 22 70 -3 23 -11 47 -18 52 -15
20 13 -6 33 -64 50 -34 10 -67 22 -73 27 -14 10 -28 134 -17 151 4 7 6 21 5
32 -1 11 16 51 37 90 l40 70 11 -30 c7 -17 20 -51 31 -77 54 -134 56 -142 55
-233 -1 -82 -4 -96 -38 -165 -20 -41 -48 -86 -62 -99 -37 -34 -33 -54 21 -106
l48 -47 110 4 c61 2 112 1 115 -2 2 -3 -6 -29 -18 -57 -26 -61 -41 -66 -93
-27 -27 20 -41 24 -72 20 -28 -5 -39 -3 -43 9 -9 22 -54 20 -54 -2 -1 -10 -7
-31 -14 -48 l-13 -30 -21 41 c-12 23 -19 44 -15 47 3 4 2 14 -1 24 -6 14 -9
15 -15 4 -7 -10 -10 -10 -16 -1 -4 7 -2 16 5 20 22 13 3 39 -34 45 -37 7 -60
0 -51 -16 4 -5 16 -9 27 -9 12 0 18 -3 15 -6 -4 -4 -26 -1 -50 5 -34 10 -43
17 -43 34 1 14 -6 23 -19 25 -11 2 -30 8 -43 14 -17 9 -25 9 -34 0 -7 -7 -19
-12 -28 -12 -8 0 -21 -14 -29 -31 -7 -17 -36 -53 -65 -80 -40 -38 -56 -48 -74
-44 -12 3 -60 5 -105 4 -130 -1 -136 -1 -167 18 -24 14 -32 15 -42 5 -11 -11
-8 -17 10 -31 l24 -17 -26 -18 c-30 -19 -254 -41 -270 -26 -5 5 -4 55 4 119
13 112 9 163 -13 160 -7 -1 -20 1 -30 6 -19 8 -312 -30 -354 -46 -31 -11 -31
-41 0 -35 160 35 307 53 307 39 0 -17 -44 -76 -60 -81 -12 -4 -13 -2 -2 9 11
12 17 49 8 49 -3 0 -30 -27 -62 -60 -31 -33 -79 -70 -105 -82 -51 -24 -59 -35
-33 -45 21 -8 53 11 119 69 30 27 55 47 55 43 0 -4 -20 -31 -45 -59 -25 -29
-45 -56 -45 -60 0 -41 175 139 191 197 9 36 22 46 33 28 3 -5 -1 -11 -9 -15
-11 -4 -15 -21 -15 -60 0 -45 -3 -54 -20 -59 -11 -3 -20 -13 -20 -24 -1 -10
-16 -49 -35 -88 -25 -52 -31 -73 -23 -83 8 -9 8 -16 0 -24 -7 -7 -12 -33 -12
-58 0 -39 6 -53 35 -87 43 -51 44 -80 4 -119 -25 -24 -30 -35 -26 -60 4 -26 1
-34 -18 -44 -13 -7 -35 -12 -49 -12 -15 0 -26 -6 -26 -13 0 -8 -41 -55 -90
-106 -50 -51 -98 -109 -108 -128 -18 -36 -37 -43 -37 -13 0 12 -9 18 -32 20
-38 4 -45 22 -8 22 16 0 25 6 25 16 0 12 -7 15 -25 12 -17 -4 -25 -1 -25 8 0
9 11 14 30 14 20 0 30 5 30 15 0 8 -4 15 -8 15 -4 0 -8 16 -9 36 -1 20 -7 40
-13 44 -9 5 -9 9 -1 14 16 10 3 26 -22 27 -20 1 -20 2 3 8 18 5 26 15 28 35 4
30 -13 49 -35 41 -8 -3 -13 5 -13 21 0 18 5 24 18 22 10 -2 17 3 17 12 0 8 -7
14 -16 12 -14 -2 -17 15 -21 120 -6 120 -4 155 5 107 3 -13 15 -71 28 -129 13
-58 25 -140 27 -183 2 -54 7 -77 15 -74 24 8 20 123 -8 214 -6 19 -3 22 29 25
48 4 42 23 -7 23 -29 0 -37 4 -37 18 0 14 9 17 46 17 38 0 45 3 42 18 -2 12
-15 18 -46 20 -48 4 -58 22 -11 22 24 0 30 4 27 18 -3 12 -12 16 -30 14 -15
-1 -29 2 -33 8 -3 5 3 10 14 10 13 0 21 7 21 18 0 12 8 7 28 -18 60 -77 104
-101 139 -74 16 12 15 13 -13 14 -24 0 -41 11 -76 48 -24 26 -53 62 -63 80
-11 17 -25 32 -32 32 -15 0 -17 -26 -3 -35 17 -10 11 -25 -10 -25 -18 0 -20 7
-20 75 0 41 3 75 6 75 3 0 19 -10 36 -21 22 -16 32 -19 41 -10 8 8 5 16 -13
28 -14 10 -36 28 -49 41 -25 25 -36 22 -36 -10 0 -22 -29 -47 -41 -36 -3 4 2
24 12 45 14 29 25 38 44 38 16 0 26 6 28 18 2 11 -3 17 -17 17 -11 0 -22 -4
-26 -9 -3 -5 -24 -8 -47 -6 -25 2 -61 -4 -92 -16 -61 -23 -90 -25 -63 -5 23
18 22 35 -5 63 -20 21 -20 23 -3 23 10 0 32 -12 47 -27 l28 -27 77 23 c42 12
105 25 140 28 55 5 66 10 76 30 9 20 6 28 -21 56 -17 18 -40 58 -51 89 -11 31
-25 66 -31 78 -6 12 -9 24 -6 27 6 7 140 32 144 28 8 -8 -30 -116 -42 -121 -7
-3 -13 -20 -14 -38 l-1 -32 87 -18 c140 -28 150 -29 182 -6 16 11 45 27 64 35
20 9 36 20 36 26 0 11 57 6 115 -11 17 -5 56 -11 89 -13 55 -5 62 -3 108 30
27 20 47 41 44 48 -2 7 0 17 6 23 7 7 4 19 -9 39 -11 15 -23 37 -27 49 -6 19
-3 20 53 16 38 -3 61 0 66 8 12 19 -2 24 -75 28 l-70 4 -9 37 c-17 66 -23 149
-12 156 16 9 13 51 -4 65 -22 18 -19 32 19 108 18 37 42 92 51 124 15 48 16
61 5 87 -12 31 -48 49 -69 36 -16 -9 -13 -25 3 -25 7 0 19 -7 26 -15 10 -13 7
-17 -23 -30 -46 -19 -57 -19 -57 1 0 11 -9 15 -32 13 -56 -3 -83 0 -73 10 6 6
34 11 64 13 62 3 78 22 34 39 -34 13 -152 5 -189 -13 -47 -23 -51 -40 -25
-119 13 -39 36 -101 52 -137 26 -57 28 -69 18 -99 -9 -29 -8 -37 6 -54 15 -15
17 -30 12 -79 -4 -33 -13 -75 -20 -92 l-14 -33 -74 2 c-41 1 -77 2 -80 2 -6 1
-19 42 -39 129 -6 23 -4 37 6 47 17 17 18 39 3 64 -9 14 -7 31 9 77 26 73 51
150 62 186 12 42 -13 66 -85 79 -66 12 -182 7 -233 -11 -58 -21 -53 -54 31
-242 16 -38 34 -68 40 -68 6 0 3 -8 -6 -18 -9 -10 -18 -29 -19 -43 -2 -18 2
-24 17 -23 19 0 20 -5 16 -90 -4 -122 -7 -127 -67 -132 -122 -11 -117 -12
-126 26 -4 20 -3 58 4 89 11 51 11 55 -12 73 -20 16 -21 20 -8 31 8 7 30 50
48 97 19 47 38 89 42 95 8 9 11 45 5 45 -2 0 -18 -7 -35 -16 -18 -8 -40 -14
-50 -12 -12 3 -6 9 21 21 65 28 46 49 -53 58 l-65 6 65 2 c55 2 61 4 40 13
-37 15 -238 0 -272 -20 -31 -18 -31 -20 -18 -77 5 -22 8 -40 7 -41 -1 -1 -27
4 -57 12 -105 27 -257 12 -292 -28 -10 -11 -18 -35 -18 -54 0 -37 -4 -39 -73
-28 l-37 7 2 551 3 551 25 2 c14 1 330 4 703 6 373 3 681 7 684 11 4 3 -318 6
-715 6 l-722 0 0 -606z m1978 -222 c12 -7 22 -17 22 -22 0 -24 -150 -39 -242
-24 -50 9 -49 30 1 39 22 4 44 12 50 18 12 15 136 7 169 -11z m-829 -6 c35
-16 37 -34 6 -46 -35 -13 -118 -13 -110 0 4 6 -9 10 -32 10 -50 0 -84 10 -77
22 3 5 13 7 22 4 10 -3 33 3 52 13 37 20 94 18 139 -3z m281 -46 c33 0 37 -3
33 -20 -3 -11 -9 -20 -14 -20 -5 0 -9 -4 -9 -9 0 -5 28 -7 63 -6 l62 4 -58
-11 c-43 -8 -57 -14 -53 -24 3 -8 1 -14 -4 -14 -6 0 -10 -4 -10 -10 0 -5 6 -7
14 -4 9 4 20 -6 30 -25 20 -37 20 -41 1 -41 -8 0 -15 -4 -15 -10 0 -5 5 -10
11 -10 6 0 8 -7 5 -16 -4 -10 3 -23 16 -34 21 -17 22 -20 7 -35 -15 -15 -17
-14 -22 14 -4 17 -13 31 -21 31 -12 0 -14 -38 -12 -235 2 -209 0 -235 -13
-231 -9 2 -41 7 -71 11 -56 6 -89 19 -78 30 3 4 23 2 45 -4 48 -14 76 -14 68
-1 -3 6 -19 10 -34 10 -15 0 -34 6 -43 13 -14 11 -12 23 19 117 42 130 55 216
36 231 -15 13 -18 45 -4 53 9 6 3 55 -10 71 -10 13 -69 166 -69 179 0 5 21 6
46 2 26 -3 64 -6 84 -6z m433 -24 c59 0 101 -3 95 -8 -7 -4 -41 -8 -76 -8 -40
0 -61 -4 -57 -10 3 -5 35 -10 71 -10 36 0 64 -4 64 -10 0 -11 -42 -14 -125
-10 -38 1 -47 -1 -39 -10 7 -7 41 -14 75 -15 81 -5 74 -20 -9 -20 -79 0 -77
-18 4 -25 46 -4 54 -7 36 -13 -13 -5 -41 -5 -64 -2 -33 6 -40 5 -36 -7 3 -8 0
-22 -8 -33 -19 -25 -18 -28 12 -60 22 -24 24 -30 11 -42 -12 -13 -17 -11 -36
13 -16 20 -20 35 -16 56 5 19 1 37 -12 55 -11 16 -25 48 -32 73 -7 25 -17 55
-22 68 -13 33 -12 34 24 25 17 -4 80 -8 140 -7z m-775 -10 c48 1 78 -3 70 -7
-7 -5 -23 -9 -35 -9 -27 0 -31 -20 -5 -21 33 -1 -20 -18 -60 -18 -30 -1 -38
-5 -38 -20 0 -24 19 -31 67 -25 29 4 34 3 23 -5 -8 -6 -31 -11 -52 -11 -31 0
-35 -3 -31 -20 3 -11 14 -20 24 -20 11 0 19 -5 19 -11 0 -6 -9 -9 -20 -6 -10
3 -24 -1 -31 -9 -20 -24 -36 -16 -57 29 -24 48 -62 148 -62 160 0 4 24 4 53 0
28 -4 89 -8 135 -7z m445 7 c-7 -2 -19 -2 -25 0 -7 3 -2 5 12 5 14 0 19 -2 13
-5z m-885 -25 c-2 -9 12 -14 42 -16 70 -4 81 -15 25 -23 -76 -11 -193 -10
-200 1 -12 19 16 39 58 43 23 2 50 4 60 5 9 1 16 -4 15 -10z m1685 -25 c39 -8
33 -30 -10 -42 -74 -21 -203 -8 -203 20 0 4 26 11 58 15 31 4 66 10 77 15 11
4 27 5 35 3 8 -3 27 -8 43 -11z m-1703 -73 c8 -16 21 -20 60 -20 58 0 68 -17
13 -22 -20 -2 -38 -9 -41 -16 -3 -11 6 -12 42 -7 30 5 46 4 46 -3 0 -6 -20
-14 -45 -18 -52 -7 -60 -23 -12 -25 23 -1 26 -3 10 -6 -28 -5 -31 -23 -4 -23
27 0 34 -38 10 -51 -11 -5 -17 -14 -13 -20 3 -6 -5 -7 -23 -3 -39 9 -43 13
-43 33 0 10 -7 24 -15 31 -8 7 -15 17 -15 22 0 6 -8 22 -19 36 -21 30 -61 100
-61 107 0 3 22 5 50 5 39 0 52 -4 60 -20z m-182 -11 c27 -10 42 -26 42 -43 0
-6 -6 -2 -12 7 -7 9 -33 21 -58 26 -124 29 -129 31 -62 25 35 -3 76 -10 90
-15z m1760 0 c46 -6 97 -9 113 -7 18 3 29 0 29 -7 0 -14 -122 -28 -160 -18
-20 4 -23 3 -13 -7 6 -7 41 -15 77 -17 36 -3 66 -10 66 -16 0 -6 -24 -7 -65
-3 -38 4 -65 3 -65 -3 0 -13 26 -21 66 -21 23 0 33 -4 29 -11 -4 -6 -29 -9
-56 -8 -27 2 -48 -1 -47 -7 6 -39 12 -44 49 -44 22 0 39 -4 39 -10 0 -5 -12
-10 -27 -10 -38 -1 -63 -22 -63 -54 0 -14 -4 -26 -10 -26 -5 0 -10 11 -10 25
0 14 -11 52 -25 85 -14 33 -25 68 -25 78 0 11 -7 39 -15 62 -15 42 -15 42 8
36 12 -3 59 -11 105 -17z m-1938 -13 c0 -10 22 -16 80 -21 81 -7 110 -20 68
-30 -42 -9 -244 -14 -257 -6 -22 14 -8 44 24 53 18 4 31 4 33 -2 6 -16 32 -12
32 5 0 8 5 15 10 15 6 0 10 -6 10 -14z m2451 -55 c41 -33 13 -46 -98 -45 -77
1 -99 4 -108 18 -7 9 -22 16 -34 16 -11 0 -21 5 -21 11 0 7 33 10 100 8 55 -2
103 0 106 4 12 12 31 8 55 -12z m-2155 -43 c20 -40 27 -68 28 -122 1 -46 5
-71 14 -74 21 -7 11 -130 -12 -137 -34 -9 -156 -35 -165 -35 -17 0 -13 66 4
80 8 7 15 20 15 30 0 32 -30 45 -107 46 -53 0 -77 4 -84 15 -17 26 -22 62 -10
80 24 40 6 94 -33 101 -11 1 -19 8 -19 13 0 12 134 7 147 -5 5 -6 4 -15 -4
-24 -10 -13 -9 -17 4 -22 9 -4 30 -4 46 0 17 3 30 1 30 -4 0 -6 -11 -10 -24
-10 -32 0 -56 -10 -56 -22 0 -7 18 -8 50 -4 30 4 50 3 50 -3 0 -5 -19 -11 -42
-13 -50 -3 -54 -23 -5 -24 21 0 32 -5 32 -15 0 -9 -8 -13 -22 -11 -31 4 -29
-12 2 -26 20 -9 27 -9 30 1 2 6 17 56 34 109 28 91 46 127 63 128 4 0 20 -23
34 -52z m475 9 c-17 -17 -13 -55 7 -68 14 -9 17 -25 16 -102 -1 -51 4 -128 12
-172 19 -118 18 -155 -5 -155 -12 0 -18 7 -17 17 1 12 -10 19 -42 24 -58 11
-64 16 -51 41 6 12 20 91 31 177 11 87 24 159 31 164 9 7 9 10 0 14 -19 7 -16
59 4 79 12 12 18 13 21 4 2 -6 -1 -17 -7 -23z m847 -23 c-5 -28 -28 -29 -28
-1 0 13 3 27 7 31 10 10 25 -10 21 -30z m-780 14 c16 -16 15 -23 -2 -41 -14
-14 -12 -37 13 -140 8 -31 6 -39 -9 -47 -17 -9 -30 -4 -30 12 0 4 7 8 15 8 8
0 15 4 15 9 0 5 -7 11 -15 15 -11 4 -15 22 -15 74 0 37 -5 73 -10 78 -13 13
-3 44 14 44 7 0 17 -5 24 -12z m1484 -25 c120 -6 156 -23 47 -23 -33 0 -59 -4
-59 -10 0 -5 24 -10 53 -10 37 0 48 -3 37 -10 -8 -5 -40 -10 -69 -10 -63 0
-59 -16 4 -23 39 -4 39 -4 -9 -5 -39 -2 -47 -5 -42 -18 3 -9 6 -20 6 -25 0 -5
11 -9 24 -9 14 0 28 -4 31 -10 4 -6 -5 -10 -20 -10 -15 0 -24 -4 -20 -10 8
-12 -16 -70 -28 -70 -5 0 -6 14 -2 31 6 25 4 30 -11 27 -19 -3 -24 5 -73 116
-37 82 -38 91 -8 81 12 -4 75 -9 139 -12z m-1083 -103 c7 -51 7 -78 -1 -87
-22 -27 -26 -5 -19 132 3 61 7 52 20 -45z m375 64 c9 -3 16 -16 16 -28 0 -12
7 -48 15 -80 14 -55 14 -59 -2 -72 -21 -16 -43 -18 -43 -4 0 6 9 10 19 10 10
0 22 7 25 16 5 13 1 15 -18 10 -20 -5 -24 -1 -30 25 -7 35 -8 129 -2 129 2 0
11 -3 20 -6z m-44 -64 c0 -81 27 -257 45 -294 19 -37 19 -36 -4 -36 -13 0 -21
8 -23 23 -2 12 -10 22 -18 22 -9 0 -14 8 -12 18 2 9 -2 17 -7 17 -6 0 -8 7 -5
15 5 11 -1 15 -22 15 -28 -1 -28 -1 -9 -17 19 -15 19 -15 -7 -9 -29 7 -36 -2
-17 -21 9 -9 6 -10 -11 -6 -17 4 -21 2 -18 -8 3 -8 30 -19 64 -25 46 -9 51
-12 24 -12 -40 -1 -118 12 -127 22 -4 3 3 23 14 44 42 74 68 182 72 300 1 7
14 12 31 12 l30 0 0 -60z m415 20 c3 -5 1 -10 -4 -10 -6 0 -11 -9 -11 -20 0
-23 -18 -27 -26 -5 -13 32 24 63 41 35z m-1559 -21 c10 -17 -13 -36 -27 -22
-12 12 -4 33 11 33 5 0 12 -5 16 -11z m56 -4 c0 -5 -5 -11 -11 -13 -6 -2 -11
4 -11 13 0 9 5 15 11 13 6 -2 11 -8 11 -13z m2224 1 c33 -25 5 -35 -117 -42
-128 -7 -166 5 -79 26 28 7 53 16 56 21 9 15 118 11 140 -5z m-2333 -26 c3
-13 0 -20 -9 -20 -8 0 -14 10 -14 26 0 28 15 25 23 -6z m1990 13 c-7 -2 -19
-2 -25 0 -7 3 -2 5 12 5 14 0 19 -2 13 -5z m-2448 -13 c4 -6 -6 -10 -22 -9
-25 0 -26 1 -8 9 11 5 21 9 22 9 1 1 5 -3 8 -9z m55 -96 c0 -28 6 -47 20 -59
15 -14 20 -31 20 -71 0 -46 -2 -52 -18 -47 -11 2 -36 -3 -57 -11 -28 -12 -41
-13 -51 -5 -7 6 -18 8 -24 4 -6 -3 -10 3 -10 15 0 12 5 18 10 15 6 -3 20 -3
31 0 19 6 21 12 15 56 -5 37 -3 55 9 71 8 13 15 28 15 35 0 6 5 24 11 40 8 22
12 24 19 13 6 -8 10 -33 10 -56z m1970 9 c0 -32 7 -100 15 -152 9 -52 14 -100
11 -107 -7 -17 -53 -5 -59 16 -3 12 -17 19 -41 22 -39 4 -60 -8 -29 -18 52
-16 58 -23 18 -21 -28 1 -39 -2 -38 -10 2 -7 -6 -13 -17 -13 -28 0 -26 15 25
129 25 56 45 109 45 119 0 9 5 34 11 55 8 30 15 37 34 37 24 0 25 -3 25 -57z
m653 38 c31 -1 57 -5 57 -11 0 -5 9 -10 20 -10 11 0 20 -4 20 -9 0 -12 -37
-21 -92 -21 -26 0 -50 -4 -53 -10 -4 -6 17 -10 55 -10 38 0 59 -4 55 -10 -3
-5 -24 -10 -46 -10 -45 0 -45 -19 -1 -21 27 -1 27 -1 -3 -8 -21 -4 -31 -13
-33 -29 -3 -18 1 -22 25 -22 26 0 28 -3 30 -45 1 -32 -2 -45 -11 -45 -19 0
-29 30 -15 47 7 7 9 17 5 21 -10 9 -46 -40 -38 -53 3 -5 9 -50 14 -100 12
-154 24 -240 36 -262 7 -12 12 -25 12 -29 0 -7 -220 2 -227 10 -2 2 -1 16 3
31 7 27 7 27 70 21 37 -4 64 -3 64 3 0 13 -26 21 -67 21 -40 0 -40 -3 3 100
23 54 28 80 28 157 1 78 4 94 20 106 19 14 18 14 -1 19 -14 4 -29 29 -52 88
-17 45 -31 85 -31 89 0 4 21 4 48 0 26 -4 73 -8 105 -8z m-2726 3 c-3 -3 -12
-4 -19 -1 -8 3 -5 6 6 6 11 1 17 -2 13 -5z m43 2 c0 -3 -4 -8 -10 -11 -5 -3
-10 -1 -10 4 0 6 5 11 10 11 6 0 10 -2 10 -4z m-119 -17 c16 -8 18 -13 9 -24
-9 -11 -6 -16 11 -26 31 -16 59 -51 54 -66 -2 -7 0 -15 5 -18 13 -8 13 -35 0
-35 -6 0 -13 14 -17 30 -9 46 -23 46 -23 1 0 -23 -2 -41 -4 -41 -2 0 -12 -3
-21 -7 -15 -5 -16 -1 -10 35 9 52 -9 56 -25 6 -17 -51 -35 -29 -19 24 9 30 9
48 0 73 -20 58 -8 74 40 48z m689 -31 c25 -97 64 -206 91 -256 l29 -52 -25
-10 c-15 -6 -38 -10 -53 -10 -15 -1 -53 -7 -84 -14 -32 -8 -58 -13 -58 -11 0
1 12 29 27 61 25 55 27 69 27 196 1 123 3 138 18 138 12 0 21 -13 28 -42z
m1514 26 c3 -9 6 -27 6 -41 0 -39 -25 -22 -28 20 -3 37 11 50 22 21z m434 -11
c42 -115 52 -153 46 -182 -7 -33 -9 -33 -71 -10 -20 8 -23 15 -23 68 0 33 5
63 11 66 6 4 8 22 4 46 -5 31 -4 39 8 39 8 0 19 -12 25 -27z m-2538 -21 c0
-12 -3 -13 -12 -4 -7 7 -20 12 -30 12 -10 0 -18 4 -18 8 0 5 14 7 30 4 19 -3
30 -10 30 -20z m236 18 c19 0 18 -29 -1 -36 -11 -4 -13 -13 -9 -28 6 -20 6
-21 -14 -3 -20 18 -34 61 -24 72 3 3 12 3 20 0 7 -3 20 -5 28 -5z m1123 -21
c-19 -12 -29 -11 -29 1 0 6 7 10 15 10 8 0 15 6 16 13 0 8 2 8 6 -2 3 -7 -1
-17 -8 -22z m992 -2 c-8 -8 -11 -7 -11 4 0 20 13 34 18 19 3 -7 -1 -17 -7 -23z
m-2221 5 c0 -10 7 -27 15 -38 15 -18 16 -17 9 15 -7 40 10 35 20 -5 4 -15 14
-33 21 -41 9 -8 15 -33 15 -59 0 -52 38 -215 66 -281 4 -9 -13 -10 -65 -6 -60
5 -74 3 -91 -12 -10 -9 -26 -15 -35 -12 -13 6 -12 11 4 39 11 18 27 75 36 126
14 78 20 92 36 92 10 0 19 5 19 10 0 6 -8 10 -17 8 -11 -2 -18 3 -18 12 0 9 7
14 19 12 15 -3 18 1 13 17 -3 12 -1 21 4 21 5 0 9 5 9 10 0 6 -8 10 -18 10
-29 0 -75 54 -67 79 8 26 25 28 25 3z m834 -7 c-21 -16 -34 -19 -34 -7 0 8 42
30 49 25 3 -2 -4 -10 -15 -18z m1504 13 c8 -8 9 -15 1 -25 -18 -21 -39 -15
-39 12 0 27 18 33 38 13z m-1334 -55 c-33 -90 -52 -95 -83 -24 -11 27 -21 54
-21 60 0 8 106 21 119 14 2 -1 -5 -23 -15 -50z m636 29 c0 -11 -37 -32 -44
-25 -3 3 2 12 12 19 19 15 32 18 32 6z m-1256 -8 c20 -8 11 -24 -15 -24 -10 0
-19 7 -19 15 0 16 9 19 34 9z m476 -1 c0 -10 -32 -43 -42 -43 -14 0 -9 22 10
36 19 15 32 18 32 7z m1387 -88 c-5 -68 -38 -219 -52 -233 -5 -6 -75 21 -75
28 0 3 11 21 25 40 17 23 25 28 25 17 0 -9 7 -17 15 -17 17 0 21 40 5 56 -7 7
-4 29 10 69 11 32 20 68 20 80 0 19 17 45 28 45 3 0 2 -38 -1 -85z m446 -52
c-3 -76 -7 -139 -8 -141 -1 -1 -14 2 -29 7 -32 13 -33 33 -7 146 16 74 35 125
46 125 2 0 1 -62 -2 -137z m-1479 106 c-3 -5 -10 -7 -15 -3 -5 3 -7 10 -3 15
3 5 10 7 15 3 5 -3 7 -10 3 -15z m435 -10 c-25 -19 -49 -25 -49 -11 0 12 53
41 64 35 5 -3 -2 -14 -15 -24z m-404 -9 c-16 -16 -33 -30 -38 -30 -5 0 4 14
20 30 15 17 32 30 37 30 6 0 -3 -13 -19 -30z m1079 18 c3 -7 7 -34 10 -59 5
-43 4 -47 -14 -42 -29 8 -24 -12 8 -36 26 -20 26 -20 5 -21 -13 0 -23 -4 -23
-10 0 -5 9 -10 19 -10 10 0 21 -6 24 -13 3 -9 -6 -11 -36 -8 -27 2 -38 0 -33
-8 4 -6 22 -11 39 -12 l32 -1 -38 -12 c-47 -15 -39 -26 14 -19 25 4 39 2 39
-5 0 -6 -23 -14 -50 -18 -74 -10 -75 -27 -2 -23 74 5 92 -7 25 -16 -26 -3 -54
-7 -62 -8 -8 -1 -16 -7 -18 -14 -3 -9 13 -11 64 -8 60 4 63 3 23 -5 -25 -5
-62 -9 -83 -9 -32 -1 -38 2 -34 17 9 32 26 116 42 207 9 50 18 102 21 118 6
28 22 36 28 15z m-1444 -13 c0 -17 -46 -42 -56 -32 -7 7 35 46 49 47 4 0 7 -7
7 -15z m-490 -5 c0 -5 -9 -10 -20 -10 -11 0 -20 5 -20 10 0 6 9 10 20 10 11 0
20 -4 20 -10z m1293 -7 c8 -7 -47 -43 -66 -43 -6 1 2 12 18 25 32 27 38 29 48
18z m317 -7 c0 -15 -24 -28 -34 -19 -7 7 13 33 25 33 5 0 9 -6 9 -14z m-1701
-51 c-6 -22 -25 -68 -41 -103 -25 -53 -33 -62 -43 -50 -14 13 -65 130 -65 147
0 10 144 52 157 46 1 -1 -2 -19 -8 -40z m94 28 c-7 -2 -21 -2 -30 0 -10 3 -4
5 12 5 17 0 24 -2 18 -5z m502 -1 c-6 -5 -23 -14 -40 -20 l-30 -13 25 21 c23
18 66 30 45 12z m405 -7 c-7 -9 -27 -25 -44 -36 -25 -17 -24 -14 8 15 41 38
58 47 36 21z m390 -15 c-27 -20 -60 -32 -60 -21 0 10 53 40 70 41 10 0 6 -7
-10 -20z m318 -2 c-3 -7 -13 -15 -24 -17 -16 -3 -17 -1 -5 13 16 19 34 21 29
4z m-1618 -8 c0 -5 -13 -10 -30 -10 -16 0 -30 5 -30 10 0 6 14 10 30 10 17 0
30 -4 30 -10z m495 -15 c-31 -25 -62 -34 -49 -14 5 9 60 38 74 39 3 0 -8 -11
-25 -25z m-755 1 c0 -3 -4 -8 -10 -11 -5 -3 -10 -1 -10 4 0 6 5 11 10 11 6 0
10 -2 10 -4z m1575 -6 c-3 -5 -12 -10 -18 -10 -7 0 -6 4 3 10 19 12 23 12 15
0z m311 -16 c-30 -21 -44 -16 -17 7 13 11 27 17 30 13 3 -3 -3 -12 -13 -20z
m-1630 -18 c-3 -11 -6 -24 -6 -28 0 -4 -16 -4 -35 -1 -23 4 -35 2 -35 -6 0
-10 29 -16 53 -12 5 1 7 -4 4 -11 -2 -7 -10 -12 -17 -10 -8 2 -10 -5 -6 -21 9
-37 -14 -51 -53 -31 -28 14 -44 44 -22 44 5 0 18 24 30 53 21 52 23 53 57 49
31 -4 35 -7 30 -26z m-427 -118 c-12 -37 -24 -68 -28 -68 -15 0 -56 133 -47
155 3 8 21 17 41 21 19 3 39 11 43 18 17 27 12 -63 -9 -126z m2438 116 c9 -8
24 -13 34 -11 11 3 21 2 24 -3 4 -7 -22 -151 -30 -158 -2 -2 -15 33 -29 78
-34 108 -34 130 1 94z m-1662 -4 c18 -8 18 -9 -5 -9 -14 0 -34 4 -45 9 -18 8
-18 9 5 9 14 0 34 -4 45 -9z m1315 3 c-1 -13 -51 -46 -58 -38 -4 3 4 15 18 25
26 21 40 25 40 13z m-1895 -33 c3 -6 -1 -13 -10 -16 -19 -8 -30 0 -20 15 8 14
22 14 30 1z m2442 -57 c-3 -10 -5 -2 -5 17 0 19 2 27 5 18 2 -10 2 -26 0 -35z
m-700 21 c-3 -3 -12 -4 -19 -1 -8 3 -5 6 6 6 11 1 17 -2 13 -5z m78 -14 c7
-12 -12 -12 -40 0 -18 8 -17 9 7 9 15 1 30 -3 33 -9z m-2117 -12 c-6 -18 -28
-21 -28 -4 0 9 7 16 16 16 9 0 14 -5 12 -12z m308 -13 c-21 -16 -32 -13 -21 4
3 6 14 11 23 11 15 -1 15 -2 -2 -15z m44 -31 c0 -8 -7 -14 -15 -14 -8 0 -15
-5 -15 -11 0 -6 12 -9 27 -7 38 4 43 -25 6 -38 -26 -9 -29 -7 -46 30 -9 21
-16 39 -15 40 2 1 12 6 23 12 23 13 35 9 35 -12z m-360 6 c0 -5 -4 -10 -10
-10 -5 0 -10 5 -10 10 0 6 5 10 10 10 6 0 10 -4 10 -10z m2292 -20 c14 -10 29
-16 33 -12 4 4 6 -2 4 -12 -6 -30 -22 -27 -52 10 -32 37 -24 45 15 14z m534
-5 c11 -10 14 -31 12 -67 l-3 -53 -17 50 c-9 28 -19 58 -23 68 -9 21 11 23 31
2z m-2804 -17 c-6 -6 -15 -8 -19 -4 -4 4 -1 11 7 16 19 12 27 3 12 -12z m28
-32 c0 -21 -20 -30 -33 -17 -9 9 -8 14 3 21 21 14 30 12 30 -4z m1868 -50 c2
-39 -2 -67 -8 -71 -7 -5 -11 0 -10 11 4 31 1 44 -10 44 -5 0 -10 -6 -10 -12 0
-7 -11 -26 -24 -43 -24 -29 -25 -29 -43 -12 -17 17 -17 19 14 43 18 14 42 43
54 64 13 22 25 40 29 40 3 0 7 -29 8 -64z m87 45 c3 -5 1 -12 -4 -15 -17 -11
-20 -66 -5 -109 l15 -44 47 3 c35 3 42 2 27 -5 -11 -5 -30 -10 -42 -10 -20 -1
-23 -6 -23 -41 0 -23 5 -40 11 -40 8 0 8 -5 -1 -15 -22 -27 -5 -47 35 -39 28
5 35 3 35 -9 0 -9 -7 -13 -17 -11 -10 3 -26 -1 -36 -8 -14 -11 -15 -19 -8 -45
5 -18 7 -41 4 -53 -5 -17 -1 -20 26 -20 19 0 31 -5 31 -14 0 -9 -8 -12 -26 -8
-21 4 -25 1 -22 -14 2 -13 12 -19 28 -19 23 0 25 -5 31 -60 5 -50 0 -271 -14
-725 -4 -131 14 -504 25 -527 6 -13 17 -23 24 -23 11 0 12 20 8 93 -3 50 -9
160 -13 242 -4 83 -5 229 0 325 9 217 11 519 4 795 -6 225 4 248 31 73 16
-106 60 -188 100 -188 14 0 22 -4 19 -10 -3 -5 -22 -10 -42 -10 -30 0 -35 -3
-30 -20 3 -11 1 -20 -5 -20 -6 0 -8 -11 -4 -24 3 -14 1 -28 -4 -31 -21 -13 2
-25 48 -25 38 -1 44 -3 29 -11 -11 -6 -32 -8 -48 -5 -24 5 -29 2 -29 -14 0
-16 7 -20 30 -20 17 0 30 -5 30 -10 0 -6 -12 -9 -26 -8 -25 3 -27 0 -27 -37 0
-34 3 -40 27 -46 15 -4 35 -5 43 -2 11 4 14 2 9 -5 -4 -7 -25 -12 -46 -12 -35
0 -40 -3 -40 -22 0 -45 -3 -63 -13 -69 -23 -16 3 -39 43 -39 22 0 40 -4 40
-10 0 -5 -20 -10 -44 -10 l-45 0 2 -37 c3 -37 4 -38 45 -41 23 -2 42 -8 42
-13 0 -6 -15 -9 -33 -8 -40 4 -64 -8 -47 -25 6 -6 16 -11 23 -12 7 0 22 -2 35
-2 41 -3 22 -21 -25 -24 -36 -2 -49 -7 -51 -20 -3 -15 4 -18 47 -18 44 0 51
-3 51 -19 0 -16 -8 -20 -42 -23 -42 -3 -43 -4 -43 -38 0 -33 2 -35 40 -41 l40
-6 -38 -2 c-30 -1 -38 -5 -35 -18 2 -9 14 -20 27 -23 31 -7 38 -26 11 -33 -26
-7 -26 -27 0 -34 32 -9 23 -25 -12 -21 -25 2 -34 -1 -36 -14 -3 -15 4 -18 38
-18 25 0 39 -4 35 -10 -3 -6 -24 -10 -46 -10 -28 0 -39 -4 -39 -15 0 -11 11
-15 43 -15 31 0 38 -3 27 -10 -8 -5 -30 -10 -47 -10 -23 0 -33 -5 -33 -16 0
-13 9 -15 48 -12 37 2 47 0 47 -12 0 -10 -14 -17 -45 -20 -54 -6 -52 -26 3
-23 31 1 37 -2 37 -18 0 -16 -7 -19 -40 -19 -29 0 -40 -4 -40 -15 0 -11 11
-15 41 -15 25 0 38 -4 34 -10 -4 -6 -21 -8 -42 -4 -31 6 -35 4 -31 -12 2 -14
15 -21 43 -25 l40 -6 -42 -2 c-30 -1 -43 -5 -43 -15 0 -18 33 -30 60 -21 11 4
20 2 20 -4 0 -6 -18 -11 -40 -11 -29 0 -40 -4 -40 -15 0 -11 11 -15 40 -15 53
0 51 -18 -2 -22 -30 -2 -43 -8 -43 -18 0 -11 11 -15 39 -15 22 0 41 -5 43 -12
3 -9 -8 -13 -36 -13 -30 0 -41 -4 -41 -15 0 -11 11 -15 40 -15 22 0 40 -4 40
-10 0 -5 -18 -10 -40 -10 -29 0 -40 -4 -40 -15 0 -11 11 -15 40 -15 22 0 40
-4 40 -10 0 -5 -18 -10 -40 -10 -29 0 -40 -4 -40 -15 0 -10 10 -15 31 -15 19
0 28 -4 23 -11 -3 -6 -19 -9 -35 -5 -24 5 -29 2 -29 -14 0 -11 -6 -20 -12 -20
-9 0 -13 23 -14 79 -1 66 -5 82 -22 102 -12 12 -37 55 -57 94 -32 66 -36 71
-67 70 -23 0 -34 -5 -36 -17 -3 -15 4 -18 32 -18 32 0 36 -3 36 -25 0 -23 -10
-30 -33 -26 -5 1 -7 -6 -5 -16 2 -12 13 -18 32 -18 25 -1 32 -7 47 -43 15 -34
16 -42 4 -42 -8 0 -17 5 -20 10 -3 6 -17 10 -31 10 -22 0 -24 -4 -25 -47 -1
-46 -2 -44 -15 27 -14 78 -31 164 -41 214 -8 38 -125 152 -228 221 -16 11 -17
15 -6 29 17 20 45 21 65 1 20 -21 43 -19 111 9 44 17 69 36 97 71 21 26 38 55
38 65 0 10 5 20 10 22 6 2 15 28 22 59 14 66 0 131 -36 170 -12 13 -30 40 -40
59 -10 19 -26 50 -36 67 -20 37 -16 81 8 79 29 -2 32 57 19 320 -15 281 -12
531 5 551 12 15 25 17 33 4z m-1767 -18 c-16 -2 -40 -2 -55 0 -16 2 -3 4 27 4
30 0 43 -2 28 -4z m-177 -26 c-13 -13 -26 -3 -16 12 3 6 11 8 17 5 6 -4 6 -10
-1 -17z m462 -14 c3 -18 0 -31 -11 -39 -14 -10 -17 -32 -17 -128 0 -64 -3
-116 -8 -116 -12 0 -7 282 6 298 15 19 24 14 30 -15z m-267 5 c25 -9 39 -9 59
0 14 6 25 8 25 4 0 -9 -75 -52 -90 -52 -6 0 -30 -9 -52 -20 -23 -11 -47 -20
-53 -20 -6 0 -20 -8 -31 -18 -37 -34 -80 -61 -110 -68 -16 -4 -48 -20 -72 -35
-24 -16 -45 -29 -48 -29 -2 0 -4 32 -4 70 l0 70 33 0 c17 -1 52 -5 77 -10 38
-7 48 -6 66 11 12 11 38 23 58 26 42 7 66 44 45 69 -9 12 -5 14 27 14 20 0 52
-5 70 -12z m-168 -34 c-9 -9 -21 -13 -27 -10 -20 13 -11 26 16 26 25 0 26 -1
11 -16z m312 2 c0 -2 4 -26 10 -55 5 -28 12 -120 15 -204 2 -83 7 -228 10
-322 3 -93 8 -381 11 -639 3 -305 8 -474 15 -482 8 -9 0 -26 -27 -63 -21 -28
-38 -49 -39 -48 0 1 2 218 5 482 5 500 -4 1147 -17 1167 -13 22 -9 168 5 168
6 0 12 -2 12 -4z m1787 -93 c15 -37 31 -63 40 -63 11 0 13 7 8 30 l-7 30 47 0
c41 0 46 -2 35 -15 -7 -8 -20 -15 -30 -15 -18 0 -34 -23 -23 -34 4 -3 15 -6
25 -6 10 0 18 -5 18 -11 0 -6 -9 -9 -20 -6 -19 5 -48 -18 -37 -30 4 -3 2 -12
-3 -18 -7 -9 -7 -27 -1 -54 5 -23 5 -43 1 -46 -14 -8 -20 10 -29 80 -4 37 -12
70 -18 73 -6 4 -14 26 -18 50 -4 26 -12 42 -21 42 -9 0 -14 11 -14 33 0 35 12
58 18 35 2 -7 15 -41 29 -75z m-1837 51 c0 -16 -16 -19 -25 -4 -8 13 4 32 16
25 5 -4 9 -13 9 -21z m738 -1 c-2 -22 1 -28 15 -27 10 1 17 -5 17 -17 0 -10
-5 -19 -11 -19 -6 0 -24 -9 -41 -21 -36 -26 -43 -21 -24 17 8 16 21 44 28 62
16 39 20 40 16 5z m1307 -41 c0 -22 4 -26 22 -24 12 2 24 -2 28 -8 4 -6 -10
-10 -39 -10 -39 0 -46 -3 -46 -20 0 -11 4 -20 10 -20 5 0 7 -7 3 -15 -11 -30
26 -55 79 -55 31 0 47 -4 43 -10 -4 -6 -21 -8 -41 -4 -30 5 -34 4 -34 -15 0
-18 6 -21 46 -21 32 0 44 -4 41 -12 -2 -7 -13 -12 -25 -10 -30 4 -36 -14 -17
-54 12 -25 22 -34 40 -34 14 0 25 -5 25 -11 0 -6 -17 -9 -42 -7 -34 2 -42 0
-39 -12 14 -55 13 -60 -8 -60 -32 0 -26 -30 7 -31 l27 -2 -27 -4 c-34 -5 -39
-35 -5 -33 12 1 31 2 42 1 18 -1 18 -2 -4 -17 -14 -10 -33 -14 -52 -10 -21 4
-29 2 -29 -8 0 -16 21 -26 56 -26 13 0 24 -4 24 -9 0 -5 12 -14 28 -20 25 -11
25 -11 -8 -5 -54 10 -89 10 -92 -1 -2 -5 18 -11 45 -13 26 -2 47 -7 47 -13 0
-5 7 -9 15 -9 8 0 15 -6 15 -12 0 -9 -19 -13 -60 -13 -73 0 -85 -19 -15 -24
l50 -3 -34 -12 c-24 -9 -38 -21 -44 -42 -6 -16 -16 -33 -23 -37 -15 -9 -16
-55 -1 -74 6 -9 5 -18 -3 -28 -15 -18 -5 -23 60 -28 l45 -4 -52 -1 c-40 -2
-53 -6 -53 -17 0 -11 12 -15 45 -15 25 0 45 -4 45 -10 0 -5 -20 -10 -45 -10
-25 0 -45 -4 -45 -10 0 -9 17 -15 70 -23 14 -3 7 -5 -17 -6 -42 -1 -43 -2 -43
-36 0 -26 4 -35 18 -36 13 0 11 -3 -6 -10 -32 -12 -18 -29 24 -29 44 0 37 -15
-11 -24 -19 -4 -35 -11 -35 -16 0 -5 -10 -10 -22 -12 -12 -2 -23 -9 -26 -15
-4 -13 47 -19 106 -14 12 1 22 -3 22 -10 0 -8 -14 -10 -44 -7 -24 3 -50 2 -56
-2 -22 -14 1 -31 37 -28 22 2 38 -2 40 -10 3 -7 -3 -11 -14 -10 -45 4 -73 -3
-73 -17 0 -10 11 -15 35 -15 26 0 35 -4 35 -16 0 -13 -7 -15 -36 -10 -22 5
-41 3 -50 -5 -21 -17 -7 -29 36 -29 21 0 42 -5 45 -10 4 -6 -13 -10 -44 -10
-67 0 -71 -25 -6 -35 25 -3 43 -11 40 -16 -4 -5 -17 -6 -31 -3 -28 7 -63 -14
-43 -27 7 -4 39 -11 71 -14 40 -5 58 -11 58 -21 0 -16 -36 -19 -45 -4 -3 6
-24 10 -46 10 -33 0 -40 -3 -37 -17 2 -11 12 -18 25 -18 12 0 25 -3 29 -7 4
-5 -4 -8 -17 -8 -14 0 -30 -5 -37 -12 -9 -9 -5 -15 21 -26 17 -8 48 -18 67
-22 34 -8 34 -8 -12 -9 -42 -1 -77 -20 -51 -28 6 -2 18 -10 28 -17 16 -11 14
-12 -14 -8 -28 4 -32 2 -29 -14 2 -15 14 -20 53 -24 58 -6 39 -20 -26 -20 -27
0 -39 -4 -39 -14 0 -19 19 -25 74 -21 l47 3 -3 -32 c-2 -17 -7 -29 -13 -26 -5
3 -8 12 -7 21 2 13 -7 18 -43 21 -26 2 -51 0 -57 -3 -18 -11 2 -29 33 -29 16
0 29 -5 29 -11 0 -8 -12 -10 -35 -6 -27 4 -35 2 -35 -10 0 -8 9 -17 20 -20 11
-3 20 -11 20 -18 0 -8 10 -16 23 -18 12 -2 -3 -4 -33 -3 l-55 1 0 -35 c0 -31
3 -35 29 -40 50 -9 42 -28 -10 -26 l-47 1 6 240 c12 510 19 740 22 745 2 3 6
53 10 110 3 58 8 123 10 145 3 22 5 180 6 350 2 283 3 314 21 353 21 46 33 48
33 4z m-815 -7 c0 -8 -4 -15 -9 -15 -5 0 -11 7 -15 15 -3 9 0 15 9 15 8 0 15
-7 15 -15z m225 5 c3 -6 -1 -7 -9 -4 -18 7 -21 14 -7 14 6 0 13 -4 16 -10z
m1039 -188 c-1 -2 -31 20 -66 48 -34 28 -80 61 -100 73 -21 12 -38 25 -38 29
0 4 38 4 84 1 81 -6 84 -5 97 18 13 22 14 15 19 -71 3 -52 5 -96 4 -98z
m-1001 137 c-10 -19 -19 -36 -21 -38 -1 -3 -7 0 -12 5 -6 6 0 21 18 40 34 39
38 37 15 -7z m739 21 c21 0 28 -5 28 -20 0 -13 9 -22 25 -26 13 -3 30 -13 37
-22 11 -14 10 -15 -12 -8 -14 4 -35 10 -47 13 -14 3 -23 13 -23 24 0 11 -6 19
-14 19 -15 0 -14 -33 5 -165 5 -38 7 -92 4 -118 -6 -46 -5 -48 17 -45 14 2 24
11 26 24 2 16 8 20 28 16 25 -4 34 12 12 21 -7 3 -3 6 9 6 12 1 26 9 32 19 9
16 10 16 16 0 6 -14 -17 -71 -35 -88 -3 -3 -22 -30 -42 -60 -20 -30 -46 -62
-57 -70 -13 -9 -21 -25 -21 -43 0 -26 -2 -28 -16 -16 -11 9 -14 23 -11 46 3
18 1 36 -5 39 -7 4 -5 10 6 16 20 11 12 28 -15 28 -22 0 -23 4 -8 32 10 19 12
19 39 -13 21 -25 31 -31 40 -23 8 8 1 21 -25 49 -36 40 -43 55 -24 55 7 0 9
13 5 38 -4 20 -8 55 -11 77 -12 110 -18 137 -31 142 -8 3 -14 13 -14 23 0 10
-6 21 -12 23 -7 3 -3 6 9 6 12 1 25 6 29 12 4 8 9 8 17 0 6 -6 24 -11 39 -11z
m-2232 0 c0 -5 -7 -10 -15 -10 -8 0 -15 5 -15 10 0 6 7 10 15 10 8 0 15 -4 15
-10z m1030 0 c0 -5 -12 -10 -27 -10 -22 0 -25 2 -13 10 20 13 40 13 40 0z
m529 -42 c1 -5 -8 -8 -19 -8 -23 0 -24 4 -8 33 11 21 11 21 19 2 4 -11 8 -23
8 -27z m-1739 17 c18 6 21 3 18 -12 -2 -11 -13 -19 -31 -21 -16 -2 -26 -8 -24
-15 2 -7 12 -11 22 -9 13 3 16 -1 11 -13 -3 -9 -6 -20 -6 -25 0 -4 -9 -6 -20
-3 -20 5 -28 -11 -10 -22 5 -3 9 -20 7 -38 -1 -23 3 -32 16 -35 10 -2 17 3 17
11 0 8 11 39 25 68 24 50 25 51 21 19 -8 -64 -37 -150 -61 -178 -17 -20 -21
-32 -14 -43 14 -20 72 47 88 103 8 24 20 63 27 87 8 25 14 53 14 63 0 10 4 18
9 18 11 0 18 -142 19 -400 0 -142 -3 -200 -8 -170 -5 25 -9 111 -11 193 -1 81
-5 150 -9 152 -4 3 -13 -2 -19 -9 -9 -11 -10 -44 -4 -123 9 -119 8 -612 -1
-738 -4 -44 -9 -249 -12 -455 -3 -206 -7 -384 -9 -396 -7 -33 -37 -60 -75 -67
-19 -3 -43 -9 -54 -13 -14 -5 -17 -3 -14 12 2 13 16 22 46 28 55 12 60 40 5
30 -21 -3 -42 -7 -47 -8 -5 0 -10 4 -13 10 -2 7 16 14 47 18 68 9 64 32 -5 28
-36 -3 -46 -1 -43 10 3 7 21 14 42 16 53 5 41 28 -13 24 -22 -1 -41 2 -41 7 0
6 24 11 53 13 68 4 67 21 -3 29 -55 6 -54 8 10 15 44 5 63 23 32 30 -12 4 -22
10 -22 15 0 5 -10 10 -22 11 -13 0 -3 4 22 7 25 3 44 9 43 14 -2 4 -3 38 -3
77 l0 69 -50 -6 c-33 -4 -50 -2 -50 5 0 6 21 12 48 14 34 2 47 7 47 18 0 12
-10 14 -47 12 -39 -3 -48 -1 -48 12 0 13 11 16 50 16 38 0 50 4 50 15 0 11
-12 15 -50 15 -60 0 -66 15 -9 23 48 6 45 5 54 40 7 27 7 27 -44 27 -28 0 -51
4 -51 10 0 13 39 22 75 18 21 -2 30 2 33 15 3 15 -5 17 -53 17 -48 0 -56 3
-53 18 2 12 16 18 52 22 50 5 72 24 39 33 -14 4 -13 5 5 6 31 1 28 27 -8 75
-30 39 -31 56 -4 56 8 0 14 9 14 21 0 17 -4 20 -28 15 -34 -8 -68 14 -59 38 4
9 11 16 16 16 6 0 8 -7 5 -15 -6 -16 37 -32 55 -20 21 12 11 35 -14 35 -23 0
-24 2 -15 20 6 11 17 20 25 20 9 0 15 9 15 21 0 18 -4 20 -25 15 -18 -5 -25
-2 -25 8 0 8 10 16 22 18 16 2 24 12 29 36 4 21 3 32 -5 33 -7 0 -6 2 1 6 7 2
13 13 13 24 0 15 -8 19 -37 20 l-38 2 40 6 c28 4 41 12 43 25 3 16 -2 18 -47
15 -31 -3 -50 0 -48 6 2 6 23 11 48 13 62 4 74 9 60 26 -9 11 -7 22 8 50 16
27 19 47 15 78 -3 24 -7 54 -8 68 -1 14 -7 35 -14 47 -7 12 -11 32 -9 45 2 22
0 23 -58 20 -44 -2 -56 0 -45 7 8 6 25 11 38 11 27 0 27 7 1 89 -12 36 -23 72
-25 78 -2 7 -10 10 -18 7 -11 -4 -13 0 -9 15 3 12 10 18 20 14 13 -5 14 5 8
74 -8 92 8 171 31 152 7 -6 23 -8 34 -4z m427 -22 c-3 -10 -5 -4 -5 12 0 17 2
24 5 18 2 -7 2 -21 0 -30z m-37 -55 c0 -54 -25 -25 -28 33 -3 54 -2 54 13 25
8 -15 15 -42 15 -58z m984 67 c-4 -8 -11 -15 -16 -15 -6 0 -5 6 2 15 7 8 14
15 16 15 2 0 1 -7 -2 -15z m-1289 -15 c-3 -5 -11 -10 -16 -10 -6 0 -7 5 -4 10
3 6 11 10 16 10 6 0 7 -4 4 -10z m1319 -41 c15 -29 15 -33 -2 -45 -14 -10 -20
-10 -34 3 -10 9 -18 20 -18 25 0 6 29 43 37 47 1 1 9 -13 17 -30z m526 27 c0
-9 -40 -13 -46 -5 -3 5 6 9 20 9 14 0 26 -2 26 -4z m-240 -36 c-18 -11 -24 -6
-16 16 5 14 9 15 19 5 9 -9 9 -14 -3 -21z m-525 11 c7 -12 -12 -24 -25 -16
-11 7 -4 25 10 25 5 0 11 -4 15 -9z m277 -43 c-8 -8 -9 -4 -5 13 4 13 8 18 11
10 2 -7 -1 -18 -6 -23z m-1582 12 c0 -5 -12 -10 -27 -10 -22 0 -25 2 -13 10
20 13 40 13 40 0z m1134 -11 c-3 -5 -10 -7 -15 -3 -5 3 -7 10 -3 15 3 5 10 7
15 3 5 -3 7 -10 3 -15z m1539 2 c16 -6 33 -8 38 -5 11 6 39 -13 39 -27 0 -13
-27 -11 -92 7 -35 10 -58 22 -58 31 0 15 25 13 73 -6z m-2789 -14 c7 -7 16
-32 20 -57 4 -24 12 -50 19 -58 9 -12 6 -19 -18 -38 -27 -21 -28 -25 -17 -61
16 -56 25 -500 12 -661 -6 -75 -13 -176 -16 -224 -4 -66 -9 -88 -20 -88 -17 0
-18 12 -2 28 8 8 8 15 -2 27 -11 14 -11 18 -1 25 8 4 10 13 6 20 -4 7 -7 96
-6 199 3 256 5 304 14 318 4 7 1 16 -9 21 -14 8 -14 12 -3 30 10 16 11 24 2
33 -7 7 -8 21 -3 39 4 15 4 47 -1 71 -4 24 -8 122 -9 217 0 172 4 190 34 159z
m1521 3 c3 -5 1 -10 -4 -10 -6 0 -11 5 -11 10 0 6 2 10 4 10 3 0 8 -4 11 -10z
m55 -6 c0 -8 -4 -12 -10 -9 -5 3 -10 10 -10 16 0 5 5 9 10 9 6 0 10 -7 10 -16z
m417 -1 c-4 -3 -36 -9 -69 -12 -5 -1 -8 -8 -8 -16 0 -11 11 -15 41 -15 24 0
38 -4 34 -10 -3 -5 -23 -10 -44 -10 -31 0 -40 4 -44 21 -9 32 18 56 59 51 19
-2 33 -6 31 -9z m-1541 -14 c10 -17 -13 -36 -27 -22 -12 12 -4 33 11 33 5 0
12 -5 16 -11z m204 -19 c0 -5 -21 -10 -46 -10 -27 0 -43 4 -39 10 3 6 24 10
46 10 21 0 39 -4 39 -10z m1530 0 c0 -5 -2 -10 -4 -10 -3 0 -8 5 -11 10 -3 6
-1 10 4 10 6 0 11 -4 11 -10z m547 -14 c-6 -17 -31 -13 -35 6 -2 12 2 15 18
11 11 -3 19 -11 17 -17z m-1232 -17 c16 -16 20 -33 21 -89 1 -39 4 -73 8 -77
24 -24 -25 -83 -68 -83 -12 0 -27 -5 -33 -11 -7 -7 -19 -8 -30 -4 -10 5 -31 9
-47 10 -17 2 -41 16 -61 36 l-32 34 8 89 c5 49 13 94 18 99 31 31 183 28 216
-4z m-1388 5 c-3 -3 -12 -4 -19 -1 -8 3 -5 6 6 6 11 1 17 -2 13 -5z m2276 -1
c-7 -2 -21 -2 -30 0 -10 3 -4 5 12 5 17 0 24 -2 18 -5z m444 1 c-3 -3 -12 -4
-19 -1 -8 3 -5 6 6 6 11 1 17 -2 13 -5z m-2177 -31 c0 -18 -4 -18 -77 -14 -7
1 -13 5 -13 10 0 6 19 12 43 14 23 2 43 4 45 5 1 1 2 -6 2 -15z m1090 7 c0 -5
-5 -10 -11 -10 -5 0 -7 5 -4 10 3 6 8 10 11 10 2 0 4 -4 4 -10z m47 -22 c-3
-7 -5 -2 -5 12 0 14 2 19 5 13 2 -7 2 -19 0 -25z m-1337 12 c0 -5 -6 -10 -14
-10 -8 0 -18 5 -21 10 -3 6 3 10 14 10 12 0 21 -4 21 -10z m-340 -10 c0 -5 -4
-10 -10 -10 -5 0 -10 5 -10 10 0 6 5 10 10 10 6 0 10 -4 10 -10z m2278 -7 c2
-8 -6 -13 -22 -13 -24 0 -41 12 -30 22 9 10 47 3 52 -9z m-728 -49 c0 -24 -4
-34 -12 -32 -24 8 -22 68 2 68 5 0 10 -16 10 -36z m-1551 -79 c0 -52 2 -99 5
-104 3 -5 -3 -11 -14 -14 -19 -5 -20 -14 -21 -134 -1 -70 -4 -139 -8 -153 -16
-55 -22 54 -15 275 6 193 9 225 23 228 9 2 19 2 23 0 4 -2 7 -46 7 -98z m334
98 c-7 -2 -19 -2 -25 0 -7 3 -2 5 12 5 14 0 19 -2 13 -5z m213 -426 c-1 -27
-4 -29 -53 -33 -63 -5 -71 11 -11 23 52 10 63 33 16 33 -19 0 -40 -6 -47 -12
-10 -11 -12 -9 -9 7 2 15 12 21 41 23 29 3 37 7 37 23 0 17 -5 18 -40 13 -27
-4 -40 -3 -40 5 0 10 8 12 65 15 11 1 20 8 20 16 0 11 -10 15 -37 14 -40 -1
-54 15 -15 17 47 3 52 4 52 19 0 12 -10 14 -42 12 -33 -3 -43 0 -43 12 0 10
15 18 43 23 26 6 42 14 42 23 0 12 -11 14 -47 12 -30 -2 -48 0 -48 7 0 6 20
11 46 11 38 0 45 3 42 18 -3 13 -13 17 -46 15 -23 -1 -42 2 -42 8 0 10 20 13
63 10 22 -2 27 2 27 19 0 19 -5 21 -40 19 -22 -2 -41 1 -42 6 -2 6 16 11 39
13 25 2 43 9 47 18 7 17 -16 28 -44 21 -11 -3 -20 -1 -20 3 0 5 17 10 38 12
l37 3 6 -200 c3 -110 5 -213 5 -228z m1246 382 c1 -27 -1 -54 -6 -59 -13 -13
1 -39 28 -50 23 -8 23 -11 12 -45 -15 -43 0 -106 24 -102 11 1 16 -9 18 -40 4
-55 -10 -55 -43 1 -31 52 -121 140 -156 151 -13 4 -36 16 -51 26 -14 11 -33
19 -42 19 -12 0 -14 7 -9 33 7 41 19 55 35 39 7 -7 20 -12 29 -12 10 0 19 -6
22 -12 3 -10 9 -10 23 -2 14 8 24 8 36 1 25 -16 48 9 48 53 0 36 6 50 21 50 4
0 9 -23 11 -51z m1028 26 c0 -8 -4 -15 -10 -15 -5 0 -10 7 -10 15 0 8 5 15 10
15 6 0 10 -7 10 -15z m-2773 -17 c-3 -8 -6 -5 -6 6 -1 11 2 17 5 13 3 -3 4
-12 1 -19z m2683 5 c0 -14 -19 -38 -25 -32 -8 8 5 39 16 39 5 0 9 -3 9 -7z
m-2405 -53 c-3 -5 -14 -10 -23 -10 -15 0 -15 2 -2 10 20 13 33 13 25 0z m1945
6 c0 -7 -40 -14 -44 -7 -3 4 6 8 20 9 13 1 24 0 24 -2z m550 -31 c0 -19 -4
-35 -10 -35 -5 0 -10 16 -10 35 0 19 5 35 10 35 6 0 10 -16 10 -35z m-126 6
c3 -5 -1 -15 -10 -22 -14 -11 -13 -15 8 -31 l23 -18 -41 0 c-38 0 -42 -2 -48
-31 -8 -39 -1 -49 31 -49 23 0 25 -3 19 -32 -3 -18 -13 -36 -21 -40 -8 -5 -12
-15 -9 -22 3 -8 1 -17 -5 -21 -25 -15 -8 -25 41 -25 60 0 55 -17 -7 -22 -28
-2 -41 -8 -43 -20 -3 -15 4 -18 43 -18 31 0 44 -4 39 -11 -3 -6 -19 -9 -34 -6
-25 6 -50 -7 -50 -25 0 -4 18 -8 40 -8 22 0 40 -5 40 -10 0 -7 -18 -8 -50 -4
-46 6 -50 5 -50 -15 0 -19 6 -21 56 -21 73 0 70 -24 -4 -28 -37 -2 -52 -7 -52
-18 0 -10 13 -14 50 -14 28 0 50 -4 50 -10 0 -5 -20 -10 -45 -10 -46 0 -51 -4
-57 -45 -3 -17 3 -21 37 -23 22 -2 45 -8 50 -14 7 -7 -6 -9 -42 -5 -29 3 -55
2 -58 -4 -7 -11 36 -29 71 -29 38 0 28 -18 -13 -22 -54 -4 -55 -28 -1 -29 24
-1 32 -3 18 -6 -65 -10 -71 -13 -68 -36 2 -17 12 -23 43 -28 40 -6 33 -12 -15
-13 -15 -1 -25 -7 -25 -16 0 -10 13 -16 43 -18 56 -4 54 -22 -2 -22 -28 0 -46
-5 -49 -14 -9 -22 2 -26 49 -19 37 5 44 3 44 -11 0 -12 -10 -16 -45 -16 -33 0
-45 -4 -45 -15 0 -10 11 -15 33 -16 30 -2 30 -2 -8 -8 -36 -5 -40 -9 -41 -38
-2 -33 -2 -33 47 -33 62 0 64 -18 2 -22 -67 -4 -68 -26 -1 -30 62 -3 67 -20 9
-29 -45 -6 -56 -13 -47 -28 4 -6 25 -8 51 -4 43 6 45 5 45 -21 0 -25 -3 -26
-49 -26 -28 0 -52 -4 -55 -9 -7 -11 67 -23 88 -15 9 3 16 1 16 -5 0 -6 -18
-11 -42 -11 -48 0 -74 -12 -64 -29 5 -7 23 -9 49 -5 29 5 39 3 32 -4 -5 -6
-28 -12 -49 -14 -64 -5 -58 -28 8 -28 71 0 74 -18 4 -22 -39 -2 -53 -7 -53
-18 0 -12 11 -14 54 -11 41 2 52 0 49 -10 -3 -8 -23 -15 -49 -17 -86 -6 -89
-42 -3 -42 70 0 71 -15 0 -17 -30 0 -59 -4 -65 -8 -26 -15 -7 -25 49 -25 33 0
60 -4 60 -10 0 -11 -16 -13 -66 -10 -17 1 -36 -6 -43 -14 -12 -14 -9 -16 20
-16 48 0 81 -11 76 -24 -2 -6 -21 -10 -42 -9 -43 3 -75 -14 -53 -28 7 -5 30
-9 51 -9 20 0 37 -5 37 -11 0 -7 -16 -9 -50 -4 -41 6 -50 4 -50 -8 0 -16 10
-20 68 -32 17 -4 32 -11 32 -17 0 -6 -6 -8 -14 -5 -8 3 -31 9 -50 13 -32 5
-36 4 -36 -15 0 -18 6 -21 44 -21 25 0 47 -4 51 -9 9 -16 -10 -21 -41 -11 -16
5 -41 12 -56 15 l-27 5 1 177 c0 97 4 229 8 292 5 64 12 208 15 321 4 113 10
212 13 220 4 8 9 135 12 281 5 264 5 265 30 296 14 18 36 48 50 67 26 37 35
42 44 27z m-1554 -56 c6 -8 9 -23 5 -34 -7 -24 34 -71 63 -71 32 0 36 -19 11
-47 -24 -24 -24 -25 -5 -39 11 -8 24 -14 30 -14 36 0 61 -71 33 -94 -17 -13
-50 -186 -41 -209 10 -28 -19 -30 -67 -5 -43 22 -44 25 -47 75 -3 55 2 78 38
177 30 83 20 104 -12 26 -24 -59 -27 -62 -28 -32 0 18 6 45 14 60 20 41 29 85
15 80 -18 -6 -59 -117 -59 -159 0 -21 -4 -41 -10 -44 -6 -4 -10 13 -10 44 0
39 -4 51 -15 51 -8 0 -15 -8 -15 -17 0 -15 -1 -15 -13 2 -21 28 -36 10 -30
-34 3 -22 2 -65 -1 -95 -7 -54 -9 -56 -37 -56 -22 0 -29 5 -29 19 0 11 -9 22
-19 26 -10 3 -22 16 -25 29 -7 30 -54 76 -77 76 -25 0 -24 -17 1 -30 11 -6 29
-28 40 -50 11 -22 29 -44 40 -50 28 -15 25 -23 -17 -45 -52 -28 -66 -44 -53
-60 8 -9 6 -14 -5 -19 -8 -3 -15 -17 -15 -31 0 -30 -16 -33 -25 -4 -5 16 -14
19 -38 17 -28 -3 -32 -6 -29 -28 2 -14 8 -29 13 -34 5 -6 9 -23 9 -38 0 -23
-4 -28 -25 -28 -16 0 -25 6 -25 15 0 8 -9 15 -20 15 -23 0 -44 -42 -35 -71 5
-13 1 -19 -10 -19 -11 0 -15 5 -12 14 3 8 -1 17 -9 20 -17 7 -20 91 -3 102 6
3 31 6 55 6 26 -1 44 3 44 10 0 7 -18 9 -50 6 -48 -5 -50 -4 -44 16 9 28 22
36 67 36 21 0 37 5 37 11 0 8 -16 10 -49 6 l-50 -6 11 30 c10 29 13 30 47 24
22 -4 49 -20 70 -41 18 -19 37 -34 42 -34 42 0 -38 84 -91 95 -19 4 -39 9 -43
12 -14 9 15 33 39 33 29 0 32 16 4 23 -30 8 -15 34 23 40 38 6 74 -14 87 -47
13 -35 70 -52 70 -21 0 8 -7 15 -15 15 -9 0 -24 13 -33 29 -19 34 -50 51 -93
51 -20 0 -29 4 -26 13 2 7 17 11 36 9 24 -3 32 0 29 10 -3 7 -15 12 -27 11
-20 -3 -21 -1 -9 21 20 37 85 104 118 121 17 9 30 22 30 30 0 34 76 82 160
101 75 16 96 16 110 -1z m365 5 c4 -6 2 -16 -3 -23 -5 -7 -15 -30 -22 -52 -7
-22 -17 -46 -23 -53 -5 -7 -7 -15 -4 -19 9 -8 37 16 37 31 0 7 9 30 19 52 11
21 17 43 14 48 -22 35 159 -60 206 -108 l34 -35 -26 -21 c-25 -20 -55 -86 -44
-97 11 -10 27 8 27 31 0 25 34 66 54 66 7 0 18 -11 24 -24 9 -21 8 -26 -6 -30
-21 -7 -52 -57 -52 -84 0 -11 -12 -30 -27 -41 -14 -12 -23 -24 -20 -27 12 -12
54 25 66 58 27 71 31 78 45 78 21 0 37 -25 29 -45 -4 -13 -3 -16 6 -11 14 9
41 -11 41 -30 0 -8 -7 -14 -15 -14 -8 0 -15 -5 -15 -10 0 -6 12 -9 26 -8 33 4
45 -21 15 -29 -12 -3 -21 -10 -21 -15 0 -6 10 -8 23 -5 17 5 29 -3 54 -32 28
-34 59 -118 48 -129 -7 -8 -25 9 -25 24 0 18 -14 18 -29 0 -6 -7 -32 -19 -56
-26 -37 -10 -44 -16 -40 -31 5 -13 1 -19 -10 -19 -14 0 -15 7 -10 44 6 39 4
46 -15 56 -17 9 -26 8 -43 -3 -12 -8 -28 -12 -34 -10 -24 8 -13 21 23 27 19 4
38 14 41 22 3 9 17 20 30 25 13 5 22 13 19 18 -8 13 -42 2 -62 -20 -9 -10 -25
-19 -35 -19 -10 0 -21 -4 -24 -10 -8 -13 -45 -13 -45 0 0 6 8 13 18 17 42 14
102 46 102 54 0 14 -26 11 -40 -5 -6 -8 -36 -20 -66 -26 -32 -7 -63 -21 -75
-33 -20 -22 -21 -22 -35 -3 -21 29 -18 35 19 33 37 -2 54 16 19 21 -18 3 -21
8 -16 27 5 20 1 27 -20 36 -14 7 -27 10 -29 8 -27 -46 -35 -67 -27 -75 5 -5
11 -23 14 -41 5 -26 2 -33 -15 -38 -12 -4 -26 -2 -32 4 -8 8 -7 11 5 11 9 0
18 7 22 15 3 9 0 15 -8 15 -10 0 -17 28 -25 98 -16 137 -30 192 -48 192 -10 0
-13 -7 -9 -20 3 -11 9 -30 12 -42 4 -11 10 -67 13 -122 4 -56 9 -108 12 -116
2 -10 -1 -14 -11 -11 -8 2 -40 6 -70 9 -30 2 -61 9 -68 15 -9 7 -18 4 -32 -8
-33 -30 -45 -7 -30 57 30 131 29 129 55 122 34 -9 48 31 39 112 -6 60 -5 62
15 57 15 -4 21 -1 21 11 0 10 13 21 29 27 30 11 51 45 51 84 0 25 23 35 35 15z
m1315 -31 c0 -5 -7 -9 -15 -9 -15 0 -20 12 -9 23 8 8 24 -1 24 -14z m-2480 1
c0 -13 -28 -25 -38 -16 -3 4 0 11 8 16 20 13 30 12 30 0z m1535 -29 c-9 -16
-25 -3 -18 15 4 10 9 12 15 6 6 -6 7 -15 3 -21z m-509 10 c-3 -5 -16 -11 -28
-14 -22 -6 -22 -5 -4 8 22 17 40 20 32 6z m-111 -31 c3 -5 -1 -10 -9 -10 -9 0
-16 5 -16 10 0 6 4 10 9 10 6 0 13 -4 16 -10z m1565 0 c0 -5 -7 -10 -15 -10
-8 0 -15 5 -15 10 0 6 7 10 15 10 8 0 15 -4 15 -10z m-2476 -16 c8 -22 8 -24
-8 -24 -21 0 -40 27 -24 33 22 9 26 8 32 -9z m1026 0 c0 -13 -3 -14 -14 -5
-10 8 -16 9 -21 1 -7 -11 -65 -10 -65 2 0 4 17 9 38 11 20 2 43 4 50 5 6 1 12
-5 12 -14z m890 -24 c0 -5 -9 -10 -20 -10 -11 0 -20 5 -20 10 0 6 9 10 20 10
11 0 20 -4 20 -10z m-1655 -20 c3 -5 -1 -10 -9 -10 -8 0 -18 5 -21 10 -3 6 1
10 9 10 8 0 18 -4 21 -10z m-470 -10 c-28 -12 -65 -12 -65 0 0 6 19 10 43 9
32 0 37 -2 22 -9z m199 -19 c4 -5 -3 -7 -14 -4 -23 6 -26 13 -6 13 8 0 17 -4
20 -9z m934 -9 c3 -9 -2 -13 -14 -10 -9 1 -19 9 -22 16 -3 9 2 13 14 10 9 -1
19 -9 22 -16z m1458 -31 c-3 -5 -15 -7 -26 -4 -28 7 -25 13 6 13 14 0 23 -4
20 -9z m-2378 -24 c-2 -20 -5 -22 -25 -13 -27 13 -29 23 -5 29 30 8 32 7 30
-16z m-81 -69 c-2 -13 -4 -5 -4 17 -1 22 1 32 4 23 2 -10 2 -28 0 -40z m1979
33 c-3 -5 -15 -7 -26 -4 -28 7 -25 13 6 13 14 0 23 -4 20 -9z m-1896 -27 c0
-7 -8 -10 -20 -7 -11 3 -20 8 -20 12 0 4 9 7 20 7 11 0 20 -6 20 -12z m-203
-21 c-12 -11 -77 -14 -77 -3 0 5 19 10 42 10 23 0 38 -3 35 -7z m2338 -3 c4
-6 -11 -10 -39 -10 -25 0 -48 5 -51 10 -4 6 11 10 39 10 25 0 48 -4 51 -10z
m-1835 -4 c0 -2 -7 -7 -16 -10 -8 -3 -12 -2 -9 4 6 10 25 14 25 6z m-109 -23
c1 -18 -2 -151 -8 -283 -5 -143 -18 -290 -25 -290 -5 0 -19 0 -33 0 -16 0 -25
6 -25 15 0 9 9 15 25 15 36 0 33 30 -2 31 l-28 1 30 7 c17 3 30 13 30 21 0 11
-9 14 -30 12 -23 -2 -27 -1 -15 7 8 6 22 11 30 11 12 0 16 13 18 50 2 49 2 50
-28 50 -16 0 -30 5 -30 10 0 6 16 10 35 10 46 0 49 27 3 32 -39 4 -45 22 -8
23 31 0 39 19 10 23 -26 4 -26 22 -1 22 23 0 40 22 23 28 -7 2 -12 10 -12 18
0 8 -10 14 -25 14 -14 0 -25 5 -25 10 0 6 16 10 35 10 26 0 33 3 29 15 -4 9
-19 15 -35 15 -37 0 -38 18 -2 22 39 4 43 35 6 41 -27 4 -27 4 5 6 47 2 44 31
-4 31 -24 0 -34 4 -32 13 4 10 18 15 81 26 4 0 8 -7 8 -16z m1993 -208 c-9
-205 -24 -475 -33 -595 -5 -63 -10 -167 -10 -231 -1 -98 -4 -118 -17 -123 -15
-6 -16 7 -10 129 4 74 9 141 11 147 3 7 9 130 15 273 10 245 27 582 31 615 1
8 5 -10 10 -40 5 -30 6 -109 3 -175z m-2213 137 c-28 -4 -40 6 -21 18 9 6 20
4 29 -3 12 -10 11 -13 -8 -15z m776 -4 c-3 -8 -6 -5 -6 6 -1 11 2 17 5 13 3
-3 4 -12 1 -19z m-40 -40 c-3 -7 -5 -2 -5 12 0 14 2 19 5 13 2 -7 2 -19 0 -25z
m-717 -2 c0 -9 -40 -13 -46 -5 -3 5 6 9 20 9 14 0 26 -2 26 -4z m625 -6 c14
-6 16 -9 5 -10 -32 -3 -56 -8 -89 -19 -48 -15 -49 -7 -4 17 42 23 58 25 88 12z
m135 -10 c0 -5 -7 -10 -15 -10 -8 0 -15 5 -15 10 0 6 7 10 15 10 8 0 15 -4 15
-10z m-1153 -92 c-2 -18 -4 -4 -4 32 0 36 2 50 4 33 2 -18 2 -48 0 -65z m310
20 c-2 -13 -4 -3 -4 22 0 25 2 35 4 23 2 -13 2 -33 0 -45z m818 40 c59 -39 54
-68 -11 -68 -17 0 -49 -7 -70 -16 l-39 -16 19 20 c10 12 31 24 47 27 16 4 29
11 29 16 0 19 -40 8 -90 -26 -61 -41 -64 -42 -50 -15 6 12 27 28 46 37 19 9
34 20 34 25 0 19 -40 6 -84 -28 -59 -45 -84 -40 -26 6 34 27 103 54 153 59 4
1 23 -9 42 -21z m1635 2 c0 -5 -12 -10 -27 -9 -25 0 -26 1 -8 9 27 12 35 12
35 0z m-2370 -20 c0 -5 -11 -10 -25 -10 -14 0 -25 5 -25 10 0 6 11 10 25 10
14 0 25 -4 25 -10z m957 -32 c3 -101 1 -93 22 -74 12 11 21 14 26 7 3 -6 33
-11 67 -11 49 0 59 3 55 15 -5 10 4 16 29 21 19 3 40 11 47 18 7 6 30 23 52
38 38 27 39 27 57 8 26 -28 23 -31 -22 -24 -27 4 -40 3 -40 -5 0 -6 9 -11 21
-11 12 0 23 -8 26 -20 6 -23 33 -27 33 -5 0 11 5 12 24 5 13 -5 34 -6 46 -3
19 5 21 3 15 -16 -8 -25 2 -27 26 -5 17 15 19 14 25 -10 8 -35 -16 -62 -70
-78 -23 -7 -46 -19 -53 -27 -9 -12 -37 -16 -128 -18 -71 -1 -123 -7 -131 -14
-11 -9 -14 -8 -14 5 0 9 -7 16 -16 16 -9 0 -27 9 -41 20 -14 11 -32 20 -39 20
-8 0 -14 5 -14 10 0 16 27 12 72 -10 59 -28 152 -26 261 5 48 14 93 25 100 24
26 -3 37 2 37 17 0 14 -3 14 -15 4 -12 -10 -15 -10 -15 4 0 18 -11 21 -26 6
-14 -14 -172 -60 -206 -60 -18 0 -28 5 -28 15 0 20 -16 19 -24 -1 -3 -8 -11
-12 -17 -9 -6 4 -8 13 -5 21 3 7 1 16 -5 19 -5 4 -12 -1 -15 -9 -9 -23 -24
-20 -24 5 0 14 -5 19 -15 16 -8 -4 -17 -1 -21 4 -4 6 -14 2 -25 -10 -25 -26
-39 -27 -39 -1 0 11 -3 20 -7 20 -10 0 -33 49 -33 71 0 18 25 49 39 49 4 0 8
-19 8 -42z m167 23 c46 -18 17 -33 -68 -35 -83 -2 -99 11 -48 39 28 16 67 14
116 -4z m1003 3 c-3 -3 -12 -4 -19 -1 -8 3 -5 6 6 6 11 1 17 -2 13 -5z m-717
-33 c0 -15 -16 -22 -34 -15 -25 9 -19 24 9 24 14 0 25 -4 25 -9z m-1410 -17
c0 -8 -4 -12 -10 -9 -5 3 -10 10 -10 16 0 5 5 9 10 9 6 0 10 -7 10 -16z m861
-24 c2 -38 3 -43 12 -56 4 -7 0 -17 -8 -24 -13 -10 -15 -8 -15 13 0 20 -4 24
-20 20 -22 -6 -26 -23 -9 -40 13 -13 -25 -51 -85 -86 -32 -19 -28 -16 38 39
29 25 34 33 22 37 -9 4 -16 16 -16 27 0 37 -20 21 -21 -17 -1 -21 -3 -30 -6
-20 -2 9 -11 17 -20 17 -12 0 -14 -7 -10 -28 7 -34 -12 -49 -85 -62 -54 -11
-158 -3 -158 11 0 5 9 9 20 9 11 0 20 2 20 4 0 2 3 12 7 22 5 14 2 16 -20 12
-26 -5 -26 -5 -11 24 24 46 4 54 -23 9 -16 -27 -22 -48 -18 -62 5 -16 3 -20
-6 -17 -8 3 -13 16 -11 32 4 34 -20 35 -38 1 -9 -17 -10 -28 -2 -37 13 -17 91
-40 123 -37 51 5 110 -1 104 -10 -19 -32 -176 -15 -244 25 -32 19 -51 47 -25
37 9 -3 14 2 14 16 0 13 -7 21 -17 22 -10 0 -5 5 12 11 44 16 55 27 55 59 0
19 5 28 18 29 9 0 59 2 109 3 86 2 108 -3 83 -18 -5 -3 -10 -18 -10 -32 0 -20
4 -24 20 -20 10 3 21 0 24 -7 3 -7 9 -5 16 6 6 9 17 15 25 12 8 -4 15 -2 15 4
0 6 12 24 26 41 14 17 21 31 15 31 -26 0 -8 19 22 23 76 9 77 9 78 -23z m753
16 c-4 -11 -45 -36 -59 -36 -14 0 -2 39 13 43 35 9 51 7 46 -7z m-945 -52
l-20 -39 3 33 c2 18 10 37 18 42 22 13 22 7 -1 -36z m1231 36 c0 -5 -9 -10
-20 -10 -11 0 -20 5 -20 10 0 6 9 10 20 10 11 0 20 -4 20 -10z m-1900 -35 c0
-20 -5 -25 -25 -25 -33 0 -35 37 -2 43 12 2 23 5 25 6 1 0 2 -10 2 -24z m1638
8 c2 -7 -3 -13 -12 -13 -9 0 -16 -4 -16 -10 0 -15 -36 -12 -50 5 -10 13 -9 15
8 15 12 0 24 5 27 11 9 13 37 8 43 -8z m-2023 -371 c-4 -57 -10 -101 -13 -97
-9 9 -12 446 -4 459 12 18 24 -251 17 -362z m2507 353 c0 -5 -5 -11 -11 -13
-6 -2 -11 4 -11 13 0 9 5 15 11 13 6 -2 11 -8 11 -13z m-557 -35 c21 0 19 -27
-5 -65 -16 -25 -29 -34 -61 -39 -22 -3 -48 -2 -57 3 -14 9 -11 10 15 11 38 0
100 47 84 63 -7 7 -17 2 -31 -16 -21 -26 -51 -34 -84 -21 -20 8 -21 24 -1 24
8 0 31 17 51 39 36 37 37 38 55 20 11 -11 26 -19 34 -19z m-1908 -22 c-2 -13
-4 -5 -4 17 -1 22 1 32 4 23 2 -10 2 -28 0 -40z m1273 27 c0 -8 -7 -15 -15
-15 -26 0 -18 20 13 29 1 1 2 -6 2 -14z m-1005 -390 c-2 -132 -4 -250 -4 -262
-1 -14 -7 -23 -16 -23 -13 0 -15 31 -11 248 2 136 8 288 12 337 l8 90 8 -75
c4 -41 6 -183 3 -315z m75 355 c0 -5 -4 -10 -10 -10 -5 0 -10 5 -10 10 0 6 5
10 10 10 6 0 10 -4 10 -10z m143 -7 c-7 -2 -19 -2 -25 0 -7 3 -2 5 12 5 14 0
19 -2 13 -5z m-425 -24 c9 -14 10 -25 4 -31 -15 -15 -32 0 -32 28 0 30 11 31
28 3z m1152 6 c0 -8 -6 -15 -14 -15 -27 0 -35 -71 -15 -129 14 -41 30 -40 22
2 -10 47 -9 82 2 85 6 1 11 -23 13 -55 2 -32 7 -62 13 -67 15 -16 10 -26 -14
-26 -35 0 -57 47 -57 121 0 44 5 68 17 81 20 22 33 23 33 3z m-1213 -42 c-3
-10 -5 -2 -5 17 0 19 2 27 5 18 2 -10 2 -26 0 -35z m575 5 c-15 -15 -24 -6
-16 16 5 12 10 14 17 7 8 -8 8 -14 -1 -23z m708 7 c8 -9 8 -15 0 -20 -13 -8
-13 -49 1 -98 8 -30 18 -42 44 -53 43 -17 45 -17 45 1 0 8 -6 15 -14 15 -17 0
-26 43 -19 86 4 24 9 30 23 27 15 -4 17 -12 13 -40 -6 -34 -5 -36 19 -31 23 4
25 2 23 -31 -1 -33 -4 -37 -36 -45 -52 -13 -109 0 -109 24 0 10 -4 21 -9 24
-4 3 -11 31 -15 63 -4 31 -9 67 -12 79 -5 19 -2 22 15 17 11 -3 25 -11 31 -18z
m-940 5 c0 -5 -11 -10 -25 -10 -14 0 -25 5 -25 10 0 6 11 10 25 10 14 0 25 -4
25 -10z m1285 -19 c-16 -15 -138 -18 -142 -3 -4 9 15 12 73 12 47 0 74 -4 69
-9z m-1001 -20 c32 -36 114 -63 193 -65 40 0 73 -3 73 -6 0 -3 -33 -32 -72
-65 -100 -83 -107 -91 -114 -122 -4 -16 -25 -53 -46 -84 -43 -63 -68 -118 -68
-149 0 -18 -7 -20 -82 -22 -134 -2 -138 -1 -118 37 12 23 19 24 104 27 111 4
117 21 11 28 l-76 5 16 23 c13 17 26 22 61 22 24 0 44 4 44 9 0 5 9 11 21 14
29 8 14 27 -22 27 -30 0 -38 13 -17 26 7 4 43 7 80 6 63 -3 68 -1 68 18 0 18
-4 20 -34 15 -25 -5 -35 -3 -39 9 -8 20 -27 21 -27 1 0 -9 -9 -15 -24 -15 -13
0 -32 -3 -42 -7 -12 -4 -15 -3 -10 5 4 7 18 12 31 12 13 0 25 5 27 12 2 6 20
17 39 24 l34 12 -47 1 c-39 1 -48 4 -48 19 0 33 12 62 26 62 19 0 18 19 -1 26
-20 8 -19 24 3 40 16 12 16 13 0 19 -25 10 -22 28 5 41 31 16 32 16 51 -5z
m506 -33 c0 -38 -3 -49 -10 -38 -13 20 -13 90 0 90 6 0 10 -24 10 -52z m-1030
23 c0 -14 -38 -24 -52 -14 -9 5 -3 10 17 14 17 4 31 7 33 8 1 0 2 -3 2 -8z
m965 -11 c3 -5 1 -10 -4 -10 -6 0 -11 5 -11 10 0 6 2 10 4 10 3 0 8 -4 11 -10z
m1395 -10 c0 -5 -4 -10 -9 -10 -6 0 -13 5 -16 10 -3 6 1 10 9 10 9 0 16 -4 16
-10z m-985 -39 c-3 -45 -11 -61 -30 -61 -13 0 -9 28 10 88 9 27 23 9 20 -27z
m62 22 c4 -10 -26 -47 -32 -41 -2 2 -1 16 2 31 5 27 23 33 30 10z m39 -10
c-10 -10 -19 5 -10 18 6 11 8 11 12 0 2 -7 1 -15 -2 -18z m-1236 -30 c0 -26
-4 -33 -19 -33 -13 0 -20 9 -23 30 -5 35 -3 39 23 37 15 -1 19 -9 19 -34z
m717 24 c4 -7 21 -18 37 -25 16 -7 26 -15 23 -18 -7 -8 -107 37 -107 47 0 14
38 11 47 -4z m-960 -3 c-3 -3 -12 -4 -19 -1 -8 3 -5 6 6 6 11 1 17 -2 13 -5z
m-89 -339 c-2 -253 -6 -335 -15 -335 -9 0 -11 50 -9 208 2 114 4 264 5 335 1
83 5 127 12 127 7 0 9 -101 7 -335z m937 316 c-3 -6 -11 -8 -17 -5 -6 4 -5 9
3 15 16 10 23 4 14 -10z m-1065 -21 c0 -11 -7 -20 -15 -20 -18 0 -19 12 -3 28
16 16 18 15 18 -8z m1790 10 c0 -5 -7 -10 -15 -10 -8 0 -15 5 -15 10 0 6 7 10
15 10 8 0 15 -4 15 -10z m-680 -4 c0 -2 -15 -20 -32 -38 -18 -19 -41 -46 -50
-60 -11 -16 -31 -28 -53 -32 -20 -4 -44 -10 -53 -13 -10 -3 -7 3 8 16 14 11
31 21 39 21 8 0 37 25 66 55 42 46 75 68 75 51z m617 -13 c20 -27 75 -134 70
-139 -2 -3 -23 25 -47 61 -54 82 -87 90 -55 13 12 -31 -13 -20 -28 12 -15 28
-14 30 11 49 33 25 32 25 49 4z m-707 -3 c0 -5 -4 -10 -10 -10 -5 0 -10 5 -10
10 0 6 5 10 10 10 6 0 10 -4 10 -10z m1550 0 c0 -5 -7 -10 -15 -10 -8 0 -15 5
-15 10 0 6 7 10 15 10 8 0 15 -4 15 -10z m223 3 c-7 -2 -21 -2 -30 0 -10 3 -4
5 12 5 17 0 24 -2 18 -5z m-2163 -32 c0 -15 -7 -19 -30 -19 -17 1 -30 6 -30
14 0 11 9 15 53 23 4 0 7 -8 7 -18z m1273 -40 c15 -14 27 -29 27 -33 0 -5 10
-22 22 -38 12 -16 19 -32 16 -36 -12 -11 -46 16 -59 48 -7 18 -19 37 -26 41
-7 4 -13 14 -13 21 0 8 -7 16 -15 20 -8 3 -15 11 -15 17 0 13 15 3 63 -40z
m-1908 20 c-3 -6 -11 -8 -17 -5 -6 4 -5 9 3 15 16 10 23 4 14 -10z m471 4 c-2
-16 -9 -17 -35 -7 -11 4 -10 7 5 13 28 11 32 10 30 -6z m784 -11 c0 -19 -41
-65 -52 -58 -16 10 -8 34 12 34 21 0 27 15 10 25 -6 4 -8 10 -5 15 8 13 35 0
35 -16z m394 -6 c3 -17 4 -33 1 -36 -3 -3 -5 2 -5 10 0 9 -7 21 -15 28 -12 10
-16 9 -21 -4 -6 -17 -34 -23 -34 -7 0 10 41 40 56 40 6 1 14 -13 18 -31z
m-659 12 c-3 -5 -12 -10 -20 -10 -7 0 -27 -11 -43 -25 -31 -26 -52 -32 -52
-14 0 5 15 16 34 24 19 8 37 19 41 25 3 5 15 10 26 10 11 0 17 -4 14 -10z
m125 5 c0 -13 -56 -114 -62 -115 -17 0 -7 47 17 83 22 32 45 48 45 32z m65
-14 c3 -5 1 -12 -4 -15 -12 -8 -41 3 -41 15 0 12 37 12 45 0z m243 -18 c89 -4
93 -5 91 -26 -2 -12 2 -32 9 -44 7 -12 12 -26 12 -32 0 -12 -77 -36 -146 -47
-44 -6 -47 -5 -40 12 8 18 36 106 36 112 0 1 -7 2 -15 2 -8 0 -19 -17 -25 -42
-19 -74 -21 -78 -36 -78 -8 0 -14 3 -14 8 0 11 24 75 33 90 12 18 -1 32 -29
32 -13 0 -24 4 -24 8 0 16 15 23 35 16 11 -4 62 -9 113 -11z m443 -29 c18 -30
20 -38 8 -46 -11 -7 -11 -11 -1 -15 6 -2 12 -14 12 -24 0 -11 5 -29 10 -40 7
-12 7 -25 1 -36 -5 -10 -11 -185 -12 -390 -2 -204 -7 -374 -10 -378 -11 -11
-109 7 -109 20 0 7 9 11 23 8 12 -2 33 0 47 6 l25 10 -25 1 c-14 0 -35 3 -48
6 -32 9 -24 38 13 44 l30 5 6 105 c4 58 8 211 9 340 1 184 4 238 15 250 12 13
10 24 -11 75 -37 87 -39 95 -21 95 8 0 25 -16 38 -36z m-1232 22 c-12 -10 -59
-15 -59 -6 0 5 14 10 32 10 17 0 29 -2 27 -4z m-619 -15 c0 -18 -18 -21 -30
-6 -10 13 -9 15 9 15 11 0 21 -4 21 -9z m1140 -5 c0 -8 10 -16 23 -18 18 -2
22 -9 23 -42 0 -30 5 -41 21 -47 26 -9 37 -26 23 -34 -6 -4 -26 7 -46 24 -19
17 -42 31 -50 31 -9 0 -14 6 -11 13 2 6 11 12 20 12 26 0 28 11 8 29 -24 22
-37 15 -45 -24 -3 -17 -10 -29 -15 -25 -5 3 -12 1 -16 -5 -3 -5 -1 -10 4 -10
6 0 11 -9 11 -20 0 -15 -7 -20 -25 -20 -14 0 -25 6 -25 13 0 11 26 66 55 119
12 21 45 24 45 4z m465 4 c7 -12 -12 -40 -26 -40 -10 0 -12 34 -2 43 9 10 21
9 28 -3z m119 -9 c3 -5 -9 -14 -27 -21 -29 -10 -30 -12 -14 -24 22 -17 22 -36
-1 -36 -10 0 -23 13 -31 31 -12 27 -11 32 5 44 22 16 60 19 68 6z m-449 -33
c-9 -39 -22 -58 -41 -58 -19 0 -18 29 1 36 12 5 13 10 4 20 -14 17 -3 34 22
34 18 0 20 -4 14 -32z m1263 25 c-10 -2 -26 -2 -35 0 -10 3 -2 5 17 5 19 0 27
-2 18 -5z m-1948 -13 c12 -8 11 -10 -7 -10 -13 0 -23 5 -23 10 0 13 11 13 30
0z m960 -25 c0 -5 -5 -3 -10 5 -5 8 -10 20 -10 25 0 6 5 3 10 -5 5 -8 10 -19
10 -25z m-1560 15 c0 -5 -7 -10 -15 -10 -8 0 -15 5 -15 10 0 6 7 10 15 10 8 0
15 -4 15 -10z m460 0 c0 -5 -5 -10 -11 -10 -5 0 -7 5 -4 10 3 6 8 10 11 10 2
0 4 -4 4 -10z m556 -7 c3 -10 10 -26 15 -35 11 -21 -5 -33 -27 -20 -11 6 -13
11 -5 16 15 10 14 27 -1 25 -7 -1 -21 1 -31 6 -13 5 -25 1 -42 -15 -31 -29
-25 -39 9 -16 31 20 36 20 36 1 0 -8 -14 -17 -36 -21 -43 -8 -62 -35 -80 -112
-18 -76 -19 -285 -1 -280 9 4 13 42 14 141 1 114 5 143 24 186 21 50 22 51 66
51 46 0 47 -5 16 -41 -12 -14 -8 -18 27 -32 39 -15 50 -30 30 -42 -13 -8 -13
-146 0 -165 8 -10 9 3 4 46 -4 38 -2 69 5 80 9 17 10 17 11 2 0 -10 5 -18 10
-18 11 0 13 11 10 53 -1 15 3 27 9 27 6 0 11 7 11 15 0 20 0 20 61 -21 87 -58
89 -60 82 -113 -3 -25 -10 -52 -16 -58 -6 -9 -6 -13 1 -13 16 0 42 47 36 64
-11 30 11 16 39 -25 26 -35 29 -50 33 -132 2 -51 10 -123 18 -162 28 -131 35
-190 28 -230 -8 -46 -32 -54 -43 -13 -7 28 -26 231 -37 406 -7 99 -24 141 -30
75 -2 -22 -9 -33 -20 -34 -15 -1 -15 -2 1 -6 10 -3 17 -14 17 -28 0 -14 -7
-25 -17 -28 -15 -4 -15 -6 5 -12 13 -4 22 -15 22 -27 0 -10 -4 -17 -9 -13 -5
3 -12 1 -15 -4 -3 -5 4 -11 15 -14 27 -7 15 -27 -16 -27 -31 0 -33 10 -40 180
-3 80 -9 146 -14 148 -12 4 -21 -36 -15 -67 2 -14 9 -89 14 -166 5 -77 14
-189 19 -250 21 -237 21 -233 -12 -241 -34 -7 -195 14 -203 27 -11 19 7 27 43
19 21 -5 39 -7 42 -4 8 8 -9 17 -46 23 l-38 6 -3 60 c-2 33 0 75 3 93 5 28 10
32 37 32 17 0 28 3 24 7 -4 4 -17 8 -29 8 -12 0 -23 7 -25 18 -3 13 3 17 25
18 l28 1 -28 10 c-33 12 -31 30 4 39 22 7 18 9 -21 13 -8 0 -16 11 -18 24 -3
19 1 22 28 22 27 0 30 3 25 20 -5 15 -2 20 12 20 17 1 17 1 1 14 -21 15 -24
46 -5 47 10 0 10 2 0 6 -7 2 -13 19 -13 36 0 53 -10 23 -18 -54 -5 -56 -11
-74 -22 -74 -13 0 -15 27 -15 183 0 170 -6 216 -21 158 -9 -39 3 -388 15 -419
7 -19 8 -48 1 -95 -5 -37 -10 -101 -10 -143 0 -68 -2 -77 -20 -82 -39 -10
-130 33 -130 61 0 13 28 47 34 42 2 -3 6 -17 8 -32 2 -15 8 -31 12 -35 5 -4 5
69 1 162 -3 94 -7 191 -8 218 -1 26 -5 47 -9 47 -11 0 -9 -99 2 -189 5 -41 7
-92 3 -114 -5 -35 -8 -38 -19 -23 -7 10 -11 40 -10 72 1 30 -1 54 -6 54 -4 0
-8 34 -8 75 0 42 -5 84 -12 95 -10 15 -10 32 0 78 16 79 16 112 -3 112 -12 0
-15 -13 -15 -55 0 -32 -4 -55 -10 -55 -7 0 -8 13 -4 35 5 28 3 35 -10 35 -24
0 -35 -31 -46 -132 -5 -51 -12 -121 -16 -154 -4 -41 -3 -64 5 -68 18 -11 34 4
21 19 -12 15 -6 35 10 35 5 0 8 -25 7 -55 -1 -30 -3 -50 -5 -45 -2 5 -14 7
-26 4 -42 -10 -49 14 -36 128 13 122 46 274 66 305 8 12 14 47 14 78 0 100 48
167 160 222 54 27 89 29 96 6z m627 -28 c20 -28 15 -45 -13 -45 -18 0 -36 42
-25 60 9 15 18 11 38 -15z m135 -20 c9 -27 9 -42 2 -49 -8 -8 -12 -4 -16 12
-4 12 -10 22 -15 22 -15 0 -20 -20 -9 -39 7 -14 7 -22 -2 -27 -6 -4 -14 -2
-16 4 -2 7 -10 12 -17 12 -11 0 -31 30 -23 34 2 1 21 10 42 19 29 14 36 21 27
30 -15 15 -14 30 2 25 6 -3 18 -22 25 -43z m-1772 -15 c-1 -22 1 -93 5 -158 9
-136 -4 -205 -34 -175 -4 3 -2 12 4 20 8 8 8 17 2 26 -8 10 -10 61 -2 77 6 13
3 70 -3 70 -13 0 -9 28 5 33 9 3 9 8 1 16 -7 7 -8 29 -4 56 4 27 3 45 -3 45
-5 0 -4 7 3 15 20 25 28 17 26 -25z m594 31 c0 -14 -18 -23 -30 -16 -6 4 -8
11 -5 16 8 12 35 12 35 0z m1230 -32 c0 -11 -4 -17 -10 -14 -5 3 -10 15 -10
26 0 11 5 17 10 14 6 -3 10 -15 10 -26z m173 17 c3 -7 8 -35 11 -62 5 -46 5
-47 -6 -16 -6 17 -15 32 -19 32 -5 0 -9 14 -9 30 0 31 14 41 23 16z m-1543 -5
c0 -5 -9 -7 -20 -4 -11 3 -20 7 -20 9 0 2 9 4 20 4 11 0 20 -4 20 -9z m1120
-16 c0 -14 -4 -25 -9 -25 -12 0 -23 29 -15 41 10 18 24 9 24 -16z m-1513 -7
c-3 -8 -6 -5 -6 6 -1 11 2 17 5 13 3 -3 4 -12 1 -19z m1091 0 c16 -16 -13 -48
-38 -41 -16 4 -17 9 -8 29 12 26 28 30 46 12z m370 -24 c-4 -3 -19 -4 -35 -2
l-28 4 25 11 c23 10 51 1 38 -13z m418 1 c4 -8 12 -15 20 -15 8 0 14 -5 14
-11 0 -6 -6 -8 -12 -5 -7 3 -21 9 -30 12 -10 4 -18 13 -18 20 0 19 19 18 26
-1z m-887 -25 c6 0 11 -7 11 -15 0 -20 -10 -19 -39 4 -15 12 -21 23 -16 31 6
10 11 9 20 -3 7 -10 17 -17 24 -17z m601 22 c0 -5 -9 -17 -20 -27 -19 -18 -20
-17 -20 3 0 18 11 29 33 31 4 1 7 -3 7 -7z m-463 -37 c-15 -17 -30 -4 -21 19
5 12 10 14 20 5 10 -8 11 -14 1 -24z m101 23 c-7 -19 -38 -22 -38 -4 0 10 9
16 21 16 12 0 19 -5 17 -12z m52 -12 c0 -29 -31 -86 -48 -87 -16 -1 -15 -2 1
-6 12 -3 16 -11 12 -23 -3 -10 -1 -22 6 -25 14 -9 31 15 24 34 -3 7 0 28 7 46
9 27 18 34 45 37 38 5 46 -1 33 -22 -7 -11 -12 -12 -21 -3 -14 14 -39 6 -39
-13 0 -41 210 -19 267 27 8 7 15 2 25 -18 13 -26 12 -31 -22 -76 l-35 -48 -8
50 c-12 74 -30 65 -23 -11 3 -35 6 -72 6 -83 1 -23 -91 -217 -99 -209 -6 6 -8
13 -10 45 0 12 -6 19 -13 16 -15 -4 -12 -65 3 -84 11 -12 2 -60 -12 -68 -11
-7 -37 83 -45 154 -4 43 -3 52 8 45 10 -6 10 -4 -1 9 -17 21 -27 22 -34 2 -9
-23 20 -182 37 -207 19 -27 20 -55 4 -108 -11 -35 -28 -54 -28 -32 0 9 -25
166 -39 247 -16 91 -14 148 4 141 8 -3 15 -1 15 3 0 5 -7 11 -15 15 -8 3 -15
16 -15 29 0 14 -9 36 -20 50 -11 14 -20 31 -20 39 0 7 -9 19 -21 26 -19 12
-20 15 -5 31 9 10 16 21 16 25 0 13 41 66 51 66 5 0 9 -6 9 -14z m447 -20 c-8
-6 -22 -15 -31 -21 -14 -9 -16 -35 -16 -180 -1 -199 -17 -430 -33 -463 -8 -16
-8 -25 -1 -30 6 -4 14 -24 17 -45 5 -35 5 -36 -15 -26 -20 11 -20 16 -13 103
11 138 21 580 13 590 -10 12 -29 -40 -22 -59 4 -10 0 -15 -10 -15 -20 0 -21
-16 -1 -24 26 -10 16 -26 -15 -26 -16 0 -30 -4 -30 -10 0 -5 14 -10 31 -10
l32 0 -7 -162 c-12 -309 -19 -348 -55 -348 -11 0 -40 -9 -66 -20 -26 -11 -64
-20 -86 -20 -36 0 -38 1 -34 28 12 75 15 160 5 164 -6 2 -4 21 5 51 29 95 35
88 34 -38 0 -66 2 -132 6 -147 7 -29 25 -39 25 -14 0 18 12 26 48 32 76 12 75
11 69 60 -2 24 0 47 5 50 6 4 6 10 -1 17 -16 16 -13 37 4 37 8 0 15 5 15 10 0
6 -7 10 -15 10 -18 0 -20 21 -2 39 10 11 10 14 0 18 -7 3 -13 13 -13 23 0 10
6 21 13 24 9 3 7 9 -5 19 -26 20 -22 37 8 37 32 0 27 22 -7 30 -21 6 -24 11
-21 50 2 25 -2 46 -9 50 -14 9 -1 35 53 108 l39 52 -26 34 c-13 18 -22 36 -18
39 12 12 20 7 31 -18 14 -31 23 -31 53 -1 13 12 31 25 39 28 21 7 26 -13 7
-26z m-203 9 c-4 -8 -10 -12 -15 -9 -14 8 -10 24 6 24 9 0 12 -6 9 -15z
m-1164 -5 c0 -5 -4 -10 -10 -10 -5 0 -10 5 -10 10 0 6 5 10 10 10 6 0 10 -4
10 -10z m824 4 c21 -8 20 -27 -2 -40 -27 -17 -60 8 -41 30 16 17 21 18 43 10z
m299 -8 c5 -14 -10 -36 -25 -36 -4 0 -8 6 -8 14 0 27 -20 27 -30 1 -11 -28
-30 -25 -30 4 0 26 9 31 51 31 22 0 39 -5 42 -14z m391 -27 c-11 -18 -24 -8
-24 19 1 26 1 26 15 8 8 -10 12 -23 9 -27z m-1716 4 c-10 -2 -26 -2 -35 0 -10
3 -2 5 17 5 19 0 27 -2 18 -5z m1586 -15 c8 -30 7 -179 -1 -410 l-6 -188 -29
0 c-27 0 -29 2 -24 28 9 45 27 492 21 513 -4 13 -1 21 10 26 16 6 16 7 1 15
-14 8 -15 13 -5 24 16 20 26 17 33 -8z m240 -178 c8 -63 20 -169 26 -235 6
-66 13 -141 15 -166 6 -54 -2 -67 -23 -37 -12 16 -12 23 -4 26 17 5 15 22 -3
22 -8 0 -15 5 -15 10 0 6 7 13 15 16 8 4 15 10 15 15 0 5 -7 9 -15 9 -8 0 -15
5 -15 10 0 6 7 10 15 10 8 0 15 5 15 10 0 6 -9 10 -20 10 -23 0 -26 10 -7 29
10 11 10 14 0 18 -7 3 -13 13 -13 23 0 10 6 21 13 23 9 4 9 8 0 14 -6 5 -11
31 -11 58 0 28 -5 93 -11 145 -6 52 -10 111 -10 130 l1 35 8 -30 c5 -16 15
-82 24 -145z m-1831 153 c-13 -2 -35 -2 -50 0 -16 2 -5 4 22 4 28 0 40 -2 28
-4z m223 -38 c-6 -22 -9 -25 -21 -15 -19 16 -19 30 0 30 8 0 15 5 15 12 0 6 3
9 6 5 4 -3 3 -18 0 -32z m1496 10 c3 -14 1 -28 -3 -31 -15 -9 -29 6 -29 32 0
32 26 31 32 -1z m-1713 -9 c-12 -10 -79 -16 -79 -6 0 5 19 10 42 10 23 0 39
-2 37 -4z m1774 -451 c1 -112 -2 -182 -8 -185 -13 -6 -29 511 -18 590 6 48 8
38 16 -85 4 -77 9 -221 10 -320z m547 435 c0 -5 -4 -10 -10 -10 -5 0 -10 5
-10 10 0 6 5 10 10 10 6 0 10 -4 10 -10z m-1833 -22 c-3 -8 -6 -5 -6 6 -1 11
2 17 5 13 3 -3 4 -12 1 -19z m1404 -61 c-8 -8 -11 1 -11 29 0 53 14 67 18 19
2 -21 -1 -42 -7 -48z m59 61 c-1 -13 -2 -30 -1 -38 1 -13 2 -13 12 0 8 12 10
12 7 -5 -2 -11 -11 -21 -21 -23 -14 -3 -17 4 -17 42 0 26 5 46 11 46 6 0 10
-10 9 -22z m-1590 0 c0 -7 -5 -20 -10 -28 -8 -12 -10 -9 -10 13 0 15 5 27 10
27 6 0 10 -6 10 -12z m100 -2 c-14 -18 -9 -62 7 -59 7 2 10 -3 7 -10 -7 -19
-44 -16 -44 4 0 40 13 79 27 79 12 0 13 -3 3 -14z m-255 -6 c-3 -5 -12 -10
-18 -10 -7 0 -6 4 3 10 19 12 23 12 15 0z m70 -21 c5 -22 3 -36 -9 -47 -15
-15 -16 -12 -16 31 0 53 15 63 25 16z m127 1 c-2 -16 -6 -30 -8 -30 -2 0 -4
14 -4 30 0 17 4 30 8 30 5 0 7 -13 4 -30z m1316 8 c-6 -18 -28 -21 -28 -4 0 9
7 16 16 16 9 0 14 -5 12 -12z m-1573 -85 c-8 -43 -21 -42 -21 2 0 19 4 35 8
35 4 0 8 7 8 15 0 8 -6 15 -12 15 -9 0 -8 4 2 10 12 7 16 4 18 -17 2 -14 1
-41 -3 -60z m165 41 c0 -14 -4 -23 -9 -20 -5 3 -7 15 -4 26 7 28 13 25 13 -6z
m1576 -44 c15 -13 19 -104 7 -150 -5 -18 -11 2 -19 70 -7 52 -12 109 -12 125
l1 30 4 -32 c2 -17 11 -37 19 -43z m408 50 c-10 -4 -37 -4 -59 -1 l-40 6 50 5
c54 6 80 1 49 -10z m-584 -16 c0 -8 -4 -14 -10 -14 -5 0 -10 9 -10 21 0 11 5
17 10 14 6 -3 10 -13 10 -21z m-1350 6 c0 -5 -4 -10 -10 -10 -5 0 -10 5 -10
10 0 6 5 10 10 10 6 0 10 -4 10 -10z m-526 -16 c3 -8 2 -12 -4 -9 -6 3 -10 10
-10 16 0 14 7 11 14 -7z m2484 -43 c-2 -8 -8 -16 -13 -18 -13 -4 -38 35 -30
47 9 14 46 -12 43 -29z m-942 -61 c1 -43 5 -87 8 -98 5 -13 0 -22 -16 -29
l-23 -10 0 96 c1 148 28 184 31 41z m339 81 c7 -12 -12 -24 -25 -16 -11 7 -4
25 10 25 5 0 11 -4 15 -9z m-1265 -13 c0 -5 -25 -8 -55 -8 -30 0 -55 4 -55 9
0 5 25 9 55 8 30 -1 55 -5 55 -9z m-670 -43 c0 -23 -6 -38 -15 -42 -23 -8 -31
5 -17 27 7 12 8 20 2 20 -17 0 -11 18 8 23 9 3 18 5 20 6 1 0 2 -15 2 -34z
m2419 13 c14 -1 26 -9 29 -15 5 -16 -74 -18 -83 -3 -11 18 3 44 18 32 6 -6 23
-12 36 -14z m-483 -3 c4 -8 1 -22 -6 -30 -7 -8 -8 -15 -3 -15 6 0 11 -45 12
-105 1 -89 -1 -105 -14 -105 -8 0 -15 -4 -15 -10 0 -5 6 -10 14 -10 10 0 13
-23 14 -100 1 -92 0 -100 -21 -115 -26 -19 -91 -21 -85 -2 3 6 18 14 34 17 27
5 29 8 30 55 0 28 2 133 3 235 2 102 5 188 8 193 7 12 23 8 29 -8z m-1176 -23
c0 -9 6 -28 13 -42 14 -27 12 -54 -4 -44 -5 3 -9 14 -9 25 0 10 -4 19 -10 19
-5 0 -10 16 -10 36 0 21 4 33 10 29 6 -3 10 -14 10 -23z m-713 -54 c-2 -13 -4
-3 -4 22 0 25 2 35 4 23 2 -13 2 -33 0 -45z m300 30 c-3 -7 -5 -2 -5 12 0 14
2 19 5 13 2 -7 2 -19 0 -25z m2193 10 c0 -17 -3 -19 -12 -10 -7 7 -23 13 -37
13 -21 1 -20 3 9 9 19 4 36 8 38 9 1 0 2 -9 2 -21z m-1902 -5 c-16 -2 -40 -2
-55 0 -16 2 -3 4 27 4 30 0 43 -2 28 -4z m910 -146 c-1 -62 -5 -80 -19 -87
-15 -9 -17 -1 -21 73 -3 58 1 94 11 121 l15 40 8 -35 c4 -19 7 -69 6 -112z
m-893 113 c-3 -5 -26 -10 -51 -10 -24 0 -44 5 -44 10 0 6 23 10 51 10 31 0 48
-4 44 -10z m-658 -12 c4 -7 8 -19 10 -27 1 -8 6 -17 10 -20 11 -8 4 -111 -8
-111 -5 0 -9 9 -9 21 0 17 -4 19 -22 13 -23 -7 -23 -6 -5 14 17 18 17 21 2 24
-15 3 -14 6 4 27 22 25 20 41 -5 41 -15 0 -19 12 -7 23 10 11 21 8 30 -5z
m743 -50 c0 -36 -3 -49 -10 -42 -10 10 -4 94 6 94 2 0 4 -23 4 -52z m-620 22
c0 -5 -7 -10 -15 -10 -8 0 -15 5 -15 10 0 6 7 10 15 10 8 0 15 -4 15 -10z
m505 -9 c3 -5 2 -12 -2 -14 -14 -9 -7 -175 7 -192 8 -9 15 -51 17 -103 2 -47
6 -88 8 -90 24 -24 37 121 13 147 -11 11 -10 13 5 7 10 -3 23 -6 28 -6 6 0 7
-20 3 -50 -5 -35 -3 -50 5 -50 6 0 15 9 19 19 7 18 9 18 42 -9 30 -25 32 -28
11 -23 -23 6 -24 5 -19 -40 6 -53 1 -57 -99 -57 l-63 0 0 68 c0 38 -3 144 -7
235 -5 149 -4 167 10 167 9 0 18 -4 22 -9z m643 -33 c3 -13 -3 -18 -22 -18
-14 0 -26 -4 -26 -10 0 -5 11 -10 25 -10 14 0 25 -6 25 -12 0 -7 3 -30 6 -50
5 -31 4 -38 -10 -38 -9 0 -16 -4 -16 -10 0 -5 9 -10 20 -10 29 0 24 -27 -6
-34 -15 -4 -28 -6 -30 -4 -1 2 -6 27 -10 56 -6 49 -5 52 15 52 11 0 21 5 21
11 0 6 -8 8 -19 4 -15 -4 -20 1 -25 26 -12 60 -9 71 21 67 17 -2 29 -10 31
-20z m-491 -10 c-3 -8 -6 -5 -6 6 -1 11 2 17 5 13 3 -3 4 -12 1 -19z m828 -27
c7 -12 -12 -24 -25 -16 -11 7 -4 25 10 25 5 0 11 -4 15 -9z m1320 -31 c-8 -13
-55 -13 -75 0 -11 7 -2 10 33 10 30 0 46 -4 42 -10z m-2145 -15 c0 -8 -4 -15
-10 -15 -5 0 -10 7 -10 15 0 8 5 15 10 15 6 0 10 -7 10 -15z m822 -10 c0 -5
-5 -11 -11 -13 -6 -2 -11 4 -11 13 0 9 5 15 11 13 6 -2 11 -8 11 -13z m-822
-64 c0 -17 5 -33 10 -36 6 -3 10 -17 10 -31 0 -22 -2 -23 -20 -12 -15 10 -20
24 -20 60 0 27 5 48 10 48 6 0 10 -13 10 -29z m830 13 c0 -17 -22 -14 -28 4
-2 7 3 12 12 12 9 0 16 -7 16 -16z m-50 -8 c0 -7 -11 -16 -25 -18 -26 -5 -36
16 -12 25 23 10 37 7 37 -7z m-137 -93 c-3 -40 -8 -73 -12 -73 -3 0 -11 12
-18 26 -10 22 -9 32 7 62 11 20 20 43 20 51 0 8 2 12 4 10 2 -2 2 -37 -1 -76z
m192 56 c9 -13 3 -19 -24 -24 -24 -4 -26 0 -8 20 15 17 24 18 32 4z m-55 -19
c0 -11 -4 -20 -9 -20 -5 0 -16 -3 -25 -6 -12 -5 -16 0 -16 20 0 21 5 26 25 26
18 0 25 -5 25 -20z m-260 -9 c0 -11 -25 -21 -51 -21 -19 0 -25 11 -12 23 10
10 63 8 63 -2z m727 -28 c-3 -10 -5 -4 -5 12 0 17 2 24 5 18 2 -7 2 -21 0 -30z
m-727 -12 c0 -10 -61 -34 -68 -26 -3 2 1 11 8 20 13 16 60 21 60 6z m10 -46
c0 -10 -11 -15 -35 -15 -56 0 -41 25 18 29 9 0 17 -6 17 -14z m495 -24 c0 -8
-4 -16 -10 -18 -16 -5 -38 14 -30 26 9 16 40 9 40 -8z m265 -25 l0 -43 -59 -7
c-53 -6 -101 -2 -124 11 -13 8 63 42 79 36 19 -7 71 15 78 33 11 29 26 12 26
-30z m-212 -43 c-25 -6 -30 -29 -5 -29 30 1 34 -30 6 -39 -15 -5 -26 -2 -33 7
-6 9 -26 19 -44 22 -22 5 -32 13 -32 26 0 17 8 19 63 18 34 -1 55 -3 45 -5z
m-765 -18 c21 -4 50 -48 39 -60 -3 -3 -16 -5 -30 -5 -17 0 -23 4 -18 15 3 8 1
15 -3 15 -16 0 -41 -12 -41 -19 0 -11 52 -35 71 -32 9 1 21 -5 28 -13 10 -12
9 -14 -8 -9 -24 6 -28 -9 -6 -27 24 -20 17 -33 -7 -16 -27 19 -41 20 -36 4 7
-19 -49 -61 -73 -55 -15 4 -23 -1 -30 -19 -17 -46 -181 -96 -195 -61 -6 16 33
72 85 123 26 26 42 25 21 -1 -18 -21 -4 -32 17 -14 10 8 30 21 46 29 15 7 27
17 27 22 0 4 8 8 19 8 10 0 24 7 31 15 13 15 8 19 -22 16 -22 -3 -23 12 -3 29
8 7 15 25 15 41 0 31 -5 30 73 14z m713 -66 c23 -21 70 -25 77 -6 4 8 11 6 24
-9 10 -12 28 -27 40 -33 26 -13 93 -15 93 -2 0 15 -61 42 -80 36 -9 -3 -25 4
-35 15 -10 11 -13 20 -7 20 6 0 14 -4 17 -10 3 -5 16 -10 27 -10 56 0 131 -57
140 -105 2 -17 -3 -21 -35 -23 -21 -2 -63 5 -95 15 -31 9 -66 16 -76 15 -11
-1 -27 5 -36 13 -11 10 -33 15 -59 14 -50 -3 -57 3 -64 59 -5 43 -5 44 21 37
15 -4 36 -15 48 -26z"/>
<g>
<path d="M1415 4164 c-19 -19 -16 -59 4 -59 9 0 15 14 18 38 4 41 1 44 -22 21z"/>
</g>
<g>
<path d="M1360 3874 c0 -8 5 -12 10 -9 6 4 8 11 5 16 -9 14 -15 11 -15 -7z"/>
</g>
<g>
<path d="M1360 3820 c0 -5 5 -10 10 -10 6 0 10 5 10 10 0 6 -4 10 -10 10 -5 0
-10 -4 -10 -10z"/>
</g>
<g>
<path d="M1330 3780 c0 -5 11 -10 25 -10 14 0 25 5 25 10 0 6 -11 10 -25 10
-14 0 -25 -4 -25 -10z"/>
</g>
<g>
<path d="M990 3800 c0 -5 5 -10 10 -10 6 0 10 5 10 10 0 6 -4 10 -10 10 -5 0
-10 -4 -10 -10z"/>
</g>
<g>
<path d="M1000 3760 c0 -5 7 -10 16 -10 8 0 12 5 9 10 -3 6 -10 10 -16 10 -5
0 -9 -4 -9 -10z"/>
</g>
<g>
<path d="M986 3721 c15 -14 54 -23 54 -13 0 5 -10 12 -22 16 -33 8 -44 8 -32
-3z"/>
</g>
<g>
<path d="M2130 3701 c0 -9 24 -21 41 -21 5 0 9 7 9 15 0 9 -9 15 -25 15 -14 0
-25 -4 -25 -9z"/>
</g>
<g>
<path d="M2794 3716 c-10 -26 1 -61 20 -64 15 -3 17 0 11 14 -5 11 -8 29 -8
42 1 25 -15 30 -23 8z"/>
</g>
<g>
<path d="M2750 3410 c0 -5 7 -10 16 -10 8 0 12 5 9 10 -3 6 -10 10 -16 10 -5
0 -9 -4 -9 -10z"/>
</g>
<g>
<path d="M2700 3331 c0 -9 72 -21 131 -21 57 0 47 16 -13 24 -74 8 -118 8
-118 -3z"/>
</g>
<g>
<path d="M725 3650 c-3 -5 3 -10 14 -10 12 0 21 5 21 10 0 6 -6 10 -14 10 -8
0 -18 -4 -21 -10z"/>
</g>
<g>
<path d="M741 3621 c-19 -3 -36 -12 -39 -19 -4 -12 11 -11 71 5 16 4 25 24 10
22 -5 -1 -23 -4 -42 -8z"/>
</g>
<g>
<path d="M768 3594 c-66 -12 -120 -33 -88 -34 22 0 160 27 166 33 13 13 -16
13 -78 1z"/>
</g>
<g>
<path d="M370 3486 c0 -9 40 -13 46 -5 3 5 -6 9 -20 9 -14 0 -26 -2 -26 -4z"/>
</g>
<g>
<path d="M2442 3569 c2 -7 10 -15 17 -17 8 -3 12 1 9 9 -2 7 -10 15 -17 17 -8
3 -12 -1 -9 -9z"/>
</g>
<g>
<path d="M620 3680 c0 -7 24 -20 36 -20 13 0 1 19 -16 23 -11 3 -20 2 -20 -3z"/>
</g>
<g>
<path d="M1350 3036 c0 -10 4 -14 10 -11 6 4 7 -1 3 -10 -14 -37 43 -39 66 -3
15 25 15 26 -37 34 -35 5 -42 4 -42 -10z"/>
</g>
<g>
<path d="M1482 3038 c-20 -20 -14 -35 20 -47 35 -12 51 -1 40 28 -11 31 -39
40 -60 19z"/>
</g>
<g>
<path d="M1424 2918 c-3 -4 2 -11 10 -14 19 -7 52 3 42 13 -10 10 -46 11 -52
1z"/>
</g>
<g>
<path d="M1381 2887 c-14 -17 -4 -27 26 -27 13 0 23 -6 23 -14 0 -25 23 -30
40 -9 9 12 25 22 35 24 10 2 20 9 22 16 3 8 -11 10 -51 6 -35 -4 -61 -2 -69 6
-11 9 -17 8 -26 -2z"/>
</g>
<g>
<path d="M1242 2781 c16 -25 31 -27 26 -4 -2 10 -11 19 -21 21 -16 3 -17 1 -5
-17z"/>
</g>
<g>
<path d="M1145 2776 c-27 -12 -66 -46 -51 -46 3 0 20 9 38 20 18 11 41 20 50
20 9 0 20 5 23 10 9 14 -24 12 -60 -4z"/>
</g>
<g>
<path d="M1220 2729 c0 -5 5 -7 10 -4 6 3 10 8 10 11 0 2 -4 4 -10 4 -5 0 -10
-5 -10 -11z"/>
</g>
<g>
<path d="M1256 2718 c-3 -7 -7 -33 -10 -56 -5 -33 -3 -43 6 -40 14 5 26 39 27
81 1 27 -16 38 -23 15z"/>
</g>
<g>
<path d="M1160 2698 c1 -29 28 -102 40 -106 14 -5 8 45 -10 94 -10 25 -30 33
-30 12z"/>
</g>
<g>
<path d="M1045 2690 c-8 -13 14 -42 25 -35 10 6 1 45 -11 45 -4 0 -11 -5 -14
-10z"/>
</g>
<g>
<path d="M1102 2693 c2 -5 12 -32 23 -60 21 -56 53 -76 40 -25 -9 35 -44 92
-57 92 -5 0 -8 -3 -6 -7z"/>
</g>
<g>
<path d="M975 2640 c3 -5 17 -10 31 -10 13 0 24 5 24 10 0 6 -14 10 -31 10
-17 0 -28 -4 -24 -10z"/>
</g>
<g>
<path d="M1040 2613 c1 -12 69 -83 80 -83 19 0 10 27 -21 58 -29 30 -59 42
-59 25z"/>
</g>
<g>
<path d="M930 2584 c0 -11 5 -14 16 -10 9 3 22 6 30 6 8 0 14 5 14 10 0 6 -13
10 -30 10 -21 0 -30 -5 -30 -16z"/>
</g>
<g>
<path d="M1350 2568 c-34 -95 -52 -244 -27 -236 7 3 15 33 19 74 3 38 13 92
22 119 9 28 16 56 16 63 0 24 -18 12 -30 -20z"/>
</g>
<g>
<path d="M1396 2568 c-2 -7 -11 -38 -20 -68 -24 -79 -32 -166 -16 -185 21 -25
25 -18 27 46 2 54 12 102 39 197 5 16 2 22 -10 22 -9 0 -18 -6 -20 -12z"/>
</g>
<g>
<path d="M1020 2540 c0 -5 9 -14 19 -20 11 -5 29 -25 40 -44 18 -29 57 -53 69
-41 2 2 -15 29 -37 59 -31 42 -48 56 -66 56 -14 0 -25 -4 -25 -10z"/>
</g>
<g>
<path d="M900 2411 c0 -11 67 -71 80 -71 18 0 10 16 -23 48 -32 31 -57 41 -57
23z"/>
</g>
<g>
<path d="M840 2180 c0 -5 6 -10 14 -10 8 0 18 5 21 10 3 6 -3 10 -14 10 -12 0
-21 -4 -21 -10z"/>
</g>
<g>
<path d="M760 2150 c0 -5 4 -10 9 -10 6 0 13 5 16 10 3 6 -1 10 -9 10 -9 0
-16 -4 -16 -10z"/>
</g>
<g>
<path d="M1725 2759 c-4 -6 -5 -13 -2 -16 7 -7 27 6 27 18 0 12 -17 12 -25 -2z"/>
</g>
<g>
<path d="M1785 2732 c-16 -12 -36 -52 -25 -52 5 0 15 10 21 23 7 12 17 25 23
29 6 5 7 8 1 8 -5 0 -14 -4 -20 -8z"/>
</g>
<g>
<path d="M1795 2682 c-28 -43 -44 -102 -26 -102 6 0 14 18 17 41 4 22 18 54
31 70 14 16 20 29 14 29 -6 0 -22 -17 -36 -38z"/>
</g>
<g>
<path d="M1700 2695 c0 -9 7 -32 15 -51 22 -52 37 -33 17 21 -16 45 -32 59
-32 30z"/>
</g>
<g>
<path d="M1847 2672 c-27 -29 -33 -42 -19 -42 10 0 55 60 50 66 -3 2 -17 -9
-31 -24z"/>
</g>
<g>
<path d="M1540 2649 c0 -5 5 -7 10 -4 6 3 10 8 10 11 0 2 -4 4 -10 4 -5 0 -10
-5 -10 -11z"/>
</g>
<g>
<path d="M1660 2639 c0 -22 23 -105 33 -117 7 -9 7 -16 -1 -24 -14 -14 -16
-68 -3 -68 5 0 13 14 16 31 4 18 10 28 14 23 3 -5 16 -15 29 -22 19 -10 23
-10 28 3 14 37 -34 117 -64 107 -12 -4 -16 3 -26 51 -6 26 -26 39 -26 16z"/>
</g>
<g>
<path d="M1554 2585 c-3 -8 -1 -29 5 -46 6 -18 11 -56 11 -85 0 -41 4 -54 15
-54 19 0 20 71 3 147 -13 53 -24 66 -34 38z"/>
</g>
<g>
<path d="M1797 2563 c-12 -11 -8 -23 8 -23 8 0 15 7 15 15 0 16 -12 20 -23 8z"/>
</g>
<g>
<path d="M1857 2502 c-22 -24 -21 -32 1 -32 21 0 42 18 42 37 0 19 -24 16 -43
-5z"/>
</g>
<g>
<path d="M1537 2493 c-10 -10 -8 -133 2 -133 11 0 21 50 21 101 0 37 -8 48
-23 32z"/>
</g>
<g>
<path d="M1933 2455 c-31 -35 -47 -45 -71 -45 -27 0 -31 4 -34 32 -2 17 -8 33
-14 35 -18 6 -25 -38 -11 -67 11 -21 19 -25 50 -23 51 3 91 26 115 67 31 52
11 52 -35 1z"/>
</g>
<g>
<path d="M1470 2465 c0 -8 9 -15 20 -15 11 0 20 7 20 15 0 8 -9 15 -20 15 -11
0 -20 -7 -20 -15z"/>
</g>
<g>
<path d="M1463 2395 c-3 -9 -3 -18 0 -22 10 -10 37 6 37 22 0 20 -29 20 -37 0z"/>
</g>
<g>
<path d="M1580 2360 c0 -5 5 -10 10 -10 6 0 10 5 10 10 0 6 -4 10 -10 10 -5 0
-10 -4 -10 -10z"/>
</g>
<g>
<path d="M2036 2337 c-47 -14 -64 -42 -19 -31 31 8 83 32 83 39 0 7 -21 5 -64
-8z"/>
</g>
<g>
<path d="M2083 2303 c-14 -5 -18 -23 -5 -23 5 0 17 7 28 15 14 11 15 14 4 14
-8 0 -21 -3 -27 -6z"/>
</g>
<g>
<path d="M2010 2270 c0 -5 9 -10 19 -10 11 0 23 5 26 10 4 6 -5 10 -19 10 -14
0 -26 -4 -26 -10z"/>
</g>
<g>
<path d="M1747 2200 c-3 -13 -14 -20 -30 -20 -14 0 -29 -5 -33 -12 -5 -8 5 -9
37 -4 47 7 76 27 65 45 -11 18 -33 13 -39 -9z"/>
</g>
<g>
<path d="M966 2161 c-4 -7 -5 -15 -2 -18 9 -9 19 4 14 18 -4 11 -6 11 -12 0z"/>
</g>
<g>
<path d="M1200 2064 c0 -8 5 -12 10 -9 6 3 10 10 10 16 0 5 -4 9 -10 9 -5 0
-10 -7 -10 -16z"/>
</g>
<g>
<path d="M726 1845 c4 -10 16 -15 33 -13 37 4 32 22 -6 26 -27 3 -32 0 -27
-13z"/>
</g>
<g>
<path d="M595 1541 c-16 -15 4 -21 75 -21 85 0 115 19 33 21 -27 1 -61 2 -76
3 -15 1 -30 0 -32 -3z"/>
</g>
<g>
<path d="M1504 1763 c-7 -27 6 -60 22 -55 7 2 10 35 5 75 -2 18 -21 5 -27 -20z"/>
</g>
<g>
<path d="M1456 1772 c-3 -5 -9 -27 -15 -50 -7 -33 -6 -42 4 -42 14 0 19 11 30
68 6 30 -6 45 -19 24z"/>
</g>
<g>
<path d="M864 1638 c-34 -53 -48 -178 -20 -178 13 0 16 11 16 58 0 42 7 70 25
104 28 52 29 58 15 58 -5 0 -22 -19 -36 -42z"/>
</g>
<g>
<path d="M968 1618 c-19 -35 -22 -195 -7 -367 14 -162 15 -193 10 -324 -2 -43
0 -82 5 -87 11 -11 11 273 -1 535 -7 163 -5 195 8 228 17 40 6 52 -15 15z"/>
</g>
<g>
<path d="M1135 1494 c-9 -41 -14 -82 -11 -89 3 -8 6 -118 7 -245 1 -154 5
-245 14 -277 15 -56 19 -44 14 52 -7 135 -4 540 5 588 14 79 -10 55 -29 -29z"/>
</g>
<g>
<path d="M1192 1503 c-21 -71 -24 -141 -13 -259 6 -66 13 -179 16 -252 5 -142
11 -182 27 -182 6 0 7 34 3 88 -3 48 -7 132 -10 188 -2 56 -9 138 -16 183 -10
64 -10 97 0 162 7 44 15 87 18 95 3 8 1 14 -4 14 -6 0 -15 -17 -21 -37z"/>
</g>
<g>
<path d="M1064 989 c-3 -5 7 -9 22 -9 15 0 24 3 20 7 -11 11 -35 12 -42 2z"/>
</g>
<g>
<path d="M1073 933 c9 -2 25 -2 35 0 9 3 1 5 -18 5 -19 0 -27 -2 -17 -5z"/>
</g>
<g>
<path d="M1065 880 c3 -5 17 -10 31 -10 13 0 24 5 24 10 0 6 -14 10 -31 10
-17 0 -28 -4 -24 -10z"/>
</g>
<g>
<path d="M1150 810 c0 -5 5 -10 10 -10 6 0 10 5 10 10 0 6 -4 10 -10 10 -5 0
-10 -4 -10 -10z"/>
</g>
<g>
<path d="M1675 1529 c-10 -15 3 -25 16 -12 7 7 7 13 1 17 -6 3 -14 1 -17 -5z"/>
</g>
<g>
<path d="M1553 1514 c-12 -31 4 -176 22 -193 16 -15 16 -13 10 27 -4 24 -7 74
-7 112 -1 66 -11 89 -25 54z"/>
</g>
<g>
<path d="M1430 1508 c0 -6 -10 -22 -22 -35 -19 -21 -20 -23 -4 -23 14 0 17 -5
12 -25 -5 -18 -1 -27 14 -35 15 -8 19 -17 14 -32 -4 -14 -2 -18 5 -14 6 4 11
17 11 30 0 12 6 28 13 35 10 11 9 13 -6 8 -13 -5 -18 -2 -16 11 4 42 -2 92
-11 92 -5 0 -10 -5 -10 -12z"/>
</g>
<g>
<path d="M1496 1511 c-3 -4 -7 -40 -8 -80 -2 -39 -6 -71 -10 -71 -5 0 -8 -5
-8 -11 0 -5 4 -8 9 -4 5 3 12 -4 16 -15 3 -11 13 -20 22 -20 10 0 13 6 9 16
-3 9 -6 56 -6 105 0 79 -8 106 -24 80z"/>
</g>
<g>
<path d="M1690 1321 c0 -10 36 -21 44 -14 3 3 3 10 0 14 -7 12 -44 12 -44 0z"/>
</g>
<g>
<path d="M1624 885 c-16 -12 -17 -14 -3 -15 9 0 19 7 23 15 7 19 5 19 -20 0z"/>
</g>
</g>
<g>
<path d="M2993 5210 c0 -47 2 -66 4 -42 2 23 2 61 0 85 -2 23 -4 4 -4 -43z"/>
</g>
<g>
<path d="M1280 5125 c0 -10 10 -15 30 -15 30 0 30 -1 30 -55 0 -48 -3 -55 -19
-55 -11 0 -23 -4 -26 -10 -4 -7 50 -10 154 -10 101 0 161 4 161 10 0 6 -5 10
-10 10 -6 0 -22 12 -35 26 -24 26 -24 27 -8 55 10 16 25 32 35 35 48 15 3 22
-147 23 -141 1 -165 -1 -165 -14z m202 -43 c15 -24 15 -29 0 -54 -14 -24 -23
-28 -59 -28 l-43 0 0 43 c0 46 7 61 30 69 27 8 56 -4 72 -30z"/>
</g>
<g>
<path d="M835 4370 c3 -5 11 -10 16 -10 6 0 7 5 4 10 -3 6 -11 10 -16 10 -6 0
-7 -4 -4 -10z"/>
</g>
<g>
<path d="M2360 3768 c0 -18 18 -34 28 -24 3 4 -2 14 -11 23 -16 16 -17 16 -17
1z"/>
</g>
<g>
<path d="M1320 3581 c0 -16 17 -18 223 -25 122 -4 258 -13 302 -21 44 -7 89
-15 100 -17 14 -2 21 3 23 18 3 18 -3 22 -35 27 -71 12 -278 26 -445 31 -157
5 -168 4 -168 -13z"/>
</g>
<g>
<path d="M1382 3538 c2 -6 10 -14 16 -16 7 -2 10 2 6 12 -7 18 -28 22 -22 4z"/>
</g>
<g>
<path d="M51 3514 c0 -11 3 -14 6 -6 3 7 2 16 -1 19 -3 4 -6 -2 -5 -13z"/>
</g>
<g>
<path d="M1430 3520 c0 -16 111 -121 123 -117 23 7 15 24 -33 75 -45 47 -90
68 -90 42z"/>
</g>
<g>
<path d="M1537 3513 c-13 -13 -6 -22 37 -53 52 -35 66 -37 66 -10 0 12 -16 28
-43 45 -48 27 -50 28 -60 18z"/>
</g>
<g>
<path d="M1387 3493 c-6 -10 11 -161 19 -175 3 -4 9 -8 15 -8 10 0 11 122 0
159 -7 26 -25 38 -34 24z"/>
</g>
<g>
<path d="M825 3440 c-7 -12 70 -49 103 -50 12 0 22 5 22 10 0 6 -8 10 -18 10
-9 0 -34 9 -55 20 -43 23 -44 23 -52 10z"/>
</g>
<g>
<path d="M2952 2508 c7 -20 48 -23 48 -4 0 11 -9 16 -26 16 -16 0 -24 -5 -22
-12z"/>
</g>
<g>
<path d="M2952 2458 c7 -20 48 -23 48 -4 0 11 -9 16 -26 16 -16 0 -24 -5 -22
-12z"/>
</g>
<g>
<path d="M2971 2421 c-12 -8 -12 -12 -2 -25 11 -13 11 -16 -3 -16 -9 0 -16 -7
-16 -15 0 -9 9 -15 25 -15 23 0 25 4 25 40 0 41 -5 46 -29 31z"/>
</g>
<g>
<path d="M2967 2323 c-35 -5 -30 -27 6 -31 22 -3 27 1 27 17 0 12 -1 20 -2 20
-2 -1 -16 -4 -31 -6z"/>
</g>
<g>
<path d="M2950 2261 c0 -6 4 -12 10 -16 5 -3 7 -12 3 -20 -3 -9 1 -15 8 -15
10 0 10 -3 1 -12 -17 -17 -15 -28 7 -28 16 0 19 7 18 50 0 46 -2 50 -24 50
-12 0 -23 -4 -23 -9z"/>
</g>
<g>
<path d="M2980 2145 c0 -8 5 -15 10 -15 6 0 10 7 10 15 0 8 -4 15 -10 15 -5 0
-10 -7 -10 -15z"/>
</g>
<g>
<path d="M2967 2034 c-13 -13 -7 -24 14 -24 11 0 19 5 17 12 -5 14 -22 21 -31
12z"/>
</g>
<g>
<path d="M2957 1953 c-13 -12 -7 -21 18 -25 28 -6 36 16 9 26 -19 7 -19 7 -27
-1z"/>
</g>
<g>
<path d="M2953 1893 c-13 -2 -23 -11 -23 -19 0 -23 64 -14 68 9 3 17 -2 18
-45 10z"/>
</g>
<g>
<path d="M2949 1782 c-26 -11 -6 -52 26 -52 21 0 25 5 25 30 0 31 -15 37 -51
22z"/>
</g>
<g>
<path d="M2945 1699 c-4 -6 2 -13 14 -16 17 -4 19 -8 10 -19 -8 -10 -8 -14 0
-14 6 0 11 -9 11 -19 0 -11 5 -23 10 -26 6 -4 10 15 10 49 0 53 -1 56 -24 56
-14 0 -28 -5 -31 -11z"/>
</g>
<g>
<path d="M2970 1555 c0 -8 7 -15 15 -15 8 0 15 7 15 15 0 8 -7 15 -15 15 -8 0
-15 -7 -15 -15z"/>
</g>
<g>
<path d="M2978 1522 c-10 -2 -18 -10 -18 -18 0 -16 9 -18 29 -5 18 12 10 28
-11 23z"/>
</g>
<g>
<path d="M2957 1473 c-14 -13 -6 -23 18 -23 16 0 25 6 25 15 0 15 -31 21 -43
8z"/>
</g>
<g>
<path d="M2934 1408 c1 -19 7 -33 14 -32 7 1 21 2 32 3 15 1 20 8 20 31 0 27
-3 30 -34 30 -32 0 -34 -2 -32 -32z"/>
</g>
<g>
<path d="M2986 1331 c-4 -7 -5 -15 -2 -18 9 -9 19 4 14 18 -4 11 -6 11 -12 0z"/>
</g>
<g>
<path d="M2973 1273 c-13 -2 -23 -10 -23 -18 0 -8 7 -11 20 -8 11 3 20 1 20
-5 0 -5 -14 -12 -31 -16 -18 -3 -28 -10 -24 -16 4 -6 16 -8 27 -4 13 4 24 1
29 -7 6 -9 9 3 9 34 0 26 -1 46 -2 46 -2 -1 -13 -4 -25 -6z"/>
</g>
<g>
<path d="M2988 373 l-3 -358 -100 -6 -100 -5 108 -2 107 -2 0 365 c0 201 -2
365 -5 365 -3 0 -6 -161 -7 -357z"/>
</g>
<g>
<path d="M2750 611 c0 -6 7 -11 15 -11 8 0 15 -7 15 -15 0 -20 56 -20 63 0 8
18 0 23 -51 31 -29 4 -42 3 -42 -5z"/>
</g>
<g>
<path d="M2714 577 c-3 -8 -4 -20 -2 -27 2 -8 -10 -14 -32 -17 -19 -3 -39 -8
-44 -13 -16 -15 2 -37 36 -45 l33 -7 -33 -8 c-61 -14 -55 -35 13 -46 52 -7 60
-24 13 -24 -44 0 -67 -15 -50 -32 9 -9 15 -9 24 0 7 7 23 12 36 12 23 0 23 -1
21 -105 -2 -71 1 -109 9 -117 14 -14 15 -10 17 52 0 25 2 73 3 108 l2 62 81 0
c77 0 119 10 119 30 0 13 -90 27 -147 22 -35 -2 -53 0 -53 7 0 7 20 11 50 11
28 0 50 5 50 10 0 6 -21 10 -46 10 -27 0 -43 4 -39 10 3 6 24 10 46 10 21 0
39 5 39 11 0 7 -19 10 -53 7 -30 -2 -53 1 -55 7 -1 6 19 11 46 12 26 1 52 2
57 3 19 4 -40 18 -77 19 -31 1 -38 5 -38 20 0 25 -18 37 -26 18z m-4 -77 c0
-5 -6 -10 -14 -10 -8 0 -18 5 -21 10 -3 6 3 10 14 10 12 0 21 -4 21 -10z m10
-60 c0 -5 -4 -10 -10 -10 -5 0 -10 5 -10 10 0 6 5 10 10 10 6 0 10 -4 10 -10z
m194 -39 c3 -5 -1 -12 -10 -15 -35 -13 -144 -2 -144 15 0 12 147 12 154 0z"/>
</g>
<g>
<path d="M2805 330 c3 -5 10 -10 16 -10 5 0 9 5 9 10 0 6 -7 10 -16 10 -8 0
-12 -4 -9 -10z"/>
</g>
<g>
<path d="M175 10 c-50 -3 227 -7 614 -8 387 -1 702 0 699 3 -8 8 -1207 12
-1313 5z"/>
</g>
<g>
<path d="M2013 3 c9 -2 23 -2 30 0 6 3 -1 5 -18 5 -16 0 -22 -2 -12 -5z"/>
</g>
<g>
<path d="M2108 3 c18 -2 45 -2 60 0 15 2 0 4 -33 4 -33 0 -45 -2 -27 -4z"/>
</g>
<g>
<path d="M2233 3 c15 -2 37 -2 50 0 12 2 0 4 -28 4 -27 0 -38 -2 -22 -4z"/>
</g>
<g>
<path d="M2328 3 c7 -3 16 -2 19 1 4 3 -2 6 -13 5 -11 0 -14 -3 -6 -6z"/>
</g>
<g>
<path d="M2378 3 c7 -3 16 -2 19 1 4 3 -2 6 -13 5 -11 0 -14 -3 -6 -6z"/>
</g>
<g>
<path d="M2563 3 c15 -2 37 -2 50 0 12 2 0 4 -28 4 -27 0 -38 -2 -22 -4z"/>
</g>
</g>
</svg>
