<?xml version="1.0" standalone="no"?>
<!DOCTYPE svg PUBLIC "-//W3C//DTD SVG 20010904//EN"
 "http://www.w3.org/TR/2001/REC-SVG-20010904/DTD/svg10.dtd">
<svg version="1.0" xmlns="http://www.w3.org/2000/svg"
 width="300.000000pt" height="522.000000pt" viewBox="0 0 300.000000 522.000000"
 preserveAspectRatio="xMidYMid meet">
<metadata>
Created by potrace 1.15, written by Peter Selinger 2001-2017
</metadata>
<g transform="translate(0.000000,522.000000) scale(0.100000,-0.100000)"
fill="#000000" stroke="none">
<g>
<path d="M1 2610 c3 -2404 5 -2610 20 -2610 14 0 16 12 12 90 l-3 90 212 0
c117 1 296 3 398 5 102 3 285 7 408 10 l223 6 -13 -21 c-11 -18 -10 -23 7 -36
15 -11 50 -13 185 -10 164 5 218 14 254 45 16 14 68 17 380 22 385 7 721 11
824 10 l62 -1 0 -88 0 -89 -807 -8 c-445 -4 -977 -11 -1183 -15 -229 -4 91 -6
820 -4 657 1 1196 3 1198 3 2 1 1 895 -2 1988 -4 1094 -6 2266 -6 2606 l0 617
-1496 0 -1496 0 3 -2610z m1538 2513 l12 -27 25 27 c40 43 60 35 24 -10 -28
-36 -25 -52 19 -101 28 -30 46 -42 67 -42 17 0 24 -4 19 -9 -10 -10 -335 -20
-335 -11 0 3 14 11 30 17 30 11 30 12 30 87 l0 76 -45 0 c-25 0 -45 5 -45 10
0 6 38 10 93 10 92 0 94 -1 106 -27z m141 17 c0 -5 -6 -10 -14 -10 -8 0 -18 5
-21 10 -3 6 3 10 14 10 12 0 21 -4 21 -10z m-1155 -162 c3 -24 7 -126 8 -228
l2 -185 -27 -3 c-18 -2 -28 2 -29 10 0 7 0 58 0 113 0 55 -3 150 -7 210 -5 61
-7 113 -5 118 2 4 15 7 28 7 20 0 25 -6 30 -42z m105 -163 c0 -44 -3 -53 -15
-49 -11 5 -15 -1 -15 -20 0 -19 -5 -26 -19 -26 -21 0 -31 34 -31 106 l0 44 40
0 40 0 0 -55z m976 34 c604 -2 1353 -15 1363 -25 2 -2 2 -6 0 -9 -3 -2 -293
-7 -644 -11 -352 -3 -642 -8 -644 -10 -2 -2 287 -4 642 -4 367 0 647 -4 647
-9 0 -5 -188 -12 -417 -15 -230 -4 -634 -11 -898 -16 -264 -6 -598 -10 -743
-10 -261 0 -263 0 -260 21 3 20 7 20 503 26 275 3 502 7 504 9 2 2 -224 4
-502 4 l-507 0 0 25 0 24 153 3 c83 2 155 2 158 1 3 -1 294 -3 645 -4z m-1146
-54 l0 -55 -42 0 c-64 0 -167 21 -183 37 -22 21 -18 41 8 49 22 7 125 20 185
23 l32 1 0 -55z m-260 24 c16 -29 -5 -79 -33 -79 -23 0 -57 27 -57 44 0 6 7
22 16 34 19 28 60 29 74 1z m225 -329 c7 -216 5 -230 -41 -230 l-24 0 0 208
c0 115 3 212 7 215 3 4 16 7 28 7 22 0 22 -3 30 -200z m-85 -1 l0 -61 -97 4
c-54 2 -103 7 -109 10 -18 12 -4 67 18 74 12 3 54 6 95 6 54 0 76 4 80 14 10
26 13 14 13 -47z m188 7 c2 -27 -2 -54 -7 -59 -8 -8 -11 -2 -11 21 0 18 -4 32
-10 32 -5 0 -10 -20 -10 -45 0 -37 -3 -45 -19 -45 -25 0 -31 19 -31 91 l0 60
43 -3 42 -3 3 -49z m1885 28 c455 -6 557 -10 557 -21 0 -10 -41 -13 -202 -14
-358 -1 -771 -8 -776 -14 -3 -3 217 -5 488 -5 353 0 491 -3 483 -11 -7 -7
-200 -13 -589 -19 -894 -14 -1777 -30 -1801 -34 -19 -3 -23 1 -23 25 l0 29
658 2 c361 1 676 3 699 3 23 0 45 4 50 9 4 5 -297 7 -697 5 l-705 -4 -3 34 -3
34 653 -6 c359 -4 904 -10 1211 -13z m-2309 -10 c15 -14 14 -18 -5 -45 -23
-33 -23 -33 -50 -19 -27 15 -25 58 4 70 31 12 34 12 51 -6z m420 -186 c3 -24
7 -61 8 -82 l3 -40 60 3 60 2 -1 -60 c0 -33 -3 -64 -7 -67 -4 -4 -7 10 -7 32
0 29 -3 35 -10 24 -5 -8 -10 -27 -10 -42 0 -25 -4 -28 -35 -28 l-35 0 0 60 c0
33 -4 60 -8 60 -5 0 -9 -57 -9 -127 -1 -71 -2 -136 -2 -145 -1 -12 -9 -18 -26
-18 -24 0 -25 2 -25 68 0 37 -7 136 -16 220 -9 84 -13 160 -10 168 3 8 18 14
35 14 27 0 30 -3 35 -42z m916 -88 c0 -5 -9 -10 -21 -10 -11 0 -17 5 -14 10 3
6 13 10 21 10 8 0 14 -4 14 -10z m-1242 -62 c18 -15 15 -39 -8 -63 -45 -48
-101 6 -65 62 16 24 42 25 73 1z m250 -40 l3 -58 -83 1 c-46 1 -96 4 -113 8
-27 6 -30 10 -30 45 0 21 5 41 10 44 10 7 154 20 190 18 17 -1 20 -9 23 -58z
m2522 44 c0 -17 -13 -20 -127 -25 -71 -4 -588 -7 -1150 -7 -1015 0 -1023 0
-1023 20 0 20 8 20 628 23 345 1 862 3 1150 5 502 2 522 1 522 -16z m0 -51 c0
-9 -171 -14 -1125 -31 -319 -5 -712 -13 -872 -16 l-293 -6 0 26 0 26 618 2
c339 2 854 4 1145 6 307 1 527 -1 527 -7z m-2570 -177 l0 -87 48 5 c70 8 72 6
71 -70 -1 -37 -4 -57 -6 -44 -7 37 -26 26 -20 -13 6 -34 5 -35 -27 -35 l-34 0
-9 78 c-10 77 -10 76 -12 -65 l-1 -143 -28 0 -29 0 -6 108 c-4 59 -10 162 -13
230 l-7 122 36 0 37 0 0 -86z m1055 -44 c3 -5 1 -10 -4 -10 -6 0 -11 5 -11 10
0 6 2 10 4 10 3 0 8 -4 11 -10z m1515 -64 c0 -20 -175 -25 -1155 -32 -473 -3
-953 -7 -1067 -8 l-208 -2 0 28 0 28 1215 0 c1021 0 1215 -2 1215 -14z m-2890
-25 c5 -11 10 -28 10 -39 0 -23 -46 -50 -60 -36 -12 12 -22 73 -14 86 10 16
53 8 64 -11z m248 -33 l3 -48 -88 0 c-118 0 -133 5 -133 41 0 17 6 31 13 33
64 18 100 24 147 22 l55 -1 3 -47z m2637 13 c-6 -6 -175 -13 -395 -16 -493 -9
-571 -11 -945 -23 -170 -6 -484 -14 -697 -18 l-388 -7 0 22 c0 11 1 21 3 22 5
1 867 11 1552 18 391 4 748 8 795 9 53 1 80 -2 75 -7z m-2372 -193 c4 -62 7
-164 7 -225 0 -105 -1 -113 -19 -113 -31 0 -28 -22 -47 306 -4 62 -4 119 -1
128 4 9 17 16 30 16 23 0 24 -3 30 -112z m920 5 c-7 -2 -21 -2 -30 0 -10 3 -4
5 12 5 17 0 24 -2 18 -5z m-779 -60 c-1 -7 -2 -41 -4 -75 -2 -48 -4 -56 -9
-33 -7 34 -28 32 -23 -2 3 -27 -11 -36 -47 -28 -27 6 -29 10 -34 72 -4 36 -5
68 -3 72 2 3 30 6 63 6 40 0 58 -4 57 -12z m2236 -1 c0 -17 -13 -20 -127 -25
-71 -4 -258 -7 -418 -7 -159 0 -461 -5 -670 -10 -209 -5 -519 -10 -690 -11
-288 -2 -310 0 -313 16 -2 9 0 21 5 25 4 5 249 12 543 16 294 3 537 8 539 10
2 2 258 4 568 4 541 0 563 -1 563 -18z m-2762 -14 c16 -16 15 -59 -2 -80 -20
-27 -61 -23 -74 7 -16 35 -15 42 8 65 23 23 50 26 68 8z m312 -32 c0 -41 -2
-44 -31 -50 -40 -8 -163 -8 -211 0 -31 5 -37 11 -41 38 -2 17 -3 32 -2 34 3 3
175 17 253 21 31 1 32 0 32 -43z m2450 -6 c0 -5 -15 -10 -33 -10 -18 0 -136
-4 -262 -9 -127 -6 -342 -12 -480 -16 -137 -3 -281 -8 -320 -10 -38 -3 -236
-10 -440 -15 -203 -5 -441 -13 -527 -16 l-158 -6 0 30 0 30 373 6 c204 4 649
10 987 15 338 4 670 8 738 9 76 1 122 -2 122 -8z m-2533 -136 c-6 -49 -6 -49
54 -58 34 -6 37 -9 43 -50 10 -63 0 -90 -36 -104 -18 -6 -34 -10 -36 -7 -2 2
-8 39 -12 82 l-7 78 -2 -116 c0 -64 -4 -137 -7 -163 -6 -40 -10 -46 -30 -46
-16 0 -25 7 -28 23 -7 32 -15 380 -9 395 3 6 20 12 40 12 l34 0 -4 -46z m2533
-89 c0 -13 -23 -15 -147 -15 -82 0 -312 -3 -513 -6 -201 -2 -669 -9 -1040 -14
-371 -5 -683 -12 -692 -15 -13 -5 -18 -2 -18 10 0 12 5 15 19 10 13 -4 24 1
33 14 18 26 -3 25 1341 28 897 3 1017 1 1017 -12z m-2880 -45 c0 -55 -53 -81
-70 -34 -16 40 -12 60 13 71 32 15 57 -1 57 -37z m260 6 c0 -26 0 -49 0 -53 0
-11 -214 -2 -227 9 -7 6 -13 23 -13 39 0 29 -4 27 90 43 8 1 45 3 83 5 l67 2
0 -45z m2617 -22 c-2 -2 -294 -9 -648 -14 -354 -6 -882 -15 -1173 -20 -291 -5
-533 -7 -538 -4 -4 3 -8 13 -8 23 0 18 20 19 333 25 182 4 715 10 1182 14 703
6 851 5 853 -6 2 -8 2 -16 -1 -18z m-2400 -46 c-3 -7 -5 -2 -5 12 0 14 2 19 5
13 2 -7 2 -19 0 -25z m1 -264 c2 -214 1 -236 -13 -230 -9 3 -23 6 -31 6 -11 0
-14 22 -14 115 0 70 -4 115 -10 115 -5 0 -10 -11 -10 -25 l0 -25 -104 0 c-57
0 -118 3 -135 6 -27 6 -31 11 -31 39 0 22 6 35 18 40 31 14 252 19 252 6 0 -6
3 -11 8 -11 4 0 5 45 4 100 l-4 100 34 0 33 0 3 -236z m742 96 c0 -5 -7 -10
-16 -10 -8 0 -12 5 -9 10 3 6 10 10 16 10 5 0 9 -4 9 -10z m-574 -78 c2 -34
-1 -64 -7 -67 -5 -4 -9 1 -9 9 0 9 -4 16 -10 16 -5 0 -10 -9 -10 -19 0 -15 -9
-20 -47 -23 -27 -3 -51 -2 -55 1 -4 3 -10 36 -14 73 l-7 67 69 3 c38 2 73 3
78 3 5 -1 11 -29 12 -63z m1261 47 l971 -1 4 -40 c2 -22 1 -41 -3 -44 -4 -2
-186 -7 -405 -10 -399 -7 -399 -7 -418 15 l-19 21 416 0 c277 0 417 3 417 10
0 7 -114 10 -342 8 -189 -2 -421 -1 -517 2 -135 4 -175 2 -179 -8 -2 -6 -8
-10 -13 -6 -5 3 -266 5 -579 4 -384 0 -570 3 -571 10 -5 29 -2 35 21 41 14 4
75 5 135 3 61 -1 547 -4 1082 -5z m-1799 -56 c-3 -36 -5 -38 -38 -38 -32 0
-35 2 -35 30 0 29 9 35 68 44 5 0 7 -16 5 -36z m1837 -33 c43 -16 24 -21 -39
-9 -32 6 -65 8 -74 4 -25 -9 -7 5 30 24 26 14 35 15 44 5 6 -7 23 -18 39 -24z
m35 24 c0 -2 -9 -4 -21 -4 -11 0 -18 4 -14 10 5 8 35 3 35 -6z m-190 -3 c0 -5
-17 -16 -37 -24 -31 -12 -132 -16 -560 -22 l-523 -8 0 27 0 26 553 3 c303 1
555 3 560 5 4 1 7 -2 7 -7z m241 -11 c5 0 9 -4 9 -10 0 -16 -26 -12 -41 7 -12
15 -12 16 4 10 10 -4 23 -7 28 -7z m-147 -38 c3 -5 -18 -15 -45 -24 -57 -17
-64 -1 -8 19 42 15 47 15 53 5z m-132 -34 c-7 -7 -12 -8 -12 -2 0 14 12 26 19
19 2 -3 -1 -11 -7 -17z m258 1 c21 -17 21 -20 5 -14 -11 3 -32 9 -48 12 -38 8
-45 23 -10 23 15 0 39 -10 53 -21z m-1639 -28 c4 -19 3 -61 -2 -95 -5 -34 -9
-128 -8 -211 0 -82 -2 -152 -5 -154 -4 -2 -20 -1 -37 3 l-30 6 1 245 1 246 37
-3 c32 -3 37 -7 43 -37z m1553 23 c9 -3 16 -9 16 -13 0 -10 -118 -46 -126 -38
-3 3 14 11 38 17 72 20 75 23 43 30 -23 6 -25 8 -8 9 12 0 28 -2 37 -5z m102
-34 c8 0 14 -4 14 -8 0 -5 -13 -7 -30 -4 -16 2 -30 9 -30 14 0 6 7 7 16 4 9
-3 22 -6 30 -6z m-317 -36 c2 -2 -12 -4 -33 -4 -22 0 -35 4 -31 10 5 9 52 4
64 -6z m319 -11 c-10 -2 -26 -2 -35 0 -10 3 -2 5 17 5 19 0 27 -2 18 -5z m-98
-52 c-18 -45 -7 -64 32 -56 47 10 118 46 134 69 7 11 16 17 20 13 11 -11 -35
-64 -71 -81 -19 -9 -35 -21 -35 -26 0 -14 4 -13 47 11 21 11 48 32 60 47 13
15 23 21 23 14 0 -18 -41 -72 -55 -72 -6 0 -22 -12 -36 -27 l-24 -27 28 18
c16 10 31 15 35 12 7 -8 -9 -25 -40 -40 -12 -7 -22 -19 -21 -27 1 -7 -12 -23
-30 -34 -57 -36 -70 -79 -77 -265 -7 -173 -18 -220 -62 -267 -17 -18 -24 -20
-39 -10 -18 11 -19 26 -19 200 l0 188 35 85 c28 66 35 98 35 149 0 35 4 66 9
69 5 3 18 27 30 52 24 50 42 54 21 5z m-143 17 c4 -7 8 -17 8 -22 0 -5 6 -11
13 -13 6 -3 12 0 12 7 0 6 4 9 9 5 6 -3 15 3 21 14 6 12 16 18 25 15 21 -8 19
-27 -6 -59 -18 -21 -22 -39 -20 -86 2 -62 -3 -68 -34 -45 -17 12 -23 11 -51
-10 -17 -13 -33 -24 -36 -24 -3 0 -20 29 -37 64 -18 35 -43 74 -57 87 -13 12
-24 26 -24 30 0 15 44 32 100 39 30 4 58 8 62 9 4 0 10 -5 15 -11z m268 2 c-3
-5 -10 -10 -16 -10 -5 0 -9 5 -9 10 0 6 7 10 16 10 8 0 12 -4 9 -10z m-442
-78 c40 -38 67 -81 67 -104 0 -7 -8 -3 -18 9 -12 17 -21 20 -32 13 -8 -5 -25
-10 -37 -10 -13 0 -23 -4 -23 -9 0 -5 20 -6 45 -3 36 4 45 2 45 -11 0 -9 8
-21 18 -26 14 -9 15 -12 2 -20 -12 -9 -12 -12 0 -28 37 -45 53 -91 45 -130 -5
-21 -7 -50 -6 -65 1 -15 -4 -64 -13 -110 -12 -68 -16 -185 -6 -208 6 -14 23
76 31 160 17 194 21 221 33 217 8 -3 12 -81 14 -260 2 -249 2 -257 -17 -257
-11 0 -23 -4 -26 -10 -12 -19 -36 -10 -46 18 -10 25 -12 26 -23 10 -18 -24
-29 -23 -21 2 4 14 2 20 -9 20 -31 0 -33 65 -5 210 7 36 13 83 13 104 1 24 6
41 15 44 9 3 11 -1 6 -17 -4 -12 -2 -21 4 -21 14 0 14 37 1 45 -6 3 -19 3 -31
0 -15 -5 -20 -14 -17 -35 1 -15 -2 -34 -8 -41 -6 -8 -14 -39 -18 -71 -3 -31
-10 -66 -14 -78 -8 -20 -10 -19 -36 19 -19 27 -26 46 -21 58 4 10 11 36 15 58
5 22 12 51 15 65 12 41 -14 9 -30 -36 -10 -31 -19 -40 -40 -42 -25 -3 -27 -1
-21 20 16 57 18 78 7 78 -6 0 -11 -7 -11 -15 0 -18 -16 -20 -23 -2 -8 20 8 99
27 136 10 18 33 55 52 81 37 51 44 71 18 49 -27 -23 -94 -132 -105 -171 -14
-52 -14 -100 -1 -125 7 -12 12 -31 12 -42 0 -12 11 -24 30 -32 34 -16 38 -35
44 -249 5 -149 8 -166 38 -173 18 -5 18 -8 -13 -41 -18 -20 -35 -36 -39 -36
-18 0 -34 105 -36 225 -2 153 -5 171 -15 90 -6 -47 -7 -37 -5 48 4 161 -17
118 -26 -56 -6 -115 -5 -156 9 -214 9 -40 21 -73 27 -73 6 0 17 -9 23 -19 10
-16 9 -24 -6 -43 -10 -13 -32 -49 -48 -82 l-29 -58 -17 25 c-9 14 -21 44 -26
67 -10 44 -17 57 -27 47 -10 -10 26 -117 46 -137 18 -18 18 -21 3 -59 -9 -23
-19 -41 -23 -41 -20 0 -61 59 -85 123 -26 71 -27 74 -20 242 3 94 9 183 12
199 4 24 2 28 -11 23 -21 -8 -21 -10 19 133 19 68 39 157 46 199 7 42 16 81
21 88 5 7 5 14 -1 17 -13 8 -16 1 -30 -64 -25 -113 -44 -188 -72 -290 -39
-140 -64 -380 -50 -482 5 -40 8 -74 6 -77 -3 -2 -20 13 -39 33 -42 47 -53 107
-31 186 8 30 22 89 29 131 19 102 83 351 106 415 10 29 26 80 35 115 23 92
141 330 160 323 8 -3 24 2 37 11 l23 17 -22 -5 c-12 -3 -24 0 -27 7 -9 20 -80
-70 -105 -133 -13 -34 -35 -73 -48 -87 -20 -22 -28 -43 -24 -67 0 -4 -8 -16
-18 -26 -11 -11 -33 -62 -49 -113 -29 -89 -33 -119 -11 -88 8 12 9 11 5 -5 -3
-11 -8 -33 -12 -50 -4 -16 -11 -33 -16 -36 -15 -10 -83 -272 -110 -424 -6 -33
-16 -73 -23 -90 -31 -73 -28 -193 4 -202 21 -6 67 -63 50 -63 -7 0 -32 20 -56
45 -41 43 -43 48 -43 105 0 32 4 61 9 65 5 3 12 36 16 73 6 68 17 119 55 252
26 91 39 142 85 335 31 129 56 199 94 265 5 8 28 54 50 103 54 112 104 167
154 167 19 0 37 -4 39 -10 2 -6 8 -6 18 0 13 9 13 11 0 21 -11 8 -7 9 20 5 21
-4 50 -21 73 -44z m377 32 c0 -2 -9 -4 -20 -4 -11 0 -20 4 -20 9 0 5 9 7 20 4
11 -3 20 -7 20 -9z m-1093 0 c-3 -3 -12 -4 -19 -1 -8 3 -5 6 6 6 11 1 17 -2
13 -5z m1812 -19 c96 -4 148 -2 156 5 20 16 21 4 15 -100 -4 -52 -7 -74 -8
-49 l-2 47 -379 -6 -380 -5 6 22 c5 20 12 21 99 21 56 0 94 4 94 10 0 6 -38
10 -95 10 -57 0 -95 4 -95 10 0 6 5 10 10 10 6 0 10 6 10 14 0 12 33 13 200 9
179 -4 201 -2 207 12 3 11 8 13 12 6 4 -7 64 -13 150 -16z m-2253 7 c6 -4 14
-16 19 -27 8 -19 9 -19 12 3 3 12 11 22 19 22 15 0 17 -23 6 -85 -7 -38 -8
-39 -16 -15 -9 25 -9 25 -13 -7 -4 -29 -7 -31 -48 -35 -43 -3 -43 -2 -49 32
-8 47 -7 105 1 113 9 9 55 9 69 -1z m-459 -32 c6 -31 23 -42 23 -15 0 15 20
20 125 30 33 3 75 9 93 12 l32 5 0 -57 0 -57 -107 5 c-60 3 -123 8 -140 12
-27 6 -33 4 -33 -9 0 -13 -8 -17 -32 -14 -31 3 -33 5 -36 48 -3 60 2 70 38 70
26 0 31 -5 37 -30z m1369 17 c4 -4 -3 -16 -16 -27 -22 -19 -37 -20 -417 -20
l-393 0 0 24 c0 22 5 25 48 29 85 7 770 2 778 -6z m-50 -69 c1 -2 -4 -11 -11
-22 -13 -17 -39 -18 -389 -24 -343 -5 -376 -4 -382 11 -16 42 -14 42 391 40
213 -2 389 -4 391 -5z m708 -100 c-4 -7 -16 -24 -26 -38 -22 -31 -38 -136 -38
-262 0 -116 -14 -190 -41 -214 -21 -19 -38 -12 -22 8 29 37 47 127 48 248 3
163 10 203 45 240 28 30 47 40 34 18z m-1566 -5 c24 -6 24 -6 20 -152 -1 -80
1 -181 5 -225 9 -85 1 -106 -38 -106 -21 0 -23 6 -29 73 -4 39 -4 146 -1 237
3 91 5 168 5 173 0 9 8 9 38 0z m162 -163 c25 -5 159 -9 298 -10 l252 -1 0
-25 0 -24 -192 -2 c-281 -4 -300 -3 -313 16 -19 25 -23 19 -22 -30 2 -52 -17
-71 -27 -29 -8 31 -26 24 -26 -11 0 -22 -4 -24 -44 -24 l-43 0 -6 48 c-3 26
-3 59 0 75 5 24 10 27 42 27 20 -1 56 -5 81 -10z m2265 -20 c0 -13 -31 -16
-190 -21 -287 -10 -703 -10 -709 -1 -20 33 62 37 684 37 184 0 215 -2 215 -15z
m-2762 -4 c25 -19 21 -59 -8 -86 -21 -20 -30 -22 -53 -14 -23 8 -27 15 -27 49
0 32 5 42 25 52 31 16 41 16 63 -1z m277 -35 c0 -29 -5 -53 -12 -58 -14 -9
-154 -8 -205 2 -28 5 -33 10 -33 34 0 16 6 34 14 40 19 16 89 29 169 30 l67 1
0 -49z m841 -32 c-12 -39 -25 -69 -27 -66 -3 3 5 37 17 76 13 39 25 69 27 66
2 -2 -6 -36 -17 -76z m1648 26 c18 -18 -62 -24 -455 -30 -331 -5 -443 -4 -449
5 -4 6 -4 14 0 18 7 8 781 21 854 15 25 -1 47 -5 50 -8z m-1731 -32 c-3 -16
-24 -18 -246 -21 -238 -3 -242 -3 -242 18 0 20 5 20 246 20 228 0 245 -1 242
-17z m387 -263 c-6 -9 -9 -9 -16 1 -10 17 0 34 13 21 6 -6 7 -16 3 -22z m36
-141 l-7 -44 -7 34 c-4 18 -7 57 -6 85 l0 51 13 -41 c8 -24 10 -59 7 -85z
m-357 -137 c-7 -191 0 -236 49 -319 19 -34 18 -51 -2 -38 -58 35 -87 301 -55
503 12 75 15 20 8 -146z m-107 56 c-3 -8 -6 -5 -6 6 -1 11 2 17 5 13 3 -3 4
-12 1 -19z m473 -56 c0 -7 -4 -10 -10 -7 -5 3 -10 16 -10 28 0 18 2 19 10 7 5
-8 10 -21 10 -28z m315 18 c8 -13 -35 -13 -55 0 -11 7 -7 10 17 10 17 0 35 -4
38 -10z m-62 -22 c35 -13 34 -23 -2 -38 -17 -6 -49 -30 -73 -52 -35 -32 -46
-38 -60 -29 -10 6 -31 11 -48 11 -16 0 -30 5 -30 11 0 6 -9 8 -20 4 -16 -5
-20 -2 -20 14 0 28 40 29 47 1 6 -22 23 -27 23 -7 0 13 30 20 83 20 16 0 27 5
27 13 0 8 5 14 10 14 13 0 13 27 -1 35 -6 4 -13 -2 -16 -14 -3 -13 -13 -21
-27 -21 -11 0 -27 -4 -34 -9 -17 -10 -113 9 -106 21 24 38 173 54 247 26z
m207 -2 c0 -7 -10 -18 -23 -23 -19 -9 -26 -8 -35 8 -17 26 -16 27 23 27 21 0
35 -5 35 -12z m105 -28 c-7 -31 -6 -32 9 -13 8 11 16 26 16 33 0 7 13 12 31
12 34 0 35 3 -23 -81 -31 -44 -44 -56 -59 -52 -20 5 -20 6 1 20 11 8 17 19 14
25 -4 7 -10 5 -16 -6 -5 -9 -22 -16 -39 -16 -18 0 -28 -4 -24 -10 4 -6 -12
-10 -39 -10 -25 0 -46 3 -46 8 0 10 61 85 80 97 21 14 50 23 78 24 21 1 23 -2
17 -31z m313 17 c3 -2 -1 -12 -9 -21 -8 -9 -21 -35 -30 -58 l-17 -41 -111 -3
c-96 -2 -111 -1 -111 13 0 16 45 82 65 97 5 4 6 8 2 8 -5 0 -6 4 -3 8 5 9 205
6 214 -3z m157 -20 c51 -10 60 -14 57 -31 -2 -10 -11 -26 -21 -34 -10 -9 -15
-22 -13 -30 4 -11 0 -11 -21 3 -29 19 -37 21 -37 9 0 -4 10 -12 22 -17 12 -6
23 -16 26 -22 6 -19 -28 -16 -35 3 -5 15 -7 15 -15 0 -8 -14 -13 -15 -24 -5
-11 9 -18 9 -26 1 -16 -16 -28 -15 -28 3 0 17 -16 20 -25 5 -3 -5 -17 -10 -31
-10 -28 0 -28 10 3 83 17 40 65 70 93 60 8 -3 42 -11 75 -18z m-759 -39 c-4
-15 -1 -26 7 -29 6 -3 -9 -6 -35 -6 -56 -1 -61 11 -15 39 42 26 50 25 43 -4z
m898 12 c4 -8 8 -9 11 -3 6 11 115 7 115 -4 0 -5 -30 -11 -66 -14 -37 -4 -73
-12 -81 -18 -20 -17 -12 -52 15 -64 28 -12 29 -25 1 -18 -11 3 -27 17 -36 30
-12 18 -19 21 -27 12 -8 -8 -8 -13 2 -16 6 -3 12 -11 12 -19 0 -10 -6 -11 -22
-5 -29 10 -28 14 1 79 19 40 30 52 47 52 12 0 25 -6 28 -12z m-2734 -18 c0 -5
-7 -10 -16 -10 -8 0 -12 -4 -9 -10 3 -5 21 -10 40 -10 37 0 119 -32 130 -50 4
-7 23 -19 42 -27 19 -8 32 -17 29 -20 -3 -4 -17 0 -31 7 -38 20 -40 5 -3 -19
32 -21 32 -21 6 -15 -26 6 -27 4 -23 -27 5 -44 -4 -79 -21 -79 -16 0 -19 -16
-4 -25 16 -10 11 -28 -6 -21 -9 3 -25 0 -36 -8 -14 -10 -28 -12 -43 -6 -13 5
-35 7 -48 4 -18 -3 -29 3 -41 21 -9 14 -23 25 -30 25 -20 0 -40 27 -26 35 7 4
8 11 2 18 -9 12 -14 205 -5 220 6 11 93 8 93 -3z m1533 -10 c4 -16 0 -20 -20
-20 -25 0 -26 0 -8 20 10 11 19 20 20 20 2 0 5 -9 8 -20z m351 4 c8 -22 8 -24
-7 -24 -7 0 -13 9 -14 20 -2 24 12 27 21 4z m46 -24 c0 -5 -4 -10 -10 -10 -5
0 -10 5 -10 10 0 6 5 10 10 10 6 0 10 -4 10 -10z m-72 -20 c40 0 52 -4 52 -15
0 -22 -71 -115 -88 -115 -7 0 -10 -4 -7 -10 4 -6 -27 -10 -84 -10 -50 0 -91 2
-91 4 0 3 16 32 36 66 25 41 42 59 51 56 11 -5 13 -1 8 16 -7 20 -5 21 31 15
22 -4 63 -7 92 -7z m886 -6 c4 -10 1 -14 -6 -12 -15 5 -23 28 -10 28 5 0 13
-7 16 -16z m-1080 0 c22 -8 20 -30 -5 -65 -16 -23 -23 -26 -34 -16 -8 8 -10
18 -4 28 5 10 3 24 -7 37 -14 21 -14 22 10 22 13 0 31 -3 40 -6z m1156 2 c0
-9 -30 -14 -35 -6 -4 6 3 10 14 10 12 0 21 -2 21 -4z m-1750 -56 c7 -19 28
-54 47 -77 20 -25 31 -48 27 -57 -8 -22 -15 -20 -52 13 -26 24 -32 38 -32 70
0 22 -4 42 -9 45 -13 9 -23 -46 -15 -79 5 -20 4 -26 -5 -21 -14 9 -14 83 0
125 13 36 19 33 39 -19z m402 30 c-47 -29 -44 -61 9 -78 22 -7 44 -10 49 -7 5
3 11 1 15 -5 11 -18 -24 -23 -69 -10 -33 9 -49 9 -65 1 -24 -14 -25 -11 -9 26
21 49 56 89 79 90 19 2 18 -1 -9 -17z m638 3 c2 -2 -1 -12 -7 -22 -6 -9 -23
-41 -38 -69 -27 -52 -55 -69 -55 -33 0 10 10 25 22 33 23 15 23 16 6 51 -15
32 -21 36 -47 32 -17 -2 -41 -11 -53 -19 -29 -21 -44 -21 -24 0 9 8 16 19 16
24 0 5 12 10 28 12 31 4 145 -3 152 -9z m-540 -3 c0 -5 -4 -10 -10 -10 -5 0
-10 5 -10 10 0 6 5 10 10 10 6 0 10 -4 10 -10z m780 -27 c0 -23 -28 -122 -37
-133 -3 -3 -11 4 -19 14 -8 11 -14 16 -14 10 0 -5 -11 -9 -25 -9 -19 0 -23 4
-19 18 3 9 1 17 -5 17 -5 0 -13 -9 -16 -20 -3 -11 -11 -20 -16 -20 -5 0 -9 9
-9 20 0 11 -4 20 -10 20 -5 0 -10 -9 -10 -19 0 -11 -4 -23 -10 -26 -5 -3 -10
1 -10 9 0 9 -4 16 -10 16 -5 0 -10 -4 -10 -10 0 -5 -13 -10 -30 -10 -34 0 -39
19 -16 60 8 14 22 39 31 57 16 31 20 32 83 35 37 2 86 1 110 -1 37 -3 42 -6
42 -28z m510 12 c0 -8 -9 -15 -20 -15 -20 0 -26 11 -13 23 12 13 33 7 33 -8z
m-257 -15 c14 -13 -12 -52 -30 -45 -9 3 -20 0 -24 -6 -4 -8 -9 -5 -13 9 -8 26
-28 33 -67 25 -57 -11 -78 -88 -24 -88 10 0 20 -6 23 -13 6 -20 -36 -14 -57 9
-14 16 -18 30 -14 50 3 18 1 29 -6 29 -6 0 -11 -15 -11 -34 0 -19 -4 -38 -10
-41 -18 -11 -11 -24 16 -31 16 -4 22 -10 16 -16 -14 -14 -62 2 -62 20 0 8 7
40 16 71 9 31 18 61 19 66 3 12 216 8 228 -5z m247 -21 c0 -6 -11 -46 -24 -88
-14 -42 -30 -119 -36 -171 -7 -52 -14 -98 -17 -102 -2 -5 -22 -8 -44 -8 -21 0
-39 3 -39 8 0 4 -21 7 -47 7 -31 0 -48 4 -49 13 -1 6 -2 19 -3 27 -1 19 -21
20 -21 1 0 -22 -19 -30 -26 -12 -9 23 18 106 34 106 9 0 10 5 3 19 -6 10 -7
21 -4 25 3 3 54 6 111 6 58 0 102 3 99 7 -4 4 -51 9 -105 12 -107 7 -100 0
-85 81 14 75 23 80 144 80 74 0 109 -4 109 -11z m-910 -59 c11 0 20 -7 20 -15
0 -22 -15 -18 -46 10 l-27 25 -15 -30 c-14 -29 -32 -40 -32 -20 0 6 12 29 27
51 l26 40 13 -30 c9 -20 20 -31 34 -31z m560 50 c0 -5 -7 -10 -16 -10 -8 0
-12 5 -9 10 3 6 10 10 16 10 5 0 9 -4 9 -10z m-1553 -50 c2 -42 30 -110 45
-110 5 0 8 -4 8 -10 0 -16 -47 -11 -54 6 -3 8 -11 12 -16 9 -8 -5 -7 -11 1
-21 6 -8 8 -15 3 -16 -5 0 14 -4 41 -8 l50 -7 -67 -1 c-110 -3 -80 -22 34 -22
56 0 99 -2 97 -4 -2 -2 -88 -7 -191 -11 -130 -4 -188 -3 -188 4 0 7 -27 11
-70 11 -69 0 -96 -15 -42 -23 15 -2 -57 -5 -160 -6 -120 0 -188 3 -188 9 0 6
-25 10 -57 10 -54 0 -55 1 -40 18 10 10 17 29 17 42 0 13 8 41 17 62 13 28 23
38 40 38 13 0 23 5 23 10 0 6 7 10 16 10 10 0 14 6 10 15 -4 11 2 15 27 15 18
0 37 4 43 10 10 10 138 15 414 15 l185 0 2 -45z m1513 36 c0 -3 -4 -8 -10 -11
-5 -3 -10 -1 -10 4 0 6 5 11 10 11 6 0 10 -2 10 -4z m-845 -36 c-3 -5 -10 -10
-16 -10 -5 0 -9 5 -9 10 0 6 7 10 16 10 8 0 12 -4 9 -10z m1235 -35 c-5 -22
-7 -50 -3 -62 5 -21 -6 -31 -19 -18 -5 6 7 87 17 114 11 28 14 5 5 -34z
m-1613 -76 c30 -16 29 -29 0 -29 -30 0 -62 43 -71 95 l-6 40 27 -47 c15 -26
38 -53 50 -59z m218 91 c6 -9 -9 -18 -63 -35 -19 -6 -23 -4 -20 11 1 9 11 18
21 20 11 1 21 5 25 8 9 9 30 7 37 -4z m120 0 c4 -6 -13 -10 -44 -10 -28 0 -51
5 -51 10 0 6 20 10 44 10 25 0 48 -4 51 -10z m1005 6 c0 -21 -26 -67 -42 -71
-20 -7 -51 22 -42 37 8 12 32 9 37 -4 3 -8 9 -1 16 15 6 15 15 27 21 27 5 0
10 -2 10 -4z m-663 -12 c-3 -3 -12 -4 -19 -1 -8 3 -5 6 6 6 11 1 17 -2 13 -5z
m-101 -15 c6 -10 -5 -43 -42 -124 -8 -16 -20 -47 -28 -67 -12 -30 -20 -38 -40
-38 -16 0 -26 6 -26 15 0 8 9 15 20 15 12 0 20 7 20 16 0 9 -9 18 -20 21 -28
7 -25 33 4 33 37 0 76 37 76 71 0 25 -6 33 -35 45 -19 7 -38 14 -43 14 -17 0
-102 -73 -102 -88 0 -20 29 -52 47 -52 7 0 13 -7 13 -16 0 -13 -7 -15 -36 -10
-31 6 -35 5 -32 -11 2 -12 12 -18 33 -18 20 0 31 -6 33 -17 3 -16 -5 -18 -57
-18 -66 0 -73 8 -52 62 5 13 17 48 26 78 33 99 34 100 141 100 56 0 95 -4 100
-11z m-698 -39 c21 0 60 -45 49 -57 -13 -12 -57 8 -87 40 -36 39 -42 72 -7 39
13 -12 33 -22 45 -22z m453 8 c-5 -13 -20 -60 -33 -106 -14 -49 -27 -80 -34
-78 -6 3 -30 0 -53 -5 -34 -7 -45 -6 -57 6 -19 19 -35 19 -28 1 5 -13 -22 -36
-41 -36 -10 0 6 142 20 176 10 25 22 34 66 47 30 8 80 16 111 16 56 1 57 0 49
-21z m449 12 c0 -5 -8 -10 -18 -10 -10 0 -27 -6 -37 -14 -16 -11 -17 -17 -7
-29 7 -8 10 -22 6 -31 -3 -9 -1 -16 5 -16 6 0 11 9 11 20 0 11 5 20 10 20 18
0 2 -64 -16 -66 -24 -2 -44 -18 -44 -35 0 -22 -51 -40 -58 -21 -4 14 -29 16
-34 4 -4 -11 -78 -23 -78 -13 0 4 18 47 40 96 29 67 45 92 62 97 37 10 158 9
158 -2z m-305 -10 c-3 -5 -11 -10 -16 -10 -6 0 -7 5 -4 10 3 6 11 10 16 10 6
0 7 -4 4 -10z m589 1 c3 -5 -1 -14 -9 -21 -8 -7 -13 -16 -10 -20 3 -5 0 -40
-7 -79 l-12 -72 -136 3 -135 3 3 30 c2 17 12 60 24 98 l20 67 128 0 c71 0 131
-4 134 -9z m171 -1 c3 -5 -1 -10 -9 -10 -9 0 -16 5 -16 10 0 6 4 10 9 10 6 0
13 -4 16 -10z m-465 -18 c0 -13 -12 -22 -22 -16 -10 6 -1 24 13 24 5 0 9 -4 9
-8z m473 -14 c70 -3 84 -9 70 -30 -24 -38 -42 -161 -25 -172 5 -3 61 -8 126
-12 l118 -7 -6 -41 c-4 -23 -9 -65 -13 -94 -4 -40 -9 -52 -20 -48 -8 4 -24 6
-34 6 -11 0 -17 5 -14 10 9 15 -19 12 -51 -5 -31 -16 -35 -15 52 -20 61 -3 64
-7 58 -88 -6 -94 -12 -119 -27 -114 -7 2 -10 11 -8 18 2 8 6 39 9 69 5 67 -7
81 -77 88 -44 4 -51 2 -65 -21 -11 -16 -15 -34 -10 -52 6 -24 4 -26 -13 -21
-14 4 -23 1 -27 -9 -3 -8 -12 -15 -21 -15 -12 0 -15 13 -15 63 0 81 7 92 58
83 23 -3 43 -2 47 3 3 6 -14 11 -37 13 -41 3 -43 5 -46 36 -2 18 2 56 8 84 9
45 8 69 -4 57 -2 -2 -9 -42 -14 -88 -6 -46 -14 -87 -20 -93 -5 -5 -21 -6 -35
-3 l-27 7 23 18 c12 10 18 22 13 27 -5 4 -11 2 -13 -4 -6 -16 -45 -17 -61 -1
-9 9 -2 17 28 35 71 43 46 107 -39 101 -46 -3 -46 -3 -49 -41 -2 -26 2 -45 14
-58 20 -23 11 -38 -14 -23 -14 9 -21 7 -35 -12 -18 -25 -6 -44 16 -25 7 5 26
8 42 6 17 -2 33 -4 38 -4 4 -1 7 -5 7 -11 0 -5 -26 -11 -57 -12 -52 -1 -53 -2
-13 -5 102 -7 150 -15 144 -24 -3 -5 -10 -7 -15 -4 -5 4 -12 -1 -15 -10 -4
-10 -14 -14 -28 -10 -11 2 -16 2 -10 -1 7 -3 9 -15 6 -27 -5 -19 -3 -20 10
-10 17 15 29 7 21 -13 -3 -8 0 -14 6 -14 6 0 11 16 11 35 0 26 4 35 16 35 15
0 16 -9 11 -76 -4 -42 -10 -80 -13 -86 -9 -14 -257 -3 -262 11 -2 6 -18 11
-35 11 l-31 0 22 20 c26 24 31 100 8 119 -16 13 -101 4 -115 -13 -4 -6 -12
-32 -15 -59 -7 -43 -5 -48 16 -56 19 -8 20 -10 4 -10 -12 -1 -16 -6 -12 -16 4
-12 -4 -15 -40 -15 l-45 0 3 102 3 102 124 4 124 4 -7 -24 c-21 -75 -19 -158
5 -158 6 0 7 19 3 51 -7 48 10 129 26 129 4 0 10 41 14 90 8 106 20 147 39
132 14 -12 207 -21 207 -9 0 4 -30 7 -67 8 -127 1 -143 8 -142 59 0 14 6 43
14 65 8 22 15 48 15 58 0 17 6 18 48 13 26 -3 78 -7 115 -8z m-1185 -10 c19
-19 14 -29 -8 -16 -20 13 -27 28 -12 28 4 0 13 -5 20 -12z m1550 -114 c0 -83
-1 -84 -26 -84 l-25 0 7 82 c7 90 11 99 30 92 10 -4 14 -28 14 -90z m-2901 70
c-3 -3 -12 -4 -19 -1 -8 3 -5 6 6 6 11 1 17 -2 13 -5z m1346 -29 c-2 -5 -10
-9 -18 -9 -8 1 -34 2 -57 3 -32 1 -39 4 -28 11 19 13 106 8 103 -5z m-1058
-25 c-3 -5 -13 -10 -21 -10 -8 0 -12 5 -9 10 3 6 13 10 21 10 8 0 12 -4 9 -10z
m-261 -7 c8 -8 14 -9 109 -11 40 -1 66 -6 62 -12 -6 -9 -115 -6 -189 6 -27 4
-35 9 -25 15 17 11 33 11 43 2z m816 3 c0 -11 -19 -15 -25 -6 -3 5 1 10 9 10
9 0 16 -2 16 -4z m93 -3 c-7 -2 -21 -2 -30 0 -10 3 -4 5 12 5 17 0 24 -2 18
-5z m392 -3 c7 -12 -118 -12 -265 0 -87 6 -80 7 82 8 109 1 179 -2 183 -8z
m697 -5 c0 -5 -5 -11 -11 -13 -6 -2 -11 4 -11 13 0 9 5 15 11 13 6 -2 11 -8
11 -13z m-1552 -5 c0 -5 -18 -9 -40 -8 -21 1 -37 5 -34 10 7 11 74 10 74 -2z
m293 3 c-7 -2 -19 -2 -25 0 -7 3 -2 5 12 5 14 0 19 -2 13 -5z m-456 -10 c-20
-2 -52 -2 -70 0 -17 2 0 4 38 4 39 0 53 -2 32 -4z m455 -22 c-5 -3 -12 -15
-15 -26 -4 -18 -5 -18 -6 3 -2 33 -21 27 -21 -8 0 -16 -4 -30 -10 -30 -5 0 -9
3 -9 8 1 4 1 15 0 25 -1 25 -21 11 -21 -16 0 -15 -3 -18 -11 -10 -7 7 -24 7
-56 -3 -59 -18 -73 -18 -73 1 0 8 -4 15 -10 15 -5 0 -10 -4 -10 -10 0 -5 -4
-10 -10 -10 -5 0 -7 7 -4 15 4 10 -3 18 -21 25 -35 13 -35 14 -36 -17 l-1 -28
-7 25 c-4 14 -13 24 -19 23 -7 -2 -12 3 -12 10 0 18 92 17 98 0 2 -7 12 -13
23 -13 11 0 22 -7 25 -15 5 -13 8 -13 27 0 12 8 34 15 49 15 15 0 31 6 35 14
4 8 24 16 43 18 40 4 67 -2 52 -11z m177 2 c-4 -41 1 -49 16 -29 9 12 15 14
15 7 0 -7 6 -11 13 -8 6 2 11 14 9 25 -2 12 2 22 8 22 7 0 10 -7 7 -15 -8 -19
13 -31 23 -14 5 7 6 17 4 21 -3 4 4 8 14 8 12 0 22 -9 25 -21 3 -12 10 -18 17
-14 6 4 9 13 6 21 -3 8 -1 14 4 14 6 0 10 -11 10 -25 0 -16 -6 -25 -15 -25
-18 0 -20 -26 -2 -33 6 -3 -27 -6 -74 -6 -70 -1 -88 2 -93 15 -3 8 -10 13 -15
10 -5 -4 -11 -2 -13 3 -1 4 -13 12 -25 15 -20 6 -23 4 -23 -18 0 -26 -23 -36
-35 -16 -5 8 -11 7 -21 -1 -11 -9 -15 -7 -21 6 -4 11 0 22 10 30 10 7 17 18
18 26 0 10 2 11 6 2 7 -18 52 -16 59 2 4 9 19 15 41 15 27 0 34 -4 32 -17z
m407 2 c4 -8 3 -23 -1 -32 -8 -17 -8 -17 -12 0 -6 23 -23 22 -23 -2 0 -11 -4
-23 -10 -26 -6 -4 -10 7 -10 25 0 25 -3 31 -16 26 -9 -3 -27 -6 -41 -6 -22 0
-25 -4 -21 -25 4 -17 1 -25 -8 -25 -8 0 -14 9 -14 19 0 11 -3 26 -6 35 -5 13
7 16 68 19 40 1 77 4 81 5 4 1 10 -5 13 -13z m-1312 -5 c14 -5 26 -16 26 -25
0 -24 20 -17 21 8 1 16 2 18 6 5 6 -23 12 -23 28 -1 12 17 14 17 35 -2 11 -10
20 -28 18 -39 -2 -17 -11 -21 -39 -22 -20 -1 -41 -4 -48 -8 -6 -4 -14 0 -17 8
-8 20 -24 21 -24 1 0 -8 -4 -15 -10 -15 -5 0 -10 14 -10 32 0 30 -1 31 -15 12
-14 -18 -14 -18 -15 6 0 30 -16 16 -23 -20 -2 -14 -5 -5 -6 23 -1 44 1 47 23
47 14 0 36 -4 50 -10z m324 -2 c7 -7 12 -19 12 -27 0 -12 -3 -12 -12 -3 -19
19 -28 14 -28 -13 0 -35 -17 -31 -22 5 -6 43 23 65 50 38z m-108 -9 c0 -6 9
-9 19 -6 16 4 18 1 11 -12 -5 -9 -11 -24 -14 -33 -8 -26 -46 -23 -46 3 0 17
-3 19 -14 10 -20 -17 -30 3 -14 29 13 21 58 28 58 9z m1775 1 c10 -16 -29
-230 -42 -230 -16 0 -26 17 -13 25 13 8 13 25 1 25 -5 0 -17 -7 -26 -16 -12
-13 -19 -14 -30 -4 -20 17 -19 30 3 30 10 0 32 14 50 30 42 38 39 67 -7 92
-43 24 -78 12 -115 -40 -27 -38 -22 -62 15 -62 13 0 19 -7 19 -22 0 -15 -3
-19 -10 -12 -15 15 -70 5 -70 -12 0 -8 9 -14 20 -14 11 0 20 -4 20 -10 0 -13
-43 -13 -57 1 -11 11 -8 103 5 168 7 32 12 37 50 46 57 14 179 17 187 5z m273
-15 c1 -1 -1 -46 -5 -101 l-8 -99 -45 -6 c-33 -5 -48 -3 -56 7 -10 13 -12 12
-18 -1 -4 -11 -22 -15 -76 -15 l-70 0 0 37 c0 20 8 69 17 109 l17 73 80 3 c72
3 156 -1 164 -7z m-1888 -26 c0 -10 -4 -19 -9 -19 -10 0 -21 36 -14 44 10 10
23 -5 23 -25z m1150 6 c0 -22 -3 -24 -19 -15 -35 18 -94 11 -126 -15 -28 -24
-29 -25 -16 -62 7 -21 20 -46 29 -55 13 -16 12 -17 -14 -16 -16 1 -36 0 -44
-3 -11 -3 -15 3 -14 21 1 14 2 43 3 66 0 22 7 48 14 58 15 21 94 44 150 45 33
1 37 -2 37 -24z m204 -3 c6 -19 -8 -154 -18 -170 -3 -6 -42 -10 -85 -10 l-79
0 2 99 1 99 87 0 c74 0 87 -3 92 -18z m1141 -33 c-3 -4 -12 -6 -20 -2 -9 3
-22 0 -30 -7 -12 -10 -15 -9 -15 7 0 16 6 18 35 15 19 -2 32 -8 30 -13z
m-2905 -7 c0 -11 -7 -18 -20 -18 -11 0 -20 4 -20 8 0 4 7 8 15 8 8 0 15 5 15
10 0 6 2 10 5 10 3 0 5 -8 5 -18z m1490 2 c0 -9 -5 -14 -12 -12 -18 6 -21 28
-4 28 9 0 16 -7 16 -16z m974 -15 c-3 -5 -10 -7 -15 -3 -5 3 -7 10 -3 15 3 5
10 7 15 3 5 -3 7 -10 3 -15z m-1134 -45 l0 -54 -112 -1 c-62 0 -156 -2 -208
-4 -52 -1 -237 -6 -410 -9 -173 -3 -388 -9 -478 -12 l-162 -7 0 57 0 56 38 0
c161 1 629 14 677 19 33 4 194 7 358 8 l297 1 0 -54z m650 46 c0 -5 -2 -10 -4
-10 -3 0 -8 5 -11 10 -3 6 -1 10 4 10 6 0 11 -4 11 -10z m-431 -124 c-9 -8
-10 -4 -6 22 5 26 3 32 -11 32 -15 1 -15 2 3 16 19 14 20 13 23 -22 2 -20 -2
-42 -9 -48z m-69 49 c0 -8 -4 -15 -10 -15 -5 0 -10 7 -10 15 0 8 5 15 10 15 6
0 10 -7 10 -15z m1390 -1 c0 -8 -4 -12 -10 -9 -5 3 -10 10 -10 16 0 5 5 9 10
9 6 0 10 -7 10 -16z m15 -45 c4 -5 -6 -10 -22 -10 -17 -1 -21 -3 -10 -6 9 -2
17 -9 17 -14 0 -5 6 -9 14 -9 22 0 29 -19 15 -36 -10 -13 -10 -20 0 -35 13
-21 6 -59 -12 -71 -8 -5 -6 -13 4 -25 9 -10 14 -26 12 -36 -4 -14 -12 -16 -46
-11 -23 4 -44 9 -47 13 -3 3 -3 46 0 96 5 85 6 90 30 96 24 7 24 10 -2 13 -7
0 -14 18 -16 38 l-3 37 30 -15 c17 -8 33 -19 36 -25z m-1380 1 c4 -6 -5 -10
-20 -10 -15 0 -34 -4 -43 -9 -30 -16 -85 -17 -90 -2 -3 9 1 11 15 7 11 -3 37
0 59 8 47 18 71 19 79 6z m410 -4 c18 -13 18 -14 -4 -21 -25 -8 -47 7 -37 24
9 14 18 14 41 -3z m-672 -3 c-34 -2 -93 -2 -130 0 -37 2 -9 3 62 3 72 0 102
-1 68 -3z m-789 -11 c3 -5 -1 -9 -9 -9 -8 0 -12 4 -9 9 3 4 7 8 9 8 2 0 6 -4
9 -8z m274 1 c-16 -2 -40 -2 -55 0 -16 2 -3 4 27 4 30 0 43 -2 28 -4z m95 0
c-7 -2 -19 -2 -25 0 -7 3 -2 5 12 5 14 0 19 -2 13 -5z m-813 -13 c0 -13 -11
-13 -30 0 -12 8 -11 10 8 10 12 0 22 -4 22 -10z m198 3 c-10 -2 -28 -2 -40 0
-13 2 -5 4 17 4 22 1 32 -1 23 -4z m119 0 c-20 -2 -52 -2 -70 0 -17 2 0 4 38
4 39 0 53 -2 32 -4z m1426 -2 c15 -1 17 -13 17 -105 l0 -104 -62 -1 c-35 -1
-70 -2 -78 -3 -50 -4 -50 -4 -50 106 l0 105 33 3 c28 3 90 3 140 -1z m-431
-86 c-1 -44 -5 -104 -8 -133 -5 -45 -8 -52 -22 -46 -9 4 -34 7 -54 6 -21 -1
-38 3 -38 8 0 6 21 10 47 10 51 0 50 15 -2 23 -24 3 -21 4 13 6 23 0 42 6 42
11 0 6 -6 10 -14 10 -7 0 -16 9 -19 20 -3 11 -13 20 -24 21 -15 0 -14 2 5 9
52 21 1 61 -52 40 -15 -5 -30 -20 -35 -34 -12 -29 -61 -43 -61 -17 0 31 -19
37 -113 34 -50 -1 -220 -7 -377 -12 -157 -5 -367 -10 -467 -11 l-183 0 0 60 0
60 47 -2 c56 -3 977 13 981 17 1 1 78 2 170 1 l167 -1 -3 -80z m210 18 c2 -38
2 -84 0 -104 -3 -41 -7 -43 -128 -55 l-67 -7 6 77 c4 42 13 89 22 105 15 31
59 48 127 50 l36 1 4 -67z m464 26 c-3 -17 -6 -62 -6 -100 0 -69 0 -69 -27
-69 -38 0 -57 14 -49 35 4 11 2 15 -6 12 -7 -2 -13 -14 -12 -26 1 -19 -5 -21
-53 -21 l-53 0 0 63 c0 34 -3 79 -6 100 l-7 37 113 0 113 0 -7 -31z m201 -15
c-3 -3 -12 -4 -19 -1 -8 3 -5 6 6 6 11 1 17 -2 13 -5z m507 -86 c-3 -5 -12 -4
-20 3 -7 6 -11 15 -8 21 3 5 12 4 20 -3 7 -6 11 -15 8 -21z m-580 7 c-4 -8
-10 -12 -15 -9 -11 6 -2 24 11 24 5 0 7 -7 4 -15z m71 -5 c3 -5 1 -10 -4 -10
-6 0 -11 5 -11 10 0 6 2 10 4 10 3 0 8 -4 11 -10z m-1162 -18 c-2 -7 6 -12 17
-12 25 0 27 -20 3 -20 -16 -1 -16 -2 -2 -13 14 -11 14 -14 -5 -33 -12 -12 -34
-25 -51 -28 -29 -7 -29 -7 -10 8 11 8 28 16 38 16 9 0 17 4 17 9 0 6 -28 8
-67 4 -53 -4 -72 -1 -88 11 l-20 16 20 16 c11 8 19 20 18 25 -2 5 14 8 35 8
30 -2 32 -3 10 -6 -19 -3 -28 -10 -28 -23 0 -27 18 -35 39 -16 22 20 32 20 25
1 -4 -9 0 -15 10 -15 20 0 21 14 1 30 -12 10 -13 16 -4 27 14 16 45 12 42 -5z
m1632 -20 c-8 -8 -25 10 -25 26 0 13 2 13 14 -4 8 -10 13 -21 11 -22z m-1839
12 c7 19 58 23 52 4 -3 -7 -11 -13 -19 -14 -30 -2 -33 -5 -17 -17 11 -9 14
-18 8 -28 -8 -11 -15 -7 -39 21 -34 40 -41 62 -11 35 18 -16 20 -16 26 -1z
m732 -238 c-17 -21 -19 8 -11 131 l8 128 5 -125 c3 -69 2 -129 -2 -134z
m-1562 200 c16 -6 19 15 3 31 -8 8 23 11 111 12 73 1 119 -2 116 -7 -3 -6 1
-15 9 -22 14 -11 13 -15 -7 -29 l-23 -16 35 -6 35 -6 -42 -2 c-23 0 -43 4 -45
10 -4 12 -34 -1 -71 -30 -9 -8 -20 -11 -25 -6 -4 4 -1 10 6 12 20 7 14 25 -7
18 -12 -3 -21 0 -25 10 -3 8 -13 15 -22 15 -11 0 -14 -5 -10 -16 5 -13 2 -15
-16 -10 -13 3 -28 6 -34 6 -15 0 -26 44 -17 67 7 16 8 16 11 -4 2 -12 10 -24
18 -27z m574 30 c0 -7 10 -16 22 -20 19 -4 20 -8 10 -18 -11 -11 -16 -10 -26
5 -7 9 -26 17 -43 17 -16 0 -33 4 -39 9 -5 6 -31 12 -59 14 -30 2 -14 4 43 5
72 2 92 -1 92 -12z m2026 -2 c-3 -9 -6 -20 -6 -25 0 -5 -11 -9 -25 -9 -18 0
-25 5 -25 19 0 18 9 23 54 30 4 0 5 -6 2 -15z m-1883 -11 c-13 -2 -33 -2 -45
0 -13 2 -3 4 22 4 25 0 35 -2 23 -4z m1923 -21 c-22 -5 -30 3 -21 18 5 8 11 7
22 -2 15 -12 14 -13 -1 -16z m-456 7 c0 -5 -14 -9 -31 -9 -16 0 -28 3 -26 8 7
10 57 12 57 1z m-1857 -6 c-7 -2 -21 -2 -30 0 -10 3 -4 5 12 5 17 0 24 -2 18
-5z m124 1 c-3 -3 -12 -4 -19 -1 -8 3 -5 6 6 6 11 1 17 -2 13 -5z m722 -3 c2
0 -7 -9 -19 -19 -24 -19 -19 -52 9 -53 12 0 11 -3 -6 -16 -26 -17 -32 -63 -9
-63 16 0 24 -43 29 -144 1 -40 7 -61 16 -64 11 -4 13 17 6 127 l-7 131 61 0
61 0 0 -60 c0 -91 -44 -236 -81 -267 -15 -12 -95 -15 -922 -29 l-348 -6 3 38
3 37 70 -2 c39 -1 138 3 220 9 83 6 209 10 280 10 72 0 230 3 353 6 l222 7 -5
173 c-4 96 -4 178 -1 182 4 6 49 9 65 3z m-421 -8 c-15 -2 -42 -2 -60 0 -18 2
-6 4 27 4 33 0 48 -2 33 -4z m1020 -100 l3 -91 -33 -5 c-36 -5 -62 8 -35 19 9
3 17 10 17 15 0 4 -7 6 -15 3 -10 -4 -15 0 -15 15 0 12 5 21 10 21 6 0 10 24
10 54 0 44 4 55 18 59 33 9 37 0 40 -90z m217 85 c1 -1 0 -21 -4 -43 -6 -33
-8 -36 -14 -19 -18 52 -129 58 -148 7 -13 -35 -4 -57 36 -84 18 -13 31 -27 29
-31 -3 -4 -26 -7 -52 -6 -38 1 -40 2 -14 5 39 5 38 28 -1 28 -27 -1 -27 0 -27
72 l0 72 58 4 c57 4 131 2 137 -5z m263 -23 c2 -16 1 -52 -3 -80 -4 -38 -10
-51 -23 -52 -144 -6 -234 -13 -256 -19 -15 -3 -26 -2 -26 4 0 12 29 24 41 16
5 -3 9 8 9 25 0 16 5 53 11 80 l11 50 96 4 c143 5 137 6 140 -28z m92 26 c0
-5 -7 -14 -15 -21 -18 -15 -20 -46 -4 -56 12 -7 -40 -34 -53 -28 -7 5 -9 95
-2 106 7 11 74 10 74 -1z m172 -32 c3 -16 1 -32 -4 -35 -4 -3 -8 -28 -8 -55
l0 -50 -117 3 c-67 2 -118 7 -120 13 -2 7 38 9 113 6 83 -2 115 0 110 8 -5 7
-28 8 -68 4 -47 -5 -59 -3 -54 6 5 7 14 10 21 7 15 -5 81 16 96 31 7 7 7 22 0
48 -6 21 -8 42 -5 46 10 16 32 -3 36 -32z m259 29 c3 -25 -2 -113 -7 -140 -5
-24 -10 -28 -40 -28 -24 0 -34 5 -34 15 0 8 -4 15 -9 15 -5 0 -11 -7 -15 -15
-3 -8 -16 -15 -30 -15 -20 0 -24 4 -21 25 3 34 -11 32 -21 -2 -5 -21 -8 -24
-11 -10 -5 18 -23 24 -23 7 0 -5 -6 -10 -14 -10 -18 0 -28 53 -20 111 8 56 6
56 147 58 71 1 97 -2 98 -11z m-2374 -9 c-12 -7 -27 -7 -45 0 -25 9 -24 9 18
10 36 0 41 -2 27 -10z m158 1 c-3 -5 -10 -10 -16 -10 -5 0 -9 5 -9 10 0 6 7
10 16 10 8 0 12 -4 9 -10z m117 -33 c-8 -66 45 -128 97 -114 10 2 36 1 57 -3
39 -8 39 -8 -13 -9 -29 0 -53 -5 -53 -11 0 -5 9 -10 20 -10 11 0 20 -7 20 -15
0 -8 9 -15 20 -15 11 0 19 -6 17 -12 -1 -7 7 -13 18 -13 11 0 21 -9 25 -20 4
-16 15 -21 48 -24 30 -2 42 1 42 11 0 22 -22 38 -52 38 -15 0 -28 5 -28 11 0
8 12 10 34 6 39 -6 51 0 35 20 -9 10 -8 13 1 13 7 0 10 7 7 15 -4 8 -1 17 4
21 7 4 10 -5 9 -22 -4 -59 -1 -66 21 -59 20 7 20 5 -6 -28 -14 -20 -24 -41
-20 -47 4 -7 -2 -7 -18 -1 -14 5 -34 7 -45 4 -14 -3 -34 5 -59 25 -21 17 -65
45 -98 63 -33 17 -71 38 -84 45 -26 14 -46 10 -35 -7 4 -7 -7 -8 -30 -4 -24 5
-36 3 -36 -4 0 -6 -6 -11 -14 -11 -19 0 -29 -30 -15 -47 7 -7 9 -16 7 -19 -8
-8 -49 62 -46 78 2 10 -20 13 -107 11 -91 -1 -101 0 -55 7 80 12 200 12 200 0
0 -5 7 -10 15 -10 8 0 15 9 15 19 0 10 8 22 17 25 14 6 10 13 -23 47 -21 22
-48 44 -59 49 -20 9 -20 9 1 9 11 1 26 -5 32 -11 10 -10 15 -10 20 -1 14 23
63 41 90 34 22 -6 26 -12 24 -34z m858 -14 c0 -106 -11 -165 -32 -171 -10 -2
-18 -11 -18 -20 0 -8 -8 -21 -17 -28 -15 -11 -16 -15 -4 -23 8 -5 11 -16 8
-25 -6 -15 -9 -15 -36 -1 -17 8 -49 15 -72 15 -39 0 -41 1 -24 14 18 13 18 13
-1 24 -18 10 -18 11 -1 17 18 8 24 35 7 35 -13 0 -13 37 0 45 6 4 48 7 92 7
74 0 80 2 62 15 -15 11 -36 13 -91 8 l-73 -7 0 61 c0 37 5 63 13 68 13 8 89
19 150 22 l37 1 0 -57z m160 32 c0 -32 -27 -33 -40 -2 -5 12 -9 20 -10 17 -8
-29 -8 -50 0 -50 6 0 8 -11 4 -26 -5 -20 -2 -26 14 -31 17 -4 21 -12 20 -39
-1 -32 -3 -34 -39 -34 -21 0 -41 5 -44 10 -10 16 -18 128 -11 155 6 22 11 25
56 25 47 0 50 -2 50 -25z m-975 -8 c0 -7 13 -11 32 -9 27 3 32 0 27 -12 -5
-13 1 -16 26 -16 18 0 29 -4 25 -10 -9 -15 -57 -12 -99 5 -29 12 -35 20 -32
38 3 12 5 24 5 26 2 9 16 -11 16 -22z m70 13 c-28 -12 -55 -12 -55 0 0 6 17
10 38 9 30 0 33 -2 17 -9z m2115 0 c8 -5 11 -10 5 -11 -54 -7 -86 -21 -81 -35
3 -8 1 -14 -4 -14 -15 0 -12 -25 8 -64 18 -37 32 -46 32 -21 0 8 5 15 10 15 6
0 10 -9 10 -20 0 -21 -15 -24 -68 -14 l-31 6 6 72 c2 39 6 77 9 84 4 14 82 16
104 2z m-2425 -10 c3 -5 1 -10 -4 -10 -6 0 -11 5 -11 10 0 6 2 10 4 10 3 0 8
-4 11 -10z m-465 -10 c0 -6 -7 -13 -15 -16 -8 -4 -15 -13 -15 -22 0 -21 -6
-12 -14 21 -6 24 -4 27 19 27 14 0 25 -5 25 -10z m365 0 c8 -13 -15 -13 -35 0
-12 8 -11 10 7 10 12 0 25 -4 28 -10z m65 0 c0 -5 -4 -10 -10 -10 -5 0 -10 5
-10 10 0 6 5 10 10 10 6 0 10 -4 10 -10z m1920 6 c0 -2 -8 -10 -17 -17 -16
-13 -17 -12 -4 4 13 16 21 21 21 13z m-1102 -23 c-10 -2 -28 -2 -40 0 -13 2
-5 4 17 4 22 1 32 -1 23 -4z m-1158 -13 c0 -5 -2 -10 -4 -10 -3 0 -8 5 -11 10
-3 6 -1 10 4 10 6 0 11 -4 11 -10z m230 0 c0 -6 -25 -9 -57 -8 l-58 1 50 7
c28 4 53 8 58 8 4 1 7 -2 7 -8z m194 2 c2 -4 -9 -9 -25 -10 -17 -1 -35 -3 -41
-5 -6 -1 -13 4 -15 11 -5 14 72 18 81 4z m450 -8 c3 -9 6 -27 6 -40 0 -21 -4
-24 -32 -23 -30 2 -30 2 -6 6 22 3 26 9 24 31 -2 18 -11 29 -27 33 -24 7 -24
7 2 8 16 1 29 -5 33 -15z m51 6 c3 -5 -1 -10 -9 -10 -9 0 -16 5 -16 10 0 6 4
10 9 10 6 0 13 -4 16 -10z m665 -10 c0 -11 -7 -20 -15 -20 -18 0 -19 12 -3 28
16 16 18 15 18 -8z m1185 10 c3 -5 2 -10 -4 -10 -5 0 -13 5 -16 10 -3 6 -2 10
4 10 5 0 13 -4 16 -10z m-2858 -32 c-3 -7 -5 -2 -5 12 0 14 2 19 5 13 2 -7 2
-19 0 -25z m1050 26 c-3 -3 -12 -4 -19 -1 -8 3 -5 6 6 6 11 1 17 -2 13 -5z
m901 -59 c-2 -1 -19 -6 -38 -9 l-35 -7 26 15 c15 9 30 23 35 33 7 16 8 15 12
-5 2 -13 2 -25 0 -27z m-1418 5 c-20 -12 -32 -2 -17 15 8 8 16 10 22 4 6 -7 5
-13 -5 -19z m338 -5 c0 -19 -4 -35 -9 -35 -4 0 -6 7 -3 15 4 8 1 15 -5 15 -5
0 -15 9 -21 20 -9 17 -8 20 14 20 21 0 24 -5 24 -35z m182 25 c0 -5 -11 -10
-25 -10 -14 0 -25 5 -25 10 0 6 11 10 25 10 14 0 25 -4 25 -10z m-570 -20 c0
-5 -30 -11 -67 -12 -38 -1 -85 -2 -105 -3 -67 -1 -40 14 30 18 37 2 84 4 105
5 20 1 37 -2 37 -8z m-445 -20 c6 -4 41 -1 79 7 66 14 95 11 67 -6 -8 -5 -31
-12 -53 -15 -22 -4 -36 -11 -33 -17 4 -5 21 -7 42 -3 25 5 34 3 29 -4 -12 -20
-88 -24 -129 -7 -21 9 -47 13 -57 10 -13 -4 -19 1 -22 19 -3 14 0 27 6 29 13
4 58 -4 71 -13z m732 14 c-3 -3 -12 -4 -19 -1 -8 3 -5 6 6 6 11 1 17 -2 13 -5z
m256 -11 c-7 -2 -19 -2 -25 0 -7 3 -2 5 12 5 14 0 19 -2 13 -5z m-793 -18 c0
-10 -10 -15 -27 -15 l-28 0 25 14 c14 8 26 14 28 15 1 1 2 -6 2 -14z m1991
-18 c-1 -4 -1 -36 -1 -71 l0 -64 -37 1 c-49 1 -57 14 -25 42 20 17 24 27 18
48 -5 22 -12 27 -36 27 -49 0 -34 19 18 23 57 4 64 3 63 -6z m-141 -8 c0 -4
-12 -14 -26 -24 -21 -14 -25 -22 -20 -46 3 -16 1 -29 -4 -29 -6 0 -10 7 -10
15 0 8 -5 15 -11 15 -6 0 -9 -10 -7 -22 3 -26 44 -36 77 -19 13 7 22 8 26 1 3
-5 0 -10 -7 -11 -10 0 -10 -2 0 -6 30 -12 7 -23 -48 -23 -56 0 -61 2 -70 26
-13 33 -13 121 0 126 18 6 100 3 100 -3z m390 5 c0 -4 -9 -15 -20 -24 -12 -10
-17 -21 -12 -24 5 -3 19 4 31 15 12 12 24 19 25 18 14 -18 24 -78 19 -119 -5
-40 -10 -50 -24 -50 -11 0 -19 7 -19 15 0 12 -4 13 -19 5 -25 -13 -128 -13
-136 0 -4 6 -11 8 -16 4 -6 -3 -21 -3 -35 0 -24 6 -25 9 -22 79 l3 72 105 6
c58 3 108 6 113 7 4 1 7 -1 7 -4z m244 -3 c23 -9 25 -15 28 -91 3 -84 -4 -103
-28 -79 -14 15 -9 59 7 59 5 0 9 17 9 38 0 46 -33 72 -67 54 -11 -6 -30 -8
-42 -5 -33 8 -61 -23 -61 -67 0 -51 36 -76 82 -56 11 5 25 1 39 -13 26 -24 26
-24 -68 -25 l-73 -1 0 58 c0 32 -7 74 -15 94 -8 19 -15 37 -15 39 0 8 180 3
204 -5z m-966 -63 c-2 -41 -7 -54 -31 -74 -25 -21 -57 -32 -57 -20 0 3 14 18
30 34 35 35 36 42 13 71 -16 19 -23 21 -57 14 -34 -8 -41 -13 -49 -43 -8 -31
-6 -37 19 -57 23 -18 26 -25 16 -35 -10 -10 -17 -10 -32 0 -23 14 -50 16 -50
4 0 -5 12 -15 28 -23 l27 -13 -33 -4 c-19 -2 -37 -1 -40 3 -3 3 0 25 7 48 7
23 18 62 25 86 7 25 17 46 22 48 19 6 149 19 156 16 5 -2 7 -27 6 -55z m-1280
46 c-3 -3 -39 -5 -79 -6 -41 0 -77 -2 -81 -4 -4 -3 4 -16 17 -30 21 -23 29
-25 69 -19 39 6 46 5 46 -10 0 -12 -5 -15 -19 -10 -12 3 -23 0 -28 -8 -18 -32
-47 -28 -92 13 -39 36 -48 40 -80 34 -51 -9 -93 -32 -84 -47 4 -6 8 -22 9 -35
2 -19 -1 -22 -19 -16 -30 9 -32 11 -16 30 12 14 9 15 -32 9 -37 -5 -48 -3 -62
13 -10 11 -17 23 -15 28 1 5 -3 19 -10 32 -11 20 -11 22 8 22 12 0 40 -9 62
-20 45 -22 93 -26 103 -10 3 6 18 10 32 10 20 0 23 3 14 14 -9 11 12 13 126
15 75 0 134 -2 131 -5z m1090 -21 c-2 -22 -8 -27 -23 -25 -29 5 -30 10 -10 32
25 28 37 25 33 -7z m392 -17 c0 -35 -4 -45 -20 -49 -10 -3 -21 0 -23 6 -2 8
-10 5 -21 -6 -21 -21 -14 -36 9 -17 8 7 15 9 15 4 0 -19 -16 -31 -47 -37 -25
-5 -33 -3 -33 8 0 8 6 12 14 9 10 -4 12 2 9 20 -7 33 -21 33 -29 1 -8 -33 -19
-32 -38 7 -16 32 -21 80 -9 91 3 4 44 7 90 7 l83 0 0 -44z m908 38 c17 -5 20
-10 12 -19 -8 -9 -8 -15 0 -20 16 -10 12 -55 -6 -55 -8 0 -12 -5 -9 -10 4 -6
11 -7 17 -4 6 4 9 1 6 -6 -2 -8 -11 -17 -19 -20 -8 -4 -24 -12 -36 -18 -48
-25 -53 -18 -53 73 l0 85 33 0 c17 0 42 -3 55 -6z m-2138 -34 c0 -5 -10 -10
-22 -9 -22 0 -22 1 -3 9 11 5 21 9 23 9 1 1 2 -3 2 -9z m-53 -6 c-3 -3 -12 -4
-19 -1 -8 3 -5 6 6 6 11 1 17 -2 13 -5z m823 -19 c0 -8 -4 -15 -10 -15 -5 0
-10 7 -10 15 0 8 5 15 10 15 6 0 10 -7 10 -15z m-705 -42 c4 -14 2 -23 -4 -23
-6 0 -11 5 -11 10 0 6 -7 10 -15 10 -8 0 -15 -4 -15 -10 0 -5 -13 -7 -32 -3
-48 9 -91 53 -53 53 8 0 14 -3 13 -7 -2 -5 0 -8 3 -8 3 0 12 -5 20 -11 16 -13
53 -3 55 15 3 24 4 25 18 11 8 -8 17 -25 21 -37z m135 37 c0 -5 -4 -10 -10
-10 -5 0 -10 5 -10 10 0 6 5 10 10 10 6 0 10 -4 10 -10z m-648 -20 c17 -19 16
-19 -12 -13 -19 3 -30 1 -30 -6 0 -6 9 -11 20 -11 11 0 20 -4 20 -10 0 -14
-37 -12 -44 3 -5 10 -7 10 -12 0 -3 -7 -16 -13 -29 -13 -16 0 -24 7 -27 24 -4
20 0 25 21 29 14 3 29 0 33 -6 5 -9 12 -7 25 6 21 20 15 21 35 -3z m453 10
c-3 -5 -12 -10 -20 -10 -8 0 -17 5 -20 10 -4 6 5 10 20 10 15 0 24 -4 20 -10z
m813 -8 c2 -7 -3 -12 -12 -12 -9 0 -16 7 -16 16 0 17 22 14 28 -4z m-503 -3
c4 -6 4 -13 0 -17 -4 -4 -10 -1 -12 6 -6 17 -23 15 -23 -3 0 -23 -16 -18 -17
5 -1 15 4 20 22 20 13 0 27 -5 30 -11z m-390 -19 c3 -5 -3 -10 -14 -10 -12 0
-21 5 -21 10 0 6 6 10 14 10 8 0 18 -4 21 -10z m175 0 c0 -5 -4 -10 -10 -10
-5 0 -10 5 -10 10 0 6 5 10 10 10 6 0 10 -4 10 -10z m1138 -14 c3 -13 -2 -17
-14 -14 -25 4 -31 37 -7 34 10 -2 20 -11 21 -20z m-1935 -5 c6 -6 -8 -9 -37
-9 -31 1 -46 5 -46 15 0 15 67 10 83 -6z m1390 -18 c28 -14 30 -17 13 -23 -14
-4 -16 -9 -8 -14 7 -4 9 -12 6 -18 -5 -7 -10 -3 -15 10 -5 12 -20 27 -34 32
-26 10 -85 3 -85 -10 0 -4 -6 -10 -14 -13 -23 -9 -6 34 18 43 34 14 85 11 119
-7z m107 2 c-13 -16 -40 -20 -40 -7 0 14 12 22 33 22 16 0 17 -3 7 -15z m428
-20 c81 3 168 11 193 17 39 9 54 8 90 -6 26 -11 94 -22 169 -27 69 -6 152 -13
185 -17 54 -7 46 -9 -80 -14 -194 -10 -815 -11 -815 -2 0 4 11 22 26 41 25 33
25 33 55 17 25 -13 55 -14 177 -9z m-445 -32 c-15 -44 -53 -60 -53 -23 0 14 6
20 18 18 9 -2 16 3 15 10 -2 6 4 12 12 12 9 0 12 -6 8 -17z m1366 -9 c2 -2
-36 -4 -85 -3 -61 0 -83 3 -69 9 18 8 144 3 154 -6z m-1259 -19 c0 -15 -38
-40 -48 -31 -3 3 0 6 6 6 7 0 12 5 12 11 0 6 -7 9 -15 6 -8 -4 -17 -2 -20 3
-6 10 11 18 43 19 13 1 22 -5 22 -14z m-338 -24 c18 -21 13 -36 -6 -20 -6 5
-20 16 -31 24 -20 14 -20 14 0 15 11 0 28 -9 37 -19z m258 -2 c0 -6 -4 -7 -10
-4 -5 3 -10 11 -10 16 0 6 5 7 10 4 6 -3 10 -11 10 -16z m-80 -3 c0 -11 -19
-15 -25 -6 -3 5 1 10 9 10 9 0 16 -2 16 -4z m-240 -16 c0 -5 -4 -10 -10 -10
-5 0 -10 5 -10 10 0 6 5 10 10 10 6 0 10 -4 10 -10z"/>
<g>
<path d="M1450 5056 c0 -41 4 -78 10 -81 15 -9 46 11 71 47 l23 31 -20 36
c-15 28 -26 37 -51 39 l-33 3 0 -75z"/>
</g>
<g>
<path d="M1546 5006 c-22 -34 -21 -36 18 -36 45 0 51 12 22 39 l-23 22 -17
-25z"/>
</g>
<g>
<path d="M1697 2585 c18 -24 33 -32 33 -17 -1 13 -27 42 -39 42 -8 0 -5 -9 6
-25z"/>
</g>
<g>
<path d="M1538 2528 c-37 -44 -48 -68 -67 -143 -42 -165 -64 -284 -56 -302 6
-13 11 -1 16 41 10 68 52 244 73 305 14 38 71 121 89 129 4 2 7 8 7 13 0 20
-20 6 -62 -43z"/>
</g>
<g>
<path d="M1546 2451 c-11 -17 -73 -207 -80 -244 -4 -21 -3 -37 2 -37 12 0 22
24 22 51 0 24 35 130 61 183 10 22 19 43 19 48 0 11 -17 10 -24 -1z"/>
</g>
<g>
<path d="M1426 2368 c-9 -12 -16 -26 -16 -30 0 -16 18 -7 34 16 20 31 3 44
-18 14z"/>
</g>
<g>
<path d="M1662 2235 c-14 -31 -15 -35 -3 -35 9 0 25 49 18 56 -2 2 -9 -7 -15
-21z"/>
</g>
<g>
<path d="M1656 2149 c-9 -46 -7 -79 4 -79 6 0 10 8 10 18 0 9 3 34 6 55 8 45
-11 51 -20 6z"/>
</g>
<g>
<path d="M1447 2043 c-8 -75 1 -305 15 -365 5 -27 15 -48 20 -48 6 0 7 9 3 23
-12 40 -26 290 -19 370 7 90 -10 108 -19 20z"/>
</g>
<g>
<path d="M1408 2050 c-11 -25 -23 -264 -23 -455 0 -172 1 -181 23 -213 31 -43
47 -31 20 14 -18 31 -22 57 -26 167 -3 72 1 188 8 257 12 123 11 259 -2 230z"/>
</g>
<g>
<path d="M1738 1980 c-10 -23 -16 -130 -7 -130 5 0 11 15 14 33 8 40 2 118 -7
97z"/>
</g>
<g>
<path d="M1490 1581 c0 -11 5 -23 10 -26 6 -3 10 3 10 14 0 11 -4 23 -10 26
-5 3 -10 -3 -10 -14z"/>
</g>
<g>
<path d="M2424 2578 c-3 -4 117 -8 266 -8 179 0 269 3 265 10 -8 12 -523 11
-531 -2z"/>
</g>
<g>
<path d="M1810 1630 c0 -5 7 -10 15 -10 8 0 15 5 15 10 0 6 -7 10 -15 10 -8 0
-15 -4 -15 -10z"/>
</g>
<g>
<path d="M1765 1620 c3 -5 10 -10 16 -10 5 0 9 5 9 10 0 6 -7 10 -16 10 -8 0
-12 -4 -9 -10z"/>
</g>
<g>
<path d="M1807 1564 c-11 -11 3 -24 18 -18 8 4 12 10 9 15 -6 11 -18 12 -27 3z"/>
</g>
<g>
<path d="M2170 1615 c0 -22 22 -43 40 -38 25 7 26 19 3 27 -10 3 -24 9 -30 12
-7 3 -13 3 -13 -1z"/>
</g>
<g>
<path d="M2157 1573 c-4 -3 -7 -11 -7 -17 0 -6 5 -5 12 2 6 6 9 14 7 17 -3 3
-9 2 -12 -2z"/>
</g>
<g>
<path d="M2361 1608 c-23 -24 -14 -45 22 -50 12 -2 21 -7 19 -13 -2 -5 -10 -9
-18 -7 -8 2 -14 -2 -14 -8 0 -18 57 -12 64 8 21 58 53 77 39 23 -6 -23 -5 -25
10 -12 10 7 17 26 17 41 0 29 -15 40 -53 40 -18 0 -19 -2 -7 -10 13 -8 12 -10
-2 -10 -10 0 -18 5 -18 10 0 18 -39 10 -59 -12z m39 -3 c0 -8 -7 -15 -15 -15
-26 0 -18 20 13 29 1 1 2 -6 2 -14z"/>
</g>
<g>
<path d="M2310 1551 c0 -21 26 -36 35 -21 4 6 1 10 -4 10 -6 0 -11 7 -11 15 0
8 -4 15 -10 15 -5 0 -10 -9 -10 -19z"/>
</g>
<g>
<path d="M2730 1590 c0 -5 5 -10 11 -10 5 0 7 5 4 10 -3 6 -8 10 -11 10 -2 0
-4 -4 -4 -10z"/>
</g>
<g>
<path d="M2602 1578 c-15 -15 -15 -45 0 -54 6 -4 17 1 24 11 17 23 10 32 -11
15 -12 -10 -15 -10 -15 4 0 9 7 16 15 16 8 0 15 5 15 10 0 14 -13 13 -28 -2z"/>
</g>
<g>
<path d="M2695 1580 c3 -5 8 -10 11 -10 2 0 4 5 4 10 0 6 -5 10 -11 10 -5 0
-7 -4 -4 -10z"/>
</g>
<g>
<path d="M2813 1583 c-7 -3 -13 -12 -13 -21 0 -15 2 -15 17 1 18 18 16 27 -4
20z"/>
</g>
<g>
<path d="M1965 1490 c-3 -5 1 -10 9 -10 9 0 16 5 16 10 0 6 -4 10 -9 10 -6 0
-13 -4 -16 -10z"/>
</g>
<g>
<path d="M1873 1461 c1 -15 8 -21 24 -21 12 0 25 -4 28 -10 9 -15 25 -12 25 4
0 8 -11 14 -27 14 -14 0 -32 7 -39 17 -12 16 -13 16 -11 -4z"/>
</g>
<g>
<path d="M1830 1389 c0 -5 5 -7 10 -4 6 3 10 8 10 11 0 2 -4 4 -10 4 -5 0 -10
-5 -10 -11z"/>
</g>
<g>
<path d="M2300 1460 c0 -5 5 -10 10 -10 6 0 10 5 10 10 0 6 -4 10 -10 10 -5 0
-10 -4 -10 -10z"/>
</g>
<g>
<path d="M2330 1460 c0 -5 5 -10 10 -10 6 0 10 5 10 10 0 6 -4 10 -10 10 -5 0
-10 -4 -10 -10z"/>
</g>
<g>
<path d="M2365 1460 c-3 -5 1 -10 10 -10 9 0 13 5 10 10 -3 6 -8 10 -10 10 -2
0 -7 -4 -10 -10z"/>
</g>
<g>
<path d="M2360 1430 c0 -5 5 -10 10 -10 6 0 10 5 10 10 0 6 -4 10 -10 10 -5 0
-10 -4 -10 -10z"/>
</g>
<g>
<path d="M2305 1400 c-3 -5 -1 -10 4 -10 6 0 11 5 11 10 0 6 -2 10 -4 10 -3 0
-8 -4 -11 -10z"/>
</g>
<g>
<path d="M2350 1400 c0 -5 5 -10 10 -10 6 0 10 5 10 10 0 6 -4 10 -10 10 -5 0
-10 -4 -10 -10z"/>
</g>
<g>
<path d="M2831 1314 c0 -11 3 -14 6 -6 3 7 2 16 -1 19 -3 4 -6 -2 -5 -13z"/>
</g>
<g>
<path d="M2746 1247 c-22 -16 -33 -91 -16 -102 7 -5 8 -11 1 -19 -6 -7 -6 -17
0 -26 8 -13 10 -13 18 0 5 8 7 18 5 22 -3 4 2 8 10 8 8 0 18 -4 21 -10 3 -5
11 -10 16 -10 6 0 7 5 4 10 -3 6 -1 10 4 10 6 0 11 -4 11 -10 0 -5 5 -10 10
-10 6 0 10 6 10 13 0 7 9 18 20 25 15 9 20 23 20 52 0 22 -3 41 -7 42 -5 0
-19 3 -33 4 -14 2 -36 6 -50 9 -15 4 -33 0 -44 -8z m34 -12 c0 -8 -7 -15 -16
-15 -14 0 -14 3 -4 15 7 8 14 15 16 15 2 0 4 -7 4 -15z m7 -79 c-2 -6 -13 -12
-25 -14 -16 -3 -22 2 -22 16 0 15 5 18 25 14 14 -2 24 -10 22 -16z m59 -3
c-10 -10 -19 5 -10 18 6 11 8 11 12 0 2 -7 1 -15 -2 -18z"/>
</g>
<g>
<path d="M2860 1119 c0 -5 5 -7 10 -4 6 3 10 8 10 11 0 2 -4 4 -10 4 -5 0 -10
-5 -10 -11z"/>
</g>
<g>
<path d="M2848 1093 c7 -3 16 -2 19 1 4 3 -2 6 -13 5 -11 0 -14 -3 -6 -6z"/>
</g>
<g>
<path d="M495 1400 c-6 -9 34 -12 165 -12 52 0 56 1 40 12 -20 13 -197 13
-205 0z"/>
</g>
<g>
<path d="M325 1210 c-4 -6 11 -10 37 -10 31 0 39 3 28 10 -20 13 -57 13 -65 0z"/>
</g>
<g>
<path d="M452 1201 c-9 -5 20 -10 75 -13 98 -6 136 3 58 14 -72 9 -118 9 -133
-1z"/>
</g>
<g>
<path d="M1602 1274 c-15 -10 -38 -14 -69 -12 -34 2 -48 -1 -56 -14 -16 -25 0
-35 19 -12 15 18 15 18 11 -3 -6 -29 13 -42 20 -14 6 24 23 28 23 6 0 -8 5
-15 10 -15 6 0 13 7 16 15 9 23 26 18 19 -5 -4 -14 -2 -20 9 -20 19 0 30 17
14 22 -7 3 -9 11 -3 24 7 17 8 17 12 2 4 -17 23 -26 23 -10 0 17 -13 52 -19
52 -4 0 -17 -7 -29 -16z"/>
</g>
<g>
<path d="M1500 1174 c0 -8 5 -12 10 -9 6 3 10 10 10 16 0 5 -4 9 -10 9 -5 0
-10 -7 -10 -16z"/>
</g>
<g>
<path d="M1540 1184 c0 -5 51 -54 55 -54 3 0 5 13 5 28 0 25 -4 29 -30 29 -16
0 -30 -2 -30 -3z"/>
</g>
<g>
<path d="M1530 1150 c0 -5 7 -10 15 -10 8 0 15 5 15 10 0 6 -7 10 -15 10 -8 0
-15 -4 -15 -10z"/>
</g>
<g>
<path d="M1952 1248 c-6 -6 -12 -16 -12 -20 0 -11 28 -10 32 2 2 6 8 6 18 0
13 -9 13 -10 0 -10 -9 0 -16 -10 -16 -25 -2 -27 13 -34 22 -10 4 8 15 15 25
15 10 0 19 4 19 10 0 5 7 7 15 4 8 -4 15 -1 15 5 0 23 -99 48 -118 29z"/>
</g>
<g>
<path d="M1930 1200 c0 -5 5 -10 10 -10 6 0 10 5 10 10 0 6 -4 10 -10 10 -5 0
-10 -4 -10 -10z"/>
</g>
<g>
<path d="M2010 1160 c0 -5 5 -10 10 -10 6 0 10 5 10 10 0 6 -4 10 -10 10 -5 0
-10 -4 -10 -10z"/>
</g>
<g>
<path d="M2285 1293 c-48 -5 -72 -32 -55 -63 6 -11 17 -20 25 -20 8 0 15 -7
15 -15 0 -9 7 -18 15 -21 8 -4 15 -10 15 -15 0 -18 -22 -8 -55 26 -19 19 -35
39 -35 45 0 5 -7 10 -16 10 -11 0 -15 -6 -11 -20 3 -10 -1 -24 -9 -31 -8 -6
-14 -18 -14 -26 0 -10 4 -11 19 -3 26 14 28 13 34 -10 6 -24 27 -27 27 -4 0
14 2 14 15 0 10 -9 33 -15 64 -14 41 0 50 3 55 21 6 23 -4 40 -11 20 -5 -15
-43 -18 -43 -4 0 5 14 14 30 21 45 18 53 40 30 78 -12 19 -27 31 -37 30 -10
-1 -36 -3 -58 -5z m-14 -46 c-1 -12 -15 -9 -19 4 -3 6 1 10 8 8 6 -3 11 -8 11
-12z"/>
</g>
<g>
<path d="M2483 1225 c-17 -19 -16 -25 2 -25 9 0 25 9 37 20 l22 20 -25 0 c-13
-1 -30 -7 -36 -15z"/>
</g>
<g>
<path d="M2560 1230 c0 -6 7 -13 15 -17 24 -9 27 1 5 15 -13 8 -20 8 -20 2z"/>
</g>
<g>
<path d="M2536 1183 c4 -20 2 -39 -6 -48 -10 -12 -9 -16 3 -21 37 -14 96 20
73 43 -4 4 -12 0 -17 -10 -15 -25 -37 -22 -32 6 2 12 -3 31 -11 42 -15 19 -15
18 -10 -12z"/>
</g>
<g>
<path d="M2590 1191 c0 -6 5 -13 10 -16 6 -3 10 1 10 9 0 9 -4 16 -10 16 -5 0
-10 -4 -10 -9z"/>
</g>
<g>
<path d="M2735 980 c-3 -5 -1 -10 4 -10 6 0 11 5 11 10 0 6 -2 10 -4 10 -3 0
-8 -4 -11 -10z"/>
</g>
<g>
<path d="M2730 950 c0 -5 5 -10 11 -10 5 0 7 5 4 10 -3 6 -8 10 -11 10 -2 0
-4 -4 -4 -10z"/>
</g>
<g>
<path d="M2485 780 c-3 -5 -1 -10 4 -10 6 0 11 5 11 10 0 6 -2 10 -4 10 -3 0
-8 -4 -11 -10z"/>
</g>
<g>
<path d="M2112 768 c6 -18 28 -21 28 -4 0 9 -7 16 -16 16 -9 0 -14 -5 -12 -12z"/>
</g>
<g>
<path d="M2375 760 c-4 -6 6 -10 24 -10 16 0 31 -6 33 -12 3 -9 10 -8 22 5 10
10 15 21 12 25 -4 3 -11 0 -16 -8 -7 -12 -12 -12 -22 -2 -15 15 -44 16 -53 2z"/>
</g>
<g>
<path d="M2116 732 c-3 -6 -1 -14 5 -17 15 -10 25 3 12 16 -7 7 -13 7 -17 1z"/>
</g>
<g>
<path d="M2360 729 c0 -5 5 -7 10 -4 6 3 10 8 10 11 0 2 -4 4 -10 4 -5 0 -10
-5 -10 -11z"/>
</g>
<g>
<path d="M2365 700 c-3 -5 1 -10 9 -10 9 0 16 5 16 10 0 6 -4 10 -9 10 -6 0
-13 -4 -16 -10z"/>
</g>
<g>
<path d="M2122 689 c2 -7 10 -15 17 -17 8 -3 12 1 9 9 -2 7 -10 15 -17 17 -8
3 -12 -1 -9 -9z"/>
</g>
<g>
<path d="M2400 690 c0 -5 4 -10 9 -10 6 0 13 5 16 10 3 6 -1 10 -9 10 -9 0
-16 -4 -16 -10z"/>
</g>
<g>
<path d="M1880 1050 c0 -5 5 -10 10 -10 6 0 10 5 10 10 0 6 -4 10 -10 10 -5 0
-10 -4 -10 -10z"/>
</g>
<g>
<path d="M2172 1028 c-21 -21 -13 -29 11 -13 13 8 27 12 32 8 4 -5 5 -2 1 5
-9 15 -28 16 -44 0z"/>
</g>
<g>
<path d="M2248 1010 c-9 -17 -14 -30 -10 -30 4 0 15 14 24 30 9 17 14 30 10
30 -4 0 -15 -14 -24 -30z"/>
</g>
<g>
<path d="M2290 1030 c0 -5 5 -10 10 -10 6 0 10 -9 10 -20 0 -11 -7 -20 -15
-20 -8 0 -15 -5 -15 -11 0 -6 7 -8 16 -5 9 3 18 6 20 6 2 0 4 16 4 35 0 24 -5
35 -15 35 -8 0 -15 -4 -15 -10z"/>
</g>
<g>
<path d="M2160 980 c8 -5 22 -9 30 -9 10 0 8 3 -5 9 -27 12 -43 12 -25 0z"/>
</g>
<g>
<path d="M1745 1070 c-3 -5 1 -10 9 -10 9 0 16 -4 16 -8 0 -4 -15 -8 -34 -8
-19 0 -32 4 -30 8 3 4 1 8 -5 8 -17 0 -23 -20 -11 -35 9 -11 16 -11 29 -3 14
8 24 7 44 -7 15 -9 27 -21 27 -26 0 -5 5 -9 10 -9 19 0 10 32 -10 37 -20 5
-28 23 -10 23 17 0 11 19 -9 30 -13 7 -22 7 -26 0z"/>
</g>
<g>
<path d="M1766 954 c-11 -7 -17 -17 -13 -20 3 -4 14 1 23 10 21 22 15 28 -10
10z"/>
</g>
<g>
<path d="M1675 940 c-3 -5 -1 -10 4 -10 6 0 11 5 11 10 0 6 -2 10 -4 10 -3 0
-8 -4 -11 -10z"/>
</g>
<g>
<path d="M95 970 c4 -6 11 -8 16 -5 14 9 11 15 -7 15 -8 0 -12 -5 -9 -10z"/>
</g>
<g>
<path d="M2900 810 c0 -5 5 -10 10 -10 6 0 10 5 10 10 0 6 -4 10 -10 10 -5 0
-10 -4 -10 -10z"/>
</g>
<g>
<path d="M2930 760 c0 -5 5 -10 10 -10 6 0 10 5 10 10 0 6 -4 10 -10 10 -5 0
-10 -4 -10 -10z"/>
</g>
<g>
<path d="M2900 710 c0 -5 5 -10 10 -10 6 0 10 5 10 10 0 6 -4 10 -10 10 -5 0
-10 -4 -10 -10z"/>
</g>
<g>
<path d="M2930 670 c0 -5 5 -10 10 -10 6 0 10 5 10 10 0 6 -4 10 -10 10 -5 0
-10 -4 -10 -10z"/>
</g>
<g>
<path d="M1682 834 c-32 -22 -29 -66 8 -104 17 -17 30 -32 30 -34 0 -1 -10 -2
-22 -2 -14 1 -23 -5 -23 -14 0 -19 104 -15 125 6 9 9 10 14 2 14 -13 0 -8 18
16 67 16 31 15 33 -8 58 -28 30 -92 35 -128 9z m118 -40 c0 -8 -4 -14 -10 -14
-5 0 -10 9 -10 21 0 11 5 17 10 14 6 -3 10 -13 10 -21z m-25 -74 c-3 -5 -11
-10 -16 -10 -6 0 -7 5 -4 10 3 6 11 10 16 10 6 0 7 -4 4 -10z"/>
</g>
<g>
<path d="M1565 850 c-3 -5 -1 -10 4 -10 6 0 11 5 11 10 0 6 -2 10 -4 10 -3 0
-8 -4 -11 -10z"/>
</g>
<g>
<path d="M1523 805 c18 -38 36 -31 21 9 -3 9 -12 16 -19 16 -10 0 -11 -5 -2
-25z"/>
</g>
<g>
<path d="M1570 790 c0 -5 5 -10 10 -10 6 0 10 5 10 10 0 6 -4 10 -10 10 -5 0
-10 -4 -10 -10z"/>
</g>
<g>
<path d="M1505 740 c3 -5 8 -10 11 -10 2 0 4 5 4 10 0 6 -5 10 -11 10 -5 0 -7
-4 -4 -10z"/>
</g>
<g>
<path d="M1440 729 c0 -5 5 -7 10 -4 6 3 10 8 10 11 0 2 -4 4 -10 4 -5 0 -10
-5 -10 -11z"/>
</g>
<g>
<path d="M1510 686 c0 -9 5 -16 10 -16 6 0 10 4 10 9 0 6 -4 13 -10 16 -5 3
-10 -1 -10 -9z"/>
</g>
<g>
<path d="M1446 671 c-4 -5 -2 -12 3 -15 5 -4 12 -2 15 3 4 5 2 12 -3 15 -5 4
-12 2 -15 -3z"/>
</g>
<g>
<path d="M2000 800 c0 -5 5 -10 10 -10 6 0 10 5 10 10 0 6 -4 10 -10 10 -5 0
-10 -4 -10 -10z"/>
</g>
<g>
<path d="M2000 730 c0 -5 5 -10 10 -10 6 0 10 5 10 10 0 6 -4 10 -10 10 -5 0
-10 -4 -10 -10z"/>
</g>
<g>
<path d="M1880 719 c0 -5 5 -7 10 -4 6 3 10 8 10 11 0 2 -4 4 -10 4 -5 0 -10
-5 -10 -11z"/>
</g>
<g>
<path d="M2010 690 c0 -5 5 -10 10 -10 6 0 10 5 10 10 0 6 -4 10 -10 10 -5 0
-10 -4 -10 -10z"/>
</g>
<g>
<path d="M195 690 c-4 -6 5 -10 20 -10 15 0 24 4 20 10 -3 6 -12 10 -20 10 -8
0 -17 -4 -20 -10z"/>
</g>
<g>
<path d="M100 681 c0 -11 26 -22 34 -14 3 3 3 10 0 14 -7 12 -34 11 -34 0z"/>
</g>
<g>
<path d="M150 670 c0 -5 7 -10 15 -10 8 0 15 5 15 10 0 6 -7 10 -15 10 -8 0
-15 -4 -15 -10z"/>
</g>
<g>
<path d="M235 660 c-3 -5 1 -10 9 -10 8 0 18 5 21 10 3 6 -1 10 -9 10 -8 0
-18 -4 -21 -10z"/>
</g>
<g>
<path d="M1280 525 c0 -10 7 -15 18 -13 21 4 19 22 -2 26 -10 2 -16 -3 -16
-13z"/>
</g>
<g>
<path d="M2160 600 c0 -5 5 -10 10 -10 6 0 10 5 10 10 0 6 -4 10 -10 10 -5 0
-10 -4 -10 -10z"/>
</g>
<g>
<path d="M2240 600 c0 -5 5 -10 10 -10 6 0 10 5 10 10 0 6 -4 10 -10 10 -5 0
-10 -4 -10 -10z"/>
</g>
<g>
<path d="M2130 580 c0 -5 5 -10 10 -10 6 0 10 5 10 10 0 6 -4 10 -10 10 -5 0
-10 -4 -10 -10z"/>
</g>
<g>
<path d="M2250 560 c0 -5 5 -10 10 -10 6 0 10 5 10 10 0 6 -4 10 -10 10 -5 0
-10 -4 -10 -10z"/>
</g>
<g>
<path d="M2190 550 c0 -5 5 -10 10 -10 6 0 10 5 10 10 0 6 -4 10 -10 10 -5 0
-10 -4 -10 -10z"/>
</g>
<g>
<path d="M2250 520 c0 -5 5 -10 10 -10 6 0 10 5 10 10 0 6 -4 10 -10 10 -5 0
-10 -4 -10 -10z"/>
</g>
<g>
<path d="M2195 500 c-3 -5 -1 -10 4 -10 6 0 11 5 11 10 0 6 -2 10 -4 10 -3 0
-8 -4 -11 -10z"/>
</g>
<g>
<path d="M2630 620 c0 -5 5 -10 10 -10 6 0 10 5 10 10 0 6 -4 10 -10 10 -5 0
-10 -4 -10 -10z"/>
</g>
<g>
<path d="M2746 621 c-4 -7 -5 -15 -2 -18 9 -9 19 4 14 18 -4 11 -6 11 -12 0z"/>
</g>
<g>
<path d="M2670 600 c0 -11 5 -20 10 -20 6 0 10 9 10 20 0 11 -4 20 -10 20 -5
0 -10 -9 -10 -20z"/>
</g>
<g>
<path d="M2670 550 c0 -5 5 -10 10 -10 6 0 10 5 10 10 0 6 -4 10 -10 10 -5 0
-10 -4 -10 -10z"/>
</g>
<g>
<path d="M2735 520 c3 -5 8 -10 11 -10 2 0 4 5 4 10 0 6 -5 10 -11 10 -5 0 -7
-4 -4 -10z"/>
</g>
<g>
<path d="M2700 490 c0 -5 5 -10 10 -10 6 0 10 5 10 10 0 6 -4 10 -10 10 -5 0
-10 -4 -10 -10z"/>
</g>
<g>
<path d="M1512 608 c-7 -7 -12 -17 -12 -24 0 -6 -6 -17 -14 -23 -11 -9 -15 -7
-19 9 -3 11 -12 20 -21 20 -19 0 -21 -11 -4 -28 9 -9 7 -16 -7 -32 -22 -24
-13 -39 10 -16 19 19 29 20 56 5 16 -8 26 -5 49 13 37 29 39 65 4 78 -31 12
-28 12 -42 -2z"/>
</g>
<g>
<path d="M1470 435 c-12 -14 -10 -15 13 -10 20 5 28 3 33 -9 8 -20 24 -21 24
-2 0 7 -8 16 -17 20 -10 3 -23 8 -29 11 -6 3 -17 -2 -24 -10z"/>
</g>
<g>
<path d="M1440 400 c0 -5 5 -10 10 -10 6 0 10 5 10 10 0 6 -4 10 -10 10 -5 0
-10 -4 -10 -10z"/>
</g>
<g>
<path d="M1440 360 c0 -5 5 -10 10 -10 6 0 10 5 10 10 0 6 -4 10 -10 10 -5 0
-10 -4 -10 -10z"/>
</g>
<g>
<path d="M1480 360 c0 -5 5 -10 10 -10 6 0 10 5 10 10 0 6 -4 10 -10 10 -5 0
-10 -4 -10 -10z"/>
</g>
<g>
<path d="M2383 405 c28 -25 47 -32 47 -17 0 9 -53 42 -67 42 -4 0 5 -12 20
-25z"/>
</g>
<g>
<path d="M2500 380 c0 -5 5 -10 10 -10 6 0 10 5 10 10 0 6 -4 10 -10 10 -5 0
-10 -4 -10 -10z"/>
</g>
<g>
<path d="M2540 355 c0 -8 5 -15 10 -15 6 0 10 7 10 15 0 8 -4 15 -10 15 -5 0
-10 -7 -10 -15z"/>
</g>
<g>
<path d="M2385 351 c-3 -5 -1 -12 5 -16 5 -3 10 1 10 9 0 18 -6 21 -15 7z"/>
</g>
<g>
<path d="M2410 350 c0 -5 5 -10 10 -10 6 0 10 5 10 10 0 6 -4 10 -10 10 -5 0
-10 -4 -10 -10z"/>
</g>
<g>
<path d="M2450 345 c0 -8 5 -15 10 -15 6 0 10 7 10 15 0 8 -4 15 -10 15 -5 0
-10 -7 -10 -15z"/>
</g>
<g>
<path d="M2495 350 c-3 -5 1 -10 10 -10 9 0 13 5 10 10 -3 6 -8 10 -10 10 -2
0 -7 -4 -10 -10z"/>
</g>
<g>
<path d="M2410 310 c0 -5 5 -10 10 -10 6 0 10 5 10 10 0 6 -4 10 -10 10 -5 0
-10 -4 -10 -10z"/>
</g>
<g>
<path d="M2510 310 c0 -5 5 -10 10 -10 6 0 10 5 10 10 0 6 -4 10 -10 10 -5 0
-10 -4 -10 -10z"/>
</g>
<g>
<path d="M2720 280 c0 -5 7 -10 15 -10 8 0 15 5 15 10 0 6 -7 10 -15 10 -8 0
-15 -4 -15 -10z"/>
</g>
<g>
<path d="M1902 403 c2 -10 11 -19 21 -21 23 -5 21 10 -4 26 -18 12 -20 11 -17
-5z"/>
</g>
<g>
<path d="M2890 410 c0 -5 5 -10 10 -10 6 0 10 5 10 10 0 6 -4 10 -10 10 -5 0
-10 -4 -10 -10z"/>
</g>
<g>
<path d="M2900 369 c0 -5 5 -7 10 -4 6 3 10 8 10 11 0 2 -4 4 -10 4 -5 0 -10
-5 -10 -11z"/>
</g>
<g>
<path d="M2916 344 c-27 -28 -33 -44 -16 -44 6 0 10 5 10 12 0 6 10 22 22 35
30 32 17 29 -16 -3z"/>
</g>
<g>
<path d="M265 330 c3 -5 8 -10 11 -10 2 0 4 5 4 10 0 6 -5 10 -11 10 -5 0 -7
-4 -4 -10z"/>
</g>
</g>
<g>
<path d="M548 3 c6 -2 18 -2 25 0 6 3 1 5 -13 5 -14 0 -19 -2 -12 -5z"/>
</g>
</g>
</svg>
