<?xml version="1.0" standalone="no"?>
<!DOCTYPE svg PUBLIC "-//W3C//DTD SVG 20010904//EN"
 "http://www.w3.org/TR/2001/REC-SVG-20010904/DTD/svg10.dtd">
<svg version="1.0" xmlns="http://www.w3.org/2000/svg"
 width="300.000000pt" height="523.000000pt" viewBox="0 0 300.000000 523.000000"
 preserveAspectRatio="xMidYMid meet">
<metadata>
Created by potrace 1.15, written by Peter Selinger 2001-2017
</metadata>
<g transform="translate(0.000000,523.000000) scale(0.100000,-0.100000)"
fill="#000000" stroke="none">
<g>
<path d="M12 5218 c-9 -9 -12 -417 -12 -1777 0 -1758 1 -1766 20 -1723 46 102
159 146 271 107 87 -31 138 -108 139 -208 0 -127 -93 -217 -225 -217 -81 0
-154 44 -193 115 -9 15 -11 -79 -12 -364 l0 -385 25 51 c68 137 251 165 360
56 33 -32 46 -55 54 -93 15 -70 14 -91 -8 -141 -38 -84 -118 -139 -204 -139
-90 0 -153 36 -197 113 l-30 52 2 -335 c1 -184 4 -288 5 -230 3 68 8 107 16
112 9 6 9 8 0 8 -20 0 -15 38 5 43 16 4 16 5 0 6 -14 1 -18 10 -18 36 0 29 4
36 27 42 16 4 33 6 40 5 15 -3 26 15 13 23 -5 3 -10 15 -10 27 0 18 4 20 31
14 17 -3 34 -6 38 -6 3 0 12 -13 19 -29 10 -23 20 -29 55 -34 77 -10 176 24
177 61 0 15 3 15 52 0 30 -9 41 -9 51 1 10 10 7 12 -13 10 -14 -1 -38 4 -54
12 -26 12 -30 11 -47 -10 -16 -20 -20 -21 -25 -7 -3 9 -13 16 -20 16 -20 0
-29 -27 -15 -44 6 -7 8 -16 4 -19 -13 -14 -23 -6 -23 18 0 15 -6 25 -14 25
-20 0 -37 -25 -30 -44 3 -9 2 -16 -4 -16 -9 0 -12 9 -28 88 l-6 33 88 -5 c49
-2 109 0 133 5 27 6 48 6 55 0 20 -17 105 -24 121 -11 9 8 28 10 50 6 47 -9
105 3 113 23 7 20 22 31 45 31 13 0 17 -9 17 -43 0 -24 5 -48 10 -53 8 -8 5
-20 -7 -42 -10 -17 -14 -34 -10 -38 4 -4 55 3 112 16 104 23 106 23 173 5 158
-41 259 -45 370 -12 63 18 98 22 192 20 102 -2 120 -6 165 -29 45 -23 63 -26
172 -29 67 -2 126 -6 132 -9 5 -3 161 -8 347 -11 186 -3 339 -7 341 -9 2 -2
-1 -15 -6 -30 -8 -20 -17 -26 -40 -26 -31 0 -57 -22 -46 -40 3 -5 22 -10 41
-10 19 0 34 -4 34 -10 0 -5 -16 -10 -35 -10 -23 0 -38 -6 -42 -16 -8 -21 13
-33 62 -35 37 -1 35 -2 -20 -13 -40 -7 -60 -16 -60 -25 0 -8 6 -16 13 -18 6
-3 12 2 12 11 0 12 10 16 41 16 32 0 42 -4 46 -20 6 -23 33 -27 33 -5 0 8 7
15 15 15 9 0 12 -6 8 -16 -4 -11 -1 -15 11 -13 9 2 16 8 16 14 -2 9 40 29 47
21 2 -2 1 -15 -3 -30 l-6 -26 -287 -2 c-157 -1 -750 -2 -1318 -2 -567 -1
-1035 -5 -1039 -9 -9 -8 2637 -10 2660 -1 15 6 16 161 16 1655 0 1093 -3 1649
-10 1649 -5 0 -10 6 -10 14 0 16 -53 31 -70 21 -5 -3 -10 -15 -10 -26 0 -11
-5 -17 -10 -14 -6 3 -7 17 -4 30 8 32 -33 57 -51 31 -15 -20 -25 -21 -25 -1 0
8 6 15 14 15 8 0 16 6 19 14 7 17 -16 39 -28 28 -5 -4 -5 2 0 13 4 11 13 56
19 100 11 71 14 80 36 86 34 8 60 -7 60 -36 0 -15 7 -26 20 -30 15 -5 20 -15
20 -41 0 -19 5 -34 11 -34 7 0 9 15 5 43 -9 62 -8 81 4 85 5 2 10 28 10 58 0
50 -2 54 -24 54 -13 0 -29 -7 -36 -15 -18 -22 -29 -19 -36 10 -6 26 -24 35
-24 12 0 -7 -13 -31 -30 -53 -24 -31 -29 -49 -30 -91 0 -41 -5 -57 -22 -73
l-23 -21 -3 127 -3 126 38 33 c29 25 41 30 54 22 22 -14 70 35 70 71 -1 15 -1
55 -1 89 -1 47 -6 68 -22 88 -17 22 -19 31 -10 46 17 26 15 75 -3 93 -8 8 -15
22 -15 30 0 9 -8 16 -20 16 -25 0 -60 34 -60 58 0 25 -19 42 -39 35 -27 -10
-61 -45 -61 -65 0 -10 -6 -18 -14 -18 -19 0 -67 -50 -82 -86 -8 -19 -23 -34
-38 -38 -16 -4 -31 -21 -45 -49 -30 -62 -27 -97 10 -130 17 -15 35 -27 40 -27
14 0 11 -16 -6 -30 -9 -8 -15 -29 -15 -55 0 -71 5 -76 64 -69 41 4 58 1 84
-15 31 -20 32 -22 32 -93 0 -40 -3 -90 -7 -112 l-6 -38 -78 4 c-76 5 -79 4
-106 -24 -46 -48 -90 -71 -128 -66 -41 5 -42 1 -44 -143 -3 -141 -8 -153 -60
-157 -83 -6 -151 48 -151 121 0 25 -6 44 -16 52 -13 9 -14 16 -5 33 6 12 9 32
6 45 -4 16 3 35 24 65 17 23 31 46 31 51 0 17 19 22 40 11 14 -7 20 -8 20 0 0
6 -7 13 -15 16 -8 4 -15 11 -15 16 0 6 7 7 15 4 51 -21 51 -21 30 4 l-20 23
21 -11 c16 -9 26 -6 50 13 25 21 27 26 14 35 -8 6 -43 9 -77 7 -35 -1 -63 1
-63 5 0 4 6 8 14 8 17 0 41 28 32 37 -3 4 -27 -3 -52 -15 -57 -28 -55 -7 2 25
35 20 52 43 32 43 -5 0 -24 0 -43 0 -31 0 -38 -5 -52 -35 -22 -46 -38 -45 -18
1 18 44 41 63 75 65 14 0 36 2 50 3 33 4 89 -20 111 -47 23 -28 37 -96 33
-167 -1 -30 0 -40 3 -22 2 17 9 32 15 32 11 0 6 66 -8 120 -6 21 -4 23 7 13
22 -21 54 -15 82 17 15 16 27 32 27 36 0 8 -20 26 -65 56 -47 32 -109 103
-120 138 -16 51 -97 151 -111 137 -4 -3 12 -27 35 -53 44 -51 61 -92 42 -103
-7 -5 -9 -15 -4 -27 5 -14 -3 -10 -32 14 -22 17 -46 32 -53 32 -27 0 -72 41
-72 66 0 13 5 24 10 24 6 0 10 -11 10 -25 0 -14 4 -25 10 -25 12 0 8 42 -5 53
-6 6 -6 10 2 14 7 2 13 19 13 36 0 18 4 27 8 20 9 -14 64 -12 74 2 4 5 8 16 8
24 0 13 -8 12 -55 -4 -17 -6 -18 -5 -3 4 9 6 22 27 28 47 10 30 9 38 -6 55 -9
10 -23 19 -31 19 -18 0 -16 20 4 42 18 20 5 25 -16 6 -11 -11 -12 -8 -7 17 5
22 4 26 -4 15 -8 -13 -10 -12 -10 5 0 15 -2 17 -9 6 -11 -17 -23 1 -16 26 3
10 -1 5 -8 -11 -10 -21 -16 -25 -21 -15 -3 8 -4 -7 0 -33 4 -41 3 -47 -16 -53
-30 -9 -46 -56 -26 -71 9 -6 16 -18 16 -27 0 -9 8 -21 18 -26 14 -9 15 -12 2
-20 -10 -7 -15 -33 -18 -83 -3 -79 4 -94 61 -122 17 -9 23 -22 25 -54 3 -37 1
-42 -17 -42 -28 0 -87 -54 -100 -91 -9 -27 -8 -31 13 -39 13 -4 26 -16 29 -24
4 -9 13 -16 22 -16 8 0 15 -6 15 -13 0 -19 35 -36 60 -30 22 6 23 4 16 -28 -3
-18 -18 -51 -31 -71 -24 -35 -28 -38 -75 -37 -35 1 -54 7 -67 21 -10 11 -35
27 -55 35 -25 10 -38 22 -38 34 0 21 -75 95 -123 122 -22 12 -54 17 -105 17
-66 0 -73 2 -81 23 -9 24 3 57 21 57 6 0 8 -9 5 -21 -6 -22 14 -36 34 -24 8 6
8 9 -1 15 -9 6 -9 13 2 31 25 46 49 74 84 100 19 15 51 48 71 75 30 39 38 58
41 104 3 50 1 58 -29 94 -35 41 -76 62 -211 107 -130 43 -227 36 -316 -24 -62
-42 -77 -79 -63 -149 7 -30 18 -64 26 -74 11 -16 11 -24 -1 -53 -8 -18 -14
-43 -14 -56 0 -26 47 -92 73 -100 12 -5 17 -17 17 -41 0 -19 -3 -33 -7 -32 -5
2 -21 -2 -38 -8 -16 -7 -48 -17 -70 -23 -45 -12 -125 -74 -125 -97 0 -8 -5
-14 -11 -14 -5 0 -22 -25 -35 -55 l-26 -56 -80 3 c-67 2 -81 0 -89 -15 -12
-20 -30 -21 -73 -6 -27 10 -38 8 -80 -15 -27 -14 -57 -26 -67 -26 -10 0 -30
-5 -44 -12 -18 -8 -31 -8 -48 0 -12 6 -63 12 -112 14 -50 2 -96 7 -103 12 -8
5 -12 39 -12 107 0 90 2 99 19 99 10 0 24 -7 31 -15 19 -23 47 -18 91 17 27
22 39 39 39 57 0 50 13 101 25 101 16 0 39 45 32 63 -3 8 -1 49 4 92 8 65 7
81 -6 101 -8 13 -22 24 -30 24 -18 0 -37 44 -37 82 1 18 -9 36 -29 53 -43 35
-54 31 -18 -7 28 -32 36 -64 31 -137 -1 -25 13 -51 29 -51 5 0 9 7 9 16 0 9 7
14 18 12 19 -4 20 -33 4 -125 -5 -33 -5 -56 1 -62 12 -12 -6 -38 -33 -46 -16
-5 -20 -18 -22 -73 -2 -37 -7 -66 -12 -64 -5 2 -14 -7 -20 -20 -7 -14 -22 -24
-39 -26 -37 -4 -35 19 3 51 37 31 41 61 8 52 -21 -5 -20 -4 4 15 16 12 28 28
28 36 0 16 -17 19 -22 4 -1 -5 -18 -12 -35 -16 -26 -5 -33 -3 -33 10 0 9 -7
16 -15 16 -8 0 -15 -7 -15 -15 0 -8 -4 -15 -10 -15 -5 0 -10 3 -10 8 0 4 -18
7 -40 7 -32 1 -40 -3 -40 -17 0 -11 -7 -18 -20 -18 -14 0 -20 -6 -18 -17 2
-14 -4 -18 -24 -18 -16 1 -28 -3 -28 -7 0 -17 -40 -7 -50 13 -14 26 -6 49 17
49 10 0 27 7 37 15 18 13 18 16 4 32 -18 19 -14 68 6 81 24 15 76 29 81 21 3
-4 19 -3 36 3 44 15 18 27 -47 21 -45 -3 -54 -2 -54 12 0 10 -7 15 -17 13 -15
-2 -19 6 -21 41 -4 47 12 76 28 51 7 -12 12 -11 32 5 13 11 24 21 26 21 2 1
-3 12 -10 24 -11 18 -11 22 4 31 9 5 15 16 12 24 -4 10 3 18 20 25 22 8 25 14
20 35 -4 18 -1 32 11 45 25 28 44 9 40 -38 -2 -20 1 -42 6 -48 15 -18 56 -4
68 22 12 27 6 31 -15 9 -22 -21 -34 -19 -32 8 2 26 -29 77 -47 77 -17 0 -50
-51 -47 -71 2 -9 -8 -23 -22 -32 -18 -12 -27 -29 -32 -64 -9 -62 -12 -68 -34
-48 -18 16 -19 15 -34 -13 -19 -37 -15 -106 8 -131 15 -16 15 -23 6 -41 -7
-13 -15 -43 -19 -68 -5 -38 -10 -47 -31 -52 -20 -5 -25 -12 -23 -34 1 -16 9
-39 18 -52 13 -21 21 -24 50 -18 29 5 37 2 64 -28 25 -27 32 -30 40 -18 15 22
18 12 26 -74 l7 -79 -24 8 c-57 19 -107 17 -137 -4 -16 -12 -33 -21 -39 -21
-5 0 -15 -7 -22 -16 -8 -8 -20 -19 -29 -24 -15 -7 -16 76 -15 908 l0 917 200
1 c1111 7 1828 15 1832 19 3 3 -454 5 -1014 5 -780 0 -1023 -3 -1032 -12z
m2766 -957 c2 -23 7 -31 18 -27 8 3 14 -1 14 -9 0 -9 10 -15 25 -15 14 0 25
-5 25 -11 0 -6 7 -17 15 -25 16 -16 21 -69 6 -60 -5 4 -16 3 -25 0 -14 -5 -14
-9 -4 -22 11 -12 9 -17 -10 -30 -32 -21 -27 -32 15 -29 29 1 38 -2 41 -15 2
-11 -3 -18 -13 -18 -23 0 -31 -31 -12 -45 27 -20 50 -84 36 -101 -16 -20 -29
-17 -29 6 0 29 -43 53 -79 45 -39 -8 -44 -17 -31 -51 13 -34 1 -49 -35 -40
-20 5 -26 12 -22 26 3 11 -2 25 -10 31 -11 10 -20 9 -44 -5 -16 -9 -29 -14
-29 -9 0 4 -7 -1 -16 -12 -13 -17 -16 -18 -24 -5 -15 23 -12 50 6 50 11 0 14
6 9 20 -4 11 -2 20 4 20 6 0 11 9 11 20 0 21 -33 29 -44 11 -4 -5 -17 -4 -32
2 -23 11 -25 16 -21 57 5 48 41 90 78 90 14 0 21 9 25 30 4 16 11 27 16 24 5
-3 12 4 15 16 3 12 16 26 29 30 14 6 26 21 30 37 8 30 32 54 49 49 6 -1 11
-17 13 -35z m-1298 -41 c0 -5 -4 -10 -10 -10 -5 0 -10 5 -10 10 0 6 5 10 10
10 6 0 10 -4 10 -10z m-135 -61 c-4 -5 -13 -9 -22 -9 -13 0 -13 3 -3 15 13 15
35 11 25 -6z m852 -11 c-3 -8 -6 -5 -6 6 -1 11 2 17 5 13 3 -3 4 -12 1 -19z
m-632 -47 c3 -5 31 -13 62 -17 54 -6 97 -29 87 -46 -3 -4 -1 -8 5 -8 5 0 8
-16 7 -35 -2 -19 0 -35 4 -35 11 0 -21 -80 -42 -105 -9 -11 -32 -40 -50 -65
-51 -67 -72 -75 -129 -43 -33 18 -52 36 -64 64 -18 39 -35 51 -35 24 0 -49 91
-125 151 -125 24 0 29 -4 29 -23 0 -13 5 -28 11 -34 16 -16 9 -24 -84 -90 -80
-58 -84 -59 -137 -56 -30 2 -68 7 -85 11 -56 16 -38 77 38 125 l27 17 0 -35
c0 -38 19 -49 22 -12 3 46 4 229 0 218 -2 -6 -8 -11 -13 -11 -13 0 2 32 28 60
20 22 54 103 70 168 3 12 11 22 19 22 7 0 18 9 24 20 11 21 44 27 55 11z
m-195 -11 c0 -5 -4 -10 -10 -10 -5 0 -10 5 -10 10 0 6 5 10 10 10 6 0 10 -4
10 -10z m-70 -14 c0 -3 -4 -8 -10 -11 -5 -3 -10 -1 -10 4 0 6 5 11 10 11 6 0
10 -2 10 -4z m80 -47 c0 -5 -4 -9 -10 -9 -5 0 -10 7 -10 16 0 8 5 12 10 9 6
-3 10 -10 10 -16z m750 5 c0 -3 -7 -12 -15 -20 -21 -21 -19 -57 6 -88 16 -20
17 -26 6 -26 -35 0 -59 79 -37 121 10 17 40 27 40 13z m-750 -50 c0 -8 -5 -12
-10 -9 -6 4 -8 11 -5 16 9 14 15 11 15 -7z m-83 -116 c-3 -8 -6 -5 -6 6 -1 11
2 17 5 13 3 -3 4 -12 1 -19z m43 -2 c0 -3 -4 -8 -10 -11 -5 -3 -10 -1 -10 4 0
6 5 11 10 11 6 0 10 -2 10 -4z m1109 -129 c29 -14 39 -37 17 -37 -9 0 -16 -4
-16 -10 0 -22 -29 -8 -41 19 -9 20 -17 27 -25 21 -13 -11 -62 35 -50 47 4 5
13 0 20 -10 15 -19 26 -22 26 -6 0 6 -13 24 -30 39 -16 15 -30 33 -30 38 0 6
24 -12 53 -39 28 -28 63 -56 76 -62z m-239 78 c0 -14 -4 -25 -10 -25 -5 0 -10
11 -10 25 0 14 5 25 10 25 6 0 10 -11 10 -25z m-860 -11 c0 -8 -5 -12 -10 -9
-6 4 -8 11 -5 16 9 14 15 11 15 -7z m961 -62 c-5 -2 -23 4 -40 13 -23 11 -31
23 -31 42 l0 27 40 -39 c23 -22 36 -41 31 -43z m266 56 c-3 -8 -6 -5 -6 6 -1
11 2 17 5 13 3 -3 4 -12 1 -19z m132 -28 c6 0 11 -4 11 -10 0 -5 -4 -10 -8
-10 -13 0 -52 40 -52 53 1 7 9 2 19 -10 11 -13 24 -23 30 -23z m-559 -16 c0
-9 -92 -96 -96 -91 -8 7 13 51 35 75 20 20 61 31 61 16z m-1780 -84 c0 -5 -4
-10 -10 -10 -5 0 -10 5 -10 10 0 6 5 10 10 10 6 0 10 -4 10 -10z m1800 0 c-19
-13 -30 -13 -30 0 0 6 10 10 23 10 18 0 19 -2 7 -10z m705 -20 c-3 -5 -11 -10
-16 -10 -6 0 -7 5 -4 10 3 6 11 10 16 10 6 0 7 -4 4 -10z m-2615 -30 c0 -5 -4
-10 -10 -10 -5 0 -10 5 -10 10 0 6 5 10 10 10 6 0 10 -4 10 -10z m880 -275
c17 -54 64 -135 93 -163 36 -34 65 -21 142 61 129 140 144 154 213 190 39 21
72 37 75 37 3 0 5 -12 4 -27 -2 -25 1 -28 28 -28 25 0 30 4 33 28 3 20 -1 27
-15 27 -17 1 -16 2 2 16 33 26 178 11 228 -23 l38 -27 -26 -14 c-15 -7 -29
-11 -32 -8 -3 3 -14 1 -24 -5 -20 -10 -26 -39 -9 -39 15 0 12 -26 -4 -39 -8
-7 -18 -31 -21 -53 -4 -23 -13 -55 -20 -72 -7 -17 -16 -53 -20 -80 -5 -36 -12
-50 -26 -53 -21 -6 -25 -19 -7 -25 16 -6 1 -58 -16 -58 -26 0 -3 188 24 205 6
3 10 15 10 26 0 11 7 34 16 50 8 17 12 34 8 37 -4 4 -9 1 -11 -5 -6 -16 -23
-17 -23 -2 0 16 40 99 48 99 4 1 18 10 31 21 20 16 22 22 11 29 -9 5 -21 -2
-39 -23 -14 -18 -34 -41 -44 -52 -28 -31 -43 -93 -28 -117 10 -16 9 -24 -3
-43 -31 -48 -56 -179 -56 -297 0 -63 3 -117 6 -120 3 -4 7 -102 8 -220 2 -117
1 -205 -1 -195 -3 12 -10 16 -20 13 -13 -5 -14 12 -10 136 4 104 3 127 -3 83
-14 -91 -14 -230 0 -680 11 -372 14 -413 31 -441 10 -17 19 -40 19 -50 0 -10
24 -41 53 -69 44 -41 59 -64 81 -126 70 -195 227 -374 391 -448 54 -24 199
-70 207 -65 4 3 35 -22 68 -55 62 -60 71 -64 185 -86 45 -8 95 -42 95 -63 0
-29 51 -70 87 -69 43 0 63 -18 63 -58 0 -36 -13 -45 -61 -45 -17 0 -29 -5 -29
-13 0 -16 1 -16 -231 -23 -179 -6 -199 -4 -238 13 -44 21 -45 33 0 33 15 0 34
3 43 6 28 11 17 20 -19 16 -42 -5 -79 21 -70 49 4 10 -1 30 -11 44 -14 21 -24
25 -65 25 -27 0 -49 -4 -49 -9 0 -10 39 -62 59 -77 8 -7 20 -10 26 -7 7 2 18
-3 25 -12 20 -24 -5 -63 -44 -70 -87 -14 -149 -8 -176 15 -13 12 -31 18 -39
15 -8 -3 -56 -9 -107 -12 -91 -6 -154 6 -154 28 0 5 -9 9 -19 9 -11 0 -31 4
-46 10 -22 9 -24 13 -15 31 7 11 9 23 6 26 -3 3 -10 -5 -14 -18 -9 -23 -14
-24 -93 -24 -60 0 -109 -7 -169 -25 -99 -29 -220 -31 -310 -5 -30 9 -73 20
-95 26 -21 5 -44 14 -51 20 -7 5 -41 7 -83 3 l-71 -7 1 29 c1 58 14 119 22
107 5 -7 15 -13 24 -13 13 0 13 2 2 17 -8 9 -13 24 -11 34 2 14 -1 17 -14 12
-15 -5 -16 2 -10 78 11 125 26 253 32 259 3 3 11 -3 18 -13 14 -18 36 -23 36
-8 0 5 -7 12 -16 15 -11 4 -15 14 -12 31 3 14 1 25 -5 25 -11 0 0 120 14 157
5 13 13 49 18 81 5 31 13 65 17 76 5 14 3 17 -7 14 -8 -2 -22 -31 -31 -64 -21
-76 -23 -38 -3 92 8 54 17 117 19 139 3 22 12 81 20 130 8 50 22 164 30 255
22 239 24 247 46 253 11 3 22 2 25 -3 4 -7 -3 -174 -21 -502 l-7 -118 -26 -1
c-14 -1 -29 -1 -34 0 -4 0 -6 -2 -5 -6 0 -5 -2 -16 -7 -26 -5 -11 -2 -24 9
-36 9 -10 16 -23 16 -29 0 -7 5 -12 10 -12 6 0 10 9 10 20 0 11 -6 19 -12 18
-8 -2 -13 8 -13 27 0 20 5 30 15 30 9 0 15 -9 15 -25 0 -14 4 -30 8 -37 4 -7
-4 -92 -18 -189 -14 -97 -25 -189 -25 -204 0 -14 -2 -29 -5 -32 -3 -3 -8 -55
-10 -116 -1 -60 -6 -164 -10 -231 -6 -90 -4 -125 5 -136 18 -22 29 -9 23 28
-2 18 0 48 5 67 l10 35 1 -36 c1 -51 27 -120 60 -160 40 -47 51 -29 14 24 -43
61 -53 98 -53 201 0 95 16 308 26 339 3 9 1 17 -4 17 -14 0 -32 -79 -33 -142
0 -29 -5 -75 -9 -103 -6 -35 -7 -18 -3 60 5 117 27 297 38 315 4 6 2 17 -4 24
-7 8 -8 28 -2 57 l9 44 1 -37 c2 -61 18 -43 25 27 4 36 11 76 16 90 7 19 5 27
-9 37 -16 12 -17 22 -10 92 4 44 10 179 13 300 6 220 17 357 38 491 11 67 27
415 20 425 -12 17 -20 -45 -25 -203 -8 -219 -11 -240 -41 -231 -11 3 -24 9
-27 13 -7 7 7 206 22 311 6 41 11 173 12 292 2 172 5 218 15 218 7 0 11 4 7
10 -3 5 -12 7 -20 3 -11 -4 -15 2 -15 20 0 21 4 24 21 20 11 -3 26 -14 32 -24
15 -24 27 -24 27 -1 0 25 -19 42 -47 42 -28 0 -39 21 -25 47 5 10 13 40 16 66
11 83 -16 51 -36 -44 -16 -70 -17 -95 -9 -151 14 -84 14 -328 1 -348 -7 -11
-10 -8 -10 16 0 35 -32 88 -72 117 -28 21 -110 34 -152 23 -41 -10 -30 -24 17
-24 71 1 104 -11 141 -53 35 -38 49 -86 24 -76 -25 9 -58 -12 -57 -35 l0 -23
10 24 c8 19 14 22 37 16 38 -9 48 -21 32 -40 -9 -11 -23 -15 -39 -12 l-26 5
28 -22 c27 -21 39 -76 17 -76 -5 0 -10 5 -10 11 0 19 -103 119 -144 141 -29
15 -52 19 -83 15 -39 -4 -43 -2 -43 17 0 12 9 27 20 34 12 7 20 23 20 40 1 15
14 42 30 62 17 19 30 38 30 42 0 4 20 37 45 74 25 36 45 67 45 69 0 1 -8 2
-17 1 -11 0 -17 5 -14 14 13 50 13 60 -1 60 -8 0 -23 -9 -33 -20 -19 -21 -65
-28 -65 -9 0 6 7 9 15 6 8 -4 17 -2 21 4 13 22 104 45 104 26 0 -4 -4 -17 -10
-27 -13 -25 10 -43 45 -34 33 8 41 26 26 62 -10 24 -9 37 10 83 12 30 32 86
44 124 13 39 31 88 41 109 l19 39 6 -79 c3 -44 12 -97 19 -119z m225 140 c22
-1 41 -5 43 -9 8 -20 -4 -26 -50 -25 -71 1 -102 11 -106 33 -4 16 1 18 35 11
21 -4 56 -8 78 -10z m1424 -51 c-11 -14 -10 -18 4 -29 12 -8 14 -15 8 -20 -6
-3 -11 -15 -11 -26 0 -39 -25 -13 -27 28 -2 38 27 97 35 72 2 -5 -2 -17 -9
-25z m-1079 6 c0 -11 -4 -20 -10 -20 -5 0 -10 9 -10 20 0 11 5 20 10 20 6 0
10 -9 10 -20z m-1482 -15 c12 -4 22 -11 22 -16 0 -7 -30 -6 -50 1 -3 2 -8 2
-11 2 -3 -1 -6 5 -6 12 0 14 4 14 45 1z m1062 0 c0 -8 -7 -15 -15 -15 -8 0
-15 7 -15 15 0 8 7 15 15 15 8 0 15 -7 15 -15z m-369 -18 c-13 -13 -26 -3 -16
12 3 6 11 8 17 5 6 -4 6 -10 -1 -17z m459 15 c0 -19 -23 -32 -37 -21 -20 17
-15 29 12 29 14 0 25 -4 25 -8z m1361 -74 c1 -33 -3 -63 -9 -71 -7 -8 -10 -21
-6 -30 3 -8 1 -18 -5 -22 -6 -3 -11 -14 -11 -24 0 -22 -23 -29 -64 -21 -22 4
-32 12 -37 34 -10 37 -4 46 27 46 14 0 38 10 54 22 27 20 30 27 30 82 0 77 18
63 21 -16z m-1956 52 c-3 -5 -11 -10 -16 -10 -6 0 -7 5 -4 10 3 6 11 10 16 10
6 0 7 -4 4 -10z m1205 2 c0 -12 -68 -34 -80 -27 -16 10 -2 24 19 18 10 -3 22
0 25 6 8 13 36 15 36 3z m-1173 -74 c-2 -13 -4 -3 -4 22 0 25 2 35 4 23 2 -13
2 -33 0 -45z m1246 52 c32 0 17 -28 -37 -65 -62 -43 -95 -97 -119 -195 -17
-69 -42 -250 -54 -390 -6 -66 -11 -85 -23 -85 -21 0 -21 272 1 286 12 7 12 10
1 18 -11 7 -12 22 -2 87 7 44 21 106 31 139 10 33 19 68 19 78 0 9 8 25 18 35
10 10 17 23 14 30 -5 17 89 74 113 68 11 -3 28 -6 38 -6z m612 -98 c-3 -3 -11
0 -18 7 -9 11 -9 14 1 18 6 3 13 23 14 46 1 37 2 35 5 -12 2 -29 2 -56 -2 -59z
m-103 68 c39 0 48 -3 48 -17 -1 -41 -15 -48 -67 -35 -56 15 -129 7 -155 -16
-17 -14 -18 -12 -18 34 0 32 3 44 9 35 5 -8 14 -10 22 -5 7 4 28 7 45 6 18 -2
36 2 39 9 5 8 10 8 18 0 6 -6 33 -11 59 -11z m-452 -14 c0 -2 -7 -9 -15 -16
-13 -11 -14 -10 -9 4 5 14 24 23 24 12z m842 -41 c11 -37 1 -95 -19 -117 -14
-16 -13 -18 11 -29 33 -16 33 -23 -4 -49 -16 -11 -39 -39 -51 -60 l-23 -40
-23 22 c-17 16 -20 25 -12 34 14 17 3 34 -22 34 -25 0 -25 20 2 27 28 8 22 48
-8 48 -26 0 -70 52 -56 66 6 6 27 14 47 19 48 11 68 -14 59 -76 -5 -41 -4 -44
22 -54 15 -6 30 -8 32 -6 9 8 -8 26 -23 26 -12 0 -14 10 -12 44 2 24 9 50 15
58 6 7 14 30 18 51 9 46 34 47 47 2z m-2907 15 c-3 -5 -14 -10 -23 -9 -14 0
-13 2 3 9 27 11 27 11 20 0z m71 -6 c-3 -9 -6 -18 -6 -20 0 -2 -9 -4 -20 -4
-25 0 -25 9 -2 26 23 18 35 17 28 -2z m1913 -21 c-20 -21 -46 -59 -60 -85 -28
-56 -47 -49 -23 8 16 40 27 52 78 92 43 33 45 27 5 -15z m771 33 c0 -3 -4 -8
-10 -11 -5 -3 -10 -1 -10 4 0 6 5 11 10 11 6 0 10 -2 10 -4z m-2567 -123 c6
-101 6 -103 -16 -103 -17 0 -22 6 -24 28 0 15 -4 40 -8 56 -6 20 -4 27 3 22
14 -9 23 22 18 64 -2 19 -2 39 1 43 12 20 21 -15 26 -110z m-81 58 c-2 -27 1
-58 8 -70 9 -17 9 -26 -1 -37 -9 -11 -8 -14 6 -14 9 0 15 -6 13 -12 -8 -22
-32 -14 -39 12 -9 32 -11 134 -3 154 12 32 21 15 16 -33z m1938 35 c0 -7 6
-19 14 -25 7 -6 16 -31 18 -55 3 -24 16 -57 28 -74 13 -18 20 -35 16 -39 -9
-10 -56 43 -56 63 0 8 -5 14 -11 14 -19 0 0 -53 26 -75 32 -27 31 -41 -4 -63
-22 -13 -43 -16 -97 -12 l-69 5 1 50 c1 31 11 72 27 105 l26 55 0 -47 c1 -27
6 -48 11 -48 6 0 10 20 10 45 0 30 8 57 23 80 23 37 37 44 37 21z m-1900 -6
c0 -5 -4 -10 -10 -10 -5 0 -10 5 -10 10 0 6 5 10 10 10 6 0 10 -4 10 -10z
m260 -25 c0 -19 -13 -33 -56 -62 -63 -42 -54 -58 12 -22 33 18 46 21 55 12 18
-18 4 -40 -31 -47 -18 -3 -46 -17 -62 -31 -17 -15 -37 -24 -44 -21 -21 8 -26
-12 -7 -23 12 -7 14 -13 7 -18 -6 -5 -16 -28 -22 -53 -13 -54 -5 -63 51 -56
37 4 38 3 33 -19 -3 -13 -2 -27 4 -30 18 -11 11 -44 -12 -56 -13 -7 -28 -19
-34 -27 -10 -14 -13 -13 -23 6 -6 11 -11 27 -11 36 0 8 -12 19 -27 24 -27 10
-28 11 -5 17 32 10 27 20 -20 42 l-42 20 30 14 c21 11 28 20 26 37 -2 12 1 22
6 22 11 0 9 110 -2 129 -7 11 -5 13 8 8 12 -5 29 6 57 36 22 23 49 52 61 65
28 29 48 28 48 -3z m511 -18 c-8 -8 -11 -5 -11 9 0 27 14 41 18 19 2 -9 -1
-22 -7 -28z m1809 39 c0 -3 -4 -8 -10 -11 -5 -3 -10 -1 -10 4 0 6 5 11 10 11
6 0 10 -2 10 -4z m102 -18 c-7 -7 -12 -8 -12 -2 0 6 3 14 7 17 3 4 9 5 12 2 2
-3 -1 -11 -7 -17z m-306 -76 c-10 -63 -21 -53 -21 18 0 64 1 67 14 43 8 -16
11 -40 7 -61z m-2376 53 c0 -8 -4 -17 -10 -20 -6 -4 -10 5 -10 20 0 15 4 24
10 20 6 -3 10 -12 10 -20z m470 0 c0 -20 5 -25 25 -25 17 0 25 6 25 17 0 9 3
13 7 9 4 -3 -6 -32 -22 -62 -25 -48 -30 -53 -37 -35 -15 41 -21 121 -9 121 6
0 11 -11 11 -25z m-600 11 c0 -9 -40 -13 -46 -5 -3 5 6 9 20 9 14 0 26 -2 26
-4z m2370 -16 c30 -30 25 -40 -19 -40 -40 0 -56 16 -45 45 8 21 40 19 64 -5z
m-1851 1 c23 -15 -2 -19 -29 -5 -22 12 -22 14 -5 14 11 0 26 -4 34 -9z m1898
-53 c-2 -13 -4 -5 -4 17 -1 22 1 32 4 23 2 -10 2 -28 0 -40z m45 10 c-9 -9
-12 -7 -12 12 0 19 3 21 12 12 9 -9 9 -15 0 -24z m-1982 3 c11 -21 5 -28 -20
-26 -8 0 -18 -4 -22 -10 -4 -5 -8 5 -8 23 0 25 4 32 20 32 10 0 24 -9 30 -19z
m-428 -50 c3 -31 1 -37 -9 -29 -7 6 -13 7 -13 4 0 -4 -10 -1 -22 6 -13 7 -30
13 -38 13 -8 0 -15 7 -15 15 0 10 14 17 40 21 22 3 43 7 46 8 4 0 9 -17 11
-38z m478 -80 c-55 -58 -62 -46 -11 19 23 29 42 62 43 73 1 12 3 6 5 -13 3
-31 -2 -42 -37 -79z m367 87 c-3 -8 -6 -5 -6 6 -1 11 2 17 5 13 3 -3 4 -12 1
-19z m1425 -10 c0 -13 0 -35 -1 -51 -2 -24 4 -30 43 -48 50 -22 63 -36 48 -51
-8 -8 -23 -6 -52 6 -32 13 -46 14 -56 5 -7 -6 -18 -8 -24 -4 -11 7 -2 56 12
66 5 3 10 27 11 53 2 47 16 65 19 24z m348 -14 c0 -22 -4 -25 -32 -22 -25 2
-34 8 -36 25 -3 17 3 22 25 25 37 5 43 1 43 -28z m-2197 -55 c-4 -4 -6 13 -3
39 l5 47 3 -39 c2 -21 0 -42 -5 -47z m57 71 c0 -5 -4 -10 -10 -10 -5 0 -10 5
-10 10 0 6 5 10 10 10 6 0 10 -4 10 -10z m1930 -41 c41 -30 42 -32 35 -75 -6
-42 -5 -44 19 -44 29 0 44 18 22 26 -26 10 -19 34 9 34 14 0 25 5 25 10 0 6
-12 10 -27 10 -26 0 -26 1 -7 15 13 9 32 12 59 9 102 -14 104 -16 86 -38 -6
-8 -27 -17 -45 -20 -44 -8 -62 -29 -41 -46 26 -22 17 -38 -25 -45 -34 -6 -40
-10 -35 -26 3 -10 7 -27 10 -37 3 -12 -5 -28 -24 -46 -20 -19 -27 -34 -24 -49
l5 -22 -16 22 c-27 36 -38 74 -25 89 15 18 1 54 -21 54 -24 0 -34 16 -15 24
10 3 15 19 15 46 0 39 -3 43 -40 58 -45 19 -51 42 -17 65 29 21 28 21 77 -14z
m-2020 12 c0 -26 -15 -41 -40 -41 -36 0 -80 -16 -80 -29 0 -6 17 -9 37 -8 33
2 38 -1 41 -21 3 -19 -1 -23 -20 -21 -55 5 -80 -1 -85 -21 -6 -22 -23 -27 -23
-7 0 6 -3 22 -6 35 -5 16 -2 22 9 22 9 0 19 9 22 20 3 11 13 20 21 20 8 0 14
6 14 14 0 22 26 33 103 45 4 0 7 -3 7 -8z m329 -7 c23 -7 -6 -32 -48 -39 -34
-5 -38 -9 -38 -35 0 -25 6 -31 34 -41 38 -12 37 -10 21 -44 -13 -28 -30 -32
-48 -10 -7 8 -23 15 -37 15 -26 0 -53 21 -53 41 0 8 4 8 13 1 14 -12 57 -5 57
9 0 5 -7 9 -15 9 -19 0 -19 4 0 40 22 42 1 46 -24 5 -25 -43 -54 -48 -49 -7 2
19 9 28 24 30 12 2 24 11 27 21 4 15 13 17 63 14 33 -3 65 -6 73 -9z m1467
-33 c15 -11 20 -24 18 -46 -1 -16 -3 -36 -3 -43 -1 -7 -7 -12 -13 -11 -7 1
-24 -2 -38 -8 -73 -30 -70 -32 -70 50 0 51 4 77 13 80 19 7 70 -5 93 -22z m44
15 c0 -3 -4 -8 -10 -11 -5 -3 -10 -1 -10 4 0 6 5 11 10 11 6 0 10 -2 10 -4z
m-2079 -16 c6 0 5 -9 -1 -21 -9 -16 -14 -18 -26 -8 -19 16 -18 43 2 35 9 -3
20 -6 25 -6z m-151 -40 c0 -4 -12 -7 -27 -7 -16 -1 -37 -2 -47 -4 -10 -2 -21
2 -24 10 -3 10 0 12 11 8 8 -3 23 3 33 12 17 17 21 17 37 3 9 -8 17 -18 17
-22z m86 -15 c-6 -14 -16 -25 -23 -25 -6 0 -14 -8 -16 -17 -3 -10 -5 0 -5 22
0 22 2 34 5 28 9 -24 23 -13 23 20 1 29 2 30 14 14 11 -14 11 -23 2 -42z
m1718 28 c-10 -40 -14 -41 -14 -5 0 18 5 32 10 32 6 0 8 -11 4 -27z m251 -210
c-4 -57 -10 -101 -15 -98 -11 7 -6 277 5 295 14 21 18 -70 10 -197z m-1925
172 c7 -9 11 -16 9 -18 -60 -34 -65 -33 -46 6 14 31 20 33 37 12z m404 -3 c7
-11 -64 -33 -78 -25 -5 4 6 12 25 19 43 16 47 16 53 6z m-539 -36 c20 -31 18
-147 -2 -139 -7 3 -13 14 -13 24 0 14 -9 21 -30 26 -32 6 -40 27 -15 37 22 8
18 25 -10 38 -29 13 -32 25 -7 31 41 11 62 6 77 -17z m2345 -17 c0 -4 -13 -17
-30 -29 -22 -15 -30 -30 -30 -51 0 -38 11 -37 30 4 12 25 20 31 40 29 33 -4
39 -12 33 -44 -3 -18 -10 -25 -19 -21 -21 8 -72 -16 -79 -38 -7 -20 -25 -26
-25 -9 0 6 4 10 10 10 5 0 1 18 -8 39 -10 22 -17 52 -16 68 1 15 2 38 3 50 0
12 9 23 19 26 18 4 72 -22 72 -34z m-1932 14 c2 -8 -5 -13 -17 -13 -33 0 -25
-17 14 -30 41 -13 46 -37 10 -46 -37 -9 -33 -35 5 -27 33 6 32 7 34 -67 2 -76
20 -61 20 17 1 72 1 72 26 66 37 -9 42 -13 35 -31 -3 -8 3 -23 15 -34 23 -21
22 -42 -1 -44 -8 0 -19 -2 -25 -2 -13 -2 -36 -50 -29 -62 3 -5 0 -21 -6 -37
-9 -25 -12 -26 -20 -10 -6 9 -17 17 -24 17 -8 0 -15 9 -15 20 0 13 -10 24 -25
30 -22 9 -25 15 -23 52 3 41 2 43 -27 46 -16 2 -34 8 -39 13 -11 10 21 49 41
49 19 0 16 34 -4 52 -10 8 -30 18 -45 22 -43 10 -33 24 20 29 65 5 75 4 80
-10z m2407 6 c10 -15 -1 -22 -24 -14 -12 3 -19 11 -16 16 8 12 32 11 40 -2z
m-1160 -29 c-3 -10 -1 -21 5 -25 11 -7 12 -189 1 -240 -12 -56 -26 -25 -28 63
-1 48 -3 96 -4 107 -1 11 -2 43 -1 72 2 42 5 51 17 47 10 -4 13 -13 10 -24z
m566 7 c-1 -12 -15 -9 -19 4 -3 6 1 10 8 8 6 -3 11 -8 11 -12z m-33 -87 c-2
-40 1 -54 10 -52 7 1 15 -5 18 -13 4 -8 13 -15 21 -15 24 0 9 -25 -18 -28 -36
-6 -51 -23 -47 -54 4 -23 1 -28 -15 -28 -17 0 -19 5 -15 45 4 34 2 45 -8 45
-21 0 -17 16 12 45 33 33 30 77 -5 85 -34 8 -36 22 -3 41 25 15 28 15 40 0 8
-10 12 -36 10 -71z m-2129 -7 c0 -17 -3 -35 -9 -38 -6 -4 -10 19 -9 62 1 52 3
61 9 38 4 -16 8 -44 9 -62z m51 62 c0 -1 -7 -8 -15 -15 -13 -10 -15 -9 -15 8
0 15 5 20 15 16 8 -4 15 -7 15 -9z m530 -15 c0 -13 -24 -28 -57 -35 -20 -4
-33 -3 -33 3 0 5 -12 13 -27 17 -27 7 -26 8 22 25 37 12 56 14 73 7 12 -6 22
-13 22 -17z m1130 -86 c-6 -60 -13 -125 -15 -144 -2 -19 -4 -44 -5 -54 0 -11
-2 -17 -5 -14 -6 6 11 238 22 296 12 68 14 20 3 -84z m1100 68 c0 -9 -7 -11
-22 -6 -30 9 -30 8 -22 27 5 13 9 14 25 4 10 -6 19 -18 19 -25z m-2380 18 c0
-5 -4 -10 -10 -10 -5 0 -10 5 -10 10 0 6 5 10 10 10 6 0 10 -4 10 -10z m1610
-25 c0 -8 -4 -15 -10 -15 -5 0 -10 7 -10 15 0 8 5 15 10 15 6 0 10 -7 10 -15z
m-1995 -4 c3 -5 1 -12 -5 -16 -5 -3 -10 1 -10 9 0 18 6 21 15 7z m25 -95 c-9
-8 -11 -2 -9 24 4 50 13 61 17 21 2 -18 -2 -39 -8 -45z m40 64 c0 -5 -2 -10
-4 -10 -3 0 -8 5 -11 10 -3 6 -1 10 4 10 6 0 11 -4 11 -10z m420 -10 c0 -5 -7
-10 -16 -10 -8 0 -12 5 -9 10 3 6 10 10 16 10 5 0 9 -4 9 -10z m2278 -44 c-6
-6 -78 6 -78 13 0 3 17 14 38 23 l37 16 3 -25 c2 -14 2 -26 0 -27z m-748 35
c0 -11 -31 -24 -39 -16 -3 3 1 10 9 15 19 12 30 12 30 1z m-2200 -17 c0 -8 -4
-12 -10 -9 -5 3 -10 10 -10 16 0 5 5 9 10 9 6 0 10 -7 10 -16z m2477 -26 c-3
-8 -6 -5 -6 6 -1 11 2 17 5 13 3 -3 4 -12 1 -19z m373 -8 c0 -8 -52 -21 -58
-15 -2 2 5 12 15 23 17 18 43 13 43 -8z m-2790 0 c0 -5 -2 -10 -4 -10 -3 0 -8
5 -11 10 -3 6 -1 10 4 10 6 0 11 -4 11 -10z m2380 -12 c0 -19 -2 -20 -10 -8
-13 19 -13 30 0 30 6 0 10 -10 10 -22z m-2217 -25 c-7 -42 -24 -72 -45 -79
-30 -9 -20 -31 17 -38 42 -8 45 -22 9 -38 -15 -7 -40 -25 -57 -41 -24 -22 -28
-30 -17 -37 11 -7 12 -15 1 -48 -10 -29 -10 -44 -2 -60 14 -26 14 -32 1 -32
-6 0 -15 12 -21 27 -16 43 -37 61 -63 56 -31 -6 -39 9 -24 42 11 25 10 29 -15
49 -41 33 -35 53 16 58 23 3 51 1 62 -3 19 -8 19 -8 -1 -8 -30 -1 -47 -26 -40
-57 l7 -26 37 40 c20 21 46 43 57 47 20 8 20 9 0 12 -17 3 -20 10 -17 37 3 28
0 35 -17 41 -25 8 -25 13 -5 40 12 16 53 32 115 44 3 0 4 -11 2 -26z m2707 12
c20 -24 6 -28 -15 -5 -10 11 -13 20 -8 20 6 0 16 -7 23 -15z m-2119 -21 c55
-29 110 -90 135 -149 9 -23 18 -82 21 -149 4 -71 10 -114 18 -118 12 -7 9
-107 -4 -118 -3 -3 -6 -36 -7 -75 0 -38 -6 -137 -14 -219 -21 -243 -32 -159
-32 240 0 254 -3 367 -12 401 -30 112 -103 198 -163 191 -36 -4 -43 -28 -7
-28 25 0 26 -1 12 -17 -9 -10 -13 -24 -11 -30 6 -18 -7 -16 -29 4 -12 11 -22
13 -28 7 -7 -7 3 -16 28 -27 32 -14 86 -77 66 -77 -4 0 2 -10 13 -22 27 -31
44 -96 51 -191 5 -74 4 -79 -14 -75 -14 2 -21 15 -26 53 -23 165 -34 208 -69
257 -20 27 -23 28 -72 22 -50 -7 -51 -7 -37 12 8 10 21 23 28 27 6 4 12 15 12
23 0 8 4 22 9 32 5 9 12 25 15 35 8 25 58 22 117 -9z m1379 -8 c0 -8 -4 -17
-9 -21 -12 -7 -24 12 -16 25 9 15 25 12 25 -4z m220 -11 c0 -9 -9 -15 -25 -15
-24 0 -32 10 -18 23 12 13 43 7 43 -8z m-1780 -15 c0 -13 -7 -20 -20 -20 -19
0 -27 20 -13 33 13 14 33 6 33 -13z m1950 9 c0 -4 -21 -17 -47 -30 -60 -28
-58 -26 -43 -44 18 -22 8 -27 -23 -12 -15 6 -25 18 -22 25 2 7 -5 17 -18 22
-20 8 -19 9 9 9 21 1 33 7 36 19 4 13 16 17 56 18 29 0 52 -3 52 -7z m-2560
-9 c0 -5 -9 -10 -20 -10 -11 0 -20 5 -20 10 0 6 9 10 20 10 11 0 20 -4 20 -10z
m2863 -29 c-3 -11 -13 -28 -23 -38 -9 -11 -23 -29 -29 -41 -6 -12 -18 -22 -26
-22 -8 0 -15 -4 -15 -10 0 -5 15 -10 34 -10 19 0 38 -4 41 -10 3 -5 -1 -10 -9
-10 -9 0 -16 -9 -16 -20 0 -11 6 -20 14 -20 16 0 31 -18 23 -26 -3 -3 -21 -2
-40 1 -26 5 -37 13 -41 31 -4 13 -15 28 -26 34 -11 6 -20 17 -20 25 0 8 -7 15
-16 15 -11 0 -14 -5 -10 -16 3 -9 6 -36 6 -60 0 -34 4 -44 16 -44 11 0 14 5
10 16 -10 25 5 37 20 16 13 -20 9 -62 -8 -62 -5 0 -18 -16 -29 -35 -12 -19
-24 -35 -28 -35 -4 0 -13 27 -20 61 -9 47 -17 62 -32 66 -14 4 -19 12 -16 24
3 12 -3 25 -16 34 -11 8 -26 29 -31 47 -7 20 -22 38 -39 46 -20 10 -26 17 -19
24 15 15 96 0 125 -23 32 -24 59 -24 82 1 10 11 23 20 29 20 7 0 19 9 29 20
11 13 29 20 51 20 29 0 33 -3 29 -19z m-2064 -13 c9 -24 6 -38 -9 -38 -13 0
-32 39 -25 50 10 17 25 11 34 -12z m-714 2 c3 -6 -5 -10 -19 -10 -14 0 -29 -6
-33 -14 -11 -18 -73 -9 -73 11 0 11 7 13 27 9 16 -3 35 -2 43 4 19 13 47 13
55 0z m2285 0 c0 -5 -11 -10 -25 -10 -14 0 -25 5 -25 10 0 6 11 10 25 10 14 0
25 -4 25 -10z m-270 -30 c0 -27 -43 -258 -56 -302 -3 -9 -15 -18 -26 -20 -14
-2 -27 -16 -35 -36 -13 -31 -12 -34 7 -39 25 -7 25 -4 -1 -47 -12 -21 -29 -36
-40 -36 -31 0 -70 23 -67 39 1 9 -1 21 -5 27 -4 7 12 23 39 40 56 36 88 76
113 146 24 61 51 186 51 229 0 16 5 29 10 29 6 0 10 -14 10 -30z m-322 -18 c2
-14 -2 -22 -12 -22 -19 0 -29 17 -22 36 8 22 30 12 34 -14z m435 -3 c18 -20
18 -21 0 -35 -10 -7 -22 -13 -28 -14 -12 0 -45 56 -37 64 12 13 49 5 65 -15z
m172 -8 c-6 -4 -22 -11 -37 -15 -21 -5 -28 -3 -28 8 0 17 51 37 65 25 6 -6 6
-12 0 -18z m-1815 9 c0 -5 -4 -10 -10 -10 -5 0 -10 5 -10 10 0 6 5 10 10 10 6
0 10 -4 10 -10z m280 -9 c5 -11 10 -30 10 -43 0 -13 5 -29 12 -36 16 -16 22
-188 10 -267 l-10 -60 -1 55 c-1 30 -9 98 -18 150 -9 52 -16 110 -15 128 0 18
-3 30 -8 27 -11 -7 -20 19 -13 44 7 26 19 27 33 2z m1684 3 c8 -3 18 -22 22
-41 4 -19 13 -37 20 -40 11 -4 10 -9 -3 -29 -14 -22 -11 -28 10 -25 4 0 7 -3
7 -9 0 -13 -16 -13 -38 1 -14 9 -26 8 -50 -5 -18 -9 -32 -21 -32 -26 0 -6 -5
-10 -10 -10 -7 0 -9 19 -7 49 5 53 -1 61 -49 61 -13 0 -24 4 -24 9 0 20 40 57
64 59 26 2 35 -11 16 -23 -15 -9 -12 -35 5 -35 8 0 19 -9 25 -20 9 -17 14 -18
30 -7 23 14 28 52 6 44 -10 -4 -15 4 -18 24 -5 30 -1 33 26 23z m376 -4 c0
-13 -30 -13 -50 0 -11 7 -7 10 18 10 17 0 32 -4 32 -10z m-1923 -12 c6 -8 6
-57 -1 -133 l-11 -120 -6 115 c-3 63 -9 123 -14 133 -9 20 17 24 32 5z m725
-20 c-9 -9 -12 -7 -12 12 0 19 3 21 12 12 9 -9 9 -15 0 -24z m95 -5 c-3 -10
-5 -4 -5 12 0 17 2 24 5 18 2 -7 2 -21 0 -30z m-1139 0 c17 -25 42 -93 42
-117 0 -5 -7 -3 -15 4 -19 16 -40 3 -25 -15 9 -11 8 -19 -3 -35 l-15 -22 -14
29 c-7 15 -26 34 -41 41 -22 11 -26 18 -21 35 4 12 11 25 17 28 5 4 7 18 3 32
-4 19 -1 29 11 36 28 16 40 13 61 -16z m-440 5 c7 -7 12 -20 12 -30 0 -10 14
-25 32 -34 35 -18 37 -14 -27 -59 -17 -12 -18 -14 -3 -14 9 -1 20 4 23 9 16
26 22 5 9 -32 -8 -22 -12 -43 -9 -46 7 -7 8 -5 44 69 33 71 37 84 22 75 -13
-8 -71 26 -71 42 0 7 14 12 36 12 24 0 34 -4 31 -12 -2 -7 7 -26 19 -41 24
-29 32 -67 14 -67 -5 0 -10 -13 -10 -30 0 -23 -4 -30 -20 -30 -19 0 -70 -66
-70 -90 0 -16 -12 -12 -37 12 -30 28 -29 42 3 67 24 19 25 20 5 30 -11 6 -27
11 -35 11 -26 0 -19 38 7 42 18 2 21 8 19 33 -2 17 -10 38 -19 47 -8 10 -13
24 -10 33 8 18 19 19 35 3z m1548 -24 c-5 -13 -10 -14 -18 -6 -6 6 -8 18 -4
28 5 13 10 14 18 6 6 -6 8 -18 4 -28z m518 1 c5 -14 8 -14 31 1 25 16 36 5 13
-13 -13 -10 -108 -26 -108 -19 0 3 -3 11 -6 19 -4 12 0 14 15 10 12 -3 21 -1
21 6 0 17 27 13 34 -4z m636 5 c0 -6 -6 -20 -12 -31 -10 -17 -10 -23 0 -26 7
-3 12 -24 12 -56 l0 -51 -30 33 c-23 24 -28 36 -20 46 6 7 8 20 4 29 -3 9 1
27 10 41 17 25 36 33 36 15z m-1210 -72 c0 -61 29 -179 59 -245 20 -42 25 -60
15 -56 -8 3 -14 10 -14 15 0 5 -8 22 -18 36 -11 15 -26 50 -35 77 -19 61 -34
248 -18 225 6 -8 11 -32 11 -52z m56 -36 c0 -37 4 -83 8 -102 l7 -35 -14 30
c-16 36 -32 159 -22 175 13 21 20 -2 21 -68z m48 -86 c4 -33 4 -57 1 -54 -12
11 -35 162 -28 182 7 22 13 -3 27 -128z m421 124 c4 -6 15 -8 25 -5 25 8 60
-11 60 -32 0 -11 -6 -14 -22 -10 -12 3 -29 2 -38 -3 -13 -7 -22 -4 -35 10 -10
11 -26 20 -36 20 -30 0 -31 18 -2 23 16 2 31 5 35 6 4 0 10 -4 13 -9z m-1655
-53 c57 -29 15 -97 -60 -97 -22 0 -55 -7 -71 -16 -54 -28 -68 -11 -16 19 51
30 62 51 22 41 -43 -11 -28 14 23 40 56 28 69 30 102 13z m1575 -10 c-25 -17
-65 -28 -65 -18 0 5 15 13 33 19 46 14 54 14 32 -1z m-2185 -42 c0 -20 7 -26
41 -35 55 -15 73 -6 27 14 -21 9 -38 20 -38 25 0 14 53 -1 74 -21 24 -22 56
-24 56 -3 0 17 2 18 24 9 9 -3 16 -16 16 -28 0 -13 11 -33 25 -46 28 -26 19
-50 -19 -50 -44 0 -65 -12 -63 -33 1 -14 -5 -22 -18 -25 -11 -2 -30 -13 -42
-25 l-23 -20 -2 24 c0 13 -2 30 -2 36 -2 25 -34 52 -55 46 -26 -7 -27 7 -3 28
12 10 30 14 51 11 29 -4 31 -7 29 -36 -5 -48 16 -46 26 2 11 50 -2 66 -45 56
-18 -3 -28 0 -32 10 -4 9 -16 16 -27 16 -16 0 -20 6 -20 35 0 19 5 35 10 35 6
0 10 -11 10 -25z m2240 5 c0 -5 -4 -10 -10 -10 -5 0 -10 5 -10 10 0 6 5 10 10
10 6 0 10 -4 10 -10z m671 -1 c13 -6 18 -16 15 -26 -4 -9 1 -24 9 -34 10 -10
15 -30 13 -48 l-3 -30 -33 16 c-40 19 -53 48 -45 97 6 38 13 42 44 25z m-2503
-18 c10 -6 6 -11 -17 -19 -17 -6 -42 -23 -56 -38 -16 -17 -25 -22 -25 -13 0
22 29 59 54 69 27 11 29 11 44 1z m383 -78 c0 -91 3 -131 14 -193 6 -36 5 -43
-6 -33 -31 30 -47 303 -18 303 5 0 9 -35 10 -77z m1804 27 c17 -19 26 -70 17
-96 -4 -15 -49 25 -52 46 -5 31 0 70 8 70 5 0 17 -9 27 -20z m-1942 -9 c3 -12
-1 -22 -11 -26 -20 -7 -25 -1 -17 24 8 26 21 27 28 2z m1067 -7 c0 -9 13 -34
29 -57 15 -23 35 -53 43 -67 9 -14 40 -38 71 -54 49 -26 59 -28 82 -18 14 7
23 17 20 22 -3 6 3 10 15 10 11 0 32 12 47 26 14 14 27 23 30 20 9 -9 -20
-116 -32 -116 -6 0 -17 -24 -25 -52 -21 -83 -44 -126 -88 -163 -45 -39 -105
-49 -116 -19 -4 9 -9 14 -13 11 -3 -4 2 -18 11 -32 16 -24 16 -26 -8 -36 -14
-7 -27 -18 -31 -27 -8 -21 21 -61 50 -68 29 -7 31 -16 10 -34 -20 -16 -58 8
-80 50 -18 36 -34 179 -37 345 -1 66 -3 94 -5 62 -7 -101 -23 -51 -23 69 0 95
3 117 18 132 19 21 32 19 32 -4z m-652 -42 c4 -35 -8 -41 -32 -16 -26 26 -18
58 14 52 9 -2 16 -16 18 -36z m982 31 c-1 -18 -18 -35 -24 -24 -4 6 -4 16 -1
21 7 12 25 13 25 3z m-1494 -19 c17 -2 40 -14 50 -25 11 -12 29 -25 42 -30 20
-8 22 -15 22 -81 0 -40 5 -92 10 -116 11 -48 0 -81 -42 -118 -50 -46 -141 -75
-181 -57 -141 61 -179 102 -185 197 -5 74 17 152 51 184 12 11 42 30 67 41 44
20 63 21 166 5z m1862 -14 c32 0 27 -26 -8 -40 -28 -12 -30 -16 -30 -64 0 -29
6 -58 13 -65 10 -10 7 -16 -12 -32 -26 -21 -55 -10 -44 18 9 23 -17 34 -41 17
-28 -19 -38 -18 -31 5 5 17 0 21 -37 26 -24 3 -60 7 -80 8 -21 1 -38 7 -38 12
0 25 21 36 74 40 64 5 125 30 133 54 3 9 15 24 27 33 18 15 23 15 37 2 8 -8
25 -14 37 -14z m-1558 -15 c0 -27 -9 -32 -28 -13 -18 18 -14 38 8 38 15 0 20
-7 20 -25z m2062 -5 c16 0 34 -17 26 -25 -2 -2 -17 2 -32 10 -28 15 -46 12
-46 -6 0 -5 6 -9 13 -9 23 0 67 -25 67 -37 0 -7 -3 -13 -7 -13 -5 0 -19 -10
-33 -21 -24 -20 -24 -21 -2 -16 21 5 22 2 22 -48 0 -31 5 -55 11 -57 20 -7 1
-76 -22 -83 -11 -4 -24 -16 -29 -28 -7 -15 -9 7 -8 72 l2 94 -37 14 c-42 17
-49 33 -14 33 12 0 30 11 39 24 16 23 16 24 -7 46 -27 25 -32 49 -13 68 8 8
16 7 32 -3 11 -8 28 -15 38 -15z m-697 -9 c-16 -15 -65 -25 -65 -13 0 6 10 13
23 15 41 8 51 7 42 -2z m355 -26 c22 -20 50 -14 50 11 0 9 5 13 13 10 6 -3 20
-9 30 -12 11 -4 17 -17 17 -38 0 -40 -9 -52 -45 -66 l-30 -11 33 -28 c38 -30
31 -47 -23 -53 -17 -2 -31 -10 -33 -18 -4 -21 25 -58 35 -45 19 24 52 46 61
41 6 -3 -6 -22 -26 -42 -35 -35 -36 -37 -15 -45 11 -4 37 -24 57 -43 39 -40
46 -43 46 -22 0 14 -42 54 -78 76 -15 9 -15 12 8 30 14 11 38 32 55 45 32 27
41 30 49 16 6 -10 -49 -61 -65 -61 -5 0 -9 -4 -9 -10 0 -5 9 -10 20 -10 17 0
19 -3 10 -19 -15 -29 -13 -31 25 -31 29 0 35 -4 35 -21 0 -11 -4 -28 -9 -38
-7 -12 -5 -26 4 -44 8 -15 10 -29 5 -32 -13 -8 -50 13 -50 27 0 22 -33 48 -60
48 -20 0 -29 6 -33 22 -6 21 -7 21 -25 5 -23 -21 -32 -22 -32 -2 0 11 -7 14
-24 9 -13 -3 -27 -1 -30 5 -4 6 -25 11 -47 11 -21 0 -39 4 -39 8 0 5 22 20 49
34 50 25 76 22 64 -8 -7 -18 11 -18 27 1 9 11 4 22 -29 57 -43 44 -47 53 -31
63 16 10 12 23 -8 29 -10 4 -29 16 -42 28 -13 12 -32 23 -44 24 -12 1 -23 3
-26 3 -3 1 2 6 10 11 8 5 33 7 54 3 35 -5 39 -4 32 12 -3 10 -1 24 5 31 9 11
5 16 -16 24 -14 5 -31 10 -36 10 -5 0 -9 7 -9 16 0 14 9 16 50 12 28 -3 59
-13 70 -23z m-2380 5 c0 -5 -6 -10 -14 -10 -8 0 -18 5 -21 10 -3 6 3 10 14 10
12 0 21 -4 21 -10z m865 -20 c-8 -26 -38 -23 -43 4 -3 14 0 17 12 13 8 -3 18
-2 22 4 10 17 16 2 9 -21z m-825 0 c0 -5 -5 -10 -11 -10 -5 0 -7 5 -4 10 3 6
8 10 11 10 2 0 4 -4 4 -10z m625 -227 c11 -314 12 -334 25 -431 8 -65 8 -101
-2 -160 -19 -113 -25 -61 -27 210 -1 140 -7 272 -16 345 -13 97 -14 162 -6
266 1 4 5 7 9 7 5 0 12 -107 17 -237z m32 100 c-3 -10 -5 -2 -5 17 0 19 2 27
5 18 2 -10 2 -26 0 -35z m1838 28 c3 -6 22 -10 43 -9 20 0 51 -5 67 -11 26
-11 28 -14 13 -22 -9 -5 -15 -15 -12 -23 6 -16 -22 -41 -31 -27 -3 6 -1 20 5
31 10 18 8 20 -18 20 -15 0 -37 -7 -48 -15 -27 -20 -43 -19 -37 4 3 10 0 22
-6 25 -16 10 -13 36 3 36 8 0 17 -4 21 -9z m-2555 -31 c20 0 22 -2 10 -11 -11
-8 -12 -12 -2 -16 19 -7 15 -22 -14 -48 l-26 -24 31 -16 c32 -16 39 -29 21
-40 -6 -4 -8 -10 -5 -14 2 -5 -19 -11 -48 -13 -29 -2 -67 -11 -85 -20 -27 -14
-39 -15 -71 -9 -2 1 1 7 7 14 6 7 28 14 48 15 46 3 55 9 52 29 -4 24 19 27 27
4 3 -12 11 -21 16 -21 12 0 12 37 -1 45 -13 8 -13 62 1 71 8 4 7 10 -1 18 -9
8 -14 8 -17 0 -2 -6 -10 -19 -17 -29 -10 -14 -16 -15 -34 -6 -16 9 -26 9 -41
-1 -15 -9 -22 -8 -35 5 -9 8 -16 23 -16 31 0 17 22 15 79 -6 13 -5 24 -7 25
-6 1 2 7 16 14 32 10 22 17 27 35 22 12 -3 33 -6 47 -6z m2323 -6 c19 -7 22
-31 8 -53 -12 -19 -72 -19 -106 -1 -31 17 -28 34 8 38 14 2 31 10 38 18 6 8
17 12 23 9 6 -3 19 -8 29 -11z m-1693 -25 c0 -11 -4 -17 -10 -14 -5 3 -10 13
-10 21 0 8 5 14 10 14 6 0 10 -9 10 -21z m1262 -46 c8 -10 5 -13 -11 -13 -23
0 -24 3 -14 51 l8 34 3 -30 c2 -16 8 -36 14 -42z m-1175 10 c-3 -10 -5 -4 -5
12 0 17 2 24 5 18 2 -7 2 -21 0 -30z m1963 -44 c0 -10 -7 -19 -15 -19 -15 0
-21 31 -9 43 11 10 24 -3 24 -24z m-2772 12 c6 -2 -31 -51 -38 -51 -5 0 -21 5
-36 10 l-28 11 30 18 c24 16 45 19 72 12z m1898 -62 c-24 -59 -27 -91 -5 -59
13 21 1 -80 -18 -150 -20 -72 -74 -150 -104 -150 -6 0 -9 -7 -5 -15 4 -11 -1
-15 -19 -15 -14 0 -25 -5 -25 -11 0 -8 12 -10 35 -6 40 7 45 -4 13 -26 -19
-13 -20 -16 -6 -16 9 -1 20 4 23 9 3 6 12 10 18 10 7 -1 1 -10 -13 -21 -14
-12 -25 -28 -25 -38 0 -10 -10 -17 -26 -19 -39 -4 -113 67 -107 102 4 17 0 26
-12 29 -23 6 -30 49 -29 181 l0 111 19 -69 c13 -49 28 -79 53 -105 19 -20 42
-49 51 -66 l17 -30 -6 37 c-5 32 -4 36 14 31 11 -3 21 -12 23 -22 2 -10 12 1
28 31 24 49 22 71 -5 48 -25 -21 -44 4 -22 28 21 23 21 42 2 68 -19 25 -19 34
3 34 10 0 36 12 58 26 31 20 46 40 64 85 13 33 25 57 27 55 3 -2 -7 -33 -21
-67z m59 32 c3 -5 1 -12 -5 -16 -5 -3 -10 1 -10 9 0 18 6 21 15 7z m-1228 -53
c-2 -13 -4 -5 -4 17 -1 22 1 32 4 23 2 -10 2 -28 0 -40z m2133 0 c0 -14 -18
-9 -24 8 -11 28 -6 39 9 20 8 -11 15 -23 15 -28z m-833 3 c-8 -41 12 -56 44
-33 l24 16 -17 -26 c-10 -15 -18 -34 -18 -43 0 -8 -5 -15 -11 -15 -6 0 -9 6
-6 14 3 7 -1 23 -9 35 -33 46 -111 8 -99 -48 4 -20 1 -32 -11 -42 -16 -13 -17
-10 -12 49 5 53 10 66 34 85 25 20 54 33 78 36 5 1 6 -12 3 -28z m-1801 -28
c-6 -6 -56 16 -56 25 0 20 15 21 37 0 12 -12 21 -23 19 -25z m1371 15 c-3 -8
-6 -5 -6 6 -1 11 2 17 5 13 3 -3 4 -12 1 -19z m673 -7 c0 -10 11 -30 25 -45
31 -34 31 -36 -2 -36 -15 0 -37 -10 -50 -22 -13 -12 -25 -19 -27 -17 -5 5 6
54 26 111 13 37 28 42 28 9z m131 -11 c26 0 27 -2 22 -37 -7 -43 -45 -82 -82
-83 -23 0 -23 1 -8 18 22 24 21 38 -3 69 -28 36 -25 47 11 39 17 -3 44 -6 60
-6z m-2085 -27 c11 -2 34 -15 49 -27 22 -18 26 -27 20 -42 -7 -17 -8 -18 -12
-1 -3 9 -12 18 -21 18 -9 1 -24 2 -32 3 -16 1 -70 49 -70 62 0 3 10 3 23 -1
12 -3 31 -9 43 -12z m411 -5 c-3 -8 -6 -5 -6 6 -1 11 2 17 5 13 3 -3 4 -12 1
-19z m1283 2 c8 -5 13 -10 10 -11 -40 -6 -60 -6 -60 1 0 7 15 17 30 19 3 0 12
-4 20 -9z m-1350 -10 c33 -9 36 -14 48 -66 8 -31 12 -57 10 -59 -2 -2 -18 -5
-37 -7 -33 -3 -34 -1 -48 45 -7 26 -20 47 -27 47 -7 0 -21 -19 -32 -41 -25
-57 -39 -69 -80 -69 -38 0 -45 -14 -15 -30 26 -14 31 -13 31 6 0 8 5 12 10 9
8 -5 8 -11 1 -19 -6 -7 -9 -15 -6 -18 3 -2 -2 -28 -11 -58 -20 -69 -8 -79 43
-35 23 19 46 35 51 35 6 0 29 -16 52 -35 65 -55 72 -48 40 37 l-20 52 28 23
c15 12 30 22 35 23 4 0 7 -45 7 -99 0 -95 -1 -100 -26 -120 -33 -26 -122 -46
-168 -37 -42 8 -112 59 -142 103 -44 66 -37 168 17 244 45 63 150 94 239 69z
m2145 0 l44 0 -16 -29 c-16 -27 -16 -30 0 -45 9 -10 17 -23 17 -29 0 -7 3 -22
6 -34 6 -21 4 -22 -31 -16 l-37 6 7 -33 c7 -31 6 -32 -18 -26 -14 3 -38 1 -53
-4 -32 -13 -30 -14 -37 33 -5 30 -2 39 11 44 26 10 42 36 35 58 -5 17 -7 54
-4 79 1 4 8 5 17 2 9 -3 35 -6 59 -6z m-2068 -52 c-3 -7 -5 -2 -5 12 0 14 2
19 5 13 2 -7 2 -19 0 -25z m1001 -11 c2 -10 -3 -17 -12 -17 -18 0 -29 16 -21
31 9 14 29 6 33 -14z m552 4 c0 -5 -7 -11 -15 -15 -15 -5 -20 5 -8 17 9 10 23
9 23 -2z m236 -3 c22 2 52 -24 41 -34 -3 -3 -22 -1 -43 6 -20 7 -55 10 -80 6
-24 -3 -44 -3 -44 0 0 11 66 33 85 27 11 -4 30 -6 41 -5z m-1912 -34 c11 -29
6 -44 -14 -44 -22 0 -23 3 -14 38 7 26 19 29 28 6z m2006 -16 c0 -5 9 -7 20
-3 15 5 18 3 14 -10 -4 -9 -12 -13 -18 -10 -6 3 -19 8 -28 11 -10 4 -18 12
-18 20 0 8 6 11 15 8 8 -4 15 -10 15 -16z m-596 -4 c7 -18 0 -34 -15 -34 -5 0
-9 11 -9 25 0 28 15 34 24 9z m311 6 c4 -6 -5 -10 -19 -10 -14 0 -26 5 -26 10
0 6 9 10 19 10 11 0 23 -4 26 -10z m-1988 -22 c-3 -8 -6 -5 -6 6 -1 11 2 17 5
13 3 -3 4 -12 1 -19z m1573 15 c0 -5 -5 -15 -10 -23 -8 -12 -10 -11 -10 8 0
12 5 22 10 22 6 0 10 -3 10 -7z m164 -18 c4 -14 13 -25 22 -25 8 0 12 -5 9
-10 -4 -6 -11 -8 -16 -4 -21 13 -68 -18 -81 -52 -13 -37 -23 -43 -32 -18 -4
10 -13 13 -25 9 -16 -5 -18 -2 -13 17 5 22 29 47 44 48 4 0 5 -7 2 -15 -4 -8
-1 -15 5 -15 6 0 20 20 31 45 23 50 45 58 54 20z m492 -1 c88 -47 124 -108
124 -209 0 -54 -28 -126 -63 -163 -82 -88 -234 -90 -333 -4 -57 49 -79 152
-53 247 13 49 93 130 141 144 64 18 132 13 184 -15z m-601 -2 c0 -18 -20 -15
-23 4 -3 10 1 15 10 12 7 -3 13 -10 13 -16z m247 -28 c-4 -32 -22 -49 -22 -20
0 7 -7 19 -15 26 -19 16 -13 25 17 26 21 1 23 -2 20 -32z m-1532 8 c0 -13 -12
-22 -22 -16 -10 6 -1 24 13 24 5 0 9 -4 9 -8z m-46 -18 c10 -27 -24 -57 -57
-50 -22 5 -28 3 -24 -8 3 -8 -5 -24 -19 -37 -28 -26 -31 -12 -8 32 8 17 13 33
10 36 -3 3 -1 14 5 24 13 25 84 27 93 3z m1500 -20 c27 -10 18 -33 -19 -48
-19 -8 -35 -20 -35 -27 0 -16 31 -38 55 -39 19 0 19 0 -1 -20 -25 -25 -45 -19
-62 20 -14 30 -8 70 9 70 5 0 9 6 9 13 0 7 5 18 12 25 14 14 12 14 32 6z m-59
-14 c3 -5 1 -10 -5 -10 -6 0 -18 -17 -27 -37 -11 -26 -18 -33 -20 -21 -5 19
23 78 37 78 5 0 12 -4 15 -10z m-1421 -26 c16 -41 0 -57 -29 -28 -12 12 -13
19 -4 30 15 18 25 18 33 -2z m1325 -54 c6 0 11 -4 11 -9 0 -5 3 -16 6 -25 8
-22 -15 -21 -31 1 -12 15 -19 16 -57 6 -43 -12 -66 -5 -53 17 4 7 17 9 32 5
19 -4 29 -1 41 16 14 20 16 20 27 5 7 -9 17 -16 24 -16z m81 -41 c0 -12 -27
-11 -35 1 -11 17 5 32 21 19 8 -6 14 -15 14 -20z m-1738 -1 c-11 -11 -32 -3
-32 12 0 4 9 6 21 3 13 -4 17 -9 11 -15z m-402 -58 c0 -5 -9 -10 -20 -10 -16
0 -20 7 -20 32 l0 32 20 -22 c11 -12 20 -26 20 -32z m2171 19 c89 -30 142
-108 141 -206 0 -65 -22 -106 -80 -150 -56 -42 -119 -52 -186 -29 -140 50
-182 210 -84 321 56 63 137 88 209 64z m-226 -19 c4 -6 -5 -24 -19 -41 -23
-28 -45 -84 -46 -119 -1 -28 -17 11 -24 58 -6 43 1 68 30 96 18 18 50 21 59 6z
m-1457 -29 c79 -41 122 -113 122 -203 -1 -100 -52 -172 -149 -209 -90 -34
-175 -15 -249 54 -17 17 -32 36 -32 43 0 7 -5 14 -12 16 -7 3 -14 32 -16 74
-7 122 51 207 167 245 38 12 127 2 169 -20z m536 -15 c-3 -21 -8 -35 -11 -32
-2 2 -1 20 3 40 3 21 8 35 11 32 2 -2 1 -20 -3 -40z m-820 4 c-11 -10 -111
-16 -120 -8 -15 16 9 23 66 20 34 -2 58 -8 54 -12z m606 -35 c0 -35 -12 -43
-38 -27 -17 11 1 62 23 62 11 0 15 -10 15 -35z m-136 -30 c4 -10 20 -15 51
-15 25 0 45 -4 45 -9 0 -15 -18 -23 -25 -11 -3 5 -22 10 -41 10 -38 0 -74 15
-74 30 0 16 37 11 44 -5z m170 -102 c-10 -55 -22 -73 -48 -73 -21 0 -24 5 -22
33 1 29 -1 32 -26 29 -32 -4 -71 15 -65 31 2 7 26 12 56 13 47 1 54 -2 62 -24
8 -20 12 -23 22 -13 9 10 9 15 -3 24 -9 7 -14 24 -12 40 l3 28 20 -25 c16 -20
19 -34 13 -63z m1531 39 c-9 -9 -35 8 -35 24 0 16 2 16 20 -1 11 -10 18 -20
15 -23z m285 -30 c0 -14 -55 -30 -121 -35 -48 -3 -82 -13 -119 -33 -43 -23
-53 -26 -61 -13 -13 20 -11 35 6 49 13 10 19 10 34 -5 13 -11 27 -14 40 -10
22 7 29 31 10 37 -6 2 23 2 63 0 40 -2 84 1 98 7 31 12 50 14 50 3z m120 -31
c0 -17 -6 -31 -15 -35 -13 -4 -8 -13 20 -42 33 -33 38 -34 49 -19 18 25 81 17
81 -10 0 -15 -6 -19 -23 -17 -30 4 -51 -14 -45 -38 6 -22 3 -23 -21 -14 -9 3
-16 12 -16 20 0 8 -26 40 -59 73 -33 33 -50 56 -40 54 24 -7 49 13 49 38 0 11
5 19 10 19 6 0 10 -13 10 -29z m-2108 -15 c13 -10 15 -15 6 -24 -20 -20 -38
-13 -38 13 0 28 7 30 32 11z m2002 -41 c92 -49 126 -107 126 -218 0 -70 -23
-119 -80 -171 -46 -42 -65 -50 -133 -60 -46 -7 -48 -6 -90 37 -41 43 -109 87
-135 87 -19 0 -42 62 -42 115 0 59 41 147 84 180 81 62 188 74 270 30z m-1885
-21 c17 -4 31 -12 31 -19 0 -19 -27 -26 -34 -9 -4 10 -13 13 -26 9 -14 -5 -20
-2 -20 9 0 18 4 19 49 10z m-119 -19 c-15 -18 -4 -37 20 -33 19 3 21 -2 12
-34 -3 -13 -15 -18 -41 -18 -20 0 -46 -3 -58 -6 -17 -5 -23 -2 -23 9 0 23 40
88 50 82 5 -3 11 -1 15 5 3 5 13 10 22 10 12 0 13 -3 3 -15z m1664 -22 c-7 -2
-20 -33 -30 -68 -10 -36 -24 -65 -31 -65 -19 0 -26 -19 -13 -35 7 -8 10 -19 8
-25 -5 -16 -68 28 -78 56 -8 19 -15 24 -30 19 -11 -3 -28 -2 -37 4 -17 10 -16
10 3 11 11 0 39 14 63 31 29 22 46 28 53 21 7 -7 3 -17 -11 -31 -25 -25 -28
-46 -5 -37 9 3 20 6 25 6 5 0 9 9 9 19 0 11 5 23 10 26 6 4 8 16 4 28 -8 26
44 74 61 55 7 -7 6 -12 -1 -15z m-2225 -62 c10 -7 0 -16 -40 -34 -29 -15 -55
-25 -56 -23 -8 7 10 36 22 36 7 0 18 7 25 15 14 17 29 19 49 6z m660 -58 l54
-26 -7 -61 c-3 -33 -9 -111 -13 -173 l-6 -112 -41 -17 c-85 -34 -211 -7 -255
55 -75 107 -71 209 13 292 72 72 165 88 255 42z m-265 5 c-14 -23 -47 -42 -76
-42 -36 -1 -37 17 -1 25 15 4 39 11 53 17 33 14 32 14 24 0z m-529 -48 c-5 -8
-11 -8 -17 -2 -6 6 -7 16 -3 22 5 8 11 8 17 2 6 -6 7 -16 3 -22z m2913 3 c5
-18 -20 -16 -44 2 -18 15 -18 15 10 13 16 -2 31 -9 34 -15z m32 -55 c0 -5 -13
-8 -30 -8 -16 0 -30 -4 -30 -10 0 -5 14 -10 30 -10 29 0 30 -2 30 -44 0 -29
-5 -46 -15 -49 -17 -7 -30 9 -15 18 5 3 10 9 10 13 0 10 -51 32 -73 32 -15 0
-18 5 -13 23 3 12 6 25 6 29 0 15 100 21 100 6z m-625 -8 c3 -5 2 -10 -4 -10
-5 0 -13 5 -16 10 -3 6 -2 10 4 10 5 0 13 -4 16 -10z m-1814 -244 c21 -24 55
-51 75 -61 l37 -17 -32 -20 c-24 -16 -35 -18 -44 -9 -6 6 -19 11 -29 11 -10 0
-18 5 -18 11 0 10 -31 7 -83 -8 -17 -4 -17 -2 -7 19 7 12 21 31 31 41 25 24
24 40 -1 32 -20 -6 -20 -5 2 18 13 14 25 25 27 26 2 1 21 -19 42 -43z m-501
-44 c0 -4 -5 -13 -10 -18 -8 -8 -6 -15 5 -24 12 -10 15 -10 15 5 0 9 3 15 8
13 138 -70 142 -72 142 -82 0 -11 -111 3 -127 16 -21 17 -33 -1 -29 -42 3 -33
1 -40 -14 -40 -16 0 -18 9 -15 83 1 45 3 85 4 90 1 10 21 9 21 -1z m687 -53
c-14 -8 -22 -8 -30 0 -8 8 -3 11 19 11 25 -1 27 -2 11 -11z m1608 -12 c19 -15
13 -37 -10 -37 -16 0 -38 34 -28 44 9 9 17 8 38 -7z m-2117 -79 c-7 -13 -14
-25 -16 -28 -2 -2 -7 2 -12 10 -10 17 5 40 26 40 12 0 12 -4 2 -22z m778 3
c-8 -12 -105 -35 -113 -27 -11 11 7 20 55 27 26 3 51 7 55 8 5 0 6 -3 3 -8z
m1984 -131 c0 -38 -4 -70 -9 -70 -5 0 -11 5 -13 11 -2 6 -22 15 -43 19 -36 7
-37 8 -9 9 53 2 75 45 29 57 -31 8 -32 18 -2 32 43 21 47 16 47 -58z m-67 3
c-7 -2 -19 -2 -25 0 -7 3 -2 5 12 5 14 0 19 -2 13 -5z m-77 -72 c-3 -5 -15 -7
-26 -4 -28 7 -25 13 6 13 14 0 23 -4 20 -9z m74 5 c0 -2 -9 -6 -20 -9 -11 -3
-20 -1 -20 4 0 5 9 9 20 9 11 0 20 -2 20 -4z m53 -33 c-7 -2 -19 -2 -25 0 -7
3 -2 5 12 5 14 0 19 -2 13 -5z m-5 -30 c-16 -2 -40 -2 -55 0 -16 2 -3 4 27 4
30 0 43 -2 28 -4z m10 -35 c-3 -7 -23 -14 -46 -16 -33 -2 -42 0 -42 12 0 12
11 16 46 16 32 0 44 -4 42 -12z"/>
<g>
<path d="M1490 4023 c0 -10 61 -35 69 -28 8 9 -12 23 -41 30 -16 4 -28 3 -28
-2z"/>
</g>
<g>
<path d="M1495 3980 c-8 -13 23 -33 41 -26 8 3 13 10 10 15 -8 12 -45 21 -51
11z"/>
</g>
<g>
<path d="M1638 3953 c-16 -18 -49 -105 -43 -112 9 -8 24 12 30 39 6 28 25 43
25 20 0 -5 9 -10 20 -10 26 0 26 27 -1 35 -16 5 -18 10 -10 18 9 9 17 8 32 -1
24 -15 34 -10 26 13 -9 21 -60 19 -79 -2z"/>
</g>
<g>
<path d="M1495 3830 c-3 -5 -4 -11 -1 -11 17 -4 23 -6 46 -13 24 -8 24 -9 5
-16 -14 -6 -9 -8 17 -7 42 2 45 16 7 33 -42 20 -67 25 -74 14z"/>
</g>
<g>
<path d="M1724 3384 c-10 -24 -12 -40 -6 -46 7 -7 12 1 17 21 3 17 11 33 16
36 12 8 11 25 -2 25 -5 0 -17 -16 -25 -36z"/>
</g>
<g>
<path d="M1492 3288 c-20 -34 -40 -144 -24 -134 5 3 12 27 16 53 3 27 13 61
21 77 21 41 11 44 -13 4z"/>
</g>
<g>
<path d="M1590 3258 c0 -12 1 -19 3 -17 1 2 9 12 16 22 12 14 11 17 -3 17 -10
0 -16 -8 -16 -22z"/>
</g>
<g>
<path d="M1645 3252 c3 -40 9 -47 24 -29 9 11 7 20 -8 38 l-19 24 3 -33z"/>
</g>
<g>
<path d="M1610 3215 c7 -9 15 -13 17 -11 7 7 -7 26 -19 26 -6 0 -6 -6 2 -15z"/>
</g>
<g>
<path d="M1566 3156 c3 -9 11 -16 16 -16 13 0 5 23 -10 28 -7 2 -10 -2 -6 -12z"/>
</g>
<g>
<path d="M1610 3144 c0 -8 5 -12 10 -9 6 3 10 10 10 16 0 5 -4 9 -10 9 -5 0
-10 -7 -10 -16z"/>
</g>
<g>
<path d="M1665 3150 c3 -5 10 -10 16 -10 5 0 9 5 9 10 0 6 -7 10 -16 10 -8 0
-12 -4 -9 -10z"/>
</g>
<g>
<path d="M1314 3060 c-12 -5 -24 -12 -27 -17 -7 -12 11 -53 23 -53 7 0 8 6 1
19 -8 14 -7 22 3 30 17 14 32 -4 28 -31 -2 -11 3 -18 12 -18 17 0 20 19 10 58
-7 23 -16 26 -50 12z"/>
</g>
<g>
<path d="M940 3038 c-12 -22 -12 -22 6 -6 10 10 15 20 12 24 -4 3 -12 -5 -18
-18z"/>
</g>
<g>
<path d="M1000 3000 c0 -5 -12 -10 -26 -10 -14 0 -23 -4 -19 -10 3 -5 12 -7
20 -3 8 3 15 0 15 -6 0 -7 -7 -14 -15 -17 -8 -4 -15 -10 -15 -16 0 -5 4 -7 10
-3 12 8 50 -16 50 -32 0 -7 6 -13 14 -13 8 0 13 11 12 28 0 15 3 37 7 50 6 17
5 22 -7 22 -9 0 -16 -7 -16 -15 0 -18 -16 -20 -26 -3 -4 6 -2 14 4 16 15 5 16
22 2 22 -5 0 -10 -4 -10 -10z"/>
</g>
<g>
<path d="M1357 2940 c-14 -11 -37 -20 -51 -20 -35 0 -33 -17 3 -25 41 -9 90
20 91 53 0 17 -14 15 -43 -8z"/>
</g>
<g>
<path d="M1175 2923 c-22 -5 -45 -30 -45 -50 0 -7 10 -17 21 -24 20 -10 21 -9
16 12 -3 13 -1 29 5 36 9 11 14 10 30 -3 18 -17 18 -18 -4 -41 -12 -13 -17
-23 -11 -23 15 0 43 34 43 54 0 15 -23 48 -32 45 -2 -1 -12 -3 -23 -6z"/>
</g>
<g>
<path d="M827 2873 c-15 -15 -5 -25 20 -20 18 3 45 -4 75 -19 46 -24 48 -24
48 -4 0 12 -12 26 -30 35 -29 15 -101 21 -113 8z"/>
</g>
<g>
<path d="M1239 2827 c-11 -14 -28 -22 -53 -23 -46 -1 -54 -9 -31 -34 20 -22
61 -27 68 -7 10 24 6 -59 -8 -163 -7 -58 -21 -175 -30 -260 -8 -85 -24 -238
-35 -340 -39 -358 -51 -505 -44 -530 l6 -25 9 24 c6 14 8 30 5 36 -4 12 27
356 59 660 8 77 19 189 25 249 6 60 12 112 14 115 6 9 38 300 34 310 -2 5 -10
-1 -19 -12z"/>
</g>
<g>
<path d="M793 2823 c-25 -10 -12 -23 22 -23 24 0 35 5 35 15 0 15 -31 19 -57
8z"/>
</g>
<g>
<path d="M1501 2786 c-17 -20 -5 -52 19 -59 11 -3 20 -1 20 4 0 5 -4 9 -8 9
-4 0 -9 12 -10 27 -3 34 -6 37 -21 19z"/>
</g>
<g>
<path d="M1561 2793 c0 -5 4 -17 8 -28 5 -11 4 -25 -1 -32 -7 -9 -7 -13 0 -13
23 0 37 47 20 67 -11 14 -28 17 -27 6z"/>
</g>
<g>
<path d="M1661 2683 c0 -12 -4 -30 -7 -40 -5 -14 -4 -15 5 -7 7 6 11 24 8 40
-3 21 -4 23 -6 7z"/>
</g>
<g>
<path d="M1510 2650 c0 -5 7 -10 16 -10 8 0 12 5 9 10 -3 6 -10 10 -16 10 -5
0 -9 -4 -9 -10z"/>
</g>
<g>
<path d="M1556 2644 c-3 -9 -6 -23 -6 -32 1 -15 3 -14 15 2 17 22 20 46 6 46
-5 0 -12 -7 -15 -16z"/>
</g>
<g>
<path d="M1631 2478 c-19 -170 5 -1132 34 -1358 7 -59 54 -232 73 -269 9 -19
22 -33 27 -32 6 2 9 6 8 10 -33 99 -45 139 -61 201 -22 82 -39 280 -24 280 13
0 29 -21 35 -45 3 -13 5 -9 6 13 0 17 -3 32 -9 32 -5 0 -10 12 -10 26 0 23 3
26 25 21 25 -4 25 -4 9 14 -21 24 -33 24 -50 2 -7 -10 -14 -16 -17 -13 -8 8
-26 329 -32 550 -3 113 -8 239 -11 280 -3 41 -1 146 6 234 6 87 9 160 7 162
-2 2 -9 -47 -16 -108z"/>
</g>
<g>
<path d="M1306 2547 c-17 -13 -18 -16 -3 -48 18 -37 30 -119 18 -119 -4 0 -12
5 -19 12 -9 9 -12 8 -12 -6 0 -10 9 -20 20 -23 20 -5 21 -12 20 -207 -1 -110
0 -221 1 -246 2 -25 6 63 9 195 3 153 9 239 15 237 6 -2 13 7 16 20 4 16 0 28
-15 40 -17 15 -18 20 -7 27 7 5 10 14 6 20 -4 7 -1 18 5 26 10 12 9 15 -3 15
-8 0 -20 7 -27 16 -11 12 -11 18 2 30 13 13 18 12 41 -6 29 -23 33 -20 17 11
-12 22 -57 26 -84 6z"/>
</g>
<g>
<path d="M1495 2167 c-11 -44 -3 -62 31 -65 44 -4 61 19 39 52 -10 14 -21 26
-25 26 -5 0 -15 3 -24 6 -10 4 -17 -2 -21 -19z m56 -34 c6 -16 5 -23 -4 -23
-22 0 -51 26 -43 39 12 18 38 9 47 -16z"/>
</g>
<g>
<path d="M1218 2083 c-26 -7 -24 -59 2 -66 11 -3 23 -1 26 4 3 5 0 9 -5 9 -13
0 -15 37 -2 44 4 3 16 -1 27 -8 16 -12 17 -16 4 -31 -13 -15 -12 -17 5 -14 24
5 33 48 13 60 -14 9 -41 10 -70 2z"/>
</g>
<g>
<path d="M1537 2020 c-3 -13 -11 -18 -20 -14 -24 9 -28 -12 -7 -31 17 -15 21
-15 40 -2 12 8 29 25 37 37 14 20 14 21 -3 19 -11 -2 -24 0 -30 4 -7 4 -14 -1
-17 -13z"/>
</g>
<g>
<path d="M1295 1951 c-3 -6 -11 -9 -16 -6 -5 4 -9 -1 -9 -9 0 -20 -14 -20 -34
-1 -18 19 -26 19 -26 1 0 -8 10 -18 22 -22 12 -3 30 -16 41 -28 l19 -21 -5 22
c-3 12 2 31 10 43 8 12 13 24 10 26 -3 3 -8 0 -12 -5z"/>
</g>
<g>
<path d="M1342 1780 c0 -30 4 -86 8 -125 l7 -70 0 100 c1 55 -3 111 -7 125 -6
19 -8 11 -8 -30z"/>
</g>
<g>
<path d="M1468 1773 c25 -18 29 -48 7 -57 -18 -6 -20 -37 -3 -54 8 -8 8 -15
-2 -27 -10 -12 -10 -15 4 -15 9 0 19 -7 22 -15 4 -8 10 -15 15 -15 16 0 9 34
-11 60 -24 30 -25 44 -5 60 24 20 19 67 -7 74 -37 10 -44 6 -20 -11z"/>
</g>
<g>
<path d="M1422 1753 c-7 -12 -7 -25 -1 -34 5 -7 9 -9 9 -4 0 6 5 3 10 -5 7
-11 8 -5 4 20 -9 44 -10 46 -22 23z"/>
</g>
<g>
<path d="M1180 1590 l-25 -19 21 -28 c22 -29 54 -43 54 -24 0 6 -6 11 -13 11
-7 0 -18 9 -25 21 -11 18 -11 24 4 40 22 24 16 24 -16 -1z"/>
</g>
<g>
<path d="M1355 1530 c2 -30 7 -125 10 -210 3 -86 12 -180 20 -210 8 -30 15
-68 15 -85 0 -16 7 -43 15 -59 8 -15 15 -34 15 -42 0 -7 9 -18 20 -24 14 -7
20 -7 20 0 0 5 -4 10 -8 10 -32 0 -82 266 -89 480 -3 91 -9 172 -14 180 -5 9
-7 -7 -4 -40z"/>
</g>
<g>
<path d="M1145 1427 c0 -59 19 -63 23 -4 2 33 -1 47 -10 47 -9 0 -13 -14 -13
-43z"/>
</g>
<g>
<path d="M1195 1450 c-3 -5 -1 -10 4 -10 6 0 11 5 11 10 0 6 -2 10 -4 10 -3 0
-8 -4 -11 -10z"/>
</g>
<g>
<path d="M1500 1402 c-18 -14 -22 -25 -16 -45 3 -15 11 -27 17 -27 6 0 17 -7
26 -15 13 -14 17 -13 34 9 26 33 24 40 -7 20 -22 -15 -27 -15 -35 -3 -11 18
-11 46 0 53 5 4 22 1 37 -4 28 -11 28 -11 9 9 -22 26 -36 26 -65 3z"/>
</g>
<g>
<path d="M1750 1315 c0 -8 4 -15 9 -15 5 0 11 -21 14 -47 7 -77 45 -303 62
-366 8 -32 15 -60 15 -62 0 -3 6 -5 14 -5 20 0 71 -81 86 -137 17 -63 21 -67
95 -103 53 -26 66 -37 79 -71 9 -21 16 -46 16 -53 0 -18 65 -83 102 -102 53
-28 51 -9 -3 31 -43 32 -61 54 -88 112 -33 69 -38 74 -100 105 -61 31 -67 37
-82 82 -19 56 -40 95 -79 146 -29 37 -29 40 -55 165 -9 44 -25 116 -35 161
-11 44 -17 96 -14 115 4 27 1 37 -15 47 -18 10 -21 10 -21 -3z"/>
</g>
<g>
<path d="M1573 1271 c-18 -9 -31 -22 -28 -28 2 -7 -2 -13 -9 -13 -8 0 -16 10
-20 22 -4 18 -8 20 -17 11 -17 -17 7 -45 35 -41 12 1 26 -1 33 -5 7 -5 21 1
35 15 14 14 17 23 10 26 -7 2 -12 8 -12 13 0 6 5 7 10 4 6 -3 10 -1 10 4 0 14
-7 12 -47 -8z"/>
</g>
<g>
<path d="M1416 1235 c-10 -26 -7 -75 4 -75 6 0 10 12 10 28 1 27 1 27 18 -8
10 -19 25 -61 35 -92 10 -32 22 -60 27 -63 16 -10 12 13 -15 78 -13 34 -28 80
-33 102 -8 42 -35 59 -46 30z"/>
</g>
<g>
<path d="M1717 1220 c-4 -15 0 -20 14 -20 21 0 22 1 13 24 -8 22 -21 20 -27
-4z"/>
</g>
<g>
<path d="M1426 1124 c-7 -23 30 -114 47 -114 5 0 7 3 5 8 -17 34 -28 62 -35
92 -8 31 -10 33 -17 14z"/>
</g>
<g>
<path d="M1162 1099 c-7 -11 -11 -24 -8 -27 10 -9 28 15 24 32 -2 14 -5 13
-16 -5z"/>
</g>
<g>
<path d="M1242 1085 c3 -45 -2 -57 -19 -50 -35 14 -53 17 -53 9 0 -14 48 -33
69 -27 24 6 33 47 15 70 -13 17 -14 17 -12 -2z"/>
</g>
<g>
<path d="M1956 992 c-3 -5 6 -15 19 -22 31 -17 31 -24 2 -47 -21 -16 -22 -19
-8 -35 18 -21 35 -24 28 -5 -2 6 0 27 5 45 8 27 6 38 -8 53 -19 21 -30 24 -38
11z"/>
</g>
<g>
<path d="M1920 958 c-12 -22 -12 -22 6 -6 10 10 15 20 12 24 -4 3 -12 -5 -18
-18z"/>
</g>
<g>
<path d="M1180 940 c0 -9 71 -33 78 -25 3 2 2 11 -1 20 -7 17 -77 22 -77 5z"/>
</g>
<g>
<path d="M1501 922 c-1 -34 45 -116 127 -225 81 -108 119 -133 217 -144 28 -3
58 -10 68 -15 29 -15 20 9 -13 32 -17 12 -63 27 -107 34 -74 13 -80 16 -120
62 -24 27 -43 54 -43 61 0 7 -4 13 -10 13 -5 0 -21 21 -36 48 -15 26 -33 54
-41 63 -7 8 -19 33 -27 55 -11 29 -15 33 -15 16z"/>
</g>
<g>
<path d="M1600 901 c-14 -28 -12 -51 5 -51 11 0 13 8 9 30 -5 25 -3 30 12 30
23 0 46 -33 38 -55 -3 -8 -1 -15 4 -15 17 0 24 37 12 60 -14 27 -65 27 -80 1z"/>
</g>
<g>
<path d="M950 891 c0 -11 5 -23 10 -26 6 -4 10 5 10 19 0 14 -4 26 -10 26 -5
0 -10 -9 -10 -19z"/>
</g>
<g>
<path d="M1935 840 c-3 -5 -2 -10 4 -10 5 0 13 5 16 10 3 6 2 10 -4 10 -5 0
-13 -4 -16 -10z"/>
</g>
<g>
<path d="M1987 843 c-13 -12 -7 -25 7 -20 10 4 13 1 9 -9 -8 -22 5 -16 18 9 6
12 8 19 4 15 -5 -4 -13 -3 -20 2 -7 5 -15 7 -18 3z"/>
</g>
<g>
<path d="M1711 794 c0 -11 3 -14 6 -6 3 7 2 16 -1 19 -3 4 -6 -2 -5 -13z"/>
</g>
<g>
<path d="M2022 770 c0 -14 2 -19 5 -12 2 6 2 18 0 25 -3 6 -5 1 -5 -13z"/>
</g>
<g>
<path d="M2201 776 c12 -10 59 -15 59 -6 0 5 -14 10 -32 10 -17 0 -29 -2 -27
-4z"/>
</g>
<g>
<path d="M1686 760 c-15 -5 -16 -9 -7 -14 7 -5 18 -3 24 3 14 14 6 20 -17 11z"/>
</g>
<g>
<path d="M1836 741 c-10 -11 -14 -21 -9 -23 11 -6 44 30 34 36 -5 3 -16 -3
-25 -13z"/>
</g>
<g>
<path d="M2030 722 c0 -18 82 -83 135 -108 28 -12 86 -33 130 -46 81 -23 167
-74 179 -103 3 -9 6 -26 6 -37 0 -12 3 -19 6 -15 3 3 3 23 -1 44 -5 34 -14 43
-64 75 -32 20 -89 44 -127 54 -99 24 -166 56 -218 104 -25 24 -46 38 -46 32z"/>
</g>
<g>
<path d="M1900 705 c0 -24 -33 -36 -52 -18 -16 14 -18 14 -18 1 0 -30 55 -38
76 -10 16 20 18 42 4 42 -5 0 -10 -7 -10 -15z"/>
</g>
<g>
<path d="M1397 703 c-4 -3 -6 -20 -6 -37 1 -26 3 -27 6 -7 3 13 14 26 25 29
15 4 17 7 6 13 -16 11 -23 11 -31 2z"/>
</g>
<g>
<path d="M1133 663 c-7 -18 14 -61 38 -76 9 -6 24 -7 35 -2 16 7 15 9 -11 14
-36 7 -47 47 -19 68 16 12 15 13 -9 13 -17 0 -30 -7 -34 -17z"/>
</g>
<g>
<path d="M2345 670 c-3 -5 1 -10 9 -10 9 0 16 5 16 10 0 6 -4 10 -9 10 -6 0
-13 -4 -16 -10z"/>
</g>
<g>
<path d="M947 600 c6 -22 23 -38 23 -21 0 17 -12 41 -20 41 -5 0 -6 -9 -3 -20z"/>
</g>
<g>
<path d="M2567 576 c-14 -11 -16 -19 -7 -40 5 -14 15 -26 21 -26 6 0 8 7 5 15
-3 8 -9 22 -12 30 -9 22 29 19 50 -4 19 -21 14 -41 -10 -41 -9 0 -12 -5 -8
-11 4 -7 16 -2 32 15 l26 25 -24 26 c-26 28 -46 31 -73 11z"/>
</g>
<g>
<path d="M1495 559 c-12 -19 5 -23 22 -6 16 16 16 17 1 17 -9 0 -20 -5 -23
-11z"/>
</g>
<g>
<path d="M1137 534 c-8 -8 1 -24 12 -24 4 0 8 7 8 15 0 16 -9 20 -20 9z"/>
</g>
<g>
<path d="M1222 523 c-10 -4 -10 -8 -1 -19 16 -20 29 -17 29 6 0 20 -5 23 -28
13z"/>
</g>
<g>
<path d="M1947 513 c-25 -24 11 -76 59 -86 27 -5 29 -4 29 27 0 18 -6 41 -14
50 -13 16 -62 22 -74 9z m60 -28 c5 -16 -14 -38 -26 -31 -18 12 -13 48 6 44 9
-2 18 -7 20 -13z"/>
</g>
<g>
<path d="M2695 485 c-16 -13 -36 -24 -42 -25 -21 0 -14 -20 7 -20 11 0 27 -11
36 -25 21 -32 32 -24 14 10 -12 22 -11 27 4 44 28 31 14 43 -19 16z"/>
</g>
<g>
<path d="M2076 458 c-9 -12 -16 -28 -16 -35 0 -7 -5 -13 -11 -13 -5 0 -7 -4
-4 -10 10 -17 35 -11 35 8 0 10 7 27 15 38 8 10 15 22 15 27 0 15 -19 6 -34
-15z"/>
</g>
<g>
<path d="M2800 380 c0 -15 27 -23 48 -15 16 7 15 8 -3 15 -28 12 -45 12 -45 0z"/>
</g>
<g>
<path d="M2662 3229 c2 -6 8 -10 13 -10 5 0 11 4 13 10 2 6 -4 11 -13 11 -9 0
-15 -5 -13 -11z"/>
</g>
<g>
<path d="M1985 3320 c-3 -5 -1 -10 4 -10 6 0 11 5 11 10 0 6 -2 10 -4 10 -3 0
-8 -4 -11 -10z"/>
</g>
<g>
<path d="M2812 3209 c2 -7 10 -15 17 -17 8 -3 12 1 9 9 -2 7 -10 15 -17 17 -8
3 -12 -1 -9 -9z"/>
</g>
<g>
<path d="M2865 3090 c-4 -6 -3 -16 3 -22 6 -6 12 -6 17 2 4 6 3 16 -3 22 -6 6
-12 6 -17 -2z"/>
</g>
<g>
<path d="M2067 3253 c-16 -27 -17 -74 -2 -100 l16 -28 -6 38 c-4 22 -2 37 2
34 5 -3 7 10 5 29 -4 35 -7 40 -15 27z"/>
</g>
<g>
<path d="M2090 3086 c0 -8 7 -17 16 -20 30 -11 37 -6 19 14 -21 23 -35 26 -35
6z"/>
</g>
<g>
<path d="M346 2893 c-11 -11 -6 -23 9 -23 8 0 15 4 15 9 0 13 -16 22 -24 14z"/>
</g>
<g>
<path d="M2520 3050 c0 -5 9 -10 20 -10 11 0 20 5 20 10 0 6 -9 10 -20 10 -11
0 -20 -4 -20 -10z"/>
</g>
<g>
<path d="M2554 2925 c-3 -19 -3 -43 1 -52 7 -15 9 -13 15 12 11 45 11 75 0 75
-5 0 -12 -16 -16 -35z"/>
</g>
<g>
<path d="M120 2496 c0 -7 7 -19 15 -26 16 -13 20 -3 9 24 -8 20 -24 21 -24 2z"/>
</g>
<g>
<path d="M980 2120 c0 -5 5 -10 10 -10 6 0 10 5 10 10 0 6 -4 10 -10 10 -5 0
-10 -4 -10 -10z"/>
</g>
<g>
<path d="M2816 2609 c-15 -12 -25 -23 -23 -26 8 -8 57 20 57 34 0 17 -3 17
-34 -8z"/>
</g>
<g>
<path d="M2650 2595 c0 -3 12 -17 28 -30 27 -24 72 -34 72 -15 0 6 -6 10 -13
10 -8 0 -22 9 -32 20 -16 18 -55 28 -55 15z"/>
</g>
<g>
<path d="M170 2291 c0 -12 48 -27 57 -17 9 8 2 13 -30 21 -17 5 -27 3 -27 -4z"/>
</g>
<g>
<path d="M170 2260 c0 -5 5 -10 11 -10 5 0 7 5 4 10 -3 6 -8 10 -11 10 -2 0
-4 -4 -4 -10z"/>
</g>
<g>
<path d="M2615 2260 c4 -6 11 -8 16 -5 14 9 11 15 -7 15 -8 0 -12 -5 -9 -10z"/>
</g>
<g>
<path d="M1760 2147 c0 -31 67 -134 111 -171 l34 -29 -32 6 c-18 4 -33 3 -33
-1 0 -8 85 -82 94 -82 3 0 6 13 6 30 0 22 7 33 29 44 26 14 47 53 35 65 -2 2
-20 -3 -40 -12 -40 -20 -66 -12 -35 10 26 18 27 45 3 66 -28 25 -65 21 -83 -9
l-16 -26 -32 50 c-19 29 -29 56 -25 66 3 9 1 16 -5 16 -6 0 -11 -11 -11 -23z
m148 -99 c-6 -18 -28 -21 -28 -4 0 9 7 16 16 16 9 0 14 -5 12 -12z"/>
</g>
<g>
<path d="M492 2160 c-16 -38 -19 -40 -63 -40 -61 0 -71 -21 -23 -51 37 -23 37
-26 8 -96 -12 -30 -11 -33 5 -33 9 0 35 13 57 30 21 16 45 30 53 30 7 0 36
-16 63 -36 27 -20 51 -34 54 -31 3 3 -6 30 -21 61 -14 31 -24 60 -21 65 3 5
21 16 41 25 47 23 44 36 -9 36 -61 0 -73 7 -86 46 -15 45 -38 43 -58 -6z m42
-6 c10 -25 7 -34 -9 -34 -9 0 -15 9 -15 25 0 28 15 34 24 9z m-81 -65 c-8 -8
-16 -8 -30 0 -16 9 -14 10 12 11 21 0 26 -3 18 -11z m114 -8 c10 -16 8 -22 -8
-37 -18 -16 -21 -16 -53 1 -24 13 -32 23 -28 37 6 26 73 25 89 -1z m48 9 c-3
-5 -10 -10 -16 -10 -5 0 -9 5 -9 10 0 6 7 10 16 10 8 0 12 -4 9 -10z m-123
-61 c19 -10 19 -11 1 -28 -22 -21 -53 -33 -53 -21 0 15 19 60 25 60 4 0 15 -5
27 -11z m102 -15 c4 -9 4 -19 1 -22 -6 -6 -35 18 -35 29 0 16 28 10 34 -7z"/>
</g>
<g>
<path d="M2373 2193 c-23 -16 -30 -33 -14 -33 5 0 19 8 32 18 28 23 12 35 -18
15z"/>
</g>
<g>
<path d="M2275 2150 c-3 -6 1 -13 9 -16 21 -8 49 3 41 16 -8 13 -42 13 -50 0z"/>
</g>
<g>
<path d="M2346 2123 c-11 -11 -6 -23 9 -23 8 0 15 4 15 9 0 13 -16 22 -24 14z"/>
</g>
<g>
<path d="M2680 2165 c-15 -18 -51 -20 -68 -3 -6 6 -15 8 -19 4 -4 -4 3 -15 15
-25 24 -18 22 -51 -4 -51 -8 0 -14 -4 -14 -10 0 -5 11 -10 24 -10 18 0 25 7
29 28 3 16 18 34 36 45 17 10 31 22 31 28 0 14 -16 11 -30 -6z"/>
</g>
<g>
<path d="M2625 2047 c-4 -10 -5 -21 -1 -24 10 -10 18 4 13 24 -4 17 -4 17 -12
0z"/>
</g>
<g>
<path d="M2885 1760 c-3 -5 1 -13 10 -16 22 -9 29 1 11 15 -10 8 -16 9 -21 1z"/>
</g>
<g>
<path d="M2884 1694 c4 -11 -1 -22 -14 -31 -11 -8 -20 -22 -20 -31 1 -13 6
-10 23 11 18 21 26 24 35 15 18 -18 23 -5 9 25 -13 29 -44 39 -33 11z"/>
</g>
<g>
<path d="M2581 1609 c-5 -15 -13 -43 -16 -63 -4 -20 -8 -36 -9 -37 0 0 -30 -3
-66 -5 -35 -3 -66 -7 -69 -10 -7 -7 11 -21 37 -29 16 -5 22 -2 22 9 0 11 9 16
30 16 32 0 38 -10 18 -32 -7 -7 -14 -31 -15 -53 -2 -37 -2 -38 9 -15 7 14 13
27 14 29 2 1 12 -4 24 -12 22 -15 22 -16 -20 -43 -23 -16 -38 -30 -32 -32 6
-2 33 12 61 32 l51 34 -37 19 c-20 10 -38 23 -40 28 -5 20 23 42 59 48 34 5
39 3 44 -19 4 -14 1 -31 -7 -41 -12 -14 -11 -15 7 -9 18 5 24 1 32 -23 13 -36
5 -46 -20 -24 -10 9 -21 14 -24 10 -3 -3 16 -19 42 -36 27 -16 50 -29 51 -27
2 2 -8 28 -22 60 -14 31 -25 60 -25 64 0 4 19 23 43 41 l42 33 -55 -6 c-49 -5
-57 -3 -72 17 l-17 22 6 -22 c5 -20 2 -23 -26 -23 -37 0 -37 0 -11 52 13 28
17 46 10 57 -7 14 -10 12 -19 -10z m117 -125 c-9 -9 -21 -13 -27 -10 -20 13
-11 26 16 26 25 0 26 -1 11 -16z"/>
</g>
<g>
<path d="M2157 1393 c-2 -5 -10 -29 -17 -55 -11 -44 -15 -48 -44 -49 -109 -5
-112 -8 -46 -48 41 -26 49 -34 41 -48 -22 -40 -31 -87 -21 -97 8 -8 14 -6 20
5 5 9 24 28 43 42 l33 25 55 -34 c30 -18 57 -34 62 -34 13 0 7 27 -18 74 -14
26 -25 50 -25 55 0 4 18 17 40 30 22 12 40 26 40 32 0 5 -26 9 -58 9 -53 0
-60 2 -70 25 -7 14 -12 34 -12 45 0 20 -16 36 -23 23z m13 -78 c0 -8 -4 -15
-10 -15 -5 0 -7 7 -4 15 4 8 8 15 10 15 2 0 4 -7 4 -15z m32 -61 c11 -23 10
-29 -11 -45 -28 -22 -32 -23 -55 -6 -14 10 -15 18 -7 39 9 23 22 32 54 37 4 0
13 -11 19 -25z m58 16 c0 -5 -9 -10 -21 -10 -11 0 -17 5 -14 10 3 6 13 10 21
10 8 0 14 -4 14 -10z m-150 -14 c0 -7 -3 -16 -6 -19 -9 -8 -46 12 -40 21 8 13
46 11 46 -2z m133 -81 c19 -40 17 -41 -23 -20 -33 17 -36 25 -18 43 18 18 23
15 41 -23z m-103 2 c0 -13 -39 -41 -47 -34 -2 3 0 15 7 26 12 23 40 29 40 8z"/>
</g>
<g>
<path d="M415 1285 l-26 -55 -49 0 c-43 0 -50 -3 -50 -20 0 -12 13 -25 35 -36
38 -18 39 -27 9 -86 -9 -16 -10 -29 -4 -33 11 -7 61 18 79 39 18 22 28 20 106
-15 37 -16 69 -28 71 -26 3 2 -8 33 -23 67 -26 62 -27 63 -8 76 63 42 64 44 8
42 -29 -1 -54 0 -56 3 -2 2 -13 25 -25 52 -12 26 -26 47 -31 47 -5 0 -21 -25
-36 -55z m54 -7 c9 -24 8 -34 -1 -40 -35 -22 -52 -3 -37 41 14 39 24 39 38 -1z
m31 -73 c14 -17 2 -38 -33 -56 -23 -13 -77 6 -77 26 0 40 83 62 110 30z m50 5
c0 -5 -4 -10 -10 -10 -5 0 -10 5 -10 10 0 6 5 10 10 10 6 0 10 -4 10 -10z
m-175 -10 c-3 -5 -10 -10 -16 -10 -5 0 -9 5 -9 10 0 6 7 10 16 10 8 0 12 -4 9
-10z m163 -73 c17 -48 16 -49 -28 -27 -44 22 -49 34 -22 49 28 17 37 13 50
-22z m-128 3 c8 -5 12 -11 10 -13 -17 -14 -56 -37 -61 -37 -4 0 -2 14 4 30 12
31 22 36 47 20z"/>
</g>
<g>
<path d="M2579 1038 l-16 -53 -62 1 c-60 1 -61 1 -45 -18 12 -12 21 -15 28 -8
15 15 56 12 62 -5 10 -25 -6 -38 -26 -20 -11 10 -20 12 -24 6 -4 -5 3 -16 15
-25 23 -16 23 -33 -2 -93 -7 -18 -11 -35 -7 -38 7 -7 58 15 58 25 0 4 11 12
24 18 20 9 29 8 48 -7 13 -9 41 -31 62 -47 l39 -29 -6 48 c-4 26 -14 58 -23
72 -19 29 -12 42 42 76 19 11 34 25 34 30 0 5 -29 9 -64 9 l-64 0 -21 40 c-12
22 -21 47 -21 55 0 32 -16 12 -31 -37z m37 -44 c-3 -8 -10 -14 -16 -14 -11 0
-14 43 -3 54 10 10 26 -23 19 -40z m29 -56 c12 -30 12 -35 -8 -55 -25 -27 -26
-27 -55 -5 -20 16 -23 24 -17 55 6 33 11 37 37 37 23 0 32 -6 43 -32z m68 1
c-22 -22 -43 -19 -43 7 0 9 11 14 32 14 l32 0 -21 -21z m-143 -103 c-11 -15
-40 -22 -40 -11 0 2 5 16 12 30 10 23 13 24 26 11 13 -12 13 -18 2 -30z m120
2 c11 -23 18 -43 16 -46 -6 -6 -76 48 -76 59 0 6 27 27 37 29 2 0 12 -19 23
-42z"/>
</g>
<g>
<path d="M677 1023 c-12 -11 -8 -23 8 -23 8 0 15 7 15 15 0 16 -12 20 -23 8z"/>
</g>
<g>
<path d="M711 856 l-20 -46 -55 0 c-66 0 -72 -14 -21 -48 19 -12 35 -27 35
-32 0 -5 -9 -33 -20 -62 -11 -29 -20 -54 -20 -55 0 -10 29 2 74 31 l53 34 43
-29 c42 -28 60 -35 60 -23 0 3 -7 28 -16 55 l-17 50 27 28 c14 15 26 30 26 34
0 4 -18 7 -39 7 -39 0 -40 1 -53 47 -7 25 -18 48 -25 50 -6 2 -21 -16 -32 -41z
m39 -32 c0 -8 -7 -14 -15 -14 -15 0 -21 21 -9 33 10 9 24 -2 24 -19z m-80 -54
c0 -5 -6 -10 -14 -10 -8 0 -18 5 -21 10 -3 6 3 10 14 10 12 0 21 -4 21 -10z
m103 -9 c3 -12 -4 -28 -18 -41 -22 -21 -24 -21 -50 -4 -15 10 -24 23 -21 31 4
8 6 19 6 24 0 5 17 9 39 9 30 0 40 -4 44 -19z m47 15 c0 -3 -4 -8 -10 -11 -5
-3 -10 -1 -10 4 0 6 5 11 10 11 6 0 10 -2 10 -4z m-119 -72 c11 -14 9 -19 -11
-35 -37 -28 -52 -25 -39 7 18 50 27 55 50 28z m104 -32 c7 -23 7 -23 -25 -7
-31 16 -31 17 -14 36 19 21 25 17 39 -29z"/>
</g>
<g>
<path d="M490 545 c-7 -9 -11 -18 -8 -20 6 -7 68 18 68 27 0 14 -47 8 -60 -7z"/>
</g>
</g>
<g>
<path d="M2988 5200 c2 -16 6 -30 8 -30 2 0 4 14 4 30 0 17 -4 30 -8 30 -5 0
-7 -13 -4 -30z"/>
</g>
<g>
<path d="M1468 5133 c-81 -2 -138 -8 -138 -13 0 -6 11 -10 24 -10 21 0 26 -6
31 -43 10 -65 4 -90 -25 -99 -14 -4 45 -4 130 -1 85 3 164 9 175 14 15 6 10 8
-21 8 -45 1 -74 24 -74 58 0 28 37 73 61 73 11 0 17 5 14 10 -3 6 -14 9 -23 8
-9 -1 -79 -4 -154 -5z m20 -53 c27 -36 27 -38 -4 -73 -37 -43 -54 -30 -54 43
0 51 3 60 18 60 10 0 28 -13 40 -30z m72 21 c0 -17 -34 -22 -49 -6 -14 13 -12
15 17 15 18 0 32 -4 32 -9z m-12 -103 c-2 -6 -10 -14 -16 -16 -7 -2 -10 2 -6
12 7 18 28 22 22 4z"/>
</g>
<g>
<path d="M2170 3970 c0 -5 5 -10 10 -10 6 0 10 5 10 10 0 6 -4 10 -10 10 -5 0
-10 -4 -10 -10z"/>
</g>
<g>
<path d="M2190 3930 c0 -5 5 -10 10 -10 6 0 10 5 10 10 0 6 -4 10 -10 10 -5 0
-10 -4 -10 -10z"/>
</g>
<g>
<path d="M2235 3920 c-3 -6 1 -13 10 -16 19 -8 30 0 20 15 -8 14 -22 14 -30 1z"/>
</g>
<g>
<path d="M2880 3600 c0 -5 5 -10 10 -10 6 0 10 5 10 10 0 6 -4 10 -10 10 -5 0
-10 -4 -10 -10z"/>
</g>
<g>
<path d="M2865 3450 c-3 -5 -4 -14 -1 -19 7 -10 46 -9 46 2 0 4 0 12 0 17 0 6
-9 10 -19 10 -11 0 -23 -4 -26 -10z"/>
</g>
<g>
<path d="M2960 3441 c0 -30 11 -51 26 -51 17 0 18 8 2 43 -15 31 -28 35 -28 8z"/>
</g>
<g>
<path d="M184 1736 l-18 -56 -53 0 c-65 0 -69 -15 -13 -50 45 -28 45 -29 25
-85 -8 -22 -15 -43 -15 -48 0 -14 52 5 77 29 34 31 45 30 86 -6 32 -27 57 -38
57 -24 0 3 -10 26 -21 52 l-22 47 48 41 c54 48 49 57 -28 52 l-52 -3 -10 50
c-16 72 -39 72 -61 1z m46 -32 c0 -15 -6 -24 -15 -24 -16 0 -19 17 -9 44 9 22
24 10 24 -20z m90 -48 c0 -18 -30 -30 -43 -17 -5 5 -6 14 -3 20 10 16 46 13
46 -3z m-170 -12 c0 -10 -7 -14 -22 -12 -32 5 -35 28 -4 28 17 0 26 -5 26 -16z
m106 -9 c12 -46 -31 -71 -71 -41 -17 12 -18 18 -7 40 16 37 69 37 78 1z m-81
-91 c-18 -13 -20 -13 -23 1 -2 9 -1 23 3 32 5 15 7 15 23 -1 16 -16 16 -18 -3
-32z m108 17 c3 -11 3 -22 0 -25 -9 -8 -35 23 -28 34 10 16 22 12 28 -9z"/>
</g>
<g>
<path d="M205 840 l-17 -50 -54 0 c-41 0 -54 -4 -54 -15 0 -8 8 -15 18 -15 10
0 28 -9 40 -20 l21 -20 -25 -56 c-14 -31 -23 -58 -21 -61 7 -6 67 20 116 51
42 27 61 27 61 0 0 -17 -12 -18 -28 -2 -7 7 -12 8 -12 2 0 -12 59 -58 66 -51
3 2 0 26 -7 51 -11 44 -10 49 11 71 13 14 31 27 42 31 20 6 25 33 6 36 -7 0
-33 1 -58 2 -44 1 -44 1 -58 49 -7 26 -17 47 -22 47 -5 0 -16 -22 -25 -50z
m35 -30 c0 -11 -4 -20 -9 -20 -14 0 -23 18 -16 30 10 17 25 11 25 -10z m23
-63 c16 -51 -32 -77 -68 -37 -17 18 -17 21 -1 45 22 34 56 30 69 -8z m77 27
c0 -10 -45 -42 -52 -37 -5 2 -8 13 -8 24 0 14 7 19 30 19 17 0 30 -3 30 -6z
m-170 -20 c0 -9 -5 -14 -12 -12 -18 6 -21 28 -4 28 9 0 16 -7 16 -16z m29 -68
c9 -11 6 -18 -19 -36 -38 -27 -46 -21 -25 19 17 34 27 38 44 17z"/>
</g>
<g>
<path d="M770 430 c0 -5 16 -10 35 -10 19 0 35 5 35 10 0 6 -16 10 -35 10 -19
0 -35 -4 -35 -10z"/>
</g>
<g>
<path d="M670 370 c-30 -6 -26 -8 28 -9 40 -1 61 3 57 9 -7 11 -32 11 -85 0z"/>
</g>
<g>
<path d="M483 353 c9 -2 23 -2 30 0 6 3 -1 5 -18 5 -16 0 -22 -2 -12 -5z"/>
</g>
<g>
<path d="M370 290 l-55 -7 60 -1 c33 0 78 3 100 7 l40 9 -45 -1 c-25 0 -70 -3
-100 -7z"/>
</g>
<g>
<path d="M984 289 c-16 -4 45 -7 135 -8 90 0 162 1 159 4 -8 8 -260 11 -294 4z"/>
</g>
<g>
<path d="M1403 293 c9 -2 23 -2 30 0 6 3 -1 5 -18 5 -16 0 -22 -2 -12 -5z"/>
</g>
<g>
<path d="M1593 293 c9 -2 25 -2 35 0 9 3 1 5 -18 5 -19 0 -27 -2 -17 -5z"/>
</g>
<g>
<path d="M111 286 c7 -7 149 -10 156 -3 3 4 -31 7 -77 7 -46 0 -81 -2 -79 -4z"/>
</g>
<g>
<path d="M778 283 c7 -3 16 -2 19 1 4 3 -2 6 -13 5 -11 0 -14 -3 -6 -6z"/>
</g>
<g>
<path d="M893 283 c9 -2 25 -2 35 0 9 3 1 5 -18 5 -19 0 -27 -2 -17 -5z"/>
</g>
<g>
<path d="M80 220 c0 -5 7 -10 16 -10 8 0 12 5 9 10 -3 6 -10 10 -16 10 -5 0
-9 -4 -9 -10z"/>
</g>
<g>
<path d="M200 210 c0 -5 9 -10 20 -10 11 0 20 5 20 10 0 6 -9 10 -20 10 -11 0
-20 -4 -20 -10z"/>
</g>
<g>
<path d="M544 192 c-12 -9 -20 -25 -19 -34 2 -12 -8 -21 -31 -28 -19 -6 -34
-16 -34 -22 0 -8 35 -9 112 -4 62 4 113 8 114 9 1 1 4 11 6 22 2 15 -3 21 -21
23 -13 2 -28 -2 -32 -10 -7 -10 -9 -9 -9 4 0 15 -44 58 -59 58 -3 0 -16 -8
-27 -18z m46 -43 c0 -5 -4 -9 -10 -9 -5 0 -10 7 -10 16 0 8 5 12 10 9 6 -3 10
-10 10 -16z"/>
</g>
<g>
<path d="M145 120 c-4 -6 5 -10 20 -10 15 0 24 4 20 10 -3 6 -12 10 -20 10 -8
0 -17 -4 -20 -10z"/>
</g>
<g>
<path d="M1175 100 c3 -5 8 -10 11 -10 2 0 4 5 4 10 0 6 -5 10 -11 10 -5 0 -7
-4 -4 -10z"/>
</g>
<g>
<path d="M1623 68 c-2 -5 58 -8 133 -8 76 0 134 3 131 7 -10 9 -258 10 -264 1z"/>
</g>
<g>
<path d="M98 3 c17 -2 47 -2 65 0 17 2 3 4 -33 4 -36 0 -50 -2 -32 -4z"/>
</g>
<g>
<path d="M288 3 c7 -3 16 -2 19 1 4 3 -2 6 -13 5 -11 0 -14 -3 -6 -6z"/>
</g>
</g>
</svg>
