<?xml version="1.0" standalone="no"?>
<!DOCTYPE svg PUBLIC "-//W3C//DTD SVG 20010904//EN"
 "http://www.w3.org/TR/2001/REC-SVG-20010904/DTD/svg10.dtd">
<svg version="1.0" xmlns="http://www.w3.org/2000/svg"
 width="300.000000pt" height="522.000000pt" viewBox="0 0 300.000000 522.000000"
 preserveAspectRatio="xMidYMid meet">
<metadata>
Created by potrace 1.15, written by Peter Selinger 2001-2017
</metadata>
<g transform="translate(0.000000,522.000000) scale(0.100000,-0.100000)"
fill="#000000" stroke="none">
<g>
<path d="M16 5197 c-3 -12 -6 -204 -7 -427 0 -223 -2 -531 -3 -685 -1 -252 2
-304 21 -355 14 -37 13 -50 -7 -50 -20 0 -20 -14 -20 -1840 l0 -1840 1500 0
1500 0 0 388 0 387 -272 -3 c-285 -3 -358 1 -358 21 0 9 76 11 315 9 l315 -4
-2 231 c-2 127 -7 232 -12 234 -4 1 -7 -98 -7 -220 2 -198 0 -222 -14 -217
-12 5 -15 31 -16 158 -1 83 -3 184 -4 224 -1 55 1 72 12 72 11 0 11 4 -1 23
-11 17 -15 62 -15 207 0 102 -2 507 -5 900 -3 393 -2 770 1 837 5 112 7 122
27 128 12 4 24 7 29 6 4 -1 6 63 5 142 0 78 -3 126 -5 107 -3 -19 -11 -42 -19
-51 -11 -12 -14 -37 -12 -94 2 -56 -1 -79 -9 -82 -21 -8 -23 708 -3 801 9 42
-2 78 -39 126 -10 14 -22 40 -25 58 -5 27 -3 32 14 32 24 0 54 44 46 66 -4 11
-13 14 -30 10 -20 -5 -25 -2 -28 16 -5 36 -33 28 -36 -10 -2 -22 -8 -32 -16
-29 -7 3 -19 2 -25 -3 -20 -12 -3 -50 22 -51 20 -1 20 -2 -3 -8 -28 -8 -39
-39 -19 -52 7 -4 26 -5 41 -2 21 4 28 2 28 -11 0 -9 -5 -16 -10 -16 -6 0 -22
-11 -35 -25 -28 -27 -34 -87 -12 -114 9 -12 11 -40 7 -106 -5 -81 -7 -87 -18
-62 -7 16 -19 27 -32 27 -18 0 -19 5 -16 58 2 31 7 65 11 75 20 49 -25 130
-68 120 -19 -4 -18 -2 7 19 17 15 26 30 22 36 -9 15 -43 16 -51 2 -3 -5 -10
-10 -16 -10 -14 0 -10 32 6 54 8 11 15 35 15 53 0 26 -4 33 -19 33 -11 0 -23
-9 -26 -20 -3 -11 -15 -20 -26 -20 -26 0 -25 -41 1 -65 24 -22 25 -38 5 -55
-8 -7 -15 -19 -15 -27 0 -12 7 -14 30 -9 22 4 30 2 30 -9 0 -8 -5 -15 -10 -15
-6 0 -22 -11 -35 -25 -19 -18 -25 -35 -25 -68 0 -23 4 -47 10 -53 15 -15 23
-96 16 -158 -8 -62 -26 -76 -26 -21 0 27 -4 35 -18 35 -11 0 -24 -10 -30 -22
-11 -24 -13 9 -17 382 -2 192 1 174 -35 212 -36 38 -38 48 -6 48 51 0 72 24
43 48 -10 9 -19 7 -37 -5 l-23 -16 7 65 c5 52 3 68 -9 78 -22 18 -47 -5 -39
-36 6 -22 3 -24 -26 -24 -27 0 -31 -3 -28 -22 2 -17 12 -25 38 -29 19 -4 26
-7 15 -8 -34 -3 -58 -27 -50 -51 5 -16 12 -20 29 -16 33 8 39 -4 12 -25 -30
-24 -47 -87 -35 -136 4 -21 6 -39 4 -41 -2 -2 -22 11 -43 29 -37 31 -39 35
-26 53 25 37 15 70 -14 46 -9 -7 -9 -7 -2 2 6 7 10 30 10 53 l-1 40 -23 -27
c-13 -15 -26 -32 -28 -39 -3 -9 -9 -9 -25 -1 -24 13 -33 8 -26 -19 6 -20 23
-27 23 -8 0 5 5 7 10 4 6 -4 1 -14 -11 -24 -30 -24 -19 -51 21 -51 33 0 37
-11 15 -50 -7 -14 -11 -37 -8 -54 l6 -28 -26 17 c-14 9 -29 30 -32 46 -9 39
-19 37 -40 -8 -16 -34 -16 -37 -1 -48 20 -15 21 -29 2 -22 -22 9 -29 -23 -10
-44 10 -11 21 -19 26 -19 5 0 22 -12 37 -27 25 -25 27 -34 25 -92 -2 -35 -7
-84 -13 -110 -5 -25 -12 -89 -16 -141 -7 -102 -16 -125 -45 -110 -9 5 -20 7
-23 4 -3 -3 -21 -2 -40 1 -24 5 -37 14 -40 27 -5 17 -12 20 -41 16 -25 -3 -36
0 -36 9 0 22 -18 14 -22 -9 -2 -15 -11 -24 -27 -26 -18 -3 -22 0 -18 11 3 8 3
17 0 20 -7 8 -62 -43 -68 -64 -3 -10 -21 -26 -39 -37 -36 -22 -71 -83 -63
-114 7 -25 -1 -48 -17 -48 -6 0 -17 -9 -24 -20 -10 -17 -9 -25 4 -45 10 -15
14 -36 11 -53 -4 -23 0 -29 26 -43 27 -13 32 -22 35 -57 l3 -42 -53 0 c-29 0
-69 -4 -88 -10 -24 -7 -36 -6 -41 2 -4 6 -6 114 -5 241 3 201 5 231 20 239 9
5 16 16 16 24 0 10 6 13 19 9 20 -6 36 18 25 37 -4 5 -1 21 7 34 8 17 9 28 2
35 -14 14 -43 0 -54 -27 -4 -13 -13 -24 -19 -24 -11 0 -11 -5 -14 500 -1 179
-6 332 -10 342 -4 9 -16 18 -27 21 -13 4 -19 14 -19 32 0 22 4 26 20 22 21 -5
60 33 60 59 0 19 -30 18 -58 -2 -28 -19 -46 -10 -32 16 5 10 10 39 10 64 l0
46 70 0 c40 0 70 4 70 10 0 6 -13 10 -29 10 -30 0 -61 30 -61 58 0 28 41 72
66 72 14 0 23 4 20 9 -5 8 -164 9 -303 2 -47 -2 -41 -21 6 -21 l38 0 -5 -52
c-5 -53 -16 -72 -39 -63 -7 2 -20 2 -28 -1 -29 -12 -14 -21 33 -21 115 -1 125
-2 112 -17 -6 -8 -10 -30 -8 -48 3 -32 2 -33 -28 -30 -30 3 -64 -17 -64 -38 0
-12 42 -20 68 -13 33 8 27 -6 -8 -18 -39 -14 -38 -33 1 -49 25 -11 28 -15 15
-22 -21 -12 -31 -71 -16 -99 24 -43 13 -525 -11 -488 -16 26 -21 96 -9 119 25
47 -12 120 -38 74 -8 -15 -11 -15 -31 5 -40 40 -71 20 -51 -33 8 -21 7 -32 -1
-42 -19 -23 8 -46 49 -42 34 3 36 2 47 -42 7 -26 20 -59 30 -74 16 -25 19 -52
20 -239 0 -117 -2 -329 -5 -472 -3 -143 -2 -262 3 -263 10 -5 9 -37 -4 -66 -9
-19 -8 -31 5 -57 20 -40 20 -53 1 -69 -8 -7 -17 -27 -21 -46 -3 -19 -12 -34
-19 -34 -7 0 -27 -14 -45 -30 -32 -30 -33 -33 -27 -91 4 -46 11 -68 30 -88 17
-19 25 -39 26 -74 1 -26 10 -62 21 -80 18 -30 19 -55 17 -412 -2 -350 -1 -380
15 -383 19 -4 63 59 74 105 3 15 19 69 35 118 47 140 50 152 44 166 -6 16 60
97 70 87 4 -4 -2 -17 -14 -29 -22 -24 -27 -39 -13 -39 11 0 37 30 45 52 5 13
13 16 35 12 17 -4 32 -1 36 5 9 14 133 14 142 0 4 -7 20 -8 41 -4 32 6 35 4
28 -12 -5 -10 -10 -38 -12 -63 -9 -130 -39 -370 -63 -500 -5 -27 -6 18 -2 109
5 141 4 154 -11 148 -14 -5 -17 1 -17 42 0 51 -7 81 -19 81 -4 0 -8 -15 -8
-32 0 -18 -3 -87 -8 -153 -5 -66 -9 -148 -9 -182 0 -59 -2 -63 -23 -63 -13 0
-23 6 -23 14 0 7 -9 16 -21 19 -17 5 -20 11 -15 34 11 54 11 302 -1 314 -21
21 -26 -2 -23 -118 1 -34 -3 -70 -9 -81 -6 -12 -11 -30 -11 -41 0 -12 -4 -29
-9 -39 -5 -9 -13 -35 -18 -57 -7 -37 -11 -40 -45 -43 -35 -3 -38 -1 -40 25 -4
74 5 139 23 162 14 18 19 39 18 95 0 44 8 101 21 149 21 77 21 102 -1 80 -15
-15 -30 -89 -38 -183 -5 -60 -9 -74 -21 -73 -9 2 -16 -5 -17 -15 -1 -9 -4 -55
-8 -102 -4 -47 -7 -97 -7 -112 1 -19 -4 -28 -14 -28 -12 0 -14 8 -9 44 10 61
1 71 -39 46 -37 -23 -46 -19 -46 22 0 31 -16 39 -22 11 -2 -10 5 -68 16 -129
14 -83 17 -132 11 -188 -6 -71 -8 -76 -30 -76 -13 0 -44 14 -68 30 -53 35 -58
36 -81 11 -10 -11 -37 -26 -61 -35 -42 -14 -43 -14 -49 7 -3 12 -3 42 -1 67 2
25 6 207 9 405 13 806 28 1269 42 1290 8 11 14 30 14 44 0 13 5 40 11 61 11
37 12 37 55 32 44 -5 54 4 33 25 -9 9 -7 16 5 29 24 24 14 39 -26 39 -19 0
-42 6 -51 13 -9 8 -25 11 -38 7 -17 -6 -20 -4 -16 12 3 10 9 121 12 248 6 197
10 234 26 265 32 58 19 139 -27 176 -19 16 -27 32 -29 60 -1 22 -6 48 -10 58
-7 17 -5 18 19 12 38 -10 66 9 66 44 0 23 -4 30 -20 30 -21 0 -24 12 -11 45 9
21 -3 55 -19 55 -6 0 -19 -9 -30 -20 -16 -16 -24 -18 -39 -8 -40 25 -67 -16
-37 -57 12 -16 11 -21 -8 -36 -21 -17 -21 -17 -2 -38 11 -12 26 -19 36 -16 24
8 40 -16 43 -61 2 -32 -1 -38 -22 -44 -13 -3 -33 -17 -43 -31 -17 -22 -18 -33
-10 -80 6 -31 7 -60 1 -69 -5 -10 -8 -11 -9 -2 0 19 -38 14 -50 -8 -6 -10 -16
-17 -23 -15 -6 3 -19 1 -27 -5 -12 -7 -12 -14 -2 -44 10 -28 10 -39 0 -55 -10
-17 -10 -23 0 -33 10 -10 19 -10 43 5 37 21 49 15 49 -23 0 -15 4 -30 10 -32
6 -2 6 -143 0 -403 -5 -220 -10 -503 -10 -630 -1 -126 -6 -329 -11 -450 -20
-442 -27 -690 -20 -700 4 -5 5 -49 3 -97 l-4 -86 -73 1 -72 0 3 391 c3 381 7
617 20 1171 5 238 8 274 25 303 10 17 18 47 17 65 -2 49 30 98 58 91 16 -4 26
0 33 15 7 13 8 22 1 26 -5 3 -7 25 -4 50 l6 43 -46 0 c-60 0 -74 -20 -44 -68
l20 -34 -23 -42 c-13 -24 -25 -41 -28 -39 -8 4 -6 508 2 650 3 61 13 159 21
218 17 127 11 159 -39 207 -19 18 -32 37 -29 41 2 4 0 10 -6 14 -16 10 -12 23
10 30 30 10 72 54 68 73 -2 10 -15 18 -31 20 -15 2 -27 9 -26 15 3 29 -3 37
-26 37 -17 0 -25 -6 -25 -17 0 -12 -7 -8 -21 15 -12 17 -27 32 -35 32 -23 0
-28 -28 -10 -55 16 -24 15 -25 -14 -40 -16 -9 -30 -19 -30 -23 0 -18 26 -32
61 -32 36 0 37 -1 41 -41 3 -31 -2 -49 -20 -75 -21 -32 -22 -37 -9 -77 15 -47
9 -173 -7 -148 -5 8 -9 30 -8 49 2 57 -11 71 -66 69 -46 -2 -47 -3 -44 -32 1
-17 3 -46 5 -65 2 -36 9 -39 71 -28 11 2 26 -8 39 -24 19 -26 20 -38 18 -395
-1 -202 -6 -384 -11 -403 -9 -34 -15 -407 -25 -1440 -3 -272 -8 -506 -11 -520
-5 -24 -6 -24 -20 -6 -8 11 -14 27 -14 36 0 20 -26 45 -58 55 -18 5 -33 -3
-72 -39 -49 -44 -98 -64 -121 -51 -8 5 -9 89 -3 304 5 163 9 456 9 651 0 565
15 1269 27 1327 12 59 48 94 73 73 20 -16 76 -8 89 13 13 21 -5 36 -44 37 -22
1 -23 2 -9 13 25 19 41 57 35 83 -5 20 -13 24 -42 24 -42 0 -51 -18 -37 -72 9
-35 8 -42 -11 -60 -54 -51 -52 -55 -59 169 -6 188 -8 208 -27 228 -11 12 -20
28 -20 37 0 9 -10 22 -22 31 l-23 14 22 41 c13 22 23 53 23 68 0 18 8 34 20
41 32 21 42 49 24 68 -9 9 -24 13 -35 10 -14 -5 -19 -1 -19 14 0 32 -11 51
-30 51 -19 0 -30 -26 -30 -72 0 -24 -4 -28 -29 -28 -17 0 -33 -5 -36 -11 -9
-13 33 -59 54 -59 12 0 11 -3 -4 -14 -11 -8 -16 -19 -12 -30 7 -19 38 -21 55
-4 25 25 24 -4 -1 -30 -15 -16 -27 -32 -27 -36 0 -5 -8 -15 -17 -22 -14 -10
-18 -27 -17 -85 0 -53 -2 -67 -9 -52 -7 17 -18 21 -53 21 -43 0 -44 -1 -44
-31 0 -18 -3 -42 -6 -54 -5 -17 2 -27 35 -47 23 -15 41 -31 41 -38 0 -6 8 -20
18 -31 15 -17 18 -48 22 -246 3 -124 2 -323 -1 -441 -8 -235 -41 -1819 -39
-1852 0 -4 -12 -2 -27 4 -16 6 -44 14 -63 17 l-35 6 3 620 c5 733 15 1137 32
1182 10 27 14 30 29 21 22 -14 71 -3 71 16 0 7 -7 19 -15 26 -14 12 -13 16 6
36 25 26 18 44 -17 44 -27 0 -29 3 -12 30 10 16 10 22 0 32 -11 11 -17 9 -33
-11 -10 -13 -19 -35 -20 -50 -1 -31 -5 -56 -18 -96 -7 -20 -9 50 -5 220 2 138
7 450 10 695 3 244 7 446 10 449 2 2 4 16 4 31 0 26 -45 80 -67 80 -24 0 -22
31 2 40 34 13 43 39 20 56 -17 12 -17 15 -1 49 21 43 13 59 -24 51 -18 -3 -33
0 -39 8 -7 8 -21 16 -32 19 -25 7 -35 -16 -21 -48 9 -19 8 -24 -9 -28 -28 -7
-23 -30 11 -50 19 -11 34 -31 41 -56 10 -35 9 -40 -15 -64 l-26 -27 1 -252 c1
-139 1 -321 0 -404 l-1 -151 -22 4 c-13 3 -34 21 -47 41 l-23 37 4 667 c2 367
7 670 10 673 4 4 671 8 1482 8 812 1 1476 5 1476 9 0 5 -670 8 -1489 8 l-1489
0 -6 -23z m1576 -129 c-6 -6 -16 -7 -22 -3 -9 6 -9 9 1 16 17 10 34 0 21 -13z
m-59 -13 c20 -27 14 -46 -22 -79 -32 -29 -51 -7 -48 55 2 45 4 49 27 49 15 -1
32 -11 43 -25z m57 -80 c0 -8 -4 -15 -9 -15 -13 0 -22 16 -14 24 11 11 23 6
23 -9z m-50 -90 c0 -14 -4 -25 -10 -25 -5 0 -10 11 -10 25 0 14 5 25 10 25 6
0 10 -11 10 -25z m-1385 -66 c11 -17 -1 -21 -15 -4 -8 9 -8 15 -2 15 6 0 14
-5 17 -11z m1325 1 c0 -5 -9 -10 -20 -10 -11 0 -20 5 -20 10 0 6 9 10 20 10
11 0 20 -4 20 -10z m-1270 -46 c-18 -21 -24 -10 -9 18 8 14 14 18 17 10 2 -7
-2 -19 -8 -28z m1400 22 c0 -3 -4 -8 -10 -11 -5 -3 -10 -1 -10 4 0 6 5 11 10
11 6 0 10 -2 10 -4z m-105 -36 c3 -5 -3 -10 -15 -10 -12 0 -18 5 -15 10 3 6
10 10 15 10 5 0 12 -4 15 -10z m965 -26 c0 -8 -4 -12 -10 -9 -5 3 -10 10 -10
16 0 5 5 9 10 9 6 0 10 -7 10 -16z m-2245 -34 c-3 -5 -13 -10 -21 -10 -8 0
-12 5 -9 10 3 6 13 10 21 10 8 0 12 -4 9 -10z m1305 -21 c0 -6 6 -9 13 -6 21
8 40 -29 26 -54 -10 -20 -11 -20 -24 -2 -11 15 -14 16 -18 3 -14 -41 -17 -41
-12 1 2 28 0 50 -7 57 -9 9 -8 12 5 12 9 0 17 -5 17 -11z m-1270 -120 c0 -22
-26 -44 -35 -29 -4 6 -15 8 -26 5 -10 -3 -28 -8 -39 -11 -17 -4 -20 -1 -20 25
0 32 15 47 42 43 9 -2 19 2 23 8 9 14 54 -20 55 -41z m1330 -19 c0 -11 -7 -23
-15 -26 -8 -4 -13 -10 -10 -14 3 -4 -2 -13 -10 -20 -12 -10 -16 -9 -21 4 -9
23 4 49 21 42 10 -4 15 1 15 14 0 11 5 20 10 20 6 0 10 -9 10 -20z m720 0 c0
-5 -4 -10 -10 -10 -5 0 -10 5 -10 10 0 6 5 10 10 10 6 0 10 -4 10 -10z m196
-35 c18 -38 12 -77 -8 -57 -7 7 -20 12 -30 12 -10 0 -18 5 -18 10 0 6 -9 10
-20 10 -11 0 -20 6 -20 14 0 18 26 39 39 32 5 -4 12 -2 16 4 11 18 24 11 41
-25z m-2297 -34 c-15 -5 -22 6 -14 19 6 9 10 9 16 -1 5 -8 4 -15 -2 -18z
m2467 -28 c-10 -10 -19 5 -10 18 6 11 8 11 12 0 2 -7 1 -15 -2 -18z m-2486 2
c11 -13 11 -18 0 -28 -10 -10 -12 -9 -7 5 4 11 0 21 -11 27 -9 6 -12 11 -6 11
6 0 17 -7 24 -15z m764 -9 c-6 -15 -24 -23 -24 -11 0 8 24 34 28 30 1 -1 0
-10 -4 -19z m-114 4 c0 -5 -9 -10 -20 -10 -11 0 -20 5 -20 10 0 6 9 10 20 10
11 0 20 -4 20 -10z m690 -14 c0 -3 -4 -8 -10 -11 -5 -3 -10 -1 -10 4 0 6 5 11
10 11 6 0 10 -2 10 -4z m66 -79 c0 -58 -2 -66 -20 -71 -28 -7 -30 -2 -12 35
11 22 14 44 9 72 -5 31 -3 39 8 35 10 -3 14 -24 15 -71z m847 59 c3 -8 19 -17
35 -21 28 -6 30 -10 34 -57 2 -34 -2 -56 -10 -65 -11 -10 -11 -20 -2 -47 6
-18 12 -93 14 -165 2 -119 1 -131 -15 -131 -12 0 -16 6 -12 20 4 15 -2 23 -28
35 -19 8 -26 14 -16 15 21 0 22 19 1 27 -14 5 -14 7 2 16 16 9 16 11 -2 24
-13 10 -15 16 -7 21 6 4 10 21 8 37 -1 17 2 33 9 38 8 5 7 9 -3 16 -11 7 -10
10 5 13 17 4 16 6 -6 16 -18 8 -20 11 -7 11 9 1 17 6 17 11 0 6 -8 10 -17 11
-14 0 -13 2 5 9 26 11 29 27 5 33 -14 4 -12 5 5 6 12 0 22 6 22 11 0 6 -10 11
-22 11 -15 1 -17 3 -7 6 10 2 16 15 17 34 1 25 -2 29 -19 24 -14 -5 -19 -2
-19 12 0 11 -5 24 -12 31 -9 9 -8 12 4 12 9 0 18 -6 21 -14z m-2204 -53 c-1
-57 -1 -58 -10 -18 -11 55 -11 75 1 75 6 0 9 -25 9 -57z m231 20 c0 -28 -3
-34 -10 -23 -13 20 -13 60 0 60 6 0 10 -17 10 -37z m-265 5 c-2 -13 -8 -22
-15 -20 -7 1 -18 -3 -26 -9 -8 -7 -18 -9 -22 -5 -6 7 45 56 59 56 3 0 5 -10 4
-22z m2144 -26 c1 -32 13 -82 21 -82 4 0 12 10 18 23 11 22 11 22 11 -5 1 -14
-3 -28 -7 -30 -5 -1 -6 -30 -2 -63 6 -58 -4 -140 -21 -160 -4 -6 -9 -37 -10
-70 -3 -73 -6 -85 -28 -85 -14 -1 -14 -2 2 -14 18 -14 24 -71 7 -81 -6 -4 -10
10 -10 34 0 27 -5 41 -13 41 -8 0 -12 -15 -11 -47 1 -32 -3 -51 -13 -59 -9 -6
-17 -31 -19 -60 -4 -66 -15 -124 -23 -124 -3 0 -13 5 -21 11 -11 8 -12 12 -2
16 6 2 12 11 12 19 0 8 -6 14 -12 14 -10 0 -10 2 0 8 7 5 14 22 16 38 2 16 7
41 11 57 5 17 3 27 -4 27 -6 0 -11 14 -11 30 0 20 5 30 15 30 9 0 15 6 14 13
-2 6 1 32 5 56 6 33 5 46 -5 52 -12 7 -12 9 0 9 7 0 11 6 7 15 -3 9 0 15 9 15
8 0 15 -9 15 -20 0 -13 7 -20 20 -20 16 0 20 7 20 35 0 24 -5 35 -14 35 -8 0
-16 -5 -18 -11 -2 -6 -11 -7 -22 -3 -18 7 -18 8 0 21 17 13 17 14 -2 28 -17
13 -17 14 -1 15 12 0 17 8 17 30 0 17 5 30 11 30 6 0 9 6 6 13 -2 6 -11 11
-21 9 -12 -2 -16 5 -16 33 0 25 4 35 13 33 6 -3 13 -10 13 -16 1 -7 2 -18 3
-26 0 -8 10 -18 21 -21 13 -4 20 -15 20 -31 0 -13 4 -24 10 -24 5 0 9 25 8 58
-1 32 1 63 6 70 10 17 -21 27 -38 13 -11 -9 -15 -7 -19 9 -3 13 0 20 9 20 21
0 17 18 -7 25 -16 5 -18 10 -8 21 9 11 8 15 -4 20 -15 5 -17 40 -3 63 10 16
44 -13 45 -37z m-1819 -9 c0 -14 -19 -38 -25 -32 -8 8 5 39 16 39 5 0 9 -3 9
-7z m-100 -35 c0 -13 -32 -6 -37 9 -3 7 3 9 16 6 12 -3 21 -10 21 -15z m950
-25 c0 -24 -25 -9 -28 17 -3 21 -2 22 12 11 9 -7 16 -20 16 -28z m-1160 -3 c0
-22 -17 -35 -23 -18 -6 19 4 49 14 42 5 -3 9 -14 9 -24z m1216 -17 c-11 -11
-19 6 -11 24 8 17 8 17 12 0 3 -10 2 -21 -1 -24z m1484 18 c15 -30 12 -56 -10
-76 -20 -18 -24 -15 -20 19 1 12 -3 17 -12 14 -8 -3 -22 0 -32 7 -14 11 -15
17 -6 34 14 28 65 29 80 2z m-2674 -18 c-10 -10 -19 5 -10 18 6 11 8 11 12 0
2 -7 1 -15 -2 -18z m663 7 c8 0 25 -10 38 -22 27 -26 32 -82 7 -92 -11 -4 -14
-12 -9 -24 4 -9 8 -30 10 -47 l4 -30 -29 35 c-15 19 -26 38 -24 42 2 3 0 9 -6
13 -6 4 -8 11 -5 16 4 5 1 17 -4 26 -6 10 -11 14 -11 8 -1 -24 -20 23 -20 51
0 35 9 49 24 34 5 -5 17 -10 25 -10z m-741 -36 c7 -84 6 -141 -2 -177 -6 -28
-5 -37 4 -35 7 2 15 -3 17 -9 3 -7 -2 -13 -11 -13 -9 0 -16 -7 -16 -15 0 -8
-3 -15 -7 -15 -5 0 -8 70 -8 155 0 99 4 154 10 152 6 -2 11 -21 13 -43z m2572
31 c8 -9 10 -30 6 -57 -8 -63 -16 -140 -17 -165 -1 -13 -7 -23 -15 -23 -8 0
-14 -7 -14 -15 0 -9 -9 -15 -25 -15 -14 0 -25 5 -25 10 0 6 5 10 11 10 6 0 8
9 4 20 -5 14 -2 20 9 20 9 0 16 4 16 9 0 5 3 16 6 25 5 12 0 16 -19 16 -14 0
-28 4 -31 9 -4 5 12 7 36 3 39 -5 42 -4 30 11 -8 9 -25 17 -39 19 -33 4 -58
58 -39 83 10 15 16 15 34 6 18 -10 23 -9 27 4 3 8 7 22 10 30 6 19 19 19 35 0z
m-2288 -21 c-13 -9 -26 -13 -30 -9 -8 8 17 25 38 25 9 0 6 -6 -8 -16z m767
-26 c-7 -13 -14 -18 -16 -11 -3 7 1 22 8 35 7 13 14 18 16 11 3 -7 -1 -22 -8
-35z m-61 4 c2 -7 -2 -10 -12 -6 -9 3 -16 11 -16 16 0 13 23 5 28 -10z m207 8
c3 -5 1 -10 -4 -10 -6 0 -11 5 -11 10 0 6 2 10 4 10 3 0 8 -4 11 -10z m895 -5
c0 -8 -4 -15 -10 -15 -5 0 -10 7 -10 15 0 8 5 15 10 15 6 0 10 -7 10 -15z
m-710 -23 c0 -11 -7 -18 -20 -18 -11 0 -20 1 -20 2 0 1 3 9 6 18 8 22 34 20
34 -2z m-1300 -53 c0 -5 -9 -9 -20 -9 -11 0 -20 6 -20 14 0 9 7 12 20 9 11 -3
20 -9 20 -14z m500 1 c11 -21 4 -25 -19 -11 -7 5 -10 14 -7 20 10 15 14 14 26
-9z m500 5 c0 -9 -9 -15 -21 -15 -18 0 -19 2 -9 15 7 8 16 15 21 15 5 0 9 -7
9 -15z m-440 -16 c0 -6 -4 -7 -10 -4 -5 3 -10 11 -10 16 0 6 5 7 10 4 6 -3 10
-11 10 -16z m740 1 c0 -5 -4 -10 -10 -10 -5 0 -10 5 -10 10 0 6 5 10 10 10 6
0 10 -4 10 -10z m40 0 c0 -5 -4 -10 -10 -10 -5 0 -10 5 -10 10 0 6 5 10 10 10
6 0 10 -4 10 -10z m-1340 -52 c0 -17 -7 -31 -19 -38 -26 -13 -34 -13 -28 3 2
6 10 12 18 12 17 0 19 30 2 31 -22 2 -24 4 -19 12 2 4 14 8 25 8 16 0 21 -7
21 -28z m216 22 c8 0 14 -10 14 -24 0 -14 4 -28 10 -31 5 -3 15 -15 21 -27 8
-15 8 -19 0 -13 -7 4 -18 1 -26 -5 -8 -7 -15 -9 -15 -5 0 18 -40 -30 -42 -49
0 -12 -4 -1 -7 24 -6 43 -2 77 7 52 9 -27 22 -10 22 28 0 29 -4 40 -15 40 -8
0 -15 5 -15 11 0 6 7 8 16 5 9 -3 22 -6 30 -6z m2414 0 c0 -5 -4 -10 -10 -10
-5 0 -10 5 -10 10 0 6 5 10 10 10 6 0 10 -4 10 -10z m-1309 -20 c4 0 12 -14
17 -32 6 -25 4 -36 -10 -50 -23 -23 -31 -23 -23 2 4 11 2 20 -4 20 -6 0 -11 5
-11 10 0 6 7 10 16 10 23 0 11 24 -14 28 -12 2 -20 8 -16 13 3 6 13 8 21 5 8
-3 19 -6 24 -6z m-801 -10 c0 -5 -4 -10 -10 -10 -5 0 -10 5 -10 10 0 6 5 10
10 10 6 0 10 -4 10 -10z m-525 -70 c-3 -5 -13 -10 -21 -10 -8 0 -14 5 -14 10
0 6 9 10 21 10 11 0 17 -4 14 -10z m2160 -22 c-2 -18 -3 -49 -4 -69 -1 -19 -7
-43 -14 -53 -10 -14 -11 -2 -5 66 8 97 6 88 17 88 5 0 7 -15 6 -32z m322 -10
c-3 -8 -6 -5 -6 6 -1 11 2 17 5 13 3 -3 4 -12 1 -19z m139 -34 c-10 -49 -27
-31 -19 19 4 25 9 35 16 28 5 -5 6 -26 3 -47z m-1967 -10 c1 -12 9 -24 19 -26
20 -6 22 -56 3 -98 -10 -24 -11 -24 -9 10 3 31 0 35 -21 32 -20 -2 -22 1 -17
20 3 13 6 46 7 73 0 37 3 45 9 30 5 -11 9 -30 9 -41z m301 47 c0 -5 9 -11 20
-14 28 -7 43 -54 33 -102 -7 -32 -13 -40 -29 -38 -18 2 -21 -3 -21 -52 0 -30
4 -55 8 -55 5 0 9 -17 9 -39 0 -30 -4 -40 -19 -44 -13 -3 -21 -16 -24 -38 l-4
-34 -1 38 c-2 25 -7 37 -17 37 -8 0 -15 6 -15 14 0 9 8 12 25 8 18 -3 25 0 25
12 0 10 -9 17 -27 17 l-28 2 27 4 c27 4 27 5 12 29 -10 15 -12 24 -5 24 6 0
11 5 11 10 0 6 -9 10 -21 10 -24 0 -23 35 1 35 8 1 13 7 11 15 -2 8 -5 38 -6
67 -2 29 -6 57 -10 63 -11 18 3 40 25 40 11 0 20 -4 20 -9z m-960 -26 c0 -14
-6 -35 -12 -46 -10 -17 -10 -23 0 -26 22 -8 13 -33 -13 -33 -34 0 -32 -20 3
-21 l27 -2 -27 -4 c-32 -5 -38 -23 -9 -23 11 0 23 -4 26 -10 4 -6 -7 -10 -24
-10 -38 0 -41 -19 -3 -21 l27 -2 -27 -4 c-39 -6 -35 -23 5 -24 17 0 25 -3 17
-6 -8 -2 -21 -7 -29 -9 -8 -3 -10 -9 -4 -17 4 -6 8 -27 8 -44 0 -18 3 -33 8
-33 4 0 5 -5 2 -10 -3 -6 1 -13 11 -17 15 -5 16 -20 10 -132 -3 -69 -6 -132
-6 -138 0 -7 -4 -13 -10 -13 -5 0 -12 23 -16 50 -6 49 -7 50 -40 50 -19 0 -34
5 -34 10 0 6 12 10 26 10 16 0 24 5 21 13 -2 6 -15 11 -29 10 -24 -1 -25 0
-20 50 2 29 8 57 13 63 5 6 7 83 4 171 l-6 161 26 4 c14 3 25 1 25 -3 0 -5 5
-9 10 -9 6 0 10 20 10 45 0 33 4 45 15 45 9 0 15 -9 15 -25z m1353 -77 c-7
-128 -27 -163 -40 -68 -5 38 -8 41 -29 36 -18 -5 -24 -2 -24 9 0 13 7 15 35 9
28 -5 35 -3 35 10 0 12 -9 16 -35 16 -19 0 -35 5 -35 10 0 6 16 10 35 10 24 0
35 5 35 15 0 8 -9 15 -20 15 -11 0 -20 5 -20 11 0 6 8 8 19 4 10 -3 24 1 31
10 7 8 14 15 15 15 2 0 1 -46 -2 -102z m-1083 46 c0 -8 -4 -14 -10 -14 -5 0
-10 2 -10 4 0 2 -3 12 -6 20 -5 12 -2 15 10 10 9 -3 16 -12 16 -20z m-320 6
c0 -5 -2 -10 -4 -10 -3 0 -8 5 -11 10 -3 6 -1 10 4 10 6 0 11 -4 11 -10z m197
-52 c-2 -13 -4 -5 -4 17 -1 22 1 32 4 23 2 -10 2 -28 0 -40z m46 37 c4 -8 2
-17 -3 -20 -6 -4 -10 3 -10 14 0 25 6 27 13 6z m2114 -37 c-2 -13 -4 -5 -4 17
-1 22 1 32 4 23 2 -10 2 -28 0 -40z m122 5 c-9 -10 -8 -13 4 -13 10 0 14 -6
11 -15 -4 -11 1 -15 17 -16 24 -2 24 -2 2 -6 -13 -2 -23 -9 -23 -15 0 -6 9 -8
20 -5 18 5 20 1 18 -41 -1 -36 -2 -39 -5 -15 -4 31 -29 51 -44 36 -4 -4 -9
-29 -10 -55 -5 -93 -19 -34 -19 79 0 115 0 116 20 98 15 -14 17 -21 9 -32z
m93 15 c-4 -29 14 -46 31 -29 21 21 33 11 33 -26 -1 -21 3 -107 7 -190 7 -136
6 -152 -8 -147 -8 3 -15 12 -15 19 0 8 -5 17 -10 20 -17 11 -40 -15 -40 -44 0
-42 -11 -71 -27 -71 -12 0 -13 3 -4 14 9 10 13 86 14 250 1 152 6 235 12 233
6 -2 9 -15 7 -29z m-242 -18 c0 -11 -7 -20 -15 -20 -8 0 -15 9 -15 20 0 11 7
20 15 20 8 0 15 -9 15 -20z m197 -12 c-3 -8 -6 -5 -6 6 -1 11 2 17 5 13 3 -3
4 -12 1 -19z m-2232 2 c3 -6 -6 -15 -20 -20 -33 -13 -45 -13 -45 0 0 6 7 10
15 10 8 0 15 5 15 10 0 13 27 13 35 0z m1965 0 c0 -5 -4 -10 -10 -10 -5 0 -10
5 -10 10 0 6 5 10 10 10 6 0 10 -4 10 -10z m165 -38 c-12 -12 -23 21 -12 33
10 10 13 9 15 -7 2 -11 1 -23 -3 -26z m305 34 c0 -2 -9 -6 -20 -9 -11 -3 -18
-1 -14 4 5 9 34 13 34 5z m-2037 -51 c-7 -21 -13 -19 -13 6 0 11 4 18 10 14 5
-3 7 -12 3 -20z m1625 -114 c-14 -11 -18 -29 -18 -91 l0 -78 -25 11 c-30 14
-33 32 -5 24 31 -8 25 22 -7 35 -28 11 -28 12 -5 16 15 2 22 9 18 18 -3 8 -1
14 4 14 5 0 7 19 4 42 -4 32 -1 45 11 54 9 7 20 32 23 56 7 43 7 42 12 -22 4
-54 2 -67 -12 -79z m-28 119 c0 -5 -4 -10 -10 -10 -5 0 -10 5 -10 10 0 6 5 10
10 10 6 0 10 -4 10 -10z m-80 -25 c0 -7 -8 -15 -18 -17 -15 -4 -18 -1 -14 18
4 24 32 23 32 -1z m-2356 -1 c3 -9 6 -23 6 -32 0 -21 -15 -5 -25 26 -7 25 9
31 19 6z m1043 -16 c-3 -7 -5 -2 -5 12 0 14 2 19 5 13 2 -7 2 -19 0 -25z
m1787 -140 c-2 -83 -6 -153 -9 -156 -3 -3 -5 46 -5 109 0 63 -3 139 -7 169 -6
49 -5 54 9 42 14 -11 16 -36 12 -164z m-2348 149 c4 -4 -3 -7 -15 -7 -16 0
-21 -5 -19 -17 2 -10 10 -17 16 -15 7 1 12 -2 12 -7 0 -6 -9 -9 -20 -8 -15 1
-20 8 -20 32 0 25 4 31 20 30 11 -1 23 -4 26 -8z m2089 -5 c-3 -7 -5 -21 -5
-30 0 -12 -3 -13 -12 -4 -7 7 -20 12 -30 12 -11 0 -18 7 -18 19 0 15 7 19 35
18 26 -1 34 -5 30 -15z m-1978 -24 c-3 -8 -6 -5 -6 6 -1 11 2 17 5 13 3 -3 4
-12 1 -19z m43 5 c0 -22 -17 -50 -25 -42 -5 6 14 59 22 59 1 0 3 -8 3 -17z
m230 7 c5 8 13 11 17 6 4 -4 -1 -15 -13 -22 -20 -14 -21 -22 -18 -152 2 -75 6
-184 8 -240 5 -92 4 -103 -10 -98 -13 5 -15 1 -10 -19 4 -14 2 -25 -4 -25 -13
0 -13 -57 0 -65 6 -4 8 -10 5 -15 -3 -5 -1 -11 5 -15 18 -11 12 -62 -9 -68
-27 -7 -31 19 -20 121 5 48 9 203 9 346 0 234 1 257 16 245 13 -10 17 -10 24
1z m140 1 c0 -6 -4 -13 -10 -16 -5 -3 -10 1 -10 9 0 9 5 16 10 16 6 0 10 -4
10 -9z m1410 -11 c0 -5 -4 -10 -10 -10 -5 0 -10 5 -10 10 0 6 5 10 10 10 6 0
10 -4 10 -10z m-2370 -31 c-7 -11 -14 -18 -17 -15 -8 8 5 36 17 36 7 0 7 -6 0
-21z m1030 -4 c0 -8 -4 -15 -10 -15 -5 0 -10 7 -10 15 0 8 5 15 10 15 6 0 10
-7 10 -15z m400 5 c0 -5 -4 -10 -10 -10 -5 0 -10 5 -10 10 0 6 5 10 10 10 6 0
10 -4 10 -10z m653 -11 c19 -9 27 -19 25 -32 -3 -18 -12 -20 -98 -22 -97 -2
-172 -24 -269 -77 -42 -24 -59 -12 -40 27 10 19 28 32 59 42 48 16 74 33 50
33 -8 -1 -26 -7 -40 -15 -30 -17 -50 -19 -50 -5 0 15 83 49 144 60 65 11 183
6 219 -11z m-2058 -98 c-6 -34 -8 -35 -21 -16 -19 26 -18 81 4 105 17 21 17
20 20 -17 2 -20 0 -53 -3 -72z m411 47 c0 -29 -5 -56 -10 -60 -6 -4 -5 -12 3
-22 10 -12 11 -16 1 -16 -7 0 -10 -8 -7 -20 3 -11 1 -23 -4 -26 -5 -3 -9 -15
-9 -26 0 -12 -2 -19 -6 -16 -5 6 15 218 23 231 8 14 10 7 9 -45z m1879 42 c3
-5 1 -10 -4 -10 -6 0 -11 5 -11 10 0 6 2 10 4 10 3 0 8 -4 11 -10z m315 -22
l0 -33 -13 25 c-9 17 -10 27 -3 32 16 11 16 11 16 -24z m-2270 3 c0 -5 3 -16
6 -25 4 -12 0 -16 -15 -16 -16 0 -21 6 -21 25 0 16 6 25 15 25 8 0 15 -4 15
-9z m1148 -9 c2 -7 -2 -10 -11 -6 -9 3 -16 -3 -20 -15 -3 -12 -10 -21 -16 -21
-7 0 -9 10 -5 25 6 24 4 25 -20 19 -17 -4 -26 -2 -26 5 0 16 92 10 98 -7z
m729 -34 c-2 -13 -4 -5 -4 17 -1 22 1 32 4 23 2 -10 2 -28 0 -40z m-2278 10
c-1 -1 8 -23 21 -48 17 -33 25 -69 29 -136 7 -107 6 -537 -4 -1174 -14 -956
-12 -895 -30 -880 -26 22 -28 2 -3 -23 20 -20 24 -33 22 -63 -2 -22 -3 -55 -3
-75 -1 -31 -5 -38 -26 -43 -14 -4 -25 -11 -25 -16 0 -14 24 -12 38 2 9 9 12
-31 12 -180 l0 -192 -31 0 -32 0 8 1173 c4 644 6 1279 5 1409 -2 213 2 269 17
254 2 -2 4 -6 2 -8z m2623 -100 c1 -57 -13 -89 -35 -85 -13 2 -24 -126 -26
-310 -1 -101 -3 -113 -18 -113 -10 0 -27 7 -38 16 -17 12 -20 29 -22 117 -2
56 2 186 9 289 11 184 11 186 32 175 37 -22 46 -35 46 -74 0 -21 5 -45 10 -53
18 -27 27 7 24 83 -3 59 -2 66 6 42 6 -16 11 -56 12 -87z m-2432 92 c0 -5 -5
-10 -11 -10 -5 0 -7 5 -4 10 3 6 8 10 11 10 2 0 4 -4 4 -10z m458 -2 c-3 -7
-15 -13 -28 -13 -13 0 -25 6 -27 13 -3 8 6 12 27 12 21 0 30 -4 28 -12z m892
-8 c0 -5 -4 -10 -10 -10 -5 0 -10 5 -10 10 0 6 5 10 10 10 6 0 10 -4 10 -10z
m-440 -89 c-7 -11 -9 -3 -9 29 1 42 1 43 9 16 6 -17 5 -36 0 -45z m437 32 c-3
-10 -5 -4 -5 12 0 17 2 24 5 18 2 -7 2 -21 0 -30z m347 14 c-3 -10 4 -14 25
-14 18 0 33 7 36 16 6 14 8 14 19 -1 7 -9 21 -16 32 -15 13 2 19 -4 19 -20 0
-12 9 -29 20 -36 16 -12 17 -18 7 -30 -7 -8 -10 -22 -6 -31 4 -11 1 -16 -10
-16 -9 0 -16 -7 -16 -16 0 -11 6 -14 20 -9 15 5 18 3 14 -10 -4 -8 -15 -20
-26 -26 -29 -16 -16 -33 28 -39 28 -4 38 -9 35 -20 -7 -28 0 -74 13 -90 19
-21 9 -80 -14 -80 -10 0 -34 -7 -53 -15 -48 -20 -69 -19 -97 5 -20 17 -22 25
-14 47 7 22 18 29 52 36 25 5 46 16 52 28 13 23 15 23 -57 4 -71 -18 -133 -19
-157 -2 -13 10 -19 30 -21 71 -2 32 -8 63 -14 69 -12 12 -15 125 -5 151 3 9
11 16 18 16 6 0 22 9 36 20 29 23 72 27 64 7z m386 -7 c0 -5 -4 -10 -10 -10
-5 0 -10 5 -10 10 0 6 5 10 10 10 6 0 10 -4 10 -10z m-800 -10 c0 -5 -4 -10
-10 -10 -5 0 -10 5 -10 10 0 6 5 10 10 10 6 0 10 -4 10 -10z m866 -40 c11 0
14 -17 13 -82 l0 -83 -25 80 c-14 44 -28 91 -31 105 l-5 25 17 -22 c9 -13 23
-23 31 -23z m-1923 13 c-7 -2 -19 -2 -25 0 -7 3 -2 5 12 5 14 0 19 -2 13 -5z
m733 -38 c0 -40 -3 -39 -16 4 -6 23 -5 31 4 31 7 0 12 -14 12 -35z m344 5 c0
-22 4 -28 16 -23 13 5 14 -2 8 -48 -4 -30 -7 -55 -8 -55 0 -1 -16 -5 -35 -9
-23 -5 -31 -4 -27 4 4 6 16 11 26 11 23 0 34 16 23 33 -9 14 -9 17 -21 75 -7
33 -6 42 4 42 9 0 14 -11 14 -30z m-613 -2 c-3 -8 -6 -5 -6 6 -1 11 2 17 5 13
3 -3 4 -12 1 -19z m1403 -1 c5 -12 18 -54 30 -93 18 -65 32 -96 93 -208 13
-23 29 -61 37 -86 7 -25 24 -66 36 -92 64 -138 83 -291 41 -344 -10 -14 -16
-28 -12 -32 12 -12 53 49 59 88 3 21 3 60 0 86 -5 39 -4 47 6 37 7 -6 19 -9
26 -6 8 3 14 0 14 -6 0 -6 -7 -11 -15 -11 -24 0 -17 -20 8 -21 16 -1 18 -2 5
-6 -10 -2 -18 -9 -18 -14 0 -6 8 -9 18 -7 13 2 17 -4 17 -32 0 -31 -3 -35 -25
-33 -16 1 -18 0 -7 -3 23 -7 16 -30 -8 -26 -16 3 -17 1 -6 -12 11 -13 11 -16
-2 -16 -8 0 -14 -8 -13 -17 0 -9 -9 -22 -20 -28 -41 -21 -55 -37 -48 -58 4
-13 2 -17 -5 -13 -6 4 -11 14 -11 22 0 8 -4 13 -9 10 -4 -3 -6 -17 -3 -31 4
-24 2 -25 -46 -25 -41 0 -53 4 -62 20 -6 11 -17 20 -24 20 -16 0 -58 44 -50
53 3 3 30 -10 59 -28 36 -24 59 -32 75 -28 15 4 21 2 16 -5 -3 -6 -2 -13 3
-16 5 -3 9 10 8 29 -1 34 -11 47 -19 23 -5 -15 -46 -4 -88 24 -48 33 -50 52
-2 25 29 -16 54 -22 92 -21 28 1 54 5 57 8 9 9 -30 36 -44 31 -7 -2 -19 6 -28
18 -8 12 -30 27 -48 34 -17 6 -24 12 -14 12 27 1 20 21 -8 21 -28 0 -34 17 -8
22 14 3 15 5 2 18 -16 17 -20 52 -19 162 0 42 -4 94 -8 116 -7 27 -5 44 3 55
17 23 14 62 -5 62 -8 0 -16 10 -18 23 -2 14 -15 27 -38 37 -33 14 -38 24 -34
72 1 24 -13 25 -80 8 l-25 -7 24 22 c13 11 31 25 40 30 9 5 12 12 8 16 -4 4
-21 0 -38 -10 -17 -10 -33 -15 -37 -11 -7 7 8 20 57 47 31 17 42 38 20 38 -7
0 -34 -16 -60 -35 -51 -36 -61 -36 -31 1 21 26 73 54 102 54 14 0 20 6 20 21
0 18 -4 20 -32 14 -18 -4 -43 -13 -55 -21 -26 -16 -31 -3 -8 16 17 14 59 24
112 27 27 1 36 -3 43 -20z m155 -6 c3 -5 1 -12 -5 -16 -15 -9 -12 -35 3 -35 8
0 19 10 25 23 10 19 11 15 9 -25 -2 -46 -17 -70 -17 -27 0 17 -4 20 -24 15
-16 -4 -28 0 -37 11 -8 10 -9 14 -2 10 19 -12 28 15 10 28 -10 7 -17 15 -17
19 0 10 48 7 55 -3z m-1315 -63 c0 -5 -7 -8 -15 -8 -10 0 -15 10 -15 27 0 26
1 26 15 7 8 -10 15 -22 15 -26z m1527 0 c-3 -7 -5 -2 -5 12 0 14 2 19 5 13 2
-7 2 -19 0 -25z m136 -1035 c-5 -974 -7 -1069 -22 -1080 -9 -7 -28 -25 -43
-40 l-28 -28 -2 220 c-1 121 0 472 3 780 2 308 4 691 5 850 1 309 -1 293 49
284 13 -3 20 2 23 16 6 40 12 65 16 65 3 0 2 -480 -1 -1067z m-2368 1047 c-3
-5 -15 -10 -26 -10 -11 0 -17 5 -14 10 3 6 15 10 26 10 11 0 17 -4 14 -10z
m45 -85 c0 -50 -4 -85 -10 -85 -6 0 -10 28 -10 63 0 34 -3 72 -6 85 -5 16 -2
22 10 22 13 0 16 -13 16 -85z m2370 -25 c-1 -30 0 -64 1 -75 6 -47 -2 -135
-11 -135 -6 0 -10 60 -9 163 0 116 3 153 10 132 5 -16 9 -55 9 -85z m-2420 55
c0 -14 0 -28 0 -32 0 -13 -33 -9 -37 5 -3 6 2 12 11 12 9 0 16 5 16 10 0 6 -7
10 -15 10 -8 0 -15 5 -15 10 0 6 9 10 20 10 15 0 20 -7 20 -25z m2230 15 c0
-5 -5 -10 -11 -10 -5 0 -7 5 -4 10 3 6 8 10 11 10 2 0 4 -4 4 -10z m-2508 -48
c16 -16 8 -21 -24 -15 -16 3 -28 11 -28 17 0 16 36 14 52 -2z m1004 -8 c-5
-14 -9 -15 -19 -5 -9 9 -9 14 3 21 18 11 24 6 16 -16z m-132 1 c-4 -8 -8 -15
-10 -15 -2 0 -4 7 -4 15 0 8 4 15 10 15 5 0 7 -7 4 -15z m1452 -42 c-3 -3 -13
-3 -22 1 -15 6 -15 8 2 27 l19 21 3 -22 c2 -12 1 -24 -2 -27z m-940 -6 c-1
-12 -11 -24 -20 -25 -14 -3 -16 1 -11 17 6 19 4 21 -19 15 -16 -4 -26 -2 -26
4 0 10 57 21 72 14 4 -2 6 -13 4 -25z m-1386 12 c0 -6 -9 -13 -19 -16 -21 -5
-18 -30 6 -49 11 -9 11 -17 2 -38 -7 -14 -19 -26 -28 -26 -13 1 -12 3 3 15 17
13 18 15 3 15 -25 0 -25 97 1 103 29 8 32 7 32 -4z m295 2 c3 -6 3 -45 -1 -88
-6 -74 -8 -79 -30 -81 -24 -2 -24 0 -24 88 0 89 0 90 24 90 14 0 27 -4 31 -9z
m2245 -31 c0 -5 -19 -10 -42 -10 -32 0 -39 3 -28 10 20 13 70 13 70 0z m-2490
-161 c0 -96 -4 -158 -9 -154 -5 3 -12 1 -16 -5 -3 -5 2 -10 12 -10 17 -1 17
-2 -1 -15 -17 -13 -18 -15 -3 -15 24 0 21 -17 -3 -23 -11 -3 -20 -2 -20 3 0 4
-17 11 -37 15 -30 6 -34 9 -19 14 27 10 30 40 4 33 -17 -4 -19 -2 -13 19 9 29
5 25 33 33 19 6 22 4 22 -18 0 -23 2 -25 19 -14 18 11 22 39 10 63 -3 6 -4 51
-3 100 2 130 3 135 14 135 6 0 10 -60 10 -161z m90 154 c0 -5 -5 -15 -10 -23
-8 -12 -10 -11 -10 8 0 12 5 22 10 22 6 0 10 -3 10 -7z m1256 -40 c-3 -29 -20
-41 -31 -23 -5 9 18 45 32 49 1 1 0 -11 -1 -26z m-1066 13 c0 -3 -4 -8 -10
-11 -5 -3 -10 -1 -10 4 0 6 5 11 10 11 6 0 10 -2 10 -4z m727 -29 c-2 -7 3
-17 12 -24 13 -10 14 -15 4 -32 -7 -12 -13 -35 -14 -53 0 -18 -4 -42 -9 -53
-6 -13 -9 16 -9 83 -1 70 2 101 10 97 5 -4 8 -12 6 -18z m528 13 c4 -6 15 -8
26 -5 14 5 19 2 19 -12 0 -11 6 -25 13 -33 10 -12 9 -12 -5 -1 -15 11 -19 11
-24 -3 -4 -10 -13 -15 -20 -12 -9 3 -14 -2 -14 -14 0 -24 -4 -24 -34 -5 -21
14 -24 14 -36 0 -7 -8 -9 -15 -4 -15 5 0 2 -4 -6 -9 -8 -6 -18 -7 -23 -4 -5 3
-3 9 4 14 11 6 11 11 2 20 -9 9 -16 9 -28 -1 -18 -15 -21 -13 -30 21 -6 23 -2
28 37 47 46 22 113 29 123 12z m472 -42 c-2 -13 -4 -5 -4 17 -1 22 1 32 4 23
2 -10 2 -28 0 -40z m263 42 c0 -5 -9 -10 -20 -10 -11 0 -20 5 -20 10 0 6 9 10
20 10 11 0 20 -4 20 -10z m-1325 -80 c0 -45 -4 -75 -11 -77 -8 -3 -11 22 -11
77 0 55 3 80 11 77 7 -2 11 -32 11 -77z m-830 50 c-3 -5 -11 -10 -16 -10 -6 0
-7 5 -4 10 3 6 11 10 16 10 6 0 7 -4 4 -10z m2348 3 c-7 -2 -21 -2 -30 0 -10
3 -4 5 12 5 17 0 24 -2 18 -5z m-1762 -83 l-9 -45 -1 55 c-1 35 2 51 9 44 6
-6 6 -26 1 -54z m1770 20 c4 -19 4 -39 -1 -45 -4 -5 -11 -20 -14 -32 -6 -20
-4 -23 18 -23 14 0 26 -4 26 -9 0 -18 -55 5 -58 25 -2 10 -8 24 -14 29 -12 11
-6 -48 7 -79 6 -14 4 -17 -11 -14 -10 2 -19 9 -18 16 1 6 2 37 3 67 1 52 3 55
26 55 14 0 25 5 25 10 0 6 -11 10 -25 10 -16 0 -25 6 -25 16 0 11 8 14 27 12
22 -2 29 -10 34 -38z m-2541 10 c0 -5 -6 -10 -14 -10 -8 0 -18 5 -21 10 -3 6
3 10 14 10 12 0 21 -4 21 -10z m353 -126 c2 -109 0 -129 -13 -129 -11 0 -15
-11 -13 -44 1 -24 7 -47 13 -51 8 -5 7 -9 -4 -13 -20 -8 -21 -27 -1 -27 8 0
15 -6 15 -14 0 -9 -7 -12 -20 -9 -12 3 -20 0 -20 -7 0 -6 9 -14 21 -17 20 -6
20 -9 13 -127 -5 -66 -8 -160 -8 -208 1 -49 -2 -88 -6 -88 -13 0 -17 51 -13
145 2 50 3 111 3 137 0 26 4 49 10 53 19 12 11 38 -9 32 -24 -6 -31 16 -31 95
0 36 5 58 13 61 9 4 8 8 -3 16 -13 9 -13 14 -2 31 7 11 10 25 6 31 -3 6 3 13
15 16 23 6 27 23 9 41 -9 9 -9 12 0 12 6 0 11 8 10 18 -3 40 2 185 7 180 3 -3
6 -63 8 -134z m1399 104 c-7 -7 -12 -8 -12 -2 0 14 12 26 19 19 2 -3 -1 -11
-7 -17z m-1567 2 c4 -6 -5 -10 -19 -10 -14 0 -26 5 -26 10 0 6 9 10 19 10 11
0 23 -4 26 -10z m1913 4 c30 -8 28 -22 -2 -17 -29 6 -69 -14 -63 -30 2 -7 23
-12 48 -12 32 0 44 -4 44 -15 0 -11 -9 -14 -33 -12 -32 4 -62 -11 -62 -30 0
-6 16 -7 39 -3 25 4 41 2 46 -5 10 -16 6 -18 -39 -22 -55 -5 -60 -28 -7 -28
31 0 41 -4 41 -16 0 -13 -7 -15 -35 -11 -22 4 -38 1 -42 -6 -12 -18 -53 -38
-63 -32 -6 4 -10 1 -10 -5 0 -7 -7 -9 -16 -6 -8 3 -12 2 -9 -3 3 -5 1 -12 -5
-16 -5 -3 -10 -1 -10 5 0 7 -7 5 -16 -4 -8 -9 -25 -16 -37 -16 -16 0 -18 -3
-9 -12 19 -19 14 -30 -10 -23 -16 6 -20 4 -15 -8 4 -12 2 -14 -10 -10 -13 5
-14 3 -3 -16 11 -21 10 -22 -10 -16 -19 6 -21 4 -15 -14 5 -16 3 -20 -9 -15
-19 7 -22 -12 -3 -20 6 -3 -1 -4 -18 0 -24 4 -28 3 -17 -7 6 -7 12 -20 12 -28
-1 -12 -5 -10 -20 7 -10 12 -21 18 -24 13 -3 -5 1 -14 9 -21 8 -7 15 -17 15
-23 0 -6 -10 -1 -22 10 -22 18 -58 21 -58 4 0 -5 10 -21 23 -37 l22 -29 -27
20 c-15 11 -28 27 -30 35 -3 11 -6 12 -11 3 -4 -6 4 -25 19 -43 15 -17 24 -34
20 -37 -8 -8 -44 25 -51 48 -4 11 -10 17 -15 14 -11 -7 -2 -34 18 -58 8 -9 12
-20 8 -25 -8 -7 -40 27 -49 51 -2 6 -7 9 -11 5 -4 -3 0 -21 9 -38 18 -36 0
-40 -19 -4 -6 10 -12 21 -14 24 -2 3 -9 -3 -16 -12 -7 -10 -27 -21 -45 -24
-25 -5 -31 -3 -31 10 0 10 5 14 11 11 7 -5 8 4 4 28 -4 21 -3 37 4 41 6 4 9 1
5 -7 -3 -8 0 -18 6 -22 8 -5 11 1 8 16 -1 13 -10 24 -18 24 -8 0 -15 7 -15 15
0 8 7 14 16 12 11 -1 18 8 23 29 4 22 10 29 20 26 9 -3 21 4 30 19 12 18 13
24 4 24 -23 1 13 17 126 55 97 33 115 43 153 84 23 25 42 51 43 57 0 12 115
124 145 141 24 13 42 15 73 7z m-1778 -42 c-1 -23 -2 -25 -11 -9 -5 9 -19 17
-29 17 -27 0 -25 18 3 22 31 6 37 1 37 -30z m1390 28 c0 -5 -5 -10 -11 -10
-21 0 -4 -31 29 -51 27 -18 32 -19 32 -5 0 21 17 20 29 -1 12 -23 -12 -41 -48
-35 -21 3 -32 14 -47 48 -10 24 -23 44 -29 45 -5 0 -1 4 10 9 27 12 35 12 35
0z m-1695 -45 c0 -34 -3 -40 -22 -43 -13 -2 -23 2 -23 8 0 8 9 10 23 7 21 -6
21 -6 -3 13 -20 16 -22 20 -7 20 9 0 17 5 17 10 0 6 -7 10 -15 10 -8 0 -15 5
-15 11 0 6 10 9 23 7 19 -3 22 -9 22 -43z m1583 29 c36 -25 25 -35 -13 -13
-19 12 -35 23 -35 25 0 9 27 3 48 -12z m192 6 c0 -5 -7 -10 -15 -10 -8 0 -15
5 -15 10 0 6 7 10 15 10 8 0 15 -4 15 -10z m-278 -14 c40 -3 108 -48 108 -72
0 -11 -7 -9 -32 8 -18 13 -39 29 -46 36 -19 17 -24 15 -17 -8 5 -16 3 -19 -11
-13 -11 4 -15 2 -11 -4 4 -6 27 -16 51 -22 38 -9 46 -16 56 -46 7 -20 9 -42 7
-50 -7 -17 -47 -8 -47 11 0 16 -28 18 -50 4 -12 -7 -8 -10 14 -10 24 0 26 -2
16 -15 -6 -8 -9 -19 -5 -25 10 -16 -6 -12 -26 6 -16 14 -25 15 -64 5 -25 -6
-50 -9 -55 -6 -6 3 -26 -6 -45 -21 -19 -14 -35 -21 -35 -15 0 6 7 14 15 17 8
4 15 12 15 19 0 7 10 16 23 20 20 6 20 8 3 12 -15 4 -16 7 -5 14 10 6 10 9 2
9 -7 0 -13 6 -13 14 0 9 7 12 20 9 11 -3 20 -1 20 5 0 6 -8 13 -17 15 -13 3
-10 5 7 6 23 2 24 3 7 15 -17 13 -17 14 0 20 15 6 15 8 3 16 -24 15 -40 12
-40 -8 0 -10 -7 -27 -15 -38 -14 -18 -14 -18 -14 6 1 61 51 105 109 95 19 -3
52 -7 72 -9z m324 -7 c3 -6 17 -9 30 -6 20 3 24 0 24 -19 0 -13 -4 -24 -10
-24 -5 0 -10 5 -10 10 0 6 -7 10 -15 10 -8 0 -15 4 -15 8 0 5 -10 14 -22 20
-18 8 -19 11 -6 11 9 1 20 -4 24 -10z m-1549 -15 c-3 -3 -12 -4 -19 -1 -8 3
-5 6 6 6 11 1 17 -2 13 -5z m2437 -10 c9 -22 8 -24 -9 -24 -8 0 -15 9 -15 20
0 24 15 27 24 4z m-1060 -21 c-5 -5 -12 -12 -16 -18 -4 -6 -8 -2 -8 8 0 9 7
17 17 17 9 0 12 -3 7 -7z m-1374 -7 c0 -2 -7 -6 -15 -10 -8 -3 -15 -1 -15 4 0
6 7 10 15 10 8 0 15 -2 15 -4z m727 -2 c-3 -3 -12 -4 -19 -1 -8 3 -5 6 6 6 11
1 17 -2 13 -5z m1698 -75 c-3 -13 1 -29 7 -37 8 -8 8 -16 2 -20 -14 -9 -15
-50 -2 -58 7 -4 6 -9 -2 -14 -8 -5 -9 -13 -4 -21 16 -27 13 -59 -5 -59 -17 0
-18 10 -15 123 4 160 4 156 14 130 5 -12 7 -32 5 -44z m-1015 33 c0 -19 39
-72 53 -72 14 0 7 31 -8 36 -8 4 -15 14 -15 24 0 15 6 18 30 15 17 -2 35 -7
40 -10 17 -11 11 -25 -11 -25 -15 0 -19 -5 -14 -19 7 -22 -31 -54 -77 -64 -14
-4 -33 -10 -42 -13 -9 -3 -16 -1 -16 5 0 6 6 11 14 11 7 0 17 10 21 23 4 13 8
17 12 10 8 -21 23 -14 23 10 0 29 -9 40 -24 28 -14 -11 -59 6 -51 19 4 6 16
10 28 8 16 -2 21 2 19 15 -2 9 2 17 8 17 5 0 10 -8 10 -18z m740 3 c17 -9 30
-22 30 -31 0 -11 6 -14 23 -9 18 6 20 5 10 -6 -18 -18 -16 -32 2 -25 20 7 19
-18 -2 -35 -15 -13 -63 -21 -63 -10 0 2 7 13 17 23 10 12 12 18 4 18 -7 0 -9
5 -6 10 4 6 -7 23 -24 39 -45 43 -42 52 9 26z m-2150 -5 c0 -5 -7 -10 -15 -10
-8 0 -15 5 -15 10 0 6 7 10 15 10 8 0 15 -4 15 -10z m425 -37 c8 -7 23 -13 34
-13 12 0 21 -4 21 -10 0 -5 -11 -10 -24 -10 -22 0 -24 -4 -22 -42 3 -37 6 -43
25 -41 26 3 27 -10 4 -33 -13 -13 -14 -19 -5 -22 6 -2 12 -19 12 -37 0 -34
-14 -54 -25 -35 -3 5 -16 11 -28 11 -17 1 -18 2 -4 6 21 5 23 23 2 23 -18 0
-20 16 -2 24 10 5 10 7 0 12 -9 4 -13 36 -12 112 1 59 4 98 6 88 3 -11 11 -26
18 -33z m323 -87 c-3 -70 -15 -107 -25 -79 -2 7 -12 9 -20 6 -13 -5 -15 -2
-10 11 4 10 7 24 7 32 0 8 7 14 16 12 27 -5 28 21 2 31 l-23 10 23 0 c23 1 30
15 12 26 -12 7 -4 25 12 25 6 0 9 -27 6 -74z m542 24 c0 -5 -4 -10 -10 -10 -5
0 -10 5 -10 10 0 6 5 10 10 10 6 0 10 -4 10 -10z m-70 -10 c0 -5 -7 -10 -15
-10 -8 0 -24 -9 -35 -20 -11 -11 -28 -20 -39 -20 -10 0 -35 -11 -55 -25 -21
-14 -42 -22 -48 -19 -7 5 -9 1 -5 -9 7 -19 -1 -47 -13 -47 -5 0 -11 8 -14 18
-2 9 -4 4 -3 -13 1 -16 7 -30 14 -30 20 0 22 -9 11 -58 -9 -46 -28 -65 -28
-29 0 10 -13 32 -30 48 -17 17 -30 40 -30 55 0 36 34 76 71 84 17 4 45 22 60
40 18 20 36 31 47 29 9 -2 31 0 47 5 41 13 65 13 65 1z m622 -12 c-7 -7 -12
-8 -12 -2 0 14 12 26 19 19 2 -3 -1 -11 -7 -17z m438 12 c0 -13 -11 -13 -30 0
-12 8 -11 10 8 10 12 0 22 -4 22 -10z m-2512 -7 c-22 -5 -24 -23 -3 -23 8 0
15 -5 15 -11 0 -6 -7 -9 -15 -5 -8 3 -15 1 -15 -4 0 -6 7 -10 15 -10 23 0 18
-17 -7 -25 l-23 -7 25 -8 25 -7 -25 -11 c-24 -10 -24 -13 3 -16 8 -1 13 -27
15 -87 l3 -85 -36 4 c-21 3 -35 0 -35 -7 0 -6 13 -11 29 -11 24 0 29 -5 33
-27 6 -49 -1 -65 -28 -60 -16 3 -24 0 -24 -9 0 -8 11 -14 25 -14 14 0 25 -4
25 -10 0 -5 -11 -10 -25 -10 -14 0 -25 -6 -25 -14 0 -9 8 -12 25 -8 22 4 25 1
25 -27 0 -24 -4 -31 -20 -31 -11 0 -20 -4 -20 -10 0 -5 9 -10 20 -10 17 0 20
-6 19 -42 -1 -24 -3 -35 -6 -25 -2 9 -12 18 -21 18 -15 1 -15 2 1 6 9 2 17 8
17 13 0 13 -32 21 -45 10 -17 -14 -25 -2 -15 26 6 14 6 26 -1 29 -6 4 -8 67
-5 161 4 154 1 176 -14 112 -7 -28 -8 -24 -9 29 -1 41 3 63 12 66 9 3 9 7 -1
20 -12 14 -11 15 17 7 l31 -9 0 65 c0 63 0 64 28 63 16 -1 20 -3 10 -6z m2112
-29 c0 -21 -4 -33 -10 -29 -17 10 -11 65 7 65 2 0 3 -16 3 -36z m-2165 16 c3
-6 -1 -13 -10 -16 -19 -8 -30 0 -20 15 8 14 22 14 30 1z m252 -22 c-3 -8 -6
-5 -6 6 -1 11 2 17 5 13 3 -3 4 -12 1 -19z m1829 -48 c-4 -45 -2 -70 4 -70 5
0 10 13 10 29 0 17 5 33 12 37 8 5 9 2 5 -10 -4 -9 -9 -78 -12 -154 -3 -75 -8
-153 -11 -172 -6 -39 -33 -90 -47 -90 -12 0 -2 60 16 102 17 37 29 149 18 167
-14 23 -28 -12 -35 -87 -3 -40 -13 -89 -21 -109 -8 -19 -15 -53 -15 -74 0 -22
-4 -39 -10 -39 -12 0 -12 28 1 95 16 90 29 168 44 269 25 169 54 243 41 106z
m-542 35 c-10 -8 -29 -15 -41 -15 -13 0 -23 -6 -23 -14 0 -9 -10 -12 -32 -10
l-31 4 19 -22 c17 -19 17 -21 2 -15 -10 4 -26 10 -35 14 -13 4 -11 -1 7 -22
l25 -27 -34 7 c-23 5 -31 4 -27 -4 4 -6 14 -11 22 -11 8 0 14 -4 14 -9 0 -5
-10 -7 -22 -4 -13 3 -20 2 -16 -2 4 -5 3 -14 -3 -22 -9 -10 -8 -13 5 -13 9 0
16 -4 16 -10 0 -5 -7 -10 -15 -10 -8 0 -15 -4 -15 -10 0 -5 5 -10 10 -10 6 0
10 -4 10 -10 0 -5 -7 -10 -15 -10 -8 0 -15 -4 -15 -10 0 -5 5 -10 10 -10 6 0
10 -4 10 -10 0 -22 -31 -8 -41 18 -11 26 -6 51 26 125 6 13 4 16 -9 11 -23 -9
-20 10 8 43 23 28 99 59 161 66 17 2 34 5 39 6 6 0 1 -6 -10 -14z m1016 5 c0
-5 -9 -10 -21 -10 -11 0 -17 5 -14 10 3 6 13 10 21 10 8 0 14 -4 14 -10z
m-2560 -24 c0 -19 -4 -23 -20 -19 -30 8 -25 43 7 43 7 0 13 -11 13 -24z m1915
-83 c-3 -54 -11 -123 -17 -153 -22 -117 -35 -216 -30 -232 4 -15 -2 -18 -37
-16 -51 2 -57 17 -47 124 6 61 4 74 -7 74 -17 0 -26 -29 -28 -85 l-1 -40 -9
33 c-8 26 -6 47 11 93 11 32 20 77 20 99 0 21 6 43 13 47 7 4 39 41 71 81 32
39 60 72 63 72 3 0 2 -44 -2 -97z m285 10 c0 -25 53 -73 80 -73 10 0 22 -4 25
-10 9 -14 -20 -12 -60 4 -42 18 -62 48 -70 106 -6 44 -6 44 9 20 8 -14 15 -35
16 -47z m-19 -49 c9 -11 8 -14 -4 -14 -17 0 -37 50 -36 89 1 21 4 17 15 -18 7
-24 19 -49 25 -57z m-1155 39 c-11 -11 -19 6 -11 24 8 17 8 17 12 0 3 -10 2
-21 -1 -24z m-756 17 c0 -5 -4 -10 -10 -10 -5 0 -10 5 -10 10 0 6 5 10 10 10
6 0 10 -4 10 -10z m2290 1 c0 -6 -4 -13 -10 -16 -5 -3 -10 1 -10 9 0 9 5 16
10 16 6 0 10 -4 10 -9z m-1545 -112 c11 -4 14 -8 7 -8 -33 -2 -52 20 -51 57
l1 37 11 -39 c7 -22 21 -42 32 -47z m15 56 c0 -14 -4 -25 -10 -25 -11 0 -14
33 -3 43 11 11 13 8 13 -18z m-760 6 c0 -5 -7 -11 -15 -15 -9 -3 -15 0 -15 9
0 8 7 15 15 15 8 0 15 -4 15 -9z m457 -3 c5 -7 6 -24 2 -38 l-7 -25 -7 23 c-4
12 -11 22 -16 22 -5 0 -9 7 -9 15 0 18 24 20 37 3z m1833 2 c0 -5 -9 -10 -21
-10 -11 0 -17 5 -14 10 3 6 13 10 21 10 8 0 14 -4 14 -10z m180 -10 c0 -5 -7
-10 -16 -10 -8 0 -12 5 -9 10 3 6 10 10 16 10 5 0 9 -4 9 -10z m-603 -32 c-3
-8 -6 -5 -6 6 -1 11 2 17 5 13 3 -3 4 -12 1 -19z m-881 -15 c-7 -7 -26 7 -26
19 0 6 6 6 15 -2 9 -7 13 -15 11 -17z m1304 17 c0 -6 -12 -9 -26 -8 -15 2 -29
-3 -31 -9 -3 -9 7 -13 29 -14 27 -1 28 -3 8 -6 -40 -7 -48 -23 -12 -23 22 0
32 -5 32 -16 0 -8 -5 -12 -11 -8 -19 11 -60 -17 -53 -38 4 -13 0 -18 -12 -18
-15 0 -16 8 -11 58 9 84 14 92 53 92 19 0 34 -5 34 -10z m-2287 -6 c9 -10 -4
-34 -19 -34 -8 0 -14 9 -14 20 0 19 19 27 33 14z m2477 2 c0 -2 -7 -6 -15 -10
-8 -3 -15 -1 -15 4 0 6 7 10 15 10 8 0 15 -2 15 -4z m-613 -93 c-2 -16 -4 -3
-4 27 0 30 2 43 4 28 2 -16 2 -40 0 -55z m-1387 43 c0 -19 -6 -25 -30 -28 -16
-3 -30 -1 -30 4 0 4 9 8 20 8 11 0 20 5 20 10 0 6 -12 10 -26 10 -14 0 -23 4
-19 10 3 6 19 10 36 10 24 0 29 -4 29 -24z m1987 -17 c2 -23 -2 -36 -17 -46
-26 -18 -26 -33 0 -33 11 0 20 -4 20 -10 0 -5 -11 -10 -25 -10 -21 0 -25 5
-25 29 0 16 6 31 15 35 10 3 15 19 15 42 0 44 12 38 17 -7z m-1009 -41 c-11
-46 -18 -103 -17 -153 2 -69 0 -80 -15 -77 -9 2 -16 -1 -16 -6 0 -12 -43 -8
-47 5 -2 6 6 13 18 16 17 5 20 10 13 24 -4 10 -10 56 -12 102 l-4 84 42 39
c24 21 46 38 50 38 4 0 -2 -33 -12 -72z m969 50 c-3 -8 -6 -5 -6 6 -1 11 2 17
5 13 3 -3 4 -12 1 -19z m-1667 -18 c0 -25 -4 -30 -24 -30 -14 0 -28 5 -31 10
-3 6 3 10 14 10 12 0 20 3 20 8 -3 18 2 32 11 32 6 0 10 -13 10 -30z m-765 10
c3 -5 1 -10 -4 -10 -6 0 -11 5 -11 10 0 6 2 10 4 10 3 0 8 -4 11 -10z m2180
-167 c0 -98 4 -288 8 -423 10 -300 0 -757 -18 -763 -6 -3 -23 -3 -38 0 l-27 5
5 641 c5 625 6 641 25 654 11 8 20 22 20 32 0 18 8 31 19 31 3 0 6 -80 6 -177z
m-2483 55 c-8 -27 -9 -22 -7 32 4 83 8 95 12 43 2 -22 0 -56 -5 -75z m788 79
c0 -7 -13 -18 -30 -24 -27 -10 -30 -9 -30 7 0 13 9 20 28 23 15 2 28 5 30 6 1
0 2 -5 2 -12z m550 -24 c0 -7 -4 -13 -10 -13 -5 0 -10 12 -10 28 0 21 2 24 10
12 5 -8 10 -21 10 -27z m684 10 c-7 -31 -12 -38 -18 -32 -7 7 6 59 15 59 5 0
6 -12 3 -27z m176 -73 l-11 -25 6 25 c2 14 6 43 7 65 l1 40 4 -40 c2 -23 -1
-52 -7 -65z m-770 81 c0 -12 -20 -25 -27 -18 -7 7 6 27 18 27 5 0 9 -4 9 -9z
m1168 -31 c2 -25 0 -31 -7 -20 -5 8 -7 18 -4 23 3 4 -4 11 -16 14 -28 7 -27
25 2 21 17 -2 23 -10 25 -38z m-1210 10 c10 -12 35 -28 57 -36 l40 -15 -45 6
c-42 5 -80 32 -80 56 0 15 11 10 28 -11z m589 -12 c-3 -8 -6 -5 -6 6 -1 11 2
17 5 13 3 -3 4 -12 1 -19z m-907 8 c0 -11 -19 -15 -25 -6 -3 5 1 10 9 10 9 0
16 -2 16 -4z m-762 -24 c2 -7 -3 -12 -12 -12 -9 0 -16 7 -16 16 0 17 22 14 28
-4z m1331 -29 c-1 -24 -3 -29 -6 -15 -7 33 -18 27 -31 -17 -15 -48 -15 -96 -1
-123 9 -17 8 -19 -7 -16 -18 3 -30 37 -38 110 -4 34 -1 39 30 58 19 12 34 26
34 31 0 5 5 9 10 9 6 0 9 -17 9 -37z m748 -58 c-2 -53 -1 -98 3 -100 4 -2 6
-21 5 -42 -1 -21 -3 -53 -4 -71 -1 -24 -5 -31 -13 -25 -13 7 -18 9 -50 11 -22
2 -24 22 -3 22 8 0 15 5 15 10 0 6 -8 10 -17 10 -21 0 -6 16 22 23 19 5 19 5
-2 12 -28 9 -30 25 -4 25 28 0 25 80 -3 90 -17 6 -18 7 -3 13 24 9 21 27 -5
28 -22 1 -21 2 4 12 27 10 46 49 28 55 -18 6 -10 22 11 22 20 0 20 -4 16 -95z
m-2055 48 c-5 -59 -10 -63 -11 -10 -1 26 3 47 7 47 4 0 6 -17 4 -37z m730 -15
c2 -29 2 -153 0 -275 -2 -183 -5 -221 -16 -217 -8 3 -17 0 -21 -6 -4 -7 2 -14
14 -17 21 -5 21 -6 -4 -19 -48 -25 -57 -11 -53 85 l3 86 31 3 c26 3 31 7 27
23 -3 10 -14 19 -24 19 -11 0 -19 5 -19 10 0 6 9 10 20 10 11 0 20 7 20 15 0
11 -7 14 -25 9 -24 -6 -25 -4 -24 37 1 24 4 34 6 21 5 -24 28 -40 41 -28 3 4
0 12 -8 17 -9 6 -11 12 -5 15 13 5 10 81 -3 97 -5 7 -13 27 -17 45 -6 31 -5
33 14 27 16 -5 20 -3 15 9 -3 9 -12 16 -20 16 -8 0 -14 5 -14 10 0 6 7 10 15
10 21 0 19 20 -2 20 -16 1 -16 2 1 15 35 26 45 18 48 -37z m292 36 c9 -24 7
-27 -9 -10 -17 17 -19 26 -6 26 5 0 12 -7 15 -16z m1183 10 c-3 -3 -12 -4 -19
-1 -8 3 -5 6 6 6 11 1 17 -2 13 -5z m-370 -51 c-3 -10 -5 -2 -5 17 0 19 2 27
5 18 2 -10 2 -26 0 -35z m-1867 -5 c0 -9 -4 -20 -10 -23 -6 -4 -10 9 -10 32 0
28 3 34 10 23 5 -8 10 -23 10 -32z m2260 33 c0 -6 -10 -17 -22 -25 -12 -9 -17
-16 -10 -16 6 0 12 -7 12 -15 0 -8 -9 -15 -20 -15 -17 0 -19 4 -14 28 8 36 54
72 54 43z m40 -6 c0 -8 -4 -15 -10 -15 -5 0 -10 7 -10 15 0 8 5 15 10 15 6 0
10 -7 10 -15z m-1203 -10 c-7 -17 9 -30 18 -15 9 15 25 12 25 -5 0 -10 -10
-15 -29 -15 -35 0 -48 15 -31 35 16 19 24 19 17 0z m-644 -52 c4 -32 8 -67 9
-78 2 -14 -4 -21 -21 -23 -21 -3 -23 -1 -18 20 4 12 7 49 7 81 0 31 4 57 9 57
4 0 11 -26 14 -57z m1214 20 c-3 -10 -5 -4 -5 12 0 17 2 24 5 18 2 -7 2 -21 0
-30z m823 -64 c0 -76 -3 -100 -12 -97 -16 6 -38 -16 -38 -35 0 -16 27 -30 40
-22 5 3 11 1 15 -5 3 -5 -1 -10 -9 -10 -19 0 -21 -16 -3 -23 6 -3 0 -6 -15 -6
-26 -1 -27 -3 -31 -68 -2 -38 -4 -6 -5 70 l-2 137 26 0 c14 0 23 4 19 10 -3 6
-15 10 -26 10 -10 0 -19 5 -19 10 0 6 7 10 16 8 10 -2 19 3 22 10 2 8 -2 12
-13 10 -10 -2 -20 3 -23 11 -3 9 1 11 17 6 12 -4 21 -2 21 4 0 6 -9 11 -20 11
-14 0 -20 7 -20 24 0 22 11 31 58 45 1 1 2 -44 2 -100z m-1265 59 c19 -101 29
-129 46 -139 23 -12 26 -59 4 -59 -8 0 -15 -3 -15 -8 0 -8 -56 -72 -63 -72 -7
0 -8 290 -2 301 12 18 23 9 30 -23z m754 -245 c-1 -278 0 -274 -38 -93 -10 47
0 167 18 229 6 19 8 38 5 42 -5 9 5 79 12 79 2 0 3 -116 3 -257z m-636 205 c6
-47 1 -61 -13 -38 -11 16 -10 80 1 80 3 0 9 -19 12 -42z m956 -248 c0 -160 -4
-288 -8 -285 -14 8 -20 -32 -22 -160 -1 -66 -7 -126 -13 -133 -7 -9 -6 -16 3
-21 9 -6 11 -33 7 -99 -3 -55 -1 -92 5 -92 5 0 9 24 10 53 0 28 4 61 9 72 7
14 9 -1 9 -50 -1 -93 -8 -125 -25 -125 -20 0 -17 -20 4 -21 16 -1 16 -2 0 -6
-23 -6 -23 -21 -1 -25 14 -3 17 -12 14 -53 -1 -27 -8 -54 -14 -58 -9 -6 -9
-10 1 -14 17 -7 15 -38 -3 -53 -8 -7 -13 -15 -10 -19 2 -4 -2 -19 -10 -34 -10
-20 -11 -27 -2 -27 7 0 6 -4 -3 -10 -12 -8 -11 -10 7 -10 18 0 22 -5 19 -22
-2 -17 -10 -24 -32 -25 l-29 -3 25 12 25 12 -27 4 c-27 3 -38 25 -18 37 5 3 8
19 6 35 -2 20 1 30 10 30 8 0 14 5 14 10 0 6 -9 10 -20 10 -11 0 -20 4 -20 9
0 5 8 7 18 5 9 -2 23 0 31 5 13 8 13 12 0 27 -11 13 -11 18 -1 21 6 3 12 11
12 18 0 23 -20 28 -41 9 -17 -16 -19 -16 -19 -1 0 10 7 17 15 17 20 0 19 16
-1 24 -8 3 -12 10 -9 16 4 6 11 8 16 5 5 -4 9 1 9 9 0 9 -7 16 -15 16 -24 0
-17 20 8 21 l22 0 -22 16 c-26 18 -30 43 -8 43 18 0 20 16 3 23 -10 4 -9 8 2
17 12 9 12 13 2 17 -10 4 -9 8 5 19 17 13 17 13 1 14 -22 0 -24 20 -3 20 8 0
15 5 15 10 0 6 -7 10 -16 8 -10 -2 -19 3 -21 10 -3 7 4 12 19 12 21 1 22 2 6
14 -20 15 -24 56 -6 56 9 0 9 3 0 12 -17 17 -15 28 6 28 16 1 16 1 0 14 -22
16 -23 26 -3 26 8 0 15 5 15 10 0 6 -7 10 -15 10 -8 0 -15 5 -15 10 0 6 8 10
18 10 15 1 15 2 -2 12 -19 11 -19 11 -1 24 17 13 17 14 2 14 -23 0 -24 58 -1
67 15 5 15 7 0 15 -20 11 -21 28 -1 28 8 0 15 5 15 10 0 6 -8 10 -17 10 -15 0
-14 2 3 15 17 13 17 14 2 15 -10 0 -18 4 -18 10 0 5 8 14 18 19 16 10 16 10 0
11 -10 0 -18 7 -18 15 0 8 8 15 18 15 16 1 16 1 0 14 -21 15 -24 52 -5 59 10
4 10 7 0 18 -17 18 -16 29 2 29 8 0 15 5 15 10 0 6 -6 10 -12 10 -9 0 -9 3 1
9 8 5 15 21 17 35 2 20 -2 26 -16 26 -10 0 -22 5 -25 10 -3 6 3 10 14 10 12 0
21 5 21 10 0 6 -9 10 -20 10 -22 0 -27 25 -7 34 10 5 10 7 0 12 -18 8 -16 24
2 24 22 0 18 17 -6 23 -21 6 -22 32 -1 32 5 0 14 3 18 8 4 4 -2 7 -14 7 -35 0
-29 37 8 45 16 4 34 3 41 0 6 -5 10 0 9 11 -3 27 -1 34 10 34 5 0 9 -113 9
-290z m-390 251 c-6 -17 -17 -35 -24 -41 -11 -9 -10 -1 3 29 19 47 36 56 21
12z m-1914 -1 c3 -5 1 -10 -4 -10 -6 0 -11 5 -11 10 0 6 2 10 4 10 3 0 8 -4
11 -10z m1170 -50 c5 -42 3 -65 -5 -75 -10 -12 -10 -15 0 -15 7 0 10 -7 6 -16
-4 -9 -2 -22 4 -29 14 -17 2 -45 -21 -45 -10 0 -19 -4 -19 -10 0 -5 9 -10 20
-10 11 0 20 -4 20 -10 0 -5 -7 -10 -15 -10 -8 0 -15 -4 -15 -10 0 -5 7 -10 15
-10 8 0 15 -9 15 -19 0 -18 -2 -19 -27 -6 -18 9 -31 11 -39 4 -15 -12 -44 -1
-44 17 0 8 3 13 8 13 21 -4 30 3 30 26 0 16 -6 25 -17 26 -9 0 -4 6 13 13 32
14 20 32 -14 21 -11 -4 -20 -2 -20 4 0 6 16 11 35 11 19 0 35 5 35 10 0 6 -5
10 -11 10 -8 0 -8 5 1 15 11 13 7 15 -26 16 -36 0 -37 1 -15 10 14 5 31 7 38
5 18 -7 34 35 21 51 -5 7 -7 16 -4 22 8 13 -23 43 -36 35 -7 -4 -8 -2 -4 4 4
7 20 12 36 12 27 0 28 -2 35 -60z m772 38 c-3 -8 -6 -5 -6 6 -1 11 2 17 5 13
3 -3 4 -12 1 -19z m-437 -24 c0 -14 -4 -22 -10 -19 -5 3 -10 17 -10 31 0 14 4
22 10 19 6 -3 10 -17 10 -31z m-1461 -36 c-1 -38 -3 -46 -8 -28 -7 24 -3 80 5
80 2 0 4 -24 3 -52z m1071 42 c-8 -5 -24 -9 -35 -9 -16 1 -16 2 5 9 35 11 48
11 30 0z m706 -17 c-10 -10 -19 5 -10 18 6 11 8 11 12 0 2 -7 1 -15 -2 -18z
m-2105 -56 c-4 -87 -11 -85 -11 3 0 40 3 70 7 67 3 -4 5 -35 4 -70z m289 49
c0 -8 -4 -18 -10 -21 -5 -3 -10 3 -10 14 0 12 5 21 10 21 6 0 10 -6 10 -14z
m1110 -6 c-8 -5 -24 -9 -35 -9 -16 1 -16 2 5 9 35 11 48 11 30 0z m0 -30 c-8
-5 -22 -9 -30 -9 -10 0 -8 3 5 9 27 12 43 12 25 0z m-1123 -22 c-3 -8 -6 -5
-6 6 -1 11 2 17 5 13 3 -3 4 -12 1 -19z m473 4 c0 -4 -9 -8 -20 -9 -11 -1 -20
2 -20 8 0 5 9 9 20 9 11 0 20 -4 20 -8z m886 -19 c-10 -10 -19 5 -10 18 6 11
8 11 12 0 2 -7 1 -15 -2 -18z m-1565 -43 c4 0 10 10 12 23 2 12 5 -6 6 -40 1
-53 -1 -61 -16 -57 -10 2 -25 0 -33 -6 -13 -9 -13 -11 0 -20 10 -6 11 -10 3
-10 -7 0 -13 -4 -13 -10 0 -5 11 -10 25 -10 14 0 25 -4 25 -10 0 -5 -7 -10
-15 -10 -8 0 -15 -9 -15 -20 0 -13 -9 -22 -25 -26 -14 -3 -25 -10 -25 -15 0
-13 24 -11 38 3 9 9 12 7 12 -9 0 -16 -5 -19 -24 -16 -21 4 -24 0 -30 -38 -5
-32 -3 -46 7 -54 8 -5 17 -20 21 -33 5 -15 15 -22 32 -22 20 0 24 -5 24 -32 0
-29 -1 -30 -13 -14 -11 15 -15 15 -24 4 -23 -29 -25 -56 -4 -63 12 -3 25 -3
31 0 5 3 10 -1 10 -10 0 -12 -5 -15 -17 -10 -29 12 -46 11 -50 -2 -3 -9 7 -13
34 -13 l38 0 -35 -19 -35 -18 0 -199 c0 -110 -4 -209 -8 -220 -5 -14 -3 -27 6
-35 25 -26 25 -45 2 -67 -32 -31 -30 -95 3 -100 12 -2 23 -11 24 -20 0 -9 1
-24 2 -32 1 -8 8 -15 16 -15 8 0 16 -8 18 -17 3 -14 -3 -18 -28 -18 -28 0 -31
-3 -28 -28 3 -23 7 -27 31 -24 15 2 27 -1 27 -7 0 -6 -11 -11 -25 -11 -15 0
-25 -6 -25 -14 0 -16 -34 -31 -49 -21 -24 14 -5 1335 19 1343 6 2 10 16 10 31
0 15 6 33 13 40 10 10 15 8 26 -8 7 -12 17 -21 22 -21z m1769 20 c0 -11 -4
-20 -10 -20 -5 0 -10 9 -10 20 0 11 5 20 10 20 6 0 10 -9 10 -20z m-1513 -28
c3 -31 1 -32 -25 -26 -35 9 -41 14 -14 14 13 0 22 6 22 15 0 8 -9 15 -20 15
-11 0 -20 5 -20 10 0 6 12 9 27 7 23 -3 28 -9 30 -35z m1470 6 c-3 -7 -5 -2
-5 12 0 14 2 19 5 13 2 -7 2 -19 0 -25z m983 22 c0 -5 -7 -10 -15 -10 -8 0
-15 5 -15 10 0 6 7 10 15 10 8 0 15 -4 15 -10z m-1393 -6 c-3 -3 -12 -4 -19
-1 -8 3 -5 6 6 6 11 1 17 -2 13 -5z m370 -26 c-3 -7 -5 -2 -5 12 0 14 2 19 5
13 2 -7 2 -19 0 -25z m443 -8 c0 -11 -4 -20 -9 -20 -5 0 -7 9 -4 20 3 11 7 20
9 20 2 0 4 -9 4 -20z m-1470 -54 c0 -24 4 -46 9 -48 6 -2 -7 -140 -19 -183 -1
-5 -2 -25 -1 -42 1 -35 25 -45 49 -21 9 9 12 -4 12 -61 0 -48 -4 -70 -11 -66
-5 4 -9 17 -8 28 4 52 -1 67 -21 67 -25 0 -25 -9 -2 -26 16 -12 16 -13 0 -14
-15 0 -15 -3 -3 -27 8 -15 12 -31 8 -35 -3 -5 4 -12 16 -15 16 -4 21 -13 21
-38 0 -20 -5 -32 -12 -31 -7 0 -14 -3 -15 -9 -1 -5 5 -9 13 -7 8 2 14 -4 14
-13 0 -9 -9 -15 -25 -15 -14 0 -25 -5 -25 -11 0 -7 10 -9 25 -7 22 5 25 2 25
-23 0 -18 -5 -29 -14 -29 -24 0 -41 -32 -42 -81 -1 -39 2 -49 16 -49 13 0 15
8 12 36 -3 26 -1 35 7 30 6 -4 9 -11 6 -15 -2 -5 0 -22 4 -39 8 -25 6 -31 -10
-35 -10 -3 -19 -10 -19 -16 0 -6 7 -8 15 -5 8 4 15 1 15 -5 0 -6 -9 -11 -20
-11 -15 0 -19 -6 -17 -22 1 -14 -3 -22 -10 -21 -7 2 -13 -6 -13 -17 0 -16 7
-20 33 -20 l32 -1 -25 -14 -25 -14 24 -1 c24 0 24 -1 6 -14 -17 -12 -17 -16
-5 -30 7 -10 9 -16 4 -15 -21 4 -34 -2 -34 -16 0 -8 8 -16 18 -16 16 -1 16 -2
0 -6 -27 -7 -23 -49 4 -56 21 -6 18 -22 -4 -22 -6 0 -12 -19 -13 -43 -2 -37 0
-42 16 -37 14 5 19 1 19 -14 0 -12 -6 -21 -12 -22 -10 0 -10 -2 0 -6 6 -2 12
-9 12 -14 0 -6 -4 -8 -9 -4 -5 3 -12 1 -16 -5 -3 -5 -1 -10 6 -10 10 0 10 -3
1 -12 -18 -18 -15 -28 11 -38 18 -7 15 -9 -20 -9 -41 -1 -56 13 -35 33 4 4 8
12 8 17 1 5 2 10 3 12 2 1 4 13 7 26 3 17 1 22 -11 18 -13 -5 -14 29 -9 276 8
459 13 786 13 885 1 54 5 92 11 92 6 0 10 -20 10 -44z m1297 12 c2 -40 9 -111
20 -198 8 -76 7 -107 -9 -137 -11 -22 -4 -73 11 -73 12 0 25 93 24 170 -1 57
-11 208 -16 233 -1 5 3 11 10 14 7 3 14 -13 18 -44 3 -26 13 -74 22 -105 10
-38 13 -62 6 -70 -5 -7 -10 -44 -12 -83 -1 -38 -6 -83 -11 -100 -18 -64 -19
-93 -5 -105 11 -9 12 -17 5 -30 -6 -10 -10 -28 -10 -39 0 -17 -25 -41 -43 -41
-2 0 -2 32 1 70 3 48 1 70 -7 70 -6 0 -11 -8 -11 -17 0 -10 -7 -27 -15 -37 -8
-10 -12 -22 -10 -27 3 -4 1 -19 -5 -34 -8 -22 -15 -26 -42 -23 -40 4 -44 19
-29 108 6 36 18 119 27 185 9 66 20 143 25 170 4 28 11 76 15 107 5 40 12 58
23 61 9 3 16 5 16 6 0 0 1 -14 2 -31z m91 8 c-7 -8 -15 -12 -17 -11 -5 6 10
25 20 25 5 0 4 -6 -3 -14z m60 -9 c9 -7 9 -13 1 -23 -10 -12 -14 -10 -25 12
-8 14 -14 28 -14 31 0 5 18 -5 38 -20z m167 12 c4 -6 5 -12 3 -14 -7 -7 -48 7
-48 16 0 13 37 11 45 -2z m-2020 -31 c-3 -17 -10 -35 -17 -39 -9 -6 -8 -12 5
-26 16 -19 14 -55 -5 -79 -5 -7 -3 -14 7 -18 23 -9 18 -28 -7 -24 -17 2 -24
11 -26 33 -2 16 -8 33 -14 36 -6 4 -7 28 -3 63 6 46 11 56 26 56 27 0 24 18
-3 23 -17 3 -15 5 9 6 30 1 31 -1 28 -31z m2450 2 c-3 -5 -10 -10 -16 -10 -5
0 -9 5 -9 10 0 6 7 10 16 10 8 0 12 -4 9 -10z m-425 -10 c0 -5 -4 -10 -10 -10
-5 0 -10 5 -10 10 0 6 5 10 10 10 6 0 10 -4 10 -10z m38 -156 c3 -188 -3 -254
-24 -254 -8 0 -14 -4 -14 -10 0 -5 7 -10 15 -10 8 0 15 -4 15 -10 0 -5 -7 -10
-15 -10 -8 0 -15 -4 -15 -10 0 -5 10 -10 22 -10 16 0 19 -3 11 -11 -20 -20
-50 7 -57 50 -3 21 -9 47 -12 56 -6 13 -2 16 19 13 14 -1 26 0 27 5 0 4 0 27
0 52 0 44 -1 45 -31 45 -17 0 -28 4 -24 10 3 6 17 10 31 10 13 0 24 5 24 10 0
6 -4 10 -10 10 -5 0 -9 6 -7 12 1 7 -8 14 -20 16 -35 5 -27 20 10 18 l32 -1 1
85 c2 101 2 100 12 100 4 0 9 -75 10 -166z m137 156 c-3 -5 -10 -10 -16 -10
-5 0 -9 5 -9 10 0 6 7 10 16 10 8 0 12 -4 9 -10z m-385 -46 c0 -13 -4 -24 -10
-24 -5 0 -10 14 -10 31 0 17 4 28 10 24 6 -3 10 -17 10 -31z m637 30 c-3 -3
-12 -4 -19 -1 -8 3 -5 6 6 6 11 1 17 -2 13 -5z m-435 -56 c5 -65 1 -78 -23
-78 -26 0 -24 16 4 25 l22 8 -22 4 c-25 5 -30 18 -10 27 10 5 10 7 0 12 -7 3
-13 10 -13 15 0 6 4 8 9 4 5 -3 12 -1 16 4 3 5 -3 14 -12 20 -16 9 -16 10 4
11 18 0 22 -7 25 -52z m-151 2 c10 -7 29 -136 27 -187 0 -22 8 -56 20 -79 13
-26 23 -67 25 -108 5 -66 11 -86 23 -73 6 6 -10 136 -21 173 -4 11 0 9 8 -6 8
-14 24 -57 35 -96 l20 -72 -29 -21 c-16 -12 -30 -17 -34 -11 -9 15 -25 12 -25
-5 0 -21 -47 -19 -59 2 -7 14 -12 15 -24 5 -20 -17 -34 3 -17 23 8 9 8 20 2
32 -12 23 -14 101 -2 108 4 3 15 -14 22 -37 8 -23 20 -44 26 -46 17 -5 15 38
-4 83 -20 48 -29 181 -19 281 5 43 10 70 13 59 2 -11 8 -22 13 -25z m589 30
c0 -5 -8 -14 -17 -19 -17 -10 -17 -10 0 -11 9 0 17 -7 17 -15 0 -19 -29 -20
-36 -1 -6 17 12 56 26 56 6 0 10 -4 10 -10z m-2405 -31 c10 -15 -1 -23 -20
-15 -9 3 -13 10 -10 16 8 13 22 13 30 -1z m990 -8 c3 -5 1 -12 -5 -16 -5 -3
-10 1 -10 9 0 18 6 21 15 7z m541 -18 c-10 -10 -19 5 -10 18 6 11 8 11 12 0 2
-7 1 -15 -2 -18z m-486 7 c0 -5 -4 -10 -10 -10 -5 0 -10 5 -10 10 0 6 5 10 10
10 6 0 10 -4 10 -10z m17 -35 c-5 -15 -44 -18 -49 -3 -4 9 4 13 23 13 16 0 28
-4 26 -10z m1321 -34 c-6 -2 -5 -7 3 -12 10 -6 8 -12 -10 -29 -14 -11 -21 -23
-16 -28 4 -4 10 -1 12 6 6 14 33 16 33 2 0 -6 -11 -16 -25 -22 -14 -6 -25 -17
-25 -25 0 -19 17 -16 29 4 5 10 13 14 17 10 5 -5 2 -12 -6 -17 -13 -8 -12 -11
4 -23 29 -21 17 -51 -22 -55 -24 -2 -32 1 -32 12 0 9 7 16 15 16 8 0 15 5 15
10 0 6 -7 10 -15 10 -20 0 -22 116 -2 123 10 4 10 7 0 18 -7 7 -13 21 -13 30
0 15 3 15 25 -4 13 -12 19 -24 13 -26z m17 39 c-3 -5 -10 -10 -16 -10 -5 0 -9
5 -9 10 0 6 7 10 16 10 8 0 12 -4 9 -10z m-2395 -10 c0 -5 -6 -10 -14 -10 -8
0 -18 5 -21 10 -3 6 3 10 14 10 12 0 21 -4 21 -10z m1044 -26 c38 9 31 -3 -11
-21 -21 -9 -32 -18 -25 -20 16 -6 15 -23 -2 -23 -7 0 -20 -8 -27 -17 -12 -15
-12 -16 6 -9 45 18 58 19 53 5 -3 -8 -10 -14 -15 -14 -20 0 -27 -15 -7 -15 16
-1 14 -5 -11 -25 -26 -22 -27 -29 -4 -27 4 1 5 -13 3 -30 -4 -33 -14 -52 -14
-26 0 9 -6 21 -14 27 -17 14 -21 128 -5 147 9 11 9 14 -1 14 -9 0 -10 4 -2 13
6 7 8 24 5 38 l-6 24 26 -24 c19 -17 33 -22 51 -17z m-645 -46 c1 -32 -1 -35
-20 -31 -14 4 -18 10 -13 22 4 9 9 32 12 51 4 29 6 32 13 15 4 -11 8 -36 8
-57z m-399 32 c0 -5 -6 -10 -14 -10 -8 0 -18 5 -21 10 -3 6 3 10 14 10 12 0
21 -4 21 -10z m1491 -117 c-6 -53 -9 -98 -6 -101 2 -3 -1 -12 -8 -20 -9 -12
-9 -16 1 -19 17 -6 15 -23 -3 -23 -9 0 -15 -10 -16 -27 -1 -16 -3 -21 -6 -11
-4 15 17 195 34 288 12 68 15 7 4 -87z m-1566 91 c13 -5 14 -9 4 -15 -9 -5 -4
-10 17 -14 16 -4 34 -8 39 -10 13 -3 8 -285 -6 -285 -5 0 -9 7 -9 15 0 8 -5
15 -10 15 -6 0 -9 -18 -8 -40 2 -30 7 -40 21 -40 19 0 20 -1 11 -24 -6 -14
-11 -13 -40 9 -24 18 -41 24 -55 20 -17 -6 -20 -3 -17 12 2 10 9 19 16 19 6 1
17 2 22 3 19 2 10 21 -10 21 -11 0 -20 5 -20 10 0 6 10 10 23 10 26 1 57 22
57 39 0 9 -12 11 -41 6 -32 -6 -40 -4 -37 6 3 8 15 14 29 14 25 0 33 27 16 52
-5 7 -6 17 -2 23 4 6 -4 10 -19 10 -25 0 -26 2 -26 69 0 46 4 71 13 74 6 3 13
6 14 6 1 1 9 -2 18 -5z m1948 -64 l6 -65 -14 54 c-7 29 -11 60 -8 68 8 21 10
14 16 -57z m-1886 54 c-3 -3 -12 -4 -19 -1 -8 3 -5 6 6 6 11 1 17 -2 13 -5z
m677 -23 c3 -5 -1 -11 -9 -15 -18 -7 -20 -26 -2 -26 9 0 11 -12 9 -40 -3 -26
-9 -40 -18 -40 -8 0 -14 -10 -14 -25 0 -16 6 -25 15 -25 8 0 15 -4 15 -10 0
-5 -9 -10 -19 -10 -11 0 -23 5 -26 10 -10 15 -23 12 -28 -7 -3 -10 -5 3 -6 30
0 26 3 47 8 47 13 0 20 49 9 56 -6 4 -5 10 3 16 11 7 11 11 2 15 -20 8 -15 21
10 26 39 7 46 7 51 -2z m1090 -33 c4 -17 2 -28 -4 -28 -5 0 -10 14 -10 32 0
36 4 35 14 -4z m-2061 -5 c-7 -2 -21 -2 -30 0 -10 3 -4 5 12 5 17 0 24 -2 18
-5z m2274 -19 c-3 -3 -12 -4 -19 -1 -8 3 -5 6 6 6 11 1 17 -2 13 -5z m240 -36
c-3 -8 -6 -5 -6 6 -1 11 2 17 5 13 3 -3 4 -12 1 -19z m-821 -20 c-3 -18 -6
-77 -7 -130 -2 -54 -7 -98 -12 -98 -8 0 0 236 10 253 10 17 15 5 9 -25z m557
25 c-7 -2 -21 -2 -30 0 -10 3 -4 5 12 5 17 0 24 -2 18 -5z m-183 -27 c0 -8 -7
-19 -15 -26 -16 -13 -18 -8 -9 27 6 23 24 22 24 -1z m-2060 -26 c0 -5 -6 -10
-14 -10 -8 0 -18 5 -21 10 -3 6 3 10 14 10 12 0 21 -4 21 -10z m2508 -127 c0
-103 -2 -127 -9 -93 -12 70 -8 230 6 230 2 0 3 -62 3 -137z m160 116 c-2 -6
-8 -10 -13 -10 -5 0 -11 4 -13 10 -2 6 4 11 13 11 9 0 15 -5 13 -11z m-641
-56 c-3 -10 -5 -2 -5 17 0 19 2 27 5 18 2 -10 2 -26 0 -35z m671 2 c7 -6 -11
-34 -19 -29 -5 3 -10 -41 -11 -100 -1 -58 -2 -119 -2 -136 -1 -16 3 -31 8 -32
6 -2 11 28 13 67 6 99 13 94 13 -9 0 -87 0 -88 -22 -82 -13 3 -26 6 -30 6 -10
0 -11 324 -2 333 5 5 37 -6 52 -18z m-1754 -1 c9 -3 16 -10 16 -15 0 -4 -6 -6
-14 -3 -11 4 -13 0 -9 -15 3 -12 9 -21 14 -21 5 0 9 -5 9 -10 0 -6 -7 -10 -16
-8 -25 4 -27 -43 -2 -50 17 -4 19 -15 17 -124 -1 -103 -4 -123 -20 -139 -15
-15 -16 -19 -4 -19 8 0 15 -4 15 -10 0 -5 -4 -10 -10 -10 -5 0 -10 -4 -10 -10
0 -5 7 -10 15 -10 24 0 17 -20 -7 -21 -23 0 -23 0 -2 -9 25 -10 31 -60 8 -60
-16 0 -19 -17 -4 -22 9 -3 13 -77 9 -173 -1 -16 0 -32 1 -35 1 -3 4 -26 5 -52
3 -51 -10 -62 -39 -33 -8 8 -19 15 -25 15 -6 0 -11 11 -11 25 0 20 5 25 25 25
14 0 25 6 25 14 0 9 -8 12 -25 8 -14 -2 -25 0 -25 6 0 5 11 13 25 16 31 8 33
28 3 23 -13 -2 -17 -2 -10 0 6 3 12 8 12 13 0 5 -6 11 -12 13 -7 3 -3 6 10 6
32 1 27 21 -5 22 l-28 2 28 4 c15 2 27 8 27 13 0 5 -12 11 -27 13 -27 4 -27 4
-5 12 25 8 30 25 7 25 -8 0 -15 4 -15 9 0 5 7 11 15 15 22 8 18 26 -5 26 -11
0 -20 4 -20 9 0 5 9 11 20 14 11 3 20 10 20 15 0 6 -9 8 -20 5 -26 -7 -27 22
-2 36 16 10 16 10 0 11 -10 0 -18 3 -18 6 0 4 8 13 18 20 16 13 16 13 0 14
-22 0 -24 20 -3 20 18 0 20 16 3 24 -9 3 -8 8 5 16 20 13 23 38 5 45 -23 9
-18 52 8 64 20 9 24 18 24 57 0 46 0 46 -30 41 -32 -7 -41 8 -18 31 9 9 9 12
0 12 -7 0 -12 7 -12 15 0 8 7 15 16 15 10 0 14 6 11 15 -4 8 -2 17 3 20 18 11
10 23 -12 17 -20 -5 -20 -4 -7 11 15 18 29 20 53 11z m1351 -74 c-3 -5 -10
-10 -16 -10 -5 0 -9 5 -9 10 0 6 7 10 16 10 8 0 12 -4 9 -10z m-548 -47 c-3
-10 -5 -2 -5 17 0 19 2 27 5 18 2 -10 2 -26 0 -35z m950 15 c-3 -7 -5 -2 -5
12 0 14 2 19 5 13 2 -7 2 -19 0 -25z m-395 -10 c-10 -10 -44 0 -37 12 3 5 14
6 26 3 12 -3 17 -9 11 -15z m-2308 -84 c-4 -87 -8 -104 -25 -104 -12 0 -12 67
1 75 6 4 7 28 4 61 -6 45 -4 54 9 54 13 0 15 -13 11 -86z m1301 66 c3 -5 1
-10 -4 -10 -6 0 -11 5 -11 10 0 6 2 10 4 10 3 0 8 -4 11 -10z m255 -35 c30
-10 18 -17 -14 -9 -20 5 -26 12 -25 33 0 25 1 25 9 4 5 -12 18 -24 30 -28z
m748 25 c6 0 12 -4 12 -9 0 -5 -15 -8 -32 -7 -48 4 -50 5 -42 17 3 6 16 8 28
5 11 -3 27 -6 34 -6z m-2099 -47 c0 -61 2 -71 16 -83 21 -18 48 -8 56 20 6 23
7 22 8 -8 1 -20 -3 -31 -9 -27 -5 3 -10 1 -10 -6 0 -7 -7 -21 -17 -31 -15 -17
-15 -18 5 -18 11 0 23 8 25 18 3 9 5 -21 6 -67 0 -46 -2 -81 -6 -78 -3 4 -5
29 -4 57 1 38 -2 50 -13 50 -20 0 -28 -15 -29 -56 -1 -21 5 -39 13 -45 12 -7
9 -9 -9 -9 -38 0 -11 -21 28 -22 29 -1 40 -21 13 -24 -25 -3 -26 -5 -8 -19 11
-8 14 -15 8 -15 -7 0 -12 -9 -12 -20 0 -12 7 -20 16 -20 9 0 14 -7 12 -17 -5
-28 -31 -21 -39 10 -4 16 -13 34 -18 41 -6 8 -9 21 -5 30 4 12 0 16 -15 16
-26 0 -27 -14 -2 -48 10 -15 21 -39 24 -54 6 -23 4 -25 -13 -21 -23 6 -25 14
-9 30 8 8 6 15 -10 25 -20 12 -21 20 -21 214 0 174 3 214 16 214 1 0 3 -17 3
-37z m1481 27 c0 -5 -4 -10 -10 -10 -5 0 -10 5 -10 10 0 6 5 10 10 10 6 0 10
-4 10 -10z m60 -51 c-6 -19 -10 -53 -10 -76 0 -23 -5 -45 -11 -48 -7 -5 -8 8
-3 41 4 27 8 67 9 89 3 58 5 62 15 44 6 -10 6 -29 0 -50z m426 45 c-3 -8 -10
-65 -16 -127 -6 -61 -20 -141 -32 -176 -18 -55 -22 -62 -33 -48 -18 25 -20 22
-20 -30 0 -27 -5 -57 -9 -67 -8 -16 -6 -18 7 -13 17 6 25 -18 30 -87 1 -16 8
-31 16 -34 10 -3 12 2 9 23 -5 24 -4 25 9 12 13 -13 13 -18 -2 -40 -27 -43
-64 -49 -152 -26 -42 10 -87 26 -100 34 -22 15 -23 20 -16 68 4 29 6 104 4
167 -2 63 -5 164 -5 224 l-1 109 45 11 c25 6 96 12 158 12 93 1 112 -1 108
-12z m-828 -40 c3 -28 3 -28 -12 -9 -19 24 -21 48 -3 43 6 -3 13 -18 15 -34z
m270 2 c37 -1 73 -6 81 -10 12 -8 11 -43 -5 -136 -2 -14 -8 -52 -13 -85 -37
-228 -49 -296 -53 -300 -2 -3 -24 1 -49 8 -31 9 -48 21 -57 40 -19 40 -26 90
-17 134 7 35 8 36 16 15 5 -12 15 -25 24 -28 10 -4 15 -20 15 -47 0 -31 3 -38
12 -29 13 13 14 47 4 147 -8 75 -12 88 -27 79 -15 -9 -36 53 -48 139 -6 43
-11 81 -11 84 0 2 14 2 31 -2 17 -4 61 -8 97 -9z m222 -70 c0 -40 3 -100 6
-133 6 -57 5 -60 -17 -66 -37 -10 -42 5 -30 84 6 41 13 100 16 132 9 81 25 71
25 -17z m420 64 c0 -5 -7 -10 -15 -10 -8 0 -15 5 -15 10 0 6 7 10 15 10 8 0
15 -4 15 -10z m-788 -54 c3 -26 11 -61 17 -78 6 -17 11 -53 11 -81 0 -46 -1
-49 -22 -43 -13 3 -34 6 -47 6 l-24 0 6 98 c6 104 19 156 40 149 6 -2 15 -25
19 -51z m713 -182 c-18 -28 -41 -33 -30 -6 4 9 14 60 21 112 7 52 14 102 16
110 1 8 4 -32 5 -89 3 -81 0 -109 -12 -127z m122 210 c-3 -3 -12 -4 -19 -1 -8
3 -5 6 6 6 11 1 17 -2 13 -5z m-50 -10 c-3 -3 -12 -4 -19 -1 -8 3 -5 6 6 6 11
1 17 -2 13 -5z m-897 -24 c0 -11 7 -20 15 -20 9 0 12 -6 8 -16 -3 -8 -11 -13
-17 -11 -6 2 -21 1 -33 -4 -17 -6 -23 -16 -23 -41 0 -21 -3 -29 -10 -22 -14
14 -1 74 16 74 8 0 15 7 15 15 1 8 3 20 4 25 1 6 3 12 4 15 3 15 21 2 21 -15z
m950 -9 c0 -28 -10 -31 -53 -18 -46 15 -47 24 -4 30 17 2 38 5 45 5 6 1 12 -7
12 -17z m-2302 -43 c-6 -17 -38 -19 -38 -2 0 8 9 14 21 14 11 0 19 -5 17 -12z
m2257 2 c4 -6 -5 -10 -19 -10 -14 0 -26 5 -26 10 0 6 9 10 19 10 11 0 23 -4
26 -10z m-1737 -36 c12 -8 22 -25 22 -38 0 -12 12 -33 26 -47 l25 -24 -2 -197
-3 -198 -132 0 -132 0 -6 73 c-3 39 -7 127 -9 193 l-2 121 45 21 c25 12 65 41
90 66 24 25 47 46 50 46 3 0 16 -7 28 -16z m2177 6 c-3 -5 -17 -10 -31 -10
-13 0 -24 5 -24 10 0 6 14 10 31 10 17 0 28 -4 24 -10z m-1322 -20 c3 -11 2
-20 -3 -20 -4 0 -10 9 -13 20 -3 11 -2 20 3 20 4 0 10 -9 13 -20z m908 10 c37
-21 23 -40 -28 -39 -30 1 -37 4 -20 6 34 5 36 23 2 23 -14 0 -25 5 -25 10 0
13 46 13 71 0z m-2281 -20 c0 -11 -7 -20 -15 -20 -8 0 -15 -7 -15 -15 0 -8 7
-15 15 -15 8 0 15 -9 15 -20 0 -13 -7 -20 -20 -20 -17 0 -20 7 -20 48 0 27 3
52 7 55 13 14 33 6 33 -13z m2617 -237 c-3 -131 -6 -239 -6 -240 -1 -2 -19 -3
-41 -3 -37 0 -39 2 -46 37 -4 20 -4 112 -1 204 l6 166 33 35 c60 64 60 64 55
-199z m-903 212 c-6 -16 -24 -21 -24 -7 0 11 11 22 21 22 5 0 6 -7 3 -15z
m969 8 c-7 -2 -19 -2 -25 0 -7 3 -2 5 12 5 14 0 19 -2 13 -5z m-1523 -28 c19
-14 47 -25 62 -25 15 0 28 -4 28 -10 0 -5 -12 -10 -26 -10 -14 0 -33 -4 -42
-9 -9 -4 -59 -11 -109 -15 -87 -5 -93 -5 -93 13 0 14 11 23 38 32 20 6 48 20
62 30 33 24 40 24 80 -6z m-1040 -6 c22 -12 38 -25 35 -29 -4 -6 -114 -3 -121
4 -1 0 -5 11 -8 24 -7 19 -4 22 23 22 17 0 49 -9 71 -21z m1253 0 c-16 -16
-93 -18 -93 -3 0 7 14 14 33 16 42 4 71 -2 60 -13z m927 2 c0 -11 -39 -21 -45
-11 -2 4 -2 10 2 14 10 9 43 7 43 -3z m395 -30 c4 -32 -7 -47 -26 -35 -8 4 -8
9 0 17 15 15 14 27 -4 27 -21 0 -19 18 3 22 22 6 23 5 27 -31z m-965 4 c0 -8
-7 -15 -15 -15 -14 0 -20 -30 -18 -87 1 -12 -5 -24 -13 -27 -28 -11 -8 106 23
129 23 18 23 18 23 0z m500 5 c0 -5 -7 -10 -15 -10 -8 0 -15 5 -15 10 0 6 7
10 15 10 8 0 15 -4 15 -10z m-1372 -39 c-4 -30 -20 -30 -84 0 -22 10 -47 20
-55 21 -8 1 15 4 51 7 82 8 92 5 88 -28z m684 -13 c2 -20 1 -35 -3 -33 -10 7
-20 66 -12 78 8 13 10 6 15 -45z m-175 36 c-3 -3 -12 -4 -19 -1 -8 3 -5 6 6 6
11 1 17 -2 13 -5z m1016 -4 c17 0 18 -13 15 -192 l-3 -193 -36 -3 -36 -3 0
201 c0 201 0 202 21 196 11 -3 29 -6 39 -6z m-2243 -20 c18 -10 19 -44 11
-337 l-1 -33 -59 0 -58 0 -6 58 c-12 113 -9 320 5 326 17 7 85 -2 108 -14z
m2160 3 c0 -12 -8 -18 -25 -18 -17 0 -25 6 -25 18 0 12 8 17 25 17 17 0 25 -5
25 -17z m-820 -3 c0 -5 -14 -7 -32 -3 -46 8 -48 13 -5 13 21 0 37 -4 37 -10z
m-650 -40 l30 0 0 -165 0 -165 -69 0 -69 0 -11 49 c-10 46 -6 295 5 312 3 5
23 0 44 -11 22 -11 53 -20 70 -20z m420 10 c0 -35 -2 -35 -57 -13 l-41 18 31
11 c55 20 67 17 67 -16z m105 -10 c0 -26 -4 -40 -12 -40 -8 0 -13 14 -13 40 0
26 5 40 13 40 8 0 12 -14 12 -40z m489 3 c6 -44 -5 -118 -18 -118 -5 0 -13 13
-17 28 -4 16 -14 35 -21 44 -7 9 -13 28 -14 44 -1 23 3 29 25 32 14 2 29 5 33
6 3 0 9 -16 12 -36z m386 27 c0 -5 -4 -10 -10 -10 -5 0 -10 5 -10 10 0 6 5 10
10 10 6 0 10 -4 10 -10z m-1114 -25 c-21 -16 -44 -19 -70 -9 -29 11 -6 24 42
24 44 -1 46 -2 28 -15z m352 -17 c3 -25 0 -28 -27 -28 -31 0 -41 13 -33 43 3
13 12 17 31 15 20 -2 27 -9 29 -30z m1216 16 c4 -9 2 -22 -3 -28 -5 -6 -8 -26
-6 -43 1 -21 -3 -33 -11 -33 -8 0 -14 -17 -17 -42 -2 -24 -4 -7 -5 39 -2 70 0
81 13 77 9 -4 15 0 15 10 0 9 -7 16 -15 16 -8 0 -15 5 -15 10 0 17 37 11 44
-6z m-498 -55 c-3 -34 -6 -77 -6 -96 l0 -34 -32 38 c-18 21 -37 41 -42 45 -16
11 13 88 37 98 47 19 50 14 43 -51z m-2195 38 c-1 -4 -1 -17 -1 -29 0 -27 -5
-21 -14 15 -5 20 -3 28 4 25 6 -2 11 -7 11 -11z m2269 -77 c0 -72 -3 -92 -15
-97 -21 -7 -33 6 -16 16 9 6 10 11 2 15 -6 4 -15 4 -21 1 -5 -3 -10 1 -10 9 0
10 9 16 25 16 24 0 25 2 25 65 0 36 2 65 5 65 3 0 5 -41 5 -90z m37 43 c-4
-17 -4 -17 -12 0 -4 9 -4 25 0 35 8 16 8 16 12 0 3 -10 3 -26 0 -35z m-1111
22 c10 -8 29 -15 41 -15 20 0 22 -4 19 -32 -2 -18 -4 -84 -5 -145 l-1 -113
-125 0 -124 0 -6 33 c-3 17 -7 86 -8 152 l-2 120 72 -3 c42 -2 74 1 78 8 9 14
38 12 61 -5z m1044 5 c0 -5 -4 -10 -10 -10 -5 0 -10 5 -10 10 0 6 5 10 10 10
6 0 10 -4 10 -10z m-940 -20 c0 -11 -4 -20 -10 -20 -5 0 -10 9 -10 20 0 11 5
20 10 20 6 0 10 -9 10 -20z m-1330 -10 c0 -5 -4 -10 -10 -10 -5 0 -10 5 -10
10 0 6 5 10 10 10 6 0 10 -4 10 -10z m710 -20 c0 -5 -2 -10 -4 -10 -3 0 -8 5
-11 10 -3 6 -1 10 4 10 6 0 11 -4 11 -10z m710 -37 c0 -41 -1 -43 -30 -43 -29
0 -30 2 -30 45 0 43 1 44 30 42 28 -2 30 -4 30 -44z m90 34 c0 -7 -9 -23 -21
-36 -20 -21 -21 -29 -14 -122 l7 -99 -27 0 -27 0 7 93 c11 173 12 177 46 177
17 0 29 -5 29 -13z m-185 -17 c3 -5 1 -10 -4 -10 -6 0 -11 5 -11 10 0 6 2 10
4 10 3 0 8 -4 11 -10z m1020 0 c3 -5 -1 -10 -9 -10 -9 0 -16 5 -16 10 0 6 4
10 9 10 6 0 13 -4 16 -10z m-605 -53 c0 -4 -8 -7 -17 -5 -12 2 -18 -5 -19 -24
-3 -25 1 -28 27 -28 16 0 29 -4 29 -9 0 -6 -15 -9 -32 -8 -29 2 -33 -1 -30
-20 2 -13 -2 -23 -9 -23 -11 0 -7 76 8 137 4 20 6 20 24 5 10 -9 19 -20 19
-25z m-1705 23 c3 -5 -1 -10 -10 -10 -9 0 -13 5 -10 10 3 6 8 10 10 10 2 0 7
-4 10 -10z m2307 -15 c0 -5 -5 -11 -11 -13 -6 -2 -11 4 -11 13 0 9 5 15 11 13
6 -2 11 -8 11 -13z m388 -6 c0 -5 -4 -9 -10 -9 -5 0 -10 7 -10 16 0 8 5 12 10
9 6 -3 10 -10 10 -16z m-2484 -88 c-4 -64 -2 -73 17 -86 21 -15 21 -15 -4 -15
-23 0 -27 5 -33 38 -3 20 -6 65 -6 100 0 56 2 62 15 49 11 -12 14 -33 11 -86z
m31 62 c-3 -10 -5 -4 -5 12 0 17 2 24 5 18 2 -7 2 -21 0 -30z m53 2 c0 -8 -7
-15 -15 -15 -16 0 -20 12 -8 23 11 12 23 8 23 -8z m1037 -64 c-13 -5 -15 2 -9
39 l6 35 6 -35 c3 -19 1 -37 -3 -39z m225 9 c22 -6 47 -9 55 -6 12 5 14 -1 9
-31 -3 -21 -8 -59 -12 -86 -6 -44 -8 -47 -35 -45 -22 2 -31 9 -39 33 -10 27
-12 28 -24 13 -21 -28 -34 -6 -45 75 -16 113 -16 113 19 83 17 -14 49 -30 72
-36z m1143 40 c3 -5 -1 -10 -9 -10 -9 0 -16 5 -16 10 0 6 4 10 9 10 6 0 13 -4
16 -10z m-393 -12 c3 -7 3 -26 2 -43 -1 -16 -3 -42 -3 -56 -1 -24 -4 -26 -48
-26 -46 0 -47 0 -18 10 39 13 45 23 45 80 0 44 12 63 22 35z m-2012 -18 c0 -5
-9 -10 -20 -10 -11 0 -20 5 -20 10 0 6 9 10 20 10 11 0 20 -4 20 -10z m1963
-1 c7 0 3 -4 -8 -9 -29 -13 -35 -12 -35 6 0 11 5 14 16 10 9 -3 21 -6 27 -7z
m437 -9 c0 -5 -4 -10 -10 -10 -5 0 -10 -7 -10 -15 0 -8 7 -15 15 -15 8 0 15
-4 15 -10 0 -5 -7 -10 -15 -10 -8 0 -15 -4 -15 -10 0 -5 7 -10 15 -10 8 0 15
-4 15 -10 0 -5 -13 -10 -30 -10 -29 0 -30 1 -30 49 0 39 4 51 18 54 29 8 32 7
32 -3z m-1320 -20 c0 -16 -6 -20 -32 -19 -32 2 -32 2 -5 6 20 3 27 9 23 19 -3
8 -1 14 4 14 6 0 10 -9 10 -20z m790 9 c0 -5 -15 -24 -32 -41 l-33 -30 30 6
30 6 -35 -31 c-19 -17 -27 -28 -17 -25 20 6 22 -4 5 -23 -11 -11 -9 -12 9 -7
20 6 22 3 25 -36 l4 -43 12 29 c8 19 17 26 28 22 9 -3 144 -6 300 -6 l284 0
-2 -366 -3 -366 -1483 -5 -1482 -5 2 372 3 373 850 1 849 1 8 -35 c5 -19 11
-82 14 -140 6 -124 -6 -155 -79 -207 -58 -41 -139 -128 -151 -161 -7 -20 -5
-28 9 -38 10 -7 22 -11 26 -8 4 2 40 7 80 9 45 3 78 10 89 20 9 8 20 15 25 15
7 0 2 -65 -11 -114 -5 -20 -1 -24 33 -33 21 -5 46 -7 55 -5 29 6 49 50 60 137
10 75 14 84 35 90 39 9 51 42 44 120 -6 63 -6 140 0 140 1 0 7 47 13 105 13
119 24 132 76 83 26 -25 30 -37 39 -118 7 -58 7 -113 1 -155 -16 -108 -13
-150 13 -176 12 -13 29 -32 38 -43 9 -10 36 -22 60 -26 23 -4 49 -13 56 -20
17 -17 103 -28 153 -20 l40 7 -6 51 c-6 43 -14 57 -56 98 -26 25 -48 51 -48
57 0 6 -8 18 -17 28 -14 13 -18 36 -20 101 0 47 -4 87 -6 90 -3 3 5 24 19 48
30 55 31 67 2 57 -13 -5 -56 -10 -95 -11 -60 -2 -74 0 -79 13 -4 11 -13 14
-25 11 -16 -5 -19 -1 -21 27 0 18 -1 40 0 50 1 9 -5 22 -13 28 -17 14 -21 35
-5 25 6 -3 10 -2 10 3 0 6 -7 13 -16 16 -8 3 -13 10 -9 15 3 6 12 8 20 4 9 -3
21 -1 28 5 11 10 100 -6 127 -23 17 -11 92 16 114 41 24 27 26 28 26 13z
m-880 -9 c0 -5 -4 -10 -10 -10 -5 0 -10 5 -10 10 0 6 5 10 10 10 6 0 10 -4 10
-10z m600 0 c13 -8 13 -10 -2 -10 -9 0 -20 5 -23 10 -8 13 5 13 25 0z m-1897
-7 c-7 -2 -19 -2 -25 0 -7 3 -2 5 12 5 14 0 19 -2 13 -5z m1737 -3 c0 -5 -7
-10 -16 -10 -8 0 -12 5 -9 10 3 6 10 10 16 10 5 0 9 -4 9 -10z m540 -12 c0
-13 -8 -18 -29 -18 -23 0 -28 4 -25 18 3 10 15 17 30 17 16 0 24 -6 24 -17z
m230 -28 c0 -22 -4 -40 -10 -40 -5 0 -9 6 -7 13 1 7 -7 11 -20 10 -13 -2 -23
2 -23 7 0 6 11 10 25 10 34 0 32 20 -2 21 l-28 1 25 8 c39 13 40 12 40 -30z
m-2204 20 c9 0 14 -11 14 -30 0 -20 -5 -30 -15 -30 -17 0 -20 16 -5 25 18 11
10 25 -15 25 -14 0 -25 5 -25 11 0 6 7 8 16 5 9 -3 22 -6 30 -6z m1012 -12
c-2 -7 10 -14 26 -17 17 -3 29 -9 28 -13 -3 -10 -4 -11 -26 -2 -12 5 -21 3
-24 -4 -6 -20 -29 -13 -35 10 -3 12 -4 25 -1 30 8 13 34 9 32 -4z m72 2 c0 -5
-4 -10 -10 -10 -5 0 -10 5 -10 10 0 6 5 10 10 10 6 0 10 -4 10 -10z m314 -7
c-26 -3 -31 -9 -31 -29 0 -19 5 -24 23 -24 13 0 24 -4 24 -9 0 -6 -11 -9 -24
-8 -14 1 -24 -2 -24 -8 1 -5 9 -9 19 -7 9 2 20 -2 24 -8 5 -7 0 -11 -11 -10
-62 7 -69 -14 -9 -23 l30 -4 -32 -2 c-26 -1 -33 -5 -33 -21 0 -15 7 -20 28
-21 l27 -2 -26 -4 c-16 -2 -29 -12 -32 -24 -4 -16 1 -21 24 -26 16 -3 26 -9
23 -14 -3 -5 -16 -6 -30 -3 -14 4 -24 2 -24 -5 0 -6 11 -11 25 -11 14 0 25 -4
25 -10 0 -5 -13 -10 -29 -10 -24 0 -28 -4 -24 -19 3 -10 0 -22 -6 -25 -6 -4
-11 -27 -11 -51 0 -24 -4 -47 -10 -50 -16 -10 -11 -57 8 -71 16 -12 16 -15 -1
-45 -13 -23 -15 -35 -7 -44 8 -10 7 -16 -3 -22 -8 -4 -17 -25 -20 -46 -5 -30
-3 -37 11 -38 11 0 8 -4 -8 -10 -24 -10 -24 -11 -6 -25 19 -13 19 -14 1 -34
-38 -42 -40 -25 -19 125 2 17 15 124 29 240 13 116 30 254 37 308 l12 97 41
-2 c34 -1 36 -2 9 -5z m19 -30 c-7 -2 -19 -2 -25 0 -7 3 -2 5 12 5 14 0 19 -2
13 -5z m162 -33 c3 -5 2 -10 -4 -10 -5 0 -13 5 -16 10 -3 6 -2 10 4 10 5 0 13
-4 16 -10z m-399 -15 c17 -13 -84 -14 -818 -15 -460 0 -839 4 -842 9 -3 4 -4
10 -2 12 3 2 373 5 824 6 702 2 821 1 838 -12z m394 -15 c0 -5 -4 -10 -10 -10
-5 0 -10 5 -10 10 0 6 5 10 10 10 6 0 10 -4 10 -10z m-271 -87 c-1 -80 -23
-224 -34 -224 -14 1 -19 76 -6 98 6 11 6 24 0 35 -5 9 -12 44 -16 78 l-6 60
32 0 c31 0 31 -1 30 -47z m491 -13 c0 -5 -4 -10 -10 -10 -5 0 -10 5 -10 10 0
6 5 10 10 10 6 0 10 -4 10 -10z m-397 -17 c-7 -2 -19 -2 -25 0 -7 3 -2 5 12 5
14 0 19 -2 13 -5z m317 -16 c0 -4 10 -12 23 -17 17 -7 18 -9 5 -9 -25 -1 -23
-21 2 -21 27 0 25 -19 -2 -29 -23 -9 -23 -9 5 -20 32 -12 33 -19 10 -37 -11
-8 -13 -13 -5 -14 14 0 17 -40 2 -40 -5 0 -10 -9 -10 -20 0 -12 5 -17 13 -14
19 7 41 -22 42 -54 0 -20 7 -27 30 -34 46 -11 83 -56 87 -103 3 -39 2 -40 -34
-49 -31 -8 -48 -5 -100 17 -35 15 -72 27 -83 27 -32 0 -62 27 -76 68 -6 20
-16 43 -21 49 -11 14 -5 96 14 177 8 39 8 50 -3 57 -12 8 -11 11 4 20 9 6 15
15 11 21 -4 6 1 8 15 3 28 -9 27 9 -1 22 -20 9 -16 11 24 9 27 0 48 -5 48 -9z
m-308 -109 c-6 -6 -7 0 -4 19 5 21 7 23 10 9 2 -10 0 -22 -6 -28z m-32 -38 c0
-5 -5 -10 -11 -10 -5 0 -7 5 -4 10 3 6 8 10 11 10 2 0 4 -4 4 -10z m50 -20 c0
-20 -5 -30 -15 -30 -10 0 -15 10 -15 30 0 20 5 30 15 30 10 0 15 -10 15 -30z
m-50 -20 c0 -5 -2 -10 -4 -10 -3 0 -8 5 -11 10 -3 6 -1 10 4 10 6 0 11 -4 11
-10z m-111 -100 c-11 -61 -18 -79 -48 -110 -29 -31 -49 -40 -105 -53 -39 -9
-73 -14 -78 -11 -19 12 -5 45 31 74 21 17 44 42 51 55 7 13 25 29 39 35 15 6
47 28 71 49 25 22 46 38 48 36 1 -1 -3 -35 -9 -75z m111 70 c0 -5 -5 -10 -11
-10 -5 0 -7 5 -4 10 3 6 8 10 11 10 2 0 4 -4 4 -10z m0 -40 c0 -5 -4 -10 -10
-10 -5 0 -10 5 -10 10 0 6 5 10 10 10 6 0 10 -4 10 -10z m-6 -41 c-3 -5 -10
-7 -15 -3 -5 3 -7 10 -3 15 3 5 10 7 15 3 5 -3 7 -10 3 -15z m-14 -179 c0 -5
-2 -10 -4 -10 -3 0 -8 5 -11 10 -3 6 -1 10 4 10 6 0 11 -4 11 -10z m-10 -40
c0 -5 -4 -10 -10 -10 -5 0 -10 5 -10 10 0 6 5 10 10 10 6 0 10 -4 10 -10z
m-23 -45 c-5 -14 -29 -13 -34 2 -3 7 4 11 16 10 12 -1 20 -6 18 -12z"/>
<g>
<path d="M2300 3921 c0 -10 30 -24 37 -17 3 3 2 9 -2 15 -8 13 -35 15 -35 2z"/>
</g>
<g>
<path d="M178 3569 c-23 -13 -23 -38 -1 -69 10 -14 16 -33 15 -43 -3 -14 2
-18 15 -15 11 2 17 11 15 23 -4 28 -4 36 4 69 9 39 -14 55 -48 35z m32 -29 c0
-5 -4 -10 -10 -10 -5 0 -10 5 -10 10 0 6 5 10 10 10 6 0 10 -4 10 -10z"/>
</g>
<g>
<path d="M146 3491 c-4 -7 -5 -15 -2 -18 9 -9 19 4 14 18 -4 11 -6 11 -12 0z"/>
</g>
<g>
<path d="M1826 3513 c4 -16 15 -35 25 -43 15 -12 18 -23 13 -48 -4 -20 -2 -38
7 -48 11 -13 10 -17 -3 -25 -15 -8 -15 -12 -1 -39 14 -29 50 -44 40 -16 -4 10
0 12 14 9 28 -8 25 23 -3 31 -22 6 -22 7 -5 20 25 19 21 36 -8 36 -30 0 -29
-2 -8 73 18 67 13 77 -45 77 -30 0 -32 -2 -26 -27z"/>
</g>
<g>
<path d="M1946 3517 c-14 -11 -13 -16 10 -44 17 -22 34 -33 51 -33 15 0 23 3
19 8 -8 7 -13 8 -42 11 -13 1 -14 4 -4 16 16 19 25 19 44 -1 15 -14 17 -14 22
1 8 21 -2 31 -48 43 -26 7 -41 7 -52 -1z"/>
</g>
<g>
<path d="M2640 2760 c0 -5 5 -10 10 -10 6 0 10 5 10 10 0 6 -4 10 -10 10 -5 0
-10 -4 -10 -10z"/>
</g>
<g>
<path d="M440 3310 c0 -5 5 -10 10 -10 6 0 10 5 10 10 0 6 -4 10 -10 10 -5 0
-10 -4 -10 -10z"/>
</g>
<g>
<path d="M440 3274 c0 -8 5 -12 10 -9 6 4 8 11 5 16 -9 14 -15 11 -15 -7z"/>
</g>
<g>
<path d="M436 3214 c-9 -22 -8 -24 9 -24 8 0 15 6 15 14 0 22 -17 28 -24 10z"/>
</g>
<g>
<path d="M470 2704 c0 -17 22 -14 28 4 2 7 -3 12 -12 12 -9 0 -16 -7 -16 -16z"/>
</g>
<g>
<path d="M1575 3100 c-3 -5 3 -10 14 -10 12 0 21 5 21 10 0 6 -6 10 -14 10 -8
0 -18 -4 -21 -10z"/>
</g>
<g>
<path d="M1670 3030 c0 -5 6 -10 14 -10 8 0 23 -3 33 -6 16 -5 16 -4 -1 10
-22 18 -46 21 -46 6z"/>
</g>
<g>
<path d="M1675 3000 c-3 -4 16 -14 40 -23 59 -19 67 -6 9 15 -24 8 -46 12 -49
8z"/>
</g>
<g>
<path d="M1410 2740 c0 -15 33 -80 41 -80 3 0 -1 20 -10 45 -14 41 -31 60 -31
35z"/>
</g>
<g>
<path d="M175 2740 c3 -5 13 -10 21 -10 8 0 14 5 14 10 0 6 -9 10 -21 10 -11
0 -17 -4 -14 -10z"/>
</g>
<g>
<path d="M165 2690 c3 -5 15 -10 26 -10 10 0 19 5 19 10 0 6 -12 10 -26 10
-14 0 -23 -4 -19 -10z"/>
</g>
<g>
<path d="M160 2651 c0 -5 10 -12 23 -14 l22 -4 -22 -2 c-30 -1 -30 -21 0 -21
30 0 36 6 30 31 -5 19 -53 28 -53 10z"/>
</g>
<g>
<path d="M177 2549 c4 -12 0 -25 -8 -30 -8 -5 -9 -9 -4 -10 6 0 18 -2 28 -4
13 -3 17 4 17 31 0 27 -4 34 -19 34 -15 0 -18 -5 -14 -21z"/>
</g>
<g>
<path d="M170 2394 c0 -8 9 -14 20 -14 11 0 20 4 20 9 0 5 -9 11 -20 14 -13 3
-20 0 -20 -9z"/>
</g>
<g>
<path d="M1127 2074 c-4 -4 -4 -10 -2 -14 6 -10 45 0 45 11 0 10 -33 12 -43 3z"/>
</g>
<g>
<path d="M1122 2010 c0 -16 4 -30 10 -30 5 0 8 7 5 15 -4 8 -2 17 3 20 15 9
12 25 -3 25 -9 0 -14 -12 -15 -30z"/>
</g>
<g>
<path d="M155 2209 c-13 -19 6 -49 31 -49 13 0 24 5 24 10 0 6 -7 10 -15 10
-8 0 -12 6 -9 14 6 16 -22 30 -31 15z"/>
</g>
<g>
<path d="M877 1674 c-8 -8 1 -24 14 -24 5 0 9 7 9 15 0 15 -12 20 -23 9z"/>
</g>
<g>
<path d="M860 1540 c0 -5 9 -10 20 -10 11 0 20 5 20 10 0 6 -9 10 -20 10 -11
0 -20 -4 -20 -10z"/>
</g>
<g>
<path d="M2460 1750 c0 -5 5 -10 10 -10 6 0 10 5 10 10 0 6 -4 10 -10 10 -5 0
-10 -4 -10 -10z"/>
</g>
<g>
<path d="M430 1870 c0 -5 14 -10 30 -10 17 0 30 5 30 10 0 6 -13 10 -30 10
-16 0 -30 -4 -30 -10z"/>
</g>
<g>
<path d="M1130 1810 c0 -13 5 -18 15 -14 8 4 15 12 15 20 0 8 -7 14 -15 14 -8
0 -15 -9 -15 -20z"/>
</g>
<g>
<path d="M1100 1766 c0 -9 5 -16 10 -16 6 0 10 4 10 9 0 6 -4 13 -10 16 -5 3
-10 -1 -10 -9z"/>
</g>
<g>
<path d="M1140 1394 c0 -8 5 -12 10 -9 6 3 10 10 10 16 0 5 -4 9 -10 9 -5 0
-10 -7 -10 -16z"/>
</g>
<g>
<path d="M1105 890 c3 -5 12 -7 20 -3 21 7 19 13 -6 13 -11 0 -18 -4 -14 -10z"/>
</g>
<g>
<path d="M2113 1158 c2 -18 10 -49 17 -68 40 -105 45 -111 52 -54 3 30 -1 43
-24 68 -17 18 -28 42 -28 58 0 16 -5 28 -11 28 -7 0 -9 -12 -6 -32z"/>
</g>
<g>
<path d="M1550 1070 c-12 -8 -11 -10 8 -10 12 0 22 5 22 10 0 13 -11 13 -30 0z"/>
</g>
<g>
<path d="M1540 1040 c0 -5 9 -10 21 -10 11 0 17 5 14 10 -3 6 -13 10 -21 10
-8 0 -14 -4 -14 -10z"/>
</g>
<g>
<path d="M2240 850 c0 -5 14 -10 30 -10 17 0 30 5 30 10 0 6 -13 10 -30 10
-16 0 -30 -4 -30 -10z"/>
</g>
<g>
<path d="M2295 750 c3 -5 13 -10 21 -10 8 0 14 5 14 10 0 6 -9 10 -21 10 -11
0 -17 -4 -14 -10z"/>
</g>
<g>
<path d="M2780 637 c0 -16 -9 -28 -27 -37 l-28 -12 23 -11 c25 -11 29 -27 8
-27 -25 0 -29 -20 -6 -28 20 -8 22 -16 25 -136 2 -70 6 -130 9 -133 8 -8 10
23 11 137 l0 95 83 3 c74 3 82 5 82 22 0 17 -7 20 -51 20 -31 0 -48 4 -44 10
4 6 -8 10 -29 10 -20 0 -36 5 -36 10 0 6 31 10 73 10 56 1 68 3 54 11 -10 6
-28 9 -38 6 -12 -3 -22 0 -26 9 -3 8 -13 14 -23 14 -11 0 -22 5 -25 10 -3 6 3
10 14 10 12 0 21 7 21 15 0 10 -11 15 -35 15 -30 0 -35 -3 -35 -23z m60 -47
c0 -5 -6 -10 -14 -10 -8 0 -18 5 -21 10 -3 6 3 10 14 10 12 0 21 -4 21 -10z
m95 -79 c-7 -12 -135 -15 -135 -3 0 4 32 9 71 11 49 2 69 -1 64 -8z"/>
</g>
<g>
<path d="M2730 478 c0 -17 18 -44 24 -37 8 7 -5 49 -15 49 -5 0 -9 -6 -9 -12z"/>
</g>
<g>
<path d="M2822 459 c2 -6 8 -10 13 -10 5 0 11 4 13 10 2 6 -4 11 -13 11 -9 0
-15 -5 -13 -11z"/>
</g>
<g>
<path d="M2230 530 c0 -5 5 -10 10 -10 6 0 10 5 10 10 0 6 -4 10 -10 10 -5 0
-10 -4 -10 -10z"/>
</g>
</g>
<g>
<path d="M2991 4634 c0 -11 3 -14 6 -6 3 7 2 16 -1 19 -3 4 -6 -2 -5 -13z"/>
</g>
<g>
<path d="M0 3723 c0 -13 5 -23 10 -23 13 0 13 11 0 30 -8 12 -10 11 -10 -7z"/>
</g>
<g>
<path d="M2990 3133 c0 -104 -3 -558 -6 -1010 -5 -602 -3 -823 5 -823 8 0 11
274 11 1010 0 556 -2 1010 -5 1010 -3 0 -5 -84 -5 -187z"/>
</g>
<g>
<path d="M1780 1960 c0 -11 5 -20 10 -20 6 0 10 9 10 20 0 11 -4 20 -10 20 -5
0 -10 -9 -10 -20z"/>
</g>
</g>
</svg>
