<?xml version="1.0" standalone="no"?>
<!DOCTYPE svg PUBLIC "-//W3C//DTD SVG 20010904//EN"
 "http://www.w3.org/TR/2001/REC-SVG-20010904/DTD/svg10.dtd">
<svg version="1.0" xmlns="http://www.w3.org/2000/svg"
 width="300.000000pt" height="525.000000pt" viewBox="0 0 300.000000 525.000000"
 preserveAspectRatio="xMidYMid meet">
<metadata>
Created by potrace 1.15, written by Peter Selinger 2001-2017
</metadata>
<g transform="translate(0.000000,525.000000) scale(0.100000,-0.100000)"
fill="#000000" stroke="none">
<g>
<path d="M0 3677 c0 -866 3 -2047 7 -2626 l6 -1053 551 6 c303 4 574 6 601 7
28 0 444 -1 925 -1 481 -1 883 2 893 5 13 6 17 19 17 56 0 27 -4 49 -10 49 -5
0 -10 12 -10 28 0 20 3 23 9 13 6 -9 8 802 5 2053 -2 1138 -7 2073 -10 2078
-3 4 -5 222 -5 483 l0 475 -1489 0 -1490 0 0 -1573z m2937 1293 c1 -146 4
-571 6 -945 4 -458 2 -669 -4 -646 -17 55 -39 80 -83 93 -22 6 -45 15 -51 20
-5 4 -30 8 -56 8 l-48 0 6 34 c7 45 -21 126 -55 159 -51 49 -164 45 -237 -8
-22 -17 -39 -21 -67 -18 -43 6 -44 8 -22 62 8 22 14 52 12 68 -5 32 -7 28 -34
-65 -11 -34 -27 -72 -36 -85 -18 -22 -18 -22 -18 17 0 25 6 43 17 51 14 10 15
17 5 41 -9 20 -9 39 -2 63 l9 33 -39 -6 c-22 -3 -40 -3 -40 1 1 11 40 39 68
47 19 6 33 36 17 36 -9 0 -58 -32 -82 -54 -13 -10 -25 -17 -28 -14 -3 3 20 28
50 57 34 31 50 51 40 51 -9 0 -38 -20 -65 -46 -34 -32 -50 -41 -56 -33 -5 9
13 31 50 65 39 35 54 53 45 57 -8 3 -2 6 14 6 32 1 38 -10 57 -111 14 -71 30
-90 30 -37 l0 31 55 -7 c64 -8 79 2 88 58 7 43 1 48 -85 67 -39 9 -58 18 -58
28 0 25 34 226 76 442 9 47 29 162 45 255 30 168 38 218 59 345 6 36 14 81 18
100 l8 35 89 6 c50 3 137 5 195 5 l105 -1 2 -265z m-1587 248 c217 -7 395 -7
673 2 208 7 380 10 383 7 3 -3 -6 -56 -21 -119 -49 -212 -55 -243 -74 -343
-56 -291 -109 -540 -121 -565 -27 -53 -32 -70 -27 -84 11 -29 -26 -37 -104
-24 -70 11 -72 11 -89 -12 l-18 -23 -39 20 c-22 12 -66 26 -98 33 -32 7 -80
18 -106 26 -43 13 -48 18 -63 63 -20 61 -20 65 0 57 9 -3 34 -1 55 6 47 14 84
65 75 102 -9 36 20 42 36 8 16 -33 50 -40 86 -16 15 10 36 18 48 19 12 0 36
15 53 33 18 18 43 35 57 38 13 3 24 11 24 16 0 6 -7 7 -16 4 -9 -3 -22 -6 -29
-6 -7 0 -27 -11 -43 -25 -17 -15 -42 -25 -60 -25 -25 0 -29 3 -25 20 4 13 11
19 22 16 33 -10 146 112 137 148 -4 15 1 26 15 35 12 7 19 15 16 17 -7 8 -64
-23 -89 -48 l-21 -21 6 31 c13 65 -27 102 -88 82 -57 -18 -65 -22 -65 -30 0
-8 -54 -30 -71 -30 -19 0 -7 16 27 38 28 19 34 26 24 35 -10 9 -14 9 -17 0 -3
-7 -10 -13 -17 -13 -22 0 -66 -40 -66 -60 0 -22 19 -30 76 -30 48 0 54 -8 25
-34 -12 -11 -27 -15 -44 -11 -16 4 -35 0 -52 -11 l-27 -17 -38 41 c-21 23 -43
42 -49 42 -6 0 -11 7 -11 16 0 12 -7 14 -32 9 -18 -4 -37 -10 -42 -12 -4 -3
-43 -7 -86 -9 -97 -4 -151 -18 -176 -45 -36 -40 -53 -43 -75 -14 -33 41 -73
56 -150 57 -64 0 -74 -2 -107 -29 -20 -17 -39 -41 -40 -54 -3 -21 2 -18 34 20
l38 44 67 -6 c76 -6 121 -26 145 -63 13 -19 14 -28 5 -37 -15 -15 -14 -70 1
-85 7 -7 9 -12 5 -12 -4 0 -3 -9 3 -20 6 -11 17 -20 25 -20 8 0 28 -27 44 -61
16 -34 37 -69 46 -78 8 -9 26 -32 38 -51 13 -19 32 -37 42 -39 11 -2 26 -8 33
-13 15 -13 16 -48 1 -48 -16 0 -124 -68 -147 -93 -42 -46 -72 -118 -78 -191
-12 -138 -6 -193 26 -263 17 -35 30 -67 30 -70 0 -26 56 -117 81 -132 41 -25
57 -58 60 -128 4 -87 -6 -118 -46 -137 -19 -9 -40 -29 -48 -44 -58 -109 -95
-175 -129 -225 -41 -60 -77 -133 -78 -155 0 -7 12 -18 26 -24 20 -9 24 -17 19
-35 -3 -13 -1 -32 5 -42 7 -14 4 -35 -11 -77 -11 -33 -22 -69 -25 -82 -2 -12
-22 -78 -43 -145 -22 -67 -45 -143 -51 -169 -14 -54 -24 -65 -67 -74 -25 -5
-31 -2 -36 17 -3 12 -2 31 4 41 16 30 -13 32 -66 3 -45 -24 -50 -24 -73 -9
-17 11 -27 13 -35 5 -18 -18 -137 -13 -183 8 -59 27 -101 122 -69 155 16 15
16 19 1 50 -9 19 -16 54 -16 79 0 37 5 49 26 66 14 11 32 17 40 14 10 -3 14 2
14 18 1 28 14 46 57 77 46 32 76 29 90 -8 8 -20 18 -30 32 -30 12 0 21 -6 21
-15 0 -24 18 -17 32 13 11 23 20 27 61 30 59 4 93 -15 113 -65 11 -26 12 -38
4 -48 -8 -10 -8 -19 -1 -34 6 -11 11 -29 11 -40 0 -12 5 -21 11 -21 6 0 9 15
7 37 -2 21 2 38 7 39 6 0 18 4 29 9 14 6 23 2 36 -15 13 -17 18 -19 22 -8 15
37 -60 66 -90 36 -9 -9 -12 -5 -12 20 0 70 -71 128 -143 117 -23 -4 -49 -13
-57 -20 -21 -19 -70 -8 -70 15 0 26 -51 35 -88 16 -16 -8 -43 -29 -58 -47 -16
-17 -35 -36 -43 -43 -70 -58 -88 -101 -70 -172 6 -22 9 -46 9 -54 -1 -8 -3
-40 -4 -71 0 -31 -7 -63 -15 -73 -9 -10 -12 -29 -8 -50 7 -47 -11 -60 -77 -57
-70 3 -128 -21 -175 -75 -90 -102 -85 -263 11 -338 18 -14 28 -26 21 -26 -7 0
-21 -9 -32 -21 -12 -13 -21 -17 -26 -10 -10 16 -81 51 -104 51 -20 0 -21 5
-23 583 -2 320 -2 1148 0 1841 l2 1258 43 -5 c34 -4 796 3 942 10 22 1 173 -3
335 -9z m1125 -5 c-3 -10 -17 -67 -31 -128 -13 -60 -38 -171 -54 -245 -27
-122 -61 -287 -105 -515 -9 -44 -18 -90 -21 -102 -5 -25 -32 -31 -40 -10 -6
16 102 558 152 767 52 216 64 250 87 250 14 0 17 -5 12 -17z m24 -110 c-10
-65 -23 -143 -28 -173 -5 -30 -7 -59 -4 -64 3 -4 0 -11 -6 -15 -6 -4 -13 -25
-15 -47 -6 -64 -26 -181 -51 -309 -13 -66 -32 -162 -41 -212 -17 -85 -20 -92
-39 -87 -11 4 -22 8 -24 11 -10 8 67 400 127 653 12 47 28 124 37 172 19 106
43 188 54 188 4 0 0 -53 -10 -117z m-569 -467 c0 -2 -9 -6 -20 -9 -11 -3 -18
-1 -14 4 5 9 34 13 34 5z m-441 -50 c-11 -9 -69 -14 -69 -6 0 6 17 10 37 10
20 0 34 -2 32 -4z m128 -61 c-18 -38 -48 -54 -112 -61 l-40 -5 48 21 c50 21
96 64 97 90 0 11 3 11 12 2 9 -9 8 -20 -5 -47z m-227 10 c-26 -27 -26 -27 9
-45 17 -8 26 -9 34 -1 6 6 22 11 37 10 24 0 24 -1 3 -9 -12 -5 -21 -15 -19
-22 2 -18 38 -58 51 -58 6 0 23 -14 38 -31 27 -31 35 -59 17 -59 -5 0 -10 -5
-10 -11 0 -21 34 -3 40 21 3 14 10 25 15 25 6 1 27 4 48 9 38 7 38 8 21 27 -9
10 -24 19 -32 19 -12 0 -12 3 -2 15 10 12 10 15 -4 15 -9 0 -16 5 -16 10 0 6
-10 9 -22 7 -13 -2 -17 -2 -10 0 6 3 12 10 12 18 0 7 8 12 17 11 10 0 19 9 23
24 6 21 8 22 14 8 4 -9 3 -25 -3 -37 -16 -28 -14 -34 10 -28 15 4 18 2 10 -7
-14 -17 -1 -29 16 -15 10 9 13 7 13 -9 0 -15 5 -19 20 -15 13 4 20 0 20 -9 0
-25 -33 -46 -82 -53 -51 -8 -63 -21 -25 -28 20 -4 19 -4 -4 -6 -29 -1 -45 -26
-30 -45 4 -6 14 -35 22 -64 17 -69 54 -114 96 -116 17 -1 35 -4 39 -8 14 -14
-7 -58 -36 -75 -17 -9 -30 -21 -30 -25 0 -17 27 -7 59 22 27 25 32 37 29 60
-5 31 11 40 41 21 16 -10 2 -64 -32 -120 -18 -30 -19 -39 -9 -78 15 -53 16
-113 2 -113 -5 0 -10 13 -10 29 0 39 -17 81 -38 97 -12 9 -44 12 -104 9 -63
-3 -91 0 -105 10 -22 17 -33 19 -33 5 0 -6 17 -19 38 -28 30 -14 55 -16 113
-12 83 7 94 1 105 -60 3 -19 13 -45 21 -58 34 -55 58 40 32 128 -10 33 -9 41
15 76 14 22 29 54 32 72 5 23 12 32 23 30 9 -2 16 -10 16 -18 0 -10 9 -14 24
-12 20 2 22 0 11 -13 -10 -12 -10 -15 4 -15 9 0 16 -4 16 -10 0 -5 -5 -10 -10
-10 -7 0 -7 -6 0 -20 11 -21 40 -28 40 -10 0 6 12 9 28 9 18 -1 21 -3 9 -6
-11 -3 -16 -11 -13 -19 3 -8 -1 -14 -11 -14 -13 0 -15 -8 -9 -42 16 -113 19
-168 7 -168 -7 0 -10 3 -8 8 10 16 -18 166 -32 170 -11 4 -13 -3 -7 -34 14
-79 19 -254 8 -254 -7 0 -9 13 -5 34 12 77 -46 361 -69 338 -7 -7 -4 -31 10
-74 12 -37 16 -67 11 -72 -13 -15 -11 -26 6 -26 8 0 15 -7 15 -15 0 -8 -7 -15
-15 -15 -8 0 -15 -4 -15 -10 0 -5 7 -10 15 -10 18 0 19 -12 3 -28 -9 -9 -8
-12 5 -12 9 0 17 -7 17 -15 0 -8 -7 -15 -15 -15 -8 0 -15 -4 -15 -10 0 -5 7
-10 15 -10 8 0 15 -4 15 -10 0 -5 -9 -10 -20 -10 -11 0 -20 -4 -20 -10 0 -5 7
-10 15 -10 8 0 15 -4 15 -10 0 -5 -8 -10 -19 -10 -16 0 -19 11 -24 88 -8 108
-16 152 -30 152 -6 0 -7 -22 -3 -62 16 -141 16 -145 6 -120 -15 37 -30 16 -30
-43 0 -56 12 -77 28 -49 6 10 18 14 38 12 l29 -4 -30 -12 c-16 -7 -37 -15 -45
-19 -24 -10 -50 -10 -56 -1 -3 4 -21 8 -41 8 -23 0 -48 9 -69 25 -18 14 -36
25 -41 25 -5 0 -29 27 -53 61 -58 78 -76 96 -107 104 -14 3 -38 16 -54 28 -24
17 -33 19 -48 10 -10 -7 -28 -9 -38 -7 -15 4 -23 -2 -32 -24 -7 -17 -10 -39
-7 -50 9 -28 -24 -102 -46 -102 -22 0 -33 38 -24 83 4 17 9 57 12 87 6 59 31
120 64 159 14 17 33 24 67 27 43 4 52 1 81 -27 18 -17 36 -28 40 -24 4 4 -13
24 -37 45 -25 21 -41 43 -37 49 12 19 33 12 63 -19 34 -37 80 -53 146 -51 76
1 85 21 10 21 -69 0 -108 12 -140 42 -28 26 -24 77 11 142 13 25 23 46 20 46
-2 0 -27 -16 -54 -36 -57 -41 -89 -41 -108 1 -7 15 -26 43 -42 63 -36 45 -51
102 -27 102 11 0 14 5 10 16 -3 9 -13 14 -24 11 -33 -9 -60 51 -34 76 8 9 15
20 15 26 0 6 7 8 15 5 11 -5 15 2 15 27 1 32 2 33 15 15 8 -10 16 -23 17 -27
6 -16 48 3 48 22 0 21 38 64 48 55 3 -3 -5 -17 -18 -31z m97 19 c-3 -3 -12 -4
-19 -1 -8 3 -5 6 6 6 11 1 17 -2 13 -5z m68 -24 c-3 -5 -12 -10 -20 -10 -8 0
-17 5 -20 10 -4 6 5 10 20 10 15 0 24 -4 20 -10z m-345 -52 c0 -7 -5 -20 -10
-28 -8 -12 -10 -9 -10 13 0 15 5 27 10 27 6 0 10 -6 10 -12z m340 -38 c-8 -5
-22 -9 -30 -9 -10 0 -8 3 5 9 27 12 43 12 25 0z m190 -114 c0 -26 -30 -46 -68
-45 -28 1 -31 3 -12 6 14 3 36 16 49 29 28 28 31 29 31 10z m537 -147 c35 -6
63 -16 63 -21 0 -6 -7 -7 -17 -3 -10 4 -39 11 -65 15 -26 3 -51 9 -55 13 -9 9
0 9 74 -4z m-1 -40 c6 -5 12 -21 12 -34 0 -22 -5 -25 -37 -26 l-36 -1 35 -7
c46 -9 76 -26 61 -35 -6 -4 -19 -2 -30 4 -11 5 -31 10 -45 10 -31 0 -56 9 -56
21 0 5 7 9 15 9 8 0 14 3 13 8 -1 4 2 22 6 40 7 28 11 32 29 26 12 -3 27 -10
33 -15z m-166 -88 c41 -11 65 -19 53 -20 -12 -1 -27 -10 -33 -21 -12 -22 -37
-25 -90 -10 -51 15 -60 23 -53 48 7 27 23 27 123 3z m78 -53 c-16 -5 -28 -16
-28 -24 0 -8 -4 -14 -10 -14 -11 0 -13 11 -4 34 4 10 18 16 38 15 l31 -1 -27
-10z m203 -5 c57 -16 60 -18 54 -42 -4 -14 -10 -29 -14 -34 -11 -12 -101 25
-101 42 0 8 -7 23 -17 33 -15 17 -15 18 1 18 9 0 44 -8 77 -17z m-274 -43 c1
0 0 -21 -2 -47 -2 -27 -4 -58 -4 -70 -1 -13 -7 -23 -14 -23 -15 0 -33 47 -42
112 l-7 47 33 -9 c19 -6 35 -10 36 -10z m-87 -50 c0 -5 -7 -10 -15 -10 -8 0
-15 5 -15 10 0 6 7 10 15 10 8 0 15 -4 15 -10z m0 -36 c0 -2 -7 -4 -15 -4 -8
0 -15 4 -15 10 0 5 7 7 15 4 8 -4 15 -8 15 -10z m3 -31 c-21 -8 -14 -24 9 -21
11 2 23 -2 25 -9 3 -7 -3 -9 -17 -6 -18 5 -20 2 -15 -20 4 -14 2 -28 -4 -31
-6 -4 -11 -4 -12 1 -8 72 -6 93 9 92 11 0 12 -2 5 -6z m131 -14 c-7 -11 -34
-12 -34 -1 0 14 11 21 26 15 8 -3 11 -9 8 -14z m40 -27 c3 -5 -21 -16 -53 -25
-32 -9 -61 -23 -65 -32 -7 -19 -1 -19 27 -1 29 19 112 32 103 17 -4 -6 -25
-14 -47 -17 -37 -6 -57 -19 -47 -30 3 -2 24 3 48 11 29 10 47 12 53 6 7 -7 4
-12 -9 -17 -54 -17 -73 -27 -69 -35 3 -4 21 -1 40 7 21 9 36 10 40 4 6 -10
-30 -28 -69 -34 -11 -2 -23 -11 -25 -22 -6 -33 -34 -67 -80 -95 -49 -32 -81
-26 -81 14 0 30 92 217 108 217 6 0 12 6 12 14 0 20 103 35 114 18z m-768 -32
c67 -32 109 -78 106 -115 -1 -12 12 -37 28 -56 26 -31 30 -33 42 -17 11 15 16
15 31 4 14 -11 16 -19 7 -40 -14 -38 -13 -81 3 -95 16 -13 27 -5 27 20 0 9 7
19 15 23 8 3 15 12 15 21 0 17 -16 20 -25 5 -9 -15 -25 -2 -18 15 6 17 78 21
88 5 3 -6 -1 -17 -9 -26 -20 -19 -20 -33 -2 -40 8 -3 17 -16 20 -30 9 -35 27
-30 19 6 -6 35 17 66 77 104 60 38 66 38 62 0 -3 -22 3 -42 17 -63 l22 -30
-46 -26 c-27 -16 -44 -33 -43 -43 2 -8 -3 -17 -9 -19 -8 -3 -13 4 -13 17 0 18
-3 19 -21 10 -13 -7 -18 -17 -14 -27 6 -17 -10 -33 -32 -33 -7 0 -10 7 -7 15
5 11 0 14 -17 13 -19 -2 -23 1 -21 16 3 17 2 18 -12 7 -20 -17 -20 -40 0 -63
16 -16 15 -18 -2 -25 -11 -4 -24 -13 -30 -21 -7 -10 -18 -12 -33 -7 -18 5 -21
12 -16 35 5 23 2 30 -14 35 -12 4 -30 0 -42 -9 -12 -8 -28 -12 -35 -9 -8 3
-14 1 -14 -5 0 -18 23 -19 52 -3 39 23 46 6 13 -29 -60 -63 -155 -18 -207 98
-21 45 -33 62 -43 58 -15 -5 -19 12 -15 62 1 12 -6 36 -14 54 -9 17 -16 38
-16 46 0 12 -3 12 -15 2 -22 -18 -20 -112 3 -150 10 -16 22 -27 25 -23 4 3 7
-1 7 -10 0 -23 21 -67 32 -67 5 0 7 15 4 33 l-6 32 14 -35 c8 -19 15 -43 15
-52 1 -15 -2 -15 -30 -1 -17 9 -38 30 -46 47 -8 17 -25 51 -38 76 -28 54 -34
144 -10 154 8 3 15 14 15 24 0 11 7 25 15 32 8 7 13 16 10 20 -3 5 -1 12 5 15
6 4 8 21 4 42 -6 33 -5 35 15 28 14 -4 23 -2 27 9 8 21 6 21 80 -14z m574 -64
c0 -8 -4 -17 -9 -21 -12 -7 -24 12 -16 25 9 15 25 12 25 -4z m622 -15 c29 -24
51 -77 51 -122 0 -40 -14 -59 -70 -96 -13 -9 -23 -22 -23 -29 0 -18 17 -18 27
0 24 41 129 59 181 32 15 -7 41 -17 57 -22 44 -13 78 -83 70 -144 -3 -25 -15
-57 -25 -72 -11 -15 -16 -29 -12 -32 13 -8 29 7 45 44 l15 35 2 -55 c5 -200 4
-300 -3 -300 -5 0 -5 -5 -2 -11 6 -8 10 -184 6 -235 -1 -16 -65 -33 -85 -22
-14 8 -15 13 -5 24 17 21 6 27 -24 13 -22 -10 -31 -8 -60 10 -19 12 -38 29
-41 38 -8 19 2 55 18 65 7 5 4 8 -7 8 -10 0 -22 -11 -27 -26 -16 -42 15 -93
67 -113 23 -9 48 -22 55 -29 6 -6 26 -12 42 -12 17 0 41 -3 54 -6 23 -7 23 -8
20 -138 -3 -111 -5 -131 -19 -134 -19 -4 -33 26 -20 42 10 13 14 42 12 104 -1
36 -7 50 -36 79 -20 20 -39 31 -46 27 -8 -4 -4 -11 10 -19 58 -31 80 -128 41
-178 -11 -14 -20 -29 -20 -34 0 -5 -11 -20 -24 -32 -19 -18 -40 -24 -88 -28
-71 -6 -101 5 -152 53 -24 23 -32 25 -47 16 -48 -30 -136 2 -159 57 -18 45
-10 64 39 81 24 8 51 26 60 40 l16 25 -30 -22 c-17 -12 -47 -24 -68 -28 -32
-6 -36 -5 -31 10 6 13 1 16 -22 14 -65 -5 -84 1 -129 44 -45 43 -45 44 -45
113 0 84 17 120 79 165 32 22 57 32 93 35 58 4 88 12 88 25 0 12 -17 12 -25
-1 -10 -16 -106 -12 -124 5 -9 9 -32 26 -51 38 -19 12 -45 42 -58 67 -21 40
-23 54 -18 123 4 55 12 89 26 113 24 38 84 88 120 99 13 4 31 14 39 22 9 10
25 13 44 9 25 -5 28 -4 17 9 -16 20 -50 19 -79 -1 -18 -13 -25 -14 -31 -4 -4
6 -18 10 -31 8 -36 -5 -36 31 1 98 22 42 29 64 25 85 -5 22 -2 29 15 34 12 4
27 2 32 -3 13 -13 36 -5 63 19 55 49 160 60 207 20z m-1042 -72 c0 -6 -4 -7
-10 -4 -5 3 -10 11 -10 16 0 6 5 7 10 4 6 -3 10 -11 10 -16z m595 4 c-4 -10
-10 -26 -12 -35 -3 -10 -12 -18 -19 -18 -19 0 -18 -29 1 -36 24 -9 -1 -47 -26
-39 -11 4 -19 2 -19 -4 0 -6 -4 -11 -10 -11 -16 0 -12 70 4 76 8 3 26 23 40
45 27 39 54 54 41 22z m108 -36 c-9 -16 -24 9 -17 28 7 18 8 18 14 -1 4 -10 5
-23 3 -27z m-43 -6 c23 -18 23 -21 8 -38 -16 -17 -38 -70 -60 -143 -22 -74
-66 -147 -93 -154 -14 -4 -25 -13 -25 -21 0 -20 -7 -19 -32 5 -21 19 -21 20
-2 21 18 0 17 1 -3 16 -31 21 -29 35 5 27 l27 -7 -22 25 c-32 35 -28 41 11 17
22 -13 37 -16 41 -9 3 5 2 10 -4 10 -14 0 -71 50 -71 63 0 6 13 -2 29 -17 21
-20 36 -27 57 -24 26 4 27 5 9 12 -45 18 -62 28 -74 48 -17 28 -6 35 16 10 21
-23 63 -39 63 -23 0 6 -6 11 -14 11 -15 0 -76 64 -76 80 0 17 13 11 39 -19 35
-39 71 -46 105 -20 23 18 26 27 26 85 0 35 3 64 8 64 4 0 18 -9 32 -19z m-943
-73 c-2 -13 -4 -3 -4 22 0 25 2 35 4 23 2 -13 2 -33 0 -45z m963 -106 c-1 -9
-30 -43 -52 -60 -15 -12 -15 -10 -1 37 14 43 19 49 35 40 10 -5 18 -13 18 -17z
m-332 -6 c-22 -16 -23 -26 -3 -26 8 0 15 -4 15 -10 0 -5 -9 -10 -20 -10 -11 0
-20 -6 -20 -14 0 -9 7 -12 21 -9 16 4 20 2 17 -8 -2 -7 -19 -16 -36 -20 -20
-4 -29 -3 -26 3 4 6 0 14 -7 19 -11 7 -11 11 4 21 16 12 23 29 26 61 1 4 11 7
24 7 20 -1 21 -2 5 -14z m-80 -57 c-2 -6 -8 -10 -13 -10 -5 0 -11 4 -13 10 -2
6 4 11 13 11 9 0 15 -5 13 -11z m-46 -71 c-2 -38 -8 -68 -14 -68 -5 0 -7 12
-3 29 8 37 -12 51 -25 17 -5 -14 -11 -70 -13 -126 -2 -55 -6 -102 -9 -105 -2
-3 -19 -1 -36 4 -18 5 -32 6 -32 1 0 -4 -11 -11 -25 -14 -31 -8 -67 10 -119
58 -21 20 -45 36 -53 36 -9 0 -13 8 -12 23 2 12 -1 28 -5 36 -6 10 -5 12 2 7
21 -13 13 15 -10 33 -21 18 -21 18 12 13 23 -3 31 -1 26 7 -4 6 -13 11 -20 11
-8 0 -19 6 -25 14 -10 12 -4 12 36 -1 26 -9 65 -18 86 -21 33 -4 39 -1 44 17
5 18 11 21 34 16 33 -8 90 17 134 57 16 15 30 26 30 25 0 -1 -1 -32 -3 -69z
m43 33 c3 -5 1 -12 -5 -16 -5 -3 -10 1 -10 9 0 18 6 21 15 7z m75 -28 c0 -3
-8 -12 -17 -19 -17 -12 -17 -13 0 -19 23 -10 22 -25 -3 -25 -21 0 -25 16 -14
57 4 13 11 20 20 16 8 -3 14 -8 14 -10z m35 -51 c-4 -26 -10 -41 -12 -34 -3 7
-2 34 2 60 4 26 10 41 12 34 3 -7 2 -34 -2 -60z m197 -32 c-3 -52 0 -91 8
-112 14 -35 72 -112 104 -139 19 -16 19 -17 -23 -43 -53 -34 -80 -90 -81 -167
0 -95 70 -176 165 -189 39 -5 40 -6 43 -49 5 -73 49 -118 131 -136 21 -5 42
-2 58 6 22 12 26 11 35 -5 16 -28 87 -56 146 -56 50 0 96 14 134 42 14 10 21
8 42 -15 21 -22 26 -38 26 -78 0 -27 -2 -49 -5 -49 -3 0 -15 9 -27 20 -45 42
-130 16 -146 -45 -8 -28 -13 -30 -67 -36 -49 -6 -64 -12 -87 -38 -39 -44 -38
-93 2 -131 17 -15 30 -34 30 -41 0 -7 12 -26 27 -41 21 -22 36 -28 69 -28 28
0 44 -5 48 -15 3 -8 12 -15 21 -15 25 0 17 -14 -16 -29 -38 -17 -181 -9 -188
10 -10 30 -43 51 -72 45 -29 -6 -29 -5 -14 16 33 48 11 154 -42 210 -66 69
-230 71 -303 4 -36 -33 -71 -40 -77 -15 -11 42 -96 33 -156 -17 -16 -13 -41
-24 -55 -24 -15 -1 -37 -6 -49 -13 -47 -26 -89 -108 -80 -154 3 -16 7 -36 9
-46 2 -14 -8 -23 -38 -35 -22 -10 -47 -24 -55 -32 -23 -25 -42 -68 -36 -83 3
-8 0 -23 -8 -33 -35 -48 -25 167 11 221 8 12 21 46 29 76 9 30 20 63 24 74 5
11 17 47 26 80 24 86 53 182 72 243 17 52 17 52 59 52 45 0 61 12 55 43 -2 17
3 18 54 12 46 -6 59 -4 75 10 11 10 20 24 20 30 0 7 7 18 15 25 21 18 18 57
-9 116 -13 28 -29 75 -35 105 -7 30 -28 87 -48 127 -29 59 -34 77 -26 95 27
58 32 78 44 165 6 50 15 92 18 92 4 0 12 -5 18 -11 15 -15 63 -3 63 15 0 7 11
18 25 24 14 7 28 19 31 27 4 8 7 15 8 15 2 0 1 -36 -2 -80z m-292 60 c0 -5 -7
-10 -15 -10 -18 0 -20 -17 -3 -22 7 -3 6 -7 -5 -11 -14 -5 -17 -1 -17 23 0 23
4 30 20 30 11 0 20 -4 20 -10z m117 -62 c-3 -8 -6 -5 -6 6 -1 11 2 17 5 13 3
-3 4 -12 1 -19z m-557 -10 c0 -19 -2 -20 -10 -8 -13 19 -13 30 0 30 6 0 10
-10 10 -22z m440 -9 c0 -11 -3 -11 -24 -3 -23 9 -20 23 4 17 11 -3 20 -9 20
-14z m60 11 c0 -5 -9 -10 -20 -10 -11 0 -20 5 -20 10 0 6 9 10 20 10 11 0 20
-4 20 -10z m-130 -10 c0 -5 -4 -10 -10 -10 -5 0 -10 5 -10 10 0 6 5 10 10 10
6 0 10 -4 10 -10z m70 -40 c0 -5 -11 -10 -25 -10 -14 0 -25 5 -25 10 0 6 11
10 25 10 14 0 25 -4 25 -10z m50 -15 c0 -16 -6 -25 -15 -25 -18 0 -20 16 -2
23 9 4 8 8 -3 16 -13 9 -13 11 3 11 12 0 17 -8 17 -25z m-120 5 c0 -5 -4 -10
-10 -10 -5 0 -10 5 -10 10 0 6 5 10 10 10 6 0 10 -4 10 -10z m177 -12 c-3 -8
-6 -5 -6 6 -1 11 2 17 5 13 3 -3 4 -12 1 -19z m-117 -20 c0 -6 -3 -8 -7 -5 -3
4 -12 -1 -19 -11 -12 -16 -13 -15 -14 6 0 15 6 22 20 22 11 0 20 -5 20 -12z
m-60 -8 c0 -5 -4 -10 -10 -10 -5 0 -10 5 -10 10 0 6 5 10 10 10 6 0 10 -4 10
-10z m108 -28 c2 -7 -2 -10 -12 -6 -9 3 -16 11 -16 16 0 13 23 5 28 -10z
m-457 -29 c13 -16 38 -39 54 -52 39 -33 200 -111 228 -111 21 0 23 -4 21 -40
-2 -55 -14 -64 -14 -12 0 35 -3 42 -19 42 -25 0 -30 -8 -38 -66 -4 -33 -15
-56 -34 -75 -29 -28 -28 -39 3 -39 10 0 18 -4 18 -10 0 -5 -11 -10 -25 -10
-14 0 -25 -4 -25 -10 0 -5 9 -10 20 -10 11 0 20 -4 20 -10 0 -5 -11 -10 -25
-10 -21 0 -25 -5 -25 -29 0 -24 3 -28 20 -24 11 3 20 0 20 -6 0 -6 -11 -11
-25 -11 -35 0 -31 -19 5 -26 39 -8 30 -22 -10 -16 -40 6 -39 -13 2 -24 48 -14
47 -33 -1 -27 -43 6 -60 -12 -18 -20 12 -2 1 -5 -24 -6 -34 -1 -48 3 -53 15
-3 9 -11 12 -18 8 -8 -5 -9 -2 -5 10 4 10 7 23 7 29 0 7 4 6 10 -3 19 -31 23
3 7 69 -13 54 -15 80 -7 121 12 64 12 60 1 60 -6 0 -14 -19 -20 -42 -10 -40
-10 -38 -6 26 2 37 9 74 14 80 6 7 6 18 2 25 -16 26 -31 -25 -42 -139 -7 -76
-7 -115 0 -129 6 -11 11 -38 11 -61 0 -34 -3 -41 -16 -36 -9 3 -28 9 -42 12
-36 7 -102 37 -102 46 0 4 16 4 37 1 29 -5 34 -4 27 8 -5 8 -9 21 -9 29 0 8
-10 16 -23 18 -20 3 -22 8 -20 45 3 34 7 42 28 48 21 5 23 7 8 14 -24 10 -23
35 2 35 11 0 20 5 20 10 0 6 -7 10 -15 10 -8 0 -15 9 -15 20 0 13 7 20 20 20
11 0 20 5 20 11 0 5 -4 8 -9 4 -5 -3 -12 -1 -15 4 -3 5 4 11 16 15 23 5 23 6
3 21 -20 16 -20 16 3 12 26 -6 29 8 5 23 -16 9 -15 10 5 5 25 -7 32 19 7 29
-8 3 -15 13 -15 23 0 35 -19 -4 -40 -82 -12 -44 -26 -96 -31 -115 -11 -38 -15
-57 -24 -111 -4 -25 -12 -38 -25 -42 -27 -7 -37 13 -16 29 10 7 15 17 12 22
-3 6 0 12 6 15 10 3 10 7 0 19 -10 13 -10 17 3 21 8 4 12 13 9 21 -3 8 0 25 8
38 7 13 13 31 14 41 1 10 7 30 14 45 7 15 19 43 27 62 31 71 48 105 54 110 7
6 -7 50 -16 50 -4 0 -14 -8 -23 -17 -12 -12 -13 -18 -4 -21 19 -6 14 -19 -10
-26 -22 -6 -22 -7 -5 -17 18 -10 18 -11 0 -31 -10 -11 -17 -22 -15 -24 2 -3
-5 -24 -16 -47 -48 -104 -85 -215 -88 -262 -2 -53 -26 -76 -37 -35 -3 12 -1
18 5 14 6 -4 8 2 6 12 -2 11 -8 19 -15 19 -6 0 -15 3 -19 8 -4 4 4 7 17 7 20
0 25 5 24 24 0 13 -3 28 -7 32 -14 13 -8 27 6 15 9 -8 16 -8 20 -2 4 5 2 12
-4 16 -16 10 -12 28 5 21 10 -3 15 1 15 12 0 10 5 23 12 30 9 9 9 12 -2 12
-11 0 -11 3 -2 12 7 7 12 21 12 33 0 12 5 26 12 33 8 8 9 12 1 12 -16 0 -40
-26 -48 -50 -3 -11 -11 -20 -16 -20 -5 0 -9 -10 -9 -23 0 -12 -11 -39 -25 -59
-14 -20 -25 -41 -25 -46 0 -5 -9 -17 -20 -27 -14 -13 -20 -14 -20 -5 0 15 104
195 130 225 10 11 30 47 46 80 49 104 104 133 155 78z m349 17 c0 -5 -4 -10
-10 -10 -5 0 -10 5 -10 10 0 6 5 10 10 10 6 0 10 -4 10 -10z m161 -33 c-13
-13 -15 1 -4 30 7 17 8 17 11 -1 2 -10 -1 -23 -7 -29z m-116 23 c3 -5 1 -10
-5 -10 -8 0 -10 -9 -6 -25 5 -19 2 -25 -10 -25 -12 0 -15 6 -10 23 3 12 6 28
6 35 0 14 16 16 25 2z m-58 -50 c-13 -48 -32 -54 -22 -7 9 38 13 47 24 47 5 0
3 -18 -2 -40z m-47 0 c0 -5 -4 -10 -9 -10 -6 0 -13 5 -16 10 -3 6 1 10 9 10 9
0 16 -4 16 -10z m150 0 c0 -5 -4 -10 -9 -10 -6 0 -13 5 -16 10 -3 6 1 10 9 10
9 0 16 -4 16 -10z m-185 -10 c8 -13 -5 -13 -25 0 -13 8 -13 10 2 10 9 0 20 -4
23 -10z m242 -3 c-5 -17 -37 -21 -37 -5 0 8 9 14 21 15 12 1 19 -3 16 -10z
m-132 -17 c3 -5 1 -10 -4 -10 -6 0 -11 5 -11 10 0 6 2 10 4 10 3 0 8 -4 11
-10z m65 -6 c0 -2 -7 -4 -15 -4 -8 0 -15 4 -15 10 0 5 7 7 15 4 8 -4 15 -8 15
-10z m28 -81 c-19 -5 -25 -23 -8 -23 6 0 10 -8 8 -17 -2 -12 3 -17 15 -16 15
1 17 -4 13 -23 -5 -17 -2 -24 8 -24 8 0 17 -15 21 -37 4 -21 11 -44 17 -50 6
-7 8 -13 5 -13 -3 0 8 -26 24 -57 38 -74 39 -129 4 -145 -21 -10 -29 -9 -43 5
-15 16 -14 17 16 17 18 0 32 5 32 10 0 6 -25 10 -55 10 -30 0 -55 5 -55 10 0
6 21 10 48 11 35 0 42 3 27 9 -11 5 -34 9 -51 9 -31 1 -32 3 -43 64 -14 79
-14 110 -1 102 6 -3 10 -15 10 -26 0 -10 7 -19 15 -19 16 0 21 25 6 34 -4 3
-13 32 -20 64 -14 73 -33 102 -53 84 -13 -10 -13 -22 -2 -84 15 -86 17 -138 6
-138 -5 0 -13 43 -19 96 -11 98 -25 132 -44 104 -8 -12 -9 -10 -7 9 3 22 9 25
53 29 28 2 52 6 54 8 2 2 11 3 20 3 13 -1 13 -2 -1 -6z m102 -143 c12 -46 26
-90 32 -97 8 -10 7 -12 -3 -8 -8 3 -29 51 -48 108 -18 56 -35 109 -38 117 -2
8 5 4 16 -10 11 -14 29 -63 41 -110z m-131 40 c0 -9 -4 -8 -9 5 -5 11 -9 27
-9 35 0 9 4 8 9 -5 5 -11 9 -27 9 -35z m-69 -55 c4 -5 10 -73 12 -150 3 -132
2 -140 -17 -144 -17 -3 -18 -1 -6 13 10 12 11 23 2 47 -6 19 -10 93 -9 178 1
80 3 128 5 106 3 -22 8 -44 13 -50z m-95 -252 c-4 -35 -10 -63 -15 -63 -23 0
-24 142 -3 325 7 56 8 52 16 -70 5 -71 6 -158 2 -192z m52 251 c-3 -3 -12 -4
-19 -1 -8 3 -5 6 6 6 11 1 17 -2 13 -5z m103 -125 c0 -14 -17 -10 -23 5 -4 10
-1 13 9 9 7 -3 14 -9 14 -14z m-213 5 c-3 -3 -12 -4 -19 -1 -8 3 -5 6 6 6 11
1 17 -2 13 -5z m412 -39 c0 -5 -4 -3 -9 5 -5 8 -9 22 -9 30 0 16 17 -16 18
-35z m-889 15 c0 -11 -4 -20 -10 -20 -5 0 -10 9 -10 20 0 11 5 20 10 20 6 0
10 -9 10 -20z m580 0 c0 -5 -4 -10 -10 -10 -5 0 -10 5 -10 10 0 6 5 10 10 10
6 0 10 -4 10 -10z m-410 -14 c0 -11 -19 -15 -25 -6 -3 5 1 10 9 10 9 0 16 -2
16 -4z m522 -11 c0 -5 -5 -11 -11 -13 -6 -2 -11 4 -11 13 0 9 5 15 11 13 6 -2
11 -8 11 -13z m-527 -70 c30 -14 61 -25 70 -25 37 0 95 -25 95 -42 0 -9 -4
-18 -9 -20 -4 -1 -37 -41 -71 -88 -35 -47 -72 -94 -83 -105 -10 -11 -29 -36
-42 -55 -91 -135 -110 -160 -137 -169 -15 -6 -31 -18 -35 -28 -3 -10 -18 -31
-32 -46 -20 -22 -23 -31 -14 -45 14 -22 -38 -128 -94 -191 -36 -41 -41 -44
-75 -37 -47 9 -88 55 -88 100 0 92 63 196 142 237 45 23 54 38 63 109 6 49 54
208 115 387 21 61 42 82 64 65 18 -15 47 -10 59 10 11 17 12 17 15 -7 3 -20
15 -31 57 -50z m425 55 c0 -5 -4 -10 -10 -10 -5 0 -10 5 -10 10 0 6 5 10 10
10 6 0 10 -4 10 -10z m113 -27 c-7 -2 -19 -2 -25 0 -7 3 -2 5 12 5 14 0 19 -2
13 -5z m-113 -13 c0 -5 -4 -10 -10 -10 -5 0 -10 5 -10 10 0 6 5 10 10 10 6 0
10 -4 10 -10z m125 -20 c4 -6 -6 -10 -22 -10 -22 0 -25 2 -13 10 19 12 27 12
35 0z m-115 -20 c0 -5 -2 -10 -4 -10 -3 0 -8 5 -11 10 -3 6 -1 10 4 10 6 0 11
-4 11 -10z m110 -25 c0 -8 -9 -15 -20 -15 -20 0 -26 11 -13 23 12 13 33 7 33
-8z m-218 -22 c14 -30 58 -45 58 -20 0 9 12 14 33 15 l33 1 -44 -137 c-24 -75
-57 -182 -74 -237 -17 -55 -41 -125 -55 -155 -26 -60 -46 -150 -47 -218 -1
-26 -7 -46 -16 -52 -24 -15 -82 -12 -120 8 -47 23 -62 55 -57 124 3 46 10 68
39 110 56 83 57 86 47 173 -4 44 -8 129 -8 188 l-1 108 42 50 c41 49 43 50 93
47 36 -2 49 1 48 10 -5 23 16 12 29 -15z m-234 -315 l-3 -173 -39 -64 c-23
-38 -41 -80 -44 -106 -2 -24 -13 -53 -23 -64 -15 -16 -19 -36 -19 -94 0 -63 4
-80 25 -112 29 -41 29 -40 -1 -49 -18 -5 -22 -2 -27 22 -4 21 -16 34 -43 47
-77 36 -174 16 -240 -50 -54 -54 -74 -51 -74 10 0 38 3 44 22 47 17 2 24 12
29 39 19 121 190 447 214 409 3 -6 18 -10 33 -10 44 0 72 -26 72 -67 0 -76
-53 -133 -124 -133 -22 0 -24 -3 -19 -40 6 -40 5 -40 -23 -34 -18 3 -37 0 -49
-10 -25 -18 -14 -31 14 -16 17 9 28 7 51 -7 31 -18 34 -26 30 -78 -2 -30 -2
-30 19 -11 27 24 27 46 0 80 -20 26 -20 28 -5 61 10 19 23 35 30 35 28 0 85
65 96 108 19 72 -13 126 -81 137 -21 4 -39 9 -39 11 0 7 139 198 170 233 16
19 30 38 30 43 0 4 5 8 10 8 7 0 9 -62 8 -172z m1472 122 c11 -11 27 -20 35
-20 13 0 15 -24 15 -160 0 -182 3 -175 -83 -175 -37 0 -53 5 -65 20 -12 14
-30 20 -59 21 -52 1 -76 19 -69 51 5 18 1 24 -19 29 -52 13 -71 78 -37 122 25
32 92 41 128 17 33 -21 44 -9 44 52 0 29 5 45 18 52 28 17 71 12 92 -9z m-495
-101 c52 -20 105 -98 105 -153 0 -44 -40 -130 -73 -158 -38 -33 -75 -35 -110
-8 -14 11 -28 16 -31 12 -7 -11 30 -52 47 -52 7 0 -10 -11 -37 -25 -27 -13
-53 -22 -58 -19 -4 3 -12 -6 -18 -20 -31 -83 -191 -98 -265 -26 -26 26 -30 38
-33 97 -4 62 -2 70 23 97 35 38 23 47 -15 11 -44 -42 -50 -116 -16 -197 6 -13
-1 -17 -34 -23 -51 -9 -107 -60 -116 -105 -5 -22 -11 -29 -23 -26 -9 2 -26 7
-39 11 -25 7 -46 40 -36 56 3 6 -2 16 -12 24 -15 10 -16 16 -7 26 6 6 9 25 6
44 -10 61 52 115 117 101 28 -5 41 6 21 18 -5 4 -12 29 -16 56 -12 89 46 176
112 168 17 -2 28 -9 28 -18 0 -26 20 -26 23 0 7 64 59 103 107 82 28 -13 33
-32 10 -32 -9 0 -24 -13 -33 -30 -9 -16 -22 -30 -28 -30 -21 0 -38 -30 -26
-42 9 -9 12 -8 12 5 0 12 8 17 30 17 23 0 30 5 30 19 0 38 62 61 111 41 34
-14 48 -8 30 14 -9 11 -10 20 -2 35 10 18 32 27 106 44 23 5 80 -2 110 -14z
m-1919 -40 c3 -6 27 -20 53 -31 43 -19 61 -21 199 -19 12 0 34 0 50 -1 15 -1
39 2 55 6 22 7 27 5 27 -10 0 -10 9 -27 20 -39 l20 -22 -21 -19 c-21 -19 -21
-18 -42 10 -36 50 -116 69 -197 46 -20 -6 -38 -6 -43 -1 -5 5 -21 5 -37 1 -21
-6 -31 -4 -44 12 -12 14 -25 18 -41 14 -27 -7 -49 21 -39 48 7 18 30 21 40 5z
m32 -106 c4 -37 9 -40 28 -16 16 23 29 11 15 -15 -13 -25 -14 -62 -2 -62 5 0
11 13 14 30 8 37 39 57 110 71 67 12 114 -5 148 -53 20 -27 20 -31 6 -61 -9
-18 -20 -45 -26 -60 -6 -15 -15 -27 -21 -27 -5 0 -10 -5 -10 -12 0 -6 -12 -36
-26 -67 -15 -30 -28 -74 -29 -97 -5 -72 -36 -151 -55 -139 -5 3 -11 1 -15 -5
-15 -24 -104 0 -107 29 0 9 -2 23 -2 31 -1 11 -11 14 -43 12 -52 -4 -83 5 -83
24 0 11 -8 14 -27 12 -20 -2 -28 -9 -28 -23 0 -11 -8 -21 -18 -23 -9 -2 -17
-8 -17 -13 0 -10 8 -14 53 -23 42 -10 67 -40 67 -84 0 -21 -7 -47 -15 -59 -20
-29 -10 -78 14 -67 9 4 31 9 48 12 42 5 52 -16 26 -55 -11 -15 -38 -56 -62
-91 -23 -34 -39 -67 -36 -72 8 -13 -24 -28 -87 -41 -29 -7 -63 -19 -76 -27
-23 -15 -23 -14 -16 14 4 16 14 39 22 51 8 13 12 29 9 37 -3 8 -1 17 6 19 7 2
9 8 4 13 -11 11 -50 -30 -64 -69 l-12 -32 3 30 c19 143 28 154 112 145 32 -4
61 -3 62 2 2 4 19 8 38 8 19 0 34 5 34 10 0 6 -16 10 -35 10 -38 0 -40 2 -25
31 10 17 7 19 -23 19 -19 0 -40 7 -47 15 -9 11 -26 13 -71 8 -32 -3 -59 -4
-59 -1 0 15 83 57 132 67 66 14 87 41 32 41 -31 0 -34 2 -28 24 6 24 4 24 -43
22 -26 -1 -59 -8 -72 -15 -19 -10 -25 -10 -31 -1 -6 10 -16 7 -40 -10 -40 -28
-51 -58 -44 -114 6 -42 6 -43 -25 -49 -40 -8 -50 -32 -24 -56 19 -18 20 -18
32 1 21 34 31 8 31 -87 0 -71 -3 -94 -14 -98 -8 -3 -17 1 -20 9 -5 12 -10 13
-27 4 -11 -7 -23 -9 -26 -6 -3 2 -7 115 -10 250 l-6 246 22 0 c26 0 72 -23 90
-44 18 -22 28 -20 56 10 21 22 31 26 60 21 29 -5 35 -3 35 12 0 12 -12 23 -32
31 -53 21 -87 60 -104 117 -13 45 -14 62 -3 110 15 67 60 131 109 155 41 21
136 24 143 6 3 -9 13 -4 29 14 44 50 91 50 96 1z m2038 -125 c4 -6 -4 -19 -19
-30 -15 -11 -27 -28 -27 -39 0 -25 20 -25 27 0 3 11 10 22 16 24 17 6 77 -4
77 -13 0 -4 31 -7 69 -6 51 1 74 -3 87 -15 11 -9 34 -24 51 -33 48 -24 66 -59
70 -135 6 -107 3 -144 -12 -161 -21 -23 -19 -27 20 -34 l35 -7 0 -169 0 -170
-29 0 c-16 0 -42 7 -57 15 -37 19 -55 19 -98 -1 -33 -16 -35 -16 -67 6 -32 23
-32 23 -63 5 -97 -58 -132 -74 -145 -65 -8 4 -38 6 -67 3 -36 -4 -74 0 -115
11 -59 17 -63 17 -108 -2 -73 -31 -152 -44 -253 -39 -78 3 -94 7 -103 23 -15
28 -26 34 -66 34 -20 0 -42 7 -49 15 -7 8 -16 15 -21 15 -4 0 -29 14 -54 31
-47 32 -55 56 -16 51 20 -2 22 1 16 28 -10 46 16 80 60 80 19 0 35 -4 35 -10
0 -5 4 -10 10 -10 5 0 8 28 7 63 -2 55 2 68 30 113 38 59 98 94 161 94 32 0
49 -7 78 -32 l36 -32 19 25 19 24 23 -28 c17 -19 26 -24 34 -16 8 8 16 7 32
-2 28 -18 48 0 32 30 -12 21 -41 29 -41 11 0 -14 -37 -13 -42 1 -2 6 -21 12
-43 13 -22 1 -50 8 -62 14 -30 16 -113 15 -154 -2 -75 -31 -130 -98 -146 -176
-7 -37 -13 -45 -42 -55 -35 -11 -81 -57 -81 -79 0 -7 -9 -21 -20 -31 -16 -14
-20 -15 -24 -4 -10 32 -16 148 -7 153 4 3 11 19 15 36 4 24 12 32 35 36 27 6
29 9 24 38 -4 23 0 36 16 50 18 16 24 17 52 6 18 -8 34 -9 37 -4 4 5 14 9 22
9 8 0 17 14 21 32 8 42 24 61 67 79 53 22 99 18 127 -11 14 -13 25 -31 25 -39
0 -10 6 -13 15 -10 9 4 13 13 10 24 -5 15 4 18 61 23 36 4 73 12 80 18 20 16
28 5 15 -19 -15 -27 -14 -42 2 -42 7 0 18 20 26 44 19 64 101 140 132 121 4
-3 19 1 31 8 25 16 50 15 84 -4 23 -12 54 -7 54 9 0 5 -18 12 -40 16 -22 3
-40 10 -40 15 0 11 87 91 99 91 5 0 13 -5 17 -12z m332 -40 c8 -8 15 -8 26 1
29 25 36 2 36 -126 0 -70 -3 -123 -7 -120 -3 4 -7 29 -8 56 -2 62 -35 116 -80
132 -41 15 -53 39 -29 56 22 16 46 17 62 1z m-1248 -217 c15 -29 12 -68 -5
-75 -12 -4 -15 2 -15 28 0 19 -3 41 -6 50 -9 23 13 20 26 -3z m-224 -4 c5 -3
28 -10 52 -16 25 -7 42 -18 42 -26 0 -19 -9 -19 -30 0 -9 8 -39 16 -69 17 -31
1 -57 8 -66 18 -12 13 -9 15 24 14 21 -1 42 -4 47 -7z m-496 -77 c0 -5 -4 -10
-10 -10 -5 0 -10 5 -10 10 0 6 5 10 10 10 6 0 10 -4 10 -10z m307 -21 c37 -18
44 -26 49 -60 8 -46 17 -55 34 -34 7 8 21 15 32 15 20 0 20 -6 16 -169 -2 -94
-6 -173 -10 -176 -10 -10 -164 33 -221 61 -56 29 -84 29 -207 0 -87 -21 -210
-12 -210 14 0 10 6 20 13 23 7 3 19 24 27 48 8 24 20 50 27 57 7 7 13 20 13
28 0 17 97 164 108 164 9 0 32 -72 32 -101 0 -26 -26 -48 -57 -49 -12 0 -38
-14 -58 -31 -30 -26 -35 -37 -35 -74 0 -27 7 -51 19 -66 26 -32 37 -18 20 23
-19 47 -20 58 -3 89 16 31 44 44 80 35 17 -5 24 -2 24 9 0 8 9 15 20 15 16 0
20 7 20 30 0 43 105 147 158 155 20 4 42 8 47 10 6 2 12 4 14 4 3 1 24 -8 48
-20z m-702 -10 c11 -34 50 -52 100 -47 25 3 45 4 45 1 0 -15 -47 -92 -71 -115
-27 -28 -29 -28 -54 -12 -15 10 -37 14 -56 12 -27 -4 -30 -3 -24 16 18 54 17
108 -3 135 l-20 27 39 1 c30 2 39 -2 44 -18z m1085 -23 c0 -14 -29 -31 -37
-22 -6 6 19 35 30 36 4 0 7 -6 7 -14z m1340 -6 c0 -11 -6 -20 -14 -20 -9 0
-12 7 -9 20 3 11 9 20 14 20 5 0 9 -9 9 -20z m-1413 -42 c-3 -7 -5 -2 -5 12 0
14 2 19 5 13 2 -7 2 -19 0 -25z m-1297 -43 c0 -8 -62 -37 -68 -31 -8 9 30 35
51 36 9 0 17 -2 17 -5z m1262 -37 c-7 -7 -12 -8 -12 -2 0 6 3 14 7 17 3 4 9 5
12 2 2 -3 -1 -11 -7 -17z m-742 -47 c-6 -12 -15 -19 -21 -16 -5 4 -8 9 -6 13
2 4 7 16 11 26 5 14 10 16 17 9 8 -8 7 -17 -1 -32z m-555 -70 c3 -5 1 -12 -5
-16 -5 -3 -10 1 -10 9 0 18 6 21 15 7z m-26 -154 c1 -27 -3 -37 -11 -34 -13 4
-19 100 -8 122 6 13 17 -39 19 -88z m869 66 c-21 -2 -38 -8 -38 -12 0 -13 -49
-31 -87 -31 -19 0 -61 -7 -92 -15 -31 -8 -84 -16 -116 -19 -77 -5 -117 -20
-109 -41 4 -10 0 -15 -14 -15 -12 0 -24 -4 -27 -10 -3 -5 -29 -21 -58 -35 -60
-31 -117 -82 -117 -106 0 -9 -7 -22 -15 -29 -11 -9 -19 -8 -37 4 -34 24 -63
19 -104 -16 -42 -37 -140 -63 -180 -48 -37 15 -28 23 17 17 53 -7 135 20 171
56 29 28 34 30 86 27 17 -1 32 3 32 8 0 16 73 82 92 82 10 0 18 7 18 16 0 11
-5 14 -16 10 -9 -3 -22 -6 -30 -6 -8 0 -33 -17 -57 -39 -27 -25 -55 -40 -80
-44 -38 -6 -39 -6 -24 16 8 12 24 23 36 25 12 2 26 13 30 25 5 12 18 31 30 41
19 17 28 18 89 9 84 -13 113 -4 172 54 24 23 51 44 60 44 78 6 96 6 106 -2 7
-6 40 -3 85 7 41 9 90 20 109 24 19 4 51 7 70 7 l35 0 -37 -4z m227 -71 c40
-10 76 -25 84 -35 22 -31 59 -39 111 -26 37 10 57 9 96 -1 27 -7 99 -14 159
-16 61 -1 117 -5 125 -7 8 -3 42 -10 75 -17 33 -7 78 -25 100 -40 22 -14 48
-29 58 -33 9 -4 17 -14 17 -23 0 -14 -7 -16 -47 -10 -97 12 -98 12 -98 -7 0
-31 -32 -40 -119 -34 -58 4 -97 13 -138 32 -32 14 -58 29 -58 31 0 3 15 4 33
2 46 -4 42 20 -8 46 -33 17 -63 21 -172 24 -84 3 -133 8 -133 15 0 6 -7 19
-17 29 -10 12 -12 18 -4 18 7 0 9 5 6 10 -3 6 -16 10 -29 10 -13 0 -38 7 -56
16 -18 9 -52 19 -76 22 -24 2 -44 9 -44 14 0 10 24 7 135 -20z m1411 9 c23
-18 24 -20 7 -29 -10 -6 -38 -15 -63 -22 -25 -6 -74 -26 -110 -43 -61 -30 -72
-32 -180 -33 -63 -1 -97 0 -75 2 159 16 198 25 274 64 43 23 87 49 97 60 24
24 21 24 50 1z m229 -21 l35 0 0 -66 c0 -64 -1 -66 -22 -59 -38 11 -271 24
-287 16 -21 -11 -197 -31 -253 -30 -43 2 -43 2 12 9 75 11 150 30 150 39 0 4
32 18 70 30 39 13 100 39 136 57 62 32 67 33 94 19 16 -8 45 -15 65 -15z
m-2002 -16 c9 -4 17 -10 17 -15 0 -5 5 -9 10 -9 6 0 10 6 10 14 0 10 23 14
100 15 55 1 100 -2 100 -7 0 -13 -46 -32 -78 -32 -45 0 -70 -11 -75 -31 -5
-17 -15 -19 -86 -19 -53 0 -81 4 -81 11 0 8 -22 10 -67 7 -88 -5 -185 -50
-265 -122 -81 -74 -167 -119 -211 -111 -22 4 -54 -1 -94 -14 -44 -15 -69 -18
-85 -12 -26 10 -17 15 46 26 33 5 76 28 132 70 9 6 20 3 36 -11 36 -33 78 -16
111 43 31 58 70 89 160 131 39 19 67 38 67 47 0 20 29 19 52 -2 17 -15 19 -15
31 0 11 16 119 39 142 31 6 -2 18 -7 28 -10z m1378 -11 c25 -13 55 -18 114
-16 73 1 77 0 50 -11 -17 -7 -60 -16 -95 -20 -94 -9 -368 -12 -376 -3 -4 4 13
7 39 7 59 0 133 16 177 40 45 23 50 23 91 3z m-1006 -18 c-24 -8 -116 -12
-103 -4 7 5 36 8 63 8 28 0 46 -2 40 -4z m-1105 -15 c0 -5 -4 -10 -10 -10 -5
0 -10 5 -10 10 0 6 5 10 10 10 6 0 10 -4 10 -10z m130 -10 c-6 -11 -17 -20
-24 -20 -7 0 -35 -22 -62 -49 -48 -48 -50 -49 -122 -54 -68 -4 -73 -3 -70 15
4 28 94 62 126 48 28 -12 65 3 83 36 7 13 20 24 30 24 10 0 21 5 24 10 12 20
26 10 15 -10z m816 -5 c-11 -8 -28 -15 -38 -15 -26 0 -22 -28 4 -32 12 -2 23
-9 26 -16 3 -9 -19 -12 -91 -11 -52 1 -100 -2 -106 -6 -18 -10 6 -35 35 -35
12 0 26 -4 29 -10 3 -6 51 -10 107 -10 116 0 222 -22 256 -53 44 -40 18 -52
-29 -13 -17 15 -48 27 -80 31 -73 10 -83 -8 -14 -25 31 -7 59 -18 62 -23 4 -7
-1 -7 -13 -2 -10 4 -43 10 -71 13 -29 2 -53 8 -53 12 0 4 -35 13 -77 21 -42 8
-84 21 -92 30 -22 23 -119 33 -170 18 -23 -7 -48 -23 -57 -36 -16 -26 -29 -23
-29 5 0 13 -11 18 -42 20 -51 4 -108 -26 -170 -90 -37 -39 -51 -46 -135 -67
-51 -13 -108 -29 -126 -37 -20 -8 -50 -11 -75 -8 -28 4 -52 1 -71 -9 -33 -18
-69 -9 -74 18 -3 14 3 16 40 14 44 -3 103 12 150 39 25 15 29 14 46 -1 10 -9
24 -17 31 -17 34 0 144 64 208 121 81 72 128 109 138 109 4 0 23 7 42 17 20 9
38 12 41 7 4 -5 56 -11 115 -12 111 -3 172 8 194 35 11 14 58 30 93 32 11 0
10 -3 -4 -14z m-1025 -19 c-13 -15 -64 -28 -55 -14 6 9 41 26 58 27 5 1 3 -5
-3 -13z m1178 -10 c15 -14 132 -24 300 -26 31 0 33 -1 17 -13 -26 -19 -13 -55
22 -62 21 -5 79 -28 100 -41 2 -1 -3 -11 -10 -23 -15 -25 -31 -26 -89 -5 -24
8 -84 17 -132 19 -49 2 -91 6 -95 9 -3 3 0 6 6 6 6 0 16 9 22 21 16 28 -1 46
-50 54 -22 4 -57 15 -77 24 -21 10 -56 19 -78 20 -47 2 -52 6 -34 27 16 19 72
13 98 -10z m816 -16 c-3 -5 -10 -10 -16 -10 -5 0 -9 5 -9 10 0 6 7 10 16 10 8
0 12 -4 9 -10z m806 -25 c43 -15 49 -20 49 -44 0 -25 -6 -30 -51 -44 -58 -19
-83 -21 -74 -7 3 6 15 10 26 10 23 0 26 35 3 44 -9 3 -40 6 -70 6 -48 0 -56
-3 -63 -23 -8 -20 -15 -23 -58 -21 -26 2 -62 9 -79 15 -26 10 -42 9 -93 -5
-66 -18 -75 -18 -218 20 -28 8 -71 14 -96 14 -35 0 -46 4 -50 19 -5 21 25 31
92 31 27 0 32 -3 21 -10 -17 -11 -20 -11 85 -16 94 -5 316 13 330 27 14 14
189 3 246 -16z m-1685 -31 c18 -15 17 -15 -15 -10 -18 3 -40 6 -47 6 -8 0 -14
5 -14 10 0 16 54 12 76 -6z m-128 -11 c-10 -2 -28 -2 -40 0 -13 2 -5 4 17 4
22 1 32 -1 23 -4z m259 -19 c-3 -3 -12 -4 -19 -1 -8 3 -5 6 6 6 11 1 17 -2 13
-5z m1456 -1 c-7 -2 -21 -2 -30 0 -10 3 -4 5 12 5 17 0 24 -2 18 -5z m-2643
-23 c0 -5 -18 -10 -40 -10 -22 0 -40 5 -40 10 0 6 18 10 40 10 22 0 40 -4 40
-10z m1954 -22 c5 -30 12 -35 65 -52 51 -16 73 -17 179 -10 127 9 207 1 292
-29 25 -9 53 -17 63 -17 31 0 18 -19 -15 -22 -28 -2 -34 -8 -36 -30 -4 -33 15
-38 20 -5 2 16 10 22 28 22 23 0 25 -3 22 -45 -4 -56 -15 -69 -44 -51 -11 7
-44 20 -71 28 -28 8 -65 26 -83 39 -49 38 -135 57 -253 55 -57 -1 -130 4 -162
10 -50 10 -61 16 -74 42 -19 38 -19 43 3 72 26 36 58 33 66 -7z m478 15 c22
-10 38 -24 38 -34 0 -17 27 -29 68 -29 12 0 22 -3 22 -8 0 -17 -98 -3 -150 22
-30 14 -65 26 -77 26 -12 0 -25 5 -28 10 -3 6 4 10 17 10 13 0 30 5 38 10 20
13 27 13 72 -7z m-1678 -1 c11 -19 -12 -31 -57 -29 -43 2 -58 13 -40 30 9 10
91 9 97 -1z m1873 2 c-3 -3 -12 -4 -19 -1 -8 3 -5 6 6 6 11 1 17 -2 13 -5z
m-312 -44 c30 -8 -24 -13 -200 -15 -57 -1 -135 24 -135 43 0 9 291 -15 335
-28z m475 25 c0 -11 -11 -15 -42 -14 l-43 0 35 13 c47 18 50 18 50 1z m-966
-18 c3 -13 20 -39 38 -59 27 -29 45 -38 93 -48 75 -15 65 -15 165 -6 47 4 81
4 77 -1 -5 -4 -16 -8 -25 -8 -10 -1 -42 -6 -72 -13 -58 -13 -47 -15 -278 47
-41 11 -61 36 -62 76 0 27 4 31 29 33 23 2 30 -3 35 -21z m-1338 -12 c1 -17
-5 -26 -20 -31 -11 -3 -32 -17 -46 -29 -14 -13 -43 -28 -65 -34 -22 -6 -55
-20 -73 -31 -18 -11 -67 -29 -109 -40 -42 -12 -85 -26 -96 -32 -30 -16 -207
-19 -207 -3 0 18 44 24 116 18 52 -5 73 -1 135 23 41 15 83 34 94 41 11 7 25
13 32 13 38 0 127 46 167 86 50 50 70 55 72 19z m2074 15 c0 -5 -6 -10 -14
-10 -8 0 -18 5 -21 10 -3 6 3 10 14 10 12 0 21 -4 21 -10z m100 0 c-20 -13
-70 -13 -70 0 0 6 19 10 43 10 31 0 38 -3 27 -10z m-1765 -17 c35 -17 46 -33
22 -33 -7 0 -23 7 -35 16 -14 10 -33 14 -47 10 -23 -6 -41 5 -28 18 11 11 52
6 88 -11z m738 -32 c6 -14 17 -34 25 -43 25 -30 9 -38 -36 -18 -64 29 -86 104
-27 92 16 -3 31 -15 38 -31z m-898 4 c0 -14 11 -22 35 -28 19 -5 57 -15 84
-23 26 -8 58 -14 71 -14 12 0 42 -13 66 -30 24 -16 54 -30 66 -30 50 0 210
-33 273 -56 44 -15 99 -26 156 -29 91 -5 108 -8 157 -27 60 -23 21 -28 -170
-22 -149 5 -205 10 -228 22 -16 9 -63 21 -104 29 -41 7 -93 22 -115 34 -114
61 -158 78 -232 93 -154 30 -236 19 -387 -53 -48 -22 -93 -41 -99 -41 -6 0
-19 -6 -27 -14 -21 -19 -278 -43 -294 -27 -8 8 1 11 34 11 89 1 198 27 250 60
35 23 57 31 76 27 37 -7 98 17 157 62 37 28 73 44 131 59 91 23 100 23 100 -3z
m2055 0 c0 -16 -6 -25 -16 -25 -8 0 -12 5 -9 10 3 6 0 11 -7 11 -7 1 -20 3
-28 4 -8 1 -42 3 -75 4 -87 3 -41 19 58 20 76 1 77 1 77 -24z m-1076 -1 c3 -9
4 -19 1 -24 -10 -17 34 -38 114 -53 87 -17 138 -41 65 -31 -149 20 -191 34
-191 64 0 8 -3 25 -7 38 -8 25 8 31 18 6z m-635 -10 c10 -10 -8 -14 -37 -8
-18 4 -29 11 -26 16 6 9 53 3 63 -8z m231 -20 c47 -14 90 -27 95 -30 33 -14
81 -49 97 -70 11 -13 29 -29 40 -35 27 -15 143 -39 185 -39 45 0 83 -17 83
-36 0 -15 -8 -16 -61 -10 -36 3 -66 12 -73 21 -15 19 -86 34 -166 35 -45 0
-90 9 -147 29 -46 16 -109 33 -140 37 -88 10 -185 32 -192 42 -3 5 -31 18 -61
27 -96 31 -99 35 -20 30 41 -2 91 -7 111 -11 31 -5 39 -2 55 19 17 23 24 25
64 20 25 -2 83 -16 130 -29z m115 12 c18 -13 18 -14 -8 -9 -15 3 -30 9 -33 14
-8 14 20 10 41 -5z m1138 -3 c-7 -2 -19 -2 -25 0 -7 3 -2 5 12 5 14 0 19 -2
13 -5z m85 0 c-10 -2 -26 -2 -35 0 -10 3 -2 5 17 5 19 0 27 -2 18 -5z m89 1
c-3 -3 -12 -4 -19 -1 -8 3 -5 6 6 6 11 1 17 -2 13 -5z m-1237 -39 c7 -8 18
-15 24 -15 7 0 23 -11 36 -25 12 -13 25 -23 29 -23 3 1 22 -3 41 -10 56 -19
191 -42 244 -42 27 0 63 -4 80 -9 17 -5 56 -17 88 -27 50 -16 64 -16 125 -5
59 12 77 11 132 -3 123 -32 105 -36 -139 -33 -181 2 -243 6 -270 17 -19 8 -37
18 -41 22 -4 7 -72 21 -214 45 -22 3 -45 11 -51 17 -18 17 -87 74 -109 91 -17
12 -17 14 -4 15 9 0 22 -7 29 -15z m1290 0 c0 -10 -12 -16 -37 -17 l-38 -1 38
-4 37 -4 0 -55 0 -54 -94 0 c-55 0 -98 4 -101 10 -4 6 -4 33 0 60 6 42 10 50
28 51 22 2 21 2 0 6 -13 2 -23 9 -23 14 0 5 43 9 95 9 78 0 95 -3 95 -15z
m-1115 -44 c33 -10 69 -23 80 -30 l20 -12 -20 5 c-11 2 -35 8 -54 11 -38 8
-121 43 -121 52 0 3 8 2 18 -2 9 -4 44 -15 77 -24z m-944 -1 c48 -18 133 -69
126 -76 -1 -2 -32 6 -67 17 -96 30 -226 37 -274 14 -21 -10 -42 -28 -48 -40
-8 -17 -29 -28 -92 -44 -44 -12 -100 -21 -123 -21 -23 0 -45 -4 -48 -10 -8
-12 -135 -14 -135 -1 0 4 42 11 93 15 64 5 101 13 122 26 42 27 190 99 250
121 65 24 132 24 196 -1z m1618 -14 c28 -27 114 -60 125 -48 4 3 9 -4 13 -16
4 -17 13 -22 39 -22 21 0 37 -6 43 -17 8 -14 13 -15 19 -5 13 20 197 12 197
-8 0 -13 -23 -15 -160 -12 -88 1 -169 6 -180 11 -84 36 -216 61 -321 61 -65 0
-152 11 -214 27 -47 12 54 20 122 10 48 -7 80 -6 128 5 43 9 82 11 115 7 53
-8 68 -4 45 12 -9 6 -52 8 -104 5 -93 -5 -108 3 -28 15 80 12 130 4 161 -25z
m-1442 -23 c21 -10 54 -29 73 -43 41 -29 107 -49 168 -50 23 0 42 -4 42 -10 0
-13 -43 -13 -152 1 -86 11 -89 13 -104 45 -9 18 -29 39 -45 46 -16 7 -29 16
-29 20 0 11 3 10 47 -9z m910 -9 c-3 -3 -12 -4 -19 -1 -8 3 -5 6 6 6 11 1 17
-2 13 -5z m-1107 -23 c0 -6 20 -13 45 -16 24 -4 49 -13 56 -21 6 -7 26 -16 45
-20 58 -11 37 -24 -38 -24 -40 -1 -152 -2 -248 -4 -150 -4 -168 -2 -126 8 30
7 55 21 67 36 10 14 24 31 29 38 13 14 170 17 170 3z m1998 -120 c41 -5 77
-12 80 -16 4 -4 7 -83 8 -176 l0 -169 -215 -2 c-263 -3 -895 -4 -1561 -4 -102
0 -381 -3 -620 -8 -402 -7 -521 -8 -526 -3 -1 1 -4 87 -6 191 l-3 188 165 -7
c91 -5 183 -8 205 -7 22 1 180 4 350 8 171 3 311 7 312 8 9 7 1755 4 1811 -3z"/>
<g>
<path d="M992 5048 c5 -15 28 -18 29 -3 0 6 -7 12 -17 13 -10 3 -15 -1 -12
-10z"/>
</g>
<g>
<path d="M1220 5010 c-22 -6 -23 -8 -7 -15 12 -5 24 -2 35 9 17 17 12 18 -28
6z"/>
</g>
<g>
<path d="M1333 5003 c8 -9 23 -13 31 -10 27 10 18 24 -16 25 -28 1 -30 -1 -15
-15z"/>
</g>
<g>
<path d="M795 4997 c-13 -10 -15 -16 -6 -21 12 -8 41 10 41 25 0 13 -13 11
-35 -4z"/>
</g>
<g>
<path d="M1395 4961 c-3 -6 -15 -11 -26 -11 -11 0 -17 -4 -14 -10 10 -16 45
-12 52 5 7 19 -2 31 -12 16z"/>
</g>
<g>
<path d="M1470 4950 c0 -5 7 -10 15 -10 8 0 15 5 15 10 0 6 -7 10 -15 10 -8 0
-15 -4 -15 -10z"/>
</g>
<g>
<path d="M720 4940 c0 -5 7 -10 15 -10 8 0 15 5 15 10 0 6 -7 10 -15 10 -8 0
-15 -4 -15 -10z"/>
</g>
<g>
<path d="M1060 4899 c0 -6 -7 -9 -15 -5 -9 3 -15 0 -15 -9 0 -18 10 -19 33 -1
19 15 22 26 7 26 -5 0 -10 -5 -10 -11z"/>
</g>
<g>
<path d="M770 4817 l-25 -10 23 -5 c26 -4 36 1 31 16 -3 6 -14 5 -29 -1z"/>
</g>
<g>
<path d="M900 4810 c0 -5 -9 -10 -20 -10 -11 0 -20 -4 -20 -10 0 -14 33 -13
48 2 15 15 16 28 2 28 -5 0 -10 -4 -10 -10z"/>
</g>
<g>
<path d="M826 4498 c-17 -24 -13 -39 6 -20 7 7 20 12 30 12 10 0 18 7 18 15 0
23 -37 18 -54 -7z"/>
</g>
<g>
<path d="M670 4474 c-73 -20 -117 -50 -167 -115 -64 -83 -83 -136 -83 -232 0
-101 27 -165 95 -232 44 -42 95 -61 95 -35 0 6 -9 10 -20 10 -25 0 -95 71
-122 124 -31 61 -36 186 -10 253 12 28 31 62 44 76 13 13 31 36 40 50 10 14
48 40 85 59 52 25 78 32 121 32 49 -1 53 0 37 12 -23 17 -45 17 -115 -2z"/>
</g>
<g>
<path d="M636 3825 c4 -8 8 -15 10 -15 2 0 4 7 4 15 0 8 -4 15 -10 15 -5 0 -7
-7 -4 -15z"/>
</g>
<g>
<path d="M650 3777 c0 -15 13 -32 53 -67 23 -20 42 -25 110 -30 l82 -5 -3 -28
c-7 -64 56 -105 167 -110 49 -2 99 21 109 51 6 19 -16 14 -48 -9 -24 -18 -38
-21 -89 -17 -80 6 -113 34 -109 93 l3 40 -80 3 c-92 4 -141 23 -164 64 -17 30
-31 36 -31 15z"/>
</g>
<g>
<path d="M1365 4413 c-44 -11 -56 -43 -16 -43 26 0 71 23 71 38 0 12 -18 14
-55 5z"/>
</g>
<g>
<path d="M1347 4269 c-19 -11 -23 -29 -6 -29 15 0 41 28 31 34 -4 2 -15 0 -25
-5z"/>
</g>
<g>
<path d="M1372 4232 c-13 -10 -20 -21 -16 -25 8 -7 64 23 64 35 0 14 -24 8
-48 -10z"/>
</g>
<g>
<path d="M1380 4189 c0 -5 5 -7 10 -4 6 3 10 8 10 11 0 2 -4 4 -10 4 -5 0 -10
-5 -10 -11z"/>
</g>
<g>
<path d="M2105 3680 c4 -6 11 -8 16 -5 14 9 11 15 -7 15 -8 0 -12 -5 -9 -10z"/>
</g>
<g>
<path d="M2850 3166 c-19 -7 -36 -20 -38 -29 -5 -22 4 -21 31 4 13 12 34 19
52 19 54 -3 62 -1 45 10 -20 13 -47 11 -90 -4z"/>
</g>
<g>
<path d="M2777 3073 c-15 -14 -6 -61 16 -81 32 -30 46 -28 17 3 -17 18 -21 31
-17 55 6 28 -1 38 -16 23z"/>
</g>
<g>
<path d="M2815 2930 c-31 -12 -47 -36 -43 -62 l4 -23 13 26 c19 39 65 62 108
54 24 -4 33 -3 28 4 -7 13 -81 14 -110 1z"/>
</g>
<g>
<path d="M2633 2578 c-37 -38 -53 -76 -53 -124 0 -55 17 -39 24 24 6 50 12 61
48 95 22 20 34 37 26 37 -8 0 -28 -15 -45 -32z"/>
</g>
<g>
<path d="M1720 3120 c0 -5 5 -10 10 -10 6 0 10 5 10 10 0 6 -4 10 -10 10 -5 0
-10 -4 -10 -10z"/>
</g>
<g>
<path d="M1720 3070 c0 -5 5 -10 10 -10 6 0 10 5 10 10 0 6 -4 10 -10 10 -5 0
-10 -4 -10 -10z"/>
</g>
<g>
<path d="M1700 3041 c0 -10 30 -24 37 -17 3 3 2 9 -2 15 -8 13 -35 15 -35 2z"/>
</g>
<g>
<path d="M1913 2633 c-7 -2 -13 -9 -13 -15 0 -12 41 -6 41 7 1 12 -11 15 -28
8z"/>
</g>
<g>
<path d="M1913 2565 c5 -13 87 -19 87 -7 0 6 -20 12 -45 14 -27 2 -44 -1 -42
-7z"/>
</g>
<g>
<path d="M1050 1948 c0 -7 -7 -26 -15 -42 -17 -33 -12 -47 10 -25 19 19 31 79
16 79 -6 0 -11 -6 -11 -12z"/>
</g>
<g>
<path d="M333 1063 c-7 -2 -13 -11 -13 -19 0 -12 4 -12 20 -2 31 20 26 35 -7
21z"/>
</g>
<g>
<path d="M505 560 c-3 -6 1 -7 9 -4 18 7 21 14 7 14 -6 0 -13 -4 -16 -10z"/>
</g>
<g>
<path d="M2820 555 c0 -8 9 -15 20 -15 11 0 20 7 20 15 0 8 -9 15 -20 15 -11
0 -20 -7 -20 -15z"/>
</g>
<g>
<path d="M2280 300 c-38 -3 -60 -8 -52 -13 8 -6 12 -36 12 -93 0 -76 2 -85 18
-82 13 2 18 15 20 51 4 58 27 64 41 9 7 -25 21 -43 41 -56 39 -23 50 -13 21
18 -29 31 -38 87 -17 105 21 18 20 44 -1 56 -10 6 -47 8 -83 5z m40 -40 c0
-23 -4 -30 -20 -30 -16 0 -20 7 -20 30 0 23 4 30 20 30 16 0 20 -7 20 -30z"/>
</g>
<g>
<path d="M2641 296 c-27 -33 -7 -60 69 -96 20 -10 24 -44 6 -59 -21 -18 -66
-3 -66 21 0 16 -3 18 -14 9 -8 -6 -16 -22 -18 -36 -6 -27 11 -35 83 -35 55 0
73 16 73 66 0 43 -22 65 -71 73 -29 5 -38 11 -38 26 0 25 37 32 55 10 18 -22
30 -19 30 8 0 22 -5 24 -49 26 -32 1 -52 -4 -60 -13z"/>
</g>
<g>
<path d="M1681 291 l-24 -6 24 -11 c18 -9 28 -26 38 -63 18 -69 39 -111 57
-111 8 0 24 21 35 46 23 51 32 49 70 -12 25 -41 36 -43 51 -6 6 15 17 41 24
57 7 17 15 42 19 57 4 15 13 29 21 32 25 10 15 26 -16 26 -26 0 -30 -3 -30
-29 0 -26 -25 -101 -34 -101 -2 0 -16 18 -30 41 -30 45 -28 65 6 79 17 6 2 9
-57 9 -75 1 -78 0 -57 -15 36 -25 45 -50 31 -89 -7 -19 -15 -35 -19 -35 -3 0
-16 30 -30 67 -26 69 -35 77 -79 64z"/>
</g>
<g>
<path d="M2055 278 c-32 -28 -47 -87 -31 -119 13 -27 62 -57 95 -58 37 -1 91
45 90 77 -3 102 -88 157 -154 100z m89 -20 c32 -46 10 -138 -33 -138 -39 0
-59 70 -36 126 17 40 46 45 69 12z"/>
</g>
<g>
<path d="M2428 291 c10 -6 13 -32 11 -97 -2 -87 -1 -89 21 -92 36 -6 99 19
121 46 24 31 25 94 2 117 -9 9 -27 21 -40 26 -31 11 -133 12 -115 0z m114 -72
c9 -44 -17 -93 -53 -97 -25 -3 -25 -2 -26 70 -1 40 1 76 3 80 3 4 19 2 37 -5
24 -10 33 -22 39 -48z"/>
</g>
<g>
<path d="M72 185 l3 -100 31 -3 31 -3 -5 50 c-4 49 -4 51 20 51 24 0 78 34 78
49 0 4 -6 16 -14 26 -10 15 -31 21 -80 25 l-67 6 3 -101z m97 71 c9 -10 9 -20
0 -40 -14 -31 -33 -29 -37 3 -7 44 14 65 37 37z"/>
</g>
<g>
<path d="M666 188 c4 -57 8 -104 9 -106 3 -4 51 -5 98 -3 24 1 27 5 27 36 0
40 -17 47 -26 10 -5 -19 -13 -25 -35 -25 -26 0 -29 3 -29 34 0 34 20 61 28 38
7 -22 32 -13 32 12 0 26 -21 47 -28 28 -2 -7 -10 -12 -18 -12 -9 0 -14 11 -14
35 0 32 3 35 29 35 16 0 32 -6 34 -12 4 -10 8 -10 16 2 16 24 3 30 -65 30
l-65 0 7 -102z"/>
</g>
<g>
<path d="M1519 275 c-15 -8 -29 -21 -32 -30 -8 -19 30 -55 59 -55 15 0 24 -8
28 -26 14 -55 -47 -73 -72 -21 -15 31 -32 36 -32 10 0 -10 -3 -28 -6 -39 -5
-18 -1 -22 18 -24 46 -3 140 -2 144 3 3 3 6 18 8 33 4 39 -37 84 -77 84 -25 0
-28 3 -25 28 3 31 44 45 54 18 10 -25 34 -19 34 9 0 22 -4 25 -37 25 -21 -1
-50 -7 -64 -15z"/>
</g>
<g>
<path d="M272 268 c14 -12 14 -21 -6 -100 -20 -80 -20 -88 -5 -88 12 0 18 12
23 42 4 22 10 46 14 52 3 6 7 16 8 21 0 6 2 19 3 30 2 12 9 1 20 -30 45 -122
39 -115 84 -115 22 0 37 3 33 8 -4 4 -13 7 -19 7 -9 0 -56 110 -73 173 -2 7
-21 12 -51 12 -39 0 -44 -2 -31 -12z"/>
</g>
<g>
<path d="M474 256 c-25 -21 -29 -31 -27 -71 1 -32 7 -51 20 -61 33 -27 78 -42
111 -37 28 5 32 9 32 34 0 30 -3 32 -53 44 -25 5 -28 3 -22 -15 5 -15 3 -18
-9 -14 -21 8 -30 60 -16 95 14 34 44 38 60 9 14 -25 28 -18 26 12 -1 20 -7 23
-47 26 -38 2 -52 -2 -75 -22z"/>
</g>
<g>
<path d="M1137 266 c-17 -13 -19 -52 -3 -89 9 -18 4 -59 -9 -89 -5 -13 -3 -18
9 -18 21 0 36 31 36 73 0 26 5 36 20 40 25 6 27 29 3 26 -33 -3 -43 1 -43 16
0 8 7 15 15 15 18 0 19 14 2 28 -8 7 -17 7 -30 -2z"/>
</g>
<g>
<path d="M1012 174 c-12 -8 -22 -19 -22 -25 0 -15 56 -69 72 -69 37 0 55 63
27 91 -23 23 -47 24 -77 3z m62 -21 c8 -19 -17 -48 -33 -39 -12 8 -15 39 -4
49 12 12 31 7 37 -10z"/>
</g>
<g>
<path d="M2860 126 c0 -10 9 -16 21 -16 24 0 21 23 -4 28 -10 2 -17 -3 -17
-12z"/>
</g>
</g>
</g>
</svg>
