<?xml version="1.0" standalone="no"?>
<!DOCTYPE svg PUBLIC "-//W3C//DTD SVG 20010904//EN"
 "http://www.w3.org/TR/2001/REC-SVG-20010904/DTD/svg10.dtd">
<svg version="1.0" xmlns="http://www.w3.org/2000/svg"
 width="300.000000pt" height="527.000000pt" viewBox="0 0 300.000000 527.000000"
 preserveAspectRatio="xMidYMid meet">
<metadata>
Created by potrace 1.15, written by Peter Selinger 2001-2017
</metadata>
<g transform="translate(0.000000,527.000000) scale(0.100000,-0.100000)"
fill="#000000" stroke="none">
<g>
<path d="M11 5258 c-2 -7 -5 -1190 -7 -2630 -5 -2518 -5 -2616 13 -2622 14 -4
2886 -1 2966 3 16 1 17 133 17 2631 l0 2630 -1493 0 c-1187 0 -1494 -3 -1496
-12z m619 -21 c955 6 2358 8 2355 3 -2 -3 -6 -475 -9 -1050 -4 -575 -9 -1175
-11 -1335 -3 -159 -5 -514 -5 -788 l0 -498 -37 30 c-48 39 -76 39 -105 1 -29
-40 -65 -63 -83 -53 -8 5 -41 34 -73 66 -34 32 -69 57 -80 57 -14 0 -40 -23
-75 -67 -64 -81 -150 -163 -170 -163 -19 0 -27 51 -27 183 0 105 1 107 20 97
14 -8 26 -8 40 0 24 13 25 23 5 40 -13 11 -13 14 -1 24 7 6 16 35 19 64 l6 53
-33 -28 c-19 -16 -38 -43 -43 -63 -7 -25 -12 48 -18 260 -10 377 -10 371 -2
720 7 290 16 365 44 383 12 8 2 47 -29 113 -6 12 -11 121 -11 250 -2 220 -1
229 17 226 10 -2 22 2 27 9 6 11 12 11 32 0 29 -15 47 -8 47 18 0 11 -15 25
-40 36 -22 10 -40 21 -40 25 0 4 16 15 35 24 40 19 44 34 14 59 -13 12 -18 24
-14 37 4 11 3 20 -1 20 -17 0 -54 -45 -54 -66 0 -26 -17 -41 -31 -27 -4 4 -11
55 -14 112 -5 99 -4 106 17 129 21 21 23 33 23 126 0 78 -4 111 -19 143 -15
35 -17 53 -11 110 8 65 9 66 18 36 11 -35 27 -42 46 -19 8 9 10 32 5 66 -6 44
-4 54 15 74 27 28 13 43 -21 24 -13 -7 -27 -14 -33 -14 -5 -1 -14 -2 -19 -3
-5 0 -4 -7 2 -14 7 -8 7 -19 -2 -36 -12 -22 -13 -20 -19 28 -3 29 -2 62 2 74
8 21 6 62 -5 115 -6 32 -71 31 -106 -1 -43 -40 -61 -74 -52 -99 15 -40 11 -89
-6 -85 -11 2 -14 14 -12 44 2 36 -1 42 -20 45 -17 2 -25 12 -30 38 -15 74 -21
91 -32 87 -13 -4 -28 -84 -21 -113 3 -13 -3 -28 -15 -39 -23 -21 -27 -65 -6
-65 8 0 18 5 21 10 7 11 65 14 65 3 0 -4 -9 -17 -21 -29 -12 -12 -18 -27 -14
-33 8 -15 48 -14 63 1 9 10 16 9 29 -4 13 -14 17 -54 24 -248 7 -226 7 -231
-14 -267 -24 -39 -43 -60 -103 -113 -40 -37 -61 -60 -89 -104 -13 -20 -26 -26
-51 -26 -19 0 -34 -4 -34 -10 0 -13 -66 -13 -91 1 -11 5 -24 21 -29 35 -5 13
-18 27 -27 30 -10 3 -26 10 -35 15 -10 5 -38 9 -63 9 -43 0 -47 2 -73 44 -15
25 -35 47 -44 49 -16 5 -16 2 2 -20 29 -37 27 -73 -4 -73 -14 0 -27 -4 -30 -9
-11 -17 28 -22 105 -15 69 6 81 4 113 -16 20 -12 36 -28 36 -36 0 -8 20 -36
45 -62 51 -53 54 -62 23 -62 -24 0 -63 20 -40 20 6 0 12 6 12 13 0 19 -297 71
-360 63 -94 -12 -172 -51 -247 -120 -60 -55 -35 -4 27 56 33 31 60 60 60 63 0
14 -29 2 -50 -20 -13 -14 -31 -25 -41 -25 -19 0 -69 -44 -69 -60 0 -6 -4 -10
-10 -10 -5 0 -10 4 -10 9 0 11 96 101 109 101 5 0 16 6 23 13 47 47 172 107
222 107 8 0 27 5 41 12 33 15 31 51 -3 56 -35 5 -23 34 23 58 22 11 41 28 43
36 2 9 -9 35 -23 57 -21 30 -25 47 -20 69 5 26 2 34 -28 56 -19 14 -39 26 -44
26 -26 0 -21 30 7 47 39 22 57 65 42 98 -9 20 -19 25 -50 25 -43 0 -62 14 -62
46 0 13 -5 26 -11 29 -6 4 -7 19 -4 37 9 40 -11 109 -41 142 -19 20 -34 26
-67 26 -23 0 -49 4 -57 9 -29 19 -31 -2 -2 -33 23 -24 31 -43 35 -81 2 -27 8
-60 12 -72 6 -18 4 -21 -12 -17 -11 3 -52 -6 -93 -20 -40 -14 -82 -26 -91 -26
-26 0 -87 -56 -110 -101 -10 -21 -19 -54 -19 -74 0 -30 -3 -35 -24 -35 -27 0
-76 -51 -76 -79 0 -38 38 -70 90 -77 42 -6 52 -11 65 -36 8 -17 12 -34 9 -39
-3 -5 0 -9 5 -9 6 0 11 -9 11 -19 0 -11 9 -26 20 -34 12 -8 18 -21 15 -29 -7
-18 14 -37 52 -47 20 -5 28 -14 30 -32 2 -39 -17 -71 -72 -119 -49 -42 -52
-49 -59 -105 -4 -33 -9 -100 -10 -150 -2 -51 -10 -114 -20 -145 -13 -43 -16
-75 -12 -145 6 -91 -6 -375 -23 -585 -10 -111 -45 -955 -46 -1090 0 -64 0 -65
38 -89 26 -17 37 -31 37 -49 0 -28 26 -62 47 -62 8 0 13 -13 13 -37 0 -72 31
-68 -481 -68 l-462 0 3 545 c6 1112 8 1816 9 2612 l1 817 63 4 c34 2 109 1
167 -2 58 -3 220 -5 360 -4z m1630 -396 c0 -3 -10 -12 -21 -19 -22 -14 -47 -3
-35 16 6 10 56 13 56 3z m-50 -62 c0 -3 -11 -15 -25 -27 -28 -25 -39 -15 -30
27 6 26 8 28 30 17 14 -6 25 -14 25 -17z m-170 11 c0 -5 -4 -10 -10 -10 -5 0
-10 5 -10 10 0 6 5 10 10 10 6 0 10 -4 10 -10z m197 -72 c-3 -7 -5 -2 -5 12 0
14 2 19 5 13 2 -7 2 -19 0 -25z m-948 -53 c14 -56 14 -68 -1 -63 -6 2 -17 29
-23 60 -14 69 7 72 24 3z m731 35 c-19 -13 -30 -13 -30 0 0 6 10 10 23 10 18
0 19 -2 7 -10z m147 -32 c-3 -8 -6 -5 -6 6 -1 11 2 17 5 13 3 -3 4 -12 1 -19z
m-82 -38 c-3 -5 -11 -10 -16 -10 -6 0 -7 5 -4 10 3 6 11 10 16 10 6 0 7 -4 4
-10z m125 -32 c-3 -24 -11 -42 -17 -41 -8 2 -7 -7 3 -25 18 -34 18 -58 0 -65
-10 -4 -13 1 -11 20 1 14 -4 45 -11 71 -18 59 -18 70 4 75 36 10 38 8 32 -35z
m37 -20 c-3 -7 -5 -2 -5 12 0 14 2 19 5 13 2 -7 2 -19 0 -25z m-957 -43 c0 -3
-9 -1 -20 5 -11 6 -20 18 -20 27 0 14 3 13 20 -5 11 -12 20 -24 20 -27z m-54
-20 c8 -10 10 -23 7 -29 -4 -6 -6 -22 -5 -37 1 -17 -4 -29 -14 -33 -9 -4 -13
-13 -10 -23 7 -22 -44 -53 -123 -77 -68 -20 -69 -20 -67 2 1 11 -5 16 -18 14
-16 -3 -18 1 -13 27 4 19 2 31 -4 31 -6 0 -17 6 -24 14 -12 12 -11 16 5 31 15
13 17 21 9 31 -12 15 17 34 53 34 13 0 39 9 58 19 44 25 127 22 146 -4z m94
-35 c0 -5 -4 -10 -10 -10 -5 0 -10 5 -10 10 0 6 5 10 10 10 6 0 10 -4 10 -10z
m879 -51 c-14 -10 -26 -14 -28 -8 -4 13 31 39 43 32 5 -3 -2 -14 -15 -24z
m-932 -21 c-3 -8 -6 -5 -6 6 -1 11 2 17 5 13 3 -3 4 -12 1 -19z m998 -1 c16
-25 40 -178 32 -199 -3 -7 -6 2 -6 21 -1 33 -1 34 -21 16 -29 -26 -38 -10 -11
19 32 34 17 55 -18 24 l-26 -23 28 31 c27 30 35 54 17 54 -5 0 -32 -24 -60
-52 -27 -29 -50 -48 -50 -41 0 6 6 18 13 25 81 83 99 108 82 114 -11 5 -29 -6
-56 -32 -21 -21 -39 -34 -39 -29 0 11 81 95 92 95 4 0 14 -10 23 -23z m-857
-11 c-2 -1 -19 -13 -38 -26 l-35 -23 30 30 c17 17 34 28 38 26 5 -3 7 -6 5 -7z
m-110 -32 c-34 -18 -37 -38 -5 -29 51 15 -173 -107 -233 -125 -113 -36 -260
-36 -260 -1 0 6 7 8 15 5 8 -4 15 -2 15 2 0 5 17 10 37 12 20 1 40 7 43 12 3
5 26 12 50 16 53 8 185 57 255 96 28 15 64 28 80 27 l30 0 -27 -15z m126 -106
c18 -17 18 -18 -2 -58 -20 -42 -15 -56 17 -45 12 4 21 0 25 -12 3 -10 8 -23
11 -29 3 -7 -11 -18 -33 -27 -44 -18 -66 -41 -68 -71 -1 -12 -2 -28 -3 -37 -1
-23 -27 -31 -76 -23 -65 9 -72 17 -41 50 28 31 31 45 16 73 -6 12 -5 29 2 49
10 27 9 37 -11 77 -22 45 -22 47 -5 60 27 20 43 18 37 -4 -6 -25 7 -32 43 -22
32 8 33 28 0 23 -19 -2 -19 -2 -3 8 9 6 17 18 17 26 0 12 5 12 28 -3 15 -10
35 -26 46 -35z m-214 -53 l25 -14 -32 -1 c-23 0 -33 5 -33 15 0 18 8 18 40 0z
m1040 -22 c-8 -3 -17 -9 -20 -13 -3 -4 -16 -11 -29 -15 -17 -5 -22 -4 -19 6 4
13 39 27 68 27 13 0 13 0 0 -5z m-1022 -40 c2 -13 -1 -23 -7 -23 -6 0 -11 7
-11 16 0 10 -6 14 -15 10 -9 -3 -15 0 -15 10 0 25 44 13 48 -13z m-255 -24 c4
-15 2 -19 -10 -15 -8 3 -17 6 -19 6 -2 0 -4 7 -4 15 0 23 27 18 33 -6z m165
-9 c17 -11 32 -24 32 -29 0 -21 -17 -18 -48 10 -49 44 -41 53 16 19z m102 -49
c0 -30 -33 -81 -45 -69 -4 3 1 18 10 32 10 14 15 32 12 40 -6 15 1 26 15 26 4
0 8 -13 8 -29z m-169 -26 c5 -33 -11 -65 -31 -65 -27 0 -34 17 -10 23 21 5 27
31 10 42 -8 5 -7 11 1 21 14 17 26 8 30 -21z m1078 -132 c1 -42 -3 -73 -9 -73
-5 0 -12 -11 -16 -25 -7 -29 -19 -32 -33 -8 -9 17 -11 16 -31 -2 -11 -10 -18
-25 -16 -32 3 -7 0 -15 -6 -19 -6 -4 -8 -21 -5 -41 4 -24 2 -33 -6 -30 -8 2
-13 39 -15 114 l-3 110 36 44 c19 24 48 63 63 85 l27 42 7 -47 c3 -25 7 -79 7
-118z m-979 61 c0 -9 -5 -14 -12 -12 -18 6 -21 28 -4 28 9 0 16 -7 16 -16z m0
-35 c20 0 17 -3 -15 -13 -45 -14 -55 -12 -55 11 0 11 6 14 23 9 12 -3 33 -6
47 -7z m65 1 c-3 -5 -10 -10 -16 -10 -5 0 -9 5 -9 10 0 6 7 10 16 10 8 0 12
-4 9 -10z m1125 -5 c0 -8 -4 -15 -10 -15 -5 0 -10 7 -10 15 0 8 5 15 10 15 6
0 10 -7 10 -15z m-90 -65 c0 -5 -4 -10 -10 -10 -5 0 -10 5 -10 10 0 6 5 10 10
10 6 0 10 -4 10 -10z m37 -12 c-3 -8 -6 -5 -6 6 -1 11 2 17 5 13 3 -3 4 -12 1
-19z m-326 -60 c0 -24 1 -153 2 -288 l2 -245 25 3 c16 3 21 0 15 -6 -10 -10
-135 -35 -170 -34 -35 1 -109 18 -132 30 -25 14 -33 15 -33 4 0 -4 22 -21 50
-37 27 -17 50 -33 50 -37 0 -12 -13 -9 -34 7 -26 19 -56 19 -56 0 0 -8 -4 -15
-10 -15 -5 0 -10 5 -10 11 0 6 -7 9 -15 5 -11 -4 -15 2 -15 25 0 40 -16 69
-38 69 -10 0 -26 14 -35 30 -10 17 -16 30 -13 30 15 0 197 -56 234 -72 52 -22
52 -22 52 -4 0 21 -10 25 -149 66 -136 39 -202 74 -223 117 -16 34 -91 62
-166 63 -38 0 -52 4 -50 13 7 19 225 31 318 17 117 -17 168 -42 228 -110 71
-80 70 -95 -3 -60 -22 11 -44 19 -49 20 -4 0 -29 15 -55 33 -57 42 -170 87
-216 87 -61 0 -46 -16 33 -34 76 -18 165 -56 177 -77 4 -6 37 -24 74 -41 73
-33 108 -61 123 -98 9 -23 10 -24 22 -7 7 9 18 17 23 17 15 0 22 96 12 160 -4
30 -10 125 -11 211 -2 121 0 160 11 172 22 27 32 20 32 -25z m-106 12 c4 -7
11 -8 18 -1 9 7 13 -34 15 -162 1 -95 7 -210 12 -256 10 -91 7 -107 -16 -77
-10 15 -11 23 -2 33 11 13 8 18 -49 81 -7 7 -13 19 -13 25 1 7 9 2 19 -10 11
-13 22 -23 25 -23 13 0 5 41 -11 55 -15 13 -18 32 -17 118 0 56 4 110 8 120 6
13 4 17 -12 17 -28 0 -34 13 -17 36 8 10 15 27 15 37 0 19 15 23 25 7z m515 0
c0 -5 -2 -10 -4 -10 -3 0 -8 5 -11 10 -3 6 -1 10 4 10 6 0 11 -4 11 -10z
m-895 -9 c28 -6 27 -7 -18 -14 -112 -16 -155 -36 -228 -105 -39 -37 -77 -83
-85 -102 -8 -19 -20 -39 -27 -45 -7 -5 -21 -45 -31 -89 -15 -64 -16 -80 -5
-87 19 -11 29 -2 30 29 1 20 3 17 9 -13 6 -30 4 -42 -6 -48 -39 -22 -69 -164
-50 -238 6 -26 17 -53 24 -62 18 -22 5 -40 -23 -33 -18 5 -25 0 -35 -25 -19
-45 -34 -21 -19 29 13 44 6 83 -12 65 -16 -16 -36 -106 -29 -133 7 -31 44 -38
71 -14 18 16 19 16 19 -2 0 -27 -31 -106 -50 -129 -24 -27 -44 -89 -37 -109
12 -30 37 -19 37 17 0 17 11 49 24 70 l24 39 4 -49 c6 -62 1 -223 -11 -388
-25 -318 -33 -484 -27 -517 7 -39 20 -48 72 -48 19 0 34 -5 34 -11 0 -6 -14
-9 -32 -7 l-33 3 -7 -85 c-6 -74 -19 -383 -18 -448 0 -20 -4 -22 -22 -17 -13
4 -27 11 -32 16 -12 10 -11 143 1 161 4 7 9 45 10 83 1 39 4 84 6 100 4 22 0
34 -15 46 -23 18 -23 -2 13 319 16 137 18 662 3 667 -8 2 -13 -78 -17 -264 -6
-258 -15 -400 -37 -603 -7 -62 -7 -135 -1 -210 8 -106 3 -145 -16 -127 -10 10
-3 449 7 462 9 11 11 78 11 390 -1 116 3 285 9 376 5 98 5 191 0 229 -6 39 -5
83 1 118 6 31 8 75 4 99 -6 41 6 60 19 28 7 -19 36 -20 36 0 0 8 -5 25 -11 39
-10 20 -8 30 9 58 17 29 19 41 11 103 -5 39 -7 81 -4 95 3 14 7 50 10 82 7 93
98 213 205 268 64 34 165 47 235 31z m619 -72 c-19 -32 -44 -50 -44 -31 0 11
53 72 59 66 2 -1 -5 -18 -15 -35z m-442 13 c15 -15 0 -16 -34 -3 -13 5 -70 5
-133 -1 -108 -8 -156 -23 -182 -56 -7 -9 -16 -12 -20 -8 -16 15 17 42 78 64
55 19 79 22 172 19 64 -2 112 -8 119 -15z m-135 -28 c-3 -3 -12 -4 -19 -1 -8
3 -5 6 6 6 11 1 17 -2 13 -5z m278 -4 c15 -6 23 -15 19 -21 -3 -6 -6 -40 -6
-75 0 -54 -2 -63 -13 -54 -10 8 -12 26 -8 66 5 42 3 54 -8 54 -8 0 -25 9 -39
20 l-25 20 27 0 c15 0 39 -4 53 -10z m-390 -10 c-3 -5 -16 -10 -28 -10 -18 0
-19 2 -7 10 20 13 43 13 35 0z m776 -23 c-8 -8 -11 -7 -11 4 0 20 13 34 18 19
3 -7 -1 -17 -7 -23z m-475 -8 c18 -15 18 -25 -2 -33 -9 -4 -24 0 -34 9 -9 8
-32 15 -51 15 -54 0 -109 12 -109 23 0 14 177 2 196 -14z m440 -160 l6 -174
-32 -18 c-18 -10 -35 -15 -38 -13 -3 3 2 36 11 73 22 93 37 202 37 264 0 29 2
50 5 47 3 -3 8 -83 11 -179z m-892 148 c-6 -15 -64 -52 -64 -40 0 7 59 53 67
53 1 0 0 -6 -3 -13z m506 -2 c0 -8 -4 -15 -10 -15 -5 0 -10 7 -10 15 0 8 5 15
10 15 6 0 10 -7 10 -15z m450 -46 c0 -24 -15 -32 -29 -15 -7 8 -9 25 -5 42 7
26 8 26 20 9 8 -11 14 -27 14 -36z m-613 25 c53 -6 65 -11 80 -33 9 -14 23
-32 30 -40 23 -22 7 -24 -44 -6 -36 13 -99 19 -248 25 -110 4 -202 8 -205 9
-3 1 2 6 10 11 8 5 23 7 32 4 20 -6 148 24 163 38 6 6 34 7 65 4 30 -3 83 -9
117 -12z m158 -48 c0 -16 8 -34 17 -40 17 -12 42 -65 35 -72 -2 -3 -19 10 -37
28 -28 26 -34 40 -35 75 -1 47 18 55 20 9z m345 -1 c0 -8 -4 -15 -10 -15 -5 0
-7 7 -4 15 4 8 8 15 10 15 2 0 4 -7 4 -15z m-890 -25 c0 -5 -4 -10 -10 -10 -5
0 -10 5 -10 10 0 6 5 10 10 10 6 0 10 -4 10 -10z m830 -39 c0 -9 5 -22 10 -27
8 -8 6 -15 -5 -24 -8 -7 -15 -21 -15 -31 0 -10 -5 -21 -10 -24 -8 -5 -10 15
-6 62 5 81 4 76 16 68 6 -3 10 -14 10 -24z m-865 9 c3 -5 16 -10 28 -11 12 -1
3 -5 -20 -11 -24 -5 -43 -14 -43 -20 0 -6 -2 -9 -5 -6 -8 8 13 58 24 58 5 0
13 -4 16 -10z m101 -79 c-1 -54 -11 -59 -31 -17 -18 38 -14 56 14 56 14 0 17
-8 17 -39z m78 23 c9 -23 -3 -32 -17 -13 -7 9 -18 14 -24 12 -7 -3 -13 0 -13
6 0 18 47 13 54 -5z m76 -49 c41 -21 37 -35 -10 -35 -22 0 -40 -4 -40 -10 0
-6 26 -10 59 -10 34 0 63 -5 67 -11 5 -9 -4 -10 -30 -5 -35 7 -40 4 -77 -36
-27 -30 -39 -38 -39 -26 0 23 -35 41 -63 33 l-22 -6 22 18 c12 10 34 26 48 36
14 11 30 30 35 43 11 28 12 29 50 9z m-80 -4 c0 -11 -39 -25 -47 -18 -3 3 -2
10 2 16 8 13 45 15 45 2z m866 -69 c-9 -9 -37 8 -31 18 5 8 11 7 21 -1 8 -6
12 -14 10 -17z m-701 -32 c18 -11 36 -27 39 -35 3 -8 12 -15 21 -15 24 0 19
-56 -6 -74 -27 -18 -61 -10 -35 9 17 13 22 55 6 55 -5 0 -10 -4 -10 -10 0 -5
-7 -10 -15 -10 -8 0 -24 -6 -35 -12 -17 -11 -22 -10 -30 2 -13 20 -12 30 3 30
17 1 63 37 55 45 -3 4 -16 1 -28 -5 -12 -6 -28 -9 -37 -6 -12 5 -11 10 8 26
30 24 25 24 64 0z m726 -16 c17 -8 29 -18 26 -21 -3 -2 -14 0 -25 6 -12 6 -33
11 -47 11 -40 0 -25 -24 18 -28 19 -2 41 -10 47 -18 7 -8 19 -14 26 -14 8 0
14 -7 14 -15 0 -19 -14 -19 -29 -1 -22 26 -101 30 -101 5 0 -5 8 -9 19 -9 10
0 31 -7 47 -15 l28 -14 -45 2 c-35 2 -43 -1 -41 -14 2 -12 -14 -20 -62 -33
-89 -24 -101 -21 -100 32 0 30 7 48 22 62 12 11 24 20 27 20 3 0 26 13 53 30
53 34 80 37 123 14z m-955 -19 c-25 -19 -36 -19 -36 0 0 10 10 15 28 15 26 -1
26 -1 8 -15z m-106 -27 c0 -5 -7 -3 -15 6 -8 8 -15 18 -15 22 0 3 7 1 15 -6 8
-7 15 -17 15 -22z m188 -15 c18 -43 48 -83 69 -92 13 -6 23 -18 23 -26 0 -12
-4 -14 -19 -5 -11 5 -27 7 -35 4 -11 -4 -16 0 -16 12 0 11 -16 34 -35 51 -34
31 -35 33 -18 53 21 24 22 24 31 3z m-183 -15 c5 4 5 1 1 -6 -4 -7 -12 -10
-17 -6 -6 3 -7 -4 -3 -20 3 -15 2 -26 -4 -26 -12 0 -22 37 -15 56 4 10 9 11
18 4 6 -5 16 -6 20 -2z m799 -54 c-6 -32 -8 -35 -14 -18 -10 27 -1 79 12 66 5
-5 6 -26 2 -48z m-49 26 c-3 -5 -15 -10 -26 -10 -10 0 -19 5 -19 10 0 6 12 10
26 10 14 0 23 -4 19 -10z m-838 -47 c-3 -10 -5 -2 -5 17 0 19 2 27 5 18 2 -10
2 -26 0 -35z m744 25 c-20 -50 -43 -88 -54 -88 -8 0 -7 4 1 12 7 7 12 18 12
26 0 13 37 72 45 72 3 0 1 -10 -4 -22z m-182 -23 c23 -24 43 -35 65 -36 l31
-1 -33 -11 c-25 -8 -32 -15 -30 -31 2 -13 12 -22 26 -24 18 -3 22 -10 21 -35
0 -29 -1 -30 -9 -9 -6 12 -18 22 -30 22 -13 0 -20 7 -20 18 0 36 -47 54 -94
36 -27 -10 -18 -24 17 -24 24 0 28 -3 17 -10 -8 -5 -28 -7 -45 -5 -44 8 -59
-5 -44 -38 13 -28 8 -44 -10 -32 -6 3 -11 22 -11 41 0 19 -4 34 -9 34 -23 0
-41 -14 -41 -31 0 -25 -16 -24 -23 1 -6 22 -36 27 -55 8 -9 -9 -7 -17 11 -36
22 -24 22 -24 -31 3 -29 15 -54 30 -57 35 -2 4 9 17 25 29 17 12 30 29 30 38
0 13 7 10 31 -13 27 -26 32 -27 42 -13 7 9 21 19 32 22 11 3 30 8 43 12 16 5
22 2 22 -9 0 -9 4 -16 9 -16 15 0 33 28 29 48 -3 17 35 61 52 62 3 0 20 -16
39 -35z m254 0 c18 5 25 -1 37 -27 17 -37 21 -68 10 -68 -4 0 -10 9 -13 20 -5
18 -8 19 -31 9 -15 -7 -28 -23 -31 -40 -9 -41 -22 -36 -17 6 2 19 -1 41 -7 49
-8 9 -8 22 0 46 10 27 13 30 21 16 6 -10 17 -14 31 -11z m324 9 c-3 -3 -12 -4
-19 -1 -8 3 -5 6 6 6 11 1 17 -2 13 -5z m-510 -10 c-3 -3 -12 -4 -19 -1 -8 3
-5 6 6 6 11 1 17 -2 13 -5z m420 -297 c1 -144 4 -486 6 -759 3 -292 1 -498 -4
-498 -5 0 -9 6 -9 14 0 8 -11 28 -24 43 -22 25 -27 26 -45 15 -12 -7 -21 -8
-21 -4 0 5 -15 17 -34 27 -33 18 -33 18 -67 -8 -19 -14 -43 -40 -54 -57 -11
-17 -30 -37 -42 -46 l-23 -14 0 81 c0 45 6 127 14 183 8 55 18 128 21 161 8
67 16 76 57 68 37 -7 78 28 70 59 -3 13 1 26 13 34 21 15 18 52 -14 166 -18
65 -19 84 -10 130 6 29 15 85 19 123 4 39 14 88 23 110 10 28 16 99 21 229 3
104 7 190 9 192 6 7 82 21 87 17 3 -3 6 -122 7 -266z m83 263 c-8 -5 -15 -19
-15 -31 0 -12 -6 -24 -12 -26 -9 -3 -13 7 -13 31 0 33 3 36 28 36 20 0 23 -3
12 -10z m-930 -25 c0 -8 -4 -15 -10 -15 -5 0 -10 7 -10 15 0 8 5 15 10 15 6 0
10 -7 10 -15z m-84 -211 c-6 -16 -8 -15 -21 2 -13 18 -14 18 -20 2 -4 -10 -11
-18 -17 -18 -13 0 -3 103 11 108 16 5 14 22 -4 22 -21 0 -19 13 5 28 11 7 20
20 20 30 0 10 3 22 8 26 9 10 26 -178 18 -200z m554 196 c0 -5 -7 -10 -15 -10
-8 0 -15 5 -15 10 0 6 7 10 15 10 8 0 15 -4 15 -10z m62 -36 c-3 -16 -7 -21
-12 -14 -9 15 -1 52 10 45 4 -2 5 -16 2 -31z m-542 -48 c0 -3 -9 -1 -20 6 -11
7 -20 21 -20 32 0 16 3 15 20 -7 11 -14 20 -28 20 -31z m318 6 c2 -7 -4 -15
-13 -18 -20 -8 -27 -1 -19 20 7 18 25 17 32 -2z m247 -12 c-3 -5 -10 -10 -16
-10 -5 0 -9 5 -9 10 0 6 7 10 16 10 8 0 12 -4 9 -10z m-526 -77 c3 -2 -11 0
-30 3 -40 8 -54 18 -44 33 5 10 33 -4 74 -36z m41 37 c0 -5 -7 -10 -15 -10 -8
0 -15 5 -15 10 0 6 7 10 15 10 8 0 15 -4 15 -10z m124 -15 c11 -8 18 -15 15
-16 -53 -8 -59 -7 -59 12 0 23 17 24 44 4z m706 1 c0 -8 6 -16 13 -19 9 -3 9
-7 -1 -19 -7 -9 -9 -19 -4 -22 12 -7 7 -95 -7 -109 -8 -8 -11 0 -11 34 0 24
-3 68 -6 97 -5 36 -3 52 5 52 6 0 11 -6 11 -14z m-403 -8 c-2 -7 2 -30 9 -52
16 -45 18 -59 5 -52 -4 3 -14 26 -21 51 -14 49 -26 63 -41 48 -12 -12 -61 -4
-53 8 9 15 106 11 101 -3z m-157 -30 c15 -19 28 -23 69 -22 47 0 51 -1 61 -29
14 -41 13 -47 -9 -47 -10 0 -30 -9 -44 -20 -34 -27 -37 -26 -30 14 4 25 1 35
-12 40 -21 8 -49 -24 -34 -38 5 -6 9 -20 9 -32 0 -12 6 -24 14 -27 7 -3 17
-26 20 -50 4 -26 13 -48 22 -51 8 -3 19 -17 24 -31 6 -15 17 -25 29 -25 29 0
33 -14 10 -33 -22 -19 -25 -37 -6 -37 6 0 22 -3 33 -6 23 -6 40 18 27 39 -11
17 -15 73 -4 62 7 -8 24 -107 46 -276 4 -29 0 -40 -20 -59 l-25 -23 0 41 c0
47 -20 72 -56 72 -29 0 -42 -24 -24 -45 13 -16 7 -45 -10 -45 -5 0 -10 11 -10
25 0 28 -6 30 -44 15 -37 -14 -32 5 8 29 19 12 37 28 40 37 8 22 7 44 -2 44
-12 0 -122 -110 -122 -123 0 -6 -7 -18 -15 -27 -11 -12 -13 -31 -8 -83 5 -62
8 -67 30 -67 20 0 22 4 17 25 -3 14 -3 33 1 42 6 17 7 17 19 1 8 -10 32 -21
57 -24 37 -5 50 -2 82 20 21 14 42 26 48 26 5 0 18 5 29 12 24 16 26 13 34
-49 6 -46 4 -52 -14 -58 -11 -3 -34 -18 -52 -33 -30 -25 -38 -27 -132 -26 -80
0 -104 -3 -114 -15 -12 -14 -13 -12 -9 11 2 15 -2 69 -9 120 -7 51 -13 121
-14 154 l0 61 38 5 c22 3 51 17 67 32 23 21 28 34 27 67 -1 22 -6 49 -12 59
-15 28 -12 37 11 43 19 5 19 7 5 35 -13 25 -20 29 -58 28 -38 -1 -43 -4 -41
-22 2 -16 -5 -24 -23 -28 -32 -8 -30 -11 -38 42 -4 26 -2 42 4 42 26 0 50 41
50 84 0 48 -37 106 -68 106 -39 1 38 30 101 39 5 0 17 -9 27 -21z m-538 -20
c-9 -9 -12 -7 -12 12 0 19 3 21 12 12 9 -9 9 -15 0 -24z m304 21 c45 -12 60
-29 24 -29 -31 0 -24 -20 10 -26 16 -4 27 -10 24 -15 -3 -5 -10 -7 -15 -3 -14
8 -49 -25 -49 -45 0 -9 7 -26 15 -39 12 -17 13 -26 5 -42 -9 -16 -8 -25 0 -36
7 -7 16 -12 20 -9 4 2 11 -74 15 -171 7 -172 6 -176 -15 -199 -24 -26 -18 -50
10 -42 14 4 19 -4 24 -42 5 -35 3 -49 -9 -57 -21 -16 -19 -44 6 -70 30 -32 19
-51 -31 -56 -22 -2 -43 -2 -46 1 -11 11 -3 90 11 101 20 16 20 100 0 126 -10
14 -14 48 -15 127 0 88 3 114 20 144 29 54 25 113 -7 113 -14 0 -15 17 -11
125 4 100 2 125 -9 125 -7 0 -13 -10 -13 -22 -1 -22 -1 -23 -15 -4 -17 23 -20
56 -4 56 5 0 30 -5 55 -11z m-109 -91 c-3 -7 -5 -2 -5 12 0 14 2 19 5 13 2 -7
2 -19 0 -25z m241 -13 c0 -14 -4 -28 -9 -31 -5 -3 -9 11 -9 31 0 20 4 34 9 31
5 -3 9 -17 9 -31z m-363 4 c-9 -13 9 -11 23 3 9 9 13 7 18 -6 4 -11 -1 -25
-14 -39 -26 -25 -30 -22 -38 27 -4 26 -2 36 5 31 6 -3 9 -11 6 -16z m187 -51
c-3 -59 -6 -68 -23 -68 -26 0 -33 22 -20 63 9 26 44 83 46 74 0 -1 -1 -32 -3
-69z m569 39 c-1 -12 -15 -9 -19 4 -3 6 1 10 8 8 6 -3 11 -8 11 -12z m-641
-16 c0 -19 -23 -35 -34 -24 -14 15 -5 43 14 43 13 0 20 -7 20 -19z m710 -11
c0 -5 -5 -10 -11 -10 -5 0 -7 5 -4 10 3 6 8 10 11 10 2 0 4 -4 4 -10z m-200
-25 c0 -8 -4 -15 -10 -15 -5 0 -10 7 -10 15 0 8 5 15 10 15 6 0 10 -7 10 -15z
m413 -7 c2 -7 -3 -19 -12 -26 -12 -10 -13 -15 -3 -18 17 -8 15 -31 -3 -38 -12
-4 -15 4 -15 38 0 23 3 46 7 49 10 11 21 8 26 -5z m-1008 -29 c10 -15 -1 -23
-20 -15 -9 3 -13 10 -10 16 8 13 22 13 30 -1z m587 -19 c-12 -11 -23 -20 -26
-20 -3 0 -10 9 -16 20 -10 18 -8 20 27 20 l37 0 -22 -20z m-289 -52 c2 -28 -1
-48 -9 -58 -12 -12 -14 -6 -14 43 0 66 16 77 23 15z m-291 -28 c8 -52 3 -379
-6 -460 -7 -55 -7 -77 -4 -115 1 -11 1 -84 0 -162 -2 -120 -4 -143 -17 -143
-18 0 -18 2 -4 51 7 20 8 46 4 56 -12 27 -15 156 -4 169 6 7 4 15 -5 23 -12
10 -14 64 -11 319 1 169 3 308 4 310 0 2 9 2 19 0 12 -2 19 -17 24 -48z m682
24 c3 -9 6 -25 6 -37 0 -19 -2 -19 -15 7 -8 15 -15 32 -15 37 0 15 17 10 24
-7z m-22 -73 c2 -22 0 -37 -4 -35 -8 5 -11 74 -4 74 2 0 6 -18 8 -39z m356
-76 c-2 -43 -8 -80 -13 -82 -7 -2 -10 20 -9 59 3 117 3 123 14 112 6 -6 10
-44 8 -89z m-652 55 c1 -32 -13 -41 -22 -15 -4 8 -1 22 6 30 16 19 15 20 16
-15z m343 -20 c0 -9 -4 -8 -9 5 -5 11 -9 27 -9 35 0 9 4 8 9 -5 5 -11 9 -27 9
-35z m-432 -17 c-4 -17 -4 -17 -12 0 -4 9 -4 25 0 35 8 16 8 16 12 0 3 -10 3
-26 0 -35z m138 37 c3 -5 1 -10 -4 -10 -6 0 -11 5 -11 10 0 6 2 10 4 10 3 0 8
-4 11 -10z m-265 -19 c0 -12 -20 -25 -27 -18 -7 7 6 27 18 27 5 0 9 -4 9 -9z
m192 -61 c3 -17 1 -33 -4 -36 -4 -3 -8 11 -8 30 0 44 6 47 12 6z m78 22 c0 -4
-5 -13 -12 -20 -7 -7 -16 -12 -20 -12 -13 0 -9 28 5 33 19 8 27 8 27 -1z
m-270 -77 l0 -65 -40 0 c-41 0 -54 14 -21 23 10 2 24 14 30 26 10 18 9 21 -7
21 -14 0 -19 7 -19 30 0 26 4 30 29 30 28 0 28 0 28 -65z m-87 9 c8 -8 -3 -34
-14 -34 -5 0 -9 9 -9 20 0 19 11 26 23 14z m249 -69 c3 -33 4 -62 2 -64 -12
-12 -32 30 -38 77 -6 48 -5 53 11 50 14 -2 19 -17 25 -63z m-415 13 c-3 -8 -6
-5 -6 6 -1 11 2 17 5 13 3 -3 4 -12 1 -19z m1108 -68 c-3 -6 -10 -10 -16 -10
-10 0 -12 33 -2 44 9 9 26 -22 18 -34z m-1113 -2 c-7 -7 -12 -8 -12 -2 0 14
12 26 19 19 2 -3 -1 -11 -7 -17z m841 -61 c21 -89 22 -127 2 -127 -10 0 -15
10 -15 28 0 15 -7 52 -15 82 -18 68 -19 90 -2 90 7 0 19 -31 30 -73z m-1053
-307 c-5 -69 -7 -178 -4 -242 4 -64 4 -123 0 -133 -5 -15 -7 -15 -22 0 -14 14
-16 33 -11 128 6 124 23 381 35 527 l7 95 3 -125 c2 -69 -2 -181 -8 -250z
m831 330 c27 0 30 -2 19 -15 -11 -13 -15 -13 -40 0 -34 18 -44 31 -34 47 5 7
10 4 15 -10 6 -16 17 -22 40 -22z m-363 -12 c-3 -42 -3 -42 -43 -43 -22 0 -41
5 -42 10 -2 6 11 10 27 11 34 0 56 17 46 33 -10 16 -36 13 -36 -4 0 -8 -9 -15
-19 -15 -17 0 -18 3 -8 25 9 19 20 25 45 25 33 0 33 0 30 -42z m-113 12 c3 -5
1 -10 -4 -10 -6 0 -11 5 -11 10 0 6 2 10 4 10 3 0 8 -4 11 -10z m745 -37 c0
-22 -8 -14 -19 20 -10 29 -9 30 4 13 8 -11 15 -26 15 -33z m-885 -45 c-4 -24
-7 -59 -6 -78 1 -19 3 -66 4 -105 1 -38 6 -76 11 -83 13 -21 -8 -36 -24 -17
-8 10 -12 51 -13 127 0 124 9 198 25 198 7 0 8 -15 3 -42z m255 -13 c0 -8 -4
-15 -9 -15 -13 0 -22 16 -14 24 11 11 23 6 23 -9z m865 -4 c3 -5 1 -12 -5 -16
-5 -3 -10 1 -10 9 0 18 6 21 15 7z m-865 -86 c0 -27 -4 -35 -17 -35 -33 0 -23
69 10 70 4 0 7 -16 7 -35z m190 -11 c0 -23 -19 -25 -30 -4 -14 26 -4 45 16 29
8 -6 14 -17 14 -25z m-286 17 c3 -5 -1 -14 -8 -20 -16 -13 -32 2 -21 19 8 12
22 13 29 1z m562 -105 c-3 -46 -11 -117 -16 -158 -6 -40 -13 -109 -16 -153 -3
-44 -10 -100 -15 -125 -5 -25 -14 -72 -20 -105 -6 -33 -15 -64 -20 -69 -5 -6
-9 -19 -9 -30 0 -29 -23 -88 -41 -107 -17 -17 -127 -34 -144 -21 -15 11 -19
32 -16 92 1 30 9 62 17 71 8 8 14 22 14 30 0 8 11 41 25 74 29 71 34 137 9
133 -22 -4 -50 98 -35 124 6 10 11 27 11 39 0 18 2 19 15 9 14 -12 18 -9 13 7
-2 4 -9 8 -17 10 -35 5 -49 71 -21 106 11 14 15 28 10 33 -16 16 13 59 43 62
15 2 33 12 40 23 9 14 24 19 62 20 40 1 88 9 113 18 2 0 1 -37 -2 -83z m410
54 c8 0 14 -7 14 -15 0 -8 -6 -15 -14 -15 -15 0 -27 22 -25 48 1 15 2 15 6 0
2 -10 11 -18 19 -18z m-591 0 c3 -5 -1 -10 -10 -10 -9 0 -13 5 -10 10 3 6 8
10 10 10 2 0 7 -4 10 -10z m-120 -42 c-10 -50 -36 -141 -45 -159 -15 -30 -42
-181 -49 -282 -6 -74 -12 -104 -28 -125 -11 -15 -24 -48 -28 -72 -4 -24 -11
-51 -16 -60 -4 -8 -10 -23 -13 -33 -5 -15 -12 -17 -38 -12 -36 8 -62 25 -37
25 16 0 59 51 59 71 0 6 -17 -4 -37 -21 -36 -32 -60 -27 -33 5 9 11 9 15 1 15
-6 0 -11 -4 -11 -10 0 -5 -4 -10 -9 -10 -13 0 -21 53 -10 64 5 6 9 21 9 34 0
21 -2 22 -15 12 -13 -11 -15 -6 -15 33 0 25 4 48 9 51 4 3 6 29 3 57 -5 49 -4
51 16 44 20 -6 21 -3 16 27 -4 18 -13 39 -22 45 -13 11 -13 13 3 19 15 6 16
15 11 63 -4 41 -2 61 9 75 19 25 19 50 1 43 -12 -5 -15 6 -15 54 l1 59 56 2
c31 1 83 1 114 0 31 -1 60 3 63 8 3 6 18 10 31 10 24 0 25 -3 19 -32z m705
-28 c0 -5 -4 -10 -10 -10 -5 0 -10 5 -10 10 0 6 5 10 10 10 6 0 10 -4 10 -10z
m-33 -72 c-2 -13 -4 -5 -4 17 -1 22 1 32 4 23 2 -10 2 -28 0 -40z m33 12 c0
-5 -4 -10 -10 -10 -5 0 -10 5 -10 10 0 6 5 10 10 10 6 0 10 -4 10 -10z m110
-60 c0 -5 -4 -10 -10 -10 -5 0 -10 5 -10 10 0 6 5 10 10 10 6 0 10 -4 10 -10z
m-126 -120 c0 -54 -7 -80 -18 -69 -7 6 6 129 13 129 3 0 6 -27 5 -60z m-653
-207 c1 -18 -8 -45 -21 -63 -22 -30 -106 -87 -116 -77 -3 3 4 27 15 52 14 32
21 68 21 110 0 34 7 84 15 111 8 27 15 61 15 75 0 14 3 29 7 33 9 9 62 -194
64 -241z m-426 192 c17 -14 19 -26 16 -153 -2 -137 -2 -137 -31 -164 -16 -16
-32 -28 -35 -28 -10 0 5 203 16 217 11 13 6 93 -7 128 -8 19 15 19 41 0z m931
-87 c3 -10 17 -24 31 -32 l27 -13 -22 -12 c-13 -7 -22 -21 -22 -35 0 -30 21
-48 40 -36 8 6 18 10 22 10 8 0 16 -121 22 -342 l5 -178 -67 -1 c-113 -2 -123
-4 -140 -26 -14 -17 -34 -23 -97 -30 -44 -4 -97 -7 -117 -5 -32 3 -38 7 -38
26 0 16 5 23 17 22 21 -1 54 60 49 92 -2 13 3 26 12 31 10 5 13 16 9 31 -3 13
1 32 9 45 12 19 12 27 0 62 -8 23 -21 55 -30 72 -15 29 -15 36 11 128 24 87
31 102 67 133 22 19 51 48 65 65 14 16 36 40 49 53 l24 24 34 -33 c18 -18 36
-41 40 -51z m699 -145 c45 -46 88 -83 96 -83 7 0 26 -12 41 -27 26 -25 28 -33
28 -101 l0 -74 -27 7 c-16 3 -62 9 -103 12 -52 3 -81 10 -95 23 -11 10 -55 29
-98 44 -50 16 -97 41 -132 68 -65 52 -137 102 -147 103 -3 0 -10 4 -15 9 -4 5
3 6 18 3 22 -6 33 1 70 41 25 26 58 65 74 87 15 22 40 50 53 62 l25 21 65 -56
c35 -31 101 -94 147 -139z m123 119 l42 -38 0 -77 c0 -60 -3 -77 -14 -77 -19
0 -119 82 -146 120 l-21 29 38 40 c21 22 43 40 48 40 6 1 30 -16 53 -37z
m-643 -213 c-2 -105 -6 -193 -9 -196 -6 -6 -9 30 -10 135 -1 40 -6 57 -20 67
-21 16 -15 45 8 45 22 0 31 46 17 91 -7 22 -9 44 -6 49 18 30 23 -19 20 -191z
m-105 163 c0 -13 -12 -22 -22 -16 -10 6 -1 24 13 24 5 0 9 -4 9 -8z m60 -46
c0 -19 -4 -38 -10 -41 -6 -4 -10 10 -10 34 0 23 5 41 10 41 6 0 10 -15 10 -34z
m107 -69 c10 -17 117 -97 129 -97 6 0 30 -20 54 -44 38 -38 49 -43 76 -39 30
5 74 -11 144 -52 14 -8 41 -15 61 -15 20 0 64 -3 98 -6 56 -6 61 -9 61 -30 0
-27 20 -24 -215 -27 -109 -2 -139 -12 -96 -32 11 -5 21 -13 21 -17 0 -10 -13
-11 -151 -12 -96 -1 -120 -4 -136 -18 -20 -18 -62 -25 -64 -10 -10 79 -19 363
-13 388 7 27 19 31 31 11z m-841 -126 c-25 -25 -26 -25 -41 -6 -22 30 -18 43
15 50 16 4 33 12 37 18 5 8 9 3 11 -12 3 -15 -5 -33 -22 -50z m-248 11 c2 -7
-3 -12 -12 -12 -9 0 -16 7 -16 16 0 17 22 14 28 -4z m-44 -42 c40 -43 80 -61
147 -67 51 -5 58 -3 68 16 7 11 16 21 21 21 13 0 13 -47 1 -55 -6 -3 -13 -27
-16 -53 -14 -105 -43 -123 -47 -30 -2 49 -7 64 -19 66 -11 2 -19 -6 -23 -22
-4 -15 -14 -26 -23 -26 -13 0 -15 -8 -10 -40 4 -34 2 -40 -14 -40 -27 0 -44
37 -30 67 10 21 9 28 -6 38 -17 13 -17 14 -1 32 14 15 15 22 6 31 -16 16 -47
15 -54 -2 -3 -8 -13 -12 -25 -9 -22 6 -37 -23 -20 -40 14 -14 15 -74 1 -82 -6
-4 -10 6 -10 22 0 16 -4 33 -9 39 -5 5 -12 30 -15 55 -5 37 -3 49 14 69 11 13
20 27 20 32 0 16 15 8 44 -22z m67 3 c13 -16 12 -17 -3 -4 -10 7 -18 15 -18
17 0 8 8 3 21 -13z m-753 -28 c-8 -8 -467 -11 -461 -2 2 4 108 7 235 7 127 0
229 -2 226 -5z m577 -35 c0 -13 -6 -25 -12 -27 -9 -3 -13 6 -13 27 0 21 4 30
13 28 6 -3 12 -15 12 -28z m719 4 c4 -10 -1 -25 -10 -35 -11 -12 -14 -27 -10
-44 5 -18 2 -27 -8 -31 -10 -4 -13 -14 -10 -32 3 -15 1 -38 -5 -52 -10 -24
-10 -24 -10 8 -1 21 -6 32 -15 32 -11 0 -14 11 -13 43 2 36 -1 42 -19 45 -28
4 -54 -22 -47 -48 4 -13 -1 -26 -12 -34 -15 -11 -16 -15 -4 -33 10 -17 10 -24
0 -37 -10 -12 -16 -13 -32 -3 -16 10 -18 19 -13 55 5 35 3 42 -10 42 -12 0
-15 6 -10 24 9 37 -1 47 -37 34 -29 -10 -30 -13 -24 -49 8 -44 -2 -86 -16 -72
-5 5 -11 42 -14 82 -2 39 -7 81 -10 91 -8 25 0 25 26 1 42 -39 194 -34 247 7
33 26 48 27 56 6z m-994 -6 c0 -15 -47 -18 -221 -14 -203 6 -210 6 -204 16 6
9 425 7 425 -2z m-480 -7 c0 -4 -19 -11 -41 -14 -57 -8 -260 4 -253 14 7 12
294 12 294 0z m475 -39 c-2 -2 -35 -12 -75 -22 -90 -23 -182 -32 -335 -34 -66
0 -125 -4 -130 -8 -6 -3 -29 -9 -52 -13 -23 -3 -75 -12 -115 -20 -40 -7 -74
-12 -76 -10 -2 2 -4 25 -5 52 l-1 48 132 -3 c73 -2 140 1 149 7 15 8 517 11
508 3z m1452 -28 c-2 -2 -12 -1 -22 3 -18 6 -18 7 1 13 17 7 33 -5 21 -16z
m-1203 1 c15 -8 35 -15 43 -15 11 0 14 -7 10 -21 -4 -16 2 -30 23 -49 23 -21
30 -39 35 -86 4 -32 11 -63 15 -69 8 -11 22 -105 15 -105 -2 0 -16 5 -32 11
-60 24 -180 33 -328 26 -41 -2 -78 3 -72 9 6 6 331 7 387 2 17 -2 25 2 25 12
0 24 -65 29 -335 24 -253 -5 -390 1 -390 16 0 5 23 11 52 15 57 8 88 23 88 42
0 16 5 15 -165 18 -110 2 -144 0 -162 -12 -21 -14 -108 -19 -158 -9 -11 3 -37
5 -58 5 -37 1 -38 2 -33 33 2 17 10 35 17 39 11 7 61 16 136 24 11 2 45 10 75
18 34 10 97 16 178 16 125 0 313 21 360 39 14 5 28 10 32 11 4 1 13 4 20 6 7
3 42 6 78 8 36 2 76 4 90 5 14 1 38 -5 54 -13z m158 -15 c6 0 8 -10 4 -24 -10
-42 43 -137 62 -110 4 5 16 14 27 20 16 9 19 21 17 53 -1 23 2 41 8 41 5 0 10
-15 10 -34 0 -18 9 -45 20 -59 16 -20 20 -40 20 -98 0 -40 7 -101 16 -135 15
-61 15 -63 -7 -85 -20 -20 -20 -23 -5 -31 10 -5 24 -7 31 -4 16 6 59 -19 135
-76 27 -21 53 -38 57 -38 4 0 21 -11 38 -24 l30 -24 -42 -11 c-62 -17 -214 2
-276 34 -27 14 -59 25 -72 25 -31 0 -54 28 -34 41 12 8 12 10 0 18 -8 5 -12
18 -9 28 3 11 1 48 -3 83 -6 43 -6 67 2 76 6 7 8 18 4 24 -3 5 -1 10 4 10 19
0 12 20 -20 59 -30 38 -31 42 -34 157 -3 66 -2 111 1 102 3 -10 10 -18 16 -18z
m488 -10 c0 -5 -5 -10 -11 -10 -5 0 -7 5 -4 10 3 6 8 10 11 10 2 0 4 -4 4 -10z
m560 -20 c0 -5 -4 -10 -10 -10 -5 0 -10 5 -10 10 0 6 5 10 10 10 6 0 10 -4 10
-10z m556 -7 c23 -3 44 -1 47 4 3 5 24 7 46 5 l41 -4 0 -175 0 -175 -27 7
c-38 9 -41 14 -19 30 26 19 14 43 -26 50 -24 5 -34 12 -35 26 -1 11 5 19 13
19 9 0 14 6 11 13 -2 7 -15 11 -30 9 -19 -3 -27 1 -27 13 0 9 -12 18 -30 22
-38 7 -39 23 -1 23 32 0 56 22 48 44 -8 19 -74 25 -98 8 -10 -7 -19 -24 -19
-37 0 -27 -25 -45 -62 -45 -13 0 -33 -7 -44 -15 -19 -15 -19 -15 5 -35 l23
-20 -25 0 c-36 0 -52 -23 -31 -44 19 -19 19 -18 -21 -38 -29 -15 -72 -15 -105
-1 -8 3 -17 7 -20 8 -3 1 -12 5 -21 9 -9 4 -28 5 -42 2 -14 -2 -30 1 -35 7 -5
7 -13 51 -17 98 l-7 86 42 6 c23 3 50 13 61 23 16 15 32 16 111 10 51 -3 105
-2 122 4 17 5 43 12 59 15 31 6 36 31 10 52 -16 12 -13 13 22 8 22 -3 59 -8
81 -12z m-1359 -41 c2 -15 15 -37 28 -49 18 -15 25 -32 25 -57 0 -33 -1 -34
-47 -38 -27 -3 -51 -3 -56 -1 -12 7 5 136 21 161 17 26 25 22 29 -16z m108 -3
c-8 -25 3 -59 19 -59 8 0 16 -14 20 -31 7 -38 39 -37 44 1 2 14 10 32 18 40 7
9 11 25 8 37 -7 27 12 39 31 19 17 -17 20 -53 4 -58 -5 -2 -13 -39 -15 -83 -3
-44 -11 -90 -17 -103 -15 -32 2 -58 37 -54 14 1 43 -6 65 -18 22 -11 49 -20
59 -20 25 0 136 -66 124 -74 -21 -13 -182 -13 -259 0 -45 7 -98 10 -117 7 -28
-4 -37 -1 -49 18 -13 20 -14 38 -5 114 5 50 8 119 5 155 -6 66 9 144 25 134 5
-3 6 -14 3 -25z m704 -6 c0 -16 3 -45 7 -65 5 -31 3 -38 -11 -38 -12 0 -15 5
-10 20 4 12 2 27 -4 33 -5 7 -6 19 -2 26 5 7 6 22 4 32 -3 10 -1 19 5 19 5 0
10 -12 11 -27z m-79 -148 c0 -33 -4 -66 -9 -74 -13 -21 -183 -12 -208 11 -16
15 -34 17 -114 13 -103 -4 -139 1 -139 20 0 13 193 40 210 30 5 -3 11 -1 15 5
3 5 19 10 35 10 17 0 34 8 42 19 14 20 41 26 120 26 l48 0 0 -60z m-1795 38
c-57 -15 -66 -22 -55 -43 11 -21 11 -21 -55 -24 -16 -1 -20 -8 -20 -36 0 -19
5 -35 10 -36 6 0 19 -5 30 -10 11 -5 100 -8 198 -7 105 1 175 -2 171 -8 -3 -5
-13 -9 -22 -9 -9 0 -30 -7 -47 -17 -19 -10 -72 -19 -145 -25 -63 -4 -137 -10
-165 -12 -73 -6 -137 -16 -160 -25 -11 -4 -37 -16 -58 -25 -21 -9 -42 -16 -48
-16 -7 0 -9 46 -7 132 l3 133 143 12 c79 6 146 14 150 17 3 3 26 5 51 5 25 -1
37 -4 26 -6z m1890 -116 l3 -105 -32 2 c-30 2 -31 3 -28 46 2 27 9 48 18 53
11 6 15 21 13 51 -3 39 7 73 18 63 2 -3 6 -52 8 -110z m-1845 79 c0 -11 -19
-15 -25 -6 -3 5 1 10 9 10 9 0 16 -2 16 -4z m1067 -42 c2 -7 -15 -14 -42 -19
-50 -7 -60 -4 -53 17 7 16 90 18 95 2z m-1039 -19 c-53 -19 -138 -23 -138 -6
0 11 41 17 120 19 l55 1 -37 -14z m1460 -31 c15 -10 53 -18 105 -20 45 -3 96
-7 114 -10 30 -4 32 -7 26 -35 -9 -46 18 -69 82 -69 55 0 71 14 77 70 3 28 9
29 93 11 33 -8 107 -15 165 -16 l105 -2 3 -58 c4 -67 -2 -90 -20 -78 -18 10
-24 11 -199 23 -85 6 -183 15 -219 20 -143 22 -190 24 -190 7 0 -13 10 -16 46
-15 25 0 51 -5 57 -11 6 -6 39 -11 73 -11 35 0 66 -4 69 -10 4 -6 -45 -10
-141 -10 -81 0 -161 -5 -178 -11 -23 -8 -51 -7 -111 4 l-80 15 71 1 c56 1 78
6 105 24 19 12 34 29 34 37 0 14 -137 90 -162 90 -7 0 -38 12 -70 27 l-58 27
35 7 c68 13 145 10 168 -7z m-943 -9 c65 -4 128 -11 140 -18 11 -6 33 -13 50
-17 25 -5 31 -12 37 -45 7 -42 0 -125 -11 -125 -3 0 -44 7 -91 15 -77 13 -186
20 -249 16 -20 -1 -23 -5 -18 -27 5 -26 4 -26 -37 -20 -42 6 -282 21 -478 30
-109 4 -160 -4 -208 -35 -14 -9 -42 -19 -63 -22 -36 -6 -37 -5 -37 28 0 30 4
35 38 46 20 6 42 14 47 18 6 3 15 7 20 8 6 1 28 7 50 12 22 6 98 11 168 11
136 0 269 21 294 46 8 8 17 14 21 14 37 2 89 14 100 22 6 6 12 19 12 28 0 21
22 29 65 24 17 -2 84 -6 150 -9z m1858 8 c-18 -2 -48 -2 -65 0 -18 2 -4 4 32
4 36 0 50 -2 33 -4z m-1343 -28 c0 -14 -4 -25 -10 -25 -5 0 -10 5 -10 12 0 6
-3 8 -7 5 -9 -9 -34 13 -27 24 3 5 16 9 30 9 19 0 24 -5 24 -25z m1180 -5 c0
-5 -9 -10 -20 -10 -11 0 -20 5 -20 10 0 6 9 10 20 10 11 0 20 -4 20 -10z m110
0 c0 -5 -12 -10 -26 -10 -14 0 -23 4 -19 10 3 6 15 10 26 10 10 0 19 -4 19
-10z m113 -51 l47 -11 0 -49 c0 -32 -4 -49 -12 -50 -7 -1 -52 -3 -100 -5 -96
-3 -112 4 -105 53 3 22 9 29 30 31 28 3 35 16 17 27 -6 4 -8 10 -5 15 6 9 62
5 128 -11z m-1412 -27 c5 -14 8 -27 5 -29 -8 -8 -58 46 -52 56 10 16 37 1 47
-27z m187 -72 c13 0 22 -6 22 -16 0 -12 -6 -15 -22 -9 -13 4 -35 9 -50 12 -15
3 -25 10 -22 15 4 5 16 7 28 4 11 -3 31 -6 44 -6z m-603 -53 c12 -3 48 -8 80
-12 33 -4 71 -16 84 -26 13 -11 31 -19 40 -19 18 0 101 -37 101 -45 0 -2 -306
-3 -680 -2 -485 1 -680 5 -680 13 0 22 37 44 71 42 38 -1 130 22 140 36 14 19
368 10 545 -15 97 -14 150 -7 157 21 5 18 12 19 64 16 32 -3 67 -7 78 -9z
m1875 -42 l0 -55 -50 -1 c-27 -1 -56 -2 -62 -3 -7 -1 -22 4 -33 11 -11 7 -30
13 -42 13 -20 0 -23 5 -23 40 l0 39 83 4 c45 1 92 4 105 5 20 2 22 -2 22 -53z
m-355 27 c90 -6 100 -9 103 -27 3 -20 -3 -20 -220 -19 -123 1 -261 7 -307 13
-47 6 -112 10 -145 7 -60 -3 -179 10 -203 22 -6 4 104 6 245 6 141 -1 277 1
302 5 25 4 63 5 85 3 22 -2 85 -6 140 -10z m-849 -17 c41 -14 82 -25 92 -25
10 0 24 -6 31 -12 11 -11 12 -10 6 1 -6 10 -4 12 4 7 7 -5 72 -7 145 -7 109 2
135 -1 146 -14 7 -8 11 -15 9 -15 -2 -1 -115 -3 -250 -6 l-246 -5 5 31 c3 20
-2 37 -13 50 -23 25 -19 25 71 -5z m677 -62 c-7 -2 -19 -2 -25 0 -7 3 -2 5 12
5 14 0 19 -2 13 -5z m175 0 c-15 -2 -42 -2 -60 0 -18 2 -6 4 27 4 33 0 48 -2
33 -4z m-1041 -52 c1002 3 1384 1 1392 -6 6 -7 6 -323 0 -330 -4 -3 -172 -2
-375 2 -203 5 -385 6 -404 2 -36 -8 -781 -12 -1632 -10 -268 0 -494 -2 -503
-5 -12 -5 -15 4 -16 47 0 30 -2 107 -3 172 l-3 117 26 1 c14 1 89 5 166 9 77
4 179 6 227 3 48 -2 554 -3 1125 -2z"/>
<g>
<path d="M1927 3123 c-12 -11 -8 -23 8 -23 8 0 15 7 15 15 0 16 -12 20 -23 8z"/>
</g>
<g>
<path d="M1200 2520 c0 -5 5 -10 10 -10 6 0 10 5 10 10 0 6 -4 10 -10 10 -5 0
-10 -4 -10 -10z"/>
</g>
<g>
<path d="M1325 1430 c3 -5 10 -10 16 -10 5 0 9 5 9 10 0 6 -7 10 -16 10 -8 0
-12 -4 -9 -10z"/>
</g>
<g>
<path d="M1303 1388 c-20 -26 -26 -41 -15 -34 12 7 36 46 29 46 -3 0 -9 -6
-14 -12z"/>
</g>
<g>
<path d="M2250 735 c0 -8 5 -15 10 -15 6 0 10 7 10 15 0 8 -4 15 -10 15 -5 0
-10 -7 -10 -15z"/>
</g>
<g>
<path d="M2410 320 c-8 -5 -24 -10 -35 -10 -18 0 -20 -8 -23 -76 -2 -42 -7
-86 -12 -99 -12 -31 -5 -35 54 -35 109 0 166 36 166 104 0 72 -29 105 -105
120 -16 3 -37 2 -45 -4z m79 -46 c33 -41 28 -96 -10 -128 -52 -44 -59 -37 -59
57 0 46 3 87 7 90 14 15 43 6 62 -19z"/>
</g>
<g>
<path d="M2595 306 c-14 -14 -25 -31 -25 -39 0 -26 27 -50 66 -56 33 -5 39
-10 42 -33 4 -32 -20 -40 -58 -21 -14 7 -30 13 -36 13 -10 0 -44 -41 -44 -53
0 -3 33 -7 73 -10 79 -6 136 11 138 42 4 52 -19 91 -52 91 -27 0 -69 22 -69
36 0 22 40 27 60 9 22 -20 50 -14 50 10 0 18 -8 21 -72 30 -42 5 -51 3 -73
-19z"/>
</g>
<g>
<path d="M778 312 c-64 -3 -82 -12 -57 -28 8 -5 10 -35 6 -100 l-6 -93 69 0
c67 1 69 1 79 31 14 39 14 38 -3 38 -7 0 -20 -9 -27 -21 -21 -31 -49 -15 -49
27 0 33 12 45 25 24 10 -16 25 -1 25 24 0 30 -10 39 -27 24 -18 -15 -22 -8
-16 25 6 30 43 40 43 11 0 -9 6 -14 13 -11 14 4 16 50 2 52 -5 0 -40 -1 -77
-3z"/>
</g>
<g>
<path d="M1785 309 c-4 -6 2 -13 13 -16 19 -4 18 -7 -12 -68 -17 -35 -35 -62
-41 -61 -5 1 -22 25 -38 51 l-29 49 29 23 28 23 -73 0 -73 0 23 -30 22 -31
-24 -44 c-14 -25 -28 -45 -32 -45 -4 0 -14 26 -24 58 -9 31 -20 64 -24 72 -10
21 -90 27 -90 7 0 -8 9 -17 20 -20 13 -3 24 -23 37 -66 10 -34 27 -73 39 -88
18 -22 23 -24 42 -14 12 6 22 16 22 22 0 12 41 69 50 69 3 0 23 -23 43 -50 42
-56 55 -61 76 -27 46 71 101 179 96 188 -8 13 -72 12 -80 -2z"/>
</g>
<g>
<path d="M1907 313 c-4 -3 -2 -12 3 -18 12 -14 -34 -165 -53 -177 -9 -6 -9
-10 2 -17 27 -18 48 -1 57 47 8 43 12 47 40 50 28 3 32 0 44 -40 8 -24 13 -49
11 -55 -1 -9 12 -13 38 -13 43 0 66 18 34 26 -14 4 -27 26 -43 72 -38 113 -42
120 -73 126 -38 8 -52 8 -60 -1z m59 -80 c-10 -26 -29 1 -21 28 7 20 8 21 17
5 5 -9 7 -24 4 -33z"/>
</g>
<g>
<path d="M2095 309 c-4 -6 3 -13 15 -16 21 -6 22 -10 18 -104 -4 -94 -3 -99
17 -99 19 0 20 5 16 87 -1 49 1 84 5 80 5 -5 27 -41 49 -80 29 -51 47 -72 60
-72 18 0 21 10 28 85 4 47 11 92 17 101 11 22 3 29 -31 29 -28 0 -48 -15 -28
-22 6 -2 9 -27 7 -63 l-3 -60 -24 45 c-45 84 -61 100 -102 100 -21 0 -41 -5
-44 -11z"/>
</g>
<g>
<path d="M77 303 c-4 -3 -2 -12 4 -20 8 -9 10 -44 7 -103 l-5 -90 48 0 c27 0
49 5 49 10 0 6 -4 10 -10 10 -5 0 -10 13 -10 28 0 25 6 30 40 41 22 6 44 20
50 31 14 26 13 80 -2 84 -26 8 -165 15 -171 9z m131 -55 c-3 -25 -34 -36 -50
-20 -17 17 -1 42 27 42 22 0 26 -4 23 -22z"/>
</g>
<g>
<path d="M305 302 c-6 -4 -12 -17 -12 -29 -3 -40 -36 -158 -47 -165 -15 -10
-4 -17 33 -20 38 -3 54 16 21 25 -19 5 -20 8 -8 37 12 28 19 33 55 36 40 4 42
3 54 -34 7 -20 13 -43 13 -51 1 -8 15 -15 35 -17 28 -4 32 -2 26 13 -4 10 -17
45 -30 78 -51 134 -52 135 -93 135 -20 0 -42 -4 -47 -8z m60 -69 c5 -19 3 -23
-18 -23 -33 0 -37 7 -25 42 9 24 13 27 23 16 7 -7 16 -23 20 -35z"/>
</g>
<g>
<path d="M550 301 c-33 -9 -70 -66 -70 -108 0 -53 32 -91 84 -98 24 -4 58 -4
76 0 29 6 31 10 28 43 -3 40 -19 49 -64 38 -29 -8 -32 -26 -4 -26 11 0 20 -4
20 -10 0 -5 -14 -10 -30 -10 -24 0 -33 6 -40 26 -14 35 5 104 28 105 9 1 30 2
46 3 38 1 45 23 11 36 -29 11 -48 11 -85 1z"/>
</g>
<g>
<path d="M1175 263 c-48 -12 -58 -43 -24 -79 28 -30 37 -95 15 -113 -17 -15
-21 -31 -7 -31 22 0 61 51 61 80 0 23 5 33 20 37 21 6 24 12 14 37 -7 18 -44
22 -44 4 0 -6 -9 -3 -20 7 -24 22 -26 35 -5 35 8 0 15 7 15 15 0 8 -1 14 -2
14 -2 -1 -12 -4 -23 -6z"/>
</g>
<g>
<path d="M1057 173 c-11 -11 -8 -48 5 -61 21 -21 57 -14 70 12 16 37 4 56 -35
56 -19 0 -37 -3 -40 -7z m43 -29 c0 -8 -4 -12 -10 -9 -5 3 -10 10 -10 16 0 5
5 9 10 9 6 0 10 -7 10 -16z"/>
</g>
<g>
<path d="M2785 130 c-16 -26 33 -41 65 -20 13 9 13 11 0 20 -20 13 -57 13 -65
0z"/>
</g>
</g>
</g>
</svg>
