<?xml version="1.0" standalone="no"?>
<!DOCTYPE svg PUBLIC "-//W3C//DTD SVG 20010904//EN"
 "http://www.w3.org/TR/2001/REC-SVG-20010904/DTD/svg10.dtd">
<svg version="1.0" xmlns="http://www.w3.org/2000/svg"
 width="300.000000pt" height="526.000000pt" viewBox="0 0 300.000000 526.000000"
 preserveAspectRatio="xMidYMid meet">
<metadata>
Created by potrace 1.15, written by Peter Selinger 2001-2017
</metadata>
<g transform="translate(0.000000,526.000000) scale(0.100000,-0.100000)"
fill="#000000" stroke="none">
<g>
<path d="M6 3303 c1 -1074 5 -1957 9 -1963 4 -6 2 -16 -3 -23 -9 -11 -10
-1207 -2 -1259 9 -50 13 8 11 144 l-2 153 1480 1 1481 2 0 -122 0 -122 -35 4
c-30 4 -35 8 -35 31 0 36 -14 54 -52 67 -40 13 -51 44 -16 44 13 0 29 -5 35
-11 15 -15 43 -4 43 15 0 21 -40 30 -101 24 -63 -6 -72 -15 -59 -55 8 -22 20
-33 43 -40 28 -8 32 -13 32 -43 0 -38 -23 -53 -32 -21 -9 34 -47 24 -51 -13
l-4 -28 84 3 c46 2 89 0 96 -4 7 -5 22 -5 33 -2 20 7 21 5 15 -21 -4 -16 -8
-30 -9 -30 -6 -5 -1695 -19 -2264 -19 -380 0 -695 -3 -699 -8 -4 -4 668 -7
1494 -7 l1502 0 0 2629 0 2629 -1498 -2 -1498 -1 2 -1952z m2961 1933 c8 -6
15 -986 14 -2299 l0 -1609 -98 -4 c-100 -5 -155 3 -256 37 -31 10 -73 19 -94
19 -29 0 -45 9 -84 45 -60 56 -86 58 -127 9 -54 -63 -198 -144 -255 -144 -18
0 -54 -8 -82 -19 -46 -17 -131 -26 -315 -33 l-55 -2 -7 89 c-6 75 -3 105 17
186 13 53 34 127 48 165 18 52 26 98 30 189 4 66 7 121 7 123 0 1 11 2 24 2
14 0 37 10 51 23 l26 22 -10 105 c-5 58 -12 155 -15 215 l-6 110 21 -125 c11
-69 27 -148 36 -177 15 -48 15 -54 -1 -77 -21 -32 -20 -36 4 -36 37 0 46 41
22 107 -19 51 -27 96 -48 260 -2 21 -8 81 -13 133 -5 52 -15 109 -22 125 -10
22 -12 75 -10 200 2 94 4 212 4 263 0 50 2 92 4 92 2 0 13 -5 23 -10 30 -16
33 6 5 28 -21 16 -23 22 -12 29 26 15 30 50 8 72 -28 28 -26 34 8 26 38 -8 47
8 19 34 -18 18 -19 21 -5 21 23 0 21 19 -5 47 l-21 23 21 0 c13 0 22 6 22 15
0 8 -5 15 -11 15 -6 0 -9 8 -6 18 3 9 15 52 27 95 17 58 27 77 39 77 27 0 32
12 13 27 -16 13 -15 14 4 8 14 -3 24 0 27 8 3 9 15 13 31 10 15 -3 32 1 41 11
21 20 35 12 35 -20 0 -23 -3 -25 -37 -22 -34 3 -38 1 -36 -20 2 -13 -4 -25
-12 -28 -23 -9 -18 -32 8 -36 21 -3 22 -7 19 -68 -2 -63 -16 -163 -31 -225 -4
-18 -19 -38 -38 -50 -23 -14 -32 -28 -33 -47 0 -15 -8 -31 -17 -37 -10 -5 -15
-12 -11 -16 10 -10 48 14 48 30 0 8 13 29 29 47 46 53 51 70 65 221 8 79 19
154 26 166 6 13 9 25 6 28 -3 4 3 12 14 20 24 17 27 65 5 87 -14 14 -12 20 20
67 20 28 34 53 31 57 -9 8 -46 -29 -46 -45 0 -8 -12 -32 -27 -54 -24 -33 -33
-39 -65 -39 -21 0 -38 3 -38 6 0 3 11 19 25 35 13 16 22 36 19 44 -4 8 -2 15
3 15 5 0 28 16 51 36 23 19 46 33 51 30 5 -4 12 -2 16 4 3 5 25 10 48 10 37 0
45 4 65 36 13 20 26 33 29 30 3 -3 -2 -17 -11 -31 -18 -27 -29 -65 -20 -65 3
0 11 15 19 34 8 18 25 47 38 62 22 26 24 42 18 102 0 6 -8 12 -16 12 -24 0
-18 19 14 46 16 14 42 46 57 72 23 40 27 59 28 127 1 90 -17 135 -80 204 -65
73 -197 102 -300 67 -54 -18 -84 -41 -130 -101 -42 -54 -57 -105 -52 -178 5
-73 25 -119 78 -178 l39 -44 -39 -38 c-22 -21 -40 -42 -40 -48 0 -5 18 9 40
32 50 52 64 45 20 -11 -36 -45 -35 -76 2 -64 38 11 177 98 172 106 -3 4 -16 8
-30 8 -64 0 -151 64 -189 139 -36 72 -40 126 -16 196 36 102 113 161 224 172
56 5 72 2 118 -20 108 -51 159 -126 159 -237 0 -79 -22 -130 -76 -182 -50 -47
-131 -85 -147 -69 -15 15 -29 14 -25 -1 1 -7 -27 -41 -62 -75 -36 -34 -61 -65
-57 -70 5 -4 15 1 23 12 25 35 68 77 97 91 15 8 27 12 27 9 0 -3 -30 -35 -67
-71 -40 -38 -64 -68 -58 -72 18 -12 11 -39 -17 -61 -14 -12 -31 -21 -36 -21
-6 0 -31 -20 -55 -45 l-45 -45 -25 20 c-14 11 -30 20 -35 20 -17 0 -19 23 -5
50 7 14 13 32 13 40 0 9 6 25 14 36 18 25 33 100 18 91 -5 -4 -12 -21 -15 -39
-8 -51 -51 -148 -66 -148 -7 0 -26 11 -43 25 -16 14 -37 25 -45 25 -13 0 -14
8 -9 48 15 115 18 203 8 263 -7 35 -16 115 -21 176 -10 110 -11 114 -51 168
-58 78 -119 105 -260 112 -80 4 -113 2 -140 -9 -19 -8 -52 -13 -72 -10 -24 3
-53 -3 -80 -15 -68 -31 -111 -43 -154 -43 -73 0 -115 -23 -143 -75 -25 -48
-25 -48 -5 -64 17 -14 20 -28 20 -94 -1 -74 1 -80 27 -103 18 -15 41 -24 62
-24 39 0 49 -22 27 -57 -18 -29 -8 -43 29 -43 25 0 33 6 42 30 11 28 27 41 27
21 0 -18 71 -53 106 -53 28 0 34 -3 29 -15 -7 -19 32 -49 58 -45 10 2 17 -3
17 -12 0 -9 -6 -16 -14 -16 -17 0 -28 -27 -21 -51 6 -17 3 -18 -20 -9 -59 22
-133 5 -196 -45 -62 -50 -81 -148 -77 -415 1 -113 2 -237 2 -277 -1 -62 2 -72
18 -76 15 -4 17 -12 12 -44 -5 -31 -2 -42 15 -57 16 -15 18 -22 9 -33 -8 -11
-7 -17 7 -27 13 -9 19 -29 21 -65 3 -62 16 -81 55 -81 28 0 29 1 29 54 0 30 5
58 10 61 12 7 12 109 0 220 -8 80 -6 104 6 69 20 -59 59 -133 88 -168 42 -52
58 -133 31 -163 -61 -66 -153 -241 -221 -418 -26 -66 -62 -155 -81 -197 -38
-83 -38 -103 1 -118 13 -5 27 -14 31 -19 13 -21 20 -10 21 32 0 24 9 55 18 69
10 15 33 75 52 133 28 90 65 183 104 270 5 11 25 55 44 98 19 42 39 77 44 77
21 0 18 -15 -12 -73 -73 -138 -216 -516 -216 -570 0 -12 -4 -27 -9 -32 -5 -6
-13 -31 -19 -57 -10 -52 -2 -68 34 -68 13 0 24 -8 27 -20 3 -11 14 -20 24 -20
11 0 28 -7 39 -15 10 -8 30 -15 43 -15 l23 0 -4 -195 c-3 -185 2 -240 16 -157
3 20 6 100 6 178 0 77 3 143 6 147 4 3 17 -1 30 -9 13 -9 27 -13 32 -10 6 3
16 -1 23 -10 10 -13 24 -14 68 -9 30 4 60 9 68 12 8 3 13 -2 13 -16 0 -11 11
-28 24 -36 14 -10 23 -23 21 -33 -13 -55 -77 -218 -94 -236 -43 -48 -79 -121
-79 -163 1 -33 -7 -53 -38 -95 -21 -29 -42 -55 -46 -59 -4 -3 -38 -5 -75 -5
l-68 1 1 70 c0 59 6 79 33 130 17 32 37 62 43 66 6 4 9 12 6 19 -5 17 -78 -84
-98 -138 -9 -24 -22 -47 -28 -51 -19 -11 -42 -90 -42 -142 0 -58 -16 -70 -78
-62 -52 7 -53 20 -6 67 l35 35 -6 83 c-9 111 -40 182 -88 197 -19 7 -47 9 -61
5 -18 -4 -33 -1 -44 8 -25 22 -59 28 -92 17 -33 -12 -100 11 -100 35 0 27 -62
30 -108 7 -31 -16 -60 -21 -114 -21 -72 0 -126 -19 -113 -40 3 -4 -2 -13 -10
-20 -8 -7 -15 -19 -15 -28 0 -18 -38 -62 -54 -62 -8 0 -11 540 -12 1860 l-1
1859 696 2 c1475 3 2116 11 2130 24 3 3 103 -5 108 -9z m-1546 -771 c58 -25
87 -55 55 -55 -19 0 -24 -27 -13 -70 4 -19 10 -44 12 -55 2 -11 4 -22 4 -24 1
-2 8 3 18 10 15 13 16 11 8 -16 -4 -16 -11 -49 -15 -73 -4 -24 -11 -47 -17
-53 -10 -10 -141 16 -157 32 -12 11 -26 12 -26 0 0 -5 25 -26 55 -46 30 -21
56 -42 56 -47 1 -4 2 -14 4 -20 1 -7 -5 -24 -13 -37 -8 -13 -18 -36 -22 -50
l-7 -26 -8 30 c-3 17 -8 36 -10 42 -5 16 -62 52 -95 59 -50 11 -49 10 -35 59
12 38 12 47 1 51 -8 3 -12 14 -9 25 4 13 0 19 -11 19 -18 0 -22 25 -6 35 6 3
10 17 10 31 0 14 6 24 15 24 20 0 35 32 35 77 0 56 19 77 66 76 22 -1 46 3 54
8 8 4 16 9 16 9 1 0 17 -7 35 -15z m79 -125 c0 -5 -4 -10 -10 -10 -5 0 -10 5
-10 10 0 6 5 10 10 10 6 0 10 -4 10 -10z m-600 -150 c0 -5 -5 -10 -11 -10 -5
0 -7 5 -4 10 3 6 8 10 11 10 2 0 4 -4 4 -10z m1093 -47 c9 -3 17 -9 17 -12 0
-12 -96 -71 -114 -71 -19 0 -21 26 -3 37 8 4 22 21 32 36 12 19 23 26 34 21 9
-3 24 -9 34 -11z m167 -13 c0 -5 -10 -15 -22 -21 -23 -12 -23 -12 -4 10 21 23
26 26 26 11z m14 -25 c-14 -19 -31 -35 -36 -35 -5 0 4 16 19 35 36 46 52 46
17 0z m24 -19 c-31 -40 -50 -55 -68 -55 -25 -1 -25 -1 5 17 17 11 44 35 60 55
48 57 50 42 3 -17z m10 -38 c-29 -36 -51 -54 -68 -55 -67 -4 -86 -7 -96 -15
-12 -9 -44 -1 -44 11 0 14 100 104 107 97 4 -4 -8 -22 -27 -40 -19 -18 -42
-41 -50 -52 -8 -10 -1 -7 16 9 17 15 37 27 45 27 10 -1 9 -3 -3 -11 -25 -14
-23 -33 1 -19 11 5 29 10 41 10 12 0 40 20 67 50 25 28 48 48 50 46 3 -2 -15
-28 -39 -58z m-718 38 c0 -16 -18 -31 -27 -22 -8 8 5 36 17 36 5 0 10 -6 10
-14z m-220 -59 c35 -17 46 -28 48 -50 l3 -29 -43 25 c-24 14 -60 29 -81 32
-20 4 -40 11 -43 16 -19 31 57 35 116 6z m152 -59 c-7 -7 -12 -8 -12 -2 0 14
12 26 19 19 2 -3 -1 -11 -7 -17z m-293 -78 c31 -17 67 -39 81 -50 25 -20 25
-20 3 -20 -28 0 -30 -16 -4 -30 31 -16 43 -12 36 11 -5 16 -3 20 6 17 8 -3 13
-15 12 -27 -2 -15 5 -24 22 -31 14 -5 28 -17 31 -25 4 -8 15 -15 25 -15 10 0
19 -6 19 -14 0 -22 -17 -28 -40 -14 -18 11 -23 10 -36 -6 -14 -19 -14 -19 -14
2 0 31 -22 27 -48 -8 -26 -34 -29 -70 -7 -70 9 0 18 -7 22 -16 4 -12 14 -14
34 -10 16 3 30 1 30 -4 1 -6 2 -14 3 -19 0 -5 4 -13 8 -17 13 -13 19 22 8 50
-9 23 -14 27 -35 22 -14 -4 -25 -2 -25 4 0 5 -9 10 -20 10 -11 0 -20 5 -20 11
0 8 19 10 65 6 35 -3 67 -2 69 2 8 12 64 22 91 15 25 -6 50 -49 35 -59 -18
-11 -11 -27 9 -20 14 4 18 1 17 -15 -1 -20 -21 -36 -75 -60 -17 -8 -21 -14
-13 -22 7 -7 19 -4 41 11 17 13 31 20 31 16 0 -3 9 -1 20 5 15 8 20 21 20 51
0 27 5 42 16 46 8 3 13 12 10 20 -4 9 -1 13 6 11 7 -3 13 -11 13 -18 0 -7 6
-15 13 -18 9 -3 13 4 12 19 -1 13 -2 29 -1 35 2 20 114 134 132 134 10 0 27
-14 39 -30 l22 -30 -21 -36 c-12 -19 -21 -44 -21 -54 0 -10 -11 -27 -25 -38
-14 -11 -25 -24 -25 -29 0 -21 -26 -62 -42 -67 -10 -2 -18 -14 -18 -25 0 -16
6 -21 25 -21 18 0 25 5 25 19 0 11 12 33 26 50 14 17 23 38 20 46 -3 9 0 15 9
15 7 0 16 9 20 19 3 11 12 25 21 32 13 10 13 9 5 -12 -34 -88 -126 -244 -155
-265 -20 -13 -96 -20 -96 -8 0 3 10 14 23 25 15 12 17 18 8 19 -19 0 -51 -29
-51 -46 0 -8 -14 -21 -32 -30 -25 -13 -58 -16 -157 -15 -68 0 -126 3 -129 6
-14 13 16 17 123 16 84 -1 115 1 110 9 -4 6 -20 10 -37 8 -32 -3 -41 14 -11
21 10 2 29 8 43 13 14 5 26 9 28 8 2 0 17 10 33 24 17 15 40 26 51 26 25 0 18
24 -8 28 -12 2 -35 -11 -58 -32 -40 -39 -90 -56 -150 -54 -46 2 -81 33 -88 78
-5 32 9 52 21 31 4 -6 15 -9 24 -5 13 5 14 9 4 25 -6 10 -20 19 -29 19 -10 0
-18 7 -18 15 0 17 -25 20 -35 5 -4 -6 -11 -8 -16 -4 -5 3 -6 10 -3 16 4 6 -1
8 -12 6 -11 -2 -19 -11 -19 -20 0 -9 -4 -20 -8 -24 -16 -16 -5 -33 32 -50 30
-13 38 -22 35 -37 -2 -11 4 -25 12 -32 9 -6 15 -19 13 -29 -4 -18 -24 -23 -24
-5 0 6 -8 16 -18 23 -9 7 -17 16 -17 21 0 4 -9 18 -19 31 l-19 24 -21 -26
c-26 -33 -27 -63 -3 -71 30 -10 52 -46 52 -86 0 -46 -23 -47 -28 -1 -2 16 -16
45 -32 65 -16 20 -32 48 -35 62 -4 13 -32 49 -62 78 -31 30 -61 66 -67 80 -6
14 -26 38 -43 53 -38 32 -42 55 -13 63 15 4 20 13 18 32 -1 15 2 32 6 39 5 8
2 20 -7 30 -15 16 -13 19 19 41 37 26 44 41 17 41 -45 0 52 36 106 39 13 0 49
-13 80 -29z m526 0 c45 -28 43 -74 -6 -127 -20 -21 -38 -45 -40 -52 -3 -7 -26
-22 -53 -32 -41 -15 -51 -16 -70 -5 -11 8 -33 16 -48 20 -19 4 -28 13 -28 25
0 12 -11 23 -30 30 -42 14 -37 22 13 20 100 -6 120 -1 164 41 23 23 45 54 48
70 8 35 9 36 50 10z m296 -23 c-13 -13 -26 -3 -16 12 3 6 11 8 17 5 6 -4 6
-10 -1 -17z m-41 -16 c0 -17 -49 -67 -50 -52 0 8 10 25 22 38 24 25 28 27 28
14z m-131 -26 c44 -27 71 -61 71 -87 0 -28 -14 -21 -27 12 -6 16 -20 33 -30
37 -10 4 -24 13 -31 20 -7 7 -22 13 -33 13 -10 0 -19 7 -19 15 0 22 25 18 69
-10z m37 -142 c-6 -14 -9 -15 -16 -4 -11 19 -1 46 13 32 5 -5 7 -18 3 -28z
m-601 -164 c4 -6 5 -13 2 -16 -8 -7 -47 7 -47 18 0 13 37 11 45 -2z m-175
-106 c0 -13 13 -35 30 -49 22 -20 32 -42 41 -85 8 -42 16 -59 27 -59 21 0 62
40 62 60 0 14 7 16 45 10 25 -4 48 -3 51 2 3 4 15 8 27 7 12 0 17 -3 10 -5
-13 -6 -7 -101 8 -120 5 -6 13 -33 19 -60 5 -27 12 -60 15 -74 5 -20 1 -17
-18 13 -13 21 -32 72 -41 115 -23 102 -23 102 -40 102 -12 0 -12 -10 -1 -67 7
-38 20 -88 29 -113 19 -56 12 -67 -10 -14 -9 21 -24 59 -35 83 -10 24 -19 52
-19 62 0 10 -5 21 -11 25 -14 8 -31 -17 -20 -31 4 -5 16 -37 26 -70 11 -33 23
-66 28 -72 5 -7 6 -13 1 -13 -5 0 -22 21 -38 47 -25 43 -29 46 -41 30 -12 -17
-15 -16 -35 13 -24 34 -41 39 -33 10 8 -30 -3 -24 -26 14 -25 39 -27 53 -6 36
20 -17 21 7 1 35 -7 11 -17 39 -21 62 -8 50 -20 62 -30 30 -6 -20 -8 -19 -17
13 -5 19 -12 54 -15 78 -4 33 -9 42 -24 42 -13 0 -19 7 -19 22 0 20 4 18 40
-17 24 -23 40 -48 40 -62z m698 -108 c-1 -126 3 -179 12 -190 13 -15 7 -73
-11 -106 -11 -22 -59 -28 -144 -18 -84 10 -100 25 -110 103 -7 58 -13 69 -32
58 -7 -5 -8 -24 -2 -62 5 -33 5 -58 -1 -64 -18 -18 -49 25 -61 83 -6 31 -15
61 -20 67 -5 6 -10 33 -11 59 -3 54 -15 46 115 75 32 8 60 17 63 22 3 4 22 8
42 8 55 0 82 19 119 83 19 31 35 57 37 57 2 0 4 -79 4 -175z m-588 109 c0 -8
-4 -12 -10 -9 -5 3 -10 10 -10 16 0 5 5 9 10 9 6 0 10 -7 10 -16z m183 -51
c-13 -2 -33 -2 -45 0 -13 2 -3 4 22 4 25 0 35 -2 23 -4z m-263 -126 c0 -5 -4
-5 -10 -2 -5 3 -10 14 -10 23 0 15 2 15 10 2 5 -8 10 -19 10 -23z m127 -187
c7 -11 29 -22 50 -25 21 -4 47 -10 58 -15 25 -11 51 -18 95 -25 19 -3 44 -12
55 -19 11 -7 35 -17 52 -20 34 -8 67 -36 42 -36 -18 1 -117 35 -126 44 -3 3
-14 6 -23 6 -9 0 -34 9 -56 19 -23 11 -63 25 -90 32 -63 15 -84 26 -84 44 0
21 13 19 27 -5z m97 -84 c31 -14 62 -26 68 -26 31 0 232 -83 243 -101 11 -16
-50 -4 -111 22 -28 13 -74 22 -118 24 -73 4 -224 30 -235 41 -3 3 2 11 12 18
9 7 17 22 17 33 0 17 6 20 34 18 18 -2 59 -15 90 -29z m419 -18 c13 -6 16 -16
11 -36 -10 -43 -20 -46 -56 -19 -18 13 -54 34 -80 45 -27 12 -48 23 -48 26 0
8 154 -6 173 -16z m-643 -147 c-17 -39 -45 -103 -64 -144 -19 -41 -50 -125
-70 -186 -20 -62 -45 -130 -56 -153 -11 -23 -20 -48 -20 -55 0 -18 -29 -16
-36 2 -4 8 -1 22 5 29 13 16 66 137 111 256 54 141 141 320 156 320 1 0 -10
-31 -26 -69z m109 1 c-18 -31 -35 -61 -40 -67 -4 -5 -12 -26 -17 -45 -6 -19
-29 -87 -52 -150 -52 -143 -95 -286 -124 -412 -4 -19 -11 -26 -21 -22 -20 8
-19 22 4 91 10 32 35 109 55 171 37 114 82 232 116 307 77 167 92 195 101 190
6 -4 -3 -29 -22 -63z m97 36 c-4 -13 -15 -68 -26 -123 -11 -55 -29 -140 -40
-190 -11 -49 -34 -162 -50 -250 -43 -228 -39 -219 -84 -223 -23 -2 -45 2 -54
11 -10 8 -25 17 -34 20 -24 9 -23 30 11 149 59 207 72 240 85 219 14 -22 25
-10 32 37 14 95 128 372 153 372 9 0 11 -7 7 -22z m144 -18 c0 -21 5 -50 11
-63 10 -22 7 -43 -51 -377 -6 -33 -4 -51 6 -68 13 -20 12 -35 -8 -137 -13 -63
-28 -115 -34 -115 -6 0 -18 -15 -26 -34 -22 -45 -79 -58 -113 -26 -13 13 -29
19 -35 15 -32 -20 -33 39 -3 165 9 36 24 110 34 165 10 55 28 138 39 185 11
47 22 104 26 128 5 31 11 42 24 42 13 0 19 11 23 45 4 24 13 60 21 80 13 31
19 35 50 35 35 0 36 -1 36 -40z m122 -3 c45 -11 46 -12 41 -44 -3 -18 -2 -40
2 -50 4 -10 7 -29 6 -43 0 -14 -3 -173 -6 -355 -2 -181 -7 -342 -11 -357 -5
-23 -12 -28 -37 -28 l-30 0 8 153 c5 83 9 184 11 222 1 39 5 98 9 133 5 44 4
62 -4 62 -6 0 -11 -12 -12 -27 -1 -16 -5 -39 -10 -53 -12 -35 -2 246 10 290 8
27 9 13 5 -60 -3 -52 -1 -101 4 -109 14 -20 20 6 28 132 6 100 5 107 -12 107
-32 0 -41 -13 -52 -75 l-11 -60 4 60 c3 33 6 69 7 80 2 14 -4 21 -19 23 -13 2
-23 8 -23 14 0 6 9 8 23 4 12 -4 43 -12 69 -19z m198 13 c0 -5 -4 -10 -10 -10
-5 0 -10 5 -10 10 0 6 5 10 10 10 6 0 10 -4 10 -10z m-59 -59 l43 -29 1 -189
c1 -103 3 -264 4 -358 2 -137 0 -170 -11 -170 -11 0 -13 57 -13 310 0 374 -2
415 -16 415 -7 0 -10 -43 -8 -137 1 -76 2 -235 1 -353 -2 -236 -10 -280 -49
-280 l-24 0 2 343 c1 188 5 362 10 386 7 30 6 47 -2 57 -11 13 -5 34 10 34 4
0 28 -13 52 -29z m-210 -420 c-9 -176 -26 -323 -47 -394 -4 -12 -13 -17 -27
-15 -21 3 -22 8 -19 73 1 39 12 106 24 150 11 44 22 96 25 115 2 19 11 84 19
144 13 91 14 110 2 118 -10 7 -10 10 5 19 11 7 18 24 19 52 2 42 2 42 5 -7 3
-27 0 -142 -6 -255z m306 172 c-2 -21 -4 -6 -4 32 0 39 2 55 4 38 2 -18 2 -50
0 -70z m-20 -120 c-2 -16 -4 -5 -4 22 0 28 2 40 4 28 2 -13 2 -35 0 -50z
m-260 -85 c-2 -13 -4 -3 -4 22 0 25 2 35 4 23 2 -13 2 -33 0 -45z m269 -84 c3
-60 10 -129 15 -153 10 -44 0 -76 -16 -51 -8 14 -20 327 -11 319 3 -3 8 -55
12 -115z m-86 -375 c-5 -82 -15 -138 -33 -192 -15 -42 -33 -109 -42 -149 -8
-40 -21 -98 -29 -128 l-13 -55 -76 0 c-94 1 -122 20 -130 92 -6 56 6 101 43
159 35 56 48 114 26 126 -8 4 -20 32 -27 61 -9 43 -9 58 2 78 13 24 15 30 18
49 0 6 9 10 20 10 10 0 24 7 31 15 9 11 16 13 24 5 5 -5 30 -10 54 -10 35 0
45 4 49 20 4 15 14 20 39 20 18 0 36 5 39 11 12 18 12 7 5 -112z m-286 -188
c0 -43 -6 -67 -26 -103 -15 -26 -30 -64 -34 -85 -3 -21 -13 -46 -21 -55 -15
-17 -14 -121 2 -180 l7 -28 -67 0 c-60 0 -66 2 -60 18 16 35 35 119 41 172 4
30 15 78 25 105 11 28 19 56 19 64 0 7 13 29 30 47 16 19 34 53 41 76 6 24 13
47 16 52 11 18 26 -30 27 -83z m-1074 -51 c0 -5 -4 -10 -10 -10 -5 0 -10 5
-10 10 0 6 5 10 10 10 6 0 10 -4 10 -10z m140 -2 c8 -4 23 -9 33 -12 13 -4 16
-12 11 -30 -4 -19 0 -28 19 -41 19 -12 24 -23 22 -47 -1 -17 -10 -37 -19 -43
-9 -7 -16 -16 -16 -20 0 -4 7 -2 15 5 10 8 15 9 15 1 0 -15 -47 -44 -60 -36
-5 3 -10 16 -10 28 0 13 -7 33 -16 45 -25 35 -2 49 51 30 10 -3 15 4 15 23 0
5 -5 7 -10 4 -6 -4 -17 -1 -25 5 -8 6 -19 9 -25 5 -5 -3 -10 -2 -10 4 0 5 -3
16 -6 25 -4 12 0 16 16 16 19 0 20 2 10 15 -9 11 -16 12 -26 4 -13 -11 -54 3
-54 19 0 8 48 8 70 0z m145 -24 c13 -20 14 -28 4 -40 -15 -18 -4 -31 14 -16
10 9 22 4 50 -19 38 -31 48 -59 23 -59 -17 0 -27 -24 -20 -45 9 -24 -16 -75
-36 -75 -10 0 -26 -3 -36 -7 -15 -5 -16 -2 -11 30 4 26 2 39 -9 45 -11 6 -12
15 -5 40 13 43 6 73 -20 95 -12 10 -18 21 -14 25 4 4 10 1 12 -5 6 -18 30 -16
37 2 5 13 -10 20 -36 16 -12 -2 -9 14 4 27 17 17 24 15 43 -14z m-315 -4 c0
-5 25 -10 55 -10 53 0 55 -1 43 -20 -7 -11 -18 -20 -25 -20 -7 0 -13 -9 -13
-20 0 -25 15 -25 42 0 27 24 36 18 19 -14 -10 -18 -10 -29 -2 -45 10 -17 9
-21 -4 -21 -8 0 -15 -7 -15 -15 0 -8 5 -15 10 -15 6 0 10 -7 10 -15 0 -10 -11
-15 -35 -15 -29 0 -39 6 -55 32 -13 22 -16 36 -9 49 11 21 -4 35 -23 22 -7 -4
-17 -8 -23 -8 -5 0 -11 -4 -12 -10 -1 -5 7 -9 18 -7 16 2 19 -2 14 -18 -4 -12
-1 -28 7 -37 12 -14 11 -15 -8 -5 -34 18 -49 43 -49 81 0 29 -4 36 -20 37 -35
2 -38 4 -25 19 10 12 10 19 2 27 -15 15 -15 28 -2 28 5 0 20 -16 32 -35 32
-48 50 -46 42 5 -5 33 -4 40 10 40 9 0 16 -4 16 -10z m466 -10 c23 -9 26 -15
21 -40 -4 -20 -2 -32 7 -37 18 -10 25 -85 8 -91 -15 -5 -16 -48 -2 -57 6 -4
17 -1 25 5 12 10 15 9 15 -4 0 -27 -19 -56 -37 -56 -42 0 -95 99 -68 127 26
26 18 69 -20 107 -31 32 -33 36 -17 45 22 13 35 13 68 1z m-606 -20 c0 -5 -5
-10 -11 -10 -5 0 -7 5 -4 10 3 6 8 10 11 10 2 0 4 -4 4 -10z m0 -40 c0 -5 -4
-10 -10 -10 -5 0 -10 5 -10 10 0 6 5 10 10 10 6 0 10 -4 10 -10z m-50 -70 c0
-5 -7 -10 -16 -10 -8 0 -12 5 -9 10 3 6 10 10 16 10 5 0 9 -4 9 -10z m90 -18
c0 -10 11 -25 25 -32 14 -7 25 -17 25 -22 0 -12 -10 -10 -27 7 -8 9 -23 13
-33 10 -11 -3 -20 1 -24 10 -3 9 -2 13 4 10 6 -3 10 3 10 14 0 12 5 21 10 21
6 0 10 -8 10 -18z m2252 -29 c44 -43 51 -47 92 -44 25 1 60 -5 80 -13 63 -26
203 -47 274 -41 37 3 73 2 81 -3 12 -8 23 -96 14 -113 -4 -8 -98 14 -146 35
-59 26 -133 37 -240 37 -55 0 -121 4 -148 8 -27 5 -49 4 -49 0 0 -12 22 -15
140 -18 78 -3 83 -7 15 -14 -22 -2 -39 -9 -38 -14 1 -6 -14 -14 -35 -18 -43
-8 -127 -43 -120 -50 3 -3 25 3 49 14 24 10 64 22 89 26 25 4 50 11 56 16 17
13 84 13 154 0 90 -18 108 -30 43 -31 -32 0 -53 4 -53 11 0 13 -95 8 -160 -9
-25 -6 -62 -14 -82 -17 -21 -3 -44 -13 -52 -21 -9 -8 -39 -17 -68 -21 -29 -3
-75 -11 -103 -18 -87 -23 -142 -26 -155 -10 -10 13 -7 16 19 21 21 5 31 12 31
25 0 16 8 19 48 19 27 0 57 7 70 16 13 9 26 14 29 11 9 -10 -8 -27 -40 -42
l-32 -15 34 5 c19 3 42 12 50 19 9 8 35 19 58 25 23 6 54 18 70 26 15 8 38 15
50 15 12 0 24 4 28 9 9 15 -65 1 -105 -19 -52 -27 -83 -32 -76 -13 5 13 0 15
-30 10 -20 -3 -44 -13 -54 -22 -9 -8 -30 -15 -46 -15 -29 0 -28 1 16 30 25 16
51 30 58 30 6 0 12 5 12 10 0 18 -20 11 -74 -25 -29 -19 -58 -35 -63 -35 -6 0
-17 -9 -25 -21 -11 -17 -27 -22 -76 -26 -39 -2 -62 0 -62 6 0 14 -37 14 -45 1
-3 -6 4 -10 17 -11 22 0 22 -1 3 -9 -11 -5 -40 -8 -65 -8 -29 1 -35 2 -17 5
20 3 27 9 23 19 -3 9 1 14 11 14 9 0 14 3 11 6 -4 3 -69 7 -145 8 -115 2 -140
-1 -150 -13 -8 -11 -15 -13 -22 -6 -25 24 10 33 174 43 94 5 184 13 200 16 23
5 26 4 10 -3 -14 -7 -16 -10 -5 -11 8 0 2 -7 -15 -15 l-30 -15 35 5 c96 13
121 19 131 31 6 8 23 14 38 14 14 0 43 11 63 25 20 14 40 25 43 25 7 0 77 50
85 61 3 4 14 9 25 12 19 5 19 5 -1 6 -11 0 -43 -15 -70 -34 -27 -19 -52 -35
-57 -35 -4 0 -30 -11 -59 -25 -55 -26 -78 -31 -78 -16 0 5 -8 12 -17 14 -11 3
-7 5 10 6 16 0 26 5 22 11 -3 6 1 10 10 10 9 0 13 -5 9 -11 -7 -11 8 -8 71 15
43 16 195 119 195 133 0 6 6 14 13 16 6 3 2 6 -10 6 -27 1 -32 21 -6 21 10 0
39 -21 65 -47z m-92 3 c0 -14 -103 -87 -167 -119 -60 -29 -33 -3 52 52 47 29
90 60 96 67 15 18 19 18 19 0z m-2174 -63 c-7 -7 -26 7 -26 19 0 6 6 6 15 -2
9 -7 13 -15 11 -17z m-126 9 c0 -5 27 -20 60 -35 51 -21 60 -29 60 -51 0 -31
-2 -32 -77 -41 l-63 -7 0 71 c0 41 4 71 10 71 6 0 10 -4 10 -8z m1433 -49 c49
-4 64 -9 60 -19 -3 -9 3 -14 18 -15 14 0 18 -3 9 -6 -45 -15 -45 -15 -20 -26
l25 -11 -30 -4 c-16 -2 -37 -9 -45 -16 -21 -18 -66 -4 -110 33 -26 22 -30 30
-17 31 21 0 22 13 2 30 -8 7 -15 18 -15 25 0 11 6 10 29 -1 16 -8 59 -17 94
-21z m-1215 5 c7 -7 12 -25 12 -40 0 -21 -5 -28 -20 -28 -17 0 -20 7 -20 40 0
41 7 49 28 28z m197 -1 c13 -10 16 -21 11 -40 -6 -24 -34 -39 -37 -19 -11 75
-8 83 26 59z m549 -22 c7 -19 30 -19 88 2 58 20 68 14 33 -21 -27 -27 -26 -58
1 -35 11 9 14 8 14 -4 0 -30 -76 -54 -152 -49 -20 1 -26 6 -22 17 4 8 -1 17
-10 21 -23 9 -20 23 3 17 16 -4 19 0 17 19 -1 13 -6 29 -10 36 -5 8 0 12 12
12 11 0 22 -7 26 -15z m-430 -11 c10 -27 7 -44 -9 -44 -10 0 -15 10 -15 30 0
32 14 40 24 14z m1473 -10 c-3 -3 -12 -4 -19 -1 -8 3 -5 6 6 6 11 1 17 -2 13
-5z m785 -59 c27 -14 66 -25 87 -25 43 0 61 -14 61 -47 0 -24 -14 -31 -25 -13
-3 6 -26 10 -50 10 -24 0 -47 5 -51 11 -4 7 -32 9 -88 4 -44 -4 -92 -9 -106
-10 -14 -1 -33 -3 -42 -3 -10 -1 -17 -7 -15 -14 2 -12 -37 -25 -85 -27 -16 0
-28 4 -28 9 0 6 24 11 53 12 l52 1 -50 6 -50 7 45 8 c25 4 67 15 93 23 36 12
70 14 133 9 49 -3 84 -2 84 3 0 10 -62 34 -145 57 l-50 13 63 -4 c40 -3 82
-14 114 -30z m-915 11 c-24 -9 -283 -19 -274 -10 8 9 141 20 224 19 51 0 65
-3 50 -9z m-1627 -6 c0 -5 -7 -10 -15 -10 -8 0 -15 5 -15 10 0 6 7 10 15 10 8
0 15 -4 15 -10z m1743 3 c-7 -2 -21 -2 -30 0 -10 3 -4 5 12 5 17 0 24 -2 18
-5z m-1546 -17 c4 -7 15 -16 23 -20 8 -3 -2 -4 -24 -2 -44 6 -51 10 -41 25 9
15 32 14 42 -3z m-312 -16 c-3 -5 -11 -10 -16 -10 -6 0 -7 5 -4 10 3 6 11 10
16 10 6 0 7 -4 4 -10z m99 -14 c19 -17 33 -22 53 -17 l28 6 -27 3 c-16 2 -28
7 -28 12 0 23 264 -41 295 -72 12 -11 -107 0 -143 13 -24 9 -42 5 -42 -11 0
-5 10 -12 22 -16 l23 -7 -25 -9 c-13 -5 -58 -9 -99 -8 -103 1 -214 -13 -218
-26 -2 -6 23 -19 57 -28 51 -15 59 -20 49 -32 -6 -8 -29 -14 -50 -14 -43 0
-52 -13 -16 -25 17 -6 10 -9 -33 -14 l-55 -6 58 -7 c69 -8 85 -3 98 28 6 16
16 24 33 24 19 0 56 34 56 53 0 2 -26 2 -57 -1 -48 -3 -56 -2 -45 9 8 8 43 14
95 16 93 4 86 4 150 -1 44 -3 50 -1 58 22 7 19 14 23 32 18 12 -3 40 -9 61
-13 38 -6 39 -5 34 20 -6 31 -6 31 35 13 18 -7 64 -19 104 -26 l71 -12 -29
-65 c-16 -36 -29 -71 -29 -79 0 -24 20 -15 31 14 6 15 22 51 35 81 14 29 27
62 29 72 2 11 7 25 12 32 8 13 10 18 12 42 2 22 32 18 38 -5 3 -11 12 -20 19
-20 12 0 17 -18 13 -46 0 -4 5 -10 12 -15 7 -4 14 -19 15 -33 1 -29 -20 -54
-31 -36 -11 18 -23 11 -21 -15 0 -14 4 -25 9 -25 4 0 7 -5 7 -10 0 -6 -11 -8
-25 -4 -34 8 -32 -7 5 -34 18 -14 30 -31 30 -45 -1 -22 -1 -22 -15 -2 -27 38
-47 53 -76 57 -35 5 -45 -4 -24 -22 8 -7 12 -17 9 -22 -3 -5 2 -18 12 -29 9
-10 12 -19 6 -19 -6 0 -15 7 -20 16 -11 20 -51 15 -66 -8 -8 -13 -5 -22 13
-42 24 -25 21 -46 -5 -46 -9 0 -24 -5 -35 -10 -16 -9 -17 -14 -7 -30 7 -10 8
-23 4 -27 -5 -4 -11 -2 -13 5 -3 6 -16 12 -29 12 -18 0 -24 -5 -24 -21 0 -15
5 -19 15 -15 9 3 15 0 15 -10 0 -18 -41 -36 -54 -23 -6 5 -18 9 -28 9 -23 0
-23 6 2 37 11 14 20 34 20 44 0 11 5 19 10 19 6 0 10 8 10 18 0 24 58 102 76
102 8 0 14 5 14 10 0 20 -32 9 -56 -20 -14 -16 -31 -27 -38 -24 -19 7 -30 -14
-17 -29 7 -9 5 -21 -8 -40 -10 -15 -20 -24 -24 -21 -3 3 -22 6 -41 6 -37 0
-44 11 -26 38 7 10 12 12 18 4 4 -6 18 -15 31 -19 24 -7 24 -6 18 39 -8 56
-24 89 -40 83 -48 -18 -53 -17 -75 13 -18 24 -19 30 -7 30 8 0 15 7 15 15 0
17 16 20 25 5 9 -15 25 -12 25 5 0 8 -12 17 -27 21 -16 3 -38 11 -51 17 -19 9
-27 6 -57 -23 -21 -21 -35 -44 -35 -58 0 -22 3 -24 34 -19 30 5 35 3 41 -20 8
-33 0 -40 -22 -20 -10 8 -29 15 -43 15 -14 -1 -33 2 -42 6 -13 6 -18 4 -18 -6
0 -15 23 -29 75 -44 36 -11 51 -56 15 -47 -19 5 -20 4 -8 -23 6 -16 15 -33 20
-38 4 -6 8 -17 8 -25 0 -11 -3 -11 -13 4 -8 10 -19 15 -26 11 -9 -6 -9 -12 3
-24 8 -10 14 -29 13 -44 -2 -29 -11 -36 -22 -18 -10 16 -61 11 -77 -7 -8 -10
-18 -30 -22 -45 -5 -23 -4 -26 11 -21 10 3 14 2 10 -3 -5 -5 -32 -11 -60 -14
-29 -3 -50 -9 -48 -15 1 -5 7 -9 12 -7 5 1 9 -7 9 -17 0 -12 13 -24 38 -34 30
-13 34 -17 19 -22 -37 -15 -107 35 -107 76 0 23 5 30 28 35 47 10 54 14 49 27
-2 7 -18 11 -40 9 -20 -2 -46 2 -58 8 -20 11 -20 13 -4 30 17 18 16 20 -9 31
-22 10 -29 10 -42 -3 -15 -14 -14 -18 2 -43 l18 -28 -24 8 c-24 7 -59 41 -60
58 0 4 7 7 15 7 15 0 45 48 45 72 0 20 -53 48 -90 48 -27 0 -31 2 -20 15 6 8
8 20 4 26 -5 9 -2 10 9 6 29 -11 31 16 3 38 -24 19 -25 23 -11 35 14 12 14 14
0 30 -13 14 -16 36 -14 97 2 43 8 81 14 85 5 4 24 8 40 8 90 2 196 58 138 73
-11 3 -8 5 9 6 16 1 38 -9 52 -23z m891 14 c-28 -12 -37 -12 -30 0 3 6 16 10
28 9 21 0 21 -1 2 -9z m122 3 c-20 -2 -52 -2 -70 0 -17 2 0 4 38 4 39 0 53 -2
32 -4z m-1227 -13 c0 -5 -7 -10 -15 -10 -8 0 -15 5 -15 10 0 6 7 10 15 10 8 0
15 -4 15 -10z m1445 -4 c18 -1 29 -7 27 -14 -3 -17 -22 -183 -28 -247 -4 -38
0 -55 13 -70 23 -26 79 -59 127 -75 50 -16 151 -73 151 -85 0 -6 -15 -11 -33
-13 -30 -3 -33 -1 -27 16 8 29 -8 35 -87 34 -43 -1 -67 2 -63 8 3 6 -1 10 -9
10 -18 0 -30 -17 -16 -22 5 -2 6 -9 1 -17 -10 -16 -31 -6 -31 14 0 8 9 19 19
25 13 6 17 17 14 30 -6 23 -8 24 -34 10 -12 -7 -19 -22 -19 -43 -1 -29 -2 -30
-14 -14 -20 26 -63 21 -105 -12 -36 -28 -37 -29 -59 -11 -21 17 -22 21 -10 59
9 29 18 41 32 41 18 0 14 14 -5 16 -22 3 -22 6 -1 12 30 9 31 24 1 39 -18 10
-20 13 -6 13 9 0 17 5 17 10 0 6 -5 10 -11 10 -6 0 -8 9 -4 21 5 14 2 25 -6
30 -10 6 -8 9 9 9 17 0 22 6 22 25 0 14 3 24 8 24 26 -4 22 5 -8 16 -34 13
-34 14 -7 14 16 1 27 7 27 15 0 8 6 16 12 18 10 4 10 10 1 31 -11 25 -11 26
28 32 39 7 54 25 22 25 -10 1 -31 7 -48 16 -30 14 -29 14 20 8 28 -4 64 -7 80
-8z m1095 1 c-50 -18 -179 -41 -186 -34 -10 10 43 27 84 27 20 0 44 5 52 10 8
5 31 10 50 9 l35 0 -35 -12z m-1780 -1 c0 -9 -30 -14 -35 -6 -4 6 3 10 14 10
12 0 21 -2 21 -4z m-60 -26 c12 -8 11 -10 -7 -10 -13 0 -23 5 -23 10 0 13 11
13 30 0z m400 0 c0 -5 -10 -10 -22 -10 -19 0 -20 2 -8 10 19 13 30 13 30 0z
m-290 -25 c0 -25 -1 -25 -77 -25 -55 1 -84 5 -98 16 -19 15 -18 15 15 10 96
-14 150 -17 150 -7 0 6 -4 11 -10 11 -5 0 -10 5 -10 10 0 6 7 10 15 10 9 0 15
-9 15 -25z m393 18 c-7 -2 -21 -2 -30 0 -10 3 -4 5 12 5 17 0 24 -2 18 -5z
m492 -32 c15 -14 42 -20 114 -24 61 -4 97 -10 102 -19 13 -20 -101 -22 -175
-4 -34 9 -90 16 -123 16 -64 0 -113 13 -113 29 0 11 26 15 115 18 46 2 64 -1
80 -16z m280 10 c3 -6 -13 -10 -36 -9 -27 0 -37 3 -28 9 19 12 56 11 64 0z
m803 -1 c-46 -9 -118 -40 -118 -52 0 -12 12 -10 45 10 37 23 124 36 156 23 21
-8 18 -10 -21 -11 -46 0 -80 -13 -63 -23 5 -3 15 -2 23 4 8 5 37 9 64 9 46 0
48 -1 42 -25 -4 -14 -2 -25 4 -25 5 0 10 -9 10 -20 0 -16 -7 -20 -33 -20 -18
0 -37 4 -42 9 -6 6 -63 11 -128 12 -65 1 -135 6 -155 10 l-37 7 35 1 c44 2 80
11 80 21 0 11 -274 26 -383 20 -110 -6 -126 -3 -100 15 27 18 93 29 93 14 0
-8 12 -10 38 -6 124 19 135 20 128 8 -11 -17 79 -13 154 9 41 11 98 18 155 18
65 0 80 -2 53 -8z m-1653 -10 c17 -7 15 -9 -12 -9 -37 -1 -46 -21 -9 -21 13 0
41 -7 62 -16 29 -12 43 -13 56 -5 10 6 25 11 34 11 13 0 14 -3 5 -14 -6 -7
-12 -44 -13 -82 0 -38 -7 -111 -14 -163 -7 -52 -11 -98 -8 -102 3 -5 0 -9 -6
-9 -17 0 -7 -45 10 -45 8 0 20 -4 26 -8 6 -3 25 0 42 8 28 14 33 14 61 -3 27
-16 29 -21 17 -32 -13 -10 -19 -9 -31 4 -9 9 -24 16 -33 16 -19 0 -62 -39 -62
-56 0 -7 -5 -16 -10 -19 -10 -6 -32 36 -36 69 -2 25 -23 37 -59 34 -26 -3 -31
-8 -35 -38 -4 -29 -10 -36 -35 -40 -25 -5 -30 -10 -28 -33 1 -18 -3 -27 -13
-27 -16 0 -19 41 -4 56 14 14 2 44 -16 44 -8 0 -14 7 -14 15 0 8 -7 15 -15 15
-9 0 -15 -9 -15 -25 0 -14 -4 -25 -10 -25 -5 0 -10 -7 -10 -15 0 -8 -7 -15
-16 -15 -9 0 -14 -6 -12 -12 3 -7 15 -13 29 -13 17 0 25 -6 27 -22 4 -26 -15
-31 -24 -8 -7 18 -61 20 -66 3 -6 -17 -28 0 -28 21 0 10 11 26 25 35 14 9 25
23 25 32 0 11 6 13 19 9 21 -6 36 9 26 25 -4 7 -13 6 -27 -1 -14 -8 -23 -8
-31 0 -17 17 -45 13 -64 -9 -10 -11 -28 -20 -40 -20 -13 0 -23 -4 -23 -10 0
-5 7 -10 16 -10 8 0 12 -4 9 -10 -4 -6 -13 -5 -25 2 -22 14 -36 6 -24 -14 13
-20 15 -48 4 -48 -6 0 -10 11 -10 24 0 14 -5 28 -10 31 -8 5 -7 11 0 20 7 8 9
24 5 35 -6 19 -5 20 13 9 16 -10 23 -10 36 0 9 8 16 20 16 28 0 8 4 12 9 9 15
-10 71 6 71 19 0 7 -7 18 -15 25 -12 10 -16 9 -21 -4 -3 -9 -10 -16 -15 -16
-32 0 37 106 75 116 37 9 45 24 50 91 2 33 9 70 15 82 7 12 9 26 6 31 -8 14
32 50 55 50 25 0 25 9 3 26 -16 12 -12 13 27 13 25 0 54 -4 65 -9z m125 0 c0
-5 -9 -10 -19 -10 -11 0 -23 5 -26 10 -4 6 5 10 19 10 14 0 26 -4 26 -10z
m635 0 c-3 -5 -11 -10 -16 -10 -6 0 -7 5 -4 10 3 6 11 10 16 10 6 0 7 -4 4
-10z m-263 -55 c26 -3 50 -10 53 -16 6 -8 -23 -12 -102 -13 -17 -1 -34 -4 -38
-8 -10 -9 33 -19 70 -17 63 5 86 0 83 -18 -3 -15 6 -18 61 -20 76 -2 93 -7 85
-28 -5 -12 5 -15 62 -16 106 -1 158 -11 162 -31 2 -11 -3 -18 -11 -18 -8 0
-20 -7 -27 -15 -7 -8 -16 -15 -21 -15 -5 0 -9 7 -9 15 0 8 -7 15 -15 15 -8 0
-15 -4 -15 -10 0 -5 -8 -9 -17 -8 -41 3 -63 -3 -63 -17 0 -18 50 -21 68 -3 9
9 12 9 12 -2 0 -8 11 -20 24 -26 20 -9 25 -7 46 23 23 34 50 44 50 18 0 -8 -4
-15 -10 -15 -5 0 -10 -6 -10 -14 0 -11 10 -13 42 -9 35 5 40 4 35 -10 -3 -9
-2 -19 4 -23 6 -3 13 4 16 17 l6 23 9 -23 c4 -12 12 -19 18 -16 6 4 7 11 4 17
-5 8 9 9 47 4 66 -9 111 -27 105 -43 -8 -20 16 -28 29 -10 13 18 51 24 40 8
-11 -18 13 -21 44 -5 34 17 53 12 44 -13 -5 -14 -2 -15 28 -8 19 5 59 9 89 9
92 0 290 -17 295 -24 9 -14 -41 -20 -96 -11 -58 10 -112 4 -103 -10 3 -5 26
-10 52 -10 l47 -1 -45 -12 c-25 -6 -50 -14 -56 -18 -6 -4 -30 -10 -53 -14 -52
-8 -48 -25 10 -41 34 -9 38 -12 17 -12 -15 -1 -39 -6 -54 -11 -35 -14 -22 -28
37 -39 45 -8 39 -18 -16 -23 -22 -2 -30 -8 -30 -23 0 -11 8 -21 18 -23 10 -2
17 3 17 12 0 11 9 16 30 16 27 0 30 -3 28 -27 -2 -19 2 -28 15 -31 10 -2 17 3
17 12 0 11 9 16 30 16 17 0 30 5 30 11 0 7 -10 9 -25 7 -14 -3 -28 -1 -31 3
-3 5 31 9 75 9 80 0 81 0 81 -25 0 -23 -4 -25 -41 -25 -45 0 -50 -19 -8 -31
20 -6 18 -7 -13 -8 -21 -1 -38 4 -38 9 0 6 -7 10 -15 10 -8 0 -15 -4 -15 -8 0
-5 -133 -9 -295 -10 l-295 -2 0 35 c0 28 -4 35 -20 35 -11 0 -20 -4 -20 -10 0
-5 -6 -10 -13 -10 -8 0 -20 -11 -27 -25 -12 -22 -20 -25 -64 -25 -28 0 -207
-3 -397 -7 -346 -6 -347 -6 -358 15 -10 19 -8 22 14 28 14 3 31 2 38 -4 10 -9
93 -18 107 -12 3 1 50 3 105 4 66 1 104 -2 112 -10 18 -17 107 6 111 29 4 18
-23 24 -33 7 -3 -5 -11 -10 -17 -10 -6 0 -3 9 6 19 10 10 16 25 15 33 -4 34 2
58 16 58 8 0 15 4 15 9 0 5 -17 7 -37 4 -34 -4 -39 -1 -50 22 -7 15 -9 35 -4
47 7 19 8 19 25 -8 17 -26 20 -26 32 -10 7 10 10 24 8 31 -3 7 1 15 10 18 8 3
17 -1 20 -9 7 -18 35 -18 74 2 40 20 41 42 2 57 -34 13 -36 19 -15 37 17 14
20 46 5 55 -16 10 -71 -5 -77 -21 -3 -8 3 -21 13 -29 19 -15 19 -15 0 -30 -17
-13 -22 -12 -47 2 -20 12 -25 20 -18 29 5 6 6 19 3 29 -4 10 -1 21 7 25 18 12
8 20 -22 19 -13 0 -45 -1 -71 -1 -29 0 -49 -6 -52 -14 -7 -19 -41 -6 -81 30
-39 36 -42 57 -24 163 l11 64 42 -5 c22 -3 62 -8 88 -11z m418 5 c0 -5 -17
-10 -37 -9 -34 1 -35 2 -13 9 36 11 50 11 50 0z m422 -32 c22 -17 21 -18 -74
-18 -54 0 -100 4 -103 10 -3 6 -23 10 -43 11 -20 0 -55 4 -77 9 -28 6 7 8 117
7 134 -1 160 -4 180 -19z m-739 -5 c-7 -2 -19 -2 -25 0 -7 3 -2 5 12 5 14 0
19 -2 13 -5z m391 -3 c60 -6 117 -15 127 -21 10 -5 110 -10 223 -11 168 -1
203 -3 199 -14 -3 -8 -20 -14 -42 -14 -20 0 -61 -6 -91 -14 -49 -13 -57 -13
-73 2 -15 13 -23 14 -49 4 -23 -8 -35 -9 -45 -1 -10 9 -26 8 -60 -2 -36 -10
-48 -10 -51 -1 -7 21 -40 13 -67 -15 -24 -27 -25 -27 -57 -11 -18 9 -63 18
-101 20 -55 3 -70 8 -82 25 -9 13 -31 24 -57 28 -63 11 -69 19 -18 26 74 10
129 10 244 -1z m681 -40 c3 -5 31 -10 61 -10 30 0 54 -4 54 -10 0 -5 -22 -10
-48 -10 -27 0 -57 -6 -68 -15 -10 -8 -29 -15 -41 -15 -18 0 -23 6 -23 25 0 13
-8 29 -17 34 -14 8 -8 10 29 11 26 0 50 -4 53 -10z m115 -65 c0 -13 -28 -25
-66 -29 -15 -2 -20 2 -18 18 1 12 3 22 3 23 1 2 19 2 41 1 24 -1 40 -6 40 -13z
m-2420 -105 c0 -10 -4 -22 -10 -25 -6 -4 -10 7 -10 25 0 18 4 29 10 25 6 -3
10 -15 10 -25z m70 20 c0 -5 -4 -10 -10 -10 -5 0 -10 5 -10 10 0 6 5 10 10 10
6 0 10 -4 10 -10z m265 -30 c3 -5 1 -10 -4 -10 -6 0 -11 5 -11 10 0 6 2 10 4
10 3 0 8 -4 11 -10z m1615 0 c0 -5 -2 -10 -4 -10 -3 0 -8 5 -11 10 -3 6 -1 10
4 10 6 0 11 -4 11 -10z m123 -17 c-7 -2 -19 -2 -25 0 -7 3 -2 5 12 5 14 0 19
-2 13 -5z m-2113 -39 c0 -8 -4 -12 -10 -9 -5 3 -10 10 -10 16 0 5 5 9 10 9 6
0 10 -7 10 -16z m114 -30 c9 -3 16 -10 16 -14 0 -11 -48 -60 -60 -60 -13 0
-13 36 0 61 11 20 19 23 44 13z m1046 -19 c-7 -8 -20 -15 -29 -15 -12 1 -11 5
8 21 26 22 41 18 21 -6z m250 -5 c0 -5 -4 -10 -10 -10 -5 0 -10 5 -10 10 0 6
5 10 10 10 6 0 10 -4 10 -10z m1050 -82 c-1 -55 -3 -69 -11 -55 -6 11 -23 18
-47 18 -34 2 -34 2 -7 6 37 6 58 23 27 23 -13 0 -22 6 -22 15 0 10 -11 15 -32
16 -18 0 -42 4 -53 9 -15 7 -9 9 26 9 25 1 49 5 55 10 8 8 31 16 57 20 4 0 7
-32 7 -71z m-1454 48 c7 -19 85 -31 95 -14 6 9 11 10 19 2 9 -9 5 -13 -14 -18
-14 -3 -26 -13 -26 -21 0 -8 -6 -12 -13 -9 -8 3 -20 -2 -27 -11 -12 -14 -15
-13 -26 14 -7 17 -18 31 -24 31 -5 0 -10 9 -10 20 0 23 18 27 26 6z m-840 -42
c19 -6 34 -8 34 -3 0 18 32 8 37 -11 3 -11 9 -20 14 -20 5 0 9 -9 9 -20 0 -11
-7 -20 -15 -20 -8 0 -15 4 -15 10 0 5 -9 14 -20 20 -16 8 -21 6 -31 -11 -9
-19 -9 -21 4 -16 9 3 21 -1 27 -8 10 -12 7 -17 -14 -25 -14 -5 -26 -16 -26
-25 0 -8 -4 -15 -8 -15 -5 0 -8 21 -8 47 1 28 -4 48 -11 50 -7 3 -13 -2 -13
-11 0 -9 -7 -16 -16 -16 -12 0 -15 6 -11 22 4 12 1 28 -4 34 -6 7 -8 22 -4 34
6 18 9 19 22 8 8 -7 31 -18 49 -24z m554 26 c0 -5 -7 -10 -15 -10 -8 0 -15 5
-15 10 0 6 7 10 15 10 8 0 15 -4 15 -10z m478 -17 c4 -27 -15 -30 -34 -5 -19
25 -17 34 9 30 14 -2 23 -11 25 -25z m-1290 -20 c-4 -22 -48 -31 -48 -10 0 19
10 27 32 27 13 0 18 -6 16 -17z m2429 11 c-3 -3 -12 -4 -19 -1 -8 3 -5 6 6 6
11 1 17 -2 13 -5z m-1777 -14 c0 -5 -4 -10 -10 -10 -5 0 -10 5 -10 10 0 6 5
10 10 10 6 0 10 -4 10 -10z m418 -7 c-2 -10 -12 -18 -23 -18 -11 0 -21 8 -23
18 -3 13 3 17 23 17 20 0 26 -4 23 -17z m-998 -9 c0 -8 -5 -12 -10 -9 -6 4 -8
11 -5 16 9 14 15 11 15 -7z m407 -51 c-14 -19 -24 -16 -30 7 -3 11 -2 20 3 20
4 0 11 10 15 23 7 21 8 20 14 -8 4 -16 3 -36 -2 -42z m839 46 c3 -6 2 -15 -2
-19 -12 -12 -38 5 -30 19 9 14 23 14 32 0z m1114 7 c0 -3 -4 -8 -10 -11 -5 -3
-10 -1 -10 4 0 6 5 11 10 11 6 0 10 -2 10 -4z m-1660 -53 c-11 -17 -11 -17 -6
0 3 10 7 26 7 35 1 15 2 15 6 0 2 -10 -1 -25 -7 -35z m-998 12 c-2 -14 -8 -25
-13 -25 -10 0 -11 12 -3 34 10 25 22 19 16 -9z m248 9 c0 -8 -5 -12 -10 -9 -6
4 -8 11 -5 16 9 14 15 11 15 -7z m1020 -15 c0 -4 -7 -12 -15 -19 -12 -10 -15
-10 -15 4 0 9 -7 16 -15 16 -15 0 -20 12 -10 22 7 7 55 -14 55 -23z m133 -1
c-18 -5 -35 -13 -38 -18 -3 -6 -21 -10 -39 -10 -30 0 -33 2 -28 25 5 29 17 32
30 8 9 -15 12 -15 38 4 23 17 33 19 49 10 19 -10 18 -11 -12 -19z m1164 16
c-3 -3 -12 -4 -19 -1 -8 3 -5 6 6 6 11 1 17 -2 13 -5z m-1484 -11 c-7 -2 -19
-2 -25 0 -7 3 -2 5 12 5 14 0 19 -2 13 -5z m65 -11 c2 -7 -3 -12 -12 -12 -9 0
-16 7 -16 16 0 17 22 14 28 -4z m357 8 c-3 -5 -12 -10 -20 -10 -8 0 -17 5 -20
10 -4 6 5 10 20 10 15 0 24 -4 20 -10z m85 -22 c0 -5 -11 -8 -25 -8 -29 0 -33
15 -8 29 17 9 32 -1 33 -21z m-1676 -3 c-4 -8 -10 -15 -15 -15 -5 0 -9 7 -9
15 0 8 7 15 15 15 9 0 12 -6 9 -15z m2856 6 c0 -6 -5 -13 -11 -16 -15 -10
-139 5 -139 16 0 5 34 9 75 9 41 0 75 -4 75 -9z m-2630 -21 c0 -5 -4 -10 -10
-10 -5 0 -10 5 -10 10 0 6 5 10 10 10 6 0 10 -4 10 -10z m444 -11 c-3 -5 -10
-7 -15 -3 -5 3 -7 10 -3 15 3 5 10 7 15 3 5 -3 7 -10 3 -15z m431 6 c-47 -17
-65 -19 -65 -6 0 10 32 17 80 19 18 1 15 -3 -15 -13z m395 5 c0 -5 -4 -10 -10
-10 -5 0 -10 5 -10 10 0 6 5 10 10 10 6 0 10 -4 10 -10z m90 -21 c0 -6 -4 -7
-10 -4 -5 3 -10 11 -10 16 0 6 5 7 10 4 6 -3 10 -11 10 -16z m-1156 2 c3 -4
-1 -17 -9 -27 -14 -18 -14 -18 -15 9 0 26 13 36 24 18z m366 -1 c0 -5 -2 -10
-4 -10 -3 0 -8 5 -11 10 -3 6 -1 10 4 10 6 0 11 -4 11 -10z m130 -9 c0 -3 -15
-7 -33 -8 -29 -2 -30 -1 -14 12 18 13 47 11 47 -4z m741 -1 c-7 -4 -11 -11
-10 -16 4 -23 -3 -32 -21 -27 -11 3 -20 10 -20 15 0 14 43 47 54 41 4 -3 3 -9
-3 -13z m-1627 -24 c13 3 27 1 30 -5 4 -7 -1 -11 -12 -11 -11 0 -22 -9 -25
-19 -4 -16 -14 -20 -61 -20 -40 0 -56 4 -56 14 0 18 29 24 58 11 27 -11 39 -2
23 17 -6 8 -8 23 -4 32 6 17 7 16 14 -4 7 -17 14 -20 33 -15z m61 24 c3 -5 2
-10 -4 -10 -5 0 -13 5 -16 10 -3 6 -2 10 4 10 5 0 13 -4 16 -10z m265 -16 c0
-8 -7 -14 -15 -14 -8 0 -15 9 -15 20 0 13 5 18 15 14 8 -4 15 -12 15 -20z
m803 13 c22 5 29 3 25 -8 -2 -7 1 -25 9 -39 7 -14 9 -26 3 -28 -17 -6 -51 19
-48 36 2 10 -3 17 -12 17 -9 0 -16 -11 -18 -27 -4 -33 -17 -37 -25 -8 -7 28
-79 28 -98 0 -12 -17 -19 -18 -44 -11 l-30 8 27 11 c14 6 29 15 32 21 4 5 32
8 66 5 37 -3 60 0 60 6 0 5 -10 10 -22 11 -22 1 -22 1 2 8 14 5 29 4 34 0 5
-4 22 -5 39 -2z m157 3 c0 -5 -6 -10 -14 -10 -8 0 -18 5 -21 10 -3 6 3 10 14
10 12 0 21 -4 21 -10z m-574 -21 c3 -31 5 -33 13 -20 11 18 37 8 43 -16 4 -16
-2 -18 -64 -18 -55 0 -68 3 -66 15 2 8 14 15 28 15 20 0 25 4 22 23 -1 15 2
22 10 19 7 -2 14 -10 14 -18z m494 11 c0 -5 -7 -10 -15 -10 -8 0 -15 5 -15 10
0 6 7 10 15 10 8 0 15 -4 15 -10z m220 0 c0 -5 -4 -10 -9 -10 -6 0 -13 5 -16
10 -3 6 1 10 9 10 9 0 16 -4 16 -10z m-1169 -13 c-1 -12 -15 -9 -19 4 -3 6 1
10 8 8 6 -3 11 -8 11 -12z m-147 -13 c5 -14 16 -16 56 -11 29 4 50 2 50 -3 0
-6 -31 -10 -69 -10 -51 0 -70 4 -74 14 -5 13 5 23 24 25 4 1 10 -6 13 -15z
m330 0 c4 -10 1 -14 -6 -12 -15 5 -23 28 -10 28 5 0 13 -7 16 -16z m87 -7
c-13 -13 -26 -3 -16 12 3 6 11 8 17 5 6 -4 6 -10 -1 -17z m293 -4 c4 -9 1 -20
-6 -24 -8 -5 -15 -3 -17 4 -2 7 -8 18 -14 25 -7 9 -4 12 11 12 11 0 23 -8 26
-17z m2006 -13 c0 -5 -5 -10 -11 -10 -5 0 -7 5 -4 10 3 6 8 10 11 10 2 0 4 -4
4 -10z m-2415 -10 c4 -6 -5 -10 -19 -10 -14 0 -26 5 -26 10 0 6 9 10 19 10 11
0 23 -4 26 -10z m465 0 c0 -5 -2 -10 -4 -10 -3 0 -8 5 -11 10 -3 6 -1 10 4 10
6 0 11 -4 11 -10z m1203 3 c-7 -2 -21 -2 -30 0 -10 3 -4 5 12 5 17 0 24 -2 18
-5z"/>
<g>
<path d="M2056 4600 c-3 -8 -14 -42 -24 -75 -19 -65 -11 -59 -124 -79 -21 -4
-38 -10 -38 -14 0 -9 54 -38 88 -47 26 -7 27 -23 7 -87 -17 -58 -7 -62 45 -20
52 43 77 54 97 43 27 -14 90 -41 97 -41 12 0 6 30 -14 65 -26 47 -26 50 14 75
33 19 55 55 43 67 -3 3 -27 0 -53 -5 -26 -6 -52 -8 -59 -6 -12 5 -44 62 -63
114 -8 19 -11 21 -16 10z m28 -82 c16 -40 13 -48 -23 -48 -28 0 -28 0 -18 40
13 48 23 50 41 8z m107 -79 c-27 -22 -44 -21 -49 4 -3 14 4 17 35 17 l38 -1
-24 -20z m-63 -14 c10 -22 8 -27 -20 -46 -37 -27 -81 -17 -86 19 -5 34 15 52
58 52 29 0 39 -5 48 -25z m-128 -5 c0 -21 -16 -25 -57 -14 -33 9 -28 22 10 27
17 2 35 5 40 5 4 1 7 -7 7 -18z m165 -71 c9 -28 3 -32 -30 -19 -23 9 -25 13
-15 25 18 21 38 19 45 -6z m-125 1 c13 -9 12 -13 -9 -30 -37 -32 -47 -27 -35
18 7 24 20 28 44 12z"/>
</g>
<g>
<path d="M2120 3940 c0 -12 17 -12 45 0 17 7 15 9 -12 9 -18 1 -33 -3 -33 -9z"/>
</g>
<g>
<path d="M1240 1696 c-5 -15 -10 -34 -10 -43 0 -8 -13 -32 -29 -52 -35 -44
-57 -89 -48 -97 9 -10 37 16 37 33 0 8 13 26 29 41 32 30 59 118 42 135 -7 7
-14 1 -21 -17z"/>
</g>
<g>
<path d="M1332 4419 c-33 -12 -27 -16 23 -15 25 1 45 4 45 7 0 11 -46 16 -68
8z"/>
</g>
<g>
<path d="M1327 4383 c-12 -11 -8 -20 11 -25 22 -6 62 8 62 22 0 11 -63 14 -73
3z"/>
</g>
<g>
<path d="M1437 4293 c-12 -11 -8 -23 8 -23 8 0 15 7 15 15 0 16 -12 20 -23 8z"/>
</g>
<g>
<path d="M1413 4243 c-32 -6 -29 -21 5 -25 19 -2 26 -8 24 -20 -2 -11 3 -18
14 -18 10 0 14 5 10 16 -3 8 -2 13 3 10 5 -3 12 2 15 11 11 27 -15 37 -71 26z"/>
</g>
<g>
<path d="M485 1460 c-3 -5 -1 -10 4 -10 6 0 11 5 11 10 0 6 -2 10 -4 10 -3 0
-8 -4 -11 -10z"/>
</g>
<g>
<path d="M605 1449 c-10 -15 3 -25 16 -12 7 7 7 13 1 17 -6 3 -14 1 -17 -5z"/>
</g>
<g>
<path d="M311 1561 c-15 -10 -8 -41 9 -41 15 0 25 29 14 40 -5 5 -15 5 -23 1z"/>
</g>
<g>
<path d="M2890 1150 c0 -5 16 -10 36 -10 21 0 33 4 29 10 -3 6 -19 10 -36 10
-16 0 -29 -4 -29 -10z"/>
</g>
<g>
<path d="M250 872 c0 -14 33 -40 45 -36 7 3 23 0 35 -6 16 -8 25 -9 33 -1 7 7
5 12 -6 17 -9 3 -17 11 -17 18 0 6 -18 11 -45 12 -25 0 -45 -1 -45 -4z"/>
</g>
<g>
<path d="M670 870 c0 -5 5 -10 10 -10 6 0 10 5 10 10 0 6 -4 10 -10 10 -5 0
-10 -4 -10 -10z"/>
</g>
<g>
<path d="M102 853 c5 -25 28 -28 28 -4 0 12 -6 21 -16 21 -9 0 -14 -7 -12 -17z"/>
</g>
<g>
<path d="M116 813 c-11 -11 -6 -23 9 -23 8 0 15 4 15 9 0 13 -16 22 -24 14z"/>
</g>
<g>
<path d="M400 786 c0 -9 5 -16 10 -16 6 0 10 4 10 9 0 6 -4 13 -10 16 -5 3
-10 -1 -10 -9z"/>
</g>
<g>
<path d="M306 771 c-3 -5 -15 -7 -26 -4 -22 6 -28 -15 -9 -34 15 -15 59 7 59
30 0 18 -15 23 -24 8z"/>
</g>
<g>
<path d="M355 750 c3 -5 8 -10 11 -10 2 0 4 5 4 10 0 6 -5 10 -11 10 -5 0 -7
-4 -4 -10z"/>
</g>
<g>
<path d="M202 739 c2 -6 8 -10 13 -10 5 0 11 4 13 10 2 6 -4 11 -13 11 -9 0
-15 -5 -13 -11z"/>
</g>
<g>
<path d="M360 700 c0 -5 14 -10 31 -10 17 0 28 4 24 10 -3 6 -17 10 -31 10
-13 0 -24 -4 -24 -10z"/>
</g>
<g>
<path d="M180 680 c0 -5 7 -10 16 -10 8 0 12 5 9 10 -3 6 -10 10 -16 10 -5 0
-9 -4 -9 -10z"/>
</g>
<g>
<path d="M240 671 c0 -13 10 -20 37 -24 45 -8 56 -1 43 24 -15 27 -80 27 -80
0z"/>
</g>
<g>
<path d="M430 661 c0 -5 5 -13 10 -16 6 -3 10 -2 10 4 0 5 -4 13 -10 16 -5 3
-10 2 -10 -4z"/>
</g>
<g>
<path d="M255 610 c4 -6 11 -8 16 -5 14 9 11 15 -7 15 -8 0 -12 -5 -9 -10z"/>
</g>
<g>
<path d="M1100 886 c-23 -23 -11 -37 28 -30 34 6 51 18 52 36 0 11 -68 6 -80
-6z"/>
</g>
<g>
<path d="M1185 861 c-7 -12 12 -24 25 -16 11 7 4 25 -10 25 -5 0 -11 -4 -15
-9z"/>
</g>
<g>
<path d="M1260 840 c0 -5 7 -10 15 -10 8 0 15 5 15 10 0 6 -7 10 -15 10 -8 0
-15 -4 -15 -10z"/>
</g>
<g>
<path d="M1086 833 c-11 -11 -6 -23 9 -23 8 0 15 4 15 9 0 13 -16 22 -24 14z"/>
</g>
<g>
<path d="M1015 811 c-7 -12 12 -24 25 -16 11 7 4 25 -10 25 -5 0 -11 -4 -15
-9z"/>
</g>
<g>
<path d="M1205 799 c-9 -14 -2 -20 31 -22 20 -1 29 3 32 16 3 13 -3 17 -27 17
-16 0 -33 -5 -36 -11z"/>
</g>
<g>
<path d="M1140 790 c0 -5 7 -10 15 -10 8 0 15 5 15 10 0 6 -7 10 -15 10 -8 0
-15 -4 -15 -10z"/>
</g>
<g>
<path d="M956 752 c-9 -15 1 -32 20 -32 9 0 14 -7 12 -17 -2 -10 4 -19 12 -20
12 -3 16 6 17 38 2 39 1 41 -14 26 -15 -15 -17 -15 -28 0 -9 11 -14 13 -19 5z"/>
</g>
<g>
<path d="M1113 739 c-6 -6 -9 -18 -6 -25 6 -17 -9 -18 -24 -3 -8 8 -13 8 -18
-1 -13 -21 13 -36 62 -33 26 1 57 3 68 3 38 2 63 40 25 40 -11 0 -20 7 -20 15
0 18 -21 20 -38 3 -8 -8 -15 -8 -25 0 -10 8 -16 9 -24 1z"/>
</g>
<g>
<path d="M1130 650 c-13 -8 -13 -11 2 -27 14 -13 20 -15 30 -5 17 17 -11 45
-32 32z"/>
</g>
<g>
<path d="M1797 896 c-3 -7 0 -19 6 -25 16 -16 47 -14 54 4 7 19 5 20 -28 29
-18 4 -29 1 -32 -8z"/>
</g>
<g>
<path d="M1560 885 c0 -8 7 -15 15 -15 8 0 15 7 15 15 0 8 -7 15 -15 15 -8 0
-15 -7 -15 -15z"/>
</g>
<g>
<path d="M1955 889 c-4 -6 -5 -13 -2 -16 7 -7 27 6 27 18 0 12 -17 12 -25 -2z"/>
</g>
<g>
<path d="M1754 879 c-10 -17 13 -36 27 -22 12 12 4 33 -11 33 -5 0 -12 -5 -16
-11z"/>
</g>
<g>
<path d="M1885 879 c-4 -6 -4 -13 -1 -16 8 -8 36 5 36 17 0 13 -27 13 -35 -1z"/>
</g>
<g>
<path d="M1990 880 c0 -5 5 -10 10 -10 6 0 10 5 10 10 0 6 -4 10 -10 10 -5 0
-10 -4 -10 -10z"/>
</g>
<g>
<path d="M1615 870 c-3 -6 1 -13 10 -16 19 -8 30 0 20 15 -8 14 -22 14 -30 1z"/>
</g>
<g>
<path d="M1665 870 c-8 -13 4 -32 16 -25 12 8 12 35 0 35 -6 0 -13 -4 -16 -10z"/>
</g>
<g>
<path d="M1845 850 c-4 -6 -3 -16 3 -22 6 -6 12 -6 17 2 4 6 3 16 -3 22 -6 6
-12 6 -17 -2z"/>
</g>
<g>
<path d="M1900 830 c0 -5 5 -10 10 -10 6 0 10 5 10 10 0 6 -4 10 -10 10 -5 0
-10 -4 -10 -10z"/>
</g>
<g>
<path d="M1977 783 c-12 -11 -8 -23 8 -23 8 0 15 7 15 15 0 16 -12 20 -23 8z"/>
</g>
<g>
<path d="M2132 769 c2 -6 8 -10 13 -10 5 0 11 4 13 10 2 6 -4 11 -13 11 -9 0
-15 -5 -13 -11z"/>
</g>
<g>
<path d="M2290 770 c0 -5 5 -10 10 -10 6 0 10 5 10 10 0 6 -4 10 -10 10 -5 0
-10 -4 -10 -10z"/>
</g>
<g>
<path d="M1991 741 c-14 -9 -9 -41 8 -41 13 0 23 32 14 41 -5 5 -14 4 -22 0z"/>
</g>
<g>
<path d="M2199 723 c-13 -34 -4 -60 15 -44 7 6 20 9 27 6 15 -5 42 41 33 56
-9 16 -21 10 -28 -13 l-7 -23 -9 23 c-12 29 -18 28 -31 -5z"/>
</g>
<g>
<path d="M2033 724 c-8 -21 13 -42 28 -27 13 13 5 43 -11 43 -6 0 -13 -7 -17
-16z"/>
</g>
<g>
<path d="M2110 731 c-14 -4 -26 -15 -28 -24 -4 -21 24 -23 32 -2 3 8 15 15 26
15 11 0 20 5 20 10 0 11 -13 11 -50 1z"/>
</g>
<g>
<path d="M2303 724 c-7 -18 11 -39 26 -30 17 11 13 46 -4 46 -9 0 -18 -7 -22
-16z"/>
</g>
<g>
<path d="M2360 705 c-16 -19 -3 -40 16 -24 15 13 19 39 5 39 -5 0 -14 -7 -21
-15z"/>
</g>
<g>
<path d="M2520 694 c0 -14 3 -14 15 -4 8 7 15 14 15 16 0 2 -7 4 -15 4 -8 0
-15 -7 -15 -16z"/>
</g>
<g>
<path d="M2458 693 c-18 -5 -26 -33 -9 -33 5 0 19 9 32 20 24 19 16 24 -23 13z"/>
</g>
<g>
<path d="M2640 685 c0 -10 11 -15 35 -15 24 0 35 5 35 15 0 10 -11 15 -35 15
-24 0 -35 -5 -35 -15z"/>
</g>
<g>
<path d="M2720 681 c0 -5 7 -11 15 -15 9 -3 15 0 15 9 0 8 -7 15 -15 15 -8 0
-15 -4 -15 -9z"/>
</g>
<g>
<path d="M2005 650 c3 -5 17 -10 31 -10 13 0 24 5 24 10 0 6 -14 10 -31 10
-17 0 -28 -4 -24 -10z"/>
</g>
<g>
<path d="M2265 646 c-16 -12 -17 -16 -6 -30 12 -14 10 -16 -13 -16 -29 0 -45
-25 -28 -42 5 -5 27 -11 49 -12 40 -2 63 -11 63 -25 0 -5 -11 -6 -25 -3 -28 5
-35 -17 -11 -37 18 -15 66 2 66 24 0 17 20 56 33 66 5 4 7 15 5 25 -3 14 -11
18 -33 16 -16 -2 -35 -8 -42 -14 -16 -13 -17 4 -2 19 16 16 4 43 -19 43 -10 0
-27 -6 -37 -14z m5 -76 c0 -5 -7 -7 -15 -4 -8 4 -15 8 -15 10 0 2 7 4 15 4 8
0 15 -4 15 -10z"/>
</g>
<g>
<path d="M2550 650 c0 -5 5 -10 10 -10 6 0 10 5 10 10 0 6 -4 10 -10 10 -5 0
-10 -4 -10 -10z"/>
</g>
<g>
<path d="M2086 641 c-4 -5 -2 -12 3 -15 5 -4 12 -2 15 3 4 5 2 12 -3 15 -5 4
-12 2 -15 -3z"/>
</g>
<g>
<path d="M2140 631 c0 -11 48 -24 61 -16 5 4 7 11 4 16 -8 12 -65 12 -65 0z"/>
</g>
<g>
<path d="M1976 612 c-6 -11 -2 -32 17 -69 13 -29 19 -29 34 3 13 28 10 44 -9
44 -6 0 -16 7 -23 17 -8 10 -14 12 -19 5z"/>
</g>
<g>
<path d="M2485 601 c4 -14 1 -19 -12 -17 -9 0 -19 -7 -21 -16 -3 -14 3 -18 27
-18 37 0 47 15 30 46 -15 28 -33 32 -24 5z"/>
</g>
<g>
<path d="M2630 610 c0 -5 4 -10 9 -10 6 0 13 5 16 10 3 6 -1 10 -9 10 -9 0
-16 -4 -16 -10z"/>
</g>
<g>
<path d="M1920 592 c0 -5 -11 -7 -25 -4 -28 5 -31 -4 -11 -30 16 -22 36 -23
36 -3 0 8 7 15 16 15 9 0 14 5 12 12 -5 15 -28 23 -28 10z"/>
</g>
<g>
<path d="M2100 570 c0 -5 7 -10 15 -10 8 0 15 5 15 10 0 6 -7 10 -15 10 -8 0
-15 -4 -15 -10z"/>
</g>
<g>
<path d="M2545 569 c-4 -6 -4 -13 -1 -16 8 -8 36 5 36 17 0 13 -27 13 -35 -1z"/>
</g>
<g>
<path d="M2626 541 c-3 -5 -15 -7 -26 -4 -22 6 -26 -7 -8 -25 17 -17 28 -15
28 4 0 11 6 14 20 9 14 -5 20 -2 20 9 0 17 -25 22 -34 7z"/>
</g>
<g>
<path d="M2160 524 c0 -11 5 -14 16 -10 9 3 22 6 30 6 8 0 14 5 14 10 0 6 -13
10 -30 10 -21 0 -30 -5 -30 -16z"/>
</g>
<g>
<path d="M1924 515 c-12 -29 15 -45 45 -26 12 8 12 12 -2 25 -19 20 -36 20
-43 1z"/>
</g>
<g>
<path d="M2070 520 c0 -5 9 -10 20 -10 11 0 20 5 20 10 0 6 -9 10 -20 10 -11
0 -20 -4 -20 -10z"/>
</g>
<g>
<path d="M2224 509 c-8 -14 11 -33 25 -25 6 4 11 11 11 16 0 13 -29 20 -36 9z"/>
</g>
<g>
<path d="M2385 510 c-3 -5 -4 -14 0 -20 8 -13 35 -1 35 16 0 16 -26 19 -35 4z"/>
</g>
<g>
<path d="M1825 501 c-3 -5 -1 -12 4 -16 13 -8 61 5 61 16 0 12 -57 12 -65 0z"/>
</g>
<g>
<path d="M2455 501 c-7 -12 12 -24 25 -16 11 7 4 25 -10 25 -5 0 -11 -4 -15
-9z"/>
</g>
<g>
<path d="M2072 473 c3 -13 12 -17 32 -16 16 1 31 4 33 7 11 11 -10 26 -38 26
-24 0 -30 -4 -27 -17z"/>
</g>
<g>
<path d="M2167 474 c-13 -13 -7 -24 14 -24 11 0 19 5 17 12 -5 14 -22 21 -31
12z"/>
</g>
<g>
<path d="M2591 462 c-6 -10 -10 -11 -15 -3 -8 13 -46 15 -46 3 0 -16 35 -37
60 -36 67 3 96 38 40 46 -20 3 -34 0 -39 -10z"/>
</g>
<g>
<path d="M1980 456 c0 -9 7 -16 16 -16 9 0 14 5 12 12 -6 18 -28 21 -28 4z"/>
</g>
<g>
<path d="M1898 452 c-31 -4 -32 -6 -18 -32 8 -15 13 -16 35 -7 24 12 33 32 18
39 -5 2 -20 2 -35 0z"/>
</g>
<g>
<path d="M2292 443 c-15 -6 -6 -23 14 -23 8 0 14 7 14 15 0 15 -6 17 -28 8z"/>
</g>
<g>
<path d="M2363 443 c-36 -7 -27 -23 12 -23 24 0 35 5 35 15 0 15 -6 16 -47 8z"/>
</g>
<g>
<path d="M2486 441 c-4 -6 -13 -8 -20 -5 -8 3 -17 1 -21 -5 -4 -7 8 -11 35
-11 28 0 40 4 38 12 -6 16 -25 21 -32 9z"/>
</g>
<g>
<path d="M2030 420 c0 -5 7 -10 16 -10 8 0 12 5 9 10 -3 6 -10 10 -16 10 -5 0
-9 -4 -9 -10z"/>
</g>
<g>
<path d="M2090 420 c0 -5 7 -10 15 -10 8 0 15 5 15 10 0 6 -7 10 -15 10 -8 0
-15 -4 -15 -10z"/>
</g>
<g>
<path d="M648 583 c7 -3 16 -2 19 1 4 3 -2 6 -13 5 -11 0 -14 -3 -6 -6z"/>
</g>
</g>
<g>
<path d="M47 194 c1 -57 5 -104 8 -104 3 0 16 0 30 0 23 0 25 4 25 45 0 35 4
47 18 51 45 14 67 31 70 56 4 34 -19 47 -95 52 l-58 5 2 -105z m89 43 c-7 -36
-11 -41 -25 -32 -12 7 -15 58 -5 68 3 3 13 3 21 0 11 -4 13 -14 9 -36z"/>
</g>
<g>
<path d="M602 292 c-38 -3 -42 -5 -31 -18 8 -9 14 -52 16 -102 l3 -87 62 3
c63 4 80 14 75 42 -4 24 -37 25 -37 1 0 -14 -6 -21 -20 -21 -15 0 -20 7 -20
29 0 24 3 28 20 24 17 -5 20 0 20 27 0 29 -3 32 -25 28 -22 -5 -24 -2 -21 25
4 38 21 46 36 18 6 -12 15 -21 20 -21 15 0 12 50 -2 51 -7 0 -22 1 -33 2 -11
1 -39 1 -63 -1z"/>
</g>
<g>
<path d="M1226 273 c16 -31 17 -77 5 -140 l-8 -43 43 0 c43 0 53 7 35 26 -5 5
-7 23 -3 39 5 22 13 31 32 33 14 1 37 11 52 22 15 11 29 20 32 20 3 0 2 -22
-1 -48 -3 -30 -1 -58 6 -71 11 -20 19 -22 74 -19 61 3 62 3 62 33 0 40 -31 47
-45 10 -14 -37 -34 -26 -38 21 -3 31 -1 37 9 27 21 -21 39 -15 39 11 0 31 -16
42 -36 25 -14 -11 -15 -8 -12 22 4 42 32 52 42 15 10 -40 36 -33 36 9 l0 35
-71 0 c-66 0 -71 -1 -66 -20 3 -11 3 -20 0 -20 -3 0 -16 9 -30 20 -20 16 -41
20 -99 20 l-73 0 15 -27z m114 -28 c0 -28 -4 -35 -20 -35 -16 0 -20 7 -20 35
0 28 4 35 20 35 16 0 20 -7 20 -35z"/>
</g>
<g>
<path d="M1570 290 c0 -5 7 -10 15 -10 12 0 15 -16 15 -85 0 -70 -3 -85 -16
-85 -8 0 -12 -4 -9 -10 3 -5 25 -10 48 -10 32 0 38 3 29 12 -7 7 -12 37 -12
67 l1 56 24 -45 c43 -81 57 -93 89 -80 l29 11 -6 79 c-7 82 4 110 28 76 9 -12
20 -15 39 -10 l26 6 0 -86 0 -86 42 0 c33 0 39 3 30 12 -18 18 -16 154 3 162
8 3 19 -2 23 -11 11 -19 42 -11 42 11 0 28 -37 36 -169 34 -121 -1 -154 -7
-116 -22 16 -6 22 -96 6 -96 -4 0 -20 27 -34 60 l-26 60 -51 0 c-27 0 -50 -4
-50 -10z"/>
</g>
<g>
<path d="M2247 278 c-37 -30 -48 -95 -23 -134 25 -37 76 -56 115 -43 42 15 40
32 -3 23 -31 -5 -36 -3 -50 25 -20 37 -20 52 -2 77 15 19 15 19 30 -1 16 -20
16 -19 46 13 36 39 38 52 8 52 -13 0 -39 3 -58 6 -27 4 -41 0 -63 -18z"/>
</g>
<g>
<path d="M2407 293 c-2 -5 -1 -46 3 -93 4 -47 6 -88 3 -92 -7 -13 47 -21 95
-14 42 6 55 14 65 41 3 6 8 6 13 2 4 -4 3 -17 -4 -27 -12 -19 -9 -20 68 -20
l80 0 0 29 c0 16 -6 31 -15 35 -8 3 -15 16 -15 30 0 27 -22 40 -39 23 -10 -9
-12 -3 -9 28 3 38 23 53 23 17 0 -10 8 -17 20 -17 14 0 21 8 23 28 l3 27 -70
0 c-68 0 -81 -5 -62 -25 5 -6 7 -34 4 -62 -5 -50 -7 -53 -33 -53 -15 0 -33 -7
-40 -15 -26 -31 -32 -15 -29 69 4 78 2 85 -16 90 -29 8 -63 7 -68 -1z m283
-158 c0 -18 -17 -28 -34 -22 -8 3 -12 15 -9 31 4 21 8 24 24 15 11 -5 19 -16
19 -24z"/>
</g>
<g>
<path d="M223 276 c5 -13 -21 -127 -37 -167 -6 -13 0 -18 22 -21 41 -6 55 0
38 17 -9 10 -11 25 -7 47 6 28 12 33 37 36 26 3 31 -1 42 -31 7 -19 10 -41 7
-50 -5 -11 3 -16 30 -19 20 -2 39 0 41 4 3 5 -8 39 -24 76 -16 37 -35 79 -41
95 -10 24 -15 27 -62 27 -40 0 -50 -3 -46 -14z m67 -47 c0 -10 -7 -19 -15 -19
-15 0 -21 31 -9 43 11 10 24 -3 24 -24z"/>
</g>
<g>
<path d="M460 281 c-45 -11 -61 -27 -71 -70 -8 -37 -6 -46 12 -72 24 -33 55
-49 99 -49 48 0 60 9 60 46 0 32 -2 34 -37 35 -21 1 -47 2 -58 3 -16 1 -20 7
-18 36 2 44 26 63 59 48 31 -14 45 -1 20 18 -21 15 -26 15 -66 5z m53 -138 c4
-2 7 -11 7 -20 0 -12 -7 -14 -32 -9 -38 7 -53 20 -44 35 6 10 47 6 69 -6z"/>
</g>
<g>
<path d="M2033 276 c3 -7 -3 -50 -13 -94 -15 -70 -16 -82 -3 -86 19 -8 33 1
27 18 -3 7 0 25 5 39 16 40 46 35 70 -12 11 -21 27 -41 36 -45 25 -9 55 -7 55
4 0 6 -4 10 -10 10 -12 0 -34 43 -55 105 -13 36 -14 50 -4 61 10 12 2 14 -51
14 -49 0 -61 -3 -57 -14z m57 -62 c0 -8 -4 -14 -10 -14 -5 0 -10 9 -10 21 0
11 5 17 10 14 6 -3 10 -13 10 -21z"/>
</g>
<g>
<path d="M954 253 c-23 -17 -23 -43 2 -72 32 -39 42 -92 20 -114 -20 -20 -20
-27 -1 -27 27 0 68 49 63 75 -4 19 0 25 19 27 l25 3 -21 27 c-14 17 -33 28
-54 30 -20 2 -32 8 -32 18 0 10 8 14 24 12 16 -3 22 1 19 10 -5 15 -48 22 -64
11z"/>
</g>
<g>
<path d="M868 179 c-21 -12 -24 -49 -6 -67 16 -16 59 -15 81 3 24 18 14 53
-20 66 -30 11 -33 11 -55 -2z m52 -40 c0 -12 -27 -11 -35 1 -11 17 5 32 21 19
8 -6 14 -15 14 -20z"/>
</g>
</g>
</svg>
