<?xml version="1.0" standalone="no"?>
<!DOCTYPE svg PUBLIC "-//W3C//DTD SVG 20010904//EN"
 "http://www.w3.org/TR/2001/REC-SVG-20010904/DTD/svg10.dtd">
<svg version="1.0" xmlns="http://www.w3.org/2000/svg"
 width="300.000000pt" height="535.000000pt" viewBox="0 0 300.000000 535.000000"
 preserveAspectRatio="xMidYMid meet">
<metadata>
Created by potrace 1.15, written by Peter Selinger 2001-2017
</metadata>
<g transform="translate(0.000000,535.000000) scale(0.100000,-0.100000)"
fill="#000000" stroke="none">
<g>
<path d="M6 5328 c-6 -26 -8 -3064 -2 -3057 4 3 16 1450 21 2449 0 80 1 247 3
371 l2 227 24 6 c18 4 1133 9 1686 6 661 -3 1260 2 1260 10 0 7 -517 10 -1494
10 l-1494 0 -6 -22z"/>
</g>
<g>
<path d="M2995 4700 c0 -201 1 -283 2 -182 2 100 2 264 0 365 -1 100 -2 18 -2
-183z"/>
</g>
<g>
<path d="M1130 4605 c-7 -8 -10 -22 -6 -30 3 -9 0 -15 -8 -15 -17 0 -56 -43
-56 -63 0 -9 -4 -18 -10 -22 -5 -3 -7 -11 -4 -18 2 -7 -4 -22 -16 -32 -11 -10
-20 -31 -20 -46 0 -23 8 -32 40 -49 26 -13 40 -27 40 -40 0 -10 4 -21 9 -24
17 -11 -1 -45 -29 -55 -37 -13 -47 -44 -22 -71 16 -17 27 -20 56 -15 38 8 49
-8 25 -32 -14 -14 -3 -33 17 -33 8 0 18 -11 23 -23 8 -20 17 -24 54 -25 27 -1
49 3 56 11 11 14 9 84 -4 145 -8 35 -4 37 53 26 36 -7 46 -27 31 -56 -10 -19
-9 -20 13 -15 19 5 26 1 36 -23 11 -25 18 -28 41 -24 24 5 31 1 50 -29 27 -44
27 -51 -4 -43 -14 4 -33 2 -42 -3 -57 -29 -105 -43 -135 -38 -55 8 -143 -38
-131 -69 3 -8 -3 -25 -14 -37 -26 -30 -49 -123 -34 -141 18 -22 -8 -116 -41
-148 -15 -16 -34 -28 -42 -28 -20 0 -76 -49 -76 -65 0 -8 -14 -22 -31 -32 -18
-11 -33 -29 -36 -45 -3 -15 -14 -30 -25 -34 -10 -3 -17 -11 -15 -17 5 -16 48
-16 54 0 3 8 9 11 12 6 8 -11 49 -33 62 -33 6 0 8 9 3 22 -6 21 -6 21 17 7 13
-9 41 -19 62 -23 33 -6 37 -10 33 -32 -3 -13 -1 -22 4 -19 5 3 18 -12 30 -34
23 -45 24 -51 11 -51 -5 0 -12 13 -16 30 -8 36 -21 46 -40 30 -8 -7 -15 -7
-19 -1 -4 6 -20 4 -43 -5 -20 -9 -39 -12 -42 -7 -3 4 -21 8 -38 8 -35 0 -44
-20 -21 -43 9 -9 7 -12 -10 -12 -18 0 -22 6 -22 34 0 44 -19 96 -35 96 -7 0
-18 7 -25 15 -14 17 -56 20 -65 5 -11 -17 -22 -11 -50 26 l-27 35 21 23 c28
30 27 70 -2 93 -16 12 -21 23 -16 33 54 102 158 337 155 347 -3 7 -13 13 -22
13 -15 0 -16 2 -2 18 21 24 58 105 58 125 0 10 -8 17 -20 17 -13 0 -20 7 -20
19 0 37 -88 11 -171 -49 -21 -15 -59 -33 -84 -39 -49 -12 -52 -16 -30 -45 8
-11 15 -23 15 -26 0 -4 -50 -10 -112 -13 -144 -8 -153 -14 -113 -92 15 -31 40
-75 55 -98 58 -91 65 -103 88 -145 l23 -43 -31 -29 c-35 -33 -34 -62 2 -91 13
-10 17 -19 10 -22 -11 -7 -7 -131 5 -150 8 -13 11 -24 19 -77 9 -55 -32 -176
-73 -217 -18 -19 -33 -36 -33 -38 0 -13 64 -34 120 -39 36 -3 86 -9 111 -12
37 -4 55 0 94 20 26 14 54 26 62 26 26 0 27 31 0 56 -27 25 -81 129 -91 177
-6 25 -4 27 29 27 28 0 35 -4 35 -19 0 -48 59 -65 115 -35 17 9 50 20 74 24
42 7 45 6 79 -32 41 -45 110 -82 150 -79 15 0 54 1 87 2 40 0 65 5 77 16 10 9
19 14 21 12 23 -40 37 -76 37 -100 0 -19 9 -37 25 -51 14 -12 25 -26 25 -32 0
-6 -17 -29 -37 -51 -112 -118 -363 -464 -363 -498 0 -7 9 -29 19 -48 11 -20
18 -45 15 -56 -3 -11 4 -27 20 -42 14 -14 26 -31 26 -40 0 -8 12 -27 26 -42
l26 -27 -32 -164 c-18 -89 -38 -179 -45 -198 -13 -33 -26 -116 -41 -258 -6
-62 -7 -64 -33 -59 -14 3 -54 17 -88 31 -34 15 -88 31 -120 37 -81 16 -262 5
-348 -21 -141 -41 -222 -52 -367 -48 -105 2 -138 0 -138 -9 0 -20 285 -17 369
2 36 9 111 27 166 40 169 41 283 35 428 -22 48 -20 89 -39 92 -43 2 -4 -4 -15
-14 -24 -17 -16 -22 -15 -74 14 -66 36 -125 58 -187 70 -52 10 -202 -4 -275
-25 -28 -8 -66 -16 -85 -19 -19 -3 -72 -14 -118 -26 -58 -14 -116 -20 -193
-20 -60 0 -109 -4 -109 -9 0 -30 188 -16 385 28 273 61 356 67 451 32 62 -24
115 -51 125 -64 4 -5 18 -10 33 -10 23 -2 25 -5 21 -32 -2 -16 -7 -51 -10 -77
-7 -55 -16 -58 -77 -27 -23 12 -87 37 -143 57 -156 54 -220 53 -638 -8 -37 -6
-85 -10 -107 -10 -23 0 -40 -5 -40 -11 0 -8 20 -10 62 -6 164 14 274 27 355
43 161 30 297 6 493 -90 30 -14 63 -26 73 -26 20 0 23 -52 6 -112 l-10 -38
-72 -1 c-40 -1 -260 -2 -489 -2 -230 -1 -418 -5 -418 -9 0 -5 53 -8 118 -8
659 -3 852 -6 852 -15 0 -7 -154 -10 -443 -10 -520 0 -527 0 -527 -19 0 -12
14 -13 78 -8 85 8 100 8 550 4 305 -2 312 -2 312 -22 0 -11 -7 -20 -15 -20 -9
0 -18 -6 -21 -14 -3 -8 -26 -20 -52 -27 -26 -7 -60 -21 -77 -31 -16 -10 -40
-18 -51 -18 -29 0 -88 -25 -104 -45 -25 -30 3 -40 113 -39 56 0 137 4 180 9
55 5 99 4 148 -5 67 -13 71 -12 91 7 19 20 27 69 29 174 l0 26 187 4 c103 2
237 3 297 4 l110 0 3 -84 c2 -72 6 -88 25 -105 12 -12 33 -35 47 -51 41 -50
86 -75 157 -90 70 -15 195 -20 206 -8 9 8 -32 74 -60 96 -13 11 -30 34 -37 51
-12 30 -37 52 -90 81 -20 12 -49 92 -39 108 6 10 596 3 799 -10 63 -3 103 -2
107 4 8 13 -151 21 -573 29 -184 4 -337 8 -339 10 -2 2 -2 6 0 9 3 2 195 5
427 6 233 1 419 5 415 10 -4 4 -53 10 -108 12 -118 5 -242 26 -340 56 -142 45
-246 63 -320 57 -58 -5 -67 -4 -51 7 10 6 28 22 38 33 24 26 68 24 208 -12
164 -41 251 -54 375 -54 117 0 227 18 249 41 6 5 26 9 47 9 l36 0 1 -347 2
-348 -253 3 c-535 5 -1349 6 -1992 2 -369 -2 -680 0 -692 4 -17 6 -23 3 -23
-8 0 -9 9 -17 23 -18 12 -1 36 -3 52 -5 17 -2 670 -5 1452 -6 782 -1 1425 -5
1429 -10 4 -4 10 -84 12 -178 l5 -170 -49 0 c-27 0 -276 -1 -554 -3 -278 -2
-684 -1 -903 2 -395 5 -398 5 -377 25 18 16 20 26 15 58 -6 32 -4 39 9 39 18
0 21 27 6 50 -8 12 -13 13 -29 3 -16 -10 -22 -9 -32 3 -11 13 -10 18 4 26 19
10 14 28 -7 28 -7 0 -20 -6 -30 -13 -17 -13 -16 -17 13 -80 32 -69 34 -117 5
-117 -20 0 -17 -18 3 -22 9 -2 -223 -2 -515 0 -468 2 -532 1 -532 -13 0 -13
170 -15 1490 -14 1144 0 1491 3 1497 12 4 6 8 844 9 1862 1 1169 -1 1683 -6
1395 -4 -250 -11 -653 -15 -895 -4 -242 -9 -552 -10 -690 -5 -499 -3 -459 -24
-472 -11 -7 -69 -19 -129 -28 -90 -13 -130 -14 -219 -6 -109 11 -322 59 -346
80 -8 6 -45 17 -83 25 -91 19 -104 25 -104 46 0 15 7 17 48 12 26 -3 94 -20
152 -39 96 -32 118 -35 261 -40 119 -4 158 -3 164 7 6 10 -7 11 -62 5 -93 -9
-242 9 -333 41 -41 14 -110 32 -154 40 -43 7 -81 16 -84 19 -17 16 23 16 145
0 120 -16 147 -17 227 -6 50 8 112 24 138 36 73 35 178 57 256 53 40 -2 68 1
65 6 -4 5 -55 6 -117 3 -88 -5 -129 -12 -191 -35 -153 -56 -240 -65 -365 -37
-36 8 -91 14 -122 15 -55 0 -58 -1 -58 -25 0 -14 -3 -25 -8 -25 -4 0 -8 44
-10 98 -2 88 0 103 22 145 14 25 30 66 36 89 6 24 29 103 52 175 42 132 43
133 76 139 23 4 36 14 43 30 4 13 14 23 20 22 7 -2 18 8 25 20 6 13 25 32 42
42 44 27 45 34 17 92 -16 32 -24 62 -20 76 7 29 27 29 23 0 -4 -33 15 -36 26
-5 8 21 4 39 -21 89 -17 35 -49 102 -72 151 -23 48 -59 125 -81 171 l-41 84
26 38 c14 20 25 43 25 50 0 17 27 19 32 3 7 -22 48 1 48 26 0 30 10 55 22 55
5 0 6 -9 3 -20 -3 -11 -2 -20 3 -20 16 0 52 46 52 68 0 32 20 70 41 75 10 3
23 17 29 31 5 14 14 26 20 26 5 0 12 11 16 24 3 13 19 37 35 52 23 22 37 28
65 25 26 -2 42 3 60 20 13 12 24 27 24 32 0 5 16 32 35 61 25 37 35 64 35 91
0 49 -34 117 -85 169 -23 22 -58 67 -78 98 -40 59 -117 118 -155 118 -15 0
-28 12 -41 38 -40 78 -180 172 -256 172 -19 0 -35 5 -35 10 0 6 -6 10 -14 10
-10 0 -14 27 -19 108 -6 122 -29 205 -88 323 -43 86 -43 87 -124 129 -66 35
-84 35 -175 2 -55 -21 -53 -31 5 -30 76 1 122 -27 157 -96 15 -30 18 -49 13
-82 -3 -24 -8 -44 -11 -44 -3 0 -14 9 -25 19 -11 10 -32 18 -45 16 -15 -1 -24
3 -24 11 0 8 -4 14 -10 14 -5 0 -10 -5 -10 -12 0 -9 -3 -9 -12 0 -17 17 -38
15 -38 -3 0 -8 -4 -15 -10 -15 -5 0 -10 9 -10 20 0 22 -28 25 -42 5 -5 -6 -8
-5 -8 3 0 6 -7 12 -16 12 -10 0 -14 -6 -10 -15 6 -18 -7 -19 -33 -4 -14 9 -25
9 -48 -3 -16 -8 -38 -13 -48 -12 -20 3 -38 -12 -49 -41 -5 -14 -9 -16 -15 -7
-5 9 -11 5 -20 -12 -8 -13 -10 -29 -7 -35 5 -7 1 -9 -8 -5 -18 7 -21 -9 -6
-37 6 -10 8 -19 6 -19 -3 0 -13 14 -21 30 -9 17 -20 28 -25 25 -6 -4 -10 0
-10 7 -1 8 -5 7 -14 -5 -13 -17 -15 -16 -21 12 -9 42 2 88 32 136 44 70 134
114 269 131 55 6 75 24 29 24 -47 0 -175 -31 -208 -49 -51 -30 -91 -18 -135
40 -39 52 -77 65 -102 34z m91 -55 c23 -27 50 -50 61 -50 10 0 18 -4 18 -8 0
-15 -48 -54 -59 -48 -16 10 -61 -5 -61 -20 0 -8 5 -14 10 -14 6 0 10 5 10 10
0 6 9 10 20 10 24 0 24 0 5 -36 -8 -16 -15 -36 -15 -44 -1 -19 -50 -57 -50
-38 0 7 9 28 20 46 13 21 16 32 7 32 -6 0 -21 -18 -31 -40 -11 -22 -23 -40
-28 -40 -14 0 -9 34 8 58 24 34 6 42 -21 10 -29 -33 -51 -38 -35 -8 14 25 -5
27 -32 3 -17 -15 -18 -15 -18 9 0 30 21 50 74 72 28 12 36 20 29 27 -8 8 -17
7 -33 -1 -12 -6 -24 -9 -27 -6 -3 3 6 11 21 17 14 7 26 20 26 31 0 11 7 18 20
18 23 0 27 29 8 48 -9 9 -7 12 9 12 14 0 38 -19 64 -50z m609 20 c38 -19 65
-41 75 -60 19 -36 19 -102 0 -155 -19 -51 -19 -79 0 -95 20 -17 45 -5 45 22 0
15 3 19 10 12 18 -18 19 -163 3 -249 -8 -44 -16 -96 -17 -115 -2 -38 -31 -100
-46 -100 -6 0 -10 -7 -10 -15 0 -26 15 -17 47 28 24 34 32 60 43 142 8 55 14
151 15 213 0 101 1 110 11 75 19 -65 26 -193 14 -271 -13 -94 -42 -161 -102
-235 -62 -78 -106 -107 -171 -114 -78 -8 -228 53 -305 124 -55 49 -73 58 -154
70 -21 3 -35 9 -32 15 3 5 -2 16 -12 24 -18 13 -18 15 6 34 27 22 71 20 122
-6 38 -20 44 -35 8 -21 -22 8 -33 8 -41 0 -15 -15 -3 -33 24 -33 12 0 53 -11
90 -24 38 -13 118 -32 179 -42 l111 -19 16 24 c9 12 30 39 47 59 44 53 56 77
75 162 10 41 18 63 18 48 1 -15 6 -30 11 -33 20 -13 10 84 -15 141 -41 92 -48
130 -35 185 9 37 9 57 1 81 -21 58 -55 99 -99 119 -43 19 -49 39 -11 39 11 0
46 -14 79 -30z m160 -233 c0 -5 -4 -5 -10 -2 -5 3 -10 14 -10 23 0 15 2 15 10
2 5 -8 10 -19 10 -23z m-344 -4 c7 -10 14 -25 14 -33 0 -8 9 -26 20 -40 l20
-25 6 22 c8 31 36 40 32 10 -2 -12 -9 -21 -16 -19 -16 3 -12 -20 17 -122 19
-63 52 -116 73 -116 4 0 8 7 8 15 0 8 5 15 10 15 16 0 11 -36 -7 -52 -44 -39
-205 -69 -272 -51 -43 11 -51 30 -17 39 14 3 26 10 26 15 0 5 16 15 35 23 19
8 35 20 35 25 0 15 -16 14 -52 -5 -30 -16 -31 -15 -54 13 -13 15 -23 31 -24
34 0 4 -16 17 -35 30 -38 26 -62 76 -45 93 5 5 10 6 10 1 0 -4 8 0 19 9 18 16
19 16 31 -16 9 -24 14 -28 17 -16 2 10 -3 33 -12 53 -15 31 -21 35 -56 35 -22
0 -39 -5 -39 -11 0 -6 9 -9 20 -6 29 8 31 -5 4 -26 -22 -17 -24 -17 -32 0 -20
41 0 80 52 104 57 26 193 27 212 2z m304 -8 c0 -8 -4 -15 -9 -15 -13 0 -22 16
-14 24 11 11 23 6 23 -9z m-785 -77 c-9 -61 -15 -78 -26 -78 -12 0 -11 24 2
37 8 8 7 16 -2 31 -10 17 -10 23 0 36 23 28 33 18 26 -26z m49 -170 c4 -9 3
-25 -3 -35 -9 -16 -10 -15 -11 8 0 15 -7 32 -15 39 -18 15 -19 43 -2 129 l12
66 6 -95 c3 -52 9 -103 13 -112z m606 192 c0 -5 -4 -10 -10 -10 -5 0 -10 5
-10 10 0 6 5 10 10 10 6 0 10 -4 10 -10z m-567 -137 c9 -14 -2 -45 -14 -37 -5
3 -8 35 -8 72 2 62 2 64 8 22 4 -25 10 -50 14 -57z m-149 43 c-7 -30 -24 -35
-24 -8 0 18 20 45 27 38 2 -2 1 -15 -3 -30z m766 -58 c0 -57 -7 -68 -43 -61
-18 3 -39 12 -47 20 -13 13 -13 15 3 24 13 8 15 14 7 30 -9 16 -7 19 12 19 17
0 19 3 10 12 -18 18 -14 31 8 25 11 -3 20 0 20 6 1 30 29 -42 30 -75z m-1041
-42 c-2 -2 -17 -6 -34 -10 -22 -5 -26 -4 -15 4 14 9 59 15 49 6z m441 -21 c0
-15 -18 -30 -27 -22 -2 3 -2 15 2 26 7 23 25 19 25 -4z m-500 -16 c0 -5 -7 -9
-15 -9 -15 0 -20 12 -9 23 8 8 24 -1 24 -14z m95 11 c4 -6 1 -24 -7 -40 -14
-33 -47 -40 -67 -16 -10 12 -7 15 16 18 20 2 29 9 31 26 4 23 16 29 27 12z
m1202 -66 c-9 -9 -28 6 -21 18 4 6 10 6 17 -1 6 -6 8 -13 4 -17z m61 -21 c-2
-17 -10 -29 -20 -31 -14 -3 -18 3 -18 27 0 25 4 31 21 31 16 0 20 -5 17 -27z
m-1483 7 c-3 -5 -13 -10 -21 -10 -8 0 -12 5 -9 10 3 6 13 10 21 10 8 0 12 -4
9 -10z m1555 -21 c0 -18 -35 -5 -38 14 -3 16 -1 17 17 7 12 -6 21 -15 21 -21z
m-129 -27 c18 -32 14 -52 -11 -52 -17 0 -30 26 -30 63 0 26 23 20 41 -11z
m-1271 10 c0 -18 -53 -62 -75 -62 -14 0 -25 2 -25 4 0 2 -3 11 -6 19 -4 12 0
14 18 10 20 -6 21 -5 10 10 -12 14 -9 16 25 20 21 2 41 4 46 5 4 1 7 -1 7 -6z
m1369 -33 c-11 -22 -20 -24 -37 -7 -17 17 -15 26 6 30 30 7 43 -2 31 -23z m69
9 c-6 -18 -28 -21 -28 -4 0 9 7 16 16 16 9 0 14 -5 12 -12z m52 -8 c0 -5 -4
-10 -10 -10 -5 0 -10 5 -10 10 0 6 5 10 10 10 6 0 10 -4 10 -10z m-1725 -25
c0 -6 -36 -11 -82 -13 -98 -3 -115 15 -20 21 85 5 102 4 102 -8z m1205 7 c0
-4 -4 -12 -9 -17 -5 -6 -11 -21 -13 -35 -3 -22 -7 -25 -43 -22 -54 3 -137 22
-152 35 -24 18 -13 24 35 20 26 -2 70 3 97 11 58 17 85 19 85 8z m-1095 -12
c3 -5 -1 -10 -9 -10 -9 0 -16 5 -16 10 0 6 4 10 9 10 6 0 13 -4 16 -10z m1449
-9 c4 -5 1 -22 -4 -37 -14 -35 -36 -18 -26 20 6 26 20 34 30 17z m-93 -25 c8
-18 7 -30 -5 -54 -9 -17 -16 -44 -16 -61 0 -35 -9 -61 -21 -61 -5 0 -9 9 -9
21 0 11 -9 32 -19 45 -20 25 -20 25 12 79 18 30 35 55 40 55 4 0 12 -11 18
-24z m159 9 c0 -8 -4 -15 -10 -15 -5 0 -10 7 -10 15 0 8 5 15 10 15 6 0 10 -7
10 -15z m-982 -15 c-14 -22 -24 -19 -15 5 4 8 11 15 17 15 6 0 6 -7 -2 -20z
m-488 0 c0 -5 -21 -10 -46 -10 -26 0 -43 -4 -39 -9 6 -10 87 -5 142 9 32 8 33
8 27 -18 -10 -40 -53 -122 -64 -122 -6 0 -9 -3 -9 -7 3 -20 -2 -34 -10 -29 -5
4 -7 -2 -4 -13 3 -11 -7 -37 -22 -60 -31 -45 -51 -50 -106 -26 -28 12 -30 14
-11 15 31 0 28 18 -5 23 -23 3 -21 4 10 6 54 2 46 21 -10 22 -30 1 -37 4 -20
6 42 7 32 23 -15 23 -50 0 -41 17 12 22 32 4 30 5 -20 13 l-55 9 45 11 45 11
-54 8 c-58 8 -62 22 -5 17 56 -4 39 15 -23 26 l-58 10 67 2 c78 1 104 20 31
23 l-48 1 45 4 c25 2 50 10 56 18 6 8 35 15 70 18 32 2 62 4 67 5 4 1 7 -2 7
-8z m53 3 c-7 -2 -21 -2 -30 0 -10 3 -4 5 12 5 17 0 24 -2 18 -5z m-230 -10
c-13 -2 -33 -2 -45 0 -13 2 -3 4 22 4 25 0 35 -2 23 -4z m806 -25 c18 -11 30
-38 17 -38 -2 0 -11 -3 -20 -6 -11 -4 -16 -1 -16 10 0 9 -4 17 -10 17 -5 1
-16 2 -22 3 -7 0 -14 9 -16 19 -3 14 2 17 21 13 13 -2 34 -10 46 -18z m1021
-9 c98 -39 122 -53 151 -89 33 -40 36 -52 12 -48 -11 2 -18 -3 -18 -12 0 -8
10 -16 23 -18 12 -2 40 -22 62 -45 40 -41 54 -78 54 -147 0 -19 4 -38 9 -41
14 -10 -14 -87 -38 -103 -25 -17 -37 -12 -28 11 7 18 -34 59 -74 74 -16 6 -52
8 -84 4 -44 -5 -58 -3 -68 9 -16 19 -31 21 -31 3 0 -16 51 -46 69 -39 7 2 16
0 20 -5 3 -5 29 -16 56 -25 46 -16 47 -17 11 -11 -42 6 -44 -10 -2 -27 20 -8
20 -9 1 -10 -18 -1 -19 -2 -3 -14 11 -8 15 -20 11 -34 -4 -17 -12 -21 -37 -19
-25 2 -32 -2 -34 -20 -2 -13 1 -23 7 -23 6 0 11 -9 11 -20 0 -24 -9 -26 -24
-4 -7 9 -18 12 -29 8 -23 -8 -21 -26 4 -42 12 -7 18 -16 15 -19 -3 -3 -12 0
-21 7 -12 10 -20 9 -40 -4 -26 -17 -33 -40 -15 -51 6 -3 10 -11 10 -17 0 -7
-6 -6 -15 2 -8 7 -15 22 -15 34 0 11 -4 27 -9 35 -13 21 -32 3 -25 -24 l6 -24
-33 16 c-46 22 -45 20 -21 42 12 10 22 23 22 28 0 6 7 16 15 23 9 7 14 20 12
29 -2 9 10 40 25 69 35 65 35 78 2 86 -22 6 -25 11 -19 36 10 47 -52 157 -76
133 -9 -9 -7 -18 10 -39 22 -28 28 -54 12 -54 -29 0 -41 14 -41 47 0 43 -20
113 -32 113 -13 0 -9 67 5 78 10 9 22 3 49 -23 44 -43 116 -75 183 -81 128
-11 149 -16 167 -36 10 -12 18 -27 18 -34 0 -13 41 -47 48 -40 4 5 -32 73 -52
99 -10 13 -33 19 -87 23 -107 7 -176 24 -205 51 -14 13 -28 23 -32 23 -18 1
-54 52 -59 85 l-6 36 33 -31 c37 -35 55 -39 47 -10 -3 11 -1 20 5 20 5 0 12
-9 15 -20 7 -28 59 -53 106 -53 20 0 40 -3 43 -8 8 -14 34 -10 34 5 0 13 -24
25 -60 30 -46 7 -79 20 -73 29 3 5 -2 16 -12 24 -18 12 -18 13 -1 13 20 0 54
-17 75 -37 15 -16 38 -2 27 16 -7 10 -86 50 -128 64 -10 4 -18 11 -18 18 0 6
6 9 13 6 6 -3 37 -16 67 -28z m-1937 14 c-7 -2 -19 -2 -25 0 -7 3 -2 5 12 5
14 0 19 -2 13 -5z m1721 -24 c-3 -5 -10 -7 -15 -3 -5 3 -7 10 -3 15 3 5 10 7
15 3 5 -3 7 -10 3 -15z m-94 -20 c-12 -41 -20 -48 -20 -18 0 20 16 49 26 49 2
0 -1 -14 -6 -31z m-640 -21 c0 -6 3 -9 6 -5 9 9 47 -30 40 -42 -4 -5 -14 -7
-24 -4 -27 11 -55 41 -47 52 8 15 25 14 25 -1z m706 -15 c-10 -10 -19 5 -10
18 6 11 8 11 12 0 2 -7 1 -15 -2 -18z m-748 -17 c3 -20 12 -30 33 -38 38 -13
37 -26 -1 -20 -17 2 -35 13 -40 23 -6 10 -17 16 -25 13 -18 -7 -20 12 -2 20 9
5 9 7 -1 12 -17 8 -6 23 16 20 10 -2 18 -13 20 -30z m569 -24 c4 -29 1 -45
-10 -56 -20 -21 -29 -20 -50 4 -22 26 -22 23 10 71 30 45 42 41 50 -19z m130
26 c-3 -8 -6 -5 -6 6 -1 11 2 17 5 13 3 -3 4 -12 1 -19z m-832 -6 c32 -27 68
-91 76 -136 11 -63 43 -146 55 -146 11 0 21 -76 29 -204 3 -50 -20 -78 -52
-65 -25 9 -30 38 -11 68 8 13 9 29 2 51 -11 39 -29 36 -30 -5 0 -16 -6 -43
-13 -59 -9 -24 -9 -33 5 -54 9 -13 25 -27 35 -29 13 -4 19 -14 19 -34 0 -36
-14 -44 -50 -29 -23 9 -34 9 -60 -5 -31 -16 -35 -16 -74 1 -50 22 -76 42 -76
61 0 9 7 12 24 7 20 -5 27 0 41 25 10 20 23 31 38 31 39 0 48 13 44 62 -2 28
-12 53 -25 66 -21 21 -40 120 -27 142 4 6 1 17 -5 26 -18 21 -40 -1 -40 -40 0
-31 -19 -86 -31 -86 -3 0 -12 15 -20 33 -9 19 -20 31 -29 28 -120 -29 -130
-30 -130 -10 0 10 78 49 96 49 10 0 23 21 29 50 1 3 22 26 47 51 31 32 48 59
52 84 8 43 33 85 50 85 6 -1 20 -8 31 -18z m907 -4 c-7 -7 -12 -8 -12 -2 0 14
12 26 19 19 2 -3 -1 -11 -7 -17z m-96 -8 c16 0 18 -28 4 -50 -8 -13 -10 -12
-10 3 0 9 -4 17 -10 17 -5 0 -10 12 -9 28 0 15 3 21 6 15 2 -7 11 -13 19 -13z
m-479 -42 c-3 -8 -6 -5 -6 6 -1 11 2 17 5 13 3 -3 4 -12 1 -19z m559 -5 c-10
-10 -19 5 -10 18 6 11 8 11 12 0 2 -7 1 -15 -2 -18z m-96 -14 c0 -5 -11 -9
-25 -9 -16 0 -25 -6 -25 -15 0 -9 -7 -29 -15 -46 -13 -24 -20 -28 -40 -23 -20
5 -25 3 -23 -12 5 -67 -3 -254 -13 -254 -6 0 -9 44 -8 127 1 125 1 126 -24
139 -26 14 -41 40 -31 56 3 5 -2 18 -12 29 -16 18 -16 19 2 19 26 0 44 -19 44
-46 0 -34 25 -50 56 -34 13 8 23 19 20 26 -2 6 5 21 17 32 32 29 77 36 77 11z
m-385 1 c4 -6 -5 -10 -19 -10 -14 0 -26 5 -26 10 0 6 9 10 19 10 11 0 23 -4
26 -10z m465 -26 c0 -8 -4 -14 -10 -14 -5 0 -10 9 -10 21 0 11 5 17 10 14 6
-3 10 -13 10 -21z m-672 -1 c17 -35 35 -132 29 -161 -3 -16 -2 -33 2 -38 5 -5
11 -25 14 -44 7 -35 6 -35 -11 -14 -10 12 -28 25 -40 28 -19 6 -22 15 -23 59
0 29 -3 82 -8 120 -6 60 -5 67 11 67 9 0 21 -8 26 -17z m297 8 c3 -5 1 -12 -5
-16 -5 -3 -10 1 -10 9 0 18 6 21 15 7z m65 -38 c0 -16 10 -29 30 -41 l30 -17
0 -102 c0 -97 -1 -104 -30 -147 -30 -44 -31 -44 -83 -42 -48 3 -52 5 -49 27 2
12 19 41 38 63 38 45 39 47 22 94 -12 31 -11 36 10 52 12 10 22 23 22 30 0 13
-27 7 -80 -19 -36 -16 -36 -16 -59 12 -13 15 -22 29 -20 31 2 2 26 14 53 27
27 13 58 36 69 51 16 21 24 25 34 17 7 -6 13 -22 13 -36z m237 15 c-3 -8 -6
-5 -6 6 -1 11 2 17 5 13 3 -3 4 -12 1 -19z m-457 2 c0 -5 -4 -10 -10 -10 -5 0
-10 5 -10 10 0 6 5 10 10 10 6 0 10 -4 10 -10z m426 -82 c-11 -149 -26 -182
-19 -43 3 66 7 123 10 128 13 21 15 -2 9 -85z m64 36 c0 -14 -4 -23 -9 -20 -5
3 -7 15 -4 26 7 28 13 25 13 -6z m-494 -30 c28 -7 29 -15 8 -55 -13 -26 -18
-28 -30 -18 -12 10 -20 10 -35 1 -16 -10 -19 -9 -19 3 0 8 7 15 16 15 13 0 15
7 11 36 -5 30 -3 35 9 30 9 -3 27 -9 40 -12z m-1044 -28 c-9 -19 -21 -31 -25
-26 -10 9 20 60 34 60 5 0 1 -15 -9 -34z m1426 -53 c-3 -49 -7 -109 -7 -134
-1 -30 -6 -49 -15 -52 -12 -5 -14 18 -15 128 -2 133 0 142 34 144 7 1 8 -30 3
-86z m-1250 52 c-3 -3 -9 2 -12 12 -6 14 -5 15 5 6 7 -7 10 -15 7 -18z m304
-7 c-7 -7 -12 -8 -12 -2 0 14 12 26 19 19 2 -3 -1 -11 -7 -17z m-355 -35 c-3
-10 -5 -2 -5 17 0 19 2 27 5 18 2 -10 2 -26 0 -35z m732 21 c3 -16 1 -17 -13
-5 -19 16 -21 34 -3 29 6 -3 14 -13 16 -24z m-807 -9 c4 -20 3 -23 -8 -14 -16
13 -19 39 -5 39 5 0 11 -11 13 -25z m1578 -19 c0 -12 6 -28 12 -34 10 -10 10
-15 -2 -22 -24 -15 -26 -13 -28 41 -1 31 2 48 8 44 5 -3 10 -16 10 -29z m535
-3 c4 -14 2 -23 -4 -23 -6 0 -11 6 -11 14 0 8 -3 23 -6 33 -5 12 -4 15 3 8 6
-5 14 -20 18 -32z m-1041 -3 c40 -49 27 -137 -16 -101 -7 6 -23 19 -36 29 -22
17 -22 18 -6 60 9 23 20 42 25 42 4 0 19 -14 33 -30z m74 -26 c7 -25 9 -50 6
-56 -9 -15 -24 11 -24 44 0 15 -5 30 -10 33 -11 7 -4 25 9 25 4 0 12 -21 19
-46z m331 -87 c8 -8 5 -179 -4 -205 -3 -9 -18 -12 -42 -10 l-38 3 -1 48 -1 47
4 -45 c3 -29 9 -45 18 -45 10 0 13 25 13 113 0 62 3 138 7 168 l8 54 14 -60
c7 -33 17 -63 22 -68z m21 114 c0 -6 -4 -13 -10 -16 -5 -3 -10 1 -10 9 0 9 5
16 10 16 6 0 10 -4 10 -9z m-520 -46 c0 -29 6 -39 30 -53 36 -20 42 -46 8 -33
-29 10 -54 47 -62 89 -4 24 -2 32 9 32 10 0 15 -11 15 -35z m-880 -8 c8 -7 24
-28 34 -48 24 -46 50 -63 76 -49 26 14 29 13 40 -15 13 -35 4 -50 -39 -65 -53
-17 -85 -11 -89 20 -3 20 -1 22 10 12 26 -21 27 -1 2 45 -13 25 -24 52 -24 60
0 7 -15 22 -32 33 -26 16 -29 20 -13 20 11 -1 27 -6 35 -13z m-115 -7 c-3 -5
-12 -7 -20 -3 -21 7 -19 13 6 13 11 0 18 -4 14 -10z m880 -37 c11 -15 18 -47
19 -80 0 -29 3 -53 7 -53 15 0 29 28 29 60 0 20 6 45 14 55 12 16 13 9 12 -61
-1 -75 -2 -79 -25 -82 -15 -2 -21 0 -17 7 4 7 -1 12 -13 12 -12 1 -27 2 -33 3
-20 2 -39 166 -19 166 5 0 17 -12 26 -27z m685 6 c0 -5 -4 -9 -10 -9 -5 0 -10
7 -10 16 0 8 5 12 10 9 6 -3 10 -10 10 -16z m50 1 c0 -5 -7 -10 -16 -10 -8 0
-12 5 -9 10 3 6 10 10 16 10 5 0 9 -4 9 -10z m111 -33 c10 -4 11 -8 3 -14 -16
-12 -54 -96 -54 -119 0 -25 -65 -90 -74 -75 -16 25 7 114 40 157 19 24 34 55
34 69 0 24 0 25 19 6 10 -10 25 -21 32 -24z m-1706 24 c3 -5 2 -12 -2 -14 -12
-8 -63 4 -63 14 0 12 57 12 65 0z m1622 -13 c-3 -8 -6 -5 -6 6 -1 11 2 17 5
13 3 -3 4 -12 1 -19z m-1532 -128 c16 -72 43 -137 87 -207 20 -34 12 -42 -22
-21 -15 10 -22 10 -32 0 -9 -9 -8 -12 8 -12 16 0 17 -2 4 -10 -25 -16 -40 -11
-40 14 0 14 6 26 13 29 6 2 5 3 -4 2 -13 -2 -20 16 -32 94 -9 53 -17 128 -18
166 -2 116 -2 115 36 -55z m1017 108 c-7 -7 -12 -8 -12 -2 0 14 12 26 19 19 2
-3 -1 -11 -7 -17z m-22 -8 c0 -5 -7 -10 -16 -10 -8 0 -12 5 -9 10 3 6 10 10
16 10 5 0 9 -4 9 -10z m515 0 c3 -5 1 -10 -4 -10 -6 0 -11 5 -11 10 0 6 2 10
4 10 3 0 8 -4 11 -10z m-1015 -10 c0 -5 -2 -10 -4 -10 -3 0 -8 5 -11 10 -3 6
-1 10 4 10 6 0 11 -4 11 -10z m444 -15 c9 -10 15 -35 15 -71 0 -32 3 -90 6
-130 7 -71 6 -74 -14 -74 -11 0 -21 4 -21 9 0 19 -20 218 -25 249 -7 36 12 44
39 17z m-1036 -2 c-10 -2 -26 -2 -35 0 -10 3 -2 5 17 5 19 0 27 -2 18 -5z
m1521 -48 c-1 -30 -6 -55 -12 -55 -5 0 -7 10 -3 23 3 12 6 37 6 55 0 17 2 32
5 32 3 0 5 -25 4 -55z m494 35 c10 0 15 -4 12 -10 -3 -5 -17 -10 -30 -10 -18
0 -23 5 -22 20 1 13 5 16 11 10 6 -6 18 -10 29 -10z m-712 -12 c15 -16 18 -30
13 -57 -4 -20 -9 -39 -11 -43 -7 -14 -51 -8 -67 8 -18 17 -21 44 -6 44 6 0 10
5 10 10 0 12 30 60 37 60 3 0 14 -10 24 -22z m279 7 c0 -3 -7 -22 -15 -41 -24
-57 -39 -31 -19 34 3 11 34 18 34 7z m-499 -85 l-9 -45 -1 51 c-1 28 2 54 7
58 11 12 13 -15 3 -64z m309 61 c0 -5 -7 -14 -15 -21 -9 -7 -15 -29 -15 -51 0
-28 -5 -41 -20 -49 -24 -13 -26 -2 -7 50 21 58 57 103 57 71z m-1399 -19 c-7
-2 -18 1 -23 6 -8 8 -4 9 13 5 13 -4 18 -8 10 -11z m539 -19 c0 -7 -4 -13 -10
-13 -5 0 -10 12 -10 28 0 21 2 24 10 12 5 -8 10 -21 10 -27z m667 -15 c3 -16
16 -37 29 -47 27 -21 31 -41 10 -41 -24 0 -55 34 -69 77 -8 23 -12 44 -10 47
12 11 35 -9 40 -36z m-1137 -118 c13 -78 27 -143 31 -146 4 -2 25 2 46 9 73
27 78 28 48 11 -16 -9 -38 -23 -48 -32 -14 -12 -22 -13 -43 -3 -14 6 -30 9
-35 6 -5 -3 -6 0 -3 8 5 15 -7 19 -118 33 -62 8 -53 23 9 17 36 -3 44 -2 33 6
-8 6 -26 11 -39 11 -18 0 -22 4 -16 18 19 42 45 121 55 160 9 34 15 42 33 42
22 0 25 -8 47 -140z m193 98 c-10 -21 -12 -21 -18 -5 -10 25 2 54 17 39 8 -8
8 -18 1 -34z m893 7 c9 -49 54 -95 93 -95 29 0 31 -3 31 -35 0 -19 -2 -35 -4
-35 -2 0 -11 -3 -19 -6 -9 -3 -22 7 -36 30 -25 39 -47 39 -62 -1 -13 -36 -25
-21 -28 34 0 26 -4 56 -7 66 -7 22 5 77 16 77 5 0 12 -16 16 -35z m-156 -105
c6 -63 13 -120 15 -127 2 -7 0 -15 -5 -18 -11 -7 -18 26 -30 145 -12 121 -12
136 -1 125 6 -6 15 -62 21 -125z m-86 79 c-8 -13 -24 -1 -24 18 0 13 3 13 15
3 8 -7 12 -16 9 -21z m-36 -46 c16 -74 21 -133 11 -133 -5 0 -9 13 -9 29 0 16
-7 34 -15 41 -10 8 -15 31 -15 67 0 64 14 62 28 -4z m685 30 c6 -33 -2 -91
-15 -99 -14 -9 -47 38 -48 68 0 17 8 33 22 42 30 22 35 20 41 -11z m-628 -80
c5 -43 4 -63 -4 -63 -6 0 -11 6 -12 13 0 6 -3 39 -5 72 -7 80 12 61 21 -22z
m447 41 c-5 -9 -7 -46 -4 -83 4 -57 1 -69 -15 -84 -20 -17 -20 -16 -19 73 1
69 5 93 16 100 23 15 32 12 22 -6z m78 -9 c0 -7 9 -23 19 -37 19 -24 19 -24
-1 -37 -23 -15 -33 -6 -44 39 -4 14 -11 30 -16 37 -6 7 -4 13 4 16 18 6 38 -3
38 -18z m-141 -107 c1 -57 0 -101 -2 -98 -9 10 -17 200 -9 200 5 0 10 -46 11
-102z m328 57 c29 -20 21 -67 -19 -113 -15 -18 -28 -37 -28 -43 0 -6 -9 -9
-19 -7 -11 2 -31 -8 -45 -21 -32 -30 -36 -8 -4 26 17 19 19 23 5 23 -8 0 -27
-15 -41 -32 -31 -40 -35 -28 -5 14 12 16 18 32 14 36 -7 7 -47 -34 -76 -78 -9
-14 -20 -22 -24 -18 -4 4 0 14 9 23 9 9 16 20 16 25 0 5 14 25 31 45 42 47 30
55 -21 14 -28 -23 -44 -29 -51 -22 -7 7 -1 17 23 31 18 12 46 33 62 47 16 14
34 25 40 26 32 2 63 11 81 24 26 18 26 18 52 0z m-425 -57 c23 -45 15 -68 -24
-68 -16 0 -38 -5 -49 -11 -24 -13 -50 6 -74 54 -18 35 -8 52 25 42 14 -5 20
-14 18 -28 -3 -27 9 -47 28 -47 10 0 13 7 8 24 -6 26 22 79 39 73 6 -2 19 -19
29 -39z m198 4 c0 -21 -2 -24 -10 -12 -13 20 -13 53 0 45 6 -3 10 -18 10 -33z
m310 13 c0 -8 -4 -15 -10 -15 -5 0 -10 7 -10 15 0 8 5 15 10 15 6 0 10 -7 10
-15z m-446 -21 c4 -9 3 -44 0 -79 -6 -57 -8 -61 -29 -57 -17 3 -22 10 -21 28
0 13 4 24 8 24 4 0 10 23 14 50 7 51 17 63 28 34z m-1364 -34 c0 -5 -7 -10
-15 -10 -8 0 -15 5 -15 10 0 6 7 10 15 10 8 0 15 -4 15 -10z m1770 -9 c0 -6
-4 -13 -10 -16 -5 -3 -10 1 -10 9 0 9 5 16 10 16 6 0 10 -4 10 -9z m-1702 -8
c-10 -2 -28 -2 -40 0 -13 2 -5 4 17 4 22 1 32 -1 23 -4z m1106 -41 c-6 -9 -44
20 -44 33 0 10 7 8 23 -8 13 -12 22 -23 21 -25z m270 2 c20 -8 21 -54 2 -54
-8 0 -16 13 -18 30 -3 17 -3 30 -2 30 1 0 9 -3 18 -6z m-291 -101 c16 -13 41
-23 55 -24 l27 0 -22 -16 c-29 -19 -29 -37 -1 -55 15 -10 19 -20 15 -33 -7
-17 -8 -17 -27 0 -11 10 -20 23 -20 29 0 6 -9 17 -21 24 -18 11 -23 11 -36 -5
-14 -17 -14 -16 -9 7 19 77 19 86 4 70 -9 -8 -23 -50 -33 -92 -15 -63 -22 -78
-37 -78 -27 0 -33 -27 -14 -66 21 -44 20 -51 -4 -57 -28 -7 -43 17 -36 58 6
29 4 35 -10 35 -10 0 -30 -12 -46 -27 -15 -14 -30 -25 -32 -22 -12 11 54 201
100 291 l19 36 50 -26 c28 -15 63 -37 78 -49z m234 -23 c-2 -43 -17 -56 -17
-16 0 24 9 56 16 56 2 0 3 -18 1 -40z m237 -4 c-6 -16 -24 -23 -24 -8 0 10 22
33 27 28 2 -2 1 -11 -3 -20z m-706 -48 c-12 -29 -29 -61 -37 -71 -9 -11 -23
-38 -32 -60 -16 -41 -42 -67 -55 -55 -11 12 68 151 125 221 22 26 22 21 -1
-35z m-28 36 c0 -12 -34 -64 -42 -64 -13 0 -9 20 10 45 16 23 32 32 32 19z
m585 -34 c-5 -8 -11 -8 -17 -2 -6 6 -7 16 -3 22 5 8 11 8 17 2 6 -6 7 -16 3
-22z m85 10 c0 -23 -4 -24 -33 -8 -21 11 -21 11 -2 19 31 12 35 11 35 -11z
m80 -51 c0 -19 -23 -31 -45 -23 -21 8 -19 54 3 70 14 11 19 9 29 -9 7 -12 12
-29 13 -38z m-326 -26 c-5 -38 -7 -94 -6 -126 1 -50 -1 -58 -16 -55 -21 4 -29
41 -31 139 -1 69 1 78 22 92 12 9 26 16 30 16 5 1 5 -29 1 -66z m263 -14 c18
-32 19 -39 6 -39 -23 0 -83 65 -83 90 0 20 1 21 28 5 15 -9 37 -34 49 -56z
m-388 -4 c6 -3 9 -18 5 -33 -5 -26 -5 -26 10 -8 9 11 16 26 16 33 0 7 5 13 10
13 14 0 13 -43 -1 -57 -7 -7 -12 -25 -13 -40 -1 -37 -15 -35 -35 4 -13 25 -21
31 -38 26 -14 -3 -29 2 -39 12 -18 17 -12 39 23 94 l15 23 18 -30 c10 -16 23
-33 29 -37z m164 -7 c-3 -40 -9 -89 -13 -108 -8 -35 -8 -35 -9 11 -1 67 11
169 20 169 4 0 5 -33 2 -72z m88 60 c3 -60 12 -140 19 -173 5 -22 7 -41 6 -43
-2 -1 -18 15 -36 38 -17 22 -37 40 -44 40 -9 0 -11 18 -8 63 5 82 7 87 37 87
14 0 25 -6 26 -12z m50 -91 c4 -28 11 -68 15 -87 4 -24 3 -32 -4 -25 -9 9 -32
129 -32 166 0 30 14 -6 21 -54z m186 28 c-6 -22 -17 -35 -27 -35 -28 0 -29 10
-1 39 35 38 41 37 28 -4z m-863 17 c2 -4 -8 -30 -24 -56 -27 -47 -28 -48 -40
-27 -10 19 -8 27 15 57 26 34 39 41 49 26z m914 -42 c12 -33 -1 -41 -18 -11
-12 24 -13 54 -1 47 5 -3 14 -19 19 -36z m-668 -10 c0 -5 -4 -10 -10 -10 -5 0
-10 5 -10 10 0 6 5 10 10 10 6 0 10 -4 10 -10z m506 -3 c1 -1 11 -40 22 -87
15 -60 18 -88 10 -97 -6 -8 -8 -34 -3 -69 5 -44 11 -57 26 -61 13 -4 19 -14
19 -34 0 -16 5 -29 10 -29 21 0 10 -50 -14 -66 -41 -26 -69 -15 -78 31 -3 22
-14 60 -22 84 -17 47 -21 106 -7 97 5 -3 11 -20 14 -38 14 -92 30 -158 39
-158 22 0 -19 256 -43 271 -12 7 -12 12 0 31 10 16 10 23 2 26 -6 2 -11 16
-11 32 0 16 -5 41 -10 55 -10 26 -9 27 17 20 16 -4 29 -7 29 -8z m114 -37
c-21 -14 -30 -12 -30 4 0 18 22 27 35 14 6 -6 5 -12 -5 -18z m-949 -51 c-13
-23 -15 -49 -2 -49 5 0 11 10 13 23 2 16 11 23 31 25 15 2 27 -2 27 -8 0 -22
-52 -120 -61 -115 -5 4 -5 14 1 25 13 24 -3 35 -30 20 -31 -16 -36 12 -11 53
12 19 21 45 21 58 1 22 1 23 12 5 8 -14 8 -24 -1 -37z m382 21 c3 -11 2 -20
-3 -20 -14 0 -32 29 -25 40 9 14 21 5 28 -20z m657 -17 c0 -14 -13 -16 -47 -7
-28 8 -30 34 -3 34 11 0 20 6 20 13 1 16 30 -23 30 -40z m-908 -22 c-2 -24 2
-49 9 -57 16 -19 -2 -39 -27 -30 -13 5 -15 14 -10 44 3 20 6 50 6 65 0 19 4
27 13 24 8 -2 11 -19 9 -46z m106 6 c6 -23 9 -53 5 -65 -8 -34 17 -27 30 8 6
17 17 30 24 30 18 0 17 -49 -1 -56 -8 -3 -16 -14 -19 -25 -4 -14 -14 -19 -37
-19 -26 0 -31 4 -28 20 2 14 -5 25 -22 33 -36 18 -41 78 -8 101 35 24 45 20
56 -27z m682 -31 c-1 -45 -13 -35 -25 21 -5 28 -4 32 9 27 11 -4 16 -19 16
-48z m-474 -104 c4 -72 3 -104 -4 -97 -5 6 -12 64 -15 130 -6 147 10 120 19
-33z m249 121 c16 -19 24 -40 25 -65 0 -30 3 -36 16 -31 10 4 14 16 12 36 -4
40 18 47 27 8 5 -22 2 -36 -9 -47 -9 -8 -16 -19 -16 -24 0 -10 -34 -7 -65 5
-30 12 -65 46 -65 64 0 17 36 81 45 81 3 0 17 -12 30 -27z m-202 8 c19 -8 26
-19 32 -58 12 -78 15 -95 20 -158 3 -33 8 -75 10 -92 4 -32 3 -33 -30 -30 -36
2 -35 -2 -20 71 4 17 0 25 -11 28 -11 2 -17 16 -19 43 -2 22 -6 77 -10 123 -3
45 -4 82 -1 82 2 0 16 -4 29 -9z m-100 -29 c3 -4 8 -51 12 -106 5 -71 4 -97
-4 -92 -6 4 -11 25 -11 47 0 48 -15 50 -52 7 l-28 -33 4 35 c16 146 27 176 56
160 10 -6 21 -13 23 -18z m590 16 c17 -14 48 -80 77 -168 14 -39 16 -58 8 -67
-18 -22 -27 -15 -38 30 -6 23 -17 58 -25 78 -8 20 -11 46 -8 58 5 20 3 21 -21
15 -24 -6 -26 -4 -26 30 0 39 7 43 33 24z m-389 -30 c3 -7 7 -25 10 -39 3 -14
16 -31 30 -38 26 -14 42 -61 21 -61 -17 0 -60 35 -85 70 -16 22 -18 34 -10 54
10 28 28 34 34 14z m-652 -48 c14 0 9 -37 -7 -50 -12 -10 -15 -10 -15 3 0 9
-7 20 -15 25 -13 7 -14 13 -4 38 11 29 11 29 22 7 5 -13 14 -23 19 -23z m1143
30 c4 -6 4 -18 1 -27 -5 -12 -9 -13 -21 -3 -8 7 -15 19 -15 26 0 16 26 19 35
4z m-1026 -117 c-16 -54 -26 -73 -39 -73 -32 0 -30 40 7 119 33 69 36 74 45
52 6 -17 2 -46 -13 -98z m131 77 c0 -5 -4 -10 -10 -10 -5 0 -10 5 -10 10 0 6
5 10 10 10 6 0 10 -4 10 -10z m741 -37 c6 -17 14 -23 25 -19 16 6 48 -54 60
-113 6 -27 4 -31 -15 -31 -11 0 -21 5 -21 10 0 6 -7 10 -15 10 -16 0 -31 42
-21 59 8 12 -20 41 -40 41 -10 0 -14 12 -14 40 0 32 3 38 16 33 8 -3 20 -17
25 -30z m-931 7 c0 -15 -23 -60 -30 -60 -4 0 -13 7 -20 15 -8 9 -8 15 -2 15 6
0 14 9 17 20 6 20 35 29 35 10z m136 -22 c-5 -47 -30 -129 -43 -139 -20 -17
-33 -1 -33 43 0 31 4 41 20 45 12 3 20 14 20 27 0 21 17 46 31 46 4 0 6 -10 5
-22z m150 -54 c-3 -8 -16 -14 -30 -14 -17 0 -26 -7 -30 -25 -4 -14 -3 -31 1
-38 13 -21 13 -47 0 -47 -6 1 -24 6 -38 13 l-26 12 24 78 c20 66 27 77 46 77
12 0 29 5 37 10 12 8 16 3 18 -21 2 -17 1 -37 -2 -45z m-111 29 c-7 -21 -19
-58 -25 -83 -7 -25 -15 -39 -17 -32 -6 16 38 152 48 152 4 0 1 -17 -6 -37z
m423 -77 c8 -89 7 -96 -12 -96 -8 0 -13 35 -14 103 -4 127 15 123 26 -7z m151
20 c1 -38 22 -106 33 -106 4 0 8 7 8 16 0 8 5 12 10 9 6 -3 10 -13 10 -21 0
-11 -16 -14 -70 -14 -40 0 -70 4 -70 10 0 6 9 10 20 10 14 0 20 7 21 23 l2 22
4 -23 c3 -13 10 -21 16 -19 13 4 11 62 -3 88 -7 13 -7 57 0 79 4 10 18 -46 19
-74z m-367 -13 c13 -14 18 -28 13 -42 -7 -23 -21 -26 -59 -11 -33 12 -35 54
-3 88 20 22 22 22 25 5 2 -10 13 -28 24 -40z m-436 20 c17 -23 17 -33 0 -33
-8 0 -17 7 -20 16 -14 36 -2 46 20 17z m335 -47 c4 -15 16 -34 26 -42 10 -7
14 -13 8 -13 -20 -1 -54 35 -61 63 -9 39 17 31 27 -8z m386 -3 c-3 -10 -5 -4
-5 12 0 17 2 24 5 18 2 -7 2 -21 0 -30z m-30 -10 c-3 -10 -5 -4 -5 12 0 17 2
24 5 18 2 -7 2 -21 0 -30z m70 15 c-3 -8 -6 -5 -6 6 -1 11 2 17 5 13 3 -3 4
-12 1 -19z m-234 -14 c5 -27 -14 -54 -39 -54 -8 0 -14 -4 -14 -10 0 -5 -5 -10
-11 -10 -14 0 -4 46 17 78 19 29 41 28 47 -4z m-453 -8 c-1 -27 -17 -38 -39
-27 -17 9 -19 16 -11 31 10 20 50 17 50 -4z m1084 8 c8 -21 -1 -34 -25 -34
-21 0 -25 20 -7 38 16 16 25 15 32 -4z m-461 -44 c3 -11 1 -20 -4 -20 -5 0 -9
9 -9 20 0 11 2 20 4 20 2 0 6 -9 9 -20z m397 -37 c0 -7 -10 -13 -22 -12 -13 0
-17 3 -10 6 6 2 12 11 12 19 0 9 -4 12 -10 9 -6 -4 -7 1 -3 11 6 16 7 15 20
-2 7 -10 13 -24 13 -31z m-949 23 c4 -4 26 -8 50 -8 24 1 49 -4 56 -10 8 -6
43 -12 80 -12 37 -1 68 -6 70 -11 4 -14 146 -11 151 4 2 6 8 11 13 11 12 0 -1
-31 -22 -54 -15 -15 -26 -17 -63 -12 -26 4 -67 9 -92 11 -26 2 -52 9 -57 14
-6 6 -28 11 -48 11 -21 0 -41 5 -44 10 -4 6 -35 10 -72 9 -52 -2 -67 1 -75 14
-5 10 -16 17 -24 17 -8 0 -12 4 -9 10 7 12 77 9 86 -4z m869 -26 c0 -29 -13
-40 -25 -20 -9 14 -25 12 -25 -2 0 -17 -125 -58 -175 -58 -44 0 -74 13 -57 24
6 4 9 12 7 19 -3 7 6 17 20 24 14 6 25 8 25 3 0 -16 32 -19 53 -5 14 9 27 11
37 5 19 -12 69 -1 100 21 34 25 40 24 40 -11z m-361 -14 c19 -23 -4 -28 -24
-6 -15 17 -16 20 -3 20 9 0 21 -6 27 -14z m-374 -50 c94 -27 95 -30 42 -130
-17 -35 -51 -100 -74 -146 -24 -45 -49 -90 -55 -98 -9 -10 -13 -53 -13 -131 0
-125 -9 -153 -58 -186 -26 -16 -183 -42 -194 -32 -3 4 1 42 10 85 9 42 17 92
17 109 0 17 7 39 16 48 13 13 15 23 8 48 -10 34 -5 80 20 167 9 30 21 87 27
125 9 61 17 98 34 153 7 20 130 13 220 -12z m396 -22 c74 -17 202 -14 238 5
11 6 27 11 36 11 19 0 15 -21 -25 -135 -15 -44 -36 -112 -45 -150 -9 -39 -28
-86 -42 -106 -17 -26 -25 -55 -29 -100 -2 -35 -6 -84 -9 -108 -3 -24 0 -50 6
-57 6 -7 9 -23 7 -36 -3 -20 -8 -23 -46 -20 -55 3 -150 56 -164 91 -18 47 1
134 40 182 17 22 28 114 14 123 -7 4 -13 -14 -17 -49 -4 -31 -10 -54 -12 -51
-3 3 -7 47 -9 98 -2 51 -8 116 -14 143 -19 83 -24 175 -11 175 7 0 43 -7 82
-16z m-125 -18 c7 -21 25 -134 45 -288 14 -100 2 -162 -37 -199 -23 -21 -24
-46 -2 -33 7 4 8 2 4 -4 -4 -7 -13 -12 -21 -12 -8 0 -18 -6 -22 -13 -11 -17
-184 -68 -253 -74 l-55 -5 -2 138 c-1 76 2 143 6 148 5 6 48 88 97 181 48 94
91 172 95 175 4 3 37 5 73 5 57 1 67 -2 72 -19z m35 -618 c30 -37 99 -67 189
-83 40 -7 64 11 73 55 3 14 3 -24 1 -85 -4 -67 -10 -113 -17 -118 -22 -15
-106 0 -161 29 l-55 29 -3 65 c-3 65 -3 65 -33 65 -30 1 -30 1 -32 60 -1 33 1
51 4 40 3 -11 18 -37 34 -57z m-71 13 c0 -12 -9 -21 -27 -24 -16 -3 -71 -17
-123 -31 -115 -31 -163 -34 -158 -8 2 13 17 18 64 23 56 5 149 30 184 50 28
15 60 10 60 -10z m-350 -73 c-1 -64 -54 -138 -99 -138 -18 0 -21 6 -21 45 0
79 -54 70 -67 -11 -9 -57 -19 -67 -71 -60 -25 3 -47 7 -49 10 -3 2 -2 34 2 70
l7 65 43 -6 c46 -6 202 13 226 28 20 12 29 11 29 -3z m360 -6 c0 -14 -14 -20
-68 -30 -37 -6 -92 -25 -122 -41 -66 -36 -158 -67 -168 -56 -4 4 -1 10 6 12 6
3 12 16 12 29 0 14 5 34 11 46 9 17 18 19 52 15 27 -4 74 2 132 17 115 30 145
32 145 8z m505 -55 c195 -77 468 -108 625 -71 129 30 130 30 130 -4 0 -26 -4
-30 -32 -35 -18 -2 -60 -12 -93 -21 -92 -26 -243 -31 -353 -12 -51 8 -98 19
-104 22 -6 4 -28 11 -47 15 -20 4 -63 14 -96 23 -33 8 -88 18 -122 22 -67 7
-72 14 -57 70 5 19 11 21 52 16 26 -2 70 -14 97 -25z m-497 -21 c10 -23 9 -25
-31 -31 -51 -8 -198 -53 -213 -66 -19 -16 -173 -69 -199 -69 -28 0 -32 16 -10
46 10 15 29 23 62 27 26 3 83 17 125 31 42 14 83 26 90 26 8 0 20 6 26 13 14
13 97 45 123 46 9 1 21 -10 27 -23z m210 -115 c53 -7 53 -8 37 -118 -5 -31 -3
-77 5 -117 12 -63 13 -65 65 -97 29 -17 60 -46 70 -63 10 -17 33 -48 52 -69
18 -20 33 -42 33 -47 0 -13 -86 -13 -152 1 -73 15 -132 51 -167 103 -17 24
-36 46 -44 49 -10 4 -13 24 -11 83 1 44 -2 84 -8 91 -7 9 -5 21 7 39 16 25 16
27 0 36 -11 7 -15 17 -11 34 4 14 -1 38 -14 61 -11 21 -20 48 -20 61 l0 23 55
-31 c31 -18 77 -35 103 -39z m-694 -9 c-34 -56 -84 -164 -84 -181 0 -6 -4 -11
-10 -11 -5 0 -10 -7 -10 -15 0 -8 4 -15 9 -15 6 0 6 -12 1 -31 -7 -23 -5 -37
5 -53 39 -54 -5 -86 -90 -66 -51 12 -104 10 -255 -10 -47 -6 -101 -8 -120 -5
-32 6 -33 8 -16 20 10 8 39 17 65 21 25 3 55 14 66 24 11 9 34 20 50 23 48 9
125 47 125 61 0 7 10 26 22 42 12 15 24 37 26 48 1 12 10 53 20 91 l17 70 53
3 c42 2 55 8 68 27 l15 23 27 -25 c20 -19 24 -28 16 -41z m506 31 c7 -21 20
-46 28 -56 9 -10 12 -21 6 -26 -37 -33 -196 -60 -351 -61 -43 0 -73 -4 -75
-11 -3 -8 -23 -9 -68 -3 -68 10 -90 29 -43 39 46 10 151 45 268 90 149 58 166
63 197 64 22 1 28 -5 38 -36z m480 -82 c129 -28 260 -64 260 -72 0 -7 -480 -3
-487 4 -11 12 12 59 36 72 35 19 89 18 191 -4z m-442 -59 c2 -8 -12 -12 -45
-11 l-48 1 35 13 c39 15 52 14 58 -3z m-8 -40 c0 -9 -245 -22 -410 -22 -100 0
-172 8 -166 19 6 9 576 12 576 3z"/>
<g>
<path d="M1558 4303 c-52 -21 -48 -34 4 -16 49 17 53 19 41 26 -4 3 -25 -2
-45 -10z"/>
</g>
<g>
<path d="M1557 4269 c-23 -13 -13 -29 19 -29 14 0 22 4 19 10 -3 6 -1 10 5 10
6 0 8 5 5 10 -8 13 -25 12 -48 -1z"/>
</g>
<g>
<path d="M1538 4133 c7 -3 16 -2 19 1 4 3 -2 6 -13 5 -11 0 -14 -3 -6 -6z"/>
</g>
<g>
<path d="M1548 4107 c-45 -12 -47 -19 -13 -37 24 -13 40 -9 40 10 0 5 9 16 20
24 24 18 9 19 -47 3z"/>
</g>
<g>
<path d="M1633 3374 c-7 -19 2 -28 22 -21 19 8 19 23 0 31 -9 3 -18 -1 -22
-10z"/>
</g>
<g>
<path d="M1516 2765 c-9 -13 -16 -30 -16 -37 0 -8 -6 -22 -14 -33 -20 -31 -29
-75 -14 -75 7 0 22 27 32 60 11 33 25 65 33 71 15 13 18 39 4 39 -5 0 -16 -11
-25 -25z"/>
</g>
<g>
<path d="M2186 2221 c-4 -5 -2 -12 3 -15 5 -4 12 -2 15 3 4 5 2 12 -3 15 -5 4
-12 2 -15 -3z"/>
</g>
</g>
<g>
<path d="M1421 4486 c-20 -24 -6 -48 26 -44 22 2 28 8 28 28 0 30 -35 40 -54
16z"/>
</g>
<g>
<path d="M2994 4020 c0 -151 2 -213 3 -137 2 75 2 199 0 275 -1 75 -3 13 -3
-138z"/>
</g>
<g>
<path d="M3 2150 c0 -47 2 -66 4 -42 2 23 2 61 0 85 -2 23 -4 4 -4 -43z"/>
</g>
<g>
<path d="M2839 1376 c-2 -2 -17 -6 -34 -9 -16 -3 -57 -15 -90 -27 -44 -16 -92
-23 -187 -27 -75 -4 -128 -10 -128 -16 0 -22 315 10 348 36 7 6 41 18 75 28
34 10 53 18 41 18 -11 1 -23 -1 -25 -3z"/>
</g>
<g>
<path d="M185 1155 c-66 -13 -135 -24 -152 -24 -18 -1 -33 -5 -33 -11 0 -16
84 -12 193 11 75 15 129 20 204 17 100 -3 103 -4 205 -55 71 -36 128 -56 183
-67 107 -20 188 -23 193 -8 2 8 -9 12 -35 12 -37 0 -146 20 -226 41 -21 6 -60
24 -87 40 -121 74 -232 85 -445 44z"/>
</g>
<g>
<path d="M2765 872 c-6 -4 -16 -19 -24 -34 -11 -21 -24 -29 -58 -34 -72 -11
-67 -37 9 -50 21 -4 35 -10 33 -14 -3 -5 -14 -6 -25 -3 -29 8 -70 -5 -70 -22
0 -19 18 -28 70 -36 l45 -6 -51 -2 c-54 -1 -81 -19 -70 -46 8 -22 24 -18 28 8
3 19 9 22 43 22 l40 0 5 -69 c3 -43 10 -71 18 -74 9 -3 12 15 12 68 l0 71 65
-2 c64 -2 94 9 81 29 -3 6 -37 13 -76 17 -96 10 -106 30 -12 23 39 -3 69 -1
66 3 -3 5 -18 9 -34 9 -38 0 -50 20 -13 21 35 1 22 6 -39 14 -27 3 -48 11 -48
16 0 6 20 7 50 3 68 -9 66 11 -2 22 -42 6 -47 8 -23 11 60 7 75 13 75 32 0 24
-71 41 -95 23z m55 -22 c0 -5 -15 -10 -32 -9 -31 1 -32 1 -8 9 35 11 40 11 40
0z m-90 -70 c0 -5 -9 -10 -19 -10 -11 0 -23 5 -26 10 -4 6 5 10 19 10 14 0 26
-4 26 -10z m5 -70 c4 -6 -8 -10 -29 -10 -19 0 -38 5 -41 10 -4 6 8 10 29 10
19 0 38 -4 41 -10z m155 -40 c0 -5 -25 -9 -55 -8 -30 1 -55 5 -55 10 0 4 25 8
55 8 30 0 55 -4 55 -10z"/>
</g>
<g>
<path d="M2820 604 c0 -17 22 -14 28 4 2 7 -3 12 -12 12 -9 0 -16 -7 -16 -16z"/>
</g>
<g>
<path d="M27 293 c-1 -1 -1 -47 1 -102 l3 -101 29 0 c16 0 32 4 35 10 3 5 1
10 -4 10 -6 0 -11 16 -11 35 0 32 2 35 29 35 17 0 41 10 55 23 63 57 29 100
-75 95 -33 -2 -61 -4 -62 -5z m108 -48 c0 -25 -4 -31 -26 -33 -23 -3 -27 1
-31 28 -5 37 -1 42 32 38 20 -2 25 -8 25 -33z"/>
</g>
<g>
<path d="M229 290 c-1 -3 -1 -8 0 -13 1 -6 -23 -94 -46 -169 -4 -15 1 -18 26
-18 17 0 31 5 31 10 0 6 -7 10 -16 10 -12 0 -14 5 -9 18 4 9 10 27 12 40 5 18
12 22 47 22 39 0 44 -3 59 -35 21 -43 21 -45 2 -45 -8 0 -15 -4 -15 -10 0 -5
20 -10 45 -10 25 0 45 5 45 10 0 6 -6 10 -13 10 -7 0 -23 31 -36 72 -28 85
-57 119 -101 116 -16 -1 -31 -5 -31 -8z m60 -41 c14 -41 15 -39 -15 -39 -22 0
-25 3 -20 23 3 12 6 28 6 35 0 23 18 12 29 -19z"/>
</g>
<g>
<path d="M446 270 c-31 -28 -36 -38 -36 -75 0 -32 7 -52 26 -74 22 -27 32 -31
74 -31 54 0 56 2 61 45 4 28 2 30 -33 33 -22 2 -38 -1 -38 -7 0 -6 7 -11 15
-11 8 0 15 -7 15 -16 0 -13 -6 -15 -27 -9 -37 8 -51 24 -59 61 -9 47 31 89 81
86 49 -4 43 22 -7 26 -29 2 -43 -3 -72 -28z"/>
</g>
<g>
<path d="M609 296 c-2 -2 -3 -50 -1 -105 l3 -101 53 0 c47 0 54 3 60 23 9 33
8 37 -9 37 -8 0 -15 -7 -15 -15 0 -17 -45 -21 -55 -4 -4 5 -4 21 -1 35 6 22
11 25 36 19 27 -6 30 -4 30 19 0 33 -16 41 -38 20 -16 -17 -17 -17 -20 5 -2
12 -1 29 2 37 7 19 42 18 50 -2 5 -13 9 -14 21 -4 26 22 -1 40 -60 40 -28 0
-54 -2 -56 -4z"/>
</g>
<g>
<path d="M1925 292 l-40 -3 2 -97 2 -97 31 -3 c29 -3 31 -2 24 20 -4 13 -8 34
-8 48 -1 21 5 25 38 31 43 7 66 30 66 66 0 17 -7 24 -27 29 -44 9 -46 9 -88 6z
m63 -28 c12 -21 4 -51 -15 -58 -23 -9 -33 2 -33 40 0 27 4 34 20 34 10 0 23
-7 28 -16z"/>
</g>
<g>
<path d="M1395 259 c-29 -26 -35 -38 -35 -71 0 -21 4 -48 10 -58 21 -39 97
-60 158 -44 40 11 23 24 -23 17 -41 -5 -47 -3 -76 28 -26 28 -30 39 -25 69 7
41 28 60 69 60 20 0 30 -6 34 -20 7 -26 29 -26 43 0 13 24 5 41 -15 33 -8 -3
-15 0 -15 6 0 6 -19 11 -45 11 -35 0 -51 -6 -80 -31z"/>
</g>
<g>
<path d="M1610 280 c0 -5 4 -10 9 -10 5 0 11 -31 13 -70 3 -56 8 -74 28 -95
21 -22 31 -26 60 -20 19 3 47 7 63 9 15 2 30 4 34 5 4 0 2 6 -5 13 -15 15 -17
158 -2 158 6 0 10 5 10 10 0 6 -20 10 -45 10 -25 0 -45 -4 -45 -10 0 -5 9 -10
20 -10 18 0 20 -7 20 -64 0 -88 -4 -96 -51 -96 -33 0 -40 4 -45 26 -4 14 -4
55 -1 90 l5 64 -34 0 c-19 0 -34 -4 -34 -10z"/>
</g>
<g>
<path d="M2102 275 c-15 -11 -21 -23 -18 -40 7 -37 12 -42 52 -43 20 -1 38 -3
39 -4 1 -2 5 -20 8 -40 l6 -38 -45 0 c-30 0 -46 5 -50 15 -9 22 -30 18 -48 -9
l-15 -24 72 -4 c91 -5 120 10 125 67 4 44 -7 55 -60 55 -35 0 -38 2 -38 30 0
23 4 30 20 30 12 0 20 -7 20 -16 0 -9 7 -14 18 -12 9 2 17 12 17 23 0 16 -8
21 -40 23 -25 2 -49 -3 -63 -13z"/>
</g>
<g>
<path d="M942 164 c-31 -21 -28 -52 5 -65 53 -20 102 24 68 61 -22 24 -43 25
-73 4z m46 -31 c-4 -22 -22 -20 -26 1 -2 10 3 16 13 16 10 0 15 -7 13 -17z"/>
</g>
<g>
<path d="M2333 123 c-7 -2 -13 -11 -13 -19 0 -11 8 -14 28 -12 16 2 27 9 27
18 0 15 -21 22 -42 13z"/>
</g>
</g>
</svg>
