<?xml version="1.0" standalone="no"?>
<!DOCTYPE svg PUBLIC "-//W3C//DTD SVG 20010904//EN"
 "http://www.w3.org/TR/2001/REC-SVG-20010904/DTD/svg10.dtd">
<svg version="1.0" xmlns="http://www.w3.org/2000/svg"
 width="300.000000pt" height="519.000000pt" viewBox="0 0 300.000000 519.000000"
 preserveAspectRatio="xMidYMid meet">
<metadata>
Created by potrace 1.15, written by Peter Selinger 2001-2017
</metadata>
<g transform="translate(0.000000,519.000000) scale(0.100000,-0.100000)"
fill="#000000" stroke="none">
<g>
<path d="M0 2595 c0 -2359 1 -2595 16 -2595 14 0 15 19 8 170 -6 140 -4 170 7
174 8 3 315 7 684 10 369 3 1029 9 1468 12 l797 7 0 -175 0 -175 -492 -3
c-271 -1 -704 -6 -963 -9 -416 -7 -359 -8 502 -9 l972 -2 -1 2595 -2 2595 -50
-2 c-39 -1 -43 -2 -16 -5 l35 -4 0 -77 c6 -837 6 -1025 0 -1030 -3 -3 -13 -2
-21 3 -11 7 -16 28 -17 65 -2 63 -37 123 -66 112 -13 -5 -14 -3 -5 9 20 25 25
55 14 84 -9 22 -13 25 -25 15 -12 -10 -16 -8 -24 11 -5 13 -32 50 -60 82 -28
32 -51 65 -51 74 0 27 -54 103 -76 109 -12 3 -35 4 -50 1 -23 -3 -20 -4 12 -6
39 -1 43 -4 63 -46 12 -25 21 -65 21 -90 0 -37 -3 -45 -19 -45 -24 0 -38 18
-43 55 -2 22 -9 31 -25 33 -13 2 -23 -1 -23 -7 0 -6 4 -11 9 -11 5 0 13 -15
16 -32 4 -18 12 -39 17 -45 7 -9 3 -16 -16 -24 -22 -10 -29 -9 -45 5 -12 11
-21 14 -26 7 -11 -19 -27 -12 -20 8 6 21 -10 38 -20 21 -10 -17 -34 20 -35 53
0 16 5 38 11 49 9 16 8 19 -3 16 -7 -3 -17 -18 -23 -34 -13 -40 -12 -39 -34
-20 -24 22 -111 42 -216 50 -88 7 -198 -12 -311 -53 l-60 -22 -33 30 c-18 17
-37 31 -42 31 -24 0 -4 22 39 44 97 49 285 81 418 72 103 -7 245 -45 277 -73
22 -19 22 -19 47 5 25 24 25 24 2 17 -13 -3 -28 -2 -35 3 -7 6 -47 22 -89 36
-159 54 -365 45 -575 -24 -130 -42 -187 -74 -250 -138 -137 -140 -183 -218
-204 -350 -23 -137 -23 -152 0 -183 27 -36 26 -37 -6 -71 -31 -33 -53 -89 -53
-138 0 -20 -8 -52 -19 -73 -24 -48 -10 -63 45 -48 l37 10 -21 -22 c-33 -35
-20 -68 40 -97 65 -32 81 -56 77 -117 -2 -26 1 -146 5 -265 7 -185 6 -221 -6
-240 -8 -13 -18 -43 -22 -68 -6 -40 -11 -47 -46 -63 -22 -10 -40 -25 -40 -32
0 -19 -58 -30 -152 -30 -65 0 -79 3 -92 20 -21 28 -20 58 4 73 23 14 27 57 5
66 -24 9 -18 44 8 48 12 2 26 13 32 25 8 19 20 22 95 28 47 4 90 11 96 16 7 6
10 34 6 78 -4 63 -3 70 17 80 32 17 27 41 -9 41 l-30 0 0 63 c1 49 3 58 11 44
10 -17 14 -15 44 19 32 36 45 71 45 120 0 23 -30 59 -68 82 -26 14 -86 16 -77
2 3 -5 13 -10 22 -10 31 0 54 -41 51 -89 -3 -47 -22 -66 -31 -31 -8 30 -43 22
-40 -8 2 -12 -2 -22 -7 -22 -6 0 -10 5 -10 11 0 5 -4 7 -10 4 -16 -10 -12
-101 5 -115 16 -13 21 -75 5 -65 -10 6 -50 -15 -50 -27 0 -5 9 -17 20 -28 12
-12 20 -33 20 -55 0 -35 0 -35 -45 -35 -25 0 -54 6 -65 12 -16 10 -24 10 -40
0 -24 -15 -40 -16 -40 -2 0 6 9 10 20 10 13 0 20 7 20 19 0 13 20 34 55 58
l55 38 -3 89 -4 90 -69 63 c-38 34 -68 67 -66 73 1 6 -9 26 -23 44 -14 18 -25
37 -25 41 0 5 -6 16 -14 24 -20 24 -27 108 -9 122 21 18 12 53 -14 57 -29 4
-30 18 -2 25 24 7 16 29 -9 25 -13 -2 -18 6 -20 30 -4 43 -22 41 -22 -3 0 -28
-4 -35 -20 -35 -11 0 -20 -5 -20 -11 0 -6 7 -9 15 -6 19 8 31 -11 16 -26 -6
-6 -11 -20 -11 -32 -1 -20 -1 -20 -15 -1 -12 16 -15 17 -15 4 0 -8 6 -20 13
-26 19 -16 21 -116 2 -132 -8 -7 -15 -19 -15 -27 0 -8 -9 -28 -21 -44 -12 -18
-18 -37 -14 -49 4 -13 -6 -34 -32 -69 -42 -55 -96 -90 -101 -67 -2 8 -11 12
-23 9 -10 -3 -19 0 -19 6 0 20 -42 12 -47 -9 -7 -28 -22 -25 -34 7 -15 41 -2
81 37 106 39 25 43 37 14 37 -70 0 -129 -91 -122 -185 2 -23 44 -75 61 -75 6
0 11 -5 11 -11 0 -6 7 -9 15 -5 11 4 15 -1 15 -19 0 -14 0 -28 1 -32 0 -5 -10
-10 -23 -13 -30 -8 -37 -40 -9 -47 18 -5 21 -13 21 -62 0 -89 10 -97 118 -93
82 3 92 1 127 -22 21 -14 44 -26 51 -26 19 0 18 -36 -1 -44 -22 -8 -18 -42 6
-59 15 -11 20 -23 17 -47 -3 -30 -7 -34 -52 -45 -26 -7 -57 -10 -67 -8 -23 6
-46 -41 -56 -114 -6 -43 -5 -46 15 -41 14 4 19 2 16 -7 -3 -8 17 -20 54 -34
l59 -22 67 25 c70 26 139 33 166 16 19 -12 13 -17 -54 -41 -66 -23 -205 -28
-296 -10 -133 26 -208 33 -228 22 -12 -6 -35 -11 -51 -11 -41 0 -119 -37 -133
-64 -8 -14 -13 -105 -14 -280 -3 -280 -9 -322 -48 -312 -12 3 -26 6 -32 6 -6
0 -14 14 -18 31 -7 36 -31 58 -62 59 -25 0 -88 -57 -99 -89 -4 -14 -12 -20
-23 -17 -9 3 -30 -1 -46 -9 -15 -8 -29 -15 -30 -15 -4 0 -4 3330 0 3352 l6 28
911 3 912 2 -922 3 -923 2 0 -2595z m1760 1925 c26 -25 29 -33 20 -50 -13 -24
-19 -25 -34 -4 -14 18 -43 10 -49 -14 -3 -13 -6 -12 -14 7 -8 21 -10 22 -16 7
-11 -27 1 -36 44 -34 49 2 60 -12 57 -67 -3 -35 -6 -40 -28 -40 -15 0 -25 6
-25 14 0 8 -6 16 -13 19 -9 3 -12 -3 -10 -14 3 -16 -3 -19 -39 -17 -38 2 -43
-1 -41 -20 0 -12 -2 -29 -6 -38 -13 -31 13 -30 55 1 23 16 49 30 58 30 9 0 31
9 49 20 31 19 59 19 47 1 -2 -5 6 -13 19 -19 24 -11 24 -11 8 -45 -15 -31 -22
-35 -59 -39 -24 -2 -43 -2 -43 0 0 12 59 51 78 52 12 0 22 4 22 9 0 8 -32 20
-52 21 -4 0 -28 -23 -55 -51 -48 -51 -116 -94 -132 -84 -5 3 -11 0 -13 -7 -3
-7 -22 6 -46 30 -37 37 -42 39 -42 20 0 -12 10 -32 22 -45 12 -13 18 -26 14
-30 -4 -4 -12 0 -17 10 -7 12 -17 16 -30 12 -15 -5 -19 -2 -19 15 0 13 -4 19
-11 14 -9 -5 -10 1 -5 22 9 33 33 64 49 61 6 -1 12 5 13 13 0 8 2 23 2 32 2
19 44 68 59 68 6 0 17 -10 25 -22 20 -30 30 -8 12 27 -16 31 -9 56 25 98 8 10
10 17 3 17 -5 0 -22 -14 -36 -31 l-26 -31 0 26 c0 15 10 32 28 45 15 11 32 25
37 30 6 6 27 10 47 11 28 0 45 -7 68 -30z m317 -87 c-3 -10 -5 -2 -5 17 0 19
2 27 5 18 2 -10 2 -26 0 -35z m123 28 c0 -11 -4 -23 -10 -26 -6 -4 -10 5 -10
19 0 14 5 26 10 26 6 0 10 -9 10 -19z m-152 -24 c2 -15 -1 -27 -7 -27 -6 0
-11 3 -11 8 0 4 -3 18 -7 31 -4 18 -2 23 8 19 8 -2 15 -17 17 -31z m72 21 c0
-7 -5 -20 -10 -28 -8 -12 -10 -9 -10 13 0 15 5 27 10 27 6 0 10 -6 10 -12z
m34 -21 c-3 -9 -11 -17 -16 -17 -6 0 -7 7 -4 16 3 9 6 21 6 27 0 8 3 8 10 1 6
-6 8 -18 4 -27z m73 1 c-3 -7 -5 -2 -5 12 0 14 2 19 5 13 2 -7 2 -19 0 -25z
m43 19 c0 -7 -7 -22 -16 -33 -14 -17 -15 -17 -10 -1 3 10 6 25 6 33 0 8 5 14
10 14 6 0 10 -6 10 -13z m482 -24 c38 -41 61 -91 53 -120 -8 -35 -31 -14 -39
36 -3 22 -17 53 -31 69 -41 49 -27 61 17 15z m-783 -15 c0 -28 -2 -30 -9 -13
-12 28 -12 45 0 45 6 0 10 -15 9 -32z m324 12 c-3 -12 -8 -19 -11 -16 -5 6 5
36 12 36 2 0 2 -9 -1 -20z m28 -16 c-5 -16 -10 -21 -10 -12 -1 18 10 51 15 45
2 -1 -1 -16 -5 -33z m160 -4 c47 -42 69 -49 89 -26 19 24 109 47 131 33 21
-13 39 -50 39 -81 0 -13 12 -40 26 -61 18 -28 22 -41 14 -49 -8 -8 -13 -7 -20
4 -8 12 -11 13 -22 1 -11 -11 -10 -15 3 -24 15 -9 14 -12 -4 -34 -29 -32 -50
-31 -35 2 10 21 8 28 -8 40 -10 8 -22 15 -26 15 -11 0 -10 -24 2 -36 17 -17 1
-52 -21 -47 -14 4 -18 11 -13 26 5 16 3 19 -14 15 -16 -4 -21 0 -25 21 -3 14
-8 36 -12 47 -6 19 -2 22 38 28 25 4 51 14 59 23 12 15 10 16 -12 9 -14 -3
-55 -9 -91 -13 l-66 -6 -34 57 c-27 45 -41 58 -71 66 -47 13 -49 30 -5 30 25
0 45 -10 78 -40z m-938 -33 c-13 -10 -23 -25 -23 -32 0 -8 -18 -35 -40 -60
-23 -26 -46 -66 -52 -91 -7 -24 -18 -44 -24 -44 -9 0 -9 11 1 48 20 78 42 121
92 182 45 56 47 57 58 37 9 -18 7 -25 -12 -40z m387 30 c0 -18 -2 -19 -10 -7
-13 20 -13 43 0 35 6 -3 10 -16 10 -28z m-31 -32 c0 -5 -4 -3 -9 5 -5 8 -9 22
-9 30 0 16 17 -16 18 -35z m396 -6 c107 -40 134 -61 114 -86 -12 -14 -14 -13
-19 6 -3 12 -17 30 -32 39 -28 17 -30 16 -100 -13 -14 -5 -18 -2 -18 14 0 26
-38 37 -82 25 -41 -12 -57 -37 -40 -64 18 -29 41 -192 43 -305 3 -152 -4 -175
-11 -40 -10 172 -29 303 -52 354 -19 42 -21 43 -56 38 -20 -4 -45 -16 -56 -27
-17 -17 -19 -23 -8 -40 14 -24 16 -100 2 -100 -5 0 -10 15 -10 33 0 42 -25 77
-55 77 -14 0 -29 9 -35 20 -10 19 -5 23 52 50 99 46 267 55 363 19z m95 6 c0
-8 -4 -15 -10 -15 -5 0 -10 7 -10 15 0 8 5 15 10 15 6 0 10 -7 10 -15z m22
-17 c-7 -7 -12 -8 -12 -2 0 14 12 26 19 19 2 -3 -1 -11 -7 -17z m448 -42 c0
-15 -18 -31 -26 -23 -7 7 7 37 17 37 5 0 9 -6 9 -14z m-473 -92 c-9 -9 -28 6
-21 18 4 6 10 6 17 -1 6 -6 8 -13 4 -17z m499 -19 c10 -26 -1 -35 -13 -10 -6
14 -7 25 -2 25 5 0 12 -7 15 -15z m-1036 -42 c0 -55 -5 -54 -14 5 -4 26 -2 42
4 42 5 0 10 -21 10 -47z m680 21 c0 -8 -4 -14 -10 -14 -5 0 -10 9 -10 21 0 11
5 17 10 14 6 -3 10 -13 10 -21z m-121 -27 c1 -5 -3 -5 -9 -2 -5 3 -10 16 -9
28 0 21 1 21 9 2 5 -11 9 -24 9 -28z m411 33 c0 -5 -4 -10 -10 -10 -5 0 -10 5
-10 10 0 6 5 10 10 10 6 0 10 -4 10 -10z m-1117 -32 c-3 -16 -9 -28 -14 -28
-11 0 -11 3 1 36 13 33 20 29 13 -8z m1117 -19 c0 -19 -35 -49 -57 -49 -7 0
-13 7 -13 15 0 9 9 15 25 15 16 0 25 6 25 15 0 8 -9 15 -21 15 -11 0 -18 4
-15 9 10 16 56 0 56 -20z m37 -11 c-3 -8 -6 -5 -6 6 -1 11 2 17 5 13 3 -3 4
-12 1 -19z m-1227 3 c0 -5 -6 -14 -14 -20 -16 -13 -32 2 -21 19 8 12 35 13 35
1z m1085 -21 c-22 -25 -48 -26 -43 -3 2 9 14 20 28 23 33 9 37 4 15 -20z m185
16 c0 -7 -8 -24 -19 -37 -10 -13 -20 -28 -22 -34 -4 -10 -39 -15 -39 -5 0 4
12 13 26 20 14 8 28 26 31 42 6 28 23 39 23 14z m-257 -3 c2 -5 7 -20 10 -34
6 -22 3 -25 -16 -24 -16 2 -21 8 -20 24 2 11 -2 21 -7 21 -6 0 -10 5 -10 10 0
12 37 14 43 3z m-1138 -33 c-5 -8 -11 -8 -17 -2 -6 6 -7 16 -3 22 5 8 11 8 17
2 6 -6 7 -16 3 -22z m51 -7 c-10 -10 -19 5 -10 18 6 11 8 11 12 0 2 -7 1 -15
-2 -18z m448 -28 l6 -50 -15 40 c-9 22 -13 46 -10 54 8 21 12 12 19 -44z
m-344 30 c0 -8 -4 -15 -10 -15 -5 0 -10 7 -10 15 0 8 5 15 10 15 6 0 10 -7 10
-15z m214 -30 c6 -28 5 -29 -9 -11 -8 11 -15 29 -15 40 0 28 16 8 24 -29z
m-174 3 c0 -5 -4 -8 -10 -8 -5 0 -10 10 -10 23 0 18 2 19 10 7 5 -8 10 -18 10
-22z m40 10 c0 -18 -2 -20 -9 -8 -6 8 -7 18 -5 22 9 14 14 9 14 -14z m-281
-69 c22 -18 9 -28 -15 -11 -11 7 -35 67 -33 86 0 6 6 -4 13 -23 6 -18 22 -42
35 -52z m161 66 c0 -8 -4 -15 -9 -15 -5 0 -11 7 -15 15 -3 9 0 15 9 15 8 0 15
-7 15 -15z m1110 5 c8 -5 12 -12 8 -15 -10 -10 -49 5 -43 16 8 11 16 11 35 -1z
m-1300 -103 c34 -30 35 -46 1 -28 -27 15 -60 88 -53 115 5 16 8 12 13 -18 4
-27 17 -49 39 -69z m72 71 c-6 -6 -15 -8 -19 -4 -4 4 -1 11 7 16 19 12 27 3
12 -12z m1113 -8 c-3 -5 4 -14 15 -20 11 -6 18 -15 15 -21 -4 -5 -11 -7 -16
-3 -6 3 -16 -2 -23 -12 -7 -9 -18 -14 -24 -10 -18 11 -14 26 6 26 16 1 16 1 0
14 -11 8 -15 20 -11 34 4 18 9 20 24 11 11 -5 17 -14 14 -19z m315 20 c0 -5
-6 -10 -14 -10 -8 0 -18 5 -21 10 -3 6 3 10 14 10 12 0 21 -4 21 -10z m-255
-11 c10 -15 -1 -23 -20 -15 -9 3 -13 10 -10 16 8 13 22 13 30 -1z m-1105 -9
c0 -5 -4 -10 -10 -10 -5 0 -10 5 -10 10 0 6 5 10 10 10 6 0 10 -4 10 -10z
m211 -51 c12 -7 11 -9 -2 -9 -16 0 -40 40 -38 63 0 7 6 -1 13 -16 7 -16 19
-33 27 -38z m-67 35 c3 -9 6 -24 6 -34 0 -24 36 -30 133 -23 52 4 81 11 84 20
10 26 20 12 17 -24 -9 -122 -21 -187 -29 -168 -5 11 -9 34 -9 52 0 25 -3 30
-13 22 -16 -14 -63 32 -63 61 0 16 -5 21 -22 18 -17 -2 -23 -10 -23 -30 -1
-30 -11 -45 -22 -34 -4 4 -1 11 7 16 11 7 11 11 1 24 -8 9 -20 16 -28 16 -18
0 -28 -29 -15 -42 8 -8 8 -15 1 -24 -14 -18 -3 -34 24 -34 28 -1 61 -25 52
-40 -4 -6 -13 -2 -26 12 -15 18 -20 20 -28 9 -5 -7 -6 -22 -4 -32 3 -12 0 -19
-8 -20 -8 0 -5 -4 6 -9 17 -7 15 -8 -10 -8 -16 0 -41 -3 -54 -7 -22 -7 -23 -6
-17 18 3 14 2 29 -4 32 -5 3 -10 17 -10 31 0 13 -5 24 -10 24 -6 0 -15 11 -20
25 -6 15 -17 25 -30 25 -24 0 -26 -17 -3 -42 15 -17 15 -18 -1 -18 -9 0 -19 6
-22 14 -3 8 -12 12 -19 10 -9 -4 -12 0 -9 13 3 11 26 30 50 44 42 22 45 26 39
56 -4 21 -1 38 7 48 17 19 64 19 72 -1z m-104 -29 c0 -27 -15 -41 -25 -25 -10
16 4 62 15 55 6 -3 10 -17 10 -30z m1130 25 c0 -5 -7 -10 -15 -10 -8 0 -15 5
-15 10 0 6 7 10 15 10 8 0 15 -4 15 -10z m90 0 c0 -5 -4 -10 -10 -10 -5 0 -10
5 -10 10 0 6 5 10 10 10 6 0 10 -4 10 -10z m99 -21 c9 -17 11 -32 6 -45 -8
-17 -9 -16 -13 8 -4 31 -37 59 -58 51 -8 -3 -14 0 -14 7 0 7 12 10 32 8 23 -2
37 -11 47 -29z m-1021 3 c2 -7 -3 -12 -12 -12 -9 0 -16 7 -16 16 0 17 22 14
28 -4z m877 -2 c3 -5 -1 -10 -9 -10 -9 0 -16 5 -16 10 0 6 4 10 9 10 6 0 13
-4 16 -10z m-1225 -10 c0 -5 -6 -10 -14 -10 -8 0 -18 5 -21 10 -3 6 3 10 14
10 12 0 21 -4 21 -10z m437 -22 c-3 -7 -5 -2 -5 12 0 14 2 19 5 13 2 -7 2 -19
0 -25z m-437 -27 c0 -5 -7 -14 -15 -21 -16 -14 -18 -10 -9 14 6 17 24 22 24 7z
m490 -32 c0 -18 -4 -28 -10 -24 -5 3 -10 20 -10 36 0 18 4 28 10 24 6 -3 10
-20 10 -36z m920 26 c0 -8 -4 -15 -10 -15 -5 0 -7 7 -4 15 4 8 8 15 10 15 2 0
4 -7 4 -15z m-250 -24 c0 -33 -19 -41 -185 -71 -82 -14 -102 -15 -114 -5 -19
19 -6 45 22 45 14 0 53 9 88 20 34 11 83 23 108 26 25 3 48 7 50 10 14 14 31
1 31 -25z m-955 9 c3 -5 1 -10 -4 -10 -6 0 -11 5 -11 10 0 6 2 10 4 10 3 0 8
-4 11 -10z m1025 -15 c0 -8 -4 -15 -10 -15 -5 0 -10 7 -10 15 0 8 5 15 10 15
6 0 10 -7 10 -15z m-1366 -26 c23 -18 31 -19 58 -10 24 9 34 8 40 -1 13 -22 9
-29 -11 -19 -24 14 -51 -13 -33 -31 7 -7 12 -22 12 -35 0 -13 6 -26 14 -29 8
-3 13 -11 10 -18 -3 -7 2 -19 11 -26 12 -10 18 -10 30 0 9 7 15 8 15 2 0 -5 9
-8 20 -5 13 3 20 0 20 -9 0 -7 -9 -14 -20 -14 -11 0 -20 4 -20 9 0 4 -5 5 -10
2 -24 -15 -70 7 -85 38 -7 18 -23 43 -34 57 -17 21 -23 23 -40 13 -16 -10 -20
-9 -25 4 -4 9 -4 18 -1 21 3 3 5 0 5 -8 0 -10 3 -10 15 0 20 17 19 46 -2 54
-11 5 -22 1 -30 -10 -10 -14 -13 -15 -13 -3 0 18 19 39 36 39 6 0 23 -9 38
-21z m33 15 c-3 -3 -12 -4 -19 -1 -8 3 -5 6 6 6 11 1 17 -2 13 -5z m389 -15
c16 -17 16 -22 4 -29 -33 -21 -60 0 -46 35 7 20 19 19 42 -6z m1091 -26 c-3
-10 -5 -4 -5 12 0 17 2 24 5 18 2 -7 2 -21 0 -30z m-1296 -16 c-1 -12 -15 -9
-19 4 -3 6 1 10 8 8 6 -3 11 -8 11 -12z m236 -4 c-9 -9 -19 -14 -23 -11 -10
10 6 28 24 28 15 0 15 -1 -1 -17z m-288 -12 c7 -13 6 -23 -4 -37 -15 -18 -16
-18 -35 5 -16 18 -18 27 -9 37 16 19 36 17 48 -5z m1111 4 c-13 -16 -48 -27
-148 -46 -62 -12 -90 -7 -62 11 8 5 40 12 70 16 30 4 71 13 90 20 50 18 66 18
50 -1z m-790 -4 c0 -12 -20 -25 -27 -18 -7 7 6 27 18 27 5 0 9 -4 9 -9z m920
6 c0 -2 -10 -12 -21 -23 -22 -19 -22 -19 -10 4 10 18 31 31 31 19z m25 -26
c-3 -6 -11 -11 -17 -11 -6 0 -6 6 2 15 14 17 26 13 15 -4z m113 -273 l2 -286
-35 -31 c-20 -17 -40 -31 -45 -31 -5 0 -9 123 -9 294 l-1 294 31 27 c18 14 37
24 43 22 8 -3 12 -89 14 -289z m-1641 260 c-3 -8 -6 -5 -6 6 -1 11 2 17 5 13
3 -3 4 -12 1 -19z m296 -37 c-9 -13 -21 18 -16 39 7 25 7 25 13 -5 4 -16 5
-32 3 -34z m227 49 c0 -5 -4 -10 -10 -10 -5 0 -10 5 -10 10 0 6 5 10 10 10 6
0 10 -4 10 -10z m240 -18 c0 -15 -2 -15 -10 -2 -13 20 -13 33 0 25 6 -3 10
-14 10 -23z m-430 3 c0 -8 -4 -15 -10 -15 -5 0 -10 7 -10 15 0 8 5 15 10 15 6
0 10 -7 10 -15z m-676 -24 c-5 -9 -9 -42 -10 -75 -1 -32 -6 -61 -10 -65 -5 -3
-16 -19 -24 -36 l-14 -30 -4 25 c-2 13 1 26 7 28 6 2 11 30 11 68 0 38 4 64
11 64 5 0 7 5 4 10 -11 18 3 40 20 34 11 -5 14 -12 9 -23z m541 20 c3 -5 1
-12 -5 -16 -5 -3 -10 1 -10 9 0 18 6 21 15 7z m365 -1 c0 -5 -7 -10 -15 -10
-8 0 -15 5 -15 10 0 6 7 10 15 10 8 0 15 -4 15 -10z m-450 -36 c0 -35 -15 -30
-17 6 -1 18 2 28 7 25 6 -4 10 -17 10 -31z m1241 -66 c9 -1307 9 -1429 -3
-1426 -7 2 -49 12 -93 22 l-80 18 1 672 c1 369 3 697 4 728 l2 57 37 6 c20 4
52 10 71 15 62 14 60 18 61 -92z m-846 82 c-3 -5 -13 -10 -21 -10 -8 0 -14 5
-14 10 0 6 9 10 21 10 11 0 17 -4 14 -10z m105 2 c0 -5 -7 -9 -15 -9 -8 0 -12
4 -9 9 3 4 9 8 15 8 5 0 9 -4 9 -8z m490 0 c0 -4 -8 -12 -19 -17 -10 -6 -41
-22 -69 -37 -56 -31 -172 -58 -245 -58 -68 0 -50 16 25 22 78 7 190 40 243 73
41 25 65 31 65 17z m320 -17 c0 -14 -2 -25 -4 -25 -2 0 -6 11 -8 25 -3 14 -1
25 3 25 5 0 9 -11 9 -25z m-866 -6 c-3 -5 -10 -7 -15 -3 -5 3 -7 10 -3 15 3 5
10 7 15 3 5 -3 7 -10 3 -15z m903 -37 c2 -30 0 -53 -6 -57 -7 -4 -11 14 -11
56 0 73 9 73 17 1z m42 -97 c0 -38 -4 -88 -8 -110 -6 -28 -9 8 -9 115 0 109 3
142 9 110 4 -25 8 -76 8 -115z m-402 104 c-20 -17 -62 -40 -94 -51 -75 -25
-93 -43 -35 -34 29 4 41 3 37 -4 -3 -6 -11 -8 -16 -5 -5 4 -9 1 -9 -4 0 -6 -8
-11 -17 -11 -13 0 -14 -3 -6 -11 13 -13 99 13 145 43 29 20 38 22 38 9 0 -13
-118 -71 -144 -71 -28 0 -50 -15 -42 -29 5 -8 13 -8 26 -1 24 13 30 13 30 0 0
-5 -9 -10 -21 -10 -15 0 -19 -5 -14 -18 4 -16 -4 -22 -46 -35 -52 -17 -144
-22 -187 -11 -17 5 -21 11 -16 23 4 9 12 42 17 73 l11 56 60 7 c109 12 262 69
297 111 6 8 14 12 17 10 2 -3 -11 -20 -31 -37z m420 19 c-3 -8 -6 -5 -6 6 -1
11 2 17 5 13 3 -3 4 -12 1 -19z m-1297 2 c0 -5 -4 -10 -10 -10 -5 0 -10 5 -10
10 0 6 5 10 10 10 6 0 10 -4 10 -10z m290 0 c-19 -13 -30 -13 -30 0 0 6 10 10
23 10 18 0 19 -2 7 -10z m90 0 c0 -5 -7 -10 -15 -10 -8 0 -15 5 -15 10 0 6 7
10 15 10 8 0 15 -4 15 -10z m40 0 c0 -5 -4 -10 -10 -10 -5 0 -10 5 -10 10 0 6
5 10 10 10 6 0 10 -4 10 -10z m747 -97 c-2 -21 -4 -4 -4 37 0 41 2 58 4 38 2
-21 2 -55 0 -75z m-1401 60 c-8 -15 -15 -22 -16 -15 0 14 22 53 28 47 2 -2 -3
-16 -12 -32z m354 27 c0 -5 -9 -10 -20 -10 -11 0 -20 5 -20 10 0 6 9 10 20 10
11 0 20 -4 20 -10z m60 0 c0 -5 -7 -10 -15 -10 -8 0 -15 5 -15 10 0 6 7 10 15
10 8 0 15 -4 15 -10z m50 0 c0 -5 -9 -10 -20 -10 -11 0 -20 5 -20 10 0 6 9 10
20 10 11 0 20 -4 20 -10z m-90 -19 c0 -5 -9 -11 -20 -14 -11 -3 -20 -1 -20 3
0 5 8 11 18 13 9 3 18 5 20 6 1 0 2 -3 2 -8z m186 -13 c19 -21 19 -21 -6 -15
-14 4 -37 7 -52 7 -31 0 -38 16 -10 23 35 9 49 6 68 -15z m115 -4 c7 -8 7 -14
1 -14 -17 0 -73 26 -67 32 9 9 54 -3 66 -18z m479 7 c0 -14 -89 -63 -108 -59
-11 2 -1 12 31 28 26 13 47 27 47 32 0 4 7 8 15 8 8 0 15 -4 15 -9z m-970 -11
c12 -8 11 -10 -7 -10 -13 0 -23 5 -23 10 0 13 11 13 30 0z m291 -21 c35 -18
10 -28 -34 -13 -45 16 -121 12 -133 -8 -5 -8 8 -9 44 -4 31 4 53 3 57 -4 3 -5
18 -10 33 -10 23 0 25 -2 12 -15 -22 -21 -69 -21 -115 0 -60 26 -97 27 -117 2
-10 -12 -18 -17 -18 -12 0 39 82 73 178 74 40 1 82 -4 93 -10z m-271 -9 c0 -5
-7 -10 -16 -10 -8 0 -12 5 -9 10 3 6 10 10 16 10 5 0 9 -4 9 -10z m359 -24
c15 -18 2 -26 -26 -15 -14 5 -23 17 -23 29 0 17 3 19 18 11 10 -5 24 -17 31
-25z m74 19 c-3 -13 -53 -20 -53 -7 0 15 13 23 35 20 11 -2 19 -7 18 -13z
m794 -152 c-2 -32 -3 -6 -3 57 0 63 1 89 3 58 2 -32 2 -84 0 -115z m-1273 131
c8 -22 7 -23 -47 -30 -29 -4 -47 -3 -47 3 0 19 34 38 76 42 7 0 15 -6 18 -15z
m546 -15 c0 -18 -18 -9 -23 12 -4 16 -3 18 9 8 8 -6 14 -15 14 -20z m-51 -15
c-14 -18 -24 -11 -15 11 3 9 11 13 16 10 8 -5 7 -11 -1 -21z m81 -20 c-14 -16
-40 -19 -40 -4 0 6 7 13 15 16 8 4 15 14 15 23 1 14 2 14 11 -2 8 -13 7 -22
-1 -33z m-1070 26 c0 -5 -5 -10 -11 -10 -5 0 -7 5 -4 10 3 6 8 10 11 10 2 0 4
-4 4 -10z m614 1 c3 -4 -3 -16 -14 -26 -19 -17 -20 -17 -26 0 -9 23 27 47 40
26z m226 -11 c0 -12 -50 -33 -58 -26 -3 3 1 12 8 21 14 17 50 20 50 5z m100 4
c0 -12 -34 -33 -52 -34 -27 0 -21 15 10 27 34 13 42 15 42 7z m-910 -14 c0 -5
-4 -10 -10 -10 -5 0 -10 5 -10 10 0 6 5 10 10 10 6 0 10 -4 10 -10z m654 -5
c11 -8 29 -15 40 -15 12 0 29 -7 40 -15 13 -10 25 -11 43 -4 34 13 43 11 43
-6 0 -11 7 -14 25 -9 39 10 107 -24 128 -63 9 -19 17 -39 17 -46 0 -7 14 -21
30 -32 31 -21 39 -35 19 -35 -7 0 -54 -20 -105 -44 -84 -40 -96 -43 -124 -33
-23 9 -29 16 -24 30 4 14 3 17 -6 12 -9 -5 -11 -4 -6 4 4 6 11 9 16 6 12 -7
29 26 27 52 -1 24 -27 20 -53 -8 -22 -25 -41 -24 -49 1 -3 11 -14 20 -23 20
-14 1 -13 4 6 19 30 26 28 35 -8 28 -16 -4 -32 -2 -35 4 -4 5 -15 7 -25 4 -13
-4 -21 2 -29 26 -15 44 -15 64 2 51 8 -7 17 -7 30 2 26 20 20 36 -13 36 -30 0
-41 14 -17 23 20 9 31 7 51 -8z m-688 -7 c-3 -7 -9 -21 -12 -30 -8 -22 -24
-24 -24 -3 0 8 5 15 10 15 6 0 10 7 10 15 0 8 5 15 11 15 6 0 8 -6 5 -12z
m1004 -13 c-14 -17 -60 -21 -60 -5 0 6 11 10 24 10 14 0 28 5 31 11 4 6 9 8
12 5 3 -3 0 -12 -7 -21z m803 -25 c4 -30 3 -38 -3 -25 -8 19 -14 83 -6 74 2
-2 6 -24 9 -49z m-1746 18 c-3 -8 -6 -5 -6 6 -1 11 2 17 5 13 3 -3 4 -12 1
-19z m478 13 c19 -8 19 -8 -3 -20 -23 -12 -72 -5 -72 11 0 5 9 6 20 3 11 -4
20 -2 20 4 0 13 7 13 35 2z m-595 -21 c0 -5 -4 -10 -10 -10 -5 0 -10 5 -10 10
0 6 5 10 10 10 6 0 10 -4 10 -10z m100 0 c0 -5 -7 -10 -15 -10 -8 0 -15 5 -15
10 0 6 7 10 15 10 8 0 15 -4 15 -10z m1015 -19 c0 -23 -23 -24 -35 -1 -10 19
-9 21 12 18 13 -2 23 -9 23 -17z m-443 -63 c9 -32 16 -38 38 -38 25 0 28 -4
33 -51 5 -42 3 -56 -15 -80 -12 -16 -27 -29 -33 -29 -14 0 -35 -43 -35 -71 0
-11 -15 -40 -34 -64 l-33 -45 -8 63 c-4 34 -9 129 -11 210 l-3 148 32 14 c38
16 50 6 69 -57z m-692 52 c0 -5 -4 -10 -10 -10 -5 0 -10 5 -10 10 0 6 5 10 10
10 6 0 10 -4 10 -10z m37 -16 c-9 -9 -28 6 -21 18 4 6 10 6 17 -1 6 -6 8 -13
4 -17z m53 11 c0 -8 -4 -15 -10 -15 -5 0 -10 7 -10 15 0 8 5 15 10 15 6 0 10
-7 10 -15z m46 -12 c-10 -10 -19 5 -10 18 6 11 8 11 12 0 2 -7 1 -15 -2 -18z
m17 -15 c-21 -10 -21 -11 -5 -54 9 -24 20 -44 24 -44 4 0 0 16 -8 35 -26 62 2
73 59 24 43 -37 45 -46 15 -52 -13 -2 -4 -5 20 -6 69 -2 39 -21 -33 -21 -65 0
-65 0 -84 38 -33 66 -35 80 -9 85 39 7 44 6 21 -5z m-133 -8 c0 -5 -4 -10 -9
-10 -6 0 -13 5 -16 10 -3 6 1 10 9 10 9 0 16 -4 16 -10z m57 -45 c8 -25 8 -35
-1 -38 -6 -2 -8 -8 -4 -12 12 -13 41 4 31 18 -16 20 -23 47 -13 47 8 0 40 -62
40 -76 0 -2 -34 -4 -75 -4 -64 0 -74 2 -68 16 4 12 8 12 13 3 5 -7 15 5 28 35
12 25 25 46 30 46 5 0 13 -16 19 -35z m1810 -162 c-2 -38 -3 -7 -3 67 0 74 1
105 3 68 2 -38 2 -98 0 -135z m-1899 148 c-24 -43 -36 -57 -43 -49 -3 3 4 16
15 31 11 14 20 28 20 32 0 14 -42 -45 -44 -63 -2 -10 -13 -18 -27 -19 -15 -1
-17 0 -6 3 9 3 15 9 12 14 -8 12 60 87 79 87 11 0 10 -8 -6 -36z m32 8 c-7
-11 -14 -18 -17 -15 -3 3 0 12 7 21 18 21 23 19 10 -6z m1897 -1 c-3 -8 -6 -5
-6 6 -1 11 2 17 5 13 3 -3 4 -12 1 -19z m-100 -70 c-3 -7 -5 -2 -5 12 0 14 2
19 5 13 2 -7 2 -19 0 -25z m-467 -9 c0 -15 -7 -19 -34 -19 -36 0 -70 26 -45
34 22 8 63 12 72 8 4 -2 7 -12 7 -23z m567 -1 c-3 -8 -6 -5 -6 6 -1 11 2 17 5
13 3 -3 4 -12 1 -19z m-1683 -9 c-3 -5 -13 -9 -24 -9 -20 0 -35 -26 -20 -35 6
-4 10 -14 10 -24 0 -22 36 -56 44 -42 4 5 2 12 -4 16 -13 8 -13 35 0 35 6 0
10 -9 10 -19 0 -11 5 -23 10 -26 6 -3 10 1 10 9 0 9 7 16 15 16 9 0 15 -9 15
-23 0 -22 -4 -24 -64 -25 l-64 -2 -4 68 c-2 37 -3 70 -2 73 2 3 19 3 38 1 20
-2 33 -8 30 -13z m998 -10 c-37 -13 -103 -17 -99 -6 5 16 100 36 109 22 4 -5
-1 -13 -10 -16z m-1104 12 c14 -8 24 -131 11 -131 -3 0 -11 12 -18 26 -8 19
-9 30 -1 39 14 17 -6 52 -34 59 -25 6 -36 0 -36 -22 0 -14 -2 -14 -9 -3 -5 8
-16 11 -26 8 -19 -8 -14 -37 16 -79 18 -26 18 -27 -1 -33 -11 -3 -24 -4 -28
-1 -11 7 -23 112 -15 132 6 16 118 20 141 5z m152 -22 c-14 -4 -36 -7 -50 -7
-24 1 -24 1 -2 5 13 3 26 11 29 19 4 11 9 11 26 2 22 -12 22 -12 -3 -19z
m1680 6 c0 -14 -4 -25 -10 -25 -11 0 -14 33 -3 43 11 11 13 8 13 -18z m-1110
-6 c-13 -22 -37 -35 -48 -24 -7 7 34 45 49 45 6 0 5 -9 -1 -21z m-995 -36 c12
-99 16 -111 33 -116 60 -19 97 -37 98 -46 1 -6 2 -18 3 -26 0 -8 8 -15 16 -15
8 0 15 -4 15 -10 0 -13 -20 -13 -40 0 -10 6 -20 4 -31 -6 -11 -10 -33 -14 -65
-12 -47 3 -49 4 -52 36 -3 25 2 37 20 52 25 20 17 39 -18 44 -13 2 -20 12 -22
34 -2 18 1 32 7 32 6 0 11 18 11 40 0 56 17 50 25 -7z m65 33 c-26 -13 -44
-11 -35 5 4 5 18 9 33 9 l27 0 -25 -14z m1180 -15 c0 -10 -69 -36 -76 -28 -5
4 55 36 69 37 4 0 7 -4 7 -9z m270 -4 c15 -12 40 -51 40 -62 0 -12 -61 -4 -66
9 -7 18 -56 36 -97 36 -38 0 -25 17 18 23 58 8 90 6 105 -6z m-1334 -15 c-2
-4 -1 -14 5 -22 5 -8 9 -10 9 -4 0 6 7 11 15 11 11 0 14 -7 10 -21 -5 -17 -3
-16 9 4 9 14 15 20 16 14 0 -5 -6 -19 -14 -30 -14 -18 -15 -18 -21 -2 -4 10
-11 16 -16 13 -4 -3 -13 3 -18 14 -14 25 -14 31 0 31 5 0 8 -4 5 -8z m1119 -2
c-11 -18 -73 -41 -102 -38 l-28 4 30 8 c17 4 41 14 55 21 29 17 54 19 45 5z
m-355 -19 c0 -6 -4 -13 -10 -16 -5 -3 -10 1 -10 9 0 9 5 16 10 16 6 0 10 -4
10 -9z m475 0 c6 -11 -48 -39 -80 -42 -38 -3 -65 1 -65 10 0 13 28 23 85 31
28 4 51 8 52 9 1 0 4 -3 8 -8z m-260 -21 c-3 -5 -13 -10 -21 -10 -8 0 -12 5
-9 10 3 6 13 10 21 10 8 0 12 -4 9 -10z m318 -14 c7 -17 -23 -27 -55 -18 -22
5 -21 6 7 18 39 17 42 17 48 0z m-1213 -6 c0 -5 -4 -10 -10 -10 -5 0 -10 5
-10 10 0 6 5 10 10 10 6 0 10 -4 10 -10z m-190 -23 c22 -4 21 -5 -4 -4 -17 1
-31 9 -33 17 -3 10 -2 11 4 4 4 -7 19 -14 33 -17z m1185 12 c12 -18 -5 -24
-57 -22 -54 1 -70 9 -48 23 21 13 97 12 105 -1z m745 -43 c0 -30 -4 -58 -10
-61 -6 -4 -10 17 -10 54 0 34 4 61 10 61 6 0 10 -24 10 -54z m188 -323 c-39
-41 -45 -31 -52 85 -13 240 -16 216 29 255 l40 35 3 -176 c2 -169 2 -176 -20
-199z m-1306 335 c-15 -15 -24 -6 -16 16 5 12 10 14 17 7 8 -8 8 -14 -1 -23z
m-262 18 c0 -3 -4 -8 -10 -11 -5 -3 -10 -1 -10 4 0 6 5 11 10 11 6 0 10 -2 10
-4z m310 -6 c0 -5 -2 -10 -4 -10 -3 0 -8 5 -11 10 -3 6 -1 10 4 10 6 0 11 -4
11 -10z m420 -15 c-13 -16 -80 -21 -80 -7 0 16 14 22 53 22 34 0 38 -2 27 -15z
m86 -4 c17 -10 34 -29 37 -41 5 -19 3 -21 -20 -15 -14 3 -31 1 -38 -5 -16 -13
-55 3 -55 23 0 15 28 57 38 57 4 0 21 -9 38 -19z m-1526 -11 c0 -5 -4 -10 -10
-10 -5 0 -10 5 -10 10 0 6 5 10 10 10 6 0 10 -4 10 -10z m40 0 c0 -5 -2 -10
-4 -10 -3 0 -8 5 -11 10 -3 6 -1 10 4 10 6 0 11 -4 11 -10z m625 0 c-6 -10
-40 -8 -51 3 -4 4 7 7 25 7 19 0 30 -4 26 -10z m336 -61 c-9 -38 -20 -70 -26
-71 -5 0 -18 -4 -27 -9 -16 -8 -18 -26 -18 -137 0 -70 -5 -145 -10 -167 -11
-49 -4 -57 22 -25 18 22 21 23 29 7 22 -39 30 -14 27 91 -2 64 -7 106 -13 105
-5 -1 -12 -17 -15 -35 -5 -31 -6 -31 -13 16 -10 72 -10 75 19 73 33 -2 44 20
12 25 -37 5 -29 34 8 30 26 -3 33 1 38 22 3 13 18 38 32 55 28 34 23 42 -9 14
-20 -17 -20 -17 -14 7 4 14 7 31 7 38 0 7 14 12 38 12 35 -1 36 -2 18 -15 -11
-8 -15 -15 -9 -15 17 0 36 28 28 41 -5 8 -1 9 16 3 13 -4 31 -7 39 -6 8 1 45
-1 81 -4 l66 -6 -18 -38 c-11 -22 -19 -44 -19 -50 0 -21 -33 -68 -51 -73 -12
-3 -18 -18 -21 -53 -5 -57 6 -78 27 -50 8 10 12 23 9 27 -2 5 11 39 29 76 19
37 37 79 41 93 10 40 33 63 53 56 15 -6 15 -8 -7 -19 -28 -15 -38 -37 -15 -37
9 0 14 4 10 9 -3 5 -1 12 5 16 15 9 12 -21 -3 -37 -24 -23 -35 -90 -22 -122 7
-16 5 -18 -11 -12 -45 19 -54 19 -54 -2 0 -11 6 -23 13 -26 9 -3 7 -9 -5 -19
-22 -17 -23 -31 -3 -23 21 8 19 0 -10 -50 -18 -31 -24 -51 -19 -70 6 -24 5
-25 -15 -12 -20 11 -24 11 -37 -6 -19 -26 -18 -36 4 -37 16 -1 16 -2 0 -6 -25
-6 -22 -23 3 -23 14 0 19 -5 16 -14 -4 -10 -1 -13 8 -10 9 4 17 -4 21 -23 4
-15 14 -34 23 -41 9 -8 10 -10 3 -7 -9 5 -15 -1 -19 -14 -3 -12 -11 -21 -18
-21 -7 0 -15 -6 -18 -14 -10 -26 -137 -38 -162 -15 -15 15 -55 11 -55 -7 0
-26 -54 -14 -58 14 -3 20 -7 22 -37 16 -25 -4 -35 -2 -43 11 -10 19 -32 12
-32 -10 0 -7 -15 -17 -32 -20 -18 -4 -36 -12 -39 -18 -4 -5 -14 -7 -24 -4 -20
8 -10 27 15 27 24 0 31 11 23 38 -7 29 -33 28 -34 0 l-2 -23 -4 23 c-3 14 -12
22 -24 22 -16 0 -19 5 -14 20 4 11 2 20 -4 20 -6 0 -11 5 -11 10 0 7 22 8 63
4 38 -3 102 0 166 10 58 9 124 16 148 16 30 0 45 5 49 15 6 14 8 14 18 1 6 -8
25 -20 41 -26 l30 -11 -23 22 c-18 16 -21 24 -12 29 9 6 6 10 -9 15 -30 9 -27
42 7 73 26 25 52 63 52 76 0 3 -6 6 -14 6 -12 0 -13 15 -9 78 3 42 10 83 16
90 6 8 6 12 -1 12 -20 0 -30 -28 -39 -112 -6 -60 -5 -89 2 -92 5 -3 -4 -17
-21 -33 -38 -33 -56 -66 -49 -86 9 -22 -16 -34 -85 -41 -36 -3 -93 -8 -127
-12 -41 -4 -63 -3 -63 4 0 6 5 12 12 14 8 3 6 18 -7 51 -18 48 -24 54 -40 38
-6 -4 -23 -11 -38 -15 -25 -6 -28 -4 -25 15 2 15 14 26 36 33 23 8 43 27 63
59 16 26 29 51 29 57 0 5 4 10 8 10 10 0 5 -167 -7 -220 -9 -39 -8 -41 12 -38
31 4 39 59 33 216 -5 129 -4 136 22 193 17 38 32 58 42 56 8 -1 14 4 12 12 -3
13 14 30 29 31 3 0 -1 -32 -10 -71z m609 61 c8 -5 11 -12 7 -16 -4 -4 -15 0
-24 9 -18 18 -8 23 17 7z m547 -22 c-3 -8 -6 -5 -6 6 -1 11 2 17 5 13 3 -3 4
-12 1 -19z m-2147 -18 c-27 -7 -43 -3 -35 9 2 5 17 6 32 3 l28 -6 -25 -6z
m420 6 c0 -16 -100 -30 -114 -16 -6 6 -18 10 -29 10 -10 0 -15 5 -12 10 3 6
40 10 81 10 56 0 74 -3 74 -14z m197 -28 c-3 -7 -5 -2 -5 12 0 14 2 19 5 13 2
-7 2 -19 0 -25z m993 17 c7 -8 8 -15 2 -15 -5 0 -15 7 -22 15 -7 8 -8 15 -2
15 5 0 15 -7 22 -15z m498 -112 c-1 -114 -2 -115 -7 -38 -3 44 -4 97 -2 118 6
72 11 36 9 -80z m-1728 68 c0 -4 -16 -7 -35 -7 -41 0 -47 13 -7 18 30 4 42 1
42 -11z m1255 -1 c64 -13 82 -30 24 -23 -82 10 -113 19 -117 32 -4 11 1 12 19
7 13 -3 46 -11 74 -16z m-1164 -51 c-3 -46 -7 -59 -19 -59 -4 0 -5 25 -4 56 3
35 8 54 15 51 7 -2 10 -21 8 -48z m1034 42 c3 -5 1 -12 -5 -16 -5 -3 -10 1
-10 9 0 18 6 21 15 7z m673 -348 l-2 -348 -6 340 c-6 322 -5 355 6 355 2 0 3
-156 2 -347z m-1969 274 c1 -10 -3 -15 -9 -12 -5 3 -10 23 -9 43 1 33 2 34 9
12 4 -14 8 -33 9 -43z m36 44 c3 -5 1 -12 -5 -16 -5 -3 -10 1 -10 9 0 18 6 21
15 7z m175 -1 c0 -5 -4 -10 -10 -10 -5 0 -10 5 -10 10 0 6 5 10 10 10 6 0 10
-4 10 -10z m215 0 c-3 -5 -13 -10 -21 -10 -8 0 -12 5 -9 10 3 6 13 10 21 10 8
0 12 -4 9 -10z m815 -32 c8 -29 9 -48 1 -64 -5 -12 -10 -71 -10 -131 0 -110
-5 -135 -43 -211 -31 -61 -46 -71 -67 -46 -9 12 -27 26 -39 33 -30 16 -31 76
-2 84 22 6 28 43 8 50 -9 3 -8 10 6 26 11 11 25 42 32 68 7 27 13 43 13 36 1
-7 9 -17 19 -22 16 -9 18 -6 14 20 -2 16 -9 32 -14 35 -5 3 -2 14 8 25 17 18
16 20 -1 33 -17 12 -17 14 1 44 10 18 24 32 31 32 7 0 13 7 13 15 0 31 20 14
30 -27z m212 26 c32 -9 58 -21 58 -26 0 -5 -9 -18 -20 -30 -11 -12 -20 -28
-20 -35 0 -7 -8 -13 -19 -13 -15 0 -68 67 -89 113 -6 11 27 8 90 -9z m-1629
-1 c-7 -2 -19 -2 -25 0 -7 3 -2 5 12 5 14 0 19 -2 13 -5z m115 0 c-10 -2 -28
-2 -40 0 -13 2 -5 4 17 4 22 1 32 -1 23 -4z m1208 -40 c-11 -11 -17 4 -9 23 7
18 8 18 11 1 2 -10 1 -21 -2 -24z m-1211 17 c-3 -5 -39 -9 -78 -9 -62 2 -66 3
-32 9 63 11 117 11 110 0z m133 -23 c4 -19 -6 -21 -27 -8 -16 10 -5 34 12 28
7 -2 13 -11 15 -20z m147 5 c0 -18 -20 -15 -23 4 -3 10 1 15 10 12 7 -3 13
-10 13 -16z m-113 -38 c2 -19 0 -37 -4 -40 -4 -3 -8 8 -8 25 0 16 -3 37 -7 47
-4 11 -3 15 4 11 6 -4 13 -23 15 -43z m80 -21 c-7 -37 -22 -15 -22 30 0 41 1
41 13 17 7 -14 11 -35 9 -47z m1139 41 c5 -15 7 -29 4 -32 -7 -7 -34 29 -35
46 0 22 20 13 31 -14z m43 10 c3 -8 2 -12 -4 -9 -6 3 -10 10 -10 16 0 14 7 11
14 -7z m-1234 -4 c0 -5 -2 -10 -4 -10 -3 0 -8 5 -11 10 -3 6 -1 10 4 10 6 0
11 -4 11 -10z m1210 -102 c0 -10 -4 -18 -9 -18 -13 0 -41 41 -35 51 8 14 44
-14 44 -33z m-1186 16 c9 -3 16 -15 16 -25 0 -17 -8 -19 -65 -19 -51 0 -65 3
-65 15 0 17 16 20 25 5 9 -15 25 -12 25 4 0 12 12 20 42 25 3 0 13 -2 22 -5z
m63 -28 c-4 -9 -11 -16 -17 -16 -11 0 -14 33 -3 44 11 10 26 -11 20 -28z
m1193 -13 c0 -7 -4 -13 -9 -13 -10 0 -21 25 -21 48 1 15 3 14 15 -2 8 -11 15
-26 15 -33z m517 -105 c-2 -29 -3 -6 -3 52 0 58 1 81 3 53 2 -29 2 -77 0 -105z
m-838 31 c-6 -17 -17 -28 -23 -26 -16 6 -8 58 12 81 17 18 17 18 20 -4 2 -12
-2 -35 -9 -51z m260 -52 l-1 -72 -8 53 c-4 29 -15 61 -24 71 -9 10 -16 31 -16
47 l1 29 24 -28 c22 -25 25 -37 24 -100z m121 93 c0 -11 -4 -20 -9 -20 -11 0
-22 26 -14 34 12 12 23 5 23 -14z m-58 -45 c2 -31 -1 -45 -9 -45 -8 0 -13 12
-13 29 0 16 -3 36 -6 45 -4 10 -1 16 9 16 11 0 16 -13 19 -45z m658 36 c0 -9
-24 -21 -43 -21 -6 0 -2 7 9 15 22 17 34 19 34 6z m-1960 -21 c0 -5 -4 -10
-10 -10 -5 0 -10 5 -10 10 0 6 5 10 10 10 6 0 10 -4 10 -10z m80 -10 c0 -5 -2
-10 -4 -10 -3 0 -8 5 -11 10 -3 6 -1 10 4 10 6 0 11 -4 11 -10z m1880 -122 c0
-62 3 -266 7 -454 l6 -341 -21 -5 c-14 -4 -22 -14 -22 -28 0 -16 -5 -21 -22
-18 l-23 3 0 250 c0 281 4 492 13 608 4 68 8 80 26 87 12 5 24 9 29 9 4 1 7
-50 7 -111z m-1814 61 c10 -17 -24 -9 -47 11 l-24 20 33 -11 c17 -6 35 -15 38
-20z m-176 17 c0 -3 -4 -8 -10 -11 -5 -3 -10 -1 -10 4 0 6 5 11 10 11 6 0 10
-2 10 -4z m20 -31 c-6 -15 -13 -25 -16 -23 -2 3 1 17 7 32 16 34 23 27 9 -9z
m456 24 c3 -5 10 -7 15 -4 14 9 23 -25 11 -37 -8 -8 -15 -8 -26 1 -12 10 -17
8 -27 -11 l-12 -23 -10 23 c-11 23 -29 27 -103 23 -23 -1 -45 2 -49 8 -4 7 4
11 19 11 14 0 27 4 31 9 7 12 143 12 151 0z m777 -94 c17 -12 24 -45 9 -45 -5
0 -16 6 -25 13 -17 12 -23 47 -17 107 2 33 3 32 9 -14 4 -28 14 -54 24 -61z
m-1353 71 c0 -3 -4 -8 -10 -11 -5 -3 -10 -1 -10 4 0 6 5 11 10 11 6 0 10 -2
10 -4z m195 -6 c3 -5 1 -10 -4 -10 -6 0 -11 5 -11 10 0 6 2 10 4 10 3 0 8 -4
11 -10z m194 -22 c31 -17 57 -32 59 -33 2 -2 -3 -22 -10 -45 l-13 -42 -63 5
c-34 2 -68 9 -75 15 -7 6 -33 12 -57 15 -38 3 -35 4 18 5 82 3 73 22 -10 22
-34 0 -59 2 -56 5 2 3 37 6 76 6 85 1 98 19 15 20 l-58 1 45 14 c25 8 56 12
68 9 15 -4 21 -2 17 5 -3 5 -23 10 -43 11 -33 1 -34 2 -12 9 38 12 39 12 99
-22z m-366 -9 c-8 -16 -17 -28 -19 -26 -7 6 18 57 27 57 4 0 1 -14 -8 -31z
m1415 -14 c4 -50 -6 -107 -19 -100 -15 10 -12 148 4 143 6 -3 13 -22 15 -43z
m519 -92 c-2 -21 -4 -6 -4 32 0 39 2 55 4 38 2 -18 2 -50 0 -70z m-1847 72
c-7 -9 -15 -13 -17 -11 -7 7 7 26 19 26 6 0 6 -6 -2 -15z m-183 -17 c-3 -8 -6
-5 -6 6 -1 11 2 17 5 13 3 -3 4 -12 1 -19z m129 -14 c-7 -26 -7 -26 39 -20 54
9 58 0 10 -20 -42 -17 -78 -18 -122 -2 -26 9 -33 18 -33 38 1 22 2 23 11 8 5
-10 14 -18 19 -18 6 0 10 8 11 18 1 11 3 9 8 -7 10 -36 30 -37 44 -2 14 38 22
41 13 5z m1291 -42 c30 -23 21 -62 -13 -62 -21 0 -24 5 -24 40 0 44 5 47 37
22z m540 -84 c-2 -18 -4 -6 -4 27 0 33 2 48 4 33 2 -15 2 -42 0 -60z m-1467
54 c0 -4 -15 -13 -32 -21 -72 -29 -104 -45 -128 -61 -43 -29 -256 -31 -299 -3
-37 24 -147 21 -200 -6 -51 -26 -66 -26 -104 1 -18 13 -44 21 -64 21 -88 -3
13 34 118 42 66 6 99 3 154 -11 49 -13 106 -19 190 -19 104 0 128 3 180 24 33
13 64 28 70 33 11 10 115 11 115 0z m760 -12 c-27 -20 -69 -34 -78 -25 -3 3 1
5 9 5 8 0 25 9 39 20 14 11 32 20 40 20 10 0 6 -7 -10 -20z m231 -47 c-9 -16
-10 -16 -11 -1 0 9 3 25 7 35 7 16 8 17 11 1 2 -10 -1 -25 -7 -35z m-936 13
c26 -18 13 -42 -32 -61 -38 -16 -250 -91 -288 -102 -11 -3 -27 -12 -35 -19 -9
-7 -43 -16 -75 -19 -99 -10 -200 -51 -233 -93 -55 -70 -63 -99 -72 -239 -8
-137 -12 -153 -36 -153 -8 0 -14 -4 -14 -10 0 -5 -6 -10 -14 -10 -17 0 -26 90
-26 273 0 107 -3 138 -12 134 -10 -3 -12 -48 -9 -193 2 -155 1 -187 -10 -176
-21 20 -39 14 -39 -13 0 -29 -12 -32 -31 -8 -11 12 -15 70 -18 242 -5 303 -5
298 14 341 14 31 22 37 48 38 18 0 49 -6 69 -15 34 -14 41 -14 85 1 110 40
126 41 204 16 68 -22 78 -23 196 -13 91 8 128 15 142 27 22 20 128 65 152 66
8 0 24 -6 34 -14z m1456 -123 c-1 -70 -6 -132 -12 -138 -6 -6 -8 7 -5 40 2 28
4 92 5 144 1 52 4 92 7 88 4 -3 6 -64 5 -134z m-1066 116 c98 3 111 -9 18 -16
-49 -4 -140 -39 -130 -50 2 -2 26 4 53 12 27 8 60 14 74 14 16 -1 8 -5 -20
-11 -25 -5 -52 -16 -61 -24 -8 -8 -23 -14 -32 -14 -9 0 -18 -4 -21 -9 -3 -5
-14 -7 -24 -5 -10 3 -33 -9 -57 -29 -82 -70 -159 -117 -233 -141 -95 -31 -134
-33 -242 -11 -129 26 -143 27 -164 12 -16 -12 -12 -13 40 -13 33 0 96 -8 142
-17 117 -25 191 -14 339 49 38 17 46 17 37 3 -5 -9 10 -10 57 -3 138 19 182
11 294 -56 39 -23 39 -23 21 -2 -16 19 -58 42 -131 72 -19 8 -68 20 -90 22 -5
0 -28 -2 -50 -6 -37 -6 -36 -5 19 19 111 47 268 27 312 -40 14 -21 10 -55 -6
-55 -4 0 -15 9 -25 20 -25 27 -118 70 -152 70 -22 0 -25 -2 -13 -10 8 -5 25
-10 38 -10 44 0 132 -58 132 -87 0 -17 -25 -41 -79 -76 -38 -25 -45 -27 -59
-14 -25 21 -102 59 -102 49 0 -4 23 -21 50 -37 28 -16 50 -34 50 -40 0 -12
-113 -55 -145 -55 -23 0 -151 -63 -178 -88 -16 -14 -19 -14 -28 -2 -8 13 -10
13 -19 0 -11 -18 -12 -19 -14 -130 -3 -101 -13 -150 -31 -150 -14 0 -55 -63
-55 -84 0 -8 -7 -27 -15 -42 -23 -44 -20 -1 5 65 11 30 18 56 16 59 -2 2 10
33 26 70 32 70 52 202 30 202 -15 0 -23 -28 -27 -93 -5 -67 -36 -128 -114
-226 l-50 -62 -20 42 c-13 27 -21 63 -21 96 0 29 -4 53 -10 53 -18 0 -11 -133
10 -194 24 -71 7 -71 -30 -1 -16 32 -25 65 -25 95 1 85 15 295 21 324 4 18 2
31 -6 36 -10 6 -8 15 9 39 22 31 61 49 80 36 6 -3 11 0 11 8 0 8 -8 18 -17 22
-13 5 5 13 57 26 41 9 113 32 160 49 117 43 247 52 307 22 23 -12 50 -33 61
-47 16 -20 26 -24 47 -19 25 6 25 7 9 26 -10 10 -24 16 -31 14 -7 -3 -29 5
-49 19 -53 36 -99 48 -170 43 -35 -2 -65 0 -67 5 -4 13 -69 -9 -95 -31 -12
-10 -62 -26 -116 -36 -53 -10 -96 -23 -96 -28 0 -15 -86 -4 -206 27 -101 26
-200 33 -189 15 3 -5 31 -10 60 -10 30 0 98 -11 151 -25 53 -14 105 -25 115
-25 25 0 24 -3 -8 -38 -41 -44 -52 -58 -65 -87 -7 -16 -17 -24 -26 -20 -12 4
-13 -1 -8 -27 l6 -33 -24 30 c-13 17 -29 46 -35 66 -11 35 -46 77 -57 67 -3
-3 4 -21 15 -39 35 -56 24 -53 -35 10 -31 34 -61 61 -67 61 -6 0 5 -17 25 -37
42 -45 108 -142 108 -161 0 -7 7 -26 15 -41 15 -30 10 -47 -9 -32 -8 7 -11
-24 -10 -107 2 -175 3 -189 13 -173 8 12 11 8 16 -15 4 -16 11 -42 16 -57 7
-24 6 -28 -9 -25 -11 2 -18 14 -20 36 -2 23 -8 32 -22 32 -10 0 -20 -7 -24
-15 -9 -23 -29 -18 -73 20 -24 20 -49 56 -63 87 -12 29 -31 65 -41 80 -11 14
-19 38 -19 51 0 14 -4 28 -9 31 -13 8 -19 153 -10 263 5 71 11 100 23 109 9 6
14 18 11 27 -4 9 4 22 22 35 61 43 121 63 223 77 58 8 123 19 145 26 54 15
177 7 210 -15 15 -10 29 -15 32 -12 11 11 -10 24 -67 42 -52 17 -80 38 -66 51
2 2 47 19 100 38 66 23 107 32 127 28 18 -3 29 -1 29 6 0 6 -7 11 -15 11 -14
0 -13 4 2 25 18 24 20 25 118 18 55 -3 141 -5 190 -4z m325 7 c0 -2 -7 -7 -16
-10 -8 -3 -12 -2 -9 4 6 10 25 14 25 6z m-177 -13 c-7 -2 -21 -2 -30 0 -10 3
-4 5 12 5 17 0 24 -2 18 -5z m345 -20 c-2 -21 -10 -29 -33 -33 -30 -6 -30 -6
-27 27 4 29 8 33 34 33 26 0 29 -3 26 -27z m-255 -9 c-5 -13 0 -14 30 -9 l36
7 -20 -41 c-18 -37 -39 -55 -39 -32 0 12 -43 22 -53 12 -4 -4 7 -14 25 -21 43
-18 43 -17 28 -35 -11 -13 -17 -11 -47 15 -18 17 -39 31 -46 31 -7 1 -22 3
-34 4 -12 1 -20 -2 -17 -6 3 -5 14 -9 25 -9 11 0 22 -7 25 -15 4 -8 12 -15 18
-15 7 0 23 -11 35 -24 22 -23 22 -25 6 -50 -10 -14 -19 -26 -22 -26 -3 0 -23
15 -46 34 -83 66 -186 75 -313 26 -43 -16 -79 -28 -81 -27 -5 6 86 77 99 77 8
0 22 6 33 14 74 50 238 77 320 52 29 -9 53 -12 59 -6 5 5 -16 14 -53 21 -85
18 -80 28 21 37 12 1 15 -3 11 -14z m299 -39 c-6 -34 -12 -32 -12 6 0 16 4 28
9 25 4 -3 6 -17 3 -31z m-62 -32 c0 -28 -15 -44 -33 -37 -22 8 -22 23 1 40 23
18 32 17 32 -3z m550 -95 c0 -68 -3 -99 -10 -92 -9 9 -3 194 6 194 2 0 4 -46
4 -102z m97 35 c-3 -10 -5 -2 -5 17 0 19 2 27 5 18 2 -10 2 -26 0 -35z m-1689
19 c4 -14 -34 -16 -42 -3 -6 10 13 21 28 17 6 -1 12 -8 14 -14z m945 -2 c-3
-11 -9 -17 -14 -15 -10 7 -1 35 11 35 5 0 6 -9 3 -20z m57 -29 c0 -10 -7 -34
-15 -52 -16 -38 -19 -21 -9 43 7 37 24 43 24 9z m72 -3 c-9 -9 -12 -7 -12 12
0 19 3 21 12 12 9 -9 9 -15 0 -24z m585 -25 c-3 -10 -5 -4 -5 12 0 17 2 24 5
18 2 -7 2 -21 0 -30z m-717 -3 c0 -11 -4 -20 -10 -20 -5 0 -10 9 -10 20 0 11
5 20 10 20 6 0 10 -9 10 -20z m489 -7 c31 -9 58 -18 59 -19 7 -5 -72 -120
-125 -184 -118 -141 -252 -236 -408 -290 -51 -18 -85 -18 -85 -1 0 4 25 44 55
90 30 46 64 100 76 120 12 23 44 53 78 74 61 40 130 105 189 179 43 55 68 59
161 31z m-359 -13 c0 -13 -7 -20 -20 -20 -19 0 -27 20 -13 33 13 14 33 6 33
-13z m477 -67 c-2 -16 -4 -3 -4 27 0 30 2 43 4 28 2 -16 2 -40 0 -55z m-617
23 c0 -24 -16 -43 -27 -32 -8 8 6 56 17 56 6 0 10 -11 10 -24z m128 -11 c7 -6
-23 -55 -32 -52 -17 6 -29 34 -23 51 5 13 13 15 29 10 13 -3 24 -8 26 -9z
m-138 -49 c0 -20 -16 -36 -36 -36 -26 0 -30 10 -12 28 11 11 48 17 48 8z m90
-21 c11 -13 9 -24 -10 -62 -20 -40 -24 -44 -31 -27 -11 27 -11 49 1 78 11 30
22 33 40 11z m-136 -41 c9 -3 16 -12 16 -19 0 -18 -57 -24 -78 -9 -16 12 -15
13 8 23 31 12 35 12 54 5z m543 -26 c-3 -8 -6 -5 -6 6 -1 11 2 17 5 13 3 -3 4
-12 1 -19z m23 -45 c-11 -17 -11 -17 -6 0 3 10 6 24 7 30 0 9 2 9 5 0 3 -7 0
-20 -6 -30z m-642 3 c7 -33 -14 -40 -47 -16 -37 26 -31 42 12 38 22 -2 33 -9
35 -22z m162 -1 c11 -13 11 -20 0 -40 -15 -29 -20 -30 -45 -11 -18 13 -18 15
-2 40 20 30 29 32 47 11z m-90 -4 c0 -5 -9 -19 -20 -32 -15 -19 -19 -21 -20
-7 0 27 11 48 26 48 8 0 14 -4 14 -9z m-124 -34 l27 -24 -33 -16 c-41 -21 -70
-21 -117 -2 -19 8 -48 15 -64 15 -67 0 -2 32 86 43 64 8 75 6 101 -16z m601
-59 c-2 -13 -4 -5 -4 17 -1 22 1 32 4 23 2 -10 2 -28 0 -40z m-447 22 c0 -5
-9 -10 -21 -10 -11 0 -17 5 -14 10 3 6 13 10 21 10 8 0 14 -4 14 -10z m-335
-40 c26 -22 128 -48 166 -43 50 7 50 -7 1 -35 -35 -19 -45 -20 -103 -11 -35 5
-72 12 -82 15 -21 7 -79 93 -71 105 5 9 67 -13 89 -31z m-1479 -13 c13 -36 12
-38 -7 -32 -11 4 -26 1 -34 -5 -19 -16 -35 -4 -35 25 0 41 11 56 38 53 19 -2
28 -12 38 -41z m1374 3 c0 -5 12 -23 26 -40 15 -17 24 -34 20 -37 -11 -12 -60
32 -81 74 l-22 40 29 -14 c15 -8 28 -18 28 -23z m156 26 c10 -8 16 -17 13 -21
-8 -7 -59 15 -59 27 0 13 24 10 46 -6z m170 -12 c-11 -8 -29 -14 -40 -14 -16
1 -13 5 14 20 39 20 56 17 26 -6z m-404 -1 c30 -27 21 -31 -37 -14 -30 9 -55
19 -55 24 0 14 74 7 92 -10z m528 1 c0 -14 -44 -83 -56 -88 -18 -7 -54 5 -53
18 2 29 18 50 50 61 40 15 59 17 59 9z m362 -56 c-6 -6 -9 2 -7 24 4 45 7 49
12 14 3 -16 0 -33 -5 -38z m-569 42 c8 0 7 -4 -1 -12 -9 -9 -16 -8 -30 6 -16
18 -16 19 1 12 10 -3 24 -6 30 -6z m-919 -40 l7 -25 -15 25 c-17 28 -21 50 -7
35 5 -6 12 -21 15 -35z m1750 19 c6 -5 15 -4 23 3 21 17 27 2 9 -23 -9 -13
-13 -33 -10 -48 5 -25 5 -25 -10 -7 -11 14 -13 23 -5 32 12 15 4 34 -15 34 -7
0 -21 7 -32 16 -18 14 -18 15 6 8 14 -3 29 -10 34 -15z m143 -1 c-3 -8 -6 -5
-6 6 -1 11 2 17 5 13 3 -3 4 -12 1 -19z m-440 -35 c-3 -10 -5 -2 -5 17 0 19 2
27 5 18 2 -10 2 -26 0 -35z m-853 12 c25 -9 59 -28 75 -43 l30 -27 -74 -3
c-63 -2 -81 2 -121 23 -26 14 -58 25 -71 25 -34 0 -24 23 13 31 52 12 102 9
148 -6z m-555 -157 c-2 -139 0 -157 19 -192 12 -22 25 -42 30 -45 5 -3 12 -18
16 -33 12 -50 -20 -32 -54 30 -25 44 -33 73 -37 127 -6 94 -12 108 -29 70
l-13 -30 -1 37 c0 20 4 39 9 42 4 3 18 37 30 76 12 38 24 70 27 70 2 0 4 -69
3 -152z m1381 136 c0 -8 -5 -12 -10 -9 -6 4 -8 11 -5 16 9 14 15 11 15 -7z
m590 -29 l0 -45 -40 0 c-32 0 -40 4 -40 18 0 13 8 17 33 17 28 0 32 4 35 28 5
42 12 32 12 -18z m-404 6 c-4 -6 -15 -11 -25 -11 -10 0 -24 -7 -31 -15 -7 -8
-16 -12 -21 -9 -5 3 -9 -2 -9 -10 0 -11 -9 -16 -28 -16 -15 0 -33 -5 -40 -12
-9 -9 -12 -8 -12 4 0 25 67 78 98 78 15 0 34 5 42 10 17 11 36 -3 26 -19z
m284 15 c0 -8 -4 -18 -10 -21 -5 -3 -10 3 -10 14 0 12 5 21 10 21 6 0 10 -6
10 -14z m-860 -25 c-1 -7 -72 -63 -75 -59 -1 2 -5 15 -8 29 -5 21 -2 28 15 36
22 10 68 6 68 -6z m-557 -12 c33 0 187 -89 187 -109 0 -17 -39 -21 -67 -6 -15
8 -43 30 -62 50 -25 26 -46 37 -78 42 -29 4 -43 11 -43 21 0 11 6 13 23 8 12
-4 30 -7 40 -6z m365 -15 c7 -2 12 -20 12 -43 0 -31 -4 -40 -22 -44 -28 -8
-77 18 -87 46 -25 67 -26 65 31 54 29 -5 59 -11 66 -13z m474 -6 c-9 -9 -12
-7 -12 12 0 19 3 21 12 12 9 -9 9 -15 0 -24z m-398 6 c9 -8 16 -21 16 -28 0
-13 -46 -43 -54 -35 -4 4 -9 57 -7 72 2 13 29 8 45 -9z m362 -32 c-12 -11 -18
7 -10 30 l8 23 4 -23 c2 -13 1 -26 -2 -30z m369 0 c-6 -16 -7 -16 -17 1 -5 10
-7 26 -3 35 6 16 7 16 17 -1 5 -10 7 -26 3 -35z m101 16 c-4 -18 -11 -60 -16
-92 -6 -41 -16 -66 -32 -82 -22 -21 -24 -21 -40 -5 -17 16 -16 19 12 50 17 18
30 43 30 56 0 13 4 26 9 29 5 3 12 22 15 41 4 19 12 35 18 35 7 0 8 -12 4 -32z
m-2258 9 c17 0 32 -4 32 -9 0 -4 15 -9 33 -9 l32 -2 -29 -4 c-36 -6 -146 18
-146 30 0 5 10 6 23 2 12 -4 37 -8 55 -8z m1226 -18 c10 -11 16 -69 8 -69 -15
0 -111 64 -111 74 -1 8 95 4 103 -5z m523 -11 c-3 -8 -6 -5 -6 6 -1 11 2 17 5
13 3 -3 4 -12 1 -19z m-763 -2 c18 -7 41 -25 52 -38 10 -13 31 -32 46 -42 27
-17 27 -19 11 -44 -9 -15 -17 -28 -18 -29 0 -1 -10 0 -21 3 -11 3 -31 23 -44
44 -13 22 -39 47 -57 57 -35 18 -37 22 -27 47 8 20 15 20 58 2z m606 -30 c0
-14 -3 -16 -13 -7 -8 6 -17 8 -20 5 -3 -4 -13 -4 -22 0 -12 4 -13 9 -4 24 10
16 16 17 35 8 13 -6 24 -19 24 -30z m-1770 24 c12 -8 11 -10 -7 -10 -12 0 -25
5 -28 10 -8 13 15 13 35 0z m2678 -7 c-10 -2 -28 -2 -40 0 -13 2 -5 4 17 4 22
1 32 -1 23 -4z m-2747 -20 c40 -12 96 -16 220 -17 131 -1 166 -3 162 -14 -4
-9 -19 -11 -52 -6 -30 4 -76 0 -125 -11 -84 -19 -119 -16 -191 16 -33 14 -68
20 -120 21 -41 0 -75 4 -75 8 0 23 110 25 181 3z m202 10 c-13 -2 -33 -2 -45
0 -13 2 -3 4 22 4 25 0 35 -2 23 -4z m1512 -13 c-10 -11 -25 -20 -34 -20 -12
1 -10 5 8 20 30 26 49 26 26 0z m-517 -36 c12 -8 29 -28 37 -45 15 -29 15 -29
-14 -29 -52 0 -80 16 -74 42 12 55 15 57 51 32z m1111 -14 c-13 -16 -24 -28
-26 -27 -7 8 23 57 35 57 8 0 5 -10 -9 -30z m-2319 0 c55 -28 140 -34 229 -17
41 8 86 11 100 8 42 -12 -140 -44 -203 -36 -72 9 -149 26 -163 37 -15 12 -99
6 -93 -7 3 -5 14 -9 25 -7 11 2 45 -5 75 -15 60 -19 56 -20 -62 -25 l-78 -3 0
42 0 43 65 0 c46 0 78 -6 105 -20z m1671 0 c20 -16 21 -19 7 -20 -25 0 -68 22
-62 31 9 15 30 10 55 -11z m1102 7 c4 3 7 1 7 -5 0 -7 -8 -12 -17 -12 -10 0
-28 -3 -40 -6 -17 -5 -23 -2 -23 9 0 17 39 28 56 15 6 -4 14 -5 17 -1z m-2286
-90 c15 -24 22 -45 18 -55 -6 -13 -11 -10 -24 18 -9 19 -22 41 -28 48 -7 7
-13 30 -12 50 l1 37 10 -30 c6 -16 22 -47 35 -68z m1086 69 c31 -13 60 -26 64
-30 3 -3 15 -6 26 -6 16 0 17 -3 7 -15 -21 -25 -67 -17 -119 20 -35 25 -59 35
-87 35 -29 0 -35 3 -24 10 25 16 72 11 133 -14z m324 -18 c-3 -7 -5 -2 -5 12
0 14 2 19 5 13 2 -7 2 -19 0 -25z m-112 12 c3 -6 -1 -7 -9 -4 -18 7 -21 14 -7
14 6 0 13 -4 16 -10z m333 -7 c-2 -12 -14 -19 -36 -20 -18 -1 -39 -7 -47 -13
-12 -10 -15 -9 -15 3 0 22 39 47 73 47 22 0 28 -4 25 -17z m63 -10 c12 -14 12
-16 -1 -9 -8 4 -3 -2 13 -14 29 -24 39 -74 12 -64 -11 5 -15 -1 -15 -20 0 -14
5 -26 10 -26 6 0 15 -12 20 -26 9 -22 14 -25 37 -19 22 5 25 4 15 -8 -7 -8 -9
-23 -5 -32 5 -15 2 -17 -15 -13 -15 4 -19 2 -15 -8 7 -20 -21 -17 -38 4 -22
27 -39 60 -39 77 0 8 -5 15 -11 15 -12 0 -7 129 6 150 8 13 10 13 26 -7z
m-746 -13 c0 -9 -11 -16 -27 -18 -30 -4 -31 -2 -22 23 8 20 49 16 49 -5z m945
16 c0 -18 -15 -36 -31 -36 -18 0 -26 20 -12 33 7 8 43 10 43 3z m-837 -34 c22
-20 11 -27 -55 -36 -42 -6 -48 -5 -48 10 0 10 8 26 17 36 19 22 56 17 86 -10z
m1237 18 c0 -5 -18 -10 -41 -10 -24 0 -38 4 -34 10 3 6 22 10 41 10 19 0 34
-4 34 -10z m-1754 -27 c-9 -25 -64 -88 -72 -81 -3 4 11 29 32 57 38 50 51 59
40 24z m-688 5 c26 -8 32 -15 32 -38 0 -63 -114 -97 -286 -84 -75 5 -104 3
-167 -15 -43 -12 -79 -21 -81 -21 -1 0 -3 13 -4 29 -1 42 21 46 248 46 210 0
255 9 255 50 0 19 -6 20 -95 17 -56 -1 -116 3 -145 11 -49 13 -47 13 80 14 72
1 145 -3 163 -9z m771 -35 c-1 -21 -4 -49 -9 -63 l-7 -25 -10 25 c-6 14 -9 30
-8 35 2 6 6 22 9 38 9 40 26 33 25 -10z m79 7 c28 -35 21 -54 -17 -45 -36 9
-43 18 -35 49 8 33 23 32 52 -4z m719 -7 c-3 -10 -5 -4 -5 12 0 17 2 24 5 18
2 -7 2 -21 0 -30z m173 9 c-13 -2 -29 -22 -47 -58 -14 -30 -30 -54 -35 -54
-17 0 -7 46 12 58 11 7 20 20 20 29 0 9 7 24 16 34 13 15 20 16 35 6 19 -12
19 -12 -1 -15z m-1999 2 c37 -13 72 -15 135 -11 46 2 84 3 84 0 0 -2 -16 -11
-36 -19 -29 -12 -72 -15 -208 -12 -94 2 -183 0 -198 -5 -25 -7 -28 -5 -28 17
0 14 8 30 18 35 28 17 177 13 233 -5z m1778 -161 c0 -98 -3 -194 -6 -213 l-7
-35 -7 50 c-8 65 1 375 12 375 4 0 8 -80 8 -177z m918 162 c2 -7 -12 -9 -37
-7 -22 2 -37 8 -34 14 8 12 66 6 71 -7z m-1457 -9 c-1 -34 -17 -38 -64 -17
-25 12 -46 24 -46 27 0 2 25 4 55 3 32 -1 55 -7 55 -13z m90 -6 c0 -9 -53 -21
-60 -13 -3 2 3 11 13 18 19 13 47 10 47 -5z m592 -2 c-7 -7 -12 -8 -12 -2 0 6
3 14 7 17 3 4 9 5 12 2 2 -3 -1 -11 -7 -17z m-1339 -76 c21 -9 27 -9 27 1 1
12 29 -31 30 -45 0 -4 -28 -5 -62 -3 -54 3 -66 8 -90 34 -16 17 -26 31 -23 31
3 0 3 5 -1 12 -4 7 -8 22 -9 34 0 20 3 19 50 -16 27 -20 62 -42 78 -48z m985
48 c-2 -26 -6 -30 -30 -30 -31 0 -112 30 -103 38 6 6 75 19 113 21 19 1 22 -4
20 -29z m630 8 c-5 -15 -23 -11 -26 6 -2 11 2 14 13 10 9 -4 14 -11 13 -16z
m-1472 -96 c-6 -5 -36 77 -36 96 1 9 9 -8 20 -38 10 -30 17 -56 16 -58z m1286
81 c-8 -3 -23 -26 -34 -52 -20 -47 -45 -81 -60 -81 -18 0 -6 33 21 56 16 13
32 36 36 51 10 40 25 57 39 42 8 -8 7 -13 -2 -16z m228 23 c0 -2 -7 -7 -16
-10 -8 -3 -12 -2 -9 4 6 10 25 14 25 6z m-1840 -62 c12 -25 19 -48 16 -52 -9
-8 -26 18 -26 39 0 9 -7 22 -15 29 -17 14 -20 30 -6 30 5 0 19 -20 31 -46z
m1023 25 c37 -19 40 -23 22 -30 -11 -4 -35 -8 -52 -8 -30 -1 -33 2 -33 29 0
36 8 37 63 9z m227 11 c0 -5 -4 -10 -10 -10 -5 0 -10 5 -10 10 0 6 5 10 10 10
6 0 10 -4 10 -10z m650 -10 c0 -5 -7 -7 -15 -4 -8 4 -12 10 -9 15 6 11 24 2
24 -11z m-1068 -24 c12 -19 -9 -28 -33 -15 -24 12 -39 28 -39 41 0 10 64 -13
72 -26z m105 19 c7 -23 -15 -37 -46 -30 -31 7 -42 29 -18 39 19 8 60 2 64 -9z
m489 -83 c-13 -13 -17 9 -9 55 l8 48 3 -49 c2 -26 1 -51 -2 -54z m633 79 c13
-10 22 -25 20 -34 -3 -14 -9 -13 -37 9 -18 14 -30 30 -27 35 9 13 17 11 44
-10z m-1388 -53 c-3 -39 -6 -48 -12 -33 -12 32 -10 85 4 85 8 0 11 -15 8 -52z
m49 31 c0 -16 4 -19 20 -14 11 3 20 2 20 -4 0 -5 25 -15 54 -22 57 -12 75 -31
55 -56 -10 -12 -16 -10 -39 12 -25 24 -32 25 -79 19 l-51 -7 0 47 c0 25 5 46
10 46 6 0 10 -9 10 -21z m-222 -11 c-17 -25 -64 -36 -81 -19 -8 8 -3 11 16 11
19 0 25 4 21 15 -5 11 2 15 26 15 31 0 32 -1 18 -22z m1142 12 c0 -5 -2 -10
-4 -10 -3 0 -8 5 -11 10 -3 6 -1 10 4 10 6 0 11 -4 11 -10z m-1760 -8 c0 -18
-105 -35 -260 -42 -159 -8 -203 -15 -249 -39 -17 -9 -21 -9 -21 2 0 14 52 40
105 53 17 3 100 8 185 10 85 1 169 7 185 12 38 13 55 14 55 4z m226 -42 c6 0
25 -11 44 -25 19 -14 43 -25 53 -25 11 0 28 -10 38 -21 12 -14 26 -20 39 -16
18 5 20 0 20 -48 l0 -53 -27 9 c-16 4 -41 11 -57 14 -16 3 -56 32 -89 63 -41
39 -61 53 -65 43 -9 -27 -28 27 -24 70 l4 41 27 -26 c15 -14 32 -26 37 -26z
m1144 29 c0 -5 -4 -9 -10 -9 -5 0 -10 7 -10 16 0 8 5 12 10 9 6 -3 10 -10 10
-16z m778 -14 c27 -30 32 -43 32 -86 0 -31 -4 -48 -10 -44 -5 3 -10 21 -10 38
0 36 -24 88 -46 100 -15 8 -19 27 -6 27 4 0 22 -16 40 -35z m-1515 -52 l-19
-36 -84 2 c-84 2 -108 10 -96 29 4 7 16 6 34 -4 42 -22 122 -17 122 8 0 6 -11
7 -25 4 -14 -4 -25 -2 -25 3 0 6 16 13 36 17 22 4 41 16 52 32 17 26 17 26 20
4 2 -13 -5 -39 -15 -59z m1787 67 c0 -5 -4 -10 -10 -10 -5 0 -10 5 -10 10 0 6
5 10 10 10 6 0 10 -4 10 -10z m-2337 -15 c4 -8 2 -17 -3 -20 -6 -4 -10 -4 -10
-1 0 2 -3 11 -6 20 -3 9 -2 16 4 16 5 0 12 -7 15 -15z m1160 -5 c10 -9 -96
-22 -117 -14 -29 11 -17 23 27 27 45 4 77 -1 90 -13z m74 -57 c-2 -16 -4 -3
-4 27 0 30 2 43 4 28 2 -16 2 -40 0 -55z m123 67 c0 -5 -4 -10 -10 -10 -5 0
-10 5 -10 10 0 6 5 10 10 10 6 0 10 -4 10 -10z m329 -33 c0 -27 -2 -29 -9 -12
-12 28 -12 57 0 50 6 -3 10 -21 9 -38z m-734 3 c-6 -9 -9 -9 -16 1 -10 17 0
34 13 21 6 -6 7 -16 3 -22z m-1060 0 c-3 -5 -25 -9 -48 -9 l-42 2 35 7 c52 11
62 11 55 0z m65 3 c0 -5 -5 -15 -10 -23 -8 -12 -10 -11 -10 8 0 12 5 22 10 22
6 0 10 -3 10 -7z m1984 -17 c-3 -9 -13 -16 -22 -16 -13 0 -12 3 3 20 20 23 29
21 19 -4z m-1659 2 c14 -6 25 -15 25 -20 0 -11 -17 -10 -25 2 -3 6 -19 10 -36
10 -16 0 -29 5 -29 10 0 13 33 13 65 -2z m1755 -37 c0 -21 -16 -2 -24 29 -7
24 -6 24 8 6 9 -11 16 -27 16 -35z m-2414 14 c-1 -20 -6 -25 -26 -25 -22 1
-23 2 -7 11 9 5 17 14 17 19 0 15 -32 11 -69 -9 -32 -17 -33 -19 -15 -28 31
-16 95 -22 147 -14 37 6 50 5 54 -5 3 -8 21 -15 42 -16 20 0 -11 -4 -69 -9
-174 -12 -280 4 -280 42 0 23 98 55 176 58 28 1 32 -2 30 -24z m94 6 c0 -19
-26 -31 -65 -30 -17 0 -17 2 5 11 l25 11 -23 4 c-33 6 -16 23 24 23 27 0 34
-4 34 -19z m900 -22 c0 -9 9 -24 19 -33 12 -11 22 -38 26 -69 4 -29 12 -63 17
-76 5 -15 5 -28 -1 -34 -7 -7 -13 -4 -17 9 -4 10 -15 28 -24 39 -18 22 -60
120 -60 141 0 7 5 25 11 41 8 22 12 24 19 13 6 -8 10 -22 10 -31z m377 -65
c-2 -2 -18 -7 -35 -10 -34 -7 -46 10 -13 19 12 3 21 18 26 43 11 61 20 63 23
5 2 -29 1 -55 -1 -57z m296 87 c3 -12 -1 -22 -9 -25 -10 -4 -14 2 -14 19 0 30
16 33 23 6z m174 -3 c-3 -8 -6 -5 -6 6 -1 11 2 17 5 13 3 -3 4 -12 1 -19z
m183 13 c0 -6 -4 -13 -10 -16 -5 -3 -10 1 -10 9 0 9 5 16 10 16 6 0 10 -4 10
-9z m-788 -28 c18 -17 28 -37 28 -56 0 -27 -2 -29 -27 -23 -16 4 -39 20 -53
37 -14 16 -30 29 -37 29 -6 0 -15 5 -19 11 -5 8 4 10 30 7 25 -3 36 0 36 9 0
19 11 16 42 -14z m222 5 c-39 -47 -54 -49 -54 -8 0 28 3 30 37 30 l36 0 -19
-22z m114 3 c3 -8 -1 -12 -9 -9 -7 2 -15 10 -17 17 -3 8 1 12 9 9 7 -2 15 -10
17 -17z m-1298 0 c0 -19 -22 -22 -88 -14 l-67 8 70 6 c39 3 73 6 78 7 4 1 7
-2 7 -7z m102 -84 c-8 -19 -10 -16 -17 25 -9 60 6 88 18 35 6 -24 6 -47 -1
-60z m50 25 c0 -27 -3 -59 -7 -70 -4 -16 -2 -22 8 -22 9 0 17 6 20 13 2 6 7 9
11 6 12 -11 -6 -39 -24 -39 -10 0 -30 -16 -45 -36 -21 -27 -30 -33 -36 -23 -5
9 -4 16 4 18 39 13 68 126 51 198 -5 22 -4 26 6 16 7 -6 12 -34 12 -61z m1445
46 c-3 -8 -6 -5 -6 6 -1 11 2 17 5 13 3 -3 4 -12 1 -19z m-343 2 c38 -14 32
-30 -11 -30 -21 0 -47 -7 -57 -15 -37 -28 -40 -15 -6 20 38 39 38 39 74 25z
m-449 -65 c5 -28 4 -37 -3 -30 -6 6 -14 30 -17 55 -8 56 10 34 20 -25z m872
48 c-9 -9 -20 -13 -24 -9 -4 4 -1 11 7 16 25 16 35 11 17 -7z m753 2 c-7 -9
-15 -13 -17 -11 -7 7 7 26 19 26 6 0 6 -6 -2 -15z m-440 1 c0 -1 -7 -17 -16
-35 -10 -20 -14 -44 -10 -62 3 -16 1 -29 -4 -29 -6 0 -10 22 -10 49 0 27 -2
55 -5 63 -4 9 3 14 20 16 14 1 25 0 25 -2z m-1739 -43 c49 -46 77 -62 106 -63
12 0 26 -6 30 -14 4 -8 19 -16 32 -18 18 -2 25 -10 27 -31 2 -25 0 -27 -19
-21 -12 3 -27 11 -34 16 -7 6 -35 6 -70 2 l-58 -8 67 -6 c101 -10 108 -26 16
-39 -64 -9 -142 -46 -213 -101 -46 -36 -58 -40 -108 -40 -32 0 -57 4 -57 9 0
4 20 16 45 25 25 10 45 22 45 28 0 6 26 34 57 64 52 48 63 54 101 54 26 0 41
4 37 10 -3 6 -20 10 -37 10 -25 0 -28 2 -19 14 18 22 20 105 3 115 -13 7 -10
31 4 31 3 0 23 -17 45 -37z m409 27 c0 -5 -4 -10 -10 -10 -5 0 -10 5 -10 10 0
6 5 10 10 10 6 0 10 -4 10 -10z m-707 -7 c-7 -2 -19 -2 -25 0 -7 3 -2 5 12 5
14 0 19 -2 13 -5z m676 -12 c29 -21 78 -101 62 -101 -5 0 -12 8 -15 18 -4 10
-38 33 -76 52 -39 19 -70 37 -70 42 0 16 72 8 99 -11z m269 -10 c9 -16 30 -34
47 -39 l30 -10 -35 -1 c-40 -1 -53 6 -69 36 -25 48 -1 61 27 14z m522 9 c0
-10 -50 -23 -59 -15 -9 10 29 34 45 28 8 -3 14 -9 14 -13z m197 -12 c-3 -8 -6
-5 -6 6 -1 11 2 17 5 13 3 -3 4 -12 1 -19z m177 -9 c-8 -13 -24 -1 -24 18 0
13 3 13 15 3 8 -7 12 -16 9 -21z m-484 2 c0 -11 3 -27 7 -36 5 -14 3 -16 -13
-7 -10 5 -45 13 -76 17 -32 4 -58 11 -58 15 0 14 46 29 93 29 40 1 47 -2 47
-18z m-1796 2 c15 -15 167 -29 234 -21 69 8 202 0 202 -11 0 -4 -25 -6 -55 -6
-30 0 -54 -4 -54 -10 0 -5 11 -9 25 -8 77 6 -41 -48 -148 -67 -71 -13 -98 -25
-98 -44 0 -24 -34 -44 -80 -48 -40 -3 -45 -1 -48 20 -3 17 1 22 19 22 13 0 40
12 61 26 31 22 55 28 125 35 73 6 91 11 106 30 29 35 9 43 -90 33 -144 -15
-223 -1 -223 37 0 20 11 25 24 12z m2053 -50 c-4 -17 -4 -17 -12 0 -4 9 -4 25
0 35 8 16 8 16 12 0 3 -10 3 -26 0 -35z m-1547 8 c0 -17 -4 -33 -10 -36 -6 -4
-10 8 -10 29 0 20 5 36 10 36 6 0 10 -13 10 -29z m1103 -1 c4 -16 0 -20 -18
-20 -12 0 -37 -3 -55 -7 -45 -8 -36 18 11 34 48 17 56 16 62 -7z m297 11 c0
-9 -52 -22 -60 -15 -7 7 23 24 43 24 9 0 17 -4 17 -9z m177 -13 c-3 -8 -6 -5
-6 6 -1 11 2 17 5 13 3 -3 4 -12 1 -19z m118 12 c-3 -5 -19 -10 -36 -10 -16 0
-29 5 -29 10 0 6 16 10 36 10 21 0 33 -4 29 -10z m-857 -12 c7 -7 12 -19 12
-27 0 -11 -4 -10 -20 4 -21 19 -26 35 -12 35 4 0 13 -5 20 -12z m-758 -21 c0
-12 -9 -28 -20 -35 -17 -10 -20 -10 -20 4 0 21 18 54 30 54 6 0 10 -10 10 -23z
m520 3 c63 -32 61 -43 -6 -35 -65 8 -80 16 -71 39 8 21 30 20 77 -4z m645 0
l50 -18 -55 -1 c-30 -1 -65 -4 -77 -7 -20 -5 -23 -2 -23 20 0 22 4 26 28 25
15 0 50 -9 77 -19z m-295 -10 c0 -5 -15 -10 -32 -9 -31 1 -32 1 -8 9 35 11 40
11 40 0z m-1375 -11 c13 0 9 -4 -12 -10 -18 -5 -35 -18 -38 -29 -4 -11 -15
-20 -26 -20 -17 0 -18 3 -9 21 9 15 8 24 -2 36 -12 15 -9 16 27 10 22 -4 49
-7 60 -8z m1825 -21 c0 -6 -6 -8 -14 -5 -7 3 -19 0 -25 -6 -8 -8 -11 -7 -11 4
0 24 21 40 37 28 7 -7 13 -16 13 -21z m-1480 15 c-1 -18 -28 -44 -35 -33 -4 6
-1 17 5 25 13 16 30 20 30 8z m1190 -6 c0 -16 -89 -37 -97 -24 -9 15 20 32 61
34 22 1 36 -3 36 -10z m437 -39 c-2 -13 -4 -5 -4 17 -1 22 1 32 4 23 2 -10 2
-28 0 -40z m223 32 c0 -5 -5 -10 -11 -10 -5 0 -7 5 -4 10 3 6 8 10 11 10 2 0
4 -4 4 -10z m-1900 -4 c0 -16 -14 -36 -26 -36 -8 0 -22 -4 -32 -9 -9 -6 -44
-17 -77 -27 -33 -9 -70 -27 -82 -40 -12 -13 -42 -28 -67 -35 -79 -20 -85 -61
-10 -75 44 -8 50 -19 29 -51 -17 -25 -17 -27 1 -40 10 -7 33 -13 51 -13 40 0
43 -15 6 -25 -75 -18 -105 -68 -73 -119 34 -57 84 -71 240 -70 103 0 144 4
168 16 51 26 109 32 119 13 5 -8 27 -18 49 -22 24 -4 49 -17 66 -35 65 -69
191 -98 436 -98 80 0 159 -4 176 -9 122 -35 206 -65 206 -74 0 -10 -42 -7
-245 17 -71 9 -186 16 -254 16 -79 0 -145 6 -185 16 -72 18 -180 68 -218 100
-38 31 -110 44 -178 33 -30 -5 -105 -12 -167 -15 -142 -8 -202 9 -242 70 -37
57 -36 119 3 153 21 18 26 27 17 36 -17 17 -91 -64 -91 -100 0 -78 42 -135
125 -172 50 -22 208 -26 306 -7 132 25 118 28 246 -50 73 -44 142 -70 238 -90
l60 -12 -84 -1 c-93 -1 -177 23 -280 81 -53 30 -61 32 -151 29 -274 -7 -283
-6 -353 18 -51 17 -74 31 -95 59 -25 32 -27 44 -30 138 l-4 103 41 7 c77 12
80 58 5 79 -38 10 -39 12 -42 58 l-3 47 54 0 c57 0 90 20 107 65 7 18 18 24
57 28 60 6 135 25 148 38 9 9 35 13 35 5z m755 -20 c59 -9 83 -30 50 -42 -14
-6 -91 16 -142 39 -12 5 -29 7 -37 4 -9 -4 -16 -1 -16 6 0 12 38 10 145 -7z
m245 20 c0 -3 -4 -8 -10 -11 -5 -3 -10 -1 -10 4 0 6 5 11 10 11 6 0 10 -2 10
-4z m440 0 c0 -2 3 -11 6 -20 5 -14 -5 -16 -69 -16 -73 0 -95 8 -82 30 6 9
145 15 145 6z m-1306 -25 c-5 -4 -24 -13 -41 -19 -26 -9 -33 -8 -33 2 0 18 22
26 49 19 13 -3 21 -1 21 8 0 7 3 9 7 6 4 -4 2 -11 -3 -16z m944 3 c19 -13 31
-44 17 -44 -17 0 -54 26 -58 41 -6 23 11 24 41 3z m492 -26 c0 -6 -7 -5 -15 2
-8 7 -15 17 -15 22 0 6 7 5 15 -2 8 -7 15 -17 15 -22z m-560 -9 c0 -17 -4 -28
-10 -24 -5 3 -10 17 -10 31 0 13 5 24 10 24 6 0 10 -14 10 -31z m697 9 c-3 -8
-6 -5 -6 6 -1 11 2 17 5 13 3 -3 4 -12 1 -19z m533 2 c-6 -11 -15 -18 -21 -14
-6 4 -6 11 2 20 17 21 31 17 19 -6z m-2080 -5 c-7 -8 -22 -15 -34 -15 -20 1
-20 2 4 15 33 19 46 19 30 0z m1030 -5 c-30 -23 -50 -26 -50 -6 0 13 20 21 60
24 9 1 5 -6 -10 -18z m-540 0 c0 -13 -20 -13 -40 0 -12 8 -9 10 13 10 15 0 27
-4 27 -10z m620 -8 c0 -4 -13 -16 -30 -25 -16 -10 -30 -24 -30 -32 0 -9 -6
-12 -15 -9 -8 4 -15 16 -15 29 0 17 9 27 38 38 36 14 52 14 52 -1z m135 -12
c-34 -17 -40 -18 -66 -4 -16 8 -29 16 -29 17 0 1 30 4 67 5 l66 2 -38 -20z
m-1425 1 c0 -5 -21 -12 -47 -16 -56 -8 -78 -18 -113 -51 -14 -13 -45 -30 -69
-39 -52 -18 -51 -18 -51 -5 0 6 6 10 14 10 21 0 63 24 91 52 15 15 47 30 82
37 32 7 63 15 68 16 19 6 25 5 25 -4z m720 -1 c0 -5 -4 -10 -10 -10 -5 0 -10
5 -10 10 0 6 5 10 10 10 6 0 10 -4 10 -10z m425 -57 c8 -19 24 -37 35 -40 25
-7 26 -23 2 -23 -10 0 -26 13 -35 30 -10 16 -31 39 -47 50 -39 28 -38 42 0 28
21 -7 35 -22 45 -45z m203 39 c22 -17 22 -19 5 -34 -10 -8 -37 -18 -60 -21
-37 -4 -43 -3 -43 13 0 19 44 60 64 60 6 0 21 -8 34 -18z m562 8 c0 -5 -7 -10
-15 -10 -8 0 -15 5 -15 10 0 6 7 10 15 10 8 0 15 -4 15 -10z m-1725 -20 c-32
-21 -55 -26 -55 -12 0 12 40 30 65 31 16 1 15 -3 -10 -19z m315 9 c0 -6 8 -8
19 -4 22 7 71 -13 71 -29 -1 -23 -27 -57 -54 -71 -33 -18 -64 -19 -103 -4 -22
8 -30 7 -39 -5 -6 -9 -14 -16 -18 -16 -12 0 -6 24 12 43 17 19 16 20 -11 15
-15 -3 -30 -1 -34 5 -10 16 36 47 68 47 17 0 32 6 35 15 7 17 54 21 54 4z
m178 -11 c-4 -31 -53 -38 -61 -9 -6 26 0 31 35 31 25 0 29 -4 26 -22z m287 12
c3 -5 1 -10 -4 -10 -6 0 -11 5 -11 10 0 6 2 10 4 10 3 0 8 -4 11 -10z m558
-15 c22 -30 11 -32 -56 -9 -54 18 -53 34 1 34 28 -1 42 -7 55 -25z m-1483 -6
c0 -5 -9 -9 -20 -9 -22 0 -27 16 -7 23 15 5 27 -1 27 -14z m70 6 c-7 -8 -18
-15 -24 -15 -6 0 -2 7 8 15 25 19 32 19 16 0z m1925 5 c3 -5 -1 -10 -9 -10 -9
0 -16 5 -16 10 0 6 4 10 9 10 6 0 13 -4 16 -10z m-1271 -9 c9 -15 -23 -36 -36
-23 -5 5 -7 15 -4 21 9 13 33 14 40 2z m149 -6 c-4 -15 -36 -12 -41 3 -3 9 3
13 19 10 13 -1 23 -7 22 -13z m-953 -3 c0 -4 -15 -12 -32 -18 -18 -6 -42 -14
-53 -18 -15 -6 -13 -2 8 18 26 24 77 36 77 18z m1080 -7 c0 -22 -51 -40 -61
-23 -6 8 -2 18 8 26 23 17 53 15 53 -3z m707 -7 c-3 -8 -6 -5 -6 6 -1 11 2 17
5 13 3 -3 4 -12 1 -19z m-317 3 c0 -11 -25 -21 -52 -21 -17 0 -18 3 -8 15 13
16 60 21 60 6z m-1277 -13 c-6 -11 -63 -10 -63 1 0 5 15 9 34 8 19 -1 32 -5
29 -9z m667 2 c0 -5 -4 -10 -10 -10 -5 0 -10 5 -10 10 0 6 5 10 10 10 6 0 10
-4 10 -10z m289 -16 c3 -16 1 -17 -13 -5 -19 16 -21 34 -3 29 6 -3 14 -13 16
-24z m91 11 c11 -13 10 -14 -4 -9 -9 3 -16 10 -16 15 0 13 6 11 20 -6z m-485
-7 c40 -18 27 -42 -27 -52 -87 -17 -131 28 -50 51 51 14 48 14 77 1z m-745 -5
c-1 -5 -33 -24 -73 -43 -60 -30 -74 -41 -82 -68 -11 -39 -29 -43 -22 -5 3 15
1 38 -4 52 -10 26 1 41 30 41 12 0 12 -3 3 -12 -7 -7 -12 -19 -12 -27 0 -11 5
-10 23 6 25 23 59 42 96 54 35 10 41 10 41 2z m1579 -2 c23 -14 -1 -19 -94
-19 -85 0 -88 1 -55 13 41 15 129 19 149 6z m618 -23 c-3 -7 -5 -2 -5 12 0 14
2 19 5 13 2 -7 2 -19 0 -25z m70 7 c-4 -8 -14 -14 -24 -14 -17 1 -17 2 0 6 9
2 17 12 17 20 0 9 3 14 6 10 4 -3 4 -13 1 -22z m313 15 c0 -5 -4 -10 -10 -10
-5 0 -10 5 -10 10 0 6 5 10 10 10 6 0 10 -4 10 -10z m-2466 -9 c8 -12 -18 -21
-56 -21 -21 0 -31 -6 -35 -19 -3 -14 -17 -22 -46 -27 -23 -3 -59 -18 -81 -32
l-40 -25 15 24 c9 13 45 39 80 56 93 48 151 63 163 44z m980 3 c26 -10 18 -24
-14 -24 -30 0 -41 14 -17 23 6 3 13 6 14 6 1 1 8 -2 17 -5z m583 0 c-3 -3 -12
-4 -19 -1 -8 3 -5 6 6 6 11 1 17 -2 13 -5z m-1329 -16 c21 -21 13 -38 -18 -38
-33 0 -35 3 -20 31 12 22 21 24 38 7z m1411 -28 c28 -35 30 -40 13 -40 -33 0
-66 33 -58 58 4 12 9 22 10 22 1 0 17 -18 35 -40z m78 16 c49 -16 53 -39 5
-30 -46 8 -49 10 -63 36 -10 19 -9 20 7 13 11 -4 34 -13 51 -19z m637 -2 c16
-7 42 -14 57 -14 38 0 59 -9 59 -26 0 -8 5 -14 10 -14 6 0 10 -7 10 -16 0 -14
-1 -14 -16 0 -8 9 -25 16 -37 15 l-22 0 23 -9 c38 -16 28 -34 -23 -42 -20 -3
-28 18 -14 38 5 6 -4 10 -27 10 -24 0 -30 -3 -19 -8 9 -6 15 -24 15 -49 0 -35
-2 -40 -19 -34 -14 4 -21 0 -26 -14 -7 -24 -45 -17 -45 10 0 10 -3 20 -7 22
-9 6 -93 -32 -93 -42 0 -14 16 -29 35 -34 15 -4 14 -5 -7 -6 -16 0 -28 4 -28
9 0 6 -10 14 -22 19 -18 6 -26 3 -41 -15 -21 -27 -37 -31 -37 -10 0 26 68 76
103 76 35 0 87 20 87 33 0 11 -14 8 -38 -9 -13 -9 -33 -14 -45 -10 -11 3 -27
0 -35 -6 -10 -9 -16 -8 -22 2 -5 8 -13 11 -17 6 -4 -5 -2 -11 4 -13 8 -3 1
-14 -17 -30 -18 -14 -30 -34 -30 -48 0 -24 42 -65 66 -65 8 0 16 -11 20 -25 4
-18 13 -25 30 -25 13 0 24 -4 24 -10 0 -14 -47 -12 -57 3 -4 6 -8 15 -9 20 -1
4 -2 9 -3 11 -2 6 -71 -57 -71 -65 0 -4 11 -10 25 -13 18 -5 25 -13 25 -31 0
-25 15 -32 35 -17 6 4 10 13 10 20 0 7 14 21 30 30 17 9 32 20 35 23 3 4 11 1
18 -7 11 -12 6 -17 -28 -30 -38 -16 -47 -24 -34 -36 7 -7 63 21 88 44 11 10
23 18 28 18 4 0 10 11 14 25 3 14 10 25 15 25 12 0 12 0 -11 -48 -22 -45 -24
-52 -12 -52 4 0 16 14 25 30 25 42 47 39 47 -6 0 -32 2 -35 23 -29 34 11 45
25 18 25 -12 0 -19 4 -16 10 4 6 10 8 15 5 5 -3 11 -1 15 5 3 6 -1 13 -9 16
-30 11 -16 23 24 21 l40 -1 0 -56 0 -56 -90 1 c-77 2 -90 0 -88 -14 2 -12 -10
-17 -51 -22 -30 -4 -61 -5 -70 -1 -14 5 -14 3 -2 -11 7 -9 11 -24 7 -32 -5
-14 -43 -16 -320 -13 -174 1 -318 -1 -322 -5 -11 -11 -53 -8 -76 4 -15 8 -26
8 -43 -1 -21 -11 -48 -11 -165 4 -25 3 -47 11 -48 16 -2 6 -18 8 -38 4 -27 -5
-34 -3 -34 10 0 12 -6 15 -24 10 -13 -3 -27 -1 -30 5 -4 6 -18 11 -32 11 -13
0 -24 5 -24 10 0 6 -17 10 -37 10 -59 0 -113 18 -113 38 0 26 59 56 101 53 22
-1 53 5 75 17 38 20 38 20 66 -1 25 -18 33 -20 59 -10 43 16 59 8 53 -27 -5
-22 -1 -31 18 -44 45 -29 80 -30 121 -2 46 31 50 32 42 6 -7 -21 9 -28 20 -10
4 6 15 8 25 5 11 -3 29 -1 40 5 17 9 26 7 47 -9 34 -28 64 -26 93 4 21 22 25
23 33 10 7 -13 12 -14 23 -4 7 6 20 9 28 6 7 -3 18 -1 23 4 5 5 24 4 46 -2 21
-6 51 -7 67 -4 22 5 29 2 34 -12 2 -10 4 -5 3 12 -2 23 3 30 18 33 36 6 46 12
40 22 -5 8 -11 7 -21 -1 -10 -8 -14 -8 -14 0 0 6 5 11 10 11 6 0 10 11 10 25
0 18 5 25 19 25 30 0 48 24 55 74 4 24 14 50 21 56 8 7 15 19 15 26 0 8 5 14
11 14 5 0 7 5 4 10 -3 6 -20 10 -37 10 -22 0 -31 5 -35 21 -4 15 -11 19 -26
15 -12 -3 -26 -1 -31 3 -18 13 -106 22 -106 10 0 -6 -4 -7 -10 -4 -19 12 -10
23 27 30 21 4 49 15 64 26 22 15 33 17 54 9 14 -5 42 -10 61 -10 25 0 34 -4
34 -17 0 -15 1 -15 13 -1 6 8 33 20 58 26 25 6 59 19 75 27 33 18 90 13 138
-11z m-1104 1 l25 -14 -26 -1 c-14 0 -34 7 -45 15 -19 14 -19 14 1 14 11 0 31
-6 45 -14z m567 -7 c-3 -8 -6 -5 -6 6 -1 11 2 17 5 13 3 -3 4 -12 1 -19z
m-323 -7 c20 -8 20 -8 -1 -20 -15 -7 -29 -8 -45 -2 -13 5 -40 12 -60 16 -21 3
-40 11 -44 17 -7 12 112 3 150 -11z m-739 -1 c-3 -5 -10 -10 -16 -10 -5 0 -9
5 -9 10 0 6 7 10 16 10 8 0 12 -4 9 -10z m315 -25 c0 -19 -57 -27 -104 -14
-66 18 -65 23 9 35 70 10 95 5 95 -21z m146 10 c26 -14 43 -25 37 -25 -24 0
-113 32 -113 40 0 17 27 11 76 -15z m354 15 c0 -5 -6 -10 -14 -10 -8 0 -18 5
-21 10 -3 6 3 10 14 10 12 0 21 -4 21 -10z m-1593 -6 c-3 -3 -12 -4 -19 -1 -8
3 -5 6 6 6 11 1 17 -2 13 -5z m558 -15 c9 -9 -20 -14 -59 -10 -25 2 -30 7 -21
21 7 12 63 4 80 -11z m-447 4 c-26 -6 -22 -20 7 -27 34 -9 32 -26 -3 -26 -16
0 -39 -8 -50 -19 -23 -19 -30 -61 -11 -61 6 0 8 -7 5 -16 -4 -10 0 -15 12 -13
30 3 35 -1 22 -16 -10 -12 -9 -16 3 -20 8 -4 15 -17 15 -30 0 -18 -8 -27 -32
-34 -53 -16 -103 -20 -114 -9 -8 8 -15 8 -25 0 -16 -14 -155 -9 -184 6 -35 19
-72 70 -66 91 3 12 24 26 56 38 43 15 53 23 55 45 4 31 19 46 60 58 27 7 31 6
34 -13 2 -15 14 -25 34 -31 l32 -10 -32 -15 c-21 -11 -32 -24 -34 -43 -3 -24
1 -28 33 -34 31 -6 40 -2 66 22 31 30 38 61 14 70 -22 9 -8 23 18 18 12 -2 16
-2 10 2 -19 9 -16 21 14 49 16 14 39 25 53 24 17 -1 19 -3 8 -6z m1261 -2 c10
-6 10 -10 1 -16 -7 -4 -19 0 -28 9 -14 13 -14 16 -2 16 8 0 21 -4 29 -9z
m-1199 -11 c0 -5 -2 -10 -4 -10 -3 0 -8 5 -11 10 -3 6 -1 10 4 10 6 0 11 -4
11 -10z m1403 -15 c1 -6 -13 -11 -30 -13 -34 -3 -41 6 -22 25 12 12 49 3 52
-12z m-1573 6 c0 -18 -32 -41 -56 -41 -28 0 -32 24 -6 39 22 13 62 14 62 2z
m382 -11 c34 0 37 -22 6 -44 -45 -32 -144 -8 -110 26 20 20 57 35 67 26 5 -4
22 -8 37 -8z m326 3 c-3 -19 -39 -29 -65 -19 -25 10 4 36 39 36 23 0 29 -4 26
-17z m152 -3 c-27 -21 -51 -22 -57 -3 -4 11 19 19 62 21 18 1 18 0 -5 -18z
m604 4 c12 -31 6 -44 -19 -44 -14 0 -25 3 -25 8 0 4 -3 17 -6 30 -5 18 -2 22
19 22 14 0 28 -7 31 -16z m-1868 -8 c22 -17 19 -21 -18 -30 -25 -6 -28 -4 -28
19 0 28 17 32 46 11z m644 4 c0 -5 -11 -17 -26 -26 -19 -13 -28 -14 -36 -6 -9
9 -7 16 8 27 22 16 54 20 54 5z m1028 -4 c58 1 69 -11 21 -21 -43 -10 -115 3
-131 22 -12 15 -10 16 22 8 19 -5 59 -9 88 -9z m-129 -10 c18 -22 93 -38 161
-34 41 2 64 -1 67 -9 5 -13 -133 -29 -166 -18 -35 11 -90 49 -91 63 0 16 15
15 29 -2z m259 -22 c-10 -10 -28 6 -28 24 0 15 1 15 17 -1 9 -9 14 -19 11 -23z
m352 26 c-8 -5 -28 -9 -45 -9 -26 0 -27 2 -10 9 11 5 31 9 45 9 20 1 22 -1 10
-9z m-1270 -14 c0 -8 -4 -17 -8 -20 -13 -8 -35 11 -28 23 10 16 36 14 36 -3z
m117 -10 c4 -4 1 -11 -7 -16 -22 -14 -30 -12 -30 9 0 19 21 23 37 7z m370 -12
c-9 -9 -28 6 -21 18 4 6 10 6 17 -1 6 -6 8 -13 4 -17z m643 16 c0 -5 -4 -10
-10 -10 -5 0 -10 5 -10 10 0 6 5 10 10 10 6 0 10 -4 10 -10z m-547 -6 c9 -9
-3 -34 -17 -34 -20 0 -39 17 -32 29 8 12 39 15 49 5z m765 -11 c-2 -13 -13
-18 -38 -19 -67 -1 -99 20 -42 29 66 10 84 8 80 -10z m682 -8 c0 -23 -4 -25
-44 -25 -25 0 -48 5 -51 10 -4 6 6 10 22 10 16 0 38 7 49 15 25 19 24 19 24
-10z m-2372 6 c21 -13 -7 -51 -36 -51 -30 0 -41 29 -17 46 22 16 34 17 53 5z
m657 -22 c5 -5 -4 -9 -22 -9 -32 0 -48 11 -36 24 8 7 44 -2 58 -15z m1215 6
c27 -8 26 -44 -1 -54 -20 -7 -149 -4 -157 4 -2 2 7 15 19 29 32 33 79 40 139
21z m-1580 1 c0 -11 -19 -15 -25 -6 -3 5 1 10 9 10 9 0 16 -2 16 -4z m718 -9
c19 -12 14 -37 -7 -37 -22 0 -45 25 -37 39 7 10 25 9 44 -2z m-1154 -5 c10
-16 -25 -52 -50 -52 -17 0 -24 5 -24 20 0 27 61 53 74 32z m253 2 c-3 -3 -12
-4 -19 -1 -8 3 -5 6 6 6 11 1 17 -2 13 -5z m693 -7 c0 -23 -45 -38 -66 -23 -9
7 -14 18 -10 24 10 17 76 15 76 -1z m778 -4 c2 -9 -7 -13 -27 -13 -21 0 -31 5
-31 16 0 19 51 16 58 -3z m-1398 -3 c0 -5 -4 -10 -10 -10 -5 0 -10 5 -10 10 0
6 5 10 10 10 6 0 10 -4 10 -10z m1140 0 c0 -5 -7 -10 -15 -10 -8 0 -15 5 -15
10 0 6 7 10 15 10 8 0 15 -4 15 -10z m820 -20 c0 -13 -5 -17 -20 -13 -23 6
-25 14 -8 31 14 14 28 6 28 -18z m-1777 3 c30 -18 -34 -63 -92 -63 -42 0 -82
20 -79 39 5 24 66 42 118 35 25 -3 48 -8 53 -11z m1114 2 c5 -16 -19 -42 -44
-49 -26 -8 -80 34 -69 53 9 15 108 11 113 -4z m-1023 -10 c-4 -8 -1 -15 5 -15
24 0 9 -20 -21 -29 -18 -5 -26 -10 -17 -10 9 -1 22 -8 29 -16 17 -20 36 -19
60 5 11 11 32 23 47 26 16 4 31 12 36 18 5 7 12 5 22 -8 15 -19 28 -19 122 2
39 8 42 7 47 -14 4 -14 19 -27 41 -35 19 -7 35 -16 35 -20 0 -13 -50 -39 -75
-39 -15 0 -36 -5 -48 -11 -16 -9 -22 -9 -25 0 -5 16 -22 14 -22 -4 0 -8 -9
-15 -20 -15 -10 0 -24 -9 -30 -20 -10 -19 -12 -19 -35 -4 -42 27 -117 -2 -95
-36 6 -8 10 -19 10 -25 0 -5 -5 -3 -10 5 -7 12 -12 12 -22 2 -13 -13 -86 -15
-128 -3 -18 5 -28 18 -36 46 -6 22 -13 35 -15 28 -5 -15 -79 -29 -79 -15 0 6
5 14 10 17 6 3 10 17 10 31 0 18 -5 24 -22 24 -17 0 -19 -3 -10 -12 19 -19 14
-28 -13 -28 -16 0 -25 6 -25 15 0 8 5 15 10 15 6 0 10 9 10 19 0 23 16 37 23
19 3 -10 7 -10 18 -2 8 6 32 15 54 19 56 10 94 32 105 60 7 17 17 25 34 25 18
0 24 -4 20 -15z m130 6 c3 -5 -8 -14 -25 -22 -32 -13 -59 -5 -67 19 -4 14 84
17 92 3z m340 -13 c16 -25 -4 -52 -40 -56 -39 -4 -68 18 -60 46 11 33 81 40
100 10z m236 18 c0 -20 -19 -40 -53 -56 -50 -24 -76 -25 -84 -3 -11 28 41 63
93 63 24 0 44 -2 44 -4z m70 -16 c-24 -19 -40 -25 -40 -16 0 21 16 36 39 36
l26 0 -25 -20z m1140 10 c0 -5 -20 -10 -45 -10 -25 0 -45 5 -45 10 0 6 20 10
45 10 25 0 45 -4 45 -10z m-1680 -9 c0 -6 -5 -13 -10 -16 -15 -9 -43 3 -35 15
8 13 45 13 45 1z m-627 -16 c-1 -5 -10 -16 -20 -22 -16 -11 -23 -10 -38 1 -10
7 -15 18 -11 25 9 14 72 11 69 -4z m1255 -10 c-4 -25 -28 -30 -53 -10 -17 13
-18 16 -5 24 8 6 25 9 38 8 17 -1 22 -7 20 -22z m892 -4 c-6 -12 -8 -27 -3
-34 5 -8 9 -3 13 13 6 25 40 42 40 20 0 -12 -39 -49 -53 -50 -13 0 -37 27 -37
42 0 12 39 38 48 32 2 -1 -1 -12 -8 -23z m-521 -6 c13 -12 10 -16 -15 -26 -44
-18 -118 -23 -143 -10 -21 12 -28 40 -13 55 12 13 155 -4 171 -19z m331 -20
c-7 -8 -16 -15 -21 -15 -15 0 -10 22 9 36 20 15 29 0 12 -21z m329 26 c9 -6 3
-10 -20 -14 -37 -5 -52 -1 -44 14 8 11 45 12 64 0z m-2199 -21 c-11 -21 -54
-28 -65 -10 -11 18 5 30 41 30 32 0 34 -2 24 -20z m345 0 c-3 -5 -10 -10 -16
-10 -5 0 -9 5 -9 10 0 6 7 10 16 10 8 0 12 -4 9 -10z m1293 -16 c2 -14 -5 -24
-23 -32 -53 -24 -74 -3 -37 37 22 25 56 22 60 -5z m-569 5 c22 -8 31 -17 31
-32 0 -35 -12 -44 -69 -56 -50 -11 -56 -10 -73 9 -14 15 -18 29 -14 46 10 40
64 54 125 33z m257 -17 c1 -7 0 -8 -3 -2 -7 14 -30 13 -35 -2 -2 -6 -10 -8
-16 -4 -7 4 -10 12 -6 17 8 14 57 7 60 -9z m401 3 c2 -6 -3 -19 -11 -30 -12
-16 -16 -17 -30 -6 -9 7 -16 22 -16 33 0 15 6 19 27 16 14 -2 28 -8 30 -13z
m253 5 c0 -5 -4 -10 -10 -10 -5 0 -10 5 -10 10 0 6 5 10 10 10 6 0 10 -4 10
-10z m240 -11 c0 -5 -18 -9 -40 -9 -48 0 -54 17 -7 22 36 4 47 1 47 -13z
m-2360 1 c0 -5 -4 -10 -10 -10 -5 0 -10 5 -10 10 0 6 5 10 10 10 6 0 10 -4 10
-10z m971 -13 c-5 -5 -7 -15 -4 -23 3 -8 -11 -21 -36 -33 -48 -25 -52 -25 -76
-7 -18 13 -17 15 14 45 22 21 40 31 52 28 11 -3 21 -1 24 4 3 4 13 5 21 2 10
-4 12 -9 5 -16z m1289 13 c0 -5 -7 -10 -15 -10 -8 0 -15 5 -15 10 0 6 7 10 15
10 8 0 15 -4 15 -10z m-2092 -17 c-4 -19 -49 -23 -86 -8 -15 7 -15 8 3 15 11
5 35 9 53 9 27 1 33 -3 30 -16z m1167 -4 c0 -7 -8 -15 -17 -17 -18 -3 -25 18
-11 32 10 10 28 1 28 -15z m175 -13 c0 -3 -4 -8 -10 -11 -5 -3 -10 -1 -10 4 0
6 5 11 10 11 6 0 10 -2 10 -4z m115 -6 c8 -13 -20 -24 -41 -16 -20 8 -9 26 16
26 10 0 22 -5 25 -10z m722 -6 c2 -6 -10 -8 -32 -6 -19 2 -35 8 -35 14 0 13
63 6 67 -8z m-908 -8 c10 -11 7 -17 -10 -29 -36 -25 -67 1 -37 31 16 16 33 15
47 -2z m351 4 c0 -5 -4 -10 -10 -10 -5 0 -10 5 -10 10 0 6 5 10 10 10 6 0 10
-4 10 -10z m380 -5 c0 -16 -27 -32 -37 -21 -7 7 16 36 28 36 5 0 9 -7 9 -15z
m-1113 -10 c3 -9 3 -18 0 -21 -9 -9 -48 16 -42 27 9 14 35 11 42 -6z m647 6
c14 -5 16 -10 8 -15 -15 -9 -52 2 -52 15 0 11 17 11 44 0z m-119 -31 c14 0 25
-7 28 -20 4 -16 0 -20 -21 -20 -34 1 -91 48 -72 60 8 5 19 3 27 -6 8 -8 25
-14 38 -14z m425 12 c0 -11 -37 -32 -44 -25 -8 9 14 33 30 33 8 0 14 -3 14 -8z
m-1210 -12 c0 -12 -33 -30 -54 -30 -9 0 -16 9 -16 20 0 16 7 20 35 20 19 0 35
-4 35 -10z m460 -17 c0 -35 -14 -58 -29 -49 -6 4 -11 2 -11 -4 0 -16 -40 -3
-65 21 -16 16 -17 19 -3 19 8 0 21 6 28 14 6 8 24 17 38 19 15 2 30 5 35 6 4
0 7 -11 7 -26z m70 2 c0 -9 -9 -15 -21 -15 -18 0 -19 2 -9 15 7 8 16 15 21 15
5 0 9 -7 9 -15z m430 -10 c0 -20 -6 -25 -35 -31 -22 -4 -41 -2 -50 6 -27 23
-17 39 28 43 23 2 45 4 50 5 4 1 7 -9 7 -23z m-1070 5 c0 -5 -7 -10 -15 -10
-8 0 -15 5 -15 10 0 6 7 10 15 10 8 0 15 -4 15 -10z m1334 -4 c-21 -15 -30
-14 -19 3 3 6 14 11 23 11 13 0 13 -2 -4 -14z m-520 -12 c10 -26 7 -34 -13
-34 -23 0 -35 15 -27 35 7 20 32 19 40 -1z m-1214 -4 c0 -5 -4 -10 -10 -10 -5
0 -10 5 -10 10 0 6 5 10 10 10 6 0 10 -4 10 -10z m280 -5 c-7 -8 -19 -15 -26
-15 -8 0 -14 7 -14 15 0 10 10 15 26 15 22 0 25 -2 14 -15z m810 1 c0 -13 -29
-31 -37 -23 -2 2 -1 12 3 21 8 20 34 21 34 2z m-1924 -30 c80 -38 184 -60 261
-53 38 3 102 9 143 13 74 6 76 6 165 -37 l90 -44 -42 -3 c-30 -2 -56 4 -95 25
-52 28 -55 28 -233 28 -146 0 -196 4 -262 20 -79 19 -83 21 -83 48 0 15 1 27
3 27 2 0 25 -11 53 -24z m1217 9 c-4 -15 -56 -12 -61 3 -3 10 5 13 29 10 19
-2 33 -7 32 -13z m63 4 c8 -14 -11 -33 -25 -25 -11 7 -4 36 9 36 5 0 12 -5 16
-11z m1570 -64 c19 -14 18 -15 -6 -35 -22 -17 -26 -18 -36 -4 -9 12 -13 12
-16 2 -4 -10 -10 -10 -34 1 l-29 13 24 19 c28 23 70 25 97 4z m54 -25 c0 -11
-4 -20 -9 -20 -14 0 -23 18 -16 30 10 17 25 11 25 -10z m-2849 -10 c74 -16
127 -20 245 -19 99 1 158 -3 170 -10 15 -9 -37 -11 -221 -9 -206 3 -245 6
-272 21 -30 16 -44 37 -25 37 5 0 51 -9 103 -20z m2649 3 c-8 -3 -20 -10 -26
-14 -7 -6 -16 -3 -24 6 -11 13 -7 15 26 14 22 0 32 -3 24 -6z"/>
<g>
<path d="M1642 4398 c5 -15 28 -23 28 -10 0 5 -7 13 -16 16 -10 4 -14 1 -12
-6z"/>
</g>
<g>
<path d="M1725 4399 c-4 -6 -4 -13 -1 -16 8 -8 36 5 36 17 0 13 -27 13 -35 -1z"/>
</g>
<g>
<path d="M2680 4240 c0 -5 4 -10 9 -10 6 0 13 5 16 10 3 6 -1 10 -9 10 -9 0
-16 -4 -16 -10z"/>
</g>
<g>
<path d="M2610 4220 c0 -5 5 -10 10 -10 6 0 10 5 10 10 0 6 -4 10 -10 10 -5 0
-10 -4 -10 -10z"/>
</g>
<g>
<path d="M1652 3988 c2 -15 10 -23 23 -23 30 0 27 39 -3 43 -20 3 -23 0 -20
-20z"/>
</g>
<g>
<path d="M1670 3930 c0 -5 5 -10 10 -10 6 0 10 5 10 10 0 6 -4 10 -10 10 -5 0
-10 -4 -10 -10z"/>
</g>
<g>
<path d="M1864 3929 c-7 -11 14 -59 26 -59 15 0 29 47 17 59 -14 14 -34 14
-43 0z m36 -13 c0 -3 -4 -8 -10 -11 -5 -3 -10 -1 -10 4 0 6 5 11 10 11 6 0 10
-2 10 -4z"/>
</g>
<g>
<path d="M1670 3880 c0 -5 7 -10 15 -10 8 0 15 5 15 10 0 6 -7 10 -15 10 -8 0
-15 -4 -15 -10z"/>
</g>
<g>
<path d="M1698 3833 c7 -3 16 -2 19 1 4 3 -2 6 -13 5 -11 0 -14 -3 -6 -6z"/>
</g>
<g>
<path d="M1700 3795 c0 -9 5 -15 11 -13 6 2 11 8 11 13 0 5 -5 11 -11 13 -6 2
-11 -4 -11 -13z"/>
</g>
<g>
<path d="M1830 3109 c0 -5 5 -7 10 -4 6 3 10 8 10 11 0 2 -4 4 -10 4 -5 0 -10
-5 -10 -11z"/>
</g>
<g>
<path d="M1921 3063 c-7 -27 -14 -56 -17 -65 -3 -10 -1 -18 4 -18 5 0 16 27
25 60 20 69 20 70 8 70 -5 0 -14 -21 -20 -47z"/>
</g>
<g>
<path d="M1630 3080 c0 -5 5 -10 10 -10 6 0 10 5 10 10 0 6 -4 10 -10 10 -5 0
-10 -4 -10 -10z"/>
</g>
<g>
<path d="M1795 3080 c-3 -5 1 -10 9 -10 9 0 16 5 16 10 0 6 -4 10 -9 10 -6 0
-13 -4 -16 -10z"/>
</g>
<g>
<path d="M1610 3040 c0 -5 9 -10 20 -10 11 0 20 5 20 10 0 6 -9 10 -20 10 -11
0 -20 -4 -20 -10z"/>
</g>
<g>
<path d="M1755 3030 c3 -5 11 -10 16 -10 6 0 7 5 4 10 -3 6 -11 10 -16 10 -6
0 -7 -4 -4 -10z"/>
</g>
<g>
<path d="M1716 2981 c-3 -5 1 -11 9 -15 9 -3 15 0 15 9 0 16 -16 20 -24 6z"/>
</g>
<g>
<path d="M1797 2953 c-11 -18 -17 -140 -9 -162 15 -41 27 -4 27 86 0 75 -5 97
-18 76z"/>
</g>
<g>
<path d="M1692 2908 c-14 -14 -16 -78 -3 -78 7 0 24 81 17 87 -1 2 -8 -3 -14
-9z"/>
</g>
<g>
<path d="M1010 2840 c0 -5 7 -10 15 -10 8 0 15 5 15 10 0 6 -7 10 -15 10 -8 0
-15 -4 -15 -10z"/>
</g>
<g>
<path d="M456 2328 c-18 -87 -12 -278 9 -285 6 -2 11 54 12 152 0 85 -3 155
-8 155 -5 0 -11 -10 -13 -22z"/>
</g>
<g>
<path d="M1458 2443 c-21 -5 -24 -23 -5 -23 7 0 22 7 33 15 20 15 9 18 -28 8z"/>
</g>
<g>
<path d="M1530 2430 c0 -5 4 -10 9 -10 6 0 13 5 16 10 3 6 -1 10 -9 10 -9 0
-16 -4 -16 -10z"/>
</g>
<g>
<path d="M1585 2430 c3 -5 10 -10 16 -10 5 0 9 5 9 10 0 6 -7 10 -16 10 -8 0
-12 -4 -9 -10z"/>
</g>
<g>
<path d="M1505 2390 c28 -12 95 -12 95 0 0 6 -25 10 -57 9 -42 0 -52 -3 -38
-9z"/>
</g>
<g>
<path d="M1355 2370 c-4 -6 17 -10 57 -9 44 0 57 3 43 9 -28 12 -93 12 -100 0z"/>
</g>
<g>
<path d="M1290 2350 c-24 -15 -7 -18 25 -4 23 10 25 13 10 13 -11 1 -27 -3
-35 -9z"/>
</g>
<g>
<path d="M1255 2295 c17 -8 42 -14 56 -15 15 0 38 -9 52 -20 30 -24 45 -26 26
-4 -20 25 -60 42 -114 48 -49 6 -50 6 -20 -9z"/>
</g>
<g>
<path d="M1096 2221 c35 -15 121 -25 109 -13 -6 6 -37 14 -70 17 -42 4 -54 3
-39 -4z"/>
</g>
<g>
<path d="M1312 2213 c-25 -12 -36 -13 -45 -4 -6 6 -17 11 -25 11 -11 0 -12 -3
-3 -14 10 -11 6 -16 -16 -24 -17 -7 -21 -11 -11 -11 21 -1 139 38 153 50 15
15 -17 10 -53 -8z"/>
</g>
<g>
<path d="M863 1860 c11 -29 27 -41 27 -19 0 16 -20 49 -29 49 -5 0 -4 -13 2
-30z"/>
</g>
<g>
<path d="M1885 2270 c3 -5 13 -10 21 -10 8 0 12 5 9 10 -3 6 -13 10 -21 10 -8
0 -12 -4 -9 -10z"/>
</g>
<g>
<path d="M2347 1523 c-2 -5 0 -21 4 -38 7 -29 7 -28 6 8 -1 38 -3 43 -10 30z"/>
</g>
<g>
<path d="M2392 1375 c0 -16 2 -22 5 -12 2 9 2 23 0 30 -3 6 -5 -1 -5 -18z"/>
</g>
<g>
<path d="M734 1341 c3 -5 36 -21 73 -37 38 -15 80 -36 96 -47 26 -17 35 -14
19 8 -7 11 -22 18 -116 59 -61 27 -81 32 -72 17z"/>
</g>
<g>
<path d="M2740 930 c0 -5 5 -10 10 -10 6 0 10 5 10 10 0 6 -4 10 -10 10 -5 0
-10 -4 -10 -10z"/>
</g>
<g>
<path d="M2800 910 c0 -5 5 -10 11 -10 5 0 7 5 4 10 -3 6 -8 10 -11 10 -2 0
-4 -4 -4 -10z"/>
</g>
<g>
<path d="M2430 900 c0 -5 5 -10 10 -10 6 0 10 5 10 10 0 6 -4 10 -10 10 -5 0
-10 -4 -10 -10z"/>
</g>
<g>
<path d="M2690 900 c0 -5 5 -10 10 -10 6 0 10 5 10 10 0 6 -4 10 -10 10 -5 0
-10 -4 -10 -10z"/>
</g>
<g>
<path d="M2640 890 c0 -5 7 -10 16 -10 8 0 12 5 9 10 -3 6 -10 10 -16 10 -5 0
-9 -4 -9 -10z"/>
</g>
<g>
<path d="M2755 890 c-3 -5 -1 -10 4 -10 6 0 11 5 11 10 0 6 -2 10 -4 10 -3 0
-8 -4 -11 -10z"/>
</g>
<g>
<path d="M2390 880 c0 -5 7 -10 16 -10 8 0 12 5 9 10 -3 6 -10 10 -16 10 -5 0
-9 -4 -9 -10z"/>
</g>
<g>
<path d="M2490 870 c0 -5 5 -10 10 -10 6 0 10 5 10 10 0 6 -4 10 -10 10 -5 0
-10 -4 -10 -10z"/>
</g>
<g>
<path d="M2640 849 c0 -5 5 -7 10 -4 6 3 10 8 10 11 0 2 -4 4 -10 4 -5 0 -10
-5 -10 -11z"/>
</g>
<g>
<path d="M2560 830 c0 -5 5 -10 10 -10 6 0 10 5 10 10 0 6 -4 10 -10 10 -5 0
-10 -4 -10 -10z"/>
</g>
<g>
<path d="M2788 793 c7 -3 16 -2 19 1 4 3 -2 6 -13 5 -11 0 -14 -3 -6 -6z"/>
</g>
<g>
<path d="M2530 680 c0 -5 5 -10 10 -10 6 0 10 5 10 10 0 6 -4 10 -10 10 -5 0
-10 -4 -10 -10z"/>
</g>
<g>
<path d="M2465 590 c-3 -5 -1 -10 4 -10 6 0 11 5 11 10 0 6 -2 10 -4 10 -3 0
-8 -4 -11 -10z"/>
</g>
<g>
<path d="M2944 556 c-1 -17 2 -23 12 -19 16 6 16 6 8 27 -9 23 -19 19 -20 -8z"/>
</g>
<g>
<path d="M2505 550 c-3 -5 -1 -10 4 -10 6 0 11 5 11 10 0 6 -2 10 -4 10 -3 0
-8 -4 -11 -10z"/>
</g>
<g>
<path d="M1455 540 c-3 -5 1 -10 10 -10 9 0 13 5 10 10 -3 6 -8 10 -10 10 -2
0 -7 -4 -10 -10z"/>
</g>
<g>
<path d="M1700 539 c0 -5 5 -7 10 -4 6 3 10 8 10 11 0 2 -4 4 -10 4 -5 0 -10
-5 -10 -11z"/>
</g>
<g>
<path d="M2550 519 c0 -5 5 -7 10 -4 6 3 10 8 10 11 0 2 -4 4 -10 4 -5 0 -10
-5 -10 -11z"/>
</g>
<g>
<path d="M1410 510 c0 -5 5 -10 10 -10 6 0 10 5 10 10 0 6 -4 10 -10 10 -5 0
-10 -4 -10 -10z"/>
</g>
<g>
<path d="M1505 510 c3 -5 8 -10 11 -10 2 0 4 5 4 10 0 6 -5 10 -11 10 -5 0 -7
-4 -4 -10z"/>
</g>
<g>
<path d="M1655 510 c-3 -5 -1 -10 4 -10 6 0 11 5 11 10 0 6 -2 10 -4 10 -3 0
-8 -4 -11 -10z"/>
</g>
<g>
<path d="M2740 509 c0 -5 5 -7 10 -4 6 3 10 8 10 11 0 2 -4 4 -10 4 -5 0 -10
-5 -10 -11z"/>
</g>
<g>
<path d="M2945 510 c-3 -5 1 -10 9 -10 9 0 16 5 16 10 0 6 -4 10 -9 10 -6 0
-13 -4 -16 -10z"/>
</g>
<g>
<path d="M1445 500 c-3 -5 -1 -10 4 -10 6 0 11 5 11 10 0 6 -2 10 -4 10 -3 0
-8 -4 -11 -10z"/>
</g>
<g>
<path d="M2490 500 c0 -5 5 -10 10 -10 6 0 10 5 10 10 0 6 -4 10 -10 10 -5 0
-10 -4 -10 -10z"/>
</g>
<g>
<path d="M1560 490 c0 -5 5 -10 10 -10 6 0 10 5 10 10 0 6 -4 10 -10 10 -5 0
-10 -4 -10 -10z"/>
</g>
<g>
<path d="M1695 480 c3 -5 10 -10 16 -10 5 0 9 5 9 10 0 6 -7 10 -16 10 -8 0
-12 -4 -9 -10z"/>
</g>
<g>
<path d="M1615 470 c-3 -5 -1 -10 4 -10 6 0 11 5 11 10 0 6 -2 10 -4 10 -3 0
-8 -4 -11 -10z"/>
</g>
<g>
<path d="M2008 473 c7 -3 16 -2 19 1 4 3 -2 6 -13 5 -11 0 -14 -3 -6 -6z"/>
</g>
<g>
<path d="M2210 469 c0 -5 5 -7 10 -4 6 3 10 8 10 11 0 2 -4 4 -10 4 -5 0 -10
-5 -10 -11z"/>
</g>
<g>
<path d="M2275 470 c3 -5 8 -10 11 -10 2 0 4 5 4 10 0 6 -5 10 -11 10 -5 0 -7
-4 -4 -10z"/>
</g>
<g>
<path d="M2760 469 c0 -5 5 -7 10 -4 6 3 10 8 10 11 0 2 -4 4 -10 4 -5 0 -10
-5 -10 -11z"/>
</g>
<g>
<path d="M2485 460 c3 -5 8 -10 11 -10 2 0 4 5 4 10 0 6 -5 10 -11 10 -5 0 -7
-4 -4 -10z"/>
</g>
<g>
<path d="M1800 450 c0 -5 5 -10 10 -10 6 0 10 5 10 10 0 6 -4 10 -10 10 -5 0
-10 -4 -10 -10z"/>
</g>
<g>
<path d="M2550 450 c0 -5 5 -10 10 -10 6 0 10 5 10 10 0 6 -4 10 -10 10 -5 0
-10 -4 -10 -10z"/>
</g>
<g>
<path d="M1745 430 c-3 -5 -1 -10 4 -10 6 0 11 5 11 10 0 6 -2 10 -4 10 -3 0
-8 -4 -11 -10z"/>
</g>
<g>
<path d="M2065 430 c3 -5 8 -10 11 -10 2 0 4 5 4 10 0 6 -5 10 -11 10 -5 0 -7
-4 -4 -10z"/>
</g>
<g>
<path d="M2370 430 c0 -5 5 -10 10 -10 6 0 10 5 10 10 0 6 -4 10 -10 10 -5 0
-10 -4 -10 -10z"/>
</g>
<g>
<path d="M2640 420 c0 -5 5 -10 10 -10 6 0 10 5 10 10 0 6 -4 10 -10 10 -5 0
-10 -4 -10 -10z"/>
</g>
<g>
<path d="M2600 409 c0 -5 5 -7 10 -4 6 3 10 8 10 11 0 2 -4 4 -10 4 -5 0 -10
-5 -10 -11z"/>
</g>
<g>
<path d="M1905 400 c-3 -5 -1 -10 4 -10 6 0 11 5 11 10 0 6 -2 10 -4 10 -3 0
-8 -4 -11 -10z"/>
</g>
<g>
<path d="M320 850 c0 -5 5 -10 10 -10 6 0 10 5 10 10 0 6 -4 10 -10 10 -5 0
-10 -4 -10 -10z"/>
</g>
<g>
<path d="M295 820 c4 -6 11 -8 16 -5 14 9 11 15 -7 15 -8 0 -12 -5 -9 -10z"/>
</g>
<g>
<path d="M340 809 c0 -5 5 -7 10 -4 6 3 10 8 10 11 0 2 -4 4 -10 4 -5 0 -10
-5 -10 -11z"/>
</g>
<g>
<path d="M228 743 c7 -3 16 -2 19 1 4 3 -2 6 -13 5 -11 0 -14 -3 -6 -6z"/>
</g>
<g>
<path d="M285 740 c4 -6 11 -8 16 -5 14 9 11 15 -7 15 -8 0 -12 -5 -9 -10z"/>
</g>
<g>
<path d="M180 730 c0 -5 5 -10 10 -10 6 0 10 5 10 10 0 6 -4 10 -10 10 -5 0
-10 -4 -10 -10z"/>
</g>
<g>
<path d="M295 710 c-3 -5 -2 -10 4 -10 5 0 13 5 16 10 3 6 2 10 -4 10 -5 0
-13 -4 -16 -10z"/>
</g>
<g>
<path d="M200 690 c0 -5 5 -10 10 -10 6 0 10 5 10 10 0 6 -4 10 -10 10 -5 0
-10 -4 -10 -10z"/>
</g>
<g>
<path d="M475 680 c-3 -5 -1 -10 4 -10 6 0 11 5 11 10 0 6 -2 10 -4 10 -3 0
-8 -4 -11 -10z"/>
</g>
<g>
<path d="M385 670 c-3 -5 -1 -10 4 -10 6 0 11 5 11 10 0 6 -2 10 -4 10 -3 0
-8 -4 -11 -10z"/>
</g>
<g>
<path d="M520 660 c0 -5 5 -10 10 -10 6 0 10 5 10 10 0 6 -4 10 -10 10 -5 0
-10 -4 -10 -10z"/>
</g>
<g>
<path d="M255 650 c-3 -5 1 -10 10 -10 9 0 13 5 10 10 -3 6 -8 10 -10 10 -2 0
-7 -4 -10 -10z"/>
</g>
<g>
<path d="M320 649 c0 -5 5 -7 10 -4 6 3 10 8 10 11 0 2 -4 4 -10 4 -5 0 -10
-5 -10 -11z"/>
</g>
<g>
<path d="M1182 690 c15 -24 33 -27 24 -4 -3 9 -6 18 -6 20 0 2 -7 4 -15 4 -13
0 -13 -3 -3 -20z"/>
</g>
<g>
<path d="M1350 699 c0 -5 5 -7 10 -4 6 3 10 8 10 11 0 2 -4 4 -10 4 -5 0 -10
-5 -10 -11z"/>
</g>
<g>
<path d="M1275 670 c3 -5 8 -10 11 -10 2 0 4 5 4 10 0 6 -5 10 -11 10 -5 0 -7
-4 -4 -10z"/>
</g>
<g>
<path d="M980 659 c0 -5 5 -7 10 -4 6 3 10 8 10 11 0 2 -4 4 -10 4 -5 0 -10
-5 -10 -11z"/>
</g>
<g>
<path d="M1328 663 c7 -3 16 -2 19 1 4 3 -2 6 -13 5 -11 0 -14 -3 -6 -6z"/>
</g>
<g>
<path d="M1400 650 c0 -5 5 -10 10 -10 6 0 10 5 10 10 0 6 -4 10 -10 10 -5 0
-10 -4 -10 -10z"/>
</g>
<g>
<path d="M1020 640 c0 -5 5 -10 10 -10 6 0 10 5 10 10 0 6 -4 10 -10 10 -5 0
-10 -4 -10 -10z"/>
</g>
<g>
<path d="M1070 640 c0 -5 5 -10 10 -10 6 0 10 5 10 10 0 6 -4 10 -10 10 -5 0
-10 -4 -10 -10z"/>
</g>
<g>
<path d="M1250 640 c0 -5 5 -10 10 -10 6 0 10 5 10 10 0 6 -4 10 -10 10 -5 0
-10 -4 -10 -10z"/>
</g>
<g>
<path d="M960 599 c0 -5 5 -7 10 -4 6 3 10 8 10 11 0 2 -4 4 -10 4 -5 0 -10
-5 -10 -11z"/>
</g>
<g>
<path d="M1210 600 c0 -5 5 -10 10 -10 6 0 10 5 10 10 0 6 -4 10 -10 10 -5 0
-10 -4 -10 -10z"/>
</g>
<g>
<path d="M1050 570 c0 -5 5 -10 10 -10 6 0 10 5 10 10 0 6 -4 10 -10 10 -5 0
-10 -4 -10 -10z"/>
</g>
<g>
<path d="M975 540 c3 -5 8 -10 11 -10 2 0 4 5 4 10 0 6 -5 10 -11 10 -5 0 -7
-4 -4 -10z"/>
</g>
</g>
<g>
<path d="M2488 4554 c-10 -10 4 -44 18 -44 15 0 17 10 8 34 -6 16 -16 20 -26
10z"/>
</g>
<g>
<path d="M2543 4553 c-14 -5 -18 -33 -5 -33 5 0 17 9 27 20 18 20 8 26 -22 13z"/>
</g>
<g>
<path d="M2545 4481 c-3 -5 -1 -12 5 -16 12 -7 30 2 30 16 0 12 -27 12 -35 0z"/>
</g>
<g>
<path d="M925 301 c-10 -9 -4 -21 10 -21 12 0 15 -17 15 -95 0 -67 -4 -95 -12
-95 -8 0 -9 -3 -1 -11 11 -11 63 -2 63 11 0 4 -6 10 -13 13 -9 3 -14 26 -15
69 -2 70 -2 69 53 -8 35 -50 77 -95 83 -89 3 3 5 50 3 104 -2 63 1 101 8 106
21 12 11 24 -19 23 -35 -1 -49 -15 -26 -24 12 -5 16 -20 16 -63 -1 -52 -2 -55
-16 -36 -8 11 -22 29 -32 40 -9 11 -26 33 -38 49 -18 26 -65 42 -79 27z"/>
</g>
<g>
<path d="M1573 299 c-17 -5 -43 -24 -58 -41 -24 -28 -27 -39 -23 -86 3 -29 12
-60 20 -68 19 -19 115 -29 151 -15 42 17 33 31 -16 25 -88 -12 -138 46 -103
121 29 61 76 58 116 -5 29 -49 45 -47 46 6 2 69 -2 74 -54 73 -26 0 -61 -5
-79 -10z"/>
</g>
<g>
<path d="M1740 296 c0 -9 4 -16 9 -16 4 0 11 -35 15 -77 4 -43 14 -88 22 -100
17 -26 60 -31 89 -10 15 12 23 12 46 0 21 -11 33 -11 49 -3 28 15 25 23 -5 16
-21 -5 -27 -2 -35 19 -13 34 -13 142 0 150 24 15 9 35 -27 35 -29 0 -34 -3
-25 -12 17 -17 15 -111 -2 -153 -16 -37 -36 -44 -56 -20 -13 15 -20 135 -10
165 4 11 -4 16 -32 18 -29 2 -38 0 -38 -12z"/>
</g>
<g>
<path d="M1990 301 c0 -5 7 -11 15 -15 12 -4 15 -25 15 -101 l0 -95 35 0 c19
0 35 2 35 3 0 2 -7 18 -16 35 -8 18 -13 36 -10 41 3 4 26 11 52 14 56 6 65 18
62 77 l-3 45 -92 3 c-53 2 -93 -1 -93 -7z m120 -21 c13 0 18 -48 7 -59 -6 -6
-21 -11 -34 -11 -19 0 -23 5 -23 33 0 38 8 50 28 42 7 -3 17 -5 22 -5z"/>
</g>
<g>
<path d="M2252 287 c-45 -48 -16 -110 50 -105 43 2 58 -7 58 -38 0 -56 -110
-50 -138 9 -20 42 -39 34 -40 -17 l-1 -43 70 -7 c74 -8 104 -3 132 22 39 35 9
102 -47 102 -57 0 -87 40 -51 70 20 17 50 4 64 -27 15 -34 33 -18 25 23 -5 28
-9 30 -53 32 -38 1 -52 -3 -69 -21z"/>
</g>
<g>
<path d="M577 293 c-20 -3 -26 -8 -19 -16 5 -7 11 -55 13 -107 4 -106 5 -107
82 -109 31 -1 39 3 49 24 15 34 1 45 -21 16 -10 -13 -25 -22 -36 -20 -21 5
-35 45 -25 73 6 18 7 18 13 2 11 -27 27 -8 23 27 -3 29 -26 53 -26 27 0 -6 -4
-8 -10 -5 -5 3 -10 19 -10 34 0 24 5 29 30 33 21 3 34 0 40 -11 9 -16 25 -8
25 12 1 25 -45 32 -128 20z"/>
</g>
<g>
<path d="M746 291 c-18 -7 -18 -8 -2 -14 16 -7 18 -18 14 -107 l-4 -100 67 0
c70 0 79 6 79 51 0 27 -19 24 -30 -6 -7 -19 -17 -25 -40 -25 -29 0 -30 1 -29
48 0 39 2 43 10 24 13 -35 29 -17 22 26 -7 45 -11 51 -23 32 -7 -11 -10 -5
-10 23 0 34 2 37 29 37 20 0 30 -6 34 -20 8 -31 29 -24 25 8 -3 26 -6 27 -63
29 -33 1 -69 -1 -79 -6z"/>
</g>
<g>
<path d="M155 279 c-54 -31 -75 -62 -75 -110 0 -40 4 -51 31 -73 24 -20 41
-26 80 -26 46 0 49 -2 49 -25 0 -22 4 -25 33 -25 29 1 30 2 15 14 -23 17 -23
39 2 61 47 43 47 132 0 166 -32 23 -109 33 -135 18z m91 -44 c8 -8 14 -35 14
-67 0 -53 0 -53 -37 -65 -66 -21 -103 23 -89 103 10 52 73 69 112 29z"/>
</g>
<g>
<path d="M320 280 c0 -5 5 -10 10 -10 6 0 10 -33 10 -80 0 -73 2 -83 26 -107
21 -21 31 -24 57 -18 18 4 51 6 75 6 43 -1 57 13 22 22 -18 5 -20 14 -20 89 0
52 5 89 12 96 9 9 6 12 -13 12 -24 0 -25 -1 -21 -65 5 -78 -2 -111 -27 -125
-45 -24 -71 22 -71 126 l0 64 -30 0 c-16 0 -30 -4 -30 -10z"/>
</g>
<g>
<path d="M1286 244 c-23 -22 -20 -33 19 -94 42 -66 45 -97 10 -106 -14 -3 -25
-10 -25 -15 0 -14 33 -10 54 6 16 12 18 23 13 69 -4 37 -2 56 6 59 9 3 9 8 -1
18 -11 12 -14 12 -21 0 -7 -10 -12 -8 -25 10 -20 29 -21 49 -1 49 8 0 15 5 15
10 0 15 -27 12 -44 -6z"/>
</g>
<g>
<path d="M1216 144 c-23 -22 -20 -43 8 -55 25 -12 66 2 66 22 0 43 -45 63 -74
33z m44 -19 c0 -8 -7 -15 -15 -15 -8 0 -15 7 -15 15 0 8 7 15 15 15 8 0 15 -7
15 -15z"/>
</g>
<g>
<path d="M2502 128 c-17 -17 -15 -35 5 -42 23 -9 47 22 32 41 -14 16 -22 16
-37 1z"/>
</g>
<g>
<path d="M848 3 c7 -3 16 -2 19 1 4 3 -2 6 -13 5 -11 0 -14 -3 -6 -6z"/>
</g>
<g>
<path d="M937 3 c18 -2 50 -2 70 0 21 2 7 4 -32 4 -38 0 -55 -2 -38 -4z"/>
</g>
</g>
</svg>
