<?xml version="1.0" standalone="no"?>
<!DOCTYPE svg PUBLIC "-//W3C//DTD SVG 20010904//EN"
 "http://www.w3.org/TR/2001/REC-SVG-20010904/DTD/svg10.dtd">
<svg version="1.0" xmlns="http://www.w3.org/2000/svg"
 width="300.000000pt" height="535.000000pt" viewBox="0 0 300.000000 535.000000"
 preserveAspectRatio="xMidYMid meet">
<metadata>
Created by potrace 1.15, written by Peter Selinger 2001-2017
</metadata>
<g transform="translate(0.000000,535.000000) scale(0.100000,-0.100000)"
fill="#000000" stroke="none">
<g>
<path d="M6 5328 c-3 -13 -5 -808 -4 -1768 1 -960 3 -1728 5 -1707 3 29 11 40
33 52 53 27 140 14 140 -20 0 -9 -9 -15 -23 -15 -28 0 -97 -65 -97 -91 0 -22
-28 -69 -41 -69 -4 0 -10 17 -12 37 -2 21 -4 -5 -4 -57 1 -52 2 -74 4 -48 3
28 9 48 16 48 19 0 53 42 61 75 10 42 54 85 87 85 14 0 32 7 39 15 36 44 190
-18 190 -77 0 -10 4 -18 8 -18 5 0 14 -18 21 -40 6 -22 37 -77 67 -122 31 -46
65 -100 75 -121 28 -55 35 -151 15 -210 -18 -54 -21 -154 -5 -210 6 -21 27
-57 47 -79 37 -41 47 -79 35 -141 -4 -24 -18 -34 -90 -68 -48 -21 -87 -38 -89
-37 -9 11 -6 58 5 72 11 14 11 16 -3 16 -19 0 -21 16 -4 27 7 4 33 10 57 13
37 4 45 9 46 28 2 21 -2 22 -60 22 -34 0 -66 -5 -73 -12 -6 -6 -15 -9 -19 -5
-13 14 40 55 85 67 26 7 41 15 35 17 -7 3 -13 11 -13 18 0 26 -70 32 -114 10
-15 -8 -37 -15 -47 -15 -12 0 -19 -7 -19 -20 0 -11 7 -20 15 -20 8 0 15 -9 15
-20 0 -11 -4 -20 -10 -20 -5 0 -10 -9 -10 -21 0 -16 4 -19 20 -14 19 6 20 2
17 -72 l-2 -78 -30 -3 c-24 -2 -32 3 -41 22 -10 21 -8 28 12 47 30 28 30 39 2
74 -19 25 -20 28 -5 36 15 9 15 13 -4 48 -15 30 -19 53 -16 112 l2 74 60 3
c57 3 85 14 85 33 0 5 -12 9 -27 9 -26 1 -26 2 -9 12 11 6 32 11 48 10 18 0
32 6 38 18 15 28 -1 33 -103 27 l-92 -6 73 13 c97 17 107 30 28 38 -58 6 -36
23 31 25 37 1 69 7 71 12 2 6 12 11 23 11 17 0 18 3 9 21 -10 18 -19 20 -86
17 -67 -3 -73 -1 -68 15 4 13 0 17 -22 17 -47 0 -15 15 43 20 32 3 58 10 61
18 2 6 -3 12 -12 12 -8 0 -27 5 -43 12 l-28 11 35 7 c35 7 35 7 10 18 -25 11
-25 11 8 11 25 1 32 5 32 20 0 27 -11 32 -79 32 -54 1 -93 -7 -158 -32 -29
-11 -29 -25 -2 -32 15 -4 20 -12 17 -28 -2 -19 -12 -25 -45 -32 -32 -6 -42
-13 -45 -30 -2 -13 -12 -23 -28 -27 -20 -5 -29 0 -45 25 -12 16 -40 40 -63 52
-41 22 -42 22 -42 3 0 -14 7 -20 24 -20 13 0 35 -9 50 -21 20 -16 26 -29 26
-60 0 -27 5 -42 16 -46 11 -4 -1 -13 -40 -30 -31 -13 -61 -21 -66 -18 -6 4
-10 -1 -10 -11 0 -14 9 -16 60 -12 33 2 60 1 60 -4 0 -13 -47 -28 -86 -28 -34
0 -34 -1 -33 -42 0 -24 3 -36 7 -28 4 8 12 16 17 16 6 1 28 4 50 7 36 6 37 5
12 -4 -38 -15 -35 -39 6 -39 43 0 50 -7 68 -65 15 -53 7 -95 -18 -95 -23 0
-14 -18 12 -24 19 -5 24 -12 21 -29 -3 -12 -5 -28 -5 -34 -1 -21 -22 -15 -28
7 -6 24 -26 26 -44 4 -10 -12 -25 -15 -56 -11 -38 4 -43 2 -43 -16 0 -20 3
-20 104 -5 31 5 28 -16 -4 -34 -18 -10 -30 -25 -30 -38 0 -25 -26 -27 -52 -3
-17 15 -18 15 -18 -3 0 -26 30 -43 63 -37 20 4 27 11 27 29 0 32 35 49 73 35
24 -9 27 -15 27 -60 l0 -49 -55 -7 c-42 -5 -62 -13 -84 -36 -16 -16 -34 -29
-40 -29 -6 0 -11 -15 -11 -34 l0 -35 28 27 c16 15 32 35 35 45 8 22 54 40 87
34 14 -3 32 0 40 8 14 12 261 33 249 21 -2 -3 -50 -9 -106 -15 -144 -15 -193
-45 -203 -125 -3 -22 -10 -41 -17 -43 -9 -3 -10 4 -3 28 17 57 -14 66 -73 22
l-36 -28 -1 -80 0 -80 1063 4 c584 3 1253 5 1487 5 l425 1 -4 -185 c-2 -102
-4 -186 -5 -187 -3 -4 -488 -6 -1044 -4 l-542 1 16 25 c11 18 15 38 11 65 -3
22 -1 40 4 40 5 0 9 8 9 18 0 21 -34 44 -54 36 -9 -3 -19 3 -26 17 -11 20 -10
21 9 16 16 -4 21 -1 21 14 0 21 -21 25 -51 9 -27 -15 -23 -39 15 -88 43 -54
51 -84 31 -123 l-16 -30 -675 3 c-534 2 -674 0 -674 -9 0 -10 307 -13 1500
-13 l1500 0 0 2675 0 2675 -1494 0 -1494 0 -6 -22z m2965 -12 c4 -4 7 -544 7
-1198 1 -1123 1 -1190 -16 -1182 -9 4 -43 8 -74 9 -60 2 -74 -9 -42 -36 12
-10 20 -10 35 -1 30 19 70 15 76 -8 3 -11 9 -20 14 -20 5 0 9 -91 9 -203 l0
-203 -36 -17 c-35 -17 -36 -17 -54 6 -10 13 -36 36 -58 51 -53 36 -160 47
-214 22 l-36 -17 -43 40 c-65 60 -162 105 -229 105 -30 1 -66 -1 -80 -4 -23
-5 -25 -2 -24 31 2 60 12 83 50 109 26 17 57 27 103 32 119 12 131 16 131 49
0 48 26 96 67 123 46 30 117 42 157 26 43 -16 45 -3 2 15 -44 18 -90 14 -144
-14 -51 -26 -80 -60 -95 -111 -14 -50 -29 -58 -139 -70 -113 -12 -161 -65
-163 -184 0 -22 -8 -33 -32 -47 -18 -10 -39 -16 -46 -13 -22 8 -69 -15 -106
-53 -22 -23 -37 -31 -39 -23 -3 7 -13 21 -23 31 -11 11 -14 21 -8 25 6 3 14
17 19 30 9 24 13 24 73 18 59 -6 63 -5 76 18 7 14 11 38 9 54 -3 29 -4 29 -75
32 l-71 3 -7 51 c-6 45 -5 54 13 68 11 10 24 35 28 56 3 21 13 51 20 66 8 15
14 36 14 48 0 11 7 20 15 20 8 0 15 4 15 10 0 5 6 7 14 4 12 -4 14 -22 11 -82
-3 -42 -2 -71 1 -63 5 9 8 10 13 2 5 -7 20 -9 38 -5 l31 6 -19 32 c-10 17 -19
41 -19 53 0 12 -4 24 -9 27 -13 8 -1 86 17 114 9 15 15 46 14 85 -1 68 10 90
50 100 14 4 55 26 90 49 48 33 64 49 66 70 2 15 13 34 24 42 13 10 18 21 14
32 -4 10 0 25 10 35 48 54 -51 64 -126 13 -25 -17 -53 -34 -63 -37 -15 -6 -16
-4 -7 13 13 25 13 60 -1 60 -6 0 -37 -23 -70 -51 -45 -40 -60 -60 -65 -88 -9
-57 -24 -89 -49 -105 -13 -9 -40 -40 -60 -71 -20 -30 -39 -55 -42 -55 -3 0 -2
400 2 890 6 736 5 893 -6 906 -7 9 -18 26 -24 37 -17 36 -41 32 -62 -10 -19
-35 -21 -65 -26 -348 -11 -557 -38 -1539 -43 -1544 -2 -2 -15 1 -28 9 -14 7
-37 10 -53 7 -16 -3 -40 2 -57 10 -22 11 -47 14 -92 10 -52 -5 -66 -3 -87 13
-14 11 -29 20 -34 20 -6 0 -21 13 -36 29 -19 22 -41 32 -84 41 -128 25 -164
34 -168 41 -9 14 7 39 25 39 30 0 40 24 35 78 -4 45 -2 53 16 63 18 9 20 17
14 47 -22 121 -13 265 24 345 12 25 21 50 21 55 0 15 -30 23 -34 9 -36 -125
-46 -166 -41 -179 4 -10 0 -18 -12 -22 -25 -7 -190 -41 -298 -61 -49 -9 -102
-18 -118 -21 -22 -5 -27 -2 -27 15 0 14 8 23 27 27 16 3 45 10 65 15 20 5 55
7 76 3 30 -5 46 -2 64 12 23 17 24 21 15 87 l-9 69 33 34 c36 37 29 47 -8 12
l-23 -21 -1 24 0 24 -11 -25 c-11 -25 -11 -25 -15 -2 -5 24 -19 30 -25 10 -3
-7 -20 -12 -39 -12 -25 1 -27 0 -7 -3 34 -5 81 -59 73 -84 -3 -10 0 -28 9 -41
21 -35 5 -68 -34 -68 -37 0 -52 27 -26 46 23 16 14 31 -26 39 -55 13 -94 76
-61 101 16 13 16 13 -8 3 -17 -7 -33 -8 -45 -2 -11 6 -30 7 -44 2 -22 -6 -20
-7 12 -8 61 -2 77 -55 31 -103 -25 -26 -25 -28 -6 -28 25 0 47 -25 39 -45 -3
-8 -15 -15 -26 -15 -30 0 -102 115 -95 153 3 17 1 26 -5 22 -6 -3 -10 -13 -10
-22 0 -10 -6 -14 -19 -10 -26 6 -17 -30 15 -61 42 -40 67 -102 69 -167 1 -33
5 -68 10 -78 4 -11 3 -23 -4 -30 -6 -6 -11 -22 -11 -36 0 -15 -6 -38 -14 -52
-7 -14 -17 -51 -20 -82 -4 -31 -11 -59 -16 -62 -5 -3 -12 -26 -16 -52 -6 -38
-8 -43 -17 -27 -16 32 -51 60 -82 68 -29 7 -261 -19 -300 -34 -123 -47 -169
-89 -180 -163 -8 -59 15 -102 73 -135 50 -27 82 -28 116 -1 19 15 27 17 30 7
2 -7 8 -29 14 -48 15 -46 27 -180 17 -180 -5 0 -16 7 -26 16 -10 9 -36 18 -58
21 -60 8 -122 -19 -172 -75 l-41 -47 6 635 c3 349 10 730 14 845 4 116 6 418
5 673 -1 254 -1 462 0 463 1 0 571 3 1267 6 696 2 1268 5 1273 6 27 7 393 0
398 -7z m-1131 -1366 c-17 -742 -27 -1073 -35 -1092 -6 -16 -1 -18 44 -18 28
0 51 -4 51 -10 0 -5 -16 -10 -35 -10 -19 0 -35 -4 -35 -10 0 -5 17 -9 38 -8
46 1 62 -7 62 -32 0 -28 -10 -30 -99 -23 -70 5 -81 9 -81 24 0 12 10 21 25 25
26 6 33 20 14 26 -12 4 -6 349 21 1426 6 206 10 462 10 571 0 144 3 200 13
210 18 18 21 -461 7 -1079z m57 371 c-4 -383 -10 -861 -13 -1063 -7 -351 -8
-368 -27 -385 -20 -18 -20 -17 -14 177 4 107 11 485 17 840 5 355 12 717 15
805 2 88 5 200 5 248 0 64 3 86 11 81 9 -5 10 -184 6 -703z m-1097 -460 c0
-12 -20 -25 -27 -18 -7 7 6 27 18 27 5 0 9 -4 9 -9z m40 -61 c0 -5 -2 -10 -4
-10 -3 0 -8 5 -11 10 -3 6 -1 10 4 10 6 0 11 -4 11 -10z m331 -106 c1 -38 7
-84 15 -103 19 -45 18 -54 -7 -46 -15 5 -22 2 -26 -14 -3 -12 -16 -24 -30 -27
-28 -7 -22 -18 10 -19 17 0 22 -7 24 -34 l3 -33 -53 5 c-28 3 -63 8 -77 12
-24 6 -23 5 8 -23 17 -15 32 -36 32 -45 0 -9 4 -18 9 -21 5 -4 7 -20 5 -36 -5
-29 8 -41 21 -20 10 16 45 -8 45 -30 0 -25 -20 -37 -34 -19 -6 8 -31 21 -56
29 -25 7 -49 17 -55 21 -5 3 -35 10 -65 13 l-56 7 1 44 c0 48 10 56 31 28 12
-17 13 -17 19 -1 4 11 -2 33 -14 55 l-21 38 27 -30 c45 -50 81 -31 88 45 3 41
17 90 27 96 5 3 6 20 2 39 -4 23 0 41 13 61 23 37 54 63 69 57 6 -2 17 3 24
12 7 8 15 14 17 12 2 -3 4 -35 4 -73z m-177 -6 c23 -24 27 -49 9 -66 -16 -16
-16 -16 -10 2 10 25 -1 56 -18 56 -8 0 -17 5 -20 10 -9 14 24 12 39 -2z m-83
-32 c-6 -8 -11 -18 -10 -22 3 -21 -2 -44 -10 -44 -10 0 -9 50 2 68 5 6 13 12
19 12 7 0 7 -5 -1 -14z m114 -65 c-3 -6 -11 -11 -17 -11 -6 0 -6 6 2 15 14 17
26 13 15 -4z m1295 -15 c-12 -15 -80 -58 -80 -52 0 5 82 66 88 66 3 0 -1 -7
-8 -14z m9 -37 c-35 -28 -73 -57 -83 -65 -11 -7 -17 -17 -13 -21 4 -3 22 4 40
17 17 13 44 33 59 44 15 11 30 17 33 15 2 -3 -27 -29 -65 -58 -63 -48 -83 -71
-62 -71 4 0 26 11 50 25 23 13 42 22 42 20 0 -2 -25 -22 -56 -44 -39 -28 -75
-44 -116 -52 -57 -11 -59 -13 -53 -40 3 -15 1 -36 -4 -46 -6 -10 -16 -31 -21
-47 -10 -27 -12 -28 -29 -12 -9 9 -23 16 -29 16 -6 0 -14 15 -18 34 -5 29 0
45 30 93 20 32 36 68 36 80 0 39 20 76 63 115 54 49 67 49 28 0 -16 -21 -28
-47 -27 -58 2 -10 -1 -28 -7 -39 -15 -28 -17 -44 -6 -51 5 -3 14 9 20 26 11
29 33 37 35 12 5 -49 5 -48 13 -27 5 11 5 28 0 37 -6 10 -5 19 1 23 6 4 8 11
4 16 -3 5 -10 7 -15 4 -5 -4 -9 -1 -9 5 0 6 12 15 26 20 35 14 41 12 18 -5
-18 -14 -18 -14 0 -15 19 0 83 34 101 54 15 17 58 46 68 46 5 0 -19 -23 -54
-51z m-1367 16 c0 -5 -5 -11 -11 -13 -6 -2 -11 4 -11 13 0 9 5 15 11 13 6 -2
11 -8 11 -13z m-62 1 c0 -9 -30 -14 -35 -6 -4 6 3 10 14 10 12 0 21 -2 21 -4z
m-35 -36 c3 -5 -1 -10 -9 -10 -9 0 -16 5 -16 10 0 6 4 10 9 10 6 0 13 -4 16
-10z m88 -37 c-3 -14 -1 -23 6 -23 6 0 11 5 11 10 0 6 5 10 10 10 16 0 11 -17
-7 -24 -10 -4 -26 4 -45 23 l-30 30 31 -2 c26 -2 29 -5 24 -24z m-102 -37
l-22 -21 17 35 c10 20 19 29 22 21 2 -7 -5 -23 -17 -35z m-55 18 c-3 -9 -6
-20 -6 -25 0 -5 -4 -9 -10 -9 -5 0 -10 11 -10 25 0 16 6 25 16 25 11 0 14 -5
10 -16z m55 -61 c-1 -4 -7 -8 -13 -8 -7 0 -14 -9 -16 -20 -2 -11 -9 -24 -14
-30 -8 -7 -8 -5 -3 5 5 10 1 8 -13 -4 -43 -37 -34 -6 9 33 41 38 52 43 50 24z
m-137 -2 c3 -5 -1 -11 -9 -15 -9 -3 -15 0 -15 9 0 16 16 20 24 6z m-181 -98
c-1 -6 4 -17 12 -23 8 -7 15 -19 15 -27 0 -11 7 -13 25 -9 19 5 25 2 27 -11 3
-38 -3 -57 -28 -82 -24 -24 -25 -28 -19 -105 9 -114 6 -168 -11 -187 -11 -13
-12 -26 -4 -68 5 -29 12 -56 15 -61 5 -8 -24 -81 -43 -108 -5 -8 -9 53 -10
160 0 191 -18 310 -57 388 -26 51 -69 94 -102 105 -26 7 -31 25 -8 25 8 0 15
-4 15 -8 0 -4 13 -13 30 -19 18 -7 42 -30 61 -62 30 -49 33 -50 46 -31 12 17
12 24 -2 51 -21 40 -15 46 10 8 21 -31 38 -39 29 -14 -4 8 -1 15 5 15 18 0 13
16 -16 50 -23 28 -24 32 -7 28 10 -2 18 -9 17 -15z m-106 0 c-4 -4 3 -18 17
-32 31 -34 60 -81 50 -80 -5 0 -23 19 -39 42 -17 23 -41 47 -54 53 -16 8 -19
13 -9 17 19 8 42 8 35 0z m422 -14 c-8 -5 -24 -9 -36 -9 -13 0 -23 -5 -23 -10
0 -6 10 -15 23 -20 12 -5 18 -9 13 -9 -5 -1 -3 -7 3 -15 10 -11 8 -17 -6 -25
-10 -6 -14 -11 -9 -11 14 0 -25 -40 -40 -40 -7 0 -17 7 -22 16 -12 22 -3 64
14 64 19 0 17 17 -3 24 -15 6 -15 8 -1 22 17 17 77 34 92 26 4 -2 2 -8 -5 -13z
m354 -3 c4 -9 0 -13 -11 -12 -9 2 -18 8 -20 14 -5 17 25 15 31 -2z m-476 -13
c0 -10 -3 -20 -7 -23 -4 -3 -4 -27 -1 -54 5 -43 10 -51 34 -59 33 -11 87 7 87
29 0 15 29 18 68 8 32 -9 23 -26 -15 -29 -44 -4 -84 -36 -71 -58 7 -13 3 -20
-17 -29 -16 -7 -28 -23 -32 -40 -8 -38 -23 -46 -23 -12 0 15 7 36 16 45 15 17
15 20 -1 45 -13 20 -23 25 -42 21 -26 -5 -83 18 -83 34 0 5 3 9 8 9 4 1 18 10
31 20 19 16 21 23 11 35 -9 11 -8 20 10 45 25 35 27 36 27 13z m233 -3 c26
-16 6 -19 -45 -5 l-50 14 40 0 c22 0 47 -3 55 -9z m-615 -14 c48 -20 85 -82
113 -189 21 -81 24 -119 27 -312 5 -296 12 -401 31 -481 21 -90 28 -104 56
-96 13 3 26 10 31 16 5 8 10 7 16 -2 7 -11 12 -12 29 -1 17 10 23 10 36 0 12
-10 19 -11 30 -2 11 9 15 9 18 -1 4 -10 9 -10 19 -2 8 6 46 10 84 9 39 -1 74
1 80 4 22 12 95 12 95 0 0 -9 3 -9 14 1 24 19 139 20 153 1 10 -12 15 -13 21
-4 6 10 17 10 43 3 28 -8 36 -7 46 6 10 14 15 15 28 4 11 -9 18 -10 29 -1 11
9 15 9 19 -1 3 -10 9 -9 24 5 18 16 21 16 26 2 8 -19 27 -20 27 0 0 18 11 19
29 3 11 -10 14 -10 18 0 7 17 53 15 75 -4 16 -16 18 -15 24 0 5 13 9 14 20 5
11 -9 18 -8 30 2 13 10 17 10 24 -1 7 -12 11 -11 26 1 13 11 18 11 21 2 5 -15
33 -17 33 -3 0 14 28 12 33 -2 3 -10 10 -10 32 2 22 12 29 12 32 3 5 -15 33
-17 33 -3 0 6 9 10 20 10 14 0 20 -7 20 -21 0 -18 -5 -20 -42 -18 -24 2 -77 0
-118 -4 -41 -4 -286 -9 -545 -13 -259 -4 -492 -8 -520 -9 -27 -1 -66 -3 -85
-4 -58 -2 -59 -6 -40 -111 30 -166 66 -242 155 -329 32 -31 42 -47 33 -52 -7
-4 -18 -3 -25 2 -7 6 -26 8 -43 4 -23 -5 -30 -3 -30 8 0 9 -6 22 -13 29 -7 7
-18 26 -25 42 -10 23 -17 27 -37 22 -27 -7 -35 11 -10 20 23 9 18 24 -7 25
-13 0 -17 3 -10 6 6 2 12 12 12 20 0 10 -6 13 -16 9 -14 -6 -15 -4 -4 9 11 14
10 17 -9 22 -17 4 -19 8 -9 15 10 7 9 11 -5 19 -17 10 -17 12 -1 23 15 12 15
13 1 19 -10 4 -14 13 -11 22 4 10 0 15 -10 15 -19 0 -21 16 -4 24 10 5 11 7 1
12 -18 8 -16 22 5 27 14 3 13 6 -8 14 -22 10 -23 12 -7 18 23 10 22 25 -3 25
-24 0 -26 9 -3 25 21 15 9 35 -17 28 -14 -4 -20 0 -20 11 0 9 7 16 15 16 8 0
15 7 15 15 0 8 -7 15 -15 15 -8 0 -15 5 -15 10 0 6 7 10 15 10 22 0 18 17 -5
23 -23 6 -27 37 -5 37 19 0 19 19 0 26 -8 4 -15 10 -15 15 0 5 7 9 15 9 24 0
17 28 -7 33 l-23 4 23 8 c25 8 30 25 8 25 -26 0 -28 20 -4 30 l23 9 -22 7
c-25 7 -31 24 -9 24 24 0 30 21 7 27 -24 6 -28 23 -6 23 8 0 15 5 15 10 0 6
-7 10 -15 10 -8 0 -15 7 -15 15 0 8 7 15 15 15 8 0 15 5 15 10 0 6 -7 10 -15
10 -8 0 -15 5 -15 10 0 6 7 10 15 10 8 0 15 7 15 15 0 8 -7 15 -15 15 -20 0
-19 18 1 22 22 4 29 58 7 58 -10 0 -13 6 -9 17 4 9 1 20 -6 24 -10 6 -8 11 6
22 18 13 18 14 1 21 -13 5 -15 9 -6 20 9 11 9 16 0 21 -8 6 -6 11 6 18 14 7
15 11 4 17 -10 7 -10 11 0 24 11 13 11 16 -3 16 -21 0 -20 16 2 30 16 9 16 11
-1 21 -14 8 -15 14 -7 24 8 10 7 16 -7 24 -14 8 -16 12 -5 22 17 18 15 29 -5
29 -14 0 -15 2 -4 9 18 12 5 32 -16 24 -12 -5 -15 -2 -10 10 4 11 -1 20 -14
28 -17 9 -18 13 -7 26 11 14 10 15 -10 9 -17 -6 -22 -3 -22 9 0 12 -6 15 -20
10 -14 -5 -20 -2 -20 9 0 9 -4 16 -10 16 -5 0 -10 -4 -10 -10 0 -5 -14 -10
-30 -10 -42 0 -94 -23 -114 -51 -9 -13 -16 -43 -16 -67 0 -26 -4 -41 -10 -37
-15 9 -12 72 4 103 16 31 58 69 89 82 34 14 114 11 152 -4z m1016 -18 c23 -24
27 -33 17 -39 -14 -9 -38 15 -38 39 0 10 -7 12 -25 8 -18 -5 -25 -2 -25 9 0
26 40 17 71 -17z m-293 -4 c12 -8 20 -19 17 -24 -10 -16 -40 -11 -65 10 -13
11 -27 20 -32 20 -4 0 -8 5 -8 10 0 14 59 3 88 -16z m142 6 c0 -5 -4 -10 -10
-10 -5 0 -10 5 -10 10 0 6 5 10 10 10 6 0 10 -4 10 -10z m-285 -13 c21 -16 13
-37 -15 -37 -19 0 -34 25 -24 41 7 12 17 11 39 -4z m-274 -30 c-16 -16 -26 0
-10 19 9 11 15 12 17 4 2 -6 -1 -17 -7 -23z m637 27 c26 -8 29 -20 5 -26 -25
-7 -43 1 -43 18 0 16 5 17 38 8z m667 -34 c15 0 75 -65 75 -82 0 -7 -4 -7 -14
1 -20 17 -32 -5 -14 -26 11 -15 11 -16 -7 -9 -60 24 -75 13 -29 -23 l25 -20
-23 -12 c-33 -17 -33 -17 -13 -39 22 -24 14 -81 -17 -110 -33 -31 -41 -15 -34
74 3 44 9 123 11 175 6 93 17 138 23 94 2 -13 9 -23 17 -23z m-1673 8 c50 -15
94 -76 108 -148 5 -29 10 -174 10 -323 -1 -228 8 -409 26 -537 11 -79 58 -290
73 -325 5 -11 16 -41 26 -67 9 -27 21 -48 26 -48 5 0 9 -5 9 -12 0 -7 14 -26
31 -44 30 -31 30 -32 15 -62 -22 -43 -20 -63 9 -94 15 -16 20 -28 13 -30 -17
-6 0 -28 22 -28 11 0 34 7 52 16 30 14 33 19 32 58 -1 52 -9 66 -38 66 -31 0
-54 -26 -38 -42 9 -9 15 -9 24 0 16 16 28 15 28 -3 0 -25 -39 -39 -66 -24 -45
23 -18 99 35 99 57 0 92 -63 72 -130 -10 -34 -16 -39 -50 -45 -22 -4 -42 -14
-45 -22 -9 -23 2 -29 25 -14 33 20 30 9 -7 -32 -39 -42 -54 -41 -54 6 0 41
-37 120 -84 182 -63 82 -120 209 -132 294 -3 25 -17 90 -31 144 -21 87 -42
255 -43 357 -1 31 -2 33 -12 16 -7 -13 -9 -60 -4 -150 l7 -130 -23 21 c-13 12
-42 27 -64 33 -40 12 -46 11 -119 -24 -43 -20 -84 -35 -91 -32 -21 8 -19 134
3 158 18 20 73 24 89 8 15 -15 74 20 74 43 0 19 -46 67 -64 67 -6 0 -20 16
-30 35 -11 19 -27 35 -36 35 -9 0 -25 15 -35 33 -14 27 -16 45 -11 90 4 31 12
57 17 57 5 0 9 11 9 25 0 30 49 88 94 109 43 20 95 21 123 1 40 -28 48 -62 43
-175 -6 -118 -3 -170 9 -170 17 0 21 49 21 255 -1 158 -5 225 -16 270 -9 33
-15 86 -14 117 1 51 -2 59 -24 73 -21 14 -31 15 -61 5 -20 -7 -39 -18 -41 -25
-9 -21 15 -55 37 -55 28 0 19 -23 -14 -34 -22 -8 -30 -6 -42 10 -50 64 -9 143
79 153 5 1 26 -4 48 -11z m702 3 c3 -5 26 -12 51 -15 25 -4 45 -9 45 -12 0 -3
-9 -15 -20 -27 l-21 -22 -26 33 c-14 19 -31 31 -39 28 -8 -3 -14 1 -14 9 0 16
16 20 24 6z m156 0 c0 -11 -26 -22 -34 -14 -12 12 -5 23 14 23 11 0 20 -4 20
-9z m58 -36 c0 -23 -5 -35 -14 -35 -8 0 -13 9 -11 23 1 15 -3 21 -13 19 -10
-1 -9 2 4 13 29 22 34 19 34 -20z m42 15 c0 -5 -4 -10 -9 -10 -6 0 -13 5 -16
10 -3 6 1 10 9 10 9 0 16 -4 16 -10z m330 -5 c18 -22 9 -27 -52 -29 -42 -1
-53 2 -56 16 -5 27 87 38 108 13z m-185 -15 c3 -5 -3 -10 -14 -10 -11 0 -23 5
-26 10 -3 6 3 10 14 10 11 0 23 -4 26 -10z m-387 -25 c6 -14 18 -25 26 -25 18
0 13 -18 -19 -70 -12 -19 -27 -51 -35 -70 -7 -19 -19 -48 -26 -65 -7 -16 -16
-43 -21 -59 -12 -39 -30 -44 -42 -13 -13 33 -26 40 -49 26 -37 -23 -52 -5 -52
65 0 46 4 65 14 69 9 4 12 14 9 26 -4 15 1 20 19 23 19 2 23 9 24 37 0 39 28
56 68 41 20 -7 27 -5 40 16 21 30 30 30 44 -1z m325 9 c9 -4 17 -11 17 -16 0
-5 5 -6 12 -2 7 4 8 3 4 -4 -8 -13 -76 15 -76 31 0 5 6 6 13 3 6 -3 20 -9 30
-12z m332 6 c-3 -5 -10 -10 -16 -10 -5 0 -9 5 -9 10 0 6 7 10 16 10 8 0 12 -4
9 -10z m-516 -9 c13 -8 7 -51 -7 -51 -12 0 -33 40 -27 50 8 12 16 12 34 1z
m-869 -25 c7 -14 10 -36 6 -50 -6 -25 -54 -56 -88 -56 -28 0 -80 29 -72 41 4
6 14 2 25 -10 40 -43 119 -9 119 51 0 23 -4 28 -26 28 -14 0 -23 4 -19 10 11
18 41 10 55 -14z m1020 -59 c0 -5 -7 -6 -16 -3 -9 4 -22 2 -28 -2 -15 -12 -48
-12 -63 0 -20 16 -4 28 23 18 14 -6 27 -10 30 -10 10 0 3 29 -11 40 -8 7 -12
16 -9 21 6 10 74 -49 74 -64z m150 57 c35 1 45 -3 48 -16 2 -11 -3 -18 -12
-18 -9 0 -16 3 -16 8 0 4 -13 8 -30 9 -47 3 -60 6 -60 13 0 12 14 20 19 11 3
-4 26 -8 51 -7z m80 -8 c0 -8 -4 -18 -10 -21 -5 -3 -10 3 -10 14 0 12 5 21 10
21 6 0 10 -6 10 -14z m-851 -10 c6 -7 24 -12 41 -10 24 3 30 0 30 -15 0 -10
-3 -21 -7 -25 -4 -4 -8 -21 -9 -37 -2 -35 -20 -59 -44 -59 -13 0 -17 6 -13 20
7 27 -12 25 -31 -2 -16 -22 -16 -22 -31 -3 -17 22 -13 109 7 132 14 17 43 17
57 -1z m1021 -6 c-6 -12 -24 -23 -40 -27 -16 -3 -27 -9 -24 -14 10 -17 32 -9
74 26 23 19 45 35 49 35 5 0 6 -57 3 -126 -4 -116 -7 -128 -28 -149 -13 -13
-24 -29 -24 -35 0 -14 -73 -13 -88 2 -24 24 -13 36 27 31 21 -3 46 -1 56 4 13
7 -2 12 -56 17 -68 6 -75 5 -90 -16 -15 -19 -19 -20 -34 -8 -17 14 -75 94 -75
104 0 3 21 -6 46 -20 25 -14 52 -23 60 -20 22 8 9 22 -25 29 -17 4 -40 16 -51
27 -11 11 -25 18 -30 15 -6 -4 -10 -4 -10 -1 0 2 -3 11 -6 20 -5 13 1 16 34
16 52 0 105 23 166 71 55 44 84 52 66 19z m-593 -14 c22 6 24 4 15 -12 -5 -11
-19 -38 -31 -61 -20 -38 -49 -123 -57 -163 -2 -8 -8 -33 -13 -55 -6 -22 -18
-75 -27 -117 -16 -75 -17 -76 -42 -67 -13 5 -27 7 -30 5 -3 -3 7 -10 22 -15
26 -11 36 -31 14 -31 -6 0 -8 -3 -5 -6 3 -4 0 -16 -8 -27 -9 -13 -11 -27 -5
-43 7 -18 5 -26 -7 -32 -11 -6 -12 -11 -4 -16 15 -10 14 -26 -2 -26 -21 0 -55
42 -39 47 10 4 10 8 0 20 -11 14 -10 15 12 9 24 -7 24 -7 5 9 -17 14 -18 17
-5 25 8 5 20 10 25 10 6 0 -1 10 -15 21 l-25 21 28 -6 c34 -8 35 1 1 14 -20 8
-24 13 -15 24 6 7 13 37 16 66 3 30 10 57 16 60 5 4 9 11 8 16 -6 34 2 45 29
41 15 -2 22 -2 16 0 -6 2 -9 16 -6 30 3 18 1 24 -7 19 -6 -4 -11 -1 -11 8 0
29 22 63 48 74 26 11 26 11 2 6 -21 -4 -22 -3 -7 6 12 8 15 16 8 27 -6 11 -3
27 11 51 28 51 53 81 56 71 2 -5 15 -6 29 -3z m370 -29 c7 0 13 -5 13 -11 0
-7 -17 -11 -40 -11 -32 0 -40 3 -40 17 0 15 5 17 27 12 15 -4 33 -7 40 -7z
m77 3 c-14 -14 -54 -21 -54 -10 0 8 21 17 50 19 9 1 11 -2 4 -9z m-344 -45 c0
-5 17 -21 37 -35 21 -14 45 -33 55 -42 20 -20 48 -24 48 -8 0 6 7 10 15 10 12
0 14 8 9 40 -7 45 8 54 27 18 13 -23 49 -172 48 -198 0 -20 -25 51 -33 95 -6
33 -22 53 -32 42 -10 -9 39 -162 56 -177 10 -8 23 -33 30 -55 7 -22 19 -53 27
-69 10 -19 11 -32 5 -38 -13 -13 -85 -1 -77 13 4 5 0 31 -9 57 -8 26 -22 92
-31 147 -17 105 -18 110 -33 101 -10 -6 30 -226 49 -269 7 -15 10 -30 7 -33
-3 -3 -35 0 -70 6 -59 10 -65 14 -61 33 5 26 -16 50 -71 80 -24 14 -48 40 -65
69 -14 26 -33 56 -42 66 -8 10 -18 23 -22 28 -7 12 20 87 46 125 16 24 20 25
52 15 19 -6 35 -15 35 -21z m-458 -89 c-4 -47 -2 -55 19 -70 13 -9 38 -16 56
-16 18 0 33 -5 33 -10 0 -6 12 -15 28 -21 l27 -11 -40 -20 c-22 -12 -42 -20
-45 -18 -3 2 -9 17 -15 34 -8 25 -16 32 -43 34 -37 4 -72 -20 -72 -47 0 -12
-4 -11 -21 6 -24 24 -19 38 33 106 17 20 28 44 25 51 -4 10 9 36 18 36 1 0 0
-24 -3 -54z m-42 7 c-1 -5 -12 -21 -25 -38 -24 -29 -24 -29 -45 -10 -19 17
-19 19 -4 37 16 17 74 26 74 11z m-77 -89 c4 -25 -20 -84 -34 -84 -4 0 -10 16
-14 36 -5 27 -2 41 11 55 23 25 31 24 37 -7z m462 1 c14 -14 25 -31 25 -37 0
-27 43 -77 80 -92 46 -18 68 -50 49 -72 -7 -9 -8 -18 -3 -24 13 -13 199 -46
277 -49 16 -1 16 -3 2 -31 -8 -16 -15 -37 -15 -47 0 -15 -2 -16 -10 -3 -9 13
-11 13 -20 0 -5 -8 -15 -15 -22 -15 -8 0 -12 -9 -10 -23 4 -29 -13 -29 -23 1
l-8 22 -4 -22 c-6 -29 -23 -30 -23 -1 0 25 -15 14 -23 -17 -4 -18 -5 -18 -6 3
-1 27 -21 30 -21 2 0 -11 -4 -20 -10 -20 -5 0 -10 14 -10 32 0 36 -16 28 -23
-12 -4 -24 -4 -24 -6 3 -1 31 -21 38 -21 7 0 -11 -4 -20 -10 -20 -5 0 -10 14
-10 30 0 17 -4 30 -10 30 -5 0 -10 -14 -10 -31 0 -19 -4 -28 -11 -23 -7 4 -8
20 -4 41 5 30 4 35 -9 30 -11 -5 -16 0 -16 14 0 11 -4 17 -10 14 -5 -3 -10
-15 -10 -25 0 -10 -5 -22 -11 -26 -9 -5 -10 3 -5 30 5 25 3 36 -5 36 -8 0 -8
4 1 15 10 12 10 15 -3 15 -8 0 -17 -7 -21 -15 -13 -34 -26 -13 -24 36 4 68
-17 78 -25 12 -6 -51 18 -111 42 -106 7 2 11 -12 11 -38 0 -49 -17 -49 -42 1
-19 38 -45 66 -53 59 -2 -3 8 -30 23 -60 22 -43 33 -55 56 -59 17 -3 28 -9 25
-15 -6 -14 -51 -6 -72 13 -20 18 -31 11 -23 -16 4 -11 21 -24 39 -30 l32 -10
-42 -1 c-56 -1 -91 16 -97 48 -7 33 7 125 33 221 11 41 21 83 21 93 0 23 30
157 35 157 2 0 16 -11 30 -25z m-311 -65 c-1 -14 7 -31 16 -37 11 -8 16 -20
13 -33 -4 -16 0 -20 20 -20 40 0 51 -22 38 -74 -6 -25 -11 -62 -11 -84 0 -31
-5 -41 -26 -52 -24 -13 -27 -12 -43 9 -13 17 -24 21 -38 17 -55 -18 -74 45
-27 89 l25 24 -23 12 c-32 17 -37 27 -31 68 7 42 21 64 36 54 6 -4 8 4 4 23
-5 27 -3 30 21 29 22 0 27 -5 26 -25z m-132 -32 c-9 -9 -12 -7 -12 12 0 19 3
21 12 12 9 -9 9 -15 0 -24z m1058 22 c0 -5 -4 -10 -10 -10 -5 0 -10 5 -10 10
0 6 5 10 10 10 6 0 10 -4 10 -10z m-166 -42 c18 -35 20 -48 8 -48 -10 0 -32
45 -32 65 0 23 7 18 24 -17z m414 3 l122 -1 0 -30 0 -30 -88 0 c-50 0 -111 7
-140 15 -47 14 -54 14 -84 -2 -24 -13 -56 -18 -108 -18 l-75 0 0 30 c0 29 2
30 55 36 30 3 87 4 125 3 39 -1 125 -2 193 -3z m-1078 -11 c13 -8 13 -10 -2
-10 -9 0 -20 5 -23 10 -8 13 5 13 25 0z m-231 -9 c13 -8 12 -15 -5 -46 -24
-46 -34 -53 -34 -23 0 13 -5 29 -12 36 -8 8 -8 15 2 27 14 17 29 19 49 6z
m1162 -54 c-14 -17 -4 -27 25 -27 36 0 38 -18 2 -22 -48 -5 -48 -28 0 -28 22
0 45 -6 51 -13 9 -11 3 -14 -29 -13 -49 1 -53 -18 -5 -22 43 -4 47 -22 5 -23
-35 -2 -36 -2 -73 -17 -35 -15 -126 -16 -162 -2 -20 7 -25 15 -20 29 4 13 -1
20 -17 25 -20 6 -15 11 38 36 34 15 65 33 68 39 4 6 17 11 29 11 12 0 36 9 52
20 35 23 53 26 36 7z m571 -11 c60 -18 149 -77 170 -113 17 -29 16 -30 -13
-57 -19 -18 -29 -38 -29 -56 0 -22 -7 -32 -27 -42 -33 -16 -53 -51 -53 -96 0
-29 -2 -32 -19 -22 -28 15 -87 12 -121 -5 -34 -18 -70 -73 -70 -109 0 -14 -3
-26 -7 -26 -22 0 -110 104 -154 183 -28 50 -57 97 -65 104 -28 29 6 128 59
167 23 17 32 19 57 9 23 -9 32 -8 41 3 6 8 17 14 25 14 7 0 17 7 22 16 9 15
81 42 118 43 11 1 41 -5 66 -13z m-1806 -13 c-4 -10 2 -25 14 -38 18 -19 19
-26 9 -49 -16 -34 -22 -33 -42 9 -16 33 -16 39 -2 65 16 32 31 41 21 13z m101
-43 c-10 -15 -17 -37 -17 -48 0 -23 44 -62 69 -62 9 0 26 -6 37 -14 11 -8 36
-16 55 -18 31 -3 34 -5 31 -33 -5 -39 -9 -42 -26 -20 -9 12 -15 15 -20 7 -4
-7 -4 -16 -1 -22 3 -5 -2 -21 -11 -35 -15 -23 -15 -27 0 -50 l16 -25 -35 0
c-32 0 -35 3 -35 28 0 16 9 35 21 46 17 14 20 25 15 54 -8 50 -40 75 -88 69
-21 -3 -38 -1 -38 4 0 5 -11 9 -25 9 -30 0 -30 2 -6 65 45 118 39 108 58 90
15 -16 15 -19 0 -45z m1228 50 c8 -13 -5 -13 -25 0 -13 8 -13 10 2 10 9 0 20
-4 23 -10z m-1360 -117 c3 -15 11 -31 17 -34 7 -5 6 -23 -3 -58 -10 -40 -10
-56 -1 -69 6 -9 20 -36 31 -58 10 -23 24 -45 31 -49 18 -11 207 -13 335 -4 61
5 223 11 360 15 400 11 438 11 442 -3 4 -10 -50 -13 -244 -15 -136 0 -259 -2
-273 -3 -14 -1 -172 -5 -352 -9 l-326 -8 -11 54 c-13 59 -31 208 -31 251 0 34
15 28 25 -10z m2280 -6 c35 -20 73 -63 89 -100 3 -8 13 -2 26 16 46 58 50 43
50 -165 0 -183 -1 -190 -18 -175 -28 25 -88 47 -129 47 -36 0 -113 -42 -113
-61 0 -5 -7 -9 -15 -9 -8 0 -31 -16 -50 -36 l-36 -36 -26 23 c-20 20 -35 24
-84 24 -84 -1 -116 -29 -173 -151 -23 -51 -34 -49 -41 8 -4 29 -22 82 -39 118
-27 56 -30 73 -26 119 5 44 11 58 38 82 39 35 101 40 129 10 17 -17 55 -22 68
-9 3 3 -1 11 -10 18 -34 28 -7 120 36 120 21 0 42 40 33 65 -6 15 39 63 91 96
44 28 147 26 200 -4z m-2717 -104 c24 -24 50 -43 58 -43 8 0 14 -10 14 -24 0
-23 -2 -24 -67 -20 -36 3 -72 9 -80 15 -8 8 -13 35 -13 82 l0 70 23 -19 c12
-10 42 -38 65 -61z m1762 23 c0 -35 -5 -48 -22 -61 -21 -14 -21 -17 -7 -28 36
-28 27 -87 -14 -87 -41 0 -64 49 -35 78 8 8 8 15 -3 28 -12 14 -10 19 10 35
13 11 18 19 12 19 -6 0 -9 10 -7 23 3 12 5 25 5 30 1 4 15 7 31 7 29 0 30 -2
30 -44z m-360 14 c0 -13 -7 -20 -20 -20 -19 0 -19 1 -3 20 10 11 19 20 20 20
2 0 3 -9 3 -20z m-880 -5 c0 -18 -1 -18 38 -4 47 16 74 -2 70 -49 -3 -35 -5
-37 -34 -34 -37 4 -64 -19 -64 -54 0 -36 -14 -29 -38 21 -25 51 -28 86 -10
115 15 24 38 26 38 5z m300 -47 c0 -11 -7 -10 -31 2 -28 16 -23 32 6 18 14 -6
25 -15 25 -20z m580 5 c-1 -25 -72 -54 -84 -34 -8 13 -56 0 -56 -15 0 -26 -22
-26 -51 2 -16 15 -29 31 -29 35 0 5 37 10 83 12 45 1 94 4 110 5 15 1 27 -1
27 -5z m146 -68 c37 -24 20 -35 -50 -35 -58 0 -64 2 -70 23 -9 32 -7 37 8 31
7 -3 24 8 37 24 l24 28 14 -27 c7 -16 24 -35 37 -44z m343 13 c17 -28 19 -38
9 -38 -12 0 -38 44 -57 95 -7 19 26 -20 48 -57z m-671 -25 c21 -9 31 -18 24
-21 -29 -10 -102 57 -102 94 0 5 9 -6 20 -24 12 -19 37 -40 58 -49z m-414 52
c22 -17 29 -55 11 -55 -16 0 -40 28 -32 37 4 3 2 12 -4 20 -15 17 1 16 25 -2z
m271 -24 c3 -10 14 -26 25 -36 22 -20 26 -35 8 -35 -11 0 -68 58 -68 70 0 9
12 20 21 20 4 0 10 -8 14 -19z m59 -6 c9 -14 13 -25 10 -25 -11 0 -44 32 -44
42 0 16 18 8 34 -17z m-392 -15 c5 -32 -4 -46 -22 -35 -11 7 -14 48 -3 58 13
14 21 6 25 -23z m913 20 c3 -5 -1 -10 -9 -10 -9 0 -16 5 -16 10 0 6 4 10 9 10
6 0 13 -4 16 -10z m-1067 -34 c4 -17 -12 -35 -30 -36 -5 0 -8 14 -8 31 0 24 4
30 17 27 10 -2 19 -12 21 -22z m246 -17 c15 -14 -1 -22 -29 -15 -14 4 -25 13
-25 22 0 11 6 14 23 9 12 -4 26 -11 31 -16z m134 -2 c2 -11 -3 -17 -17 -17
-23 0 -35 15 -26 31 10 15 39 6 43 -14z m842 13 c0 -5 -4 -10 -10 -10 -5 0
-10 5 -10 10 0 6 5 10 10 10 6 0 10 -4 10 -10z m40 -40 c0 -5 -16 -10 -36 -10
-21 0 -33 4 -29 10 3 6 19 10 36 10 16 0 29 -4 29 -10z m50 0 c0 -5 -5 -10
-11 -10 -5 0 -7 5 -4 10 3 6 8 10 11 10 2 0 4 -4 4 -10z m50 -43 c0 -5 -4 -5
-10 -2 -5 3 -10 14 -10 23 0 15 2 15 10 2 5 -8 10 -19 10 -23z m-190 -67 c-7
-5 -20 -6 -28 -3 -11 5 -13 1 -7 -15 5 -19 2 -22 -22 -22 -25 -1 -26 -2 -10
-14 21 -16 23 -30 2 -23 -8 4 -17 2 -20 -2 -3 -5 2 -12 11 -15 8 -3 12 -10 9
-16 -4 -6 -10 -8 -15 -5 -5 3 -11 1 -14 -4 -4 -5 -2 -12 4 -16 18 -11 11 -35
-10 -35 -25 0 -25 -9 -2 -26 16 -12 15 -13 -5 -14 -24 0 -31 -14 -13 -25 16
-10 12 -28 -5 -22 -8 4 -17 2 -20 -4 -4 -5 1 -12 9 -15 25 -9 19 -24 -9 -24
-25 0 -27 -5 -29 -60 -1 -14 -5 -25 -11 -25 -20 0 -34 -16 -28 -30 6 -17 -12
-21 -22 -5 -10 17 -26 0 -20 -21 4 -13 2 -19 -9 -19 -9 0 -16 -6 -16 -13 0 -7
-13 -28 -30 -47 -16 -19 -29 -40 -30 -46 0 -6 -9 -19 -20 -29 -11 -10 -20 -31
-20 -47 0 -28 -13 -37 -25 -18 -10 17 -58 11 -90 -10 -38 -25 -53 -25 -80 0
-25 23 -93 30 -105 11 -6 -10 -13 -10 -32 3 -27 18 -50 14 -82 -13 -14 -12
-20 -13 -23 -3 -3 6 -8 10 -13 7 -4 -2 -30 2 -58 10 -28 9 -62 13 -75 10 -22
-6 -25 -2 -31 29 -4 22 -13 36 -22 36 -8 0 -19 11 -24 24 -5 13 -14 27 -19 31
-15 9 -14 25 2 25 7 0 23 -14 36 -31 12 -16 32 -35 44 -40 12 -6 35 -17 51
-26 25 -13 33 -13 65 -1 26 10 54 13 96 8 33 -4 95 -3 139 1 52 5 84 4 95 -3
42 -26 106 7 199 102 77 80 100 107 127 154 28 48 75 176 75 205 0 15 46 118
61 137 4 5 25 8 45 6 23 -3 32 -7 24 -12z m-1617 -4 c61 -25 94 -75 118 -176
11 -50 19 -93 17 -96 -3 -2 -24 3 -48 11 -23 8 -61 15 -83 15 -23 0 -48 7 -58
16 -28 26 -98 35 -138 18 -18 -8 -35 -14 -37 -14 -2 0 -4 39 -4 86 0 74 2 85
16 80 9 -3 25 1 37 9 12 8 29 15 37 15 9 0 26 11 38 25 25 28 57 32 105 11z
m914 -20 c-8 -11 -28 -23 -45 -27 -17 -3 -50 -23 -73 -43 -23 -20 -45 -36 -48
-36 -3 0 -12 12 -19 27 -14 31 0 55 20 35 17 -17 48 -15 48 3 0 8 -4 15 -10
15 -5 0 -10 7 -10 15 0 18 27 20 32 3 3 -7 11 -9 24 -3 10 4 27 7 37 6 14 -2
17 2 13 17 -6 16 -3 19 19 14 24 -4 25 -6 12 -26z m213 24 c0 -5 -4 -10 -9
-10 -6 0 -13 5 -16 10 -3 6 1 10 9 10 9 0 16 -4 16 -10z m203 3 c4 -3 -3 -11
-15 -17 -13 -7 -25 -25 -29 -45 -4 -18 -13 -44 -20 -58 -17 -31 -75 -67 -96
-59 -13 5 -6 12 26 28 44 22 71 60 71 102 0 39 10 56 34 56 13 0 26 -3 29 -7z
m-696 -18 c8 -9 16 -28 17 -43 0 -15 16 -42 39 -66 20 -22 37 -44 37 -50 0
-34 -77 -126 -105 -126 -26 0 -16 28 20 56 57 43 60 56 21 103 -19 22 -37 46
-39 53 -4 10 -8 10 -15 -1 -7 -9 -7 -20 0 -30 7 -12 4 -26 -13 -53 -23 -35
-73 -67 -86 -55 -9 9 27 59 46 64 17 4 43 48 34 57 -3 3 -14 1 -25 -5 -37 -20
-41 -3 -5 19 37 21 49 53 25 68 -10 6 5 18 30 23 2 1 10 -6 19 -14z m413 11
c0 -3 -4 -8 -10 -11 -5 -3 -10 -1 -10 4 0 6 5 11 10 11 6 0 10 -2 10 -4z m170
-27 c0 -18 -18 -9 -23 12 -4 16 -3 18 9 8 8 -6 14 -15 14 -20z m220 21 c8 -5
12 -11 9 -14 -3 -3 -14 1 -25 9 -21 16 -8 20 16 5z m-998 -22 c-6 -6 -16 -7
-22 -3 -9 6 -9 9 1 16 17 10 34 0 21 -13z m1004 -18 c6 0 17 -7 24 -15 10 -12
10 -15 -3 -15 -9 0 -19 5 -22 10 -4 6 -15 8 -26 5 -13 -4 -19 -2 -19 9 0 9 -9
16 -20 16 -11 0 -20 6 -20 14 0 11 8 10 37 -5 21 -10 42 -19 49 -19z m262 28
c7 -7 12 -27 12 -45 0 -28 -4 -33 -24 -33 -13 0 -26 7 -30 15 -4 10 1 15 14
15 26 0 26 30 0 37 -11 3 -20 9 -20 14 0 13 34 11 48 -3z m201 -9 c13 -11 21
-22 18 -25 -3 -3 -18 6 -34 20 -32 30 -19 35 16 5z m-1189 -4 c0 -8 -9 -15
-20 -15 -25 0 -26 17 -2 23 9 3 18 5 20 6 1 0 2 -6 2 -14z m280 -6 c0 -5 -11
-9 -25 -9 -26 0 -34 15 -12 23 16 5 37 -3 37 -14z m108 -12 c4 -29 -7 -34 -39
-17 -22 12 -25 36 -6 43 25 11 42 1 45 -26z m72 -2 c4 -23 11 -30 28 -29 31 1
27 -18 -7 -39 -33 -19 -56 -14 -72 15 -8 15 -8 23 1 28 7 5 10 16 6 25 -8 22
2 37 22 33 10 -2 19 -16 22 -33z m679 -6 c36 -16 79 -40 97 -54 39 -30 74 -95
73 -138 0 -18 -3 -26 -6 -19 -27 67 -24 -136 8 -473 20 -217 37 -303 68 -358
48 -84 57 -97 64 -97 12 0 8 16 -12 41 -29 38 -60 103 -70 152 -25 108 -55
586 -39 603 3 3 11 -21 17 -53 45 -236 87 -409 102 -419 5 -3 9 -13 9 -22 0
-9 25 -86 56 -170 48 -130 63 -158 96 -190 50 -46 71 -87 64 -118 -10 -39 -33
-29 -32 13 1 27 -4 38 -15 41 -12 2 -15 -4 -11 -26 6 -46 -13 -72 -53 -72 -19
0 -35 -4 -35 -9 0 -6 -12 -23 -28 -40 -26 -29 -30 -30 -95 -27 -48 3 -74 10
-89 23 -14 12 -22 14 -25 6 -3 -8 -16 -5 -41 10 -46 26 -52 34 -52 73 0 33
-69 125 -70 93 0 -8 11 -26 25 -39 18 -17 25 -34 25 -61 0 -29 7 -43 31 -64
18 -14 45 -29 61 -32 15 -3 31 -10 34 -14 3 -5 14 -9 25 -9 11 0 17 -5 14 -10
-10 -16 -75 0 -120 29 -22 15 -59 55 -82 89 -59 89 -60 98 -37 559 5 114 3
162 -10 240 -26 149 -56 251 -80 273 -12 10 -35 31 -53 47 -32 28 -32 28 -21
83 13 63 23 80 49 80 33 0 59 36 52 71 -6 29 -5 31 18 24 13 -4 53 -21 88 -36z
m-1395 -1 c-24 -29 -37 -38 -44 -32 -4 5 49 54 59 54 2 0 -4 -10 -15 -22z
m-73 -8 c-21 -19 -41 -26 -41 -16 0 12 33 36 48 36 14 -1 12 -5 -7 -20z m189
15 c0 -9 -59 -35 -80 -35 -49 0 1 38 53 39 15 1 27 -1 27 -4z m2116 -27 c49
-37 46 -24 48 -225 1 -70 -3 -113 -9 -113 -23 0 -32 18 -38 73 -7 71 -23 98
-74 123 -51 24 -153 26 -180 2 -11 -11 -27 -15 -41 -11 -12 3 -46 2 -75 -1
-45 -6 -55 -12 -76 -41 -13 -19 -30 -35 -38 -35 -8 0 -26 -12 -41 -27 -15 -15
-42 -38 -60 -50 l-33 -23 -9 26 c-8 20 -6 31 12 54 11 16 27 31 35 34 9 4 12
13 8 25 -4 13 0 20 14 24 14 3 18 11 14 26 -4 14 4 30 25 51 27 26 38 30 85
30 49 0 59 -4 86 -31 25 -25 32 -28 37 -15 3 9 11 16 18 16 6 0 16 10 21 23 7
15 19 22 38 22 18 1 33 8 39 20 20 38 51 55 102 55 40 0 57 -6 92 -32z m-1318
-10 c4 -33 -21 -39 -38 -9 -16 30 -12 43 13 39 16 -2 23 -11 25 -30z m-404 13
c3 -5 -3 -11 -14 -14 -11 -3 -19 -11 -18 -19 2 -8 -9 -14 -31 -16 -21 -2 -31
0 -26 7 3 6 14 11 23 11 10 0 23 9 30 20 13 21 27 26 36 11z m470 -16 c11 -8
17 -17 14 -21 -8 -8 -48 14 -48 26 0 14 12 12 34 -5z m-367 -38 c12 -11 29
-17 37 -14 11 5 16 0 16 -13 0 -27 -30 -26 -53 1 -10 11 -24 19 -31 16 -7 -3
-13 5 -14 20 -2 26 7 24 45 -10z m-227 -2 c0 -17 -4 -23 -14 -19 -8 3 -24 0
-36 -6 -34 -18 -37 -2 -5 25 38 31 55 31 55 0z m160 15 c0 -12 -8 -12 -35 0
-18 8 -17 9 8 9 15 1 27 -3 27 -9z m566 -85 c-20 -95 -65 -184 -113 -224 -51
-42 -76 -41 -37 2 73 78 102 132 130 241 29 113 44 99 20 -19z m-1143 63 c-13
-12 -26 -18 -30 -14 -4 4 1 14 11 22 31 22 43 17 19 -8z m877 7 c0 -7 -39 -45
-45 -45 -3 0 2 11 11 25 14 22 34 34 34 20z m128 -1 c26 -7 27 -26 4 -77 l-17
-39 -23 48 -23 47 25 -16 c31 -21 36 -21 36 -3 0 7 -10 21 -22 29 -24 17 -17
21 20 11z m-938 -9 c0 -3 -9 -16 -21 -28 -18 -20 -39 -58 -52 -97 -4 -12 -6
-11 -6 3 -1 23 25 87 46 109 15 17 33 24 33 13z m510 -15 c0 -5 -4 -10 -10
-10 -5 0 -10 5 -10 10 0 6 5 10 10 10 6 0 10 -4 10 -10z m-110 -4 c0 -3 -4 -8
-10 -11 -5 -3 -10 -1 -10 4 0 6 5 11 10 11 6 0 10 -2 10 -4z m61 -17 c12 -12
31 -19 47 -18 15 2 36 -2 46 -8 10 -6 27 -8 37 -6 11 3 19 0 19 -6 0 -6 -6
-11 -14 -11 -8 0 -18 -5 -21 -10 -11 -18 16 -41 43 -38 14 2 27 -3 29 -9 3 -8
-3 -13 -14 -13 -29 0 -43 -20 -43 -63 0 -53 -14 -75 -55 -83 -19 -3 -39 -12
-46 -20 -15 -18 -26 -17 -74 6 -22 11 -44 19 -49 20 -6 0 -20 10 -33 22 -17
16 -23 32 -23 65 0 40 -2 43 -19 33 -25 -13 -31 -13 -31 0 0 6 9 10 19 10 23
0 32 18 20 41 -11 21 26 30 62 16 l24 -9 -27 -10 c-35 -12 -36 -24 -1 -33 22
-5 32 -2 46 16 18 23 18 24 -4 42 -13 10 -30 16 -39 14 -10 -3 -22 7 -33 24
-13 24 -13 29 -2 29 8 0 17 -4 20 -10 11 -18 64 -11 77 10 16 24 14 24 39 -1z
m-301 -10 c0 -11 -27 -12 -34 0 -3 4 -3 11 0 14 8 8 34 -3 34 -14z m710 -24
c0 -5 -5 -3 -10 5 -5 8 -10 20 -10 25 0 6 5 3 10 -5 5 -8 10 -19 10 -25z
m-962 0 c-8 -17 -14 -22 -19 -14 -10 16 0 39 17 39 11 0 11 -5 2 -25z m912 -5
c0 -11 -21 -13 -44 -4 -13 5 -14 10 -5 20 12 15 49 2 49 -16z m-836 -7 c-1
-16 -9 -44 -17 -63 -15 -33 -15 -34 -16 -9 -1 23 24 99 32 99 2 0 2 -12 1 -27z
m731 17 c-3 -5 -13 -10 -21 -10 -8 0 -14 5 -14 10 0 6 9 10 21 10 11 0 17 -4
14 -10z m1398 -31 c43 -19 67 -67 67 -133 0 -48 3 -56 18 -56 11 0 27 -9 36
-19 15 -17 17 -40 15 -188 -2 -146 -5 -172 -21 -195 -11 -16 -28 -28 -38 -28
-10 0 -22 -4 -25 -10 -3 -5 -24 -10 -47 -10 -33 0 -47 -7 -75 -35 -33 -33 -37
-34 -53 -20 -9 8 -28 15 -41 15 -14 0 -34 7 -45 15 -23 17 -96 20 -127 4 -12
-6 -32 -22 -43 -36 l-21 -25 -31 94 c-17 52 -40 144 -52 204 -11 60 -25 123
-30 140 -15 45 -12 79 8 102 19 24 82 43 112 35 14 -4 20 0 20 11 0 11 -9 16
-30 16 -16 0 -30 4 -30 9 0 13 25 20 49 14 16 -4 21 -1 21 14 0 51 79 88 147
70 36 -9 42 -8 63 13 19 19 30 22 74 17 28 -3 63 -11 79 -18z m-1847 -26 c-10
-10 -19 5 -10 18 6 11 8 11 12 0 2 -7 1 -15 -2 -18z m477 1 c20 -27 17 -54 -7
-54 -18 0 -36 30 -36 59 0 28 21 26 43 -5z m111 10 c11 -30 6 -37 -14 -19 -11
10 -20 22 -20 27 0 15 28 9 34 -8z m-812 -31 c-5 -31 -20 -53 -34 -53 -12 0
-1 49 14 67 17 21 26 15 20 -14z m46 0 c0 -33 -6 -45 -18 -38 -7 5 6 65 15 65
1 0 3 -12 3 -27z m730 -19 c-10 -10 -28 6 -28 24 0 15 1 15 17 -1 9 -9 14 -19
11 -23z m87 27 c3 -5 1 -12 -5 -16 -5 -3 -10 1 -10 9 0 18 6 21 15 7z m250
-31 c14 -15 15 -20 4 -20 -8 0 -20 9 -27 20 -7 11 -8 20 -4 20 5 0 17 -9 27
-20z m-943 4 c3 -3 4 -13 1 -23 -3 -13 -11 -17 -24 -14 -21 6 -21 6 -13 27 6
16 25 21 36 10z m668 -26 c0 -5 -4 -8 -10 -8 -5 0 -10 10 -10 23 0 18 2 19 10
7 5 -8 10 -18 10 -22z m-180 -14 c0 -14 -3 -14 -15 -4 -8 7 -15 14 -15 16 0 2
7 4 15 4 8 0 15 -7 15 -16z m410 7 c0 -12 -20 -25 -27 -18 -7 7 6 27 18 27 5
0 9 -4 9 -9z m-1023 -13 c6 17 42 15 49 -3 7 -17 -45 -94 -64 -95 -10 0 -12 8
-7 31 7 30 6 31 -19 25 -21 -5 -26 -3 -26 13 0 27 30 43 49 28 11 -9 15 -9 18
1z m748 -19 c0 -20 -5 -24 -30 -24 -25 0 -30 -3 -27 -22 2 -13 -2 -23 -9 -23
-9 0 -9 -3 0 -14 10 -11 7 -17 -11 -30 -12 -9 -30 -16 -40 -16 -11 0 -18 -7
-18 -19 0 -37 -64 -64 -98 -43 -7 5 -15 25 -19 45 l-6 37 42 0 c30 0 41 -4 41
-15 0 -8 7 -15 15 -15 9 0 15 9 15 25 0 16 5 23 13 19 7 -2 21 2 32 10 16 11
17 17 8 27 -8 8 -16 9 -25 2 -9 -7 -23 -3 -46 13 -34 23 -28 44 6 23 25 -16
52 -5 52 21 0 11 5 20 11 20 7 0 8 -11 4 -30 -7 -34 13 -44 22 -10 3 11 14 20
24 20 11 0 19 7 19 16 0 9 6 14 13 12 6 -3 12 -16 12 -29z m386 -6 c6 -16 12
-35 13 -43 1 -8 7 -26 13 -40 5 -14 13 -68 16 -122 5 -78 4 -98 -8 -108 -8 -7
-15 -26 -15 -42 0 -26 2 -29 15 -18 8 7 15 24 16 39 l0 26 10 -25 c10 -25 11
-164 1 -208 -4 -23 -16 -22 -18 1 -4 49 -6 52 -13 27 -8 -28 -51 -42 -51 -16
0 10 6 13 16 9 13 -5 15 -2 8 18 -9 30 -6 168 6 209 5 19 5 32 -2 36 -5 3 -8
25 -7 48 2 22 -1 64 -6 91 -5 28 -9 60 -9 72 -1 12 -7 28 -13 35 -18 17 -16
38 2 38 9 0 20 -12 26 -27z m-1001 -2 c0 -5 -9 -13 -20 -16 -11 -3 -20 -12
-20 -18 0 -7 -7 -5 -16 5 -9 9 -13 21 -10 27 9 13 66 15 66 2z m933 -18 c8
-16 17 -44 21 -63 6 -34 4 -37 -28 -48 -56 -21 -86 4 -86 71 0 30 4 36 38 50
20 8 38 15 39 16 1 1 9 -11 16 -26z m-876 11 c-3 -3 -12 -4 -19 -1 -8 3 -5 6
6 6 11 1 17 -2 13 -5z m-13 -29 c12 -9 22 -34 27 -66 7 -47 6 -53 -18 -75 -29
-27 -71 -32 -78 -9 -3 8 -7 22 -10 30 -4 13 -8 13 -25 3 -18 -11 -23 -10 -36
6 -18 25 -18 57 0 82 14 18 16 18 32 2 14 -14 15 -20 6 -30 -13 -13 -16 -38
-4 -38 4 1 17 9 30 20 20 17 21 22 10 40 -11 18 -10 23 6 36 24 17 36 17 60
-1z m401 -25 c3 -5 1 -10 -4 -10 -6 0 -11 5 -11 10 0 6 2 10 4 10 3 0 8 -4 11
-10z m355 -16 c0 -8 -5 -12 -10 -9 -6 4 -8 11 -5 16 9 14 15 11 15 -7z m-466
-29 c-4 -8 -15 -15 -25 -15 -21 0 -26 16 -6 23 24 10 36 7 31 -8z m-204 -21
c11 -27 6 -44 -11 -44 -6 0 -8 9 -4 19 3 11 1 22 -5 26 -13 8 -13 25 0 25 6 0
15 -12 20 -26z m549 1 c-35 -19 -43 -43 -24 -71 8 -13 15 -31 15 -40 0 -9 9
-29 21 -45 59 -84 84 -237 54 -330 -18 -55 -81 -150 -122 -182 -37 -29 -44
-50 -30 -88 18 -52 90 -151 148 -203 43 -39 58 -46 93 -46 22 0 48 -5 56 -10
11 -8 0 -10 -40 -9 -89 3 -103 1 -96 -16 4 -12 -3 -15 -30 -15 -51 0 -38 -23
15 -26 23 -1 45 -5 48 -8 4 -3 -87 -6 -201 -6 -191 0 -206 1 -191 16 13 13 26
15 63 9 66 -10 213 -11 219 -2 2 4 -3 10 -11 13 -23 9 -20 41 4 47 11 3 20 11
20 17 0 8 -9 10 -25 6 -17 -4 -25 -2 -25 7 0 15 -61 75 -102 100 -18 11 -28
26 -28 41 0 17 -14 35 -42 58 -24 18 -49 38 -56 45 -7 7 -18 13 -24 13 -5 0
-8 6 -5 13 2 6 10 12 18 12 8 0 14 7 14 15 0 14 -21 18 -50 10 -26 -6 -51 2
-63 21 -11 18 -11 24 3 39 20 22 12 40 -18 40 -37 0 -85 36 -89 66 -5 41 -26
41 -43 1 -16 -40 -49 -67 -80 -67 -11 0 -27 -5 -35 -10 -13 -8 -13 -11 1 -25
9 -10 14 -26 11 -41 -3 -20 -10 -24 -37 -24 -39 0 -65 -8 -65 -21 0 -5 7 -9
15 -9 26 0 16 -18 -15 -29 -16 -5 -30 -16 -30 -23 0 -7 -18 -21 -39 -31 -41
-19 -67 -57 -63 -92 2 -16 -11 -38 -42 -71 -25 -26 -46 -51 -46 -56 0 -4 -9
-8 -21 -8 -27 0 -19 -24 9 -28 14 -2 22 -11 22 -23 0 -15 -8 -19 -42 -21 -68
-2 -141 3 -167 13 -16 6 -28 6 -37 -2 -8 -7 -17 -9 -21 -5 -3 3 -1 6 6 6 6 0
11 8 9 17 -2 15 8 19 60 25 48 5 68 12 83 30 58 69 130 247 109 273 -8 10 -8
15 1 20 7 5 -6 24 -38 54 -41 37 -53 56 -63 99 -14 61 -6 175 14 195 8 7 16
23 20 34 4 12 32 47 62 78 31 31 64 75 75 98 10 23 19 38 20 32 3 -21 -3 -61
-12 -77 -7 -13 -6 -18 5 -18 8 0 18 5 21 10 4 6 11 5 20 -4 15 -14 11 -38 -15
-101 -7 -16 -16 -39 -21 -50 -16 -40 -17 -117 -2 -152 16 -41 59 -83 82 -83 9
0 21 -10 26 -22 15 -34 30 -23 30 19 0 38 0 38 45 41 66 4 92 42 74 108 -7 26
-53 54 -91 54 -42 0 -10 17 47 25 37 5 54 2 83 -15 20 -12 37 -28 37 -36 0
-24 45 -15 74 15 19 20 42 31 73 36 49 7 82 -8 40 -19 -36 -9 -63 -69 -47
-106 15 -37 39 -57 70 -62 22 -3 26 -9 30 -48 6 -54 24 -55 28 -2 3 36 6 40
42 51 67 20 120 101 120 184 0 16 4 26 10 22 17 -11 11 -93 -11 -139 -22 -49
-52 -73 -99 -83 -29 -5 -42 -23 -17 -23 27 0 77 19 96 37 31 29 71 124 71 169
0 43 -58 182 -86 205 -27 22 -16 62 26 99 22 19 40 43 40 52 0 17 42 45 70 47
8 0 3 -6 -11 -14z m-419 -5 c0 -5 -4 -10 -10 -10 -5 0 -10 5 -10 10 0 6 5 10
10 10 6 0 10 -4 10 -10z m478 -33 c-5 -32 -34 -45 -55 -24 -12 12 -14 20 -6
28 8 8 13 8 17 0 13 -21 28 -11 24 14 -4 21 -3 23 9 13 8 -6 13 -20 11 -31z
m-518 11 c0 -23 -18 -41 -34 -35 -9 4 -16 16 -16 27 0 15 7 20 25 20 14 0 25
-6 25 -12z m82 -20 c-15 -15 -26 -4 -18 18 5 13 9 15 18 6 9 -9 9 -15 0 -24z
m507 -51 l1 -37 -25 16 c-16 11 -35 14 -57 10 l-33 -7 26 15 c15 9 37 32 49
53 23 38 23 38 31 13 4 -14 7 -42 8 -63z m65 71 c52 -15 51 -14 32 -34 -28
-27 -17 -67 22 -79 37 -11 45 -44 12 -52 -11 -3 -20 -9 -20 -14 0 -5 -7 -9
-15 -9 -11 0 -15 -11 -15 -37 l-1 -38 -15 35 c-14 32 -13 36 5 61 18 24 18 28
5 48 -8 11 -24 21 -35 21 -16 0 -19 7 -19 39 0 22 -3 46 -6 55 -7 19 -3 19 50
4z m96 -54 c0 -45 -5 -55 -26 -47 -17 6 -19 60 -1 66 9 3 9 7 -1 19 -10 13
-10 17 0 21 19 6 28 -12 28 -59z m-1233 -50 c-3 -3 -12 -4 -19 -1 -8 3 -5 6 6
6 11 1 17 -2 13 -5z m1031 -16 c12 -12 -1 -48 -17 -48 -7 0 -31 43 -31 55 0
10 36 5 48 -7z m87 -28 c0 -13 -6 -25 -12 -27 -9 -3 -13 6 -13 27 0 21 4 30
13 28 6 -3 12 -15 12 -28z m-538 -16 c24 -26 22 -49 -8 -64 -23 -13 -65 6 -72
31 -6 21 18 27 26 7 3 -10 7 -10 17 -1 17 16 5 43 -20 43 -11 0 -20 5 -20 11
0 18 52 0 77 -27z m-313 -4 c32 -34 29 -54 -9 -72 -33 -15 -75 3 -75 32 0 11
5 21 10 21 6 1 15 2 22 3 26 3 19 26 -9 26 -22 0 -25 2 -13 10 25 16 44 11 74
-20z m177 -4 c11 -40 -5 -66 -41 -66 -37 0 -48 -18 -21 -36 37 -26 24 -58 -18
-47 -18 5 -21 11 -16 33 3 14 2 45 -4 68 -5 23 -5 42 -1 42 5 0 15 3 24 6 11
4 16 1 16 -10 0 -9 8 -16 21 -16 11 0 17 5 14 10 -3 6 -1 10 4 10 6 0 11 5 11
10 0 6 -12 10 -26 10 -15 0 -23 4 -19 11 13 20 48 5 56 -25z m252 15 c-13 -11
-23 -22 -23 -26 0 -10 64 6 72 19 5 6 8 2 8 -11 0 -56 -86 -87 -108 -39 -10
22 -8 28 19 50 17 15 36 26 42 26 7 -1 2 -9 -10 -19z m374 -3 c-3 -8 -6 -5 -6
6 -1 11 2 17 5 13 3 -3 4 -12 1 -19z m-8 -27 c14 -9 24 -88 12 -96 -14 -8 -34
14 -47 51 -17 50 -3 69 35 45z m161 -32 c0 -11 -4 -17 -10 -14 -5 3 -10 13
-10 21 0 8 5 14 10 14 6 0 10 -9 10 -21z m-409 -21 c6 -22 4 -24 -18 -20 -15
3 -20 8 -14 12 7 4 9 15 5 25 -5 12 -3 16 6 13 8 -2 17 -16 21 -30z m-221 -10
c0 -7 3 -23 6 -35 5 -20 2 -23 -21 -23 -22 0 -25 3 -16 13 13 17 5 27 -17 20
-11 -3 -9 3 7 16 26 24 41 27 41 9z m160 2 c0 -5 -4 -10 -10 -10 -5 0 -10 5
-10 10 0 6 5 10 10 10 6 0 10 -4 10 -10z m-453 -67 c-1 0 -20 -4 -42 -8 -36
-6 -38 -5 -22 8 9 8 17 17 17 20 0 3 -8 7 -17 10 -13 2 -9 8 17 19 l35 15 7
-31 c3 -17 6 -32 5 -33z m208 57 c-3 -5 -10 -10 -16 -10 -5 0 -9 5 -9 10 0 6
7 10 16 10 8 0 12 -4 9 -10z m701 -85 c-6 -62 -4 -74 10 -79 13 -5 14 -9 4
-21 -7 -8 -16 -15 -20 -15 -4 0 -12 42 -18 94 -16 124 -16 119 9 105 20 -10
21 -16 15 -84z m-502 70 c3 -8 3 -21 0 -29 -7 -18 44 -30 85 -21 17 3 32 2 36
-4 4 -7 -16 -11 -59 -11 -36 0 -66 4 -66 8 0 5 -13 7 -29 4 -35 -5 -45 9 -30
42 14 29 53 36 63 11z m446 -7 c0 -7 3 -29 6 -49 6 -35 5 -36 -18 -32 -13 3
-30 14 -37 25 -11 17 -9 24 10 44 25 26 39 31 39 12z m-970 -8 c0 -5 -6 -10
-14 -10 -8 0 -18 5 -21 10 -3 6 3 10 14 10 12 0 21 -4 21 -10z m640 0 c0 -5
-19 -9 -42 -9 -40 1 -41 2 -13 9 44 11 55 11 55 0z m-650 -30 c11 -7 7 -10
-17 -10 -18 0 -33 5 -33 10 0 13 30 13 50 0z m354 2 c2 -4 -4 -13 -14 -20 -14
-9 -19 -8 -24 3 -7 18 27 34 38 17z m546 -2 c0 -5 -2 -10 -4 -10 -3 0 -8 5
-11 10 -3 6 -1 10 4 10 6 0 11 -4 11 -10z m1215 -27 c-2 -10 -4 -29 -5 -43 -1
-24 -1 -24 -12 -5 -6 11 -18 25 -26 31 -13 10 -13 13 4 22 28 17 43 14 39 -5z
m-2091 -16 c-3 -8 -19 -11 -45 -9 -45 5 -41 18 6 24 37 5 46 1 39 -15z m256
19 c0 -2 -7 -6 -15 -10 -8 -3 -15 -1 -15 4 0 6 7 10 15 10 8 0 15 -2 15 -4z
m335 -23 l40 -8 -55 -6 c-58 -6 -74 -3 -65 12 7 11 26 11 80 2z m305 -2 c0 -5
-5 -11 -10 -13 -28 -9 -3 -142 30 -163 13 -8 3 -25 -16 -25 -8 0 -14 7 -14 15
0 17 -5 18 -29 6 -36 -20 -42 1 -22 79 11 41 18 78 15 82 -3 4 -2 13 1 18 8
13 45 13 45 1z m-630 -11 c0 -5 -4 -10 -10 -10 -5 0 -10 5 -10 10 0 6 5 10 10
10 6 0 10 -4 10 -10z m1756 4 c14 -4 24 -16 28 -35 3 -17 12 -29 21 -29 13 0
15 -25 15 -177 0 -199 -4 -230 -27 -211 -8 7 -24 13 -36 15 -11 2 -34 12 -51
23 -37 22 -96 38 -181 50 -103 13 -135 34 -135 87 0 57 59 95 90 58 19 -23 26
-18 27 20 1 34 -9 45 -23 24 -3 -6 -17 -8 -30 -5 -17 5 -32 -2 -58 -24 -38
-34 -37 -35 -60 36 -14 44 -17 117 -5 128 15 13 72 36 89 36 30 0 60 -18 60
-35 0 -17 31 -20 46 -5 5 5 15 6 23 1 11 -7 10 -14 -8 -36 -27 -35 -29 -103
-3 -135 11 -13 24 -20 30 -16 8 5 6 13 -8 28 -23 25 -25 55 -8 93 11 24 19 29
46 26 7 -1 17 11 23 26 16 49 75 73 135 57z m-1044 -76 c0 -26 1 -54 2 -60 1
-7 -10 -13 -24 -13 -22 0 -25 4 -22 29 2 22 0 27 -12 23 -21 -8 -38 17 -30 47
8 34 31 47 61 33 19 -8 23 -19 25 -59z m-983 53 c15 -9 4 -18 -19 -16 -8 1
-25 3 -37 3 -13 1 -23 7 -23 12 0 12 60 13 79 1z m-624 -21 c3 -5 -1 -10 -9
-10 -9 0 -16 5 -16 10 0 6 4 10 9 10 6 0 13 -4 16 -10z m1243 -2 c-5 -15 -129
-24 -185 -13 -60 11 -27 20 82 24 86 2 106 0 103 -11z m-503 -18 c4 -6 -28
-10 -89 -10 -57 0 -96 4 -96 10 0 6 36 10 89 10 50 0 93 -4 96 -10z m993 -50
c-2 -7 -10 1 -17 16 -12 27 -11 28 4 12 10 -9 16 -21 13 -28z m-992 19 c12
-21 -14 -34 -40 -19 -17 9 -41 11 -75 6 -32 -4 -51 -3 -51 3 0 6 30 12 68 14
37 2 72 4 79 5 6 1 15 -3 19 -9z m474 2 c0 -16 -27 -20 -104 -14 -110 8 -104
23 8 23 53 0 96 -4 96 -9z m483 -29 c12 -24 12 -31 -1 -50 -8 -12 -20 -22 -27
-22 -17 0 -28 30 -16 44 6 7 8 22 4 34 -8 33 22 28 40 -6z m-1685 -92 c3 -94
-4 -143 -18 -121 -12 20 -12 121 0 121 7 0 8 6 2 16 -4 8 -6 28 -4 45 8 55 17
29 20 -61z m637 80 c-3 -5 -13 -10 -21 -10 -8 0 -14 5 -14 10 0 6 9 10 21 10
11 0 17 -4 14 -10z m498 -7 c-7 -2 -19 -2 -25 0 -7 3 -2 5 12 5 14 0 19 -2 13
-5z m596 -80 c-1 -38 1 -75 4 -83 3 -8 8 -42 11 -74 4 -33 12 -66 18 -73 6 -7
9 -16 6 -19 -8 -8 -57 55 -64 82 -4 14 -1 31 6 39 7 9 10 18 6 22 -3 3 -6 1
-6 -5 0 -7 -5 -12 -11 -12 -6 0 -8 8 -4 19 3 11 1 22 -5 26 -8 5 -6 13 6 26
13 15 14 22 5 33 -10 12 -9 22 4 50 10 20 19 36 22 36 3 0 4 -30 2 -67z m-829
37 c0 -12 -79 -10 -86 2 -3 4 15 8 40 8 25 0 46 -4 46 -10z m708 -18 c6 -18
-15 -14 -22 4 -4 10 -1 14 6 12 6 -2 14 -10 16 -16z m-140 -27 c2 -15 1 -43
-3 -62 -5 -28 -10 -34 -28 -31 -18 2 -22 9 -21 38 3 77 45 121 52 55z m-528
15 c0 -13 -66 -24 -87 -14 -14 6 -7 9 27 14 25 4 48 8 53 8 4 1 7 -2 7 -8z
m453 -18 c-6 -24 -23 -30 -23 -9 0 13 21 39 26 34 2 -2 1 -13 -3 -25z m187 -2
c29 -40 20 -62 -22 -58 -29 3 -33 7 -36 37 -3 31 9 50 30 51 4 0 16 -14 28
-30z m70 -6 c0 -14 -4 -23 -10 -19 -5 3 -10 15 -10 26 0 10 5 19 10 19 6 0 10
-12 10 -26z m-806 -10 c9 -3 16 -10 16 -15 0 -4 11 -19 24 -33 20 -22 32 -26
82 -26 42 0 55 -3 44 -10 -21 -13 -113 -13 -127 1 -16 16 -32 3 -26 -20 6 -25
-11 -35 -27 -16 -9 10 -9 15 -1 15 6 0 11 7 11 15 0 8 -6 15 -14 15 -7 0 -19
-7 -26 -15 -8 -10 -29 -15 -64 -14 -28 1 -41 4 -28 6 12 2 22 9 22 14 0 5 11
9 24 9 34 0 42 18 14 29 -24 10 -21 12 24 14 34 2 38 20 6 29 -22 6 -22 6 4 7
14 1 33 -2 42 -5z m794 -53 c19 -12 -17 -74 -38 -65 -41 17 -62 16 -76 -5 -21
-29 -34 -18 -30 27 4 37 4 37 44 34 23 -2 49 1 59 7 22 13 25 13 41 2z m-320
-40 c2 -13 12 -26 23 -28 19 -5 26 -28 10 -37 -12 -8 -49 35 -57 68 -5 22 -4
28 7 24 8 -3 16 -15 17 -27z m52 20 c0 -12 -20 -25 -27 -18 -7 7 6 27 18 27 5
0 9 -4 9 -9z m106 -38 c-3 -8 -6 -26 -6 -40 0 -35 -43 -29 -48 7 -2 14 -8 30
-12 35 -5 6 7 11 32 12 31 1 38 -2 34 -14z m-809 1 c-3 -3 -12 -4 -19 -1 -8 3
-5 6 6 6 11 1 17 -2 13 -5z m426 -34 c-3 -10 0 -21 6 -24 16 -10 13 -54 -6
-86 -20 -35 -78 -55 -133 -46 -32 5 -41 3 -38 -6 3 -7 24 -15 49 -18 44 -5 48
-10 38 -50 -3 -10 3 -15 16 -15 15 0 19 6 18 23 -3 25 9 29 26 8 9 -11 10 -20
1 -35 -16 -31 -84 -29 -132 4 -20 14 -41 25 -46 25 -5 0 -8 14 -6 30 3 23 0
30 -14 31 -10 0 -12 3 -4 6 17 7 15 33 -3 33 -8 0 -15 5 -15 10 0 6 6 10 14
10 17 0 28 24 20 45 -4 9 3 18 17 24 13 6 38 19 54 30 17 12 44 21 62 21 17 0
35 4 38 10 10 16 43 -11 38 -30z m-1099 15 c-4 -8 -11 -12 -16 -9 -6 4 -5 10
3 15 19 12 19 11 13 -6z m812 -41 c1 -22 9 -67 18 -102 23 -90 21 -109 -11
-125 -16 -8 -43 -17 -61 -20 -41 -8 -102 15 -102 39 0 22 29 43 61 44 14 0 34
7 45 15 23 17 12 19 -38 5 -33 -9 -41 -7 -82 20 -51 35 -58 59 -31 110 20 39
49 53 91 45 20 -3 34 -2 34 4 0 13 30 19 55 11 15 -6 20 -17 21 -46z m864 47
c0 -5 3 -18 7 -28 6 -16 5 -16 -10 -4 -19 15 -23 41 -7 41 6 0 10 -4 10 -9z
m-1501 -68 c-1 -50 -3 -61 -9 -43 -12 36 -12 110 0 110 6 0 10 -29 9 -67z
m741 57 c0 -5 -4 -10 -9 -10 -6 0 -13 5 -16 10 -3 6 1 10 9 10 9 0 16 -4 16
-10z m1470 -5 c8 -9 29 -15 56 -15 33 0 50 -6 74 -28 27 -25 29 -30 15 -42 -8
-7 -15 -20 -15 -29 0 -10 -16 -24 -37 -34 -37 -16 -39 -16 -65 3 -15 11 -33
20 -40 20 -9 0 -9 3 0 12 16 16 15 69 -3 92 -25 34 -11 53 15 21z m-792 -7
c20 -20 14 -36 -20 -52 -38 -20 -39 -20 -31 0 3 9 0 20 -7 24 -11 7 -11 11 -1
24 16 19 42 21 59 4z m963 -27 c13 -10 38 -23 54 -29 22 -8 25 -11 10 -11 -11
-1 -31 6 -43 15 -12 8 -35 22 -50 30 -16 8 -21 14 -11 14 9 0 27 -8 40 -19z
m-1685 -7 c-3 -9 -6 -22 -6 -30 0 -8 -4 -14 -10 -14 -11 0 -14 43 -3 53 12 13
25 7 19 -9z m524 6 c0 -6 14 -17 31 -24 l31 -13 -32 -13 c-28 -12 -33 -11 -51
9 -17 18 -18 25 -9 36 14 17 30 20 30 5z m305 -30 c18 0 46 -46 39 -65 -6 -14
-8 -14 -23 -1 -9 8 -28 17 -43 21 -25 6 -38 28 -38 68 0 17 2 17 26 -2 15 -12
32 -21 39 -21z m-1691 -11 c1 -51 -18 -52 -22 0 -2 30 0 42 9 39 7 -2 13 -20
13 -39z m1161 -9 c3 -5 -1 -10 -9 -10 -9 0 -16 5 -16 10 0 6 4 10 9 10 6 0 13
-4 16 -10z m445 -16 c0 -9 -11 -14 -30 -14 -36 0 -39 11 -7 26 26 12 37 9 37
-12z m-1050 6 c0 -5 -9 -10 -20 -10 -11 0 -20 5 -20 10 0 6 9 10 20 10 11 0
20 -4 20 -10z m2113 -60 c21 -22 30 -80 13 -80 -8 0 -16 9 -19 20 -3 11 -1 20
4 20 5 0 9 7 9 15 0 9 -10 15 -26 15 -14 0 -23 4 -19 9 3 5 1 12 -4 16 -5 3
-9 15 -8 26 1 20 2 20 19 -3 10 -12 24 -30 31 -38z m20 46 c6 -16 -2 -28 -14
-20 -12 7 -11 34 0 34 5 0 11 -6 14 -14z m-1508 -16 c-44 -11 -65 -11 -65 0 0
6 21 9 48 9 42 -1 44 -2 17 -9z m299 -13 c30 -24 29 -47 -2 -47 -19 0 -62 41
-62 59 0 19 33 12 64 -12z m306 0 c0 -8 9 -22 20 -32 25 -23 25 -35 0 -35 -24
0 -53 41 -44 64 7 19 24 21 24 3z m-1215 -7 c7 -12 -22 -12 -50 0 -17 7 -15 9
12 9 17 1 35 -3 38 -9z m1115 -7 c18 -10 47 -33 65 -50 18 -18 42 -33 54 -33
11 0 25 -9 31 -19 5 -11 20 -21 32 -23 20 -3 17 -6 -17 -22 -39 -17 -40 -17
-54 3 -17 26 -35 27 -28 2 7 -26 -22 -36 -38 -14 -7 10 -12 20 -11 23 2 3 6
13 10 24 5 15 9 16 21 6 26 -21 29 -3 5 30 -33 46 -99 66 -83 25 3 -8 0 -15
-6 -15 -6 0 -14 -1 -18 -2 -5 -2 -11 16 -14 40 -6 48 2 52 51 25z m-1432 -5
c-4 -15 22 -18 40 -5 7 6 12 6 12 0 0 -19 -36 -40 -93 -53 -50 -12 -60 -11
-67 0 -5 8 -7 17 -5 21 4 5 46 18 77 23 4 1 13 7 20 14 15 15 19 15 16 0z
m923 -18 c6 -16 17 -30 24 -30 7 0 18 -7 26 -16 10 -13 10 -17 -2 -25 -12 -8
-12 -10 1 -19 11 -7 7 -10 -17 -10 -38 0 -57 27 -51 72 3 16 1 31 -4 34 -8 5
-2 24 8 24 3 0 10 -13 15 -30z m427 -6 c3 -18 -1 -20 -28 -16 -28 4 -39 20
-23 36 14 14 48 1 51 -20z m-1098 6 c0 -5 -5 -10 -11 -10 -5 0 -7 5 -4 10 3 6
8 10 11 10 2 0 4 -4 4 -10z m2083 3 c-7 -2 -19 -2 -25 0 -7 3 -2 5 12 5 14 0
19 -2 13 -5z m-1475 -32 c3 -8 -1 -12 -9 -9 -7 2 -15 10 -17 17 -3 8 1 12 9 9
7 -2 15 -10 17 -17z m166 10 c3 -4 -6 -6 -19 -3 -14 2 -25 6 -25 8 0 8 39 4
44 -5z m1196 -1 c0 -5 -7 -10 -15 -10 -8 0 -15 5 -15 10 0 6 7 10 15 10 8 0
15 -4 15 -10z m-2472 -17 c-36 -14 -49 -35 -29 -48 5 -3 12 3 14 12 3 10 5 -2
6 -27 0 -26 4 -50 9 -55 4 -6 5 -32 1 -60 -3 -27 -7 -38 -7 -22 -2 33 -18 36
-28 5 -8 -22 -8 -22 -15 7 l-7 30 -1 -33 c0 -18 -5 -31 -10 -27 -12 7 -6 74 8
88 13 13 14 86 1 107 -7 12 -2 18 23 27 49 18 79 15 35 -4z m2610 10 c-10 -2
-28 -2 -40 0 -13 2 -5 4 17 4 22 1 32 -1 23 -4z m-2075 -46 c21 -8 22 -21 1
-38 -13 -10 -17 -10 -23 0 -7 10 -13 10 -29 2 -11 -6 -24 -11 -27 -11 -10 0 6
43 23 63 14 15 18 16 27 5 5 -8 18 -17 28 -21z m27 29 c0 -3 -4 -8 -10 -11 -5
-3 -10 -1 -10 4 0 6 5 11 10 11 6 0 10 -2 10 -4z m60 -21 c0 -21 -5 -25 -27
-25 -25 1 -26 2 -10 14 9 7 17 18 17 25 0 6 5 11 10 11 6 0 10 -11 10 -25z
m1807 19 c-3 -4 -2 -15 4 -25 7 -14 6 -19 -4 -19 -21 0 -38 -25 -31 -44 9 -24
37 -21 29 4 -6 18 -2 20 40 20 l46 0 -2 -50 c-4 -66 14 -68 25 -3 l9 52 74 3
73 3 0 -72 0 -73 -261 0 c-218 0 -260 2 -250 14 8 10 6 23 -11 53 -21 39 -21
41 -5 58 13 12 16 26 12 46 -6 28 -6 28 47 32 98 6 211 7 205 1z m-2530 -36
c-3 -7 -5 -2 -5 12 0 14 2 19 5 13 2 -7 2 -19 0 -25z m1993 17 c0 -8 -7 -15
-15 -15 -8 0 -15 7 -15 15 0 8 7 15 15 15 8 0 15 -7 15 -15z m-190 -10 c0 -8
-4 -15 -10 -15 -5 0 -10 7 -10 15 0 8 5 15 10 15 6 0 10 -7 10 -15z m-1576
-24 c-22 -21 -27 -21 -18 3 3 9 13 16 22 16 13 0 12 -3 -4 -19z m1379 8 c-8
-8 -19 -8 -40 -1 -28 10 -28 10 12 11 28 1 36 -2 28 -10z m157 -4 c23 -27 1
-35 -98 -33 -89 2 -91 2 -24 5 59 3 75 8 85 23 14 24 21 25 37 5z m325 6 c18
-4 25 -9 19 -14 -16 -9 -105 3 -98 14 6 10 34 10 79 0z m165 -7 c0 -17 -22
-14 -28 4 -2 7 3 12 12 12 9 0 16 -7 16 -16z m493 9 c-13 -2 -35 -2 -50 0 -16
2 -5 4 22 4 28 0 40 -2 28 -4z m-2003 -23 c0 -5 -4 -10 -10 -10 -5 0 -10 5
-10 10 0 6 5 10 10 10 6 0 10 -4 10 -10z m306 -9 c5 1 16 0 24 -1 27 -5 -113
-18 -209 -19 -52 0 -91 2 -87 7 4 4 17 8 29 8 126 7 200 14 205 18 3 3 11 1
18 -4 6 -6 16 -10 20 -9z m1099 -1 c3 -5 15 -10 25 -10 27 0 78 -46 65 -59
-12 -12 -127 -17 -144 -7 -16 10 -14 29 4 23 18 -8 26 5 15 23 -5 9 -5 19 2
27 13 16 25 17 33 3z m-2269 -37 c-11 -11 -19 6 -11 24 8 17 8 17 12 0 3 -10
2 -21 -1 -24z m828 16 c-3 -5 -44 -8 -92 -8 l-87 1 59 9 c32 5 61 10 62 12 8
8 63 -6 58 -14z m1358 10 c19 -10 19 -11 1 -28 -10 -9 -35 -17 -56 -18 -21 -1
-46 -8 -56 -17 -10 -9 -24 -16 -32 -16 -16 0 -69 39 -53 40 5 0 16 -6 23 -12
10 -11 16 -8 30 11 13 17 23 22 39 16 16 -4 22 -2 22 8 0 26 46 35 82 16z
m-1542 -9 c0 -5 -4 -10 -10 -10 -5 0 -10 5 -10 10 0 6 5 10 10 10 6 0 10 -4
10 -10z m-145 -10 c3 -5 -3 -10 -15 -10 -12 0 -18 5 -15 10 3 6 10 10 15 10 5
0 12 -4 15 -10z m-135 -14 c0 -12 16 -15 79 -14 43 0 83 -2 87 -5 5 -3 158 1
339 9 182 7 492 14 690 15 l360 2 -3 -33 c-1 -18 2 -38 8 -45 8 -10 8 -15 -1
-21 -14 -8 -1643 -9 -1657 0 -4 2 -6 21 -4 40 3 29 8 36 26 36 12 0 31 7 42
15 24 18 34 19 34 1z m1695 -66 c22 0 38 6 41 15 9 21 42 19 40 -2 -1 -15 10
-19 59 -23 l60 -5 -64 -7 c-35 -5 -99 -8 -143 -8 -72 0 -79 2 -87 23 -13 32
-4 39 29 22 16 -8 45 -15 65 -15z"/>
<g>
<path d="M999 4501 c-13 -10 -34 -21 -46 -25 -14 -4 -23 -15 -23 -27 0 -25 20
-24 27 2 4 15 11 19 28 15 17 -4 27 1 39 19 15 22 22 25 51 19 23 -4 35 -2 35
5 0 19 -85 13 -111 -8z"/>
</g>
<g>
<path d="M1108 3997 c-5 -10 -8 -28 -8 -40 -1 -34 -26 -60 -66 -66 -44 -7 -55
-26 -20 -35 25 -6 42 -37 31 -56 -3 -5 -18 -11 -33 -11 -23 -2 -24 -2 -5 -6
12 -2 33 3 47 12 13 9 43 16 65 17 36 0 39 2 31 19 -15 27 -12 59 5 59 21 0
19 9 -9 31 -17 13 -26 32 -28 57 -2 28 -5 32 -10 19z m22 -102 c0 -8 -7 -15
-15 -15 -8 0 -15 7 -15 15 0 8 7 15 15 15 8 0 15 -7 15 -15z"/>
</g>
<g>
<path d="M1157 4004 c-13 -13 -7 -24 14 -24 11 0 19 5 17 12 -5 14 -22 21 -31
12z"/>
</g>
<g>
<path d="M1046 3983 c-11 -11 -6 -21 14 -26 11 -3 22 -1 25 3 7 11 -30 32 -39
23z"/>
</g>
<g>
<path d="M810 3934 c0 -14 3 -14 15 -4 11 9 15 9 15 1 0 -7 5 -9 10 -6 15 9 2
25 -21 25 -11 0 -19 -7 -19 -16z"/>
</g>
<g>
<path d="M700 3931 c0 -5 11 -8 25 -8 13 0 22 3 19 8 -3 5 -14 9 -25 9 -10 0
-19 -4 -19 -9z"/>
</g>
<g>
<path d="M2781 2995 c13 -13 28 -25 33 -25 5 0 -1 11 -14 25 -13 14 -28 25
-33 25 -5 0 1 -11 14 -25z"/>
</g>
<g>
<path d="M1100 3689 c0 -5 8 -9 18 -10 13 0 13 -2 -4 -9 -12 -5 -25 -14 -30
-21 -4 -7 -3 -10 4 -5 6 3 14 1 17 -5 9 -14 55 28 49 45 -5 13 -54 18 -54 5z"/>
</g>
<g>
<path d="M1535 2980 c-4 -6 -11 -7 -17 -4 -6 4 -8 -1 -6 -11 4 -22 68 -51 68
-30 0 7 -6 16 -12 18 -8 4 -7 6 4 6 9 1 23 4 32 7 10 4 16 1 16 -9 0 -32 73
-28 94 6 14 22 -3 36 -18 14 -15 -19 -46 -23 -46 -6 0 6 -7 9 -15 6 -8 -4 -17
-2 -20 3 -8 13 -72 13 -80 0z"/>
</g>
<g>
<path d="M1712 2890 c7 -11 16 -16 21 -11 12 12 0 31 -19 31 -12 0 -12 -3 -2
-20z"/>
</g>
<g>
<path d="M1490 2880 c0 -5 5 -10 11 -10 5 0 7 5 4 10 -3 6 -8 10 -11 10 -2 0
-4 -4 -4 -10z"/>
</g>
<g>
<path d="M978 2858 c5 -5 16 -8 23 -6 8 3 3 7 -10 11 -17 4 -21 3 -13 -5z"/>
</g>
<g>
<path d="M940 2710 c8 -5 22 -9 30 -9 10 0 8 3 -5 9 -27 12 -43 12 -25 0z"/>
</g>
<g>
<path d="M917 2653 c-11 -10 -8 -20 7 -26 8 -3 13 0 12 8 -3 19 -11 27 -19 18z"/>
</g>
<g>
<path d="M1168 3004 c-7 -11 7 -50 21 -59 16 -9 14 28 -2 50 -8 10 -16 14 -19
9z"/>
</g>
<g>
<path d="M1224 2893 c11 -46 28 -83 38 -83 6 0 7 8 3 18 -3 9 -12 34 -18 55
-14 43 -32 51 -23 10z"/>
</g>
<g>
<path d="M1185 2893 c4 -10 13 -49 20 -86 16 -84 30 -101 22 -27 -8 71 -25
130 -39 130 -6 0 -7 -8 -3 -17z"/>
</g>
<g>
<path d="M1046 2781 c-3 -4 6 -19 19 -31 23 -22 25 -22 25 -4 0 21 -36 49 -44
35z"/>
</g>
<g>
<path d="M1100 2691 c0 -5 6 -14 14 -20 16 -13 32 2 21 19 -8 12 -35 13 -35 1z"/>
</g>
<g>
<path d="M1131 2636 c-9 -10 -6 -17 13 -30 29 -19 52 -21 61 -5 4 6 1 9 -6 8
-20 -4 -61 20 -54 32 9 14 -1 11 -14 -5z"/>
</g>
<g>
<path d="M1187 2644 c-4 -4 -4 -10 -1 -15 6 -10 34 0 34 12 0 10 -24 12 -33 3z"/>
</g>
<g>
<path d="M2120 1981 c0 -5 7 -22 15 -37 9 -17 15 -56 15 -96 0 -39 4 -68 10
-68 17 0 12 138 -6 176 -15 32 -34 46 -34 25z"/>
</g>
<g>
<path d="M2136 1708 c-29 -252 -47 -459 -49 -596 -1 -100 1 -132 11 -132 8 0
12 19 13 58 2 60 4 84 9 117 5 32 18 -74 19 -151 1 -48 6 -75 15 -83 12 -10
13 6 9 106 -5 138 -17 197 -39 189 -21 -8 -20 0 21 370 18 154 18 164 6 164
-6 0 -12 -19 -15 -42z"/>
</g>
<g>
<path d="M2256 823 c-3 -4 7 -19 24 -34 16 -15 30 -37 30 -48 0 -23 16 -37 23
-19 7 23 -14 68 -43 88 -15 11 -30 16 -34 13z"/>
</g>
<g>
<path d="M1225 1906 c-19 -14 -19 -15 -1 -35 21 -23 60 -28 72 -10 9 15 -16
30 -38 23 -10 -3 -18 -1 -18 5 0 6 9 11 19 11 11 0 23 5 26 10 9 15 -38 12
-60 -4z"/>
</g>
<g>
<path d="M1163 1798 c2 -7 14 -13 27 -13 13 0 25 6 28 13 2 8 -7 12 -28 12
-21 0 -30 -4 -27 -12z"/>
</g>
<g>
<path d="M1152 1754 c-17 -8 -5 -24 19 -24 11 0 17 -4 14 -10 -3 -5 1 -10 10
-10 9 0 13 5 10 10 -4 6 5 10 20 10 43 0 24 25 -21 27 -21 1 -45 0 -52 -3z"/>
</g>
<g>
<path d="M1990 1356 c0 -14 4 -27 9 -30 5 -3 9 6 9 19 0 14 -4 28 -9 31 -5 3
-9 -6 -9 -20z"/>
</g>
<g>
<path d="M820 980 c0 -6 7 -13 17 -17 14 -5 13 -8 -5 -14 -22 -8 -31 -29 -12
-29 22 0 8 -26 -20 -37 -20 -8 -30 -18 -30 -32 0 -12 5 -21 10 -21 6 0 10 5
10 10 0 6 12 16 26 22 24 11 64 76 64 104 0 12 -22 24 -46 24 -8 0 -14 -5 -14
-10z"/>
</g>
<g>
<path d="M1412 964 c-21 -14 -21 -17 -7 -45 18 -34 40 -39 32 -7 -4 12 -1 28
5 35 18 22 -4 35 -30 17z"/>
</g>
<g>
<path d="M1050 1320 c0 -5 7 -10 15 -10 8 0 15 5 15 10 0 6 -7 10 -15 10 -8 0
-15 -4 -15 -10z"/>
</g>
<g>
<path d="M1375 1329 c-10 -15 3 -25 16 -12 7 7 7 13 1 17 -6 3 -14 1 -17 -5z"/>
</g>
<g>
<path d="M1080 940 c0 -12 27 -12 55 0 16 7 13 9 -17 9 -21 1 -38 -3 -38 -9z"/>
</g>
<g>
<path d="M1292 838 c-20 -20 -14 -43 12 -46 32 -2 53 22 36 43 -15 18 -32 19
-48 3z"/>
</g>
<g>
<path d="M1040 846 c0 -9 5 -16 10 -16 6 0 10 4 10 9 0 6 -4 13 -10 16 -5 3
-10 -1 -10 -9z"/>
</g>
<g>
<path d="M925 816 c-21 -15 -14 -46 11 -46 10 0 14 5 10 15 -3 8 -1 15 5 15 5
0 12 -7 15 -15 8 -21 24 -19 24 3 0 20 -18 42 -35 42 -6 0 -20 -6 -30 -14z"/>
</g>
<g>
<path d="M971 631 c-17 -11 -7 -41 13 -41 17 0 39 34 29 44 -9 8 -25 7 -42 -3z"/>
</g>
<g>
<path d="M2710 813 c0 -5 14 -16 30 -25 25 -14 30 -15 30 -2 0 8 -12 19 -26
24 -30 12 -34 12 -34 3z"/>
</g>
<g>
<path d="M480 662 c0 -5 7 -9 15 -9 8 0 12 4 9 9 -3 4 -9 8 -15 8 -5 0 -9 -4
-9 -8z"/>
</g>
<g>
<path d="M450 650 c0 -5 5 -10 10 -10 6 0 10 5 10 10 0 6 -4 10 -10 10 -5 0
-10 -4 -10 -10z"/>
</g>
<g>
<path d="M258 567 c-12 -29 -10 -73 3 -60 6 6 9 26 7 44 -2 26 -5 30 -10 16z"/>
</g>
<g>
<path d="M2847 544 c-9 -10 2 -24 19 -24 8 0 14 7 14 15 0 15 -21 21 -33 9z"/>
</g>
</g>
<g>
<path d="M3 1550 c0 -25 2 -35 4 -22 2 12 2 32 0 45 -2 12 -4 2 -4 -23z"/>
</g>
<g>
<path d="M3 1030 c0 -47 2 -66 4 -42 2 23 2 61 0 85 -2 23 -4 4 -4 -43z"/>
</g>
<g>
<path d="M110 298 c-13 -5 -33 -16 -42 -25 -35 -32 -15 -138 31 -163 11 -5 36
-10 56 -10 27 0 44 -8 65 -29 31 -30 73 -44 109 -34 32 8 26 18 -20 33 -67 22
-72 33 -42 86 23 41 25 49 14 85 -6 21 -21 43 -31 49 -27 15 -110 19 -140 8z
m88 -34 c17 -11 22 -25 22 -58 0 -50 -13 -66 -55 -66 -42 0 -55 11 -62 53 -4
29 -1 40 20 61 30 30 44 32 75 10z"/>
</g>
<g>
<path d="M1846 301 l-48 -6 21 -19 c24 -22 27 -54 7 -82 -14 -18 -16 -17 -35
26 -11 25 -21 53 -21 63 0 13 -9 17 -43 17 -52 0 -65 -9 -36 -24 11 -6 33 -40
49 -75 29 -66 53 -101 70 -101 5 0 10 6 10 14 0 8 10 32 22 52 20 33 23 35 32
19 59 -99 77 -106 99 -38 20 62 43 112 63 141 16 22 16 22 -25 22 -22 0 -41
-4 -41 -10 0 -5 7 -10 15 -10 20 0 19 -6 -13 -68 l-28 -53 -22 41 c-26 49 -28
68 -7 76 8 4 15 10 15 15 0 9 -5 9 -84 0z"/>
</g>
<g>
<path d="M2253 303 c-27 -5 -29 -12 -8 -27 20 -14 26 -147 8 -153 -25 -9 -12
-23 21 -23 32 0 33 1 42 53 l9 52 33 -58 32 -57 88 5 c131 9 149 13 172 42 26
33 27 102 2 133 -16 20 -31 24 -100 28 -55 3 -82 1 -82 -6 0 -6 5 -14 11 -18
11 -7 8 -148 -3 -160 -15 -14 -57 11 -77 46 l-21 38 25 16 c35 23 35 73 -1 86
-25 10 -108 11 -151 3z m117 -53 c0 -23 -4 -30 -20 -30 -23 0 -35 22 -26 45 3
8 15 15 26 15 16 0 20 -7 20 -30z m229 14 c20 -15 23 -23 19 -65 -6 -59 -21
-79 -59 -79 l-29 0 0 73 c0 41 3 77 7 80 11 12 38 8 62 -9z"/>
</g>
<g>
<path d="M2745 295 c-37 -12 -54 -33 -49 -60 6 -30 33 -45 81 -45 41 0 43 -1
43 -30 0 -40 -24 -49 -54 -21 -12 11 -27 21 -33 21 -11 0 -63 -42 -63 -51 0
-3 40 -5 89 -4 99 1 121 12 121 55 0 38 -29 60 -78 60 -40 0 -42 1 -42 30 0
34 21 40 57 15 20 -14 23 -14 33 6 7 11 9 23 6 26 -10 10 -81 9 -111 -2z"/>
</g>
<g>
<path d="M300 290 c0 -5 5 -10 10 -10 6 0 10 -25 10 -55 0 -31 6 -71 14 -89
12 -28 20 -34 55 -40 24 -3 50 -2 61 4 14 7 25 7 38 -1 21 -13 76 -4 67 11 -3
6 -17 10 -31 10 -23 0 -24 2 -24 74 0 41 5 78 10 81 19 12 -1 25 -36 25 -35 0
-46 -13 -19 -24 11 -4 15 -21 15 -64 0 -62 -11 -82 -46 -82 -36 0 -49 27 -49
101 l0 69 -37 0 c-21 0 -38 -4 -38 -10z"/>
</g>
<g>
<path d="M587 294 c-4 -4 -7 -52 -7 -106 l0 -98 49 0 c47 0 81 17 81 41 0 15
-27 10 -34 -6 -3 -8 -14 -15 -25 -15 -14 0 -21 10 -26 36 -7 42 5 63 25 39 19
-23 30 -18 30 15 0 27 -2 30 -25 24 -23 -6 -25 -3 -25 25 0 24 4 31 20 31 13
0 20 -7 20 -20 0 -11 7 -20 16 -20 11 0 14 8 12 28 -3 25 -7 27 -53 30 -28 2
-54 0 -58 -4z"/>
</g>
<g>
<path d="M778 292 l-28 -3 0 -93 0 -93 52 -5 c41 -4 55 -2 65 11 7 9 13 19 13
24 0 13 -27 8 -40 -8 -18 -22 -29 -19 -41 12 -13 36 -4 60 17 43 19 -16 40 1
30 25 -4 11 -12 14 -26 10 -17 -6 -20 -2 -20 29 0 26 4 36 15 36 9 0 18 -7 21
-15 8 -19 34 -20 34 -1 0 19 -22 35 -45 33 -11 -1 -32 -3 -47 -5z"/>
</g>
<g>
<path d="M885 290 c-3 -6 4 -14 16 -18 21 -8 22 -14 20 -82 -2 -54 -7 -77 -18
-85 -21 -16 -5 -24 35 -18 28 5 47 23 23 23 -11 0 -13 49 -4 93 5 27 6 27 45
-30 47 -69 63 -82 88 -76 23 6 31 35 19 76 -15 52 -11 85 11 97 11 6 18 15 15
21 -8 12 -95 12 -95 -1 0 -5 7 -10 15 -10 11 0 15 -12 15 -45 0 -25 -3 -45 -7
-45 -11 0 -47 62 -45 76 4 22 -121 44 -133 24z"/>
</g>
<g>
<path d="M1517 282 c-20 -22 -22 -73 -5 -90 7 -7 34 -12 60 -12 26 0 49 -4 49
-10 5 -47 2 -55 -20 -58 -13 -2 -36 6 -52 17 -40 30 -69 28 -69 -4 0 -17 6
-25 18 -26 23 -2 32 -3 68 -12 22 -6 44 -3 70 8 60 25 69 54 31 98 -18 21 -32
27 -65 27 -36 0 -42 3 -42 20 0 24 27 37 43 21 19 -19 37 -12 37 14 0 24 -3
25 -53 25 -40 0 -58 -5 -70 -18z"/>
</g>
<g>
<path d="M2052 273 c-42 -60 -31 -142 21 -162 24 -9 92 -7 118 3 49 21 59 108
17 161 -17 22 -28 25 -78 25 -53 0 -61 -3 -78 -27z m102 -4 c38 -18 41 -107 3
-131 -17 -11 -21 -10 -45 12 -17 16 -22 32 -22 69 0 64 12 73 64 50z"/>
</g>
<g>
<path d="M2 185 c0 -16 2 -22 5 -12 2 9 2 23 0 30 -3 6 -5 -1 -5 -18z"/>
</g>
<g>
<path d="M1238 179 c-37 -21 -9 -89 36 -89 28 0 56 19 56 38 0 48 -50 76 -92
51z m52 -24 c15 -19 6 -47 -14 -39 -17 6 -29 32 -20 45 8 13 20 11 34 -6z"/>
</g>
<g>
<path d="M3 90 c0 -30 2 -43 4 -28 2 16 2 40 0 55 -2 16 -4 3 -4 -27z"/>
</g>
<g>
<path d="M2897 124 c-4 -4 -7 -11 -7 -16 0 -13 50 -6 53 7 2 12 -36 19 -46 9z"/>
</g>
</g>
</svg>
