<?xml version="1.0" standalone="no"?>
<!DOCTYPE svg PUBLIC "-//W3C//DTD SVG 20010904//EN"
 "http://www.w3.org/TR/2001/REC-SVG-20010904/DTD/svg10.dtd">
<svg version="1.0" xmlns="http://www.w3.org/2000/svg"
 width="300.000000pt" height="529.000000pt" viewBox="0 0 300.000000 529.000000"
 preserveAspectRatio="xMidYMid meet">
<metadata>
Created by potrace 1.15, written by Peter Selinger 2001-2017
</metadata>
<g transform="translate(0.000000,529.000000) scale(0.100000,-0.100000)"
fill="#000000" stroke="none">
<g>
<path d="M261 5283 c-151 -2 -239 -7 -248 -14 -11 -10 -13 -367 -13 -2057 0
-1125 2 -2043 4 -2041 4 5 19 1846 22 2749 1 360 6 806 10 991 l7 337 331 6
c263 5 1410 1 1936 -7 52 -1 224 2 382 7 l287 9 2 -824 c2 -453 3 -1218 3
-1701 1 -482 4 -880 9 -884 4 -4 7 767 7 1714 l0 1721 -47 -5 c-27 -3 -262 -4
-523 -3 -705 1 -781 1 -1195 0 -209 -1 -461 0 -560 2 -99 2 -285 2 -414 0z"/>
</g>
<g>
<path d="M1388 5153 c-106 -4 -128 -12 -88 -33 19 -10 60 -78 60 -99 0 -5 -15
-11 -32 -13 -40 -4 -40 -21 0 -29 45 -9 322 5 323 16 0 6 -9 11 -21 13 -17 3
-20 11 -20 58 0 53 0 54 29 54 27 0 49 15 39 25 -7 7 -182 12 -290 8z m23 -64
c-1 -13 -8 -33 -14 -44 -10 -18 -12 -17 -28 20 -18 40 -18 40 4 46 33 10 42 5
38 -22z m89 -18 c0 -49 0 -49 -36 -53 -19 -2 -37 -1 -39 2 -4 7 15 67 28 88 5
6 17 12 28 12 16 0 19 -7 19 -49z m80 -7 c0 -47 -3 -55 -16 -50 -9 3 -18 6
-20 6 -2 0 -4 23 -4 50 0 43 3 50 20 50 18 0 20 -7 20 -56z"/>
</g>
<g>
<path d="M389 4594 c-4 -34 6 -83 22 -113 22 -41 19 -48 -13 -28 -32 21 -69 7
-61 -23 8 -31 48 -43 89 -28 49 17 64 1 41 -47 -20 -43 -13 -68 41 -127 21
-24 50 -59 64 -78 14 -19 44 -55 67 -80 22 -25 41 -48 41 -52 0 -17 -40 -7
-50 11 -13 24 -48 37 -63 22 -8 -8 -5 -11 9 -11 12 0 29 -9 39 -20 10 -11 13
-20 8 -20 -6 0 -16 7 -23 15 -7 8 -20 15 -29 15 -11 0 -8 -7 12 -24 31 -27 28
-51 -5 -40 -15 4 -19 2 -16 -7 8 -23 38 -22 64 2 21 19 24 20 30 5 8 -20 24
-21 24 -2 0 27 29 25 59 -6 27 -28 29 -35 25 -82 -9 -89 -12 -96 -45 -103 -48
-9 -99 -89 -69 -108 16 -10 13 -18 -42 -101 -83 -127 -128 -226 -128 -282 0
-48 21 -92 43 -92 7 0 26 -7 42 -16 17 -9 47 -18 67 -20 21 -2 63 -11 94 -20
56 -16 56 -16 48 -48 -18 -73 -1 -166 31 -166 7 0 18 -7 25 -14 6 -8 32 -16
57 -18 l46 -3 4 -76 c2 -42 -1 -107 -7 -145 -21 -135 -29 -258 -18 -271 15
-19 1 -63 -20 -63 -40 0 -143 -136 -209 -277 -36 -78 -47 -113 -52 -173 l-7
-75 -9 65 c-5 36 -10 106 -10 155 0 70 -4 96 -18 115 -17 24 -17 25 2 28 11 2
25 10 31 18 17 19 -4 44 -36 44 -20 0 -24 5 -24 28 0 33 -30 65 -57 60 -20 -4
-30 -45 -14 -61 7 -7 4 -14 -12 -21 -31 -16 -34 -46 -6 -67 l24 -18 -34 -28
-34 -29 26 -76 c14 -41 28 -113 32 -159 4 -46 13 -122 21 -168 14 -84 11 -111
-7 -78 -6 9 -24 24 -41 33 -28 15 -32 14 -47 -1 -15 -15 -14 -18 9 -37 14 -11
26 -25 26 -32 1 -6 2 -17 3 -23 2 -19 38 -16 45 3 8 21 31 12 32 -13 1 -11 4
-32 8 -46 5 -20 2 -29 -14 -37 -28 -15 -97 -165 -115 -251 -8 -39 -18 -75 -21
-80 -10 -17 -36 -222 -40 -312 -3 -92 -13 -117 -45 -117 -27 0 -47 -45 -31
-71 16 -24 15 -29 -3 -29 -8 0 -19 -9 -25 -20 -9 -16 -21 -20 -63 -20 -55 0
-97 -20 -97 -46 0 -21 28 -17 35 6 4 14 15 20 33 20 23 -1 25 -2 12 -13 -22
-17 -60 -85 -60 -106 0 -34 85 -55 112 -28 7 8 36 21 64 31 28 9 66 28 84 41
18 13 37 22 42 19 13 -9 71 17 86 38 9 13 26 18 56 18 35 0 45 4 49 20 3 13
14 20 30 20 28 0 32 -15 42 -175 3 -49 8 -119 11 -155 3 -50 2 -61 -6 -47 -7
11 -18 16 -29 12 -10 -3 -37 1 -60 10 -23 8 -54 12 -69 9 -21 -4 -34 1 -55 22
-34 34 -34 41 3 62 20 11 29 24 28 36 -2 14 7 22 32 31 40 13 54 45 20 45 -32
0 -81 -24 -120 -60 -19 -17 -45 -41 -58 -52 -21 -19 -31 -20 -103 -15 -65 5
-81 4 -85 -8 -9 -23 -56 -18 -86 10 -15 14 -32 25 -39 25 -6 0 -9 9 -6 23 7
27 20 124 47 327 31 244 82 604 85 610 2 3 10 73 19 155 20 186 45 383 53 413
3 12 10 22 17 21 6 -1 19 1 29 6 11 4 23 3 30 -4 18 -18 47 -13 47 8 0 14 -5
18 -20 14 -14 -4 -20 0 -20 12 0 11 5 15 15 11 8 -3 15 -1 15 4 0 6 9 19 20
30 43 43 10 92 -34 51 -21 -20 -24 -20 -30 -5 -12 31 -36 -4 -36 -52 0 -24 -4
-44 -10 -44 -14 0 -13 27 5 128 9 48 22 128 31 177 28 163 36 200 55 241 24
50 24 102 2 126 -13 14 -15 23 -7 35 13 21 36 29 29 11 -3 -7 8 -20 26 -31
l32 -18 -7 32 c-3 18 -11 38 -18 46 -6 8 -12 32 -12 55 -1 27 -7 44 -18 52
-26 16 -42 -6 -40 -54 2 -23 -2 -40 -8 -40 -5 0 -10 4 -10 10 0 5 -10 14 -21
21 -17 9 -25 8 -37 -5 -14 -14 -14 -19 -1 -42 8 -15 22 -29 32 -32 31 -8 18
-29 -22 -36 -21 -3 -44 -13 -51 -21 -7 -8 -18 -73 -25 -145 -6 -72 -14 -133
-18 -136 -3 -3 -13 6 -22 20 -17 25 -55 36 -55 16 0 -5 -11 -10 -25 -10 -21 0
-25 -5 -25 -29 0 -16 7 -34 16 -42 9 -8 13 -21 10 -35 -5 -18 0 -28 20 -41 26
-16 27 -16 44 4 16 20 16 19 13 -36 -2 -31 -8 -76 -13 -101 -5 -25 -16 -106
-25 -180 -34 -299 -48 -410 -65 -525 -11 -66 -24 -163 -30 -215 -6 -52 -15
-99 -21 -105 -15 -15 -12 -435 4 -435 9 0 9 -2 0 -8 -7 -5 -12 -41 -12 -102 0
-64 3 -90 9 -80 7 11 10 5 10 -23 0 -21 -3 -36 -7 -34 -5 3 -9 -61 -11 -141
-2 -150 2 -179 11 -82 21 205 18 191 41 184 11 -3 28 -14 38 -25 9 -10 22 -19
28 -19 9 0 10 -18 5 -68 -6 -59 -4 -74 15 -110 21 -40 47 -50 36 -14 -3 10 -8
49 -11 87 -3 39 -8 78 -11 89 -4 13 -2 17 7 14 8 -3 16 -17 19 -33 9 -53 27
-39 22 18 l-4 54 68 -1 c38 -1 81 3 95 7 24 8 27 6 37 -35 26 -103 42 -176 44
-211 1 -21 7 -36 13 -34 11 5 11 15 -6 102 -20 109 -22 125 -10 125 17 0 27
-34 42 -138 8 -58 17 -92 25 -92 10 0 9 13 -1 57 -20 90 -26 153 -15 153 14 0
31 -47 34 -92 1 -21 6 -41 10 -45 5 -4 6 25 3 65 -4 55 -3 72 6 69 7 -2 13
-29 15 -65 4 -77 22 -82 22 -7 0 48 2 55 20 55 11 0 36 -15 54 -32 29 -28 35
-43 41 -90 l6 -57 -88 -4 c-53 -2 -23 -4 74 -5 l162 -2 -5 30 c-6 27 -4 30 20
30 17 0 26 -5 26 -15 0 -33 95 -45 199 -25 56 10 106 2 61 -11 -14 -4 397 -7
913 -8 540 -1 937 3 937 8 0 5 -8 8 -17 7 -10 0 -18 4 -18 9 0 21 -80 105
-108 115 -36 12 -37 12 -37 1 0 -5 10 -13 23 -18 12 -4 42 -29 66 -55 l44 -48
-70 0 c-70 0 -71 0 -76 30 -6 28 -10 30 -48 30 -23 0 -39 3 -35 7 4 5 22 8 39
8 36 0 36 1 18 125 -5 36 -13 100 -17 143 -7 73 -6 77 13 77 11 0 31 -8 44
-18 37 -29 59 -33 95 -20 27 9 37 9 46 0 9 -9 7 -12 -13 -13 l-24 0 23 -9 c24
-10 30 -35 10 -43 -8 -3 -7 -6 4 -6 21 -1 32 16 34 52 2 33 -24 43 -91 32 -40
-5 -49 -3 -77 20 -19 16 -39 25 -50 22 -25 -7 -26 -1 -31 116 -3 96 -3 98 17
93 12 -3 27 -6 34 -6 22 0 13 -18 -14 -24 -19 -5 -24 -12 -22 -28 4 -28 28
-36 28 -9 0 26 16 36 22 13 3 -9 6 -48 7 -87 2 -75 4 -81 20 -70 6 3 11 41 11
87 l0 81 53 -6 c70 -9 97 -1 97 28 0 29 -16 35 -101 35 -39 0 -69 4 -69 10 0
6 30 10 71 10 44 0 68 4 64 10 -3 6 -21 10 -40 10 -19 0 -37 5 -40 10 -4 6 13
10 45 10 30 0 49 4 45 10 -3 5 -33 7 -72 3 -49 -5 -64 -3 -59 5 4 7 31 12 62
12 30 0 54 5 54 10 0 6 -16 10 -36 10 -29 0 -34 3 -25 13 6 8 8 17 5 20 -11
10 -68 -4 -84 -22 -8 -9 -27 -22 -42 -28 -37 -16 -35 -32 3 -40 33 -6 29 -17
-12 -27 -22 -5 -28 -2 -33 17 -15 56 0 117 29 117 18 0 20 -16 2 -23 -7 -3 -5
-6 6 -6 25 -1 34 29 12 45 -14 10 -16 21 -11 49 8 39 2 40 -36 8 -23 -20 -28
-8 -43 100 -8 51 -21 137 -29 192 -19 123 -20 158 -3 153 6 -3 13 -15 13 -27
2 -26 28 -56 42 -47 5 3 13 31 17 61 3 30 11 55 16 55 5 0 9 -7 9 -15 0 -8 9
-24 20 -35 23 -23 80 -28 80 -6 0 7 11 21 25 30 44 29 29 80 -34 121 -22 13
-60 51 -86 85 -37 49 -44 64 -35 75 6 8 9 23 5 34 -3 10 -1 22 5 26 12 8 14
72 1 79 -5 3 -21 -12 -36 -34 -15 -22 -31 -40 -34 -40 -6 0 -40 42 -106 132
-19 26 -35 57 -35 70 0 13 -9 41 -20 63 -11 22 -20 45 -20 52 0 7 -5 13 -11
13 -7 0 -9 9 -6 22 9 31 -10 48 -53 48 -44 0 -65 20 -65 64 0 23 -6 34 -26 43
-37 18 -44 28 -78 113 -18 46 -38 79 -51 86 -29 15 -48 54 -71 143 -23 89 -22
81 -4 81 17 0 18 3 16 90 -2 63 -3 66 -45 105 -24 22 -46 51 -50 65 -3 14 -13
33 -23 42 -53 49 -71 67 -98 100 -22 26 -42 38 -70 44 -22 4 -52 17 -68 30
-15 13 -34 21 -42 18 -14 -6 -35 24 -35 51 0 13 6 16 26 11 25 -7 103 16 131
36 6 5 15 28 18 51 4 23 18 55 31 70 48 57 57 144 19 189 -14 16 -25 40 -25
53 0 26 -38 55 -71 55 -12 0 -37 14 -56 30 -30 26 -41 30 -96 30 -72 0 -104
-14 -148 -65 -25 -29 -37 -35 -56 -30 -30 7 -44 -22 -20 -40 18 -13 24 -40 7
-30 -14 8 -90 -4 -90 -15 0 -4 14 -14 31 -23 18 -8 27 -17 20 -21 -6 -4 -11
-16 -11 -27 0 -10 -7 -19 -15 -19 -20 0 -19 -19 3 -39 10 -9 21 -24 25 -33 4
-11 17 -18 32 -18 15 0 25 -6 25 -14 0 -18 -16 -30 -24 -18 -2 4 -28 14 -56
22 -37 10 -58 23 -73 45 -12 16 -32 40 -44 53 -46 46 -210 258 -247 318 -34
56 -37 66 -31 108 6 35 4 51 -7 64 -8 9 -17 24 -20 32 -3 8 -28 26 -54 40 -27
14 -50 28 -52 32 -2 5 -12 3 -22 -2 -15 -8 -27 0 -73 50 -29 33 -64 80 -76
104 -13 24 -41 61 -62 82 -21 21 -39 44 -39 50 0 24 -51 74 -76 74 -13 0 -24
5 -24 10 0 6 7 10 15 10 25 0 30 30 7 46 -12 8 -18 21 -15 32 2 10 -3 25 -12
32 -15 12 -18 12 -26 -3 -13 -22 -29 -22 -29 1 0 19 -59 83 -61 66z m41 -66
c0 -30 -25 -15 -28 17 -3 25 -2 27 12 16 9 -8 16 -22 16 -33z m70 -27 c0 -5
-7 -14 -15 -21 -16 -14 -18 -10 -9 14 6 17 24 22 24 7z m30 -51 c0 -5 -4 -10
-10 -10 -5 0 -10 5 -10 10 0 6 5 10 10 10 6 0 10 -4 10 -10z m-140 -20 c0 -5
-7 -10 -15 -10 -8 0 -15 5 -15 10 0 6 7 10 15 10 8 0 15 -4 15 -10z m182 -102
c-9 -9 -12 -8 -12 5 0 9 -7 17 -15 17 -16 0 -20 12 -8 24 4 3 16 -3 27 -14 16
-15 18 -22 8 -32z m-62 12 c0 -5 -4 -10 -10 -10 -5 0 -10 5 -10 10 0 6 5 10
10 10 6 0 10 -4 10 -10z m99 -89 c8 -5 11 -16 8 -25 -9 -24 -24 -19 -29 9 -6
27 -1 30 21 16z m51 -50 c0 -21 -23 -45 -33 -34 -4 3 -7 17 -7 30 0 16 6 23
20 23 13 0 20 -7 20 -19z m50 -47 c0 -4 12 -23 27 -43 34 -44 38 -65 15 -82
-16 -13 -16 -12 -2 5 13 16 12 20 -9 37 -12 10 -20 23 -17 28 9 14 -21 33 -44
26 -25 -8 -26 2 -2 28 16 20 16 20 -2 13 -16 -5 -17 -4 -6 8 10 13 14 13 26 1
8 -7 14 -17 14 -21z m166 -179 c-7 -18 -26 -20 -26 -2 0 18 24 41 28 27 2 -6
1 -17 -2 -25z m40 -16 l-16 -23 0 25 c0 30 10 43 23 30 6 -6 3 -18 -7 -32z
m-86 16 c0 -8 -4 -15 -9 -15 -5 0 -11 7 -15 15 -3 9 0 15 9 15 8 0 15 -7 15
-15z m130 -19 c0 -24 -22 -76 -32 -76 -6 0 -7 8 -3 18 3 9 9 29 12 45 6 28 23
38 23 13z m34 -74 c-7 -31 -21 -49 -30 -40 -9 9 18 78 28 72 4 -3 5 -17 2 -32z
m-99 17 c11 -16 1 -19 -13 -3 -7 8 -8 14 -3 14 5 0 13 -5 16 -11z m-72 -49
c14 -21 15 -43 2 -73 -13 -30 4 -32 33 -4 19 18 32 23 41 17 8 -4 24 -4 38 1
17 6 23 5 23 -5 0 -23 -28 -39 -57 -33 -20 4 -35 -1 -49 -15 -19 -17 -25 -18
-43 -6 -28 17 -34 40 -26 94 7 48 17 54 38 24z m182 -80 c3 -5 1 -10 -4 -10
-6 0 -11 5 -11 10 0 6 2 10 4 10 3 0 8 -4 11 -10z m-200 -62 c5 -4 17 -8 26
-8 19 0 45 -27 36 -37 -4 -3 -12 -1 -19 4 -7 6 -37 18 -67 28 -42 14 -58 15
-73 6 -40 -25 -55 5 -15 32 20 13 26 13 62 -1 22 -8 44 -19 50 -24z m264 -19
c34 -56 36 -59 21 -59 -13 0 -65 50 -65 62 0 5 -7 13 -15 18 -13 9 -13 11 0
20 23 15 25 14 59 -41z m-142 -6 c15 -20 38 -47 50 -60 l22 -23 -30 0 c-54 0
-51 -51 5 -78 20 -10 26 -19 23 -33 -5 -19 16 -49 34 -49 5 0 13 10 18 22 5
14 10 17 15 10 4 -7 15 -12 24 -12 9 0 32 -14 50 -31 35 -33 41 -44 17 -35 -8
3 -26 1 -40 -4 -15 -6 -26 -6 -30 0 -4 6 -27 10 -53 10 -26 1 -65 9 -87 20
-29 13 -43 16 -53 8 -9 -8 -19 -7 -37 2 -13 7 -33 10 -44 7 -12 -3 -21 -4 -21
-3 0 1 11 35 25 74 14 39 25 78 25 86 0 8 12 24 26 35 23 18 25 26 20 56 -9
46 6 45 41 -2z m-172 -19 c14 -9 25 -25 25 -35 0 -10 5 -21 10 -24 12 -7 13
-45 2 -62 -6 -10 -15 -10 -40 -1 -23 9 -35 9 -43 1 -8 -8 0 -13 30 -18 23 -4
41 -11 41 -16 0 -16 -29 -22 -44 -10 -9 8 -16 9 -20 2 -4 -6 2 -16 14 -23 30
-19 24 -28 -12 -22 -31 5 -32 5 -14 -10 11 -9 24 -16 29 -16 4 0 5 -5 1 -11
-3 -6 -15 -9 -25 -6 -24 6 -33 -7 -15 -22 8 -7 12 -21 8 -33 -4 -17 -2 -20 11
-15 9 3 18 1 20 -6 3 -8 13 -4 30 11 18 18 26 20 30 10 5 -10 9 -9 20 4 11 14
20 16 48 8 19 -5 43 -8 54 -7 19 2 20 -4 19 -93 -1 -113 -10 -173 -27 -167 -8
2 -11 22 -9 55 4 48 -9 71 -21 40 -3 -8 -6 -6 -6 5 -1 9 -7 17 -15 17 -16 0
-26 -21 -26 -52 0 -12 -3 -18 -7 -14 -5 4 -8 21 -8 37 0 33 -18 40 -23 9 -2
-11 -8 -20 -13 -20 -5 0 -6 17 -3 41 6 33 4 41 -7 37 -7 -2 -16 -15 -20 -29
-7 -23 -7 -23 -8 -1 -1 30 -19 28 -31 -3 -13 -33 -28 -32 -32 3 -4 34 -19 33
-36 -2 -17 -33 -27 -32 -82 8 -58 42 -64 80 -24 164 32 69 173 282 185 282 6
0 21 -7 34 -16z m438 -137 c46 -57 48 -62 31 -74 -16 -12 -21 -11 -31 4 -7 9
-11 25 -8 34 4 11 -5 25 -25 41 -20 16 -31 34 -34 58 -3 29 -2 32 8 17 6 -11
33 -46 59 -80z m542 83 c3 -5 2 -10 -4 -10 -5 0 -13 5 -16 10 -3 6 -2 10 4 10
5 0 13 -4 16 -10z m155 0 c0 -5 -4 -10 -10 -10 -5 0 -10 5 -10 10 0 6 5 10 10
10 6 0 10 -4 10 -10z m-895 -43 c13 -10 15 -16 6 -21 -12 -8 -41 10 -41 25 0
13 13 11 35 -4z m685 2 c0 -6 9 -8 20 -4 14 5 20 2 20 -10 0 -9 12 -18 30 -22
17 -3 35 -14 41 -24 5 -11 19 -19 30 -19 17 0 20 -5 17 -32 -2 -24 -7 -32 -18
-29 -8 2 -31 6 -51 9 -31 3 -37 0 -48 -25 -26 -57 -41 -75 -56 -63 -8 7 -16 7
-19 2 -5 -8 34 -42 48 -42 3 0 12 15 21 34 13 28 22 34 43 33 18 -1 27 3 28
13 1 8 2 19 3 24 0 5 7 3 14 -3 8 -6 17 -8 20 -4 4 3 7 -1 7 -9 0 -9 -7 -21
-15 -28 -8 -7 -15 -17 -15 -22 0 -5 -25 -37 -55 -71 -49 -54 -60 -61 -96 -63
-35 -2 -44 3 -77 38 -60 64 -62 170 -6 240 12 15 24 31 26 35 6 15 60 53 74
53 8 0 14 -5 14 -11z m-640 -84 c0 -8 -4 -15 -10 -15 -5 0 -10 7 -10 15 0 8 5
15 10 15 6 0 10 -7 10 -15z m220 -54 c0 -5 -9 -11 -20 -14 -13 -3 -20 0 -20 9
0 8 9 14 20 14 11 0 20 -4 20 -9z m31 -47 c7 -14 26 -36 41 -49 15 -13 28 -33
28 -45 0 -13 9 -24 25 -30 14 -5 25 -14 25 -19 0 -5 7 -17 16 -26 25 -25 11
-28 -16 -3 -16 15 -25 18 -28 10 -6 -19 -22 -14 -22 7 0 26 -22 41 -51 34 -20
-6 -22 -4 -12 9 10 11 10 21 1 46 -7 18 -16 32 -20 32 -4 0 -8 7 -8 16 0 12
-6 15 -27 10 l-28 -6 24 20 c30 26 35 25 52 -6z m469 16 c0 -5 -4 -10 -10 -10
-5 0 -10 5 -10 10 0 6 5 10 10 10 6 0 10 -4 10 -10z m-658 -36 c5 -3 14 -17
19 -31 8 -21 6 -30 -12 -46 -16 -15 -20 -27 -16 -53 6 -37 -17 -138 -39 -169
-15 -19 -15 -19 -10 5 16 73 26 149 26 188 0 36 -3 43 -17 40 -21 -4 -30 -40
-32 -128 -1 -41 -9 -81 -22 -110 -18 -40 -18 -46 -5 -56 24 -17 19 -24 -12
-18 -23 5 -29 1 -39 -25 -6 -17 -18 -31 -27 -31 -12 0 -11 9 9 49 39 76 57
164 59 283 0 59 4 108 7 108 3 0 14 -9 24 -20 24 -27 38 -25 33 4 -4 21 -2 24
20 20 14 -3 30 -7 34 -10z m103 -24 c3 -5 1 -10 -4 -10 -6 0 -11 5 -11 10 0 6
2 10 4 10 3 0 8 -4 11 -10z m-38 -107 c-3 -48 -9 -100 -13 -115 -10 -41 13
-35 31 8 8 21 15 66 15 105 0 42 5 71 12 75 6 4 14 2 16 -5 2 -7 19 -31 38
-54 19 -23 41 -57 49 -74 8 -18 20 -34 25 -34 6 -1 15 -3 20 -4 6 -1 15 -3 20
-4 6 0 8 -12 4 -25 -3 -14 -1 -32 4 -42 7 -12 5 -33 -7 -68 -10 -28 -24 -84
-31 -123 -12 -67 -12 -74 5 -93 10 -11 25 -20 32 -20 21 0 83 67 83 90 0 11
14 34 30 52 l30 33 75 -80 c41 -44 75 -84 75 -89 0 -6 9 -20 21 -32 20 -22 20
-23 3 -51 -10 -15 -22 -30 -26 -33 -14 -11 -37 -97 -43 -165 -4 -38 -13 -94
-21 -124 -17 -58 -82 -170 -100 -171 -6 0 -17 -6 -23 -14 -15 -18 7 -37 35
-31 22 6 56 -22 99 -80 106 -145 103 -140 130 -241 5 -18 2 -20 -25 -16 -17 2
-33 8 -36 13 -3 5 -24 9 -48 9 -63 0 -165 -54 -191 -102 -22 -42 -64 -59 -136
-55 -53 2 -53 11 0 61 40 39 68 92 102 198 15 47 37 105 49 128 24 47 21 81
-6 59 -23 -19 -94 -185 -94 -220 0 -27 -59 -131 -93 -166 -26 -26 -40 -33 -77
-33 -25 -1 -54 -5 -65 -9 -27 -11 -55 -2 -55 17 0 8 20 39 45 68 25 28 45 56
45 61 0 5 13 22 29 37 18 18 34 47 41 77 7 26 18 53 26 60 8 6 14 17 14 24 0
7 7 15 15 19 10 4 15 -1 15 -14 0 -11 4 -20 10 -20 10 0 40 51 40 68 0 8 -33
9 -72 3 -12 -2 -88 -119 -88 -136 0 -15 -102 -148 -134 -174 -29 -24 -95 -26
-140 -3 -89 44 -131 57 -192 57 l-62 0 5 30 c13 79 38 165 60 215 33 73 156
235 190 252 27 13 28 15 28 98 0 47 6 123 13 170 30 198 30 204 13 217 -14 11
-13 15 10 35 14 13 34 46 44 73 10 28 30 69 45 91 42 63 73 161 66 210 -7 53
3 119 17 105 6 -6 7 -45 4 -98z m253 77 c11 -7 12 -12 3 -21 -8 -8 -14 -6 -22
10 -12 22 -5 27 19 11z m144 -85 c28 -35 32 -36 73 -30 48 7 53 0 23 -38 -41
-51 -79 -44 -161 32 -36 33 -45 47 -41 66 2 14 8 23 12 20 4 -3 14 2 21 11 14
17 8 22 73 -61z m-120 -69 c-6 -16 -24 -23 -24 -8 0 10 22 33 27 28 2 -2 1
-11 -3 -20z m59 -40 l26 -34 -21 -6 c-12 -3 -24 -3 -27 -1 -2 3 1 5 7 5 7 0
12 7 12 15 0 10 -10 15 -29 15 -36 0 -48 15 -24 29 26 15 28 14 56 -23z m253
-1 c9 -22 -14 -45 -63 -66 -52 -22 -58 -45 -10 -35 17 3 43 14 57 24 62 46
128 35 175 -29 16 -22 45 -52 63 -65 29 -23 48 -54 66 -111 6 -18 2 -22 -22
-28 -34 -7 -75 -46 -70 -67 2 -7 -7 -26 -18 -41 -19 -23 -23 -25 -34 -12 -10
12 -6 21 19 52 30 36 40 63 24 63 -5 0 -22 -16 -38 -36 l-30 -36 -45 57 c-25
32 -76 92 -114 134 -124 138 -141 161 -125 172 8 5 32 9 54 9 22 0 51 7 65 14
33 19 40 19 46 1z m-192 -74 c-2 -3 -12 3 -22 13 -16 17 -16 18 5 5 12 -7 20
-15 17 -18z m-87 -90 c-12 -15 -29 -46 -37 -70 -14 -43 -41 -68 -61 -55 -17
10 -3 100 21 138 11 19 20 49 20 67 l1 34 39 -44 40 -43 -23 -27z m153 8 c0
-5 6 -9 14 -9 17 0 31 -34 21 -51 -5 -6 -12 -4 -21 8 -12 16 -15 16 -25 3 -8
-12 -9 -9 -5 13 8 36 -1 52 -20 36 -18 -15 -32 -3 -16 13 18 18 14 31 -8 25
-23 -6 -26 3 -8 21 9 9 18 5 40 -19 15 -16 28 -34 28 -40z m132 -134 c11 -13
13 -23 7 -30 -7 -7 -15 -4 -24 8 -9 13 -20 17 -34 12 -19 -6 -20 -4 -10 19 13
28 33 25 61 -9z m325 -40 c-7 -16 -47 -21 -47 -5 0 6 9 10 20 10 11 0 20 5 20
12 0 6 3 9 6 5 4 -3 4 -13 1 -22z m-283 -37 c8 -5 8 -10 -1 -19 -8 -8 -14 -6
-23 10 -6 12 -8 27 -4 33 6 9 9 8 12 -2 3 -8 10 -18 16 -22z m316 -34 c0 -39
6 -38 -73 -18 -17 4 -33 -2 -58 -23 l-34 -28 22 35 c18 29 31 37 72 45 27 6
53 13 57 18 12 12 14 8 14 -29z m-1730 7 c0 -6 -4 -13 -10 -16 -5 -3 -10 1
-10 9 0 9 5 16 10 16 6 0 10 -4 10 -9z m1480 -41 c0 -5 -4 -10 -10 -10 -5 0
-10 5 -10 10 0 6 5 10 10 10 6 0 10 -4 10 -10z m-1553 -15 c3 -9 3 -19 -1 -22
-8 -9 -37 18 -30 28 8 14 24 11 31 -6z m1437 -16 c-8 -13 -24 -1 -24 18 0 13
3 13 15 3 8 -7 12 -16 9 -21z m76 -3 c0 -3 -4 -8 -10 -11 -5 -3 -10 -1 -10 4
0 6 5 11 10 11 6 0 10 -2 10 -4z m140 -118 c21 -37 21 -38 1 -38 -10 0 -22 6
-24 13 -4 9 -8 9 -15 -1 -7 -10 -9 -4 -10 20 -1 59 -3 68 -13 68 -5 0 -9 8 -9
18 0 20 36 -21 70 -80z m117 70 c6 -13 19 -50 28 -84 10 -34 30 -75 47 -95 46
-51 74 -100 81 -139 l7 -35 -23 26 c-21 24 -151 187 -172 215 -6 9 -3 19 9 33
18 20 18 22 3 39 -18 19 -22 44 -10 55 11 12 19 8 30 -15z m-287 -27 c0 -16
-14 -19 -49 -12 -2 1 4 10 14 21 20 22 35 18 35 -9z m-1460 -41 c0 -11 -4 -20
-10 -20 -5 0 -10 -9 -10 -21 0 -28 -24 -19 -28 11 -3 15 3 29 14 37 25 18 34
16 34 -7z m1370 5 c0 -9 7 -18 15 -21 8 -3 19 -22 26 -42 20 -63 36 -82 72
-82 18 0 38 5 43 10 19 19 87 -80 120 -175 19 -54 89 -145 111 -145 7 0 33
-20 59 -45 25 -25 54 -45 64 -45 10 0 21 -9 25 -19 6 -20 61 -51 89 -51 8 0
29 -15 45 -32 47 -52 152 -180 169 -208 9 -14 27 -37 40 -52 22 -24 23 -27 6
-26 -11 0 -28 -3 -38 -7 -16 -7 -18 -5 -13 10 18 46 -35 84 -55 40 -8 -18 -8
-28 0 -38 9 -11 6 -17 -13 -27 -31 -16 -29 -44 3 -48 18 -3 20 -7 12 -22 -7
-14 -6 -41 4 -92 9 -40 20 -122 26 -183 11 -108 12 -118 25 -162 8 -30 -15
-31 -34 -1 -13 21 -14 21 -27 3 -22 -30 -17 -55 16 -68 28 -12 28 -13 10 -25
-11 -7 -20 -19 -20 -27 0 -22 29 -31 52 -16 14 9 20 9 23 -1 11 -29 38 -239
42 -331 l5 -98 -38 7 c-29 5 -40 3 -50 -11 -12 -17 -15 -17 -49 -1 -19 10 -44
14 -55 11 -16 -5 -21 1 -30 37 -24 90 -29 117 -50 263 -24 168 -30 198 -59
305 -23 84 -71 277 -71 286 0 3 6 4 13 1 18 -6 47 11 47 28 0 8 -4 15 -10 15
-5 0 -10 18 -10 40 0 33 -3 40 -19 40 -15 0 -22 -10 -28 -42 l-9 -43 -22 92
c-12 50 -22 109 -23 130 0 21 -9 70 -20 108 -12 40 -20 95 -19 128 1 66 -18
107 -51 107 -11 0 -29 5 -39 10 -16 9 -18 15 -10 36 11 27 5 48 -11 39 -5 -4
-9 4 -9 17 0 14 -6 33 -14 44 -15 19 -15 19 -31 -1 -9 -12 -14 -32 -11 -52 3
-20 -1 -36 -10 -44 -19 -15 -18 -49 1 -49 8 0 15 -9 15 -20 0 -11 4 -28 9 -38
17 -29 39 -114 46 -172 3 -30 11 -60 17 -67 6 -7 14 -54 18 -105 8 -94 20
-163 47 -273 8 -33 21 -94 28 -135 7 -41 20 -93 29 -115 16 -40 25 -78 70
-290 13 -60 27 -119 31 -130 8 -19 7 -19 -11 -3 -10 9 -37 21 -60 27 -51 14
-65 30 -94 109 -17 48 -21 73 -16 112 7 53 -12 103 -53 142 -12 10 -21 27 -21
37 0 10 -11 53 -25 95 -24 72 -41 166 -50 261 -2 22 -22 87 -45 145 -31 76
-42 118 -41 152 2 57 -30 163 -71 236 -16 29 -59 89 -94 134 -35 45 -64 88
-64 97 0 9 11 32 23 51 29 42 54 117 62 185 10 81 16 105 26 105 5 0 9 -7 9
-15z m123 -23 c-5 -19 -43 -48 -43 -33 0 5 7 11 15 15 8 3 15 12 15 21 0 8 4
15 9 15 5 0 7 -8 4 -18z m351 -233 c-8 -13 -55 -31 -62 -24 -3 3 4 13 17 21
29 21 13 41 -19 24 -25 -14 -43 -3 -18 11 20 11 12 43 -8 35 -8 -3 -14 1 -14
9 0 8 -6 15 -14 15 -8 0 -13 8 -12 18 1 13 -6 17 -26 15 -28 -2 -38 12 -15 20
10 3 10 9 0 26 -28 46 -9 32 82 -62 53 -54 93 -103 89 -108z m-194 167 c0 -3
-4 -8 -10 -11 -5 -3 -10 -1 -10 4 0 6 5 11 10 11 6 0 10 -2 10 -4z m-1720
-116 c-18 -11 -24 -6 -16 16 5 14 9 15 19 5 9 -9 9 -14 -3 -21z m-10 -54 c0
-11 -4 -27 -9 -35 -7 -11 -12 -8 -26 13 -21 32 -14 56 14 49 13 -3 21 -13 21
-27z m-103 -2 c-9 -9 -28 6 -21 18 4 6 10 6 17 -1 6 -6 8 -13 4 -17z m372 -10
c3 -16 1 -17 -13 -5 -19 16 -21 34 -3 29 6 -3 14 -13 16 -24z m-429 -4 c0 -5
-2 -10 -4 -10 -3 0 -8 5 -11 10 -3 6 -1 10 4 10 6 0 11 -4 11 -10z m2139 -47
c17 -21 39 -46 48 -55 9 -10 13 -21 9 -25 -4 -4 -15 2 -24 14 -9 12 -28 23
-42 25 -17 2 -26 10 -28 27 -3 18 -8 22 -28 18 -28 -5 -31 1 -6 19 27 21 37
17 71 -23z m-1741 -15 c-6 -18 -28 -21 -28 -4 0 9 7 16 16 16 9 0 14 -5 12
-12z m-368 -8 c0 -5 -5 -10 -11 -10 -5 0 -7 5 -4 10 3 6 8 10 11 10 2 0 4 -4
4 -10z m80 -9 c0 -6 -4 -13 -10 -16 -5 -3 -10 1 -10 9 0 9 5 16 10 16 6 0 10
-4 10 -9z m31 -45 c-9 -11 -8 -17 4 -29 19 -19 19 -27 1 -27 -8 0 -17 7 -20
15 -3 9 -14 15 -23 13 -11 -2 -18 3 -18 12 0 8 8 15 17 15 10 0 23 6 29 12 17
17 25 7 10 -11z m319 -37 c0 -5 -10 -9 -21 -9 -18 0 -19 2 -9 15 12 15 30 12
30 -6z m1791 -20 c35 -37 42 -53 21 -54 -4 -1 -17 -7 -30 -14 -22 -12 -23 -11
-12 8 11 22 8 25 -22 22 -24 -3 -23 11 3 27 28 18 10 39 -19 23 -31 -17 -37
-13 -17 9 25 28 31 26 76 -21z m97 5 c3 -22 -26 -99 -34 -91 -3 3 -1 14 5 25
16 30 13 62 -5 69 -13 5 -13 7 -2 14 19 12 33 6 36 -17z m-1971 -26 c-3 -8 -6
-5 -6 6 -1 11 2 17 5 13 3 -3 4 -12 1 -19z m-291 -25 c-4 -9 -2 -20 5 -23 8
-5 9 -24 4 -60 -5 -38 -10 -49 -18 -41 -9 9 -8 17 1 31 10 17 10 20 -3 20 -12
0 -14 8 -9 38 6 39 11 52 21 52 3 0 2 -8 -1 -17z m352 11 c32 -9 27 -24 -8
-24 -20 0 -30 5 -30 15 0 17 4 18 38 9z m1801 -59 c40 8 39 0 0 -20 -29 -15
-32 -15 -50 1 -10 9 -19 23 -19 29 0 7 -7 18 -15 25 -8 7 -15 18 -15 24 1 6
16 -6 35 -27 30 -34 38 -38 64 -32z m116 1 c-10 -14 -21 -26 -26 -26 -5 0 0
13 12 30 27 36 38 33 14 -4z m-2089 -13 c-10 -10 -19 5 -10 18 6 11 8 11 12 0
2 -7 1 -15 -2 -18z m194 -9 c0 -8 -9 -14 -20 -14 -11 0 -20 -4 -20 -10 0 -5 6
-10 14 -10 8 0 21 -13 30 -30 8 -16 10 -30 5 -30 -5 0 -9 -11 -9 -24 0 -27
-25 -30 -40 -5 -9 14 -12 127 -4 141 7 11 44 -4 44 -18z m1440 15 c0 -7 11 -9
30 -5 17 3 30 1 30 -4 0 -6 -5 -10 -11 -10 -6 0 -9 -8 -7 -18 3 -10 0 -26 -7
-36 -12 -16 -14 -16 -28 5 -9 12 -13 27 -11 34 3 7 1 16 -5 20 -14 8 -14 25
-1 25 6 0 10 -5 10 -11z m473 -29 c-3 -11 -7 -20 -9 -20 -2 0 -4 9 -4 20 0 11
4 20 9 20 5 0 7 -9 4 -20z m-73 -20 c0 -5 -5 -10 -11 -10 -5 0 -7 5 -4 10 3 6
8 10 11 10 2 0 4 -4 4 -10z m104 -45 c28 -26 30 -50 5 -50 -8 0 -20 -4 -28 -9
-8 -5 -16 -4 -22 5 -4 8 -3 16 3 20 22 14 1 37 -29 32 -27 -4 -27 -4 -9 11 28
22 49 20 80 -9z m-2322 -30 c-2 -19 -8 -35 -13 -35 -12 0 -11 12 1 44 13 35
17 33 12 -9z m1870 -11 c-4 -21 -1 -25 14 -22 11 2 20 -4 22 -14 2 -11 -3 -18
-12 -18 -15 0 -19 -10 -13 -27 1 -5 5 -7 10 -5 4 1 7 -4 7 -12 0 -14 -29 -30
-38 -21 -8 7 -12 106 -6 128 8 27 22 20 16 -9z m512 -31 c8 -16 29 -44 46 -63
17 -19 54 -68 81 -107 65 -96 103 -138 156 -174 31 -22 43 -37 43 -54 0 -30
-26 -34 -35 -5 -3 11 -13 20 -21 20 -17 0 -18 -11 -2 -45 6 -14 9 -27 6 -30
-9 -9 -38 7 -38 21 0 8 -4 14 -10 14 -5 0 -10 8 -10 19 0 10 -11 30 -24 44
-17 18 -22 33 -18 53 4 24 2 26 -16 22 -18 -5 -19 -3 -10 12 16 26 -6 52 -37
44 -29 -7 -41 11 -21 32 26 26 19 37 -19 30 -20 -4 -35 -3 -35 3 0 5 5 11 11
13 5 2 7 11 3 21 -5 14 -9 15 -20 6 -11 -9 -14 -7 -14 9 0 12 -9 22 -22 25
-22 6 -22 6 -2 28 10 12 14 19 7 16 -6 -4 -14 -3 -17 2 -3 5 -15 7 -25 4 -30
-8 -35 16 -10 43 29 31 35 30 53 -3z m-1965 -39 c1 -17 -43 -23 -57 -8 -14 15
-16 38 -3 30 4 -3 17 3 27 13 18 17 19 17 26 -3 3 -12 6 -26 7 -32z m125 -10
c15 -14 16 -14 16 0 0 9 7 16 16 16 8 0 13 -4 10 -9 -3 -5 9 -9 27 -9 17 0 58
-14 90 -31 42 -22 66 -29 87 -24 39 7 38 -3 -6 -48 -23 -23 -43 -35 -53 -32
-12 4 -13 2 -3 -4 9 -7 0 -21 -38 -57 -27 -25 -56 -59 -64 -74 -8 -15 -35 -49
-59 -75 l-45 -49 -11 54 c-9 49 -13 76 -26 201 -3 26 -6 51 -7 55 -5 18 30
102 43 102 4 0 15 -7 23 -16z m846 12 c0 -2 -15 -9 -32 -15 -30 -10 -31 -9
-14 4 18 14 46 20 46 11z m-1400 -22 c0 -8 -4 -12 -10 -9 -5 3 -10 10 -10 16
0 5 5 9 10 9 6 0 10 -7 10 -16z m1556 0 c19 -9 34 -21 34 -27 0 -5 14 -39 30
-74 17 -34 30 -67 30 -73 0 -5 11 -34 25 -65 19 -44 23 -65 18 -105 -4 -34 -2
-50 6 -50 6 0 11 -11 11 -24 0 -14 16 -80 35 -147 20 -68 33 -129 31 -136 -3
-7 -2 -13 3 -13 11 0 21 -49 14 -67 -6 -15 -81 -13 -101 2 -103 79 -157 196
-149 318 3 45 1 60 -11 64 -26 11 -33 -20 -27 -121 5 -86 10 -108 39 -165 18
-36 36 -86 40 -111 5 -31 19 -59 45 -90 55 -65 71 -106 74 -185 2 -67 1 -70
-22 -73 -13 -2 -35 5 -50 15 -44 32 -156 83 -183 83 -22 0 -26 6 -37 53 -32
141 -48 233 -41 240 4 5 20 1 34 -8 14 -10 33 -15 41 -11 19 7 20 46 1 46 -11
0 -13 9 -9 35 5 30 3 35 -14 35 -26 0 -55 -33 -47 -54 3 -9 1 -16 -4 -16 -10
0 -19 52 -26 159 -3 51 -15 70 -43 71 -19 0 -15 14 8 28 15 10 19 20 15 37 -3
13 -2 27 4 30 5 3 10 13 10 21 0 10 -12 14 -40 14 -35 0 -40 3 -40 24 0 26
-36 56 -58 48 -7 -2 -18 -16 -23 -30 -8 -20 -6 -29 12 -49 l22 -23 -27 0 c-32
0 -76 -40 -76 -69 0 -17 4 -19 32 -10 52 15 64 12 45 -9 -21 -23 -22 -56 -2
-76 8 -8 15 -24 15 -35 0 -11 4 -22 9 -25 4 -3 11 -36 14 -73 3 -37 13 -97 23
-133 9 -36 22 -96 28 -135 l12 -69 -35 -18 c-19 -10 -41 -18 -48 -18 -7 0 -13
-4 -13 -10 0 -5 -18 -10 -40 -10 -37 0 -41 3 -60 42 -23 49 -29 168 -7 168 6
0 18 4 26 9 12 8 12 12 2 24 -10 12 -10 20 1 36 10 16 10 25 1 39 -12 18 -16
18 -45 7 -16 -6 -18 0 -18 51 0 33 -5 75 -11 94 -6 19 -10 82 -10 139 1 111
-6 131 -45 131 -34 0 -30 23 7 39 37 16 37 48 -1 43 -14 -2 -31 -9 -37 -14
-10 -8 -13 -3 -13 20 0 21 -7 35 -21 42 -30 17 -52 -5 -45 -43 5 -24 3 -28
-10 -23 -44 17 -85 -25 -51 -52 15 -12 57 -5 57 10 0 5 4 7 9 4 5 -3 0 -24
-11 -46 -22 -43 -14 -70 21 -70 15 -1 15 -2 0 -13 -18 -13 -20 20 31 -387 13
-102 21 -194 17 -203 -6 -16 -10 -16 -41 -3 -33 14 -79 20 -122 17 -12 0 -48
-21 -80 -46 -74 -58 -89 -58 -92 -2 -1 23 -8 110 -16 192 -12 127 -12 152 0
164 12 13 16 12 33 -3 11 -10 27 -16 36 -13 23 10 18 44 -7 51 -18 4 -20 8
-10 18 14 14 16 68 3 68 -5 0 -12 -13 -16 -30 -9 -41 -25 -48 -25 -10 0 18 -4
29 -10 25 -5 -3 -10 -24 -10 -46 0 -22 -4 -38 -9 -35 -11 7 -35 220 -27 249 3
12 29 47 58 78 29 30 67 75 83 99 17 24 48 60 70 80 22 19 55 50 74 68 36 34
46 38 56 22 3 -5 38 -7 85 -3 57 4 84 2 95 -7 8 -7 25 -10 38 -6 13 3 27 3 31
-1 12 -13 130 -12 145 0 11 9 15 9 19 -1 2 -7 29 -47 59 -90 31 -42 66 -93 78
-112 34 -52 66 -83 76 -73 11 11 -5 68 -25 89 -9 8 -16 24 -16 35 0 10 -6 19
-12 19 -11 0 -38 33 -73 89 -5 9 -12 18 -15 21 -11 11 -60 79 -60 83 0 9 94
49 134 57 62 12 75 11 112 -6z m-1187 -56 c0 -28 -2 -30 -9 -13 -12 28 -12 45
0 45 6 0 10 -15 9 -32z m27 -5 c-10 -10 -19 5 -10 18 6 11 8 11 12 0 2 -7 1
-15 -2 -18z m1508 4 c7 -7 19 -44 25 -82 7 -38 16 -74 21 -80 4 -5 9 -41 11
-80 2 -38 7 -76 12 -83 6 -7 7 -15 4 -18 -3 -4 0 -13 8 -21 20 -20 19 -37 -5
-58 -23 -21 -26 -57 -5 -75 25 -20 38 -1 31 46 -7 53 10 60 20 8 4 -21 2 -40
-5 -47 -7 -7 -7 -14 0 -23 7 -9 7 -19 -1 -33 -9 -18 -8 -21 10 -21 24 0 27
-15 4 -24 -49 -19 -69 13 -80 127 -5 56 -23 127 -35 141 -4 4 -3 22 2 40 6 20
5 32 -1 34 -13 5 -13 32 0 32 6 0 10 10 10 21 0 19 -2 20 -17 8 -15 -13 -16
-12 -11 8 4 13 2 26 -4 29 -5 3 -7 34 -3 75 4 46 3 69 -4 69 -6 0 -11 5 -11
10 0 14 9 13 24 -3z m-1456 -40 c15 -41 15 -57 2 -57 -5 0 -10 8 -10 18 0 25
-7 31 -31 25 -14 -4 -18 -11 -14 -27 5 -15 4 -17 -3 -7 -5 7 -15 10 -21 7 -6
-4 -11 -1 -11 8 0 8 6 19 13 23 8 4 16 16 20 26 11 29 42 20 55 -16z m-153
-37 c3 -5 -1 -10 -9 -10 -9 0 -16 5 -16 10 0 6 4 10 9 10 6 0 13 -4 16 -10z
m-348 -77 c-2 -16 -4 -5 -4 22 0 28 2 40 4 28 2 -13 2 -35 0 -50z m2542 -8
c55 -72 67 -103 43 -112 -9 -4 -23 -13 -30 -20 -7 -7 -17 -13 -21 -13 -12 0
-22 58 -15 86 8 30 -19 64 -49 64 -19 0 -19 1 4 24 13 13 25 24 25 25 1 1 20
-24 43 -54z m-2084 15 c-20 -22 -31 -20 -22 5 4 8 14 15 23 15 16 0 16 -2 -1
-20z m65 10 c0 -5 -4 -10 -10 -10 -5 0 -10 5 -10 10 0 6 5 10 10 10 6 0 10 -4
10 -10z m1860 6 c0 -3 -4 -8 -10 -11 -5 -3 -10 -1 -10 4 0 6 5 11 10 11 6 0
10 -2 10 -4z m-1415 -56 c3 -5 1 -10 -4 -10 -6 0 -11 5 -11 10 0 6 2 10 4 10
3 0 8 -4 11 -10z m-970 -47 c-4 -27 -11 -52 -17 -58 -10 -10 -2 80 9 98 11 19
15 3 8 -40z m2435 38 c0 -12 -20 -25 -27 -18 -7 7 6 27 18 27 5 0 9 -4 9 -9z
m48 -9 c2 -7 -3 -12 -12 -12 -9 0 -16 7 -16 16 0 17 22 14 28 -4z m-1948 -26
c0 -19 -14 -28 -34 -20 -25 10 -19 34 9 34 15 0 25 -6 25 -14z m365 -16 c3 -5
1 -10 -4 -10 -6 0 -11 5 -11 10 0 6 2 10 4 10 3 0 8 -4 11 -10z m-355 -70 c0
-10 -6 -8 -18 8 l-18 23 -29 -22 c-27 -22 -27 -19 4 28 l15 21 23 -21 c12 -12
23 -29 23 -37z m-106 -32 c4 -40 10 -104 15 -143 5 -38 5 -74 1 -79 -5 -4 -4
-21 0 -36 10 -33 -6 -118 -27 -141 -7 -9 -13 -20 -12 -25 2 -10 -4 -29 -27
-81 -8 -17 -14 -50 -14 -73 0 -37 -3 -42 -30 -51 -16 -6 -30 -15 -30 -20 0 -6
-15 -26 -34 -45 -34 -35 -53 -33 -42 4 8 25 14 60 35 227 22 174 31 237 36
245 1 3 6 32 10 65 3 33 19 88 36 123 16 34 29 65 29 69 0 11 32 43 40 38 4
-2 10 -37 14 -77z m846 67 c0 -8 -4 -15 -9 -15 -13 0 -22 16 -14 24 11 11 23
6 23 -9z m-315 -37 c-11 -36 -25 -45 -25 -17 0 27 7 39 22 39 5 0 6 -10 3 -22z
m1513 3 c3 -8 -1 -12 -9 -9 -7 2 -15 10 -17 17 -3 8 1 12 9 9 7 -2 15 -10 17
-17z m-1433 -12 c8 -24 -8 -45 -25 -34 -8 5 -8 11 -2 17 6 6 8 17 5 24 -3 8 0
14 5 14 6 0 14 -9 17 -21z m-1065 -35 c-8 -14 -16 -21 -18 -14 -2 6 1 17 7 23
15 15 14 30 -1 21 -7 -5 -8 -3 -3 5 5 9 10 10 18 2 7 -7 7 -18 -3 -37z m1375
26 c-3 -5 -13 -10 -21 -10 -8 0 -14 5 -14 10 0 6 9 10 21 10 11 0 17 -4 14
-10z m-1315 -20 c0 -5 -7 -10 -15 -10 -8 0 -15 5 -15 10 0 6 7 10 15 10 8 0
15 -4 15 -10z m495 -17 c-3 -16 -14 -36 -22 -45 -8 -10 -13 -24 -10 -32 8 -20
-3 -27 -24 -15 -23 12 -25 39 -3 39 10 0 14 6 10 15 -3 9 0 15 9 15 8 0 15 6
15 13 0 12 19 37 28 37 2 0 1 -12 -3 -27z m715 7 c12 -7 10 -11 -10 -18 -31
-12 -45 -5 -29 14 13 16 19 17 39 4z m1237 -30 c-3 -11 -1 -20 5 -20 12 0 6
-21 -7 -23 -6 -1 -11 13 -12 31 -1 17 3 32 9 32 6 0 8 -9 5 -20z m-1504 -9
c-4 -15 10 -14 27 2 8 7 7 1 -4 -16 -18 -30 -14 -44 14 -55 17 -6 16 -10 -10
-42 -16 -19 -32 -31 -36 -27 -4 4 2 16 14 27 29 27 28 44 0 37 -21 -6 -23 -2
-26 44 -2 38 0 50 10 46 7 -2 12 -10 11 -16z m-985 -43 c-20 -49 -23 -67 -27
-125 0 -13 -7 -23 -15 -23 -18 0 -29 45 -16 70 5 10 9 27 8 37 -3 43 2 65 16
60 7 -3 20 3 29 14 27 31 28 22 5 -33z m567 -69 c4 -48 3 -69 -3 -59 -5 8 -12
51 -16 95 -4 53 -3 73 3 59 5 -12 12 -55 16 -95z m715 53 c0 -13 -12 -22 -22
-16 -10 6 -1 24 13 24 5 0 9 -4 9 -8z m1204 -18 c9 -22 -3 -32 -14 -14 -12 19
-12 30 -1 30 5 0 12 -7 15 -16z m-1138 -11 c18 -24 18 -63 0 -63 -22 0 -28 17
-10 24 15 6 15 8 0 24 -9 10 -16 22 -16 25 0 12 13 7 26 -10z m-46 -3 c0 -5
-4 -10 -10 -10 -5 0 -10 5 -10 10 0 6 5 10 10 10 6 0 10 -4 10 -10z m-780 -22
c0 -16 -3 -19 -11 -11 -6 6 -8 16 -5 22 11 17 16 13 16 -11z m520 -12 c0 -3
-4 -8 -10 -11 -5 -3 -10 -1 -10 4 0 6 5 11 10 11 6 0 10 -2 10 -4z m-518 -88
c-6 -6 -12 3 -16 22 -8 44 6 62 17 21 5 -20 5 -37 -1 -43z m499 31 c-18 -7
-22 -14 -17 -34 5 -18 2 -25 -9 -25 -10 0 -15 10 -15 28 0 35 2 37 37 39 27 2
27 2 4 -8z m347 -17 c4 -24 -16 -30 -36 -10 -20 20 -14 38 11 34 13 -2 23 -11
25 -24z m-784 -42 c19 -129 19 -126 2 -110 -18 18 -35 150 -18 150 6 0 13 -18
16 -40z m1494 21 c7 -4 12 -14 10 -22 -2 -8 7 -15 20 -17 18 -3 22 -10 22 -38
0 -19 5 -44 12 -57 24 -47 28 -57 28 -74 0 -20 -28 -53 -45 -53 -15 0 -37 132
-24 140 13 9 22 60 11 60 -6 0 -14 -5 -17 -10 -10 -16 -25 -1 -25 26 0 13 -4
24 -10 24 -5 0 -10 7 -10 15 0 17 9 19 28 6z m462 -23 c0 -16 -3 -19 -11 -11
-6 6 -8 16 -5 22 11 17 16 13 16 -11z m-2005 -28 c-3 -6 -10 -10 -16 -10 -10
0 -12 33 -2 44 9 9 26 -22 18 -34z m500 0 c-21 -23 -45 -26 -45 -6 0 14 17 22
49 25 11 1 10 -4 -4 -19z m308 -43 c10 -36 12 -68 7 -85 -9 -32 -17 -18 -24
43 -2 22 -7 48 -11 58 -7 16 1 54 9 46 2 -2 11 -30 19 -62z m55 -40 c6 -41 14
-81 18 -90 3 -10 1 -17 -5 -17 -6 0 -11 2 -11 4 0 2 -5 28 -11 57 -15 76 -19
119 -9 119 4 0 12 -33 18 -73z m-1452 36 c-16 -73 -28 -194 -26 -253 2 -36 3
-78 4 -95 1 -20 -4 -30 -14 -30 -12 0 -15 16 -14 85 2 133 11 242 23 273 6 15
8 27 5 27 -3 0 -2 5 1 10 13 21 27 9 21 -17z m1110 15 c4 -6 3 -13 -2 -15 -5
-2 -16 -8 -24 -13 -13 -9 -13 -11 0 -20 13 -8 13 -13 2 -31 -13 -20 -12 -21 7
-16 25 6 26 3 5 -28 -18 -28 -38 -24 -29 6 4 11 2 19 -6 19 -8 0 -9 3 0 13 6
8 8 17 5 20 -11 10 -13 58 -3 51 5 -3 12 2 15 10 7 19 20 21 30 4z m-1066 -19
c0 -5 -7 -9 -15 -9 -9 0 -12 6 -9 15 6 15 24 11 24 -6z m550 -5 c0 -8 -4 -12
-10 -9 -5 3 -10 13 -10 21 0 8 5 12 10 9 6 -3 10 -13 10 -21z m610 7 c0 -12
-20 -25 -27 -18 -7 7 6 27 18 27 5 0 9 -4 9 -9z m1277 -8 c-9 -9 -19 -14 -23
-11 -10 10 6 28 24 28 15 0 15 -1 -1 -17z m-1932 -44 c22 -156 32 -295 23
-306 -6 -7 -27 -13 -48 -13 -30 0 -39 5 -49 27 -8 18 -9 29 -1 37 16 16 12 53
-6 60 -13 5 -16 16 -12 54 5 45 65 192 79 192 4 0 10 -23 14 -51z m1401 4
c-10 -10 -19 5 -10 18 6 11 8 11 12 0 2 -7 1 -15 -2 -18z m-1342 -18 c4 -14 7
-28 7 -32 0 -5 5 -13 10 -19 6 -7 4 -16 -5 -23 -18 -15 -25 -4 -31 53 -5 49 8
63 19 21z m1308 -10 c-4 -25 -16 -32 -26 -16 -9 13 4 41 19 41 8 0 10 -9 7
-25z m-1895 -27 c-3 -7 -5 -2 -5 12 0 14 2 19 5 13 2 -7 2 -19 0 -25z m1923
-22 c0 -14 4 -27 9 -30 4 -3 14 -27 21 -53 12 -45 53 -103 72 -103 5 0 38 -12
73 -27 62 -27 73 -39 66 -77 -1 -4 4 -14 10 -22 15 -18 3 -32 -13 -16 -7 7
-23 12 -37 12 -22 0 -23 2 -9 13 13 9 14 17 6 37 -6 15 -12 20 -15 13 -3 -7
-13 -13 -23 -13 -10 0 -22 -4 -25 -10 -3 -5 0 -10 7 -10 9 0 9 -3 -2 -10 -20
-13 -33 -13 -24 1 4 7 -3 10 -17 9 -44 -4 -65 2 -29 9 22 4 36 12 38 24 3 15
0 16 -23 7 -35 -13 -37 -13 -30 9 3 12 0 21 -10 25 -11 4 -14 13 -10 26 6 19
-6 26 -36 22 -4 -1 -5 8 -2 18 5 18 2 19 -27 13 -26 -5 -32 -3 -28 8 3 8 11
14 19 14 7 0 15 8 17 18 3 16 1 17 -18 7 -12 -6 -25 -8 -28 -4 -4 4 -1 9 6 11
6 3 12 11 12 19 0 8 5 14 12 14 9 0 9 3 0 12 -16 16 -15 28 3 28 8 0 15 7 15
15 0 8 5 15 10 15 6 0 10 -11 10 -24z m717 -8 c-3 -8 -6 -5 -6 6 -1 11 2 17 5
13 3 -3 4 -12 1 -19z m-41 -55 c-3 -3 -12 -3 -21 1 -14 5 -14 9 2 33 l18 27 3
-28 c2 -15 1 -30 -2 -33z m-1196 23 c0 -14 4 -28 10 -31 10 -6 8 -60 -2 -70
-3 -3 -8 14 -12 37 -4 24 -9 53 -13 66 -3 13 -1 22 6 22 6 0 11 -11 11 -24z
m801 -40 c-7 -9 -7 -16 1 -24 8 -8 8 -15 -2 -27 -10 -13 -9 -15 8 -15 14 0 21
-8 24 -30 3 -20 0 -30 -8 -30 -8 0 -11 6 -7 16 5 14 2 16 -21 10 -25 -6 -26
-5 -20 21 3 16 8 34 10 42 3 8 -1 11 -11 7 -20 -7 -19 13 3 34 19 19 39 15 23
-4z m-1107 -11 c-10 -6 -14 -17 -11 -22 4 -6 -2 -22 -14 -34 l-20 -24 7 45 c8
57 10 59 34 53 19 -5 19 -6 4 -18z m-494 -15 c0 -5 -4 -10 -10 -10 -5 0 -10 5
-10 10 0 6 5 10 10 10 6 0 10 -4 10 -10z m41 -3 c-1 -12 -15 -9 -19 4 -3 6 1
10 8 8 6 -3 11 -8 11 -12z m1982 -100 c4 -46 2 -79 -4 -83 -18 -10 -21 2 -24
93 -5 142 18 135 28 -10z m-1148 93 c3 -5 1 -10 -4 -10 -6 0 -11 5 -11 10 0 6
2 10 4 10 3 0 8 -4 11 -10z m-500 -43 c39 -15 40 -17 47 -74 4 -32 12 -94 18
-138 37 -298 37 -317 8 -332 -73 -37 -95 -44 -118 -38 -22 6 -46 6 -155 1 -28
-1 -30 1 -36 49 -6 43 -34 345 -34 368 0 5 28 18 62 30 35 12 62 27 61 32 0 6
-10 9 -20 7 -17 -3 -18 -1 -6 19 18 32 50 58 70 59 21 0 32 17 16 23 -19 6
-83 -28 -106 -57 -10 -14 -31 -28 -45 -32 -33 -8 -35 -24 -4 -24 20 -1 20 -2
4 -11 -21 -13 -37 -4 -37 21 0 12 12 25 33 35 17 8 52 31 76 51 39 31 50 35
85 31 23 -2 59 -11 81 -20z m-567 4 c2 -1 -4 -8 -13 -17 -11 -12 -19 -14 -27
-6 -20 20 1 32 40 23z m192 -7 c0 -8 -5 -12 -10 -9 -6 4 -8 11 -5 16 9 14 15
11 15 -7z m520 -4 c0 -5 -7 -10 -16 -10 -8 0 -12 5 -9 10 3 6 10 10 16 10 5 0
9 -4 9 -10z m269 -102 c7 -62 19 -159 28 -216 9 -56 14 -105 11 -108 -3 -2
-38 -6 -78 -8 -47 -3 -78 -9 -87 -19 -18 -18 -9 -37 18 -37 35 0 19 -17 -23
-24 -25 -4 -38 -10 -32 -16 6 -6 29 -4 59 4 39 9 51 17 53 34 3 18 -2 22 -25
22 -58 0 -1 17 62 18 l63 1 15 -67 c25 -105 29 -140 17 -147 -6 -3 -35 1 -64
9 -30 9 -82 19 -116 23 -33 3 -63 10 -66 15 -12 20 15 29 96 33 46 3 85 7 88
10 3 3 -3 12 -14 20 -15 12 -36 14 -100 9 l-81 -6 -7 94 c-3 51 -11 145 -17
208 -9 93 -9 123 2 155 13 36 17 40 44 37 17 -2 54 -12 83 -24 53 -21 82 -17
50 6 -11 8 -15 20 -11 34 4 18 1 22 -18 22 -23 1 -23 1 -5 15 38 28 43 19 55
-97z m229 70 c31 -17 71 -40 87 -50 17 -10 47 -18 68 -18 20 0 37 -5 37 -10 0
-16 -111 0 -148 21 -18 11 -37 19 -43 19 -19 0 -8 -21 22 -39 29 -18 71 -24
223 -34 16 -1 31 -7 33 -14 3 -8 -13 -10 -56 -6 -42 4 -61 2 -61 -6 0 -6 8
-11 18 -12 9 0 -2 -7 -25 -16 -112 -39 17 -114 134 -77 40 13 60 14 90 6 l38
-10 -39 -1 c-51 -1 -115 -20 -145 -43 -13 -10 -33 -18 -44 -18 -12 0 -31 -12
-42 -26 -17 -21 -32 -28 -74 -32 -29 -2 -54 -10 -56 -16 -19 -63 -18 -64 41
-77 48 -11 53 -14 33 -21 -18 -7 -20 -11 -10 -21 8 -8 63 -13 174 -14 152 -2
338 -19 244 -22 -21 0 -68 -13 -104 -27 -62 -25 -74 -26 -190 -22 -119 5 -162
-3 -85 -16 87 -14 205 -6 277 19 83 29 96 30 185 9 48 -12 70 -22 73 -34 7
-25 -36 -30 -158 -19 -108 10 -440 7 -465 -4 -18 -9 -40 40 -40 89 0 16 -7 56
-15 89 -45 192 -56 249 -65 330 -6 50 -13 105 -16 123 -6 30 -4 32 20 32 15 0
53 -14 84 -32z m1256 6 c9 -3 13 -10 10 -15 -10 -17 -134 -6 -134 12 0 10 100
12 124 3z m-952 -26 c-7 -7 -12 -8 -12 -2 0 14 12 26 19 19 2 -3 -1 -11 -7
-17z m278 12 c0 -5 -4 -10 -10 -10 -5 0 -10 5 -10 10 0 6 5 10 10 10 6 0 10
-4 10 -10z m-1795 -16 c25 -25 15 -47 -24 -52 -43 -5 -75 -25 -128 -81 -24
-25 -43 -43 -43 -39 0 4 -16 0 -35 -8 -19 -7 -46 -14 -60 -14 -14 0 -25 -4
-25 -9 0 -5 -11 -8 -25 -8 -14 0 -25 4 -25 9 0 19 21 48 36 48 9 0 12 -5 8
-12 -4 -6 -3 -8 4 -5 5 4 9 15 8 24 -4 26 24 49 67 57 28 5 37 4 37 -7 0 -19
45 -15 69 7 12 11 21 26 21 35 0 18 53 55 64 44 3 -3 6 1 6 10 0 22 24 22 45
1z m231 6 c8 0 14 -4 14 -10 0 -17 -47 -11 -54 6 -5 12 -2 15 10 10 8 -3 22
-6 30 -6z m808 4 c17 -7 21 -34 7 -49 -5 -6 -4 -47 1 -95 5 -47 10 -99 12
-117 2 -18 11 -43 20 -57 9 -14 16 -30 16 -36 0 -19 21 -10 30 12 7 18 9 19 9
5 1 -10 -14 -33 -32 -52 l-33 -34 -12 42 c-10 37 -28 175 -37 292 -2 22 1 45
6 52 7 7 6 14 -1 18 -10 6 -14 25 -6 25 2 0 11 -3 20 -6z m516 -33 c0 -5 -7
-14 -15 -21 -12 -10 -15 -10 -15 2 0 8 3 18 7 21 9 10 23 9 23 -2z m-820 -36
c0 -8 -4 -15 -10 -15 -5 0 -10 7 -10 15 0 8 5 15 10 15 6 0 10 -7 10 -15z
m-483 -1 c-3 -3 -12 -4 -19 -1 -8 3 -5 6 6 6 11 1 17 -2 13 -5z m433 -24 c0
-16 5 -30 10 -30 6 0 10 -9 10 -20 0 -13 7 -20 20 -20 11 0 20 -4 20 -10 0 -5
-7 -10 -15 -10 -18 0 -20 -27 -2 -32 9 -2 11 -11 6 -28 l-6 -25 -11 25 -11 25
0 -23 c-1 -40 -26 -18 -28 24 -2 52 -8 88 -17 103 -9 14 2 51 15 51 5 0 9 -13
9 -30z m-422 -38 c3 -20 0 -23 -16 -18 -15 5 -22 1 -27 -14 -3 -11 -11 -20
-16 -20 -13 0 -11 54 3 68 20 20 53 10 56 -16z m1582 19 c0 -10 -30 -24 -37
-17 -3 3 -2 9 2 15 8 13 35 15 35 2z m-1100 -11 c0 -5 -4 -10 -10 -10 -5 0
-10 5 -10 10 0 6 5 10 10 10 6 0 10 -4 10 -10z m1489 -82 c1 -27 -3 -38 -14
-38 -11 0 -13 12 -11 58 2 31 5 62 6 67 4 17 18 -47 19 -87z m-243 50 c42 -20
45 -21 63 -4 11 10 30 16 43 14 20 -3 24 -11 31 -66 5 -35 7 -65 5 -68 -4 -3
-32 5 -100 29 -16 5 -28 16 -28 23 0 8 -7 14 -15 14 -16 0 -19 -17 -7 -37 4
-6 34 -22 67 -34 32 -12 66 -29 76 -38 14 -14 35 -121 24 -121 -19 0 -52 25
-48 36 6 17 -34 57 -80 79 -20 9 -37 21 -37 26 0 6 -10 13 -22 18 -17 6 -25
24 -38 79 -17 71 -17 72 3 72 11 0 39 -10 63 -22z m-218 -7 c7 -4 16 -25 19
-46 6 -35 4 -38 -13 -30 -58 25 -219 34 -331 20 -43 -6 -54 -4 -59 9 -3 9 -15
16 -25 16 -28 0 -23 17 9 28 32 12 382 15 400 3z m52 -11 c0 -5 -2 -10 -4 -10
-3 0 -8 5 -11 10 -3 6 -1 10 4 10 6 0 11 -4 11 -10z m55 -75 c6 -15 5 -17 -4
-9 -6 6 -14 28 -16 50 -4 35 -4 36 4 9 5 -16 12 -39 16 -50z m-1645 45 c0 -13
7 -20 19 -20 21 0 21 -1 24 -99 1 -42 -2 -66 -10 -68 -9 -3 -9 3 0 26 9 24 9
38 0 62 -6 16 -10 39 -8 50 4 18 3 18 -21 2 -23 -17 -25 -22 -19 -78 3 -37 2
-56 -4 -50 -17 17 -25 163 -11 180 17 21 30 19 30 -5z m-700 -10 c0 -5 -4 -10
-10 -10 -5 0 -10 5 -10 10 0 6 5 10 10 10 6 0 10 -4 10 -10z m2292 -32 c-6 -6
-9 0 -9 18 0 23 1 24 9 10 7 -12 7 -21 0 -28z m-92 -14 c19 -1 40 -2 46 -3 7
0 15 -8 18 -17 12 -32 58 -266 53 -271 -12 -11 -47 9 -45 25 4 25 -86 35 -299
32 -125 -2 -183 1 -183 8 0 6 16 14 35 18 20 3 35 12 35 20 0 10 -15 14 -60
14 -60 0 -84 16 -32 22 38 4 30 22 -15 29 -36 6 -36 6 -7 8 49 2 91 20 109 47
8 13 22 24 31 24 8 0 32 9 54 20 50 26 134 40 185 32 22 -3 56 -7 75 -8z
m-610 -30 c0 -8 -4 -14 -10 -14 -5 0 -10 9 -10 21 0 11 5 17 10 14 6 -3 10
-13 10 -21z m1110 1 c0 -15 -6 -25 -15 -25 -12 0 -13 4 -3 25 6 14 13 25 15
25 1 0 3 -11 3 -25z m-1480 5 c13 -8 13 -10 -1 -10 -19 0 -55 -37 -46 -47 4
-3 7 -1 7 5 0 7 11 12 25 12 30 0 33 -16 5 -25 -11 -3 -20 -11 -20 -16 0 -5 9
-9 20 -9 11 0 20 -4 20 -9 0 -5 -9 -11 -20 -14 -28 -7 -25 -27 5 -27 14 0 25
-5 25 -11 0 -6 -15 -9 -37 -7 l-38 3 -11 70 c-12 69 -4 107 15 77 7 -11 9 -10
14 2 7 18 16 20 37 6z m1097 -10 c3 -11 10 -20 15 -20 5 0 7 4 4 9 -3 5 1 12
9 15 9 3 18 -1 22 -10 9 -25 9 -107 -1 -127 -6 -13 -5 -16 8 -11 11 4 16 1 16
-10 0 -9 -4 -16 -10 -16 -5 0 -14 -9 -20 -20 -10 -18 -9 -19 15 -10 33 12 35
12 35 0 0 -5 -9 -10 -21 -10 -15 0 -19 -5 -15 -15 3 -8 1 -15 -4 -15 -6 0 -10
-8 -10 -18 0 -15 7 -18 35 -16 19 2 35 -1 35 -6 0 -4 3 -15 6 -24 11 -28 -62
-21 -80 7 -19 30 -29 106 -16 122 7 9 6 16 -5 25 -17 14 -21 60 -5 60 6 0 10
7 10 16 0 11 -6 14 -21 9 -18 -6 -20 -4 -15 13 4 11 2 23 -4 27 -13 8 -13 45
1 45 6 0 13 -9 16 -20z m381 -71 c-31 -20 -41 4 -10 27 14 11 18 10 20 -3 2
-9 -2 -19 -10 -24z m-219 9 c44 -22 45 -23 19 -26 -50 -6 -31 -52 20 -52 9 0
30 -7 46 -15 15 -8 36 -15 46 -15 13 0 19 -11 24 -42 4 -24 9 -58 12 -75 l6
-33 -80 0 c-57 0 -83 4 -91 14 -11 13 -37 121 -58 234 -7 38 -3 39 56 10z
m-850 -95 c1 -13 -3 -23 -8 -23 -10 0 -21 70 -13 85 7 11 19 -28 21 -62z
m-929 41 c0 -2 -6 -14 -12 -25 -10 -17 -10 -23 0 -26 7 -3 12 -22 12 -44 0
-21 4 -39 10 -39 13 0 22 37 18 75 -2 17 2 32 7 35 6 3 13 -22 17 -60 4 -36 9
-80 12 -98 4 -30 3 -32 -23 -32 -38 0 -47 14 -55 80 -3 30 -9 76 -12 103 -6
41 -5 47 10 41 9 -3 16 -8 16 -10z m2031 -42 c14 -37 8 -55 -23 -63 -32 -8
-33 -4 -13 31 20 35 18 42 -7 38 -14 -2 -24 3 -26 13 -5 28 58 11 69 -19z
m-1168 -10 c-1 -5 7 -8 17 -5 21 6 28 -11 9 -22 -6 -5 -4 -12 8 -20 15 -12 20
-12 29 1 9 11 13 7 18 -25 3 -22 2 -51 -4 -66 -8 -22 -15 -26 -41 -23 -27 3
-32 8 -35 33 -6 44 -9 59 -15 70 -3 6 -6 25 -8 44 -2 24 1 32 11 28 7 -2 12
-9 11 -15z m-349 -44 c1 -29 -3 -38 -19 -42 -33 -9 -34 -7 -20 22 8 15 12 35
9 45 -4 14 -1 18 11 15 13 -2 18 -13 19 -40z m-82 -34 c2 -19 1 -37 -2 -39
-20 -12 -154 -27 -194 -21 -36 6 -46 11 -46 26 0 11 -9 21 -22 23 -13 3 20 5
72 5 110 1 159 9 167 28 9 25 21 15 25 -22z m278 26 c11 -7 7 -10 -18 -10 -20
0 -31 4 -27 10 8 13 26 13 45 0z m-102 -9 c10 -6 9 -10 -7 -14 -14 -3 -21 0
-21 9 0 16 9 18 28 5z m-92 -67 c-3 -9 -6 -20 -6 -25 0 -5 -9 -9 -20 -9 -15 0
-20 7 -20 25 0 20 5 25 26 25 20 0 25 -4 20 -16z m1512 10 c12 -4 22 -10 22
-14 0 -13 -54 -19 -62 -7 -17 27 -5 33 40 21z m-1343 -34 c4 -6 -11 -10 -39
-10 -25 0 -48 5 -51 10 -4 6 11 10 39 10 25 0 48 -4 51 -10z"/>
<g>
<path d="M735 3580 c3 -5 13 -10 21 -10 8 0 12 5 9 10 -3 6 -13 10 -21 10 -8
0 -12 -4 -9 -10z"/>
</g>
<g>
<path d="M1600 3500 c0 -6 4 -10 10 -10 5 0 7 -13 4 -30 -5 -23 -2 -31 11 -36
11 -5 22 -1 29 8 6 8 17 13 24 11 23 -8 12 25 -15 43 -33 21 -63 28 -63 14z"/>
</g>
<g>
<path d="M1603 3319 c-31 -12 -29 -25 9 -43 63 -32 95 -7 41 32 -20 14 -34 17
-50 11z"/>
</g>
<g>
<path d="M1086 2951 c-21 -23 -45 -86 -46 -121 0 -14 -9 -50 -19 -81 -22 -64
-31 -152 -16 -158 13 -4 28 42 55 169 13 58 31 122 41 142 31 61 22 89 -15 49z"/>
</g>
<g>
<path d="M1601 2600 c-6 -28 -11 -61 -11 -73 -1 -12 -7 -33 -15 -47 -8 -14
-14 -38 -15 -53 0 -19 -6 -30 -18 -34 -11 -2 -33 -34 -53 -74 -40 -83 -61
-104 -103 -104 -24 0 -32 -5 -34 -22 -2 -13 -13 -24 -28 -27 -22 -6 -35 -36
-15 -36 52 0 166 99 205 178 15 28 28 52 30 52 7 0 -6 -40 -15 -46 -5 -3 -9
-12 -9 -21 0 -9 -10 -27 -22 -40 -15 -16 -19 -26 -11 -34 27 -27 119 140 109
199 -3 20 5 76 18 133 18 76 21 99 11 99 -8 0 -18 -21 -24 -50z"/>
</g>
<g>
<path d="M1395 2380 c-39 -64 -77 -99 -137 -124 -21 -8 -38 -20 -38 -25 0 -33
121 20 168 73 57 65 84 136 52 136 -5 0 -25 -27 -45 -60z"/>
</g>
<g>
<path d="M1276 1941 c-12 -13 -14 -21 -6 -26 13 -8 40 12 40 31 0 20 -14 17
-34 -5z"/>
</g>
<g>
<path d="M1874 2795 c-9 -14 -13 -29 -9 -33 7 -7 45 34 45 49 0 18 -20 9 -36
-16z"/>
</g>
<g>
<path d="M767 1705 c-4 -8 -3 -16 1 -19 4 -3 9 4 9 15 2 23 -3 25 -10 4z"/>
</g>
<g>
<path d="M670 1704 c0 -6 6 -17 14 -23 10 -9 15 -8 19 3 4 9 2 18 -3 21 -6 4
-10 0 -10 -7 0 -9 -3 -9 -10 2 -5 8 -10 10 -10 4z"/>
</g>
<g>
<path d="M810 1645 c13 -14 26 -25 28 -25 3 0 -5 11 -18 25 -13 14 -26 25 -28
25 -3 0 5 -11 18 -25z"/>
</g>
<g>
<path d="M1677 1713 c-4 -3 -7 -11 -7 -17 0 -6 5 -5 12 2 6 6 9 14 7 17 -3 3
-9 2 -12 -2z"/>
</g>
<g>
<path d="M2235 937 c-4 -10 -5 -21 -1 -24 10 -10 18 4 13 24 -4 17 -4 17 -12
0z"/>
</g>
<g>
<path d="M1632 74 c4 -21 22 -23 26 -1 2 10 -3 17 -13 17 -10 0 -15 -6 -13
-16z"/>
</g>
</g>
<g>
<path d="M2994 1115 c0 -88 2 -123 3 -77 2 46 2 118 0 160 -1 42 -3 5 -3 -83z"/>
</g>
<g>
<path d="M1 1034 c0 -11 3 -14 6 -6 3 7 2 16 -1 19 -3 4 -6 -2 -5 -13z"/>
</g>
<g>
<path d="M2991 584 c0 -11 3 -14 6 -6 3 7 2 16 -1 19 -3 4 -6 -2 -5 -13z"/>
</g>
<g>
<path d="M2890 574 c0 -9 7 -14 17 -12 25 5 28 28 4 28 -12 0 -21 -6 -21 -16z"/>
</g>
<g>
<path d="M2992 520 c0 -19 2 -27 5 -17 2 9 2 25 0 35 -3 9 -5 1 -5 -18z"/>
</g>
<g>
<path d="M2790 325 c0 -3 17 -12 38 -22 20 -9 40 -19 45 -21 4 -2 7 3 7 12 0
20 9 20 31 0 11 -10 19 -12 23 -5 11 18 -37 39 -91 39 -29 1 -53 -1 -53 -3z"/>
</g>
<g>
<path d="M2786 281 c-3 -5 12 -16 34 -25 22 -9 68 -43 101 -77 65 -65 84 -71
50 -15 -42 68 -167 147 -185 117z"/>
</g>
<g>
<path d="M2890 260 c0 -5 11 -12 25 -16 13 -3 29 -12 36 -20 6 -8 18 -14 26
-14 21 0 -1 26 -38 46 -33 16 -49 18 -49 4z"/>
</g>
<g>
<path d="M195 70 c-7 -12 2 -30 16 -30 12 0 12 27 0 35 -5 3 -12 1 -16 -5z"/>
</g>
<g>
<path d="M125 10 c-3 -5 -1 -10 4 -10 6 0 11 5 11 10 0 6 -2 10 -4 10 -3 0 -8
-4 -11 -10z"/>
</g>
</g>
</svg>
