<?xml version="1.0" standalone="no"?>
<!DOCTYPE svg PUBLIC "-//W3C//DTD SVG 20010904//EN"
 "http://www.w3.org/TR/2001/REC-SVG-20010904/DTD/svg10.dtd">
<svg version="1.0" xmlns="http://www.w3.org/2000/svg"
 width="300.000000pt" height="521.000000pt" viewBox="0 0 300.000000 521.000000"
 preserveAspectRatio="xMidYMid meet">
<metadata>
Created by potrace 1.15, written by Peter Selinger 2001-2017
</metadata>
<g transform="translate(0.000000,521.000000) scale(0.100000,-0.100000)"
fill="#000000" stroke="none">
<g>
<path d="M24 5192 c-14 -32 -21 -1161 -20 -3172 l1 -2015 1495 0 1495 0 3
2596 3 2596 -58 6 c-32 3 -700 5 -1485 6 -1328 0 -1427 -1 -1434 -17z m2929
-21 l27 -14 1 -156 c1 -86 1 -318 0 -516 -3 -368 -8 -1694 -10 -2406 l-1 -397
-57 2 c-32 0 -70 -3 -85 -7 -23 -6 -28 -4 -29 10 -1 17 -2 17 -6 1 -5 -20 -48
-25 -58 -8 -4 6 -11 8 -16 4 -5 -3 -23 -3 -39 1 -29 6 -30 9 -30 59 0 48 3 56
38 87 69 64 79 67 182 64 l95 -4 -90 12 -90 12 -3 33 c-3 27 0 32 18 32 11 0
31 -6 43 -14 20 -13 117 -31 117 -22 0 9 -64 36 -84 36 -17 0 -18 2 -6 10 8 5
24 10 35 10 28 0 49 16 40 29 -4 8 -11 9 -18 3 -19 -15 -67 -24 -67 -12 0 5
12 10 26 10 14 0 23 4 19 10 -3 6 -14 10 -23 10 -23 0 -102 84 -102 110 0 11
-4 20 -10 20 -6 0 -10 -51 -10 -134 l0 -134 -47 -41 c-27 -23 -51 -41 -55 -41
-10 0 -10 203 -1 598 5 242 9 302 20 302 10 0 13 18 13 70 l0 70 49 0 c27 0
60 4 73 9 21 8 24 14 20 45 l-4 36 -75 -4 c-50 -2 -76 0 -78 8 -2 6 -8 52 -15
101 -7 50 -17 107 -22 129 -6 26 -6 42 1 49 17 17 13 73 -7 97 -17 21 -22 22
-54 11 -50 -16 -70 -48 -53 -82 10 -18 11 -44 4 -104 -5 -44 -12 -110 -15
-147 l-6 -68 -66 -2 c-37 0 -75 0 -85 0 -15 2 -18 -5 -15 -41 l3 -42 78 -3 77
-3 1 -39 c1 -22 3 -52 4 -67 2 -16 7 -224 11 -463 l7 -435 -36 40 c-30 33 -37
48 -37 83 0 23 5 42 10 42 6 0 10 -4 10 -10 0 -5 7 -10 15 -10 13 0 13 3 3 20
-8 12 -21 19 -33 18 -16 -2 -21 -12 -23 -50 -3 -43 -9 -53 -70 -115 l-67 -68
-3 380 c-2 317 0 382 12 390 9 7 14 33 15 80 0 38 4 72 8 76 5 5 42 9 83 11
l75 3 3 33 3 32 -90 0 -91 0 0 68 c-1 37 -7 99 -14 137 -12 57 -12 73 -1 85
22 26 26 55 10 76 -20 27 -20 28 25 59 45 31 54 28 91 -31 24 -40 52 -44 75
-9 19 30 13 53 -26 91 -16 16 -30 35 -30 43 0 8 17 31 37 51 154 152 168 174
143 221 -18 32 -120 21 -120 -13 0 -7 -10 -23 -23 -36 -19 -22 -20 -24 -3 -18
13 4 26 -2 42 -19 13 -14 24 -29 24 -32 0 -16 -105 -132 -120 -132 -3 0 -20
22 -39 50 -38 56 -40 51 37 100 18 12 31 23 29 26 -6 5 -77 -29 -77 -38 0 -4
-8 -10 -17 -13 -10 -4 -14 -4 -10 0 4 4 -1 13 -11 20 -11 9 -13 16 -7 21 6 5
22 26 36 48 14 22 40 55 58 74 49 52 40 111 -21 126 -28 7 -73 -23 -83 -56 -6
-19 -8 -20 -26 -3 -26 23 -24 29 15 76 19 22 46 64 60 93 15 32 34 56 46 60
44 14 44 102 0 125 -24 13 -63 -4 -80 -34 -15 -26 -185 -176 -199 -176 -6 0
-15 9 -21 20 -6 11 -24 27 -41 36 -30 15 -32 14 -55 -7 -34 -32 -30 -56 17
-99 38 -34 40 -39 28 -61 -33 -63 -175 -247 -191 -248 -5 -1 -8 19 -8 43 0 36
4 45 22 49 19 5 20 8 7 23 -13 16 -12 17 9 12 24 -7 29 1 10 20 -9 9 -8 12 6
12 15 0 16 3 7 14 -9 11 -8 15 6 20 14 6 15 9 3 16 -12 7 -12 11 0 25 12 15 9
21 -25 49 l-38 32 6 102 6 101 -37 31 c-95 79 -296 84 -317 8 -3 -13 -12 -39
-20 -58 -7 -19 -16 -52 -20 -73 -5 -28 -10 -37 -21 -33 -8 3 -30 -2 -49 -12
-30 -15 -35 -22 -35 -54 0 -21 -5 -38 -11 -38 -8 0 -8 -4 0 -14 13 -15 -2 -46
-40 -89 -13 -14 -34 -51 -56 -95 -2 -5 -73 35 -112 63 -19 14 -37 25 -42 25
-14 0 -51 -61 -45 -75 3 -8 27 -28 53 -45 52 -32 43 -37 -37 -18 -28 6 -49 16
-47 22 3 6 12 56 22 111 9 55 24 111 32 124 17 27 11 82 -12 101 -7 6 -27 13
-44 15 -24 3 -35 -2 -56 -26 -28 -34 -31 -50 -14 -81 8 -14 8 -27 1 -42 -6
-11 -22 -46 -36 -75 -14 -30 -26 -64 -25 -75 0 -19 2 -18 11 4 66 154 65 152
100 145 18 -4 34 -8 36 -10 3 -3 -16 -102 -29 -154 l-12 -43 -43 6 c-40 5 -60
12 -162 57 -52 23 -90 26 -52 4 41 -24 197 -72 312 -96 l107 -22 -15 -29 c-11
-21 -20 -28 -32 -23 -9 4 -44 13 -77 21 -33 8 -82 20 -110 28 -27 7 -79 21
-115 31 -88 23 -94 27 -101 66 -4 19 -7 25 -8 14 -1 -11 -4 -29 -7 -40 -4 -18
3 -22 66 -39 70 -18 71 -19 64 -45 -4 -14 -8 -54 -9 -88 -3 -70 -13 -115 -62
-292 -19 -69 -50 -184 -68 -255 -18 -72 -54 -207 -80 -300 l-47 -170 -49 -44
c-51 -46 -57 -66 -39 -122 7 -20 9 -15 7 23 -1 41 3 52 32 80 l32 32 -3 -30
c-2 -23 -7 -29 -22 -27 -17 3 -18 -2 -13 -57 4 -48 2 -61 -9 -61 -7 0 -18 -9
-24 -19 -14 -28 -12 -38 3 -16 8 11 16 14 20 8 4 -6 -25 -64 -64 -129 -82
-137 -108 -170 -56 -70 50 95 40 96 -12 1 -33 -60 -40 -79 -31 -94 14 -27 47
-16 72 23 l20 31 -7 -40 c-3 -22 -15 -68 -25 -103 -21 -66 -18 -92 9 -92 29 1
51 26 71 81 15 43 23 54 39 52 44 -5 97 33 247 180 86 83 160 154 165 155 6 2
24 -3 42 -11 40 -19 101 -10 172 27 35 17 51 21 54 13 5 -17 43 -47 60 -47 19
0 101 68 101 85 0 7 17 16 37 20 21 4 42 10 48 13 5 4 24 12 40 18 181 70 171
70 179 2 8 -64 0 -290 -14 -371 -5 -32 -7 -63 -5 -70 2 -7 6 -24 9 -39 12 -54
23 -27 20 49 -2 60 -1 68 5 36 10 -59 21 -65 22 -12 l1 44 9 -44 c4 -23 11
-53 15 -64 6 -20 5 -21 -11 -7 -17 14 -18 13 -12 -15 11 -55 48 -145 73 -174
13 -16 24 -34 24 -40 0 -16 -49 -25 -73 -13 -12 6 -65 13 -117 17 -97 6 -133
19 -207 73 -21 16 -33 19 -38 12 -9 -14 -14 -10 75 -57 71 -38 140 -56 214
-56 l30 0 -22 -18 c-35 -28 -268 -44 -339 -23 -17 5 -63 37 -101 71 -65 59
-71 68 -102 155 -19 52 -45 104 -59 119 -14 14 -32 37 -40 52 -18 34 -32 40
-118 46 l-72 6 12 25 c11 21 20 25 66 28 31 2 59 -2 67 -9 19 -16 30 -4 14 16
-16 20 -9 19 69 -7 73 -24 121 -53 121 -72 0 -8 17 -35 38 -62 21 -27 47 -62
57 -79 23 -38 120 -125 140 -125 24 0 17 17 -12 29 -49 21 -163 159 -199 242
-12 30 -27 42 -72 62 -91 40 -141 53 -162 39 -14 -9 -21 -7 -34 7 -15 17 -14
20 9 46 15 15 24 30 21 33 -7 6 -131 -119 -146 -148 -6 -11 -17 -20 -24 -20
-25 0 -83 -75 -90 -116 -24 -144 -30 -173 -40 -209 -15 -49 -46 -58 -82 -24
-17 16 -30 20 -53 16 -20 -4 -33 -1 -42 9 -10 13 -28 15 -77 12 -55 -4 -68 -8
-88 -31 -13 -15 -32 -27 -42 -27 -11 0 -31 -9 -46 -21 l-27 -21 6 23 c25 112
34 154 31 156 -5 5 -22 -43 -37 -102 -6 -27 -16 -58 -21 -67 -11 -22 -32 -24
-24 -2 12 30 -4 32 -34 4 -16 -15 -42 -30 -57 -32 -16 -3 -36 -9 -47 -13 -18
-8 -19 19 -12 1241 7 1427 17 2369 25 2444 1 3 648 5 1439 5 1217 0 1441 -2
1465 -14z m-1323 -1091 c0 -5 -7 -10 -15 -10 -8 0 -15 5 -15 10 0 6 7 10 15
10 8 0 15 -4 15 -10z m50 -29 c0 -6 -4 -12 -10 -16 -5 -3 -7 -11 -4 -18 5 -13
114 -18 114 -4 0 9 12 9 28 -1 19 -13 3 -42 -23 -42 -13 0 -26 -7 -29 -16 -5
-13 -1 -15 19 -10 30 8 34 -10 4 -19 -19 -6 -48 16 -49 38 0 4 -15 7 -33 7
-35 0 -58 25 -63 68 -2 17 2 22 22 22 13 0 24 -4 24 -9z m728 -13 c15 -15 16
-74 1 -83 -18 -12 -57 4 -64 26 -7 23 18 69 38 69 7 0 18 -5 25 -12z m-798 -8
c0 -5 -2 -10 -4 -10 -3 0 -8 5 -11 10 -3 6 -1 10 4 10 6 0 11 -4 11 -10z m-5
-30 c-3 -5 -12 -10 -18 -10 -7 0 -6 4 3 10 19 12 23 12 15 0z m255 -24 c0 -8
-7 -17 -16 -20 -25 -10 -30 2 -8 19 24 18 24 18 24 1z m480 -24 l28 -29 -27
-49 c-40 -73 -73 -114 -91 -114 -19 0 -90 60 -90 77 0 9 138 143 148 143 2 0
16 -13 32 -28z m-744 -69 c-11 -11 -34 6 -31 24 2 10 4 20 4 23 1 2 8 -6 17
-18 9 -13 14 -26 10 -29z m546 -65 c51 -44 106 -94 122 -109 l29 -28 -22 -18
c-22 -18 -23 -18 -69 24 -26 23 -78 66 -116 95 -86 66 -97 82 -71 102 11 9 23
16 27 16 4 0 49 -37 100 -82z m-1060 37 c35 -61 -27 -112 -78 -64 -28 26 -31
61 -8 84 25 24 65 15 86 -20z m668 -5 c-18 -11 -24 -6 -16 16 5 14 9 15 19 5
9 -9 9 -14 -3 -21z m94 4 c4 -9 4 -19 1 -22 -7 -8 -35 19 -29 29 8 14 21 11
28 -7z m-264 -2 c0 -13 -12 -22 -22 -16 -10 6 -1 24 13 24 5 0 9 -4 9 -8z m0
-62 c19 -15 21 -20 8 -20 -9 0 -22 -2 -30 -3 -7 -2 -10 -2 -5 0 15 9 6 21 -13
16 -19 -5 -27 7 -13 20 11 11 27 8 53 -13z m550 -76 c22 -20 40 -42 40 -49 0
-19 -38 -48 -54 -42 -9 4 -18 2 -21 -2 -3 -5 2 -11 10 -15 16 -6 21 -26 7 -26
-15 0 -82 65 -82 79 0 11 5 9 20 -4 26 -23 39 -11 16 14 -17 19 -17 21 0 50
10 17 20 31 21 31 2 0 21 -16 43 -36z m284 30 c19 -7 22 -64 4 -82 -7 -7 -21
-12 -33 -12 -43 0 -60 47 -28 82 17 19 31 22 57 12z m-824 -44 c0 -5 -4 -10
-10 -10 -5 0 -10 5 -10 10 0 6 5 10 10 10 6 0 10 -4 10 -10z m187 -5 c39 -19
49 -32 56 -70 3 -19 0 -33 -10 -40 -13 -10 -13 -17 1 -58 9 -26 16 -50 16 -52
0 -2 -16 -1 -35 2 -38 6 -45 -2 -17 -24 15 -12 14 -13 -13 -7 -16 3 -38 8 -47
11 -12 3 -18 -1 -18 -11 0 -9 6 -16 14 -16 24 0 46 -29 46 -60 0 -16 -4 -31
-9 -34 -4 -3 -34 10 -65 29 -31 18 -56 31 -56 28 0 -3 -9 2 -20 12 -17 16 -20
16 -20 2 0 -8 13 -25 28 -36 22 -15 28 -28 30 -58 2 -54 -35 -116 -75 -124
-32 -6 -128 14 -150 33 -15 12 -28 5 -19 -11 10 -15 133 -51 151 -45 21 9 19
-13 -3 -25 -11 -6 -33 -6 -58 -1 -44 11 -74 5 -74 -14 0 -8 -6 -19 -14 -25
-11 -10 -16 -8 -21 8 -3 12 -11 21 -16 21 -5 0 -9 5 -9 12 0 6 -8 21 -19 32
-16 18 -17 29 -11 71 23 141 21 135 46 135 31 0 33 -7 21 -68 -8 -39 -8 -55 1
-64 9 -9 12 -3 12 29 0 57 66 186 99 193 33 8 37 26 7 34 -29 7 -42 38 -27 63
10 17 10 17 11 0 0 -18 22 -47 35 -47 4 0 4 11 1 25 -7 27 11 36 20 10 8 -20
53 -19 60 0 5 11 10 13 19 5 14 -11 21 -4 45 44 8 16 14 38 12 48 -3 18 23 56
39 57 3 1 20 -6 36 -14z m-407 -47 c0 -82 2 -103 12 -116 20 -24 1 -22 -36 3
-20 14 -41 25 -46 25 -6 0 -10 5 -10 12 0 16 62 118 72 118 5 0 8 -19 8 -42z
m230 11 c0 -8 5 -7 15 1 13 11 14 10 9 -4 -4 -9 -13 -16 -22 -14 -18 3 -29 28
-13 28 6 0 11 -5 11 -11z m-125 -29 c-5 -8 -11 -8 -17 -2 -6 6 -7 16 -3 22 5
8 11 8 17 2 6 -6 7 -16 3 -22z m870 9 c18 -19 18 -21 2 -52 -10 -18 -24 -41
-32 -51 -14 -19 -15 -18 -40 8 l-25 27 -40 -31 -40 -32 22 -30 22 -31 -25 6
c-13 3 -70 9 -126 13 -57 4 -103 10 -103 14 0 4 8 14 18 22 14 13 32 14 97 9
l80 -7 35 39 c19 22 41 50 49 61 40 58 76 69 106 35z m-1091 -71 c44 -26 99
-57 123 -70 24 -13 43 -27 43 -32 0 -5 7 -17 15 -26 16 -18 11 -50 -9 -50 -6
0 -22 9 -36 20 -14 11 -29 20 -33 20 -12 0 -255 159 -262 171 -2 3 3 16 11 28
15 21 17 22 42 4 15 -9 63 -39 106 -65z m154 62 c-15 -23 -28 -26 -28 -7 0 17
10 27 27 27 11 0 11 -4 1 -20z m122 -5 c-7 -9 -15 -13 -18 -10 -3 2 1 11 8 20
7 9 15 13 18 10 3 -2 -1 -11 -8 -20z m50 15 c0 -5 -4 -10 -10 -10 -5 0 -10 5
-10 10 0 6 5 10 10 10 6 0 10 -4 10 -10z m80 -6 c0 -9 -9 -18 -19 -21 -12 -3
-17 -11 -14 -19 4 -10 0 -12 -11 -8 -12 5 -15 2 -10 -10 6 -16 -6 -22 -19 -10
-7 7 52 84 65 84 4 0 8 -7 8 -16z m560 1 c19 -23 -52 -105 -91 -105 -16 0 -29
3 -29 8 0 4 21 26 45 50 25 24 45 48 45 53 0 14 16 11 30 -6z m-185 -15 c6 -9
-47 -77 -118 -155 -30 -32 -185 -208 -312 -355 -128 -147 -168 -191 -505 -560
-124 -136 -254 -280 -290 -320 -123 -140 -170 -190 -170 -181 0 14 54 84 127
161 39 41 93 102 120 135 27 33 106 121 174 195 111 120 226 250 408 460 31
35 94 107 141 160 47 52 94 107 105 121 11 14 28 28 38 32 10 4 24 22 32 40
14 35 220 277 235 277 5 0 12 -5 15 -10z m561 -18 c23 -14 25 -49 5 -73 -16
-20 -23 -22 -47 -14 -22 8 -30 18 -32 40 -5 42 40 70 74 47z m-1116 -33 c0 -5
-7 -9 -15 -9 -15 0 -20 12 -9 23 8 8 24 -1 24 -14z m596 7 c17 -14 18 -16 3
-31 -10 -10 -28 -15 -48 -13 l-32 3 22 28 c26 31 29 32 55 13z m-646 -11 c0
-8 -4 -15 -10 -15 -5 0 -10 7 -10 15 0 8 5 15 10 15 6 0 10 -7 10 -15z m920
-151 c27 -40 67 -93 89 -118 59 -68 64 -79 38 -95 -18 -12 -23 -11 -32 5 -5
10 -37 48 -70 84 -33 37 -69 79 -80 95 -11 16 -37 48 -57 71 -21 23 -38 44
-38 47 0 4 10 16 22 27 l23 21 28 -33 c15 -18 50 -65 77 -104z m-874 89 c-11
-11 -19 6 -11 24 8 17 8 17 12 0 3 -10 2 -21 -1 -24z m-36 12 c0 -8 -4 -15
-10 -15 -5 0 -10 7 -10 15 0 8 5 15 10 15 6 0 10 -7 10 -15z m-495 -36 c74
-22 75 -26 45 -103 -10 -28 -12 -29 -67 -23 -64 7 -97 27 -44 27 19 0 30 4 26
10 -3 6 -18 10 -32 10 -24 0 -25 2 -19 42 6 39 13 58 21 58 1 0 33 -9 70 -21z
m334 -19 l60 -41 -31 -45 c-16 -25 -33 -44 -37 -42 -33 15 -111 65 -111 71 0
12 17 8 30 -8 14 -16 40 -20 40 -6 0 5 -14 14 -30 21 -17 7 -33 16 -35 20 -5
8 41 70 51 70 2 0 31 -18 63 -40z m193 -2 c-15 -15 -26 -4 -18 18 5 13 9 15
18 6 9 -9 9 -15 0 -24z m-334 -28 c16 -1 -21 -79 -212 -440 -42 -79 -75 -149
-73 -154 4 -11 132 224 233 426 33 64 62 117 65 117 3 1 14 -6 25 -14 18 -14
18 -17 -30 -107 -27 -51 -72 -133 -101 -183 -29 -49 -66 -115 -83 -145 -17
-30 -70 -125 -118 -210 -48 -85 -99 -178 -114 -206 -68 -126 -102 -184 -111
-184 -24 0 -18 12 155 342 42 82 75 152 71 158 -3 5 17 83 45 172 29 90 60
192 70 228 11 36 31 97 45 135 14 39 28 75 30 82 3 9 15 9 52 -2 26 -8 49 -15
51 -15z m817 10 c3 -11 3 -26 -2 -34 -7 -13 -82 -96 -253 -281 -35 -38 -85
-92 -110 -119 -25 -28 -79 -86 -120 -130 -42 -45 -112 -119 -156 -166 -260
-278 -370 -390 -383 -390 -9 0 -8 5 2 20 15 22 142 162 248 275 127 135 381
420 627 703 68 78 127 142 132 142 5 0 11 -9 15 -20z m209 -3 c44 -7 81 -17
83 -24 3 -8 -8 -10 -36 -6 -33 5 -41 3 -41 -10 0 -9 -11 -24 -25 -33 -14 -9
-25 -23 -25 -31 0 -12 -8 -14 -37 -9 -57 10 -73 16 -73 27 0 7 13 8 33 4 l32
-6 -23 18 -23 19 21 19 22 20 -44 11 -43 12 50 0 c28 1 86 -5 129 -11z m-134
-26 c0 -6 -5 -13 -11 -17 -6 -3 -18 -18 -27 -34 -9 -15 -41 -53 -70 -84 -44
-48 -55 -56 -67 -46 -8 7 -15 16 -15 21 0 4 33 44 73 89 49 55 79 80 95 80 12
0 22 -4 22 -9z m190 -27 c0 -3 -11 -15 -25 -26 -14 -11 -25 -30 -25 -43 0 -13
-4 -25 -8 -27 -5 -1 -31 -22 -58 -45 -206 -175 -226 -170 -43 13 117 117 159
150 159 128z m74 -21 c8 -16 24 -39 35 -52 12 -13 21 -30 21 -37 0 -12 -59
-50 -64 -42 -1 2 -19 27 -39 56 -20 28 -37 55 -37 58 0 10 44 43 57 44 7 0 19
-12 27 -27z m-974 -99 c-10 -56 -10 -77 -1 -88 6 -7 8 -21 5 -31 -6 -14 -3
-16 14 -11 24 8 24 5 -10 -71 -18 -41 -38 -57 -38 -31 0 9 -3 8 -12 -1 -10
-10 -10 -15 -1 -18 7 -3 10 -17 6 -37 -6 -41 11 -76 37 -76 23 0 100 93 100
119 0 10 5 32 11 50 9 27 13 29 23 17 8 -11 16 -13 26 -6 13 8 12 11 -4 23
-26 19 -8 26 30 13 l32 -11 -34 -39 c-19 -22 -34 -34 -34 -28 0 7 -7 12 -15
12 -16 0 -21 -26 -6 -32 9 -3 -118 -156 -213 -258 -23 -25 -66 -73 -95 -108
-30 -34 -56 -60 -59 -58 -2 3 0 11 4 18 13 20 14 121 2 136 -11 13 -8 57 16
207 15 95 23 113 130 278 27 42 54 77 58 77 5 0 13 12 19 28 18 44 23 7 9 -74z
m-446 -17 c-33 -122 -82 -292 -164 -573 -63 -213 -92 -294 -106 -294 -8 0 2
44 52 225 54 194 67 240 139 514 30 118 58 217 60 222 3 4 14 5 24 2 19 -5 18
-8 -5 -96z m371 55 c-5 -15 -99 -177 -134 -232 -8 -14 -26 -45 -39 -69 -13
-24 -32 -57 -41 -72 -9 -15 -54 -92 -100 -171 -46 -78 -89 -150 -97 -158 -7
-8 -26 -43 -44 -76 -25 -50 -120 -177 -120 -161 0 5 163 302 179 327 13 19 69
117 111 195 18 33 59 106 92 163 32 57 58 105 58 108 0 2 23 45 51 94 46 81
53 89 71 79 12 -7 17 -16 13 -27z m1379 16 c29 -41 16 -68 -33 -68 -45 0 -65
72 -23 83 33 9 41 7 56 -15z m-1657 -10 c-6 -25 -43 -144 -102 -328 -20 -63
-45 -146 -56 -183 -18 -62 -87 -208 -110 -231 -5 -5 -4 6 2 25 19 61 40 133
56 189 8 30 26 93 40 140 39 130 102 352 109 383 5 22 12 27 36 27 26 0 30 -3
25 -22z m1053 15 c0 -9 -99 -113 -432 -458 -249 -257 -342 -346 -337 -324 4
17 49 65 404 434 270 281 325 339 325 348 0 4 9 7 20 7 11 0 20 -3 20 -7z
m218 -53 c48 -71 38 -81 -13 -12 -30 41 -44 72 -31 72 2 0 22 -27 44 -60z
m-523 40 c-3 -5 -10 -10 -16 -10 -5 0 -9 5 -9 10 0 6 7 10 16 10 8 0 12 -4 9
-10z m359 -8 c6 -9 -629 -649 -825 -832 -62 -58 -118 -111 -125 -118 -7 -6
-15 -8 -18 -4 -3 5 23 36 57 69 85 83 819 831 848 865 24 27 53 36 63 20z
m124 -34 c28 -28 21 -36 -133 -159 -44 -36 -89 -72 -100 -81 -119 -98 -185
-154 -210 -177 -16 -15 -68 -58 -115 -96 -47 -38 -139 -114 -205 -168 -183
-149 -195 -159 -195 -150 0 5 10 17 23 27 12 11 117 112 232 225 116 113 229
222 252 241 23 19 84 70 135 113 246 206 284 236 294 237 5 0 15 -5 22 -12z
m-383 -100 c-108 -131 -581 -608 -602 -608 -9 0 -13 3 -9 8 5 4 51 54 104 111
54 57 115 123 137 145 22 23 81 86 130 140 50 55 101 111 115 125 13 14 47 52
73 84 44 53 51 57 65 44 13 -14 12 -19 -13 -49z m797 43 c10 -9 25 -89 33
-183 l7 -78 -61 0 c-57 0 -61 2 -61 23 0 43 21 240 26 249 6 9 43 2 56 -11z
m-326 -47 c10 -39 -10 -74 -38 -67 -35 9 -48 23 -48 53 0 35 6 40 46 40 28 0
35 -5 40 -26z m-157 -77 c-68 -59 -225 -186 -319 -257 -47 -35 -114 -89 -150
-120 -55 -47 -130 -109 -200 -163 -9 -7 -40 -32 -70 -57 -30 -25 -68 -54 -85
-64 -16 -11 -51 -36 -76 -58 -51 -41 -85 -53 -53 -17 17 19 391 328 453 374
14 10 58 46 97 80 38 33 90 77 115 97 335 277 324 269 328 246 2 -17 -9 -33
-40 -61z m-749 13 c0 -5 -5 -10 -11 -10 -5 0 -7 5 -4 10 3 6 8 10 11 10 2 0 4
-4 4 -10z m540 -3 c0 -2 -10 -12 -22 -23 l-23 -19 19 23 c18 21 26 27 26 19z
m267 -10 c-6 -17 -15 -98 -22 -195 -2 -40 -7 -77 -10 -83 -4 -5 -39 -9 -80 -9
-79 0 -87 -6 -78 -53 5 -26 7 -27 73 -27 l68 0 4 -40 c2 -22 0 -47 -3 -57 -4
-10 -1 -28 7 -40 12 -18 14 -69 12 -260 l-3 -238 -42 3 c-26 2 -43 -1 -43 -7
0 -6 20 -11 45 -11 l45 0 0 -56 c0 -48 -4 -61 -34 -97 -18 -23 -51 -69 -72
-102 -21 -33 -44 -63 -51 -67 -6 -5 -14 -32 -18 -60 -7 -56 -19 -105 -38 -150
-11 -26 -15 -27 -69 -25 -32 1 -58 3 -58 5 0 1 12 20 26 41 l25 39 -44 44
c-60 60 -74 105 -101 323 -3 22 -7 81 -10 130 -3 50 -10 108 -16 130 -16 65
-13 96 10 102 11 3 20 10 20 15 0 6 6 8 14 5 31 -12 96 95 96 157 0 12 16 69
35 126 22 66 35 123 35 156 0 97 7 111 86 174 96 77 94 75 134 109 37 32 66
41 57 18z m66 -19 c18 -14 36 -116 37 -205 l0 -53 -50 0 c-45 0 -50 2 -56 25
-6 24 -1 102 13 203 6 45 23 54 56 30z m-853 -13 c0 -8 -4 -15 -10 -15 -5 0
-10 7 -10 15 0 8 5 15 10 15 6 0 10 -7 10 -15z m-20 -55 c0 -5 -12 -10 -26
-10 -14 0 -23 4 -19 10 3 6 15 10 26 10 10 0 19 -4 19 -10z m-309 -100 c-6
-28 -11 -72 -12 -98 -1 -26 -5 -58 -9 -72 -7 -19 -9 -13 -8 27 1 29 -1 55 -5
59 -5 6 -10 -8 -22 -68 -2 -10 5 -29 16 -42 25 -32 25 -50 0 -36 -27 14 -34
13 -27 -5 3 -8 -2 -22 -11 -30 -14 -15 -14 -17 3 -30 18 -14 18 -14 -6 -15
l-25 0 25 -20 c14 -10 21 -22 16 -27 -5 -4 -11 -2 -13 5 -7 18 -23 15 -23 -5
0 -15 -2 -15 -19 1 -10 10 -22 13 -25 8 -3 -5 3 -17 14 -27 11 -10 20 -23 20
-28 0 -6 -8 -3 -18 6 -24 22 -50 24 -33 3 9 -11 9 -15 -1 -18 -10 -4 -10 -8 1
-21 12 -15 11 -17 -3 -17 -9 0 -16 -4 -16 -9 0 -5 -21 2 -47 17 -41 23 -45 27
-25 30 23 4 29 16 12 27 -18 11 -11 31 15 45 15 8 23 20 20 27 -8 22 29 84 79
133 25 24 46 51 46 60 0 10 -7 8 -21 -10 -28 -34 -22 -22 46 93 31 54 60 96
62 93 3 -2 0 -28 -6 -56z m260 37 c-1 -12 -15 -9 -19 4 -3 6 1 10 8 8 6 -3 11
-8 11 -12z m1477 -24 l-3 -28 -130 -5 c-71 -3 -102 -7 -67 -8 l62 -2 0 -35 c0
-19 0 -38 0 -42 0 -5 -11 -9 -25 -11 -32 -4 -33 -22 0 -22 14 0 25 -4 25 -10
0 -6 -30 -10 -70 -10 -40 0 -70 4 -70 10 0 6 9 10 20 10 27 0 25 18 -2 22 -20
3 -23 10 -26 50 l-3 47 -34 -6 c-19 -3 -54 -2 -79 1 -40 6 -46 10 -46 31 0 22
4 24 63 28 34 2 135 4 225 5 l163 2 -3 -27z m-921 -126 c-3 -46 -10 -94 -16
-107 -18 -44 -45 -145 -43 -160 1 -8 -3 -24 -8 -35 -5 -11 -16 -37 -24 -57
-13 -32 -22 -40 -60 -50 -25 -7 -46 -18 -46 -25 0 -9 -8 -11 -24 -7 -16 4 -34
0 -48 -10 -12 -9 -32 -16 -43 -16 -12 0 -25 -4 -31 -10 -15 -15 -125 -49 -141
-43 -16 6 -53 -24 -53 -44 0 -7 -4 -13 -10 -13 -5 0 -10 14 -10 30 0 44 -25
87 -55 94 -36 9 -31 24 18 46 53 25 63 25 94 0 36 -28 51 -25 23 5 -13 14 -29
25 -37 25 -7 0 -13 5 -13 10 0 15 28 12 55 -6 25 -16 34 -7 14 13 -8 8 -3 16
17 29 68 44 86 63 78 86 -7 22 32 67 106 123 25 19 92 73 150 120 58 47 107
85 108 85 2 0 1 -37 -1 -83z m583 -11 l0 -24 -152 -7 c-84 -4 -187 -5 -228 -3
-67 3 -75 5 -75 23 0 18 8 20 85 25 47 3 149 6 228 8 l142 2 0 -24z m-172 -88
c-2 -36 -7 -44 -25 -46 -28 -4 -31 -22 -4 -22 25 0 36 -16 17 -27 -12 -7 -14
-141 -18 -875 -2 -540 -7 -871 -13 -877 -7 -7 -10 147 -11 432 -2 1024 -5
1297 -16 1297 -7 0 -8 -242 -3 -799 8 -805 5 -951 -20 -951 -13 0 -13 17 -28
1515 l-2 240 43 3 c52 4 56 22 5 23 -21 0 -32 3 -25 6 21 8 13 23 -13 23 -23
0 -25 4 -25 43 0 24 2 46 4 48 2 2 34 5 71 7 l66 2 -3 -42z m343 28 c4 -5 5
-61 3 -125 -2 -64 -9 -433 -14 -821 -10 -703 -18 -940 -29 -940 -3 0 -6 210
-6 468 0 924 -5 1413 -14 1408 -5 -4 -7 -288 -4 -688 5 -791 -3 -1198 -24
-1198 -11 0 -13 59 -13 327 0 181 -2 603 -6 940 -4 336 -4 618 -1 626 6 16 97
19 108 3z m-1561 -17 c0 -11 -4 -17 -10 -14 -5 3 -10 13 -10 21 0 8 5 14 10
14 6 0 10 -9 10 -21z m410 -169 c0 -5 -4 -10 -10 -10 -5 0 -10 5 -10 10 0 6 5
10 10 10 6 0 10 -4 10 -10z m-250 -8 c0 -13 -12 -22 -22 -16 -10 6 -1 24 13
24 5 0 9 -4 9 -8z m215 -32 c-3 -5 -10 -10 -16 -10 -5 0 -9 5 -9 10 0 6 7 10
16 10 8 0 12 -4 9 -10z m-245 -4 c0 -11 -19 -15 -25 -6 -3 5 1 10 9 10 9 0 16
-2 16 -4z m200 -26 c0 -5 -7 -10 -16 -10 -8 0 -12 5 -9 10 3 6 10 10 16 10 5
0 9 -4 9 -10z m-285 -10 c-3 -5 -10 -10 -16 -10 -5 0 -9 5 -9 10 0 6 7 10 16
10 8 0 12 -4 9 -10z m3 -47 c-32 -31 -61 -54 -65 -50 -9 10 87 107 107 107 8
0 -9 -24 -42 -57z m-296 36 c40 -18 69 -89 36 -89 -5 0 -8 8 -6 18 5 24 -41
62 -75 62 -16 0 -26 4 -22 10 8 13 38 13 67 -1z m223 -53 c-10 -14 -22 -23
-27 -20 -5 3 1 17 13 30 28 30 36 24 14 -10z m-279 4 c20 -20 3 -64 -34 -89
-31 -19 -45 -22 -86 -17 -38 4 -54 2 -68 -11 -28 -25 -35 -6 -8 22 13 14 33
25 44 25 37 0 97 21 90 31 -7 12 24 49 41 49 6 0 16 -5 21 -10z m347 -77 c19
-10 42 -12 68 -8 36 6 40 5 50 -22 6 -15 12 -43 15 -62 4 -33 4 -33 -27 -27
-18 3 -38 1 -45 -5 -8 -6 -14 -8 -14 -4 0 5 -8 1 -18 -8 -21 -19 -95 -47 -124
-47 -18 0 -19 2 -7 16 12 15 11 16 -16 10 -17 -3 -36 -2 -44 3 -9 6 2 11 33
15 66 10 57 25 -11 19 -36 -3 -75 1 -103 10 -39 13 -41 15 -15 15 17 0 44 -3
60 -7 31 -7 85 5 85 19 0 5 -13 5 -29 0 -21 -6 -39 -3 -67 11 l-39 19 39 -6
c21 -3 56 -2 77 1 33 6 39 11 39 31 0 32 -23 40 -52 20 -12 -9 -31 -16 -42
-16 -17 0 -14 5 14 25 31 22 42 24 90 19 30 -3 68 -13 83 -21z m152 -23 c3 -5
1 -10 -4 -10 -6 0 -11 5 -11 10 0 6 2 10 4 10 3 0 8 -4 11 -10z m-275 -10 c0
-5 -7 -10 -16 -10 -8 0 -12 5 -9 10 3 6 10 10 16 10 5 0 9 -4 9 -10z m-370
-27 c0 -5 -14 -28 -31 -53 -16 -25 -42 -67 -56 -95 -14 -27 -29 -52 -32 -55
-4 -3 -34 -49 -67 -102 -32 -54 -62 -98 -66 -98 -3 0 28 58 70 130 42 71 96
163 120 205 38 66 62 92 62 68z m125 -35 c-21 -24 -42 -47 -46 -52 -9 -10 -38
19 -39 37 0 8 97 57 114 57 4 0 -9 -19 -29 -42z m-185 8 c0 -16 -18 -31 -27
-22 -8 8 5 36 17 36 5 0 10 -6 10 -14z m256 -33 c-4 -5 -33 -37 -64 -71 -57
-64 -110 -106 -81 -64 38 53 123 142 137 142 8 0 12 -3 8 -7z m34 -12 c0 -6
-61 -70 -135 -144 -74 -74 -135 -131 -135 -126 0 4 55 64 123 134 67 70 124
131 125 136 5 12 22 12 22 0z m-230 -27 c0 -8 -4 -12 -10 -9 -5 3 -10 13 -10
21 0 8 5 12 10 9 6 -3 10 -13 10 -21z m260 8 c0 -13 -259 -266 -266 -260 -7 7
244 268 257 268 5 0 9 -3 9 -8z m-288 -76 c-8 -15 -23 36 -16 53 5 12 9 8 14
-14 3 -16 4 -34 2 -39z m258 -1 c-36 -36 -81 -77 -100 -92 -19 -15 5 15 55 65
49 51 94 92 99 92 6 0 -19 -29 -54 -65z m-214 8 c-35 -51 -37 -73 -5 -73 14 0
18 -4 12 -14 -14 -25 -105 -117 -110 -112 -9 8 49 160 74 192 12 17 23 36 23
42 0 7 9 12 20 12 18 0 17 -5 -14 -47z m2154 2 c0 -8 -4 -15 -10 -15 -5 0 -10
7 -10 15 0 8 5 15 10 15 6 0 10 -7 10 -15z m-2260 -136 c-21 -63 -48 -147 -60
-186 -11 -40 -26 -73 -32 -73 -6 0 -8 9 -4 23 4 12 13 42 20 67 98 334 94 321
107 298 6 -10 -5 -56 -31 -129z m2300 81 c0 -5 -7 -10 -15 -10 -8 0 -15 5 -15
10 0 6 7 10 15 10 8 0 15 -4 15 -10z m-2371 -176 c-40 -136 -49 -162 -49 -133
0 21 59 231 72 256 23 45 17 14 -23 -123z m1241 96 c0 -22 -4 -40 -10 -40 -5
0 -10 18 -10 40 0 22 5 40 10 40 6 0 10 -18 10 -40z m452 -183 c-4 -73 -7 -86
-23 -90 -11 -3 -19 -14 -19 -27 0 -13 -5 -20 -12 -17 -7 2 -13 12 -13 23 0 13
-8 20 -27 22 -23 3 -28 -1 -28 -17 0 -22 -7 -26 -28 -13 -19 13 -4 75 17 67
28 -11 91 -15 91 -5 0 5 -12 12 -27 16 -49 10 -49 14 -3 11 53 -2 71 17 20 21
-61 6 -60 15 15 118 l30 41 6 -32 c3 -18 4 -71 1 -118z m288 144 c0 -13 -59
-71 -72 -71 -11 0 -1 15 36 58 20 23 36 29 36 13z m-1508 -37 c27 -10 61 -28
74 -40 13 -13 27 -24 33 -24 12 0 39 -53 47 -94 5 -31 4 -33 -35 -45 -122 -36
-260 -141 -232 -175 35 -41 -50 -288 -92 -273 -7 2 -20 0 -29 -4 -25 -13 -88
-19 -88 -9 0 6 -6 10 -12 10 -7 0 -24 9 -37 19 l-24 18 45 94 c87 183 108 235
118 297 16 95 121 241 173 242 5 0 31 -7 59 -16z m-347 -24 c-16 -16 -31 -28
-33 -25 -7 7 39 55 52 55 5 0 -3 -13 -19 -30z m1903 -13 c4 -20 -69 -101 -109
-121 -26 -13 -29 -13 -35 6 -5 16 8 33 57 79 64 59 81 66 87 36z m-178 -97 c0
-5 -7 -10 -15 -10 -8 0 -15 5 -15 10 0 6 7 10 15 10 8 0 15 -4 15 -10z m34
-53 c9 -35 7 -47 -8 -47 -9 0 -16 12 -18 28 -2 19 -8 26 -20 24 -10 -2 -18 1
-18 7 0 11 29 19 47 13 6 -2 14 -13 17 -25z m152 -12 c-8 -8 -19 -15 -25 -15
-19 0 -12 28 12 45 19 14 22 14 25 0 2 -8 -3 -22 -12 -30z m-679 -72 c19 -15
11 -28 -11 -20 -14 6 -56 76 -56 94 0 4 11 -9 25 -28 14 -19 33 -40 42 -46z
m1083 37 c8 -13 10 -12 10 3 0 11 8 17 25 17 21 0 25 -5 25 -30 0 -16 -4 -30
-10 -30 -5 0 -10 5 -10 12 0 7 -6 4 -12 -5 -15 -19 -58 -13 -58 9 0 8 -7 14
-15 14 -10 0 -15 -11 -15 -35 0 -19 -4 -35 -10 -35 -5 0 -10 5 -10 11 0 8 -12
10 -34 6 -18 -3 -38 -1 -44 5 -15 15 -45 1 -38 -17 3 -9 0 -15 -9 -15 -8 0
-15 6 -15 14 0 7 -9 16 -20 19 -15 4 -20 14 -20 39 l0 33 126 0 c99 -1 127 -4
134 -15z m-393 -57 c0 -38 -2 -51 -4 -30 -3 22 -9 37 -18 37 -20 0 -2 55 21
60 0 0 0 -30 1 -67z m-497 37 c13 -8 13 -10 -2 -10 -9 0 -19 -6 -21 -12 -3 -7
-6 -3 -6 10 -1 24 6 27 29 12z m69 -9 c7 -5 10 -14 6 -20 -5 -9 -10 -9 -21 0
-26 22 -14 38 15 20z m381 -1 c0 -5 -9 -10 -21 -10 -11 0 -17 5 -14 10 3 6 13
10 21 10 8 0 14 -4 14 -10z m-1973 -24 c7 -6 16 -26 19 -44 6 -28 4 -34 -15
-39 -26 -7 -28 -23 -3 -23 28 0 42 21 42 62 0 42 17 50 44 22 23 -22 21 -85
-2 -91 -10 -2 -23 -18 -29 -34 -17 -43 -65 -41 -109 6 -18 19 -37 35 -43 35
-17 0 -13 -30 4 -36 22 -9 18 -24 -5 -24 -11 0 -29 9 -41 21 -25 25 -35 19
-19 -10 8 -15 8 -21 0 -21 -21 0 -50 21 -50 35 0 20 -29 19 -36 0 -9 -22 -21
-18 -28 8 -7 21 -7 21 -16 2 -10 -23 -12 -10 -4 22 4 13 10 20 15 17 5 -3 12
2 15 11 4 9 19 22 34 30 24 12 29 12 43 -3 16 -15 17 -15 17 4 0 32 28 62 63
67 42 5 89 -2 104 -17z m1878 4 c3 -5 1 -10 -4 -10 -6 0 -11 5 -11 10 0 6 2
10 4 10 3 0 8 -4 11 -10z m-255 -83 c-6 -29 -19 -72 -28 -97 -16 -47 -109
-200 -121 -200 -11 0 -34 44 -37 71 -2 18 7 38 31 67 19 22 35 43 35 47 0 8
88 144 109 168 21 25 25 7 11 -56z m180 58 c0 -8 -4 -15 -10 -15 -5 0 -10 7
-10 15 0 8 5 15 10 15 6 0 10 -7 10 -15z m-230 -19 c0 -7 -7 -19 -15 -26 -12
-10 -15 -9 -15 7 0 11 3 23 7 26 11 12 23 8 23 -7z m352 -5 c-2 -8 -10 -49
-18 -90 -22 -108 -21 -107 -44 -86 -20 18 -17 38 8 67 14 16 12 18 -16 24 -19
4 -32 13 -32 21 0 11 6 13 20 9 68 -21 67 -21 31 15 -33 32 -34 34 -13 37 12
2 20 8 16 13 -4 7 5 9 22 7 19 -2 28 -8 26 -17z m-1437 -5 c-16 -8 -49 -16
-72 -20 -34 -5 -43 -3 -43 8 0 16 29 23 100 24 l45 0 -30 -12z m1856 -12 c-1
-4 -13 -9 -28 -10 -16 -2 -47 -6 -69 -10 -23 -3 -44 -2 -47 3 -3 5 8 10 26 10
18 1 50 5 72 10 42 10 47 9 46 -3z m-1741 -4 c13 -9 13 -10 0 -10 -8 0 -22 5
-30 10 -13 9 -13 10 0 10 8 0 22 -5 30 -10z m-76 -9 c3 -4 30 -16 61 -25 56
-18 71 -40 35 -51 -24 -7 -45 4 -45 25 0 8 -7 15 -15 15 -9 0 -15 -9 -15 -21
0 -11 -5 -27 -11 -35 -6 -8 -14 -22 -17 -32 -4 -9 -12 -19 -19 -21 -7 -1 -36
-10 -65 -19 -57 -19 -88 -14 -77 12 3 9 8 38 10 64 4 61 8 67 47 67 18 0 43 7
57 14 30 17 47 19 54 7z m1638 -23 c-9 -9 -12 -7 -12 12 0 19 3 21 12 12 9 -9
9 -15 0 -24z m248 22 c8 -5 11 -10 5 -10 -5 0 -17 5 -25 10 -8 5 -10 10 -5 10
6 0 17 -5 25 -10z m-390 -21 c0 -25 -20 -47 -38 -41 -14 4 -16 -14 -2 -23 6
-3 10 -11 10 -16 0 -6 -4 -8 -9 -5 -5 3 -20 -4 -35 -15 -14 -11 -26 -16 -26
-11 0 5 12 17 26 27 31 20 25 32 -7 15 -20 -11 -21 -10 -16 11 4 13 7 30 7 37
0 6 8 12 18 12 9 0 26 7 36 15 27 20 36 19 36 -6z m-521 -16 c-1 -17 -3 -21
-6 -10 -2 9 -9 17 -14 17 -6 0 -7 5 -4 10 12 19 25 10 24 -17z m-1881 -83 c4
-78 4 -80 -19 -80 -22 0 -22 0 -3 15 18 13 15 14 -28 15 l-48 0 0 59 c0 58 0
58 38 73 20 8 41 11 46 7 5 -5 11 -44 14 -89z m62 85 c0 -8 -4 -15 -10 -15 -5
0 -10 7 -10 15 0 8 5 15 10 15 6 0 10 -7 10 -15z m1705 -5 c-3 -5 -13 -10 -21
-10 -8 0 -14 5 -14 10 0 6 9 10 21 10 11 0 17 -4 14 -10z m-671 -9 c4 -5 0
-12 -6 -15 -7 -3 -1 -4 14 -1 37 7 58 -3 58 -28 0 -12 12 -34 27 -49 l27 -28
-31 0 c-23 0 -33 6 -38 20 -3 11 -24 35 -46 53 -21 19 -39 39 -39 45 0 14 26
16 34 3z m490 -3 c8 -7 23 -20 36 -28 37 -26 42 -46 20 -82 -11 -18 -23 -41
-26 -50 -4 -10 -10 -18 -15 -18 -5 0 -9 -6 -9 -14 0 -18 -49 -29 -86 -20 -16
4 -53 22 -83 40 -30 18 -81 43 -115 56 -66 24 -118 64 -114 86 2 11 35 14 158
17 85 1 166 7 180 13 33 14 39 14 54 0z m136 -4 c0 -8 -5 -12 -10 -9 -6 4 -8
11 -5 16 9 14 15 11 15 -7z m850 -3 c0 -10 -22 -31 -32 -31 -4 0 -8 11 -8 24
0 19 4 23 20 19 11 -3 20 -8 20 -12z m-390 -12 c0 -5 -4 -9 -10 -9 -5 0 -10 7
-10 16 0 8 5 12 10 9 6 -3 10 -10 10 -16z m-1696 -4 c-6 -16 -24 -21 -24 -7 0
11 11 22 21 22 5 0 6 -7 3 -15z m1196 11 c0 -3 -4 -8 -10 -11 -5 -3 -10 -1
-10 4 0 6 5 11 10 11 6 0 10 -2 10 -4z m1147 -2 c13 -4 20 -10 18 -15 -3 -4
-16 -4 -29 1 -13 5 -27 6 -32 2 -4 -4 -4 -1 0 6 8 14 12 14 43 6z m-1047 -19
c-9 -11 -16 -12 -25 -5 -6 5 -16 6 -20 2 -5 -4 -5 -1 -1 6 4 6 19 12 33 12 22
0 24 -2 13 -15z m950 11 c0 -2 -13 -6 -29 -8 -17 -2 -28 -1 -25 4 5 8 54 12
54 4z m-1685 -26 c3 -5 -1 -10 -10 -10 -9 0 -13 5 -10 10 3 6 8 10 10 10 2 0
7 -4 10 -10z m1615 -10 c0 -5 -5 -10 -11 -10 -5 0 -7 5 -4 10 3 6 8 10 11 10
2 0 4 -4 4 -10z m-2210 -17 c0 -33 -15 -44 -48 -37 -36 7 -44 34 -9 34 12 0
29 5 37 10 20 13 20 13 20 -7z m1765 -41 c6 14 10 15 26 5 24 -15 25 -31 2
-23 -11 5 -24 -1 -36 -16 -18 -22 -18 -22 -12 -2 3 14 0 24 -8 27 -15 6 -28
52 -18 62 3 4 13 -11 22 -32 13 -30 18 -34 24 -21z m402 32 c-9 -9 -28 6 -21
18 4 6 10 6 17 -1 6 -6 8 -13 4 -17z m-1642 -4 c4 -6 -7 -10 -24 -10 -17 0
-31 5 -31 10 0 6 11 10 24 10 14 0 28 -4 31 -10z m1385 6 c0 -2 -7 -7 -16 -10
-8 -3 -12 -2 -9 4 6 10 25 14 25 6z m-46 -31 c-6 -16 -24 -21 -24 -7 0 11 11
22 21 22 5 0 6 -7 3 -15z m86 5 c0 -5 -2 -10 -4 -10 -3 0 -8 5 -11 10 -3 6 -1
10 4 10 6 0 11 -4 11 -10z m-33 -20 c3 -11 12 -20 19 -20 16 0 19 -16 5 -25
-6 -3 -15 4 -21 15 -13 23 -48 27 -56 5 -4 -8 -12 -15 -20 -15 -8 0 -14 7 -14
15 0 8 8 15 19 15 10 0 24 7 31 15 17 21 31 19 37 -5z m-1255 -11 c9 -5 35 -9
57 -9 62 0 49 -18 -19 -26 -33 -4 -63 -11 -66 -15 -8 -14 -90 -11 -131 5 -21
8 -60 17 -86 20 -63 8 -75 16 -47 31 25 14 264 9 292 -6z m-703 2 c16 -11 6
-32 -13 -25 -7 3 -19 -2 -26 -11 -12 -14 -11 -18 1 -26 11 -7 9 -9 -8 -9 -13
0 -23 -4 -23 -8 0 -5 10 -14 23 -20 21 -11 21 -12 1 -9 -11 1 -22 -2 -23 -8
-2 -5 -7 -15 -12 -22 -7 -8 -4 -15 8 -22 16 -9 16 -12 3 -21 -11 -7 -12 -12
-4 -17 8 -6 4 -28 -15 -75 -20 -53 -29 -67 -42 -63 -10 3 -68 7 -131 9 -62 2
-126 9 -141 15 -16 6 -44 11 -63 11 -27 0 -34 4 -34 19 0 18 2 18 48 3 54 -19
327 -28 337 -12 5 9 -182 16 -253 10 -13 -1 -30 4 -39 12 -9 7 -21 13 -27 13
-41 3 -64 19 -70 47 -3 16 -4 33 -2 37 3 4 42 3 88 -1 116 -11 309 -7 305 5
-2 7 -76 12 -192 14 -200 3 -205 4 -205 52 0 23 2 23 53 17 39 -5 49 -4 41 4
-6 6 -30 14 -53 17 -32 4 -41 10 -41 25 0 17 5 20 38 16 20 -3 71 -1 112 4 78
10 249 24 310 26 19 1 41 -2 49 -7z m1837 -57 c-9 -47 -25 -31 -19 19 4 26 9
35 15 29 6 -6 8 -26 4 -48z m-1396 9 c33 -4 50 -11 50 -19 0 -16 6 -17 79 -14
31 1 51 -2 48 -7 -4 -5 -19 -8 -34 -6 -15 2 -66 -7 -112 -21 -93 -28 -141 -32
-170 -14 -18 11 -18 13 -3 24 16 12 16 13 1 19 -14 5 -15 11 -6 35 13 34 42
42 75 23 13 -8 45 -17 72 -20z m1500 29 c0 -4 -5 -13 -12 -20 -9 -9 -6 -12 14
-12 21 0 26 -5 25 -20 -1 -11 -2 -20 -2 -20 0 0 -17 8 -36 18 -34 17 -35 19
-20 40 16 22 31 28 31 14z m351 -89 c-6 -21 -15 -56 -21 -78 -6 -22 -12 -48
-15 -58 -2 -10 -9 -33 -16 -51 -10 -28 -16 -33 -45 -32 -19 1 -39 7 -46 14 -7
7 -18 12 -25 12 -8 0 -13 12 -13 32 0 30 1 31 20 13 13 -12 30 -16 55 -13 19
2 35 0 35 -4 0 -4 4 -8 8 -8 4 0 8 16 9 36 1 20 7 40 15 45 10 6 10 9 1 9 -7
0 -22 9 -33 20 -24 24 -67 26 -92 3 -19 -17 -19 -15 -16 42 3 59 3 59 38 66
19 4 43 3 53 -3 15 -8 24 -5 40 11 21 20 21 20 39 1 15 -16 17 -26 9 -57z
m-782 21 c-13 -25 -29 -32 -29 -14 0 6 8 22 17 37 21 31 31 12 12 -23z m271
20 c0 -8 -4 -14 -10 -14 -5 0 -10 9 -10 21 0 11 5 17 10 14 6 -3 10 -13 10
-21z m610 -4 c10 0 22 5 25 10 12 19 25 -1 25 -38 0 -30 -6 -42 -34 -64 l-34
-27 16 -45 c12 -34 19 -41 25 -30 12 21 29 6 21 -19 -8 -29 -8 -29 -27 -21
-20 7 -32 45 -52 158 -19 110 -19 111 1 92 8 -9 24 -16 34 -16z m-1515 11 c13
-7 28 -10 100 -17 69 -7 90 -19 48 -28 -32 -7 -52 -4 -72 8 -8 5 -12 5 -9 0 6
-10 -67 -11 -92 -1 -8 3 -22 6 -30 6 -33 1 -145 10 -150 11 -3 1 22 8 55 14
65 13 134 16 150 7z m998 -6 c4 -8 2 -17 -3 -20 -6 -4 -10 3 -10 14 0 25 6 27
13 6z m63 -40 c9 -8 24 -15 35 -15 26 0 24 -16 -2 -23 -15 -4 -28 1 -40 16
-17 21 -19 21 -48 5 -17 -9 -33 -13 -36 -8 -6 10 41 39 63 40 7 0 20 -7 28
-15z m-149 -11 c-3 -3 -12 -4 -19 -1 -8 3 -5 6 6 6 11 1 17 -2 13 -5z m-1167
-13 c0 -14 -41 -41 -63 -41 -27 0 -77 -29 -77 -44 0 -8 -14 -19 -32 -25 -17
-6 -40 -19 -50 -28 -10 -9 -37 -20 -61 -24 -23 -4 -67 -14 -97 -23 -63 -18
-118 -20 -140 -6 -13 9 -13 11 0 20 8 5 32 10 53 10 20 0 37 5 37 10 0 6 8 10
17 10 14 0 12 4 -7 25 -19 20 -21 28 -11 38 10 9 11 8 6 -5 -5 -13 0 -20 16
-27 30 -11 44 -4 28 15 -9 11 -8 14 6 14 10 0 16 3 12 6 -3 3 2 14 11 24 12
12 39 19 97 23 44 3 96 12 115 21 38 17 140 22 140 7z m40 -1 c0 -5 -4 -10
-10 -10 -5 0 -10 5 -10 10 0 6 5 10 10 10 6 0 10 -4 10 -10z m60 0 c0 -13 -11
-13 -30 0 -12 8 -11 10 8 10 12 0 22 -4 22 -10z m55 0 c-3 -5 -10 -10 -16 -10
-5 0 -9 5 -9 10 0 6 7 10 16 10 8 0 12 -4 9 -10z m1045 0 c0 -10 -32 -30 -49
-30 -6 0 -11 5 -11 10 0 6 9 10 20 10 11 0 20 5 20 10 0 6 5 10 10 10 6 0 10
-4 10 -10z m-1003 -6 c-3 -3 -12 -4 -19 -1 -8 3 -5 6 6 6 11 1 17 -2 13 -5z
m1117 -36 c18 -15 18 -18 4 -18 -20 0 -50 39 -41 54 4 6 8 4 11 -4 2 -8 14
-23 26 -32z m-371 13 c-3 -13 -11 -17 -24 -14 -33 9 -22 24 23 32 3 0 4 -7 1
-18z m-540 -8 c-7 -2 -21 -2 -30 0 -10 3 -4 5 12 5 17 0 24 -2 18 -5z m427 -3
c0 -5 -4 -10 -10 -10 -5 0 -10 5 -10 10 0 6 5 10 10 10 6 0 10 -4 10 -10z
m540 -5 c0 -9 -6 -12 -16 -8 -13 5 -13 7 -2 14 17 11 18 11 18 -6z m-1180 -5
c0 -5 -4 -10 -10 -10 -5 0 -10 5 -10 10 0 6 5 10 10 10 6 0 10 -4 10 -10z
m830 -50 c0 -33 -4 -60 -8 -60 -5 0 -7 14 -4 30 4 25 1 30 -16 30 -11 0 -25 7
-32 15 -11 13 -8 15 14 15 15 0 29 7 32 15 11 27 14 16 14 -45z m153 43 c-7
-2 -19 -2 -25 0 -7 3 -2 5 12 5 14 0 19 -2 13 -5z m107 -8 c10 -12 10 -15 -3
-15 -8 0 -17 7 -21 15 -3 8 -2 15 3 15 5 0 14 -7 21 -15z m510 -7 c0 -18 -2
-20 -9 -8 -6 8 -7 18 -5 22 9 14 14 9 14 -14z m-1830 2 c-8 -5 -22 -10 -30
-10 -13 0 -13 1 0 10 8 5 22 10 30 10 13 0 13 -1 0 -10z m163 -7 c-6 -14 -1
-15 38 -8 61 12 301 13 317 2 8 -6 17 -5 27 3 13 11 14 10 8 -5 -5 -14 -3 -17
10 -12 9 3 17 2 17 -3 0 -15 60 -12 61 3 0 10 2 10 6 0 2 -7 12 -13 22 -13 18
0 47 -29 77 -77 10 -15 31 -41 46 -57 24 -25 27 -36 25 -87 l-1 -59 -439 1
c-418 0 -439 1 -444 18 -4 17 -19 19 -136 23 -92 3 -140 1 -157 -7 -62 -31
-78 -35 -127 -32 l-53 2 0 45 c0 25 4 50 8 56 9 14 51 23 117 25 28 1 55 6 61
11 6 4 40 4 75 0 35 -5 84 -7 108 -4 23 2 68 -1 100 -7 374 -72 398 -74 416
-33 10 23 23 26 74 16 40 -8 30 -24 -15 -24 -32 0 -45 -12 -25 -24 5 -3 55 -6
112 -7 57 -1 117 -6 133 -10 19 -5 34 -5 40 1 13 13 46 13 46 0 0 -11 49 -14
74 -4 23 9 20 21 -11 37 -20 11 -36 12 -67 5 -62 -15 -87 -12 -193 22 -122 39
-223 51 -223 26 0 -9 7 -16 15 -16 8 0 15 -5 15 -10 0 -20 -31 -22 -98 -8 -56
12 -68 18 -70 36 -2 15 -14 24 -40 32 -47 13 -72 13 -72 0 0 -5 9 -10 21 -10
11 0 28 -7 36 -16 15 -14 12 -15 -33 -9 -27 4 -84 13 -127 21 -46 8 -101 11
-132 8 -58 -7 -133 3 -119 15 9 8 67 25 118 36 18 4 37 0 52 -10 18 -12 37
-14 75 -9 64 9 60 30 -5 26 -25 -2 -46 1 -46 7 0 5 -8 11 -17 14 -39 9 45 30
151 38 59 4 113 12 119 18 8 8 1 11 -23 12 -29 0 -31 2 -15 9 11 5 32 9 47 9
22 1 26 -3 21 -16z m-753 -13 c-8 -14 -8 -26 0 -40 11 -20 4 -26 -16 -12 -21
14 -25 44 -7 58 26 19 35 17 23 -6z m1500 4 c0 -8 -4 -12 -10 -9 -5 3 -10 10
-10 16 0 5 5 9 10 9 6 0 10 -7 10 -16z m60 6 c0 -5 -4 -10 -10 -10 -5 0 -10 5
-10 10 0 6 5 10 10 10 6 0 10 -4 10 -10z m666 -25 c-3 -8 -10 -15 -15 -15 -7
0 -6 10 1 26 12 26 25 16 14 -11z m-343 4 l21 -12 -21 -8 c-12 -4 -31 -5 -44
-2 -21 6 -21 7 -4 20 23 16 21 16 48 2z m87 -19 c0 -5 -4 -10 -9 -10 -6 0 -13
5 -16 10 -3 6 1 10 9 10 9 0 16 -4 16 -10z m-1880 -19 c0 -20 -13 -35 -23 -25
-7 8 4 44 14 44 5 0 9 -9 9 -19z m1698 -3 c-6 -18 -28 -21 -28 -4 0 9 7 16 16
16 9 0 14 -5 12 -12z m208 -15 c-3 -3 -13 -2 -23 2 -17 7 -17 8 2 15 19 7 34
-5 21 -17z m-151 7 c-3 -5 -13 -10 -21 -10 -8 0 -14 5 -14 10 0 6 9 10 21 10
11 0 17 -4 14 -10z m99 -9 c17 -19 17 -19 -3 -14 -12 3 -21 10 -21 15 0 6 -11
8 -25 6 -13 -3 -22 -1 -19 3 9 16 51 9 68 -10z m-1895 -32 c-16 -10 -23 -4
-14 10 3 6 11 8 17 5 6 -4 5 -9 -3 -15z m1858 5 c-3 -3 -12 -4 -19 -1 -8 3 -5
6 6 6 11 1 17 -2 13 -5z m-2290 -25 c30 -18 40 -20 69 -11 22 6 58 7 101 1 38
-4 74 -8 81 -9 7 0 10 -5 6 -12 -4 -6 0 -17 10 -23 20 -15 11 -45 -15 -45 -13
0 -17 5 -12 18 4 9 -22 -9 -57 -40 l-63 -58 -119 0 -118 0 0 84 c0 46 3 91 6
100 9 23 70 20 111 -5z m1803 -14 c0 -20 -10 -19 -26 3 -19 25 -17 34 6 22 11
-6 20 -17 20 -25z m740 13 c14 -18 21 -20 31 -11 12 12 39 7 39 -8 0 -4 -7 -6
-15 -3 -8 4 -22 1 -29 -5 -11 -10 -20 -7 -40 10 -14 13 -26 26 -26 31 0 16 22
8 40 -14z m-1970 -17 c0 -7 -25 -11 -61 -11 -33 0 -58 3 -56 8 8 12 117 15
117 3z m1736 -1 c26 -10 26 -11 8 -31 -10 -11 -20 -16 -22 -10 -8 24 -24 10
-18 -15 6 -23 4 -25 -15 -19 -23 8 -59 40 -59 53 0 11 39 30 62 31 9 1 29 -4
44 -9z m-1946 -40 c0 -10 -4 -21 -9 -24 -13 -9 -44 32 -37 49 8 22 46 1 46
-25z m2020 30 c0 -5 -7 -10 -15 -10 -8 0 -15 5 -15 10 0 6 7 10 15 10 8 0 15
-4 15 -10z m158 -16 c18 -13 26 -13 38 -3 25 21 26 3 1 -57 -19 -49 -28 -60
-50 -62 -33 -4 -42 14 -32 64 6 33 8 35 23 22 11 -10 25 -12 42 -7 14 4 18 8
10 9 -47 7 -70 19 -70 36 0 18 10 18 38 -2z m-513 -90 c-5 -28 -10 -33 -35
-32 -25 1 -30 5 -30 26 0 14 14 41 33 61 l32 36 3 -29 c2 -16 1 -44 -3 -62z
m150 86 c-3 -5 -13 -10 -21 -10 -8 0 -14 5 -14 10 0 6 9 10 21 10 11 0 17 -4
14 -10z m189 -6 c12 -5 16 -20 16 -60 l0 -54 -71 0 -71 0 46 51 c25 28 46 55
46 60 0 10 12 11 34 3z m-1964 -20 c0 -8 -4 -12 -10 -9 -5 3 -10 10 -10 16 0
5 5 9 10 9 6 0 10 -7 10 -16z m343 -84 c15 0 27 -4 27 -10 0 -5 -7 -10 -16
-10 -9 0 -12 -5 -8 -11 5 -9 140 -10 520 -6 474 6 544 3 522 -18 -2 -2 -311
-6 -686 -9 -518 -3 -682 -1 -679 7 2 8 51 13 155 15 84 1 152 6 152 11 0 11
-47 20 -82 15 -15 -1 -28 1 -28 6 0 14 23 20 60 15 19 -3 47 -5 63 -5z m99
-12 c-17 -8 -26 -8 -34 0 -9 9 -4 12 23 11 32 0 33 -1 11 -11z m1076 -51 c-6
-20 -15 -37 -20 -37 -12 0 -10 13 8 49 21 41 27 35 12 -12z m912 32 c0 -5 -6
-11 -12 -14 -7 -2 -208 -6 -447 -10 -355 -5 -432 -4 -429 7 4 10 69 14 304 18
550 9 584 9 584 -1z m-2760 -24 c-9 -11 -34 -15 -95 -15 -64 0 -84 3 -89 15
-4 13 10 15 96 15 88 0 99 -2 88 -15z m37 -44 c-6 -17 -15 -27 -20 -24 -6 3
-17 -3 -25 -13 -14 -18 -14 -18 -8 -1 3 10 6 24 6 30 0 11 31 32 52 36 3 0 1
-12 -5 -28z m2723 -131 l0 -160 -47 2 c-37 1 -40 2 -15 5 46 6 40 23 -10 23
-53 0 -44 9 19 20 39 6 42 8 16 9 -22 1 -33 6 -33 16 0 11 -12 15 -42 16 -28
1 -34 3 -18 6 68 13 60 55 -9 51 -42 -3 -46 -5 -49 -30 -3 -24 -9 -29 -43 -34
-22 -4 -42 -10 -45 -15 -6 -11 28 -29 58 -30 23 -1 23 -1 -2 -8 -35 -10 -40
-41 -6 -41 34 0 42 -16 11 -24 -16 -4 -25 -13 -25 -26 0 -26 12 -25 28 0 23
38 32 10 32 -101 0 -66 4 -109 10 -109 6 0 10 45 10 115 l0 115 76 0 c64 0 75
2 70 15 -3 8 -1 15 4 15 6 0 10 -82 10 -212 0 -138 -4 -208 -10 -198 -8 13
-177 15 -1444 12 -789 -2 -1449 -1 -1466 3 l-31 7 3 346 3 347 77 3 c87 3 91
-1 58 -56 -11 -18 -20 -42 -20 -53 0 -18 4 -20 25 -15 27 7 36 -11 10 -20 -26
-10 -17 -24 16 -24 69 0 116 22 208 96 l92 74 117 0 c64 0 379 3 700 7 320 3
582 3 582 -1 0 -4 -12 -17 -27 -30 -17 -15 -24 -29 -20 -39 5 -14 21 -17 86
-17 97 0 131 11 131 42 1 56 -17 54 508 56 l402 2 0 -160z m-127 -37 c-7 -2
-19 -2 -25 0 -7 3 -2 5 12 5 14 0 19 -2 13 -5z m-70 -60 c-7 -2 -19 -2 -25 0
-7 3 -2 5 12 5 14 0 19 -2 13 -5z m90 0 c-13 -2 -33 -2 -45 0 -13 2 -3 4 22 4
25 0 35 -2 23 -4z m2 -53 c4 -6 -8 -10 -29 -10 -20 0 -36 5 -36 10 0 6 13 10
29 10 17 0 33 -4 36 -10z m-88 -6 c-3 -3 -12 -4 -19 -1 -8 3 -5 6 6 6 11 1 17
-2 13 -5z"/>
<g>
<path d="M1280 5022 c0 -4 14 -8 32 -8 30 1 35 -4 61 -58 15 -32 24 -63 20
-67 -4 -4 -30 -10 -58 -12 -27 -2 29 -4 125 -5 123 -1 170 2 158 9 -14 8 -18
23 -18 69 0 60 8 71 43 62 14 -3 17 -15 17 -61 0 -32 -5 -63 -12 -70 -11 -10
-7 -12 17 -9 21 2 29 7 25 18 -2 8 -4 40 -5 70 l0 55 45 6 c25 3 -66 7 -202 7
-137 1 -248 -2 -248 -6z m295 -72 l0 -65 -68 -3 -68 -3 7 28 c4 15 10 33 14
38 4 6 10 22 14 37 5 21 13 28 39 31 61 8 62 7 62 -63z m-121 33 c-4 -16 -12
-39 -19 -52 l-13 -25 -21 42 c-29 56 -27 62 19 62 39 0 40 -1 34 -27z"/>
</g>
<g>
<path d="M1605 2260 c4 -6 10 -47 14 -93 6 -65 9 -76 15 -54 13 43 -2 157 -20
157 -9 0 -12 -5 -9 -10z"/>
</g>
<g>
<path d="M1588 2190 c-4 -8 -9 -35 -13 -60 -6 -48 -52 -187 -67 -207 -5 -7 -6
-17 -2 -24 4 -8 13 0 24 22 27 53 72 223 68 255 -3 19 -6 24 -10 14z"/>
</g>
<g>
<path d="M450 2075 c-12 -20 -20 -38 -17 -41 2 -3 14 12 26 32 28 48 20 56 -9
9z"/>
</g>
<g>
<path d="M1122 2068 c3 -7 26 -17 54 -23 57 -13 99 -34 132 -65 25 -24 43 -19
26 7 -24 38 -223 114 -212 81z"/>
</g>
<g>
<path d="M2430 2060 c0 -5 5 -10 10 -10 6 0 10 5 10 10 0 6 -4 10 -10 10 -5 0
-10 -4 -10 -10z"/>
</g>
<g>
<path d="M1606 1989 c-3 -40 -17 -104 -31 -143 -25 -72 -31 -115 -27 -198 2
-39 7 -51 27 -64 32 -21 43 -12 17 14 -28 28 -36 123 -17 192 40 140 62 270
45 270 -4 0 -10 -32 -14 -71z"/>
</g>
<g>
<path d="M1723 3617 c-3 -5 4 -11 15 -14 11 -3 23 -12 26 -20 4 -11 1 -13 -14
-8 -24 8 -26 -7 -4 -26 14 -11 19 -10 35 10 19 23 26 60 12 62 -43 4 -65 3
-70 -4z"/>
</g>
<g>
<path d="M1383 3338 c-16 -43 -17 -108 -2 -108 7 0 9 11 6 27 -3 14 0 39 5 54
5 16 8 36 6 45 -2 11 -7 5 -15 -18z"/>
</g>
<g>
<path d="M1300 3085 c0 -8 5 -15 10 -15 6 0 10 7 10 15 0 8 -4 15 -10 15 -5 0
-10 -7 -10 -15z"/>
</g>
<g>
<path d="M1245 2951 c-6 -11 9 -23 19 -14 9 9 7 23 -3 23 -6 0 -12 -4 -16 -9z"/>
</g>
<g>
<path d="M870 2599 c0 -5 5 -7 10 -4 6 3 10 8 10 11 0 2 -4 4 -10 4 -5 0 -10
-5 -10 -11z"/>
</g>
<g>
<path d="M770 1590 c-11 -20 -6 -40 9 -40 7 0 31 43 31 55 0 14 -31 2 -40 -15z"/>
</g>
<g>
<path d="M2480 1490 c0 -5 5 -10 10 -10 6 0 10 5 10 10 0 6 -4 10 -10 10 -5 0
-10 -4 -10 -10z"/>
</g>
<g>
<path d="M2440 1460 c0 -5 5 -10 10 -10 6 0 10 5 10 10 0 6 -4 10 -10 10 -5 0
-10 -4 -10 -10z"/>
</g>
<g>
<path d="M310 1284 c-8 -1 -41 -6 -74 -9 -38 -4 -55 -10 -48 -17 6 -6 36 -6
86 1 43 6 97 11 122 11 24 0 44 5 44 10 0 9 -93 12 -130 4z"/>
</g>
<g>
<path d="M345 1240 c3 -5 24 -10 46 -10 21 0 39 5 39 10 0 6 -21 10 -46 10
-27 0 -43 -4 -39 -10z"/>
</g>
<g>
<path d="M715 899 c-33 -10 -70 -19 -81 -19 -12 0 -27 -7 -34 -15 -16 -19 -18
-20 100 11 56 14 112 24 126 21 13 -2 27 0 30 4 3 5 -1 9 -8 10 -7 0 -26 2
-43 4 -16 1 -57 -6 -90 -16z"/>
</g>
<g>
<path d="M715 865 c-5 -2 -29 -9 -52 -15 -24 -6 -43 -16 -43 -21 0 -7 7 -8 18
-4 9 4 22 8 29 9 7 1 16 5 19 9 4 4 18 7 31 7 13 0 23 5 23 10 0 10 -7 11 -25
5z"/>
</g>
<g>
<path d="M2385 949 c-4 -6 -5 -13 -2 -16 7 -7 27 6 27 18 0 12 -17 12 -25 -2z"/>
</g>
<g>
<path d="M2856 361 c-4 -5 -2 -12 3 -15 5 -4 12 -2 15 3 4 5 2 12 -3 15 -5 4
-12 2 -15 -3z"/>
</g>
</g>
</g>
</svg>
