<?xml version="1.0" standalone="no"?>
<!DOCTYPE svg PUBLIC "-//W3C//DTD SVG 20010904//EN"
 "http://www.w3.org/TR/2001/REC-SVG-20010904/DTD/svg10.dtd">
<svg version="1.0" xmlns="http://www.w3.org/2000/svg"
 width="300.000000pt" height="524.000000pt" viewBox="0 0 300.000000 524.000000"
 preserveAspectRatio="xMidYMid meet">
<metadata>
Created by potrace 1.15, written by Peter Selinger 2001-2017
</metadata>
<g transform="translate(0.000000,524.000000) scale(0.100000,-0.100000)"
fill="#000000" stroke="none">
<g>
<path d="M0 2620 l0 -2620 1494 0 c1353 0 1494 1 1500 16 3 9 6 1188 6 2620
l0 2604 -1500 0 -1500 0 0 -2620z m2965 2601 c4 -8 10 -1050 6 -1082 -1 -4
-17 9 -37 27 -32 31 -41 34 -96 34 -52 0 -63 3 -80 25 -14 18 -29 25 -53 25
-19 0 -37 -4 -40 -10 -3 -5 -11 -10 -17 -10 -6 0 -9 3 -6 6 4 3 -4 36 -17 72
-13 37 -28 90 -35 119 -11 47 -10 53 9 72 24 24 20 67 -7 89 -17 13 -19 7 49
142 4 8 37 73 73 143 36 71 66 141 66 156 0 36 -47 73 -113 90 -27 6 -109 12
-184 12 -86 0 -143 4 -157 12 -60 33 -166 51 -166 27 0 -11 9 -13 60 -10 72 3
95 -18 119 -107 10 -36 16 -43 37 -43 19 0 28 8 40 36 12 29 19 34 37 30 12
-3 16 -3 10 0 -23 10 -13 24 17 24 32 0 37 -9 18 -28 -9 -9 -9 -12 0 -12 7 0
12 5 12 12 0 30 18 -12 24 -54 5 -44 4 -48 -15 -48 -18 0 -21 5 -17 29 3 23
-1 32 -24 46 -26 15 -33 13 -28 -10 1 -5 -1 -24 -5 -42 -5 -26 -11 -33 -30
-33 -13 0 -29 8 -34 18 -6 9 -11 11 -11 5 0 -15 -40 -18 -40 -3 0 5 -7 7 -15
4 -17 -7 -22 31 -5 41 14 9 12 25 -2 23 -8 -2 -13 8 -13 25 1 18 -4 26 -11 23
-7 -3 -18 2 -24 10 -17 19 -64 18 -82 -3 -20 -22 -37 -107 -39 -193 -2 -70
-17 -144 -44 -227 -16 -47 -20 -52 -41 -47 -25 6 -34 -10 -11 -19 14 -6 -30
-46 -50 -47 -33 0 -1 106 34 115 13 3 23 13 23 23 0 10 5 23 11 29 12 12 39
124 33 135 -3 5 -2 13 2 20 4 6 7 40 6 75 -1 58 1 63 15 51 15 -11 16 -11 10
5 -4 10 -7 23 -7 28 0 6 -4 7 -10 4 -5 -3 -10 -1 -10 4 0 6 7 11 15 11 11 0
13 8 9 30 -4 19 -2 30 5 30 6 0 11 -7 11 -16 0 -8 4 -13 9 -10 12 8 1 57 -13
53 -26 -8 -45 -74 -51 -177 -3 -58 -11 -134 -18 -170 -10 -55 -18 -71 -56
-110 -39 -40 -45 -51 -49 -97 -3 -43 -1 -53 12 -53 9 0 16 -4 16 -10 0 -5 -6
-10 -13 -10 -7 0 -22 -6 -32 -14 -18 -13 -18 -15 -2 -30 16 -16 18 -16 26 6
11 28 47 62 58 55 17 -11 41 20 78 98 40 87 55 154 55 259 0 68 0 69 20 51 17
-15 35 -48 113 -200 29 -57 67 -144 67 -153 0 -6 -7 -12 -15 -16 -27 -10 -18
-63 15 -88 17 -12 30 -27 30 -32 0 -14 -49 -195 -61 -223 -5 -13 -14 -35 -21
-49 -12 -25 -12 -25 -28 -6 -8 11 -23 18 -34 17 -24 -5 -7 11 19 18 18 4 18 5
-2 6 -27 1 -31 21 -5 22 11 1 9 4 -8 9 -17 5 -19 8 -7 9 25 1 21 21 -5 22 -21
0 -21 1 -4 8 11 4 21 18 23 30 3 21 0 22 -29 16 -18 -4 -37 -11 -43 -16 -6 -6
3 -7 23 -3 21 4 32 3 32 -5 0 -6 -11 -11 -24 -11 -31 0 -42 -16 -20 -28 18
-10 12 -16 -28 -26 -21 -5 -28 -3 -28 9 0 8 7 15 17 15 34 0 2 13 -35 14 -39
1 -48 -16 -16 -28 8 -3 14 -13 14 -22 0 -11 -5 -14 -16 -10 -13 5 -14 4 -5 -7
9 -12 7 -14 -13 -12 -14 2 -29 6 -34 9 -10 6 -43 -29 -35 -37 3 -3 12 -3 21 0
12 5 14 2 9 -12 -6 -15 -5 -16 8 -5 12 10 15 10 15 -3 0 -9 -9 -21 -19 -27
-25 -13 -31 -13 -31 3 0 6 -10 23 -21 37 -17 21 -19 22 -10 3 19 -38 12 -49
-10 -14 -21 35 -38 37 -20 3 6 -12 11 -26 11 -33 0 -23 -28 11 -35 42 -7 29
-8 30 -26 13 -24 -22 -65 -28 -48 -7 6 7 18 13 26 13 7 0 25 7 38 16 13 9 29
13 35 9 6 -4 24 -2 39 5 21 8 27 17 24 31 -4 14 0 19 16 19 25 0 28 25 4 34
-14 6 -15 9 -2 21 8 8 28 16 45 18 16 2 39 9 50 15 11 6 26 7 33 3 8 -6 2 -10
-18 -14 -34 -7 -42 -27 -11 -27 11 0 20 5 20 11 0 5 4 8 9 5 5 -3 26 1 47 8
31 12 34 15 15 15 -14 1 -32 8 -41 16 -15 14 -21 14 -53 0 -20 -8 -48 -15 -61
-15 -15 0 -30 -8 -36 -21 -9 -16 -18 -19 -36 -15 -33 9 -30 -8 4 -21 26 -10
24 -11 -68 -56 -164 -80 -339 -119 -370 -82 -7 8 -22 15 -34 15 -37 0 -64 11
-69 28 -2 10 -28 25 -58 36 -30 10 -81 31 -115 47 -65 31 -74 33 -74 21 0 -4
23 -15 50 -25 28 -10 48 -22 46 -26 -14 -22 91 -73 177 -86 83 -13 69 -29 -19
-22 -60 5 -92 14 -134 37 -30 16 -85 44 -122 61 -42 20 -68 39 -68 48 0 9 17
27 38 40 48 32 151 130 163 156 5 11 25 40 43 65 32 42 66 102 79 142 8 22 44
44 84 51 44 8 79 -21 97 -83 25 -83 63 -149 124 -212 31 -33 57 -65 56 -72 0
-6 12 -11 28 -12 21 -1 28 3 24 12 -4 10 3 14 22 14 24 0 92 33 92 44 0 5 -51
-11 -99 -32 -30 -13 -35 -12 -50 3 -15 15 -15 17 3 31 11 8 27 14 35 14 11 0
10 -4 -5 -14 -25 -19 -13 -29 20 -16 27 10 27 10 8 30 -14 16 -26 19 -46 14
-14 -3 -26 -12 -26 -20 0 -8 -4 -14 -8 -14 -13 0 -73 66 -67 73 3 4 2 5 -2 2
-7 -5 -45 48 -56 78 -4 9 -2 17 5 17 7 0 7 4 -1 13 -6 8 -8 17 -5 20 9 9 36
-21 30 -32 -8 -13 15 -20 34 -10 8 4 26 12 40 18 22 10 19 11 -19 6 -38 -5
-42 -4 -32 9 6 8 23 17 36 20 22 6 24 9 12 27 -8 14 -19 18 -34 14 -32 -8 -29
3 5 16 15 6 22 13 15 16 -7 2 -21 0 -32 -6 -36 -20 -46 -11 -14 12 37 25 43
42 13 32 -22 -7 -26 5 -8 23 6 6 9 15 5 18 -4 4 -15 -4 -25 -16 -11 -14 -21
-19 -25 -13 -4 6 0 16 8 23 14 12 21 40 10 40 -3 0 -17 -12 -31 -27 -18 -20
-24 -23 -20 -10 15 46 18 72 8 62 -27 -27 -38 -123 -13 -117 6 1 11 -4 11 -12
0 -8 4 -16 9 -18 5 -1 7 -15 4 -30 -3 -15 -9 -25 -15 -22 -5 3 -6 14 -3 23 5
18 -47 75 -59 64 -3 -4 -6 -1 -6 5 0 6 6 15 13 19 14 9 38 93 31 105 -10 17
-21 7 -32 -29 l-11 -38 3 43 c2 23 0 42 -5 42 -5 0 -10 -12 -10 -27 l-1 -28
-8 30 c-8 34 -17 21 -23 -35 -3 -29 -4 -27 -5 12 -2 38 -5 46 -17 42 -8 -4
-16 -14 -16 -23 -1 -14 -2 -14 -6 2 -5 18 -15 22 -27 10 -4 -5 -13 -8 -19 -8
-6 0 -16 -10 -23 -22 -6 -13 -14 -20 -17 -16 -4 3 -7 1 -7 -6 0 -7 -4 -9 -10
-6 -7 4 -7 -3 0 -20 14 -37 13 -40 -7 -16 -12 14 -22 18 -31 12 -11 -6 -8 -14
15 -35 15 -14 34 -24 41 -21 6 3 19 8 28 12 12 4 15 2 12 -8 -3 -8 -11 -14
-19 -14 -9 0 -13 -9 -11 -23 l3 -22 -26 24 c-59 52 -67 57 -83 51 -13 -5 -7
-11 23 -28 27 -15 40 -30 41 -45 2 -29 -6 -28 -66 9 -28 17 -54 28 -58 24 -4
-4 1 -12 12 -19 36 -22 67 -48 62 -53 -3 -3 -18 4 -34 16 -33 23 -42 26 -42
12 0 -10 86 -61 101 -61 5 0 9 7 9 16 0 16 27 43 43 44 4 0 7 -7 7 -16 0 -8
-4 -13 -8 -10 -4 2 -9 -4 -9 -16 -1 -11 -12 -29 -25 -39 -12 -11 -29 -35 -38
-53 -19 -42 -79 -110 -88 -101 -4 4 -1 10 6 12 10 4 10 8 1 19 -8 10 -8 14 0
14 6 0 11 7 11 15 0 8 6 15 14 15 8 0 20 13 27 29 7 16 16 28 20 25 4 -2 7 7
7 20 0 19 -9 27 -41 40 -46 18 -55 16 -32 -8 21 -20 6 -21 -23 0 -19 13 -22
13 -22 1 0 -8 16 -22 36 -32 47 -22 38 -30 -12 -9 -35 15 -37 15 -24 -1 12
-15 11 -16 -13 -10 -37 10 -34 1 9 -24 20 -12 34 -24 31 -28 -3 -3 -21 4 -39
15 -26 16 -36 18 -48 9 -17 -13 -24 -57 -10 -57 5 0 23 -13 41 -29 18 -17 35
-30 38 -29 22 2 22 -4 3 -18 -13 -9 -26 -13 -30 -9 -3 3 -1 10 7 14 9 6 2 15
-26 32 -52 33 -60 35 -43 14 14 -17 13 -18 -7 -13 -31 8 -29 -6 3 -21 15 -6
24 -14 21 -17 -3 -3 -19 2 -36 10 -48 25 -60 18 -16 -9 45 -27 41 -34 -6 -9
-41 21 -47 12 -12 -16 l28 -23 -30 7 c-16 4 -33 13 -37 19 -4 6 -10 8 -14 4
-10 -10 4 -22 48 -41 34 -13 38 -13 38 1 0 9 6 13 15 9 9 -3 15 0 15 9 0 9 6
12 15 9 8 -4 15 -9 15 -13 -1 -12 -73 -52 -79 -43 -3 5 -23 15 -43 21 -21 7
-40 17 -43 22 -8 12 -25 12 -25 -1 0 -5 6 -10 14 -10 8 0 18 -4 21 -10 4 -6
-6 -7 -26 -3 -40 8 -33 -9 12 -27 25 -11 32 -11 39 0 4 7 13 9 20 5 16 -10
-26 -44 -52 -45 -18 0 -25 -25 -10 -34 5 -3 22 -1 38 4 l29 8 -30 2 c-28 2
-27 3 12 12 23 6 50 8 59 4 15 -6 15 -9 -7 -32 -15 -16 -32 -24 -49 -22 -16 2
-24 -2 -23 -10 4 -16 -19 -11 -34 8 -10 13 -12 13 -18 -2 -4 -10 -17 -18 -29
-17 -11 0 -15 3 -8 6 6 2 10 9 6 14 -3 5 1 9 9 9 7 0 14 6 14 13 0 9 -16 13
-49 13 -48 0 -64 -10 -30 -19 10 -3 6 -5 -10 -6 -39 -1 -35 -21 5 -22 31 -1
30 -1 -11 -13 -60 -15 -45 -23 30 -16 35 4 65 3 68 -1 3 -4 22 -4 43 0 20 5
37 5 37 1 0 -14 -17 -20 -54 -22 -25 -1 -33 -5 -27 -12 6 -7 2 -15 -13 -22
-21 -10 -23 -9 -20 15 3 25 1 26 -42 22 -48 -3 -70 -26 -41 -43 9 -4 14 -15
11 -22 -3 -8 4 -19 16 -26 14 -7 19 -17 15 -28 -5 -14 -4 -14 13 1 25 23 35
21 29 -3 -7 -29 8 -25 29 8 l18 27 6 -25 c6 -24 7 -24 24 13 23 46 36 55 36
25 1 -20 2 -21 13 -8 7 9 19 14 28 12 11 -2 21 7 27 25 l10 28 1 -28 c1 -24 4
-27 21 -22 12 4 20 2 20 -6 0 -9 4 -8 15 1 12 10 15 10 15 0 0 -7 6 -10 13 -7
9 3 19 -7 27 -29 8 -19 17 -34 21 -34 11 0 52 -90 88 -192 17 -48 38 -102 47
-120 16 -31 16 -33 -5 -46 -11 -8 -21 -22 -21 -31 0 -21 48 -73 61 -66 5 4 9
2 9 -4 0 -5 -8 -11 -17 -13 -15 -3 -15 -5 -1 -18 10 -10 14 -27 10 -48 -5 -36
-5 -36 -34 -21 -15 8 -31 7 -67 -6 -59 -23 -99 -60 -107 -101 -5 -28 -10 -33
-42 -36 -30 -4 -41 1 -64 24 -28 29 -36 62 -18 73 5 3 10 23 10 44 0 29 7 44
33 67 53 50 163 70 217 39 29 -17 40 -18 40 -7 0 5 -18 17 -40 28 -29 14 -41
27 -46 49 -4 16 -12 37 -18 47 -16 27 -119 77 -169 84 -57 8 -159 -19 -219
-57 -50 -32 -138 -123 -138 -143 -1 -15 -30 40 -42 78 -14 47 -38 187 -38 221
0 23 7 35 30 48 35 21 39 51 10 82 -19 20 -19 24 -5 66 8 24 19 53 25 64 5 11
19 45 30 75 12 30 28 66 35 80 14 28 55 154 55 169 0 5 -14 23 -31 40 -30 30
-30 32 -15 56 9 13 16 33 16 44 0 11 4 22 9 25 16 10 9 147 -11 200 -11 28
-20 62 -21 75 -1 14 -13 31 -28 40 -14 9 -38 24 -53 35 -16 11 -58 22 -109 29
-72 8 -88 7 -120 -8 -20 -9 -44 -14 -53 -11 -31 12 -105 -44 -97 -74 3 -12 -2
-20 -15 -24 -11 -4 -26 -13 -32 -22 -25 -29 -46 -179 -28 -201 5 -7 5 -14 -2
-18 -27 -17 11 -95 46 -95 7 0 18 -9 24 -19 8 -16 6 -20 -8 -24 -9 -3 1 -6 23
-7 l40 -2 -55 -13 c-30 -8 -56 -14 -58 -15 -2 0 0 5 4 11 5 8 1 8 -14 0 -44
-24 -39 -53 34 -181 21 -36 53 -94 72 -130 18 -36 47 -85 64 -109 20 -31 26
-47 19 -54 -16 -16 -13 -63 4 -77 13 -11 18 -62 8 -82 -2 -4 -17 2 -33 13 -19
14 -38 20 -58 17 -24 -3 -28 -1 -24 14 6 24 -26 49 -55 43 -15 -4 -23 1 -28
14 -3 11 -22 34 -41 50 -27 24 -44 31 -77 31 -53 0 -129 -45 -152 -89 -8 -17
-17 -31 -20 -31 -7 0 -6 745 1 1041 l7 267 900 1 c496 1 903 4 906 6 9 10
1120 5 1126 -4z m-330 -121 c39 -11 52 -17 30 -13 -22 3 -62 8 -90 9 -61 3
-58 2 -50 14 9 14 30 12 110 -10z m-375 -34 c0 -3 -4 -8 -10 -11 -5 -3 -10 -1
-10 4 0 6 5 11 10 11 6 0 10 -2 10 -4z m363 -3 c-13 -2 -33 -2 -45 0 -13 2 -3
4 22 4 25 0 35 -2 23 -4z m-1960 -94 c5 -18 2 -20 -16 -14 -12 4 -37 7 -54 7
-35 -1 -45 13 -15 21 46 12 80 7 85 -14z m87 -10 c0 -11 -3 -11 -24 -3 -23 9
-20 23 4 17 11 -3 20 -9 20 -14z m-206 -10 c12 -11 -13 -41 -29 -35 -6 2 -31
0 -56 -4 -60 -11 -70 8 -21 38 37 22 83 23 106 1z m1786 -2 c46 -8 119 -10
190 -7 138 6 192 2 187 -14 -4 -13 -113 -37 -133 -29 -8 3 -14 0 -14 -7 0 -10
17 -11 68 -6 86 8 62 -9 -41 -29 -67 -13 -68 -14 -17 -10 30 3 69 8 85 12 26
5 28 4 17 -9 -7 -9 -45 -20 -90 -27 -113 -18 -117 -21 -20 -16 74 4 87 3 82
-10 -6 -15 -28 -21 -139 -35 l-70 -9 93 3 c119 4 120 -14 1 -30 l-84 -12 75
-1 c89 -3 69 -19 -24 -20 -33 -1 -56 -4 -53 -7 4 -4 36 -6 72 -5 39 1 65 -2
65 -9 0 -6 -28 -10 -70 -10 -40 0 -70 -4 -70 -10 0 -6 28 -10 63 -10 44 0 58
-3 47 -10 -8 -6 -32 -8 -52 -4 -25 4 -38 2 -38 -5 0 -6 18 -11 40 -11 23 0 40
-5 40 -11 0 -8 -13 -10 -37 -5 -21 3 -51 6 -67 6 -23 0 -26 2 -17 14 10 12 8
15 -11 18 -32 4 -37 38 -6 39 25 1 19 4 -24 13 -35 8 -37 26 -3 26 14 0 25 5
25 10 0 6 -15 10 -32 10 -27 0 -37 7 -55 35 -13 19 -23 42 -23 50 0 9 -9 34
-21 56 -11 23 -18 47 -15 54 2 7 -1 18 -7 24 -14 14 -10 14 83 -2z m-1709 -16
c24 -22 11 -36 -23 -25 -17 5 -20 3 -15 -10 7 -18 -8 -66 -20 -66 -5 1 -19 10
-32 20 -19 17 -21 23 -11 36 7 8 19 13 27 10 7 -3 13 0 13 6 0 11 29 48 37 48
2 0 13 -9 24 -19z m99 -1 c0 -5 -4 -10 -10 -10 -5 0 -10 5 -10 10 0 6 5 10 10
10 6 0 10 -4 10 -10z m54 -6 c9 -3 16 -17 16 -31 0 -13 4 -22 8 -19 13 8 52
-23 52 -40 0 -20 -27 -29 -45 -14 -15 13 -17 10 -19 -24 -1 -27 -26 -33 -26
-7 0 24 -10 27 -28 9 -14 -14 -17 -11 -26 20 -6 17 -3 22 9 22 13 0 16 6 12
28 -3 17 0 33 10 45 18 20 16 19 37 11z m54 -22 c6 -18 -15 -14 -22 4 -4 10
-1 14 6 12 6 -2 14 -10 16 -16z m-143 -13 c9 -13 -3 -59 -15 -59 -5 0 -14 9
-20 21 -17 30 17 67 35 38z m-197 -16 c-4 -22 -38 -30 -49 -12 -11 18 -5 24
26 27 20 1 26 -2 23 -15z m-84 -19 c16 -6 23 -44 8 -44 -14 0 -43 36 -35 43 8
8 8 8 27 1z m1106 -14 c0 -5 -2 -10 -4 -10 -3 0 -8 5 -11 10 -3 6 -1 10 4 10
6 0 11 -4 11 -10z m-1042 -21 c-2 -6 -8 -10 -13 -10 -5 0 -11 4 -13 10 -2 6 4
11 13 11 9 0 15 -5 13 -11z m-76 -35 c10 -21 9 -27 -3 -35 -22 -14 -28 -11
-35 15 -12 47 19 63 38 20z m138 22 c0 -3 -4 -8 -10 -11 -5 -3 -10 -1 -10 4 0
6 5 11 10 11 6 0 10 -2 10 -4z m131 -11 c1 -17 -18 -17 -25 0 -4 11 -1 15 10
13 8 -2 15 -7 15 -13z m938 -1 c2 -2 -7 -4 -20 -4 -14 0 -35 -7 -47 -16 -28
-20 -38 -13 -21 14 10 16 20 19 48 15 20 -3 38 -7 40 -9z m-744 -24 c8 -24 -2
-60 -16 -60 -6 0 -7 5 -4 10 4 6 0 22 -9 35 -20 31 -20 35 3 35 11 0 23 -9 26
-20z m-305 1 c0 -5 -7 -12 -16 -15 -14 -5 -15 -4 -4 9 14 17 20 19 20 6z m-56
-26 c5 -15 47 -21 59 -9 10 11 167 13 167 3 0 -6 -8 -8 -17 -5 -10 3 -33 -3
-52 -12 -38 -19 -56 -59 -45 -102 l6 -25 16 22 c9 12 29 25 45 28 15 4 27 14
27 22 0 10 -6 12 -20 8 -11 -3 -27 -2 -37 3 -14 8 -12 12 15 26 17 9 37 13 45
10 20 -7 38 -73 27 -94 -5 -10 -7 -20 -4 -23 14 -14 -11 -67 -51 -109 -64 -67
-73 -67 -144 -8 -65 54 -87 92 -97 170 -8 61 4 69 60 40 38 -19 56 -19 56 1 0
5 -8 9 -17 9 -10 0 -27 7 -37 15 -11 8 -28 15 -38 15 -10 0 -18 4 -18 8 0 25
45 30 54 7z m-159 -5 c3 -5 1 -10 -4 -10 -6 0 -11 5 -11 10 0 6 2 10 4 10 3 0
8 -4 11 -10z m75 -20 c0 -5 -5 -10 -11 -10 -5 0 -7 5 -4 10 3 6 8 10 11 10 2
0 4 -4 4 -10z m360 -10 c0 -5 -4 -10 -10 -10 -5 0 -10 5 -10 10 0 6 5 10 10
10 6 0 10 -4 10 -10z m-405 -29 c-5 -24 -2 -29 17 -35 21 -6 21 -7 6 -17 -26
-15 -22 -26 12 -38 18 -6 30 -17 30 -27 0 -10 8 -26 18 -37 16 -20 16 -20 -1
-14 -10 4 -23 7 -28 7 -5 0 -9 11 -9 24 0 20 -6 25 -31 28 -40 4 -59 30 -42
58 7 10 10 26 7 35 -4 8 -1 22 6 30 18 22 22 18 15 -14z m485 -28 c0 -27 -37
-33 -46 -8 -5 11 -10 13 -19 5 -13 -11 -25 -4 -25 17 0 7 7 13 15 13 8 0 15 4
15 9 0 5 14 4 30 -2 21 -8 30 -18 30 -34z m945 28 c-6 -5 -21 -12 -35 -15 -24
-7 -24 -6 -6 8 21 17 57 23 41 7z m-955 -96 c0 -20 -27 -37 -52 -33 -29 4 -38
44 -11 50 29 6 63 -3 63 -17z m1568 -20 c-3 -14 -1 -28 3 -31 12 -7 12 -44 0
-44 -18 0 -61 42 -61 60 0 19 24 39 49 40 9 0 12 -8 9 -25z m181 1 c9 -11 10
-20 1 -35 -12 -24 -30 -27 -48 -9 -17 17 -15 28 6 29 16 1 16 2 0 6 -10 2 -18
9 -18 14 0 14 46 10 59 -5z m-71 -23 c-2 -14 -8 -28 -14 -30 -7 -2 -10 6 -7
22 4 20 1 25 -14 25 -17 0 -19 -5 -15 -27 l5 -28 -22 22 c-11 12 -21 24 -21
27 0 6 30 13 63 15 25 1 28 -2 25 -26z m-1743 -13 c3 -5 -1 -10 -9 -10 -9 0
-16 5 -16 10 0 6 4 10 9 10 6 0 13 -4 16 -10z m455 0 c8 -5 11 -10 5 -10 -5 0
-17 5 -25 10 -8 5 -10 10 -5 10 6 0 17 -5 25 -10z m-5 -27 c19 -9 35 -20 35
-25 0 -12 -17 -10 -32 5 -7 7 -22 18 -33 25 -30 17 -10 14 30 -5z m-360 -33
c16 -50 -75 -93 -230 -109 -113 -12 -233 -3 -277 20 -31 17 -12 23 24 8 23
-10 75 -14 173 -13 116 1 151 4 207 23 74 25 93 40 83 71 -3 11 -2 20 4 20 5
0 13 -9 16 -20z m1605 -195 c0 -176 -2 -205 -15 -205 -8 0 -15 6 -15 14 0 8
-19 17 -50 23 -55 11 -69 7 -42 -13 16 -12 15 -13 -8 -15 -33 -2 62 -27 108
-28 29 -1 32 -4 32 -31 0 -16 7 -48 16 -71 16 -39 19 -41 53 -36 83 11 211 43
215 54 3 7 -15 47 -39 90 -50 86 -56 118 -25 128 11 4 18 11 14 16 -3 5 -14 7
-25 4 -11 -4 -19 -2 -19 4 0 16 56 13 70 -4 7 -8 10 -20 7 -28 -3 -9 12 -11
69 -9 71 4 75 3 104 -26 44 -44 37 -56 -13 -22 -52 35 -127 51 -127 28 0 -11
15 -17 51 -22 59 -8 103 -45 114 -96 4 -17 14 -34 22 -39 12 -6 6 -10 -23 -15
-46 -9 -83 -27 -107 -53 -15 -17 -24 -19 -65 -12 -55 9 -118 -15 -151 -57
l-20 -25 -21 21 c-22 22 -50 24 -58 3 -2 -7 4 -13 13 -13 9 0 23 -7 31 -15 13
-12 12 -17 -5 -34 -25 -25 -51 -85 -51 -116 0 -13 -11 -30 -25 -39 -15 -10
-25 -26 -25 -40 0 -21 -3 -22 -55 -18 -111 9 -198 -43 -225 -135 -11 -37 -15
-39 -49 -38 -20 0 -45 5 -56 12 -84 46 -245 -4 -245 -77 0 -17 -7 -30 -17 -34
-10 -3 -23 -8 -29 -11 -11 -6 -23 19 -43 90 -18 67 -18 68 14 142 9 21 23 34
40 38 14 3 36 7 49 10 23 5 25 9 23 60 -2 50 1 57 28 80 21 17 43 24 72 25 23
0 45 5 48 10 4 6 -7 31 -24 57 -38 57 -41 112 -10 193 28 75 59 113 123 149
64 37 128 41 164 11 l23 -19 -36 -55 c-19 -30 -44 -61 -56 -70 -21 -14 -20
-15 29 -40 44 -22 260 -81 268 -73 12 12 -27 27 -127 51 -150 36 -150 36 -111
80 30 34 72 113 72 135 0 5 7 22 15 38 25 48 72 186 80 231 5 32 11 42 26 42
18 0 19 -10 19 -205z m88 178 c3 -18 -2 -23 -17 -23 -12 0 -21 -4 -21 -10 0
-5 11 -10 25 -10 14 0 25 -4 25 -10 0 -5 -11 -10 -25 -10 -14 0 -25 -4 -25
-10 0 -5 14 -10 30 -10 40 0 38 -18 -2 -22 -18 -2 -33 -7 -33 -13 0 -5 16 -9
35 -7 l35 3 28 -82 c31 -91 30 -93 -35 -104 -39 -7 -63 -25 -31 -25 10 1 37 5
60 9 32 6 46 5 54 -5 9 -11 6 -14 -19 -14 -37 0 -52 -17 -20 -23 17 -3 12 -6
-19 -12 -24 -4 -43 -12 -43 -18 0 -9 22 -7 98 9 20 4 32 3 32 -4 0 -6 -25 -16
-55 -22 -30 -6 -55 -16 -55 -22 0 -6 10 -8 25 -4 14 4 46 9 73 12 72 10 39
-15 -44 -32 -73 -16 -106 -34 -64 -35 23 0 23 -1 -7 -16 -18 -9 -35 -14 -39
-11 -20 21 -36 523 -17 542 15 15 48 1 51 -21z m-2113 -13 c3 -5 1 -10 -4 -10
-6 0 -11 5 -11 10 0 6 2 10 4 10 3 0 8 -4 11 -10z m272 -32 c-3 -8 -6 -5 -6 6
-1 11 2 17 5 13 3 -3 4 -12 1 -19z m120 -32 c-12 -9 -14 -16 -7 -21 15 -9 3
-25 -34 -42 -20 -9 -23 -12 -8 -9 31 6 28 -10 -5 -23 l-28 -11 28 4 c37 5 34
-8 -8 -28 -38 -18 -47 -31 -15 -21 11 4 20 2 20 -4 0 -6 -12 -14 -27 -18 l-28
-7 25 -7 c23 -6 23 -7 3 -8 -30 -1 -40 -21 -11 -22 17 -1 12 -5 -17 -14 -41
-14 -39 -18 5 -16 19 0 16 -3 -14 -14 -52 -20 -59 -29 -18 -23 41 6 41 -6 0
-23 -27 -11 -29 -14 -12 -20 16 -7 16 -8 -6 -8 -19 -1 -22 -3 -10 -11 19 -11
11 -18 -28 -26 -26 -5 -32 -3 -32 10 0 10 -4 15 -9 11 -5 -3 -12 -1 -16 5 -3
5 4 11 17 11 16 1 12 4 -12 9 -23 5 -27 8 -12 9 12 0 22 6 22 12 0 7 -10 9
-25 5 -14 -4 -25 -2 -25 4 0 5 11 10 25 10 14 0 25 5 25 11 0 6 -10 10 -22 9
-38 -3 -50 -1 -43 10 3 6 18 11 33 11 21 1 23 2 7 7 l-20 5 20 8 c16 6 14 8
-12 8 -46 1 -41 21 5 23 34 1 33 2 -13 8 -28 4 -38 8 -22 8 19 2 27 7 27 21 0
14 8 21 28 24 25 4 25 4 -5 6 -22 0 -33 6 -33 16 0 11 13 15 48 17 l47 2 -47
3 c-61 5 -63 23 -2 23 60 0 48 20 -14 21 -32 1 -13 5 58 14 58 8 125 20 150
28 58 19 69 20 47 3z m-332 -37 c23 -6 18 -7 -23 -4 -29 1 -56 6 -59 9 -9 8
46 5 82 -5z m15 -29 c0 -5 -9 -10 -20 -10 -11 0 -20 5 -20 10 0 6 9 10 20 10
11 0 20 -4 20 -10z m10 -40 c0 -5 -9 -10 -20 -10 -11 0 -20 5 -20 10 0 6 9 10
20 10 11 0 20 -4 20 -10z m920 -62 c0 -5 -22 3 -50 17 -27 14 -50 27 -50 29 0
2 23 -5 50 -17 28 -11 50 -25 50 -29z m-910 22 c0 -5 -6 -10 -14 -10 -8 0 -18
5 -21 10 -3 6 3 10 14 10 12 0 21 -4 21 -10z m630 0 c0 -5 -7 -10 -15 -10 -8
0 -15 5 -15 10 0 6 7 10 15 10 8 0 15 -4 15 -10z m1034 1 c3 -5 -5 -11 -18
-13 -17 -4 -23 -1 -19 9 6 15 29 18 37 4z m-896 -38 c15 -10 29 -20 32 -24 3
-3 10 -8 16 -10 6 -2 -9 -13 -33 -25 -46 -23 -59 -18 -18 6 28 18 21 38 -15
43 -13 2 -26 9 -28 15 -5 17 15 15 46 -5z m832 7 c-8 -5 -22 -9 -30 -9 -10 0
-8 3 5 9 27 12 43 12 25 0z m-851 -46 c-15 -18 -22 -13 -13 10 3 9 10 13 16
10 5 -3 4 -12 -3 -20z m-779 -4 c0 -5 -2 -10 -4 -10 -3 0 -8 5 -11 10 -3 6 -1
10 4 10 6 0 11 -4 11 -10z m1050 -68 c0 -21 4 -31 11 -27 6 4 9 22 7 40 -1 19
1 37 5 41 4 4 7 -8 7 -27 0 -19 5 -41 10 -49 7 -11 10 -2 10 32 l0 46 44 -1
44 -2 5 -45 c3 -25 3 -47 0 -50 -2 -3 -58 -6 -123 -8 l-118 -4 1 51 c0 28 4
51 9 51 4 0 8 -18 8 -40 0 -22 5 -40 10 -40 6 0 10 18 10 40 0 22 5 40 10 40
6 0 10 -11 10 -24 0 -14 5 -28 10 -31 6 -4 10 9 10 32 0 28 3 34 10 23 5 -8
10 -30 10 -48z m392 8 c5 0 8 5 8 11 0 5 5 7 10 4 6 -4 17 -1 25 5 21 18 18 0
-5 -35 -65 -95 -70 -227 -12 -297 13 -15 11 -17 -15 -16 -37 1 -64 -14 -98
-53 -21 -26 -26 -41 -23 -73 3 -40 3 -40 -39 -49 -31 -6 -49 -17 -65 -39 l-22
-32 -7 28 c-6 21 -3 35 14 57 18 26 20 34 10 60 -13 33 0 79 52 194 12 28 26
60 29 73 4 12 12 22 17 22 5 0 9 10 9 23 1 12 13 45 29 74 22 42 30 50 41 40
10 -10 11 -5 6 23 l-6 35 17 -27 c10 -16 21 -28 25 -28z m-909 15 c-3 -9 -8
-14 -10 -11 -3 3 -2 9 2 15 9 16 15 13 8 -4z m807 -50 c-7 -8 -22 -15 -34 -15
-18 0 -17 2 9 19 34 21 44 19 25 -4z m1130 -11 c0 -8 -4 -12 -10 -9 -5 3 -10
10 -10 16 0 5 5 9 10 9 6 0 10 -7 10 -16z m-1212 -11 c-10 -2 -26 -2 -35 0
-10 3 -2 5 17 5 19 0 27 -2 18 -5z m-424 -9 c9 -3 16 -12 16 -19 0 -8 26 -14
77 -19 124 -10 163 -8 163 9 0 12 18 15 105 15 144 0 139 -12 -20 -54 -11 -3
9 -3 45 -1 75 6 65 -11 -12 -21 -27 -4 -48 -10 -48 -14 0 -4 23 -3 52 1 29 5
54 6 56 4 11 -11 -23 -35 -52 -36 -17 0 -40 -5 -51 -10 -15 -7 -6 -8 33 -6 52
4 72 -8 30 -18 -13 -3 -41 -9 -63 -15 -40 -10 -40 -10 13 -6 39 2 52 0 52 -10
0 -10 -14 -14 -44 -14 -25 0 -48 -4 -51 -10 -4 -6 12 -10 40 -10 28 0 44 -4
40 -10 -3 -5 -24 -10 -46 -10 -22 0 -39 -5 -39 -11 0 -7 12 -9 35 -5 22 4 35
3 35 -4 0 -5 -18 -10 -39 -10 -22 0 -43 -4 -46 -10 -4 -6 5 -10 19 -10 14 0
26 -5 26 -11 0 -7 -14 -10 -35 -7 -25 3 -34 0 -31 -8 2 -6 1 -15 -4 -20 -14
-15 0 -66 17 -60 8 3 19 6 24 6 5 0 9 5 9 10 0 6 -7 10 -15 10 -8 0 -15 5 -15
10 0 19 29 10 35 -11 9 -26 -12 -49 -57 -63 -27 -9 -34 -17 -36 -44 -3 -29 -6
-31 -28 -26 -31 8 -31 -4 0 -15 32 -13 36 -42 36 -240 0 -132 3 -171 15 -187
14 -18 14 -18 15 11 1 17 0 100 -1 185 -1 85 -3 189 -3 230 l-1 75 37 3 c32 3
38 0 42 -20 9 -46 26 -124 32 -145 6 -20 3 -23 -25 -23 -18 0 -30 -4 -27 -8 3
-5 19 -7 36 -4 16 2 30 0 30 -6 0 -12 -24 -22 -51 -22 -10 0 -19 -4 -19 -9 0
-5 18 -7 40 -4 26 4 40 2 40 -6 0 -6 -10 -11 -22 -11 -28 0 -62 -19 -38 -21 8
-1 29 0 45 0 23 2 27 0 15 -8 -8 -6 -27 -11 -42 -11 -22 0 -28 -5 -28 -21 0
-19 4 -21 40 -15 39 6 39 6 29 -18 -6 -13 -25 -28 -43 -34 l-31 -10 29 -1 c38
-1 26 -12 -20 -20 -26 -4 -38 -12 -40 -25 -4 -26 6 -46 23 -46 8 0 11 -4 8
-10 -3 -5 -16 -10 -28 -10 -16 0 -18 -3 -9 -12 7 -7 12 -15 12 -19 0 -11 -140
2 -221 21 -68 15 -77 15 -86 1 -6 -10 -12 -11 -16 -4 -4 6 9 23 28 37 l35 27
61 -16 c34 -9 71 -14 83 -12 27 5 11 11 -68 25 -61 12 -74 18 -63 28 5 5 69
-6 131 -23 11 -3 16 -1 12 5 -3 5 -22 13 -42 16 -59 12 -84 26 -74 45 28 53
69 217 85 339 6 48 9 52 33 52 23 1 25 2 9 11 -9 5 -22 7 -27 4 -6 -3 -10 2
-11 12 0 10 -2 30 -4 46 -3 19 1 27 12 27 10 0 13 -6 9 -16 -8 -21 11 -54 31
-54 13 0 14 3 5 12 -19 19 -14 45 11 53 l22 7 -25 8 c-14 4 -19 8 -12 9 6 1
12 6 12 11 0 6 -19 10 -42 10 -24 0 -50 5 -58 11 -11 8 -3 9 33 6 63 -6 60 8
-5 19 l-51 9 -46 115 c-26 63 -52 125 -59 138 -14 24 -12 25 12 16z m-1076
-48 c17 -19 33 -44 37 -55 5 -17 10 -19 26 -11 23 13 39 5 39 -17 0 -9 -6 -13
-14 -10 -21 8 -66 -15 -66 -34 0 -8 -6 -24 -14 -34 -8 -11 -12 -25 -9 -32 4
-9 -4 -13 -25 -13 -16 0 -36 -7 -43 -17 -13 -15 -10 -15 36 -8 28 5 65 9 83
10 38 0 41 7 7 25 -14 7 -25 21 -25 31 0 16 3 15 26 -6 15 -14 30 -22 35 -19
26 16 99 -48 99 -86 0 -18 -20 -10 -20 8 -1 21 -20 46 -42 55 -23 8 -23 -1 -1
-25 17 -19 16 -19 -12 -12 -125 33 -281 -35 -342 -149 l-23 -42 0 32 c0 18 6
33 15 37 8 3 15 17 15 31 0 14 5 25 10 25 6 0 10 5 10 10 0 7 -6 7 -19 0 -24
-13 -31 -13 -31 0 0 5 11 12 25 16 14 3 25 11 25 16 0 6 -11 7 -25 4 -19 -5
-25 -2 -25 9 0 9 12 18 30 22 17 3 30 9 30 14 0 5 -13 6 -30 3 -23 -5 -30 -3
-30 10 0 12 10 16 38 16 27 0 33 3 22 10 -8 5 -15 15 -16 22 0 7 -6 26 -13 41
-18 45 14 108 70 135 67 33 110 29 147 -12z m482 9 c0 -8 -7 -15 -15 -15 -16
0 -20 12 -8 23 11 12 23 8 23 -8z m-190 -9 c0 -7 -8 -20 -17 -27 -15 -12 -16
-12 -10 4 4 10 7 23 7 28 0 5 5 9 10 9 6 0 10 -6 10 -14z m70 -33 c0 -33 -1
-35 -27 -28 -36 9 -37 9 -22 37 26 49 49 45 49 -9z m64 25 c3 -14 0 -29 -9
-37 -19 -19 -32 -6 -15 14 8 10 9 15 1 15 -6 0 -11 7 -11 15 0 24 27 18 34 -7z
m41 -17 c3 -5 1 -12 -5 -16 -5 -3 -10 1 -10 9 0 18 6 21 15 7z m2230 -1 c3 -5
-14 -15 -38 -21 -37 -9 -48 -17 -63 -50 -22 -45 -37 -52 -28 -11 12 47 23 60
66 75 53 19 55 19 63 7z m15 -51 c0 -12 -11 -34 -25 -51 -14 -16 -25 -38 -25
-48 0 -11 -9 -24 -20 -30 -11 -6 -20 -15 -20 -21 0 -6 5 -7 10 -4 6 3 13 -1
16 -9 8 -20 44 -21 44 -2 0 8 5 18 10 21 6 4 10 -40 10 -126 l0 -132 -26 26
c-36 36 -86 50 -155 44 -73 -6 -144 -45 -153 -83 -5 -19 -10 -24 -17 -17 -15
15 11 62 49 90 16 12 53 25 81 29 61 8 65 31 5 26 -84 -7 -163 -70 -155 -125
1 -9 -2 -16 -7 -15 -6 2 -10 0 -11 -4 -3 -24 1 -30 19 -25 26 7 26 -14 -1 -36
-11 -10 -22 -17 -23 -15 -9 14 -23 94 -17 98 11 8 8 91 -4 87 -5 -2 -10 -23
-9 -46 1 -38 -1 -40 -16 -26 -27 25 -35 17 -10 -10 35 -37 15 -44 -23 -7 -55
53 -116 65 -185 37 -49 -21 -82 -53 -82 -82 0 -21 3 -20 36 16 63 70 133 77
203 20 33 -26 40 -38 43 -75 4 -53 -10 -53 -29 1 -29 84 -83 106 -163 65 -50
-25 -70 -55 -63 -90 3 -15 0 -31 -6 -34 -18 -12 -12 -58 11 -83 39 -42 107
-20 94 30 -3 15 -13 27 -21 27 -11 0 -14 -7 -9 -25 9 -34 -21 -45 -48 -17 -19
18 -20 24 -9 51 15 36 38 56 71 64 43 11 68 -3 99 -53 25 -40 37 -50 66 -56
23 -4 41 -2 48 5 8 8 5 11 -12 11 -36 0 -58 17 -87 65 -30 53 -55 62 -120 46
-26 -7 -48 -10 -50 -8 -2 2 3 13 11 24 18 25 100 46 126 32 10 -5 26 -33 37
-61 16 -43 25 -54 48 -59 63 -14 89 -10 122 20 36 33 39 41 17 41 -8 0 -15 -6
-15 -13 0 -13 -40 -37 -60 -37 -5 0 -14 9 -20 21 -11 19 -10 20 10 9 19 -10
26 -8 51 16 16 15 29 36 29 47 0 46 76 108 132 106 17 0 12 -5 -21 -18 -24
-10 -47 -25 -53 -34 -11 -21 -11 -21 42 4 38 18 48 19 85 9 47 -13 98 -59 115
-104 13 -36 24 -28 15 12 -9 41 -53 87 -106 111 -32 15 -38 21 -21 21 31 0 84
-23 102 -45 26 -31 40 -88 39 -160 -1 -65 -2 -67 -9 -28 -22 108 -100 181
-183 170 -40 -6 -66 -21 -54 -33 4 -4 13 -1 22 6 36 30 138 -15 168 -74 42
-83 41 -82 25 -68 -9 7 -21 25 -27 40 -14 33 -65 70 -111 78 -46 9 -28 -8 26
-25 59 -19 95 -82 99 -172 3 -66 17 -109 36 -109 7 0 9 -132 7 -390 l-3 -390
-43 0 c-53 0 -90 -18 -132 -66 -29 -33 -32 -42 -26 -81 4 -34 3 -43 -10 -43
-8 0 -17 -7 -20 -15 -9 -21 -24 -19 -24 4 0 10 7 21 15 25 17 6 21 66 5 82 -8
8 0 43 25 115 20 57 43 128 52 157 16 52 33 69 33 32 0 -11 7 -20 15 -20 20 0
20 97 0 124 -17 23 -11 50 17 80 31 32 48 80 48 136 0 63 -19 102 -65 130 -38
23 -43 44 -20 74 31 41 15 129 -32 178 -14 14 -22 31 -19 37 5 7 -6 11 -31 12
-21 1 -29 3 -18 6 45 10 48 12 35 28 -7 8 -16 12 -21 9 -5 -3 -18 0 -29 6 -17
9 -24 6 -45 -17 -13 -15 -25 -40 -25 -55 0 -16 -4 -28 -10 -28 -14 0 -57 -71
-68 -111 -6 -24 -14 -34 -28 -34 -15 0 -21 10 -27 48 -5 26 -13 47 -18 47 -5
0 -9 7 -9 15 0 8 -7 15 -15 15 -9 0 -18 7 -21 15 -4 8 -17 15 -30 15 -13 0
-24 5 -24 12 0 16 -18 -2 -34 -34 -16 -33 -76 -37 -117 -7 -27 19 -30 26 -26
58 3 20 8 46 12 59 6 16 3 22 -8 22 -21 0 -42 -76 -30 -110 20 -58 129 -91
180 -55 20 14 21 13 15 -8 -5 -19 -3 -20 11 -9 13 11 17 10 27 -9 10 -17 9
-24 -3 -36 -13 -13 -12 -20 7 -55 11 -22 28 -43 36 -46 8 -3 18 -10 23 -16 5
-8 9 -8 15 0 12 17 40 24 50 11 5 -7 12 -32 16 -57 6 -41 4 -48 -19 -68 -14
-12 -25 -28 -25 -36 0 -35 -22 -23 -50 27 -37 67 -62 90 -90 85 -34 -5 -50
-64 -39 -146 14 -111 14 -112 -20 -99 -39 15 -65 -5 -57 -44 3 -17 0 -32 -9
-39 -15 -13 -19 -47 -9 -74 5 -13 9 -13 27 -1 36 23 78 -23 107 -115 13 -41
27 -79 32 -85 15 -17 8 -42 -14 -52 -27 -12 -100 -5 -92 8 3 5 -1 9 -9 9 -21
0 -52 -69 -38 -83 9 -9 17 -8 31 1 11 6 30 12 42 12 22 1 22 1 5 14 -16 13
-14 14 25 18 24 3 51 8 61 12 11 5 17 4 17 -4 0 -7 7 -28 16 -47 13 -25 14
-37 5 -46 -22 -22 -13 -57 19 -68 17 -6 30 -15 30 -19 0 -5 -9 -49 -21 -98
-19 -85 -21 -89 -45 -84 -13 2 -36 -3 -50 -13 -23 -15 -30 -15 -52 -4 -14 8
-55 14 -91 14 -57 0 -72 -4 -112 -31 l-45 -31 -12 39 c-7 22 -15 61 -18 86 -3
26 -10 64 -16 85 -11 36 -10 40 15 63 31 28 33 41 12 64 -14 15 -14 24 -2 76
15 63 81 236 123 321 19 38 24 60 19 82 -5 23 -3 33 9 37 16 6 36 62 36 101 0
16 -4 21 -15 17 -23 -9 -19 29 5 51 35 32 24 85 -35 162 -19 25 -35 54 -35 65
0 31 -97 127 -135 134 -38 7 -79 -11 -71 -31 2 -7 -2 -16 -10 -19 -19 -7 -18
-35 1 -42 8 -4 15 -15 15 -25 0 -12 14 -28 35 -40 19 -11 37 -30 41 -42 3 -12
13 -29 21 -38 11 -13 11 -21 2 -43 -11 -23 -10 -32 4 -55 15 -26 15 -29 -1
-45 -12 -11 -17 -31 -16 -64 l2 -47 -123 -1 -123 -1 -23 40 c-12 23 -24 59
-25 81 -2 23 -6 59 -9 82 -6 35 -3 45 19 69 14 15 26 34 26 41 0 6 20 24 45
38 45 27 54 43 34 63 -8 8 -7 16 2 30 17 28 5 53 -26 53 -22 0 -25 4 -25 33 0
84 140 124 222 64 16 -12 31 -16 39 -11 8 4 29 7 48 5 27 -2 33 0 28 13 -8 19
10 72 36 107 21 29 71 54 126 63 42 7 110 -10 118 -30 12 -32 22 -11 16 35 -5
46 -4 49 18 53 21 3 25 9 29 59 4 47 12 63 47 105 35 42 50 52 93 62 81 19
107 15 142 -18 39 -37 53 -34 53 12 1 53 21 71 88 77 11 1 17 -6 17 -20z
m-2386 -141 c-5 -73 -9 -197 -9 -275 0 -131 -1 -142 -17 -137 -12 3 -18 0 -18
-10 0 -30 49 -29 173 3 134 35 173 49 163 58 -3 3 -2 11 3 17 5 6 13 27 20 46
14 43 63 98 105 116 23 10 26 13 11 14 -44 0 -122 -71 -140 -128 -7 -23 -8
-22 -36 15 -47 63 -41 93 36 166 78 74 152 108 240 109 80 1 157 -40 184 -97
l19 -40 -49 -12 c-112 -29 -175 -82 -166 -140 3 -18 1 -35 -4 -38 -14 -10 -11
-61 6 -75 37 -31 -11 -94 -54 -71 -11 6 -72 11 -138 11 -137 -1 -192 -18 -271
-84 -88 -74 -97 -91 -95 -174 1 -66 -1 -74 -20 -82 -31 -13 -52 -31 -67 -60
l-14 -25 -8 35 c-5 19 -11 89 -13 155 -3 107 -6 125 -30 167 -15 26 -31 50
-36 53 -5 4 -9 15 -9 25 0 11 -9 24 -21 30 -17 10 -20 20 -18 63 3 63 -6 86
-37 98 -17 6 -24 16 -24 34 0 14 -5 25 -10 25 -6 0 -11 -17 -10 -37 1 -45 -10
-106 -20 -113 -3 -3 -21 -31 -39 -63 -25 -45 -29 -58 -18 -62 10 -5 14 -31 16
-110 1 -57 -2 -106 -7 -109 -5 -3 -9 -40 -10 -82 -2 -43 -9 -97 -17 -121 -8
-24 -15 -50 -15 -58 0 -8 -5 -15 -10 -15 -6 0 -30 -9 -52 -20 -23 -11 -42 -20
-42 -20 -1 0 -2 132 -4 294 l-3 294 33 7 c18 4 41 14 51 23 18 16 24 72 7 72
-22 0 -8 26 20 37 20 8 30 18 30 32 0 27 -20 27 -27 1 -3 -11 -16 -23 -29 -26
-34 -9 -48 -29 -29 -44 16 -14 21 -65 5 -55 -6 3 -10 13 -10 21 0 9 -7 22 -15
30 -23 24 -18 39 17 49 25 8 34 17 36 35 l3 25 -18 -21 c-22 -27 -73 -41 -73
-20 0 7 10 17 23 21 12 4 25 8 30 10 4 1 10 3 14 4 3 0 -2 10 -11 20 -22 24
-16 35 52 96 43 39 64 50 115 61 88 18 144 5 191 -46 37 -41 43 -55 26 -65 -5
-3 -15 4 -21 17 -5 13 -26 34 -45 47 -42 29 -117 31 -177 6 -44 -18 -117 -81
-117 -101 0 -26 25 -14 40 19 29 62 156 99 233 68 26 -10 44 -38 62 -101 6
-20 3 -18 -17 10 -33 49 -103 85 -150 76 -41 -7 -99 -44 -106 -66 -3 -10 3 -7
19 7 28 26 71 43 105 43 40 0 100 -37 123 -75 19 -33 20 -39 6 -64 -8 -16 -26
-42 -39 -58 -32 -38 -20 -59 44 -73 25 -5 58 -12 74 -16 50 -12 21 12 -31 26
-27 6 -54 14 -61 16 -9 2 -6 10 9 25 18 18 23 19 37 7 17 -14 87 -38 112 -38
32 0 -26 40 -66 46 -28 4 -44 11 -44 20 0 17 -2 17 51 -1 44 -15 44 -15 21 4
-20 18 -21 20 -5 24 13 3 8 7 -14 12 -18 4 -33 10 -33 14 1 23 14 51 24 48 38
-14 56 -17 56 -9 0 5 -15 13 -34 16 l-35 7 13 37 c10 28 20 38 42 43 29 7 29
7 3 8 l-26 1 18 81 c11 45 22 87 26 93 4 6 6 25 4 43 -2 28 1 33 20 33 l22 0
-9 -132z m2206 123 c0 -3 -30 -6 -66 -7 -39 -1 -60 3 -52 8 14 9 118 8 118 -1z
m-2123 -51 c18 0 16 -10 -4 -26 -17 -12 -16 -13 6 -14 23 0 24 -1 7 -13 -18
-13 -18 -14 -1 -21 14 -5 15 -9 5 -21 -11 -14 -7 -19 12 -16 4 0 14 -22 23
-51 8 -28 24 -66 35 -85 11 -19 20 -36 20 -38 0 -2 -26 -9 -57 -16 -32 -7 -51
-14 -42 -16 9 -2 36 1 60 6 37 9 46 8 57 -6 22 -31 13 -38 -73 -58 -47 -10
-85 -23 -85 -27 0 -10 -2 -11 75 7 37 9 72 14 79 12 6 -3 -2 -8 -19 -11 -77
-18 -145 -41 -145 -48 0 -13 39 -9 122 14 67 18 79 24 75 40 -7 27 12 22 25
-7 6 -14 9 -27 7 -28 -2 -2 -51 -16 -109 -31 -58 -15 -114 -30 -124 -34 -18
-5 -19 1 -13 159 4 90 10 213 13 273 7 104 8 107 23 82 9 -14 21 -26 28 -26z
m-276 23 c12 8 27 8 46 1 22 -7 29 -17 31 -42 3 -33 16 -42 26 -19 4 6 4 1 1
-13 -2 -14 -5 -36 -6 -50 l-1 -25 -8 25 c-4 14 -8 19 -9 11 -1 -8 -11 1 -24
20 -17 26 -31 35 -57 37 -60 6 -55 20 6 17 45 -2 53 0 38 9 -10 6 -34 11 -53
11 -20 0 -36 6 -39 14 -3 10 0 11 14 3 12 -7 23 -6 35 1z m-374 -25 c-3 -8 -6
-5 -6 6 -1 11 2 17 5 13 3 -3 4 -12 1 -19z m2953 -17 c0 -10 -7 -24 -15 -31
-16 -13 -18 -8 -9 28 8 27 24 29 24 3z m-30 -61 c0 -5 -4 -10 -10 -10 -5 0
-10 5 -10 10 0 6 5 10 10 10 6 0 10 -4 10 -10z m-1250 -90 c0 -5 -4 -10 -10
-10 -5 0 -10 5 -10 10 0 6 5 10 10 10 6 0 10 -4 10 -10z m-240 -45 c11 -13 10
-14 -4 -9 -9 3 -16 10 -16 15 0 13 6 11 20 -6z m226 -13 c-18 -16 -18 -16 -6
6 6 13 14 21 18 18 3 -4 -2 -14 -12 -24z m-1386 -212 c0 -45 5 -73 14 -82 7
-8 17 -25 21 -38 11 -35 14 -220 4 -220 -5 0 -9 18 -9 40 0 33 -3 40 -17 38
-14 -2 -18 4 -20 27 -7 131 -11 158 -31 184 -35 48 -12 145 31 124 4 -2 7 -35
7 -73z m1085 39 c-22 -11 -48 -27 -57 -37 -21 -20 -38 -120 -20 -108 7 4 12
16 12 28 0 48 74 119 111 106 9 -3 0 -11 -23 -21 -35 -15 -58 -42 -58 -69 0
-7 14 4 31 25 29 35 59 49 59 27 0 -5 -6 -10 -14 -10 -7 0 -19 -7 -27 -16 -11
-13 -9 -14 15 -8 25 6 27 5 18 -12 -5 -11 -13 -37 -16 -60 -8 -43 -50 -125
-86 -162 -18 -19 -24 -20 -43 -11 -12 7 -26 18 -30 25 -20 34 -77 2 -59 -33
17 -33 2 -47 -23 -23 -31 29 -65 13 -65 -30 0 -23 -5 -30 -18 -30 -31 0 -57
-36 -45 -62 8 -18 5 -26 -19 -46 -18 -15 -28 -34 -28 -50 0 -32 -9 -46 -32
-55 -10 -3 -18 -14 -18 -24 0 -10 -13 -26 -30 -35 -39 -22 -49 -62 -22 -91 11
-12 25 -39 31 -59 7 -21 17 -40 22 -43 5 -4 9 -13 9 -22 0 -12 -7 -14 -35 -10
-24 4 -35 2 -35 -6 1 -18 49 -49 76 -49 13 0 24 -5 24 -10 0 -5 9 -29 20 -54
39 -85 41 -94 25 -117 -8 -12 -15 -33 -15 -47 0 -23 10 -35 49 -59 12 -8 12
-21 1 -84 -16 -97 -21 -104 -55 -89 -51 24 -109 15 -159 -23 -32 -24 -57 -35
-80 -35 -45 0 -56 18 -16 26 24 5 29 10 25 25 -4 13 -1 19 9 19 22 0 30 18 37
90 6 54 3 77 -17 138 -27 80 -61 135 -81 128 -7 -3 -10 1 -7 8 3 9 -11 20 -38
31 -56 22 -96 25 -131 7 -32 -16 -46 -10 -27 12 6 9 18 35 25 58 12 42 14 43
55 44 44 1 63 17 54 45 -6 22 38 57 82 65 48 9 123 -30 146 -74 9 -18 19 -29
22 -23 13 20 -17 57 -66 85 -42 24 -58 28 -100 24 -59 -6 -102 -35 -106 -71
-4 -29 -5 -30 -38 -21 -20 5 -21 9 -10 43 6 21 19 45 28 55 22 21 23 72 4 92
-8 7 -35 19 -60 26 -32 8 -45 16 -41 26 3 7 5 21 5 29 0 13 3 13 15 3 13 -11
18 -10 28 2 7 9 26 19 42 24 l30 8 -27 4 c-15 2 -36 -2 -48 -8 -14 -8 -20 -8
-20 0 0 6 14 16 31 22 20 7 27 14 20 21 -14 14 -75 -24 -79 -50 -2 -12 -9 -26
-16 -32 -9 -8 -11 -2 -8 27 5 44 25 69 70 88 33 13 33 14 31 71 -3 87 14 135
64 176 84 68 127 82 262 82 98 0 126 -3 148 -17 35 -23 51 -23 44 2 -10 37 77
66 139 45 19 -6 21 -3 22 40 1 66 48 112 117 114 30 0 30 0 -10 -20z m-1335
-33 c0 -8 -4 -17 -9 -21 -12 -7 -24 12 -16 25 9 15 25 12 25 -4z m193 -65 c9
-16 17 -31 17 -34 0 -9 -71 -13 -76 -5 -5 8 26 68 36 68 3 0 13 -13 23 -29z
m1592 -51 c-3 -5 -13 -10 -21 -10 -8 0 -12 5 -9 10 3 6 13 10 21 10 8 0 12 -4
9 -10z m-1588 -8 c6 -4 16 -49 22 -101 6 -51 13 -96 15 -99 3 -3 10 6 15 19 7
20 9 17 9 -21 1 -44 11 -368 12 -402 1 -10 6 -20 11 -23 5 -4 7 -11 4 -16 -8
-11 -72 -12 -79 -1 -3 5 1 44 9 88 18 102 19 167 2 162 -6 -3 -15 -18 -19 -34
-3 -16 -4 12 -1 61 4 60 10 93 19 98 15 8 20 47 7 47 -21 0 -45 -82 -45 -149
1 -40 -6 -90 -14 -113 -16 -47 -19 -132 -4 -123 5 3 10 26 10 51 0 24 4 44 9
44 7 0 4 -89 -4 -117 -3 -9 -24 -13 -60 -13 -30 0 -55 2 -55 4 0 2 11 24 25
47 15 28 25 60 25 86 0 23 7 63 15 88 9 25 16 69 16 98 -1 90 8 301 13 314 6
14 25 17 43 5z m1643 -17 c0 -8 -6 -15 -12 -15 -7 0 -25 -7 -40 -14 -40 -21
-44 -2 -5 23 38 25 57 27 57 6z m199 1 c13 -7 20 -16 15 -19 -15 -9 -77 7 -82
21 -5 16 36 15 67 -2z m886 -86 c6 -24 6 -24 -9 -6 -10 12 -16 37 -15 65 l2
46 7 -40 c5 -22 11 -51 15 -65z m-161 51 c37 -64 15 -170 -36 -171 -28 0 -33
22 -10 38 30 20 28 62 -3 85 -14 10 -30 15 -35 12 -19 -12 -10 14 16 45 31 36
42 35 68 -9z m-746 -15 c11 -12 -26 -16 -52 -6 -37 14 -24 31 15 20 18 -5 34
-12 37 -14z m596 -3 c-3 -16 -11 -38 -17 -51 -8 -18 -8 -25 2 -31 7 -5 10 -17
6 -33 -7 -27 20 -134 36 -143 5 -4 9 -23 9 -43 0 -33 -4 -39 -39 -56 -50 -23
-77 -16 -60 16 8 15 10 60 5 154 -6 123 -5 134 15 173 25 48 53 57 43 14z
m-894 -12 c0 -17 -4 -32 -9 -35 -12 -8 -23 23 -16 45 10 29 25 22 25 -10z
m-1368 -3 c11 -19 13 -50 7 -163 -7 -149 5 -289 25 -282 6 2 9 13 8 23 -2 10
-1 16 3 12 11 -11 43 -138 36 -142 -3 -3 -33 -6 -65 -7 l-59 -3 -4 35 c-2 19
-5 96 -7 172 -2 76 -7 150 -11 164 -5 23 -4 25 9 14 9 -8 16 -28 16 -46 0 -41
9 -67 21 -59 10 6 13 77 4 86 -3 3 -8 40 -10 82 -3 62 -1 76 10 76 19 0 19 16
0 24 -16 6 -21 36 -6 36 5 0 15 -10 23 -22z m1746 9 c6 -6 13 -24 17 -40 6
-21 4 -27 -10 -27 -10 0 -15 5 -12 13 3 7 -1 21 -9 32 -23 31 -10 52 14 22z
m-258 -7 c0 -5 -11 -17 -26 -26 -31 -21 -56 -5 -34 21 14 17 60 21 60 5z m-85
-60 c8 -13 -34 -72 -46 -64 -17 10 11 74 32 74 4 0 11 -5 14 -10z m320 -10
c18 -19 17 -20 -1 -20 -20 0 -44 17 -44 32 0 15 27 8 45 -12z m-885 -5 c0 -8
-7 -15 -15 -15 -16 0 -20 12 -8 23 11 12 23 8 23 -8z m486 -20 c0 -21 -13 -45
-25 -45 -4 0 -7 16 -7 35 0 27 4 35 16 33 8 -2 15 -12 16 -23z m482 -23 c2
-12 -1 -22 -7 -22 -13 0 -32 35 -24 44 12 12 28 0 31 -22z m-923 8 c11 -17 -5
-32 -21 -19 -7 6 -11 15 -8 20 7 12 21 11 29 -1z m-122 -37 c7 -37 -10 -54
-28 -29 -10 13 -11 24 -4 37 14 27 26 23 32 -8z m92 -3 c3 -5 -1 -10 -9 -10
-9 0 -16 5 -16 10 0 6 4 10 9 10 6 0 13 -4 16 -10z m1514 -13 c17 -2 52 -19
76 -37 69 -52 78 -109 33 -210 -7 -17 -16 -30 -20 -30 -13 0 -21 73 -11 89 19
30 -7 84 -52 106 -22 11 -44 25 -50 32 -5 6 -19 13 -30 15 -11 2 -21 12 -23
22 -5 22 18 39 34 26 6 -6 25 -11 43 -13z m-1372 -10 c-6 -18 -22 -18 -34 1
-10 17 -8 18 13 14 14 -2 23 -9 21 -15z m353 3 c0 -11 -7 -20 -15 -20 -17 0
-18 2 -9 24 9 23 24 20 24 -4z m-410 -10 c0 -13 -7 -20 -20 -20 -19 0 -27 20
-13 33 13 14 33 6 33 -13z m341 -2 c19 -21 26 -58 11 -58 -7 0 -42 63 -42 75
0 11 14 4 31 -17z m498 -41 c1 -16 -3 -26 -9 -22 -5 3 -10 25 -9 48 0 33 2 38
9 22 5 -11 9 -33 9 -48z m75 -9 c-6 -20 -13 -22 -32 -9 -16 10 -13 39 8 63 14
17 15 17 22 -9 4 -16 5 -36 2 -45z m-791 56 c3 -4 -8 -24 -25 -45 l-31 -38
-18 23 c-24 31 -24 36 1 36 11 0 23 7 26 15 6 15 35 20 47 9z m173 -25 c17
-14 19 -49 3 -49 -15 0 -3 -62 15 -75 7 -6 13 -24 14 -40 0 -43 6 -69 17 -78
6 -5 2 -6 -9 -3 -43 14 -62 -47 -29 -94 10 -14 36 -63 58 -110 22 -47 62 -125
89 -173 45 -82 47 -89 32 -106 -21 -23 -20 -33 5 -65 14 -18 19 -36 16 -54
-29 -157 -27 -152 -57 -152 -16 0 -30 5 -32 10 -5 15 -66 -8 -100 -38 -18 -17
-28 -35 -28 -54 0 -31 -6 -34 -34 -13 -11 8 -30 15 -42 15 -12 0 -27 7 -34 15
-18 21 -86 19 -124 -5 l-32 -19 -26 107 c-42 168 -42 163 -18 169 13 3 19 11
16 22 -2 9 -7 26 -11 39 -8 28 57 217 92 269 13 18 23 38 23 44 0 5 7 26 16
47 l15 37 16 -33 c12 -25 13 -36 4 -45 -16 -16 -14 -37 6 -59 15 -17 15 -19
-2 -32 -17 -12 -18 -17 -7 -40 9 -21 9 -31 0 -46 -9 -15 -9 -24 1 -43 10 -19
10 -29 1 -47 -12 -23 -7 -50 9 -50 5 0 7 9 4 20 -3 11 0 20 6 20 6 0 11 -12
11 -26 0 -14 4 -23 10 -19 14 8 13 48 -2 63 -9 9 -8 18 2 37 11 21 12 30 2 46
-10 15 -10 23 0 38 9 15 9 25 0 46 -9 20 -9 30 0 45 9 15 9 24 -1 43 -7 14
-10 35 -6 48 5 18 4 20 -4 9 -12 -18 -26 -7 -17 15 3 9 11 13 17 9 8 -5 9 9 4
47 -9 66 -10 69 -40 69 -13 0 -30 7 -39 15 -8 8 -22 15 -30 15 -20 0 -21 16
-2 23 8 3 16 21 18 39 3 30 7 33 46 41 23 4 42 13 42 19 0 12 -69 1 -87 -14
-18 -15 -17 11 1 31 57 63 67 71 91 71 14 0 25 5 25 11 0 14 66 5 86 -12z
m-506 -9 c0 -5 -4 -10 -10 -10 -5 0 -10 5 -10 10 0 6 5 10 10 10 6 0 10 -4 10
-10z m94 -5 c-7 -16 -24 -21 -24 -6 0 8 7 13 27 20 1 1 0 -6 -3 -14z m6 -15
c31 16 57 -8 41 -37 -7 -14 -7 -23 1 -31 9 -9 9 -12 0 -12 -7 0 -12 4 -12 9 0
5 -8 12 -17 15 -24 8 -67 48 -71 66 -3 11 1 10 16 -4 17 -14 24 -16 42 -6z
m538 -33 c-2 -14 -10 -22 -23 -22 -26 0 -31 31 -9 56 16 17 19 18 27 4 4 -9 7
-26 5 -38z m362 37 c0 -8 -4 -12 -10 -9 -5 3 -10 10 -10 16 0 5 5 9 10 9 6 0
10 -7 10 -16z m-802 -12 c2 -7 -3 -12 -12 -12 -9 0 -16 7 -16 16 0 17 22 14
28 -4z m1118 -14 c9 -18 21 -36 26 -39 6 -4 8 -15 6 -25 -3 -15 -8 -11 -27 19
-22 37 -24 37 -47 22 -23 -15 -24 -14 -24 8 0 52 42 62 66 15z m-1290 -12 c1
-15 11 -36 23 -48 15 -14 21 -27 17 -42 -3 -11 -6 -26 -6 -33 0 -7 -12 -11
-30 -10 -16 1 -30 6 -30 11 0 5 -7 3 -15 -4 -13 -10 -15 -9 -15 9 0 11 4 21
10 21 5 0 7 6 4 14 -3 8 3 19 15 26 24 12 28 40 6 40 -8 0 -15 8 -15 18 0 42
34 40 36 -2z m215 11 c-13 -13 -26 -3 -16 12 3 6 11 8 17 5 6 -4 6 -10 -1 -17z
m349 -63 c0 -25 -40 -16 -50 12 -16 41 -12 47 20 24 17 -12 30 -28 30 -36z
m500 34 c0 -13 -4 -29 -9 -37 -13 -20 -24 4 -17 35 8 30 26 32 26 2z m-1030 2
c0 -5 -4 -10 -10 -10 -5 0 -10 5 -10 10 0 6 5 10 10 10 6 0 10 -4 10 -10z
m1590 -8 c0 -11 6 -32 14 -48 18 -38 28 -94 17 -94 -5 0 -12 18 -16 40 -8 46
-24 62 -32 31 -3 -12 -10 -21 -15 -21 -6 0 -7 11 -4 26 4 15 10 39 13 55 6 32
23 40 23 11z m-1396 -11 c17 -14 22 -51 7 -51 -5 0 -22 -3 -38 -6 -30 -6 -30
-5 -28 33 1 21 3 38 4 39 8 5 43 -5 55 -15z m-295 -5 c9 -10 9 -20 0 -39 -15
-33 -34 -40 -54 -21 -21 21 -19 40 7 58 27 20 32 20 47 2z m141 4 c0 -5 -4
-10 -10 -10 -5 0 -10 5 -10 10 0 6 5 10 10 10 6 0 10 -4 10 -10z m920 5 c0 -3
-7 -22 -16 -43 -13 -31 -17 -34 -25 -20 -12 21 5 68 26 68 8 0 15 -2 15 -5z
m-900 -45 c0 -21 -15 -27 -25 -10 -7 12 2 30 16 30 5 0 9 -9 9 -20z m533 -5
c8 -19 -13 -31 -24 -14 -13 20 -11 29 5 29 8 0 16 -7 19 -15z m465 -27 c-14
-43 -68 -91 -68 -60 0 9 68 92 75 92 2 0 -1 -15 -7 -32z m189 0 c-3 -7 -5 -2
-5 12 0 14 2 19 5 13 2 -7 2 -19 0 -25z m-28 -78 c11 0 21 -38 14 -56 -3 -8
-13 -14 -23 -14 -22 0 -39 22 -22 28 8 2 13 31 14 75 1 63 2 66 5 20 2 -29 8
-53 12 -53z m91 90 c0 -5 9 -14 21 -20 17 -10 21 -8 26 9 5 21 14 18 50 -21
17 -17 38 -15 28 3 -4 5 -2 9 4 9 5 0 17 3 27 7 15 5 16 2 11 -24 -5 -28 -3
-32 21 -38 19 -5 30 -2 40 12 13 16 14 13 9 -31 -3 -34 -11 -52 -23 -59 -23
-13 -84 -78 -84 -89 0 -14 -83 -138 -92 -138 -5 0 -2 13 6 29 19 35 37 112 29
123 -9 16 -32 -13 -48 -61 -14 -44 -18 -48 -50 -49 -41 -2 -46 17 -13 50 14
14 18 23 10 26 -20 6 -13 32 9 32 12 0 17 4 14 11 -4 6 -13 8 -20 5 -27 -10
-34 93 -11 149 8 18 12 36 9 39 -8 8 5 36 17 36 5 0 10 -4 10 -10z m220 -2 c0
-19 -18 -44 -25 -36 -4 3 0 15 7 27 15 24 18 26 18 9z m-985 -24 c32 -21 32
-34 0 -34 -21 0 -45 24 -45 44 0 11 21 6 45 -10z m424 -18 c-7 -14 -20 -26
-30 -26 -14 0 -13 5 9 30 30 34 38 33 21 -4z m-834 -6 c8 0 15 -4 15 -8 0 -4
12 -8 28 -7 38 0 43 -37 7 -61 -23 -15 -28 -15 -36 -3 -5 8 -9 24 -9 37 0 12
-5 22 -11 22 -8 0 -10 -14 -6 -39 l5 -39 -42 5 c-22 3 -46 10 -52 15 -13 10
-25 60 -13 53 4 -3 10 -1 14 4 3 5 -3 14 -12 20 -10 5 -14 13 -9 18 5 4 11 2
13 -4 4 -10 10 -10 26 2 19 13 24 13 44 0 12 -8 29 -15 38 -15z m-245 10 c0
-5 -7 -10 -15 -10 -8 0 -15 5 -15 10 0 6 7 10 15 10 8 0 15 -4 15 -10z m740
-16 c0 -9 -5 -14 -12 -12 -18 6 -21 28 -4 28 9 0 16 -7 16 -16z m-670 -10 c0
-8 -5 -12 -10 -9 -6 4 -8 11 -5 16 9 14 15 11 15 -7z m-44 -30 c8 -33 -1 -52
-30 -66 -50 -22 -73 27 -36 75 24 30 57 26 66 -9z m84 26 c0 -5 -2 -10 -4 -10
-3 0 -8 5 -11 10 -3 6 -1 10 4 10 6 0 11 -4 11 -10z m855 -27 c-12 -17 -20
-23 -23 -15 -4 14 28 56 36 47 3 -2 -3 -17 -13 -32z m-155 -3 c9 -16 8 -20 -5
-20 -16 0 -45 22 -45 34 0 15 41 4 50 -14z m940 -14 c0 -12 -5 -27 -10 -32 -8
-8 -6 -15 5 -24 23 -19 18 -33 -10 -26 -21 5 -25 3 -26 -16 l0 -23 -9 23 c-8
19 -13 21 -29 12 -11 -5 -27 -20 -35 -32 -9 -12 -18 -19 -21 -17 -11 11 47 75
78 85 27 9 32 16 35 48 3 38 22 41 22 2z m-1853 -44 c-8 -10 -12 -24 -10 -32
3 -8 -6 0 -21 19 -32 42 -32 46 -4 65 21 15 23 15 36 -10 12 -22 11 -28 -1
-42z m203 37 c0 -20 -15 -26 -25 -9 -9 15 3 43 15 35 5 -3 10 -15 10 -26z
m957 14 c6 -16 -34 -35 -58 -28 -22 7 -16 23 15 35 25 10 38 8 43 -7z m193 13
c0 -3 -4 -8 -10 -11 -5 -3 -10 -1 -10 4 0 6 5 11 10 11 6 0 10 -2 10 -4z
m-822 -24 c6 -18 -15 -14 -22 4 -4 10 -1 14 6 12 6 -2 14 -10 16 -16z m312 8
c13 -9 13 -11 0 -20 -28 -18 -70 -5 -70 22 0 11 52 10 70 -2z m383 -37 c-16
-22 -29 -29 -64 -31 -43 -2 -43 -2 -19 13 14 8 33 14 44 15 12 0 16 5 12 15
-6 18 25 38 38 24 6 -5 2 -19 -11 -36z m157 27 c0 -5 -8 -10 -17 -10 -15 0
-16 2 -3 10 19 12 20 12 20 0z m-1155 -10 c3 -5 1 -10 -4 -10 -6 0 -11 5 -11
10 0 6 2 10 4 10 3 0 8 -4 11 -10z m238 -11 c7 -25 -36 -50 -55 -31 -8 8 -5
16 13 31 30 26 35 26 42 0z m371 -41 c19 -18 19 -18 -23 -18 -33 0 -41 3 -39
16 2 10 -3 19 -9 21 -7 3 -13 -2 -13 -11 0 -18 -25 -22 -36 -5 -3 6 -1 15 5
19 7 4 11 11 10 16 -1 5 -1 12 0 16 1 10 80 -31 105 -54z m-651 -9 c6 -4 6 -9
-1 -13 -17 -10 -42 28 -35 54 6 24 7 24 16 -5 6 -17 14 -33 20 -36z m-587 26
c-23 -17 -36 -19 -36 -6 0 5 8 12 18 14 32 9 37 6 18 -8z m444 5 c0 -5 -4 -10
-10 -10 -5 0 -10 5 -10 10 0 6 5 10 10 10 6 0 10 -4 10 -10z m180 -5 c0 -8 -4
-15 -10 -15 -5 0 -10 7 -10 15 0 8 5 15 10 15 6 0 10 -7 10 -15z m686 0 c-21
-16 -56 -20 -56 -7 0 16 13 22 44 22 29 -1 30 -1 12 -15z m183 -1 c2 -2 -3 -6
-12 -10 -9 -3 -26 1 -39 10 -23 16 -22 16 12 10 19 -4 37 -8 39 -10z m279 11
c-10 -11 -48 -14 -48 -4 0 5 12 9 27 9 14 0 24 -2 21 -5z m-1098 -20 c0 -8 -4
-15 -10 -15 -5 0 -10 7 -10 15 0 8 5 15 10 15 6 0 10 -7 10 -15z m68 3 c-6
-18 -28 -21 -28 -4 0 9 7 16 16 16 9 0 14 -5 12 -12z m-1228 -8 c0 -5 -7 -7
-15 -4 -8 4 -15 8 -15 10 0 2 7 4 15 4 8 0 15 -4 15 -10z m1021 -23 c0 -12 3
-17 6 -10 3 10 9 10 26 0 12 -7 24 -13 25 -14 2 -1 -1 -10 -7 -20 -10 -17 -10
-17 -11 0 0 11 -8 17 -21 17 -21 0 -21 -3 -16 -60 4 -33 3 -60 -2 -60 -14 0
-19 22 -16 74 4 47 3 48 -23 41 -26 -6 -26 -6 -7 9 18 14 18 15 3 16 -10 0
-18 7 -18 16 0 10 6 14 15 11 8 -4 17 -2 20 4 10 15 25 0 26 -24z m-1036 -60
c9 -23 21 -50 27 -60 11 -23 2 -35 -14 -19 -7 7 -25 12 -40 12 -26 0 -28 3
-28 44 0 24 -3 59 -6 77 l-7 34 25 -23 c14 -13 33 -42 43 -65z m957 70 c-2 -4
-6 -16 -9 -27 -4 -14 -12 -20 -26 -18 -29 4 -34 28 -5 29 13 0 17 3 11 6 -22
8 -14 23 10 19 12 -1 20 -6 19 -9z m984 1 c4 -5 -21 -8 -55 -8 -34 0 -60 3
-58 8 3 4 28 7 55 7 28 0 54 -3 58 -7z m354 8 c0 -2 -7 -7 -16 -10 -8 -3 -12
-2 -9 4 6 10 25 14 25 6z m70 -6 c0 -5 -4 -10 -10 -10 -5 0 -10 5 -10 10 0 6
5 10 10 10 6 0 10 -4 10 -10z m-1860 -15 c0 -3 -8 -22 -19 -43 -10 -20 -21
-49 -24 -63 -4 -16 -16 -29 -29 -33 -19 -5 -20 -8 -8 -16 12 -8 13 -13 2 -27
-7 -10 -15 -26 -18 -36 -4 -9 -18 -20 -33 -24 -33 -8 -61 -40 -61 -70 0 -13
-6 -26 -14 -29 -8 -3 -17 -23 -21 -45 -7 -41 -18 -54 -36 -43 -7 4 -7 10 -1
16 19 19 1 38 -34 38 -19 0 -34 4 -34 9 0 5 -3 16 -6 25 -4 11 0 16 14 16 12
0 24 5 27 10 4 6 -10 10 -34 10 -23 0 -41 5 -41 10 0 6 16 10 35 10 19 0 35 5
35 11 0 6 -9 9 -20 6 -22 -6 -50 16 -50 39 0 8 9 14 20 14 11 0 20 5 20 10 0
6 -7 10 -15 10 -8 0 -15 5 -15 10 0 6 9 10 20 10 11 0 20 5 20 10 0 6 -11 10
-25 10 -14 0 -25 5 -25 10 0 6 17 10 38 10 35 1 36 2 18 15 -28 21 -18 27 62
34 6 0 12 5 12 10 0 5 -20 6 -44 4 -26 -3 -46 -1 -50 6 -5 7 6 11 32 11 22 0
45 6 51 14 7 8 36 14 81 15 38 1 86 8 107 16 41 15 63 18 63 10z m615 -15 c3
-5 1 -10 -4 -10 -6 0 -11 5 -11 10 0 6 2 10 4 10 3 0 8 -4 11 -10z m539 1 c4
-5 -3 -7 -14 -4 -23 6 -26 13 -6 13 8 0 17 -4 20 -9z m427 -33 c-8 -20 -19
-27 -55 -32 -25 -4 -46 -11 -46 -17 0 -12 12 -11 46 1 15 6 28 9 30 7 2 -2 -7
-30 -21 -62 -25 -62 -47 -79 -95 -72 -20 3 -17 5 18 12 23 4 42 11 42 15 0 7
-88 -3 -93 -11 -21 -36 -27 -52 -22 -57 3 -4 10 -1 14 7 11 17 91 28 91 12 0
-6 -16 -11 -35 -11 -42 0 -47 -17 -6 -22 28 -3 29 -4 17 -37 -6 -19 -17 -37
-25 -39 -8 -3 -11 0 -7 7 4 6 2 11 -3 11 -6 0 -11 -7 -11 -16 0 -13 -7 -15
-40 -9 -47 8 -70 -5 -70 -41 0 -17 -6 -24 -19 -24 -37 0 -35 23 4 57 27 23 48
33 72 33 18 0 33 5 33 10 0 6 -6 10 -14 10 -7 0 -16 8 -19 19 -3 13 -16 20
-41 23 -19 2 -37 0 -39 -5 -1 -4 -10 -5 -19 -2 -14 5 -12 10 9 33 23 25 23 27
6 39 -11 8 -29 11 -47 7 -20 -4 -26 -3 -22 5 4 6 11 9 16 6 5 -3 11 -1 15 5 4
6 -6 10 -24 10 -17 0 -31 5 -31 11 0 6 8 8 19 4 11 -3 22 -1 26 5 3 5 2 10 -4
10 -6 0 -8 7 -5 15 4 8 1 15 -6 15 -9 0 -10 3 -1 13 6 8 8 17 4 20 -3 4 0 18
7 32 13 25 16 25 129 24 64 0 111 -3 104 -6 -9 -3 -7 -10 5 -24 16 -16 22 -17
50 -7 18 7 32 18 32 25 0 14 34 36 38 24 1 -4 -2 -19 -7 -33z m-74 26 c-3 -3
-12 -4 -19 -1 -8 3 -5 6 6 6 11 1 17 -2 13 -5z m343 -4 c0 -5 -5 -10 -11 -10
-5 0 -7 5 -4 10 3 6 8 10 11 10 2 0 4 -4 4 -10z m-2270 -30 c0 -5 -4 -10 -10
-10 -5 0 -10 5 -10 10 0 6 5 10 10 10 6 0 10 -4 10 -10z m858 -7 c5 -18 -10
-16 -34 2 -18 15 -18 15 5 13 14 -2 26 -9 29 -15z m48 -8 c-1 -33 -16 -33 -16
0 0 14 4 25 9 25 5 0 8 -11 7 -25z m712 18 c-10 -2 -28 -2 -40 0 -13 2 -5 4
17 4 22 1 32 -1 23 -4z m652 -3 c0 -5 -8 -10 -17 -10 -15 0 -16 2 -3 10 19 12
20 12 20 0z m-2205 -10 c-3 -5 -13 -10 -21 -10 -8 0 -14 5 -14 10 0 6 9 10 21
10 11 0 17 -4 14 -10z m945 -10 c0 -5 -4 -10 -10 -10 -5 0 -10 5 -10 10 0 6 5
10 10 10 6 0 10 -4 10 -10z m1510 -15 c0 -13 -4 -14 -20 -5 -11 6 -20 13 -20
15 0 3 9 5 20 5 11 0 20 -7 20 -15z m89 -7 c-9 -16 -14 -19 -17 -9 -2 7 2 17
9 22 20 13 21 11 8 -13z m-1749 2 c0 -5 -4 -10 -10 -10 -5 0 -10 5 -10 10 0 6
5 10 10 10 6 0 10 -4 10 -10z m245 -1 c-24 -11 80 -6 108 6 12 5 17 3 17 -7 0
-10 -22 -19 -72 -28 -67 -13 -70 -15 -38 -20 35 -7 35 -7 10 -18 l-25 -11 28
0 c15 -1 36 8 48 20 37 37 32 13 -18 -88 -42 -86 -52 -99 -82 -109 -24 -8 -44
-8 -69 -1 -32 10 -32 11 -12 19 22 8 22 9 6 27 -10 11 -18 33 -18 51 -1 23 -7
35 -24 42 -24 11 -38 34 -28 49 10 17 26 9 21 -11 -5 -21 11 -39 22 -24 6 9
39 26 76 39 19 7 18 8 -5 14 l-25 7 23 12 c12 7 22 19 22 27 0 10 10 15 28 14
24 0 25 -1 7 -10z m255 -5 c0 -8 -4 -12 -10 -9 -5 3 -10 10 -10 16 0 5 5 9 10
9 6 0 10 -7 10 -16z m-1280 -4 c0 -5 -9 -10 -20 -10 -11 0 -20 5 -20 10 0 6 9
10 20 10 11 0 20 -4 20 -10z m930 0 c0 -5 -2 -10 -4 -10 -3 0 -8 5 -11 10 -3
6 -1 10 4 10 6 0 11 -4 11 -10z m1528 -20 c12 0 22 -4 22 -10 0 -5 -11 -10
-25 -10 -31 0 -33 -20 -2 -21 17 -1 18 -2 4 -6 -14 -4 -16 -8 -6 -19 9 -11 9
-14 -1 -14 -7 0 -10 -7 -6 -15 3 -8 1 -15 -4 -15 -5 0 -8 -14 -6 -31 3 -25 -1
-33 -17 -37 -19 -5 -19 -6 -2 -18 17 -13 17 -14 -6 -24 -21 -9 -19 -10 14 -6
30 4 38 2 34 -8 -3 -8 3 -16 14 -19 32 -9 21 -51 -13 -55 -23 -3 -28 1 -28 19
0 17 4 20 21 16 16 -4 18 -3 9 7 -7 9 -32 13 -78 11 -64 -2 -121 9 -109 21 3
4 21 10 39 14 33 8 33 8 -10 9 -45 1 -51 21 -6 21 13 0 24 5 24 10 0 6 -18 10
-39 10 -22 0 -43 5 -46 10 -3 6 2 10 13 10 10 0 34 8 53 18 l34 17 -27 3 c-37
4 -36 22 1 22 17 0 33 5 36 10 3 6 -3 10 -15 10 -12 0 -18 5 -15 10 3 6 15 10
27 10 14 0 18 5 14 16 -3 8 1 26 10 39 14 22 17 22 42 9 15 -8 37 -14 50 -14z
m-1632 -20 c-1 -43 -3 -45 -25 -31 -12 7 -12 13 -3 24 7 7 9 17 6 20 -7 7 4
27 15 27 5 0 8 -18 7 -40z m102 -5 c0 -13 -4 -22 -9 -20 -9 6 -8 45 2 45 4 0
7 -11 7 -25z m-1083 -6 c4 -6 13 -8 20 -5 8 3 22 -11 34 -35 25 -47 26 -59 6
-59 -8 0 -15 6 -15 14 0 21 -53 56 -84 56 -19 0 -26 5 -26 20 0 15 7 20 29 20
17 0 33 -5 36 -11z m2395 -14 c0 -8 -4 -15 -10 -15 -5 0 -10 -9 -10 -20 0 -11
-4 -20 -10 -20 -5 0 -10 16 -10 35 0 28 4 35 20 35 11 0 20 -7 20 -15z m-960
-17 c0 -16 -3 -19 -11 -11 -6 6 -8 16 -5 22 11 17 16 13 16 -11z m-453 -34
c-9 -9 -28 6 -21 18 4 6 10 6 17 -1 6 -6 8 -13 4 -17z m-973 -3 c9 -10 16 -24
14 -31 -2 -9 12 -17 37 -22 32 -7 45 -17 68 -52 31 -49 33 -62 12 -70 -22 -8
-19 -61 5 -77 19 -13 20 -20 12 -77 -10 -72 -16 -81 -43 -63 -29 18 -90 16
-128 -4 -18 -9 -34 -15 -36 -13 -7 8 -10 308 -3 308 5 0 20 -7 33 -16 13 -9
30 -14 36 -12 12 4 -54 48 -72 48 -5 0 -9 11 -9 25 0 35 25 32 47 -5 15 -26
23 -30 63 -30 33 0 41 3 30 10 -8 5 -30 10 -47 10 -26 0 -33 4 -33 20 0 21
-27 40 -47 33 -8 -3 -13 4 -13 16 0 16 6 21 28 21 16 0 37 -8 46 -19z m979
-41 c3 -13 0 -20 -9 -20 -8 0 -14 9 -14 20 0 11 4 20 9 20 5 0 11 -9 14 -20z
m447 -2 c0 -16 -3 -19 -11 -11 -6 6 -8 16 -5 22 11 17 16 13 16 -11z m414 -33
c4 -12 -3 -15 -37 -13 -37 1 -38 2 -9 5 17 2 32 8 32 14 0 14 7 11 14 -6z
m-1195 -25 c11 -24 11 -24 -3 -6 -9 11 -16 24 -16 30 0 12 5 7 19 -24z m2236
-5 c-1 -25 -6 -30 -34 -36 -18 -4 -40 -14 -49 -22 -15 -16 -19 -67 -7 -87 11
-18 27 -11 20 9 -10 32 6 72 33 82 33 13 43 1 15 -18 -28 -19 -29 -50 -3 -83
17 -22 20 -41 20 -144 0 -109 -1 -118 -17 -111 -49 20 -98 17 -135 -9 -21 -14
-40 -21 -43 -16 -3 4 -12 55 -21 113 -18 117 -10 159 34 165 22 3 22 7 16 61
l-6 57 42 37 c37 34 46 38 88 35 45 -3 47 -4 47 -33z m-1092 -12 c-7 -2 -19
-2 -25 0 -7 3 -2 5 12 5 14 0 19 -2 13 -5z m-753 -18 c0 -8 -7 -15 -15 -15
-10 0 -15 -10 -15 -29 0 -24 -4 -28 -19 -24 -42 11 -37 69 7 76 15 2 30 5 35
6 4 0 7 -6 7 -14z m164 -18 c13 -20 -3 -52 -25 -52 -17 0 -31 62 -15 69 17 7
28 2 40 -17z m-76 -3 c6 -2 12 -12 12 -23 0 -14 -5 -19 -15 -15 -8 4 -15 1
-15 -5 0 -6 -11 -11 -25 -11 -16 0 -25 -6 -25 -15 0 -8 -7 -15 -15 -15 -8 0
-15 5 -15 11 0 5 5 7 11 3 8 -4 9 1 4 16 -4 13 -2 32 6 46 12 23 25 24 77 8z
m752 -29 c0 -18 -5 -25 -19 -25 -29 0 -45 25 -31 49 9 17 15 19 30 11 12 -6
20 -21 20 -35z m40 4 c0 -10 -4 -19 -9 -19 -10 0 -21 36 -14 44 10 10 23 -5
23 -25z m60 16 c20 -24 3 -55 -31 -55 -29 0 -39 13 -19 25 6 3 10 15 10 26 0
22 22 25 40 4z m554 -1 c20 -8 21 -54 2 -54 -8 0 -16 -6 -19 -12 -3 -9 -10 -7
-21 7 -20 25 -20 30 0 49 18 18 17 18 38 10z m-2331 -51 c-9 -57 -60 -34 -54
24 1 12 42 23 52 14 4 -4 5 -21 2 -38z m2223 31 c-3 -9 -6 -18 -6 -20 0 -3 -4
-3 -10 1 -11 7 -2 35 12 35 6 0 7 -7 4 -16z m44 -9 c0 -8 -4 -15 -10 -15 -5 0
-10 7 -10 15 0 8 5 15 10 15 6 0 10 -7 10 -15z m410 -27 c-1 -28 -2 -30 -11
-15 -6 10 -8 25 -5 33 9 24 16 16 16 -18z m-2622 -10 c-3 -7 -11 -13 -18 -13
-7 0 -15 6 -17 13 -3 7 4 12 17 12 13 0 20 -5 18 -12z m879 5 c16 -6 15 -8 -7
-14 -23 -6 -22 -7 8 -8 20 -1 31 3 27 9 -3 6 -2 10 4 10 6 0 13 -12 17 -27 3
-16 16 -62 27 -103 11 -41 22 -92 25 -112 l4 -38 -50 0 c-28 0 -54 -5 -58 -11
-5 -8 11 -10 55 -7 73 5 82 -7 11 -17 -27 -4 -50 -11 -50 -16 0 -5 10 -7 23
-4 75 16 87 12 113 -35 21 -39 22 -46 9 -59 -10 -11 -17 -11 -28 -3 -14 12
-57 5 -57 -9 0 -5 14 -6 32 -2 29 6 31 5 25 -18 -4 -13 -7 -30 -7 -37 0 -9 -7
-11 -21 -7 -25 8 -84 -21 -96 -47 -7 -16 -11 -13 -32 18 -18 26 -21 38 -13 46
20 20 14 33 -33 68 -25 19 -45 39 -45 46 0 6 -16 26 -35 43 -30 26 -34 33 -25
56 5 14 14 25 20 25 7 0 9 8 5 19 -10 33 5 71 28 71 20 0 20 0 1 15 -18 14
-18 14 6 16 18 1 20 3 7 6 -11 3 -16 10 -13 20 3 8 6 21 6 29 0 8 8 15 18 15
16 1 16 2 0 6 -10 2 -18 9 -18 14 0 6 5 7 11 3 6 -3 15 0 20 7 18 29 22 -5 10
-84 -30 -207 -33 -237 -28 -252 9 -22 30 -19 24 5 -3 10 1 59 9 107 8 48 19
122 24 163 15 106 14 105 47 93z m760 -9 c-3 -3 -12 -4 -19 -1 -8 3 -5 6 6 6
11 1 17 -2 13 -5z m-67 -24 c0 -5 -6 -10 -14 -10 -8 0 -18 5 -21 10 -3 6 3 10
14 10 12 0 21 -4 21 -10z m110 0 c0 -6 -13 -13 -30 -16 -42 -9 -38 -24 5 -17
47 8 45 -10 -2 -25 l-38 -11 43 5 c33 3 43 1 40 -8 -3 -7 -19 -14 -36 -16 -18
-2 -32 -7 -32 -12 0 -5 16 -6 35 -3 31 5 35 3 41 -22 7 -30 -6 -45 -43 -45
-12 0 -25 -5 -29 -12 -7 -11 30 -8 69 7 13 5 17 2 17 -13 0 -16 -9 -21 -45
-26 -44 -7 -58 -19 -32 -29 7 -3 5 -6 -5 -6 -10 -1 -18 -6 -18 -12 0 -6 8 -8
18 -5 9 2 32 7 50 11 18 4 30 10 27 15 -3 5 -1 11 4 14 8 5 26 -23 18 -30 -1
-2 -25 -8 -52 -15 -75 -18 -83 -21 -62 -26 9 -3 40 2 67 10 54 16 54 16 64
-24 7 -30 1 -33 -92 -45 -29 -4 -55 -11 -59 -17 -4 -7 9 -8 38 -3 105 17 133
16 56 -2 -43 -11 -86 -27 -95 -37 -16 -17 -16 -17 11 -11 16 4 44 4 63 0 l34
-6 -23 -25 c-12 -14 -30 -34 -39 -44 -12 -13 -32 -19 -59 -19 -26 0 -38 -4
-33 -11 4 -7 22 -9 50 -4 29 4 44 2 44 -4 0 -6 -13 -11 -29 -11 -16 0 -42 -3
-59 -6 -28 -6 -30 -4 -34 32 -2 21 1 63 9 93 14 60 27 146 48 309 13 108 17
117 50 125 34 8 45 7 45 -3z m557 4 c-3 -3 -12 -4 -19 -1 -8 3 -5 6 6 6 11 1
17 -2 13 -5z m113 -14 c0 -5 -7 -7 -15 -4 -8 4 -15 8 -15 10 0 2 7 4 15 4 8 0
15 -4 15 -10z m-2356 -15 c-4 -8 -7 -15 -9 -15 -2 0 -5 7 -9 15 -3 9 0 15 9
15 9 0 12 -6 9 -15z m2254 -172 c1 -104 -1 -209 -4 -235 -5 -43 -8 -47 -24
-38 -24 13 -70 13 -70 0 0 -5 12 -10 26 -10 33 0 64 -17 64 -36 0 -18 -35 -11
-98 18 -25 12 -49 17 -60 13 -15 -7 -14 -9 6 -14 30 -8 29 -20 -2 -37 -24 -12
-26 -11 -26 11 0 13 -4 26 -9 29 -10 7 -3 44 12 64 7 9 13 10 24 1 10 -9 17
-9 24 -2 8 8 5 13 -11 18 -34 11 -17 30 23 27 43 -4 48 4 12 18 -39 15 -31 30
10 19 22 -6 41 -6 52 0 14 7 9 11 -28 22 -54 16 -51 13 -43 33 4 10 13 15 22
11 12 -4 13 -3 2 10 -10 12 -10 15 0 15 7 0 10 7 6 15 -4 11 3 15 27 16 30 2
30 2 5 6 -30 5 -39 33 -10 33 13 0 14 2 4 9 -9 6 -11 19 -7 45 6 27 12 36 29
37 17 1 17 2 4 6 -10 2 -18 13 -18 24 0 16 5 19 20 14 11 -4 20 -2 20 4 0 6
-7 11 -15 11 -8 0 -15 4 -15 9 0 8 14 15 41 20 3 0 7 -83 7 -186z m-690 168
c13 -8 13 -12 -24 -261 -10 -64 -43 -222 -48 -227 -6 -6 -119 18 -130 28 -17
15 0 19 32 7 25 -10 34 -10 44 0 9 9 5 14 -21 23 -38 13 -36 35 2 31 29 -4 37
15 12 24 -8 4 -15 12 -15 19 0 10 11 13 38 10 36 -5 36 -4 10 7 -41 17 -34 31
10 23 24 -4 34 -3 27 3 -5 6 -18 12 -28 14 -10 1 -17 8 -15 13 2 6 5 9 8 9 3
-1 16 -5 30 -9 22 -7 23 -6 11 9 -7 9 -22 16 -32 16 -12 0 -16 5 -12 16 4 11
13 13 36 8 20 -4 27 -3 23 5 -4 6 -16 11 -27 11 -12 0 -19 5 -16 13 2 6 17 11
33 10 28 -2 28 -2 7 9 -28 13 -31 53 -5 67 15 9 15 12 2 21 -10 7 -12 12 -4
18 6 4 11 18 10 32 -1 19 3 24 17 22 9 -2 17 2 17 8 0 5 -4 10 -10 10 -5 0
-10 5 -10 10 0 12 10 13 28 1z m802 -12 c0 -5 -13 -9 -30 -9 -16 0 -30 -4 -30
-9 0 -11 32 -23 51 -19 8 2 15 -14 20 -47 4 -27 10 -62 13 -77 5 -27 4 -28
-39 -28 -25 0 -45 -4 -45 -8 0 -5 20 -8 45 -7 31 1 45 -3 45 -12 0 -7 -11 -13
-24 -13 -13 0 -31 -3 -40 -6 -30 -11 -16 -19 28 -16 41 4 44 2 55 -29 6 -17
11 -33 11 -35 0 -1 -22 -5 -50 -9 -65 -9 -77 -27 -13 -19 26 3 54 7 61 10 6 2
12 0 12 -5 0 -5 -15 -11 -32 -14 -44 -7 -92 -26 -85 -33 3 -3 21 -1 39 4 105
32 124 17 23 -19 -36 -12 -65 -26 -65 -31 0 -11 1 -11 51 11 62 26 102 35 97
20 -2 -6 -32 -22 -67 -34 -35 -13 -68 -28 -74 -34 -17 -17 5 -13 52 10 24 11
45 18 48 16 13 -14 -21 -44 -66 -61 -28 -10 -51 -22 -51 -27 0 -13 7 -11 35 7
13 9 31 14 39 12 9 -2 -5 -14 -34 -30 l-49 -28 -12 22 c-14 25 -14 65 -6 308
4 102 7 201 7 220 0 35 0 36 40 32 22 -2 40 -8 40 -13z m-2380 -91 c0 -95 -28
-249 -47 -265 -12 -9 -21 -9 -37 -1 -19 10 -20 10 -7 -6 19 -23 9 -29 -25 -15
-22 9 -25 13 -12 16 10 3 15 10 11 19 -4 12 0 14 22 8 20 -5 26 -4 21 5 -4 6
-16 11 -27 11 -12 0 -19 7 -19 20 0 14 7 20 23 20 19 1 20 2 5 11 -22 12 -12
39 16 40 16 1 17 2 4 6 -28 7 -22 33 8 33 14 0 23 4 19 10 -3 6 -15 10 -26 10
-12 0 -19 5 -16 13 2 7 15 11 30 9 31 -4 37 13 7 21 -26 7 -26 27 -1 27 11 0
23 5 26 10 3 6 -3 10 -14 10 -12 0 -21 5 -21 10 0 6 9 10 20 10 11 0 20 5 20
10 0 6 -7 10 -15 10 -8 0 -15 5 -15 10 0 6 11 10 25 10 24 0 25 -2 25 -72z
m-249 -47 c-31 -34 -41 -38 -41 -18 0 12 61 60 67 53 2 -2 -10 -17 -26 -35z
m117 17 c19 -22 20 -26 7 -78 -7 -30 -23 -83 -36 -117 -19 -53 -27 -63 -46
-63 -20 0 -22 3 -13 19 18 35 12 61 -17 72 -31 10 -53 49 -52 88 0 25 1 25 9
5 14 -35 30 -39 30 -8 0 32 45 85 66 77 8 -3 14 1 14 11 0 22 13 20 38 -6z
m832 -24 c0 -12 -5 -35 -10 -49 -8 -22 -14 -26 -33 -20 -12 4 -33 8 -47 9 -14
1 -36 9 -50 19 -13 9 -30 17 -37 17 -18 0 -6 23 20 40 57 36 157 26 157 -16z
m763 10 c16 -9 15 -15 -12 -90 -30 -83 -70 -160 -103 -203 -10 -13 -18 -27
-18 -31 0 -13 84 -50 116 -50 16 -1 46 -7 67 -14 23 -9 62 -12 100 -10 l62 5
-38 -15 c-41 -15 -66 -41 -67 -67 0 -27 31 -79 48 -80 48 -5 75 1 87 18 8 10
15 13 15 7 0 -6 -6 -17 -14 -23 -8 -7 -18 -26 -21 -42 -5 -22 -11 -29 -22 -25
-9 4 -30 1 -47 -5 -23 -8 -42 -8 -71 0 -41 11 -60 6 -35 -9 13 -9 13 -10 0
-10 -8 0 -31 15 -51 33 -20 18 -41 31 -47 29 -7 -2 -12 0 -12 5 0 4 -14 24
-30 43 -30 35 -30 35 -24 7 4 -19 1 -34 -11 -47 -24 -27 -33 -25 -46 8 -7 15
-13 22 -16 15 -10 -26 -22 -12 -21 23 1 23 7 38 17 41 35 11 61 27 61 38 0 6
-16 19 -35 28 -19 9 -35 21 -35 27 0 5 -5 10 -11 10 -6 0 -9 -7 -5 -15 3 -8 1
-15 -3 -15 -13 0 -22 30 -16 51 4 13 1 19 -9 19 -21 0 -20 19 1 42 19 21 10
37 -11 19 -46 -39 -7 -148 59 -164 15 -3 13 -5 -8 -6 -19 -1 -38 9 -59 29 -28
28 -30 35 -26 85 5 64 30 99 64 91 18 -5 23 0 27 24 7 32 46 64 73 58 12 -2 6
-10 -22 -28 -26 -16 -40 -34 -42 -50 l-3 -25 18 28 c10 15 30 33 45 40 39 17
42 34 10 62 -19 17 -22 24 -11 25 8 0 20 -5 27 -12 9 -9 12 -8 12 8 0 11 7 30
16 43 16 22 16 23 -5 16 -27 -8 -27 2 2 26 19 16 19 18 5 19 -10 0 -23 -9 -30
-20 -16 -26 -32 -26 -18 -1 21 41 83 58 123 35z m-1407 -18 c-5 -21 -2 -25 23
-31 15 -3 32 -5 37 -4 14 2 54 -13 54 -20 0 -7 -139 -81 -152 -81 -16 0 -7 17
15 28 17 8 18 11 5 11 -31 1 -20 17 20 28 l37 11 -35 -1 c-32 -2 -35 1 -38 26
-5 38 4 57 24 57 12 0 15 -6 10 -24z m1983 -30 c17 -15 25 -17 28 -8 12 33 73
60 73 32 0 -5 -6 -10 -13 -10 -16 0 -60 -40 -53 -47 3 -3 17 2 30 11 29 19 36
20 36 6 0 -5 -6 -10 -14 -10 -16 0 -41 -28 -33 -37 4 -3 13 0 22 7 10 8 15 9
15 1 0 -19 -77 -178 -91 -186 -33 -21 -66 -14 -99 20 -18 19 -48 39 -66 45
-45 15 -90 100 -53 100 4 0 9 -8 12 -17 3 -14 6 -12 15 10 7 17 19 27 32 27
11 0 20 5 20 11 0 10 -9 8 -60 -9 -12 -4 -12 -2 1 12 9 10 35 20 58 23 22 3
41 10 41 14 0 20 -97 -1 -112 -23 -4 -7 -8 -8 -8 -3 0 59 162 82 219 31z
m-875 8 c19 -7 21 -24 4 -24 -20 0 -48 -32 -48 -57 0 -31 26 -30 34 2 9 34 73
52 115 31 30 -16 45 -41 35 -57 -10 -17 -29 -3 -29 22 0 19 -6 25 -30 27 -32
3 -75 -21 -62 -34 4 -4 13 -2 19 4 15 15 68 16 68 2 0 -5 -10 -10 -22 -10 -29
-1 -58 -22 -58 -44 0 -22 13 -20 28 4 7 11 22 20 35 20 12 0 17 -4 12 -8 -6
-4 -18 -19 -27 -33 -21 -34 -64 -46 -87 -24 -10 8 -27 15 -38 15 -26 0 -47 44
-33 71 6 10 15 19 21 19 6 0 7 5 4 10 -5 8 -11 7 -21 -1 -8 -6 -17 -9 -20 -6
-5 5 3 14 41 43 20 15 20 15 -2 11 -27 -6 -31 9 -5 16 27 7 49 8 66 1z m-804
-35 c-30 -16 -59 -34 -64 -39 -6 -6 -21 -10 -35 -10 l-26 0 25 14 c14 7 47 25
74 40 27 14 56 26 65 26 9 0 -9 -14 -39 -31z m83 1 c-18 -4 -43 -14 -55 -22
-32 -20 -58 -29 -58 -19 0 13 91 50 120 50 21 -1 20 -2 -7 -9z m102 -10 c-3
-5 -13 -10 -21 -10 -8 0 -14 -5 -14 -11 0 -7 10 -9 28 -4 15 4 52 9 82 11 52
3 50 2 -20 -11 -41 -8 -81 -12 -89 -9 -8 2 -25 -5 -38 -17 -12 -13 -26 -20
-29 -16 -7 7 49 57 75 69 24 10 33 9 26 -2z m2075 -20 c15 -15 19 -31 17 -61
-3 -41 -4 -42 -52 -56 -71 -20 -86 -20 -98 -2 -7 12 -7 25 2 48 16 36 70 57
103 40 22 -12 34 -6 23 10 -3 6 -26 11 -50 11 -32 0 -51 -7 -74 -26 -34 -28
-37 -27 -20 10 21 45 113 62 149 26z m-2887 -80 c-7 -25 5 -26 23 -2 12 16 13
15 14 -5 0 -23 -26 -43 -47 -36 -16 6 -17 35 -1 51 16 16 17 15 11 -8z m297 5
c0 -8 -7 -15 -15 -15 -16 0 -20 12 -8 23 11 12 23 8 23 -8z m1770 -34 c0 -9
-47 -21 -81 -21 -35 0 -19 19 19 23 20 2 43 4 50 5 6 1 12 -2 12 -7z m-1780
-7 c0 -9 -32 -33 -44 -34 -5 0 -1 9 9 20 18 20 35 26 35 14z m1121 -95 c-3
-79 -1 -87 23 -116 l25 -30 -19 -41 c-19 -40 -45 -62 -71 -62 -7 0 -5 6 6 14
10 7 20 23 22 34 3 22 2 22 -40 5 -53 -21 -52 -20 -37 -38 11 -13 10 -14 -3
-9 -9 3 -30 27 -47 52 -23 35 -29 53 -25 74 7 28 -8 40 -18 16 -3 -7 -6 -3 -6
9 -1 12 9 31 21 43 21 20 21 20 1 20 -11 0 -25 -10 -31 -22 -6 -13 -11 -18
-11 -11 -1 7 10 24 23 40 22 25 26 26 51 15 36 -16 56 -9 77 28 11 19 25 30
40 30 21 1 21 2 5 11 -18 11 -13 33 6 26 8 -3 11 -30 8 -88z m-1431 71 c0 -5
-7 -10 -16 -10 -8 0 -12 5 -9 10 3 6 10 10 16 10 5 0 9 -4 9 -10z m242 -17
c-6 -10 -15 -29 -20 -43 -8 -19 -11 -20 -11 -7 -1 21 28 81 35 74 3 -3 1 -13
-4 -24z m1918 17 c33 -10 100 -83 100 -110 0 -5 6 -10 14 -10 8 0 16 -6 19
-12 2 -7 8 -10 12 -6 4 4 0 15 -9 24 -21 21 -14 28 19 20 18 -5 25 -13 25 -31
0 -13 4 -26 9 -29 5 -3 7 -15 4 -26 -3 -12 0 -20 7 -20 6 0 14 9 17 20 6 23
23 27 23 5 0 -24 17 -17 24 10 8 31 76 62 76 35 0 -5 -6 -10 -13 -10 -8 0 -22
-9 -32 -20 -10 -11 -13 -20 -7 -20 6 0 13 4 17 9 3 6 19 16 35 24 39 20 60 4
67 -51 3 -23 10 -45 16 -49 5 -3 24 11 41 32 30 35 35 37 70 31 33 -6 37 -5
35 11 -4 28 11 80 26 93 12 10 13 4 8 -39 -4 -32 -2 -51 4 -51 12 0 23 33 23
67 0 27 42 61 86 69 19 3 34 10 34 15 0 10 -44 2 -73 -13 -21 -11 -32 -5 -23
11 9 14 84 34 102 27 12 -5 14 -34 12 -163 l-3 -158 -54 -26 c-29 -15 -49 -29
-44 -32 5 -3 31 5 56 18 l47 23 0 -27 c0 -50 -76 -98 -137 -86 -20 4 -33 2
-33 -5 0 -16 83 -12 126 6 35 15 37 15 24 -1 -34 -41 -125 -59 -172 -34 -27
14 -38 1 -14 -17 22 -15 112 -19 120 -5 8 12 46 21 46 10 0 -17 -60 -39 -105
-39 -31 0 -44 -4 -40 -11 13 -20 107 0 148 32 20 17 37 28 37 25 0 -19 -19
-41 -57 -68 -42 -28 -50 -30 -106 -25 -48 4 -66 11 -80 28 -12 15 -21 19 -28
12 -17 -17 38 -52 93 -59 38 -5 46 -9 34 -16 -25 -14 -122 10 -156 39 -16 13
-33 39 -38 56 -9 37 -32 48 -32 16 0 -32 60 -107 95 -118 89 -28 199 -20 249
20 16 13 27 16 31 9 18 -29 -81 -72 -163 -72 -51 0 -74 6 -127 33 -69 35 -92
60 -102 109 -6 33 -18 39 -27 14 -9 -24 2 -53 35 -89 80 -88 235 -122 332 -72
l48 25 -3 -518 c-2 -285 -5 -521 -8 -524 -8 -7 -369 -10 -1098 -8 l-623 2 -19
46 c-11 25 -20 54 -20 65 0 11 -6 30 -14 42 -7 12 -21 53 -30 92 -10 38 -21
74 -25 80 -15 19 -33 134 -27 167 9 43 20 133 37 296 8 85 17 132 25 132 6 0
35 -23 65 -51 61 -58 123 -89 162 -82 15 3 50 -2 78 -11 39 -13 58 -15 78 -7
14 6 60 15 101 22 41 6 89 13 106 16 31 5 43 19 63 75 8 22 18 28 58 33 26 3
64 10 85 16 20 5 71 14 114 19 42 5 80 12 82 15 9 9 -7 18 -45 25 -34 7 -31 8
25 9 45 1 62 5 62 15 0 9 -20 16 -62 22 l-63 9 65 3 c85 3 98 8 79 27 -9 9
-49 17 -109 21 -94 7 -99 15 -19 28 37 7 78 30 68 40 -10 10 -183 -11 -187
-23 -2 -6 -8 -11 -13 -11 -5 0 -4 11 3 24 6 14 8 32 5 40 -10 25 -34 18 -42
-11 -12 -53 -40 -101 -71 -122 -25 -17 -39 -20 -80 -14 -27 3 -64 15 -82 25
-18 10 -41 18 -52 18 -11 0 -25 9 -32 20 -7 11 -22 20 -34 20 -20 0 -46 25
-118 115 -13 17 -39 47 -56 68 l-32 37 40 0 c23 0 43 4 46 9 3 5 20 11 38 13
27 4 41 -1 75 -30 39 -31 47 -34 86 -28 34 5 47 3 57 -9 42 -50 202 -67 275
-29 35 19 44 20 70 8 44 -19 113 -17 186 7 51 17 64 18 68 7 2 -7 18 -26 35
-42 28 -26 35 -28 92 -23 52 4 63 2 72 -14 7 -11 19 -19 27 -19 19 0 20 26 1
33 -8 3 -16 18 -18 33 -4 33 -23 43 -31 15 -6 -25 -68 -38 -102 -23 -25 12
-51 78 -47 120 2 12 -2 22 -8 22 -5 0 -10 -7 -10 -15 0 -18 -44 -65 -60 -65
-7 0 0 14 14 31 14 17 24 35 20 40 -3 5 -17 -4 -30 -21 -14 -16 -40 -34 -57
-39 l-32 -9 35 -1 c58 -2 12 -20 -56 -22 -74 -2 -100 6 -107 33 -9 32 3 43 17
16 13 -26 43 -35 59 -19 8 8 4 11 -16 11 -15 0 -27 5 -27 10 0 14 57 13 62 -1
3 -8 16 -10 38 -5 41 7 67 22 58 31 -4 4 -17 0 -30 -9 -29 -20 -44 -21 -28 -1
12 14 8 15 -29 9 -37 -6 -42 -5 -39 11 2 10 -3 20 -9 22 -7 3 -13 -1 -14 -9
-1 -7 -4 -2 -8 12 -9 32 -45 39 -62 12 -14 -22 -39 -18 -39 6 0 15 -14 8 -16
-9 -3 -22 -7 -22 -13 1 -5 17 -3 31 7 43 10 11 11 17 4 17 -7 0 -12 4 -12 10
0 14 83 5 88 -9 2 -6 8 -11 14 -11 6 0 7 13 2 32 -6 28 -5 31 8 20 13 -10 16
-7 21 24 3 20 14 45 23 55 24 27 -1 24 -27 -3 l-21 -23 16 33 c10 18 22 35 29
37 58 21 71 28 54 32 -10 3 -29 -3 -43 -12 -14 -9 -30 -15 -35 -13 -9 3 67 48
81 48 3 0 21 -5 40 -10z m-792 -17 c-9 -10 -18 -25 -21 -33 -4 -11 -6 -9 -6 6
-1 21 16 44 33 44 5 0 2 -8 -6 -17z m-1289 3 c-10 -9 -79 -14 -74 -5 4 5 22 9
42 9 20 0 34 -2 32 -4z m109 -15 c3 -8 -1 -12 -9 -9 -7 2 -15 10 -17 17 -3 8
1 12 9 9 7 -2 15 -10 17 -17z m-108 -18 c0 -5 -5 -15 -10 -23 -8 -12 -10 -11
-10 8 0 12 5 22 10 22 6 0 10 -3 10 -7z m-10 -53 l33 -14 -23 -18 c-27 -22
-63 -23 -80 -3 -17 20 -5 32 15 15 19 -15 34 -5 17 12 -7 7 -12 23 -11 38 0
23 1 24 9 4 4 -11 23 -27 40 -34z m84 41 c18 -8 23 -15 19 -30 -6 -25 -19 -26
-53 -5 l-25 15 35 -5 35 -6 -25 20 c-28 22 -24 25 14 11z m1858 -13 c-7 -7
-12 -29 -12 -50 0 -21 -5 -38 -11 -38 -8 0 -9 12 -4 38 6 35 21 62 33 62 3 0
1 -5 -6 -12z m-852 -91 c0 -23 -18 9 -24 43 l-7 35 16 -34 c8 -18 15 -38 15
-44z m-1016 37 c9 -3 16 -17 16 -30 0 -19 -7 -26 -31 -31 -29 -5 -30 -7 -15
-19 10 -7 13 -15 7 -18 -11 -7 -56 8 -65 22 -3 5 -16 9 -28 8 -17 -1 -22 -6
-20 -21 9 -48 72 -79 101 -50 14 14 13 15 -15 9 -22 -4 -36 -1 -47 11 -27 26
-20 39 9 16 26 -21 66 -20 89 0 5 5 13 9 17 9 16 0 7 -20 -26 -54 -41 -44 -79
-47 -118 -11 -59 54 -43 108 35 118 27 4 47 13 56 26 15 24 14 23 35 15z
m1033 -66 c-3 -7 -5 -2 -5 12 0 14 2 19 5 13 2 -7 2 -19 0 -25z m33 -37 c0 -6
-4 -13 -10 -16 -5 -3 -10 1 -10 9 0 9 5 16 10 16 6 0 10 -4 10 -9z m20 -33 c0
-16 -3 -19 -11 -11 -6 6 -8 16 -5 22 11 17 16 13 16 -11z m-1005 -185 c15 -59
31 -117 35 -128 20 -47 47 -193 70 -372 11 -86 10 -93 -29 -203 -24 -67 -41
-207 -50 -395 l-6 -139 -115 -3 c-63 -2 -120 0 -127 5 -9 5 -12 180 -15 684
-1 372 0 679 3 682 3 4 24 0 47 -8 45 -16 100 -7 122 19 11 13 14 12 25 -9 7
-13 25 -73 40 -133z m1184 -67 c0 -6 -5 -1 -11 12 -6 12 -15 22 -20 22 -4 0
-8 6 -8 13 1 6 10 1 20 -12 11 -13 20 -28 19 -35z m1521 -34 c0 -25 -97 -79
-112 -64 -7 7 5 17 35 30 24 11 48 25 51 31 8 13 26 15 26 3z m-1224 -196 c-1
-76 -16 -78 -16 -2 0 44 5 66 15 66 1 0 2 -29 1 -64z"/>
<g>
<path d="M1313 5133 c-43 -4 -54 -15 -29 -30 13 -8 66 -100 66 -115 0 -5 -13
-8 -29 -8 -17 0 -31 -6 -35 -15 -5 -14 18 -15 182 -14 103 0 190 3 194 5 13 8
-4 34 -22 34 -12 0 -19 11 -24 38 -9 57 -8 60 24 77 17 9 28 20 25 25 -5 8
-269 11 -352 3z m107 -37 c0 -4 -21 -45 -34 -64 -6 -10 -13 -4 -25 20 -9 18
-16 36 -14 41 4 7 73 10 73 3z m52 -36 c0 -22 1 -46 2 -52 1 -7 -11 -14 -26
-16 -16 -2 -28 0 -28 3 0 17 35 105 42 105 5 0 9 -18 10 -40z m86 -10 c-4 -60
-22 -71 -26 -16 -4 43 2 66 18 66 7 0 10 -19 8 -50z"/>
</g>
<g>
<path d="M2270 5130 c0 -5 5 -10 11 -10 5 0 7 5 4 10 -3 6 -8 10 -11 10 -2 0
-4 -4 -4 -10z"/>
</g>
<g>
<path d="M1330 4738 c0 -13 44 -38 64 -38 11 1 -16 24 -46 41 -13 7 -18 6 -18
-3z"/>
</g>
<g>
<path d="M1457 4603 c-4 -3 -7 -14 -7 -23 0 -9 -13 -29 -30 -45 -16 -16 -30
-36 -30 -46 0 -9 -22 -36 -50 -59 -46 -39 -64 -70 -40 -70 6 0 10 3 10 8 0 4
23 31 50 59 28 29 50 57 50 62 0 5 16 28 35 51 19 23 35 48 35 56 0 15 -12 19
-23 7z"/>
</g>
<g>
<path d="M1502 4589 c-5 -13 -19 -78 -32 -144 -12 -66 -25 -123 -29 -128 -4
-4 -26 -1 -49 7 -53 19 -55 4 -3 -17 22 -9 42 -21 46 -27 3 -5 16 -10 28 -10
l22 1 -23 12 c-15 9 -19 16 -12 23 11 11 72 295 65 302 -2 3 -8 -6 -13 -19z"/>
</g>
<g>
<path d="M1781 4596 c-23 -8 -31 -15 -23 -20 7 -4 18 -3 25 2 13 11 17 12 42
12 8 0 15 5 15 10 0 13 -16 12 -59 -4z"/>
</g>
<g>
<path d="M1650 4572 c0 -6 9 -32 20 -57 11 -25 29 -66 40 -91 33 -73 32 -47
-1 46 -28 78 -59 133 -59 102z"/>
</g>
<g>
<path d="M1803 4567 c-45 -10 -55 -23 -25 -30 20 -4 72 19 72 33 0 6 -1 9 -2
9 -2 -1 -22 -6 -45 -12z"/>
</g>
<g>
<path d="M1535 4445 c0 -129 7 -160 19 -79 10 76 7 169 -6 187 -11 14 -13 -5
-13 -108z"/>
</g>
<g>
<path d="M1600 4553 c0 -10 22 -75 36 -108 11 -24 14 -26 14 -9 0 32 -30 124
-40 124 -6 0 -10 -3 -10 -7z"/>
</g>
<g>
<path d="M1845 4540 c-11 -5 -29 -11 -39 -14 -10 -4 -17 -9 -14 -12 8 -7 98
19 98 28 0 10 -19 9 -45 -2z"/>
</g>
<g>
<path d="M1835 4506 c-18 -7 -25 -15 -18 -19 6 -4 14 -3 18 3 3 5 19 10 35 10
16 0 32 5 35 10 9 14 -34 12 -70 -4z"/>
</g>
<g>
<path d="M2035 4430 c-11 -5 -32 -9 -46 -9 -27 -1 -54 -23 -43 -34 3 -3 14 -2
23 2 31 16 80 29 86 23 9 -9 -54 -32 -70 -25 -10 3 -13 1 -10 -9 6 -15 60 -13
80 2 6 5 27 11 48 15 47 9 49 27 3 21 -27 -3 -34 -1 -29 10 6 16 -11 17 -42 4z"/>
</g>
<g>
<path d="M1916 4383 c-8 -20 0 -29 34 -37 25 -7 25 -6 -2 9 -17 10 -25 21 -22
30 4 8 4 15 1 15 -3 0 -8 -8 -11 -17z"/>
</g>
<g>
<path d="M1766 4355 c-60 -41 -117 -67 -186 -87 l-65 -18 57 4 c65 5 165 48
218 95 42 37 27 41 -24 6z"/>
</g>
<g>
<path d="M1822 4316 c-40 -18 -75 -36 -79 -40 -15 -15 18 -4 73 24 32 16 64
30 71 30 6 0 15 5 18 10 10 16 -6 12 -83 -24z"/>
</g>
<g>
<path d="M960 4333 c0 -6 67 -33 82 -33 8 0 9 3 1 11 -11 11 -83 30 -83 22z"/>
</g>
<g>
<path d="M2077 4326 c-4 -10 -1 -13 8 -9 8 3 12 9 9 14 -7 12 -11 11 -17 -5z"/>
</g>
<g>
<path d="M925 4300 c3 -5 23 -10 43 -9 33 1 34 2 12 9 -36 12 -62 12 -55 0z"/>
</g>
<g>
<path d="M1880 4285 c-54 -28 -229 -65 -301 -65 -36 0 -50 -3 -43 -10 16 -16
109 -14 194 3 66 14 230 79 230 92 0 11 -37 1 -80 -20z"/>
</g>
<g>
<path d="M2060 4260 c-9 -6 -10 -10 -3 -10 6 0 15 5 18 10 8 12 4 12 -15 0z"/>
</g>
<g>
<path d="M1245 3553 c-39 -10 -92 -78 -82 -106 2 -7 11 5 20 25 24 57 68 80
144 76 49 -3 68 -9 88 -28 14 -13 25 -18 25 -12 0 7 -15 21 -32 32 -32 19
-111 26 -163 13z"/>
</g>
<g>
<path d="M1152 3393 c2 -10 11 -19 21 -21 16 -3 17 -1 5 17 -16 25 -31 27 -26
4z"/>
</g>
<g>
<path d="M2273 4923 c10 -16 85 -23 137 -14 44 8 43 9 -25 10 -38 1 -81 4 -94
8 -16 4 -22 2 -18 -4z"/>
</g>
<g>
<path d="M2310 4859 c0 -7 35 -19 58 -19 28 0 9 18 -23 22 -19 2 -35 1 -35 -3z"/>
</g>
<g>
<path d="M2338 4813 c12 -2 32 -2 45 0 12 2 2 4 -23 4 -25 0 -35 -2 -22 -4z"/>
</g>
<g>
<path d="M2350 4770 c20 -13 50 -13 50 0 0 6 -15 10 -32 10 -25 0 -29 -3 -18
-10z"/>
</g>
<g>
<path d="M450 4677 c0 -20 22 -37 47 -37 27 0 31 18 6 26 -10 3 -26 10 -35 15
-13 7 -18 5 -18 -4z"/>
</g>
<g>
<path d="M556 4558 c3 -4 18 -8 35 -8 16 0 29 4 29 8 0 4 -15 8 -34 8 -19 0
-32 -4 -30 -8z"/>
</g>
<g>
<path d="M530 4520 c0 -5 5 -10 11 -10 6 0 17 -7 25 -15 17 -16 44 -20 44 -6
0 5 9 11 20 14 28 7 25 27 -5 27 -14 0 -25 -4 -25 -10 0 -5 -7 -10 -16 -10 -8
0 -12 5 -9 10 4 6 -5 10 -19 10 -14 0 -26 -4 -26 -10z"/>
</g>
<g>
<path d="M2380 4230 c0 -5 5 -10 10 -10 6 0 10 5 10 10 0 6 -4 10 -10 10 -5 0
-10 -4 -10 -10z"/>
</g>
<g>
<path d="M2370 4190 c0 -5 7 -10 15 -10 8 0 15 5 15 10 0 6 -7 10 -15 10 -8 0
-15 -4 -15 -10z"/>
</g>
<g>
<path d="M2353 4146 c2 -6 21 -12 41 -14 48 -4 39 14 -9 20 -22 2 -34 0 -32
-6z"/>
</g>
<g>
<path d="M2141 4129 c-66 -23 -103 -56 -136 -123 -39 -79 -27 -191 25 -224 25
-15 25 -15 0 33 -39 77 -17 188 52 262 32 34 100 57 145 48 24 -4 34 -3 28 3
-21 20 -62 20 -114 1z"/>
</g>
<g>
<path d="M2740 4107 c0 -9 14 -14 44 -14 52 0 112 -38 122 -78 7 -29 24 -34
24 -7 0 48 -85 112 -150 112 -27 0 -40 -4 -40 -13z"/>
</g>
<g>
<path d="M2162 4087 c-47 -15 -118 -85 -130 -129 -13 -47 -1 -103 20 -102 9 1
19 -8 22 -21 11 -44 87 -55 124 -19 15 15 13 56 -3 53 -5 0 -9 -5 -7 -10 1 -6
-2 -19 -8 -29 -12 -22 -46 -26 -70 -9 -12 8 -11 9 6 4 24 -6 54 17 54 41 0 20
-28 18 -32 -3 -2 -9 -13 -17 -25 -18 -19 -1 -23 4 -25 29 0 17 0 42 1 56 3 28
44 76 73 86 10 3 16 10 13 15 -13 20 -90 -39 -106 -80 -5 -13 -12 -21 -15 -18
-18 18 47 107 97 133 15 7 42 14 59 14 16 0 30 5 30 10 0 12 -35 11 -78 -3z
m-101 -210 c-8 -8 -11 -3 -11 19 1 25 2 27 11 11 8 -14 8 -22 0 -30z"/>
</g>
<g>
<path d="M2828 4054 c-3 -2 9 -20 26 -39 33 -36 42 -38 32 -7 -7 21 -50 55
-58 46z"/>
</g>
<g>
<path d="M2310 4043 c0 -10 87 -33 126 -33 42 0 18 17 -33 23 -26 4 -58 9 -70
13 -13 3 -23 2 -23 -3z"/>
</g>
<g>
<path d="M2320 4003 c0 -5 27 -15 60 -21 74 -16 74 -16 78 -4 1 5 -14 12 -35
15 -21 4 -53 9 -70 13 -18 4 -33 2 -33 -3z"/>
</g>
<g>
<path d="M2444 3794 c-33 -35 -40 -56 -28 -88 11 -28 35 -19 28 9 -8 34 2 61
19 47 9 -8 16 -6 25 9 7 10 23 19 37 19 23 0 24 2 15 20 -17 32 -58 25 -96
-16z"/>
</g>
<g>
<path d="M1922 3699 c-36 -24 -49 -57 -32 -88 17 -32 30 -25 17 9 -11 28 -9
32 18 54 41 33 81 37 138 15 36 -14 53 -17 68 -9 10 6 19 15 19 20 0 13 -6 13
-30 -2 -16 -10 -25 -9 -49 5 -40 23 -108 22 -149 -4z"/>
</g>
<g>
<path d="M1962 3667 c-22 -24 -29 -47 -14 -47 5 0 15 11 22 24 19 36 32 37 86
10 54 -28 104 -32 104 -9 0 18 -17 20 -23 3 -3 -10 -20 -5 -61 15 -69 33 -86
34 -114 4z"/>
</g>
<g>
<path d="M1802 3530 c-37 -23 -52 -49 -51 -87 l1 -28 10 30 c14 39 26 54 61
76 16 9 25 19 20 22 -5 3 -23 -3 -41 -13z"/>
</g>
<g>
<path d="M2020 3516 c0 -24 -42 -46 -88 -46 -36 0 -49 -6 -82 -37 -38 -36 -66
-103 -42 -103 5 0 13 15 16 34 9 46 57 81 119 88 31 4 57 14 73 29 24 23 32
49 14 49 -5 0 -10 -6 -10 -14z"/>
</g>
<g>
<path d="M1894 3511 c-23 -4 -53 -14 -67 -24 -27 -18 -57 -69 -57 -99 0 -29
17 -21 23 11 4 17 19 44 35 62 22 25 38 32 71 35 24 1 48 7 54 13 12 12 6 12
-59 2z"/>
</g>
<g>
<path d="M2520 4450 c0 -5 5 -10 10 -10 6 0 10 5 10 10 0 6 -4 10 -10 10 -5 0
-10 -4 -10 -10z"/>
</g>
<g>
<path d="M2525 4290 c-3 -5 1 -10 9 -10 9 0 16 5 16 10 0 6 -4 10 -9 10 -6 0
-13 -4 -16 -10z"/>
</g>
<g>
<path d="M2530 4260 c0 -5 9 -10 19 -10 11 0 23 5 26 10 4 6 -5 10 -19 10 -14
0 -26 -4 -26 -10z"/>
</g>
<g>
<path d="M2535 4230 c-4 -6 6 -11 22 -11 21 -1 23 -3 8 -6 -26 -6 -44 -23 -24
-23 37 0 57 12 52 31 -6 20 -47 27 -58 9z"/>
</g>
<g>
<path d="M2558 4173 c-28 -4 -40 -23 -14 -23 29 0 76 13 76 21 0 9 -12 9 -62
2z"/>
</g>
<g>
<path d="M1377 3959 c15 -15 193 -26 193 -13 0 5 -26 9 -57 9 -32 0 -78 4
-103 8 -36 6 -42 5 -33 -4z"/>
</g>
<g>
<path d="M1400 3921 c0 -11 29 -18 104 -27 44 -5 57 -4 52 4 -4 7 -29 12 -56
12 -27 0 -60 4 -74 10 -14 5 -26 6 -26 1z"/>
</g>
<g>
<path d="M1452 3870 c23 -14 116 -26 103 -13 -5 6 -35 13 -65 17 -39 4 -50 3
-38 -4z"/>
</g>
<g>
<path d="M1420 3833 c0 -9 77 -33 106 -33 29 0 4 17 -33 23 -21 3 -46 8 -55
12 -10 4 -18 3 -18 -2z"/>
</g>
<g>
<path d="M1446 3781 c13 -13 84 -24 84 -13 0 5 -14 12 -31 16 -45 9 -65 8 -53
-3z"/>
</g>
<g>
<path d="M1535 3540 c3 -5 8 -10 11 -10 2 0 4 5 4 10 0 6 -5 10 -11 10 -5 0
-7 -4 -4 -10z"/>
</g>
<g>
<path d="M1510 3470 c0 -12 28 -25 36 -17 3 3 -4 10 -15 17 -15 7 -21 7 -21 0z"/>
</g>
<g>
<path d="M1675 3420 c3 -5 8 -10 11 -10 2 0 4 5 4 10 0 6 -5 10 -11 10 -5 0
-7 -4 -4 -10z"/>
</g>
<g>
<path d="M1510 3341 c0 -5 5 -13 10 -16 6 -3 10 -2 10 4 0 5 -4 13 -10 16 -5
3 -10 2 -10 -4z"/>
</g>
<g>
<path d="M1480 3281 c0 -5 9 -11 20 -14 24 -6 27 8 4 17 -21 8 -24 8 -24 -3z"/>
</g>
<g>
<path d="M1460 3240 c8 -5 24 -9 35 -9 l20 0 -20 9 c-11 5 -27 9 -35 9 -13 1
-13 0 0 -9z"/>
</g>
<g>
<path d="M1460 3206 c28 -17 60 -22 45 -7 -6 5 -23 12 -40 16 l-30 6 25 -15z"/>
</g>
<g>
<path d="M1435 3172 c6 -5 26 -13 45 -17 25 -5 32 -4 25 4 -6 6 -26 14 -45 17
-24 5 -32 3 -25 -4z"/>
</g>
<g>
<path d="M1391 3080 c26 -15 141 -40 153 -33 9 6 -122 42 -154 42 -12 0 -12
-1 1 -9z"/>
</g>
<g>
<path d="M123 3960 c-58 -35 -74 -104 -27 -113 22 -4 28 0 36 24 13 37 51 48
90 26 24 -14 28 -14 28 -1 0 44 -105 41 -139 -4 -19 -25 -20 -25 -21 -6 0 11
12 31 26 45 35 33 108 34 134 2 21 -26 30 -29 30 -9 0 25 -50 56 -89 56 -20 0
-50 -9 -68 -20z"/>
</g>
<g>
<path d="M232 3828 c-16 -44 1 -58 22 -17 19 39 20 49 3 49 -7 0 -18 -14 -25
-32z"/>
</g>
<g>
<path d="M135 3772 c-34 -21 -62 -52 -48 -52 6 0 18 9 28 20 10 11 23 20 30
20 6 0 20 7 31 15 29 22 -4 19 -41 -3z"/>
</g>
<g>
<path d="M132 3730 c-34 -21 -50 -46 -37 -58 4 -4 14 3 22 16 9 12 21 22 27
22 6 0 17 9 24 20 15 25 6 25 -36 0z"/>
</g>
<g>
<path d="M2948 3883 c7 -3 16 -2 19 1 4 3 -2 6 -13 5 -11 0 -14 -3 -6 -6z"/>
</g>
<g>
<path d="M2896 3851 c-4 -7 -5 -15 -2 -18 9 -9 19 4 14 18 -4 11 -6 11 -12 0z"/>
</g>
<g>
<path d="M2770 3831 c0 -5 9 -12 19 -16 11 -3 23 -14 26 -25 11 -34 33 -45 60
-30 14 7 25 19 25 27 0 17 -15 17 -30 -2 -10 -12 -17 -9 -45 20 -31 34 -55 45
-55 26z"/>
</g>
<g>
<path d="M2655 3811 c-62 -28 -87 -62 -93 -122 -3 -37 -2 -50 7 -45 6 4 11 16
11 28 0 35 31 88 61 103 15 8 44 15 63 15 30 0 55 14 44 25 -14 14 -59 12 -93
-4z"/>
</g>
<g>
<path d="M2639 3737 c-19 -12 -35 -32 -37 -42 -4 -19 -3 -19 17 2 11 12 36 27
56 34 19 7 35 17 35 21 0 16 -37 8 -71 -15z"/>
</g>
<g>
<path d="M2591 3636 c-8 -10 -9 -16 -1 -21 5 -3 13 1 16 10 9 22 -1 29 -15 11z"/>
</g>
<g>
<path d="M2890 3601 c0 -10 45 -41 60 -41 20 0 9 20 -20 35 -34 17 -40 18 -40
6z"/>
</g>
<g>
<path d="M2510 3575 c0 -8 5 -15 10 -15 6 0 10 7 10 15 0 8 -4 15 -10 15 -5 0
-10 -7 -10 -15z"/>
</g>
<g>
<path d="M2676 3441 c-4 -7 -5 -15 -2 -18 9 -9 19 4 14 18 -4 11 -6 11 -12 0z"/>
</g>
<g>
<path d="M1965 3380 c-33 -7 -75 -31 -75 -42 0 -11 2 -10 38 7 42 21 98 22
120 2 10 -10 22 -17 25 -17 10 0 9 40 0 40 -5 0 -24 4 -43 8 -19 5 -48 5 -65
2z"/>
</g>
<g>
<path d="M2134 3345 c3 -9 6 -19 6 -21 0 -2 7 -4 16 -4 22 0 13 34 -10 38 -14
3 -17 0 -12 -13z"/>
</g>
<g>
<path d="M1941 3329 c-13 -5 -22 -11 -19 -14 8 -8 108 8 102 16 -7 12 -52 10
-83 -2z"/>
</g>
<g>
<path d="M2605 3312 c-25 -13 -27 -17 -11 -20 10 -2 25 3 34 12 23 23 12 27
-23 8z"/>
</g>
<g>
<path d="M550 3740 c0 -5 7 -10 16 -10 8 0 12 5 9 10 -3 6 -10 10 -16 10 -5 0
-9 -4 -9 -10z"/>
</g>
<g>
<path d="M1048 3717 c-60 -14 -44 -23 38 -21 82 3 144 -13 180 -47 24 -22 40
-13 21 11 -36 46 -161 76 -239 57z"/>
</g>
<g>
<path d="M540 3706 c0 -2 7 -6 15 -10 8 -3 15 -1 15 4 0 6 -7 10 -15 10 -8 0
-15 -2 -15 -4z"/>
</g>
<g>
<path d="M535 3670 c3 -5 11 -10 16 -10 6 0 7 5 4 10 -3 6 -11 10 -16 10 -6 0
-7 -4 -4 -10z"/>
</g>
<g>
<path d="M939 3645 c-44 -23 -99 -76 -99 -96 0 -17 17 -9 29 14 15 28 66 63
127 87 44 17 46 19 19 19 -16 0 -51 -11 -76 -24z"/>
</g>
<g>
<path d="M1100 3660 c-53 -15 -70 -23 -70 -31 0 -4 16 -1 35 7 20 8 49 16 66
18 16 2 33 6 36 10 8 8 -35 6 -67 -4z"/>
</g>
<g>
<path d="M520 3600 c0 -5 10 -10 23 -10 18 0 19 2 7 10 -19 13 -30 13 -30 0z"/>
</g>
<g>
<path d="M928 3589 c-43 -32 -33 -43 12 -13 22 15 40 28 40 30 0 10 -28 1 -52
-17z"/>
</g>
<g>
<path d="M520 3560 c20 -13 33 -13 25 0 -3 6 -14 10 -23 10 -15 0 -15 -2 -2
-10z"/>
</g>
<g>
<path d="M371 3530 c0 -8 6 -24 14 -34 11 -15 15 -16 15 -5 0 8 -7 24 -15 35
-11 14 -14 15 -14 4z"/>
</g>
<g>
<path d="M949 3481 c-22 -21 -39 -47 -38 -57 0 -18 1 -18 12 1 7 11 30 37 51
58 22 20 34 37 26 37 -7 0 -30 -17 -51 -39z"/>
</g>
<g>
<path d="M509 3494 c18 -8 36 -13 39 -10 8 9 0 13 -38 20 l-35 6 34 -16z"/>
</g>
<g>
<path d="M1072 3438 c-22 -22 -7 -98 19 -98 6 0 3 10 -5 21 -13 19 -13 25 -1
50 16 29 7 47 -13 27z"/>
</g>
<g>
<path d="M675 3680 c-3 -5 -2 -10 4 -10 5 0 13 5 16 10 3 6 2 10 -4 10 -5 0
-13 -4 -16 -10z"/>
</g>
<g>
<path d="M677 3639 c8 -8 16 -8 30 0 16 9 14 10 -11 11 -22 0 -27 -3 -19 -11z"/>
</g>
<g>
<path d="M690 3614 c-31 -11 -32 -13 -10 -13 14 0 32 3 40 9 24 15 7 18 -30 4z"/>
</g>
<g>
<path d="M688 3583 c-10 -2 -18 -9 -18 -15 0 -5 7 -7 16 -4 9 3 22 6 30 6 8 0
14 5 14 10 0 10 -12 11 -42 3z"/>
</g>
<g>
<path d="M713 3558 c-18 -5 -33 -11 -33 -13 0 -9 45 -5 60 5 22 14 9 18 -27 8z"/>
</g>
<g>
<path d="M750 3499 c-8 -5 -26 -9 -40 -9 -14 0 -32 -5 -40 -11 -11 -8 -2 -9
33 -5 52 6 85 20 70 29 -5 3 -15 2 -23 -4z"/>
</g>
<g>
<path d="M270 3420 c0 -5 5 -10 10 -10 6 0 10 5 10 10 0 6 -4 10 -10 10 -5 0
-10 -4 -10 -10z"/>
</g>
<g>
<path d="M1152 3267 c-19 -23 10 -42 45 -29 l28 10 -28 1 c-16 1 -26 5 -22 11
9 14 48 12 64 -2 11 -11 13 -10 9 2 -6 20 -81 26 -96 7z"/>
</g>
<g>
<path d="M832 3235 c-64 -18 -149 -72 -180 -115 -25 -34 -41 -100 -24 -100 11
0 22 23 22 47 0 25 47 81 91 109 77 49 213 69 257 38 28 -20 42 -10 19 13 -22
23 -118 27 -185 8z"/>
</g>
<g>
<path d="M865 3196 c-76 -24 -136 -59 -165 -95 -17 -19 -30 -41 -30 -48 0 -7
-4 -13 -9 -13 -5 0 -6 -20 -3 -45 3 -28 0 -50 -8 -60 -10 -12 -10 -15 3 -15
23 0 28 13 29 72 0 68 37 117 121 159 68 35 161 45 177 19 5 -8 13 -11 17 -6
12 12 -36 46 -66 45 -14 0 -44 -6 -66 -13z"/>
</g>
<g>
<path d="M1095 3194 c18 -41 11 -68 -18 -78 -24 -9 -31 -7 -42 7 -16 22 -25
22 -25 -2 0 -41 66 -42 105 -1 28 29 29 32 15 57 -18 32 -48 46 -35 17z"/>
</g>
<g>
<path d="M1058 3195 c-2 -3 -3 -19 0 -35 3 -25 7 -28 18 -19 8 6 14 17 14 24
0 14 -24 37 -32 30z"/>
</g>
<g>
<path d="M1200 3173 c0 -22 2 -25 10 -13 13 20 13 40 0 40 -5 0 -10 -12 -10
-27z"/>
</g>
<g>
<path d="M1240 3179 c0 -11 5 -17 10 -14 6 3 10 13 10 21 0 8 -4 14 -10 14 -5
0 -10 -9 -10 -21z"/>
</g>
<g>
<path d="M1277 3174 c-4 -4 -7 -14 -7 -23 0 -11 3 -12 11 -4 6 6 10 16 7 23
-2 6 -7 8 -11 4z"/>
</g>
<g>
<path d="M823 3131 c-75 -35 -123 -102 -123 -173 0 -17 -10 -34 -27 -47 -33
-26 -23 -40 12 -17 30 20 45 53 45 101 0 58 88 135 155 135 14 0 25 5 25 10 0
16 -41 11 -87 -9z"/>
</g>
<g>
<path d="M951 3126 c-12 -15 -12 -20 6 -44 15 -20 29 -27 54 -27 24 0 36 -6
43 -20 5 -12 10 -15 13 -8 9 25 -15 50 -45 45 -31 -4 -48 10 -54 47 -3 22 -4
23 -17 7z"/>
</g>
<g>
<path d="M1152 3120 c0 -14 2 -19 5 -12 2 6 2 18 0 25 -3 6 -5 1 -5 -13z"/>
</g>
<g>
<path d="M1080 3060 c0 -5 5 -10 10 -10 6 0 10 5 10 10 0 6 -4 10 -10 10 -5 0
-10 -4 -10 -10z"/>
</g>
<g>
<path d="M960 3021 c0 -8 52 -23 59 -16 1 2 0 8 -4 14 -8 13 -55 15 -55 2z"/>
</g>
<g>
<path d="M970 2980 c0 -5 14 -10 30 -10 17 0 30 5 30 10 0 6 -13 10 -30 10
-16 0 -30 -4 -30 -10z"/>
</g>
<g>
<path d="M965 2939 c-4 -6 -5 -12 -3 -14 7 -7 48 7 48 16 0 13 -37 11 -45 -2z"/>
</g>
<g>
<path d="M940 2890 c0 -5 9 -10 19 -10 11 0 23 5 26 10 4 6 -5 10 -19 10 -14
0 -26 -4 -26 -10z"/>
</g>
<g>
<path d="M887 2856 c-91 -25 -55 -34 43 -11 14 3 3 -5 -25 -19 -57 -28 -41
-34 28 -10 34 11 47 21 47 35 0 23 -22 24 -93 5z"/>
</g>
<g>
<path d="M908 2788 c-33 -12 -38 -32 -5 -23 24 8 43 22 36 28 -2 3 -16 0 -31
-5z"/>
</g>
<g>
<path d="M794 2752 c9 -15 62 -31 76 -22 16 10 4 16 -44 25 -26 5 -37 4 -32
-3z"/>
</g>
<g>
<path d="M805 2700 c3 -5 15 -10 25 -10 10 0 22 5 25 10 4 6 -7 10 -25 10 -18
0 -29 -4 -25 -10z"/>
</g>
<g>
<path d="M840 2670 c-8 -5 -12 -11 -9 -14 2 -3 11 -1 19 4 8 5 12 11 9 14 -2
3 -11 1 -19 -4z"/>
</g>
<g>
<path d="M732 2613 c-31 -6 -57 -46 -44 -70 10 -16 12 -15 21 10 13 35 56 52
90 37 27 -12 38 -8 19 7 -17 13 -57 21 -86 16z"/>
</g>
<g>
<path d="M741 2530 c-22 -30 -24 -31 -82 -24 -41 5 -59 3 -59 -5 0 -6 19 -12
43 -13 84 -4 101 0 120 26 11 16 28 26 43 26 14 0 22 4 19 10 -14 22 -61 10
-84 -20z"/>
</g>
<g>
<path d="M800 2500 c-11 -11 -20 -25 -20 -31 0 -7 -33 -10 -102 -7 -80 2 -102
0 -106 -11 -4 -11 0 -12 14 -6 22 10 44 10 139 0 l70 -7 17 31 c11 21 22 29
32 25 9 -3 16 -2 16 4 0 8 -22 22 -36 22 -2 0 -13 -9 -24 -20z"/>
</g>
<g>
<path d="M850 2452 c0 -15 24 -32 45 -32 27 0 55 -30 55 -59 0 -12 4 -19 10
-16 33 20 -18 95 -65 95 -14 0 -25 5 -25 10 0 6 -4 10 -10 10 -5 0 -10 -4 -10
-8z"/>
</g>
<g>
<path d="M844 2396 c26 -7 52 -20 57 -27 18 -29 7 -89 -17 -89 -8 0 -14 -4
-14 -10 0 -16 26 -11 43 8 23 26 22 85 -3 107 -11 10 -40 19 -67 21 l-48 4 49
-14z"/>
</g>
<g>
<path d="M865 2340 c5 -17 2 -23 -14 -27 -24 -6 -29 -23 -7 -23 36 0 59 57 27
68 -9 3 -11 -2 -6 -18z"/>
</g>
<g>
<path d="M960 2320 c0 -5 5 -10 11 -10 5 0 7 5 4 10 -3 6 -8 10 -11 10 -2 0
-4 -4 -4 -10z"/>
</g>
<g>
<path d="M227 3093 c-9 -9 -9 -43 1 -43 18 1 34 19 29 34 -7 17 -19 21 -30 9z"/>
</g>
<g>
<path d="M1405 2979 c-4 -6 -5 -13 -2 -16 7 -7 27 6 27 18 0 12 -17 12 -25 -2z"/>
</g>
<g>
<path d="M1446 2862 c-8 -14 18 -22 67 -22 25 0 37 4 32 9 -15 14 -92 24 -99
13z"/>
</g>
<g>
<path d="M1442 2818 c6 -18 56 -41 69 -32 7 4 -3 14 -26 25 -46 22 -48 23 -43
7z"/>
</g>
<g>
<path d="M1157 2853 c-22 -6 -18 -37 6 -41 12 -3 17 3 17 22 0 14 -1 25 -2 25
-2 -1 -11 -3 -21 -6z"/>
</g>
<g>
<path d="M2518 2792 c-16 -2 -28 -7 -28 -11 0 -16 45 -21 58 -7 17 17 6 23
-30 18z"/>
</g>
<g>
<path d="M2560 2744 c0 -8 5 -12 10 -9 6 3 10 10 10 16 0 5 -4 9 -10 9 -5 0
-10 -7 -10 -16z"/>
</g>
<g>
<path d="M2610 2750 c0 -5 4 -10 9 -10 6 0 13 5 16 10 3 6 -1 10 -9 10 -9 0
-16 -4 -16 -10z"/>
</g>
<g>
<path d="M2480 2740 c0 -5 11 -10 25 -10 14 0 25 5 25 10 0 6 -11 10 -25 10
-14 0 -25 -4 -25 -10z"/>
</g>
<g>
<path d="M2629 2718 c-13 -18 -31 -42 -41 -52 -24 -27 -23 -36 6 -36 42 0 71
32 68 76 -2 21 -4 40 -6 42 -2 2 -14 -12 -27 -30z"/>
</g>
<g>
<path d="M2530 2710 c0 -5 5 -10 10 -10 6 0 10 5 10 10 0 6 -4 10 -10 10 -5 0
-10 -4 -10 -10z"/>
</g>
<g>
<path d="M2570 2700 c0 -5 5 -10 10 -10 6 0 10 5 10 10 0 6 -4 10 -10 10 -5 0
-10 -4 -10 -10z"/>
</g>
<g>
<path d="M2470 2690 c0 -5 5 -10 10 -10 6 0 10 5 10 10 0 6 -4 10 -10 10 -5 0
-10 -4 -10 -10z"/>
</g>
<g>
<path d="M2515 2671 c-3 -5 -2 -12 2 -14 9 -5 53 10 53 18 0 9 -49 5 -55 -4z"/>
</g>
<g>
<path d="M2475 2640 c3 -5 10 -10 16 -10 5 0 9 5 9 10 0 6 -7 10 -16 10 -8 0
-12 -4 -9 -10z"/>
</g>
<g>
<path d="M2520 2610 c0 -5 5 -10 10 -10 6 0 10 5 10 10 0 6 -4 10 -10 10 -5 0
-10 -4 -10 -10z"/>
</g>
<g>
<path d="M498 2597 c-27 -6 -48 -15 -48 -20 0 -5 12 -6 26 -3 15 4 39 10 55
13 16 3 29 9 29 14 0 5 -3 8 -7 8 -5 -1 -29 -6 -55 -12z"/>
</g>
<g>
<path d="M370 2570 c0 -5 11 -10 25 -10 14 0 25 5 25 10 0 6 -11 10 -25 10
-14 0 -25 -4 -25 -10z"/>
</g>
<g>
<path d="M465 2550 c-4 -6 6 -10 24 -10 16 0 33 5 36 10 4 6 -6 10 -24 10 -16
0 -33 -4 -36 -10z"/>
</g>
<g>
<path d="M495 2520 c-18 -8 -17 -9 8 -9 16 -1 26 3 22 9 -3 6 -7 10 -8 9 -1 0
-11 -4 -22 -9z"/>
</g>
<g>
<path d="M398 2503 c12 -2 30 -2 40 0 9 3 -1 5 -23 4 -22 0 -30 -2 -17 -4z"/>
</g>
<g>
<path d="M410 2480 c-20 -7 -16 -8 23 -9 26 -1 47 4 47 9 0 12 -34 12 -70 0z"/>
</g>
<g>
<path d="M405 2440 c-7 -12 32 -12 60 0 16 7 13 9 -17 9 -20 1 -40 -3 -43 -9z"/>
</g>
<g>
<path d="M425 2410 c-18 -8 -17 -9 8 -9 15 -1 27 4 27 9 0 12 -8 12 -35 0z"/>
</g>
<g>
<path d="M268 2283 c7 -3 16 -2 19 1 4 3 -2 6 -13 5 -11 0 -14 -3 -6 -6z"/>
</g>
<g>
<path d="M2070 2490 c-12 -8 -11 -10 7 -10 12 0 25 5 28 10 8 13 -15 13 -35 0z"/>
</g>
<g>
<path d="M1855 2470 c-8 -13 13 -40 31 -40 20 0 27 19 14 35 -14 17 -36 19
-45 5z"/>
</g>
<g>
<path d="M1950 2461 c0 -27 15 -34 34 -15 19 19 12 34 -15 34 -12 0 -19 -7
-19 -19z"/>
</g>
<g>
<path d="M1914 2405 c-6 -24 0 -44 10 -34 11 11 17 59 7 59 -6 0 -13 -11 -17
-25z"/>
</g>
<g>
<path d="M2005 2320 c3 -5 12 -7 20 -3 21 7 19 13 -6 13 -11 0 -18 -4 -14 -10z"/>
</g>
<g>
<path d="M1278 2423 c12 -2 30 -2 40 0 9 3 -1 5 -23 4 -22 0 -30 -2 -17 -4z"/>
</g>
<g>
<path d="M1176 2401 c15 -14 54 -23 54 -13 0 11 -24 22 -48 22 -10 0 -12 -3
-6 -9z"/>
</g>
<g>
<path d="M1174 2365 c3 -9 6 -19 6 -21 0 -2 14 -4 30 -4 17 0 30 4 30 9 0 12
-8 16 -44 25 -24 6 -27 4 -22 -9z"/>
</g>
<g>
<path d="M2863 2284 c-37 -28 -53 -84 -33 -109 21 -25 28 -17 23 25 -5 34 -2
43 26 71 24 24 37 30 56 25 13 -3 27 -2 30 4 14 22 -70 10 -102 -16z"/>
</g>
<g>
<path d="M2776 2104 c-23 -22 -20 -49 8 -67 26 -17 36 -13 36 15 0 10 5 18 10
18 6 0 10 5 10 10 0 15 -17 12 -35 -6 -9 -9 -19 -13 -23 -10 -12 12 15 41 44
47 l29 7 -32 1 c-17 0 -39 -6 -47 -15z"/>
</g>
<g>
<path d="M2770 1983 c0 -11 5 -24 12 -31 15 -15 38 -16 38 -2 0 6 -7 10 -15
10 -8 0 -15 6 -15 14 0 8 -4 18 -10 21 -5 3 -10 -2 -10 -12z"/>
</g>
<g>
<path d="M260 2190 c0 -5 5 -10 10 -10 6 0 10 5 10 10 0 6 -4 10 -10 10 -5 0
-10 -4 -10 -10z"/>
</g>
<g>
<path d="M1228 2123 c6 -2 18 -2 25 0 6 3 1 5 -13 5 -14 0 -19 -2 -12 -5z"/>
</g>
<g>
<path d="M1235 2020 c3 -5 12 -10 20 -10 8 0 17 5 20 10 4 6 -5 10 -20 10 -15
0 -24 -4 -20 -10z"/>
</g>
<g>
<path d="M1240 1980 c0 -13 11 -13 30 0 12 8 11 10 -7 10 -13 0 -23 -4 -23
-10z"/>
</g>
<g>
<path d="M1265 1810 c-18 -8 -18 -9 5 -8 14 0 36 4 50 8 24 8 24 8 -5 8 -16 0
-39 -3 -50 -8z"/>
</g>
<g>
<path d="M1293 1779 c-18 -5 -33 -12 -33 -15 0 -8 94 7 105 17 12 12 -30 10
-72 -2z"/>
</g>
<g>
<path d="M2002 2013 c-12 -2 -20 -8 -17 -12 6 -11 55 -1 55 10 0 5 -3 8 -7 8
-5 -1 -18 -4 -31 -6z"/>
</g>
<g>
<path d="M2025 1829 c-80 -18 -87 -20 -82 -25 7 -8 137 18 137 28 0 9 -1 9
-55 -3z"/>
</g>
<g>
<path d="M2540 1890 c0 -5 7 -10 16 -10 8 0 12 5 9 10 -3 6 -10 10 -16 10 -5
0 -9 -4 -9 -10z"/>
</g>
<g>
<path d="M2538 1853 c6 -2 18 -2 25 0 6 3 1 5 -13 5 -14 0 -19 -2 -12 -5z"/>
</g>
<g>
<path d="M2525 1700 c3 -5 15 -10 26 -10 10 0 19 5 19 10 0 6 -12 10 -26 10
-14 0 -23 -4 -19 -10z"/>
</g>
<g>
<path d="M2670 2030 c0 -5 7 -10 15 -10 8 0 15 5 15 10 0 6 -7 10 -15 10 -8 0
-15 -4 -15 -10z"/>
</g>
<g>
<path d="M2650 1990 c0 -5 11 -10 25 -10 14 0 25 5 25 10 0 6 -11 10 -25 10
-14 0 -25 -4 -25 -10z"/>
</g>
<g>
<path d="M2640 1950 c0 -5 19 -10 43 -10 31 0 38 3 27 10 -20 13 -70 13 -70 0z"/>
</g>
<g>
<path d="M2675 1820 c-15 -7 -10 -9 23 -9 23 -1 42 4 42 9 0 12 -37 12 -65 0z"/>
</g>
<g>
<path d="M110 1925 c-6 -8 -13 -29 -13 -47 -2 -27 2 -33 18 -33 11 -1 26 -4
33 -9 19 -12 23 -3 16 32 -8 37 -21 41 -34 10 -9 -23 -9 -23 -9 3 -1 29 16 50
35 42 8 -3 14 0 14 6 0 16 -46 13 -60 -4z"/>
</g>
<g>
<path d="M903 1969 c-18 -5 -33 -16 -33 -25 0 -13 3 -13 30 1 33 17 80 20 80
5 0 -5 -9 -10 -19 -10 -11 0 -22 -4 -25 -9 -4 -5 14 -9 39 -9 25 1 45 5 45 10
0 4 -7 8 -15 8 -10 0 -15 7 -13 18 4 21 -39 26 -89 11z"/>
</g>
<g>
<path d="M1637 1723 c-10 -9 -8 -33 2 -33 5 0 11 9 14 20 5 20 -3 26 -16 13z"/>
</g>
<g>
<path d="M2184 1806 c-12 -10 -15 -18 -9 -24 6 -5 19 1 34 15 27 26 8 33 -25
9z"/>
</g>
<g>
<path d="M2849 1791 c-13 -11 -20 -23 -16 -28 5 -4 13 0 18 10 6 9 21 17 34
17 13 0 27 5 30 10 11 18 -42 11 -66 -9z"/>
</g>
<g>
<path d="M1437 1662 c-19 -20 -23 -52 -7 -52 6 0 10 11 10 24 0 13 6 26 13 29
6 2 9 7 6 11 -3 3 -13 -2 -22 -12z"/>
</g>
<g>
<path d="M2188 1673 c7 -3 16 -2 19 1 4 3 -2 6 -13 5 -11 0 -14 -3 -6 -6z"/>
</g>
<g>
<path d="M2165 1644 c-67 -34 -97 -133 -53 -174 22 -21 78 -28 78 -10 0 6 -11
10 -24 10 -59 0 -75 71 -28 122 15 16 45 38 67 48 34 16 37 19 15 19 -14 0
-38 -6 -55 -15z"/>
</g>
<g>
<path d="M2872 1640 c-23 -21 -32 -90 -12 -90 6 0 10 14 10 30 0 21 9 39 26
55 18 17 22 25 12 25 -8 0 -24 -9 -36 -20z"/>
</g>
<g>
<path d="M2236 1626 c4 -11 0 -16 -13 -16 -23 0 -61 -26 -51 -35 3 -3 14 -2
25 3 10 6 31 15 46 21 30 12 32 34 4 39 -12 2 -15 -1 -11 -12z"/>
</g>
<g>
<path d="M2530 1545 c-16 -19 0 -19 26 0 16 12 16 14 3 15 -9 0 -22 -7 -29
-15z"/>
</g>
<g>
<path d="M2685 1500 c-10 -11 -15 -23 -11 -27 3 -4 13 3 22 15 8 12 20 20 26
16 6 -4 6 -10 -1 -17 -19 -19 -12 -28 8 -10 11 9 17 22 14 29 -8 20 -37 17
-58 -6z"/>
</g>
<g>
<path d="M2754 1469 c-8 -13 22 -46 33 -35 4 4 1 11 -6 15 -7 5 -10 14 -7 20
4 6 3 11 -3 11 -5 0 -13 -5 -17 -11z"/>
</g>
<g>
<path d="M2366 1412 c-15 -17 -15 -22 -1 -56 17 -41 37 -53 66 -40 18 8 18 11
5 29 -13 17 -17 18 -25 5 -15 -22 -36 39 -22 63 15 23 -1 22 -23 -1z"/>
</g>
<g>
<path d="M2726 1387 c-5 -10 -6 -31 -2 -48 3 -18 2 -28 -4 -24 -6 3 -10 20
-10 36 0 35 -23 36 -28 1 -4 -28 31 -62 57 -55 22 6 27 23 12 39 -5 5 -11 23
-13 39 -3 25 -6 27 -12 12z"/>
</g>
<g>
<path d="M2542 1368 c-18 -18 -14 -63 7 -82 24 -22 41 -13 41 20 0 26 -9 31
-28 12 -9 -9 -12 -8 -12 8 0 11 5 25 11 31 6 6 7 13 1 16 -5 4 -14 1 -20 -5z"/>
</g>
<g>
<path d="M2900 1324 c-29 -16 -86 -18 -95 -4 -3 6 -11 10 -17 10 -19 0 11 -28
38 -34 31 -8 97 9 114 29 16 19 -4 19 -40 -1z"/>
</g>
<g>
<path d="M2795 491 c-12 -5 -20 -17 -20 -31 0 -19 -8 -25 -44 -34 -53 -13 -62
-30 -24 -44 l28 -10 -33 -7 c-39 -9 -37 -29 4 -33 44 -5 50 -19 10 -26 -21 -4
-36 -13 -36 -21 0 -24 19 -27 32 -5 8 12 23 20 40 20 25 0 27 -3 33 -63 4 -34
5 -83 3 -107 -2 -35 0 -45 12 -45 18 0 30 106 19 168 -4 22 -2 40 4 44 5 3 35
6 66 7 49 1 56 4 56 21 0 15 -8 21 -34 23 -25 3 -31 6 -20 13 10 6 2 9 -26 9
-52 0 -34 18 25 23 38 3 35 4 -18 5 -38 1 -61 6 -57 12 3 5 19 7 35 3 19 -3
30 -1 30 6 0 6 -16 11 -36 11 -21 0 -33 4 -29 10 3 6 19 10 35 10 36 0 49 19
25 37 -21 14 -49 16 -80 4z m65 -21 c0 -5 -9 -10 -20 -10 -11 0 -20 5 -20 10
0 6 9 10 20 10 11 0 20 -4 20 -10z m-90 -70 c0 -5 -14 -10 -31 -10 -17 0 -28
4 -24 10 3 6 17 10 31 10 13 0 24 -4 24 -10z m0 -50 c0 -5 -12 -10 -26 -10
-14 0 -23 4 -19 10 3 6 15 10 26 10 10 0 19 -4 19 -10z m155 -20 c4 -6 -15
-10 -52 -9 -51 1 -54 2 -23 9 52 11 68 11 75 0z"/>
</g>
<g>
<path d="M2835 271 c-3 -5 -1 -12 5 -16 5 -3 10 1 10 9 0 18 -6 21 -15 7z"/>
</g>
</g>
</g>
</svg>
