<?xml version="1.0" standalone="no"?>
<!DOCTYPE svg PUBLIC "-//W3C//DTD SVG 20010904//EN"
 "http://www.w3.org/TR/2001/REC-SVG-20010904/DTD/svg10.dtd">
<svg version="1.0" xmlns="http://www.w3.org/2000/svg"
 width="300.000000pt" height="520.000000pt" viewBox="0 0 300.000000 520.000000"
 preserveAspectRatio="xMidYMid meet">
<metadata>
Created by potrace 1.15, written by Peter Selinger 2001-2017
</metadata>
<g transform="translate(0.000000,520.000000) scale(0.100000,-0.100000)"
fill="#000000" stroke="none">
<g>
<path d="M6 5169 c-3 -15 -5 -1185 -6 -2598 l0 -2571 960 0 c579 0 960 4 960
9 0 6 -285 7 -725 4 -399 -3 -725 -2 -725 2 0 4 16 25 35 48 19 22 35 48 35
57 0 10 11 34 25 53 34 51 165 307 165 324 0 7 4 21 10 31 18 32 78 207 83
245 8 54 -15 43 -29 -14 -5 -24 -13 -51 -16 -59 -4 -8 -9 -27 -12 -42 -3 -14
-28 -74 -56 -133 -27 -59 -50 -109 -50 -111 0 -3 -11 -29 -24 -57 -14 -29 -30
-63 -36 -77 -15 -36 -120 -192 -163 -242 l-23 -28 -179 4 c-99 3 -186 5 -192
5 -9 1 -13 18 -13 51 0 49 2 53 61 111 34 33 58 63 54 67 -3 4 -27 -15 -51
-41 -25 -26 -49 -47 -54 -47 -10 0 -15 262 -18 1047 l-2 542 37 42 c60 68 89
91 130 105 71 25 138 16 203 -27 14 -9 46 -24 73 -34 26 -10 47 -21 47 -26 0
-4 -18 -22 -40 -39 -42 -33 -62 -77 -41 -89 8 -5 -7 -24 -42 -54 -54 -46 -99
-87 -169 -153 -23 -22 -35 -41 -31 -51 3 -8 2 -18 -3 -22 -22 -16 -56 -75 -61
-108 -5 -27 -2 -39 11 -49 16 -11 15 -16 -15 -69 -43 -76 -53 -181 -20 -214
11 -11 30 -21 41 -21 16 0 20 -7 20 -31 0 -22 5 -32 20 -36 10 -3 22 -14 25
-24 8 -26 28 -24 63 6 17 14 33 25 37 25 15 0 55 56 55 76 0 26 22 46 43 39 8
-4 54 6 101 20 119 38 243 127 327 237 61 79 124 148 135 148 6 0 19 9 29 20
10 11 26 20 35 20 9 0 25 7 36 15 35 26 50 16 16 -11 -25 -20 -32 -32 -28 -47
3 -12 1 -26 -3 -31 -25 -33 -50 -200 -61 -421 -6 -104 -17 -228 -26 -275 -40
-215 -48 -251 -76 -335 -30 -88 -40 -109 -98 -210 -30 -51 -38 -85 -20 -85 6
0 10 8 10 19 0 10 19 47 43 82 77 115 123 234 137 349 5 41 14 104 21 140 13
75 13 73 28 330 13 225 23 291 57 377 14 35 23 67 20 72 -3 4 3 16 14 26 18
16 20 16 52 -8 18 -13 48 -32 65 -41 41 -20 213 -190 213 -210 0 -8 -5 -16
-12 -18 -9 -3 -9 -12 2 -37 12 -31 12 -34 -13 -54 -25 -22 -26 -23 -17 -107
10 -98 21 -139 35 -140 6 -1 13 9 17 22 5 19 6 17 7 -12 2 -58 11 -76 42 -86
26 -8 34 -18 54 -79 30 -91 69 -218 85 -277 8 -29 18 -48 27 -48 11 0 13 10 7
48 -4 26 -11 57 -15 70 -6 17 -5 22 6 22 9 0 20 -11 25 -25 11 -29 26 -32 32
-7 6 22 -14 112 -24 112 -5 0 -8 6 -8 14 0 8 -7 17 -16 20 -13 5 -14 9 -5 20
8 10 9 16 1 21 -5 3 -10 14 -10 23 0 10 -9 35 -20 57 -11 22 -20 44 -20 50 1
23 29 45 67 51 l39 6 14 -59 c17 -70 13 -57 32 -123 9 -30 19 -82 23 -115 4
-33 11 -65 17 -72 7 -8 5 -22 -6 -44 -20 -41 -21 -41 9 -33 19 5 25 2 25 -10
0 -9 5 -16 11 -16 10 0 34 -49 41 -84 2 -15 -3 -19 -25 -20 -16 -1 -33 -10
-39 -20 -12 -22 -65 -45 -88 -39 -21 5 -30 32 -30 84 0 34 -22 69 -33 52 -7
-12 -2 -101 6 -109 4 -4 7 -17 7 -30 0 -43 45 -45 133 -3 62 29 67 29 90 14
42 -27 99 11 82 56 -3 9 20 29 70 58 122 71 114 87 -10 21 l-75 -40 -11 27
c-5 15 -9 36 -7 47 3 19 11 21 73 24 39 1 85 2 103 2 21 0 32 5 32 14 0 11
-21 14 -100 13 -55 0 -103 2 -105 5 -3 3 -6 20 -7 39 -2 66 -7 79 -33 79 -19
0 -28 9 -41 38 -37 89 -57 161 -59 218 -1 34 -5 65 -7 70 -3 5 -13 47 -23 94
-9 47 -21 93 -26 102 -16 30 -10 46 20 53 40 9 52 43 51 149 -2 177 -2 180 17
165 9 -8 18 -13 20 -12 10 7 77 33 84 33 5 0 9 -11 9 -24 0 -28 51 -76 80 -76
11 0 31 -5 44 -12 21 -9 29 -8 44 5 25 23 32 21 32 -6 0 -13 6 -30 12 -39 31
-39 160 -50 182 -16 15 25 33 22 40 -6 5 -19 16 -27 49 -34 48 -10 73 -1 82
29 6 18 9 19 23 6 26 -22 87 -39 116 -31 23 5 34 -1 69 -37 97 -100 136 -124
191 -120 26 1 66 -22 66 -39 0 -3 -17 -16 -37 -28 -70 -41 -123 -102 -88 -102
7 0 16 8 19 18 6 19 48 54 79 65 15 6 17 -1 17 -63 0 -67 -1 -69 -29 -75 -15
-3 -37 -16 -47 -28 -53 -60 -86 -118 -91 -156 -5 -34 -14 -49 -50 -78 -24 -20
-46 -47 -50 -62 -3 -14 -10 -31 -15 -38 -5 -6 -13 -83 -18 -170 -9 -166 -20
-217 -66 -286 l-25 -38 -67 3 -67 3 -3 111 -3 111 63 6 c35 3 64 4 65 3 2 -2
-4 -38 -13 -80 -9 -43 -13 -80 -10 -83 9 -9 14 -1 20 27 2 14 11 59 20 100 8
41 20 111 25 155 9 71 51 234 80 307 5 15 25 44 44 65 43 48 53 76 31 93 -19
17 -34 -1 -34 -42 0 -15 -5 -30 -11 -34 -16 -10 -75 -143 -83 -189 -4 -22 -16
-65 -26 -95 -9 -31 -21 -83 -25 -116 l-6 -60 -35 4 c-37 5 -58 22 -25 22 11 0
23 4 26 10 4 6 -13 10 -44 10 -66 0 -65 15 2 26 l52 8 -55 6 c-30 4 -43 7 -28
8 41 3 62 13 47 23 -10 6 -9 12 4 27 17 18 17 21 2 36 -36 35 -115 5 -115 -44
0 -13 -9 -22 -28 -26 -15 -3 -33 -8 -40 -10 -24 -7 -6 -29 31 -38 44 -11 49
-26 8 -26 -31 0 -65 -25 -56 -41 4 -5 24 -9 46 -9 54 0 49 -16 -7 -23 -54 -6
-68 -17 -59 -46 10 -31 37 -28 29 4 -6 24 -4 25 35 25 l41 0 0 -69 c0 -37 3
-90 6 -116 l7 -47 -252 7 c-174 4 -251 3 -251 -4 0 -8 165 -11 535 -11 l535 0
-1 698 c0 419 -4 688 -9 675 -5 -12 -8 -77 -6 -143 2 -107 1 -120 -13 -114 -9
4 -35 10 -59 14 -24 4 -47 11 -52 16 -4 5 -11 79 -15 164 -3 85 -10 202 -15
260 -12 132 -13 241 -4 303 6 41 10 47 30 47 13 0 24 -4 24 -10 0 -14 36 -13
59 2 15 9 18 19 14 45 -4 26 -2 33 11 33 9 0 16 -8 16 -20 0 -11 5 -20 10 -20
6 0 10 16 10 35 0 33 -2 35 -25 29 -42 -10 -58 -10 -62 3 -3 7 10 16 29 21 29
8 33 12 32 41 -1 17 -5 39 -8 48 -6 14 -8 14 -27 -3 l-20 -18 23 -17 c23 -18
22 -29 -5 -33 -37 -5 -48 -28 -43 -85 3 -31 3 -48 0 -38 -3 10 -15 17 -30 17
-13 0 -24 4 -24 10 0 28 46 143 65 163 12 12 30 34 40 49 9 16 21 28 26 28 15
0 10 -22 -8 -36 -17 -12 -16 -13 5 -14 35 0 37 26 7 72 -22 33 -25 45 -17 59
9 13 8 19 -5 23 -12 5 -13 9 -4 20 9 10 9 25 0 58 -11 40 -10 47 9 74 27 36
47 131 38 178 -9 49 -34 47 -80 -6 -29 -35 -36 -39 -36 -23 -1 18 -2 17 -15
-5 -7 -14 -11 -34 -9 -46 5 -19 1 -21 -40 -20 -46 1 -64 20 -28 29 13 4 13 5
-4 6 -18 1 -23 9 -28 51 -4 27 -10 52 -15 54 -10 7 -22 62 -28 131 -2 28 -5
60 -6 72 -1 12 -5 25 -9 29 -5 4 -8 19 -8 32 0 14 -3 22 -8 18 -10 -10 -3
-128 9 -142 6 -8 4 -14 -6 -18 -9 -3 -14 -10 -11 -14 3 -5 0 -17 -7 -26 -11
-14 -15 -15 -31 -3 -17 12 -20 41 -32 293 -8 153 -18 304 -23 334 -5 30 -10
81 -10 114 -1 52 1 57 14 46 17 -14 31 -6 37 23 5 27 22 26 26 -2 3 -16 0 -21
-9 -16 -9 6 -11 2 -7 -13 4 -12 2 -22 -3 -22 -5 0 -9 -9 -9 -20 0 -11 7 -20
15 -20 23 0 18 -18 -7 -23 l-23 -4 23 -8 c25 -8 30 -25 6 -25 -9 0 -14 -6 -11
-12 2 -7 10 -12 16 -10 15 3 14 -11 -1 -26 -9 -9 -8 -12 5 -12 22 0 22 -9 0
-25 -11 -8 -14 -18 -8 -31 13 -32 17 -112 6 -133 -8 -14 -8 -22 0 -26 6 -4 7
-19 4 -36 -4 -16 -4 -43 0 -60 6 -26 10 -30 31 -25 30 8 28 14 50 -156 9 -76
22 -138 27 -138 5 0 6 15 2 38 -4 20 -11 78 -16 127 -20 209 -33 280 -50 270
-11 -7 -24 23 -15 33 4 3 12 0 17 -8 7 -10 8 7 4 55 -21 265 -19 286 29 284
11 0 15 -3 9 -6 -18 -7 -16 -23 1 -23 21 0 30 20 17 33 -6 6 -11 27 -11 47 0
20 -3 40 -6 43 -9 8 -40 -32 -46 -58 -5 -27 -28 147 -28 216 0 30 4 59 9 64
16 17 -17 102 -42 109 -22 6 -22 6 -2 21 16 13 17 19 8 35 -11 16 -9 20 7 25
14 4 20 15 20 35 0 30 -14 47 -25 30 -14 -23 -31 -9 -31 25 0 43 -29 79 -45
55 -9 -14 -8 -23 7 -84 5 -21 3 -23 -18 -19 -28 5 -53 -19 -44 -42 3 -9 18
-15 36 -15 25 0 30 -4 30 -23 0 -13 -9 -26 -22 -32 -37 -17 -43 -38 -29 -96
18 -70 17 -165 -3 -184 -13 -13 -16 -11 -27 20 -7 19 -18 34 -24 32 -17 -6
-18 -57 -1 -76 14 -15 13 -18 -4 -29 -24 -14 -26 -45 -5 -62 12 -10 18 -10 30
0 9 7 17 11 18 9 1 -2 11 -14 21 -27 14 -16 22 -47 27 -110 24 -263 28 -323
34 -499 l8 -193 -24 0 c-13 0 -59 -11 -101 -24 l-77 -23 -11 31 c-6 17 -20 92
-30 166 -11 74 -23 147 -26 163 -7 33 14 37 41 7 18 -20 45 -27 45 -12 0 4 -8
18 -17 32 -16 22 -16 23 1 17 21 -8 56 9 56 27 0 7 -14 16 -30 20 -22 4 -30
11 -28 23 2 12 -3 18 -17 18 -16 0 -21 -8 -25 -39 -5 -42 -25 -59 -34 -29 -14
46 -41 251 -51 393 -3 41 -10 92 -16 114 -6 21 -10 61 -9 90 2 75 2 75 -27 89
-16 6 -34 17 -41 24 -11 11 -9 13 11 13 13 0 32 9 43 21 16 17 16 22 4 29 -8
6 -23 10 -32 10 -10 0 -25 14 -33 31 -20 38 -39 33 -43 -13 -2 -26 -9 -37 -23
-41 -11 -3 -19 -14 -19 -26 0 -21 8 -25 43 -22 23 3 22 -16 -2 -24 -36 -11
-44 -30 -32 -82 6 -27 18 -100 27 -163 8 -63 18 -124 20 -135 4 -16 0 -20 -23
-19 -15 0 -41 6 -57 13 -16 6 -30 10 -32 9 -1 -2 4 -18 11 -35 9 -22 21 -33
34 -33 31 0 35 -19 7 -30 -14 -5 -26 -17 -26 -25 0 -20 28 -31 48 -18 11 6 24
5 42 -3 23 -12 27 -22 38 -111 7 -54 22 -156 32 -228 53 -353 54 -388 8 -345
-11 10 -17 23 -13 29 10 17 -21 24 -45 11 -16 -9 -25 -8 -36 1 -20 16 -64 -4
-64 -30 0 -10 -6 -24 -14 -31 -8 -6 -16 -23 -18 -38 -2 -20 -11 -28 -38 -35
-19 -5 -45 -18 -56 -29 -13 -11 -24 -15 -28 -9 -4 5 -2 12 4 16 5 3 10 18 10
32 0 14 7 31 15 37 10 8 13 23 8 54 -5 34 -11 46 -30 53 -23 9 -24 12 -19 77
3 37 8 123 11 192 8 171 32 526 51 755 23 278 22 274 42 269 20 -5 114 54 120
76 3 9 -6 5 -22 -9 -28 -26 -33 -22 -15 10 8 16 17 18 43 14 30 -6 34 -4 46
24 7 18 20 31 30 31 21 0 31 30 18 54 -6 11 -5 42 1 87 13 79 5 105 -34 115
-30 7 -31 12 -8 30 17 12 16 15 -11 43 l-30 31 29 30 c28 29 31 30 91 24 53
-6 68 -3 99 14 33 20 35 21 25 2 -13 -25 -13 -50 2 -50 6 0 20 -8 31 -17 19
-18 19 -17 12 25 -6 37 -4 45 15 60 17 13 21 24 16 40 -11 33 -51 28 -99 -13
-46 -40 -50 -41 -112 -20 -50 17 -65 13 -104 -29 -30 -31 -41 -33 -41 -5 0 12
-8 23 -19 26 -17 4 -17 6 5 28 24 24 32 64 14 66 -12 2 -27 5 -37 9 -5 2 -17
3 -28 4 -18 1 -20 7 -16 51 2 29 11 60 22 74 26 33 24 48 -11 83 -36 35 -36
36 -7 31 12 -2 31 3 42 11 20 16 20 16 1 31 -11 8 -27 15 -35 15 -13 0 -15 10
-13 50 3 40 1 51 -14 57 -20 8 -56 -30 -48 -52 4 -10 -4 -15 -28 -17 -28 -3
-33 -6 -30 -27 1 -13 10 -30 20 -37 16 -12 16 -14 -3 -28 -18 -13 -20 -28 -23
-135 -2 -67 -6 -121 -8 -121 -2 0 -13 5 -23 12 -25 15 -51 -4 -51 -38 0 -13
-5 -34 -11 -48 -9 -19 -9 -29 0 -40 17 -21 -20 -41 -48 -26 -46 24 -81 8 -81
-38 0 -10 -9 -23 -20 -30 -12 -7 -20 -23 -20 -40 0 -15 -11 -39 -25 -54 -25
-27 -36 -98 -16 -98 6 0 7 -16 4 -36 -5 -28 -2 -40 11 -50 10 -7 16 -16 13
-21 -8 -14 12 -53 27 -53 8 0 20 -18 28 -42 10 -33 18 -43 35 -43 12 0 30 -8
40 -17 10 -9 34 -18 53 -20 l35 -3 -3 -150 c-5 -240 -31 -734 -42 -810 -6 -38
-11 -103 -12 -142 0 -40 -4 -73 -8 -73 -4 0 -15 42 -24 93 -10 50 -29 148 -43
216 -25 120 -25 125 -7 138 10 7 25 11 34 7 38 -16 60 -16 60 0 0 9 -4 16 -8
16 -12 0 -34 49 -27 60 10 17 -8 40 -31 40 -26 0 -36 -24 -32 -74 2 -16 -3
-31 -10 -33 -7 -3 -12 4 -12 19 0 23 -36 206 -65 328 -9 36 -20 85 -25 110 -6
25 -14 54 -19 65 -6 11 -12 36 -15 55 -11 78 -19 100 -41 114 -17 11 -21 21
-18 40 7 35 -26 32 -40 -4 -4 -10 -6 -8 -6 7 -1 12 -9 24 -18 26 -14 4 -13 5
4 6 12 0 29 11 38 23 14 21 14 24 -1 35 -14 10 -21 10 -32 1 -12 -10 -18 -7
-36 15 -22 27 -51 37 -43 15 2 -7 0 -23 -4 -36 -7 -17 -4 -27 11 -42 11 -11
26 -20 33 -21 6 0 2 -4 -10 -9 -15 -6 -21 -15 -17 -25 7 -18 25 -20 42 -3 9 9
12 8 12 -6 0 -9 -14 -29 -30 -43 -39 -32 -38 -57 5 -96 31 -29 37 -42 50 -117
8 -47 21 -108 28 -136 13 -50 13 -51 -15 -76 l-29 -26 -15 24 c-21 31 -34 31
-34 0 0 -49 17 -74 52 -78 l33 -4 -27 -12 c-31 -13 -36 -37 -14 -67 15 -21 46
-14 46 11 0 13 6 15 27 9 16 -4 28 -7 29 -8 0 -1 8 -39 18 -84 9 -45 25 -110
35 -145 42 -139 113 -519 102 -537 -4 -4 -26 -11 -50 -15 -24 -4 -57 -14 -73
-22 -37 -19 -53 -13 -62 22 -18 70 -174 344 -238 418 -10 12 -38 44 -63 72
-38 43 -45 58 -45 92 0 31 -5 44 -20 52 -27 14 -15 33 16 26 42 -11 61 7 62
59 0 28 7 54 16 64 15 16 15 21 0 57 -9 21 -16 66 -16 99 0 33 -5 64 -12 68
-7 6 -4 7 6 3 10 -3 28 -1 40 4 l23 9 -24 0 c-17 1 -22 5 -17 17 3 9 6 18 6
20 0 2 12 4 26 4 21 0 24 -3 19 -22 -6 -23 -6 -23 10 -3 13 17 14 21 2 30 -8
6 -17 20 -21 31 -12 38 -82 57 -106 29 -9 -11 -33 -15 -89 -15 -134 0 -277
-56 -308 -121 -7 -14 -33 -36 -59 -49 -25 -14 -50 -35 -55 -47 -13 -36 -17
-27 -13 30 3 28 9 147 13 262 5 116 14 232 20 258 6 27 9 53 5 58 -3 6 2 16
12 23 14 10 16 22 11 58 -4 28 -2 49 5 56 8 8 8 15 -2 27 -12 14 -15 14 -31
-1 -24 -22 -34 -12 -17 15 10 17 19 20 44 15 19 -3 35 -1 39 6 11 17 -14 40
-44 40 -22 0 -29 7 -42 43 -9 23 -20 41 -25 40 -14 -4 -17 -69 -4 -93 11 -20
10 -21 -10 -10 -16 9 -25 9 -35 0 -18 -15 -8 -40 15 -40 34 0 33 -22 -4 -52
l-36 -29 0 -87 c0 -138 -56 -1040 -74 -1202 -3 -25 -10 -92 -17 -151 -11 -102
-12 -106 -43 -124 -17 -11 -35 -21 -39 -23 -4 -2 -6 67 -3 155 5 147 8 271 22
998 6 324 6 331 22 347 6 6 12 25 12 41 0 31 -27 97 -40 97 -4 0 -17 16 -29
36 l-21 35 28 24 c26 23 26 25 10 42 -17 16 -19 16 -35 0 -16 -15 -18 -14 -35
13 -10 17 -26 30 -38 30 -17 0 -20 -7 -20 -44 0 -30 -5 -46 -15 -50 -17 -6
-20 -42 -5 -51 6 -4 17 -2 24 4 10 8 12 -7 12 -72 0 -45 1 -309 3 -587 4 -550
-6 -987 -22 -997 -5 -3 -14 2 -19 11 -5 9 -16 16 -23 16 -8 0 -15 5 -15 10 0
18 -33 11 -57 -12 l-23 -21 0 34 c0 38 23 79 45 79 9 0 13 -10 12 -27 -2 -25
1 -28 26 -25 20 2 27 -2 27 -15 0 -13 3 -14 11 -6 7 7 9 19 5 28 -5 13 -13 15
-33 10 -24 -6 -25 -5 -13 10 12 14 12 18 -1 26 -23 15 -54 10 -77 -11 -23 -22
-30 -43 -34 -105 -2 -32 -7 -41 -24 -43 -20 -3 -22 2 -27 50 -6 78 -8 2508 -1
2543 l5 30 1422 -3 c782 -1 1441 -2 1463 -2 37 0 43 -3 49 -27 4 -16 7 -334 8
-708 0 -475 3 -653 10 -590 5 50 11 372 13 716 l4 627 -62 6 c-35 3 -707 6
-1495 5 l-1431 -2 -6 -28z m1994 -164 c0 -14 -4 -25 -10 -25 -5 0 -10 11 -10
25 0 14 5 25 10 25 6 0 10 -11 10 -25z m50 -85 c0 -5 -4 -10 -9 -10 -6 0 -13
5 -16 10 -3 6 1 10 9 10 9 0 16 -4 16 -10z m-88 -44 c13 -10 15 -15 6 -24 -11
-11 0 -17 25 -13 4 0 7 -3 7 -9 0 -5 -9 -10 -20 -10 -11 0 -20 -4 -20 -10 0
-5 9 -10 21 -10 11 0 17 -4 14 -10 -4 -6 -15 -8 -26 -5 -24 8 -25 -10 -1 -24
16 -10 16 -10 0 -11 -9 0 -20 5 -23 10 -11 18 -26 10 -23 -12 2 -14 9 -22 19
-20 12 2 15 -5 11 -29 -3 -17 0 -34 7 -38 6 -4 14 -21 17 -39 6 -29 4 -32 -17
-32 -13 0 -29 4 -36 8 -14 9 -20 167 -9 240 8 53 18 61 48 38z m125 -258 c-3
-8 -6 -5 -6 6 -1 11 2 17 5 13 3 -3 4 -12 1 -19z m-247 -74 c0 -9 -5 -14 -12
-12 -18 6 -21 28 -4 28 9 0 16 -7 16 -16z m234 -29 c-6 -16 -24 -21 -24 -7 0
11 11 22 21 22 5 0 6 -7 3 -15z m-324 -50 c0 -16 -45 -21 -54 -6 -8 12 4 21
31 21 14 0 23 -6 23 -15z m96 -22 c-11 -11 -17 4 -9 23 7 18 8 18 11 1 2 -10
1 -21 -2 -24z m261 31 c-3 -3 -12 -4 -19 -1 -8 3 -5 6 6 6 11 1 17 -2 13 -5z
m57 -73 c-4 -3 -9 0 -11 7 -3 6 -11 12 -19 12 -9 0 -12 5 -9 11 5 7 14 4 26
-7 11 -9 16 -20 13 -23z m-254 14 c0 -8 4 -15 8 -15 5 0 9 -13 10 -30 0 -16
-4 -30 -9 -30 -17 0 -9 -20 9 -20 16 -1 15 -2 -2 -15 -16 -12 -17 -17 -6 -30
7 -9 9 -15 4 -14 -35 6 -44 -14 -23 -53 9 -16 13 -18 20 -7 4 7 11 10 15 6 4
-4 -2 -17 -14 -30 -28 -30 -29 -67 -2 -67 11 0 20 -4 20 -9 0 -14 -23 -19 -49
-9 -24 8 -24 9 -18 111 10 154 19 227 28 227 5 0 9 -7 9 -15z m-235 -15 c-3
-5 -10 -10 -16 -10 -5 0 -9 5 -9 10 0 6 7 10 16 10 8 0 12 -4 9 -10z m190 -17
c-6 -23 -12 -82 -24 -242 -1 -10 -4 -11 -15 -2 -8 7 -25 9 -40 5 -22 -5 -26
-3 -26 14 0 11 -8 28 -17 38 -19 18 -28 104 -12 104 5 0 9 8 9 19 0 28 27 75
35 61 4 -6 2 -16 -4 -23 -17 -21 -31 -66 -22 -72 10 -5 51 72 51 94 0 11 3 11
15 1 16 -14 35 -6 35 16 0 8 5 14 11 14 7 0 9 -10 4 -27z m-169 -60 l-15 -28
-1 26 c0 14 6 31 12 37 19 19 21 -3 4 -35z m-1400 12 c6 -23 0 -45 -10 -34
-10 12 -15 59 -6 59 5 0 12 -11 16 -25z m1736 14 c16 -9 19 -17 14 -44 -5 -27
-3 -36 15 -48 l21 -16 -21 -29 c-12 -17 -19 -36 -16 -44 6 -17 -16 -45 -40
-50 -18 -3 -19 3 -16 87 2 91 10 155 18 155 2 0 13 -5 25 -11z m108 -14 c0 -8
5 -15 11 -15 5 0 7 -5 3 -12 -5 -7 -11 -5 -21 7 -16 22 -17 35 -3 35 6 0 10
-7 10 -15z m53 -11 c-4 -12 -8 -13 -14 -3 -9 15 -2 32 11 24 5 -3 6 -13 3 -21z
m-568 -31 c-8 -31 -13 -39 -20 -31 -9 9 6 58 17 58 6 0 7 -11 3 -27z m456 -16
c-16 -16 -26 0 -10 19 9 11 15 12 17 4 2 -6 -1 -17 -7 -23z m-1371 3 c0 -5 -4
-10 -10 -10 -5 0 -10 5 -10 10 0 6 5 10 10 10 6 0 10 -4 10 -10z m990 -10 c0
-5 -4 -10 -10 -10 -5 0 -10 5 -10 10 0 6 5 10 10 10 6 0 10 -4 10 -10z m495 0
c3 -5 -1 -10 -9 -10 -9 0 -16 5 -16 10 0 6 4 10 9 10 6 0 13 -4 16 -10z m-68
-32 c-3 -8 -6 -5 -6 6 -1 11 2 17 5 13 3 -3 4 -12 1 -19z m-1791 -23 c-6 -23
-3 -25 25 -25 27 0 31 -3 26 -22 -4 -13 0 -26 10 -33 22 -17 10 -31 -33 -38
-30 -5 -39 -2 -60 21 -30 34 -32 82 -4 89 11 3 20 12 20 19 0 8 5 14 11 14 7
0 9 -10 5 -25z m1394 -27 c0 -12 -14 -10 -28 4 -19 19 -14 29 8 16 11 -7 20
-16 20 -20z m-104 -15 c-11 -11 -19 6 -11 24 8 17 8 17 12 0 3 -10 2 -21 -1
-24z m535 -16 c-8 -8 -11 -4 -11 14 0 33 14 47 18 19 2 -12 -1 -27 -7 -33z
m-1538 9 c4 -9 14 -12 25 -9 25 6 41 -33 20 -50 -7 -7 -22 -22 -32 -34 -18
-21 -18 -24 -2 -48 16 -24 16 -25 -6 -26 -17 -1 -19 -2 -5 -6 21 -5 23 -33 2
-33 -8 0 -15 -7 -15 -15 0 -8 7 -15 15 -15 8 0 15 -9 15 -21 0 -11 -4 -18 -9
-14 -5 3 -12 1 -16 -5 -3 -5 1 -10 9 -10 9 0 16 -4 16 -10 0 -5 -7 -10 -15
-10 -8 0 -15 -5 -15 -11 0 -6 6 -9 14 -6 11 5 14 -9 13 -70 -2 -54 -6 -78 -15
-81 -11 -3 -12 0 -3 16 15 28 14 31 -11 42 -18 7 -19 9 -5 9 21 1 23 17 2 25
-17 6 -16 8 -21 -56 -2 -27 1 -48 6 -48 6 0 10 -9 10 -20 0 -11 7 -20 15 -20
8 0 15 -5 15 -11 0 -6 -7 -9 -15 -5 -8 3 -15 1 -15 -4 0 -6 8 -10 18 -11 15 0
15 -1 -2 -8 -17 -6 -17 -8 -4 -14 23 -8 18 -68 -7 -78 -16 -6 -17 -8 -3 -8 25
-1 30 -17 13 -35 -12 -12 -13 -20 -6 -34 12 -22 5 -32 -19 -32 -12 0 -17 -9
-17 -30 0 -18 6 -30 14 -30 7 0 13 -4 13 -10 0 -5 -7 -10 -15 -10 -11 0 -15
-12 -15 -45 0 -35 3 -43 15 -39 11 4 15 0 15 -16 0 -19 -2 -20 -15 -10 -8 7
-15 10 -15 7 0 -3 -3 -12 -6 -21 -4 -11 -1 -16 10 -16 11 0 16 -9 16 -30 0
-22 -4 -28 -15 -24 -8 4 -15 1 -15 -5 0 -6 7 -11 15 -11 8 0 15 -8 15 -19 0
-11 -6 -18 -16 -17 -9 0 -19 -5 -21 -11 -3 -8 5 -13 20 -13 26 0 24 -15 53
277 4 41 9 51 20 46 8 -3 18 -18 21 -34 7 -36 31 -44 72 -23 42 21 51 12 55
-61 3 -65 15 -76 45 -46 19 19 31 18 31 -5 0 -6 -8 -14 -18 -16 -14 -4 -21
-18 -25 -52 -4 -26 -18 -61 -32 -80 -41 -54 -93 -205 -78 -230 3 -5 9 -36 13
-70 5 -33 13 -104 20 -156 12 -93 9 -206 -9 -320 -11 -78 -19 -90 -52 -90 -29
0 -40 15 -17 22 6 2 12 26 14 53 1 27 7 51 13 53 14 5 14 52 0 72 -8 12 -9 9
-5 -11 4 -20 -2 -33 -24 -56 -26 -27 -28 -32 -15 -43 8 -7 15 -21 15 -32 0
-18 -5 -19 -34 -14 -20 4 -37 2 -41 -4 -3 -5 -15 -10 -26 -10 -15 0 -19 7 -19
36 0 22 4 33 11 29 6 -4 13 1 15 12 3 10 15 23 27 28 17 8 21 17 19 43 -4 39
17 92 37 92 11 0 9 -5 -5 -21 -19 -21 -19 -21 6 -18 20 3 26 10 28 39 2 19 8
39 13 44 13 14 11 60 -3 75 -10 11 -10 14 0 18 17 7 15 43 -3 43 -9 0 -15 9
-15 25 0 18 -5 25 -20 25 -11 0 -20 6 -20 14 0 7 -6 19 -14 25 -11 10 -18 7
-31 -11 -15 -22 -16 -14 -13 131 3 136 1 155 -14 164 -20 13 -34 4 -22 -14 13
-22 12 -108 -2 -113 -6 -2 -15 -2 -19 2 -4 4 -12 7 -18 7 -7 0 -11 9 -10 20 4
34 34 426 39 510 3 44 9 136 14 205 4 69 11 177 14 240 4 63 10 124 13 135 3
11 7 47 8 80 2 61 11 95 25 95 4 0 10 -6 13 -14z m1067 -7 c0 -5 -4 -9 -10 -9
-5 0 -10 7 -10 16 0 8 5 12 10 9 6 -3 10 -10 10 -16z m40 -14 c0 -8 -4 -15
-10 -15 -5 0 -10 7 -10 15 0 8 5 15 10 15 6 0 10 -7 10 -15z m467 -17 c-3 -7
-5 -2 -5 12 0 14 2 19 5 13 2 -7 2 -19 0 -25z m393 1 c0 -5 -4 -9 -10 -9 -5 0
-10 7 -10 16 0 8 5 12 10 9 6 -3 10 -10 10 -16z m-930 -15 c0 -8 -4 -14 -10
-14 -5 0 -10 9 -10 21 0 11 5 17 10 14 6 -3 10 -13 10 -21z m507 -16 c-3 -8
-6 -5 -6 6 -1 11 2 17 5 13 3 -3 4 -12 1 -19z m-437 -13 c16 -19 3 -40 -16
-24 -15 13 -19 39 -5 39 5 0 14 -7 21 -15z m390 5 c0 -5 -5 -10 -11 -10 -5 0
-7 5 -4 10 3 6 8 10 11 10 2 0 4 -4 4 -10z m-283 -6 c-3 -3 -12 -4 -19 -1 -8
3 -5 6 6 6 11 1 17 -2 13 -5z m-449 -32 c4 -25 -13 -30 -22 -6 -9 25 -7 36 7
32 6 -3 13 -14 15 -26z m639 22 c-3 -3 -12 -4 -19 -1 -8 3 -5 6 6 6 11 1 17
-2 13 -5z m609 -31 c-10 -10 -19 5 -10 18 6 11 8 11 12 0 2 -7 1 -15 -2 -18z
m-776 -15 c0 -11 -7 -10 -31 2 -28 16 -23 32 6 18 14 -6 25 -15 25 -20z
m-1500 12 c0 -5 -9 -10 -20 -10 -11 0 -20 5 -20 10 0 6 9 10 20 10 11 0 20 -4
20 -10z m1700 1 c0 -13 -28 -22 -35 -11 -3 4 1 11 7 13 20 8 28 8 28 -2z m505
-1 c3 -5 -3 -10 -15 -10 -12 0 -18 5 -15 10 3 6 10 10 15 10 5 0 12 -4 15 -10z
m-855 -10 c0 -5 -4 -10 -10 -10 -5 0 -10 5 -10 10 0 6 5 10 10 10 6 0 10 -4
10 -10z m270 0 c-8 -5 -24 -10 -35 -10 -17 0 -17 2 -5 10 8 5 24 10 35 10 17
0 17 -2 5 -10z m-147 -24 c16 -12 16 -14 1 -20 -17 -6 -44 9 -44 25 0 13 22
10 43 -5z m167 -5 c0 -10 -42 -23 -49 -15 -7 6 20 24 37 24 6 0 12 -4 12 -9z
m45 -11 c-3 -5 -10 -10 -16 -10 -5 0 -9 5 -9 10 0 6 7 10 16 10 8 0 12 -4 9
-10z m-1702 -40 c-5 -19 -23 -29 -23 -12 0 7 20 32 26 32 1 0 0 -9 -3 -20z
m1537 -4 c0 -11 -19 -15 -25 -6 -3 5 1 10 9 10 9 0 16 -2 16 -4z m700 -6 c0
-5 -6 -10 -14 -10 -21 0 -30 -20 -17 -33 12 -12 15 -37 4 -37 -5 0 -14 12 -20
27 -11 22 -10 29 4 45 17 19 43 24 43 8z m-1093 -27 c4 -10 1 -19 -6 -21 -11
-4 -11 -6 0 -13 10 -6 11 -9 2 -9 -7 0 -13 -7 -13 -15 0 -10 10 -15 30 -15 17
0 30 -4 30 -10 0 -5 -5 -9 -12 -7 -6 1 -12 -9 -12 -23 0 -15 6 -24 13 -22 7 1
9 -2 5 -9 -3 -6 0 -16 7 -21 11 -7 11 -11 2 -15 -18 -7 -16 -23 2 -23 21 0 19
-18 -2 -23 -14 -4 -12 -5 5 -6 12 0 22 -5 22 -9 0 -5 -10 -14 -22 -20 -23 -10
-23 -11 5 -11 31 -1 38 -21 7 -21 -33 0 -23 -18 13 -23 29 -4 30 -5 10 -12
-28 -9 -31 -29 -4 -20 31 10 35 -14 4 -27 l-28 -11 30 -7 c17 -4 22 -8 13 -9
-25 -1 -23 -21 2 -21 11 0 20 -4 20 -10 0 -5 -11 -10 -24 -10 -32 0 -45 -20
-14 -21 13 -1 29 -1 36 0 6 1 12 -7 12 -17 0 -10 -7 -19 -15 -19 -8 0 -15 7
-15 16 0 14 -2 14 -10 1 -5 -8 -10 -11 -10 -6 0 6 -5 5 -12 -2 -21 -21 -26
-14 -38 56 -6 37 -22 111 -36 164 -13 53 -24 112 -24 131 0 29 -6 38 -35 56
-21 12 -35 28 -35 39 0 23 25 46 39 38 5 -4 16 0 23 8 17 20 27 20 35 -1z
m463 7 c0 -5 -4 -10 -9 -10 -6 0 -13 5 -16 10 -3 6 1 10 9 10 9 0 16 -4 16
-10z m-65 -80 c-6 -68 -5 -80 8 -80 9 0 17 10 19 22 2 12 9 23 17 26 10 3 11
-2 6 -19 -8 -25 -29 -50 -42 -49 -4 0 -8 -22 -8 -49 0 -26 -5 -54 -12 -62 -13
-16 -11 -108 2 -130 6 -8 13 -6 24 10 l17 22 -1 -28 c0 -15 -4 -28 -10 -28 -5
0 -17 -5 -25 -10 -12 -7 -10 -10 9 -15 37 -9 38 -30 2 -30 -17 0 -31 -4 -31
-10 0 -5 11 -10 25 -10 14 0 25 -4 25 -10 0 -5 -11 -10 -25 -10 -34 0 -32 -18
3 -23 26 -4 26 -4 5 -12 -26 -8 -31 -25 -8 -25 21 0 19 -30 -2 -31 -17 -1 -17
-2 0 -6 9 -2 17 -11 17 -19 0 -12 -4 -12 -20 -4 -16 9 -20 8 -20 -5 0 -8 6
-15 13 -16 10 0 10 -2 0 -6 -19 -7 -16 -23 5 -24 11 -1 8 -4 -8 -8 -17 -5 -27
-17 -32 -36 -4 -17 -5 44 -1 135 3 91 7 236 9 324 2 150 11 272 21 289 2 4 9
7 15 7 7 0 8 -27 3 -80z m55 40 c0 -5 -4 -10 -10 -10 -5 0 -10 5 -10 10 0 6 5
10 10 10 6 0 10 -4 10 -10z m210 -6 c0 -8 -5 -12 -10 -9 -6 4 -8 11 -5 16 9
14 15 11 15 -7z m60 -3 c0 -6 -4 -13 -10 -16 -5 -3 -10 1 -10 9 0 9 5 16 10
16 6 0 10 -4 10 -9z m-1855 -21 c-3 -5 -15 -10 -26 -10 -10 0 -19 5 -19 10 0
6 12 10 26 10 14 0 23 -4 19 -10z m2217 -19 c-11 -7 -11 -9 2 -14 9 -4 16 -17
16 -30 0 -16 9 -28 25 -35 20 -9 25 -19 25 -47 0 -24 -5 -35 -15 -35 -8 0 -15
-4 -15 -10 0 -5 8 -10 18 -10 12 0 14 -2 4 -8 -7 -5 -10 -15 -7 -24 5 -12 -2
-15 -31 -14 -36 2 -37 3 -37 37 0 20 3 41 7 47 3 6 2 39 -4 74 -13 81 -13 78
8 78 13 0 14 -2 4 -9z m-2202 -25 c0 -7 -12 -21 -26 -31 -19 -12 -23 -20 -15
-28 16 -16 14 -44 -4 -51 -12 -4 -15 5 -15 47 0 29 5 58 12 65 16 16 48 15 48
-2z m1838 -24 c22 -14 2 -42 -29 -42 -16 0 -29 -4 -29 -10 0 -5 7 -10 15 -10
8 0 15 -6 15 -14 0 -8 6 -17 13 -19 7 -3 4 -6 -6 -6 -13 -1 -17 -7 -15 -23 2
-15 9 -22 20 -20 9 1 19 -2 23 -8 4 -6 -4 -10 -19 -10 -14 0 -26 -4 -26 -10 0
-5 14 -10 30 -10 17 0 30 -5 30 -11 0 -7 -11 -8 -30 -4 -19 4 -30 3 -30 -4 0
-6 7 -11 16 -11 14 0 15 -2 3 -16 -13 -15 -11 -17 19 -12 29 4 32 2 32 -22 0
-24 -3 -27 -25 -22 -15 2 -25 0 -25 -7 0 -6 11 -11 25 -11 14 0 25 -5 25 -11
0 -7 -10 -9 -25 -7 -14 3 -28 2 -31 -3 -2 -4 11 -11 31 -15 19 -3 35 -10 35
-15 0 -5 -11 -4 -25 1 -14 5 -25 7 -25 5 0 -3 0 -8 0 -12 0 -5 5 -8 11 -8 12
0 27 -28 28 -52 1 -7 -12 -11 -29 -11 -24 1 -31 6 -36 27 -3 14 -9 42 -14 61
-9 32 -31 170 -45 282 -3 27 -3 52 0 58 7 12 75 13 93 2z m-283 -104 c-10 -76
-23 -91 -22 -27 0 48 10 79 24 79 3 0 2 -24 -2 -52z m-1287 -9 c-2 -6 -8 -10
-13 -10 -5 0 -11 4 -13 10 -2 6 4 11 13 11 9 0 15 -5 13 -11z m562 1 c0 -5 -4
-10 -9 -10 -6 0 -13 5 -16 10 -3 6 1 10 9 10 9 0 16 -4 16 -10z m-860 -10 c0
-5 -5 -10 -11 -10 -5 0 -7 5 -4 10 3 6 8 10 11 10 2 0 4 -4 4 -10z m806 -10
c8 0 14 -4 14 -9 0 -9 -80 -21 -89 -14 -9 7 34 32 47 28 8 -3 20 -5 28 -5z
m1394 -56 c0 -21 -4 -33 -10 -29 -6 4 -8 19 -6 33 5 33 5 32 11 32 3 0 5 -16
5 -36z m-2215 6 c-3 -4 1 -11 7 -13 10 -4 9 -8 -2 -16 -13 -10 -13 -13 3 -22
23 -14 25 -89 1 -89 -10 0 -14 -6 -10 -17 2 -10 8 -120 12 -246 5 -172 3 -231
-6 -242 -6 -8 -14 -43 -17 -77 -3 -46 -2 -59 6 -48 8 11 11 -2 11 -51 0 -53 3
-68 16 -73 16 -6 11 -21 -7 -21 -5 0 -9 -3 -9 -7 0 -5 0 -12 0 -17 0 -5 8 -12
18 -14 13 -4 11 -5 -5 -6 -14 -1 -23 -7 -23 -17 0 -10 6 -14 15 -11 8 4 17 2
21 -4 3 -6 -3 -13 -15 -16 -27 -7 -27 -17 2 -36 21 -15 21 -16 3 -30 -13 -10
-15 -16 -8 -21 19 -11 14 -33 -8 -39 -22 -6 -28 8 -7 16 9 4 9 7 0 18 -18 18
-28 3 -26 -39 3 -45 6 -63 16 -79 4 -6 1 -15 -7 -20 -7 -4 -16 -17 -19 -28 -9
-38 -7 141 5 355 6 118 12 298 12 400 2 394 6 531 16 525 6 -4 8 -10 5 -15z
m865 11 c0 -8 -98 -51 -115 -51 -3 0 -5 6 -5 14 0 13 30 27 85 39 33 8 35 7
35 -2z m1308 -13 c-6 -18 -28 -21 -28 -4 0 9 7 16 16 16 9 0 14 -5 12 -12z
m-1561 -53 c-27 -24 -67 -34 -67 -16 0 15 44 40 70 40 l25 0 -28 -24z m209 10
c-19 -15 -46 -20 -46 -10 0 6 40 24 55 24 6 0 1 -6 -9 -14z m764 5 c0 -5 -4
-10 -10 -10 -5 0 -10 5 -10 10 0 6 5 10 10 10 6 0 10 -4 10 -10z m-879 -20
c-13 -11 -33 -20 -45 -20 -21 1 -21 1 3 20 13 11 33 20 45 20 21 -1 21 -1 -3
-20z m-191 -9 c0 -14 -47 -41 -70 -41 -28 0 -16 17 23 34 39 17 47 19 47 7z
m350 4 c0 -4 -7 -20 -16 -36 -14 -29 -14 -32 6 -49 20 -17 21 -25 15 -112 -3
-51 -9 -96 -14 -101 -4 -4 -29 -2 -54 5 -51 13 -67 7 -50 -22 9 -14 9 -19 0
-22 -23 -7 -177 4 -177 12 0 13 109 60 125 53 11 -4 17 4 21 26 4 17 11 31 16
31 15 0 58 108 58 147 0 40 23 73 52 73 10 0 18 -2 18 -5z m-246 -26 c-13 -22
-88 -69 -108 -69 -20 1 -20 2 4 21 66 53 124 80 104 48z m146 5 c0 -12 -66
-64 -82 -64 -27 0 -21 12 20 42 35 25 62 35 62 22z m-271 -40 c-12 -15 -61
-44 -75 -44 -14 0 21 32 50 45 41 18 41 18 25 -1z m-89 -4 c0 -5 -4 -10 -9
-10 -5 0 -18 -3 -28 -6 -16 -5 -16 -4 1 10 23 18 36 20 36 6z m225 -20 c6 -10
-30 -37 -59 -42 -30 -5 -29 16 1 34 32 20 49 22 58 8z m132 4 c-3 -3 -12 -4
-19 -1 -8 3 -5 6 6 6 11 1 17 -2 13 -5z m339 -21 c-7 -7 -26 7 -26 19 0 6 6 6
15 -2 9 -7 13 -15 11 -17z m87 -25 c8 -55 -8 -54 -19 0 -4 19 -2 32 4 32 5 0
12 -15 15 -32z m-793 13 c0 -11 -50 -24 -58 -16 -8 8 19 25 41 25 9 0 17 -4
17 -9z m80 -1 c0 -5 -4 -10 -10 -10 -5 0 -10 5 -10 10 0 6 5 10 10 10 6 0 10
-4 10 -10z m-65 -30 c-19 -21 -35 -26 -35 -12 0 5 10 14 23 20 31 15 32 14 12
-8z m110 10 c6 -10 -67 -49 -92 -50 -26 0 -12 17 30 37 49 25 54 26 62 13z
m1412 -57 c-2 -16 -4 -5 -4 22 0 28 2 40 4 28 2 -13 2 -35 0 -50z m-630 24 c3
-4 1 -13 -5 -20 -7 -8 -9 -17 -5 -20 3 -4 1 -7 -5 -7 -7 0 -12 -9 -12 -20 0
-14 7 -20 23 -21 16 -1 18 -2 5 -6 -23 -6 -24 -25 -2 -21 10 2 19 -3 21 -9 3
-8 -4 -13 -16 -13 -11 0 -23 -4 -26 -10 -3 -5 1 -10 10 -10 9 0 13 -4 10 -10
-3 -6 4 -10 16 -10 22 0 22 0 3 -15 -19 -14 -18 -14 4 -15 12 0 22 -4 22 -10
0 -5 -7 -10 -15 -10 -8 0 -15 -4 -15 -9 0 -5 9 -7 20 -4 27 7 25 -11 -2 -25
l-23 -11 23 0 c26 -1 30 -21 5 -21 -14 0 -15 -2 -5 -9 8 -4 13 -12 13 -17 -1
-5 6 -17 14 -27 18 -20 20 -36 3 -19 -19 19 -28 14 -26 -13 2 -20 6 -24 23
-19 19 6 19 5 2 -8 -26 -19 -14 -71 14 -63 11 4 19 2 19 -5 0 -7 -9 -14 -19
-17 -17 -4 -18 -9 -9 -33 5 -17 19 -31 31 -33 l22 -4 -22 -8 c-13 -4 -23 -11
-23 -16 0 -5 10 -9 23 -9 20 -1 21 -2 5 -14 -10 -7 -18 -16 -18 -20 0 -3 8 -6
18 -6 10 0 13 -3 7 -8 -6 -4 -10 -13 -9 -19 1 -7 2 -22 3 -34 1 -14 6 -19 16
-15 8 3 15 3 15 -1 0 -7 -53 -53 -57 -50 -1 2 -11 61 -22 132 -11 72 -25 150
-31 175 -6 25 -16 70 -21 100 -6 30 -14 64 -19 75 -5 11 -19 63 -30 115 -12
52 -25 114 -30 137 -6 23 -10 44 -10 46 0 6 79 -9 87 -16z m-174 -12 c-7 -21
-13 -19 -13 6 0 11 4 18 10 14 5 -3 7 -12 3 -20z m-486 -7 c-3 -8 -6 -5 -6 6
-1 11 2 17 5 13 3 -3 4 -12 1 -19z m-56 -48 l-10 -25 0 27 c-1 14 2 35 6 45 7
17 8 17 11 -2 1 -12 -2 -32 -7 -45z m1239 44 c0 -14 -3 -14 -15 -4 -8 7 -15
14 -15 16 0 2 7 4 15 4 8 0 15 -7 15 -16z m-1422 -11 c2 -8 -5 -13 -17 -13
-12 0 -21 6 -21 16 0 18 31 15 38 -3z m993 -40 c-10 -17 -10 -16 -11 3 0 23
13 41 18 25 2 -6 -1 -18 -7 -28z m379 23 c0 -3 -4 -8 -10 -11 -5 -3 -10 -1
-10 4 0 6 5 11 10 11 6 0 10 -2 10 -4z m60 -6 c0 -5 -2 -10 -4 -10 -3 0 -8 5
-11 10 -3 6 -1 10 4 10 6 0 11 -4 11 -10z m68 -14 c15 5 15 4 -1 -9 -12 -10
-15 -17 -7 -22 6 -4 20 1 31 11 10 9 19 12 19 7 0 -6 3 -25 7 -43 4 -23 3 -31
-5 -26 -20 12 -24 -15 -11 -79 10 -54 10 -67 -2 -81 -12 -16 -12 -17 2 -12 10
4 16 1 16 -8 0 -8 -4 -14 -9 -14 -4 0 -8 -4 -8 -10 0 -5 6 -10 14 -10 21 0 27
43 15 100 -6 28 -9 54 -6 56 8 9 29 -103 25 -138 -2 -28 -7 -32 -25 -30 -13 2
-23 -2 -23 -7 0 -6 15 -11 33 -12 29 -1 30 -2 7 -8 -15 -4 -26 -15 -28 -29 -3
-18 1 -22 26 -22 26 0 30 -4 36 -37 8 -52 7 -100 -2 -87 -4 6 -17 14 -29 18
-28 9 -30 26 -3 26 11 0 20 4 20 8 0 5 -13 9 -30 9 -21 0 -30 -5 -30 -16 0
-26 25 -102 32 -96 3 3 19 3 34 -1 l29 -8 -25 -6 c-21 -5 -25 -12 -25 -45 0
-24 -5 -40 -14 -43 -9 -3 -11 0 -7 7 4 7 3 17 -2 24 -5 7 -15 55 -21 107 -7
52 -19 142 -27 200 -8 58 -18 146 -24 195 -5 50 -12 106 -15 125 -4 27 -3 31
5 18 6 -10 18 -15 28 -12z m-1348 -23 c0 -7 -8 -17 -17 -20 -10 -4 -21 -11
-25 -17 -15 -22 -15 1 -1 37 12 30 18 35 29 26 8 -6 14 -18 14 -26z m-280 1
c0 -8 -4 -12 -10 -9 -5 3 -10 10 -10 16 0 5 5 9 10 9 6 0 10 -7 10 -16z m1290
-104 c0 -5 -4 -10 -10 -10 -5 0 -10 5 -10 10 0 6 5 10 10 10 6 0 10 -4 10 -10z
m530 -50 c0 -5 -4 -10 -10 -10 -5 0 -10 5 -10 10 0 6 5 10 10 10 6 0 10 -4 10
-10z m274 -16 c11 -29 7 -76 -6 -71 -7 2 -12 11 -12 20 1 9 -2 14 -7 11 -10
-6 -11 2 -3 34 7 26 19 29 28 6z m-836 -32 c-10 -2 -15 -9 -11 -18 3 -8 -1
-14 -11 -14 -18 0 -21 -31 -5 -47 12 -12 4 -33 -13 -33 -7 0 -9 19 -5 55 7 67
11 75 40 67 17 -5 18 -7 5 -10z m-1281 -104 c-3 -8 -6 -5 -6 6 -1 11 2 17 5
13 3 -3 4 -12 1 -19z m1263 -72 c0 -10 8 -25 18 -32 16 -12 16 -13 0 -19 -10
-4 -18 -12 -18 -17 0 -6 8 -17 18 -24 16 -13 16 -13 0 -14 -22 0 -24 -20 -3
-20 8 0 15 -4 15 -10 0 -5 -11 -10 -25 -10 -14 0 -25 -2 -25 -4 0 -19 16 -36
34 -37 16 -1 17 -2 4 -6 -10 -2 -18 -11 -18 -19 0 -10 -8 -14 -22 -12 -21 3
-21 6 -19 133 1 71 5 133 8 138 7 12 32 -24 33 -47z m480 34 c0 -5 -4 -10 -9
-10 -6 0 -13 5 -16 10 -3 6 1 10 9 10 9 0 16 -4 16 -10z m-1784 -76 c8 3 14
-1 14 -10 0 -10 -6 -14 -15 -10 -21 8 -19 -21 2 -33 14 -7 15 -12 4 -25 -7 -8
-12 -32 -11 -53 3 -57 1 -63 -15 -63 -10 0 -15 -10 -15 -29 0 -16 -6 -31 -15
-35 -12 -4 -15 5 -15 49 0 29 5 57 10 60 6 3 10 44 10 91 0 79 1 84 16 69 9
-9 23 -14 30 -11z m1794 -96 c0 -15 -28 -8 -34 8 -11 28 -6 34 14 17 11 -10
20 -21 20 -25z m365 -31 c-4 -13 3 -47 15 -77 12 -31 19 -64 15 -77 -11 -45 7
-58 81 -58 l67 0 36 69 c20 38 41 67 46 65 22 -8 -4 -178 -30 -199 -8 -6 -11
-18 -8 -26 7 -20 -16 -18 -59 6 -48 26 -149 41 -217 33 -40 -4 -52 -3 -47 5 4
7 14 12 22 12 16 0 19 36 4 45 -7 4 -8 29 -4 68 5 46 14 71 35 98 16 20 29 42
29 48 0 6 5 11 10 11 6 0 8 -10 5 -23z m-55 -12 c0 -3 -10 -19 -21 -34 -12
-16 -19 -33 -15 -39 11 -19 -30 -110 -67 -144 -20 -20 -37 -40 -37 -46 0 -6
-9 -13 -19 -17 -28 -8 -33 -33 -17 -80 9 -26 11 -47 5 -63 -5 -13 -9 -94 -9
-180 0 -125 -3 -154 -12 -144 -9 9 -14 57 -15 154 -2 126 -10 174 -28 156 -3
-3 -7 -63 -8 -134 -2 -117 0 -133 20 -171 12 -22 27 -43 32 -45 5 -1 11 -14
13 -27 2 -21 -2 -26 -30 -32 -47 -10 -60 -24 -44 -49 7 -11 9 -20 5 -20 -24 0
-116 35 -199 75 -52 25 -97 45 -99 45 -2 0 -25 13 -52 29 -26 16 -69 40 -95
55 l-47 26 48 68 c27 37 52 83 56 102 9 40 39 99 90 175 11 17 27 43 35 59 35
68 231 229 310 254 65 20 200 38 200 27z m-2020 -15 c0 -5 -5 -10 -11 -10 -5
0 -7 5 -4 10 3 6 8 10 11 10 2 0 4 -4 4 -10z m1150 -11 c0 -5 -4 -9 -10 -9 -5
0 -10 7 -10 16 0 8 5 12 10 9 6 -3 10 -10 10 -16z m-1125 -32 c4 5 5 3 1 -4
-3 -7 2 -14 14 -18 11 -3 20 -11 20 -17 0 -5 -7 -7 -16 -4 -9 3 -19 6 -23 6
-15 0 -51 41 -45 51 4 6 13 4 23 -5 10 -9 21 -13 26 -9z m1710 13 c-3 -5 -10
-10 -16 -10 -5 0 -9 5 -9 10 0 6 7 10 16 10 8 0 12 -4 9 -10z m-1160 -40 c18
-20 18 -21 -1 -34 -23 -17 -24 -16 -29 23 -5 36 4 39 30 11z m649 14 c12 -5 9
-11 -16 -28 -47 -32 -45 -42 8 -42 28 1 49 -4 51 -11 3 -8 -6 -10 -31 -6 -22
3 -42 1 -51 -7 -20 -17 -10 -30 26 -30 16 0 29 -4 29 -10 0 -5 -9 -10 -19 -10
-10 0 -29 -9 -42 -20 l-24 -19 33 -1 c20 0 31 -4 27 -10 -8 -13 -65 -13 -65 1
0 17 -28 40 -35 29 -10 -17 -25 -11 -25 9 0 11 -9 21 -22 25 -21 5 -19 10 37
64 70 69 87 78 119 66z m-1671 -40 c-5 -13 -1 -15 15 -10 18 6 21 4 15 -10 -5
-13 -2 -15 15 -9 12 3 22 2 22 -3 0 -13 -89 -54 -100 -47 -15 9 -12 44 7 75
17 30 37 32 26 4z m1735 7 c3 -8 -1 -12 -9 -9 -7 2 -15 10 -17 17 -3 8 1 12 9
9 7 -2 15 -10 17 -17z m-898 0 c0 -6 -4 -13 -10 -16 -5 -3 -10 1 -10 9 0 9 5
16 10 16 6 0 10 -4 10 -9z m1140 -33 c0 -4 9 -8 19 -8 11 0 22 -4 26 -9 9 -15
-15 -24 -30 -11 -10 8 -19 8 -34 1 -16 -9 -22 -8 -31 8 -14 27 -14 28 20 28
17 0 30 -4 30 -9z m-1640 -8 c0 -5 -9 -10 -21 -10 -11 0 -17 5 -14 10 3 6 13
10 21 10 8 0 14 -4 14 -10z m-60 -10 c0 -5 -5 -10 -11 -10 -5 0 -7 5 -4 10 3
6 8 10 11 10 2 0 4 -4 4 -10z m190 -5 c0 -8 -2 -15 -4 -15 -2 0 -6 7 -10 15
-3 8 -1 15 4 15 6 0 10 -7 10 -15z m613 -43 l21 -22 -25 -17 c-29 -21 -69 -63
-69 -73 0 -4 7 -13 15 -20 12 -10 18 -10 30 0 13 11 18 10 30 -6 11 -15 18
-17 32 -8 10 6 19 21 21 33 4 25 23 36 75 44 l37 6 -6 -72 c-4 -40 -10 -76
-15 -82 -5 -5 -37 -20 -72 -34 -77 -31 -166 -34 -197 -6 -21 19 -27 50 -10 60
6 3 10 16 10 28 1 37 59 191 77 205 15 10 18 10 22 0 2 -7 13 -23 24 -36z
m-993 28 c0 -5 -4 -10 -10 -10 -5 0 -10 5 -10 10 0 6 5 10 10 10 6 0 10 -4 10
-10z m244 -10 c-15 -15 -74 -24 -74 -12 0 12 21 19 60 21 16 1 21 -2 14 -9z
m-403 -14 c-12 -15 3 -26 37 -26 28 -1 65 -38 58 -57 -6 -15 -10 -13 -25 10
-16 25 -19 26 -31 12 -11 -13 -15 -13 -21 -3 -6 10 -11 9 -21 -5 -7 -10 -27
-19 -43 -20 -29 -2 -30 0 -31 41 -2 46 12 60 65 61 19 1 21 -2 12 -13z m129 4
c0 -5 -5 -10 -11 -10 -6 0 -9 -7 -5 -15 6 -18 -5 -20 -22 -3 -9 9 -7 14 6 24
21 16 32 17 32 4z m1410 -3 c0 -7 -9 -18 -20 -25 -16 -10 -20 -20 -16 -45 3
-18 8 -59 10 -93 5 -57 4 -62 -19 -72 -14 -7 -25 -18 -25 -27 0 -20 -26 -19
-34 1 -3 9 -6 27 -6 40 0 15 -6 24 -15 24 -12 0 -15 -13 -15 -55 0 -32 -4 -55
-11 -55 -6 0 -10 24 -9 63 2 82 2 81 -15 67 -10 -8 -16 -34 -17 -79 l-2 -66
-3 60 c-6 86 14 188 40 213 53 48 157 81 157 49z m-1386 -50 c4 -55 -2 -64
-22 -35 -12 16 -12 23 -4 26 7 2 12 18 12 35 0 45 10 27 14 -26z m146 43 c0
-5 -5 -10 -11 -10 -5 0 -7 5 -4 10 3 6 8 10 11 10 2 0 4 -4 4 -10z m105 -20
c-3 -5 -18 -10 -33 -9 -24 0 -25 1 -7 9 28 12 47 12 40 0z m1605 -8 c0 -19
-33 -52 -53 -52 -12 0 -38 -9 -58 -19 -47 -25 -68 -13 -34 19 14 13 23 30 21
36 -5 12 6 15 92 21 17 2 32 -1 32 -5z m-453 -24 c-3 -8 -6 -5 -6 6 -1 11 2
17 5 13 3 -3 4 -12 1 -19z m-1182 -8 c3 -5 -3 -10 -15 -10 -12 0 -18 5 -15 10
3 6 10 10 15 10 5 0 12 -4 15 -10z m-98 -42 c-3 -7 -5 -2 -5 12 0 14 2 19 5
13 2 -7 2 -19 0 -25z m109 -20 c-4 -49 9 -82 30 -74 8 3 14 -1 14 -10 0 -11
-6 -13 -20 -9 -15 5 -22 1 -29 -17 -11 -30 -6 -38 25 -38 14 0 22 -4 19 -10
-3 -5 -15 -10 -26 -10 -14 0 -19 -7 -19 -30 0 -17 5 -30 13 -30 8 0 9 -3 1 -8
-15 -10 -34 -47 -34 -66 0 -10 10 -16 28 -17 20 -1 22 -2 7 -6 -39 -9 -40 -23
-1 -23 24 0 35 -4 31 -11 -4 -5 -17 -9 -28 -7 -12 1 -24 -2 -27 -7 -3 -6 11
-12 30 -13 l35 -4 -35 -16 -35 -16 33 -4 c17 -2 32 -8 32 -14 0 -6 -10 -8 -25
-4 -14 4 -25 2 -25 -4 0 -5 8 -10 17 -10 13 0 14 -3 5 -12 -7 -7 -12 -22 -12
-35 0 -26 0 -26 -35 -13 -19 7 -25 15 -21 28 3 9 8 85 10 167 8 266 19 365 42
365 2 0 2 -19 0 -42z m2324 29 c54 -14 69 -21 75 -34 3 -9 3 -18 0 -21 -3 -3
-5 0 -5 6 0 6 -13 13 -30 17 -16 4 -32 11 -35 16 -4 5 -50 9 -103 9 -70 0 -93
3 -82 11 13 9 138 6 180 -4z m-2672 -16 c2 -7 -5 -15 -16 -18 -26 -6 -34 -36
-15 -63 l14 -20 19 22 18 23 7 -25 c3 -14 5 -53 3 -85 l-3 -60 -40 -7 c-27 -4
-50 -2 -71 8 l-31 14 5 67 c4 68 11 89 19 65 4 -10 8 -10 19 -1 21 17 17 27
-11 31 -27 3 -35 24 -9 22 8 -1 27 9 41 22 27 25 44 27 51 5z m2437 -2 c-4 -5
-13 -9 -22 -9 -13 0 -13 3 -3 15 13 15 35 11 25 -6z m-765 1 c-13 -9 -13 -11
0 -20 10 -6 11 -10 3 -10 -20 0 -15 -20 5 -21 12 0 10 -3 -7 -10 -45 -18 -54
-3 -35 59 2 6 14 12 26 12 19 0 20 -2 8 -10z m-1280 -20 c0 -5 -4 -10 -10 -10
-5 0 -10 5 -10 10 0 6 5 10 10 10 6 0 10 -4 10 -10z m2301 -13 c56 -28 79 -54
79 -89 0 -17 7 -40 17 -50 14 -16 14 -22 3 -43 -7 -14 -22 -25 -32 -25 -11 0
-18 -7 -18 -19 0 -10 -6 -24 -13 -30 -8 -6 -19 -30 -26 -53 -7 -24 -17 -51
-22 -60 -5 -10 -9 -31 -9 -47 l0 -30 -46 20 c-35 16 -61 20 -117 17 -40 -2
-80 -8 -90 -12 -17 -8 -18 2 -15 200 l3 209 35 18 c47 24 197 20 251 -6z
m-816 3 c6 -10 -62 -43 -79 -37 -6 2 7 13 29 24 22 12 41 21 42 22 1 1 5 -3 8
-9z m-281 -32 c3 -17 6 -55 6 -85 0 -48 -2 -54 -15 -43 -8 7 -15 27 -15 45 0
22 -7 37 -22 47 -29 20 -19 62 16 64 19 1 25 -4 30 -28z m-1603 -11 c-8 -8
-11 -7 -11 4 0 20 13 34 18 19 3 -7 -1 -17 -7 -23z m116 -34 c-3 -10 -5 -4 -5
12 0 17 2 24 5 18 2 -7 2 -21 0 -30z m133 29 c0 -4 -15 -12 -32 -17 -18 -6
-31 -14 -28 -20 3 -5 10 -8 15 -6 34 13 55 12 55 -2 0 -9 -13 -17 -35 -21 -19
-4 -35 -11 -35 -17 0 -6 14 -7 36 -3 29 5 36 4 32 -7 -3 -8 -13 -15 -24 -17
-39 -6 -49 -13 -36 -21 17 -10 -24 -90 -53 -103 -21 -9 -32 -48 -14 -48 5 0 9
-6 9 -12 -1 -21 -60 54 -60 76 0 10 16 56 36 102 20 47 32 89 28 96 -4 7 -4
10 0 6 4 -3 22 0 39 7 36 16 67 19 67 7z m1510 -101 c0 -15 4 -31 9 -36 5 -6
12 -28 16 -50 5 -35 5 -38 -8 -23 -12 16 -16 16 -36 2 -24 -17 -42 -11 -24 7
6 6 9 18 6 26 -3 8 0 19 8 25 11 7 11 11 2 15 -18 7 -16 23 2 23 19 0 19 20 0
47 -8 12 -12 29 -9 38 6 14 10 10 20 -15 8 -18 14 -44 14 -59z m630 69 c0 -21
-15 -27 -25 -10 -7 12 2 30 16 30 5 0 9 -9 9 -20z m-537 -2 c-4 -7 -7 -26 -6
-43 l2 -30 -8 30 c-4 17 -3 36 2 43 12 16 20 16 10 0z m-353 -12 c0 -3 -4 -8
-10 -11 -5 -3 -10 -1 -10 4 0 6 5 11 10 11 6 0 10 -2 10 -4z m40 -6 c0 -20
-39 -49 -59 -43 -19 5 -18 7 12 28 36 26 47 30 47 15z m112 -45 c-3 -18 0 -25
11 -25 9 0 18 10 20 23 4 19 4 19 6 -5 1 -19 -5 -29 -21 -34 l-21 -6 24 -14
24 -13 -22 -1 c-26 0 -31 -18 -8 -26 12 -5 13 -9 3 -21 -9 -11 -9 -16 1 -22
10 -7 10 -12 0 -29 -10 -17 -10 -23 0 -36 12 -14 10 -16 -10 -17 l-24 0 23
-11 c27 -14 29 -28 2 -28 -28 0 -25 -20 3 -21 21 -1 21 -1 -3 -9 -24 -8 -24
-8 -3 -9 22 -1 22 -3 22 -146 -1 -138 -2 -146 -22 -157 -12 -7 -25 -11 -29
-10 -3 1 -8 -19 -10 -43 -3 -43 -2 -45 24 -45 16 0 28 -4 28 -10 0 -5 -9 -10
-20 -10 -27 0 -25 -18 3 -23 l22 -4 -22 -8 c-26 -8 -31 -25 -8 -25 8 0 15 -4
15 -10 0 -5 -7 -10 -15 -10 -17 0 -20 -16 -5 -25 16 -10 12 -28 -5 -21 -8 3
-15 1 -15 -4 0 -6 7 -10 15 -10 8 0 15 -4 15 -10 0 -5 -6 -10 -12 -10 -9 0 -8
-4 2 -10 13 -9 13 -11 0 -20 -13 -8 -12 -10 3 -10 9 0 17 -4 17 -10 0 -5 -7
-10 -15 -10 -8 0 -15 -5 -15 -11 0 -5 5 -7 10 -4 6 3 10 1 10 -4 0 -6 -7 -11
-15 -11 -9 0 -15 -9 -15 -24 0 -13 7 -29 15 -36 17 -14 20 -40 5 -40 -6 0 -13
7 -16 15 -4 8 -12 15 -19 15 -10 0 -12 47 -8 218 3 201 10 427 12 427 1 0 3
36 6 80 3 44 7 100 10 125 3 25 7 84 8 133 1 57 5 87 13 87 7 0 9 -10 6 -25z
m-1557 -21 c-8 -16 -20 -42 -25 -57 -10 -28 -30 -29 -30 -1 0 16 60 97 67 90
2 -2 -3 -16 -12 -32z m1431 -50 c24 -26 44 -50 44 -55 0 -14 18 -11 24 4 3 6
4 -14 3 -46 -1 -31 -6 -58 -11 -60 -5 -1 -21 26 -35 60 -27 65 -91 143 -117
143 -8 0 -13 4 -9 10 10 17 54 -8 101 -56z m-1060 42 c10 -8 16 -18 12 -22 -4
-4 -14 -2 -21 4 -8 7 -17 9 -20 5 -4 -3 -7 1 -7 10 0 21 10 21 36 3z m1115
-18 c21 -21 27 -34 19 -42 -7 -7 -21 0 -45 24 -19 19 -35 38 -35 42 0 19 34 6
61 -24z m-437 -5 c30 -87 39 -120 57 -203 12 -52 24 -106 26 -120 3 -14 22
-46 41 -72 35 -46 54 -106 29 -91 -8 5 -8 2 1 -9 16 -20 6 -44 -21 -52 -39
-10 -48 -6 -63 30 -8 19 -20 34 -27 31 -6 -2 -23 -26 -37 -53 l-25 -49 -3 48
c-5 75 -22 62 -52 -40 -9 -31 -19 -42 -37 -46 -13 -2 -26 -1 -28 3 -3 4 5 34
16 66 54 155 111 475 96 549 -5 29 17 35 27 8z m-590 -9 c22 -9 21 -17 -20
-113 -67 -154 -102 -202 -140 -187 -18 8 -18 9 4 17 21 8 22 13 23 146 1 76 3
130 6 120 3 -10 9 -14 16 -10 15 10 69 30 84 32 6 0 18 -2 27 -5z m-620 -10
c16 -6 23 -54 8 -54 -12 0 -52 39 -52 50 0 11 21 13 44 4z m1826 -54 c0 -5 -5
-10 -11 -10 -5 0 -7 5 -4 10 3 6 8 10 11 10 2 0 4 -4 4 -10z m-1839 -17 c13
-16 12 -17 -3 -4 -10 7 -18 15 -18 17 0 8 8 3 21 -13z m273 2 c-4 -9 0 -15 10
-15 20 0 21 -19 1 -26 -23 -9 -18 -24 8 -25 l22 0 -22 -9 c-28 -12 -30 -30 -3
-30 11 0 20 -4 20 -10 0 -5 -7 -10 -15 -10 -9 0 -12 -6 -9 -15 5 -11 0 -14
-17 -12 -23 4 -24 8 -24 73 0 49 4 72 15 81 19 16 20 16 14 -2z m-134 -17 c-1
-17 -39 -62 -46 -55 -7 7 27 67 38 67 4 0 8 -6 8 -12z m1720 8 c0 -2 -7 -6
-15 -10 -8 -3 -15 -1 -15 4 0 6 7 10 15 10 8 0 15 -2 15 -4z m-1780 -16 c0 -5
-7 -10 -16 -10 -8 0 -12 5 -9 10 3 6 10 10 16 10 5 0 9 -4 9 -10z m95 -47 l18
-28 -21 18 c-20 18 -20 18 -28 -5 -4 -13 -7 -31 -5 -40 1 -11 -12 -24 -41 -37
-24 -11 -59 -34 -78 -51 -28 -24 -36 -27 -38 -14 -2 8 3 21 11 27 23 19 30 48
10 45 -35 -6 -21 19 18 32 23 8 43 20 46 27 7 18 23 16 23 -2 0 -15 20 -22 20
-7 0 6 41 61 46 62 1 0 10 -12 19 -27z m-150 6 c8 -12 6 -15 -22 -23 -18 -6
-20 -4 -16 14 6 21 28 27 38 9z m1535 -10 c0 -5 -4 -9 -10 -9 -5 0 -10 7 -10
16 0 8 5 12 10 9 6 -3 10 -10 10 -16z m276 2 c95 -58 397 -203 487 -234 21 -8
22 -25 1 -65 -8 -17 -16 -65 -18 -107 -4 -91 -14 -106 -52 -76 -15 11 -32 21
-38 21 -6 0 -35 11 -64 25 -29 13 -50 21 -47 16 6 -11 82 -51 96 -51 6 0 27
-14 46 -30 39 -34 42 -35 68 -16 16 11 19 27 20 94 0 89 8 107 31 73 9 -12 22
-20 30 -17 28 11 124 -108 124 -152 0 -5 7 -15 15 -22 8 -7 15 -21 15 -31 0
-14 -7 -19 -30 -19 -16 0 -30 -4 -30 -9 0 -13 27 -21 45 -15 10 4 15 0 15 -11
0 -13 6 -16 21 -12 45 12 81 -73 43 -104 -21 -17 -46 -1 -59 38 -9 27 -14 29
-55 29 l-45 -1 -1 -38 c-2 -48 -5 -51 -48 -43 -31 6 -37 12 -46 46 -18 65 -84
66 -92 2 -3 -25 -6 -27 -50 -26 -59 0 -88 24 -88 69 0 45 -49 63 -75 29 -15
-21 -60 -12 -100 20 -26 21 -28 26 -18 48 17 38 2 52 -54 49 -13 0 -23 -6 -23
-12 0 -21 -33 -38 -52 -28 -16 8 -18 25 -18 121 l0 111 48 -44 c71 -66 161
-133 217 -161 117 -59 347 -112 398 -92 34 12 16 19 -56 20 -117 2 -320 74
-427 153 -19 14 -63 52 -98 83 -35 32 -67 56 -73 53 -5 -4 -9 18 -9 51 l0 57
23 -20 c12 -11 57 -43 99 -71 42 -29 79 -56 83 -62 9 -14 86 -53 92 -46 3 2
-12 16 -34 29 -21 13 -56 39 -79 58 -22 19 -66 49 -96 68 -86 54 -99 93 -89
259 1 17 11 15 47 -7z m1054 -46 c0 -8 -4 -17 -10 -20 -6 -4 -10 5 -10 20 0
15 4 24 10 20 6 -3 10 -12 10 -20z m-2537 -47 c6 -4 8 -10 5 -13 -13 -14 -28
7 -27 38 2 28 2 29 6 7 3 -14 10 -28 16 -32z m1210 -102 c18 -17 44 -37 60
-45 34 -18 35 -44 1 -60 -36 -16 -57 1 -43 36 12 31 5 40 -16 23 -25 -21 -19
-69 10 -82 18 -8 24 -17 19 -30 -8 -27 4 -56 27 -63 18 -6 20 -15 18 -86 l-2
-79 -22 25 c-13 13 -26 43 -30 67 -4 24 -18 70 -31 103 -34 88 -43 139 -44
241 0 104 13 137 18 43 3 -55 7 -66 35 -93z m-1348 134 c3 -5 -1 -10 -10 -10
-9 0 -13 5 -10 10 3 6 8 10 10 10 2 0 7 -4 10 -10z m1379 -22 c15 -31 46 -36
46 -9 0 12 4 21 9 21 6 0 7 -17 5 -37 -11 -79 -13 -83 -43 -83 -16 0 -34 7
-42 16 -13 15 -14 70 -3 107 6 21 12 18 28 -15z m-176 -20 c-1 -33 -16 -74
-24 -65 -3 2 0 16 5 30 8 21 7 25 -4 20 -13 -4 -20 -30 -16 -55 0 -5 -6 -8
-14 -8 -25 0 -17 36 18 74 17 19 33 36 34 36 1 0 1 -15 1 -32z m38 16 c-3 -9
-6 -18 -6 -20 0 -2 -4 -4 -9 -4 -5 0 -7 9 -4 20 3 11 10 20 15 20 6 0 7 -7 4
-16z m1174 -3 c0 -9 -85 -31 -113 -31 -18 1 23 22 58 31 43 10 55 10 55 0z
m84 -8 c20 -10 36 -21 36 -25 0 -12 -28 -10 -35 2 -3 6 -17 10 -30 10 -25 0
-39 12 -28 24 10 9 19 8 57 -11z m1 -69 c25 -16 27 -21 21 -66 -10 -71 -22
-98 -46 -98 -12 0 -22 -9 -26 -24 -6 -24 -41 -46 -72 -46 -9 0 -30 7 -45 15
-15 8 -34 12 -42 9 -22 -9 -27 15 -16 71 9 43 7 54 -9 77 -28 38 -26 43 21 58
22 8 43 18 46 23 9 15 138 0 168 -19z m-295 -64 c0 -5 -4 -10 -10 -10 -5 0
-10 5 -10 10 0 6 5 10 10 10 6 0 10 -4 10 -10z m30 -50 c0 -5 -11 -12 -25 -16
-18 -5 -25 -13 -26 -33 0 -15 -3 -20 -6 -11 -3 8 -11 18 -16 22 -13 8 9 37 38
48 22 8 35 4 35 -10z m-1845 -59 c3 -5 2 -12 -3 -15 -5 -3 -9 1 -9 9 0 17 3
19 12 6z m1045 -21 c0 -20 -5 -30 -15 -30 -16 0 -19 17 -9 44 10 26 24 18 24
-14z m1100 -9 c0 -11 -6 -22 -12 -24 -10 -4 -10 -8 1 -15 12 -8 12 -13 2 -25
-8 -11 -9 -17 -1 -22 8 -5 8 -11 -1 -21 -9 -11 -8 -14 5 -14 9 0 16 -3 16 -7
0 -5 3 -19 6 -33 4 -19 3 -22 -5 -10 -5 8 -13 11 -17 7 -7 -7 -6 -120 1 -212
2 -22 4 -46 4 -53 1 -7 6 -10 11 -7 6 4 10 -5 10 -19 0 -35 -15 -33 -31 3 -7
17 -21 32 -31 34 -10 3 -18 11 -18 17 0 7 6 10 14 7 8 -3 17 1 20 10 5 12 1
14 -14 10 -11 -3 -20 -1 -20 4 0 5 9 9 20 9 11 0 20 5 20 10 0 6 -9 10 -20 10
-11 0 -20 5 -20 10 0 6 9 10 20 10 19 0 20 4 14 38 -8 47 -11 49 -34 34 -17
-11 -20 -10 -20 8 0 15 7 20 26 20 21 0 24 4 19 20 -4 12 -2 20 6 20 8 0 8 4
-1 15 -7 9 -21 13 -31 10 -11 -4 -19 -2 -19 4 0 6 11 11 25 11 16 0 25 6 25
15 0 9 -9 15 -25 15 -14 0 -25 5 -25 10 0 6 8 10 18 10 26 0 30 6 24 35 -3 17
-11 25 -26 26 -20 2 -20 2 2 6 14 3 22 12 22 24 0 12 7 19 20 19 13 0 20 -7
20 -19z m-1321 -20 c12 -21 64 -87 122 -153 22 -25 47 -58 55 -73 23 -45 36
-145 29 -228 -6 -66 -5 -81 10 -97 12 -13 15 -27 11 -46 -6 -23 -4 -26 13 -21
16 4 20 -2 26 -30 3 -19 1 -57 -6 -83 -11 -44 -15 -48 -48 -54 -64 -10 -68 -9
-75 34 -5 34 -10 40 -31 40 -30 0 -40 -15 -36 -60 3 -51 10 -68 27 -72 11 -2
16 -19 18 -64 2 -47 7 -65 24 -82 12 -12 22 -28 22 -34 0 -16 -17 -44 -23 -38
-4 5 -31 97 -50 168 -10 35 -17 45 -39 49 -15 3 -33 12 -39 20 -10 11 -8 15 9
20 26 6 29 30 5 36 -14 4 -13 5 4 6 35 2 36 20 2 29 -38 9 -51 32 -19 32 19 0
20 2 10 15 -7 9 -11 18 -8 20 5 5 85 13 151 14 26 1 37 5 37 16 0 20 -66 24
-150 9 -34 -5 -35 -4 -47 35 -17 54 -16 91 3 130 13 25 13 35 4 46 -7 8 -18
15 -25 15 -6 0 -34 24 -61 53 -70 74 -126 122 -192 167 -81 53 -90 66 -52 73
16 4 39 16 50 27 11 11 25 18 30 15 17 -11 48 14 55 45 8 36 8 36 44 9 26 -19
33 -20 66 -9 20 7 39 18 42 26 7 19 20 18 32 -5z m1051 9 c0 -5 -4 -10 -10
-10 -5 0 -10 5 -10 10 0 6 5 10 10 10 6 0 10 -4 10 -10z m-730 -49 c0 -6 -9
-9 -20 -8 -11 1 -20 5 -20 9 0 4 9 8 20 8 11 0 20 -4 20 -9z m852 -30 c6 -20
17 -35 29 -38 14 -4 19 -14 19 -39 0 -19 -2 -34 -5 -34 -21 0 -57 28 -62 49
-3 14 -13 36 -21 48 -8 13 -11 30 -8 39 10 26 39 11 48 -25z m35 -8 c-4 -17
-4 -17 -12 0 -4 9 -4 25 0 35 8 16 8 16 12 0 3 -10 3 -26 0 -35z m-83 -32 c-8
-10 -24 14 -24 37 l1 27 13 -30 c7 -16 12 -32 10 -34z m-1640 3 c9 -3 16 -10
16 -16 0 -14 -43 -5 -48 10 -4 13 7 15 32 6z m1783 -60 c-3 -3 -12 -4 -19 -1
-8 3 -5 6 6 6 11 1 17 -2 13 -5z m-77 -36 c30 -33 26 -57 -5 -28 -14 13 -25
29 -25 37 0 18 6 16 30 -9z m85 -58 c3 -5 -1 -10 -10 -10 -9 0 -13 5 -10 10 3
6 8 10 10 10 2 0 7 -4 10 -10z m-975 -140 c0 -5 -4 -10 -10 -10 -5 0 -10 5
-10 10 0 6 5 10 10 10 6 0 10 -4 10 -10z m-40 -90 c0 -5 -4 -10 -10 -10 -5 0
-10 5 -10 10 0 6 5 10 10 10 6 0 10 -4 10 -10z m-303 -222 c-3 -7 -5 -2 -5 12
0 14 2 19 5 13 2 -7 2 -19 0 -25z m347 -64 c8 -21 -13 -49 -27 -35 -10 10 0
51 13 51 4 0 11 -7 14 -16z m1204 -32 c-1 -15 -12 -40 -24 -57 -80 -109 -113
-237 -123 -470 -4 -94 -11 -177 -16 -185 -5 -8 -11 -30 -15 -50 l-5 -35 -63
-3 c-65 -3 -71 2 -51 40 6 11 20 62 31 112 11 50 22 102 25 116 6 22 4 24 -10
11 -10 -7 -17 -23 -17 -35 0 -35 -45 -192 -63 -220 -28 -42 -39 -30 -16 16 42
83 51 123 59 263 11 196 37 299 54 214 3 -17 10 -28 15 -25 5 3 7 15 4 26 -3
13 5 31 24 53 20 23 32 50 36 82 8 53 56 126 95 144 13 6 21 15 17 20 -5 10
24 20 37 14 4 -2 7 -16 6 -31z m-1204 -87 c5 -22 4 -26 -4 -15 -5 8 -10 24
-10 34 0 26 6 18 14 -19z m1198 -355 l-2 -360 -75 0 c-72 0 -75 1 -75 23 0 13
9 50 20 83 11 32 20 86 20 119 1 33 5 96 11 140 5 44 10 87 11 95 0 8 7 40 14
70 8 30 17 68 20 85 3 16 12 37 20 46 7 8 14 22 14 31 0 15 9 28 19 28 3 0 5
-162 3 -360z m-1143 184 c27 -81 29 -95 18 -117 -13 -24 -14 -21 -31 61 -22
109 -29 158 -23 152 2 -3 18 -46 36 -96z m85 -59 c-4 -8 -11 -15 -16 -15 -6 0
-5 6 2 15 7 8 14 15 16 15 2 0 1 -7 -2 -15z m586 -35 c0 -5 -9 -10 -20 -10
-11 0 -20 -4 -20 -10 0 -5 5 -10 10 -10 6 0 10 -4 10 -10 0 -5 -9 -10 -20 -10
-14 0 -20 7 -20 23 0 13 3 27 7 30 10 11 53 8 53 -3z m-590 -92 c6 -40 18 -90
25 -110 7 -20 10 -39 7 -42 -12 -13 -21 -4 -27 26 -4 18 -13 52 -21 76 -16 48
-19 122 -5 122 5 0 14 -33 21 -72z m500 12 c0 -5 -4 -10 -10 -10 -5 0 -10 5
-10 10 0 6 5 10 10 10 6 0 10 -4 10 -10z m0 -69 c0 -12 -39 -25 -48 -16 -7 7
17 25 36 25 6 0 12 -4 12 -9z m65 -1 c-3 -5 -10 -10 -16 -10 -5 0 -9 5 -9 10
0 6 7 10 16 10 8 0 12 -4 9 -10z m75 -40 c0 -5 -9 -11 -20 -12 -67 -6 -80 -4
-80 9 0 9 15 13 50 13 28 0 50 -4 50 -10z"/>
<g>
<path d="M2590 3711 c0 -5 7 -12 16 -15 22 -9 24 -8 24 9 0 8 -9 15 -20 15
-11 0 -20 -4 -20 -9z"/>
</g>
<g>
<path d="M2208 3523 c7 -3 16 -2 19 1 4 3 -2 6 -13 5 -11 0 -14 -3 -6 -6z"/>
</g>
<g>
<path d="M2240 3245 c-17 -21 -8 -28 15 -11 11 8 14 15 8 19 -6 4 -16 0 -23
-8z"/>
</g>
<g>
<path d="M2270 2880 c0 -5 11 -10 25 -10 14 0 25 5 25 10 0 6 -11 10 -25 10
-14 0 -25 -4 -25 -10z"/>
</g>
<g>
<path d="M1480 2421 c0 -5 -3 -16 -6 -25 -10 -26 12 -18 24 9 10 21 9 25 -3
25 -8 0 -15 -4 -15 -9z"/>
</g>
<g>
<path d="M135 2270 c-10 -11 -14 -20 -10 -20 5 0 4 -5 -3 -12 -19 -19 -14 -28
13 -28 18 0 25 5 25 20 0 12 -7 20 -17 20 -15 0 -14 2 3 14 10 8 16 17 13 20
-3 3 -14 -3 -24 -14z"/>
</g>
<g>
<path d="M2612 2334 c9 -9 21 -15 27 -13 6 2 -2 10 -17 17 -25 11 -25 11 -10
-4z"/>
</g>
<g>
<path d="M2570 2275 c0 -32 6 -51 20 -65 24 -24 60 -27 60 -5 0 8 5 15 11 15
6 0 9 12 7 27 -4 32 -47 61 -60 40 -6 -8 -10 -5 -14 11 -11 37 -24 25 -24 -23z
m77 -27 c-3 -8 -6 -5 -6 6 -1 11 2 17 5 13 3 -3 4 -12 1 -19z m-18 -30 c1 -12
-27 -10 -34 2 -3 5 0 16 7 24 11 12 14 12 20 -3 4 -9 7 -19 7 -23z"/>
</g>
<g>
<path d="M1860 2150 c0 -5 7 -10 15 -10 8 0 15 5 15 10 0 6 -7 10 -15 10 -8 0
-15 -4 -15 -10z"/>
</g>
<g>
<path d="M610 2120 c0 -5 7 -10 15 -10 8 0 15 5 15 10 0 6 -7 10 -15 10 -8 0
-15 -4 -15 -10z"/>
</g>
<g>
<path d="M620 2060 c0 -5 5 -10 10 -10 6 0 10 5 10 10 0 6 -4 10 -10 10 -5 0
-10 -4 -10 -10z"/>
</g>
<g>
<path d="M600 2000 c0 -5 5 -10 10 -10 6 0 10 5 10 10 0 6 -4 10 -10 10 -5 0
-10 -4 -10 -10z"/>
</g>
<g>
<path d="M1890 1946 c0 -2 7 -9 15 -16 12 -10 15 -10 15 4 0 9 -7 16 -15 16
-8 0 -15 -2 -15 -4z"/>
</g>
<g>
<path d="M2047 1863 c-10 -9 -9 -23 1 -23 5 0 9 7 9 15 0 17 -1 18 -10 8z"/>
</g>
<g>
<path d="M1885 1849 c-10 -15 3 -25 16 -12 7 7 7 13 1 17 -6 3 -14 1 -17 -5z"/>
</g>
<g>
<path d="M2176 1775 c4 -8 15 -15 26 -15 17 0 18 3 8 15 -7 8 -19 15 -26 15
-8 0 -11 -6 -8 -15z"/>
</g>
<g>
<path d="M2020 1763 c1 -12 26 -43 35 -43 4 0 1 7 -6 17 -8 9 -13 19 -11 22 2
3 -1 7 -7 9 -6 2 -11 0 -11 -5z"/>
</g>
<g>
<path d="M2306 1743 c-12 -12 -5 -23 14 -23 11 0 20 4 20 9 0 11 -26 22 -34
14z"/>
</g>
<g>
<path d="M2142 1674 c4 -21 22 -23 26 -1 2 10 -3 17 -13 17 -10 0 -15 -6 -13
-16z"/>
</g>
<g>
<path d="M2270 1618 c0 -22 18 -42 38 -43 13 -1 18 3 15 12 -3 7 -14 13 -24
13 -12 0 -16 5 -13 15 4 8 1 15 -5 15 -6 0 -11 -6 -11 -12z"/>
</g>
<g>
<path d="M2579 1768 c-8 -35 -6 -78 4 -78 8 0 7 -3 -2 -9 -17 -11 -6 -31 19
-31 25 0 44 54 28 83 -6 12 -16 25 -22 29 -11 8 -25 10 -27 6z m31 -44 c0 -8
-4 -12 -10 -9 -5 3 -10 10 -10 16 0 5 5 9 10 9 6 0 10 -7 10 -16z"/>
</g>
</g>
<g>
<path d="M1433 5073 c-104 -2 -173 -7 -173 -13 0 -6 17 -10 38 -10 36 0 39 -3
70 -61 18 -33 32 -65 32 -70 0 -5 -20 -9 -45 -9 -25 0 -45 -5 -45 -10 0 -13
348 -11 356 1 3 5 -5 9 -18 9 -37 0 -43 11 -47 83 l-3 67 41 0 c23 0 41 5 41
10 0 6 -17 9 -37 8 -21 -1 -116 -4 -210 -5z m27 -32 c0 -17 -31 -81 -39 -81
-5 0 -17 17 -26 38 -10 20 -20 40 -22 45 -2 4 16 7 41 7 25 0 46 -4 46 -9z
m108 -57 l3 -61 -32 -7 c-17 -3 -45 -6 -61 -6 -26 0 -29 3 -23 23 3 12 10 31
15 42 5 11 14 33 20 48 9 24 15 28 42 25 33 -3 33 -3 36 -64z"/>
</g>
<g>
<path d="M2961 3673 c0 -28 2 -54 7 -57 4 -2 6 14 4 37 -5 68 -10 76 -11 20z"/>
</g>
<g>
<path d="M2977 3150 c2 -263 8 -459 14 -465 5 -5 9 153 9 421 0 247 -4 434 -9
440 -5 5 -12 20 -14 34 -3 14 -3 -180 0 -430z"/>
</g>
<g>
<path d="M2760 2700 c0 -5 5 -10 10 -10 6 0 10 5 10 10 0 6 -4 10 -10 10 -5 0
-10 -4 -10 -10z"/>
</g>
<g>
<path d="M2810 2676 c0 -15 38 -57 44 -48 3 5 -6 20 -19 32 -14 13 -25 20 -25
16z"/>
</g>
<g>
<path d="M2980 2393 c0 -37 5 -75 10 -83 7 -11 10 8 8 63 -2 97 -18 114 -18
20z"/>
</g>
<g>
<path d="M2987 1923 c-11 -11 -8 -513 3 -513 6 0 10 93 10 260 0 143 -1 260
-3 260 -2 0 -7 -3 -10 -7z"/>
</g>
<g>
<path d="M2937 1873 c-12 -11 -8 -23 8 -23 8 0 15 7 15 15 0 16 -12 20 -23 8z"/>
</g>
<g>
<path d="M2930 1815 c0 -9 5 -15 11 -13 6 2 11 8 11 13 0 5 -5 11 -11 13 -6 2
-11 -4 -11 -13z"/>
</g>
<g>
<path d="M2842 1785 c6 -14 15 -25 20 -25 11 0 10 7 -2 31 -16 28 -32 23 -18
-6z"/>
</g>
<g>
<path d="M2830 1712 c0 -32 30 -106 55 -137 l25 -30 0 33 c0 25 -5 35 -20 39
-11 3 -17 9 -14 14 3 5 -2 19 -10 31 -9 12 -16 33 -16 45 0 13 -4 23 -10 23
-5 0 -10 -8 -10 -18z"/>
</g>
<g>
<path d="M2855 1523 c11 -47 53 -133 65 -133 6 0 4 11 -6 25 -9 14 -12 25 -7
25 8 0 21 -20 41 -64 3 -5 -1 -5 -8 -1 -9 5 -11 4 -6 -3 11 -18 36 -14 36 6 0
9 -13 36 -28 59 -21 32 -31 40 -40 31 -8 -8 -14 0 -24 35 -13 49 -35 67 -23
20z"/>
</g>
<g>
<path d="M953 1364 c-13 -13 -48 -96 -64 -148 -5 -16 -13 -124 -19 -240 -13
-252 -18 -288 -76 -470 -41 -130 -51 -157 -91 -241 -19 -42 -42 -70 -49 -62
-4 4 -2 12 3 19 17 21 26 58 14 58 -14 0 -51 -59 -51 -81 0 -21 39 -32 58 -17
20 17 85 152 115 238 29 85 83 278 91 330 3 19 8 49 11 65 3 17 7 107 11 200
4 136 10 182 26 230 12 33 27 67 35 76 25 29 11 71 -14 43z"/>
</g>
<g>
<path d="M2870 1351 c0 -16 10 -42 24 -58 13 -15 31 -42 40 -60 9 -17 20 -35
26 -38 22 -13 8 25 -30 84 -22 34 -40 68 -40 76 0 7 -4 17 -10 20 -6 4 -10 -6
-10 -24z"/>
</g>
<g>
<path d="M1187 1334 c-4 -4 -7 -14 -7 -23 0 -11 3 -12 11 -4 6 6 10 16 7 23
-2 6 -7 8 -11 4z"/>
</g>
<g>
<path d="M1198 1253 l-4 -28 -11 25 c-10 22 -12 17 -11 -35 0 -33 -7 -100 -17
-150 -10 -49 -17 -110 -17 -135 2 -42 -16 -157 -37 -240 -5 -19 -12 -75 -16
-125 -3 -49 -11 -120 -16 -157 -10 -63 -7 -88 9 -88 4 0 7 17 8 38 1 101 35
365 49 385 8 12 15 35 15 52 0 16 6 66 14 110 19 101 57 346 56 363 0 24 -19
12 -22 -15z m-32 -291 c-13 -12 -18 9 -10 45 l8 38 4 -39 c2 -21 1 -41 -2 -44z"/>
</g>
<g>
<path d="M2865 1251 c-3 -6 4 -21 16 -33 11 -13 26 -35 31 -50 6 -16 16 -28
24 -28 18 0 18 -1 -5 46 -23 47 -56 80 -66 65z"/>
</g>
<g>
<path d="M2547 1114 c2 -116 5 -145 18 -133 2 3 6 61 7 129 3 104 1 125 -12
127 -13 3 -15 -15 -13 -123z"/>
</g>
<g>
<path d="M2665 1178 c8 -38 20 -54 29 -40 8 13 -13 72 -26 72 -6 0 -7 -13 -3
-32z"/>
</g>
<g>
<path d="M2610 1112 c0 -50 -36 -249 -55 -305 -19 -57 -36 -181 -28 -204 9
-26 45 -63 55 -57 4 3 -1 17 -12 31 -29 37 -26 116 10 248 23 83 60 283 60
322 0 2 -7 3 -15 3 -11 0 -15 -11 -15 -38z"/>
</g>
<g>
<path d="M2687 1074 c-4 -4 -7 -21 -7 -39 0 -17 -7 -58 -16 -90 -17 -65 -27
-245 -14 -245 11 0 21 72 19 125 -1 22 7 81 18 131 18 82 18 136 0 118z"/>
</g>
<g>
<path d="M2868 1048 c-40 -21 -79 -67 -116 -134 -24 -45 -26 -54 -14 -54 5 0
19 21 31 46 26 51 81 107 124 125 15 6 27 18 27 25 0 18 -7 17 -52 -8z"/>
</g>
<g>
<path d="M787 993 c-4 -3 -7 -17 -7 -30 0 -44 -90 -293 -130 -363 -8 -14 -33
-63 -56 -110 -56 -119 -74 -148 -116 -195 -20 -22 -39 -52 -43 -67 -8 -33
-102 -138 -123 -138 -12 0 -13 3 -4 12 16 16 15 28 -1 28 -20 0 -60 -47 -52
-60 14 -23 85 -4 122 32 90 87 243 347 316 538 14 36 36 90 50 120 29 62 77
203 77 225 0 15 -21 20 -33 8z"/>
</g>
<g>
<path d="M1296 684 c-3 -26 -6 -66 -6 -90 0 -45 -3 -60 -47 -229 -14 -55 -29
-120 -33 -145 -10 -62 1 -162 19 -168 11 -4 13 9 9 68 -6 76 -2 101 50 300 34
135 51 310 29 310 -9 0 -17 -17 -21 -46z"/>
</g>
<g>
<path d="M294 603 c-3 -16 -16 -53 -29 -83 -13 -30 -26 -66 -30 -80 -4 -14
-19 -47 -32 -73 -24 -48 -26 -70 -5 -45 15 19 72 134 72 145 0 6 9 30 19 54
25 59 36 109 22 109 -6 0 -13 -12 -17 -27z"/>
</g>
<g>
<path d="M157 293 c-4 -3 -7 -11 -7 -17 0 -6 5 -5 12 2 6 6 9 14 7 17 -3 3 -9
2 -12 -2z"/>
</g>
<g>
<path d="M1300 223 c0 -92 9 -141 28 -148 21 -8 27 2 11 21 -9 11 -13 45 -13
105 0 66 -4 89 -13 89 -9 0 -13 -19 -13 -67z"/>
</g>
<g>
<path d="M2494 216 c-6 -17 2 -36 17 -36 12 0 12 37 -1 45 -6 3 -13 -1 -16 -9z"/>
</g>
</g>
</svg>
