<?xml version="1.0" standalone="no"?>
<!DOCTYPE svg PUBLIC "-//W3C//DTD SVG 20010904//EN"
 "http://www.w3.org/TR/2001/REC-SVG-20010904/DTD/svg10.dtd">
<svg version="1.0" xmlns="http://www.w3.org/2000/svg"
 width="300.000000pt" height="518.000000pt" viewBox="0 0 300.000000 518.000000"
 preserveAspectRatio="xMidYMid meet">
<metadata>
Created by potrace 1.15, written by Peter Selinger 2001-2017
</metadata>
<g transform="translate(0.000000,518.000000) scale(0.100000,-0.100000)"
fill="#000000" stroke="none">
<g>
<path d="M0 2882 l0 -2299 22 -10 c13 -6 53 -18 90 -27 130 -32 137 -40 98
-116 -30 -58 -27 -95 9 -110 16 -6 40 -9 53 -5 13 3 59 17 103 30 182 53 256
61 295 31 8 -7 56 -25 105 -40 132 -42 198 -66 214 -79 8 -7 16 -11 18 -9 1 1
3 -1 4 -4 0 -8 -109 -57 -171 -77 -25 -8 -83 -29 -129 -46 l-84 -30 -71 23
c-39 13 -105 32 -146 41 -41 10 -95 23 -120 30 -25 7 -79 21 -120 30 -41 10
-94 27 -117 39 l-42 21 -4 80 c-1 44 -4 -16 -5 -132 l-2 -213 563 -1 c309 0
984 -2 1499 -4 l937 -3 1 2589 0 2589 -102 -2 -103 -1 87 -10 87 -10 3 -86 c2
-47 1 -453 -1 -901 -4 -717 -6 -804 -17 -725 -9 63 -10 99 -3 122 12 39 -11
83 -45 83 -59 -1 -94 -48 -70 -95 12 -23 12 -43 4 -114 -6 -47 -13 -87 -14
-89 -2 -2 -19 1 -37 6 l-34 8 -7 85 c-12 149 -13 164 -6 190 15 52 -69 104
-102 64 -8 -10 -11 -31 -7 -60 4 -24 2 -68 -3 -97 -5 -29 -12 -86 -15 -125 -6
-67 -9 -73 -30 -73 -21 0 -23 6 -33 98 -6 53 -8 111 -5 127 3 22 -1 35 -15 49
-20 17 -20 17 -15 -22 4 -33 2 -42 -15 -51 -37 -20 -63 38 -30 69 22 20 22 20
1 20 -33 0 -46 -25 -39 -72 3 -24 0 -72 -7 -108 -12 -54 -15 -61 -24 -45 -8
14 -21 19 -47 18 -20 -1 -36 2 -36 7 0 14 -59 32 -84 26 -14 -3 -28 -15 -31
-27 -4 -13 -12 -18 -22 -15 -25 10 -53 -12 -53 -43 0 -15 -8 -35 -18 -43 -21
-19 -89 -44 -97 -36 -3 3 2 24 11 48 16 38 16 43 0 58 -12 13 -18 14 -28 4
-18 -18 -27 -15 -26 11 4 58 -2 77 -25 82 -13 4 -31 19 -41 36 -20 33 -55 39
-81 12 -16 -15 -19 -15 -44 0 -29 17 -51 8 -51 -19 0 -6 -7 -17 -15 -24 -17
-14 -21 -60 -5 -60 6 0 10 6 10 14 0 7 7 19 15 26 8 7 15 21 15 31 0 12 5 16
15 13 8 -4 15 -12 15 -19 0 -7 7 -15 15 -19 20 -7 45 3 45 18 0 7 5 17 12 24
15 15 48 -12 48 -40 0 -13 7 -18 25 -18 21 0 25 -5 25 -29 0 -29 -22 -61 -41
-61 -5 0 -9 6 -9 14 0 22 -19 29 -36 15 -12 -10 -16 -9 -20 7 -4 16 -13 20
-45 19 -22 -1 -44 -7 -48 -13 -4 -7 -15 -10 -24 -6 -10 4 -17 1 -17 -6 0 -6 9
-14 19 -17 16 -4 18 -11 14 -46 -6 -45 -13 -59 -20 -40 -3 7 -13 23 -22 35
-18 21 -18 21 -44 2 -35 -26 -40 -42 -22 -70 8 -13 15 -29 15 -36 0 -20 -134
-49 -259 -55 l-111 -6 0 27 c0 35 -17 66 -36 66 -8 0 -19 11 -24 24 -11 29
-38 46 -74 46 -14 0 -27 4 -30 9 -3 5 -22 9 -41 8 -19 -1 -37 2 -41 6 -7 7
-39 114 -61 204 -8 35 -19 60 -24 57 -5 -3 -17 2 -26 12 -16 16 -16 16 5 10
28 -9 28 -9 -9 141 l-31 125 21 22 c17 18 20 32 17 72 -6 72 -40 158 -64 162
-14 2 -23 16 -32 50 -7 26 -20 74 -30 107 -10 33 -30 105 -45 160 -37 143 -52
160 -110 133 -19 -9 -25 -19 -25 -44 0 -18 4 -35 9 -38 5 -3 12 -27 16 -53 3
-27 10 -64 15 -83 5 -19 21 -84 35 -145 15 -60 33 -129 41 -152 10 -31 11 -50
4 -69 -6 -15 -8 -35 -5 -45 4 -11 1 -35 -5 -54 -10 -29 -16 -35 -40 -35 -36 0
-45 -16 -55 -94 -4 -32 -26 -108 -50 -167 -53 -134 -58 -152 -60 -264 -4 -137
-2 -128 -27 -122 -13 4 -29 0 -39 -9 -11 -10 -31 -14 -56 -12 -33 3 -38 6 -41
31 -3 23 2 29 27 38 46 16 51 60 13 113 -20 27 -37 40 -50 39 -12 -2 -22 5
-25 17 -5 21 -51 43 -76 37 -9 -2 1 -7 21 -11 31 -7 38 -13 38 -31 0 -27 31
-58 37 -37 8 21 23 13 23 -13 0 -15 6 -25 14 -25 21 0 28 -15 20 -44 -7 -28
-38 -32 -67 -8 -9 8 -17 11 -17 6 0 -5 -7 0 -15 10 -12 16 -18 17 -27 8 -7 -7
-20 -12 -30 -12 -10 0 -18 -4 -18 -8 0 -4 -12 -13 -28 -19 -15 -7 -35 -18 -44
-25 -14 -10 -20 -10 -30 0 -10 10 -10 17 0 33 10 16 10 24 1 35 -6 7 -8 25 -5
39 4 14 2 25 -4 25 -11 0 -14 -118 -4 -144 3 -9 15 -16 25 -16 10 0 19 -6 19
-13 0 -17 -38 -35 -89 -43 l-38 -6 -8 115 c-4 63 -4 488 0 943 7 795 8 830 26
856 l19 27 753 0 c693 0 1266 8 1276 17 2 2 -469 4 -1047 4 l-1052 0 0 -2298z
m860 1268 c0 -5 -5 -10 -11 -10 -5 0 -7 5 -4 10 3 6 8 10 11 10 2 0 4 -4 4
-10z m-10 -50 c0 -6 -11 -15 -25 -20 -27 -10 -34 -47 -14 -67 9 -9 9 -26 1
-67 -6 -30 -9 -79 -5 -108 l6 -53 -32 43 c-17 23 -38 42 -46 42 -8 0 -15 7
-15 15 0 8 4 15 10 15 12 0 35 78 32 108 -4 30 26 90 46 95 30 8 42 7 42 -3z
m31 -47 c-9 -16 -10 -16 -11 -1 0 9 3 25 7 35 7 16 8 17 11 1 2 -10 -1 -25 -7
-35z m29 -33 c0 -5 -4 -10 -10 -10 -5 0 -10 5 -10 10 0 6 5 10 10 10 6 0 10
-4 10 -10z m0 -60 c0 -5 -2 -10 -4 -10 -3 0 -8 5 -11 10 -3 6 -1 10 4 10 6 0
11 -4 11 -10z m-220 -95 c0 -8 -4 -15 -10 -15 -5 0 -10 7 -10 15 0 8 5 15 10
15 6 0 10 -7 10 -15z m64 -50 c6 -11 16 -24 22 -30 6 -5 14 -21 17 -35 l6 -25
-19 25 c-11 14 -20 28 -20 33 0 4 -11 7 -24 7 -28 0 -40 14 -32 36 8 20 36 14
50 -11z m-4 -91 c0 -8 5 -14 10 -14 6 0 10 -7 10 -15 0 -18 -10 -19 -31 -2
-21 17 -30 45 -16 50 16 6 27 -1 27 -19z m109 -129 c13 -55 27 -111 32 -125 4
-14 16 -58 25 -98 16 -72 16 -72 -8 -101 -13 -16 -30 -38 -38 -49 -8 -11 -25
-22 -37 -26 -18 -6 -25 -2 -32 16 -13 36 -51 229 -46 237 2 4 14 54 25 112 24
115 41 165 51 146 3 -7 16 -57 28 -112z m-161 106 c-2 -4 8 -17 21 -28 17 -14
22 -24 15 -34 -5 -8 -7 -22 -5 -33 1 -11 -2 -16 -8 -12 -6 4 -11 0 -11 -8 0
-9 9 -21 20 -28 11 -7 20 -16 20 -19 0 -4 -9 -5 -20 -2 -15 4 -20 0 -20 -15 0
-11 -6 -23 -12 -26 -10 -3 -8 -8 4 -19 13 -10 14 -17 6 -25 -9 -9 -7 -16 6
-31 12 -13 15 -27 11 -42 -5 -14 -2 -25 6 -30 10 -6 11 -9 2 -9 -7 0 -13 -7
-13 -15 0 -8 7 -15 15 -15 8 0 15 -4 15 -10 0 -5 -7 -10 -15 -10 -22 0 -18
-21 5 -27 19 -5 19 -6 4 -18 -19 -13 -11 -35 12 -35 8 0 14 -4 14 -10 0 -5 -7
-10 -15 -10 -30 0 -15 -29 18 -33 31 -4 31 -4 -6 -5 -43 -2 -107 -26 -107 -41
0 -5 26 -7 63 -5 l62 4 -50 -16 c-27 -8 -54 -21 -60 -29 -5 -7 -16 -22 -24
-33 -8 -11 -20 -18 -28 -15 -8 3 -25 -5 -38 -17 l-23 -22 -11 38 c-7 24 -7 42
-1 49 6 7 7 26 4 43 -5 25 -2 33 20 47 14 10 26 21 26 26 0 13 -34 11 -48 -3
-6 -6 -14 -9 -18 -6 -3 4 8 19 25 34 17 15 31 31 31 36 0 13 -28 9 -33 -4 -4
-9 -6 -8 -6 2 -1 8 8 21 20 28 15 10 18 16 10 26 -6 8 -9 21 -5 30 3 9 1 16
-5 16 -16 0 -13 37 5 64 15 24 5 44 -16 31 -17 -10 2 98 27 150 12 28 23 57
23 65 1 12 3 12 14 -3 16 -21 30 -8 41 36 4 15 13 27 21 27 8 0 13 -4 12 -9z
m2012 -16 c7 -8 10 -25 6 -40 -9 -34 -43 -33 -58 1 -11 22 -10 28 7 40 24 18
30 18 45 -1z m210 -75 c16 -30 3 -61 -23 -57 -32 4 -47 16 -47 37 0 19 24 39
47 40 7 0 17 -9 23 -20z m-1980 0 c0 -5 -9 -10 -21 -10 -11 0 -17 5 -14 10 3
6 13 10 21 10 8 0 14 -4 14 -10z m-180 -20 c0 -5 -4 -10 -10 -10 -5 0 -10 5
-10 10 0 6 5 10 10 10 6 0 10 -4 10 -10z m1951 -35 c4 -22 9 -77 11 -122 l5
-81 -45 -4 -45 -3 7 96 c9 139 14 161 40 157 15 -2 22 -13 27 -43z m-191 -126
l0 -89 -36 0 -37 0 7 73 c11 108 13 115 42 109 23 -4 24 -7 24 -93z m388 88
c10 -12 14 -38 27 -169 l5 -58 -41 0 -42 0 5 108 c5 127 16 155 46 119z
m-1948 -27 c0 -5 -2 -10 -4 -10 -3 0 -8 5 -11 10 -3 6 -1 10 4 10 6 0 11 -4
11 -10z m1300 -55 c0 -8 7 -15 15 -15 8 0 15 -9 15 -20 0 -15 -6 -19 -30 -17
-25 2 -30 6 -30 28 0 14 3 29 7 32 11 12 23 8 23 -8z m-1280 -5 c0 -5 -4 -10
-10 -10 -5 0 -10 5 -10 10 0 6 5 10 10 10 6 0 10 -4 10 -10z m1398 -37 c13
-24 4 -43 -18 -43 -18 0 -40 27 -40 49 0 18 49 12 58 -6z m-190 -11 c3 -9 -2
-13 -14 -10 -9 1 -19 9 -22 16 -3 9 2 13 14 10 9 -1 19 -9 22 -16z m-380 -1
c21 -13 12 -95 -10 -99 -15 -3 -18 5 -18 52 0 56 4 63 28 47z m198 -18 c-10
-10 -19 5 -10 18 6 11 8 11 12 0 2 -7 1 -15 -2 -18z m-149 -35 c-2 -13 -4 -5
-4 17 -1 22 1 32 4 23 2 -10 2 -28 0 -40z m443 7 c0 -8 -7 -15 -15 -15 -8 0
-15 7 -15 15 0 8 7 15 15 15 8 0 15 -7 15 -15z m-325 -20 c0 -10 -6 -20 -12
-22 -8 -3 -13 5 -13 22 0 17 5 25 13 23 6 -3 12 -13 12 -23z m442 3 c-3 -8 -6
-5 -6 6 -1 11 2 17 5 13 3 -3 4 -12 1 -19z m-2161 -23 c-8 -23 -25 -9 -19 16
4 13 9 17 16 10 5 -5 7 -17 3 -26z m62 23 c7 -7 12 -23 12 -35 0 -21 -3 -22
-20 -13 -12 6 -20 21 -20 35 0 27 9 32 28 13z m1366 -20 c-7 -10 -34 -10 -34
0 0 4 5 13 12 20 9 9 14 9 19 0 4 -7 5 -16 3 -20z m504 5 c23 -17 37 -23 40
-15 4 14 58 16 67 3 3 -5 -5 -11 -17 -13 -29 -4 -35 -37 -15 -78 l15 -29 -66
-3 c-38 -2 -66 -7 -64 -13 1 -5 7 -11 12 -11 25 -3 22 -7 -10 -13 -39 -7 -50
-33 -30 -70 9 -18 20 -21 78 -21 l68 0 1 -37 c0 -21 5 -56 11 -78 6 -25 12
-300 14 -748 l5 -709 -24 -9 c-14 -5 -28 -9 -32 -9 -27 0 -72 263 -53 306 20
42 14 114 -14 174 -32 69 -58 97 -98 106 -17 3 -34 11 -37 17 -7 10 -1 798 6
805 1 2 26 5 55 8 65 5 70 8 70 45 l0 29 -70 0 c-70 0 -70 0 -70 28 0 15 -3
51 -6 80 -6 48 -5 52 15 52 11 0 21 5 21 10 0 6 -11 10 -25 10 -14 0 -25 5
-25 10 0 6 25 10 55 10 30 0 55 5 55 10 0 6 -23 10 -51 10 -50 0 -51 0 -45 28
4 17 1 35 -8 47 -22 29 -21 32 32 50 26 8 56 22 66 30 27 20 34 19 74 -12z
m194 4 c10 -17 0 -27 -28 -27 -19 0 -24 5 -24 26 0 22 3 24 23 18 12 -4 25
-11 29 -17z m448 9 c0 -9 1 -19 3 -23 1 -5 -80 -10 -180 -13 -175 -5 -182 -4
-187 15 -3 10 -1 22 5 26 6 3 89 7 185 8 152 2 174 0 174 -13z m-2620 -26 c0
-11 -4 -20 -10 -20 -5 0 -10 9 -10 20 0 11 5 20 10 20 6 0 10 -9 10 -20z
m1516 -38 c-8 -9 -19 -13 -22 -9 -10 9 16 38 28 31 6 -4 4 -13 -6 -22z m138
-26 c-5 -36 -3 -47 15 -65 21 -21 21 -24 9 -124 l-13 -102 -63 -3 -62 -3 0
-34 c0 -33 -2 -35 -34 -35 -31 0 -34 3 -40 38 -3 20 -6 52 -6 71 0 18 -5 51
-11 72 -16 51 1 73 48 66 25 -4 33 -2 33 9 0 10 13 14 53 13 28 -1 40 -4 25
-6 -40 -6 -35 -25 5 -20 17 2 31 9 30 16 -2 6 2 11 7 11 6 0 10 5 10 10 0 6
-34 10 -81 10 -65 0 -91 5 -127 23 -32 16 -40 23 -26 25 33 4 98 25 111 35 13
10 90 35 110 36 9 1 11 -11 7 -43z m692 34 c67 0 74 -2 74 -19 0 -11 -4 -22
-8 -25 -5 -3 -83 -6 -173 -7 l-164 -1 -3 25 c-3 25 -1 26 55 30 32 2 78 3 102
1 24 -2 77 -4 117 -4z m414 -14 c0 -30 -27 -36 -166 -36 -104 0 -104 0 -104
24 0 29 13 32 168 34 101 2 102 2 102 -22z m-2652 -2 c18 -8 34 -19 36 -23 3
-4 37 -8 77 -9 40 0 76 -5 80 -9 4 -4 4 -26 -1 -48 -14 -60 -11 -114 9 -175
15 -46 17 -71 10 -155 -13 -169 -50 -382 -86 -498 -8 -27 -13 -65 -10 -85 4
-29 -4 -54 -34 -114 -44 -88 -62 -175 -80 -382 -8 -97 -8 -140 0 -154 6 -12
11 -30 11 -41 0 -32 26 -49 87 -57 32 -4 65 -8 73 -10 8 -1 22 -3 31 -3 29 -2
44 -59 42 -164 l-2 -98 -65 -61 c-36 -33 -66 -68 -66 -78 0 -10 -14 -28 -30
-40 -38 -27 -67 -89 -48 -102 11 -6 11 -10 0 -16 -7 -5 -10 -15 -7 -23 2 -8 1
-19 -3 -25 -4 -6 -72 -36 -152 -67 -80 -30 -153 -58 -162 -62 -16 -7 -17 59
-12 1152 3 637 8 1160 11 1163 2 2 39 5 81 6 47 1 77 5 80 13 5 15 33 14 30
-1 -2 -8 10 -14 27 -16 49 -6 235 9 235 19 0 5 -6 9 -14 9 -8 0 -16 4 -18 9
-4 11 -398 19 -398 9 0 -5 12 -8 28 -8 21 -1 23 -3 11 -10 -27 -16 -69 0 -69
26 0 11 22 14 113 15 79 0 105 3 89 10 -13 5 -62 8 -110 6 -83 -2 -87 -1 -90
20 -3 17 3 24 25 29 15 3 62 19 103 34 88 33 125 36 168 14z m1664 -1 c20 -18
24 -53 6 -71 -9 -9 -9 -21 0 -50 7 -22 12 -71 12 -110 l0 -70 -46 -4 c-32 -2
-48 1 -51 10 -9 21 14 176 26 180 15 5 14 22 -1 22 -34 0 -58 52 -43 93 8 20
75 20 97 0z m726 -51 c55 -5 36 -23 -23 -21 -51 2 -67 10 -46 23 4 3 12 20 16
38 l8 33 6 -35 c5 -31 10 -35 39 -38z m107 -34 c9 -50 7 -1302 -1 -1426 l-6
-83 -36 -15 c-19 -8 -37 -12 -40 -10 -7 8 -2 602 9 1062 9 398 11 435 30 473
11 22 23 41 28 41 5 0 12 -19 16 -42z m146 37 c3 -2 3 -20 1 -40 l-4 -35 -58
0 c-57 0 -59 1 -65 30 -4 16 -4 34 0 40 6 10 117 15 126 5z m-556 -23 c-3 -7
-5 -18 -5 -23 0 -6 -17 -9 -37 -7 -31 2 -39 7 -41 26 -3 21 0 23 43 21 34 -2
44 -6 40 -17z m159 -13 c8 -44 -7 -58 -56 -54 -52 5 -62 15 -15 15 21 0 37 5
37 10 0 6 -18 10 -40 10 -36 0 -40 3 -40 25 0 24 3 25 54 25 52 0 54 -1 60
-31z m40 -529 c3 -305 8 -668 11 -806 l5 -252 -22 -5 c-12 -4 -24 -5 -25 -3
-9 9 -2 1499 7 1516 6 10 10 40 10 66 0 26 2 45 4 43 3 -3 7 -254 10 -559z
m-1060 535 c-5 -12 -31 -15 -147 -15 -77 0 -137 3 -134 7 4 4 62 9 130 11 67
2 124 6 126 8 11 11 30 2 25 -11z m84 -1 c26 -18 29 -59 5 -72 -15 -9 -15 -12
-1 -43 9 -19 18 -70 20 -115 l5 -81 -51 5 c-28 2 -53 6 -55 8 -9 9 28 197 41
205 10 7 8 12 -9 24 -27 19 -30 60 -5 74 23 14 24 14 50 -5z m647 -24 c-3 -5
-17 -10 -30 -10 -13 0 -27 5 -30 10 -4 6 8 10 30 10 22 0 34 -4 30 -10z
m-1403 -38 c-3 -27 0 -34 17 -39 12 -3 21 -13 21 -24 0 -39 -21 -18 -62 61
-22 43 -23 42 5 38 19 -3 21 -8 19 -36z m425 22 c-3 -3 -12 -4 -19 -1 -8 3 -5
6 6 6 11 1 17 -2 13 -5z m251 -24 c11 -23 11 -41 3 -80 -6 -28 -11 -70 -11
-93 0 -23 -4 -47 -8 -53 -5 -9 -61 -18 -149 -24 -2 0 -3 -16 -3 -35 l0 -35 80
0 c44 0 80 -1 81 -2 1 -2 3 -243 5 -535 3 -359 2 -533 -5 -533 -22 0 -100 44
-104 59 -2 9 -17 61 -31 116 -15 55 -34 125 -43 155 -8 30 -18 71 -23 90 -4
19 -15 61 -23 93 -14 51 -15 74 -3 199 10 108 17 144 30 153 22 16 20 45 -6
133 -19 62 -31 83 -74 127 -29 29 -55 62 -59 74 -3 11 -22 33 -41 47 -37 28
-45 48 -16 40 9 -2 27 -7 40 -11 16 -5 22 -2 22 10 0 9 4 14 9 10 5 -3 12 -1
15 4 4 5 2 12 -4 16 -5 3 -10 11 -10 17 0 7 20 8 61 4 42 -5 59 -4 54 3 -3 6
-16 11 -29 11 -12 0 -30 6 -41 13 -16 13 -14 15 23 21 23 3 42 11 42 16 0 6
13 10 30 10 22 0 28 -4 24 -15 -5 -12 5 -15 55 -15 34 0 61 4 61 10 0 6 -22
10 -50 10 -27 0 -50 5 -50 10 0 6 29 10 68 10 65 0 68 -1 80 -30z m902 -25 c0
-6 -60 -11 -154 -14 l-153 -3 -5 26 -5 25 146 3 c120 3 148 0 158 -12 7 -8 12
-19 13 -25z m225 -32 c3 -43 2 -136 -4 -207 -7 -76 -11 -435 -11 -874 0 -428
-4 -742 -9 -736 -8 9 -16 384 -27 1402 l-6 492 25 0 c24 0 25 -3 32 -77z m52
-65 c-4 -79 -11 -494 -17 -923 -6 -429 -13 -784 -15 -790 -3 -9 -10 814 -9
1045 4 818 3 810 26 810 20 0 21 -3 15 -142z m-2307 112 c0 -5 -4 -10 -10 -10
-5 0 -10 5 -10 10 0 6 5 10 10 10 6 0 10 -4 10 -10z m-123 -6 c-3 -3 -12 -4
-19 -1 -8 3 -5 6 6 6 11 1 17 -2 13 -5z m2251 -938 c-2 -1083 -9 -1355 -20
-811 -12 565 -21 1732 -14 1744 4 5 13 8 21 5 13 -5 14 -131 13 -938z m328
317 c-9 -861 -17 -1356 -22 -1365 -25 -40 -26 33 -21 904 4 502 7 950 7 996 0
77 1 82 21 82 l21 0 -6 -617z m100 -60 c0 -373 -5 -684 -9 -690 -28 -43 -30
-3 -22 465 5 262 9 500 11 527 1 28 3 123 3 213 1 89 5 162 10 162 5 0 8 -300
7 -677z m-2152 656 c14 -7 26 -21 28 -33 4 -29 51 -34 70 -7 15 22 56 25 73 5
15 -17 70 -25 83 -12 14 14 26 4 19 -15 -4 -10 -32 -16 -94 -20 -80 -6 -92 -4
-136 18 -45 23 -67 25 -67 6 0 -4 19 -16 43 -27 34 -15 64 -19 161 -19 83 0
120 -4 123 -12 6 -18 -34 -53 -61 -53 -30 0 -82 -42 -72 -58 10 -17 33 -15 40
3 3 8 11 15 18 15 9 0 9 -3 0 -12 -17 -17 -15 -48 3 -48 8 0 15 -7 15 -15 0
-25 26 -17 39 11 6 15 23 35 36 46 14 11 25 26 25 34 0 12 4 12 21 2 34 -20
99 -91 98 -108 0 -10 -2 -11 -6 -2 -2 6 -14 12 -25 12 -14 0 -18 -5 -14 -15 3
-10 -1 -15 -13 -15 -10 0 -24 -7 -31 -15 -7 -8 -18 -14 -24 -13 -20 3 -82 -66
-89 -100 -5 -23 -3 -32 7 -32 11 0 32 -42 23 -45 -1 0 -19 -8 -40 -18 -21 -9
-43 -17 -50 -17 -7 0 -28 -16 -47 -35 -37 -38 -50 -43 -50 -20 0 22 52 135 62
135 4 0 8 7 8 15 0 23 -22 18 -47 -12 -13 -14 -23 -22 -23 -17 1 16 24 51 58
88 36 40 38 46 18 46 -22 0 -104 -100 -123 -149 -16 -41 -16 -44 0 -56 22 -16
22 -16 -18 -96 l-35 -70 25 -9 c14 -5 25 -17 25 -26 0 -11 6 -15 20 -11 22 6
26 -3 9 -20 -8 -8 -20 -7 -45 3 -43 18 -54 18 -54 -1 0 -8 -7 -15 -15 -15 -17
0 -20 -16 -4 -26 8 -4 8 -9 0 -17 -17 -17 -13 -25 16 -40 l26 -14 -38 -7 c-23
-5 -42 -3 -48 3 -6 6 -19 11 -28 11 -10 0 -34 9 -54 21 -27 16 -38 19 -49 10
-16 -14 -63 -5 -87 16 -10 8 -31 15 -49 15 -31 1 -32 2 -27 42 3 23 15 79 27
126 24 96 32 138 55 300 9 63 19 132 22 153 3 22 12 41 21 44 9 4 29 22 45 40
18 20 38 33 53 33 15 0 24 6 24 15 0 8 -9 15 -20 15 -20 0 -20 1 -3 25 10 13
23 25 29 25 6 0 17 7 24 15 15 18 59 20 94 4z m2111 -341 c-3 -194 -7 -560
-10 -813 -6 -590 -14 -785 -31 -785 -12 0 -12 472 1 1175 2 143 4 376 5 518 0
251 0 257 20 257 20 0 20 -4 15 -352z m-487 317 c-2 -6 -8 -9 -14 -7 -13 3
-26 -50 -18 -72 5 -14 -23 -26 -64 -26 l-24 0 4 -715 c1 -392 0 -711 -3 -707
-13 13 -19 279 -19 859 -1 498 -3 583 -15 593 -16 13 -20 47 -7 67 4 7 38 13
77 15 87 5 87 5 83 -7z m42 -272 c0 -153 3 -566 6 -918 4 -352 4 -638 1 -634
-4 3 -9 354 -12 780 -4 425 -8 836 -9 912 -1 75 1 137 6 137 4 0 8 -125 8
-277z m-25 -728 l8 -501 -28 -12 -28 -13 9 553 c4 304 9 618 9 698 2 470 18
83 30 -725z m-1875 890 c-7 -9 -15 -13 -17 -11 -7 7 7 26 19 26 6 0 6 -6 -2
-15z m1568 -21 c3 -20 -2 -22 -50 -26 -29 -3 -118 -4 -198 -4 -142 1 -145 1
-148 23 -3 22 -1 22 125 26 248 6 268 5 271 -19z m249 -331 c-4 -186 -7 -575
-7 -865 0 -527 0 -528 -21 -528 -19 0 -20 5 -19 93 0 50 -2 440 -6 865 l-7
772 33 0 33 0 -6 -337z m-1252 298 c-3 -6 -14 -11 -23 -11 -13 0 -13 2 4 14
21 15 30 14 19 -3z m717 -58 c3 -27 5 -219 7 -428 l2 -380 -26 -25 c-15 -14
-35 -43 -46 -65 -26 -56 -69 -102 -101 -110 l-28 -7 5 408 c3 225 7 446 11
491 l6 81 68 7 c67 7 85 18 79 51 -3 16 1 24 10 24 5 0 11 -21 13 -47z m148
-2 c0 -48 0 -48 -37 -55 -55 -9 -83 -7 -83 4 0 6 14 10 30 10 17 0 30 5 30 11
0 6 -14 9 -32 7 -31 -3 -33 -1 -36 35 l-3 37 65 0 66 0 0 -49z m-190 11 c0
-17 -11 -20 -112 -27 -70 -5 -102 -11 -83 -14 26 -5 30 -11 33 -42 3 -33 0
-36 -33 -46 -36 -11 -75 -7 -75 8 0 4 19 12 43 17 l42 10 -42 1 c-36 1 -43 4
-43 21 0 12 10 24 23 30 15 6 -9 9 -79 9 -84 1 -103 4 -108 17 -3 9 -4 20 -1
24 3 5 102 9 220 10 205 1 215 0 215 -18z m98 -439 c-2 -247 -6 -357 -14 -360
-8 -3 -13 100 -17 349 -3 194 -3 356 -1 360 3 5 12 8 20 8 12 0 14 -50 12
-357z m90 15 l-3 -343 -32 -3 -33 -3 0 339 c0 186 3 342 7 345 3 4 19 7 35 7
l28 0 -2 -342z m-427 11 c-1 -145 -1 -367 -1 -492 0 -147 -4 -227 -10 -225
-15 5 -22 975 -7 981 7 2 13 3 15 2 1 -1 3 -121 3 -266z m77 -173 c-5 -392 -7
-436 -23 -460 -10 -15 -21 -23 -24 -17 -9 14 -14 850 -6 884 5 20 13 27 32 27
l26 0 -5 -434z m-448 404 c0 -5 -4 -10 -10 -10 -5 0 -10 5 -10 10 0 6 5 10 10
10 6 0 10 -4 10 -10z m110 -25 c0 -20 -5 -25 -27 -27 -41 -2 -47 -3 -60 -11
-6 -4 -14 -3 -17 2 -5 8 73 56 97 60 4 1 7 -10 7 -24z m-160 -10 c0 -8 -7 -15
-15 -15 -16 0 -20 12 -8 23 11 12 23 8 23 -8z m20 -55 c0 -5 -4 -10 -10 -10
-5 0 -10 5 -10 10 0 6 5 10 10 10 6 0 10 -4 10 -10z m110 1 c0 -5 -7 -11 -15
-15 -15 -5 -20 5 -8 17 9 10 23 9 23 -2z m-16 -37 c27 -10 18 -25 -11 -18 -23
6 -25 4 -19 -11 4 -11 2 -22 -6 -26 -8 -5 -3 -10 15 -14 34 -9 35 -25 2 -25
-16 0 -25 -6 -25 -15 0 -8 9 -15 20 -15 11 0 20 -4 20 -10 0 -5 -13 -10 -30
-10 -20 0 -30 -5 -30 -15 0 -8 -4 -15 -9 -15 -19 0 -4 -53 17 -61 20 -8 20 -8
2 -44 -10 -20 -23 -42 -30 -50 -7 -9 -8 -15 -1 -20 6 -3 16 -15 21 -26 9 -16
7 -21 -15 -29 -25 -10 -27 -32 -2 -26 7 1 9 1 5 -1 -16 -9 -7 -23 15 -23 21
-1 20 -2 -6 -16 -15 -8 -32 -12 -38 -8 -6 4 -15 1 -19 -7 -7 -10 -14 -8 -32
11 -22 23 -23 33 -23 128 0 94 -9 130 -22 82 -5 -20 -23 -28 -23 -10 0 15 23
60 31 60 10 0 29 58 29 91 0 16 5 29 11 29 6 0 9 -12 7 -27 -2 -20 2 -28 12
-28 10 0 16 12 18 40 3 32 11 47 45 77 45 40 47 41 71 32z m-255 -88 c-41 -40
-75 -72 -77 -71 -6 5 17 51 36 74 17 19 95 69 111 71 3 0 -29 -33 -70 -74z
m-109 -46 c0 -5 -4 -10 -10 -10 -5 0 -10 5 -10 10 0 6 5 10 10 10 6 0 10 -4
10 -10z m137 -12 c-51 -214 -49 -331 7 -378 9 -7 16 -19 16 -26 0 -8 7 -14 15
-14 8 0 24 -21 35 -47 12 -26 34 -69 51 -94 16 -26 29 -59 29 -77 0 -19 8 -39
22 -52 26 -24 32 -25 48 -5 7 8 16 15 20 15 9 0 70 -116 70 -133 0 -7 -9 -18
-20 -25 -32 -20 -52 -80 -48 -144 3 -38 0 -58 -7 -58 -6 0 -30 -12 -53 -27
-32 -21 -51 -46 -83 -109 l-41 -82 -167 -57 c-166 -57 -221 -72 -221 -62 0 37
29 121 56 160 18 26 36 65 40 85 18 99 61 246 74 252 73 33 75 36 78 72 2 20
-4 63 -13 97 -8 33 -20 120 -26 193 -5 73 -16 152 -24 175 -19 55 -19 84 0
158 20 79 56 154 76 160 9 3 24 14 34 25 24 27 39 25 32 -2z m-212 -128 c3 -5
2 -10 -4 -10 -5 0 -13 5 -16 10 -3 6 -2 10 4 10 5 0 13 -4 16 -10z m42 -16
c-3 -3 -12 -4 -19 -1 -8 3 -5 6 6 6 11 1 17 -2 13 -5z m193 -65 c0 -37 -4 -58
-10 -54 -5 3 -10 31 -10 61 0 30 5 54 10 54 6 0 10 -27 10 -61z m-205 20 c15
-14 -7 -10 -35 7 l-25 15 25 -7 c14 -3 29 -10 35 -15z m-415 -48 c-5 -11 -10
-32 -10 -47 0 -22 -2 -25 -15 -14 -12 10 -16 10 -19 -1 -2 -8 -9 -29 -15 -48
-6 -19 -12 -86 -12 -150 -1 -117 -13 -263 -19 -226 -3 23 -7 103 -9 193 -3
101 36 246 79 294 21 23 33 22 20 -1z m78 -66 c-3 -78 5 -96 42 -94 11 1 10 3
-2 6 -24 6 -23 23 2 23 27 0 25 18 -2 23 -19 4 -18 4 5 6 31 1 28 21 -4 21
-10 0 -19 4 -19 10 0 5 13 7 28 4 23 -5 29 -2 29 13 0 10 -7 23 -16 30 -19 15
-2 17 31 4 13 -6 49 -13 81 -16 46 -5 56 -9 47 -20 -11 -13 6 -25 36 -25 12 0
12 4 3 21 -6 12 -7 20 -2 17 47 -22 63 -34 74 -57 8 -14 18 -29 22 -32 4 -3
10 -46 14 -95 7 -112 -9 -102 -26 16 -18 125 -15 120 -73 120 l-51 0 7 -72 c4
-40 16 -111 27 -158 45 -188 49 -206 43 -247 l-6 -43 -49 0 c-44 0 -49 -3 -55
-25 -6 -22 -11 -25 -54 -25 -86 0 -135 34 -94 65 18 14 18 14 -3 15 -13 0 -23
6 -23 14 0 9 9 12 28 10 25 -4 24 -3 -8 13 -26 12 -31 18 -17 20 21 5 22 19 3
26 -20 8 -15 49 6 55 24 6 23 18 -2 25 -11 3 -20 10 -20 16 0 6 9 11 20 11 11
0 20 5 20 11 0 6 -7 9 -15 5 -9 -3 -15 0 -15 9 0 7 10 15 23 18 21 3 21 4 -6
15 -31 13 -28 32 6 33 l22 0 -22 9 c-28 12 -30 30 -3 23 11 -3 20 -1 20 5 0 5
-9 12 -20 15 -11 3 -20 13 -20 22 0 9 -6 15 -12 12 -10 -3 -13 -54 -15 -201
-1 -109 -4 -200 -7 -203 -3 -3 -12 -3 -19 0 -18 7 -24 76 -26 307 -1 96 -5
186 -8 200 -6 23 -5 24 11 11 21 -17 20 -18 35 52 7 31 17 57 22 57 5 0 8 -34
7 -75z m-51 43 c-3 -8 -6 -5 -6 6 -1 11 2 17 5 13 3 -3 4 -12 1 -19z m606 -74
c11 -14 16 -28 13 -31 -8 -9 -46 27 -46 44 0 20 13 15 33 -13z m-647 -154 c-1
-78 -6 -115 -14 -118 -13 -4 -17 -23 -4 -21 19 3 25 -2 12 -11 -13 -9 -13 -11
0 -20 13 -9 13 -11 0 -21 -11 -8 -12 -12 -2 -16 17 -7 15 -33 -3 -33 -22 0
-18 -17 6 -23 12 -3 18 -10 15 -16 -4 -6 -13 -8 -20 -5 -8 3 -17 1 -21 -5 -3
-7 2 -11 14 -11 33 0 33 -17 1 -22 l-31 -5 6 181 c7 208 12 272 21 288 15 23
22 -30 20 -142z m1654 121 c13 -10 35 -37 48 -62 l23 -44 -24 -3 c-20 -3 -26
-10 -31 -41 -3 -21 -13 -44 -21 -51 -18 -15 -20 1 -3 18 9 9 9 12 1 12 -7 0
-15 -5 -18 -10 -4 -6 -15 -8 -26 -5 -13 5 -28 -3 -49 -24 -34 -34 -27 -46 17
-29 62 23 126 -19 142 -92 6 -25 20 -85 32 -135 49 -207 20 -393 -79 -507 -38
-43 -43 -72 -7 -38 58 55 134 218 135 289 1 24 2 24 11 7 7 -11 9 -38 5 -68
-5 -39 -4 -49 6 -46 7 3 15 15 16 29 6 44 19 41 41 -10 26 -62 26 -91 1 -141
-12 -24 -16 -41 -10 -45 6 -3 15 6 20 20 9 23 13 25 25 15 8 -7 15 -21 15 -31
0 -10 5 -21 10 -24 6 -3 10 -28 10 -56 0 -27 2 -49 4 -49 3 0 21 10 41 22 31
17 38 19 46 7 14 -22 11 -29 -11 -29 -11 0 -20 -5 -20 -12 0 -6 -3 -8 -6 -5
-4 4 -19 -2 -33 -12 -25 -18 -101 -44 -108 -37 -2 2 14 11 36 19 21 9 42 21
45 26 9 14 -14 25 -27 12 -6 -6 -19 -11 -29 -11 -10 0 -21 -6 -24 -14 -12 -30
-173 -81 -294 -93 -25 -3 -49 -10 -55 -17 -12 -15 -179 -83 -215 -88 -24 -3
-26 1 -61 142 -141 575 -142 579 -131 618 6 20 18 69 27 107 45 185 90 265
150 265 33 0 101 73 109 115 9 45 32 71 91 105 42 24 58 28 100 23 28 -3 61
-13 75 -22z m-1267 2 c45 -151 81 -423 59 -445 -7 -7 -12 -20 -12 -30 0 -20
-19 -25 -21 -5 -1 6 0 39 1 72 1 33 -3 72 -9 87 -8 20 -7 29 5 38 7 7 14 27
14 44 0 35 -24 144 -34 153 -14 15 -17 -9 -6 -65 15 -76 8 -115 -9 -53 -22 76
-39 191 -28 191 5 0 7 7 3 15 -3 10 1 15 13 15 10 0 21 -8 24 -17z m422 -5
c30 -29 48 -103 32 -130 -9 -14 -9 -20 1 -27 10 -6 10 -14 2 -36 -8 -21 -8
-30 1 -36 7 -4 9 -17 5 -34 -6 -25 -8 -26 -20 -10 -8 12 -19 16 -30 12 -14 -6
-16 -3 -10 16 3 12 11 27 16 34 11 14 1 36 -13 27 -6 -3 -17 -3 -26 0 -12 5
-13 9 -3 21 16 19 3 40 -16 24 -18 -15 -20 11 -1 30 10 11 10 14 0 18 -7 3
-13 10 -13 17 0 7 -9 21 -20 31 -11 10 -20 22 -20 27 0 14 28 9 34 -7 9 -25
29 -18 22 9 -10 42 21 49 59 14z m889 -188 c-8 -38 11 -40 24 -2 6 16 11 20
11 10 1 -19 -19 -68 -28 -68 -3 0 -14 7 -24 15 -18 13 -18 15 -1 44 23 39 25
39 18 1z m-94 -10 c0 -5 -5 -10 -11 -10 -5 0 -7 5 -4 10 3 6 8 10 11 10 2 0 4
-4 4 -10z m-665 -41 c4 -10 15 -19 27 -19 16 0 55 -17 88 -38 2 -2 -2 -7 -9
-12 -11 -6 -5 -16 23 -40 43 -38 41 -52 -3 -21 -43 31 -48 9 -5 -24 44 -34 37
-45 -11 -16 -20 11 -43 21 -51 21 -27 0 -14 -15 31 -33 25 -11 45 -25 45 -33
0 -11 -4 -12 -17 -4 -10 6 -34 16 -54 23 -46 15 -112 91 -104 118 4 11 2 19
-3 19 -11 0 -10 69 2 88 10 16 32 0 41 -29z m-445 -104 c5 -16 10 -50 12 -75
2 -40 0 -45 -20 -48 -21 -3 -22 -1 -12 18 9 16 9 42 1 103 -13 98 -13 168 1
87 5 -30 13 -68 18 -85z m625 5 c3 -6 0 -10 -7 -10 -15 0 -38 19 -38 32 0 10
36 -8 45 -22z m1397 8 c-6 -6 -15 -8 -19 -4 -4 4 -1 11 7 16 19 12 27 3 12
-12z m-2625 -40 c-3 -7 -5 -2 -5 12 0 14 2 19 5 13 2 -7 2 -19 0 -25z m2464
-22 c-18 -22 -71 -38 -71 -22 0 12 41 33 69 35 10 1 11 -2 2 -13z m-2428 -43
c3 -24 1 -43 -4 -43 -5 0 -9 21 -9 47 0 56 5 54 13 -4z m2233 -39 c-25 -18
-36 -18 -36 0 0 8 10 16 23 18 31 5 35 -1 13 -18z m-2156 6 c0 -5 -9 -10 -20
-10 -11 0 -20 5 -20 10 0 6 9 10 20 10 11 0 20 -4 20 -10z m939 -47 c13 -49
30 -126 31 -135 0 -5 -13 -8 -30 -8 -23 0 -30 4 -30 20 0 11 -4 20 -10 20 -5
0 -10 9 -10 20 0 11 -4 20 -10 20 -14 0 -13 23 3 51 32 62 42 64 56 12z m-539
-2 c0 -26 -38 -218 -52 -260 -6 -19 -39 -73 -74 -121 -35 -48 -64 -92 -64 -97
0 -6 -6 -16 -13 -22 -11 -8 -18 -6 -33 10 -23 25 -113 69 -142 69 -13 0 -22 6
-22 15 0 22 107 125 130 125 23 0 37 20 20 30 -8 5 -12 42 -13 113 l-2 105 69
4 c57 3 72 8 85 26 22 30 111 32 111 3z m1620 4 c0 -8 -7 -15 -15 -15 -8 0
-18 0 -22 -1 -17 -1 -13 20 4 24 31 8 33 7 33 -8z m-130 -131 c0 -76 -4 -124
-10 -124 -6 0 -10 50 -10 131 0 84 4 128 10 124 6 -4 10 -58 10 -131z m-43 71
c0 -9 -10 -15 -24 -15 -22 0 -30 10 -16 23 12 13 40 7 40 -8z m-898 -112 c27
6 31 3 37 -21 4 -15 17 -66 29 -114 13 -49 19 -85 14 -83 -5 3 -11 -4 -13 -17
-10 -47 -26 -231 -26 -303 l0 -74 -34 -6 c-56 -11 -127 15 -154 55 -13 19 -27
36 -33 38 -14 5 -10 -31 6 -52 8 -11 15 -24 15 -28 0 -12 -52 -1 -65 14 -29
30 -46 130 -25 143 5 3 7 24 5 45 -3 33 -1 40 15 40 14 0 19 -12 26 -67 9 -71
32 -88 26 -20 -2 21 1 37 7 37 5 0 11 15 13 33 3 28 6 32 31 30 15 -1 27 2 27
7 0 16 -48 23 -79 12 -33 -12 -41 -8 -41 23 0 89 77 208 159 246 49 24 70 47
31 34 -11 -4 -20 -2 -20 4 0 6 -13 11 -29 11 -36 0 -84 -37 -76 -58 6 -17 -24
-82 -37 -82 -5 0 -8 -6 -8 -14 0 -8 -5 -18 -11 -22 -9 -5 -10 4 -5 32 13 69
42 121 78 140 43 23 91 33 99 21 4 -6 21 -7 38 -4z m-89 -53 c-19 -10 -37 -16
-40 -13 -9 8 33 33 54 33 16 -1 13 -5 -14 -20z m1347 -162 c-2 -18 -4 -4 -4
32 0 36 2 50 4 33 2 -18 2 -48 0 -65z m-184 -48 c2 -87 0 -103 -15 -111 -29
-15 -35 -11 -48 39 -7 26 -22 59 -32 74 -17 25 -25 88 -11 101 3 4 28 5 55 3
l48 -4 3 -102z m497 56 c0 -8 -30 -26 -72 -42 -40 -16 -75 -31 -78 -35 -3 -3
-16 -10 -30 -14 -14 -4 -53 -20 -87 -37 -35 -16 -67 -27 -72 -24 -5 4 -13 0
-18 -7 -13 -21 -97 -57 -108 -45 -15 14 26 44 88 63 28 9 66 23 82 30 17 8 53
21 80 30 28 10 86 35 130 56 43 22 80 39 82 39 2 0 3 -6 3 -14z m-1807 -76
c-14 -52 -18 -58 -25 -40 -5 14 -3 26 6 36 8 7 17 28 21 45 4 17 9 28 11 26 3
-2 -3 -32 -13 -67z m1450 0 c2 -25 -3 -34 -20 -41 -22 -8 -23 -7 -23 54 l0 61
21 -20 c11 -12 21 -36 22 -54z m-1493 52 c0 -13 -34 -28 -190 -83 -184 -64
-203 -70 -209 -64 -8 9 13 23 59 38 116 40 272 97 288 106 21 13 52 14 52 3z
m1577 -34 c-3 -8 -6 -5 -6 6 -1 11 2 17 5 13 3 -3 4 -12 1 -19z m-1167 -135
c18 -76 40 -169 50 -208 10 -38 17 -72 14 -74 -2 -2 -12 3 -22 12 -10 10 -30
17 -44 17 -48 0 -63 32 -63 134 0 76 21 256 30 256 1 0 17 -62 35 -137z m-986
96 c25 -11 47 -27 50 -35 5 -13 2 -13 -22 -1 -77 41 -109 47 -124 24 -8 -13
-56 -19 -63 -7 -6 10 14 26 40 33 42 10 77 6 119 -14z m2418 -31 c-7 -7 -12
-8 -12 -2 0 14 12 26 19 19 2 -3 -1 -11 -7 -17z m-149 -39 c-6 -6 -7 3 -4 23
4 28 6 29 9 9 2 -13 0 -27 -5 -32z m-2325 23 c2 -7 -2 -10 -12 -6 -9 3 -16 11
-16 16 0 13 23 5 28 -10z m446 9 c3 -5 27 -12 53 -16 27 -4 62 -13 78 -20 17
-7 38 -16 49 -19 16 -5 17 -12 11 -44 -3 -20 -6 -54 -5 -74 0 -21 -1 -38 -3
-38 -9 0 -104 35 -126 47 -15 7 -32 13 -39 13 -25 0 -212 80 -212 90 0 4 33
17 73 29 39 12 79 26 87 31 19 12 27 12 34 1z m1846 -33 c0 -11 7 -26 17 -33
13 -9 13 -14 3 -20 -8 -5 -11 -4 -6 3 4 8 -7 10 -36 7 -34 -4 -38 -2 -20 5 16
7 22 18 22 40 0 18 4 29 10 25 6 -3 10 -16 10 -27z m180 -24 c0 -8 -5 -12 -10
-9 -6 4 -8 11 -5 16 9 14 15 11 15 -7z m-2551 -36 c0 -13 -3 -17 -6 -10 -4 10
-9 9 -20 -5 -14 -17 -14 -17 -9 0 3 10 6 23 6 28 0 5 7 9 15 9 9 0 15 -9 14
-22z m198 0 c-3 -8 -6 -5 -6 6 -1 11 2 17 5 13 3 -3 4 -12 1 -19z m2052 9 c28
7 33 -22 8 -44 -12 -11 -41 -27 -64 -36 -42 -16 -43 -16 -43 2 0 11 5 23 11
27 8 4 7 9 -2 15 -9 6 -3 7 18 4 29 -5 33 -2 39 22 4 15 9 23 11 16 2 -6 12
-9 22 -6z m-2199 -12 c10 -12 10 -15 -4 -15 -9 0 -16 7 -16 15 0 8 2 15 4 15
2 0 9 -7 16 -15z m2120 5 c0 -5 -4 -10 -10 -10 -5 0 -10 5 -10 10 0 6 5 10 10
10 6 0 10 -4 10 -10z m-1793 -22 c32 -11 67 -27 78 -33 11 -7 45 -20 75 -30
66 -21 73 -24 175 -66 44 -18 84 -37 89 -41 6 -4 25 -8 43 -8 20 0 33 -5 33
-12 0 -7 35 -24 78 -37 42 -14 91 -33 107 -43 17 -10 38 -18 48 -18 9 0 17 -4
17 -10 0 -5 -6 -10 -13 -10 -19 0 -284 95 -375 136 -18 7 -40 14 -48 14 -9 0
-28 7 -42 14 -47 26 -125 57 -207 83 -113 35 -135 46 -135 65 0 23 7 23 77 -4z
m1998 -17 c3 -5 -3 -16 -13 -23 -33 -23 -36 -53 -7 -68 19 -10 25 -21 25 -47
0 -18 5 -33 10 -33 16 0 12 -37 -5 -44 -12 -4 -15 2 -15 28 0 44 -9 66 -26 66
-10 0 -14 -14 -14 -51 0 -36 -3 -48 -12 -43 -7 5 -9 2 -6 -8 9 -23 -5 -38 -30
-31 -15 3 -22 13 -22 29 0 25 15 33 23 12 3 -7 5 7 5 32 0 25 -3 35 -5 23 -2
-13 -11 -23 -18 -23 -7 0 -16 -10 -18 -22 -3 -18 -5 -17 -6 7 -1 26 -3 28 -16
14 -8 -8 -16 -28 -18 -44 -5 -42 -28 -75 -52 -75 -11 0 -30 -7 -42 -15 -12 -8
-29 -12 -38 -9 -10 4 -29 -2 -46 -15 -29 -21 -69 -22 -69 0 0 5 -7 9 -15 9 -8
0 -15 7 -15 15 0 8 -4 15 -10 15 -5 0 -10 -20 -10 -45 0 -42 -1 -44 -35 -51
-38 -7 -63 -28 -46 -39 6 -3 19 -1 30 5 34 18 85 12 120 -15 40 -29 108 -41
148 -27 26 10 25 10 -18 11 -25 1 -60 6 -78 12 -39 14 -101 67 -101 88 0 11 5
9 16 -7 19 -27 53 -28 87 -2 41 33 80 26 116 -19 25 -32 40 -40 86 -49 59 -12
94 -5 127 25 31 28 97 11 135 -34 18 -21 37 -38 42 -38 16 0 23 -12 25 -44 2
-36 -7 -41 -75 -41 -39 0 -67 9 -135 45 -84 44 -154 59 -169 35 -4 -6 9 -10
32 -10 39 0 115 -30 145 -56 27 -25 95 -41 149 -34 46 6 49 5 49 -16 0 -30 -4
-32 -83 -38 -62 -6 -72 -4 -154 33 -152 68 -185 72 -351 44 -111 -19 -122 -17
-234 29 -32 12 -58 26 -58 30 0 4 14 15 31 24 36 18 69 14 131 -17 47 -23 171
-38 181 -22 4 6 -17 12 -51 16 -65 6 -172 46 -172 65 0 6 -7 12 -15 12 -9 0
-15 9 -15 23 -1 21 -1 21 -23 -5 -13 -16 -27 -28 -33 -28 -5 0 -16 -6 -22 -12
-7 -7 -17 -14 -22 -14 -6 -1 -14 -2 -19 -3 -5 0 -11 -10 -14 -21 -3 -11 -12
-20 -20 -20 -9 0 -26 -4 -39 -9 -13 -5 -27 -10 -33 -11 -5 -2 -14 -9 -20 -16
-13 -18 -56 -7 -48 12 3 8 -9 1 -27 -16 -18 -16 -36 -30 -40 -30 -19 0 -38
114 -21 125 6 3 11 -2 11 -12 1 -14 6 -12 28 13 23 26 45 41 72 49 3 1 25 11
50 22 25 12 77 33 115 48 39 15 72 30 75 34 6 7 65 30 93 36 10 2 30 14 45 25
l27 22 6 -29 7 -28 1 28 c1 20 9 31 29 40 15 6 30 15 33 20 3 5 8 8 10 7 9 -4
59 13 59 20 0 4 21 15 48 25 73 27 136 57 142 66 3 5 17 11 30 13 14 2 27 5
30 6 3 2 9 2 13 1 4 -1 15 12 25 29 18 31 27 36 37 21z m-2455 -13 c0 -13 -69
-48 -150 -76 -25 -8 -63 -23 -85 -32 -67 -29 -85 -33 -85 -18 0 8 34 27 77 43
42 17 113 44 157 61 45 18 82 32 84 33 1 0 2 -5 2 -11z m50 8 c0 -3 -4 -8 -10
-11 -5 -3 -10 -1 -10 4 0 6 5 11 10 11 6 0 10 -2 10 -4z m2571 -9 c-1 -12 -15
-9 -19 4 -3 6 1 10 8 8 6 -3 11 -8 11 -12z m-421 -30 c0 -18 -11 -28 -56 -47
-31 -14 -60 -31 -66 -37 -6 -7 -14 -10 -19 -7 -5 3 -16 -2 -25 -11 -9 -9 -23
-14 -30 -11 -8 3 -14 1 -14 -3 0 -5 -20 -17 -45 -27 -81 -31 -57 -9 40 37 79
36 95 48 95 66 0 13 5 23 10 23 6 0 10 -4 10 -9 0 -5 9 -7 20 -4 11 3 20 9 20
14 0 5 7 9 15 9 9 0 18 7 21 15 9 23 24 18 24 -8z m312 -44 c2 -36 7 -48 19
-47 11 1 14 -6 11 -27 -5 -37 -38 -40 -44 -4 -3 14 -1 25 3 25 5 0 -1 17 -12
37 -15 27 -18 38 -9 41 9 3 9 7 -1 13 -10 6 -8 9 8 9 19 0 22 -6 25 -47z m97
15 c-11 -20 -14 -20 -17 -5 -2 9 -9 17 -15 18 -7 1 -1 4 13 8 32 10 34 8 19
-21z m-2423 -6 c-18 -16 -18 -16 -6 6 6 13 14 21 18 18 3 -4 -2 -14 -12 -24z
m-202 -9 c-9 -40 -16 -44 -52 -31 -40 16 -40 25 1 43 49 22 58 19 51 -12z
m2052 0 c-10 -10 -19 5 -10 18 6 11 8 11 12 0 2 -7 1 -15 -2 -18z m-1701 -3
c3 -5 1 -10 -4 -10 -6 0 -11 5 -11 10 0 6 2 10 4 10 3 0 8 -4 11 -10z m1475
-11 c-25 -12 -66 -32 -92 -45 -27 -13 -53 -24 -60 -24 -6 0 -19 -7 -28 -15 -9
-8 -25 -16 -36 -18 -10 -2 -30 -9 -42 -16 -13 -7 -26 -10 -29 -7 -3 3 -23 -4
-44 -14 -47 -24 -49 -24 -50 -2 -1 16 -2 16 -6 0 -6 -23 -21 -23 -25 -1 -3 19
-4 18 176 83 43 16 82 33 85 38 3 5 26 12 51 16 25 4 63 11 85 16 62 12 63 11
15 -11z m-1262 -3 l23 -12 -40 -27 c-45 -30 -95 -39 -53 -10 20 14 21 17 6 28
-39 28 18 47 64 21z m1462 7 c0 -11 -111 -65 -118 -58 -3 3 0 5 6 5 6 0 17 6
24 13 17 15 70 46 81 47 4 0 7 -3 7 -7z m-1800 -63 c0 -52 -2 -59 -17 -53 -46
16 -45 24 4 106 10 16 13 4 13 -53z m-58 18 c-7 -7 -12 -8 -12 -2 0 14 12 26
19 19 2 -3 -1 -11 -7 -17z m-222 -13 c0 -12 -19 -12 -23 0 -4 9 -1 12 9 8 7
-3 14 -7 14 -8z m2510 -20 c0 -19 -4 -35 -10 -35 -5 0 -10 16 -10 35 0 19 5
35 10 35 6 0 10 -16 10 -35z m176 26 c-3 -5 1 -14 9 -21 8 -7 15 -18 15 -24 0
-7 -3 -7 -8 -1 -13 18 -31 15 -42 -6 -9 -16 -14 -18 -26 -8 -15 12 -20 34 -5
25 4 -3 19 6 31 19 24 25 36 33 26 16z m-1528 -15 c25 10 32 7 60 -18 18 -15
39 -28 48 -28 18 0 74 -31 74 -41 0 -11 -43 -19 -54 -10 -6 5 -42 19 -81 31
-38 13 -79 29 -90 35 -11 7 -33 16 -48 19 -15 4 -25 10 -23 15 3 5 24 3 46 -2
29 -8 49 -8 68 -1z m-836 -18 c-7 -7 -12 -8 -12 -2 0 14 12 26 19 19 2 -3 -1
-11 -7 -17z m1628 18 c0 -3 -4 -8 -10 -11 -5 -3 -10 -1 -10 4 0 6 5 11 10 11
6 0 10 -2 10 -4z m-2053 -38 c-3 -7 -5 -2 -5 12 0 14 2 19 5 13 2 -7 2 -19 0
-25z m159 -5 c-11 -11 -17 4 -9 23 7 18 8 18 11 1 2 -10 1 -21 -2 -24z m719
-23 c72 -23 147 -48 168 -56 20 -8 46 -14 56 -14 10 0 24 -6 30 -14 7 -8 26
-18 42 -21 35 -8 38 -21 7 -30 -13 -4 -54 -21 -91 -37 -45 -19 -72 -26 -80
-20 -7 5 -43 20 -82 32 -38 12 -79 26 -90 30 -26 11 -194 64 -270 85 -33 9
-66 19 -74 21 -10 4 -7 9 12 19 15 8 39 21 54 29 14 8 38 13 52 10 14 -2 37 2
51 9 30 16 42 13 215 -43z m-988 18 c-3 -7 -5 -2 -5 12 0 14 2 19 5 13 2 -7 2
-19 0 -25z m2153 2 c0 -5 -9 -10 -20 -10 -11 0 -20 -4 -20 -9 0 -5 -10 -11
-22 -14 -39 -11 -32 2 13 23 52 23 49 23 49 10z m-1590 -20 c0 -5 -7 -10 -16
-10 -8 0 -12 5 -9 10 3 6 10 10 16 10 5 0 9 -4 9 -10z m2286 -15 c20 -14 47
-25 60 -25 46 0 24 -20 -23 -22 -48 -1 -71 -3 -108 -8 -17 -2 -17 -3 5 -10 23
-7 22 -8 -10 -9 -31 0 -93 31 -80 41 10 8 105 56 112 57 4 1 24 -10 44 -24z
m73 16 c7 -5 9 -11 4 -14 -6 -4 -19 0 -29 8 -15 11 -16 14 -4 15 8 0 21 -4 29
-9z m-2914 -11 c3 -5 1 -10 -4 -10 -6 0 -11 5 -11 10 0 6 2 10 4 10 3 0 8 -4
11 -10z m1555 -44 c0 -2 3 -11 6 -20 4 -12 -6 -21 -40 -36 -25 -10 -49 -19
-53 -19 -3 0 -9 -3 -12 -8 -3 -5 -32 -17 -63 -27 -32 -10 -58 -21 -58 -25 0
-4 -13 -15 -30 -24 -29 -18 -30 -18 -30 2 0 12 -5 21 -11 21 -6 0 -9 -8 -6
-19 4 -15 -9 -25 -65 -50 -38 -17 -73 -29 -78 -26 -4 3 -10 -2 -14 -10 -3 -8
-12 -15 -21 -15 -8 0 -15 -4 -15 -9 0 -16 -65 -21 -110 -8 l-45 14 50 22 c28
13 58 27 69 33 10 5 30 12 44 14 15 3 31 9 37 13 5 5 44 21 85 36 41 16 84 34
95 42 11 7 27 13 37 13 10 0 18 5 18 10 0 6 7 10 15 10 8 0 34 9 58 20 72 34
137 55 137 46z m410 -4 c0 -5 -19 -16 -42 -26 -24 -10 -61 -26 -83 -36 -61
-28 -79 -29 -83 -2 -2 12 1 22 7 22 6 0 11 -7 11 -15 0 -9 6 -12 15 -9 8 4 15
16 15 29 0 27 33 39 60 23 13 -8 27 -7 56 5 47 19 44 19 44 9z m100 4 c0 -3
-4 -8 -10 -11 -5 -3 -10 -1 -10 4 0 6 5 11 10 11 6 0 10 -2 10 -4z m607 -26
c59 -33 127 -41 137 -15 7 18 101 21 112 4 14 -23 -19 -38 -66 -29 -33 6 -49
4 -64 -6 -13 -9 -46 -14 -87 -14 -58 0 -71 4 -109 31 l-43 32 24 13 c33 18 35
18 96 -16z m-642 10 c-3 -5 -11 -10 -16 -10 -6 0 -7 5 -4 10 3 6 11 10 16 10
6 0 7 -4 4 -10z m550 -52 c29 -21 62 -34 93 -38 l47 -6 -32 -17 c-45 -24 -108
-13 -146 25 -16 15 -38 33 -49 39 -17 9 -18 13 -7 20 25 15 47 10 94 -23z
m-2308 -20 c-3 -8 -6 -5 -6 6 -1 11 2 17 5 13 3 -3 4 -12 1 -19z m1459 -26
c-10 -10 -29 15 -21 28 6 9 10 8 17 -4 6 -10 7 -20 4 -24z m-1544 -32 c-15
-55 -32 -80 -32 -46 0 16 37 106 44 106 2 0 -3 -27 -12 -60z m238 50 c0 -5 -2
-10 -4 -10 -3 0 -8 5 -11 10 -3 6 -1 10 4 10 6 0 11 -4 11 -10z m85 -2 c28
-13 32 -23 11 -31 -13 -5 -46 21 -46 36 0 10 5 9 35 -5z m2383 6 c18 -5 22
-13 22 -50 0 -51 -24 -62 -40 -19 -5 14 -18 28 -27 32 -27 9 -43 24 -37 34 6
10 48 12 82 3z m-1351 -21 c-9 -9 -19 -14 -23 -11 -10 10 6 28 24 28 15 0 15
-1 -1 -17z m53 -48 c0 -10 -47 -35 -65 -35 -2 0 1 44 4 46 0 1 15 1 31 2 19 0
30 -4 30 -13z m-1368 -47 c-9 -9 -12 -7 -12 12 0 19 3 21 12 12 9 -9 9 -15 0
-24z m1228 -8 c0 -11 -5 -20 -11 -20 -6 0 -47 -18 -90 -40 -87 -44 -89 -44
-89 -30 0 5 20 19 45 30 25 12 43 25 40 31 -6 9 66 47 93 48 6 1 12 -8 12 -19z
m50 10 c0 -5 -4 -10 -10 -10 -5 0 -10 5 -10 10 0 6 5 10 10 10 6 0 10 -4 10
-10z m117 -58 c15 -34 10 -59 -7 -32 -8 13 -10 13 -10 1 0 -8 -3 -12 -6 -9
-13 13 -57 -9 -61 -30 -1 -12 2 -22 8 -22 8 0 8 -5 -1 -15 -14 -17 -36 -20
-45 -6 -3 5 2 16 10 24 27 28 16 37 -20 15 -20 -11 -47 -21 -60 -20 -28 0 -45
-17 -48 -45 -1 -19 -22 -24 -44 -10 -14 9 -27 -9 -18 -23 6 -10 -5 -17 -40
-22 -14 -2 -19 2 -17 15 2 9 -2 17 -8 17 -22 0 -8 19 30 39 31 16 40 17 40 7
0 -9 7 -12 20 -9 13 3 20 14 20 29 0 23 9 28 38 25 7 -1 11 4 10 10 -2 7 12
17 30 22 21 7 32 16 32 29 0 12 -4 17 -12 12 -9 -5 -10 -4 -3 3 15 16 55 26
55 14 0 -6 11 -11 25 -11 20 0 25 5 25 24 0 28 33 41 38 16 2 -8 10 -30 19
-48z m495 -28 c67 -28 114 -30 246 -8 124 20 170 14 273 -34 91 -43 188 -59
246 -43 18 5 35 6 38 2 11 -18 -24 -41 -82 -52 -73 -15 -110 -9 -245 40 -99
35 -162 39 -248 16 -100 -27 -185 -17 -293 35 -34 16 -81 34 -104 40 -24 6
-43 13 -43 15 0 2 15 9 33 14 43 13 110 3 179 -25z m-222 -14 c29 -5 87 -25
129 -44 111 -51 188 -62 303 -47 51 8 110 15 130 18 27 4 56 -3 105 -25 122
-53 225 -74 266 -54 27 13 90 33 92 30 1 -2 -1 -27 -3 -55 l-4 -53 -153 0
c-167 0 -215 6 -215 26 0 43 -133 60 -221 29 -54 -19 -216 -23 -247 -6 -13 7
-48 20 -80 31 -31 10 -89 35 -129 54 -39 20 -78 36 -87 36 -9 0 -16 7 -16 16
0 26 25 44 71 53 4 0 30 -3 59 -9z m-1880 -66 c0 -4 -9 1 -20 11 -11 10 -20
25 -20 33 0 9 7 6 20 -11 11 -14 20 -29 20 -33z m1220 50 c0 -10 -33 -33 -47
-34 -21 0 -14 20 10 30 27 11 37 12 37 4z m-250 -36 c0 -13 -23 -5 -28 10 -2
7 2 10 12 6 9 -3 16 -11 16 -16z m-910 0 c0 -6 11 -26 25 -44 14 -18 25 -36
25 -41 0 -4 -12 9 -27 30 -14 20 -30 37 -35 37 -4 0 -8 7 -8 15 0 8 5 15 10
15 6 0 10 -5 10 -12z m1025 -27 c6 -11 -33 -36 -42 -27 -7 7 16 36 28 36 4 0
10 -4 14 -9z m558 -23 c8 -29 3 -32 -21 -17 -11 7 -18 19 -15 26 8 21 30 15
36 -9z m252 -38 c57 -27 111 -50 119 -50 8 0 18 -5 21 -10 4 -6 -38 -10 -118
-10 l-124 0 -15 53 c-24 83 -22 84 117 17z m-1590 29 c11 -17 2 -18 -19 -3
-17 12 -17 14 -4 14 9 0 20 -5 23 -11z m1305 -26 c27 -15 51 -36 54 -47 8 -30
-2 -32 -24 -4 -32 41 -106 71 -163 65 -29 -2 -43 -1 -35 4 7 5 37 9 67 9 39 0
65 -7 101 -27z m-1220 1 c0 -8 -4 -12 -10 -9 -5 3 -10 10 -10 16 0 5 5 9 10 9
6 0 10 -7 10 -16z m755 -34 c4 0 15 5 26 10 10 6 19 7 19 2 0 -17 -38 -43 -72
-49 -30 -4 -36 -2 -41 16 -4 15 2 26 21 40 27 19 27 19 34 0 4 -10 10 -19 13
-19z m25 36 c0 -3 -4 -8 -10 -11 -5 -3 -10 -1 -10 4 0 6 5 11 10 11 6 0 10 -2
10 -4z m-1130 -70 c0 -5 -11 3 -25 18 -14 15 -25 32 -25 39 0 13 49 -43 50
-57z m60 2 c0 -5 -4 -8 -10 -8 -5 0 -10 6 -10 14 0 7 -7 19 -15 26 -8 7 -15
18 -15 24 1 12 50 -44 50 -56z m1477 36 c29 -15 50 -31 47 -35 -6 -11 -194
-12 -194 -1 0 4 -13 13 -30 20 -55 25 -35 34 90 40 21 1 56 -9 87 -24z m-1617
-5 c0 -6 -4 -7 -10 -4 -5 3 -10 11 -10 16 0 6 5 7 10 4 6 -3 10 -11 10 -16z
m1100 -14 c0 -24 -3 -25 -61 -25 -43 0 -59 4 -57 12 7 19 67 31 84 17 11 -9
14 -8 14 5 0 9 5 16 10 16 6 0 10 -11 10 -25z m313 -14 c8 -8 -14 -11 -83 -10
-94 1 -95 1 -55 15 44 15 121 12 138 -5z m1104 13 c12 -3 24 -12 27 -20 4 -12
-17 -14 -127 -13 -128 1 -131 1 -84 14 27 7 51 16 55 19 7 8 100 7 129 0z
m-2307 -14 c0 -5 -4 -10 -10 -10 -5 0 -10 5 -10 10 0 6 5 10 10 10 6 0 10 -4
10 -10z m130 0 c0 -5 -4 -10 -10 -10 -5 0 -10 5 -10 10 0 6 5 10 10 10 6 0 10
-4 10 -10z m510 0 c0 -5 -5 -10 -11 -10 -5 0 -7 5 -4 10 3 6 8 10 11 10 2 0 4
-4 4 -10z"/>
<g>
<path d="M1715 3070 c-4 -6 10 -10 35 -10 25 0 39 4 35 10 -3 6 -19 10 -35 10
-16 0 -32 -4 -35 -10z"/>
</g>
<g>
<path d="M1723 3013 c9 -2 23 -2 30 0 6 3 -1 5 -18 5 -16 0 -22 -2 -12 -5z"/>
</g>
<g>
<path d="M275 3140 c-4 -6 30 -10 94 -10 61 0 101 -4 101 -10 0 -5 5 -10 10
-10 6 0 10 9 10 20 0 19 -7 20 -104 20 -59 0 -108 -4 -111 -10z"/>
</g>
<g>
<path d="M30 3032 c0 -4 34 -8 76 -10 51 -2 74 1 69 8 -7 11 -145 14 -145 2z"/>
</g>
<g>
<path d="M275 3030 c-4 -6 23 -10 74 -10 47 0 81 4 81 10 0 6 -31 10 -74 10
-41 0 -78 -4 -81 -10z"/>
</g>
<g>
<path d="M210 2990 c19 -13 30 -13 30 0 0 6 -10 10 -22 10 -19 0 -20 -2 -8
-10z"/>
</g>
<g>
<path d="M360 2980 c0 -5 4 -10 9 -10 6 0 13 5 16 10 3 6 -1 10 -9 10 -9 0
-16 -4 -16 -10z"/>
</g>
<g>
<path d="M1425 3050 c27 -12 35 -12 35 0 0 6 -12 10 -27 9 -25 0 -26 -1 -8 -9z"/>
</g>
<g>
<path d="M1237 2993 c-3 -5 8 -8 24 -9 16 -1 29 3 29 7 0 11 -47 12 -53 2z"/>
</g>
<g>
<path d="M1390 2990 c0 -5 5 -10 10 -10 6 0 10 5 10 10 0 6 -4 10 -10 10 -5 0
-10 -4 -10 -10z"/>
</g>
<g>
<path d="M576 2858 c-18 -25 -21 -48 -7 -48 10 0 34 60 27 67 -2 2 -11 -6 -20
-19z"/>
</g>
<g>
<path d="M1033 2641 l-21 -27 24 1 c25 0 44 19 44 43 0 21 -24 12 -47 -17z"/>
</g>
<g>
<path d="M1016 2555 c-14 -11 -17 -18 -9 -26 13 -13 53 9 53 28 0 17 -20 16
-44 -2z"/>
</g>
<g>
<path d="M560 1920 c0 -5 9 -10 21 -10 11 0 17 5 14 10 -3 6 -13 10 -21 10 -8
0 -14 -4 -14 -10z"/>
</g>
<g>
<path d="M1924 1937 c-42 -43 -64 -75 -68 -98 -10 -48 -37 -98 -51 -93 -22 9
-96 -71 -120 -129 -22 -53 -4 -45 23 11 24 48 96 110 107 92 9 -15 25 -12 25
4 0 7 7 19 15 26 18 15 21 -1 4 -32 -8 -14 -8 -23 0 -31 7 -7 13 -2 21 19 5
16 15 37 20 46 6 10 10 22 10 28 0 5 12 35 26 66 14 31 23 58 20 61 -12 12
-35 -20 -57 -79 -12 -34 -24 -57 -26 -51 -2 6 6 35 17 66 15 40 35 68 67 97
25 22 50 40 54 40 5 0 9 5 9 10 0 26 -40 4 -96 -53z"/>
</g>
<g>
<path d="M2096 1075 c-9 -13 -16 -27 -16 -31 0 -18 -89 -102 -133 -126 -27
-16 -42 -28 -33 -28 55 0 152 90 206 190 15 29 -5 25 -24 -5z"/>
</g>
<g>
<path d="M1276 1022 c-9 -15 9 -24 37 -17 23 6 65 -2 110 -20 12 -5 17 -2 17
8 0 19 -16 25 -94 33 -40 4 -66 3 -70 -4z"/>
</g>
<g>
<path d="M2620 715 c0 -18 4 -23 15 -19 8 4 15 15 15 25 0 10 -7 19 -15 19 -9
0 -15 -9 -15 -25z"/>
</g>
<g>
<path d="M2501 654 c0 -11 3 -14 6 -6 3 7 2 16 -1 19 -3 4 -6 -2 -5 -13z"/>
</g>
<g>
<path d="M2721 654 c0 -11 3 -14 6 -6 3 7 2 16 -1 19 -3 4 -6 -2 -5 -13z"/>
</g>
<g>
<path d="M2525 610 c-4 -6 -10 -8 -14 -6 -4 3 -7 -8 -7 -23 0 -41 29 -34 31 7
2 34 0 38 -10 22z m1 -30 c0 -12 -4 -16 -9 -11 -5 5 -6 14 -3 20 10 15 12 14
12 -9z"/>
</g>
<g>
<path d="M2240 460 c0 -5 5 -10 11 -10 5 0 7 5 4 10 -3 6 -8 10 -11 10 -2 0
-4 -4 -4 -10z"/>
</g>
<g>
<path d="M1834 316 c-8 -22 -2 -27 16 -16 12 7 12 12 3 21 -10 10 -14 9 -19
-5z"/>
</g>
</g>
<g>
<path d="M2148 5173 c6 -2 18 -2 25 0 6 3 1 5 -13 5 -14 0 -19 -2 -12 -5z"/>
</g>
<g>
<path d="M2258 5173 c17 -2 47 -2 65 0 17 2 3 4 -33 4 -36 0 -50 -2 -32 -4z"/>
</g>
<g>
<path d="M1486 5080 c-115 -3 -161 -9 -164 -17 -2 -8 5 -13 16 -13 23 0 62
-56 62 -88 0 -17 -7 -21 -37 -24 -20 -2 -38 -8 -40 -14 -5 -15 164 -26 206
-14 18 5 45 7 59 4 33 -6 84 8 90 24 2 8 -11 12 -42 12 -45 0 -46 1 -46 33 0
42 8 52 53 66 20 7 37 16 37 21 0 7 -29 23 -33 18 -1 -1 -74 -5 -161 -8z m62
-83 c3 -46 2 -47 -26 -47 -38 0 -42 6 -30 43 24 72 51 74 56 4z m-88 24 c0
-26 -16 -35 -24 -15 -10 25 -7 34 9 34 8 0 15 -9 15 -19z"/>
</g>
<g>
<path d="M231 3484 c-1 -25 -46 -59 -56 -44 -3 6 -12 10 -19 10 -11 0 -10 -8
3 -35 17 -36 31 -45 31 -21 0 8 12 23 26 33 20 15 25 25 21 49 -2 19 -5 22 -6
8z"/>
</g>
</g>
</svg>
