<?xml version="1.0" standalone="no"?>
<!DOCTYPE svg PUBLIC "-//W3C//DTD SVG 20010904//EN"
 "http://www.w3.org/TR/2001/REC-SVG-20010904/DTD/svg10.dtd">
<svg version="1.0" xmlns="http://www.w3.org/2000/svg"
 width="300.000000pt" height="541.000000pt" viewBox="0 0 300.000000 541.000000"
 preserveAspectRatio="xMidYMid meet">
<metadata>
Created by potrace 1.15, written by Peter Selinger 2001-2017
</metadata>
<g transform="translate(0.000000,541.000000) scale(0.100000,-0.100000)"
fill="#000000" stroke="none">
<g>
<path d="M2206 5402 c-3 -2 -896 -12 -1471 -16 -38 -1 -212 1 -387 4 -174 3
-319 2 -322 -1 -20 -20 -25 -421 -26 -1978 0 -949 2 -1723 4 -1720 6 6 16
1200 22 2494 2 638 8 1163 13 1168 4 4 314 10 687 12 373 2 688 4 699 4 11 0
173 1 360 2 438 2 715 6 840 13 55 2 160 2 233 -1 l132 -6 3 -1026 2 -1026 3
1043 2 1044 -396 -4 c-218 -1 -397 -4 -398 -6z"/>
</g>
<g>
<path d="M1270 5250 c0 -5 8 -10 18 -10 13 0 26 -19 45 -66 29 -70 28 -84 -6
-84 -15 0 -18 -3 -10 -11 14 -14 380 -2 389 12 3 5 -4 9 -15 9 -19 0 -21 6
-21 70 l0 70 29 0 c17 0 33 5 36 10 4 7 -75 10 -229 10 -151 0 -236 -4 -236
-10z m140 -20 c0 -6 -7 -27 -16 -48 l-15 -37 -13 25 c-8 14 -17 35 -20 48 -7
20 -4 22 28 22 20 0 36 -5 36 -10z m98 -62 l3 -68 -33 -1 c-18 0 -41 -2 -50
-4 -26 -5 -29 6 -13 58 22 74 33 89 63 85 26 -3 27 -6 30 -70z m62 2 c0 -56
-3 -70 -15 -70 -12 0 -15 14 -15 63 0 35 3 67 7 70 17 18 23 1 23 -63z m70 -5
c0 -58 -2 -65 -20 -65 -18 0 -20 7 -20 65 0 58 2 65 20 65 18 0 20 -7 20 -65z"/>
</g>
<g>
<path d="M574 4572 c-43 -32 -81 -84 -93 -130 -7 -26 -10 -27 -92 -32 -72 -5
-90 -10 -128 -35 -25 -17 -54 -45 -64 -63 -17 -28 -17 -37 -7 -63 15 -34 59
-69 88 -69 50 0 111 39 156 99 24 34 46 65 48 71 1 5 35 14 74 19 121 15 194
72 194 152 0 47 -27 71 -87 76 -41 4 -54 1 -89 -25z m120 -12 c5 -5 11 -30 13
-57 4 -46 3 -49 -31 -72 -27 -17 -55 -25 -106 -29 -64 -4 -70 -3 -70 14 0 21
32 90 53 116 34 43 111 58 141 28z m-246 -201 c8 -44 -101 -140 -161 -142 -47
-1 -67 17 -67 63 0 39 14 57 65 85 40 21 158 17 163 -6z"/>
</g>
<g>
<path d="M780 4455 c0 -5 4 -16 9 -24 11 -17 -7 -51 -26 -51 -7 0 -13 -7 -13
-15 0 -8 9 -15 20 -15 11 0 23 0 28 0 12 0 9 80 -5 98 -7 9 -12 13 -13 7z"/>
</g>
<g>
<path d="M825 4390 c-3 -5 -1 -10 4 -10 6 0 11 5 11 10 0 6 -2 10 -4 10 -3 0
-8 -4 -11 -10z"/>
</g>
<g>
<path d="M907 4363 c-4 -3 -7 -14 -7 -24 0 -10 -8 -23 -17 -28 -17 -10 -17
-12 1 -25 10 -8 16 -20 14 -26 -2 -6 -12 -2 -26 10 -25 24 -42 19 -42 -11 0
-16 -5 -19 -20 -14 -27 8 -51 -6 -25 -15 18 -6 17 -7 -3 -12 -23 -6 -28 6 -13
31 11 17 -8 41 -26 34 -7 -3 -13 -15 -13 -27 0 -32 -11 -39 -32 -19 -17 15
-18 15 -18 -5 0 -13 -6 -22 -15 -22 -17 0 -56 20 -66 34 -8 11 -15 -1 -24 -41
-6 -29 -4 -33 14 -33 12 0 21 -6 21 -15 0 -17 -25 -20 -35 -5 -9 15 -27 0 -21
-17 4 -10 0 -13 -17 -11 -18 2 -22 -1 -20 -19 3 -26 0 -27 -28 -13 -16 9 -19
7 -19 -14 0 -33 -9 -37 -49 -20 -26 11 -32 18 -26 31 12 31 11 48 -5 48 -8 0
-21 8 -28 18 -20 27 -32 20 -32 -17 0 -19 -6 -36 -12 -39 -23 -7 13 -39 37
-33 14 4 44 -9 93 -41 60 -39 69 -49 61 -64 -5 -10 -9 -28 -9 -40 0 -22 0 -22
-14 -3 -8 10 -10 21 -6 24 13 8 -13 55 -29 55 -8 0 -16 -6 -18 -12 -3 -7 2
-13 11 -13 23 0 19 -27 -5 -33 -11 -3 -23 -15 -26 -26 -8 -30 -21 -26 -15 4 5
29 -21 36 -36 10 -5 -10 -15 -13 -25 -9 -26 9 -21 26 5 18 20 -6 21 -5 9 10
-13 15 -51 23 -51 10 0 -12 24 -49 36 -57 8 -4 14 -15 14 -22 0 -17 16 -20 25
-5 3 6 14 10 24 10 14 0 20 -10 25 -39 3 -21 13 -41 21 -45 8 -3 15 -17 15
-31 0 -14 5 -25 10 -25 6 0 9 10 7 23 -2 12 -2 17 0 11 4 -12 54 -26 62 -18 5
5 -13 102 -24 128 -7 16 -5 17 12 8 18 -10 20 -21 19 -92 -1 -49 3 -79 9 -76
6 1 9 10 7 19 -2 13 3 14 35 5 21 -6 41 -15 44 -20 4 -6 19 -6 41 0 55 15 62
4 38 -59 -17 -42 -20 -65 -15 -106 9 -72 25 -67 25 7 0 125 65 188 100 96 9
-26 9 -28 -9 -23 -17 4 -18 1 -10 -26 6 -21 5 -33 -2 -38 -7 -4 -9 -21 -4 -48
7 -43 -8 -59 -20 -21 -6 20 -25 28 -25 11 0 -5 5 -22 11 -38 8 -23 8 -26 -2
-15 -17 16 -29 15 -29 -2 0 -8 12 -25 28 -38 27 -23 45 -55 78 -138 10 -25 29
-57 42 -72 32 -35 144 -90 168 -82 11 3 2 -9 -18 -26 -38 -32 -51 -70 -24 -70
19 0 27 -25 17 -52 -9 -22 -10 -22 -21 10 -13 36 -22 39 -40 17 -7 -9 -8 -15
-2 -15 13 0 33 -57 26 -75 -4 -8 -1 -15 5 -15 19 0 12 -32 -9 -37 -11 -3 -20
-12 -20 -19 0 -20 -13 -17 -28 6 -10 17 -10 20 3 20 21 0 19 26 -5 50 -14 14
-33 20 -65 20 -25 0 -48 0 -52 1 -4 0 -9 -4 -11 -10 -2 -7 15 -11 47 -11 55 0
71 -12 46 -36 -15 -15 -15 -18 1 -35 12 -13 14 -22 6 -31 -6 -7 -16 -41 -23
-75 -13 -64 -18 -69 -63 -64 -11 1 -30 -8 -43 -20 -12 -12 -34 -24 -49 -25
-14 -2 -32 -8 -40 -15 -9 -7 -14 -8 -14 -1 0 16 41 42 67 42 13 0 23 5 23 11
0 7 -12 10 -30 7 -28 -4 -30 -3 -30 31 0 35 18 143 28 171 3 8 6 24 6 35 1 14
15 25 54 39 53 19 64 38 24 44 -26 4 -27 10 -5 34 20 23 12 32 -22 24 -27 -7
-60 -36 -82 -72 -10 -16 -12 -10 -9 39 2 56 -5 74 -18 40 -5 -11 -10 -13 -17
-6 -16 16 -1 70 27 100 31 33 28 67 -5 71 -21 3 -23 7 -17 44 4 21 13 50 22
63 19 30 36 127 20 122 -6 -2 -14 -23 -17 -48 -4 -24 -17 -67 -29 -95 -24 -54
-22 -104 5 -104 22 0 28 -20 11 -38 -42 -47 -56 -152 -20 -152 10 0 14 -13 14
-40 0 -27 6 -45 21 -59 20 -18 20 -23 9 -88 -7 -37 -15 -90 -19 -118 -4 -27
-15 -64 -26 -82 -15 -25 -16 -38 -9 -65 7 -23 15 -32 27 -30 13 2 17 -5 17
-29 0 -17 6 -43 14 -57 7 -15 24 -52 37 -82 26 -59 92 -140 115 -140 19 0 18
-35 -2 -51 -8 -7 -22 -25 -30 -41 -8 -16 -25 -33 -38 -37 -14 -6 -27 -24 -35
-49 -17 -52 -8 -69 26 -47 29 20 39 14 24 -13 -6 -12 -11 -30 -11 -41 0 -14
-6 -21 -19 -21 -20 0 -35 -25 -25 -41 3 -5 16 -9 30 -9 13 0 24 -4 24 -10 0
-15 -40 -32 -61 -27 -25 7 -24 -5 1 -28 14 -12 28 -16 50 -12 33 7 42 -7 10
-16 -21 -5 -27 -31 -10 -42 5 -3 7 -12 3 -20 -3 -10 1 -15 13 -15 17 0 16 -2
-4 -18 -13 -10 -20 -21 -16 -25 4 -4 13 -2 21 5 18 15 29 2 14 -16 -11 -13 -8
-15 16 -13 26 2 28 0 28 -38 l0 -40 -160 0 -160 -1 -40 37 c-22 20 -46 38 -52
40 -7 2 -36 40 -65 84 -63 95 -106 127 -162 123 -26 -2 -42 -9 -50 -23 -6 -11
-24 -40 -41 -65 -16 -24 -41 -67 -55 -94 -17 -33 -36 -55 -57 -66 l-33 -15 0
-287 c0 -281 0 -286 20 -281 11 3 20 0 20 -6 0 -6 -9 -11 -20 -11 -18 0 -20
-7 -20 -76 l0 -76 167 3 c127 2 182 -1 223 -13 70 -19 48 -27 -70 -27 -75 1
-225 -13 -287 -26 -18 -4 -22 0 -26 27 -2 18 -5 -14 -5 -73 l-2 -105 83 9 c45
4 91 12 102 17 38 16 57 20 66 14 12 -7 -34 -43 -69 -54 -23 -7 -21 -8 20 -9
35 -1 50 3 57 16 8 15 25 18 126 17 64 -1 113 1 110 5 -4 3 -28 11 -53 17
l-47 12 78 1 c80 1 92 -6 54 -32 l-22 -16 28 -25 c36 -33 80 -40 169 -27 99
15 118 18 231 29 53 5 100 12 104 16 4 3 16 -2 27 -13 14 -12 44 -21 88 -25
56 -5 73 -3 107 15 23 11 41 27 41 34 0 7 7 18 15 25 8 7 12 17 8 24 -3 6 3 3
15 -8 18 -16 24 -17 37 -6 13 11 20 11 40 0 28 -15 33 -30 10 -30 -8 0 -22
-12 -32 -27 -10 -16 -21 -31 -26 -34 -17 -12 -196 -23 -397 -24 -168 -1 -214
-5 -253 -19 -35 -13 -73 -17 -140 -15 -173 4 -255 -2 -279 -21 -46 -35 -258
-56 -286 -28 -9 9 -12 2 -12 -32 l0 -45 1042 2 c574 1 1212 4 1420 7 207 3
406 3 442 -1 l66 -6 0 -183 0 -184 -42 -1 c-24 -1 -306 -3 -628 -4 -944 -6
-1776 -16 -2050 -25 -151 -5 277 -6 1050 -3 718 3 1393 8 1500 12 l195 6 3
1650 c2 908 1 1647 -4 1642 -7 -7 -11 -441 -13 -1294 -1 -203 -4 -303 -11
-303 -6 0 -29 17 -50 38 -52 48 -66 115 -54 252 13 153 9 330 -10 386 -28 84
-94 139 -215 179 -46 15 -65 16 -135 7 -85 -11 -170 -35 -196 -56 -8 -7 -28
-18 -44 -26 -28 -14 -86 -92 -86 -115 0 -7 -11 -17 -25 -23 l-25 -12 0 114 c0
117 -11 227 -32 326 -13 66 -80 245 -116 315 -14 28 -31 73 -37 100 -10 43
-15 50 -35 50 -31 0 -76 43 -61 58 19 19 12 56 -14 73 -13 8 -29 13 -34 10
-14 -9 -61 4 -61 16 0 6 6 8 13 5 6 -3 20 -8 29 -12 22 -9 45 30 28 50 -6 7
-13 35 -16 61 -2 26 -7 50 -9 52 -2 3 -16 -3 -31 -12 -27 -19 -46 -14 -26 6
17 17 15 31 -3 24 -11 -4 -22 5 -36 28 -11 19 -30 41 -43 49 -13 9 -31 33 -41
54 -56 121 -142 226 -216 264 -44 22 -48 22 -201 3 -50 -6 -65 -27 -28 -37 20
-5 19 -8 -12 -68 -23 -47 -33 -82 -38 -136 -3 -41 -2 -73 3 -73 5 0 7 -11 5
-25 -3 -13 -2 -22 2 -20 4 2 14 -24 23 -60 16 -65 42 -115 59 -115 9 0 2 37
-12 55 -17 23 -30 109 -24 155 7 52 24 59 24 10 0 -56 21 -130 37 -130 10 0
13 5 8 18 -11 28 -35 162 -34 190 0 17 8 2 18 -38 23 -84 47 -140 60 -140 14
0 16 -9 -24 116 -37 115 -41 147 -25 188 12 33 -7 36 -20 4 -8 -22 -9 -21 -10
7 -1 29 -2 29 -12 8 -6 -13 -15 -23 -20 -23 -12 0 -10 5 12 49 24 44 40 51
125 50 98 0 147 -40 245 -199 29 -47 67 -101 85 -121 36 -40 70 -129 62 -160
-3 -12 0 -22 9 -26 9 -3 14 -20 14 -50 l0 -44 -30 21 c-19 13 -32 33 -36 55
-7 39 -18 44 -33 18 -8 -16 -12 -13 -25 19 -9 20 -21 69 -28 108 -8 47 -17 70
-26 70 -11 0 -12 -11 -7 -50 11 -82 33 -153 50 -162 11 -7 14 -19 9 -49 -6
-33 -2 -46 21 -79 20 -29 34 -40 49 -38 17 2 22 -3 24 -26 2 -19 -2 -32 -12
-38 -9 -5 -16 -17 -16 -27 0 -10 -6 -24 -14 -30 -7 -6 -23 -44 -35 -84 -20
-64 -37 -106 -89 -214 -16 -34 -26 -40 -37 -23 -8 13 -45 13 -45 1 0 -6 4 -12
10 -16 5 -3 7 -11 4 -19 -3 -7 7 -18 21 -24 18 -9 25 -19 25 -41 0 -16 -4 -33
-10 -36 -5 -3 -10 -1 -10 5 0 6 -15 26 -33 45 -30 31 -38 34 -101 37 l-68 3 4
62 c1 34 -1 65 -5 69 -11 12 -8 47 7 67 19 25 24 21 28 -20 l3 -38 24 40 c14
23 26 35 28 27 9 -24 -19 -110 -43 -133 -13 -12 -24 -28 -24 -36 0 -12 37 -27
56 -22 5 2 20 -1 33 -5 14 -5 27 -4 34 3 12 12 -38 35 -60 26 -10 -3 -13 1 -9
13 3 9 14 53 25 97 32 125 44 155 63 155 21 0 23 11 6 28 -22 22 17 14 46 -9
35 -27 46 -16 23 22 -9 17 -17 42 -17 56 0 22 -3 24 -25 19 -22 -6 -25 -3 -25
19 0 16 6 25 15 25 8 0 18 0 23 1 13 1 32 21 32 33 0 6 -4 5 -9 -3 -12 -18
-51 -5 -51 18 0 10 -9 30 -20 44 -11 14 -20 31 -20 39 0 8 -9 31 -20 52 -13
27 -21 70 -26 146 -8 131 5 197 48 240 16 17 25 30 20 30 -15 0 -63 -60 -80
-100 -17 -38 -21 -224 -7 -270 5 -19 4 -22 -4 -14 -7 6 -16 38 -21 70 -5 32
-16 79 -25 104 -9 25 -17 71 -18 102 -1 40 -4 55 -12 47 -16 -16 -8 -110 14
-175 12 -32 21 -73 21 -92 0 -39 11 -63 56 -119 19 -23 34 -44 34 -48 0 -3 10
-19 21 -35 14 -18 19 -35 15 -47 -7 -16 -9 -16 -20 5 l-13 24 -28 -34 c-16
-19 -35 -32 -45 -30 -12 2 -23 -8 -31 -28 -13 -29 -29 -40 -29 -21 0 6 -14 18
-31 28 -42 25 -92 102 -78 120 8 9 8 17 1 26 -21 25 -62 106 -62 122 0 31 -30
89 -40 79 -14 -14 30 -144 63 -187 18 -24 22 -36 14 -48 -8 -12 -2 -27 22 -62
17 -25 41 -53 52 -61 15 -10 19 -20 14 -33 -7 -17 -7 -17 -18 1 -7 10 -22 31
-35 45 -20 24 -23 25 -33 8 -5 -9 -15 -14 -21 -10 -16 9 -88 10 -88 0 0 -4 9
-15 19 -24 34 -29 13 -32 -37 -6 -26 14 -61 41 -79 61 -43 49 -55 32 -13 -19
21 -27 26 -38 14 -31 -46 24 -84 103 -63 128 7 8 9 29 5 51 -4 21 -11 70 -16
108 -5 39 -12 81 -15 94 -5 21 -4 23 9 12 9 -8 16 -21 16 -31 0 -24 39 -143
50 -154 6 -6 10 -6 10 -1 -1 11 -18 92 -26 118 -4 13 1 17 22 17 20 0 24 -3
16 -13 -8 -9 -6 -26 6 -60 21 -58 36 -61 27 -6 -9 51 10 46 19 -6 8 -43 26
-56 25 -18 -2 54 -14 78 -37 76 -30 -4 -28 15 3 27 38 14 30 20 -18 14 -39 -6
-47 -3 -80 29 -24 22 -37 43 -37 60 0 23 3 26 28 22 45 -8 84 32 93 97 7 57
-5 89 -15 40 -4 -16 -6 -33 -5 -38 4 -23 -3 -41 -26 -68 -23 -27 -27 -28 -55
-16 -35 14 -40 33 -8 28 16 -2 22 3 23 20 1 13 8 28 16 33 8 5 9 9 3 9 -6 0
-17 -7 -24 -15 -7 -8 -20 -15 -30 -15 -10 0 -20 -7 -24 -15 -7 -19 -34 -19
-79 0 -42 17 -56 35 -28 35 11 0 23 5 27 11 4 7 18 0 37 -18 18 -16 25 -19 17
-8 -27 38 -75 75 -98 75 -12 0 -33 -7 -46 -16 -27 -17 -35 -10 -41 35 -3 24 2
30 42 50 25 12 68 46 95 77 37 40 54 52 63 44 6 -5 14 -7 18 -4 10 10 73 -15
93 -37 14 -15 20 -17 27 -7 5 8 7 1 3 -20 -5 -30 -4 -32 9 -18 12 12 22 13 41
6 14 -6 42 -10 62 -9 32 1 34 2 12 8 l-25 7 26 7 c39 10 43 34 15 76 -26 38
-50 91 -48 104 1 4 -7 7 -17 7 -11 0 -23 5 -26 10 -3 6 1 10 9 10 9 0 16 9 16
20 0 14 -6 20 -17 18 -10 -2 -18 3 -18 12 0 10 -8 14 -23 12 -15 -2 -22 2 -22
12 0 9 -7 16 -15 16 -8 0 -15 7 -15 15 0 9 7 18 15 21 22 9 18 34 -5 34 -11 0
-20 7 -20 16 0 8 5 12 10 9 6 -3 10 1 10 9 0 17 -12 21 -23 9z m-17 -148 c0
-8 -4 -15 -10 -15 -5 0 -7 7 -4 15 4 8 8 15 10 15 2 0 4 -7 4 -15z m-265 -24
c-3 -6 -11 -8 -17 -5 -6 4 -5 9 3 15 16 10 23 4 14 -10z m105 9 c0 -5 -2 -10
-4 -10 -3 0 -8 5 -11 10 -3 6 -1 10 4 10 6 0 11 -4 11 -10z m75 -8 c0 -18 -20
-15 -23 4 -3 10 1 15 10 12 7 -3 13 -10 13 -16z m105 -32 c0 -5 -4 -10 -10
-10 -5 0 -10 5 -10 10 0 6 5 10 10 10 6 0 10 -4 10 -10z m-85 -10 c8 -12 -10
-47 -44 -84 -24 -26 -24 -28 -3 -17 26 14 28 4 5 -29 l-17 -24 -7 24 c-4 15 0
34 8 48 19 31 12 37 -16 15 -19 -16 -20 -22 -11 -53 13 -47 13 -55 -4 -41 -17
14 -26 79 -11 85 6 3 5 8 -3 14 -11 8 -9 14 9 31 27 25 39 27 39 5 0 -23 24
-11 28 14 4 23 17 29 27 12z m145 -52 c0 -5 -4 -8 -10 -8 -5 0 -7 -7 -4 -15 4
-9 -1 -18 -10 -21 -25 -10 -31 3 -16 31 10 20 11 28 2 37 -9 9 -12 6 -12 -14
0 -30 -22 -51 -56 -53 -28 -1 -31 7 -8 26 9 7 20 22 25 34 7 16 8 14 4 -9 -6
-26 -4 -28 9 -17 9 8 16 19 16 25 0 7 6 18 12 24 10 10 16 8 30 -10 10 -13 18
-26 18 -30z m37 -6 c3 -13 0 -29 -6 -35 -9 -9 -11 -8 -6 5 4 9 -1 30 -9 47 -9
16 -16 34 -16 38 1 14 31 -31 37 -55z m-330 32 c-3 -3 -12 -4 -19 -1 -8 3 -5
6 6 6 11 1 17 -2 13 -5z m-283 -19 c-4 -8 -8 -15 -10 -15 -2 0 -4 7 -4 15 0 8
4 15 10 15 5 0 7 -7 4 -15z m-39 -15 c3 -5 -1 -10 -9 -10 -9 0 -16 5 -16 10 0
6 4 10 9 10 6 0 13 -4 16 -10z m308 -30 c-7 -8 -22 24 -16 34 4 5 10 1 13 -10
4 -10 6 -21 3 -24z m386 1 c18 -18 18 -21 3 -55 -9 -20 -23 -36 -31 -36 -11 0
-11 3 2 18 10 10 17 25 17 33 0 9 -7 5 -19 -10 -11 -14 -25 -21 -37 -19 -17 4
-16 6 6 16 14 6 19 11 13 11 -28 2 -11 21 19 21 30 0 31 0 13 20 -23 26 -11
26 14 1z m-495 0 c3 -5 -1 -12 -10 -15 -22 -9 -24 -8 -24 9 0 16 25 21 34 6z
m344 -29 c-8 -9 -14 -9 -24 -1 -19 16 -18 17 10 15 18 -1 22 -4 14 -14z m-318
-2 c0 -5 -2 -10 -4 -10 -3 0 -8 5 -11 10 -3 6 -1 10 4 10 6 0 11 -4 11 -10z
m131 -43 c8 -14 6 -23 -7 -38 -17 -19 -18 -19 -41 3 -24 23 -29 19 -13 -12 7
-13 5 -21 -7 -31 -14 -12 -15 -11 -10 6 4 11 3 26 -2 34 -6 9 -5 19 2 26 9 10
17 9 36 -3 23 -16 23 -15 16 8 -4 14 -10 32 -13 40 -5 13 -3 13 12 1 9 -8 22
-23 27 -34z m224 33 c3 -5 1 -10 -4 -10 -6 0 -11 5 -11 10 0 6 2 10 4 10 3 0
8 -4 11 -10z m162 -16 c8 -22 -15 -44 -26 -25 -10 16 -4 41 10 41 5 0 12 -7
16 -16z m-527 -58 c0 -24 -23 -41 -41 -30 -5 3 -8 13 -8 22 1 15 2 15 6 0 5
-20 25 -25 22 -5 -3 23 1 37 11 37 6 0 10 -11 10 -24z m-72 -83 c-2 -9 -9 -18
-17 -21 -8 -3 -11 0 -7 6 3 6 -2 15 -11 21 -15 9 -14 10 10 11 21 0 28 -4 25
-17z m682 -44 c0 -11 -4 -17 -10 -14 -5 3 -10 15 -10 26 0 11 5 17 10 14 6 -3
10 -15 10 -26z m-457 -14 c-3 -12 -63 -16 -63 -5 0 5 6 11 13 14 19 8 52 2 50
-9z m426 -90 c-1 -48 -3 -54 -9 -30 -12 46 -12 123 0 105 5 -8 9 -42 9 -75z
m-554 65 c3 -5 2 -10 -4 -10 -5 0 -13 5 -16 10 -3 6 -2 10 4 10 5 0 13 -4 16
-10z m1165 -265 c0 -8 -7 -15 -15 -15 -16 0 -20 12 -8 23 11 12 23 8 23 -8z
m-916 -100 c5 -22 4 -26 -4 -15 -5 8 -10 24 -10 34 0 26 6 18 14 -19z m810
-30 c14 -14 33 -25 43 -25 14 0 12 -3 -7 -13 -16 -9 -24 -20 -22 -33 2 -12 -5
-7 -21 16 -48 70 -44 106 7 55z m160 -114 c12 -18 -22 -32 -60 -25 l-37 7 34
12 c43 16 56 17 63 6z m-714 -61 c0 -5 -2 -10 -4 -10 -3 0 -8 5 -11 10 -3 6
-1 10 4 10 6 0 11 -4 11 -10z m238 -25 c14 -29 -2 -44 -17 -16 -6 11 -11 24
-11 30 0 20 17 11 28 -14z m412 5 c0 -11 -4 -20 -10 -20 -5 0 -10 9 -10 20 0
11 5 20 10 20 6 0 10 -9 10 -20z m-360 -10 c0 -5 -5 -10 -11 -10 -5 0 -7 5 -4
10 3 6 8 10 11 10 2 0 4 -4 4 -10z m75 -18 c-8 -8 -25 10 -19 20 4 6 9 5 15
-3 4 -7 6 -15 4 -17z m-338 5 c-1 -5 -6 -8 -10 -8 -4 1 -14 1 -23 1 -8 0 -13
4 -9 9 7 12 46 10 42 -2z m565 -19 c-7 -7 -12 -8 -12 -2 0 14 12 26 19 19 2
-3 -1 -11 -7 -17z m273 -57 c60 -117 106 -323 112 -498 4 -113 8 -143 19 -143
11 0 13 -12 8 -57 -4 -32 -9 -61 -13 -65 -3 -3 -33 -15 -66 -26 -71 -24 -86
-44 -25 -37 23 3 70 23 106 45 37 22 69 40 73 40 4 0 20 13 36 30 15 16 32 27
36 24 4 -2 10 5 14 16 3 11 19 27 36 37 16 9 29 20 29 23 0 18 -16 17 -40 0
-16 -11 -32 -20 -37 -20 -13 0 51 49 65 50 6 0 12 4 12 8 0 12 122 42 196 49
55 5 74 2 133 -21 84 -33 143 -82 166 -138 15 -35 18 -70 17 -188 -1 -79 -7
-168 -13 -196 -9 -39 -9 -68 -1 -111 6 -32 10 -69 9 -83 -1 -14 7 -36 18 -50
37 -46 96 -100 109 -100 11 0 13 -24 12 -109 -1 -91 -4 -112 -20 -130 -10 -11
-22 -35 -25 -53 -6 -27 -12 -33 -30 -30 -19 2 -22 -2 -18 -17 3 -13 -5 -31
-24 -52 -16 -17 -26 -36 -23 -40 6 -11 -12 -47 -38 -76 -18 -20 -19 -23 -4
-50 16 -28 16 -28 14 -3 -2 22 59 126 69 117 1 -2 -8 -26 -21 -53 -14 -27 -28
-67 -33 -89 -7 -36 -12 -41 -45 -49 -21 -5 -38 -15 -38 -22 0 -7 -10 -18 -22
-25 -13 -6 -38 -25 -56 -43 l-33 -31 11 29 c8 23 8 31 -2 38 -21 12 -38 9 -56
-10 -10 -10 -13 -13 -9 -6 18 28 -18 24 -55 -7 -40 -31 -41 -32 -34 -8 4 13
10 34 13 46 5 22 41 37 65 28 16 -6 98 49 98 66 0 6 14 40 30 76 17 35 30 69
30 75 0 5 15 40 34 77 19 36 38 82 42 101 3 19 14 45 22 58 13 19 13 28 3 43
-20 34 -2 39 44 14 24 -14 46 -25 49 -25 15 0 4 31 -14 42 -11 7 -20 17 -20
23 0 6 -35 9 -89 9 -121 -2 -200 15 -250 55 -23 18 -41 37 -41 42 0 4 -7 6
-15 3 -9 -4 -15 0 -15 10 0 9 -4 16 -10 16 -5 0 -10 9 -10 20 0 10 -7 23 -16
28 -11 6 -15 17 -11 31 3 13 0 24 -7 27 -13 5 -19 71 -8 89 9 14 12 41 16 123
3 81 -10 95 -43 42 -10 -16 -20 -28 -22 -26 -2 2 -5 -12 -7 -32 -1 -21 -6 -50
-11 -67 -5 -16 -13 -54 -16 -84 -5 -32 -15 -63 -27 -75 -11 -12 -26 -35 -34
-52 -17 -36 -106 -107 -137 -109 -12 -1 -22 -8 -22 -16 0 -7 -9 -15 -20 -18
-11 -2 -25 -11 -32 -20 -11 -15 -12 -15 -13 2 0 20 -27 22 -62 5 -14 -8 -22
-20 -20 -30 4 -21 -11 -23 -27 -4 -9 10 -7 19 7 37 15 17 31 23 73 26 33 2 58
9 65 18 6 8 21 16 32 18 32 5 39 17 10 17 -13 0 -28 -3 -32 -7 -12 -12 -36
-12 -36 0 0 7 -5 4 -11 -5 -14 -24 -28 -23 -22 2 5 20 -11 26 -62 20 -25 -3
-63 -44 -81 -87 -16 -36 -19 -103 -5 -103 5 0 12 -16 15 -35 4 -19 16 -39 26
-45 11 -6 19 -18 19 -28 -1 -16 -2 -16 -6 1 -6 22 -16 22 -63 -5 -43 -25 -62
-67 -37 -82 12 -8 12 -14 -5 -42 -23 -39 -48 -62 -48 -45 0 7 7 19 16 28 10
11 12 19 5 26 -15 15 -56 -30 -69 -75 -8 -30 -7 -39 6 -51 38 -32 43 -30 36
14 -5 32 -4 41 6 37 7 -2 15 -14 16 -26 2 -12 5 -25 6 -29 3 -13 -25 -63 -35
-63 -5 0 -7 -10 -3 -23 6 -27 -27 -87 -49 -87 -8 0 -15 -7 -15 -16 0 -14 3
-14 15 -4 18 15 20 13 29 -17 7 -23 -7 -32 -19 -13 -4 7 -16 1 -30 -15 -13
-14 -29 -25 -35 -25 -5 0 -10 -4 -10 -8 0 -5 -17 -14 -38 -21 -38 -13 -60 -15
-117 -11 -16 1 -37 1 -45 -1 -8 -2 -14 1 -13 7 1 7 -8 9 -24 6 -24 -5 -25 -3
-18 29 9 43 19 55 51 63 14 4 39 16 54 28 20 14 36 19 54 14 24 -6 26 -4 26
23 0 16 6 36 14 43 16 17 33 83 18 74 -14 -9 -24 22 -13 43 6 11 6 41 -1 82
-11 62 -10 67 10 87 12 12 22 26 22 31 0 25 -23 68 -46 87 l-25 21 25 17 c22
14 26 14 26 2 0 -9 8 -19 18 -24 21 -11 82 4 82 20 0 6 3 8 7 5 5 -6 18 10 39
51 3 7 3 33 -1 58 -5 34 -12 48 -26 51 -28 8 -24 17 21 54 21 18 37 35 35 38
-1 3 -18 6 -37 6 -28 0 -33 -4 -30 -23 2 -19 -2 -23 -20 -20 -27 4 -35 36 -18
68 10 19 19 21 60 18 44 -3 48 -1 60 25 13 29 6 92 -12 115 -6 6 -23 12 -39
12 -22 0 -29 5 -29 20 0 23 10 26 28 8 14 -14 43 9 70 54 9 16 23 28 32 29 9
0 7 3 -6 9 -20 8 -40 60 -24 60 4 0 5 11 2 25 -3 17 1 27 12 31 9 3 16 14 16
24 0 24 24 42 58 45 39 3 52 12 52 38 0 13 7 33 16 45 12 17 16 58 19 179 3
87 7 177 10 201 4 26 2 42 -4 42 -16 0 -19 -29 -26 -220 -5 -148 -9 -182 -26
-217 -16 -33 -26 -43 -45 -43 -21 0 -23 3 -18 33 3 17 10 43 15 57 15 42 39
156 46 217 12 116 4 334 -16 423 -10 47 -17 87 -16 89 5 4 40 -71 60 -129 9
-25 25 -106 37 -180 16 -110 19 -162 14 -280 -3 -80 -9 -156 -13 -169 -4 -18
-2 -23 8 -19 34 11 39 337 9 506 -22 124 -38 177 -81 270 -16 35 -29 68 -29
74 0 14 33 -28 55 -71z m-96 -14 c11 -34 27 -94 35 -134 18 -80 22 -268 6
-278 -5 -3 -10 0 -10 8 0 7 -13 23 -30 35 -16 13 -30 28 -30 34 0 7 5 6 15 -2
24 -20 31 23 25 158 -4 102 -8 126 -22 136 -10 7 -18 24 -18 37 0 14 -7 35
-16 47 -8 12 -12 27 -9 33 12 19 33 -10 54 -74z m-683 57 c-3 -9 -6 -22 -6
-29 0 -17 -52 -13 -58 4 -2 6 3 9 11 5 10 -3 20 3 27 15 13 24 35 29 26 5z
m149 -4 c-3 -5 -10 -10 -16 -10 -5 0 -9 5 -9 10 0 6 7 10 16 10 8 0 12 -4 9
-10z m405 0 c0 -5 -7 -10 -15 -10 -8 0 -15 5 -15 10 0 6 7 10 15 10 8 0 15 -4
15 -10z m-337 -25 c-7 -21 -13 -19 -13 6 0 11 4 18 10 14 5 -3 7 -12 3 -20z
m-353 -24 c0 -12 -20 -25 -27 -18 -7 7 6 27 18 27 5 0 9 -4 9 -9z m620 2 c0
-14 -19 -38 -25 -32 -8 8 5 39 16 39 5 0 9 -3 9 -7z m60 -8 c0 -8 -9 -15 -20
-15 -11 0 -20 7 -20 15 0 8 9 15 20 15 11 0 20 -7 20 -15z m-520 0 c0 -9 -42
-47 -47 -42 -9 9 17 47 32 47 8 0 15 -2 15 -5z m-425 -44 c-3 -6 -15 -16 -26
-22 -18 -9 -19 -9 -10 9 10 19 32 33 40 26 1 -1 0 -7 -4 -13z m465 4 c0 -8 -4
-15 -9 -15 -13 0 -22 16 -14 24 11 11 23 6 23 -9z m32 -17 c-7 -7 -12 -8 -12
-2 0 14 12 26 19 19 2 -3 -1 -11 -7 -17z m438 7 c0 -8 -7 -15 -15 -15 -8 0
-15 7 -15 15 0 8 7 15 15 15 8 0 15 -7 15 -15z m65 -15 c3 -5 1 -10 -4 -10 -6
0 -11 -16 -11 -35 0 -19 -4 -35 -10 -35 -12 0 -13 15 -4 59 7 31 18 39 29 21z
m45 0 c0 -5 -4 -10 -10 -10 -5 0 -10 5 -10 10 0 6 5 10 10 10 6 0 10 -4 10
-10z m-630 -46 c0 -21 -17 -34 -46 -34 -20 0 -17 23 7 54 24 30 39 22 39 -20z
m480 17 c13 -25 13 -41 0 -41 -5 0 -7 7 -4 15 4 9 0 15 -10 15 -9 0 -16 7 -16
15 0 21 17 19 30 -4z m-620 -25 c0 -3 -4 -8 -10 -11 -5 -3 -10 -1 -10 4 0 6 5
11 10 11 6 0 10 -2 10 -4z m50 -14 c0 -26 -11 -34 -27 -21 -10 9 -10 15 -2 25
16 19 29 17 29 -4z m-6 -48 c26 6 27 5 24 -21 -3 -24 1 -28 25 -31 15 -2 27
-8 27 -14 0 -6 -10 -8 -26 -4 -17 5 -23 3 -19 -4 3 -5 13 -10 22 -10 9 0 13
-3 9 -7 -12 -12 -128 -33 -151 -27 -25 6 -75 -38 -75 -66 0 -10 -9 -29 -20
-43 -11 -14 -20 -32 -20 -41 0 -9 -3 -16 -7 -16 -14 0 -8 63 12 133 15 51 24
67 38 67 26 0 97 74 97 102 l0 23 19 -24 c14 -19 24 -22 45 -17z m153 -86 c-2
-24 -4 -5 -4 42 0 47 2 66 4 43 2 -24 2 -62 0 -85z m-50 90 c-3 -8 -6 -5 -6 6
-1 11 2 17 5 13 3 -3 4 -12 1 -19z m528 12 c-3 -5 -13 -10 -21 -10 -8 0 -14 5
-14 10 0 6 9 10 21 10 11 0 17 -4 14 -10z m-120 -20 c3 -5 1 -10 -4 -10 -6 0
-11 5 -11 10 0 6 2 10 4 10 3 0 8 -4 11 -10z m53 -8 c2 -7 -2 -10 -12 -6 -9 3
-16 11 -16 16 0 13 23 5 28 -10z m-440 -62 c-4 -36 -1 -53 9 -62 8 -6 26 -31
40 -55 19 -33 29 -41 37 -33 8 8 7 13 -3 19 -9 6 -10 11 -2 15 6 4 11 21 11
38 0 30 1 30 36 25 20 -3 42 -11 50 -18 13 -10 12 -14 -2 -31 -20 -21 -37 -49
-59 -95 -24 -51 -62 -43 -140 29 -22 20 -53 38 -70 40 l-30 4 25 11 c24 11 24
12 3 12 -13 1 -23 6 -23 11 0 6 25 10 55 10 33 0 55 4 55 11 0 8 -22 9 -72 4
-61 -6 -71 -5 -60 6 7 8 34 14 60 14 55 0 62 7 62 58 0 21 5 37 11 37 8 0 10
-17 7 -50z m632 36 c0 -21 -12 -24 -39 -10 l-24 12 24 5 c13 2 27 5 32 6 4 0
7 -5 7 -13z m-275 -6 c-3 -5 -11 -10 -16 -10 -6 0 -7 5 -4 10 3 6 11 10 16 10
6 0 7 -4 4 -10z m35 -29 c0 -6 -4 -13 -10 -16 -5 -3 -10 -21 -10 -38 0 -18 -7
-41 -15 -51 -8 -10 -12 -22 -10 -26 3 -4 -3 -14 -12 -21 -15 -13 -16 -10 -10
35 4 27 7 61 7 76 0 18 7 31 23 38 28 14 37 14 37 3z m240 -31 c9 -16 8 -20
-5 -20 -8 0 -15 2 -15 4 0 2 -3 11 -6 20 -9 23 13 20 26 -4z m-45 0 c3 -5 1
-10 -4 -10 -6 0 -11 5 -11 10 0 6 2 10 4 10 3 0 8 -4 11 -10z m-747 -66 c18
-12 20 -18 12 -34 -6 -11 -15 -21 -20 -21 -6 -1 -16 -2 -22 -3 -20 -2 -22 -39
-2 -53 10 -7 14 -16 11 -20 -14 -13 -39 25 -44 68 -3 24 -12 51 -20 61 -13 14
-12 17 4 21 23 6 52 -1 81 -19z m584 -9 c0 -5 -5 -11 -11 -13 -6 -2 -11 4 -11
13 0 9 5 15 11 13 6 -2 11 -8 11 -13z m-202 -15 c0 -13 -7 -20 -20 -20 -25 0
-26 16 -2 29 23 14 22 14 22 -9z m77 -50 l-7 -59 29 5 c21 4 30 2 35 -11 5
-14 2 -16 -16 -11 -13 3 -33 6 -45 6 -21 0 -23 5 -23 53 0 45 12 77 28 77 3 0
2 -27 -1 -60z m293 44 c0 -8 -5 -12 -10 -9 -6 4 -8 11 -5 16 9 14 15 11 15 -7z
m-855 -24 c-4 -12 -9 -19 -12 -17 -3 3 -2 15 2 27 4 12 9 19 12 17 3 -3 2 -15
-2 -27z m730 20 c3 -5 -1 -10 -10 -10 -9 0 -13 5 -10 10 3 6 8 10 10 10 2 0 7
-4 10 -10z m-537 -25 c9 -9 40 -36 67 -61 45 -40 54 -45 94 -42 36 2 48 -2 72
-27 30 -29 36 -45 19 -45 -15 0 -12 -87 5 -119 8 -16 22 -32 32 -36 17 -7 17
-8 -2 -15 -29 -12 -35 -12 -35 4 0 18 -16 29 -29 21 -6 -3 -6 -17 -1 -35 5
-18 4 -45 -2 -67 -10 -36 -11 -37 -19 -15 -5 13 -7 28 -4 32 9 14 -7 41 -21
36 -8 -3 -15 2 -16 12 -1 9 -2 26 -3 37 -5 50 -4 48 -20 35 -8 -7 -15 -21 -15
-31 0 -11 -5 -19 -11 -19 -5 0 -9 10 -7 23 2 16 -3 23 -17 25 -17 2 -20 -4
-22 -40 -3 -49 -20 -88 -40 -88 -7 0 -13 -4 -13 -10 0 -5 -9 -18 -21 -29 -22
-20 -17 -46 7 -37 17 6 25 -6 15 -23 -11 -18 -58 -4 -64 20 -3 10 -1 22 4 25
5 3 7 9 4 13 -2 5 8 20 24 33 16 15 31 41 35 61 4 19 13 40 21 47 22 19 18 28
-10 22 -29 -5 -31 0 -8 24 13 13 14 19 5 22 -6 2 -12 13 -12 24 0 26 -35 84
-55 92 -13 5 -11 13 11 47 29 47 23 58 -33 55 l-35 -1 29 22 c33 27 47 28 71
8z m612 11 c0 -3 -4 -8 -10 -11 -5 -3 -10 -1 -10 4 0 6 5 11 10 11 6 0 10 -2
10 -4z m-900 -27 c0 -5 -4 -9 -10 -9 -5 0 -10 7 -10 16 0 8 5 12 10 9 6 -3 10
-10 10 -16z m780 12 c0 -11 -56 -32 -64 -24 -3 4 -2 11 3 17 12 14 61 19 61 7z
m-240 -8 c0 -5 -5 -15 -10 -23 -8 -12 -10 -11 -10 8 0 12 5 22 10 22 6 0 10
-3 10 -7z m60 -68 c0 -43 -4 -75 -10 -75 -5 0 -10 13 -10 29 0 36 12 121 16
121 2 0 4 -34 4 -75z m444 8 c-11 -116 -62 -326 -76 -317 -4 3 -6 10 -3 15 4
5 0 9 -7 9 -31 0 -35 20 -20 88 14 65 26 91 37 81 2 -3 -4 -35 -14 -72 -13
-49 -15 -67 -6 -67 6 0 17 25 24 56 17 73 23 204 11 204 -6 0 -10 7 -10 15 0
11 7 14 25 9 21 -5 25 -3 25 15 0 12 5 21 10 21 6 0 8 -22 4 -57z m-1156 11
c0 -14 10 -36 23 -50 13 -14 22 -29 19 -32 -3 -4 6 -9 20 -10 13 -2 46 -22 71
-43 26 -21 52 -39 58 -39 6 0 11 -4 11 -10 0 -15 -41 -12 -59 4 -27 23 -61 30
-61 12 0 -14 11 -20 32 -17 4 0 5 -5 2 -13 -10 -25 25 -46 77 -46 60 0 66 -20
7 -21 -24 0 -55 -3 -70 -5 -18 -3 -28 0 -28 7 0 15 -30 49 -43 49 -6 0 -2 -10
9 -22 16 -18 17 -21 2 -15 -28 10 -17 -32 15 -59 22 -19 31 -21 41 -11 8 6 12
17 9 23 -5 13 42 25 54 13 4 -4 28 -12 53 -18 45 -10 44 -10 -22 -8 -38 2 -68
-1 -68 -5 0 -4 7 -8 15 -8 8 0 29 -9 47 -20 39 -24 30 -25 -36 -5 -34 10 -52
12 -56 5 -10 -17 -57 26 -96 87 -54 84 -74 163 -66 255 1 9 10 19 20 21 9 3
18 5 18 6 1 0 2 -10 2 -25z m680 1 c0 -14 -4 -28 -9 -31 -10 -6 -12 39 -2 49
10 10 11 9 11 -18z m235 10 c1 -5 -6 -11 -15 -13 -11 -2 -18 3 -18 13 0 17 30
18 33 0z m51 -17 c-8 -28 -12 -33 -20 -25 -9 8 6 47 17 47 6 0 7 -10 3 -22z
m-1024 -8 c0 -5 -5 -10 -11 -10 -5 0 -7 5 -4 10 3 6 8 10 11 10 2 0 4 -4 4
-10z m940 -10 c0 -5 -4 -10 -9 -10 -6 0 -13 5 -16 10 -3 6 1 10 9 10 9 0 16
-4 16 -10z m40 -20 c0 -5 -7 -10 -16 -10 -8 0 -12 5 -9 10 3 6 10 10 16 10 5
0 9 -4 9 -10z m-690 -20 c0 -5 -5 -10 -11 -10 -5 0 -7 5 -4 10 3 6 8 10 11 10
2 0 4 -4 4 -10z m555 0 c3 -5 2 -10 -4 -10 -5 0 -13 5 -16 10 -3 6 -2 10 4 10
5 0 13 -4 16 -10z m275 0 c0 -5 -9 -10 -21 -10 -11 0 -17 5 -14 10 3 6 13 10
21 10 8 0 14 -4 14 -10z m-240 -36 c0 -8 -5 -12 -10 -9 -6 4 -8 11 -5 16 9 14
15 11 15 -7z m-592 -22 c2 -7 -3 -12 -12 -12 -9 0 -16 7 -16 16 0 17 22 14 28
-4z m790 -4 c-18 -26 -48 -36 -48 -16 0 20 21 38 43 38 18 0 18 -2 5 -22z m57
12 c-3 -5 -10 -10 -16 -10 -5 0 -9 5 -9 10 0 6 7 10 16 10 8 0 12 -4 9 -10z
m-216 -37 c2 -2 -3 -3 -11 -3 -9 0 -19 7 -22 16 -6 15 -4 15 11 3 10 -7 20
-15 22 -16z m-589 -3 c0 -5 -4 -10 -10 -10 -5 0 -10 5 -10 10 0 6 5 10 10 10
6 0 10 -4 10 -10z m759 -57 c-7 -32 -15 -62 -19 -66 -11 -13 -39 3 -33 19 3 9
-2 14 -16 14 -23 0 -40 45 -24 61 7 7 12 0 17 -21 5 -25 10 -31 28 -28 21 3
27 13 45 77 2 8 6 11 9 8 3 -3 0 -32 -7 -64z m-273 -19 c36 -17 59 -35 65 -51
9 -25 29 -23 29 3 0 19 4 18 45 -8 38 -25 44 -38 19 -38 -9 0 -27 -9 -41 -20
-26 -20 -43 -19 -43 4 0 22 -67 86 -90 86 -28 0 -70 43 -70 72 l0 22 16 -22
c8 -12 40 -34 70 -48z m-436 46 c0 -5 -4 -10 -10 -10 -5 0 -10 5 -10 10 0 6 5
10 10 10 6 0 10 -4 10 -10z m496 -1 c9 -16 -12 -33 -31 -25 -14 5 -15 9 -5 21
15 18 26 19 36 4z m-548 -22 c62 -38 88 -47 101 -34 16 16 19 7 12 -42 -3 -27
-12 -46 -21 -49 -11 -3 -12 -2 -4 8 16 16 5 52 -15 48 -12 -2 -16 -15 -17 -50
0 -55 -19 -78 -57 -71 -23 5 -25 7 -11 20 12 12 12 18 2 31 -11 13 -10 14 15
8 20 -5 29 -2 33 9 10 24 -15 45 -55 46 -32 0 -33 1 -13 9 12 5 22 14 22 20 0
15 -26 41 -34 33 -3 -4 -6 3 -6 15 0 27 2 27 48 -1z m-98 -17 c0 -5 -4 -10
-10 -10 -5 0 -10 5 -10 10 0 6 5 10 10 10 6 0 10 -4 10 -10z m690 -15 c0 -8
-4 -15 -10 -15 -5 0 -10 7 -10 15 0 8 5 15 10 15 6 0 10 -7 10 -15z m-760 -56
l25 -20 -32 16 c-18 8 -33 18 -33 20 0 10 16 4 40 -16z m640 -10 c0 -14 -17
-10 -23 5 -4 10 -1 13 9 9 7 -3 14 -9 14 -14z m-220 1 c0 -5 -4 -10 -10 -10
-5 0 -10 5 -10 10 0 6 5 10 10 10 6 0 10 -4 10 -10z m470 -9 c0 -6 -4 -13 -10
-16 -5 -3 -10 1 -10 9 0 9 5 16 10 16 6 0 10 -4 10 -9z m43 -18 c14 -52 16
-73 8 -73 -6 0 -14 8 -20 18 -9 16 -11 16 -27 0 -16 -16 -16 -19 -2 -35 8 -10
13 -24 11 -31 -3 -9 -15 2 -30 28 l-25 41 27 34 c28 38 51 45 58 18z m-103
-23 c0 -5 -5 -10 -11 -10 -5 0 -7 5 -4 10 3 6 8 10 11 10 2 0 4 -4 4 -10z
m-465 -10 c-3 -5 -11 -10 -16 -10 -6 0 -7 5 -4 10 3 6 11 10 16 10 6 0 7 -4 4
-10z m-251 -41 c-10 -16 -24 -9 -24 12 0 18 2 19 15 9 8 -7 12 -16 9 -21z
m291 21 c3 -5 1 -10 -4 -10 -6 0 -11 5 -11 10 0 6 2 10 4 10 3 0 8 -4 11 -10z
m335 -10 c0 -11 -4 -20 -9 -20 -5 0 -11 -9 -14 -20 -7 -29 -34 -35 -73 -17
-49 24 -43 39 13 36 40 -3 48 0 56 19 12 27 27 29 27 2z m88 -18 c2 -11 10
-26 18 -32 28 -24 4 -90 -33 -90 -18 0 -16 10 8 36 25 27 19 59 -12 61 -29 3
-69 -25 -69 -48 0 -10 -4 -21 -10 -24 -16 -10 -11 -25 9 -25 10 0 24 -7 31
-15 10 -12 7 -13 -22 -9 -42 7 -75 -18 -84 -63 -5 -27 -2 -36 27 -62 18 -17
30 -34 25 -38 -4 -4 -10 -3 -14 3 -4 6 -20 14 -37 18 -41 10 -68 41 -60 69 17
56 30 78 47 74 19 -5 53 37 43 53 -3 5 3 13 13 19 10 5 31 30 47 55 31 49 67
58 73 18z m-668 -34 c0 -5 -6 -8 -14 -8 -14 0 -28 34 -18 44 5 6 31 -24 32
-36z m-93 -6 c-10 -10 -15 -21 -12 -24 3 -3 -3 -8 -15 -11 -25 -7 -37 11 -13
20 10 3 22 12 26 20 4 7 13 13 19 13 6 0 4 -8 -5 -18z m299 -23 c8 -14 -11
-33 -25 -25 -11 7 -4 36 9 36 5 0 12 -5 16 -11z m69 -16 c11 -14 9 -25 -9 -60
-21 -42 -38 -51 -64 -34 -10 6 -10 10 3 21 8 7 15 18 15 25 0 8 10 12 25 10
19 -2 25 2 23 14 -2 9 -11 15 -21 13 -20 -3 -23 14 -4 21 19 8 19 8 32 -10z
m358 -3 c-3 -11 -9 -20 -14 -20 -10 0 -12 24 -2 33 13 13 21 7 16 -13z m-619
-38 c-8 -18 -13 -41 -9 -51 3 -11 1 -22 -5 -26 -5 -3 -10 2 -10 12 0 24 -19
43 -43 43 -10 0 -15 5 -12 10 3 6 14 10 23 10 9 0 28 9 42 20 31 24 34 21 14
-18z m-209 8 c3 -6 -1 -13 -10 -16 -19 -8 -30 0 -20 15 8 14 22 14 30 1z m949
-9 c13 -20 -5 -36 -39 -35 -34 1 -64 14 -33 14 9 0 21 7 28 15 14 17 36 20 44
6z m-89 -100 c-4 -14 -11 -30 -17 -36 -7 -7 -9 -3 -5 12 2 12 1 23 -3 25 -5 2
-12 16 -16 32 l-7 28 27 -17 c22 -15 26 -23 21 -44z m-249 22 c-3 -8 -6 -20
-6 -28 0 -7 -13 -15 -29 -18 -48 -10 -53 -57 -5 -57 24 0 32 -14 14 -25 -36
-22 -77 49 -46 80 8 8 21 15 29 15 22 0 27 22 10 41 -12 15 -11 16 12 11 18
-3 24 -9 21 -19z m-78 -2 c3 -8 -1 -12 -9 -9 -7 2 -15 10 -17 17 -3 8 1 12 9
9 7 -2 15 -10 17 -17z m252 15 c0 -3 -4 -8 -10 -11 -5 -3 -10 -1 -10 4 0 6 5
11 10 11 6 0 10 -2 10 -4z m-30 -26 c0 -5 -4 -10 -10 -10 -5 0 -10 5 -10 10 0
6 5 10 10 10 6 0 10 -4 10 -10z m-730 -10 c0 -5 -2 -10 -4 -10 -3 0 -8 5 -11
10 -3 6 -1 10 4 10 6 0 11 -4 11 -10z m340 -5 c0 -8 -7 -15 -15 -15 -16 0 -20
12 -8 23 11 12 23 8 23 -8z m-140 -5 c0 -5 -5 -10 -11 -10 -5 0 -7 5 -4 10 3
6 8 10 11 10 2 0 4 -4 4 -10z m60 -15 c0 -14 -4 -25 -10 -25 -5 0 -10 11 -10
25 0 14 5 25 10 25 6 0 10 -11 10 -25z m210 15 c0 -5 -17 -14 -39 -20 -50 -13
-66 -32 -51 -59 14 -27 30 -27 37 -1 7 25 19 26 26 1 6 -25 -3 -38 -35 -46
-51 -13 -88 53 -51 91 33 32 113 57 113 34z m-520 -40 c0 -5 -4 -10 -10 -10
-5 0 -10 5 -10 10 0 6 5 10 10 10 6 0 10 -4 10 -10z m807 -9 c0 -11 -5 -18 -9
-15 -4 3 -5 11 -1 19 7 21 12 19 10 -4z m73 -16 c0 -8 -6 -15 -12 -15 -16 -1
-78 -84 -78 -104 0 -22 -19 -30 -26 -11 -4 9 1 24 10 34 9 10 16 23 16 30 0
18 57 71 88 80 1 1 2 -6 2 -14z m-690 -45 c23 -23 25 -30 8 -30 -6 0 -20 -7
-29 -16 -17 -16 -18 -15 -10 12 4 16 6 35 4 42 -7 18 4 15 27 -8z m90 16 c0
-11 -19 -15 -25 -6 -3 5 1 10 9 10 9 0 16 -2 16 -4z m455 -26 l30 0 -32 -16
c-27 -13 -36 -14 -48 -4 -11 9 -18 10 -29 1 -10 -8 -16 -8 -25 3 -10 11 -7 17
10 30 19 13 25 13 43 1 11 -8 34 -15 51 -15z m-355 -20 c19 -17 43 -30 53 -30
10 0 15 -4 12 -10 -3 -5 -17 -10 -31 -10 -16 0 -23 4 -18 11 11 19 -19 30 -37
13 -14 -12 -18 -12 -39 6 -19 16 -21 22 -10 35 18 21 30 18 70 -15z m162 4
c-5 -25 -14 -32 -19 -16 -4 10 -10 10 -29 -3 -32 -21 -30 -10 4 20 31 28 49
27 44 -1z m-1045 -3 c31 -19 94 -106 107 -148 4 -11 16 -25 29 -30 12 -6 42
-27 66 -47 23 -20 55 -39 70 -43 14 -3 48 -16 74 -29 27 -13 55 -20 63 -17 15
6 144 -26 144 -36 -1 -32 -15 -50 -45 -55 -18 -4 -38 -13 -45 -21 -7 -8 -22
-15 -33 -15 -11 0 -28 -7 -37 -15 -10 -9 -25 -13 -34 -9 -18 7 -21 20 -6 29
23 14 9 58 -32 100 -54 54 -101 66 -140 36 -14 -12 -31 -21 -37 -21 -20 0 -61
-23 -61 -35 0 -7 -9 -24 -21 -39 -11 -14 -17 -30 -14 -36 4 -6 -5 -23 -18 -39
-31 -38 -26 -76 14 -96 15 -8 35 -15 44 -15 12 0 15 -8 13 -27 -2 -23 -7 -28
-28 -26 -88 9 -138 -4 -170 -41 -7 -9 -31 -19 -54 -23 -27 -4 -50 -16 -68 -35
-33 -36 -49 -29 -41 17 4 28 2 35 -11 35 -11 0 -16 9 -16 31 0 27 2 30 15 19
13 -11 20 -9 40 10 13 12 21 28 18 36 -6 17 -45 18 -61 2 -9 -9 -12 7 -12 75
0 80 2 87 20 87 23 0 26 -10 8 -28 -10 -10 -10 -15 2 -22 29 -19 43 -12 37 18
-3 15 -3 33 1 38 24 36 154 15 214 -34 9 -8 22 -11 27 -7 23 14 9 34 -31 47
-24 7 -43 18 -43 25 0 20 -13 25 -34 11 -18 -11 -22 -10 -35 7 -13 17 -18 18
-35 8 -31 -19 -50 -16 -44 6 7 26 -36 40 -52 17 -23 -30 -35 -18 -35 37 0 51
1 53 43 78 30 18 50 41 65 73 12 25 38 68 57 95 19 27 35 53 35 60 0 18 52 13
87 -8z m1403 -1 c-68 -24 -67 -24 -45 0 13 14 30 20 59 19 l41 0 -55 -19z
m-647 -10 c-3 -11 -9 -17 -14 -15 -10 7 -1 35 11 35 5 0 6 -9 3 -20z m-46 -6
c-3 -3 -12 -4 -19 -1 -8 3 -5 6 6 6 11 1 17 -2 13 -5z m-111 -49 c-9 -19 -22
-35 -28 -35 -7 0 -7 5 1 14 9 11 9 16 0 22 -8 5 -4 12 12 25 31 23 35 17 15
-26z m104 15 c0 -5 -9 -10 -20 -10 -11 0 -20 5 -20 10 0 6 9 10 20 10 11 0 20
-4 20 -10z m120 -22 c0 -5 7 -8 15 -8 8 0 15 5 15 12 0 8 7 6 18 -5 15 -16 15
-19 2 -27 -23 -15 -44 -12 -68 10 -29 28 -31 56 -2 38 11 -7 20 -16 20 -20z
m235 12 c-3 -5 -11 -10 -16 -10 -6 0 -7 5 -4 10 3 6 11 10 16 10 6 0 7 -4 4
-10z m185 -22 c16 -18 29 -40 29 -48 0 -8 -4 -5 -9 8 -11 26 -27 28 -57 7 -19
-13 -22 -13 -27 2 -6 14 17 63 29 63 3 0 19 -15 35 -32z m-493 0 c-3 -8 -6 -5
-6 6 -1 11 2 17 5 13 3 -3 4 -12 1 -19z m243 11 c0 -5 -4 -8 -9 -5 -5 4 -11 0
-14 -6 -2 -7 -8 -10 -12 -6 -4 4 -4 11 0 17 8 14 35 14 35 0z m1141 -61 c17
-31 -17 -21 -45 13 -27 32 -31 41 -19 53 8 7 44 -31 64 -66z m-1046 53 c3 -5
1 -12 -5 -16 -5 -3 -10 1 -10 9 0 18 6 21 15 7z m-162 -27 c3 -4 2 -15 -4 -26
-6 -11 -7 -27 -3 -36 4 -9 7 -20 6 -24 -1 -4 5 -5 13 -2 8 3 13 16 12 27 -1
14 4 22 13 22 10 0 15 -10 15 -30 0 -25 -5 -30 -32 -36 -21 -4 -31 -3 -30 5 1
6 -14 11 -36 11 -37 0 -57 15 -57 43 0 6 11 12 25 12 14 0 33 9 43 19 19 21
26 24 35 15z m-293 -25 c0 -14 -26 -11 -39 5 -9 11 -6 12 14 8 14 -2 25 -8 25
-13z m1478 -58 c45 -43 82 -83 82 -90 0 -13 -130 -6 -195 10 -31 8 -48 7 -79
-6 l-39 -16 6 38 c4 24 16 45 32 58 14 11 41 35 61 53 20 17 40 32 43 32 4 0
44 -35 89 -79z m-1368 62 c0 -5 4 -14 9 -22 8 -13 12 -13 26 -1 15 13 17 12
13 -5 -4 -24 -50 -28 -60 -5 -10 23 -9 40 2 40 6 0 10 -3 10 -7z m403 -16 c3
-8 -3 -14 -14 -14 -19 -2 -25 8 -12 20 10 11 20 8 26 -6z m154 -9 c-3 -8 -6
-5 -6 6 -1 11 2 17 5 13 3 -3 4 -12 1 -19z m75 -39 c4 -9 -3 -28 -15 -42 -17
-21 -25 -25 -37 -17 -13 9 -12 13 8 27 20 14 21 17 6 28 -14 10 -14 15 -4 34
11 22 12 22 24 4 7 -10 15 -25 18 -34z m-669 15 c18 -24 18 -27 2 -67 -13 -33
-15 -59 -10 -127 6 -87 -6 -186 -26 -205 -8 -7 -9 0 -3 25 4 19 7 56 5 82 -1
25 3 49 9 53 12 8 13 35 1 35 -5 0 -17 -8 -26 -17 -13 -13 -16 -29 -13 -67 3
-28 2 -64 -2 -81 -4 -20 -2 -36 8 -47 13 -16 13 -18 -2 -24 -9 -3 -16 -12 -16
-18 0 -21 -55 -67 -72 -61 -9 4 -22 -1 -30 -12 -18 -24 -78 -66 -85 -59 -3 3
6 19 21 36 14 17 26 39 26 48 1 26 33 116 52 143 14 21 14 13 -4 -56 -11 -44
-24 -84 -29 -89 -18 -20 -8 -29 11 -11 11 10 20 24 20 30 0 13 25 101 42 148
6 15 15 27 20 27 10 0 0 -70 -13 -84 -12 -13 -12 -69 0 -62 17 11 40 150 47
278 5 89 11 131 20 139 16 13 19 39 3 39 -17 0 -41 -71 -43 -125 -1 -39 -7
-56 -25 -74 -16 -16 -22 -19 -18 -8 3 9 16 64 28 122 22 104 27 111 69 114 8
0 23 -11 33 -25z m374 -1 c-14 -14 -14 -19 -1 -45 17 -33 27 -35 55 -7 25 25
35 19 17 -10 -15 -25 -40 -27 -74 -5 -25 17 -61 73 -47 75 22 2 45 8 51 13 3
3 8 4 11 1 2 -3 -3 -13 -12 -22z m1111 -4 c19 -30 8 -35 -23 -11 -17 14 -21
22 -13 25 21 9 23 8 36 -14z m-968 -19 c0 -10 7 -23 15 -30 8 -7 12 -16 9 -21
-3 -5 3 -6 13 -2 15 6 16 4 5 -9 -7 -9 -24 -19 -37 -22 -25 -6 -35 -26 -13
-26 6 0 8 -3 5 -6 -4 -4 -17 1 -31 9 l-24 16 19 41 c15 30 17 45 9 59 -8 16
-7 18 10 14 11 -3 20 -13 20 -23z m-440 -14 c0 -2 -3 -12 -6 -20 -5 -13 -9
-14 -20 -5 -16 13 -9 29 12 29 8 0 14 -2 14 -4z m1505 -14 l59 -18 -23 -23
c-12 -12 -24 -37 -26 -54 -4 -45 -15 -67 -32 -67 -10 0 -13 -6 -9 -16 4 -10
-1 -25 -10 -35 -22 -24 -38 -24 -25 -1 5 10 12 40 14 68 6 57 25 114 39 114 5
0 6 5 3 10 -7 12 -26 14 -24 3 3 -21 -2 -33 -16 -33 -8 0 -15 9 -15 19 0 11
-5 23 -10 26 -11 7 -4 25 8 25 4 0 34 -8 67 -18z m-865 -37 c0 -13 -10 -36
-23 -51 -19 -22 -29 -26 -51 -20 -17 4 -24 11 -20 18 6 9 9 9 12 0 6 -18 30
-14 42 7 12 24 13 34 1 26 -20 -12 -19 13 0 34 24 25 39 20 39 -14z m-1010 -2
c42 -15 52 -15 74 -3 34 17 76 0 76 -31 0 -18 -4 -20 -32 -15 -18 3 -61 9 -96
15 -63 9 -97 26 -86 42 7 12 9 12 64 -8z m534 -1 c-3 -9 4 -27 14 -38 22 -23
19 -32 -15 -51 -18 -10 -25 -9 -47 8 -14 11 -29 19 -33 17 -4 -2 -9 7 -11 19
-2 17 3 23 27 28 17 4 33 5 37 3 3 -2 10 5 15 15 13 22 18 22 13 -1z m756 14
c0 -2 -7 -6 -15 -10 -8 -3 -15 -1 -15 4 0 6 7 10 15 10 8 0 15 -2 15 -4z m139
-72 c-7 -38 -15 -61 -17 -52 -4 21 17 132 24 125 3 -3 -1 -36 -7 -73z m588 46
c-3 -21 -17 -40 -17 -22 0 13 11 42 16 42 2 0 3 -9 1 -20z m-1661 -32 c0 -17
5 -33 12 -35 8 -3 12 6 12 26 0 22 5 31 16 31 13 0 15 -6 9 -27 -13 -49 -13
-72 -2 -108 16 -55 30 -42 22 20 -6 55 1 69 24 42 8 -10 7 -17 -1 -25 -8 -8
-8 -26 1 -70 14 -70 5 -123 -21 -129 -13 -4 -18 -15 -18 -37 0 -31 -36 -103
-47 -92 -3 3 4 27 15 54 25 57 42 189 24 178 -7 -4 -12 -22 -12 -39 0 -41 -22
-123 -45 -166 -24 -48 -36 -91 -24 -91 5 0 14 12 20 26 5 15 12 24 15 21 10
-10 -26 -66 -61 -92 -19 -15 -47 -29 -62 -31 -16 -2 -44 -6 -63 -9 -32 -6 -33
-5 -17 8 10 8 34 18 54 22 20 3 41 12 47 18 28 30 60 128 81 252 8 44 18 100
24 125 10 46 6 65 -10 55 -5 -4 -9 -24 -9 -45 0 -72 -34 -213 -57 -240 -7 -8
-24 -29 -38 -46 -29 -37 -62 -51 -133 -57 -43 -3 -50 -2 -41 9 6 8 17 14 24
14 7 0 18 7 25 15 7 9 19 14 25 11 15 -5 70 51 114 117 37 55 63 179 54 259
-7 59 0 78 25 71 15 -3 19 -13 18 -35z m1304 12 c47 -5 93 -9 103 -9 13 -1 17
-10 17 -42 0 -43 -22 -52 -28 -11 -3 17 -10 22 -33 22 -16 0 -29 -5 -29 -12 0
-7 -10 -1 -21 15 -22 29 -47 34 -81 16 -15 -8 -26 -8 -44 1 -13 8 -36 10 -55
6 -18 -3 -29 -3 -25 1 15 15 71 32 91 27 11 -3 58 -9 105 -14z m-943 -5 c10
-8 27 -22 38 -30 19 -16 19 -16 -5 -9 -14 3 -33 15 -42 25 -29 30 -22 40 9 14z
m627 -42 c-4 -32 -11 -68 -15 -81 -5 -13 -9 -34 -9 -47 0 -13 -10 -29 -26 -40
-28 -18 -44 -14 -26 8 6 7 20 54 31 105 21 98 27 112 41 112 6 0 7 -25 4 -57z
m41 -2 c-4 -28 -11 -53 -16 -57 -12 -7 -11 4 3 65 14 64 22 59 13 -8z m-535
34 c-7 -8 -17 -12 -22 -9 -6 4 -5 10 3 15 22 14 33 10 19 -6z m-995 -15 c0 -8
11 -20 24 -26 35 -18 46 -42 28 -62 -8 -9 -18 -27 -21 -38 -5 -18 -1 -23 21
-29 41 -10 45 -26 16 -57 l-26 -27 -25 19 c-26 21 -57 26 -66 11 -3 -5 -22 -2
-41 7 -34 16 -46 44 -24 57 6 4 8 13 5 21 -3 8 1 17 8 20 10 4 14 20 13 48 -1
25 4 50 12 60 18 21 76 18 76 -4z m1420 3 c-4 -10 -11 -47 -16 -83 -5 -36 -16
-78 -23 -95 -8 -16 -23 -60 -33 -97 -15 -56 -20 -65 -34 -58 -9 5 -18 8 -20 7
-2 -1 3 5 12 13 20 19 49 82 49 107 1 10 7 29 15 43 17 29 20 96 4 105 -7 5
-6 12 4 23 8 10 17 25 20 35 4 9 11 17 18 17 7 0 8 -7 4 -17z m815 7 c0 -5 -4
-10 -10 -10 -5 0 -10 5 -10 10 0 6 5 10 10 10 6 0 10 -4 10 -10z m-1480 -11
c0 -5 4 -8 9 -5 11 7 61 -57 61 -79 0 -22 -27 -48 -35 -35 -3 5 -1 10 4 10 17
0 13 30 -5 37 -8 3 -25 -4 -38 -16 -12 -11 -25 -21 -28 -21 -15 0 -15 45 0 80
16 38 32 52 32 29z m1331 -31 c-12 -34 -48 -78 -64 -78 -6 0 -3 8 5 18 9 9 26
37 38 60 24 50 38 50 21 0z m48 -15 c-16 -32 -29 -66 -29 -76 0 -32 -33 -152
-43 -159 -6 -3 -10 -23 -9 -45 1 -21 -5 -53 -14 -70 -15 -33 -16 -33 -84 -33
-48 0 -73 -5 -84 -15 -19 -20 -40 -19 -32 1 3 9 6 22 6 30 0 8 6 11 15 8 9 -4
15 0 15 9 0 8 -6 17 -14 20 -20 8 -66 -34 -66 -61 0 -28 -16 -29 -23 0 -4 13
0 29 9 40 19 20 11 38 -16 38 -10 0 -20 6 -23 13 -3 9 -8 9 -21 -2 -9 -8 -19
-11 -23 -7 -9 9 29 36 45 31 6 -2 12 0 12 5 0 6 10 10 21 10 47 0 100 24 117
52 9 15 22 28 29 28 7 0 13 4 13 9 0 5 14 12 30 16 17 4 30 11 30 16 0 5 7 9
15 9 8 0 15 7 15 15 0 9 13 24 30 33 16 9 30 23 30 30 0 7 7 15 15 18 8 4 15
10 15 15 0 19 29 79 39 79 5 0 -4 -26 -20 -57z m-2269 11 c0 -8 -5 -12 -10 -9
-6 4 -8 11 -5 16 9 14 15 11 15 -7z m1866 -7 c-17 -12 -17 -14 -1 -27 13 -11
20 -11 36 -2 26 16 47 4 22 -13 -10 -7 -35 -15 -56 -19 -46 -9 -147 2 -147 16
0 5 4 6 10 3 5 -3 18 -1 27 4 17 10 16 11 -4 17 -13 3 -23 10 -23 15 0 15 48
10 54 -6 8 -22 26 -18 26 5 0 16 7 20 37 20 33 0 35 -1 19 -13z m-856 -1 c0
-2 -7 -6 -15 -10 -8 -3 -15 -1 -15 4 0 6 7 10 15 10 8 0 15 -2 15 -4z m1296
-85 c-14 -20 -26 -44 -26 -53 0 -9 -4 -20 -10 -23 -6 -4 -10 5 -10 19 0 14 4
26 10 26 5 0 7 6 4 14 -5 14 17 66 40 95 9 12 12 9 14 -13 2 -18 -6 -41 -22
-65z m-1526 69 c12 -8 12 -12 2 -18 -9 -6 -11 -31 -7 -92 5 -87 -3 -130 -44
-222 -11 -27 -23 -48 -27 -48 -8 0 -2 31 29 153 21 78 24 107 18 148 -8 51 -5
89 8 89 3 0 13 -5 21 -10z m323 0 c10 0 17 -8 17 -21 0 -11 4 -18 9 -15 5 3
12 -1 15 -10 10 -27 7 -44 -9 -44 -8 0 -15 9 -15 20 0 26 -27 37 -51 22 -23
-15 -29 -15 -29 -2 0 6 7 10 15 10 8 0 15 5 15 10 0 6 -4 10 -9 10 -5 0 -12 7
-15 16 -5 13 -2 15 16 10 13 -3 31 -6 41 -6z m-632 -83 c-19 -19 -23 0 -9 44
l13 44 3 -39 c2 -21 -1 -43 -7 -49z m-497 52 c-3 -5 -10 -7 -15 -3 -5 3 -7 10
-3 15 3 5 10 7 15 3 5 -3 7 -10 3 -15z m2070 8 c15 -11 15 -17 5 -42 -7 -17
-13 -34 -13 -40 -1 -5 -17 -14 -37 -19 -27 -7 -44 -5 -71 8 l-36 18 20 20 c19
19 22 20 33 5 18 -25 38 -21 52 10 9 19 10 30 2 40 -15 18 20 18 45 0z m-1615
-42 c-6 -22 -19 -51 -30 -65 -15 -20 -18 -21 -13 -5 4 11 10 25 14 30 4 6 13
27 20 48 16 49 22 43 9 -8z m409 12 c3 -28 -4 -33 -27 -18 -8 5 -11 16 -6 30
9 29 29 21 33 -12z m847 6 c-9 -37 -18 -46 -46 -40 -24 4 -24 5 -2 12 12 4 24
18 27 31 4 13 11 24 17 24 7 0 9 -10 4 -27z m-1304 -29 c-5 -11 -19 -40 -30
-66 -12 -28 -26 -48 -35 -48 -24 0 -20 41 4 47 11 3 24 20 30 42 6 20 14 42
16 50 3 10 8 11 15 4 7 -7 7 -16 0 -29z m659 -26 c0 -7 -5 -7 -14 1 -21 18
-28 -2 -17 -51 7 -27 7 -44 1 -46 -6 -2 -7 -14 -4 -27 8 -31 -35 -62 -64 -46
-24 13 -52 -13 -52 -47 0 -16 -6 -22 -21 -22 -18 0 -20 -4 -16 -27 3 -18 0
-34 -11 -46 -12 -13 -13 -20 -4 -29 8 -8 14 -4 22 17 14 38 19 29 11 -20 -4
-23 -12 -39 -19 -37 -7 1 -12 -4 -12 -12 0 -8 -10 -18 -22 -22 -13 -3 -30 -12
-38 -19 -8 -7 -26 -16 -40 -20 -14 -4 -32 -13 -40 -20 -19 -16 -51 -22 -67
-12 -7 4 -33 -2 -58 -14 -44 -21 -64 -21 -51 0 3 5 20 12 36 16 37 8 38 22 4
37 -22 10 -28 10 -39 -5 -11 -16 -14 -16 -25 -2 -7 9 -19 14 -27 11 -7 -3 -13
1 -13 9 0 8 -4 15 -10 15 -5 0 -10 4 -10 10 0 5 21 8 48 7 57 -2 202 41 202
60 0 7 7 13 15 13 8 0 14 4 13 8 -2 4 13 37 32 72 19 36 40 83 46 105 16 55
35 107 46 125 5 8 11 23 15 33 3 10 11 15 17 12 6 -3 19 -8 29 -11 9 -4 17
-11 17 -16 0 -5 12 -1 28 10 15 10 33 17 40 15 6 -3 12 0 12 6 0 6 -5 11 -11
11 -5 0 -7 5 -4 10 7 12 55 -34 55 -52z m-1072 -13 c-1 -52 -17 -59 -43 -19
-16 24 -15 26 6 45 32 28 38 24 37 -26z m1492 1 c-12 -15 -50 -10 -50 6 0 6 7
8 15 4 9 -3 20 3 27 17 11 20 13 20 16 4 2 -10 -1 -24 -8 -31z m660 19 c0 -2
-9 -9 -20 -15 -12 -6 -20 -7 -20 -1 0 5 8 12 18 14 9 3 18 5 20 6 1 0 2 -1 2
-4z m-261 -34 c23 -15 -3 -20 -29 -5 -22 12 -23 13 -5 13 11 1 26 -3 34 -8z
m177 -16 c-36 -19 -47 -19 -22 0 11 8 27 15 35 15 9 0 3 -7 -13 -15z m-282
-16 c-29 -32 -54 -43 -54 -23 0 10 5 14 15 11 8 -4 17 -1 21 5 4 7 3 8 -4 4
-7 -4 -12 -3 -12 3 0 5 10 12 23 14 12 2 24 5 26 6 2 0 -4 -8 -15 -20z m-1485
-39 c17 -33 18 -40 6 -40 -8 0 -15 9 -15 20 0 11 -7 20 -15 20 -15 0 -21 21
-8 33 9 10 9 10 32 -33z m1300 14 c-6 -8 -15 -14 -20 -14 -14 0 -11 28 4 33
20 7 29 -4 16 -19z m280 12 c15 -8 51 -18 80 -22 63 -8 56 -17 -26 -34 -105
-21 -134 -65 -102 -157 12 -32 22 -59 24 -61 8 -9 100 -10 106 -1 3 6 16 4 34
-5 l28 -15 -52 -7 c-45 -6 -52 -10 -48 -25 4 -16 -1 -19 -38 -19 -39 0 -42 2
-38 24 4 17 -1 27 -16 35 -16 9 -19 18 -15 39 7 33 -11 51 -58 61 -38 8 -50
31 -16 31 14 0 35 11 48 25 19 20 22 31 17 72 -4 37 -1 50 11 60 22 16 27 16
61 -1z m-394 -6 c3 -5 2 -10 -4 -10 -5 0 -13 5 -16 10 -3 6 -2 10 4 10 5 0 13
-4 16 -10z m791 -27 c-18 -33 -21 -26 -6 13 6 15 13 24 16 21 3 -3 -1 -18 -10
-34z m-1166 -10 c0 -20 -3 -24 -11 -16 -7 7 -9 19 -6 27 10 24 17 19 17 -11z
m350 11 c0 -8 -5 -12 -10 -9 -6 4 -8 11 -5 16 9 14 15 11 15 -7z m190 2 c0 -3
-4 -8 -10 -11 -5 -3 -10 -1 -10 4 0 6 5 11 10 11 6 0 10 -2 10 -4z m65 -27
c-9 -14 -45 -11 -45 4 0 8 3 17 6 20 10 9 46 -12 39 -24z m-1495 11 c0 -5 -4
-10 -10 -10 -5 0 -10 5 -10 10 0 6 5 10 10 10 6 0 10 -4 10 -10z m1213 -42
c-8 -14 -19 -8 -20 12 -1 16 1 17 12 7 7 -6 11 -15 8 -19z m343 20 c11 -12 -5
-58 -20 -58 -8 0 -16 10 -18 22 -5 35 -26 32 -50 -9 -19 -31 -23 -34 -27 -18
-7 40 86 91 115 63z m-1406 -38 c-11 -37 -58 -110 -71 -110 -17 0 -9 16 21 45
17 16 30 37 30 48 0 20 19 61 26 55 2 -3 -1 -19 -6 -38z m1280 30 c0 -5 -4
-10 -10 -10 -5 0 -10 5 -10 10 0 6 5 10 10 10 6 0 10 -4 10 -10z m-1513 -23
c33 -3 65 -1 70 4 4 4 30 5 58 1 36 -5 51 -12 53 -25 4 -22 -75 -107 -100
-107 -23 0 -68 -21 -68 -32 0 -4 -13 -8 -30 -8 -25 0 -29 4 -27 23 1 16 10 23
31 27 16 3 31 11 34 18 3 8 -12 12 -51 12 -61 0 -108 -14 -151 -44 -21 -14
-31 -16 -34 -8 -5 15 -38 16 -47 2 -8 -14 -62 -13 -71 1 -4 7 3 19 16 29 22
16 22 18 5 27 -20 12 -17 18 34 69 28 28 48 30 72 8 15 -13 27 -15 66 -7 29 6
47 14 45 21 -2 9 3 10 15 4 10 -5 46 -12 80 -15z m1010 -24 c-3 -10 -5 -2 -5
17 0 19 2 27 5 18 2 -10 2 -26 0 -35z m-40 15 c-3 -8 -6 -5 -6 6 -1 11 2 17 5
13 3 -3 4 -12 1 -19z m-43 -13 c-6 -16 -24 -21 -24 -7 0 11 11 22 21 22 5 0 6
-7 3 -15z m-347 -64 c-1 -26 -8 -56 -16 -65 -16 -19 -62 -41 -105 -51 -27 -6
-26 -4 15 27 24 19 57 57 73 86 17 29 31 52 32 52 1 0 2 -22 1 -49z m799 -32
c13 -12 24 -31 24 -41 0 -15 -5 -17 -27 -12 -51 12 -65 24 -58 47 4 12 8 31 9
43 1 11 7 27 12 35 7 10 10 6 12 -17 2 -17 14 -42 28 -55z m101 59 c-3 -8 -6
-5 -6 6 -1 11 2 17 5 13 3 -3 4 -12 1 -19z m-1034 -20 c-9 -44 -30 -63 -84
-76 -40 -10 -51 -9 -85 8 l-38 20 43 0 c46 0 120 31 148 62 22 24 24 23 16
-14z m497 22 c0 -5 -4 -10 -10 -10 -5 0 -10 5 -10 10 0 6 5 10 10 10 6 0 10
-4 10 -10z m360 -49 c0 -21 -16 -2 -24 29 -7 24 -6 24 8 6 9 -11 16 -27 16
-35z m450 34 c0 -8 -4 -15 -10 -15 -5 0 -10 7 -10 15 0 8 5 15 10 15 6 0 10
-7 10 -15z m-2160 -4 c0 -6 -4 -13 -10 -16 -5 -3 -10 1 -10 9 0 9 5 16 10 16
6 0 10 -4 10 -9z m1384 -33 c4 -24 3 -38 -4 -38 -5 0 -10 19 -10 42 0 49 5 47
14 -4z m566 27 c0 -8 9 -19 20 -25 18 -10 29 -40 14 -40 -8 0 -27 22 -41 48
-16 26 -16 32 -3 32 6 0 10 -7 10 -15z m-1902 -23 c-13 -16 -25 -25 -27 -20
-4 11 28 48 41 48 5 0 -1 -13 -14 -28z m1288 -60 c-4 -3 -12 0 -18 6 -9 9 -8
18 2 39 l14 28 4 -33 c2 -19 1 -37 -2 -40z m1504 58 c0 -5 -11 -10 -25 -10
-14 0 -25 5 -25 10 0 6 11 10 25 10 14 0 25 -4 25 -10z m-942 -26 c5 3 17 -3
27 -14 17 -19 17 -21 0 -40 -18 -20 -17 -20 18 -20 20 0 39 -5 42 -11 12 -18
-4 -23 -43 -13 -26 7 -37 14 -36 27 1 10 -9 29 -22 42 -27 27 -35 56 -9 35 8
-6 18 -9 23 -6z m152 6 c0 -5 -6 -10 -14 -10 -8 0 -18 5 -21 10 -3 6 3 10 14
10 12 0 21 -4 21 -10z m-836 -21 c-3 -5 -10 -7 -15 -3 -5 3 -7 10 -3 15 3 5
10 7 15 3 5 -3 7 -10 3 -15z m-1222 -9 l22 -20 -49 0 c-47 0 -48 0 -30 20 10
11 22 20 27 20 5 0 18 -9 30 -20z m1687 -9 c-15 -5 -22 6 -14 19 6 9 10 9 16
-1 5 -8 4 -15 -2 -18z m641 20 c0 -14 -18 -23 -30 -16 -6 4 -8 11 -5 16 8 12
35 12 35 0z m339 -23 c-5 -18 -9 -34 -9 -35 0 -2 -4 -3 -8 -3 -4 0 -7 12 -6
28 1 39 3 42 18 42 12 0 13 -7 5 -32z m175 23 c4 -5 -3 -7 -14 -4 -23 6 -26
13 -6 13 8 0 17 -4 20 -9z m-2284 -9 c0 -5 -9 -17 -19 -26 -18 -17 -20 -17
-30 2 -6 11 -7 22 -4 26 9 9 53 7 53 -2z m-211 -12 c-8 -4 -25 -11 -39 -15
-21 -7 -23 -6 -12 7 7 9 24 16 39 16 17 0 21 -3 12 -8z m287 -5 c-3 -8 -2 -14
2 -13 18 5 84 -14 76 -22 -11 -11 -125 -20 -153 -13 -21 5 -30 23 -11 23 6 0
19 9 30 20 24 24 65 28 56 5z m1719 -15 c-5 -16 -10 -19 -18 -11 -7 7 -6 15 3
26 17 20 24 13 15 -15z m478 3 c15 -5 17 -19 17 -102 l0 -96 -28 -2 c-15 -1
-33 4 -41 10 -8 7 -35 13 -60 13 -60 2 -61 2 -61 14 0 6 28 10 64 10 64 0 96
16 81 40 -7 11 -133 14 -160 4 -8 -4 -22 -19 -30 -34 -11 -21 -23 -28 -56 -33
-23 -3 -49 -13 -58 -22 -15 -14 -14 -16 7 -21 12 -4 22 -11 22 -17 0 -6 -20
-7 -54 -3 -30 3 -57 2 -60 -3 -13 -20 -79 -17 -211 10 -77 16 -154 29 -171 29
-16 0 -35 5 -41 11 -7 7 -24 7 -55 -1 -31 -8 -52 -9 -64 -2 -11 5 -45 15 -78
22 -47 10 -60 9 -67 -1 -6 -11 -22 -10 -81 4 -40 10 -83 17 -95 17 -13 0 -23
5 -23 10 0 6 9 10 20 10 11 0 20 4 20 8 0 5 14 9 30 9 17 0 26 -4 19 -7 -8 -6
-8 -9 1 -15 15 -9 50 23 50 47 0 18 16 23 44 12 8 -3 12 -12 10 -19 -4 -10 8
-17 38 -25 23 -6 52 -15 63 -20 31 -14 201 -30 325 -30 106 0 112 1 134 25 13
14 32 25 43 25 10 0 25 6 32 13 10 8 15 9 18 1 2 -6 10 -20 18 -30 12 -16 17
-17 35 -6 15 9 26 10 40 2 13 -7 26 -7 38 -1 10 6 28 7 40 4 16 -4 23 0 28 13
3 11 10 27 15 37 7 13 5 22 -6 34 -18 18 -16 32 8 47 19 12 25 8 31 -25 4 -27
18 -27 55 -1 13 9 31 22 40 27 9 6 19 15 24 22 5 8 16 9 40 1 17 -5 40 -12 50
-15z m-2743 7 c0 -5 -4 -10 -10 -10 -5 0 -10 5 -10 10 0 6 5 10 10 10 6 0 10
-4 10 -10z m1215 -9 c18 -8 16 -10 -15 -18 -41 -12 -42 -11 -34 11 7 17 18 19
49 7z m490 -6 l30 -13 -40 5 c-22 3 -47 9 -55 14 -26 15 32 10 65 -6z m-1301
-26 c20 -11 36 -22 36 -22 0 -1 -53 -3 -118 -4 -65 -1 -130 -6 -144 -12 -41
-16 -338 -27 -338 -13 0 8 18 10 59 6 69 -8 92 10 28 21 l-42 8 45 8 c25 4 68
12 95 17 29 6 60 6 73 1 31 -12 105 -11 118 0 27 27 136 21 188 -10z m1561 -9
c7 0 15 7 19 15 9 23 28 18 24 -7 -2 -16 -11 -24 -28 -26 -14 -2 -29 -8 -34
-13 -10 -9 -3 -10 53 -13 13 -1 26 -6 28 -11 6 -19 -204 -7 -287 16 -41 12
-79 25 -85 30 -5 5 -19 9 -32 9 -13 0 -23 5 -23 10 0 13 9 13 88 -2 37 -7 74
-20 84 -30 13 -13 34 -18 75 -18 62 0 92 17 94 54 1 17 2 18 6 4 2 -10 10 -18
18 -18z m378 14 c8 -8 -3 -34 -14 -34 -5 0 -9 9 -9 20 0 19 11 26 23 14z
m-133 -38 c0 -28 -4 -35 -25 -40 -14 -4 -25 -12 -25 -20 0 -9 -18 -15 -52 -19
-51 -5 -77 1 -50 10 6 3 12 16 12 29 0 21 5 24 38 24 46 0 82 9 82 21 0 5 -7
9 -16 9 -8 0 -12 5 -9 10 3 6 15 10 26 10 15 0 19 -7 19 -34z m-2357 17 c-7
-2 -21 -2 -30 0 -10 3 -5 5 12 5 17 0 24 -2 18 -5z m761 -30 c-22 -16 -34 -17
-34 0 0 15 43 36 49 23 2 -5 -4 -15 -15 -23z m556 8 c0 -10 -88 -34 -99 -27
-5 4 -15 -3 -21 -14 -14 -25 -30 -26 -30 -1 0 19 53 46 70 36 5 -3 18 -1 31 3
26 10 49 11 49 3z m-690 -13 c50 3 56 1 56 -18 0 -11 -4 -20 -8 -20 -4 0 -8
-9 -8 -20 0 -18 -7 -20 -61 -20 -53 0 -65 -4 -85 -25 l-23 -25 -211 0 c-194 0
-210 1 -195 16 12 12 49 18 158 25 147 8 202 20 195 41 -3 7 -15 15 -29 19
l-24 6 25 10 c14 6 32 13 40 16 8 3 38 3 65 -1 28 -3 75 -5 105 -4z m95 -38
c-3 -5 -10 -10 -16 -10 -5 0 -9 5 -9 10 0 6 7 10 16 10 8 0 12 -4 9 -10z m583
-12 c-2 -5 -8 -10 -13 -11 -13 -2 -55 -52 -55 -66 0 -19 -18 -12 -25 9 -9 29
1 54 27 66 29 13 70 14 66 2z m877 -8 c-7 -12 -52 -12 -80 0 -15 6 -6 9 33 9
33 1 51 -3 47 -9z m-1058 -34 c-3 -19 0 -39 6 -46 10 -10 -3 -11 -58 -6 -38 4
-85 2 -104 -4 -19 -5 -38 -7 -42 -4 -19 11 5 31 59 48 31 10 73 24 92 31 51
19 53 18 47 -19z m223 11 c0 -8 -9 -22 -19 -31 -11 -10 -21 -27 -23 -38 -3
-17 -5 -17 -22 -5 -24 18 -15 47 21 69 34 21 43 22 43 5z m102 -4 c-7 -3 -17
-15 -22 -28 -9 -24 -60 -41 -60 -20 0 16 41 52 65 57 23 5 36 -2 17 -9z m236
-27 c17 -9 46 -16 65 -16 50 0 106 -32 158 -89 l46 -51 69 7 c38 3 71 7 73 9
11 9 -12 16 -64 19 -54 3 -61 7 -117 59 -59 56 -63 68 -14 42 20 -10 38 -11
74 -4 47 9 179 -4 232 -24 54 -20 234 -37 278 -26 36 9 48 8 77 -8 40 -21 39
-19 24 -45 -8 -16 -7 -26 6 -45 18 -27 40 -22 32 7 -4 13 3 25 19 36 14 8 26
14 28 12 2 -2 6 -52 9 -110 l6 -106 -682 -6 c-951 -10 -1927 -9 -1927 2 0 4
33 12 73 16 187 19 195 21 159 30 -93 22 -21 30 249 25 98 -1 117 1 122 14 5
12 19 16 54 15 l48 -2 -39 -6 c-22 -3 -41 -10 -43 -16 -4 -14 528 -12 587 2
25 6 81 11 124 12 88 2 116 12 116 41 0 26 -26 26 -40 0 -8 -15 -21 -20 -51
-20 -37 0 -40 2 -34 23 4 12 13 27 21 33 18 14 18 34 0 34 -7 0 -19 6 -25 13
-8 11 2 29 47 80 l57 66 76 -3 c44 -2 89 -11 107 -20z m-1671 -2 c-3 -3 -12
-4 -19 -1 -8 3 -5 6 6 6 11 1 17 -2 13 -5z m636 -1 c-7 -2 -21 -2 -30 0 -10 3
-4 5 12 5 17 0 24 -2 18 -5z m247 -8 c0 -8 -4 -15 -10 -15 -5 0 -10 7 -10 15
0 8 5 15 10 15 6 0 10 -7 10 -15z m-106 -45 c8 0 19 8 25 17 9 17 10 17 28 0
11 -9 30 -17 43 -17 19 0 20 -2 10 -15 -7 -8 -28 -15 -48 -15 -19 0 -63 -5
-98 -12 -49 -9 -73 -9 -104 1 -33 10 -45 10 -56 0 -12 -10 -13 -15 -2 -25 10
-10 32 -9 108 2 52 7 114 13 136 14 26 0 63 11 97 29 49 26 61 28 126 23 45
-3 75 -10 83 -20 11 -13 8 -14 -19 -8 -21 5 -42 2 -60 -7 -66 -34 -143 -49
-338 -64 -118 -9 -154 -8 -188 6 l-29 11 24 21 c16 14 19 22 11 25 -31 13 -6
19 79 19 l92 0 8 32 8 32 25 -25 c13 -13 31 -24 39 -24z m-734 31 c0 -13 -26
-21 -66 -21 -46 0 -43 18 4 23 20 2 43 4 50 5 6 1 12 -2 12 -7z m567 -11 c29
0 53 -4 53 -10 0 -5 -19 -10 -42 -9 -59 2 -169 16 -138 18 14 1 32 6 40 11 9
6 18 6 24 0 6 -6 34 -10 63 -10z m577 -16 c28 -25 28 -25 10 -47 -43 -50 -58
-56 -121 -57 -36 0 -63 4 -63 10 0 6 6 10 14 10 7 0 19 7 26 15 7 8 25 15 41
15 64 0 107 40 59 55 -11 4 -18 11 -15 16 9 14 17 11 49 -17z m1661 16 c-3 -5
-35 -10 -71 -10 -41 0 -63 4 -59 10 3 6 35 10 71 10 41 0 63 -4 59 -10z
m-2741 -9 c4 -5 -7 -12 -23 -16 -16 -3 -35 -13 -42 -21 -17 -20 -109 -19 -109
1 0 12 12 15 55 13 41 -2 59 2 72 15 19 19 39 22 47 8z m121 -1 c-44 -11 -75
-11 -75 0 0 6 23 9 53 9 44 -1 48 -2 22 -9z m172 4 c-3 -3 -12 -4 -19 -1 -8 3
-5 6 6 6 11 1 17 -2 13 -5z m40 0 c-3 -3 -12 -4 -19 -1 -8 3 -5 6 6 6 11 1 17
-2 13 -5z m2206 -31 c-7 -2 -19 -2 -25 0 -7 3 -2 5 12 5 14 0 19 -2 13 -5z
m200 -30 c-24 -2 -62 -2 -85 0 -24 2 -5 4 42 4 47 0 66 -2 43 -4z m-108 -33
c3 -5 -3 -10 -14 -10 -12 0 -21 5 -21 10 0 6 6 10 14 10 8 0 18 -4 21 -10z
m155 -100 l0 -100 -89 0 c-85 0 -89 1 -93 23 -10 51 -9 147 1 147 6 0 11 -5
11 -11 0 -6 10 -9 23 -7 16 2 22 9 21 26 -1 21 3 22 63 22 l63 0 0 -100z
m-1550 37 c0 -7 -22 -21 -48 -30 -58 -21 -326 -35 -337 -18 -4 8 18 11 67 11
117 1 269 18 292 34 26 19 26 19 26 3z"/>
<g>
<path d="M1910 2221 c0 -6 4 -13 10 -16 6 -3 7 1 4 9 -7 18 -14 21 -14 7z"/>
</g>
<g>
<path d="M1980 2119 c0 -5 5 -7 10 -4 6 3 10 8 10 11 0 2 -4 4 -10 4 -5 0 -10
-5 -10 -11z"/>
</g>
<g>
<path d="M1820 2020 c0 -5 7 -10 16 -10 8 0 12 5 9 10 -3 6 -10 10 -16 10 -5
0 -9 -4 -9 -10z"/>
</g>
<g>
<path d="M1810 1980 c0 -5 5 -10 10 -10 6 0 10 5 10 10 0 6 -4 10 -10 10 -5 0
-10 -4 -10 -10z"/>
</g>
<g>
<path d="M2255 1800 c3 -5 8 -10 11 -10 2 0 4 5 4 10 0 6 -5 10 -11 10 -5 0
-7 -4 -4 -10z"/>
</g>
<g>
<path d="M2215 1770 c-3 -5 1 -10 9 -10 9 0 16 5 16 10 0 6 -4 10 -9 10 -6 0
-13 -4 -16 -10z"/>
</g>
<g>
<path d="M2020 1714 c0 -8 5 -12 10 -9 6 3 10 10 10 16 0 5 -4 9 -10 9 -5 0
-10 -7 -10 -16z"/>
</g>
<g>
<path d="M2148 1716 c-22 -16 -23 -26 -4 -26 7 0 16 9 19 20 3 11 4 20 4 20
-1 0 -10 -7 -19 -14z"/>
</g>
<g>
<path d="M1746 1663 c-6 -14 -5 -15 5 -6 7 7 10 15 7 18 -3 3 -9 -2 -12 -12z"/>
</g>
<g>
<path d="M1752 1327 c-24 -25 -31 -82 -9 -75 6 3 13 13 15 24 2 10 8 29 14 41
16 32 5 37 -20 10z"/>
</g>
<g>
<path d="M2756 1095 c-3 -8 -1 -15 4 -15 13 0 22 18 11 24 -5 3 -11 -1 -15 -9z"/>
</g>
<g>
<path d="M1660 954 c0 -8 5 -12 10 -9 6 3 10 10 10 16 0 5 -4 9 -10 9 -5 0
-10 -7 -10 -16z"/>
</g>
<g>
<path d="M1061 2809 c-13 -5 -22 -11 -19 -14 5 -5 78 14 78 20 0 8 -33 4 -59
-6z"/>
</g>
<g>
<path d="M1210 2691 c19 -16 39 -26 44 -23 12 7 -44 52 -64 52 -8 0 1 -13 20
-29z"/>
</g>
<g>
<path d="M1027 2713 c-11 -11 -8 -20 9 -27 23 -9 37 3 23 20 -13 15 -22 18
-32 7z"/>
</g>
<g>
<path d="M1140 2542 c0 -11 8 -18 23 -19 12 0 16 1 10 4 -7 3 -13 11 -13 19 0
8 -4 14 -10 14 -5 0 -10 -8 -10 -18z"/>
</g>
<g>
<path d="M1302 2533 c-26 -5 -24 -22 10 -79 23 -39 29 -41 51 -16 21 23 22 66
1 86 -16 16 -20 17 -62 9z m50 -79 c-6 -11 -13 -8 -30 15 l-22 30 23 3 c25 3
42 -25 29 -48z"/>
</g>
<g>
<path d="M1120 1821 c0 -6 5 -13 10 -16 6 -3 10 1 10 9 0 9 -4 16 -10 16 -5 0
-10 -4 -10 -9z"/>
</g>
<g>
<path d="M123 1364 c-4 -10 0 -22 10 -29 12 -9 13 -15 5 -23 -16 -16 18 -28
35 -13 9 7 24 8 45 2 40 -12 56 4 38 39 -10 21 -18 25 -54 22 -24 -1 -42 2
-42 8 0 16 -30 11 -37 -6z m52 -34 c3 -5 1 -10 -4 -10 -6 0 -11 5 -11 10 0 6
2 10 4 10 3 0 8 -4 11 -10z"/>
</g>
<g>
<path d="M182 1278 c6 -18 28 -21 28 -4 0 9 -7 16 -16 16 -9 0 -14 -5 -12 -12z"/>
</g>
<g>
<path d="M96 1261 c-3 -4 1 -17 9 -27 15 -19 15 -19 30 0 17 22 11 36 -15 36
-10 0 -21 -4 -24 -9z"/>
</g>
<g>
<path d="M247 1258 c-21 -16 -12 -58 13 -58 26 0 46 28 34 48 -14 22 -27 24
-47 10z"/>
</g>
<g>
<path d="M1284 1315 c-7 -17 1 -45 13 -45 4 0 8 14 8 30 0 32 -12 40 -21 15z"/>
</g>
<g>
<path d="M1363 1290 c-28 -35 -29 -40 -2 -40 17 0 19 -3 10 -14 -9 -11 -8 -15
5 -20 9 -4 17 -5 18 -4 1 2 6 13 13 25 9 16 9 28 0 52 -6 17 -14 31 -17 30 -3
0 -15 -13 -27 -29z"/>
</g>
<g>
<path d="M1320 1300 c0 -5 5 -10 10 -10 6 0 10 5 10 10 0 6 -4 10 -10 10 -5 0
-10 -4 -10 -10z"/>
</g>
<g>
<path d="M1065 870 c-9 -15 -1 -23 21 -18 15 3 16 4 1 16 -11 9 -17 10 -22 2z"/>
</g>
<g>
<path d="M1613 699 c-41 -20 -61 -48 -48 -69 12 -19 35 -10 35 13 0 34 45 48
163 50 111 2 151 -9 160 -45 7 -25 32 -18 32 8 0 11 -15 27 -40 41 -35 20 -54
23 -150 23 -92 0 -117 -4 -152 -21z"/>
</g>
</g>
<g>
<path d="M980 4250 c0 -5 5 -10 10 -10 6 0 10 5 10 10 0 6 -4 10 -10 10 -5 0
-10 -4 -10 -10z"/>
</g>
<g>
<path d="M1055 4160 c-18 -8 -17 -9 8 -9 16 -1 26 3 22 9 -3 6 -7 10 -8 9 -1
0 -11 -4 -22 -9z"/>
</g>
<g>
<path d="M410 4000 c0 -5 5 -10 10 -10 6 0 10 5 10 10 0 6 -4 10 -10 10 -5 0
-10 -4 -10 -10z"/>
</g>
<g>
<path d="M820 3938 c-13 -5 -33 -16 -42 -25 -20 -17 -24 -43 -8 -43 6 0 10 7
10 15 0 22 47 42 62 27 9 -9 6 -18 -11 -36 -22 -23 -17 -42 7 -28 14 9 27 88
16 95 -5 2 -20 0 -34 -5z"/>
</g>
<g>
<path d="M830 3769 c0 -5 5 -7 10 -4 6 3 10 8 10 11 0 2 -4 4 -10 4 -5 0 -10
-5 -10 -11z"/>
</g>
<g>
<path d="M1450 3748 c-30 -32 -31 -36 -26 -93 14 -141 19 -175 26 -175 15 0
17 66 5 142 -7 43 -10 80 -7 83 9 9 42 5 42 -5 0 -5 7 -10 15 -10 22 0 19 53
-4 74 -18 16 -20 16 -51 -16z"/>
</g>
<g>
<path d="M1465 3661 c-3 -11 4 -46 16 -78 72 -198 75 -211 54 -273 -7 -23 -6
-24 10 -10 28 23 16 154 -24 253 -17 43 -31 89 -31 102 0 30 -16 33 -25 6z"/>
</g>
<g>
<path d="M1100 3571 c0 -28 29 -91 41 -91 7 0 8 7 4 18 -3 9 -12 34 -18 55
-13 39 -27 49 -27 18z"/>
</g>
<g>
<path d="M1015 3540 c-4 -6 0 -22 9 -35 9 -13 16 -31 16 -38 0 -12 18 -56 39
-96 12 -23 36 -28 26 -5 -4 11 -21 56 -38 102 -29 79 -39 93 -52 72z"/>
</g>
<g>
<path d="M1160 3412 c0 -21 109 -154 121 -146 5 3 -10 29 -33 57 -24 29 -48
61 -54 71 -11 22 -34 33 -34 18z"/>
</g>
<g>
<path d="M750 1770 c0 -5 5 -10 10 -10 6 0 10 5 10 10 0 6 -4 10 -10 10 -5 0
-10 -4 -10 -10z"/>
</g>
<g>
<path d="M755 1731 c-6 -11 9 -23 19 -14 9 9 7 23 -3 23 -6 0 -12 -4 -16 -9z"/>
</g>
<g>
<path d="M815 1610 c-3 -5 3 -10 14 -10 11 0 23 5 26 10 3 6 -3 10 -14 10 -11
0 -23 -4 -26 -10z"/>
</g>
<g>
<path d="M1848 333 c-64 -4 -68 -5 -68 -28 0 -28 3 -30 29 -13 10 6 26 8 35 5
22 -9 23 -129 1 -147 -9 -7 -12 -16 -8 -20 11 -10 83 0 83 11 0 5 -4 9 -10 9
-11 0 -14 108 -4 134 9 24 54 21 54 -4 0 -32 17 -23 24 12 3 17 5 32 4 34 -7
7 -80 10 -140 7z"/>
</g>
<g>
<path d="M2010 324 c0 -7 5 -16 10 -19 14 -9 13 -148 -2 -163 -9 -9 -3 -12 29
-12 l40 0 -5 50 -5 50 37 0 36 0 0 -50 0 -50 35 0 c35 0 43 8 25 26 -5 5 -10
47 -12 94 -3 84 -3 85 -30 88 -25 3 -26 2 -21 -36 6 -45 -4 -56 -42 -46 -21 5
-25 12 -25 45 0 37 -1 38 -35 37 -21 -1 -35 -6 -35 -14z"/>
</g>
<g>
<path d="M915 321 c-3 -6 1 -13 8 -18 9 -5 17 -35 21 -79 6 -59 4 -74 -9 -88
-19 -18 -7 -26 35 -23 23 2 25 6 25 56 0 68 17 76 43 19 22 -51 43 -71 72 -66
20 3 20 4 -8 43 -40 56 -44 70 -21 91 24 22 24 50 0 64 -24 13 -158 13 -166 1z
m128 -33 c8 -27 1 -38 -24 -38 -22 0 -34 22 -25 45 8 23 43 18 49 -7z"/>
</g>
<g>
<path d="M1160 320 c-12 -8 -13 -11 -1 -19 10 -6 12 -30 10 -95 l-4 -86 46 0
c71 0 107 10 112 31 6 23 -18 26 -27 4 -3 -10 -19 -15 -46 -15 l-40 0 0 40 c0
29 4 40 15 40 8 0 15 -4 15 -10 0 -5 5 -10 10 -10 6 0 10 14 10 30 0 29 -13
40 -25 20 -12 -19 -25 -10 -25 19 0 16 6 31 13 34 22 8 67 -4 67 -19 0 -15 16
-19 24 -6 3 5 2 18 -1 30 -5 20 -12 22 -72 22 -36 0 -73 -5 -81 -10z"/>
</g>
<g>
<path d="M1356 323 c-11 -11 -6 -21 14 -26 18 -5 20 -14 20 -76 0 -64 -2 -72
-22 -80 -33 -12 -5 -23 38 -15 20 4 32 9 26 13 -10 7 -23 87 -14 95 3 3 27
-19 55 -49 27 -30 55 -55 62 -55 9 0 11 21 8 81 -4 69 -3 83 11 91 9 5 14 13
11 19 -8 12 -52 12 -60 -1 -3 -5 -1 -10 4 -10 6 0 11 -21 11 -50 0 -27 -3 -50
-7 -50 -9 0 -90 88 -96 104 -5 12 -50 20 -61 9z"/>
</g>
<g>
<path d="M540 311 c-60 -8 -80 -22 -86 -58 -6 -36 4 -45 61 -53 32 -4 40 -9
40 -25 0 -33 -64 -33 -103 0 -39 33 -51 27 -43 -21 l6 -38 75 -1 c99 -2 120 7
120 56 0 44 -35 79 -81 79 -19 0 -29 5 -29 15 0 11 11 15 35 15 22 0 38 -6 41
-15 4 -8 15 -15 26 -15 14 0 18 5 14 16 -3 9 -6 24 -6 35 0 10 -6 18 -12 17
-7 0 -33 -4 -58 -7z"/>
</g>
<g>
<path d="M669 318 c-1 -2 -3 -15 -5 -30 -4 -37 13 -45 40 -19 12 12 30 21 39
21 24 0 25 -125 0 -152 -22 -24 -16 -27 40 -21 40 5 45 8 35 20 -15 19 -19 47
-12 101 6 48 29 66 50 38 16 -23 34 -12 34 20 0 24 0 24 -110 24 -60 0 -111
-1 -111 -2z"/>
</g>
<g>
<path d="M1624 305 c-54 -37 -53 -125 1 -155 17 -9 50 -17 75 -17 l45 -1 0 46
c-1 46 -2 47 -31 44 -38 -5 -41 -9 -19 -26 18 -13 18 -14 -3 -25 -45 -24 -82
29 -66 92 4 20 14 28 40 33 20 4 40 2 48 -5 14 -12 26 -5 26 16 0 18 -89 17
-116 -2z"/>
</g>
<g>
<path d="M2295 149 c-4 -6 -4 -13 -1 -16 8 -8 36 5 36 17 0 13 -27 13 -35 -1z"/>
</g>
</g>
</svg>
