<?xml version="1.0" standalone="no"?>
<!DOCTYPE svg PUBLIC "-//W3C//DTD SVG 20010904//EN"
 "http://www.w3.org/TR/2001/REC-SVG-20010904/DTD/svg10.dtd">
<svg version="1.0" xmlns="http://www.w3.org/2000/svg"
 width="300.000000pt" height="521.000000pt" viewBox="0 0 300.000000 521.000000"
 preserveAspectRatio="xMidYMid meet">
<metadata>
Created by potrace 1.15, written by Peter Selinger 2001-2017
</metadata>
<g transform="translate(0.000000,521.000000) scale(0.100000,-0.100000)"
fill="#000000" stroke="none">
<g>
<path d="M13 5197 c-4 -7 -9 -861 -11 -1898 l-3 -1886 26 4 c15 3 25 1 25 -6
0 -6 -11 -11 -25 -11 l-25 0 0 -386 c0 -273 3 -383 11 -379 7 5 10 59 8 162
l-3 155 43 19 c24 10 47 17 51 14 4 -3 13 2 20 10 17 20 114 38 169 30 25 -3
100 -8 166 -10 95 -4 124 -1 143 11 13 8 29 13 35 10 7 -2 4 -5 -6 -5 -10 -1
-17 -6 -15 -13 3 -7 30 -11 79 -10 83 0 54 -14 -36 -18 -27 -1 -61 -5 -75 -9
-25 -8 -25 -8 7 -15 18 -4 59 -5 90 -2 32 3 52 3 45 0 -18 -9 -4 -24 23 -24
13 0 27 -4 30 -10 3 -5 28 -10 55 -10 33 0 50 -5 54 -15 7 -20 72 -14 69 6 -2
11 14 13 82 10 57 -2 85 1 85 8 0 8 -51 11 -164 11 -99 0 -167 4 -171 10 -3 6
-16 11 -28 11 -41 3 67 17 183 24 63 4 121 12 128 18 7 6 35 7 66 3 37 -4 56
-2 58 5 3 9 17 9 53 2 28 -6 40 -11 28 -12 -35 -2 -38 -21 -4 -21 17 0 31 -4
31 -10 0 -5 13 -10 29 -10 17 0 33 -5 36 -10 3 -6 37 -10 76 -10 74 0 98 -19
27 -21 -27 -1 -12 -5 41 -10 58 -6 88 -6 97 2 7 6 32 9 55 7 64 -5 59 17 -7
31 -32 6 -75 11 -96 11 -22 0 -37 4 -34 9 3 5 29 7 58 5 56 -4 73 -5 151 -4
35 0 47 4 44 12 -2 9 -26 13 -70 13 -36 0 -69 3 -73 7 -4 5 2 8 14 8 12 0 22
3 22 8 0 4 39 8 86 9 47 0 91 6 97 12 6 6 33 11 60 11 50 0 55 12 13 31 -17 8
-16 9 9 4 40 -8 85 -61 84 -100 l-1 -30 -15 35 c-19 44 -16 42 -44 32 -13 -5
-39 -5 -58 -1 -19 4 -42 4 -51 -1 -28 -15 -74 -83 -76 -110 l-1 -25 -174 -1
c-248 -3 -225 2 -242 -47 -7 -23 -18 -42 -23 -42 -13 0 -17 54 -5 69 7 9 7 16
-1 24 -9 9 -3 12 25 12 20 0 37 5 37 10 0 11 -15 13 -72 10 -31 -1 -37 1 -32
15 6 14 -2 16 -61 13 -46 -2 -70 -7 -73 -16 -3 -11 6 -12 44 -6 40 6 46 4 41
-9 -3 -9 0 -18 9 -21 8 -3 14 -12 14 -21 0 -8 5 -15 10 -15 6 0 10 7 10 15 0
8 6 15 14 15 12 0 13 -7 5 -32 -13 -47 -5 -61 53 -97 53 -33 67 -31 68 12 0 9
4 17 8 17 4 0 8 -12 7 -28 0 -22 5 -28 26 -30 22 -3 29 3 47 41 l21 44 53 -1
c64 -1 71 18 8 22 -42 2 -51 4 -75 13 -5 2 -11 -11 -12 -30 -3 -34 -29 -75
-43 -66 -4 3 -4 23 0 45 4 21 5 42 2 44 -11 11 -41 -16 -52 -46 -7 -20 -14
-28 -17 -20 -3 8 2 30 11 50 19 41 2 39 205 34 66 -2 72 -4 60 -18 -11 -14
-10 -18 6 -30 11 -8 26 -13 34 -12 20 4 26 28 7 28 -9 0 -16 5 -16 11 0 24 34
1 42 -28 l8 -32 120 1 c92 0 120 4 120 14 0 7 -15 15 -32 17 -18 2 -8 3 22 0
30 -2 58 -9 62 -16 4 -7 24 -12 45 -12 31 0 37 -3 35 -17 -3 -16 7 -18 97 -18
56 0 103 4 106 10 4 6 -23 10 -73 10 -67 0 -83 3 -105 23 l-26 22 82 0 c60 0
85 -4 93 -15 10 -13 19 -12 65 2 57 17 179 15 190 -3 3 -5 23 -12 45 -15 21
-3 57 -10 79 -15 26 -7 55 -7 84 0 42 9 50 8 116 -20 11 -5 34 -10 50 -11 36
-4 31 -23 -5 -22 -121 3 -198 8 -162 11 70 7 47 21 -33 21 -41 0 -75 -4 -75
-9 0 -5 15 -9 33 -10 27 0 29 -2 12 -9 -11 -5 -35 -9 -52 -9 -18 -1 -33 -6
-33 -12 0 -9 28 -10 100 -5 67 5 100 3 100 -4 0 -5 -20 -10 -45 -10 -25 0 -45
-4 -45 -10 0 -5 19 -10 43 -10 35 0 43 -3 44 -20 1 -11 -6 -22 -18 -25 -24 -8
-24 -21 -1 -34 16 -10 15 -10 -3 -11 -20 -1 -55 -22 -55 -34 0 -3 15 -7 33 -8
27 -1 26 -2 -13 -8 -25 -4 -35 -8 -22 -8 28 -2 28 -16 0 -30 -20 -9 -18 -11
22 -11 33 -1 41 -4 30 -11 -12 -8 -13 -11 -1 -19 20 -13 4 -16 -74 -16 -140 1
-272 8 -220 12 28 2 55 9 60 15 7 7 -6 9 -45 4 -30 -3 -63 -6 -73 -6 -10 0
-15 -4 -12 -10 4 -7 -47 -9 -147 -8 -84 1 -127 3 -95 5 81 5 71 23 -13 23 -38
0 -70 -4 -70 -9 0 -12 -112 -22 -146 -12 -25 8 -21 9 29 10 31 1 57 6 57 11 0
6 -30 10 -71 10 -60 0 -70 2 -60 14 7 8 27 14 46 13 44 -1 71 21 37 29 -12 4
-22 10 -22 15 0 5 -28 9 -62 9 -71 0 -69 -16 2 -23 25 -2 -3 -4 -62 -5 -64 -1
-108 -6 -108 -12 0 -6 28 -10 63 -10 56 0 63 -2 64 -20 2 -18 -4 -20 -55 -19
-31 1 -49 3 -39 6 35 9 16 23 -33 23 -38 0 -50 -4 -50 -15 0 -10 -10 -15 -34
-15 -18 0 -39 7 -46 15 -10 13 -9 15 9 15 11 0 21 5 21 10 0 15 -217 13 -226
-2 -5 -8 16 -10 82 -6 49 3 81 3 72 1 -10 -3 -18 -11 -18 -19 0 -11 -17 -14
-80 -14 -47 0 -80 -4 -80 -10 0 -6 87 -10 238 -11 130 -1 230 -3 222 -5 -8 -2
-129 -5 -268 -6 -204 -2 -249 -1 -235 9 14 11 -8 13 -123 14 -184 1 -180 1
-176 21 2 14 -4 18 -32 18 -42 0 -55 -14 -23 -26 36 -13 -217 -17 -308 -5
-265 37 -365 42 -365 20 0 -5 25 -9 56 -9 30 0 85 -4 122 -9 37 -6 97 -13 135
-16 141 -14 57 -23 -209 -23 -221 0 -276 2 -280 13 -3 7 -24 21 -47 30 -22 9
-53 25 -69 36 -21 15 -28 17 -28 6 0 -21 41 -54 78 -62 52 -11 37 -25 -23 -22
-46 3 -55 1 -55 -13 0 -15 26 -16 283 -16 155 1 327 -1 382 -3 55 -1 580 1
1166 5 586 4 1082 4 1102 0 l37 -7 0 -169 c0 -106 -4 -171 -10 -175 -6 -4
-674 -6 -1485 -6 -1331 1 -1475 0 -1475 -14 0 -14 64 -16 618 -14 339 1 1005
1 1480 0 587 -1 869 2 882 9 20 11 20 31 20 1903 0 1041 -4 1887 -8 1882 -17
-25 -37 -9 -46 38 -10 55 -8 58 21 51 16 -5 23 -16 26 -43 3 -20 4 21 3 91 0
69 -4 124 -8 121 -5 -2 -8 3 -8 12 0 9 5 13 10 10 16 -10 13 151 -3 167 -7 7
-16 23 -19 36 -5 17 -2 22 13 22 26 0 25 37 -1 45 -11 3 -56 42 -99 85 -81 80
-161 135 -183 127 -7 -2 12 -20 42 -39 100 -65 168 -156 222 -296 11 -29 17
-56 13 -60 -10 -11 -35 29 -35 56 0 32 -78 106 -96 91 -9 -7 -17 -3 -28 13 -9
12 -16 27 -16 33 -1 5 -11 23 -24 39 -32 39 -44 15 -13 -26 21 -29 22 -36 12
-56 -9 -16 -15 -20 -20 -12 -4 7 -2 15 4 19 8 5 5 15 -10 34 -11 15 -25 25
-30 22 -5 -4 -15 6 -21 22 -7 15 -21 36 -30 45 -10 10 -18 28 -18 39 0 19 4
18 45 -15 41 -34 50 -36 46 -13 -3 21 32 2 56 -30 15 -21 35 -45 44 -53 8 -8
19 -24 22 -34 4 -10 10 -16 14 -13 7 7 -25 77 -35 77 -4 0 -18 16 -31 36 -30
44 -60 62 -72 43 -8 -11 -12 -11 -23 3 -7 10 -16 15 -19 11 -4 -3 -9 2 -13 11
-3 9 -15 16 -25 16 -10 0 -19 5 -19 12 0 6 -7 20 -17 30 -22 24 -8 36 16 14
10 -10 22 -13 25 -8 3 5 -19 26 -49 47 -30 21 -61 49 -68 64 -31 66 -185 108
-324 88 -77 -11 -129 -51 -119 -91 3 -13 -1 -37 -10 -55 -9 -18 -13 -39 -10
-48 4 -9 -1 -35 -10 -59 -19 -49 -14 -74 15 -74 17 0 19 5 15 45 l-4 46 38 -2
c20 -2 42 -6 49 -11 8 -6 11 -4 9 8 -2 10 -13 19 -27 21 -13 2 -28 9 -34 15
-7 8 -4 9 13 5 12 -3 22 -1 22 4 0 5 0 12 0 17 0 4 -5 7 -12 7 -6 0 -13 6 -16
14 -3 8 0 11 6 7 6 -4 16 3 22 14 10 19 9 20 -12 15 -22 -6 -24 -3 -25 34 -3
62 12 69 159 76 91 4 188 -26 188 -58 0 -15 -7 -13 -45 13 -37 25 -54 31 -93
29 -26 -1 -55 1 -64 5 -25 11 -23 -11 1 -24 30 -16 14 -77 -17 -65 -9 3 -13 3
-9 -1 4 -4 -2 -13 -13 -21 -16 -11 -17 -17 -8 -32 7 -12 18 -16 31 -13 13 3
18 1 13 -6 -7 -12 -53 -11 -73 1 -7 4 -14 3 -18 -3 -6 -10 -5 -11 15 -14 18
-2 39 -40 28 -53 -7 -8 6 -19 46 -38 31 -15 61 -23 67 -19 7 4 10 1 7 -7 -6
-17 -104 -25 -122 -10 -9 8 -11 1 -7 -32 6 -39 9 -43 44 -51 47 -12 42 -32 -6
-28 -30 2 -36 0 -31 -13 3 -8 1 -15 -4 -15 -6 0 -12 9 -14 20 -2 12 -7 20 -13
20 -5 -1 -9 -8 -7 -16 2 -8 -5 -14 -18 -14 -27 0 -26 -26 3 -34 17 -5 19 -8 8
-15 -7 -5 -22 -6 -32 -4 -22 6 -26 -15 -4 -23 21 -8 7 -27 -16 -21 -20 5 -26
-7 -9 -18 6 -4 8 -11 5 -16 -3 -5 -18 -1 -32 8 -26 17 -26 17 -20 -6 5 -20 3
-23 -19 -18 -28 5 -34 -19 -6 -26 16 -4 16 -4 -1 -12 -12 -5 -24 -2 -36 9 -26
24 -35 4 -10 -23 l20 -22 -25 7 c-19 4 -28 2 -32 -11 -4 -10 -14 -15 -25 -12
-21 6 -27 -19 -6 -26 6 -2 8 -8 4 -13 -5 -5 -31 15 -58 45 -39 42 -47 56 -38
67 16 20 53 18 45 -2 -4 -11 -1 -14 11 -12 10 2 19 12 21 23 2 11 30 47 62 80
33 33 62 73 66 90 4 17 9 34 12 40 10 17 12 65 2 65 -14 0 -27 -30 -34 -80 -5
-37 -16 -55 -63 -103 -54 -55 -115 -87 -121 -63 -1 6 -29 23 -62 39 -80 37
-90 41 -90 30 0 -5 32 -26 70 -47 58 -31 69 -40 59 -52 -15 -18 -69 -18 -103
0 -19 10 -40 11 -82 4 -46 -7 -61 -6 -81 7 -32 21 -40 45 -20 60 15 11 15 13
0 28 -21 21 -15 27 20 20 19 -4 27 -11 27 -27 1 -20 2 -20 14 -3 7 9 17 17 22
17 5 0 24 14 42 31 30 28 33 37 30 75 -2 34 0 44 14 48 10 2 18 12 18 21 0 20
-31 75 -43 75 -4 0 -7 6 -6 13 3 26 -2 34 -26 45 -31 14 -35 15 -35 3 0 -5 9
-11 20 -14 11 -3 20 -12 20 -21 0 -8 11 -26 25 -40 14 -14 25 -35 25 -48 -1
-20 -3 -18 -15 10 -10 23 -23 34 -45 38 -23 5 -28 10 -20 19 13 16 -1 28 -22
20 -9 -4 -19 4 -26 20 -17 37 -39 41 -68 15 l-24 -23 0 35 c0 20 -3 43 -6 52
-3 9 -1 16 5 16 6 0 13 -11 17 -25 7 -27 19 -33 27 -12 4 9 7 9 14 -1 9 -12
103 -25 103 -13 0 3 -23 19 -51 35 -29 16 -48 23 -44 16 6 -10 2 -11 -16 -6
-100 31 -228 40 -269 20 -14 -7 -33 -15 -43 -18 -9 -3 -20 -14 -24 -23 -3 -10
-13 -26 -21 -36 -20 -23 -23 -57 -5 -57 10 0 12 6 8 20 -5 14 -2 20 9 20 11 0
16 9 16 30 0 30 6 36 45 42 14 2 21 -3 23 -19 2 -13 -1 -23 -7 -23 -6 0 -11 7
-11 16 0 8 -4 12 -10 9 -17 -10 -11 -25 13 -34 21 -9 21 -9 2 -16 -38 -13 -50
-22 -50 -41 0 -12 8 -20 23 -22 28 -4 29 -28 1 -43 -16 -8 -18 -13 -9 -19 7
-4 9 -13 5 -19 -5 -9 -10 -9 -21 0 -10 8 -12 22 -8 45 5 30 4 34 -15 34 -12 0
-21 -6 -21 -16 0 -8 5 -12 10 -9 7 4 9 -2 5 -17 -4 -17 0 -29 15 -43 18 -17
19 -20 4 -36 -14 -16 -13 -18 6 -32 12 -9 19 -20 15 -26 -3 -6 -1 -11 4 -11
14 0 14 -27 1 -35 -16 -10 -41 16 -35 35 4 13 -1 19 -20 24 -27 7 -35 36 -10
36 8 0 15 5 15 10 0 6 -11 8 -26 4 -19 -5 -25 -4 -20 5 4 6 -3 15 -18 20 -13
6 -29 18 -34 28 -6 10 -13 15 -17 11 -10 -10 13 -46 34 -53 11 -3 24 -18 29
-34 12 -35 69 -97 106 -116 37 -19 36 -20 25 17 -11 40 -11 38 -1 38 13 0 32
-48 26 -65 -4 -8 -1 -15 5 -15 6 0 11 -16 11 -35 0 -52 -26 -69 -108 -71 -37
0 -79 -4 -94 -9 -42 -11 -33 5 34 59 l60 48 -20 20 -20 20 -48 -35 c-27 -20
-58 -42 -68 -50 -12 -9 -16 -16 -9 -20 6 -4 37 13 69 38 31 25 62 45 67 45 15
0 -22 -37 -76 -77 l-48 -35 -38 26 c-35 24 -131 127 -131 140 0 4 -13 24 -29
47 -47 64 -63 126 -58 221 2 46 7 92 11 103 6 16 -1 28 -35 54 -52 42 -102 47
-211 20 -92 -23 -128 -38 -128 -54 0 -13 -106 -95 -124 -95 -6 0 -27 -16 -45
-35 -19 -19 -43 -37 -53 -41 -24 -7 -23 -24 2 -24 31 0 24 -17 -30 -69 -27
-27 -51 -58 -51 -70 -1 -11 -2 -27 -3 -33 -1 -7 -8 -18 -17 -25 -8 -6 -24 -30
-34 -52 -10 -23 -21 -41 -24 -41 -7 0 -4 657 5 838 l6 134 627 -6 c1764 -16
2331 -18 2331 -9 0 18 -285 23 -1615 28 -721 3 -1322 8 -1337 10 -15 2 -31 -1
-35 -8z m723 -473 c23 -22 25 -30 19 -62 -15 -77 -6 -190 20 -246 48 -106 170
-252 235 -281 22 -10 40 -21 40 -25 0 -3 -13 -16 -29 -28 -21 -15 -31 -18 -34
-9 -3 9 -9 9 -26 0 -31 -19 -36 -16 -10 6 21 17 22 20 7 26 -10 4 -24 0 -33
-9 -30 -29 -29 -17 0 14 34 36 27 51 -11 21 -15 -11 -34 -21 -43 -20 -11 0 -9
3 7 9 12 6 22 18 22 30 0 23 -18 27 -26 5 -7 -17 -44 -21 -44 -5 0 6 5 10 10
10 6 0 10 7 10 15 0 14 -17 19 -65 16 -11 0 -14 2 -7 5 18 8 15 34 -4 34 -14
0 -14 3 -4 15 12 14 8 15 -31 11 -24 -3 -36 -3 -26 0 26 8 21 34 -7 34 -14 0
-28 4 -31 10 -3 5 0 7 8 4 20 -7 31 14 17 31 -13 16 -5 35 15 35 8 0 16 4 19
9 4 5 -4 7 -16 3 -17 -4 -20 -2 -15 11 4 10 3 17 -1 17 -4 0 -17 3 -29 6 -19
5 -23 2 -23 -15 0 -21 -10 -27 -23 -14 -9 8 22 43 39 43 8 0 11 6 8 15 -4 9 0
15 10 15 19 0 22 20 4 20 -8 1 -4 8 7 18 27 22 32 72 7 73 -11 1 -9 4 8 9 l25
8 -22 7 c-26 8 -31 25 -8 25 8 0 15 3 16 8 0 4 2 15 4 25 2 9 -3 17 -11 17 -7
0 -11 6 -8 14 10 25 -28 28 -55 4 -14 -13 -28 -26 -31 -29 -13 -16 -48 -19
-59 -5 -9 11 -5 19 21 40 33 26 24 36 -13 15 -11 -5 -28 -9 -37 -6 -11 2 -2
10 28 24 59 28 65 29 110 25 24 -3 50 -14 66 -28z m-226 1 c0 -8 -61 -37 -67
-32 -3 3 8 12 24 21 29 16 43 19 43 11z m1906 -32 c-7 -7 -26 7 -26 19 0 6 6
6 15 -2 9 -7 13 -15 11 -17z m-1926 -12 c-27 -21 -73 -34 -68 -19 2 5 7 9 11
9 3 0 19 6 34 14 39 21 53 18 23 -4z m1918 -36 c14 -31 5 -38 -20 -13 -13 13
-29 18 -44 15 -25 -5 -32 11 -13 30 16 16 64 -3 77 -32z m120 14 c19 -30 -6
-21 -26 9 -12 19 -12 22 -1 17 8 -3 20 -15 27 -26z m-1198 7 c0 -1 -5 -17 -11
-34 -8 -24 -7 -37 5 -61 18 -34 2 -57 -19 -28 -7 10 -18 17 -25 17 -7 0 -18
-7 -25 -17 -7 -9 -17 -13 -23 -9 -21 13 -13 25 21 34 24 6 33 14 35 33 6 51
13 69 27 69 8 0 15 -2 15 -4z m112 -13 c41 -37 10 -103 -48 -103 -56 0 -79 60
-42 108 15 17 68 15 90 -5z m-896 -24 c4 -7 22 -9 48 -5 l41 6 -34 -15 c-18
-8 -44 -12 -56 -9 -17 4 -27 0 -37 -15 -15 -24 -38 -28 -38 -6 0 8 6 15 14 15
8 0 18 9 21 20 7 22 30 27 41 9z m1034 1 c0 -5 -4 -10 -10 -10 -5 0 -10 5 -10
10 0 6 5 10 10 10 6 0 10 -4 10 -10z m-1190 -4 c0 -3 -4 -8 -10 -11 -5 -3 -10
-1 -10 4 0 6 5 11 10 11 6 0 10 -2 10 -4z m44 -37 c-32 -34 -36 -35 -27 -11 9
27 35 52 45 46 5 -4 -3 -19 -18 -35z m2056 21 c11 -11 20 -29 20 -40 0 -16 -7
-20 -34 -20 -34 0 -46 13 -46 48 0 12 3 13 12 4 19 -19 30 -14 18 8 -7 14 -7
20 0 20 5 0 19 -9 30 -20z m95 -26 c31 -31 45 -64 45 -105 0 -31 -6 -35 -29
-20 -12 8 -13 12 -1 25 11 14 10 22 -6 54 -10 20 -25 41 -31 45 -12 8 -18 27
-8 27 2 0 16 -12 30 -26z m-1957 -39 c-3 -30 0 -56 5 -58 18 -6 -32 -87 -53
-87 -24 0 -25 8 -3 40 9 13 18 33 19 44 1 12 4 27 6 35 1 7 -3 16 -9 18 -7 3
-13 -2 -13 -11 0 -8 -5 -18 -10 -21 -21 -13 1 57 23 76 34 29 40 23 35 -36z
m927 16 c-3 -12 0 -21 10 -25 8 -3 15 -15 15 -27 0 -11 10 -29 23 -40 22 -19
22 -19 2 -34 -26 -20 -40 -13 -38 19 1 17 -3 26 -13 26 -8 0 -14 9 -14 21 0
12 -7 27 -17 34 -21 16 -10 45 17 45 16 0 20 -4 15 -19z m-1115 -16 c-14 -16
-50 -21 -50 -6 0 8 15 14 54 20 5 0 3 -6 -4 -14z m-145 -15 c-3 -5 -11 -10
-16 -10 -6 0 -7 5 -4 10 3 6 11 10 16 10 6 0 7 -4 4 -10z m1090 1 c11 -5 28
-4 38 1 10 5 31 6 47 3 26 -6 28 -9 17 -26 -6 -10 -19 -19 -27 -19 -9 0 -21
-5 -28 -12 -14 -14 -16 -94 -2 -103 6 -3 10 3 10 15 0 16 5 21 23 19 12 -2 32
3 44 9 22 12 23 12 19 -37 -3 -27 -13 -64 -23 -81 -37 -67 -41 -73 -55 -81
-38 -25 -112 6 -138 57 -8 16 -18 31 -22 34 -4 3 -10 21 -13 40 -3 19 -10 36
-14 38 -9 3 -3 42 7 42 3 0 14 -7 24 -17 15 -14 22 -14 46 -3 25 12 26 13 7
20 -11 4 -26 5 -34 2 -8 -3 -20 3 -28 14 -8 10 -16 18 -18 17 -3 -2 -5 0 -5 5
-1 14 49 13 79 -3 24 -12 31 -22 31 -45 0 -17 5 -30 10 -30 16 0 11 66 -6 81
-9 7 -34 15 -57 18 -46 6 -50 28 -4 23 18 -2 29 2 33 12 7 18 10 18 39 7z
m1099 -71 c12 -36 28 -91 36 -122 7 -32 17 -58 22 -58 9 0 77 -73 91 -97 5 -8
7 -17 4 -19 -8 -8 -37 8 -37 20 0 6 -9 18 -21 26 -32 23 -77 100 -90 155 -6
28 -20 71 -30 97 -22 54 -24 71 -8 66 7 -2 21 -33 33 -68z m31 36 c8 -19 19
-37 25 -41 5 -3 10 -12 10 -18 0 -8 -3 -7 -9 2 -5 7 -13 11 -19 7 -11 -7 -22
15 -22 45 0 10 -4 19 -10 19 -5 0 -10 5 -10 10 0 23 22 8 35 -24z m-2182 0
c-21 -28 -24 -28 -16 2 3 12 12 22 20 22 11 0 10 -5 -4 -24z m70 -11 c-3 -9
-8 -14 -10 -11 -3 3 -2 9 2 15 9 16 15 13 8 -4z m87 -6 c0 -26 -35 -102 -54
-118 -12 -10 -11 -4 3 26 10 21 21 55 25 76 7 39 26 51 26 16z m1037 15 c-3
-3 -12 -4 -19 -1 -8 3 -5 6 6 6 11 1 17 -2 13 -5z m-1257 -8 c0 -2 -7 -7 -16
-10 -8 -3 -12 -2 -9 4 6 10 25 14 25 6z m276 -54 c-19 -36 -50 -41 -33 -5 5
13 14 23 18 23 4 0 11 10 15 23 6 17 9 19 12 5 2 -9 -4 -30 -12 -46z m978 40
c9 -14 -8 -29 -41 -37 -29 -6 -33 -4 -33 13 0 11 6 23 13 25 20 8 55 8 61 -1z
m136 -28 c0 -17 -8 -27 -26 -35 -34 -12 -39 -7 -14 16 11 10 20 27 20 37 0 11
5 16 10 13 6 -3 10 -17 10 -31z m-1250 -61 l-21 -38 6 39 c4 21 11 50 18 65
l11 26 4 -27 c2 -15 -6 -44 -18 -65z m-144 9 c-18 -16 -18 -16 -6 6 6 13 14
21 18 18 3 -4 -2 -14 -12 -24z m2109 9 c-3 -6 -11 -11 -17 -11 -6 0 -6 6 2 15
14 17 26 13 15 -4z m280 -99 c-10 -11 -84 56 -93 84 -9 29 -6 27 44 -24 29
-31 52 -58 49 -60z m-1085 88 c0 -5 -2 -10 -4 -10 -3 0 -8 5 -11 10 -3 6 -1
10 4 10 6 0 11 -4 11 -10z m87 -2 c-2 -7 3 -21 11 -31 12 -14 13 -20 3 -30 -9
-9 -14 -9 -20 2 -7 11 -10 11 -17 0 -5 -8 -9 -21 -9 -29 0 -8 -7 -15 -15 -15
-8 0 -14 5 -13 10 1 7 -12 9 -33 7 -22 -3 -34 0 -34 8 0 7 8 9 20 5 11 -3 20
-2 20 4 0 5 9 8 20 6 22 -4 26 5 9 22 -16 16 -1 35 22 28 14 -5 17 -3 13 9 -4
11 0 16 11 16 9 0 15 -6 12 -12z m-1297 -18 c0 -11 -4 -20 -10 -20 -5 0 -10 9
-10 20 0 11 5 20 10 20 6 0 10 -9 10 -20z m143 6 c3 -8 -2 -21 -12 -30 -10 -9
-33 -46 -51 -81 -18 -35 -41 -72 -51 -81 -26 -24 -25 0 2 38 12 16 29 49 38
71 16 43 51 96 62 97 4 0 9 -6 12 -14z m1857 -21 c-14 -17 -30 -20 -30 -6 0 5
8 12 18 14 9 3 19 5 21 6 2 0 -2 -6 -9 -14z m194 -1 c8 -21 8 -24 -3 -24 -5 0
-11 9 -14 20 -6 24 8 27 17 4z m-2224 -15 c0 -6 -4 -7 -10 -4 -5 3 -10 11 -10
16 0 6 5 7 10 4 6 -3 10 -11 10 -16z m310 11 c0 -5 -5 -10 -11 -10 -5 0 -7 5
-4 10 3 6 8 10 11 10 2 0 4 -4 4 -10z m912 -12 c-7 -7 -12 -8 -12 -2 0 14 12
26 19 19 2 -3 -1 -11 -7 -17z m913 1 c4 -6 5 -12 3 -14 -7 -7 -48 7 -48 16 0
13 37 11 45 -2z m-2145 -40 c0 -20 -15 -26 -25 -9 -9 15 3 43 15 35 5 -3 10
-15 10 -26z m2148 1 c6 0 12 -5 12 -10 0 -12 -50 -2 -65 13 -7 6 -2 8 15 3 14
-3 31 -6 38 -6z m-2068 -14 c0 -8 -9 -24 -21 -37 -11 -13 -18 -19 -15 -13 3 6
10 23 15 38 11 28 21 34 21 12z m2344 -7 c-3 -5 -10 -7 -15 -3 -5 3 -7 10 -3
15 3 5 10 7 15 3 5 -3 7 -10 3 -15z m-2599 -9 c-3 -5 -13 -10 -21 -10 -8 0
-14 5 -14 10 0 6 9 10 21 10 11 0 17 -4 14 -10z m151 -28 c-9 -8 -26 10 -26
26 1 15 2 15 15 -2 8 -11 13 -21 11 -24z m220 -7 c-9 -21 -16 -46 -16 -56 0
-18 -17 -35 -27 -26 -11 12 10 89 30 107 28 26 31 19 13 -25z m2299 9 c11 -6
41 -52 68 -103 38 -74 47 -102 47 -142 0 -31 -4 -48 -10 -44 -5 3 -10 15 -10
26 0 11 -7 22 -15 25 -8 4 -15 16 -15 28 -1 39 -27 121 -39 119 -11 -3 -15 8
-12 38 1 9 -14 28 -34 43 -19 15 -32 32 -29 38 5 8 11 7 18 -3 6 -8 20 -19 31
-25z m-535 5 c0 -10 -21 -12 -44 -3 -27 10 -18 21 14 16 17 -2 30 -8 30 -13z
m610 -21 c0 -14 -16 -9 -34 11 -13 15 -14 20 -4 24 13 5 38 -19 38 -35z m-406
26 c9 -3 16 -10 16 -15 0 -14 -54 -10 -76 6 -18 14 -17 14 13 15 17 0 38 -3
47 -6z m-2214 -35 c0 -6 -4 -7 -10 -4 -5 3 -10 11 -10 16 0 6 5 7 10 4 6 -3
10 -11 10 -16z m2060 11 c0 -5 -10 -10 -22 -9 -22 0 -22 1 -3 9 11 5 21 9 23
9 1 1 2 -3 2 -9z m-87 -11 c7 0 3 -4 -8 -8 -22 -9 -35 -5 -35 11 0 5 7 7 16 4
9 -3 21 -6 27 -7z m518 -65 c25 -54 33 -65 51 -62 16 2 25 -5 36 -32 l14 -35
-27 25 c-19 17 -29 21 -32 12 -3 -6 -9 -10 -14 -7 -12 8 -49 94 -49 116 0 10
-4 21 -10 24 -5 3 -10 10 -10 16 0 23 13 4 41 -57z m28 52 c8 -9 8 -16 2 -20
-6 -4 -15 3 -21 14 -12 23 2 27 19 6z m-2649 1 c0 -2 -10 -12 -21 -23 -22 -19
-22 -19 -8 4 12 19 29 30 29 19z m109 -37 c0 -10 -3 -8 -9 5 -12 27 -12 43 0
25 5 -8 9 -22 9 -30z m1937 15 c18 -15 18 -15 -5 -13 -14 2 -26 9 -29 16 -5
17 10 15 34 -3z m-828 -23 c4 -23 29 -48 39 -39 3 4 -2 18 -11 31 -21 33 -21
33 19 34 38 1 40 -3 25 -44 -15 -39 -5 -41 26 -5 34 40 53 28 29 -19 -22 -42
-11 -50 23 -17 31 30 47 35 38 12 -6 -17 9 -21 20 -4 3 6 15 8 26 6 16 -4 19
-2 15 13 -4 15 3 19 42 23 25 3 51 2 56 -3 6 -4 31 -11 57 -15 41 -6 56 -16
108 -69 l60 -61 -23 -17 c-12 -10 -17 -18 -10 -18 6 0 14 4 18 9 9 16 69 -7
88 -34 10 -13 43 -38 72 -55 50 -29 85 -62 85 -82 0 -5 -20 -8 -44 -8 -42 0
-66 -13 -51 -28 3 -3 10 0 14 7 14 23 116 9 146 -19 35 -33 31 -43 -11 -25
-42 17 -116 20 -145 5 -27 -15 -54 -69 -40 -83 7 -7 12 -5 16 9 26 80 75 94
171 47 47 -23 60 -35 77 -73 12 -25 23 -48 25 -52 2 -5 -4 -8 -12 -8 -15 0
-15 -3 -3 -27 15 -29 13 -53 -4 -53 -5 0 -9 6 -9 13 0 18 -39 53 -69 62 -21 6
-23 5 -16 -11 20 -49 15 -55 -13 -17 -37 50 -47 56 -84 55 -31 -1 -58 -17 -58
-35 0 -5 9 -2 20 8 38 34 29 9 -10 -27 l-39 -37 1 42 c0 23 6 52 15 65 14 22
13 23 -6 13 -27 -15 -28 -15 -35 20 -4 23 0 39 15 61 12 16 18 32 14 36 -9 9
-64 -59 -65 -80 0 -19 -25 -25 -35 -8 -10 17 -90 11 -138 -10 -26 -12 -61 -39
-80 -63 -42 -51 -61 -87 -48 -87 5 0 12 9 16 19 3 11 27 42 53 69 40 42 56 52
106 63 39 9 63 9 75 3 29 -18 55 -86 58 -154 3 -55 0 -69 -18 -90 -14 -16 -23
-21 -26 -12 -8 21 -43 13 -52 -12 -5 -13 -18 -26 -28 -30 -14 -6 -16 -5 -5 5
27 29 9 26 -45 -7 -56 -34 -93 -43 -93 -24 0 6 -6 10 -14 10 -8 0 -16 7 -20
15 -4 11 1 15 18 15 13 0 53 16 90 35 36 19 66 32 66 30 0 -3 -28 -26 -62 -51
-37 -27 -52 -43 -38 -39 75 23 160 108 180 180 16 57 6 111 -20 118 -23 6 -81
-8 -122 -29 -26 -14 -98 -98 -98 -115 0 -16 19 -9 24 9 10 27 69 88 104 106
45 23 97 18 96 -9 -1 -11 -2 -35 -2 -54 -2 -27 -12 -44 -48 -78 -26 -24 -51
-43 -55 -43 -18 0 -8 16 26 40 44 32 84 110 56 110 -5 0 -12 -11 -15 -24 -6
-25 -74 -91 -84 -81 -3 3 11 22 31 43 20 21 37 41 37 45 0 4 -24 -20 -52 -53
l-53 -60 -57 6 c-96 8 -148 -28 -148 -105 0 -15 -5 -32 -12 -39 -6 -6 -9 -14
-5 -18 13 -13 27 9 33 57 8 62 38 89 98 89 22 0 48 -5 56 -10 11 -7 0 -10 -38
-10 -69 0 -102 -29 -102 -89 0 -37 -3 -42 -39 -61 -32 -16 -40 -26 -43 -52 -2
-26 -10 -36 -36 -48 -23 -10 -35 -23 -39 -42 -7 -35 -15 -42 -86 -67 -38 -13
-57 -16 -54 -8 2 7 25 19 51 27 50 16 76 41 76 72 0 10 8 21 18 25 29 10 52
35 52 56 0 11 8 29 18 40 16 18 16 19 -2 16 -21 -4 -32 -21 -40 -60 -3 -14
-16 -31 -30 -37 -13 -6 -32 -28 -42 -49 -15 -28 -27 -39 -51 -44 -18 -3 -43
-13 -56 -22 -24 -15 -25 -15 -51 25 -42 64 -34 74 27 32 21 -14 41 -23 44 -21
9 10 -78 66 -93 60 -18 -7 -18 -46 0 -81 33 -62 172 -172 197 -156 13 8 10 36
-5 57 -18 23 -31 5 -16 -23 13 -24 3 -26 -29 -4 l-22 16 22 24 c12 13 18 24
12 24 -6 0 -16 -7 -23 -15 -14 -17 -36 -20 -45 -5 -8 12 53 50 81 50 25 0 74
46 74 69 0 9 17 25 38 36 28 15 38 27 40 50 2 23 12 35 40 50 34 18 37 24 40
67 4 57 19 70 81 74 27 1 58 7 70 13 13 7 21 8 21 2 0 -14 -34 -31 -60 -31
-44 0 -77 -27 -83 -68 -7 -41 -27 -65 -64 -76 -18 -6 -23 -15 -23 -42 0 -21 4
-33 10 -29 6 3 10 17 10 30 0 18 9 28 34 40 20 9 39 29 46 46 14 34 12 33 70
13 28 -10 61 -14 88 -10 39 5 42 4 41 -17 0 -12 -3 -16 -6 -9 -2 6 -9 12 -15
12 -6 0 -10 -58 -9 -157 0 -87 -1 -540 -3 -1008 l-4 -850 -29 -3 c-48 -5 -55
15 -64 169 -4 77 -11 144 -14 149 -4 6 -8 295 -10 643 -4 713 -13 1053 -27
1039 -15 -15 -6 -1582 11 -1737 5 -55 13 -137 16 -183 5 -82 5 -82 -20 -92
-15 -6 -37 -7 -49 -4 -30 7 -32 34 -46 479 -6 187 -15 432 -20 545 -6 112 -10
271 -10 353 0 81 -7 210 -16 285 -9 75 -13 152 -11 170 3 17 2 32 -3 32 -19 0
-23 -56 -11 -179 6 -69 13 -229 16 -356 19 -854 34 -1244 50 -1292 6 -20 4
-23 -18 -23 -23 0 -25 3 -31 78 -9 110 -29 544 -26 565 9 70 -14 1134 -25
1145 -15 15 -20 -24 -13 -110 3 -51 7 -309 8 -573 1 -506 15 -983 30 -1050 9
-43 4 -63 -13 -46 -25 25 -96 8 -127 -30 -28 -34 -70 -34 -118 2 l-43 31 3
517 c3 501 -5 952 -17 972 -4 5 -11 7 -16 3 -6 -4 -8 -60 -3 -152 3 -81 8
-402 10 -714 4 -628 7 -598 -60 -598 -43 0 -60 19 -47 53 5 14 15 78 21 143 5
66 15 144 20 174 15 85 30 487 30 778 0 255 -1 264 -20 269 -25 7 -26 34 -1
59 67 67 71 69 133 65 46 -2 72 3 113 21 59 25 69 38 32 38 -26 0 -86 40 -131
89 -28 29 -56 41 -56 24 1 -10 47 -60 93 -100 21 -18 34 -33 30 -33 -15 0 -62
35 -87 65 -20 23 -28 27 -38 17 -9 -9 -5 -19 22 -47 40 -41 31 -46 -16 -10
-39 30 -44 31 -44 7 0 -10 -7 -28 -15 -40 -15 -20 -18 -21 -40 -6 -13 8 -26
22 -29 31 -9 22 26 53 53 46 27 -7 28 13 1 29 -13 8 -20 24 -20 42 0 23 3 27
12 18 22 -22 29 -13 13 18 -24 47 -17 58 11 17 14 -21 29 -35 34 -32 11 7 -12
58 -38 88 -14 15 -13 20 4 52 10 19 25 35 33 35 16 0 80 -40 118 -74 25 -21
43 -15 24 8 -8 9 -11 61 -9 162 2 198 0 284 -9 284 -5 0 -9 -83 -10 -185 -1
-102 -5 -194 -8 -205 -13 -41 -20 -10 -17 77 1 48 4 185 5 303 1 118 6 221 10
228 5 6 6 12 2 12 -18 0 -27 -70 -26 -200 0 -80 -4 -172 -10 -205 -7 -33 -11
-93 -10 -133 l2 -73 -28 8 c-15 4 -37 7 -47 7 -18 0 -18 7 -11 111 4 60 10
200 14 310 6 166 5 205 -8 230 -8 17 -16 25 -19 17 -2 -7 1 -18 6 -25 7 -8 7
-91 0 -247 -6 -129 -10 -266 -10 -305 1 -93 -12 -138 -43 -155 -14 -7 -25 -20
-25 -28 0 -11 3 -12 14 -3 12 10 11 4 -1 -31 -8 -24 -12 -57 -10 -75 7 -38 1
-46 -25 -32 -17 9 -19 17 -13 52 4 23 8 51 9 62 1 11 5 26 9 33 5 7 4 12 -3
12 -6 0 -8 5 -5 10 4 6 10 8 15 5 4 -3 14 2 21 11 10 12 10 17 0 23 -9 6 -8
11 4 21 13 11 15 9 15 -9 0 -12 5 -19 10 -16 19 12 11 97 -12 132 -31 44 -45
42 -18 -2 29 -46 17 -44 -31 5 -38 39 -80 53 -94 30 -3 -6 4 -10 17 -10 29 0
47 -14 76 -57 22 -32 30 -83 12 -83 -5 0 -6 -8 -3 -17 4 -10 -6 -3 -21 15 -44
51 -58 55 -116 33 -58 -22 -70 -7 -22 28 34 24 62 19 110 -17 31 -24 32 -24
32 -3 0 11 -11 28 -25 37 -38 25 -87 22 -134 -9 -22 -15 -43 -27 -46 -27 -10
0 -5 49 6 56 7 4 8 23 4 51 -6 44 -5 47 36 89 24 24 49 44 57 44 7 0 10 5 7
10 -7 12 -39 -3 -73 -33 l-23 -21 6 59 c4 33 13 94 20 135 17 88 19 136 10
168 -4 12 -3 22 3 22 5 0 13 -10 16 -22 6 -22 7 -22 20 -5 10 13 11 25 4 45
-24 64 77 225 156 249 27 8 41 8 62 -3 34 -18 39 -18 24 1 -7 8 -21 15 -31 15
-11 0 -19 5 -19 10 0 6 13 10 28 10 34 0 65 -31 81 -81 15 -47 38 -67 97 -85
57 -17 121 -18 198 -2 64 12 76 28 76 99 0 40 -5 45 -28 30 -11 -7 -11 -9 2
-14 23 -9 20 -60 -4 -82 -14 -13 -42 -19 -109 -23 -79 -4 -95 -2 -136 18 -37
18 -51 32 -68 69 -12 25 -22 48 -24 51 -6 9 52 8 64 -1 14 -12 19 -4 28 44 8
40 28 46 33 9z m-1134 -4 c9 -37 7 -43 -9 -22 -16 21 -19 44 -6 44 5 0 11 -10
15 -22z m2110 14 c3 -5 -9 -9 -27 -9 -26 -1 -28 1 -12 7 27 11 33 12 39 2z
m590 -18 c9 -24 2 -26 -12 -4 -7 11 -8 20 -3 20 5 0 12 -7 15 -16z m-794 -4
c0 -5 -4 -10 -10 -10 -5 0 -10 5 -10 10 0 6 5 10 10 10 6 0 10 -4 10 -10z
m563 -73 c-6 -11 -23 2 -23 17 0 8 -7 19 -15 26 -8 7 -15 17 -15 23 0 6 13 -4
29 -23 16 -19 27 -38 24 -43z m-2593 59 c0 -3 -4 -8 -10 -11 -5 -3 -10 -1 -10
4 0 6 5 11 10 11 6 0 10 -2 10 -4z m222 -18 c-7 -7 -12 -8 -12 -2 0 14 12 26
19 19 2 -3 -1 -11 -7 -17z m1763 12 c3 -5 1 -10 -4 -10 -6 0 -11 5 -11 10 0 6
2 10 4 10 3 0 8 -4 11 -10z m495 -31 c0 -5 -4 -9 -10 -9 -5 0 -10 7 -10 16 0
8 5 12 10 9 6 -3 10 -10 10 -16z m381 -28 c1 -23 8 -60 20 -105 6 -21 8 -40 5
-43 -11 -11 -29 45 -34 104 -2 35 -9 63 -13 63 -5 0 -9 8 -9 18 1 15 2 15 15
-2 8 -11 15 -27 16 -35z m-2156 30 c-6 -5 -23 -12 -40 -16 l-30 -6 30 15 c35
17 53 20 40 7z m1559 3 c20 -8 11 -24 -15 -24 -19 0 -25 11 -12 23 8 8 8 8 27
1z m-2054 -8 c0 -2 -7 -7 -16 -10 -8 -3 -12 -2 -9 4 6 10 25 14 25 6z m389
-13 c8 -16 5 -18 -22 -17 -50 2 -54 5 -22 19 17 8 31 14 32 15 1 0 7 -8 12
-17z m122 -17 c-14 -16 -59 -27 -66 -15 -3 4 8 10 25 14 16 4 33 11 36 16 3 6
8 8 11 5 3 -3 1 -12 -6 -20z m1379 9 c11 -13 7 -15 -23 -15 -32 0 -53 11 -42
21 11 11 54 7 65 -6z m130 -22 c30 -14 32 -17 14 -23 -12 -5 -20 -3 -22 6 -2
8 -10 14 -18 14 -8 0 -14 5 -14 10 0 13 1 13 40 -7z m-2280 -13 c0 -5 -5 -10
-11 -10 -5 0 -7 5 -4 10 3 6 8 10 11 10 2 0 4 -4 4 -10z m2549 -32 c18 -38 19
-40 2 -22 -18 18 -38 64 -28 64 3 0 14 -19 26 -42z m-1859 6 c0 -8 -3 -14 -7
-15 -5 0 -20 -2 -35 -4 -16 -2 -28 1 -28 6 0 5 6 9 14 9 7 0 19 7 26 15 14 17
30 11 30 -11z m1279 0 c14 -12 -19 -1 -35 12 -18 14 -18 14 6 3 14 -6 27 -13
29 -15z m-1199 6 c12 -8 9 -10 -12 -10 -16 0 -28 5 -28 10 0 13 20 13 40 0z
m80 -10 c-14 -11 -31 -20 -39 -20 -17 0 -10 8 21 26 35 19 46 16 18 -6z m39
-15 c-8 -8 -27 -16 -44 -20 -29 -6 -28 -5 8 15 20 11 37 26 38 33 0 8 2 8 6
-1 3 -8 -1 -20 -8 -27z m1168 29 c-3 -3 -12 -4 -19 -1 -8 3 -5 6 6 6 11 1 17
-2 13 -5z m-1962 -14 c3 -5 1 -10 -4 -10 -6 0 -11 5 -11 10 0 6 2 10 4 10 3 0
8 -4 11 -10z m2255 0 c0 -5 -2 -10 -4 -10 -3 0 -8 5 -11 10 -3 6 -1 10 4 10 6
0 11 -4 11 -10z m315 0 c3 -6 -1 -7 -9 -4 -18 7 -21 14 -7 14 6 0 13 -4 16
-10z m-2163 -42 c-12 -12 -74 -6 -79 7 -2 6 15 9 43 6 29 -2 42 -7 36 -13z
m93 2 c3 -6 -1 -7 -9 -4 -18 7 -21 14 -7 14 6 0 13 -4 16 -10z m119 -11 c-3
-5 -10 -7 -15 -3 -5 3 -7 10 -3 15 3 5 10 7 15 3 5 -3 7 -10 3 -15z m1989 -6
c4 -2 5 -8 2 -13 -7 -11 -42 -1 -56 17 -11 12 -8 13 17 7 16 -4 32 -9 37 -11z
m-1847 -8 c-20 -15 -36 -19 -36 -10 0 5 38 23 50 24 3 0 -4 -6 -14 -14z m-186
-10 c0 -9 -9 -15 -25 -15 -31 0 -33 17 -2 23 12 2 23 5 25 6 1 0 2 -6 2 -14z
m1620 -1 c0 -2 -7 -4 -15 -4 -8 0 -15 4 -15 10 0 5 7 7 15 4 8 -4 15 -8 15
-10z m560 -14 c21 -21 26 -40 12 -40 -9 0 -33 25 -46 48 -11 19 12 14 34 -8z
m-2388 0 c19 0 27 -4 22 -11 -9 -14 -92 -6 -107 11 -10 10 -5 11 22 6 18 -3
47 -6 63 -6z m117 -21 c-25 -16 -32 -9 -13 12 12 13 20 16 22 9 3 -7 -2 -16
-9 -21z m208 14 c5 -14 -52 -27 -88 -21 -23 4 -22 6 11 21 39 18 71 18 77 0z
m1253 7 c0 -5 -2 -10 -4 -10 -3 0 -8 5 -11 10 -3 6 -1 10 4 10 6 0 11 -4 11
-10z m-1724 -37 c-10 -10 -19 5 -10 18 6 11 8 11 12 0 2 -7 1 -15 -2 -18z
m1912 15 c9 -9 12 -9 12 1 0 7 5 9 11 5 8 -4 7 -9 -2 -14 -7 -5 -12 -22 -12
-39 0 -16 -4 -28 -9 -25 -5 3 -8 13 -6 22 1 10 -3 27 -10 40 -14 24 -4 30 16
10z m142 -14 c0 -8 -4 -12 -10 -9 -5 3 -10 13 -10 21 0 8 5 12 10 9 6 -3 10
-13 10 -21z m-1720 -19 c-7 -8 -19 -15 -28 -15 -12 0 -10 6 9 26 24 26 41 16
19 -11z m163 29 c9 -9 -30 -38 -84 -61 -40 -18 -45 -18 -44 -4 2 30 16 41 49
41 19 0 39 7 46 15 13 16 23 19 33 9z m1377 -20 c0 -8 -4 -12 -10 -9 -5 3 -10
10 -10 16 0 5 5 9 10 9 6 0 10 -7 10 -16z m316 -22 c-9 -8 -26 10 -26 26 1 15
2 15 15 -2 8 -11 13 -21 11 -24z m-2032 17 c-8 -14 -74 -42 -81 -35 -12 12 8
35 34 39 51 7 54 7 47 -4z m-174 -9 c0 -5 -5 -10 -11 -10 -5 0 -7 5 -4 10 3 6
8 10 11 10 2 0 4 -4 4 -10z m478 -51 c-32 -28 -58 -58 -58 -67 -1 -16 -1 -16
-11 0 -6 12 -6 23 2 35 12 19 74 63 90 63 5 0 9 5 9 10 0 6 6 10 13 10 6 0
-14 -23 -45 -51z m-303 11 c-16 -16 -34 -30 -40 -30 -6 0 -26 -14 -43 -31 -37
-36 -48 -34 -30 5 8 19 17 26 29 23 10 -3 19 -2 21 2 3 7 80 61 87 61 3 0 -8
-13 -24 -30z m196 -23 c-5 -23 -13 -33 -29 -35 -30 -5 -30 33 0 65 26 28 38
15 29 -30z m1989 34 c0 -12 -20 -25 -27 -18 -7 7 6 27 18 27 5 0 9 -4 9 -9z
m-2305 -20 c-3 -6 -11 -8 -17 -5 -6 4 -5 9 3 15 16 10 23 4 14 -10z m155 6 c0
-2 -15 -16 -32 -33 l-33 -29 29 33 c28 30 36 37 36 29z m2380 -46 c0 -14 10
-35 21 -48 18 -18 20 -25 9 -38 -21 -25 -41 -19 -34 10 7 27 -4 33 -24 13 -16
-16 -15 -3 1 23 10 17 9 22 -5 30 -11 6 -15 16 -11 27 16 41 43 31 43 -17z
m-2902 -3 l12 -33 -20 25 c-21 27 -25 40 -12 40 4 0 13 -15 20 -32z m816 7
c-4 -16 -2 -25 6 -25 8 0 10 -11 5 -32 -13 -73 -28 -117 -36 -112 -14 8 -10
68 6 90 15 20 20 54 8 54 -5 0 -17 -18 -27 -40 -18 -36 -46 -55 -46 -30 0 22
29 78 51 99 30 28 41 27 33 -4z m-464 11 c0 -3 -4 -8 -10 -11 -5 -3 -10 -1
-10 4 0 6 5 11 10 11 6 0 10 -2 10 -4z m2430 -50 c-1 -16 -5 -12 -15 13 -19
42 -19 52 0 27 8 -11 15 -29 15 -40z m-2490 8 c-5 -20 -13 -41 -19 -47 -6 -6
-11 -21 -11 -33 0 -26 -17 -41 -31 -27 -5 5 0 25 12 48 12 22 28 52 36 68 19
36 23 34 13 -9z m210 7 c-5 -11 -15 -23 -22 -27 -7 -5 -8 -2 -3 7 21 37 44 55
25 20z m46 -45 c-8 -20 -20 -36 -25 -36 -16 0 -13 15 11 56 26 44 35 31 14
-20z m2114 25 c0 -10 -25 -21 -48 -21 -15 1 -14 3 2 15 22 17 46 20 46 6z
m-2015 -11 c-3 -5 -11 -10 -16 -10 -6 0 -7 5 -4 10 3 6 11 10 16 10 6 0 7 -4
4 -10z m1730 -70 c-6 -125 -6 -126 -16 -101 -5 13 -6 59 -2 105 4 56 9 73 13
56 4 -14 6 -41 5 -60z m-35 49 c0 -5 -4 -9 -10 -9 -5 0 -10 7 -10 16 0 8 5 12
10 9 6 -3 10 -10 10 -16z m-2220 1 c0 -5 -5 -10 -11 -10 -5 0 -7 5 -4 10 3 6
8 10 11 10 2 0 4 -4 4 -10z m240 -32 c0 -5 -4 -8 -9 -8 -5 0 -12 -10 -16 -22
-7 -20 -9 -18 -12 15 -2 20 -9 37 -14 37 -6 0 -7 5 -4 10 6 10 54 -18 55 -32z
m320 27 c0 -9 -72 -85 -81 -85 -14 0 -10 34 6 57 9 12 22 20 29 17 8 -3 17 -1
21 5 6 11 25 15 25 6z m1950 -24 c0 -11 -50 -24 -58 -16 -8 8 19 25 41 25 9 0
17 -4 17 -9z m-1925 -65 c-6 -49 -3 -70 9 -95 9 -17 21 -29 26 -26 6 4 10 -8
10 -26 0 -18 5 -47 12 -66 6 -18 8 -36 4 -40 -13 -13 -26 21 -26 69 0 42 -10
65 -22 53 -2 -2 0 -43 5 -91 8 -80 6 -106 -9 -91 -3 3 -7 47 -10 99 -2 51 -8
94 -13 96 -6 2 -8 9 -5 17 3 7 0 23 -6 35 -9 17 -8 33 6 76 9 30 19 54 21 54
3 0 2 -29 -2 -64z m-605 44 c0 -5 -2 -10 -4 -10 -3 0 -8 5 -11 10 -3 6 -1 10
4 10 6 0 11 -4 11 -10z m2760 -32 c25 -55 26 -78 1 -47 -19 24 -38 89 -26 89
3 0 15 -19 25 -42z m-2340 -3 c-7 -14 -19 -25 -27 -25 -18 0 -17 4 9 33 27 31
36 26 18 -8z m160 32 c0 -2 -10 -12 -22 -23 l-23 -19 19 23 c18 21 26 27 26
19z m2245 -17 c-2 -27 -15 -38 -15 -13 0 16 8 33 15 33 1 0 1 -9 0 -20z
m-2165 2 c0 -5 -7 -9 -15 -9 -8 0 -12 4 -9 9 3 4 9 8 15 8 5 0 9 -4 9 -8z
m2007 -14 c-3 -8 -6 -5 -6 6 -1 11 2 17 5 13 3 -3 4 -12 1 -19z m-2582 -8 c3
-5 -3 -10 -15 -10 -12 0 -18 5 -15 10 3 6 10 10 15 10 5 0 12 -4 15 -10z m380
-9 c3 -5 1 -12 -5 -16 -5 -3 -10 1 -10 9 0 18 6 21 15 7z m217 -31 c13 0 9
-37 -5 -43 -8 -3 -14 0 -14 6 -1 7 -4 28 -7 47 -6 31 -5 33 5 13 7 -13 16 -23
21 -23z m-728 9 c-3 -5 -10 -7 -15 -3 -5 3 -7 10 -3 15 3 5 10 7 15 3 5 -3 7
-10 3 -15z m516 -61 c-20 -24 -30 -46 -27 -58 6 -24 -18 -48 -26 -26 -6 14 27
85 59 129 14 19 20 21 22 10 2 -8 -11 -33 -28 -55z m170 33 c5 -17 5 -31 0
-31 -10 0 -20 26 -20 52 0 28 8 19 20 -21z m1587 -8 c-3 -10 -5 -2 -5 17 0 19
2 27 5 18 2 -10 2 -26 0 -35z m-367 10 c0 -22 -2 -25 -10 -13 -13 20 -13 40 0
40 6 0 10 -12 10 -27z m-1308 -8 c3 -13 1 -22 -3 -19 -9 5 -13 44 -5 44 2 0 6
-11 8 -25z m1472 9 c23 -22 20 -24 -14 -11 -16 6 -30 15 -30 19 0 14 28 9 44
-8z m355 -41 c1 -7 -3 -13 -9 -13 -5 0 -10 17 -9 38 1 33 2 34 9 12 4 -14 8
-31 9 -37z m-1986 32 c-3 -9 -8 -14 -10 -11 -3 3 -2 9 2 15 9 16 15 13 8 -4z
m-348 -55 c-11 -12 -13 -20 -5 -25 12 -7 4 -25 -12 -25 -5 0 -8 7 -5 15 4 8 2
17 -3 20 -6 3 0 20 13 36 17 24 23 27 25 14 2 -9 -4 -25 -13 -35z m475 40 c0
-5 -5 -10 -11 -10 -5 0 -7 5 -4 10 3 6 8 10 11 10 2 0 4 -4 4 -10z m1612 -17
c12 -30 13 -91 3 -124 -7 -21 -58 -52 -69 -42 -3 4 5 19 19 33 27 29 38 94 22
138 -12 33 11 28 25 -5z m-102 2 c14 -8 19 -14 12 -15 -8 0 -12 -9 -10 -22 2
-16 -4 -26 -19 -33 -17 -7 -21 -15 -17 -32 4 -14 2 -23 -5 -23 -7 0 -11 -20
-11 -49 0 -42 -5 -56 -36 -93 -46 -55 -61 -61 -34 -13 12 21 19 40 16 43 -8 7
-36 -18 -36 -33 0 -7 -7 -18 -15 -25 -21 -17 -19 -7 10 49 24 49 24 72 -1 47
-7 -8 -23 -32 -35 -55 -11 -22 -27 -41 -35 -41 -18 0 -18 19 -1 39 8 9 24 33
36 54 33 54 2 50 -35 -5 -22 -34 -29 -39 -32 -24 -2 10 4 35 14 55 9 20 20 43
24 51 4 8 18 15 31 15 16 1 23 6 21 16 -1 9 7 24 18 34 11 10 20 26 20 35 0 9
5 21 12 28 16 16 77 15 108 -3z m-1850 -38 c0 -5 -4 -5 -10 -2 -6 3 -10 -5
-10 -19 0 -14 -5 -28 -10 -31 -11 -7 -6 57 6 76 6 11 24 -6 24 -24z m1907 -14
c-3 -10 -5 -4 -5 12 0 17 2 24 5 18 2 -7 2 -21 0 -30z m-1410 -20 c-3 -10 -5
-2 -5 17 0 19 2 27 5 18 2 -10 2 -26 0 -35z m-127 -18 c-26 -110 -23 -103 -28
-75 -5 33 18 134 28 124 5 -5 5 -27 0 -49z m1759 17 c0 -16 -3 -21 -6 -12 -3
8 -10 18 -16 21 -12 8 1 31 14 24 5 -4 9 -18 8 -33z m509 -28 c-3 -27 -4 -26
-9 8 -3 22 -1 34 4 29 5 -5 7 -21 5 -37z m-2830 16 c-7 -10 -14 -18 -15 -16
-6 6 9 36 18 36 5 0 4 -9 -3 -20z m112 -30 c-7 -22 -17 -40 -23 -40 -5 0 -6 8
-2 18 4 9 12 30 17 45 16 43 23 22 8 -23z m267 28 c-3 -8 -6 -5 -6 6 -1 11 2
17 5 13 3 -3 4 -12 1 -19z m215 -105 c3 -73 1 -81 -12 -67 -16 16 -17 74 -4
154 9 52 12 37 16 -87z m1667 72 c1 -17 -1 -17 -9 -5 -5 8 -9 26 -9 40 0 23 1
23 9 5 5 -11 9 -29 9 -40z m-2247 -47 c-7 -13 -21 -54 -32 -92 -21 -75 -23
-79 -45 -82 -20 -3 -19 5 5 41 11 17 20 33 20 37 0 16 -28 -4 -38 -28 -7 -13
-16 -24 -22 -24 -15 0 2 29 39 69 17 18 31 42 31 52 0 10 7 19 15 19 10 0 15
10 15 27 0 21 3 24 12 15 9 -9 9 -17 0 -34z m425 10 c-3 -8 -6 -5 -6 6 -1 11
2 17 5 13 3 -3 4 -12 1 -19z m1618 12 c-3 -5 -14 -10 -23 -10 -15 0 -15 2 -2
10 20 13 33 13 25 0z m643 -21 c-2 -6 -8 -10 -13 -10 -5 0 -11 4 -13 10 -2 6
4 11 13 11 9 0 15 -5 13 -11z m-2463 -19 c3 -5 1 -10 -4 -10 -6 0 -11 5 -11
10 0 6 2 10 4 10 3 0 8 -4 11 -10z m448 -96 c3 -83 11 -111 43 -154 6 -8 14
-51 18 -96 3 -45 13 -105 22 -134 16 -54 13 -75 -9 -48 -17 23 -101 49 -136
42 -48 -10 -66 -38 -64 -97 2 -33 8 -56 18 -63 8 -6 15 -21 15 -33 0 -32 117
-146 159 -154 97 -19 141 6 141 82 0 28 -8 59 -20 79 -25 41 -21 49 22 44 l34
-4 -3 -306 c-2 -169 -9 -345 -14 -391 l-11 -83 -32 6 c-17 4 -53 20 -79 36
-27 17 -57 30 -67 30 -10 0 -22 5 -26 11 -3 6 -15 8 -26 6 -26 -7 -48 2 -48
18 0 22 -85 86 -104 79 -10 -4 -16 -1 -16 7 0 8 -12 27 -25 42 -18 20 -31 26
-45 22 -11 -4 -20 -10 -20 -15 0 -21 46 -120 55 -120 6 0 18 -14 28 -31 16
-29 16 -33 2 -49 -11 -12 -25 -16 -43 -13 -15 3 -43 6 -64 6 -32 2 -69 17 -40
17 7 0 12 14 12 30 0 17 -5 30 -11 30 -6 0 -8 -7 -5 -16 9 -23 -3 -37 -20 -23
-7 6 -11 16 -7 23 13 20 9 136 -4 136 -9 0 -13 -19 -13 -60 0 -33 -4 -60 -9
-60 -17 0 -19 14 -11 60 5 26 5 49 0 54 -12 12 -19 -7 -24 -67 -4 -55 -9 -63
-25 -43 -10 11 -9 24 2 58 8 24 13 46 10 51 -7 12 -23 -2 -23 -21 0 -9 -4 -23
-9 -30 -6 -10 -12 -6 -25 14 -10 14 -13 23 -6 19 7 -4 16 -1 21 6 33 52 -25
45 -75 -9 -154 -165 -155 -166 -162 -149 -5 14 -10 13 -40 -10 l-35 -26 3 119
3 119 50 6 50 6 -52 1 c-35 1 -53 6 -53 15 0 9 27 11 112 9 62 -2 110 -1 106
3 -4 4 -51 9 -104 11 -53 2 -100 7 -105 10 -20 12 -7 23 24 19 l32 -5 -32 12
c-33 11 -33 11 -33 79 0 38 4 69 8 69 4 0 23 -11 42 -25 37 -27 59 -33 41 -12
-6 8 -29 22 -51 32 l-40 18 0 194 c0 106 4 193 9 193 18 0 29 -27 36 -85 4
-33 9 -68 12 -78 9 -33 30 0 47 74 10 44 23 77 36 87 11 9 33 40 48 68 46 86
111 159 137 156 13 -2 43 6 66 17 30 15 53 19 75 15 25 -4 34 -2 42 13 10 16
14 16 33 4 20 -12 24 -11 41 12 20 28 58 27 58 -2 0 -9 4 -22 9 -30 8 -12 12
-12 25 -2 9 8 16 22 16 31 0 10 10 31 23 47 40 50 52 80 37 98 -11 13 -10 18
5 29 10 7 19 24 21 37 3 33 3 33 9 27 3 -3 7 -45 8 -94z m1352 86 c3 -5 1 -10
-4 -10 -6 0 -11 5 -11 10 0 6 2 10 4 10 3 0 8 -4 11 -10z m128 -35 c-3 -73
-15 -105 -59 -153 -54 -61 -120 -98 -157 -88 -29 7 -44 43 -32 73 6 17 7 17
16 0 6 -9 7 -27 3 -39 -6 -20 -4 -21 36 -15 31 4 53 16 81 43 52 51 50 66 -3
19 -38 -35 -42 -37 -49 -19 -4 10 -3 23 2 29 16 16 10 26 -10 15 -26 -13 -31
-13 -31 3 0 8 11 19 25 25 14 6 25 16 25 22 0 13 -13 13 -28 -2 -17 -17 -27
-1 -11 18 7 9 14 23 15 31 5 29 27 43 68 43 22 0 48 5 56 10 13 8 12 10 -3 10
-10 0 -15 5 -12 11 4 5 21 9 38 7 30 -3 32 -5 30 -43z m-395 -13 c2 -12 8 -22
13 -22 5 0 9 -8 9 -19 0 -14 13 -23 49 -35 28 -9 57 -16 65 -16 20 0 20 -10 1
-46 -20 -40 -19 -70 5 -94 25 -25 79 -26 122 -4 42 22 126 102 144 137 12 22
18 26 29 17 7 -6 16 -21 19 -34 6 -24 48 -52 64 -42 6 3 8 15 5 26 -8 30 6 25
89 -29 28 -18 46 -22 72 -18 30 5 37 1 65 -34 33 -41 51 -49 51 -24 0 34 32 9
45 -35 9 -29 20 -40 65 -63 19 -10 55 -45 79 -78 24 -34 50 -63 58 -66 8 -3
20 -20 27 -37 15 -38 20 -166 6 -166 -5 0 -10 17 -10 38 0 20 -4 43 -9 51 -17
27 -31 -1 -31 -62 -1 -58 -2 -61 -15 -37 -10 19 -15 21 -18 10 -38 -116 -47
-147 -47 -164 0 -17 -2 -18 -10 -6 -5 8 -7 40 -4 70 6 72 -7 155 -25 155 -22
0 -50 -46 -60 -95 l-9 -45 -1 37 c-1 47 -10 68 -27 68 -10 0 -14 -14 -14 -50
0 -55 -15 -67 -25 -20 -8 38 -25 29 -25 -13 -1 -36 -29 -97 -30 -63 0 23 -28
56 -45 56 -7 0 -15 9 -18 19 -3 14 -11 18 -26 14 -12 -3 -27 -1 -34 5 -20 17
-87 -45 -87 -80 0 -16 5 -28 10 -28 6 0 10 10 10 23 0 13 11 34 25 47 33 31
49 16 51 -49 1 -51 9 -71 25 -71 6 0 7 6 3 12 -10 16 -12 108 -3 108 12 0 49
-65 49 -86 1 -18 1 -18 15 0 15 20 15 20 15 0 0 -11 -9 -30 -20 -42 -11 -12
-20 -24 -20 -26 0 -3 18 -9 40 -12 47 -8 46 -6 54 -59 7 -40 6 -41 -34 -63
-44 -23 -70 -28 -70 -13 0 5 7 11 15 15 17 6 20 42 5 51 -5 3 -10 20 -10 36 0
26 -2 29 -19 19 -31 -16 -71 -13 -71 6 0 13 7 15 31 10 22 -4 29 -2 27 7 -3 6
-17 13 -31 15 -19 2 -27 9 -27 23 0 27 -20 24 -21 -3 -1 -17 -2 -19 -6 -5 -6
25 -23 21 -23 -5 0 -19 -2 -20 -10 -8 -5 8 -10 25 -10 38 0 12 -4 22 -10 22
-5 0 -10 -9 -10 -20 0 -15 -7 -20 -25 -20 -14 0 -25 4 -25 8 0 5 -16 27 -36
50 -19 23 -43 65 -52 94 -10 32 -23 53 -31 53 -12 0 -14 -20 -12 -114 1 -63 6
-124 11 -135 4 -12 5 -53 2 -92 l-7 -69 -6 92 c-4 63 -11 100 -23 118 -14 22
-20 25 -27 14 -5 -8 -9 -25 -10 -39 l-1 -25 -10 28 c-15 42 -25 32 -33 -33 -4
-33 -11 -60 -16 -60 -6 0 -7 21 -3 49 7 53 -3 161 -14 161 -4 0 -20 -39 -37
-86 -21 -65 -31 -82 -36 -68 -4 11 -8 30 -8 43 -1 32 -22 101 -31 101 -4 0
-11 -31 -14 -70 -4 -38 -11 -72 -17 -75 -5 -4 -10 -30 -10 -58 l-2 -52 -8 60
c-24 177 -38 441 -39 740 -1 138 -1 254 -1 258 2 18 26 0 29 -21z m-1467 -9
c-8 -15 -10 -15 -11 -2 0 17 10 32 18 25 2 -3 -1 -13 -7 -23z m249 -11 c0 -15
-2 -15 -10 -2 -13 20 -13 33 0 25 6 -3 10 -14 10 -23z m1934 -4 c-3 -5 -12 -4
-20 3 -7 6 -11 15 -8 21 3 5 12 4 20 -3 7 -6 11 -15 8 -21z m-2017 -10 c-3 -7
-5 -2 -5 12 0 14 2 19 5 13 2 -7 2 -19 0 -25z m-443 -5 c-7 -30 -24 -55 -24
-35 0 12 21 62 27 62 2 0 0 -12 -3 -27z m216 13 c0 -8 -4 -18 -10 -21 -5 -3
-10 3 -10 14 0 12 5 21 10 21 6 0 10 -6 10 -14z m296 -64 c-6 -5 -36 54 -36
70 0 7 9 -5 20 -27 11 -21 18 -40 16 -43z m2324 68 c0 -5 -4 -10 -10 -10 -5 0
-10 5 -10 10 0 6 5 10 10 10 6 0 10 -4 10 -10z m-153 -81 c7 -52 -3 -50 -17 4
-6 23 -14 51 -17 62 -4 18 -3 17 12 -3 9 -13 19 -41 22 -63z m-2431 17 c-9
-19 -16 -41 -16 -49 0 -9 -5 -19 -12 -23 -8 -5 -9 2 -5 24 9 46 39 109 44 94
3 -7 -2 -28 -11 -46z m94 19 c-15 -28 -30 -33 -30 -11 0 17 30 49 38 41 3 -3
-1 -16 -8 -30z m513 7 c9 -8 17 -27 17 -41 0 -19 -3 -22 -12 -13 -19 19 -30
14 -22 -10 11 -36 11 -62 0 -77 -8 -11 -8 -13 2 -7 10 6 11 1 6 -19 -11 -43
13 -75 55 -75 l36 -1 -24 -19 c-18 -15 -22 -26 -17 -46 8 -32 52 -74 78 -74
11 0 16 -4 13 -10 -3 -5 -19 -10 -35 -10 -30 0 -65 29 -76 62 -5 16 -24 26
-24 13 0 -16 35 -70 58 -91 19 -16 22 -23 12 -24 -25 0 -56 27 -75 66 -11 25
-20 33 -27 26 -13 -13 36 -85 69 -103 12 -7 20 -16 17 -20 -9 -15 -50 13 -69
47 -10 19 -22 34 -27 34 -20 0 5 -47 40 -77 21 -18 23 -23 10 -23 -9 0 -27 15
-39 33 -13 17 -26 34 -30 37 -36 26 -63 223 -44 320 3 13 -1 20 -12 20 -12 0
-13 3 -4 13 6 8 8 17 4 20 -3 4 -1 13 5 20 7 8 9 17 5 20 -9 10 58 36 76 29 9
-3 24 -12 34 -20z m-713 8 c0 -5 -5 -10 -11 -10 -5 0 -7 5 -4 10 3 6 8 10 11
10 2 0 4 -4 4 -10z m420 -20 c0 -5 -5 -10 -11 -10 -5 0 -7 5 -4 10 3 6 8 10
11 10 2 0 4 -4 4 -10z m150 -87 c0 -1 -7 0 -15 3 -10 4 -15 19 -15 43 l1 36
14 -40 c8 -22 15 -41 15 -42z m1820 67 c0 -5 -4 -10 -10 -10 -5 0 -10 5 -10
10 0 6 5 10 10 10 6 0 10 -4 10 -10z m-290 -27 c-1 -24 -2 -26 -11 -10 -5 9
-7 22 -4 27 10 17 15 11 15 -17z m-1808 -18 c-2 -19 -8 -38 -13 -41 -10 -6
-12 59 -2 69 14 15 19 6 15 -28z m101 6 c2 -10 1 -25 -4 -32 -6 -10 -9 -8 -9
8 0 12 -3 29 -7 39 -4 11 -3 15 4 11 6 -4 13 -15 16 -26z m-592 -34 c-18 -18
-25 2 -10 30 14 26 14 26 17 4 2 -13 -1 -28 -7 -34z m2546 21 c-3 -7 -5 -2 -5
12 0 14 2 19 5 13 2 -7 2 -19 0 -25z m-2120 -18 c-6 -17 -15 -30 -19 -30 -11
0 -10 15 3 44 16 35 30 23 16 -14z m2153 -17 c0 -20 -3 -24 -11 -16 -7 7 -9
19 -6 27 10 24 17 19 17 -11z m85 17 c-3 -5 -11 -10 -16 -10 -6 0 -7 5 -4 10
3 6 11 10 16 10 6 0 7 -4 4 -10z m-2445 -47 c-11 -17 -11 -17 -6 0 3 10 6 24
7 30 0 9 2 9 5 0 3 -7 0 -20 -6 -30z m1793 20 c-7 -2 -19 -2 -25 0 -7 3 -2 5
12 5 14 0 19 -2 13 -5z m-1843 -23 c0 -5 -5 -10 -11 -10 -5 0 -7 5 -4 10 3 6
8 10 11 10 2 0 4 -4 4 -10z m-140 -4 c0 -3 -4 -8 -10 -11 -5 -3 -10 -1 -10 4
0 6 5 11 10 11 6 0 10 -2 10 -4z m1725 -281 c4 -149 10 -286 15 -305 4 -19 8
-60 8 -90 l0 -55 -13 65 c-11 57 -12 25 -8 -250 2 -173 8 -369 15 -435 6 -66
14 -162 17 -214 4 -66 10 -96 19 -99 11 -3 12 14 7 89 -4 52 -11 113 -15 137
-11 62 6 51 21 -13 7 -30 16 -55 21 -55 10 0 10 0 -6 95 -8 44 -17 133 -21
198 -5 79 -12 120 -20 125 -14 7 -19 116 -15 267 l2 70 13 -105 c7 -58 20
-139 29 -180 19 -89 19 -83 4 -74 -8 5 -9 -2 -4 -27 4 -19 12 -61 17 -94 24
-152 71 -268 131 -328 32 -32 21 -80 -24 -103 -33 -17 -48 -12 -48 19 0 34
-11 67 -22 67 -6 0 -7 -28 -3 -74 l7 -73 -34 -27 c-19 -14 -48 -29 -65 -32
-28 -6 -32 -3 -42 28 -18 56 -14 1764 5 1746 1 -2 6 -125 9 -273z m935 242 c0
-5 -4 -5 -10 -2 -5 3 -10 14 -10 23 0 15 2 15 10 2 5 -8 10 -19 10 -23z m175
-23 c20 -49 24 -75 14 -99 l-9 -20 3 20 c2 11 -5 42 -15 68 -10 26 -18 52 -18
57 0 20 10 9 25 -26z m-56 -98 c-1 -17 -2 -17 -6 -3 -2 9 -9 17 -14 17 -5 0
-9 7 -9 16 0 14 3 14 15 4 8 -7 14 -22 14 -34z m-2735 -41 c-6 -16 -24 -21
-24 -7 0 11 11 22 21 22 5 0 6 -7 3 -15z m-44 -10 c0 -8 -4 -15 -10 -15 -5 0
-10 7 -10 15 0 8 5 15 10 15 6 0 10 -7 10 -15z m719 -43 c13 -9 22 -21 20 -27
-4 -10 -13 -11 -58 -4 -26 4 -54 -26 -35 -39 6 -4 13 -15 17 -24 7 -20 47 -44
47 -28 0 5 7 10 16 10 14 0 14 3 4 15 -16 19 -5 34 12 17 14 -14 32 -16 23 -2
-4 6 1 7 11 3 13 -5 15 -2 10 15 -9 28 12 39 32 17 12 -12 13 -19 6 -22 -7 -2
-9 -14 -6 -25 4 -17 2 -20 -11 -15 -18 7 -24 -8 -7 -18 16 -10 1 -25 -18 -19
-11 4 -8 -2 8 -16 l25 -22 -30 6 -30 5 28 -12 c15 -6 27 -14 27 -19 0 -12 -38
-10 -45 2 -8 12 -25 13 -25 2 0 -15 47 -31 70 -25 18 5 21 2 18 -13 -9 -51
-95 -4 -157 87 -60 87 -62 159 -3 144 15 -4 21 -2 17 5 -9 14 -58 13 -73 -2
-51 -51 101 -268 188 -268 53 0 66 29 38 86 -5 12 -8 30 -5 40 3 15 8 11 20
-18 40 -88 13 -125 -85 -120 -76 5 -204 188 -185 264 12 48 84 58 136 20z
m-733 -29 c-4 -16 -9 -47 -13 -70 -3 -24 -9 -40 -14 -37 -12 7 -11 61 1 69 6
3 10 19 10 36 0 16 5 29 11 29 7 0 9 -10 5 -27z m718 -59 c9 -24 7 -28 -9 -14
-17 14 -20 30 -6 30 5 0 12 -7 15 -16z m267 -356 c-2 -296 -8 -421 -39 -738
l-18 -175 -28 2 c-16 1 -34 7 -40 13 -21 21 -9 104 28 193 27 64 41 119 52
200 19 145 33 416 34 636 0 96 3 172 6 168 3 -3 5 -138 5 -299z m1693 211
c-25 -27 -28 -17 -8 23 14 26 19 29 22 15 2 -10 -4 -27 -14 -38z m162 -149
c-2 -47 -7 -166 -9 -265 -3 -125 -9 -191 -19 -215 -13 -32 -14 -19 -12 155 1
105 7 226 13 271 6 45 11 94 11 110 0 16 4 52 8 79 l7 50 3 -50 c2 -27 1 -88
-2 -135z m31 58 c-2 -18 -4 -4 -4 32 0 36 2 50 4 33 2 -18 2 -48 0 -65z m-173
57 c-4 -8 -8 -15 -10 -15 -2 0 -4 7 -4 15 0 8 4 15 10 15 5 0 7 -7 4 -15z
m-564 -37 c0 -6 16 -28 35 -49 19 -22 35 -43 35 -48 0 -9 -61 -75 -64 -69 -25
42 -39 197 -16 183 6 -3 10 -11 10 -17z m347 -30 c-3 -8 -6 -5 -6 6 -1 11 2
17 5 13 3 -3 4 -12 1 -19z m78 -65 c-5 -36 -9 -42 -20 -33 -15 13 -12 58 8 99
l12 24 3 -23 c2 -13 1 -43 -3 -67z m209 -140 c-2 -246 -13 -465 -24 -458 -10
6 -31 113 -32 165 -2 158 12 342 32 423 12 48 23 87 24 87 0 0 0 -98 0 -217z
m-116 168 c9 -25 8 -29 -4 -24 -8 3 -14 16 -14 29 0 32 6 30 18 -5z m15 -222
c30 -56 35 -122 13 -145 -8 -8 -17 -14 -19 -14 -2 0 -7 28 -11 63 -3 34 -18
105 -31 156 -14 52 -25 115 -24 140 1 41 3 35 23 -51 13 -53 35 -120 49 -149z
m28 168 c-8 -8 -11 -7 -11 4 0 20 13 34 18 19 3 -7 -1 -17 -7 -23z m96 1 c-3
-7 -5 -2 -5 12 0 14 2 19 5 13 2 -7 2 -19 0 -25z m-850 -55 c-24 -99 -38 -349
-27 -463 12 -119 12 -126 2 -114 -20 23 -54 145 -47 171 3 15 8 92 10 171 4
125 8 154 30 216 15 39 29 77 31 85 3 8 7 11 11 8 3 -4 -1 -37 -10 -74z m134
-149 c4 -167 2 -194 -12 -210 -10 -11 -19 -28 -21 -39 -3 -11 -5 16 -5 60 0
44 -4 108 -8 142 -8 66 22 276 36 251 4 -7 9 -99 10 -204z m-218 -32 c-8 -242
-22 -215 -26 53 0 17 3 66 8 110 14 140 25 42 18 -163z m385 196 c-13 -18 -27
-36 -31 -39 -4 -3 -5 -13 -1 -22 10 -26 -13 -20 -31 7 -26 39 8 85 63 86 l23
0 -23 -32z m96 1 c17 0 17 -1 1 -19 -30 -34 -18 -54 53 -82 17 -7 32 -16 32
-20 0 -10 0 -10 -84 2 -102 15 -129 48 -85 104 16 21 27 26 43 21 11 -4 29 -7
40 -6z m-327 -46 c-3 -10 -5 -4 -5 12 0 17 2 24 5 18 2 -7 2 -21 0 -30z m353
-9 c0 -8 -4 -12 -10 -9 -5 3 -10 10 -10 16 0 5 5 9 10 9 6 0 10 -7 10 -16z
m62 1 c0 -5 -5 -11 -11 -13 -6 -2 -11 4 -11 13 0 9 5 15 11 13 6 -2 11 -8 11
-13z m-459 -50 c-7 -21 -13 -19 -13 6 0 11 4 18 10 14 5 -3 7 -12 3 -20z m181
-47 c15 -113 18 -191 9 -185 -6 4 -13 39 -16 79 -4 40 -10 92 -13 116 -4 25
-3 42 3 42 6 0 13 -24 17 -52z m366 -23 c-14 -27 -30 -24 -30 5 0 10 8 20 18
22 25 6 27 1 12 -27z m97 19 c3 -8 1 -29 -5 -47 -6 -18 -10 -23 -9 -12 2 23
-15 33 -24 13 -4 -7 -18 -35 -31 -63 -14 -27 -33 -89 -44 -136 -12 -58 -24
-90 -36 -98 -15 -9 -18 -8 -18 6 0 10 6 30 14 45 8 14 17 50 21 80 4 29 11 58
15 63 4 6 13 28 20 50 13 42 65 115 81 115 5 0 12 -7 16 -16z m-620 -87 c-9
-34 -19 -92 -23 -129 -7 -72 -33 -115 -36 -62 -3 51 3 118 11 139 5 11 14 45
21 75 16 69 20 77 32 55 7 -11 5 -37 -5 -78z m286 50 c42 -39 57 -88 56 -182
-1 -85 -17 -61 -18 27 -1 63 -14 108 -32 108 -7 0 -9 -9 -4 -27 4 -16 9 -75
10 -133 1 -60 -1 -92 -5 -75 -4 17 -8 68 -9 113 -1 73 -5 91 -31 139 -16 30
-30 56 -30 59 0 14 34 -1 63 -29z m95 -121 c2 -101 -1 -145 -8 -141 -6 4 -10
34 -9 68 1 34 -1 99 -3 145 -4 58 -2 82 6 79 7 -2 12 -55 14 -151z m79 132
c-3 -8 -6 -5 -6 6 -1 11 2 17 5 13 3 -3 4 -12 1 -19z m-1967 -43 c25 -44 35
-53 45 -45 10 8 19 8 34 -2 25 -16 26 -17 1 -48 l-20 -25 -20 25 c-11 14 -20
31 -20 38 0 6 -7 12 -15 12 -15 0 -28 24 -41 75 -10 39 2 29 36 -30z m1957
-17 c-3 -7 -5 -2 -5 12 0 14 2 19 5 13 2 -7 2 -19 0 -25z m-327 1 c0 -11 -4
-17 -10 -14 -5 3 -10 13 -10 21 0 8 5 14 10 14 6 0 10 -9 10 -21z m-1906 -49
c23 -41 26 -52 13 -47 -11 4 -29 -6 -54 -29 -57 -54 -89 -66 -180 -71 -46 -2
-83 -1 -83 2 0 3 12 16 27 29 22 19 31 21 45 13 15 -10 27 -1 83 58 36 39 72
78 81 88 22 26 33 18 68 -43z m2406 0 c-16 -31 -23 -19 -9 16 6 16 13 24 16
17 2 -7 -1 -22 -7 -33z m-373 -27 c-3 -10 -5 -4 -5 12 0 17 2 24 5 18 2 -7 2
-21 0 -30z m218 -15 c-4 -29 -13 -68 -21 -87 -8 -18 -14 -46 -14 -62 0 -15 -4
-30 -9 -33 -7 -4 -21 -146 -25 -248 -1 -37 -16 -48 -17 -12 0 16 -2 42 -4 57
-7 51 13 210 35 282 12 39 26 89 32 113 16 60 31 53 23 -10z m90 -54 c-3 -19
-11 -34 -17 -34 -6 0 -8 9 -4 23 4 12 10 38 14 57 5 29 7 31 10 11 2 -13 1
-39 -3 -57z m-1918 36 c12 -21 22 -28 33 -24 24 10 83 4 100 -10 25 -23 98
-56 121 -56 19 0 21 -4 15 -37 -3 -21 -6 -44 -6 -52 0 -21 -129 -6 -200 24
-33 14 -66 25 -74 25 -8 0 -27 11 -43 24 -16 13 -40 26 -53 28 -24 3 -24 5 24
56 27 28 52 52 57 52 4 0 16 -14 26 -30z m1373 -20 c0 -27 -4 -50 -10 -50 -11
0 -13 42 -4 78 10 35 14 26 14 -28z m-1685 4 c9 -14 15 -27 13 -30 -7 -6 -88
37 -88 47 0 5 13 9 29 9 20 0 34 -8 46 -26z m1836 -4 c10 0 21 -25 33 -72 5
-20 1 -32 -16 -47 -21 -20 -21 -21 -4 -78 21 -72 12 -114 -27 -127 -22 -8 -31
-6 -52 14 -35 33 -32 70 10 129 19 26 35 51 35 54 0 2 -10 7 -21 10 -17 5 -20
11 -17 31 6 28 -1 33 -20 14 -9 -9 -12 -7 -12 10 0 15 9 26 25 32 14 5 25 17
25 26 0 11 5 14 16 10 9 -3 20 -6 25 -6z m531 -17 c2 -38 1 -47 -12 -128 -17
-108 -33 -283 -32 -358 0 -59 -2 -68 -16 -65 -14 3 -18 23 -26 125 -7 101 -6
136 9 209 10 49 21 114 24 144 10 84 49 137 53 73z m169 -150 c-17 -185 -28
-276 -40 -306 -6 -16 -11 -77 -11 -137 0 -90 -2 -108 -14 -104 -24 9 -31 177
-13 328 16 136 60 367 74 389 13 20 15 -43 4 -170z m-2613 149 c2 -7 -2 -10
-12 -6 -9 3 -16 11 -16 16 0 13 23 5 28 -10z m-88 -27 c-33 -19 -50 -18 -26 0
11 8 27 15 35 15 10 -1 7 -6 -9 -15z m274 9 c25 -9 19 -24 -9 -24 -24 0 -32
10 -18 23 8 8 8 8 27 1z m2141 -101 c-10 -32 -21 -83 -25 -113 -11 -73 -11
-275 0 -375 4 -45 4 -87 -1 -95 -6 -11 -8 -5 -9 20 0 19 -7 86 -16 147 -21
146 -11 241 53 493 6 24 7 24 10 3 2 -11 -3 -47 -12 -80z m-2288 12 c39 -36
20 -43 -27 -10 l-41 28 -27 -20 c-52 -37 -67 -33 -24 7 49 44 68 43 119 -5z
m173 -22 c0 -35 -27 -28 -34 8 -3 17 -6 39 -6 48 1 26 40 -30 40 -56z m1585
48 c3 -11 1 -28 -6 -39 -16 -26 -5 -52 22 -52 21 0 21 -1 -4 -20 -48 -38 -97
-14 -97 47 0 64 69 115 85 64z m210 10 c3 -5 1 -12 -5 -16 -5 -3 -10 1 -10 9
0 18 6 21 15 7z m-2275 -11 c-20 -13 -70 -13 -70 0 0 6 19 10 43 10 31 0 38
-3 27 -10z m2356 -57 c-11 -29 -17 -6 -9 33 7 36 8 37 11 11 2 -16 1 -36 -2
-44z m-1771 47 c3 -5 1 -10 -4 -10 -6 0 -11 5 -11 10 0 6 2 10 4 10 3 0 8 -4
11 -10z m1956 -33 c-52 -84 -65 -143 -66 -302 -3 -261 -1 -245 -33 -245 -32 0
-75 27 -66 41 3 6 11 3 18 -6 7 -10 21 -16 32 -13 16 3 20 15 25 78 3 41 2 89
-3 105 -10 34 -2 156 14 230 7 30 28 71 51 103 44 58 62 63 28 9z m-1987 24
c4 -5 -3 -7 -14 -4 -23 6 -26 13 -6 13 8 0 17 -4 20 -9z m132 -27 c13 -3 24
-10 24 -15 0 -13 -11 -11 -50 12 -19 11 -27 18 -17 15 11 -4 30 -9 43 -12z
m1208 -49 c4 -20 3 -25 -3 -15 -5 8 -11 31 -15 50 -7 41 7 13 18 -35z m-1612
25 c22 -16 34 -30 26 -30 -9 0 -21 7 -29 16 -10 12 -23 14 -58 9 l-46 -7 25
21 c32 26 33 26 82 -9z m2023 4 c14 -15 25 -32 25 -37 0 -17 -62 -77 -79 -77
-10 0 -8 7 9 25 20 21 22 28 12 50 -6 14 -18 25 -26 25 -18 0 -29 16 -21 30
12 19 56 10 80 -16z m452 -43 c3 -14 0 -84 -7 -155 -21 -211 -23 -287 -11
-299 8 -8 11 -5 11 11 0 12 5 22 10 22 6 0 9 -21 9 -47 -1 -27 -4 -38 -6 -25
-8 39 -23 24 -23 -23 0 -35 4 -45 16 -45 9 0 31 -9 50 -20 40 -26 44 -20 53
73 l7 72 7 -89 c5 -64 4 -93 -5 -103 -9 -11 -9 -16 2 -23 11 -7 11 -11 1 -23
-10 -12 -10 -20 0 -35 21 -34 6 -51 -40 -45 -34 5 -41 3 -41 -11 0 -11 9 -16
27 -16 31 0 63 -26 63 -52 0 -10 -2 -18 -4 -18 -2 0 -12 -3 -22 -7 -14 -5 -16
-2 -11 18 6 22 3 25 -21 23 -15 -1 -29 -3 -32 -4 -3 -1 -9 -2 -13 -1 -14 2
-19 -29 -7 -44 7 -8 24 -21 39 -28 23 -12 31 -11 49 1 21 14 22 13 22 -27 0
-23 -3 -40 -7 -38 -32 16 -83 37 -105 42 -24 6 -28 4 -28 -14 0 -12 6 -22 13
-22 6 -1 -13 -5 -43 -10 -64 -10 -110 -3 -110 16 0 7 18 32 40 55 36 37 56 81
30 65 -5 -3 -10 -2 -10 4 0 5 5 13 10 16 15 9 2 25 -21 25 -16 0 -19 -5 -14
-20 4 -11 2 -20 -4 -20 -6 0 -11 5 -11 10 0 6 -5 10 -11 10 -7 0 -8 -11 -4
-30 8 -36 5 -37 -92 -43 -57 -4 -71 -3 -67 8 3 7 1 16 -5 20 -6 3 -14 -1 -17
-9 -9 -23 -23 -20 -17 4 3 11 0 20 -6 20 -6 0 -11 -6 -11 -14 0 -15 -28 -42
-36 -34 -2 3 0 17 7 31 11 24 34 37 69 41 16 1 15 29 -1 34 -5 2 -9 12 -9 23
0 12 5 16 15 13 8 -4 15 -12 15 -20 0 -21 20 -17 21 4 0 15 1 14 8 -2 7 -19 8
-19 13 2 9 33 30 28 22 -5 -9 -37 -14 -44 -25 -38 -5 4 -9 -4 -9 -17 0 -31 39
-33 76 -3 31 25 29 35 -5 38 -14 1 -20 6 -16 15 3 8 2 19 -2 25 -16 25 -14 98
3 114 13 14 17 14 25 2 5 -8 8 -18 8 -24 0 -5 -3 -4 -6 3 -9 24 -25 12 -19
-14 8 -31 34 -60 44 -49 4 4 1 10 -5 12 -13 5 -19 33 -7 33 3 0 15 -5 26 -11
22 -12 38 1 38 30 0 11 -4 9 -15 -5 -13 -18 -14 -17 -15 19 0 35 14 51 22 25
3 -8 11 -7 27 4 13 9 29 14 37 11 18 -7 30 62 16 101 -26 72 -23 341 5 510 6
36 7 38 20 20 8 -10 17 -30 20 -43z m-2807 39 c0 -5 -4 -10 -10 -10 -5 0 -10
5 -10 10 0 6 5 10 10 10 6 0 10 -4 10 -10z m170 -2 c0 -5 -2 -8 -5 -8 -68 0
-79 2 -60 10 23 10 66 9 65 -2z m1690 -8 c0 -11 -4 -20 -10 -20 -5 0 -10 9
-10 20 0 11 5 20 10 20 6 0 10 -9 10 -20z m-1418 -3 c53 -19 56 -26 8 -17 -23
4 -47 13 -53 19 -14 14 -1 14 45 -2z m493 -18 c12 -5 -7 -6 -45 -3 -36 4 -69
10 -73 14 -11 9 92 0 118 -11z m-720 -9 c-3 -5 -10 -10 -16 -10 -5 0 -9 5 -9
10 0 6 7 10 16 10 8 0 12 -4 9 -10z m342 -30 c-6 -50 -47 -106 -90 -124 -18
-7 -50 -25 -71 -40 -39 -26 -76 -34 -76 -16 0 6 5 10 11 10 6 0 24 11 41 25
16 14 37 25 47 25 10 0 36 17 59 38 31 29 43 48 48 80 4 28 12 42 22 42 11 0
13 -9 9 -40z m1741 22 c6 -18 -15 -14 -22 4 -4 10 -1 14 6 12 6 -2 14 -10 16
-16z m-2205 -6 c40 -8 86 -17 102 -19 l30 -3 -29 -12 c-17 -8 -33 -9 -40 -4
-6 5 -18 9 -26 9 -19 0 -130 33 -130 39 0 7 17 5 93 -10z m164 -3 c-9 -9 -20
-13 -24 -9 -4 4 -1 11 7 16 25 16 35 11 17 -7z m403 -8 c0 -8 12 -17 28 -21
15 -3 50 -14 77 -25 28 -11 39 -17 25 -13 -14 4 -45 9 -69 11 -29 4 -51 13
-62 27 -21 24 -24 36 -9 36 6 0 10 -7 10 -15z m1197 -32 c-3 -10 -5 -2 -5 17
0 19 2 27 5 18 2 -10 2 -26 0 -35z m-970 31 c-3 -3 -12 -4 -19 -1 -8 3 -5 6 6
6 11 1 17 -2 13 -5z m1120 -107 c40 -83 41 -92 7 -46 -35 46 -64 109 -63 139
l0 25 11 -25 c6 -14 26 -56 45 -93z m-1954 81 c16 -8 24 -28 12 -28 -10 0 -85
40 -85 45 0 7 49 -5 73 -17z m257 6 l25 -15 -32 6 c-18 4 -33 3 -33 -2 0 -15
-68 -43 -103 -43 -31 1 -31 1 14 19 26 10 57 26 70 35 28 19 27 19 59 0z m650
6 c0 -5 -7 -10 -16 -10 -8 0 -12 5 -9 10 3 6 10 10 16 10 5 0 9 -4 9 -10z
m1090 -57 c-1 -55 -1 -57 -15 -33 -17 30 -19 44 -4 34 8 -4 9 3 4 25 -4 20 -3
31 4 31 7 0 11 -23 11 -57z m336 31 c-3 -9 -6 -31 -6 -50 0 -21 -4 -33 -10
-29 -20 12 -9 95 12 95 6 0 7 -7 4 -16z m-1953 -1 c-7 -2 -19 -2 -25 0 -7 3
-2 5 12 5 14 0 19 -2 13 -5z m198 -2 c-23 -15 -2 -31 39 -31 25 0 52 -9 75
-25 24 -15 58 -27 96 -31 54 -6 60 -9 57 -28 -2 -13 -12 -22 -26 -24 -27 -4
-125 40 -160 72 -16 14 -37 21 -69 21 -26 1 -48 6 -50 12 -5 13 24 43 40 43 8
0 7 -3 -2 -9z m-534 -49 c29 -2 53 -9 53 -15 0 -7 -91 -6 -158 3 -6 0 -19 46
-15 53 2 4 18 -3 35 -15 19 -13 51 -23 85 -26z m377 33 c-4 -8 -10 -12 -15 -9
-14 8 -10 24 6 24 9 0 12 -6 9 -15z m-145 -21 c17 -14 31 -31 31 -37 0 -9 -2
-9 -8 -1 -15 23 -55 36 -91 29 l-36 -6 30 20 c38 26 37 26 74 -5z m1795 -46
c-1 -35 -3 -85 -4 -113 l-3 -50 -6 45 c-8 56 -2 192 8 186 4 -3 6 -33 5 -68z
m446 49 c0 -13 -6 -32 -14 -42 -13 -18 -14 -17 -9 10 9 58 23 77 23 32z
m-1670 3 c21 -7 19 -8 -17 -9 -23 -1 -45 4 -48 9 -7 12 29 12 65 0z m-703 -26
c-3 -3 -12 -4 -19 -1 -8 3 -5 6 6 6 11 1 17 -2 13 -5z m716 -11 c-7 -2 -19 -2
-25 0 -7 3 -2 5 12 5 14 0 19 -2 13 -5z m-221 -20 c19 -17 24 -43 8 -43 -5 0
-10 4 -10 8 0 5 -11 14 -25 20 -21 10 -33 6 -86 -24 -69 -38 -86 -40 -37 -3
17 13 41 32 52 41 27 22 74 23 98 1z m1479 -45 c1 -30 -3 -64 -9 -74 -9 -15
-11 -5 -12 52 0 62 6 91 17 81 2 -2 4 -29 4 -59z m-2131 42 c9 0 16 -9 17 -19
1 -17 -4 -18 -40 -14 -50 7 -51 8 -43 29 4 11 13 14 29 10 12 -3 29 -6 37 -6z
m83 -7 c-7 -2 -19 -2 -25 0 -7 3 -2 5 12 5 14 0 19 -2 13 -5z m2117 -36 c0
-12 -7 -54 -15 -92 -8 -39 -15 -96 -15 -128 0 -71 -20 -74 -33 -6 -9 53 -3 99
25 184 21 65 38 84 38 42z m77 -14 c-3 -10 -5 -4 -5 12 0 17 2 24 5 18 2 -7 2
-21 0 -30z m-2185 15 c-17 -8 -26 -8 -34 0 -9 9 -4 12 23 11 32 0 33 -1 11
-11z m542 -9 c14 -11 31 -17 36 -14 6 4 30 -6 53 -21 23 -16 56 -35 72 -43 17
-7 25 -15 18 -18 -7 -2 -39 11 -70 30 -62 37 -139 55 -169 39 -11 -5 -37 -13
-59 -17 l-40 -7 23 20 c13 12 37 24 53 27 16 4 31 11 34 16 9 14 20 11 49 -12z
m111 1 c17 -11 42 -20 57 -20 15 0 30 -4 33 -10 3 -6 -4 -10 -17 -10 -31 0
-121 35 -126 49 -6 17 20 13 53 -9z m-594 -10 c-26 -22 -86 -25 -176 -10 -41
7 -34 8 36 5 62 -4 96 -1 120 10 45 19 49 18 20 -5z m77 4 c15 -15 14 -16 -8
-9 -33 10 -49 25 -26 25 9 0 25 -7 34 -16z m154 -29 c-64 -30 -75 -31 -70 -7
3 16 39 28 98 31 18 0 9 -6 -28 -24z m-186 -6 c3 -6 -1 -18 -11 -27 -13 -13
-19 -14 -22 -4 -3 6 -14 12 -26 12 -21 1 -21 1 3 15 30 17 47 19 56 4z m94
-10 c0 -20 -21 -57 -52 -90 -61 -67 -73 -84 -73 -104 0 -15 -8 -21 -31 -23
-29 -3 -32 -6 -32 -37 0 -29 4 -34 32 -39 33 -6 68 -38 100 -90 15 -24 16 -30
4 -42 -12 -12 -20 -5 -57 46 -32 44 -47 57 -56 50 -9 -7 -16 -6 -25 5 -7 8
-16 15 -21 15 -18 0 -8 -27 21 -55 17 -16 30 -37 30 -47 0 -10 7 -18 15 -18
13 0 14 4 5 21 -15 28 -2 39 16 14 26 -35 14 -50 -46 -56 -57 -6 -56 -6 -92
45 -5 7 -11 6 -18 -4 -8 -13 -10 -12 -10 3 0 21 -9 22 -25 1 -10 -14 -14 -10
-29 30 -15 38 -16 50 -5 62 9 11 9 18 1 26 -17 17 -15 48 2 48 8 0 17 -4 21
-9 9 -16 94 -60 99 -52 8 12 -23 51 -40 51 -8 0 -28 10 -44 22 l-30 22 42 26
c24 15 60 33 81 41 22 8 67 43 109 85 50 51 76 70 89 67 11 -3 19 -9 19 -14z
m1760 -4 c0 -8 -4 -17 -10 -20 -6 -4 -10 5 -10 20 0 15 4 24 10 20 6 -3 10
-12 10 -20z m-1638 -7 c-17 -17 -15 -31 3 -24 12 4 13 2 2 -14 -6 -11 -20 -20
-29 -20 -10 0 -18 -4 -18 -10 0 -5 -12 -10 -27 -10 -27 1 -27 1 -8 16 11 8 27
19 35 24 24 14 5 21 -26 10 -39 -15 -23 -1 24 21 44 21 60 23 44 7z m303 -19
c28 -16 65 -37 84 -45 42 -19 36 -28 -10 -13 -36 11 -48 15 -64 19 -5 1 -30 9
-55 16 -67 20 -115 17 -176 -12 -67 -32 -86 -27 -48 11 33 32 95 52 169 53 39
1 61 -6 100 -29z m1562 -61 c-2 -18 -4 -6 -4 27 0 33 2 48 4 33 2 -15 2 -42 0
-60z m-2320 66 c-3 -3 -12 -4 -19 -1 -8 3 -5 6 6 6 11 1 17 -2 13 -5z m2473
-56 c-7 -19 -9 -15 -9 22 0 37 2 41 9 23 6 -14 6 -32 0 -45z m-2350 42 c0 -12
-24 -12 -60 0 -21 7 -19 8 18 9 23 1 42 -3 42 -9z m598 -42 c23 -6 45 -15 48
-20 3 -5 -6 -5 -23 -1 -47 13 -136 8 -163 -9 -31 -20 -170 -35 -170 -19 0 6
13 11 29 11 16 0 51 10 78 22 87 40 102 41 201 16z m233 -5 c71 -26 61 -43
-28 -49 -39 -2 -74 0 -77 5 -4 6 7 8 26 5 65 -8 95 25 41 44 -16 6 -24 11 -19
11 4 1 30 -7 57 -16z m1331 -19 c2 -19 0 -37 -4 -40 -4 -3 -8 13 -8 35 0 51 6
53 12 5z m-202 0 c0 -8 -5 -12 -10 -9 -6 4 -8 11 -5 16 9 14 15 11 15 -7z
m-1985 -4 c3 -5 -3 -10 -14 -10 -12 0 -21 5 -21 10 0 6 6 10 14 10 8 0 18 -4
21 -10z m690 -31 c42 -11 95 -19 118 -18 76 4 85 1 89 -28 3 -25 8 -29 48 -33
49 -5 53 -25 5 -25 -17 -1 -36 -4 -43 -8 -7 -5 -12 -3 -12 3 0 30 -30 41 -102
40 -40 -1 -104 3 -141 9 -38 6 -80 9 -95 5 -24 -5 -25 -4 -8 6 23 15 71 19
115 9 55 -12 174 -14 178 -2 2 6 -29 12 -82 15 -48 2 -90 9 -93 14 -4 5 -34
11 -68 13 -47 2 -69 -2 -97 -18 -27 -15 -53 -20 -97 -19 -34 1 -57 6 -53 11 3
5 24 7 46 4 36 -5 73 6 88 26 10 13 62 25 96 21 17 -2 66 -13 108 -25z m40 21
c8 -13 -5 -13 -25 0 -13 8 -13 10 2 10 9 0 20 -4 23 -10z m-505 -14 c0 -3 -4
-8 -10 -11 -5 -3 -10 -1 -10 4 0 6 5 11 10 11 6 0 10 -2 10 -4z m2500 0 c0 -3
-4 -8 -10 -11 -5 -3 -10 -1 -10 4 0 6 5 11 10 11 6 0 10 -2 10 -4z m-713 -53
c-3 -10 -5 -2 -5 17 0 19 2 27 5 18 2 -10 2 -26 0 -35z m-1747 17 c0 -5 -2
-10 -4 -10 -3 0 -8 5 -11 10 -3 6 -1 10 4 10 6 0 11 -4 11 -10z m1653 -36 c4
-29 16 -44 35 -44 21 -1 56 -46 42 -55 -6 -4 -8 -11 -5 -16 8 -12 42 6 82 44
18 17 36 27 40 23 4 -4 1 -11 -7 -16 -8 -5 -11 -12 -7 -16 9 -9 37 15 37 31 0
19 61 25 67 7 5 -10 16 -12 46 -8 36 6 39 5 27 -9 -19 -22 -8 -27 39 -16 24 5
43 5 47 0 3 -5 -6 -9 -19 -9 -26 0 -47 -20 -65 -63 -14 -32 -35 -31 -40 1 -5
30 -28 28 -36 -3 -11 -43 -105 -76 -107 -37 -1 16 -2 16 -6 0 -2 -10 -11 -18
-19 -18 -23 0 -16 -15 21 -46 19 -16 35 -35 35 -41 0 -7 5 -13 11 -13 6 0 9 7
5 15 -4 11 2 15 21 15 21 0 24 -3 15 -12 -16 -16 -15 -28 2 -28 17 0 28 -27
21 -51 -8 -25 -25 -24 -25 1 0 11 -4 20 -10 20 -5 0 -10 -9 -10 -19 0 -23 -15
-35 -31 -25 -8 4 -8 9 0 17 6 6 11 16 11 23 0 15 -50 68 -72 77 -10 3 -31 34
-47 69 -36 75 -49 95 -78 122 -14 13 -25 39 -29 66 -4 25 -4 42 -1 39 4 -3 8
-14 10 -25z m34 -6 c-3 -7 -5 -2 -5 12 0 14 2 19 5 13 2 -7 2 -19 0 -25z m533
8 c0 -26 -15 -43 -24 -28 -7 12 4 52 15 52 5 0 9 -11 9 -24z m-598 -30 c5 -21
22 -55 38 -76 17 -21 30 -41 30 -45 0 -4 9 -19 20 -35 11 -15 17 -29 15 -32
-3 -2 11 -24 31 -47 20 -23 34 -44 32 -46 -2 -3 -20 7 -40 21 -48 34 -70 22
-32 -17 l28 -29 -30 0 c-38 0 -51 9 -60 44 -10 39 -74 100 -122 114 -47 14
-61 30 -41 46 9 7 13 25 11 49 -2 28 0 37 12 37 9 0 30 14 48 30 17 17 36 29
42 27 6 -2 14 -21 18 -41z m-1737 24 c3 -5 -1 -10 -10 -10 -9 0 -13 5 -10 10
3 6 8 10 10 10 2 0 7 -4 10 -10z m305 0 c0 -5 -6 -10 -14 -10 -8 0 -18 5 -21
10 -3 6 3 10 14 10 12 0 21 -4 21 -10z m47 4 c-3 -3 -12 -4 -19 -1 -8 3 -5 6
6 6 11 1 17 -2 13 -5z m-139 -15 c18 -6 29 -15 26 -20 -8 -13 -48 -11 -62 3
-9 9 -18 9 -37 0 -34 -16 -32 -6 3 12 33 19 32 18 70 5z m240 -11 c-4 -12 -98
-19 -98 -7 0 14 16 19 58 19 30 0 42 -4 40 -12z m432 2 c0 -5 -4 -10 -10 -10
-5 0 -10 5 -10 10 0 6 5 10 10 10 6 0 10 -4 10 -10z m-580 -26 c0 -8 -9 -14
-20 -14 -13 0 -20 7 -20 19 0 14 5 18 20 14 11 -3 20 -12 20 -19z m303 16 c23
0 28 -3 20 -11 -9 -9 -23 -9 -52 -1 -59 15 -60 -4 -1 -29 49 -21 65 -39 35
-39 -9 0 -18 7 -21 15 -4 8 -16 15 -28 15 -12 0 -31 7 -42 15 -10 8 -27 15
-37 15 -10 0 -16 4 -12 10 3 5 12 7 19 4 8 -3 17 0 21 6 5 7 19 10 37 6 17 -3
44 -6 61 -6z m77 0 c0 -5 -4 -10 -10 -10 -5 0 -10 5 -10 10 0 6 5 10 10 10 6
0 10 -4 10 -10z m495 -25 c14 -13 25 -30 25 -38 0 -8 9 -43 20 -77 24 -75 24
-81 6 -74 -10 4 -16 -2 -18 -18 -2 -13 -10 -23 -18 -23 -8 0 -16 -10 -18 -22
-3 -18 -10 -23 -33 -23 -29 0 -29 1 -23 40 6 35 4 40 -10 34 -14 -6 -16 -1
-10 35 4 27 2 46 -6 56 -7 8 -10 15 -7 15 3 0 0 15 -8 33 -14 31 -13 33 18 59
40 34 51 34 82 3z m689 4 c-3 -5 -10 -7 -15 -3 -5 3 -7 10 -3 15 3 5 10 7 15
3 5 -3 7 -10 3 -15z m-1789 1 c-3 -5 -10 -10 -16 -10 -5 0 -9 5 -9 10 0 6 7
10 16 10 8 0 12 -4 9 -10z m779 -16 c9 -24 8 -26 -14 -19 -11 4 -20 2 -20 -4
0 -6 -6 -11 -14 -11 -8 0 -17 -6 -19 -12 -3 -7 -6 -3 -6 10 -1 16 5 22 19 22
11 0 23 7 26 15 8 19 20 19 28 -1z m46 7 c0 -6 -4 -13 -10 -16 -5 -3 -10 1
-10 9 0 9 5 16 10 16 6 0 10 -4 10 -9z m-785 -11 c-3 -5 -12 -10 -18 -10 -7 0
-6 4 3 10 19 12 23 12 15 0z m413 -26 c17 -8 32 -21 32 -29 0 -23 -91 -20
-121 3 -13 10 -33 22 -43 26 -18 6 -18 7 -1 20 20 14 72 6 133 -20z m742 26
c0 -13 -11 -13 -30 0 -12 8 -11 10 8 10 12 0 22 -4 22 -10z m198 -2 c-2 -9 8
-12 30 -10 17 1 32 0 32 -2 0 -7 -66 -46 -77 -46 -5 0 -9 16 -10 35 -1 24 3
35 13 35 8 0 13 -6 12 -12z m87 2 c3 -5 1 -10 -4 -10 -6 0 -11 5 -11 10 0 6 2
10 4 10 3 0 8 -4 11 -10z m720 0 c3 -5 -1 -10 -9 -10 -8 0 -18 5 -21 10 -3 6
1 10 9 10 8 0 18 -4 21 -10z m-960 -10 c3 -5 1 -19 -5 -30 -8 -15 -17 -19 -32
-14 -18 5 -20 3 -14 -21 11 -42 -14 -26 -30 20 -7 22 -11 41 -9 44 3 2 5 -1 5
-7 0 -7 11 -12 25 -12 16 0 25 6 25 15 0 17 25 20 35 5z m57 -20 c7 -23 15
-29 28 -25 27 9 20 -27 -9 -42 -13 -7 -37 -13 -55 -12 l-31 1 33 10 c30 10 40
26 25 41 -3 4 -12 2 -20 -4 -8 -8 -13 -8 -13 -1 0 6 6 12 13 15 9 3 9 9 -1 26
-10 18 -10 21 3 21 9 0 21 -14 27 -30z m48 15 c0 -8 -4 -15 -9 -15 -5 0 -11 7
-15 15 -3 9 0 15 9 15 8 0 15 -7 15 -15z m165 -4 c3 -5 1 -12 -5 -16 -5 -3
-10 1 -10 9 0 18 6 21 15 7z m-1357 -26 c11 -10 8 -12 -15 -12 -15 0 -47 -3
-71 -5 -51 -6 -52 9 -2 27 38 13 67 10 88 -10z m496 4 c-3 -5 -10 -7 -15 -3
-5 3 -7 10 -3 15 3 5 10 7 15 3 5 -3 7 -10 3 -15z m1486 11 c5 0 8 -9 7 -20
-1 -11 -7 -20 -14 -20 -20 0 -15 -20 5 -21 14 0 14 -2 -3 -9 -33 -14 -35 -12
-35 36 0 38 3 45 16 40 9 -3 19 -6 24 -6z m105 0 c3 -5 1 -10 -4 -10 -6 0 -11
5 -11 10 0 6 2 10 4 10 3 0 8 -4 11 -10z m-41 -15 c4 -13 2 -14 -14 -5 -23 13
-26 20 -6 20 8 0 16 -7 20 -15z m-1434 -27 c0 -5 -4 -8 -10 -8 -5 0 -10 10
-10 23 0 18 2 19 10 7 5 -8 10 -18 10 -22z m200 22 c0 -5 -4 -10 -10 -10 -5 0
-10 5 -10 10 0 6 5 10 10 10 6 0 10 -4 10 -10z m-725 -10 c-3 -5 -10 -10 -16
-10 -5 0 -9 5 -9 10 0 6 7 10 16 10 8 0 12 -4 9 -10z m2072 -12 c-3 -8 -6 -5
-6 6 -1 11 2 17 5 13 3 -3 4 -12 1 -19z m-1729 -18 c13 0 26 -36 17 -50 -3 -5
-26 -7 -53 -3 -55 7 -48 3 -56 28 -9 30 42 60 65 39 8 -8 21 -14 27 -14z m253
-13 c-16 -16 -26 0 -10 19 9 11 15 12 17 4 2 -6 -1 -17 -7 -23z m650 -10 c-13
-13 -15 1 -4 30 7 17 8 17 11 -1 2 -10 -1 -23 -7 -29z m-1197 8 c22 -33 21
-35 -14 -35 -35 0 -62 36 -39 51 23 14 36 10 53 -16z m-142 -2 c55 -21 92 -53
78 -67 -8 -8 -13 -7 -18 2 -11 16 -50 18 -85 3 -16 -6 -49 -10 -75 -10 l-47 1
53 8 c54 8 86 25 76 41 -3 5 -12 2 -20 -6 -22 -21 -37 -19 -29 5 5 14 2 20 -9
20 -10 0 -16 -9 -17 -22 -1 -22 -1 -22 -9 2 -5 17 -8 19 -9 8 -1 -21 -31 -24
-31 -3 0 36 73 45 142 18z m838 7 c0 -5 -2 -10 -4 -10 -3 0 -8 5 -11 10 -3 6
-1 10 4 10 6 0 11 -4 11 -10z m-540 -10 c12 -8 11 -10 -7 -10 -13 0 -23 5 -23
10 0 13 11 13 30 0z m500 0 c0 -5 -2 -10 -4 -10 -3 0 -8 5 -11 10 -3 6 -1 10
4 10 6 0 11 -4 11 -10z m1130 -38 c0 -51 -11 -59 -27 -21 -10 24 -10 35 -2 45
19 24 29 16 29 -24z m-1083 -9 c-3 -10 -5 -4 -5 12 0 17 2 24 5 18 2 -7 2 -21
0 -30z m398 27 c3 -5 -1 -10 -9 -10 -9 0 -16 5 -16 10 0 6 4 10 9 10 6 0 13
-4 16 -10z m135 1 c0 -12 -39 -25 -47 -17 -4 3 1 6 10 6 10 0 17 5 17 10 0 6
5 10 10 10 6 0 10 -4 10 -9z m-313 -7 c-3 -3 -12 -4 -19 -1 -8 3 -5 6 6 6 11
1 17 -2 13 -5z m797 -10 c3 -9 6 -23 6 -32 -1 -15 -3 -14 -15 2 -17 22 -20 46
-6 46 5 0 12 -7 15 -16z m121 6 c-3 -5 -10 -10 -16 -10 -5 0 -9 5 -9 10 0 6 7
10 16 10 8 0 12 -4 9 -10z m45 0 c0 -5 -4 -10 -10 -10 -5 0 -10 5 -10 10 0 6
5 10 10 10 6 0 10 -4 10 -10z m-850 -15 c-7 -8 -20 -15 -29 -15 -13 1 -13 3 3
15 26 19 42 19 26 0z m-500 -5 c0 -5 -5 -10 -11 -10 -5 0 -7 5 -4 10 3 6 8 10
11 10 2 0 4 -4 4 -10z m-1075 -10 c3 -5 2 -10 -4 -10 -5 0 -13 5 -16 10 -3 6
-2 10 4 10 5 0 13 -4 16 -10z m700 -13 c15 -9 51 -11 135 -7 121 6 166 0 90
-12 -82 -12 -260 -9 -257 4 1 8 -14 15 -38 19 l-40 6 45 2 c25 0 54 -5 65 -12z
m791 -27 c-17 -6 -36 -5 -45 0 -11 7 -3 9 29 9 42 -1 43 -1 16 -9z m762 -13
c17 -20 26 -67 13 -67 -6 0 -11 9 -11 20 0 11 -9 25 -20 32 -11 7 -20 16 -20
20 0 13 27 9 38 -5z m112 -8 c0 -11 -24 -39 -34 -39 -11 0 -6 26 6 38 15 15
28 15 28 1z m-525 -19 c20 -11 45 -29 57 -39 l20 -19 -26 -17 c-14 -10 -26
-24 -26 -31 0 -9 -11 -14 -30 -14 -20 0 -30 5 -30 15 0 8 -3 14 -7 14 -26 -4
-42 3 -37 15 3 8 -3 19 -15 25 -26 14 -31 14 -31 -4 0 -8 7 -15 15 -15 12 0
13 -3 3 -19 -11 -18 -13 -18 -25 -3 -19 25 -15 44 15 79 32 38 65 42 117 13z
m282 -22 c-3 -8 -6 -5 -6 6 -1 11 2 17 5 13 3 -3 4 -12 1 -19z m-42 2 c8 -13
-5 -13 -25 0 -13 8 -13 10 2 10 9 0 20 -4 23 -10z m-602 -27 c-7 -2 -21 -2
-30 0 -10 3 -4 5 12 5 17 0 24 -2 18 -5z m537 -12 c0 -11 -4 -23 -10 -26 -6
-4 -10 5 -10 19 0 14 5 26 10 26 6 0 10 -9 10 -19z m107 -6 c0 -11 -12 -15
-44 -15 -50 0 -58 17 -10 23 17 2 37 5 43 5 6 1 11 -5 11 -13z m143 -25 c0 -5
-4 -10 -10 -10 -5 0 -10 5 -10 10 0 6 5 10 10 10 6 0 10 -4 10 -10z m-303 -8
c12 -8 29 -62 19 -62 -12 0 -86 42 -86 49 0 20 42 29 67 13z m196 1 c-7 -2
-19 -2 -25 0 -7 3 -2 5 12 5 14 0 19 -2 13 -5z m-879 -49 c-12 -27 -18 -34
-21 -22 -4 16 26 73 34 64 2 -2 -4 -21 -13 -42z m1211 32 c-11 -8 -25 -11 -33
-8 -11 4 -11 6 0 13 7 5 22 9 32 9 19 0 19 0 1 -14z m-818 -22 c-3 -3 -12 -4
-19 -1 -8 3 -5 6 6 6 11 1 17 -2 13 -5z m873 -3 c0 -5 -6 -14 -14 -20 -16 -13
-32 2 -21 19 8 12 35 13 35 1z m-795 -21 c-3 -5 -17 -10 -31 -10 -14 0 -22 4
-19 10 3 6 17 10 31 10 14 0 22 -4 19 -10z m1065 -16 c0 -11 6 -15 20 -11 22
6 28 -11 6 -19 -19 -7 -79 9 -83 23 -3 7 4 9 16 6 12 -3 21 -1 21 6 0 6 5 11
10 11 6 0 10 -7 10 -16z m-50 -114 c0 -5 -7 -10 -16 -10 -8 0 -12 5 -9 10 3 6
10 10 16 10 5 0 9 -4 9 -10z m88 -122 l-3 -133 -26 -3 c-20 -2 -28 2 -32 17
-4 17 0 21 18 21 27 0 41 15 24 26 -8 5 -7 9 2 15 11 6 11 12 0 31 -6 13 -13
30 -15 38 -7 35 -20 50 -41 50 -13 0 -27 5 -30 10 -3 6 3 10 14 10 11 0 28 11
37 25 9 14 25 25 35 25 18 0 19 -8 17 -132z m-138 -74 c0 -8 -5 -12 -10 -9 -6
4 -8 11 -5 16 9 14 15 11 15 -7z m83 9 c-7 -2 -19 -2 -25 0 -7 3 -2 5 12 5 14
0 19 -2 13 -5z m-2125 -70 c-10 -2 -28 -2 -40 0 -13 2 -5 4 17 4 22 1 32 -1
23 -4z m210 0 c-26 -2 -71 -2 -100 0 -29 2 -8 3 47 3 55 0 79 -1 53 -3z m130
0 c-16 -2 -40 -2 -55 0 -16 2 -3 4 27 4 30 0 43 -2 28 -4z"/>
<g>
<path d="M804 4258 l-19 -23 23 19 c21 18 27 26 19 26 -2 0 -12 -10 -23 -22z"/>
</g>
<g>
<path d="M1390 4610 c0 -5 5 -10 10 -10 6 0 10 5 10 10 0 6 -4 10 -10 10 -5 0
-10 -4 -10 -10z"/>
</g>
<g>
<path d="M1374 4338 c-2 -3 1 -8 8 -10 18 -6 0 -28 -23 -28 -11 0 -18 -4 -15
-9 8 -12 110 -5 114 8 2 6 -8 11 -22 11 -14 0 -26 5 -26 10 0 6 7 10 15 10 8
0 15 4 15 9 0 9 -60 9 -66 -1z"/>
</g>
<g>
<path d="M1390 4260 c0 -5 6 -10 14 -10 8 0 18 5 21 10 3 6 -3 10 -14 10 -12
0 -21 -4 -21 -10z"/>
</g>
<g>
<path d="M1660 4117 c-22 -11 -25 -20 -28 -72 -1 -33 -5 -67 -9 -75 -3 -8 -5
-21 -4 -29 2 -10 -5 -12 -23 -7 -19 5 -26 3 -26 -9 0 -8 9 -15 19 -15 11 0 27
-3 35 -6 13 -5 16 1 16 27 0 101 12 164 33 181 26 21 21 22 -13 5z"/>
</g>
<g>
<path d="M1254 3954 c28 -24 29 -29 19 -65 -10 -39 -8 -53 8 -43 5 3 9 24 9
48 0 32 -6 48 -23 64 -13 12 -27 22 -33 22 -5 0 4 -12 20 -26z"/>
</g>
<g>
<path d="M1707 3875 c4 -69 3 -105 -4 -105 -12 0 -23 -103 -15 -133 3 -13 11
-1 23 39 28 89 26 304 -2 304 -5 0 -6 -46 -2 -105z"/>
</g>
<g>
<path d="M1757 3963 c-4 -3 -7 -18 -6 -32 1 -26 1 -25 10 3 9 31 7 41 -4 29z"/>
</g>
<g>
<path d="M1674 3874 c6 -51 13 -81 19 -75 9 9 -11 148 -22 156 -3 2 -2 -35 3
-81z"/>
</g>
<g>
<path d="M1797 3953 c-14 -24 -28 -89 -36 -167 -6 -49 -17 -99 -26 -112 -17
-27 -19 -34 -6 -34 21 0 51 87 51 149 0 63 15 135 33 159 6 8 6 12 -1 12 -6 0
-13 -3 -15 -7z"/>
</g>
<g>
<path d="M1414 3929 c-4 -7 -2 -15 4 -17 7 -2 12 -19 12 -38 0 -19 5 -34 10
-34 15 0 8 92 -7 97 -6 2 -15 -2 -19 -8z"/>
</g>
<g>
<path d="M1353 3914 c22 -12 27 -22 27 -50 0 -24 4 -34 12 -32 7 3 12 14 11
26 0 12 -1 33 -2 45 -1 20 -7 24 -38 25 l-38 1 28 -15z"/>
</g>
<g>
<path d="M1466 3919 c3 -6 17 -8 30 -5 22 6 24 3 24 -29 0 -24 5 -35 15 -35
11 0 15 11 15 40 l0 40 -46 0 c-30 0 -43 -4 -38 -11z"/>
</g>
<g>
<path d="M1246 3911 c-4 -7 -5 -15 -2 -18 9 -9 19 4 14 18 -4 11 -6 11 -12 0z"/>
</g>
<g>
<path d="M1055 3892 c28 -18 44 -40 60 -87 13 -35 17 2 5 39 -7 23 -22 39 -44
50 -46 22 -58 20 -21 -2z"/>
</g>
<g>
<path d="M1835 3880 c-8 -16 -15 -55 -15 -87 -1 -35 -6 -66 -15 -77 -16 -22
-19 -36 -7 -36 16 1 42 74 42 121 0 27 7 63 15 79 9 17 11 30 6 30 -6 0 -17
-13 -26 -30z"/>
</g>
<g>
<path d="M1475 3869 c-8 -23 -1 -34 14 -24 13 8 15 45 2 45 -5 0 -13 -9 -16
-21z"/>
</g>
<g>
<path d="M1320 3865 c-16 -19 -3 -40 16 -24 15 13 19 39 5 39 -5 0 -14 -7 -21
-15z"/>
</g>
<g>
<path d="M1634 3859 c4 -13 10 -86 13 -161 7 -153 24 -179 22 -35 -2 134 -11
210 -28 215 -11 4 -12 -1 -7 -19z"/>
</g>
<g>
<path d="M1879 3858 c-7 -12 -13 -38 -14 -58 -1 -19 -5 -50 -9 -67 -5 -20 -4
-33 2 -33 13 0 22 36 22 94 0 32 6 56 17 68 9 10 11 18 5 18 -6 0 -17 -10 -23
-22z"/>
</g>
<g>
<path d="M2045 3840 c3 -5 10 -10 16 -10 5 0 9 5 9 10 0 6 -7 10 -16 10 -8 0
-12 -4 -9 -10z"/>
</g>
<g>
<path d="M1020 3830 c0 -5 5 -10 11 -10 6 0 26 -16 44 -36 18 -19 36 -31 39
-26 3 5 -12 26 -34 46 -40 36 -60 45 -60 26z"/>
</g>
<g>
<path d="M1976 3806 c-25 -26 -35 -45 -38 -78 -8 -71 10 -68 19 4 4 33 14 51
41 76 20 17 30 32 24 32 -6 0 -27 -15 -46 -34z"/>
</g>
<g>
<path d="M1212 3727 c-12 -106 -30 -476 -23 -483 14 -14 21 21 21 109 0 56 5
185 10 286 6 101 9 185 7 187 -2 2 -9 -42 -15 -99z"/>
</g>
<g>
<path d="M1916 3808 c-18 -29 -32 -123 -17 -113 6 3 11 21 11 39 0 18 9 45 20
59 22 28 25 37 10 37 -5 0 -16 -10 -24 -22z"/>
</g>
<g>
<path d="M1335 3798 c-7 -18 -10 -118 -7 -205 l2 -73 118 0 c64 0 127 3 139 6
28 8 32 35 26 171 l-6 113 -134 0 c-98 0 -135 -3 -138 -12z m263 -129 l3 -127
-123 -4 c-68 -3 -124 -4 -125 -4 -1 1 -3 58 -5 126 l-3 125 50 6 c28 3 84 6
125 5 l75 -1 3 -126z"/>
<g>
<path d="M1412 3681 c-23 -49 -42 -92 -42 -95 0 -4 46 -5 103 -4 100 3 102 3
99 26 -3 32 -88 162 -105 162 -8 0 -32 -40 -55 -89z m96 19 c16 -30 33 -65 36
-77 7 -22 6 -23 -68 -23 -42 0 -76 4 -76 9 0 18 69 155 75 149 2 -1 16 -28 33
-58z"/>
</g>
</g>
<g>
<path d="M1290 3660 c0 -29 3 -50 7 -46 7 7 5 87 -3 95 -2 2 -4 -20 -4 -49z"/>
</g>
<g>
<path d="M1107 3670 c3 -12 -2 -29 -12 -40 -16 -18 -16 -19 3 -17 22 1 36 35
26 61 -9 23 -23 20 -17 -4z"/>
</g>
<g>
<path d="M2130 3653 c19 -2 45 -9 57 -15 13 -6 26 -8 30 -4 14 14 -22 26 -72
24 -38 -1 -42 -2 -15 -5z"/>
</g>
<g>
<path d="M2232 3611 c4 -13 18 -16 19 -4 0 4 -5 9 -11 12 -7 2 -11 -2 -8 -8z"/>
</g>
<g>
<path d="M1870 3601 c0 -5 7 -11 14 -14 10 -4 13 -1 9 9 -6 15 -23 19 -23 5z"/>
</g>
<g>
<path d="M1095 3569 c-4 -13 -1 -27 10 -39 24 -27 36 -16 23 20 -13 39 -25 46
-33 19z"/>
</g>
<g>
<path d="M1045 3569 c-4 -6 -5 -13 -2 -16 7 -7 27 6 27 18 0 12 -17 12 -25 -2z"/>
</g>
<g>
<path d="M1357 3493 c-3 -5 -8 -87 -12 -183 -5 -127 -4 -172 4 -164 11 10 26
354 16 354 -2 0 -6 -3 -8 -7z"/>
</g>
<g>
<path d="M1437 3494 c-3 -3 -2 -17 4 -31 5 -13 9 -56 9 -94 0 -44 4 -68 10
-64 11 7 14 153 4 179 -6 17 -16 20 -27 10z"/>
</g>
<g>
<path d="M1499 3488 c-5 -110 -3 -168 7 -168 6 0 14 27 18 61 10 96 8 119 -9
119 -8 0 -15 -6 -16 -12z"/>
</g>
<g>
<path d="M1562 3488 c-15 -15 -16 -38 -2 -38 12 0 23 25 18 40 -2 7 -7 7 -16
-2z"/>
</g>
<g>
<path d="M1394 3444 c3 -26 6 -90 6 -142 0 -52 2 -93 5 -90 7 7 14 219 8 251
-10 47 -26 31 -19 -19z"/>
</g>
<g>
<path d="M900 3431 c-22 -21 -40 -44 -40 -51 0 -7 10 0 22 15 12 15 39 35 60
45 34 15 36 18 18 23 -15 4 -32 -5 -60 -32z"/>
</g>
<g>
<path d="M1040 3446 c0 -7 72 -56 82 -56 10 0 10 21 0 36 -7 11 -82 29 -82 20z"/>
</g>
<g>
<path d="M1769 3263 c-1 -5 -1 -66 0 -138 0 -71 -3 -155 -7 -185 -7 -47 -9
-32 -16 105 -8 186 -12 215 -32 215 -15 0 -14 -9 2 -75 4 -16 9 -266 11 -555
2 -289 5 -547 6 -575 1 -27 -2 -113 -6 -190 -6 -122 -6 -138 7 -122 28 35 30
107 20 669 -6 325 -5 371 9 392 21 31 38 466 19 466 -7 0 -13 -3 -13 -7z"/>
</g>
<g>
<path d="M1574 2998 c3 -101 10 -257 16 -348 5 -91 9 -243 10 -337 0 -95 4
-173 8 -173 5 0 12 75 15 168 6 157 -1 319 -23 562 -6 58 -10 151 -10 208 0
67 -4 102 -11 102 -8 0 -9 -54 -5 -182z"/>
</g>
<g>
<path d="M1462 3124 c-12 -8 -22 -24 -22 -36 0 -17 2 -18 15 -8 8 7 15 18 15
26 0 7 8 18 18 23 9 6 12 11 7 11 -6 0 -21 -7 -33 -16z"/>
</g>
<g>
<path d="M1395 3050 c-7 -12 2 -12 30 0 19 8 19 9 -2 9 -12 1 -25 -3 -28 -9z"/>
</g>
<g>
<path d="M1400 3017 c0 -2 9 -21 20 -43 13 -27 19 -33 19 -19 1 35 -11 65 -25
65 -8 0 -14 -1 -14 -3z"/>
</g>
<g>
<path d="M1110 2910 c0 -5 7 -10 15 -10 8 0 15 5 15 10 0 6 -7 10 -15 10 -8 0
-15 -4 -15 -10z"/>
</g>
<g>
<path d="M1367 2468 c2 -205 8 -503 15 -663 7 -159 12 -331 13 -382 0 -58 4
-96 12 -104 22 -22 27 40 13 151 -8 69 -14 270 -16 590 -5 696 -8 774 -25 778
-12 2 -14 -52 -12 -370z"/>
</g>
<g>
<path d="M1304 2779 c3 -17 6 -110 6 -205 0 -155 2 -174 16 -174 15 0 16 16
11 163 -4 89 -7 181 -7 205 0 32 -4 42 -16 42 -13 0 -15 -7 -10 -31z"/>
</g>
<g>
<path d="M1217 2783 c-11 -24 -6 -403 8 -613 10 -135 15 -283 12 -330 -2 -47
-1 -193 3 -324 7 -229 8 -239 30 -260 l22 -21 -5 25 c-18 79 -29 368 -24 584
4 155 3 245 -4 257 -9 18 -17 251 -18 557 -1 75 -5 132 -10 132 -6 0 -11 -3
-14 -7z"/>
</g>
<g>
<path d="M393 2643 c4 -38 7 -98 7 -135 0 -54 3 -68 15 -68 9 0 15 -9 15 -25
0 -14 4 -25 9 -25 7 0 15 59 27 223 3 35 1 57 -6 57 -5 0 -10 -3 -11 -7 0 -5
-3 -26 -5 -48 -2 -22 -7 -69 -12 -105 l-9 -65 -2 86 c-1 109 -11 179 -24 179
-6 0 -8 -25 -4 -67z"/>
</g>
<g>
<path d="M353 2558 c6 -96 3 -95 -28 5 -10 32 -23 61 -28 64 -6 4 -7 -3 -3
-18 18 -61 56 -216 56 -231 0 -10 5 -18 11 -18 8 0 10 14 6 43 -3 23 -3 34 0
25 8 -32 25 -19 19 15 -3 17 -8 71 -12 120 -4 48 -11 87 -17 87 -6 0 -8 -33
-4 -92z"/>
</g>
<g>
<path d="M491 2560 c-19 -88 -33 -191 -27 -197 9 -10 11 -5 33 107 12 58 23
111 24 119 2 7 -1 15 -8 18 -7 2 -15 -16 -22 -47z"/>
</g>
<g>
<path d="M190 2580 c0 -13 90 -180 97 -180 13 0 -12 60 -49 123 -40 67 -48 76
-48 57z"/>
</g>
<g>
<path d="M585 2548 c-2 -7 -13 -38 -24 -68 -25 -71 -35 -130 -22 -130 6 0 13
17 17 38 4 20 11 45 16 55 19 37 36 107 27 113 -5 3 -11 -1 -14 -8z"/>
</g>
<g>
<path d="M270 2534 c0 -13 43 -129 52 -138 15 -17 9 17 -14 82 -12 34 -25 62
-30 62 -4 0 -8 -3 -8 -6z"/>
</g>
<g>
<path d="M520 2498 c-6 -24 -13 -48 -15 -54 -2 -6 1 -17 5 -25 8 -11 10 -11
14 1 2 8 9 30 15 49 14 42 14 71 1 71 -5 0 -14 -19 -20 -42z"/>
</g>
<g>
<path d="M603 2463 c-28 -63 -37 -93 -25 -93 8 0 72 121 72 135 0 3 -6 5 -13
5 -7 0 -22 -21 -34 -47z"/>
</g>
<g>
<path d="M82 2495 c6 -18 53 -85 61 -85 15 0 6 18 -29 56 -19 21 -34 35 -32
29z"/>
</g>
<g>
<path d="M191 2493 c17 -39 93 -165 96 -157 5 15 -66 147 -84 158 -9 5 -14 5
-12 -1z"/>
</g>
<g>
<path d="M657 2425 c-26 -25 -47 -54 -47 -63 0 -10 -6 -24 -12 -31 -25 -24 42
0 94 35 27 19 54 34 59 34 5 0 9 5 9 10 0 18 -26 11 -71 -19 -24 -17 -46 -28
-48 -25 -3 2 14 24 37 47 23 24 42 46 42 50 0 16 -18 5 -63 -38z"/>
</g>
<g>
<path d="M165 2451 c-3 -5 -1 -12 4 -15 8 -6 61 -93 61 -102 0 -2 -21 12 -46
31 -25 19 -51 35 -57 34 -7 0 1 -10 18 -22 16 -12 41 -34 54 -49 14 -16 29
-28 33 -28 16 0 0 69 -25 113 -29 50 -32 52 -42 38z"/>
</g>
<g>
<path d="M73 2347 c2 -6 14 -14 28 -18 13 -4 50 -19 82 -33 31 -14 57 -22 57
-17 0 5 -12 14 -27 20 -16 5 -54 21 -86 35 -32 13 -56 19 -54 13z"/>
</g>
<g>
<path d="M675 2327 c-44 -13 -89 -36 -82 -43 5 -6 119 34 131 46 12 12 3 12
-49 -3z"/>
</g>
<g>
<path d="M50 2294 c0 -22 201 -67 213 -47 3 5 -12 9 -32 9 -21 1 -60 9 -88 18
-58 19 -93 27 -93 20z"/>
</g>
<g>
<path d="M693 2289 c-34 -4 -70 -13 -80 -19 -16 -10 -15 -11 7 -6 14 3 54 8
90 12 66 7 120 24 70 22 -14 0 -53 -4 -87 -9z"/>
</g>
<g>
<path d="M295 2280 c-3 -5 -1 -10 4 -10 6 0 11 5 11 10 0 6 -2 10 -4 10 -3 0
-8 -4 -11 -10z"/>
</g>
<g>
<path d="M604 2230 c0 -15 9 -21 36 -26 19 -3 57 -10 83 -15 62 -12 94 -12 81
0 -5 5 -45 14 -88 20 -44 6 -82 13 -84 16 -3 3 48 6 114 6 143 2 109 16 -41
18 -94 1 -101 0 -101 -19z"/>
</g>
<g>
<path d="M205 2186 c-22 -8 -66 -17 -97 -21 -32 -3 -58 -11 -58 -16 0 -6 15
-8 33 -5 17 3 50 8 72 11 50 7 95 25 95 36 0 5 -1 9 -2 9 -2 -1 -21 -7 -43
-14z"/>
</g>
<g>
<path d="M600 2192 c0 -14 118 -102 136 -102 25 0 15 16 -27 39 -49 28 -44 40
8 18 100 -41 154 -59 161 -53 10 10 -13 22 -107 56 -63 23 -87 28 -97 19 -10
-8 -21 -6 -44 11 -16 12 -30 17 -30 12z"/>
</g>
<g>
<path d="M236 2159 c-15 -12 -30 -19 -33 -15 -5 5 -40 -13 -131 -67 -57 -33
-25 -32 39 2 67 36 90 33 45 -5 -15 -14 -26 -28 -22 -31 6 -6 113 89 134 120
17 23 0 22 -32 -4z"/>
</g>
<g>
<path d="M507 2163 c-8 -12 11 -84 25 -98 7 -7 8 4 4 34 -8 50 -20 78 -29 64z"/>
</g>
<g>
<path d="M477 2113 c10 -60 18 -86 29 -90 7 -2 8 13 1 49 -13 72 -15 78 -26
78 -6 0 -7 -16 -4 -37z"/>
</g>
<g>
<path d="M555 2020 c9 -42 13 -50 27 -50 14 0 1 51 -19 70 -13 13 -14 11 -8
-20z"/>
</g>
<g>
<path d="M512 1999 c2 -7 10 -15 17 -17 8 -3 12 1 9 9 -2 7 -10 15 -17 17 -8
3 -12 -1 -9 -9z"/>
</g>
<g>
<path d="M2257 3253 c-3 -5 -8 -24 -11 -43 -7 -33 -6 -34 9 -16 8 11 15 30 15
43 0 23 -5 29 -13 16z"/>
</g>
<g>
<path d="M2810 1150 c0 -5 -11 -10 -25 -10 -33 0 -32 -22 1 -37 23 -11 27 -10
31 7 3 12 11 16 20 13 12 -5 11 -1 -3 15 -21 25 -24 26 -24 12z"/>
</g>
<g>
<path d="M2867 1136 c-8 -19 1 -26 34 -26 35 0 46 16 20 29 -27 15 -48 14 -54
-3z"/>
</g>
<g>
<path d="M2893 1076 c6 -17 47 -20 47 -3 0 9 -10 15 -25 15 -15 0 -24 -5 -22
-12z"/>
</g>
<g>
<path d="M2800 1050 c0 -5 -7 -7 -16 -3 -12 4 -15 2 -12 -8 8 -23 38 -23 38 0
0 12 -2 21 -5 21 -3 0 -5 -4 -5 -10z"/>
</g>
<g>
<path d="M2687 1036 c-18 -14 -23 -36 -9 -36 14 0 44 38 35 43 -5 3 -16 0 -26
-7z"/>
</g>
<g>
<path d="M2736 1022 c-3 -6 -1 -14 5 -17 15 -10 25 3 12 16 -7 7 -13 7 -17 1z"/>
</g>
<g>
<path d="M2807 976 c-6 -15 1 -26 15 -26 4 0 8 9 8 20 0 23 -15 27 -23 6z"/>
</g>
<g>
<path d="M2540 930 c0 -5 5 -10 10 -10 6 0 10 5 10 10 0 6 -4 10 -10 10 -5 0
-10 -4 -10 -10z"/>
</g>
<g>
<path d="M2660 925 c0 -8 5 -15 10 -15 6 0 10 7 10 15 0 8 -4 15 -10 15 -5 0
-10 -7 -10 -15z"/>
</g>
<g>
<path d="M2780 905 c-8 -9 -8 -15 -2 -15 12 0 26 19 19 26 -2 2 -10 -2 -17
-11z"/>
</g>
<g>
<path d="M2810 875 c0 -8 4 -15 9 -15 5 0 11 7 15 15 3 9 0 15 -9 15 -8 0 -15
-7 -15 -15z"/>
</g>
<g>
<path d="M2744 854 c-29 -20 -21 -59 10 -49 11 4 29 7 39 6 12 0 17 6 15 17
-3 9 -10 16 -16 15 -7 -2 -12 4 -12 12 0 19 -9 18 -36 -1z"/>
</g>
<g>
<path d="M86 1181 c-3 -4 5 -17 18 -28 13 -12 26 -27 28 -34 2 -7 9 -9 16 -5
9 5 6 15 -10 36 -23 31 -44 44 -52 31z"/>
</g>
<g>
<path d="M32 1169 c2 -7 10 -15 17 -17 8 -3 12 1 9 9 -2 7 -10 15 -17 17 -8 3
-12 -1 -9 -9z"/>
</g>
<g>
<path d="M2270 1200 c0 -5 5 -10 10 -10 6 0 10 5 10 10 0 6 -4 10 -10 10 -5 0
-10 -4 -10 -10z"/>
</g>
<g>
<path d="M2137 1163 c-4 -3 1 -12 11 -19 25 -20 34 -17 20 6 -13 21 -21 24
-31 13z"/>
</g>
<g>
<path d="M2170 1110 c0 -5 5 -10 10 -10 6 0 10 5 10 10 0 6 -4 10 -10 10 -5 0
-10 -4 -10 -10z"/>
</g>
<g>
<path d="M1860 954 c0 -8 5 -12 10 -9 6 3 10 10 10 16 0 5 -4 9 -10 9 -5 0
-10 -7 -10 -16z"/>
</g>
<g>
<path d="M1890 925 c0 -8 5 -15 10 -15 6 0 10 7 10 15 0 8 -4 15 -10 15 -5 0
-10 -7 -10 -15z"/>
</g>
<g>
<path d="M1930 910 c0 -5 5 -10 10 -10 6 0 10 5 10 10 0 6 -4 10 -10 10 -5 0
-10 -4 -10 -10z"/>
</g>
</g>
<g>
<path d="M1140 5103 c0 -7 6 -13 14 -13 8 0 24 -12 35 -26 19 -24 19 -28 5
-56 -11 -21 -21 -29 -34 -25 -11 3 -24 -1 -31 -9 -11 -14 9 -16 116 -16 223 0
335 4 335 12 0 6 -20 10 -45 10 -25 0 -45 3 -45 8 0 4 8 28 17 55 15 41 21 47
45 47 15 0 28 5 28 10 0 6 -29 10 -67 10 -38 1 -137 2 -220 4 -122 2 -153 0
-153 -11z m130 -12 c0 -5 -7 -14 -15 -21 -18 -15 -42 1 -31 19 8 13 46 15 46
2z m50 -46 c0 -25 0 -48 1 -52 1 -20 -30 -11 -45 12 -16 24 -16 27 4 55 30 42
40 37 40 -15z m100 -52 c0 -7 -11 -13 -24 -13 -20 0 -24 6 -30 46 -3 25 -3 51
1 57 6 10 52 -67 53 -90z m55 88 c3 -6 -1 -25 -9 -43 l-14 -33 -15 35 c-8 19
-13 38 -11 42 7 11 42 10 49 -1z m-227 -89 c2 -7 -3 -12 -12 -12 -9 0 -16 7
-16 16 0 17 22 14 28 -4z"/>
</g>
<g>
<path d="M1380 4845 c0 -57 4 -95 10 -95 6 0 10 38 10 95 0 57 -4 95 -10 95
-6 0 -10 -38 -10 -95z"/>
</g>
<g>
<path d="M1326 4838 c7 -85 9 -96 20 -85 10 9 -7 167 -17 167 -6 0 -7 -34 -3
-82z"/>
</g>
<g>
<path d="M1436 4887 c-15 -87 -18 -137 -8 -137 6 0 13 26 17 58 3 31 8 67 11
79 2 12 0 24 -5 27 -5 3 -11 -9 -15 -27z"/>
</g>
<g>
<path d="M820 4886 c0 -15 328 -261 337 -252 4 3 4 8 2 9 -10 8 -118 88 -160
119 -26 18 -73 54 -105 80 -53 43 -74 56 -74 44z"/>
</g>
<g>
<path d="M1858 4853 c-24 -21 -70 -62 -103 -93 -33 -31 -73 -65 -90 -77 -16
-12 -27 -24 -23 -28 8 -9 45 19 118 89 30 29 79 74 108 99 29 26 48 47 42 47
-5 0 -29 -17 -52 -37z"/>
</g>
<g>
<path d="M1705 4774 c-55 -52 -94 -94 -87 -94 15 0 199 176 192 183 -3 3 -50
-37 -105 -89z"/>
</g>
<g>
<path d="M956 4841 c44 -45 211 -178 217 -174 4 2 5 8 2 13 -11 18 -206 170
-217 170 -8 0 -8 -3 -2 -9z"/>
</g>
<g>
<path d="M1545 4778 c-15 -28 -22 -49 -15 -46 18 6 63 85 52 92 -5 3 -22 -18
-37 -46z"/>
</g>
<g>
<path d="M1267 4814 c-8 -13 13 -84 25 -84 11 0 9 18 -6 59 -7 19 -15 30 -19
25z"/>
</g>
<g>
<path d="M1485 4790 c-16 -32 -19 -50 -7 -50 4 0 15 18 24 40 19 46 6 54 -17
10z"/>
</g>
<g>
<path d="M1200 4783 c0 -15 40 -73 50 -73 14 0 12 10 -9 44 -16 29 -41 46 -41
29z"/>
</g>
<g>
<path d="M1601 4746 c-19 -20 -32 -39 -28 -42 9 -9 70 52 65 66 -2 6 -19 -5
-37 -24z"/>
</g>
<g>
<path d="M890 4760 c0 -5 4 -10 9 -10 5 0 59 -34 120 -75 61 -41 113 -75 116
-75 29 0 -52 61 -182 138 -61 36 -63 36 -63 22z"/>
</g>
<g>
<path d="M1805 4746 c-17 -12 -47 -36 -66 -54 -20 -18 -45 -39 -55 -47 -11 -7
-16 -16 -13 -20 4 -3 29 13 56 37 26 24 64 55 83 70 41 32 37 44 -5 14z"/>
</g>
<g>
<path d="M1141 4743 c0 -11 59 -56 65 -51 8 8 -37 58 -52 58 -8 0 -14 -3 -13
-7z"/>
</g>
<g>
<path d="M2195 4730 c-4 -6 5 -10 19 -10 14 0 26 5 26 10 0 6 -9 10 -19 10
-11 0 -23 -4 -26 -10z"/>
</g>
<g>
<path d="M1458 4703 c7 -3 16 -2 19 1 4 3 -2 6 -13 5 -11 0 -14 -3 -6 -6z"/>
</g>
<g>
<path d="M2185 4630 c-3 -5 1 -10 9 -10 9 0 16 5 16 10 0 6 -4 10 -9 10 -6 0
-13 -4 -16 -10z"/>
</g>
<g>
<path d="M940 4621 c0 -6 19 -15 43 -21 23 -6 58 -15 77 -21 43 -11 60 -11 60
-1 0 4 -33 16 -72 26 -40 9 -81 20 -90 22 -10 3 -18 1 -18 -5z"/>
</g>
<g>
<path d="M1723 4614 c-18 -8 -33 -17 -33 -20 0 -9 51 6 74 22 27 18 3 17 -41
-2z"/>
</g>
<g>
<path d="M1795 4580 c-3 -5 -18 -10 -33 -10 -15 0 -34 -5 -42 -11 -11 -8 -5
-9 25 -5 22 3 48 6 58 6 9 0 17 7 17 15 0 17 -16 20 -25 5z"/>
</g>
<g>
<path d="M935 4551 c13 -12 148 -17 155 -5 3 5 -33 10 -80 12 -55 2 -81 -1
-75 -7z"/>
</g>
<g>
<path d="M1113 4513 c-4 -10 -14 -24 -22 -30 -14 -11 -12 -12 12 -11 16 2 26
7 23 14 -2 6 0 16 6 22 6 6 6 12 -1 17 -6 3 -14 -2 -18 -12z"/>
</g>
<g>
<path d="M1735 4520 c-8 -13 95 -13 115 0 11 7 -3 10 -47 10 -34 0 -65 -4 -68
-10z"/>
</g>
<g>
<path d="M905 4510 c3 -5 41 -9 83 -9 57 1 69 3 47 9 -46 12 -137 12 -130 0z"/>
</g>
<g>
<path d="M2130 4510 c0 -5 5 -10 10 -10 6 0 10 5 10 10 0 6 -4 10 -10 10 -5 0
-10 -4 -10 -10z"/>
</g>
<g>
<path d="M1750 4479 c0 -10 163 -16 192 -7 30 8 29 8 -89 11 -57 2 -103 0
-103 -4z"/>
</g>
<g>
<path d="M800 4470 c0 -6 43 -10 110 -10 67 0 110 4 110 10 0 6 -43 10 -110
10 -67 0 -110 -4 -110 -10z"/>
</g>
<g>
<path d="M1755 4443 c14 -14 255 -26 255 -13 0 6 -40 10 -99 10 -54 0 -114 3
-132 6 -23 5 -31 3 -24 -3z"/>
</g>
<g>
<path d="M800 4431 c0 -7 43 -11 123 -10 134 2 110 13 -35 18 -57 1 -88 -2
-88 -8z"/>
</g>
<g>
<path d="M1757 4400 c6 -7 56 -14 120 -17 117 -6 140 5 27 12 -38 3 -89 8
-114 11 -35 4 -42 3 -33 -6z"/>
</g>
<g>
<path d="M865 4390 c-4 -6 28 -10 89 -10 57 0 96 4 96 10 0 6 -36 10 -89 10
-50 0 -93 -4 -96 -10z"/>
</g>
<g>
<path d="M1754 4361 c4 -5 29 -14 57 -20 60 -13 69 -14 69 -2 0 4 -26 13 -57
20 -68 13 -76 14 -69 2z"/>
</g>
<g>
<path d="M988 4343 c-32 -9 -56 -19 -53 -23 6 -9 136 17 149 30 14 14 -26 11
-96 -7z"/>
</g>
<g>
<path d="M1031 4304 c-70 -27 -77 -31 -68 -40 7 -7 157 48 157 59 0 12 -21 7
-89 -19z"/>
</g>
<g>
<path d="M1746 4321 c14 -13 102 -40 109 -33 3 3 -14 14 -37 23 -46 19 -88 25
-72 10z"/>
</g>
<g>
<path d="M1049 4259 c-79 -44 -96 -56 -87 -64 3 -3 32 9 64 26 95 53 116 66
107 72 -5 3 -43 -12 -84 -34z"/>
</g>
<g>
<path d="M1720 4293 c0 -12 96 -46 112 -40 7 2 -5 12 -26 21 -55 23 -86 30
-86 19z"/>
</g>
<g>
<path d="M1670 4231 c0 -15 60 -61 78 -61 13 1 9 7 -13 26 -40 34 -65 47 -65
35z"/>
</g>
<g>
<path d="M1171 4197 c-23 -37 -25 -47 -13 -47 12 0 48 68 40 75 -3 3 -15 -9
-27 -28z"/>
</g>
<g>
<path d="M1632 4208 c3 -7 13 -15 24 -17 16 -3 17 -1 5 13 -16 19 -34 21 -29
4z"/>
</g>
<g>
<path d="M1570 4200 l-25 -6 29 -8 c30 -7 46 -1 30 13 -5 4 -20 5 -34 1z"/>
</g>
<g>
<path d="M1207 4181 c-3 -14 0 -21 9 -21 8 0 14 5 14 10 0 6 5 10 11 10 5 0 7
-4 4 -10 -3 -5 -2 -10 4 -10 10 0 25 19 19 25 -1 2 -15 6 -29 10 -21 5 -27 2
-32 -14z"/>
</g>
<g>
<path d="M190 984 c0 -17 95 -20 120 -4 19 12 19 12 -57 16 -49 2 -63 -1 -63
-12z"/>
</g>
<g>
<path d="M358 979 c-10 -6 -10 -11 -1 -20 15 -15 114 0 120 18 5 14 -97 15
-119 2z"/>
</g>
<g>
<path d="M955 970 c-4 -6 31 -10 97 -9 67 0 96 3 83 9 -28 12 -173 12 -180 0z"/>
</g>
<g>
<path d="M65 945 c-19 -15 -19 -15 10 -13 17 2 29 7 28 13 -3 16 -18 16 -38 0z"/>
</g>
<g>
<path d="M156 923 c-11 -11 -6 -23 9 -23 8 0 15 4 15 9 0 13 -16 22 -24 14z"/>
</g>
<g>
<path d="M226 901 c-3 -5 -31 -12 -62 -16 -58 -7 -104 -23 -104 -35 0 -16 14
-18 34 -6 11 8 49 19 84 27 37 8 62 18 62 26 0 15 -6 17 -14 4z"/>
</g>
<g>
<path d="M304 895 c-10 -26 6 -38 27 -19 10 9 16 21 13 25 -8 14 -34 10 -40
-6z"/>
</g>
<g>
<path d="M745 900 c-4 -6 8 -10 29 -10 19 0 38 5 41 10 4 6 -8 10 -29 10 -19
0 -38 -4 -41 -10z"/>
</g>
<g>
<path d="M1030 900 c0 -5 15 -10 34 -10 19 0 38 5 41 10 4 6 -10 10 -34 10
-23 0 -41 -4 -41 -10z"/>
</g>
<g>
<path d="M658 883 c7 -3 16 -2 19 1 4 3 -2 6 -13 5 -11 0 -14 -3 -6 -6z"/>
</g>
<g>
<path d="M813 879 c-10 -4 -35 -8 -55 -8 -21 -1 -38 -6 -38 -12 0 -7 43 -8
138 -3 134 7 151 9 140 19 -8 8 -165 11 -185 4z"/>
</g>
<g>
<path d="M1120 870 c0 -5 11 -10 25 -10 14 0 25 5 25 10 0 6 -11 10 -25 10
-14 0 -25 -4 -25 -10z"/>
</g>
<g>
<path d="M158 850 c-45 -8 -83 -39 -68 -54 7 -7 19 -3 38 11 15 11 51 24 80
28 29 4 52 11 52 16 0 10 -48 10 -102 -1z"/>
</g>
<g>
<path d="M308 852 c-10 -2 -18 -8 -18 -13 0 -14 103 -7 107 7 4 11 -47 14 -89
6z"/>
</g>
<g>
<path d="M665 849 c-4 -6 -5 -13 -2 -16 7 -7 27 6 27 18 0 12 -17 12 -25 -2z"/>
</g>
<g>
<path d="M485 840 c-19 -7 -19 -8 -2 -15 10 -4 23 -3 29 3 14 14 -3 21 -27 12z"/>
</g>
<g>
<path d="M570 820 c-8 -5 -12 -12 -8 -15 9 -9 48 4 48 16 0 12 -21 11 -40 -1z"/>
</g>
<g>
<path d="M805 810 c-9 -14 48 -18 163 -13 164 9 151 24 -17 22 -78 -1 -144 -5
-146 -9z"/>
</g>
<g>
<path d="M1148 813 c6 -2 18 -2 25 0 6 3 1 5 -13 5 -14 0 -19 -2 -12 -5z"/>
</g>
<g>
<path d="M1200 810 c0 -5 18 -10 40 -10 22 0 40 5 40 10 0 6 -18 10 -40 10
-22 0 -40 -4 -40 -10z"/>
</g>
<g>
<path d="M145 780 c-16 -18 -16 -20 -2 -20 10 0 17 5 17 10 0 6 7 10 15 10 8
0 15 5 15 10 0 17 -26 11 -45 -10z"/>
</g>
<g>
<path d="M437 793 c-14 -13 -6 -23 18 -23 16 0 25 6 25 15 0 15 -31 21 -43 8z"/>
</g>
<g>
<path d="M2386 781 c-3 -5 0 -11 8 -14 18 -7 56 3 56 14 0 12 -57 12 -64 0z"/>
</g>
<g>
<path d="M2544 769 c-3 -6 -1 -16 5 -22 8 -8 11 -5 11 11 0 24 -5 28 -16 11z"/>
</g>
<g>
<path d="M300 760 c-13 -8 -13 -10 2 -10 9 0 18 -5 20 -12 3 -8 10 -7 27 4
l22 15 -23 7 c-30 8 -30 7 -48 -4z"/>
</g>
<g>
<path d="M1744 758 c-3 -5 27 -8 65 -8 43 0 71 4 71 11 0 12 -129 9 -136 -3z"/>
</g>
<g>
<path d="M1940 760 c0 -5 25 -10 55 -10 30 0 55 5 55 10 0 6 -25 10 -55 10
-30 0 -55 -4 -55 -10z"/>
</g>
<g>
<path d="M893 749 c-91 -21 -40 -30 142 -26 33 0 88 0 123 0 55 -2 62 0 51 13
-10 12 -34 14 -118 12 -58 -2 -117 0 -131 4 -14 3 -44 2 -67 -3z"/>
</g>
<g>
<path d="M1547 754 c-10 -11 3 -24 24 -24 10 0 19 7 19 15 0 15 -31 21 -43 9z"/>
</g>
<g>
<path d="M363 738 c-13 -6 -23 -15 -23 -20 0 -11 17 -10 25 2 3 6 36 10 72 10
37 0 64 3 60 6 -12 12 -112 13 -134 2z"/>
</g>
<g>
<path d="M715 740 c3 -5 24 -10 46 -10 21 0 39 5 39 10 0 6 -21 10 -46 10 -27
0 -43 -4 -39 -10z"/>
</g>
<g>
<path d="M1622 738 c5 -15 37 -18 41 -3 1 6 -9 12 -22 13 -16 3 -22 -1 -19
-10z"/>
</g>
<g>
<path d="M50 720 c0 -5 5 -10 10 -10 6 0 10 5 10 10 0 6 -4 10 -10 10 -5 0
-10 -4 -10 -10z"/>
</g>
<g>
<path d="M1754 723 c4 -5 42 -9 84 -10 97 -3 202 -21 223 -39 12 -11 53 -14
168 -15 83 0 158 -2 166 -5 22 -9 5 -34 -24 -35 l-26 -1 25 -8 c40 -13 53 -11
46 5 -3 9 1 15 11 15 13 0 13 3 3 15 -17 20 7 20 46 0 50 -26 288 -17 246 9
-6 3 -17 4 -25 0 -8 -3 -17 2 -20 10 -8 20 -27 21 -27 1 0 -12 -14 -15 -69
-15 -61 0 -72 3 -88 23 -19 25 -93 46 -93 27 0 -5 10 -10 22 -10 13 0 18 -4
12 -9 -15 -14 -132 -1 -138 15 -3 8 1 14 9 14 7 0 17 5 20 10 4 6 -41 10 -127
9 -90 0 -126 -3 -110 -9 24 -10 29 -25 11 -36 -6 -3 -15 -1 -19 7 -5 7 -35 19
-67 25 -63 14 -271 19 -259 7z m510 -28 c-4 -9 -19 -15 -38 -15 -22 0 -33 5
-33 15 0 11 11 15 38 15 30 0 37 -3 33 -15z"/>
</g>
<g>
<path d="M1280 710 c0 -5 20 -10 45 -10 25 0 45 5 45 10 0 6 -20 10 -45 10
-25 0 -45 -4 -45 -10z"/>
</g>
<g>
<path d="M1420 712 c-6 -2 -10 -8 -10 -13 0 -5 50 -9 110 -9 61 0 110 4 110 9
0 9 -188 20 -210 13z"/>
</g>
<g>
<path d="M296 701 c-8 -12 21 -34 34 -26 8 5 8 11 -1 21 -13 16 -25 18 -33 5z"/>
</g>
<g>
<path d="M765 699 c-22 -4 -55 -5 -72 -2 -49 8 -40 -12 10 -24 40 -10 41 -11
10 -12 -44 -1 -43 -21 1 -21 65 0 155 13 150 21 -3 5 -29 10 -57 10 l-52 2 48
10 c26 6 47 14 47 19 0 10 -30 9 -85 -3z"/>
</g>
<g>
<path d="M918 703 c-32 -8 -19 -20 28 -27 69 -9 84 -8 84 9 0 10 -10 15 -27
15 -16 0 -37 2 -48 4 -11 2 -28 2 -37 -1z"/>
</g>
<g>
<path d="M242 689 c2 -7 10 -15 17 -17 8 -3 12 1 9 9 -2 7 -10 15 -17 17 -8 3
-12 -1 -9 -9z"/>
</g>
<g>
<path d="M540 690 c0 -5 14 -10 31 -10 17 0 28 4 24 10 -3 6 -17 10 -31 10
-13 0 -24 -4 -24 -10z"/>
</g>
<g>
<path d="M1082 680 c-12 -19 -10 -20 58 -20 73 0 81 4 53 26 -29 21 -96 18
-111 -6z"/>
</g>
<g>
<path d="M1240 664 c0 -11 18 -14 77 -14 93 0 87 15 -9 23 -54 4 -68 2 -68 -9z"/>
</g>
<g>
<path d="M1420 676 c0 -2 7 -6 15 -10 8 -3 15 -1 15 4 0 6 -7 10 -15 10 -8 0
-15 -2 -15 -4z"/>
</g>
<g>
<path d="M1538 668 c9 -9 15 -9 24 0 9 9 7 12 -12 12 -19 0 -21 -3 -12 -12z"/>
</g>
<g>
<path d="M2550 670 c0 -5 5 -10 10 -10 6 0 10 5 10 10 0 6 -4 10 -10 10 -5 0
-10 -4 -10 -10z"/>
</g>
<g>
<path d="M1775 660 l-50 -7 68 -1 c43 -1 66 2 62 8 -3 6 -12 9 -18 8 -7 0 -34
-4 -62 -8z"/>
</g>
<g>
<path d="M1890 660 c0 -12 67 -12 95 0 14 6 4 9 -37 9 -33 1 -58 -3 -58 -9z"/>
</g>
<g>
<path d="M920 650 c0 -5 15 -10 33 -10 24 0 28 3 17 10 -20 13 -50 13 -50 0z"/>
</g>
<g>
<path d="M102 631 c16 -25 31 -27 26 -4 -2 10 -11 19 -21 21 -16 3 -17 1 -5
-17z"/>
</g>
<g>
<path d="M1040 640 c0 -5 7 -10 15 -10 8 0 15 5 15 10 0 6 -7 10 -15 10 -8 0
-15 -4 -15 -10z"/>
</g>
<g>
<path d="M1480 640 c0 -5 55 -10 123 -12 121 -3 169 4 105 16 -50 9 -228 6
-228 -4z"/>
</g>
<g>
<path d="M177 629 c14 -14 193 -13 207 1 7 7 -28 10 -104 10 -85 0 -111 -3
-103 -11z"/>
</g>
<g>
<path d="M2264 631 c5 -8 56 -3 56 5 0 2 -14 4 -31 4 -16 0 -28 -4 -25 -9z"/>
</g>
<g>
<path d="M1040 610 c-11 -7 1 -10 42 -10 31 0 60 5 63 10 8 13 -85 13 -105 0z"/>
</g>
<g>
<path d="M1470 610 c0 -5 -13 -10 -30 -10 -42 0 -37 -16 8 -24 55 -9 92 -7 92
4 0 6 -14 10 -31 10 -17 0 -28 4 -24 10 3 5 12 7 20 3 8 -3 15 0 15 6 0 6 -11
11 -25 11 -14 0 -25 -4 -25 -10z"/>
</g>
<g>
<path d="M1580 610 c0 -5 16 -10 35 -10 19 0 35 5 35 10 0 6 -16 10 -35 10
-19 0 -35 -4 -35 -10z"/>
</g>
<g>
<path d="M1735 611 c-3 -5 3 -12 12 -14 10 -3 -26 -5 -79 -6 -58 -1 -98 -5
-98 -11 0 -6 26 -10 58 -10 31 0 114 -3 185 -7 93 -4 127 -3 127 5 0 8 -25 12
-76 12 -71 0 -75 1 -69 20 5 17 2 20 -24 20 -16 0 -32 -4 -36 -9z"/>
</g>
<g>
<path d="M2680 610 c0 -5 9 -10 20 -10 11 0 20 5 20 10 0 6 -9 10 -20 10 -11
0 -20 -4 -20 -10z"/>
</g>
<g>
<path d="M690 599 c0 -10 40 -19 93 -19 26 0 47 5 47 10 0 6 -3 10 -7 10 -5 1
-36 2 -70 4 -35 1 -63 -1 -63 -5z"/>
</g>
<g>
<path d="M1880 600 c0 -5 18 -10 40 -10 22 0 40 5 40 10 0 6 -18 10 -40 10
-22 0 -40 -4 -40 -10z"/>
</g>
<g>
<path d="M2466 602 c-3 -4 26 -9 64 -10 39 -2 71 2 75 8 4 6 -18 10 -64 10
-38 0 -72 -4 -75 -8z"/>
</g>
<g>
<path d="M200 591 c0 -10 30 -24 37 -17 3 3 2 9 -2 15 -8 13 -35 15 -35 2z"/>
</g>
<g>
<path d="M880 581 c0 -5 12 -12 28 -15 15 -2 -20 -3 -78 0 -59 2 -112 0 -120
-6 -17 -11 5 -12 232 -15 76 0 132 2 125 7 -6 4 -29 8 -49 8 -25 0 -37 4 -35
13 1 8 -15 13 -50 15 -30 2 -53 -1 -53 -7z"/>
</g>
<g>
<path d="M1104 578 c-7 -12 9 -14 61 -7 28 3 46 7 40 8 -23 6 -97 5 -101 -1z"/>
</g>
<g>
<path d="M1280 582 c0 -5 -12 -13 -27 -19 -25 -10 -26 -11 -6 -12 12 -1 25 4
28 9 3 6 15 10 26 10 10 0 19 5 19 10 0 6 -9 10 -20 10 -11 0 -20 -4 -20 -8z"/>
</g>
<g>
<path d="M2260 580 c0 -5 5 -10 10 -10 6 0 10 5 10 10 0 6 -4 10 -10 10 -5 0
-10 -4 -10 -10z"/>
</g>
<g>
<path d="M2405 571 c-3 -6 31 -11 80 -13 88 -3 113 5 48 16 -56 9 -121 7 -128
-3z"/>
</g>
<g>
<path d="M464 559 c-7 -11 25 -19 76 -19 74 0 69 18 -6 22 -36 1 -68 0 -70 -3z"/>
</g>
<g>
<path d="M1720 550 c0 -5 7 -10 16 -10 8 0 12 5 9 10 -3 6 -10 10 -16 10 -5 0
-9 -4 -9 -10z"/>
</g>
<g>
<path d="M2620 550 c0 -5 6 -10 14 -10 8 0 18 5 21 10 3 6 -3 10 -14 10 -12 0
-21 -4 -21 -10z"/>
</g>
<g>
<path d="M135 541 c-18 -8 -18 -10 -3 -16 22 -9 69 -2 69 10 0 13 -40 16 -66
6z"/>
</g>
<g>
<path d="M250 540 c0 -5 16 -10 35 -10 19 0 35 5 35 10 0 6 -16 10 -35 10 -19
0 -35 -4 -35 -10z"/>
</g>
<g>
<path d="M2085 540 c7 -12 112 -12 140 0 13 6 -7 9 -63 9 -53 1 -81 -3 -77 -9z"/>
</g>
<g>
<path d="M390 530 c0 -5 14 -10 31 -10 17 0 28 4 24 10 -3 6 -17 10 -31 10
-13 0 -24 -4 -24 -10z"/>
</g>
<g>
<path d="M50 515 c0 -8 2 -15 4 -15 2 0 11 -3 20 -6 10 -4 16 -1 16 9 0 8 -7
18 -16 21 -22 9 -24 8 -24 -9z"/>
</g>
<g>
<path d="M1060 523 c-36 -2 -69 -8 -74 -13 -12 -12 276 0 289 11 9 9 -76 9
-215 2z"/>
</g>
<g>
<path d="M2400 520 c0 -12 8 -12 35 0 18 8 17 9 -7 9 -16 1 -28 -3 -28 -9z"/>
</g>
<g>
<path d="M505 500 c3 -5 24 -10 46 -10 21 0 39 5 39 10 0 6 -21 10 -46 10 -27
0 -43 -4 -39 -10z"/>
</g>
<g>
<path d="M2067 504 c-12 -13 4 -24 34 -24 20 0 29 4 27 13 -5 13 -50 22 -61
11z"/>
</g>
<g>
<path d="M2450 500 c0 -5 14 -10 31 -10 17 0 28 4 24 10 -3 6 -17 10 -31 10
-13 0 -24 -4 -24 -10z"/>
</g>
<g>
<path d="M685 480 c28 -12 63 -12 70 0 4 6 -12 10 -42 9 -36 0 -43 -3 -28 -9z"/>
</g>
<g>
<path d="M832 478 c5 -15 57 -18 61 -3 1 6 -13 11 -32 13 -24 3 -32 0 -29 -10z"/>
</g>
<g>
<path d="M1120 480 c0 -6 33 -10 80 -10 47 0 80 4 80 10 0 6 -33 10 -80 10
-47 0 -80 -4 -80 -10z"/>
</g>
<g>
<path d="M2365 480 c-3 -5 3 -10 14 -10 12 0 21 5 21 10 0 6 -6 10 -14 10 -8
0 -18 -4 -21 -10z"/>
</g>
<g>
<path d="M2285 460 c-3 -5 3 -10 14 -10 12 0 21 5 21 10 0 6 -6 10 -14 10 -8
0 -18 -4 -21 -10z"/>
</g>
<g>
<path d="M1783 328 c-2 -5 -1 -13 2 -18 4 -6 2 -16 -3 -23 -5 -7 -20 -41 -32
-77 -13 -36 -27 -69 -32 -74 -14 -17 -9 -26 17 -26 20 0 25 5 25 23 0 13 7 38
15 55 14 27 20 30 55 29 48 -3 51 -5 55 -59 3 -43 3 -43 44 -46 32 -2 41 0 41
12 0 9 -6 16 -14 16 -11 0 -26 40 -63 173 -2 9 -13 18 -24 18 -60 4 -81 3 -86
-3z m72 -60 c7 -26 5 -28 -24 -28 -36 0 -36 1 -15 42 17 33 29 29 39 -14z"/>
</g>
<g>
<path d="M2136 331 c-3 -5 3 -11 14 -14 18 -4 20 -14 20 -74 l0 -68 -43 75
c-38 67 -46 75 -72 75 l-30 0 -3 -97 c-1 -54 -7 -98 -12 -98 -6 0 -10 -4 -10
-10 0 -5 18 -10 40 -10 22 0 40 5 40 10 0 6 -4 10 -10 10 -6 0 -10 27 -10 63
l0 62 30 -54 c41 -75 48 -81 86 -81 l34 0 0 94 c0 52 3 101 6 110 5 13 -2 16
-34 16 -23 0 -43 -4 -46 -9z"/>
</g>
<g>
<path d="M2314 323 c-30 -25 -44 -56 -44 -95 0 -44 24 -76 74 -99 53 -24 89
-24 111 1 19 21 19 21 -22 14 -31 -5 -49 -2 -72 12 -61 36 -49 131 19 145 28
6 30 5 28 -19 -5 -42 25 -39 45 4 10 20 16 38 15 40 -2 2 -33 6 -68 9 -54 5
-69 3 -86 -12z"/>
</g>
<g>
<path d="M2540 334 c-12 -4 -14 -23 -12 -114 l3 -110 73 0 c64 0 75 3 96 25
29 31 18 46 -13 18 -17 -15 -32 -19 -64 -15 l-43 4 0 44 c0 37 3 42 18 37 9
-4 20 -11 25 -17 9 -13 27 11 27 36 0 23 -19 33 -26 14 -3 -9 -15 -16 -26 -16
-16 0 -19 6 -16 33 2 23 8 32 21 31 9 -1 26 -2 37 -3 11 0 20 -8 20 -17 0 -26
25 -9 28 19 3 23 -1 27 -21 27 -13 0 -44 2 -68 4 -24 3 -51 3 -59 0z"/>
</g>
<g>
<path d="M228 322 c-43 -3 -48 -6 -48 -27 0 -32 16 -40 30 -15 6 12 21 20 35
20 25 0 25 -1 25 -83 0 -47 -5 -88 -11 -94 -8 -8 0 -13 30 -18 53 -9 63 -1 45
33 -14 28 -17 89 -5 132 9 32 40 39 48 11 7 -27 19 -27 34 0 8 15 8 24 0 32
-11 11 -96 15 -183 9z"/>
</g>
<g>
<path d="M490 323 l-35 -4 3 -99 c3 -79 1 -100 -10 -100 -11 0 -11 -2 0 -9 18
-11 163 -2 180 11 6 6 12 17 12 24 0 19 -39 18 -46 -1 -4 -9 -19 -15 -40 -15
-33 0 -34 1 -34 40 0 44 6 49 26 23 12 -16 13 -13 14 25 0 42 -13 56 -24 25
-9 -24 -29 -1 -24 28 3 22 7 24 47 21 25 -1 50 -7 57 -13 15 -13 26 3 18 25
-4 11 -19 16 -44 16 -21 0 -44 1 -52 3 -7 2 -29 2 -48 0z"/>
</g>
<g>
<path d="M718 235 c3 -65 0 -100 -8 -110 -11 -13 -6 -15 35 -15 46 0 47 1 32
18 -12 13 -17 37 -17 77 0 57 1 58 18 39 9 -11 22 -29 28 -40 18 -32 39 -27
67 15 15 22 27 45 27 51 0 5 4 10 10 10 5 0 8 -31 7 -72 -1 -57 -5 -76 -19
-86 -27 -20 -15 -28 32 -24 37 4 40 6 33 26 -4 11 -6 60 -4 109 l3 87 -34 0
c-29 -1 -36 -6 -53 -42 -11 -23 -25 -43 -30 -45 -6 -2 -19 11 -29 28 -27 47
-53 69 -78 69 -23 0 -23 -2 -20 -95z"/>
</g>
<g>
<path d="M1025 321 c-3 -5 -1 -12 4 -15 12 -8 12 -176 0 -176 -5 0 -9 -6 -9
-13 0 -8 16 -13 45 -15 44 -2 68 11 40 22 -19 7 -21 75 -2 80 84 22 116 43
117 77 0 34 -33 49 -113 49 -42 0 -78 -4 -82 -9z m133 -45 c-4 -30 -68 -37
-68 -7 0 24 25 40 52 33 13 -3 18 -12 16 -26z"/>
</g>
<g>
<path d="M1271 278 c0 -29 3 -79 6 -110 l5 -58 67 0 c69 0 110 17 97 38 -5 9
-14 7 -31 -4 -13 -8 -38 -14 -57 -12 -26 2 -34 8 -36 27 -5 30 13 50 30 33 20
-20 28 -14 28 23 0 35 -16 47 -26 20 -11 -28 -24 -15 -24 25 0 39 1 40 35 40
25 0 35 -4 35 -16 0 -9 6 -14 13 -11 6 2 12 15 12 28 0 23 -3 24 -77 27 l-77
2 0 -52z"/>
</g>
<g>
<path d="M1489 316 c8 -9 12 -49 10 -113 l-2 -98 34 3 c41 5 46 9 31 24 -7 7
-12 29 -12 51 0 34 3 38 22 35 14 -2 25 -14 31 -33 12 -39 46 -75 69 -75 25 0
23 12 -6 39 -35 33 -41 67 -16 93 22 24 26 58 8 76 -7 7 -44 12 -96 12 -72 0
-83 -2 -73 -14z m129 -12 c16 -5 22 -13 20 -28 -2 -17 -11 -22 -45 -24 -40 -3
-43 -1 -43 21 0 37 16 44 68 31z"/>
</g>
<g>
<path d="M2765 140 c-8 -14 3 -30 21 -30 8 0 14 9 14 20 0 21 -24 28 -35 10z"/>
</g>
</g>
</svg>
