<?xml version="1.0" standalone="no"?>
<!DOCTYPE svg PUBLIC "-//W3C//DTD SVG 20010904//EN"
 "http://www.w3.org/TR/2001/REC-SVG-20010904/DTD/svg10.dtd">
<svg version="1.0" xmlns="http://www.w3.org/2000/svg"
 width="300.000000pt" height="518.000000pt" viewBox="0 0 300.000000 518.000000"
 preserveAspectRatio="xMidYMid meet">
<metadata>
Created by potrace 1.15, written by Peter Selinger 2001-2017
</metadata>
<g transform="translate(0.000000,518.000000) scale(0.100000,-0.100000)"
fill="#000000" stroke="none">
<g>
<path d="M0 2590 l1 -2590 21 0 c20 0 21 3 15 110 -4 81 -2 110 6 111 182 10
292 40 327 89 17 24 29 29 87 34 177 18 257 43 296 92 10 13 26 24 34 24 17 0
80 44 99 69 6 7 27 15 47 16 20 1 42 7 49 12 7 5 45 22 83 37 39 15 78 35 89
44 16 15 47 17 237 17 120 0 219 -3 219 -7 0 -4 -13 -14 -29 -23 -17 -8 -42
-30 -56 -49 -18 -24 -49 -44 -100 -65 -89 -37 -139 -40 -173 -8 -20 19 -38 23
-130 28 -87 5 -110 3 -125 -9 -9 -8 -20 -12 -23 -9 -10 10 -44 -12 -44 -28 0
-7 16 -23 35 -35 36 -22 37 -26 18 -76 -2 -5 4 -17 14 -26 14 -12 46 -17 139
-20 86 -2 126 -7 138 -17 14 -12 21 -12 38 -2 14 9 28 9 51 2 35 -10 147 -9
188 3 17 5 45 2 75 -9 35 -12 62 -14 103 -8 31 4 70 6 86 5 37 -4 91 18 125
50 71 67 91 76 178 80 75 3 85 6 102 28 11 14 20 19 20 12 0 -9 13 -12 47 -10
41 3 49 7 67 39 45 78 103 130 154 138 23 4 37 12 37 21 0 8 11 17 25 18 14 2
30 8 35 12 6 5 20 9 30 9 57 -1 109 11 154 34 27 14 51 24 53 21 9 -8 158 -12
158 -4 0 5 -6 11 -12 13 -10 4 -10 6 0 6 7 1 12 16 12 41 0 34 -4 41 -25 46
-32 8 -66 -3 -46 -15 10 -7 8 -10 -8 -16 -29 -9 -21 -29 12 -33 47 -6 29 -22
-24 -22 -45 0 -50 2 -44 18 14 32 22 78 19 100 -3 14 1 22 11 22 8 0 14 -5 12
-11 -1 -6 16 -12 41 -13 48 -3 54 5 15 21 l-28 11 33 7 c30 7 32 10 32 51 0
34 -4 44 -20 49 -10 3 -27 2 -37 -3 -10 -6 -31 -11 -48 -13 -16 -2 -36 -7 -42
-12 -9 -7 -14 2 -19 33 -9 54 -63 115 -94 105 -13 -4 -29 1 -46 14 -15 12 -39
21 -54 21 -15 0 -41 7 -56 16 -29 16 -28 16 29 10 47 -4 58 -2 53 9 -2 7 2 16
10 19 26 10 34 7 27 -11 -5 -13 -3 -15 13 -8 22 9 33 9 99 -3 75 -14 77 -2 4
21 -35 11 -59 22 -52 24 6 2 34 -2 61 -11 28 -8 54 -10 58 -6 5 5 34 10 64 12
51 3 53 4 30 15 -24 11 -25 12 -2 12 12 1 22 7 22 15 0 17 -73 12 -134 -9 -25
-9 -46 -11 -56 -5 -10 5 -32 5 -53 0 -21 -6 -52 -14 -69 -18 -18 -5 -50 -7
-70 -4 -35 4 -38 7 -38 36 0 17 9 94 20 171 11 77 24 176 30 220 6 44 15 88
20 97 5 10 7 24 4 31 -7 18 72 33 91 17 9 -8 15 -8 20 0 3 5 18 9 33 9 l27 -1
-29 -7 c-16 -3 -31 -12 -34 -18 -6 -20 53 -16 93 7 24 13 54 20 90 20 44 0 55
3 55 16 0 15 -16 16 -170 10 l-170 -7 0 28 c0 15 3 44 6 65 6 33 9 37 48 42
23 4 53 2 67 -3 13 -5 17 -10 9 -10 -31 -2 -90 -22 -90 -31 0 -13 37 -13 62 1
14 8 32 8 64 0 54 -14 127 -4 120 15 -4 10 3 14 24 14 60 0 28 18 -42 24 -40
4 -89 8 -108 11 -19 2 -61 5 -92 7 l-58 3 5 30 c4 25 18 131 52 385 9 75 12
76 114 83 51 3 95 10 98 15 3 5 14 12 24 15 33 12 12 32 -39 37 -34 4 -44 7
-31 13 10 4 31 7 47 7 51 0 60 9 60 57 l0 44 -115 -3 c-63 -2 -115 0 -115 5 0
7 35 9 173 10 l57 0 0 35 0 35 -116 -7 c-76 -4 -113 -3 -109 4 4 6 53 10 116
10 l109 0 0 155 0 155 -80 0 c-44 0 -80 4 -80 9 0 5 35 7 80 4 l80 -6 0 82 c0
45 -4 80 -9 77 -9 -6 -41 0 -161 28 -54 13 -259 56 -267 56 -11 0 0 42 12 46
18 7 340 -59 390 -80 l35 -15 0 940 0 939 -1500 0 -1500 0 0 -2590z m1757
2574 c-3 -3 -12 -4 -19 -1 -8 3 -5 6 6 6 11 1 17 -2 13 -5z m-204 -73 c26 -1
47 -5 47 -11 0 -5 -10 -10 -22 -10 -24 0 -58 -27 -58 -46 0 -18 51 -56 67 -50
7 3 13 1 13 -4 0 -6 -19 -10 -42 -10 -24 -1 -67 -2 -95 -4 -59 -4 -69 5 -21
19 42 13 53 46 27 79 -11 15 -25 24 -30 20 -14 -8 -50 6 -43 17 3 5 29 8 57 5
29 -3 73 -5 100 -5z m340 -970 c24 -9 25 -15 27 -88 1 -43 3 -105 3 -138 l2
-60 -43 -9 c-55 -12 -64 0 -56 74 10 97 13 105 45 117 34 13 31 38 -3 30 -31
-9 -48 3 -48 32 0 46 25 60 73 42z m-312 -68 c5 -5 4 -22 -3 -40 -17 -46 -65
-54 -95 -16 -28 34 -29 49 -5 63 19 11 89 7 103 -7z m897 -5 c32 -32 1 -88
-49 -88 -35 0 -44 17 -35 65 6 31 10 35 39 35 18 0 38 -5 45 -12z m-1638 -50
c26 -28 26 -58 1 -58 -11 0 -21 -6 -24 -12 -3 -10 -11 -9 -33 3 -33 17 -36 55
-7 77 24 17 39 15 63 -10z m218 -24 c19 -6 23 -12 20 -42 -3 -30 -8 -37 -32
-43 -31 -9 -61 5 -50 23 4 6 1 14 -7 19 -11 6 -10 12 5 28 20 22 28 24 64 15z
m234 -21 c33 -29 20 -62 -29 -77 -19 -6 -25 -2 -36 26 -8 18 -12 41 -9 51 6
22 49 23 74 0z m219 -13 c18 0 20 -6 17 -62 l-3 -63 -43 -3 -44 -3 7 43 c13
91 16 100 32 94 8 -3 23 -6 34 -6z m985 -45 c3 -25 7 -68 8 -97 l1 -52 -45 -8
c-70 -12 -74 -9 -66 75 10 104 15 119 36 112 10 -3 21 -1 25 5 15 24 34 8 41
-35z m-1660 -64 c3 -74 -2 -82 -51 -73 -18 3 -20 9 -15 69 4 54 8 67 23 69 11
1 21 5 25 8 11 11 14 -3 18 -73z m249 5 c22 -47 25 -131 5 -131 -10 0 -15 10
-15 30 0 28 -3 30 -38 33 -38 3 -38 3 -35 45 3 40 13 49 60 56 4 1 14 -14 23
-33z m225 -4 c0 -4 -13 -13 -29 -19 -25 -9 -30 -17 -33 -49 -2 -27 -8 -39 -18
-39 -11 0 -14 10 -12 40 5 69 9 75 53 75 21 0 39 -4 39 -8z m-752 -24 c17 -17
15 -63 -3 -78 -16 -14 -21 -66 -6 -72 6 -1 12 -29 15 -60 4 -49 2 -58 -12 -58
-9 0 -34 -3 -56 -7 l-38 -6 3 69 c4 64 6 69 29 74 14 3 26 13 28 24 3 15 0 18
-19 13 -13 -3 -29 -1 -36 5 -14 11 -17 66 -5 84 16 24 80 32 100 12z m1547 -3
c0 -9 -368 -63 -437 -64 -23 -1 -28 3 -28 24 0 14 6 25 13 26 6 0 51 3 99 5
48 3 114 9 145 13 76 12 208 9 208 -4z m-533 -20 c31 0 38 -4 43 -24 3 -13 3
-26 0 -29 -7 -7 -185 -4 -272 4 -57 6 -63 8 -63 29 0 13 6 26 13 29 6 3 64 2
127 -2 63 -4 132 -7 152 -7z m1146 -56 c-3 -21 -10 -25 -68 -32 -68 -9 -82
-12 -292 -70 -143 -40 -168 -39 -168 4 0 23 4 29 21 29 12 0 38 4 58 10 226
60 431 101 444 90 5 -4 7 -18 5 -31z m-1670 -6 c3 -22 1 -23 -83 -23 -77 0
-86 2 -83 18 2 13 13 17 45 17 23 0 45 4 49 8 5 4 22 7 39 5 22 -2 31 -9 33
-25z m-318 -8 c0 -29 -5 -32 -82 -38 l-58 -6 0 29 c0 31 10 34 103 38 33 2 37
0 37 -23z m88 19 c12 -4 22 -14 22 -25 0 -24 -9 -28 -47 -22 -23 4 -33 11 -33
22 0 30 14 36 58 25z m1128 -34 c-1 -45 -28 -65 -49 -36 -7 10 -28 17 -50 18
-41 1 -50 8 -41 32 6 15 34 21 105 24 36 2 36 2 35 -38z m-636 1 c0 -5 -8 -19
-18 -31 -16 -19 -32 -23 -142 -31 -69 -4 -152 -11 -186 -15 -61 -6 -61 -6 -66
21 -3 15 -1 28 6 30 6 2 63 7 126 10 63 4 144 10 180 14 97 12 100 12 100 2z
m176 -1 c22 0 37 -6 41 -16 10 -27 -12 -37 -66 -29 -39 5 -51 11 -51 24 0 23
11 33 28 26 7 -3 29 -5 48 -5z m1386 -27 c43 -49 28 -113 -26 -113 -66 0 -95
51 -60 105 19 30 63 33 86 8z m-2012 -37 c0 -13 3 -31 6 -40 4 -11 0 -16 -14
-16 -11 0 -22 6 -25 13 -2 6 -19 12 -38 12 -30 0 -34 3 -37 28 -3 27 -2 27 52
27 53 0 56 -2 56 -24z m515 4 c-19 -21 -102 -30 -90 -10 3 6 15 10 26 10 10 0
19 5 19 10 0 6 14 10 32 10 30 0 31 0 13 -20z m175 5 c0 -8 -4 -15 -10 -15 -5
0 -10 7 -10 15 0 8 5 15 10 15 6 0 10 -7 10 -15z m297 -7 c-21 -7 -32 -7 -40
1 -8 8 0 11 29 10 39 -1 39 -1 11 -11z m-338 -14 c2 -2 -21 -4 -52 -4 -31 0
-57 4 -57 10 0 8 99 3 109 -6z m1011 -19 c0 -24 -5 -35 -14 -35 -8 0 -23 -3
-33 -6 -13 -4 -15 -3 -4 4 20 14 -2 23 -38 16 -44 -9 -49 -24 -9 -25 l33 -1
-30 -9 c-38 -11 -52 2 -39 38 10 28 56 51 107 52 24 1 27 -2 27 -34z m-591
-67 c1 -51 -3 -201 -9 -333 -5 -132 -14 -350 -20 -485 -5 -135 -14 -306 -20
-380 -23 -315 -34 -502 -45 -735 -11 -239 -26 -490 -31 -504 -12 -38 -12 21 2
315 8 175 19 438 24 584 5 146 14 373 19 505 9 226 14 355 26 775 9 284 14
338 33 343 10 3 18 5 18 6 1 0 2 -41 3 -91z m-680 78 c-11 -9 -99 -15 -99 -6
0 6 23 10 52 10 28 0 49 -2 47 -4z m-129 -26 c0 -16 -9 -21 -50 -26 -61 -8
-71 -34 -13 -34 52 0 37 -8 -21 -11 l-50 -3 -1 47 -1 47 68 0 c61 0 68 -2 68
-20z m740 -62 c0 -46 -4 -204 -10 -353 -5 -148 -12 -367 -15 -485 -3 -118 -8
-240 -11 -270 -4 -53 -18 -375 -30 -695 -2 -82 -9 -213 -14 -290 -6 -77 -11
-186 -11 -242 -2 -102 -11 -145 -24 -110 -4 9 -2 130 5 269 6 139 15 422 20
628 5 206 12 404 14 440 3 36 10 268 16 515 6 248 13 501 16 563 5 101 8 112
25 112 17 0 19 -8 19 -82z m-397 -853 c-1 -506 -4 -967 -6 -1025 -2 -58 -5
-190 -6 -294 0 -104 -3 -187 -5 -185 -3 3 -6 461 -8 1019 -1 558 -5 1101 -8
1205 -3 105 -4 194 -2 198 2 4 11 7 20 5 16 -3 17 -74 15 -923z m57 433 c0
-495 -14 -1325 -29 -1708 -5 -131 -8 227 -7 990 1 784 4 1198 11 1202 6 4 13
8 18 8 4 0 7 -222 7 -492z m-200 453 c0 -36 -2 -37 -65 -45 -44 -6 -47 -5 -25
6 l25 12 -28 4 c-44 6 -31 36 18 43 74 11 75 11 75 -20z m852 -61 c111 0 198
-3 195 -6 -4 -4 -98 -8 -209 -10 l-203 -3 5 47 c4 46 5 46 8 10 l3 -38 201 0z
m-1889 48 c29 -14 37 -48 12 -48 -10 0 -15 -10 -15 -30 0 -24 -6 -33 -27 -41
-22 -8 -28 -7 -36 7 -5 9 -18 23 -28 32 -26 23 -24 47 7 71 31 24 49 26 87 9z
m455 -59 c-7 -5 -31 -9 -53 -9 -22 0 -58 -5 -80 -10 -22 -5 -83 -13 -135 -19
-52 -6 -112 -14 -132 -17 -36 -6 -38 -5 -38 18 0 21 7 27 43 37 63 16 165 31
227 32 30 0 82 6 115 13 l60 13 3 -25 c2 -14 -2 -29 -10 -33z m66 19 c10 -82
43 -1414 50 -2018 2 -241 1 -370 -4 -330 -5 36 -14 287 -19 558 -6 272 -13
497 -15 500 -2 4 -7 108 -10 232 -4 124 -9 259 -11 300 -2 41 -9 221 -15 400
-6 179 -12 340 -13 357 -3 29 4 40 25 42 4 1 9 -18 12 -41z m56 -90 c1 -73 5
-272 10 -443 14 -454 21 -1247 11 -1200 -5 22 -12 222 -16 445 -4 223 -9 428
-10 455 -6 115 -16 465 -20 663 -4 181 -2 212 10 212 12 0 15 -23 15 -132z
m1989 116 c5 -5 1 -145 -4 -154 -3 -4 -27 -3 -55 3 -58 11 -56 3 -24 114 14
52 15 52 47 46 17 -3 34 -7 36 -9z m-349 -51 c0 -137 -43 -945 -65 -1228 -8
-104 -24 -320 -35 -480 -12 -159 -25 -337 -30 -395 l-9 -105 5 130 c8 228 33
784 44 970 10 171 34 695 46 1000 6 158 8 165 29 165 12 0 15 -12 15 -57z
m180 48 c39 -8 34 -9 -42 -10 -53 0 -88 3 -88 9 0 12 66 12 130 1z m70 5 c0
-3 -4 -8 -10 -11 -5 -3 -10 -1 -10 4 0 6 5 11 10 11 6 0 10 -2 10 -4z m-567
-13 c-35 -2 -91 -2 -125 0 -35 2 -7 3 62 3 69 0 97 -1 63 -3z m249 -140 c-6
-294 -63 -1512 -81 -1733 -6 -63 -16 -215 -22 -337 -7 -122 -16 -220 -20 -217
-5 3 -6 10 -4 17 2 7 9 201 15 432 6 231 13 431 16 443 3 15 1 21 -6 17 -5 -3
-10 -39 -10 -80 l0 -73 -52 -4 c-29 -3 -56 -3 -60 -1 -5 2 -8 22 -8 44 l0 39
57 -6 c72 -9 65 11 -7 21 l-50 7 5 36 c14 109 26 225 40 377 9 94 18 175 20
182 3 9 13 9 39 1 42 -13 47 -28 11 -28 -14 0 -25 -4 -25 -10 0 -5 12 -10 26
-10 l27 0 -7 -222 c-4 -123 -5 -221 -3 -218 3 3 10 118 16 255 6 138 16 333
21 435 5 102 12 257 15 345 3 88 8 217 11 288 6 105 4 127 -7 127 -20 0 11 20
31 20 13 0 15 -22 12 -147z m-1128 101 c18 -46 3 -2330 -15 -2348 -5 -6 -9 85
-10 230 0 131 -2 661 -5 1177 -2 516 -2 942 1 948 9 14 22 11 29 -7z m1349 9
c-7 -2 -21 -2 -30 0 -10 3 -4 5 12 5 17 0 24 -2 18 -5z m-1549 -155 c13 -330
21 -1121 16 -1668 -6 -654 -16 -580 -25 180 -2 245 -10 709 -17 1033 -10 495
-14 587 -26 587 -12 0 -13 -26 -8 -162 3 -90 9 -298 12 -463 4 -165 8 -313 9
-330 9 -97 16 -1437 8 -1432 -9 6 -17 168 -28 637 -3 107 -7 269 -10 360 -3
91 -10 305 -15 475 -6 171 -14 447 -20 613 -6 167 -8 308 -4 313 3 5 27 9 54
9 l48 0 6 -152z m149 138 c-4 -8 -5 -162 -2 -343 9 -416 8 -1544 0 -1813 l-6
-205 -7 225 c-4 124 -10 513 -13 865 -6 716 -13 1191 -19 1248 -4 35 -3 37 25
37 23 0 28 -3 22 -14z m882 -16 c-3 -5 -15 -10 -26 -10 -10 0 -19 5 -19 10 0
6 12 10 26 10 14 0 23 -4 19 -10z m92 -6 c-3 -3 -12 -4 -19 -1 -8 3 -5 6 6 6
11 1 17 -2 13 -5z m104 -4 c37 -20 16 -90 -27 -90 -57 0 -84 36 -58 76 17 26
51 31 85 14z m382 3 c-7 -2 -19 -2 -25 0 -7 3 -2 5 12 5 14 0 19 -2 13 -5z
m-2123 -33 c0 -11 -4 -20 -10 -20 -5 0 -10 -4 -10 -10 0 -5 7 -10 15 -10 34 0
12 -17 -24 -18 -22 -1 -51 -6 -65 -12 -21 -8 -27 -6 -36 11 -6 11 -10 30 -8
42 3 19 11 23 58 28 30 3 61 6 68 7 6 1 12 -7 12 -18z m1517 4 c-3 -3 -12 -4
-19 -1 -8 3 -5 6 6 6 11 1 17 -2 13 -5z m-1802 -66 c8 -28 14 -52 12 -52 -1
-1 -23 -16 -49 -34 -25 -17 -49 -32 -52 -32 -3 0 -6 36 -6 79 0 87 -5 81 67
90 7 0 19 -22 28 -51z m360 12 c-3 -5 -13 -10 -21 -10 -8 0 -14 5 -14 10 0 6
9 10 21 10 11 0 17 -4 14 -10z m-225 -31 c0 -8 15 -10 48 -6 l47 5 0 -81 c0
-45 3 -113 6 -152 4 -38 10 -124 13 -190 3 -66 8 -145 11 -175 9 -91 35 -590
45 -845 6 -132 12 -269 15 -305 5 -65 25 -457 25 -491 0 -11 -4 -19 -10 -19
-5 0 -10 23 -10 50 0 28 -4 92 -10 143 -5 51 -14 198 -20 327 -12 247 -62
1028 -79 1215 -6 61 -16 197 -22 303 -9 147 -15 192 -25 192 -15 0 -197 -125
-255 -174 -59 -51 -102 -81 -113 -81 -6 0 -12 12 -14 26 -3 22 6 33 45 62 27
19 57 45 68 57 11 12 51 40 90 63 38 23 83 51 98 64 31 25 47 29 47 12z m268
-6 c-21 -2 -57 -2 -80 0 -24 2 -7 4 37 4 44 0 63 -2 43 -4z m1610 -81 l3 -80
-46 -4 c-25 -2 -50 1 -55 6 -10 10 -5 50 16 117 14 44 17 46 47 44 l32 -2 3
-81z m482 23 c24 -8 36 -19 38 -35 5 -32 -9 -41 -49 -33 -32 6 -33 7 -9 13
l25 7 -28 12 c-16 6 -40 11 -54 11 -19 0 -24 4 -19 16 3 9 6 20 6 25 0 10 30
4 90 -16z m-2216 -295 c4 -47 11 -143 16 -215 6 -71 15 -233 20 -360 5 -126
12 -243 15 -260 6 -41 16 -392 11 -380 -3 6 -12 132 -21 280 -17 287 -44 724
-50 790 -2 22 -6 130 -8 240 -5 199 -5 195 17 -95z m374 263 c-16 -2 -40 -2
-55 0 -16 2 -3 4 27 4 30 0 43 -2 28 -4z m199 1 c-3 -3 -12 -4 -19 -1 -8 3 -5
6 6 6 11 1 17 -2 13 -5z m433 -34 c0 -13 -7 -20 -20 -20 -13 0 -20 7 -20 20 0
13 7 20 20 20 13 0 20 -7 20 -20z m1147 14 c-3 -3 -12 -4 -19 -1 -8 3 -5 6 6
6 11 1 17 -2 13 -5z m-1772 -19 c-23 -8 -85 -10 -85 -3 0 4 21 8 48 7 26 0 43
-2 37 -4z m768 -12 c-23 -2 -64 -2 -90 0 -26 2 -7 3 42 3 50 0 71 -1 48 -3z
m1008 -3 c6 0 7 -20 4 -47 -31 -257 -106 -853 -110 -873 -3 -14 -9 -65 -15
-115 -13 -116 -32 -255 -64 -485 -27 -189 -59 -424 -71 -517 -4 -29 -11 -53
-16 -53 -13 0 -11 78 6 214 8 67 20 159 26 206 5 47 14 114 19 150 5 36 19
146 30 245 36 310 80 677 89 750 6 39 15 117 21 175 6 58 18 159 26 225 8 67
14 125 14 129 0 4 7 5 16 2 9 -3 20 -6 25 -6z m-2414 -17 c1 -10 4 -29 7 -43
5 -21 -2 -31 -47 -63 l-52 -37 -7 41 c-4 23 -5 45 -3 49 4 6 95 70 100 70 0 0
1 -8 2 -17z m1806 10 c-18 -2 -48 -2 -65 0 -18 2 -4 4 32 4 36 0 50 -2 33 -4z
m-2045 -10 c-10 -2 -28 -2 -40 0 -13 2 -5 4 17 4 22 1 32 -1 23 -4z m1310 0
c-10 -2 -28 -2 -40 0 -13 2 -5 4 17 4 22 1 32 -1 23 -4z m1402 -17 c0 -14 -4
-58 -9 -98 -5 -40 -17 -134 -26 -208 -23 -192 -52 -408 -80 -605 -13 -93 -31
-224 -40 -290 -9 -66 -20 -145 -26 -175 -9 -50 -73 -495 -86 -598 -9 -66 -24
-62 -17 5 13 129 43 354 64 488 5 33 25 193 44 355 20 162 42 342 51 400 8 58
31 236 50 395 20 160 38 305 41 323 7 38 34 44 34 8z m-1842 7 c-16 -2 -40 -2
-55 0 -16 2 -3 4 27 4 30 0 43 -2 28 -4z m750 0 c-10 -2 -26 -2 -35 0 -10 3
-2 5 17 5 19 0 27 -2 18 -5z m57 -3 c-3 -5 -10 -10 -16 -10 -5 0 -9 5 -9 10 0
6 7 10 16 10 8 0 12 -4 9 -10z m487 -16 c87 -6 127 -21 114 -42 -9 -15 -88
-15 -214 -2 -136 15 -142 17 -142 41 0 20 4 21 78 15 42 -3 116 -8 164 -12z
m-842 -4 c0 -5 -13 -10 -29 -10 -17 0 -33 5 -36 10 -4 6 8 10 29 10 20 0 36
-4 36 -10z m-440 -10 c0 -5 -21 -9 -47 -8 l-48 1 45 7 c25 4 46 8 48 8 1 1 2
-2 2 -8z m673 3 c-7 -2 -21 -2 -30 0 -10 3 -4 5 12 5 17 0 24 -2 18 -5z m887
-17 c0 -3 -4 -8 -10 -11 -5 -3 -10 -1 -10 4 0 6 5 11 10 11 6 0 10 -2 10 -4z
m140 -6 c0 -5 -22 -7 -52 -3 -72 8 -73 13 -5 13 32 0 57 -4 57 -10z m-917 -17
c-7 -2 -19 -2 -25 0 -7 3 -2 5 12 5 14 0 19 -2 13 -5z m386 -9 c2 -2 -28 -4
-67 -4 -44 0 -72 -4 -72 -11 0 -19 -55 -5 -58 15 -4 17 2 18 95 11 54 -4 100
-9 102 -11z m-1181 -1 c-16 -2 -40 -2 -55 0 -16 2 -3 4 27 4 30 0 43 -2 28 -4z
m230 0 c-10 -2 -26 -2 -35 0 -10 3 -2 5 17 5 19 0 27 -2 18 -5z m1385 0 c-7
-2 -19 -2 -25 0 -7 3 -2 5 12 5 14 0 19 -2 13 -5z m-2234 -10 c-1 -19 -124
-103 -148 -103 l-26 1 30 14 c17 7 53 32 80 54 50 40 66 48 64 34z m1281 -3
c0 -5 -4 -10 -10 -10 -5 0 -10 5 -10 10 0 6 5 10 10 10 6 0 10 -4 10 -10z
m635 0 c14 -6 7 -8 -27 -7 -27 1 -48 5 -48 9 0 10 49 9 75 -2z m732 4 c-3 -3
-12 -4 -19 -1 -8 3 -5 6 6 6 11 1 17 -2 13 -5z m-1794 -21 c-7 -2 -21 -2 -30
0 -10 3 -4 5 12 5 17 0 24 -2 18 -5z m1414 1 c-3 -3 -12 -4 -19 -1 -8 3 -5 6
6 6 11 1 17 -2 13 -5z m-324 -14 c24 0 27 -4 27 -35 0 -34 -1 -35 -39 -35 -22
0 -45 -2 -53 -5 -7 -3 -22 1 -32 8 -14 11 -17 20 -11 46 7 32 9 33 44 27 20
-3 48 -6 64 -6z m704 4 c-3 -3 -12 -4 -19 -1 -8 3 -5 6 6 6 11 1 17 -2 13 -5z
m-2643 -46 c3 -24 10 -128 16 -233 6 -104 17 -271 25 -370 8 -99 22 -319 30
-490 9 -170 20 -382 25 -470 11 -182 12 -241 5 -233 -6 5 -28 300 -40 508 -3
63 -8 131 -11 150 -4 35 -40 488 -69 875 -9 116 -17 218 -20 228 -4 22 14 77
25 77 5 0 11 -19 14 -42z m2244 25 c-16 -2 -40 -2 -55 0 -16 2 -3 4 27 4 30 0
43 -2 28 -4z m-2385 -10 c-7 -2 -19 -2 -25 0 -7 3 -2 5 12 5 14 0 19 -2 13 -5z
m235 -10 c-10 -2 -28 -2 -40 0 -13 2 -5 4 17 4 22 1 32 -1 23 -4z m-128 -318
c11 -143 25 -298 30 -345 9 -79 24 -300 50 -725 6 -93 18 -257 26 -364 9 -115
12 -197 6 -203 -5 -5 -14 51 -21 139 -12 147 -31 371 -51 593 -5 63 -16 203
-25 310 -8 107 -20 238 -25 290 -6 52 -20 209 -31 349 -18 212 -19 255 -8 262
21 13 26 -17 49 -306z m-167 288 c-13 -2 -33 -2 -45 0 -13 2 -3 4 22 4 25 0
35 -2 23 -4z m336 3 c-9 -8 -99 -13 -99 -5 0 5 23 9 52 9 28 0 49 -2 47 -4z
m-261 -33 c-10 -2 -28 -2 -40 0 -13 2 -5 4 17 4 22 1 32 -1 23 -4z m1996 -2
c3 -5 2 -55 -4 -112 -5 -57 -14 -165 -20 -239 -22 -266 -74 -794 -120 -1205
-6 -49 -13 -125 -17 -167 -4 -53 -10 -78 -19 -78 -9 0 -11 14 -8 52 3 29 14
152 25 273 10 121 26 308 35 415 8 107 18 230 22 273 5 42 5 82 2 88 -4 5 -13
-51 -20 -125 -13 -149 -18 -157 -76 -136 -57 22 -134 63 -134 71 0 40 32 517
35 527 7 19 36 15 33 -5 -3 -16 6 -18 91 -16 l94 2 -6 -52 c-13 -111 -19 -242
-12 -235 5 5 12 52 16 105 14 178 39 467 45 521 6 49 23 68 38 43z m-1739 -6
c-26 -9 -105 -12 -105 -4 0 5 26 9 58 8 31 0 53 -2 47 -4z m208 -2 c-13 -2
-35 -2 -50 0 -16 2 -5 4 22 4 28 0 40 -2 28 -4z m1597 -12 c0 -35 -39 -453
-55 -586 -9 -71 -20 -173 -25 -225 -6 -52 -14 -133 -19 -180 -6 -47 -15 -130
-21 -185 -5 -55 -17 -149 -25 -210 -8 -60 -19 -159 -25 -220 -13 -140 -20
-176 -31 -169 -5 2 -6 24 -4 47 3 23 9 96 15 162 6 66 20 203 30 305 11 102
24 250 30 330 6 80 17 201 25 270 8 69 24 240 36 380 11 140 23 265 25 278 6
28 44 31 44 3z m-654 -8 c0 -10 9 -20 24 -24 16 -4 2 -7 -40 -7 -36 1 -53 3
-37 5 30 5 37 23 10 24 -15 0 -15 2 2 9 31 13 43 11 41 -7z m-1389 -10 c-12
-12 -204 -15 -212 -4 -4 8 29 11 106 11 62 0 109 -3 106 -7z m253 -3 c0 -6
-27 -9 -62 -9 -54 1 -58 3 -28 9 53 11 90 11 90 0z m155 0 c-3 -5 -10 -10 -16
-10 -5 0 -9 5 -9 10 0 6 7 10 16 10 8 0 12 -4 9 -10z m742 4 c-3 -3 -12 -4
-19 -1 -8 3 -5 6 6 6 11 1 17 -2 13 -5z m-647 -34 c-8 -5 -35 -9 -60 -9 -41 1
-42 2 -15 9 17 4 44 8 60 9 23 0 26 -2 15 -9z m1348 -1 c-11 -6 -40 -6 -80 0
l-63 9 80 0 c57 1 75 -1 63 -9z m-1849 -3 c-8 -8 -164 -12 -189 -5 -14 4 22 7
84 8 60 1 107 -1 105 -3z m201 -6 c0 -5 -11 -10 -25 -10 -14 0 -25 5 -25 10 0
6 11 10 25 10 14 0 25 -4 25 -10z m976 1 c-5 -8 -56 -3 -56 5 0 2 14 4 31 4
16 0 28 -4 25 -9z m-448 -8 c-10 -2 -26 -2 -35 0 -10 3 -2 5 17 5 19 0 27 -2
18 -5z m723 -14 c-43 -5 -87 -5 -105 0 -23 7 -4 9 74 9 l105 -1 -74 -8z m-988
-6 c-13 -2 -33 -2 -45 0 -13 2 -3 4 22 4 25 0 35 -2 23 -4z m1432 -3 c4 -6 -9
-10 -32 -9 -34 1 -35 2 -13 9 35 11 38 11 45 0z m180 0 c3 -5 1 -10 -4 -10 -6
0 -11 5 -11 10 0 6 2 10 4 10 3 0 8 -4 11 -10z m-2260 -10 c-3 -5 -13 -10 -21
-10 -8 0 -14 5 -14 10 0 6 9 10 21 10 11 0 17 -4 14 -10z m152 3 c-20 -2 -52
-2 -70 0 -17 2 0 4 38 4 39 0 53 -2 32 -4z m271 0 c-10 -2 -28 -2 -40 0 -13 2
-5 4 17 4 22 1 32 -1 23 -4z m499 1 c-3 -3 -12 -4 -19 -1 -8 3 -5 6 6 6 11 1
17 -2 13 -5z m222 -10 c2 -2 -12 -4 -32 -4 -20 0 -37 4 -37 10 0 8 58 3 69 -6z
m1744 9 c-13 -2 -33 -2 -45 0 -13 2 -3 4 22 4 25 0 35 -2 23 -4z m-1550 -20
c-7 -2 -19 -2 -25 0 -7 3 -2 5 12 5 14 0 19 -2 13 -5z m350 0 c-13 -2 -33 -2
-45 0 -13 2 -3 4 22 4 25 0 35 -2 23 -4z m865 0 c-21 -2 -55 -2 -75 0 -21 2
-4 4 37 4 41 0 58 -2 38 -4z m-1895 -10 c-13 -2 -35 -2 -50 0 -16 2 -5 4 22 4
28 0 40 -2 28 -4z m1395 0 c-21 -2 -55 -2 -75 0 -21 2 -4 4 37 4 41 0 58 -2
38 -4z m-1915 -10 c-29 -2 -78 -2 -110 0 -32 2 -8 3 52 3 61 0 87 -1 58 -3z
m1007 -3 c0 -5 -7 -7 -15 -4 -8 4 -15 8 -15 10 0 2 7 4 15 4 8 0 15 -4 15 -10z
m1133 3 c-7 -2 -19 -2 -25 0 -7 3 -2 5 12 5 14 0 19 -2 13 -5z m-553 -23 c0
-11 -5 -20 -11 -20 -6 0 -9 6 -6 14 4 9 -1 17 -11 19 -12 3 -11 5 6 6 16 1 22
-5 22 -19z m845 10 c4 -6 -18 -10 -59 -10 -36 0 -68 5 -71 10 -4 6 18 10 59
10 36 0 68 -4 71 -10z m-1626 -25 c-9 -8 -104 -8 -102 0 3 12 97 23 102 12 1
-5 1 -10 0 -12z m1094 18 c-18 -2 -48 -2 -65 0 -18 2 -4 4 32 4 36 0 50 -2 33
-4z m-938 -13 c3 -5 -1 -10 -10 -10 -9 0 -13 5 -10 10 3 6 8 10 10 10 2 0 7
-4 10 -10z m435 1 c0 -12 -29 -23 -41 -15 -5 3 -7 10 -4 15 8 12 45 12 45 0z
m747 3 c-3 -3 -12 -4 -19 -1 -8 3 -5 6 6 6 11 1 17 -2 13 -5z m-2144 -11 c-29
-2 -78 -2 -110 0 -32 2 -8 3 52 3 61 0 87 -1 58 -3z m1004 1 c-3 -3 -12 -4
-19 -1 -8 3 -5 6 6 6 11 1 17 -2 13 -5z m1753 0 c-37 -8 -180 -10 -180 -2 0 4
44 7 98 7 53 -1 90 -3 82 -5z m-873 -10 c-3 -3 -12 -4 -19 -1 -8 3 -5 6 6 6
11 1 17 -2 13 -5z m541 -1 c-15 -2 -42 -2 -60 0 -18 2 -6 4 27 4 33 0 48 -2
33 -4z m-296 -33 c28 0 18 -10 -16 -16 -20 -3 -26 0 -26 14 0 25 14 38 18 18
2 -9 13 -16 24 -16z m-1379 13 c-7 -2 -21 -2 -30 0 -10 3 -4 5 12 5 17 0 24
-2 18 -5z m44 1 c-3 -3 -12 -4 -19 -1 -8 3 -5 6 6 6 11 1 17 -2 13 -5z m213
-6 c0 -4 -13 -8 -30 -8 -16 0 -30 4 -30 8 0 5 14 9 30 9 17 0 30 -4 30 -9z
m220 -3 c0 -11 -11 -15 -40 -15 -29 0 -40 4 -40 15 0 11 11 15 40 15 29 0 40
-4 40 -15z m265 5 c3 -5 -1 -10 -10 -10 -9 0 -13 5 -10 10 3 6 8 10 10 10 2 0
7 -4 10 -10z m50 0 c3 -5 -1 -10 -10 -10 -9 0 -13 5 -10 10 3 6 8 10 10 10 2
0 7 -4 10 -10z m-1542 -7 c-29 -2 -78 -2 -110 0 -32 2 -8 3 52 3 61 0 87 -1
58 -3z m1932 -3 c4 -6 -8 -10 -30 -10 -22 0 -34 4 -30 10 3 6 17 10 30 10 13
0 27 -4 30 -10z m423 3 c-10 -2 -26 -2 -35 0 -10 3 -2 5 17 5 19 0 27 -2 18
-5z m-564 -18 c-4 -9 -19 -15 -35 -15 -19 0 -29 5 -29 15 0 10 11 15 35 15 26
0 33 -3 29 -15z m-984 -5 c0 -5 -11 -10 -24 -10 -14 0 -28 5 -31 10 -4 6 7 10
24 10 17 0 31 -4 31 -10z m-817 -7 c-7 -2 -21 -2 -30 0 -10 3 -4 5 12 5 17 0
24 -2 18 -5z m1444 1 c-3 -3 -12 -4 -19 -1 -8 3 -5 6 6 6 11 1 17 -2 13 -5z
m86 -1 c-13 -2 -33 -2 -45 0 -13 2 -3 4 22 4 25 0 35 -2 23 -4z m1222 -3 c-16
-4 -55 -8 -85 -8 -49 1 -51 1 -20 8 19 4 58 7 85 8 42 0 45 -2 20 -8z m-2872
-7 c-31 -6 -29 -23 2 -23 23 0 24 -1 9 -19 -24 -27 -54 -16 -54 20 0 26 3 29
33 28 23 -1 26 -3 10 -6z m717 -58 l0 -65 -75 0 -75 0 0 65 0 65 75 0 75 0 0
-65z m1808 58 c-15 -2 -42 -2 -60 0 -18 2 -6 4 27 4 33 0 48 -2 33 -4z m-1622
-13 c34 0 34 0 34 -45 l0 -45 -49 0 -49 0 -4 38 c-6 46 0 65 19 58 8 -3 30 -6
49 -6z m-451 -75 c4 -35 4 -68 0 -74 -3 -6 -33 -11 -65 -11 l-58 0 -4 73 c-2
39 -3 74 -2 77 1 3 29 3 62 2 l61 -4 6 -63z m655 65 c0 -5 -7 -10 -15 -10 -8
0 -15 5 -15 10 0 6 7 10 15 10 8 0 15 -4 15 -10z m593 3 c-7 -2 -21 -2 -30 0
-10 3 -4 5 12 5 17 0 24 -2 18 -5z m340 0 c-18 -2 -48 -2 -65 0 -18 2 -4 4 32
4 36 0 50 -2 33 -4z m842 -3 c-11 -5 -31 -9 -45 -9 -23 0 -23 1 -5 9 11 5 31
9 45 9 23 0 23 -1 5 -9z m-2752 -7 c-13 -2 -35 -2 -50 0 -16 2 -5 4 22 4 28 0
40 -2 28 -4z m1011 -8 c7 -20 -42 -41 -58 -25 -7 7 -1 10 18 10 21 0 27 4 22
15 -3 8 -1 15 3 15 5 0 12 -7 15 -15z m464 8 c-10 -2 -28 -2 -40 0 -13 2 -5 4
17 4 22 1 32 -1 23 -4z m900 0 c-15 -2 -42 -2 -60 0 -18 2 -6 4 27 4 33 0 48
-2 33 -4z m268 -8 c-11 -8 -28 -13 -37 -10 -11 4 -22 -1 -28 -12 -9 -16 -10
-14 -11 10 0 26 2 27 48 27 44 -1 46 -2 28 -15z m-1416 -15 c0 -5 -10 -10 -22
-10 -19 0 -20 2 -8 10 19 13 30 13 30 0z m350 0 c0 -5 -17 -9 -37 -9 l-38 2
35 7 c19 4 36 8 38 9 1 0 2 -3 2 -9z m237 4 c-3 -3 -12 -4 -19 -1 -8 3 -5 6 6
6 11 1 17 -2 13 -5z m101 -1 c-10 -2 -26 -2 -35 0 -10 3 -2 5 17 5 19 0 27 -2
18 -5z m-1965 -10 c-13 -2 -33 -2 -45 0 -13 2 -3 4 22 4 25 0 35 -2 23 -4z
m117 -13 c0 -13 -7 -20 -20 -20 -13 0 -20 7 -20 20 0 13 7 20 20 20 13 0 20
-7 20 -20z m1377 7 c3 -4 -4 -7 -16 -7 -12 0 -32 -7 -45 -16 -26 -16 -42 -5
-32 22 4 11 17 14 46 11 22 -2 43 -6 47 -10z m680 7 c-3 -3 -12 -4 -19 -1 -8
3 -5 6 6 6 11 1 17 -2 13 -5z m293 -4 c0 -5 -11 -10 -24 -10 -14 0 -28 5 -31
10 -4 6 7 10 24 10 17 0 31 -4 31 -10z m-1190 -45 c0 -20 -5 -25 -22 -24 -17
1 -19 2 -5 6 9 2 17 13 17 24 0 10 2 19 5 19 3 0 5 -11 5 -25z m345 -134 c-4
-86 -9 -169 -10 -186 -2 -16 -3 -67 -4 -113 -1 -57 -5 -84 -13 -86 -7 -2 -44
-14 -82 -25 -43 -14 -80 -19 -98 -16 l-28 7 2 251 3 252 75 2 c113 3 108 2 86
18 -18 14 -17 15 22 15 23 0 42 5 42 10 0 6 -16 10 -36 10 -19 0 -33 4 -30 8
2 4 21 8 42 8 l37 0 -8 -155z m-1620 139 c-3 -5 -33 -10 -66 -10 -33 0 -59 4
-59 10 0 6 29 10 66 10 41 0 63 -4 59 -10z m2432 3 c-20 -2 -52 -2 -70 0 -17
2 0 4 38 4 39 0 53 -2 32 -4z m266 -20 c-7 -2 -21 -2 -30 0 -10 3 -4 5 12 5
17 0 24 -2 18 -5z m-2583 -13 c0 -5 -18 -10 -41 -10 -24 0 -38 4 -34 10 3 6
22 10 41 10 19 0 34 -4 34 -10z m693 3 c-7 -2 -21 -2 -30 0 -10 3 -4 5 12 5
17 0 24 -2 18 -5z m670 0 c-7 -2 -19 -2 -25 0 -7 3 -2 5 12 5 14 0 19 -2 13
-5z m871 -8 c-5 -12 4 -15 49 -15 31 0 58 -3 60 -7 2 -5 -6 -89 -18 -188 -13
-99 -26 -210 -30 -248 -7 -72 -17 -84 -89 -101 l-29 -7 6 113 c14 286 31 468
44 468 7 0 10 -7 7 -15z m-1284 -153 l0 -138 -34 4 -34 4 -4 126 c-2 70 -3
130 -1 135 3 4 20 7 39 7 l34 0 0 -138z m210 -115 l0 -252 -37 -12 c-21 -6
-41 -9 -45 -7 -10 6 -10 155 -1 367 l6 157 39 0 38 0 0 -253z m-412 115 c2
-86 -1 -122 -9 -122 -6 0 -9 7 -6 14 5 12 -5 16 -41 18 l-47 3 -3 88 -3 87 36
0 c44 0 47 20 3 21 l-33 2 35 7 c66 14 65 17 68 -118z m-871 92 c-3 -3 -12 -4
-19 -1 -8 3 -5 6 6 6 11 1 17 -2 13 -5z m111 -1 c-16 -2 -40 -2 -55 0 -16 2
-3 4 27 4 30 0 43 -2 28 -4z m230 0 c-16 -2 -40 -2 -55 0 -16 2 -3 4 27 4 30
0 43 -2 28 -4z m182 3 c0 -3 -4 -8 -10 -11 -5 -3 -10 -1 -10 4 0 6 5 11 10 11
6 0 10 -2 10 -4z m-597 -13 c-7 -2 -19 -2 -25 0 -7 3 -2 5 12 5 14 0 19 -2 13
-5z m7 -33 c0 -5 -9 -10 -20 -10 -11 0 -20 5 -20 10 0 6 9 10 20 10 11 0 20
-4 20 -10z m158 3 c-21 -2 -57 -2 -80 0 -24 2 -7 4 37 4 44 0 63 -2 43 -4z
m245 0 c-13 -2 -35 -2 -50 0 -16 2 -5 4 22 4 28 0 40 -2 28 -4z m202 -18 c-29
-13 -27 -13 43 -14 l72 -1 0 -77 c0 -42 -3 -73 -7 -69 -5 4 -9 12 -9 17 -1 5
-2 14 -3 19 0 6 -26 10 -56 10 -50 0 -56 2 -65 26 -6 14 -10 43 -10 65 0 37 1
39 33 39 l32 -1 -30 -14z m108 8 c-7 -2 -21 -2 -30 0 -10 3 -4 5 12 5 17 0 24
-2 18 -5z m-255 -88 c-2 -2 -29 -6 -60 -10 l-58 -7 0 32 c0 31 1 32 43 28 23
-2 43 1 44 6 1 5 7 13 15 17 10 6 14 0 16 -27 2 -20 2 -37 0 -39z m-445 49
c-5 -13 7 -15 96 -10 l101 5 0 -24 c0 -16 -6 -25 -15 -25 -8 0 -15 7 -15 15 0
12 -19 15 -115 15 -108 0 -115 1 -115 20 0 16 7 20 35 20 27 0 33 -3 28 -16z
m7 -57 c-23 -10 -20 -12 35 -17 33 -4 50 -7 37 -8 -13 -1 -21 -5 -18 -10 2 -4
25 -6 51 -4 32 3 43 7 34 13 -10 6 -2 9 23 9 l36 0 6 -82 c12 -162 12 -233 -1
-231 -6 2 -33 -2 -60 -8 -26 -5 -76 -12 -111 -14 -35 -2 -72 -7 -83 -10 -18
-6 -19 0 -19 183 l0 189 48 1 c43 1 45 0 22 -11z m584 -52 c-5 -12 0 -14 27
-8 31 6 33 5 20 -10 -12 -15 -10 -17 26 -17 39 0 41 -1 47 -37 3 -21 6 -84 6
-139 l0 -102 -56 -7 c-32 -4 -60 -3 -66 3 -9 9 -28 197 -28 285 0 35 4 47 15
47 9 0 12 -6 9 -15z m-214 -4 c-37 -10 -9 -22 38 -16 l40 5 6 -78 c3 -42 7
-108 8 -147 l3 -70 -51 1 c-48 1 -51 0 -51 -22 0 -21 4 -24 38 -24 21 0 41 5
44 10 15 24 25 6 25 -45 l0 -55 -60 0 -60 0 -1 55 c-1 30 -2 58 -3 63 -1 4 -5
59 -9 122 -4 63 -10 136 -13 163 l-6 47 39 -1 c32 -1 34 -2 13 -8z m550 -56
c6 -4 10 -55 10 -126 l0 -120 -52 3 -53 3 -3 126 -3 126 45 -3 c25 -1 50 -5
56 -9z m198 -107 l-3 -123 -32 -3 -33 -3 0 120 c0 130 -3 123 58 130 10 1 12
-27 10 -121z m532 -167 l0 -89 -72 -4 c-40 -2 -88 -2 -105 0 l-33 3 0 65 c0
64 0 64 28 64 16 0 60 11 98 25 38 13 72 24 77 25 4 0 7 -40 7 -89z m196 60
c20 -11 58 -25 85 -32 49 -13 49 -13 49 -55 0 -24 -4 -46 -10 -49 -5 -3 -48
-9 -95 -12 l-85 -6 0 80 c0 70 4 93 17 93 2 0 19 -9 39 -19z m-519 -56 c2 -22
1 -55 -2 -73 -6 -31 -8 -33 -43 -30 l-37 3 -3 60 c-3 58 -2 61 25 72 45 18 57
12 60 -32z m1487 34 c20 0 20 -1 -2 -10 -26 -10 -69 -3 -79 14 -4 7 5 8 27 4
18 -4 42 -7 54 -8z m-370 -41 c-11 -89 -11 -88 -54 -88 -22 0 -40 -4 -40 -10
0 -12 35 -31 52 -28 22 5 8 -156 -43 -475 -11 -66 -29 -92 -48 -71 -9 10 0
193 19 414 7 74 13 155 13 180 2 32 6 44 16 42 22 -5 51 9 51 24 0 8 4 14 9
14 5 0 11 9 14 20 9 36 17 21 11 -22z m-1324 -38 c0 -59 0 -60 -29 -60 -27 0
-29 3 -35 50 -8 61 -4 70 35 70 29 0 29 0 29 -60z m-900 35 c6 -3 10 -28 10
-55 l0 -48 -150 0 -150 -1 0 40 c0 27 4 39 14 39 8 0 16 6 19 13 2 8 25 12 70
10 37 0 67 3 67 8 0 10 102 5 120 -6z m710 -42 l0 -53 -50 0 -50 0 0 54 0 54
50 -1 50 -1 0 -53z m-220 -8 l0 -55 -59 0 c-58 0 -59 1 -65 31 -12 61 -9 68
32 72 98 10 92 13 92 -48z m1250 -91 c0 -55 -31 -398 -39 -429 -7 -30 -8 -30
-80 -31 -54 -1 -74 2 -78 13 -5 13 11 302 23 425 l6 57 84 -1 84 -2 0 -32z
m254 -86 c-5 -204 -15 -399 -21 -414 -4 -11 -9 -12 -18 -4 -8 6 -39 14 -69 17
-43 4 -56 10 -56 22 1 22 25 261 41 394 l13 107 57 0 56 0 -3 -122z m-1984
102 c0 -6 -45 -10 -116 -10 -63 0 -124 -5 -135 -10 -21 -12 -26 -42 -6 -39 6
1 28 -5 47 -14 23 -10 39 -12 46 -6 8 6 21 5 38 -3 23 -10 32 -9 56 5 36 22
57 22 68 0 12 -25 30 -160 43 -333 6 -79 15 -155 20 -169 5 -13 8 -25 6 -28
-7 -6 -180 -16 -237 -12 -30 1 -70 3 -87 3 -18 1 -34 3 -34 6 -1 3 -3 141 -4
307 l-3 302 31 4 c71 9 267 7 267 -3z m479 -6 c2 -2 -14 -4 -37 -4 -22 0 -47
-3 -56 -6 -9 -3 -16 -1 -16 4 0 6 8 13 18 15 17 5 83 -2 91 -9z m201 2 c0 -23
-14 -26 -49 -13 -43 16 -39 27 9 27 28 0 40 -4 40 -14z m590 -7 c0 -5 -7 -9
-15 -9 -15 0 -20 12 -9 23 8 8 24 -1 24 -14z m-186 -26 c3 -21 6 -149 6 -285
l0 -248 -40 0 -40 0 0 238 c0 190 3 243 15 266 8 15 12 32 9 37 -8 14 5 29 25
29 13 0 20 -10 25 -37z m197 -16 c9 -16 12 -16 32 -2 24 17 67 20 67 5 0 -5 7
-10 15 -10 11 0 15 -12 16 -42 3 -86 -4 -304 -10 -348 l-6 -45 -75 -7 c-41 -3
-86 -9 -99 -14 l-24 -7 8 239 c4 131 9 241 10 244 8 13 57 4 66 -13z m-1074
-7 c3 -11 11 -20 19 -20 7 0 15 -4 18 -8 2 -4 9 -91 15 -192 6 -102 14 -207
17 -234 4 -31 3 -46 -4 -42 -5 3 -15 -1 -22 -9 -7 -8 -18 -15 -25 -15 -7 0
-23 -11 -37 -23 l-26 -24 -7 111 c-3 61 -8 129 -10 151 -2 22 -7 93 -10 157
-6 98 -4 121 9 140 9 12 16 18 16 13 0 -5 5 -4 12 3 17 17 29 15 35 -8z m667
-6 c14 -14 16 -48 14 -262 l-3 -247 -25 0 -25 0 -3 250 c-1 137 0 255 3 262 6
17 20 16 39 -3z m-171 -151 c4 -87 7 -200 7 -250 0 -89 -1 -93 -22 -93 -12 0
-37 5 -55 12 l-33 12 0 217 c0 231 1 234 50 237 14 1 26 6 28 12 12 35 20 -9
25 -147z m-246 126 c18 -7 22 -18 28 -81 3 -40 5 -131 3 -203 l-3 -130 -44 -3
c-24 -2 -47 0 -52 5 -4 4 -11 93 -15 196 -9 242 -6 249 83 216z m-130 -21 c-3
-7 -5 -2 -5 12 0 14 2 19 5 13 2 -7 2 -19 0 -25z m245 -470 c-7 -7 -10 82 -10
248 l1 259 9 -249 c6 -160 6 -252 0 -258z m-222 204 c6 -129 10 -236 7 -238
-4 -5 -25 287 -30 413 -1 40 1 69 4 65 4 -4 12 -112 19 -240z m1273 -143 c-8
-8 -19 -8 -40 -1 -28 10 -28 10 12 11 28 1 36 -2 28 -10z m-250 -16 c-7 -2
-13 -14 -13 -24 0 -14 -6 -19 -18 -17 -11 2 -26 -3 -36 -11 -14 -12 -16 -12
-10 2 5 14 -10 17 -36 7 -3 -1 -9 -2 -13 -1 -4 1 -3 -8 3 -19 10 -18 8 -25 -4
-17 -3 1 -16 -9 -31 -23 -18 -17 -24 -20 -19 -7 3 9 11 17 16 17 6 0 5 6 -2
15 -19 23 5 73 38 78 39 6 139 6 125 0z m-873 -12 c0 -5 -7 -14 -16 -21 -13
-11 -19 -10 -37 8 l-21 22 37 0 c20 0 37 -4 37 -9z m1410 -31 l45 -5 -3 -60
c-2 -33 -8 -61 -13 -63 -15 -6 -10 -32 6 -32 8 0 25 -11 37 -23 20 -20 23 -32
20 -68 -3 -24 -12 -49 -21 -56 -14 -11 -14 -13 7 -19 12 -3 22 -8 22 -10 0
-13 -45 -52 -53 -47 -6 4 -7 1 -2 -7 5 -7 9 -27 10 -44 2 -29 2 -29 -8 -8 -12
26 -34 24 -29 -4 6 -32 1 -107 -7 -122 -6 -10 -8 -1 -7 24 1 29 -3 39 -14 39
-10 0 -14 -8 -12 -27 5 -39 -27 -37 -53 2 -11 16 -23 30 -28 30 -4 0 -26 14
-49 30 -22 17 -51 30 -63 30 -13 0 -26 7 -29 16 -5 13 -19 16 -81 12 -78 -4
-101 6 -40 18 19 3 38 11 43 18 8 13 12 96 4 96 -15 0 -42 -36 -42 -57 0 -13
-7 -26 -17 -30 -10 -3 -34 -21 -54 -40 -23 -22 -39 -31 -43 -24 -13 21 -36 12
-36 -14 0 -14 -5 -25 -11 -25 -6 0 -9 7 -5 15 3 9 0 15 -10 15 -8 0 -19 -10
-24 -22 -7 -18 -9 -19 -9 -5 -1 23 -17 22 -24 -3 -3 -11 -10 -20 -16 -20 -7 0
-9 10 -5 25 5 19 2 25 -10 25 -10 0 -16 -9 -16 -25 0 -14 -4 -25 -10 -25 -5 0
-10 9 -10 20 0 22 -15 27 -25 9 -4 -6 -24 -9 -47 -6 -34 4 -41 1 -45 -14 -4
-12 -10 -16 -17 -11 -23 17 -57 11 -65 -11 l-8 -22 -7 23 c-9 27 -26 29 -26 2
0 -11 -4 -20 -10 -20 -5 0 -10 9 -10 20 0 14 -6 20 -17 18 -18 -3 -31 30 -16
41 9 7 80 113 104 158 17 31 129 123 154 127 8 1 23 10 34 20 11 10 39 22 63
27 24 5 51 12 61 15 24 7 22 -18 -4 -36 -31 -23 -60 -75 -53 -95 6 -15 11 -13
34 15 25 30 34 34 89 38 71 5 81 17 81 98 0 40 2 44 24 44 14 0 27 4 30 9 3 4
20 11 38 14 18 3 41 8 51 12 14 6 17 1 17 -34 0 -23 -5 -50 -12 -60 -6 -10 -8
-26 -4 -36 6 -16 8 -16 24 -2 31 27 104 11 153 -34 49 -45 77 -53 57 -17 -22
39 -60 83 -77 89 -23 9 -17 96 7 102 10 2 22 1 27 -2 6 -3 30 -8 55 -11z
m-1247 0 c7 -1 -3 -7 -22 -16 -19 -8 -36 -12 -39 -9 -9 9 21 36 35 30 8 -3 20
-5 26 -5z m-164 -52 c1 -63 -15 -108 -38 -108 -9 0 -22 -5 -29 -12 -9 -9 -12
-8 -12 5 0 9 -5 17 -11 17 -21 0 2 18 31 23 24 5 30 12 30 31 0 14 -7 29 -16
34 -14 8 -14 12 -3 30 7 12 20 23 29 26 8 2 16 4 17 5 0 0 1 -23 2 -51z m203
-18 c-26 -35 -27 -38 -6 -36 9 0 18 -7 19 -16 3 -14 -2 -16 -25 -12 -20 5 -34
0 -49 -15 -12 -12 -22 -21 -23 -21 -2 0 -4 29 -6 65 -1 37 2 65 8 65 5 0 7 -8
3 -17 -5 -17 -5 -17 8 0 8 9 28 26 44 36 29 18 30 18 39 -1 7 -14 4 -26 -12
-48z m-431 12 c-6 -2 -11 -12 -11 -23 0 -10 -7 -19 -15 -19 -18 0 -20 -16 -2
-23 9 -4 9 -6 -1 -6 -8 -1 -16 8 -19 19 -8 29 -24 24 -19 -6 3 -16 0 -27 -10
-31 -20 -7 -23 -3 -28 41 -5 32 -3 36 12 32 12 -4 31 7 57 31 40 38 40 38 43
13 2 -13 -1 -26 -7 -28z m797 3 c-36 -36 -51 -35 -54 3 -1 17 2 32 7 32 5 0 9
-3 9 -7 0 -5 11 -9 25 -9 13 -1 24 1 23 5 -2 16 4 25 9 13 3 -7 -6 -24 -19
-37z m-195 -9 c-15 -17 -31 -35 -35 -40 -5 -6 -8 6 -8 25 0 29 5 37 28 45 41
16 47 5 15 -30z m-736 2 c-3 -8 -6 -5 -6 6 -1 11 2 17 5 13 3 -3 4 -12 1 -19z
m440 0 c-3 -8 -6 -5 -6 6 -1 11 2 17 5 13 3 -3 4 -12 1 -19z m1460 0 c-3 -8
-6 -5 -6 6 -1 11 2 17 5 13 3 -3 4 -12 1 -19z m73 -10 c-1 -28 -2 -30 -11 -15
-6 10 -8 25 -5 33 9 24 16 16 16 -18z m-2380 12 c0 -5 -7 -10 -16 -10 -8 0
-12 5 -9 10 3 6 10 10 16 10 5 0 9 -4 9 -10z m690 -10 c0 -11 -4 -20 -10 -20
-5 0 -10 9 -10 20 0 11 5 20 10 20 6 0 10 -9 10 -20z m-370 -20 c0 -5 -4 -10
-10 -10 -5 0 -10 5 -10 10 0 6 5 10 10 10 6 0 10 -4 10 -10z m-130 -10 c0 -5
-5 -10 -11 -10 -5 0 -7 5 -4 10 3 6 8 10 11 10 2 0 4 -4 4 -10z m962 -25 c-5
-28 -20 -33 -28 -10 -7 17 14 48 26 40 4 -2 5 -16 2 -30z m238 27 c0 -11 -51
-35 -58 -28 -3 3 1 12 8 21 13 16 50 21 50 7z m1207 -8 c-3 -3 -12 -4 -19 -1
-8 3 -5 6 6 6 11 1 17 -2 13 -5z m-2045 -26 c-7 -7 -12 -8 -12 -2 0 14 12 26
19 19 2 -3 -1 -11 -7 -17z m2125 5 c7 -20 -15 -23 -37 -5 l-22 18 28 -1 c15
-1 30 -7 31 -12z m-1286 -49 c-33 -30 -86 -94 -118 -141 -32 -48 -71 -94 -86
-102 -15 -9 -34 -27 -41 -41 -7 -14 -18 -24 -25 -22 -7 1 -19 -3 -27 -9 -23
-19 -17 7 13 54 14 23 69 84 121 135 92 90 111 124 51 90 -43 -25 -35 -4 9 23
69 43 117 66 140 68 19 1 13 -9 -37 -55z m1355 25 c6 -10 3 -19 -26 -81 -18
-38 -25 -27 -10 17 12 37 7 71 -9 61 -7 -5 -8 8 -2 32 2 5 40 -18 47 -29z
m-190 12 c-3 -4 4 -17 16 -27 12 -11 18 -13 14 -6 -5 8 1 12 19 12 25 0 25 -1
9 -25 -13 -21 -19 -23 -36 -14 -12 6 -45 9 -74 7 -55 -5 -55 -4 1 29 11 6 19
16 18 22 -2 6 6 11 18 11 11 0 18 -4 15 -9z m-2036 -34 c0 -21 -39 -40 -56
-26 -21 17 -17 27 14 32 15 2 30 5 35 6 4 0 7 -5 7 -12z m300 -7 c0 -5 -6 -10
-12 -10 -7 0 -23 -3 -35 -6 -13 -4 -23 -2 -23 4 0 9 20 17 58 21 6 0 12 -3 12
-9z m1558 -9 c2 -1 -6 -13 -17 -27 -25 -32 -27 -64 -5 -64 12 0 15 -6 10 -26
-4 -15 -2 -32 5 -40 17 -21 -3 -38 -34 -30 -22 5 -26 13 -32 65 -4 34 -3 66 3
77 6 11 13 26 15 35 4 13 27 17 55 10z m313 -14 c-10 -9 -11 -8 -5 6 3 10 9
15 12 12 3 -3 0 -11 -7 -18z m-2047 -5 c8 -13 -53 -55 -70 -48 -8 3 -14 12
-14 20 0 17 24 28 45 20 8 -4 15 -1 15 5 0 13 17 15 24 3z m96 -1 c0 -6 -4
-13 -10 -16 -5 -3 -10 -1 -10 5 0 6 -5 8 -12 4 -7 -4 -8 -3 -4 4 9 14 36 16
36 3z m-283 -23 c8 19 23 14 23 -8 0 -11 -6 -20 -14 -20 -8 0 -31 -9 -50 -21
-41 -24 -62 -18 -46 12 6 10 15 19 21 19 6 0 18 7 26 16 13 13 18 13 25 2 8
-10 11 -10 15 0z m766 -5 c-13 -8 -23 -19 -23 -24 0 -16 -53 -69 -68 -69 -8 0
-12 -6 -9 -14 3 -7 0 -19 -6 -25 -18 -18 -29 -13 -17 9 17 31 -6 24 -30 -10
-12 -16 -28 -30 -36 -30 -8 0 -14 -4 -14 -10 0 -5 -9 -10 -19 -10 -21 0 -81
-65 -81 -87 0 -7 -4 -13 -10 -13 -5 0 -10 -8 -10 -17 0 -12 -3 -14 -11 -6 -7
7 -3 21 13 46 13 20 36 57 51 82 24 37 36 47 73 56 24 6 44 17 44 24 0 20 78
83 111 90 16 4 31 11 34 16 4 5 12 9 18 8 7 0 2 -7 -10 -16z m-913 -13 c0 -5
-4 -10 -10 -10 -5 0 -10 5 -10 10 0 6 5 10 10 10 6 0 10 -4 10 -10z m497 -28
c-9 -10 -17 -23 -17 -28 0 -6 -19 -20 -42 -32 -77 -41 -91 -50 -118 -79 -14
-15 -35 -42 -45 -60 -10 -17 -26 -34 -34 -36 -9 -3 -25 -8 -35 -13 -15 -6 -13
0 8 24 16 17 34 28 42 25 9 -3 14 1 14 11 0 18 156 179 200 207 31 20 50 7 27
-19z m-162 -12 c-16 -16 -33 -30 -37 -30 -5 0 1 14 14 30 12 17 29 30 37 30
10 0 6 -9 -14 -30z m2045 3 c0 -3 -6 -3 -14 0 -8 3 -20 -1 -26 -9 -7 -8 -18
-14 -24 -14 -6 1 -1 9 12 20 20 16 52 18 52 3z m-2120 -6 c0 -7 -6 -21 -13
-32 -19 -25 -32 -3 -15 25 15 23 28 26 28 7z m-200 -27 c0 -5 -4 -10 -10 -10
-5 0 -10 5 -10 10 0 6 5 10 10 10 6 0 10 -4 10 -10z m2380 0 c0 -5 -7 -10 -15
-10 -8 0 -15 5 -15 10 0 6 7 10 15 10 8 0 15 -4 15 -10z m-2445 -30 c-10 -11
-20 -18 -23 -15 -7 6 18 35 31 35 5 0 2 -9 -8 -20z m185 10 c0 -6 -7 -13 -16
-17 -8 -3 -13 -12 -10 -20 4 -8 -3 -17 -17 -22 -36 -14 -42 5 -11 38 29 31 54
40 54 21z m475 -20 c-9 -10 -20 -19 -24 -18 -20 2 -31 -4 -31 -17 0 -8 -4 -15
-9 -15 -5 0 -11 -10 -13 -22 -2 -13 -8 -23 -13 -23 -18 0 -70 -43 -62 -51 4
-4 18 3 32 16 14 13 25 21 25 18 0 -16 -67 -122 -79 -126 -10 -3 -7 7 8 32
l23 36 -29 -11 c-41 -16 -64 -40 -57 -61 4 -12 0 -18 -11 -18 -9 0 -13 5 -10
10 3 6 -1 10 -9 10 -10 0 -13 -6 -10 -15 4 -8 2 -15 -3 -15 -5 0 -9 9 -10 20
-1 14 7 24 23 30 13 5 24 14 24 20 0 6 12 22 27 36 14 13 31 34 37 47 6 12 21
26 34 32 12 5 21 15 19 21 -3 18 75 76 95 71 10 -3 21 -1 24 4 3 5 8 9 11 9 3
0 -2 -9 -12 -20z m1595 10 c0 -5 -5 -10 -11 -10 -5 0 -7 5 -4 10 3 6 8 10 11
10 2 0 4 -4 4 -10z m-2210 -4 c0 -3 -4 -8 -10 -11 -5 -3 -10 -1 -10 4 0 6 5
11 10 11 6 0 10 -2 10 -4z m2437 -28 c-3 -8 -6 -5 -6 6 -1 11 2 17 5 13 3 -3
4 -12 1 -19z m-512 -35 c4 -14 2 -23 -4 -23 -6 0 -11 9 -11 20 0 11 -5 20 -11
20 -5 0 -7 5 -3 11 8 13 19 2 29 -28z m-1757 -18 c-10 -23 -28 -34 -28 -18 0
7 31 43 36 43 2 0 -2 -11 -8 -25z m1820 -2 c-5 -25 -28 -28 -28 -4 0 12 6 21
16 21 9 0 14 -7 12 -17z m199 11 c-3 -3 -12 -4 -19 -1 -8 3 -5 6 6 6 11 1 17
-2 13 -5z m-633 -31 l38 -5 -28 -23 c-16 -13 -26 -27 -21 -31 10 -10 57 16 57
33 0 7 7 13 15 13 19 0 20 -19 0 -26 -8 -3 -17 -14 -20 -25 -4 -10 -26 -33
-51 -50 -24 -16 -42 -34 -39 -40 11 -16 21 -10 75 43 46 45 55 50 71 39 16 -9
21 -9 25 4 3 8 10 12 16 9 5 -4 2 -15 -9 -28 -36 -41 -44 -54 -35 -60 10 -6
45 24 60 51 9 14 13 15 26 4 9 -7 16 -18 16 -23 0 -7 -5 -6 -13 0 -10 8 -17 7
-28 -6 -43 -52 -43 -53 -30 -61 20 -13 -15 -41 -50 -41 -21 0 -39 -12 -71 -46
-36 -39 -85 -70 -123 -78 -20 -4 -55 -31 -55 -43 0 -14 -32 -25 -80 -28 -19
-1 -36 -7 -38 -14 -6 -18 -22 -13 -22 8 0 13 10 20 32 25 24 5 29 9 20 18 -12
12 -6 66 9 83 5 5 9 24 9 43 0 25 -8 42 -31 63 l-31 29 56 55 c41 40 51 55 37
55 -10 0 -31 -16 -45 -35 -23 -29 -72 -65 -90 -65 -12 0 119 120 138 126 11 3
28 12 36 19 18 16 65 24 105 18 17 -2 47 -7 69 -10z m116 -43 c0 -5 -4 -10
-10 -10 -5 0 -10 5 -10 10 0 6 5 10 10 10 6 0 10 -4 10 -10z m327 -4 c12 -1
25 -4 29 -9 4 -4 35 -5 68 -1 34 4 58 3 54 0 -3 -4 -49 -9 -102 -10 -76 -2
-99 -6 -116 -21 -30 -27 -35 -12 -9 24 16 21 28 29 39 25 8 -4 25 -7 37 -8z
m-1929 -8 c-3 -7 -20 -18 -39 -25 l-34 -13 30 25 c32 27 49 32 43 13z m622
-27 c-10 -20 -63 -51 -87 -51 -8 0 -13 -8 -11 -17 2 -12 -3 -18 -14 -17 -10 1
-18 -2 -18 -8 0 -5 -5 -6 -10 -3 -6 4 -4 12 5 21 8 9 15 21 15 27 0 8 -3 8 -9
-1 -7 -11 -9 -10 -14 3 -8 20 18 31 37 16 15 -13 34 -6 85 32 30 22 34 22 21
-2z m-725 -11 c-3 -5 -10 -10 -16 -10 -5 0 -9 5 -9 10 0 6 7 10 16 10 8 0 12
-4 9 -10z m-155 -30 c0 -5 -4 -10 -10 -10 -5 0 -10 5 -10 10 0 6 5 10 10 10 6
0 10 -4 10 -10z m387 3 c-4 -3 -2 -12 4 -20 9 -10 5 -13 -20 -13 -17 0 -33 0
-36 0 -3 0 -5 3 -5 8 0 4 6 7 13 7 6 0 16 6 20 13 4 6 13 12 19 12 6 0 8 -3 5
-7z m333 -11 c0 -14 -23 -32 -42 -32 -10 0 -18 -4 -18 -10 0 -5 8 -7 18 -3 12
4 14 3 7 -5 -6 -6 -22 -13 -35 -14 -39 -5 -30 24 15 49 44 24 55 27 55 15z
m1280 -2 c0 -5 -4 -10 -10 -10 -5 0 -10 5 -10 10 0 6 5 10 10 10 6 0 10 -4 10
-10z m-1543 -6 c-3 -3 -12 -4 -19 -1 -8 3 -5 6 6 6 11 1 17 -2 13 -5z m-167
-14 c0 -5 -15 -10 -32 -9 -31 1 -32 1 -8 9 35 11 40 11 40 0z m1649 -4 c9 -11
9 -16 0 -22 -7 -4 -15 -2 -17 4 -2 7 -8 10 -13 7 -5 -4 -6 1 -3 9 8 20 18 20
33 2z m-1434 -16 c3 -5 1 -10 -4 -10 -6 0 -11 5 -11 10 0 6 2 10 4 10 3 0 8
-4 11 -10z m888 -22 c-3 -13 -10 -29 -16 -35 -5 -7 -6 -13 -1 -13 5 0 20 -3
33 -7 22 -6 23 -4 17 20 -7 29 3 34 35 17 26 -14 24 -36 -5 -56 -14 -8 -23
-21 -20 -29 3 -7 1 -16 -4 -19 -6 -3 -12 1 -16 9 -3 8 -10 15 -15 15 -9 0 -1
-46 14 -82 6 -15 2 -18 -28 -18 -26 0 -36 5 -40 20 -6 25 -27 27 -27 3 0 -14
-2 -15 -9 -5 -4 7 -17 15 -27 17 -10 2 -20 4 -21 4 -12 4 -17 -9 -14 -34 2
-25 0 -28 -10 -17 -8 7 -13 30 -13 52 1 22 -2 40 -7 40 -22 0 -6 29 23 41 18
7 49 28 69 46 20 18 47 37 60 42 13 5 25 10 26 10 0 1 -1 -9 -4 -21z m-789 0
c-3 -4 -14 -8 -25 -8 -11 0 -18 4 -14 9 3 6 14 9 25 8 10 -1 16 -5 14 -9z
m1406 2 c0 -5 -7 -10 -15 -10 -8 0 -15 5 -15 10 0 6 7 10 15 10 8 0 15 -4 15
-10z m-99 -33 c-10 -9 -11 -8 -5 6 3 10 9 15 12 12 3 -3 0 -11 -7 -18z m141 2
c83 2 92 -5 57 -40 -17 -17 -28 -20 -53 -14 -54 13 -91 11 -88 -4 4 -19 -17
-31 -56 -31 l-34 0 36 42 c20 23 36 46 36 50 0 5 5 6 12 2 6 -4 47 -6 90 -5z
m-175 -41 c-3 -8 -6 -5 -6 6 -1 11 2 17 5 13 3 -3 4 -12 1 -19z m-1043 6 c17
-6 22 -24 8 -24 -5 0 -17 7 -28 15 -19 15 -8 20 20 9z m182 -15 c13 -12 34
-27 46 -33 14 -7 24 -22 26 -38 5 -45 -29 -58 -154 -62 -60 -1 -115 -1 -121 2
-15 5 -17 58 -3 67 6 4 10 -5 10 -20 0 -34 17 -39 69 -20 52 18 85 19 111 3
24 -16 30 -10 23 25 -4 18 -13 29 -28 33 -13 3 -25 14 -28 25 -3 10 -15 20
-26 20 -33 2 -39 4 -47 12 -4 4 17 7 46 7 41 0 59 -5 76 -21z m804 11 c0 -5
-4 -10 -10 -10 -5 0 -10 5 -10 10 0 6 5 10 10 10 6 0 10 -4 10 -10z m-1029
-27 c12 -15 12 -16 -4 -10 -10 4 -23 7 -28 7 -5 0 -9 5 -9 10 0 16 26 12 41
-7z m153 -28 c4 -10 -2 -19 -17 -24 -31 -12 -39 -4 -19 19 21 23 28 24 36 5z
m829 8 c-7 -2 -13 -11 -13 -19 0 -15 -12 -19 -23 -7 -10 9 13 33 32 32 10 0
11 -2 4 -6z m-1588 -24 c11 0 28 -7 38 -17 16 -14 20 -14 27 -2 7 12 15 12 42
2 24 -8 50 -9 93 -2 80 13 85 13 50 -6 -18 -9 -62 -17 -110 -19 -44 -1 -87 -5
-95 -8 -8 -3 -39 -8 -67 -12 -44 -5 -53 -3 -53 10 0 18 -16 20 -26 3 -4 -7 -3
-8 4 -4 7 4 12 5 12 2 0 -10 -57 -35 -64 -29 -3 4 -6 14 -6 24 0 22 -28 31
-80 28 -22 -2 -41 1 -42 6 -4 12 55 24 99 20 18 -1 33 2 33 7 0 5 27 6 63 3
34 -3 71 -6 82 -6z m945 -22 c0 -12 6 -32 14 -43 13 -18 12 -19 -12 -18 -15 0
-26 4 -24 7 1 4 2 23 2 42 0 19 5 35 10 35 6 0 10 -10 10 -23z m74 -26 l7 -45
-26 28 c-29 32 -31 38 -8 29 12 -5 15 -2 10 9 -3 9 -3 19 0 22 9 8 9 7 17 -43z
m246 28 c0 -14 -17 -10 -23 5 -4 10 -1 13 9 9 7 -3 14 -9 14 -14z m270 -10 c0
-18 -2 -19 -15 -9 -8 7 -15 16 -15 21 0 5 7 9 15 9 9 0 15 -9 15 -21z m-40 -4
c0 -8 -5 -15 -11 -15 -6 0 -9 -7 -5 -15 3 -8 1 -15 -5 -15 -13 0 -22 27 -15
45 3 8 12 15 21 15 8 0 15 -7 15 -15z m-60 -19 c0 -11 -19 -15 -25 -6 -3 5 1
10 9 10 9 0 16 -2 16 -4z m-300 -26 c0 -5 -7 -10 -15 -10 -8 0 -15 5 -15 10 0
6 7 10 15 10 8 0 15 -4 15 -10z m-1268 -29 c20 -2 -9 -32 -45 -47 -55 -23
-128 -28 -120 -8 3 8 11 14 18 14 7 0 15 7 19 15 8 22 45 34 86 30 19 -2 38
-4 42 -4z m58 -17 c0 -14 -3 -14 -15 -4 -8 7 -15 14 -15 16 0 2 7 4 15 4 8 0
15 -7 15 -16z m-214 -5 c4 -7 1 -10 -7 -7 -8 3 -26 -6 -41 -20 -26 -24 -28
-24 -28 -6 0 13 10 24 28 31 37 15 40 15 48 2z m-26 -39 c0 -5 -5 -10 -11 -10
-5 0 -7 5 -4 10 3 6 8 10 11 10 2 0 4 -4 4 -10z"/>
<g>
<path d="M1480 5071 c0 -5 6 -14 14 -20 10 -8 16 -8 25 3 9 11 8 15 -5 20 -22
8 -34 8 -34 -3z"/>
</g>
<g>
<path d="M1487 4994 c-11 -11 3 -24 24 -24 12 0 19 5 17 13 -5 14 -31 21 -41
11z"/>
</g>
<g>
<path d="M2245 1799 c-10 -15 3 -25 16 -12 7 7 7 13 1 17 -6 3 -14 1 -17 -5z"/>
</g>
<g>
<path d="M976 1164 c-9 -8 -16 -20 -16 -26 0 -6 1 -9 3 -7 1 2 11 14 21 27 22
25 16 30 -8 6z"/>
</g>
<g>
<path d="M999 1153 c-13 -16 -12 -17 4 -4 9 7 17 15 17 17 0 8 -8 3 -21 -13z"/>
</g>
<g>
<path d="M1186 942 c-2 -4 -1 -14 3 -21 6 -10 10 -9 14 3 6 16 -8 32 -17 18z"/>
</g>
<g>
<path d="M1944 544 c-65 -67 -106 -94 -112 -75 -2 6 -8 11 -14 11 -6 0 -8 -6
-5 -14 8 -19 -16 -38 -37 -30 -10 4 -16 1 -16 -7 0 -12 -2 -12 -9 0 -13 20
-24 -5 -12 -27 6 -11 7 -22 4 -26 -3 -3 -1 -6 5 -6 6 0 14 5 18 11 3 6 34 29
67 50 73 47 180 147 174 163 -3 6 -31 -16 -63 -50z"/>
</g>
<g>
<path d="M1572 399 c2 -7 10 -15 17 -17 8 -3 12 1 9 9 -2 7 -10 15 -17 17 -8
3 -12 -1 -9 -9z"/>
</g>
<g>
<path d="M195 299 c-10 -16 3 -23 18 -11 8 7 18 8 22 4 5 -4 5 -1 1 6 -9 15
-32 16 -41 1z"/>
</g>
</g>
<g>
<path d="M2675 1802 c-2 -2 -1 -10 1 -17 6 -15 44 -8 44 9 0 11 -36 17 -45 8z"/>
</g>
<g>
<path d="M2930 1212 c0 -6 16 -12 35 -14 22 -2 34 0 32 6 -4 14 -67 21 -67 8z"/>
</g>
<g>
<path d="M2905 1180 c-3 -5 -17 -10 -31 -10 -13 0 -24 -4 -24 -10 0 -5 12 -10
26 -10 29 0 64 16 64 30 0 13 -27 13 -35 0z"/>
</g>
<g>
<path d="M2775 1170 c-3 -6 1 -13 10 -16 19 -8 30 0 20 15 -8 14 -22 14 -30 1z"/>
</g>
<g>
<path d="M2950 1160 c0 -5 11 -10 25 -10 14 0 25 5 25 10 0 6 -11 10 -25 10
-14 0 -25 -4 -25 -10z"/>
</g>
<g>
<path d="M2970 1120 c19 -13 30 -13 30 0 0 6 -10 10 -22 10 -19 0 -20 -2 -8
-10z"/>
</g>
<g>
<path d="M2975 644 c-11 -8 -19 -20 -17 -26 2 -7 -22 -9 -74 -6 -69 5 -77 3
-81 -13 -8 -27 -82 -26 -106 1 -14 17 -25 19 -79 14 -77 -7 -91 -11 -83 -24 4
-7 30 -8 71 -4 54 6 65 4 70 -10 8 -22 142 -24 150 -2 5 12 22 14 90 9 l84 -6
0 42 c0 22 -1 41 -2 41 -2 0 -12 -8 -23 -16z"/>
</g>
<g>
<path d="M2920 534 c-55 -14 -200 -13 -301 2 -50 7 -89 -7 -89 -31 0 -12 5
-11 28 2 25 14 33 14 72 1 89 -29 49 -58 -82 -58 -97 0 -152 -15 -168 -45 -24
-45 -59 -55 -197 -56 -145 -1 -224 -9 -223 -24 0 -5 17 -9 38 -7 20 1 100 5
176 7 151 5 190 15 223 61 23 31 72 43 175 44 94 0 123 10 132 45 6 25 10 27
44 21 39 -6 191 10 230 25 23 9 31 30 10 28 -7 -1 -38 -8 -68 -15z"/>
</g>
<g>
<path d="M2845 441 c-32 -5 -41 -11 -43 -28 -2 -15 -10 -23 -23 -23 -51 0 -81
-44 -36 -53 l22 -4 -23 -8 c-33 -11 -22 -29 22 -35 45 -6 52 -24 11 -28 -38
-5 -55 -19 -55 -46 1 -20 2 -19 23 7 13 15 30 27 40 27 17 0 20 -16 21 -120 1
-24 6 -35 16 -35 12 0 15 17 15 95 l0 95 77 3 c73 3 77 2 81 -20 4 -20 4 -20
6 5 1 27 0 27 -61 28 -58 2 -74 3 -103 8 -5 1 -4 5 4 10 8 5 39 8 70 5 31 -2
48 -1 38 2 -11 3 -16 12 -13 20 4 11 -6 14 -47 16 -43 1 -46 2 -14 5 46 5 39
23 -9 23 -25 0 -34 4 -34 17 0 13 3 14 12 5 27 -27 122 -3 104 26 -8 13 -34
13 -101 3z m48 -18 c-7 -2 -19 -2 -25 0 -7 3 -2 5 12 5 14 0 19 -2 13 -5z
m-98 -63 c-3 -5 -13 -10 -21 -10 -8 0 -14 5 -14 10 0 6 9 10 21 10 11 0 17 -4
14 -10z m5 -50 c0 -5 -11 -10 -25 -10 -14 0 -25 5 -25 10 0 6 11 10 25 10 14
0 25 -4 25 -10z"/>
</g>
<g>
<path d="M2880 249 c0 -5 19 -9 42 -9 49 0 47 5 -4 13 -21 3 -38 2 -38 -4z"/>
</g>
<g>
<path d="M2880 220 c0 -5 7 -10 15 -10 8 0 15 5 15 10 0 6 -7 10 -15 10 -8 0
-15 -4 -15 -10z"/>
</g>
<g>
<path d="M2799 26 c-3 -3 -290 -7 -638 -10 -348 -3 -636 -8 -639 -11 -3 -3
328 -5 736 -5 653 0 742 2 742 15 0 12 -18 15 -98 15 -54 0 -101 -2 -103 -4z"/>
</g>
</g>
</svg>
