<?xml version="1.0" standalone="no"?>
<!DOCTYPE svg PUBLIC "-//W3C//DTD SVG 20010904//EN"
 "http://www.w3.org/TR/2001/REC-SVG-20010904/DTD/svg10.dtd">
<svg version="1.0" xmlns="http://www.w3.org/2000/svg"
 width="300.000000pt" height="517.000000pt" viewBox="0 0 300.000000 517.000000"
 preserveAspectRatio="xMidYMid meet">
<metadata>
Created by potrace 1.15, written by Peter Selinger 2001-2017
</metadata>
<g transform="translate(0.000000,517.000000) scale(0.100000,-0.100000)"
fill="#000000" stroke="none">
<g>
<path d="M13 5158 c-4 -7 -9 -1171 -11 -2586 l-3 -2573 1493 3 c1050 1 1495 5
1500 12 4 6 8 1169 8 2584 l0 2572 -1489 0 c-1181 0 -1491 -3 -1498 -12z
m2930 -15 l38 -6 -4 -1964 c-3 -1080 -6 -1966 -9 -1968 -2 -2 -10 0 -18 5 -11
7 -11 11 -1 24 12 14 10 15 -17 10 -37 -7 -88 20 -95 50 -9 37 -32 91 -42 98
-5 4 -16 5 -24 3 -24 -9 -51 25 -51 66 0 44 -13 56 -45 39 -27 -15 -45 -50
-45 -90 0 -16 -5 -32 -10 -35 -6 -3 -10 -17 -10 -30 0 -16 -9 -28 -27 -37 -25
-12 -28 -19 -31 -69 -2 -41 -8 -62 -22 -74 -11 -10 -20 -24 -20 -30 0 -7 -7
-18 -15 -25 -13 -11 -15 -7 -15 26 0 38 -30 84 -56 84 -7 0 -30 -22 -51 -49
-40 -51 -91 -87 -104 -74 -4 4 -17 26 -29 47 -17 30 -19 41 -9 47 11 6 11 20
0 71 -18 81 -17 96 10 124 21 23 21 24 4 61 -10 21 -21 40 -24 43 -7 5 -101
197 -101 205 0 3 -20 48 -45 101 -35 74 -43 99 -35 114 5 10 10 27 10 37 0 12
-6 6 -17 -15 -8 -18 -18 -31 -20 -28 -10 9 9 66 21 66 15 0 18 16 15 88 -1 43
-35 107 -74 139 l-35 30 24 64 c14 35 37 89 53 119 l28 55 65 6 c36 4 79 12
95 19 17 7 35 14 40 16 69 17 132 76 122 115 -3 11 -1 35 4 53 8 30 4 44 -41
130 -32 61 -50 109 -50 130 0 19 -4 38 -10 41 -6 3 5 36 27 78 34 68 68 143
133 297 37 87 121 258 144 293 22 32 56 37 56 6 0 -28 18 -59 34 -59 17 0 29
27 16 35 -6 4 -10 1 -10 -5 0 -7 -6 -10 -12 -7 -7 2 -13 18 -13 36 -1 25 3 30
15 25 60 -26 103 -6 50 24 -24 13 -29 22 -25 40 8 34 -20 28 -52 -13 -15 -19
-35 -35 -42 -35 -12 0 -12 3 -3 12 7 7 12 19 12 26 0 8 17 45 38 81 21 36 48
93 61 126 13 33 28 64 33 70 4 5 8 15 8 21 0 12 54 136 88 202 9 18 25 40 35
49 9 9 17 23 17 32 0 8 14 30 32 48 l32 33 -13 88 c-7 49 -9 101 -5 117 5 20
4 26 -5 21 -7 -5 -11 2 -11 18 0 31 -20 35 -27 6 -3 -11 -13 -20 -22 -20 -14
0 -17 -9 -17 -42 1 -24 6 -43 14 -46 8 -2 3 -16 -17 -41 -16 -20 -33 -55 -37
-76 -4 -22 -15 -52 -25 -67 -11 -14 -19 -30 -19 -36 0 -5 -11 -12 -24 -14 -17
-4 -23 -1 -19 9 3 7 9 10 14 7 5 -3 9 2 9 11 0 11 -6 15 -19 10 -14 -4 -20 1
-24 25 -4 16 -10 30 -15 30 -16 0 -33 -52 -26 -85 3 -19 1 -35 -5 -39 -12 -8
-4 -36 11 -36 5 0 6 9 3 20 -8 24 1 26 22 4 22 -22 12 -68 -40 -182 -25 -53
-56 -126 -70 -162 -25 -63 -94 -220 -155 -350 -17 -36 -59 -130 -95 -210 -106
-238 -103 -234 -126 -206 -9 10 3 53 53 187 35 96 72 197 81 224 10 28 22 59
26 70 5 11 32 92 60 180 29 88 58 168 66 177 8 9 12 21 9 27 -9 14 8 80 75
285 33 99 59 185 59 191 0 5 9 27 20 48 11 20 20 43 20 50 0 7 16 44 35 81 40
78 44 118 15 139 -26 18 -16 47 15 47 52 0 70 22 38 45 -17 13 -17 14 1 33 19
22 15 42 -10 42 -8 0 -14 9 -14 20 0 23 -22 26 -40 6 -6 -8 -23 -16 -38 -18
-34 -4 -42 -36 -14 -57 12 -9 24 -29 28 -45 6 -25 4 -27 -13 -22 -13 4 -30 -1
-46 -15 -22 -17 -27 -29 -27 -67 0 -26 -7 -72 -16 -102 -8 -30 -16 -62 -18
-70 -2 -8 -12 -16 -23 -18 -16 -2 -20 2 -18 26 1 16 11 38 23 50 26 26 28 50
7 58 -9 4 -13 14 -11 23 3 9 2 22 -3 29 -12 20 -45 11 -49 -13 -2 -11 -16 -29
-30 -41 -31 -26 -24 -51 15 -56 25 -3 28 -7 28 -43 0 -28 7 -47 23 -63 13 -13
21 -29 19 -35 -3 -7 -17 -50 -32 -97 -15 -47 -52 -159 -82 -250 -29 -91 -62
-192 -72 -225 -11 -33 -42 -127 -70 -210 -28 -82 -62 -195 -76 -250 -15 -55
-30 -109 -35 -120 -4 -11 -16 -49 -26 -84 -16 -55 -35 -83 -49 -69 -5 5 23
169 59 343 23 114 35 190 55 350 10 76 28 180 41 235 4 19 13 71 19 115 5 44
19 109 31 145 11 36 22 81 24 100 2 19 11 73 20 120 18 88 12 140 -16 140 -16
0 -38 46 -38 78 0 18 4 22 18 18 59 -18 70 -17 80 1 5 10 7 24 5 31 -3 7 3 22
12 32 21 23 13 50 -13 50 -11 0 -27 10 -35 23 l-16 22 -26 -28 c-14 -15 -25
-35 -25 -44 0 -13 -3 -13 -15 -3 -12 10 -18 10 -30 0 -21 -17 -19 -37 5 -52
29 -19 28 -90 -2 -110 -17 -12 -22 -26 -25 -79 -6 -117 -8 -124 -35 -127 -25
-3 -25 -2 -21 42 5 37 3 46 -10 46 -8 0 -20 -13 -26 -30 -5 -16 -17 -30 -25
-30 -22 0 -20 -27 3 -41 10 -7 16 -20 14 -29 -10 -39 35 -27 50 12 3 10 8 10
16 2 9 -8 9 -30 1 -90 -7 -43 -16 -110 -20 -149 -14 -112 -22 -155 -30 -155
-4 0 -19 12 -34 27 -33 33 -46 23 -50 -38 -2 -24 -8 -57 -15 -72 -15 -37 -14
-42 4 -27 8 7 15 19 15 26 0 12 5 11 25 -2 l25 -16 0 35 c0 22 6 37 15 41 18
6 19 -8 6 -67 -8 -36 -28 -144 -46 -252 -3 -16 -9 -70 -15 -118 -5 -49 -18
-130 -29 -180 -12 -51 -30 -135 -40 -187 l-19 -95 -1 120 c-1 66 5 190 13 275
8 85 17 261 21 390 9 342 22 532 40 566 16 31 20 82 7 100 -11 16 -48 34 -71
34 -16 0 -21 6 -21 25 0 18 5 25 19 25 25 0 54 29 47 47 -3 8 -2 22 3 32 13
23 -1 44 -26 39 -11 -1 -27 3 -36 10 -13 11 -16 10 -23 -10 -4 -13 -8 -27 -9
-33 0 -5 -11 -12 -24 -15 -36 -8 -37 -29 -3 -41 27 -9 29 -14 28 -54 0 -24 -7
-50 -13 -57 -15 -14 -17 -64 -4 -72 13 -9 0 -56 -15 -56 -8 0 -17 -6 -20 -14
-3 -7 -14 -11 -28 -9 -22 4 -23 2 -23 -56 0 -65 7 -72 45 -45 l22 15 1 -78 c1
-43 2 -91 2 -107 1 -24 -3 -30 -21 -31 -13 -1 -27 5 -31 13 -12 21 -28 7 -36
-29 -16 -74 -25 6 -24 207 2 190 0 213 -17 242 -10 18 -21 32 -25 32 -3 0 -11
11 -17 24 -9 21 -8 23 9 19 30 -8 46 13 45 59 -1 38 -3 43 -23 41 -19 -2 -23
2 -23 28 0 38 -19 35 -40 -7 -9 -17 -20 -29 -26 -27 -6 2 -21 -5 -34 -15 -26
-21 -20 -42 11 -42 16 0 18 -5 13 -27 -6 -23 -4 -25 15 -20 27 7 27 2 -5 -36
-22 -26 -25 -37 -19 -71 15 -95 17 -166 5 -166 -8 0 -10 9 -6 26 5 20 3 27
-13 31 -10 3 -22 14 -24 25 -3 11 -12 18 -19 16 -17 -6 -23 -45 -9 -62 8 -10
7 -17 -4 -26 -22 -18 -7 -32 26 -25 60 13 68 3 66 -89 -1 -46 -5 -82 -9 -79
-5 2 -8 10 -8 18 0 10 -12 13 -44 10 -44 -4 -44 -4 -50 33 -24 156 -37 283
-33 317 4 25 0 52 -10 73 -15 31 -15 34 6 53 24 22 29 62 7 53 -9 -3 -15 4
-18 21 -6 31 4 38 42 30 31 -7 76 2 65 13 -3 4 -20 7 -36 8 -32 2 -55 24 -65
62 -10 35 33 92 69 92 16 0 26 4 22 10 -7 11 -125 12 -200 1 -46 -7 -48 -8
-22 -15 15 -5 37 -22 49 -38 20 -29 20 -32 4 -57 -10 -14 -20 -34 -23 -43 -4
-13 -16 -18 -39 -18 -18 0 -36 -4 -39 -10 -4 -6 23 -10 74 -10 75 0 102 -10
66 -24 -8 -3 -20 -17 -27 -31 -15 -32 -21 -32 -35 5 -7 19 -18 30 -31 30 -20
0 -37 -25 -27 -40 3 -4 -2 -13 -10 -20 -23 -19 -18 -39 10 -46 14 -4 24 -11
22 -18 -2 -6 2 -31 9 -56 20 -72 22 -114 3 -118 -21 -4 -46 73 -29 93 14 16 5
35 -16 35 -8 0 -14 6 -14 14 0 21 -20 30 -33 17 -15 -15 -27 -14 -27 2 0 7 -7
23 -16 35 -12 17 -19 20 -29 12 -15 -12 -16 -79 -2 -98 7 -8 5 -18 -7 -30 -21
-25 -20 -74 3 -103 13 -17 20 -50 25 -111 7 -84 6 -86 -14 -81 -21 6 -70 61
-70 80 0 5 11 19 25 31 30 26 31 38 5 52 -12 6 -20 21 -20 35 0 15 -6 25 -14
25 -20 0 -29 -17 -28 -51 0 -22 -4 -29 -19 -29 -10 0 -19 -7 -19 -15 0 -8 -4
-15 -10 -15 -5 0 -7 -7 -3 -16 4 -11 15 -15 34 -12 20 3 29 0 29 -9 0 -26 51
-82 85 -93 31 -10 34 -16 45 -73 21 -109 28 -140 49 -232 29 -121 55 -222 86
-330 14 -49 30 -119 36 -155 6 -36 22 -110 36 -165 14 -55 28 -124 32 -153 7
-46 5 -54 -11 -63 -14 -7 -18 -6 -18 6 0 8 -4 15 -8 15 -5 0 -19 33 -31 73
-27 85 -27 85 -86 252 -25 72 -52 144 -60 160 -7 17 -24 59 -38 95 -13 36 -35
88 -47 115 -13 28 -38 88 -57 135 -19 47 -36 90 -39 96 -5 12 28 54 44 54 6 0
12 -5 14 -12 9 -26 27 5 23 40 -3 31 -7 37 -24 35 -12 -2 -21 2 -21 7 0 6 -4
10 -10 10 -5 0 -10 -17 -10 -39 0 -40 -25 -76 -35 -50 -2 8 -17 55 -33 104
-16 50 -45 122 -65 162 -45 88 -67 149 -67 186 0 39 -17 67 -40 67 -24 0 -26
13 -5 30 8 7 14 24 14 39 -2 22 -2 23 -6 4 -5 -23 -30 -49 -39 -40 -3 3 1 20
10 38 21 41 16 45 -17 15 -17 -16 -29 -21 -33 -14 -4 6 1 17 10 24 20 14 6 27
-18 18 -22 -9 -20 -47 4 -69 11 -10 20 -27 20 -38 0 -19 -1 -20 -20 -2 -19 17
-20 17 -20 1 0 -10 -5 -14 -11 -10 -6 3 -8 15 -5 27 4 15 2 17 -7 8 -18 -18
-16 -93 3 -98 9 -2 21 -23 28 -46 6 -23 27 -59 47 -81 38 -42 43 -56 20 -56
-8 0 -15 -7 -15 -15 0 -16 -9 -19 -34 -9 -23 9 -20 22 7 27 16 3 13 5 -10 6
-38 1 -45 -21 -14 -41 15 -9 17 -16 9 -25 -8 -10 -4 -18 13 -32 27 -21 45 -18
54 10 4 10 10 19 14 19 10 0 41 -66 41 -88 0 -10 4 -22 9 -27 5 -6 14 -28 21
-50 21 -71 91 -248 131 -330 21 -44 65 -154 98 -245 33 -91 73 -198 90 -239
17 -41 31 -77 31 -82 0 -5 11 -32 24 -61 34 -76 40 -99 24 -93 -7 3 -38 58
-68 122 -30 64 -64 130 -75 147 -24 36 -32 51 -155 296 -50 102 -105 206 -121
231 -25 40 -29 53 -23 89 5 30 13 44 25 47 32 9 20 29 -13 24 -13 -2 -9 16 5
28 8 6 17 8 20 4 4 -3 7 -1 7 5 0 15 -6 15 -31 2 -13 -7 -19 -7 -19 0 0 18
-18 11 -25 -10 -4 -12 0 -31 9 -45 9 -13 16 -31 16 -40 0 -29 -15 -15 -34 33
-11 26 -36 74 -56 107 -20 33 -51 96 -69 140 -18 44 -44 104 -57 133 -13 29
-24 59 -24 67 0 28 -32 95 -46 95 -17 0 -17 3 0 45 15 36 8 52 -19 41 -11 -4
-15 2 -15 20 0 21 -4 25 -22 22 -29 -4 -35 -45 -13 -88 10 -20 13 -36 7 -46
-7 -13 -10 -9 -16 17 -5 27 -9 31 -16 19 -8 -12 -9 -10 -8 10 2 17 -3 25 -16
28 -15 3 -18 0 -13 -19 3 -12 2 -30 -4 -40 -7 -14 -5 -23 11 -36 11 -10 20
-29 20 -42 0 -30 21 -91 32 -91 10 0 50 -64 76 -122 l20 -47 -24 11 c-14 7
-24 20 -24 32 0 15 -3 17 -11 9 -18 -18 20 -62 54 -63 15 0 27 -4 27 -9 0 -5
3 -16 6 -25 3 -9 1 -16 -5 -16 -6 0 -11 7 -11 15 0 8 -7 15 -15 15 -17 0 -19
-9 -6 -28 4 -8 19 -12 32 -10 34 4 37 -31 4 -55 -24 -17 -24 -17 -40 13 -9 17
-18 45 -20 62 -2 16 -10 35 -18 41 -28 24 -97 169 -97 205 0 25 -34 85 -63
113 -25 24 -27 30 -17 50 17 30 -2 62 -45 75 -41 13 -55 3 -55 -38 0 -18 -5
-28 -15 -28 -16 0 -16 1 -19 -52 -2 -30 1 -38 17 -40 21 -3 38 -27 83 -117
l26 -55 -21 -17 c-21 -17 -21 -18 -1 -24 29 -9 25 -25 -6 -23 -33 3 -53 26
-33 39 12 7 11 9 -3 9 -9 0 -20 -5 -24 -12 -10 -15 32 -48 63 -48 20 0 23 -4
18 -20 -8 -25 20 -38 45 -22 15 9 21 7 33 -11 8 -12 17 -32 21 -44 4 -13 27
-63 52 -113 24 -50 44 -93 44 -97 0 -9 131 -266 150 -293 10 -14 21 -36 25
-50 4 -14 15 -36 25 -50 9 -14 45 -79 80 -145 83 -158 87 -166 99 -195 6 -14
15 -32 21 -40 30 -46 73 -129 100 -193 31 -71 31 -72 11 -88 -11 -9 -47 -50
-80 -90 -33 -41 -75 -92 -95 -114 -19 -22 -35 -46 -36 -53 0 -7 -4 -20 -9 -30
-5 -9 -23 -47 -41 -84 -33 -73 -86 -131 -136 -153 -34 -15 -128 -116 -236
-252 -18 -24 -68 -83 -110 -133 -43 -50 -78 -99 -78 -109 0 -19 24 -44 52 -54
14 -5 16 -13 12 -36 -6 -27 -3 -31 22 -37 16 -4 34 -11 41 -16 7 -6 20 -5 33
2 26 14 24 15 36 -35 8 -36 12 -40 39 -40 17 0 40 -6 53 -13 27 -15 26 -21
-14 -167 -30 -108 -61 -191 -84 -225 -10 -14 -20 -34 -24 -45 -3 -11 -38 -39
-76 -63 -39 -24 -84 -61 -102 -82 -26 -33 -35 -39 -57 -33 -14 3 -27 10 -29
15 -2 4 -10 8 -17 8 -8 0 -19 18 -25 43 -13 47 -36 87 -50 87 -26 0 -50 -41
-50 -84 0 -35 -5 -48 -22 -60 -17 -12 -23 -26 -23 -61 -1 -24 -5 -48 -9 -52
-6 -6 -2 4136 4 4165 1 5 2878 1 2913 -5z m-1403 -102 c0 -15 -29 -33 -45 -27
-28 10 -17 36 15 36 17 0 30 -4 30 -9z m810 -80 c-12 -23 -30 -36 -30 -22 0
21 13 41 26 41 11 0 12 -4 4 -19z m330 -17 c0 -8 -5 -12 -10 -9 -6 4 -8 11 -5
16 9 14 15 11 15 -7z m-277 0 c3 -4 -5 -16 -19 -26 -31 -25 -44 -16 -19 12 19
21 28 24 38 14z m347 -19 c-7 -8 -17 -15 -22 -15 -6 0 -5 7 2 15 7 8 17 15 22
15 6 0 5 -7 -2 -15z m-1221 -8 c14 -17 4 -27 -26 -27 -25 0 -26 1 -17 24 7 20
28 21 43 3z m755 -3 c4 -10 1 -14 -6 -12 -15 5 -23 28 -10 28 5 0 13 -7 16
-16z m96 -44 c0 -5 -9 -10 -20 -10 -11 0 -20 5 -20 10 0 6 9 10 20 10 11 0 20
-4 20 -10z m372 -2 c-9 -9 -15 -9 -24 0 -9 9 -7 12 12 12 19 0 21 -3 12 -12z
m-726 -35 c-10 -10 -19 5 -10 18 6 11 8 11 12 0 2 -7 1 -15 -2 -18z m-596 -18
c0 -8 -4 -15 -10 -15 -5 0 -10 7 -10 15 0 8 5 15 10 15 6 0 10 -7 10 -15z
m1247 -5 c3 -10 14 -22 24 -25 22 -7 25 -40 6 -52 -8 -4 -17 -16 -20 -26 -4
-11 -12 -15 -19 -11 -8 5 -9 2 -5 -9 4 -10 1 -17 -6 -17 -7 0 -18 -9 -24 -19
-10 -16 -9 -22 3 -32 14 -11 13 -15 -8 -30 -20 -16 -21 -21 -10 -39 10 -17 10
-20 -4 -20 -11 0 -14 -6 -9 -20 5 -14 2 -20 -9 -20 -19 0 -21 -16 -3 -23 7 -3
4 -6 -7 -6 -13 -1 -16 -6 -12 -18 4 -9 1 -20 -6 -25 -10 -8 -10 -11 0 -15 21
-8 14 -35 -8 -28 -20 6 -28 -9 -10 -20 15 -9 12 -25 -5 -25 -18 0 -19 -12 -3
-28 9 -9 8 -12 -6 -12 -13 0 -16 -5 -11 -20 4 -14 2 -20 -8 -20 -18 0 -33 -33
-18 -38 16 -5 13 -30 -4 -40 -9 -4 -17 -19 -18 -33 0 -13 -6 -28 -12 -32 -7
-6 -6 -10 3 -14 20 -8 14 -22 -8 -16 -25 7 -26 -5 -2 -23 16 -12 16 -13 0 -14
-25 0 -43 -37 -27 -56 8 -10 8 -14 0 -14 -6 0 -11 -7 -11 -15 0 -8 5 -15 10
-15 6 0 10 -4 10 -10 0 -5 -11 -10 -25 -10 -30 0 -33 -16 -5 -25 11 -4 17 -11
14 -17 -4 -6 -9 -7 -13 0 -3 5 -14 8 -23 6 -10 -1 -18 1 -18 4 1 18 50 173 68
212 24 53 67 190 78 245 4 21 16 61 26 89 27 69 79 270 85 326 7 64 38 95 50
50z m-717 0 c0 -5 -9 -10 -20 -10 -11 0 -20 5 -20 10 0 6 9 10 20 10 11 0 20
-4 20 -10z m-252 -18 c2 -7 -6 -12 -17 -12 -21 0 -27 11 -14 24 9 9 26 2 31
-12z m72 3 c-7 -9 -15 -13 -17 -11 -7 7 7 26 19 26 6 0 6 -6 -2 -15z m240 -10
c-7 -8 -17 -15 -22 -15 -6 0 -5 7 2 15 7 8 17 15 22 15 6 0 5 -7 -2 -15z
m-610 -15 c0 -5 -4 -10 -10 -10 -5 0 -10 5 -10 10 0 6 5 10 10 10 6 0 10 -4
10 -10z m55 -11 c4 -5 18 -14 30 -19 33 -12 46 -77 20 -96 -10 -7 -22 -11 -26
-8 -5 3 -9 -2 -9 -12 0 -11 6 -15 20 -11 11 3 22 1 25 -3 3 -5 -5 -10 -17 -12
-13 -2 -22 -7 -20 -13 2 -5 12 -9 22 -7 13 2 20 -2 20 -12 0 -9 -7 -13 -20
-11 -12 2 -20 -2 -20 -10 0 -7 10 -16 23 -18 l22 -4 -22 -8 c-32 -10 -29 -25
5 -26 27 0 27 -1 5 -11 -28 -14 -30 -30 -3 -26 27 4 26 -16 -2 -23 -24 -7 -22
-8 28 -24 21 -7 12 -31 -11 -27 -11 2 -15 -2 -13 -10 3 -7 12 -12 22 -10 9 2
16 -4 16 -13 0 -8 -9 -15 -20 -15 -11 0 -20 -7 -20 -16 0 -10 7 -14 23 -12 14
2 22 -2 22 -12 0 -8 -10 -16 -22 -18 -31 -5 -29 -22 2 -22 16 0 25 -6 25 -15
0 -9 -10 -15 -26 -15 -14 0 -23 -4 -19 -10 3 -5 17 -10 31 -10 29 0 32 -20 4
-27 -21 -5 -26 -18 -12 -27 5 -3 7 -25 7 -50 -1 -25 2 -46 7 -46 4 0 6 -11 2
-25 -4 -15 -1 -32 6 -40 9 -10 9 -15 1 -15 -15 0 -14 -27 1 -32 7 -3 11 -27
11 -66 -1 -34 3 -62 8 -62 6 0 7 -21 3 -49 -7 -57 9 -118 34 -124 12 -3 11 -5
-5 -6 -29 -1 -30 -19 -1 -30 20 -7 20 -8 2 -15 -18 -7 -18 -8 -1 -21 12 -8 14
-15 8 -20 -16 -9 -13 -25 4 -25 8 0 15 -4 15 -10 0 -5 -7 -10 -16 -10 -9 0
-14 -6 -11 -12 2 -7 10 -12 16 -11 6 2 11 -2 11 -7 0 -6 -7 -10 -15 -10 -8 0
-15 -5 -15 -10 0 -6 7 -13 15 -16 8 -4 15 -10 15 -15 0 -11 -27 -12 -33 -1 -3
4 -12 70 -21 147 -20 181 -22 194 -39 295 -8 47 -20 130 -26 185 -12 108 -26
208 -41 295 -5 30 -14 98 -20 150 -6 52 -18 125 -27 161 -9 36 -13 78 -9 92 7
28 20 35 31 16z m845 -25 c0 -7 6 -11 14 -8 8 3 16 -3 19 -15 3 -12 1 -21 -3
-21 -5 0 -10 -19 -12 -42 -2 -24 -7 -42 -13 -40 -5 1 -8 20 -6 42 2 31 -1 40
-13 40 -11 0 -16 -9 -16 -27 0 -16 -3 -38 -6 -50 -5 -20 -2 -23 20 -23 14 0
26 -4 26 -10 0 -5 -8 -10 -17 -10 -13 0 -14 -3 -5 -12 19 -19 14 -30 -10 -22
-20 6 -21 5 -9 -10 7 -9 10 -16 5 -16 -5 0 -2 -5 6 -10 13 -9 13 -12 -3 -21
-13 -8 -15 -14 -7 -29 14 -26 13 -30 -7 -30 -13 0 -14 -3 -5 -12 19 -19 14
-38 -10 -39 l-23 0 23 -10 c13 -5 20 -14 17 -20 -4 -6 -13 -8 -21 -5 -9 3 -14
-1 -14 -14 0 -10 -5 -22 -11 -25 -6 -5 -4 -12 8 -21 12 -9 14 -16 7 -21 -14
-10 -25 -53 -13 -53 5 0 9 -4 9 -10 0 -5 -7 -10 -15 -10 -8 0 -15 -7 -15 -15
0 -9 6 -12 15 -9 9 4 15 0 15 -9 0 -8 -7 -18 -16 -21 -13 -5 -14 -9 -5 -20 9
-11 9 -16 -1 -23 -34 -22 -51 -93 -22 -93 9 0 14 -6 11 -12 -2 -7 -12 -12 -21
-10 -11 2 -20 -5 -23 -17 -3 -12 -9 -21 -14 -21 -11 0 -12 -6 6 87 35 175 45
241 45 291 0 29 5 62 10 73 6 10 17 72 25 136 9 65 18 133 21 151 4 20 2 32
-5 32 -18 0 -13 28 10 51 16 16 23 18 35 8 8 -6 14 -18 14 -25z m210 -1 c0
-21 -3 -24 -9 -14 -5 8 -7 20 -4 28 8 21 13 15 13 -14z m-1240 -9 c0 -8 -4
-12 -10 -9 -5 3 -10 10 -10 16 0 5 5 9 10 9 6 0 10 -7 10 -16z m-671 -52 c1
-7 -3 -10 -9 -7 -5 3 -10 18 -9 33 0 24 1 25 9 7 5 -11 9 -26 9 -33z m-215 12
c8 -29 3 -39 -13 -29 -13 8 -15 55 -2 55 5 0 12 -12 15 -26z m2096 6 c0 -5 -4
-10 -10 -10 -5 0 -10 5 -10 10 0 6 5 10 10 10 6 0 10 -4 10 -10z m-2050 -25
c0 -8 -4 -17 -10 -20 -6 -4 -10 5 -10 20 0 15 4 24 10 20 6 -3 10 -12 10 -20z
m201 -8 c-8 -8 -11 -7 -11 4 0 20 13 34 18 19 3 -7 -1 -17 -7 -23z m1115 16
c22 -22 46 -81 39 -93 -4 -6 -12 -10 -19 -10 -14 0 -29 -51 -18 -60 10 -7 13
-90 4 -90 -4 0 -7 -35 -7 -78 0 -55 4 -77 13 -77 6 0 11 -4 10 -10 -2 -5 -10
-10 -18 -10 -20 0 -16 -18 7 -26 16 -7 15 -8 -4 -8 -14 -1 -23 -7 -23 -16 0
-8 10 -16 23 -16 l22 -2 -22 -4 c-24 -5 -32 -23 -10 -23 9 0 9 -2 -1 -9 -10
-6 -9 -10 7 -14 21 -5 30 -27 11 -27 -14 0 -12 -27 3 -33 8 -4 8 -8 2 -14 -5
-4 -10 -34 -10 -65 0 -49 3 -58 17 -58 10 0 18 -4 18 -10 0 -5 -8 -10 -19 -10
-14 0 -18 -6 -15 -29 2 -21 -1 -30 -15 -34 -16 -4 -19 4 -25 77 -3 44 -6 209
-7 366 0 245 -3 287 -16 303 -14 14 -14 23 -4 57 13 43 30 50 57 23z m286 0
c35 -31 18 -82 -26 -74 -14 2 -17 -2 -13 -13 4 -9 2 -16 -3 -16 -17 0 -11 -18
8 -23 14 -3 13 -6 -7 -14 -16 -6 -20 -12 -13 -17 17 -10 15 -26 -3 -26 -18 0
-20 -16 -2 -24 10 -5 10 -7 0 -12 -18 -8 -16 -24 2 -24 8 0 15 -4 15 -10 0 -5
-9 -10 -21 -10 -15 0 -19 -4 -15 -16 3 -9 6 -20 6 -25 0 -5 7 -9 15 -9 11 0
15 -10 14 -37 -2 -31 -3 -33 -6 -10 -7 48 -21 29 -25 -34 -2 -46 1 -63 12 -70
13 -8 13 -10 0 -18 -8 -6 -11 -13 -7 -17 4 -4 2 -14 -5 -21 -9 -11 -9 -16 2
-23 11 -7 12 -18 3 -54 -7 -31 -7 -48 1 -56 7 -7 5 -10 -6 -10 -9 0 -18 6 -20
13 -7 19 0 473 7 517 4 22 11 43 17 46 5 4 3 13 -7 24 -22 24 -16 51 15 67 33
17 40 16 62 -4z m618 -33 c0 -5 -2 -10 -4 -10 -3 0 -8 5 -11 10 -3 6 -1 10 4
10 6 0 11 -4 11 -10z m-2310 -15 c0 -8 -4 -15 -10 -15 -5 0 -10 7 -10 15 0 8
5 15 10 15 6 0 10 -7 10 -15z m59 -12 c2 -2 -5 -3 -17 -3 -14 0 -22 6 -22 16
0 14 3 15 18 3 9 -7 19 -15 21 -16z m526 10 c10 -26 13 -93 3 -99 -13 -9 -9
-24 7 -24 8 0 15 -4 15 -10 0 -5 -4 -10 -10 -10 -5 0 -10 -5 -10 -11 0 -6 7
-9 15 -5 8 3 15 1 15 -4 0 -6 -6 -10 -14 -10 -9 0 -12 -8 -8 -25 2 -14 7 -23
11 -21 4 3 7 -4 7 -15 0 -32 -16 -21 -36 25 -10 25 -35 62 -55 83 -29 31 -35
44 -33 73 2 19 7 34 13 32 5 -2 12 6 17 17 9 26 53 28 63 4z m367 -13 c16 -15
25 -17 35 -8 7 6 14 9 16 7 24 -42 27 -55 22 -80 -7 -32 -15 -35 -33 -17 -14
14 -14 14 -16 -74 -1 -52 2 -68 13 -68 11 0 9 -5 -5 -21 l-18 -21 -8 29 c-4
15 -10 57 -12 93 -3 36 -5 68 -5 73 -1 4 -7 7 -15 7 -19 0 -31 67 -15 86 15
18 16 18 41 -6z m-747 -10 c3 -5 2 -10 -4 -10 -5 0 -13 5 -16 10 -3 6 -2 10 4
10 5 0 13 -4 16 -10z m-87 -40 c17 -21 32 -46 32 -56 0 -24 40 -131 67 -181
13 -23 23 -44 23 -46 0 -3 -11 -7 -25 -10 -20 -3 -25 -1 -23 13 2 9 0 16 -3
16 -9 -2 -39 25 -39 35 0 5 7 9 16 9 8 0 12 5 9 10 -3 6 -16 10 -28 10 -20 1
-21 2 -4 14 16 12 24 36 11 36 -3 0 -14 -5 -25 -10 -23 -13 -25 -3 -2 22 16
17 16 20 0 35 -13 13 -20 14 -28 6 -9 -9 -18 0 -35 33 -51 97 -12 144 54 64z
m198 5 c7 -19 14 -46 14 -60 0 -14 11 -47 24 -73 13 -26 27 -58 31 -71 11 -37
-11 -17 -37 35 -27 54 -43 68 -36 30 3 -14 2 -29 -3 -32 -13 -8 -28 31 -22 56
5 19 3 21 -15 16 -25 -8 -52 26 -52 66 0 29 14 45 25 28 9 -14 28 -1 21 15 -6
16 2 25 21 25 8 0 21 -16 29 -35z m1474 15 c0 -5 -5 -10 -11 -10 -5 0 -7 5 -4
10 3 6 8 10 11 10 2 0 4 -4 4 -10z m740 -30 c0 -5 -4 -10 -9 -10 -6 0 -13 5
-16 10 -3 6 1 10 9 10 9 0 16 -4 16 -10z m-1471 -96 c-14 -17 -3 -34 21 -34
26 0 37 -24 46 -98 6 -54 5 -62 -9 -56 -10 4 -20 -4 -30 -22 l-15 -28 -6 30
c-25 122 -34 220 -21 250 6 17 8 17 16 -5 6 -15 6 -28 -2 -37z m1503 3 c4 -80
-4 -97 -51 -97 -13 0 -21 -3 -18 -7 4 -3 2 -12 -4 -20 -9 -10 -8 -17 1 -28 10
-12 9 -15 -8 -15 -16 0 -19 -5 -14 -22 4 -17 2 -20 -12 -15 -14 6 -16 3 -11
-13 5 -14 2 -20 -9 -20 -19 0 -21 -11 -4 -28 9 -9 8 -13 -5 -18 -9 -3 -19 -19
-22 -35 -4 -16 -11 -29 -16 -29 -6 0 -7 -9 -4 -22 6 -16 4 -20 -8 -15 -11 4
-13 0 -10 -14 4 -14 0 -19 -13 -19 -14 0 -15 -3 -6 -12 17 -17 15 -31 -3 -24
-21 8 -44 -39 -27 -56 18 -18 14 -28 -9 -28 -18 0 -19 -2 -9 -15 10 -12 9 -15
-5 -15 -11 0 -15 -5 -11 -15 3 -8 1 -15 -5 -15 -6 0 -9 -7 -5 -15 3 -9 0 -15
-8 -15 -7 0 -19 -7 -26 -15 -10 -12 -10 -18 0 -30 10 -12 9 -15 -4 -15 -13 0
-15 -6 -10 -27 4 -16 3 -25 -1 -21 -11 10 -58 -59 -50 -72 3 -6 1 -10 -5 -10
-7 0 -9 -8 -5 -20 5 -15 2 -20 -10 -20 -11 0 -15 -5 -12 -14 3 -8 1 -17 -6
-19 -9 -3 -8 -9 3 -22 14 -17 13 -18 -7 -13 -16 4 -23 2 -23 -8 0 -8 5 -14 10
-14 6 0 10 -4 10 -10 0 -5 -10 -10 -21 -10 -18 0 -19 -2 -9 -15 10 -12 9 -15
-6 -15 -14 0 -15 -3 -6 -12 19 -19 14 -30 -10 -23 -16 6 -20 4 -15 -8 3 -9 1
-18 -6 -21 -9 -3 -8 -7 3 -15 8 -5 11 -13 7 -17 -9 -9 -37 15 -37 32 0 8 4 14
10 14 5 0 7 7 4 15 -4 8 1 26 10 40 9 13 16 30 16 38 0 8 18 49 39 93 42 86
129 282 156 354 10 25 34 81 55 125 20 44 42 97 49 117 7 21 25 50 40 66 15
16 25 35 23 41 -2 6 3 11 12 11 10 0 16 8 15 23 -1 37 20 106 43 141 18 28 26
32 40 25 11 -6 19 -23 20 -42z m-1762 -7 c0 -5 -5 -10 -11 -10 -5 0 -7 5 -4
10 3 6 8 10 11 10 2 0 4 -4 4 -10z m-680 -4 c0 -3 -4 -8 -10 -11 -5 -3 -10 -1
-10 4 0 6 5 11 10 11 6 0 10 -2 10 -4z m544 -68 c7 -7 19 -32 29 -55 14 -36
14 -43 2 -53 -23 -19 -18 -40 10 -40 14 0 25 -4 25 -10 0 -5 -12 -10 -26 -10
-15 0 -23 -4 -18 -11 3 -6 17 -8 30 -5 15 4 24 2 24 -5 0 -6 -9 -13 -20 -16
-11 -3 -20 -10 -20 -15 0 -6 9 -8 20 -5 23 6 27 -11 5 -19 -24 -10 -6 -25 23
-19 25 5 25 5 5 -4 -31 -14 -29 -29 5 -34 26 -4 26 -4 5 -12 -23 -7 -28 -16
-16 -28 3 -4 12 -2 20 5 10 8 17 8 26 -1 9 -9 7 -13 -11 -17 -31 -9 -28 -26 5
-22 35 4 42 -19 8 -32 -14 -5 -24 -14 -20 -20 3 -5 12 -7 20 -3 17 6 21 -12 5
-22 -16 -10 -12 -25 6 -25 10 0 14 -5 10 -15 -3 -9 1 -18 10 -22 8 -3 13 -11
10 -18 -2 -7 4 -15 15 -18 13 -3 17 -11 13 -21 -3 -9 -1 -16 6 -16 7 0 9 -8 5
-20 -5 -15 -2 -20 11 -20 13 0 14 -3 4 -15 -7 -8 -10 -16 -6 -16 3 -1 11 -3
16 -4 6 -1 13 -3 16 -4 4 0 1 -7 -5 -15 -10 -11 -8 -17 6 -25 16 -9 16 -12 3
-21 -13 -8 -12 -10 3 -10 14 0 17 -5 12 -20 -5 -15 -2 -20 12 -20 17 -1 17 -1
-1 -15 -11 -8 -15 -19 -10 -27 6 -10 5 -11 -7 -1 -8 6 -21 33 -28 60 -8 26
-42 104 -77 173 -34 69 -76 166 -93 215 -18 50 -41 108 -51 131 -11 22 -20 46
-20 53 0 6 -9 30 -20 53 -21 44 -19 58 8 57 11 0 12 -3 5 -6 -18 -7 -16 -23 2
-23 8 0 19 9 25 20 8 16 7 27 -7 50 -9 17 -23 30 -31 30 -7 0 -10 5 -7 10 8
13 14 13 29 -2z m-554 -18 c0 -5 -2 -10 -4 -10 -3 0 -8 5 -11 10 -3 6 -1 10 4
10 6 0 11 -4 11 -10z m2217 -42 c-3 -8 -6 -5 -6 6 -1 11 2 17 5 13 3 -3 4 -12
1 -19z m-1957 -28 c0 -5 -2 -10 -4 -10 -3 0 -8 5 -11 10 -3 6 -1 10 4 10 6 0
11 -4 11 -10z m-243 -6 c-3 -3 -12 -4 -19 -1 -8 3 -5 6 6 6 11 1 17 -2 13 -5z
m1179 -31 c-10 -10 -19 5 -10 18 6 11 8 11 12 0 2 -7 1 -15 -2 -18z m1074 6
c0 -18 -20 -18 -29 0 -9 16 -8 18 9 14 11 -3 20 -9 20 -14z m-2120 -18 c0 -5
-13 -11 -30 -13 -35 -5 -40 9 -7 21 23 9 37 6 37 -8z m1010 -22 c0 -5 -4 -9
-10 -9 -5 0 -10 7 -10 16 0 8 5 12 10 9 6 -3 10 -10 10 -16z m-816 -4 c3 -8 1
-15 -4 -15 -6 0 -10 7 -10 15 0 8 2 15 4 15 2 0 6 -7 10 -15z m686 0 c0 -8 -4
-15 -10 -15 -5 0 -7 7 -4 15 4 8 8 15 10 15 2 0 4 -7 4 -15z m-895 -15 c8 -13
-5 -13 -25 0 -13 8 -13 10 2 10 9 0 20 -4 23 -10z m1106 -168 c1 -98 4 -261 8
-364 3 -103 3 -198 0 -210 l-5 -23 -6 25 c-10 37 -56 407 -85 672 -6 55 7 74
54 75 l33 1 1 -176z m220 16 c-3 -306 -28 -689 -46 -719 -4 -5 -9 -9 -13 -9
-30 1 -32 20 -39 428 -6 437 -7 436 39 395 25 -22 45 -5 29 25 -6 11 -11 23
-11 26 0 5 33 14 39 9 2 -1 3 -71 2 -155z m-1101 127 c0 -3 -9 -15 -20 -27
-22 -24 -26 -18 -8 12 12 19 28 27 28 15z m400 -15 c0 -5 -4 -10 -10 -10 -5 0
-10 5 -10 10 0 6 5 10 10 10 6 0 10 -4 10 -10z m157 -22 c-3 -8 -6 -5 -6 6 -1
11 2 17 5 13 3 -3 4 -12 1 -19z m118 12 c3 -5 1 -10 -4 -10 -6 0 -11 5 -11 10
0 6 2 10 4 10 3 0 8 -4 11 -10z m395 0 c0 -5 -4 -10 -10 -10 -5 0 -10 5 -10
10 0 6 5 10 10 10 6 0 10 -4 10 -10z m-1173 -22 c-3 -8 -6 -5 -6 6 -1 11 2 17
5 13 3 -3 4 -12 1 -19z m133 1 c0 -5 -4 -9 -10 -9 -5 0 -10 7 -10 16 0 8 5 12
10 9 6 -3 10 -10 10 -16z m-163 -61 c20 -40 37 -76 38 -80 0 -3 3 -10 7 -14 4
-4 5 -11 2 -15 -7 -12 -54 -11 -54 1 0 6 7 10 15 10 8 0 15 5 15 10 0 6 -11
10 -24 10 -29 0 -43 17 -27 33 16 16 13 30 -5 23 -14 -5 -15 -4 -5 7 9 11 8
17 -2 26 -8 6 -18 7 -23 3 -4 -4 -2 1 5 10 12 16 10 19 -13 28 -34 13 -33 20
4 20 27 0 33 -7 67 -72z m784 49 c-1 -12 -15 -9 -19 4 -3 6 1 10 8 8 6 -3 11
-8 11 -12z m-691 -39 c0 -6 -6 -5 -15 2 -8 6 -20 8 -27 4 -10 -6 -9 -3 1 9 10
13 17 15 27 6 8 -6 14 -16 14 -21z m620 11 c0 -5 -4 -9 -10 -9 -5 0 -10 7 -10
16 0 8 5 12 10 9 6 -3 10 -10 10 -16z m106 -25 c2 -10 11 -73 19 -139 9 -66
22 -160 30 -210 24 -162 25 -175 17 -175 -5 0 -19 46 -30 103 -12 56 -35 167
-51 247 -17 80 -31 155 -31 167 0 36 41 42 46 7z m-648 0 c5 -9 7 -25 5 -35
-4 -14 -1 -17 19 -12 l23 6 -20 -23 c-18 -21 -18 -23 -2 -17 12 5 17 3 15 -5
-9 -26 -27 -17 -51 27 -24 42 -27 75 -6 75 4 0 12 -7 17 -16z m-94 -19 c-8
-20 6 -19 21 1 10 14 18 4 53 -67 23 -46 71 -138 106 -204 85 -158 196 -381
236 -475 18 -41 40 -86 49 -100 19 -27 81 -167 81 -181 0 -24 -29 -4 -48 34
-24 44 -68 119 -138 234 -23 38 -64 111 -92 163 -27 52 -89 169 -138 260 -119
224 -141 268 -149 293 -14 43 -12 57 6 57 12 0 16 -5 13 -15z m646 -58 c0 -41
12 -65 33 -71 21 -6 21 -7 5 -20 -22 -16 -23 -27 -3 -20 8 4 15 1 15 -5 0 -6
-4 -11 -10 -11 -5 0 -10 -4 -10 -10 0 -5 7 -10 15 -10 23 0 18 -18 -7 -23 -20
-4 -19 -4 5 -6 28 -1 39 -21 12 -21 -24 0 -17 -20 8 -21 22 0 22 0 -2 -10 -28
-11 -33 -6 -49 50 -16 54 -40 195 -35 204 8 13 23 -4 23 -26z m208 -77 c1 -23
0 -23 -8 -5 -5 11 -8 36 -8 55 l0 35 8 -30 c4 -16 8 -41 8 -55z m346 66 c-3
-8 -1 -17 5 -21 18 -10 12 -25 -9 -25 -17 0 -20 5 -16 28 6 34 4 32 16 32 5 0
7 -6 4 -14z m-1190 -88 c15 -29 31 -60 36 -68 18 -29 50 -104 50 -117 0 -7 4
-13 9 -13 13 0 101 -154 101 -176 0 -28 -73 60 -74 90 -1 24 -33 73 -42 64 -3
-4 0 -16 6 -28 6 -12 9 -24 6 -28 -12 -11 -28 16 -33 57 -3 22 -10 41 -15 41
-5 0 -7 9 -3 19 3 12 -5 40 -21 71 -21 40 -30 49 -45 45 -21 -7 -28 19 -8 30
6 4 7 19 4 36 -10 43 -1 36 29 -23z m1416 17 c0 -8 -2 -15 -4 -15 -2 0 -6 7
-10 15 -3 8 -1 15 4 15 6 0 10 -7 10 -15z m-1460 -5 c0 -5 -5 -10 -11 -10 -5
0 -7 5 -4 10 3 6 8 10 11 10 2 0 4 -4 4 -10z m1460 -24 c0 -3 -4 -8 -10 -11
-5 -3 -10 -1 -10 4 0 6 5 11 10 11 6 0 10 -2 10 -4z m-1215 -45 c18 -35 45
-114 41 -118 -6 -6 -22 21 -41 67 -10 25 -25 52 -32 61 -13 16 -7 33 8 23 5
-3 16 -18 24 -33z m1012 -25 c-4 -9 -14 -12 -26 -9 -16 4 -21 13 -21 41 l0 35
26 -26 c15 -15 24 -33 21 -41z m409 49 c19 -14 18 -14 -3 -15 -13 0 -23 -4
-23 -10 0 -5 7 -10 15 -10 23 0 18 -17 -7 -24 -21 -6 -22 -7 -5 -17 20 -12 14
-31 -7 -23 -8 3 -17 1 -21 -5 -4 -7 3 -11 16 -11 29 0 13 -17 -21 -22 l-25 -5
25 -11 c24 -10 24 -11 3 -11 -26 -1 -31 -16 -8 -25 27 -10 17 -29 -12 -21 -27
6 -27 6 -9 -14 17 -19 17 -19 -3 -14 -24 6 -29 -14 -6 -23 23 -9 18 -24 -7
-24 -22 -1 -23 -1 -4 -15 19 -15 19 -15 -3 -15 -20 0 -21 -2 -11 -15 9 -11 9
-15 1 -15 -7 0 -11 -6 -9 -12 1 -7 -3 -23 -10 -35 -7 -12 -11 -32 -9 -45 1
-12 -4 -23 -10 -24 -26 -3 -27 -4 -15 -16 9 -9 7 -14 -6 -24 -13 -10 -14 -13
-3 -14 11 0 9 -4 -5 -15 -11 -8 -14 -15 -6 -15 18 0 15 -20 -4 -20 -10 0 -14
-6 -10 -15 3 -8 2 -15 -2 -15 -12 0 -33 -55 -22 -58 16 -6 12 -22 -5 -22 -8 0
-15 -4 -15 -10 0 -5 5 -10 10 -10 6 0 10 -4 10 -10 0 -13 -27 -13 -34 -1 -4 5
7 44 23 86 17 43 46 136 66 209 48 175 84 292 106 341 9 22 20 50 24 63 7 26
14 27 41 7z m-216 -22 c2 -2 -2 -8 -10 -14 -13 -8 -13 -10 0 -19 12 -8 12 -12
2 -18 -7 -5 -10 -16 -6 -25 4 -12 1 -17 -12 -18 -17 -1 -17 -2 -1 -6 20 -5 23
-29 3 -36 -17 -7 -28 -47 -13 -47 8 0 7 -4 -1 -12 -16 -16 -15 -28 3 -28 8 0
15 -4 15 -10 0 -5 -7 -10 -15 -10 -8 0 -15 -4 -15 -10 0 -5 5 -10 12 -10 13 0
2 -14 -13 -16 -5 -1 -12 -2 -15 -3 -4 0 -1 -7 5 -15 9 -11 9 -16 0 -21 -8 -6
-7 -10 2 -17 10 -7 11 -11 2 -14 -7 -3 -9 -12 -6 -20 3 -8 0 -14 -7 -14 -10 0
-10 -3 0 -15 10 -12 10 -15 -3 -15 -13 0 -14 -6 -6 -32 11 -39 -1 -54 -30 -39
-17 10 -21 9 -21 -4 0 -8 9 -15 20 -15 16 0 20 -7 20 -37 0 -66 -9 -84 -39
-81 -22 3 -26 8 -26 38 0 27 5 37 23 45 27 12 28 21 2 28 -11 3 -18 11 -15 19
20 58 58 264 65 358 13 147 14 152 48 144 15 -4 29 -9 32 -11z m-428 -63 c-4
-45 -2 -50 17 -50 12 0 21 -5 21 -11 0 -6 -9 -9 -20 -6 -13 3 -20 0 -20 -9 0
-8 7 -14 15 -14 8 0 15 -4 15 -10 0 -5 -7 -10 -16 -10 -8 0 -12 -4 -9 -10 3
-5 15 -10 26 -10 10 0 19 -4 19 -10 0 -13 -6 -13 -31 0 -15 8 -19 7 -19 -4 0
-7 7 -17 17 -20 14 -6 14 -8 -3 -21 -18 -14 -18 -14 9 -15 33 0 37 -27 5 -32
-19 -2 -23 -9 -23 -38 0 -27 6 -37 25 -47 17 -9 20 -13 8 -13 -9 0 -21 -8 -27
-17 -5 -10 -12 -16 -14 -13 -2 3 -8 96 -11 208 -6 164 -5 202 6 202 9 0 12
-13 10 -50z m-962 0 c0 -5 -5 -10 -11 -10 -5 0 -7 5 -4 10 3 6 8 10 11 10 2 0
4 -4 4 -10z m1202 -37 c1 -35 -9 -56 -23 -48 -5 4 -9 -1 -9 -9 0 -9 5 -15 11
-13 6 1 13 -3 16 -10 2 -6 -4 -13 -14 -15 -24 -4 -27 -68 -4 -85 15 -11 14
-12 -1 -13 -20 0 -25 -30 -6 -30 6 0 3 -7 -8 -15 -17 -13 -17 -14 -1 -15 21 0
23 -20 1 -20 -9 0 -14 -6 -11 -12 2 -7 -2 -27 -9 -44 -15 -36 -9 -71 15 -77 9
-3 3 -5 -13 -6 l-28 -1 7 108 c10 132 12 160 14 240 1 55 4 65 22 69 11 3 18
11 15 18 -2 7 -2 16 2 19 10 11 23 -10 24 -41z m-197 17 c3 -6 -4 -10 -17 -10
-18 0 -20 2 -8 10 19 12 18 12 25 0z m-305 -20 c0 -5 -4 -10 -10 -10 -5 0 -10
-4 -10 -10 0 -5 7 -10 15 -10 8 0 15 -5 15 -11 0 -5 -4 -7 -10 -4 -5 3 -10 -1
-10 -9 0 -9 8 -16 18 -17 10 0 12 -3 5 -6 -8 -3 -11 -14 -7 -29 4 -14 2 -24
-5 -24 -10 0 -21 33 -36 108 -6 28 -4 32 14 32 12 0 21 -4 21 -10z m1220 -50
c0 -5 -4 -10 -9 -10 -6 0 -13 5 -16 10 -3 6 1 10 9 10 9 0 16 -4 16 -10z
m-1605 -110 c3 -5 1 -10 -4 -10 -6 0 -11 5 -11 10 0 6 2 10 4 10 3 0 8 -4 11
-10z m405 -53 c0 -20 6 -30 20 -34 23 -6 27 -23 5 -23 -11 0 -14 -7 -9 -25 3
-14 2 -25 -4 -25 -5 0 -12 23 -16 51 -4 29 -9 66 -12 83 -4 24 -3 28 5 16 6
-8 11 -28 11 -43z m290 -1 c0 -2 -9 -6 -20 -9 -11 -3 -20 -1 -20 4 0 5 9 9 20
9 11 0 20 -2 20 -4z m-477 -53 c7 -9 5 -13 -6 -13 -17 0 -30 27 -20 43 4 7 8
6 11 -3 3 -8 9 -21 15 -27z m-143 7 c0 -5 -4 -10 -10 -10 -5 0 -10 5 -10 10 0
6 5 10 10 10 6 0 10 -4 10 -10z m-134 -97 c4 -13 9 -23 13 -23 4 0 15 -16 24
-36 16 -34 16 -35 0 -32 -10 1 -24 -1 -30 -5 -9 -5 -13 -3 -13 7 0 9 5 16 10
16 17 0 11 23 -25 93 -19 38 -35 71 -35 75 1 12 50 -72 56 -95z m-81 77 c-3
-5 -10 -10 -16 -10 -5 0 -9 5 -9 10 0 6 7 10 16 10 8 0 12 -4 9 -10z m1005
-26 c0 -8 -5 -12 -10 -9 -6 4 -8 11 -5 16 9 14 15 11 15 -7z m-960 -45 c0 -20
-21 -17 -35 5 -23 34 -8 57 17 27 10 -13 18 -27 18 -32z m554 22 c3 -5 -4 -11
-16 -14 -25 -7 -33 -3 -23 12 8 13 32 14 39 2z m96 -32 c0 -5 -9 -9 -20 -9
-11 0 -20 6 -20 14 0 9 7 12 20 9 11 -3 20 -9 20 -14z m95 12 c3 -5 1 -12 -5
-16 -5 -3 -10 1 -10 9 0 18 6 21 15 7z m-385 -16 c0 -8 7 -15 15 -15 18 0 20
-16 3 -23 -7 -3 -3 -6 10 -6 25 -1 31 -31 6 -31 -14 0 -14 -3 -4 -15 10 -12
10 -15 -1 -15 -16 0 -49 69 -49 100 0 11 5 20 10 20 6 0 10 -7 10 -15z m210
-10 c0 -8 -7 -15 -15 -15 -8 0 -18 0 -22 -1 -17 -1 -13 20 4 24 31 8 33 7 33
-8z m808 3 c14 -14 16 -52 2 -43 -21 13 -31 -7 -14 -26 16 -18 16 -19 -14 -19
-17 0 -34 5 -37 10 -3 6 1 10 10 10 10 0 15 7 13 18 -2 9 3 16 10 14 9 -1 11
5 6 23 -7 27 4 33 24 13z m-731 -24 c-3 -3 -12 -4 -19 -1 -8 3 -5 6 6 6 11 1
17 -2 13 -5z m-67 -24 c0 -5 -11 -10 -25 -10 -14 0 -25 5 -25 10 0 6 11 10 25
10 14 0 25 -4 25 -10z m255 -5 c54 -16 124 -82 150 -140 17 -40 20 -103 6
-138 -6 -16 -11 -32 -11 -37 0 -5 -5 -12 -11 -16 -8 -5 -10 3 -6 27 3 19 2 43
-2 54 -6 15 -10 6 -15 -33 -5 -36 -11 -52 -21 -52 -18 0 -18 5 -5 29 6 12 6
31 -1 55 -11 39 -29 49 -29 16 0 -27 -12 -25 -38 5 -27 31 -65 32 -110 5 -39
-24 -53 -25 -46 -5 7 16 -11 21 -21 5 -3 -5 -12 -7 -20 -4 -8 4 -12 10 -9 15
8 14 -10 11 -32 -6 -10 -8 -39 -15 -63 -15 l-45 0 21 19 c12 11 32 44 46 73
65 138 141 179 262 143z m-254 -25 c5 0 9 -4 9 -10 0 -5 -11 -10 -25 -10 -16
0 -25 6 -25 16 0 11 5 14 16 10 9 -3 20 -6 25 -6z m-511 -30 c0 -5 -4 -10 -10
-10 -5 0 -10 5 -10 10 0 6 5 10 10 10 6 0 10 -4 10 -10z m111 -114 c28 -48 48
-90 46 -93 -7 -7 -47 39 -42 47 3 5 -6 11 -19 14 -13 3 -31 17 -39 30 -15 23
-15 24 3 19 26 -7 25 4 -5 52 -27 44 -33 72 -9 40 8 -11 38 -60 65 -109z m249
103 c0 -4 -6 -10 -12 -13 -10 -5 -10 -7 0 -12 16 -8 15 -24 -1 -24 -13 0 -40
44 -32 52 7 7 45 4 45 -3z m920 3 c0 -14 -11 -21 -26 -15 -21 8 -17 23 6 23
11 0 20 -4 20 -8z m-763 -8 c-3 -3 -12 -4 -19 -1 -8 3 -5 6 6 6 11 1 17 -2 13
-5z m438 -44 c3 -5 -1 -10 -10 -10 -9 0 -13 5 -10 10 3 6 8 10 10 10 2 0 7 -4
10 -10z m275 -10 c0 -5 3 -16 7 -25 5 -14 2 -16 -16 -10 -18 5 -22 3 -20 -12
1 -10 -1 -25 -4 -33 -4 -8 -11 -27 -16 -42 -6 -16 -18 -28 -26 -28 -9 0 -15
-6 -14 -12 2 -20 -12 -58 -23 -58 -5 0 -8 -6 -7 -12 2 -22 -13 -58 -22 -52 -5
3 -10 -5 -10 -18 -1 -16 -3 -18 -6 -6 -2 10 2 32 10 50 8 18 27 60 41 93 15
33 31 68 36 77 6 10 10 24 10 33 0 8 9 19 19 25 13 6 17 17 14 30 -4 16 -2 19
11 14 9 -3 16 -10 16 -14z m-1190 0 c0 -5 -4 -10 -10 -10 -5 0 -10 5 -10 10 0
6 5 10 10 10 6 0 10 -4 10 -10z m950 -25 c0 -17 -2 -18 -25 -9 -13 5 -14 8 -3
15 19 13 28 11 28 -6z m0 -35 c0 -5 -4 -10 -10 -10 -5 0 -10 5 -10 10 0 6 5
10 10 10 6 0 10 -4 10 -10z m77 -16 c-9 -9 -28 6 -21 18 4 6 10 6 17 -1 6 -6
8 -13 4 -17z m62 12 c16 -19 -24 -105 -41 -88 -15 15 0 75 18 68 17 -7 18 6 2
22 -8 8 -8 12 -1 12 6 0 16 -6 22 -14z m-709 -10 c0 -15 -37 -32 -47 -22 -4 3
1 6 10 6 10 0 16 3 16 8 -3 14 1 22 11 22 6 0 10 -6 10 -14z m626 -60 c2 -26
-4 -41 -23 -63 -30 -31 -42 -19 -24 25 6 15 15 40 21 56 13 35 22 29 26 -18z
m-359 4 c-24 -20 -45 -30 -68 -30 -19 0 -54 -5 -78 -11 -44 -10 -81 -5 -81 12
0 5 8 9 18 9 10 0 23 5 29 11 15 15 81 20 89 8 9 -15 47 -10 79 11 44 29 50
24 12 -10z m-537 -55 c-14 -17 -30 -20 -30 -6 0 5 8 12 18 14 9 3 19 5 21 6 2
0 -2 -6 -9 -14z m145 -5 c3 -5 34 -10 68 -10 44 0 58 -3 47 -10 -8 -5 -24 -10
-36 -10 -11 0 -29 -7 -40 -14 -17 -14 -15 -15 31 -11 28 2 58 4 68 4 9 1 17 8
17 17 0 10 6 14 14 11 7 -3 17 -2 22 2 5 5 30 11 56 14 35 5 49 3 55 -8 4 -7
27 -27 51 -44 54 -40 58 -16 5 28 l-38 30 34 1 c29 0 32 -2 21 -15 -10 -12 -9
-15 4 -15 9 0 19 -7 22 -15 4 -8 15 -15 25 -15 10 0 19 -2 19 -4 0 -2 3 -11 6
-20 4 -10 -4 -19 -28 -29 -29 -12 -104 -88 -146 -148 -8 -11 -20 -60 -27 -107
-10 -73 -13 -79 -14 -39 0 26 -5 47 -11 47 -11 0 -24 -65 -15 -79 3 -6 -1 -18
-10 -27 -12 -13 -13 -19 -4 -30 7 -8 9 -18 5 -22 -4 -4 -12 1 -17 11 -7 11
-22 17 -44 17 -34 0 -34 -1 -28 -32 l6 -33 -27 29 c-35 36 -47 26 -17 -15 31
-41 17 -52 -15 -11 -14 18 -32 32 -40 32 -15 0 -20 -16 -6 -22 4 -2 20 -17 36
-35 34 -38 27 -63 -9 -27 -24 24 -55 32 -55 15 0 -5 6 -11 13 -14 17 -6 60
-77 48 -77 -5 0 -11 7 -15 15 -5 15 -36 22 -36 8 0 -3 8 -15 18 -26 12 -15 13
-18 2 -12 -25 13 -60 48 -60 59 0 13 -92 96 -107 96 -19 0 -16 -11 9 -37 33
-35 16 -28 -38 17 -27 22 -52 40 -57 40 -4 0 -29 9 -54 21 -56 25 -141 35
-181 21 l-30 -10 27 61 c16 34 36 80 45 103 10 22 34 58 55 80 20 21 60 71 89
110 55 76 81 93 194 124 77 22 85 23 93 10z m473 -16 c12 -4 22 -10 22 -15 0
-14 -33 -10 -54 6 -22 16 -9 20 32 9z m408 -61 c-2 -3 -9 -2 -15 2 -8 4 -7 13
1 28 l13 22 3 -23 c2 -13 1 -26 -2 -29z m-346 7 c0 -5 -4 -10 -10 -10 -5 0
-10 5 -10 10 0 6 5 10 10 10 6 0 10 -4 10 -10z m97 -55 c53 -6 94 -41 82 -70
-11 -27 -11 -45 0 -45 5 0 14 14 21 30 7 18 20 30 31 30 24 0 32 -15 20 -37
-5 -10 -14 -33 -20 -50 -15 -50 5 -40 34 17 15 30 32 50 42 50 12 0 14 -3 6
-11 -13 -13 -4 -61 11 -56 6 2 11 15 12 28 0 31 17 41 19 11 3 -43 22 -46 22
-3 0 28 -4 41 -13 41 -13 0 -18 12 -15 37 1 6 -6 14 -16 16 -12 3 -10 5 8 6
21 1 31 -10 67 -74 42 -74 51 -108 33 -120 -6 -3 -14 3 -20 12 -17 29 -13 5 5
-28 18 -36 11 -51 -12 -23 -14 18 -15 18 -4 -3 13 -27 3 -73 -15 -73 -8 0 -15
10 -18 23 -3 19 -5 18 -12 -10 -9 -38 -25 -45 -17 -8 2 15 0 25 -7 25 -6 0
-11 -8 -12 -17 -1 -12 -4 -9 -8 7 -7 22 -8 20 -14 -17 -8 -50 -29 -59 -22 -10
4 29 3 28 -9 -8 l-13 -40 -73 -3 c-61 -2 -81 1 -124 22 -39 19 -61 24 -92 19
-33 -4 -55 1 -108 26 -55 27 -66 36 -66 57 0 13 -4 24 -10 24 -17 0 -11 -30
11 -61 16 -22 17 -29 6 -29 -8 0 -20 -7 -27 -15 -10 -13 -9 -15 9 -15 21 0 28
-14 12 -25 -5 -3 -17 3 -27 12 -14 14 -16 30 -11 98 7 92 15 124 28 103 7 -11
11 -10 19 2 6 10 10 11 10 3 0 -26 18 -12 35 30 10 23 21 46 23 51 11 22 -21
-9 -38 -36 -10 -16 -20 -25 -24 -20 -7 12 44 83 76 104 52 34 88 38 205 23z
m-1007 -376 c58 -13 150 -50 150 -61 0 -11 -17 -10 -24 1 -10 16 -104 41 -155
41 -47 0 -61 7 -44 23 8 9 19 9 73 -4z m535 -29 c10 -11 13 -20 7 -20 -6 0
-16 9 -22 20 -6 11 -9 20 -7 20 2 0 12 -9 22 -20z m225 -12 c0 -30 -1 -31 -15
-12 -19 25 -19 44 0 44 10 0 15 -10 15 -32z m250 22 c12 -8 10 -10 -9 -10 -21
0 -22 -2 -10 -17 12 -15 12 -16 -3 -10 -12 4 -18 2 -18 -8 0 -8 -4 -15 -9 -15
-5 0 -11 -9 -14 -20 -3 -11 0 -20 6 -20 6 0 1 -7 -12 -16 -15 -11 -21 -23 -18
-35 3 -11 1 -17 -3 -14 -16 10 -17 -20 -1 -32 14 -11 13 -12 -6 -13 -26 0 -42
-38 -22 -52 11 -7 9 -8 -4 -4 -10 3 -23 6 -28 6 -9 0 11 56 55 152 14 31 26
62 26 67 0 20 25 51 40 51 8 0 22 -5 30 -10z m-110 -10 c0 -5 -5 -10 -11 -10
-5 0 -7 5 -4 10 3 6 8 10 11 10 2 0 4 -4 4 -10z m-847 -27 c26 -9 47 -21 47
-25 0 -10 -24 -10 -34 0 -4 4 -26 15 -49 24 -55 22 -26 23 36 1z m655 8 c8 -4
14 -12 14 -17 -1 -5 12 -31 28 -59 15 -27 31 -61 35 -75 7 -23 28 -62 63 -115
6 -11 16 -30 21 -42 6 -11 15 -24 21 -28 13 -8 -12 -40 -45 -58 -18 -9 -19 -9
-6 6 10 13 11 20 2 31 -6 7 -9 21 -5 30 4 11 1 16 -10 16 -10 0 -13 6 -10 15
4 10 0 15 -11 15 -15 0 -15 2 -4 16 11 14 11 18 -2 28 -9 6 -14 17 -11 25 3
10 -1 12 -17 8 -25 -6 -40 10 -17 19 24 9 20 37 -4 31 -17 -4 -18 -2 -9 14 8
16 6 19 -11 19 -21 0 -27 14 -10 25 16 10 1 25 -18 18 -14 -5 -15 -3 -4 8 17
18 15 48 -3 55 -8 4 -15 10 -15 15 0 11 11 11 28 0z m-856 -41 c-2 -19 -11
-51 -19 -70 -20 -46 -40 -133 -35 -148 2 -7 11 -12 19 -12 12 0 14 -7 9 -27
-18 -78 -18 -103 -1 -129 23 -36 40 -18 27 29 -7 26 -6 46 4 74 19 55 18 133
-3 148 -16 12 -16 14 1 39 9 15 20 49 23 76 6 55 17 62 71 47 68 -17 122 -46
116 -61 -5 -14 45 -46 73 -46 7 0 13 -4 13 -10 0 -5 5 -10 11 -10 10 0 47 -40
79 -84 8 -12 15 -41 16 -66 1 -25 -1 -39 -3 -32 -3 6 -10 12 -17 12 -18 0 -20
-135 -2 -192 8 -27 13 -48 11 -48 -2 0 -11 -3 -20 -6 -14 -6 -16 -1 -13 25 2
20 -3 35 -12 41 -9 6 -10 10 -3 10 8 0 7 9 -3 30 -17 32 -44 39 -64 15 -10
-12 -8 -16 14 -25 34 -13 33 -19 -1 -12 -24 5 -26 3 -15 -10 9 -11 10 -23 2
-42 -13 -36 -15 -33 23 -52 43 -23 18 -30 -28 -8 -39 18 -55 13 -35 -11 15
-18 4 -19 -39 -4 -24 8 -35 8 -46 -1 -10 -8 -32 -11 -60 -8 -31 4 -48 1 -56
-8 -19 -23 -41 -17 -33 9 4 12 10 24 14 27 3 3 9 13 13 22 4 13 2 15 -10 11
-11 -4 -14 -3 -9 6 5 8 0 14 -14 18 -15 4 -18 8 -10 13 20 13 1 31 -26 24 -14
-4 -24 -2 -24 5 0 6 7 11 15 11 12 0 11 6 -4 34 -11 19 -17 37 -14 40 3 3 0
12 -6 20 -7 8 -8 17 -4 19 12 7 15 105 4 111 -16 10 -29 -18 -33 -68 -4 -45
-7 -50 -32 -53 -26 -4 -27 -3 -20 34 9 54 34 125 49 143 7 8 19 32 26 53 7 21
21 46 31 57 23 24 25 65 3 56 -8 -3 -15 -2 -15 3 0 15 14 22 40 19 22 -3 25
-7 22 -38z m1058 9 c0 -4 -7 -6 -15 -3 -8 4 -15 10 -15 15 0 4 7 6 15 3 8 -4
15 -10 15 -15z m-676 -49 c31 -26 65 -66 80 -95 20 -37 22 -44 7 -27 -11 12
-26 21 -33 20 -7 -2 -13 5 -13 15 0 10 -27 46 -60 79 -69 70 -61 73 19 8z
m-96 22 c6 -18 -15 -14 -22 4 -4 10 -1 14 6 12 6 -2 14 -10 16 -16z m-408 -2
c0 -5 -5 -10 -11 -10 -5 0 -7 5 -4 10 3 6 8 10 11 10 2 0 4 -4 4 -10z m5 -78
c-19 -34 -39 -64 -44 -67 -5 -3 -7 -14 -4 -25 4 -16 2 -19 -13 -13 -14 5 -16
3 -11 -11 5 -12 -2 -27 -20 -47 -15 -16 -28 -35 -28 -41 0 -20 -28 -58 -43
-58 -15 0 -38 -47 -28 -57 4 -4 15 -2 26 5 25 15 30 5 20 -46 -7 -42 -1 -97
15 -121 4 -7 4 -23 1 -37 -5 -20 -13 -24 -41 -24 -40 0 -40 -1 -20 68 9 29 14
56 11 61 -3 4 1 17 9 27 8 10 15 26 15 35 0 25 -44 29 -71 7 l-24 -18 23 -6
c30 -9 28 -22 -5 -26 -21 -2 -27 -9 -30 -31 -3 -18 0 -26 7 -22 5 3 10 1 10
-5 0 -8 -10 -9 -30 -5 -23 5 -30 3 -30 -9 0 -9 -7 -16 -15 -16 -8 0 -15 7 -15
15 0 19 29 67 48 78 7 5 18 18 23 30 17 37 35 67 56 90 23 25 43 61 74 132 35
80 158 231 167 205 2 -4 -13 -35 -33 -68z m565 56 c29 -32 14 -37 -18 -5 -14
15 -21 27 -15 27 7 0 21 -10 33 -22z m592 0 c-6 -6 -16 -7 -22 -3 -9 6 -9 9 1
16 17 10 34 0 21 -13z m-222 -153 c53 -113 56 -125 31 -125 -12 0 -21 -4 -21
-10 0 -5 -4 -10 -10 -10 -16 0 -12 22 7 36 24 17 7 32 -17 16 -17 -10 -20 -10
-20 3 0 8 5 15 10 15 6 0 10 7 10 15 0 12 -4 14 -19 5 -25 -13 -36 3 -16 23 8
9 15 20 15 26 0 15 -23 14 -38 -1 -7 -7 -12 -8 -12 -2 0 5 10 15 21 22 16 10
18 17 10 25 -8 8 -16 5 -31 -8 -27 -25 -25 -7 3 23 15 17 18 26 9 29 -6 3 -9
9 -6 15 3 5 -3 12 -15 15 -25 6 -26 8 -4 33 17 20 18 19 36 -22 10 -24 36 -79
57 -123z m-1 126 c12 -16 21 -36 21 -44 0 -9 5 -19 10 -22 14 -9 82 -156 76
-163 -7 -6 -56 26 -54 36 1 6 -56 133 -83 184 -23 45 0 51 30 9z m-969 16 c0
-2 -10 -12 -21 -23 -22 -19 -22 -19 -10 4 10 18 31 31 31 19z m494 -13 c18
-17 22 -39 6 -29 -11 7 -33 45 -26 45 2 0 12 -7 20 -16z m628 -46 c-9 -9 -12
-7 -12 12 0 19 3 21 12 12 9 -9 9 -15 0 -24z m-307 8 c8 -7 12 -16 9 -19 -3
-2 9 -28 26 -57 17 -29 29 -54 27 -57 -18 -17 -127 61 -127 91 0 9 39 56 47
56 3 0 11 -6 18 -14z m43 -152 c41 -6 47 -15 119 -151 34 -66 36 -58 -113
-369 -19 -39 -34 -75 -34 -78 0 -4 -38 -85 -84 -179 -47 -95 -87 -184 -91
-199 -9 -36 -33 -43 -54 -17 -25 31 -57 11 -71 -44 -19 -73 -18 -72 -41 -51
-22 20 -44 13 -63 -22 -6 -10 -19 -25 -29 -32 -13 -10 -16 -22 -12 -42 5 -25
4 -27 -18 -23 -46 9 -49 34 -27 198 11 83 25 206 30 275 5 69 12 133 16 143 5
13 19 17 66 17 54 0 62 3 85 31 23 27 31 31 64 26 29 -4 42 0 55 14 16 17 15
21 -12 71 -29 53 -29 54 -26 205 3 129 6 160 24 200 11 27 27 52 34 56 8 4 14
13 14 19 0 6 9 18 20 28 19 16 21 15 65 -26 31 -30 57 -46 83 -50z m352 86 c0
-5 -2 -10 -4 -10 -3 0 -8 5 -11 10 -3 6 -1 10 4 10 6 0 11 -4 11 -10z m-1326
-25 c-6 -16 -24 -21 -24 -7 0 11 11 22 21 22 5 0 6 -7 3 -15z m1390 -24 c23
-24 26 -32 17 -49 -14 -26 -14 -32 -1 -32 6 0 10 10 10 23 1 21 1 22 15 3 18
-23 20 -76 4 -76 -6 0 -33 -18 -60 -41 -63 -52 -88 -47 -34 8 22 22 47 42 55
45 12 4 12 8 3 18 -10 11 -20 6 -53 -24 -49 -44 -75 -38 -32 8 40 42 57 76 40
77 -7 1 -16 1 -20 0 -11 -2 -10 27 2 50 14 25 21 24 54 -10z m-1433 -24 c-6
-8 -8 -17 -4 -20 3 -4 -2 -9 -11 -13 -9 -3 -16 -12 -16 -20 0 -8 -6 -14 -14
-14 -13 0 -31 -27 -28 -42 3 -11 -16 -10 -22 1 -3 4 3 16 14 26 11 10 20 23
20 29 0 13 51 66 63 66 5 0 4 -6 -2 -13z m779 -27 c0 -5 -2 -10 -4 -10 -3 0
-8 5 -11 10 -3 6 -1 10 4 10 6 0 11 -4 11 -10z m-26 -35 c3 -8 1 -15 -4 -15
-6 0 -10 7 -10 15 0 8 2 15 4 15 2 0 6 -7 10 -15z m-647 -37 c-3 -8 -6 -5 -6
6 -1 11 2 17 5 13 3 -3 4 -12 1 -19z m610 -40 c-2 -13 -4 -3 -4 22 0 25 2 35
4 23 2 -13 2 -33 0 -45z m473 43 c0 -5 3 -16 6 -25 3 -9 1 -16 -5 -16 -6 0
-11 7 -11 15 0 20 -17 19 -29 -2 -6 -10 -11 -14 -11 -9 0 12 30 46 42 46 4 0
8 -4 8 -9z m-990 -21 c0 -11 -4 -20 -9 -20 -14 0 -23 18 -16 30 10 17 25 11
25 -10z m560 -15 c0 -19 -4 -35 -10 -35 -11 0 -14 53 -3 63 11 12 13 8 13 -28z
m490 6 c0 -10 -8 -25 -17 -32 -15 -12 -16 -12 -10 4 4 10 7 25 7 33 0 8 5 14
10 14 6 0 10 -8 10 -19z m240 -10 c0 -23 -45 -61 -71 -61 -27 0 -23 15 9 39
15 11 32 25 37 30 16 16 25 13 25 -8z m-1591 -5 c10 -12 8 -13 -8 -9 -15 4
-21 1 -21 -11 0 -9 -4 -16 -9 -16 -19 0 -42 -32 -36 -51 8 -23 -10 -26 -19 -3
-7 18 -2 27 38 72 33 36 39 38 55 18z m1425 6 c3 -5 -1 -9 -9 -9 -8 0 -12 4
-9 9 3 4 7 8 9 8 2 0 6 -4 9 -8z m-1158 -34 c-18 -10 -39 -2 -31 12 3 4 15 6
26 3 19 -5 19 -7 5 -15z m1085 -46 c-6 -2 -18 2 -26 8 -17 15 -19 7 -5 -20 8
-16 8 -18 -5 -14 -18 7 -20 -7 -4 -23 9 -9 6 -10 -11 -6 -13 4 -21 2 -17 -3 3
-5 -2 -18 -10 -29 -14 -19 -14 -18 -8 15 4 19 16 52 26 73 19 37 20 37 46 20
14 -9 20 -19 14 -21z m-1051 19 c0 -5 3 -16 6 -25 4 -11 1 -16 -10 -16 -9 0
-16 5 -16 11 0 7 -10 9 -25 5 -14 -4 -25 -2 -25 4 0 5 9 10 19 10 11 0 23 5
26 10 8 13 25 13 25 1z m548 -79 c-4 -27 -4 -26 -14 8 -7 23 -7 41 0 57 11 22
11 22 14 -7 2 -17 2 -43 0 -58z m668 58 c17 0 24 -8 29 -30 4 -16 11 -32 16
-36 5 -3 30 -49 55 -102 87 -186 97 -207 111 -232 53 -96 65 -140 28 -110 -8
7 -22 10 -30 6 -19 -7 -19 8 0 24 21 17 8 32 -16 19 -28 -14 -36 -4 -16 19 27
29 22 47 -7 28 -34 -22 -47 0 -15 26 l24 20 -27 -5 c-32 -5 -34 0 -12 31 21
30 10 41 -16 17 -21 -19 -29 -8 -8 13 17 17 2 28 -17 12 -11 -9 -15 -9 -15 -1
0 6 7 14 15 17 8 4 15 12 15 20 0 10 -6 11 -27 4 l-28 -10 24 20 c17 15 21 24
13 32 -6 6 -8 17 -5 24 3 8 -1 14 -11 14 -9 0 -20 -10 -25 -22 -5 -15 -10 -18
-15 -9 -5 7 0 21 10 32 13 14 15 22 7 30 -6 6 -9 18 -6 26 5 13 2 13 -20 -1
-32 -21 -47 -4 -15 18 26 19 15 35 -12 18 -23 -14 -36 1 -15 18 22 18 18 32
-5 20 -19 -10 -20 -9 -14 15 5 22 4 24 -12 18 -16 -6 -17 -4 -7 9 7 8 11 17 9
20 -1 3 2 2 8 -3 5 -5 20 -9 32 -9z m-1551 0 c3 -5 1 -10 -4 -10 -6 0 -11 5
-11 10 0 6 2 10 4 10 3 0 8 -4 11 -10z m1473 -32 c-3 -7 -11 -13 -18 -13 -7 0
-15 6 -17 13 -3 7 4 12 17 12 13 0 20 -5 18 -12z m-708 -18 c8 -5 11 -10 5
-10 -5 0 -17 5 -25 10 -8 5 -10 10 -5 10 6 0 17 -5 25 -10z m698 -27 c-2 -13
3 -17 20 -16 12 2 22 -2 22 -7 0 -6 -7 -10 -15 -10 -8 0 -15 -7 -15 -16 0 -12
6 -15 25 -10 14 4 25 2 25 -4 0 -5 -8 -10 -18 -10 -14 0 -19 -8 -20 -30 -1
-26 3 -30 26 -31 24 -2 24 -2 5 -6 -16 -3 -23 -11 -23 -29 0 -13 5 -24 10 -24
6 0 10 -11 10 -25 0 -14 5 -25 11 -25 8 0 8 -5 -1 -15 -13 -15 -8 -19 23 -16
9 1 17 -3 17 -8 0 -6 -6 -11 -13 -11 -9 0 -14 -12 -15 -30 0 -23 4 -30 19 -30
23 0 25 -15 4 -24 -22 -8 -18 -26 5 -26 11 0 20 -4 20 -10 0 -5 -7 -10 -15
-10 -9 0 -15 -9 -15 -25 0 -18 5 -25 20 -25 11 0 20 -7 20 -16 0 -8 -4 -13 -9
-10 -15 10 -41 -5 -42 -23 -1 -9 -8 13 -15 49 -8 36 -13 75 -11 87 2 12 1 20
-4 18 -7 -5 -17 42 -24 116 -2 19 -10 70 -19 114 -28 141 -29 155 -17 155 7 0
11 -8 9 -17z m-1130 -5 c-3 -7 -13 -15 -23 -16 -15 -4 -16 -2 -4 12 17 19 32
21 27 4z m512 2 c0 -5 -7 -10 -16 -10 -8 0 -12 5 -9 10 3 6 10 10 16 10 5 0 9
-4 9 -10z m558 -10 c-7 -10 -14 -18 -15 -16 -6 6 9 36 18 36 5 0 4 -9 -3 -20z
m-1123 -20 c-3 -5 -16 -10 -28 -10 -18 0 -19 2 -7 10 20 13 43 13 35 0z m75
-20 c0 -5 -4 -10 -10 -10 -5 0 -10 5 -10 10 0 6 5 10 10 10 6 0 10 -4 10 -10z
m321 -6 c27 -9 49 -20 49 -25 0 -15 -26 -10 -82 16 -60 28 -42 33 33 9z m74 6
c3 -6 -1 -7 -9 -4 -18 7 -21 14 -7 14 6 0 13 -4 16 -10z m530 -40 c1 -22 -2
-34 -6 -28 -6 9 -10 8 -15 -5 -3 -9 -10 -17 -15 -17 -6 0 -6 7 0 18 5 9 14 29
20 45 6 15 12 27 13 27 2 0 3 -18 3 -40z m-690 10 c10 -11 24 -20 31 -20 7 0
17 -6 21 -12 4 -7 19 -19 32 -26 20 -12 25 -12 32 0 7 10 9 10 9 -3 0 -8 -20
-42 -45 -75 -122 -162 -216 -310 -235 -370 -14 -45 -66 -104 -92 -104 -12 0
-15 -5 -11 -16 4 -10 -1 -17 -16 -21 -12 -3 -21 -13 -21 -24 0 -12 -7 -19 -19
-19 -12 0 -18 -7 -17 -17 1 -12 -6 -18 -19 -18 -15 0 -19 -6 -17 -25 3 -20 2
-22 -11 -12 -10 9 -17 10 -22 2 -3 -5 -1 -10 4 -10 6 0 11 -7 11 -15 0 -19 -9
-19 -32 2 -15 13 -18 14 -18 2 0 -8 5 -20 11 -26 20 -20 -1 -37 -21 -18 -11
10 -20 13 -24 6 -4 -6 2 -16 13 -22 18 -12 18 -14 -7 -46 -26 -32 -52 -44 -52
-23 0 6 -4 10 -10 10 -14 0 -12 -28 3 -33 6 -2 8 -8 4 -13 -4 -4 -17 -3 -27 4
-16 10 -20 10 -20 -1 0 -7 5 -18 12 -25 18 -18 0 -28 -23 -13 -25 15 -37 7
-20 -13 10 -12 9 -14 -8 -9 -12 3 -21 1 -21 -6 0 -7 -9 -21 -19 -32 -22 -24
-55 -19 -71 12 -6 10 -17 19 -25 19 -18 0 -19 13 -4 60 6 19 10 51 10 70 -1
19 4 64 11 99 19 99 71 150 254 249 26 14 34 38 9 28 -19 -7 -19 3 -2 29 21
30 93 257 112 350 10 48 27 75 47 75 10 0 37 8 61 18 127 55 211 66 242 32z
m720 0 c3 -5 -1 -10 -9 -10 -9 0 -16 5 -16 10 0 6 4 10 9 10 6 0 13 -4 16 -10z
m225 -14 c0 -3 -4 -8 -10 -11 -5 -3 -10 -1 -10 4 0 6 5 11 10 11 6 0 10 -2 10
-4z m-1280 -15 c0 -6 -4 -13 -10 -16 -5 -3 -10 1 -10 9 0 9 5 16 10 16 6 0 10
-4 10 -9z m620 -1 c0 -5 -4 -10 -10 -10 -5 0 -10 5 -10 10 0 6 5 10 10 10 6 0
10 -4 10 -10z m530 -10 c9 -16 8 -20 -5 -20 -8 0 -15 9 -15 20 0 11 2 20 5 20
2 0 9 -9 15 -20z m-490 -34 c0 -6 -5 -18 -11 -26 -8 -12 -9 -11 -7 5 2 13 -2
20 -13 19 -13 -1 -14 3 -5 22 10 22 12 22 24 7 6 -9 12 -22 12 -27z m490 -16
c12 -8 11 -10 -7 -10 -13 0 -23 5 -23 10 0 13 11 13 30 0z m0 -40 c12 -8 10
-10 -10 -10 -24 -1 -24 -1 -6 -15 17 -13 18 -15 3 -15 -9 0 -17 -4 -17 -10 0
-5 7 -10 15 -10 8 0 15 -4 15 -10 0 -5 -9 -10 -21 -10 -12 0 -19 -5 -16 -12 2
-7 11 -12 21 -10 9 2 16 -2 16 -8 0 -6 -10 -10 -22 -8 -11 2 -23 -3 -25 -9 -3
-8 4 -13 16 -13 12 0 21 -4 21 -10 0 -5 -8 -10 -19 -10 -14 0 -21 -10 -25 -35
-10 -49 -29 -57 -21 -8 13 80 37 198 41 205 7 10 16 10 34 -2z m-120 -10 c0
-5 -5 -10 -11 -10 -5 0 -7 5 -4 10 3 6 8 10 11 10 2 0 4 -4 4 -10z m350 -39
c0 -6 -4 -13 -10 -16 -5 -3 -10 1 -10 9 0 9 5 16 10 16 6 0 10 -4 10 -9z
m-870 -11 c0 -5 -4 -10 -10 -10 -5 0 -10 5 -10 10 0 6 5 10 10 10 6 0 10 -4
10 -10z m490 -10 c0 -5 -5 -10 -11 -10 -5 0 -7 5 -4 10 3 6 8 10 11 10 2 0 4
-4 4 -10z m-81 -26 c-14 -18 -24 -11 -15 11 3 9 11 13 16 10 8 -5 7 -11 -1
-21z m-527 -6 c-6 -6 -15 -8 -19 -4 -4 4 -1 11 7 16 8 5 17 7 19 4 3 -2 -1
-10 -7 -16z m663 -95 c-9 -59 -28 -162 -42 -228 -14 -66 -27 -141 -30 -167 -5
-44 -7 -47 -37 -50 -22 -2 -34 -11 -44 -31 -8 -16 -16 -26 -19 -24 -12 13 85
364 142 512 12 33 26 70 30 83 15 52 16 8 0 -95z m344 110 c-1 -5 0 -11 1 -15
1 -5 3 -11 4 -15 1 -5 7 -17 13 -28 6 -11 12 -24 13 -30 1 -5 11 -15 23 -22
20 -10 20 -12 5 -18 -25 -10 -22 -25 4 -25 21 0 21 0 2 -21 -10 -11 -14 -20
-9 -19 6 2 19 2 30 1 19 -2 19 -2 2 -12 -15 -9 -16 -13 -5 -27 8 -10 9 -13 1
-9 -6 4 -14 3 -17 -2 -4 -5 -2 -12 4 -16 12 -7 14 -55 2 -55 -9 0 -33 75 -77
238 -18 65 -20 82 -9 82 8 0 13 -3 13 -7z m-384 -41 c-7 -8 -45 10 -40 19 4 5
14 3 25 -3 11 -7 17 -14 15 -16z m340 8 c3 -5 1 -10 -4 -10 -6 0 -11 5 -11 10
0 6 2 10 4 10 3 0 8 -4 11 -10z m-961 -57 c-12 -167 -27 -299 -36 -310 -5 -7
-7 -17 -3 -23 4 -6 0 -19 -9 -29 -9 -10 -14 -25 -11 -33 3 -8 -1 -21 -9 -28
-19 -15 -11 -31 12 -23 9 3 2 -4 -15 -16 -18 -11 -33 -25 -33 -31 0 -13 17
-13 25 0 7 12 25 13 25 2 0 -4 -14 -13 -31 -21 -18 -8 -28 -19 -25 -26 3 -8
-1 -19 -9 -25 -7 -6 -11 -19 -8 -29 3 -14 -5 -22 -34 -34 -21 -8 -41 -13 -45
-10 -5 2 -8 28 -8 56 0 29 -6 64 -14 79 -13 24 -36 142 -36 182 0 8 13 30 29
48 15 18 42 65 58 103 40 96 131 224 160 225 20 0 21 -4 17 -57z m782 32 c-1
-33 -16 -33 -16 0 0 14 4 25 9 25 5 0 8 -11 7 -25z m-279 -11 c-9 -9 -28 6
-21 18 4 6 10 6 17 -1 6 -6 8 -13 4 -17z m113 0 c0 -2 -11 -4 -25 -4 -14 0
-25 4 -25 9 0 4 11 6 25 3 14 -2 25 -6 25 -8z m1058 -111 c6 -12 11 -32 9 -44
-4 -35 21 -34 30 2 5 18 15 35 22 37 9 3 11 -2 6 -17 -4 -14 -1 -23 9 -27 11
-4 16 -19 16 -51 0 -32 4 -44 13 -40 6 2 22 1 35 -4 18 -7 22 -15 21 -46 -2
-29 -3 -31 -6 -12 -5 35 -51 46 -71 18 -16 -24 -88 -26 -112 -4 -28 26 -63 5
-78 -46 -16 -53 -29 -69 -52 -69 -24 0 -34 -51 -14 -67 24 -18 13 -49 -16 -45
-27 3 -42 20 -35 40 2 6 -2 12 -10 12 -8 0 -15 -9 -15 -19 0 -24 -19 -38 -30
-21 -14 22 -50 -38 -46 -76 5 -41 -10 -55 -23 -21 -5 13 -26 50 -46 81 -46 73
-46 118 0 126 22 4 31 11 33 28 2 12 7 22 12 22 4 0 11 11 14 24 7 27 34 42
49 27 6 -6 9 -37 8 -71 -1 -38 2 -60 9 -60 6 0 13 7 16 15 10 24 21 18 28 -15
9 -48 25 -35 24 19 -1 53 16 86 40 76 25 -9 32 6 16 36 -8 17 -14 45 -12 62 3
28 7 32 34 35 27 3 30 6 26 28 -3 15 2 32 13 44 12 13 15 27 11 47 -5 22 -1
37 16 58 l23 29 10 -44 c6 -25 16 -55 23 -67z m-1168 76 c0 -5 -9 -9 -20 -9
-23 0 -26 -10 -8 -28 9 -9 8 -12 -6 -12 -11 0 -16 -5 -13 -13 3 -7 -3 -13 -13
-13 -17 0 -16 4 6 48 17 33 29 46 39 42 8 -4 15 -10 15 -15z m95 1 c8 -13 -15
-13 -35 0 -12 8 -11 10 7 10 12 0 25 -4 28 -10z m380 0 c3 -5 -1 -10 -9 -10
-9 0 -16 5 -16 10 0 6 4 10 9 10 6 0 13 -4 16 -10z m-198 -6 c-3 -3 -12 -4
-19 -1 -8 3 -5 6 6 6 11 1 17 -2 13 -5z m-213 -20 c9 -3 13 -10 10 -16 -3 -5
-11 -4 -20 3 -10 8 -14 8 -15 0 -3 -26 -4 -30 -11 -37 -12 -11 -10 14 2 37 12
21 12 21 34 13z m586 -39 c0 -8 -4 -15 -10 -15 -5 0 -10 7 -10 15 0 8 5 15 10
15 6 0 10 -7 10 -15z m-445 -5 c-3 -5 -13 -10 -21 -10 -8 0 -14 5 -14 10 0 6
9 10 21 10 11 0 17 -4 14 -10z m295 -14 c0 -8 -7 -16 -15 -20 -17 -6 -18 -4
-9 18 8 20 24 21 24 2z m-479 -29 c-13 -13 -26 -3 -16 12 3 6 11 8 17 5 6 -4
6 -10 -1 -17z m174 13 c19 -9 19 -9 -2 -16 -13 -3 -20 -10 -17 -16 3 -5 0 -16
-7 -24 -12 -14 -6 -29 12 -29 12 0 12 -20 -1 -21 -5 -1 -15 -2 -21 -3 -8 -1
-8 -6 1 -16 9 -10 9 -15 1 -15 -24 0 -9 -20 17 -21 l27 -2 -27 -4 c-28 -4 -39
-22 -15 -24 10 0 10 -2 0 -6 -19 -7 -16 -23 5 -24 13 0 12 -2 -5 -9 -35 -14
-27 -37 10 -31 5 1 6 -3 2 -9 -3 -5 -15 -10 -26 -10 -10 0 -19 -4 -19 -10 0
-5 9 -10 20 -10 11 0 20 -4 20 -10 0 -5 -11 -10 -25 -10 -14 0 -25 -4 -25 -10
0 -5 9 -10 20 -10 11 0 20 -5 20 -11 0 -7 -10 -9 -24 -7 -23 5 -25 1 -31 -45
-5 -37 -4 -52 6 -58 11 -7 10 -9 -3 -9 -9 0 -20 4 -23 10 -7 12 17 178 50 335
14 66 25 123 25 127 0 10 9 9 35 -2z m-280 -20 c-3 -5 -1 -10 4 -10 6 0 11 -4
11 -8 0 -4 -9 -8 -20 -8 -20 0 -27 16 -13 29 10 11 25 8 18 -3z m592 -17 c-9
-9 -19 -14 -23 -11 -10 10 6 28 24 28 15 0 15 -1 -1 -17z m-542 -35 c-51 -162
-78 -228 -92 -228 -21 0 -12 30 45 162 48 109 72 143 47 66z m47 16 c-2 -10
-6 -26 -9 -34 -4 -8 -7 -19 -7 -23 -1 -4 -7 -11 -14 -16 -7 -4 -14 -21 -15
-38 -1 -17 -5 -29 -8 -27 -12 7 -17 -61 -5 -68 8 -6 8 -8 -1 -8 -7 0 -15 -16
-19 -35 -3 -19 -10 -35 -15 -35 -5 0 -9 -9 -9 -20 0 -11 -5 -20 -11 -20 -7 0
-9 8 -4 23 4 12 15 51 25 87 10 36 23 79 29 95 5 17 18 56 27 88 10 31 23 56
29 54 5 -2 9 -13 7 -23z m338 6 c0 -5 -4 -10 -10 -10 -5 0 -10 5 -10 10 0 6 5
10 10 10 6 0 10 -4 10 -10z m275 -10 c3 -5 -1 -10 -9 -10 -9 0 -16 5 -16 10 0
6 4 10 9 10 6 0 13 -4 16 -10z m-714 -10 c5 0 9 -4 9 -10 0 -5 -11 -10 -25
-10 -14 0 -25 -4 -25 -10 0 -5 7 -10 16 -10 8 0 12 -4 9 -10 -3 -5 -15 -10
-26 -10 -16 0 -19 -5 -14 -20 5 -14 2 -20 -9 -20 -9 0 -16 -4 -16 -10 0 -5 8
-10 18 -10 16 -1 16 -1 -1 -11 -11 -7 -16 -17 -12 -29 5 -15 2 -17 -15 -13
-11 3 -20 12 -20 20 0 16 30 84 40 93 3 3 12 20 19 38 9 22 19 31 28 28 8 -4
19 -6 24 -6z m389 0 c0 -5 -13 -10 -30 -10 -16 0 -30 5 -30 10 0 6 14 10 30
10 17 0 30 -4 30 -10z m144 -1 c13 11 16 11 16 -2 0 -26 -32 -30 -54 -6 l-21
21 22 -13 c17 -10 24 -10 37 0z m-74 -25 c0 -9 -7 -14 -17 -12 -25 5 -28 28
-4 28 12 0 21 -6 21 -16z m280 -4 c0 -5 -2 -10 -4 -10 -3 0 -8 5 -11 10 -3 6
-1 10 4 10 6 0 11 -4 11 -10z m-106 -82 c21 -40 53 -100 71 -133 40 -70 43
-85 15 -78 -11 3 -20 11 -20 18 0 7 -7 16 -16 19 -19 7 -54 -20 -54 -41 0 -15
-9 -16 -30 -3 -12 8 -12 10 -1 10 15 0 11 89 -9 205 -18 109 -11 110 44 3z
m-247 66 c-3 -3 -12 -4 -19 -1 -8 3 -5 6 6 6 11 1 17 -2 13 -5z m173 -14 c0
-4 -11 -11 -24 -14 -22 -5 -23 -10 -18 -53 3 -27 8 -49 13 -51 4 -2 5 -10 2
-18 -3 -10 2 -14 18 -15 l24 0 -25 -12 -25 -11 28 -4 c31 -4 37 -22 7 -22 -11
0 -20 -4 -20 -10 0 -5 9 -10 20 -10 11 0 20 -4 20 -10 0 -9 -6 -11 -42 -14 -8
-1 -16 34 -24 105 -7 59 -15 116 -18 127 -6 17 -2 20 29 20 19 0 35 -4 35 -8z
m120 1 c0 -6 -4 -13 -10 -16 -5 -3 -10 1 -10 9 0 9 5 16 10 16 6 0 10 -4 10
-9z m-220 -11 c0 -5 -9 -10 -20 -10 -11 0 -20 5 -20 10 0 6 9 10 20 10 11 0
20 -4 20 -10z m-90 -10 c0 -5 -4 -10 -10 -10 -5 0 -10 5 -10 10 0 6 5 10 10
10 6 0 10 -4 10 -10z m-1690 -26 c6 -14 10 -40 10 -58 0 -17 4 -36 9 -41 5 -6
12 -35 16 -65 6 -48 4 -58 -14 -74 -21 -19 -21 -19 -21 7 0 34 -13 35 -28 1
-15 -32 -81 -62 -93 -42 -6 9 -2 15 14 19 20 5 22 11 19 60 -3 60 4 99 17 99
5 0 11 -9 14 -21 3 -12 10 -18 16 -14 14 8 14 56 1 91 -12 32 -4 64 16 64 8 0
19 -12 24 -26z m2035 5 c-8 -12 -45 -12 -45 0 0 10 30 20 43 14 4 -3 5 -9 2
-14z m-264 -8 c-7 -5 -10 -14 -7 -20 4 -6 2 -11 -3 -11 -6 0 -11 2 -11 4 0 2
-3 11 -6 19 -3 10 1 17 13 19 23 6 31 -1 14 -11z m944 -23 c4 -17 22 -54 40
-82 35 -56 38 -112 6 -118 -13 -3 -16 -17 -17 -83 -1 -83 0 -82 -44 -76 -5 0
-10 12 -10 26 0 34 -18 32 -22 -2 -5 -43 -20 -32 -57 42 l-34 68 -34 -39 c-33
-40 -42 -64 -22 -64 8 0 8 -5 -1 -15 -10 -13 -54 -15 -276 -15 -194 0 -270 3
-284 13 -17 10 -22 9 -29 -2 -6 -9 -16 -11 -27 -7 -18 7 -17 9 5 27 28 23 71
25 71 4 0 -8 5 -15 10 -15 6 0 10 4 10 9 0 14 113 20 130 6 27 -22 47 -24 76
-8 16 8 38 16 49 17 15 1 21 9 23 34 l3 32 70 -2 c68 -3 69 -3 69 -30 0 -16 4
-28 9 -28 5 0 9 34 8 76 -1 56 2 78 13 84 12 8 10 10 -8 10 -18 0 -23 5 -20
23 3 19 9 22 48 22 102 1 224 8 204 12 -17 3 -21 9 -17 26 3 12 12 29 19 38 8
9 11 18 8 22 -10 9 4 39 15 33 5 -4 13 -20 16 -38z m105 22 c0 -5 -4 -10 -10
-10 -5 0 -10 5 -10 10 0 6 5 10 10 10 6 0 10 -4 10 -10z m-1117 -7 c-7 -2 -19
-2 -25 0 -7 3 -2 5 12 5 14 0 19 -2 13 -5z m2 -33 c3 -5 1 -10 -4 -10 -6 0
-11 5 -11 10 0 6 2 10 4 10 3 0 8 -4 11 -10z m-1082 -59 c4 -33 14 -78 23
-101 13 -32 14 -44 5 -53 -10 -9 -15 -8 -25 6 -7 9 -18 17 -25 17 -6 0 -17 11
-23 25 -6 14 -19 25 -29 25 -21 0 -49 -26 -49 -46 0 -13 -48 -39 -56 -31 -8 8
153 217 166 217 4 0 10 -27 13 -59z m517 49 c0 -5 7 -10 15 -10 8 0 15 -7 15
-15 0 -8 -4 -15 -10 -15 -5 0 -12 -16 -16 -35 -13 -70 49 -112 96 -65 11 11
20 27 20 35 0 8 5 15 11 15 7 0 9 -10 5 -26 -4 -15 -10 -39 -13 -55 -6 -32
-27 -39 -37 -13 -6 15 -8 15 -24 1 -15 -13 -26 -13 -76 -3 -63 13 -90 36 -68
58 9 9 15 8 25 -7 15 -20 34 -5 21 17 -11 17 -5 100 8 116 13 15 28 16 28 2z
m640 -15 c-7 -8 -16 -15 -21 -15 -5 0 -9 7 -9 15 0 9 9 15 21 15 18 0 19 -2 9
-15z m-120 -17 c0 -16 -3 -19 -11 -11 -6 6 -8 16 -5 22 11 17 16 13 16 -11z
m-445 -9 c-10 -15 -25 -10 -19 6 4 8 10 12 15 9 5 -3 7 -10 4 -15z m404 -204
c-4 -11 -8 -14 -8 -6 -1 8 -7 19 -15 25 -13 9 -13 23 -1 96 7 47 14 87 16 90
6 13 14 -188 8 -205z m162 196 c-12 -8 -12 -12 -2 -24 9 -12 9 -16 -1 -20 -10
-4 -10 -8 2 -16 13 -10 13 -12 0 -21 -12 -7 -12 -10 -1 -10 8 0 11 -6 7 -15
-3 -9 1 -18 9 -21 20 -8 19 -21 -2 -27 -15 -4 -15 -6 5 -12 30 -10 28 -25 -3
-25 -20 0 -25 5 -25 23 0 13 -3 58 -6 100 -6 71 -6 77 12 77 15 0 16 -2 5 -9z
m777 2 c-16 -2 -40 -2 -55 0 -16 2 -3 4 27 4 30 0 43 -2 28 -4z m-468 -23 c-8
-6 -24 -10 -35 -9 -15 0 -13 3 10 13 32 14 49 11 25 -4z m-880 -12 c0 6 7 12
16 12 11 0 14 -6 8 -22 -12 -40 -46 -51 -63 -21 -6 11 -6 24 1 36 9 18 10 18
23 0 9 -10 14 -13 15 -5z m-1105 -15 c-3 -49 -5 -53 -19 -53 -15 0 -26 21 -26
50 0 16 10 23 41 29 3 0 5 -11 4 -26z m921 -42 c2 -36 -1 -44 -23 -54 -19 -9
-26 -8 -34 4 -16 25 -10 49 11 49 15 0 20 7 20 26 0 44 24 21 26 -25z m1094
39 c0 -5 20 -44 45 -86 50 -84 52 -89 29 -98 -30 -11 -44 -6 -59 24 -18 35
-19 51 -4 48 6 -2 14 3 17 11 3 10 -2 12 -22 7 -30 -7 -34 1 -8 21 15 13 15
14 -10 10 -32 -5 -35 0 -10 19 15 12 14 13 -10 14 -29 0 -39 24 -15 33 21 9
47 7 47 -3z m-458 -42 c-9 -9 -12 -7 -12 12 0 19 3 21 12 12 9 -9 9 -15 0 -24z
m90 -50 c6 -66 3 -82 -13 -73 -12 8 -12 135 0 135 5 0 11 -28 13 -62z m-286
40 c5 -7 7 -30 5 -51 -1 -21 3 -46 11 -55 12 -16 11 -16 -12 -1 -13 9 -28 29
-32 45 -14 50 7 96 28 62z m546 -23 c3 -14 11 -19 26 -18 16 2 22 -3 22 -18 0
-18 3 -19 14 -10 12 10 17 8 25 -8 19 -34 13 -41 -38 -41 -43 0 -52 4 -70 28
-19 27 -20 44 -5 91 6 18 21 4 26 -24z m-1458 -8 c-3 -9 -10 -17 -15 -17 -11
0 -12 34 -2 44 11 11 24 -9 17 -27z m806 23 c0 -5 -4 -10 -10 -10 -5 0 -10 5
-10 10 0 6 5 10 10 10 6 0 10 -4 10 -10z m190 0 c0 -5 -4 -10 -10 -10 -5 0
-10 5 -10 10 0 6 5 10 10 10 6 0 10 -4 10 -10z m-248 -18 c-7 -2 -12 -11 -12
-21 0 -9 -5 -22 -11 -28 -8 -8 -4 -15 12 -27 25 -17 6 -23 -20 -7 -11 7 -11
16 4 55 10 27 22 43 28 39 8 -5 7 -8 -1 -11z m578 -5 c0 -7 -7 -22 -15 -33
-14 -18 -14 -17 -15 14 0 22 5 32 15 32 8 0 15 -6 15 -13z m423 -12 c0 -6 -7
-11 -16 -13 -12 -3 -15 1 -11 13 7 17 25 17 27 0z m-384 -16 c-22 -14 -33 -10
-19 6 7 8 17 12 22 9 6 -4 5 -10 -3 -15z m-1836 4 c-7 -2 -21 -2 -30 0 -10 3
-4 5 12 5 17 0 24 -2 18 -5z m1007 2 c0 -10 -43 -65 -51 -65 -12 0 3 44 19 58
16 12 32 16 32 7z m-245 -61 c-27 -33 -34 -48 -26 -57 5 -7 8 -23 4 -35 -4
-18 -1 -22 16 -22 11 0 21 -6 21 -14 0 -21 24 -38 37 -25 7 7 40 9 97 4 73 -6
86 -10 86 -25 0 -35 -71 -62 -167 -64 -18 -1 -33 -4 -33 -7 0 -3 -13 -6 -29
-6 -38 0 -81 -28 -81 -53 0 -12 -5 -17 -14 -14 -7 3 -16 -2 -19 -10 -7 -17
-44 -21 -65 -8 -10 7 -10 15 -2 36 5 15 10 38 10 52 0 13 4 24 10 24 5 0 7 7
4 15 -4 8 -1 21 5 29 9 10 8 15 -4 20 -22 8 -18 25 8 35 12 5 31 18 41 30 l19
21 -46 0 c-58 0 -62 15 -6 24 48 8 83 29 122 73 43 49 53 28 12 -23z m565 40
c0 -8 -4 -12 -10 -9 -5 3 -10 10 -10 16 0 5 5 9 10 9 6 0 10 -7 10 -16z m-740
-11 c2 -2 0 -7 -6 -11 -6 -4 -14 -24 -18 -44 l-7 -38 -150 0 -150 0 19 28 c49
69 91 83 217 75 50 -3 92 -7 95 -10z m1040 13 c0 -3 -4 -8 -10 -11 -5 -3 -10
-1 -10 4 0 6 5 11 10 11 6 0 10 -2 10 -4z m250 -27 c0 -5 -9 -9 -20 -9 -22 0
-23 1 -14 24 5 13 9 14 20 5 8 -6 14 -15 14 -20z m-1907 12 c41 -1 47 -17 25
-66 -11 -24 -14 -25 -105 -25 -55 0 -93 -4 -93 -10 0 -6 35 -10 86 -10 76 0
85 -2 74 -15 -9 -11 -33 -15 -91 -15 l-79 0 0 51 c0 27 3 48 8 45 13 -8 72 23
72 38 0 12 8 15 33 12 17 -2 49 -4 70 -5z m936 6 c-2 -1 -12 -9 -21 -16 -15
-12 -18 -11 -18 3 0 10 8 16 22 16 12 0 19 -1 17 -3z m175 -29 c-46 -54 -58
-62 -47 -30 9 26 34 52 51 52 12 0 11 -4 -4 -22z m1420 -9 c-8 -13 -24 -1 -24
18 0 13 3 13 15 3 8 -7 12 -16 9 -21z m-1365 4 c-27 -34 -40 -45 -46 -39 -4 4
4 17 18 31 28 28 48 33 28 8z m231 -10 c21 -9 62 -13 105 -12 65 2 70 1 73
-19 3 -22 2 -22 -141 -22 -79 0 -146 3 -150 6 -3 3 2 21 10 40 18 37 29 37
103 7z m135 17 c3 -5 -1 -10 -9 -10 -9 0 -16 5 -16 10 0 6 4 10 9 10 6 0 13
-4 16 -10z m1231 -50 c36 0 -2 -29 -38 -30 -13 0 -9 49 5 73 12 21 12 21 15
-10 2 -21 9 -33 18 -33z m-1003 24 c-1 -10 5 -23 14 -27 12 -8 12 -11 -6 -24
-12 -8 -25 -12 -29 -9 -12 7 -1 87 12 83 6 -2 10 -13 9 -23z m-813 1 c-27 -14
-36 -13 -25 4 3 6 16 11 28 11 21 -1 21 -1 -3 -15z m765 -5 c3 -5 -3 -10 -14
-10 -12 0 -21 5 -21 10 0 6 6 10 14 10 8 0 18 -4 21 -10z m843 -27 c2 -9 -9
-13 -38 -13 -35 0 -39 2 -28 15 15 17 60 16 66 -2z m-908 -1 c0 -4 -9 -8 -20
-8 -11 0 -20 4 -20 8 0 4 9 8 20 8 11 0 20 -4 20 -8z m65 -2 c3 -5 -3 -10 -14
-10 -12 0 -21 5 -21 10 0 6 6 10 14 10 8 0 18 -4 21 -10z m-137 -48 c-3 -15
-31 -17 -313 -20 -326 -2 -425 4 -433 27 -4 11 33 12 212 9 119 -3 218 -2 220
1 2 3 75 5 161 3 141 -3 156 -5 153 -20z m72 8 c0 -5 -9 -6 -20 -3 -11 3 -20
9 -20 13 0 5 9 6 20 3 11 -3 20 -9 20 -13z m1120 0 c3 -5 5 -29 5 -52 -1 -24
-3 -75 -3 -114 l-2 -70 -39 -2 c-27 -2 -40 2 -44 13 -4 9 -19 15 -37 15 -16 0
-30 5 -30 10 0 6 9 10 19 10 11 0 32 5 46 10 23 9 25 13 15 25 -7 8 -22 15
-34 15 -26 -1 -66 -33 -66 -54 0 -10 -9 -16 -22 -16 -13 0 -29 -4 -37 -9 -12
-8 -12 -12 -2 -25 8 -9 22 -16 33 -16 29 0 13 -16 -23 -24 -37 -7 -34 -30 4
-34 32 -4 36 -27 7 -35 -14 -3 -20 -14 -20 -31 0 -31 17 -35 22 -4 5 34 25 32
32 -3 3 -17 6 -73 6 -125 0 -57 4 -95 11 -100 8 -5 10 31 8 127 l-4 133 84 2
84 1 -6 -196 c-4 -108 -7 -196 -7 -196 -140 0 -2680 4 -2790 4 l-165 1 2 302
c1 167 2 324 2 351 l1 47 70 0 70 0 0 -44 c0 -36 -6 -50 -40 -89 -48 -54 -54
-96 -16 -116 29 -16 46 -51 46 -97 0 -45 13 -50 170 -58 69 -4 160 -9 202 -12
61 -3 78 -1 78 9 0 30 -101 87 -154 87 -30 0 -39 6 -62 39 -20 31 -24 46 -19
75 8 42 16 45 30 14 6 -15 20 -23 38 -25 35 -2 35 15 0 19 -32 4 -46 38 -16
38 11 0 24 5 31 12 15 15 -3 38 -29 38 -11 0 -19 5 -19 10 0 6 5 10 11 10 7 0
9 12 5 33 -11 60 -8 61 195 53 150 -6 186 -10 196 -23 7 -9 10 -19 8 -23 -9
-14 -24 -142 -18 -155 13 -35 78 -35 130 1 20 13 41 24 48 24 7 0 18 6 24 14
7 8 55 24 106 36 107 24 162 61 150 100 -6 20 -3 20 249 20 141 0 259 0 264 0
4 0 7 -26 7 -57 0 -54 2 -58 28 -67 42 -15 61 2 71 67 7 44 13 57 30 61 12 3
255 4 541 3 286 -2 489 0 450 4 -38 3 -283 7 -542 8 -466 1 -473 1 -473 21 0
21 33 29 45 10 9 -14 46 -12 75 5 21 12 97 14 494 10 297 -3 472 -8 476 -15z
m-2155 -10 c0 -13 -25 -14 -180 -11 -99 2 -182 5 -184 6 -1 2 0 9 4 15 5 8 60
10 183 8 149 -3 177 -5 177 -18z m-555 -15 c14 -17 6 -62 -16 -86 -19 -22 -7
-49 22 -49 25 0 54 33 54 62 0 24 46 46 62 30 9 -9 7 -12 -11 -12 -21 0 -23
-3 -18 -35 5 -33 4 -35 -21 -35 -24 -1 -25 -2 -8 -11 15 -9 16 -13 5 -20 -12
-8 -12 -11 1 -19 13 -8 12 -10 -2 -10 -20 0 -24 -15 -8 -25 6 -3 7 -17 4 -30
-3 -12 -1 -26 5 -29 6 -4 11 -16 11 -27 0 -11 7 -22 15 -25 8 -4 15 -12 15
-19 0 -8 8 -14 18 -14 56 -1 103 -10 130 -27 41 -24 41 -38 0 -30 -18 4 -73 9
-123 13 -82 5 -93 8 -121 35 -24 22 -35 44 -44 90 -10 54 -14 61 -46 74 -36
15 -36 15 -18 41 9 15 17 43 17 64 0 23 5 40 13 43 8 3 11 12 8 21 -3 8 -1 15
5 15 6 0 11 7 11 15 0 19 24 19 40 0z m1580 -45 c0 -5 -4 -10 -10 -10 -5 0
-10 5 -10 10 0 6 5 10 10 10 6 0 10 -4 10 -10z m-1555 -49 c-3 -6 -11 -11 -17
-11 -6 0 -6 6 2 15 14 17 26 13 15 -4z m2570 -111 c3 -5 -3 -10 -15 -10 -12 0
-18 5 -15 10 3 6 10 10 15 10 5 0 12 -4 15 -10z m-68 -6 c-3 -3 -12 -4 -19 -1
-8 3 -5 6 6 6 11 1 17 -2 13 -5z m185 -39 c-2 -11 -5 -21 -6 -22 -1 -1 -36 -5
-79 -9 -55 -5 -77 -4 -77 5 0 7 22 11 60 11 80 0 78 20 -2 21 -59 2 -60 2 -23
9 22 4 60 7 85 6 39 -1 45 -4 42 -21z m-7 -54 c-3 -6 -38 -11 -81 -11 -98 0
-89 14 11 18 53 3 75 0 70 -7z"/>
<g>
<path d="M2306 4256 c-7 -12 -17 -37 -21 -56 -7 -31 -6 -33 8 -22 13 11 17 10
25 -3 14 -26 48 -14 44 14 -1 13 5 32 14 42 20 23 12 36 -26 41 -22 3 -33 -1
-44 -16z"/>
</g>
<g>
<path d="M2548 4099 c-22 -12 -38 -71 -29 -106 9 -33 38 -43 48 -16 3 10 15
28 27 41 20 22 20 24 4 36 -10 7 -18 20 -18 29 0 21 -12 27 -32 16z m5 -34
c-3 -9 -8 -14 -10 -11 -3 3 -2 9 2 15 9 16 15 13 8 -4z m27 -30 c0 -8 -7 -15
-15 -15 -26 0 -18 20 13 29 1 1 2 -6 2 -14z"/>
</g>
<g>
<path d="M1480 4710 c0 -5 5 -10 11 -10 5 0 7 5 4 10 -3 6 -8 10 -11 10 -2 0
-4 -4 -4 -10z"/>
</g>
<g>
<path d="M1477 4674 c-4 -4 -4 -10 -2 -14 6 -10 45 0 45 11 0 10 -33 12 -43 3z"/>
</g>
<g>
<path d="M2060 3380 c0 -5 5 -10 10 -10 6 0 10 5 10 10 0 6 -4 10 -10 10 -5 0
-10 -4 -10 -10z"/>
</g>
<g>
<path d="M2040 3270 c0 -5 7 -10 15 -10 8 0 15 5 15 10 0 6 -7 10 -15 10 -8 0
-15 -4 -15 -10z"/>
</g>
<g>
<path d="M2035 3240 c3 -5 14 -10 23 -10 15 0 15 2 2 10 -20 13 -33 13 -25 0z"/>
</g>
<g>
<path d="M1940 3714 c0 -14 3 -14 15 -4 8 7 15 14 15 16 0 2 -7 4 -15 4 -8 0
-15 -7 -15 -16z"/>
</g>
<g>
<path d="M1680 2926 c0 -2 7 -9 15 -16 12 -10 15 -10 15 4 0 9 -7 16 -15 16
-8 0 -15 -2 -15 -4z"/>
</g>
<g>
<path d="M1351 2913 c-8 -3 -26 -20 -40 -36 -14 -17 -33 -38 -42 -46 -21 -21
-30 -49 -19 -56 6 -3 15 7 22 22 14 33 85 103 105 103 7 0 13 5 13 10 0 11
-16 12 -39 3z"/>
</g>
<g>
<path d="M1290 2432 c0 -15 68 -87 75 -80 4 4 -7 25 -25 48 -30 38 -50 51 -50
32z"/>
</g>
<g>
<path d="M1853 2836 c-34 -16 -28 -26 7 -13 17 6 30 15 30 19 0 10 -9 9 -37
-6z"/>
</g>
<g>
<path d="M1783 2748 c-16 -20 -26 -58 -15 -58 10 0 35 60 28 67 -2 2 -8 -2
-13 -9z"/>
</g>
<g>
<path d="M1785 2679 c-22 -24 -26 -35 -19 -47 19 -30 34 -25 34 10 0 19 5 39
12 46 6 6 10 14 7 16 -3 3 -18 -9 -34 -25z"/>
</g>
<g>
<path d="M1728 2654 c-14 -13 24 -74 45 -74 6 0 3 8 -6 18 -9 9 -20 28 -24 40
-5 13 -12 20 -15 16z"/>
</g>
<g>
<path d="M1822 2615 c0 -16 2 -22 5 -12 2 9 2 23 0 30 -3 6 -5 -1 -5 -18z"/>
</g>
<g>
<path d="M2152 2550 c-16 -26 -15 -40 3 -40 8 0 15 6 15 14 0 8 3 21 6 30 9
23 -9 20 -24 -4z"/>
</g>
<g>
<path d="M2077 2536 c-4 -10 -5 -21 -2 -24 9 -9 17 6 13 25 -3 17 -4 17 -11
-1z"/>
</g>
<g>
<path d="M2105 2537 c-4 -10 -5 -21 -1 -24 10 -10 18 4 13 24 -4 17 -4 17 -12
0z"/>
</g>
<g>
<path d="M1070 2321 c0 -10 30 -24 37 -17 3 3 2 9 -2 15 -8 13 -35 15 -35 2z"/>
</g>
<g>
<path d="M1127 2283 c-4 -3 -7 -17 -7 -30 0 -13 -7 -26 -15 -29 -19 -8 -20
-34 -1 -34 9 0 15 -17 18 -55 5 -59 12 -75 28 -59 7 7 6 30 -1 70 -6 32 -8 78
-5 102 5 39 -1 52 -17 35z"/>
</g>
<g>
<path d="M1090 2264 c0 -8 5 -12 10 -9 6 4 8 11 5 16 -9 14 -15 11 -15 -7z"/>
</g>
<g>
<path d="M913 1995 c0 -8 4 -12 9 -9 5 3 6 10 3 15 -9 13 -12 11 -12 -6z"/>
</g>
<g>
<path d="M1020 1732 c0 -10 60 -45 66 -39 5 5 -49 47 -60 47 -3 0 -6 -4 -6 -8z"/>
</g>
<g>
<path d="M1040 1675 c7 -8 17 -15 22 -15 6 0 5 7 -2 15 -7 8 -17 15 -22 15 -6
0 -5 -7 2 -15z"/>
</g>
<g>
<path d="M2835 1120 c3 -5 8 -10 11 -10 2 0 4 5 4 10 0 6 -5 10 -11 10 -5 0
-7 -4 -4 -10z"/>
</g>
<g>
<path d="M2836 1051 c-4 -7 -5 -15 -2 -18 9 -9 19 4 14 18 -4 11 -6 11 -12 0z"/>
</g>
<g>
<path d="M2770 1030 c0 -5 5 -10 10 -10 6 0 10 5 10 10 0 6 -4 10 -10 10 -5 0
-10 -4 -10 -10z"/>
</g>
<g>
<path d="M2780 996 c0 -9 5 -16 10 -16 6 0 10 4 10 9 0 6 -4 13 -10 16 -5 3
-10 -1 -10 -9z"/>
</g>
<g>
<path d="M2870 995 c7 -8 16 -12 21 -9 13 8 1 24 -18 24 -13 0 -13 -3 -3 -15z"/>
</g>
<g>
<path d="M2840 970 c0 -5 5 -10 10 -10 6 0 10 5 10 10 0 6 -4 10 -10 10 -5 0
-10 -4 -10 -10z"/>
</g>
<g>
<path d="M2780 908 c0 -49 5 -47 13 5 3 20 2 37 -4 37 -5 0 -9 -19 -9 -42z"/>
</g>
<g>
<path d="M2297 884 c-8 -8 1 -24 14 -24 5 0 9 7 9 15 0 15 -12 20 -23 9z"/>
</g>
<g>
<path d="M2840 382 c0 -14 11 -21 26 -15 21 8 17 23 -6 23 -11 0 -20 -4 -20
-8z"/>
</g>
</g>
</g>
</svg>
