<?xml version="1.0" standalone="no"?>
<!DOCTYPE svg PUBLIC "-//W3C//DTD SVG 20010904//EN"
 "http://www.w3.org/TR/2001/REC-SVG-20010904/DTD/svg10.dtd">
<svg version="1.0" xmlns="http://www.w3.org/2000/svg"
 width="300.000000pt" height="527.000000pt" viewBox="0 0 300.000000 527.000000"
 preserveAspectRatio="xMidYMid meet">
<metadata>
Created by potrace 1.15, written by Peter Selinger 2001-2017
</metadata>
<g transform="translate(0.000000,527.000000) scale(0.100000,-0.100000)"
fill="#000000" stroke="none">
<g>
<path d="M16 5247 c-10 -43 -18 -1385 -8 -1403 6 -10 6 -29 1 -48 -5 -19 -5
-34 1 -40 7 -7 10 -6 10 2 0 7 12 4 33 -8 38 -24 43 -24 50 -6 7 17 -39 50
-65 49 -10 -1 -18 5 -18 14 0 13 8 14 43 9 23 -4 61 -10 85 -13 23 -3 42 -9
42 -14 0 -5 13 -15 28 -23 18 -9 41 -39 64 -84 l36 -70 -3 79 c-2 69 -6 81
-26 98 -40 32 -13 35 52 6 34 -15 79 -30 100 -32 51 -7 50 -21 -8 -105 -42
-61 -70 -88 -58 -55 3 6 -6 35 -19 62 -28 57 -35 34 -11 -34 8 -22 10 -41 5
-41 -6 0 -10 6 -10 13 0 8 -3 7 -10 -3 -16 -25 12 -44 54 -36 24 5 45 19 66
44 16 20 30 40 30 44 0 5 12 26 26 47 34 52 23 76 -40 83 -67 8 -156 48 -156
70 0 10 -7 21 -15 24 -15 6 -75 118 -75 139 0 6 -7 20 -15 31 -14 19 -15 18
-34 -6 -11 -14 -23 -22 -27 -18 -4 4 -1 16 7 25 7 10 1 7 -13 -6 -15 -13 -25
-27 -22 -32 2 -4 -3 -12 -11 -17 -9 -4 -29 -28 -46 -53 l-29 -44 0 37 c0 20
-3 43 -6 52 -4 11 3 19 22 27 l29 10 -27 21 c-16 11 -28 26 -28 34 0 18 5 18
34 -2 18 -11 26 -12 32 -3 6 11 -8 26 -42 47 -9 5 -11 151 -6 563 l5 556 1458
2 c1129 1 1459 -2 1465 -11 4 -7 10 -292 12 -635 4 -581 3 -625 -13 -643 -18
-19 -13 -40 9 -40 9 0 13 -29 15 -113 2 -110 1 -113 -21 -114 -25 -2 -57 -39
-54 -61 4 -25 35 -22 56 5 l20 26 0 -37 c0 -23 -5 -39 -15 -42 -16 -7 -20 -30
-6 -36 11 -4 14 -31 12 -116 -1 -35 -5 -61 -10 -58 -5 3 -28 -11 -51 -32 -29
-26 -40 -42 -35 -53 6 -15 11 -14 45 8 51 34 54 33 57 -4 3 -31 -11 -46 -19
-22 -6 19 -46 -12 -51 -40 -7 -36 -1 -38 33 -13 36 27 40 27 40 3 0 -32 -11
-51 -31 -51 -10 0 -25 -10 -33 -22 -19 -27 -14 -33 13 -16 16 10 23 10 33 0 9
-9 7 -12 -10 -12 -12 0 -26 -9 -33 -21 -10 -20 -9 -21 19 -14 18 3 33 2 37 -4
3 -6 0 -11 -8 -11 -8 0 -18 -7 -21 -16 -9 -24 -1 -28 18 -9 15 15 16 15 16 -8
0 -16 -7 -26 -20 -30 -11 -3 -20 -12 -20 -21 0 -21 16 -20 30 2 7 12 9 -187 6
-682 -3 -517 -7 -700 -15 -706 -23 -13 -88 -10 -101 5 -7 9 -21 13 -31 10 -33
-11 -29 13 5 33 29 17 36 28 41 65 10 66 1 82 -68 122 -34 19 -69 40 -78 47
-22 15 -70 1 -76 -22 -3 -11 -9 -20 -14 -20 -4 0 -19 -10 -33 -23 -20 -19 -24
-31 -22 -74 2 -54 20 -87 42 -79 7 3 18 -2 24 -10 18 -20 -19 -19 -65 3 l-35
17 0 77 c0 69 -2 78 -20 84 -13 4 -37 -2 -61 -14 -22 -12 -48 -21 -58 -21 -24
0 -57 41 -66 81 -8 37 -35 69 -59 69 -8 0 -20 -14 -28 -30 -13 -30 -13 -30
-95 -30 -45 0 -88 -3 -97 -6 -10 -4 -16 -1 -16 9 0 27 -34 56 -80 68 -58 15
-120 5 -120 -19 0 -10 -16 -26 -35 -36 -26 -14 -35 -26 -35 -45 -1 -14 -10
-37 -20 -50 -17 -20 -23 -21 -36 -11 -12 11 -18 10 -31 -2 -17 -18 -9 -42 12
-34 7 2 17 0 24 -7 12 -12 55 28 66 63 7 22 20 26 30 10 3 -5 10 -10 15 -10
14 0 82 99 75 110 -9 14 8 12 55 -6 46 -19 52 -41 13 -46 -17 -2 -28 -9 -28
-18 0 -11 10 -14 40 -12 52 4 76 -15 79 -60 1 -34 1 -35 -28 -27 -35 10 -108
1 -118 -15 -4 -6 0 -19 9 -28 15 -17 14 -18 -10 -18 -14 0 -29 5 -33 11 -3 6
-19 9 -34 6 -15 -3 -32 -1 -38 5 -9 9 -18 8 -36 -1 -18 -10 -29 -10 -45 -2
-11 7 -21 16 -21 21 0 6 -7 10 -15 10 -9 0 -15 -9 -15 -25 0 -25 9 -32 65 -50
16 -5 17 -8 5 -15 -8 -6 -27 -10 -41 -10 -14 0 -49 -18 -79 -40 -29 -22 -58
-40 -63 -40 -14 0 -1 68 17 86 18 18 17 14 22 77 2 35 -1 49 -11 54 -8 3 -15
11 -15 18 0 6 -8 19 -19 29 -14 13 -24 14 -45 7 -14 -6 -26 -18 -26 -27 0 -9
-7 -22 -15 -28 -8 -7 -15 -31 -16 -62 -3 -55 4 -74 26 -74 19 0 48 -44 43 -67
-3 -19 -41 -31 -75 -25 -18 3 -23 11 -23 33 0 19 -12 42 -35 68 -38 42 -42 62
-21 112 13 32 60 79 78 79 5 0 38 22 73 50 35 27 68 50 72 50 18 0 123 108
123 126 0 11 13 27 29 37 31 18 81 72 81 88 0 15 -27 10 -34 -6 -3 -8 -13 -15
-22 -15 -10 0 -14 -5 -10 -15 3 -9 -4 -21 -19 -31 -21 -13 -28 -14 -40 -4 -21
18 -46 -3 -27 -22 15 -15 16 -38 1 -38 -7 0 -17 -8 -24 -17 -11 -15 -13 -15
-20 6 -4 12 -2 28 5 36 7 8 7 15 1 19 -5 4 -12 2 -16 -4 -3 -5 -28 -20 -56
-31 -27 -12 -49 -27 -49 -34 0 -9 -11 -12 -38 -8 -27 4 -48 -1 -75 -16 -21
-12 -42 -21 -47 -21 -21 0 -50 -36 -50 -62 0 -15 -4 -29 -9 -32 -8 -5 -18 -47
-24 -103 -3 -30 -12 -36 -27 -18 -7 8 -19 15 -26 15 -18 0 -18 31 0 55 13 18
14 18 9 -8 -4 -20 -1 -27 10 -27 18 0 27 21 27 66 0 24 5 34 15 34 26 0 16 27
-12 33 -19 4 -32 1 -40 -9 -10 -14 -13 -13 -23 6 -18 34 -35 10 -22 -29 8 -22
8 -40 1 -61 -13 -35 -16 -36 -40 -14 -25 23 -56 9 -70 -31 -16 -43 -37 -52
-45 -20 -4 18 -12 24 -28 23 -29 -3 -30 -26 -2 -56 20 -23 17 -32 -16 -44 -4
-2 -10 -25 -14 -53 -3 -27 -8 -57 -11 -65 -4 -8 -7 -22 -7 -30 -1 -8 -7 -16
-13 -16 -7 -1 -16 -3 -20 -4 -5 -1 -12 -2 -18 -1 -5 1 -1 -5 9 -14 10 -8 23
-12 27 -9 18 11 46 -15 44 -41 -2 -14 0 -23 5 -20 10 6 38 -107 46 -184 7 -61
6 -62 -46 -76 -3 -1 -13 -5 -23 -10 -25 -11 -28 -5 -33 67 -3 50 -2 55 5 25 4
-20 11 -40 14 -44 15 -15 19 9 8 51 -6 25 -11 66 -11 93 -1 47 -30 129 -43
117 -3 -3 1 -23 9 -44 9 -21 14 -53 12 -72 -4 -30 -5 -28 -12 19 -5 29 -11 51
-15 49 -3 -2 -6 -61 -5 -131 l1 -127 -31 4 c-17 3 -38 7 -46 9 -32 9 -13 -27
20 -37 43 -14 53 -44 44 -135 -5 -54 -3 -73 11 -97 20 -34 14 -62 -13 -62 -10
0 -23 -5 -30 -12 -21 -21 -35 6 -38 74 -2 35 -8 80 -14 101 -5 20 -14 52 -19
70 -5 17 -12 39 -16 48 -3 10 -2 20 4 24 19 11 12 33 -11 37 -22 3 -23 6 -20
106 2 57 7 115 13 129 8 21 6 26 -11 30 -16 4 -19 11 -14 27 16 51 25 67 34
61 5 -3 7 -12 4 -20 -7 -17 32 -35 77 -35 40 0 34 19 -14 44 -20 11 -37 25
-37 31 0 25 -31 73 -50 78 -14 4 -20 14 -20 33 0 27 1 27 15 8 13 -18 14 -15
15 30 0 47 -1 49 -19 32 -18 -16 -19 -16 -25 9 -4 14 -2 34 4 45 14 26 -16 65
-37 48 -7 -6 -13 -17 -13 -24 0 -8 -5 -14 -11 -14 -6 0 -9 6 -6 14 3 8 -1 20
-9 26 -8 7 -14 19 -14 26 0 17 -32 18 -48 2 -19 -19 -42 9 -42 52 0 38 -25
100 -40 100 -10 0 -7 26 4 37 4 4 12 0 17 -10 10 -18 39 -24 39 -8 0 17 -88
102 -95 92 -11 -18 -53 -4 -79 26 -17 20 -21 30 -13 36 7 5 2 6 -10 2 -17 -5
-23 -2 -23 9 0 9 -9 16 -20 16 -17 0 -19 -4 -14 -27 8 -30 35 -61 77 -86 17
-11 27 -26 27 -41 0 -12 9 -31 20 -41 11 -10 20 -30 20 -44 0 -15 13 -39 30
-58 17 -18 30 -36 30 -41 0 -11 44 -52 56 -52 5 0 24 -16 41 -35 18 -19 41
-35 51 -35 15 0 21 -16 36 -88 10 -48 23 -93 29 -100 7 -9 7 -16 -2 -25 -9 -9
-17 -5 -34 15 -15 18 -34 28 -57 30 -30 3 -35 7 -41 36 -9 44 -36 72 -70 72
-16 0 -34 8 -42 20 -10 14 -21 18 -42 14 -38 -7 -45 -12 -45 -32 0 -9 -5 -24
-10 -32 -7 -12 -13 -11 -35 10 -19 18 -28 21 -37 12 -8 -8 3 -27 43 -75 30
-35 66 -73 81 -83 l27 -18 -27 -12 c-24 -10 -25 -12 -8 -19 10 -5 42 -7 70 -6
28 1 86 2 128 2 61 0 78 3 78 15 0 8 5 14 10 14 13 0 13 -2 -5 -36 -8 -16 -17
-48 -21 -71 -7 -49 4 -46 -198 -67 -70 -7 -131 -18 -135 -23 -3 -6 -58 -16
-121 -22 -85 -9 -120 -17 -135 -30 -11 -10 -37 -21 -57 -24 l-38 -6 0 53 c0
53 0 53 39 64 21 7 48 12 60 12 11 0 29 8 39 18 16 16 20 17 28 4 8 -13 16
-12 54 5 25 11 60 26 78 33 17 7 32 16 32 21 0 16 -45 9 -99 -16 -30 -14 -56
-23 -59 -20 -5 5 38 44 51 45 4 0 7 7 7 15 0 20 -26 19 -48 -3 -68 -64 -72
-66 -128 -67 -43 0 -54 3 -52 15 2 9 17 16 41 18 30 3 50 15 102 64 36 34 65
70 65 80 0 24 -11 23 -44 -3 -41 -32 -39 -19 3 35 41 51 68 72 79 61 4 -4 -1
-11 -11 -16 -22 -13 -22 -29 1 -29 35 1 52 25 52 74 0 42 2 46 24 46 28 0 76
55 76 87 0 21 -29 53 -48 53 -7 0 -12 13 -12 29 0 32 -14 41 -63 41 -43 0 -61
-13 -63 -47 -1 -15 -3 -31 -3 -36 -1 -4 -12 -12 -26 -17 -30 -12 -31 -19 -4
-64 13 -22 30 -37 49 -41 43 -10 46 -33 5 -51 -43 -18 -55 -18 -55 0 0 7 -7
19 -15 26 -9 7 -13 21 -10 30 4 13 -3 22 -24 33 -26 13 -32 13 -50 0 -13 -9
-21 -25 -21 -42 0 -27 -15 -41 -42 -41 -7 0 -8 111 -3 348 3 191 7 490 8 664
2 296 3 318 20 318 9 0 17 7 17 16 0 11 -6 15 -20 11 -15 -4 -20 0 -20 14 0
14 7 19 30 19 39 0 39 16 0 25 -40 9 -40 35 1 35 38 0 35 24 -3 28 -15 2 -29
10 -32 18 -7 19 21 31 37 15 13 -13 47 -15 47 -2 0 13 -22 29 -53 36 -17 5
-27 14 -27 26 0 24 0 24 55 -3 43 -21 64 -21 51 1 -4 5 -31 24 -61 41 -52 30
-67 51 -45 65 5 3 34 -11 64 -31 30 -20 60 -33 66 -29 5 3 8 10 5 15 -13 21
-98 70 -121 70 -20 0 -24 4 -20 18 3 9 6 52 8 95 1 70 3 77 21 77 20 0 20 1
-1 23 -20 22 -29 47 -17 47 3 0 16 -7 28 -15 13 -8 28 -11 35 -6 10 6 4 16
-23 39 -40 36 -50 39 -58 17 -4 -8 -6 -487 -7 -1065 0 -1047 0 -1050 20 -1050
11 0 20 -4 20 -10 0 -5 -9 -10 -20 -10 -20 0 -20 -7 -20 -795 l0 -795 1500 0
1500 0 0 2635 0 2635 -1489 -1 -1489 -1 -6 -21z m214 -1333 c22 -49 22 -84 1
-84 -5 0 -12 10 -15 23 -6 22 -6 22 -30 -7 -29 -35 -43 -18 -15 19 17 20 19
29 10 38 -10 9 -20 3 -46 -28 -19 -22 -37 -36 -41 -32 -4 4 -13 2 -20 -4 -18
-15 -44 -4 -44 17 0 9 18 39 40 66 22 28 40 55 40 59 0 16 28 9 34 -8 6 -15
11 -12 29 17 l21 34 7 -30 c4 -16 17 -52 29 -80z m265 -1794 c3 -5 -3 -18 -15
-30 l-20 -20 0 23 c0 34 21 50 35 27z m1125 -102 c0 -36 -4 -35 -14 5 -4 16
-2 27 4 27 5 0 10 -14 10 -32z m-91 -32 c14 -16 4 -46 -15 -46 -7 0 -19 10
-25 23 -7 12 -17 25 -23 29 -6 4 3 8 20 8 17 0 37 -6 43 -14z m-104 -12 c13
-5 14 -8 3 -15 -19 -13 -28 -11 -28 6 0 17 2 18 25 9z m-1138 -32 c7 -4 11
-28 10 -57 -2 -44 0 -50 18 -50 12 0 20 7 20 17 0 25 14 33 21 14 10 -26 -12
-66 -36 -66 -11 0 -20 6 -20 14 0 20 -60 32 -71 15 -8 -12 -11 -11 -19 1 -7
11 -2 22 20 43 17 16 28 33 24 38 -7 12 2 39 13 39 4 0 13 -4 20 -8z m1563
-70 c0 -13 -12 -22 -22 -16 -10 6 -1 24 13 24 5 0 9 -4 9 -8z m880 -37 c0 -8
-9 -15 -20 -15 -20 0 -26 11 -13 23 12 13 33 7 33 -8z m-1571 -39 c6 -8 26
-20 44 -27 37 -15 67 -44 84 -82 14 -30 43 -37 43 -9 0 12 12 3 40 -28 40 -46
47 -60 30 -60 -5 0 -10 7 -10 15 0 8 -6 15 -14 15 -8 0 -16 4 -18 10 -4 11
-90 14 -133 5 -16 -4 -43 -2 -59 4 -27 11 -28 12 -12 36 20 30 20 49 1 65 -12
10 -18 10 -29 1 -8 -7 -17 -8 -20 -3 -3 6 1 15 9 22 8 7 15 21 15 31 0 22 13
25 29 5z m1689 -29 c3 -16 1 -17 -17 -5 -25 16 -27 31 -4 26 10 -2 19 -11 21
-21z m-2728 -11 c0 -14 5 -28 10 -31 14 -9 13 -35 -2 -35 -6 0 -19 -7 -29 -15
-15 -14 -18 -14 -34 1 -16 17 -16 19 9 37 16 11 26 28 26 43 0 13 5 24 10 24
6 0 10 -11 10 -24z m1471 4 c15 0 10 -22 -8 -36 -14 -10 -15 -15 -6 -25 17
-17 4 -39 -23 -39 -21 0 -24 4 -18 25 4 15 2 25 -5 25 -6 0 -11 11 -11 24 0
25 21 38 48 30 8 -2 18 -4 23 -4z m1166 -15 c12 -9 27 -14 34 -13 6 2 13 -2
15 -7 3 -7 -16 -11 -47 -12 -28 0 -56 -6 -62 -12 -6 -6 -18 -11 -26 -11 -10 0
-3 12 19 34 42 40 40 40 67 21z m-1444 -10 c-3 -9 -8 -14 -10 -11 -3 3 -2 9 2
15 9 16 15 13 8 -4z m1165 -2 c5 -18 -20 -16 -44 2 -18 15 -18 15 10 13 16 -2
31 -9 34 -15z m-284 -24 c12 -11 -36 -29 -76 -29 l-31 0 23 25 c23 24 60 26
84 4z m196 11 c0 -5 -2 -10 -4 -10 -3 0 -8 5 -11 10 -3 6 -1 10 4 10 6 0 11
-4 11 -10z m-1919 -39 c7 -18 6 -22 -9 -19 -9 1 -23 -1 -29 -5 -17 -10 -17 7
-1 33 16 24 28 21 39 -9z m2054 9 c3 -5 -1 -10 -10 -10 -9 0 -13 5 -10 10 3 6
8 10 10 10 2 0 7 -4 10 -10z m-141 -37 c-4 -16 -7 -29 -8 -30 -1 -1 -12 7 -26
19 -17 13 -19 18 -7 14 11 -3 20 0 23 9 10 26 25 16 18 -12z m-504 7 c0 -5 -4
-10 -10 -10 -5 0 -10 5 -10 10 0 6 5 10 10 10 6 0 10 -4 10 -10z m-1328 -13
c17 15 18 14 18 -13 0 -46 -33 -72 -43 -34 -3 12 -14 20 -26 20 -19 0 -20 2
-9 20 11 17 14 18 27 5 13 -13 17 -13 33 2z m1698 -12 c9 -8 28 -15 42 -15 16
0 32 -9 42 -25 15 -23 15 -25 -6 -39 -17 -13 -20 -18 -10 -28 10 -10 18 -9 41
5 32 19 61 22 61 7 0 -5 -6 -10 -13 -10 -23 0 -67 -25 -67 -37 0 -8 13 -13 30
-13 17 0 30 5 30 11 0 11 55 7 116 -8 14 -3 29 3 40 15 11 10 31 22 47 26 15
3 27 13 27 20 0 20 180 27 187 9 6 -15 89 -18 98 -3 8 12 35 13 54 1 11 -7 13
-60 12 -292 -1 -156 -4 -286 -7 -288 -6 -7 -233 -2 -259 5 -66 19 -75 27 -73
72 1 24 9 51 19 63 9 11 20 40 24 64 3 26 12 45 19 45 7 0 20 6 29 13 15 11
15 15 3 39 -11 20 -11 28 -3 32 9 3 9 7 1 13 -6 4 -13 16 -17 26 -3 9 -13 17
-20 17 -8 0 -22 9 -32 20 -21 24 -59 26 -108 5 -28 -11 -36 -22 -42 -52 -5
-21 -8 -43 -7 -48 1 -6 -12 -16 -28 -22 -17 -6 -30 -16 -30 -22 0 -7 14 -5 39
5 38 15 41 15 62 -5 l23 -21 -72 0 c-40 0 -72 4 -72 9 0 5 -12 11 -27 14 -16
3 -38 8 -50 12 -15 5 -23 3 -23 -4 0 -6 7 -11 15 -11 8 0 15 -9 15 -19 0 -19
-18 -31 -48 -31 -12 0 -13 3 -4 12 17 17 15 39 -5 54 -29 22 -43 16 -43 -16 0
-30 -1 -31 -37 -24 -42 7 -86 27 -122 55 -26 21 -41 24 -41 10 0 -15 74 -81
98 -87 12 -4 22 -12 22 -19 0 -7 7 -18 15 -25 8 -7 15 -21 15 -31 0 -15 -5
-18 -22 -14 -29 7 -78 -7 -75 -20 1 -5 13 -11 27 -12 14 0 29 -2 34 -2 5 -1 2
-9 -7 -19 -21 -23 -33 -77 -19 -86 6 -3 14 4 17 16 9 27 34 58 48 58 6 0 1
-10 -11 -23 -12 -13 -22 -29 -22 -37 0 -7 -7 -21 -16 -31 -14 -16 -14 -19 5
-38 17 -17 20 -28 14 -68 -3 -27 -10 -58 -14 -71 -8 -21 -10 -22 -32 -7 -21
13 -24 24 -25 74 -1 43 3 61 14 65 18 7 18 26 0 26 -25 0 -41 29 -28 51 19 30
15 51 -7 44 -15 -5 -18 -2 -14 13 2 11 0 22 -5 26 -11 7 -27 -11 -34 -39 -3
-11 -9 -28 -13 -37 -5 -14 -2 -18 14 -18 15 0 21 -6 21 -22 0 -17 -3 -19 -12
-10 -7 7 -24 12 -38 12 -15 0 -35 10 -46 21 -19 21 -19 22 4 15 16 -6 24 -3
29 11 4 10 15 27 25 37 19 21 24 46 8 46 -5 0 -7 7 -4 15 4 8 15 15 26 15 18
0 19 5 15 43 -9 76 -28 137 -43 137 -25 0 -10 32 37 79 30 30 46 40 34 22 -3
-6 1 -13 9 -18 8 -4 15 -12 15 -18 0 -5 14 -17 30 -26 16 -8 41 -23 56 -33 33
-22 64 -14 44 10 -7 9 -24 20 -38 25 l-24 10 33 34 c25 26 31 39 26 59 -3 13
-2 28 4 31 20 13 9 36 -32 66 -38 27 -48 30 -90 24 -32 -5 -48 -3 -48 4 0 6
-7 11 -15 11 -23 0 -84 -34 -85 -47 0 -22 -20 -14 -20 8 0 18 -4 20 -22 14
-13 -4 -40 -9 -60 -12 -21 -3 -38 -9 -38 -14 0 -5 -53 -9 -120 -8 -66 1 -120
5 -120 10 0 12 21 23 65 34 30 8 40 15 40 30 0 32 15 36 100 30 205 -15 194
-15 206 6 8 16 13 18 24 9 8 -7 19 -9 25 -5 25 16 107 33 139 30 18 -2 41 -11
51 -20z m-1169 -16 c-9 -22 -10 -22 -10 -3 -1 11 2 24 6 27 12 12 14 0 4 -24z
m1454 9 c48 -13 63 -32 28 -34 -10 -1 -26 -5 -35 -9 -13 -5 -15 -2 -11 14 4
18 1 21 -23 21 -16 0 -38 8 -49 16 -19 16 -19 16 10 11 17 -3 53 -11 80 -19z
m-1231 -33 c-3 -14 -2 -31 4 -38 23 -29 45 -160 52 -312 6 -143 5 -162 -10
-180 -10 -11 -19 -26 -22 -34 -2 -8 -12 12 -22 44 -16 49 -18 80 -13 202 5
149 -3 213 -28 213 -9 0 -15 9 -15 22 0 17 3 19 12 10 20 -20 29 -13 26 21 -2
21 -8 31 -17 29 -8 -2 -17 2 -21 9 -4 6 -12 9 -17 6 -25 -15 18 -453 56 -571
20 -64 17 -99 -7 -94 -24 5 -54 130 -48 200 3 32 1 70 -5 85 -9 23 -12 25 -24
12 -8 -8 -18 -44 -22 -79 l-7 -65 -13 85 c-11 74 -15 214 -10 386 2 52 2 52
32 47 17 -3 46 2 65 10 52 23 61 21 54 -8z m1131 -5 c4 -6 -6 -10 -22 -10 -22
0 -25 2 -13 10 19 12 27 12 35 0z m-1785 -20 c0 -11 -7 -20 -15 -20 -18 0 -19
12 -3 28 16 16 18 15 18 -8z m429 3 c-1 -10 -5 -29 -9 -43 -7 -21 -8 -19 -9
18 -1 23 4 42 9 42 6 0 10 -8 9 -17z m-949 -12 c0 -24 -47 -59 -85 -65 -37 -5
-39 -4 -20 10 19 14 19 16 3 25 -10 6 -18 14 -18 19 0 15 36 12 50 -5 11 -13
15 -12 37 5 29 23 33 24 33 11z m2470 -1 c0 -5 -8 -10 -18 -10 -10 0 -27 -7
-38 -15 -10 -8 -30 -14 -44 -14 -21 0 -18 4 20 24 49 25 80 31 80 15z m-2063
-26 c-3 -3 -12 -4 -19 -1 -8 3 -5 6 6 6 11 1 17 -2 13 -5z m1523 -11 c0 -5
-11 -13 -25 -20 -27 -12 -33 -5 -13 15 13 13 38 16 38 5z m-953 -45 c-3 -7 -5
-2 -5 12 0 14 2 19 5 13 2 -7 2 -19 0 -25z m502 -3 c20 -12 -6 -33 -34 -27
-15 2 -25 0 -25 -7 0 -15 -21 -14 -58 5 -40 20 -41 35 -2 28 18 -4 30 -2 30 4
0 11 70 9 89 -3z m315 8 c4 -5 -14 -13 -41 -18 -34 -8 -51 -17 -58 -33 -10
-23 -35 -31 -35 -11 0 8 -22 9 -71 4 -50 -5 -70 -4 -65 3 4 6 22 14 41 18 18
3 36 12 39 20 3 9 15 12 33 8 15 -3 46 -1 68 4 51 13 80 14 89 5z m-547 -25
c-3 -8 -6 -5 -6 6 -1 11 2 17 5 13 3 -3 4 -12 1 -19z m659 -73 c-41 -28 -61
-94 -47 -155 27 -122 27 -124 -24 -166 -37 -30 -45 -42 -41 -60 6 -21 3 -22
-72 -25 -42 -2 -131 -2 -196 1 l-120 5 -12 48 c-7 27 -10 72 -7 101 3 29 0 77
-7 107 -6 30 -15 77 -19 104 l-7 51 39 1 c21 1 45 8 54 14 12 10 16 10 23 -2
13 -19 1 -28 -51 -37 -29 -5 -44 -13 -44 -22 0 -25 61 -24 113 2 58 28 89 31
116 13 31 -22 50 -18 98 19 25 18 61 36 82 40 20 4 47 18 58 31 l21 24 36 -37
36 -37 -29 -20z m179 54 c9 -27 -18 -56 -53 -57 -46 0 -47 10 -6 45 46 39 51
40 59 12z m-761 -121 c27 -131 33 -222 17 -233 -12 -7 -18 31 -26 160 -7 120
-13 145 -32 145 -12 0 -14 -7 -9 -27 10 -44 19 -339 11 -330 -5 4 -12 82 -16
173 -4 92 -11 180 -14 198 -4 21 -3 27 3 17 12 -16 32 -6 32 16 0 36 10 2 34
-119z m-347 90 c-3 -7 -5 -2 -5 12 0 14 2 19 5 13 2 -7 2 -19 0 -25z m160 -45
c-3 -10 -5 -4 -5 12 0 17 2 24 5 18 2 -7 2 -21 0 -30z m-577 -12 c0 -15 -17
-22 -68 -29 -41 -6 -48 -11 -67 -47 -11 -22 -24 -43 -28 -46 -5 -3 -39 -9 -75
-12 -94 -8 -132 -23 -132 -52 0 -15 8 -26 20 -30 31 -10 24 -25 -12 -25 -77
-1 -211 -30 -230 -50 -10 -11 -24 -20 -31 -20 -7 0 -22 -3 -34 -6 -21 -6 -22
-4 -20 98 l2 103 57 3 c45 2 61 8 72 24 13 18 32 23 124 32 60 6 116 16 124
23 8 7 52 14 99 17 46 2 91 6 99 10 8 3 31 7 50 9 19 2 38 5 43 5 4 1 7 -2 7
-7z m37 -43 c-3 -8 -6 -5 -6 6 -1 11 2 17 5 13 3 -3 4 -12 1 -19z m1901 -20
c-3 -36 -7 -44 -27 -46 -16 -3 -22 0 -18 10 2 7 -2 25 -9 40 -15 29 -9 36 34
37 21 1 23 -3 20 -41z m-1954 -5 c13 -33 31 -63 38 -63 5 0 8 -6 8 -14 0 -8 4
-16 9 -18 7 -2 71 -204 71 -224 0 -7 -673 -3 -735 5 -27 3 -50 11 -49 16 1 6
25 15 54 22 28 6 61 21 71 32 11 12 25 21 32 21 61 2 221 31 228 42 18 27 10
48 -21 55 -16 3 -30 9 -30 13 0 13 25 19 107 26 81 7 123 24 123 49 0 42 80
74 94 38z m1726 -81 c0 -4 -5 -13 -12 -20 -20 -20 8 -42 42 -32 29 8 50 -2 30
-15 -5 -3 -10 -14 -10 -25 0 -11 -10 -20 -24 -24 -14 -3 -35 -24 -50 -51 -15
-25 -32 -45 -38 -45 -15 0 -37 31 -38 52 0 9 -13 28 -30 41 -20 17 -30 35 -30
52 0 24 3 26 26 21 43 -11 94 4 104 30 9 22 30 34 30 16z m254 -24 c9 -36 7
-40 -16 -32 -13 4 -32 8 -43 10 -11 1 -22 3 -25 4 -3 1 -17 1 -32 0 -27 -1
-44 13 -33 30 3 6 37 10 74 10 63 0 69 -2 75 -22z m-1527 -50 c-2 -13 -4 -3
-4 22 0 25 2 35 4 23 2 -13 2 -33 0 -45z m1343 52 c0 -5 -2 -10 -4 -10 -3 0
-8 5 -11 10 -3 6 -1 10 4 10 6 0 11 -4 11 -10z m-1485 -46 c21 -13 25 -24 25
-63 0 -25 -7 -59 -15 -75 -9 -16 -13 -37 -9 -45 4 -9 10 -33 14 -54 6 -31 5
-37 -7 -33 -8 3 -18 6 -23 6 -8 0 -14 26 -32 152 -11 77 -6 128 13 128 5 0 21
-7 34 -16z m1561 -9 c10 -8 26 -15 35 -15 12 0 18 -13 23 -49 4 -27 12 -51 18
-53 7 -3 13 -21 14 -41 0 -23 9 -46 23 -61 l22 -24 -27 -21 c-20 -16 -41 -21
-85 -21 -61 0 -79 11 -58 36 10 12 8 19 -10 37 -22 24 -29 53 -10 41 6 -3 15
0 20 7 4 7 12 10 16 5 4 -5 2 -11 -4 -13 -7 -3 -13 -10 -13 -16 1 -17 50 -71
57 -63 3 3 -1 14 -10 24 -10 10 -17 23 -17 28 0 5 5 1 11 -9 6 -9 14 -15 19
-12 10 6 -27 80 -40 80 -17 0 -52 66 -42 78 5 7 8 23 7 37 -4 43 15 53 51 25z
m-1478 -115 c-2 -23 -8 -35 -18 -35 -16 0 -16 6 -4 100 l7 60 9 -45 c5 -25 7
-61 6 -80z m1382 35 c-7 -8 -16 -15 -21 -15 -5 0 -9 7 -9 15 0 9 9 15 21 15
18 0 19 -2 9 -15z m-1290 -54 c0 -45 -6 -37 -13 18 -4 29 -2 40 4 30 5 -7 9
-29 9 -48z m1115 12 c14 -13 15 -27 10 -77 -4 -34 -12 -67 -17 -73 -34 -42
-61 24 -29 68 21 28 21 28 1 39 -23 12 -26 30 -8 48 16 16 23 15 43 -5z
m-1059 -98 c1 -98 -9 -118 -20 -41 -7 46 2 151 13 141 3 -4 6 -49 7 -100z
m1210 88 c7 -10 14 -30 14 -45 0 -15 5 -30 10 -33 6 -3 10 -11 10 -17 0 -18
-37 21 -55 58 -22 47 -7 73 21 37z m-1306 -29 c0 -14 -4 -23 -9 -20 -5 3 -7
15 -4 26 7 28 13 25 13 -6z m873 -36 c9 -2 23 -10 29 -16 7 -7 21 -12 32 -12
18 0 21 -7 24 -50 2 -41 -1 -51 -18 -62 -16 -10 -20 -23 -20 -68 0 -30 -6 -67
-14 -82 -16 -30 -10 -43 36 -71 28 -18 113 -23 122 -9 3 5 -9 23 -25 40 -28
28 -30 36 -24 69 10 53 24 57 63 17 22 -23 42 -34 62 -34 41 0 44 13 15 59
-28 45 -32 76 -11 84 8 3 17 20 21 38 12 54 45 109 66 109 30 0 36 -47 11 -91
-28 -49 -28 -57 4 -69 19 -8 34 -5 64 10 48 24 54 25 81 3 33 -29 51 -82 45
-134 -8 -61 8 -76 51 -49 38 23 49 65 39 142 -7 51 -7 52 35 90 33 30 40 43
35 61 l-6 24 134 1 134 1 0 -461 0 -460 -247 6 c-188 4 -1869 7 -2306 3 -38
-1 -145 3 -237 8 l-168 8 -1 181 c-1 100 -2 298 -2 441 l0 260 329 3 c181 2
357 0 392 -3 60 -6 62 -7 62 -35 0 -16 5 -32 11 -36 8 -4 8 -9 0 -17 -16 -16
-14 -48 4 -61 9 -7 18 -36 21 -74 6 -52 4 -66 -11 -82 -11 -12 -24 -19 -31
-16 -7 3 -23 -3 -36 -14 -31 -25 -14 -54 33 -58 19 -1 63 -7 98 -13 58 -9 66
-8 85 10 11 11 38 22 59 26 43 8 49 34 17 75 -25 32 -28 141 -5 160 19 16 19
54 -1 70 -20 17 -15 74 7 78 12 2 20 -10 28 -44 7 -28 22 -55 37 -66 13 -11
22 -23 19 -27 -2 -5 2 -39 10 -77 8 -38 15 -72 15 -76 0 -13 92 -68 114 -68
13 0 31 -9 41 -20 25 -28 100 -62 127 -58 15 2 24 11 26 26 3 19 9 22 35 19
18 -2 41 -8 52 -14 33 -17 135 -22 135 -6 0 19 14 16 35 -7 21 -23 35 -26 35
-6 0 19 72 28 83 9 4 -7 12 -13 17 -13 14 0 12 38 -2 47 -7 4 -18 17 -24 28
-6 11 -20 21 -32 23 -12 2 -22 12 -24 25 -3 20 -50 54 -148 104 -22 12 -35 26
-35 38 0 11 -5 34 -11 50 -18 48 -32 114 -25 121 7 6 405 -1 434 -8z m417
-118 c0 -5 -2 -10 -4 -10 -3 0 -8 5 -11 10 -3 6 -1 10 4 10 6 0 11 -4 11 -10z
m-176 -6 c12 -5 13 -10 4 -29 -9 -19 -7 -30 6 -50 26 -40 9 -44 -26 -6 -22 24
-28 35 -19 44 6 6 11 19 11 29 0 20 2 21 24 12z m-1311 -48 c11 -11 13 -32 9
-85 -2 -39 0 -83 7 -102 12 -35 7 -49 -11 -31 -7 7 -20 12 -30 12 -10 0 -18 7
-18 15 0 17 -25 20 -35 5 -3 -5 -11 -10 -16 -10 -6 0 3 17 20 39 28 35 30 43
24 89 -3 28 -3 58 0 66 8 20 31 21 50 2z m67 -3 c0 -5 2 -41 3 -82 2 -56 7
-76 20 -86 16 -12 16 -13 -5 -19 -32 -8 -48 17 -48 73 0 62 11 121 21 121 5 0
9 -3 9 -7z m1115 -3 c3 -5 -1 -10 -9 -10 -9 0 -16 5 -16 10 0 6 4 10 9 10 6 0
13 -4 16 -10z m-6 -39 c9 -6 12 -19 8 -40 -4 -17 -2 -43 4 -57 13 -35 9 -37
-29 -18 -37 18 -37 16 -16 56 9 17 14 39 11 49 -6 21 1 23 22 10z"/>
<g>
<path d="M140 3928 c-12 -22 -12 -22 6 -6 10 10 15 20 12 24 -4 3 -12 -5 -18
-18z"/>
</g>
<g>
<path d="M60 3869 c0 -5 5 -7 10 -4 6 3 10 8 10 11 0 2 -4 4 -10 4 -5 0 -10
-5 -10 -11z"/>
</g>
<g>
<path d="M2655 1541 c-8 -14 6 -20 68 -25 34 -4 59 -1 63 5 3 6 4 12 3 14 -10
9 -128 14 -134 6z"/>
</g>
<g>
<path d="M2372 1461 c-51 -9 -72 -25 -54 -43 9 -9 17 -9 34 0 13 6 42 15 66
19 46 8 58 27 20 29 -13 1 -42 -1 -66 -5z"/>
</g>
<g>
<path d="M2590 1300 c0 -5 5 -10 10 -10 6 0 10 5 10 10 0 6 -4 10 -10 10 -5 0
-10 -4 -10 -10z"/>
</g>
<g>
<path d="M2511 1098 c1 -7 5 -24 9 -38 7 -22 8 -21 9 13 1 20 -3 37 -9 37 -5
0 -10 -6 -9 -12z"/>
</g>
<g>
<path d="M2800 501 c0 -5 6 -11 13 -14 6 -2 8 -8 4 -13 -4 -5 -12 -2 -16 5
-11 17 -31 5 -31 -18 0 -12 -12 -20 -37 -27 -50 -12 -56 -40 -11 -50 l33 -7
-44 -11 c-54 -13 -63 -33 -22 -47 27 -10 29 -13 16 -26 -30 -30 -6 -56 26 -27
10 9 22 14 27 10 4 -4 7 -44 8 -89 0 -63 4 -83 17 -91 9 -6 18 -8 21 -5 3 2 6
45 8 94 l3 90 49 -4 c46 -3 96 13 96 30 0 24 -36 39 -93 41 l-62 1 55 6 c30 3
54 10 52 14 -2 5 5 15 15 23 16 12 9 13 -54 14 -42 0 -73 4 -73 10 0 6 21 10
46 10 57 0 49 20 -9 21 -23 1 -33 3 -22 6 11 2 30 6 43 9 30 6 28 32 -4 44
-32 12 -54 13 -54 1z m-47 -158 c-7 -2 -19 -2 -25 0 -7 3 -2 5 12 5 14 0 19
-2 13 -5z m145 -40 c2 -9 -10 -13 -42 -13 -46 0 -70 15 -39 23 31 9 76 3 81
-10z"/>
</g>
<g>
<path d="M2830 220 c0 -5 9 -10 20 -10 11 0 20 5 20 10 0 6 -9 10 -20 10 -11
0 -20 -4 -20 -10z"/>
</g>
</g>
<g>
<path d="M1377 5194 c-4 -4 12 -23 35 -44 l41 -36 -18 -31 c-10 -17 -29 -36
-42 -42 -24 -11 -27 -37 -5 -35 7 1 21 2 32 3 11 0 20 7 20 14 0 7 7 23 16 36
l16 22 24 -22 c13 -12 24 -31 24 -41 0 -13 8 -18 30 -18 40 0 37 16 -10 65
-35 36 -38 42 -26 60 7 11 23 24 34 30 39 17 21 45 -29 45 -13 0 -19 -7 -19
-24 0 -14 -5 -28 -10 -31 -17 -10 -41 16 -35 36 6 16 1 19 -33 19 -21 0 -42
-3 -45 -6z"/>
</g>
<g>
<path d="M1397 4923 c-4 -3 -7 -17 -7 -31 0 -19 -3 -22 -13 -13 -8 6 -17 8
-20 4 -10 -9 -9 -91 1 -97 11 -6 28 5 35 24 3 10 6 7 6 -8 2 -44 26 -16 29 33
5 73 -9 111 -31 88z"/>
</g>
<g>
<path d="M1547 4888 c-3 -18 -9 -48 -13 -65 -6 -29 -4 -33 13 -33 21 0 33 37
33 103 0 39 -26 35 -33 -5z"/>
</g>
<g>
<path d="M1592 4858 c-11 -56 -9 -68 12 -68 13 0 26 49 26 98 0 44 -27 23 -38
-30z"/>
</g>
<g>
<path d="M1661 4888 c-19 -51 -22 -95 -7 -107 19 -16 23 -7 32 67 5 44 3 62
-5 62 -6 0 -15 -10 -20 -22z"/>
</g>
<g>
<path d="M1294 4876 c-8 -31 3 -93 17 -102 22 -13 31 14 22 67 -9 57 -29 75
-39 35z"/>
</g>
<g>
<path d="M1709 4873 c-6 -16 -12 -44 -13 -63 -1 -31 2 -35 25 -36 14 -1 31 -4
37 -8 6 -4 15 1 20 11 13 26 23 88 16 96 -12 12 -33 -14 -40 -49 -10 -56 -25
-39 -18 21 7 61 -8 76 -27 28z"/>
</g>
<g>
<path d="M1244 4866 c-3 -9 -3 -36 0 -61 9 -59 36 -52 36 10 0 47 -24 81 -36
51z"/>
</g>
<g>
<path d="M1447 4853 c-4 -3 -7 -19 -7 -35 0 -23 4 -28 24 -28 13 0 31 -3 39
-6 18 -6 29 50 13 66 -14 14 -26 12 -26 -5 0 -8 -4 -15 -10 -15 -5 0 -10 7
-10 15 0 16 -12 20 -23 8z"/>
</g>
<g>
<path d="M1103 4843 c-7 -3 -10 -18 -6 -41 8 -62 11 -66 30 -51 9 8 24 13 35
11 14 -3 18 3 18 25 0 36 -26 76 -33 53 -3 -8 -8 -22 -10 -30 -4 -10 -6 -7 -6
7 -1 24 -10 32 -28 26z"/>
</g>
<g>
<path d="M1193 4809 c6 -46 11 -54 26 -44 23 14 9 85 -16 85 -12 0 -14 -9 -10
-41z"/>
</g>
<g>
<path d="M1815 4813 c-17 -40 -14 -63 8 -63 13 0 39 78 31 92 -11 17 -24 6
-39 -29z"/>
</g>
<g>
<path d="M985 4830 c-6 -9 13 -88 24 -102 4 -4 12 -3 20 1 11 7 11 17 -4 60
-16 50 -27 61 -40 41z"/>
</g>
<g>
<path d="M1045 4831 c-7 -12 5 -90 15 -96 4 -3 13 2 20 10 10 12 10 24 1 55
-12 39 -24 50 -36 31z"/>
</g>
<g>
<path d="M1871 4796 c-14 -26 -8 -46 13 -46 13 0 26 29 26 58 0 21 -26 13 -39
-12z"/>
</g>
<g>
<path d="M875 4801 c-9 -16 6 -90 22 -102 26 -22 33 4 17 59 -15 50 -26 63
-39 43z"/>
</g>
<g>
<path d="M935 4801 c-7 -12 15 -91 25 -91 20 0 27 27 16 59 -13 36 -30 49 -41
32z"/>
</g>
<g>
<path d="M1986 4773 l-16 -38 5 33 c4 26 1 32 -14 32 -12 0 -23 -11 -30 -31
-14 -41 -15 -39 14 -39 14 0 25 -4 25 -10 0 -5 9 -10 19 -10 21 0 47 60 37 85
-9 25 -22 17 -40 -22z"/>
</g>
<g>
<path d="M825 4778 c-7 -18 11 -94 24 -102 5 -3 14 0 20 8 13 15 -2 71 -25 95
-11 13 -14 12 -19 -1z"/>
</g>
<g>
<path d="M2042 4738 c-15 -24 -18 -35 -9 -40 14 -9 60 38 54 55 -7 23 -25 17
-45 -15z"/>
</g>
<g>
<path d="M2101 4736 c-30 -48 -27 -79 5 -58 15 9 44 79 36 86 -11 12 -21 5
-41 -28z"/>
</g>
<g>
<path d="M756 4736 c6 -26 -10 -38 -18 -14 -2 6 -12 9 -21 5 -15 -6 -15 -9 1
-52 20 -56 48 -59 45 -5 l-3 35 17 -27 c36 -58 57 -23 25 42 -21 43 -56 55
-46 16z"/>
</g>
<g>
<path d="M1269 4723 c-20 -2 -45 -13 -54 -24 -16 -17 -16 -21 -4 -36 23 -28
49 -80 43 -85 -2 -3 2 -11 11 -18 8 -7 15 -18 15 -25 0 -7 6 -17 13 -23 21
-18 19 -139 -3 -217 -20 -69 -50 -119 -50 -82 0 9 -4 17 -8 17 -5 0 -17 17
-28 37 -10 21 -31 59 -46 85 -15 26 -25 54 -22 62 3 8 1 22 -4 31 -5 11 -5 35
0 64 5 25 11 75 13 111 l4 66 -35 2 c-27 2 -34 -1 -28 -10 5 -10 4 -10 -6 -1
-10 9 -25 7 -69 -9 -101 -36 -131 -52 -131 -67 0 -15 65 -105 112 -155 14 -15
24 -34 22 -41 -3 -7 -1 -16 5 -20 16 -9 13 -90 -5 -160 -26 -100 -26 -98 36
-112 74 -15 118 -7 156 29 31 29 33 29 62 14 39 -20 71 -20 161 0 68 16 75 15
112 -2 39 -17 42 -17 95 1 53 18 56 18 85 1 84 -50 117 -56 177 -35 28 10 33
8 59 -20 21 -24 47 -36 103 -51 114 -30 112 -30 109 38 -2 31 3 88 11 127 13
64 19 73 74 127 32 32 65 58 73 58 7 0 13 4 13 9 0 5 9 11 20 14 22 6 27 36 9
54 -9 9 -16 7 -28 -8 -16 -20 -16 -20 -58 3 -42 22 -61 47 -25 33 67 -28 65
-10 -3 25 -22 12 -31 18 -20 15 34 -11 3 11 -34 24 -60 20 -68 16 -76 -36 -5
-27 -10 -55 -12 -63 -2 -8 -4 -28 -4 -45 -1 -16 -8 -40 -15 -52 -8 -12 -14
-34 -14 -48 0 -18 -22 -47 -76 -102 -90 -92 -94 -90 -94 47 0 85 2 98 21 113
12 11 18 25 15 34 -6 15 23 55 95 130 37 38 35 60 -8 84 -50 28 -170 61 -193
54 -19 -6 -21 -13 -18 -93 4 -127 -8 -209 -39 -270 -47 -94 -103 -138 -103
-82 0 10 -4 21 -9 24 -16 10 -34 161 -22 184 6 11 11 28 11 37 0 8 18 53 40
99 22 46 40 88 40 95 0 19 -46 31 -117 30 -79 -2 -111 -8 -94 -18 8 -6 9 -14
1 -32 -10 -22 -10 -23 -6 -1 2 12 0 22 -6 22 -5 0 -8 8 -6 18 1 9 -2 18 -7 20
-6 1 -11 -6 -13 -18 -2 -11 -7 -20 -12 -20 -5 0 -7 6 -4 14 12 31 -73 43 -207
29z m107 -18 c-17 -13 -14 -14 25 -17 l44 -3 -33 -15 c-39 -18 -39 -46 0 -42
22 2 25 -1 21 -17 -4 -14 -15 -21 -41 -23 -26 -2 -38 -8 -40 -20 -3 -14 3 -18
28 -18 18 0 29 -4 25 -10 -3 -5 -17 -10 -31 -10 -15 0 -24 -6 -24 -15 0 -8 8
-15 18 -15 16 -1 16 -1 0 -11 -10 -5 -18 -17 -18 -24 0 -8 -4 -15 -10 -15 -5
0 -10 12 -10 28 -1 15 -7 38 -15 52 -18 32 -18 40 -1 40 9 0 14 12 14 35 0 24
-5 35 -14 35 -8 0 -17 7 -20 15 -4 8 -19 15 -34 15 -29 0 -48 15 -35 28 3 3
10 1 14 -6 10 -16 101 -4 108 14 3 8 15 14 27 14 20 -1 20 -1 2 -15z m325 -15
c5 0 9 -4 9 -10 0 -6 -33 -9 -82 -8 -59 1 -68 3 -33 5 28 2 54 9 60 14 5 5 16
7 23 4 8 -3 18 -5 23 -5z m-641 -25 c-11 -13 -8 -15 16 -16 25 0 22 -3 -26
-25 -68 -31 -145 -44 -138 -23 3 10 119 68 157 78 2 1 -2 -6 -9 -14z m859 -1
c2 -2 -14 -3 -37 -2 -23 1 -39 5 -36 9 4 8 63 1 73 -7z m-329 -14 c0 -5 15
-10 33 -10 44 0 67 -15 38 -25 -11 -3 -30 -3 -41 0 -11 4 -20 2 -20 -4 0 -11
19 -15 53 -13 9 1 17 -3 17 -8 0 -6 -18 -10 -40 -10 -29 0 -40 -4 -40 -15 0
-10 10 -15 31 -15 17 0 28 -4 24 -10 -3 -5 -19 -10 -36 -10 -33 0 -39 -15 -9
-25 13 -4 20 -14 19 -28 -1 -17 -2 -18 -6 -4 -2 9 -13 17 -23 17 -13 0 -22 11
-29 38 -14 48 -14 62 0 62 7 0 9 12 5 35 -6 28 -4 35 9 35 8 0 15 -4 15 -10z
m375 -8 c-3 -3 -11 0 -18 7 -9 10 -8 11 6 5 10 -3 15 -9 12 -12z m-467 -19
c23 -61 32 -123 22 -142 -7 -14 -6 -22 6 -32 10 -8 12 -15 4 -23 -5 -5 -10
-21 -10 -35 0 -36 -32 -143 -40 -134 -27 32 -56 164 -42 189 6 11 7 25 1 35
-6 12 -2 38 11 79 11 35 20 69 20 76 0 24 17 15 28 -13z m440 8 c11 -6 34 -8
51 -5 27 6 31 4 31 -15 0 -11 5 -21 10 -21 6 0 10 6 10 13 0 8 3 7 9 -3 15
-23 1 -32 -36 -25 -36 7 -44 10 -101 40 -18 9 -36 14 -39 11 -3 -3 6 -11 21
-17 15 -7 26 -19 24 -28 -4 -25 11 -41 37 -41 13 0 27 -5 31 -11 5 -9 -6 -10
-40 -5 -38 6 -46 4 -46 -8 0 -9 11 -18 25 -22 37 -9 31 -27 -6 -19 -21 5 -34
3 -39 -5 -13 -21 -30 -1 -24 28 3 15 1 54 -4 87 l-8 61 37 -2 c20 -1 45 -7 57
-13z m-829 -71 c-6 -40 -8 -91 -5 -112 7 -42 1 -62 -15 -52 -6 4 -6 11 2 20 9
11 8 14 -5 14 -9 0 -19 7 -22 15 -4 8 -17 15 -30 15 -13 0 -24 5 -24 10 0 6 9
10 20 10 11 0 20 4 20 9 0 17 -25 28 -45 20 -27 -10 -35 -11 -35 0 0 5 16 12
35 15 37 7 42 15 23 34 -9 9 -8 12 5 12 20 0 23 16 5 23 -7 3 7 14 32 25 25
10 46 18 48 17 1 -1 -2 -35 -9 -75z m-124 -15 c-30 -13 -45 -11 -45 6 0 5 17
9 38 8 l37 -1 -30 -13z m1240 -60 c32 -19 62 -36 69 -38 6 -2 8 -7 4 -11 -3
-4 -20 0 -37 9 -31 15 -51 13 -51 -5 0 -5 14 -17 31 -25 17 -9 29 -18 26 -21
-2 -2 -17 2 -33 11 -16 8 -32 15 -36 15 -16 0 -7 -26 13 -38 12 -7 19 -16 16
-18 -3 -3 -15 1 -27 8 -18 11 -23 11 -35 -6 -22 -29 -35 -10 -29 42 10 87 15
112 23 112 5 0 34 -16 66 -35z m-821 -57 c-3 -24 -7 -53 -10 -65 -2 -12 1 -25
7 -29 8 -5 7 -9 -3 -15 -12 -6 -14 -17 -9 -41 6 -26 11 -32 28 -30 16 2 26 -6
38 -28 9 -18 15 -33 13 -34 -2 -2 -25 -8 -53 -13 -27 -6 -58 -14 -68 -18 -16
-7 -17 -3 -11 34 6 38 5 41 -16 41 -17 0 -21 4 -15 18 4 9 14 42 22 72 21 79
26 76 19 -10 -4 -43 -3 -70 1 -63 5 7 10 51 12 99 2 63 7 90 19 104 26 29 33
23 26 -22z m194 -6 c2 -12 -2 -22 -8 -22 -8 0 -8 -6 0 -20 7 -14 7 -20 0 -20
-18 0 -11 -22 10 -27 24 -6 26 -31 5 -47 -10 -8 -12 -15 -5 -26 8 -12 12 -13
19 -2 7 11 9 11 14 -2 5 -11 1 -16 -13 -16 -34 0 -33 -20 2 -21 l33 -1 -32
-14 c-57 -24 -30 -31 31 -8 9 3 16 2 16 -3 0 -5 -16 -15 -35 -22 -31 -11 -42
-10 -81 6 -50 20 -50 23 -17 127 8 26 17 69 19 95 2 25 3 47 4 49 0 2 8 2 18
0 9 -2 18 -13 20 -26z m252 8 c0 -5 -5 -10 -11 -10 -5 0 -7 5 -4 10 3 6 8 10
11 10 2 0 4 -4 4 -10z m-803 -32 c-3 -8 -6 -5 -6 6 -1 11 2 17 5 13 3 -3 4
-12 1 -19z m828 -8 c3 -5 -3 -10 -14 -10 -12 0 -21 5 -21 10 0 6 6 10 14 10 8
0 18 -4 21 -10z m-795 -10 c0 -5 -2 -10 -4 -10 -3 0 -8 5 -11 10 -3 6 -1 10 4
10 6 0 11 -4 11 -10z m65 -62 c15 -29 38 -67 51 -85 27 -36 31 -52 9 -33 -12
10 -18 10 -29 1 -18 -15 -21 -10 -45 82 -30 109 -27 115 14 35z m707 -60 c-2
-49 -8 -88 -13 -88 -5 0 -9 5 -9 11 0 8 -58 39 -75 39 -18 0 1 -23 30 -37 35
-17 46 -33 23 -33 -20 0 -78 38 -78 51 0 6 11 19 24 30 13 10 29 32 36 49 10
23 18 30 32 27 12 -4 18 0 18 12 0 16 10 35 15 29 1 -2 0 -42 -3 -90z m-762
72 c0 -5 -7 -7 -15 -4 -8 4 -15 8 -15 10 0 2 7 4 15 4 8 0 15 -4 15 -10z
m1058 -22 c0 -13 -5 -38 -10 -56 -6 -18 -11 -50 -12 -70 -2 -20 -3 -47 -4 -60
-2 -27 -22 -20 -22 9 0 10 -7 19 -15 19 -8 0 -15 -7 -15 -15 0 -8 -7 -15 -15
-15 -16 0 -20 16 -6 24 5 3 28 37 51 76 41 68 42 71 25 90 -17 19 -17 20 3 20
15 0 21 -6 20 -22z m-1037 -58 c7 -25 21 -60 31 -78 10 -18 18 -35 18 -37 0
-7 -106 -6 -124 1 -9 3 -16 13 -16 21 0 11 5 13 18 7 9 -4 34 -9 56 -12 29 -3
37 -1 34 9 -3 8 -24 16 -49 19 -27 3 -44 10 -43 18 1 6 2 23 3 37 1 22 4 24
34 18 29 -6 31 -5 18 10 -7 9 -17 15 -21 12 -4 -3 -10 1 -13 9 -4 10 2 13 18
12 19 -1 26 -10 36 -46z m975 -8 c-14 -20 -40 -58 -58 -85 -33 -47 -50 -55
-56 -24 -2 10 18 37 50 66 29 27 60 61 68 76 8 15 16 22 18 15 2 -6 -8 -28
-22 -48z m-209 11 c-3 -10 -5 -4 -5 12 0 17 2 24 5 18 2 -7 2 -21 0 -30z
m-563 -74 c-8 -13 -24 -1 -24 18 0 13 3 13 15 3 8 -7 12 -16 9 -21z m726 -84
c0 -8 -4 -15 -10 -15 -5 0 -10 7 -10 15 0 8 5 15 10 15 6 0 10 -7 10 -15z"/>
<g>
<path d="M1366 4212 c-2 -4 -1 -14 4 -22 10 -16 71 -2 78 18 4 14 -73 18 -82
4z"/>
</g>
<g>
<path d="M1550 4295 c0 -8 5 -15 10 -15 6 0 10 7 10 15 0 8 -4 15 -10 15 -5 0
-10 -7 -10 -15z"/>
</g>
<g>
<path d="M1542 4238 c6 -18 28 -21 28 -4 0 9 -7 16 -16 16 -9 0 -14 -5 -12
-12z"/>
</g>
<g>
<path d="M1808 4273 c-8 -20 -2 -57 11 -61 10 -3 12 0 8 12 -4 9 -2 16 3 16 6
0 10 9 10 20 0 19 -25 29 -32 13z"/>
</g>
</g>
<g>
<path d="M2162 4695 c-20 -31 -21 -36 -6 -42 20 -7 41 13 49 50 10 39 -15 35
-43 -8z"/>
</g>
<g>
<path d="M2251 4684 c-37 -42 -43 -61 -21 -67 13 -3 26 5 44 32 14 20 26 42
26 47 0 19 -29 11 -49 -12z"/>
</g>
<g>
<path d="M647 4684 c-9 -9 35 -94 49 -94 25 0 24 20 -1 60 -25 39 -35 46 -48
34z"/>
</g>
<g>
<path d="M2308 4646 c-25 -31 -35 -56 -24 -56 2 0 11 -3 19 -6 17 -6 61 62 53
82 -8 21 -19 17 -48 -20z"/>
</g>
<g>
<path d="M590 4665 c0 -11 40 -84 49 -89 5 -3 14 0 20 7 8 10 4 23 -16 50 -22
31 -53 50 -53 32z"/>
</g>
<g>
<path d="M541 4631 c-23 -15 31 -91 58 -84 23 6 19 18 -21 65 -17 20 -27 25
-37 19z m29 -22 c0 -6 -4 -7 -10 -4 -5 3 -10 11 -10 16 0 6 5 7 10 4 6 -3 10
-11 10 -16z"/>
</g>
<g>
<path d="M2373 4601 c-33 -39 -33 -51 -2 -51 28 0 68 78 44 86 -5 2 -24 -14
-42 -35z"/>
</g>
<g>
<path d="M484 4575 c-7 -18 20 -63 42 -72 9 -3 20 -1 26 5 13 13 -21 63 -39
57 -7 -2 -15 1 -19 7 -4 7 -3 8 4 4 7 -4 12 -2 12 3 0 16 -20 13 -26 -4z"/>
</g>
<g>
<path d="M2442 4555 c-35 -40 -39 -50 -18 -58 7 -3 28 10 47 29 30 31 32 36
18 50 -14 14 -19 12 -47 -21z"/>
</g>
<g>
<path d="M685 4529 c-49 -26 -100 -63 -140 -102 l-30 -29 35 -26 c98 -76 135
-110 138 -128 2 -10 9 -23 16 -29 11 -10 29 -71 41 -145 4 -19 2 -47 -4 -61
-9 -26 -8 -27 46 -38 68 -13 77 -9 151 77 50 58 52 61 30 68 -12 4 -49 32 -81
62 -50 48 -57 59 -52 83 5 22 1 31 -18 44 -19 12 -27 28 -32 68 -15 107 -32
172 -46 175 -8 1 -32 -7 -54 -19z m69 -147 c13 -83 13 -84 -11 -99 -27 -18
-42 -11 -24 11 16 19 0 29 -34 20 -32 -8 -33 9 0 24 14 6 25 16 25 21 0 20
-22 22 -46 6 -30 -19 -70 -13 -96 14 -15 17 -14 19 19 35 29 14 33 19 23 31
-14 17 0 21 16 5 6 -6 27 2 59 23 47 31 50 31 53 12 2 -11 9 -57 16 -103z m36
-132 c0 -5 -4 -10 -10 -10 -5 0 -10 5 -10 10 0 6 5 10 10 10 6 0 10 -4 10 -10z
m-37 -6 c3 -3 3 -12 0 -20 -4 -10 -8 -11 -18 -1 -7 7 -11 15 -8 20 5 9 17 9
26 1z m92 -57 c22 -24 56 -55 75 -70 27 -20 32 -29 23 -38 -10 -10 -14 -9 -19
4 -9 24 -16 22 -57 -20 l-37 -36 0 26 c0 14 -11 57 -25 95 -14 38 -25 72 -25
76 0 18 29 1 65 -37z m-55 -79 c0 -10 -4 -18 -9 -18 -10 0 -21 47 -13 55 8 7
22 -17 22 -37z m7 -54 c-3 -3 -12 -4 -19 -1 -8 3 -5 6 6 6 11 1 17 -2 13 -5z
m13 -44 c0 -5 -7 -7 -15 -4 -8 4 -15 8 -15 10 0 2 7 4 15 4 8 0 15 -4 15 -10z
m60 0 c0 -5 -7 -10 -15 -10 -8 0 -15 5 -15 10 0 6 7 10 15 10 8 0 15 -4 15
-10z"/>
<g>
<path d="M590 4404 l-25 -15 25 7 c14 3 29 10 35 15 15 14 -7 10 -35 -7z"/>
</g>
<g>
<path d="M680 4405 c-7 -8 -21 -15 -31 -15 -10 0 -21 -4 -24 -10 -3 -5 -4 -10
0 -10 14 0 73 29 79 39 11 17 -10 13 -24 -4z"/>
</g>
</g>
<g>
<path d="M460 4534 c0 -5 7 -21 17 -34 14 -22 12 -21 -17 5 l-33 30 19 -32
c10 -18 24 -33 31 -33 23 0 24 20 4 46 -12 15 -21 23 -21 18z"/>
</g>
<g>
<path d="M2500 4505 c-29 -30 -32 -37 -20 -45 24 -16 35 -12 59 21 21 28 23
59 3 59 -4 0 -24 -16 -42 -35z"/>
</g>
<g>
<path d="M366 4503 c-8 -8 26 -63 46 -74 28 -15 31 9 6 40 -25 32 -42 43 -52
34z"/>
</g>
<g>
<path d="M2572 4468 c-34 -33 -40 -44 -30 -55 10 -12 19 -7 56 30 25 25 41 50
38 56 -11 18 -19 14 -64 -31z"/>
</g>
<g>
<path d="M315 4450 c-8 -13 32 -70 51 -70 8 0 14 8 13 18 0 22 -55 66 -64 52z"/>
</g>
<g>
<path d="M2615 4420 c-34 -35 -36 -40 -20 -46 13 -5 26 1 47 24 27 31 37 62
20 62 -4 0 -25 -18 -47 -40z"/>
</g>
<g>
<path d="M2449 4407 c-1 -1 -3 -24 -4 -52 -3 -61 -30 -142 -56 -171 -11 -11
-17 -27 -14 -35 7 -19 -91 -95 -162 -124 -27 -11 -34 -19 -28 -32 3 -10 12
-34 18 -55 9 -30 18 -38 52 -48 22 -7 57 -21 79 -32 21 -11 42 -16 45 -11 4 4
13 37 20 73 7 36 21 80 32 99 22 37 19 64 -6 55 -8 -3 -15 -2 -15 3 0 19 12
21 46 7 32 -14 34 -13 40 10 3 13 15 28 27 34 106 54 157 88 157 105 0 5 -31
40 -69 77 -47 46 -85 73 -115 83 -26 9 -47 15 -47 14z m35 -40 c-4 -11 49 -61
66 -62 3 0 15 -6 28 -13 12 -7 22 -10 22 -6 0 4 9 -1 20 -11 18 -16 28 -45 16
-45 -3 0 -33 19 -68 43 -89 61 -100 65 -48 17 25 -22 38 -38 29 -35 -28 11
-34 -16 -8 -36 17 -13 20 -19 9 -19 -9 0 -21 5 -27 11 -13 13 -43 5 -43 -11 0
-6 11 -15 25 -22 13 -6 22 -15 19 -19 -3 -5 -17 -1 -31 8 -24 16 -26 16 -39
-2 -13 -17 -14 -16 -14 16 0 19 9 62 19 95 10 35 15 67 10 75 -8 14 -3 29 11
29 5 0 7 -6 4 -13z m122 -145 c-4 -3 -14 2 -24 12 -16 18 -16 18 6 6 13 -6 21
-14 18 -18z m-222 -129 c-16 -16 -53 -49 -82 -75 -46 -41 -64 -68 -46 -68 4 0
34 24 67 52 39 34 56 45 48 30 -11 -20 -10 -26 4 -36 22 -16 3 -71 -21 -62
-41 16 -61 16 -73 3 -14 -17 -11 -20 42 -36 20 -7 37 -17 37 -22 0 -5 -23 0
-50 11 -28 11 -53 20 -56 20 -3 0 -3 4 0 9 3 4 -3 16 -14 26 -34 31 -24 49 54
98 40 26 79 54 86 62 7 8 17 15 23 15 5 0 -3 -12 -19 -27z"/>
</g>
<g>
<path d="M260 4392 c0 -5 12 -20 28 -35 20 -19 31 -24 42 -16 13 8 10 13 -13
34 -27 24 -57 33 -57 17z"/>
</g>
<g>
<path d="M2668 4375 c-16 -13 -28 -28 -28 -34 0 -23 20 -19 49 10 17 17 29 35
25 40 -8 14 -16 11 -46 -16z"/>
</g>
<g>
<path d="M200 4341 c0 -5 14 -21 31 -36 24 -19 35 -23 43 -15 8 8 3 18 -19 36
-31 24 -55 31 -55 15z"/>
</g>
<g>
<path d="M2723 4324 c-32 -25 -42 -48 -25 -58 11 -6 82 57 82 73 0 18 -23 12
-57 -15z"/>
</g>
<g>
<path d="M373 4307 c-21 -12 -46 -26 -54 -32 -28 -19 -107 -132 -97 -139 2 -1
55 -28 118 -60 63 -32 121 -63 129 -69 19 -16 41 -69 60 -147 l16 -65 40 3
c58 5 71 10 83 35 6 12 25 46 42 76 34 60 32 65 -29 75 -36 6 -129 73 -155
112 -21 31 -64 140 -72 179 -9 50 -32 59 -81 32z m55 -22 c6 -29 -147 -159
-166 -141 -3 3 -1 6 5 6 15 0 109 88 101 95 -3 4 -18 -1 -32 -11 -49 -31 -38
-6 15 36 54 42 72 46 77 15z m-23 -81 c-23 -35 -5 -56 25 -29 21 19 29 8 9
-12 -7 -7 -8 -17 -1 -28 6 -13 11 -14 17 -6 5 9 10 7 20 -5 15 -21 8 -54 -12
-54 -13 0 -13 -3 -3 -15 17 -20 7 -19 -30 3 -23 14 -27 21 -18 30 9 9 9 15 0
24 -9 9 -16 7 -32 -7 -15 -13 -23 -16 -31 -8 -8 8 -6 15 10 25 11 7 21 18 21
25 0 24 -20 23 -47 -1 -29 -27 -43 -32 -43 -17 0 5 16 19 36 32 20 12 48 33
62 45 33 31 38 30 17 -2z m164 -182 c14 -13 40 -30 58 -37 l33 -14 -23 -35
c-26 -41 -33 -44 -42 -13 -10 34 -68 117 -82 117 -14 0 -17 13 -6 23 6 7 18
-1 62 -41z m-29 -58 c0 -8 -2 -14 -4 -14 -5 0 -36 60 -36 69 1 12 40 -42 40
-55z m160 -24 c0 -4 -9 -15 -20 -25 -11 -10 -22 -26 -25 -36 -7 -20 -53 -49
-79 -49 -20 0 -32 40 -15 51 23 14 30 10 17 -11 -15 -24 -9 -31 20 -23 13 3
22 13 22 24 0 11 5 19 10 19 18 0 50 39 44 55 -5 11 -2 13 10 9 9 -3 16 -9 16
-14z m-144 -27 c-10 -10 -19 5 -10 18 6 11 8 11 12 0 2 -7 1 -15 -2 -18z"/>
</g>
<g>
<path d="M144 4289 c-10 -17 53 -76 67 -62 14 14 7 26 -31 53 -20 14 -31 17
-36 9z"/>
</g>
<g>
<path d="M2795 4250 c-32 -12 -50 -39 -37 -52 12 -12 70 28 71 50 1 14 -5 14
-34 2z"/>
</g>
<g>
<path d="M106 4242 c-5 -9 40 -62 53 -62 21 0 19 16 -6 42 -28 29 -38 34 -47
20z"/>
</g>
<g>
<path d="M70 4192 c0 -18 33 -52 51 -52 26 0 24 15 -7 39 -28 22 -44 27 -44
13z"/>
</g>
<g>
<path d="M2833 4170 c-35 -21 -42 -37 -19 -46 20 -8 65 26 66 49 0 22 -8 21
-47 -3z"/>
</g>
<g>
<path d="M2733 4103 c-10 -16 -22 -31 -28 -35 -5 -4 -10 -11 -10 -15 0 -4 -12
-31 -25 -60 -16 -33 -31 -52 -43 -53 -10 0 -22 -11 -27 -25 -12 -32 -92 -69
-194 -90 -26 -5 -28 -9 -22 -37 3 -17 23 -49 44 -72 20 -23 49 -57 63 -76 24
-32 28 -34 53 -22 17 7 26 20 26 34 1 33 37 108 67 141 15 15 38 27 51 27 15
0 26 7 29 18 4 18 87 50 171 67 35 7 37 11 22 50 -11 29 -34 24 -25 -6 4 -10
2 -19 -3 -19 -16 0 -98 107 -89 117 3 2 13 -7 23 -22 12 -18 20 -23 27 -16 8
8 4 18 -12 35 -13 14 -20 29 -17 34 6 10 -39 52 -55 52 -5 0 -16 -12 -26 -27z
m47 3 c0 -3 -4 -8 -10 -11 -5 -3 -10 -1 -10 4 0 6 5 11 10 11 6 0 10 -2 10 -4z
m-16 -37 c-3 -6 3 -24 15 -40 24 -32 26 -45 9 -52 -10 -3 -8 -9 5 -24 9 -11
17 -23 17 -27 0 -5 -8 2 -18 15 -13 15 -25 20 -37 15 -17 -6 -17 -7 1 -29 17
-19 17 -20 1 -8 -14 11 -21 11 -29 3 -11 -11 -58 -17 -58 -8 0 14 72 151 82
158 18 11 20 10 12 -3z m-258 -256 c-7 -7 -76 -33 -88 -33 -5 0 -8 4 -8 9 0 5
17 13 38 19 46 12 68 14 58 5z m81 0 c-11 -3 -17 -13 -16 -26 3 -27 -11 -87
-20 -87 -12 0 -65 74 -55 77 5 2 25 12 44 22 19 11 42 19 50 19 9 0 8 -2 -3
-5z m-117 -54 c0 -7 16 -34 36 -61 19 -28 34 -52 32 -53 -6 -7 -96 110 -91
117 7 12 23 9 23 -3z"/>
</g>
<g>
<path d="M1457 4113 c-9 -8 -9 -100 -1 -131 4 -13 12 -21 18 -19 15 5 19 41
11 104 -6 50 -13 62 -28 46z"/>
</g>
<g>
<path d="M1523 4093 c3 -10 8 -35 12 -55 7 -43 35 -54 35 -14 0 53 -12 86 -32
86 -14 0 -18 -5 -15 -17z"/>
</g>
<g>
<path d="M1244 4087 c-5 -14 12 -136 20 -144 3 -3 10 -2 16 2 10 6 8 50 -6
128 -6 29 -21 36 -30 14z"/>
</g>
<g>
<path d="M1407 4093 c-4 -3 -7 -28 -7 -55 0 -36 4 -48 15 -48 12 0 15 13 15
55 0 51 -7 65 -23 48z"/>
</g>
<g>
<path d="M1600 4041 c0 -55 2 -61 20 -61 19 0 21 5 18 57 -2 46 -7 59 -20 61
-16 3 -18 -5 -18 -57z"/>
</g>
<g>
<path d="M1678 4093 c-9 -15 7 -128 17 -125 14 3 13 124 -2 129 -6 2 -13 0
-15 -4z"/>
</g>
<g>
<path d="M2882 4084 c-24 -16 -30 -44 -9 -44 20 0 57 30 57 46 0 18 -20 18
-48 -2z"/>
</g>
<g>
<path d="M1297 4084 c-10 -11 -8 -54 2 -54 14 0 25 40 14 51 -5 5 -12 6 -16 3z"/>
</g>
<g>
<path d="M1336 4074 c-10 -27 -7 -54 8 -54 13 0 26 28 26 58 0 18 -27 15 -34
-4z"/>
</g>
<g>
<path d="M1195 4070 c-10 -16 4 -50 21 -50 8 0 14 8 14 19 0 23 -25 47 -35 31z"/>
</g>
<g>
<path d="M1765 4058 c-3 -7 -6 -33 -7 -57 -3 -51 16 -67 32 -26 16 41 13 95
-5 95 -9 0 -18 -6 -20 -12z"/>
</g>
<g>
<path d="M1035 4051 c-9 -15 27 -132 42 -138 24 -9 25 3 3 76 -21 68 -32 83
-45 62z"/>
</g>
<g>
<path d="M1111 4051 c-17 -11 -5 -51 15 -51 8 0 14 10 14 24 0 29 -10 38 -29
27z"/>
</g>
<g>
<path d="M1847 4042 c-3 -4 -8 -28 -11 -54 -6 -40 -5 -48 9 -48 30 0 49 93 20
103 -8 4 -16 3 -18 -1z"/>
</g>
<g>
<path d="M1912 3997 c-7 -18 -12 -45 -12 -60 0 -48 31 -27 44 28 4 17 9 38 12
48 4 12 0 17 -13 17 -12 0 -23 -12 -31 -33z"/>
</g>
<g>
<path d="M967 4014 c-9 -10 12 -34 30 -34 19 0 12 34 -8 38 -8 1 -18 0 -22 -4z"/>
</g>
<g>
<path d="M2919 4001 c-23 -18 -23 -20 -5 -27 21 -8 51 7 51 26 0 22 -20 22
-46 1z"/>
</g>
<g>
<path d="M2850 3996 c0 -21 21 -31 31 -15 5 8 3 17 -4 21 -18 12 -27 10 -27
-6z"/>
</g>
<g>
<path d="M1974 3983 c-3 -10 -10 -28 -15 -41 -13 -32 -11 -42 6 -42 17 0 45
50 45 80 0 25 -28 27 -36 3z"/>
</g>
<g>
<path d="M926 3982 c-9 -15 16 -92 30 -92 22 0 25 17 10 53 -15 37 -31 53 -40
39z"/>
</g>
<g>
<path d="M2025 3944 c-19 -46 -19 -60 0 -68 10 -3 21 9 35 41 11 25 17 49 14
54 -12 20 -35 7 -49 -27z"/>
</g>
<g>
<path d="M871 3946 c-16 -19 27 -115 52 -116 9 0 17 7 17 15 0 15 -47 115 -54
115 -2 0 -9 -6 -15 -14z"/>
</g>
<g>
<path d="M750 3915 c0 -25 53 -125 67 -125 19 0 16 29 -12 88 -23 49 -55 71
-55 37z"/>
</g>
<g>
<path d="M807 3924 c-3 -4 1 -17 10 -31 19 -28 39 -17 28 16 -6 20 -25 28 -38
15z"/>
</g>
<g>
<path d="M2092 3917 c-27 -32 -24 -88 4 -69 18 13 45 63 39 72 -9 14 -31 12
-43 -3z"/>
</g>
<g>
<path d="M2173 3882 c-16 -10 -43 -64 -37 -74 11 -18 33 -6 53 28 26 43 18 67
-16 46z"/>
</g>
<g>
<path d="M2842 3860 c-12 -11 -25 -20 -30 -20 -4 0 -17 -6 -27 -14 -18 -13
-17 -14 8 -31 l27 -17 44 45 c25 25 42 48 39 51 -12 12 -40 6 -61 -14z"/>
</g>
<g>
<path d="M714 3855 c-7 -17 4 -37 17 -30 5 4 9 -1 9 -9 0 -9 7 -16 15 -16 19
0 19 20 -1 48 -18 25 -32 28 -40 7z"/>
</g>
<g>
<path d="M2211 3814 c-27 -34 -35 -64 -22 -77 14 -14 37 6 57 49 25 53 1 73
-35 28z"/>
</g>
<g>
<path d="M2901 3833 c-8 -3 -29 -22 -47 -41 -26 -28 -31 -40 -23 -54 5 -10 12
-18 14 -18 2 0 27 23 54 51 57 58 58 84 2 62z"/>
</g>
<g>
<path d="M663 3792 c-9 -6 -3 -19 22 -47 29 -35 35 -37 41 -22 9 23 -44 81
-63 69z"/>
</g>
<g>
<path d="M2721 3792 c-8 -2 -28 -21 -45 -40 -17 -20 -39 -44 -48 -54 -23 -23
-23 -28 2 -28 13 0 18 5 14 15 -4 10 -2 13 7 10 14 -5 99 69 99 85 0 13 -13
18 -29 12z"/>
</g>
<g>
<path d="M2261 3746 c-25 -39 -27 -56 -7 -56 16 0 66 60 66 78 0 25 -39 11
-59 -22z"/>
</g>
<g>
<path d="M2906 3744 c-37 -36 -44 -66 -16 -72 9 -1 33 18 54 44 31 36 36 48
25 55 -21 13 -23 12 -63 -27z"/>
</g>
<g>
<path d="M557 3754 c-7 -8 61 -91 81 -99 30 -11 33 8 5 38 -18 20 -22 28 -11
24 21 -7 35 10 20 25 -8 8 -16 7 -27 -2 -13 -11 -18 -10 -33 4 -20 18 -26 19
-35 10z"/>
</g>
<g>
<path d="M340 3736 c0 -11 32 -56 40 -56 13 0 20 44 8 55 -7 7 -12 6 -15 -3
-4 -10 -8 -10 -19 -1 -8 6 -14 8 -14 5z"/>
</g>
<g>
<path d="M402 3693 c-13 -20 -19 -40 -14 -45 12 -12 66 48 59 66 -9 24 -20 19
-45 -21z"/>
</g>
<g>
<path d="M200 3710 c0 -5 5 -10 10 -10 6 0 10 5 10 10 0 6 -4 10 -10 10 -5 0
-10 -4 -10 -10z"/>
</g>
<g>
<path d="M2692 3679 c-39 -39 -46 -60 -19 -59 17 1 108 86 100 94 -15 15 -41
3 -81 -35z"/>
</g>
<g>
<path d="M2327 3682 c-23 -24 -25 -31 -14 -46 13 -17 15 -16 41 14 43 52 19
81 -27 32z"/>
</g>
<g>
<path d="M530 3677 c0 -7 14 -26 30 -42 24 -23 33 -26 42 -17 10 10 6 19 -19
42 -34 32 -53 38 -53 17z"/>
</g>
<g>
<path d="M144 3658 c-8 -12 52 -67 74 -68 6 0 15 0 19 -1 23 -2 8 21 -31 49
-50 36 -52 37 -62 20z"/>
</g>
<g>
<path d="M2375 3636 c-26 -26 -32 -50 -15 -61 12 -7 71 55 67 69 -6 20 -27 17
-52 -8z"/>
</g>
<g>
<path d="M2723 3626 c-29 -27 -35 -37 -26 -47 9 -9 21 -4 53 21 39 31 46 50
22 58 -6 2 -28 -12 -49 -32z"/>
</g>
<g>
<path d="M500 3616 c0 -16 42 -46 65 -46 25 0 17 24 -16 43 -37 21 -49 22 -49
3z"/>
</g>
<g>
<path d="M116 3601 c-7 -11 69 -71 91 -71 24 0 14 24 -20 47 -43 30 -64 36
-71 24z"/>
</g>
<g>
<path d="M2758 3571 c-26 -23 -30 -32 -21 -42 9 -9 17 -8 35 4 49 34 60 46 53
56 -11 18 -33 12 -67 -18z"/>
</g>
<g>
<path d="M2434 3566 c-27 -23 -26 -46 1 -46 14 0 55 38 55 51 0 18 -33 16 -56
-5z"/>
</g>
<g>
<path d="M474 3568 c-8 -12 30 -48 52 -48 25 0 23 17 -6 38 -34 25 -36 26 -46
10z"/>
</g>
<g>
<path d="M80 3548 c0 -13 13 -23 77 -59 67 -38 74 -15 9 29 -55 37 -86 48 -86
30z"/>
</g>
<g>
<path d="M2808 3524 c-21 -19 -38 -39 -38 -45 0 -18 33 -8 71 22 32 25 37 34
28 45 -16 19 -19 18 -61 -22z"/>
</g>
<g>
<path d="M2530 3535 c-7 -8 -18 -15 -25 -15 -21 0 -50 -39 -38 -51 13 -13 103
46 103 68 0 18 -25 17 -40 -2z"/>
</g>
<g>
<path d="M400 3527 c0 -12 79 -57 100 -57 24 0 7 28 -29 48 -44 25 -71 28 -71
9z"/>
</g>
<g>
<path d="M55 3500 c-4 -7 -3 -15 1 -20 26 -23 118 -80 130 -80 26 0 14 19 -27
47 -91 61 -97 64 -104 53z"/>
</g>
<g>
<path d="M2539 3471 c-39 -34 -42 -40 -30 -55 13 -15 16 -15 40 7 14 14 38 32
54 42 15 9 27 24 27 31 0 27 -47 14 -91 -25z"/>
</g>
<g>
<path d="M357 3493 c-14 -13 -6 -23 37 -43 52 -23 66 -25 66 -7 0 7 -20 23
-45 35 -51 25 -49 24 -58 15z"/>
</g>
<g>
<path d="M2842 3456 c-28 -26 -34 -38 -25 -46 13 -14 25 -8 72 32 32 27 34 48
5 48 -8 0 -31 -15 -52 -34z"/>
</g>
<g>
<path d="M2624 3435 c-43 -18 -88 -73 -73 -91 9 -11 21 -5 65 34 30 26 54 50
54 54 0 14 -16 16 -46 3z"/>
</g>
<g>
<path d="M297 3433 c-12 -11 -8 -23 8 -23 9 0 34 -9 55 -20 39 -20 40 -20 40
-1 0 25 -86 62 -103 44z"/>
</g>
<g>
<path d="M2880 3391 c-29 -25 -32 -31 -21 -45 12 -14 16 -14 40 4 67 51 67 50
51 60 -23 15 -32 12 -70 -19z"/>
</g>
<g>
<path d="M235 3370 c-9 -14 -12 -12 58 -34 63 -21 82 -16 50 13 -24 23 -98 37
-108 21z"/>
</g>
<g>
<path d="M2668 3373 c-16 -2 -28 -10 -28 -17 0 -8 -10 -20 -22 -29 -21 -14
-21 -17 -8 -31 14 -14 18 -13 44 9 16 13 37 27 48 31 10 3 18 13 16 22 -3 18
-12 20 -50 15z"/>
</g>
<g>
<path d="M206 3302 c-8 -13 17 -27 66 -36 40 -7 56 5 33 24 -20 16 -91 25 -99
12z"/>
</g>
<g>
<path d="M2689 3288 c-8 -8 -22 -17 -32 -21 -24 -9 -16 -33 9 -30 62 7 84 16
84 34 0 11 -4 19 -9 19 -5 0 -16 3 -24 6 -8 3 -21 -1 -28 -8z"/>
</g>
<g>
<path d="M200 3230 c0 -22 43 -55 60 -45 17 11 11 32 -15 49 -32 21 -45 20
-45 -4z"/>
</g>
<g>
<path d="M2691 3211 c-15 -11 -22 -24 -18 -34 5 -13 10 -14 49 0 57 19 75 37
28 29 l-35 -6 30 14 30 14 -30 1 c-16 0 -41 -8 -54 -18z"/>
</g>
<g>
<path d="M186 3172 c-11 -18 2 -97 17 -100 21 -4 31 16 17 33 -10 12 -9 15 4
15 23 0 20 37 -3 50 -24 12 -28 12 -35 2z"/>
</g>
<g>
<path d="M2733 3156 c-43 -13 -46 -46 -4 -46 33 0 67 30 35 31 -18 0 -18 1 0
8 31 12 4 18 -31 7z"/>
</g>
<g>
<path d="M2730 3080 c-13 -13 -18 -26 -13 -31 11 -11 84 22 80 36 -7 19 -46
16 -67 -5z m60 6 c0 -11 -19 -15 -25 -6 -3 5 1 10 9 10 9 0 16 -2 16 -4z"/>
</g>
<g>
<path d="M190 3031 c0 -12 6 -21 16 -21 9 0 14 7 12 17 -5 25 -28 28 -28 4z"/>
</g>
<g>
<path d="M2755 3025 c-39 -38 -31 -60 10 -31 11 7 24 14 30 14 5 0 11 6 13 12
3 8 -3 10 -19 6 -23 -7 -23 -7 -5 8 11 9 14 16 7 16 -6 0 -23 -11 -36 -25z"/>
</g>
<g>
<path d="M2773 2960 c-25 -10 -31 -30 -10 -30 16 0 31 12 35 28 1 6 1 12 0 11
-2 0 -13 -4 -25 -9z"/>
</g>
<g>
<path d="M195 2950 c-3 -5 -1 -10 4 -10 6 0 11 5 11 10 0 6 -2 10 -4 10 -3 0
-8 -4 -11 -10z"/>
</g>
<g>
<path d="M2740 2884 c0 -9 5 -14 12 -12 18 6 21 28 4 28 -9 0 -16 -7 -16 -16z"/>
</g>
<g>
<path d="M2754 2845 c-9 -22 1 -29 15 -11 8 10 9 16 1 21 -5 3 -13 -1 -16 -10z"/>
</g>
<g>
<path d="M440 2251 c0 -5 6 -12 13 -15 8 -3 7 -8 -6 -16 -9 -6 -15 -15 -12
-21 10 -14 25 -11 25 7 0 8 5 12 10 9 14 -9 12 7 -4 28 -14 19 -26 22 -26 8z"/>
</g>
<g>
<path d="M812 2223 c-23 -11 -35 -25 -39 -45 -3 -16 -9 -30 -13 -33 -11 -7 6
-86 20 -95 7 -4 10 -16 8 -26 -2 -15 -12 -19 -38 -18 -19 1 -43 5 -53 9 -22 9
-31 1 -24 -20 4 -8 18 -15 33 -15 26 0 26 -1 10 -19 -19 -21 -13 -28 25 -26
27 1 59 25 59 45 0 7 7 9 18 5 9 -3 38 -9 65 -12 48 -6 66 -23 23 -23 -20 0
-48 -30 -28 -30 4 0 24 -4 45 -9 28 -7 41 -6 52 5 23 23 46 16 85 -25 25 -26
42 -36 50 -31 11 7 11 12 2 23 -10 12 -4 23 32 62 43 47 44 48 90 41 29 -5 46
-3 46 3 0 5 10 9 23 9 49 -3 74 3 96 23 20 19 21 26 15 82 -10 85 -27 106 -85
107 -33 0 -54 -6 -74 -22 -27 -21 -27 -24 -22 -90 5 -58 4 -68 -10 -68 -9 0
-37 -10 -61 -21 -31 -16 -48 -32 -59 -57 l-14 -34 -23 21 c-12 11 -30 21 -39
21 -9 0 -19 5 -22 10 -4 6 -11 8 -16 5 -12 -8 -69 26 -69 41 0 7 13 18 29 25
24 11 29 18 26 39 -2 14 -7 41 -10 61 -5 35 -27 61 -72 87 -29 16 -41 15 -81
-5z m108 -73 c0 -11 -6 -20 -13 -20 -19 0 -27 10 -20 26 8 21 33 17 33 -6z
m-83 -22 c-3 -8 -6 -5 -6 6 -1 11 2 17 5 13 3 -3 4 -12 1 -19z m-40 -20 c-3
-8 -6 -5 -6 6 -1 11 2 17 5 13 3 -3 4 -12 1 -19z m74 -78 c5 0 9 -7 9 -15 0
-8 -6 -12 -15 -10 -8 3 -22 7 -31 10 -8 3 -12 10 -9 16 4 6 14 8 22 5 8 -3 19
-6 24 -6z"/>
</g>
<g>
<path d="M1770 2211 c0 -5 -3 -16 -6 -24 -4 -11 1 -13 20 -10 22 4 23 8 13 24
-12 20 -27 25 -27 10z"/>
</g>
<g>
<path d="M1724 2175 c-9 -14 -15 -27 -13 -30 3 -2 12 10 21 26 21 36 15 39 -8
4z"/>
</g>
<g>
<path d="M570 2040 c0 -17 39 -50 60 -50 30 0 26 38 -6 50 -33 13 -54 13 -54
0z"/>
</g>
<g>
<path d="M640 1935 c0 -18 5 -25 19 -25 11 0 22 -6 25 -12 3 -7 3 1 -1 17 -8
39 -11 45 -29 45 -8 0 -14 -10 -14 -25z"/>
</g>
<g>
<path d="M1900 1730 c0 -5 5 -10 10 -10 6 0 10 5 10 10 0 6 -4 10 -10 10 -5 0
-10 -4 -10 -10z"/>
</g>
<g>
<path d="M350 1501 c0 -15 16 -22 34 -15 25 9 19 24 -9 24 -14 0 -25 -4 -25
-9z"/>
</g>
<g>
<path d="M430 1481 c-23 -15 -4 -25 58 -28 31 -2 70 -8 86 -13 37 -13 96 -13
96 0 0 5 -12 12 -27 16 -16 3 -39 9 -53 14 -41 14 -144 21 -160 11z"/>
</g>
<g>
<path d="M804 1315 c-4 -8 -1 -22 6 -30 10 -12 10 -15 -1 -15 -9 -1 -8 -4 4
-11 10 -6 25 -8 33 -5 12 5 11 11 -4 40 -19 39 -29 44 -38 21z"/>
</g>
<g>
<path d="M1005 1260 c4 -6 11 -8 16 -5 14 9 11 15 -7 15 -8 0 -12 -5 -9 -10z"/>
</g>
</g>
</svg>
