<?xml version="1.0" standalone="no"?>
<!DOCTYPE svg PUBLIC "-//W3C//DTD SVG 20010904//EN"
 "http://www.w3.org/TR/2001/REC-SVG-20010904/DTD/svg10.dtd">
<svg version="1.0" xmlns="http://www.w3.org/2000/svg"
 width="300.000000pt" height="518.000000pt" viewBox="0 0 300.000000 518.000000"
 preserveAspectRatio="xMidYMid meet">
<metadata>
Created by potrace 1.15, written by Peter Selinger 2001-2017
</metadata>
<g transform="translate(0.000000,518.000000) scale(0.100000,-0.100000)"
fill="#000000" stroke="none">
<g>
<path d="M15 5174 c-7 -3 -10 -272 -8 -847 4 -1186 4 -1190 15 -1204 7 -9 7
-17 0 -25 -6 -7 -10 -24 -10 -38 0 -14 -2 -117 -4 -230 -3 -113 -3 -166 1
-119 5 72 10 90 32 116 40 48 64 57 95 37 33 -22 44 -51 33 -87 -10 -36 2 -69
35 -90 14 -10 26 -24 26 -33 0 -8 4 -13 9 -10 11 7 23 -22 15 -35 -9 -16 -44
-10 -44 7 0 12 -6 15 -24 10 -30 -8 -46 26 -51 114 -5 67 -13 84 -36 75 -29
-11 -52 -86 -46 -155 8 -106 38 -144 99 -121 22 8 68 -4 68 -18 0 -9 -75 -31
-105 -31 -43 0 -85 28 -92 61 -11 57 -25 43 -17 -17 11 -75 10 -2191 0 -2387
-7 -131 -6 -147 8 -147 14 0 16 21 16 168 0 92 3 176 6 188 5 21 8 21 652 28
356 4 661 9 677 11 17 2 386 7 822 11 l792 7 3 -191 3 -191 -90 -3 c-49 -2
-400 -6 -780 -7 -379 -2 -814 -7 -965 -11 -182 -4 73 -7 755 -8 567 0 1045 2
1063 5 l32 5 0 2584 c0 2282 -2 2584 -15 2584 -11 0 -15 -11 -15 -41 l0 -40
-52 5 c-29 3 -156 10 -283 16 -126 6 -243 12 -260 13 -19 1 -31 8 -33 19 -3
16 13 18 190 21 106 1 -414 3 -1157 4 -742 0 -1355 -1 -1360 -3z m585 -29 c0
-14 -6 -25 -12 -26 -7 0 -29 -2 -48 -4 -19 -3 -102 -11 -185 -20 -82 -9 -183
-20 -223 -25 -108 -15 -102 -17 -102 40 l0 50 208 3 c114 1 242 3 285 5 76 2
77 2 77 -23z m1720 6 c0 -63 -26 -189 -57 -270 -31 -82 -50 -120 -98 -191 -5
-8 -53 -58 -107 -110 l-96 -96 26 -41 c51 -77 87 -128 100 -141 23 -25 34 -54
28 -78 -11 -41 -16 -35 -87 87 -38 66 -51 81 -61 71 -7 -7 -1 -24 19 -54 56
-83 93 -156 87 -172 -10 -25 -17 -20 -44 32 -52 99 -68 124 -74 114 -3 -6 14
-50 39 -97 43 -82 50 -115 25 -115 -6 0 -25 32 -42 70 -17 39 -35 70 -39 70
-15 0 -10 -20 22 -86 19 -40 28 -72 24 -84 -10 -33 -21 -23 -45 40 -12 33 -26
60 -31 60 -13 0 -11 -14 11 -65 22 -50 25 -75 11 -75 -5 0 -17 23 -27 50 -10
28 -22 50 -27 50 -11 0 -5 -30 14 -77 10 -25 11 -35 1 -45 -9 -9 -13 -7 -18 8
-19 55 -47 107 -51 97 -3 -7 3 -36 12 -63 13 -40 14 -54 5 -65 -18 -22 -30
-18 -30 8 0 42 -21 100 -32 89 -7 -7 -7 -20 1 -43 15 -44 14 -79 -3 -79 -9 0
-16 16 -20 43 -4 23 -11 49 -16 57 -16 26 -23 2 -12 -42 13 -48 11 -52 -16
-43 -14 4 -22 18 -27 45 -8 48 -29 42 -23 -6 3 -28 1 -34 -14 -34 -36 0 -14
133 23 143 10 3 26 21 35 41 13 26 29 40 58 51 27 11 46 27 57 47 8 17 24 36
34 42 28 16 45 39 40 53 -5 15 33 83 46 83 13 0 11 -14 -6 -36 -8 -10 -15 -23
-15 -27 0 -15 20 4 35 33 13 25 13 33 0 64 -16 38 -27 42 -72 25 -19 -7 -29
-7 -31 0 -2 6 -10 11 -18 11 -17 0 -18 14 -3 43 10 18 8 24 -15 43 -14 13 -26
32 -26 44 0 22 -11 24 -77 11 -32 -6 -45 -5 -57 7 -13 14 -19 11 -56 -21 -52
-48 -80 -49 -80 -4 0 48 -9 51 -45 17 -29 -28 -34 -29 -66 -19 -19 5 -41 14
-50 19 -26 14 -30 -1 -6 -20 12 -10 27 -15 34 -13 19 7 16 -11 -7 -40 -29 -37
-36 -81 -16 -108 9 -13 16 -31 16 -40 0 -10 12 -27 28 -38 18 -14 22 -20 11
-21 -15 0 -59 51 -59 69 0 5 -20 26 -45 46 -46 38 -79 41 -73 8 2 -14 -3 -17
-22 -15 -14 2 -26 8 -28 13 -5 12 -82 11 -82 -1 0 -5 12 -10 28 -10 15 0 38
-6 52 -13 14 -8 40 -19 58 -25 28 -10 32 -9 32 7 0 9 -5 22 -12 29 -6 6 -9 15
-5 19 10 10 73 -54 87 -88 16 -38 53 -61 85 -53 29 7 31 16 10 34 -8 7 -15 9
-15 4 0 -18 -24 17 -37 53 -18 53 -16 97 5 124 l19 22 6 -31 c4 -19 13 -32 22
-32 12 0 14 8 9 38 -5 31 -2 40 20 60 35 30 39 28 32 -13 -8 -39 12 -57 38
-36 10 8 16 8 25 -3 7 -8 19 -12 27 -9 25 9 16 -31 -18 -78 -18 -24 -36 -46
-40 -49 -4 -3 -9 -17 -10 -30 -2 -17 3 -25 15 -28 25 -5 55 24 79 76 18 37 24
42 55 42 20 0 49 10 71 25 46 32 56 31 48 -1 -5 -20 -3 -27 13 -31 26 -7 17
-23 -13 -23 -12 0 -26 -3 -30 -7 -4 -5 -13 -8 -19 -8 -7 0 -11 -13 -9 -32 3
-27 -1 -32 -29 -42 -18 -6 -49 -11 -70 -11 -43 0 -52 -16 -15 -26 13 -3 29
-17 37 -31 23 -43 48 -49 78 -19 22 23 24 28 11 37 -13 8 -11 12 9 30 13 11
30 18 38 15 18 -7 63 14 63 30 0 16 34 36 44 27 3 -4 -8 -21 -25 -39 -19 -20
-27 -34 -20 -38 18 -12 12 -25 -18 -40 -16 -9 -38 -31 -49 -51 -14 -23 -29
-35 -43 -35 -21 0 -21 1 4 20 14 11 29 31 32 43 4 12 17 30 29 40 l21 18 -30
-3 c-23 -2 -29 -7 -27 -22 4 -22 -45 -76 -68 -76 -9 0 -21 5 -28 12 -9 9 -12
7 -12 -10 0 -13 6 -22 15 -22 8 0 15 -5 15 -11 0 -7 -10 -9 -25 -5 -21 5 -25
3 -26 -16 -3 -54 -8 -70 -32 -122 -30 -62 -49 -76 -104 -76 -33 0 -45 7 -79
43 -46 48 -74 104 -74 147 0 17 -4 30 -10 30 -5 0 -10 8 -10 19 0 21 -26 31
-83 31 -23 0 -36 -4 -32 -10 3 -5 26 -10 51 -10 38 0 44 -3 44 -21 0 -16 -4
-19 -20 -14 -12 4 -27 1 -35 -5 -8 -7 -26 -9 -42 -5 -33 7 -106 64 -83 65 14
0 16 15 11 75 -1 20 -21 19 -21 -1 0 -11 -6 -15 -17 -11 -45 12 -48 11 -51
-11 -2 -13 1 -28 6 -35 5 -7 12 -23 16 -37 3 -14 27 -41 51 -60 70 -54 76 -66
59 -130 -8 -30 -14 -62 -14 -72 0 -22 -15 -31 -39 -23 -18 5 -18 7 0 66 21 66
23 89 11 89 -9 0 -27 -47 -37 -97 -4 -18 -11 -35 -16 -39 -11 -6 -118 16 -124
27 -3 4 13 46 35 94 45 97 56 162 15 85 -13 -25 -31 -66 -40 -92 -9 -27 -20
-48 -25 -48 -4 0 -15 12 -25 26 -13 20 -14 28 -4 40 6 8 9 18 5 21 -4 4 -11 1
-17 -7 -8 -13 -12 -12 -24 4 -22 28 -20 35 31 122 96 165 108 183 126 173 10
-6 19 -6 22 0 4 5 -20 26 -53 45 -221 135 -391 420 -391 657 l0 49 845 0 c825
0 845 -1 845 -19z m403 -62 l247 -12 0 -39 c0 -21 -4 -38 -8 -38 -11 0 -535
68 -584 76 -24 4 -38 11 -38 20 0 13 12 14 68 10 37 -3 178 -11 315 -17z
m-2113 -14 c0 -14 -1 -25 -2 -25 -2 0 -55 -9 -118 -20 -63 -11 -167 -29 -230
-40 -161 -28 -220 -42 -220 -52 0 -5 10 -6 22 -3 13 2 52 9 88 15 36 6 83 14
105 20 22 5 76 14 120 20 44 7 115 18 159 26 43 8 80 14 82 14 2 0 4 -13 4
-28 0 -32 22 -23 -265 -97 -99 -26 -210 -55 -246 -66 -36 -10 -69 -19 -73 -19
-3 0 -6 51 -6 113 l0 113 48 3 c26 1 146 13 267 26 286 30 265 30 265 0z
m2063 -60 c153 -19 283 -35 288 -35 12 0 12 -77 -1 -85 -5 -3 -40 2 -77 11
-37 8 -90 19 -118 24 -61 9 -291 56 -343 69 -20 5 -49 12 -64 15 -40 9 -36 36
5 36 17 0 157 -16 310 -35z m-31 -80 c155 -31 293 -60 306 -65 17 -7 22 -18
22 -45 0 -41 -4 -42 -91 -16 -35 11 -111 32 -169 46 -58 15 -150 39 -205 55
-55 16 -119 34 -142 40 -44 11 -61 40 -24 40 11 0 147 -25 303 -55z m-2002
-10 c0 -14 -1 -25 -3 -25 -2 0 -56 -19 -417 -145 -91 -32 -171 -62 -178 -68
-9 -7 -12 4 -12 51 l0 60 113 30 c61 17 150 41 197 53 47 12 123 31 170 44
118 31 130 31 130 0z m1765 -9 c68 -18 263 -70 495 -133 64 -18 65 -19 68 -56
2 -28 -1 -37 -12 -37 -15 0 -510 159 -576 185 -19 8 -45 17 -57 20 -22 6 -30
25 -16 38 4 4 14 5 22 3 9 -3 43 -12 76 -20z m-1741 -52 c12 -32 5 -44 -41
-65 -27 -12 -86 -39 -133 -61 -47 -22 -101 -47 -120 -56 -19 -8 -96 -44 -170
-79 -187 -89 -175 -88 -175 -5 l0 68 135 48 c273 97 475 166 486 166 7 0 15
-7 18 -16z m1962 -93 l329 -109 3 -46 c2 -25 0 -46 -3 -46 -7 0 -323 130 -392
161 -23 11 -79 34 -125 53 -137 56 -158 66 -158 74 0 8 10 22 15 22 1 0 150
-49 331 -109z m-259 21 c48 -21 124 -53 168 -70 44 -18 103 -43 130 -57 l50
-24 -75 5 c-57 4 -94 14 -155 42 -147 68 -220 109 -223 125 -5 24 6 22 105
-21z m-1657 -26 c0 -4 -261 -154 -385 -221 -38 -21 -77 -43 -85 -50 -8 -7 -42
-27 -75 -45 -33 -18 -75 -42 -93 -52 -18 -10 -35 -18 -37 -18 -3 0 -5 29 -5
65 0 36 4 65 9 65 4 0 69 29 142 64 172 81 263 123 319 146 25 11 74 34 110
53 62 32 66 33 83 16 9 -10 17 -20 17 -23z m1636 -33 c54 -26 91 -48 83 -51
-8 -2 -26 -7 -40 -12 -22 -7 -38 -1 -90 31 -35 21 -64 43 -63 49 2 23 4 30 8
30 3 0 49 -21 102 -47z m-1612 -9 c9 -23 3 -29 -94 -94 -49 -33 -91 -64 -95
-70 -3 -5 -30 -10 -58 -10 -29 0 -69 -5 -90 -11 -22 -6 -41 -8 -44 -6 -4 5 16
16 172 102 33 18 87 48 120 68 69 40 80 43 89 21z m1538 -36 c68 -40 65 -38
48 -48 -25 -16 -45 -11 -89 21 -35 25 -40 33 -31 45 16 18 11 19 72 -18z
m-1505 -52 c-8 -9 -20 -16 -25 -16 -5 0 -17 -9 -27 -20 -19 -21 -85 -29 -85
-10 0 6 28 28 62 50 54 34 65 37 77 25 12 -12 12 -16 -2 -29z m1453 5 c29 -25
32 -31 21 -45 -12 -14 -16 -14 -41 4 -45 32 -57 23 -20 -15 18 -19 31 -37 28
-41 -7 -7 -78 47 -78 59 0 10 42 67 49 67 3 0 22 -13 41 -29z m230 8 c0 -6 -7
-9 -15 -5 -8 3 -22 3 -30 0 -24 -10 5 -44 37 -44 16 0 28 -4 28 -10 0 -14 -36
-13 -59 2 -14 9 -26 8 -49 -1 -31 -13 -49 -12 -45 1 5 13 -66 -37 -71 -50 -4
-8 4 -22 16 -31 l21 -18 -22 -32 -22 -31 30 0 c16 0 32 -4 36 -9 8 -14 -33
-40 -56 -34 -15 4 -19 0 -19 -19 0 -13 -9 -43 -20 -66 -24 -50 -26 -70 -5 -52
12 10 20 7 46 -14 33 -28 30 -31 -17 -17 l-31 9 7 -39 c6 -33 3 -42 -22 -69
-23 -26 -31 -30 -43 -20 -18 15 -30 -8 -22 -46 4 -21 -2 -28 -35 -44 -22 -10
-45 -17 -52 -14 -7 3 -23 -8 -35 -25 -19 -24 -27 -28 -49 -22 -15 4 -44 6 -65
5 -33 -3 -37 -1 -26 12 7 8 19 14 28 13 29 -4 131 54 131 75 0 3 22 27 48 53
26 26 56 66 66 88 10 22 26 56 36 77 10 20 22 54 25 75 4 21 14 63 23 93 8 30
16 70 18 88 4 50 61 102 112 102 11 0 25 7 32 15 14 17 70 20 70 4z m-810 -19
c0 -6 26 -8 65 -6 60 4 65 2 60 -15 -5 -14 0 -20 19 -25 14 -3 26 -10 26 -14
0 -10 -110 -64 -116 -57 -3 3 -19 1 -35 -3 -27 -8 -29 -7 -29 18 0 15 -7 37
-15 50 -12 16 -13 26 -5 42 11 21 30 27 30 10z m1043 -17 c18 -10 33 -18 33
-18 1 0 5 -11 9 -25 l7 -25 -24 26 c-27 29 -61 47 -103 52 -26 3 -24 4 8 6 22
0 53 -7 70 -16z m-1869 -2 c3 -4 -15 -27 -40 -51 -43 -40 -46 -41 -59 -24 -19
25 -18 32 4 39 10 3 26 14 36 25 19 21 50 27 59 11z m1986 -36 c0 -8 8 -15 18
-15 27 0 74 -26 102 -55 35 -37 16 -42 -25 -6 -20 17 -44 31 -54 31 -10 0 -28
9 -41 20 -13 11 -29 20 -37 20 -7 0 -13 5 -13 10 0 6 11 10 25 10 16 0 25 -6
25 -15z m-1943 -11 c4 -10 -11 -32 -43 -65 -26 -27 -51 -49 -55 -49 -4 0 -9
12 -12 28 -5 22 1 33 36 64 46 41 64 46 74 22z m1296 -19 c33 -32 49 -65 30
-65 -10 0 -93 82 -93 92 0 17 27 6 63 -27z m-1488 7 c24 -20 55 -67 55 -82 0
-14 -37 -13 -43 3 -3 9 -7 9 -20 -2 -10 -7 -17 -19 -17 -25 0 -7 -15 -17 -33
-24 -44 -16 -50 -15 -43 4 3 8 2 12 -4 9 -6 -3 -13 1 -16 10 -7 18 19 52 49
61 12 4 27 13 35 21 13 12 12 16 -4 28 -18 14 -18 14 1 14 11 0 29 -7 40 -17z
m1686 1 c8 -8 5 -14 -11 -23 -12 -7 -20 -8 -16 -2 3 5 -1 12 -9 15 -10 4 -12
1 -8 -10 4 -10 2 -14 -5 -9 -6 3 -13 2 -17 -4 -4 -6 -11 -7 -17 -4 -7 5 -1 16
17 30 29 23 48 25 66 7z m608 -12 c7 -5 12 -14 9 -21 -2 -8 -11 -5 -28 9 -17
14 -20 20 -10 21 8 0 21 -4 29 -9z m-2379 -6 c0 -8 -79 -45 -97 -45 -16 0 -16
1 -1 16 9 9 31 20 49 24 44 10 49 11 49 5z m319 -9 c9 -11 -1 -30 -51 -92
l-62 -78 -12 29 c-12 29 -11 32 49 93 34 34 62 62 63 62 1 0 7 -6 13 -14z
m1230 -39 c49 -51 52 -56 44 -87 l-9 -33 -34 44 c-19 24 -37 46 -40 49 -31 30
-51 61 -45 69 12 20 31 11 84 -42z m-1704 18 c-31 -25 -55 -29 -89 -16 -17 7
-16 9 10 19 16 7 39 10 51 8 13 -3 25 -1 28 5 4 5 12 9 18 9 7 0 -1 -11 -18
-25z m-143 -27 c-6 -6 -15 -8 -19 -4 -4 4 -1 11 7 16 19 12 27 3 12 -12z m662
16 c9 -3 16 -10 16 -15 0 -19 -144 -219 -152 -211 -4 4 -10 21 -14 37 -5 26 3
41 61 113 37 45 69 82 70 82 2 0 10 -3 19 -6z m1146 -75 c72 -89 76 -97 58
-122 -12 -16 -20 -7 -81 79 -37 52 -67 102 -67 110 0 30 28 10 90 -67z m540
77 c0 -11 -19 -15 -25 -6 -3 5 1 10 9 10 9 0 16 -2 16 -4z m-696 -32 c4 -11 1
-14 -12 -10 -12 4 -32 -7 -61 -34 -32 -30 -51 -40 -75 -40 -30 0 -33 3 -29 24
5 25 27 36 74 36 14 0 34 9 44 20 22 24 51 26 59 4z m736 -14 c0 -10 -31 -23
-38 -15 -8 7 19 35 29 29 5 -3 9 -9 9 -14z m-2390 -5 c-7 -8 -19 -15 -27 -15
-22 0 -90 -56 -110 -91 -16 -27 -79 -69 -103 -69 -20 0 -9 21 17 31 14 5 35
20 45 32 28 32 2 35 -27 3 -30 -32 -45 -33 -45 -3 0 17 11 29 41 45 48 26 59
27 59 7 0 -8 4 -15 8 -15 7 0 13 7 40 45 10 14 73 44 96 44 15 1 16 -2 6 -14z
m85 5 c-3 -5 -19 -10 -36 -10 -16 0 -29 5 -29 10 0 6 16 10 36 10 21 0 33 -4
29 -10z m654 -6 c5 -5 -152 -264 -161 -264 -4 0 -15 11 -23 24 -15 23 -14 27
27 88 112 167 112 168 133 161 11 -3 22 -7 24 -9z m1827 -2 c18 -23 17 -42 -1
-42 -8 0 -15 -4 -15 -8 0 -5 -7 -17 -16 -28 -15 -18 -15 -18 -9 9 4 18 2 26
-4 22 -6 -3 -10 7 -9 28 1 25 6 33 21 34 11 1 26 -6 33 -15z m-2099 -84 c-3
-10 -1 -21 4 -24 5 -3 9 -15 9 -28 0 -12 4 -26 9 -31 5 -6 12 -19 15 -31 5
-17 0 -22 -29 -31 -37 -12 -45 -4 -20 17 11 9 12 16 5 25 -6 7 -8 20 -4 29 4
11 1 16 -12 16 -17 0 -17 1 1 13 21 16 12 39 -13 30 -15 -6 -15 -5 -3 11 10
12 11 20 4 24 -7 5 -7 15 -1 31 l9 25 15 -29 c8 -16 13 -37 11 -47z m823 52
c-6 -11 -16 -20 -22 -20 -6 0 -3 9 7 20 10 11 20 20 22 20 2 0 -1 -9 -7 -20z
m-1160 -14 c0 -9 -7 -12 -20 -9 -11 3 -17 9 -14 14 8 14 34 10 34 -5z m-142
-9 c-32 -31 -89 -69 -95 -63 -9 9 28 46 62 61 39 17 50 18 33 2z m2231 4 c11
-7 10 -11 -7 -20 -22 -12 -62 -15 -62 -5 0 9 33 33 45 34 6 0 16 -4 24 -9z
m-774 -69 c0 -35 -4 -39 -34 -33 -8 1 -13 12 -20 46 -2 8 18 18 49 24 3 1 5
-16 5 -37z m549 23 c-4 -8 -14 -15 -23 -15 -14 1 -13 3 3 15 25 19 27 19 20 0z
m-1914 -35 c0 -5 -11 -17 -25 -26 -20 -13 -28 -14 -40 -4 -14 11 -13 14 1 24
20 15 64 19 64 6z m752 -15 c8 0 12 -10 10 -25 -1 -14 1 -30 5 -35 13 -16 83
-67 83 -59 0 3 6 1 14 -5 7 -6 20 -9 28 -6 12 5 75 -44 66 -50 -2 0 -27 1 -55
3 -43 3 -53 7 -53 22 0 11 -12 25 -27 32 -34 16 -117 124 -107 139 4 8 9 7 15
-2 4 -8 14 -14 21 -14z m1553 15 c3 -5 1 -10 -4 -10 -6 0 -11 5 -11 10 0 6 2
10 4 10 3 0 8 -4 11 -10z m-2529 -49 c-9 -10 -16 -22 -16 -28 0 -5 -13 -29
-30 -51 -16 -23 -30 -46 -30 -52 0 -5 -4 -10 -10 -10 -18 0 -11 28 17 72 47
73 77 110 81 98 2 -6 -3 -19 -12 -29z m2494 5 c0 -3 -4 -8 -10 -11 -5 -3 -10
-1 -10 4 0 6 5 11 10 11 6 0 10 -2 10 -4z m-20 -48 c0 -6 -7 -7 -16 -4 -9 3
-18 6 -20 6 -3 0 -3 4 1 10 7 11 35 2 35 -12z m-2338 -10 c-7 -7 -12 -8 -12
-2 0 14 12 26 19 19 2 -3 -1 -11 -7 -17z m98 -8 c0 -5 -5 -10 -11 -10 -5 0 -7
5 -4 10 3 6 8 10 11 10 2 0 4 -4 4 -10z m440 -11 c0 -5 -4 -9 -10 -9 -5 0 -10
7 -10 16 0 8 5 12 10 9 6 -3 10 -10 10 -16z m-640 -6 c0 -5 -7 -17 -15 -27 -8
-11 -15 -26 -15 -34 0 -15 -89 -122 -102 -122 -19 0 -6 27 27 55 19 17 35 34
35 39 0 14 54 96 63 96 4 0 7 -3 7 -7z m80 -13 c0 -6 -7 -13 -15 -16 -8 -4
-15 -12 -15 -18 0 -7 -7 -21 -16 -32 -14 -18 -15 -18 -8 6 13 47 54 93 54 60z
m1434 -14 c-3 -9 -10 -16 -15 -16 -5 0 -4 9 3 20 14 22 21 20 12 -4z m876 4
c-10 -18 -8 -20 26 -20 31 0 35 -2 24 -15 -9 -11 -16 -12 -25 -5 -16 14 -28 0
-13 -17 13 -16 5 -26 -25 -28 -27 -2 -27 -16 0 -30 20 -10 20 -11 -2 -27 -22
-17 -24 -16 -37 4 -15 22 -16 22 -42 4 -15 -10 -25 -20 -22 -23 3 -3 13 0 21
7 21 17 46 -3 28 -21 -9 -9 -19 -9 -42 1 -18 7 -47 10 -68 6 l-38 -6 43 20
c23 11 58 31 76 45 18 14 37 25 42 25 21 0 34 23 22 37 -8 10 -6 19 12 38 28
30 34 32 20 5z m-1710 -21 c0 -4 22 -43 50 -86 51 -80 63 -129 34 -140 -27
-10 -64 14 -64 42 0 28 -3 30 -33 14 -21 -12 -21 -12 -3 16 16 25 17 29 2 43
-14 14 -17 14 -34 -1 -10 -9 -29 -17 -41 -17 -18 0 -21 4 -16 20 4 13 2 20 -7
20 -8 1 -6 6 6 15 10 7 15 19 11 25 -7 11 43 57 57 53 5 -2 7 0 7 5 -3 19 2
23 16 12 8 -7 15 -16 15 -21z m494 5 c4 -10 1 -14 -6 -12 -15 5 -23 28 -10 28
5 0 13 -7 16 -16z m1596 -13 c25 -15 28 -20 15 -25 -9 -3 -14 -10 -11 -15 3
-5 -15 -25 -41 -44 -47 -34 -104 -120 -89 -135 10 -9 44 37 51 70 4 16 16 35
28 43 29 20 37 7 9 -15 -22 -18 -42 -66 -42 -100 0 -8 11 2 25 23 26 38 39 45
50 27 4 -6 10 -8 15 -5 9 6 20 -18 20 -47 0 -17 -3 -18 -15 -8 -8 7 -15 21
-15 31 0 11 -3 19 -8 19 -9 0 -87 -126 -96 -155 -7 -25 -53 -75 -68 -75 -6 0
-76 -66 -155 -146 -96 -98 -147 -144 -154 -137 -6 6 -13 34 -15 64 -5 45 -1
63 20 103 14 27 23 53 20 58 -3 4 1 5 8 3 14 -5 57 29 154 121 49 46 54 55 54
93 0 23 9 59 20 81 11 22 20 46 20 55 0 8 5 15 11 15 8 0 9 -16 5 -52 -17
-133 -19 -171 -7 -164 6 4 11 27 11 52 0 91 38 199 74 210 15 5 16 8 5 15 -11
6 -10 9 4 15 9 3 17 12 17 20 0 8 4 14 10 14 24 0 4 -57 -32 -96 -27 -28 -40
-52 -44 -80 -4 -29 -3 -35 5 -24 6 8 11 23 11 33 0 10 21 39 48 64 26 25 47
50 47 55 0 5 6 13 14 17 11 7 9 10 -8 16 -12 3 -19 11 -16 16 8 12 10 12 45
-10z m-160 -1 c0 -5 -2 -10 -4 -10 -3 0 -8 5 -11 10 -3 6 -1 10 4 10 6 0 11
-4 11 -10z m-2420 -30 c0 -5 -5 -10 -11 -10 -5 0 -7 5 -4 10 3 6 8 10 11 10 2
0 4 -4 4 -10z m895 -10 c-11 -5 -14 -9 -6 -9 11 -1 12 -12 7 -53 -12 -88 -15
-95 -40 -91 -22 5 -22 6 -9 56 7 28 13 61 13 73 0 26 8 34 34 33 21 0 21 -1 1
-9z m60 0 c19 -8 19 -9 -2 -9 -12 -1 -25 4 -28 9 -7 12 2 12 30 0z m1481 -27
c-3 -8 -6 -17 -6 -19 0 -2 -4 -4 -9 -4 -10 0 -21 36 -14 44 10 10 34 -7 29
-21z m-2466 -13 c0 -16 -4 -30 -9 -30 -15 0 -24 -38 -16 -68 5 -21 8 -23 16
-11 8 11 9 9 4 -7 -4 -16 1 -26 19 -38 15 -9 28 -29 31 -49 4 -20 26 -55 56
-88 32 -36 52 -67 57 -94 11 -53 5 -71 -17 -52 -28 25 -95 54 -141 62 -50 8
-81 22 -92 40 -4 7 -22 16 -40 19 -20 4 -43 20 -58 38 -13 17 -20 29 -15 26
60 -28 88 -38 93 -34 6 7 -42 52 -97 89 -37 26 -53 47 -33 47 4 0 27 -12 51
-25 46 -27 68 -26 35 1 -10 8 -39 25 -64 37 -32 15 -40 22 -27 25 32 7 66 -7
107 -44 22 -20 40 -32 40 -27 0 6 -26 34 -57 62 -52 48 -56 54 -40 66 9 7 17
18 17 24 0 7 4 9 10 6 6 -4 10 5 10 19 0 14 5 26 11 26 7 0 9 -11 5 -31 -5
-25 -2 -32 14 -36 18 -5 25 -20 21 -50 -1 -6 3 -14 9 -18 5 -3 10 -1 10 5 0 6
5 8 10 5 6 -3 10 -15 10 -25 0 -10 5 -20 11 -22 6 -2 12 -23 14 -46 2 -45 45
-112 71 -112 12 0 9 8 -10 31 -25 30 -40 66 -35 85 2 5 -5 23 -14 41 -20 37
-22 84 -5 101 9 9 9 15 1 23 -9 9 -8 18 4 35 21 32 33 30 33 -6z m290 10 c0
-5 -4 -10 -10 -10 -5 0 -10 5 -10 10 0 6 5 10 10 10 6 0 10 -4 10 -10z m-506
-41 c-27 -30 -37 -22 -12 12 12 16 24 25 26 19 2 -6 -4 -20 -14 -31z m1204 11
c5 -29 -9 -119 -15 -102 -3 6 -11 12 -19 12 -17 0 -17 5 -3 70 11 53 31 63 37
20z m52 -19 c0 -21 -3 -41 -6 -44 -14 -14 -19 3 -16 47 5 54 22 52 22 -3z
m1599 -21 c0 -24 0 -24 -14 -6 -12 16 -17 17 -30 6 -8 -7 -15 -8 -15 -2 0 5 7
15 15 22 8 7 15 20 15 28 0 13 3 12 15 -4 8 -10 14 -30 14 -44z m-2459 40 c0
-13 -20 -13 -40 0 -12 8 -9 10 13 10 15 0 27 -4 27 -10z m1660 -10 c0 -5 -4
-10 -9 -10 -6 0 -13 5 -16 10 -3 6 1 10 9 10 9 0 16 -4 16 -10z m-1457 -17
c-7 -2 -19 -2 -25 0 -7 3 -2 5 12 5 14 0 19 -2 13 -5z m-243 -28 c0 -8 -4 -15
-9 -15 -13 0 -22 16 -14 24 11 11 23 6 23 -9z m181 2 c-1 -12 -15 -9 -19 4 -3
6 1 10 8 8 6 -3 11 -8 11 -12z m826 -22 c9 -19 20 -35 25 -35 11 0 10 18 -2
25 -18 11 -10 25 15 25 18 0 26 -7 31 -24 3 -14 3 -31 -1 -38 -3 -7 1 -4 9 6
9 11 16 25 16 32 0 6 7 17 15 24 13 11 14 10 9 -5 -5 -13 -4 -16 5 -11 8 5 12
3 10 -5 -4 -33 2 -38 39 -36 36 2 37 1 40 -35 3 -35 1 -38 -47 -63 -33 -16
-65 -25 -93 -24 -24 1 -32 3 -18 6 45 7 130 35 136 45 11 18 -3 18 -42 1 -21
-9 -59 -19 -84 -23 -28 -3 -44 -10 -42 -18 3 -16 -15 -15 -21 2 -3 7 -27 16
-56 19 -29 3 -65 16 -81 27 -25 18 -28 24 -19 42 10 18 12 18 28 4 15 -14 18
-13 29 4 7 11 12 24 12 29 0 5 4 21 10 35 15 40 56 35 77 -9z m-1377 15 c12
-8 11 -10 -7 -10 -13 0 -23 5 -23 10 0 13 11 13 30 0z m2353 -10 c3 -11 12
-20 21 -20 9 0 16 -4 16 -9 0 -7 -90 -11 -90 -3 0 7 35 51 41 52 4 0 9 -9 12
-20z m-1713 -41 c0 -11 -20 -22 -21 -12 0 4 -2 19 -3 32 -3 22 -2 23 11 6 7
-11 13 -22 13 -26z m333 18 c29 -15 26 -27 -8 -27 -12 0 -30 -7 -41 -15 -28
-21 -35 -18 -28 11 5 20 2 26 -15 31 -11 3 -21 10 -21 16 0 13 78 2 113 -16z
m-573 9 c0 -3 -4 -8 -10 -11 -5 -3 -10 -1 -10 4 0 6 5 11 10 11 6 0 10 -2 10
-4z m1259 -21 c13 -12 12 -15 -3 -21 -11 -4 -23 1 -36 16 -10 12 -24 19 -29
15 -6 -3 -11 -1 -11 6 0 15 60 4 79 -16z m46 5 c-3 -5 -11 -10 -16 -10 -6 0
-7 5 -4 10 3 6 11 10 16 10 6 0 7 -4 4 -10z m-1021 -21 c-3 -5 -10 -7 -15 -3
-5 3 -7 10 -3 15 3 5 10 7 15 3 5 -3 7 -10 3 -15z m420 12 c6 -9 -93 -35 -102
-27 -2 3 18 11 44 20 27 8 50 15 51 15 1 1 4 -3 7 -8z m666 -1 c0 -5 -4 -10
-10 -10 -5 0 -10 5 -10 10 0 6 5 10 10 10 6 0 10 -4 10 -10z m263 3 c-7 -2
-19 -2 -25 0 -7 3 -2 5 12 5 14 0 19 -2 13 -5z m-118 -13 c3 -5 1 -10 -4 -10
-6 0 -11 5 -11 10 0 6 2 10 4 10 3 0 8 -4 11 -10z m-1962 -20 c-3 -11 -9 -20
-14 -20 -11 0 -11 3 -3 24 9 23 23 20 17 -4z m1907 10 c-8 -5 -19 -10 -25 -10
-5 0 -3 5 5 10 8 5 20 10 25 10 6 0 3 -5 -5 -10z m253 3 c12 -11 -13 -31 -34
-26 -18 5 -19 6 -2 19 21 15 27 17 36 7z m745 -29 c8 -16 12 -131 12 -340 1
-298 0 -318 -18 -338 -10 -11 -22 -29 -26 -40 -4 -11 -12 -16 -22 -12 -8 3
-24 1 -35 -4 -23 -13 -26 -66 -4 -97 14 -20 13 -23 -35 -52 -28 -17 -52 -31
-55 -31 -3 0 -5 19 -5 41 0 33 7 49 35 80 19 21 37 51 41 66 10 49 13 53 34
53 25 0 68 44 76 76 7 27 -35 144 -52 144 -13 0 -64 -53 -64 -67 0 -6 -10 -13
-21 -16 -19 -5 -20 -10 -14 -49 8 -55 7 -150 -3 -160 -4 -4 -8 18 -9 50 -1 32
-7 78 -12 102 -18 78 -14 124 14 150 13 12 39 47 57 77 18 30 44 71 56 91 35
52 39 95 13 121 -11 11 -21 27 -21 35 0 8 -10 22 -22 30 l-22 16 32 44 c18 24
32 49 32 55 0 18 27 1 38 -25z m-2478 19 c-1 -12 -40 -59 -40 -48 0 26 14 55
26 55 8 0 14 -3 14 -7z m37 -26 c-12 -28 -27 -36 -27 -15 0 12 31 50 37 45 1
-2 -3 -15 -10 -30z m300 16 c-9 -9 -19 -14 -23 -11 -10 10 6 28 24 28 15 0 15
-1 -1 -17z m463 7 c0 -5 -4 -10 -10 -10 -5 0 -17 -12 -26 -26 -15 -22 -15 -27
-3 -35 11 -7 9 -9 -9 -9 -36 0 -38 27 -3 60 31 30 51 38 51 20z m554 -3 c14
-14 17 -47 4 -47 -4 0 -8 -4 -8 -10 0 -5 7 -7 15 -4 8 4 15 2 15 -4 0 -6 -6
-12 -12 -15 -9 -3 -5 -11 11 -22 21 -16 21 -19 7 -27 -23 -13 -22 -49 2 -41
15 6 16 5 2 -12 -14 -16 -13 -17 6 -11 18 5 22 2 26 -19 5 -24 4 -25 -13 -9
-17 16 -19 16 -26 -2 -4 -10 -2 -19 5 -22 7 -2 10 -19 7 -45 -21 -188 -28
-222 -60 -297 -33 -73 -41 -100 -31 -100 18 0 36 15 36 31 0 10 7 19 15 19 11
0 14 7 9 25 -5 21 -3 25 16 25 17 0 20 4 15 20 -5 14 -2 20 9 20 9 0 16 5 16
10 0 6 -7 10 -15 10 -8 0 -15 5 -15 10 0 6 11 10 25 10 14 0 25 5 25 10 0 6
-7 10 -15 10 -24 0 -17 28 8 33 22 4 22 4 -3 15 l-25 11 26 0 c23 1 29 8 40
46 7 25 16 45 20 45 4 0 5 9 2 20 -3 11 -12 20 -19 20 -17 0 -18 22 -2 38 10
10 10 15 -2 22 -11 8 -12 12 -3 18 8 5 9 19 3 47 -5 22 -7 41 -5 44 3 2 0 10
-6 18 -8 9 -8 13 -1 13 8 0 8 9 1 30 -6 16 -15 27 -20 24 -5 -3 -6 2 -3 10 8
20 9 20 40 0 14 -10 23 -23 20 -30 -4 -11 7 -14 44 -14 27 0 51 -4 54 -9 3 -5
3 -36 0 -69 l-7 -60 -38 5 c-25 4 -39 2 -39 -6 0 -6 16 -11 35 -11 26 0 35 -4
35 -17 0 -13 -3 -14 -12 -5 -21 21 -38 13 -38 -18 0 -21 5 -30 16 -30 10 0 14
6 10 15 -3 9 1 15 11 15 17 0 15 -34 -8 -113 -8 -31 -14 -37 -30 -32 -21 7
-25 -5 -8 -22 8 -8 -4 -42 -45 -125 -31 -63 -56 -124 -56 -134 0 -11 -6 -28
-14 -39 -7 -11 -16 -32 -20 -47 -7 -29 -38 -39 -51 -18 -9 14 -40 4 -87 -26
-21 -13 -49 -24 -63 -24 -24 0 -25 3 -25 55 0 44 4 57 20 67 11 7 20 22 20 33
0 11 11 32 25 47 18 20 25 38 25 67 0 40 1 40 26 30 15 -5 30 -7 33 -3 9 8
-29 34 -51 34 -10 0 -18 5 -18 11 0 11 28 9 63 -6 28 -12 19 9 -12 28 -17 10
-50 17 -81 17 -64 0 -86 17 -68 54 6 14 14 26 18 26 4 0 8 14 9 30 4 63 6 70
20 70 8 0 11 3 8 7 -4 3 -2 12 5 20 9 11 7 12 -8 6 -16 -6 -15 -2 6 23 22 27
26 28 32 13 4 -9 16 -24 28 -32 16 -11 18 -16 8 -20 -10 -4 -8 -10 7 -23 16
-13 17 -16 3 -11 -19 7 -31 -6 -35 -38 -2 -10 -9 -22 -15 -27 -19 -11 -3 -20
42 -22 34 -2 39 0 35 15 -3 10 -2 20 3 23 11 7 26 212 23 304 -2 64 1 71 23
49z m-1179 -7 c3 -5 1 -10 -4 -10 -6 0 -11 5 -11 10 0 6 2 10 4 10 3 0 8 -4
11 -10z m1485 -10 c0 -14 -7 -20 -23 -20 -13 0 -32 9 -42 20 -18 20 -17 20 23
20 35 0 42 -3 42 -20z m-980 -12 c0 -19 -2 -20 -11 -8 -8 11 -12 12 -16 2 -2
-6 -9 -10 -14 -6 -5 3 -9 -2 -9 -12 0 -12 -4 -14 -12 -7 -14 10 -63 -9 -52
-19 3 -3 1 -9 -5 -13 -6 -3 -11 -1 -11 4 0 6 -5 11 -11 11 -6 0 -8 -9 -3 -22
6 -20 5 -21 -10 -9 -24 20 -20 37 14 61 17 12 30 18 30 14 0 -3 7 -1 15 6 8 7
23 10 34 7 10 -2 25 -1 32 4 22 14 29 11 29 -13z m30 12 c0 -5 -2 -10 -4 -10
-3 0 -8 5 -11 10 -3 6 -1 10 4 10 6 0 11 -4 11 -10z m595 -85 c-5 -65 -10 -85
-22 -85 -9 0 -12 6 -9 18 16 55 27 104 25 115 -3 24 1 50 7 44 4 -3 3 -45 -1
-92z m560 85 c-3 -5 -10 -10 -16 -10 -5 0 -9 5 -9 10 0 6 7 10 16 10 8 0 12
-4 9 -10z m-1788 -42 c-3 -7 -5 -2 -5 12 0 14 2 19 5 13 2 -7 2 -19 0 -25z
m374 22 c5 0 9 -4 9 -10 0 -5 -11 -10 -25 -10 -16 0 -25 6 -25 16 0 11 5 14
16 10 9 -3 20 -6 25 -6z m-894 -22 c-3 -8 -6 -5 -6 6 -1 11 2 17 5 13 3 -3 4
-12 1 -19z m623 -2 c23 1 47 7 53 13 14 14 27 14 27 1 0 -6 -12 -16 -27 -22
-16 -7 -36 -18 -45 -26 -15 -13 -20 -11 -42 13 -15 16 -26 33 -26 39 0 6 5 4
10 -4 6 -9 24 -14 50 -14z m120 11 c0 -2 -9 -12 -20 -22 -24 -21 -27 -14 -4 9
15 15 24 20 24 13z m1247 -3 c-3 -3 -12 -4 -19 -1 -8 3 -5 6 6 6 11 1 17 -2
13 -5z m-1917 -19 c-7 -8 -17 -12 -22 -9 -6 4 -5 10 3 15 22 14 33 10 19 -6z
m710 6 c0 -5 -7 -12 -16 -15 -24 -9 -28 -7 -14 9 14 17 30 20 30 6z m145 -1
c-3 -5 -12 -10 -18 -10 -7 0 -6 4 3 10 19 12 23 12 15 0z m265 -40 c-7 -4 -10
-12 -6 -18 12 -20 -12 -62 -36 -62 l-23 1 22 18 23 19 -26 6 c-14 4 -32 2 -39
-4 -13 -11 -9 -50 5 -50 4 0 5 -11 3 -24 -6 -27 -38 -66 -55 -66 -9 0 -9 3 0
12 19 19 14 31 -9 25 -17 -5 -18 -3 -7 10 11 14 10 16 -13 10 -23 -6 -25 -4
-26 31 0 25 2 31 6 18 5 -12 10 -16 14 -9 4 6 4 18 1 27 -8 21 5 20 23 -1 13
-17 14 -16 10 5 -4 19 -2 22 13 17 15 -5 17 -2 13 15 -5 17 -1 20 26 20 20 0
31 5 31 14 0 12 6 13 31 4 20 -7 27 -13 19 -18z m220 9 c28 -15 -25 -10 -61 6
l-34 15 40 -6 c22 -4 47 -10 55 -15z m755 -9 c3 -5 1 -10 -4 -10 -6 0 -11 5
-11 10 0 6 2 10 4 10 3 0 8 -4 11 -10z m-2095 -9 c0 -6 -4 -13 -10 -16 -5 -3
-10 1 -10 9 0 9 5 16 10 16 6 0 10 -4 10 -9z m670 -1 c0 -16 -122 -31 -130
-16 -3 5 20 11 50 14 30 2 57 6 59 8 8 8 21 4 21 -6z m1375 4 c13 -5 14 -8 3
-15 -19 -13 -28 -11 -28 6 0 17 2 18 25 9z m-1217 -11 c-10 -2 -26 -2 -35 0
-10 3 -2 5 17 5 19 0 27 -2 18 -5z m652 -2 c-29 -19 1 -24 50 -9 28 9 48 12
44 7 -3 -5 -11 -9 -18 -9 -8 0 -24 -9 -37 -20 l-24 -20 40 5 40 5 -32 -12
c-38 -13 -42 -25 -10 -31 19 -4 19 -4 -5 -6 -36 -1 -47 -21 -12 -21 22 0 24
-2 14 -15 -7 -8 -27 -17 -46 -21 -39 -7 -45 -21 -11 -26 19 -4 17 -6 -13 -15
l-35 -11 33 -1 c50 -1 28 -21 -24 -21 -24 0 -44 -4 -44 -10 0 -5 21 -10 48
-10 34 0 43 -3 32 -10 -8 -5 -30 -10 -47 -10 -26 0 -33 -4 -33 -20 0 -15 9
-22 33 -27 l32 -7 -28 -7 c-23 -6 -37 -2 -71 22 -44 31 -98 48 -153 49 -18 0
-33 5 -33 10 0 6 15 8 40 4 25 -4 40 -3 40 4 0 5 -20 13 -45 16 -24 4 -47 12
-51 17 -3 6 4 7 20 3 16 -4 26 -2 26 5 0 6 -15 14 -32 19 -18 4 -33 15 -33 23
0 13 6 13 48 2 11 -4 17 0 17 10 0 9 -12 18 -29 22 -22 5 -28 10 -24 26 5 20
23 27 23 9 0 -5 9 -10 20 -10 23 0 26 10 8 28 -9 9 -8 12 5 12 22 0 22 19 0
37 -17 14 -17 14 0 9 9 -3 24 -9 34 -13 12 -5 14 -3 8 7 -6 10 -2 11 19 6 15
-4 25 -3 23 1 -3 4 43 9 101 11 70 1 102 -1 92 -7z m1290 -26 c0 -12 7 -25 15
-29 11 -4 13 -14 9 -38 -9 -44 -19 -54 -40 -37 -13 11 -18 11 -21 2 -6 -16
-23 -17 -23 -1 0 6 -7 19 -16 29 -17 19 -11 39 12 39 8 0 14 7 14 15 0 8 4 15
9 15 5 0 11 9 14 21 7 27 27 15 27 -16z m-2750 10 c0 -6 -62 -45 -72 -45 -19
0 -5 18 25 33 34 17 47 20 47 12z m695 -5 c-3 -5 -10 -10 -16 -10 -5 0 -9 5
-9 10 0 6 7 10 16 10 8 0 12 -4 9 -10z m103 3 c-10 -2 -26 -2 -35 0 -10 3 -2
5 17 5 19 0 27 -2 18 -5z m1322 -8 c7 -8 21 -15 31 -15 11 0 19 -4 19 -10 0
-5 -5 -10 -11 -10 -6 0 -9 -7 -5 -15 4 -10 -1 -15 -16 -15 -17 0 -19 -3 -10
-12 16 -16 15 -28 -3 -28 -8 0 -15 -7 -15 -15 0 -8 -7 -15 -15 -15 -22 0 -18
-15 8 -26 12 -6 17 -9 11 -8 -6 1 -17 -2 -25 -6 -10 -7 -8 -11 11 -18 l24 -9
-25 -7 c-22 -7 -23 -8 -5 -15 19 -7 18 -8 -5 -15 -23 -7 -23 -8 11 -19 l35
-11 -37 -4 c-42 -4 -52 -22 -13 -22 16 0 25 -6 25 -15 0 -11 -7 -14 -24 -9
-14 3 -32 1 -42 -4 -15 -8 -13 -11 14 -17 47 -10 41 -31 -8 -27 -25 3 -40 0
-40 -7 0 -6 10 -11 23 -12 21 0 21 -1 -3 -11 -15 -6 -20 -12 -12 -15 17 -7 15
-23 -3 -23 -8 0 -15 -4 -15 -10 0 -5 11 -10 25 -10 14 0 25 -4 25 -8 0 -4 -12
-8 -26 -7 -20 0 -31 -9 -49 -42 -23 -40 -23 -41 -4 -46 29 -8 23 -26 -8 -24
-25 2 -28 -1 -26 -25 1 -22 -3 -28 -17 -28 -13 0 -17 -5 -14 -15 4 -9 0 -15
-10 -15 -9 0 -16 -5 -16 -11 0 -6 -31 -42 -70 -79 -38 -38 -72 -81 -76 -96 -7
-28 -6 -31 61 -79 21 -16 26 -26 23 -50 l-4 -30 -13 27 c-18 36 -80 52 -168
43 -60 -6 -66 -5 -49 8 10 8 16 19 12 25 -5 8 2 10 22 6 37 -7 52 13 20 25
-20 9 -19 10 14 10 44 1 59 18 26 30 -20 8 -21 10 -5 16 9 4 24 5 32 2 22 -9
31 14 11 29 -19 13 -6 27 17 18 8 -3 18 -1 22 5 3 6 -1 14 -9 17 -28 11 -17
26 14 22 20 -3 30 0 30 9 0 7 -8 13 -17 14 -13 1 -11 3 5 7 30 9 30 25 0 33
-20 5 -18 7 15 14 30 6 35 10 26 21 -9 11 -7 14 10 14 28 0 27 17 -1 23 -17 3
-14 5 10 6 40 1 46 31 5 31 -33 0 -27 7 12 13 38 5 45 27 8 27 -22 0 -25 2
-13 10 8 5 26 10 39 10 16 0 21 4 17 15 -3 8 -1 15 4 15 23 0 8 19 -17 23
l-28 4 33 8 c39 9 42 23 5 27 -27 3 -26 4 12 17 58 20 65 31 19 32 -37 1 -38
1 -14 12 50 24 56 30 34 38 -18 7 -18 8 4 15 35 10 26 26 -10 19 l-33 -6 25
20 c14 11 33 21 43 21 9 0 17 4 17 10 0 5 -14 7 -32 4 -30 -5 -29 -3 17 22 34
19 44 29 33 32 -9 2 -27 -2 -39 -8 -17 -10 -20 -9 -17 1 2 7 20 17 39 22 44
11 61 27 29 28 l-25 0 23 10 c32 12 19 31 -14 19 -31 -12 -34 -12 -34 -1 0 5
16 12 35 15 19 4 35 12 35 18 0 6 -13 8 -36 3 -23 -4 -34 -3 -30 3 3 6 24 13
46 17 53 9 40 28 -14 20 -29 -4 -36 -3 -25 4 8 5 27 11 42 13 14 2 29 7 33 11
12 12 41 8 54 -8z m-1075 -5 c-3 -5 -12 -10 -18 -10 -7 0 -6 4 3 10 19 12 23
12 15 0z m1269 -5 c3 -8 1 -15 -3 -15 -5 0 -11 7 -15 15 -3 8 -1 15 3 15 5 0
11 -7 15 -15z m-2279 -24 c-3 -7 -14 -10 -23 -9 -11 2 -23 -10 -34 -32 -11
-21 -18 -28 -18 -17 0 10 -4 15 -10 12 -5 -3 -10 -2 -10 4 0 6 13 17 28 25 16
8 34 22 42 31 14 17 37 5 25 -14z m2205 13 c0 -14 -3 -14 -15 -4 -8 7 -15 14
-15 16 0 2 7 4 15 4 8 0 15 -7 15 -16z m-1737 -26 c3 -18 10 -53 16 -78 5 -25
10 -80 11 -124 0 -71 -2 -77 -17 -71 -38 15 -56 18 -49 7 3 -6 19 -13 35 -17
28 -6 28 -6 18 -56 -9 -46 -11 -48 -27 -34 -9 8 -23 15 -31 15 -8 0 -2 -9 14
-21 34 -26 36 -45 2 -23 -34 22 -44 10 -14 -15 20 -17 21 -20 7 -21 -24 0 -23
-17 2 -30 17 -9 20 -8 20 10 0 11 5 20 10 20 6 0 10 -10 10 -22 0 -13 14 -47
30 -77 17 -30 30 -56 30 -58 0 -1 -13 -3 -30 -3 -33 0 -41 16 -12 23 9 3 -2 4
-25 2 -45 -4 -70 13 -59 40 4 11 14 13 37 8 23 -4 30 -3 25 5 -4 7 -16 12 -26
12 -10 0 -20 5 -22 11 -5 16 -85 24 -102 10 -12 -10 -15 -3 -22 41 -11 72 -11
73 7 72 17 -1 22 11 54 135 17 66 21 153 9 218 l-7 38 26 -27 c17 -19 36 -28
54 -27 l28 1 -25 8 c-14 4 -18 9 -10 10 11 1 9 4 -5 10 l-20 9 20 1 c20 1 20
1 1 15 -19 14 -19 15 6 15 21 0 27 -6 31 -32z m290 25 c-13 -2 -35 -2 -50 0
-16 2 -5 4 22 4 28 0 40 -2 28 -4z m-162 -76 c-5 -30 -5 -49 2 -56 8 -8 5 -15
-9 -26 -19 -14 -18 -14 4 -15 15 0 22 -6 22 -20 0 -11 -4 -20 -10 -20 -5 0
-10 -4 -10 -10 0 -5 6 -10 14 -10 13 0 46 -56 46 -78 0 -5 14 -28 30 -50 17
-23 30 -46 30 -51 0 -5 7 -14 16 -22 9 -7 28 -38 44 -68 15 -31 64 -99 109
-151 45 -52 81 -97 81 -101 0 -4 -20 -19 -45 -32 -51 -29 -60 -22 -15 11 34
26 40 46 10 37 -14 -5 -20 -2 -20 9 0 9 -9 16 -21 16 -11 0 -17 5 -14 10 3 6
-4 14 -17 19 -35 14 -98 79 -119 125 -10 23 -37 66 -59 96 -22 30 -40 61 -40
68 0 7 -11 35 -25 62 -25 48 -32 130 -13 130 5 0 2 7 -6 16 -13 13 -15 30 -10
92 7 85 13 102 25 79 5 -8 5 -35 0 -60z m313 -63 c17 -11 52 -35 78 -52 34
-24 62 -34 107 -38 34 -4 61 -10 61 -13 0 -3 -14 -14 -30 -23 -26 -15 -30 -15
-30 -2 0 9 -6 14 -12 11 -7 -2 -23 0 -35 4 -29 11 -30 -5 -2 -25 20 -13 20
-15 3 -19 -11 -3 0 -3 24 -1 24 2 62 15 86 29 45 26 66 31 66 16 0 -5 -11 -12
-25 -15 -13 -3 -36 -17 -51 -31 -15 -14 -39 -25 -54 -25 -15 0 -47 -9 -71 -20
-52 -23 -136 -28 -106 -6 9 7 17 18 17 24 0 5 8 13 18 17 14 6 12 9 -13 21
-26 12 -27 13 -7 14 35 0 26 20 -10 21 l-33 2 35 7 c33 6 33 7 10 13 -14 3
-43 8 -64 11 -45 6 -74 26 -38 26 12 0 22 -4 22 -10 0 -5 21 -10 46 -10 28 0
43 4 39 10 -3 6 -18 8 -33 5 -26 -6 -26 -6 3 9 l30 14 -49 1 c-34 1 -53 6 -62
19 -8 10 -13 12 -14 5 0 -22 -20 -14 -32 12 -6 14 -15 25 -20 25 -10 0 -3 -32
14 -67 6 -13 9 -26 5 -29 -11 -12 -26 7 -33 43 -5 28 -1 47 17 82 39 76 38 76
77 18 19 -28 49 -61 66 -73z m1699 99 c-3 -19 5 -42 26 -73 35 -51 37 -60 16
-60 -8 0 -15 5 -15 11 0 7 -11 22 -24 34 -13 12 -25 28 -28 36 -3 10 -13 6
-36 -18 -58 -57 -59 -86 -5 -144 21 -22 25 -42 37 -160 7 -74 10 -143 6 -153
-6 -17 -9 -17 -33 10 -32 34 -34 67 -7 101 11 14 20 38 20 54 0 28 -29 89 -42
89 -4 0 -31 14 -58 31 l-51 31 -25 -23 c-13 -12 -24 -18 -24 -12 0 5 11 20 25
33 14 13 23 30 20 38 -4 12 179 202 195 202 4 0 5 -12 3 -27z m-2563 -10 c0
-22 -2 -25 -10 -13 -13 20 -13 40 0 40 6 0 10 -12 10 -27z m713 20 c-7 -2 -21
-2 -30 0 -10 3 -4 5 12 5 17 0 24 -2 18 -5z m263 -40 c-11 -11 -19 6 -11 24 8
17 8 17 12 0 3 -10 2 -21 -1 -24z m579 27 c3 -5 1 -10 -4 -10 -6 0 -11 5 -11
10 0 6 2 10 4 10 3 0 8 -4 11 -10z m595 -21 c-7 -11 -14 -18 -17 -15 -8 8 5
36 17 36 7 0 7 -6 0 -21z m80 7 c0 -7 -9 -16 -20 -19 -23 -6 -26 3 -8 21 16
16 28 15 28 -2z m-2090 -5 c0 -16 -22 -24 -29 -12 -8 13 -41 4 -53 -13 -10
-15 -22 0 -15 19 7 17 97 22 97 6z m503 -8 c-7 -2 -19 -2 -25 0 -7 3 -2 5 12
5 14 0 19 -2 13 -5z m22 -23 c-3 -5 -13 -10 -21 -10 -8 0 -12 5 -9 10 3 6 13
10 21 10 8 0 12 -4 9 -10z m-825 -55 l-8 -40 -1 50 c-1 29 3 45 8 40 5 -6 6
-28 1 -50z m1106 26 c-17 -18 -17 -19 2 -25 10 -4 27 -3 37 0 13 5 16 4 11 -5
-5 -7 0 -18 10 -27 18 -13 17 -14 -11 -7 -36 8 -100 56 -83 62 7 2 19 10 27
18 20 21 27 6 7 -16z m1134 9 c0 -5 -4 -10 -9 -10 -6 0 -13 5 -16 10 -3 6 1
10 9 10 9 0 16 -4 16 -10z m-1411 -4 c-2 -2 -17 -6 -34 -10 -22 -5 -26 -4 -15
4 14 9 59 15 49 6z m-557 -63 l-10 -38 -1 50 c-1 36 2 46 10 38 8 -8 8 -22 1
-50z m2063 47 c3 -5 1 -10 -4 -10 -6 0 -11 5 -11 10 0 6 2 10 4 10 3 0 8 -4
11 -10z m-1525 -15 c-33 -19 -50 -18 -26 0 11 8 27 15 35 15 10 -1 7 -6 -9
-15z m1885 5 c4 -6 10 -8 15 -5 18 11 20 -15 4 -40 -20 -30 -12 -44 12 -21 23
24 29 13 8 -19 -17 -25 -17 -25 -35 -6 -10 10 -24 22 -31 25 -10 5 -10 7 0 12
17 8 15 27 -3 20 -16 -6 -19 3 -9 28 7 18 30 21 39 6z m-830 -20 c3 -5 1 -10
-4 -10 -6 0 -11 5 -11 10 0 6 2 10 4 10 3 0 8 -4 11 -10z m-1809 -37 c-3 -21
-6 -51 -7 -68 -1 -20 -5 -11 -10 25 -10 58 -7 80 12 80 8 0 10 -12 5 -37z
m113 -8 c1 -5 -6 -2 -15 7 -10 9 -13 21 -8 29 5 9 9 8 15 -7 4 -10 8 -23 8
-29z m245 30 c10 -7 16 -18 15 -24 -2 -5 -17 1 -34 15 -32 25 -14 34 19 9z
m396 -30 c-14 -7 -27 -11 -30 -9 -6 7 22 24 40 23 9 0 5 -6 -10 -14z m1070 11
c0 -2 -7 -6 -15 -10 -8 -3 -15 -1 -15 4 0 6 7 10 15 10 8 0 15 -2 15 -4z
m-1467 -20 c18 -14 22 -26 10 -26 -5 0 -19 9 -33 20 -16 13 -20 20 -10 19 8 0
23 -6 33 -13z m-187 -44 c-11 -10 -15 4 -8 28 l7 25 3 -23 c2 -13 1 -26 -2
-30z m64 -59 c20 5 22 0 46 -96 4 -17 16 -32 30 -37 18 -7 24 -17 24 -38 0
-37 -9 -45 -27 -26 -12 11 -18 12 -29 3 -17 -14 -29 10 -22 46 6 30 -6 32 -25
5 -19 -28 -27 -15 -27 43 0 41 -3 48 -16 43 -9 -3 -20 -6 -24 -6 -5 0 -21 -12
-36 -27 -17 -19 -28 -24 -31 -15 -3 6 -18 12 -34 12 -37 0 -50 -27 -23 -47 16
-12 17 -15 4 -23 -22 -14 -26 -13 -44 15 -19 29 -40 24 -61 -14 -14 -25 -14
-25 -15 28 l0 53 26 -17 c15 -10 33 -14 42 -9 14 5 13 8 -8 13 -14 4 -27 16
-29 26 -3 17 -1 18 14 5 14 -12 18 -12 27 1 7 11 11 11 15 2 8 -22 23 -14 23
12 0 30 16 33 23 5 3 -11 12 -20 20 -20 12 0 13 7 6 41 -6 23 -8 43 -7 44 2 1
20 5 41 8 37 6 37 6 37 -29 0 -51 24 -38 28 14 2 23 7 42 13 42 5 0 10 10 11
23 1 12 3 -2 5 -32 4 -47 6 -52 23 -48z m-186 39 c-4 -17 -10 -29 -15 -26 -11
6 -12 58 -2 68 13 13 23 -11 17 -42z m76 38 c0 -5 -4 -10 -10 -10 -5 0 -10 5
-10 10 0 6 5 10 10 10 6 0 10 -4 10 -10z m230 -15 c16 -19 0 -19 -26 0 -16 12
-16 14 -3 15 9 0 22 -7 29 -15z m440 6 c0 -13 -37 -24 -52 -15 -8 5 -6 10 8
15 27 11 44 11 44 0z m145 -49 c-6 -7 -65 19 -65 28 0 4 16 0 35 -8 19 -9 32
-18 30 -20z m-599 14 c10 -8 17 -17 14 -20 -10 -10 -50 6 -50 20 0 18 11 18
36 0z m458 -7 c-31 -12 -40 -9 -20 6 10 8 24 11 29 8 6 -4 2 -10 -9 -14z
m1686 -39 c-16 -30 -31 -25 -24 8 10 40 16 46 26 28 5 -10 5 -23 -2 -36z
m-2108 8 c-8 -8 -9 -4 -5 13 4 13 8 18 11 10 2 -7 -1 -18 -6 -23z m477 8 c10
-12 8 -19 -8 -35 -22 -22 -51 -28 -51 -11 0 5 15 16 33 24 36 16 13 21 -27 6
-20 -7 -26 -6 -26 4 0 27 60 35 79 12z m-249 -22 c0 -8 -7 -14 -15 -14 -15 0
-21 21 -9 33 10 9 24 -2 24 -19z m992 14 c-7 -7 -12 -38 -12 -69 0 -59 -5 -67
-86 -158 -2 -2 -4 3 -4 12 0 8 7 23 16 32 24 23 8 32 -18 9 -23 -20 -17 -3 10
29 14 16 13 17 -29 12 -24 -3 -50 -13 -56 -22 -21 -27 -15 -9 18 57 21 43 35
60 45 56 9 -4 18 3 24 19 5 14 12 25 15 25 6 0 1 -23 -12 -57 -11 -28 15 -11
27 17 7 17 15 29 17 26 3 -2 0 -14 -7 -25 -6 -12 -8 -26 -4 -33 9 -14 33 29
34 60 0 14 6 22 17 22 13 0 14 -3 5 -12z m808 2 c0 -13 -28 -25 -38 -16 -3 4
0 11 8 16 20 13 30 12 30 0z m140 -11 c0 -15 5 -19 15 -15 10 4 15 -1 15 -14
0 -11 7 -20 15 -20 24 0 18 -23 -13 -50 -30 -27 -78 -30 -68 -4 3 8 2 14 -3
14 -21 0 -21 51 1 80 26 35 38 38 38 9z m-2210 -5 c0 -8 -4 -12 -10 -9 -5 3
-10 10 -10 16 0 5 5 9 10 9 6 0 10 -7 10 -16z m1864 8 c2 -4 -4 -13 -15 -20
-15 -10 -19 -10 -19 1 0 24 23 36 34 19z m600 -41 c-2 -24 2 -31 17 -31 24 0
24 -8 0 -40 -16 -20 -21 -22 -35 -11 -13 11 -16 11 -16 0 0 -8 -8 -4 -20 9
-21 23 -26 42 -10 42 5 0 16 16 25 36 18 43 41 40 39 -5z m-1609 -22 l-16 -34
7 35 c7 41 16 59 21 44 2 -6 -3 -26 -12 -45z m77 -27 c-10 -28 -21 -49 -24
-46 -6 5 16 86 28 106 16 26 13 -10 -4 -60z m-942 34 c0 -14 -4 -28 -10 -31
-5 -3 -10 0 -10 9 0 8 -3 21 -6 30 -4 11 -1 16 10 16 10 0 16 -9 16 -24z m290
14 c0 -5 -12 -10 -26 -10 -14 0 -23 4 -19 10 3 6 15 10 26 10 10 0 19 -4 19
-10z m613 -35 c-18 -55 -26 -58 -17 -7 8 43 12 52 24 52 5 0 2 -20 -7 -45z
m-353 24 c0 -7 9 -9 23 -6 12 4 29 2 37 -3 11 -7 7 -10 -18 -10 -36 0 -35 -19
1 -21 12 -1 4 -5 -18 -9 -44 -9 -55 -6 -55 15 0 7 -8 16 -17 19 -15 6 -15 8
-3 16 21 13 50 12 50 -1z m1303 -1 c-13 -22 -14 -48 -1 -48 6 0 3 -7 -8 -16
-13 -11 -15 -17 -6 -20 6 -3 12 -10 12 -15 0 -6 -4 -8 -9 -4 -6 3 -16 -2 -23
-11 -7 -10 -30 -35 -52 -56 -21 -22 -35 -42 -32 -45 4 -4 19 8 34 26 19 23 32
30 45 26 25 -10 21 -25 -5 -22 -17 1 -22 -3 -20 -17 2 -11 -1 -15 -7 -11 -6 3
-14 -2 -18 -11 -4 -10 -2 -19 5 -22 7 -2 17 -13 23 -25 11 -21 10 -21 -14 2
-25 23 -27 23 -34 5 -3 -10 -11 -22 -16 -25 -5 -4 -2 -20 8 -39 9 -17 14 -34
11 -37 -2 -3 -12 10 -21 28 l-17 32 -19 -24 c-21 -27 -24 -45 -9 -54 6 -3 10
-11 10 -18 0 -6 -7 -1 -16 11 -19 27 -38 29 -29 2 7 -21 -10 -28 -18 -7 -3 8
-7 6 -12 -6 -5 -11 -1 -24 9 -36 9 -10 16 -31 15 -47 -1 -29 -1 -29 -11 5 -5
19 -17 41 -26 48 -20 15 -36 17 -28 4 4 -5 3 -17 0 -26 -6 -14 -8 -14 -24 0
-9 8 -20 12 -23 8 -15 -14 -6 -33 23 -48 17 -9 30 -22 30 -30 0 -19 -74 31
-91 62 -17 32 -2 52 145 191 68 65 156 177 177 227 13 30 30 55 37 55 8 0 10
-5 5 -12z m272 -17 c-3 -6 -11 -11 -17 -11 -6 0 -6 6 2 15 14 17 26 13 15 -4z
m-1825 -10 c0 -10 8 -22 17 -25 31 -12 -14 -32 -64 -27 -22 2 -14 17 15 28
l27 11 -27 1 c-45 2 -32 28 15 30 10 1 17 -6 17 -18z m-444 -27 c-3 -9 -6 -22
-6 -30 0 -19 -19 -18 -26 1 -9 22 3 45 22 45 11 0 14 -5 10 -16z m1193 -28
c-5 -6 -9 -23 -9 -39 0 -16 -4 -26 -10 -22 -10 6 -9 16 6 83 6 24 7 25 14 7 4
-11 4 -24 -1 -29z m-1294 24 c3 -5 -1 -10 -10 -10 -9 0 -13 5 -10 10 3 6 8 10
10 10 2 0 7 -4 10 -10z m895 -19 c0 -9 -90 -22 -103 -14 -4 2 -5 9 -2 14 8 11
105 12 105 0z m1440 -36 c-9 -10 -7 -15 9 -20 21 -6 19 -27 -6 -56 -27 -31
-89 -4 -93 41 -4 45 -1 51 23 45 16 -4 29 0 42 15 17 18 20 19 28 5 5 -10 4
-21 -3 -30z m69 31 c6 -7 24 -16 40 -19 25 -5 29 -10 29 -42 0 -27 -6 -40 -29
-56 -16 -11 -29 -25 -29 -31 0 -6 -6 -19 -14 -27 -8 -9 -17 -28 -21 -43 -6
-22 -1 -32 21 -53 28 -26 26 -47 -3 -29 -21 13 -41 68 -42 112 -1 18 8 52 19
74 24 50 25 62 4 83 -16 15 -13 45 4 45 5 0 15 -6 21 -14z m-1823 -21 c-25
-19 -86 -20 -86 -2 0 9 17 14 53 15 48 2 51 1 33 -13z m1404 5 c0 -5 -7 -7
-15 -4 -8 4 -15 8 -15 10 0 2 7 4 15 4 8 0 15 -4 15 -10z m-2070 -25 c15 -28
9 -41 -15 -32 -15 7 -22 57 -7 57 5 0 15 -11 22 -25z m1020 6 c0 -12 -104 -26
-119 -16 -26 16 -6 25 54 25 36 0 65 -4 65 -9z m-905 -11 c-3 -5 -12 -10 -20
-10 -8 0 -17 5 -20 10 -4 6 5 10 20 10 15 0 24 -4 20 -10z m135 -21 c0 -12
-27 -11 -35 1 -11 17 5 32 21 19 8 -6 14 -15 14 -20z m447 17 c-4 -9 3 -16 16
-20 34 -9 8 -25 -45 -28 -49 -3 -69 15 -22 19 46 3 39 13 -9 13 -59 0 -62 18
-4 23 23 2 48 4 56 5 7 1 11 -4 8 -12z m-249 -15 c19 -11 -5 -29 -40 -29 -32
1 -33 3 -15 23 14 16 36 19 55 6z m578 -6 c-31 -17 -106 -20 -106 -6 0 6 24
12 53 14 28 2 59 4 67 5 8 1 2 -5 -14 -13z m-948 -13 c2 -7 -3 -12 -12 -12 -9
0 -16 7 -16 16 0 17 22 14 28 -4z m2781 -128 c-10 -13 -15 -12 -34 6 -12 11
-27 20 -33 20 -16 0 -27 49 -13 63 8 8 11 7 11 -6 0 -9 5 -17 10 -17 6 0 10 5
10 10 0 6 6 10 14 10 8 0 20 15 27 33 13 32 14 31 17 -36 2 -43 -1 -74 -9 -83z
m-2710 110 c-10 -12 -14 -12 -20 -2 -4 7 -3 16 4 20 18 11 29 -2 16 -18z m187
-12 c-23 -23 -33 -6 -10 19 12 13 20 16 22 9 3 -7 -3 -19 -12 -28z m-325 5
c-13 -13 -26 -3 -16 12 3 6 11 8 17 5 6 -4 6 -10 -1 -17z m1463 2 c23 -5 29
-34 11 -49 -9 -7 -16 -6 -25 5 -7 8 -19 15 -27 15 -10 0 -13 6 -9 16 3 9 6 20
6 26 0 7 4 7 13 0 6 -5 21 -11 31 -13z m741 11 c3 -5 -1 -10 -9 -10 -9 0 -16
5 -16 10 0 6 4 10 9 10 6 0 13 -4 16 -10z m89 -6 c9 -8 16 -20 16 -25 0 -5 6
-9 14 -9 29 0 61 -45 73 -102 11 -54 36 -88 93 -128 4 -3 10 -18 14 -33 4 -16
16 -31 29 -36 41 -16 87 -62 87 -87 0 -31 -21 -22 -40 18 -8 18 -20 34 -27 36
-14 4 -53 -68 -53 -98 0 -11 -7 -20 -15 -20 -21 0 -34 -31 -27 -65 5 -29 5
-29 -19 -14 -33 22 -39 78 -9 86 27 7 57 62 40 73 -8 5 -9 13 -2 26 22 42 -4
129 -43 144 -14 5 -25 13 -25 18 0 12 -70 32 -116 32 -22 1 -52 7 -69 16 l-30
14 43 -5 c43 -5 51 1 30 24 -11 11 -10 13 4 8 9 -3 19 0 22 9 4 10 -3 14 -25
14 -18 0 -28 4 -24 10 3 6 17 10 30 10 13 0 27 5 30 10 4 6 -5 10 -19 10 -31
0 -34 16 -6 25 29 9 24 25 -10 32 -16 3 -30 9 -30 14 0 15 48 10 64 -7z
m-1543 -10 c10 -13 10 -19 0 -36 -7 -11 -8 -17 -3 -14 5 3 15 -1 22 -8 9 -12
7 -17 -9 -25 -33 -18 -54 -14 -48 9 3 11 1 20 -5 20 -6 0 -8 9 -5 20 5 18 1
19 -42 13 -57 -7 -48 6 16 23 62 16 58 17 74 -2z m303 9 c16 -10 -20 -23 -66
-23 -44 0 -57 7 -42 23 8 7 95 7 108 0z m316 -3 c0 -5 -5 -10 -11 -10 -5 0 -7
5 -4 10 3 6 8 10 11 10 2 0 4 -4 4 -10z m-917 -47 c-8 -20 -20 -15 -26 9 -7
27 15 45 24 20 3 -9 4 -23 2 -29z m717 43 c0 -3 -4 -8 -10 -11 -5 -3 -10 -1
-10 4 0 6 5 11 10 11 6 0 10 -2 10 -4z m-1080 -35 c0 -18 -18 -41 -32 -41 -12
0 -9 45 4 58 14 14 28 6 28 -17z m148 12 c2 -9 -8 -13 -32 -13 -26 0 -36 4
-36 16 0 19 61 16 68 -3z m150 1 c28 -19 22 -31 -17 -32 -36 -1 -48 13 -31 33
16 19 20 19 48 -1z m2215 -4 c9 -11 17 -26 17 -33 0 -6 -5 -4 -11 6 -5 9 -17
17 -24 17 -8 0 -15 7 -15 15 0 21 12 19 33 -5z m-61 -35 c-2 -25 2 -35 12 -35
8 0 16 6 19 13 2 6 8 9 12 5 4 -4 1 -21 -6 -37 -14 -31 -50 -43 -64 -21 -4 6
-11 8 -16 5 -17 -11 -22 26 -5 44 9 10 16 24 16 32 0 17 21 41 29 33 3 -2 4
-20 3 -39z m-1465 23 c-6 -4 -22 -8 -34 -8 -12 0 -24 -4 -28 -9 -3 -6 18 -8
55 -5 64 4 83 -9 27 -20 -41 -8 -93 2 -108 20 -9 11 -7 14 10 14 12 0 20 3 18
8 -3 4 12 7 34 7 22 1 33 -2 26 -7z m-847 -32 c0 -14 -45 -38 -53 -29 -3 3 1
16 9 29 16 23 44 23 44 0z m1990 14 c0 -5 -11 -10 -25 -10 -14 0 -25 5 -25 10
0 6 11 10 25 10 14 0 25 -4 25 -10z m-2228 -45 c-6 -14 -16 -25 -22 -25 -13 0
-13 26 1 52 17 31 36 7 21 -27z m336 28 c2 -8 -6 -13 -22 -13 -25 0 -33 10
-19 24 10 10 36 3 41 -11z m72 -3 c0 -5 -4 -10 -10 -10 -5 0 -10 5 -10 10 0 6
5 10 10 10 6 0 10 -4 10 -10z m248 -7 c12 -3 22 -9 22 -14 0 -5 -7 -6 -15 -3
-21 8 -18 -16 5 -46 30 -38 26 -60 -10 -60 -25 0 -30 4 -30 25 0 16 -6 25 -15
25 -18 0 -20 21 -3 38 16 16 -5 32 -44 32 -16 0 -28 5 -28 11 0 11 56 7 118
-8z m-518 -2 c0 -17 -12 -41 -21 -41 -5 0 -9 11 -9 25 0 16 6 25 15 25 8 0 15
-4 15 -9z m310 -11 c0 -11 -4 -20 -10 -20 -5 0 -10 9 -10 20 0 11 5 20 10 20
6 0 10 -9 10 -20z m770 10 c0 -5 -7 -10 -15 -10 -8 0 -15 5 -15 10 0 6 7 10
15 10 8 0 15 -4 15 -10z m-62 -12 c-6 -16 -66 -22 -98 -9 -21 8 -18 9 23 9 26
0 51 2 54 6 11 11 25 6 21 -6z m-322 -6 c26 -8 84 -52 84 -63 0 -5 -7 -6 -15
-3 -9 4 -36 1 -61 -5 -58 -15 -67 -8 -20 14 20 10 36 21 36 26 0 12 -1 12 -55
-12 -25 -11 -49 -18 -53 -15 -7 8 28 35 46 36 6 0 12 4 12 9 0 6 -12 6 -32 0
-47 -13 -58 -10 -23 6 33 15 49 16 81 7z m-586 -11 c0 -12 -20 -25 -27 -18 -7
7 6 27 18 27 5 0 9 -4 9 -9z m98 -3 c16 -16 15 -43 0 -55 -18 -14 -62 0 -66
20 -7 37 39 62 66 35z m-278 -8 c0 -5 -4 -10 -9 -10 -6 0 -13 5 -16 10 -3 6 1
10 9 10 9 0 16 -4 16 -10z m1120 5 c0 -2 -14 -12 -30 -20 -21 -11 -36 -13 -47
-6 -14 7 -8 11 28 19 24 5 45 10 47 11 1 1 2 -1 2 -4z m1437 -94 l-1 -89 -34
12 c-44 15 -68 64 -46 94 8 12 24 22 37 24 12 2 26 13 32 26 5 12 10 22 11 22
1 0 1 -40 1 -89z m-2527 72 c-1 -5 -7 -19 -15 -33 -10 -18 -14 -20 -15 -8 0
23 11 48 21 48 5 0 9 -3 9 -7z m300 -13 c0 -11 -4 -20 -9 -20 -5 0 -7 9 -4 20
3 11 7 20 9 20 2 0 4 -9 4 -20z m141 10 c20 -11 27 -40 9 -40 -5 0 -10 5 -10
10 0 6 -9 10 -20 10 -20 0 -26 11 -13 23 8 9 11 9 34 -3z m1612 -38 c-7 -2
-13 -9 -13 -17 0 -16 -28 -40 -37 -31 -4 3 4 18 18 32 17 19 20 28 11 31 -10
4 -10 8 -1 19 10 12 14 11 23 -8 9 -18 9 -24 -1 -26z m-2129 22 c3 -9 6 -25 6
-37 -1 -22 -1 -22 -20 2 -11 13 -20 29 -20 37 0 19 26 18 34 -2z m1151 6 c-3
-5 -12 -10 -18 -10 -7 0 -6 4 3 10 19 12 23 12 15 0z m1695 -47 c0 -32 3 -76
7 -97 8 -50 -12 -41 -21 9 -4 21 -17 41 -31 51 -28 18 -45 12 -38 -15 7 -26
-29 -46 -56 -32 -16 9 -20 5 -31 -35 -9 -33 -10 -51 -2 -67 22 -46 24 -78 5
-92 -10 -7 -20 -12 -24 -10 -3 3 -5 53 -4 112 3 153 12 166 145 221 46 19 50
16 50 -45z m-2730 27 c0 -11 -4 -20 -10 -20 -5 0 -10 9 -10 20 0 11 5 20 10
20 6 0 10 -9 10 -20z m55 -11 c0 -15 -7 -25 -17 -27 -13 -3 -18 3 -18 21 0 13
3 27 7 31 13 12 28 -1 28 -25z m1030 21 c-3 -5 -16 -10 -28 -10 -18 0 -19 2
-7 10 20 13 43 13 35 0z m435 -15 c0 -14 -6 -25 -14 -25 -7 0 -26 -18 -41 -40
-32 -46 -40 -51 -23 -15 9 19 9 28 0 37 -8 8 -14 4 -22 -17 -9 -25 -50 -84
-50 -73 0 3 7 19 16 37 16 32 12 67 -6 56 -5 -3 -10 -17 -10 -31 0 -27 -64
-104 -87 -104 -9 0 1 17 26 46 23 26 41 53 41 60 0 8 0 17 0 22 0 12 -25 8
-26 -5 -1 -7 -2 -19 -3 -27 -1 -16 -68 -86 -82 -86 -6 0 -18 8 -28 18 -19 17
-18 17 5 35 21 15 24 16 24 2 0 -8 -4 -15 -10 -15 -5 0 -10 -4 -10 -10 0 -20
19 -9 48 28 38 48 49 82 28 82 -9 0 -16 -8 -16 -18 0 -24 -26 -59 -36 -49 -4
4 -2 13 4 19 15 15 16 58 2 58 -5 0 -10 -9 -10 -21 0 -27 -16 -55 -35 -63 -13
-5 -13 -2 1 19 10 15 14 37 12 56 -6 40 4 43 93 29 146 -23 146 -23 175 -1 33
26 34 26 34 -4z m-1686 -8 c24 -17 17 -51 -11 -55 -22 -3 -33 17 -25 51 5 20
12 21 36 4z m272 -15 c-8 -9 -19 -13 -22 -9 -10 9 16 38 28 31 6 -4 4 -13 -6
-22z m240 -26 c-7 -29 -36 -35 -56 -11 -15 18 -4 52 18 58 27 6 46 -18 38 -47z
m684 34 c8 -5 11 -10 5 -10 -5 0 -17 5 -25 10 -8 5 -10 10 -5 10 6 0 17 -5 25
-10z m115 -2 c30 -13 34 -28 5 -21 -11 3 -20 10 -20 15 0 5 -4 7 -9 3 -5 -3
-12 -1 -16 5 -8 13 8 13 40 -2z m-175 -30 c0 -4 -8 -12 -18 -17 -16 -9 -19 -6
-19 19 0 25 2 27 19 17 10 -7 18 -15 18 -19z m1116 7 c-3 -9 -11 -13 -16 -10
-8 5 -7 11 1 21 14 18 24 11 15 -11z m-1896 5 c0 -5 -4 -10 -9 -10 -6 0 -13 5
-16 10 -3 6 1 10 9 10 9 0 16 -4 16 -10z m1990 0 c0 -5 -4 -10 -10 -10 -5 0
-10 5 -10 10 0 6 5 10 10 10 6 0 10 -4 10 -10z m-2242 -24 c3 -12 -1 -17 -10
-14 -7 3 -15 13 -16 22 -3 12 1 17 10 14 7 -3 15 -13 16 -22z m302 -7 c0 -17
-4 -28 -10 -24 -5 3 -10 17 -10 31 0 13 5 24 10 24 6 0 10 -14 10 -31z m282
14 c12 -10 17 -28 17 -52 -2 -29 -3 -31 -6 -9 -2 14 -15 34 -29 43 -14 9 -22
20 -19 25 9 14 16 12 37 -7z m378 3 c-8 -8 -26 -17 -40 -21 l-25 -8 25 21 c29
25 65 32 40 8z m-892 -24 c3 -21 2 -22 -17 -10 -25 16 -28 41 -3 36 9 -2 18
-14 20 -26z m407 10 c-3 -3 -11 0 -18 7 -9 10 -8 11 6 5 10 -3 15 -9 12 -12z
m301 -9 c-10 -10 -19 5 -10 18 6 11 8 11 12 0 2 -7 1 -15 -2 -18z m286 -5 c-9
-9 -12 -7 -12 12 0 19 3 21 12 12 9 -9 9 -15 0 -24z m-942 -1 c0 -26 -9 -39
-20 -32 -10 6 0 55 11 55 5 0 9 -10 9 -23z m97 9 c-6 -17 -34 -29 -52 -22 -13
5 -15 9 -6 20 13 15 63 17 58 2z m2083 -1 c0 -25 -22 -42 -47 -37 -32 6 -30
-27 2 -51 22 -15 25 -16 25 -2 0 8 -4 15 -10 15 -5 0 -10 4 -10 8 0 4 9 8 19
8 11 0 19 -7 19 -16 -1 -8 1 -22 3 -30 2 -8 -2 -14 -8 -12 -7 1 -13 -4 -13
-10 0 -9 -4 -8 -10 2 -8 12 -10 11 -10 -8 0 -13 11 -34 25 -48 18 -18 25 -36
25 -63 0 -55 41 -96 113 -115 127 -33 147 -66 148 -244 1 -115 17 -233 45
-342 8 -30 14 -82 14 -115 0 -69 10 -86 60 -106 35 -13 69 -45 69 -64 0 -5 -8
0 -19 13 -16 19 -25 22 -53 17 -31 -6 -37 -3 -82 47 -60 66 -70 90 -85 203 -6
49 -16 93 -22 96 -28 17 -50 267 -28 309 20 38 -8 28 -29 -10 -12 -22 -25 -40
-29 -41 -4 0 -26 -2 -49 -5 -23 -3 -44 0 -48 6 -3 5 -13 10 -21 10 -13 0 -12
-3 2 -17 13 -14 32 -17 76 -16 l58 2 0 -44 c0 -25 -13 -85 -28 -133 l-29 -89
28 -54 c15 -30 28 -70 29 -89 0 -19 7 -67 15 -105 13 -58 14 -120 9 -355 -7
-273 -6 -287 13 -325 30 -58 49 -137 63 -248 11 -91 38 -178 60 -192 5 -3 17
-22 27 -42 15 -33 15 -37 0 -48 -13 -9 -14 -15 -4 -26 7 -7 3 -6 -9 4 -28 23
-37 21 -24 -4 10 -18 9 -20 -6 -17 -11 2 -23 23 -34 56 -10 29 -25 61 -34 71
-10 11 -16 35 -16 62 0 33 -11 66 -41 124 -23 44 -50 97 -61 118 -11 22 -20
66 -23 105 -2 37 -1 55 1 41 3 -15 14 -35 25 -45 17 -15 19 -16 19 -1 0 10 -4
17 -10 17 -5 0 -10 8 -10 19 0 10 -10 33 -23 52 -23 33 -89 205 -102 264 -33
153 -10 281 72 398 18 26 33 50 33 54 0 12 -51 -41 -78 -83 -15 -22 -33 -39
-40 -36 -6 2 -12 -3 -12 -11 0 -7 -9 -22 -20 -32 -12 -11 -21 -32 -21 -54 -2
-34 -2 -34 -6 -6 -6 36 -22 58 -38 51 -6 -2 -29 22 -51 54 -21 32 -42 56 -47
53 -9 -5 7 -36 50 -92 24 -32 33 -54 33 -82 0 -41 18 -66 55 -75 18 -5 24 -14
28 -47 4 -42 -8 -297 -18 -373 -4 -30 -1 -46 13 -65 35 -45 42 -88 42 -254 0
-126 3 -165 15 -181 8 -10 15 -29 15 -41 0 -20 -5 -23 -40 -23 -41 0 -162 -49
-176 -71 -8 -14 -1 -12 91 20 33 11 72 23 88 26 41 8 69 40 61 70 -5 20 -2 25
23 31 15 4 40 15 55 25 34 25 68 25 68 0 0 -10 8 -29 19 -42 10 -13 30 -44 44
-69 19 -34 36 -49 71 -64 25 -10 52 -16 61 -12 26 9 18 77 -15 141 -17 32 -28
60 -25 63 3 3 5 0 5 -6 0 -7 9 -12 20 -12 11 0 20 -4 20 -10 0 -5 23 -16 52
-25 76 -22 88 -37 88 -109 l0 -61 -72 0 c-40 0 -385 -4 -767 -8 -693 -8 -693
-8 -708 12 -8 12 -20 21 -27 21 -7 0 -27 7 -44 15 -33 17 -89 28 -245 50 -54
7 -101 16 -104 19 -12 12 28 17 57 8 16 -6 69 -14 117 -17 119 -9 225 -32 302
-66 75 -34 128 -37 164 -9 19 15 40 20 91 20 48 0 78 6 107 21 36 18 51 20
128 14 l87 -7 34 36 c37 39 70 49 140 44 l45 -3 -31 -17 c-17 -9 -43 -33 -57
-52 -25 -31 -26 -36 -11 -50 8 -9 25 -16 37 -16 13 0 17 3 11 8 -6 4 -16 17
-22 28 -9 18 -8 25 11 40 19 17 20 17 8 1 -20 -26 -1 -43 30 -27 21 12 21 14
6 25 -19 14 -22 25 -6 25 6 0 31 15 56 32 l45 33 -5 75 c-3 41 -16 111 -28
155 -12 44 -26 112 -31 150 -5 39 -16 104 -23 145 -8 41 -24 125 -35 185 -11
61 -27 144 -36 185 -19 86 -22 284 -5 395 6 39 11 127 11 197 0 139 4 158 30
158 25 0 50 10 50 21 0 5 -20 9 -44 9 -25 0 -47 4 -50 9 -4 5 4 7 15 4 16 -5
20 -2 17 8 -3 8 -11 13 -18 11 -9 -2 -11 5 -6 25 17 75 18 93 7 93 -6 0 -13
-12 -16 -27 -4 -16 -12 -45 -20 -65 -9 -27 -10 -47 -3 -75 5 -21 11 -96 13
-167 4 -114 2 -135 -17 -178 -11 -27 -26 -52 -32 -56 -7 -4 -29 -28 -50 -54
-28 -35 -46 -48 -65 -48 -14 -1 -43 -7 -63 -14 -31 -11 -38 -11 -38 -1 0 8 16
19 35 25 37 12 55 38 95 141 11 28 34 71 50 94 28 41 30 50 39 201 15 236 44
307 139 333 52 15 79 14 86 -4 10 -28 21 -15 22 27 0 34 6 46 34 70 39 32 37
35 -8 12 -42 -20 -96 -15 -100 10 -4 17 0 18 32 13 20 -3 36 -2 36 4 0 5 -7 9
-15 9 -8 0 -15 6 -15 14 0 7 -9 16 -19 19 -16 4 -19 11 -14 46 5 37 3 43 -16
48 -23 6 -28 25 -8 41 20 16 87 26 87 13 0 -8 15 -11 43 -9 33 2 42 7 41 21
-1 9 2 17 7 17 5 0 9 -7 9 -15z m-1852 -23 c3 -17 -2 -22 -17 -22 -22 0 -25 8
-15 35 9 22 28 14 32 -13z m708 8 c39 -15 22 -23 -31 -16 -28 5 -45 12 -45 21
0 15 28 13 76 -5z m-300 -6 c-3 -9 -6 -20 -6 -25 0 -5 -7 -9 -15 -9 -9 0 -20
-11 -26 -24 -17 -37 -44 -40 -43 -4 1 33 12 48 23 29 6 -9 14 -5 32 18 26 32
45 41 35 15z m1114 -5 c0 -5 -4 -9 -10 -9 -5 0 -10 7 -10 16 0 8 5 12 10 9 6
-3 10 -10 10 -16z m380 11 c0 -5 -4 -10 -10 -10 -5 0 -10 5 -10 10 0 6 5 10
10 10 6 0 10 -4 10 -10z m-1780 -51 c0 -34 3 -39 23 -39 44 0 80 -68 58 -109
-7 -12 -28 -30 -49 -40 -39 -20 -72 -65 -72 -99 0 -29 -21 -38 -37 -17 -20 29
-17 82 7 95 11 6 20 15 20 20 0 6 -16 0 -35 -12 -34 -22 -35 -24 -29 -73 8
-62 16 -72 68 -85 64 -17 92 -30 114 -53 24 -26 98 -173 137 -273 27 -69 30
-72 99 -114 39 -24 92 -60 117 -81 25 -20 61 -44 80 -52 19 -7 41 -22 49 -32
14 -16 13 -17 -5 -12 -11 3 -33 9 -50 13 -29 6 -29 6 -10 -9 11 -9 26 -17 33
-17 8 0 22 -10 33 -22 10 -14 18 -18 19 -10 0 7 4 11 9 8 5 -4 16 -3 25 0 12
5 7 14 -22 44 -20 20 -44 40 -52 43 -8 3 8 6 36 6 27 1 59 8 70 16 27 20 28
19 42 -18 12 -34 44 -70 80 -91 11 -6 35 -20 53 -31 56 -32 150 -25 241 19 86
41 112 72 134 156 13 53 13 64 1 89 l-14 28 65 6 c36 4 75 13 88 22 13 8 25
11 28 7 3 -4 -12 -44 -33 -88 -20 -43 -43 -95 -51 -114 -18 -46 -57 -98 -79
-105 -28 -9 -74 -85 -61 -101 8 -8 8 -24 2 -47 -14 -49 5 -72 53 -63 45 9 70
36 106 111 15 33 48 83 73 110 l45 50 1 -125 c0 -96 7 -160 29 -275 16 -82 34
-185 40 -229 6 -43 13 -82 16 -87 3 -4 8 -44 11 -89 5 -72 4 -80 -12 -80 -33
0 -139 23 -171 36 -17 8 -35 14 -40 14 -4 0 -46 23 -91 50 -92 55 -207 153
-252 213 -48 65 -143 167 -156 167 -7 0 -22 16 -34 35 -30 49 -92 95 -127 95
-44 0 -67 -28 -135 -168 -58 -116 -72 -136 -172 -242 -129 -136 -132 -138
-189 -146 l-44 -6 -5 38 c-5 38 0 84 21 194 78 405 79 498 14 703 -8 27 -13
50 -11 52 2 2 22 -13 45 -34 35 -33 132 -81 164 -81 5 0 17 -4 27 -10 9 -5 29
-14 45 -20 15 -5 33 -22 39 -37 40 -92 89 -131 147 -118 43 9 54 34 30 65 -15
21 -21 22 -28 11 -8 -12 -12 -13 -26 -1 -13 11 -18 10 -29 -5 -12 -17 -14 -17
-28 3 -8 12 -17 19 -21 16 -3 -3 -13 11 -22 30 -20 42 -59 76 -87 76 -28 0
-159 59 -186 84 -28 25 -80 100 -93 133 -5 15 -3 37 6 64 17 47 14 66 -15 99
-23 27 -27 13 -5 -16 19 -25 19 -64 -1 -92 -20 -29 -13 -103 22 -212 42 -133
52 -199 49 -320 -3 -106 -33 -293 -67 -415 -6 -22 -12 -116 -13 -210 -1 -145
-5 -179 -23 -233 -50 -146 -46 -211 15 -227 47 -11 57 -25 34 -46 -25 -24 -28
-24 -76 1 -22 11 -46 20 -55 20 -14 0 -15 29 -12 258 2 141 3 294 2 339 0 46
6 146 15 223 8 76 15 161 15 187 0 32 8 62 24 89 20 36 21 41 6 37 -10 -3 -23
-17 -30 -31 l-12 -26 -17 22 c-9 12 -29 29 -45 37 -33 17 -36 18 -36 6 0 -5
10 -11 23 -15 41 -10 61 -61 62 -156 0 -166 -43 -495 -81 -618 -13 -40 -28
-121 -35 -180 -12 -117 -14 -122 -34 -122 -8 0 -33 -20 -56 -45 -23 -25 -47
-45 -53 -45 -6 0 -3 7 7 14 20 16 23 30 4 23 -7 -3 -19 4 -26 15 -14 22 -9 30
59 95 33 32 35 37 33 95 -1 33 -7 81 -13 107 -13 56 0 159 26 198 21 32 19 45
-43 340 -17 85 -27 112 -38 101 -3 -3 3 -41 13 -84 20 -80 36 -171 47 -257 4
-32 1 -64 -10 -97 -16 -49 -18 -50 -56 -50 -39 0 -39 0 -39 40 0 31 -6 47 -27
68 -28 27 -28 27 -28 168 0 89 4 146 11 155 13 16 34 107 34 148 0 15 -12 50
-26 77 -21 39 -25 58 -21 99 5 49 77 274 88 275 12 0 29 -53 29 -94 0 -23 -9
-78 -19 -122 -26 -108 -33 -194 -19 -254 6 -27 14 -50 18 -50 4 0 5 44 2 98
-3 77 0 115 16 177 32 129 34 154 15 225 -21 75 -19 110 5 108 40 -3 62 4 91
28 17 14 31 31 31 37 0 6 -13 -2 -29 -17 -36 -35 -100 -46 -121 -21 -8 9 -14
34 -15 55 0 21 -3 36 -7 33 -12 -7 -9 -78 3 -90 8 -8 1 -36 -25 -102 -20 -50
-36 -97 -36 -106 0 -22 -38 -115 -60 -145 -11 -15 -35 -56 -53 -91 -18 -34
-42 -68 -53 -73 -10 -6 -25 -19 -32 -28 -21 -28 -34 -21 -16 7 9 14 14 28 11
31 -8 8 -47 -14 -79 -44 -16 -14 -28 -23 -28 -19 0 14 37 50 76 73 47 28 56
42 89 149 13 44 36 112 50 150 18 51 25 91 25 146 0 95 18 233 35 265 6 13 23
33 37 44 19 14 24 26 21 45 -3 14 -1 25 5 25 6 0 8 -10 5 -21 -5 -20 -4 -20
18 -9 29 16 49 35 49 48 0 5 7 23 15 38 l15 29 1 -25 c0 -24 1 -24 10 -5 7 14
7 30 0 48 -14 35 -31 35 -31 -1 0 -16 -7 -37 -15 -48 -18 -23 -18 -19 -4 45
13 61 35 84 47 50 l9 -24 8 24 c5 18 3 28 -10 37 -15 11 -16 16 -5 29 8 9 10
29 7 50 -5 29 -3 35 11 33 9 -2 18 5 20 15 5 24 -23 22 -49 -5 -18 -20 -20
-20 -10 -3 29 53 48 65 98 63 43 -1 44 -2 10 -5 -20 -2 -35 -8 -32 -13 3 -5
12 -7 20 -3 8 3 23 2 33 -2 20 -9 28 -11 62 -16 22 -4 25 -1 22 24 -4 33 13
58 34 50 9 -3 14 -20 14 -44z m458 21 c16 -26 6 -47 -29 -59 -18 -6 -35 -23
-46 -46 -16 -34 -19 -35 -67 -34 -28 1 -61 -1 -74 -5 -12 -4 -22 -3 -22 2 0 5
10 12 22 16 18 4 20 8 10 18 -18 18 -47 -3 -48 -34 0 -29 -29 -74 -38 -59 -4
6 -2 18 3 28 5 10 12 31 16 46 6 30 42 51 62 35 8 -6 17 3 31 34 22 51 41 68
85 77 46 10 81 2 95 -19z m1015 23 c-7 -2 -13 -13 -13 -24 0 -10 -4 -19 -10
-19 -11 0 -14 33 -3 43 3 4 13 7 22 6 10 0 12 -2 4 -6z m707 -17 c0 -14 -4
-28 -10 -31 -15 -10 -12 -35 5 -35 25 0 17 -24 -12 -37 -36 -17 -43 -16 -70 9
-23 21 -32 68 -13 68 6 0 10 -7 10 -15 0 -8 7 -15 15 -15 8 0 15 7 15 16 0 16
39 64 53 64 4 0 7 -11 7 -24z m-2704 3 c3 -6 -1 -18 -10 -27 -15 -15 -16 -14
-16 11 0 27 13 36 26 16z m229 1 c-3 -5 -17 -10 -31 -10 -13 0 -24 5 -24 10 0
6 14 10 31 10 17 0 28 -4 24 -10z m-95 -10 c0 -5 -4 -10 -10 -10 -5 0 -10 5
-10 10 0 6 5 10 10 10 6 0 10 -4 10 -10z m1667 -12 c-3 -8 -6 -5 -6 6 -1 11 2
17 5 13 3 -3 4 -12 1 -19z m483 12 c0 -5 -4 -10 -10 -10 -5 0 -10 5 -10 10 0
6 5 10 10 10 6 0 10 -4 10 -10z m-390 -28 c0 -15 -2 -15 -10 -2 -13 20 -13 33
0 25 6 -3 10 -14 10 -23z m412 -14 c-2 -21 -8 -38 -13 -38 -8 0 -5 30 7 69 8
24 11 7 6 -31z m-2027 12 c-10 -11 -22 -17 -28 -13 -6 4 -3 12 8 20 28 20 41
16 20 -7z m312 -12 c-3 -7 -5 -2 -5 12 0 14 2 19 5 13 2 -7 2 -19 0 -25z m595
6 c21 -15 41 -38 45 -52 5 -22 9 -24 46 -18 33 6 44 3 63 -15 13 -13 24 -31
24 -41 0 -10 2 -18 4 -18 2 0 11 -3 20 -6 11 -4 16 0 16 14 0 28 24 44 54 36
22 -5 26 -3 26 14 0 26 45 62 77 62 32 0 84 -23 104 -46 30 -35 31 -68 4 -94
-13 -13 -30 -39 -36 -59 -19 -58 -40 -79 -98 -96 -29 -9 -54 -15 -55 -13 -2 2
-10 21 -18 43 -22 55 -58 80 -115 78 -25 -1 -53 -9 -63 -18 -16 -15 -20 -14
-47 14 -31 31 -90 49 -120 36 -14 -6 -7 -10 26 -16 24 -5 55 -18 67 -30 22
-20 47 -76 43 -95 -3 -20 2 -26 15 -15 8 7 12 21 9 32 -4 13 3 29 17 44 31 33
88 34 118 2 26 -27 41 -87 22 -87 -7 0 -10 -7 -6 -16 4 -10 0 -18 -12 -21 -23
-6 -46 -57 -38 -88 3 -13 1 -36 -4 -51 -13 -33 10 -74 40 -74 26 0 25 7 -6 33
-24 21 -25 24 -10 36 14 11 16 11 16 -3 0 -9 2 -16 5 -16 9 0 45 40 45 49 0 5
7 14 15 21 8 7 15 16 15 21 0 5 -7 9 -15 9 -8 0 -15 -4 -15 -10 0 -5 -4 -10
-10 -10 -5 0 -10 7 -10 15 0 20 37 38 66 31 17 -5 24 -2 24 9 0 8 5 15 12 15
18 0 48 -31 48 -50 0 -22 9 -30 26 -23 10 4 13 15 8 38 -6 35 8 71 35 92 24
18 101 16 123 -3 14 -14 20 -14 33 -4 12 10 18 10 32 -1 51 -41 52 -43 42
-116 -4 -37 -8 -96 -9 -130 0 -49 -3 -63 -15 -63 -8 0 -19 -9 -25 -19 -12 -23
-60 -36 -115 -32 -44 3 -76 28 -121 93 -15 21 -38 41 -50 44 -13 4 -24 10 -24
16 0 5 -12 8 -27 6 -22 -2 -30 -11 -44 -50 -23 -65 -98 -134 -169 -156 -66
-21 -194 -22 -265 -3 -71 20 -112 46 -176 112 -60 62 -69 68 -69 44 0 -8 5
-15 10 -15 16 0 12 -17 -6 -24 -30 -12 -53 14 -84 96 -17 46 -43 101 -59 123
-24 37 -83 75 -133 88 -16 5 -18 11 -12 44 9 53 33 90 67 104 24 10 34 9 65
-7 56 -28 56 -28 49 -10 -4 10 -3 15 3 11 6 -3 10 -14 10 -24 0 -17 18 -41 31
-41 3 0 5 19 3 43 -3 48 0 56 37 79 40 26 107 15 140 -22 28 -33 39 -37 39
-15 0 8 7 15 15 15 24 0 18 -13 -29 -64 -47 -52 -61 -95 -46 -147 l9 -31 -39
7 c-35 6 -43 3 -70 -23 -25 -26 -30 -38 -30 -80 0 -32 5 -54 15 -62 19 -16 34
-5 17 12 -7 7 -12 31 -12 55 0 59 26 85 78 77 30 -4 39 -2 49 15 9 14 10 28 3
45 -18 49 25 134 80 154 14 5 41 8 60 6 19 -1 39 0 43 3 15 9 -16 23 -49 23
-17 0 -37 7 -44 15 -7 8 -27 15 -46 15 -32 0 -59 20 -36 28 7 2 12 12 12 21 0
24 36 55 55 47 10 -4 19 2 24 16 18 49 125 62 183 22z m744 -1 c-10 -10 -19 5
-10 18 6 11 8 11 12 0 2 -7 1 -15 -2 -18z m-1846 -9 c0 -30 -24 -64 -46 -64
-30 0 -49 50 -28 72 18 17 74 12 74 -8z m1367 6 c-3 -11 -1 -23 4 -26 5 -3 9
-11 9 -17 0 -7 -5 -4 -11 6 -5 9 -17 17 -25 17 -12 0 -12 4 -4 20 14 26 34 26
27 0z m360 -22 c-3 -8 -6 -5 -6 6 -1 11 2 17 5 13 3 -3 4 -12 1 -19z m42 -40
c-11 -21 -19 -44 -19 -52 0 -18 -20 -25 -53 -19 -30 6 -34 20 -12 49 14 18 14
18 15 -4 0 -17 5 -23 18 -20 13 2 16 11 14 36 -3 26 0 31 12 26 12 -5 16 0 16
20 0 22 2 25 14 14 12 -11 11 -19 -5 -50z m192 -12 c10 -17 19 -42 19 -56 0
-30 17 -50 42 -50 10 0 18 -7 18 -15 0 -16 -19 -26 -86 -44 -45 -12 -100 -60
-116 -101 l-9 -24 -24 31 c-23 28 -30 31 -107 37 -82 7 -83 8 -83 34 0 37 10
49 45 57 28 6 43 25 19 25 -5 0 -8 4 -4 9 3 6 20 2 39 -10 47 -27 66 -17 66
36 0 51 38 105 74 105 28 0 75 22 77 35 1 6 4 -1 6 -14 3 -13 13 -37 24 -55z
m-2161 54 c0 -5 -4 -10 -10 -10 -5 0 -10 5 -10 10 0 6 5 10 10 10 6 0 10 -4
10 -10z m1515 0 c3 -5 1 -10 -4 -10 -6 0 -11 5 -11 10 0 6 2 10 4 10 3 0 8 -4
11 -10z m-1188 -32 c-7 -18 -12 -60 -11 -92 2 -39 -1 -55 -7 -45 -6 10 -9 5
-9 -19 0 -20 6 -35 15 -38 11 -5 13 -10 5 -19 -11 -13 -3 -45 14 -57 6 -4 7
-11 2 -15 -5 -4 -11 -2 -13 5 -3 6 -11 12 -19 12 -10 0 -12 8 -8 29 3 16 1 31
-4 35 -15 9 -21 -4 -26 -55 -9 -74 -26 -119 -47 -119 -11 0 -1 49 14 68 6 7
12 28 13 45 4 47 10 79 22 107 6 14 18 57 28 95 16 63 29 95 40 95 3 0 -2 -15
-9 -32z m43 28 c0 -3 -4 -8 -10 -11 -5 -3 -10 -1 -10 4 0 6 5 11 10 11 6 0 10
-2 10 -4z m1100 -26 c0 -5 -4 -10 -10 -10 -5 0 -10 5 -10 10 0 6 5 10 10 10 6
0 10 -4 10 -10z m70 -5 c0 -8 -4 -15 -10 -15 -5 0 -10 7 -10 15 0 8 5 15 10
15 6 0 10 -7 10 -15z m652 -20 c3 -14 1 -25 -3 -25 -5 0 -9 11 -9 25 0 14 2
25 4 25 2 0 6 -11 8 -25z m193 15 c3 -5 1 -10 -4 -10 -6 0 -11 5 -11 10 0 6 2
10 4 10 3 0 8 -4 11 -10z m-2385 -21 c0 -11 -4 -17 -10 -14 -5 3 -10 13 -10
21 0 8 5 14 10 14 6 0 10 -9 10 -21z m2560 -14 c0 -24 5 -35 15 -35 23 0 18
-23 -14 -58 -34 -37 -51 -40 -75 -13 -22 24 -13 41 21 41 22 0 24 3 19 24 -7
28 8 76 24 76 5 0 10 -16 10 -35z m308 -87 c1 -88 -1 -118 -8 -106 -6 9 -17
15 -25 12 -8 -3 -26 8 -43 27 -31 35 -52 33 -52 -5 0 -13 -9 -33 -20 -46 -29
-33 -22 -98 12 -121 13 -9 -1 -57 -20 -64 -30 -11 -36 13 -34 132 2 91 5 121
17 129 8 6 15 16 15 21 0 11 137 143 148 143 4 0 8 -55 10 -122z m-2657 89
c-1 -4 -1 -14 -1 -22 0 -8 -7 -15 -15 -15 -15 0 -21 31 -8 44 8 8 25 3 24 -7z
m2209 -7 c0 -5 -8 -10 -17 -10 -15 0 -16 2 -3 10 19 12 20 12 20 0z m-2410
-42 c0 -27 -34 -19 -38 9 -3 17 1 20 17 16 12 -3 21 -14 21 -25z m180 -23 c0
-8 -4 -15 -10 -15 -5 0 -10 7 -10 15 0 8 5 15 10 15 6 0 10 -7 10 -15z m155
-41 c-24 -37 -29 -23 -8 21 12 26 19 32 21 21 2 -9 -4 -28 -13 -42z m2273 -6
c-5 -23 -11 -44 -14 -47 -6 -6 -5 50 2 76 11 41 22 14 12 -29z m-2608 28 c0
-3 -4 -8 -10 -11 -5 -3 -10 -1 -10 4 0 6 5 11 10 11 6 0 10 -2 10 -4z m1806
-25 c-23 -24 -28 -36 -23 -60 7 -35 -7 -41 -23 -10 -20 37 17 98 59 99 10 0 5
-11 -13 -29z m969 -104 c0 -31 4 -42 15 -42 8 0 16 10 18 23 2 12 8 22 14 22
6 0 8 -9 4 -22 -4 -13 -8 -34 -9 -47 -2 -24 -27 -44 -27 -21 0 6 -4 8 -10 5
-14 -9 -48 12 -55 35 -4 13 1 31 14 49 12 16 21 35 21 42 0 7 3 9 7 5 4 -4 7
-26 8 -49z m-1046 -42 c-20 -33 -23 -35 -39 -20 -9 8 -35 15 -58 15 -56 0 -62
17 -9 25 24 4 57 17 73 30 27 22 29 22 41 5 11 -16 10 -24 -8 -55z m-1519 44
c0 -11 -12 -36 -26 -55 -22 -28 -33 -34 -63 -34 -58 0 -86 -36 -85 -108 l2
-55 -19 24 c-21 27 -25 99 -8 132 20 36 52 56 91 57 49 0 68 9 68 29 0 21 9
31 27 31 7 0 13 -9 13 -21z m-110 -9 c0 -5 -4 -10 -10 -10 -5 0 -10 5 -10 10
0 6 5 10 10 10 6 0 10 -4 10 -10z m-170 -9 c0 -6 -4 -13 -10 -16 -5 -3 -10 1
-10 9 0 9 5 16 10 16 6 0 10 -4 10 -9z m2929 -128 c0 -71 -3 -122 -6 -115 -2
6 -11 12 -19 12 -10 0 -14 12 -14 39 0 22 -4 42 -8 45 -10 6 -72 -48 -72 -63
0 -6 -11 -16 -25 -21 -14 -5 -30 -22 -36 -36 -8 -23 -5 -33 16 -65 31 -47 32
-65 3 -72 -12 -4 -24 -5 -26 -3 -1 2 -4 43 -5 91 -2 78 0 89 18 99 10 6 38 30
62 54 23 23 47 42 52 42 13 0 54 68 47 79 -6 9 2 41 10 41 2 0 4 -57 3 -127z
m-2853 89 c-9 -9 -37 8 -31 18 5 8 11 7 21 -1 8 -6 12 -14 10 -17z m-56 -13
c0 -5 -4 -9 -10 -9 -5 0 -10 7 -10 16 0 8 5 12 10 9 6 -3 10 -10 10 -16z
m1637 -13 c-66 -24 -90 -62 -47 -73 25 -7 21 -27 -6 -31 -17 -2 -19 3 -19 39
1 49 30 79 79 79 l31 -1 -38 -13z m-1617 -36 c-8 -15 -15 -19 -22 -12 -6 6 -5
17 3 31 18 27 35 10 19 -19z m223 -44 c-3 -14 -9 -26 -14 -26 -11 0 -12 84 -2
94 11 10 22 -37 16 -68z m-55 -27 c0 -67 -2 -70 -22 -65 -11 3 -27 6 -35 6 -8
0 -11 3 -7 7 4 4 15 8 24 8 20 0 35 61 21 87 -12 23 -11 28 5 28 12 0 15 -15
14 -71z m2656 -36 c4 -9 2 -21 -4 -27 -18 -18 -11 -36 15 -36 48 0 21 -56 -31
-66 -25 -5 -36 -1 -53 17 -22 24 -28 54 -12 64 5 3 17 -5 26 -17 13 -20 17
-21 25 -8 6 8 8 25 5 37 -9 40 16 72 29 36z m-1168 -38 c4 -8 15 -15 25 -15
10 0 19 -7 19 -15 0 -8 7 -15 15 -15 32 0 41 -71 13 -106 -13 -17 -94 -27
-116 -15 -28 15 -35 56 -16 92 8 17 18 28 21 25 3 -3 -2 -17 -11 -30 -21 -34
-20 -43 8 -61 22 -15 27 -14 66 6 26 14 37 25 30 29 -6 4 -11 10 -11 14 3 21
-1 26 -20 26 -28 0 -49 23 -49 54 0 28 17 35 26 11z m-1496 -45 c0 -30 -4 -40
-16 -40 -12 0 -14 4 -7 13 5 6 8 24 7 40 -2 15 1 27 7 27 5 0 9 -18 9 -40z
m-98 -4 c6 -127 4 -153 -14 -190 -11 -21 -22 -62 -25 -90 -4 -43 -1 -57 21
-89 19 -28 26 -51 26 -87 0 -46 -2 -51 -32 -66 -18 -9 -45 -28 -60 -42 l-28
-26 0 155 c0 85 -3 218 -7 297 -5 124 -4 142 9 142 9 0 18 6 21 13 2 7 23 13
46 13 39 1 41 0 43 -30z m132 -58 c-4 -29 -7 -64 -7 -78 1 -15 -14 -43 -38
-71 -21 -26 -39 -52 -39 -58 0 -6 -4 -11 -9 -11 -6 0 -13 -21 -17 -46 l-7 -47
-18 24 c-37 48 -15 122 62 206 23 25 44 61 51 88 17 62 32 57 22 -7z m790 7
c9 -13 34 -35 55 -47 29 -17 40 -30 44 -53 2 -16 8 -38 12 -49 7 -16 3 -15
-31 6 -21 13 -55 32 -74 42 -38 20 -73 59 -84 93 -6 17 -2 22 16 26 42 8 46 7
62 -18z m686 0 c24 -14 24 -14 3 -15 -12 0 -23 -6 -26 -12 -3 -10 -7 -10 -17
-1 -13 12 -7 43 7 43 4 -1 19 -7 33 -15z m1218 -285 c-1 -146 -4 -249 -7 -230
-8 48 -60 120 -87 120 -29 0 -42 32 -53 130 -5 47 -14 98 -20 113 -15 38 -16
36 25 53 20 8 39 24 41 35 3 11 23 29 44 40 22 11 39 25 40 32 0 6 4 3 9 -8 5
-11 8 -139 8 -285z m-1095 256 c9 -7 17 -21 17 -31 0 -14 -3 -15 -15 -5 -21
18 -23 13 -15 -50 6 -53 7 -54 18 -27 7 16 12 36 12 45 0 15 2 15 10 2 28 -44
-49 -210 -97 -210 -8 0 -28 -7 -46 -16 -17 -9 -61 -18 -98 -20 -59 -3 -71 0
-111 25 -63 40 -108 91 -108 122 0 65 11 86 49 97 20 7 59 23 86 36 l49 25 32
-37 c31 -36 33 -37 66 -24 19 6 45 12 58 12 29 0 60 27 60 52 0 21 8 22 33 4z
m758 -142 c9 -59 9 -86 1 -100 -10 -16 -11 -14 -12 18 0 21 -9 61 -21 90 -18
47 -19 58 -8 93 19 60 24 64 26 20 2 -22 8 -76 14 -121z m-1427 61 c-4 -8 -8
-15 -10 -15 -2 0 -4 7 -4 15 0 8 4 15 10 15 5 0 7 -7 4 -15z m214 -10 c1 -1
-2 -14 -7 -28 -14 -36 -59 -58 -105 -50 -38 6 -50 23 -16 23 11 0 20 5 20 10
0 6 -8 10 -18 10 -21 0 -62 27 -62 41 0 8 177 2 188 -6z m602 -265 c0 -5 -4
-10 -10 -10 -5 0 -10 5 -10 10 0 6 5 10 10 10 6 0 10 -4 10 -10z m746 -63 c15
-28 48 -74 75 -101 42 -42 53 -49 88 -49 l41 0 0 -297 0 -298 -57 5 c-32 2
-75 11 -96 18 -22 7 -54 11 -73 8 -29 -5 -35 -2 -42 18 -5 13 -7 98 -4 187 l4
164 25 -5 c16 -3 27 1 34 14 5 10 13 18 17 17 13 -4 102 24 111 36 5 6 12 25
16 43 5 26 2 34 -14 45 -12 7 -21 18 -21 25 0 7 -8 13 -18 13 -9 0 -22 10 -27
22 -6 12 -18 26 -28 32 -14 9 -21 6 -37 -14 -11 -14 -20 -21 -20 -16 0 5 -8 2
-19 -8 -18 -16 -18 -14 -14 81 3 54 6 104 9 111 6 21 22 5 50 -51z m-787 42
c17 -6 31 -14 31 -19 0 -13 -40 -19 -40 -7 0 7 -10 1 -21 -13 -20 -24 -20 -24
-14 -2 4 12 2 22 -3 22 -5 0 -14 -10 -20 -22 -8 -18 -11 -19 -11 -5 -1 14 31
57 43 57 1 0 17 -5 35 -11z m422 -90 l-10 -24 0 26 c-1 14 2 29 6 33 12 12 14
-9 4 -35z m-2050 -28 c23 -76 -16 -185 -94 -265 -70 -72 -76 -81 -89 -118 -10
-28 -12 -30 -19 -12 -12 31 -10 83 5 112 8 15 33 45 56 67 75 72 103 123 108
193 2 34 8 62 13 62 4 0 13 -17 20 -39z m2017 -25 c12 0 22 -5 22 -11 0 -10
-17 -12 -52 -6 -5 0 -7 20 -7 44 l2 42 6 -35 c5 -28 10 -35 29 -34z m-2108 33
c0 -5 -7 -9 -15 -9 -15 0 -20 12 -9 23 8 8 24 -1 24 -14z m20 -39 c0 -27 -3
-30 -30 -30 -16 0 -30 5 -30 10 0 6 9 10 21 10 12 0 23 8 26 20 8 29 13 25 13
-10z m1137 -41 c15 -17 72 -75 126 -128 53 -53 97 -103 97 -111 0 -17 178
-190 196 -190 8 0 14 -4 14 -9 0 -5 13 -14 29 -21 16 -6 44 -23 62 -36 18 -13
54 -31 81 -40 26 -8 48 -20 48 -25 0 -6 4 -7 10 -4 8 5 65 -6 110 -23 8 -3 21
-4 28 -3 8 1 20 -3 27 -9 11 -9 12 -16 2 -31 -9 -14 -9 -21 1 -31 11 -11 12
-10 7 3 -4 10 -2 20 4 23 6 4 13 -9 17 -31 4 -21 11 -44 17 -51 7 -9 6 -21 -2
-38 -14 -32 -14 -32 7 -36 15 -3 15 -5 -4 -16 -12 -6 -40 -14 -63 -18 -37 -6
-41 -5 -35 12 5 18 5 18 -10 0 -16 -20 -16 -20 -31 0 -14 18 -15 18 -9 0 7
-17 3 -18 -47 -11 -61 8 -72 12 -64 26 4 5 2 9 -3 9 -6 0 -12 -7 -16 -15 -7
-18 -32 -19 -181 -5 -172 17 -259 30 -269 40 -6 6 -20 10 -32 10 -36 0 -54 11
-54 31 0 10 -4 19 -10 19 -5 0 -10 -9 -10 -19 0 -17 -10 -20 -67 -26 -38 -4
-83 -10 -100 -15 -18 -5 -42 -6 -54 -3 -16 4 -20 2 -17 -8 5 -15 -87 -53 -104
-43 -5 3 -15 -1 -21 -10 -17 -23 -215 -36 -228 -15 -7 11 -11 11 -21 -4 -10
-14 -21 -17 -40 -12 -29 7 -45 43 -22 52 8 3 14 12 14 20 0 8 -5 11 -11 8 -6
-4 -5 4 3 16 7 13 19 28 26 32 7 5 10 12 7 18 -4 5 -1 9 4 9 6 0 11 7 11 15 0
8 -6 15 -14 15 -11 0 -13 7 -7 28 4 15 6 47 3 71 -3 39 -2 43 15 36 27 -12 56
-8 69 10 6 8 15 15 21 15 5 0 48 40 96 89 53 54 94 88 105 86 9 -1 11 0 4 2
-16 6 -10 28 8 28 7 0 18 9 24 20 6 11 21 33 34 48 12 16 22 33 22 39 0 15 61
140 78 161 8 9 12 17 8 17 -16 0 28 49 47 53 12 2 25 5 29 6 4 0 19 -13 35
-30z m1381 -6 c-3 -24 0 -28 20 -26 13 2 22 -3 22 -11 0 -8 9 -18 20 -21 24
-8 27 -47 4 -69 -21 -22 -33 -20 -60 9 -24 26 -44 33 -44 15 0 -25 -20 -6 -29
28 -14 49 -14 55 4 48 22 -8 45 4 45 23 0 16 8 31 17 31 2 0 2 -12 1 -27z
m-2659 -168 c-11 -12 -21 -45 -25 -77 -6 -50 -3 -63 25 -121 26 -53 31 -75 28
-118 l-3 -53 -62 -14 c-37 -9 -66 -12 -70 -6 -4 5 -6 132 -4 282 l3 272 24 -6
c14 -3 31 -2 38 4 6 5 21 12 32 14 18 3 21 -4 26 -77 5 -69 3 -83 -12 -100z
m2581 48 c0 -18 -5 -24 -17 -21 -9 2 -16 6 -15 11 1 4 2 19 2 33 0 22 2 25 15
14 8 -7 15 -23 15 -37z m-2420 -112 c0 -6 -4 -13 -10 -16 -5 -3 -10 1 -10 9 0
9 5 16 10 16 6 0 10 -4 10 -9z m2143 -33 c3 -13 13 -52 22 -88 27 -108 38
-194 26 -198 -15 -5 -14 -32 2 -32 7 0 13 -15 14 -35 2 -26 -1 -35 -12 -35 -8
0 -15 2 -15 4 0 30 -24 114 -39 134 -26 37 -34 100 -26 198 7 81 17 99 28 52z
m-2155 -50 c-3 -34 -22 -48 -32 -23 -6 16 13 55 27 55 5 0 7 -14 5 -32z m16
-79 c7 -36 8 -79 2 -79 -2 0 -11 -3 -20 -6 -13 -5 -15 -1 -10 25 6 27 4 31
-17 32 -24 2 -24 2 -1 6 12 2 22 9 22 14 0 5 -10 9 -22 9 -22 1 -23 1 -4 15
30 23 43 18 50 -16z m60 -45 c9 -24 7 -64 -3 -64 -11 0 -21 25 -21 56 0 27 15
32 24 8z m-129 -34 c3 -6 -1 -7 -9 -4 -18 7 -21 14 -7 14 6 0 13 -4 16 -10z
m75 -39 c0 -11 -5 -21 -12 -23 -7 -3 -9 -12 -5 -22 4 -9 11 -14 17 -11 5 3 10
2 10 -3 0 -5 -11 -9 -25 -9 -15 0 -25 5 -25 14 0 8 -9 17 -20 20 -23 6 -27 23
-6 23 8 0 16 7 20 15 8 22 46 19 46 -4z m151 -54 c-7 -10 -8 -29 -2 -60 4 -26
5 -44 0 -41 -4 2 -13 -5 -19 -16 -7 -13 -7 -20 0 -20 5 0 10 5 10 10 0 6 5 10
10 10 6 0 10 -7 10 -15 0 -10 -11 -15 -32 -16 -18 -1 -25 -3 -15 -6 18 -5 24
-23 6 -23 -5 0 -7 -5 -3 -12 5 -8 13 -5 24 10 18 21 18 21 25 -24 3 -25 4 -48
1 -52 -8 -7 -81 52 -80 64 1 5 -6 14 -14 20 -19 14 -9 44 18 51 11 3 20 9 20
14 0 12 -14 11 -27 -2 -8 -8 -13 1 -18 33 -3 23 -9 51 -11 61 -5 15 -1 17 35
11 28 -4 41 -3 41 5 0 6 7 11 16 11 13 0 14 -3 5 -13z m-281 -52 c0 -33 -4
-45 -14 -45 -8 0 -17 -4 -20 -9 -3 -5 2 -8 11 -7 12 1 17 -7 18 -24 0 -24 -2
-25 -51 -22 -41 3 -53 0 -58 -13 -13 -36 21 -48 42 -15 7 11 17 20 23 20 5 0
7 -5 3 -12 -4 -6 -3 -8 2 -5 6 3 16 2 23 -2 9 -6 5 -14 -16 -31 -15 -12 -27
-25 -25 -28 1 -4 -10 -7 -25 -7 -18 -1 -28 -6 -28 -15 0 -8 -8 -15 -18 -15
-16 0 -19 10 -21 70 -2 39 -1 74 2 79 3 5 5 31 5 57 -1 48 0 49 36 54 20 4 43
8 51 10 54 11 60 7 60 -40z m2594 26 c3 -5 -4 -12 -17 -15 l-22 -6 25 -21 c14
-12 26 -25 26 -30 1 -5 2 -12 3 -15 0 -4 8 -1 16 6 23 19 27 7 10 -26 -20 -39
-19 -43 13 -41 20 2 27 -2 26 -15 -2 -25 12 -23 19 2 7 28 32 35 59 16 l22
-16 -32 0 c-20 0 -35 -6 -38 -15 -4 -8 -13 -15 -21 -15 -8 0 -11 -4 -8 -10 3
-6 -5 -10 -19 -10 -14 0 -30 8 -35 18 -6 9 -11 13 -11 9 0 -5 -13 1 -30 13
-28 20 -30 26 -30 85 0 35 -4 67 -10 70 -5 3 -10 10 -10 16 0 12 57 12 64 0z
m-2466 -73 c-31 -19 -47 5 -22 33 18 20 18 20 26 -2 6 -15 4 -25 -4 -31z
m2637 42 c4 -6 11 -8 16 -5 5 4 9 -1 9 -11 0 -13 -3 -14 -14 -5 -10 9 -16 9
-21 1 -4 -7 2 -14 14 -17 26 -7 27 -34 1 -50 -26 -17 -40 5 -15 24 20 14 16
16 -27 13 -16 -1 -28 4 -28 10 0 7 8 9 20 5 16 -5 20 -2 20 19 0 26 14 35 25
16z m-429 -62 c4 4 2 -1 -5 -10 -7 -10 -11 -29 -9 -43 3 -16 -1 -30 -13 -41
-10 -9 -15 -22 -12 -30 6 -16 -12 -19 -22 -5 -3 6 -2 29 1 53 6 33 9 38 15 23
5 -14 8 -7 8 24 1 35 4 41 14 32 8 -6 18 -7 23 -3z m-1876 -82 c-5 -5 -4 -16
3 -26 8 -14 8 -22 -2 -34 -18 -22 -44 -21 -38 2 3 9 8 40 12 67 9 66 18 78 26
35 4 -19 4 -39 -1 -44z m-343 47 c-4 -3 -2 -12 4 -19 7 -8 7 -14 -1 -19 -6 -3
-8 -10 -5 -15 3 -5 1 -11 -5 -15 -6 -4 -10 9 -10 34 0 25 5 41 12 41 6 0 8 -3
5 -7z m63 -53 c0 -5 -4 -10 -10 -10 -5 0 -10 5 -10 10 0 6 5 10 10 10 6 0 10
-4 10 -10z m1170 -10 c19 -10 158 -30 211 -30 22 0 38 -4 35 -8 -5 -9 -236 -6
-244 3 -3 3 -21 5 -40 5 -19 0 -52 5 -73 11 -31 10 -44 9 -73 -5 -19 -9 -49
-19 -68 -22 -18 -3 -49 -12 -68 -20 -49 -20 -202 -44 -269 -43 -48 1 -52 2
-26 9 17 5 73 13 126 18 74 8 116 19 182 47 46 20 106 40 133 45 52 9 149 3
174 -10z m1438 -5 c0 -22 -2 -23 -13 -9 -6 9 -18 14 -26 11 -10 -4 -9 -6 4 -6
22 -1 23 -21 1 -21 -16 0 -43 27 -44 43 0 4 17 7 39 7 34 0 39 -3 39 -25z
m-2576 -22 c10 -9 18 -21 18 -27 0 -6 -5 -5 -12 2 -7 7 -20 12 -30 12 -18 0
-24 11 -11 23 9 10 15 9 35 -10z m-95 -14 c-14 -8 -22 -8 -30 0 -8 8 -3 11 19
11 25 -1 27 -2 11 -11z m-23 -31 c13 -14 15 -23 8 -26 -20 -6 -13 -22 8 -22
11 0 28 9 37 19 12 15 21 17 40 10 13 -5 36 -9 51 -9 26 0 26 0 -15 -42 -43
-46 -57 -87 -42 -126 9 -24 9 -24 -28 -16 -46 11 -157 10 -195 -1 -17 -4 -28
-3 -28 3 0 5 14 12 30 16 17 3 29 11 28 18 -2 9 19 15 70 19 40 3 78 11 84 17
9 9 6 12 -13 12 -14 0 -30 5 -36 11 -5 5 -36 13 -67 16 -31 3 -59 10 -62 14
-3 5 2 9 10 9 8 0 20 9 26 19 5 11 22 21 37 23 24 2 28 7 26 31 -2 33 6 34 31
5z m1216 -3 c-3 -5 -34 -10 -70 -11 -75 -1 -173 -16 -213 -33 -16 -6 -58 -10
-95 -10 l-67 2 55 9 c30 5 75 16 100 25 25 8 61 18 80 23 49 11 216 8 210 -5z
m557 -1 c-16 -9 -36 -13 -45 -9 -23 9 0 22 41 23 l32 1 -28 -15z m471 4 c-5
-16 -58 -24 -58 -9 0 8 13 13 53 20 5 0 7 -5 5 -11z m-751 -4 c-3 -3 -12 -4
-19 -1 -8 3 -5 6 6 6 11 1 17 -2 13 -5z m188 -16 c7 -7 -5 -9 -40 -5 -29 3
-67 0 -90 -8 -50 -16 -237 -15 -242 2 -7 19 53 25 113 13 42 -9 67 -9 93 -1
73 22 145 21 166 -1z m335 12 c0 -5 -10 -10 -23 -10 -13 0 -27 -3 -31 -7 -3
-4 -37 -16 -74 -26 -50 -15 -100 -20 -199 -21 -73 -1 -133 2 -133 7 0 4 45 7
99 7 81 0 103 3 117 17 24 25 244 54 244 33z m678 -22 c3 -24 0 -28 -20 -27
-13 0 -17 3 -10 6 6 2 12 11 12 19 0 10 -12 14 -40 14 -22 0 -40 5 -40 11 0 6
19 9 48 7 43 -3 47 -5 50 -30z m-2180 -25 c3 -21 44 -37 59 -23 14 13 91 21
98 10 4 -6 -5 -10 -20 -10 -15 0 -24 -4 -20 -10 3 -5 24 -10 46 -10 21 0 39 5
39 10 0 15 82 12 162 -6 46 -10 95 -15 135 -11 59 4 95 -5 55 -15 -24 -6 -214
9 -260 21 -25 6 -55 6 -94 -2 l-57 -12 42 -16 c53 -20 151 -39 203 -39 49 0
144 -27 164 -46 12 -12 12 -14 -2 -14 -8 0 -31 6 -50 14 -34 14 -91 17 -285
13 -89 -2 -103 0 -103 14 0 9 -9 27 -20 41 -15 20 -16 28 -7 38 10 10 7 11
-14 6 -26 -6 -89 10 -89 22 0 4 -3 18 -7 31 -4 18 -2 23 8 19 8 -2 15 -14 17
-25z m-167 6 l-25 -10 22 -15 c25 -17 26 -63 2 -66 -8 -1 -28 -3 -45 -4 -16
-1 -41 -5 -54 -10 -20 -6 -22 -4 -15 9 5 9 25 26 44 39 19 13 36 34 38 46 3
17 10 22 30 21 l27 0 -24 -10z m-561 -8 c0 -12 -20 -25 -27 -18 -7 7 6 27 18
27 5 0 9 -4 9 -9z m1275 -11 c-3 -5 -34 -9 -68 -9 -50 1 -56 3 -32 9 46 12
107 12 100 0z m52 4 c-3 -3 -12 -4 -19 -1 -8 3 -5 6 6 6 11 1 17 -2 13 -5z
m444 -31 c153 -11 62 -22 -119 -15 -101 4 -143 9 -117 13 59 9 130 10 236 2z
m-1756 -23 c3 -5 1 -10 -4 -10 -6 0 -11 -4 -11 -10 0 -5 6 -8 13 -6 6 3 32 7
57 10 37 5 42 4 25 -6 -11 -6 -24 -17 -28 -25 -4 -7 -19 -13 -32 -13 -13 0
-28 -8 -34 -17 -8 -14 -12 -15 -25 -4 -19 16 -21 56 -3 76 14 17 33 19 42 5z
m1975 0 c0 -5 -6 -10 -12 -10 -7 0 -24 -3 -38 -6 l-25 -6 25 15 c30 18 50 21
50 7z m-455 -21 c30 0 35 -2 20 -8 -28 -11 -165 -1 -165 12 0 6 19 7 53 3 28
-3 70 -6 92 -7z m159 -4 c4 -12 -4 -15 -39 -15 -33 0 -45 4 -45 15 0 11 11 15
39 15 25 0 41 -5 45 -15z m-1136 -22 c-16 -2 -40 -2 -55 0 -16 2 -3 4 27 4 30
0 43 -2 28 -4z m129 -26 l42 -22 -187 -3 c-180 -2 -186 -2 -157 14 30 17 155
22 198 8 11 -3 17 0 17 10 0 23 37 19 87 -7z m830 13 c39 0 53 -4 50 -12 -7
-22 -137 -8 -137 14 0 5 7 7 16 4 9 -3 40 -6 71 -6z m-609 -47 c-10 -2 -18
-10 -18 -17 0 -10 -52 -14 -222 -19 -331 -8 -701 -4 -705 8 -5 15 137 19 587
16 160 -1 298 2 315 8 17 5 37 9 45 9 10 0 9 -2 -2 -5z m323 -7 c33 -14 33
-14 -38 -13 -40 1 -73 5 -73 8 0 23 62 26 111 5z m-138 -13 c-7 -2 -21 -2 -30
0 -10 3 -4 5 12 5 17 0 24 -2 18 -5z"/>
<g>
<path d="M1300 5070 c0 -5 4 -10 9 -10 5 0 16 -17 26 -37 9 -21 23 -50 30 -65
15 -31 11 -38 -22 -38 -14 0 -21 -4 -18 -10 4 -6 62 -10 143 -10 81 0 132 4
127 9 -6 5 -18 11 -29 13 -15 2 -18 13 -19 68 -1 60 1 65 21 68 12 2 22 8 22
13 0 5 -62 9 -145 9 -90 0 -145 -4 -145 -10z m140 -13 c0 -14 -33 -97 -39 -97
-9 0 -41 66 -41 85 0 11 12 15 40 15 22 0 40 -1 40 -3z m68 -64 c-3 -66 -4
-68 -31 -71 -53 -6 -58 1 -36 60 11 29 22 59 24 66 2 6 14 12 25 12 19 0 21
-5 18 -67z"/>
</g>
<g>
<path d="M1331 4609 c-1 -25 -28 -44 -43 -31 -19 15 -88 26 -88 14 0 -6 5 -12
12 -14 9 -3 8 -14 -4 -46 -20 -51 -13 -59 22 -24 21 21 25 31 18 45 -6 12 -5
17 6 17 8 0 18 -4 21 -10 9 -14 37 -12 58 4 13 11 15 19 8 37 -6 15 -10 18
-10 8z"/>
</g>
<g>
<path d="M1142 4433 c14 -34 28 -51 28 -36 0 22 -19 63 -30 63 -6 0 -5 -10 2
-27z"/>
</g>
<g>
<path d="M1107 4399 c-16 -9 -13 -39 4 -39 4 0 6 7 2 16 -5 13 -2 15 15 9 12
-3 22 -2 22 3 0 15 -24 21 -43 11z"/>
</g>
<g>
<path d="M1250 4344 c-19 -8 -45 -12 -57 -9 -13 3 -23 1 -23 -4 0 -16 49 -22
73 -9 12 7 28 13 36 14 16 3 61 -24 61 -37 0 -12 -37 -11 -45 1 -8 13 -52 13
-61 -1 -4 -6 -19 -9 -36 -5 -19 4 -27 2 -22 -5 4 -7 23 -8 50 -4 26 4 52 2 65
-5 16 -9 28 -9 45 -1 34 15 30 46 -8 65 -37 19 -34 19 -78 0z"/>
</g>
<g>
<path d="M1000 4280 c-54 -102 -70 -140 -60 -140 5 0 26 33 46 73 19 39 40 77
46 84 5 7 8 20 6 30 -3 12 -15 -3 -38 -47z"/>
</g>
<g>
<path d="M1902 4306 c-20 -22 -21 -24 -3 -19 10 3 21 13 24 24 6 24 7 24 -21
-5z"/>
</g>
<g>
<path d="M1380 4271 c-21 -7 -15 -9 33 -16 31 -4 57 -12 57 -18 0 -7 5 -6 13
2 10 10 8 15 -7 27 -21 15 -55 17 -96 5z"/>
</g>
<g>
<path d="M1553 4270 c-20 -8 -23 -17 -23 -62 0 -38 3 -49 10 -38 5 8 10 26 10
40 0 19 3 21 12 12 16 -16 63 -15 77 2 9 10 4 13 -26 12 -21 -1 -38 4 -40 12
-3 8 8 12 37 12 25 0 39 4 35 10 -8 12 -62 12 -92 0z"/>
</g>
<g>
<path d="M1856 4271 c-4 -7 -5 -15 -2 -18 9 -9 19 4 14 18 -4 11 -6 11 -12 0z"/>
</g>
<g>
<path d="M1880 4248 c-8 -13 -20 -36 -27 -51 -7 -16 -27 -42 -44 -58 -36 -33
-25 -39 15 -8 21 17 59 76 84 132 8 17 -14 5 -28 -15z"/>
</g>
<g>
<path d="M1370 4230 c0 -11 27 -20 63 -20 18 0 27 4 22 9 -14 12 -85 22 -85
11z"/>
</g>
<g>
<path d="M1079 4133 c-41 -106 -50 -135 -45 -141 10 -10 22 10 49 85 16 43 22
75 17 78 -6 4 -15 -6 -21 -22z"/>
</g>
<g>
<path d="M1480 4128 c0 -4 5 -10 10 -13 17 -10 11 -25 -9 -25 -11 0 -23 -4
-26 -10 -4 -6 5 -10 19 -10 15 0 25 -5 24 -12 -2 -7 7 -14 20 -16 26 -4 30 14
5 21 -10 3 -5 5 11 4 16 -1 31 4 33 11 3 7 -5 12 -21 12 -28 0 -35 17 -11 26
26 11 16 21 -20 20 -19 -1 -35 -4 -35 -8z"/>
</g>
<g>
<path d="M1712 4105 c-7 -8 -22 -15 -34 -15 -12 0 -18 -3 -15 -6 9 -10 98 17
91 27 -8 13 -27 10 -42 -6z"/>
</g>
<g>
<path d="M2796 3897 c3 -10 9 -15 12 -12 3 3 0 11 -7 18 -10 9 -11 8 -5 -6z"/>
</g>
<g>
<path d="M2820 3870 c0 -5 5 -10 11 -10 5 0 7 5 4 10 -3 6 -8 10 -11 10 -2 0
-4 -4 -4 -10z"/>
</g>
<g>
<path d="M2792 3815 c0 -16 2 -22 5 -12 2 9 2 23 0 30 -3 6 -5 -1 -5 -18z"/>
</g>
<g>
<path d="M1980 3790 c0 -5 4 -10 8 -10 4 0 8 -9 9 -20 1 -11 -2 -20 -8 -20 -5
0 -9 -4 -9 -10 0 -5 16 -10 35 -10 36 0 48 15 18 23 -15 4 -16 5 -2 6 17 1 32
35 21 45 -10 10 -72 6 -72 -4z"/>
</g>
<g>
<path d="M1980 3700 c0 -5 14 -10 30 -10 17 0 30 5 30 10 0 6 -13 10 -30 10
-16 0 -30 -4 -30 -10z"/>
</g>
<g>
<path d="M2000 3560 c0 -5 7 -10 15 -10 8 0 15 5 15 10 0 6 -7 10 -15 10 -8 0
-15 -4 -15 -10z"/>
</g>
<g>
<path d="M1990 3525 c0 -8 7 -15 15 -15 8 0 15 7 15 15 0 8 -7 15 -15 15 -8 0
-15 -7 -15 -15z"/>
</g>
<g>
<path d="M1725 3470 c-3 -5 1 -10 9 -10 9 0 16 5 16 10 0 6 -4 10 -9 10 -6 0
-13 -4 -16 -10z"/>
</g>
<g>
<path d="M1832 3199 c2 -7 10 -15 17 -17 8 -3 12 1 9 9 -2 7 -10 15 -17 17 -8
3 -12 -1 -9 -9z"/>
</g>
<g>
<path d="M1790 3182 c0 -5 11 -14 25 -20 14 -6 25 -16 25 -22 0 -6 -13 -1 -30
11 -24 18 -32 20 -45 9 -23 -19 -18 -31 10 -24 19 5 30 0 44 -17 l19 -23 7 34
c6 26 4 36 -11 47 -20 15 -44 17 -44 5z"/>
</g>
<g>
<path d="M583 3623 c9 -2 23 -2 30 0 6 3 -1 5 -18 5 -16 0 -22 -2 -12 -5z"/>
</g>
<g>
<path d="M608 3603 c7 -3 16 -2 19 1 4 3 -2 6 -13 5 -11 0 -14 -3 -6 -6z"/>
</g>
<g>
<path d="M605 3580 c3 -5 14 -10 23 -10 15 0 15 2 2 10 -20 13 -33 13 -25 0z"/>
</g>
<g>
<path d="M605 3530 c3 -5 12 -7 20 -3 21 7 19 13 -6 13 -11 0 -18 -4 -14 -10z"/>
</g>
<g>
<path d="M605 3480 c28 -12 37 -12 30 0 -3 6 -16 10 -28 9 -21 0 -21 -1 -2 -9z"/>
</g>
<g>
<path d="M600 3450 c20 -13 43 -13 35 0 -3 6 -16 10 -28 10 -18 0 -19 -2 -7
-10z"/>
</g>
<g>
<path d="M580 3390 c0 -5 10 -10 23 -10 18 0 19 2 7 10 -19 13 -30 13 -30 0z"/>
</g>
<g>
<path d="M570 3363 c0 -13 49 -32 56 -22 3 5 -7 14 -21 19 -32 12 -35 12 -35
3z"/>
</g>
<g>
<path d="M605 3140 c11 -5 29 -9 40 -9 17 -1 17 1 5 9 -8 5 -26 9 -40 9 -23 0
-23 -1 -5 -9z"/>
</g>
<g>
<path d="M1030 3566 c0 -9 7 -16 16 -16 9 0 14 5 12 12 -6 18 -28 21 -28 4z"/>
</g>
<g>
<path d="M2115 3061 c-15 -23 -31 -39 -34 -36 -4 2 -13 0 -21 -5 -12 -7 -12
-12 -3 -21 10 -10 20 -6 50 17 47 39 61 60 47 74 -8 8 -19 -1 -39 -29z"/>
</g>
<g>
<path d="M2340 2808 c1 -20 26 -48 42 -48 20 0 31 42 15 52 -19 12 -57 9 -57
-4z"/>
</g>
<g>
<path d="M2320 2660 c0 -5 4 -10 9 -10 6 0 13 5 16 10 3 6 -1 10 -9 10 -9 0
-16 -4 -16 -10z"/>
</g>
<g>
<path d="M2555 2310 c-3 -5 3 -10 14 -10 12 0 21 5 21 10 0 6 -6 10 -14 10 -8
0 -18 -4 -21 -10z"/>
</g>
<g>
<path d="M2343 1958 c2 -7 12 -13 22 -13 10 0 20 6 23 13 2 7 -6 12 -23 12
-17 0 -25 -5 -22 -12z"/>
</g>
<g>
<path d="M637 2773 c-3 -5 -2 -15 2 -22 5 -7 11 -9 14 -4 3 5 2 15 -2 22 -5 7
-11 9 -14 4z"/>
</g>
<g>
<path d="M573 2763 c-14 -5 -18 -43 -5 -43 11 0 33 38 24 43 -4 2 -13 2 -19 0z"/>
</g>
<g>
<path d="M783 2740 c10 -7 17 -23 17 -42 0 -25 3 -29 12 -20 17 17 -2 66 -27
70 -18 2 -19 2 -2 -8z"/>
</g>
<g>
<path d="M762 2705 c6 -13 15 -22 19 -19 11 7 1 31 -16 38 -11 4 -12 0 -3 -19z"/>
</g>
<g>
<path d="M653 2700 c3 -11 1 -20 -4 -20 -5 0 -9 -4 -9 -10 0 -5 9 -10 20 -10
20 0 25 15 14 44 -9 23 -27 20 -21 -4z"/>
</g>
<g>
<path d="M793 2215 c0 -8 4 -15 9 -15 4 0 8 7 8 15 0 8 -4 15 -8 15 -5 0 -9
-7 -9 -15z"/>
</g>
<g>
<path d="M480 2190 c0 -6 7 -10 15 -10 8 0 15 2 15 4 0 2 -7 6 -15 10 -8 3
-15 1 -15 -4z"/>
</g>
<g>
<path d="M710 2150 c8 -5 28 -10 44 -10 39 0 30 6 -19 13 -27 4 -35 3 -25 -3z"/>
</g>
<g>
<path d="M690 1880 c0 -11 7 -20 15 -20 8 0 15 9 15 20 0 11 -7 20 -15 20 -8
0 -15 -9 -15 -20z"/>
</g>
<g>
<path d="M1210 1819 c0 -5 5 -7 10 -4 6 3 10 8 10 11 0 2 -4 4 -10 4 -5 0 -10
-5 -10 -11z"/>
</g>
<g>
<path d="M1069 2809 c-28 -30 -43 -99 -19 -84 6 3 10 14 10 24 0 10 11 30 25
46 22 23 32 26 70 23 31 -2 45 1 45 9 0 9 -17 13 -51 13 -44 0 -55 -4 -80 -31z"/>
</g>
<g>
<path d="M1106 2784 c-9 -8 -16 -23 -16 -32 0 -13 5 -11 23 10 12 15 31 29 42
31 15 4 14 5 -7 6 -15 0 -34 -6 -42 -15z"/>
</g>
<g>
<path d="M1288 2799 c-15 -6 -30 -19 -33 -30 -4 -10 -15 -19 -25 -19 -10 0
-28 -9 -41 -20 -20 -16 -21 -19 -6 -20 9 0 17 5 17 10 0 6 11 10 24 10 23 0
31 5 65 45 15 19 86 12 112 -11 18 -16 39 -19 39 -5 0 15 -23 28 -72 40 -26 6
-48 11 -50 10 -2 0 -15 -5 -30 -10z"/>
</g>
<g>
<path d="M1290 2740 c-12 -12 -32 -25 -47 -31 -14 -5 -24 -12 -21 -14 7 -8 71
19 90 38 14 13 23 15 38 7 29 -16 48 -12 26 5 -28 21 -62 19 -86 -5z"/>
</g>
<g>
<path d="M1775 2753 c-40 -10 -37 -21 4 -16 31 4 46 1 61 -12 40 -36 15 -93
-35 -81 -14 4 -25 2 -25 -4 0 -9 36 -15 70 -10 21 2 40 29 40 56 0 25 -53 75
-78 73 -9 -1 -26 -3 -37 -6z"/>
</g>
<g>
<path d="M1319 2693 c-10 -12 -10 -15 -1 -9 44 26 109 16 122 -19 5 -14 14
-25 20 -25 17 0 11 29 -10 50 -26 26 -111 28 -131 3z"/>
</g>
<g>
<path d="M1493 2703 c-23 -9 -14 -24 11 -17 16 4 25 1 29 -10 8 -20 27 -21 27
-1 0 23 -39 40 -67 28z"/>
</g>
<g>
<path d="M1787 2704 c-7 -8 17 -34 32 -34 17 0 13 27 -5 34 -19 7 -19 7 -27 0z"/>
</g>
<g>
<path d="M1255 2670 c-3 -5 1 -10 9 -10 9 0 16 5 16 10 0 6 -4 10 -9 10 -6 0
-13 -4 -16 -10z"/>
</g>
<g>
<path d="M1650 2664 c0 -17 22 -14 28 4 2 7 -3 12 -12 12 -9 0 -16 -7 -16 -16z"/>
</g>
<g>
<path d="M1004 2652 c-16 -11 -32 -45 -27 -59 8 -22 23 -14 23 10 0 27 41 51
71 42 11 -4 19 -2 19 4 0 12 -69 15 -86 3z"/>
</g>
<g>
<path d="M1021 2583 c1 -35 1 -36 9 -11 4 14 11 31 15 37 3 6 -1 11 -9 11 -12
0 -16 -10 -15 -37z"/>
</g>
<g>
<path d="M772 2584 c-14 -9 -22 -25 -21 -42 l1 -27 14 32 c14 34 48 50 84 40
11 -3 18 -1 14 4 -9 15 -68 10 -92 -7z"/>
</g>
<g>
<path d="M1219 2568 c-16 -10 -37 -33 -46 -52 -13 -29 -14 -39 -3 -65 19 -46
32 -38 25 14 -7 40 -4 47 23 75 19 18 41 30 57 30 14 0 24 4 20 9 -8 14 -43 9
-76 -11z"/>
</g>
<g>
<path d="M1292 2558 c-53 -26 -47 -36 8 -14 50 20 69 20 95 0 17 -12 18 -16 5
-24 -10 -6 -20 -4 -32 7 -16 14 -22 14 -55 2 -20 -8 -38 -21 -41 -29 -4 -12
-2 -13 9 -2 18 17 85 15 114 -4 17 -11 25 -26 25 -45 0 -16 5 -29 10 -29 6 0
10 18 10 39 0 22 3 46 6 54 3 9 -6 26 -23 41 -34 32 -72 33 -131 4z"/>
</g>
<g>
<path d="M798 2558 c-18 -15 -31 -80 -14 -75 6 2 13 14 14 28 5 31 18 47 45
52 19 4 19 4 -4 6 -14 0 -32 -5 -41 -11z"/>
</g>
<g>
<path d="M1540 2537 c-24 -11 -23 -11 17 -15 31 -2 44 -8 48 -23 8 -23 21 -25
29 -4 7 19 -28 55 -51 54 -10 0 -29 -5 -43 -12z"/>
</g>
<g>
<path d="M841 2531 c-7 -5 -12 -13 -10 -18 2 -6 13 -2 23 8 20 19 12 26 -13
10z"/>
</g>
<g>
<path d="M1527 2479 c8 -8 16 -8 30 0 16 9 14 10 -11 11 -22 0 -27 -3 -19 -11z"/>
</g>
<g>
<path d="M1892 2447 c-14 -17 -26 -67 -16 -67 5 0 16 15 24 33 11 24 23 33 50
38 l35 6 -41 2 c-23 0 -46 -5 -52 -12z"/>
</g>
<g>
<path d="M1050 2351 c0 -10 67 -8 77 3 3 3 -12 6 -35 6 -23 0 -42 -4 -42 -9z"/>
</g>
<g>
<path d="M1020 2281 c0 -19 28 -37 39 -25 3 4 0 9 -6 11 -7 3 -13 11 -13 19 0
8 -4 14 -10 14 -5 0 -10 -9 -10 -19z"/>
</g>
<g>
<path d="M1145 2280 c-12 -19 46 -81 94 -103 50 -22 201 -31 207 -12 3 6 -25
10 -69 10 -95 0 -160 25 -197 77 -17 23 -31 34 -35 28z"/>
</g>
<g>
<path d="M1871 2233 c29 -36 65 -62 84 -62 19 0 19 1 1 12 -10 7 -32 24 -48
40 -32 30 -59 38 -37 10z"/>
</g>
<g>
<path d="M2064 2219 c-19 -22 -19 -22 4 -10 12 6 22 16 22 21 0 15 -5 12 -26
-11z"/>
</g>
<g>
<path d="M1089 2192 c61 -87 166 -134 291 -130 40 1 50 3 25 5 -74 6 -159 25
-196 44 -20 10 -55 39 -77 64 -44 50 -76 62 -43 17z"/>
</g>
<g>
<path d="M1581 2191 c-17 -31 -98 -62 -176 -68 -80 -6 -128 5 -188 44 -21 13
-43 23 -49 21 -18 -6 54 -46 122 -69 68 -22 137 -19 215 8 48 17 115 59 115
73 0 17 -29 11 -39 -9z"/>
</g>
<g>
<path d="M1870 2180 c23 -32 80 -55 120 -47 19 3 17 5 -10 6 -37 1 -76 22 -98
53 -7 10 -18 18 -23 18 -6 0 -1 -13 11 -30z"/>
</g>
<g>
<path d="M1980 2200 c0 -5 12 -10 28 -9 24 0 25 1 7 9 -27 12 -35 12 -35 0z"/>
</g>
<g>
<path d="M2063 2187 c-25 -11 -31 -27 -9 -27 14 0 42 28 35 34 -2 2 -14 -1
-26 -7z"/>
</g>
<g>
<path d="M1611 2163 c-26 -31 -107 -83 -133 -83 -10 0 -18 -5 -18 -10 0 -27
150 38 175 76 25 38 4 53 -24 17z"/>
</g>
<g>
<path d="M2153 2722 c-25 -23 -32 -38 -35 -73 -2 -37 -8 -46 -30 -57 -34 -16
-37 -32 -5 -25 42 11 68 44 65 84 -1 29 4 42 23 58 13 11 29 20 36 21 23 0 24
20 1 20 -13 0 -37 -13 -55 -28z"/>
</g>
<g>
<path d="M2200 2690 c-26 -24 -31 -35 -26 -56 6 -21 1 -33 -20 -55 -34 -35
-17 -39 20 -4 17 16 26 34 26 55 0 39 16 70 35 70 8 0 15 5 15 10 0 18 -17 11
-50 -20z"/>
</g>
<g>
<path d="M1977 2572 c-19 -21 -22 -42 -7 -42 6 0 10 9 10 20 0 13 7 20 20 20
11 0 20 5 20 10 0 16 -26 11 -43 -8z"/>
</g>
<g>
<path d="M2025 2550 c-3 -5 -2 -10 4 -10 5 0 13 5 16 10 3 6 2 10 -4 10 -5 0
-13 -4 -16 -10z"/>
</g>
<g>
<path d="M2100 2525 c-8 -9 -8 -15 -2 -15 12 0 26 19 19 26 -2 2 -10 -2 -17
-11z"/>
</g>
<g>
<path d="M2135 2510 c-10 -11 -14 -20 -8 -20 5 0 18 9 28 20 10 11 14 20 8 20
-5 0 -18 -9 -28 -20z"/>
</g>
<g>
<path d="M1833 2010 c0 -16 -8 -39 -18 -50 -21 -23 -17 -34 6 -17 18 14 41 75
33 88 -11 18 -21 8 -21 -21z"/>
</g>
<g>
<path d="M1480 1962 c0 -32 8 -48 43 -86 35 -39 50 -48 92 -54 90 -14 191 20
235 81 31 40 18 44 -16 5 -54 -61 -145 -84 -230 -59 -47 13 -103 78 -104 119
0 17 -4 32 -10 32 -5 0 -10 -17 -10 -38z"/>
</g>
<g>
<path d="M1520 1995 c0 -17 32 -64 61 -90 29 -25 42 -30 86 -30 29 0 58 6 64
12 10 10 2 11 -38 6 -49 -5 -54 -3 -97 32 -25 21 -46 46 -46 56 0 11 -7 19
-15 19 -8 0 -15 -2 -15 -5z"/>
</g>
<g>
<path d="M1295 1990 c-3 -5 1 -10 9 -10 9 0 16 5 16 10 0 6 -4 10 -9 10 -6 0
-13 -4 -16 -10z"/>
</g>
<g>
<path d="M2797 1293 c-4 -3 -7 -16 -7 -27 0 -15 -10 -25 -31 -33 -27 -11 -30
-15 -19 -28 7 -8 21 -15 31 -15 27 0 24 -18 -3 -22 -33 -4 -37 -38 -4 -38 14
0 28 -4 31 -10 3 -5 0 -10 -7 -10 -23 0 -68 -24 -68 -37 0 -19 20 -26 26 -9 3
9 17 16 31 16 14 0 22 -4 18 -10 -9 -15 5 -90 16 -90 5 0 9 14 9 31 0 22 5 32
20 36 23 6 27 23 5 23 -8 0 -15 5 -15 11 0 6 16 9 39 8 43 -3 73 14 64 37 -3
10 -22 14 -59 14 -67 0 -72 19 -6 22 47 1 47 1 7 5 -53 6 -64 18 -23 28 l33 9
-38 3 c-52 6 -36 23 21 24 l47 1 -50 12 -50 13 35 4 c23 3 36 10 38 22 3 14
-4 17 -41 17 -24 0 -47 -3 -50 -7z m63 -19 c0 -2 -9 -4 -21 -4 -11 0 -18 4
-14 10 5 8 35 3 35 -6z m0 -154 c0 -5 -9 -10 -21 -10 -11 0 -17 5 -14 10 3 6
13 10 21 10 8 0 14 -4 14 -10z"/>
</g>
<g>
<path d="M1386 1303 c-6 -14 -5 -15 5 -6 7 7 10 15 7 18 -3 3 -9 -2 -12 -12z"/>
</g>
<g>
<path d="M1495 1180 c-3 -5 -1 -10 4 -10 6 0 11 5 11 10 0 6 -2 10 -4 10 -3 0
-8 -4 -11 -10z"/>
</g>
<g>
<path d="M1274 1162 c5 -8 66 -4 66 4 0 2 -16 4 -36 4 -19 0 -33 -4 -30 -8z"/>
</g>
<g>
<path d="M995 1030 c-3 -5 -1 -10 4 -10 6 0 11 5 11 10 0 6 -2 10 -4 10 -3 0
-8 -4 -11 -10z"/>
</g>
<g>
<path d="M1027 1013 c-13 -12 -7 -33 8 -33 8 0 15 9 15 20 0 20 -11 26 -23 13z"/>
</g>
<g>
<path d="M1210 1001 c0 -10 26 -9 36 2 4 4 -2 7 -14 7 -12 0 -22 -4 -22 -9z"/>
</g>
<g>
<path d="M1117 964 c3 -8 11 -14 19 -14 21 0 17 17 -5 23 -14 3 -18 1 -14 -9z"/>
</g>
<g>
<path d="M970 960 c0 -5 7 -10 16 -10 8 0 12 5 9 10 -3 6 -10 10 -16 10 -5 0
-9 -4 -9 -10z"/>
</g>
<g>
<path d="M1365 940 c-3 -5 1 -10 10 -10 9 0 13 5 10 10 -3 6 -8 10 -10 10 -2
0 -7 -4 -10 -10z"/>
</g>
<g>
<path d="M1766 937 c3 -10 9 -15 12 -12 3 3 0 11 -7 18 -10 9 -11 8 -5 -6z"/>
</g>
<g>
<path d="M1916 938 c3 -5 10 -6 15 -3 13 9 11 12 -6 12 -8 0 -12 -4 -9 -9z"/>
</g>
<g>
<path d="M1230 924 c0 -8 5 -12 10 -9 6 3 10 10 10 16 0 5 -4 9 -10 9 -5 0
-10 -7 -10 -16z"/>
</g>
<g>
<path d="M898 923 c7 -3 16 -2 19 1 4 3 -2 6 -13 5 -11 0 -14 -3 -6 -6z"/>
</g>
<g>
<path d="M2187 893 c-6 -31 9 -46 33 -33 20 11 24 51 4 43 -8 -3 -14 0 -14 6
0 23 -18 10 -23 -16z"/>
</g>
<g>
<path d="M870 899 c0 -5 5 -7 10 -4 6 3 10 8 10 11 0 2 -4 4 -10 4 -5 0 -10
-5 -10 -11z"/>
</g>
<g>
<path d="M1461 894 c0 -11 3 -14 6 -6 3 7 2 16 -1 19 -3 4 -6 -2 -5 -13z"/>
</g>
<g>
<path d="M1335 880 c-3 -5 -1 -10 4 -10 6 0 11 5 11 10 0 6 -2 10 -4 10 -3 0
-8 -4 -11 -10z"/>
</g>
<g>
<path d="M1360 868 c0 -19 2 -20 10 -8 13 19 13 30 0 30 -5 0 -10 -10 -10 -22z"/>
</g>
<g>
<path d="M908 873 c12 -2 30 -2 40 0 9 3 -1 5 -23 4 -22 0 -30 -2 -17 -4z"/>
</g>
<g>
<path d="M1266 872 c-2 -4 -1 -14 3 -21 6 -9 11 -10 15 -2 4 6 2 11 -4 11 -6
0 -8 5 -5 10 3 6 4 10 1 10 -3 0 -7 -4 -10 -8z"/>
</g>
<g>
<path d="M2022 868 c-15 -15 -16 -38 -2 -38 6 0 10 7 10 15 0 8 7 15 16 15 8
0 12 5 9 10 -8 13 -18 13 -33 -2z"/>
</g>
<g>
<path d="M1540 824 c0 -19 4 -33 8 -30 12 7 13 66 1 66 -5 0 -9 -16 -9 -36z"/>
</g>
<g>
<path d="M2234 830 c2 -16 -1 -31 -6 -34 -4 -2 -3 -3 4 -2 16 3 24 66 9 66 -6
0 -9 -13 -7 -30z"/>
</g>
<g>
<path d="M961 818 c-1 -22 4 -28 19 -28 11 0 20 5 20 10 0 6 -6 10 -14 10 -8
0 -17 8 -19 18 -3 10 -5 6 -6 -10z"/>
</g>
<g>
<path d="M1410 830 c0 -5 4 -10 9 -10 6 0 13 5 16 10 3 6 -1 10 -9 10 -9 0
-16 -4 -16 -10z"/>
</g>
<g>
<path d="M2090 819 c0 -5 5 -7 10 -4 6 3 10 8 10 11 0 2 -4 4 -10 4 -5 0 -10
-5 -10 -11z"/>
</g>
<g>
<path d="M1115 800 c-3 -6 1 -7 9 -4 18 7 21 14 7 14 -6 0 -13 -4 -16 -10z"/>
</g>
<g>
<path d="M1043 788 c0 -7 -3 -30 -7 -50 -7 -39 7 -60 27 -38 9 10 9 11 -2 5
-11 -6 -12 2 -6 44 4 30 3 51 -2 51 -5 0 -10 -6 -10 -12z"/>
</g>
<g>
<path d="M1610 785 c-10 -12 -10 -15 4 -15 9 0 16 7 16 15 0 8 -2 15 -4 15 -2
0 -9 -7 -16 -15z"/>
</g>
<g>
<path d="M895 770 c-3 -5 -1 -10 4 -10 6 0 11 5 11 10 0 6 -2 10 -4 10 -3 0
-8 -4 -11 -10z"/>
</g>
<g>
<path d="M2253 760 c-1 -11 4 -20 12 -20 8 0 11 7 8 20 -3 11 -8 20 -12 20 -4
0 -7 -9 -8 -20z"/>
</g>
<g>
<path d="M1073 753 c11 -10 57 -13 57 -2 0 5 -14 9 -32 9 -17 0 -28 -3 -25 -7z"/>
</g>
<g>
<path d="M930 709 c0 -5 5 -7 10 -4 6 3 10 8 10 11 0 2 -4 4 -10 4 -5 0 -10
-5 -10 -11z"/>
</g>
<g>
<path d="M70 900 c-13 -9 -13 -10 0 -10 13 0 13 -1 0 -10 -12 -8 -11 -10 6
-10 18 0 34 17 34 36 0 7 -25 4 -40 -6z"/>
</g>
<g>
<path d="M2769 863 c-11 -3 -14 -12 -11 -34 7 -44 19 -44 24 1 2 22 3 39 3 39
0 -1 -7 -3 -16 -6z"/>
</g>
</g>
<g>
<path d="M2818 5173 c12 -2 32 -2 45 0 12 2 2 4 -23 4 -25 0 -35 -2 -22 -4z"/>
</g>
<g>
<path d="M2394 339 c-40 -11 -48 -32 -29 -69 10 -19 29 -33 57 -42 39 -13 43
-18 46 -51 2 -20 -1 -37 -7 -37 -5 0 -16 -3 -25 -6 -9 -3 -26 5 -42 21 -27 27
-37 25 -48 -11 -6 -20 -3 -22 34 -22 22 0 45 -4 51 -7 17 -11 70 16 79 41 5
12 5 35 1 50 -6 22 -16 30 -51 38 -46 12 -67 33 -57 60 9 22 67 22 67 0 0 -23
24 -11 28 14 2 16 -2 22 -15 22 -10 0 -27 2 -38 4 -11 3 -34 0 -51 -5z"/>
</g>
<g>
<path d="M1880 326 c0 -8 4 -17 8 -20 11 -7 2 -178 -9 -192 -7 -9 8 -12 55
-12 55 0 67 3 87 24 26 28 18 45 -9 21 -10 -10 -30 -17 -44 -17 -22 0 -26 5
-30 35 -5 43 6 65 20 40 13 -25 30 -11 24 20 -4 24 -22 36 -22 15 0 -5 -6 -10
-14 -10 -9 0 -14 14 -14 45 -1 43 0 45 27 45 20 0 30 -6 34 -20 3 -13 11 -18
20 -14 11 4 14 12 8 27 -7 19 -17 22 -75 25 -53 2 -66 0 -66 -12z"/>
</g>
<g>
<path d="M2125 331 c-22 -3 -35 -9 -29 -13 7 -5 11 -44 10 -108 l-1 -100 33 0
c17 0 32 5 32 10 0 6 -4 10 -10 10 -5 0 -10 23 -10 51 0 43 3 50 18 47 9 -2
25 -21 36 -44 17 -38 70 -83 83 -70 3 3 -11 24 -31 46 -37 41 -46 74 -22 83
23 9 29 57 10 78 -18 19 -43 22 -119 10z m80 -46 c0 -25 -4 -30 -27 -33 -22
-3 -28 1 -28 17 0 35 12 52 34 49 16 -2 21 -10 21 -33z"/>
</g>
<g>
<path d="M1606 323 c-10 -11 -7 -23 7 -23 7 0 35 -44 62 -97 28 -53 55 -96 60
-96 6 1 19 27 29 59 27 82 46 126 64 147 14 16 12 17 -23 17 -30 0 -36 -3 -31
-16 6 -15 -24 -134 -34 -134 -3 0 -20 29 -38 65 -17 36 -27 65 -22 65 6 0 10
3 10 8 0 9 -75 14 -84 5z"/>
</g>
<g>
<path d="M792 312 c-11 -7 -13 -35 -10 -117 l3 -107 63 4 c47 3 68 9 84 26 30
30 14 40 -22 14 -16 -12 -41 -22 -55 -22 -23 0 -25 3 -25 50 0 48 14 67 26 35
7 -17 30 -20 39 -5 9 15 -6 60 -21 60 -8 0 -14 -7 -14 -16 0 -9 -7 -14 -17
-12 -12 2 -18 13 -18 31 -1 16 -7 33 -15 38 -11 7 5 9 53 6 47 -3 67 -1 64 6
-4 14 -117 21 -135 9z"/>
</g>
<g>
<path d="M1144 309 c-3 -5 2 -9 10 -9 19 0 18 1 20 -115 l1 -90 58 -1 c50 -2
57 0 57 17 0 11 6 19 13 17 7 -2 14 1 16 7 5 16 -16 17 -32 0 -9 -8 -27 -15
-41 -15 l-26 0 0 90 c0 57 4 90 11 90 5 0 8 4 5 9 -3 4 -24 8 -46 8 -22 0 -43
-4 -46 -8z"/>
</g>
<g>
<path d="M1418 309 c-36 -14 -60 -67 -52 -118 8 -51 60 -91 118 -91 31 0 46 7
78 40 38 38 40 43 35 87 -7 63 -43 93 -107 92 -25 0 -57 -5 -72 -10z m106 -22
c13 -10 19 -29 21 -68 4 -77 -6 -91 -63 -87 -47 3 -47 3 -58 48 -14 56 -5 91
27 107 31 16 51 16 73 0z"/>
</g>
<g>
<path d="M510 302 c0 -5 3 -12 8 -16 4 -4 7 -49 7 -99 0 -91 0 -92 25 -95 25
-3 26 -1 25 50 l0 53 48 3 47 3 0 -43 c0 -24 -5 -49 -12 -56 -9 -9 -3 -12 30
-12 37 0 57 13 33 22 -5 2 -11 43 -12 91 -3 70 -1 90 11 97 11 7 0 10 -35 10
-39 -1 -46 -3 -32 -11 11 -6 17 -22 17 -44 l0 -35 -51 0 -51 0 4 45 c3 45 3
45 -29 45 -18 0 -33 -4 -33 -8z"/>
</g>
<g>
<path d="M230 270 c0 -23 4 -30 20 -30 14 0 20 7 20 21 0 14 5 19 18 17 14 -3
17 -16 20 -86 2 -71 0 -83 -15 -89 -13 -6 -5 -9 27 -14 44 -7 72 2 51 15 -16
10 -14 153 2 163 23 15 57 14 63 -2 3 -8 15 -15 25 -15 14 0 19 7 19 25 l0 25
-125 0 -125 0 0 -30z"/>
</g>
<g>
<path d="M2560 136 c0 -19 14 -28 34 -20 25 10 19 34 -9 34 -15 0 -25 -6 -25
-14z"/>
</g>
</g>
</svg>
