<?xml version="1.0" standalone="no"?>
<!DOCTYPE svg PUBLIC "-//W3C//DTD SVG 20010904//EN"
 "http://www.w3.org/TR/2001/REC-SVG-20010904/DTD/svg10.dtd">
<svg version="1.0" xmlns="http://www.w3.org/2000/svg"
 width="300.000000pt" height="517.000000pt" viewBox="0 0 300.000000 517.000000"
 preserveAspectRatio="xMidYMid meet">
<metadata>
Created by potrace 1.15, written by Peter Selinger 2001-2017
</metadata>
<g transform="translate(0.000000,517.000000) scale(0.100000,-0.100000)"
fill="#000000" stroke="none">
<g>
<path d="M0 2585 l0 -2585 48 2 c36 1 39 2 15 5 l-33 4 0 180 0 179 383 0
c210 0 506 2 657 5 151 2 428 7 615 10 187 3 428 8 535 10 196 4 595 8 703 6
l57 -1 0 -172 c0 -95 -4 -178 -8 -184 -7 -12 -456 -18 -2027 -30 -429 -3 -787
-7 -795 -9 -8 -2 630 -3 1417 -2 l1433 2 0 2584 c0 1421 -2 2582 -5 2579 -5
-5 -12 -646 -14 -1335 -1 -305 -2 -313 -21 -313 -16 0 -19 5 -14 28 4 22 0 29
-22 39 -33 15 -54 2 -54 -34 0 -24 -2 -25 -50 -18 l-50 7 0 -31 c0 -19 6 -34
15 -37 8 -4 15 -14 15 -24 0 -10 12 -25 26 -35 l26 -17 -33 -27 c-24 -20 -31
-33 -27 -48 4 -16 2 -20 -8 -16 -16 6 -18 24 -5 39 5 5 7 24 4 42 -4 26 -8 30
-19 21 -11 -9 -14 -7 -14 10 0 18 -2 20 -14 9 -17 -17 -4 -54 18 -50 21 4 20
-11 -2 -31 -27 -24 -47 -21 -48 8 -1 14 2 25 7 25 6 0 5 9 -1 20 -6 11 -8 31
-4 45 9 36 -4 31 -21 -7 -20 -49 -30 -12 -11 43 11 31 12 47 4 56 -15 19 -6
25 47 30 46 6 63 23 22 23 -16 0 -26 9 -34 29 -12 34 -7 46 27 56 35 10 70 33
70 46 0 6 -7 3 -16 -5 -17 -17 -49 -22 -39 -6 3 6 -1 7 -9 4 -9 -3 -16 -12
-16 -20 0 -8 -10 -14 -26 -14 l-25 0 21 30 c22 30 20 50 -5 50 -19 0 -63 -72
-46 -78 8 -3 7 -8 -5 -17 -17 -12 -16 -13 3 -19 17 -6 60 -54 51 -57 -2 -1
-27 -3 -56 -4 -43 -3 -54 0 -60 13 -3 9 -12 23 -19 30 -18 19 -16 35 7 55 21
18 28 57 10 57 -6 0 -15 11 -22 25 -10 22 -13 23 -37 10 -14 -7 -41 -28 -58
-45 -48 -48 -41 -65 9 -23 9 8 34 16 57 17 l41 3 -20 -32 c-27 -44 -25 -60 11
-105 30 -37 30 -39 14 -64 -13 -19 -26 -26 -49 -26 -48 0 -75 -10 -69 -26 3
-7 -1 -20 -9 -28 -41 -47 -43 -50 -24 -43 10 4 27 7 39 8 12 0 16 3 10 6 -18
7 -16 33 2 33 9 0 15 9 15 21 0 19 2 20 16 8 10 -8 12 -15 5 -17 -6 -2 -8 -14
-5 -27 4 -16 -1 -29 -17 -43 l-22 -21 27 -12 26 -12 -36 -13 c-20 -7 -44 -10
-53 -7 -14 6 -14 4 2 -14 21 -24 22 -37 3 -52 -10 -8 -23 -4 -57 20 -35 24
-38 25 -14 4 17 -14 42 -37 57 -52 15 -14 32 -22 38 -18 15 9 40 -13 40 -36 0
-11 4 -19 9 -19 21 0 41 13 41 27 0 13 -3 13 -15 3 -12 -10 -15 -10 -15 1 1
24 27 50 43 43 13 -5 16 1 14 30 -2 24 1 37 12 41 9 3 18 0 20 -7 2 -7 20 -28
39 -46 24 -23 43 -32 61 -30 14 1 31 -1 37 -4 19 -12 53 3 47 20 -5 11 -2 14
10 9 32 -12 47 3 47 47 0 22 4 47 9 55 7 10 9 -1 8 -35 -2 -41 1 -49 16 -48 9
1 17 -2 17 -7 0 -5 -7 -9 -15 -9 -14 0 -95 -73 -95 -85 0 -3 18 -5 40 -5 29 0
38 -4 34 -13 -7 -18 22 -41 41 -33 8 3 15 1 15 -4 0 -16 37 -11 44 6 10 26 7
54 -6 54 -8 0 -6 6 5 17 9 9 19 14 22 11 3 -3 3 -67 -1 -142 -7 -143 -16 -163
-49 -112 -9 13 -28 27 -42 30 -57 15 -73 34 -73 92 0 40 4 56 18 63 14 9 11
10 -15 11 -32 0 -33 -1 -33 -42 0 -91 27 -138 80 -138 13 0 24 -9 30 -25 6
-16 17 -25 32 -25 41 0 46 -11 47 -109 l2 -94 -47 43 c-43 40 -49 42 -90 36
-42 -5 -44 -4 -59 28 -9 19 -23 37 -31 40 -19 7 -18 3 6 -24 24 -28 26 -73 4
-91 -10 -8 -14 -22 -10 -40 3 -18 0 -29 -9 -33 -8 -3 -15 -15 -15 -26 0 -24
20 -27 20 -2 1 15 2 15 16 -3 9 -11 20 -29 25 -40 8 -17 7 -16 -7 2 -15 21
-44 22 -44 1 0 -5 4 -7 9 -3 5 3 12 1 16 -4 3 -6 -4 -15 -15 -21 -13 -7 -20
-7 -20 0 0 5 -4 10 -10 10 -5 0 -10 -9 -10 -20 0 -11 -7 -20 -15 -20 -20 0
-19 -37 1 -48 27 -15 55 -3 52 22 -2 16 2 20 17 18 11 -2 26 -4 33 -4 15 -2
15 -4 0 -27 -14 -23 4 -51 33 -51 11 0 19 -4 19 -10 0 -20 -33 -9 -60 20 -26
28 -28 28 -46 12 -10 -9 -31 -18 -46 -19 -29 -2 -33 8 -28 78 1 23 -2 26 -24
22 -15 -3 -27 -13 -27 -22 -5 -64 -2 -90 13 -120 16 -32 14 -68 -2 -41 -4 7
-13 9 -19 6 -7 -5 -11 2 -11 18 0 19 -5 26 -20 26 -11 0 -20 -7 -20 -15 0 -27
-19 -15 -40 25 -27 53 -26 70 5 70 14 0 25 -4 25 -9 0 -5 9 -11 20 -14 26 -7
26 5 0 28 -11 10 -20 30 -21 44 0 16 -3 20 -6 11 -4 -8 -20 -27 -36 -43 -24
-22 -28 -32 -22 -55 4 -15 7 -39 7 -54 1 -16 6 -28 12 -28 28 -1 56 -39 56
-75 0 -33 -2 -36 -22 -30 -56 17 -75 -5 -48 -56 8 -13 7 -25 0 -39 -17 -32
-33 -24 -27 14 3 20 0 41 -7 51 -11 16 -13 16 -26 0 -11 -13 -11 -20 -2 -36
14 -22 8 -39 -14 -39 -8 0 -14 -6 -14 -13 0 -19 -29 -75 -42 -83 -8 -5 -9 -1
-4 12 5 10 19 52 33 93 13 41 31 84 39 97 21 32 28 116 16 203 -9 61 -18 85
-54 138 -23 34 -46 63 -49 63 -3 0 -32 34 -64 75 -31 41 -69 85 -84 98 -43 36
-181 200 -181 215 0 10 7 12 23 8 12 -3 56 -11 97 -18 74 -12 112 -30 159 -75
14 -14 52 -41 84 -61 33 -20 54 -38 48 -40 -5 -2 -13 -19 -17 -39 -6 -31 -13
-38 -55 -57 -49 -21 -68 -43 -26 -30 41 13 107 46 107 55 0 4 -4 11 -10 14
-30 18 20 53 54 37 21 -9 94 -43 109 -50 4 -2 7 3 7 12 0 9 -16 20 -40 27 -22
7 -48 19 -58 28 -10 9 -24 17 -31 19 -7 1 -20 9 -28 17 -8 8 -20 15 -26 15
-14 0 -78 43 -165 112 -55 43 -66 48 -124 52 -34 2 -101 7 -147 11 -60 5 -82
4 -77 -4 4 -6 20 -11 35 -11 26 0 71 -38 71 -60 0 -6 4 -10 8 -10 4 0 26 -24
47 -52 22 -29 62 -76 90 -103 65 -66 201 -216 231 -257 13 -18 24 -39 24 -48
0 -9 4 -20 10 -26 5 -5 13 -38 16 -72 8 -75 -17 -198 -53 -254 -12 -21 -23
-47 -23 -58 0 -11 -20 -64 -44 -117 -24 -54 -46 -109 -50 -123 -19 -70 -30
-100 -38 -100 -4 0 -8 -7 -8 -15 0 -33 26 -12 50 40 26 57 101 131 124 122 16
-7 126 22 151 39 38 27 45 18 45 -56 l0 -70 -46 -21 c-26 -11 -57 -32 -71 -45
-13 -13 -28 -24 -34 -24 -5 0 -27 -18 -48 -39 -22 -22 -42 -37 -45 -33 -4 3
-9 -3 -12 -13 -5 -17 -84 -66 -107 -65 -4 0 -30 -16 -58 -35 -39 -26 -62 -35
-93 -35 -64 0 -71 9 -72 92 -1 40 -9 128 -19 196 -19 135 -17 179 23 359 16
72 77 178 136 233 29 28 33 40 12 40 -7 0 -33 -23 -57 -52 -88 -102 -93 -104
-131 -37 -16 30 -37 47 -82 69 -88 43 -106 61 -106 107 0 42 -20 67 -72 90
-25 11 -28 18 -28 62 0 52 -19 84 -21 34 -2 -81 -50 -136 -118 -136 -61 0
-111 57 -111 125 0 42 -31 36 -65 -12 -15 -22 -31 -40 -36 -40 -5 0 -6 -7 -3
-15 4 -9 0 -15 -10 -15 -9 0 -16 -6 -16 -14 0 -8 -6 -21 -13 -28 -21 -23 -37
-57 -37 -78 0 -11 -4 -20 -10 -20 -5 0 -12 -16 -16 -35 -3 -19 -10 -35 -15
-35 -5 0 -9 -13 -9 -30 0 -16 -5 -30 -11 -30 -7 0 -27 -16 -45 -35 -27 -27
-34 -42 -34 -74 0 -38 -7 -47 -95 -136 -52 -52 -97 -95 -100 -95 -21 0 -57
-52 -62 -88 -6 -48 -49 -104 -63 -82 -6 10 -9 5 -12 -14 -4 -38 -23 -33 -23 7
0 20 -5 31 -12 30 -8 -2 -13 7 -13 22 0 34 -15 31 -32 -5 -15 -36 -28 -39 -28
-7 0 13 13 37 30 53 16 16 30 33 30 37 0 14 -62 -38 -76 -63 l-13 -25 -1 26
c0 20 10 33 40 54 41 29 53 49 23 38 -12 -4 -15 -3 -8 4 6 6 36 20 68 32 33
12 64 27 70 34 11 11 51 81 67 117 21 46 48 92 89 153 60 90 53 76 109 197 27
58 57 132 67 165 9 33 28 84 42 112 22 45 29 52 49 47 25 -6 55 21 65 59 5 19
11 22 53 19 42 -3 47 -1 44 15 -3 15 -12 17 -51 15 -26 -2 -47 1 -47 6 0 5 -7
9 -15 9 -10 0 -15 -11 -15 -34 0 -19 -4 -43 -10 -53 -14 -27 -60 -5 -60 29 l0
25 -20 -22 c-12 -12 -26 -22 -33 -22 -7 0 -20 -9 -30 -20 -12 -14 -13 -20 -4
-20 7 0 17 4 22 8 6 5 20 6 33 3 l22 -6 -25 -37 c-14 -21 -40 -79 -57 -130
-33 -99 -78 -203 -100 -229 -15 -18 -66 -21 -121 -8 -24 7 -51 6 -78 -1 -70
-19 -187 -14 -254 10 -86 31 -128 40 -140 30 -11 -10 -47 7 -100 44 -22 16
-30 17 -44 8 -9 -7 -26 -16 -39 -22 -12 -5 -22 -15 -22 -22 0 -18 -28 -34
-102 -59 -35 -12 -69 -26 -76 -32 -7 -5 -16 -7 -20 -3 -6 7 -8 918 -4 2228 l2
478 433 3 432 2 -442 3 -443 2 0 -2585z m2535 1165 c3 -5 1 -10 -4 -10 -6 0
-11 5 -11 10 0 6 2 10 4 10 3 0 8 -4 11 -10z m115 -213 c12 -22 12 -29 0 -51
-10 -20 -16 -23 -27 -14 -12 9 -13 0 -11 -55 1 -38 -3 -72 -9 -78 -14 -14 -55
-8 -61 10 -3 10 2 12 22 7 23 -6 26 -4 26 21 0 16 -4 34 -9 42 -6 10 -5 22 4
35 9 12 11 24 6 30 -11 14 20 87 34 83 5 -2 17 -15 25 -30z m278 16 c-2 -10
-10 -18 -18 -18 -8 0 -16 8 -18 18 -2 12 3 17 18 17 15 0 20 -5 18 -17z m-105
-58 c13 -19 15 -25 4 -25 -17 0 -37 20 -37 37 0 20 13 15 33 -12z m50 1 c4
-10 1 -13 -8 -9 -8 3 -12 9 -9 14 7 12 11 11 17 -5z m97 0 c0 -2 -7 -7 -16
-10 -8 -3 -12 -2 -9 4 6 10 25 14 25 6z m-400 -22 c0 -9 -5 -14 -12 -12 -18 6
-21 28 -4 28 9 0 16 -7 16 -16z m410 -14 c0 -15 -46 -34 -65 -26 -22 8 -8 28
15 21 10 -3 21 -1 25 5 8 13 25 13 25 0z m-440 -20 c0 -5 -4 -10 -10 -10 -5 0
-10 5 -10 10 0 6 5 10 10 10 6 0 10 -4 10 -10z m20 -30 c0 -5 -4 -10 -10 -10
-5 0 -10 5 -10 10 0 6 5 10 10 10 6 0 10 -4 10 -10z m420 0 c0 -5 -4 -10 -10
-10 -5 0 -10 5 -10 10 0 6 5 10 10 10 6 0 10 -4 10 -10z m-310 -31 c0 -5 -4
-9 -10 -9 -5 0 -10 7 -10 16 0 8 5 12 10 9 6 -3 10 -10 10 -16z m240 17 c0 -9
-30 -14 -35 -6 -4 6 3 10 14 10 12 0 21 -2 21 -4z m46 -31 c18 -13 18 -14 -4
-8 -12 3 -25 9 -28 14 -8 14 10 11 32 -6z m-306 -25 c0 -5 -4 -10 -10 -10 -5
0 -10 5 -10 10 0 6 5 10 10 10 6 0 10 -4 10 -10z m260 -14 c0 -8 -4 -18 -10
-21 -5 -3 -10 3 -10 14 0 12 5 21 10 21 6 0 10 -6 10 -14z m-220 -6 c0 -5 -4
-10 -10 -10 -5 0 -10 5 -10 10 0 6 5 10 10 10 6 0 10 -4 10 -10z m-160 -10 c0
-5 -12 -10 -26 -10 -14 0 -23 4 -19 10 3 6 15 10 26 10 10 0 19 -4 19 -10z
m210 -14 c0 -13 7 -26 15 -30 30 -11 14 -26 -30 -26 -40 0 -47 3 -55 26 -14
36 -13 37 20 31 22 -5 30 -3 30 8 0 8 5 15 10 15 6 0 10 -11 10 -24z m214 6
c-1 -7 -2 -28 -2 -48 -1 -23 -6 -34 -14 -32 -17 6 -29 70 -16 86 13 15 33 11
32 -6z m-480 -46 c-3 -9 -10 -16 -15 -16 -6 0 -5 9 1 21 13 24 24 20 14 -5z
m503 2 c-3 -8 -6 -5 -6 6 -1 11 2 17 5 13 3 -3 4 -12 1 -19z m-452 2 c3 -5 -1
-10 -9 -10 -9 0 -16 5 -16 10 0 6 4 10 9 10 6 0 13 -4 16 -10z m-15 -30 c0 -5
-4 -10 -10 -10 -5 0 -10 5 -10 10 0 6 5 10 10 10 6 0 10 -4 10 -10z m370 -42
c0 -5 -9 -8 -20 -8 -23 0 -26 10 -8 28 9 9 14 9 20 -1 4 -6 8 -15 8 -19z m35
-18 c-3 -5 -14 -10 -23 -10 -15 0 -15 2 -2 10 20 13 33 13 25 0z m35 -26 c0
-8 -4 -12 -10 -9 -5 3 -10 10 -10 16 0 5 5 9 10 9 6 0 10 -7 10 -16z m-21
-412 c54 -51 67 -117 26 -124 -21 -4 -23 -3 -14 9 17 19 -5 43 -23 25 -14 -14
-52 -16 -43 -2 3 6 15 10 26 10 10 0 19 6 19 14 0 25 -22 30 -38 10 -10 -13
-16 -15 -19 -6 -5 12 -43 17 -43 5 0 -3 7 -14 15 -23 8 -9 16 -30 17 -46 1
-16 8 -38 15 -49 11 -18 10 -22 -9 -34 -19 -12 -20 -11 -16 7 4 14 2 19 -7 16
-19 -8 -29 28 -10 38 17 10 20 28 4 28 -6 0 -19 10 -29 23 -17 20 -17 24 -3
40 10 10 31 17 55 17 21 0 38 4 38 9 0 21 -20 60 -32 64 -7 2 -1 3 14 1 15 -2
41 -16 57 -32z m-1514 -42 c3 -16 22 -43 41 -60 42 -36 88 -39 152 -10 43 20
44 20 83 -1 42 -21 44 -24 53 -75 7 -40 -4 -44 -140 -50 -55 -2 -143 -14 -195
-27 -73 -17 -102 -20 -132 -13 -31 8 -36 13 -31 30 16 54 136 236 156 236 3 0
9 -13 13 -30z m1505 -130 c0 -5 -4 -10 -10 -10 -5 0 -10 5 -10 10 0 6 5 10 10
10 6 0 10 -4 10 -10z m-2606 -15 c-6 -16 -24 -21 -24 -7 0 11 11 22 21 22 5 0
6 -7 3 -15z m2646 -5 c0 -5 -4 -10 -10 -10 -5 0 -10 5 -10 10 0 6 5 10 10 10
6 0 10 -4 10 -10z m18 -110 c1 -46 -3 -80 -8 -80 -6 0 -10 -7 -10 -15 0 -8 5
-15 10 -15 6 0 10 -11 10 -25 0 -16 -6 -25 -15 -25 -8 0 -15 5 -15 10 0 20
-19 10 -22 -12 -2 -12 -9 -23 -15 -26 -14 -4 -7 56 8 73 18 19 8 27 -26 22
-34 -6 -55 5 -35 18 16 10 12 35 -6 35 -10 0 -14 -7 -12 -22 2 -11 -3 -23 -9
-25 -7 -3 -13 -1 -13 4 0 5 -6 17 -13 28 -13 17 -15 16 -30 -14 -9 -18 -14
-38 -11 -44 7 -19 -34 -57 -62 -57 -15 0 -23 -4 -19 -11 4 -6 13 -8 20 -5 8 3
19 -10 29 -35 14 -35 18 -38 36 -29 16 8 20 8 20 -4 0 -22 -12 -26 -53 -19
-40 6 -46 19 -19 39 16 12 15 13 -5 14 -12 0 -25 -4 -28 -10 -14 -23 -25 -7
-25 40 0 28 4 50 10 50 5 0 15 18 21 40 14 47 32 64 68 65 71 3 134 28 175 70
23 24 42 44 42 44 1 1 2 -35 2 -79z m-1185 40 c14 -11 35 -20 47 -20 14 0 47
-26 91 -71 l70 -72 -19 -46 -18 -46 -100 -7 c-54 -3 -129 -13 -167 -22 -71
-17 -197 -22 -263 -11 -21 4 -54 19 -72 32 -25 19 -37 22 -45 14 -8 -8 -8 -11
0 -11 7 0 14 -8 17 -17 3 -10 17 -30 30 -44 34 -37 52 -76 67 -144 15 -72 18
-353 4 -359 -6 -3 -4 -9 4 -15 9 -6 15 -29 16 -61 1 -31 6 -55 15 -60 11 -7
10 -11 -3 -25 -10 -9 -17 -21 -17 -26 0 -5 -7 -9 -15 -9 -8 0 -15 -4 -15 -9 0
-18 16 -20 44 -6 31 16 49 11 44 -12 -2 -12 -19 -16 -78 -18 -41 -1 -84 -5
-95 -9 -58 -22 -77 -25 -162 -23 -51 1 -93 3 -93 4 0 9 78 33 106 33 33 0 51
12 138 91 l28 26 -21 94 c-12 52 -33 126 -46 164 -13 39 -32 102 -43 140 -50
172 -87 281 -102 300 -37 49 -5 114 74 150 30 14 59 25 64 25 5 0 23 7 41 16
50 25 208 54 301 55 47 0 94 4 105 9 31 13 40 12 68 -10z m1047 10 c0 -5 -4
-10 -10 -10 -5 0 -10 5 -10 10 0 6 5 10 10 10 6 0 10 -4 10 -10z m-1590 -50
c0 -5 -4 -10 -10 -10 -5 0 -10 5 -10 10 0 6 5 10 10 10 6 0 10 -4 10 -10z
m-707 -7 c4 -3 2 -12 -4 -19 -7 -8 -7 -14 1 -19 7 -4 14 2 17 14 6 24 4 24 74
11 30 -6 95 -12 145 -15 98 -5 144 -17 143 -37 -1 -28 -36 -92 -43 -80 -4 7
-21 12 -37 12 -24 0 -30 -4 -27 -17 2 -12 13 -18 28 -18 14 0 26 -4 26 -10 4
-27 -71 -145 -92 -145 -3 0 -25 14 -50 30 -59 41 -122 40 -191 -3 -26 -17 -42
-32 -36 -34 7 -3 25 4 40 15 16 11 40 18 55 17 16 -2 30 1 34 6 7 12 26 11 59
-1 22 -8 24 -13 15 -30 -6 -11 -16 -20 -22 -20 -7 0 -7 4 1 14 9 10 9 16 1 21
-20 12 -43 -4 -37 -26 4 -13 0 -23 -11 -27 -9 -4 -17 -13 -18 -19 -1 -7 -2
-27 -2 -44 -1 -20 -6 -28 -14 -23 -25 16 -57 12 -63 -7 -4 -10 -15 -19 -26
-19 -23 0 -24 6 -4 26 8 9 15 24 15 35 0 10 5 19 10 19 6 0 10 -4 10 -10 0 -5
7 -10 15 -10 8 0 12 6 9 14 -3 8 0 24 6 35 16 30 3 46 -21 25 -10 -9 -25 -14
-35 -10 -13 5 -15 1 -12 -19 3 -14 1 -28 -3 -31 -5 -3 -9 11 -9 30 0 20 -4 36
-9 36 -33 0 -59 -81 -46 -141 8 -37 84 -115 140 -144 33 -16 41 -26 46 -57 6
-39 33 -88 49 -88 6 0 10 -4 10 -9 0 -11 -91 -2 -106 10 -6 5 -19 7 -28 3 -9
-3 -24 -3 -33 1 -30 12 -115 14 -172 3 -49 -9 -56 -8 -68 8 -14 19 -15 19 -28
0 -12 -16 -29 -19 -117 -21 l-103 -2 -3 341 -4 341 59 14 c32 8 103 18 158 22
55 4 120 12 145 17 36 8 48 7 61 -4 18 -16 29 -9 29 20 1 19 2 19 11 4 13 -24
29 -23 29 2 0 19 20 27 33 13z m2157 -3 c0 -5 -10 -10 -22 -10 -19 0 -20 2 -8
10 19 13 30 13 30 0z m-2660 -10 c0 -5 -4 -10 -10 -10 -5 0 -10 5 -10 10 0 6
5 10 10 10 6 0 10 -4 10 -10z m2570 -120 c5 0 11 8 13 18 3 11 5 7 6 -10 0
-15 -3 -30 -9 -33 -6 -3 -10 -52 -10 -112 0 -59 -2 -104 -4 -102 -2 2 -6 74
-8 159 -3 85 -4 138 -1 118 2 -21 8 -38 13 -38z m220 25 c0 -8 -2 -15 -4 -15
-2 0 -11 -3 -20 -6 -10 -4 -16 -1 -16 9 0 14 13 24 33 26 4 1 7 -6 7 -14z
m-262 -100 c-1 -1 -13 -6 -25 -9 -17 -6 -23 -3 -23 9 0 21 44 38 48 18 2 -8 2
-16 0 -18z m272 15 c0 -11 -4 -20 -9 -20 -5 0 -7 9 -4 20 3 11 7 20 9 20 2 0
4 -9 4 -20z m-203 -22 c-3 -7 -5 -2 -5 12 0 14 2 19 5 13 2 -7 2 -19 0 -25z
m161 14 c2 -7 -6 -12 -17 -12 -21 0 -27 11 -14 24 9 9 26 2 31 -12z m142 -1
c0 -12 -20 -25 -27 -18 -7 7 6 27 18 27 5 0 9 -4 9 -9z m-1814 -33 c4 -13 2
-24 -5 -26 -6 -2 -11 -8 -11 -14 0 -6 7 -8 14 -5 18 7 56 -87 56 -138 0 -19 3
-35 8 -35 7 0 20 -28 40 -91 19 -58 16 -67 -24 -67 -41 0 -52 -8 -36 -24 9 -9
18 -9 30 -2 28 16 59 5 67 -23 4 -19 2 -29 -10 -35 -19 -11 -10 -29 10 -21 8
3 15 0 15 -6 0 -13 -76 -15 -85 -2 -3 6 3 14 12 20 17 10 17 10 1 11 -10 0
-22 -9 -28 -21 -7 -12 -18 -18 -26 -15 -8 3 -30 0 -48 -8 -22 -9 -47 -11 -82
-6 -53 8 -79 6 -98 -8 -17 -15 -66 -5 -82 15 -13 17 -13 17 -14 -4 0 -13 -4
-23 -10 -23 -5 0 -10 8 -10 17 0 38 -33 103 -51 103 -11 0 -19 5 -19 11 0 16
62 6 71 -11 4 -8 10 -28 14 -43 3 -16 10 -25 16 -21 7 4 8 34 3 84 -5 63 -4
82 8 94 9 8 18 32 21 53 5 29 20 52 66 97 33 32 64 55 70 52 6 -4 11 0 11 11
0 17 76 103 91 103 4 0 11 -10 15 -22z m820 -51 c-3 -23 -9 -81 -13 -129 -3
-49 -10 -88 -14 -88 -5 0 -9 -7 -9 -15 0 -8 7 -15 15 -15 8 0 15 -7 15 -15 0
-17 -25 -20 -35 -5 -8 13 -25 3 -25 -14 0 -17 38 -28 46 -14 9 15 20 -8 29
-61 5 -28 4 -41 -3 -37 -5 3 -15 -1 -21 -8 -13 -16 2 -32 19 -21 6 4 10 -8 10
-28 0 -30 -4 -35 -30 -40 -39 -8 -40 -29 0 -22 27 5 30 2 40 -35 6 -21 15 -42
20 -45 5 -3 42 -6 82 -7 72 0 75 1 140 46 36 25 69 46 73 46 4 0 34 18 67 40
40 28 65 39 79 35 12 -4 21 -1 24 9 17 53 14 51 29 31 7 -10 18 -15 25 -11 7
5 10 2 9 -6 -2 -7 3 -13 11 -13 9 0 16 13 18 33 4 33 -5 40 -25 20 -9 -9 -12
-8 -12 7 0 17 57 62 65 53 2 -2 6 -90 9 -197 6 -172 5 -196 -10 -212 -16 -17
-16 -19 1 -25 16 -6 17 -19 11 -138 -4 -72 -12 -143 -17 -158 -6 -14 -9 -37
-7 -50 3 -16 6 -18 10 -8 3 8 11 31 18 50 17 49 17 46 19 438 1 312 3 352 17
352 11 0 14 8 12 28 -2 15 -8 26 -15 24 -7 -1 -13 5 -13 13 0 8 5 14 12 13 6
-2 15 8 19 22 7 24 7 24 9 -5 9 -168 15 -205 31 -205 8 0 9 20 5 63 -6 54 -4
64 11 73 31 19 81 26 102 15 10 -6 40 -12 65 -12 25 -1 43 -5 41 -9 -2 -4 7
-17 20 -30 14 -13 28 -38 31 -57 3 -18 10 -36 15 -39 13 -7 11 -174 -1 -174
-5 0 -10 -5 -10 -11 0 -5 5 -7 10 -4 6 3 10 0 10 -8 0 -8 -6 -17 -14 -20 -21
-8 -27 -47 -8 -55 14 -6 17 -23 19 -87 2 -53 -2 -82 -10 -87 -9 -6 -9 -8 0 -8
19 0 13 -60 -6 -61 -9 -1 -23 -2 -31 -3 -8 -2 -23 -3 -32 -4 -10 -1 -18 -7
-18 -12 0 -7 18 -8 50 -4 40 5 50 4 50 -8 0 -9 -17 -18 -42 -24 -33 -7 -44
-14 -46 -32 -3 -18 -8 -21 -30 -15 -47 11 -55 39 -15 54 20 7 23 13 15 21 -9
9 -16 7 -31 -6 -18 -16 -20 -16 -29 -1 -6 12 -16 15 -31 10 -30 -9 -26 -27 4
-19 28 7 30 2 13 -26 -10 -15 -10 -22 0 -32 6 -6 12 -20 12 -30 0 -12 7 -18
21 -18 11 0 17 -4 14 -10 -9 -14 -42 -12 -75 5 -21 11 -30 24 -35 55 -4 26 -3
46 5 55 13 15 4 39 -11 30 -5 -4 -9 13 -9 37 0 34 5 47 25 62 31 24 32 36 1
36 -23 0 -24 3 -30 98 -3 53 -8 129 -11 169 -4 57 -1 75 11 88 9 9 13 19 9 23
-4 4 -10 1 -12 -5 -3 -7 -11 -13 -19 -13 -17 0 -17 22 1 -300 16 -284 21 -322
40 -365 8 -17 18 -43 24 -58 11 -27 61 -57 97 -57 13 0 14 3 4 15 -7 8 -20 15
-30 15 -10 0 -23 7 -30 15 -11 13 -5 15 48 15 33 0 76 7 96 15 31 13 36 13 36
1 0 -8 -6 -17 -12 -19 -10 -4 -9 -8 2 -16 20 -14 9 -22 -39 -28 -23 -3 -44
-10 -48 -16 -4 -6 11 -8 44 -3 44 6 51 4 56 -13 3 -15 -3 -21 -33 -30 -24 -7
-47 -8 -62 -2 -46 17 -128 24 -143 11 -23 -19 -18 -33 25 -62 46 -32 49 -44
18 -54 -22 -7 -38 -21 -38 -36 0 -5 16 -8 35 -8 19 0 35 -4 35 -10 0 -5 -11
-10 -24 -10 -13 0 -26 -7 -30 -15 -3 -8 -12 -15 -21 -15 -8 0 -15 -4 -15 -9 0
-5 11 -8 25 -8 14 0 28 3 31 8 7 12 54 12 54 0 0 -24 -149 -29 -167 -5 -13 18
-33 11 -33 -11 0 -20 36 -37 68 -33 21 2 28 -2 30 -18 3 -21 2 -21 -78 -8 -45
7 -88 18 -96 25 -17 14 -18 50 -1 70 11 15 105 49 133 49 14 0 44 38 44 57 0
20 -40 51 -75 57 -19 4 -35 11 -37 16 -3 9 -23 6 -119 -20 -25 -7 -39 -17 -43
-33 -7 -28 -35 -45 -105 -63 -31 -8 -59 -22 -64 -29 -4 -8 -14 -15 -21 -15 -8
0 -16 -7 -20 -15 -3 -8 -13 -15 -23 -15 -10 0 -30 -7 -45 -14 -15 -8 -30 -11
-33 -6 -7 11 15 27 47 35 14 4 28 15 31 26 6 22 31 33 115 50 48 9 62 16 62
29 0 33 -29 44 -107 41 -38 -1 -45 -21 -8 -21 38 0 20 -25 -28 -40 -47 -14
-69 -28 -62 -41 3 -4 -13 -18 -35 -29 -22 -11 -45 -32 -50 -45 -9 -25 -30 -35
-30 -15 0 6 -9 10 -20 10 -11 0 -20 -5 -20 -10 0 -6 -10 -8 -24 -4 -13 3 -27
1 -30 -5 -4 -6 1 -11 11 -11 16 0 15 -3 -5 -18 -12 -9 -27 -33 -32 -52 -10
-37 -61 -77 -81 -65 -5 4 -18 1 -27 -7 -9 -8 -43 -27 -74 -43 -32 -15 -65 -36
-74 -47 -21 -22 -66 -25 -58 -3 4 9 0 15 -10 15 -9 0 -16 -7 -16 -15 0 -8 -1
-15 -2 -15 -2 -1 -144 -4 -315 -7 -228 -4 -313 -2 -313 6 0 6 -7 11 -15 11 -8
0 -15 -3 -15 -8 0 -4 -37 -8 -82 -9 -57 -1 -76 2 -60 8 12 5 25 16 29 25 4 11
13 14 30 9 25 -6 104 14 151 38 15 8 39 20 54 27 18 9 28 23 33 46 5 27 13 37
42 49 20 8 38 13 41 11 2 -3 27 5 56 18 28 12 73 26 100 29 27 4 57 14 65 21
14 13 22 12 63 -9 39 -20 49 -21 64 -11 11 7 31 16 47 20 22 5 27 12 27 36 0
23 -6 33 -25 40 -24 9 -35 30 -15 30 6 0 10 13 10 29 0 22 -6 31 -30 41 -24
10 -32 10 -45 -3 -8 -9 -15 -20 -15 -27 0 -6 -11 -16 -25 -22 -26 -12 -56 -50
-65 -83 -8 -27 -46 -45 -100 -45 -25 0 -54 -6 -65 -14 -11 -7 -37 -16 -58 -19
-21 -3 -52 -13 -70 -23 -18 -9 -87 -31 -155 -48 -67 -18 -119 -35 -116 -39 12
-11 46 -8 122 12 40 10 72 15 72 11 0 -5 -9 -11 -19 -15 -11 -3 -22 -12 -25
-20 -3 -8 -16 -15 -29 -15 -13 0 -32 -9 -43 -21 -13 -14 -25 -18 -42 -14 -15
4 -34 -1 -49 -11 -18 -11 -46 -16 -97 -15 -110 1 -224 11 -305 27 -70 14 -100
12 -73 -5 8 -4 52 -14 100 -21 48 -7 105 -16 127 -20 l40 -6 -50 -11 c-75 -17
-332 -28 -358 -16 -12 6 -51 19 -87 29 -93 25 -100 33 -100 116 0 54 3 68 15
68 19 0 19 9 1 29 -12 13 -15 66 -17 277 l-1 262 45 45 c27 26 66 52 94 62
190 68 180 66 323 66 74 -1 150 2 168 5 l32 6 0 -136 c0 -114 2 -136 15 -136
15 0 19 83 19 472 1 86 4 124 11 117 6 -6 9 -124 8 -330 -3 -290 2 -353 21
-303 3 9 6 69 6 133 0 127 8 213 20 206 4 -2 5 -81 2 -175 -3 -113 -1 -170 6
-170 17 0 22 29 22 141 0 66 4 109 10 109 6 0 10 -52 10 -135 0 -83 4 -135 10
-135 11 0 15 79 10 264 l-3 128 23 -7 c31 -10 200 5 200 18 0 6 -31 8 -94 3
-117 -8 -126 -5 -126 45 l0 39 63 1 c94 2 162 2 271 1 l100 -2 -44 -37 c-24
-21 -53 -39 -64 -40 -34 -2 -129 -40 -140 -55 -8 -11 -29 -13 -83 -10 -50 3
-73 1 -73 -7 0 -6 20 -12 48 -12 211 -6 347 -6 370 0 15 4 42 2 62 -5 51 -19
80 -17 80 4 0 27 118 28 188 2 29 -11 60 -20 69 -20 21 0 133 -45 178 -71 19
-12 35 -27 35 -35 0 -8 7 -25 15 -37 17 -27 6 -81 -24 -118 l-18 -22 -32 50
c-18 28 -50 60 -71 72 -21 12 -41 29 -45 39 -6 19 -94 82 -115 82 -16 0 17
-40 34 -40 15 -1 48 -30 69 -62 9 -16 24 -28 31 -28 7 0 30 -20 50 -44 31 -38
36 -52 36 -94 0 -41 -5 -54 -30 -81 -17 -17 -34 -31 -39 -31 -5 0 -14 -7 -21
-15 -18 -22 -33 -19 -20 4 7 14 7 22 -1 27 -14 9 -41 -25 -35 -43 3 -7 -7 -21
-21 -33 -14 -11 -23 -23 -19 -27 3 -4 12 -1 18 5 16 16 28 15 28 -3 0 -9 6
-12 16 -8 8 3 13 12 10 19 -3 9 7 19 29 28 19 8 55 35 79 60 31 33 52 46 71
46 45 0 119 90 85 102 -14 4 7 69 28 85 23 19 24 148 0 178 -23 29 -23 35 2
35 11 0 20 4 20 8 0 5 11 15 25 22 24 13 35 50 15 50 -5 0 -10 -6 -10 -14 0
-10 -7 -12 -22 -8 -17 4 -20 2 -15 -11 4 -12 1 -17 -11 -17 -10 0 -23 -5 -28
-10 -7 -7 -21 0 -44 24 -19 19 -38 32 -42 30 -5 -3 -11 2 -14 10 -3 9 -24 17
-52 21 -56 7 -142 45 -142 62 0 7 7 10 15 7 9 -4 15 0 15 9 0 8 -6 17 -12 20
-25 8 11 35 63 47 29 7 55 21 64 33 19 27 19 37 0 37 -20 0 -19 10 3 26 16 13
16 13 0 14 -10 0 -18 -4 -18 -8 0 -8 -348 -27 -356 -20 -1 2 -5 15 -9 30 l-7
28 37 -16 c43 -18 69 -16 56 5 -5 7 -20 14 -35 14 -14 0 -26 3 -26 8 0 5 5 9
10 9 6 0 10 5 10 10 0 16 -22 12 -37 -7 -12 -16 -13 -11 -8 42 4 33 8 61 9 62
1 1 24 4 51 6 45 3 79 27 38 27 -11 0 -24 5 -30 11 -8 8 -17 8 -33 -1 -12 -6
-23 -10 -24 -8 -1 2 -9 30 -16 62 -11 46 -11 61 -2 64 19 6 14 33 -5 30 -13
-2 -19 5 -22 22 -1 14 -7 28 -13 31 -5 3 46 9 114 12 68 4 163 15 212 24 49
10 113 16 144 15 l54 -4 -6 -41z m623 13 c3 -25 3 -25 -18 -6 -26 23 -27 39
-3 34 9 -2 19 -14 21 -28z m111 -5 c10 -12 10 -15 -4 -15 -9 0 -16 7 -16 15 0
8 2 15 4 15 2 0 9 -7 16 -15z m-165 -16 c11 -17 2 -18 -19 -3 -17 12 -17 14
-4 14 9 0 20 -5 23 -11z m335 -9 c0 -14 -7 -20 -24 -20 -13 0 -30 -7 -37 -16
-12 -14 -14 -14 -20 3 -13 31 -10 43 9 43 10 0 24 -6 31 -12 10 -11 14 -10 22
5 13 22 19 22 19 -3z m-383 -19 c13 -18 8 -31 -13 -31 -8 0 -14 6 -12 14 2 8
-6 22 -17 31 -20 16 -19 16 5 9 14 -4 30 -14 37 -23z m470 -8 c-3 -10 -5 -4
-5 12 0 17 2 24 5 18 2 -7 2 -21 0 -30z m-2202 -3 c3 -5 1 -10 -4 -10 -6 0
-11 5 -11 10 0 6 2 10 4 10 3 0 8 -4 11 -10z m2175 -11 c0 -5 -4 -9 -10 -9 -5
0 -10 7 -10 16 0 8 5 12 10 9 6 -3 10 -10 10 -16z m-179 -21 c17 -36 51 -59
124 -83 28 -10 54 -21 59 -26 17 -16 -3 -22 -31 -10 -21 10 -28 9 -35 -1 -5
-9 -10 -10 -15 -2 -16 22 -74 43 -107 37 -29 -4 -34 -2 -39 18 -4 13 -7 41 -7
62 0 48 28 51 51 5z m119 12 c23 -12 16 -40 -10 -40 -23 0 -34 16 -26 35 6 18
11 18 36 5z m-2290 -10 c0 -5 -5 -10 -11 -10 -5 0 -7 5 -4 10 3 6 8 10 11 10
2 0 4 -4 4 -10z m1990 -8 c0 -14 -11 -21 -26 -15 -21 8 -17 23 6 23 11 0 20
-4 20 -8z m-1895 -12 c-3 -5 -1 -10 4 -10 17 0 13 -14 -7 -26 -15 -10 -18 -8
-20 9 0 12 4 25 11 29 16 10 19 10 12 -2z m1785 0 c0 -5 -9 -10 -19 -10 -11 0
-23 5 -26 10 -4 6 5 10 19 10 14 0 26 -4 26 -10z m500 -11 c0 -15 -4 -19 -16
-15 -9 3 -18 6 -20 6 -2 0 -4 7 -4 15 0 8 9 15 20 15 14 0 20 -7 20 -21z
m-453 -4 c9 -25 -2 -27 -22 -5 -17 18 -17 20 -1 20 9 0 19 -7 23 -15z m-157
-24 c0 -6 -4 -13 -10 -16 -5 -3 -10 1 -10 9 0 9 5 16 10 16 6 0 10 -4 10 -9z
m-1726 -67 c9 -33 44 -63 74 -64 13 0 20 -4 17 -10 -10 -17 -75 -12 -75 5 0
14 -16 18 -80 18 -15 0 -18 2 -7 4 9 3 17 8 17 13 0 5 6 7 14 4 21 -8 32 17
13 31 -17 12 -13 25 9 25 6 0 15 -12 18 -26z m-104 -25 c0 -18 -2 -19 -15 -9
-8 7 -15 16 -15 21 0 5 7 9 15 9 9 0 15 -9 15 -21z m2465 0 c11 -17 0 -20 -21
-4 -17 13 -17 14 -2 15 9 0 20 -5 23 -11z m-2272 -103 c-15 -13 -30 -22 -32
-20 -7 7 31 44 46 44 8 0 2 -10 -14 -24z m64 -64 c15 -9 33 -84 32 -132 0 -27
-4 -21 -14 29 -8 35 -21 71 -30 81 -24 26 -17 40 12 22z m1000 -74 c-3 -8 -6
-5 -6 6 -1 11 2 17 5 13 3 -3 4 -12 1 -19z m-47 -28 c0 -5 -2 -10 -4 -10 -3 0
-8 5 -11 10 -3 6 -1 10 4 10 6 0 11 -4 11 -10z m-52 -90 c-2 -14 -9 -25 -15
-24 -7 1 -40 2 -72 3 -44 1 -60 5 -65 17 -11 29 5 35 80 32 73 -3 75 -3 72
-28z m-828 -44 c0 -35 3 -78 6 -95 4 -20 3 -31 -5 -31 -6 0 -11 11 -11 24 0
38 -12 86 -21 86 -5 0 -9 -19 -10 -42 -1 -37 -2 -39 -9 -18 -12 36 -12 98 0
105 6 3 10 1 10 -4 0 -6 5 -11 10 -11 6 0 10 11 10 25 0 14 5 25 10 25 6 0 10
-28 10 -64z m477 51 c7 -4 10 -14 6 -23 -4 -10 -9 -12 -18 -4 -7 6 -91 9 -223
7 -135 -1 -213 2 -214 8 -2 6 17 12 42 15 70 8 394 5 407 -3z m-1110 -8 c48
-8 88 -8 159 1 51 6 99 8 105 5 6 -4 62 -7 126 -6 l116 0 -7 -77 c-4 -42 -8
-77 -9 -78 -6 -6 -138 -16 -237 -19 -107 -3 -123 -6 -234 -47 -82 -31 -129
-55 -151 -77 -37 -35 -45 -32 -38 16 5 33 22 43 77 43 28 0 106 37 106 51 0 4
-6 10 -12 13 -9 4 -8 5 2 5 8 -1 40 -1 70 0 41 1 51 4 40 11 -8 6 -43 9 -77 8
-34 -2 -65 1 -70 6 -4 4 37 7 92 6 211 -5 395 0 395 10 0 7 -68 10 -192 9
-106 0 -246 2 -310 6 -115 8 -118 8 -118 31 l0 24 285 0 c172 -1 293 3 303 9
22 13 45 12 -301 11 -273 -1 -288 0 -285 17 3 14 11 17 40 15 20 -2 39 1 43 7
8 13 4 13 82 0z m1376 -46 c-20 -7 -15 -23 10 -33 18 -7 15 -9 -20 -9 -39 -1
-43 1 -43 24 0 22 4 25 33 24 17 0 26 -3 20 -6z m87 -77 c0 -8 6 -17 13 -20 6
-3 -7 -4 -30 -1 -26 3 -43 1 -43 -5 0 -5 -13 -10 -29 -10 -25 0 -28 3 -23 25
4 23 9 25 58 25 40 0 54 -4 54 -14z m-1520 -16 c0 -5 -11 -10 -24 -10 -38 0
-42 -20 -4 -21 18 0 42 -4 52 -8 17 -6 16 -9 -10 -19 -16 -6 -50 -14 -76 -18
-44 -6 -48 -5 -48 15 0 12 6 21 14 21 24 0 30 21 7 27 -40 10 -21 23 34 23 30
0 55 -4 55 -10z m1613 -40 c75 -9 90 -14 112 -33 6 -4 25 -17 43 -27 17 -11
32 -24 32 -30 0 -16 -30 -12 -58 9 -15 10 -38 22 -52 26 -14 4 -38 13 -55 20
-16 7 -56 18 -88 26 -32 7 -61 17 -64 22 -3 5 6 7 23 3 16 -3 64 -11 107 -16z
m-316 -6 c-3 -3 -12 -4 -19 -1 -8 3 -5 6 6 6 11 1 17 -2 13 -5z m1538 -185 c4
-6 5 -12 3 -14 -7 -7 -48 7 -48 16 0 13 37 11 45 -2z m-110 -49 c14 -5 24 -14
21 -19 -7 -10 -56 9 -56 22 0 9 3 9 35 -3z m105 -16 c21 -53 -17 -74 -137 -74
-28 0 -54 4 -57 8 -2 4 26 16 64 26 69 17 97 36 85 56 -3 6 3 10 15 10 13 0
24 -9 30 -26z m-175 -214 c3 -5 -3 -10 -14 -10 -12 0 -21 5 -21 10 0 6 6 10
14 10 8 0 18 -4 21 -10z m80 -20 c3 -5 -1 -10 -9 -10 -9 0 -16 5 -16 10 0 6 4
10 9 10 6 0 13 -4 16 -10z m99 -6 c10 -25 7 -44 -8 -60 -16 -16 -86 -19 -86
-4 0 6 8 10 19 10 22 0 45 25 36 40 -3 5 -3 15 0 20 9 15 32 12 39 -6z m-369
-4 c3 -5 11 -7 18 -5 14 6 77 -30 77 -43 0 -11 -30 -37 -51 -44 -12 -5 -14 0
-11 21 4 30 -26 55 -49 41 -11 -7 -10 -13 9 -30 29 -27 28 -36 -5 -45 -39 -9
-83 -60 -83 -94 0 -41 26 -57 115 -71 110 -17 143 -32 160 -74 8 -19 19 -37
24 -41 7 -4 6 -15 -1 -30 -11 -24 -14 -25 -127 -26 -64 -1 -184 -2 -268 -4
-144 -3 -151 -2 -141 15 13 20 2 59 -11 44 -5 -5 -11 -20 -13 -34 -2 -19 -10
-26 -30 -28 -21 -3 -28 1 -28 13 0 29 -42 65 -75 65 -49 0 -74 24 -72 68 2 36
4 37 65 57 34 10 62 25 62 31 0 12 28 29 43 25 4 0 16 3 25 8 14 7 21 5 31
-11 12 -19 11 -20 -13 -14 -21 5 -28 2 -37 -17 -6 -13 -25 -29 -43 -35 -18 -7
-39 -23 -46 -36 -11 -22 -10 -28 11 -55 14 -17 34 -30 48 -30 28 -1 101 38
101 53 0 18 33 33 60 26 24 -6 43 -50 22 -50 -23 0 -42 13 -42 28 0 14 -2 14
-17 -1 -25 -25 -6 -52 37 -52 27 0 37 6 51 32 20 36 15 73 -11 73 -48 0 -64
29 -38 69 14 23 4 53 -17 45 -8 -3 -15 -2 -15 4 0 6 -3 17 -6 25 -4 11 5 17
38 22 62 11 128 44 128 65 0 30 25 42 102 49 9 0 19 -3 23 -9z m222 -32 c-3
-8 -6 -5 -6 6 -1 11 2 17 5 13 3 -3 4 -12 1 -19z m-457 2 c0 -5 -4 -10 -10
-10 -5 0 -10 5 -10 10 0 6 5 10 10 10 6 0 10 -4 10 -10z m610 -60 c0 -5 -9
-10 -20 -10 -11 0 -20 5 -20 10 0 6 9 10 20 10 11 0 20 -4 20 -10z m-1466 -22
c8 -14 7 -21 -6 -34 -21 -21 -68 -11 -68 14 0 41 52 55 74 20z m1456 -18 c0
-16 -6 -20 -32 -19 l-33 1 30 8 c17 4 26 8 22 9 -5 0 -5 6 -2 11 10 16 15 12
15 -10z m-1390 -31 c0 -18 -2 -19 -15 -5 -8 8 -15 17 -15 20 0 3 7 6 15 6 9 0
15 -9 15 -21z m1385 -19 c8 -12 -52 -12 -80 0 -15 6 -8 9 27 9 26 1 50 -3 53
-9z m-820 -30 c-3 -5 -10 -10 -16 -10 -5 0 -9 5 -9 10 0 6 7 10 16 10 8 0 12
-4 9 -10z m692 -5 c3 -9 3 -18 0 -21 -6 -7 -47 18 -47 28 0 15 41 8 47 -7z
m104 5 c21 0 39 -4 39 -10 0 -5 -7 -10 -15 -10 -8 0 -15 -6 -15 -14 0 -22 -28
-39 -55 -32 -14 4 -25 13 -25 22 0 8 5 12 10 9 14 -9 50 4 50 17 0 6 -12 8
-30 5 -23 -5 -30 -3 -30 9 0 11 6 14 16 10 9 -3 33 -6 55 -6z m-654 -56 c-8
-8 -47 10 -47 22 0 12 5 11 25 -2 14 -9 24 -18 22 -20z m-257 17 c0 -6 -4 -12
-9 -16 -7 -4 -8 -60 -1 -60 1 0 3 -10 4 -23 4 -32 18 -43 64 -49 25 -3 50 -15
63 -29 l22 -24 -74 0 c-41 0 -139 -3 -218 -7 -121 -5 -143 -4 -139 8 5 16 67
49 100 53 4 1 13 7 20 14 6 6 21 12 33 12 27 0 95 62 95 87 0 19 18 43 32 43
4 0 8 -4 8 -9z m948 -26 c1 -17 -3 -25 -14 -25 -8 0 -13 3 -11 8 2 4 7 15 10
25 9 23 12 21 15 -8z m-156 -2 c8 -10 18 -26 22 -37 6 -17 8 -17 24 -3 16 15
21 14 60 -3 42 -19 44 -23 45 -85 l1 -30 -68 -3 -67 -3 6 34 c5 24 2 37 -9 46
-9 8 -16 20 -16 27 0 8 -9 23 -20 34 -12 12 -18 25 -15 30 9 15 20 12 37 -7z
m-582 -13 c0 -5 7 -10 15 -10 28 0 15 -21 -21 -36 -34 -14 -38 -14 -59 6 -32
30 -22 50 26 50 21 0 39 -4 39 -10z m-2169 -165 l34 -14 -37 -1 c-27 0 -38 4
-38 15 0 18 0 18 41 0z"/>
<g>
<path d="M2902 2708 c3 -7 13 -15 24 -17 16 -3 17 -1 5 13 -16 19 -34 21 -29
4z"/>
</g>
<g>
<path d="M2933 2423 c-34 -7 -28 -30 7 -30 22 0 30 5 30 19 0 10 -3 17 -7 17
-5 -1 -18 -4 -30 -6z"/>
</g>
<g>
<path d="M2700 2295 c0 -8 5 -15 10 -15 6 0 10 7 10 15 0 8 -4 15 -10 15 -5 0
-10 -7 -10 -15z"/>
</g>
<g>
<path d="M603 2388 c2 -7 10 -13 17 -13 7 0 15 6 18 13 2 7 -5 12 -18 12 -13
0 -20 -5 -17 -12z"/>
</g>
<g>
<path d="M650 2380 c0 -5 7 -10 15 -10 8 0 15 5 15 10 0 6 -7 10 -15 10 -8 0
-15 -4 -15 -10z"/>
</g>
<g>
<path d="M800 2370 c0 -5 7 -10 15 -10 8 0 15 5 15 10 0 6 -7 10 -15 10 -8 0
-15 -4 -15 -10z"/>
</g>
<g>
<path d="M370 2366 c0 -2 7 -9 15 -16 12 -10 15 -10 15 4 0 9 -7 16 -15 16 -8
0 -15 -2 -15 -4z"/>
</g>
<g>
<path d="M862 2359 c2 -6 8 -10 13 -10 5 0 11 4 13 10 2 6 -4 11 -13 11 -9 0
-15 -5 -13 -11z"/>
</g>
<g>
<path d="M320 2350 c0 -5 5 -10 10 -10 6 0 10 5 10 10 0 6 -4 10 -10 10 -5 0
-10 -4 -10 -10z"/>
</g>
<g>
<path d="M495 2350 c3 -5 13 -10 21 -10 8 0 14 5 14 10 0 6 -9 10 -21 10 -11
0 -17 -4 -14 -10z"/>
</g>
<g>
<path d="M725 2350 c3 -5 13 -10 21 -10 8 0 14 5 14 10 0 6 -9 10 -21 10 -11
0 -17 -4 -14 -10z"/>
</g>
<g>
<path d="M620 2343 c0 -10 43 -33 60 -33 6 0 10 7 10 15 0 8 -6 15 -12 15 -7
0 -23 3 -35 6 -13 4 -23 2 -23 -3z"/>
</g>
<g>
<path d="M150 2329 c0 -11 41 -29 53 -22 18 11 4 30 -23 31 -16 0 -30 -4 -30
-9z"/>
</g>
<g>
<path d="M230 2325 c0 -8 5 -15 10 -15 6 0 10 7 10 15 0 8 -4 15 -10 15 -5 0
-10 -7 -10 -15z"/>
</g>
<g>
<path d="M546 2333 c-11 -11 -6 -23 9 -23 8 0 15 4 15 9 0 13 -16 22 -24 14z"/>
</g>
<g>
<path d="M802 2328 c6 -18 28 -21 28 -4 0 9 -7 16 -16 16 -9 0 -14 -5 -12 -12z"/>
</g>
<g>
<path d="M80 2315 c0 -8 7 -15 15 -15 8 0 15 4 15 9 0 5 -7 11 -15 15 -9 3
-15 0 -15 -9z"/>
</g>
<g>
<path d="M347 2324 c-8 -8 1 -24 14 -24 5 0 9 7 9 15 0 15 -12 20 -23 9z"/>
</g>
<g>
<path d="M460 2320 c0 -5 5 -10 10 -10 6 0 10 5 10 10 0 6 -4 10 -10 10 -5 0
-10 -4 -10 -10z"/>
</g>
<g>
<path d="M30 2310 c0 -5 5 -10 10 -10 6 0 10 5 10 10 0 6 -4 10 -10 10 -5 0
-10 -4 -10 -10z"/>
</g>
<g>
<path d="M850 2310 c0 -5 7 -10 15 -10 8 0 15 5 15 10 0 6 -7 10 -15 10 -8 0
-15 -4 -15 -10z"/>
</g>
<g>
<path d="M256 2281 c-3 -5 9 -11 27 -14 30 -4 46 -2 36 7 -11 9 -58 15 -63 7z"/>
</g>
<g>
<path d="M746 2282 c-3 -6 -1 -14 5 -17 15 -10 25 3 12 16 -7 7 -13 7 -17 1z"/>
</g>
<g>
<path d="M50 2264 c-9 -10 -10 -18 -2 -26 12 -12 32 -2 32 17 0 21 -16 26 -30
9z"/>
</g>
<g>
<path d="M94 2256 c-4 -10 -2 -22 4 -28 8 -8 13 -7 18 6 4 10 2 22 -4 28 -8 8
-13 7 -18 -6z"/>
</g>
<g>
<path d="M136 2263 c-11 -11 -6 -23 9 -23 8 0 15 4 15 9 0 13 -16 22 -24 14z"/>
</g>
<g>
<path d="M460 2261 c0 -6 5 -13 10 -16 6 -3 10 1 10 9 0 9 -4 16 -10 16 -5 0
-10 -4 -10 -9z"/>
</g>
<g>
<path d="M343 2248 c5 -16 59 -16 65 0 2 8 -9 12 -33 12 -25 0 -35 -4 -32 -12z"/>
</g>
<g>
<path d="M574 2238 c3 -13 6 -29 6 -35 0 -7 7 -13 15 -13 16 0 20 16 6 24 -5
3 -7 15 -4 26 4 14 0 20 -12 20 -13 0 -16 -6 -11 -22z"/>
</g>
<g>
<path d="M685 2240 c-3 -6 6 -15 20 -20 35 -13 48 -13 42 3 -2 6 -10 11 -16
10 -6 -2 -11 2 -11 7 0 13 -27 13 -35 0z"/>
</g>
<g>
<path d="M200 2225 c0 -8 7 -15 16 -15 14 0 14 3 4 15 -7 8 -14 15 -16 15 -2
0 -4 -7 -4 -15z"/>
</g>
<g>
<path d="M622 2218 c5 -15 28 -18 29 -3 0 6 -7 12 -17 13 -10 3 -15 -1 -12
-10z"/>
</g>
<g>
<path d="M782 2218 c5 -15 28 -18 29 -3 0 6 -7 12 -17 13 -10 3 -15 -1 -12
-10z"/>
</g>
<g>
<path d="M400 2196 c0 -9 7 -16 16 -16 17 0 14 22 -4 28 -7 2 -12 -3 -12 -12z"/>
</g>
<g>
<path d="M446 2203 c-11 -11 -6 -23 9 -23 8 0 15 4 15 9 0 13 -16 22 -24 14z"/>
</g>
<g>
<path d="M505 2200 c-3 -5 1 -10 9 -10 8 0 18 5 21 10 3 6 -1 10 -9 10 -8 0
-18 -4 -21 -10z"/>
</g>
<g>
<path d="M95 2188 c-12 -31 2 -48 40 -48 29 0 35 4 35 21 0 17 -4 20 -22 16
-14 -4 -26 0 -34 11 -12 16 -13 16 -19 0z"/>
</g>
<g>
<path d="M295 2190 c-3 -5 1 -10 9 -10 9 0 16 5 16 10 0 6 -4 10 -9 10 -6 0
-13 -4 -16 -10z"/>
</g>
<g>
<path d="M690 2180 c0 -5 7 -10 15 -10 8 0 15 5 15 10 0 6 -7 10 -15 10 -8 0
-15 -4 -15 -10z"/>
</g>
<g>
<path d="M193 2165 c-3 -9 -3 -18 -1 -21 9 -9 38 8 38 22 0 19 -29 18 -37 -1z"/>
</g>
<g>
<path d="M780 2170 c0 -5 7 -10 15 -10 8 0 15 5 15 10 0 6 -7 10 -15 10 -8 0
-15 -4 -15 -10z"/>
</g>
<g>
<path d="M40 2145 c0 -8 7 -15 15 -15 8 0 15 7 15 15 0 8 -7 15 -15 15 -8 0
-15 -7 -15 -15z"/>
</g>
<g>
<path d="M500 2150 c0 -5 7 -10 16 -10 8 0 12 5 9 10 -3 6 -10 10 -16 10 -5 0
-9 -4 -9 -10z"/>
</g>
<g>
<path d="M110 2120 c0 -5 6 -10 14 -10 8 0 18 5 21 10 3 6 -3 10 -14 10 -12 0
-21 -4 -21 -10z"/>
</g>
<g>
<path d="M465 2120 c3 -5 10 -10 16 -10 5 0 9 5 9 10 0 6 -7 10 -16 10 -8 0
-12 -4 -9 -10z"/>
</g>
<g>
<path d="M247 2103 c-19 -5 -18 -28 1 -28 5 0 14 -3 18 -7 14 -15 25 -8 22 14
-3 23 -13 28 -41 21z"/>
</g>
<g>
<path d="M391 2101 c-7 -5 -10 -14 -6 -20 5 -9 10 -9 21 0 26 22 14 38 -15 20z"/>
</g>
<g>
<path d="M590 2096 c0 -7 9 -16 20 -19 15 -4 20 0 20 14 0 12 -7 19 -20 19
-11 0 -20 -6 -20 -14z"/>
</g>
<g>
<path d="M302 2088 c5 -15 28 -18 29 -3 0 6 -7 12 -17 13 -10 3 -15 -1 -12
-10z"/>
</g>
<g>
<path d="M80 2062 c0 -23 15 -37 25 -23 3 6 13 7 22 4 11 -4 14 -2 11 8 -3 8
-11 13 -18 11 -7 -1 -18 3 -26 9 -11 9 -14 7 -14 -9z"/>
</g>
<g>
<path d="M340 2015 c0 -7 11 -12 25 -12 14 0 25 5 25 12 0 7 -11 13 -25 13
-14 0 -25 -6 -25 -13z"/>
</g>
<g>
<path d="M203 1995 c-3 -9 2 -24 11 -34 20 -22 20 -31 1 -31 -21 0 -19 -27 3
-39 19 -12 12 -14 -34 -11 -33 1 -50 -12 -39 -30 5 -8 11 -7 21 1 11 9 21 9
39 1 31 -14 31 -22 3 -46 -28 -24 -71 -11 -76 22 -2 13 -9 21 -15 19 -38 -12
13 -77 62 -77 16 0 32 4 35 8 3 5 29 7 58 4 45 -3 56 -1 73 18 24 27 11 53
-31 60 -18 4 -25 8 -17 13 7 4 10 14 6 22 -3 8 0 15 6 15 15 0 14 40 -1 41 -7
1 -21 1 -30 0 -15 -2 -17 3 -12 28 6 29 5 31 -25 31 -19 0 -34 -6 -38 -15z"/>
</g>
<g>
<path d="M100 1984 c0 -8 5 -12 10 -9 6 3 10 10 10 16 0 5 -4 9 -10 9 -5 0
-10 -7 -10 -16z"/>
</g>
<g>
<path d="M44 1958 c-10 -15 5 -25 31 -20 14 2 24 9 22 15 -4 13 -46 17 -53 5z"/>
</g>
<g>
<path d="M370 1940 c0 -5 5 -10 10 -10 6 0 10 5 10 10 0 6 -4 10 -10 10 -5 0
-10 -4 -10 -10z"/>
</g>
<g>
<path d="M90 1910 c0 -5 5 -10 10 -10 6 0 10 5 10 10 0 6 -4 10 -10 10 -5 0
-10 -4 -10 -10z"/>
</g>
<g>
<path d="M398 1813 c-10 -2 -18 -8 -18 -11 0 -9 50 -13 70 -6 13 4 13 6 0 14
-16 10 -24 11 -52 3z"/>
</g>
<g>
<path d="M80 1766 c0 -15 29 -36 49 -36 18 0 12 27 -6 34 -10 3 -24 9 -30 12
-8 3 -13 -1 -13 -10z"/>
</g>
<g>
<path d="M313 1743 c-23 -9 -14 -33 12 -33 18 0 25 5 25 20 0 19 -12 24 -37
13z"/>
</g>
<g>
<path d="M377 1743 c-13 -12 -7 -33 8 -33 8 0 15 9 15 20 0 20 -11 26 -23 13z"/>
</g>
<g>
<path d="M503 1717 c5 -15 57 -18 57 -3 0 7 -13 13 -30 13 -17 0 -29 -5 -27
-10z"/>
</g>
<g>
<path d="M190 1710 c0 -5 5 -10 10 -10 6 0 10 5 10 10 0 6 -4 10 -10 10 -5 0
-10 -4 -10 -10z"/>
</g>
<g>
<path d="M1072 2141 c2 -7 7 -12 11 -12 12 1 9 15 -3 20 -7 2 -11 -2 -8 -8z"/>
</g>
<g>
<path d="M1114 2075 c3 -9 6 -19 6 -21 0 -2 7 -4 16 -4 22 0 13 34 -10 38 -14
3 -17 0 -12 -13z"/>
</g>
<g>
<path d="M1040 2065 c0 -8 9 -15 20 -15 24 0 27 15 4 24 -22 9 -24 8 -24 -9z"/>
</g>
<g>
<path d="M990 2045 c0 -8 5 -15 10 -15 6 0 10 7 10 15 0 8 -4 15 -10 15 -5 0
-10 -7 -10 -15z"/>
</g>
<g>
<path d="M943 2013 c-14 -3 -23 -12 -23 -23 0 -17 5 -19 33 -13 17 3 34 7 36
9 6 5 -8 34 -16 33 -4 -1 -18 -4 -30 -6z"/>
</g>
<g>
<path d="M1136 2013 c-12 -12 -6 -33 9 -33 8 0 15 6 15 14 0 17 -14 28 -24 19z"/>
</g>
<g>
<path d="M1043 1993 c-8 -31 -99 -94 -130 -91 -23 2 -29 -1 -31 -19 -3 -19 1
-23 22 -23 14 0 28 4 31 10 4 6 14 5 28 -3 12 -8 57 -15 102 -16 44 -1 82 -6
83 -11 5 -15 48 -12 62 5 19 22 2 40 -20 20 -17 -16 -19 -15 -22 7 -2 15 -11
24 -25 26 -29 4 -29 18 -2 32 31 17 5 44 -35 36 -20 -4 -26 -3 -17 3 8 5 11
16 8 25 -8 22 -48 20 -54 -1z m-37 -121 c-10 -10 -29 15 -21 28 6 9 10 8 17
-4 6 -10 7 -20 4 -24z"/>
</g>
<g>
<path d="M927 1843 c-13 -12 -7 -33 8 -33 8 0 15 9 15 20 0 20 -11 26 -23 13z"/>
</g>
<g>
<path d="M860 1826 c0 -9 5 -16 10 -16 6 0 10 4 10 9 0 6 -4 13 -10 16 -5 3
-10 -1 -10 -9z"/>
</g>
<g>
<path d="M1067 1833 c-12 -11 14 -33 39 -33 31 0 31 14 -1 28 -30 14 -30 14
-38 5z"/>
</g>
<g>
<path d="M997 1804 c-13 -13 -7 -24 14 -24 11 0 19 5 17 12 -5 14 -22 21 -31
12z"/>
</g>
<g>
<path d="M897 1784 c-8 -8 1 -24 14 -24 5 0 9 7 9 15 0 15 -12 20 -23 9z"/>
</g>
<g>
<path d="M1205 1759 c-4 -6 -5 -13 -2 -16 7 -7 27 6 27 18 0 12 -17 12 -25 -2z"/>
</g>
<g>
<path d="M937 1754 c-8 -8 1 -24 14 -24 5 0 9 7 9 15 0 15 -12 20 -23 9z"/>
</g>
<g>
<path d="M1026 1742 c-2 -4 -1 -14 4 -21 9 -16 61 -3 68 17 4 14 -64 17 -72 4z"/>
</g>
<g>
<path d="M885 1709 c-10 -15 1 -23 20 -15 9 3 13 10 10 16 -8 13 -22 13 -30
-1z"/>
</g>
<g>
<path d="M1775 2150 c-3 -5 1 -10 10 -10 9 0 13 5 10 10 -3 6 -8 10 -10 10 -2
0 -7 -4 -10 -10z"/>
</g>
<g>
<path d="M1827 2154 c-8 -8 1 -24 13 -24 4 0 10 7 14 15 5 15 -14 21 -27 9z"/>
</g>
<g>
<path d="M1890 2141 c0 -5 9 -11 19 -14 14 -3 18 -1 14 9 -6 15 -33 19 -33 5z"/>
</g>
<g>
<path d="M1461 2116 c-12 -15 0 -31 13 -18 4 4 15 7 23 7 9 0 18 6 20 13 6 17
-42 16 -56 -2z"/>
</g>
<g>
<path d="M1855 2120 c-7 -12 2 -30 16 -30 12 0 12 27 0 35 -5 3 -12 1 -16 -5z"/>
</g>
<g>
<path d="M1551 2106 c-10 -11 -9 -16 5 -24 18 -10 14 -14 -31 -37 -29 -15 -31
-51 -3 -69 19 -12 36 -13 97 -5 41 5 79 13 84 18 16 16 3 46 -21 49 -19 3 -23
9 -20 35 3 27 0 32 -19 32 -12 0 -25 4 -29 8 -12 12 -51 8 -63 -7z m35 -101
c18 -15 18 -15 -10 -13 -16 2 -31 9 -34 16 -5 17 20 15 44 -3z m94 5 c0 -5 -7
-10 -16 -10 -8 0 -12 5 -9 10 3 6 10 10 16 10 5 0 9 -4 9 -10z"/>
</g>
<g>
<path d="M1695 2090 c-7 -12 2 -30 16 -30 5 0 9 9 9 20 0 21 -15 27 -25 10z"/>
</g>
<g>
<path d="M1740 2086 c0 -8 5 -18 10 -21 6 -3 10 3 10 14 0 12 -4 21 -10 21 -5
0 -10 -6 -10 -14z"/>
</g>
<g>
<path d="M1780 2075 c0 -8 5 -15 10 -15 6 0 10 7 10 15 0 8 -4 15 -10 15 -5 0
-10 -7 -10 -15z"/>
</g>
<g>
<path d="M1900 2060 c0 -5 5 -10 10 -10 6 0 10 5 10 10 0 6 -4 10 -10 10 -5 0
-10 -4 -10 -10z"/>
</g>
<g>
<path d="M1846 2040 c-16 -5 -33 -7 -38 -4 -9 6 -37 -24 -38 -39 0 -5 15 -5
33 -1 17 4 40 7 50 8 17 1 37 22 37 39 0 8 -6 8 -44 -3z"/>
</g>
<g>
<path d="M1703 1950 c-28 -12 -30 -30 -3 -37 11 -3 20 -9 20 -14 0 -5 -9 -9
-20 -9 -11 0 -20 -7 -20 -15 0 -8 -7 -15 -15 -15 -29 0 -75 -30 -75 -49 0 -20
36 -56 65 -65 11 -3 33 1 49 9 15 8 36 15 46 15 41 0 67 67 30 77 -25 7 -34
36 -20 63 23 42 -5 61 -57 40z m5 -144 c7 -8 -18 -36 -32 -36 -23 0 -49 27
-43 43 5 13 12 14 38 7 17 -5 34 -12 37 -14z"/>
</g>
<g>
<path d="M1850 1940 c0 -5 5 -10 10 -10 6 0 10 5 10 10 0 6 -4 10 -10 10 -5 0
-10 -4 -10 -10z"/>
</g>
<g>
<path d="M1890 1940 c0 -5 5 -10 10 -10 6 0 10 5 10 10 0 6 -4 10 -10 10 -5 0
-10 -4 -10 -10z"/>
</g>
<g>
<path d="M1616 1921 c-4 -5 -2 -12 3 -15 5 -4 12 -2 15 3 4 5 2 12 -3 15 -5 4
-12 2 -15 -3z"/>
</g>
<g>
<path d="M2730 1900 c0 -5 5 -10 10 -10 6 0 10 5 10 10 0 6 -4 10 -10 10 -5 0
-10 -4 -10 -10z"/>
</g>
<g>
<path d="M2760 1899 c0 -5 5 -7 10 -4 6 3 10 8 10 11 0 2 -4 4 -10 4 -5 0 -10
-5 -10 -11z"/>
</g>
<g>
<path d="M2819 1874 c34 -29 39 -48 16 -70 -8 -9 -15 -12 -15 -8 0 3 -7 1 -15
-6 -10 -9 -15 -9 -15 -1 0 6 -7 11 -16 11 -9 0 -22 8 -29 17 -11 15 -13 15
-24 -6 -16 -29 3 -58 25 -40 9 7 14 8 14 1 0 -11 34 -13 89 -5 l34 4 -6 47
c-6 45 -5 46 10 25 19 -27 33 -30 33 -5 0 9 -15 27 -33 40 -37 25 -52 28 -41
10 6 -10 4 -10 -7 0 -7 6 -21 12 -32 12 -15 0 -13 -5 12 -26z"/>
</g>
<g>
<path d="M1775 1880 c3 -5 10 -10 16 -10 5 0 9 5 9 10 0 6 -7 10 -16 10 -8 0
-12 -4 -9 -10z"/>
</g>
<g>
<path d="M1833 1873 c-4 -10 -11 -21 -16 -24 -5 -4 -6 -12 -2 -19 9 -14 45 21
45 45 0 21 -19 19 -27 -2z"/>
</g>
<g>
<path d="M1520 1865 c0 -4 7 -13 15 -22 13 -12 20 -13 45 -1 17 7 30 16 30 20
0 11 -18 10 -24 0 -6 -10 -36 -9 -54 2 -6 4 -12 4 -12 1z"/>
</g>
<g>
<path d="M2625 1693 c4 -87 6 -258 5 -380 -1 -224 4 -298 22 -287 5 3 7 12 4
20 -3 8 -5 60 -5 117 2 425 -6 687 -23 687 -5 0 -7 -60 -3 -157z"/>
</g>
<g>
<path d="M1812 1787 c-15 -18 -5 -27 30 -27 18 0 28 5 28 15 0 8 -4 15 -9 15
-5 0 -16 2 -24 5 -7 3 -19 0 -25 -8z"/>
</g>
<g>
<path d="M1897 1783 c-12 -11 -8 -23 8 -23 8 0 15 7 15 15 0 16 -12 20 -23 8z"/>
</g>
<g>
<path d="M2930 1745 c0 -8 5 -15 10 -15 6 0 10 7 10 15 0 8 -4 15 -10 15 -5 0
-10 -7 -10 -15z"/>
</g>
<g>
<path d="M1590 1740 c0 -5 5 -10 10 -10 6 0 10 5 10 10 0 6 -4 10 -10 10 -5 0
-10 -4 -10 -10z"/>
</g>
<g>
<path d="M1715 1739 c-4 -5 11 -9 31 -9 21 0 34 3 31 7 -11 10 -56 12 -62 2z"/>
</g>
<g>
<path d="M1882 1719 c2 -6 8 -10 13 -10 5 0 11 4 13 10 2 6 -4 11 -13 11 -9 0
-15 -5 -13 -11z"/>
</g>
<g>
<path d="M2746 1714 c-3 -8 -12 -14 -21 -14 -8 0 -15 -7 -15 -16 0 -13 3 -14
13 -5 8 6 29 13 48 15 19 2 34 9 34 16 0 18 -52 22 -59 4z"/>
</g>
<g>
<path d="M2858 1723 c-27 -7 -21 -23 7 -21 14 1 25 8 25 15 0 13 -3 14 -32 6z"/>
</g>
<g>
<path d="M2920 1686 c0 -9 5 -16 10 -16 6 0 10 4 10 9 0 6 -4 13 -10 16 -5 3
-10 -1 -10 -9z"/>
</g>
<g>
<path d="M2430 1670 c0 -5 4 -10 9 -10 6 0 13 5 16 10 3 6 -1 10 -9 10 -9 0
-16 -4 -16 -10z"/>
</g>
<g>
<path d="M2790 1660 c0 -5 5 -10 11 -10 5 0 7 5 4 10 -3 6 -8 10 -11 10 -2 0
-4 -4 -4 -10z"/>
</g>
<g>
<path d="M2830 1660 c0 -5 7 -10 15 -10 8 0 15 5 15 10 0 6 -7 10 -15 10 -8 0
-15 -4 -15 -10z"/>
</g>
<g>
<path d="M2457 1624 l-29 -35 26 -24 c29 -27 33 -37 11 -29 -8 4 -15 10 -15
15 0 16 -36 9 -58 -11 -12 -11 -26 -20 -32 -20 -12 0 -12 0 1 -39 13 -38 41
-47 99 -31 37 10 44 9 56 -7 13 -17 13 -17 14 5 0 14 -8 26 -22 32 -25 9 -24
10 9 14 12 1 20 -1 17 -6 -3 -4 2 -8 10 -8 21 0 29 17 22 46 -5 18 -12 24 -24
20 -11 -4 -22 2 -29 13 -10 16 -9 20 8 24 29 8 27 63 -3 71 -13 3 -25 6 -28 6
-3 0 -18 -16 -33 -36z m-13 -109 c16 -12 17 -17 6 -30 -16 -19 -49 -19 -56 0
-6 15 11 45 25 45 3 0 15 -7 25 -15z"/>
</g>
<g>
<path d="M2340 1633 c-20 -24 -23 -63 -4 -63 8 0 14 10 14 24 0 13 7 26 15 30
8 3 15 10 15 16 0 16 -24 12 -40 -7z"/>
</g>
<g>
<path d="M1850 1620 c0 -5 4 -10 9 -10 6 0 13 5 16 10 3 6 -1 10 -9 10 -9 0
-16 -4 -16 -10z"/>
</g>
<g>
<path d="M2383 1603 c-18 -7 -16 -23 2 -23 8 0 15 7 15 15 0 8 -1 15 -2 14 -2
0 -9 -3 -15 -6z"/>
</g>
<g>
<path d="M2723 1584 c-7 -20 11 -38 32 -30 13 4 14 10 5 26 -13 24 -28 26 -37
4z"/>
</g>
<g>
<path d="M2810 1580 c0 -15 7 -20 29 -20 17 0 33 5 37 11 5 9 -1 10 -20 5 -19
-5 -26 -3 -26 9 0 8 -4 15 -10 15 -5 0 -10 -9 -10 -20z"/>
</g>
<g>
<path d="M1856 1571 c-3 -5 -16 -7 -27 -4 -16 4 -20 2 -17 -8 3 -8 16 -13 29
-11 28 3 45 17 31 26 -6 3 -13 2 -16 -3z"/>
</g>
<g>
<path d="M1895 1570 c-3 -5 1 -10 9 -10 9 0 16 5 16 10 0 6 -4 10 -9 10 -6 0
-13 -4 -16 -10z"/>
</g>
<g>
<path d="M1760 1554 c0 -14 3 -14 15 -4 8 7 15 14 15 16 0 2 -7 4 -15 4 -8 0
-15 -7 -15 -16z"/>
</g>
<g>
<path d="M2280 1550 c0 -24 15 -27 24 -4 9 22 8 24 -9 24 -8 0 -15 -9 -15 -20z"/>
</g>
<g>
<path d="M2225 1540 c-3 -5 -12 -7 -19 -4 -22 8 -30 -16 -12 -34 15 -15 16
-15 16 1 0 11 6 17 17 15 10 -2 19 4 21 15 4 18 -13 24 -23 7z"/>
</g>
<g>
<path d="M1885 1530 c-8 -14 3 -30 21 -30 16 0 16 2 8 24 -7 18 -20 21 -29 6z"/>
</g>
<g>
<path d="M2860 1530 c0 -5 9 -10 20 -10 11 0 20 5 20 10 0 6 -9 10 -20 10 -11
0 -20 -4 -20 -10z"/>
</g>
<g>
<path d="M1930 1515 c0 -8 7 -15 15 -15 8 0 15 7 15 15 0 8 -7 15 -15 15 -8 0
-15 -7 -15 -15z"/>
</g>
<g>
<path d="M2000 1510 c0 -5 5 -10 10 -10 6 0 10 5 10 10 0 6 -4 10 -10 10 -5 0
-10 -4 -10 -10z"/>
</g>
<g>
<path d="M1008 1493 c-67 -2 -108 -8 -108 -14 0 -7 46 -9 143 -5 78 3 157 5
175 6 17 0 32 5 32 10 0 6 -28 9 -67 8 -38 -1 -116 -4 -175 -5z"/>
</g>
<g>
<path d="M2315 1489 c-4 -6 -5 -13 -2 -16 7 -7 27 6 27 18 0 12 -17 12 -25 -2z"/>
</g>
<g>
<path d="M2266 1483 c-12 -12 -6 -33 9 -33 8 0 15 6 15 14 0 17 -14 28 -24 19z"/>
</g>
<g>
<path d="M2752 1478 c3 -7 15 -15 27 -16 16 -3 22 1 19 10 -3 7 -15 15 -27 16
-16 3 -22 -1 -19 -10z"/>
</g>
<g>
<path d="M2890 1475 c0 -8 5 -15 10 -15 6 0 10 7 10 15 0 8 -4 15 -10 15 -5 0
-10 -7 -10 -15z"/>
</g>
<g>
<path d="M1975 1440 c4 -6 11 -8 16 -5 14 9 11 15 -7 15 -8 0 -12 -5 -9 -10z"/>
</g>
<g>
<path d="M2120 1430 c0 -11 5 -20 10 -20 6 0 10 9 10 20 0 11 -4 20 -10 20 -5
0 -10 -9 -10 -20z"/>
</g>
<g>
<path d="M2820 1440 c0 -5 5 -10 10 -10 6 0 10 5 10 10 0 6 -4 10 -10 10 -5 0
-10 -4 -10 -10z"/>
</g>
<g>
<path d="M2740 1423 c0 -14 49 -32 56 -21 8 12 5 14 -28 22 -16 3 -28 3 -28
-1z"/>
</g>
<g>
<path d="M2210 1400 c0 -5 7 -10 15 -10 8 0 15 5 15 10 0 6 -7 10 -15 10 -8 0
-15 -4 -15 -10z"/>
</g>
<g>
<path d="M2370 1395 c0 -9 5 -15 11 -13 6 2 11 8 11 13 0 5 -5 11 -11 13 -6 2
-11 -4 -11 -13z"/>
</g>
<g>
<path d="M2420 1400 c0 -5 5 -10 10 -10 6 0 10 5 10 10 0 6 -4 10 -10 10 -5 0
-10 -4 -10 -10z"/>
</g>
<g>
<path d="M2470 1394 c0 -9 5 -14 12 -12 18 6 21 28 4 28 -9 0 -16 -7 -16 -16z"/>
</g>
<g>
<path d="M2902 1398 c5 -15 58 -24 58 -10 0 5 -10 12 -22 16 -34 9 -40 7 -36
-6z"/>
</g>
<g>
<path d="M2320 1379 c0 -18 2 -19 15 -9 15 12 12 30 -6 30 -5 0 -9 -10 -9 -21z"/>
</g>
<g>
<path d="M2830 1380 c0 -5 5 -10 10 -10 6 0 10 5 10 10 0 6 -4 10 -10 10 -5 0
-10 -4 -10 -10z"/>
</g>
<g>
<path d="M2130 1359 c0 -24 23 -21 28 4 2 10 -3 17 -12 17 -10 0 -16 -9 -16
-21z"/>
</g>
<g>
<path d="M2870 1367 c0 -19 16 -31 24 -18 3 5 -1 14 -9 21 -12 10 -15 10 -15
-3z"/>
</g>
<g>
<path d="M2082 1353 c5 -25 28 -28 28 -4 0 12 -6 21 -16 21 -9 0 -14 -7 -12
-17z"/>
</g>
<g>
<path d="M2228 1363 c-23 -6 -25 -53 -3 -53 9 0 15 -9 15 -25 0 -22 -2 -24
-19 -13 -38 23 -95 -41 -77 -87 3 -8 9 -15 13 -14 21 4 33 -2 33 -16 0 -19 19
-20 26 -1 4 10 16 12 44 9 48 -7 78 3 62 19 -8 8 -7 16 1 29 9 14 7 22 -8 39
-10 11 -25 19 -34 18 -8 -2 -17 5 -19 15 -2 11 3 17 13 17 11 0 15 7 13 21 -4
26 -36 48 -60 42z m-8 -150 c0 -15 -36 -18 -45 -3 -3 5 0 18 7 30 12 19 14 19
26 3 6 -9 12 -23 12 -30z m71 4 c-1 -12 -15 -9 -19 4 -3 6 1 10 8 8 6 -3 11
-8 11 -12z"/>
</g>
<g>
<path d="M2554 1355 c-9 -22 1 -29 15 -11 8 10 9 16 1 21 -5 3 -13 -1 -16 -10z"/>
</g>
<g>
<path d="M1482 1338 c5 -14 63 -36 97 -37 20 -1 21 1 11 14 -7 8 -23 15 -36
15 -12 0 -35 5 -49 10 -20 8 -26 7 -23 -2z"/>
</g>
<g>
<path d="M2485 1339 c-4 -6 -3 -15 3 -21 6 -6 11 -4 15 6 7 18 -9 31 -18 15z"/>
</g>
<g>
<path d="M2820 1340 c0 -5 7 -10 16 -10 8 0 12 5 9 10 -3 6 -10 10 -16 10 -5
0 -9 -4 -9 -10z"/>
</g>
<g>
<path d="M2385 1330 c-3 -5 -1 -10 4 -10 6 0 11 5 11 10 0 6 -2 10 -4 10 -3 0
-8 -4 -11 -10z"/>
</g>
<g>
<path d="M2446 1331 c-4 -7 -5 -15 -2 -18 9 -9 19 4 14 18 -4 11 -6 11 -12 0z"/>
</g>
<g>
<path d="M1260 1323 c0 -6 21 -14 47 -18 141 -21 238 -63 320 -140 18 -16 43
-40 57 -51 30 -26 50 -95 41 -141 -4 -25 -2 -33 8 -33 21 0 27 47 15 108 -9
43 -18 59 -46 80 -20 15 -51 44 -71 65 -50 53 -85 73 -187 103 -104 30 -184
42 -184 27z"/>
</g>
<g>
<path d="M2746 1323 c-11 -11 -6 -23 9 -23 8 0 15 4 15 9 0 13 -16 22 -24 14z"/>
</g>
<g>
<path d="M2893 1319 c-15 -5 -23 -16 -23 -31 l1 -23 19 23 c11 13 21 18 25 12
9 -15 25 -12 25 4 0 19 -20 25 -47 15z"/>
</g>
<g>
<path d="M2140 1300 c0 -5 5 -10 10 -10 6 0 10 5 10 10 0 6 -4 10 -10 10 -5 0
-10 -4 -10 -10z"/>
</g>
<g>
<path d="M462 1290 c-52 -8 -70 -15 -61 -25 8 -8 199 17 199 26 0 10 -63 10
-138 -1z"/>
</g>
<g>
<path d="M1090 1293 c0 -9 33 -19 185 -53 66 -15 113 -32 140 -51 98 -68 150
-159 143 -247 -3 -29 0 -55 5 -59 31 -19 37 110 8 172 -20 43 -73 102 -135
150 -29 23 -68 37 -155 57 -157 37 -191 42 -191 31z"/>
</g>
<g>
<path d="M2090 1285 c0 -9 5 -15 11 -13 6 2 11 8 11 13 0 5 -5 11 -11 13 -6 2
-11 -4 -11 -13z"/>
</g>
<g>
<path d="M2320 1286 c0 -9 7 -16 16 -16 9 0 14 5 12 12 -6 18 -28 21 -28 4z"/>
</g>
<g>
<path d="M2560 1286 c0 -9 5 -16 10 -16 6 0 10 4 10 9 0 6 -4 13 -10 16 -5 3
-10 -1 -10 -9z"/>
</g>
<g>
<path d="M2795 1289 c-4 -6 -5 -13 -2 -16 7 -7 27 6 27 18 0 12 -17 12 -25 -2z"/>
</g>
<g>
<path d="M2370 1280 c0 -5 4 -10 9 -10 6 0 13 5 16 10 3 6 -1 10 -9 10 -9 0
-16 -4 -16 -10z"/>
</g>
<g>
<path d="M2500 1263 c0 -7 9 -13 20 -13 11 0 20 6 20 13 0 7 -9 13 -20 13 -11
0 -20 -6 -20 -13z"/>
</g>
<g>
<path d="M2755 1270 c3 -5 8 -10 11 -10 2 0 4 5 4 10 0 6 -5 10 -11 10 -5 0
-7 -4 -4 -10z"/>
</g>
<g>
<path d="M900 1260 c0 -6 28 -10 68 -10 37 0 73 -5 79 -11 8 -8 13 -8 18 1 4
6 4 14 0 18 -11 11 -165 14 -165 2z"/>
</g>
<g>
<path d="M501 1249 c-35 -6 -73 -16 -85 -24 l-20 -15 20 0 c12 0 34 4 50 10
16 5 51 11 79 12 27 2 49 8 48 13 -3 14 -18 14 -92 4z"/>
</g>
<g>
<path d="M2400 1247 c0 -9 11 -12 35 -9 45 5 45 16 0 19 -23 2 -35 -1 -35 -10z"/>
</g>
<g>
<path d="M215 1221 c-64 -30 -84 -49 -132 -123 -26 -41 -31 -60 -37 -141 -6
-91 -2 -127 14 -127 4 0 10 42 13 93 5 75 12 103 36 151 17 33 39 68 48 79 21
23 130 77 155 77 9 0 20 5 23 10 13 21 -62 9 -120 -19z"/>
</g>
<g>
<path d="M1090 1231 c0 -5 13 -11 30 -14 16 -4 48 -18 70 -33 42 -28 55 -28
44 -1 -13 34 -144 78 -144 48z"/>
</g>
<g>
<path d="M610 1200 c0 -5 11 -10 25 -10 14 0 25 5 25 10 0 6 -11 10 -25 10
-14 0 -25 -4 -25 -10z"/>
</g>
<g>
<path d="M512 1184 c-27 -19 -52 -65 -52 -97 0 -37 51 -76 145 -110 38 -14
183 -34 215 -30 114 16 202 33 226 44 35 17 74 73 74 108 0 52 -58 98 -112 89
-21 -4 -20 -5 14 -20 108 -48 72 -141 -67 -174 -156 -37 -357 -9 -433 61 -34
30 -34 32 -19 61 19 36 51 66 67 62 7 -2 15 3 17 10 7 18 -48 15 -75 -4z"/>
</g>
<g>
<path d="M2065 1160 c4 -6 11 -8 16 -5 14 9 11 15 -7 15 -8 0 -12 -5 -9 -10z"/>
</g>
<g>
<path d="M2375 1160 c3 -5 10 -10 16 -10 5 0 9 5 9 10 0 6 -7 10 -16 10 -8 0
-12 -4 -9 -10z"/>
</g>
<g>
<path d="M2420 1155 c0 -8 5 -15 10 -15 6 0 10 7 10 15 0 8 -4 15 -10 15 -5 0
-10 -7 -10 -15z"/>
</g>
<g>
<path d="M2460 1155 c0 -8 5 -15 10 -15 6 0 10 7 10 15 0 8 -4 15 -10 15 -5 0
-10 -7 -10 -15z"/>
</g>
<g>
<path d="M2490 1156 c0 -8 5 -18 10 -21 6 -3 10 3 10 14 0 12 -4 21 -10 21 -5
0 -10 -6 -10 -14z"/>
</g>
<g>
<path d="M304 1145 c-58 -40 -59 -151 -1 -232 21 -28 43 -54 50 -57 6 -3 26
-15 42 -26 90 -58 215 -99 215 -70 0 6 -9 10 -19 10 -11 0 -32 6 -48 14 -15 8
-54 27 -85 42 -32 16 -58 31 -58 35 0 4 -9 11 -20 14 -11 4 -36 30 -55 58 -29
43 -35 61 -35 104 0 44 5 58 31 88 32 36 22 48 -17 20z"/>
</g>
<g>
<path d="M1266 1152 c-3 -5 8 -24 24 -43 47 -55 38 -132 -22 -185 -35 -31
-151 -100 -190 -113 -19 -6 -63 -12 -99 -12 -35 0 -86 -4 -114 -9 -27 -5 -89
-14 -137 -21 -90 -12 -118 -29 -50 -29 20 0 75 7 122 16 47 9 123 17 170 19
99 3 154 16 202 48 18 12 51 31 72 41 44 23 93 76 102 111 3 14 2 51 -2 81 -7
46 -15 61 -41 81 -17 13 -34 20 -37 15z"/>
</g>
<g>
<path d="M2755 1150 c-8 -13 4 -32 16 -25 12 8 12 35 0 35 -6 0 -13 -4 -16
-10z"/>
</g>
<g>
<path d="M2080 1136 c0 -9 7 -16 16 -16 9 0 14 5 12 12 -6 18 -28 21 -28 4z"/>
</g>
<g>
<path d="M2135 1140 c-3 -5 1 -10 9 -10 9 0 16 5 16 10 0 6 -4 10 -9 10 -6 0
-13 -4 -16 -10z"/>
</g>
<g>
<path d="M2040 1125 c0 -8 7 -15 15 -15 8 0 15 7 15 15 0 8 -7 15 -15 15 -8 0
-15 -7 -15 -15z"/>
</g>
<g>
<path d="M2270 1105 c0 -7 12 -16 26 -19 30 -8 37 -5 29 15 -7 18 -55 21 -55
4z"/>
</g>
<g>
<path d="M2350 1100 c0 -5 5 -10 10 -10 6 0 10 5 10 10 0 6 -4 10 -10 10 -5 0
-10 -4 -10 -10z"/>
</g>
<g>
<path d="M2206 1063 c0 -16 5 -27 10 -26 13 4 12 53 -1 53 -6 0 -10 -12 -9
-27z"/>
</g>
<g>
<path d="M2440 1076 c0 -9 7 -16 16 -16 9 0 14 5 12 12 -6 18 -28 21 -28 4z"/>
</g>
<g>
<path d="M2504 1078 c3 -7 9 -21 12 -30 8 -22 24 -24 24 -3 0 8 -4 15 -10 15
-5 0 -10 7 -10 15 0 8 -5 15 -11 15 -6 0 -8 -6 -5 -12z"/>
</g>
<g>
<path d="M2140 1065 c0 -8 9 -15 20 -15 11 0 20 7 20 15 0 8 -9 15 -20 15 -11
0 -20 -7 -20 -15z"/>
</g>
<g>
<path d="M2065 1060 c-3 -5 -12 -7 -20 -3 -9 3 -15 -1 -15 -10 0 -9 10 -14 25
-14 18 0 25 5 25 18 0 21 -6 24 -15 9z"/>
</g>
<g>
<path d="M2330 1035 c0 -9 5 -15 11 -13 6 2 11 8 11 13 0 5 -5 11 -11 13 -6 2
-11 -4 -11 -13z"/>
</g>
<g>
<path d="M2370 1035 c0 -8 5 -15 10 -15 6 0 10 7 10 15 0 8 -4 15 -10 15 -5 0
-10 -7 -10 -15z"/>
</g>
<g>
<path d="M2270 1010 c0 -5 5 -10 10 -10 6 0 10 5 10 10 0 6 -4 10 -10 10 -5 0
-10 -4 -10 -10z"/>
</g>
<g>
<path d="M2415 1010 c-3 -5 1 -10 10 -10 9 0 13 5 10 10 -3 6 -8 10 -10 10 -2
0 -7 -4 -10 -10z"/>
</g>
<g>
<path d="M2030 999 c0 -5 5 -7 10 -4 6 3 10 8 10 11 0 2 -4 4 -10 4 -5 0 -10
-5 -10 -11z"/>
</g>
<g>
<path d="M2175 1000 c3 -5 8 -10 11 -10 2 0 4 5 4 10 0 6 -5 10 -11 10 -5 0
-7 -4 -4 -10z"/>
</g>
<g>
<path d="M2210 1000 c0 -5 4 -10 9 -10 6 0 13 5 16 10 3 6 -1 10 -9 10 -9 0
-16 -4 -16 -10z"/>
</g>
<g>
<path d="M2352 998 c5 -15 48 -24 48 -10 0 10 -23 22 -42 22 -5 0 -8 -6 -6
-12z"/>
</g>
<g>
<path d="M2461 990 c-12 -11 -27 -18 -31 -15 -4 2 -30 -6 -58 -20 -65 -31 -98
-39 -106 -26 -10 15 -46 14 -65 -2 -25 -21 -98 -47 -189 -67 -46 -10 -91 -25
-101 -34 -16 -15 -67 -29 -151 -42 -24 -4 -47 1 -73 15 -31 16 -43 18 -63 9
-34 -16 -32 -41 4 -34 31 6 123 -16 123 -30 0 -14 32 -4 52 17 10 10 30 19 46
19 16 0 44 11 64 24 19 13 70 31 114 40 43 9 106 30 140 46 51 25 65 29 85 19
19 -8 36 -6 79 9 30 11 70 26 89 33 19 6 44 15 55 20 11 4 28 10 38 13 22 7
13 26 -11 26 -9 -1 -28 -9 -41 -20z"/>
</g>
<g>
<path d="M2888 988 c9 -9 15 -9 24 0 9 9 7 12 -12 12 -19 0 -21 -3 -12 -12z"/>
</g>
<g>
<path d="M2186 963 c-11 -11 -6 -23 9 -23 8 0 15 4 15 9 0 13 -16 22 -24 14z"/>
</g>
<g>
<path d="M2290 959 c0 -5 5 -7 10 -4 6 3 10 8 10 11 0 2 -4 4 -10 4 -5 0 -10
-5 -10 -11z"/>
</g>
<g>
<path d="M1930 946 c0 -15 38 -29 52 -19 5 3 -3 11 -17 19 -34 17 -35 17 -35
0z"/>
</g>
<g>
<path d="M2090 946 c0 -19 39 -31 53 -17 7 7 2 13 -17 21 -35 13 -36 13 -36
-4z"/>
</g>
<g>
<path d="M1874 929 c-3 -6 -2 -15 4 -21 7 -7 14 -3 21 11 10 17 9 21 -3 21 -8
0 -18 -5 -22 -11z"/>
</g>
<g>
<path d="M2057 933 c-12 -11 -8 -23 8 -23 8 0 15 7 15 15 0 16 -12 20 -23 8z"/>
</g>
<g>
<path d="M1960 890 c0 -5 5 -10 10 -10 6 0 10 5 10 10 0 6 -4 10 -10 10 -5 0
-10 -4 -10 -10z"/>
</g>
<g>
<path d="M1860 864 c-9 -10 -10 -18 -2 -26 12 -12 32 -2 32 17 0 21 -16 26
-30 9z"/>
</g>
<g>
<path d="M2133 850 c-34 -10 -64 -16 -67 -13 -3 3 -13 0 -22 -8 -8 -7 -34 -15
-57 -18 -28 -4 -43 -11 -45 -23 -3 -13 4 -16 37 -14 25 1 46 9 53 19 16 20 64
28 61 10 -2 -7 6 -13 17 -13 13 0 18 -5 14 -15 -4 -9 0 -15 10 -15 10 0 16 9
16 25 0 19 -5 25 -22 25 -17 0 -19 3 -10 12 7 7 39 13 76 13 46 0 59 3 51 11
-21 21 -50 22 -112 4z"/>
</g>
<g>
<path d="M1793 853 c-18 -7 -16 -33 1 -33 25 0 46 12 46 26 0 14 -23 17 -47 7z"/>
</g>
<g>
<path d="M80 778 c0 -16 51 -68 67 -68 19 0 16 7 -14 46 -28 34 -53 45 -53 22z"/>
</g>
<g>
<path d="M1863 773 c-13 -2 -23 -11 -23 -19 0 -12 8 -13 38 -8 45 8 54 13 47
25 -6 9 -22 10 -62 2z"/>
</g>
<g>
<path d="M1669 748 c-6 -11 -3 -58 3 -58 4 0 8 6 8 14 0 8 3 21 6 30 5 12 -11
25 -17 14z"/>
</g>
<g>
<path d="M2001 736 c-19 -22 -5 -37 24 -26 14 5 32 7 40 4 10 -4 15 0 15 10 0
9 -6 16 -12 16 -7 0 -22 3 -34 6 -12 3 -26 -1 -33 -10z"/>
</g>
<g>
<path d="M2667 743 c-16 -15 -5 -24 25 -21 41 4 50 28 11 28 -17 0 -33 -3 -36
-7z"/>
</g>
<g>
<path d="M1693 708 c2 -7 10 -13 17 -13 7 0 15 6 18 13 2 7 -5 12 -18 12 -13
0 -20 -5 -17 -12z"/>
</g>
<g>
<path d="M1760 710 c0 -5 5 -10 10 -10 6 0 10 5 10 10 0 6 -4 10 -10 10 -5 0
-10 -4 -10 -10z"/>
</g>
<g>
<path d="M1823 708 c-26 -13 -30 -33 -8 -42 24 -9 17 -26 -10 -26 -13 0 -40
-8 -60 -17 -28 -13 -34 -21 -29 -37 11 -36 23 -41 104 -41 93 1 123 18 118 69
-3 27 -7 31 -36 34 -33 3 -34 5 -28 38 6 29 4 34 -11 33 -10 0 -28 -5 -40 -11z
m87 -108 c0 -23 -25 -27 -33 -6 -5 13 5 23 26 25 4 1 7 -8 7 -19z m-110 -5 c0
-9 -7 -18 -16 -22 -18 -7 -39 11 -30 26 11 17 46 13 46 -4z"/>
</g>
<g>
<path d="M1920 700 c-12 -8 -9 -10 13 -10 16 0 26 4 22 10 -8 12 -16 12 -35 0z"/>
</g>
<g>
<path d="M240 668 c0 -19 96 -65 165 -79 33 -6 93 -20 134 -31 67 -17 249 -31
278 -20 34 12 -8 22 -92 22 -115 0 -378 59 -435 97 -39 26 -50 28 -50 11z"/>
</g>
<g>
<path d="M1313 629 c-26 -9 -28 -21 -11 -49 17 -26 8 -32 -29 -18 -24 9 -38 9
-62 -1 -49 -21 -40 -39 40 -79 45 -23 47 -23 100 -7 30 10 62 27 72 38 16 18
16 22 2 37 -8 9 -15 22 -15 28 0 7 -13 12 -29 12 -23 0 -28 4 -24 19 6 22 -14
31 -44 20z m-39 -93 c25 -13 25 -14 6 -19 -37 -10 -72 7 -53 26 9 10 17 9 47
-7z m130 -5 c9 -14 -18 -31 -41 -25 -28 8 -18 34 12 34 13 0 26 -4 29 -9z"/>
</g>
<g>
<path d="M1425 629 c-10 -15 3 -25 16 -12 7 7 7 13 1 17 -6 3 -14 1 -17 -5z"/>
</g>
<g>
<path d="M1490 610 c0 -5 3 -10 8 -11 4 0 17 -2 30 -5 15 -3 22 1 22 11 0 10
-10 15 -30 15 -16 0 -30 -4 -30 -10z"/>
</g>
<g>
<path d="M1567 613 c-12 -11 -8 -23 8 -23 8 0 15 7 15 15 0 16 -12 20 -23 8z"/>
</g>
<g>
<path d="M82 582 c3 -17 161 -102 191 -102 29 0 19 17 -20 35 -21 10 -69 32
-106 51 -54 26 -68 29 -65 16z"/>
</g>
<g>
<path d="M1182 591 c-25 -7 -27 -28 -2 -23 17 4 36 20 29 25 -2 2 -14 1 -27
-2z"/>
</g>
<g>
<path d="M1548 533 c-10 -2 -18 -8 -18 -13 0 -13 53 -5 58 9 4 11 -8 12 -40 4z"/>
</g>
<g>
<path d="M1602 531 c2 -7 7 -12 11 -12 12 1 9 15 -3 20 -7 2 -11 -2 -8 -8z"/>
</g>
<g>
<path d="M1675 529 c-4 -6 -5 -12 -2 -15 2 -3 7 2 10 11 7 17 1 20 -8 4z"/>
</g>
<g>
<path d="M1713 493 c-13 -2 -23 -9 -23 -15 0 -6 10 -8 23 -4 12 3 25 6 30 6 4
0 7 5 7 10 0 6 -3 9 -7 9 -5 -1 -18 -4 -30 -6z"/>
</g>
<g>
<path d="M1053 443 c-33 -6 -28 -23 7 -23 20 0 30 5 30 15 0 8 -3 14 -7 14 -5
-1 -18 -4 -30 -6z"/>
</g>
<g>
<path d="M1122 439 c2 -6 8 -10 13 -10 5 0 11 4 13 10 2 6 -4 11 -13 11 -9 0
-15 -5 -13 -11z"/>
</g>
<g>
<path d="M1260 431 c0 -6 5 -13 10 -16 6 -3 10 1 10 9 0 9 -4 16 -10 16 -5 0
-10 -4 -10 -9z"/>
</g>
<g>
<path d="M1310 429 c0 -5 5 -7 10 -4 6 3 10 8 10 11 0 2 -4 4 -10 4 -5 0 -10
-5 -10 -11z"/>
</g>
<g>
<path d="M660 1510 c0 -5 5 -10 10 -10 6 0 10 5 10 10 0 6 -4 10 -10 10 -5 0
-10 -4 -10 -10z"/>
</g>
<g>
<path d="M660 1480 c0 -5 5 -10 10 -10 6 0 10 5 10 10 0 6 -4 10 -10 10 -5 0
-10 -4 -10 -10z"/>
</g>
<g>
<path d="M405 1460 c-13 -6 20 -9 93 -9 68 -1 112 3 112 9 0 12 -176 12 -205
0z"/>
</g>
<g>
<path d="M2513 824 c-40 -45 -24 -62 17 -19 15 16 20 29 14 35 -5 5 -18 -1
-31 -16z"/>
</g>
<g>
<path d="M2550 796 c0 -9 7 -16 16 -16 9 0 14 5 12 12 -6 18 -28 21 -28 4z"/>
</g>
<g>
<path d="M2380 735 c0 -8 5 -15 10 -15 6 0 10 7 10 15 0 8 -4 15 -10 15 -5 0
-10 -7 -10 -15z"/>
</g>
<g>
<path d="M2420 740 c0 -5 5 -10 10 -10 6 0 10 5 10 10 0 6 -4 10 -10 10 -5 0
-10 -4 -10 -10z"/>
</g>
<g>
<path d="M2438 683 c-10 -2 -18 -11 -18 -19 0 -15 12 -19 24 -7 4 4 15 8 23 8
9 0 18 6 20 13 5 12 -15 14 -49 5z"/>
</g>
<g>
<path d="M2445 600 c-7 -12 2 -30 16 -30 5 0 9 9 9 20 0 21 -15 27 -25 10z"/>
</g>
<g>
<path d="M2096 591 c-4 -7 -5 -15 -2 -18 9 -9 19 4 14 18 -4 11 -6 11 -12 0z"/>
</g>
<g>
<path d="M2480 590 c0 -5 5 -10 10 -10 6 0 10 5 10 10 0 6 -4 10 -10 10 -5 0
-10 -4 -10 -10z"/>
</g>
<g>
<path d="M2520 580 c0 -5 5 -10 10 -10 6 0 10 5 10 10 0 6 -4 10 -10 10 -5 0
-10 -4 -10 -10z"/>
</g>
<g>
<path d="M2063 563 c-10 -4 -10 -9 0 -24 11 -18 37 -27 37 -11 -1 15 -26 39
-37 35z"/>
</g>
<g>
<path d="M2585 560 c-8 -13 4 -32 16 -25 12 8 12 35 0 35 -6 0 -13 -4 -16 -10z"/>
</g>
<g>
<path d="M2634 556 c-8 -22 3 -33 18 -18 9 9 9 15 0 24 -9 9 -13 7 -18 -6z"/>
</g>
<g>
<path d="M2676 551 c-4 -5 -2 -12 3 -15 5 -4 12 -2 15 3 4 5 2 12 -3 15 -5 4
-12 2 -15 -3z"/>
</g>
<g>
<path d="M2720 540 c0 -5 5 -10 10 -10 6 0 10 5 10 10 0 6 -4 10 -10 10 -5 0
-10 -4 -10 -10z"/>
</g>
<g>
<path d="M2477 523 c-15 -14 -6 -23 24 -23 27 0 30 2 19 15 -13 16 -32 19 -43
8z"/>
</g>
<g>
<path d="M2590 490 c0 -11 5 -20 10 -20 6 0 10 9 10 20 0 11 -4 20 -10 20 -5
0 -10 -9 -10 -20z"/>
</g>
<g>
<path d="M2717 503 c-3 -5 -2 -15 2 -22 7 -10 10 -10 16 -1 4 6 3 16 -3 22 -5
5 -12 6 -15 1z"/>
</g>
<g>
<path d="M2756 501 c-8 -13 4 -42 15 -35 12 7 12 44 0 44 -6 0 -12 -4 -15 -9z"/>
</g>
<g>
<path d="M2640 475 c0 -9 5 -15 11 -13 6 2 11 8 11 13 0 5 -5 11 -11 13 -6 2
-11 -4 -11 -13z"/>
</g>
<g>
<path d="M2217 473 c-13 -12 -7 -33 8 -33 8 0 15 9 15 20 0 20 -11 26 -23 13z"/>
</g>
<g>
<path d="M2420 470 c0 -5 7 -10 15 -10 8 0 15 5 15 10 0 6 -7 10 -15 10 -8 0
-15 -4 -15 -10z"/>
</g>
<g>
<path d="M2480 460 c0 -5 7 -10 15 -10 8 0 15 5 15 10 0 6 -7 10 -15 10 -8 0
-15 -4 -15 -10z"/>
</g>
<g>
<path d="M2540 460 c0 -5 7 -10 16 -10 8 0 12 5 9 10 -3 6 -10 10 -16 10 -5 0
-9 -4 -9 -10z"/>
</g>
<g>
<path d="M2305 451 c-6 -11 9 -23 19 -14 9 9 7 23 -3 23 -6 0 -12 -4 -16 -9z"/>
</g>
</g>
<g>
<path d="M898 5163 c7 -3 16 -2 19 1 4 3 -2 6 -13 5 -11 0 -14 -3 -6 -6z"/>
</g>
<g>
<path d="M973 5163 c15 -2 37 -2 50 0 12 2 0 4 -28 4 -27 0 -38 -2 -22 -4z"/>
</g>
<g>
<path d="M1805 5135 c-5 -2 -129 -5 -275 -7 -162 -2 -265 -7 -265 -13 0 -5 13
-12 28 -15 16 -3 35 -16 45 -32 22 -37 2 -76 -41 -80 -17 -2 -32 -9 -35 -15
-3 -10 26 -13 123 -13 l127 0 -6 -27 c-3 -16 -7 -53 -10 -83 -4 -48 -3 -45 12
25 16 74 20 80 42 80 20 0 26 -6 31 -35 17 -94 76 -350 83 -357 7 -7 64 16 72
29 4 5 -8 3 -24 -6 -17 -9 -33 -16 -35 -16 -5 0 -68 269 -83 353 l-6 37 126 0
c105 0 126 2 126 15 0 10 -10 15 -30 15 -29 0 -30 1 -30 50 0 28 -1 53 -2 57
-2 4 10 10 26 13 17 3 29 9 29 15 -2 11 -13 15 -28 10z m-71 -41 c3 -9 6 -36
6 -60 0 -42 -1 -44 -30 -44 l-30 0 0 60 c0 57 1 60 24 60 13 0 27 -7 30 -16z
m-342 -6 c-9 -9 -15 -9 -24 0 -9 9 -7 12 12 12 19 0 21 -3 12 -12z m107 -31
c33 -68 30 -78 -26 -70 -71 9 -89 40 -52 87 30 38 54 33 78 -17z m80 3 c-26
-47 -36 -49 -49 -14 -18 46 -13 54 31 54 l40 0 -22 -40z m71 1 c0 -57 -8 -71
-41 -71 -35 0 -35 6 -7 65 28 57 48 59 48 6z"/>
</g>
<g>
<path d="M415 5050 c-4 -7 -3 -15 2 -19 5 -3 20 -39 33 -79 27 -85 39 -91 14
-6 -25 87 -40 119 -49 104z"/>
</g>
<g>
<path d="M2580 5020 c0 -5 4 -10 9 -10 5 0 12 -14 16 -31 4 -17 9 -28 12 -25
8 7 -17 76 -28 76 -5 0 -9 -4 -9 -10z"/>
</g>
<g>
<path d="M396 4995 c-3 -9 -6 -22 -5 -28 0 -7 5 -1 10 12 5 13 8 26 5 28 -2 2
-6 -3 -10 -12z"/>
</g>
<g>
<path d="M2410 4979 c0 -8 7 -24 15 -35 14 -18 15 -18 12 4 -4 27 -27 54 -27
31z"/>
</g>
<g>
<path d="M230 4970 c0 -5 5 -10 11 -10 5 0 7 5 4 10 -3 6 -8 10 -11 10 -2 0
-4 -4 -4 -10z"/>
</g>
<g>
<path d="M2562 4950 c0 -14 2 -19 5 -12 2 6 2 18 0 25 -3 6 -5 1 -5 -13z"/>
</g>
<g>
<path d="M2810 4947 c0 -7 -14 -30 -31 -52 l-32 -40 42 43 c41 42 50 62 31 62
-5 0 -10 -6 -10 -13z"/>
</g>
<g>
<path d="M625 4939 c-11 -4 -14 -8 -7 -8 8 -1 10 -6 6 -13 -4 -7 1 -5 11 4 22
21 18 29 -10 17z"/>
</g>
<g>
<path d="M375 4930 c-3 -5 -1 -10 4 -10 6 0 11 5 11 10 0 6 -2 10 -4 10 -3 0
-8 -4 -11 -10z"/>
</g>
<g>
<path d="M2621 4935 c1 -19 18 -51 18 -35 0 8 -4 22 -9 30 -5 8 -9 11 -9 5z"/>
</g>
<g>
<path d="M2715 4920 c-3 -6 1 -7 9 -4 18 7 21 14 7 14 -6 0 -13 -4 -16 -10z"/>
</g>
<g>
<path d="M593 4878 c-22 -25 -43 -61 -43 -76 0 -10 68 -32 96 -31 11 0 -2 6
-29 13 -58 16 -64 21 -45 43 18 22 50 73 45 73 -2 0 -13 -10 -24 -22z"/>
</g>
<g>
<path d="M1020 4835 c0 -8 73 -140 80 -145 4 -3 16 -23 27 -45 35 -69 116
-206 120 -202 2 2 -31 64 -73 138 -121 212 -125 221 -120 227 7 6 -13 32 -25
32 -5 0 -9 -2 -9 -5z"/>
</g>
<g>
<path d="M2051 4804 c-24 -18 -39 -34 -34 -34 6 0 22 9 37 21 38 30 32 7 -16
-60 -24 -33 -59 -83 -78 -111 -19 -28 -55 -78 -79 -111 -24 -33 -41 -62 -39
-65 6 -5 140 177 193 265 6 9 25 36 43 60 30 42 41 72 25 70 -5 0 -28 -16 -52
-35z"/>
</g>
<g>
<path d="M300 4810 c0 -5 5 -10 11 -10 5 0 7 5 4 10 -3 6 -8 10 -11 10 -2 0
-4 -4 -4 -10z"/>
</g>
<g>
<path d="M1075 4800 c4 -6 30 -25 58 -43 79 -50 81 -51 74 -40 -4 6 -36 29
-72 52 -37 22 -63 36 -60 31z"/>
</g>
<g>
<path d="M1482 4770 c0 -14 2 -19 5 -12 2 6 2 18 0 25 -3 6 -5 1 -5 -13z"/>
</g>
<g>
<path d="M165 4773 c-39 -9 -36 -20 10 -33 25 -7 48 -10 51 -7 3 3 -11 9 -32
13 l-39 7 30 13 c30 13 19 16 -20 7z"/>
</g>
<g>
<path d="M2335 4770 c-8 -13 5 -13 25 0 13 8 13 10 -2 10 -9 0 -20 -4 -23 -10z"/>
</g>
<g>
<path d="M2877 4769 c7 -7 15 -10 18 -7 3 3 -2 9 -12 12 -14 6 -15 5 -6 -5z"/>
</g>
<g>
<path d="M684 4763 c4 -4 -10 -13 -31 -19 -24 -8 -30 -12 -17 -13 30 -1 85 19
78 30 -3 5 -12 9 -21 9 -9 0 -13 -3 -9 -7z"/>
</g>
<g>
<path d="M1934 4724 c-18 -14 -18 -15 4 -4 12 6 22 13 22 15 0 8 -5 6 -26 -11z"/>
</g>
<g>
<path d="M251 4719 c18 -11 39 -11 39 0 0 5 -12 9 -26 9 -18 0 -22 -3 -13 -9z"/>
</g>
<g>
<path d="M565 4720 c-8 -13 15 -13 35 0 12 8 11 10 -7 10 -12 0 -25 -4 -28
-10z"/>
</g>
<g>
<path d="M2474 4722 c3 -6 2 -13 -4 -17 -13 -8 -93 -125 -85 -125 17 0 45 22
39 31 -3 6 7 27 23 47 41 52 45 60 32 68 -7 4 -9 3 -5 -4z"/>
</g>
<g>
<path d="M530 4710 c0 -5 12 -26 26 -47 15 -21 25 -33 23 -28 -27 70 -34 85
-41 85 -4 0 -8 -4 -8 -10z"/>
</g>
<g>
<path d="M1232 4694 c10 -10 20 -15 24 -12 3 4 -5 12 -18 18 -22 12 -22 12 -6
-6z"/>
</g>
<g>
<path d="M1452 4643 l-13 -63 -30 15 c-37 20 -37 15 1 -13 l29 -22 16 55 c9
30 15 63 13 73 -2 9 -10 -11 -16 -45z"/>
</g>
<g>
<path d="M1280 4666 c0 -3 14 -12 30 -21 17 -9 30 -13 30 -11 0 3 -13 12 -30
21 -16 9 -30 13 -30 11z"/>
</g>
<g>
<path d="M450 4639 c0 -5 5 -7 10 -4 6 3 10 8 10 11 0 2 -4 4 -10 4 -5 0 -10
-5 -10 -11z"/>
</g>
<g>
<path d="M1783 4630 c-18 -11 -33 -22 -33 -25 0 -2 16 5 35 16 19 12 35 23 35
25 0 6 -3 5 -37 -16z"/>
</g>
<g>
<path d="M370 4628 c0 -7 5 -20 10 -28 8 -12 10 -11 10 7 0 12 -4 25 -10 28
-5 3 -10 0 -10 -7z"/>
</g>
<g>
<path d="M2475 4630 c-3 -6 1 -7 9 -4 18 7 21 14 7 14 -6 0 -13 -4 -16 -10z"/>
</g>
<g>
<path d="M515 4618 c11 -6 30 -20 43 -31 12 -12 22 -15 22 -9 0 13 -58 52 -75
52 -5 0 -1 -6 10 -12z"/>
</g>
<g>
<path d="M2626 4577 c-5 -33 -12 -47 -20 -44 -9 4 -11 -2 -8 -19 2 -13 8 -22
12 -19 11 7 33 101 28 117 -3 7 -8 -9 -12 -35z"/>
</g>
<g>
<path d="M442 4590 c0 -14 2 -19 5 -12 2 6 2 18 0 25 -3 6 -5 1 -5 -13z"/>
</g>
<g>
<path d="M597 4586 c3 -14 11 -27 19 -30 20 -8 17 18 -5 38 -17 16 -18 16 -14
-8z"/>
</g>
<g>
<path d="M190 4590 c0 -5 5 -10 10 -10 6 0 10 5 10 10 0 6 -4 10 -10 10 -5 0
-10 -4 -10 -10z"/>
</g>
<g>
<path d="M392 4560 c0 -14 2 -19 5 -12 2 6 2 18 0 25 -3 6 -5 1 -5 -13z"/>
</g>
<g>
<path d="M431 4533 c0 -17 -5 -35 -11 -38 -13 -8 -13 -45 0 -45 12 0 23 60 17
91 -3 19 -5 18 -6 -8z"/>
</g>
<g>
<path d="M1250 4415 c0 -8 5 -15 10 -15 6 0 10 7 10 15 0 8 -4 15 -10 15 -5 0
-10 -7 -10 -15z"/>
</g>
<g>
<path d="M1826 4422 c-4 -7 9 -15 31 -21 73 -19 136 -32 140 -27 2 2 -31 12
-74 21 -43 10 -81 22 -84 27 -4 7 -9 6 -13 0z"/>
</g>
<g>
<path d="M1180 4390 c-20 -6 -21 -8 -5 -8 11 0 29 3 40 8 25 11 -1 11 -35 0z"/>
</g>
<g>
<path d="M2586 4373 c-3 -10 -7 -40 -10 -68 -5 -49 -5 -49 8 10 7 33 16 53 19
45 3 -8 13 -39 23 -67 10 -29 20 -51 22 -48 7 7 -39 145 -49 145 -4 0 -10 -8
-13 -17z"/>
</g>
<g>
<path d="M406 4364 c-3 -9 -6 -23 -6 -32 0 -14 2 -15 9 -3 8 12 11 8 16 -15
17 -74 26 -104 31 -104 6 0 1 33 -18 123 -10 48 -21 59 -32 31z"/>
</g>
<g>
<path d="M1128 4373 c7 -3 16 -2 19 1 4 3 -2 6 -13 5 -11 0 -14 -3 -6 -6z"/>
</g>
<g>
<path d="M1078 4363 c7 -3 16 -2 19 1 4 3 -2 6 -13 5 -11 0 -14 -3 -6 -6z"/>
</g>
<g>
<path d="M2028 4363 c6 -2 18 -2 25 0 6 3 1 5 -13 5 -14 0 -19 -2 -12 -5z"/>
</g>
<g>
<path d="M1018 4353 c6 -2 18 -2 25 0 6 3 1 5 -13 5 -14 0 -19 -2 -12 -5z"/>
</g>
<g>
<path d="M2088 4353 c7 -3 16 -2 19 1 4 3 -2 6 -13 5 -11 0 -14 -3 -6 -6z"/>
</g>
<g>
<path d="M940 4340 c-20 -6 -21 -8 -5 -8 11 0 29 3 40 8 25 11 -1 11 -35 0z"/>
</g>
<g>
<path d="M2145 4340 c11 -5 29 -8 40 -8 16 0 15 2 -5 8 -34 11 -60 11 -35 0z"/>
</g>
<g>
<path d="M868 4323 c6 -2 18 -2 25 0 6 3 1 5 -13 5 -14 0 -19 -2 -12 -5z"/>
</g>
<g>
<path d="M2260 4315 c30 -7 57 -12 58 -10 6 5 -71 25 -93 24 -11 0 5 -7 35
-14z"/>
</g>
<g>
<path d="M791 4311 c-39 -7 -55 -31 -20 -31 12 0 19 3 15 7 -4 4 10 13 31 19
41 13 29 15 -26 5z"/>
</g>
<g>
<path d="M386 4293 c-6 -14 -5 -15 5 -6 7 7 10 15 7 18 -3 3 -9 -2 -12 -12z"/>
</g>
<g>
<path d="M2315 4295 c-11 -7 -92 -30 -180 -50 -88 -20 -162 -39 -165 -42 -12
-12 238 43 378 83 7 2 10 8 7 14 -8 13 -15 12 -40 -5z"/>
</g>
<g>
<path d="M220 4293 c1 -4 7 -19 15 -33 l14 -25 -3 30 c-2 16 -8 31 -15 33 -6
2 -11 0 -11 -5z"/>
</g>
<g>
<path d="M2430 4256 c16 -25 36 -48 42 -52 6 -4 -1 9 -17 30 -24 31 -26 39
-14 48 11 8 11 9 -3 4 -10 -3 -18 -1 -18 4 0 6 -5 10 -10 10 -6 0 3 -20 20
-44z"/>
</g>
<g>
<path d="M621 4281 c-8 -6 -9 -11 -3 -15 6 -3 14 -1 17 5 9 14 2 20 -14 10z"/>
</g>
<g>
<path d="M2820 4279 c0 -5 5 -7 10 -4 6 3 10 8 10 11 0 2 -4 4 -10 4 -5 0 -10
-5 -10 -11z"/>
</g>
<g>
<path d="M808 4273 c7 -3 16 -2 19 1 4 3 -2 6 -13 5 -11 0 -14 -3 -6 -6z"/>
</g>
<g>
<path d="M2460 4276 c0 -3 9 -10 20 -16 11 -6 20 -8 20 -6 0 3 -9 10 -20 16
-11 6 -20 8 -20 6z"/>
</g>
<g>
<path d="M575 4260 c-3 -5 -2 -10 4 -10 5 0 13 5 16 10 3 6 2 10 -4 10 -5 0
-13 -4 -16 -10z"/>
</g>
<g>
<path d="M895 4255 c33 -8 69 -13 80 -13 30 1 -76 26 -110 26 -18 0 -6 -5 30
-13z"/>
</g>
<g>
<path d="M599 4233 c-8 -10 -21 -27 -29 -38 -15 -20 -15 -20 9 0 21 18 47 55
38 55 -2 0 -10 -8 -18 -17z"/>
</g>
<g>
<path d="M1025 4230 c11 -5 31 -9 45 -9 23 0 23 1 5 9 -11 5 -31 9 -45 9 -23
0 -23 -1 -5 -9z"/>
</g>
<g>
<path d="M2781 4217 c-13 -21 -12 -21 5 -5 10 10 16 20 13 22 -3 3 -11 -5 -18
-17z"/>
</g>
<g>
<path d="M1128 4213 c6 -2 18 -2 25 0 6 3 1 5 -13 5 -14 0 -19 -2 -12 -5z"/>
</g>
<g>
<path d="M1205 4198 c22 -6 42 -12 44 -14 2 -2 -11 -24 -28 -50 -42 -65 -39
-78 4 -18 39 54 49 73 44 78 -2 2 -26 7 -54 10 l-50 5 40 -11z"/>
</g>
<g>
<path d="M1905 4190 l-20 -9 20 0 c11 0 27 4 35 9 13 9 13 10 0 9 -8 0 -24 -4
-35 -9z"/>
</g>
<g>
<path d="M1848 4173 c6 -2 18 -2 25 0 6 3 1 5 -13 5 -14 0 -19 -2 -12 -5z"/>
</g>
<g>
<path d="M1810 4160 c0 -5 5 -10 10 -10 6 0 10 5 10 10 0 6 -4 10 -10 10 -5 0
-10 -4 -10 -10z"/>
</g>
<g>
<path d="M2430 4143 c-14 -3 -29 -8 -34 -13 -4 -5 11 -4 35 1 67 15 66 24 -1
12z"/>
</g>
<g>
<path d="M268 4133 c7 -3 16 -2 19 1 4 3 -2 6 -13 5 -11 0 -14 -3 -6 -6z"/>
</g>
<g>
<path d="M558 4133 c7 -3 16 -2 19 1 4 3 -2 6 -13 5 -11 0 -14 -3 -6 -6z"/>
</g>
<g>
<path d="M1845 4110 c9 -16 18 -30 21 -30 2 0 -2 14 -11 30 -9 17 -18 30 -21
30 -2 0 2 -13 11 -30z"/>
</g>
<g>
<path d="M619 4115 c18 -8 38 -15 45 -15 6 1 -4 7 -23 15 -18 8 -38 15 -45 15
-6 -1 4 -7 23 -15z"/>
</g>
<g>
<path d="M2325 4111 c-6 -11 33 -26 42 -17 4 3 -2 6 -13 6 -16 0 -17 2 -4 10
13 8 13 10 -2 10 -9 0 -19 -4 -23 -9z"/>
</g>
<g>
<path d="M2863 4105 c0 -8 4 -15 9 -15 4 0 8 7 8 15 0 8 -4 15 -8 15 -5 0 -9
-7 -9 -15z"/>
</g>
<g>
<path d="M690 4090 c0 -5 7 -10 15 -10 8 0 15 5 15 10 0 6 -7 10 -15 10 -8 0
-15 -4 -15 -10z"/>
</g>
<g>
<path d="M150 4080 c8 -5 26 -9 40 -9 l25 1 -25 8 c-14 4 -32 8 -40 9 -13 1
-13 0 0 -9z"/>
</g>
<g>
<path d="M2755 4070 c-3 -6 1 -7 9 -4 18 7 21 14 7 14 -6 0 -13 -4 -16 -10z"/>
</g>
<g>
<path d="M230 4060 c8 -5 24 -10 34 -10 26 0 18 6 -19 14 -22 5 -26 4 -15 -4z"/>
</g>
<g>
<path d="M578 4063 c6 -2 18 -2 25 0 6 3 1 5 -13 5 -14 0 -19 -2 -12 -5z"/>
</g>
<g>
<path d="M2477 4053 c-4 -10 -18 -34 -33 -53 -17 -22 -12 -19 14 10 23 25 42
48 42 53 0 14 -18 7 -23 -10z"/>
</g>
<g>
<path d="M1880 4057 c0 -6 91 -152 131 -209 11 -15 19 -30 19 -34 0 -3 9 -17
20 -31 28 -36 25 -46 -7 -27 -22 13 -21 10 7 -14 58 -51 59 -28 2 60 -30 47
-106 168 -128 204 -22 37 -44 62 -44 51z"/>
</g>
<g>
<path d="M540 4034 c0 -5 7 -19 15 -30 8 -10 15 -14 15 -8 0 5 -7 19 -15 30
-8 10 -15 14 -15 8z"/>
</g>
<g>
<path d="M1123 3988 c-40 -60 -48 -78 -21 -46 27 31 62 88 54 88 -2 0 -17 -19
-33 -42z"/>
</g>
<g>
<path d="M1416 4022 c-2 -4 -1 -14 5 -22 7 -12 9 -10 9 8 0 23 -5 28 -14 14z"/>
</g>
<g>
<path d="M1642 3993 c-5 -21 -17 -81 -26 -133 -30 -164 -60 -300 -67 -300 -4
0 -9 14 -13 32 -3 17 -9 28 -13 25 -7 -8 17 -116 27 -122 13 -8 39 110 86 390
8 50 19 100 25 113 l9 23 28 -21 c65 -51 145 -110 148 -110 13 0 -6 17 -83 75
-49 35 -93 65 -100 65 -7 0 -16 -17 -21 -37z"/>
</g>
<g>
<path d="M1364 3988 l-19 -21 28 18 c28 18 33 25 19 25 -5 0 -17 -10 -28 -22z"/>
</g>
<g>
<path d="M2510 3990 c-8 -5 -10 -10 -5 -10 6 0 17 5 25 10 8 5 11 10 5 10 -5
0 -17 -5 -25 -10z"/>
</g>
<g>
<path d="M456 3944 c-9 -26 -16 -54 -16 -62 0 -8 -7 -29 -16 -48 -15 -31 -14
-57 2 -42 6 7 53 192 49 196 -2 2 -10 -18 -19 -44z"/>
</g>
<g>
<path d="M355 3971 c-3 -6 0 -8 9 -5 9 4 16 -2 19 -18 5 -23 5 -23 4 1 -2 26
-21 39 -32 22z"/>
</g>
<g>
<path d="M500 3966 c0 -3 9 -10 20 -16 11 -6 20 -8 20 -6 0 3 -9 10 -20 16
-11 6 -20 8 -20 6z"/>
</g>
<g>
<path d="M584 3955 c11 -47 18 -65 27 -65 13 0 11 11 -12 50 -11 19 -18 26
-15 15z"/>
</g>
<g>
<path d="M2445 3960 c-3 -6 1 -7 9 -4 18 7 21 14 7 14 -6 0 -13 -4 -16 -10z"/>
</g>
<g>
<path d="M2652 3950 c0 -14 2 -19 5 -12 2 6 2 18 0 25 -3 6 -5 1 -5 -13z"/>
</g>
<g>
<path d="M283 3934 c-24 -14 -43 -27 -43 -30 0 -7 78 35 85 46 9 14 5 13 -42
-16z"/>
</g>
<g>
<path d="M2400 3944 c0 -8 5 -12 10 -9 6 4 8 11 5 16 -9 14 -15 11 -15 -7z"/>
</g>
<g>
<path d="M1441 3924 c0 -11 3 -14 6 -6 3 7 2 16 -1 19 -3 4 -6 -2 -5 -13z"/>
</g>
<g>
<path d="M2810 3915 c0 -8 5 -15 10 -15 6 0 10 7 10 15 0 8 -4 15 -10 15 -5 0
-10 -7 -10 -15z"/>
</g>
<g>
<path d="M392 3895 c0 -16 2 -22 5 -12 2 9 2 23 0 30 -3 6 -5 -1 -5 -18z"/>
</g>
<g>
<path d="M1235 3910 c-3 -6 1 -7 9 -4 18 7 21 14 7 14 -6 0 -13 -4 -16 -10z"/>
</g>
<g>
<path d="M2634 3861 c-6 -49 -17 -64 -27 -38 -3 6 -6 8 -6 2 0 -5 4 -17 9 -25
8 -12 11 -13 19 -1 10 15 23 102 17 109 -3 2 -8 -19 -12 -47z"/>
</g>
<g>
<path d="M1130 3849 c-41 -27 -79 -50 -85 -52 -5 -3 -8 -7 -5 -9 3 -3 46 21
95 53 50 32 86 58 80 58 -5 0 -44 -23 -85 -50z"/>
</g>
<g>
<path d="M1451 3884 c0 -11 3 -14 6 -6 3 7 2 16 -1 19 -3 4 -6 -2 -5 -13z"/>
</g>
<g>
<path d="M1874 3871 c20 -22 26 -25 26 -13 0 4 -10 13 -22 21 -23 14 -23 14
-4 -8z"/>
</g>
<g>
<path d="M1036 3864 c-9 -24 -2 -26 12 -4 7 11 8 20 3 20 -5 0 -12 -7 -15 -16z"/>
</g>
<g>
<path d="M401 3844 c0 -11 3 -14 6 -6 3 7 2 16 -1 19 -3 4 -6 -2 -5 -13z"/>
</g>
<g>
<path d="M1461 3844 c0 -11 3 -14 6 -6 3 7 2 16 -1 19 -3 4 -6 -2 -5 -13z"/>
</g>
<g>
<path d="M990 3798 c-24 -37 -31 -58 -17 -58 14 1 57 35 57 46 0 4 -5 3 -12
-4 -21 -21 -31 -13 -14 13 9 14 13 25 9 25 -5 0 -15 -10 -23 -22z"/>
</g>
<g>
<path d="M1471 3804 c0 -11 3 -14 6 -6 3 7 2 16 -1 19 -3 4 -6 -2 -5 -13z"/>
</g>
<g>
<path d="M1957 3809 c7 -7 15 -10 18 -7 3 3 -2 9 -12 12 -14 6 -15 5 -6 -5z"/>
</g>
<g>
<path d="M2560 3790 c0 -5 5 -10 10 -10 6 0 10 5 10 10 0 6 -4 10 -10 10 -5 0
-10 -4 -10 -10z"/>
</g>
<g>
<path d="M2730 3774 c0 -8 5 -12 10 -9 6 3 10 10 10 16 0 5 -4 9 -10 9 -5 0
-10 -7 -10 -16z"/>
</g>
<g>
<path d="M765 3728 c-19 -60 -35 -131 -31 -135 3 -3 13 22 22 56 10 33 21 61
25 61 4 0 15 -29 24 -65 10 -36 22 -65 27 -65 4 0 36 11 70 25 34 14 63 25 66
25 2 0 -5 -16 -17 -36 -12 -19 -17 -33 -12 -29 16 9 71 95 61 95 -4 0 -41 -15
-81 -34 -40 -19 -77 -33 -81 -30 -4 3 -17 36 -29 74 -22 67 -35 84 -44 58z"/>
</g>
<g>
<path d="M1491 3724 c0 -11 3 -14 6 -6 3 7 2 16 -1 19 -3 4 -6 -2 -5 -13z"/>
</g>
<g>
<path d="M2614 3723 c-3 -10 -9 -25 -14 -35 -6 -11 -5 -18 6 -22 15 -6 21 3
26 39 2 11 8 23 13 27 6 4 2 8 -8 8 -10 0 -20 -8 -23 -17z"/>
</g>
<g>
<path d="M2257 3724 c-11 -11 -8 -36 3 -29 8 5 16 -17 34 -99 4 -15 9 -26 12
-23 6 5 -26 139 -36 150 -3 4 -9 4 -13 1z"/>
</g>
<g>
<path d="M1502 3685 c0 -11 3 -29 8 -40 11 -25 11 1 0 35 -6 20 -8 21 -8 5z"/>
</g>
<g>
<path d="M570 3663 c1 -11 79 -160 80 -151 0 4 -13 35 -30 69 -16 34 -28 66
-27 71 1 6 -4 13 -10 15 -7 3 -13 1 -13 -4z"/>
</g>
<g>
<path d="M2233 3627 c-6 -23 -14 -51 -18 -61 -6 -13 -5 -17 2 -13 12 7 38 105
31 113 -3 2 -9 -15 -15 -39z"/>
</g>
<g>
<path d="M2070 3644 c0 -8 5 -12 10 -9 6 4 8 11 5 16 -9 14 -15 11 -15 -7z"/>
</g>
<g>
<path d="M640 3625 c19 -14 36 -25 39 -25 10 0 -53 49 -63 50 -6 0 5 -11 24
-25z"/>
</g>
<g>
<path d="M2453 3643 c4 -3 -3 -21 -14 -40 -12 -19 -19 -36 -16 -39 5 -6 47 62
47 77 0 5 -5 9 -12 9 -6 0 -8 -3 -5 -7z"/>
</g>
<g>
<path d="M2100 3636 c0 -2 8 -10 18 -17 15 -13 16 -12 3 4 -13 16 -21 21 -21
13z"/>
</g>
<g>
<path d="M2100 3580 c6 -11 13 -20 16 -20 2 0 0 9 -6 20 -6 11 -13 20 -16 20
-2 0 0 -9 6 -20z"/>
</g>
<g>
<path d="M2170 3580 c0 -5 5 -10 11 -10 5 0 7 5 4 10 -3 6 -8 10 -11 10 -2 0
-4 -4 -4 -10z"/>
</g>
<g>
<path d="M2350 3580 c-9 -6 -10 -10 -3 -10 6 0 15 5 18 10 8 12 4 12 -15 0z"/>
</g>
<g>
<path d="M904 3525 c-17 -27 -12 -45 14 -45 14 0 15 2 3 9 -12 8 -13 14 -3 35
15 33 7 34 -14 1z"/>
</g>
<g>
<path d="M2392 3530 c-18 -29 -15 -40 11 -40 16 0 18 3 8 9 -8 5 -11 16 -6 30
8 26 3 27 -13 1z"/>
</g>
<g>
<path d="M2145 3490 c-3 -5 -1 -10 4 -10 6 0 11 5 11 10 0 6 -2 10 -4 10 -3 0
-8 -4 -11 -10z"/>
</g>
<g>
<path d="M568 3483 c7 -3 16 -2 19 1 4 3 -2 6 -13 5 -11 0 -14 -3 -6 -6z"/>
</g>
<g>
<path d="M955 3470 c11 -4 36 -12 55 -17 35 -9 35 -9 -38 -27 -40 -10 -74 -22
-77 -26 -2 -4 7 -31 21 -60 14 -29 23 -54 20 -57 -2 -3 -15 0 -28 7 l-23 11
24 -20 c19 -18 21 -24 11 -36 -7 -9 -16 -32 -21 -53 -4 -20 -14 -56 -20 -79
-11 -36 -11 -47 3 -75 l16 -33 -5 46 c-3 26 0 64 8 85 13 40 15 47 17 76 4 42
128 142 197 159 l30 7 -30 1 c-29 1 -127 -47 -140 -69 -12 -19 -24 -10 -45 30
-11 21 -20 43 -20 47 0 5 28 17 63 26 34 10 68 20 75 22 26 9 10 22 -39 33
-58 14 -83 15 -54 2z"/>
</g>
<g>
<path d="M475 3459 c-9 -14 -6 -16 45 -23 l45 -6 -38 13 c-22 6 -35 15 -31 20
4 4 2 7 -4 7 -6 0 -14 -5 -17 -11z"/>
</g>
<g>
<path d="M1990 3450 c-13 -9 -13 -11 0 -20 8 -5 26 -9 40 -9 14 0 18 3 10 6
-46 15 -46 15 -25 23 13 6 15 9 5 9 -8 0 -22 -4 -30 -9z"/>
</g>
<g>
<path d="M2765 3440 c3 -5 8 -10 11 -10 2 0 4 5 4 10 0 6 -5 10 -11 10 -5 0
-7 -4 -4 -10z"/>
</g>
<g>
<path d="M618 3416 c13 -6 20 -16 17 -24 -2 -7 0 -10 5 -7 15 9 12 35 -4 35
-8 0 -20 1 -28 3 -7 2 -3 -1 10 -7z"/>
</g>
<g>
<path d="M2090 3409 c19 -6 37 -12 39 -14 1 -2 -9 -21 -24 -42 l-28 -38 37 40
c39 43 44 55 22 55 -7 0 -29 2 -47 5 l-34 5 35 -11z"/>
</g>
<g>
<path d="M2385 3380 c3 -5 8 -10 11 -10 2 0 4 5 4 10 0 6 -5 10 -11 10 -5 0
-7 -4 -4 -10z"/>
</g>
<g>
<path d="M601 3343 c-12 -16 -25 -33 -31 -40 -12 -14 -13 -33 -2 -33 4 1 18 7
32 16 25 15 25 15 1 8 -26 -7 -25 -4 11 49 11 15 17 27 14 27 -2 0 -14 -12
-25 -27z"/>
</g>
<g>
<path d="M1280 3360 c0 -5 5 -10 11 -10 5 0 7 5 4 10 -3 6 -8 10 -11 10 -2 0
-4 -4 -4 -10z"/>
</g>
<g>
<path d="M1705 3353 c-31 -4 -56 -13 -116 -44 -20 -11 -57 -21 -83 -23 -25 -3
-53 -9 -63 -15 -15 -8 -11 -11 22 -11 l40 -1 -45 -20 c-25 -12 -60 -32 -78
-46 -28 -21 -42 -24 -87 -21 -39 2 -51 0 -44 -8 27 -32 111 -24 154 15 11 10
43 26 72 35 28 10 53 20 55 24 6 13 77 62 90 62 8 0 19 5 25 11 14 14 108 17
190 6 64 -9 110 -19 258 -61 86 -24 195 -52 243 -62 12 -2 46 -26 75 -52 30
-26 78 -67 108 -92 30 -24 84 -76 121 -115 37 -38 68 -66 68 -61 0 11 -155
164 -269 266 -65 58 -147 108 -158 96 -3 -2 -18 0 -34 6 -25 9 -29 15 -31 51
l-1 42 -4 -37 c-5 -42 -18 -47 -70 -27 -22 8 -25 12 -13 21 12 8 11 8 -5 3
-11 -4 -26 -9 -32 -12 -8 -3 -13 2 -13 12 0 12 -5 15 -19 10 -11 -3 -48 1 -83
10 -69 19 -217 46 -233 43 -5 0 -23 -3 -40 -5z"/>
</g>
<g>
<path d="M726 3320 c10 -54 26 -83 18 -35 -3 22 -10 47 -15 55 -7 10 -8 4 -3
-20z"/>
</g>
<g>
<path d="M1046 3319 c-26 -17 -44 -34 -41 -37 2 -3 13 2 22 10 50 43 122 60
164 38 11 -6 19 -7 19 -2 0 12 -35 22 -81 22 -23 0 -52 -11 -83 -31z"/>
</g>
<g>
<path d="M1351 3320 c46 -31 83 -37 109 -19 12 8 8 9 -16 5 -22 -3 -42 2 -70
19 -56 35 -75 31 -23 -5z"/>
</g>
<g>
<path d="M795 3304 c-8 -46 1 -57 10 -12 4 18 13 36 19 40 7 5 5 8 -5 8 -11 0
-19 -12 -24 -36z"/>
</g>
<g>
<path d="M1511 3329 c-18 -6 -31 -12 -28 -15 8 -8 87 8 81 17 -6 10 -8 10 -53
-2z"/>
</g>
<g>
<path d="M1290 3327 c0 -11 80 -66 84 -58 3 5 -11 20 -32 35 -35 24 -52 31
-52 23z"/>
</g>
<g>
<path d="M2290 3278 c0 -36 4 -35 14 5 4 16 2 27 -4 27 -5 0 -10 -14 -10 -32z"/>
</g>
<g>
<path d="M1115 3289 c-12 -6 -27 -20 -34 -31 -13 -21 -13 -21 14 0 15 12 36
22 46 22 11 0 19 5 19 10 0 12 -18 12 -45 -1z"/>
</g>
<g>
<path d="M1240 3275 c0 -2 9 -9 20 -15 16 -9 18 -8 14 5 -5 13 -34 22 -34 10z"/>
</g>
<g>
<path d="M1235 3230 c28 -29 65 -40 65 -20 0 6 -8 10 -18 10 -11 0 -27 9 -37
20 -10 11 -23 20 -28 20 -6 0 2 -13 18 -30z"/>
</g>
<g>
<path d="M781 3233 c-1 -27 -18 -31 -24 -5 -3 11 -5 7 -6 -10 0 -15 3 -29 8
-33 13 -8 33 32 28 53 -3 12 -5 11 -6 -5z"/>
</g>
<g>
<path d="M2610 3242 c0 -16 35 -41 78 -56 23 -8 42 -11 42 -7 0 11 -25 21 -49
21 -10 0 -24 11 -31 25 -13 24 -40 35 -40 17z"/>
</g>
<g>
<path d="M400 3185 c-13 -33 -12 -58 1 -27 5 13 13 20 19 17 5 -3 10 1 10 9 0
27 -20 28 -30 1z"/>
</g>
<g>
<path d="M1064 3183 c-4 -16 -14 -39 -22 -53 l-15 -25 25 25 c27 26 46 80 28
80 -5 0 -13 -12 -16 -27z"/>
</g>
<g>
<path d="M1155 3200 c-3 -4 5 -11 18 -15 21 -8 21 -8 -5 -12 -20 -3 -28 -12
-33 -34 -4 -16 -16 -36 -28 -44 -29 -20 -12 -19 23 1 19 12 26 23 23 35 -6 21
7 25 25 7 9 -9 14 -6 22 13 l10 24 -1 -25 c-2 -40 0 -43 15 -30 11 8 12 18 6
35 -5 13 -7 25 -4 27 2 3 -12 9 -31 15 -19 6 -37 8 -40 3z"/>
</g>
<g>
<path d="M1017 3161 c-19 -33 -21 -41 -8 -41 10 0 36 58 29 65 -2 2 -12 -9
-21 -24z"/>
</g>
<g>
<path d="M432 3150 c0 -8 6 -31 13 -50 9 -23 14 -28 14 -15 0 11 -6 34 -14 50
-7 17 -13 23 -13 15z"/>
</g>
<g>
<path d="M2721 3090 c-1 -72 -2 -76 -33 -103 l-33 -28 43 21 c40 19 42 23 41
63 0 23 -4 60 -8 82 -8 35 -9 32 -10 -35z"/>
</g>
<g>
<path d="M1097 3143 c-4 -3 -7 -11 -7 -17 0 -6 5 -5 12 2 6 6 9 14 7 17 -3 3
-9 2 -12 -2z"/>
</g>
<g>
<path d="M914 3105 c-19 -29 -13 -66 16 -95 26 -26 25 -34 -1 -27 -16 4 -18 3
-8 -9 8 -9 16 -11 28 -5 11 7 26 3 48 -10 18 -11 37 -18 42 -15 5 3 14 -1 21
-9 7 -8 19 -15 28 -15 13 0 12 3 -3 20 -10 11 -13 20 -8 20 10 0 33 50 33 70
0 15 -50 20 -70 8 -26 -17 -25 -43 2 -62 28 -20 7 -21 -30 -2 -38 20 -65 53
-59 71 9 21 -10 19 -22 -2 -10 -17 -11 -16 -12 2 -2 33 2 49 18 68 10 10 12
17 5 17 -6 0 -19 -11 -28 -25z m160 -90 c-4 -8 -8 -15 -10 -15 -2 0 -4 7 -4
15 0 8 4 15 10 15 5 0 7 -7 4 -15z"/>
</g>
<g>
<path d="M205 3109 c-10 -15 3 -25 16 -12 7 7 7 13 1 17 -6 3 -14 1 -17 -5z"/>
</g>
<g>
<path d="M369 3070 c-9 -28 -12 -50 -8 -50 7 0 32 90 26 96 -2 2 -10 -19 -18
-46z"/>
</g>
<g>
<path d="M609 3081 c8 -6 10 -14 5 -22 -6 -12 -5 -12 9 0 23 18 21 26 -5 28
-16 2 -19 0 -9 -6z"/>
</g>
<g>
<path d="M460 3049 c0 -20 16 -43 23 -32 3 4 -1 17 -9 28 -10 13 -14 15 -14 4z"/>
</g>
<g>
<path d="M585 3030 c-3 -5 -1 -10 4 -10 6 0 11 5 11 10 0 6 -2 10 -4 10 -3 0
-8 -4 -11 -10z"/>
</g>
<g>
<path d="M1917 2983 c4 -44 2 -63 -6 -63 -6 0 -11 -9 -11 -19 0 -29 -55 -67
-100 -69 -22 -2 -40 2 -40 7 0 6 -20 24 -45 41 -48 33 -58 28 -24 -11 70 -80
167 -76 229 11 24 34 27 116 6 146 -13 17 -14 12 -9 -43z"/>
</g>
<g>
<path d="M546 2975 c-9 -14 -13 -25 -8 -25 5 0 14 11 20 25 6 14 10 25 8 25
-2 0 -11 -11 -20 -25z"/>
</g>
<g>
<path d="M294 2972 c3 -5 0 -13 -6 -15 -9 -4 -10 -6 -1 -6 17 -1 25 16 12 25
-7 4 -9 3 -5 -4z"/>
</g>
<g>
<path d="M2768 2973 c6 -2 18 -2 25 0 6 3 1 5 -13 5 -14 0 -19 -2 -12 -5z"/>
</g>
<g>
<path d="M2755 2930 c3 -5 11 -10 16 -10 6 0 7 5 4 10 -3 6 -11 10 -16 10 -6
0 -7 -4 -4 -10z"/>
</g>
<g>
<path d="M638 2923 c7 -3 16 -2 19 1 4 3 -2 6 -13 5 -11 0 -14 -3 -6 -6z"/>
</g>
<g>
<path d="M2824 2916 c-8 -22 3 -33 18 -18 9 9 9 15 0 24 -9 9 -13 7 -18 -6z"/>
</g>
<g>
<path d="M670 2911 c0 -5 -14 -12 -31 -16 -17 -4 -28 -9 -26 -12 8 -7 87 19
87 29 0 4 -7 8 -15 8 -8 0 -15 -4 -15 -9z"/>
</g>
<g>
<path d="M1830 2900 c-8 -5 -12 -12 -9 -15 8 -8 39 5 39 16 0 11 -11 11 -30
-1z"/>
</g>
<g>
<path d="M2880 2891 c0 -12 6 -21 16 -21 9 0 14 7 12 17 -5 25 -28 28 -28 4z"/>
</g>
<g>
<path d="M130 2890 c0 -5 7 -10 16 -10 8 0 12 5 9 10 -3 6 -10 10 -16 10 -5 0
-9 -4 -9 -10z"/>
</g>
<g>
<path d="M2930 2875 c0 -8 7 -15 15 -15 8 0 15 7 15 15 0 8 -7 15 -15 15 -8 0
-15 -7 -15 -15z"/>
</g>
<g>
<path d="M2775 2870 c4 -6 11 -8 16 -5 14 9 11 15 -7 15 -8 0 -12 -5 -9 -10z"/>
</g>
<g>
<path d="M273 2845 c0 -8 4 -12 9 -9 4 3 8 9 8 15 0 5 -4 9 -8 9 -5 0 -9 -7
-9 -15z"/>
</g>
<g>
<path d="M535 2850 c3 -5 8 -10 11 -10 2 0 4 5 4 10 0 6 -5 10 -11 10 -5 0 -7
-4 -4 -10z"/>
</g>
<g>
<path d="M2807 2844 c-8 -8 1 -24 14 -24 5 0 9 7 9 15 0 15 -12 20 -23 9z"/>
</g>
<g>
<path d="M2860 2840 c0 -5 5 -10 10 -10 6 0 10 5 10 10 0 6 -4 10 -10 10 -5 0
-10 -4 -10 -10z"/>
</g>
<g>
<path d="M550 2825 c0 -5 5 -17 10 -25 5 -8 10 -10 10 -5 0 6 -5 17 -10 25 -5
8 -10 11 -10 5z"/>
</g>
<g>
<path d="M2619 2805 c-3 -11 -3 -29 0 -41 6 -20 8 -20 41 -8 32 11 34 14 13
18 -17 3 -40 22 -45 36 -3 11 -6 9 -9 -5z"/>
</g>
<g>
<path d="M2956 2801 c-4 -7 -5 -15 -2 -18 9 -9 19 4 14 18 -4 11 -6 11 -12 0z"/>
</g>
<g>
<path d="M2480 2790 c0 -5 5 -10 11 -10 5 0 7 5 4 10 -3 6 -8 10 -11 10 -2 0
-4 -4 -4 -10z"/>
</g>
<g>
<path d="M235 2769 c-4 -6 -5 -12 -2 -15 2 -3 7 2 10 11 7 17 1 20 -8 4z"/>
</g>
<g>
<path d="M453 2765 c-3 -9 -3 -19 1 -22 3 -4 6 1 6 10 0 23 14 21 68 -10 25
-15 42 -22 38 -15 -8 14 -79 52 -96 52 -6 0 -13 -7 -17 -15z"/>
</g>
<g>
<path d="M361 2754 c0 -11 3 -14 6 -6 3 7 2 16 -1 19 -3 4 -6 -2 -5 -13z"/>
</g>
<g>
<path d="M590 2750 c6 -11 8 -25 5 -30 -6 -9 13 -25 21 -17 6 6 -23 67 -32 67
-2 0 0 -9 6 -20z"/>
</g>
<g>
<path d="M2520 2760 c0 -5 5 -10 10 -10 6 0 10 5 10 10 0 6 -4 10 -10 10 -5 0
-10 -4 -10 -10z"/>
</g>
<g>
<path d="M2550 2759 c0 -5 5 -7 10 -4 6 3 10 8 10 11 0 2 -4 4 -10 4 -5 0 -10
-5 -10 -11z"/>
</g>
<g>
<path d="M275 2750 c-3 -6 1 -7 9 -4 18 7 21 14 7 14 -6 0 -13 -4 -16 -10z"/>
</g>
<g>
<path d="M2440 2750 c0 -5 5 -10 10 -10 6 0 10 5 10 10 0 6 -4 10 -10 10 -5 0
-10 -4 -10 -10z"/>
</g>
<g>
<path d="M2390 2740 c0 -5 5 -10 10 -10 6 0 10 5 10 10 0 6 -4 10 -10 10 -5 0
-10 -4 -10 -10z"/>
</g>
<g>
<path d="M206 2724 c-7 -17 5 -18 28 -1 16 12 16 13 -3 14 -10 1 -22 -5 -25
-13z"/>
</g>
<g>
<path d="M2352 2729 c2 -7 10 -15 17 -17 8 -3 12 1 9 9 -2 7 -10 15 -17 17 -8
3 -12 -1 -9 -9z"/>
</g>
<g>
<path d="M441 2718 c0 -9 -4 -25 -7 -35 -5 -17 -5 -17 6 0 6 10 9 25 7 35 -4
15 -5 15 -6 0z"/>
</g>
<g>
<path d="M2574 2708 c-5 -13 -7 -27 -6 -31 1 -5 -7 -21 -18 -37 -22 -31 -26
-50 -10 -50 6 0 10 9 10 20 0 13 7 20 20 20 17 0 20 7 20 50 0 55 -5 62 -16
28z"/>
</g>
<g>
<path d="M374 2695 c3 -16 8 -51 11 -77 7 -51 19 -68 29 -41 4 10 1 20 -9 25
-9 6 -15 24 -16 46 0 20 -5 46 -10 57 -7 16 -8 14 -5 -10z"/>
</g>
<g>
<path d="M2545 2710 c3 -5 8 -10 11 -10 2 0 4 5 4 10 0 6 -5 10 -11 10 -5 0
-7 -4 -4 -10z"/>
</g>
<g>
<path d="M2490 2690 c0 -5 5 -10 10 -10 6 0 10 5 10 10 0 6 -4 10 -10 10 -5 0
-10 -4 -10 -10z"/>
</g>
<g>
<path d="M2673 2678 c3 -13 9 -33 12 -45 12 -39 -22 -27 -36 12 -7 19 -17 35
-21 35 -11 0 -10 -11 3 -49 10 -28 9 -34 -7 -46 -11 -7 -16 -17 -12 -20 8 -8
22 -3 51 17 14 11 19 10 27 -2 8 -12 10 -11 10 8 0 12 5 22 10 22 6 0 10 7 10
15 0 8 -4 15 -9 15 -5 0 -12 14 -16 30 -4 17 -11 30 -17 30 -6 0 -8 -10 -5
-22z"/>
</g>
<g>
<path d="M2380 2681 c0 -6 5 -13 10 -16 6 -3 10 1 10 9 0 9 -4 16 -10 16 -5 0
-10 -4 -10 -9z"/>
</g>
<g>
<path d="M2430 2670 c0 -5 5 -10 10 -10 6 0 10 5 10 10 0 6 -4 10 -10 10 -5 0
-10 -4 -10 -10z"/>
</g>
<g>
<path d="M421 2653 c-1 -6 -4 -20 -7 -30 -5 -17 -5 -17 6 0 6 10 9 23 6 30 -3
9 -5 9 -5 0z"/>
</g>
<g>
<path d="M1485 2640 c3 -5 8 -10 11 -10 2 0 4 5 4 10 0 6 -5 10 -11 10 -5 0
-7 -4 -4 -10z"/>
</g>
<g>
<path d="M1847 2643 c-4 -3 -2 -12 4 -19 13 -16 54 0 44 17 -7 10 -38 12 -48
2z"/>
</g>
<g>
<path d="M2488 2623 c7 -3 16 -2 19 1 4 3 -2 6 -13 5 -11 0 -14 -3 -6 -6z"/>
</g>
<g>
<path d="M2460 2575 c0 -8 5 -15 10 -15 6 0 10 7 10 15 0 8 -4 15 -10 15 -5 0
-10 -7 -10 -15z"/>
</g>
<g>
<path d="M2490 2560 c0 -5 4 -10 9 -10 6 0 13 5 16 10 3 6 -1 10 -9 10 -9 0
-16 -4 -16 -10z"/>
</g>
<g>
<path d="M2475 2342 c-16 -16 -3 -33 23 -30 33 4 37 31 4 33 -12 1 -24 -1 -27
-3z"/>
</g>
<g>
<path d="M2447 2284 c-8 -8 1 -24 14 -24 5 0 9 7 9 15 0 15 -12 20 -23 9z"/>
</g>
<g>
<path d="M743 1963 c-7 -2 -13 -9 -13 -14 0 -4 7 -6 15 -3 10 4 15 0 15 -14 0
-25 11 -34 29 -22 11 6 10 13 -5 34 -20 27 -22 27 -41 19z"/>
</g>
<g>
<path d="M1938 332 c-37 -3 -48 -14 -28 -27 12 -7 -45 -166 -65 -181 -22 -16
-18 -21 13 -19 41 3 44 4 36 16 -3 6 -1 29 6 50 13 37 15 39 56 39 l43 0 7
-50 c6 -49 7 -50 40 -50 19 0 34 5 34 10 0 6 -4 10 -8 10 -10 0 -42 71 -42 93
0 38 -25 106 -39 109 -9 2 -33 2 -53 0z m36 -42 c3 -11 9 -29 12 -40 4 -17 1
-20 -25 -20 -34 0 -36 3 -20 49 13 36 25 40 33 11z"/>
</g>
<g>
<path d="M2130 332 c0 -4 5 -13 11 -19 12 -12 8 -157 -5 -185 -7 -15 -3 -18
28 -18 20 0 36 5 36 10 0 6 -4 10 -10 10 -5 0 -10 23 -10 50 l0 50 34 0 c27 0
36 -5 45 -28 15 -36 55 -79 81 -87 35 -11 35 2 1 31 -17 14 -39 40 -47 57 -15
29 -15 31 6 47 25 19 31 67 9 81 -18 11 -179 12 -179 1z m143 -36 c9 -23 -10
-39 -49 -40 -35 -1 -39 1 -39 24 -1 20 5 26 30 30 36 7 52 3 58 -14z"/>
</g>
<g>
<path d="M1693 323 c-53 -3 -73 -8 -73 -17 0 -9 11 -13 33 -12 l32 1 0 -97 0
-98 42 0 c43 0 52 7 34 26 -6 5 -11 47 -12 93 -2 92 4 103 47 80 27 -14 39 -8
31 16 -4 9 -17 14 -34 13 -15 -1 -61 -4 -100 -5z"/>
</g>
<g>
<path d="M1418 302 c-13 -9 -25 -17 -28 -19 -2 -2 4 -19 14 -38 16 -30 24 -34
64 -37 82 -5 86 -70 4 -76 -32 -2 -43 1 -56 19 -8 13 -17 21 -18 18 -2 -2 -13
-19 -26 -36 l-23 -33 88 0 c107 0 133 13 133 66 0 28 -6 38 -32 54 -18 11 -48
20 -65 20 -28 0 -33 3 -33 25 0 21 5 25 30 25 17 0 39 -6 50 -12 17 -11 22
-10 30 2 5 8 8 15 7 17 -2 1 -28 6 -60 11 -45 7 -61 6 -79 -6z"/>
</g>
<g>
<path d="M384 299 c-11 -19 12 -32 33 -18 32 20 53 5 54 -38 2 -98 -3 -138
-18 -150 -25 -19 -12 -23 47 -16 45 5 50 8 36 18 -14 11 -16 28 -14 101 l3 89
28 3 c19 2 33 -3 41 -14 15 -20 32 -3 22 21 -4 12 -28 15 -115 15 -68 0 -112
-4 -117 -11z"/>
</g>
<g>
<path d="M640 301 c0 -6 5 -13 11 -17 11 -7 5 -156 -8 -190 -4 -11 4 -14 32
-14 33 0 36 2 29 22 -4 12 -6 64 -6 115 l1 93 -29 0 c-17 0 -30 -4 -30 -9z"/>
</g>
<g>
<path d="M806 272 c3 -21 7 -45 9 -54 3 -15 -5 -18 -51 -18 -69 0 -71 -18 -1
-22 l52 -3 0 -45 c0 -43 1 -45 32 -48 32 -3 32 -3 23 29 -5 18 -9 69 -8 113
l1 81 -31 2 c-30 1 -30 0 -26 -35z"/>
</g>
<g>
<path d="M906 301 c-4 -5 -1 -11 5 -13 7 -2 11 -41 12 -104 l1 -101 65 3 c49
2 69 8 85 23 11 12 15 21 9 21 -7 0 -15 -4 -18 -10 -3 -5 -24 -10 -46 -10 -39
0 -39 0 -39 40 0 37 1 39 20 28 26 -17 41 -1 29 31 -7 19 -12 22 -21 13 -21
-21 -28 -13 -28 28 0 39 1 40 34 40 19 0 36 -6 39 -12 3 -10 7 -10 17 -1 24
22 -1 33 -80 33 -43 0 -81 -4 -84 -9z"/>
</g>
<g>
<path d="M2500 141 c0 -16 6 -21 26 -21 33 0 30 33 -4 38 -17 3 -22 -2 -22
-17z"/>
</g>
</g>
</svg>
