<?xml version="1.0" standalone="no"?>
<!DOCTYPE svg PUBLIC "-//W3C//DTD SVG 20010904//EN"
 "http://www.w3.org/TR/2001/REC-SVG-20010904/DTD/svg10.dtd">
<svg version="1.0" xmlns="http://www.w3.org/2000/svg"
 width="300.000000pt" height="522.000000pt" viewBox="0 0 300.000000 522.000000"
 preserveAspectRatio="xMidYMid meet">
<metadata>
Created by potrace 1.15, written by Peter Selinger 2001-2017
</metadata>
<g transform="translate(0.000000,522.000000) scale(0.100000,-0.100000)"
fill="#000000" stroke="none">
<g>
<path d="M2 4137 c2 -920 3 -983 8 -472 3 325 8 581 13 569 4 -11 17 -31 28
-43 20 -21 21 -33 21 -189 -2 -334 -14 -752 -28 -942 -8 -107 -14 -225 -14
-262 0 -99 -19 -83 -23 20 -1 48 -4 -70 -5 -261 -1 -230 1 -346 8 -342 6 4 10
-8 10 -29 0 -20 -4 -36 -10 -36 -15 0 -12 -19 6 -37 13 -14 14 -40 9 -191 -4
-123 -9 -179 -18 -184 -9 -6 -9 -10 2 -17 12 -8 13 -48 7 -248 -4 -131 -10
-321 -12 -423 l-5 -186 38 -16 c61 -25 112 -36 199 -43 49 -4 84 -3 88 3 3 5
55 10 116 11 60 1 121 6 135 11 15 6 38 10 53 9 43 -2 -73 -30 -153 -37 -38
-3 -131 -6 -205 -6 -109 0 -148 4 -202 21 l-68 21 0 -128 0 -128 28 -6 c15 -4
104 -9 197 -12 157 -5 249 1 300 21 19 8 19 8 3 -12 -10 -11 -18 -29 -18 -40
0 -12 -10 -25 -26 -31 -15 -7 -33 -30 -45 -57 l-20 -45 -212 -1 c-155 -1 -195
-4 -147 -9 36 -5 398 -9 805 -11 897 -3 2104 -24 2118 -38 18 -18 -4 -31 -53
-31 -42 0 -52 -4 -66 -25 -21 -33 -13 -50 36 -75 32 -16 41 -26 38 -43 -4 -27
-58 -39 -58 -13 0 9 -7 16 -15 16 -8 0 -15 -4 -15 -9 0 -5 -3 -17 -6 -26 -6
-15 0 -16 47 -12 30 2 64 8 77 12 22 7 22 6 16 -47 -4 -34 -2 -63 4 -74 8 -14
11 268 9 1031 -1 578 -3 869 -4 647 -2 -286 -6 -402 -14 -402 -8 0 -8 -4 -2
-12 16 -20 11 -240 -5 -246 -10 -3 -12 12 -9 65 2 38 0 105 -4 148 -5 44 -11
136 -14 205 -3 69 -8 144 -11 167 -4 37 -3 42 18 46 l23 4 -22 8 c-24 8 -32
35 -10 35 8 0 8 3 -2 9 -18 11 -30 248 -30 608 -1 179 -4 252 -12 255 -9 3 -9
10 0 26 13 24 50 37 81 29 17 -4 20 0 20 24 0 28 -2 29 -45 29 l-45 0 -2 308
c-3 393 1 998 8 1082 3 50 9 69 25 80 32 25 59 73 58 105 -1 28 -3 26 -26 -23
-30 -63 -79 -101 -102 -78 -12 12 -8 25 24 90 20 41 45 78 55 81 9 3 26 15 36
26 17 19 17 20 -2 13 -35 -13 -94 -78 -105 -116 -11 -43 -29 -51 -29 -14 0 31
67 117 114 146 37 22 52 49 18 31 -15 -8 -25 2 -66 70 -50 82 -64 93 -73 59
-3 -10 -17 -45 -32 -77 l-27 -57 -20 59 c-10 32 -24 60 -30 62 -7 2 -20 -19
-30 -47 -10 -28 -23 -49 -29 -47 -5 2 -26 34 -46 71 l-36 67 -16 -25 c-10 -14
-17 -32 -17 -39 0 -8 -7 -20 -15 -27 -8 -7 -15 -18 -15 -25 0 -15 -29 -75 -37
-75 -2 0 -28 20 -56 44 -29 24 -62 48 -74 55 -14 7 -25 25 -29 46 -19 105
-126 313 -197 388 -54 55 -143 112 -152 97 -6 -10 42 -50 60 -50 7 0 18 -7 25
-15 15 -18 8 -18 -45 -4 -52 14 -75 36 -75 70 0 43 17 78 55 115 l35 34 103 0
c518 2 822 -2 839 -11 17 -9 19 -8 16 13 l-3 23 -1497 2 -1498 1 2 -1061z
m1388 1017 c0 -8 6 -14 14 -14 19 0 26 -22 19 -64 -3 -22 -11 -36 -20 -36 -8
0 -13 -6 -11 -12 6 -16 228 -24 228 -8 0 5 -14 10 -31 10 l-30 0 3 53 c3 51 4
52 32 49 20 -3 27 0 24 10 -3 9 -33 14 -104 18 -178 9 -75 15 209 12 l277 -3
-21 -22 c-28 -29 -59 -91 -59 -117 0 -36 29 -79 67 -99 l37 -18 -100 -8 c-404
-31 -907 -15 -951 29 -4 4 6 19 21 34 19 18 30 23 33 15 8 -23 85 -15 126 12
47 33 53 80 17 142 -10 17 -17 33 -15 35 2 1 55 2 119 0 93 -3 116 -6 116 -18z
m130 -38 c0 -13 3 -38 6 -55 6 -30 6 -31 -30 -31 l-36 0 0 55 c0 54 0 55 30
55 25 0 30 -4 30 -24z m-392 -64 c3 -11 0 -11 -16 -1 -16 10 -25 9 -54 -9 -40
-25 -48 -27 -48 -12 0 15 60 40 89 37 14 -1 26 -8 29 -15z m1012 -179 c0 -16
-22 -17 -37 -2 -6 6 -26 14 -45 18 l-33 8 45 10 c47 10 70 -1 70 -34z m-1165
0 c0 -21 5 -29 22 -31 17 -3 24 3 29 23 5 19 12 25 27 23 22 -3 37 -28 16 -28
-17 0 -49 -30 -49 -47 0 -10 7 -12 20 -9 11 3 29 9 40 12 15 4 20 1 20 -15 0
-13 -8 -21 -22 -23 -17 -2 -24 -11 -26 -30 -4 -34 21 -39 40 -8 13 21 38 27
38 10 0 -5 -11 -19 -24 -32 -43 -42 -41 -77 4 -63 11 3 23 17 26 31 7 27 19
31 28 9 14 -37 53 -3 41 36 -6 19 2 23 28 13 13 -5 13 -9 1 -32 -8 -15 -14
-35 -14 -44 0 -22 19 -33 33 -19 8 8 17 5 34 -11 18 -17 24 -18 28 -7 8 21
-28 86 -45 82 -9 -3 -7 2 4 11 24 19 39 21 33 4 -5 -15 23 -68 35 -68 17 0 19
29 3 59 -15 31 -15 32 12 56 45 39 58 32 23 -12 -24 -30 -26 -53 -5 -53 23 0
55 37 48 56 -5 14 -3 15 17 4 16 -9 19 -15 11 -23 -13 -13 -15 -47 -2 -47 5 0
16 11 25 25 24 37 46 32 46 -10 0 -29 4 -35 18 -33 12 2 18 -5 20 -24 4 -35
-26 -49 -87 -41 -37 5 -69 23 -42 23 16 0 13 21 -5 41 -17 19 -54 14 -54 -7 0
-7 10 -20 21 -28 21 -14 20 -15 -21 -35 -42 -20 -43 -20 -68 -1 -30 24 -48 25
-56 4 -5 -13 -11 -12 -37 10 -30 25 -59 34 -59 18 0 -5 -27 -8 -60 -8 -38 1
-60 5 -60 12 0 7 7 14 15 18 8 3 15 15 15 26 0 15 -7 20 -25 20 -29 0 -31 6
-10 26 23 23 18 41 -12 49 -21 5 -31 1 -44 -17 l-17 -22 1 34 c2 26 -2 35 -17
38 -16 3 -18 0 -12 -22 l7 -27 -28 18 c-15 9 -30 18 -32 19 -1 2 0 8 4 14 5 8
10 8 20 0 18 -15 31 6 15 25 -15 18 -5 35 20 35 10 0 22 5 25 10 11 18 21 10
20 -17z m1045 18 c0 -5 -8 -12 -17 -16 -17 -6 -17 -8 2 -22 19 -15 19 -15 -5
-8 -49 14 -65 11 -68 -12 -2 -13 1 -23 7 -23 6 0 11 5 11 10 0 6 7 10 17 10
15 0 15 -2 -1 -19 -17 -19 -17 -20 7 -36 17 -11 23 -22 20 -35 -7 -25 -23 -26
-23 -2 -1 24 -24 52 -45 52 -14 0 -16 6 -12 28 3 15 7 36 9 47 2 14 13 22 38
26 55 10 60 10 60 0z m-136 -17 c9 -24 7 -84 -3 -84 -5 0 -17 -3 -27 -7 -15
-6 -16 -2 -10 35 4 27 2 42 -4 42 -16 0 -32 -51 -25 -78 4 -17 0 -28 -12 -38
-22 -17 -41 -18 -25 -2 18 18 14 38 -8 38 -24 0 -53 -41 -44 -64 8 -20 0 -20
-32 1 -21 13 -27 14 -34 3 -12 -20 11 -50 38 -50 14 0 22 -5 20 -12 -7 -21
-24 -19 -51 6 -14 13 -34 26 -43 28 -10 2 -19 9 -22 17 -3 9 1 11 14 7 13 -4
23 1 31 13 11 17 9 21 -6 26 -11 3 -24 4 -31 3 -7 -2 -15 3 -17 10 -3 7 5 12
21 12 16 0 26 6 26 15 0 24 -56 19 -74 -7 -9 -12 -19 -19 -23 -15 -3 4 3 16
15 27 21 20 30 60 14 60 -5 0 -18 -9 -30 -20 -19 -18 -22 -19 -30 -3 -9 15
-11 15 -26 1 -9 -9 -16 -25 -16 -34 0 -14 -3 -15 -12 -6 -9 9 -9 15 0 24 7 7
12 20 12 30 0 16 10 18 101 18 91 0 100 -2 95 -17 -3 -10 -7 -35 -10 -55 l-6
-37 36 3 c37 3 56 20 47 43 -4 10 1 13 18 8 30 -7 58 10 43 25 -16 16 -72 1
-79 -21 -11 -35 -32 -22 -30 19 l3 37 88 6 c49 3 92 6 95 7 4 1 10 -5 13 -14z
m-694 -3 c0 -5 -7 -14 -15 -21 -8 -7 -15 -19 -15 -26 0 -8 -6 -14 -13 -14 -9
0 -12 11 -9 35 3 29 8 35 28 35 13 0 24 -4 24 -9z m232 -18 c10 -9 18 -23 18
-32 -1 -12 -5 -11 -19 7 -22 26 -53 29 -71 7 -16 -19 -5 -34 12 -17 14 14 28
16 28 3 0 -17 -63 -56 -68 -43 -6 18 -19 14 -25 -8 -9 -37 -23 -21 -23 27 1
53 -17 68 -35 29 -12 -25 -37 -41 -47 -31 -3 3 0 11 6 17 7 7 12 22 12 35 0
22 2 23 97 23 76 0 100 -4 115 -17z m764 -30 c-7 -7 -26 7 -26 19 0 6 6 6 15
-2 9 -7 13 -15 11 -17z m-62 -15 c-3 -4 -14 -8 -24 -8 -10 0 -21 4 -24 8 -3 5
8 9 24 9 16 0 27 -4 24 -9z m-604 -12 c0 -3 -4 -8 -10 -11 -5 -3 -10 -1 -10 4
0 6 5 11 10 11 6 0 10 -2 10 -4z m540 -21 c14 -17 50 -20 50 -5 0 6 5 10 10
10 19 0 10 -21 -14 -29 -13 -5 -26 -17 -30 -27 -5 -14 -10 -9 -26 22 -11 21
-20 40 -20 41 0 9 19 1 30 -12z m-138 -30 c13 -18 8 -25 -17 -25 -21 0 -25 5
-25 31 0 29 2 30 18 18 9 -8 20 -18 24 -24z m-732 5 c0 -5 -7 -10 -16 -10 -8
0 -12 5 -9 10 3 6 10 10 16 10 5 0 9 -4 9 -10z m-257 -19 c18 -18 -1 -24 -35
-11 -50 20 -55 30 -14 26 21 -2 42 -8 49 -15z m53 -5 c-3 -13 -9 -31 -12 -40
-7 -17 11 -22 21 -6 6 10 45 14 45 5 0 -3 -9 -14 -20 -25 -29 -29 -17 -40 38
-39 26 0 56 -2 67 -4 11 -3 30 -6 43 -6 42 -2 22 -21 -22 -21 -29 0 -52 -7
-67 -20 l-24 -19 51 1 c31 0 69 -7 99 -21 45 -20 47 -22 29 -35 -14 -11 -22
-11 -32 -4 -9 8 -10 13 -2 18 12 7 -36 20 -75 20 -21 0 -65 -30 -65 -44 0 -3
26 -6 58 -6 49 0 63 -4 91 -28 l34 -28 -67 4 c-63 4 -69 3 -106 -27 -21 -17
-42 -31 -46 -31 -4 0 -4 39 -1 86 8 130 -15 179 -77 167 -27 -6 -29 -5 -18 9
11 14 9 20 -10 38 l-23 21 29 -3 c26 -3 30 1 38 30 5 17 13 32 19 32 7 0 9
-10 5 -24z m1041 -16 c-3 -22 -3 -40 -1 -40 3 0 19 7 35 16 39 20 49 11 21
-19 -29 -30 -31 -91 -4 -82 38 11 102 13 134 3 39 -12 95 -54 85 -64 -4 -4
-13 1 -21 11 -11 15 -21 17 -72 11 -66 -8 -104 -35 -104 -74 0 -22 2 -23 43
-17 34 6 40 5 30 -6 -22 -23 -14 -31 25 -25 45 8 96 -5 100 -25 2 -12 -7 -15
-40 -14 -24 1 -58 -6 -78 -16 -40 -20 -90 -70 -90 -91 0 -8 -5 -6 -11 5 -8 13
-7 43 1 102 17 121 -1 185 -52 185 -23 0 -28 -5 -34 -35 -3 -20 -3 -70 0 -113
11 -117 35 -185 56 -152 8 13 10 13 10 -2 0 -9 5 -18 10 -20 17 -5 17 -88 0
-100 -12 -8 -11 -9 3 -4 10 3 23 6 28 6 5 0 9 10 9 21 0 18 2 19 15 9 13 -10
19 -10 33 2 26 23 58 30 102 23 l40 -7 -1 -46 c-1 -26 -4 -58 -9 -72 -6 -22
-8 -23 -15 -7 -11 27 -62 49 -95 42 -51 -11 -69 -100 -36 -179 l16 -39 63 5
64 5 2 -44 c1 -33 -3 -45 -16 -50 -9 -4 -19 -1 -21 5 -2 7 -17 12 -32 12 -16
0 -32 5 -35 10 -3 6 -25 10 -48 10 -75 0 -115 51 -119 153 -3 64 13 91 49 84
13 -2 23 -1 23 4 0 11 -50 49 -65 49 -7 0 -15 10 -17 23 -3 17 2 26 19 34 27
13 31 0 8 -24 -9 -8 -13 -18 -9 -22 4 -3 9 0 11 7 3 6 11 12 19 12 9 0 14 11
14 29 0 38 -10 43 -43 26 l-27 -14 0 42 c0 24 -7 52 -15 64 -20 28 -112 50
-143 34 -27 -15 -32 -14 -32 4 0 19 80 55 121 55 51 0 35 24 -31 47 -34 12
-34 12 18 7 41 -4 52 -2 52 10 0 21 -75 56 -120 56 -48 0 -51 14 -7 36 28 15
53 19 150 23 9 1 17 5 17 11 0 15 -62 81 -84 90 -19 8 -19 9 5 9 15 1 32 -6
39 -14 20 -24 28 -18 35 25 4 22 11 40 17 40 7 0 9 -15 5 -40z m188 30 c3 -5
-3 -18 -15 -30 -20 -20 -20 -20 -20 0 0 11 5 20 11 20 5 0 7 5 4 10 -3 6 -2
10 4 10 5 0 12 -4 16 -10z m-628 -45 c12 -32 12 -47 3 -73 -14 -39 -16 -35 37
-50 47 -14 118 -67 129 -97 14 -36 6 -153 -12 -180 -19 -29 -93 -65 -134 -65
-15 0 -33 -7 -40 -14 -20 -25 -130 -11 -115 15 9 14 -88 -2 -106 -17 -8 -8
-21 -14 -27 -14 -6 0 -14 -11 -18 -25 -4 -16 -13 -25 -26 -25 -18 0 -18 2 6
30 22 26 26 60 8 60 -15 0 -42 -36 -42 -55 0 -25 -21 -38 -46 -28 -13 5 -12 9
9 29 18 16 23 30 20 48 -3 14 -9 26 -12 26 -14 0 -53 -49 -47 -58 8 -14 -4
-43 -15 -37 -4 3 -5 13 -2 21 5 13 1 15 -18 9 -39 -12 -43 -11 -47 13 -3 20
-1 21 22 11 30 -14 56 1 56 33 0 26 -29 68 -47 68 -10 0 -12 6 -8 21 6 17 4
20 -12 15 -30 -9 -27 39 3 53 23 10 24 9 18 -14 -5 -21 -3 -25 18 -25 13 0 29
5 36 12 19 19 27 0 9 -20 -21 -23 -22 -62 -3 -62 8 0 18 5 21 10 9 15 25 12
25 -4 0 -8 16 -20 35 -26 19 -6 41 -21 49 -32 9 -13 19 -17 28 -12 7 5 25 7
40 5 46 -4 31 16 -16 23 -47 7 -78 33 -95 79 -14 36 -14 104 -1 120 6 7 25 37
43 67 41 70 69 84 142 71 47 -9 60 -8 88 8 39 22 46 54 18 92 -25 34 -26 41
-4 37 9 -2 22 -21 30 -43z m239 13 c16 -26 21 -98 7 -109 -10 -9 -13 -8 -13 5
0 9 -8 16 -20 16 -23 0 -29 -36 -7 -42 11 -2 11 -9 -2 -38 -13 -31 -15 -32
-19 -13 -2 16 -11 23 -34 25 -32 3 -59 31 -44 45 4 4 12 0 17 -10 12 -21 45
-22 53 -1 7 18 -8 50 -26 56 -6 2 -9 9 -5 15 5 7 19 5 44 -8 25 -13 40 -16 47
-9 16 16 -7 45 -34 45 -28 0 -38 21 -13 28 32 8 42 7 49 -5z m442 -33 c14 -30
3 -32 -35 -8 -23 16 -24 17 -7 24 29 11 30 11 42 -16z m-366 -20 c3 -24 0 -35
-9 -35 -8 0 -13 13 -13 35 0 19 4 35 9 35 5 0 11 -16 13 -35z m-1005 3 c8 -9
12 -21 9 -27 -10 -16 -36 -13 -36 3 0 23 -19 29 -36 12 -22 -22 -37 -10 -16
13 20 21 57 21 79 -1z m1230 -3 c-4 -8 -1 -17 5 -21 11 -7 -8 -24 -29 -24 -16
0 -17 32 -1 48 17 17 31 15 25 -3z m-1972 -46 c-35 -92 -42 -109 -48 -115 -15
-15 -6 26 16 77 13 30 27 63 31 73 3 10 9 17 12 14 2 -3 -3 -25 -11 -49z m73
-22 c32 -71 32 -72 7 -46 -25 24 -62 119 -47 119 4 0 22 -33 40 -73z m202 66
c0 -14 -48 -144 -55 -151 -13 -12 4 73 20 104 8 16 15 35 15 42 0 6 5 12 10
12 6 0 10 -3 10 -7z m90 -127 c0 -16 -46 59 -58 93 -7 19 -12 37 -12 40 1 8
69 -122 70 -133z m1681 124 c31 -17 25 -42 -8 -34 -35 9 -35 8 -27 28 7 19 9
19 35 6z m-231 -22 c0 -13 -23 -5 -28 10 -2 7 2 10 12 6 9 -3 16 -11 16 -16z
m-336 -7 c3 -4 3 -11 0 -14 -8 -8 -34 3 -34 14 0 11 27 12 34 0z m651 -1 c3
-5 1 -10 -4 -10 -6 0 -11 5 -11 10 0 6 2 10 4 10 3 0 8 -4 11 -10z m-1394 -21
c25 1 26 -1 32 -69 3 -38 13 -84 21 -102 13 -26 36 -122 36 -145 0 -3 7 -3 15
0 18 8 26 -5 15 -23 -7 -12 -13 -10 -29 9 -12 13 -21 33 -21 44 0 16 -3 17
-15 7 -13 -10 -15 -9 -15 9 0 11 5 21 10 21 6 0 10 5 10 11 0 5 -4 7 -10 4 -5
-3 -22 5 -36 19 -15 13 -39 27 -55 30 -28 5 -112 -17 -139 -38 -8 -6 -1 6 14
27 34 45 47 52 103 62 58 9 62 22 13 44 l-41 18 40 7 c23 3 41 10 41 15 0 10
-54 31 -81 31 -11 0 -19 4 -19 8 0 18 16 23 50 17 19 -4 47 -6 61 -6z m98 -6
c10 -20 14 -78 12 -170 -1 -67 -15 -84 -24 -30 -3 17 -13 67 -21 110 -8 43
-13 84 -9 92 7 20 30 19 42 -2z m271 -26 c0 -5 -6 -6 -12 -3 -7 3 -21 9 -30
12 -10 4 -18 10 -18 14 0 5 14 3 30 -3 17 -6 30 -15 30 -20z m-1043 -107 c-2
-8 -12 5 -22 30 l-19 44 -12 -29 c-16 -37 -18 -10 -3 34 l11 32 24 -48 c14
-26 23 -54 21 -63z m117 65 c8 -19 20 -35 25 -35 6 0 11 -7 11 -15 0 -8 4 -23
9 -33 5 -9 15 -32 21 -49 14 -38 26 -42 35 -13 10 32 87 92 176 138 46 24 73
34 59 23 -14 -12 -52 -35 -85 -52 -33 -16 -67 -35 -76 -42 -25 -19 -69 -88
-69 -108 0 -28 13 -23 33 11 17 29 97 100 112 100 4 0 -13 -18 -38 -40 -57
-51 -91 -104 -84 -132 13 -48 -33 19 -94 137 -34 66 -63 122 -65 124 -2 2 -8
-9 -14 -25 -6 -16 -20 -47 -30 -69 -10 -22 -24 -55 -30 -73 -7 -18 -15 -31
-17 -28 -3 2 7 35 20 73 54 149 75 171 101 108z m96 -14 c-13 -48 -31 -65 -20
-18 10 42 21 69 27 63 2 -2 -1 -22 -7 -45z m355 27 c-22 -11 -48 -27 -58 -36
-16 -14 -16 -13 -6 16 11 32 24 39 74 40 30 1 30 1 -10 -20z m-301 -37 c-7 -7
-34 28 -34 43 1 6 10 0 21 -13 11 -13 17 -27 13 -30z m1564 37 c18 -23 22 -92
9 -167 -12 -66 -14 -71 -24 -49 -6 14 -14 71 -18 126 -7 87 -5 102 7 102 9 0
20 -6 26 -12z m-1969 -52 c53 -28 111 -82 111 -105 0 -11 -9 -6 -28 15 -15 17
-48 43 -74 58 -57 32 -78 52 -78 74 1 15 2 15 11 -1 6 -9 31 -28 58 -41z
m2533 22 c8 -18 26 -52 38 -76 33 -64 17 -62 -24 3 -20 31 -40 53 -45 50 -5
-3 -19 -30 -32 -60 -12 -30 -27 -55 -32 -55 -10 0 -11 -2 34 98 17 39 35 72
38 72 4 0 14 -15 23 -32z m295 -35 l42 -68 -27 -26 c-15 -14 -34 -25 -42 -25
-8 1 -22 -15 -32 -34 -10 -19 -16 -25 -13 -12 5 16 2 22 -9 22 -9 0 -16 4 -16
8 0 9 50 134 55 140 2 2 13 -14 25 -37 11 -23 25 -41 30 -41 14 0 13 5 -14 45
-14 20 -27 41 -29 48 -7 18 -34 -20 -52 -75 -9 -27 -21 -48 -26 -48 -5 0 -9 3
-9 7 0 13 64 163 70 163 3 0 24 -30 47 -67z m-724 27 c-5 -20 -53 -30 -53 -10
0 5 7 7 15 4 8 -4 17 1 21 10 9 23 23 20 17 -4z m-353 -4 c0 -14 -40 -30 -50
-20 -5 6 29 34 42 34 4 0 8 -6 8 -14z m80 3 c12 -8 9 -9 -12 -5 -17 4 -28 2
-28 -4 0 -6 -5 -8 -10 -5 -6 4 -8 11 -5 16 8 12 36 11 55 -2z m320 -14 c-7 -9
-15 -13 -18 -10 -3 2 1 11 8 20 7 9 15 13 18 10 3 -2 -1 -11 -8 -20z m-1430 5
c0 -5 -4 -10 -10 -10 -5 0 -10 5 -10 10 0 6 5 10 10 10 6 0 10 -4 10 -10z
m1974 -105 c15 -44 37 -113 50 -153 24 -72 16 -99 -9 -32 -7 19 -24 66 -39
105 -14 38 -26 78 -26 88 0 16 -25 35 -35 25 -2 -2 -16 -46 -30 -98 -31 -112
-51 -160 -66 -160 -11 0 -7 21 16 80 7 19 23 66 35 103 12 37 31 89 42 115 24
53 19 59 62 -73z m-464 85 c0 -11 -4 -20 -10 -20 -5 0 -10 9 -10 20 0 11 5 20
10 20 6 0 10 -9 10 -20z m-2110 -49 c-1 -13 -4 -12 -15 3 -8 11 -15 27 -15 35
1 13 4 12 15 -3 8 -11 15 -27 15 -35z m260 39 c0 -5 -4 -10 -10 -10 -5 0 -10
-7 -10 -15 0 -8 -4 -15 -10 -15 -13 0 -13 6 0 31 11 20 30 26 30 9z m175 0
c-3 -5 -14 -10 -23 -10 -15 0 -15 2 -2 10 20 13 33 13 25 0z m105 3 c0 -5 -5
-15 -10 -23 -8 -12 -10 -11 -10 8 0 12 5 22 10 22 6 0 10 -3 10 -7z m1666 -29
c16 -14 48 -42 72 -62 25 -20 56 -61 73 -94 16 -32 34 -58 39 -58 6 0 10 -9
10 -20 0 -31 -13 -24 -35 18 -21 39 -67 92 -152 178 -29 29 -53 55 -53 58 0
13 18 5 46 -20z m-2342 -8 c39 -17 75 -52 75 -71 0 -5 -12 4 -28 21 -16 18
-45 37 -65 44 -20 6 -36 16 -36 22 0 5 3 8 8 6 4 -2 25 -12 46 -22z m2552 -16
c10 -22 22 -40 27 -40 10 0 9 -28 -3 -35 -5 -3 -18 12 -30 35 -11 22 -23 40
-26 40 -3 0 -12 -17 -21 -37 -11 -26 -18 -33 -20 -21 -5 18 33 98 46 98 4 0
16 -18 27 -40z m-756 20 c0 -5 -4 -10 -10 -10 -5 0 -10 5 -10 10 0 6 5 10 10
10 6 0 10 -4 10 -10z m493 -31 c25 -98 42 -138 78 -181 l39 -47 -19 -308 c-17
-263 -31 -584 -45 -1021 -1 -56 -5 -104 -7 -106 -2 -2 -24 -7 -49 -11 l-45 -7
-1 323 0 323 -25 7 -24 6 28 11 27 12 1 282 c1 156 2 319 3 363 5 371 6 397
18 393 7 -3 17 -20 21 -39z m-1759 -22 c-22 -24 -52 -59 -67 -78 -28 -33 -22
-22 28 53 21 31 61 68 73 68 3 0 -13 -20 -34 -43z m1216 29 c0 -8 -4 -18 -10
-21 -5 -3 -10 3 -10 14 0 12 5 21 10 21 6 0 10 -6 10 -14z m-570 -23 c0 -20
-3 -24 -11 -16 -7 7 -9 19 -6 27 10 24 17 19 17 -11z m-379 7 c5 0 9 -7 9 -16
0 -8 -5 -12 -10 -9 -6 4 -17 1 -25 -5 -13 -10 -15 -8 -15 15 0 21 4 26 16 21
9 -3 20 -6 25 -6z m1936 -209 c4 -17 2 -22 -7 -19 -7 2 -22 31 -32 64 -11 32
-23 63 -27 67 -5 5 -18 -20 -31 -55 -36 -99 -56 -106 -25 -9 8 25 22 73 31
106 l16 60 35 -95 c19 -52 37 -106 40 -119z m-2747 189 c23 -12 55 -57 64 -90
l7 -25 -20 25 c-11 14 -21 30 -21 35 0 6 -14 19 -30 30 -41 28 -41 47 0 25z
m693 -37 c7 -38 -9 -45 -22 -10 -5 13 -5 27 2 35 12 15 13 15 20 -25z m50 22
c4 -8 2 -17 -3 -20 -6 -4 -10 3 -10 14 0 25 6 27 13 6z m1432 5 c3 -5 2 -10
-4 -10 -5 0 -13 5 -16 10 -3 6 -2 10 4 10 5 0 13 -4 16 -10z m60 -8 c0 -18
-20 -15 -23 4 -3 10 1 15 10 12 7 -3 13 -10 13 -16z m180 -39 c28 -31 60 -73
73 -95 23 -38 23 -38 3 -38 -12 0 -21 6 -21 13 0 7 -27 46 -60 87 -33 41 -60
78 -60 83 0 17 18 3 65 -50z m145 17 c25 -49 25 -58 0 -35 -17 15 -22 16 -36
4 -15 -12 -16 -10 -9 21 13 62 18 63 45 10z m-1700 -4 c0 -19 -5 -24 -20 -23
-24 2 -24 2 -8 27 17 27 28 25 28 -4z m1265 4 c-20 -22 -31 -20 -22 5 4 8 14
15 23 15 16 0 16 -2 -1 -20z m-1495 -430 c2 -390 2 -802 -1 -1037 l-2 -152
-56 5 c-31 3 -57 6 -58 8 -1 1 -3 173 -4 382 -1 208 -5 527 -9 709 l-8 330 33
32 c31 30 83 124 86 155 1 7 5 -7 9 -32 4 -25 9 -205 10 -400z m1239 434 c35
-7 40 -19 11 -27 -12 -3 -18 -11 -15 -19 3 -8 -4 -23 -15 -33 -21 -19 -21 -19
-15 8 10 37 -1 63 -19 48 -14 -12 -26 -5 -26 16 0 14 29 17 79 7z m313 -37
c-14 -17 -6 -27 22 -27 20 -1 20 -1 2 -11 -14 -9 -22 -7 -38 9 -17 16 -18 23
-8 42 8 16 15 19 23 11 7 -7 7 -14 -1 -24z m-1142 -11 c0 -16 -7 -26 -22 -29
-28 -8 -30 -5 -23 25 8 33 45 36 45 4z m1376 -40 c27 -39 29 -46 14 -46 -10 0
-79 89 -80 103 0 15 42 -21 66 -57z m-1516 39 c0 -8 -4 -15 -10 -15 -5 0 -10
7 -10 15 0 8 5 15 10 15 6 0 10 -7 10 -15z m900 1 c0 -2 3 -11 6 -20 3 -9 1
-16 -6 -16 -6 0 -9 4 -5 9 12 20 -15 21 -35 1 l-20 -20 0 20 c0 18 -3 19 -20
10 -19 -10 -28 -1 -13 13 7 7 93 10 93 3z m304 -63 l-8 -28 -4 28 c-2 20 -8
27 -18 23 -9 -3 -14 1 -14 13 0 28 12 33 33 12 15 -15 18 -25 11 -48z m-1386
36 c7 -12 11 -24 8 -27 -6 -6 -35 27 -36 41 0 14 15 7 28 -14z m1840 -10 c2
-23 2 -23 -13 -5 -18 24 -20 39 -2 34 6 -3 13 -15 15 -29z m-631 -16 c1 -23
-5 -41 -14 -49 -19 -13 -9 -36 12 -27 8 3 15 0 15 -6 0 -14 -37 -14 -45 -1 -4
7 -11 7 -18 2 -7 -5 -27 -12 -44 -15 -29 -6 -33 -4 -33 16 0 12 -7 31 -15 41
-8 10 -12 23 -9 28 7 11 44 -30 44 -49 0 -20 44 -16 65 7 9 10 19 34 20 52 3
39 3 38 13 38 4 0 9 -17 9 -37z m-1807 -9 c-18 -21 -24 -10 -9 18 8 14 14 18
17 10 2 -7 -2 -19 -8 -28z m783 12 c30 -13 65 -38 80 -57 27 -35 27 -53 -1
-45 -10 3 -33 2 -53 -3 -30 -7 -39 -5 -57 14 -46 48 -127 36 -167 -23 -46 -68
-26 -147 45 -176 53 -21 95 -20 146 3 43 20 61 53 49 92 -7 22 -3 23 40 8 29
-11 32 -16 33 -55 0 -32 -4 -44 -14 -44 -8 0 -14 -7 -14 -15 0 -9 -6 -12 -15
-9 -8 3 -31 -8 -52 -25 -33 -28 -45 -31 -102 -31 -110 0 -154 52 -167 194 l-7
73 52 49 c45 43 98 71 138 73 7 1 37 -10 66 -23z m1792 -28 c12 -42 12 -45 -7
-57 -17 -10 -23 -10 -33 1 -9 10 -9 23 2 61 8 27 17 47 20 44 2 -3 10 -25 18
-49z m-1012 -3 c-24 -18 -36 -9 -22 16 8 16 13 18 25 8 12 -10 12 -13 -3 -24z
m-313 -15 c0 -17 6 -19 40 -16 50 5 53 -9 4 -19 -26 -4 -41 -2 -54 10 -9 8
-24 13 -34 9 -12 -4 -16 -1 -16 15 0 17 6 21 30 21 23 0 30 -4 30 -20z m240 4
c0 -11 -54 -63 -61 -58 -4 2 5 17 19 33 26 28 42 37 42 25z m150 -6 c0 -7 -4
-19 -9 -26 -7 -11 -10 -10 -15 3 -3 9 -4 21 0 26 8 13 24 11 24 -3z m-1653
-14 c-3 -3 -12 -4 -19 -1 -8 3 -5 6 6 6 11 1 17 -2 13 -5z m152 -3 c7 -5 9
-11 4 -14 -13 -8 -53 3 -53 14 0 11 31 11 49 0z m86 -1 c-3 -5 -13 -10 -21
-10 -8 0 -14 5 -14 10 0 6 9 10 21 10 11 0 17 -4 14 -10z m90 0 c-3 -5 -12
-10 -18 -10 -7 0 -6 4 3 10 19 12 23 12 15 0z m1090 0 c-3 -5 -15 -10 -26 -10
-11 0 -17 5 -14 10 3 6 15 10 26 10 11 0 17 -4 14 -10z m1005 -19 c19 -5 61
-12 93 -16 49 -6 56 -9 46 -21 -10 -12 -4 -14 35 -14 25 0 46 4 46 10 0 5 -6
7 -14 4 -8 -3 -17 -1 -21 5 -9 15 24 13 60 -4 27 -12 28 -13 7 -14 -13 -1 -20
-5 -17 -11 9 -14 62 -12 68 3 3 6 6 -27 6 -75 1 -81 -1 -88 -18 -88 -11 0 -23
-4 -26 -10 -4 -6 5 -10 20 -10 24 0 26 -3 23 -37 -3 -35 -5 -38 -30 -35 -16 1
-28 -2 -28 -7 0 -5 12 -11 27 -13 49 -6 39 -28 -14 -28 -35 0 -44 -3 -33 -10
8 -5 30 -10 48 -10 23 0 32 -5 32 -16 0 -13 -8 -15 -50 -9 -63 9 -67 -8 -4
-21 56 -11 58 -28 4 -32 -52 -4 -52 -22 0 -22 29 0 40 -4 40 -15 0 -10 -11
-15 -35 -15 -19 0 -35 -4 -35 -10 0 -5 11 -10 25 -10 14 0 25 -4 25 -10 0 -5
-9 -10 -20 -10 -11 0 -20 -4 -20 -10 0 -5 11 -10 25 -10 14 0 25 -4 25 -10 0
-5 -11 -10 -25 -10 -14 0 -25 -4 -25 -10 0 -5 14 -10 30 -10 19 0 30 -5 30
-14 0 -11 -10 -13 -40 -9 -26 4 -40 2 -40 -6 0 -6 17 -11 40 -11 22 0 40 -4
40 -10 0 -5 -16 -10 -36 -10 -21 0 -33 -4 -29 -10 3 -5 19 -10 36 -10 16 0 29
-4 29 -10 0 -5 -13 -10 -30 -10 -16 0 -30 -4 -30 -10 0 -5 14 -10 30 -10 21 0
30 -5 30 -16 0 -12 -6 -15 -24 -10 -14 3 -28 2 -31 -4 -4 -6 6 -10 24 -10 40
0 43 -30 4 -31 -26 -1 -27 -1 -5 -7 33 -10 28 -26 -10 -33 l-33 -6 38 -2 c34
-1 37 -3 37 -31 0 -29 -2 -30 -42 -30 -46 0 -45 -9 2 -19 39 -8 39 -27 0 -23
-17 2 -30 -1 -30 -6 0 -12 24 -22 51 -22 12 0 19 -7 19 -20 0 -16 -7 -20 -31
-20 -17 0 -28 -4 -24 -10 3 -5 18 -10 31 -10 16 0 24 -5 21 -12 -2 -7 -16 -12
-31 -11 -17 1 -26 -3 -26 -13 0 -9 11 -14 30 -14 17 0 30 -4 30 -10 0 -5 -14
-10 -31 -10 -17 0 -28 -4 -24 -10 3 -5 17 -10 31 -10 15 0 24 -6 24 -15 0 -8
-9 -15 -20 -15 -11 0 -20 -5 -20 -11 0 -6 9 -8 20 -4 14 5 20 2 20 -9 0 -10
-9 -16 -25 -16 -14 0 -25 -4 -25 -10 0 -5 11 -10 25 -10 16 0 25 -6 25 -15 0
-9 -9 -15 -25 -15 -14 0 -25 -4 -25 -10 0 -5 11 -10 25 -10 18 0 25 -5 25 -20
0 -16 -7 -20 -32 -22 l-33 -1 33 -4 c24 -3 32 -9 32 -24 0 -16 -5 -19 -19 -14
-11 3 -22 1 -26 -5 -4 -6 4 -10 19 -10 14 0 26 -4 26 -10 0 -5 -12 -10 -26
-10 -15 0 -23 -4 -19 -10 4 -6 15 -8 26 -5 13 4 19 2 19 -9 0 -11 -9 -16 -27
-16 -24 -1 -26 -2 -10 -11 9 -5 22 -7 27 -4 6 3 10 -3 10 -14 0 -16 -6 -21
-27 -21 -33 0 -20 -17 17 -22 l25 -3 -30 -17 c-27 -16 -28 -17 -7 -18 33 0 28
-30 -5 -31 l-28 -2 28 -4 c38 -6 36 -33 -3 -33 -16 0 -30 -4 -30 -10 0 -5 16
-10 35 -10 19 0 35 -4 35 -10 0 -5 -16 -10 -35 -10 -19 0 -35 -4 -35 -10 0 -5
14 -10 30 -10 17 0 30 -4 30 -10 0 -5 -13 -10 -30 -10 -16 0 -30 -5 -30 -11 0
-7 11 -9 30 -5 22 4 30 2 30 -9 0 -8 -13 -15 -32 -18 -32 -4 -32 -4 5 -5 45
-2 41 -22 -4 -22 -18 0 -28 -4 -24 -10 3 -5 17 -10 31 -10 13 0 24 -4 24 -10
0 -5 -11 -10 -25 -10 -34 0 -32 -18 3 -23 25 -4 25 -4 -5 -6 -44 -2 -42 -21 2
-21 26 0 35 -4 35 -16 0 -13 -7 -15 -34 -10 -20 4 -37 2 -41 -4 -3 -5 3 -10
14 -10 26 0 51 -10 51 -21 0 -5 -14 -9 -32 -9 -36 0 -28 -16 12 -23 21 -4 20
-4 -7 -6 -44 -1 -42 -21 2 -21 19 0 35 -4 35 -10 0 -5 -14 -10 -31 -10 -17 0
-28 -4 -24 -10 3 -5 17 -10 31 -10 14 0 22 -4 19 -10 -3 -6 -17 -7 -31 -4 -14
4 -24 2 -24 -5 0 -6 14 -11 30 -11 20 0 30 -5 30 -15 0 -9 -9 -15 -24 -15 -14
0 -28 -4 -31 -10 -4 -6 7 -10 24 -10 21 0 31 -5 31 -15 0 -10 -10 -15 -31 -15
-17 0 -28 -4 -24 -10 3 -5 20 -10 36 -10 18 0 28 -4 24 -10 -3 -5 -15 -10 -26
-10 -10 0 -19 -4 -19 -10 0 -5 11 -10 25 -10 14 0 25 -4 25 -10 0 -5 -18 -10
-40 -10 -22 0 -40 -4 -40 -10 0 -5 15 -10 34 -10 19 0 38 -5 41 -10 4 -6 -10
-10 -35 -10 -25 0 -39 -4 -35 -10 3 -6 19 -10 35 -10 16 0 32 -4 35 -10 4 -6
-7 -10 -24 -10 -17 0 -31 -4 -31 -10 0 -5 14 -10 30 -10 17 0 30 -4 30 -10 0
-5 -16 -10 -35 -10 -40 0 -48 -17 -10 -22 14 -2 24 -7 23 -13 -2 -5 -13 -9
-25 -7 -13 1 -23 -1 -23 -7 0 -11 47 -24 60 -16 6 4 10 -11 10 -35 0 -23 -4
-39 -8 -36 -4 2 -14 1 -22 -5 -11 -6 -8 -9 13 -9 17 0 27 -5 27 -15 0 -14 -17
-20 -47 -16 -6 1 -15 -3 -18 -10 -5 -7 4 -10 26 -7 32 3 34 1 40 -37 4 -22 8
-65 10 -95 l3 -54 -44 -3 c-59 -4 -64 -13 -7 -13 26 0 47 -4 47 -10 0 -5 -26
-10 -57 -10 -31 0 -53 -3 -49 -7 4 -4 30 -8 58 -8 32 0 53 -5 55 -12 3 -10
-11 -13 -52 -13 -35 0 -54 -4 -50 -10 3 -5 28 -10 54 -10 l48 0 7 -61 c3 -34
6 -80 6 -101 l0 -40 -60 7 c-41 5 -60 4 -60 -4 0 -6 14 -11 31 -11 27 0 30 -2
19 -15 -10 -12 -9 -15 8 -15 11 0 25 7 32 15 18 22 30 9 29 -33 -2 -66 -12
-86 -49 -97 -19 -5 -39 -13 -45 -16 -5 -4 -32 -10 -58 -13 -60 -9 -56 -16 8
-18 67 -1 35 -16 -44 -20 -40 -2 -65 -8 -70 -17 -7 -10 -29 -13 -100 -9 -51 2
-96 9 -99 14 -4 6 -16 16 -27 22 -17 9 -19 19 -17 84 4 83 -8 144 -45 237
l-26 64 12 181 c6 100 18 381 26 626 9 245 18 461 20 480 8 59 25 399 36 735
12 363 15 427 23 475 3 19 8 80 10 135 2 55 8 124 11 153 8 57 12 59 75 43z
m-1778 -23 c-7 -7 -12 -8 -12 -2 0 14 12 26 19 19 2 -3 -1 -11 -7 -17z m348 7
c0 -8 -4 -15 -9 -15 -13 0 -22 16 -14 24 11 11 23 6 23 -9z m74 -54 c-10 -11
-31 22 -26 41 5 19 6 18 17 -8 7 -16 11 -31 9 -33z m332 48 c27 -7 57 -24 78
-47 106 -108 36 -287 -118 -300 -168 -14 -260 183 -141 303 51 51 103 63 181
44z m218 -26 c3 -6 -2 -17 -10 -23 -12 -10 -14 -8 -14 14 0 14 -4 26 -10 26
-5 0 -10 5 -10 10 0 13 38 -10 44 -27z m242 17 c9 0 12 -4 9 -10 -3 -5 -19
-10 -35 -10 -41 0 -143 -63 -183 -113 -44 -53 -77 -128 -84 -190 -5 -40 -10
-50 -32 -59 -34 -14 -324 -22 -375 -11 -39 9 -39 9 -68 100 -49 158 -116 226
-250 255 -32 7 -58 15 -58 19 0 3 17 9 38 13 129 21 226 -15 305 -112 9 -12
17 -32 17 -45 0 -139 142 -233 278 -184 71 26 132 114 132 190 0 41 57 113
104 133 40 17 148 34 174 27 8 -1 20 -3 28 -3z m-732 -54 c-9 -48 -23 -33 -17
17 4 25 9 35 15 29 5 -5 6 -26 2 -46z m76 45 c0 -13 -26 -32 -33 -24 -14 13
-6 33 13 33 11 0 20 -4 20 -9z m-500 -9 c0 -13 -12 -22 -22 -16 -10 6 -1 24
13 24 5 0 9 -4 9 -8z m-58 -34 c-7 -7 -12 -8 -12 -2 0 14 12 26 19 19 2 -3 -1
-11 -7 -17z m938 -7 c-1 -9 -26 -41 -34 -41 -3 0 -6 13 -6 29 0 24 3 28 20 24
11 -3 20 -8 20 -12z m248 -6 c14 -29 -2 -34 -18 -6 -12 24 -13 31 -2 31 5 0
14 -11 20 -25z m-1118 1 c0 -3 -4 -8 -10 -11 -5 -3 -10 -1 -10 4 0 6 5 11 10
11 6 0 10 -2 10 -4z m50 -16 c0 -5 -4 -10 -10 -10 -5 0 -10 5 -10 10 0 6 5 10
10 10 6 0 10 -4 10 -10z m1014 -9 c13 -14 14 -20 5 -23 -16 -5 -50 22 -43 34
8 13 20 10 38 -11z m-1094 -21 c0 -5 -4 -10 -10 -10 -5 0 -10 5 -10 10 0 6 5
10 10 10 6 0 10 -4 10 -10z m330 -72 c37 -53 42 -81 18 -86 -13 -2 -18 3 -18
20 0 43 -12 68 -36 74 -13 3 -21 11 -18 19 3 7 -2 15 -10 18 -9 4 -16 13 -16
22 0 24 41 -10 80 -67z m830 38 c0 -19 3 -41 6 -50 4 -10 -1 -18 -12 -23 -21
-8 -64 38 -64 68 0 26 18 24 22 -3 5 -34 38 -37 38 -4 0 14 -4 26 -10 26 -5 0
-10 5 -10 10 0 6 7 10 15 10 10 0 15 -10 15 -34z m-1286 -83 c-8 -28 -8 -27
-14 12 -7 48 0 67 13 38 5 -12 6 -34 1 -50z m1194 49 c14 -10 62 -73 62 -83 0
-4 -14 -12 -31 -18 -38 -13 -60 -14 -41 -2 9 5 11 17 6 35 -7 31 -19 30 -96
-10 -56 -28 -61 -19 -28 46 19 38 23 40 68 40 26 0 53 -4 60 -8z m-787 -34
c26 -32 26 -57 0 -34 -22 20 -61 14 -61 -10 0 -8 4 -14 8 -14 5 0 17 -7 28
-15 18 -15 17 -15 -16 -9 -19 4 -43 7 -52 6 -11 0 -18 6 -18 17 0 9 -5 22 -12
29 -20 20 5 36 32 20 19 -12 24 -11 37 10 9 12 20 22 25 22 5 0 18 -10 29 -22z
m-341 -42 c0 -15 -29 -55 -34 -47 -8 13 11 51 24 51 6 0 10 -2 10 -4z m1277
-53 c8 -3 18 -1 22 5 4 6 25 14 47 18 35 5 42 3 46 -13 3 -10 2 -27 -2 -38 -7
-19 -7 -19 -17 0 -10 17 -14 18 -37 5 -34 -18 -36 -57 -3 -58 34 0 89 -26 130
-62 34 -29 37 -37 37 -84 l0 -51 -20 25 c-11 14 -20 30 -20 35 0 6 4 4 9 -4
13 -21 24 5 11 28 -5 11 -20 22 -32 26 -13 3 -40 11 -60 17 -40 12 -72 5 -66
-14 5 -15 88 -76 105 -77 14 -1 43 -29 43 -42 0 -6 -7 -4 -15 5 -37 37 -111
38 -147 3 -13 -13 -15 -4 -15 87 0 56 -4 112 -7 124 -15 46 -57 13 -71 -55 -4
-19 -13 -33 -21 -33 -19 0 -18 -16 1 -24 10 -3 15 -20 16 -48 2 -73 12 -103
34 -103 11 0 26 4 33 9 13 9 14 9 17 -20 2 -18 -3 -20 -36 -20 -22 1 -39 6
-39 12 0 5 -14 23 -30 39 -29 28 -32 28 -78 18 -26 -5 -55 -13 -65 -18 -14 -6
-16 -4 -10 11 13 37 88 84 134 84 11 0 19 2 19 4 0 36 -67 62 -134 50 l-41 -6
20 22 c25 27 90 57 144 66 22 4 41 8 41 9 0 17 -18 38 -42 51 -16 8 -26 19
-23 24 8 13 62 13 70 0 9 -15 27 0 21 17 -3 8 -3 20 1 26 5 7 9 1 11 -16 2
-16 10 -31 19 -34z m-1077 13 c0 -42 16 -55 35 -30 7 11 17 16 21 12 4 -4 -5
-17 -19 -29 -15 -11 -27 -29 -27 -40 0 -16 7 -19 45 -19 47 0 125 -26 125 -41
0 -12 -15 -11 -75 5 -27 8 -54 10 -59 6 -18 -17 4 -38 46 -45 44 -8 98 -38 98
-56 0 -5 -13 -3 -30 6 -16 8 -51 15 -78 15 l-50 0 -7 46 c-5 36 -12 47 -31 55
-38 14 -57 -11 -62 -80 -4 -51 3 -96 22 -142 10 -23 -21 -32 -47 -14 -38 26
-83 19 -127 -21 -34 -31 -40 -33 -40 -17 0 44 70 93 131 93 17 0 29 5 29 13 0
21 -45 40 -85 35 -33 -4 -35 -3 -19 9 10 7 27 13 38 13 30 0 53 17 41 29 -16
16 -67 15 -105 -2 l-35 -16 40 5 c34 4 37 3 20 -7 -11 -6 -30 -21 -42 -32
l-23 -20 0 54 c0 44 5 59 25 81 27 29 93 45 144 35 42 -9 57 13 36 52 -9 18
-23 31 -35 31 -10 0 -22 5 -25 10 -3 6 5 10 18 10 14 0 27 -7 31 -15 3 -8 15
-15 26 -15 15 0 22 8 27 30 8 41 23 38 23 -4z m-140 14 c0 -5 -4 -10 -10 -10
-5 0 -10 5 -10 10 0 6 5 10 10 10 6 0 10 -4 10 -10z m1010 -16 c0 -8 -4 -14
-10 -14 -5 0 -10 2 -10 4 0 2 -3 12 -6 20 -5 12 -2 15 10 10 9 -3 16 -12 16
-20z m-1122 -7 c2 -10 -3 -17 -12 -17 -10 0 -16 9 -16 21 0 24 23 21 28 -4z
m427 2 c12 -19 -5 -23 -22 -6 -16 16 -16 17 -1 17 9 0 20 -5 23 -11z m655 -16
c0 -20 -24 -11 -28 10 -2 12 1 15 12 11 9 -3 16 -13 16 -21z m-561 -37 c15
-60 14 -66 -9 -66 -22 0 -26 10 -10 26 6 6 8 19 4 28 -5 14 -14 16 -40 11 -27
-5 -34 -3 -34 10 0 8 9 15 20 15 10 0 25 6 32 14 18 19 24 13 37 -38z m-434
24 c-10 -11 -25 -20 -33 -20 -12 0 -12 4 3 20 10 11 25 20 33 20 12 0 12 -4
-3 -20z m1065 12 c0 -5 -9 -17 -19 -26 -14 -13 -21 -14 -27 -5 -4 7 1 18 11
26 21 15 35 17 35 5z m73 -18 c25 -9 16 -26 -18 -36 -16 -4 -30 -6 -31 -5 -8
8 11 57 20 52 6 -3 19 -8 29 -11z m-1066 -30 c-12 -12 -37 5 -30 21 5 15 7 15
21 1 9 -9 13 -18 9 -22z m1383 21 c-7 -9 -15 -13 -17 -11 -7 7 7 26 19 26 6 0
6 -6 -2 -15z m-1170 -16 c0 -5 -4 -9 -10 -9 -5 0 -10 7 -10 16 0 8 5 12 10 9
6 -3 10 -10 10 -16z m680 11 c0 -5 -4 -10 -10 -10 -5 0 -10 5 -10 10 0 6 5 10
10 10 6 0 10 -4 10 -10z m-1013 -26 c2 -5 -12 -10 -32 -11 -30 -1 -34 1 -24
13 13 16 50 15 56 -2z m1053 -5 c0 -5 -7 -9 -15 -9 -15 0 -20 12 -9 23 8 8 24
-1 24 -14z m-60 -10 c0 -6 -4 -7 -10 -4 -5 3 -10 11 -10 16 0 6 5 7 10 4 6 -3
10 -11 10 -16z m-612 -7 c2 -7 -2 -10 -12 -6 -9 3 -16 11 -16 16 0 13 23 5 28
-10z m902 -95 c0 -152 -26 -175 -37 -33 -6 74 10 152 28 141 5 -4 9 -52 9
-108z m170 103 c0 -5 -2 -10 -4 -10 -3 0 -8 5 -11 10 -3 6 -1 10 4 10 6 0 11
-4 11 -10z m-510 -38 c0 -22 47 -144 95 -248 64 -140 86 -174 113 -174 21 0
91 -81 92 -107 0 -12 3 -23 8 -25 24 -11 54 -61 58 -98 4 -49 -14 -51 -29 -4
-11 34 -43 71 -69 80 -10 3 -18 13 -18 22 1 15 2 15 15 -2 7 -10 18 -15 24
-12 12 8 -36 93 -56 101 -17 6 -17 -17 0 -34 10 -11 8 -11 -9 0 -12 7 -29 28
-38 46 -9 18 -23 33 -32 33 -13 0 -12 -4 5 -29 28 -38 14 -48 -21 -14 -29 28
-37 58 -16 65 10 4 9 14 -4 44 -14 33 -44 112 -90 237 -6 15 -14 27 -18 27
-12 0 -43 98 -35 110 9 14 25 2 25 -18z m575 0 c-8 -8 -25 10 -19 20 4 6 9 5
15 -3 4 -7 6 -15 4 -17z m-1090 7 c11 -17 0 -20 -21 -4 -17 13 -17 14 -2 15 9
0 20 -5 23 -11z m172 -4 c2 -1 -8 -33 -21 -71 -12 -38 -26 -90 -30 -116 -7
-48 -15 -60 -60 -95 -13 -10 -34 -39 -46 -63 -18 -36 -19 -42 -6 -31 16 14 17
12 11 -25 -4 -21 -15 -48 -25 -59 -10 -11 -20 -36 -24 -56 -7 -39 -37 -72 -76
-84 -31 -10 -41 -21 -64 -72 -18 -40 -66 -97 -66 -77 0 5 12 44 26 87 25 76
64 136 132 203 45 45 99 167 123 275 11 52 26 115 34 141 7 25 11 49 7 53 -5
5 78 -4 85 -10z m438 -4 c-3 -6 -14 -11 -23 -11 -15 1 -15 2 2 15 21 16 32 13
21 -4z m-238 -4 c4 -4 -3 -14 -15 -23 -17 -12 -22 -25 -22 -60 0 -47 15 -88
29 -80 5 3 6 17 3 31 -4 22 -1 25 27 25 17 0 31 5 31 10 0 6 7 10 15 10 12 0
14 -9 9 -42 -11 -78 -23 -113 -51 -144 -44 -50 -62 -55 -111 -32 -52 25 -88
66 -104 121 -24 86 -15 126 21 93 10 -9 25 -16 34 -16 22 0 33 20 16 31 -12 7
-12 9 0 9 8 0 11 3 8 7 -4 3 -2 11 3 18 7 8 2 16 -18 25 -25 12 -26 13 -7 20
24 9 122 7 132 -3z m111 -54 c12 -38 27 -89 34 -115 11 -45 27 -64 29 -35 0 6
10 -15 23 -48 13 -33 27 -68 31 -79 6 -14 5 -18 -6 -14 -8 2 -15 17 -17 32 -2
17 -12 30 -26 36 -13 5 -26 19 -29 32 -15 67 -59 223 -68 239 -6 11 -6 19 0
19 5 0 18 -30 29 -67z m-710 35 c13 -13 15 -131 3 -162 -13 -34 -24 1 -29 91
-4 81 1 96 26 71z m652 -8 c0 -5 -10 -10 -22 -9 -22 0 -22 1 -3 9 11 5 21 9
23 9 1 1 2 -3 2 -9z m-190 -10 c0 -5 -11 -10 -25 -10 -14 0 -25 5 -25 10 0 6
11 10 25 10 14 0 25 -4 25 -10z m-235 -20 c3 -5 2 -10 -4 -10 -5 0 -13 5 -16
10 -3 6 -2 10 4 10 5 0 13 -4 16 -10z m709 4 c26 -10 18 -19 -34 -38 -52 -19
-110 -15 -110 8 0 21 110 43 144 30z m291 -14 c8 -13 -5 -13 -25 0 -13 8 -13
10 2 10 9 0 20 -4 23 -10z m-1081 -54 c32 -13 90 -66 81 -74 -2 -2 -19 7 -37
20 -26 20 -40 23 -65 18 -42 -9 -65 -29 -59 -49 3 -9 -3 -27 -14 -41 l-19 -25
6 24 c4 17 2 22 -7 19 -7 -2 -14 -19 -15 -37 -2 -18 -8 -38 -14 -44 -17 -17
-14 44 3 68 7 11 19 46 26 78 13 56 14 57 47 57 18 0 49 -6 67 -14z m-362 -50
c-20 -19 -39 -30 -41 -24 -4 13 47 58 66 58 7 0 -4 -15 -25 -34z m472 19 c-4
-8 -10 -12 -15 -9 -14 8 -10 24 6 24 9 0 12 -6 9 -15z m965 -54 c35 -50 35
-51 -3 -49 -21 2 -36 8 -36 16 0 6 -9 12 -20 12 -11 0 -20 5 -20 10 0 13 42
13 58 0 7 -5 5 -2 -3 7 -9 10 -29 17 -50 17 -39 0 -48 13 -12 18 39 6 67 -4
86 -31z m41 9 c0 -10 8 -23 17 -29 10 -5 14 -13 10 -18 -11 -10 -46 36 -47 60
0 10 5 15 10 12 6 -3 10 -15 10 -25z m-314 -7 c-10 -10 -19 5 -10 18 6 11 8
11 12 0 2 -7 1 -15 -2 -18z m-780 -23 c-1 -16 -7 -35 -15 -42 -11 -11 -13 -9
-7 12 3 14 6 33 6 43 0 9 4 17 9 17 5 0 8 -13 7 -30z m714 21 c0 -6 -4 -13
-10 -16 -5 -3 -10 1 -10 9 0 9 5 16 10 16 6 0 10 -4 10 -9z m-650 -32 c0 -5
-7 -9 -15 -9 -8 0 -15 7 -15 15 0 9 6 12 15 9 8 -4 15 -10 15 -15z m710 0 c0
-5 -4 -9 -10 -9 -5 0 -10 7 -10 16 0 8 5 12 10 9 6 -3 10 -10 10 -16z m-1060
-3 c0 -9 -7 -12 -20 -9 -14 4 -20 0 -20 -11 0 -10 -6 -13 -15 -10 -18 7 -20
30 -2 37 25 11 57 7 57 -7z m94 -22 c4 -11 0 -13 -18 -8 -18 4 -25 1 -29 -13
-4 -17 -4 -17 -12 0 -5 12 -2 22 11 31 21 16 40 11 48 -10z m1118 -16 c-11
-11 -32 -3 -32 12 0 12 34 18 39 7 2 -5 -1 -13 -7 -19z m-47 12 c3 -5 1 -10
-4 -10 -6 0 -11 5 -11 10 0 6 2 10 4 10 3 0 8 -4 11 -10z m-35 -10 c0 -5 -4
-10 -10 -10 -5 0 -10 5 -10 10 0 6 5 10 10 10 6 0 10 -4 10 -10z m125 1 c3 -5
1 -12 -5 -16 -5 -3 -10 1 -10 9 0 18 6 21 15 7z m106 -19 c-13 -2 -17 -9 -14
-23 3 -10 1 -19 -4 -19 -7 0 -10 31 -4 63 0 4 10 2 21 -5 20 -13 20 -13 1 -16z
m-1447 -8 c9 -22 -3 -32 -14 -14 -12 19 -12 30 -1 30 5 0 12 -7 15 -16z m286
2 c0 -8 -4 -18 -10 -21 -5 -3 -10 3 -10 14 0 12 5 21 10 21 6 0 10 -6 10 -14z
m220 6 c0 -5 -12 -19 -26 -33 l-26 -24 19 32 c17 31 33 43 33 25z m-267 -50
c-5 -39 -23 -60 -23 -27 0 8 -3 15 -7 15 -5 0 -8 -22 -8 -49 0 -38 3 -47 13
-39 14 12 15 9 12 -51 -1 -33 -9 -51 -29 -74 -24 -24 -29 -27 -34 -13 -5 11 1
20 18 28 14 6 25 19 25 30 0 23 -9 23 -26 1 -12 -16 -13 -10 -14 44 0 51 3 61
15 57 10 -4 15 0 15 11 0 11 -5 15 -15 11 -11 -4 -15 2 -15 23 0 22 6 30 25
35 14 4 25 13 25 20 0 12 19 27 27 22 1 -1 -1 -20 -4 -44z m877 44 c0 -3 -4
-8 -10 -11 -5 -3 -10 -1 -10 4 0 6 5 11 10 11 6 0 10 -2 10 -4z m-1010 -16 c0
-5 -5 -10 -11 -10 -5 0 -7 5 -4 10 3 6 8 10 11 10 2 0 4 -4 4 -10z m1189 1
c17 -11 6 -107 -13 -114 -22 -9 -39 9 -33 33 3 12 1 34 -4 48 -13 35 16 54 50
33z m51 -1 c0 -5 -2 -10 -4 -10 -3 0 -8 5 -11 10 -3 6 -1 10 4 10 6 0 11 -4
11 -10z m-950 -13 c0 -7 -8 -17 -19 -24 -17 -11 -18 -10 -7 13 12 26 26 32 26
11z m401 -12 l37 6 6 -45 c8 -50 19 -57 38 -26 16 25 28 26 28 1 0 -36 -12
-52 -56 -71 -52 -24 -100 -25 -154 -4 -63 25 -66 41 -31 130 l12 31 41 -14
c25 -8 56 -12 79 -8z m174 15 c3 -5 1 -10 -4 -10 -6 0 -11 5 -11 10 0 6 2 10
4 10 3 0 8 -4 11 -10z m-455 -29 c-14 -26 -30 -27 -30 -2 0 11 8 21 18 23 24
6 25 3 12 -21z m37 7 c-3 -8 -6 -5 -6 6 -1 11 2 17 5 13 3 -3 4 -12 1 -19z
m63 2 c0 -5 -5 -10 -11 -10 -27 0 -79 -76 -100 -144 -12 -39 -24 -65 -26 -59
-3 7 5 38 16 68 24 65 27 88 6 61 -19 -25 -39 -96 -75 -264 -17 -75 -35 -155
-40 -177 -32 -124 -47 -407 -31 -602 12 -141 55 -316 86 -347 19 -19 9 -26
-35 -26 -51 0 -99 22 -136 62 -47 49 -56 73 -74 182 -20 133 -40 140 -24 9 17
-130 18 -133 64 -191 66 -82 154 -112 235 -78 59 25 137 -9 191 -84 36 -50 59
-66 47 -32 -18 52 -128 152 -166 152 -27 0 -67 26 -67 43 0 13 9 17 41 17 31
0 40 -3 36 -14 -4 -10 5 -15 32 -19 55 -7 163 -61 209 -104 26 -25 53 -67 78
-123 21 -47 43 -92 50 -100 6 -8 23 -38 38 -67 14 -28 30 -54 35 -58 14 -8
-19 63 -79 169 -9 17 -25 54 -35 81 -25 69 -103 147 -183 185 -36 17 -72 30
-82 30 -9 0 -25 9 -35 20 -14 15 -32 20 -74 22 -43 1 -47 2 -18 5 20 2 37 8
37 13 0 5 -17 12 -37 15 -61 10 -61 13 -2 14 30 1 59 -3 65 -8 18 -16 108 -41
151 -41 37 0 43 3 43 21 0 11 5 17 10 14 6 -4 29 0 53 8 69 25 216 43 236 29
9 -6 30 -18 48 -26 37 -17 54 -47 76 -135 17 -67 23 -79 33 -68 4 4 -1 38 -10
78 -18 71 -17 90 1 67 21 -26 43 -111 53 -206 33 -301 83 -580 109 -610 54
-59 91 -113 96 -138 4 -16 11 -39 17 -50 7 -15 7 -28 -1 -43 -14 -25 -53 -20
-88 11 -29 27 -60 147 -72 281 -6 60 -13 112 -16 118 -9 14 -25 11 -20 -3 3
-7 12 -65 20 -128 30 -244 53 -300 129 -325 19 -6 19 -6 -1 -26 -16 -16 -24
-19 -39 -10 -11 5 -35 13 -55 16 -32 5 -39 11 -57 53 -11 26 -25 90 -32 142
-6 52 -18 147 -26 210 -9 63 -19 147 -24 185 -5 39 -13 86 -19 105 -6 19 -22
79 -36 132 -37 142 -93 231 -174 272 -35 19 -41 19 -41 6 0 -5 17 -18 38 -29
20 -10 45 -27 54 -37 33 -38 89 -155 103 -216 7 -35 19 -79 25 -98 14 -45 39
-202 50 -310 16 -162 49 -350 70 -390 17 -33 28 -42 65 -51 25 -6 48 -15 50
-19 8 -13 -47 -48 -80 -51 -28 -4 -30 -2 -27 25 2 18 -4 36 -18 51 -11 12 -36
46 -54 75 -25 39 -35 48 -39 36 -7 -18 1 -46 13 -46 4 0 16 -12 26 -27 l17
-28 -26 18 c-14 9 -29 17 -32 17 -12 0 -4 -24 12 -36 22 -16 7 -47 -26 -52
-28 -4 -44 -37 -38 -77 6 -39 1 -48 -24 -35 -10 6 -20 6 -23 1 -3 -5 7 -14 23
-19 19 -7 31 -19 33 -33 2 -12 9 -24 16 -27 10 -3 12 5 6 33 -10 53 14 43 46
-20 16 -31 37 -55 60 -67 37 -19 100 -25 100 -8 0 16 35 12 92 -10 29 -11 61
-20 71 -20 25 0 32 27 13 49 -9 10 -16 23 -16 31 0 7 -7 18 -15 24 -9 7 -12
16 -6 25 13 20 71 5 71 -20 0 -19 15 -26 23 -11 8 13 -12 52 -28 52 -19 0 -19
20 -1 45 12 17 17 18 38 7 13 -8 37 -15 52 -16 16 -2 38 -15 50 -29 23 -28 56
-47 80 -47 26 0 18 18 -11 25 -16 3 -39 22 -54 43 -17 26 -39 42 -67 51 -44
15 -47 18 -33 40 14 22 53 6 79 -33 23 -34 53 -46 112 -46 32 0 94 -69 84 -94
-4 -11 0 -16 15 -16 14 0 21 -6 21 -20 0 -21 15 -27 25 -10 18 29 81 -10 94
-57 6 -23 13 -28 38 -28 20 0 40 -10 58 -27 l28 -28 -37 0 c-20 0 -36 4 -36 9
0 4 -33 12 -72 16 -83 8 -93 12 -78 30 15 19 -4 55 -29 55 -14 0 -18 -5 -14
-20 4 -16 0 -20 -22 -20 -24 0 -26 3 -21 24 8 31 -42 76 -84 76 -40 0 -91 24
-123 59 -29 31 -64 48 -75 36 -4 -4 2 -12 12 -19 11 -6 36 -25 55 -42 49 -42
74 -54 113 -54 38 0 78 -24 78 -46 0 -11 -7 -13 -27 -8 -16 4 -29 11 -31 16
-6 13 -32 9 -30 -4 5 -24 -37 -20 -47 4 -5 13 -20 27 -32 33 -13 5 -23 13 -23
17 0 5 -9 8 -20 8 -33 0 -22 -21 20 -37 39 -15 47 -40 9 -28 -27 9 -62 -4 -55
-20 3 -8 -2 -19 -10 -25 -10 -9 -14 -9 -14 -1 0 7 -24 11 -66 11 -41 0 -63 -4
-59 -10 3 -5 15 -10 26 -10 10 0 19 -5 19 -11 0 -8 -13 -10 -37 -5 -21 3 -50
6 -65 6 -20 0 -27 6 -30 22 -2 17 -14 24 -58 34 -104 23 -131 32 -151 49 -18
17 -19 17 -26 -2 -7 -17 -12 -19 -32 -12 -21 8 -23 14 -19 54 4 34 2 45 -8 45
-10 0 -14 -13 -14 -41 0 -49 15 -79 39 -79 10 0 24 -7 31 -15 16 -19 30 -19
30 0 0 17 16 20 25 5 3 -5 17 -10 30 -10 32 0 40 -16 15 -30 -16 -9 -37 -7
-88 5 -121 31 -143 65 -106 162 9 24 14 46 11 49 -3 3 -20 -1 -38 -10 -21 -10
-36 -13 -42 -7 -6 6 0 12 17 17 15 3 38 22 53 40 24 32 25 37 13 79 -7 25 -16
45 -20 45 -16 0 -17 -25 -3 -53 13 -25 12 -31 -1 -52 -25 -38 -82 -68 -116
-60 -34 8 -36 12 -14 36 13 14 15 29 10 64 -4 26 -11 43 -17 39 -6 -3 -8 -22
-4 -43 5 -30 2 -41 -14 -56 -20 -17 -22 -17 -41 0 -11 10 -20 24 -20 31 0 21
-103 189 -108 175 -2 -7 7 -29 21 -49 27 -41 67 -117 67 -128 0 -14 -34 23
-71 78 -21 31 -39 59 -39 62 0 2 -25 48 -55 100 -62 108 -106 200 -155 326
-18 47 -39 92 -47 101 -7 8 -13 21 -13 27 0 7 -4 12 -10 12 -15 0 -12 -26 5
-40 8 -7 15 -17 15 -22 0 -6 6 -24 14 -41 8 -18 29 -68 46 -112 17 -44 41 -99
53 -121 12 -23 44 -84 70 -135 27 -52 54 -100 59 -107 6 -7 9 -14 7 -17 -8 -7
-54 59 -74 105 -27 65 -40 78 -54 52 -15 -28 2 -106 41 -192 23 -51 27 -70 19
-87 -8 -16 -6 -32 4 -57 8 -20 15 -40 15 -46 0 -15 -62 -12 -103 5 -42 17 -61
19 -52 5 3 -6 16 -10 29 -10 12 0 27 -5 33 -11 5 -5 30 -9 54 -7 48 3 48 3 33
91 -3 20 -3 37 1 37 18 0 34 -39 35 -82 0 -26 4 -50 10 -53 5 -3 9 2 8 12 0
10 0 27 0 37 2 18 4 18 27 -4 32 -30 31 -39 -5 -69 -25 -21 -39 -24 -87 -22
-71 3 -113 -11 -113 -38 0 -53 -39 -64 -140 -40 -25 6 -65 11 -88 10 -50 -2
-92 20 -92 48 0 20 -14 34 -42 44 -28 10 -32 -12 -4 -23 16 -6 26 -17 26 -29
0 -31 63 -64 108 -57 26 4 31 3 17 -4 -33 -14 -85 -11 -117 8 -30 17 -31 17
-45 -6 -12 -17 -25 -22 -62 -22 l-46 0 35 18 c27 13 36 24 38 48 5 51 -19 60
-68 28 -26 -17 -37 -31 -31 -37 6 -6 18 -2 32 12 32 30 51 27 47 -6 -2 -19
-10 -29 -23 -31 -11 -2 -38 -12 -61 -23 -50 -22 -97 -14 -102 18 -6 38 -26 45
-58 21 -29 -24 -94 -50 -94 -39 1 26 15 51 30 51 22 0 37 18 42 49 3 26 11 31
81 56 63 22 107 60 107 91 0 43 38 104 74 119 36 15 39 22 80 153 29 94 30 95
16 87 -14 -9 -33 -56 -54 -137 -10 -37 -24 -72 -32 -79 -12 -10 -14 -2 -14 43
0 45 -5 60 -24 79 -33 34 -37 103 -21 355 8 118 12 227 9 244 -4 16 -3 49 0
73 l7 44 52 6 c29 3 65 3 80 0 26 -5 27 -8 27 -63 0 -31 5 -92 10 -136 9 -64
7 -106 -7 -222 -10 -79 -16 -148 -12 -153 10 -17 15 0 28 91 22 154 25 163 29
95 4 -73 -14 -183 -39 -239 -12 -26 -19 -64 -19 -103 0 -35 -4 -63 -9 -63 -12
0 -41 -63 -41 -90 0 -13 -18 -43 -41 -67 -27 -30 -38 -50 -34 -62 4 -13 -5
-25 -35 -45 -22 -14 -40 -32 -40 -39 0 -6 -14 -21 -31 -32 -40 -26 -54 -52
-38 -71 17 -20 31 -17 24 5 -4 14 4 27 30 48 19 15 35 33 35 40 0 19 72 65 84
53 6 -6 4 -15 -5 -26 -12 -14 -11 -16 6 -13 30 6 34 59 5 66 -28 7 -18 40 25
75 23 19 34 38 37 65 3 21 18 56 33 78 21 32 25 47 21 76 -4 25 2 61 18 110
27 83 50 195 42 207 -8 14 -10 175 -2 200 4 13 3 22 -3 22 -5 0 -13 -10 -17
-22 -11 -37 -22 0 -30 101 -10 132 13 201 67 201 16 0 29 4 29 9 0 5 11 12 25
15 14 4 25 11 25 16 0 14 -13 12 -36 -5 -26 -20 -92 -19 -133 3 -44 22 -73 77
-78 150 -20 271 -12 462 27 627 11 44 24 114 30 155 12 81 31 125 93 208 21
29 44 69 51 89 9 27 21 40 42 46 46 15 94 66 101 109 3 21 11 38 17 38 7 0 20
16 29 35 14 29 20 34 34 26 14 -7 24 -1 51 30 32 37 62 51 62 29z m528 -9 c3
-8 -1 -12 -9 -9 -7 2 -15 10 -17 17 -3 8 1 12 9 9 7 -2 15 -10 17 -17z m72 9
c0 -5 -7 -10 -15 -10 -8 0 -15 5 -15 10 0 6 7 10 15 10 8 0 15 -4 15 -10z
m-1100 -15 c0 -8 -4 -15 -10 -15 -5 0 -10 7 -10 15 0 8 5 15 10 15 6 0 10 -7
10 -15z m210 -5 c0 -5 -4 -10 -10 -10 -5 0 -10 5 -10 10 0 6 5 10 10 10 6 0
10 -4 10 -10z m1186 -11 c3 -5 -4 -9 -14 -9 -11 0 -22 6 -25 14 -4 10 0 12 14
9 11 -3 22 -9 25 -14z m-1486 -15 c24 -12 29 -19 19 -25 -23 -14 -33 -10 -46
16 -13 30 -14 29 27 9z m1006 2 c3 -8 4 -23 2 -33 -3 -14 -8 -11 -21 15 -15
28 -16 32 -2 32 9 0 18 -6 21 -14z m-720 -54 c-11 -10 -15 4 -8 28 l7 25 3
-23 c2 -13 1 -26 -2 -30z m914 28 c0 -11 -4 -20 -10 -20 -5 0 -10 9 -10 20 0
11 5 20 10 20 6 0 10 -9 10 -20z m137 14 c-3 -3 -12 -4 -19 -1 -8 3 -5 6 6 6
11 1 17 -2 13 -5z m-1383 -53 c14 -12 19 -11 34 2 9 8 29 18 45 21 84 18 77
21 77 -27 0 -37 -4 -46 -26 -57 -61 -33 -91 -126 -55 -168 11 -13 31 -24 44
-26 27 -3 47 -14 47 -25 0 -5 -8 -19 -19 -32 -16 -20 -21 -21 -35 -10 -10 9
-16 10 -16 2 0 -6 -4 -11 -10 -11 -5 0 -10 7 -10 15 0 8 -4 15 -10 15 -5 0
-10 -4 -10 -10 0 -5 -5 -10 -11 -10 -7 0 -9 10 -5 25 5 20 2 26 -19 31 -41 10
-55 41 -55 120 0 58 4 76 21 99 18 22 20 29 8 36 -8 5 -17 9 -21 9 -5 0 -8 12
-7 28 0 24 1 25 9 7 4 -12 15 -27 24 -34z m1520 43 c12 -4 16 -20 16 -56 0
-44 -2 -49 -17 -43 -18 8 -48 17 -103 34 -37 11 -45 1 -54 -61 -12 -79 -35
-59 -30 24 4 61 19 88 49 88 13 0 27 5 30 10 7 11 84 14 109 4z m-583 -67
c-16 -38 -29 -51 -70 -72 -28 -14 -51 -28 -51 -31 0 -11 54 7 72 23 9 8 23 13
30 11 13 -5 -17 -39 -61 -71 -38 -26 -17 -32 24 -7 43 27 91 89 100 131 8 35
25 39 25 5 0 -65 -72 -175 -134 -206 -54 -25 -61 -24 -57 12 2 22 -3 30 -24
38 -18 7 -33 7 -46 0 -19 -11 -22 -25 -19 -92 2 -42 1 -42 -70 -28 -29 5 -49
5 -57 -2 -9 -7 -14 -6 -17 3 -2 8 -11 34 -20 59 -9 25 -15 66 -15 90 1 25 3
36 6 25 17 -79 79 -180 90 -148 3 10 9 10 23 1 37 -24 31 1 -9 37 -23 21 -41
46 -41 56 0 11 -7 19 -15 19 -15 0 -35 58 -35 100 1 20 6 15 28 -27 33 -64 93
-134 99 -115 3 7 -2 23 -11 35 -9 12 -30 40 -46 62 -30 40 -66 132 -57 141 3
3 14 -14 25 -38 11 -24 30 -52 43 -64 30 -25 107 -59 116 -51 3 4 -14 16 -40
27 -44 20 -97 70 -97 93 0 6 14 -2 30 -18 29 -27 36 -29 113 -30 99 0 154 21
171 67 6 16 12 25 14 20 1 -5 -6 -30 -17 -55z m-631 9 c0 -15 -27 -53 -33 -46
-3 3 -2 19 0 37 4 22 9 30 19 26 8 -3 14 -11 14 -17z m994 10 c9 3 16 2 16 -4
0 -6 -6 -12 -12 -15 -10 -4 -10 -7 0 -18 15 -16 16 -29 1 -29 -5 0 -15 14 -20
30 -6 17 -15 30 -20 30 -5 0 -9 5 -9 11 0 8 4 8 14 0 7 -6 21 -9 30 -5z m-202
-21 c16 -14 37 -25 45 -25 20 0 42 -29 43 -55 0 -15 11 -25 35 -34 33 -12 56
-38 61 -71 2 -8 17 -26 34 -40 27 -22 36 -41 57 -125 14 -55 29 -147 33 -205
4 -58 12 -123 18 -145 25 -96 33 -291 26 -636 -6 -288 -9 -349 -21 -344 -38
15 -46 15 -23 -2 77 -57 149 -144 193 -236 26 -52 51 -115 56 -138 25 -106 4
-241 -57 -371 -39 -83 -43 -87 -189 -219 -55 -50 -77 -53 -140 -22 -29 15 -53
33 -53 39 0 7 -3 19 -6 28 -4 11 2 17 23 22 79 19 218 134 270 225 14 24 39
85 55 134 25 77 29 100 24 157 -7 75 -26 132 -65 193 -34 52 -32 49 -96 127
-31 38 -53 72 -50 78 3 5 -3 10 -14 10 -18 0 -13 -12 39 -87 57 -84 60 -91 60
-148 0 -108 19 -227 46 -282 26 -54 28 -83 7 -90 -6 -2 -14 12 -18 35 -4 23
-17 50 -32 63 -33 31 -98 169 -112 239 -19 98 -40 243 -52 360 -20 202 -56
326 -92 318 -6 -1 -27 12 -46 30 -18 18 -40 32 -48 32 -10 0 -14 10 -12 38 1
20 2 61 1 90 -2 47 -7 59 -37 89 -26 26 -31 35 -19 40 8 3 21 0 29 -7 17 -14
31 -8 20 9 -3 6 -17 11 -31 11 -13 0 -24 5 -24 10 0 6 4 10 8 10 5 0 21 17 35
37 27 37 36 39 17 3 -7 -14 -6 -23 5 -34 9 -8 16 -19 17 -23 0 -4 7 -17 15
-28 11 -15 16 -17 20 -6 5 11 7 11 14 0 11 -19 22 -4 14 20 -4 13 -12 18 -21
14 -10 -4 -17 2 -21 16 -3 11 -12 21 -20 21 -8 0 -12 4 -8 9 3 5 17 8 30 5 18
-3 25 0 25 11 0 12 -6 15 -20 10 -21 -7 -28 9 -9 21 6 3 17 20 25 38 11 26 13
27 14 9 0 -12 -5 -25 -12 -29 -8 -5 -7 -10 5 -18 19 -14 43 -256 34 -348 -4
-42 -2 -58 6 -55 9 3 12 48 11 153 -2 295 -90 847 -160 1001 -8 17 -14 35 -14
40 1 17 30 -44 45 -94 15 -51 35 -71 35 -35 0 22 -25 94 -50 143 -24 45 -19
48 22 14z m-1501 -55 c22 -12 26 -68 8 -102 -9 -17 -6 -25 15 -47 32 -33 43
-99 27 -159 -15 -55 -47 -72 -148 -75 l-78 -2 3 85 c2 55 0 80 -6 71 -8 -10
-11 -11 -17 -1 -5 8 -1 18 8 25 23 17 31 152 11 180 -8 10 -14 22 -14 27 0 12
168 10 191 -2z m1435 -37 c-10 -10 -19 5 -10 18 6 11 8 11 12 0 2 -7 1 -15 -2
-18z m-508 -56 c0 -44 31 -143 58 -188 22 -35 43 -44 122 -51 8 -1 12 -23 12
-75 0 -80 3 -84 62 -87 l33 -1 1 72 c2 101 4 103 67 103 62 0 83 16 73 55 -4
16 1 40 15 68 31 58 34 33 9 -55 -21 -70 -64 -141 -109 -182 -24 -22 -28 -38
-7 -30 19 7 87 96 115 149 12 22 21 35 21 30 0 -6 8 -1 17 10 15 19 15 19 10
-5 -4 -14 -11 -50 -18 -80 -14 -69 -88 -225 -126 -265 -50 -53 -81 -68 -129
-62 -43 4 -59 -5 -28 -17 27 -10 58 -6 103 14 57 26 99 62 131 113 27 43 110
283 110 318 0 10 5 19 10 19 29 0 -39 -260 -109 -415 -49 -107 -134 -156 -207
-121 -40 19 -44 19 -44 6 0 -14 55 -40 85 -40 76 0 148 65 216 196 29 55 49
86 46 69 -3 -16 -8 -46 -12 -66 -3 -21 -12 -42 -20 -49 -8 -7 -15 -21 -15 -32
0 -27 -56 -105 -88 -122 l-27 -15 37 -1 c33 0 41 5 63 38 28 42 85 194 85 227
0 11 9 47 20 80 l20 60 -5 -60 c-6 -88 -33 -222 -57 -282 -24 -64 -87 -114
-118 -95 -10 6 -58 16 -107 22 -48 6 -95 18 -104 26 -8 8 -21 14 -27 14 -28 0
-92 75 -130 153 -44 92 -60 165 -88 426 -5 47 -4 62 4 57 7 -4 12 -25 12 -46
0 -21 4 -41 9 -44 4 -3 11 -36 14 -74 12 -120 91 -252 152 -252 12 0 38 -6 56
-14 19 -7 39 -12 44 -11 6 2 22 6 38 9 39 9 35 30 -5 22 -54 -11 -145 14 -182
50 -38 37 -75 127 -83 202 -3 29 -10 55 -14 58 -5 3 -9 22 -9 42 0 20 -5 55
-10 77 -8 34 -5 85 5 85 2 0 3 -15 3 -33z m533 16 c5 -84 -14 -163 -38 -163
-11 0 -14 7 -10 23 3 12 11 52 18 90 12 62 28 89 30 50z m-842 -33 c-6 -16
-15 -30 -20 -30 -13 0 -11 34 3 48 21 21 27 13 17 -18z m770 3 c-31 -83 -85
-133 -143 -133 -54 0 -45 24 19 55 30 15 71 45 92 66 21 21 39 39 40 39 1 0
-2 -12 -8 -27z m481 -53 c21 0 43 6 50 15 17 21 27 11 28 -29 1 -26 -4 -38
-24 -50 -13 -9 -29 -14 -34 -11 -5 3 -16 -5 -24 -17 -16 -23 -21 -16 -17 25 2
11 -5 17 -19 17 -35 0 -58 18 -65 50 -10 45 2 54 37 25 20 -17 41 -25 68 -25z
m-674 -15 c0 -27 2 -56 2 -62 1 -9 22 -13 66 -13 67 0 80 -7 70 -34 -5 -12
-21 -16 -69 -16 l-62 0 -7 -37 c-3 -21 -6 -61 -6 -90 0 -50 -1 -52 -22 -44
-21 8 -23 14 -20 76 4 84 -4 95 -75 95 -53 0 -54 1 -51 27 3 26 5 27 57 24 64
-3 71 4 71 77 0 50 2 53 23 50 19 -3 22 -9 23 -53z m-336 -55 c-7 -28 -14 -49
-16 -47 -3 2 1 27 8 55 6 29 13 50 16 47 2 -2 -1 -27 -8 -55z m-440 -15 c9
-11 10 -19 2 -27 -14 -14 -32 -1 -32 23 0 23 13 25 30 4z m146 -17 c-3 -7 -7
-25 -10 -40 -7 -32 -36 -38 -36 -8 0 29 -28 25 -42 -5 -8 -17 -18 -25 -32 -23
-27 4 -33 28 -7 28 11 0 25 9 31 21 8 15 18 19 33 15 12 -2 31 2 41 10 24 17
26 17 22 2z m1269 -14 c9 -14 14 -28 12 -31 -8 -7 -47 30 -47 44 0 21 16 15
35 -13z m-936 -154 c23 -160 87 -315 147 -354 34 -23 26 -29 -22 -17 -22 5
-82 20 -134 33 l-95 24 3 39 c4 47 22 73 22 31 0 -30 16 -66 29 -66 5 0 3 24
-5 53 -16 61 -18 133 -4 142 6 3 10 -4 10 -16 0 -37 30 -132 50 -159 30 -40
34 -16 7 42 -14 29 -30 85 -36 125 -12 80 -14 235 -4 273 8 27 8 29 32 -150z
m-69 93 c-11 -17 -11 -17 -6 0 3 10 6 24 7 30 0 9 2 9 5 0 3 -7 0 -20 -6 -30z
m1110 2 c0 -8 -4 -15 -10 -15 -5 0 -10 7 -10 15 0 8 5 15 10 15 6 0 10 -7 10
-15z m-1540 -1 c0 -10 -31 -36 -37 -31 -10 10 6 37 22 37 8 0 15 -3 15 -6z
m1470 -4 c0 -5 -4 -10 -10 -10 -5 0 -10 5 -10 10 0 6 5 10 10 10 6 0 10 -4 10
-10z m-1350 -20 c0 -5 -4 -10 -10 -10 -5 0 -10 5 -10 10 0 6 5 10 10 10 6 0
10 -4 10 -10z m1367 -12 c-3 -8 -6 -5 -6 6 -1 11 2 17 5 13 3 -3 4 -12 1 -19z
m-1461 -15 c-12 -55 34 -72 53 -21 9 22 9 22 17 3 4 -11 14 -26 21 -34 17 -16
11 -37 -8 -32 -8 2 -22 6 -31 8 -12 4 -21 -3 -28 -22 -11 -29 -25 -27 -25 3 0
10 -9 18 -22 20 -13 2 -23 -1 -23 -7 0 -6 -4 -11 -10 -11 -5 0 -10 11 -10 25
0 18 7 28 25 35 14 5 25 17 25 28 0 17 8 32 17 32 3 0 2 -12 -1 -27z m1414 -9
c0 -8 -5 -12 -10 -9 -6 4 -8 11 -5 16 9 14 15 11 15 -7z m90 -37 c0 -10 -6
-17 -12 -15 -7 1 -23 -3 -35 -10 -24 -13 -56 -6 -50 12 2 6 10 11 18 11 8 0
18 9 23 21 8 17 13 19 33 10 12 -6 23 -19 23 -29z m130 -17 c0 -5 -15 -10 -34
-10 -19 0 -41 -3 -50 -6 -9 -3 -16 -1 -16 4 0 10 27 17 78 21 12 0 22 -3 22
-9z m-2370 -16 c0 -8 -4 -12 -10 -9 -5 3 -10 10 -10 16 0 5 5 9 10 9 6 0 10
-7 10 -16z m638 -25 c-3 -18 -11 -21 -55 -23 -49 -1 -53 0 -53 21 0 21 4 23
56 23 51 0 55 -2 52 -21z m2282 1 c-20 -13 -40 -13 -40 0 0 6 12 10 28 10 21
0 24 -2 12 -10z m-2090 -12 c0 -7 -3 -29 -6 -50 -6 -34 -9 -36 -53 -43 -25 -4
-56 -13 -68 -21 -20 -13 -22 -12 -16 3 8 24 83 103 108 113 28 12 35 12 35 -2z
m1383 -16 c15 -19 29 -52 21 -52 -2 0 -20 6 -38 14 -29 12 -52 47 -39 59 8 8
41 -5 56 -21z m157 3 c0 -23 -3 -25 -50 -25 -47 0 -50 2 -50 25 0 23 3 25 50
25 47 0 50 -2 50 -25z m-2365 5 c3 -5 1 -10 -4 -10 -6 0 -11 5 -11 10 0 6 2
10 4 10 3 0 8 -4 11 -10z m675 -15 c0 -8 -4 -15 -10 -15 -5 0 -10 7 -10 15 0
8 5 15 10 15 6 0 10 -7 10 -15z m-59 -15 c18 0 19 -8 19 -109 0 -59 -3 -136
-6 -170 -6 -56 -9 -61 -31 -61 -14 0 -22 -4 -18 -10 4 -6 16 -10 27 -8 18 3
21 -3 22 -42 1 -42 -1 -45 -26 -48 -16 -2 -28 -7 -28 -12 0 -5 12 -10 28 -12
15 -2 26 -7 24 -13 -2 -5 -10 -9 -18 -7 -22 4 -17 -19 6 -25 18 -5 20 -14 20
-75 l0 -70 -30 7 c-19 4 -30 3 -30 -4 0 -6 14 -11 30 -11 l30 0 0 -84 c0 -50
-4 -88 -11 -92 -8 -4 -8 -9 0 -17 6 -6 11 -19 11 -29 0 -15 -8 -18 -47 -18
-54 0 -48 -17 7 -22 37 -3 44 -21 10 -26 -29 -5 -25 -22 6 -22 22 0 24 -2 14
-15 -10 -12 -9 -16 4 -21 14 -5 16 -16 11 -63 -3 -31 -6 -65 -6 -76 0 -11 -5
-23 -12 -28 -9 -7 -9 -10 1 -14 26 -10 10 -23 -28 -23 -22 0 -40 -4 -40 -10 0
-5 18 -10 40 -10 29 0 40 -4 40 -15 0 -8 -9 -15 -20 -15 -11 0 -20 -4 -20 -10
0 -5 9 -10 20 -10 19 0 20 -7 20 -121 0 -104 -2 -120 -15 -115 -9 3 -15 0 -15
-10 0 -10 6 -14 15 -10 11 4 15 -2 15 -24 0 -34 0 -34 -49 -19 l-36 11 0 131
c0 73 -5 250 -9 395 l-9 262 41 0 c23 0 42 5 42 10 0 6 -18 10 -39 10 -25 0
-41 5 -45 15 -3 8 -6 149 -6 312 -1 482 -3 441 23 446 12 2 28 3 35 1 8 -2 22
-4 33 -4z m-621 -82 c0 -40 -5 -80 -10 -88 -7 -10 -10 12 -10 73 0 51 4 87 10
87 6 0 10 -31 10 -72z m2361 -103 c-2 -88 -5 -185 -6 -215 -2 -30 -6 -131 -9
-225 -11 -296 -28 -590 -35 -597 -3 -4 -17 4 -30 18 -17 17 -19 24 -8 24 8 0
18 7 21 16 4 12 1 14 -14 9 -19 -6 -20 -2 -20 144 0 82 -4 152 -9 155 -5 3
-14 -1 -21 -9 -7 -8 -16 -12 -21 -9 -16 9 -10 24 9 24 10 0 22 3 26 8 8 7 13
9 46 11 29 2 25 21 -5 21 -14 0 -25 5 -25 10 0 6 11 10 25 10 14 0 25 5 25 10
0 6 -11 10 -25 10 -23 0 -25 4 -25 45 0 42 2 45 28 46 23 2 24 2 5 6 -31 6
-29 23 2 23 14 0 25 5 25 11 0 6 -12 9 -27 7 l-28 -3 1 85 1 85 26 -3 c40 -4
41 15 1 23 l-36 6 3 210 4 210 50 -3 50 -3 -4 -160z m-526 64 c-8 -19 -13 -26
-11 -17 3 9 8 34 13 55 5 26 8 32 11 17 2 -12 -4 -37 -13 -55z m395 61 c11 -7
12 -12 3 -21 -13 -13 -33 -4 -33 17 0 16 9 18 30 4z m-366 -86 c-9 -27 -23
-56 -32 -64 -17 -18 -17 -17 19 68 27 65 35 63 13 -4z m-1149 28 c0 -18 -20
-15 -23 4 -3 10 1 15 10 12 7 -3 13 -10 13 -16z m85 -7 c0 -14 -3 -26 -7 -26
-5 -1 -17 -3 -28 -4 -11 -1 -30 -5 -42 -9 -34 -11 -27 6 15 36 46 34 62 35 62
3z m1438 -23 c2 -7 -2 -10 -12 -6 -9 3 -16 11 -16 16 0 13 23 5 28 -10z m-38
-2 c0 -5 -4 -10 -10 -10 -5 0 -10 5 -10 10 0 6 5 10 10 10 6 0 10 -4 10 -10z
m-1425 -29 c3 -5 1 -12 -5 -16 -5 -3 -10 1 -10 9 0 18 6 21 15 7z m-788 -108
c-2 -21 -4 -6 -4 32 0 39 2 55 4 38 2 -18 2 -50 0 -70z m716 70 c6 -34 -8 -64
-28 -57 -11 5 -12 11 -5 24 7 13 7 21 0 25 -8 5 -7 11 1 21 17 21 26 17 32
-13z m1535 -11 c2 -7 -3 -12 -12 -12 -9 0 -16 7 -16 16 0 17 22 14 28 -4z
m-1458 -22 c0 -18 -5 -30 -13 -30 -7 0 -29 -9 -50 -20 -20 -11 -37 -17 -37
-13 0 18 76 90 98 93 1 0 2 -13 2 -30z m380 10 c0 -5 -7 -10 -15 -10 -8 0 -15
5 -15 10 0 6 7 10 15 10 8 0 15 -4 15 -10z m70 -26 c0 -8 -9 -14 -20 -14 -26
0 -26 -26 -1 -40 38 -20 75 -12 94 20 25 42 45 39 43 -6 -1 -45 20 -63 61 -48
18 6 29 18 31 33 3 19 8 22 30 16 33 -8 34 -9 26 -28 -3 -9 -15 -15 -26 -14
-12 1 -23 -3 -25 -9 -5 -14 70 -36 100 -29 22 6 23 4 19 -30 -4 -32 -7 -36
-26 -31 -43 12 -101 17 -86 8 31 -19 138 -33 162 -22 22 11 22 10 3 -5 -11 -8
-42 -30 -70 -49 -45 -30 -72 -66 -89 -118 -3 -10 -13 -18 -21 -18 -24 0 -222
78 -272 107 -39 23 -43 29 -50 76 -4 29 -7 63 -7 77 0 26 2 27 74 15 48 -9 20
11 -37 26 -36 9 -43 16 -43 35 0 20 4 23 23 19 16 -4 30 2 51 24 28 29 56 32
56 5z m50 0 c0 -3 -5 -14 -10 -25 -11 -20 -40 -27 -40 -9 0 6 7 10 16 10 10 0
14 6 10 15 -3 9 0 15 9 15 8 0 15 -3 15 -6z m137 -35 c17 -17 4 -39 -22 -39
-27 0 -39 14 -31 35 6 18 37 20 53 4z m823 -19 c0 -5 -9 -14 -20 -20 -16 -8
-20 -8 -20 4 0 8 8 17 18 19 9 3 18 5 20 6 1 0 2 -3 2 -9z m-650 -7 c-1 -18
-27 -38 -47 -38 -22 1 -25 7 -16 33 5 13 63 17 63 5z m64 -19 c13 -33 6 -49
-9 -20 -18 33 -18 36 -6 36 5 0 12 -7 15 -16z m-934 -14 c0 -11 -4 -20 -10
-20 -5 0 -10 2 -10 4 0 2 -3 11 -6 20 -4 11 -1 16 10 16 9 0 16 -8 16 -20z
m985 10 c-3 -5 -11 -10 -16 -10 -6 0 -7 5 -4 10 3 6 11 10 16 10 6 0 7 -4 4
-10z m-101 -15 c-6 -16 -24 -21 -24 -7 0 11 11 22 21 22 5 0 6 -7 3 -15z
m-824 -27 c0 -19 -2 -20 -10 -8 -13 19 -13 30 0 30 6 0 10 -10 10 -22z m850 7
c0 -2 -5 -16 -12 -30 -11 -24 -38 -35 -38 -15 0 6 4 10 9 10 5 0 13 9 16 20 5
17 25 29 25 15z m102 -9 c41 -9 49 -34 32 -93 -17 -58 -25 -67 -74 -81 -19 -5
-44 -13 -54 -18 -14 -5 -17 -4 -12 5 4 6 25 19 47 28 21 8 39 19 39 24 0 14
-32 11 -49 -5 -9 -7 -27 -17 -41 -20 -24 -7 -24 -6 5 18 45 38 22 43 -36 7
-78 -48 -83 -31 -6 19 51 34 69 52 78 80 15 47 18 50 32 45 7 -2 24 -6 39 -9z
m508 -26 c-12 -8 -13 -13 -2 -30 6 -11 12 -36 12 -55 0 -27 -4 -35 -18 -35
-10 0 -23 5 -29 11 -13 13 -7 66 10 87 7 8 5 12 -7 12 -23 0 -20 15 7 27 26
13 50 -2 27 -17z m-1526 4 c8 -22 8 -24 -8 -24 -15 0 -28 24 -19 34 11 10 21
7 27 -10z m31 -68 c26 -17 30 -28 40 -110 4 -27 9 -55 12 -62 13 -35 -17 -8
-52 46 -23 36 -49 63 -62 66 -19 5 -23 13 -23 45 0 37 1 38 30 35 16 -2 41
-11 55 -20z m57 -272 c-17 -35 -55 -56 -99 -52 -35 3 -38 5 -41 37 -3 33 -3
34 27 28 29 -6 84 13 97 35 13 21 27 -23 16 -48z m1448 -22 c0 -29 -22 -52
-49 -52 -18 0 -21 6 -21 39 0 38 1 39 35 38 30 -1 35 -4 35 -25z m-1445 -32
c-3 -5 -11 -10 -16 -10 -6 0 -7 5 -4 10 3 6 11 10 16 10 6 0 7 -4 4 -10z m-65
-40 c0 -11 -4 -20 -10 -20 -5 0 -10 9 -10 20 0 11 5 20 10 20 6 0 10 -9 10
-20z m179 4 c3 -2 -3 -20 -12 -39 l-17 -35 -74 0 c-41 0 -77 4 -80 8 -9 15 57
70 89 75 29 4 86 -1 94 -9z m-209 -61 c0 -10 -5 -25 -10 -33 -8 -12 -10 -11
-10 8 0 12 -4 22 -10 22 -5 0 -10 5 -10 10 0 6 9 10 20 10 12 0 20 -7 20 -17z
m1530 7 c0 -5 -2 -10 -4 -10 -3 0 -8 5 -11 10 -3 6 -1 10 4 10 6 0 11 -4 11
-10z m-33 -112 c-2 -71 -6 -103 -15 -106 -9 -3 -12 22 -12 102 0 85 3 106 14
106 12 0 14 -20 13 -102z m-1509 -1 c2 -10 -3 -17 -12 -17 -10 0 -16 9 -16 21
0 24 23 21 28 -4z m1542 7 c0 -8 -4 -12 -10 -9 -5 3 -10 10 -10 16 0 5 5 9 10
9 6 0 10 -7 10 -16z m-1530 -96 c0 -5 -7 -8 -15 -8 -20 0 -19 -27 2 -38 10 -6
14 -16 9 -27 -12 -33 -36 3 -36 56 0 47 1 49 20 37 11 -7 20 -16 20 -20z
m1527 -20 c-3 -7 -5 -2 -5 12 0 14 2 19 5 13 2 -7 2 -19 0 -25z m-1547 -118
c0 -5 -4 -10 -10 -10 -5 0 -10 5 -10 10 0 6 5 10 10 10 6 0 10 -4 10 -10z
m1507 -122 c-2 -18 -4 -4 -4 32 0 36 2 50 4 33 2 -18 2 -48 0 -65z m30 0 c-3
-7 -5 -2 -5 12 0 14 2 19 5 13 2 -7 2 -19 0 -25z m-1537 -28 c0 -16 -4 -30 -9
-30 -13 0 -21 27 -15 45 10 25 24 17 24 -15z m1569 -57 c0 -25 -1 -26 -9 -8
-12 27 -12 35 0 35 6 0 10 -12 9 -27z m-42 -35 c-2 -13 -4 -5 -4 17 -1 22 1
32 4 23 2 -10 2 -28 0 -40z m-1527 4 c0 -13 -12 -22 -22 -16 -10 6 -1 24 13
24 5 0 9 -4 9 -8z m1570 -37 c0 -14 -4 -25 -10 -25 -11 0 -14 33 -3 43 11 11
13 8 13 -18z m-1570 -60 c0 -19 -4 -35 -10 -35 -5 0 -10 16 -10 35 0 19 5 35
10 35 6 0 10 -16 10 -35z m1570 0 c0 -8 -4 -15 -10 -15 -5 0 -10 7 -10 15 0 8
5 15 10 15 6 0 10 -7 10 -15z m694 -105 c-4 -177 -4 -218 2 -276 7 -72 8 -72
-107 -81 -76 -6 -78 -5 -72 16 3 11 12 21 20 21 8 0 12 -4 8 -9 -9 -16 15 -23
32 -9 9 7 34 18 57 23 64 16 49 30 -36 33 -43 2 -78 7 -78 12 0 5 23 8 50 6
28 -2 50 0 50 5 0 4 -21 10 -47 12 -43 3 -42 4 15 5 61 2 91 22 31 22 -17 0
-28 4 -24 10 4 6 -10 10 -34 10 -52 0 -63 18 -14 22 31 2 38 7 38 25 0 12 4
25 8 30 12 11 27 -19 21 -41 -4 -12 -2 -17 7 -14 20 7 34 88 17 99 -22 14 -30
10 -23 -11 5 -16 2 -20 -19 -20 -16 0 -26 -6 -26 -15 0 -10 -10 -15 -28 -15
-32 0 -52 -16 -52 -42 0 -13 -8 -18 -30 -18 -33 0 -41 -17 -12 -26 44 -15 46
-17 18 -23 -34 -7 -48 -31 -17 -31 11 0 23 -4 26 -10 3 -5 -3 -10 -14 -10 -12
0 -21 -7 -21 -15 0 -18 17 -20 22 -3 6 18 38 1 38 -21 0 -29 -12 -32 -69 -20
-35 7 -59 20 -78 41 -16 17 -35 38 -44 48 -9 10 -37 20 -62 24 -36 6 -50 13
-69 41 -12 19 -28 35 -34 35 -17 0 -41 42 -36 62 3 14 8 15 28 8 14 -6 44 -10
67 -9 l42 1 -38 9 c-58 14 -77 27 -77 55 0 36 25 40 68 10 36 -25 44 -26 168
-26 71 1 148 5 172 9 47 9 97 54 114 102 7 20 16 29 27 27 13 -3 16 -16 15
-78z m-1669 12 c12 -58 110 -179 192 -237 76 -54 134 -85 158 -85 13 0 35 -7
51 -15 25 -13 28 -19 25 -57 -1 -24 -5 -45 -7 -47 -2 -2 -32 6 -66 19 -72 26
-149 73 -208 127 -73 65 -170 236 -170 298 0 41 15 39 25 -3z m1591 12 c-5
-14 -9 -15 -19 -5 -9 9 -9 14 3 21 18 11 24 6 16 -16z m-2721 -16 c39 -11 94
-19 123 -20 28 0 52 -5 52 -9 0 -20 -131 -4 -227 28 -29 9 -53 21 -53 26 0 5
8 6 18 2 9 -5 49 -17 87 -27z m230 12 c-28 -12 -45 -12 -45 0 0 6 15 10 33 9
27 0 29 -2 12 -9z m77 -22 c-5 -5 -20 -8 -33 -6 l-24 5 25 10 c28 12 47 6 32
-9z m2378 -8 c0 -5 -7 -10 -16 -10 -8 0 -12 5 -9 10 3 6 10 10 16 10 5 0 9 -4
9 -10z m-72 -17 c-16 -2 -40 -2 -55 0 -16 2 -3 4 27 4 30 0 43 -2 28 -4z
m-2098 -47 c0 -2 -7 -7 -16 -10 -8 -3 -12 -2 -9 4 6 10 25 14 25 6z m1304
-113 c-1 -35 3 -43 18 -43 29 0 21 -18 -12 -25 -16 -3 -40 -15 -54 -26 l-24
-19 -21 26 c-35 45 -23 88 18 62 11 -7 24 -9 28 -5 4 5 2 11 -5 16 -20 12 8
62 33 59 17 -3 20 -10 19 -45z m829 20 c-7 -2 -19 -2 -25 0 -7 3 -2 5 12 5 14
0 19 -2 13 -5z m92 -132 c-12 -11 -38 -14 -80 -11 l-30 3 35 7 c53 11 85 11
75 1z m-1405 -68 c13 -9 47 -29 74 -44 l50 -28 -39 -1 c-113 -5 -175 5 -182
27 -5 15 41 63 59 63 8 0 24 -8 38 -17z m704 1 c9 -3 16 -14 16 -24 0 -11 5
-22 10 -25 19 -12 10 -26 -12 -20 -46 14 -78 30 -78 41 0 9 19 22 47 33 1 1 8
-2 17 -5z m766 -94 c0 -89 0 -90 -25 -90 -15 0 -39 14 -62 38 -27 26 -46 37
-68 37 -23 0 -31 5 -33 21 -2 12 -12 30 -23 40 -10 9 -19 21 -19 25 0 5 37 10
83 12 45 1 97 4 115 5 l32 2 0 -90z m-1668 38 c-41 -9 -43 -11 -40 -41 3 -28
8 -33 53 -46 67 -19 343 -3 394 23 28 15 35 16 54 3 28 -18 104 -28 241 -33
103 -3 126 -7 114 -19 -3 -3 -299 -2 -658 2 -620 6 -651 7 -629 24 18 13 28
15 52 7 31 -11 143 -4 161 11 6 4 44 3 85 -2 67 -10 74 -9 87 8 8 10 14 29 14
41 0 27 12 33 70 32 l45 0 -43 -10z m121 -18 c10 0 29 -7 42 -16 13 -9 29 -13
34 -10 17 11 176 15 191 6 22 -14 -22 -27 -115 -35 -44 -3 -102 -8 -130 -11
-27 -2 -74 1 -102 7 -45 9 -52 13 -50 32 1 14 14 28 37 38 30 14 38 14 55 3
11 -8 28 -14 38 -14z m-853 -42 c0 -6 7 -20 17 -30 15 -17 13 -18 -55 -18 -74
0 -98 15 -43 26 17 4 38 15 47 25 17 19 34 17 34 -3z m1840 14 c0 -16 -24 -32
-48 -32 -19 0 -22 3 -13 13 6 8 8 17 4 20 -3 4 8 7 25 7 18 0 32 -4 32 -8z
m146 -17 c10 -8 28 -15 39 -15 11 0 29 -7 39 -15 11 -8 32 -15 47 -15 15 0 31
-4 34 -10 7 -11 -268 -12 -425 -1 l-95 6 95 9 c52 5 131 10 175 11 95 3 98 4
62 15 -17 5 -40 4 -57 -2 -16 -5 -37 -8 -46 -6 -17 3 -17 4 0 21 22 21 104 23
132 2z m-539 -1 c-3 -3 -12 -4 -19 -1 -8 3 -5 6 6 6 11 1 17 -2 13 -5z m953
-193 l0 -39 -37 10 c-48 13 -65 28 -53 48 8 12 13 13 30 3 27 -17 50 -16 50 2
0 8 2 15 5 15 3 0 5 -18 5 -39z"/>
<g>
<path d="M937 4858 c-18 -9 -18 -11 3 -25 26 -18 33 -13 23 15 -6 17 -12 19
-26 10z"/>
</g>
<g>
<path d="M980 4810 c0 -5 7 -10 15 -10 8 0 15 5 15 10 0 6 -7 10 -15 10 -8 0
-15 -4 -15 -10z"/>
</g>
<g>
<path d="M1483 4718 c-25 -26 -34 -61 -18 -67 16 -5 47 44 43 68 l-3 23 -22
-24z"/>
</g>
<g>
<path d="M1518 4567 c-15 -12 -41 -33 -58 -46 -48 -36 -90 -117 -90 -173 0
-60 31 -88 97 -88 59 0 103 22 131 66 37 57 39 94 6 173 -28 68 -29 68 -51 54
-27 -18 -30 -8 -6 19 22 25 4 22 -29 -5z m-14 -58 c-3 -5 -10 -7 -15 -3 -5 3
-7 10 -3 15 3 5 10 7 15 3 5 -3 7 -10 3 -15z m-34 -74 c0 -14 -4 -25 -9 -25
-10 0 -21 36 -13 44 12 13 22 5 22 -19z m80 5 c0 -5 -2 -10 -4 -10 -3 0 -8 5
-11 10 -3 6 -1 10 4 10 6 0 11 -4 11 -10z m-149 -61 c-6 -16 -10 -18 -10 -7
-1 22 12 55 16 42 2 -6 -1 -22 -6 -35z"/>
</g>
<g>
<path d="M1487 4242 c-10 -2 -16 -9 -14 -15 3 -7 11 -10 18 -8 8 2 25 4 38 5
13 1 26 6 28 13 4 11 -30 14 -70 5z"/>
</g>
<g>
<path d="M2855 4396 c-10 -15 -15 -29 -12 -33 4 -3 9 2 13 11 5 13 9 14 20 5
21 -18 28 -3 11 21 l-15 22 -17 -26z"/>
</g>
<g>
<path d="M2591 4126 c11 -9 69 -14 69 -6 0 6 -16 10 -37 10 -20 0 -34 -2 -32
-4z"/>
</g>
<g>
<path d="M2688 4083 c7 -3 16 -2 19 1 4 3 -2 6 -13 5 -11 0 -14 -3 -6 -6z"/>
</g>
<g>
<path d="M2778 4073 c7 -3 16 -2 19 1 4 3 -2 6 -13 5 -11 0 -14 -3 -6 -6z"/>
</g>
<g>
<path d="M2843 4053 c9 -2 23 -2 30 0 6 3 -1 5 -18 5 -16 0 -22 -2 -12 -5z"/>
</g>
<g>
<path d="M2848 4013 c7 -3 16 -2 19 1 4 3 -2 6 -13 5 -11 0 -14 -3 -6 -6z"/>
</g>
<g>
<path d="M2830 3880 c0 -5 12 -10 28 -10 21 0 24 2 12 10 -20 13 -40 13 -40 0z"/>
</g>
<g>
<path d="M2813 3263 c9 -2 25 -2 35 0 9 3 1 5 -18 5 -19 0 -27 -2 -17 -5z"/>
</g>
<g>
<path d="M2544 3135 c-4 -8 -3 -22 0 -30 4 -13 10 -14 26 -5 12 6 40 10 63 8
l42 -3 0 -120 c-1 -139 -13 -178 -58 -183 -28 -3 -29 -2 -25 35 2 26 -1 38
-10 37 -6 -1 -21 -2 -32 -2 -43 -4 -12 -120 33 -124 55 -3 84 5 112 33 29 29
29 29 35 176 l5 148 33 -3 c29 -3 32 -1 32 22 l0 26 -125 0 c-102 0 -127 -3
-131 -15z"/>
</g>
<g>
<path d="M2868 1733 c7 -3 16 -2 19 1 4 3 -2 6 -13 5 -11 0 -14 -3 -6 -6z"/>
</g>
<g>
<path d="M2860 1600 c-24 -8 -23 -8 8 -9 17 -1 32 4 32 9 0 11 -5 11 -40 0z"/>
</g>
<g>
<path d="M2870 1520 c0 -5 4 -10 9 -10 6 0 13 5 16 10 3 6 -1 10 -9 10 -9 0
-16 -4 -16 -10z"/>
</g>
<g>
<path d="M2845 1480 c3 -5 17 -10 31 -10 13 0 24 5 24 10 0 6 -14 10 -31 10
-17 0 -28 -4 -24 -10z"/>
</g>
<g>
<path d="M2810 1320 c0 -9 17 -12 80 -14 11 -1 19 3 18 9 -4 13 -98 19 -98 5z"/>
</g>
<g>
<path d="M2810 1280 c0 -5 23 -10 50 -10 28 0 50 5 50 10 0 6 -22 10 -50 10
-27 0 -50 -4 -50 -10z"/>
</g>
<g>
<path d="M2810 1242 c0 -11 98 -28 107 -18 10 10 0 14 -55 22 -34 4 -52 3 -52
-4z"/>
</g>
<g>
<path d="M2865 1201 c-57 -7 -51 -16 13 -20 33 -2 42 1 42 13 0 9 -1 15 -2 14
-2 0 -25 -4 -53 -7z"/>
</g>
<g>
<path d="M2833 1083 c-41 -5 -44 -23 -4 -23 43 0 91 11 91 21 0 9 -26 9 -87 2z"/>
</g>
<g>
<path d="M2808 1033 c-47 -5 -50 -23 -4 -23 47 0 96 11 96 21 0 9 -20 9 -92 2z"/>
</g>
<g>
<path d="M1293 3571 c-18 -54 -35 -106 -39 -115 -3 -9 -2 -16 2 -16 11 1 78
202 73 218 -2 6 -19 -33 -36 -87z"/>
</g>
<g>
<path d="M1475 3502 c-2 -3 0 -11 6 -18 8 -9 5 -15 -10 -24 -29 -15 -27 -34 3
-26 20 5 23 3 19 -14 -5 -17 0 -20 26 -20 24 0 31 4 31 20 0 12 5 17 14 14 8
-3 17 -1 21 5 3 6 -6 16 -21 21 -21 8 -24 14 -16 22 7 7 12 15 12 18 0 7 -77
9 -85 2z"/>
</g>
<g>
<path d="M940 3210 c0 -5 5 -10 10 -10 6 0 10 5 10 10 0 6 -4 10 -10 10 -5 0
-10 -4 -10 -10z"/>
</g>
<g>
<path d="M2020 3340 c0 -5 7 -10 15 -10 8 0 15 5 15 10 0 6 -7 10 -15 10 -8 0
-15 -4 -15 -10z"/>
</g>
<g>
<path d="M2030 3300 c0 -5 5 -10 10 -10 6 0 10 5 10 10 0 6 -4 10 -10 10 -5 0
-10 -4 -10 -10z"/>
</g>
<g>
<path d="M890 2051 c0 -37 26 -110 48 -133 33 -36 40 -28 14 14 -11 18 -25 51
-32 73 -13 42 -30 68 -30 46z"/>
</g>
<g>
<path d="M1558 1933 c-48 -7 -31 -19 27 -19 30 0 55 3 55 7 0 6 -40 20 -50 17
-3 0 -17 -3 -32 -5z"/>
</g>
<g>
<path d="M1630 1795 c0 -4 27 -35 61 -68 70 -70 122 -160 138 -234 6 -29 27
-92 46 -140 28 -69 35 -101 35 -153 0 -67 23 -166 42 -185 7 -7 9 -2 4 15 -21
73 -26 99 -26 145 0 61 -22 151 -54 220 -13 28 -29 75 -36 105 -19 83 -60 156
-125 228 -33 37 -85 77 -85 67z"/>
</g>
<g>
<path d="M1410 1694 c0 -5 21 -46 38 -73 1 -2 5 -2 8 2 8 7 -26 77 -37 77 -5
0 -9 -3 -9 -6z"/>
</g>
<g>
<path d="M1476 1662 c-2 -4 14 -39 36 -77 22 -39 56 -110 75 -160 48 -126 55
-139 86 -149 20 -7 36 -6 62 7 l35 17 0 -32 c0 -17 4 -45 10 -62 5 -17 12 -43
15 -58 3 -16 18 -34 35 -45 18 -10 30 -26 30 -38 0 -11 7 -42 15 -70 l15 -50
-5 48 c-3 27 -1 47 5 47 6 0 10 -12 11 -27 0 -16 4 -37 8 -48 7 -16 9 -14 14
14 9 44 -15 93 -63 131 -49 39 -57 70 -30 126 28 57 20 84 -23 84 -18 -1 -43
-7 -57 -15 -32 -18 -74 -19 -89 -2 -6 8 -26 54 -44 104 -30 80 -122 263 -132
263 -2 0 -6 -4 -9 -8z m346 -392 c-3 -26 -21 -52 -31 -45 -4 2 -5 20 -3 40 3
27 8 35 21 33 10 -3 15 -12 13 -28z"/>
</g>
<g>
<path d="M1454 1528 c4 -31 16 -98 26 -150 11 -51 20 -110 20 -130 0 -21 5
-38 10 -38 15 0 12 45 -11 150 -11 52 -22 119 -24 149 -2 30 -9 59 -16 65 -8
8 -10 -3 -5 -46z"/>
</g>
<g>
<path d="M1040 1558 c0 -33 13 -78 22 -78 6 0 7 15 3 38 -7 39 -25 68 -25 40z"/>
</g>
<g>
<path d="M1514 1492 c9 -17 16 -40 16 -50 0 -11 7 -25 15 -32 8 -6 23 -35 34
-63 10 -29 26 -65 35 -82 9 -16 16 -36 16 -43 0 -8 8 -27 17 -43 13 -22 25
-29 48 -29 71 0 91 62 22 68 -20 2 -37 -1 -37 -7 0 -17 22 -24 31 -10 7 11 10
12 21 1 11 -11 9 -16 -6 -28 -11 -8 -25 -14 -32 -14 -16 0 -44 39 -44 62 0 10
-11 39 -24 65 -14 27 -34 73 -46 103 -31 78 -55 123 -70 128 -8 3 -7 -6 4 -26z"/>
</g>
<g>
<path d="M1069 1365 c-10 -36 9 -174 29 -218 11 -23 23 -52 27 -64 3 -13 11
-23 16 -23 5 0 9 -6 9 -12 0 -7 9 -24 20 -38 12 -15 20 -41 20 -63 0 -22 7
-54 16 -73 14 -29 14 -37 3 -51 -13 -15 -12 -15 9 -4 25 14 27 28 7 55 -8 11
-15 38 -15 60 0 29 -10 57 -35 98 -49 79 -85 179 -86 241 -1 28 -4 66 -8 82
-6 25 -8 27 -12 10z"/>
</g>
<g>
<path d="M1550 1298 c0 -23 6 -60 14 -83 8 -22 19 -60 26 -85 7 -25 17 -54 23
-65 6 -11 17 -32 24 -47 15 -30 31 -43 40 -35 3 3 -4 18 -16 33 -11 15 -21 29
-21 33 0 9 51 31 72 31 10 0 27 9 38 20 16 16 17 20 5 20 -9 0 -18 -7 -21 -15
-4 -8 -17 -15 -30 -15 -13 0 -33 -6 -44 -12 -25 -16 -33 -7 -54 67 -10 33 -22
70 -27 83 -5 13 -9 40 -9 62 0 21 -4 42 -10 45 -6 4 -10 -11 -10 -37z"/>
</g>
<g>
<path d="M1026 1088 c-3 -13 4 -57 16 -99 11 -43 18 -88 15 -101 -7 -25 -10
-29 -95 -105 -38 -34 -56 -59 -61 -85 -12 -53 -3 -88 28 -101 14 -7 32 -17 39
-24 21 -20 24 -15 6 12 -9 14 -23 25 -30 25 -22 0 -37 44 -30 84 5 27 24 51
81 103 47 42 77 77 80 95 4 17 -2 56 -15 99 -13 40 -19 80 -16 94 4 14 2 25
-3 25 -5 0 -11 -10 -15 -22z"/>
</g>
<g>
<path d="M1773 1010 c-31 -18 -33 -23 -33 -75 l0 -55 -67 5 c-41 3 -71 1 -80
-6 -15 -13 -19 -114 -3 -104 6 3 10 27 10 52 l0 45 78 -3 77 -4 3 62 c3 61 4
63 34 71 18 4 33 13 36 20 6 18 -19 14 -55 -8z"/>
</g>
<g>
<path d="M1811 964 c-14 -17 -20 -36 -17 -49 3 -11 6 -35 6 -52 0 -27 4 -33
20 -33 12 0 32 -12 46 -27 l26 -28 -3 25 c-3 17 -15 30 -36 40 -30 14 -33 19
-33 61 0 25 5 50 11 56 6 6 9 17 7 24 -2 7 -13 1 -27 -17z"/>
</g>
<g>
<path d="M1124 845 c-8 -31 -40 -55 -73 -55 -58 0 -124 -78 -101 -120 11 -21
37 -33 45 -21 3 5 -2 11 -10 15 -8 3 -15 16 -15 28 0 38 28 67 76 79 48 12
104 57 104 83 0 25 -19 19 -26 -9z"/>
</g>
<g>
<path d="M1170 790 c-8 -5 -10 -10 -5 -10 6 0 17 5 25 10 8 5 11 10 5 10 -5 0
-17 -5 -25 -10z"/>
</g>
<g>
<path d="M1130 765 c-8 -9 -8 -15 -2 -15 12 0 26 19 19 26 -2 2 -10 -2 -17
-11z"/>
</g>
<g>
<path d="M1660 771 c0 -6 11 -11 24 -11 14 0 28 -4 31 -10 9 -15 25 -12 25 5
0 8 -8 15 -17 15 -10 0 -28 3 -40 6 -14 4 -23 2 -23 -5z"/>
</g>
<g>
<path d="M1700 731 c0 -5 -10 -12 -22 -16 -20 -6 -21 -8 -5 -12 10 -3 25 -2
33 1 16 6 19 36 4 36 -5 0 -10 -4 -10 -9z"/>
</g>
<g>
<path d="M1036 631 c-4 -5 -3 -16 0 -25 4 -11 0 -16 -12 -16 -12 0 -15 -3 -8
-10 16 -16 46 0 41 21 -3 11 -1 19 5 19 5 0 6 5 3 10 -8 12 -22 13 -29 1z"/>
</g>
<g>
<path d="M1103 623 c15 -2 37 -2 50 0 12 2 0 4 -28 4 -27 0 -38 -2 -22 -4z"/>
</g>
<g>
<path d="M1110 582 c0 -7 -14 -12 -31 -12 -24 0 -30 -4 -25 -15 4 -12 0 -14
-22 -10 -15 2 -9 -2 13 -9 47 -17 121 -20 130 -6 4 6 -11 7 -41 3 l-46 -6 17
27 c10 15 15 29 11 33 -3 3 -6 1 -6 -5z"/>
</g>
<g>
<path d="M1150 578 c14 -7 30 -19 37 -28 11 -13 12 -12 13 8 0 12 -6 22 -12
22 -7 0 -24 3 -38 5 l-25 6 25 -13z"/>
</g>
<g>
<path d="M1844 2235 c3 -10 11 -37 17 -61 6 -23 18 -45 26 -48 12 -5 13 -16 8
-56 -8 -58 9 -70 20 -14 8 44 -4 164 -16 164 -5 0 -9 -10 -10 -22 0 -18 -3
-16 -13 11 -7 19 -18 37 -26 39 -9 3 -11 -1 -6 -13z"/>
</g>
<g>
<path d="M238 3090 c-3 -36 -1 -40 20 -40 36 0 62 18 62 44 0 25 -17 36 -55
36 -19 0 -23 -6 -27 -40z"/>
</g>
<g>
<path d="M225 2999 c-3 -8 -2 -53 2 -99 8 -84 8 -85 37 -88 82 -10 129 95 72
161 -29 33 -102 50 -111 26z"/>
</g>
<g>
<path d="M1364 2793 c9 -16 24 -39 35 -53 l21 -25 0 23 c0 13 6 22 15 22 8 0
15 4 15 9 0 13 -27 21 -46 14 -10 -4 -17 1 -21 16 -3 11 -12 21 -19 21 -12 0
-12 -4 0 -27z"/>
</g>
<g>
<path d="M1715 2783 c-8 -35 -59 -105 -96 -132 -55 -41 -157 -33 -211 16 -22
20 -36 10 -17 -13 28 -34 100 -56 158 -49 45 6 61 14 100 50 46 43 91 113 91
141 0 24 -18 15 -25 -13z"/>
</g>
<g>
<path d="M1580 2785 c-14 -16 -10 -18 14 -9 9 3 16 10 16 15 0 14 -16 11 -30
-6z"/>
</g>
<g>
<path d="M1300 2607 c0 -62 86 -187 138 -202 32 -9 28 12 -6 29 -33 17 -72 71
-101 139 -20 47 -31 59 -31 34z"/>
</g>
<g>
<path d="M575 1910 c-4 -6 5 -10 19 -10 14 0 26 5 26 10 0 6 -9 10 -19 10 -11
0 -23 -4 -26 -10z"/>
</g>
<g>
<path d="M600 1281 c0 -10 36 -21 44 -14 3 3 3 10 0 14 -7 12 -44 12 -44 0z"/>
</g>
<g>
<path d="M610 1230 c0 -5 7 -10 15 -10 8 0 15 5 15 10 0 6 -7 10 -15 10 -8 0
-15 -4 -15 -10z"/>
</g>
<g>
<path d="M2306 1682 c-3 -6 -1 -14 5 -17 15 -10 25 3 12 16 -7 7 -13 7 -17 1z"/>
</g>
<g>
<path d="M1261 2226 c9 -10 110 -36 134 -35 11 1 0 7 -24 15 -57 18 -118 29
-110 20z"/>
</g>
<g>
<path d="M2606 811 c10 -10 125 -17 184 -11 28 2 23 4 -25 10 -88 11 -171 12
-159 1z"/>
</g>
</g>
<g>
<path d="M2974 4312 c-19 -15 -94 -125 -94 -138 0 -18 40 22 58 60 13 25 32
52 44 60 11 8 19 19 17 25 -2 6 -13 3 -25 -7z"/>
</g>
<g>
<path d="M2993 3335 c0 -22 2 -30 4 -17 2 12 2 30 0 40 -3 9 -5 -1 -4 -23z"/>
</g>
<g>
<path d="M3 2970 c0 -25 2 -35 4 -22 2 12 2 32 0 45 -2 12 -4 2 -4 -23z"/>
</g>
<g>
<path d="M2953 2603 c-54 -5 -56 -23 -4 -23 37 0 40 -2 44 -32 3 -25 4 -22 5
15 1 26 1 46 0 45 -2 -1 -22 -3 -45 -5z"/>
</g>
<g>
<path d="M2993 2365 c0 -44 2 -61 4 -37 2 23 2 59 0 80 -2 20 -4 1 -4 -43z"/>
</g>
<g>
<path d="M2992 2155 c0 -16 2 -22 5 -12 2 9 2 23 0 30 -3 6 -5 -1 -5 -18z"/>
</g>
<g>
<path d="M2930 2120 c0 -5 7 -10 15 -10 8 0 15 5 15 10 0 6 -7 10 -15 10 -8 0
-15 -4 -15 -10z"/>
</g>
<g>
<path d="M4 1975 c0 -71 1 -99 3 -62 2 37 2 96 0 130 -2 34 -3 4 -3 -68z"/>
</g>
<g>
<path d="M2940 1910 c0 -5 7 -10 15 -10 8 0 15 5 15 10 0 6 -7 10 -15 10 -8 0
-15 -4 -15 -10z"/>
</g>
<g>
<path d="M2960 1850 c0 -5 5 -10 11 -10 5 0 7 5 4 10 -3 6 -8 10 -11 10 -2 0
-4 -4 -4 -10z"/>
</g>
<g>
<path d="M2 1800 c0 -14 2 -19 5 -12 2 6 2 18 0 25 -3 6 -5 1 -5 -13z"/>
</g>
<g>
<path d="M1 1684 c0 -11 3 -14 6 -6 3 7 2 16 -1 19 -3 4 -6 -2 -5 -13z"/>
</g>
<g>
<path d="M1 1624 c0 -11 3 -14 6 -6 3 7 2 16 -1 19 -3 4 -6 -2 -5 -13z"/>
</g>
<g>
<path d="M187 324 c-3 -3 -3 -45 0 -92 5 -75 4 -86 -12 -98 -17 -13 -14 -14
24 -14 33 0 42 3 38 14 -3 8 -9 31 -13 50 l-6 36 41 0 c44 0 41 5 45 -75 1
-14 8 -20 26 -20 17 0 24 5 21 15 -2 8 -4 52 -5 98 -1 82 -1 83 -26 80 -22 -3
-25 -7 -22 -41 l4 -38 -39 3 c-34 3 -38 6 -38 31 -1 16 3 31 7 33 5 3 6 10 3
15 -7 10 -38 12 -48 3z"/>
</g>
<g>
<path d="M0 310 c0 -5 7 -13 15 -18 11 -6 16 -28 18 -85 2 -70 4 -77 22 -77
19 0 20 5 17 75 -5 81 6 98 47 75 19 -9 21 -8 21 15 0 24 -2 25 -70 25 -38 0
-70 -4 -70 -10z"/>
</g>
<g>
<path d="M380 310 c0 -5 4 -10 9 -10 6 0 10 -39 9 -87 0 -75 2 -88 16 -87 9 0
39 1 66 2 41 2 50 5 50 20 0 28 -11 34 -31 16 -28 -25 -54 -14 -57 26 -3 28
-1 33 9 23 20 -20 29 -16 29 12 0 25 -14 33 -25 15 -11 -18 -25 0 -25 31 0 25
4 29 29 29 18 0 31 -6 35 -17 5 -12 10 -13 18 -5 6 6 8 18 5 26 -5 12 -22 16
-72 16 -37 0 -65 -4 -65 -10z"/>
</g>
<g>
<path d="M630 312 c0 -4 4 -12 9 -17 12 -13 21 -155 10 -155 -5 0 -9 -4 -9
-10 0 -5 13 -10 29 -10 28 0 29 1 24 40 -5 36 -3 40 16 42 11 0 27 1 34 2 7 1
14 -16 17 -43 4 -35 9 -45 25 -46 19 -1 20 5 20 102 0 102 0 103 -24 103 -21
0 -23 -3 -17 -33 8 -45 -10 -68 -48 -60 -27 6 -28 8 -22 49 l6 44 -35 0 c-19
0 -35 -4 -35 -8z"/>
</g>
<g>
<path d="M848 308 c6 -8 12 -50 14 -93 3 -72 5 -80 23 -80 19 0 20 7 20 90 l0
90 -34 3 c-29 3 -33 1 -23 -10z"/>
</g>
<g>
<path d="M968 297 c-14 -12 -29 -32 -33 -44 -9 -32 12 -101 35 -113 20 -11
123 -14 132 -4 3 3 3 17 -1 32 -6 22 -14 28 -44 30 -21 2 -37 -1 -37 -7 0 -6
7 -11 15 -11 20 0 19 -19 0 -27 -21 -7 -52 22 -58 55 -11 58 31 97 79 71 30
-15 39 -7 24 20 -15 29 -76 28 -112 -2z"/>
</g>
<g>
<path d="M1158 226 c3 -90 4 -94 28 -99 23 -4 24 -2 24 44 0 48 1 49 30 49 29
0 30 -2 30 -45 0 -42 2 -45 26 -45 20 0 25 4 20 16 -3 9 -6 51 -6 95 0 72 -2
79 -20 79 -17 0 -20 -7 -20 -40 0 -38 -2 -40 -30 -40 -28 0 -30 2 -30 40 0 37
-2 40 -27 40 l-28 0 3 -94z"/>
</g>
<g>
<path d="M1435 220 l0 -100 27 0 c24 0 27 4 30 43 3 38 5 42 33 45 60 7 83 54
45 92 -15 15 -33 20 -77 20 l-58 0 0 -100z m120 40 c0 -21 -5 -25 -30 -25 -25
0 -30 4 -33 28 -3 27 -1 28 30 25 28 -2 33 -7 33 -28z"/>
</g>
<g>
<path d="M1629 318 c0 -2 -1 -40 -3 -85 -1 -49 -8 -88 -15 -97 -12 -14 -9 -16
26 -16 l40 0 -1 43 c-1 52 14 54 46 8 13 -19 31 -39 40 -45 29 -18 32 2 4 34
-29 35 -34 65 -11 74 20 7 19 50 -1 70 -10 11 -34 16 -70 16 -30 0 -54 -1 -55
-2z m101 -33 c18 -21 5 -45 -25 -45 -21 0 -25 5 -25 30 0 23 5 30 19 30 10 0
24 -7 31 -15z"/>
</g>
<g>
<path d="M1929 314 c0 -5 -1 -51 -2 -101 l-2 -93 71 0 c65 0 72 2 77 22 8 30
5 31 -32 12 -39 -20 -61 -12 -61 21 0 22 3 25 25 19 23 -6 25 -3 25 25 0 21
-5 31 -15 31 -8 0 -15 -7 -15 -15 0 -8 -4 -15 -10 -15 -5 0 -10 16 -10 35 0
30 3 35 24 35 13 0 26 -7 30 -15 9 -24 26 -17 26 10 0 21 -5 25 -27 25 -16 0
-45 3 -65 6 -21 4 -38 3 -39 -2z"/>
</g>
<g>
<path d="M2160 307 c-30 -10 -36 -17 -38 -46 -4 -38 9 -51 51 -51 39 0 67 -17
67 -40 0 -23 -34 -27 -75 -8 -22 10 -28 9 -36 -3 -19 -30 -9 -37 53 -38 68 -1
98 16 98 54 0 33 -31 55 -78 55 -38 0 -42 3 -42 24 0 13 7 30 16 37 13 11 17
10 25 -4 14 -25 59 -23 59 3 0 13 -7 20 -19 20 -11 0 -25 2 -33 4 -7 3 -29 0
-48 -7z"/>
</g>
<g>
<path d="M2323 313 c-7 -2 -13 -11 -13 -18 0 -23 20 -28 34 -9 7 9 20 15 28
11 22 -8 13 -146 -10 -165 -13 -10 -7 -12 36 -12 29 0 52 5 52 10 0 6 -5 10
-10 10 -7 0 -10 27 -8 72 3 62 6 73 22 76 10 2 22 -2 27 -9 7 -11 10 -12 21
-1 24 24 -18 42 -96 41 -39 0 -77 -3 -83 -6z"/>
</g>
<g>
<path d="M2564 313 l-30 -4 4 -84 c4 -74 2 -85 -12 -85 -9 0 -16 -5 -16 -10 0
-7 27 -10 73 -8 66 3 72 5 75 26 2 12 -1 22 -7 22 -6 0 -11 -7 -11 -15 0 -10
-11 -15 -35 -15 -32 0 -35 2 -35 30 0 20 5 30 15 30 8 0 15 -4 15 -10 0 -5 7
-10 15 -10 9 0 15 9 15 24 0 31 -16 42 -36 25 -14 -11 -15 -8 -12 22 2 26 8
35 24 37 15 2 23 -4 27 -18 3 -12 10 -19 16 -15 13 7 15 42 4 48 -16 8 -59 13
-89 10z"/>
</g>
<g>
<path d="M2775 312 c-47 -4 -75 -23 -75 -48 0 -30 27 -56 50 -49 26 8 53 -31
39 -57 -12 -22 -59 -25 -59 -4 0 8 -5 18 -11 22 -13 8 -29 -13 -29 -38 0 -15
9 -18 54 -18 45 0 58 4 70 22 9 12 16 30 16 39 0 21 -46 59 -70 59 -24 0 -32
25 -14 41 11 9 18 8 34 -6 23 -21 50 -13 50 14 0 22 -13 28 -55 23z"/>
</g>
<g>
<path d="M1800 300 c0 -5 7 -10 15 -10 12 0 15 -16 15 -85 0 -84 0 -85 25 -85
25 0 25 0 25 95 l0 95 -40 0 c-22 0 -40 -4 -40 -10z"/>
</g>
<g>
<path d="M398 3 c222 -2 582 -2 800 0 218 1 37 2 -403 2 -440 0 -619 -1 -397
-2z"/>
</g>
</g>
</svg>
