<?xml version="1.0" standalone="no"?>
<!DOCTYPE svg PUBLIC "-//W3C//DTD SVG 20010904//EN"
 "http://www.w3.org/TR/2001/REC-SVG-20010904/DTD/svg10.dtd">
<svg version="1.0" xmlns="http://www.w3.org/2000/svg"
 width="300.000000pt" height="519.000000pt" viewBox="0 0 300.000000 519.000000"
 preserveAspectRatio="xMidYMid meet">
<metadata>
Created by potrace 1.15, written by Peter Selinger 2001-2017
</metadata>
<g transform="translate(0.000000,519.000000) scale(0.100000,-0.100000)"
fill="#000000" stroke="none">
<g>
<path d="M304 5183 c-222 -3 -264 -6 -275 -19 -10 -12 -13 -272 -15 -1297 -2
-705 -6 -1864 -10 -2575 l-6 -1292 1488 0 c1024 1 1492 5 1501 12 10 8 13 523
13 2594 l0 2584 -36 0 c-33 0 -35 -2 -23 -17 24 -28 30 -1176 13 -2533 -5
-366 -6 -705 -4 -755 6 -112 6 -358 1 -575 -2 -91 -1 -279 2 -417 7 -293 15
-276 -103 -212 -95 52 -137 50 -185 -7 -31 -36 -31 -36 -61 -21 -20 10 -44 14
-71 10 -27 -3 -48 0 -64 10 -13 8 -50 23 -82 33 l-57 18 -34 -33 c-30 -29 -38
-32 -82 -29 -47 3 -49 4 -47 33 0 17 -5 134 -13 260 -8 128 -17 477 -20 785
-2 305 -9 697 -14 870 -5 174 -6 342 -1 375 4 33 5 103 2 155 -4 52 -4 125 0
162 3 37 7 233 8 435 1 241 6 381 13 406 9 29 8 53 -2 105 -19 97 -35 128 -96
188 -69 68 -102 85 -174 88 -55 2 -59 4 -109 55 -28 29 -51 57 -51 63 0 6 -8
20 -17 31 -15 16 -17 35 -15 103 l3 84 -85 0 c-49 0 -97 -6 -117 -14 -18 -7
-49 -11 -68 -9 -29 4 -54 -4 -126 -42 -50 -26 -95 -52 -100 -59 -14 -18 -75
-26 -75 -11 0 21 -40 65 -59 65 -42 0 -53 -22 -52 -105 0 -86 14 -213 31 -284
6 -24 9 -45 7 -47 -2 -3 -21 12 -41 31 -21 19 -43 35 -50 35 -7 0 -26 19 -44
43 -17 23 -52 67 -77 97 -25 30 -64 79 -87 109 -45 56 -91 84 -125 75 -11 -3
-40 3 -64 14 -102 46 -232 37 -294 -22 -28 -26 -32 -36 -28 -63 3 -18 9 -33
14 -33 5 0 9 -7 9 -15 0 -20 56 -75 75 -75 21 0 18 -24 -5 -45 -11 -10 -20
-26 -20 -35 0 -12 -11 -20 -33 -24 -34 -6 -68 -34 -102 -82 -11 -15 -29 -37
-39 -48 -24 -24 -25 -70 -3 -94 10 -10 14 -21 11 -25 -4 -3 1 -14 11 -24 17
-16 17 -16 11 5 -4 12 -3 22 2 22 13 0 21 -330 9 -347 -4 -6 -3 -13 5 -16 10
-3 11 -8 0 -26 -31 -54 -1 -83 100 -96 73 -9 216 11 257 36 30 18 41 51 21 64
-16 10 -12 29 10 43 17 10 25 10 43 -3 23 -16 37 -19 37 -7 0 13 -59 41 -65
31 -4 -5 -13 -9 -21 -9 -17 0 -19 26 -1 33 9 4 9 7 -1 15 -9 6 -12 25 -10 53
l3 44 41 -3 c24 -2 45 2 49 8 5 8 -7 10 -39 9 -25 -2 -49 0 -52 4 -4 4 -9 30
-12 58 -3 37 -1 54 9 60 10 6 10 9 2 9 -7 0 -13 9 -13 20 0 11 6 20 13 20 6 1
23 9 35 20 19 16 22 25 17 51 -4 18 -19 44 -34 59 -14 15 -39 43 -56 63 -16
20 -47 43 -67 52 -24 9 -38 22 -38 32 0 10 -3 29 -5 43 -4 20 -4 21 3 6 6 -14
11 -16 16 -7 4 6 3 17 -2 24 -8 9 -1 13 25 15 19 1 44 7 55 13 25 13 35 4 18
-17 -12 -13 -11 -21 4 -49 10 -18 26 -35 35 -38 12 -3 21 -23 30 -63 7 -32 19
-69 27 -81 30 -47 46 -112 49 -193 2 -47 6 -168 9 -269 5 -175 14 -220 37
-205 18 11 39 -25 39 -65 0 -31 4 -41 16 -41 13 0 15 -6 10 -27 -3 -16 -9 -78
-12 -138 -8 -128 -12 -121 93 -154 82 -26 110 -22 116 17 2 15 5 5 5 -23 1
-27 -2 -79 -7 -115 -5 -36 -11 -204 -13 -375 -3 -289 -2 -310 15 -313 11 -2
21 -19 28 -49 7 -24 18 -47 25 -50 10 -4 14 -25 14 -72 0 -36 5 -106 10 -156
5 -49 12 -162 15 -250 7 -178 20 -223 67 -239 21 -8 32 -6 46 7 24 22 26 22
48 -11 15 -22 20 -55 25 -187 4 -88 13 -275 19 -415 7 -140 13 -279 13 -308
-1 -58 -14 -82 -35 -65 -7 5 -34 15 -59 22 -31 9 -62 28 -98 62 -40 39 -58 50
-79 47 -20 -2 -28 -9 -30 -28 -2 -14 -22 -44 -45 -68 -32 -32 -49 -42 -73 -42
-18 0 -39 -6 -46 -12 -69 -64 -192 -100 -226 -66 -10 10 -75 13 -177 7 -16 -1
-65 13 -108 31 -80 34 -81 34 -137 1 -14 -8 -63 -26 -104 -38 -19 -6 -19 3
-11 368 11 575 14 1475 6 2204 -7 658 -7 660 13 677 21 17 21 17 -1 11 -23 -5
-23 -4 -23 97 0 95 1 102 19 97 10 -2 25 -1 32 4 10 6 4 9 -18 9 -26 0 -33 4
-33 20 0 13 7 20 20 20 11 0 20 5 20 10 0 6 -8 10 -19 10 -17 0 -18 13 -16
283 1 155 3 388 4 517 1 129 5 240 9 247 10 16 513 30 1627 44 484 5 912 14
950 18 64 8 -1721 10 -2331 4z m1336 -379 c0 -8 -10 -14 -24 -14 -13 0 -26 -4
-28 -10 -1 -5 -20 -10 -41 -12 -51 -3 -55 -14 -12 -29 19 -7 35 -17 35 -22 0
-10 -43 -5 -129 13 -39 8 -57 8 -65 0 -14 -14 9 -30 43 -30 37 0 95 -20 122
-42 28 -23 32 -23 -100 17 -87 26 -127 31 -149 16 -8 -5 15 -14 65 -25 78 -17
112 -30 102 -40 -3 -3 -22 -1 -43 5 -28 8 -46 7 -67 -1 -45 -19 -34 -28 31
-25 63 3 96 -11 81 -33 -6 -10 -18 -11 -56 -2 -45 10 -85 6 -85 -8 0 -4 -28
-7 -62 -7 -35 0 -80 -4 -100 -8 l-38 -8 0 44 c0 25 3 59 6 76 6 30 9 31 56 31
41 0 48 3 40 13 -15 17 14 42 93 80 40 19 69 27 90 24 16 -2 47 1 69 7 53 15
166 9 166 -10z m-576 -49 c8 -8 17 -41 21 -72 3 -32 8 -71 11 -88 8 -56 25
-317 21 -321 -2 -3 -12 -1 -21 2 -14 5 -15 9 -4 16 10 8 11 11 0 15 -10 4 -10
8 -1 19 9 11 8 15 -6 20 -13 5 -14 9 -3 15 10 6 9 11 -7 23 -20 15 -20 15 0
16 19 1 19 1 3 14 -22 16 -23 26 -3 26 8 0 15 7 15 15 0 9 -7 15 -17 13 -20
-4 -47 74 -38 110 3 12 1 22 -6 22 -6 0 -8 11 -5 28 15 68 16 100 1 106 -17 6
-9 36 10 36 8 0 20 -7 29 -15z m561 5 c3 -5 -1 -10 -9 -10 -9 0 -16 5 -16 10
0 6 4 10 9 10 6 0 13 -4 16 -10z m-1066 -39 c33 -17 62 -35 65 -40 9 -15 -20
-86 -37 -89 -9 -2 -21 6 -27 17 -13 25 -33 27 -50 6 -25 -31 -110 -6 -110 32
0 13 8 14 45 8 48 -7 115 9 115 27 0 7 -18 9 -51 5 -28 -4 -74 -2 -102 4 -29
6 -62 13 -74 15 -33 6 -28 29 10 42 54 19 148 7 216 -27z m-272 -31 c0 -22 -5
-30 -18 -30 -29 0 -34 21 -8 41 13 10 24 19 25 19 0 0 1 -13 1 -30z m350 24
c-3 -3 -12 -4 -19 -1 -8 3 -5 6 6 6 11 1 17 -2 13 -5z m1011 -97 c2 -10 1 -25
-2 -34 -6 -14 -8 -14 -21 3 -15 18 -16 18 -35 -5 -11 -13 -23 -21 -27 -17 -7
7 16 57 32 69 17 12 50 3 53 -16z m-128 -48 c0 -29 -13 -36 -39 -20 -9 6 -10
11 -2 15 6 4 11 19 11 33 0 21 2 24 15 13 8 -7 15 -25 15 -41z m-1175 21 c3
-5 1 -10 -4 -10 -6 0 -11 5 -11 10 0 6 2 10 4 10 3 0 8 -4 11 -10z m341 -15
c8 -21 -6 -41 -17 -24 -12 19 -11 39 1 39 6 0 13 -7 16 -15z m1042 -15 c13
-11 21 -24 18 -29 -9 -13 -66 17 -66 35 0 19 21 17 48 -6z m-315 -17 c29 -9
63 -24 77 -33 56 -39 112 -62 123 -51 13 13 54 15 61 2 3 -5 -3 -11 -14 -14
-26 -7 -26 -27 0 -27 11 0 20 -5 20 -11 0 -6 9 -9 20 -6 18 5 49 -5 99 -32 25
-13 23 -27 -4 -39 -19 -9 -25 -19 -23 -34 2 -18 -3 -22 -29 -25 -19 -2 -33 0
-33 6 0 6 6 11 14 11 8 0 17 4 21 9 8 14 -16 61 -31 61 -19 0 -27 -19 -14 -35
7 -9 7 -15 1 -19 -6 -4 -17 7 -25 23 -9 16 -44 47 -78 70 -35 23 -72 48 -83
56 -10 8 -26 15 -35 16 -8 0 -33 11 -55 25 -22 13 -52 29 -67 36 -16 7 -28 16
-28 20 0 12 27 10 83 -9z m-1043 -19 c0 -8 -5 -12 -10 -9 -6 4 -8 11 -5 16 9
14 15 11 15 -7z m304 -52 c-21 -42 -31 -40 -30 6 1 42 15 58 34 39 10 -11 9
-19 -4 -45z m672 32 c40 -15 79 -33 85 -40 6 -8 18 -14 26 -14 18 0 90 -37 98
-51 13 -19 -5 -22 -25 -4 -11 10 -36 19 -55 20 -24 2 -41 10 -56 29 -11 14
-30 26 -42 26 -21 0 -21 0 3 -17 13 -9 32 -25 42 -35 10 -10 31 -18 47 -18 15
0 40 -9 54 -20 14 -11 30 -20 36 -20 14 0 14 -17 0 -26 -6 -3 -15 -1 -19 5 -4
7 -11 11 -16 9 -5 -1 -20 4 -34 11 -25 14 -25 14 -7 -7 26 -28 5 -36 -22 -8
-16 17 -29 22 -48 18 -25 -5 -26 -4 -20 32 6 35 4 38 -24 48 -16 5 -27 13 -24
18 6 10 -25 36 -55 45 -21 7 -23 5 -13 -6 9 -12 3 -13 -43 -11 -58 4 -75 21
-21 23 l32 1 -30 8 c-28 7 -27 8 13 9 25 0 76 -11 118 -25z m-191 6 c-3 -5
-10 -10 -16 -10 -5 0 -9 5 -9 10 0 6 7 10 16 10 8 0 12 -4 9 -10z m-535 -10
c0 -5 -12 -10 -26 -10 -14 0 -23 4 -19 10 3 6 15 10 26 10 10 0 19 -4 19 -10z
m1023 3 c-7 -2 -21 -2 -30 0 -10 3 -4 5 12 5 17 0 24 -2 18 -5z m-354 -47 c18
-14 46 -28 62 -31 24 -5 27 -10 19 -24 -6 -13 -5 -24 5 -37 21 -28 20 -29 -36
-29 -47 -1 -75 -17 -63 -36 2 -4 0 -10 -6 -14 -5 -3 -19 15 -31 39 -11 25 -39
63 -60 85 -54 54 -51 66 19 69 48 2 62 -1 91 -22z m451 14 c0 -5 -4 -10 -10
-10 -5 0 -10 5 -10 10 0 6 5 10 10 10 6 0 10 -4 10 -10z m-1097 -54 c14 -3 34
-3 44 1 16 6 16 5 4 -11 -11 -13 -11 -20 -3 -28 7 -7 12 -20 12 -30 0 -10 6
-18 14 -18 10 0 15 -20 18 -72 3 -40 3 -75 2 -77 -2 -2 -10 2 -18 8 -24 20
-55 93 -62 145 -5 35 -12 50 -26 54 -10 2 -18 9 -18 16 0 6 -3 22 -5 36 -5 23
-5 23 4 4 5 -12 21 -24 34 -28z m-273 24 c0 -5 -11 -10 -25 -10 -14 0 -25 5
-25 10 0 6 11 10 25 10 14 0 25 -4 25 -10z m1605 -40 c3 -5 -1 -10 -10 -10 -9
0 -13 5 -10 10 3 6 8 10 10 10 2 0 7 -4 10 -10z m-72 -17 c-7 -2 -21 -2 -30 0
-10 3 -4 5 12 5 17 0 24 -2 18 -5z m-1608 -33 c-16 -4 -43 -8 -60 -8 -25 -1
-27 1 -10 8 11 5 38 8 60 8 38 0 39 -1 10 -8z m118 3 c-13 -2 -33 -2 -45 0
-13 2 -3 4 22 4 25 0 35 -2 23 -4z m1487 -3 c12 -8 12 -10 -5 -10 -11 0 -34
-9 -52 -19 -17 -11 -34 -17 -37 -14 -5 6 61 52 74 53 3 0 12 -5 20 -10z m158
-19 c3 -16 -1 -22 -10 -19 -7 3 -15 15 -16 27 -3 16 1 22 10 19 7 -3 15 -15
16 -27z m-1548 9 c0 -5 -7 -7 -15 -4 -8 4 -15 8 -15 10 0 2 7 4 15 4 8 0 15
-4 15 -10z m1505 -50 c26 -33 52 -60 57 -60 4 0 8 -15 8 -34 0 -19 5 -38 11
-42 7 -4 8 -19 4 -38 -3 -17 -8 -197 -11 -401 -2 -203 -7 -467 -10 -585 -10
-313 -10 -315 -1 -674 l8 -328 -48 6 c-26 3 -74 8 -106 11 -84 9 -59 26 34 24
68 -2 81 0 94 17 18 23 18 31 3 40 -6 4 -14 2 -16 -4 -2 -8 -33 -12 -90 -12
-123 0 -192 -10 -192 -27 0 -7 10 -18 23 -23 16 -6 18 -9 5 -9 -11 -1 -15 -6
-12 -16 5 -11 21 -15 59 -15 83 0 101 -14 25 -20 -49 -4 -65 -9 -65 -20 0 -12
18 -16 93 -18 93 -3 118 7 70 29 -17 7 -7 8 40 5 49 -3 62 -1 62 10 0 8 5 14
10 14 6 0 10 -27 10 -60 0 -34 -4 -60 -10 -60 -6 0 -9 13 -8 28 2 33 -8 52
-28 52 -8 0 -14 -10 -14 -26 0 -21 -4 -25 -17 -19 -32 12 -157 17 -173 6 -30
-20 6 -31 108 -34 56 -1 102 -5 102 -9 0 -4 7 -13 15 -22 13 -13 13 -15 -6
-21 -14 -5 -27 0 -41 14 -17 19 -29 21 -86 19 -54 -2 -67 -6 -70 -20 -3 -16 5
-18 67 -18 59 0 71 -3 71 -16 0 -13 -6 -15 -27 -10 -31 8 -63 9 -69 3 -3 -2
-2 -12 2 -21 8 -20 52 -21 77 -2 19 15 57 10 57 -6 0 -5 -9 -12 -19 -15 -19
-5 -31 -30 -31 -65 0 -13 8 -18 25 -18 14 0 25 -4 25 -10 0 -5 -10 -9 -22 -7
-17 1 -23 -3 -23 -18 0 -14 8 -21 28 -23 15 -2 27 -8 27 -13 0 -12 -57 -12
-65 1 -8 13 -52 13 -60 0 -4 -6 -2 -17 4 -24 9 -10 8 -15 -4 -19 -21 -9 -7
-37 19 -37 11 0 30 7 40 15 24 18 69 20 64 3 -3 -7 -15 -15 -29 -16 -13 -2
-29 -8 -36 -13 -6 -6 -24 -11 -40 -12 -21 -2 -29 -8 -31 -25 -4 -27 19 -29 71
-7 46 19 67 19 67 0 0 -10 -10 -15 -31 -15 -22 0 -30 -4 -26 -14 4 -10 -4 -12
-39 -8 -43 4 -44 4 -44 -23 0 -26 2 -27 35 -22 19 3 35 2 35 -4 0 -5 -13 -9
-30 -9 -26 0 -30 -4 -30 -26 0 -24 2 -25 48 -20 33 4 41 3 27 -3 -11 -5 -32
-10 -47 -10 -35 -1 -46 -20 -22 -38 15 -11 16 -15 5 -22 -23 -15 -5 -206 21
-222 11 -7 11 -12 0 -29 -7 -12 -10 -30 -7 -40 4 -12 -1 -23 -12 -30 -13 -8
-15 -13 -5 -17 10 -4 10 -8 1 -19 -9 -11 -7 -15 6 -21 16 -6 16 -7 -4 -15 -12
-4 -19 -12 -16 -18 4 -6 11 -8 16 -5 5 4 14 3 20 -1 13 -8 -8 -24 -32 -24 -14
0 -17 25 -23 203 -8 244 -13 297 -31 297 -7 0 -15 -7 -19 -15 -3 -8 -12 -15
-21 -15 -8 0 -15 -7 -15 -15 0 -8 9 -15 20 -15 11 0 20 -4 20 -10 0 -5 -9 -10
-20 -10 -21 0 -45 -34 -35 -50 3 -6 17 -10 31 -10 13 0 24 -4 24 -10 0 -5 -11
-10 -24 -10 -14 0 -26 -7 -30 -17 -3 -10 -9 -24 -12 -30 -3 -8 2 -13 15 -13
31 0 35 -18 4 -22 -23 -3 -28 -8 -28 -35 0 -18 -4 -35 -8 -39 -15 -15 -6 -23
31 -26 20 -2 36 -7 34 -13 -1 -5 -17 -8 -34 -6 -27 2 -30 0 -25 -18 3 -12 1
-24 -4 -27 -15 -9 0 -24 24 -24 12 0 29 -5 37 -10 10 -6 -3 -7 -39 -3 -44 5
-53 3 -49 -8 3 -8 18 -17 34 -20 l29 -7 -32 -1 c-18 0 -33 -5 -33 -9 0 -9 73
-34 87 -30 4 2 8 -1 8 -7 0 -5 -4 -8 -10 -6 -5 2 -27 6 -49 9 -30 4 -38 2 -34
-9 2 -8 18 -16 34 -18 28 -4 28 -4 5 -10 -36 -9 -38 -31 -4 -32 26 -1 26 -1 5
-7 -13 -4 -23 -11 -23 -17 0 -5 10 -13 23 -17 15 -4 17 -6 6 -7 -27 -2 -31
-20 -6 -30 l23 -10 -22 0 c-16 -1 -23 -7 -23 -21 0 -15 -7 -20 -25 -20 -16 0
-25 6 -25 16 0 10 -6 14 -15 10 -9 -3 -15 0 -15 9 0 8 6 15 14 15 39 0 34 133
-5 145 -23 8 -26 53 -4 61 9 4 15 19 15 35 0 17 -6 32 -15 35 -8 4 -15 17 -15
30 0 14 -7 27 -15 30 -21 9 -19 24 4 24 22 0 29 21 23 76 -3 33 -9 43 -30 51
l-27 10 28 11 c39 16 38 60 -3 90 -16 12 -38 22 -49 22 -11 0 -23 5 -26 10 -4
6 5 10 19 10 33 0 34 18 1 26 -30 7 -33 24 -5 24 26 0 26 17 0 25 -27 9 -25
25 3 25 18 0 22 5 22 27 -1 21 -7 29 -26 32 -22 3 -22 4 -4 11 16 6 20 17 21
69 2 57 0 62 -17 58 -11 -3 -19 -2 -20 1 0 4 -2 22 -5 40 -3 27 -1 32 16 32
12 0 20 7 20 16 0 11 -6 15 -19 11 -17 -4 -21 2 -27 49 -3 30 -4 64 -1 75 3
12 1 33 -4 48 -10 24 -11 25 -23 9 -7 -10 -21 -18 -30 -18 -20 0 -21 -29 -1
-36 10 -4 14 -21 14 -57 0 -29 4 -115 8 -192 8 -127 7 -142 -9 -158 -22 -22
-22 -31 -3 -47 8 -7 15 -18 15 -24 0 -6 -5 -3 -11 7 -12 21 -29 22 -29 2 0 -8
-4 -15 -10 -15 -6 0 -10 49 -10 128 0 70 -5 187 -10 261 -7 90 -7 137 0 146 5
6 7 15 3 19 -4 3 -10 58 -14 122 -5 64 -10 119 -13 122 -3 3 -12 -1 -20 -8
-13 -10 -15 -33 -10 -134 3 -66 9 -258 12 -424 7 -284 9 -305 27 -318 18 -13
17 -14 -8 -14 -20 0 -27 -5 -27 -19 0 -22 45 -41 96 -41 19 0 34 -3 34 -8 0
-4 -18 -6 -40 -4 -32 3 -41 0 -46 -14 -4 -11 -14 -27 -23 -37 -14 -17 -14 -20
4 -34 19 -14 19 -14 -10 -11 l-30 3 -7 90 c-4 50 -11 192 -16 317 -6 124 -12
230 -15 235 -3 5 -8 72 -11 149 -11 283 -27 522 -42 624 -8 58 -14 146 -14
195 1 50 -4 106 -9 125 -14 44 -14 167 -1 175 6 3 10 26 10 51 0 51 17 59 24
12 2 -18 12 -134 20 -258 19 -270 44 -490 58 -507 12 -14 58 -18 58 -5 0 5 -7
22 -15 38 -21 43 -39 210 -38 344 1 63 2 168 1 233 0 115 1 119 27 143 14 13
30 24 34 24 4 0 11 -51 15 -112 12 -218 39 -477 54 -523 16 -51 35 -89 52
-106 10 -10 22 -51 30 -95 15 -94 31 -124 65 -124 18 0 25 -5 25 -18 0 -29 33
-118 75 -205 33 -66 47 -84 102 -124 60 -44 63 -48 57 -80 -6 -32 -5 -33 25
-33 24 0 31 4 31 20 0 11 -4 20 -10 20 -14 0 -13 33 1 47 17 17 1 33 -32 33
-21 0 -39 10 -60 32 -16 18 -29 36 -29 40 0 4 -15 39 -34 78 -19 38 -42 94
-51 123 -33 101 -48 128 -71 122 -24 -5 -34 19 -55 135 -6 36 -18 87 -25 114
-18 64 -19 61 18 63 42 3 51 14 38 48 -6 16 -8 35 -5 43 7 19 -12 32 -47 32
-31 0 -34 -12 -18 -55 11 -28 4 -53 -11 -38 -4 4 -20 100 -34 213 -14 113 -27
216 -29 230 -1 14 -1 19 1 12 3 -8 14 -10 31 -6 35 9 34 6 16 43 -15 31 -17
31 -39 17 -21 -14 -24 -14 -29 0 -11 29 -7 46 10 40 19 -7 64 3 64 14 0 5 -9
11 -19 15 -16 5 -20 17 -23 71 -1 36 1 68 5 71 28 17 -24 36 -100 36 -18 0
-33 4 -33 8 0 12 52 17 86 7 42 -11 53 -5 46 27 -4 23 -22 36 -22 17 0 -12
-112 -2 -128 11 -19 15 -23 5 -16 -46 7 -52 20 -59 97 -57 50 2 51 1 41 -24
-5 -13 -10 -14 -20 -6 -20 18 -68 8 -72 -14 -3 -14 0 -17 12 -13 21 8 21 -16
1 -33 -13 -10 -19 -9 -38 11 -13 13 -32 29 -43 36 -17 11 -17 12 -1 12 31 1
19 31 -13 31 -16 0 -30 5 -30 10 0 6 9 10 20 10 30 0 24 16 -10 32 -37 16 -39
28 -4 28 20 0 25 4 20 16 -3 9 -6 23 -6 32 0 14 -2 14 -9 3 -17 -26 -41 -4
-41 36 0 21 -7 49 -17 62 -12 19 -18 60 -24 180 -4 86 -11 166 -14 179 -4 12
-3 22 3 22 22 0 34 -34 43 -127 11 -108 28 -247 34 -278 6 -25 48 -75 65 -75
12 0 10 28 -6 79 -7 23 -6 24 37 17 47 -7 134 5 150 21 5 5 7 23 3 39 -6 30
-8 31 -92 45 -64 10 -87 18 -87 29 0 9 7 14 20 12 11 -2 46 -6 78 -9 47 -4 57
-3 57 10 0 9 -11 17 -27 20 -26 4 -26 4 5 6 28 1 32 -2 32 -23 0 -34 16 -41
34 -15 14 20 15 11 14 -112 0 -81 4 -144 11 -159 9 -20 10 -10 6 55 -5 84 -1
84 21 0 9 -33 12 -38 9 -15 -2 19 -5 114 -6 210 -2 188 -10 243 -37 238 -13
-3 -17 -15 -17 -50 0 -65 -15 -73 -17 -10 -1 29 -2 60 -2 70 -1 24 40 17 73
-14 14 -13 33 -24 42 -24 16 0 39 39 39 67 0 10 6 13 16 9 35 -13 59 68 34
115 -8 14 -6 26 7 46 10 16 22 31 26 34 5 4 2 11 -8 16 -17 10 -16 12 3 31 12
12 24 33 28 47 7 27 60 65 91 65 11 0 28 9 38 20 10 11 21 20 25 20 4 0 29
-27 55 -60z m-660 23 c54 -3 76 -9 86 -24 8 -12 12 -11 24 5 12 16 15 17 15 4
0 -9 10 -18 21 -21 22 -6 22 -6 -5 -37 -32 -38 -32 -53 -5 -92 12 -16 18 -32
14 -36 -8 -9 -45 35 -45 54 0 8 -4 14 -10 14 -15 0 -12 -36 5 -50 8 -7 15 -17
15 -23 0 -5 -9 -2 -20 8 -14 12 -20 31 -20 59 -1 34 -3 38 -13 25 -9 -12 -16
-14 -29 -5 -25 16 -46 -7 -28 -29 12 -14 11 -18 -1 -26 -16 -10 -86 -13 -76
-2 4 3 -1 12 -11 19 -15 12 -15 13 -1 14 20 0 33 44 20 68 -6 11 -6 24 1 36 5
9 7 20 4 23 -3 4 -1 12 6 20 6 8 14 10 17 6 3 -5 20 -9 36 -10z m-163 -23 c28
-17 30 -20 12 -20 -12 0 -32 9 -45 20 -31 25 -9 26 33 0z m345 -2 c-3 -8 -6
-5 -6 6 -1 11 2 17 5 13 3 -3 4 -12 1 -19z m24 -25 c-9 -16 -10 -15 -11 8 0
14 3 29 8 33 12 12 14 -22 3 -41z m64 27 c3 -5 1 -10 -4 -10 -6 0 -11 5 -11
10 0 6 2 10 4 10 3 0 8 -4 11 -10z m-1275 -45 c0 -32 -12 -32 -27 0 -10 22 -9
25 8 25 14 0 19 -7 19 -25z m77 3 c-3 -8 -6 -5 -6 6 -1 11 2 17 5 13 3 -3 4
-12 1 -19z m1173 -18 c-1 -12 -4 -11 -15 4 -8 10 -12 23 -8 29 7 11 23 -12 23
-33z m-1143 -5 c-4 -8 -11 -15 -17 -15 -6 0 -6 7 2 20 14 22 24 19 15 -5z
m1193 10 c0 -8 -4 -15 -10 -15 -5 0 -10 7 -10 15 0 8 5 15 10 15 6 0 10 -7 10
-15z m-459 -21 c10 -9 32 -41 49 -70 32 -56 68 -96 81 -88 15 9 21 -18 14 -62
l-6 -44 -42 6 c-69 11 -87 21 -93 54 -4 16 -13 30 -20 30 -8 0 -14 5 -14 11 0
7 -11 8 -30 4 -35 -8 -60 3 -39 16 8 5 29 9 47 9 22 0 32 4 30 12 -3 8 -21 11
-51 9 -38 -2 -47 1 -47 14 0 13 9 16 47 14 30 -2 48 1 51 9 3 9 -11 12 -52 11
-31 -1 -59 1 -63 5 -14 13 18 29 56 28 25 -1 43 4 52 15 13 15 8 15 -53 9 -57
-5 -67 -4 -62 8 11 30 112 30 145 0z m323 3 c-5 -24 1 -29 69 -51 10 -3 15
-11 11 -17 -3 -6 -9 -7 -13 -3 -3 5 -10 10 -16 11 -5 1 -19 5 -30 8 -15 5 -16
4 -6 -3 9 -6 11 -19 7 -36 -7 -30 8 -35 23 -8 6 9 11 12 11 6 0 -7 -11 -32
-25 -55 l-25 -44 4 58 c3 31 1 57 -5 57 -5 0 -9 7 -9 15 0 8 -4 15 -10 15 -13
0 -13 12 0 44 12 32 22 34 14 3z m-733 -30 c-8 -8 -11 -3 -11 19 1 25 2 27 11
11 8 -14 8 -22 0 -30z m949 33 c0 -5 -4 -10 -10 -10 -5 0 -10 5 -10 10 0 6 5
10 10 10 6 0 10 -4 10 -10z m-1430 -70 c7 0 9 8 5 21 -5 15 -4 19 4 15 16 -10
13 -52 -4 -66 -12 -10 -21 -10 -40 -2 -14 7 -25 16 -25 22 0 16 18 12 28 -6 7
-12 11 -13 17 -4 4 6 2 17 -4 23 -6 6 -11 18 -10 27 0 9 4 6 9 -7 5 -13 14
-23 20 -23z m140 36 c0 -3 -4 -8 -10 -11 -5 -3 -10 -1 -10 4 0 6 5 11 10 11 6
0 10 -2 10 -4z m1190 -22 c12 -31 12 -34 2 -34 -4 0 -13 14 -19 30 -6 17 -7
30 -2 30 5 0 14 -12 19 -26z m-1183 -17 c-11 -24 -27 -37 -27 -21 0 7 34 53
37 50 2 -1 -3 -14 -10 -29z m485 -6 c-3 -9 -10 -19 -16 -23 -7 -5 -4 -13 9
-22 20 -16 10 -21 -19 -10 -20 8 -21 40 -1 48 8 3 15 16 15 28 0 17 2 20 9 9
5 -8 7 -21 3 -30z m470 22 c10 -9 18 -22 18 -29 0 -8 -11 -2 -25 12 -14 14
-25 27 -25 29 0 10 14 4 32 -12z m-377 -25 c4 -13 7 -27 6 -31 -1 -4 3 -16 9
-27 12 -22 -4 -38 -17 -17 -12 20 -39 27 -52 14 -8 -8 -11 -5 -11 11 0 15 6
22 20 22 11 0 20 6 20 14 0 21 -21 31 -31 15 -7 -11 -9 -10 -9 4 0 28 56 23
65 -5z m-665 -128 c0 -84 -4 -140 -10 -140 -5 0 -17 11 -26 25 -11 17 -25 25
-46 25 -29 0 -29 1 -26 53 1 28 -1 67 -6 85 -7 30 -6 32 17 32 34 0 57 10 57
24 0 14 20 36 32 36 4 0 8 -63 8 -140z m344 23 c3 -60 9 -130 12 -156 4 -30 2
-53 -5 -60 -6 -6 -12 -9 -14 -6 -10 10 -18 329 -9 329 6 0 12 -48 16 -107z
m671 67 c3 -5 2 -10 -4 -10 -5 0 -13 5 -16 10 -3 6 -2 10 4 10 5 0 13 -4 16
-10z m-908 -87 c3 -82 2 -83 -22 -83 -25 0 -25 1 -25 86 0 83 1 85 23 82 21
-3 22 -8 24 -85z m1193 57 c0 -28 -22 -51 -36 -37 -6 5 23 67 31 67 3 0 5 -14
5 -30z m-787 13 c-7 -2 -19 -2 -25 0 -7 3 -2 5 12 5 14 0 19 -2 13 -5z m491
-2 c3 -5 30 -12 61 -16 30 -3 58 -11 61 -17 7 -11 -32 -7 -82 7 -19 6 -21 2
-22 -65 -1 -40 -7 -80 -12 -89 -7 -11 -10 8 -9 65 2 86 -3 104 -27 104 -8 0
-12 5 -9 10 8 12 32 13 39 1z m-368 -48 c0 -10 9 -19 24 -23 l25 -6 -28 -8
c-25 -6 -27 -9 -16 -22 9 -11 23 -14 46 -11 44 8 42 -10 -2 -19 -20 -3 -35
-12 -35 -20 0 -9 12 -14 35 -14 19 0 35 -4 35 -10 0 -5 -18 -10 -40 -10 -28 0
-40 -4 -40 -14 0 -16 20 -25 58 -27 23 -1 22 -3 -7 -8 -47 -8 -51 -28 -7 -37
47 -8 46 -24 0 -24 -48 0 -40 -24 9 -28 47 -4 50 -29 5 -34 -18 -2 -33 -7 -33
-13 0 -5 15 -11 33 -13 46 -5 40 -22 -9 -22 -33 0 -40 -3 -37 -17 3 -18 7 -20
58 -22 42 -2 37 -19 -7 -23 -51 -4 -53 -24 -3 -32 50 -8 55 -36 10 -53 -39
-15 -38 -31 3 -35 42 -4 43 -31 1 -38 -26 -4 -30 -8 -24 -25 4 -11 2 -28 -4
-38 -14 -23 8 -39 47 -34 17 2 26 -1 24 -7 -2 -6 -18 -12 -35 -14 -27 -3 -32
-7 -32 -31 0 -33 16 -51 46 -51 13 0 25 -4 29 -9 7 -13 -28 -23 -50 -15 -13 5
-16 2 -13 -12 2 -13 13 -20 36 -22 46 -5 40 -22 -9 -22 -46 0 -44 -14 5 -36
l31 -13 -32 -1 c-18 0 -33 -4 -33 -9 0 -14 41 -41 62 -41 10 0 18 -4 18 -10 0
-5 -18 -10 -40 -10 -47 0 -54 -21 -12 -37 l27 -11 -27 -1 c-34 -1 -38 -30 -5
-39 l22 -6 -24 -6 c-32 -7 -39 -30 -12 -37 24 -6 28 -23 6 -23 -28 0 -16 -30
13 -31 l27 -1 -29 -7 c-39 -8 -44 -29 -9 -37 86 -19 90 -22 36 -23 -41 -1 -53
-5 -53 -16 0 -9 7 -18 15 -21 14 -6 13 -8 -2 -21 -13 -10 -15 -16 -5 -19 6 -3
12 -14 12 -25 0 -23 43 -43 73 -33 13 4 17 2 13 -5 -4 -6 -23 -11 -42 -11 -19
0 -34 -4 -34 -10 0 -13 34 -30 59 -30 12 0 21 -4 21 -10 0 -5 -11 -10 -25 -10
-31 0 -33 -23 -2 -38 l22 -11 -23 0 c-32 -1 -25 -33 8 -41 24 -6 24 -7 -8 -14
-38 -9 -38 -30 1 -34 30 -4 27 -22 -4 -22 -31 0 -22 -29 14 -39 l32 -9 -33 -1
c-46 -1 -41 -34 6 -41 38 -6 47 -24 14 -28 -30 -4 -25 -36 6 -40 12 -2 22 -8
22 -13 0 -10 -21 -13 -57 -10 -27 2 -30 -16 -5 -35 16 -13 16 -15 -1 -28 -14
-11 -16 -19 -9 -32 5 -9 7 -25 5 -35 -4 -14 3 -19 31 -24 44 -9 48 -25 6 -25
-18 0 -33 -6 -37 -15 -8 -22 3 -30 39 -30 17 0 33 -6 35 -12 3 -9 -7 -13 -30
-13 -21 0 -37 -6 -40 -14 -8 -20 2 -26 40 -26 46 0 42 -17 -7 -25 -56 -9 -46
-45 13 -45 42 0 32 -17 -14 -24 -41 -6 -41 -7 -24 -26 10 -11 29 -20 42 -20
12 0 23 -4 23 -10 0 -5 -18 -10 -41 -10 -36 0 -40 -2 -37 -22 2 -18 11 -24 38
-28 26 -4 31 -7 18 -12 -10 -4 -18 -17 -18 -29 0 -15 -4 -19 -16 -15 -9 3 -20
6 -25 6 -23 0 -39 62 -39 150 0 50 -7 179 -16 286 -8 108 -13 202 -10 210 3 8
1 25 -4 39 -5 13 -12 92 -15 176 -3 83 -8 155 -11 160 -3 5 -4 19 -2 32 4 36
-16 35 -30 -3 -10 -29 -11 5 -6 200 9 327 4 638 -10 680 -8 24 -18 36 -34 38
-29 4 -29 20 0 24 13 2 24 11 26 21 3 15 -1 17 -22 11 -16 -4 -26 -2 -26 4 0
15 22 27 42 24 19 -3 19 -5 2 221 -6 74 -4 87 9 87 8 0 14 -8 13 -17z m-121
-13 c-3 -5 -15 -10 -26 -10 -11 0 -17 5 -14 10 3 6 15 10 26 10 11 0 17 -4 14
-10z m203 -13 c2 -12 -1 -15 -12 -11 -19 7 -22 38 -3 32 6 -3 13 -12 15 -21z
m392 14 c0 -5 7 -17 16 -25 14 -15 12 -16 -20 -16 -25 0 -36 4 -36 15 0 8 5
15 11 15 5 0 7 5 4 10 -3 6 1 10 9 10 9 0 16 -4 16 -9z m-312 -18 c12 -11 22
-35 25 -60 4 -37 3 -43 -14 -43 -10 0 -19 -4 -19 -10 0 -5 9 -10 20 -10 11 0
20 -4 20 -10 0 -5 -9 -10 -20 -10 -11 0 -20 -4 -20 -10 0 -5 9 -10 20 -10 11
0 20 -4 20 -10 0 -5 -7 -7 -16 -3 -15 5 -16 1 -9 -33 4 -21 9 -77 10 -124 4
-128 4 -127 14 -112 12 20 19 -27 27 -187 5 -99 4 -132 -5 -127 -6 4 -11 1
-11 -8 0 -9 5 -16 10 -16 6 0 10 -7 10 -16 0 -9 -5 -12 -12 -8 -8 5 -8 1 1
-10 13 -15 13 -19 0 -26 -12 -8 -11 -11 5 -23 15 -11 17 -21 12 -53 -14 -74
-9 -173 9 -187 6 -6 6 -10 -2 -14 -19 -7 -16 -23 5 -24 16 -1 16 -2 0 -6 -10
-2 -18 -8 -18 -13 0 -5 8 -14 18 -19 9 -6 12 -11 6 -11 -11 0 -17 -118 -6
-135 3 -5 7 -16 7 -25 1 -8 5 -40 9 -70 10 -82 16 -145 21 -250 3 -52 6 -114
8 -137 1 -24 6 -43 11 -43 5 0 3 -6 -3 -13 -6 -8 -7 -17 -3 -21 11 -11 8 -190
-3 -198 -6 -5 -4 -12 5 -18 13 -9 13 -11 0 -20 -10 -7 -11 -13 -5 -17 6 -5 11
-26 12 -48 4 -155 19 -436 23 -442 1 -2 2 -24 2 -50 0 -27 3 -52 6 -57 3 -6 6
-27 7 -49 1 -21 6 -42 11 -46 17 -12 13 -27 -8 -27 -12 1 -23 -5 -25 -11 -3
-8 3 -13 14 -13 14 0 15 -2 5 -9 -11 -6 -10 -10 4 -15 13 -5 14 -10 6 -18 -8
-8 -8 -15 -1 -24 7 -9 5 -18 -9 -32 -20 -20 -20 -20 0 -25 24 -7 19 -33 -6
-29 -23 4 -20 -19 4 -25 25 -7 26 -40 3 -46 -15 -4 -15 -6 5 -12 25 -8 29 -23
7 -31 -19 -8 -19 -33 -1 -40 11 -4 13 -19 11 -57 -3 -34 1 -59 11 -74 13 -21
12 -25 -6 -43 -11 -11 -20 -24 -20 -30 0 -5 -8 -10 -19 -10 -25 0 -34 37 -15
66 12 17 13 28 5 41 -9 16 -11 14 -13 -12 -1 -16 -4 20 -7 80 -4 61 -3 115 2
122 4 6 4 14 -2 17 -5 4 -10 78 -10 174 -2 170 -16 463 -25 517 -3 17 -10 131
-15 255 -19 438 -40 797 -60 985 -22 208 -34 373 -56 740 -8 132 -17 284 -21
338 -6 93 -6 97 14 97 11 0 29 -8 40 -17z m-270 -30 c-10 -2 -26 -2 -35 0 -10
3 -2 5 17 5 19 0 27 -2 18 -5z m571 -19 c2 -2 -10 -4 -27 -4 -18 0 -32 5 -32
10 0 9 47 4 59 -6z m-564 -12 c-3 -3 -11 0 -18 7 -9 10 -8 11 6 5 10 -3 15 -9
12 -12z m453 -185 c-1 -103 -4 -146 -9 -117 -12 77 -22 268 -14 279 18 31 25
-14 23 -162z m-511 141 c-2 -20 2 -22 31 -20 18 2 32 -1 32 -7 0 -6 -11 -11
-25 -11 -16 0 -25 -6 -25 -15 0 -8 8 -15 18 -15 33 0 32 -12 0 -30 -37 -20
-48 -40 -21 -40 17 -1 17 -2 -2 -16 -19 -14 -19 -16 -2 -28 16 -13 16 -14 -3
-27 -31 -21 -31 -61 0 -70 20 -6 21 -7 5 -8 -11 -1 -29 -4 -40 -7 -18 -4 -22
1 -30 38 -8 33 -15 43 -30 43 -16 0 -21 8 -23 39 -6 68 8 76 30 18 11 -30 24
-50 28 -45 10 11 31 107 37 171 3 28 9 52 14 52 5 0 8 -10 6 -22z m-410 -10
c-3 -8 -6 -5 -6 6 -1 11 2 17 5 13 3 -3 4 -12 1 -19z m1053 13 c0 -17 -25 -28
-45 -20 -18 7 -18 8 5 9 l25 2 -25 8 c-24 8 -23 8 8 9 17 1 32 -3 32 -8z
m-1170 -21 c0 -5 -2 -10 -4 -10 -3 0 -8 5 -11 10 -3 6 -1 10 4 10 6 0 11 -4
11 -10z m1090 -26 c0 -24 2 -26 34 -20 19 4 37 3 39 -1 3 -4 -17 -9 -43 -11
-48 -3 -64 11 -53 46 8 22 23 13 23 -14z m-930 0 c0 -8 -4 -12 -10 -9 -5 3
-10 10 -10 16 0 5 5 9 10 9 6 0 10 -7 10 -16z m-143 -16 c-3 -8 -6 -5 -6 6 -1
11 2 17 5 13 3 -3 4 -12 1 -19z m1181 -1 c5 -24 -15 -21 -21 4 -3 13 -1 19 6
16 7 -2 13 -11 15 -20z m-1218 3 c0 -5 -5 -10 -11 -10 -5 0 -7 5 -4 10 3 6 8
10 11 10 2 0 4 -4 4 -10z m470 -20 c0 -5 -4 -10 -10 -10 -5 0 -10 5 -10 10 0
6 5 10 10 10 6 0 10 -4 10 -10z m720 -30 c0 -13 -70 -13 -90 0 -11 7 0 10 38
10 28 0 52 -4 52 -10z m21 -170 c11 0 19 -4 19 -9 0 -16 -32 -21 -96 -15 -47
5 -64 11 -64 22 0 12 11 14 61 8 34 -3 70 -6 80 -6z m-548 -27 c-7 -2 -19 -2
-25 0 -7 3 -2 5 12 5 14 0 19 -2 13 -5z m-110 -47 c17 -13 16 -14 -3 -19 -26
-7 -26 -37 0 -37 26 0 25 -11 -2 -35 l-23 -19 30 -12 c24 -11 26 -13 10 -15
-11 -1 -26 -2 -32 -2 -15 1 -18 -23 -4 -31 4 -3 6 -17 4 -30 -4 -21 -1 -25 23
-28 15 -2 29 -9 32 -16 4 -12 -19 -11 -65 4 -10 2 -13 34 -13 113 0 140 5 155
43 127z m17 -276 c0 -5 -9 -10 -20 -10 -11 0 -20 5 -20 10 0 6 9 10 20 10 11
0 20 -4 20 -10z m149 -722 c1 -46 -3 -78 -9 -78 -6 0 -10 40 -9 103 1 119 16
98 18 -25z m1071 -658 c0 -5 -4 -10 -10 -10 -5 0 -10 5 -10 10 0 6 5 10 10 10
6 0 10 -4 10 -10z m-972 -202 c9 -11 29 -18 49 -18 18 0 33 -4 33 -10 0 -5
-16 -10 -35 -10 -41 0 -75 29 -74 63 0 14 2 17 6 7 3 -8 12 -23 21 -32z m982
-74 c0 -8 -4 -12 -10 -9 -5 3 -10 10 -10 16 0 5 5 9 10 9 6 0 10 -7 10 -16z
m0 -64 c0 -5 -4 -10 -10 -10 -5 0 -10 5 -10 10 0 6 5 10 10 10 6 0 10 -4 10
-10z m-595 -141 c4 -6 5 -12 2 -15 -7 -7 -37 7 -37 17 0 13 27 11 35 -2z m545
1 c0 -5 -4 -10 -10 -10 -5 0 -10 5 -10 10 0 6 5 10 10 10 6 0 10 -4 10 -10z
m-70 -25 c0 -10 11 -15 35 -15 19 0 35 -4 35 -9 0 -15 -64 -7 -82 11 -9 9 -14
19 -10 22 10 11 22 6 22 -9z m-356 -24 c3 -4 3 -11 0 -14 -8 -7 -44 4 -44 14
0 12 37 12 44 0z m-97 -17 c-3 -3 -12 -4 -19 -1 -8 3 -5 6 6 6 11 1 17 -2 13
-5z m440 -10 c-3 -3 -12 -4 -19 -1 -8 3 -5 6 6 6 11 1 17 -2 13 -5z m-341 -20
c18 -15 18 -15 -6 -10 -14 3 -29 6 -33 6 -5 0 -5 5 -2 10 9 14 18 13 41 -6z
m404 -4 c-36 -11 -52 -11 -45 0 3 6 21 10 38 9 31 -1 31 -1 7 -9z m-417 -37
c-7 -2 -19 -2 -25 0 -7 3 -2 5 12 5 14 0 19 -2 13 -5z m425 -10 c-10 -2 -26
-2 -35 0 -10 3 -2 5 17 5 19 0 27 -2 18 -5z m72 3 c0 -3 -4 -8 -10 -11 -5 -3
-10 -1 -10 4 0 6 5 11 10 11 6 0 10 -2 10 -4z m-503 -22 c-3 -3 -12 -4 -19 -1
-8 3 -5 6 6 6 11 1 17 -2 13 -5z m373 -4 c0 -5 -4 -10 -9 -10 -6 0 -13 5 -16
10 -3 6 1 10 9 10 9 0 16 -4 16 -10z m65 -20 c3 -6 -4 -10 -17 -10 -18 0 -20
2 -8 10 19 12 18 12 25 0z m-442 -7 c-7 -2 -19 -2 -25 0 -7 3 -2 5 12 5 14 0
19 -2 13 -5z m7 -43 c0 -5 -6 -10 -14 -10 -8 0 -18 5 -21 10 -3 6 3 10 14 10
12 0 21 -4 21 -10z m428 -7 c-10 -2 -26 -2 -35 0 -10 3 -2 5 17 5 19 0 27 -2
18 -5z m-568 -27 c0 -3 -4 -8 -10 -11 -5 -3 -10 -1 -10 4 0 6 5 11 10 11 6 0
10 -2 10 -4z m140 -6 c0 -5 -7 -10 -15 -10 -8 0 -15 5 -15 10 0 6 7 10 15 10
8 0 15 -4 15 -10z m-207 -67 c2 -29 0 -53 -4 -53 -5 0 -9 28 -8 63 1 71 5 67
12 -10z m644 51 c-3 -3 -12 -4 -19 -1 -8 3 -5 6 6 6 11 1 17 -2 13 -5z m-432
-24 c3 -5 -3 -10 -14 -10 -11 0 -23 5 -26 10 -3 6 3 10 14 10 11 0 23 -4 26
-10z m6 -46 c11 -14 9 -15 -16 -12 -16 1 -30 9 -33 16 -6 18 33 15 49 -4z
m419 -24 c0 -5 -5 -10 -11 -10 -5 0 -7 5 -4 10 3 6 8 10 11 10 2 0 4 -4 4 -10z
m-439 -23 c-1 -12 -15 -9 -19 4 -3 6 1 10 8 8 6 -3 11 -8 11 -12z m274 3 c3
-5 1 -10 -4 -10 -6 0 -11 5 -11 10 0 6 2 10 4 10 3 0 8 -4 11 -10z m-410 -10
c3 -5 1 -10 -4 -10 -6 0 -11 5 -11 10 0 6 2 10 4 10 3 0 8 -4 11 -10z m655 0
c0 -5 -4 -10 -10 -10 -5 0 -10 5 -10 10 0 6 5 10 10 10 6 0 10 -4 10 -10z
m-501 -39 c9 -6 10 -10 2 -16 -15 -8 -41 1 -41 15 0 12 20 13 39 1z m434 2
c-7 -2 -19 -2 -25 0 -7 3 -2 5 12 5 14 0 19 -2 13 -5z m-113 -43 c0 -5 -9 -10
-20 -10 -11 0 -20 5 -20 10 0 6 9 10 20 10 11 0 20 -4 20 -10z m-330 -10 c0
-5 -7 -10 -15 -10 -8 0 -15 5 -15 10 0 6 7 10 15 10 8 0 15 -4 15 -10z m240
-25 c0 -9 -6 -12 -15 -9 -8 4 -12 10 -9 15 8 14 24 10 24 -6z m-250 -15 c12
-8 11 -10 -7 -10 -13 0 -23 5 -23 10 0 13 11 13 30 0z m340 -30 c0 -5 -4 -10
-9 -10 -6 0 -13 5 -16 10 -3 6 1 10 9 10 9 0 16 -4 16 -10z m25 -40 c4 -6 -10
-10 -35 -10 -25 0 -39 4 -35 10 3 6 19 10 35 10 16 0 32 -4 35 -10z m105 0 c0
-5 -12 -10 -27 -9 l-28 1 25 8 c14 4 26 8 28 9 1 1 2 -3 2 -9z m-447 -7 c-7
-2 -21 -2 -30 0 -10 3 -4 5 12 5 17 0 24 -2 18 -5z m328 -33 c10 0 19 -4 19
-10 0 -5 -24 -10 -52 -10 -49 1 -52 2 -33 16 11 8 26 12 33 9 8 -3 22 -5 33
-5z m-463 -18 c34 -3 42 -8 42 -24 0 -18 5 -20 38 -15 43 7 71 -4 50 -20 -7
-6 -41 -25 -76 -43 -58 -31 -102 -70 -102 -91 0 -5 10 -18 23 -30 19 -18 30
-20 77 -15 59 7 216 40 265 57 17 6 50 16 75 21 25 6 52 19 61 29 9 11 25 19
35 19 10 0 36 9 59 20 40 19 43 19 91 3 27 -9 59 -23 72 -31 30 -19 28 -48 -3
-56 -25 -6 -34 -29 -15 -41 6 -3 10 -10 10 -14 0 -9 -110 -7 -150 3 -29 6
-125 -24 -124 -39 1 -5 32 -17 70 -26 l69 -15 -210 -7 c-293 -11 -555 -8 -555
5 0 6 11 8 25 6 14 -3 30 1 36 9 20 23 1 27 -46 8 -46 -17 -47 -17 -69 4 -12
12 -25 18 -29 14 -9 -8 -47 26 -47 43 0 12 53 57 98 82 20 11 29 11 55 -2 26
-12 39 -12 69 -3 20 6 39 20 41 29 4 12 15 18 34 18 40 0 73 11 73 23 0 6 -20
8 -55 4 -54 -5 -55 -5 -55 21 0 15 -3 38 -7 51 -5 21 -4 23 13 16 10 -5 38
-10 62 -13z m642 -8 c0 -9 -7 -14 -17 -12 -25 5 -28 28 -4 28 12 0 21 -6 21
-16z m-1056 -53 c30 -26 59 -41 88 -46 73 -12 75 -19 11 -56 -36 -22 -59 -43
-61 -56 -2 -14 -15 -24 -43 -32 -21 -7 -56 -26 -76 -44 l-36 -32 -456 0 -456
0 -2 48 c-2 43 1 49 23 57 34 13 37 13 30 -5 -7 -20 18 -20 34 0 7 8 22 15 34
15 26 0 41 10 49 33 8 21 32 17 119 -19 64 -27 90 -29 116 -13 13 8 40 7 105
-4 92 -15 128 -12 209 20 24 9 47 23 51 30 4 7 25 13 45 13 33 0 46 8 102 65
36 36 66 65 67 65 1 0 22 -18 47 -39z m756 30 c0 -6 -4 -13 -10 -16 -5 -3 -10
1 -10 9 0 9 5 16 10 16 6 0 10 -4 10 -9z m110 -7 c0 -2 -19 -4 -42 -3 -35 1
-38 2 -18 8 23 7 60 4 60 -5z m50 -9 c0 -8 -4 -15 -10 -15 -5 0 -10 7 -10 15
0 8 5 15 10 15 6 0 10 -7 10 -15z m399 -14 c52 -38 188 -58 262 -40 19 5 46
20 59 34 28 29 51 26 121 -17 33 -20 59 -28 93 -28 l46 0 0 -100 0 -100 -57
-1 c-319 -8 -302 -9 -379 22 -40 16 -87 29 -106 29 -22 0 -53 14 -95 42 -59
40 -63 46 -63 80 0 21 4 38 8 38 5 0 22 13 38 30 34 35 38 36 73 11z m-684
-38 c-3 -16 -11 -29 -16 -31 -5 -2 -9 -10 -9 -18 0 -18 -45 -40 -100 -47 -25
-3 -54 -9 -63 -13 -28 -10 -33 24 -7 51 30 32 125 79 144 72 8 -3 18 -2 21 3
4 6 13 10 22 10 12 0 14 -6 8 -27z m175 23 c0 -3 -4 -8 -10 -11 -5 -3 -10 -1
-10 4 0 6 5 11 10 11 6 0 10 -2 10 -4z m516 -216 c31 -5 59 -12 62 -15 5 -5
-79 -8 -245 -9 -53 -1 -73 3 -73 12 0 7 -7 15 -15 18 -26 10 -4 26 27 20 44
-9 77 3 84 29 l6 24 48 -35 c33 -24 67 -38 106 -44z m-341 30 c7 -12 -32 -12
-60 0 -16 7 -13 9 17 9 20 1 40 -3 43 -9z m-959 -39 c5 -6 34 -12 64 -14 35
-2 20 -4 -42 -5 -54 -1 -98 0 -98 3 0 6 39 23 56 24 5 1 14 -3 20 -8z m1872
-223 l2 -176 -517 -4 c-285 -3 -945 -5 -1467 -6 l-948 -3 5 172 c3 94 7 173
10 175 4 4 2090 20 2597 19 l315 0 3 -177z"/>
<g>
<path d="M1052 4556 c7 -8 16 -12 21 -9 11 7 -2 23 -19 23 -12 0 -12 -2 -2
-14z"/>
</g>
<g>
<path d="M1065 4510 c3 -5 8 -10 11 -10 2 0 4 5 4 10 0 6 -5 10 -11 10 -5 0
-7 -4 -4 -10z"/>
</g>
<g>
<path d="M363 4743 c-13 -2 -23 -9 -23 -15 0 -11 64 -2 90 13 16 9 -24 10 -67
2z"/>
</g>
<g>
<path d="M1227 4454 c-29 -16 -37 -44 -12 -44 9 0 18 -7 21 -15 7 -16 44 -21
44 -6 0 5 3 17 6 26 5 13 2 15 -20 9 -16 -4 -26 -2 -26 5 0 6 7 11 15 11 8 0
15 4 15 9 0 18 -15 19 -43 5z"/>
</g>
<g>
<path d="M1645 3861 c-3 -6 -1 -30 6 -53 6 -24 17 -79 23 -123 9 -58 16 -80
27 -80 11 0 14 15 12 75 -2 107 -44 219 -68 181z"/>
</g>
<g>
<path d="M1380 3516 c0 -15 91 -33 109 -22 5 4 13 1 17 -5 4 -8 9 -7 15 2 18
28 7 34 -66 36 -58 2 -75 -1 -75 -11z"/>
</g>
<g>
<path d="M1396 3461 c-8 -13 33 -31 69 -31 21 0 43 16 34 25 -12 10 -97 16
-103 6z"/>
</g>
<g>
<path d="M1542 3023 c4 -21 33 -25 33 -3 0 8 -8 16 -18 18 -14 3 -18 -1 -15
-15z"/>
</g>
<g>
<path d="M1550 2965 c0 -11 7 -15 23 -13 12 2 22 8 22 13 0 6 -10 11 -22 13
-16 2 -23 -2 -23 -13z"/>
</g>
<g>
<path d="M1580 2886 c0 -9 5 -16 10 -16 6 0 10 4 10 9 0 6 -4 13 -10 16 -5 3
-10 -1 -10 -9z"/>
</g>
<g>
<path d="M1577 2854 c-14 -15 -6 -34 14 -34 14 0 19 5 17 17 -3 18 -20 27 -31
17z"/>
</g>
<g>
<path d="M1572 2783 c2 -13 12 -18 38 -18 51 0 48 29 -3 33 -33 3 -38 1 -35
-15z"/>
</g>
<g>
<path d="M1593 2743 c-26 -10 -13 -33 18 -33 24 0 30 4 27 17 -3 18 -24 26
-45 16z"/>
</g>
<g>
<path d="M1610 2545 c0 -8 8 -19 19 -24 14 -8 19 -26 24 -83 5 -63 10 -76 33
-96 27 -24 54 -26 61 -5 3 7 -7 17 -21 22 -28 11 -44 53 -53 144 -6 55 -7 57
-34 57 -19 0 -29 -5 -29 -15z"/>
</g>
<g>
<path d="M1726 2433 c-17 -17 -4 -33 28 -33 33 0 55 14 39 23 -17 10 -60 16
-67 10z"/>
</g>
<g>
<path d="M1511 2371 c-12 -8 -12 -13 -3 -24 10 -11 9 -17 -3 -27 -18 -15 -11
-30 14 -30 13 0 20 9 23 30 6 37 -11 64 -31 51z"/>
</g>
<g>
<path d="M1414 2335 c-18 -28 -13 -55 11 -55 11 0 15 11 15 40 0 47 -4 49 -26
15z"/>
</g>
<g>
<path d="M1770 2341 c0 -19 6 -21 49 -21 28 0 52 4 56 9 8 13 -3 18 -57 26
-44 7 -48 6 -48 -14z"/>
</g>
<g>
<path d="M1710 2290 c0 -15 7 -20 28 -20 19 0 23 -3 13 -9 -8 -5 -11 -16 -8
-25 12 -29 212 -16 212 14 0 10 -12 16 -38 18 -29 3 -37 7 -35 20 3 15 -9 17
-84 20 -83 3 -88 2 -88 -18z"/>
</g>
<g>
<path d="M1495 2253 c-3 -10 -2 -19 4 -21 5 -2 7 -10 4 -18 -3 -8 0 -21 7 -29
9 -11 7 -16 -9 -27 -26 -16 -28 -48 -3 -48 21 0 46 46 35 63 -11 16 -10 51 1
58 13 10 -1 39 -18 39 -7 0 -17 -8 -21 -17z"/>
</g>
<g>
<path d="M1470 2086 c0 -21 17 -29 46 -22 21 6 24 9 14 21 -16 19 -60 20 -60
1z"/>
</g>
<g>
<path d="M1614 2065 c-4 -10 -1 -21 7 -26 20 -12 34 -5 34 17 0 24 -33 31 -41
9z"/>
</g>
<g>
<path d="M1477 2043 c-16 -16 -5 -33 21 -33 35 0 45 9 31 27 -12 14 -41 18
-52 6z"/>
</g>
<g>
<path d="M1617 2006 c-7 -17 1 -26 24 -26 24 0 35 20 18 31 -20 13 -36 11 -42
-5z"/>
</g>
<g>
<path d="M1640 1945 c0 -8 5 -15 10 -15 6 0 10 7 10 15 0 8 -4 15 -10 15 -5 0
-10 -7 -10 -15z"/>
</g>
<g>
<path d="M1560 1845 c0 -8 5 -15 10 -15 6 0 10 7 10 15 0 8 -4 15 -10 15 -5 0
-10 -7 -10 -15z"/>
</g>
<g>
<path d="M1575 1760 c-4 -6 -3 -16 3 -22 6 -6 12 -6 17 2 4 6 3 16 -3 22 -6 6
-12 6 -17 -2z"/>
</g>
<g>
<path d="M1827 1603 c-14 -13 -7 -63 8 -63 10 0 15 11 15 35 0 33 -8 43 -23
28z"/>
</g>
<g>
<path d="M1816 1498 c-9 -34 -8 -38 13 -38 18 0 35 35 25 52 -10 16 -32 8 -38
-14z"/>
</g>
<g>
<path d="M1333 4293 c-7 -2 -13 -9 -13 -14 0 -6 4 -8 9 -4 18 10 24 -18 7 -30
-15 -11 -15 -14 0 -26 13 -10 17 -10 24 1 5 8 7 17 4 21 -2 4 3 12 11 19 27
22 -7 48 -42 33z"/>
</g>
<g>
<path d="M1407 4266 c-3 -8 2 -23 11 -32 16 -17 17 -17 20 0 2 10 -3 25 -11
33 -12 13 -15 13 -20 -1z"/>
</g>
<g>
<path d="M1453 4245 c-3 -9 -3 -18 0 -21 9 -9 27 6 27 22 0 19 -19 18 -27 -1z"/>
</g>
<g>
<path d="M1307 4193 c-10 -16 3 -43 20 -43 11 0 13 4 6 13 -6 6 -12 19 -15 27
-3 9 -7 10 -11 3z"/>
</g>
<g>
<path d="M1140 3958 c0 -24 16 -56 23 -48 3 3 2 20 0 38 -6 36 -23 44 -23 10z"/>
</g>
<g>
<path d="M1183 3396 c3 -58 10 -113 17 -123 9 -14 10 -1 6 61 -3 43 -6 99 -6
123 0 24 -5 43 -11 43 -7 0 -9 -34 -6 -104z"/>
</g>
<g>
<path d="M1428 238 c4 -113 6 -120 34 -116 20 3 23 9 23 48 0 43 1 45 30 45
31 0 31 -1 34 -57 1 -24 5 -28 32 -28 24 0 30 3 25 16 -3 9 -6 54 -6 100 0 76
-2 84 -19 84 -26 0 -43 -23 -39 -57 3 -24 -1 -28 -24 -31 -25 -3 -27 0 -30 40
-3 40 -5 43 -33 46 l-30 3 3 -93z"/>
</g>
<g>
<path d="M1637 229 l2 -103 58 3 c59 3 83 13 83 37 0 23 -21 27 -27 5 -3 -13
-13 -21 -27 -21 -18 0 -23 6 -23 30 0 24 3 28 14 18 19 -16 37 4 28 31 -6 21
-35 30 -35 11 0 -5 -4 -10 -10 -10 -11 0 -13 39 -4 64 9 24 32 19 36 -6 5 -35
33 -29 33 7 0 30 0 30 -65 33 l-65 3 2 -102z"/>
</g>
<g>
<path d="M1834 325 c-7 -4 -7 -29 -2 -78 4 -39 6 -82 3 -94 -5 -21 -2 -23 30
-23 l35 0 0 48 1 47 37 -42 c32 -36 92 -68 92 -48 0 4 -16 25 -35 47 -31 38
-33 42 -20 62 19 26 19 50 1 65 -14 12 -124 24 -142 16z m98 -40 c8 -19 8 -29
0 -37 -16 -16 -42 -2 -42 25 0 43 24 50 42 12z"/>
</g>
<g>
<path d="M2467 324 c-4 -4 -7 -18 -7 -31 0 -23 23 -32 35 -13 3 6 13 10 21 10
11 0 14 -15 14 -68 0 -37 -5 -73 -11 -79 -16 -16 1 -21 51 -14 28 4 40 9 33
14 -9 5 -13 33 -13 78 0 63 9 85 25 59 3 -5 15 -10 26 -10 14 0 19 7 19 25 0
25 -1 25 -79 25 -44 0 -86 2 -93 5 -8 3 -17 2 -21 -1z"/>
</g>
<g>
<path d="M503 309 c-17 -17 -16 -34 1 -48 12 -10 17 -8 26 9 6 11 15 18 21 15
12 -8 12 -142 -1 -150 -24 -15 -6 -25 45 -25 51 0 69 10 45 25 -5 3 -10 40
-10 81 0 66 2 74 19 74 10 0 21 -7 25 -15 8 -22 23 -18 31 8 6 18 9 13 16 -28
8 -46 6 -80 -7 -127 -5 -15 1 -18 35 -18 39 0 61 13 41 25 -5 3 -10 24 -10 46
l0 40 38 -3 c34 -3 37 -6 40 -37 2 -18 -1 -38 -7 -44 -20 -20 -11 -27 34 -27
42 0 58 11 35 25 -5 3 -10 39 -10 80 0 41 5 77 10 80 18 11 10 25 -14 25 -44
0 -56 -9 -50 -40 7 -33 -6 -44 -46 -35 -25 5 -30 12 -30 36 0 16 -1 29 -2 30
-2 0 -61 3 -133 6 -97 3 -133 1 -142 -8z"/>
</g>
<g>
<path d="M968 228 c2 -51 5 -99 8 -106 3 -9 22 -12 70 -10 58 3 68 6 75 25 11
31 -6 38 -29 12 -29 -30 -56 -21 -60 19 -3 33 11 44 22 17 12 -32 27 -14 24
28 -2 29 -8 42 -18 42 -8 0 -14 -6 -12 -12 1 -7 -2 -13 -8 -13 -16 0 -12 50 5
56 8 4 27 -1 41 -11 18 -11 29 -14 36 -7 29 29 -22 52 -118 52 l-40 0 4 -92z"/>
</g>
<g>
<path d="M2030 311 c0 -5 7 -12 16 -15 13 -5 15 -20 13 -91 -4 -81 -3 -85 17
-85 27 0 36 10 23 26 -6 7 -9 30 -7 51 l3 38 28 -42 c36 -56 62 -57 78 -3 7
22 19 46 27 52 13 11 14 4 10 -50 l-4 -62 35 0 c27 0 32 3 23 12 -15 15 -16
132 -2 159 10 17 7 19 -22 19 -30 -1 -35 -6 -56 -50 -13 -28 -27 -50 -32 -50
-4 0 -22 23 -40 50 -29 46 -35 50 -71 50 -21 0 -39 -4 -39 -9z"/>
</g>
<g>
<path d="M2347 308 c4 -7 10 -49 13 -93 5 -79 5 -80 33 -80 15 0 27 3 27 8 0
4 0 45 0 92 l0 85 -41 0 c-30 0 -38 -3 -32 -12z"/>
</g>
<g>
<path d="M2680 157 c0 -21 11 -27 31 -16 27 14 23 29 -6 29 -14 0 -25 -6 -25
-13z"/>
</g>
</g>
<g>
<path d="M1402 5102 c-60 -2 -82 -6 -79 -15 2 -7 17 -13 34 -15 34 -3 43 -26
43 -103 0 -37 -1 -38 -37 -41 -26 -2 -38 -8 -38 -18 0 -12 11 -14 55 -11 30 2
120 6 200 10 88 4 144 10 143 16 -1 6 -19 12 -39 15 -25 3 -44 14 -60 36 l-24
30 30 36 c21 26 40 38 62 40 17 2 33 9 36 15 4 13 -74 14 -326 5z m183 -31 c3
-5 1 -12 -5 -16 -5 -3 -10 1 -10 9 0 18 6 21 15 7z m-67 -26 c38 -44 20 -95
-40 -110 -28 -7 -28 -7 -28 41 0 27 -3 59 -6 72 -6 19 -3 22 23 22 19 0 37 -9
51 -25z m62 -95 c0 -5 -4 -10 -10 -10 -5 0 -10 5 -10 10 0 6 5 10 10 10 6 0
10 -4 10 -10z"/>
</g>
<g>
<path d="M589 4190 c-31 -25 -13 -26 26 0 20 13 24 20 14 20 -9 0 -27 -9 -40
-20z"/>
</g>
<g>
<path d="M60 4180 c0 -5 7 -10 16 -10 8 0 12 5 9 10 -3 6 -10 10 -16 10 -5 0
-9 -4 -9 -10z"/>
</g>
<g>
<path d="M130 4152 c0 -12 19 -26 26 -19 2 2 -2 10 -11 17 -9 8 -15 8 -15 2z"/>
</g>
<g>
<path d="M590 4139 c0 -5 5 -7 10 -4 6 3 10 8 10 11 0 2 -4 4 -10 4 -5 0 -10
-5 -10 -11z"/>
</g>
<g>
<path d="M60 4130 c0 -5 10 -10 23 -10 18 0 19 2 7 10 -19 13 -30 13 -30 0z"/>
</g>
<g>
<path d="M570 4060 c0 -5 7 -10 15 -10 8 0 15 5 15 10 0 6 -7 10 -15 10 -8 0
-15 -4 -15 -10z"/>
</g>
<g>
<path d="M130 4010 c0 -5 7 -10 16 -10 8 0 12 5 9 10 -3 6 -10 10 -16 10 -5 0
-9 -4 -9 -10z"/>
</g>
<g>
<path d="M130 3970 c0 -5 -16 -12 -35 -16 -19 -3 -35 -11 -35 -16 0 -6 8 -7
18 -3 9 4 32 11 50 17 33 9 44 28 17 28 -8 0 -15 -4 -15 -10z"/>
</g>
<g>
<path d="M575 3960 c3 -5 10 -10 16 -10 5 0 9 5 9 10 0 6 -7 10 -16 10 -8 0
-12 -4 -9 -10z"/>
</g>
<g>
<path d="M89 3869 c-23 -19 -23 -20 -2 -10 12 6 25 16 28 21 10 16 -1 12 -26
-11z"/>
</g>
<g>
<path d="M133 3873 c-4 -10 -14 -25 -23 -33 -8 -8 -11 -12 -6 -7 17 13 38 8
32 -8 -3 -8 -1 -15 4 -15 6 0 10 3 11 8 0 4 2 22 3 40 4 34 -10 44 -21 15z"/>
</g>
<g>
<path d="M595 3825 c39 -32 55 -32 25 0 -13 14 -31 25 -39 25 -11 -1 -6 -9 14
-25z"/>
</g>
<g>
<path d="M570 3803 c1 -22 23 -53 38 -53 8 0 6 12 -5 35 -18 38 -33 46 -33 18z"/>
</g>
<g>
<path d="M100 3785 c-8 -9 -8 -15 -2 -15 12 0 26 19 19 26 -2 2 -10 -2 -17
-11z"/>
</g>
<g>
<path d="M136 3781 c-4 -7 -5 -15 -2 -18 9 -9 19 4 14 18 -4 11 -6 11 -12 0z"/>
</g>
<g>
<path d="M2726 1321 c-10 -11 -16 -26 -14 -33 3 -8 -8 -17 -26 -24 -38 -13
-47 -43 -16 -51 l23 -6 -23 -17 c-32 -24 -20 -50 22 -50 l33 0 -32 -16 c-30
-15 -50 -54 -38 -74 12 -19 24 -9 27 22 2 22 9 34 21 36 15 3 17 -6 19 -65 1
-37 2 -75 4 -83 1 -8 2 -39 3 -67 1 -38 5 -53 15 -53 20 0 24 26 15 95 -4 33
-8 85 -8 116 -1 55 0 57 30 63 17 3 46 6 63 6 18 0 41 6 52 14 18 14 18 16 2
43 -16 27 -19 28 -82 25 -43 -3 -66 0 -66 7 0 6 19 11 44 11 25 0 48 5 51 11
11 16 -26 38 -65 39 -35 0 -35 0 -10 13 14 7 26 23 28 35 3 18 -1 22 -26 22
-16 0 -37 -9 -46 -19z m144 -171 c-8 -5 -40 -9 -70 -9 -42 1 -49 3 -30 9 38
12 119 12 100 0z"/>
</g>
<g>
<path d="M2781 1091 c-17 -11 -7 -41 13 -41 15 0 29 27 20 41 -7 11 -15 11
-33 0z"/>
</g>
</g>
</svg>
