<?xml version="1.0" standalone="no"?>
<!DOCTYPE svg PUBLIC "-//W3C//DTD SVG 20010904//EN"
 "http://www.w3.org/TR/2001/REC-SVG-20010904/DTD/svg10.dtd">
<svg version="1.0" xmlns="http://www.w3.org/2000/svg"
 width="300.000000pt" height="514.000000pt" viewBox="0 0 300.000000 514.000000"
 preserveAspectRatio="xMidYMid meet">
<metadata>
Created by potrace 1.15, written by Peter Selinger 2001-2017
</metadata>
<g transform="translate(0.000000,514.000000) scale(0.100000,-0.100000)"
fill="#000000" stroke="none">
<g>
<path d="M10 5078 c-2 -529 3 -2469 6 -2603 3 -99 6 -616 6 -1150 1 -533 4
-1050 6 -1148 l3 -177 307 2 307 3 -295 5 -295 5 -3 174 -2 174 367 -4 c526
-5 2493 12 2493 22 0 5 -52 9 -115 9 l-115 0 0 40 c0 22 -4 40 -10 40 -5 0
-10 -18 -10 -40 l0 -40 -64 0 c-42 0 -66 4 -70 13 -5 9 -7 9 -12 0 -4 -9 -29
-13 -75 -13 -46 0 -68 4 -64 10 10 16 -5 110 -17 110 -7 0 -9 -21 -5 -60 l5
-60 -123 0 -124 0 5 55 c7 63 -1 109 -17 99 -6 -3 -8 -16 -5 -28 2 -11 1 -46
-3 -76 l-9 -55 -1 68 c-1 52 -4 67 -16 67 -12 0 -15 -14 -15 -65 l0 -65 -29 0
c-16 0 -32 6 -35 13 -5 9 -7 9 -12 0 -12 -27 -34 -13 -34 22 0 19 -5 35 -11
35 -7 0 -10 -14 -7 -35 3 -23 0 -35 -8 -35 -7 0 -14 15 -16 33 -4 42 -22 42
-26 0 l-3 -33 -75 0 -75 0 3 26 c2 15 -3 29 -9 31 -9 3 -13 -6 -13 -25 0 -30
0 -30 -67 -34 -39 -3 -74 -1 -81 5 -9 7 -16 7 -20 1 -10 -15 -68 -11 -65 4 2
7 -4 12 -12 12 -8 0 -15 -7 -15 -15 0 -13 -35 -15 -252 -15 l-253 0 0 115 c0
80 4 115 11 115 13 0 24 -23 24 -51 0 -10 5 -19 10 -19 6 0 10 16 10 35 0 31
3 35 26 35 l25 0 -2 -97 c-1 -54 2 -100 7 -103 5 -3 11 42 14 100 7 139 24
137 28 -2 1 -60 6 -108 11 -108 4 0 9 46 10 102 1 56 4 105 6 108 2 3 18 5 36
5 31 0 34 -3 41 -40 4 -22 7 -68 7 -102 1 -40 5 -63 12 -63 8 0 10 23 5 78 -4
46 -3 89 3 105 10 25 14 26 68 24 54 -2 58 -4 61 -27 6 -42 22 -47 22 -7 0 49
17 47 25 -3 4 -22 11 -40 17 -40 6 0 8 17 6 40 -2 28 0 40 9 40 9 0 13 -15 13
-46 0 -57 19 -49 21 9 l2 42 6 -38 c6 -39 25 -47 27 -12 2 39 4 45 14 45 5 0
12 -12 16 -27 11 -53 15 -63 24 -63 6 0 7 20 3 45 -4 36 -3 45 9 45 10 0 18
-17 24 -53 11 -65 29 -64 25 3 -3 55 16 71 21 18 4 -43 22 -42 26 0 5 54 27
32 30 -31 4 -76 22 -73 22 3 0 44 4 60 14 60 18 0 26 -44 26 -141 0 -46 4 -79
10 -79 6 0 10 43 10 110 l0 110 200 0 200 0 0 -85 c0 -50 4 -85 10 -85 11 0
15 48 11 123 l-2 48 133 -3 133 -3 -3 -37 c-3 -29 0 -38 12 -38 12 0 16 10 16
41 0 24 4 38 10 34 6 -3 10 -18 10 -33 0 -38 11 -72 22 -72 5 0 8 24 6 52 -2
42 0 53 12 53 10 0 15 -11 16 -30 1 -16 2 -45 3 -62 2 -55 21 -37 21 20 0 46
3 53 25 64 21 9 27 8 34 -5 9 -16 10 -16 16 1 9 21 63 23 71 2 4 -8 10 -15 15
-15 5 0 9 7 9 15 0 20 17 19 30 -2 10 -17 10 -17 20 0 17 26 43 22 34 -5 -9
-31 -22 -38 -71 -38 -24 0 -43 -4 -43 -9 0 -9 48 -21 86 -21 13 0 24 -4 24
-10 0 -5 -25 -10 -55 -10 -30 0 -55 -4 -55 -10 0 -5 25 -10 55 -10 30 0 55 -4
55 -10 0 -5 -17 -10 -37 -10 -48 0 -73 -14 -56 -31 10 -10 14 -9 19 4 4 11 18
17 40 17 30 0 34 -3 34 -25 0 -48 26 -22 34 34 2 11 17 18 52 22 l49 6 -53 1
c-70 2 -66 26 5 30 35 2 53 -1 63 -13 8 -10 9 -15 1 -15 -6 0 -11 -7 -11 -15
0 -11 -13 -15 -47 -17 l-48 -1 45 -4 c41 -4 59 -15 60 -36 0 -5 -4 -5 -10 -2
-5 3 -10 -1 -10 -10 0 -8 -7 -18 -15 -21 -22 -9 -18 -22 8 -26 22 -3 22 -4 22
-186 0 -140 3 -182 13 -182 10 0 12 58 11 268 0 147 -4 272 -8 277 -5 6 -5 44
0 85 4 41 8 1073 8 2293 1 1914 -1 2217 -13 2217 -12 0 -14 -131 -13 -935 2
-925 1 -971 -28 -925 -3 6 -21 17 -38 25 -18 9 -23 10 -13 3 11 -7 30 -23 43
-35 13 -13 28 -23 33 -23 11 0 14 -33 5 -42 -3 -3 -20 8 -36 23 -17 16 -39 29
-48 29 -24 0 -45 38 -30 56 9 11 8 14 -3 14 -18 0 -61 44 -52 53 11 11 -17 37
-41 37 -27 0 -78 38 -69 51 3 6 8 8 11 5 3 -3 14 -1 24 4 14 8 16 16 9 37 -15
52 -21 61 -48 72 -31 12 -44 11 -92 -12 -31 -14 -110 -80 -110 -92 0 -3 32 18
70 47 39 28 73 48 77 45 3 -4 13 -2 22 2 23 13 61 -21 61 -53 0 -15 -6 -29
-14 -32 -20 -8 -66 25 -66 47 0 24 -18 25 -27 2 -4 -10 -34 -44 -67 -75 -33
-32 -57 -60 -54 -64 4 -3 31 17 61 45 31 29 57 48 60 44 16 -28 17 -74 1 -98
-17 -25 -17 -25 -31 -5 -18 25 -45 26 -66 2 -23 -26 -21 -39 2 -18 19 17 21
17 55 -10 21 -17 32 -32 27 -39 -5 -5 -12 -32 -16 -60 -7 -48 -7 -49 -23 -29
-10 11 -26 23 -37 28 -16 6 -15 2 7 -21 31 -33 47 -83 26 -83 -7 0 -19 9 -26
20 -7 12 -17 18 -22 15 -14 -8 17 -52 40 -58 10 -3 21 0 23 6 2 8 14 5 33 -7
40 -25 64 -57 64 -84 0 -13 13 -63 29 -110 33 -99 51 -196 50 -264 -1 -61 19
-158 33 -158 7 0 8 12 4 33 -4 17 -11 75 -16 127 -11 111 -32 215 -58 285 -20
54 -23 95 -7 95 5 0 10 -8 10 -18 0 -25 94 -410 112 -462 16 -42 47 -79 106
-121 37 -27 35 -7 -3 24 -17 14 -30 28 -30 31 0 3 -11 16 -24 29 -14 14 -30
44 -36 68 -7 24 -15 48 -18 53 -3 6 -7 19 -8 30 -1 12 -11 66 -23 121 -12 55
-26 120 -30 145 -5 25 -16 61 -24 80 -8 19 -25 66 -36 103 -22 72 -56 127 -78
127 -14 0 -17 28 -5 46 4 6 28 13 53 16 42 5 47 3 64 -26 32 -52 34 -61 36
-178 1 -100 7 -167 25 -275 3 -18 11 -33 18 -33 7 0 25 -18 40 -40 14 -22 30
-40 35 -40 5 0 17 -22 26 -49 10 -32 24 -52 41 -59 23 -11 24 -15 23 -94 -1
-74 -4 -86 -35 -134 -19 -29 -34 -60 -34 -68 0 -8 -4 -18 -10 -21 -12 -8 -13
-62 -1 -69 5 -3 6 -25 4 -48 -4 -37 8 -277 23 -468 9 -115 11 -288 3 -355 -24
-227 -29 -286 -31 -338 -1 -38 -5 -57 -14 -57 -19 0 -26 134 -17 305 9 168 7
797 -3 863 -3 23 -9 42 -13 42 -3 0 -7 -219 -7 -487 -1 -675 -2 -723 -20 -723
-10 0 -14 12 -14 38 0 20 -1 279 -2 574 0 296 -5 538 -9 538 -5 0 -9 -24 -10
-52 -1 -42 -2 -48 -9 -27 -13 44 4 120 33 143 56 46 84 164 53 223 -23 46 -63
73 -106 73 -30 0 -44 6 -65 31 -24 29 -25 33 -10 53 8 11 18 28 21 36 3 8 12
28 19 45 15 33 5 55 -24 55 -9 0 -23 8 -31 18 -18 20 -58 129 -71 192 -5 24
-20 56 -32 70 -13 14 -36 43 -52 64 l-29 39 -4 585 c-4 520 -3 584 11 579 15
-6 57 35 87 84 28 47 70 134 70 146 0 6 5 13 12 15 17 6 23 131 8 195 -12 56
-64 123 -95 123 -8 0 -15 4 -15 8 0 13 -91 2 -130 -15 -19 -9 -37 -17 -40 -17
-18 -5 -59 -40 -63 -55 -3 -13 -18 -20 -48 -24 -24 -4 -358 -9 -742 -13 -695
-6 -699 -6 -718 15 -10 11 -19 26 -19 33 0 16 -42 57 -78 76 -31 17 -162 26
-162 12 0 -6 -17 -18 -38 -27 -24 -10 -43 -27 -51 -45 -7 -16 -24 -41 -36 -57
-13 -15 -26 -38 -30 -52 -9 -38 20 -166 48 -207 14 -20 28 -53 31 -73 8 -46
55 -118 82 -125 21 -5 21 -8 23 -327 1 -385 11 -667 22 -667 18 0 19 55 9 360
-5 173 -10 413 -10 533 0 190 -2 217 -16 217 -12 0 -14 -8 -8 -45 5 -37 3 -45
-9 -45 -20 0 -54 55 -66 109 -5 23 -17 51 -27 62 -20 22 -55 173 -46 198 3 9
20 41 38 71 52 89 134 121 220 85 44 -18 66 -67 67 -149 0 -51 -3 -62 -23 -78
-17 -14 -33 -18 -52 -14 -36 7 -39 -21 -4 -30 49 -12 104 41 110 106 3 31 9
44 17 42 35 -9 1458 -1 1489 8 45 13 43 14 37 -12 -8 -29 25 -103 53 -118 28
-15 40 -49 27 -78 -8 -17 -7 -31 6 -56 22 -47 27 -162 32 -769 3 -362 1 -526
-6 -521 -6 3 -9 29 -7 58 3 45 1 51 -17 51 -14 0 -22 11 -32 43 -6 24 -26 59
-43 78 -60 69 -74 110 -71 207 2 61 -1 87 -9 87 -7 0 -11 -13 -9 -32 3 -51 0
-92 -8 -85 -9 10 -10 57 -13 504 l-2 402 -326 3 c-180 2 -328 2 -330 1 -2 -1
11 -8 30 -17 55 -27 120 -96 90 -96 -5 0 -30 20 -55 45 -47 45 -76 62 -43 26
12 -13 14 -21 6 -26 -6 -4 -30 12 -53 34 -23 23 -46 41 -52 41 -5 0 10 -18 34
-40 52 -47 48 -61 -9 -35 -38 17 -40 20 -40 62 0 46 6 51 36 28 10 -8 24 -14
29 -14 6 -1 -1 8 -15 19 -14 11 -30 20 -36 20 -11 0 -24 22 -24 41 0 5 9 9 20
9 13 0 20 7 20 19 0 25 -15 29 -75 22 -41 -5 -50 -9 -50 -26 0 -13 8 -21 23
-23 45 -7 15 -34 -80 -74 -48 -20 -75 -23 -270 -28 l-218 -5 -6 -327 c-6 -299
-5 -328 10 -328 9 0 16 7 16 15 0 8 5 15 10 15 6 0 10 7 10 15 0 9 6 12 15 9
11 -5 15 1 15 19 0 22 -4 25 -26 24 -24 -2 -26 1 -28 43 -4 51 2 69 15 49 6
-9 9 -1 9 24 0 23 -4 36 -10 32 -6 -4 -9 37 -8 117 l2 123 5 -95 c8 -133 19
-100 17 51 -1 89 -5 131 -15 142 -11 14 -11 18 3 23 9 3 23 1 31 -6 13 -10 15
-8 15 14 0 16 5 26 15 26 9 0 15 -10 15 -26 0 -16 5 -24 13 -21 6 2 11 14 9
25 -2 15 2 22 12 22 11 0 16 -9 16 -26 0 -16 5 -24 13 -21 6 2 11 14 9 25 -2
14 2 22 12 22 8 0 16 -10 18 -22 5 -32 28 -35 28 -4 0 14 5 26 10 26 6 0 10
-9 10 -20 0 -27 18 -25 30 3 l9 22 0 -23 c1 -15 6 -22 14 -19 6 2 11 12 11 21
-1 9 3 16 8 16 7 0 8 -15 5 -37 l-6 -37 28 31 c15 17 49 40 76 52 52 23 79 27
54 8 -9 -7 -21 -22 -28 -34 -10 -20 -9 -23 9 -23 11 0 31 -7 44 -15 21 -14 24
-23 22 -83 l-1 -67 -43 -9 c-23 -5 -45 -7 -48 -4 -2 3 -7 28 -11 57 -8 73 -23
63 -17 -11 l5 -63 -35 -22 c-20 -12 -37 -19 -40 -15 -14 24 -29 105 -28 152 2
45 0 52 -9 36 -12 -20 -7 -97 13 -170 10 -36 9 -53 -6 -102 -10 -33 -19 -75
-21 -95 -1 -20 -6 -46 -10 -58 -3 -12 -2 -21 4 -21 5 0 12 21 16 48 3 26 15
80 27 120 18 61 27 75 56 92 l34 20 -6 -27 c-4 -16 -7 -49 -8 -75 -1 -27 -7
-48 -13 -48 -5 0 -2 -7 8 -14 15 -12 15 -15 2 -26 -17 -14 -21 -35 -5 -25 11
7 13 -9 3 -43 -4 -18 -11 -23 -29 -19 -30 5 -54 -21 -57 -62 -2 -31 -17 -45
-17 -15 0 12 -6 15 -25 10 -21 -5 -25 -3 -26 16 -1 19 -3 17 -11 -9 -9 -28
-16 -33 -43 -33 -33 0 -61 -20 -47 -35 4 -4 -12 -5 -35 -1 -50 7 -105 -20
-113 -56 -4 -13 -18 -26 -39 -33 -69 -23 -151 -165 -156 -271 -4 -70 -21 -139
-41 -168 -18 -27 -18 -65 1 -72 8 -4 15 -12 15 -19 0 -7 -7 -15 -15 -19 -9 -3
-15 -18 -15 -36 0 -30 -2 -31 -29 -25 -17 3 -40 1 -52 -5 -17 -9 -23 -9 -29 0
-4 7 -10 85 -14 174 -4 88 -9 206 -13 260 l-6 99 47 -6 c26 -4 46 -3 46 3 0
11 -58 23 -91 18 l-24 -3 4 -130 c6 -230 25 -495 36 -495 6 0 13 12 17 26 9
35 58 72 58 44 0 -5 -9 -19 -20 -30 -16 -16 -20 -33 -20 -80 0 -33 -4 -60 -10
-60 -5 0 -10 15 -10 33 -1 30 -2 31 -15 13 -8 -10 -12 -22 -10 -26 2 -4 5 -37
7 -73 1 -47 6 -67 15 -67 7 0 13 -8 13 -19 0 -15 -10 -20 -55 -26 -61 -7 -65
-25 -6 -25 34 0 83 -22 71 -33 -3 -2 -38 -7 -77 -10 -65 -5 -73 -4 -73 12 0 9
5 22 11 28 9 9 8 16 -4 28 -25 24 -10 43 41 51 26 5 39 10 30 12 -20 4 -24 28
-38 252 -27 440 -31 517 -29 526 7 39 -1 46 -48 42 -27 -3 -56 -8 -65 -12 -15
-7 -18 -3 -18 17 0 22 4 26 30 25 17 -1 33 2 37 5 3 4 -5 7 -18 7 -13 0 -34 3
-46 6 -21 6 -23 3 -23 -34 0 -49 11 -58 49 -39 16 8 39 14 52 13 22 -1 24 -6
31 -76 4 -41 7 -124 6 -185 0 -60 3 -123 7 -140 6 -27 3 -24 -30 20 -20 28
-40 56 -44 63 -10 17 -75 32 -105 24 -36 -11 -91 -64 -93 -92 l-3 -25 21 25
c21 24 22 24 33 6 6 -11 23 -34 39 -51 49 -59 70 -136 23 -90 -8 8 -30 15 -50
15 -38 0 -71 11 -100 34 -18 15 -18 16 5 36 24 21 24 21 2 15 l-22 -6 -2 643
c-2 623 1 1311 5 1315 1 1 483 5 1070 7 588 3 1071 8 1074 11 3 3 -486 5
-1086 5 l-1092 0 0 -62z m2577 -289 c43 -40 63 -96 63 -178 0 -53 -5 -83 -19
-110 -11 -20 -31 -62 -45 -93 -39 -90 -96 -157 -96 -112 0 8 -4 12 -10 9 -6
-4 -10 10 -10 35 0 22 -7 57 -15 77 -24 56 -12 94 37 118 42 20 88 71 88 97 0
8 -5 29 -11 47 -10 27 -15 31 -50 31 -29 0 -44 -7 -64 -27 -29 -32 -30 -47 -6
-87 20 -34 49 -50 36 -20 -14 34 -17 81 -5 89 6 4 22 4 36 1 36 -9 33 -56 -7
-95 -37 -38 -49 -38 -89 -5 -78 66 -70 169 18 229 46 33 109 30 149 -6z
m-1151 -369 l-3 -40 42 0 c62 0 79 -23 70 -97 l-6 -58 -59 0 c-32 0 -61 3 -64
6 -3 3 -7 36 -8 72 -1 57 -4 67 -20 67 -26 0 -23 33 8 72 17 21 12 18 -14 -9
-22 -24 -42 -43 -46 -43 -12 0 -5 21 14 40 11 11 15 20 9 20 -5 0 -7 5 -4 11
4 6 13 8 20 5 7 -2 21 4 31 15 18 20 18 20 26 -1 4 -11 6 -38 4 -60z m34 29
c0 -27 -4 -48 -8 -45 -4 3 -7 24 -6 48 2 49 2 48 9 48 3 0 5 -23 5 -51z m471
-59 c5 0 9 6 9 14 0 22 27 27 33 5 6 -22 27 -26 27 -4 0 8 5 15 10 15 6 0 10
-7 10 -15 0 -8 5 -15 10 -15 6 0 10 7 10 15 0 8 5 15 10 15 6 0 10 -9 10 -20
0 -27 18 -25 30 3 7 17 9 18 9 5 1 -10 7 -18 15 -18 8 0 17 8 19 18 3 9 5 -20
6 -65 0 -46 6 -85 12 -88 7 -5 10 12 8 54 -3 67 6 90 17 45 4 -16 11 -31 15
-34 13 -9 24 -510 10 -510 -6 0 -12 12 -12 28 -2 36 -17 -49 -18 -100 -1 -27
3 -38 14 -38 9 0 15 -9 15 -24 0 -13 3 -31 6 -40 3 -9 1 -16 -5 -16 -6 0 -11
5 -11 10 0 9 -14 27 -60 75 -32 33 -191 95 -238 93 -23 -1 -43 1 -45 3 -1 2
-16 23 -32 47 -20 31 -31 39 -36 30 -15 -23 -10 8 7 41 18 36 9 77 -30 130
-37 49 -51 90 -37 104 6 6 11 27 11 47 0 19 4 50 9 68 10 35 1 70 -27 104 -12
15 -12 19 1 33 20 19 37 19 37 0 0 -8 7 -15 15 -15 8 0 15 8 15 17 0 15 2 14
14 -3 14 -18 15 -18 21 -1 6 14 10 15 23 5 12 -10 16 -10 19 0 6 17 23 15 23
-3 0 -23 17 -18 25 8 l8 22 4 -22 c2 -13 9 -23 14 -23z m-287 -39 c15 -16 17
-30 11 -85 l-7 -66 -37 6 c-68 11 -66 9 -63 74 3 48 8 63 25 75 29 20 50 19
71 -4z m553 -3 c-3 -8 -6 -5 -6 6 -1 11 2 17 5 13 3 -3 4 -12 1 -19z m-474
-48 c-9 -126 -13 -136 -43 -117 -19 11 -19 44 0 57 13 9 24 53 11 46 -7 -5
-11 2 -11 19 0 22 4 26 23 23 17 -2 22 -9 20 -28z m-158 -111 c51 -13 70 -40
27 -38 -98 5 -130 -10 -104 -51 20 -32 25 -105 9 -119 -11 -8 -17 -9 -22 -1
-3 6 -11 8 -16 4 -5 -3 -16 -2 -22 3 -7 4 -3 -1 10 -12 29 -26 29 -35 0 -35
-13 0 -31 -8 -40 -18 -20 -22 -11 -38 11 -20 11 10 17 9 27 -5 15 -21 44 -22
51 -2 4 8 17 15 30 15 14 0 24 6 24 14 0 10 -10 14 -30 14 -42 -1 -49 10 -20
34 16 13 24 28 22 42 -2 13 4 29 13 36 12 10 13 16 4 26 -8 10 -8 14 0 14 6 0
11 -4 11 -10 0 -17 37 -11 44 6 4 9 5 18 4 18 -2 1 -14 7 -28 13 l-25 12 27 0
c46 1 70 -75 43 -133 -10 -20 -15 -43 -11 -51 3 -8 1 -15 -5 -15 -5 0 -12 7
-15 15 -7 18 -43 39 -51 31 -3 -3 8 -18 24 -33 32 -30 53 -78 53 -124 0 -15 5
-31 11 -35 8 -4 10 13 9 57 -3 81 -2 94 7 85 4 -4 7 -42 6 -84 -1 -53 1 -69 6
-52 7 20 9 14 10 -31 1 -31 3 -112 6 -180 5 -142 -9 -115 -21 39 -4 51 -11 95
-16 98 -9 6 -6 -100 6 -206 2 -25 2 -34 -1 -20 -2 14 -9 30 -15 35 -7 7 -8
-29 -4 -117 5 -84 3 -128 -4 -133 -6 -4 -10 4 -10 19 0 14 -4 26 -10 26 -6 0
-10 -30 -10 -70 0 -72 -13 -93 -25 -40 -4 17 -10 30 -15 30 -5 0 -12 32 -16
70 -3 39 -10 70 -14 70 -4 0 -6 -19 -4 -42 12 -146 12 -143 -13 -144 -14 -1
-23 4 -23 12 0 8 -11 19 -24 25 -20 10 -23 15 -14 29 7 10 8 25 3 36 -7 17 -9
15 -15 -11 -8 -32 -11 -28 -14 22 -3 50 -16 52 -17 2 l0 -44 -19 45 c-10 25
-19 60 -19 78 -1 17 -5 32 -11 32 -5 0 -10 14 -10 31 0 26 2 29 14 16 8 -8 16
-31 18 -52 2 -21 8 -40 15 -42 15 -5 5 79 -11 89 -8 5 -8 13 -1 25 9 16 11 88
6 186 0 16 -7 27 -15 27 -10 0 -15 19 -19 68 -8 116 -6 144 10 176 14 27 14
29 1 18 -20 -16 -42 -94 -36 -127 3 -14 2 -28 -3 -30 -4 -3 -11 15 -14 40 -4
25 -12 45 -17 45 -6 0 -7 -18 -4 -42 l5 -43 -10 35 c-7 21 -8 56 -3 90 4 30 7
77 6 104 -1 40 4 52 26 72 28 24 62 32 62 14 0 -5 -11 -10 -24 -10 -13 0 -29
-6 -35 -14 -10 -12 -8 -17 8 -25 31 -17 59 -14 57 7 -1 14 7 17 42 15 35 -1
42 1 42 17 0 10 3 26 7 35 5 15 3 16 -15 6 -24 -13 -152 -4 -152 10 0 14 23
22 84 29 96 11 144 11 191 -1z m127 -142 c0 -17 -3 -55 -7 -83 -6 -40 -4 -57
10 -78 10 -14 13 -26 7 -26 -19 0 -26 23 -33 95 -4 39 -9 79 -13 90 -5 15 -4
14 5 -2 7 -13 16 -23 21 -23 13 0 9 27 -6 42 -7 8 -15 29 -18 48 -3 19 -8 44
-12 55 -3 11 5 -4 20 -33 14 -29 26 -67 26 -85z m57 -42 c0 -14 -2 -16 -6 -5
-3 8 -9 17 -13 20 -4 3 -10 21 -14 40 l-7 35 20 -35 c11 -19 20 -44 20 -55z
m30 -47 c1 -15 -3 -30 -9 -33 -6 -4 -10 14 -9 47 0 39 3 48 9 33 5 -11 9 -32
9 -47z m-59 3 c0 -16 13 -53 30 -84 25 -47 27 -56 14 -61 -25 -10 -34 -7 -28
9 4 8 -3 33 -15 55 -21 41 -30 127 -11 115 6 -3 10 -19 10 -34z m-483 -97 c7
-18 -32 -62 -44 -50 -4 4 -1 12 7 17 11 8 10 9 -7 4 -16 -4 -23 -2 -23 7 0 34
55 52 67 22z m573 -45 c0 -5 -4 -9 -10 -9 -5 0 -10 7 -10 16 0 8 5 12 10 9 6
-3 10 -10 10 -16z m-673 -45 c-12 -9 -77 -13 -77 -4 0 5 9 10 20 10 11 0 20 5
20 10 0 6 8 5 20 -2 10 -7 18 -13 17 -14z m146 -26 c-10 -21 -10 -21 -9 9 1
19 5 28 10 23 6 -6 5 -18 -1 -32z m56 -93 c1 -5 -4 -3 -9 5 -8 11 -10 0 -8
-38 4 -65 21 -68 29 -5 5 39 6 33 5 -28 -1 -61 -4 -76 -16 -75 -24 2 -29 24
-28 151 l0 120 14 -60 c7 -33 13 -64 13 -70z m-69 -11 c0 -8 -4 -12 -10 -9 -5
3 -10 10 -10 16 0 5 5 9 10 9 6 0 10 -7 10 -16z m20 -49 c0 -19 -4 -35 -8 -35
-4 0 -6 16 -4 35 2 19 6 35 8 35 2 0 4 -16 4 -35z m1379 -145 c16 -24 27 -48
25 -52 -7 -12 -60 33 -60 52 -1 8 -5 23 -9 34 -15 34 12 13 44 -34z m92 -53
c-1 -12 -15 -9 -19 4 -3 6 1 10 8 8 6 -3 11 -8 11 -12z m-83 -6 c9 -6 33 -13
53 -16 46 -7 89 -40 89 -68 0 -25 37 -67 60 -67 30 0 80 -69 80 -109 0 -25 2
-25 -52 -2 -73 33 -168 143 -168 195 0 9 -6 17 -12 17 -7 1 -29 3 -49 4 -46 3
-59 11 -59 36 0 21 28 26 58 10z m-2402 -161 c13 -25 24 -41 24 -36 0 5 14 -8
30 -29 20 -25 30 -49 30 -72 0 -39 -12 -37 -30 7 -7 16 -16 30 -21 30 -5 0 -6
6 -3 14 3 8 1 17 -5 21 -7 3 -11 -2 -11 -14 0 -11 -5 -23 -10 -26 -13 -8 -40
55 -40 94 0 16 -5 33 -11 36 -16 10 -24 -4 -11 -17 17 -17 15 -38 -4 -38 -14
0 -14 -2 0 -15 15 -15 46 -104 46 -132 0 -7 -4 -13 -10 -13 -5 0 -10 14 -10
32 0 36 -34 91 -67 109 -25 13 -30 29 -10 29 7 0 4 7 -7 15 -18 14 -18 16 -3
33 11 12 30 18 58 18 38 -1 43 -4 65 -46z m2367 -13 c17 -36 24 -60 31 -99 5
-28 4 -28 -45 15 -47 39 -49 44 -44 77 4 19 9 38 11 42 9 14 33 -4 47 -35z
m237 -87 c19 -13 37 -25 39 -26 2 -2 -7 -17 -19 -34 -26 -36 -41 -143 -32
-231 l5 -52 -37 40 c-35 39 -37 46 -52 159 -13 103 -12 181 3 207 3 5 17 -2
32 -16 14 -13 42 -34 61 -47z m-2184 4 c-3 -9 -6 -18 -6 -20 0 -2 -9 -4 -20
-4 -25 0 -26 16 -2 29 25 15 35 13 28 -5z m114 -30 c0 -2 -7 -4 -15 -4 -8 0
-15 4 -15 10 0 5 7 7 15 4 8 -4 15 -8 15 -10z m-487 -35 c29 -44 44 -89 31
-89 -23 0 -66 48 -73 82 -14 62 4 65 42 7z m-261 11 c10 -16 24 -20 66 -20 46
0 57 -4 74 -25 12 -16 30 -25 47 -25 15 0 36 -9 46 -20 17 -18 17 -20 2 -14
-9 3 -17 11 -17 16 0 6 -14 8 -36 3 -27 -5 -41 -2 -56 11 -22 21 -148 34 -148
16 0 -7 17 -9 49 -5 41 5 55 2 82 -18 22 -15 44 -22 66 -20 20 1 44 -5 60 -17
44 -30 57 -36 49 -24 -7 12 12 28 21 18 4 -3 7 -28 8 -55 2 -60 -7 -58 -72 13
l-42 46 -78 2 c-43 1 -85 2 -93 4 -8 1 -25 2 -37 3 -21 1 -23 6 -23 66 0 67
10 81 32 45z m2898 17 c0 -2 -7 -27 -15 -55 -14 -46 -20 -123 -14 -187 1 -11
1 -47 0 -80 -3 -60 -3 -60 -16 -29 -22 50 -33 192 -20 259 8 41 39 95 56 95 5
0 9 -1 9 -3z m-2290 -16 c0 -11 -42 -43 -48 -37 -2 2 3 13 10 25 13 21 38 29
38 12z m70 -6 c10 -12 10 -15 -3 -15 -8 0 -23 -3 -32 -6 -15 -6 -15 -4 -4 15
16 25 22 26 39 6z m-119 -65 c18 0 28 -4 24 -10 -3 -5 -15 -10 -27 -10 -11 0
-22 -8 -25 -20 -3 -10 -14 -22 -24 -25 -10 -4 -19 -15 -19 -25 0 -10 -4 -22
-10 -25 -6 -4 -10 10 -10 34 0 21 -3 46 -6 55 -4 10 -1 16 9 16 8 0 18 -8 21
-17 5 -12 10 -13 18 -5 8 8 8 15 -1 26 -7 8 -9 20 -5 27 5 8 9 7 16 -5 5 -9
22 -16 39 -16z m199 -30 c0 -5 -7 -7 -15 -4 -8 4 -15 8 -15 10 0 2 7 4 15 4 8
0 15 -4 15 -10z m2148 -66 c1 -35 -1 -53 -8 -49 -16 10 -12 105 4 105 1 0 2
-25 4 -56z m-2836 27 c4 -3 10 -18 13 -33 9 -35 -4 -36 -55 -2 -21 14 -43 23
-49 20 -11 -7 -25 10 -17 23 6 9 96 3 108 -8z m498 -12 c0 -11 -7 -22 -15 -25
-9 -4 -15 -19 -15 -39 0 -29 -4 -33 -30 -37 -36 -5 -37 -1 -6 41 13 18 30 45
36 62 13 31 30 30 30 -2z m230 -1 c0 -6 -7 -5 -15 2 -8 7 -15 17 -15 22 0 6 7
5 15 -2 8 -7 15 -17 15 -22z m-572 -21 c16 -18 38 -37 48 -43 41 -25 5 -22
-59 4 -66 27 -93 56 -67 72 19 12 46 0 78 -33z m-104 7 c4 -15 4 -29 1 -32 -8
-8 -25 19 -25 41 0 26 17 20 24 -9z m582 4 c19 -20 19 -21 -6 -13 -20 5 -17 1
13 -19 20 -15 37 -32 37 -38 0 -6 -8 -4 -18 5 -21 19 -42 22 -42 6 0 -6 -7 -9
-15 -6 -17 7 -30 -9 -15 -18 8 -5 6 -11 -4 -18 -13 -10 -14 -19 -7 -44 6 -20
6 -33 0 -33 -5 0 -9 5 -9 10 0 6 -7 10 -16 10 -11 0 -14 -6 -9 -22 6 -19 5
-21 -6 -10 -19 17 -34 15 -19 -3 15 -18 31 -110 23 -131 -7 -19 -33 -18 -33 1
0 8 5 15 11 15 8 0 10 12 6 36 -7 41 -32 84 -48 84 -8 0 -8 -4 0 -13 19 -23
42 -87 31 -87 -6 0 -18 19 -27 42 -9 23 -19 36 -21 30 -2 -7 4 -32 13 -57 18
-45 14 -95 -6 -95 -7 0 -9 9 -6 21 3 13 1 19 -6 16 -7 -2 -14 -14 -15 -28 -5
-30 -17 -45 -42 -52 -18 -5 -19 0 -16 79 3 63 0 86 -10 95 -10 8 -11 15 -4 25
8 9 7 26 -3 61 -14 47 -13 73 3 73 4 0 13 -38 20 -85 7 -47 16 -85 20 -85 17
0 20 -34 4 -57 -20 -31 -14 -37 15 -17 19 14 22 22 16 53 -3 20 -7 48 -7 63
-1 15 -5 25 -9 22 -17 -10 -9 5 13 26 13 12 17 20 8 20 -7 0 -19 -8 -26 -17
-11 -15 -13 -16 -14 -2 0 25 25 53 43 46 18 -7 47 36 47 68 0 52 100 84 136
43z m-679 -29 c50 -24 55 -39 14 -39 -35 0 -46 -14 -46 -54 0 -16 -6 -31 -12
-33 -10 -4 -13 15 -13 71 0 42 3 76 7 76 4 0 26 -9 50 -21z m953 -47 c0 -15 5
-44 11 -66 7 -26 7 -42 1 -48 -6 -6 -8 -17 -5 -24 3 -8 -1 -14 -10 -14 -8 0
-50 -34 -93 -76 -130 -125 -157 -144 -197 -144 -27 0 -41 -7 -60 -30 -14 -16
-30 -30 -36 -30 -6 0 -11 -4 -11 -9 0 -20 50 -3 70 22 25 31 48 34 96 11 40
-19 59 -66 51 -130 -5 -49 -39 -89 -89 -106 -35 -13 -51 -2 -16 11 32 12 43
27 62 80 15 45 13 67 -6 55 -6 -4 -8 1 -3 16 6 19 4 22 -11 16 -10 -4 -21 -1
-26 6 -7 10 -11 10 -14 1 -3 -7 -11 -10 -17 -7 -14 5 -32 -53 -41 -129 -3 -26
-17 -68 -31 -92 -25 -45 -25 -45 -6 -76 19 -31 19 -32 -5 -83 -28 -59 -32
-106 -9 -106 9 0 20 12 25 28 6 15 15 36 21 48 6 11 10 27 8 35 -3 16 10 49
20 49 3 0 4 -72 3 -160 -3 -111 0 -160 7 -160 7 0 11 23 12 58 1 31 3 120 5
197 2 89 -1 142 -7 146 -7 4 -4 9 5 12 14 6 16 -6 16 -83 l0 -90 60 0 c33 0
60 -3 60 -8 0 -4 -18 -6 -39 -4 -22 2 -48 -1 -58 -7 -14 -8 -6 -10 39 -11 l56
0 7 -41 c4 -22 5 -42 3 -44 -2 -3 -31 -6 -64 -9 -32 -2 -61 -5 -63 -5 -2 -1 2
-8 9 -16 9 -10 9 -15 1 -15 -8 0 -11 -127 -11 -464 0 -254 -3 -491 -6 -525
l-7 -61 -56 0 c-31 0 -113 3 -183 7 l-127 6 -1 679 c0 512 3 679 12 676 6 -2
13 -15 15 -28 2 -13 8 -29 14 -37 9 -10 7 -13 -10 -13 -25 0 -28 -18 -5 -27 9
-3 20 0 25 8 6 10 9 4 9 -18 0 -22 7 -37 20 -45 11 -7 20 -19 20 -27 0 -8 18
-31 40 -53 32 -30 46 -37 65 -32 33 8 32 22 -3 36 -46 20 -87 71 -84 103 3 25
2 27 -12 16 -13 -11 -17 -11 -22 3 -3 8 1 22 9 31 17 17 47 20 47 5 0 -16 17
-12 24 6 4 9 2 22 -4 29 -6 7 -8 24 -5 38 6 20 2 27 -23 38 -18 8 -28 18 -25
26 3 8 2 13 -3 12 -23 -4 -34 3 -34 21 0 17 3 18 28 9 15 -5 33 -17 39 -26 11
-15 13 -14 20 2 4 11 2 20 -5 23 -7 2 -12 10 -12 18 0 17 -12 18 -27 3 -9 -9
-11 -3 -10 22 2 27 -1 33 -15 31 -12 -2 -20 6 -24 23 -3 14 -12 25 -19 25 -7
0 -15 6 -18 13 -2 7 -16 13 -29 14 -32 3 -62 -54 -49 -91 11 -27 57 -66 78
-66 10 0 13 -6 9 -16 -3 -9 -6 -20 -6 -25 0 -5 -4 -9 -10 -9 -5 0 -9 3 -9 8 3
19 -2 33 -11 27 -5 -3 -26 10 -46 29 -61 59 -62 148 -3 190 32 22 45 20 100
-14 42 -26 54 -28 98 -23 64 7 66 21 4 26 -36 2 -29 4 27 6 67 1 110 15 110
34 0 4 -51 5 -112 2 -62 -2 -102 -1 -88 2 14 2 29 9 35 14 5 5 17 9 27 9 10 0
32 14 50 30 17 17 35 30 39 30 5 0 31 20 59 45 53 47 60 51 60 35 0 -5 -7 -10
-16 -10 -32 0 -6 -25 29 -28 37 -3 52 13 20 21 -11 3 -7 5 10 6 17 1 27 7 27
16 0 10 10 15 34 15 18 0 39 6 46 14 6 8 17 13 25 10 7 -3 16 -1 20 5 3 7 -2
11 -14 11 -12 0 -21 5 -21 10 0 6 13 10 29 10 33 0 51 17 27 26 -9 3 -16 10
-16 15 0 15 26 10 53 -11 30 -24 38 -25 31 -5 -4 8 -12 15 -20 15 -18 0 -18
31 1 56 8 10 15 34 15 52 0 20 4 31 10 27 6 -3 10 -18 10 -33z m-777 16 c14
-12 15 -32 6 -203 -6 -104 -14 -194 -19 -199 -11 -11 -34 36 -50 103 -15 62
-9 228 10 279 13 34 26 39 53 20z m2235 -3 c4 -9 19 -17 33 -18 13 0 29 -8 36
-17 7 -8 13 -11 13 -7 0 17 47 -49 54 -75 8 -33 -4 -37 -22 -7 -11 16 -19 19
-45 14 -18 -4 -36 -12 -42 -19 -5 -6 -23 -19 -38 -29 -18 -12 -26 -24 -23 -33
4 -9 -3 -18 -19 -24 -16 -6 -25 -17 -25 -30 0 -33 -32 -21 -52 18 -9 19 -20
37 -24 40 -4 4 -4 1 0 -5 4 -8 2 -13 -7 -13 -9 0 -14 11 -14 30 0 25 4 29 19
24 13 -4 18 0 18 15 0 14 -5 19 -15 15 -8 -4 -15 -1 -15 5 0 6 5 11 10 11 6 0
10 7 10 15 0 8 5 15 10 15 6 0 10 7 10 15 0 8 5 15 11 15 6 0 9 7 5 15 -6 17
9 21 20 4 4 -7 10 -7 16 -1 6 6 16 8 23 5 10 -3 12 2 8 16 -4 16 -1 21 15 21
12 0 25 -7 30 -15z m-2315 -127 c-3 -87 0 -143 10 -190 8 -38 12 -68 8 -68 -3
0 -20 9 -37 19 -32 20 -54 76 -54 140 0 17 -4 31 -10 31 -13 0 -13 -55 1 -104
11 -40 49 -82 87 -97 28 -11 42 -47 42 -110 l0 -50 -30 16 c-36 18 -55 47 -65
95 -4 19 -12 41 -19 49 -33 41 -47 196 -21 241 8 14 14 43 14 65 0 22 -3 33
-6 25 -2 -8 -11 -29 -19 -46 -8 -18 -18 -63 -22 -100 l-8 -69 -12 40 c-18 61
-14 106 12 138 15 18 21 37 18 52 -5 26 11 33 104 44 9 1 11 -33 7 -121z m747
118 c0 -3 -4 -8 -10 -11 -5 -3 -10 -1 -10 4 0 6 5 11 10 11 6 0 10 -2 10 -4z
m2038 -95 c-2 -72 -5 -98 -14 -94 -17 6 -25 31 -14 38 6 4 10 33 10 65 0 54 6
90 16 90 2 0 3 -44 2 -99z m-2615 65 c5 -8 10 -6 16 4 8 12 11 11 17 -5 5 -13
2 -22 -11 -29 -46 -27 -54 -43 -49 -97 2 -28 8 -57 13 -63 11 -15 25 -67 22
-88 -3 -25 12 -22 24 5 8 18 19 23 58 25 28 2 47 -1 47 -7 0 -6 -12 -11 -27
-12 -27 0 -27 -1 -5 -9 12 -5 22 -14 22 -19 0 -5 3 -16 6 -25 5 -13 -1 -16
-31 -16 -36 0 -37 1 -33 30 3 17 1 30 -3 30 -15 0 -26 -26 -22 -53 2 -19 0
-26 -7 -22 -6 3 -8 10 -5 15 3 5 -4 14 -15 20 -11 6 -20 21 -20 35 0 13 -4 27
-10 30 -6 4 -10 -10 -10 -34 0 -51 2 -56 18 -55 6 1 12 -2 12 -7 0 -5 -9 -9
-19 -9 -47 0 -91 -73 -85 -140 l3 -35 -9 35 c-5 20 -5 49 0 68 4 17 5 32 2 32
-4 0 -2 4 4 8 14 9 34 160 34 262 0 41 3 91 6 111 5 31 9 36 28 31 11 -3 24
-10 29 -16z m526 12 c-1 -7 -5 -24 -9 -38 -7 -22 -8 -21 -9 13 -1 20 4 37 9
37 6 0 10 -6 9 -12z m-124 -58 c3 -5 1 -10 -4 -10 -6 0 -11 5 -11 10 0 6 2 10
4 10 3 0 8 -4 11 -10z m96 -33 c-10 -9 -11 -8 -5 6 3 10 9 15 12 12 3 -3 0
-11 -7 -18z m1769 -66 c22 -72 23 -132 4 -138 -8 -3 -14 21 -19 69 -4 40 -13
81 -20 92 -14 19 -10 46 6 46 5 0 18 -31 29 -69z m-1690 49 c0 -5 -5 -10 -11
-10 -5 0 -7 5 -4 10 3 6 8 10 11 10 2 0 4 -4 4 -10z m1370 -15 c0 -7 -8 -19
-17 -24 -17 -10 -17 -10 0 -11 29 0 14 -25 -18 -28 -26 -3 -28 -2 -14 14 13
16 12 17 -6 12 -15 -4 -20 0 -21 16 -1 15 5 21 22 22 13 1 21 -2 18 -7 -3 -5
2 -9 11 -9 11 0 15 5 11 15 -3 8 -1 15 4 15 6 0 10 -7 10 -15z m270 -29 c24
-53 28 -146 6 -146 -9 0 -15 18 -19 53 -4 28 -9 65 -12 81 -15 72 -5 76 25 12z
m-1705 14 c7 0 15 -7 19 -15 4 -12 -4 -15 -40 -15 -42 0 -44 1 -34 21 7 12 17
18 27 15 8 -3 21 -6 28 -6z m1666 -80 c14 -45 9 -85 -11 -85 -9 0 -15 13 -18
40 -2 22 -9 54 -16 70 -7 17 -11 36 -8 44 6 19 38 -23 53 -69z m153 28 c-17
-39 -19 -40 -25 -17 -4 16 0 31 14 46 29 32 33 20 11 -29z m-1484 28 c0 -3 -4
-8 -10 -11 -5 -3 -10 -1 -10 4 0 6 5 11 10 11 6 0 10 -2 10 -4z m60 -6 c0 -5
-5 -10 -11 -10 -5 0 -7 5 -4 10 3 6 8 10 11 10 2 0 4 -4 4 -10z m-470 -15 c0
-8 -7 -15 -15 -15 -26 0 -18 20 13 29 1 1 2 -6 2 -14z m1590 -55 c4 0 15 -7
26 -16 16 -13 16 -15 2 -10 -25 8 -22 -11 3 -24 28 -15 34 -7 30 40 -4 57 15
49 28 -10 14 -67 14 -67 -11 -66 -36 2 -90 35 -84 52 3 7 -6 26 -19 40 -14 15
-22 31 -18 37 3 5 13 -2 22 -17 8 -14 18 -26 21 -26z m-1882 19 c2 -13 -8 -17
-45 -21 -26 -3 -54 -7 -62 -9 -19 -5 -27 31 -9 42 7 5 35 8 63 7 37 -2 51 -7
53 -19z m442 -63 c0 -3 -4 -8 -10 -11 -5 -3 -10 -1 -10 4 0 6 5 11 10 11 6 0
10 -2 10 -4z m-870 -22 c0 -8 -4 -12 -10 -9 -5 3 -10 10 -10 16 0 5 5 9 10 9
6 0 10 -7 10 -16z m2312 -10 c34 -24 44 -26 95 -20 165 19 172 19 198 2 14 -9
25 -23 25 -31 0 -17 -16 -20 -25 -5 -8 14 -202 13 -207 -1 -4 -13 -98 26 -98
41 0 6 -12 2 -26 -9 -28 -22 -54 -28 -54 -12 0 5 9 11 20 14 11 3 20 10 20 17
0 7 -8 9 -20 5 -14 -5 -20 -2 -20 9 0 25 49 19 92 -10z m-912 6 c0 -5 -4 -10
-9 -10 -6 0 -13 5 -16 10 -3 6 1 10 9 10 9 0 16 -4 16 -10z m-310 -31 c0 -14
-17 -10 -23 5 -4 10 -1 13 9 9 7 -3 14 -9 14 -14z m-130 1 c0 -5 -7 -10 -15
-10 -8 0 -15 5 -15 10 0 6 7 10 15 10 8 0 15 -4 15 -10z m1005 -20 c-20 -22
-35 -26 -35 -10 0 6 6 10 14 10 8 0 17 7 20 16 4 9 9 14 13 10 3 -3 -2 -15
-12 -26z m-1914 -100 c9 -59 48 -160 49 -127 0 11 -7 34 -16 53 -9 19 -14 37
-12 40 3 2 24 -8 47 -23 38 -25 42 -31 37 -58 -18 -105 -26 -116 -45 -67 -10
24 -10 24 -5 2 18 -75 -1 -90 -33 -28 -14 27 -29 86 -38 153 -9 61 -18 124
-21 140 l-5 30 16 -28 c9 -16 21 -55 26 -87z m1141 86 l17 -24 -34 11 c-27 8
-32 13 -24 24 15 18 21 16 41 -11z m818 4 c0 -5 -5 -10 -11 -10 -5 0 -7 5 -4
10 3 6 8 10 11 10 2 0 4 -4 4 -10z m335 -16 c78 -43 87 -46 97 -36 6 6 1 12
-16 16 -55 14 -24 26 65 26 89 0 90 0 83 -22 -7 -22 -6 -22 20 -5 15 10 30 15
35 13 5 -3 14 1 21 9 34 40 106 -1 116 -66 7 -43 -11 -115 -31 -123 -9 -3 -12
-12 -8 -22 5 -12 3 -15 -6 -9 -8 4 -16 3 -20 -4 -4 -6 -21 -14 -39 -17 -29 -6
-32 -4 -32 18 0 13 4 28 9 34 6 5 11 29 13 54 2 32 7 45 18 45 21 0 25 -58 6
-75 -9 -7 -16 -16 -16 -21 0 -17 21 -9 45 16 21 23 26 62 16 115 -1 3 -19 6
-41 7 -28 2 -40 -1 -40 -11 0 -8 -7 -16 -15 -20 -8 -3 -15 -9 -14 -13 1 -4 1
-19 0 -32 -1 -24 -1 -24 -16 -5 -13 18 -14 16 -15 -21 -1 -22 -4 -34 -7 -27
-7 17 -20 15 -27 -5 -3 -10 -9 -24 -12 -31 -4 -10 2 -9 20 3 39 26 42 12 7
-26 -25 -25 -29 -37 -24 -58 4 -14 7 -38 6 -53 -1 -15 2 -30 7 -33 6 -4 10 5
10 19 0 14 5 26 11 26 13 0 32 19 48 49 7 12 15 20 18 18 6 -7 -27 -59 -44
-70 -7 -4 -13 -21 -13 -36 0 -15 -3 -31 -7 -34 -3 -4 -8 -21 -10 -39 -7 -66
-41 -75 -96 -25 -27 25 -35 39 -30 55 6 24 -6 29 -25 10 -9 -9 -12 -9 -14 3
-5 53 -34 116 -65 144 -31 27 -29 35 7 35 27 0 30 -3 25 -23 -9 -33 33 -70 69
-61 29 7 46 26 28 32 -6 2 -8 11 -5 19 5 12 2 15 -10 10 -19 -7 -20 -6 -11 17
3 9 12 12 22 9 12 -5 14 -2 9 11 -4 10 -7 22 -7 28 0 6 -7 8 -15 4 -11 -4 -15
1 -15 19 0 14 -4 25 -10 25 -5 0 -10 -15 -10 -34 0 -19 -5 -38 -12 -42 -8 -5
-9 -2 -5 11 11 27 -3 115 -19 115 -7 0 -16 9 -19 21 -5 13 -12 18 -23 14 -8
-3 -19 0 -23 7 -6 9 -11 8 -25 -3 -9 -8 -20 -13 -23 -12 -3 1 -5 -5 -3 -13 2
-8 -1 -14 -5 -14 -8 0 -9 -30 -5 -67 1 -6 14 -26 28 -43 20 -23 24 -34 16 -42
-8 -8 -14 -4 -21 14 -5 15 -14 29 -20 32 -19 12 -44 112 -37 148 10 55 71 74
131 42z m-625 -20 c0 -9 -5 -14 -12 -12 -18 6 -21 28 -4 28 9 0 16 -7 16 -16z
m380 -4 c0 -5 -4 -10 -10 -10 -5 0 -10 5 -10 10 0 6 5 10 10 10 6 0 10 -4 10
-10z m-1010 -15 c0 -8 -4 -15 -10 -15 -5 0 -10 7 -10 15 0 8 5 15 10 15 6 0
10 -7 10 -15z m-1060 -320 c6 -121 14 -246 19 -277 12 -91 -2 -78 -21 19 -13
61 -20 155 -24 302 -3 118 -7 218 -10 223 -4 5 -12 7 -20 4 -8 -3 -14 1 -14 8
0 9 7 12 20 9 16 -4 20 0 21 18 4 56 18 -102 29 -306z m2865 263 c8 -69 3
-140 -11 -145 -14 -5 -54 57 -54 83 0 22 42 114 52 114 3 0 9 -24 13 -52z
m-551 -49 c4 -28 4 -54 1 -57 -3 -3 -18 3 -33 15 -19 14 -28 31 -30 56 -3 35
-2 37 26 37 28 0 30 -3 36 -51z m-2345 -419 c5 -30 17 -76 25 -102 10 -31 18
-121 23 -260 8 -219 9 -525 2 -532 -2 -3 -18 -7 -34 -11 -21 -5 -26 -4 -16 3
23 17 33 231 14 324 -14 71 -14 81 1 118 20 49 20 60 2 60 -9 0 -15 21 -20 70
-4 39 -11 70 -16 70 -5 0 -8 155 -8 358 1 337 2 346 9 157 4 -110 12 -225 18
-255z m345 428 c22 -31 20 -58 -3 -58 -22 0 -66 55 -56 70 11 17 43 11 59 -12z
m368 -13 c-4 -37 -19 -55 -44 -55 -14 0 -18 5 -14 16 3 9 6 29 6 45 0 27 3 30
28 27 24 -3 27 -7 24 -33z m193 5 c-3 -5 -11 -10 -16 -10 -6 0 -7 5 -4 10 3 6
11 10 16 10 6 0 7 -4 4 -10z m-35 -14 c0 -7 -6 -19 -14 -25 -11 -9 -12 -6 -8
14 5 26 22 35 22 11z m-615 -102 l23 -22 4 -693 c1 -382 -1 -700 -6 -707 -5
-8 -17 -11 -29 -8 -12 3 -25 -1 -31 -9 -14 -18 -72 -33 -62 -16 4 6 1 11 -9
11 -9 0 -15 -7 -13 -16 2 -11 -10 -21 -37 -30 -40 -14 -75 -29 -107 -45 -16
-8 -18 -4 -18 41 0 38 4 50 15 50 8 0 15 5 15 10 0 6 -7 10 -15 10 -9 0 -15 9
-15 21 0 22 8 22 53 4 17 -7 21 6 20 53 -1 6 4 13 11 13 31 4 57 6 128 7 68 2
77 4 83 23 9 27 1 34 -18 15 -17 -17 -150 -20 -180 -4 -12 6 -17 5 -15 -4 2
-9 -11 -14 -40 -16 -42 -3 -48 2 -36 32 6 15 7 15 18 1 7 -10 18 -14 29 -9 13
5 15 10 7 20 -13 14 2 18 114 29 61 6 86 18 86 40 0 7 10 15 21 18 21 6 22 9
16 134 -4 70 -9 162 -11 203 -3 47 -2 62 3 40 4 -19 7 144 7 362 -1 219 -4
398 -7 398 -4 0 -10 -41 -14 -92 -8 -96 -18 -99 -29 -8 -4 30 -14 88 -22 128
-8 40 -12 82 -9 93 6 18 9 16 27 -18 10 -21 30 -48 43 -59z m1215 21 c0 -8 -4
-15 -10 -15 -5 0 -10 7 -10 15 0 8 5 15 10 15 6 0 10 -7 10 -15z m687 9 c-3
-3 -12 -4 -19 -1 -8 3 -5 6 6 6 11 1 17 -2 13 -5z m-1973 -96 c4 -46 13 -101
20 -123 11 -32 12 -75 3 -223 -8 -139 -8 -185 1 -194 9 -9 12 5 13 63 1 73 15
193 18 154 9 -113 12 -367 4 -362 -11 7 -6 -142 8 -222 5 -30 9 -83 9 -118 0
-62 -1 -64 -29 -74 -16 -6 -31 -19 -34 -30 -3 -11 -14 -19 -25 -19 -20 0 -20
6 -21 233 l-1 232 22 -35 c22 -33 23 -45 22 -193 -1 -90 2 -155 7 -150 9 9 15
198 11 352 -1 50 2 89 9 97 9 11 7 15 -4 20 -31 11 -50 110 -44 223 5 91 4
109 -14 142 -11 22 -22 60 -25 86 -3 27 -10 61 -16 76 -8 20 -8 31 0 39 15 15
31 -20 36 -76 4 -53 11 -66 21 -37 3 11 -1 45 -9 77 -14 55 -12 159 4 149 4
-2 10 -42 14 -87z m1062 55 c-7 -7 -26 7 -26 19 0 6 6 6 15 -2 9 -7 13 -15 11
-17z m1174 -12 c-1 -13 -3 -13 -15 3 -19 26 -19 42 0 26 8 -7 15 -20 15 -29z
m453 24 c18 -13 19 -42 24 -469 5 -372 4 -458 -7 -471 -11 -14 -11 -18 -1 -25
11 -6 11 -15 1 -44 -6 -20 -11 -55 -10 -78 3 -65 1 -70 -17 -66 -14 2 -16 14
-14 73 2 48 8 76 19 88 11 12 13 21 6 25 -8 5 -8 31 -3 82 16 137 11 405 -11
600 -11 95 -18 300 -10 300 3 0 13 -7 23 -15z m-838 -5 c3 -5 -1 -10 -9 -10
-9 0 -16 5 -16 10 0 6 4 10 9 10 6 0 13 -4 16 -10z m561 -25 c-18 -28 -36 -33
-36 -11 0 15 40 49 48 41 3 -2 -3 -16 -12 -30z m-602 -4 c-2 -3 -12 3 -22 13
-16 17 -16 18 5 5 12 -7 20 -15 17 -18z m-74 9 c0 -5 -5 -10 -11 -10 -5 0 -7
5 -4 10 3 6 8 10 11 10 2 0 4 -4 4 -10z m748 -37 c-12 -14 -17 -59 -21 -222
-6 -178 -5 -202 8 -185 13 17 14 -1 15 -148 0 -106 -4 -168 -10 -168 -5 0 -10
21 -10 47 0 77 -13 39 -15 -44 -1 -43 -5 -114 -10 -157 -6 -59 -5 -77 3 -72 7
4 12 26 13 49 0 23 4 51 9 62 6 12 7 -82 3 -240 -3 -143 -7 -263 -9 -267 -2
-3 -80 -6 -173 -7 l-169 0 -7 64 c-3 35 -4 115 -1 177 12 226 16 586 7 590 -6
2 -3 27 5 58 8 30 15 99 15 152 0 54 5 100 10 103 5 4 9 42 9 85 0 43 5 82 10
85 7 4 8 -33 3 -111 -5 -88 -3 -115 5 -110 7 4 12 32 12 66 0 94 5 98 57 45
39 -39 50 -45 87 -45 41 0 45 3 75 51 17 28 37 75 43 103 12 59 26 82 41 67 7
-7 6 -16 -5 -28z m-2580 -35 c29 -77 45 -194 31 -220 -8 -15 -10 -59 -5 -137
8 -146 16 -460 10 -406 -13 126 -38 266 -45 253 -4 -8 -3 -43 2 -79 17 -108
28 -267 28 -406 1 -113 -1 -133 -14 -133 -9 0 -17 6 -20 13 -7 25 -12 681 -4
657 5 -16 7 0 4 45 -2 39 -7 120 -11 180 -3 61 -10 130 -15 155 -11 47 -3 143
11 135 4 -2 17 -28 28 -57z m339 16 c-10 -10 -48 27 -41 38 4 6 16 1 27 -11
12 -11 18 -24 14 -27z m1180 4 c-17 -10 -31 7 -23 28 6 16 8 16 20 -2 11 -14
11 -21 3 -26z m178 12 c-17 -32 -35 -32 -35 0 0 18 12 28 38 29 9 1 9 -6 -3
-29z m412 -15 c13 -22 23 -57 23 -79 l0 -39 -25 27 c-29 31 -65 46 -108 45
-31 -1 -31 -1 8 -10 22 -5 44 -14 49 -19 5 -5 0 -34 -14 -72 -26 -72 -40 -94
-50 -78 -4 6 -11 0 -18 -16 -10 -21 -10 -25 0 -20 7 3 20 9 29 12 8 3 23 24
33 47 9 23 25 60 36 82 16 36 18 37 19 14 1 -14 -10 -47 -24 -74 -13 -27 -21
-53 -18 -58 3 -5 14 8 24 30 32 64 49 89 48 73 0 -8 -6 -26 -14 -40 -8 -14
-14 -39 -15 -56 0 -18 -8 -39 -20 -49 -11 -10 -17 -22 -14 -26 3 -5 -2 -12
-10 -15 -9 -3 -16 -12 -16 -19 0 -8 -11 -27 -25 -43 -18 -22 -31 -29 -47 -24
-13 3 -19 1 -15 -5 4 -7 -8 -9 -33 -8 -49 3 -54 -17 -9 -35 26 -11 32 -11 39
1 15 23 22 3 9 -25 -14 -30 -22 -32 -39 -11 -13 16 -40 20 -40 7 0 -5 11 -15
25 -22 30 -16 30 -15 3 -87 -12 -32 -23 -62 -24 -68 -10 -46 -55 -198 -68
-227 -17 -39 -36 -50 -36 -21 0 15 -1 15 -12 1 -7 -9 -20 -18 -28 -21 -8 -3 2
-6 22 -6 39 -1 80 -33 76 -57 -2 -7 6 -20 17 -28 16 -12 17 -17 7 -24 -11 -8
-11 -10 2 -15 8 -3 20 -16 26 -28 12 -21 11 -21 -26 -16 -38 6 -38 6 8 -10 71
-24 70 -42 -1 -36 -38 4 -66 1 -82 -8 -13 -7 -33 -14 -43 -16 -11 -2 -26 -9
-33 -15 -10 -8 -17 -8 -25 0 -16 16 -2 29 60 62 69 35 55 40 -19 5 l-53 -24
-32 34 c-41 45 -65 46 -31 2 13 -18 34 -55 46 -82 22 -51 67 -96 118 -116 15
-7 43 -18 61 -25 17 -8 47 -20 65 -28 77 -32 88 -35 102 -30 8 4 15 7 15 9 0
15 -34 93 -47 107 -22 24 -70 23 -112 -3 -25 -15 -43 -19 -68 -14 -42 8 -36
18 29 51 41 21 60 25 91 20 l40 -7 -6 35 c-3 19 -3 37 0 40 13 13 87 -41 181
-134 l66 -65 200 0 201 0 108 -54 c59 -29 106 -55 104 -57 -2 -2 -75 -4 -163
-4 -87 0 -170 0 -184 -1 -44 -3 -106 -3 -627 -1 -438 2 -513 4 -513 16 0 8 14
38 32 66 39 63 82 209 80 273 l-1 49 67 -4 c64 -3 67 -2 64 19 -2 13 9 50 24
83 14 33 24 69 21 80 -3 11 1 23 8 28 12 7 35 141 35 209 0 39 -15 36 -25 -5
-7 -30 -42 -78 -51 -69 -4 3 5 26 20 51 14 24 26 52 26 60 0 9 7 16 15 16 8 0
15 7 15 15 0 8 5 15 11 15 22 0 1 -243 -29 -337 -8 -26 -7 -35 9 -52 10 -11
15 -22 10 -25 -5 -3 -15 1 -22 10 -12 14 -14 13 -21 -6 -5 -14 -4 -28 3 -36 6
-7 8 -18 4 -24 -3 -5 1 -13 10 -16 9 -4 21 -17 26 -30 9 -26 29 -33 29 -11 0
16 83 47 130 48 34 1 34 1 8 9 -26 8 -109 -7 -137 -24 -6 -4 -11 0 -11 9 0 16
47 41 105 55 l30 8 -35 1 c-23 1 -49 -8 -72 -24 -44 -30 -48 -30 -48 -6 0 11
12 29 28 42 23 18 24 20 5 15 -33 -10 -36 9 -9 53 14 22 23 47 20 56 -8 21 4
67 16 60 12 -8 26 27 55 135 12 47 25 96 29 110 6 19 5 21 -3 10 -9 -13 -11
-12 -10 5 0 11 6 38 14 60 13 39 13 39 14 10 l2 -30 14 34 c8 18 15 44 15 58
0 15 4 22 11 17 7 -4 10 1 7 12 -2 10 -14 24 -28 31 -14 7 -24 18 -22 24 4 15
-28 50 -39 43 -10 -6 -12 21 -3 64 3 17 13 33 21 36 11 5 13 2 8 -11 -20 -47
-17 -63 20 -113 21 -28 39 -49 42 -46 2 2 -9 23 -26 47 -17 23 -31 48 -31 55
0 28 18 21 46 -16 17 -23 35 -38 44 -36 8 2 28 7 43 10 15 4 25 11 22 16 -3 5
-1 19 5 31 7 11 9 23 6 26 -3 3 -10 -6 -15 -20 -9 -23 -31 -46 -31 -32 0 3 9
23 20 45 23 45 24 50 10 50 -6 0 -15 -11 -20 -25 -5 -14 -17 -25 -26 -25 -12
0 -14 -6 -9 -30 8 -37 3 -38 -29 -3 -48 52 -23 129 66 206 115 100 148 108
185 42z m-1569 15 c-11 -18 -28 -27 -28 -16 0 16 14 36 26 36 12 0 12 -4 2
-20z m1042 10 c0 -5 -4 -10 -10 -10 -5 0 -10 5 -10 10 0 6 5 10 10 10 6 0 10
-4 10 -10z m647 -22 c-3 -8 -6 -5 -6 6 -1 11 2 17 5 13 3 -3 4 -12 1 -19z
m-30 -10 c-3 -8 -6 -5 -6 6 -1 11 2 17 5 13 3 -3 4 -12 1 -19z m-1487 -23 c-7
-13 -20 -26 -29 -29 -9 -3 -4 -4 12 -2 24 3 27 0 27 -25 0 -28 -2 -29 -49 -29
-28 0 -53 5 -56 10 -4 6 13 10 44 10 28 0 51 3 51 8 0 4 -22 5 -50 4 -31 -3
-50 0 -50 7 0 12 101 83 109 76 2 -3 -2 -16 -9 -30z m-402 -7 c-6 -18 -28 -21
-28 -4 0 9 7 16 16 16 9 0 14 -5 12 -12z m1397 -48 c3 -5 -1 -10 -9 -10 -8 0
-18 5 -21 10 -3 6 1 10 9 10 8 0 18 -4 21 -10z m906 -265 c-8 -59 -9 -58 -10
41 0 56 2 130 7 165 7 62 7 62 10 -41 1 -58 -2 -132 -7 -165z m-384 203 c-2
-13 -4 -5 -4 17 -1 22 1 32 4 23 2 -10 2 -28 0 -40z m-464 1 c-17 -17 -37 -1
-22 17 8 10 15 12 23 4 7 -7 7 -13 -1 -21z m-1609 -81 c-9 -59 -14 -60 -14 -5
0 26 5 47 10 47 6 0 8 -16 4 -42z m1421 33 c7 -12 -12 -24 -25 -16 -11 7 -4
25 10 25 5 0 11 -4 15 -9z m-1510 -172 c1 -116 4 -140 23 -183 23 -50 26 -75
16 -113 -9 -33 -20 -28 -38 17 -23 57 -36 425 -15 418 11 -4 14 -32 14 -139z
m630 81 c-11 -5 -31 -9 -45 -9 -20 -1 -22 1 -10 9 8 5 29 9 45 9 26 0 27 -2
10 -9z m865 -55 c-7 -8 -17 -15 -22 -15 -6 0 -5 7 2 15 7 8 17 15 22 15 6 0 5
-7 -2 -15z m-1593 -77 c-3 -8 -6 -5 -6 6 -1 11 2 17 5 13 3 -3 4 -12 1 -19z
m1710 -80 c-6 -24 -13 -36 -15 -27 -3 15 14 69 22 69 2 0 -1 -19 -7 -42z m71
-3 c-3 -3 -9 2 -12 12 -6 14 -5 15 5 6 7 -7 10 -15 7 -18z m869 -312 c-3 -178
-8 -327 -11 -330 -15 -16 12 -21 82 -16 80 6 93 13 85 44 -4 13 0 19 10 19 12
0 16 -14 19 -60 4 -72 3 -72 -107 -69 -60 2 -80 -1 -80 -11 0 -10 20 -13 83
-11 46 1 90 5 98 8 8 3 14 -1 14 -11 0 -9 -6 -16 -14 -16 -7 0 -20 -7 -27 -17
-13 -15 -11 -16 13 -10 23 6 27 4 26 -15 -1 -13 -6 -29 -11 -35 -6 -9 -6 -13
1 -13 6 0 10 -17 9 -39 -1 -30 -5 -38 -17 -33 -34 13 -59 34 -53 48 6 17 -8
19 -24 3 -9 -9 -19 -6 -41 10 -16 11 -42 25 -57 31 l-28 11 7 252 c3 138 7
329 8 424 1 100 6 169 11 166 5 -3 7 -140 4 -330z m-1480 291 c-3 -3 -12 -4
-19 -1 -8 3 -5 6 6 6 11 1 17 -2 13 -5z m578 -44 c-9 -41 -17 -33 -9 9 4 17 9
30 11 27 3 -2 2 -19 -2 -36z m-685 -43 c0 -4 12 -1 28 6 15 8 39 17 55 21 15
3 27 11 27 16 0 23 16 8 18 -17 4 -54 39 -127 66 -141 14 -7 26 -20 26 -28 0
-17 20 -19 21 -1 0 6 7 -6 15 -28 15 -42 30 -62 39 -53 3 3 1 17 -4 32 -6 14
-7 26 -2 26 5 0 14 -14 20 -31 9 -27 8 -34 -7 -45 -9 -7 -33 -14 -52 -14 -19
0 -55 -7 -80 -16 -44 -15 -45 -15 -65 10 -12 14 -31 26 -43 26 -29 0 -28 17 1
23 l22 4 -22 8 c-13 4 -20 11 -17 16 7 11 -20 92 -50 149 -13 25 -27 56 -30
70 l-7 25 20 -25 c11 -14 21 -28 21 -33z m1133 31 c-13 -12 -26 -19 -29 -15
-4 4 1 14 12 22 29 22 41 18 17 -7z m-2263 -116 c-7 -27 -5 -58 7 -118 12 -62
13 -91 5 -120 l-10 -39 -1 56 c-1 31 -7 76 -14 100 -9 29 -12 75 -9 133 5 86
5 88 18 56 11 -24 12 -42 4 -68z m1834 41 c-4 -26 -13 -61 -20 -78 -16 -36
-18 -23 -3 25 5 19 10 50 11 68 0 17 4 32 10 32 5 0 6 -19 2 -47z m-37 15 c-3
-8 -6 -5 -6 6 -1 11 2 17 5 13 3 -3 4 -12 1 -19z m-747 -24 c0 -8 -4 -12 -10
-9 -5 3 -10 10 -10 16 0 5 5 9 10 9 6 0 10 -7 10 -16z m-48 -61 c28 -25 22
-33 -12 -16 -17 8 -28 19 -25 24 9 13 16 11 37 -8z m763 -152 c-3 -12 -11 -21
-16 -21 -6 0 -8 3 -6 8 2 4 7 16 11 26 9 25 20 13 11 -13z m-1788 -148 c-2
-32 -3 -8 -3 52 0 61 1 87 3 58 2 -29 2 -78 0 -110z m1503 110 c0 -13 -3 -13
-15 -3 -8 7 -15 19 -15 27 0 13 3 13 15 3 8 -7 15 -19 15 -27z m-1333 -95 c-2
-24 -4 -5 -4 42 0 47 2 66 4 43 2 -24 2 -62 0 -85z m1189 103 c-21 -10 -42
-24 -47 -32 -6 -10 -9 -10 -9 -1 0 22 39 52 68 52 26 -1 25 -2 -12 -19z m94
-16 l23 -25 -56 0 c-64 0 -79 12 -40 33 39 21 47 20 73 -8z m-9 -45 c5 0 9 -4
9 -10 0 -5 -15 -10 -34 -10 -18 0 -53 -7 -76 -15 -50 -18 -58 -15 -30 10 21
19 85 36 108 29 8 -2 18 -4 23 -4z m63 -16 c9 -22 -3 -32 -14 -14 -12 19 -12
30 -1 30 5 0 12 -7 15 -16z m-15 -43 c15 -12 25 -31 28 -56 l4 -37 -26 30
c-15 18 -40 34 -59 37 -36 7 -128 -16 -134 -33 -2 -8 6 -8 30 0 18 6 53 13 78
15 43 4 47 3 79 -37 36 -45 36 -60 -1 -36 -13 8 -47 20 -76 26 -48 11 -55 10
-97 -13 -25 -14 -47 -22 -50 -18 -4 8 10 60 25 91 9 19 95 49 140 49 19 0 46
-8 59 -18z m-234 -68 c-16 -40 -17 -56 -5 -115 13 -66 52 -137 113 -203 20
-22 37 -43 37 -47 0 -8 -171 -10 -795 -9 -512 0 -540 0 -530 10 6 4 44 21 85
35 41 15 84 31 95 36 48 21 79 23 235 21 91 -1 186 1 212 4 42 6 47 9 52 38 4
18 19 46 34 63 31 35 96 84 111 84 6 0 11 4 11 8 0 14 187 73 270 85 64 10 82
8 75 -10z m201 -55 c25 -11 48 -28 51 -36 3 -8 -2 -38 -11 -68 -16 -52 -18
-54 -44 -47 -39 11 -100 7 -118 -8 -11 -9 -18 -9 -26 -1 -19 19 -1 39 47 56
42 14 51 14 83 1 41 -18 50 -14 26 10 -14 14 -29 16 -71 12 -29 -3 -67 -12
-83 -21 -28 -14 -30 -13 -30 5 0 14 13 26 43 39 54 25 85 25 122 0 32 -21 45
-25 45 -12 0 13 -58 43 -93 47 -22 3 -50 -3 -77 -16 -45 -22 -61 -19 -40 6 18
21 75 47 123 54 4 0 28 -9 53 -21z m562 -24 c33 -23 27 -34 -18 -34 -23 0 -63
-11 -95 -27 l-55 -27 -22 21 -21 22 54 24 c88 40 123 45 157 21z m-1968 -104
c0 -21 -8 -24 -34 -14 -25 10 -19 34 9 34 18 0 25 -5 25 -20z m2020 -5 c7 -9
10 -18 7 -22 -4 -3 3 -19 14 -35 12 -16 19 -31 17 -33 -8 -8 -78 16 -78 27 0
6 8 17 18 25 16 13 15 14 -8 8 -69 -19 -96 -1 -40 27 43 22 54 22 70 3z m-626
-35 c14 -5 26 -16 26 -24 0 -12 -4 -12 -31 1 -23 11 -36 13 -52 5 -21 -10 -20
-11 9 -11 44 -1 55 -17 35 -52 -19 -34 -31 -36 -51 -8 -8 11 -23 30 -32 41
-10 12 -18 25 -18 29 0 25 69 37 114 19z m-1244 -201 c0 -10 5 -19 10 -19 6 0
10 9 10 20 0 11 5 20 10 20 6 0 10 -20 10 -44 0 -30 5 -46 15 -50 12 -4 15 5
15 51 0 80 19 56 26 -33 7 -90 12 -114 24 -114 7 0 8 34 4 95 -5 69 -4 95 5
95 7 0 11 -20 11 -55 0 -42 3 -55 15 -55 12 0 15 13 15 55 0 53 11 72 24 40 6
-16 0 -114 -11 -175 l-7 -35 -5 38 c-7 47 -26 45 -27 -3 l0 -35 -172 -3 -172
-2 0 95 c0 98 1 100 42 96 12 -2 18 5 18 18 0 12 5 21 10 21 6 0 10 -11 10
-25 0 -24 15 -35 22 -15 2 5 13 7 26 4 18 -5 22 -13 22 -45 0 -22 5 -39 10
-39 6 0 10 26 10 58 0 32 3 62 6 65 11 10 24 -3 24 -24z m2723 -3 c-1 -17 2
-35 7 -40 6 -8 -12 -10 -58 -6 l-67 4 55 6 c30 4 44 7 31 8 -20 2 -22 5 -13
14 17 17 15 28 -7 28 -11 0 -23 5 -26 11 -5 7 8 9 37 7 41 -3 43 -4 41 -32z
m-2484 -98 c1 -52 5 -88 11 -88 11 0 16 72 12 158 -2 31 1 52 7 52 7 0 11 -38
11 -104 0 -59 4 -108 10 -111 10 -6 13 26 14 149 1 38 5 61 14 63 7 3 12 -4
12 -16 0 -12 5 -21 10 -21 6 0 10 9 10 20 0 11 5 20 10 20 6 0 10 -7 10 -15 0
-8 5 -15 10 -15 6 0 10 7 10 15 0 12 13 15 55 15 42 0 55 -3 55 -15 0 -8 5
-15 10 -15 6 0 10 7 10 15 0 20 26 19 34 -1 3 -9 6 -51 6 -94 0 -43 5 -82 10
-85 6 -4 10 30 10 94 0 83 3 101 15 101 12 0 15 -17 15 -94 0 -71 4 -97 15
-106 13 -11 15 0 15 94 0 64 4 106 10 106 6 0 10 -38 11 -92 0 -51 2 -103 5
-115 l4 -23 -229 0 c-209 0 -262 6 -231 25 6 3 10 51 11 108 0 66 3 95 9 82 5
-11 9 -59 9 -107z m2414 95 c-7 -2 -21 -2 -30 0 -10 3 -4 5 12 5 17 0 24 -2
18 -5z m-90 -40 c-7 -2 -19 -2 -25 0 -7 3 -2 5 12 5 14 0 19 -2 13 -5z"/>
<g>
<path d="M2530 4515 c-11 -20 -10 -28 4 -50 9 -14 23 -25 31 -25 19 0 19 16 0
24 -8 3 -15 16 -15 28 1 20 2 21 11 6 15 -26 32 -22 23 5 -6 20 -21 36 -35 37
-3 0 -12 -11 -19 -25z"/>
</g>
<g>
<path d="M1445 4324 c-30 -30 -12 -67 31 -62 23 2 30 9 32 29 4 34 -39 57 -63
33z m48 -16 c7 -21 -4 -38 -24 -38 -14 0 -19 7 -19 25 0 18 5 25 19 25 11 0
21 -6 24 -12z"/>
</g>
<g>
<path d="M2180 4194 c0 -74 4 -113 10 -109 6 4 10 53 10 116 0 66 -4 109 -10
109 -6 0 -10 -45 -10 -116z"/>
</g>
<g>
<path d="M1905 4290 c3 -5 8 -10 11 -10 2 0 4 5 4 10 0 6 -5 10 -11 10 -5 0
-7 -4 -4 -10z"/>
</g>
<g>
<path d="M1820 4200 c0 -5 5 -10 10 -10 6 0 10 5 10 10 0 6 -4 10 -10 10 -5 0
-10 -4 -10 -10z"/>
</g>
<g>
<path d="M2180 3978 c0 -7 5 -20 10 -28 8 -12 10 -9 10 13 0 15 -4 27 -10 27
-5 0 -10 -6 -10 -12z"/>
</g>
<g>
<path d="M1980 3950 c0 -5 5 -10 10 -10 6 0 10 5 10 10 0 6 -4 10 -10 10 -5 0
-10 -4 -10 -10z"/>
</g>
<g>
<path d="M1870 3870 c0 -5 5 -10 10 -10 6 0 10 5 10 10 0 6 -4 10 -10 10 -5 0
-10 -4 -10 -10z"/>
</g>
<g>
<path d="M2040 3810 c0 -5 5 -10 10 -10 6 0 10 5 10 10 0 6 -4 10 -10 10 -5 0
-10 -4 -10 -10z"/>
</g>
<g>
<path d="M2140 3760 c0 -5 5 -10 10 -10 6 0 10 5 10 10 0 6 -4 10 -10 10 -5 0
-10 -4 -10 -10z"/>
</g>
<g>
<path d="M1589 4314 c-17 -21 0 -49 32 -49 27 0 37 28 19 50 -16 19 -34 19
-51 -1z m43 -26 c-12 -12 -35 -1 -27 12 3 5 13 6 21 3 10 -4 12 -9 6 -15z"/>
</g>
<g>
<path d="M1290 3964 c0 -8 5 -12 10 -9 6 3 10 10 10 16 0 5 -4 9 -10 9 -5 0
-10 -7 -10 -16z"/>
</g>
<g>
<path d="M1326 3971 c-13 -20 -25 -62 -17 -57 5 3 14 19 19 36 10 29 9 40 -2
21z"/>
</g>
<g>
<path d="M1378 3943 c-24 -28 -32 -63 -15 -63 8 0 18 11 21 24 3 14 13 32 22
40 13 13 13 16 1 16 -8 0 -21 -8 -29 -17z"/>
</g>
<g>
<path d="M1390 3854 c0 -19 -4 -25 -15 -21 -22 9 -26 -7 -19 -63 8 -59 19 -57
19 3 0 30 4 42 14 42 9 0 15 12 17 33 1 17 -2 32 -7 32 -5 0 -9 -12 -9 -26z"/>
</g>
<g>
<path d="M1420 3850 c0 -11 5 -20 10 -20 6 0 10 9 10 20 0 11 -4 20 -10 20 -5
0 -10 -9 -10 -20z"/>
</g>
<g>
<path d="M1551 3851 c-1 -16 -5 -21 -16 -17 -10 4 -15 -1 -15 -14 0 -11 5 -20
10 -20 6 0 10 5 10 11 0 8 4 8 13 1 8 -7 17 -7 30 2 18 14 24 46 7 46 -5 0
-10 -7 -10 -15 0 -23 -18 -18 -23 8 -4 22 -4 22 -6 -2z"/>
</g>
<g>
<path d="M1454 3813 c3 -21 6 -51 7 -68 l1 -30 7 30 c8 40 1 105 -11 105 -7 0
-8 -15 -4 -37z"/>
</g>
<g>
<path d="M1480 3816 c0 -15 18 -31 26 -23 7 7 -7 37 -17 37 -5 0 -9 -6 -9 -14z"/>
</g>
<g>
<path d="M1397 3787 c-10 -26 -9 -95 2 -101 14 -9 18 15 12 69 -4 35 -8 45
-14 32z"/>
</g>
<g>
<path d="M1597 3787 c-6 -16 9 -75 17 -66 2 2 1 22 -3 44 -5 29 -9 35 -14 22z"/>
</g>
<g>
<path d="M1560 3741 c0 -16 5 -33 10 -36 6 -4 10 6 10 24 0 16 -4 33 -10 36
-6 4 -10 -6 -10 -24z"/>
</g>
<g>
<path d="M1497 3753 c-11 -10 -8 -71 3 -78 6 -4 10 12 10 39 0 47 -2 51 -13
39z"/>
</g>
<g>
<path d="M1423 3662 c-3 -12 -9 -22 -14 -22 -5 0 -9 -7 -9 -16 0 -26 23 -10
32 21 4 16 5 31 2 34 -3 3 -7 -5 -11 -17z"/>
</g>
<g>
<path d="M1450 3665 c0 -8 5 -15 10 -15 6 0 10 7 10 15 0 8 -4 15 -10 15 -5 0
-10 -7 -10 -15z"/>
</g>
<g>
<path d="M1494 3548 c2 -79 8 -109 20 -97 2 2 -2 45 -9 94 l-14 90 3 -87z"/>
</g>
<g>
<path d="M1530 3601 c0 -17 5 -31 10 -31 6 0 10 11 10 24 0 14 -4 28 -10 31
-6 4 -10 -7 -10 -24z"/>
</g>
<g>
<path d="M1412 3550 c0 -19 3 -44 8 -55 7 -17 9 -15 8 10 0 17 -4 41 -8 55 -7
23 -8 22 -8 -10z"/>
</g>
<g>
<path d="M1421 3421 c-1 -36 2 -52 9 -45 6 6 6 26 1 54 l-9 45 -1 -54z"/>
</g>
<g>
<path d="M1540 3410 c0 -25 4 -39 10 -35 6 3 10 19 10 35 0 16 -4 32 -10 35
-6 4 -10 -10 -10 -35z"/>
</g>
<g>
<path d="M1475 3348 c7 -73 10 -86 20 -76 9 9 -7 148 -18 148 -6 0 -7 -27 -2
-72z"/>
</g>
<g>
<path d="M640 2809 c0 -5 5 -7 10 -4 6 3 10 8 10 11 0 2 -4 4 -10 4 -5 0 -10
-5 -10 -11z"/>
</g>
<g>
<path d="M1025 2779 c-4 -6 -5 -13 -2 -16 7 -7 27 6 27 18 0 12 -17 12 -25 -2z"/>
</g>
<g>
<path d="M695 2539 c-10 -15 3 -25 16 -12 7 7 7 13 1 17 -6 3 -14 1 -17 -5z"/>
</g>
<g>
<path d="M630 2510 c0 -5 5 -10 10 -10 6 0 10 5 10 10 0 6 -4 10 -10 10 -5 0
-10 -4 -10 -10z"/>
</g>
<g>
<path d="M610 2400 c0 -5 7 -10 15 -10 8 0 15 5 15 10 0 6 -7 10 -15 10 -8 0
-15 -4 -15 -10z"/>
</g>
<g>
<path d="M653 2276 c4 -9 2 -16 -3 -16 -6 0 -10 -13 -10 -30 0 -33 7 -37 35
-16 16 12 18 19 10 42 -6 15 -16 29 -24 32 -10 3 -12 0 -8 -12z"/>
</g>
<g>
<path d="M610 2210 c0 -5 5 -10 10 -10 6 0 10 5 10 10 0 6 -4 10 -10 10 -5 0
-10 -4 -10 -10z"/>
</g>
<g>
<path d="M580 2190 c0 -5 5 -10 11 -10 5 0 7 5 4 10 -3 6 -8 10 -11 10 -2 0
-4 -4 -4 -10z"/>
</g>
<g>
<path d="M630 2066 c0 -8 5 -18 10 -21 6 -3 10 3 10 14 0 12 -4 21 -10 21 -5
0 -10 -6 -10 -14z"/>
</g>
<g>
<path d="M537 2023 c-5 -9 10 -53 18 -53 3 0 5 14 5 30 0 28 -13 40 -23 23z"/>
</g>
<g>
<path d="M413 1945 c0 -22 2 -30 4 -17 2 12 2 30 0 40 -3 9 -5 -1 -4 -23z"/>
</g>
<g>
<path d="M694 1906 c-8 -21 0 -101 10 -99 11 4 15 113 4 113 -5 0 -11 -6 -14
-14z"/>
</g>
<g>
<path d="M455 1881 c-3 -5 -1 -12 5 -16 5 -3 10 1 10 9 0 18 -6 21 -15 7z"/>
</g>
<g>
<path d="M426 1843 c-11 -11 -6 -23 9 -23 8 0 15 4 15 9 0 13 -16 22 -24 14z"/>
</g>
<g>
<path d="M524 1829 c-3 -6 -1 -16 5 -22 8 -8 11 -5 11 11 0 24 -5 28 -16 11z"/>
</g>
<g>
<path d="M426 1748 c-3 -17 -2 -36 4 -42 7 -7 10 4 10 32 0 50 -5 54 -14 10z"/>
</g>
<g>
<path d="M640 1769 c0 -5 5 -7 10 -4 6 3 10 8 10 11 0 2 -4 4 -10 4 -5 0 -10
-5 -10 -11z"/>
</g>
<g>
<path d="M705 1650 c-3 -5 -1 -10 4 -10 6 0 11 5 11 10 0 6 -2 10 -4 10 -3 0
-8 -4 -11 -10z"/>
</g>
<g>
<path d="M460 1640 c0 -5 5 -10 10 -10 6 0 10 5 10 10 0 6 -4 10 -10 10 -5 0
-10 -4 -10 -10z"/>
</g>
<g>
<path d="M730 1434 c0 -98 3 -174 7 -170 10 9 11 336 1 342 -4 3 -8 -75 -8
-172z"/>
</g>
<g>
<path d="M426 1528 c-3 -33 -6 -130 -6 -215 0 -119 3 -154 13 -150 9 3 12 54
12 211 0 210 -7 267 -19 154z"/>
</g>
<g>
<path d="M666 1568 c-9 -36 -7 -86 4 -93 6 -4 10 17 10 54 0 65 -4 75 -14 39z"/>
</g>
<g>
<path d="M545 1460 c4 -6 11 -8 16 -5 14 9 11 15 -7 15 -8 0 -12 -5 -9 -10z"/>
</g>
<g>
<path d="M600 1460 c0 -5 5 -10 11 -10 5 0 7 5 4 10 -3 6 -8 10 -11 10 -2 0
-4 -4 -4 -10z"/>
</g>
<g>
<path d="M478 1380 c-12 -43 -20 -400 -10 -400 6 0 13 69 17 163 7 177 4 280
-7 237z"/>
</g>
<g>
<path d="M690 1230 c0 -5 5 -10 10 -10 6 0 10 5 10 10 0 6 -4 10 -10 10 -5 0
-10 -4 -10 -10z"/>
</g>
<g>
<path d="M727 1068 c-10 -158 -9 -268 2 -268 12 0 26 359 14 371 -6 6 -12 -31
-16 -103z"/>
</g>
<g>
<path d="M660 1139 c0 -5 5 -7 10 -4 6 3 10 8 10 11 0 2 -4 4 -10 4 -5 0 -10
-5 -10 -11z"/>
</g>
<g>
<path d="M420 943 c0 -64 3 -114 6 -111 11 12 16 228 5 228 -7 0 -11 -39 -11
-117z"/>
</g>
<g>
<path d="M686 1008 c-9 -35 -7 -68 4 -68 6 0 10 20 10 45 0 50 -4 57 -14 23z"/>
</g>
<g>
<path d="M595 990 c-3 -5 1 -10 9 -10 9 0 16 5 16 10 0 6 -4 10 -9 10 -6 0
-13 -4 -16 -10z"/>
</g>
<g>
<path d="M505 961 c-3 -5 -1 -12 5 -16 5 -3 10 1 10 9 0 18 -6 21 -15 7z"/>
</g>
<g>
<path d="M540 920 c0 -5 5 -10 10 -10 6 0 10 5 10 10 0 6 -4 10 -10 10 -5 0
-10 -4 -10 -10z"/>
</g>
<g>
<path d="M490 890 c0 -5 5 -10 10 -10 6 0 10 5 10 10 0 6 -4 10 -10 10 -5 0
-10 -4 -10 -10z"/>
</g>
<g>
<path d="M620 890 c0 -5 5 -10 10 -10 6 0 10 5 10 10 0 6 -4 10 -10 10 -5 0
-10 -4 -10 -10z"/>
</g>
<g>
<path d="M485 810 c3 -5 8 -10 11 -10 2 0 4 5 4 10 0 6 -5 10 -11 10 -5 0 -7
-4 -4 -10z"/>
</g>
<g>
<path d="M2560 2420 c0 -5 18 -10 40 -10 22 0 40 5 40 10 0 6 -18 10 -40 10
-22 0 -40 -4 -40 -10z"/>
</g>
<g>
<path d="M2537 2124 c-4 -4 -7 -14 -7 -23 0 -11 3 -12 11 -4 6 6 10 16 7 23
-2 6 -7 8 -11 4z"/>
</g>
<g>
<path d="M2530 2050 c0 -5 5 -10 10 -10 6 0 10 5 10 10 0 6 -4 10 -10 10 -5 0
-10 -4 -10 -10z"/>
</g>
<g>
<path d="M66 1781 c4 -8 8 -46 9 -85 3 -79 12 -126 26 -126 12 0 11 37 -1 45
-5 3 -10 37 -10 74 0 46 -5 73 -16 87 -8 10 -12 13 -8 5z"/>
</g>
<g>
<path d="M290 840 c0 -5 5 -10 11 -10 5 0 7 5 4 10 -3 6 -8 10 -11 10 -2 0 -4
-4 -4 -10z"/>
</g>
<g>
<path d="M175 830 c-3 -5 -1 -10 4 -10 6 0 11 5 11 10 0 6 -2 10 -4 10 -3 0
-8 -4 -11 -10z"/>
</g>
<g>
<path d="M240 830 c0 -5 5 -10 10 -10 6 0 10 5 10 10 0 6 -4 10 -10 10 -5 0
-10 -4 -10 -10z"/>
</g>
<g>
<path d="M200 800 c0 -5 5 -10 10 -10 6 0 10 5 10 10 0 6 -4 10 -10 10 -5 0
-10 -4 -10 -10z"/>
</g>
<g>
<path d="M300 800 c0 -5 5 -10 10 -10 6 0 10 5 10 10 0 6 -4 10 -10 10 -5 0
-10 -4 -10 -10z"/>
</g>
<g>
<path d="M155 790 c-3 -5 -1 -10 4 -10 6 0 11 5 11 10 0 6 -2 10 -4 10 -3 0
-8 -4 -11 -10z"/>
</g>
<g>
<path d="M250 770 c0 -5 5 -10 10 -10 6 0 10 5 10 10 0 6 -4 10 -10 10 -5 0
-10 -4 -10 -10z"/>
</g>
<g>
<path d="M145 750 c3 -5 8 -10 11 -10 2 0 4 5 4 10 0 6 -5 10 -11 10 -5 0 -7
-4 -4 -10z"/>
</g>
<g>
<path d="M90 740 c0 -5 5 -10 10 -10 6 0 10 5 10 10 0 6 -4 10 -10 10 -5 0
-10 -4 -10 -10z"/>
</g>
<g>
<path d="M130 710 c0 -5 5 -10 11 -10 5 0 7 5 4 10 -3 6 -8 10 -11 10 -2 0 -4
-4 -4 -10z"/>
</g>
<g>
<path d="M70 680 c0 -5 5 -10 10 -10 6 0 10 5 10 10 0 6 -4 10 -10 10 -5 0
-10 -4 -10 -10z"/>
</g>
<g>
<path d="M2411 1754 c0 -11 3 -14 6 -6 3 7 2 16 -1 19 -3 4 -6 -2 -5 -13z"/>
</g>
<g>
<path d="M2402 1660 c0 -14 2 -19 5 -12 2 6 2 18 0 25 -3 6 -5 1 -5 -13z"/>
</g>
<g>
<path d="M2625 1670 c-3 -5 -1 -10 4 -10 6 0 11 5 11 10 0 6 -2 10 -4 10 -3 0
-8 -4 -11 -10z"/>
</g>
<g>
<path d="M2403 1435 c0 -33 2 -45 4 -27 2 18 2 45 0 60 -2 15 -4 0 -4 -33z"/>
</g>
<g>
<path d="M2605 1450 c3 -5 8 -10 11 -10 2 0 4 5 4 10 0 6 -5 10 -11 10 -5 0
-7 -4 -4 -10z"/>
</g>
<g>
<path d="M2402 1240 c0 -14 2 -19 5 -12 2 6 2 18 0 25 -3 6 -5 1 -5 -13z"/>
</g>
<g>
<path d="M2455 1100 c3 -5 8 -10 11 -10 2 0 4 5 4 10 0 6 -5 10 -11 10 -5 0
-7 -4 -4 -10z"/>
</g>
<g>
<path d="M2390 945 c0 -97 4 -155 10 -155 6 0 10 58 10 155 0 97 -4 155 -10
155 -6 0 -10 -58 -10 -155z"/>
</g>
<g>
<path d="M2696 1054 c-10 -73 -8 -106 7 -102 8 3 13 30 15 76 3 80 -12 98 -22
26z"/>
</g>
<g>
<path d="M2455 1030 c-3 -5 -1 -10 4 -10 6 0 11 5 11 10 0 6 -2 10 -4 10 -3 0
-8 -4 -11 -10z"/>
</g>
<g>
<path d="M2700 910 c0 -5 5 -10 10 -10 6 0 10 5 10 10 0 6 -4 10 -10 10 -5 0
-10 -4 -10 -10z"/>
</g>
<g>
<path d="M2688 848 c-3 -24 -2 -47 3 -52 11 -12 31 31 27 61 -5 44 -25 38 -30
-9z"/>
</g>
<g>
<path d="M2440 810 c0 -21 4 -30 13 -27 6 2 12 14 12 27 0 13 -6 25 -12 28 -9
2 -13 -7 -13 -28z"/>
</g>
<g>
<path d="M2487 833 c-13 -12 -7 -43 8 -43 9 0 15 9 15 25 0 24 -10 32 -23 18z"/>
</g>
<g>
<path d="M2220 2122 c0 -6 8 -13 18 -18 14 -6 12 -8 -12 -13 l-28 -6 36 -16
36 -17 -3 24 c-3 23 -47 66 -47 46z"/>
</g>
<g>
<path d="M2061 2006 c-8 -9 -11 -19 -7 -23 9 -9 29 13 24 27 -2 8 -8 7 -17 -4z"/>
</g>
<g>
<path d="M2125 1990 c-3 -5 1 -10 9 -10 9 0 16 -4 16 -10 0 -5 -9 -10 -19 -10
-17 0 -18 -3 -8 -25 14 -29 23 -32 30 -7 2 9 8 25 12 34 8 19 -29 45 -40 28z"/>
</g>
<g>
<path d="M2182 1955 c-17 -37 -14 -45 4 -12 9 16 14 31 11 33 -2 2 -9 -7 -15
-21z"/>
</g>
<g>
<path d="M2067 1936 c-11 -8 -14 -17 -8 -20 5 -4 15 3 21 14 13 23 11 24 -13
6z"/>
</g>
<g>
<path d="M2028 1934 c-5 -4 -8 -16 -8 -28 0 -14 3 -17 11 -9 6 6 9 19 7 28 -1
9 -6 13 -10 9z"/>
</g>
<g>
<path d="M2100 1735 c0 -29 2 -30 40 -10 34 18 40 30 10 22 -11 -3 -20 -1 -20
4 0 5 -7 9 -15 9 -9 0 -15 -9 -15 -25z"/>
</g>
<g>
<path d="M2023 1570 c-11 -17 -10 -21 8 -31 28 -14 38 -3 13 16 -18 14 -17 15
11 8 27 -6 29 -5 16 10 -18 22 -33 21 -48 -3z"/>
</g>
<g>
<path d="M1992 1518 c5 -13 58 -31 58 -19 0 7 -44 31 -56 31 -3 0 -4 -5 -2
-12z"/>
</g>
<g>
<path d="M1970 1485 c0 -11 59 -34 65 -25 3 5 -3 14 -14 19 -20 11 -51 15 -51
6z"/>
</g>
<g>
<path d="M1980 1441 c0 -11 31 -24 39 -16 3 3 -1 10 -9 15 -19 12 -30 12 -30
1z"/>
</g>
<g>
<path d="M1960 1401 c0 -9 24 -21 42 -21 6 0 6 6 -2 15 -14 16 -40 20 -40 6z"/>
</g>
<g>
<path d="M1963 1353 c9 -9 19 -14 23 -11 10 10 -6 28 -24 28 -15 0 -15 -1 1
-17z"/>
</g>
<g>
<path d="M1942 1318 c3 -7 13 -15 24 -17 16 -3 17 -1 5 13 -16 19 -34 21 -29
4z"/>
</g>
<g>
<path d="M1930 1281 c0 -11 31 -24 39 -16 3 3 -1 10 -9 15 -19 12 -30 12 -30
1z"/>
</g>
<g>
<path d="M1920 1241 c0 -5 7 -12 16 -15 24 -9 28 -7 14 9 -14 17 -30 20 -30 6z"/>
</g>
<g>
<path d="M1908 1143 c6 -2 18 -2 25 0 6 3 1 5 -13 5 -14 0 -19 -2 -12 -5z"/>
</g>
<g>
<path d="M2885 830 c3 -5 10 -10 16 -10 5 0 9 5 9 10 0 6 -7 10 -16 10 -8 0
-12 -4 -9 -10z"/>
</g>
<g>
<path d="M2800 819 c0 -5 5 -7 10 -4 6 3 10 8 10 11 0 2 -4 4 -10 4 -5 0 -10
-5 -10 -11z"/>
</g>
<g>
<path d="M2855 810 c3 -5 10 -10 16 -10 5 0 9 5 9 10 0 6 -7 10 -16 10 -8 0
-12 -4 -9 -10z"/>
</g>
<g>
<path d="M2890 800 c0 -5 7 -10 15 -10 8 0 15 5 15 10 0 6 -7 10 -15 10 -8 0
-15 -4 -15 -10z"/>
</g>
<g>
<path d="M2815 780 c4 -6 11 -8 16 -5 14 9 11 15 -7 15 -8 0 -12 -5 -9 -10z"/>
</g>
<g>
<path d="M2930 720 c0 -5 5 -10 10 -10 6 0 10 5 10 10 0 6 -4 10 -10 10 -5 0
-10 -4 -10 -10z"/>
</g>
<g>
<path d="M1250 1499 c-24 -11 -40 -23 -34 -27 5 -4 16 -22 23 -39 15 -37 24
-39 61 -17 l25 15 -30 -5 c-25 -3 -27 -2 -13 7 58 41 55 38 30 33 -12 -2 -20
0 -16 5 3 5 -3 9 -13 9 -13 1 -11 5 10 16 56 30 23 33 -43 3z"/>
</g>
<g>
<path d="M1285 1398 c-28 -15 -28 -14 -20 -37 3 -12 11 -19 16 -16 5 3 7 0 4
-7 -7 -18 40 -103 56 -103 8 0 15 10 15 23 1 12 -2 22 -6 22 -4 0 -6 11 -5 25
2 15 -2 25 -9 25 -9 0 -12 12 -9 40 4 43 -5 49 -42 28z"/>
</g>
<g>
<path d="M78 544 c-12 -11 -10 -124 2 -124 6 0 13 7 17 16 7 20 -10 118 -19
108z"/>
</g>
<g>
<path d="M112 494 c2 -27 8 -48 13 -46 15 3 12 85 -3 90 -10 3 -12 -8 -10 -44z"/>
</g>
<g>
<path d="M250 460 c0 -60 12 -80 24 -37 12 44 7 97 -9 97 -12 0 -15 -13 -15
-60z"/>
</g>
<g>
<path d="M210 430 c0 -20 5 -30 15 -30 16 0 19 17 9 44 -10 26 -24 18 -24 -14z"/>
</g>
<g>
<path d="M304 426 c-8 -22 3 -33 18 -18 9 9 9 15 0 24 -9 9 -13 7 -18 -6z"/>
</g>
<g>
<path d="M116 411 c-4 -5 -2 -12 3 -15 5 -4 12 -2 15 3 4 5 2 12 -3 15 -5 4
-12 2 -15 -3z"/>
</g>
<g>
<path d="M670 567 c0 -64 13 -157 22 -157 14 0 5 183 -9 188 -9 2 -13 -8 -13
-31z"/>
</g>
<g>
<path d="M751 490 c2 -79 26 -58 27 23 0 16 -5 27 -14 27 -10 0 -13 -14 -13
-50z"/>
</g>
<g>
<path d="M627 523 c-3 -5 -1 -26 3 -48 l8 -40 1 48 c1 45 -2 56 -12 40z"/>
</g>
<g>
<path d="M617 414 c-8 -8 1 -24 14 -24 5 0 9 7 9 15 0 15 -12 20 -23 9z"/>
</g>
</g>
<g>
<path d="M2218 5133 c6 -2 18 -2 25 0 6 3 1 5 -13 5 -14 0 -19 -2 -12 -5z"/>
</g>
<g>
<path d="M2288 5133 c6 -2 18 -2 25 0 6 3 1 5 -13 5 -14 0 -19 -2 -12 -5z"/>
</g>
<g>
<path d="M2338 5133 c6 -2 18 -2 25 0 6 3 1 5 -13 5 -14 0 -19 -2 -12 -5z"/>
</g>
<g>
<path d="M1387 5052 c-88 -2 -117 -6 -114 -15 2 -7 13 -11 24 -9 13 2 22 -4
25 -15 5 -19 1 -113 -4 -119 -2 -2 -20 -4 -40 -6 -27 -1 -34 -5 -28 -14 13
-14 405 -14 405 1 0 6 -21 11 -47 13 -52 3 -56 10 -34 50 8 15 20 42 28 60 10
25 19 32 40 32 16 0 28 5 28 10 0 6 -28 10 -62 11 -35 0 -72 1 -83 2 -11 1
-73 1 -138 -1z m43 -34 c0 -7 11 -35 25 -63 13 -27 25 -53 25 -57 0 -5 -25 -8
-55 -8 l-55 0 0 70 0 70 30 0 c17 0 30 -5 30 -12z m134 4 c5 -8 -35 -102 -44
-102 -5 0 -50 93 -50 104 0 9 88 7 94 -2z"/>
</g>
<g>
<path d="M584 4738 c-15 -7 -24 -23 -28 -51 -9 -53 16 -88 69 -101 35 -8 41
-6 62 18 34 40 31 88 -8 120 -32 27 -60 31 -95 14z m92 -54 c4 -14 1 -37 -5
-51 -10 -21 -16 -24 -39 -18 -36 8 -50 28 -44 65 8 56 74 59 88 4z"/>
</g>
<g>
<path d="M481 4556 c-17 -31 -7 -79 16 -74 9 2 25 16 37 31 16 21 18 32 10 45
-17 27 -48 26 -63 -2z m32 -21 c-3 -9 -8 -14 -10 -11 -3 3 -2 9 2 15 9 16 15
13 8 -4z"/>
</g>
<g>
<path d="M620 4523 c0 -21 -9 -51 -20 -68 -23 -35 -26 -55 -7 -55 21 0 59 81
55 119 -4 50 -28 53 -28 4z"/>
</g>
<g>
<path d="M995 4540 c3 -5 8 -10 11 -10 2 0 4 5 4 10 0 6 -5 10 -11 10 -5 0 -7
-4 -4 -10z"/>
</g>
<g>
<path d="M780 4405 c0 -14 5 -25 10 -25 6 0 10 11 10 25 0 14 -4 25 -10 25 -5
0 -10 -11 -10 -25z"/>
</g>
<g>
<path d="M1191 4336 c11 -9 69 -14 69 -6 0 6 -16 10 -37 10 -20 0 -34 -2 -32
-4z"/>
</g>
<g>
<path d="M778 4225 c-4 -55 -5 -102 -2 -104 11 -12 15 15 12 105 l-3 99 -7
-100z"/>
</g>
<g>
<path d="M705 4300 c-3 -5 -1 -10 4 -10 6 0 11 5 11 10 0 6 -2 10 -4 10 -3 0
-8 -4 -11 -10z"/>
</g>
<g>
<path d="M930 4224 c0 -54 4 -83 10 -79 6 3 10 42 10 86 0 46 -4 79 -10 79 -6
0 -10 -35 -10 -86z"/>
</g>
<g>
<path d="M1294 4296 c-16 -41 28 -62 61 -30 22 23 14 38 -23 42 -22 2 -34 -2
-38 -12z m56 -16 c0 -13 -11 -13 -30 0 -12 8 -11 10 8 10 12 0 22 -4 22 -10z"/>
</g>
<g>
<path d="M1060 4260 c0 -5 5 -10 11 -10 5 0 7 5 4 10 -3 6 -8 10 -11 10 -2 0
-4 -4 -4 -10z"/>
</g>
<g>
<path d="M1200 4260 c0 -5 6 -7 14 -4 8 3 16 -2 19 -13 4 -14 5 -14 6 5 1 16
-5 22 -19 22 -11 0 -20 -4 -20 -10z"/>
</g>
<g>
<path d="M1200 4230 c0 -5 5 -10 11 -10 5 0 7 5 4 10 -3 6 -8 10 -11 10 -2 0
-4 -4 -4 -10z"/>
</g>
<g>
<path d="M716 4043 c6 -113 9 -127 25 -117 6 3 8 39 5 87 -3 45 -5 94 -5 110
-1 17 -6 27 -16 27 -13 0 -14 -16 -9 -107z"/>
</g>
<g>
<path d="M1215 4104 c-13 -21 -16 -38 -11 -77 6 -38 3 -53 -10 -68 -22 -24
-15 -44 10 -26 15 11 19 29 21 88 1 41 6 82 10 92 11 26 0 21 -20 -9z"/>
</g>
<g>
<path d="M776 4033 c-3 -3 -5 -40 -4 -82 l2 -76 3 70 c2 38 9 72 15 76 6 4 7
9 0 12 -5 4 -12 4 -16 0z"/>
</g>
<g>
<path d="M901 4024 c0 -11 3 -14 6 -6 3 7 2 16 -1 19 -3 4 -6 -2 -5 -13z"/>
</g>
<g>
<path d="M950 3950 c0 -5 5 -10 11 -10 5 0 7 5 4 10 -3 6 -8 10 -11 10 -2 0
-4 -4 -4 -10z"/>
</g>
<g>
<path d="M1225 3930 c-3 -5 -1 -10 4 -10 6 0 11 5 11 10 0 6 -2 10 -4 10 -3 0
-8 -4 -11 -10z"/>
</g>
<g>
<path d="M800 3920 c0 -5 5 -10 10 -10 6 0 10 5 10 10 0 6 -4 10 -10 10 -5 0
-10 -4 -10 -10z"/>
</g>
<g>
<path d="M378 3833 c6 -2 18 -2 25 0 6 3 1 5 -13 5 -14 0 -19 -2 -12 -5z"/>
</g>
<g>
<path d="M299 3799 c-37 -40 -39 -84 -4 -121 14 -15 25 -32 25 -38 0 -8 29
-10 103 -5 56 4 110 9 120 11 14 4 17 -1 17 -30 0 -20 5 -36 11 -36 8 0 9 11
5 31 -3 17 -6 39 -6 49 0 15 -5 16 -40 7 -22 -6 -42 -9 -45 -6 -3 3 0 20 6 37
15 45 -3 93 -44 117 l-32 19 29 -34 c23 -29 27 -40 23 -73 -7 -49 -23 -66 -70
-74 -91 -14 -137 102 -64 159 13 11 17 18 9 18 -8 0 -27 -14 -43 -31z"/>
</g>
<g>
<path d="M790 3820 c0 -5 5 -10 10 -10 6 0 10 5 10 10 0 6 -4 10 -10 10 -5 0
-10 -4 -10 -10z"/>
</g>
<g>
<path d="M347 3772 c-23 -25 -21 -48 5 -66 40 -28 72 -18 83 25 12 50 -53 80
-88 41z m58 -32 c0 -16 -6 -26 -18 -28 -19 -4 -32 20 -23 44 9 25 41 13 41
-16z"/>
</g>
<g>
<path d="M750 3715 c0 -9 5 -15 11 -13 6 2 11 8 11 13 0 5 -5 11 -11 13 -6 2
-11 -4 -11 -13z"/>
</g>
<g>
<path d="M700 3660 c0 -5 5 -10 10 -10 6 0 10 5 10 10 0 6 -4 10 -10 10 -5 0
-10 -4 -10 -10z"/>
</g>
<g>
<path d="M2775 3488 c11 -6 35 -24 53 -41 25 -25 32 -27 32 -13 0 24 -50 65
-80 65 -24 0 -24 0 -5 -11z"/>
</g>
<g>
<path d="M2340 3440 c0 -5 5 -10 10 -10 6 0 10 5 10 10 0 6 -4 10 -10 10 -5 0
-10 -4 -10 -10z"/>
</g>
<g>
<path d="M2880 3402 c0 -13 58 -52 77 -52 13 0 9 6 -13 19 -18 11 -35 24 -38
30 -8 13 -26 15 -26 3z"/>
</g>
<g>
<path d="M490 3130 c0 -6 15 -10 34 -10 19 0 42 -3 52 -7 11 -4 15 -2 13 6 -5
15 -99 25 -99 11z"/>
</g>
<g>
<path d="M2570 3113 c0 -5 12 -39 26 -78 14 -38 27 -79 29 -89 3 -11 9 -24 15
-30 5 -5 10 -28 11 -50 0 -23 7 -57 15 -76 13 -33 14 -31 8 45 -3 44 -11 87
-18 95 -7 8 -19 35 -26 60 -25 80 -61 153 -60 123z"/>
</g>
<g>
<path d="M2128 597 c-6 -16 1 -37 13 -37 12 0 12 37 0 44 -5 3 -11 0 -13 -7z"/>
</g>
<g>
<path d="M1140 500 c0 -60 4 -100 10 -100 6 0 10 40 10 100 0 60 -4 100 -10
100 -6 0 -10 -40 -10 -100z"/>
</g>
<g>
<path d="M1297 593 c-12 -11 -8 -23 8 -23 8 0 15 7 15 15 0 16 -12 20 -23 8z"/>
</g>
<g>
<path d="M1802 498 c4 -121 23 -124 23 -4 0 64 -4 91 -13 94 -10 3 -12 -17
-10 -90z"/>
</g>
<g>
<path d="M1895 580 c3 -5 8 -10 11 -10 2 0 4 5 4 10 0 6 -5 10 -11 10 -5 0 -7
-4 -4 -10z"/>
</g>
<g>
<path d="M1240 565 c0 -8 5 -15 10 -15 6 0 10 7 10 15 0 8 -4 15 -10 15 -5 0
-10 -7 -10 -15z"/>
</g>
<g>
<path d="M2010 570 c0 -5 5 -10 10 -10 6 0 10 5 10 10 0 6 -4 10 -10 10 -5 0
-10 -4 -10 -10z"/>
</g>
<g>
<path d="M2680 570 c0 -5 5 -10 10 -10 6 0 10 5 10 10 0 6 -4 10 -10 10 -5 0
-10 -4 -10 -10z"/>
</g>
<g>
<path d="M1960 560 c0 -5 5 -10 10 -10 6 0 10 5 10 10 0 6 -4 10 -10 10 -5 0
-10 -4 -10 -10z"/>
</g>
<g>
<path d="M1316 553 c-8 -8 -8 -81 0 -122 11 -56 24 -33 24 43 0 69 -8 95 -24
79z"/>
</g>
<g>
<path d="M1367 513 c-11 -10 -8 -113 3 -113 6 0 10 27 10 60 0 61 -1 65 -13
53z"/>
</g>
<g>
<path d="M2000 459 c0 -44 3 -60 13 -56 11 4 17 74 8 105 -9 32 -21 6 -21 -49z"/>
</g>
<g>
<path d="M2210 460 c0 -33 4 -60 10 -60 6 0 10 27 10 60 0 33 -4 60 -10 60 -6
0 -10 -27 -10 -60z"/>
</g>
<g>
<path d="M2418 514 c-12 -11 -9 -92 3 -99 18 -12 22 3 13 56 -5 28 -12 48 -16
43z"/>
</g>
<g>
<path d="M1270 500 c0 -5 5 -10 10 -10 6 0 10 5 10 10 0 6 -4 10 -10 10 -5 0
-10 -4 -10 -10z"/>
</g>
<g>
<path d="M2308 468 c-4 -42 1 -70 13 -63 12 8 12 95 0 95 -5 0 -11 -15 -13
-32z"/>
</g>
<g>
<path d="M2477 493 c-10 -10 -8 -93 2 -93 13 0 25 80 14 91 -5 5 -12 6 -16 2z"/>
</g>
<g>
<path d="M1635 480 c3 -5 8 -10 11 -10 2 0 4 5 4 10 0 6 -5 10 -11 10 -5 0 -7
-4 -4 -10z"/>
</g>
<g>
<path d="M974 465 c-8 -20 4 -65 16 -65 6 0 10 18 10 40 0 40 -15 54 -26 25z"/>
</g>
<g>
<path d="M1400 451 c0 -17 5 -31 10 -31 6 0 10 11 10 24 0 14 -4 28 -10 31 -6
4 -10 -7 -10 -24z"/>
</g>
<g>
<path d="M2600 445 c0 -19 5 -35 10 -35 6 0 10 16 10 35 0 19 -4 35 -10 35 -5
0 -10 -16 -10 -35z"/>
</g>
<g>
<path d="M1233 439 c4 -13 7 -27 7 -31 0 -5 5 -8 11 -8 15 0 6 53 -10 58 -10
4 -12 -1 -8 -19z"/>
</g>
<g>
<path d="M2540 450 c-10 -6 -11 -10 -2 -10 6 0 12 -9 12 -20 0 -23 15 -27 24
-5 6 16 -2 45 -13 45 -3 0 -13 -5 -21 -10z"/>
</g>
<g>
<path d="M1440 440 c0 -5 5 -10 10 -10 6 0 10 5 10 10 0 6 -4 10 -10 10 -5 0
-10 -4 -10 -10z"/>
</g>
<g>
<path d="M2260 426 c0 -8 5 -18 10 -21 6 -3 10 3 10 14 0 12 -4 21 -10 21 -5
0 -10 -6 -10 -14z"/>
</g>
<g>
<path d="M2700 420 c0 -11 5 -20 10 -20 6 0 10 9 10 20 0 11 -4 20 -10 20 -5
0 -10 -9 -10 -20z"/>
</g>
<g>
<path d="M1580 420 c0 -5 5 -10 10 -10 6 0 10 5 10 10 0 6 -4 10 -10 10 -5 0
-10 -4 -10 -10z"/>
</g>
<g>
<path d="M1490 410 c0 -5 5 -10 10 -10 6 0 10 5 10 10 0 6 -4 10 -10 10 -5 0
-10 -4 -10 -10z"/>
</g>
<g>
<path d="M1137 282 l-58 -3 5 -102 5 -102 59 -3 c48 -2 61 1 77 18 23 25 12
39 -13 17 -10 -10 -35 -17 -55 -17 -33 0 -36 2 -33 28 2 15 4 35 5 45 1 18 41
25 41 7 0 -5 5 -10 10 -10 13 0 13 47 1 55 -5 3 -12 1 -16 -5 -15 -24 -35 -9
-35 25 0 33 2 35 35 35 25 0 35 -4 35 -16 0 -8 5 -12 10 -9 14 9 12 32 -2 36
-7 2 -39 3 -71 1z"/>
</g>
<g>
<path d="M1503 282 c-12 -2 -25 -11 -28 -21 -3 -10 -14 -26 -23 -35 -17 -15
-21 -13 -52 19 -24 25 -43 35 -64 35 l-31 0 0 -105 c0 -101 1 -105 22 -105 12
0 25 5 28 10 3 6 1 10 -4 10 -13 0 -15 116 -3 124 5 3 21 -8 37 -24 32 -33 47
-30 76 16 33 53 41 43 38 -48 -3 -78 -2 -83 16 -80 11 2 20 5 20 5 0 1 -2 47
-5 102 -5 96 -6 100 -27 97z"/>
</g>
<g>
<path d="M1618 283 c-27 -2 -48 -8 -48 -14 0 -5 7 -9 15 -9 12 0 15 -17 15
-90 0 -88 1 -90 24 -90 22 0 23 3 18 50 l-5 50 32 0 c60 0 99 46 73 88 -10 15
-58 21 -124 15z m89 -29 c10 -27 -14 -64 -42 -64 -23 0 -25 4 -25 40 0 38 2
40 30 40 19 0 33 -6 37 -16z"/>
</g>
<g>
<path d="M1870 283 l-55 -4 0 -99 0 -100 55 0 c44 0 61 5 85 25 21 17 25 24
14 25 -9 0 -22 -7 -29 -15 -7 -9 -29 -15 -51 -15 -38 0 -39 1 -39 34 0 40 18
57 32 31 8 -14 12 -15 19 -4 15 23 11 69 -6 69 -8 0 -15 -7 -15 -15 0 -22 -18
-18 -25 5 -11 35 13 53 62 47 42 -4 58 5 27 17 -9 3 -16 5 -17 4 -1 -1 -27 -3
-57 -5z"/>
</g>
<g>
<path d="M2050 281 c-14 -5 -19 -9 -12 -10 11 -1 13 -22 10 -96 l-3 -96 25 3
c23 3 24 7 22 49 -2 26 1 50 6 53 15 9 42 -4 42 -20 0 -18 67 -84 85 -84 21 0
20 3 -25 48 -42 42 -50 66 -25 76 19 7 20 50 1 65 -18 15 -95 22 -126 12z
m105 -43 c-2 -22 -42 -45 -56 -31 -5 5 -6 18 -3 31 9 31 61 32 59 0z"/>
</g>
<g>
<path d="M2530 280 c0 -5 5 -10 11 -10 7 0 9 -31 7 -90 -3 -80 -1 -91 15 -96
27 -8 31 1 28 56 -2 45 0 50 18 50 12 0 26 -11 35 -27 22 -42 54 -73 77 -73
18 0 16 5 -15 42 -20 23 -36 46 -36 51 0 5 10 23 22 39 l21 31 -22 18 c-18 14
-40 19 -92 19 -39 0 -69 -4 -69 -10z m127 -26 c7 -20 -22 -44 -44 -38 -25 7
-33 49 -10 57 15 5 50 -7 54 -19z"/>
</g>
<g>
<path d="M610 235 l0 -45 -49 0 c-41 0 -51 4 -56 20 -3 10 -1 28 5 40 10 18 8
20 -20 20 l-30 0 0 -89 c0 -49 -3 -97 -6 -106 -6 -13 -1 -16 22 -13 27 3 29 6
26 40 -6 67 2 77 61 75 l52 -2 -1 -52 c-2 -53 -1 -53 28 -53 25 0 28 2 18 14
-7 10 -10 44 -8 100 3 85 -1 96 -33 96 -5 0 -9 -20 -9 -45z"/>
</g>
<g>
<path d="M750 273 l-45 -4 3 -99 3 -100 69 0 c62 0 69 2 85 26 22 35 14 40
-15 9 -16 -17 -34 -25 -55 -25 -28 0 -33 4 -38 30 -10 45 10 79 28 50 12 -20
24 -10 23 20 -1 30 -28 45 -28 15 0 -8 -5 -15 -11 -15 -6 0 -9 16 -7 38 2 30
7 38 27 40 15 2 28 -3 33 -12 11 -20 28 -11 28 15 0 20 1 20 -100 12z"/>
</g>
<g>
<path d="M2298 267 c-46 -18 -62 -82 -33 -136 18 -36 32 -41 105 -41 83 0 119
41 99 115 -18 63 -96 92 -171 62z m118 -24 c36 -48 0 -133 -57 -133 -31 0 -69
34 -69 61 0 25 19 72 33 81 23 14 79 9 93 -9z"/>
</g>
<g>
<path d="M190 250 c0 -23 15 -27 24 -5 3 8 17 15 32 15 l26 0 -4 -97 -3 -98
38 -2 c37 -1 45 5 28 23 -5 5 -6 44 -4 87 6 84 18 101 54 79 25 -16 39 -15 39
3 0 12 -19 15 -115 15 -108 0 -115 -1 -115 -20z"/>
</g>
<g>
<path d="M2795 120 c-9 -15 4 -30 26 -30 23 0 26 25 3 34 -21 8 -22 8 -29 -4z"/>
</g>
<g>
<path d="M1400 10 c-296 -4 -115 -6 565 -7 550 -1 995 1 990 3 -17 7 -1077 10
-1555 4z"/>
</g>
</g>
</svg>
