<?xml version="1.0" standalone="no"?>
<!DOCTYPE svg PUBLIC "-//W3C//DTD SVG 20010904//EN"
 "http://www.w3.org/TR/2001/REC-SVG-20010904/DTD/svg10.dtd">
<svg version="1.0" xmlns="http://www.w3.org/2000/svg"
 width="300.000000pt" height="529.000000pt" viewBox="0 0 300.000000 529.000000"
 preserveAspectRatio="xMidYMid meet">
<metadata>
Created by potrace 1.15, written by Peter Selinger 2001-2017
</metadata>
<g transform="translate(0.000000,529.000000) scale(0.100000,-0.100000)"
fill="#000000" stroke="none">
<g>
<path d="M1860 5278 c-333 -4 -882 -5 -1221 -3 -578 4 -617 4 -624 -13 -4 -9
-9 -716 -12 -1570 -5 -1433 -4 -1552 11 -1546 13 5 16 0 16 -25 0 -21 -5 -31
-15 -31 -13 0 -15 -68 -13 -557 0 -307 3 -543 5 -525 3 19 10 32 19 32 19 0
18 19 -1 26 -8 4 -15 15 -15 25 0 12 5 16 15 13 10 -4 15 0 15 10 0 9 -7 19
-15 22 -8 4 -15 11 -15 16 0 12 115 2 171 -14 61 -17 73 -67 38 -145 -18 -39
-19 -52 -10 -82 16 -52 -14 -157 -46 -166 -13 -3 -32 -14 -43 -25 -14 -14 -20
-16 -20 -6 0 7 -9 16 -20 19 -11 3 -20 13 -20 22 0 16 -2 16 -24 1 -23 -14
-25 -14 -29 2 -3 9 -5 -26 -6 -80 -1 -68 3 -98 12 -102 9 -5 9 -7 0 -12 -8 -3
-13 -25 -13 -54 0 -38 4 -50 18 -53 16 -4 16 -5 0 -6 -10 0 -18 -8 -18 -16 0
-19 159 -20 1732 -19 l1226 1 4 -21 c2 -11 2 -99 0 -193 l-4 -173 -722 -2
c-829 -1 -775 -2 -1596 7 -344 4 -628 9 -633 12 -4 2 -7 -3 -7 -11 0 -14 21
-16 148 -18 81 -1 192 -3 247 -4 55 -1 660 -2 1345 -3 l1245 -2 5 158 c3 87 6
500 8 917 3 617 1 761 -10 767 -10 7 -10 9 0 9 9 0 12 270 10 1323 -2 1047 -4
1186 -8 668 -5 -637 -6 -654 -24 -657 -36 -5 -136 65 -134 94 5 67 -3 102 -32
130 -19 19 -28 36 -24 46 3 9 1 16 -5 16 -6 0 -11 -6 -11 -12 -1 -7 -14 -29
-30 -48 -26 -30 -30 -42 -30 -95 0 -56 -2 -63 -30 -83 -16 -12 -34 -22 -39
-22 -18 0 -29 -34 -32 -105 -4 -61 -2 -70 14 -73 10 -2 26 -1 35 3 14 5 14 7
2 15 -8 5 -18 6 -22 4 -10 -6 -11 61 -2 105 5 24 11 30 24 26 10 -3 21 -1 25
5 3 5 0 10 -7 10 -7 1 2 13 20 29 24 20 32 36 32 59 0 29 3 32 31 32 17 0 28
4 24 10 -3 6 -17 10 -31 10 -13 0 -24 5 -24 10 0 6 18 10 40 10 l40 0 0 -46
c0 -38 5 -50 30 -72 17 -15 30 -30 30 -33 0 -4 -26 -7 -57 -7 -89 1 -113 -1
-113 -11 0 -5 30 -9 68 -10 127 -2 155 -6 160 -20 3 -9 -1 -11 -16 -7 -11 4
-23 3 -26 -2 -3 -6 4 -12 15 -15 18 -5 20 -11 15 -34 -4 -15 -15 -45 -25 -66
-10 -20 -15 -40 -10 -43 5 -3 9 -37 9 -76 0 -70 0 -71 -20 -53 -11 10 -17 22
-14 26 8 14 -6 49 -21 49 -7 0 -15 9 -18 21 -5 20 -7 19 -35 -12 -16 -19 -31
-43 -33 -54 -4 -18 -12 -20 -97 -20 l-94 0 4 -42 c3 -39 2 -42 -20 -36 -12 3
-29 0 -37 -7 -10 -9 -15 -9 -15 -1 0 14 -43 14 -57 0 -27 -27 -31 8 -33 284
-4 788 -5 834 -18 849 -11 14 -7 17 24 22 33 7 36 9 29 34 -4 15 -8 47 -10 72
-4 40 -3 42 4 12 9 -33 18 -49 24 -41 6 7 -27 406 -45 539 -14 106 -15 133 -5
147 13 18 25 214 15 244 l-9 25 -902 -3 c-496 -2 -916 -6 -934 -9 -17 -2 -34
-11 -37 -19 -3 -8 0 -68 5 -132 11 -121 6 -338 -11 -453 -5 -36 -14 -110 -20
-165 -6 -55 -13 -119 -16 -141 -5 -35 -3 -42 15 -47 14 -3 18 -11 15 -24 -3
-11 2 -25 10 -32 22 -18 20 -34 -3 -26 -16 5 -22 -2 -34 -46 -10 -33 -12 -59
-7 -73 16 -38 39 -174 50 -289 5 -62 17 -170 25 -242 8 -71 20 -170 25 -220 6
-49 15 -125 21 -167 10 -68 9 -81 -5 -104 -12 -17 -25 -24 -39 -22 -23 3 -25
20 -11 100 5 29 1 44 -17 69 -16 23 -24 51 -27 93 -3 43 -10 66 -23 79 -10 10
-22 29 -25 42 -3 14 -10 25 -14 25 -13 0 -52 -91 -46 -107 5 -12 -1 -14 -33
-8 -30 5 -40 3 -44 -9 -4 -9 -11 -16 -17 -16 -6 0 -10 39 -10 103 l-1 102 -39
30 c-21 17 -39 38 -40 48 0 22 -20 23 -20 1 0 -10 -16 -36 -35 -60 -32 -38
-35 -48 -35 -105 0 -70 8 -75 14 -9 3 38 8 46 31 53 16 6 30 6 36 0 12 -12 25
-403 14 -403 -5 0 -17 7 -27 16 -16 16 -18 15 -24 -2 -4 -11 -16 -29 -27 -42
-21 -22 -21 -22 -42 -2 -16 15 -20 30 -18 67 1 27 2 54 2 61 1 6 12 12 25 12
19 0 26 -7 31 -30 4 -16 11 -30 16 -30 13 0 11 63 -3 109 -10 32 -16 39 -36
37 -36 -4 -71 -62 -64 -108 4 -30 1 -38 -12 -38 -14 0 -15 22 -11 223 2 122 7
661 10 1197 3 536 7 975 8 976 1 1 664 5 1474 9 l1472 7 4 -68 3 -69 2 80 2
80 -267 0 c-148 0 -540 -3 -873 -7z m-137 -346 c10 -2 16 2 15 9 -2 10 36 14
155 16 102 2 157 0 157 -7 0 -5 6 -10 14 -10 7 0 19 -13 26 -30 7 -16 16 -30
21 -30 11 0 12 14 2 24 -5 4 -8 19 -8 33 l-1 25 92 -4 c56 -2 98 -9 108 -17
13 -11 16 -11 16 0 0 11 2 11 10 -1 8 -13 10 -12 10 3 0 20 20 23 38 5 15 -15
16 -58 1 -58 -6 0 -8 9 -4 23 6 21 6 21 -9 3 -9 -11 -16 -29 -17 -40 0 -12 -2
-29 -4 -38 -2 -11 3 -18 13 -19 12 0 13 -2 3 -6 -10 -4 -11 -7 -1 -13 9 -6 11
-22 5 -56 -5 -38 -9 -45 -16 -31 -8 13 -14 15 -30 7 -10 -6 -19 -7 -19 -2 0 6
9 12 19 15 14 3 18 11 14 26 -4 17 -9 19 -25 10 -10 -6 -22 -17 -25 -26 -9
-22 22 -69 44 -65 14 3 15 1 5 -11 -6 -7 -9 -17 -5 -21 11 -10 -78 -95 -93
-89 -8 3 -14 1 -14 -5 0 -6 5 -12 11 -14 7 -2 7 -13 -2 -33 -6 -17 -15 -46
-20 -65 -8 -34 -22 -87 -54 -204 -17 -64 -8 -116 21 -116 11 0 13 -14 9 -59
-3 -51 -1 -61 19 -80 18 -17 23 -31 20 -63 -4 -66 -37 -85 -90 -53 -62 37 -64
47 -64 356 l0 279 43 22 42 22 -74 8 c-80 8 -94 14 -71 28 9 6 16 6 18 0 6
-16 22 -12 22 5 0 8 4 15 10 15 5 0 7 -7 4 -15 -4 -8 -1 -15 5 -15 6 0 11 6
11 13 0 8 3 8 9 -2 6 -10 22 -12 55 -9 37 5 46 3 46 -10 0 -13 3 -12 14 4 8
10 10 21 5 22 -24 9 -6 28 27 28 l36 0 -22 -18 c-13 -10 -21 -21 -18 -23 3 -3
25 13 49 34 31 29 39 40 27 41 -10 0 -18 4 -18 10 0 5 -22 21 -49 35 -27 13
-64 43 -83 66 -67 84 -74 89 -110 82 -18 -3 -39 -10 -45 -16 -9 -6 -13 -6 -13
2 0 6 -7 11 -16 11 -13 0 -14 -2 -1 -14 14 -15 40 -16 53 -3 4 4 18 7 32 7 17
0 23 -4 18 -15 -3 -9 1 -15 11 -15 12 0 13 -3 4 -14 -14 -16 2 -32 20 -20 8 4
9 -1 4 -16 -6 -20 -4 -21 17 -15 23 8 23 8 4 -14 -19 -21 -19 -21 5 -23 13 0
30 -1 37 -1 8 1 11 -5 8 -14 -5 -11 -1 -13 15 -8 16 5 19 4 14 -5 -5 -9 -2
-10 14 -5 15 5 21 2 21 -9 0 -28 -109 -15 -117 13 -3 11 -18 17 -50 18 -30 2
-60 11 -84 28 -21 14 -47 25 -56 25 -10 0 -29 12 -42 26 -14 14 -30 23 -39 19
-10 -3 -12 0 -8 10 3 9 0 15 -10 15 -10 0 -14 -6 -10 -15 3 -8 1 -15 -4 -15
-6 0 -10 5 -10 11 0 5 -5 7 -12 3 -9 -6 -9 -9 0 -12 19 -6 14 -32 -7 -32 -11
0 -21 -4 -23 -10 -3 -11 -118 87 -118 101 0 15 40 10 46 -6 8 -20 14 -19 46 8
25 20 25 23 11 42 -15 20 -15 20 -9 -1 5 -16 2 -23 -14 -27 -37 -9 -57 2 -57
34 0 31 -9 47 -20 35 -4 -4 -2 -15 4 -25 14 -22 -1 -51 -27 -51 -11 0 -20 -4
-20 -10 0 -5 -6 -10 -14 -10 -8 0 -18 -5 -22 -11 -5 -8 2 -10 22 -6 33 6 64
-7 64 -27 0 -8 11 -17 25 -20 15 -4 27 -16 31 -32 4 -16 12 -23 20 -20 8 3 14
1 14 -4 0 -6 8 -10 18 -10 9 0 33 -15 53 -33 20 -18 41 -31 47 -29 7 2 12 -1
12 -6 0 -16 59 -12 69 6 8 13 13 14 35 4 16 -7 26 -8 26 -2 0 6 -6 10 -12 10
-9 0 -8 4 2 10 19 12 33 13 25 1 -3 -5 -1 -12 4 -15 5 -4 12 -2 16 4 10 16 25
12 19 -5 -7 -18 7 -20 24 -3 9 9 12 7 12 -10 0 -26 -29 -29 -92 -10 -30 9 -41
9 -51 -1 -9 -10 -8 -12 9 -9 11 1 20 -1 20 -7 -1 -5 -11 -10 -23 -10 -13 1
-23 -5 -23 -12 0 -18 -19 -16 -26 2 -4 8 -10 13 -14 10 -10 -6 -88 27 -115 50
-20 16 -19 16 5 9 24 -6 24 -5 8 12 -13 14 -20 15 -31 5 -10 -8 -22 -9 -41 -1
-20 7 -26 16 -26 39 0 36 -19 52 -27 22 -5 -19 -7 -19 -29 -4 -13 8 -24 22
-24 31 0 12 3 13 12 4 27 -27 37 -9 13 22 -14 19 -15 19 -34 2 -20 -18 -21
-16 -65 52 -26 39 -46 77 -46 86 0 8 -8 17 -17 19 -10 3 0 5 21 6 24 1 47 -5
58 -16 17 -15 19 -15 31 0 14 18 89 27 97 12 3 -5 13 -11 23 -13z m-831 -2
c-2 -10 1 -11 10 -3 7 5 36 11 63 12 140 8 165 8 165 4 0 -2 -7 -15 -16 -28
-9 -14 -12 -25 -6 -25 5 0 13 7 16 16 6 16 8 16 24 0 10 -9 23 -16 28 -16 6 0
10 -15 10 -34 0 -38 -20 -50 -66 -39 -25 6 -25 6 -7 -15 18 -20 47 -20 47 -1
0 5 7 9 16 9 26 0 0 -25 -61 -60 -64 -37 -69 -37 -61 -2 6 25 5 26 -9 8 -8
-10 -12 -23 -9 -27 3 -5 -1 -9 -10 -9 -8 0 -16 -5 -18 -11 -6 -17 -98 -50 -98
-35 0 7 5 17 12 24 9 9 8 12 -7 12 -10 0 -16 -3 -12 -6 5 -6 -36 -54 -47 -54
-2 0 -7 8 -9 18 -4 13 -5 13 -6 -4 -1 -25 -51 -42 -51 -18 0 16 -9 17 -30 4
-8 -5 -10 -10 -5 -11 6 0 -3 -5 -19 -9 -21 -7 -32 -5 -44 7 -15 14 -14 15 6 9
13 -5 22 -3 22 3 0 6 9 11 19 11 24 0 32 11 22 29 -6 10 -16 8 -46 -8 -35 -19
-65 -19 -65 0 0 5 7 9 15 9 9 0 18 7 21 15 4 8 10 15 15 15 12 0 49 38 49 50
0 19 -31 10 -40 -12 l-9 -23 -7 23 c-3 12 -11 22 -17 22 -5 0 -15 7 -22 17 -7
9 -17 13 -23 9 -17 -10 -15 -37 1 -30 8 3 19 -2 26 -9 9 -12 8 -18 -4 -31 -11
-10 -12 -16 -4 -16 9 0 8 -4 -1 -15 -14 -17 -40 -20 -40 -5 0 6 5 10 10 10 15
0 12 17 -4 23 -10 4 -13 1 -9 -9 6 -16 2 -17 -21 -8 -10 4 -16 18 -16 35 0 30
14 39 24 17 3 -7 3 1 -1 17 -7 38 -12 43 -23 25 -8 -12 -10 -10 -10 8 0 15 6
22 18 22 11 0 24 12 31 26 15 34 -2 58 -36 49 -16 -4 -23 -1 -23 10 0 23 80
21 80 -2 1 -16 2 -16 16 2 11 14 18 16 21 8 3 -7 9 -13 14 -13 6 0 7 5 4 10
-3 6 -1 10 5 10 6 0 13 -7 16 -15 7 -17 50 -20 59 -5 4 7 -2 9 -19 4 -16 -4
-26 -2 -26 5 0 6 16 11 35 11 27 0 35 -4 35 -17 0 -15 2 -16 10 -3 6 10 10 11
10 3 0 -7 5 -13 11 -13 6 0 9 6 6 14 -4 10 2 16 16 19 34 7 52 2 49 -13z m374
5 c-3 -8 -1 -15 4 -15 6 0 10 8 10 18 0 12 3 14 8 4 22 -34 132 -62 132 -33 0
4 11 8 25 9 l25 2 -33 -63 c-20 -38 -50 -74 -75 -94 -40 -30 -44 -31 -75 -18
-17 7 -33 20 -35 29 -2 9 -8 16 -13 16 -5 0 -9 5 -9 11 0 6 -7 17 -16 26 -10
10 -13 25 -9 44 5 22 3 29 -8 29 -17 0 -47 26 -47 41 0 5 27 9 61 9 50 0 60
-3 55 -15z m194 4 c0 -6 -14 -9 -32 -7 -22 2 -32 -1 -30 -9 3 -16 -1 -16 -49
-1 -60 17 -46 28 36 28 46 0 75 -4 75 -11z m-865 -49 c18 -8 17 -9 -7 -9 -16
-1 -28 4 -28 9 0 12 8 12 35 0z m640 -124 c9 -13 27 -27 41 -30 14 -4 22 -11
19 -16 -3 -5 -12 -7 -20 -3 -8 3 -15 1 -15 -5 0 -19 -43 -22 -56 -4 -12 15
-13 14 -14 -11 0 -27 -7 -32 -67 -51 -19 -6 -22 -4 -16 9 4 13 1 16 -13 13
-10 -2 -19 -10 -19 -18 0 -17 -32 -39 -57 -40 -10 0 -18 5 -18 10 0 6 -8 10
-19 10 -22 0 -46 25 -32 34 5 4 12 2 16 -4 10 -16 28 -12 21 5 -6 17 9 21 19
5 4 -6 12 -7 18 -3 6 4 23 8 37 9 14 2 32 12 40 22 9 10 22 16 29 14 10 -3 12
0 8 11 -9 23 4 29 24 11 13 -12 19 -13 25 -3 4 7 2 15 -4 17 -7 2 -12 8 -12
14 0 6 10 3 21 -8 22 -19 22 -19 15 9 -8 34 8 36 29 3z m284 -12 c10 -22 16
-25 41 -19 27 6 30 4 30 -19 0 -14 3 -25 8 -25 19 3 33 -2 27 -11 -3 -6 4 -10
18 -10 13 0 35 -13 50 -28 27 -28 50 -85 39 -96 -13 -13 -30 -5 -36 17 -9 38
-61 86 -86 80 -21 -6 -22 -14 -5 -55 10 -25 -15 -23 -47 2 l-25 19 -11 -24
c-13 -27 -32 -34 -32 -11 0 24 -18 28 -42 12 -40 -28 -46 -19 -23 37 5 13 2
17 -13 17 -27 0 -35 15 -17 30 8 7 15 17 15 23 0 5 -8 4 -17 -5 -10 -8 -30
-19 -45 -26 -15 -6 -39 -29 -54 -52 -28 -42 -44 -51 -44 -24 0 35 42 83 90
106 27 13 49 29 50 37 0 9 7 11 23 7 67 -19 64 -19 70 13 8 38 20 39 36 5z
m373 -22 c6 -12 18 -20 25 -18 7 3 13 1 13 -5 0 -6 9 -8 19 -4 16 5 20 1 18
-17 0 -13 -6 -26 -12 -30 -14 -10 -75 2 -100 19 -19 13 -18 14 8 7 27 -6 32 0
21 30 -5 14 -8 14 -30 -1 -23 -14 -26 -14 -44 2 -20 18 -20 18 2 30 35 18 66
13 80 -13z m-802 -22 c0 -5 -4 -10 -10 -10 -5 0 -10 5 -10 10 0 6 5 10 10 10
6 0 10 -4 10 -10z m-500 -20 c0 -5 -4 -10 -10 -10 -5 0 -10 5 -10 10 0 6 5 10
10 10 6 0 10 -4 10 -10z m1774 -25 c-4 -8 -10 -15 -15 -15 -4 0 -6 7 -3 15 4
8 10 15 15 15 4 0 6 -7 3 -15z m-1748 -10 c-4 -11 1 -15 17 -15 33 0 49 -14
50 -44 1 -14 8 -26 15 -26 6 0 12 -7 12 -15 0 -14 -3 -14 -31 0 -21 11 -29 21
-25 32 9 22 -11 41 -50 49 -32 6 -33 8 -17 20 24 18 36 17 29 -1z m360 -50
c-1 -5 -16 -11 -32 -12 -16 -1 -66 -5 -111 -9 -75 -6 -83 -5 -83 10 0 14 6 16
29 11 21 -4 30 -2 34 9 4 9 11 16 18 16 6 0 9 -7 5 -15 -4 -11 2 -15 20 -15
21 0 24 3 19 23 -6 22 -6 22 15 -2 11 -13 24 -20 28 -16 4 4 2 10 -5 12 -7 2
-10 10 -7 17 4 10 12 10 39 -3 19 -9 33 -20 31 -26z m1174 25 c0 -5 -4 -10
-10 -10 -5 0 -10 -7 -10 -17 0 -9 -3 -14 -6 -10 -8 8 5 47 17 47 5 0 9 -4 9
-10z m-1555 -22 c-19 -11 -30 -5 -21 11 4 6 14 7 22 4 15 -5 14 -7 -1 -15z
m1585 2 c0 -11 -7 -20 -15 -20 -18 0 -19 12 -3 28 16 16 18 15 18 -8z m215
-176 c5 -56 3 -84 -4 -88 -8 -5 -11 13 -11 56 0 78 -10 138 -22 138 -5 0 -6
-9 -3 -20 4 -11 2 -20 -4 -20 -16 0 -13 32 5 58 9 13 13 30 10 38 -3 9 -3 21
1 27 8 12 16 -39 28 -189z m-47 162 c-1 -14 -6 -22 -10 -20 -4 3 -8 -18 -8
-47 l0 -52 -20 23 c-13 15 -26 21 -40 17 -33 -8 -23 12 28 58 26 25 48 44 49
45 2 0 2 -11 1 -24z m-979 -39 c-2 -2 -16 -7 -31 -11 -26 -6 -28 -4 -28 22 0
41 11 46 39 18 14 -14 23 -27 20 -29z m-774 23 c-28 -12 -37 -12 -30 0 3 6 16
10 28 9 21 0 21 -1 2 -9z m1085 -19 c0 -31 -14 -49 -25 -31 -10 16 -28 12 -22
-4 4 -10 1 -13 -9 -9 -23 9 -16 41 14 56 39 21 42 20 42 -12z m-500 5 c0 -3
-4 -8 -10 -11 -5 -3 -10 -1 -10 4 0 6 5 11 10 11 6 0 10 -2 10 -4z m-250 -159
c3 -48 9 -72 19 -75 8 -3 11 0 7 7 -4 6 2 15 16 20 21 9 21 10 3 11 -18 1 -17
3 5 12 24 11 25 12 3 15 -21 4 -21 5 -3 23 10 10 29 20 42 22 23 3 23 2 24
-112 1 -63 3 -153 5 -200 1 -47 -1 -91 -5 -98 -9 -14 -76 -16 -76 -2 0 6 10
11 23 11 l22 2 -22 4 c-27 5 -31 23 -5 24 15 0 14 1 -3 8 -19 8 -19 8 0 19 19
11 19 11 1 12 -15 0 -16 3 -6 15 10 12 10 15 -1 16 -10 0 -11 2 -1 6 18 7 15
23 -5 23 -14 0 -15 2 -4 9 7 5 11 13 7 19 -3 6 0 12 6 15 9 3 7 7 -5 12 -17 7
-17 8 0 21 15 11 15 13 3 14 -12 0 -12 2 -1 9 10 7 10 12 -5 30 -41 47 -45 32
-43 -151 1 -172 1 -173 -22 -186 -23 -13 -22 -13 13 -7 25 4 41 1 51 -10 23
-23 39 -19 32 8 -5 17 -4 18 4 7 5 -8 13 -11 17 -7 4 4 -1 16 -11 27 -10 11
-16 22 -14 24 2 2 30 6 62 9 63 5 64 4 43 -54 -20 -57 -61 -103 -113 -128 -27
-12 -56 -26 -65 -32 -21 -11 -105 -12 -111 -1 -3 4 4 18 15 32 16 20 22 22 39
12 28 -18 39 -15 39 13 0 14 -4 25 -10 25 -5 0 -10 9 -10 20 0 11 -4 20 -10
20 -5 0 -10 7 -10 15 0 31 -18 14 -25 -23 -12 -76 -25 -70 -26 13 -4 261 -5
621 -2 628 3 4 28 -11 56 -34 l52 -41 5 -71z m-300 132 c0 -6 7 -9 15 -6 18 7
27 -6 19 -27 -8 -22 -32 -20 -30 2 1 12 -6 17 -21 16 -13 0 -23 5 -23 13 0 7
9 13 20 13 11 0 20 -5 20 -11z m830 1 c0 -5 -7 -10 -15 -10 -8 0 -15 5 -15 10
0 6 7 10 15 10 8 0 15 -4 15 -10z m-195 -6 c13 -5 14 -8 3 -15 -22 -14 -58
-10 -58 6 0 16 26 20 55 9z m497 -21 c-3 -20 0 -21 32 -16 19 3 57 2 83 -2 43
-7 46 -8 26 -18 -28 -13 -30 -31 -3 -24 13 3 20 0 20 -9 0 -8 -7 -14 -15 -14
-8 0 -15 -5 -15 -11 0 -6 7 -9 15 -5 10 3 15 -1 15 -14 0 -27 -60 -70 -90 -64
-14 2 -18 1 -10 -3 8 -3 20 -13 26 -21 9 -12 13 -10 27 12 18 27 47 35 47 13
0 -7 -12 -20 -27 -30 l-28 -18 27 5 28 6 -5 -72 c-2 -40 -4 -77 -4 -82 -1 -4
-7 -6 -15 -3 -7 3 -18 1 -24 -5 -16 -16 -28 40 -13 63 6 10 11 22 11 26 0 5
-5 0 -11 -10 -9 -15 -13 -16 -27 -5 -13 11 -15 11 -9 -5 6 -16 5 -16 -18 -1
-14 9 -25 20 -25 25 0 9 7 11 40 13 22 2 24 35 4 57 -12 14 -21 16 -30 9 -20
-18 -34 38 -17 72 15 30 70 63 76 45 1 -5 8 -8 14 -6 8 3 7 10 -3 23 -13 18
-15 18 -32 3 -10 -9 -27 -17 -36 -17 -15 0 -15 3 5 19 22 18 22 20 7 26 -10 4
-25 5 -33 1 -8 -3 -15 -1 -15 4 0 4 -13 11 -30 15 -34 7 -38 19 -12 34 26 16
47 8 44 -16z m-442 3 c0 -3 -4 -8 -10 -11 -5 -3 -10 -1 -10 4 0 6 5 11 10 11
6 0 10 -2 10 -4z m-700 -16 c0 -5 -4 -10 -10 -10 -5 0 -10 5 -10 10 0 6 5 10
10 10 6 0 10 -4 10 -10z m100 -16 c0 -8 -7 -14 -15 -14 -17 0 -18 2 -9 24 7
18 24 12 24 -10z m725 16 c3 -5 -1 -10 -9 -10 -9 0 -16 5 -16 10 0 6 4 10 9
10 6 0 13 -4 16 -10z m130 0 c-3 -5 -10 -10 -16 -10 -5 0 -9 5 -9 10 0 6 7 10
16 10 8 0 12 -4 9 -10z m131 -17 c-8 -8 -36 5 -36 17 0 7 6 7 21 0 11 -7 18
-14 15 -17z m-321 7 c-3 -5 -10 -10 -16 -10 -5 0 -9 5 -9 10 0 6 7 10 16 10 8
0 12 -4 9 -10z m240 0 c3 -5 -1 -10 -10 -10 -9 0 -13 5 -10 10 3 6 8 10 10 10
2 0 7 -4 10 -10z m415 -10 c0 -5 -20 -10 -44 -10 -25 0 -48 5 -51 10 -4 6 13
10 44 10 28 0 51 -4 51 -10z m262 -97 c2 -60 0 -112 -4 -117 -5 -6 -8 -2 -9
10 -7 141 -7 214 0 214 5 0 11 -48 13 -107z m-1262 87 c0 -5 -20 -10 -45 -10
-25 0 -45 5 -45 10 0 6 20 10 45 10 25 0 45 -4 45 -10z m143 3 c2 -5 7 -21 11
-37 l7 -30 -18 23 c-13 16 -30 23 -61 24 -62 3 -56 27 7 27 28 0 52 -3 54 -7z
m-566 -25 c-3 -8 -6 -5 -6 6 -1 11 2 17 5 13 3 -3 4 -12 1 -19z m623 12 c0 -5
-4 -10 -10 -10 -5 0 -10 5 -10 10 0 6 5 10 10 10 6 0 10 -4 10 -10z m315 0
c-3 -5 -10 -10 -16 -10 -5 0 -9 5 -9 10 0 6 7 10 16 10 8 0 12 -4 9 -10z m703
-13 c2 -10 -3 -17 -12 -17 -10 0 -16 9 -16 21 0 24 23 21 28 -4z m102 20 c0
-1 -4 -18 -10 -37 -5 -18 -6 -36 -1 -39 4 -4 11 -25 14 -47 5 -31 3 -45 -8
-54 -23 -19 -30 12 -27 123 2 43 6 57 17 57 8 0 15 -1 15 -3z m-946 -17 c-5
-5 -27 -12 -49 -15 -36 -6 -38 -5 -21 8 21 15 85 22 70 7z m271 0 c3 -5 -1
-10 -9 -10 -8 0 -18 5 -21 10 -3 6 1 10 9 10 8 0 18 -4 21 -10z m55 0 c0 -5
-2 -10 -4 -10 -3 0 -8 5 -11 10 -3 6 -1 10 4 10 6 0 11 -4 11 -10z m-1020 -10
c18 0 16 -47 -2 -59 -16 -10 -20 -8 -27 11 -5 14 -5 28 1 35 5 6 5 13 1 15 -4
3 -2 3 5 1 8 -1 17 -3 22 -3z m884 4 c23 -9 20 -24 -4 -24 -11 0 -20 7 -20 15
0 17 2 18 24 9z m394 -21 c6 -15 12 -35 12 -44 0 -10 6 -20 13 -23 9 -5 9 -7
-2 -12 -11 -5 -11 -8 0 -16 11 -8 11 -11 1 -15 -10 -4 -10 -8 -1 -19 9 -11 8
-14 -5 -14 -25 0 -19 -20 7 -21 l22 -2 -22 -4 c-24 -5 -32 -22 -10 -24 10 0
10 -2 0 -6 -20 -8 -15 -23 8 -23 11 0 18 -4 14 -10 -3 -5 -12 -7 -20 -3 -11 4
-15 -2 -15 -21 0 -16 6 -26 15 -26 8 0 15 -4 15 -10 0 -5 -8 -10 -17 -10 -15
0 -14 -2 3 -15 17 -13 17 -14 2 -15 -10 0 -18 -4 -18 -10 0 -5 8 -11 18 -11
16 -1 16 -2 0 -6 -10 -2 -18 -8 -18 -13 0 -5 8 -11 18 -13 13 -4 11 -5 -5 -6
-13 0 -23 -5 -23 -11 0 -5 -6 -10 -13 -10 -15 0 -24 146 -19 315 4 127 14 153
40 98z m-898 -4 c0 -5 -4 -9 -10 -9 -5 0 -10 7 -10 16 0 8 5 12 10 9 6 -3 10
-10 10 -16z m446 -10 c65 -31 71 -45 21 -47 -44 -3 -68 -22 -63 -50 2 -10 6
-34 10 -54 7 -38 6 -38 -25 -38 -31 0 -31 -1 -14 -14 33 -24 60 -5 60 40 0 37
2 39 35 44 23 3 36 11 38 23 2 9 -2 17 -10 17 -7 0 0 7 17 16 27 14 30 14 42
-2 7 -10 13 -29 13 -43 0 -14 13 -38 30 -56 28 -29 29 -33 15 -45 -14 -12 -18
-11 -26 1 -5 8 -9 23 -10 34 0 11 -3 14 -6 7 -10 -26 -23 1 -23 49 0 27 -4 49
-10 49 -5 0 -10 -24 -10 -52 0 -39 -8 -69 -31 -115 -17 -34 -37 -68 -45 -74
-25 -20 -130 -16 -155 7 -39 35 -79 129 -79 184 0 27 4 50 9 50 5 0 24 2 42 5
27 4 29 3 9 -3 -14 -4 -26 -16 -28 -25 -3 -14 4 -17 40 -17 43 1 78 18 78 38
0 12 -15 17 -75 28 -39 7 -39 7 -15 18 14 6 30 16 35 23 9 10 34 18 74 22 8 0
34 -8 57 -20z m-348 -15 c5 3 15 -1 22 -9 10 -12 10 -15 0 -15 -7 0 -10 -7 -6
-15 3 -9 0 -15 -9 -15 -8 0 -20 -9 -27 -20 -11 -18 -14 -18 -30 -3 -11 10 -18
12 -18 5 0 -7 5 -12 10 -12 6 0 10 -5 10 -11 0 -6 -8 -8 -19 -4 -24 7 -37 -11
-21 -30 10 -12 9 -15 -9 -15 -19 0 -21 6 -21 50 0 28 0 52 0 55 0 3 3 4 8 3 4
-2 7 -11 6 -20 -1 -25 13 -22 22 4 4 13 2 24 -5 26 -16 5 -14 22 3 22 7 0 19
7 26 15 12 14 15 14 31 -1 10 -9 22 -13 27 -10z m47 16 c3 -5 1 -10 -4 -10 -6
0 -11 5 -11 10 0 6 2 10 4 10 3 0 8 -4 11 -10z m430 -1 c11 -17 -1 -21 -15 -4
-8 9 -8 15 -2 15 6 0 14 -5 17 -11z m582 -38 c-2 -15 -7 -32 -11 -39 -4 -7 -2
-12 6 -12 9 0 9 -3 -2 -10 -13 -9 -13 -11 0 -19 8 -6 11 -14 6 -18 -4 -4 -14
0 -21 11 -13 18 -35 15 -35 -5 0 -6 5 -7 10 -4 6 3 17 -1 25 -9 14 -13 13 -16
-4 -25 -14 -8 -22 -7 -31 4 -10 13 -9 29 5 83 22 82 22 82 40 76 9 -4 13 -16
12 -33z m-1467 19 c0 -5 -4 -10 -10 -10 -5 0 -10 5 -10 10 0 6 5 10 10 10 6 0
10 -4 10 -10z m510 -45 l-20 -39 0 36 c0 25 6 40 18 47 24 14 25 1 2 -44z
m-662 38 c-10 -2 -18 -9 -18 -14 0 -5 8 -9 18 -10 14 0 14 -2 -3 -8 -25 -11
-35 -5 -35 20 0 14 7 19 28 18 16 -1 20 -3 10 -6z m1012 -3 c0 -5 -2 -10 -4
-10 -3 0 -8 5 -11 10 -3 6 -1 10 4 10 6 0 11 -4 11 -10z m50 -41 c0 -36 -11
-37 -27 -2 -10 21 -10 29 -1 34 18 12 28 1 28 -32z m-961 17 c7 -8 14 -34 16
-58 2 -24 8 -59 14 -78 6 -19 11 -49 11 -67 0 -29 -4 -33 -42 -43 -24 -6 -55
-18 -70 -25 -24 -12 -28 -12 -28 0 0 8 9 15 20 15 11 0 20 3 20 8 0 4 10 12
22 17 13 6 24 19 25 30 2 11 0 14 -3 8 -3 -7 -10 -13 -15 -13 -6 0 -7 5 -3 12
5 8 -2 9 -24 5 -27 -6 -32 -4 -32 13 0 20 17 36 28 25 3 -3 0 -10 -8 -15 -13
-8 -12 -10 2 -10 30 0 46 11 41 29 -3 13 -11 17 -29 13 -14 -2 -24 0 -24 7 0
6 5 11 11 11 5 0 26 11 45 24 25 17 32 26 23 32 -7 4 -14 3 -17 -4 -5 -15 -52
-16 -52 -2 0 6 7 10 15 10 8 0 15 4 15 10 0 5 -7 7 -15 4 -8 -4 -15 -1 -15 6
0 8 11 11 30 8 17 -3 33 -1 36 4 3 4 -4 8 -15 8 -21 0 -27 11 -14 23 10 11 19
8 32 -7z m-206 -107 c-4 -4 -6 13 -3 39 l5 47 3 -39 c2 -21 0 -42 -5 -47z m77
56 c0 -8 -4 -17 -10 -20 -6 -4 -10 5 -10 20 0 15 4 24 10 20 6 -3 10 -12 10
-20z m1800 6 c0 -11 -4 -23 -10 -26 -6 -4 -10 5 -10 19 0 14 5 26 10 26 6 0
10 -9 10 -19z m-1784 -96 c-12 -18 -13 -25 -3 -29 9 -5 9 -7 0 -12 -7 -3 -9
-12 -6 -20 3 -9 -1 -14 -12 -14 -15 0 -17 8 -13 55 4 41 1 55 -9 55 -22 0 -14
17 11 24 14 3 28 16 33 29 7 18 9 15 11 -21 2 -27 -3 -53 -12 -67z m584 95 c0
-5 -5 -10 -10 -10 -6 0 -16 -11 -22 -25 -10 -23 -48 -36 -48 -16 0 12 26 32
33 25 3 -3 12 3 19 15 14 22 28 28 28 11z m520 -20 c0 -5 -6 -10 -14 -10 -8 0
-18 5 -21 10 -3 6 3 10 14 10 12 0 21 -4 21 -10z m60 -33 c0 -5 -7 -4 -15 3
-8 7 -15 20 -15 29 1 13 3 13 15 -3 8 -11 15 -24 15 -29z m-553 3 c0 -16 -4
-30 -8 -30 -12 0 -17 38 -6 49 14 14 14 15 14 -19z m53 15 c0 -8 -4 -15 -10
-15 -5 0 -10 7 -10 15 0 8 5 15 10 15 6 0 10 -7 10 -15z m538 -3 c3 -9 -2 -13
-14 -10 -9 1 -19 9 -22 16 -3 9 2 13 14 10 9 -1 19 -9 22 -16z m539 -6 c-3 -7
-1 -18 4 -23 12 -12 2 -40 -17 -47 -9 -4 -15 2 -16 17 0 12 -2 29 -2 37 -1 8
5 18 14 22 22 10 23 9 17 -6z m-1160 -38 c-3 -8 -6 -5 -6 6 -1 11 2 17 5 13 3
-3 4 -12 1 -19z m83 -22 c13 -48 2 -86 -25 -86 -8 0 -15 -4 -15 -10 0 -5 12
-10 26 -10 14 0 23 -4 19 -10 -4 -6 -11 -8 -16 -5 -5 4 -9 1 -9 -4 0 -20 -32
-11 -52 14 -11 14 -23 23 -28 20 -15 -9 -21 12 -10 39 5 14 17 26 26 26 10 0
14 -5 11 -15 -8 -20 11 -29 29 -14 13 10 12 15 -7 36 -13 12 -17 23 -11 23 7
0 12 -5 12 -11 0 -6 6 -9 13 -6 7 2 11 15 9 30 -5 43 14 31 28 -17z m1020 35
c0 -6 -4 -13 -10 -16 -5 -3 -10 1 -10 9 0 9 5 16 10 16 6 0 10 -4 10 -9z
m-110 -29 c0 -12 3 -13 12 -4 7 7 23 11 38 11 23 -2 23 -2 3 -6 -13 -2 -23
-11 -23 -19 0 -19 -36 -18 -44 2 -9 24 -7 46 4 39 6 -3 10 -14 10 -23z m-1050
-7 c0 -14 -3 -25 -7 -26 -5 0 -17 -2 -29 -4 -17 -4 -21 1 -22 25 -1 27 3 30
29 30 24 0 29 -4 29 -25z m660 -26 c0 -6 -7 -6 -20 1 -11 6 -20 15 -20 21 0 6
7 6 20 -1 11 -6 20 -15 20 -21z m500 21 c0 -5 -4 -10 -10 -10 -5 0 -10 5 -10
10 0 6 5 10 10 10 6 0 10 -4 10 -10z m97 -22 c-3 -7 -5 -2 -5 12 0 14 2 19 5
13 2 -7 2 -19 0 -25z m-627 -15 c17 -14 30 -35 30 -45 0 -17 -1 -18 -25 -2
-14 9 -25 25 -25 35 0 11 -7 19 -15 19 -8 0 -15 5 -15 10 0 17 19 11 50 -17z
m490 23 c0 -11 -19 -15 -25 -6 -3 5 1 10 9 10 9 0 16 -2 16 -4z m-428 -31 c3
-14 1 -25 -3 -25 -5 0 -9 11 -9 25 0 14 2 25 4 25 2 0 6 -11 8 -25z m368 -5
c0 -6 -11 -10 -25 -10 -23 0 -34 18 -19 33 9 8 44 -11 44 -23z m100 10 c0 -5
-4 -10 -10 -10 -5 0 -10 5 -10 10 0 6 5 10 10 10 6 0 10 -4 10 -10z m78 -18
c4 -24 -21 -51 -45 -52 -14 0 -17 37 -7 65 10 24 48 15 52 -13z m-648 -23 c0
-12 -54 -3 -58 10 -2 6 3 11 12 11 9 0 16 6 16 13 1 12 30 -21 30 -34z m-620
21 c0 -5 -9 -10 -20 -10 -11 0 -20 5 -20 10 0 6 9 10 20 10 11 0 20 -4 20 -10z
m570 -56 c0 -19 -26 -18 -34 2 -3 9 -6 25 -6 37 1 22 1 22 20 -2 11 -13 20
-29 20 -37z m-532 25 c8 -13 19 -19 30 -15 13 5 12 2 -3 -9 -28 -22 -49 -15
-53 18 -4 32 8 35 26 6z m767 11 c7 -12 -5 -60 -15 -60 -4 0 -10 10 -14 23
l-6 22 -25 -28 c-15 -15 -30 -25 -35 -22 -12 8 12 64 30 69 29 7 59 6 65 -4z
m385 0 c0 -5 -7 -10 -15 -10 -8 0 -15 5 -15 10 0 6 7 10 15 10 8 0 15 -4 15
-10z m-1780 -30 c0 -24 -4 -30 -22 -30 -17 0 -19 3 -10 12 7 7 12 20 12 30 0
10 5 18 10 18 6 0 10 -13 10 -30z m84 14 c4 -9 4 -25 1 -35 -4 -11 -2 -19 4
-19 6 0 8 -7 5 -15 -4 -8 -12 -15 -20 -15 -10 0 -13 14 -11 50 2 51 10 63 21
34z m1636 3 c0 -14 -19 -37 -31 -37 -4 0 -9 11 -11 25 -4 21 -1 25 18 25 13 0
24 -6 24 -13z m-1150 -12 c0 -8 -4 -15 -10 -15 -5 0 -10 7 -10 15 0 8 5 15 10
15 6 0 10 -7 10 -15z m-300 -126 c0 -72 -5 -139 -10 -149 -10 -18 -13 -18 -51
-5 -52 19 -49 19 -49 -5 0 -12 16 -31 40 -48 37 -25 39 -30 40 -77 0 -89 -45
-296 -73 -333 -18 -24 -29 -7 -31 48 -1 30 -6 152 -10 270 l-8 215 38 32 c22
18 50 40 63 51 22 17 23 22 13 52 -21 58 -16 72 31 79 4 0 7 -58 7 -130z m785
89 c-4 -24 -8 -47 -9 -52 0 -6 10 -10 24 -10 20 -1 26 -7 28 -28 2 -15 -2 -37
-8 -48 -17 -31 -2 -39 21 -11 25 31 25 83 -1 106 -30 27 -25 34 23 28 50 -7
54 -10 39 -25 -7 -7 -12 -24 -12 -39 0 -83 -24 -109 -118 -130 -54 -11 -64
-24 -51 -70 5 -19 2 -29 -12 -37 -12 -8 -19 -8 -19 -2 0 5 -7 10 -16 10 -13 0
-15 7 -11 33 7 47 -1 55 -63 63 -99 12 -128 39 -150 140 -12 53 -4 70 29 59
18 -5 21 -12 16 -38 -13 -66 28 -110 112 -122 21 -3 51 -8 66 -11 21 -4 34 0
48 15 19 21 14 26 -19 22 -7 -1 -15 5 -18 14 -10 25 -27 17 -20 -10 5 -21 3
-25 -18 -25 -30 0 -89 24 -110 45 -9 9 -16 31 -16 48 l1 32 18 -22 c23 -28 31
-29 31 -4 0 10 8 29 18 40 l17 22 22 -20 c27 -26 33 -26 33 -3 0 13 13 22 49
31 28 7 55 19 62 27 18 22 21 17 14 -28z m-845 7 c0 -22 -4 -25 -35 -25 -39 0
-48 21 -17 39 31 19 52 13 52 -14z m1028 -24 c1 -47 39 -126 79 -162 40 -37
112 -76 154 -84 39 -7 150 17 183 41 37 26 40 14 5 -22 -34 -36 -72 -60 -119
-75 -17 -6 -10 -7 23 -3 27 3 47 1 47 -4 0 -12 -26 -19 -114 -28 -50 -5 -67
-4 -62 5 4 6 19 11 34 12 15 0 -6 7 -46 14 -58 11 -82 21 -118 50 -25 20 -52
48 -61 62 l-16 24 -18 -28 c-47 -71 -2 -226 107 -369 35 -45 42 -68 24 -79 -5
-3 -10 0 -10 8 0 9 -23 34 -50 57 -55 46 -83 92 -94 154 -10 53 -36 116 -48
116 -6 0 -7 -8 -3 -17 4 -10 15 -45 25 -78 26 -93 48 -137 87 -177 20 -21 34
-40 31 -44 -4 -3 -37 11 -73 31 -43 23 -71 33 -77 27 -6 -6 10 -21 46 -41 55
-32 145 -101 131 -101 -4 0 -49 23 -100 50 -51 28 -95 50 -99 50 -17 0 -2 -18
31 -35 20 -11 53 -33 73 -50 20 -16 47 -38 61 -47 13 -9 19 -17 13 -17 -6 -1
-58 30 -115 68 -57 38 -107 67 -111 65 -14 -9 -2 -19 102 -88 55 -37 100 -72
100 -77 0 -15 -10 -11 -53 24 -23 19 -69 48 -101 65 -51 27 -70 32 -131 32
-71 0 -73 -1 -110 -39 -21 -22 -44 -37 -52 -34 -15 6 -58 -9 -126 -44 -26 -13
-53 -23 -59 -21 -9 3 17 18 132 73 14 7 37 15 53 19 15 3 27 11 27 17 0 13
-51 4 -100 -18 -19 -9 -45 -17 -58 -19 -19 -2 -21 0 -11 12 6 8 18 14 25 14 8
0 41 12 75 27 45 20 56 29 45 35 -10 6 -24 3 -38 -6 -13 -8 -43 -18 -68 -21
-44 -5 -43 -5 23 21 70 28 91 51 35 39 -18 -4 -53 -16 -77 -26 -47 -21 -78
-25 -46 -7 11 6 26 19 33 29 6 10 26 21 44 24 27 6 29 9 14 17 -12 7 -26 7
-42 -1 -19 -8 -24 -8 -24 4 0 8 -9 15 -20 15 -11 0 -20 -4 -20 -10 0 -15 -42
-34 -75 -34 -30 -1 -32 -5 -19 -41 7 -18 6 -18 -9 -6 -33 27 -20 62 48 136 69
73 111 140 145 233 l21 54 -22 44 c-12 25 -25 41 -31 37 -7 -3 -8 -1 -4 5 4 6
0 28 -9 48 -19 46 -20 84 -1 84 15 0 26 -21 26 -48 0 -22 51 -122 62 -122 5 0
13 -11 18 -24 7 -20 18 -26 57 -31 66 -9 73 -12 73 -31 0 -14 -7 -16 -42 -10
-24 4 -52 8 -63 9 -11 0 -23 5 -27 11 -4 6 -10 7 -13 4 -4 -4 5 -19 19 -35 26
-28 19 -46 -9 -23 -19 16 -31 6 -57 -43 -28 -55 -86 -133 -137 -182 -43 -43
-49 -55 -27 -55 36 0 133 121 184 227 18 38 28 40 62 12 l25 -21 -33 6 c-54 9
-33 -17 21 -28 47 -9 73 -2 49 13 -10 6 -10 11 3 21 13 11 15 3 15 -68 0 -55
4 -81 13 -83 6 -2 41 -1 77 2 l65 6 -66 1 c-76 2 -78 6 -71 94 l4 46 65 4 c36
2 67 1 69 -1 2 -2 4 -38 4 -80 0 -53 3 -71 10 -61 11 17 14 119 4 144 -5 13
-23 16 -89 16 -58 0 -86 4 -94 14 -9 11 -4 14 26 19 27 5 39 2 48 -10 11 -15
14 -15 36 0 26 19 84 24 73 6 -3 -6 -15 -9 -25 -6 -11 3 -19 1 -19 -4 0 -5 12
-9 28 -9 16 0 32 -8 40 -20 7 -11 21 -20 32 -20 31 0 24 20 -7 21 l-28 0 23
16 c34 24 29 53 -10 54 -63 3 -68 4 -69 12 -2 20 10 26 61 30 62 5 90 14 90
31 1 6 11 24 25 40 19 24 22 34 14 55 -9 23 -5 99 7 144 9 29 22 10 22 -32z
m539 43 c-3 -3 -12 -4 -19 -1 -8 3 -5 6 6 6 11 1 17 -2 13 -5z m76 -34 c-4 -4
-18 -11 -30 -15 -17 -5 -23 -2 -23 9 0 9 9 16 20 16 11 0 24 8 28 18 6 16 7
16 10 -2 2 -10 0 -22 -5 -26z m-1163 15 c0 -8 -7 -15 -15 -15 -16 0 -20 12 -8
23 11 12 23 8 23 -8z m687 -31 c-2 -3 -17 -2 -31 2 -24 6 -25 7 -9 19 14 10
20 10 31 -2 8 -8 12 -16 9 -19z m-787 16 c0 -5 -4 -10 -9 -10 -6 0 -13 5 -16
10 -3 6 1 10 9 10 9 0 16 -4 16 -10z m1180 5 c0 -19 -17 -35 -36 -35 -38 0
-32 35 6 36 17 1 30 0 30 -1z m-1136 -58 c25 -97 -75 -241 -185 -267 -28 -7
-72 -10 -99 -8 -48 5 -160 53 -160 70 0 10 -3 10 45 -7 153 -55 315 31 363
193 7 23 10 47 6 54 -4 6 -1 9 7 6 8 -2 18 -21 23 -41z m703 30 c7 0 11 -9 10
-20 -3 -33 28 -45 64 -24 34 19 65 22 74 7 3 -5 1 -10 -4 -10 -6 0 -11 -13
-11 -30 0 -28 3 -30 34 -30 28 0 38 -5 48 -27 7 -15 23 -30 36 -33 52 -12 6
-50 -60 -50 -119 0 -242 93 -262 199 -6 33 -6 33 27 26 17 -4 37 -7 44 -8z
m363 -8 c0 -5 -4 -9 -10 -9 -5 0 -10 7 -10 16 0 8 5 12 10 9 6 -3 10 -10 10
-16z m-1565 -9 c-3 -5 -11 -10 -16 -10 -6 0 -7 5 -4 10 3 6 11 10 16 10 6 0 7
-4 4 -10z m66 -13 c-13 -13 -26 -3 -16 12 3 6 11 8 17 5 6 -4 6 -10 -1 -17z
m1649 13 c11 -7 11 -10 2 -10 -7 0 -10 -5 -7 -10 4 -6 10 -8 15 -5 5 3 12 0
16 -6 5 -8 -3 -10 -25 -7 -18 3 -31 0 -32 -6 -1 -6 -4 0 -8 14 -10 34 10 49
39 30z m-1729 -43 c-6 -6 -11 -19 -11 -29 0 -25 -42 -24 -65 2 -18 19 -17 21
6 43 22 20 26 21 52 8 21 -9 26 -16 18 -24z m1659 -2 c0 -12 -19 -12 -23 0 -4
9 -1 12 9 8 7 -3 14 -7 14 -8z m-37 -25 c7 -28 34 -36 56 -16 11 10 21 13 25
7 3 -5 5 -213 5 -463 -1 -249 1 -541 4 -648 4 -122 3 -184 -3 -166 -5 16 -18
38 -28 50 -23 25 -34 58 -61 188 -32 152 -27 215 25 290 25 36 26 39 10 56 -9
10 -16 35 -16 55 0 29 -4 37 -17 37 -17 0 -18 16 -16 214 2 117 -1 257 -5 310
-4 53 -6 99 -3 101 9 10 19 4 24 -15z m-228 0 c3 -5 -1 -10 -10 -10 -9 0 -13
5 -10 10 3 6 8 10 10 10 2 0 7 -4 10 -10z m-1497 -54 c26 -34 15 -66 -23 -66
-20 0 -25 5 -25 24 0 39 12 88 20 79 3 -4 16 -21 28 -37z m69 -8 c6 -7 13
-122 17 -258 4 -135 9 -263 13 -285 3 -22 2 -37 -1 -34 -4 4 -13 55 -21 115
-8 60 -19 133 -24 161 -12 61 -23 291 -15 304 7 13 20 11 31 -3z m803 -58 c0
-12 -17 -12 -45 0 -17 7 -15 9 13 9 17 1 32 -3 32 -9z m810 -233 c0 -161 -3
-208 -12 -205 -8 3 -18 43 -25 99 -7 52 -20 136 -29 187 l-17 93 34 28 c23 20
36 25 41 17 4 -6 8 -105 8 -219z m-1660 208 c0 -10 -10 -15 -32 -14 l-33 1 30
13 c17 8 31 14 33 15 1 0 2 -7 2 -15z m8 -167 c26 -152 46 -334 38 -354 -3 -8
1 -34 9 -57 19 -57 43 -211 50 -327 3 -52 9 -122 14 -155 7 -44 6 -63 -3 -73
-10 -10 -19 28 -44 185 -18 109 -37 243 -43 298 -6 55 -17 154 -25 220 -8 66
-19 161 -24 210 -6 50 -12 109 -15 133 -3 31 -1 42 9 42 9 0 19 -38 34 -122z
m1238 92 c-1 -16 -4 -30 -8 -30 -10 0 -10 22 -2 44 9 23 11 20 10 -14z m-828
-51 c-6 -22 -17 -43 -24 -46 -8 -3 -14 -13 -14 -23 0 -28 -16 -33 -49 -15 -17
8 -46 15 -66 15 -28 0 -35 4 -35 20 0 11 1 20 3 20 1 0 26 -7 54 -14 31 -8 55
-10 59 -5 5 9 -1 12 -78 40 -24 8 -38 19 -38 31 0 15 8 16 84 11 58 -4 85 -2
90 6 15 24 23 -1 14 -40z m916 35 c3 -8 2 -12 -4 -9 -6 3 -10 10 -10 16 0 14
7 11 14 -7z m-814 -14 c0 -5 -4 -10 -10 -10 -5 0 -10 5 -10 10 0 6 5 10 10 10
6 0 10 -4 10 -10z m-55 -10 c3 -5 1 -10 -4 -10 -6 0 -11 5 -11 10 0 6 2 10 4
10 3 0 8 -4 11 -10z m1105 -10 c0 -12 -59 -28 -82 -22 -10 2 -18 9 -18 14 0 6
-9 8 -20 5 -11 -3 -20 -1 -20 4 0 5 32 9 70 9 39 0 70 -4 70 -10z m-1050 -10
c0 -5 -4 -10 -10 -10 -5 0 -10 5 -10 10 0 6 5 10 10 10 6 0 10 -4 10 -10z
m-50 -20 c0 -5 -4 -10 -10 -10 -5 0 -10 5 -10 10 0 6 5 10 10 10 6 0 10 -4 10
-10z m1106 -24 c10 -8 16 -17 12 -21 -12 -12 -88 -18 -88 -7 0 6 15 13 33 15
24 3 21 4 -15 5 -27 1 -48 7 -48 12 0 15 84 12 106 -4z m-326 -27 c0 -6 -4 -7
-10 -4 -5 3 -10 11 -10 16 0 6 5 7 10 4 6 -3 10 -11 10 -16z m-918 -25 c4 -3
8 -14 8 -26 0 -19 -4 -20 -57 -14 -64 7 -77 15 -67 40 6 16 15 17 57 11 28 -3
54 -8 59 -11z m1256 -26 c3 -14 -3 -18 -27 -18 -17 0 -31 5 -31 11 0 7 -10 9
-25 7 -19 -4 -23 -2 -15 7 17 20 94 14 98 -7z m-143 2 c3 -5 1 -10 -4 -10 -6
0 -11 5 -11 10 0 6 2 10 4 10 3 0 8 -4 11 -10z m-1172 -36 c28 -6 33 -19 18
-42 -10 -17 -80 -6 -88 14 -9 23 5 46 24 40 10 -3 30 -8 46 -12z m1325 -31 c3
-20 -1 -23 -34 -23 -31 0 -35 2 -24 15 6 8 9 19 5 25 -5 8 2 10 21 8 21 -2 30
-9 32 -25z m-1351 -37 c12 -1 25 -4 29 -9 4 -4 16 0 25 9 17 16 19 16 25 0 4
-11 19 -16 49 -16 l42 0 2 -53 c1 -53 14 -142 27 -184 5 -20 3 -23 -20 -23
-51 0 -81 -56 -54 -99 9 -15 8 -26 -4 -51 -15 -30 -16 -31 -23 -11 -3 11 -11
21 -16 21 -5 0 -9 4 -9 9 0 5 9 7 20 4 11 -3 20 -1 20 5 0 19 -19 23 -42 10
-13 -7 -25 -14 -27 -15 -2 -1 10 -13 25 -27 36 -30 25 -46 -12 -17 -30 24 -44
27 -44 9 0 -7 14 -21 30 -30 17 -9 30 -22 30 -29 0 -8 -6 -7 -17 3 -24 21 -63
32 -63 19 0 -6 16 -18 37 -26 20 -8 33 -18 30 -21 -4 -4 -20 -1 -38 6 -25 11
-32 11 -39 0 -5 -7 -19 -11 -33 -8 -14 3 -32 1 -39 -3 -11 -7 -11 -9 0 -9 7 0
10 -4 7 -10 -9 -14 -31 -12 -34 3 -1 6 -4 37 -6 67 -10 108 -29 206 -47 242
-15 29 -17 41 -8 57 6 12 15 21 19 21 5 0 12 10 15 23 6 20 9 17 26 -23 18
-43 19 -44 19 -14 1 16 -4 35 -11 42 -9 9 -9 15 0 24 7 7 12 25 12 40 0 28 13
37 25 17 5 -7 14 -4 26 7 25 22 24 37 -1 29 -11 -3 -20 -2 -20 3 0 15 13 23
29 16 9 -4 26 -7 38 -8z m1353 -11 c0 -8 -9 -15 -19 -15 -29 0 -35 18 -9 23
13 2 24 5 26 6 1 0 2 -6 2 -14z m-1040 -14 c-19 -11 -39 -16 -44 -13 -6 3 6
11 25 18 50 18 59 16 19 -5z m906 -56 c15 -86 42 -187 43 -160 1 11 -8 67 -19
124 -11 58 -18 107 -15 109 3 3 14 -3 25 -13 10 -9 40 -20 65 -23 37 -4 45 -8
39 -21 -17 -43 -25 -86 -22 -129 l3 -47 13 72 c13 70 34 115 47 101 4 -4 0
-42 -9 -86 -9 -43 -16 -88 -15 -98 1 -18 7 1 30 89 6 23 16 37 25 37 10 0 14
-6 10 -15 -17 -46 -37 -127 -33 -138 2 -6 12 14 22 46 10 31 22 57 26 57 10 0
20 -43 11 -50 -5 -3 -18 -28 -30 -57 -26 -61 -27 -113 -7 -238 21 -128 22
-125 -24 -125 -24 0 -51 -9 -75 -25 -35 -23 -52 -15 -24 13 20 20 -1 26 -22 7
-16 -15 -20 -15 -20 -3 0 8 9 23 20 33 11 10 20 22 20 27 0 15 -19 8 -40 -14
-13 -14 -20 -17 -20 -8 0 8 12 27 27 42 29 30 21 37 -15 12 -20 -14 -22 -14
-22 0 0 9 5 16 10 16 6 0 10 5 10 11 0 6 -9 8 -22 4 -16 -6 -20 -4 -15 9 3 8
1 18 -4 22 -6 4 -2 15 12 30 24 26 19 45 -6 24 -22 -18 -31 -4 -12 18 19 21
23 42 5 24 -18 -18 -46 -15 -57 6 -7 14 -5 21 10 30 24 15 25 68 2 94 -11 13
-30 18 -65 18 -26 0 -48 3 -48 8 0 4 9 32 20 62 11 30 20 68 21 85 0 16 4 39
8 50 7 17 14 9 44 -50 40 -77 48 -82 17 -10 -25 57 -25 74 -2 91 33 26 46 12
58 -61z m-997 -25 c0 -9 -4 -8 -9 5 -5 11 -9 27 -9 35 0 9 4 8 9 -5 5 -11 9
-27 9 -35z m526 20 c3 -6 -1 -13 -9 -16 -13 -5 -10 -12 14 -36 17 -16 30 -33
30 -38 0 -9 -92 21 -102 34 -4 6 -12 6 -20 -1 -21 -16 -48 -23 -48 -13 0 6 7
10 15 10 9 0 12 6 9 15 -5 11 2 15 27 17 l34 1 -32 4 c-26 3 -38 -1 -55 -21
-45 -50 -171 -108 -260 -120 -68 -9 -49 10 21 21 90 14 135 37 196 99 49 50
51 51 112 52 34 1 65 -3 68 -8z m80 -39 c17 -11 50 -38 75 -60 36 -32 41 -40
25 -41 -39 0 -66 12 -55 24 12 15 -39 56 -68 56 -11 0 -22 9 -25 20 -7 25 9
26 48 1z m222 -33 c-3 -13 -10 -41 -16 -63 -13 -52 -2 -64 54 -57 49 5 54 -1
28 -30 -14 -16 -15 -22 -4 -40 7 -11 15 -61 18 -110 l5 -91 -28 7 c-47 12 -74
35 -95 79 -11 23 -27 54 -37 69 -16 25 -15 30 3 85 10 32 24 65 31 73 7 8 17
34 23 58 12 43 28 61 18 20z m-817 -45 c0 -31 -17 -37 -24 -9 -8 32 3 64 15
44 5 -7 9 -23 9 -35z m514 12 c16 -9 37 -13 48 -10 10 4 18 1 18 -5 0 -6 12
-15 26 -21 15 -5 25 -11 23 -14 -5 -5 -96 22 -122 36 -21 11 -60 2 -52 -12 4
-5 21 -9 39 -9 17 0 36 -4 42 -9 5 -5 36 -19 69 -31 55 -19 41 -21 -27 -4 -43
10 -33 -10 15 -29 41 -17 42 -17 7 -12 -19 3 -82 8 -139 12 -90 5 -101 8 -85
20 10 7 37 13 60 13 24 0 46 5 49 10 13 20 -95 11 -126 -11 -16 -11 -35 -19
-41 -17 -14 5 50 46 90 58 26 8 26 8 -8 9 -19 0 -46 -6 -60 -14 -38 -22 -46
-18 -14 8 60 48 133 60 188 32z m-1354 -15 c0 -5 -4 -10 -10 -10 -5 0 -10 5
-10 10 0 6 5 10 10 10 6 0 10 -4 10 -10z m872 -67 c2 -24 0 -43 -4 -43 -5 0
-7 26 -7 58 1 61 6 55 11 -15z m-804 -74 c0 -71 3 -133 6 -137 10 -9 26 19 26
45 0 23 17 40 28 28 4 -4 1 -10 -6 -12 -10 -4 -8 -9 5 -18 17 -13 17 -15 2
-27 -28 -22 -72 -101 -73 -130 -1 -15 -5 -28 -11 -28 -17 -1 -24 59 -24 224
-1 158 4 186 35 186 10 0 13 -29 12 -131z m1032 87 c0 -2 -7 -7 -16 -10 -8 -3
-12 -2 -9 4 6 10 25 14 25 6z m1680 -131 c0 -18 -6 -36 -12 -38 -10 -4 -10 -7
0 -15 9 -6 12 -26 10 -58 -2 -40 -7 -50 -23 -53 -11 -2 -24 -9 -28 -17 -17
-30 -24 -11 -30 79 -6 85 -4 97 20 154 l27 62 18 -41 c10 -22 18 -55 18 -73z
m-1660 96 c-8 -5 -37 -11 -65 -14 -58 -7 -49 -1 16 12 59 12 67 12 49 2z
m-292 -73 c-9 -90 -22 -155 -43 -203 -8 -21 -15 -48 -15 -61 0 -39 -17 -36
-22 4 -8 55 8 220 22 237 7 8 18 15 25 15 15 0 25 22 25 56 0 13 3 24 8 24 4
0 4 -33 0 -72z m620 26 c34 -4 62 -11 62 -17 0 -7 -40 -8 -122 -4 -66 4 -151
7 -187 7 -64 0 -75 12 -21 23 27 6 164 1 268 -9z m-1180 -57 l3 -57 -31 0
c-25 0 -30 4 -30 24 0 13 6 27 13 30 8 4 9 8 1 11 -17 8 7 56 26 53 11 -2 16
-19 18 -61z m815 38 c32 -8 67 -15 77 -15 11 0 34 -6 52 -14 18 -8 103 -33
188 -56 85 -23 169 -48 185 -55 17 -7 50 -21 75 -31 70 -27 73 -30 65 -93 -9
-69 -13 -76 -33 -58 -65 55 -258 131 -442 176 -101 24 -341 55 -376 48 -13 -2
-24 -1 -24 2 0 17 23 88 32 99 14 17 130 15 201 -3z m471 -71 c9 -35 -1 -44
-13 -11 -5 14 -15 28 -20 32 -6 3 -11 11 -11 16 0 20 38 -11 44 -37z m-1364
-9 c0 -8 -7 -15 -15 -15 -8 0 -15 7 -15 15 0 8 7 15 15 15 8 0 15 -7 15 -15z
m1595 -47 c4 -24 9 -47 11 -53 19 -61 34 -127 30 -133 -2 -4 -18 -9 -35 -10
l-31 -2 0 125 c0 125 10 155 25 73z m-785 -108 c-11 -58 -25 -118 -30 -135 -5
-16 -10 -52 -12 -80 l-3 -50 36 -9 c20 -5 45 -5 55 -1 11 4 26 7 34 6 13 -1
19 24 32 136 10 76 24 156 33 178 8 22 13 29 10 15 -5 -23 -14 -92 -34 -250
-5 -36 -7 -68 -5 -72 3 -4 28 -5 57 -2 28 2 57 4 62 5 6 0 19 0 30 -1 70 -2
124 1 128 7 5 10 -10 225 -18 266 -5 22 -4 29 3 22 13 -12 32 -147 32 -224 l0
-58 55 -2 c39 -1 53 3 50 12 -2 6 -6 57 -9 112 -7 125 9 97 19 -34 7 -87 9
-91 31 -91 20 0 24 5 26 33 l1 32 4 -32 c3 -25 9 -33 24 -33 10 0 19 6 19 13
0 14 -35 153 -46 181 -3 9 -2 16 4 16 5 0 12 -12 15 -27 4 -16 16 -64 28 -108
l21 -80 44 -1 c49 -2 48 -2 22 85 -15 47 8 63 82 59 49 -3 56 -6 68 -30 7 -16
20 -28 28 -28 12 0 14 -11 12 -46 -3 -44 -1 -48 32 -67 28 -16 48 -18 102 -15
59 5 101 -3 88 -16 -3 -2 -358 -7 -789 -11 -855 -7 -801 -11 -801 51 0 27 4
31 42 40 40 8 43 12 51 50 7 36 14 45 55 67 68 37 79 27 64 -56 -16 -83 -15
-84 8 -90 18 -4 20 0 21 36 0 23 5 65 9 92 l8 50 0 -50 c0 -27 0 -69 1 -92 l1
-43 64 0 64 0 10 43 c12 46 51 264 56 312 5 41 5 40 16 29 7 -7 3 -45 -10
-114z m-145 93 c-4 -10 -15 -49 -25 -86 -21 -77 -36 -103 -26 -42 11 63 39
145 49 145 5 0 6 -8 2 -17z m-139 -148 c-5 -18 -62 -65 -79 -65 -12 0 -7 70 7
93 7 12 26 45 42 72 l29 50 3 -65 c2 -35 1 -74 -2 -85z m386 115 c-5 -34 -23
-52 -42 -40 -12 8 -11 10 8 10 12 0 22 5 22 11 0 6 -9 9 -19 6 -10 -2 -25 -1
-32 4 -11 8 -10 12 6 25 30 23 61 15 57 -16z m-786 -14 c2 -21 -2 -29 -17 -33
-19 -5 -24 -15 -12 -26 3 -4 6 -30 7 -58 1 -32 6 -54 14 -56 7 -3 12 4 12 15
0 11 9 22 20 25 25 6 25 2 0 -38 -20 -32 -22 -33 -110 -39 -49 -4 -94 -5 -100
-1 -18 11 -11 27 10 20 14 -4 20 -2 20 8 0 9 -10 15 -25 15 -31 0 -31 -1 -38
40 -5 26 -3 32 12 32 10 0 21 -3 25 -7 11 -11 65 -12 72 -1 3 5 12 1 19 -9 13
-17 14 -17 21 0 4 12 -1 33 -15 57 -38 68 -27 88 48 86 30 -1 34 -5 37 -30z
m309 -4 c-3 -3 -11 0 -18 7 -9 10 -8 11 6 5 10 -3 15 -9 12 -12z m630 -133
c-9 -74 -19 -136 -21 -138 -11 -11 -10 13 2 119 8 63 14 124 13 135 -2 34 1
39 12 28 8 -8 6 -48 -6 -144z m-47 134 c-22 -5 -24 -39 -3 -47 16 -6 21 -26 7
-26 -5 0 -16 6 -26 13 -25 18 -12 67 18 66 16 -1 17 -2 4 -6z m116 -9 c3 -9 6
-72 6 -140 0 -101 -3 -124 -14 -124 -8 0 -18 5 -21 10 -5 8 -12 7 -23 -2 -15
-12 -15 -10 1 14 9 15 14 34 11 42 -3 9 -1 16 5 16 11 0 15 -19 12 -52 -1 -10
3 -18 8 -18 7 0 11 34 11 93 0 50 -4 87 -8 81 -5 -9 -11 -8 -20 2 -11 12 -9
14 8 14 13 0 20 5 17 13 -2 6 -12 11 -21 11 -9 -1 -16 2 -16 7 0 5 7 9 15 9
18 0 19 12 3 28 -9 9 -8 12 4 12 9 0 19 -7 22 -16z m-694 -36 c0 -15 -17 -8
-41 19 l-24 26 33 -19 c17 -10 32 -22 32 -26z m1870 -3 c0 -31 -4 -32 -117
-26 -18 1 -23 7 -23 26 0 27 24 35 34 10 7 -19 46 -20 46 -1 0 14 36 26 53 18
4 -2 7 -14 7 -27z m-1949 1 c1 -6 1 -18 0 -28 -1 -9 3 -19 9 -23 5 -3 10 -24
10 -46 0 -41 -29 -98 -69 -133 -36 -33 -36 -9 1 47 26 39 35 61 31 80 -6 30
-22 46 -25 25 0 -7 -4 10 -7 37 -3 28 -2 53 3 56 12 9 46 -1 47 -15z m359 -6
c0 -5 -2 -10 -4 -10 -3 0 -8 5 -11 10 -3 6 -1 10 4 10 6 0 11 -4 11 -10z m560
-34 c0 -6 -5 -18 -11 -26 -8 -12 -9 -9 -5 13 6 27 -8 39 -17 15 -3 -7 -6 -4
-6 8 -1 11 2 24 6 28 8 8 33 -21 33 -38z m1180 34 c0 -6 -10 -14 -22 -19 -25
-9 -68 -3 -68 10 0 5 -4 9 -10 9 -5 0 -10 -9 -10 -21 0 -11 -4 -18 -9 -15 -5
3 -7 15 -4 26 5 17 14 20 64 20 34 0 59 -4 59 -10z m-2812 -17 c-5 -25 -28
-28 -28 -4 0 12 6 21 16 21 9 0 14 -7 12 -17z m2857 -29 c7 16 9 16 17 2 11
-19 35 -21 41 -3 14 38 22 -26 25 -189 l4 -184 -25 0 c-15 0 -31 -9 -41 -25
-20 -31 -21 -55 0 -55 8 0 12 5 9 10 -3 6 1 10 11 10 11 0 15 6 11 20 -8 30 9
24 22 -8 7 -16 11 -60 9 -98 -3 -74 -4 -75 -62 -59 -26 7 -28 11 -23 47 4 33
3 39 -11 36 -11 -2 -17 -13 -17 -32 0 -16 -6 -31 -13 -34 -18 -6 -62 18 -62
33 0 17 24 65 33 65 4 0 7 9 7 20 0 26 16 26 30 -1 15 -27 24 -17 16 16 -9 36
-50 34 -70 -2 -19 -34 -18 -39 -16 139 1 93 -3 154 -10 167 -11 21 -17 21
-163 19 l-152 -3 3 -103 c2 -99 1 -103 -22 -113 -13 -6 -30 -23 -37 -38 -12
-23 -14 -4 -17 158 -1 101 0 186 3 189 3 3 57 5 120 5 78 -1 115 2 115 10 0 8
4 7 12 -1 16 -16 58 -15 59 1 0 10 2 10 6 0 6 -16 45 -17 61 -1 9 9 12 9 12 0
0 -16 42 -16 58 0 9 9 12 9 12 0 0 -22 20 -12 21 11 1 21 1 21 9 -3 6 -23 8
-23 15 -6z m-1819 -9 c-3 -10 1 -15 11 -15 13 0 14 -3 5 -12 -16 -16 -35 3
-26 25 3 9 8 17 11 17 3 0 3 -7 -1 -15z m-906 -15 c0 -5 -5 -10 -11 -10 -5 0
-7 -5 -4 -10 4 -6 15 -8 25 -5 14 5 19 -1 22 -32 3 -21 3 -41 1 -46 -8 -14
-23 4 -23 29 0 19 -5 24 -24 24 -30 0 -38 19 -18 43 17 19 32 22 32 7z m2072
-8 c30 -12 88 -99 88 -131 0 -45 -23 -61 -88 -61 -41 0 -53 3 -45 11 6 6 27
11 46 11 22 0 42 7 53 19 12 13 13 19 4 19 -10 0 -10 3 0 15 10 12 10 15 -1
15 -8 0 -28 17 -46 37 -38 46 -52 39 -23 -10 12 -20 19 -41 16 -46 -4 -5 1
-14 10 -19 9 -5 12 -12 7 -15 -18 -11 -85 60 -88 93 -1 17 -5 34 -9 37 -3 3
-1 12 5 20 12 14 43 16 71 5z m-1671 -48 c-11 -15 -21 -24 -21 -20 0 12 33 57
37 52 3 -3 -4 -17 -16 -32z m1289 25 c-11 -8 -12 -12 -2 -16 6 -2 12 -10 12
-16 0 -6 -7 -4 -16 5 -17 17 -12 38 9 38 7 0 6 -4 -3 -11z m-1060 -49 c0 -43
-3 -50 -20 -50 -24 0 -25 9 -5 36 8 10 15 29 15 42 0 12 2 22 5 22 3 0 5 -22
5 -50z m480 31 c0 -33 -19 -71 -34 -71 -16 0 -37 30 -35 52 0 10 2 10 6 1 2
-7 16 -13 29 -13 36 0 33 37 -3 43 -26 4 -26 4 5 6 25 1 32 -3 32 -18z m-1216
2 c4 -5 26 -12 49 -18 32 -8 43 -15 45 -32 2 -15 10 -23 23 -23 18 0 19 -8 19
-129 l0 -130 -27 -3 c-20 -2 -29 -9 -31 -25 -5 -33 -16 -29 -53 18 -26 33 -36
39 -55 35 -24 -6 -24 -5 -24 74 0 73 2 80 20 80 11 0 20 7 20 15 0 8 -9 15
-21 15 -17 0 -20 5 -17 33 2 24 8 32 22 32 11 0 21 6 24 13 3 9 -3 11 -22 6
-23 -5 -26 -3 -26 20 0 21 5 26 23 26 13 0 27 -3 31 -7z m1711 -10 c-2 -27
-20 -31 -23 -5 -2 14 2 22 11 22 7 0 13 -8 12 -17z m375 -13 c0 -32 -14 -40
-24 -14 -5 14 8 44 20 44 2 0 4 -13 4 -30z m-1532 -17 c-3 -21 1 -51 7 -68 25
-62 27 -75 11 -75 -10 0 -16 9 -16 23 0 12 -9 45 -19 72 -14 36 -16 56 -10 68
17 30 31 19 27 -20z m-320 16 c-2 -6 -7 -10 -11 -10 -4 1 -18 1 -32 1 -14 0
-25 5 -25 10 0 6 16 10 36 10 21 0 34 -4 32 -11z m805 -6 c-7 -2 -19 -2 -25 0
-7 3 -2 5 12 5 14 0 19 -2 13 -5z m571 -24 c-3 -5 -10 -7 -15 -3 -5 3 -7 10
-3 15 3 5 10 7 15 3 5 -3 7 -10 3 -15z m-583 -21 c20 -25 24 -38 10 -38 -5 0
-13 9 -16 20 -8 26 -22 26 -30 -1 -4 -11 -9 -18 -11 -16 -5 5 17 57 24 57 2 0
12 -10 23 -22z m1507 -35 l-2 -58 -3 53 c-5 68 -23 68 -23 -1 0 -61 5 -70 31
-56 15 8 19 21 19 65 0 34 4 53 10 49 6 -3 10 -31 10 -61 0 -31 4 -54 10 -54
7 0 9 20 4 60 -5 42 -3 60 5 60 6 0 11 -18 11 -42 0 -24 5 -50 10 -58 7 -11
10 2 10 43 0 31 5 57 10 57 6 0 10 -35 10 -85 0 -50 4 -85 10 -85 6 0 10 6 10
13 0 8 4 7 10 -3 5 -8 9 -85 8 -175 -2 -146 -2 -152 -8 -65 l-6 95 -2 -105
c-2 -74 -7 -111 -17 -124 -10 -13 -15 -15 -15 -6 0 7 -3 11 -6 8 -3 -3 -2 -22
2 -42 5 -30 9 -34 20 -25 12 10 13 1 8 -60 -5 -49 -3 -71 4 -71 7 0 12 35 15
98 3 93 3 92 5 -30 2 -128 -7 -165 -27 -106 -24 72 -132 148 -209 148 l-24 0
4 280 c2 154 6 280 11 280 4 0 7 -11 7 -25 0 -14 5 -25 11 -25 7 0 8 16 3 46
-5 34 -4 45 5 40 6 -4 11 -14 11 -22 0 -8 5 -12 11 -8 6 3 9 17 6 30 -3 20 0
24 19 24 23 0 24 -3 22 -57z m-2317 -4 c-13 -55 -13 -69 -2 -69 6 0 13 20 17
45 3 25 10 47 14 50 4 3 4 -11 0 -31 -5 -20 -5 -46 -1 -58 7 -16 10 -9 16 34
4 30 12 62 17 70 6 10 7 2 4 -27 -4 -24 -2 -44 4 -48 6 -4 10 6 11 22 0 15 3
22 6 16 8 -22 24 -14 34 17 6 17 15 30 19 30 5 0 2 -12 -5 -27 -17 -35 -23
-107 -10 -111 6 -1 13 19 16 46 7 52 24 92 39 92 13 0 13 -1 -6 -45 -15 -37
-13 -65 4 -65 5 0 12 17 16 39 3 21 13 45 22 52 15 12 16 8 10 -56 -4 -39 -7
-188 -9 -332 l-2 -261 -82 -4 c-76 -3 -85 -5 -112 -33 -16 -16 -41 -52 -55
-80 l-25 -50 1 90 c1 50 3 73 5 53 2 -21 8 -38 12 -38 10 0 22 146 14 166 -9
23 -24 16 -18 -9 3 -12 2 -34 -4 -47 -8 -20 -10 -6 -10 62 -1 74 1 86 14 82
12 -5 15 3 15 35 0 46 -16 56 -23 14 -2 -16 -5 38 -6 120 0 93 3 147 9 147 6
0 9 12 8 28 -4 60 2 91 16 86 9 -3 16 4 20 22 12 44 17 20 7 -27z m96 29 c-3
-8 -6 -5 -6 6 -1 11 2 17 5 13 3 -3 4 -12 1 -19z m1793 -43 c-7 -8 -20 -15
-29 -15 -13 1 -13 3 3 15 26 19 42 19 26 0z m-1607 -51 c14 -28 21 -34 37 -29
18 6 20 2 20 -44 0 -28 1 -54 3 -58 1 -5 -9 -10 -23 -11 -14 -2 -35 -13 -47
-25 l-23 -20 0 111 c0 62 4 112 8 112 5 0 16 -16 25 -36z m150 17 c2 -10 1
-25 -4 -32 -7 -12 -11 -11 -25 3 -14 14 -15 20 -4 32 17 21 27 20 33 -3z
m-113 -12 c0 -6 -4 -7 -10 -4 -5 3 -10 11 -10 16 0 6 5 7 10 4 6 -3 10 -11 10
-16z m1480 -84 c0 -25 5 -45 10 -45 6 0 10 20 10 45 0 25 5 45 10 45 6 0 10
-22 10 -50 0 -39 3 -50 16 -50 13 0 15 9 12 50 -2 37 0 50 11 50 10 0 12 -16
6 -80 -4 -50 -3 -80 3 -80 10 0 22 69 22 127 0 32 2 34 28 31 27 -3 27 -4 30
-88 4 -122 22 -128 22 -7 l0 97 30 0 c29 0 30 -1 28 -47 l-1 -48 -4 43 c-2 24
-9 42 -16 42 -8 0 -13 -30 -15 -95 -2 -59 1 -95 7 -95 5 0 12 24 14 53 2 28 4
1 5 -60 2 -129 22 -159 23 -35 0 42 4 95 9 117 5 26 7 -28 6 -155 l-1 -195
-105 -6 c-181 -10 -217 -34 -239 -160 -8 -41 -28 -134 -47 -206 -50 -203 -51
-216 -20 -258 15 -20 24 -41 20 -48 -16 -28 -79 -107 -85 -107 -4 0 -10 11
-13 25 -14 55 -89 96 -148 82 -35 -9 -88 -57 -104 -95 -7 -19 -16 -62 -18 -95
-3 -38 -11 -66 -20 -72 -37 -28 -42 -129 -11 -237 l14 -48 -85 0 c-76 0 -85 2
-82 18 2 9 9 18 16 18 24 3 26 4 14 16 -17 17 -15 90 3 114 20 26 20 65 0 58
-11 -5 -15 1 -15 18 0 14 -14 37 -34 57 -23 22 -35 45 -39 70 -2 21 -17 57
-32 79 -30 45 -69 60 -127 48 -38 -7 -98 -51 -98 -72 0 -28 -24 -13 -103 66
-80 80 -86 96 -40 103 52 8 65 45 39 114 -7 21 -21 63 -31 93 -10 30 -21 60
-25 65 -9 12 -40 135 -40 157 0 39 -36 121 -62 144 -26 21 -40 24 -103 24
l-73 0 -6 43 c-9 65 -6 226 5 232 5 4 9 -25 9 -70 0 -45 4 -74 9 -70 12 7 12
315 0 315 -5 0 -9 -4 -9 -10 0 -5 -4 -10 -9 -10 -5 0 -9 16 -8 35 1 33 3 35
34 35 21 0 33 -5 33 -14 0 -7 8 -16 18 -20 9 -3 23 -9 30 -12 8 -4 12 3 12 20
0 24 4 26 39 26 36 0 40 -3 46 -30 4 -17 11 -28 15 -25 5 3 6 13 3 21 -5 13
-1 15 15 9 16 -5 22 -2 22 9 0 10 9 16 25 16 15 0 25 -5 24 -12 -4 -37 2 -88
12 -88 7 0 10 18 7 50 -2 39 0 50 12 50 12 0 15 -13 14 -62 -1 -69 3 -91 17
-82 5 3 9 36 9 75 0 39 4 69 10 69 6 0 10 -33 10 -80 0 -58 4 -80 13 -80 9 0
11 20 9 80 -4 67 -2 80 11 80 18 0 31 -50 25 -101 -1 -19 2 -36 7 -39 6 -3 11
23 13 68 2 55 6 72 17 72 11 0 16 -13 17 -42 3 -74 3 -78 13 -75 6 1 10 28 9
60 l-1 57 144 0 c136 0 143 -1 143 -20 0 -11 5 -20 10 -20 6 0 10 9 10 20 0
11 5 20 10 20 6 0 10 -18 10 -40 0 -22 5 -40 10 -40 6 0 10 18 10 40 0 22 5
40 10 40 6 0 10 -37 10 -90 0 -53 4 -90 10 -90 6 0 10 37 10 90 l0 89 128 4
c70 1 182 4 250 5 l122 2 0 -45z m390 -54 c0 -36 -3 -40 -27 -43 -14 -2 -28
-9 -31 -17 -3 -10 3 -11 27 -6 l31 7 0 -46 c0 -35 -5 -48 -19 -56 -25 -13 -31
-13 -31 0 0 6 9 10 20 10 11 0 20 5 20 11 0 6 -9 13 -20 16 -11 3 -20 10 -20
15 0 6 -7 8 -15 4 -10 -3 -15 1 -15 14 0 32 19 70 35 70 8 0 16 6 16 13 1 6 2
17 4 22 1 6 3 13 3 18 1 4 7 7 12 7 6 0 10 -18 10 -39z m-2393 -61 c7 -14 16
-42 22 -63 9 -35 8 -39 -15 -47 -26 -10 -31 -29 -12 -48 6 -6 10 -13 7 -15 -9
-8 -79 6 -79 15 0 6 11 7 25 4 30 -8 33 9 5 26 -15 10 -20 24 -20 61 0 26 4
55 9 65 5 9 12 25 15 35 5 15 8 16 18 5 7 -7 18 -24 25 -38z m550 -22 c3 -75
-28 -95 -69 -44 -19 22 -24 51 -9 41 6 -3 18 6 28 19 28 40 48 33 50 -16z
m-431 -2 c9 -36 -1 -129 -14 -134 -14 -4 -52 34 -52 53 0 9 9 15 25 15 20 0
25 5 25 24 0 14 -4 27 -10 31 -11 7 -2 35 11 35 5 0 11 -11 15 -24z m424 -127
c0 -22 -46 -37 -63 -20 -8 8 -7 11 6 11 19 0 23 26 5 32 -6 2 -8 9 -4 16 10
17 56 -15 56 -39z m1781 -32 c-8 -8 -11 0 -10 29 1 39 1 39 11 11 7 -21 7 -32
-1 -40z m60 0 c-16 -16 -26 20 -10 40 13 15 14 14 17 -7 2 -12 -1 -27 -7 -33z
m367 5 c3 -27 0 -32 -17 -32 -17 0 -21 6 -21 36 0 28 3 35 18 32 11 -2 18 -14
20 -36z m80 19 c21 -13 10 -46 -16 -49 -19 -3 -22 1 -22 27 0 31 13 39 38 22z
m72 -37 c0 -14 -4 -23 -10 -19 -5 3 -10 15 -10 26 0 10 5 19 10 19 6 0 10 -12
10 -26z m-2410 -46 c0 -33 3 -38 24 -38 26 0 38 -25 29 -60 -4 -16 -14 -20
-52 -20 l-47 0 -1 83 c-1 45 1 85 3 89 3 4 14 2 24 -5 14 -8 20 -23 20 -49z
m-422 32 c2 -11 -7 -15 -38 -15 -37 0 -50 11 -33 29 13 12 68 2 71 -14z m2278
-30 c8 0 17 7 20 15 9 23 24 18 24 -8 0 -20 -5 -23 -40 -22 -36 0 -40 3 -40
25 1 22 2 23 11 8 5 -10 17 -18 25 -18z m512 3 c6 -10 16 -14 26 -10 11 5 16
1 16 -13 0 -17 -7 -20 -47 -21 l-48 -1 38 -8 c21 -4 43 -12 50 -19 8 -8 -12
-9 -83 -5 -52 4 -92 4 -89 0 4 -4 40 -9 80 -12 46 -4 80 -11 89 -20 13 -14 12
-15 -12 -9 -35 9 -36 -1 -3 -26 14 -12 22 -26 18 -34 -9 -25 -31 -17 -35 13
-3 26 -5 27 -75 30 -67 3 -73 5 -79 26 -3 13 -4 37 -2 52 2 23 9 30 30 32 18
2 25 8 22 17 -4 10 6 15 38 18 23 2 46 4 50 5 4 1 11 -5 16 -15z m-2792 -14
c4 -7 -3 -10 -19 -7 -15 1 -26 -1 -27 -7 0 -5 11 -11 25 -13 39 -5 29 -22 -13
-22 -35 0 -38 2 -36 28 1 15 2 28 3 30 4 7 61 0 67 -9z m-116 -35 c0 -9 -5
-14 -12 -12 -18 6 -21 28 -4 28 9 0 16 -7 16 -16z m170 -30 c0 -22 -3 -24 -22
-18 -30 9 -32 10 -25 29 4 8 16 15 27 15 15 0 20 -7 20 -26z m2233 15 c7 0 3
-4 -8 -9 -29 -13 -35 -12 -35 6 0 11 5 14 16 10 9 -3 21 -6 27 -7z m-2283 -39
c13 -20 13 -33 0 -25 -6 4 -29 4 -50 0 -39 -7 -40 -8 -40 -46 0 -35 -3 -39
-24 -39 -35 0 -43 20 -18 41 27 21 28 29 5 30 -10 0 -4 6 14 12 50 19 53 31 6
23 -31 -4 -43 -3 -43 6 0 20 138 18 150 -2z m2348 -19 c7 -21 12 -75 12 -120
l0 -81 -30 0 -30 0 0 69 c0 38 -7 84 -15 104 -23 55 -21 58 41 66 6 0 16 -16
22 -38z m-167 -18 c19 -30 23 -52 24 -113 0 -74 0 -75 -26 -78 -25 -3 -27 0
-34 50 -6 46 -19 88 -50 161 -6 14 -2 17 28 17 30 0 39 -6 58 -37z m300 8 c16
-16 29 -36 29 -43 0 -16 -65 -42 -80 -33 -5 3 -10 28 -10 56 0 59 16 64 61 20z
m-1822 -17 l23 -17 -30 -13 c-35 -14 -42 -26 -72 -113 -24 -67 -18 -91 16 -73
63 32 74 36 86 24 7 -7 20 -12 30 -12 15 0 38 -34 38 -56 0 -2 -40 -4 -90 -4
-49 0 -90 4 -90 8 0 5 -16 16 -35 25 -47 23 -224 24 -285 2 -24 -8 -46 -13
-49 -10 -8 9 21 25 47 25 23 0 28 10 13 26 -12 11 -15 40 -13 127 l2 67 34 0
34 0 -5 -57 c-2 -32 -1 -76 4 -98 9 -39 10 -40 53 -40 l45 0 1 50 c1 148 0
145 39 145 19 0 35 -1 35 -2 0 -2 -7 -25 -15 -52 -8 -27 -15 -70 -15 -96 0
-43 3 -48 25 -52 32 -7 42 6 50 67 8 52 28 109 46 132 15 18 50 16 78 -3z
m1332 -21 c13 -16 12 -17 -3 -4 -10 7 -18 15 -18 17 0 8 8 3 21 -13z m-1951
-8 c6 -8 9 -19 5 -25 -4 -6 -2 -33 5 -59 10 -44 9 -54 -17 -121 -15 -40 -29
-65 -31 -57 -2 10 -16 17 -35 19 l-32 3 -3 83 c-3 77 -1 84 18 89 23 6 27 23
5 23 -24 0 -17 20 8 21 21 0 21 1 2 9 -16 7 -10 9 25 11 l45 2 -40 7 -40 7 36
2 c21 0 42 -5 49 -14z m1922 -7 c7 -13 19 -36 26 -51 12 -27 11 -28 -14 -25
-21 2 -30 11 -40 42 -20 55 0 78 28 34z m767 16 l31 -6 0 -129 0 -129 -63 0
-64 0 -12 52 c-7 33 -8 54 -2 58 6 3 11 38 13 77 2 69 3 72 27 76 15 2 29 5
32 6 4 0 21 -2 38 -5z m-2579 -64 c0 -28 -4 -40 -14 -40 -24 0 -28 18 -11 50
8 16 18 30 20 30 3 0 5 -18 5 -40z m544 32 c3 -5 8 -22 10 -39 6 -30 5 -31
-42 -36 -26 -3 -49 -3 -52 -1 -8 9 32 73 49 77 27 7 30 7 35 -1z m2111 -12 c3
-5 1 -10 -4 -10 -6 0 -11 5 -11 10 0 6 2 10 4 10 3 0 8 -4 11 -10z m-891 -35
c3 -9 0 -15 -9 -15 -8 0 -15 7 -15 15 0 8 4 15 9 15 5 0 11 -7 15 -15z m140
-73 c5 -28 3 -35 -13 -39 -11 -3 -21 -14 -23 -25 -3 -17 -12 -20 -81 -21 l-78
-2 3 30 3 30 88 3 c86 3 89 4 84 25 -3 12 -8 38 -11 57 l-6 35 14 -30 c7 -16
16 -45 20 -63z m516 22 c19 -48 15 -52 -67 -56 -43 -3 -81 -3 -85 -1 -6 3 7
32 29 62 3 5 68 18 96 20 10 1 21 -10 27 -25z m-2684 -31 c-10 -10 -19 5 -10
18 6 11 8 11 12 0 2 -7 1 -15 -2 -18z m2497 -33 c4 0 7 -4 7 -9 0 -5 -26 -7
-59 -4 -55 5 -59 4 -67 -18 -4 -13 -6 -40 -5 -59 3 -44 21 -66 21 -26 0 27 2
28 34 22 19 -4 37 -2 40 3 4 5 -4 12 -16 14 l-23 4 24 8 24 8 -24 18 c-26 20
-15 25 24 10 22 -9 24 -14 21 -68 -4 -87 -41 -173 -86 -197 -34 -19 -37 -19
-91 -2 -97 31 -155 115 -156 228 l-1 57 58 12 c103 22 174 26 222 12 25 -7 48
-13 53 -13z m424 8 c-3 -8 -6 -5 -6 6 -1 11 2 17 5 13 3 -3 4 -12 1 -19z
m-2663 -4 c33 -13 15 -29 -34 -31 -28 0 -50 0 -50 2 0 31 42 45 84 29z m-244
-23 c0 -6 -4 -13 -10 -16 -5 -3 -10 1 -10 9 0 9 5 16 10 16 6 0 10 -4 10 -9z
m435 -12 c12 -19 -3 -22 -27 -5 l-22 16 21 0 c12 0 25 -5 28 -11z m113 4 c-10
-2 -26 -2 -35 0 -10 3 -2 5 17 5 19 0 27 -2 18 -5z m47 -3 c3 -5 1 -10 -4 -10
-6 0 -11 5 -11 10 0 6 2 10 4 10 3 0 8 -4 11 -10z m2330 -20 c3 -5 -1 -10 -9
-10 -9 0 -16 5 -16 10 0 6 4 10 9 10 6 0 13 -4 16 -10z m-2505 -30 c0 -16 -7
-20 -35 -20 -25 0 -35 4 -35 15 0 12 4 13 19 6 14 -8 22 -7 31 4 16 20 20 19
20 -5z m155 0 c16 13 45 7 45 -9 0 -6 -16 -13 -36 -17 -39 -7 -73 14 -59 37 6
9 11 8 21 -6 11 -15 16 -16 29 -5z m-585 0 c0 -5 -9 -10 -21 -10 -11 0 -17 5
-14 10 3 6 13 10 21 10 8 0 14 -4 14 -10z m2722 -35 l3 -30 -103 -3 -103 -3 3
33 3 33 90 5 c50 3 93 3 97 0 3 -3 8 -18 10 -35z m207 14 c-14 -26 -26 -24
-26 5 0 18 4 22 18 19 15 -4 16 -9 8 -24z m-64 11 c-3 -5 -29 -10 -56 -10 -31
0 -48 4 -44 10 3 6 29 10 56 10 31 0 48 -4 44 -10z m-2788 -16 c-3 -3 -12 -4
-19 -1 -8 3 -5 6 6 6 11 1 17 -2 13 -5z m33 -9 c0 -8 -4 -15 -8 -15 -5 0 -9 7
-9 15 0 8 4 15 9 15 4 0 8 -7 8 -15z m208 -27 l3 -28 -75 0 c-41 0 -82 -3 -91
-6 -13 -6 -16 -1 -13 22 2 24 9 30 38 35 19 4 58 6 85 5 47 -1 50 -3 53 -28z
m2530 25 c-15 -2 -42 -2 -60 0 -18 2 -6 4 27 4 33 0 48 -2 33 -4z m-2771 -9
c-3 -3 -12 -4 -19 -1 -8 3 -5 6 6 6 11 1 17 -2 13 -5z m2063 -13 c23 -43 15
-48 -82 -50 -51 -1 -102 -4 -112 -7 -16 -5 -18 -3 -13 17 4 13 7 29 7 36 0 16
23 20 112 22 67 1 79 -2 88 -18z m-1297 -7 c43 -5 57 -10 57 -23 0 -14 -16
-16 -115 -17 -106 -1 -115 1 -115 18 0 24 35 38 80 33 19 -2 61 -7 93 -11z
m2002 6 c-25 -11 -85 -12 -85 -2 0 4 24 8 53 9 36 1 46 -1 32 -7z m85 -55 c0
-63 -1 -65 -22 -60 -45 10 -103 10 -108 0 -3 -6 11 -11 30 -13 75 -5 100 -13
100 -30 0 -15 -10 -17 -87 -14 -49 2 -90 6 -92 8 -2 1 4 11 14 20 11 11 16 28
13 50 -4 32 -3 32 31 26 24 -4 32 -2 27 6 -4 7 -18 12 -32 12 -13 0 -24 4 -24
10 0 14 79 9 88 -5 11 -18 52 -26 52 -10 0 8 -10 15 -22 17 l-23 3 23 23 c12
12 24 22 27 22 3 0 5 -29 5 -65z m-2928 30 c6 -32 -9 -43 -30 -22 -13 13 -13
19 -2 31 18 22 27 20 32 -9z m88 -44 c0 -15 -9 -20 -42 -24 -24 -2 -54 -8 -67
-12 -18 -6 -23 -5 -19 6 2 8 16 15 31 17 14 2 31 10 37 18 19 21 60 18 60 -5z
m435 10 c3 -5 -4 -12 -15 -16 -23 -7 -60 2 -60 16 0 12 67 12 75 0z m2198 -57
c35 -7 34 -14 -6 -40 -22 -14 -58 -23 -117 -29 -143 -13 -135 -14 -132 20 2
17 7 33 11 38 22 22 160 28 244 11z m-518 -14 c8 -7 15 -20 15 -30 0 -16 -13
-19 -102 -24 -57 -3 -122 -8 -145 -12 -39 -6 -43 -4 -54 20 -7 14 -10 29 -7
32 9 8 208 32 245 29 18 -1 39 -8 48 -15z m-2138 -17 c-4 -28 -21 -41 -31 -24
-4 5 -22 7 -41 4 -28 -5 -35 -2 -35 11 0 20 32 34 78 35 30 1 32 -1 29 -26z
m300 8 c6 -10 9 -28 6 -39 -4 -19 -14 -21 -116 -24 -119 -4 -147 4 -147 43 0
25 38 32 190 37 44 2 57 -2 67 -17z m533 5 c50 -18 47 -37 -10 -64 -45 -21
-54 -22 -111 -12 -34 6 -78 10 -98 8 -33 -3 -36 -1 -39 25 -2 15 -6 27 -10 27
-4 0 -25 -16 -47 -35 -31 -27 -49 -35 -81 -35 -22 0 -48 6 -59 13 -16 12 -11
13 36 10 50 -4 57 -2 96 31 24 21 47 34 56 30 8 -3 18 -1 22 5 9 15 201 13
245 -3z m1418 -48 c17 -5 32 -12 32 -17 0 -4 11 -14 25 -21 23 -13 25 -18 25
-91 0 -55 -6 -91 -20 -123 -17 -42 -18 -52 -7 -113 9 -50 17 -69 30 -71 24 -5
153 63 196 104 20 18 40 34 44 34 5 0 7 -17 6 -37 -2 -23 6 -62 20 -98 21 -53
22 -65 12 -105 -7 -25 -19 -53 -28 -62 -15 -17 -15 -18 5 -18 15 0 22 -6 22
-20 0 -14 -7 -20 -24 -20 -15 0 -26 7 -29 20 -6 23 -27 27 -27 5 0 -17 -16
-20 -25 -5 -3 5 -28 10 -56 10 -51 0 -169 28 -169 40 0 4 33 0 73 -8 51 -11
84 -12 112 -6 l40 9 -60 2 c-71 3 -163 22 -172 36 -4 6 16 7 53 4 l59 -6 -59
15 c-56 14 -59 14 -73 -6 -22 -31 -67 -50 -122 -50 -43 0 -55 5 -87 35 -47 44
-53 40 -13 -8 22 -27 41 -39 69 -43 34 -6 39 -10 45 -43 3 -20 18 -56 32 -80
l25 -44 74 6 c44 4 75 3 79 -3 3 -6 17 -10 30 -10 13 0 27 -5 31 -11 4 -6 20
-8 40 -4 21 3 34 2 34 -4 0 -19 -80 -31 -112 -17 -11 5 -18 4 -18 -3 0 -15 44
-24 85 -17 21 4 35 3 35 -3 0 -18 -41 -33 -71 -27 -18 3 -29 1 -29 -5 0 -12
72 -8 103 5 12 6 17 4 17 -7 0 -17 -63 -42 -79 -33 -5 4 -12 2 -16 -4 -4 -6 9
-10 32 -11 35 0 36 -1 13 -10 -40 -16 -141 -22 -185 -11 -22 6 -68 18 -103 26
-73 18 -112 37 -164 78 -30 23 -41 43 -61 106 -21 66 -28 77 -47 77 -17 0 -27
11 -44 52 -22 55 -32 64 -42 38 -8 -20 21 -81 57 -123 32 -36 35 -50 16 -76
-12 -17 -15 -17 -53 4 -56 32 -79 55 -123 129 -42 69 -66 129 -100 247 -28 96
-28 104 9 104 17 0 38 4 48 10 9 5 34 16 54 25 35 16 116 99 168 174 l24 35
13 -68 c11 -65 75 -206 112 -252 20 -26 56 -44 133 -69 56 -18 58 -18 78 0 11
10 20 27 20 37 0 11 5 28 11 40 9 16 5 31 -21 79 -37 70 -69 186 -70 253 0 42
2 47 18 41 9 -4 32 -11 50 -17z m432 1 c0 -6 15 -10 33 -8 17 1 58 1 90 0 54
-1 57 -2 57 -27 0 -19 -4 -24 -17 -20 -10 3 -51 8 -90 12 -65 6 -73 5 -73 -10
0 -14 8 -17 38 -15 20 1 61 2 90 1 l52 -2 0 -37 c0 -31 -2 -34 -12 -21 -14 17
-95 31 -103 18 -7 -12 32 -23 46 -14 8 5 9 3 4 -5 -5 -9 -21 -11 -50 -7 -31 5
-45 3 -55 -9 -18 -21 -49 -20 -44 3 2 9 5 46 8 82 3 36 5 66 5 68 2 8 21 0 21
-9z m-2644 -38 c18 -15 24 -30 22 -49 -3 -26 -5 -27 -77 -30 -123 -5 -126 36
-4 48 57 5 63 8 40 14 -16 5 -48 6 -73 3 -37 -4 -44 -2 -44 13 0 26 9 30 62
26 32 -2 58 -11 74 -25z m2119 -53 c2 -2 5 -16 7 -31 3 -28 3 -28 -72 -34
-142 -11 -135 -13 -135 27 0 34 1 35 45 42 42 6 148 3 155 -4z m-486 -9 c24
-8 38 -24 55 -60 22 -45 23 -49 7 -63 -25 -23 -31 -20 -31 14 0 67 -82 93
-122 39 -33 -44 -34 -123 -4 -230 15 -52 30 -103 35 -114 63 -153 125 -236
205 -277 22 -11 60 -26 85 -34 26 -7 55 -21 66 -29 19 -15 17 -16 -28 -10 -73
10 -154 41 -199 77 -57 45 -143 180 -181 285 -29 80 -31 99 -32 208 0 113 2
122 25 154 37 49 65 59 119 40z m-911 -45 l3 -42 -108 5 c-59 3 -110 7 -112 9
-2 2 0 19 3 39 l7 36 102 -3 102 -3 3 -41z m1855 12 c-1 -16 -6 -32 -10 -36
-4 -4 -55 -5 -113 -1 -104 6 -105 6 -105 31 0 31 28 39 145 36 l85 -1 -2 -29z
m-2305 -8 l3 -28 -68 0 c-37 -1 -85 -3 -106 -6 -37 -6 -38 -5 -35 23 3 24 8
29 43 34 22 4 67 6 100 5 58 -1 60 -2 63 -28z m-264 -4 c9 -3 16 -15 16 -25 0
-17 -8 -18 -82 -16 -77 2 -83 4 -86 25 -3 21 0 22 66 22 39 0 77 -3 86 -6z
m2815 -139 l-1 -135 -61 2 c-57 1 -58 2 -14 5 26 2 45 8 42 14 -4 5 0 9 7 9
12 0 -25 20 -67 35 -18 7 -16 9 13 22 28 11 32 16 22 28 -13 16 -85 21 -76 6
3 -4 17 -6 32 -3 20 4 25 1 22 -9 -3 -8 -17 -13 -32 -12 -17 1 -26 -3 -26 -13
0 -8 -9 -14 -20 -14 -25 0 -26 -25 -2 -39 16 -10 16 -10 0 -11 -10 0 -18 -7
-18 -15 0 -8 7 -15 15 -15 8 0 15 -4 15 -9 0 -5 -7 -11 -15 -15 -22 -8 -18
-26 5 -26 17 0 19 -8 22 -67 4 -94 23 -82 21 12 l-2 75 61 0 c51 0 59 -2 54
-16 -3 -9 -6 -27 -6 -40 0 -14 -4 -22 -10 -19 -5 3 -10 -1 -10 -10 0 -9 4 -14
9 -11 5 3 8 -47 7 -116 -1 -87 -5 -122 -13 -125 -9 -3 -13 8 -13 39 0 76 -63
124 -155 116 l-30 -3 -1 85 c0 50 -7 104 -16 130 -17 50 -17 166 1 212 8 22
19 29 51 34 22 4 40 10 40 15 0 4 30 10 68 12 37 2 70 4 74 5 4 1 7 -59 7
-133z m-1205 112 c18 -13 25 -65 12 -86 -4 -7 -23 -10 -44 -7 -34 3 -37 6 -34
32 3 31 27 74 40 74 5 0 16 -6 26 -13z m-1679 -46 c46 -10 14 -22 -39 -15 -25
4 -46 11 -46 15 0 10 40 10 85 0z m1153 -14 c3 -13 -4 -17 -27 -17 -34 0 -40
14 -13 29 22 13 36 9 40 -12z m-1055 -1 c8 -19 1 -24 -28 -18 -14 2 -25 11
-25 18 0 18 46 18 53 0z m2142 -37 c9 -17 14 -34 10 -37 -4 -4 -39 -12 -78
-18 -40 -7 -79 -15 -88 -18 -19 -8 -56 61 -40 77 13 13 73 24 133 26 43 1 49
-2 63 -30z m-1874 -10 c6 -26 5 -27 -45 -33 -28 -3 -73 -6 -101 -6 -43 0 -52
3 -61 25 -11 23 -10 25 25 30 20 4 43 8 51 10 8 2 39 2 69 2 50 -2 55 -4 62
-28z m336 15 l52 -7 -15 -29 c-9 -17 -21 -27 -28 -25 -8 3 -51 9 -97 12 -46 4
-87 9 -91 12 -4 2 -2 13 5 23 13 22 70 26 174 14z m1864 -11 c6 -6 3 -18 -9
-33 l-19 -24 -71 17 c-38 9 -77 17 -85 17 -11 0 -13 6 -10 21 6 21 11 21 95
17 49 -3 94 -10 99 -15z m-1037 -136 c12 -96 111 -291 181 -357 35 -33 32 -40
-20 -40 -25 0 -45 -4 -45 -10 0 -5 21 -10 46 -10 27 0 43 -4 39 -10 -3 -6 5
-14 19 -19 15 -6 29 -24 37 -45 15 -41 26 -46 32 -13 4 19 4 19 6 -5 1 -32
-12 -42 -38 -29 -14 8 -20 8 -23 0 -2 -6 -15 5 -28 25 -14 20 -31 36 -37 36
-17 0 -16 -10 2 -34 16 -21 20 -46 7 -46 -4 0 -24 16 -44 35 -39 39 -66 30
-29 -9 l21 -22 -23 1 c-31 0 -47 13 -47 36 0 26 -19 24 -30 -3 -8 -21 -9 -21
-9 8 -1 17 10 44 25 65 22 29 24 40 19 82 -4 26 -18 68 -32 93 -60 107 -87
238 -63 309 15 45 24 34 34 -38z m-1124 -2 c0 -33 -2 -35 -31 -35 -33 0 -119
37 -119 51 0 5 30 10 68 12 37 2 70 4 75 5 4 1 7 -14 7 -33z m218 25 c52 0 53
-17 1 -41 -40 -19 -117 -15 -126 7 -12 31 6 47 45 40 20 -3 57 -6 80 -6z
m1782 -20 c0 -5 -9 -10 -20 -10 -11 0 -20 5 -20 10 0 6 9 10 20 10 11 0 20 -4
20 -10z m-1235 -37 c-9 -52 -27 -114 -32 -109 -5 5 29 146 35 146 2 0 1 -17
-3 -37z m1075 27 c0 -5 -4 -10 -10 -10 -5 0 -10 5 -10 10 0 6 5 10 10 10 6 0
10 -4 10 -10z m613 -17 c-7 -2 -19 -2 -25 0 -7 3 -2 5 12 5 14 0 19 -2 13 -5z
m-2150 -75 c3 -8 -5 -14 -20 -14 -19 -2 -22 1 -12 12 14 17 25 18 32 2z m-463
-2 c0 -2 -7 -7 -16 -10 -8 -3 -12 -2 -9 4 6 10 25 14 25 6z m550 -16 c0 -6
-14 -36 -30 -68 -63 -119 -88 -157 -121 -180 -32 -22 -159 -40 -224 -31 -30 4
-64 5 -75 2 -26 -7 -26 16 0 50 11 14 20 30 20 36 0 6 5 11 10 11 6 0 10 -17
10 -39 l0 -39 56 -4 c58 -5 142 10 185 32 48 25 89 87 140 208 13 31 29 43 29
22z m337 -72 c-3 -8 -6 -5 -6 6 -1 11 2 17 5 13 3 -3 4 -12 1 -19z m400 -90
c33 -53 39 -124 13 -153 -27 -31 -35 -93 -14 -116 17 -19 14 -19 -139 -19 -87
0 -157 3 -157 6 0 3 9 19 21 35 30 42 34 89 14 143 -18 46 -18 46 7 78 13 18
27 41 31 51 5 14 20 17 102 17 l95 0 27 -42z m-1325 7 c15 -14 34 -25 42 -25
9 0 28 -18 42 -40 20 -30 24 -43 15 -53 -6 -8 -8 -17 -5 -20 4 -4 -6 -11 -22
-17 -25 -10 -30 -8 -46 12 -26 34 -22 45 7 18 19 -18 25 -20 25 -8 0 9 -7 21
-15 28 -8 7 -15 18 -15 25 0 8 -16 34 -35 59 -38 50 -35 60 7 21z m884 -20
c-23 -47 -72 -102 -109 -121 -36 -19 -138 -46 -145 -39 -3 3 -20 -7 -39 -21
-18 -14 -57 -36 -87 -49 -30 -13 -56 -28 -57 -33 -5 -12 -79 -23 -79 -11 0 5
9 9 19 9 11 0 22 4 26 10 3 5 21 13 39 18 44 13 162 91 209 140 25 25 43 57
52 88 8 31 14 40 14 25 1 -14 -8 -44 -20 -68 -23 -47 -15 -73 21 -73 31 0 97
57 131 113 38 61 51 67 25 12z m1175 -8 c-8 -8 -11 -5 -11 9 0 27 14 41 18 19
2 -9 -1 -22 -7 -28z m520 24 c22 -18 24 -27 24 -112 0 -55 -4 -94 -10 -96 -7
-2 -11 12 -11 32 0 44 -12 56 -30 30 -32 -46 -57 -65 -85 -65 -16 0 -29 -4
-29 -10 0 -5 16 -10 35 -10 19 0 35 -5 35 -11 0 -8 14 -10 41 -6 49 6 89 45
89 86 0 16 6 31 14 34 10 4 13 -3 12 -26 -1 -17 -7 -32 -14 -35 -6 -2 -12 -11
-12 -21 0 -9 -5 -22 -12 -29 -15 -15 -3 -16 23 -2 16 9 19 7 19 -10 0 -22 -15
-25 -100 -20 -57 3 -72 6 -132 26 -27 9 -52 14 -55 11 -10 -11 8 -26 40 -33
29 -6 30 -7 11 -14 -29 -11 -185 -10 -178 1 3 5 15 9 27 9 23 0 55 19 92 52
10 10 25 16 32 14 20 -8 88 34 107 66 28 46 9 46 -33 0 -38 -41 -61 -53 -61
-31 0 16 20 51 43 76 27 30 15 41 -14 14 -26 -24 -49 -27 -49 -7 0 19 48 56
72 56 10 0 21 7 25 15 8 22 -4 30 -22 15 -8 -7 -25 -10 -39 -6 -16 4 -30 0
-40 -10 -9 -8 -21 -12 -27 -9 -5 4 -18 0 -28 -9 -10 -9 -25 -14 -35 -10 -18 7
-49 -13 -40 -27 9 -14 -23 -22 -43 -10 -16 9 -16 10 -1 11 10 0 22 8 27 19 22
40 117 66 257 70 38 1 58 -4 75 -18z m-2480 -13 c31 -39 21 -56 -11 -19 -33
37 -35 41 -19 41 6 0 19 -10 30 -22z m2009 -4 c0 -8 -5 -12 -10 -9 -6 4 -8 11
-5 16 9 14 15 11 15 -7z m40 -14 c0 -5 -4 -10 -10 -10 -5 0 -10 5 -10 10 0 6
5 10 10 10 6 0 10 -4 10 -10z m155 -40 c3 -5 1 -10 -4 -10 -6 0 -11 5 -11 10
0 6 2 10 4 10 3 0 8 -4 11 -10z m79 -22 c-4 -6 0 -16 8 -22 14 -10 13 -13 -8
-23 -19 -9 -24 -8 -24 3 0 8 -7 14 -15 14 -8 0 -15 7 -15 16 0 11 6 14 20 9
11 -4 20 -2 20 4 0 6 5 11 11 11 5 0 7 -5 3 -12z m-644 -8 c0 -5 -7 -10 -16
-10 -8 0 -12 5 -9 10 3 6 10 10 16 10 5 0 9 -4 9 -10z m-848 -22 c-6 -6 -15
-8 -19 -4 -4 4 -1 11 7 16 19 12 27 3 12 -12z m-1088 -23 c3 -8 1 -15 -4 -15
-6 0 -10 7 -10 15 0 8 2 15 4 15 2 0 6 -7 10 -15z m1780 0 c6 -17 4 -18 -18
-9 -20 8 -21 24 -2 24 8 0 16 -7 20 -15z m-1673 -47 c11 -21 11 -22 -4 -9 -10
7 -17 17 -17 22 0 15 9 10 21 -13z m1794 11 c6 -4 39 -13 75 -20 36 -7 90 -26
120 -41 30 -15 60 -28 67 -28 7 0 13 -5 13 -10 0 -7 -65 -10 -180 -10 l-180 1
16 30 c9 19 13 41 9 60 -6 27 -5 29 22 27 15 -1 33 -5 38 -9z m-1555 -19 c0
-5 -5 -10 -11 -10 -5 0 -7 5 -4 10 3 6 8 10 11 10 2 0 4 -4 4 -10z m-264 -30
c1 -23 1 -23 -12 -5 -17 23 -18 38 -1 33 6 -3 13 -15 13 -28z m1054 22 c0 -5
-7 -17 -16 -28 -8 -10 -14 -14 -11 -9 2 6 7 18 10 28 7 17 17 23 17 9z m50
-22 c0 -16 -4 -30 -10 -30 -5 0 -10 14 -10 30 0 17 5 30 10 30 6 0 10 -13 10
-30z m-836 -15 c-7 -16 -44 -21 -44 -6 0 8 16 16 42 20 4 0 5 -6 2 -14z m613
3 c0 -7 4 -21 8 -30 6 -16 1 -18 -45 -18 -31 0 -49 4 -45 10 3 6 -1 10 -10 10
-9 0 -13 -4 -10 -10 4 -6 -30 -10 -95 -10 -65 0 -99 4 -95 10 3 6 34 10 68 10
34 0 94 9 132 19 86 24 92 24 92 9z m-705 -23 c-4 -25 -16 -32 -26 -16 -9 13
4 41 19 41 8 0 10 -9 7 -25z m85 -21 c-3 -3 -12 -4 -19 -1 -8 3 -5 6 6 6 11 1
17 -2 13 -5z"/>
<g>
<path d="M2032 4918 c7 -13 13 -24 13 -24 0 -1 10 -5 23 -8 13 -5 22 -3 22 3
0 6 -8 11 -19 11 -10 0 -21 9 -24 20 -3 11 -10 20 -16 20 -8 0 -7 -7 1 -22z"/>
</g>
<g>
<path d="M2146 4924 c-4 -9 -4 -19 -1 -22 3 -3 5 0 5 6 0 7 7 12 16 12 8 0 12
5 9 10 -9 15 -22 12 -29 -6z"/>
</g>
<g>
<path d="M1530 4920 c0 -5 7 -10 15 -10 8 0 15 5 15 10 0 6 -7 10 -15 10 -8 0
-15 -4 -15 -10z"/>
</g>
<g>
<path d="M1760 4919 c0 -5 5 -7 10 -4 6 3 10 8 10 11 0 2 -4 4 -10 4 -5 0 -10
-5 -10 -11z"/>
</g>
<g>
<path d="M1855 4920 c3 -5 8 -10 11 -10 2 0 4 5 4 10 0 6 -5 10 -11 10 -5 0
-7 -4 -4 -10z"/>
</g>
<g>
<path d="M1950 4900 c0 -5 17 -10 38 -10 27 0 33 3 22 10 -20 13 -60 13 -60 0z"/>
</g>
<g>
<path d="M1565 4890 c-8 -13 5 -13 25 0 13 8 13 10 -2 10 -9 0 -20 -4 -23 -10z"/>
</g>
<g>
<path d="M1811 4897 c2 -1 12 -9 22 -16 15 -12 17 -12 11 3 -3 9 -13 16 -22
16 -8 0 -13 -1 -11 -3z"/>
</g>
<g>
<path d="M1883 4870 c-1 -17 2 -30 7 -30 6 0 10 9 10 20 0 11 5 20 10 20 6 0
10 5 10 10 0 6 -8 10 -17 10 -13 0 -19 -9 -20 -30z"/>
</g>
<g>
<path d="M1970 4871 c0 -11 40 -22 54 -14 5 4 1 10 -10 14 -27 11 -44 11 -44
0z"/>
</g>
<g>
<path d="M1575 4860 c-3 -5 1 -10 9 -10 8 0 18 5 21 10 3 6 -1 10 -9 10 -8 0
-18 -4 -21 -10z"/>
</g>
<g>
<path d="M2257 4864 c-3 -4 1 -13 9 -21 18 -18 27 -13 18 11 -6 17 -16 20 -27
10z"/>
</g>
<g>
<path d="M2307 4849 c9 -9 6 -16 -10 -30 -19 -16 -19 -18 -5 -19 19 0 38 28
31 48 -3 6 -10 12 -16 12 -8 0 -8 -3 0 -11z"/>
</g>
<g>
<path d="M2120 4835 c0 -8 5 -15 10 -15 6 0 10 7 10 15 0 8 -4 15 -10 15 -5 0
-10 -7 -10 -15z"/>
</g>
<g>
<path d="M1780 4810 c-9 -6 -10 -10 -3 -10 6 0 15 5 18 10 8 12 4 12 -15 0z"/>
</g>
<g>
<path d="M860 4920 c0 -5 5 -10 10 -10 6 0 10 5 10 10 0 6 -4 10 -10 10 -5 0
-10 -4 -10 -10z"/>
</g>
<g>
<path d="M1010 4920 c0 -5 9 -10 20 -10 11 0 20 5 20 10 0 6 -9 10 -20 10 -11
0 -20 -4 -20 -10z"/>
</g>
<g>
<path d="M1066 4891 c-3 -4 4 -17 17 -27 l22 -19 -18 21 c-14 17 -15 23 -5 27
9 4 9 6 1 6 -6 1 -14 -3 -17 -8z"/>
</g>
<g>
<path d="M760 4880 c0 -5 5 -10 11 -10 5 0 7 5 4 10 -3 6 -8 10 -11 10 -2 0
-4 -4 -4 -10z"/>
</g>
<g>
<path d="M890 4880 c0 -5 5 -10 11 -10 5 0 7 5 4 10 -3 6 -8 10 -11 10 -2 0
-4 -4 -4 -10z"/>
</g>
<g>
<path d="M1000 4880 c0 -5 7 -10 16 -10 8 0 12 5 9 10 -3 6 -10 10 -16 10 -5
0 -9 -4 -9 -10z"/>
</g>
<g>
<path d="M870 4862 c0 -7 6 -15 14 -18 21 -8 7 -52 -26 -75 -28 -21 -30 -21
-43 -3 -7 11 -17 16 -21 11 -4 -4 -2 -7 4 -7 7 0 12 -7 12 -17 0 -9 -3 -13 -6
-10 -11 11 -44 -12 -38 -27 6 -15 54 -40 62 -32 3 3 -3 8 -12 12 -29 11 -17
26 17 19 31 -7 31 -6 12 9 -19 16 -18 16 20 10 37 -6 38 -5 21 8 -18 14 -17
15 15 11 32 -4 33 -3 15 11 -17 14 -17 16 -4 16 9 0 19 -4 22 -9 7 -11 48 -2
58 12 4 7 13 6 24 -4 16 -13 16 -12 4 8 -8 12 -28 25 -44 29 -30 7 -30 7 14
13 32 4 39 8 25 12 -11 4 -27 10 -36 14 -11 4 -26 -3 -42 -19 -31 -30 -48 -35
-22 -6 18 19 17 20 -1 20 -11 0 -25 5 -32 12 -9 9 -12 9 -12 0z m95 -62 c19
-8 19 -9 -2 -9 -12 -1 -25 4 -28 9 -7 12 2 12 30 0z"/>
</g>
<g>
<path d="M730 4852 c0 -12 19 -26 26 -19 2 2 -2 10 -11 17 -9 8 -15 8 -15 2z"/>
</g>
<g>
<path d="M1070 4825 c0 -8 5 -15 10 -15 6 0 10 7 10 15 0 8 -4 15 -10 15 -5 0
-10 -7 -10 -15z"/>
</g>
<g>
<path d="M845 4800 c-4 -6 -12 -7 -18 -4 -8 5 -9 4 -2 -4 12 -13 58 -4 49 9
-7 12 -21 11 -29 -1z"/>
</g>
<g>
<path d="M1260 4873 c0 -12 -8 -26 -17 -32 -14 -8 -15 -12 -4 -25 7 -9 23 -16
35 -16 17 0 18 2 6 10 -12 8 -11 10 6 10 11 0 26 -6 33 -12 10 -11 12 -10 9 2
-2 8 4 15 12 16 32 3 33 4 14 19 -10 8 -27 15 -36 15 -10 0 -18 4 -18 9 0 5
16 5 38 0 47 -11 52 -11 52 0 0 11 -52 24 -97 25 -28 1 -33 -3 -33 -21z"/>
</g>
<g>
<path d="M2306 4563 c-6 -14 -5 -15 5 -6 7 7 10 15 7 18 -3 3 -9 -2 -12 -12z"/>
</g>
<g>
<path d="M1792 4370 c-7 -11 -8 -20 -3 -20 9 0 24 30 18 36 -1 2 -8 -6 -15
-16z"/>
</g>
<g>
<path d="M1435 4170 c-6 -9 10 -12 85 -14 14 -1 25 4 25 9 0 14 -102 19 -110
5z"/>
</g>
<g>
<path d="M1468 4128 c8 -8 17 -8 34 0 22 10 21 11 -11 11 -27 1 -32 -2 -23
-11z"/>
</g>
<g>
<path d="M740 4155 c0 -14 3 -25 8 -25 4 0 7 11 7 25 0 14 -3 25 -7 25 -5 0
-8 -11 -8 -25z"/>
</g>
<g>
<path d="M1666 3775 c-3 -8 -1 -15 4 -15 6 0 10 7 10 15 0 8 -2 15 -4 15 -2 0
-6 -7 -10 -15z"/>
</g>
<g>
<path d="M1691 3764 c0 -11 3 -14 6 -6 3 7 2 16 -1 19 -3 4 -6 -2 -5 -13z"/>
</g>
<g>
<path d="M1620 3640 c0 -5 9 -10 19 -10 11 0 23 5 26 10 4 6 -5 10 -19 10 -14
0 -26 -4 -26 -10z"/>
</g>
<g>
<path d="M1263 3611 c-17 -27 -16 -31 2 -31 8 0 12 6 9 14 -4 11 7 13 63 9 38
-3 64 -2 60 3 -5 5 -25 9 -45 10 -20 1 -46 5 -57 8 -14 5 -24 1 -32 -13z"/>
</g>
<g>
<path d="M1620 3600 c0 -5 9 -10 19 -10 11 0 23 5 26 10 4 6 -5 10 -19 10 -14
0 -26 -4 -26 -10z"/>
</g>
<g>
<path d="M1310 3581 c0 -11 59 -26 67 -17 9 9 2 12 -34 19 -18 4 -33 2 -33 -2z"/>
</g>
<g>
<path d="M1620 3560 c0 -5 16 -10 35 -10 19 0 35 5 35 10 0 6 -16 10 -35 10
-19 0 -35 -4 -35 -10z"/>
</g>
<g>
<path d="M1226 3552 c-3 -6 12 -12 35 -14 22 -2 43 0 45 4 3 4 4 8 2 8 -2 1
-19 3 -39 6 -21 3 -40 1 -43 -4z"/>
</g>
<g>
<path d="M1328 3528 c9 -9 15 -9 24 0 9 9 7 12 -12 12 -19 0 -21 -3 -12 -12z"/>
</g>
<g>
<path d="M1647 3524 c-14 -14 -6 -20 28 -20 20 0 34 5 32 11 -4 12 -50 19 -60
9z"/>
</g>
<g>
<path d="M1230 3500 c0 -5 12 -10 26 -10 14 0 23 4 19 10 -3 6 -15 10 -26 10
-10 0 -19 -4 -19 -10z"/>
</g>
<g>
<path d="M935 3670 c3 -5 10 -10 16 -10 5 0 9 5 9 10 0 6 -7 10 -16 10 -8 0
-12 -4 -9 -10z"/>
</g>
<g>
<path d="M920 3600 c0 -5 5 -10 10 -10 6 0 10 5 10 10 0 6 -4 10 -10 10 -5 0
-10 -4 -10 -10z"/>
</g>
<g>
<path d="M885 3540 c3 -5 8 -10 11 -10 2 0 4 5 4 10 0 6 -5 10 -11 10 -5 0 -7
-4 -4 -10z"/>
</g>
<g>
<path d="M832 3479 c2 -6 8 -10 13 -10 5 0 11 4 13 10 2 6 -4 11 -13 11 -9 0
-15 -5 -13 -11z"/>
</g>
<g>
<path d="M841 3368 c-4 -13 -11 -36 -14 -53 -6 -29 -6 -29 5 -5 6 14 17 37 24
53 7 15 8 27 3 27 -5 0 -13 -10 -18 -22z"/>
</g>
<g>
<path d="M951 3377 c-20 -25 -58 -122 -65 -167 -4 -25 -10 -53 -13 -64 -3 -12
-1 -16 6 -12 6 4 11 20 11 35 0 32 39 136 70 186 21 34 14 49 -9 22z"/>
</g>
<g>
<path d="M780 3316 c0 -33 2 -57 5 -54 11 11 15 80 5 96 -7 13 -9 1 -10 -42z"/>
</g>
<g>
<path d="M741 3308 c0 -7 4 -22 9 -33 8 -18 9 -17 9 7 1 15 -3 30 -9 33 -5 3
-10 0 -9 -7z"/>
</g>
<g>
<path d="M688 3165 c2 -19 8 -37 12 -40 10 -6 1 57 -9 67 -4 5 -5 -8 -3 -27z"/>
</g>
<g>
<path d="M2060 2950 c-9 -6 -10 -10 -3 -10 6 0 15 5 18 10 8 12 4 12 -15 0z"/>
</g>
<g>
<path d="M2937 3014 c-8 -8 1 -24 14 -24 5 0 9 7 9 15 0 15 -12 20 -23 9z"/>
</g>
<g>
<path d="M450 3040 c0 -5 5 -10 10 -10 6 0 10 5 10 10 0 6 -4 10 -10 10 -5 0
-10 -4 -10 -10z"/>
</g>
<g>
<path d="M1108 3059 c-10 -5 -18 -21 -18 -33 0 -21 6 -25 48 -28 34 -4 50 -1
60 11 20 25 15 51 -10 51 -13 0 -32 2 -43 5 -11 3 -28 0 -37 -6z m62 -13 c0
-2 3 -11 6 -20 3 -9 1 -16 -5 -16 -6 0 -11 6 -11 14 0 8 -6 17 -12 19 -8 3 -6
6 5 6 9 1 17 -1 17 -3z m-36 -27 c-3 -5 -10 -7 -15 -3 -5 3 -7 10 -3 15 3 5
10 7 15 3 5 -3 7 -10 3 -15z"/>
</g>
<g>
<path d="M1241 3038 c-12 -31 -5 -36 61 -49 67 -14 91 -7 86 22 -2 17 -15 25
-53 35 -70 18 -84 17 -94 -8z m78 -2 c-12 -10 -60 -16 -54 -6 3 5 18 10 32 10
15 0 24 -2 22 -4z m29 -33 c-10 -2 -26 -2 -35 0 -10 3 -2 5 17 5 19 0 27 -2
18 -5z"/>
</g>
<g>
<path d="M1446 2993 c-3 -10 -7 -22 -8 -27 -3 -10 89 -36 97 -28 11 12 4 42
-12 50 -41 21 -71 23 -77 5z"/>
</g>
<g>
<path d="M1607 2963 c-26 -25 13 -63 81 -77 24 -6 29 -3 38 22 l11 29 -58 17
c-68 19 -64 18 -72 9z m67 -29 c26 -9 45 -19 42 -22 -8 -7 -96 19 -96 29 0 12
-2 12 54 -7z"/>
</g>
<g>
<path d="M1786 2895 c-12 -33 -5 -45 44 -70 61 -31 66 -31 74 -1 9 37 -1 52
-46 65 -22 7 -46 15 -53 17 -7 3 -15 -2 -19 -11z m74 -40 c0 -8 -7 -15 -15
-15 -9 0 -12 6 -9 15 4 8 10 15 15 15 5 0 9 -7 9 -15z"/>
</g>
<g>
<path d="M470 2890 c0 -5 5 -10 10 -10 6 0 10 5 10 10 0 6 -4 10 -10 10 -5 0
-10 -4 -10 -10z"/>
</g>
<g>
<path d="M2444 2723 c10 -10 46 -11 46 -1 0 4 -12 8 -27 8 -14 0 -23 -3 -19
-7z"/>
</g>
<g>
<path d="M2643 2723 c9 -2 23 -2 30 0 6 3 -1 5 -18 5 -16 0 -22 -2 -12 -5z"/>
</g>
<g>
<path d="M2830 2721 c0 -6 5 -13 10 -16 6 -3 10 1 10 9 0 9 -4 16 -10 16 -5 0
-10 -4 -10 -9z"/>
</g>
<g>
<path d="M2880 2720 c0 -5 5 -10 11 -10 5 0 7 5 4 10 -3 6 -8 10 -11 10 -2 0
-4 -4 -4 -10z"/>
</g>
<g>
<path d="M1240 2660 c0 -5 7 -10 15 -10 8 0 15 5 15 10 0 6 -7 10 -15 10 -8 0
-15 -4 -15 -10z"/>
</g>
<g>
<path d="M100 2665 c0 -8 5 -15 10 -15 6 0 10 7 10 15 0 8 -4 15 -10 15 -5 0
-10 -7 -10 -15z"/>
</g>
<g>
<path d="M72 2498 c7 -20 48 -23 48 -4 0 11 -9 16 -26 16 -16 0 -24 -5 -22
-12z"/>
</g>
<g>
<path d="M2525 2438 c-3 -7 -1 -92 4 -188 l8 -175 1 188 c2 172 -1 208 -13
175z"/>
</g>
<g>
<path d="M2557 2253 c-8 -13 -4 -113 5 -113 4 0 8 27 8 60 0 57 -3 69 -13 53z"/>
</g>
<g>
<path d="M280 2495 c0 -8 5 -15 10 -15 6 0 10 7 10 15 0 8 -4 15 -10 15 -5 0
-10 -7 -10 -15z"/>
</g>
<g>
<path d="M477 2123 c-10 -56 -8 -123 2 -123 11 0 20 141 10 153 -3 5 -9 -9
-12 -30z"/>
</g>
<g>
<path d="M439 2110 c-1 -16 -2 -34 -3 -40 -1 -5 3 -10 9 -10 5 0 11 18 12 40
1 22 -2 40 -7 40 -6 0 -11 -13 -11 -30z"/>
</g>
<g>
<path d="M280 2040 c0 -5 5 -10 10 -10 6 0 10 5 10 10 0 6 -4 10 -10 10 -5 0
-10 -4 -10 -10z"/>
</g>
<g>
<path d="M270 1980 c0 -11 5 -20 10 -20 6 0 10 9 10 20 0 11 -4 20 -10 20 -5
0 -10 -9 -10 -20z"/>
</g>
<g>
<path d="M1900 2471 c0 -11 5 -23 10 -26 6 -4 10 5 10 19 0 14 -4 26 -10 26
-5 0 -10 -9 -10 -19z"/>
</g>
<g>
<path d="M1950 2470 c0 -11 5 -20 10 -20 6 0 10 9 10 20 0 11 -4 20 -10 20 -5
0 -10 -9 -10 -20z"/>
</g>
<g>
<path d="M1990 2465 c0 -14 5 -25 10 -25 6 0 10 11 10 25 0 14 -4 25 -10 25
-5 0 -10 -11 -10 -25z"/>
</g>
<g>
<path d="M2040 2465 c0 -14 5 -25 10 -25 6 0 10 11 10 25 0 14 -4 25 -10 25
-5 0 -10 -11 -10 -25z"/>
</g>
<g>
<path d="M2216 2414 c-6 -62 -3 -85 9 -72 11 11 18 138 8 138 -6 0 -13 -30
-17 -66z"/>
</g>
<g>
<path d="M1405 2460 c-4 -6 -3 -16 3 -22 6 -6 12 -6 17 2 4 6 3 16 -3 22 -6 6
-12 6 -17 -2z"/>
</g>
<g>
<path d="M1630 2449 c0 -5 5 -7 10 -4 6 3 10 8 10 11 0 2 -4 4 -10 4 -5 0 -10
-5 -10 -11z"/>
</g>
<g>
<path d="M1680 2450 c0 -5 5 -10 10 -10 6 0 10 5 10 10 0 6 -4 10 -10 10 -5 0
-10 -4 -10 -10z"/>
</g>
<g>
<path d="M1720 2450 c0 -5 5 -10 10 -10 6 0 10 5 10 10 0 6 -4 10 -10 10 -5 0
-10 -4 -10 -10z"/>
</g>
<g>
<path d="M727 2408 c-7 -23 -1 -38 14 -38 5 0 9 14 9 30 0 35 -15 40 -23 8z"/>
</g>
<g>
<path d="M1600 2330 c0 -47 4 -80 10 -80 6 0 10 15 10 34 0 18 3 54 6 80 6 38
4 46 -10 46 -13 0 -16 -13 -16 -80z"/>
</g>
<g>
<path d="M2040 2394 c0 -8 5 -12 10 -9 6 4 8 11 5 16 -9 14 -15 11 -15 -7z"/>
</g>
<g>
<path d="M860 2390 c0 -5 5 -10 10 -10 6 0 10 5 10 10 0 6 -4 10 -10 10 -5 0
-10 -4 -10 -10z"/>
</g>
<g>
<path d="M1320 2390 c0 -5 5 -10 10 -10 6 0 10 5 10 10 0 6 -4 10 -10 10 -5 0
-10 -4 -10 -10z"/>
</g>
<g>
<path d="M1435 2350 c-3 -5 -1 -10 4 -10 6 0 11 5 11 10 0 6 -2 10 -4 10 -3 0
-8 -4 -11 -10z"/>
</g>
<g>
<path d="M1310 2340 c0 -5 5 -10 10 -10 6 0 10 5 10 10 0 6 -4 10 -10 10 -5 0
-10 -4 -10 -10z"/>
</g>
<g>
<path d="M824 2308 c3 -13 6 -26 6 -30 0 -11 28 -10 35 2 5 9 -28 50 -41 50
-4 0 -4 -10 0 -22z"/>
</g>
<g>
<path d="M735 2310 c3 -5 8 -10 11 -10 2 0 4 5 4 10 0 6 -5 10 -11 10 -5 0 -7
-4 -4 -10z"/>
</g>
<g>
<path d="M910 2300 c0 -5 5 -10 10 -10 6 0 10 5 10 10 0 6 -4 10 -10 10 -5 0
-10 -4 -10 -10z"/>
</g>
<g>
<path d="M1170 2270 c-192 -65 -231 -80 -338 -132 -76 -37 -102 -54 -100 -66
3 -14 19 -17 103 -18 68 -1 109 3 129 12 16 8 37 12 46 9 10 -3 30 -1 45 5 19
7 31 7 40 0 6 -5 41 -12 77 -14 36 -2 75 -10 87 -18 24 -15 28 -30 6 -22 -34
14 -45 -15 -45 -116 0 -128 6 -151 48 -200 l35 -42 -7 -109 c-4 -72 -3 -109 4
-109 5 0 10 19 10 43 0 59 9 87 26 80 10 -3 14 2 14 18 0 13 5 31 11 39 9 13
10 12 5 -2 -6 -21 2 -48 15 -48 5 0 9 12 9 26 0 35 18 21 41 -31 20 -44 51
-65 98 -65 32 0 47 14 77 74 16 32 34 48 86 75 48 25 68 41 77 65 25 63 40
143 41 219 l0 77 -40 0 c-44 0 -53 13 -17 25 63 22 82 23 111 8 19 -10 42 -13
67 -9 22 3 49 1 64 -6 21 -9 31 -9 46 0 10 7 32 12 48 12 17 0 33 4 36 10 3 5
33 8 66 7 43 -1 62 2 69 13 11 18 4 30 -20 30 -21 0 -126 49 -260 121 -167 90
-268 98 -324 24 -31 -41 -39 -42 -73 -15 -30 23 -77 25 -113 5 -23 -12 -28
-11 -55 9 -42 32 -91 56 -112 55 -10 0 -70 -18 -133 -39z m151 9 c36 -13 69
-36 69 -51 0 -4 -11 -8 -25 -8 -19 0 -25 5 -25 21 0 16 -4 19 -17 13 -31 -13
-106 -17 -99 -5 4 6 18 11 31 11 18 0 23 4 19 15 -7 18 2 19 47 4z m490 -6
c56 -11 30 -26 -36 -21 -61 5 -89 -2 -65 -17 20 -12 9 -25 -16 -19 -20 5 -26
2 -31 -15 -5 -21 -43 -31 -43 -11 0 6 4 10 10 10 5 0 30 21 56 46 38 37 52 44
72 39 13 -3 37 -9 53 -12z m-631 -32 c0 -10 -110 -55 -117 -48 -7 7 26 29 64
43 46 16 53 17 53 5z m745 -5 c19 -8 35 -20 35 -25 0 -13 1 -13 -41 0 -19 6
-40 13 -47 15 -14 4 -7 24 9 24 5 0 25 -7 44 -14z m-360 -18 c23 -18 26 -26
22 -56 -11 -63 -78 -84 -116 -36 -27 35 -26 59 4 89 30 31 54 31 90 3z m275 3
c0 -5 22 -17 50 -26 71 -24 76 -40 9 -31 -29 4 -56 12 -60 17 -8 14 -79 24
-79 11 0 -5 11 -13 25 -16 14 -4 25 -11 25 -17 0 -6 -7 -8 -16 -5 -9 3 -33 9
-55 12 -40 7 -54 24 -19 24 11 0 25 9 32 20 9 14 24 20 50 20 21 0 38 -4 38
-9z m-640 -11 c0 -14 -55 -40 -82 -39 -18 0 -14 5 22 24 52 27 60 29 60 15z
m110 -1 c0 -12 -61 -39 -87 -39 -14 1 -11 6 12 25 30 25 75 34 75 14z m115 2
c3 -5 1 -12 -5 -16 -5 -3 -10 1 -10 9 0 18 6 21 15 7z m-417 -38 c-4 -22 -94
-67 -162 -82 -27 -6 -51 -10 -53 -7 -11 10 173 103 210 105 5 1 7 -7 5 -16z
m362 9 c0 -9 -54 -42 -69 -42 -17 0 -13 28 7 39 20 12 62 14 62 3z m724 -37
c103 -50 111 -58 52 -51 -38 5 -156 40 -174 51 -1 1 0 10 4 19 9 24 39 20 118
-19z m-674 -6 c0 -20 -24 -26 -35 -9 -8 13 14 42 26 34 5 -3 9 -14 9 -25z
m292 -7 c-13 -2 -30 2 -38 9 -15 12 -29 6 -29 -14 0 -7 -9 -13 -19 -15 -14 -3
-17 0 -12 13 3 9 6 20 6 25 0 16 64 15 90 0 l24 -15 -22 -3z m-533 24 c-2 -2
-33 -16 -69 -30 -44 -17 -57 -20 -41 -8 26 19 78 40 100 41 8 1 12 -1 10 -3z
m-129 -9 c0 -6 -93 -63 -112 -70 -38 -13 -15 10 40 40 54 30 72 37 72 30z
m200 -5 c0 -12 -35 -30 -74 -37 -48 -10 -46 2 7 25 46 20 67 24 67 12z m710
-46 c39 -18 58 -32 48 -34 -10 -2 -30 4 -45 12 -15 8 -50 27 -78 41 -72 36 -8
20 75 -19z m-105 7 c50 -25 70 -43 45 -43 -13 0 -81 38 -100 56 -21 21 -7 17
55 -13z m-575 8 c0 -13 -56 -33 -77 -28 -14 3 -10 8 17 20 40 18 60 21 60 8z
m494 -7 c9 -3 16 -10 16 -15 0 -13 -39 -10 -80 6 l-35 13 42 1 c23 1 48 -2 57
-5z m-446 -24 c-13 -20 -28 -27 -28 -12 0 10 22 32 32 32 5 0 3 -9 -4 -20z
m56 -2 c-8 -29 -10 -31 -23 -24 -7 5 -7 13 2 26 16 27 30 25 21 -2z m56 18 c0
-3 -4 -8 -10 -11 -5 -3 -10 -1 -10 4 0 6 5 11 10 11 6 0 10 -2 10 -4z m175
-14 c-3 -3 -11 0 -18 7 -9 10 -8 11 6 5 10 -3 15 -9 12 -12z m468 -2 c5 -4 -3
-5 -17 -3 -15 3 -29 10 -32 15 -7 11 36 1 49 -12z m-496 -71 c10 -1 25 -2 33
-3 8 -2 45 -3 81 -4 65 -2 67 -3 71 -30 2 -15 1 -62 -2 -104 -9 -103 -40 -163
-100 -195 -76 -40 -88 -51 -95 -85 -9 -43 -22 -58 -49 -58 -30 1 -52 20 -69
62 -12 28 -29 44 -69 65 -29 15 -72 48 -95 72 l-43 44 0 117 0 117 49 -5 c88
-8 162 6 190 37 l25 28 28 -29 c15 -15 35 -28 45 -29z m-247 21 c0 -5 -9 -10
-21 -10 -11 0 -17 5 -14 10 3 6 13 10 21 10 8 0 14 -4 14 -10z m355 0 c3 -5 1
-10 -4 -10 -6 0 -11 5 -11 10 0 6 2 10 4 10 3 0 8 -4 11 -10z m-360 -379 c3
-5 1 -12 -5 -16 -5 -3 -10 1 -10 9 0 18 6 21 15 7z"/>
<g>
<path d="M1472 1950 c-9 -16 -28 -32 -42 -35 -36 -9 -60 -34 -60 -63 0 -31 33
-78 67 -94 19 -10 29 -25 37 -58 12 -51 36 -63 67 -34 12 11 19 30 19 56 0 28
4 38 15 38 32 0 65 47 65 90 0 39 -2 43 -40 57 -24 10 -40 23 -40 33 0 47 -63
55 -88 10z"/>
</g>
</g>
<g>
<path d="M795 2270 c-3 -5 -1 -10 4 -10 6 0 11 5 11 10 0 6 -2 10 -4 10 -3 0
-8 -4 -11 -10z"/>
</g>
<g>
<path d="M720 2250 c0 -5 5 -10 11 -10 5 0 7 5 4 10 -3 6 -8 10 -11 10 -2 0
-4 -4 -4 -10z"/>
</g>
<g>
<path d="M2225 2210 c-3 -5 -1 -10 4 -10 6 0 11 5 11 10 0 6 -2 10 -4 10 -3 0
-8 -4 -11 -10z"/>
</g>
<g>
<path d="M720 2145 c0 -28 4 -44 10 -40 6 3 10 21 10 40 0 19 -4 37 -10 40 -6
4 -10 -12 -10 -40z"/>
</g>
<g>
<path d="M687 2083 c-11 -10 -8 -61 3 -68 6 -4 10 10 10 34 0 42 -2 46 -13 34z"/>
</g>
<g>
<path d="M2100 2030 c0 -5 5 -10 11 -10 5 0 7 5 4 10 -3 6 -8 10 -11 10 -2 0
-4 -4 -4 -10z"/>
</g>
<g>
<path d="M2050 2010 c0 -5 5 -10 10 -10 6 0 10 5 10 10 0 6 -4 10 -10 10 -5 0
-10 -4 -10 -10z"/>
</g>
<g>
<path d="M1955 1980 c3 -5 8 -10 11 -10 2 0 4 5 4 10 0 6 -5 10 -11 10 -5 0
-7 -4 -4 -10z"/>
</g>
<g>
<path d="M1048 1963 c7 -3 16 -2 19 1 4 3 -2 6 -13 5 -11 0 -14 -3 -6 -6z"/>
</g>
<g>
<path d="M1090 1929 c0 -5 5 -7 10 -4 6 3 10 8 10 11 0 2 -4 4 -10 4 -5 0 -10
-5 -10 -11z"/>
</g>
<g>
<path d="M1958 1873 c-8 -14 4 -113 13 -113 4 0 7 25 5 55 -3 53 -10 75 -18
58z"/>
</g>
<g>
<path d="M1114 1856 c-8 -22 3 -33 18 -18 9 9 9 15 0 24 -9 9 -13 7 -18 -6z"/>
</g>
<g>
<path d="M995 1787 c-4 -10 -3 -23 3 -29 14 -14 21 3 12 27 -7 19 -8 19 -15 2z"/>
</g>
<g>
<path d="M1047 1793 c-10 -9 -9 -203 1 -203 4 0 8 47 9 105 1 58 0 105 -1 105
-2 0 -6 -3 -9 -7z"/>
</g>
<g>
<path d="M1115 1710 c-3 -5 -9 -79 -12 -163 -4 -111 -3 -156 6 -161 8 -5 11
16 12 76 0 46 4 122 7 171 7 80 3 102 -13 77z"/>
</g>
<g>
<path d="M1920 1706 c0 -8 5 -18 10 -21 6 -3 10 3 10 14 0 12 -4 21 -10 21 -5
0 -10 -6 -10 -14z"/>
</g>
<g>
<path d="M1077 1693 c-3 -5 -8 -75 -10 -158 -6 -167 6 -131 20 58 7 95 4 123
-10 100z"/>
</g>
<g>
<path d="M1822 1590 c-1 -44 2 -80 7 -80 10 0 18 79 13 127 -7 59 -18 35 -20
-47z"/>
</g>
<g>
<path d="M1866 1583 c-9 -108 -8 -163 4 -163 6 0 10 24 10 53 0 28 3 82 7 120
4 42 2 67 -4 67 -6 0 -13 -34 -17 -77z"/>
</g>
<g>
<path d="M1920 1650 c0 -5 5 -10 10 -10 6 0 10 5 10 10 0 6 -4 10 -10 10 -5 0
-10 -4 -10 -10z"/>
</g>
<g>
<path d="M1267 1644 c-8 -8 3 -34 14 -34 11 0 12 27 0 34 -4 3 -11 3 -14 0z"/>
</g>
<g>
<path d="M1745 1641 c-3 -5 -1 -12 5 -16 5 -3 10 1 10 9 0 18 -6 21 -15 7z"/>
</g>
<g>
<path d="M1150 1591 c0 -31 14 -49 25 -32 8 13 -5 61 -16 61 -5 0 -9 -13 -9
-29z"/>
</g>
<g>
<path d="M1887 1363 c-11 -10 -8 -93 3 -93 6 0 10 13 10 29 0 17 5 33 10 36
15 9 12 35 -3 35 -8 0 -17 -3 -20 -7z"/>
</g>
<g>
<path d="M1030 1300 c0 -5 5 -10 11 -10 5 0 7 5 4 10 -3 6 -8 10 -11 10 -2 0
-4 -4 -4 -10z"/>
</g>
<g>
<path d="M1530 1280 c0 -5 5 -10 10 -10 6 0 10 5 10 10 0 6 -4 10 -10 10 -5 0
-10 -4 -10 -10z"/>
</g>
<g>
<path d="M1530 1220 c0 -5 5 -10 10 -10 6 0 10 5 10 10 0 6 -4 10 -10 10 -5 0
-10 -4 -10 -10z"/>
</g>
<g>
<path d="M1460 1151 c0 -17 5 -31 10 -31 6 0 10 11 10 24 0 14 -4 28 -10 31
-6 4 -10 -7 -10 -24z"/>
</g>
<g>
<path d="M1490 1088 c0 -29 -3 -97 -7 -150 -4 -71 -3 -98 5 -98 8 0 12 23 12
68 1 54 3 63 12 48 6 -12 8 -43 5 -82 -4 -36 -2 -64 3 -64 16 0 22 39 20 133
0 51 2 109 6 130 8 46 -9 50 -24 5 -10 -33 -10 -33 -11 15 -1 65 -21 60 -21
-5z"/>
</g>
<g>
<path d="M1550 830 c0 -5 5 -10 10 -10 6 0 10 5 10 10 0 6 -4 10 -10 10 -5 0
-10 -4 -10 -10z"/>
</g>
<g>
<path d="M2823 1913 c15 -2 37 -2 50 0 12 2 0 4 -28 4 -27 0 -38 -2 -22 -4z"/>
</g>
<g>
<path d="M2265 1723 c-11 -3 -24 -9 -30 -15 -7 -6 0 -7 18 -3 17 5 27 3 27 -4
0 -6 -6 -11 -12 -12 -7 0 0 -5 17 -10 30 -9 85 7 85 24 0 19 -61 30 -105 20z"/>
</g>
<g>
<path d="M2280 1648 c0 -11 41 -10 59 1 10 6 2 9 -22 8 -21 0 -37 -5 -37 -9z"/>
</g>
<g>
<path d="M2400 1571 c-17 -5 -21 -9 -12 -15 15 -9 52 1 52 15 0 10 -4 10 -40
0z"/>
</g>
<g>
<path d="M2341 1523 l-26 -11 27 -1 c16 -1 32 -9 38 -20 11 -22 52 -18 43 5
-3 10 2 14 18 14 17 0 20 3 12 11 -16 16 -79 17 -112 2z"/>
</g>
<g>
<path d="M2424 942 c3 -5 17 -12 32 -15 30 -5 20 8 -15 18 -15 4 -21 3 -17 -3z"/>
</g>
<g>
<path d="M2380 922 c0 -10 82 -32 113 -31 16 0 -82 35 -110 39 -2 0 -3 -4 -3
-8z"/>
</g>
<g>
<path d="M2207 889 c7 -7 15 -10 18 -7 3 3 -2 9 -12 12 -14 6 -15 5 -6 -5z"/>
</g>
<g>
<path d="M2880 1220 c0 -5 5 -10 10 -10 6 0 10 5 10 10 0 6 -4 10 -10 10 -5 0
-10 -4 -10 -10z"/>
</g>
<g>
<path d="M2800 1210 c0 -5 11 -10 25 -10 14 0 25 5 25 10 0 6 -11 10 -25 10
-14 0 -25 -4 -25 -10z"/>
</g>
<g>
<path d="M2865 1180 c-3 -5 -1 -10 4 -10 6 0 11 5 11 10 0 6 -2 10 -4 10 -3 0
-8 -4 -11 -10z"/>
</g>
<g>
<path d="M2900 930 c0 -5 4 -10 9 -10 6 0 13 5 16 10 3 6 -1 10 -9 10 -9 0
-16 -4 -16 -10z"/>
</g>
<g>
<path d="M1450 710 c0 -5 5 -10 10 -10 6 0 10 5 10 10 0 6 -4 10 -10 10 -5 0
-10 -4 -10 -10z"/>
</g>
<g>
<path d="M1490 710 c0 -5 5 -10 10 -10 6 0 10 5 10 10 0 6 -4 10 -10 10 -5 0
-10 -4 -10 -10z"/>
</g>
<g>
<path d="M1397 673 c-9 -2 -15 -8 -12 -12 6 -11 55 -1 55 10 0 9 -13 10 -43 2z"/>
</g>
<g>
<path d="M1390 621 c0 -6 5 -13 10 -16 6 -3 10 1 10 9 0 9 -4 16 -10 16 -5 0
-10 -4 -10 -9z"/>
</g>
<g>
<path d="M1585 621 c-3 -5 -1 -12 5 -16 5 -3 10 1 10 9 0 18 -6 21 -15 7z"/>
</g>
<g>
<path d="M1440 586 c0 -10 9 -16 25 -16 14 0 25 5 25 11 0 5 -5 7 -10 4 -6 -4
-17 -1 -25 5 -12 10 -15 9 -15 -4z"/>
</g>
<g>
<path d="M1490 490 c0 -11 4 -20 9 -20 13 0 32 26 24 33 -13 14 -33 6 -33 -13z"/>
</g>
<g>
<path d="M1425 490 c-23 -10 -21 -11 18 -16 18 -2 27 2 27 12 0 16 -15 17 -45
4z"/>
</g>
<g>
<path d="M1548 473 c7 -3 16 -2 19 1 4 3 -2 6 -13 5 -11 0 -14 -3 -6 -6z"/>
</g>
<g>
<path d="M945 580 c-3 -5 -1 -10 4 -10 6 0 11 5 11 10 0 6 -2 10 -4 10 -3 0
-8 -4 -11 -10z"/>
</g>
<g>
<path d="M1993 506 c4 -14 47 -21 47 -8 0 5 -11 12 -25 15 -16 3 -24 0 -22 -7z"/>
</g>
<g>
<path d="M1020 467 c-22 -9 -23 -11 -6 -14 10 -3 23 0 29 6 16 16 5 20 -23 8z"/>
</g>
</g>
<g>
<path d="M1435 5180 c-93 -3 -150 -7 -126 -10 l44 -5 25 -68 c14 -37 22 -70
19 -74 -4 -3 -29 -7 -57 -8 -27 -1 -53 -5 -57 -8 -3 -4 96 -7 220 -7 155 0
227 3 227 11 0 6 -14 9 -32 7 l-33 -3 0 75 c0 53 4 75 13 76 6 1 26 2 44 3 17
0 29 3 26 6 -8 9 -126 11 -313 5z m34 -26 c1 -1 -5 -26 -14 -54 -9 -28 -18
-50 -20 -48 -9 9 -42 108 -38 112 5 5 64 -3 72 -10z m149 -61 c2 -42 -1 -73
-7 -73 -5 0 -16 -3 -24 -6 -12 -4 -16 9 -19 68 -6 84 -4 90 25 86 20 -3 22
-10 25 -75z m-98 -8 l0 -65 -30 0 c-16 0 -30 4 -30 10 0 14 48 120 54 120 4 0
6 -29 6 -65z"/>
</g>
<g>
<path d="M2994 4830 c0 -124 2 -174 3 -112 2 61 2 163 0 225 -1 61 -3 11 -3
-113z"/>
</g>
<g>
<path d="M156 3182 c-12 -12 -5 -19 19 -19 14 0 25 3 25 7 0 10 -37 20 -44 12z"/>
</g>
<g>
<path d="M2750 3140 c0 -5 12 -10 28 -9 24 0 25 1 7 9 -27 12 -35 12 -35 0z"/>
</g>
<g>
<path d="M2640 3130 c0 -5 6 -10 14 -10 8 0 18 5 21 10 3 6 -3 10 -14 10 -12
0 -21 -4 -21 -10z"/>
</g>
<g>
<path d="M2475 3049 c-10 -45 3 -113 23 -126 11 -6 33 -8 57 -3 l40 8 -37 1
c-45 1 -68 29 -68 83 0 39 16 60 26 34 8 -21 50 -21 58 0 5 13 1 15 -18 10
-13 -3 -26 -2 -28 3 -2 4 -13 11 -25 15 -18 6 -22 2 -28 -25z"/>
</g>
<g>
<path d="M2660 3005 c0 -19 7 -26 28 -31 15 -4 30 -11 33 -17 4 -5 9 -5 13 2
4 6 -3 15 -17 20 -13 5 -27 19 -30 30 -7 29 -27 26 -27 -4z"/>
</g>
<g>
<path d="M2535 2999 c-10 -15 3 -25 16 -12 7 7 7 13 1 17 -6 3 -14 1 -17 -5z"/>
</g>
<g>
<path d="M2568 2903 c7 -3 16 -2 19 1 4 3 -2 6 -13 5 -11 0 -14 -3 -6 -6z"/>
</g>
<g>
<path d="M90 2879 c0 -5 5 -7 10 -4 6 3 10 8 10 11 0 2 -4 4 -10 4 -5 0 -10
-5 -10 -11z"/>
</g>
<g>
<path d="M90 2820 c0 -5 5 -10 10 -10 6 0 10 5 10 10 0 6 -4 10 -10 10 -5 0
-10 -4 -10 -10z"/>
</g>
<g>
<path d="M60 1116 c0 -8 5 -18 10 -21 6 -3 10 3 10 14 0 12 -4 21 -10 21 -5 0
-10 -6 -10 -14z"/>
</g>
<g>
<path d="M120 1110 c0 -5 5 -10 10 -10 6 0 10 5 10 10 0 6 -4 10 -10 10 -5 0
-10 -4 -10 -10z"/>
</g>
<g>
<path d="M160 1075 c0 -9 6 -12 15 -9 8 4 12 10 9 15 -8 14 -24 10 -24 -6z"/>
</g>
<g>
<path d="M100 1070 c0 -5 5 -10 10 -10 6 0 10 5 10 10 0 6 -4 10 -10 10 -5 0
-10 -4 -10 -10z"/>
</g>
<g>
<path d="M60 1040 c0 -5 5 -10 10 -10 6 0 10 5 10 10 0 6 -4 10 -10 10 -5 0
-10 -4 -10 -10z"/>
</g>
<g>
<path d="M30 985 c0 -8 4 -15 10 -15 5 0 7 7 4 15 -4 8 -8 15 -10 15 -2 0 -4
-7 -4 -15z"/>
</g>
<g>
<path d="M126 993 c-14 -15 -4 -23 27 -20 17 1 32 7 32 12 0 11 -50 17 -59 8z"/>
</g>
<g>
<path d="M46 951 c-4 -5 -2 -12 3 -15 5 -4 12 -2 15 3 4 5 2 12 -3 15 -5 4
-12 2 -15 -3z"/>
</g>
<g>
<path d="M7 934 c6 -17 36 -19 31 -2 -2 6 -11 12 -20 14 -11 1 -15 -3 -11 -12z"/>
</g>
<g>
<path d="M90 920 c0 -5 5 -10 10 -10 6 0 10 5 10 10 0 6 -4 10 -10 10 -5 0
-10 -4 -10 -10z"/>
</g>
<g>
<path d="M2 880 c0 -14 2 -19 5 -12 2 6 2 18 0 25 -3 6 -5 1 -5 -13z"/>
</g>
<g>
<path d="M160 880 c0 -5 5 -10 10 -10 6 0 10 5 10 10 0 6 -4 10 -10 10 -5 0
-10 -4 -10 -10z"/>
</g>
<g>
<path d="M0 820 c0 -13 5 -18 15 -14 19 8 19 20 0 28 -10 4 -15 -1 -15 -14z"/>
</g>
<g>
<path d="M90 825 c0 -10 10 -15 31 -15 38 0 35 22 -4 27 -19 3 -27 -1 -27 -12z"/>
</g>
<g>
<path d="M175 829 c-10 -15 3 -25 16 -12 7 7 7 13 1 17 -6 3 -14 1 -17 -5z"/>
</g>
<g>
<path d="M140 330 c-21 -40 8 -52 50 -20 18 13 28 16 37 8 15 -12 17 -94 4
-150 -9 -40 0 -49 44 -44 25 2 28 7 19 29 -3 9 -3 51 1 92 7 75 7 75 36 75 19
0 29 -5 29 -14 0 -27 20 -27 32 -1 17 38 5 42 -127 44 -106 2 -115 0 -125 -19z"/>
</g>
<g>
<path d="M428 255 c3 -62 0 -100 -7 -109 -10 -11 -3 -15 36 -18 56 -5 60 -4
44 16 -7 8 -11 32 -9 52 3 38 3 38 48 38 l45 1 0 -40 c1 -22 -3 -45 -7 -51 -9
-13 44 -25 62 -14 5 3 9 50 7 113 l-2 107 -33 0 c-33 0 -34 0 -30 -42 l3 -43
-49 -3 -49 -3 6 45 7 46 -38 0 -37 0 3 -95z"/>
</g>
<g>
<path d="M674 240 c-2 -125 -15 -111 106 -113 36 -1 65 3 65 8 0 6 4 16 9 23
5 8 4 18 -2 24 -7 7 -15 4 -24 -11 -10 -17 -23 -21 -61 -21 -41 0 -48 3 -43
16 3 9 6 29 6 45 0 31 26 41 36 14 12 -30 34 -16 34 20 0 34 -20 49 -35 25
-13 -21 -35 -10 -35 19 0 25 4 29 33 34 17 2 38 0 45 -6 16 -12 26 -3 19 18
-5 12 -23 15 -79 15 l-73 0 -1 -110z"/>
</g>
<g>
<path d="M1214 326 c-57 -25 -78 -79 -54 -140 19 -50 110 -72 175 -41 29 14
29 14 -20 9 -42 -4 -54 -1 -77 18 -40 35 -45 78 -13 117 32 37 77 44 68 10 -5
-16 -2 -20 12 -18 27 6 44 37 25 49 -21 14 -80 12 -116 -4z"/>
</g>
<g>
<path d="M1399 326 c8 -9 12 -47 10 -106 -1 -50 1 -93 3 -96 3 -3 17 -2 30 1
23 6 24 10 20 61 l-4 54 51 0 52 0 -2 -55 c-1 -30 0 -57 3 -61 4 -3 19 -3 35
0 l28 7 0 104 0 105 -37 0 c-36 0 -37 -1 -32 -30 9 -42 -7 -56 -55 -52 -44 4
-48 12 -31 56 9 26 9 26 -36 26 -39 0 -45 -2 -35 -14z"/>
</g>
<g>
<path d="M1705 330 c-3 -5 3 -10 14 -10 26 0 26 -14 1 -65 -11 -22 -20 -47
-20 -55 0 -8 -7 -28 -15 -44 -19 -36 -19 -36 8 -36 19 0 24 5 24 28 0 15 6 40
12 55 10 25 15 28 48 25 35 -3 38 -6 41 -36 2 -18 -1 -39 -7 -46 -15 -18 -4
-26 36 -26 32 0 43 12 23 25 -5 3 -10 46 -10 95 0 71 -3 89 -16 94 -26 10
-132 7 -139 -4z m107 -25 c3 -3 3 -17 0 -30 -6 -35 -52 -36 -52 -2 0 13 3 27
7 30 8 8 37 9 45 2z"/>
</g>
<g>
<path d="M1918 334 c-4 -3 -2 -19 2 -35 5 -16 6 -62 3 -104 l-6 -75 30 0 30 0
-5 55 c-4 49 -2 55 14 55 12 0 28 -17 44 -47 17 -33 33 -49 52 -54 37 -10 43
3 13 29 -35 31 -41 66 -16 91 23 23 26 43 11 72 -9 16 -22 19 -89 19 -43 0
-80 -3 -83 -6z m132 -50 c0 -33 -1 -34 -40 -34 -39 0 -40 1 -40 34 0 32 3 35
33 38 44 5 47 2 47 -38z"/>
</g>
<g>
<path d="M2164 323 c12 -44 18 -171 7 -177 -24 -15 -9 -26 37 -26 41 1 45 2
30 14 -15 11 -18 29 -18 98 0 52 5 89 12 96 9 9 3 12 -31 12 -36 0 -42 -3 -37
-17z"/>
</g>
<g>
<path d="M2313 305 c-33 -33 -35 -39 -31 -85 6 -61 27 -86 79 -94 67 -11 119
30 127 100 4 39 1 47 -31 79 -49 49 -95 49 -144 0z m115 -1 c20 -14 23 -23 20
-76 -3 -52 -6 -61 -30 -76 -21 -12 -34 -14 -55 -6 -26 9 -28 13 -31 74 -3 57
0 67 19 82 26 22 48 23 77 2z"/>
</g>
<g>
<path d="M2537 333 c-13 -12 -7 -43 8 -43 8 0 15 5 15 10 0 6 9 10 20 10 18 0
20 -7 20 -84 0 -78 -2 -84 -22 -92 -17 -6 -9 -9 36 -11 33 -2 64 1 69 6 8 8 6
11 -6 11 -15 0 -17 11 -17 80 0 88 12 106 53 81 16 -10 21 -10 28 1 13 20 11
25 -13 32 -31 8 -183 8 -191 -1z"/>
</g>
<g>
<path d="M2761 171 c-21 -14 -5 -43 21 -39 15 2 23 10 23 23 0 22 -22 30 -44
16z"/>
</g>
</g>
</svg>
