<?xml version="1.0" standalone="no"?>
<!DOCTYPE svg PUBLIC "-//W3C//DTD SVG 20010904//EN"
 "http://www.w3.org/TR/2001/REC-SVG-20010904/DTD/svg10.dtd">
<svg version="1.0" xmlns="http://www.w3.org/2000/svg"
 width="300.000000pt" height="528.000000pt" viewBox="0 0 300.000000 528.000000"
 preserveAspectRatio="xMidYMid meet">
<metadata>
Created by potrace 1.15, written by Peter Selinger 2001-2017
</metadata>
<g transform="translate(0.000000,528.000000) scale(0.100000,-0.100000)"
fill="#000000" stroke="none">
<g>
<path d="M164 5272 l-151 -3 -6 -107 c-7 -135 -11 -2559 -4 -2552 3 3 8 379
11 835 6 746 8 830 22 833 13 3 15 14 10 65 -5 54 -4 58 6 32 6 -16 17 -36 25
-43 8 -8 11 -19 8 -26 -3 -6 -8 -18 -11 -28 -3 -9 -14 -18 -25 -21 -30 -8 -22
-24 12 -24 27 0 30 3 25 23 -5 17 -1 24 15 29 25 8 37 -1 21 -17 -27 -27 -9
-26 38 2 28 17 61 30 74 30 23 0 45 19 64 56 9 16 8 26 -4 40 -14 18 -15 17
-9 -10 4 -21 1 -33 -15 -48 -23 -22 -45 -14 -45 17 0 13 -10 22 -32 29 -36 10
-49 49 -15 45 9 -1 26 2 36 6 13 6 21 4 24 -3 4 -14 42 -16 42 -2 0 5 -18 13
-40 16 -24 4 -40 12 -40 20 0 17 12 18 28 2 16 -16 15 -6 -3 28 -8 16 -15 34
-15 41 0 22 23 26 37 8 12 -17 13 -17 13 9 0 25 -3 28 -25 24 -21 -5 -25 -2
-20 13 4 13 1 19 -8 19 -9 0 -17 5 -19 11 -3 8 -10 8 -25 -2 -30 -18 -39 -5
-14 20 12 12 21 32 21 46 0 14 7 37 16 50 9 14 14 32 10 40 -5 15 21 55 36 55
16 0 -5 -85 -25 -103 -21 -18 -21 -18 6 -12 23 6 27 4 27 -14 0 -15 -6 -20
-21 -18 -12 1 -24 -4 -26 -10 -3 -8 4 -13 16 -13 12 0 21 -4 21 -8 0 -11 57
-8 68 2 4 4 7 31 7 59 1 29 7 62 14 75 16 29 6 79 -20 92 -10 6 -31 7 -45 4
-24 -6 -26 -5 -19 12 4 10 7 34 6 52 -1 20 3 32 11 32 7 0 22 7 32 15 18 14
18 15 -10 27 l-29 12 35 4 c19 2 40 12 47 22 9 12 30 20 65 24 29 3 74 8 101
12 45 6 47 5 47 -18 0 -13 6 -33 14 -43 13 -18 14 -18 45 4 17 12 34 34 37 47
4 14 16 29 28 34 30 11 41 0 16 -17 -11 -8 -19 -20 -18 -26 2 -7 -7 -22 -20
-35 -23 -23 -30 -76 -12 -87 6 -3 10 -22 10 -41 0 -19 4 -34 9 -34 6 0 7 15 4
34 -6 40 27 86 62 86 24 0 59 32 48 44 -5 4 -3 6 2 5 19 -5 55 12 55 27 0 8 9
14 20 14 11 0 20 -7 20 -15 0 -15 12 -20 23 -9 12 12 -6 33 -33 39 -27 6 -28
8 -18 36 6 17 17 33 24 36 20 8 45 -17 42 -41 -3 -28 33 -88 49 -81 7 3 20 8
28 11 9 4 15 0 15 -9 0 -20 -19 -26 -48 -16 -25 10 -27 7 -37 -53 -3 -21 -1
-39 5 -43 5 -3 10 -19 10 -35 0 -30 24 -51 48 -43 8 3 10 -1 5 -12 -5 -15 -2
-16 18 -9 13 5 45 7 72 6 42 -2 51 1 77 30 32 35 35 43 20 53 -5 3 -10 17 -10
30 0 13 -5 27 -10 30 -6 4 -22 25 -36 47 -14 22 -34 42 -44 45 -34 9 -28 123
6 123 22 0 24 -14 3 -36 -17 -18 -19 -26 -10 -43 14 -26 12 -26 56 -1 37 21
40 19 47 -25 2 -15 11 -20 33 -20 27 0 30 3 27 30 -2 17 -10 36 -19 42 -15 11
-15 13 0 19 10 3 17 15 17 26 0 19 -4 20 -60 14 -36 -4 -60 -3 -60 3 0 10 319
19 466 13 76 -3 82 -5 95 -29 13 -23 12 -27 -8 -40 -20 -14 -22 -43 -2 -43 4
0 6 7 2 16 -4 12 -2 15 8 12 8 -3 16 -13 18 -24 2 -10 8 -22 14 -26 8 -5 7
-15 -3 -35 -11 -22 -14 -24 -17 -10 -5 20 -23 23 -23 4 0 -7 6 -21 13 -31 12
-16 14 -16 35 6 12 14 23 40 24 61 3 33 5 36 28 30 14 -3 28 -11 32 -17 5 -8
8 -7 8 2 0 7 -7 15 -16 19 -15 6 -15 8 2 20 26 19 34 16 34 -12 0 -20 5 -25
26 -25 17 0 28 6 31 20 6 24 5 23 38 8 32 -14 32 -20 -4 -36 -35 -15 -45 -36
-30 -64 8 -15 14 -17 22 -9 22 22 40 13 34 -17 -3 -15 -2 -34 4 -42 7 -12 9
-9 9 10 1 24 2 24 10 4 5 -12 13 -25 19 -29 6 -3 9 -11 6 -16 -4 -5 1 -9 9 -9
15 0 32 37 22 47 -3 4 -6 -1 -6 -10 0 -23 -27 -11 -34 16 -6 26 2 37 14 17 5
-8 13 -11 17 -6 4 5 2 11 -4 13 -19 7 -15 27 8 41 16 11 18 16 9 28 -7 8 -19
14 -27 14 -19 0 -11 24 9 28 9 2 24 -10 34 -27 10 -16 22 -28 26 -25 9 6 -32
67 -66 97 -13 12 -16 21 -9 28 13 13 63 -5 63 -23 0 -19 38 -40 61 -33 10 4
19 15 19 26 0 10 5 19 11 19 7 0 18 8 26 18 13 15 13 15 4 -5 -6 -12 -11 -33
-11 -47 0 -25 2 -26 42 -19 41 6 42 5 25 -11 -32 -32 -18 -85 35 -134 28 -25
79 -23 120 5 51 35 72 26 63 -27 -9 -54 0 -65 35 -40 15 11 33 20 39 20 14 0
51 59 51 83 0 9 7 17 15 17 10 0 15 -10 15 -29 0 -42 9 -61 30 -61 27 0 34 17
10 23 -27 7 -26 54 1 86 17 21 22 22 30 10 14 -22 11 -39 -6 -33 -11 5 -15 -1
-15 -20 0 -15 7 -29 15 -32 19 -8 19 -24 0 -38 -9 -6 -17 -25 -18 -41 -2 -27
1 -30 26 -30 15 0 31 -6 36 -14 5 -7 13 -11 19 -7 8 5 21 -22 22 -45 0 -3 -19
-13 -42 -22 -75 -31 -93 -42 -96 -62 -2 -11 -14 -28 -25 -38 -14 -11 -16 -15
-6 -12 20 7 35 -23 19 -39 -20 -20 -10 -29 11 -10 l22 19 -5 -45 -6 -45 19 40
c10 22 17 30 14 19 -4 -13 1 -29 12 -39 16 -17 18 -16 44 14 23 28 28 30 39
16 10 -12 10 -15 -5 -15 -14 0 -16 -6 -11 -31 5 -26 3 -30 -10 -25 -19 7 -54
-20 -54 -42 0 -26 33 -92 46 -92 18 0 35 -26 28 -44 -4 -10 -13 -14 -24 -11
-22 7 -34 -19 -16 -34 8 -6 20 -9 29 -5 19 7 43 -31 26 -41 -6 -4 -13 -4 -16
-1 -12 12 -63 -36 -63 -60 0 -28 16 -31 48 -8 19 13 22 13 22 1 0 -8 -7 -20
-15 -27 -19 -16 -9 -33 15 -25 15 5 18 0 19 -32 0 -21 3 -72 6 -114 7 -76 6
-76 -19 -83 -14 -3 -26 -11 -26 -16 0 -14 24 -12 38 2 9 9 12 6 12 -15 0 -15
5 -27 11 -27 6 0 8 9 4 20 -7 23 2 60 16 60 5 0 9 -12 9 -26 0 -14 4 -23 10
-19 16 10 12 65 -5 71 -23 9 -19 55 5 61 13 3 20 12 18 23 -2 9 3 24 11 34 12
14 11 19 -3 34 -23 26 -20 42 7 39 14 -1 22 3 22 13 0 10 -8 14 -27 12 -34 -3
-39 23 -7 33 11 4 24 18 29 31 11 29 30 32 30 5 0 -11 5 -23 10 -26 6 -3 10
-15 10 -26 0 -10 5 -19 10 -19 7 0 8 14 4 38 -7 39 -20 62 -36 62 -15 0 -34
23 -40 48 -4 14 -2 22 7 22 7 0 15 -9 18 -20 3 -11 12 -20 21 -20 13 0 15 4 6
19 -5 11 -15 23 -21 26 -19 12 -30 56 -18 71 6 7 8 22 4 34 -5 15 -2 20 10 20
14 0 16 6 10 38 -6 38 -27 62 -53 62 -10 0 -12 7 -8 25 9 34 -28 85 -56 77
-20 -5 -38 11 -38 36 0 9 7 11 20 7 11 -3 33 -7 50 -7 30 -1 39 -11 20 -23
-17 -10 -11 -25 9 -25 15 0 20 -8 23 -37 4 -47 44 -81 77 -64 24 13 29 59 6
67 -24 10 -41 -7 -21 -21 16 -12 13 -45 -5 -45 -9 0 -10 6 -13 40 -1 8 -9 14
-19 14 -9 -1 -17 2 -17 7 0 5 9 9 20 9 47 0 90 78 55 97 -20 12 -25 78 -5 78
10 0 14 -8 12 -24 -2 -24 -2 -24 18 -6 19 18 20 17 23 -146 1 -90 3 -20 3 156
0 176 -2 277 -3 224 l-4 -96 -34 16 c-43 20 -48 62 -11 86 48 32 45 105 -4
105 -53 0 -45 30 11 43 23 6 28 3 37 -26 9 -29 10 -25 11 39 l1 71 -713 7
c-391 3 -858 6 -1037 6 -179 0 -462 1 -630 2 -168 2 -373 2 -456 0z m-34 -43
c23 -1 15 -4 -25 -9 -66 -7 -70 -7 -60 10 4 7 17 9 29 6 11 -3 37 -6 56 -7z
m325 1 c3 -5 1 -10 -6 -10 -8 0 -8 -4 1 -15 19 -23 -1 -41 -28 -26 -11 6 -25
11 -31 11 -17 0 -60 -52 -54 -66 3 -8 0 -14 -6 -14 -6 0 -11 14 -11 30 0 17
-4 30 -10 30 -5 0 -10 -11 -10 -25 0 -30 -11 -32 -27 -6 -10 16 -9 22 3 32 11
9 12 14 3 19 -6 4 -8 13 -5 19 9 15 39 14 54 -1 9 -9 12 -8 12 5 0 20 22 22
51 5 17 -11 22 -10 30 5 11 19 25 22 34 7z m319 0 c55 -5 105 -15 110 -21 8
-9 8 -10 -1 -5 -7 4 -23 0 -35 -8 -31 -22 -48 -20 -48 5 0 12 -5 19 -12 16 -7
-2 -12 -15 -10 -28 2 -17 0 -20 -6 -11 -7 11 -11 10 -16 -3 -5 -14 -9 -15 -21
-5 -8 7 -30 12 -50 12 -24 0 -40 6 -50 21 -28 40 -17 42 139 27z m233 0 c20 0
34 -2 32 -5 -9 -9 -109 -13 -114 -5 -6 10 15 20 33 14 8 -2 30 -4 49 -4z
m-767 -15 c14 -17 5 -36 -15 -30 -48 15 -47 14 -33 29 17 19 32 20 48 1z m360
0 c0 -8 -4 -15 -10 -15 -5 0 -10 7 -10 15 0 8 5 15 10 15 6 0 10 -7 10 -15z
m1130 5 c0 -5 -5 -10 -11 -10 -5 0 -8 -4 -4 -9 3 -5 0 -13 -6 -16 -15 -10 -18
-3 -8 23 8 22 29 31 29 12z m160 1 c0 -5 14 -9 30 -9 36 1 48 -8 32 -24 -14
-14 2 -38 24 -38 8 0 14 -4 14 -10 0 -5 -7 -10 -15 -10 -8 0 -15 5 -15 11 0 6
-7 8 -16 5 -21 -8 -74 24 -74 46 0 9 -8 22 -17 27 -15 9 -14 10 10 11 15 0 27
-4 27 -9z m172 -9 c5 -16 2 -17 -28 -8 -42 13 -44 26 -5 26 19 0 30 -6 33 -18z
m-272 -2 c0 -5 -4 -10 -10 -10 -5 0 -10 5 -10 10 0 6 5 10 10 10 6 0 10 -4 10
-10z m330 0 c0 -5 -4 -10 -10 -10 -5 0 -10 5 -10 10 0 6 5 10 10 10 6 0 10 -4
10 -10z m230 0 c0 -5 -4 -10 -10 -10 -5 0 -10 5 -10 10 0 6 5 10 10 10 6 0 10
-4 10 -10z m390 1 c0 -12 -20 -25 -27 -18 -7 7 6 27 18 27 5 0 9 -4 9 -9z
m-890 -58 c0 -20 -4 -32 -10 -28 -5 3 -10 17 -10 30 0 18 -4 23 -15 19 -18 -7
-20 7 -3 24 18 18 38 -5 38 -45z m580 39 c0 -12 -7 -18 -20 -17 -25 2 -34 11
-25 24 11 19 45 13 45 -7z m530 8 c0 -5 -4 -10 -9 -10 -6 0 -13 5 -16 10 -3 6
1 10 9 10 9 0 16 -4 16 -10z m-1770 -9 c0 -10 -30 -24 -37 -17 -3 3 -2 9 2 15
8 13 35 15 35 2z m1009 -37 c-12 -13 -26 -24 -31 -24 -16 0 -8 21 19 48 34 34
46 12 12 -24z m426 -8 c-18 -42 -35 -45 -35 -5 0 19 7 37 17 45 25 18 34 -2
18 -40z m54 37 c-1 -10 -5 -29 -9 -43 -7 -21 -8 -19 -9 18 -1 23 4 42 9 42 6
0 10 -8 9 -17z m156 7 c-3 -5 -12 -7 -20 -3 -21 7 -19 13 6 13 11 0 18 -4 14
-10z m-360 -9 c3 -5 1 -12 -5 -16 -5 -3 -10 1 -10 9 0 18 6 21 15 7z m79 -12
c-1 -8 -5 -23 -10 -33 -6 -16 -4 -18 9 -13 9 3 17 3 17 -2 0 -12 -48 -42 -53
-33 -8 13 17 102 28 98 5 -2 9 -9 9 -17z m-1924 1 c0 -5 -4 -10 -10 -10 -5 0
-10 5 -10 10 0 6 5 10 10 10 6 0 10 -4 10 -10z m490 -4 c0 -16 -18 -31 -27
-22 -8 8 5 36 17 36 5 0 10 -6 10 -14z m650 4 c0 -5 -4 -10 -10 -10 -5 0 -10
5 -10 10 0 6 5 10 10 10 6 0 10 -4 10 -10z m619 -3 c6 -8 8 -17 5 -20 -7 -7
-44 14 -44 25 0 13 27 9 39 -5z m501 3 c0 -5 -4 -10 -10 -10 -5 0 -10 5 -10
10 0 6 5 10 10 10 6 0 10 -4 10 -10z m-2730 -10 c0 -5 -4 -10 -10 -10 -5 0
-10 5 -10 10 0 6 5 10 10 10 6 0 10 -4 10 -10z m50 -15 c0 -8 9 -15 20 -15 11
0 20 -4 20 -9 0 -5 -9 -7 -20 -4 -19 5 -20 2 -14 -36 4 -28 3 -41 -5 -41 -6 0
-11 10 -11 23 0 12 -4 28 -9 35 -10 16 -2 62 10 62 5 0 9 -7 9 -15z m1490 5
c0 -5 -4 -10 -10 -10 -5 0 -10 5 -10 10 0 6 5 10 10 10 6 0 10 -4 10 -10z
m620 0 c0 -5 -4 -10 -9 -10 -6 0 -13 5 -16 10 -3 6 1 10 9 10 9 0 16 -4 16
-10z m180 1 c0 -6 -4 -13 -10 -16 -5 -3 -10 1 -10 9 0 9 5 16 10 16 6 0 10 -4
10 -9z m-1685 -22 c0 -8 -11 -16 -25 -18 -14 -1 -28 -8 -31 -13 -4 -7 -9 -6
-13 1 -4 6 1 14 11 18 10 3 22 13 26 20 10 17 32 12 32 -8z m140 -19 c-1 -42
-21 -51 -27 -12 -5 36 1 54 16 49 6 -2 11 -19 11 -37z m-885 21 c0 -5 -7 -11
-14 -14 -10 -4 -13 -1 -9 9 6 15 23 19 23 5z m50 -1 c0 -5 -9 -14 -20 -20 -22
-12 -27 -1 -8 18 14 14 28 16 28 2z m478 -7 c-2 -10 2 -17 8 -16 18 3 4 -42
-17 -55 -17 -11 -19 -9 -19 12 0 27 16 76 25 76 3 0 5 -8 3 -17z m608 -22
c-11 -17 -25 -13 -21 7 2 9 4 19 4 22 1 2 6 -1 12 -7 6 -6 8 -16 5 -22z m1183
15 c8 -10 8 -20 -4 -42 -8 -16 -15 -25 -15 -20 0 5 -6 3 -14 -3 -12 -10 -17
-8 -26 8 -9 19 -8 21 15 21 27 0 33 18 13 38 -9 9 -8 12 4 12 8 0 21 -6 27
-14z m41 -7 c0 -5 -4 -9 -10 -9 -5 0 -10 7 -10 16 0 8 5 12 10 9 6 -3 10 -10
10 -16z m-1432 -1 c-6 -18 -28 -21 -28 -4 0 9 7 16 16 16 9 0 14 -5 12 -12z
m951 -22 c-7 -14 -20 -26 -29 -26 -9 0 -21 -5 -28 -12 -9 -9 -12 -8 -12 4 0
22 27 48 51 48 10 0 19 5 19 12 0 6 2 9 5 6 3 -3 0 -17 -6 -32z m926 23 c11
-17 -1 -21 -15 -4 -8 9 -8 15 -2 15 6 0 14 -5 17 -11z m-2706 -31 c21 -58 23
-70 10 -66 -8 3 -14 16 -15 29 -1 13 -5 32 -9 42 -4 9 -4 17 -1 17 4 0 10 -10
15 -22z m851 12 c0 -5 -4 -10 -10 -10 -5 0 -10 5 -10 10 0 6 5 10 10 10 6 0
10 -4 10 -10z m1827 -16 c9 -19 9 -32 1 -50 -17 -36 -43 -27 -42 14 3 64 21
80 41 36z m-2119 4 c-3 -7 -11 -13 -18 -13 -7 0 -15 6 -17 13 -3 7 4 12 17 12
13 0 20 -5 18 -12z m72 2 c0 -5 -7 -10 -15 -10 -8 0 -15 5 -15 10 0 6 7 10 15
10 8 0 15 -4 15 -10z m1805 0 c3 -5 1 -10 -4 -10 -6 0 -11 5 -11 10 0 6 2 10
4 10 3 0 8 -4 11 -10z m-2551 -24 c-6 -16 -24 -23 -24 -8 0 10 22 33 27 28 2
-2 1 -11 -3 -20z m86 8 c0 -8 -4 -12 -10 -9 -5 3 -10 10 -10 16 0 5 5 9 10 9
6 0 10 -7 10 -16z m2338 -46 c0 -69 -13 -107 -30 -90 -7 7 -7 21 1 43 15 44
14 62 -4 56 -19 -8 -28 8 -20 33 4 12 15 20 30 20 22 0 23 -4 23 -62z m443 50
c0 -10 2 -10 6 0 7 17 23 15 23 -3 0 -17 -36 -39 -50 -30 -6 3 -10 -3 -10 -14
0 -11 -5 -23 -10 -26 -7 -4 -8 3 -4 22 4 15 11 30 16 31 4 2 8 10 8 18 0 17
20 19 21 2z m-2171 -12 c0 -18 -28 -41 -38 -31 -4 4 -1 10 6 12 6 3 12 11 12
19 0 8 5 14 10 14 6 0 10 -6 10 -14z m320 -2 c0 -8 -4 -12 -10 -9 -5 3 -10 10
-10 16 0 5 5 9 10 9 6 0 10 -7 10 -16z m930 12 c0 -3 -4 -8 -10 -11 -5 -3 -10
-1 -10 4 0 6 5 11 10 11 6 0 10 -2 10 -4z m234 -12 c4 -10 1 -14 -6 -12 -15 5
-23 28 -10 28 5 0 13 -7 16 -16z m481 -24 c9 -17 12 -40 9 -59 -9 -43 -24 -28
-22 20 1 22 -4 45 -10 51 -7 7 -12 16 -12 21 0 15 20 -3 35 -33z m-745 22 c0
-13 -12 -22 -22 -16 -10 6 -1 24 13 24 5 0 9 -4 9 -8z m559 -10 c13 -24 -1
-76 -21 -80 -12 -2 -15 5 -13 30 2 18 3 41 4 51 1 22 18 22 30 -1z m247 -9
c-7 -7 -26 7 -26 19 0 6 6 6 15 -2 9 -7 13 -15 11 -17z m-2076 4 c0 -7 -13
-23 -30 -35 -33 -25 -36 -22 -19 11 19 35 49 50 49 24z m1660 -22 c0 -20 -34
-32 -72 -27 -28 4 -28 5 -12 23 21 24 84 26 84 4z m-1333 -31 c-9 -9 -28 6
-21 18 4 6 10 6 17 -1 6 -6 8 -13 4 -17z m93 6 c0 -5 -4 -10 -10 -10 -5 0 -10
5 -10 10 0 6 5 10 10 10 6 0 10 -4 10 -10z m1645 0 c3 -5 1 -10 -4 -10 -6 0
-11 5 -11 10 0 6 2 10 4 10 3 0 8 -4 11 -10z m-2685 -24 c-1 -5 4 -12 11 -16
9 -6 8 -12 -4 -25 -25 -24 -21 -45 8 -45 18 0 25 -5 25 -20 0 -11 2 -20 4 -20
2 0 12 -3 22 -7 11 -4 15 -3 11 4 -9 15 3 44 14 37 5 -3 7 -9 4 -14 -3 -5 0
-19 7 -30 11 -17 11 -22 0 -29 -7 -4 -10 -15 -7 -23 4 -9 1 -19 -5 -23 -12 -7
-81 21 -92 39 -5 8 -13 8 -27 -1 -26 -16 -30 -9 -20 42 5 25 6 52 2 61 -3 9 0
20 8 25 11 7 10 11 -5 22 -19 14 -19 14 0 25 21 13 46 12 44 -2z m2783 -1 c4
-6 11 -5 16 5 12 18 24 8 15 -14 -7 -18 -20 -21 -29 -6 -3 6 -24 10 -46 10
-21 0 -39 4 -39 8 0 12 73 9 83 -3z m-2713 -15 c13 -8 12 -11 -5 -24 -28 -21
-33 -20 -27 9 5 27 9 29 32 15z m836 -27 c-10 -10 -19 5 -10 18 6 11 8 11 12
0 2 -7 1 -15 -2 -18z m44 11 c0 -8 -4 -12 -10 -9 -5 3 -10 10 -10 16 0 5 5 9
10 9 6 0 10 -7 10 -16z m60 3 c0 -14 -19 -37 -31 -37 -4 0 -2 11 4 25 13 27
27 33 27 12z m1730 -15 c0 -4 -9 -13 -19 -19 -11 -7 -21 -23 -24 -35 -4 -21
-4 -20 -6 4 0 15 6 34 15 42 16 17 34 21 34 8z m135 -6 c24 -17 14 -46 -14
-39 -21 5 -35 29 -25 44 7 12 17 11 39 -5z m-225 -10 c0 -3 -4 -8 -10 -11 -5
-3 -10 -1 -10 4 0 6 5 11 10 11 6 0 10 -2 10 -4z m150 -6 c0 -5 -11 -16 -23
-25 -13 -8 -29 -26 -35 -40 -11 -24 -52 -36 -52 -15 0 6 4 10 8 10 4 0 13 14
19 30 6 17 18 30 27 30 9 0 16 5 16 10 0 6 9 10 20 10 11 0 20 -4 20 -10z
m-1845 -10 c3 -5 -1 -10 -10 -10 -9 0 -13 5 -10 10 3 6 8 10 10 10 2 0 7 -4
10 -10z m55 -20 c0 -5 -4 -10 -10 -10 -5 0 -10 5 -10 10 0 6 5 10 10 10 6 0
10 -4 10 -10z m-792 -13 c17 -11 15 -47 -3 -67 -11 -12 -12 -24 -5 -49 8 -30
-1 -81 -15 -81 -3 0 -10 12 -15 26 -8 19 -7 31 1 41 9 10 9 17 1 25 -15 15
-16 48 -1 48 5 0 3 10 -5 22 -9 12 -16 27 -16 33 0 13 39 14 58 2z m2609 -25
c-9 -10 -17 -28 -17 -39 0 -26 -10 -35 -26 -22 -15 12 -9 32 20 72 13 18 23
24 30 17 6 -6 4 -16 -7 -28z m83 23 c0 -8 -4 -15 -9 -15 -13 0 -22 16 -14 24
11 11 23 6 23 -9z m-160 -74 c0 -11 5 -23 10 -26 19 -12 11 -26 -9 -16 -19 10
-34 45 -23 55 11 12 22 5 22 -13z m-54 -6 c10 -26 0 -37 -20 -22 -11 8 -16 19
-12 25 10 16 26 15 32 -3z m144 1 c0 -3 -4 -8 -10 -11 -5 -3 -10 -1 -10 4 0 6
5 11 10 11 6 0 10 -2 10 -4z m-2810 -26 c0 -13 -11 -13 -30 0 -12 8 -11 10 8
10 12 0 22 -4 22 -10z m2560 -24 c0 -33 -25 -53 -45 -36 -19 16 -19 25 1 44
23 24 44 20 44 -8z m40 -6 c0 -5 -4 -10 -10 -10 -5 0 -10 5 -10 10 0 6 5 10
10 10 6 0 10 -4 10 -10z m220 -21 c0 -24 -23 -21 -28 4 -2 10 3 17 12 17 10 0
16 -9 16 -21z m-2787 -10 c7 -11 3 -23 -15 -42 -14 -15 -31 -27 -37 -27 -7 0
0 12 14 27 29 32 31 43 9 43 -8 0 -12 5 -9 11 8 13 26 7 38 -12z m2583 -26
c-10 -10 -19 5 -10 18 6 11 8 11 12 0 2 -7 1 -15 -2 -18z m29 -12 c3 -5 1 -12
-5 -16 -5 -3 -10 1 -10 9 0 18 6 21 15 7z m-2715 -36 c0 -24 2 -24 55 -20 50
4 55 3 55 -15 0 -23 -4 -24 -29 -8 -15 9 -24 6 -53 -15 -19 -15 -37 -27 -40
-27 -2 0 -5 25 -6 55 -1 30 3 55 8 55 6 0 10 -11 10 -25z m2765 -3 c3 -10 0
-21 -9 -28 -9 -6 -16 -17 -16 -25 0 -10 -3 -10 -12 -1 -10 10 -10 15 1 21 9 6
11 18 7 35 -5 20 -3 24 8 20 8 -3 17 -13 21 -22z m-2615 -32 c0 -5 -4 -10 -10
-10 -5 0 -10 5 -10 10 0 6 5 10 10 10 6 0 10 -4 10 -10z m2675 -41 c6 -19 0
-38 -9 -28 -10 12 -16 49 -7 49 5 0 13 -9 16 -21z m-2745 -3 c0 -8 -4 -17 -9
-20 -5 -3 -11 -15 -14 -27 -5 -19 -2 -21 26 -16 18 2 41 1 52 -3 19 -6 18 -7
-3 -26 -12 -10 -22 -26 -22 -36 0 -10 -4 -18 -10 -18 -5 0 -10 7 -10 15 0 21
-47 19 -59 -2 -9 -16 -10 -16 -11 -2 0 32 20 122 31 136 15 17 29 17 29 -1z
m-72 -48 c-6 -18 -12 -45 -15 -60 -3 -15 -9 -26 -13 -23 -18 11 15 113 37 115
1 0 -3 -15 -9 -32z m100 20 c-6 -18 -28 -21 -28 -4 0 9 7 16 16 16 9 0 14 -5
12 -12z m42 -4 c0 -9 -5 -14 -12 -12 -18 6 -21 28 -4 28 9 0 16 -7 16 -16z
m2533 -81 c-4 -10 -9 -11 -16 -4 -5 5 -7 18 -3 28 6 14 9 15 16 4 4 -8 6 -21
3 -28z m113 9 c-17 -16 -18 -16 -5 5 7 12 15 20 18 17 3 -2 -3 -12 -13 -22z
m-46 -22 c0 -6 -11 -10 -25 -10 -27 0 -28 1 -19 24 5 12 10 13 25 5 10 -5 19
-14 19 -19z m-2638 -45 c13 -3 24 -9 26 -15 2 -6 9 -7 15 -3 7 3 9 3 5 -2 -4
-4 -3 -14 3 -22 9 -10 8 -13 -4 -13 -9 0 -19 5 -22 10 -4 7 -12 7 -25 0 -22
-12 -46 -4 -54 17 -5 11 -2 13 10 9 13 -5 15 -2 11 14 -3 11 -1 18 4 14 5 -3
19 -7 31 -9z m2629 -38 c-13 -13 -26 -3 -16 12 3 6 11 8 17 5 6 -4 6 -10 -1
-17z m-2751 -21 c-14 -14 -24 0 -16 21 6 15 8 15 16 3 6 -9 5 -19 0 -24z
m2807 -32 c1 -24 -2 -34 -10 -31 -7 2 -12 12 -12 23 0 10 -3 24 -8 31 -4 6 -1
13 5 16 18 6 22 0 25 -39z m-2667 16 c0 -5 -2 -10 -4 -10 -3 0 -8 5 -11 10 -3
6 -1 10 4 10 6 0 11 -4 11 -10z m2552 -66 c-7 -12 -11 -13 -17 -4 -4 7 -2 16
6 21 18 11 23 4 11 -17z m38 12 c0 -3 -4 -8 -10 -11 -5 -3 -10 -1 -10 4 0 6 5
11 10 11 6 0 10 -2 10 -4z m38 -30 c2 -9 1 -24 -3 -33 -10 -27 -39 8 -30 36 8
25 28 23 33 -3z m18 -92 c8 -32 -8 -51 -25 -30 -13 16 -6 56 9 56 6 0 13 -12
16 -26z"/>
<g>
<path d="M1895 5180 c-8 -13 5 -13 25 0 13 8 13 10 -2 10 -9 0 -20 -4 -23 -10z"/>
</g>
<g>
<path d="M60 4829 c0 -5 5 -7 10 -4 6 3 10 8 10 11 0 2 -4 4 -10 4 -5 0 -10
-5 -10 -11z"/>
</g>
</g>
<g>
<path d="M1380 5177 c-24 -11 -24 -11 13 -15 36 -3 37 -4 37 -45 0 -23 3 -52
6 -64 5 -18 1 -22 -22 -25 -15 -2 -29 -9 -32 -16 -3 -10 13 -12 69 -10 44 2
74 8 76 15 2 6 -6 13 -19 15 -21 3 -23 9 -26 61 -3 54 -2 58 25 68 26 10 27
12 8 19 -29 12 -106 11 -135 -3z"/>
</g>
<g>
<path d="M2095 5109 c-4 -6 -5 -13 -2 -16 7 -7 27 6 27 18 0 12 -17 12 -25 -2z"/>
</g>
<g>
<path d="M1105 5080 c-3 -6 1 -13 10 -16 21 -9 26 -2 10 13 -9 8 -16 9 -20 3z"/>
</g>
<g>
<path d="M2139 5064 c-10 -13 -10 -17 1 -24 18 -11 30 -3 30 21 0 23 -13 25
-31 3z"/>
</g>
<g>
<path d="M446 5054 c-9 -23 -7 -36 3 -29 6 3 22 -11 36 -32 31 -44 26 -12 -7
43 -23 39 -24 39 -32 18z"/>
</g>
<g>
<path d="M802 5010 c1 -16 5 -30 10 -30 4 0 8 14 8 30 0 17 -4 30 -9 30 -5 0
-9 -13 -9 -30z"/>
</g>
<g>
<path d="M2167 5024 c-13 -13 -7 -24 14 -24 11 0 19 5 17 12 -5 14 -22 21 -31
12z"/>
</g>
<g>
<path d="M417 4993 c-4 -6 -3 -22 1 -35 5 -12 10 -72 11 -132 2 -96 0 -110
-17 -121 -10 -8 -24 -31 -31 -53 -11 -33 -11 -43 2 -63 8 -13 18 -35 22 -49 4
-13 14 -30 21 -38 10 -9 15 -44 16 -110 l2 -97 5 104 c4 59 11 106 16 108 6 2
19 -2 28 -9 23 -17 37 -179 18 -202 -10 -11 -9 -19 0 -34 17 -27 -3 -77 -27
-68 -10 4 -14 1 -12 -6 8 -24 27 -18 52 18 20 30 23 40 13 54 -8 11 -11 48 -9
104 4 88 15 112 27 54 3 -18 11 -42 16 -53 7 -14 5 -37 -4 -75 -15 -59 -13
-80 9 -80 9 0 14 -12 14 -34 0 -18 7 -47 15 -62 8 -16 15 -39 15 -51 0 -12 8
-27 19 -32 11 -6 21 -26 25 -50 3 -22 13 -46 21 -55 8 -8 15 -20 15 -26 0 -6
9 -23 19 -38 19 -28 25 -81 37 -327 3 -55 9 -167 14 -248 6 -82 10 -187 10
-234 0 -59 4 -89 13 -97 11 -9 13 -85 9 -393 l-4 -383 -72 0 -73 0 -1 42 c-1
24 -4 68 -7 98 -6 51 -4 57 20 78 26 22 27 51 4 76 -4 5 4 39 18 75 35 92 43
121 45 158 1 25 4 30 14 22 18 -15 52 57 37 79 -15 25 -37 28 -31 4 12 -43 -4
-50 -124 -59 -140 -10 -272 17 -228 47 8 5 24 10 35 9 15 0 13 -3 -10 -13
l-30 -13 40 2 c69 3 75 5 73 17 -4 17 92 30 165 23 64 -7 80 10 21 21 -61 11
-277 -11 -313 -32 -17 -10 -31 -22 -31 -27 0 -4 13 -25 29 -45 16 -20 53 -88
82 -151 47 -101 51 -114 36 -123 -24 -13 -21 -44 5 -62 20 -14 21 -20 14 -102
-3 -48 -9 -90 -11 -92 -4 -5 -25 4 -97 39 -34 17 -224 10 -297 -10 -89 -25
-111 -39 -111 -73 l0 -27 28 26 c15 14 45 34 68 44 40 18 147 33 158 22 3 -3
-6 -15 -20 -25 -19 -15 -33 -19 -60 -13 -37 7 -94 -1 -94 -14 0 -3 14 -12 30
-18 38 -14 38 -23 -2 -62 -37 -36 -37 -37 67 -11 l80 19 62 -24 c89 -36 102
-32 63 18 -11 14 -20 28 -20 31 0 3 18 13 40 22 22 9 40 20 40 25 0 5 -29 9
-63 9 -49 0 -68 4 -80 18 -26 28 -21 32 31 26 57 -7 120 -34 146 -63 17 -19
18 -24 5 -58 -13 -34 -22 -41 -79 -62 -54 -21 -83 -25 -165 -24 -115 0 -177
14 -211 48 l-24 24 0 -49 c0 -28 5 -50 10 -50 6 0 10 -6 10 -13 0 -6 12 -13
28 -13 127 -7 239 -13 250 -13 6 -1 12 -5 12 -11 0 -5 -7 -7 -15 -4 -10 4 -15
0 -15 -11 0 -11 5 -15 15 -11 12 4 15 -4 15 -42 0 -59 -21 -75 -94 -72 -28 2
-88 2 -133 1 -67 -1 -83 -4 -83 -16 0 -15 78 -18 577 -20 81 0 126 -4 134 -12
9 -9 7 -11 -10 -6 -29 8 -28 -25 2 -37 18 -7 15 -9 -20 -9 -24 -1 -43 4 -43 9
0 10 -43 14 -52 5 -11 -11 -578 -10 -582 0 -3 6 -4 -19 -3 -55 0 -45 2 -52 4
-23 l4 42 164 -1 c91 0 162 -4 160 -9 -3 -4 9 -4 27 2 18 5 52 9 75 9 39 0 43
-2 43 -25 0 -31 -8 -32 -20 -2 -7 18 -9 16 -9 -19 -1 -42 9 -51 64 -59 21 -3
45 29 45 62 0 30 3 33 30 33 35 0 48 -21 32 -53 -9 -18 -11 -19 -11 -4 -1 10
-9 17 -22 17 -15 0 -20 -5 -17 -22 7 -48 68 -16 68 35 0 17 3 27 7 24 3 -4 12
-2 18 3 24 20 45 0 45 -42 0 -26 4 -37 11 -32 7 4 9 21 6 40 -5 29 -3 34 14
34 20 0 26 -15 9 -25 -15 -9 -12 -42 5 -49 8 -3 15 -18 15 -33 0 -26 1 -27 18
-9 12 13 14 20 5 23 -20 7 -17 90 2 90 11 0 12 -4 5 -11 -14 -14 -13 -69 2
-60 7 4 8 3 4 -4 -4 -7 -2 -13 3 -13 6 -1 15 -2 20 -3 5 0 13 -5 18 -9 4 -5 2
-7 -6 -5 -7 2 -15 -4 -16 -13 -2 -11 3 -16 14 -15 16 3 18 9 20 96 1 37 5 50
16 50 8 0 12 -6 10 -12 -2 -7 -6 -42 -8 -78 l-4 -65 -89 0 -89 0 2 50 c2 28 0
60 -2 73 -5 19 -9 21 -25 12 -15 -8 -20 -21 -19 -53 0 -23 3 -36 6 -29 9 24
23 12 23 -22 l0 -33 -47 3 c-27 1 -54 3 -61 3 -7 1 -11 5 -7 10 3 6 14 8 25 6
14 -3 18 0 14 8 -5 8 -3 8 7 0 19 -18 28 -16 26 6 -1 11 -6 17 -12 13 -18 -11
-35 -11 -28 1 3 7 -2 5 -13 -4 -46 -38 -82 -43 -323 -45 -130 -1 -241 -2 -247
-3 -6 -1 -10 -33 -10 -86 1 -76 3 -85 19 -85 11 0 21 8 24 19 7 26 50 48 65
33 9 -9 7 -12 -8 -12 -21 0 -44 -17 -44 -33 0 -5 23 -7 52 -3 59 6 147 8 409
6 l177 0 15 -39 c9 -21 22 -41 29 -43 22 -9 40 -94 42 -197 l1 -98 -32 15
c-36 17 -41 33 -18 52 22 18 18 53 -9 85 l-24 28 -12 -23 c-7 -12 -10 -35 -8
-52 3 -20 1 -27 -8 -24 -20 8 -39 -21 -25 -38 14 -16 -12 -22 -122 -25 -98 -3
-144 -37 -129 -94 l7 -27 35 18 c24 11 36 25 38 42 2 14 8 29 13 35 6 6 7 -2
3 -22 -4 -19 -2 -33 6 -38 8 -5 11 -1 9 11 -2 11 0 24 4 31 9 14 47 5 47 -13
0 -7 4 -16 10 -19 16 -10 50 14 50 35 0 17 7 20 43 20 33 -1 38 -3 25 -11 -22
-13 -24 -49 -2 -49 11 0 14 6 8 22 -6 20 -5 21 10 9 14 -12 16 -11 16 3 0 19
31 21 48 4 24 -24 13 -47 -28 -58 -22 -6 -40 -12 -40 -14 0 -2 6 -16 14 -30
10 -20 15 -23 19 -12 4 9 2 18 -3 21 -22 14 -8 25 31 25 32 0 40 3 35 15 -12
34 27 5 49 -35 5 -10 1 -8 -13 4 -17 15 -22 16 -22 5 0 -19 -23 -69 -31 -69
-4 0 -9 7 -13 15 -3 8 -10 15 -15 15 -6 0 -7 -7 -4 -17 4 -11 3 -14 -5 -9 -7
4 -12 2 -12 -3 0 -6 8 -11 18 -11 24 0 59 -36 41 -42 -9 -3 -9 -9 0 -25 6 -12
11 -46 12 -75 l1 -53 11 55 c9 40 17 56 31 58 11 3 16 0 11 -7 -3 -6 -11 -8
-17 -5 -6 4 -8 -1 -4 -14 4 -12 0 -45 -8 -73 -22 -73 -21 -122 2 -117 13 3 16
12 14 41 -3 33 -1 37 20 34 18 -1 24 4 29 28 l6 30 11 -28 c7 -16 12 -47 12
-70 l-1 -42 -25 29 c-25 29 -26 29 -23 5 4 -31 -7 -49 -32 -49 -11 0 -33 -15
-50 -32 -16 -18 -29 -27 -29 -21 0 6 5 13 11 15 15 5 22 110 8 119 -8 5 -8 16
1 40 10 27 10 47 0 94 -12 57 -13 58 -26 34 -7 -13 -13 -32 -14 -42 0 -11 -5
-15 -11 -11 -6 3 -9 15 -6 25 3 11 1 17 -4 13 -5 -3 -9 1 -9 9 0 8 -7 20 -15
27 -8 7 -15 20 -15 30 0 21 -57 73 -71 64 -6 -3 -16 -1 -23 5 -32 26 -135 -39
-136 -86 0 -12 -11 -38 -24 -58 -14 -20 -22 -43 -19 -51 6 -17 -1 -18 -28 -4
-23 13 -26 40 -4 40 9 0 15 9 15 25 0 24 -9 30 -38 26 -6 -1 -12 3 -12 9 0 6
8 10 18 9 52 -5 63 0 60 28 -2 24 -7 28 -30 26 -31 -2 -32 0 -17 28 12 23 3
59 -15 59 -22 0 -68 -49 -62 -66 4 -9 -3 -18 -17 -24 -22 -9 -22 -9 -1 -9 12
-1 25 -9 29 -18 6 -17 7 -17 20 0 9 13 23 17 47 15 35 -3 37 -22 3 -25 -11 0
-26 -1 -32 -2 -7 -1 -13 -7 -13 -15 0 -11 -8 -11 -40 -3 -22 6 -40 16 -40 22
0 5 -12 15 -26 22 -31 14 -37 3 -31 -53 l4 -39 1 43 c1 23 6 42 11 42 12 0 35
-96 26 -110 -4 -7 6 -24 24 -40 36 -34 38 -40 11 -40 -11 0 -20 -6 -20 -13 0
-8 -10 -22 -21 -33 -12 -10 -25 -29 -30 -42 -9 -23 -39 -31 -39 -9 0 6 9 23
20 37 11 14 20 33 20 44 0 15 3 16 15 6 13 -11 15 -8 15 20 0 20 -7 38 -17 46
-10 7 -18 18 -18 26 0 7 -5 13 -12 13 -22 0 -42 38 -36 68 l6 28 -34 -19 c-35
-19 -36 -22 -38 -108 -1 -42 -4 -50 -19 -49 -31 2 -42 15 -42 51 0 39 23 44
28 6 7 -45 17 -20 17 41 0 50 -5 69 -23 91 -22 29 -30 86 -12 86 6 0 10 -9 10
-19 0 -11 12 -29 26 -40 24 -19 26 -19 43 -3 13 13 15 21 7 35 -9 14 -7 21 8
33 32 23 46 17 46 -20 0 -24 -7 -39 -21 -49 -14 -10 -17 -17 -9 -22 19 -12 39
17 46 68 8 54 -4 65 -52 47 -16 -6 -31 -11 -34 -10 -7 1 -1 51 9 75 5 11 14
40 21 65 19 72 50 92 50 32 0 -15 5 -34 10 -42 13 -20 13 -3 -1 62 -14 66 -35
108 -54 108 -8 0 -15 5 -15 10 0 6 9 10 20 10 15 0 20 6 19 28 -1 16 -3 20 -6
10 -7 -28 -31 -22 -29 7 1 17 7 25 19 25 11 0 17 6 14 13 -2 6 -19 12 -38 12
-32 0 -43 -11 -63 -60 -2 -6 -9 -5 -17 3 -7 6 -19 12 -26 12 -7 0 0 -12 16
-27 30 -29 46 -88 31 -113 -6 -10 -15 1 -32 36 l-23 49 -3 -34 c-4 -43 14 -79
42 -83 16 -2 22 -11 24 -41 2 -23 -1 -37 -8 -37 -7 0 -10 7 -7 15 4 8 2 17 -4
20 -5 4 -8 1 -7 -7 2 -8 -5 -12 -19 -11 -15 2 -23 -3 -23 -12 0 -8 6 -12 13
-9 14 5 44 -22 34 -32 -3 -3 -15 -1 -26 6 -36 19 -23 -7 14 -29 19 -11 35 -27
35 -36 0 -21 -10 -19 -40 10 l-27 26 -1 -193 c-1 -106 3 -187 7 -179 6 9 11
10 15 2 4 -6 18 -11 31 -11 23 0 35 -17 35 -51 0 -30 -26 -22 -40 11 -7 16
-17 30 -22 30 -5 0 -4 -9 2 -20 6 -11 8 -25 5 -30 -9 -15 -25 -2 -18 15 3 8 0
15 -6 15 -15 0 -14 -47 2 -54 9 -5 9 -7 0 -12 -8 -3 -13 -25 -13 -55 l0 -49
228 -2 c125 -2 250 -3 277 -3 531 -11 1682 -27 2100 -29 l359 -3 7 -24 c9 -31
11 -213 3 -270 l-6 -44 -257 2 c-2238 15 -2711 15 -2711 5 0 -9 76 -12 288
-12 158 -1 613 -4 1012 -8 399 -3 943 -7 1210 -7 l485 0 1 1270 c1 1064 0
1177 -7 695 -4 -316 -9 -791 -11 -1055 l-3 -479 -47 3 c-30 1 -48 -2 -48 -9 0
-6 12 -9 27 -8 19 2 28 -2 31 -14 3 -14 -3 -18 -22 -18 -14 0 -26 4 -26 10 0
5 -13 7 -30 3 -19 -3 -30 -1 -30 6 0 6 9 11 20 11 11 0 20 5 20 10 0 6 -9 10
-19 10 -11 0 -23 5 -26 10 -4 6 15 10 50 10 35 0 54 4 50 10 -3 6 -30 10 -58
11 -38 0 -47 3 -32 9 11 5 35 9 53 9 56 2 34 21 -24 21 -40 0 -54 3 -51 13 2
8 19 11 50 9 28 -2 47 0 47 7 0 5 -21 11 -47 13 -51 3 -74 28 -26 28 46 0 73
11 73 30 0 19 -27 30 -75 30 -27 0 -32 -5 -45 -42 -12 -32 -22 -44 -44 -49
-26 -7 -28 -6 -23 17 4 22 1 25 -21 22 -15 -2 -27 3 -30 11 -3 9 1 11 16 7 14
-5 24 -1 30 10 11 20 36 9 28 -12 -8 -21 2 -17 14 6 15 29 5 41 -25 30 -21 -8
-25 -7 -25 9 0 11 9 21 22 24 17 5 19 9 9 21 -16 19 2 30 35 22 18 -5 24 -2
24 10 0 13 -6 15 -32 10 -27 -5 -36 -2 -50 16 l-17 23 -28 -21 c-34 -26 -39
-53 -18 -95 16 -30 16 -31 0 -25 -9 3 -25 6 -35 6 -30 0 -33 41 -4 71 33 34
31 82 -3 87 -25 4 -30 -7 -12 -25 8 -8 7 -20 -5 -44 -9 -18 -16 -37 -16 -42 0
-6 -15 -23 -32 -39 -26 -23 -39 -28 -61 -24 -18 4 -27 2 -25 -5 2 -6 7 -10 11
-10 4 1 21 1 37 1 17 0 39 9 50 20 17 17 21 18 26 5 4 -8 17 -15 30 -15 13 0
24 -4 24 -10 0 -5 -9 -10 -20 -10 -13 0 -20 -7 -20 -19 0 -11 -5 -23 -12 -27
-8 -5 -9 1 -5 22 3 17 2 36 -4 44 -6 11 -9 6 -9 -17 0 -30 -3 -33 -31 -33 -17
0 -39 -5 -50 -11 -17 -9 -25 -6 -44 15 -13 14 -29 26 -35 26 -6 0 -13 7 -16
15 -4 10 -13 13 -25 10 -23 -8 -38 20 -20 38 8 8 11 8 11 0 0 -10 53 -43 69
-43 4 0 7 10 8 23 0 12 -1 16 -4 10 -3 -7 -10 -13 -17 -13 -20 0 -49 38 -42
55 3 10 2 13 -5 10 -5 -4 -22 5 -36 19 -34 34 -123 60 -123 36 0 -20 -15 -9
-42 30 -32 46 -48 51 -48 15 0 -23 -24 -45 -36 -32 -4 4 15 50 47 109 5 10 9
27 9 38 0 11 5 20 12 20 6 0 9 3 5 6 -3 3 3 16 14 27 18 20 20 20 36 4 15 -15
14 -17 -13 -28 -20 -8 -25 -13 -14 -17 8 -3 21 -12 28 -21 9 -12 12 -12 10 -2
-4 17 13 23 32 11 12 -7 12 -12 2 -22 -6 -6 -11 -26 -11 -43 2 -27 2 -27 6 -5
3 14 9 30 14 36 13 16 68 23 72 10 3 -7 9 -6 20 2 14 12 20 10 42 -12 14 -14
25 -32 25 -40 0 -8 4 -16 9 -18 14 -5 25 -58 12 -58 -6 0 -11 9 -11 20 0 11
-7 20 -15 20 -10 0 -15 10 -15 30 0 24 -4 30 -22 30 -21 0 -21 -1 -3 -13 21
-16 12 -37 -17 -37 -14 0 -18 5 -14 15 6 17 -9 21 -19 5 -12 -20 17 -40 56
-40 25 0 39 -5 39 -13 0 -19 -21 -37 -44 -38 -18 -1 -17 -2 4 -8 14 -5 33 -4
42 1 13 6 18 5 18 -7 0 -8 5 -15 10 -15 6 0 10 12 10 26 l0 26 29 -24 c36 -28
41 -58 9 -58 -13 0 -30 -5 -38 -11 -11 -8 -4 -9 29 -4 55 7 63 12 56 35 -3 10
-1 21 5 25 20 12 9 24 -18 19 -21 -4 -33 1 -52 22 l-25 28 27 -17 c27 -17 28
-17 34 10 4 16 11 31 16 34 15 10 -30 58 -50 52 -25 -6 -66 96 -46 115 18 17
27 15 20 -4 -4 -10 -1 -14 6 -11 7 2 12 13 11 23 -1 14 5 19 23 20 28 2 32
-11 7 -25 -10 -5 -14 -13 -10 -18 5 -4 13 0 18 10 12 21 52 22 69 2 19 -23 1
-38 -39 -31 -25 4 -31 2 -21 -4 8 -5 26 -10 40 -11 18 -1 20 -3 7 -6 -18 -5
-18 -5 0 -19 17 -13 17 -13 -4 -14 -12 0 -23 5 -25 12 -3 9 -6 9 -12 0 -4 -7
2 -16 18 -23 21 -10 23 -14 13 -30 -17 -28 -1 -34 30 -11 27 19 30 19 41 4 10
-14 12 -14 11 -2 -3 35 2 60 11 60 13 0 13 -36 0 -61 -8 -15 -7 -23 5 -35 8
-8 15 -20 15 -25 0 -14 46 -11 59 5 6 8 11 18 10 22 -1 5 -1 23 0 39 1 23 3
27 11 15 5 -8 10 -27 10 -42 0 -31 28 -52 51 -37 20 13 26 11 47 -11 17 -18
21 -19 32 -5 16 19 6 47 -15 39 -14 -6 -55 20 -55 35 0 3 14 12 30 19 18 8 30
21 30 33 0 11 7 19 16 19 17 0 54 36 54 52 0 4 -10 9 -22 10 -13 0 -36 2 -53
3 -16 1 -33 -3 -37 -9 -5 -8 -11 -7 -20 2 -6 6 -20 12 -29 12 -34 0 -74 92
-45 103 17 7 22 37 6 37 -5 0 -10 -7 -10 -15 0 -8 -4 -15 -9 -15 -11 0 -21 25
-21 51 0 25 -12 24 -35 -1 -17 -18 -17 -20 -2 -14 10 3 17 1 17 -6 0 -14 -25
-40 -39 -40 -6 0 -8 -7 -5 -14 5 -12 -4 -14 -48 -11 -45 3 -54 7 -59 27 -7 23
-7 23 -8 -3 -1 -29 -26 -68 -37 -57 -3 4 0 18 9 32 14 21 14 26 2 36 -8 7 -15
23 -15 36 0 19 -5 24 -26 24 -14 0 -23 -4 -19 -10 3 -5 12 -7 20 -4 20 8 17
-62 -3 -78 -21 -18 -43 16 -35 53 6 29 -10 41 -20 15 -3 -7 -23 -17 -44 -21
-46 -8 -63 -21 -63 -46 0 -11 -4 -19 -10 -19 -13 0 -13 27 0 35 5 3 10 16 9
28 l0 22 -9 -21 c-5 -12 -13 -25 -19 -29 -6 -3 -11 -15 -11 -25 0 -30 -15 -31
-17 -2 -1 15 -8 42 -16 61 l-15 35 -17 -33 c-9 -19 -14 -43 -11 -57 6 -22 4
-23 -26 -17 -18 3 -35 6 -38 5 -22 0 -28 -5 -33 -24 -4 -12 -9 -19 -12 -16 -4
3 1 20 9 36 12 23 24 32 48 34 28 3 34 8 43 39 5 20 16 43 22 51 10 11 10 17
1 26 -18 18 -32 15 -63 -18 -37 -39 -24 -52 15 -15 32 31 38 23 18 -22 -12
-26 -26 -42 -38 -43 -3 0 -13 12 -21 27 -13 24 -14 62 -8 283 5 140 16 343 26
450 23 258 23 263 31 502 4 113 10 210 14 214 4 4 23 -5 42 -20 24 -18 39 -40
46 -69 18 -68 58 -140 92 -164 31 -22 31 -22 56 -2 34 26 42 24 42 -10 0 -34
19 -54 40 -41 12 7 12 21 4 83 -11 70 -15 78 -84 168 -41 52 -93 114 -117 139
-24 25 -46 57 -50 73 -3 15 -9 27 -14 27 -5 0 -9 8 -9 18 0 9 -9 31 -20 47
-11 17 -20 40 -20 53 0 29 -44 95 -84 126 -29 21 -132 180 -149 229 -4 9 -10
17 -15 17 -5 0 -14 19 -21 43 -33 110 -45 129 -123 212 -43 46 -89 87 -101 90
-12 4 -32 11 -44 17 -17 8 -30 8 -48 0 -21 -10 -32 -9 -55 3 -16 8 -36 15 -45
15 -9 0 -15 9 -15 21 0 14 5 19 14 16 7 -3 18 -1 24 5 8 8 16 7 28 -3 16 -12
17 -12 9 1 -5 8 -10 25 -11 38 -3 23 -2 23 17 6 26 -24 32 -14 13 24 -10 21
-13 43 -9 63 4 17 1 67 -6 110 -11 71 -16 83 -50 114 -20 19 -49 37 -63 41
-15 3 -29 10 -32 15 -9 16 -83 10 -122 -10 -20 -10 -42 -16 -49 -14 -14 5 -63
-64 -63 -89 0 -10 -5 -18 -10 -18 -6 0 -10 -24 -8 -61 2 -49 -1 -63 -15 -70
-22 -13 -22 -33 -1 -25 13 5 15 2 11 -15 -4 -15 0 -23 13 -26 10 -3 20 -17 23
-33 4 -19 14 -30 32 -34 29 -7 36 -46 8 -46 -15 0 -173 153 -173 167 0 4 -17
23 -39 42 -21 20 -50 59 -65 88 -14 28 -37 60 -51 71 -14 11 -25 25 -25 31 0
6 -4 11 -9 11 -5 0 -12 15 -15 33 -3 18 -28 69 -55 113 -27 44 -53 97 -56 119
-8 40 -51 135 -65 145 -4 3 -17 34 -29 70 -22 66 -74 133 -118 150 -20 8 -21
17 -25 124 -3 108 -9 138 -25 123 -4 -4 -1 -13 5 -19 8 -8 12 -50 12 -121 0
-106 -1 -108 -22 -105 -30 4 -41 52 -36 161 2 48 1 87 -3 87 -4 0 -9 12 -11
28 -2 16 -6 22 -11 15z m34 -323 l24 -20 -30 6 c-39 9 -47 13 -40 25 9 14 20
11 46 -11z m119 -29 c54 -56 70 -83 70 -122 0 -20 3 -39 8 -43 4 -4 14 -33 22
-64 15 -56 15 -59 -12 -134 -15 -45 -22 -80 -17 -84 11 -6 2 -24 -12 -24 -5 0
-9 10 -9 23 0 13 -5 28 -12 35 -9 9 -9 12 0 12 21 0 -4 152 -31 188 -6 8 -5
17 4 28 10 13 10 17 -2 25 -8 5 -22 9 -32 9 -19 0 -31 20 -25 45 3 14 6 14 24
-4 27 -24 41 -15 17 11 -9 11 -18 29 -18 41 -2 34 -25 75 -47 80 -11 3 -17 10
-14 15 10 17 50 0 86 -37z m-106 -17 c58 -10 50 -21 -12 -16 -31 2 -59 6 -61
8 -8 7 12 25 24 20 8 -3 30 -8 49 -12z m41 -56 c7 -7 0 -9 -24 -4 -18 3 -40 6
-47 6 -8 0 -14 5 -14 11 0 14 70 3 85 -13z m-21 -24 c9 -3 14 -9 11 -13 -6
-10 -65 -1 -65 10 0 10 31 12 54 3z m233 -224 c-4 -29 -2 -50 3 -50 6 0 10
-11 10 -25 0 -14 5 -25 10 -25 6 0 10 10 10 23 1 21 1 22 15 3 8 -11 15 -30
15 -43 0 -13 4 -23 8 -23 5 0 14 -11 22 -24 11 -21 10 -28 -9 -54 -30 -42 -28
-103 4 -139 18 -21 24 -24 25 -11 0 9 3 23 6 32 4 11 1 16 -10 16 -12 0 -16
10 -16 46 0 52 16 56 39 8 8 -16 20 -35 28 -42 41 -41 46 -71 40 -230 -6 -147
-15 -190 -39 -176 -5 3 -5 11 -1 17 12 17 10 146 -2 149 -5 2 -11 -12 -13 -30
-3 -25 -8 -32 -20 -30 -22 4 -40 74 -41 161 -1 43 -5 66 -11 62 -5 -3 -10 -26
-10 -51 0 -31 -4 -43 -11 -38 -8 4 -9 33 -4 93 4 47 4 83 0 79 -4 -4 -9 -28
-11 -54 -2 -26 -6 -56 -10 -67 -13 -40 -25 8 -14 55 14 64 13 188 -3 194 -8 3
-11 17 -9 41 4 31 2 35 -12 30 -14 -6 -16 -3 -11 14 4 11 2 26 -4 33 -8 9 -6
26 5 59 9 26 18 47 21 47 3 0 3 -22 0 -50z m-42 -234 c-8 -38 -25 -50 -25 -16
0 20 21 62 28 56 2 -2 0 -20 -3 -40z m668 -3 c8 -7 -11 -33 -25 -33 -5 0 -6 5
-3 10 3 6 -2 10 -12 10 -15 0 -16 2 -3 10 18 11 34 13 43 3z m-631 -105 c-7
-7 -13 0 -17 25 -10 51 7 72 18 24 6 -26 6 -42 -1 -49z m535 64 c-10 -10 -17
-28 -17 -40 0 -12 -4 -22 -10 -22 -5 0 -10 7 -10 15 0 20 29 65 43 65 5 0 3
-8 -6 -18z m100 -28 c-9 -9 -28 6 -21 18 4 6 10 6 17 -1 6 -6 8 -13 4 -17z
m-84 -14 c-3 -12 -8 -19 -11 -16 -5 6 5 36 12 36 2 0 2 -9 -1 -20z m47 10 c0
-5 -2 -10 -4 -10 -3 0 -8 5 -11 10 -3 6 -1 10 4 10 6 0 11 -4 11 -10z m134
-15 c-7 -17 -7 -17 -31 -8 -16 6 -15 8 7 14 14 4 26 7 27 8 1 1 0 -6 -3 -14z
m-194 -45 c0 5 5 10 11 10 5 0 8 -4 5 -9 -8 -12 86 -18 159 -10 37 5 65 3 72
-3 20 -16 15 -27 -8 -23 -17 3 -19 2 -9 -10 16 -19 4 -35 -25 -35 -13 0 -35
-4 -49 -9 -23 -9 -24 -14 -20 -66 4 -53 3 -56 -16 -50 -23 7 -28 -13 -5 -22
22 -8 28 2 35 55 5 46 6 47 38 44 18 -2 32 1 32 7 0 6 -6 11 -12 11 -9 0 -8 4
2 10 25 16 30 12 30 -25 0 -67 -77 -185 -120 -185 -34 0 -76 36 -93 79 -9 22
-21 42 -27 46 -17 10 -13 95 5 95 8 0 12 -6 9 -14 -6 -17 37 -27 60 -14 33 19
18 38 -29 38 -49 0 -62 16 -17 23 22 3 21 4 -9 6 -25 1 -39 7 -43 19 -3 9 -9
23 -12 30 -5 11 -2 12 15 3 14 -8 21 -8 21 -1z m100 -321 c19 -7 37 -13 40
-12 3 0 14 4 26 7 16 5 23 0 32 -18 8 -19 17 -23 41 -21 36 3 36 6 14 -56 -20
-55 -9 -51 -162 -53 -74 -1 -74 -1 -84 29 -5 17 -16 37 -23 46 -8 8 -14 28
-14 42 0 25 8 32 38 28 8 -1 12 12 12 41 l0 43 22 -31 c12 -18 38 -37 58 -45z
m-482 32 c4 -28 -13 -20 -21 9 -3 14 -1 20 6 17 7 -2 14 -14 15 -26z m783
-172 c3 -40 5 -246 5 -457 -1 -350 -2 -384 -18 -393 -9 -5 -23 -16 -31 -23
-25 -26 -92 -40 -128 -27 -54 19 -133 14 -154 -9 -10 -11 -25 -20 -33 -20 -19
0 -52 29 -52 45 0 6 -6 17 -12 23 -7 7 -14 34 -14 60 -2 42 -5 757 -4 790 0 8
11 2 27 -13 32 -29 61 -31 193 -13 81 10 88 13 108 44 12 18 24 45 28 61 10
43 14 45 47 25 30 -17 32 -22 38 -93z m249 -225 c0 -17 -22 -14 -28 4 -2 7 3
12 12 12 9 0 16 -7 16 -16z m269 -423 c12 -16 21 -34 21 -39 0 -6 6 -12 13
-15 9 -3 9 -7 -1 -20 -7 -8 -15 -44 -18 -79 -8 -89 -28 -108 -25 -23 l1 30
-11 -25 c-6 -14 -8 -37 -5 -52 3 -16 1 -28 -4 -28 -18 0 -8 96 15 153 6 13 3
16 -9 11 -9 -3 -21 -26 -27 -50 -6 -24 -15 -44 -20 -44 -13 0 0 60 26 115 28
58 23 72 -10 32 -23 -26 -45 -84 -45 -119 0 -9 -4 -20 -10 -23 -30 -19 12 129
51 179 26 33 33 33 58 -3z m-1465 -111 c-12 -5 -42 -12 -68 -15 -25 -4 -46
-11 -46 -15 0 -9 94 -5 110 5 8 5 11 3 8 -6 -3 -8 -19 -18 -36 -23 -41 -11
-42 -30 -2 -21 34 7 35 6 18 -30 -7 -17 -20 -25 -37 -26 -25 -1 -25 -1 -3 -7
25 -8 25 -8 1 -72 -13 -35 -22 -46 -43 -48 -23 -3 -25 -7 -19 -35 3 -18 10
-36 14 -42 15 -16 10 -27 -11 -20 -19 6 -20 1 -22 -117 -3 -265 -5 -326 -12
-353 -6 -23 -10 -26 -34 -20 -48 12 -54 24 -33 59 26 43 50 176 58 317 3 65 9
119 13 119 4 0 8 20 8 45 2 36 -1 43 -13 39 -9 -4 -15 -19 -16 -38 l-1 -31
-10 29 c-8 21 -7 30 2 36 9 5 5 22 -15 66 -70 150 -85 187 -80 192 4 4 112 12
270 20 19 1 19 0 -1 -8z m1542 -18 c47 -45 125 -139 123 -148 -3 -14 17 -57
40 -83 38 -43 22 -43 -29 1 -27 23 -55 55 -61 70 -10 24 -29 39 -29 23 0 -13
31 -80 40 -85 4 -3 2 -14 -6 -24 -10 -15 -14 -16 -18 -5 -22 74 -43 118 -67
137 -26 21 -29 30 -29 83 0 32 2 59 4 59 1 0 16 -13 32 -28z m-596 -121 c0
-14 -62 -59 -85 -62 -11 -1 -31 3 -45 9 l-25 11 25 1 c14 0 45 12 70 25 50 27
60 29 60 16z m-206 -30 c9 -15 -47 -41 -72 -34 -26 6 -43 -24 -21 -37 7 -5 11
-11 9 -13 -8 -7 -78 -16 -83 -10 -13 13 19 53 50 64 25 8 31 14 24 23 -8 10 1
13 38 15 27 1 52 -3 55 -8z m-180 -63 c-7 -11 -44 15 -44 30 0 9 7 8 24 -5 13
-10 22 -21 20 -25z m247 -6 c22 -19 22 -19 -37 -15 -77 6 -84 9 -54 21 38 16
65 14 91 -6z m118 -32 c4 0 11 4 17 10 8 8 8 -257 0 -285 -2 -6 -43 -9 -102
-8 -55 2 -112 3 -129 3 -16 0 -35 -6 -41 -15 -12 -16 -29 -21 -19 -6 3 5 -7
11 -22 13 -27 3 -28 5 -33 83 -3 44 -3 103 -1 130 l5 50 6 -39 c8 -60 30 -59
30 2 l0 49 67 6 c71 7 84 4 65 -15 -25 -25 -9 -128 19 -128 8 0 9 15 5 43 -4
24 -2 54 3 68 5 13 10 22 11 19 0 -3 3 -56 6 -119 5 -117 7 -131 26 -131 8 0
9 32 5 105 l-6 105 35 0 34 0 0 -60 c0 -47 3 -60 15 -60 12 0 15 16 15 80 l0
80 -36 17 c-42 20 -46 35 -12 44 18 4 24 1 26 -18 2 -13 7 -23 11 -23z m-384
-97 c13 6 25 -59 25 -144 0 -45 -1 -45 -29 -41 -26 4 -29 8 -35 54 -4 31 -3
55 4 63 7 9 8 20 2 32 -5 10 -8 32 -6 48 1 17 3 48 4 70 2 35 4 33 12 -23 7
-45 14 -62 23 -59z m1150 77 c32 -33 27 -54 -6 -24 -25 22 -43 54 -31 54 4 0
21 -13 37 -30z m-1747 -12 c-4 -31 -26 -34 -24 -3 0 14 7 25 14 25 8 0 12 -9
10 -22z m621 -5 c0 -25 -1 -25 -8 -8 -5 11 -7 23 -4 28 8 14 13 7 12 -20z
m1206 -29 c3 -26 9 -53 12 -60 3 -8 1 -14 -5 -14 -5 0 -14 26 -21 57 -13 68
-14 76 -2 69 5 -3 12 -27 16 -52z m-89 1 c15 -14 24 -28 21 -31 -3 -4 -20 8
-37 25 -37 37 -23 42 16 6z m-11 -43 c-6 -7 -35 18 -35 31 0 5 9 2 20 -8 11
-10 18 -20 15 -23z m-1755 -108 c0 -142 28 -278 63 -305 27 -22 17 -34 -44
-54 -55 -19 -70 -14 -51 15 8 14 12 83 13 225 0 123 4 203 10 200 5 -4 9 -40
9 -81z m-340 -38 c0 -11 -19 -15 -25 -6 -3 5 1 10 9 10 9 0 16 -2 16 -4z m-95
-36 c-3 -5 -15 -10 -25 -10 -10 0 -22 5 -25 10 -4 6 7 10 25 10 18 0 29 -4 25
-10z m129 -6 c8 -22 7 -23 -45 -29 -54 -7 -79 6 -60 29 19 22 97 22 105 0z
m80 6 c-15 -15 -56 -17 -61 -2 -3 8 7 12 33 12 25 0 35 -3 28 -10z m1036 -20
c0 -5 -4 -10 -10 -10 -5 0 -10 5 -10 10 0 6 5 10 10 10 6 0 10 -4 10 -10z
m-730 -10 c0 -5 -4 -10 -9 -10 -6 0 -13 5 -16 10 -3 6 1 10 9 10 9 0 16 -4 16
-10z m398 -8 c3 -10 -5 -12 -29 -9 -43 6 -41 6 -35 16 8 13 59 8 64 -7z m149
4 c42 0 12 -10 -40 -13 -64 -3 -95 7 -52 17 17 4 39 5 50 2 11 -3 30 -6 42 -6z
m-384 -3 c-13 -2 -33 -2 -45 0 -13 2 -3 4 22 4 25 0 35 -2 23 -4z m144 1 c-3
-3 -12 -4 -19 -1 -8 3 -5 6 6 6 11 1 17 -2 13 -5z m-807 -13 c0 -5 -14 -14
-31 -20 -43 -15 -45 -14 -24 9 18 20 55 28 55 11z m155 -11 c20 -23 12 -25
-33 -9 -18 6 -29 15 -26 20 9 16 40 10 59 -11z m650 -10 c36 -7 14 -8 -80 -5
-71 3 -158 5 -192 5 -35 0 -63 3 -63 8 0 10 270 3 335 -8z m435 -6 c0 -10 -6
-11 -22 -5 -31 11 -34 29 -3 24 14 -3 25 -11 25 -19z m-527 -18 c115 -8 211
-17 214 -19 18 -19 -28 -21 -204 -10 -219 14 -263 19 -263 33 0 12 2 12 253
-4z m367 0 c-14 -7 -38 -16 -54 -20 -26 -6 -28 -5 -17 8 12 15 36 22 76 24 17
1 16 -1 -5 -12z m120 -11 c0 -17 25 -21 35 -5 3 5 52 8 113 6 90 -3 108 -6
110 -20 2 -9 -2 -17 -10 -18 -16 -2 -151 -8 -193 -8 -16 0 -54 0 -82 -1 -46 0
-53 3 -53 19 0 19 31 40 63 41 9 1 17 -6 17 -14z m338 -28 c2 -11 -3 -17 -17
-17 -23 0 -35 15 -26 31 10 15 39 6 43 -14z m-1034 4 c3 -5 16 -7 29 -5 l22 5
-22 -10 c-13 -6 -23 -13 -23 -16 0 -4 6 -3 13 1 10 6 10 4 0 -7 -7 -7 -13 -21
-13 -32 0 -10 -5 -15 -11 -12 -5 4 -8 12 -6 18 2 7 -2 24 -10 40 -12 23 -12
27 1 27 8 0 17 -4 20 -9z m269 -9 c11 -1 16 -7 11 -14 -5 -9 -4 -10 4 -3 12
11 102 7 102 -4 0 -7 -70 -41 -83 -41 -4 0 -7 7 -7 15 0 32 -16 13 -18 -22 -5
-63 -21 -75 -22 -15 0 40 -3 51 -12 46 -8 -5 -7 0 2 11 14 17 13 18 -25 12
-22 -4 -41 -11 -43 -16 -2 -5 -12 -6 -24 -3 -16 4 -19 2 -13 -9 5 -8 -4 -3
-18 10 -27 25 -31 23 -28 -16 1 -11 -3 -24 -8 -28 -6 -3 -11 -11 -11 -16 0 -6
5 -7 10 -4 6 3 10 1 10 -4 0 -6 -5 -11 -11 -11 -8 0 -7 -5 2 -16 10 -13 8 -19
-14 -40 -15 -14 -27 -22 -27 -20 0 3 -11 1 -25 -4 -27 -10 -32 -2 -12 19 10
11 8 11 -10 2 -12 -6 -26 -18 -31 -27 -6 -11 -14 -12 -31 -6 l-23 8 25 17 c14
9 44 19 67 23 l41 7 -7 42 c-4 28 -2 45 5 50 7 4 9 15 6 25 -4 14 2 19 35 24
22 3 52 3 67 0 14 -4 24 -3 20 2 -4 8 42 11 96 6z m206 -39 c0 -16 -3 -22 -6
-13 -3 8 -10 21 -16 28 -7 8 -5 12 7 12 11 0 16 -8 15 -27z m-724 -15 c-4 -13
-16 -32 -26 -44 -25 -27 -24 -55 1 -61 12 -3 19 -12 18 -22 -3 -13 7 -16 57
-16 47 0 60 -3 60 -15 0 -18 -41 -26 -59 -11 -10 8 -22 8 -41 1 -21 -8 -30 -8
-35 1 -5 7 -10 7 -14 1 -10 -17 -54 -1 -60 21 -9 35 -7 85 4 92 6 4 9 14 8 23
-2 12 8 19 35 26 20 5 37 13 37 18 0 4 5 8 11 8 6 0 8 -9 4 -22z m955 6 c0 -8
-19 -13 -24 -6 -3 5 1 9 9 9 8 0 15 -2 15 -3z m-535 -172 c-16 -17 -21 22 -11
93 l11 80 3 -84 c2 -46 0 -86 -3 -89z m72 153 c0 -8 -4 -12 -9 -9 -5 3 -6 10
-3 15 9 13 12 11 12 -6z m333 2 c0 -7 -10 -13 -22 -14 -22 -2 -22 -1 -4 13 24
17 26 17 26 1z m-375 -6 c3 -5 2 -12 -3 -15 -5 -3 -9 1 -9 9 0 17 3 19 12 6z
m260 -22 c4 -6 13 -8 21 -5 8 3 13 2 13 -2 -1 -4 -1 -28 0 -54 1 -40 4 -47 21
-45 13 1 20 9 21 24 1 13 2 28 3 35 2 16 36 19 36 3 0 -14 24 -14 37 0 4 4 2
5 -4 1 -17 -10 -16 -1 1 13 10 9 13 5 12 -22 -1 -27 -5 -32 -23 -31 -24 1 -30
-10 -12 -22 7 -4 7 -10 1 -16 -11 -11 -151 -18 -157 -8 -3 4 9 6 26 5 16 -1
27 0 24 4 -4 3 -12 6 -18 6 -7 0 -11 18 -11 45 1 36 0 38 -3 10 -3 -19 -11
-42 -18 -50 -7 -8 -15 -19 -17 -25 -3 -9 -21 -11 -65 -6 -7 0 -13 8 -13 16 0
8 -4 15 -10 15 -5 0 -10 -7 -10 -15 0 -10 -10 -15 -30 -15 -23 0 -30 4 -30 20
0 11 5 20 10 20 6 0 10 5 10 12 0 6 -3 8 -6 5 -4 -3 -14 -2 -24 3 -22 12 -34
1 -19 -17 9 -10 8 -13 -4 -13 -10 0 -14 9 -12 30 1 16 -1 27 -6 24 -5 -3 -7
-9 -5 -13 3 -4 1 -13 -4 -20 -5 -9 -7 -3 -7 17 1 17 4 29 6 26 2 -2 10 1 18 8
11 9 13 8 11 -3 -2 -10 6 -14 30 -13 17 0 32 -3 32 -8 0 -4 3 -7 8 -7 4 1 20
1 35 0 25 -1 28 -5 25 -28 -2 -17 2 -27 12 -28 9 -2 17 5 17 16 1 11 -2 17 -7
14 -13 -8 -6 17 15 53 11 18 25 30 32 28 7 -3 13 1 13 9 0 17 16 20 25 4z
m-114 -22 c-13 -13 -26 -3 -16 12 3 6 11 8 17 5 6 -4 6 -10 -1 -17z m554 2
c-4 -5 -13 -9 -22 -9 -13 0 -13 3 -3 15 13 15 35 11 25 -6z m-779 -106 c-10
-10 -19 5 -10 18 6 11 8 11 12 0 2 -7 1 -15 -2 -18z m804 2 c0 -8 -4 -15 -10
-15 -5 0 -10 7 -10 15 0 8 5 15 10 15 6 0 10 -7 10 -15z m-990 -5 c0 -5 -4
-10 -10 -10 -5 0 -10 5 -10 10 0 6 5 10 10 10 6 0 10 -4 10 -10z m900 -19 c0
-15 32 -20 75 -12 47 8 96 -4 89 -23 -3 -8 2 -16 10 -19 24 -9 19 -34 -6 -41
-39 -10 -45 -7 -40 19 4 23 1 25 -29 24 -31 0 -32 -1 -11 -9 30 -12 28 -19 -5
-20 -16 0 -71 -1 -123 -2 -138 -4 -767 4 -752 9 6 3 12 13 12 23 0 10 5 22 11
25 16 11 287 5 316 -6 18 -7 30 -6 40 2 10 9 68 12 198 10 161 -2 186 0 191
13 7 17 24 22 24 7z m-336 -115 c-7 -19 -38 -30 -42 -17 -7 22 -31 10 -35 -16
-3 -24 -4 -23 -6 7 -1 23 -4 30 -10 22 -4 -7 -6 -33 -5 -57 3 -36 -1 -47 -16
-55 -30 -16 -31 -13 -28 43 2 28 7 51 13 49 6 -1 9 -19 8 -38 -2 -19 1 -33 5
-30 5 3 7 24 6 48 -2 54 -1 53 -17 39 -8 -6 -18 -7 -22 -3 -5 4 -5 2 -1 -5 3
-6 2 -14 -3 -17 -5 -4 -8 0 -7 6 4 32 19 38 91 38 60 0 73 -3 69 -14z m-267
-68 c-3 -62 -6 -72 -23 -74 -17 -3 -21 2 -21 32 0 25 4 33 14 30 10 -4 13 6
13 39 0 25 5 45 10 45 7 0 10 -26 7 -72z m99 -38 c9 0 14 -7 12 -17 -2 -12
-13 -18 -32 -18 -25 0 -29 4 -32 32 -3 22 0 32 9 30 7 -1 13 9 13 23 3 58 8
61 11 8 3 -44 8 -58 19 -58z m-190 75 c-1 -13 -4 -27 -7 -30 -5 -4 -4 41 0 53
4 10 8 -2 7 -23z m594 5 c0 -5 -4 -10 -10 -10 -5 0 -10 5 -10 10 0 6 5 10 10
10 6 0 10 -4 10 -10z m186 -48 c-6 -68 -7 -70 -16 -39 -10 33 -2 99 11 91 5
-3 7 -26 5 -52z m-631 39 c3 -5 2 -12 -3 -15 -5 -3 -9 1 -9 9 0 17 3 19 12 6z
m367 -13 c4 -26 28 -37 28 -13 0 9 6 15 13 13 16 -6 22 -47 8 -61 -15 -15 -14
-27 4 -27 9 0 15 9 15 23 0 41 23 70 58 73 35 4 44 -14 18 -36 -8 -6 -16 -21
-18 -33 -2 -14 -11 -23 -25 -25 -13 -2 -23 -10 -23 -18 0 -8 -4 -12 -10 -9 -5
3 -10 -3 -10 -14 0 -12 -7 -21 -15 -21 -8 0 -15 7 -15 15 0 17 -4 18 -37 9
-13 -4 -23 -13 -23 -21 0 -12 -3 -13 -14 -4 -11 9 -15 7 -19 -10 -4 -15 -11
-20 -23 -15 -20 8 -75 -40 -68 -59 3 -6 -7 -20 -21 -29 -29 -19 -32 -19 -36 4
-5 31 23 75 91 142 39 39 70 74 70 79 0 12 17 12 22 -1 2 -6 8 -6 18 1 13 8
13 11 -4 24 -10 7 -15 18 -11 24 10 18 23 13 27 -11z m418 -8 c0 -5 -9 -10
-21 -10 -11 0 -17 5 -14 10 3 6 13 10 21 10 8 0 14 -4 14 -10z m-217 -39 c11
-19 16 -45 14 -78 -3 -39 0 -50 11 -49 9 1 19 -13 25 -34 5 -19 13 -38 19 -41
15 -9 5 -54 -12 -54 -11 0 -14 8 -12 30 4 25 2 27 -12 16 -8 -7 -14 -18 -13
-23 1 -6 -3 -12 -9 -15 -6 -2 -14 8 -16 22 -4 19 -1 25 11 23 11 -2 15 3 13
16 -2 11 1 15 7 11 18 -11 12 11 -7 28 -20 18 -34 14 -26 -8 3 -7 -5 -14 -20
-17 -33 -7 -33 6 -1 34 28 24 33 58 9 58 -11 0 -15 -6 -12 -18 8 -28 -22 -23
-33 6 -7 18 -15 23 -29 19 -11 -3 -20 0 -20 5 0 6 14 8 34 5 30 -5 33 -3 29
14 -6 20 14 79 26 79 4 0 14 -13 24 -29z m318 7 c-6 -17 -18 -24 -45 -26 -20
-2 -36 0 -36 4 0 18 36 44 61 44 25 0 27 -3 20 -22z m-921 -25 c0 -24 -3 -33
-9 -25 -7 12 -4 62 5 62 2 0 4 -17 4 -37z m789 -2 c10 -10 25 -21 32 -24 9 -3
0 -11 -23 -21 -44 -19 -68 -54 -47 -67 8 -5 17 -10 20 -11 4 -2 4 -21 0 -42
-5 -35 -8 -37 -20 -23 -7 10 -20 17 -27 17 -8 0 -14 11 -14 26 0 18 -6 28 -21
31 -19 5 -20 11 -15 47 4 22 9 42 11 45 9 9 43 -31 38 -45 -6 -17 9 -18 25 -2
17 17 15 38 -3 38 -16 0 -19 9 -9 34 8 21 30 20 53 -3z m-701 -60 c6 -1 12 -6
12 -13 0 -6 -3 -8 -7 -5 -8 8 -34 -13 -28 -22 2 -4 -2 -8 -9 -8 -7 0 -12 12
-12 28 0 19 4 26 15 24 9 -2 22 -4 29 -4z m750 -30 c5 -36 -12 -47 -43 -27
-26 17 -26 18 -9 37 23 25 48 20 52 -10z m-1002 -17 c-3 -8 -10 -12 -16 -9 -7
4 -6 14 2 28 12 24 24 8 14 -19z m40 -14 c1 -23 -3 -39 -8 -38 -5 2 -9 7 -9
11 1 4 1 21 1 37 0 46 15 36 16 -10z m-275 7 c-10 -9 -11 -8 -5 6 3 10 9 15
12 12 3 -3 0 -11 -7 -18z m1276 1 c-3 -8 -6 -5 -6 6 -1 11 2 17 5 13 3 -3 4
-12 1 -19z m-1620 -4 c-3 -3 -12 -4 -19 -1 -8 3 -5 6 6 6 11 1 17 -2 13 -5z
m812 -18 c9 -11 8 -15 -5 -20 -23 -9 -24 -8 -24 14 0 23 13 26 29 6z m41 -1
c0 -8 -4 -15 -10 -15 -5 0 -10 7 -10 15 0 8 5 15 10 15 6 0 10 -7 10 -15z
m194 -44 c-2 -52 9 -69 19 -30 8 31 32 17 30 -17 -3 -44 7 -94 18 -94 5 0 7
17 3 40 -8 48 -1 50 37 10 24 -25 27 -33 19 -55 -13 -35 -23 -31 -15 5 8 37
-11 41 -27 5 -6 -14 -19 -25 -28 -25 -20 0 -70 -37 -70 -51 0 -5 7 -9 15 -9 8
0 15 4 15 9 0 12 29 41 41 41 5 0 9 -13 9 -30 0 -16 8 -43 19 -60 17 -28 19
-29 24 -11 5 22 37 30 37 10 0 -6 -7 -9 -15 -5 -8 3 -15 2 -15 -3 0 -15 29
-33 41 -26 8 5 9 1 4 -14 -6 -20 -5 -21 13 -10 11 7 18 19 15 26 -3 7 1 13 8
13 11 0 11 2 0 9 -11 7 -12 15 -4 33 9 21 -4 59 -28 78 -10 8 -20 60 -12 60
19 -1 33 -18 27 -34 -4 -9 0 -24 9 -34 8 -9 19 -30 22 -45 7 -27 8 -27 26 -11
18 16 19 16 19 0 0 -9 -6 -19 -14 -22 -8 -3 -18 -20 -22 -37 -3 -18 -13 -40
-22 -49 -8 -10 -10 -18 -5 -18 6 0 13 7 17 15 4 11 14 14 33 9 17 -3 23 -2 16
3 -7 5 -14 20 -15 33 -2 19 2 26 20 28 12 2 22 -1 22 -6 0 -6 12 -13 26 -16
20 -5 32 -2 47 15 18 19 18 23 4 30 -9 5 -13 17 -10 28 5 21 8 20 52 -20 9 -8
23 -13 29 -11 7 2 12 -1 12 -7 0 -6 6 -9 13 -7 6 1 9 1 5 -1 -5 -3 -8 -10 -8
-18 0 -21 47 -15 58 9 7 14 11 16 11 6 1 -8 -18 -32 -41 -54 -24 -21 -32 -31
-18 -22 14 9 31 19 38 22 16 8 82 -4 82 -15 0 -4 -14 -27 -31 -51 l-31 -42 31
18 c17 10 32 25 34 33 3 11 5 9 6 -4 1 -19 -48 -59 -73 -60 -14 0 -45 -61 -44
-87 1 -13 1 -44 0 -70 -2 -53 -16 -61 -45 -28 -31 37 -49 22 -21 -18 19 -27
35 -28 65 -3 19 15 24 32 30 96 4 44 14 84 22 92 15 16 116 45 128 37 5 -2 5
-12 2 -21 -4 -9 1 -19 10 -25 20 -10 23 -40 5 -36 -7 2 -14 -2 -16 -7 -2 -6 7
-12 19 -15 12 -3 25 -12 27 -19 4 -11 0 -12 -14 -6 -11 4 -29 10 -42 12 -12 3
-25 9 -28 14 -12 21 -23 7 -17 -23 9 -50 19 -64 58 -82 19 -9 35 -21 35 -26 0
-5 10 -12 21 -15 17 -6 19 -9 8 -16 -8 -5 -24 -9 -36 -9 -27 0 -30 -12 -8 -30
27 -22 16 -31 -35 -27 -27 2 -50 -1 -50 -5 0 -5 7 -25 15 -45 12 -29 13 -38 3
-45 -20 -12 -25 -10 -31 14 -6 23 -6 23 10 3 15 -19 15 -19 8 5 -4 14 -10 27
-14 30 -3 3 -7 19 -8 37 -3 37 22 52 57 33 17 -9 20 -8 20 12 0 13 -12 31 -25
41 -25 18 -28 16 -24 -20 1 -9 -40 -26 -68 -28 -23 -1 -22 5 6 40 15 19 15 19
-4 4 -21 -17 -105 -41 -103 -30 2 18 -4 22 -17 11 -23 -19 -48 -4 -41 25 4 15
2 25 -4 25 -7 0 -10 -16 -9 -37 5 -76 0 -103 -19 -103 -41 0 -57 51 -22 70 27
14 25 22 -10 42 -17 10 -30 25 -30 36 0 11 -6 25 -14 31 -17 14 -73 4 -80 -15
-7 -19 -36 -18 -36 1 0 8 10 26 22 40 20 23 22 23 34 7 12 -15 13 -15 14 9 0
14 6 33 13 44 20 27 40 9 35 -31 -4 -31 -1 -34 22 -35 14 -1 28 -1 33 0 4 0 6
-2 6 -6 -3 -19 2 -27 9 -17 12 18 79 24 93 8 17 -21 24 -17 25 14 1 15 -1 21
-3 15 -7 -19 -23 -16 -23 4 0 14 -2 14 -17 2 -20 -16 -29 -16 -85 -5 -32 7
-38 13 -44 42 -5 27 -11 34 -30 34 -12 0 -27 -6 -31 -13 -13 -22 -61 -49 -73
-42 -6 4 -22 -1 -35 -9 -27 -18 -35 -6 -10 14 16 13 21 45 6 36 -5 -4 -7 4 -3
16 l5 22 8 -22 c8 -22 29 -31 29 -13 0 5 9 7 20 4 14 -4 20 0 20 11 0 9 -7 16
-15 16 -19 0 -19 14 -1 29 12 10 17 8 25 -8 8 -14 23 -21 52 -23 41 -3 56 -18
74 -73 6 -20 7 -20 23 0 9 12 26 25 37 29 18 8 16 10 -12 18 -36 9 -45 28 -14
28 10 0 25 7 32 17 13 15 12 15 -8 5 -28 -15 -64 -2 -86 32 -20 29 -22 45 -5
28 7 -7 19 -12 28 -12 19 1 -26 40 -46 40 -19 0 -18 -13 6 -55 13 -24 16 -35
7 -35 -18 0 -33 12 -46 38 -7 13 -21 22 -36 22 -26 0 -65 27 -65 46 0 6 -9 19
-20 29 -21 19 -21 19 -5 -11 8 -16 15 -37 15 -46 0 -33 -15 -18 -30 29 -10 31
-24 52 -40 60 -14 7 -30 20 -37 29 -12 16 -13 15 -13 -8 0 -19 8 -29 30 -38
39 -16 44 -25 30 -50 -8 -14 -8 -25 -2 -33 11 -13 14 -77 6 -120 -4 -19 -16
-32 -40 -42 -44 -18 -48 -19 -52 -6 -2 5 13 17 32 26 30 15 36 22 36 49 -1 17
-7 42 -14 55 l-13 23 -22 -27 c-13 -17 -19 -36 -16 -47 5 -14 1 -18 -15 -18
-17 0 -20 -4 -15 -20 6 -18 5 -19 -22 -5 -15 8 -34 15 -40 15 -16 0 -16 6 2
55 21 58 19 77 -6 73 -18 -2 -22 3 -24 30 -1 17 1 32 6 32 5 0 9 -5 9 -11 0
-6 9 -8 20 -4 17 6 20 2 20 -29 0 -19 5 -38 10 -41 19 -12 60 24 60 50 0 14 4
25 9 25 5 0 7 9 4 20 -8 31 -23 23 -23 -12 0 -18 -5 -40 -10 -48 -9 -13 -11
-13 -20 0 -15 22 -12 39 10 67 27 34 18 41 -17 13 -15 -12 -29 -17 -31 -12 -4
14 16 62 28 62 28 0 -6 59 -42 73 -12 4 -18 17 -18 36 0 31 14 49 25 31 8 -13
55 -13 55 0 0 6 5 10 11 10 8 0 10 -16 6 -50 -3 -27 -4 -50 -1 -50 3 0 16 11
31 24 22 20 24 28 16 52 -8 25 -16 30 -63 37 -30 4 -56 10 -59 12 -8 9 17 28
41 31 13 1 24 3 26 3 1 1 -2 10 -8 21 -8 14 -7 25 2 40 20 32 33 17 32 -39z
m386 31 c0 -15 -2 -15 -10 -2 -13 20 -13 33 0 25 6 -3 10 -14 10 -23z m-850 2
c0 -8 -4 -12 -10 -9 -5 3 -10 10 -10 16 0 5 5 9 10 9 6 0 10 -7 10 -16z m86
-11 c-10 -10 -19 5 -10 18 6 11 8 11 12 0 2 -7 1 -15 -2 -18z m1148 -3 c14 -5
26 -16 26 -25 0 -19 0 -19 -39 1 -17 8 -29 20 -26 25 8 11 8 11 39 -1z m-523
-43 l-23 -22 17 28 c10 15 20 25 23 22 3 -3 -5 -16 -17 -28z m307 10 c8 -7 11
-20 7 -35 -5 -21 -3 -24 14 -19 13 3 21 0 21 -7 0 -6 9 -17 19 -23 17 -11 21
-9 26 7 8 27 76 61 104 53 18 -4 21 -11 17 -29 -4 -14 -2 -24 4 -24 6 0 8 -5
4 -11 -5 -8 -9 -8 -14 1 -15 25 -22 -12 -22 -113 1 -77 -3 -107 -16 -129 -20
-34 -22 -34 -56 -7 -14 11 -26 18 -26 14 0 -3 -11 2 -25 11 -15 10 -25 26 -25
39 0 13 -11 33 -26 44 -29 23 -80 30 -68 9 4 -7 3 -8 -5 -4 -6 4 -8 12 -5 18
4 6 -1 8 -14 4 -11 -4 -23 -2 -27 5 -6 8 -10 7 -16 -2 -6 -11 -11 -11 -21 -1
-9 9 -8 15 7 25 12 10 19 28 20 60 2 37 8 51 29 68 14 11 24 25 20 30 -3 6 -1
16 6 23 11 15 45 11 68 -7z m-425 -34 c16 -2 27 1 27 8 0 8 4 8 14 -1 21 -17
8 -40 -21 -40 -29 0 -77 45 -66 63 4 7 9 4 13 -8 4 -10 18 -20 33 -22z m317 6
c0 -5 -11 -9 -25 -9 -26 0 -35 25 -12 33 13 5 37 -10 37 -24z m-245 10 c11
-17 -1 -21 -15 -4 -8 9 -8 15 -2 15 6 0 14 -5 17 -11z m-687 -18 c3 -8 -1 -12
-9 -9 -7 2 -15 10 -17 17 -3 8 1 12 9 9 7 -2 15 -10 17 -17z m1135 2 c-7 -2
-13 -12 -13 -21 0 -15 -2 -15 -10 -2 -15 23 -12 30 13 29 12 0 16 -3 10 -6z
m-365 -39 c-10 -10 -28 6 -28 24 0 15 1 15 17 -1 9 -9 14 -19 11 -23z m-1438
7 c0 -6 -4 -13 -10 -16 -5 -3 -10 1 -10 9 0 9 5 16 10 16 6 0 10 -4 10 -9z
m1394 -10 c13 -14 14 -24 7 -44 -21 -54 -51 -37 -44 26 6 42 12 45 37 18z
m142 4 c-3 -9 1 -18 9 -21 16 -7 21 -44 6 -44 -5 0 -16 11 -25 24 -16 25 -13
56 6 56 6 0 7 -7 4 -15z m-50 -47 c-16 -11 -19 -2 -11 29 l8 28 7 -25 c3 -14
2 -28 -4 -32z m-315 -5 c-9 -15 -10 -12 -10 17 0 29 1 32 10 18 7 -12 7 -24 0
-35z m286 0 c-3 -10 -5 -4 -5 12 0 17 2 24 5 18 2 -7 2 -21 0 -30z m-27 -3
c-18 -11 -24 -6 -16 16 5 14 9 15 19 5 9 -9 9 -14 -3 -21z m-1440 -4 c0 -3 -4
-8 -10 -11 -5 -3 -10 -1 -10 4 0 6 5 11 10 11 6 0 10 -2 10 -4z m1272 -67 c6
-4 7 -12 4 -18 -13 -20 -26 -1 -25 37 1 28 3 31 6 12 3 -14 10 -28 15 -31z
m273 41 c3 -5 -3 -10 -14 -10 -11 0 -23 -4 -26 -10 -10 -16 -25 -11 -25 8 0
12 9 18 29 20 16 1 32 -2 36 -8z m-220 -28 c0 -31 -19 -28 -23 4 -3 18 0 25
10 22 7 -3 13 -14 13 -26z m-1287 5 c36 9 25 -12 -14 -26 -41 -15 -45 -13 -37
17 4 16 9 20 17 13 7 -6 22 -8 34 -4z m941 -9 c0 -13 1 -55 0 -94 0 -66 2 -71
26 -82 14 -6 25 -16 25 -22 0 -6 5 -8 10 -5 6 3 10 1 10 -4 0 -16 -38 -51 -55
-51 -10 0 -15 -11 -15 -35 0 -27 -4 -35 -18 -35 -33 0 -54 34 -46 74 5 29 9
34 20 26 21 -18 68 -8 73 15 3 19 3 20 -17 2 -16 -15 -24 -16 -41 -7 -25 13
-28 34 -3 28 16 -4 17 4 13 104 -2 68 0 108 7 108 5 0 10 -10 11 -22z m941 13
c0 -6 -4 -13 -10 -16 -5 -3 -10 1 -10 9 0 9 5 16 10 16 6 0 10 -4 10 -9z m45
-38 c-3 -21 -9 -54 -12 -73 -4 -19 -6 -37 -6 -40 1 -3 -10 -6 -23 -6 -30 -2
-31 17 -3 34 17 11 20 20 15 43 -6 30 10 79 26 79 5 0 6 -17 3 -37z m-875 18
c0 -12 -20 -25 -27 -18 -7 7 6 27 18 27 5 0 9 -4 9 -9z m387 -6 c24 -17 37
-55 19 -55 -12 0 -46 32 -60 58 -10 17 15 15 41 -3z m-417 -35 c0 -4 -9 -15
-20 -25 -11 -10 -20 -13 -20 -7 0 6 5 14 11 17 6 4 8 13 5 21 -3 8 0 11 10 7
7 -3 14 -8 14 -13z m931 -23 c-8 -8 -11 -3 -11 19 1 25 2 27 11 11 8 -14 8
-22 0 -30z m-1974 7 c-9 -9 -28 6 -21 18 4 6 10 6 17 -1 6 -6 8 -13 4 -17z
m608 -4 c7 -23 -2 -43 -16 -35 -12 8 -12 55 0 55 5 0 12 -9 16 -20z m1504 -37
c2 -23 -19 -13 -25 11 -8 35 8 59 17 26 4 -14 7 -31 8 -37z m157 42 c8 -21 -6
-41 -17 -24 -12 19 -11 39 1 39 6 0 13 -7 16 -15z m-561 -5 c-3 -5 -11 -10
-16 -10 -6 0 -7 5 -4 10 3 6 11 10 16 10 6 0 7 -4 4 -10z m-1708 -24 c-3 -8
-9 -31 -13 -50 -7 -42 -21 -55 -31 -30 -4 10 0 20 10 26 12 6 15 17 10 38 -4
24 -2 30 12 30 11 0 15 -5 12 -14z m1723 4 c0 -5 -5 -10 -11 -10 -5 0 -7 5 -4
10 3 6 8 10 11 10 2 0 4 -4 4 -10z m864 -25 c13 -20 14 -30 5 -46 -14 -28 -29
-13 -34 35 -4 42 6 46 29 11z m-101 0 c-4 -15 -36 -12 -41 3 -3 9 3 13 19 10
13 -1 23 -7 22 -13z m-38 -33 c-9 -9 -35 8 -35 24 0 16 2 16 20 -1 11 -10 18
-20 15 -23z m91 3 c-7 -18 -26 -20 -26 -2 0 18 24 41 28 27 2 -6 1 -17 -2 -25z
m-511 15 c3 -5 -3 -10 -15 -10 -12 0 -18 5 -15 10 3 6 10 10 15 10 5 0 12 -4
15 -10z m-1445 -10 c0 -5 -4 -10 -10 -10 -5 0 -10 5 -10 10 0 6 5 10 10 10 6
0 10 -4 10 -10z m1510 -11 c0 -6 -4 -7 -10 -4 -5 3 -10 11 -10 16 0 6 5 7 10
4 6 -3 10 -11 10 -16z m-1237 -22 c10 -32 5 -42 -18 -33 -13 5 -14 10 -4 27 8
15 8 19 0 15 -6 -4 -11 -2 -11 3 0 6 -7 11 -16 11 -14 0 -14 -3 -4 -15 7 -9
10 -19 6 -22 -4 -4 -11 -1 -16 7 -7 11 -10 8 -10 -12 0 -16 -4 -28 -10 -28 -5
0 -7 -7 -3 -16 5 -14 3 -15 -15 -5 -14 8 -19 17 -15 33 17 68 97 92 116 35z
m1297 22 c0 -6 -5 -19 -11 -30 -15 -28 -31 -13 -17 16 11 25 28 34 28 14z m87
-16 c3 -8 1 -19 -5 -25 -8 -8 -13 -7 -18 6 -6 15 -8 14 -25 -5 -11 -12 -19
-28 -19 -36 0 -7 -4 -13 -9 -13 -19 0 -21 18 -6 46 8 16 15 34 15 40 0 16 61
4 67 -13z m-429 5 c21 -21 13 -37 -18 -36 -19 1 -30 6 -30 15 0 8 5 11 10 8 6
-3 10 1 10 9 0 19 11 21 28 4z m176 -15 c-3 -16 -6 -36 -8 -45 -1 -10 -6 -21
-10 -25 -4 -4 -7 1 -5 12 2 11 0 25 -4 32 -8 12 12 53 25 53 4 0 5 -12 2 -27z
m503 21 c-3 -3 -12 -4 -19 -1 -8 3 -5 6 6 6 11 1 17 -2 13 -5z m-221 -30 c-3
-8 -2 -13 3 -10 5 3 11 -12 13 -33 l3 -39 -30 27 c-19 16 -26 27 -18 29 7 2
13 12 13 23 0 10 5 19 11 19 6 0 8 -7 5 -16z m294 -34 c5 0 14 9 20 20 6 11
14 20 18 20 4 0 8 -9 8 -20 0 -13 -7 -20 -18 -20 -21 0 -24 -16 -4 -27 12 -7
21 -40 17 -66 -1 -4 -10 -3 -22 3 -14 8 -19 19 -17 37 2 18 -3 29 -17 37 -31
17 -34 27 -16 45 15 15 16 15 19 -6 2 -13 7 -23 12 -23z m-1260 -10 c-6 -38
-8 -40 -10 -15 -2 25 -3 26 -7 8 -5 -28 -12 -29 -29 -6 -15 21 -1 45 22 36 7
-3 17 2 20 11 10 27 12 14 4 -34z m560 -2 c0 -10 -4 -18 -10 -18 -5 0 -10 6
-10 13 0 6 -3 23 -6 37 -5 24 -5 24 10 6 9 -11 16 -28 16 -38z m45 15 c-3 -21
-9 -48 -12 -60 -3 -14 -1 -23 6 -23 6 0 11 9 11 19 0 11 5 23 10 26 18 11 11
-51 -8 -68 -39 -36 -49 9 -26 121 8 40 27 25 19 -15z m125 27 c0 -5 -4 -10
-10 -10 -5 0 -10 5 -10 10 0 6 5 10 10 10 6 0 10 -4 10 -10z m673 -30 c38 -39
39 -41 21 -55 -17 -12 -20 -11 -26 12 -4 15 -5 30 -3 34 3 4 -10 6 -28 5 -26
-1 -33 3 -35 22 -5 35 25 27 71 -18z m-2360 -3 c-5 -22 -29 -47 -45 -47 -4 0
-8 13 -8 28 0 20 7 32 23 39 29 13 36 8 30 -20z m2431 27 c22 -8 20 -21 -5
-34 -15 -9 -24 -8 -35 1 -33 27 -5 50 40 33z m-564 -20 c0 -8 -4 -12 -10 -9
-5 3 -10 10 -10 16 0 5 5 9 10 9 6 0 10 -7 10 -16z m-822 -43 c-12 -4 -28 17
-28 39 0 10 7 7 20 -10 11 -15 15 -26 8 -29z m-198 -18 c0 -28 -21 -30 -38 -3
-10 16 -10 25 -1 42 11 21 12 21 25 3 8 -10 14 -29 14 -42z m814 35 c-8 -28
-12 -33 -20 -25 -9 8 6 47 17 47 6 0 7 -10 3 -22z m505 -5 c-1 -17 -3 -21 -6
-10 -2 9 -9 17 -14 17 -5 0 -9 5 -9 10 0 6 7 10 15 10 10 0 15 -9 14 -27z
m118 2 c8 -22 -6 -33 -17 -15 -13 20 -12 30 0 30 6 0 13 -7 17 -15z m-1777
-28 c0 -36 -30 -74 -49 -62 -17 10 -13 35 12 65 29 38 37 37 37 -3z m1831 -28
c7 -50 5 -56 -14 -41 -18 15 -22 95 -4 90 6 -3 15 -25 18 -49z m-2711 12 c6
-11 6 -22 1 -25 -5 -3 -11 5 -13 19 -6 30 -2 32 12 6z m795 9 c3 -5 2 -10 -4
-10 -5 0 -13 5 -16 10 -3 6 -2 10 4 10 5 0 13 -4 16 -10z m235 -9 c0 -11 -4
-23 -10 -26 -6 -4 -10 5 -10 19 0 14 5 26 10 26 6 0 10 -9 10 -19z m17 -3 c-3
-8 -6 -5 -6 6 -1 11 2 17 5 13 3 -3 4 -12 1 -19z m480 -24 c-4 -4 -14 1 -22
12 -22 29 -18 41 7 17 12 -13 19 -26 15 -29z m-1257 16 c0 -6 -7 -22 -17 -36
-12 -19 -18 -22 -24 -12 -14 22 -10 46 9 51 29 8 32 7 32 -3z m1740 -20 c0
-10 -12 -28 -26 -39 -50 -39 -60 -20 -17 34 28 35 43 37 43 5z m-840 10 c0 -5
-2 -10 -4 -10 -3 0 -8 5 -11 10 -3 6 -1 10 4 10 6 0 11 -4 11 -10z m1190 -11
c0 -6 -4 -7 -10 -4 -5 3 -10 11 -10 16 0 6 5 7 10 4 6 -3 10 -11 10 -16z m50
-14 c0 -16 -6 -25 -15 -25 -8 0 -15 6 -15 13 0 8 -4 7 -11 -3 -9 -12 -10 -12
-5 3 3 10 6 23 6 28 0 5 9 9 20 9 15 0 20 -7 20 -25z m-1674 6 c-4 -5 0 -11 6
-14 7 -2 10 -8 6 -12 -4 -4 -11 -4 -17 0 -14 8 -14 35 0 35 5 0 8 -4 5 -9z
m388 -10 l30 -20 -27 -12 c-22 -10 -31 -9 -51 5 -34 22 -56 20 -56 -3 0 -11
-5 -23 -11 -27 -9 -5 -10 1 -5 22 4 16 8 29 9 30 6 4 64 23 72 23 6 1 23 -8
39 -18z m1500 0 c3 -4 1 -13 -4 -21 -7 -11 -11 -11 -24 -1 -23 19 -20 40 4 34
11 -3 22 -8 24 -12z m-1755 -20 c-13 -11 -26 -18 -28 -15 -7 7 21 34 36 34 10
0 8 -6 -8 -19z m101 -12 c0 -20 -15 -26 -25 -9 -9 15 3 43 15 35 5 -3 10 -15
10 -26z m-187 -4 c-8 -22 -22 -18 -16 5 3 11 9 17 14 15 4 -3 6 -12 2 -20z
m437 5 c0 -5 -5 -10 -11 -10 -5 0 -7 5 -4 10 3 6 8 10 11 10 2 0 4 -4 4 -10z
m26 -18 c-17 -16 -18 -16 -5 5 7 12 15 20 18 17 3 -2 -3 -12 -13 -22z m-736 3
c21 -25 1 -31 -22 -7 -18 18 -19 22 -6 22 8 0 21 -7 28 -15z m235 5 c3 -5 1
-10 -4 -10 -6 0 -11 5 -11 10 0 6 2 10 4 10 3 0 8 -4 11 -10z m131 -6 c-3 -9
-6 -18 -6 -20 0 -2 -4 -4 -9 -4 -5 0 -7 9 -4 20 3 11 10 20 15 20 6 0 7 -7 4
-16z m438 8 c3 -5 -1 -9 -9 -9 -8 0 -15 4 -15 9 0 4 4 8 9 8 6 0 12 -4 15 -8z
m551 -2 c3 -5 2 -10 -4 -10 -5 0 -13 5 -16 10 -3 6 -2 10 4 10 5 0 13 -4 16
-10z m203 -2 c5 -7 10 -26 10 -41 -1 -38 8 -44 34 -21 20 18 21 18 15 1 -4
-10 -7 -35 -7 -55 0 -47 -16 -74 -29 -52 -6 9 -6 19 0 26 6 7 6 15 1 18 -14 8
-22 -4 -22 -36 0 -37 -22 -36 -37 1 -9 25 -8 32 10 50 12 12 16 21 10 21 -7 0
-18 -8 -25 -18 -14 -19 -62 -52 -75 -52 -4 0 3 9 17 20 21 17 23 21 10 29 -12
9 -12 11 3 15 50 17 52 20 14 25 l-38 6 31 13 c28 13 32 12 50 -10 11 -12 19
-19 20 -14 0 5 -7 17 -15 26 -8 9 -12 25 -8 38 6 25 16 28 31 10z m-1668 -7
c0 -12 -20 -25 -27 -18 -7 7 6 27 18 27 5 0 9 -4 9 -9z m778 -13 c2 -9 -11
-31 -29 -47 -18 -17 -29 -35 -25 -39 4 -4 25 13 45 37 22 25 43 41 49 37 6 -4
20 -1 32 6 17 11 22 10 36 -10 8 -12 19 -20 24 -17 5 3 13 -3 19 -12 8 -14 12
-16 22 -5 18 17 56 15 63 -4 9 -22 0 -30 -18 -15 -10 9 -16 9 -21 1 -4 -7 -16
-9 -27 -7 -11 3 -21 0 -25 -9 -8 -22 -20 -16 -26 14 -6 30 -52 59 -61 38 -3
-7 -8 -6 -15 4 -9 13 -13 11 -28 -9 -9 -14 -25 -33 -35 -43 -10 -10 -13 -18
-7 -18 5 0 7 -4 4 -10 -3 -5 0 -10 9 -10 8 0 22 -3 32 -7 13 -5 16 -3 11 10
-5 12 -1 17 13 17 23 0 58 -32 41 -38 -6 -2 -11 -15 -11 -28 0 -15 -6 -24 -15
-24 -25 0 -67 32 -61 46 3 8 -4 14 -17 16 -12 2 -21 9 -19 16 1 6 -4 12 -12
12 -20 0 -30 18 -17 33 5 7 8 23 4 35 -3 12 -3 29 1 38 8 21 60 15 64 -8z
m-608 2 c0 -5 -5 -10 -11 -10 -5 0 -7 5 -4 10 3 6 8 10 11 10 2 0 4 -4 4 -10z
m348 -2 c-6 -18 -28 -21 -28 -4 0 9 7 16 16 16 9 0 14 -5 12 -12z m162 -6 c0
-25 -21 -52 -40 -52 -28 0 -34 18 -16 45 17 25 56 30 56 7z m870 8 c0 -5 -9
-10 -20 -10 -11 0 -20 5 -20 10 0 6 9 10 20 10 11 0 20 -4 20 -10z m-960 -42
c0 -20 -26 -36 -38 -23 -4 4 -1 10 6 12 6 3 12 9 12 14 0 17 -23 9 -45 -17
-13 -15 -28 -23 -34 -19 -13 7 32 58 59 67 20 7 40 -10 40 -34z m-1040 17 c0
-8 -4 -15 -10 -15 -5 0 -7 7 -4 15 4 8 8 15 10 15 2 0 4 -7 4 -15z m462 -23
c-19 -19 -19 -19 -32 2 -12 19 -12 20 3 8 13 -11 17 -10 28 10 7 13 14 18 16
11 2 -6 -4 -20 -15 -31z m338 28 c0 -5 -4 -10 -10 -10 -5 0 -10 5 -10 10 0 6
5 10 10 10 6 0 10 -4 10 -10z m87 -87 c-2 -21 -4 -6 -4 32 0 39 2 55 4 38 2
-18 2 -50 0 -70z m1094 64 c-12 -12 -45 -1 -37 12 3 5 15 7 27 4 13 -4 17 -9
10 -16z m694 -8 c4 -18 3 -35 -4 -42 -6 -6 -11 -20 -11 -30 0 -17 -2 -17 -20
6 -24 30 -26 60 -4 81 23 23 32 20 39 -15z m-2125 12 c0 -13 -12 -20 -26 -14
-20 8 -17 19 6 20 11 1 20 -2 20 -6z m371 -4 c-1 -12 -15 -9 -19 4 -3 6 1 10
8 8 6 -3 11 -8 11 -12z m567 -18 c-3 -8 -7 -3 -11 10 -4 17 -3 21 5 13 5 -5 8
-16 6 -23z m767 21 c3 -5 -1 -10 -9 -10 -9 0 -16 5 -16 10 0 6 4 10 9 10 6 0
13 -4 16 -10z m-1921 -16 c4 -12 1 -14 -14 -9 -13 4 -20 2 -20 -7 0 -10 -11
-12 -40 -10 -22 2 -40 8 -40 13 0 10 12 12 47 9 12 -1 30 3 40 9 10 6 19 11
19 11 1 0 5 -7 8 -16z m816 4 c0 -14 -59 -78 -72 -78 -17 0 -6 26 25 56 35 35
47 41 47 22z m1060 -29 c-11 -20 -30 -26 -30 -9 0 6 5 10 10 10 6 0 10 7 10
16 0 8 5 12 10 9 7 -4 7 -13 0 -26z m-1790 -3 c0 -14 -4 -28 -10 -31 -13 -8
-13 -25 0 -25 6 0 15 10 20 23 6 14 9 16 9 6 2 -29 37 -52 70 -44 27 6 31 4
31 -14 0 -14 -8 -23 -25 -27 -14 -3 -25 -10 -25 -15 0 -12 17 -11 39 0 24 13
63 2 59 -16 -2 -8 -21 -21 -43 -29 -51 -18 -65 -17 -41 1 20 15 20 15 0 15
-25 0 -44 -18 -37 -36 3 -8 0 -14 -6 -14 -6 0 -11 6 -11 14 0 8 -13 17 -29 21
-36 8 -48 33 -24 51 20 15 28 17 63 15 20 -2 22 0 10 8 -8 6 -27 11 -41 11
-44 0 -60 39 -37 88 15 29 28 28 28 -2z m160 9 c7 -8 8 -15 2 -15 -5 0 -15 7
-22 15 -7 8 -8 15 -2 15 5 0 15 -7 22 -15z m480 0 c0 -8 -4 -15 -10 -15 -5 0
-10 7 -10 15 0 8 5 15 10 15 6 0 10 -7 10 -15z m258 5 c6 0 12 -11 12 -26 l0
-25 -22 24 c-13 13 -30 27 -38 31 -8 3 -4 4 10 1 14 -2 31 -5 38 -5z m206 -46
c-15 -22 -14 -26 5 -58 30 -48 71 -60 71 -20 0 8 5 12 10 9 15 -9 12 -43 -5
-53 -14 -7 -13 -15 7 -60 13 -28 29 -52 36 -52 17 0 15 -17 -4 -24 -41 -16
-54 -7 -54 35 0 38 -2 41 -22 36 -12 -4 -28 -1 -36 5 -11 10 -10 14 8 28 21
16 21 17 4 53 -13 27 -28 41 -60 53 -50 19 -82 12 -90 -22 -7 -26 -27 -28 -32
-2 -1 8 9 20 23 26 17 8 25 19 25 37 0 24 2 25 35 19 30 -5 36 -3 46 20 11 24
13 25 30 10 16 -15 17 -18 3 -40z m486 46 c0 -6 -11 -16 -25 -22 -19 -9 -24
-16 -19 -32 6 -19 6 -19 -10 -3 -16 16 -16 18 11 42 30 26 43 31 43 15z
m-1890 -11 c0 -5 -4 -9 -9 -9 -12 0 -26 -39 -23 -65 2 -18 2 -19 -11 -3 -7 9
-11 31 -9 51 3 29 8 35 28 35 13 0 24 -4 24 -9z m810 1 c0 -5 -7 -10 -15 -10
-8 0 -15 5 -15 10 0 6 7 10 15 10 8 0 15 -4 15 -10z m315 -9 c-3 -6 -11 -11
-17 -11 -6 0 -6 6 2 15 14 17 26 13 15 -4z m-415 -1 c0 -5 -4 -10 -10 -10 -5
0 -10 5 -10 10 0 6 5 10 10 10 6 0 10 -4 10 -10z m170 0 c0 -5 -4 -10 -10 -10
-5 0 -10 5 -10 10 0 6 5 10 10 10 6 0 10 -4 10 -10z m1280 -5 c10 -12 9 -16
-4 -21 -12 -5 -14 -10 -6 -19 15 -18 -16 -47 -44 -43 -23 3 -37 48 -14 48 7 0
22 7 33 16 17 13 18 16 5 24 -13 8 -13 10 1 10 9 0 22 -7 29 -15z m-1326 -152
c-10 -33 -20 -50 -22 -40 -2 9 -8 17 -14 17 -6 0 -9 24 -6 65 2 36 0 65 -5 65
-4 0 5 11 20 24 l28 25 9 -50 c7 -38 5 -61 -10 -106z m-694 143 c0 -3 -4 -8
-10 -11 -5 -3 -10 -1 -10 4 0 6 5 11 10 11 6 0 10 -2 10 -4z m220 -12 c0 -8
-4 -12 -10 -9 -5 3 -10 10 -10 16 0 5 5 9 10 9 6 0 10 -7 10 -16z m50 6 c0 -5
-2 -10 -4 -10 -3 0 -8 5 -11 10 -3 6 -1 10 4 10 6 0 11 -4 11 -10z m1184 -15
c-18 -15 -18 -16 5 -13 13 2 26 -3 28 -9 3 -7 0 -13 -6 -13 -6 0 -20 -9 -31
-20 -19 -19 -19 -19 -13 10 7 35 -11 41 -27 9 -14 -26 -21 -21 -13 9 3 12 13
22 23 22 10 0 23 7 30 15 7 9 15 13 18 10 3 -3 -3 -12 -14 -20z m-1359 -19
c21 -6 52 -46 36 -46 -6 0 -13 5 -17 11 -5 8 -10 6 -16 -5 -13 -23 -31 -20
-23 5 8 25 -21 51 -50 43 -20 -5 -20 -5 -1 10 17 14 22 14 35 2 9 -7 25 -16
36 -20z m325 13 c0 -10 -4 -21 -10 -24 -5 -3 -10 -15 -10 -26 0 -39 -25 -12
-26 28 -2 36 1 41 22 41 17 0 24 -6 24 -19z m30 11 c0 -5 -4 -10 -10 -10 -5 0
-10 5 -10 10 0 6 5 10 10 10 6 0 10 -4 10 -10z m327 -16 c-9 -9 -28 6 -21 18
4 6 10 6 17 -1 6 -6 8 -13 4 -17z m103 11 c0 -8 -7 -15 -15 -15 -8 0 -15 -4
-15 -10 0 -5 -7 -10 -15 -10 -8 0 -15 -7 -15 -16 0 -9 -5 -14 -12 -12 -22 8
-19 26 5 32 14 3 27 15 30 26 6 23 37 27 37 5z m-1000 -21 c0 -8 -4 -14 -10
-14 -5 0 -10 9 -10 21 0 11 5 17 10 14 6 -3 10 -13 10 -21z m700 1 c0 -14 -4
-25 -10 -25 -5 0 -10 11 -10 25 0 14 5 25 10 25 6 0 10 -11 10 -25z m160 16
c0 -5 3 -16 6 -25 3 -9 2 -16 -4 -16 -5 0 -12 11 -14 25 -3 14 -1 25 3 25 5 0
9 -4 9 -9z m366 -27 c-9 -8 -16 -23 -16 -33 0 -19 -37 -58 -46 -48 -3 3 4 15
15 26 12 12 21 29 21 38 0 20 33 59 38 44 2 -6 -4 -18 -12 -27z m277 1 c-7
-21 -13 -19 -13 6 0 11 4 18 10 14 5 -3 7 -12 3 -20z m-1325 -8 c4 -19 -6 -21
-27 -8 -16 10 -5 34 12 28 7 -2 13 -11 15 -20z m302 -12 c0 -24 6 -37 20 -45
12 -6 19 -19 17 -32 -1 -11 3 -23 10 -25 15 -6 27 35 14 50 -7 10 -5 13 10 14
16 2 18 -3 13 -25 -4 -15 -18 -49 -30 -77 -19 -41 -23 -44 -18 -18 3 17 1 34
-5 37 -5 3 -19 26 -31 50 -12 26 -30 46 -43 50 -21 6 -21 7 -4 20 9 7 17 17
17 22 0 4 -5 3 -12 -4 -17 -17 -29 -15 -22 3 4 9 19 15 35 15 26 0 29 -3 29
-35z m570 16 c0 -5 3 -16 6 -25 5 -13 2 -14 -25 -5 -37 13 -41 39 -6 39 14 0
25 -4 25 -9z m840 -1 c0 -13 -48 -36 -56 -27 -4 4 -1 13 6 22 14 17 50 20 50
5z m-125 -16 c21 8 25 -5 8 -30 -14 -23 -14 -25 16 -53 28 -26 42 -61 25 -61
-12 0 -74 68 -74 81 0 6 -8 18 -17 26 -17 13 -16 13 6 7 16 -4 21 -3 17 5 -4
6 -14 11 -22 11 -8 0 -14 7 -14 15 0 13 4 14 21 5 11 -7 27 -9 34 -6z m928 9
c-7 -2 -21 -2 -30 0 -10 3 -4 5 12 5 17 0 24 -2 18 -5z m-1326 -35 c26 -24 30
-48 8 -48 -8 0 -12 -6 -9 -14 4 -10 -5 -15 -30 -18 -36 -4 -46 8 -26 28 7 7 1
9 -21 6 -31 -5 -31 -4 -24 29 4 19 10 38 12 43 9 13 65 -3 90 -26z m695 12 c7
-11 21 -20 31 -20 14 0 16 -4 8 -18 -7 -13 -7 -22 0 -29 7 -7 7 -17 -3 -32
-14 -22 -33 -27 -43 -11 -3 6 -17 10 -29 10 -24 0 -40 28 -36 59 1 12 -1 12
-13 3 -11 -10 -17 -9 -27 3 -21 25 4 44 32 26 20 -12 24 -11 38 7 19 27 27 27
42 2z m163 4 c22 -14 25 -23 25 -78 0 -76 -8 -109 -26 -102 -7 3 -14 1 -16 -3
-2 -5 -14 -12 -26 -16 -21 -6 -23 -4 -17 14 4 14 0 24 -14 33 -30 18 -26 28
12 29 l32 2 -35 6 c-26 4 -35 11 -35 26 0 11 6 19 13 17 75 -15 82 -14 82 12
0 28 -14 35 -23 12 -4 -11 -12 -11 -41 -2 -43 13 -44 18 -10 45 32 25 47 26
79 5z m-1333 -16 c-10 -10 -44 0 -37 12 3 5 14 6 26 3 12 -3 17 -9 11 -15z
m718 12 c0 -5 -2 -10 -4 -10 -3 0 -8 5 -11 10 -3 6 -1 10 4 10 6 0 11 -4 11
-10z m295 -11 c0 -7 -8 -15 -17 -17 -18 -3 -25 18 -11 32 10 10 28 1 28 -15z
m575 6 c10 -12 9 -15 -6 -15 -15 0 -16 -2 -5 -9 23 -15 5 -41 -29 -41 -35 0
-34 -2 -15 44 16 38 35 45 55 21z m-660 -10 c0 -8 -4 -15 -10 -15 -5 0 -10 7
-10 15 0 8 5 15 10 15 6 0 10 -7 10 -15z m-1840 -8 c0 -12 -39 -56 -41 -46 0
2 -2 12 -4 21 -2 10 4 22 13 28 23 13 32 12 32 -3z m1030 5 c0 -4 -5 -13 -12
-20 -9 -9 -8 -12 5 -12 9 0 17 6 17 14 0 9 7 12 19 9 10 -3 22 0 25 6 5 8 13
8 27 0 20 -10 20 -12 3 -30 -9 -10 -21 -16 -26 -13 -6 4 -8 -5 -3 -25 5 -24 3
-31 -9 -31 -8 0 -16 10 -18 22 -2 16 -12 24 -36 29 -41 8 -43 10 -35 37 5 20
43 33 43 14z m513 -11 c3 -14 1 -18 -9 -14 -8 3 -14 11 -14 19 0 21 17 17 23
-5z m-1327 -1 c15 0 24 -6 24 -16 0 -8 5 -12 10 -9 6 3 10 2 10 -4 0 -6 -12
-8 -30 -4 -19 3 -30 1 -30 -6 0 -6 -7 -11 -15 -11 -8 0 -15 5 -15 10 0 6 7 10
15 10 8 0 15 5 15 10 0 6 -6 10 -14 10 -8 0 -18 5 -22 12 -5 8 -2 9 10 5 10
-4 29 -7 42 -7z m744 -5 c0 -10 -10 -15 -30 -15 -38 0 -39 17 -2 23 15 2 28 5
30 6 1 0 2 -6 2 -14z m1436 5 c8 0 14 -6 14 -13 0 -9 -12 -11 -40 -9 -39 4
-52 16 -27 25 6 3 18 4 25 1 8 -2 20 -4 28 -4z m-1535 -53 c-13 -13 -15 11 -4
40 7 16 8 15 11 -6 2 -13 -1 -28 -7 -34z m394 13 c0 -38 -12 -46 -39 -27 -19
14 -19 15 0 40 25 34 39 29 39 -13z m363 23 c6 -19 -25 -16 -32 3 -4 11 -1 14
11 12 9 -2 18 -9 21 -15z m-458 -19 c0 -14 -5 -34 -11 -45 -8 -16 -13 -18 -25
-8 -18 15 -18 29 2 57 20 29 34 28 34 -4z m730 15 c0 -5 -4 -9 -10 -9 -5 0
-10 -5 -10 -11 0 -5 5 -7 10 -4 12 8 13 -5 1 -23 -6 -11 -13 -7 -29 13 -12 15
-20 30 -18 34 6 10 56 10 56 0z m-1785 -24 c-29 -24 -43 -19 -31 10 3 9 18 15
33 15 l28 -1 -30 -24z m1444 -9 c26 -42 26 -48 -1 -44 -13 2 -24 11 -27 23 -2
11 -8 23 -15 28 -8 5 -7 10 4 17 8 5 16 10 17 10 1 0 11 -15 22 -34z m377 -17
c-32 -37 -33 -32 -4 17 12 21 24 32 26 26 2 -7 -8 -26 -22 -43z m-1009 21
c-28 -22 -37 -25 -37 -10 0 6 10 15 23 20 36 14 41 11 14 -10z m719 -7 c-10
-10 -19 5 -10 18 6 11 8 11 12 0 2 -7 1 -15 -2 -18z m744 1 c-6 -14 -7 -30 -4
-36 4 -6 2 -8 -4 -5 -5 4 -29 -9 -52 -28 -47 -39 -52 -41 -44 -20 4 8 10 15
15 15 5 0 9 12 9 28 0 59 10 72 51 72 37 0 38 -1 29 -26z m170 16 c0 -5 -7
-10 -15 -10 -9 0 -18 -12 -21 -30 -4 -16 -13 -35 -20 -41 -8 -6 -14 -18 -14
-25 0 -8 -3 -14 -7 -14 -5 -1 -41 -3 -80 -6 -63 -5 -73 -4 -73 11 0 9 5 13 10
10 13 -8 72 34 67 48 -6 19 25 47 48 41 11 -3 36 2 55 10 42 18 50 19 50 6z
m-2070 -10 c0 -5 -7 -10 -16 -10 -8 0 -12 5 -9 10 3 6 10 10 16 10 5 0 9 -4 9
-10z m1242 -12 c-7 -7 -12 -19 -12 -27 1 -13 4 -12 15 3 15 19 15 19 15 -1 0
-11 7 -24 16 -27 10 -4 13 -2 8 7 -4 6 2 3 14 -7 12 -11 22 -23 22 -28 0 -16
-37 -8 -56 13 l-18 20 -9 -23 c-7 -17 -11 -19 -14 -8 -3 8 -13 21 -22 29 -12
10 -13 15 -3 18 6 3 12 13 12 23 0 10 8 20 18 22 23 6 28 0 14 -14z m880 2
c10 0 18 -4 18 -10 0 -5 -16 -10 -35 -10 -22 0 -35 5 -35 13 0 20 12 29 24 17
5 -5 18 -10 28 -10z m-2295 -6 c8 -21 -35 -64 -64 -64 -21 0 -23 4 -17 23 15
50 67 77 81 41z m1686 3 c3 -8 -3 -14 -14 -14 -19 -2 -25 8 -12 20 10 11 20 8
26 -6z m-1563 -22 c0 -29 -41 -45 -65 -25 -28 23 -9 38 58 49 4 0 7 -10 7 -24z
m500 21 c0 -2 -7 -9 -15 -16 -13 -11 -14 -10 -9 4 5 14 24 23 24 12z m846 -23
c-7 -7 -26 7 -26 19 0 6 6 6 15 -2 9 -7 13 -15 11 -17z m-1572 9 c10 -17 -7
-52 -25 -52 -11 0 -19 5 -19 10 0 6 -7 10 -17 10 -14 0 -14 2 2 20 18 20 50
27 59 12z m1416 -16 c0 -7 9 -21 20 -31 24 -21 16 -39 -10 -25 -25 14 -42 44
-34 64 7 18 24 12 24 -8z m-1666 5 c9 -14 -22 -34 -41 -26 -17 6 -17 7 1 21
23 16 33 18 40 5z m106 5 c0 -11 -19 -15 -25 -6 -3 5 1 10 9 10 9 0 16 -2 16
-4z m55 -6 c-3 -5 -10 -10 -16 -10 -5 0 -9 5 -9 10 0 6 7 10 16 10 8 0 12 -4
9 -10z m655 0 c26 -16 4 -21 -31 -6 -31 14 -32 15 -9 15 14 1 32 -3 40 -9z
m1295 -5 c11 -8 14 -15 8 -15 -7 0 -13 -7 -13 -15 0 -8 -4 -15 -10 -15 -5 0
-10 5 -10 10 0 6 -9 10 -19 10 -30 0 -50 11 -45 24 7 18 67 19 89 1z m82 9
c-3 -3 -12 -4 -19 -1 -8 3 -5 6 6 6 11 1 17 -2 13 -5z m-2270 -30 c-9 -9 -28
6 -21 18 4 6 10 6 17 -1 6 -6 8 -13 4 -17z m971 15 c-2 -6 -8 -10 -13 -10 -5
0 -11 4 -13 10 -2 6 4 11 13 11 9 0 15 -5 13 -11z m492 1 c0 -5 -4 -10 -10
-10 -5 0 -10 5 -10 10 0 6 5 10 10 10 6 0 10 -4 10 -10z m-1340 -10 c0 -5 -5
-10 -11 -10 -5 0 -7 5 -4 10 3 6 8 10 11 10 2 0 4 -4 4 -10z m497 -12 c-3 -8
-6 -5 -6 6 -1 11 2 17 5 13 3 -3 4 -12 1 -19z m721 -6 c4 -23 -12 -30 -24 -11
-4 8 -9 7 -15 -2 -4 -7 -10 -11 -13 -8 -8 8 27 49 39 46 6 -2 11 -13 13 -25z
m639 6 c-3 -8 -6 -5 -6 6 -1 11 2 17 5 13 3 -3 4 -12 1 -19z m127 -11 c6 -9 7
-20 3 -24 -5 -4 -12 -1 -18 7 -7 11 -11 12 -17 3 -7 -12 -52 -14 -52 -3 0 3 7
15 15 27 12 17 21 20 37 14 12 -4 27 -15 32 -24z m167 11 c11 -11 19 -25 19
-30 0 -12 -24 -10 -39 5 -10 9 -12 9 -7 0 5 -9 -2 -12 -24 -10 -30 2 -43 17
-15 17 8 0 20 9 27 20 16 25 16 25 39 -2z m439 -8 c16 0 32 -4 35 -10 4 -6 -5
-10 -21 -10 -15 0 -42 -5 -61 -12 -43 -16 -50 -6 -23 33 20 26 24 29 32 15 5
-9 22 -16 38 -16z m-2490 10 c0 -5 -4 -10 -10 -10 -5 0 -10 5 -10 10 0 6 5 10
10 10 6 0 10 -4 10 -10z m618 -2 c-7 -19 -38 -22 -38 -4 0 10 9 16 21 16 12 0
19 -5 17 -12z m27 3 c3 -5 1 -12 -5 -16 -5 -3 -10 1 -10 9 0 18 6 21 15 7z
m150 -11 c3 -5 -1 -10 -10 -10 -9 0 -13 5 -10 10 3 6 8 10 10 10 2 0 7 -4 10
-10z m255 0 c0 -5 -4 -10 -10 -10 -5 0 -10 5 -10 10 0 6 5 10 10 10 6 0 10 -4
10 -10z m134 -12 c-7 -11 -34 -10 -34 1 0 6 9 9 19 8 11 0 17 -5 15 -9z m546
2 c0 -5 -2 -10 -4 -10 -3 0 -8 5 -11 10 -3 6 -1 10 4 10 6 0 11 -4 11 -10z
m195 -10 c3 -5 2 -10 -4 -10 -5 0 -13 5 -16 10 -3 6 -2 10 4 10 5 0 13 -4 16
-10z"/>
<g>
<path d="M831 3841 c-13 -58 -9 -101 10 -101 5 0 9 15 9 34 0 18 3 54 6 80 10
67 -9 57 -25 -13z"/>
</g>
<g>
<path d="M1420 3905 c0 -8 4 -15 10 -15 5 0 7 7 4 15 -4 8 -8 15 -10 15 -2 0
-4 -7 -4 -15z"/>
</g>
<g>
<path d="M1343 3883 c9 -2 23 -2 30 0 6 3 -1 5 -18 5 -16 0 -22 -2 -12 -5z"/>
</g>
<g>
<path d="M1395 3710 c-11 -4 -32 -5 -47 -3 -17 3 -28 1 -28 -6 0 -6 9 -11 19
-11 11 0 21 -5 23 -10 2 -7 15 -5 36 5 18 9 30 21 27 26 -4 5 -7 9 -8 8 -1 0
-11 -4 -22 -9z"/>
</g>
<g>
<path d="M527 1954 c-8 -8 1 -24 12 -24 4 0 8 7 8 15 0 16 -9 20 -20 9z"/>
</g>
<g>
<path d="M510 1920 c8 -5 20 -10 25 -10 6 0 3 5 -5 10 -8 5 -19 10 -25 10 -5
0 -3 -5 5 -10z"/>
</g>
<g>
<path d="M1420 2331 c0 -90 9 -125 27 -107 7 7 4 172 -4 192 -14 37 -23 5 -23
-85z"/>
</g>
<g>
<path d="M628 1913 c7 -3 16 -2 19 1 4 3 -2 6 -13 5 -11 0 -14 -3 -6 -6z"/>
</g>
<g>
<path d="M363 1880 c0 -25 2 -35 4 -22 2 12 2 32 0 45 -2 12 -4 2 -4 -23z"/>
</g>
<g>
<path d="M1170 1879 c0 -24 4 -38 10 -34 6 3 10 22 10 41 0 19 -4 34 -10 34
-5 0 -10 -18 -10 -41z"/>
</g>
<g>
<path d="M1091 1876 c-9 -10 -8 -16 4 -26 13 -11 15 -8 15 14 0 30 -3 32 -19
12z"/>
</g>
<g>
<path d="M998 1843 c6 -2 18 -2 25 0 6 3 1 5 -13 5 -14 0 -19 -2 -12 -5z"/>
</g>
<g>
<path d="M904 1565 c0 -12 5 -22 11 -22 6 0 11 10 11 22 0 12 -5 22 -11 22 -6
0 -11 -10 -11 -22z"/>
</g>
<g>
<path d="M995 1549 c-3 -4 2 -6 10 -5 21 3 28 13 10 13 -9 0 -18 -4 -20 -8z"/>
</g>
<g>
<path d="M1330 1562 c0 -15 42 -34 53 -23 7 7 2 13 -17 21 -33 12 -36 12 -36
2z"/>
</g>
<g>
<path d="M1301 1514 c0 -11 3 -14 6 -6 3 7 2 16 -1 19 -3 4 -6 -2 -5 -13z"/>
</g>
<g>
<path d="M1015 1489 c-4 -6 -5 -12 -2 -15 2 -3 7 2 10 11 7 17 1 20 -8 4z"/>
</g>
<g>
<path d="M1670 1100 c0 -5 -7 -7 -15 -4 -10 4 -15 0 -15 -15 0 -20 -10 -26
-40 -21 -8 1 -12 -1 -8 -6 4 -4 4 -12 -1 -18 -7 -8 0 -10 22 -9 18 1 40 2 50
2 9 1 17 6 17 12 0 6 -7 8 -17 4 -15 -5 -14 -3 2 13 15 14 21 16 23 5 4 -16
19 -17 24 -1 2 6 -4 20 -14 30 -20 20 -28 23 -28 8z"/>
</g>
<g>
<path d="M1857 921 c-5 -22 1 -33 14 -25 12 7 12 44 0 44 -5 0 -11 -9 -14 -19z"/>
</g>
<g>
<path d="M1737 1293 c-23 -6 -17 -25 11 -38 25 -11 29 -25 9 -25 -8 0 -22 -10
-33 -22 -17 -20 -17 -21 -1 -9 10 8 38 14 62 14 38 0 43 2 32 15 -6 8 -27 21
-44 29 -39 16 -40 21 -10 33 23 9 6 11 -26 3z"/>
</g>
<g>
<path d="M1852 1194 c10 -10 20 -15 24 -12 3 4 -5 12 -18 18 -22 12 -22 12 -6
-6z"/>
</g>
<g>
<path d="M1968 1133 c-2 -5 -1 -24 3 -43 l6 -35 2 43 c1 39 -3 52 -11 35z"/>
</g>
<g>
<path d="M2204 539 c-8 -13 13 -34 44 -44 17 -5 22 -2 22 12 0 36 -49 59 -66
32z m41 -9 c3 -5 -1 -10 -9 -10 -9 0 -16 5 -16 10 0 6 4 10 9 10 6 0 13 -4 16
-10z"/>
</g>
</g>
<g>
<path d="M2941 4974 c0 -11 3 -14 6 -6 3 7 2 16 -1 19 -3 4 -6 -2 -5 -13z"/>
</g>
<g>
<path d="M701 4948 c1 -24 3 -27 6 -10 6 31 31 28 44 -5 8 -22 7 -35 -8 -63
-9 -19 -19 -38 -21 -42 -2 -5 1 -8 6 -8 6 0 20 20 31 44 17 34 19 49 12 70 -9
21 -8 26 4 26 8 0 15 5 15 10 0 6 -20 10 -45 10 -44 0 -45 0 -44 -32z"/>
</g>
<g>
<path d="M275 4940 c-11 -5 -15 -9 -10 -9 6 -1 4 -5 -4 -10 -7 -5 -9 -11 -5
-13 5 -3 20 5 34 18 25 25 20 29 -15 14z"/>
</g>
<g>
<path d="M680 4892 c0 -10 22 -32 32 -32 5 0 3 9 -4 20 -13 20 -28 27 -28 12z"/>
</g>
<g>
<path d="M2486 4884 c-5 -12 -2 -15 10 -10 8 3 18 6 20 6 2 0 4 5 4 10 0 16
-27 11 -34 -6z"/>
</g>
<g>
<path d="M2424 4866 c-18 -14 -18 -15 -1 -22 22 -8 46 11 31 26 -7 7 -17 5
-30 -4z"/>
</g>
<g>
<path d="M2687 4833 c-13 -12 -7 -33 8 -33 8 0 15 9 15 20 0 20 -11 26 -23 13z"/>
</g>
<g>
<path d="M267 4623 c-4 -3 -7 -11 -7 -17 0 -6 5 -5 12 2 6 6 9 14 7 17 -3 3
-9 2 -12 -2z"/>
</g>
<g>
<path d="M2630 4525 c-8 -9 -8 -15 -2 -15 12 0 26 19 19 26 -2 2 -10 -2 -17
-11z"/>
</g>
<g>
<path d="M2990 4218 c0 -117 -2 -301 -5 -408 -2 -107 0 -379 4 -605 7 -385 8
-360 9 408 1 449 0 817 -3 817 -3 0 -5 -96 -5 -212z"/>
</g>
<g>
<path d="M1127 4310 c-58 -36 -65 -52 -43 -97 11 -24 30 -40 61 -54 40 -18 50
-18 87 -7 24 6 64 25 89 40 25 15 49 28 53 28 3 0 24 -13 46 -29 73 -52 172
-50 233 7 32 31 34 60 7 95 -39 50 -167 44 -254 -11 -39 -24 -39 -24 -55 -4
-26 32 -63 50 -121 56 -50 6 -59 4 -103 -24z m185 -36 c49 -26 37 -48 -44 -78
-74 -27 -148 -4 -148 45 0 45 35 61 114 53 27 -3 62 -12 78 -20z m299 16 c29
-16 25 -64 -8 -90 -23 -18 -36 -21 -77 -16 -28 3 -66 17 -88 31 -38 26 -39 27
-22 46 9 11 31 23 48 28 43 13 124 13 147 1z"/>
</g>
<g>
<path d="M270 4299 c0 -7 -8 -18 -17 -25 -15 -11 -16 -13 -3 -14 9 0 21 5 28
12 15 15 16 38 2 38 -5 0 -10 -5 -10 -11z"/>
</g>
<g>
<path d="M457 4280 c-3 -11 -1 -20 4 -20 5 0 9 9 9 20 0 11 -2 20 -4 20 -2 0
-6 -9 -9 -20z"/>
</g>
<g>
<path d="M163 4253 c-7 -3 -13 -13 -13 -24 0 -10 -6 -20 -12 -20 -7 -1 -19 -2
-27 -3 -8 0 -16 -7 -19 -15 -3 -10 0 -12 11 -8 13 5 15 0 11 -26 -6 -43 8 -66
30 -48 28 24 19 -32 -9 -57 -19 -17 -24 -29 -21 -54 3 -18 5 -38 5 -45 1 -16
29 -43 45 -43 43 0 68 72 40 117 -18 29 -18 33 6 33 20 0 60 33 60 49 0 5 -6
16 -14 24 -9 8 -12 24 -9 36 6 25 -2 27 -23 6 -9 -8 -24 -15 -35 -15 -10 0
-19 7 -19 15 0 8 -5 15 -11 15 -7 0 -9 -9 -5 -24 4 -15 0 -28 -9 -36 -13 -11
-15 -8 -15 20 0 22 8 40 26 57 26 24 44 23 44 -3 0 -28 18 -13 23 19 5 36 0
48 -13 27 -6 -10 -12 -11 -22 -3 -7 6 -19 8 -25 6z m82 -133 c7 -21 0 -40 -16
-40 -5 0 -9 7 -9 15 0 8 -4 15 -10 15 -5 0 -10 7 -10 15 0 22 38 18 45 -5z
m-45 -30 c0 -5 -4 -10 -10 -10 -5 0 -10 5 -10 10 0 6 5 10 10 10 6 0 10 -4 10
-10z m-5 -117 c-2 -35 -5 -38 -31 -38 -27 0 -29 2 -30 45 -1 30 4 49 15 56 24
18 49 -16 46 -63z"/>
</g>
<g>
<path d="M440 4231 c0 -6 4 -13 10 -16 6 -3 7 1 4 9 -7 18 -14 21 -14 7z"/>
</g>
<g>
<path d="M2722 4058 c2 -12 9 -23 16 -26 11 -3 12 0 3 16 -6 10 -7 22 -4 26 3
3 1 6 -6 6 -7 0 -11 -9 -9 -22z"/>
</g>
<g>
<path d="M240 4024 c0 -8 5 -12 10 -9 6 4 8 11 5 16 -9 14 -15 11 -15 -7z"/>
</g>
<g>
<path d="M2820 4012 c0 -16 25 -62 37 -66 20 -8 23 8 8 37 -7 14 -11 28 -7 31
3 3 -4 6 -16 6 -12 0 -22 -4 -22 -8z"/>
</g>
<g>
<path d="M2720 3970 c-7 -22 -18 -40 -23 -40 -6 0 -7 -3 -4 -7 12 -11 57 39
57 64 0 36 -15 27 -30 -17z"/>
</g>
<g>
<path d="M2676 3984 c-9 -24 -2 -26 12 -4 7 11 8 20 3 20 -5 0 -12 -7 -15 -16z"/>
</g>
<g>
<path d="M2824 3839 c-4 -7 -7 -29 -6 -49 3 -34 2 -34 -13 -13 -8 12 -12 28
-9 37 4 10 1 16 -9 16 -19 0 -31 -30 -17 -44 17 -17 12 -63 -7 -71 -16 -6 -16
-8 -2 -18 19 -14 44 -58 41 -71 -2 -4 2 -14 7 -20 8 -9 0 -19 -29 -37 -48 -29
-52 -64 -8 -64 23 1 27 -4 32 -37 4 -21 10 -38 15 -38 5 0 7 14 5 30 -5 29 8
41 21 20 9 -14 25 -2 25 18 0 12 -3 13 -11 5 -8 -8 -16 -6 -30 8 -14 14 -27
17 -46 13 -18 -5 -24 -4 -19 5 4 6 13 11 20 11 8 0 16 9 19 20 3 13 10 18 21
14 18 -7 20 4 6 40 -9 24 -8 25 11 13 17 -10 22 -9 35 8 9 12 12 30 8 48 -4
21 -1 32 12 41 12 10 14 15 5 20 -7 5 -20 1 -30 -8 -20 -18 -47 -21 -56 -6 -3
6 2 10 12 10 16 0 18 8 17 51 -2 54 -8 68 -20 48z m-27 -141 c-3 -8 -6 -5 -6
6 -1 11 2 17 5 13 3 -3 4 -12 1 -19z m43 0 c0 -21 -18 -43 -27 -34 -4 5 -3 11
4 13 7 2 9 11 6 19 -3 8 0 14 6 14 6 0 11 -6 11 -12z"/>
</g>
<g>
<path d="M2765 3639 c-4 -6 -5 -13 -2 -16 7 -7 27 6 27 18 0 12 -17 12 -25 -2z"/>
</g>
<g>
<path d="M2840 3530 c0 -5 5 -10 10 -10 6 0 10 5 10 10 0 6 -4 10 -10 10 -5 0
-10 -4 -10 -10z"/>
</g>
<g>
<path d="M2767 3458 c-7 -19 19 -58 39 -58 19 0 18 16 -1 24 -9 3 -19 15 -24
27 -6 18 -9 19 -14 7z"/>
</g>
<g>
<path d="M2850 3410 c0 -5 5 -10 10 -10 6 0 10 5 10 10 0 6 -4 10 -10 10 -5 0
-10 -4 -10 -10z"/>
</g>
<g>
<path d="M2994 2665 c0 -60 1 -84 3 -52 2 32 2 81 0 110 -2 29 -3 3 -3 -58z"/>
</g>
<g>
<path d="M22 1920 c0 -19 2 -27 5 -17 2 9 2 25 0 35 -3 9 -5 1 -5 -18z"/>
</g>
<g>
<path d="M71 1934 c0 -11 3 -14 6 -6 3 7 2 16 -1 19 -3 4 -6 -2 -5 -13z"/>
</g>
<g>
<path d="M152 1905 c0 -16 2 -22 5 -12 2 9 2 23 0 30 -3 6 -5 -1 -5 -18z"/>
</g>
<g>
<path d="M177 1924 c-4 -4 -7 -18 -7 -31 0 -17 5 -24 17 -21 9 2 18 8 20 13 5
15 -21 48 -30 39z"/>
</g>
<g>
<path d="M95 1907 c-4 -10 -5 -21 -1 -24 10 -10 18 4 13 24 -4 17 -4 17 -12 0z"/>
</g>
<g>
<path d="M270 1895 c-7 -8 -9 -15 -5 -15 4 0 1 -8 -6 -17 -12 -15 -12 -16 1
-8 8 6 19 10 24 10 12 0 17 33 6 40 -4 3 -13 -2 -20 -10z m17 -10 c0 -8 -4
-12 -9 -9 -5 3 -6 10 -3 15 9 13 12 11 12 -6z"/>
</g>
<g>
<path d="M122 1865 c0 -16 2 -22 5 -12 2 9 2 23 0 30 -3 6 -5 -1 -5 -18z"/>
</g>
<g>
<path d="M71 1844 c0 -11 3 -14 6 -6 3 7 2 16 -1 19 -3 4 -6 -2 -5 -13z"/>
</g>
<g>
<path d="M410 1641 c0 -16 -3 -37 -7 -47 -4 -11 -2 -15 7 -12 14 4 22 76 8 84
-4 3 -8 -8 -8 -25z"/>
</g>
<g>
<path d="M71 1614 c0 -11 3 -14 6 -6 3 7 2 16 -1 19 -3 4 -6 -2 -5 -13z"/>
</g>
<g>
<path d="M151 1584 c0 -11 3 -14 6 -6 3 7 2 16 -1 19 -3 4 -6 -2 -5 -13z"/>
</g>
<g>
<path d="M103 1575 c0 -8 4 -12 9 -9 5 3 6 10 3 15 -9 13 -12 11 -12 -6z"/>
</g>
<g>
<path d="M717 1573 c-4 -3 -7 -11 -7 -17 0 -6 5 -5 12 2 6 6 9 14 7 17 -3 3
-9 2 -12 -2z"/>
</g>
<g>
<path d="M220 1265 c13 -14 26 -23 28 -20 7 7 -29 45 -41 45 -6 0 0 -11 13
-25z"/>
</g>
<g>
<path d="M340 1224 c0 -3 11 -15 25 -26 28 -22 35 -77 12 -96 -29 -25 -64 -31
-92 -16 -29 15 -52 10 -37 -9 4 -7 9 -24 10 -39 2 -31 -29 -58 -65 -58 -25 0
-29 10 -11 28 20 20 4 21 -21 1 -18 -15 -21 -22 -12 -33 17 -20 55 -25 77 -9
23 17 34 17 34 -2 0 -23 28 -30 49 -11 10 9 25 14 33 11 9 -4 18 1 21 9 4 10
1 16 -8 16 -8 0 -15 5 -15 11 0 6 9 8 20 4 24 -8 26 2 4 26 -21 23 -10 43 16
29 24 -13 65 2 80 30 15 29 3 130 -16 130 -8 0 -14 -6 -14 -14 0 -27 -22 -28
-49 -2 -26 25 -41 32 -41 20z m108 -116 c-8 -22 -17 -28 -40 -28 -25 0 -27 2
-18 19 5 11 10 27 10 35 0 8 10 26 23 38 l22 23 7 -30 c4 -17 3 -42 -4 -57z
m-132 -78 c0 -14 3 -30 7 -36 3 -6 -4 -16 -17 -22 -20 -9 -25 -8 -30 5 -4 8
-2 21 4 28 8 9 8 15 0 20 -20 12 -11 37 13 33 16 -2 22 -10 23 -28z"/>
</g>
<g>
<path d="M229 1193 c22 -32 40 -48 45 -42 2 2 -13 20 -32 39 l-36 35 23 -32z"/>
</g>
<g>
<path d="M305 1174 c13 -20 14 -28 4 -40 -7 -8 -7 -14 -1 -14 5 0 13 7 16 16
9 24 -4 64 -21 64 -13 0 -13 -4 2 -26z"/>
</g>
<g>
<path d="M2330 1165 c-11 -13 -9 -15 9 -12 12 2 27 9 33 15 9 9 7 12 -9 12
-11 0 -26 -7 -33 -15z"/>
</g>
<g>
<path d="M497 1112 c-3 -4 -3 -19 0 -33 9 -46 86 -67 99 -27 5 17 0 27 -22 45
-28 22 -68 30 -77 15z m66 -22 c23 -28 21 -40 -7 -40 -28 0 -51 24 -42 45 8
21 28 19 49 -5z"/>
</g>
<g>
<path d="M2772 1108 c-14 -14 -16 -28 -2 -28 5 0 14 9 20 20 12 22 1 27 -18 8z"/>
</g>
<g>
<path d="M20 1100 c0 -5 5 -10 10 -10 6 0 10 5 10 10 0 6 -4 10 -10 10 -5 0
-10 -4 -10 -10z"/>
</g>
<g>
<path d="M2830 1100 c0 -5 5 -10 10 -10 6 0 10 5 10 10 0 6 -4 10 -10 10 -5 0
-10 -4 -10 -10z"/>
</g>
<g>
<path d="M2802 1071 c-21 -6 -22 -8 -8 -26 13 -17 15 -17 16 -3 0 9 6 18 13
21 21 7 3 14 -21 8z"/>
</g>
<g>
<path d="M2462 968 c-7 -7 -12 -16 -12 -22 0 -5 6 -2 13 8 13 18 14 18 21 1 3
-10 1 -24 -5 -31 -8 -10 -8 -14 -1 -14 20 0 35 40 21 56 -14 17 -21 18 -37 2z"/>
</g>
<g>
<path d="M520 950 c0 -5 5 -10 10 -10 6 0 10 5 10 10 0 6 -4 10 -10 10 -5 0
-10 -4 -10 -10z"/>
</g>
<g>
<path d="M2310 880 c-9 -6 -10 -10 -3 -10 6 0 15 5 18 10 8 12 4 12 -15 0z"/>
</g>
<g>
<path d="M2890 880 c0 -5 4 -10 9 -10 6 0 13 5 16 10 3 6 -1 10 -9 10 -9 0
-16 -4 -16 -10z"/>
</g>
<g>
<path d="M2341 764 c0 -11 3 -14 6 -6 3 7 2 16 -1 19 -3 4 -6 -2 -5 -13z"/>
</g>
<g>
<path d="M2410 710 c0 -5 7 -7 15 -4 8 4 15 8 15 10 0 2 -7 4 -15 4 -8 0 -15
-4 -15 -10z"/>
</g>
<g>
<path d="M254 305 c-8 -21 6 -39 19 -26 6 6 19 11 29 11 16 0 18 -9 18 -73 0
-43 -5 -78 -12 -85 -9 -9 -3 -12 30 -12 40 0 54 11 32 25 -11 7 -13 87 -4 123
8 27 50 31 57 5 4 -17 4 -17 12 0 14 33 -11 45 -96 45 -60 1 -81 -3 -85 -13z"/>
</g>
<g>
<path d="M457 313 c-2 -5 -2 -23 -1 -40 1 -18 2 -60 3 -93 1 -57 2 -60 26 -60
23 0 25 4 25 45 0 43 1 45 29 45 28 0 30 -3 33 -42 3 -39 6 -43 32 -46 26 -3
28 -1 23 20 -4 13 -7 58 -7 101 l0 78 -27 -3 c-26 -3 -28 -6 -25 -40 3 -36 2
-38 -27 -38 -29 0 -31 2 -31 40 0 36 -3 40 -24 40 -14 0 -27 -3 -29 -7z"/>
</g>
<g>
<path d="M658 218 c-2 -57 -3 -103 -3 -103 0 -1 26 1 58 3 61 4 75 16 62 49
-6 16 -8 15 -25 -7 -15 -20 -20 -22 -34 -11 -21 17 -22 65 -1 58 8 -4 17 -2
20 3 9 14 -7 41 -21 36 -10 -4 -14 2 -14 18 0 31 40 44 47 15 8 -29 25 -23 21
9 -3 25 -7 27 -55 30 l-52 3 -3 -103z"/>
</g>
<g>
<path d="M900 306 c0 -8 6 -16 13 -19 8 -3 11 -25 9 -76 -3 -62 -6 -71 -23
-71 -10 0 -19 -4 -19 -10 0 -5 23 -10 50 -10 28 0 50 5 50 10 0 6 -7 10 -15
10 -12 0 -15 13 -15 60 0 33 2 60 4 60 2 0 25 -31 52 -70 26 -38 51 -70 55
-70 11 0 35 42 43 75 l8 30 9 -24 c6 -14 7 -37 4 -53 -6 -27 -5 -28 34 -28 44
0 53 13 21 32 -17 11 -20 24 -20 75 0 34 5 65 10 68 16 10 1 25 -23 25 -18 0
-27 -12 -44 -59 -13 -32 -23 -63 -23 -70 0 -27 -23 -6 -65 59 -42 65 -47 70
-80 70 -23 0 -35 -5 -35 -14z"/>
</g>
<g>
<path d="M1243 306 c-3 -4 0 -12 7 -16 11 -7 11 -20 0 -72 -7 -34 -17 -67 -21
-72 -16 -18 -9 -26 21 -26 29 0 40 13 20 25 -14 9 -12 21 6 39 25 26 44 18 62
-24 14 -33 22 -40 45 -40 15 0 27 2 27 4 0 3 -18 40 -40 84 -23 44 -39 85 -38
92 3 14 -81 20 -89 6z m67 -73 c0 -7 -7 -13 -15 -13 -15 0 -21 31 -8 43 8 8
23 -12 23 -30z"/>
</g>
<g>
<path d="M1472 304 c-63 -28 -78 -127 -25 -162 14 -8 49 -17 79 -19 l54 -4 0
40 c0 34 -3 40 -26 45 -15 4 -32 2 -38 -4 -8 -8 -4 -12 12 -16 25 -7 30 -24 6
-24 -39 0 -54 19 -54 70 0 28 4 50 9 50 5 0 16 3 24 6 9 3 16 -3 20 -15 6 -26
23 -27 36 -2 20 37 -43 59 -97 35z"/>
</g>
<g>
<path d="M1621 298 c21 -17 29 -63 20 -121 -9 -52 5 -76 34 -59 13 7 17 26 17
98 l1 89 -44 3 c-37 2 -41 0 -28 -10z"/>
</g>
<g>
<path d="M1800 299 c-48 -15 -70 -44 -70 -95 0 -34 5 -47 27 -63 38 -30 66
-35 102 -17 39 21 40 30 1 22 -63 -12 -101 28 -86 89 8 33 48 43 82 20 29 -19
29 -19 38 18 4 18 2 27 -6 27 -7 0 -22 2 -33 4 -11 3 -36 0 -55 -5z"/>
</g>
<g>
<path d="M1927 303 c-4 -3 1 -12 12 -19 14 -11 19 -28 20 -85 2 -79 6 -92 27
-87 11 2 15 27 19 101 l4 97 -38 0 c-21 0 -41 -3 -44 -7z"/>
</g>
<g>
<path d="M2064 298 c-3 -4 2 -10 10 -15 12 -7 13 -16 6 -48 -5 -22 -10 -55
-10 -72 0 -23 -5 -33 -15 -33 -8 0 -15 -5 -15 -11 0 -6 12 -9 28 -7 25 3 27 6
24 41 -3 35 -2 37 27 37 24 0 34 -6 41 -25 5 -14 7 -32 4 -40 -5 -12 4 -15 45
-15 56 0 64 6 27 20 -24 9 -29 19 -57 122 l-13 46 -49 4 c-27 1 -51 0 -53 -4z
m66 -52 c0 -12 -3 -26 -6 -29 -13 -13 -21 3 -16 32 5 35 22 32 22 -3z"/>
</g>
<g>
<path d="M2265 299 c-4 -6 2 -13 14 -16 19 -5 21 -13 21 -79 0 -43 -4 -74 -10
-74 -5 0 -10 -4 -10 -10 0 -5 14 -10 30 -10 17 0 30 1 30 3 0 1 -4 17 -9 35
-6 18 -7 42 -2 54 7 20 8 20 23 -3 8 -13 18 -34 22 -45 9 -30 42 -58 61 -51
12 5 15 25 15 97 0 73 3 90 15 90 8 0 15 5 15 11 0 6 -7 8 -16 5 -9 -3 -22 -6
-30 -6 -11 0 -14 -15 -14 -62 0 -68 -4 -68 -45 7 -15 28 -32 53 -39 57 -17 11
-64 9 -71 -3z"/>
</g>
<g>
<path d="M2536 121 c-3 -5 0 -11 8 -14 15 -6 26 1 26 15 0 11 -27 10 -34 -1z"/>
</g>
</g>
</svg>
