<?xml version="1.0" standalone="no"?>
<!DOCTYPE svg PUBLIC "-//W3C//DTD SVG 20010904//EN"
 "http://www.w3.org/TR/2001/REC-SVG-20010904/DTD/svg10.dtd">
<svg version="1.0" xmlns="http://www.w3.org/2000/svg"
 width="300.000000pt" height="528.000000pt" viewBox="0 0 300.000000 528.000000"
 preserveAspectRatio="xMidYMid meet">
<metadata>
Created by potrace 1.15, written by Peter Selinger 2001-2017
</metadata>
<g transform="translate(0.000000,528.000000) scale(0.100000,-0.100000)"
fill="#000000" stroke="none">
<g>
<path d="M5 4363 c10 -1042 10 -1239 4 -2818 -3 -627 -3 -1231 -2 -1343 3
-184 5 -202 21 -202 16 0 17 9 10 113 -5 61 -7 145 -6 185 l3 74 950 3 c523 2
1190 1 1483 -3 l532 -7 0 1348 c0 789 -4 1345 -10 1342 -12 -7 -18 64 -25 280
-5 144 -10 184 -22 198 -14 15 -34 17 -150 16 -99 -1 -137 -5 -148 -15 -7 -8
-18 -14 -24 -14 -5 0 -24 -12 -41 -27 l-32 -27 6 -90 c6 -82 0 -247 -20 -623
-7 -121 -7 -123 -31 -123 -13 0 -34 11 -46 24 l-23 24 -53 -35 c-106 -71 -186
-87 -292 -57 -51 14 -63 15 -101 2 -31 -11 -77 -14 -168 -11 -125 4 -182 14
-210 38 -8 8 -27 16 -42 20 -15 4 -32 13 -39 21 -9 11 -17 9 -47 -16 -24 -20
-48 -30 -70 -30 -23 0 -40 -8 -58 -27 -32 -35 -12 -44 23 -12 l25 24 26 -30
c15 -17 41 -39 57 -49 36 -22 85 -67 85 -78 0 -4 -13 -5 -30 -2 -35 8 -73 -1
-93 -20 -7 -8 -34 -21 -58 -29 -42 -15 -45 -15 -62 6 -25 32 -31 64 -18 107
19 64 14 89 -26 131 -21 22 -45 39 -53 39 -20 0 -58 -46 -65 -81 -6 -25 -11
-29 -43 -31 -58 -2 -96 3 -109 14 -9 7 -18 6 -30 -3 -10 -8 -22 -17 -28 -22
-5 -4 -21 -16 -35 -26 -24 -19 -24 -20 -3 -14 12 3 34 16 49 30 23 21 30 23
57 14 16 -6 50 -11 73 -11 51 0 57 -13 14 -28 -16 -6 -37 -20 -47 -31 -9 -12
-23 -21 -29 -21 -6 0 -33 -12 -59 -26 -49 -28 -75 -69 -75 -118 0 -14 -5 -28
-12 -32 -21 -13 -125 -5 -175 15 -64 25 -152 99 -152 129 -1 23 -1 23 98 16
81 -5 104 -4 131 10 18 9 40 16 49 17 9 0 11 3 4 5 -7 3 -9 12 -6 20 4 11 -7
14 -53 14 -42 0 -75 8 -112 25 -57 26 -72 30 -72 17 0 -18 98 -56 160 -62 l65
-6 -41 -12 c-25 -7 -80 -10 -145 -8 -96 4 -104 6 -107 25 -3 15 2 21 16 21 11
0 25 6 31 14 9 11 4 13 -26 12 l-38 -1 -16 85 c-17 89 -39 444 -39 613 0 108
-5 122 -61 184 -22 24 -39 47 -39 53 0 17 -245 13 -280 -5 l-30 -15 -3 -178
c-2 -97 -4 3 -3 223 0 220 -3 709 -6 1087 l-7 687 37 4 c29 3 25 4 -17 5 l-54
2 8 -917z m2881 -839 l51 -6 8 -126 c5 -70 9 -161 10 -202 1 -41 9 -221 17
-400 9 -179 14 -327 12 -329 -2 -2 -21 2 -43 9 -38 12 -81 7 -81 -11 0 -5 -38
-9 -85 -9 l-85 0 0 109 c0 63 -4 112 -10 116 -6 4 -10 -26 -10 -83 0 -49 -3
-103 -6 -120 -7 -37 -36 -50 -70 -32 -19 11 -26 11 -39 0 -13 -11 -18 -10 -29
6 -14 18 -16 18 -58 -12 -23 -17 -68 -42 -99 -56 -61 -28 -159 -46 -159 -30 0
5 19 27 41 48 71 66 89 86 89 100 0 20 -12 23 -64 13 -27 -5 -51 -7 -54 -4
-14 13 31 53 71 63 24 7 50 18 57 27 7 8 19 15 26 15 8 0 14 4 14 10 0 5 10
14 22 21 18 10 24 8 37 -9 9 -12 29 -24 45 -28 27 -7 28 -8 24 -61 -5 -54 7
-83 17 -41 4 20 20 208 30 363 2 28 6 174 9 325 l4 275 31 24 c17 13 34 21 37
18 6 -6 8 -53 19 -480 5 -159 12 -282 16 -275 5 7 6 110 3 228 -11 475 -11
539 0 543 20 7 151 8 202 1z m-2549 -97 c4 -18 8 -81 7 -142 -2 -286 28 -759
49 -772 7 -4 8 9 3 38 -19 132 -45 869 -29 869 8 0 42 -42 57 -70 8 -16 16
-79 20 -170 15 -348 34 -574 51 -630 1 -3 6 -25 10 -49 4 -24 23 -66 42 -94
32 -48 37 -70 11 -50 -20 15 -97 35 -108 28 -13 -8 -40 55 -40 90 0 14 -4 25
-10 25 -10 0 -6 -34 11 -100 6 -24 5 -38 -4 -46 -30 -28 -139 -45 -152 -24 -3
6 -17 10 -31 10 -14 0 -36 11 -50 25 -20 20 -35 25 -79 25 l-53 0 -4 63 c-2
34 0 87 3 117 25 198 31 325 28 579 -4 335 -16 309 142 313 57 2 107 2 111 0
4 -1 11 -17 15 -35z m926 -807 c3 -11 1 -22 -3 -25 -9 -6 -6 -52 4 -63 4 -4
13 1 20 11 21 27 26 20 12 -15 -8 -18 -17 -51 -20 -74 -6 -34 -4 -44 17 -65
44 -44 60 -89 32 -89 -21 0 -19 -13 5 -35 11 -10 20 -29 20 -43 0 -14 10 -36
22 -49 18 -19 19 -23 5 -23 -9 0 -19 5 -22 11 -4 5 -18 14 -31 19 -15 6 -24
18 -24 30 0 11 -7 23 -15 26 -8 4 -15 12 -15 19 0 7 -7 19 -17 26 -15 13 -16
11 -11 -13 4 -19 1 -28 -8 -28 -8 0 -11 6 -8 15 9 21 -4 51 -16 39 -11 -11
-12 -35 -6 -116 3 -32 1 -57 -4 -55 -4 1 -8 -2 -8 -8 -1 -5 6 -9 15 -7 12 3
14 -2 10 -17 -6 -25 11 -28 27 -5 11 15 15 15 50 0 21 -9 61 -16 88 -16 51 0
101 -19 116 -45 7 -14 12 -14 45 0 20 8 45 15 55 15 11 0 25 7 32 15 15 18 94
21 88 4 -2 -6 -31 -22 -65 -34 -86 -33 -155 -84 -170 -126 -12 -35 -20 -37
-60 -17 -36 18 -29 52 17 85 58 41 49 58 -30 58 -36 1 -75 6 -87 13 -26 14
-43 15 -43 3 0 -5 20 -16 45 -24 34 -12 52 -13 75 -5 33 11 65 4 55 -12 -3 -6
-17 -7 -31 -4 -19 5 -23 3 -18 -10 7 -17 -11 -22 -21 -6 -9 15 -108 13 -102
-2 2 -8 18 -12 43 -10 47 3 73 -10 57 -30 -27 -35 -22 -46 33 -74 52 -26 57
-27 116 -16 49 9 67 9 92 -2 17 -8 39 -17 50 -20 11 -4 16 -12 12 -21 -3 -8
-1 -15 4 -15 6 0 10 5 10 10 0 6 5 10 10 10 6 0 10 -16 10 -37 0 -46 -42 -120
-72 -125 -12 -2 -23 -8 -25 -15 -3 -7 3 -9 17 -6 31 8 100 93 99 123 -1 53 7
65 45 71 28 4 39 2 46 -10 5 -9 10 -11 10 -6 0 6 9 -1 20 -15 15 -20 20 -21
20 -8 0 9 -4 20 -10 23 -15 9 -12 25 5 25 8 0 15 -6 15 -14 0 -7 7 -19 15 -26
8 -7 15 -28 15 -47 0 -20 4 -32 10 -28 15 9 12 47 -5 69 -19 25 -19 36 0 36 9
0 15 -9 15 -21 0 -12 8 -23 20 -26 13 -4 20 -14 21 -32 l1 -26 10 30 c8 21 8
30 0 33 -7 2 -12 10 -12 18 0 8 -4 14 -9 14 -5 0 -9 17 -9 37 0 21 -5 39 -11
41 -6 2 -11 10 -11 18 0 8 -4 14 -9 14 -5 0 -8 38 -7 85 1 47 -2 85 -6 85 -4
0 -8 9 -8 19 0 11 -4 23 -10 26 -5 3 -10 21 -10 38 0 76 -15 100 -100 155 -73
48 -97 72 -69 72 6 0 25 -11 43 -25 38 -29 71 -32 80 -9 9 23 -72 102 -113
110 -33 7 -43 24 -13 24 9 0 37 -6 62 -14 42 -13 49 -12 85 6 38 18 43 18 101
3 41 -11 71 -27 90 -46 35 -37 55 -37 97 1 25 21 45 30 68 29 32 0 33 -1 10
-10 -13 -5 -39 -23 -58 -39 -18 -17 -43 -30 -54 -30 -12 0 -19 -5 -17 -12 5
-15 68 -24 68 -10 0 5 12 12 27 15 l28 5 -33 -29 c-18 -16 -41 -29 -52 -29
-12 0 -23 -7 -27 -16 -7 -19 25 -84 44 -91 7 -3 10 -9 7 -14 -3 -5 9 -12 26
-15 17 -4 33 -10 36 -15 3 -5 -2 -6 -10 -3 -9 3 -16 1 -16 -5 0 -32 121 8 169
55 23 23 26 24 30 8 2 -10 -4 -23 -13 -29 -20 -15 -21 -25 -1 -25 8 0 15 -9
15 -19 0 -11 5 -23 10 -26 6 -4 10 17 10 54 0 35 4 61 10 61 6 0 8 11 6 25 -3
13 0 27 5 30 5 4 9 -2 9 -12 1 -17 2 -17 15 1 11 14 15 16 15 5 1 -20 15 6 24
43 5 21 3 26 -12 23 -10 -1 -17 -11 -16 -23 0 -17 -3 -19 -17 -12 -12 7 -21 5
-29 -5 -17 -20 -70 -20 -70 0 0 18 12 19 28 3 10 -10 14 -8 19 10 3 13 11 21
18 18 7 -2 15 5 18 16 4 14 11 19 21 15 9 -4 15 -1 13 5 -1 8 11 11 34 9 21
-1 40 2 43 8 5 7 15 7 34 0 15 -6 42 -7 62 -3 46 10 51 11 148 13 66 1 82 4
82 16 0 20 33 19 76 -1 54 -26 44 -41 -23 -33 -96 11 -214 4 -272 -15 -32 -11
-67 -16 -88 -13 -32 6 -36 3 -49 -28 -16 -40 -17 -45 -5 -45 5 0 12 10 16 23
3 12 9 17 11 10 3 -7 0 -22 -6 -34 -8 -14 -9 -24 -1 -32 10 -10 15 3 23 58 4
23 66 39 117 30 28 -5 33 -4 28 9 -4 10 -1 16 9 16 8 0 12 -5 8 -11 -4 -7 1
-9 12 -7 11 2 18 10 16 18 -2 11 19 12 114 6 65 -3 120 -9 123 -12 3 -3 -1 -9
-9 -15 -13 -8 -13 -10 0 -19 13 -8 13 -10 -1 -10 -9 0 -19 7 -23 15 -7 20 -63
19 -96 -1 -24 -15 -24 -15 15 -8 61 10 68 10 72 -2 2 -7 -11 -14 -29 -18 -58
-11 -168 -80 -168 -106 0 -6 11 -2 27 10 20 15 29 18 37 9 8 -8 7 -13 -1 -16
-7 -3 -13 -9 -13 -15 0 -7 4 -7 13 -1 17 14 53 24 115 32 61 8 71 -4 12 -14
-25 -4 -40 -12 -40 -21 0 -8 -11 -19 -25 -24 -27 -10 -110 -89 -102 -97 3 -2
15 0 27 7 11 6 29 8 40 5 24 -8 35 11 13 23 -23 14 -3 38 39 47 17 4 32 15 35
25 5 18 39 33 55 24 13 -9 9 -24 -7 -24 -18 0 -20 -16 -2 -23 9 -3 14 -32 16
-96 2 -77 0 -91 -13 -91 -9 0 -16 -4 -16 -10 0 -5 7 -10 15 -10 13 0 15 -20
15 -120 0 -124 -1 -128 -42 -121 -5 0 -8 -4 -8 -10 0 -6 9 -9 20 -6 11 3 18 1
15 -3 -3 -5 -1 -11 4 -14 12 -8 12 -134 -1 -142 -5 -3 -4 -12 3 -20 9 -11 6
-22 -17 -54 -46 -64 -53 -81 -67 -171 -14 -78 -15 -81 -16 -33 0 29 -8 58 -17
70 -14 18 -15 15 -8 -31 12 -86 12 -276 0 -272 -7 2 -11 49 -11 135 0 73 -1
132 -3 132 -9 0 -32 -30 -32 -42 0 -24 -30 -57 -45 -51 -11 3 -13 1 -9 -10 3
-8 -2 -29 -10 -46 -9 -17 -19 -51 -23 -76 -5 -39 -9 -45 -24 -40 -11 4 -19 2
-19 -5 0 -7 9 -14 20 -17 11 -3 20 -12 20 -19 0 -19 26 -18 34 2 9 24 26 6 26
-27 0 -34 -5 -35 -47 -9 -18 11 -33 17 -33 15 0 -3 -10 0 -22 7 -13 7 -26 11
-30 10 -5 -1 -8 5 -8 13 0 8 5 15 10 15 6 0 10 5 10 11 0 6 -9 8 -20 4 -15 -5
-22 -1 -29 17 l-8 23 -7 -23 c-9 -26 -21 -28 -34 -6 -5 9 -21 17 -36 17 -18 1
-29 9 -32 22 -3 13 -13 20 -29 20 -12 0 -21 -3 -18 -7 2 -5 9 -8 15 -8 11 0
37 -29 38 -42 0 -5 -8 -8 -17 -9 -10 0 9 -6 41 -13 94 -21 117 -66 54 -110
-26 -19 -128 -22 -145 -5 -6 6 -9 18 -6 25 3 8 -2 17 -11 20 -29 11 -19 52 17
69 l32 15 -30 -6 c-16 -3 -31 -9 -33 -13 -11 -31 -29 -42 -52 -33 -35 13 -89
-4 -99 -31 -10 -26 -4 -40 14 -33 8 3 20 -6 29 -18 14 -22 13 -25 -3 -40 -15
-13 -26 -15 -52 -9 -18 5 -35 15 -37 22 -3 9 0 11 8 6 9 -5 11 -4 6 4 -4 6 -2
18 4 26 10 12 9 15 -4 15 -9 0 -16 -4 -16 -10 0 -5 -6 -10 -12 -10 -7 0 -25
-6 -39 -13 -14 -8 -56 -17 -93 -21 -113 -11 -149 31 -80 93 30 27 43 33 87 34
29 0 59 -3 67 -8 8 -5 24 -11 35 -12 11 -2 26 -11 33 -20 10 -15 12 -15 12 -1
0 8 3 37 6 64 4 36 3 45 -5 34 -6 -8 -11 -25 -11 -37 0 -26 -14 -36 -39 -28
-27 8 -32 41 -9 61 13 12 17 26 13 41 -4 16 4 32 26 58 36 41 41 42 80 14 31
-22 41 -69 14 -69 -8 0 -15 -4 -15 -10 0 -13 13 -13 27 1 6 6 38 15 70 19 l58
9 -52 -2 c-47 -2 -53 0 -58 22 -7 28 -43 60 -68 61 -49 1 -97 -52 -97 -106 0
-17 -8 -27 -27 -35 -18 -6 -28 -6 -33 0 -3 6 -17 0 -32 -14 -15 -14 -34 -25
-42 -25 -8 0 -16 -5 -18 -11 -4 -12 -80 -15 -97 -5 -5 3 -7 15 -4 26 4 15 0
20 -16 20 -12 0 -20 -4 -17 -9 3 -5 -1 -11 -9 -14 -8 -4 -16 2 -20 14 -7 22
-21 25 -29 7 -5 -10 -7 -10 -12 0 -8 17 -24 15 -24 -3 0 -8 -4 -15 -8 -15 -13
0 2 96 18 115 9 11 10 19 3 26 -13 13 -43 -42 -43 -78 0 -12 -4 -23 -10 -23
-5 0 -10 12 -10 26 0 22 -2 24 -14 14 -8 -6 -17 -21 -19 -33 -4 -18 -5 -17 -6
5 -1 21 -5 26 -17 21 -13 -5 -15 1 -14 33 3 57 1 61 -15 40 -12 -16 -15 -17
-15 -4 0 29 12 48 30 48 23 0 52 28 44 41 -3 6 -12 2 -20 -8 -13 -16 -14 -16
-8 0 9 25 -13 21 -27 -5 -16 -29 -35 -48 -48 -48 -6 0 -11 -5 -11 -11 0 -5 5
-7 10 -4 6 4 10 -17 10 -54 0 -37 -4 -61 -11 -61 -7 0 -8 -11 -4 -30 7 -32 -8
-41 -23 -14 -11 20 3 110 20 132 10 12 10 14 0 8 -7 -4 -15 0 -19 11 -4 10
-13 24 -20 31 -7 7 -13 28 -13 47 0 39 -25 72 -62 81 -23 5 -28 3 -28 -13 0
-10 -5 -24 -11 -30 -15 -15 5 -69 27 -77 13 -5 13 -10 -1 -35 -8 -17 -15 -41
-15 -55 0 -14 -5 -37 -10 -51 -9 -22 -15 -26 -35 -21 -14 4 -25 2 -25 -4 0 -5
5 -10 10 -10 6 0 10 -7 10 -15 0 -8 -3 -15 -8 -15 -15 0 -33 42 -27 63 4 12 3
17 -2 12 -7 -9 -21 -11 -45 -7 -4 1 6 24 22 51 31 50 38 85 19 97 -11 6 -8 35
7 83 5 18 4 22 -5 17 -23 -15 -31 -55 -20 -101 12 -47 0 -85 -26 -85 -19 0
-19 10 -1 24 16 12 11 66 -6 66 -6 0 -7 -11 -4 -24 4 -16 1 -26 -9 -30 -11 -4
-14 -13 -9 -31 4 -15 2 -25 -5 -25 -6 0 -11 10 -11 23 0 13 -9 33 -20 45 l-20
21 24 17 c30 19 50 75 43 113 -3 16 -1 33 6 40 10 10 5 15 -8 9 -11 -7 -86 79
-96 109 -6 18 -15 33 -20 33 -24 0 9 -74 51 -115 l30 -28 -51 -18 c-61 -22
-79 -35 -79 -60 0 -20 -47 -49 -67 -42 -8 3 -13 -3 -13 -14 0 -10 -7 -26 -15
-37 -20 -26 -20 -182 0 -190 8 -3 15 -12 15 -21 0 -8 9 -15 20 -15 11 0 20 -7
20 -15 0 -19 -9 -19 -53 0 -27 11 -37 12 -40 2 -4 -9 -8 -8 -17 3 -9 12 -10 9
-5 -13 4 -19 2 -28 -5 -25 -6 2 -12 8 -12 13 0 6 -4 15 -9 21 -24 29 16 51 51
29 6 -3 10 3 10 14 0 15 -5 19 -16 14 -13 -5 -15 1 -14 28 3 49 2 53 -15 39
-13 -11 -14 -10 -10 2 4 9 -1 18 -10 22 -9 3 -18 -1 -22 -10 -5 -12 -7 -13
-14 -3 -4 8 -11 10 -15 7 -4 -4 0 -18 9 -31 12 -19 15 -44 12 -111 -4 -82 -3
-86 16 -86 14 0 19 -5 16 -14 -3 -8 1 -17 10 -20 12 -5 14 -1 10 14 -4 17 0
20 23 20 16 0 32 5 35 10 3 6 17 10 30 10 18 0 23 -4 19 -15 -4 -9 -16 -15
-28 -14 -41 4 -67 -1 -61 -11 4 -6 13 -9 20 -8 8 2 14 -1 14 -7 1 -5 -14 -10
-31 -11 -18 0 -49 -4 -68 -8 -32 -7 -33 -7 -16 7 15 11 16 16 6 22 -9 5 -20 0
-33 -16 -10 -13 -35 -31 -56 -41 -28 -13 -32 -18 -19 -23 9 -4 27 0 40 8 29
19 154 34 144 18 -4 -6 -19 -11 -33 -11 -30 0 -83 -35 -83 -55 0 -17 31 -35
59 -35 15 0 19 -6 18 -27 -2 -26 -7 -28 -87 -44 -152 -29 -162 -31 -156 -21 3
5 20 12 38 16 20 4 28 10 22 16 -6 6 -32 2 -73 -10 -34 -11 -70 -20 -78 -20
-23 0 -103 -53 -103 -67 0 -7 2 -13 5 -13 9 0 59 34 70 47 6 6 30 14 55 17 34
4 39 3 23 -4 -13 -5 -23 -14 -23 -20 0 -10 31 -6 78 11 13 5 33 9 45 9 20 0
20 0 1 -15 -18 -15 -16 -16 21 -11 63 9 134 11 140 4 3 -3 -27 -9 -66 -12 -39
-4 -81 -13 -93 -19 -40 -23 -66 -51 -66 -72 0 -23 -40 -58 -77 -67 -19 -5 -23
-2 -23 19 0 30 -24 26 -28 -4 -2 -17 -10 -21 -38 -21 -27 0 -34 3 -30 17 2 9
7 26 11 38 3 12 27 41 52 63 49 43 52 65 6 35 -52 -33 -83 -68 -83 -94 -1 -51
-14 -56 -157 -57 -127 0 -132 1 -116 18 9 10 21 18 26 18 5 0 40 30 77 66 37
36 79 73 93 82 13 10 37 26 52 37 18 12 86 30 189 50 146 28 161 33 164 53 6
41 -32 47 -184 29 -125 -14 -155 -21 -143 -31 2 -1 67 3 143 10 104 10 143 11
153 2 19 -16 -1 -28 -47 -28 -90 0 -284 -54 -310 -85 -7 -8 -18 -15 -25 -15
-7 0 -44 -31 -84 -70 -39 -38 -76 -70 -81 -70 -6 0 -24 -14 -42 -30 -17 -17
-40 -31 -52 -31 -12 -1 -40 -3 -63 -4 -38 -3 -43 -1 -43 18 1 12 11 40 24 62
22 39 25 40 87 46 64 7 125 24 144 40 5 5 15 9 22 9 7 0 34 16 60 37 44 33 45
36 18 29 -16 -4 -39 -16 -51 -27 -11 -10 -27 -19 -35 -19 -8 0 -19 -4 -24 -9
-18 -17 -134 -51 -173 -51 -21 0 -43 -5 -50 -12 -6 -6 -14 -9 -18 -6 -9 10 15
48 32 48 8 0 40 14 71 30 31 17 63 30 71 30 12 0 13 3 5 11 -8 8 -30 1 -82
-26 -39 -21 -77 -35 -86 -31 -9 3 -15 18 -15 41 0 28 4 35 19 35 11 0 23 5 26
10 3 6 19 10 36 10 16 0 29 5 29 10 0 6 -15 10 -34 10 -19 0 -38 -4 -41 -10
-11 -17 -35 -11 -35 9 0 12 9 21 25 25 14 4 25 11 25 17 0 7 -10 9 -25 5 -20
-5 -25 -3 -25 11 0 16 11 18 105 18 58 0 105 -3 105 -7 0 -4 -27 -10 -60 -14
-54 -6 -80 -17 -68 -29 2 -3 29 0 59 5 29 6 71 13 92 16 22 4 37 12 37 20 0
16 16 19 25 4 4 -6 11 -8 16 -4 6 4 6 11 -2 20 -8 10 -9 17 0 28 9 11 17 11
46 -3 20 -9 34 -23 35 -34 0 -11 6 -17 13 -14 6 2 11 11 9 21 -2 9 4 16 13 16
8 0 15 -7 15 -15 0 -9 9 -15 25 -15 25 0 26 2 29 64 2 29 36 30 36 1 0 -13 -6
-25 -12 -28 -10 -3 -10 -7 1 -20 17 -21 61 -23 61 -2 0 8 7 15 15 15 9 0 15
10 16 28 1 26 1 26 10 -5 9 -30 29 -46 29 -23 0 6 21 10 46 10 45 0 46 0 39
27 -4 16 -8 50 -9 77 0 27 -6 51 -12 53 -7 2 -9 -8 -6 -27 3 -24 1 -30 -13
-30 -14 0 -15 3 -5 15 12 14 6 35 -10 35 -5 0 -11 -8 -13 -17 -3 -10 -5 -3 -6
15 -1 23 3 32 12 29 13 -5 67 23 67 35 0 4 -9 8 -21 8 -11 0 -18 4 -14 9 3 5
1 12 -5 16 -5 3 -10 1 -10 -4 0 -6 -5 -11 -11 -11 -6 0 -8 7 -5 17 4 9 1 20
-6 24 -9 6 -7 13 10 27 26 23 15 37 -34 44 -24 3 -35 -1 -44 -15 -9 -15 -9
-21 0 -27 7 -4 9 -13 5 -20 -6 -9 -9 -9 -16 1 -4 7 -11 10 -16 6 -4 -4 -2 -16
5 -27 8 -14 9 -27 0 -50 -6 -18 -8 -54 -5 -81 4 -28 2 -49 -3 -49 -6 0 -11 10
-12 23 -3 43 -4 52 -12 74 -4 11 -13 24 -21 27 -8 3 -15 12 -15 21 0 8 -5 15
-12 15 -6 0 -19 7 -29 16 -16 15 -19 14 -31 -5 -7 -12 -20 -21 -28 -21 -10 0
-7 -6 9 -19 26 -20 36 -61 15 -61 -8 0 -11 6 -8 15 4 10 0 15 -10 15 -9 0 -19
-7 -22 -15 -4 -8 -10 -15 -15 -15 -11 0 -11 117 0 144 10 27 -17 82 -33 66 -8
-8 -7 -13 4 -20 12 -8 13 -13 3 -27 -21 -30 -39 -76 -47 -117 -9 -50 -26 -30
-25 29 1 56 8 75 27 75 12 0 13 3 4 12 -16 16 -15 43 4 79 19 37 13 46 -21 31
-47 -22 -96 -109 -119 -215 -4 -18 -13 -27 -26 -27 -11 0 -20 -4 -20 -9 0 -6
-9 -9 -20 -8 -20 1 -30 37 -10 37 6 0 10 5 10 10 0 6 -13 10 -30 10 -21 0 -28
-4 -24 -14 3 -8 1 -17 -5 -21 -16 -9 -13 -25 4 -25 9 0 15 -9 15 -25 0 -14 -4
-25 -10 -25 -5 0 -10 7 -10 15 0 24 -20 17 -30 -11 -6 -14 -10 -27 -10 -29 0
-1 30 -2 67 -1 38 0 80 -2 95 -7 25 -7 47 -42 34 -54 -3 -4 -38 -7 -76 -7 -73
-1 -98 -15 -32 -18 33 -1 32 -2 -13 -7 -89 -11 -84 -31 -82 338 l2 325 35 9
c19 5 41 13 47 19 7 6 20 8 28 4 8 -3 15 -1 15 3 0 15 -32 22 -46 10 -8 -6
-14 -9 -14 -6 0 3 -15 1 -34 -3 l-34 -7 2 166 c1 164 1 166 24 169 12 2 22 8
22 13 0 6 -9 7 -20 4 -19 -6 -20 -2 -20 114 0 124 0 126 41 122 29 -3 128 37
161 64 29 25 36 26 91 20 33 -4 75 -14 93 -21 37 -16 64 -18 64 -6 0 13 -140
46 -196 46 -34 1 -58 -5 -70 -15 -25 -22 -77 -31 -136 -23 l-48 7 0 47 c0 44
2 49 34 64 41 19 60 20 78 3 35 -33 65 -42 128 -41 80 3 81 3 51 15 -13 5 -39
6 -58 3 -21 -4 -44 -2 -59 6 -31 17 -31 32 1 24 14 -3 33 -2 42 2 10 5 45 9
78 11 33 1 85 5 115 8 62 8 116 -11 179 -64 48 -39 34 -53 -31 -31 -81 28
-148 39 -198 31 -37 -6 -41 -8 -23 -15 12 -4 37 -4 55 -1 22 4 63 -3 121 -19
101 -30 123 -32 131 -11 9 23 54 18 105 -13 25 -16 60 -34 76 -40 27 -11 24
-11 -25 -6 -30 3 -89 7 -130 8 -41 2 -103 7 -137 11 -40 5 -63 4 -63 -2 0 -10
79 -22 175 -27 114 -6 255 -19 255 -24 0 -18 -57 -90 -79 -100 -14 -6 -35 -25
-46 -42 -11 -18 -32 -34 -47 -37 -16 -3 -28 -11 -28 -18 0 -6 -11 -18 -25 -25
-14 -7 -25 -17 -25 -22 0 -4 -16 -8 -35 -8 -22 0 -41 -8 -54 -22 -18 -19 -21
-19 -27 -4 -4 9 1 47 10 84 9 37 14 83 12 102 -3 19 -5 43 -5 53 -1 30 -48 69
-74 61 -33 -10 -38 -25 -17 -51 20 -26 17 -45 -21 -119 -10 -21 -19 -48 -19
-59 0 -31 34 -122 54 -144 16 -17 16 -26 5 -83 -15 -79 -22 -94 -56 -110 -32
-15 -42 -51 -46 -161 l-2 -72 53 -9 c44 -7 56 -6 69 7 19 18 10 67 -12 67 -23
0 -27 17 -12 52 18 43 44 64 87 73 19 4 48 16 63 27 29 20 57 18 57 -4 0 -14
43 -44 103 -72 31 -14 39 -25 49 -62 9 -34 21 -49 46 -65 31 -18 40 -19 89 -8
30 7 56 16 59 21 3 4 14 8 25 8 15 0 20 6 17 22 -2 12 -9 23 -17 26 -9 3 -11
-2 -6 -17 5 -17 2 -21 -17 -21 -13 -1 -41 -7 -62 -15 -36 -12 -43 -12 -77 6
-23 11 -37 26 -37 36 2 41 -21 69 -85 102 -37 20 -72 46 -81 63 -10 15 -21 28
-26 28 -5 0 -31 -14 -57 -30 -26 -16 -56 -30 -68 -30 -29 0 -71 -46 -90 -99
-20 -58 -20 -61 15 -61 30 0 40 -13 19 -25 -13 -9 -78 -9 -86 -1 -3 3 0 46 7
96 10 71 17 91 31 95 28 9 59 54 59 85 0 68 36 110 67 79 5 -5 24 -11 41 -11
26 -1 30 -4 22 -18 -12 -22 -1 -33 17 -18 11 9 19 9 33 0 14 -8 21 -8 26 -1
12 21 -40 54 -104 67 -67 14 -122 51 -122 83 0 10 -5 21 -10 24 -20 13 -11 97
16 142 15 27 26 62 27 88 2 35 5 41 15 32 10 -8 12 -25 8 -61 -23 -197 -23
-219 4 -246 16 -16 33 -20 79 -20 33 0 71 -4 85 -10 20 -7 26 -6 26 4 0 23
-45 39 -88 31 -25 -4 -42 -2 -47 5 -9 15 13 40 36 40 11 0 33 12 50 28 17 15
34 27 37 28 28 3 64 29 91 63 18 23 38 41 45 41 11 0 80 84 102 126 13 25 28
76 25 88 -1 5 5 16 12 25 25 28 30 58 11 65 -12 5 -26 -4 -46 -29 -30 -36 -52
-47 -42 -20 7 17 -11 21 -21 5 -3 -5 -12 -10 -18 -10 -7 1 3 13 21 29 34 29
42 47 16 37 -24 -9 -11 17 14 29 24 11 24 30 1 30 -26 0 -14 39 19 62 24 16
42 20 63 16 24 -5 30 -1 39 21 5 14 14 27 20 27 5 1 16 2 23 3 6 0 29 36 50
79 31 63 43 77 62 77 14 0 25 -7 28 -20z m278 4 c19 -8 41 -19 49 -25 43 -27
78 -33 224 -40 125 -5 165 -4 191 7 29 12 39 11 79 -2 26 -9 56 -14 66 -11 11
3 20 1 20 -4 0 -5 -12 -12 -27 -15 -16 -4 -43 -15 -60 -26 -18 -11 -38 -16
-45 -12 -6 4 -37 13 -67 19 -45 9 -66 9 -106 -3 -38 -11 -57 -11 -86 -3 -20 6
-50 11 -68 11 -26 0 -31 -4 -31 -25 0 -14 9 -30 20 -37 11 -7 20 -16 20 -20 0
-5 -9 -8 -20 -8 -23 0 -27 -29 -8 -48 7 -7 8 -12 2 -12 -13 0 -48 38 -99 107
-34 46 -75 75 -75 52 0 -5 -11 -3 -25 3 -19 9 -22 14 -13 20 8 6 5 7 -10 3
-37 -11 -38 20 0 54 18 17 33 31 34 31 0 0 16 -7 35 -16z m640 -123 c-22 -31
-85 -51 -103 -33 -11 11 12 27 67 48 51 20 58 17 36 -15z m-609 -8 c26 -32 59
-95 52 -102 -4 -3 -9 0 -11 7 -3 7 -20 35 -39 62 -33 47 -34 70 -2 33z m741 0
c8 -8 -60 -73 -76 -73 -6 0 2 14 18 30 16 17 25 30 19 30 -5 0 -2 5 6 10 18
12 24 12 33 3z m-576 -55 c-3 -8 -6 -5 -6 6 -1 11 2 17 5 13 3 -3 4 -12 1 -19z
m33 -7 c0 -6 -4 -13 -10 -16 -5 -3 -10 1 -10 9 0 9 5 16 10 16 6 0 10 -4 10
-9z m-224 -19 c11 -4 33 -17 49 -30 26 -21 27 -23 11 -40 -9 -10 -16 -25 -16
-34 0 -25 -13 -29 -27 -8 -8 12 -19 17 -26 13 -7 -4 -24 -6 -39 -4 -14 1 -40
-5 -57 -13 -16 -9 -41 -16 -53 -16 -21 0 -24 5 -25 39 -2 38 0 41 35 52 20 6
48 20 62 30 26 19 50 22 86 11z m-1385 -63 c9 -13 29 -22 57 -26 23 -3 42 -9
42 -14 0 -12 -31 -17 -132 -22 l-88 -5 0 34 c0 39 19 53 71 54 26 0 41 -6 50
-21z m375 -4 c12 -8 38 -17 59 -21 21 -4 63 -19 94 -35 36 -18 80 -31 123 -35
38 -4 68 -10 68 -14 0 -5 3 -16 7 -26 4 -11 3 -15 -5 -10 -6 3 -15 -1 -21 -11
-9 -17 -12 -16 -55 5 -26 12 -62 22 -80 22 -19 0 -58 13 -87 28 -30 16 -63 33
-74 39 -65 35 -72 36 -140 23 -36 -7 -69 -10 -72 -6 -4 3 1 6 10 6 10 0 36 13
58 30 44 31 70 32 115 5z m1174 -2 c37 -7 80 -30 80 -44 0 -5 -36 -6 -80 -2
-57 4 -80 3 -80 -6 0 -6 -7 -11 -15 -11 -21 0 -19 16 7 51 14 19 28 27 38 23
8 -3 31 -8 50 -11z m-775 -12 c-3 -6 -11 -11 -17 -11 -6 0 -6 6 2 15 14 17 26
13 15 -4z m1363 -52 c-42 -67 -82 -79 -120 -36 -15 17 -25 34 -22 38 2 4 -3 9
-11 13 -8 3 -15 10 -15 15 0 11 32 15 132 18 l66 2 -30 -50z m692 36 c0 -8 -5
-14 -11 -12 -6 1 -14 -4 -16 -10 -3 -8 3 -13 13 -13 11 0 14 -3 9 -9 -14 -13
-105 -20 -105 -9 0 6 -6 8 -12 5 -7 -3 -21 -8 -30 -12 -35 -14 -17 10 25 34
35 21 70 32 120 40 4 0 7 -6 7 -14z m-1462 -31 c26 -7 29 -30 5 -56 -15 -17
-15 -20 -1 -34 8 -8 40 -19 71 -23 64 -9 107 -33 107 -61 0 -26 -36 -27 -43 0
-3 11 -17 21 -33 25 -16 3 -52 12 -80 20 -28 8 -70 15 -94 15 -31 0 -50 6 -67
22 -29 27 -31 68 -4 68 10 0 34 7 52 15 38 16 54 18 87 9z m318 -22 c8 -7 14
-21 14 -30 0 -9 3 -33 6 -54 6 -33 4 -38 -24 -52 -37 -19 -42 -20 -42 -4 0 29
-47 78 -90 94 -43 16 -70 38 -70 56 0 15 191 5 206 -10z m-226 -17 c0 -16 9
-20 91 -49 31 -11 50 -25 58 -42 15 -34 5 -64 -20 -64 -16 0 -19 5 -14 19 10
31 -52 71 -120 78 -62 7 -74 16 -51 39 9 9 14 20 11 25 -4 5 5 9 19 9 17 0 26
-6 26 -15z m-342 -44 c3 -8 -1 -12 -9 -9 -7 2 -15 10 -17 17 -3 8 1 12 9 9 7
-2 15 -10 17 -17z m-303 -11 c-3 -5 -16 -10 -28 -10 -18 0 -19 2 -7 10 20 13
43 13 35 0z m362 -53 c39 -20 43 -20 61 -4 20 18 116 24 126 8 4 -5 29 -15 56
-22 54 -14 56 -16 37 -43 -12 -17 -20 -17 -93 -6 -43 6 -106 15 -139 19 -71 9
-125 28 -142 49 -30 37 19 37 94 -1z m-377 13 c0 -5 -9 -10 -19 -10 -11 0 -23
5 -26 10 -4 6 5 10 19 10 14 0 26 -4 26 -10z m-855 -29 c28 -7 26 -8 -17 -12
-34 -3 -48 -1 -48 8 0 14 17 15 65 4z m1769 -26 c4 -12 -3 -15 -29 -15 -40 0
-45 7 -12 20 31 12 34 12 41 -5z m16 -45 c0 -5 -4 -10 -10 -10 -5 0 -10 5 -10
10 0 6 5 10 10 10 6 0 10 -4 10 -10z m1 -59 c4 -3 10 -21 14 -40 l7 -34 -69 5
c-52 4 -78 11 -102 29 -25 18 -44 23 -86 23 -30 -1 -55 2 -55 6 0 14 48 20
102 14 29 -3 64 -1 78 5 25 10 99 5 111 -8z m-160 -67 c23 -22 36 -26 110 -28
46 -2 87 -4 92 -5 4 0 7 -13 7 -27 0 -25 -2 -26 -37 -21 -21 4 -68 1 -106 -5
-64 -10 -70 -10 -98 11 -27 20 -40 23 -115 19 -73 -3 -84 -1 -84 13 0 18 17
24 102 34 34 4 59 13 62 21 8 22 37 17 67 -12z m1255 -505 c-2 -24 -12 -48
-25 -60 -11 -11 -21 -25 -21 -32 0 -6 7 -1 16 11 21 30 34 28 34 -7 0 -21 -6
-30 -22 -34 -22 -6 -18 -22 5 -22 16 0 18 -83 2 -120 -7 -16 -18 -50 -25 -74
-8 -32 -14 -41 -23 -32 -8 8 -8 22 1 54 38 128 40 138 29 134 -6 -2 -17 -22
-25 -45 -7 -23 -18 -42 -24 -42 -6 0 -7 8 -3 18 4 9 9 33 12 52 3 19 10 41 16
48 6 8 6 12 -1 12 -5 0 -8 10 -4 22 3 13 1 19 -6 15 -15 -10 11 83 33 116 25
38 36 33 31 -14z m-1716 -114 c0 -16 -14 -39 -40 -64 -30 -29 -42 -51 -49 -86
-8 -43 -7 -50 15 -72 18 -18 21 -28 15 -45 -8 -21 -8 -21 -22 7 -9 19 -21 29
-32 27 -21 -4 -22 16 -2 42 21 27 19 36 -7 37 l-23 0 22 11 c14 7 23 21 25 42
2 18 8 30 16 29 6 -2 12 2 12 7 0 6 -5 10 -11 10 -5 0 -7 5 -4 10 4 6 15 8 26
5 11 -4 18 -3 17 2 -2 8 31 63 38 63 2 0 4 -11 4 -25z m-38 -129 c6 -14 7 -33
3 -43 -5 -10 -7 -24 -6 -30 1 -7 -5 -13 -14 -13 -12 0 -15 12 -15 55 0 58 13
71 32 31z m308 -27 c0 -5 -4 -9 -10 -9 -5 0 -10 7 -10 16 0 8 5 12 10 9 6 -3
10 -10 10 -16z m-840 -23 c0 -3 -4 -8 -10 -11 -5 -3 -10 -1 -10 4 0 6 5 11 10
11 6 0 10 -2 10 -4z m-29 -89 c-8 -8 -11 -7 -11 4 0 20 13 34 18 19 3 -7 -1
-17 -7 -23z m2316 -14 c-3 -10 -5 -2 -5 17 0 19 2 27 5 18 2 -10 2 -26 0 -35z
m-2040 15 c-3 -8 -6 -5 -6 6 -1 11 2 17 5 13 3 -3 4 -12 1 -19z m-417 -22 c0
-8 6 -17 13 -19 7 -3 5 -6 -5 -6 -10 -1 -18 5 -18 13 0 8 -6 17 -12 19 -8 3
-6 6 5 6 9 1 17 -5 17 -13z m190 -6 c0 -5 -7 -10 -15 -10 -8 0 -15 5 -15 10 0
6 7 10 15 10 8 0 15 -4 15 -10z m2127 -31 c-14 -23 -23 -24 -31 -3 -10 27 -7
31 18 27 22 -4 23 -8 13 -24z m-927 -19 c0 -11 -40 -44 -46 -37 -3 3 3 12 15
19 29 18 26 30 -6 24 -16 -2 -31 -5 -35 -5 -13 -2 -9 -31 4 -31 9 0 9 -3 0
-12 -9 -9 -16 -7 -32 7 l-20 18 21 23 c12 13 25 21 30 19 4 -3 10 -1 14 5 6
10 55 -16 55 -30z m-247 13 c-7 -2 -19 -2 -25 0 -7 3 -2 5 12 5 14 0 19 -2 13
-5z m692 -2 c3 -5 -4 -12 -15 -16 -11 -3 -20 -11 -20 -16 0 -13 9 -11 27 6 16
17 34 16 40 -2 6 -16 -26 -43 -50 -43 -12 0 -28 10 -36 22 -11 18 -11 22 3 30
9 5 14 13 11 19 -4 5 3 9 14 9 11 0 22 -4 26 -9z m-1823 -8 c-11 -4 -10 -8 2
-22 9 -10 13 -26 9 -39 -8 -31 -19 -27 -27 9 -9 49 -7 59 12 58 11 0 12 -2 4
-6z m1745 -8 c0 -8 -4 -12 -9 -9 -5 3 -6 10 -3 15 9 13 12 11 12 -6z m-2117
-5 c0 -5 -2 -10 -4 -10 -3 0 -8 5 -11 10 -3 6 -1 10 4 10 6 0 11 -4 11 -10z
m933 -11 c12 -7 26 -18 30 -25 4 -8 21 -14 36 -14 20 0 30 -6 34 -19 4 -17 1
-18 -32 -9 -20 5 -40 14 -45 19 -6 5 -18 9 -28 9 -12 0 -15 5 -11 16 5 14 1
16 -30 10 -37 -7 -54 8 -19 17 30 8 43 7 65 -4z m540 4 c-7 -2 -19 -2 -25 0
-7 3 -2 5 12 5 14 0 19 -2 13 -5z m-106 -18 c0 -18 -66 -79 -75 -70 -4 3 -2 9
4 13 5 4 20 22 33 40 24 35 38 41 38 17z m225 -5 c15 0 18 -5 13 -20 -5 -15
-2 -20 13 -20 11 0 22 6 25 13 3 9 7 9 19 -1 10 -8 32 -11 59 -8 24 3 36 3 27
0 -10 -3 -18 -10 -18 -15 0 -5 -36 -9 -80 -9 -78 0 -80 1 -80 24 0 13 -2 30
-3 38 -2 7 -2 10 0 6 3 -5 14 -8 25 -8z m1098 16 c0 -11 -19 -15 -25 -6 -3 5
1 10 9 10 9 0 16 -2 16 -4z m-1860 -10 c0 -3 -4 -8 -10 -11 -5 -3 -10 -1 -10
4 0 6 5 11 10 11 6 0 10 -2 10 -4z m-763 -12 c-3 -3 -12 -4 -19 -1 -8 3 -5 6
6 6 11 1 17 -2 13 -5z m463 -16 c0 -16 -3 -19 -11 -11 -6 6 -8 16 -5 22 11 17
16 13 16 -11z m983 8 c13 -1 23 -9 25 -20 3 -16 -1 -18 -35 -13 -48 6 -113 29
-113 40 0 4 23 5 51 1 28 -4 60 -7 72 -8z m1180 -7 c15 6 29 6 32 1 3 -4 23
-11 45 -15 79 -13 54 -26 -47 -25 -54 1 -125 -2 -158 -7 -60 -9 -60 -9 -30
-22 16 -6 45 -10 65 -7 47 8 212 -25 218 -43 4 -11 -2 -12 -24 -6 -65 16 -155
23 -196 13 -24 -5 -91 -10 -150 -11 -60 -1 -108 -6 -108 -11 0 -12 244 -8 277
5 21 8 67 4 178 -14 13 -3 21 -13 23 -29 3 -22 0 -24 -26 -20 -21 3 -31 -1
-36 -14 -10 -26 12 -43 28 -21 18 23 36 22 36 -3 0 -12 -9 -22 -23 -25 -35 -9
-130 -1 -134 11 -2 6 10 8 33 6 26 -3 35 -1 30 7 -4 6 -15 11 -24 12 -10 1 -7
4 8 8 36 10 33 42 -5 52 -16 5 -39 6 -52 3 -18 -5 -21 -11 -16 -35 5 -27 3
-29 -23 -29 -31 -1 -64 -20 -64 -39 0 -6 15 -11 33 -11 l32 0 -25 -13 c-36
-18 -32 -41 10 -48 l35 -6 -27 -11 c-16 -6 -28 -18 -28 -27 0 -22 -12 -19 -67
18 -83 56 -153 83 -153 58 0 -4 24 -16 54 -25 30 -10 56 -21 58 -25 2 -4 19
-19 39 -34 46 -34 94 -36 104 -4 l7 22 8 -25 c4 -14 8 -40 9 -57 2 -60 21 -34
21 27 l0 61 48 -5 c26 -2 62 -5 80 -5 17 -1 32 -6 32 -12 0 -7 -10 -9 -25 -5
-40 10 -52 -6 -14 -18 31 -10 34 -15 37 -55 l3 -44 -538 7 c-518 6 -539 7
-553 26 -17 22 -84 53 -94 43 -12 -12 -6 -19 29 -33 23 -9 32 -17 25 -24 -6
-6 -25 -1 -52 14 -40 21 -43 26 -40 55 4 34 -14 57 -24 31 -5 -13 -22 -16 -80
-16 -41 0 -74 2 -74 4 0 3 4 16 10 30 11 31 30 34 30 6 0 -15 7 -20 25 -20 28
0 29 3 15 31 -13 23 2 26 20 4 17 -21 37 -19 43 4 5 19 7 19 88 -5 46 -13 91
-24 99 -24 8 0 33 -9 55 -20 44 -21 55 -24 55 -12 0 18 -227 92 -281 92 -16 0
-19 5 -14 19 3 11 1 22 -5 26 -23 15 -8 27 28 21 110 -16 157 -18 145 -6 -6 7
-48 16 -93 21 -66 6 -86 12 -104 31 -59 61 -126 104 -172 110 l-29 4 35 18
c35 17 36 17 79 -7 25 -14 38 -28 32 -31 -19 -12 -12 -26 13 -26 17 0 26 -7
30 -25 7 -28 31 -33 40 -9 12 32 5 55 -26 83 l-32 29 104 -5 c81 -4 117 -10
155 -28 39 -18 75 -24 165 -28 66 -3 151 -15 199 -27 81 -20 179 -24 174 -6
-2 5 -24 9 -50 10 -27 1 -84 10 -128 19 -44 10 -135 22 -203 27 -77 6 -133 15
-150 25 -26 15 -25 16 33 10 33 -3 81 -8 107 -11 38 -5 49 -3 54 10 8 20 33
20 70 1 42 -21 76 -19 118 10 20 14 38 25 40 25 2 0 1 -11 -2 -25 -3 -16 -11
-25 -23 -25 -11 0 -19 -7 -19 -15 0 -11 10 -13 48 -8 27 3 88 0 136 -6 88 -12
210 -6 200 10 -3 5 -44 10 -92 10 -48 1 -79 3 -69 6 9 2 17 9 17 14 0 5 11 9
24 9 13 0 28 6 34 13 8 9 29 12 69 9 52 -4 61 -1 87 23 26 24 30 25 46 10 13
-12 23 -13 43 -6z m-2543 2 c0 -5 -7 -14 -16 -22 -13 -10 -17 -10 -24 1 -5 8
-6 18 -4 22 7 11 44 10 44 -1z m2400 -1 c0 -5 -7 -10 -15 -10 -8 0 -15 5 -15
10 0 6 7 10 15 10 8 0 15 -4 15 -10z m-281 -36 c6 4 9 12 6 17 -7 10 6 12 29
3 8 -3 12 -12 9 -20 -3 -8 1 -14 11 -14 9 0 16 -7 16 -16 0 -12 -6 -15 -22
-11 -13 3 -39 9 -59 12 -35 6 -38 12 -30 54 1 3 7 -3 14 -14 8 -10 19 -15 26
-11z m156 16 c-3 -5 -27 -10 -53 -10 -34 0 -43 3 -32 10 20 13 93 13 85 0z
m-2092 -37 c-6 -14 -8 -14 -14 3 -12 30 -10 37 5 24 8 -6 12 -19 9 -27z m87
27 c0 -5 -4 -10 -10 -10 -5 0 -10 5 -10 10 0 6 5 10 10 10 6 0 10 -4 10 -10z
m140 -25 c0 -8 -9 -15 -20 -15 -25 0 -26 17 -2 23 9 3 18 5 20 6 1 0 2 -6 2
-14z m-424 -12 c-4 -9 -1 -20 6 -24 17 -10 3 -23 -17 -16 -18 8 -20 43 -2 50
19 8 20 8 13 -10z m814 2 l25 -14 -27 -1 c-16 0 -31 0 -35 -1 -5 0 -9 7 -11
15 -4 20 15 20 48 1z m250 -5 c0 -5 -5 -10 -11 -10 -5 0 -7 5 -4 10 3 6 8 10
11 10 2 0 4 -4 4 -10z m1537 4 c-3 -3 -12 -4 -19 -1 -8 3 -5 6 6 6 11 1 17 -2
13 -5z m78 -4 c3 -5 -1 -10 -10 -10 -9 0 -13 5 -10 10 3 6 8 10 10 10 2 0 7
-4 10 -10z m-1906 -61 c-26 -37 -33 -41 -59 -31 l-22 8 26 31 c19 23 32 29 51
26 l25 -5 -21 -29z m159 30 c-2 -6 -7 -10 -11 -10 -4 1 -22 1 -39 1 -25 0 -29
3 -18 10 20 13 73 13 68 -1z m312 -14 c0 -8 -58 -35 -75 -35 -8 0 -15 9 -15
20 0 17 7 20 45 20 25 0 45 -2 45 -5z m-602 -27 c-2 -17 -10 -23 -27 -23 -32
0 -37 19 -9 33 34 16 40 14 36 -10z m427 12 c3 -5 1 -10 -4 -10 -6 0 -11 5
-11 10 0 6 2 10 4 10 3 0 8 -4 11 -10z m-40 -10 c3 -5 2 -10 -4 -10 -5 0 -13
5 -16 10 -3 6 -2 10 4 10 5 0 13 -4 16 -10z m-155 -29 c0 -5 -13 -12 -30 -16
-44 -10 -37 -27 8 -19 26 4 34 3 27 -4 -33 -35 -105 -4 -76 32 14 17 71 22 71
7z m194 -17 c9 -23 8 -24 -14 -24 -19 0 -27 20 -13 33 11 11 20 8 27 -9z m213
10 c-3 -3 -12 -4 -19 -1 -8 3 -5 6 6 6 11 1 17 -2 13 -5z m1278 -4 c3 -5 -3
-10 -15 -10 -12 0 -18 5 -15 10 3 6 10 10 15 10 5 0 12 -4 15 -10z m-1842 -6
c11 -11 -13 -44 -32 -44 -13 0 -18 7 -18 25 0 19 5 25 22 25 12 0 25 -3 28 -6z
m501 -23 c-14 -15 -76 -17 -81 -4 -3 8 11 13 39 15 49 3 56 2 42 -11z m141
-43 c4 -15 11 -30 16 -33 12 -8 11 -25 -1 -25 -6 0 -14 8 -17 17 -4 9 -22 30
-40 46 -42 37 -42 47 2 33 25 -8 36 -18 40 -38z m-571 23 c8 -13 -3 -38 -19
-45 -19 -7 -24 4 -14 32 9 23 24 29 33 13z m1716 -21 c0 -5 -4 -10 -10 -10 -5
0 -10 5 -10 10 0 6 5 10 10 10 6 0 10 -4 10 -10z m-1800 -14 c0 -15 -34 -22
-145 -31 -85 -6 -73 1 43 25 108 23 102 23 102 6z m552 -3 c35 -31 23 -49 -41
-63 -57 -12 -81 -9 -81 11 0 5 24 9 53 9 57 0 94 14 66 25 -9 3 -35 1 -59 -4
-24 -5 -48 -7 -52 -5 -15 10 3 24 30 24 15 0 34 5 42 10 20 13 20 13 42 -7z
m1418 -18 c7 -9 11 -18 8 -21 -7 -7 -58 17 -58 28 0 14 37 9 50 -7z m-1900
-47 c0 -5 -9 -8 -20 -8 -15 0 -20 7 -20 25 0 24 1 24 20 8 11 -10 20 -21 20
-25z m97 26 c-3 -3 -12 -4 -19 -1 -8 3 -5 6 6 6 11 1 17 -2 13 -5z m-182 -34
c-11 -5 -36 -11 -55 -15 -49 -8 -122 -46 -134 -70 -6 -11 -17 -24 -23 -28 -19
-12 -16 -27 6 -27 11 0 28 14 39 35 23 38 58 56 153 77 71 16 99 14 99 -7 0
-29 21 -25 36 7 l15 33 -6 -35 c-3 -19 -6 -45 -5 -57 0 -13 -5 -23 -10 -23 -6
0 -10 -4 -10 -10 0 -15 36 -12 50 5 7 8 21 15 31 15 11 0 19 5 19 10 0 6 -7
10 -16 10 -11 0 -14 6 -9 23 11 35 16 37 85 28 l65 -8 -47 -12 c-26 -7 -53
-19 -59 -27 -15 -18 -4 -45 21 -51 55 -14 5 -23 -131 -23 -97 0 -148 4 -144
10 3 6 17 10 31 10 30 0 76 28 68 42 -3 5 -15 6 -27 3 -37 -11 -112 -47 -118
-57 -7 -11 -249 -17 -249 -6 0 5 7 8 15 8 15 0 38 34 29 43 -16 16 10 45 54
59 77 26 277 60 227 38z m312 4 c-3 -3 -12 -4 -19 -1 -8 3 -5 6 6 6 11 1 17
-2 13 -5z m1663 -3 c0 -8 -119 -3 -129 5 -2 2 26 4 62 4 37 0 67 -4 67 -9z
m-1224 -93 c4 -5 -11 -8 -34 -8 -23 0 -42 -4 -42 -9 0 -10 34 -21 68 -21 12 0
22 -4 22 -10 0 -17 -72 -11 -92 7 -12 10 -42 18 -78 21 -60 4 -77 16 -41 30
24 9 186 0 197 -10z m-246 -8 c0 -5 -4 -10 -10 -10 -5 0 -10 -4 -10 -10 0 -6
32 -10 75 -10 41 0 75 -4 75 -9 0 -4 -58 -9 -130 -9 -75 0 -130 3 -130 9 0 5
7 9 15 9 8 0 29 9 47 20 35 21 68 26 68 10z"/>
<g>
<path d="M2767 3443 c-4 -3 -7 -22 -7 -40 0 -34 0 -34 43 -31 34 2 43 7 45 24
2 12 -4 29 -13 38 -17 16 -56 22 -68 9z"/>
</g>
<g>
<path d="M2665 2710 c3 -5 8 -10 11 -10 2 0 4 5 4 10 0 6 -5 10 -11 10 -5 0
-7 -4 -4 -10z"/>
</g>
<g>
<path d="M160 3365 c0 -18 7 -28 25 -35 33 -13 55 -3 55 25 0 24 -17 35 -56
35 -19 0 -24 -5 -24 -25z"/>
</g>
<g>
<path d="M1213 2483 c-21 -8 -15 -30 9 -37 27 -6 43 7 35 28 -6 16 -21 19 -44
9z"/>
</g>
<g>
<path d="M1928 2469 c-22 -12 -23 -42 -3 -59 23 -19 65 3 65 34 0 33 -29 45
-62 25z m33 -42 c-13 -13 -26 -3 -16 12 3 6 11 8 17 5 6 -4 6 -10 -1 -17z"/>
</g>
<g>
<path d="M1197 2424 c-13 -13 -7 -22 17 -26 24 -5 55 6 46 16 -10 9 -56 17
-63 10z"/>
</g>
<g>
<path d="M2745 2359 c-5 -7 7 -9 34 -6 55 5 64 17 13 17 -22 0 -44 -5 -47 -11z"/>
</g>
<g>
<path d="M2582 2320 c-14 -22 -17 -69 -3 -54 7 8 24 74 18 74 -1 0 -8 -9 -15
-20z"/>
</g>
<g>
<path d="M2765 2324 c-56 -27 -75 -41 -68 -47 11 -12 28 -8 49 11 10 10 35 25
54 35 24 11 29 16 15 16 -11 0 -33 -6 -50 -15z"/>
</g>
<g>
<path d="M2610 2311 c-16 -31 -11 -38 10 -13 l19 23 -1 -23 c-3 -50 3 -88 13
-88 6 0 9 22 7 60 -2 49 -6 60 -20 60 -10 0 -22 -9 -28 -19z"/>
</g>
<g>
<path d="M2055 2310 c-4 -6 -11 -8 -16 -5 -5 4 -9 2 -9 -4 0 -18 22 -23 37 -8
9 9 11 17 5 21 -6 3 -13 2 -17 -4z"/>
</g>
<g>
<path d="M1940 2286 c0 -14 5 -26 10 -26 6 0 10 9 10 19 0 11 -4 23 -10 26 -6
4 -10 -5 -10 -19z"/>
</g>
<g>
<path d="M1971 2298 c-1 -9 4 -20 9 -23 6 -3 10 -1 10 6 0 10 3 10 12 1 18
-18 33 -15 18 3 -7 9 -19 14 -26 11 -7 -3 -15 0 -18 7 -2 7 -5 5 -5 -5z"/>
</g>
<g>
<path d="M1139 2272 c0 -9 -2 -32 -5 -51 -4 -31 9 -61 25 -61 13 0 7 120 -6
125 -7 2 -13 -3 -14 -13z"/>
</g>
<g>
<path d="M1090 2270 c0 -5 5 -10 10 -10 6 0 10 5 10 10 0 6 -4 10 -10 10 -5 0
-10 -4 -10 -10z"/>
</g>
<g>
<path d="M2496 2271 c-4 -5 -2 -12 3 -15 5 -4 12 -2 15 3 4 5 2 12 -3 15 -5 4
-12 2 -15 -3z"/>
</g>
<g>
<path d="M2460 2262 c0 -12 19 -26 26 -19 2 2 -2 10 -11 17 -9 8 -15 8 -15 2z"/>
</g>
<g>
<path d="M2680 2270 c-1 -3 -4 -21 -7 -40 -2 -19 -9 -40 -13 -46 -15 -17 21
-104 42 -104 5 0 8 27 8 61 0 37 -4 58 -10 54 -5 -3 -10 -20 -10 -38 0 -19 -4
-27 -9 -21 -6 5 -6 30 0 62 6 30 8 59 5 65 -2 7 -5 10 -6 7z"/>
</g>
<g>
<path d="M2621 2234 c0 -11 3 -14 6 -6 3 7 2 16 -1 19 -3 4 -6 -2 -5 -13z"/>
</g>
<g>
<path d="M2068 2223 c-25 -6 -23 -22 2 -20 11 1 20 7 20 14 0 7 -1 12 -2 12
-2 -1 -11 -3 -20 -6z"/>
</g>
<g>
<path d="M1930 2210 c0 -5 9 -10 19 -10 11 0 23 -4 26 -10 3 -5 11 -10 17 -10
6 0 3 9 -7 20 -19 21 -55 27 -55 10z"/>
</g>
<g>
<path d="M2530 2208 c0 -7 5 -20 10 -28 8 -12 10 -11 10 7 0 12 -4 25 -10 28
-5 3 -10 0 -10 -7z"/>
</g>
<g>
<path d="M2490 2180 c0 -23 12 -31 29 -20 17 10 10 33 -12 36 -11 1 -17 -5
-17 -16z"/>
</g>
<g>
<path d="M2585 2170 c-3 -5 -1 -10 4 -10 6 0 11 5 11 10 0 6 -2 10 -4 10 -3 0
-8 -4 -11 -10z"/>
</g>
<g>
<path d="M2145 2160 c3 -5 8 -10 11 -10 2 0 4 5 4 10 0 6 -5 10 -11 10 -5 0
-7 -4 -4 -10z"/>
</g>
<g>
<path d="M2296 2156 c7 -19 58 -22 52 -3 -3 6 -17 13 -31 15 -21 3 -26 0 -21
-12z"/>
</g>
<g>
<path d="M2010 2146 c0 -10 9 -16 21 -16 24 0 21 23 -4 28 -10 2 -17 -3 -17
-12z"/>
</g>
<g>
<path d="M2235 2150 c3 -5 16 -10 28 -10 18 0 19 2 7 10 -20 13 -43 13 -35 0z"/>
</g>
<g>
<path d="M2721 2128 c0 -23 7 -50 20 -70 l20 -33 -7 35 c-3 19 -10 37 -14 40
-5 3 -10 19 -13 35 -4 27 -4 27 -6 -7z"/>
</g>
<g>
<path d="M2893 2143 c-18 -6 -16 -23 1 -23 17 0 30 16 19 23 -5 2 -14 2 -20 0z"/>
</g>
<g>
<path d="M345 2130 c3 -5 13 -10 21 -10 8 0 14 5 14 10 0 6 -9 10 -21 10 -11
0 -17 -4 -14 -10z"/>
</g>
<g>
<path d="M1111 2126 c-17 -21 8 -36 36 -21 17 9 20 14 11 23 -16 16 -33 15
-47 -2z"/>
</g>
<g>
<path d="M1970 2130 c0 -5 5 -10 10 -10 6 0 10 5 10 10 0 6 -4 10 -10 10 -5 0
-10 -4 -10 -10z"/>
</g>
<g>
<path d="M2070 2130 c0 -5 9 -10 20 -10 11 0 20 5 20 10 0 6 -9 10 -20 10 -11
0 -20 -4 -20 -10z"/>
</g>
<g>
<path d="M2240 2119 c0 -5 9 -9 20 -9 11 0 20 2 20 4 0 2 -9 6 -20 9 -11 3
-20 1 -20 -4z"/>
</g>
<g>
<path d="M2435 2120 c3 -5 8 -10 11 -10 2 0 4 5 4 10 0 6 -5 10 -11 10 -5 0
-7 -4 -4 -10z"/>
</g>
<g>
<path d="M2160 2110 c0 -5 -6 -7 -14 -4 -8 3 -17 1 -21 -5 -7 -12 14 -15 39
-5 18 7 22 24 6 24 -5 0 -10 -4 -10 -10z"/>
</g>
<g>
<path d="M705 2100 c-3 -5 -1 -10 4 -10 6 0 11 5 11 10 0 6 -2 10 -4 10 -3 0
-8 -4 -11 -10z"/>
</g>
<g>
<path d="M2346 2101 c-7 -11 22 -23 35 -15 5 3 7 10 4 15 -8 12 -32 12 -39 0z"/>
</g>
<g>
<path d="M2475 2102 c6 -5 21 -13 35 -17 17 -5 22 -4 15 3 -5 5 -21 13 -35 17
-17 5 -22 4 -15 -3z"/>
</g>
<g>
<path d="M2290 2090 c20 -13 33 -13 25 0 -3 6 -14 10 -23 10 -15 0 -15 -2 -2
-10z"/>
</g>
<g>
<path d="M2430 2094 c0 -15 22 -44 34 -44 8 0 16 -9 19 -20 3 -11 13 -23 24
-27 23 -9 37 -23 46 -45 4 -11 17 -18 32 -18 25 0 25 1 9 25 -9 14 -20 25 -26
25 -13 0 -46 29 -97 84 -21 24 -41 34 -41 20z"/>
</g>
<g>
<path d="M640 2075 c0 -9 9 -15 25 -15 28 0 34 15 9 24 -25 10 -34 7 -34 -9z"/>
</g>
<g>
<path d="M1170 2080 c0 -5 7 -10 16 -10 8 0 12 5 9 10 -3 6 -10 10 -16 10 -5
0 -9 -4 -9 -10z"/>
</g>
<g>
<path d="M215 2070 c3 -5 10 -10 16 -10 5 0 9 5 9 10 0 6 -7 10 -16 10 -8 0
-12 -4 -9 -10z"/>
</g>
<g>
<path d="M340 2071 c0 -5 5 -13 10 -16 6 -3 10 -2 10 4 0 5 -4 13 -10 16 -5 3
-10 2 -10 -4z"/>
</g>
<g>
<path d="M770 2070 c0 -5 5 -10 10 -10 6 0 10 5 10 10 0 6 -4 10 -10 10 -5 0
-10 -4 -10 -10z"/>
</g>
<g>
<path d="M857 2060 c3 -11 9 -17 15 -14 5 3 4 12 -3 20 -16 19 -18 18 -12 -6z"/>
</g>
<g>
<path d="M1092 2069 c2 -7 10 -15 17 -17 8 -3 12 1 9 9 -2 7 -10 15 -17 17 -8
3 -12 -1 -9 -9z"/>
</g>
<g>
<path d="M2215 2070 c3 -5 11 -10 16 -10 6 0 7 5 4 10 -3 6 -11 10 -16 10 -6
0 -7 -4 -4 -10z"/>
</g>
<g>
<path d="M2580 2059 c7 -11 14 -19 16 -16 7 7 -7 37 -17 37 -6 0 -5 -9 1 -21z"/>
</g>
<g>
<path d="M2605 2070 c3 -5 11 -10 16 -10 6 0 7 5 4 10 -3 6 -11 10 -16 10 -6
0 -7 -4 -4 -10z"/>
</g>
<g>
<path d="M2125 2060 c-3 -5 -1 -10 4 -10 6 0 11 5 11 10 0 6 -2 10 -4 10 -3 0
-8 -4 -11 -10z"/>
</g>
<g>
<path d="M2932 2058 c6 -18 28 -21 28 -4 0 9 -7 16 -16 16 -9 0 -14 -5 -12
-12z"/>
</g>
<g>
<path d="M1160 2045 c-14 -17 -6 -50 10 -40 6 4 7 11 4 17 -4 6 -1 14 6 18 7
5 8 10 2 14 -5 3 -15 -1 -22 -9z"/>
</g>
<g>
<path d="M1228 2055 c-8 -9 3 -45 13 -45 5 0 9 7 9 15 0 8 0 18 1 22 1 10 -16
15 -23 8z"/>
</g>
<g>
<path d="M2180 2050 c0 -5 5 -10 10 -10 6 0 10 5 10 10 0 6 -4 10 -10 10 -5 0
-10 -4 -10 -10z"/>
</g>
<g>
<path d="M2328 2053 c7 -3 16 -2 19 1 4 3 -2 6 -13 5 -11 0 -14 -3 -6 -6z"/>
</g>
<g>
<path d="M2370 2051 c0 -11 31 -24 39 -16 3 3 -1 10 -9 15 -19 12 -30 12 -30
1z"/>
</g>
<g>
<path d="M2275 2041 c-10 -17 12 -21 25 -6 10 12 10 15 -3 15 -9 0 -18 -4 -22
-9z"/>
</g>
<g>
<path d="M2770 2048 c0 -3 25 -54 55 -112 30 -58 55 -113 55 -123 0 -15 2 -16
11 -3 8 11 9 5 4 -23 -5 -28 -3 -37 5 -32 9 6 9 2 1 -13 -13 -25 -14 -69 -2
-76 13 -9 20 31 17 103 -2 38 -8 67 -14 69 -7 2 -12 12 -12 23 0 10 -4 19 -8
19 -5 0 -19 24 -32 53 -13 28 -29 59 -37 67 -8 8 -20 24 -28 35 -8 11 -15 17
-15 13z"/>
</g>
<g>
<path d="M70 2029 c0 -14 20 -20 36 -11 14 8 12 10 -10 14 -14 3 -26 2 -26 -3z"/>
</g>
<g>
<path d="M2350 2031 c0 -5 7 -12 16 -15 24 -9 28 -7 14 9 -14 17 -30 20 -30 6z"/>
</g>
<g>
<path d="M1031 2017 c-13 -17 -4 -50 13 -44 15 5 20 37 9 48 -6 6 -14 4 -22
-4z"/>
</g>
<g>
<path d="M2233 2014 c-7 -7 -9 -15 -4 -18 5 -3 14 1 20 8 15 18 0 28 -16 10z"/>
</g>
<g>
<path d="M788 2003 c6 -2 18 -2 25 0 6 3 1 5 -13 5 -14 0 -19 -2 -12 -5z"/>
</g>
<g>
<path d="M1110 2001 c0 -14 18 -23 31 -15 8 4 7 9 -2 15 -18 11 -29 11 -29 0z"/>
</g>
<g>
<path d="M2340 2000 c0 -5 5 -10 11 -10 5 0 7 5 4 10 -3 6 -8 10 -11 10 -2 0
-4 -4 -4 -10z"/>
</g>
<g>
<path d="M2610 2002 c0 -5 9 -17 20 -27 18 -16 20 -16 20 -2 0 9 -9 21 -20 27
-11 6 -20 7 -20 2z"/>
</g>
<g>
<path d="M2308 1992 c-10 -2 -18 -8 -18 -13 0 -11 11 -11 30 1 18 11 11 18
-12 12z"/>
</g>
<g>
<path d="M2450 1990 c0 -11 48 -25 57 -16 9 8 3 12 -29 20 -17 4 -28 2 -28 -4z"/>
</g>
<g>
<path d="M2660 1992 c0 -4 9 -8 19 -8 11 0 17 4 15 8 -3 4 -12 8 -20 8 -8 0
-14 -4 -14 -8z"/>
</g>
<g>
<path d="M2850 1985 c0 -9 5 -15 11 -13 6 2 11 8 11 13 0 5 -5 11 -11 13 -6 2
-11 -4 -11 -13z"/>
</g>
<g>
<path d="M375 1980 c3 -5 10 -10 16 -10 5 0 9 5 9 10 0 6 -7 10 -16 10 -8 0
-12 -4 -9 -10z"/>
</g>
<g>
<path d="M992 1978 c2 -6 10 -14 16 -16 7 -2 10 2 6 12 -7 18 -28 22 -22 4z"/>
</g>
<g>
<path d="M1235 1968 c4 -13 17 -41 30 -63 12 -22 25 -56 29 -76 7 -39 31 -78
41 -67 4 3 1 17 -6 29 -7 13 -16 37 -20 54 -4 16 -11 41 -15 55 -7 23 -6 24
10 11 21 -17 34 -6 19 17 -6 10 -20 16 -32 14 -15 -2 -24 4 -31 22 -12 32 -34
35 -25 4z"/>
</g>
<g>
<path d="M1110 1957 c0 -9 -4 -17 -10 -17 -5 0 -10 -4 -10 -10 0 -5 4 -10 9
-10 12 0 25 39 17 47 -3 4 -6 -1 -6 -10z"/>
</g>
<g>
<path d="M215 1950 c-3 -5 1 -10 10 -10 9 0 13 5 10 10 -3 6 -8 10 -10 10 -2
0 -7 -4 -10 -10z"/>
</g>
<g>
<path d="M1185 1940 c10 -11 22 -17 27 -14 12 8 -11 34 -30 34 -13 0 -12 -3 3
-20z"/>
</g>
<g>
<path d="M950 1946 c0 -2 7 -9 15 -16 13 -11 14 -10 9 4 -5 14 -24 23 -24 12z"/>
</g>
<g>
<path d="M2490 1930 c6 -11 15 -20 20 -20 17 0 40 12 40 21 0 14 -30 11 -30
-3 0 -7 -5 -5 -11 5 -14 24 -32 22 -19 -3z"/>
</g>
<g>
<path d="M694 1929 c-2 -4 0 -10 5 -13 11 -7 41 3 41 14 0 10 -40 9 -46 -1z"/>
</g>
<g>
<path d="M1131 1900 c-27 -53 -15 -71 22 -34 31 31 32 34 14 58 -13 17 -15 15
-36 -24z"/>
</g>
<g>
<path d="M2588 1917 c12 -5 22 -16 22 -24 0 -7 7 -13 15 -13 8 0 15 -4 15 -9
0 -6 13 -24 30 -42 32 -36 55 -33 24 4 -11 12 -28 37 -38 56 -17 30 -17 34 -3
28 10 -4 17 -3 17 1 0 5 -24 8 -52 9 -44 0 -49 -1 -30 -10z"/>
</g>
<g>
<path d="M2875 1920 c3 -5 13 -10 21 -10 8 0 12 5 9 10 -3 6 -13 10 -21 10 -8
0 -12 -4 -9 -10z"/>
</g>
<g>
<path d="M610 1909 c0 -5 9 -9 20 -9 11 0 20 4 20 8 0 4 -9 8 -20 9 -11 1 -20
-2 -20 -8z"/>
</g>
<g>
<path d="M925 1910 c3 -5 13 -10 21 -10 8 0 12 5 9 10 -3 6 -13 10 -21 10 -8
0 -12 -4 -9 -10z"/>
</g>
<g>
<path d="M2807 1900 c3 -11 9 -20 14 -20 11 0 11 3 3 24 -9 23 -23 20 -17 -4z"/>
</g>
<g>
<path d="M340 1890 c0 -5 7 -10 15 -10 8 0 15 5 15 10 0 6 -7 10 -15 10 -8 0
-15 -4 -15 -10z"/>
</g>
<g>
<path d="M2545 1891 c-6 -11 9 -23 19 -14 9 9 7 23 -3 23 -6 0 -12 -4 -16 -9z"/>
</g>
<g>
<path d="M895 1881 c-3 -6 -3 -15 0 -21 3 -5 0 -8 -7 -5 -17 6 -58 -26 -40
-32 6 -3 12 -11 12 -18 0 -7 7 -15 15 -19 16 -6 17 -1 6 29 -7 16 -2 22 21 32
17 7 28 18 26 25 -6 16 -25 21 -33 9z"/>
</g>
<g>
<path d="M1012 1870 c-16 -26 -15 -30 4 -30 11 0 14 5 10 16 -5 12 -1 14 16 8
20 -6 21 -5 9 10 -17 21 -24 20 -39 -4z"/>
</g>
<g>
<path d="M2720 1877 c0 -22 17 -40 25 -27 5 8 12 7 26 -6 21 -19 33 -15 24 8
-8 19 -75 41 -75 25z"/>
</g>
<g>
<path d="M1330 1861 c0 -16 38 -51 55 -51 13 0 2 27 -19 48 -29 27 -36 28 -36
3z"/>
</g>
<g>
<path d="M2080 1838 c0 -24 5 -63 11 -88 6 -25 13 -67 15 -95 3 -27 7 -59 9
-70 2 -11 4 -23 4 -27 1 -5 6 -8 11 -8 21 0 7 134 -22 209 -5 13 -6 26 -3 29
7 7 29 -15 31 -31 0 -7 2 -22 2 -33 2 -19 29 -41 39 -31 7 7 -9 37 -17 32 -4
-3 -10 4 -13 15 -6 24 -3 24 26 6 29 -19 102 -35 117 -26 6 4 -20 15 -59 26
-89 22 -142 65 -134 107 3 16 1 27 -6 27 -6 0 -11 -18 -11 -42z"/>
</g>
<g>
<path d="M1149 1819 c-45 -44 -48 -46 -125 -54 -43 -4 -98 -7 -122 -6 -47 1
-49 -13 -6 -29 37 -14 47 -53 41 -160 -7 -120 12 -200 47 -200 28 0 86 28 86
41 0 13 -12 11 -53 -6 -28 -12 -38 -12 -44 -2 -4 6 -7 69 -6 140 2 110 0 132
-17 162 l-19 34 32 5 c18 3 50 4 72 3 33 -2 40 -6 46 -27 3 -14 4 -40 1 -57
-6 -40 12 -63 48 -63 34 0 61 35 49 65 -13 35 -11 137 4 132 7 -2 11 -18 9
-38 -1 -25 0 -30 8 -19 7 12 13 7 25 -25 11 -25 34 -53 63 -75 26 -19 53 -43
60 -52 24 -32 105 -17 117 22 9 28 -11 50 -45 50 -29 0 -49 18 -69 65 -8 17
-16 25 -18 18 -5 -14 26 -84 41 -95 6 -4 23 -8 37 -8 31 0 39 -7 32 -26 -11
-28 -71 -16 -119 23 -24 21 -44 43 -44 50 0 6 -7 16 -16 21 -9 5 -17 28 -20
58 -3 27 -12 53 -20 57 -8 4 -14 14 -14 22 0 26 -15 20 -61 -26z m1 -88 c0
-21 3 -52 6 -68 5 -26 2 -31 -17 -36 -13 -3 -25 -4 -27 -2 -2 2 -5 31 -7 64
-3 49 0 63 13 71 28 16 32 12 32 -29z"/>
</g>
<g>
<path d="M2616 1816 c55 -60 88 -82 52 -35 -33 45 -78 89 -91 89 -5 0 12 -24
39 -54z"/>
</g>
<g>
<path d="M160 1850 c0 -5 12 -10 26 -10 14 0 23 4 19 10 -3 6 -15 10 -26 10
-10 0 -19 -4 -19 -10z"/>
</g>
<g>
<path d="M2952 1848 c5 -15 28 -23 28 -10 0 5 -7 13 -16 16 -10 4 -14 1 -12
-6z"/>
</g>
<g>
<path d="M1070 1825 c0 -9 5 -15 11 -13 6 2 11 8 11 13 0 5 -5 11 -11 13 -6 2
-11 -4 -11 -13z"/>
</g>
<g>
<path d="M385 1820 c-3 -5 -1 -10 4 -10 6 0 11 5 11 10 0 6 -2 10 -4 10 -3 0
-8 -4 -11 -10z"/>
</g>
<g>
<path d="M2375 1816 c-53 -30 -71 -95 -43 -158 18 -41 82 -107 105 -108 7 0
16 -6 20 -12 4 -7 27 -13 51 -14 39 -1 61 -8 51 -18 -2 -2 -50 -8 -107 -14
-119 -11 -143 -24 -124 -67 14 -30 33 -31 86 -6 l39 18 -31 5 c-17 2 -38 0
-46 -4 -12 -7 -16 -4 -16 10 0 24 18 32 78 33 67 0 125 12 129 26 5 14 -38 38
-87 48 -49 10 -87 40 -121 93 -39 62 -38 95 6 139 39 39 41 47 10 29z"/>
</g>
<g>
<path d="M90 1813 c0 -5 7 -18 15 -29 15 -18 15 -18 13 5 -3 23 -28 44 -28 24z"/>
</g>
<g>
<path d="M2831 1804 c0 -11 3 -14 6 -6 3 7 2 16 -1 19 -3 4 -6 -2 -5 -13z"/>
</g>
<g>
<path d="M1462 1793 c2 -12 11 -17 23 -15 36 7 35 15 -3 27 -20 6 -23 4 -20
-12z"/>
</g>
<g>
<path d="M1530 1795 c0 -8 7 -15 15 -15 8 0 15 7 15 15 0 8 -7 15 -15 15 -8 0
-15 -7 -15 -15z"/>
</g>
<g>
<path d="M1586 1801 c-4 -5 -2 -12 3 -15 5 -4 12 -2 15 3 4 5 2 12 -3 15 -5 4
-12 2 -15 -3z"/>
</g>
<g>
<path d="M1760 1790 c0 -19 3 -21 12 -12 9 9 9 15 0 24 -9 9 -12 7 -12 -12z"/>
</g>
<g>
<path d="M2715 1800 c-4 -7 -3 -16 3 -22 6 -6 8 -17 5 -24 -3 -8 0 -14 5 -14
6 0 13 -10 15 -22 3 -13 4 1 3 31 -2 52 -16 75 -31 51z"/>
</g>
<g>
<path d="M1790 1773 c0 -17 -3 -46 -6 -64 -4 -28 -3 -31 6 -16 12 19 17 94 6
104 -3 4 -6 -7 -6 -24z"/>
</g>
<g>
<path d="M60 1780 c0 -5 5 -10 10 -10 6 0 10 5 10 10 0 6 -4 10 -10 10 -5 0
-10 -4 -10 -10z"/>
</g>
<g>
<path d="M381 1766 c-7 -8 -8 -17 -3 -20 6 -3 13 1 16 10 9 23 2 28 -13 10z"/>
</g>
<g>
<path d="M2857 1727 c-7 -53 -3 -57 17 -17 13 27 13 34 2 45 -11 12 -14 7 -19
-28z"/>
</g>
<g>
<path d="M330 1750 c0 -5 5 -10 10 -10 6 0 10 5 10 10 0 6 -4 10 -10 10 -5 0
-10 -4 -10 -10z"/>
</g>
<g>
<path d="M1881 1744 c0 -11 3 -14 6 -6 3 7 2 16 -1 19 -3 4 -6 -2 -5 -13z"/>
</g>
<g>
<path d="M1620 1736 c0 -9 5 -16 10 -16 6 0 10 4 10 9 0 6 -4 13 -10 16 -5 3
-10 -1 -10 -9z"/>
</g>
<g>
<path d="M2790 1730 c0 -17 33 -34 44 -22 14 13 4 30 -19 34 -19 4 -25 1 -25
-12z"/>
</g>
<g>
<path d="M180 1730 c0 -5 7 -10 15 -10 8 0 15 5 15 10 0 6 -7 10 -15 10 -8 0
-15 -4 -15 -10z"/>
</g>
<g>
<path d="M1380 1726 c0 -9 5 -16 10 -16 6 0 10 4 10 9 0 6 -4 13 -10 16 -5 3
-10 -1 -10 -9z"/>
</g>
<g>
<path d="M1450 1726 c0 -10 9 -16 25 -16 14 0 25 5 25 10 0 6 -4 10 -9 10 -5
0 -16 3 -25 6 -11 4 -16 1 -16 -10z"/>
</g>
<g>
<path d="M1650 1726 c0 -8 5 -18 10 -21 6 -3 10 3 10 14 0 12 -4 21 -10 21 -5
0 -10 -6 -10 -14z"/>
</g>
<g>
<path d="M1995 1724 c-12 -19 4 -164 18 -164 6 0 7 21 3 50 -4 32 -3 50 4 50
5 0 10 7 10 16 0 13 -3 14 -15 4 -12 -10 -13 -6 -8 24 6 39 3 44 -12 20z"/>
</g>
<g>
<path d="M1520 1720 c0 -5 5 -10 10 -10 6 0 10 5 10 10 0 6 -4 10 -10 10 -5 0
-10 -4 -10 -10z"/>
</g>
<g>
<path d="M2705 1720 c3 -5 8 -10 11 -10 2 0 4 5 4 10 0 6 -5 10 -11 10 -5 0
-7 -4 -4 -10z"/>
</g>
<g>
<path d="M977 1713 c-8 -7 11 -33 24 -33 5 0 9 9 9 20 0 19 -20 27 -33 13z"/>
</g>
<g>
<path d="M1035 1710 c-9 -15 -1 -23 21 -18 15 3 16 4 1 16 -11 9 -17 10 -22 2z"/>
</g>
<g>
<path d="M420 1680 c0 -5 9 -10 21 -10 11 0 17 5 14 10 -3 6 -13 10 -21 10 -8
0 -14 -4 -14 -10z"/>
</g>
<g>
<path d="M190 1670 c0 -5 5 -10 10 -10 6 0 10 5 10 10 0 6 -4 10 -10 10 -5 0
-10 -4 -10 -10z"/>
</g>
<g>
<path d="M280 1665 c0 -8 9 -15 20 -15 11 0 20 7 20 15 0 8 -9 15 -20 15 -11
0 -20 -7 -20 -15z"/>
</g>
<g>
<path d="M485 1670 c3 -5 8 -10 11 -10 2 0 4 5 4 10 0 6 -5 10 -11 10 -5 0 -7
-4 -4 -10z"/>
</g>
<g>
<path d="M1590 1659 c0 -7 -7 -17 -17 -24 -9 -7 -13 -17 -9 -24 5 -8 11 -8 20
2 19 18 30 57 17 57 -6 0 -11 -5 -11 -11z"/>
</g>
<g>
<path d="M1930 1653 c0 -12 -12 -30 -27 -41 -16 -11 -26 -23 -23 -25 6 -7 100
14 100 22 0 3 -11 20 -25 36 -22 28 -24 28 -25 8z"/>
</g>
<g>
<path d="M1722 1631 c-22 -16 -43 -35 -48 -42 -4 -7 14 3 40 21 44 32 63 50
53 50 -2 0 -22 -13 -45 -29z"/>
</g>
<g>
<path d="M2195 1651 c-3 -5 0 -13 5 -16 15 -9 60 3 60 15 0 13 -57 13 -65 1z"/>
</g>
<g>
<path d="M1200 1641 c0 -10 36 -21 44 -14 3 3 3 10 0 14 -7 12 -44 12 -44 0z"/>
</g>
<g>
<path d="M2030 1635 c0 -8 5 -15 10 -15 6 0 10 7 10 15 0 8 -4 15 -10 15 -5 0
-10 -7 -10 -15z"/>
</g>
<g>
<path d="M1010 1630 c0 -5 7 -10 15 -10 8 0 15 5 15 10 0 6 -7 10 -15 10 -8 0
-15 -4 -15 -10z"/>
</g>
<g>
<path d="M2847 1623 c-13 -13 -31 -17 -70 -16 -86 4 -90 1 -83 -70 8 -93 9
-97 23 -97 15 0 18 36 3 45 -5 3 -10 31 -10 62 l0 55 38 -6 c20 -4 44 -9 52
-11 18 -5 80 30 80 45 0 15 -14 12 -33 -7z"/>
</g>
<g>
<path d="M2923 1627 c2 -7 12 -14 21 -15 11 -3 17 1 14 9 -2 7 -12 13 -22 15
-9 1 -15 -3 -13 -9z"/>
</g>
<g>
<path d="M95 1620 c-3 -5 3 -10 14 -10 12 0 21 5 21 10 0 6 -6 10 -14 10 -8 0
-18 -4 -21 -10z"/>
</g>
<g>
<path d="M356 1601 c-3 -5 1 -11 9 -15 9 -3 15 0 15 9 0 16 -16 20 -24 6z"/>
</g>
<g>
<path d="M2150 1600 c0 -5 10 -10 23 -10 18 0 19 2 7 10 -19 13 -30 13 -30 0z"/>
</g>
<g>
<path d="M185 1590 c3 -5 10 -10 16 -10 5 0 9 5 9 10 0 6 -7 10 -16 10 -8 0
-12 -4 -9 -10z"/>
</g>
<g>
<path d="M1787 1590 c-29 -91 -35 -115 -34 -117 2 -1 17 11 34 27 17 16 34 26
37 23 3 -4 6 2 6 11 0 12 -5 16 -16 12 -11 -4 -14 -1 -10 12 3 9 1 24 -4 32
-8 13 -9 13 -13 0z"/>
</g>
<g>
<path d="M2880 1585 c0 -8 7 -15 16 -15 14 0 14 3 4 15 -7 8 -14 15 -16 15 -2
0 -4 -7 -4 -15z"/>
</g>
<g>
<path d="M250 1580 c0 -5 7 -10 15 -10 8 0 15 5 15 10 0 6 -7 10 -15 10 -8 0
-15 -4 -15 -10z"/>
</g>
<g>
<path d="M1220 1574 c0 -8 5 -12 10 -9 6 3 10 10 10 16 0 5 -4 9 -10 9 -5 0
-10 -7 -10 -16z"/>
</g>
<g>
<path d="M100 1569 c0 -5 5 -7 10 -4 6 3 10 8 10 11 0 2 -4 4 -10 4 -5 0 -10
-5 -10 -11z"/>
</g>
<g>
<path d="M1090 1570 c0 -5 9 -10 20 -10 11 0 20 5 20 10 0 6 -9 10 -20 10 -11
0 -20 -4 -20 -10z"/>
</g>
<g>
<path d="M1160 1566 c0 -10 9 -16 21 -16 24 0 21 23 -4 28 -10 2 -17 -3 -17
-12z"/>
</g>
<g>
<path d="M1270 1565 c0 -8 7 -15 15 -15 8 0 15 4 15 9 0 5 -7 11 -15 15 -9 3
-15 0 -15 -9z"/>
</g>
<g>
<path d="M1470 1560 c0 -15 7 -20 25 -20 29 0 31 6 11 26 -20 20 -36 17 -36
-6z"/>
</g>
<g>
<path d="M1840 1564 c0 -9 5 -14 12 -12 18 6 21 28 4 28 -9 0 -16 -7 -16 -16z"/>
</g>
<g>
<path d="M2300 1570 c0 -5 4 -10 9 -10 6 0 13 5 16 10 3 6 -1 10 -9 10 -9 0
-16 -4 -16 -10z"/>
</g>
<g>
<path d="M1041 1554 c0 -11 3 -14 6 -6 3 7 2 16 -1 19 -3 4 -6 -2 -5 -13z"/>
</g>
<g>
<path d="M2220 1561 c0 -6 5 -13 10 -16 6 -3 10 1 10 9 0 9 -4 16 -10 16 -5 0
-10 -4 -10 -9z"/>
</g>
<g>
<path d="M2740 1560 c0 -5 9 -10 20 -10 11 0 20 5 20 10 0 6 -9 10 -20 10 -11
0 -20 -4 -20 -10z"/>
</g>
<g>
<path d="M980 1539 c0 -24 23 -21 28 4 2 10 -3 17 -12 17 -10 0 -16 -9 -16
-21z"/>
</g>
<g>
<path d="M1445 1540 c-3 -5 -1 -10 4 -10 6 0 11 5 11 10 0 6 -2 10 -4 10 -3 0
-8 -4 -11 -10z"/>
</g>
<g>
<path d="M1580 1527 c-40 -20 -94 -87 -70 -87 5 0 15 12 22 28 8 16 34 38 67
55 30 15 48 27 40 27 -8 -1 -34 -11 -59 -23z"/>
</g>
<g>
<path d="M2060 1535 c0 -8 5 -15 10 -15 6 0 10 7 10 15 0 8 -4 15 -10 15 -5 0
-10 -7 -10 -15z"/>
</g>
<g>
<path d="M2935 1540 c3 -5 8 -10 11 -10 2 0 4 5 4 10 0 6 -5 10 -11 10 -5 0
-7 -4 -4 -10z"/>
</g>
<g>
<path d="M1894 1531 c-10 -1 -27 -10 -36 -19 -25 -22 -7 -40 42 -40 48 -1 63
16 21 24 -45 9 -27 24 30 24 27 0 49 3 49 8 0 7 -71 10 -106 3z"/>
</g>
<g>
<path d="M2120 1507 c0 -20 4 -37 10 -37 5 0 7 14 3 33 -8 45 -13 47 -13 4z"/>
</g>
<g>
<path d="M2855 1530 c-3 -5 3 -10 14 -10 12 0 21 5 21 10 0 6 -6 10 -14 10 -8
0 -18 -4 -21 -10z"/>
</g>
<g>
<path d="M2905 1530 c-3 -5 -1 -10 4 -10 6 0 11 5 11 10 0 6 -2 10 -4 10 -3 0
-8 -4 -11 -10z"/>
</g>
<g>
<path d="M1028 1517 c-12 -29 -10 -63 3 -50 6 6 9 23 7 39 -2 24 -4 26 -10 11z"/>
</g>
<g>
<path d="M1228 1523 c6 -2 18 -2 25 0 6 3 1 5 -13 5 -14 0 -19 -2 -12 -5z"/>
</g>
<g>
<path d="M2378 1523 c6 -2 18 -2 25 0 6 3 1 5 -13 5 -14 0 -19 -2 -12 -5z"/>
</g>
<g>
<path d="M222 1508 c6 -17 38 -19 38 -2 0 8 -9 14 -21 14 -11 0 -19 -5 -17
-12z"/>
</g>
<g>
<path d="M315 1510 c3 -5 13 -10 21 -10 8 0 14 5 14 10 0 6 -9 10 -21 10 -11
0 -17 -4 -14 -10z"/>
</g>
<g>
<path d="M681 1504 c0 -11 3 -14 6 -6 3 7 2 16 -1 19 -3 4 -6 -2 -5 -13z"/>
</g>
<g>
<path d="M1067 1513 c-11 -10 -8 -53 3 -53 6 0 10 14 10 30 0 31 -2 35 -13 23z"/>
</g>
<g>
<path d="M1130 1509 c0 -5 5 -7 10 -4 6 3 10 8 10 11 0 2 -4 4 -10 4 -5 0 -10
-5 -10 -11z"/>
</g>
<g>
<path d="M2160 1510 c0 -5 5 -10 10 -10 6 0 10 5 10 10 0 6 -4 10 -10 10 -5 0
-10 -4 -10 -10z"/>
</g>
<g>
<path d="M1323 1497 c-42 -14 -41 -21 1 -34 33 -10 34 -10 38 18 3 16 2 28 -1
28 -3 -1 -21 -7 -38 -12z"/>
</g>
<g>
<path d="M1390 1496 c0 -15 18 -31 26 -23 7 7 -7 37 -17 37 -5 0 -9 -6 -9 -14z"/>
</g>
<g>
<path d="M990 1481 c0 -12 5 -21 10 -21 6 0 10 6 10 14 0 8 -4 18 -10 21 -5 3
-10 -3 -10 -14z"/>
</g>
<g>
<path d="M2750 1490 c0 -5 7 -10 15 -10 8 0 15 5 15 10 0 6 -7 10 -15 10 -8 0
-15 -4 -15 -10z"/>
</g>
<g>
<path d="M1246 1482 c-3 -6 -1 -14 5 -17 15 -10 25 3 12 16 -7 7 -13 7 -17 1z"/>
</g>
<g>
<path d="M1800 1464 c0 -8 5 -12 10 -9 6 4 8 11 5 16 -9 14 -15 11 -15 -7z"/>
</g>
<g>
<path d="M660 1454 c0 -8 6 -14 14 -14 8 0 22 -3 31 -6 13 -5 16 -2 13 12 -4
23 -58 31 -58 8z"/>
</g>
<g>
<path d="M1120 1444 c0 -8 5 -12 10 -9 6 4 8 11 5 16 -9 14 -15 11 -15 -7z"/>
</g>
<g>
<path d="M1911 1436 c-30 -32 -18 -38 88 -43 80 -4 88 -3 116 20 42 35 26 44
-21 12 -38 -26 -69 -28 -138 -8 -18 5 -18 7 5 24 l24 19 -26 0 c-14 0 -35 -10
-48 -24z"/>
</g>
<g>
<path d="M2160 1436 c0 -24 16 -43 27 -32 8 8 -6 56 -17 56 -6 0 -10 -11 -10
-24z"/>
</g>
<g>
<path d="M290 1439 c0 -5 5 -7 10 -4 6 3 10 8 10 11 0 2 -4 4 -10 4 -5 0 -10
-5 -10 -11z"/>
</g>
<g>
<path d="M1330 1442 c0 -9 -13 -10 -42 -6 l-43 5 33 -17 c31 -16 34 -16 50 -1
8 9 13 20 9 23 -4 4 -7 2 -7 -4z"/>
</g>
<g>
<path d="M1380 1424 c-13 -34 -13 -97 0 -89 6 3 10 17 10 31 0 14 7 38 15 54
14 27 14 30 0 30 -9 0 -20 -12 -25 -26z"/>
</g>
<g>
<path d="M2263 1443 c-7 -2 -13 -9 -13 -15 0 -12 41 -6 41 7 1 12 -11 15 -28
8z"/>
</g>
<g>
<path d="M2491 1439 c8 -5 55 -8 104 -8 111 1 101 6 -24 12 -54 3 -88 1 -80
-4z"/>
</g>
<g>
<path d="M240 1430 c0 -5 7 -10 15 -10 8 0 15 5 15 10 0 6 -7 10 -15 10 -8 0
-15 -4 -15 -10z"/>
</g>
<g>
<path d="M620 1424 c0 -8 5 -12 10 -9 6 4 8 11 5 16 -9 14 -15 11 -15 -7z"/>
</g>
<g>
<path d="M1567 1426 c-17 -13 -17 -15 3 -29 26 -18 71 -2 62 22 -4 10 -1 13
11 8 9 -3 17 -2 17 3 0 15 -72 11 -93 -4z m43 -17 c0 -5 -9 -9 -20 -9 -22 0
-27 16 -7 23 15 5 27 -1 27 -14z"/>
</g>
<g>
<path d="M1780 1426 c0 -7 9 -16 20 -19 15 -4 20 0 20 14 0 12 -7 19 -20 19
-11 0 -20 -6 -20 -14z"/>
</g>
<g>
<path d="M2210 1426 c0 -9 5 -16 10 -16 6 0 10 4 10 9 0 6 -4 13 -10 16 -5 3
-10 -1 -10 -9z"/>
</g>
<g>
<path d="M120 1420 c0 -5 9 -10 20 -10 11 0 20 5 20 10 0 6 -9 10 -20 10 -11
0 -20 -4 -20 -10z"/>
</g>
<g>
<path d="M1700 1420 c0 -5 5 -10 10 -10 6 0 10 5 10 10 0 6 -4 10 -10 10 -5 0
-10 -4 -10 -10z"/>
</g>
<g>
<path d="M1745 1420 c3 -5 8 -10 11 -10 2 0 4 5 4 10 0 6 -5 10 -11 10 -5 0
-7 -4 -4 -10z"/>
</g>
<g>
<path d="M1840 1420 c0 -5 5 -10 10 -10 6 0 10 5 10 10 0 6 -4 10 -10 10 -5 0
-10 -4 -10 -10z"/>
</g>
<g>
<path d="M2850 1411 c0 -6 5 -13 10 -16 6 -3 10 1 10 9 0 9 -4 16 -10 16 -5 0
-10 -4 -10 -9z"/>
</g>
<g>
<path d="M1451 1401 c-8 -5 -11 -16 -7 -26 5 -13 15 -16 41 -13 19 2 35 0 35
-4 0 -4 9 -8 20 -8 25 0 26 17 1 25 -11 3 -22 12 -25 20 -6 17 -43 20 -65 6z
m49 -16 c0 -8 -6 -15 -14 -15 -17 0 -28 14 -19 24 12 12 33 6 33 -9z"/>
</g>
<g>
<path d="M2450 1390 c-8 -5 -12 -12 -9 -15 8 -8 39 5 39 16 0 11 -11 11 -30
-1z"/>
</g>
<g>
<path d="M2510 1390 c0 -5 5 -10 10 -10 6 0 10 5 10 10 0 6 -4 10 -10 10 -5 0
-10 -4 -10 -10z"/>
</g>
<g>
<path d="M1680 1370 c-14 -10 -22 -22 -18 -25 10 -10 48 14 48 30 0 19 0 19
-30 -5z"/>
</g>
<g>
<path d="M1780 1370 c0 -5 5 -10 11 -10 5 0 7 5 4 10 -3 6 -8 10 -11 10 -2 0
-4 -4 -4 -10z"/>
</g>
<g>
<path d="M2732 1368 c5 -15 48 -24 48 -10 0 10 -23 22 -42 22 -5 0 -8 -6 -6
-12z"/>
</g>
<g>
<path d="M612 1358 c3 -7 17 -14 31 -15 29 -2 36 11 11 21 -26 10 -46 7 -42
-6z"/>
</g>
<g>
<path d="M705 1361 c-3 -5 -1 -12 5 -16 5 -3 10 1 10 9 0 18 -6 21 -15 7z"/>
</g>
<g>
<path d="M1735 1360 c3 -5 8 -10 11 -10 2 0 4 5 4 10 0 6 -5 10 -11 10 -5 0
-7 -4 -4 -10z"/>
</g>
<g>
<path d="M2532 1356 c1 -10 8 -17 13 -17 15 1 12 24 -3 29 -9 3 -13 -2 -10
-12z"/>
</g>
<g>
<path d="M250 1349 c0 -5 5 -7 10 -4 6 3 10 8 10 11 0 2 -4 4 -10 4 -5 0 -10
-5 -10 -11z"/>
</g>
<g>
<path d="M800 1350 c0 -5 5 -10 10 -10 6 0 10 5 10 10 0 6 -4 10 -10 10 -5 0
-10 -4 -10 -10z"/>
</g>
<g>
<path d="M1968 1353 c6 -2 18 -2 25 0 6 3 1 5 -13 5 -14 0 -19 -2 -12 -5z"/>
</g>
<g>
<path d="M2130 1340 c0 -11 5 -20 10 -20 6 0 10 9 10 20 0 11 -4 20 -10 20 -5
0 -10 -9 -10 -20z"/>
</g>
<g>
<path d="M2640 1350 c0 -5 5 -10 10 -10 6 0 10 5 10 10 0 6 -4 10 -10 10 -5 0
-10 -4 -10 -10z"/>
</g>
<g>
<path d="M2680 1350 c0 -5 5 -10 10 -10 6 0 10 5 10 10 0 6 -4 10 -10 10 -5 0
-10 -4 -10 -10z"/>
</g>
<g>
<path d="M2165 1340 c3 -5 8 -10 11 -10 2 0 4 5 4 10 0 6 -5 10 -11 10 -5 0
-7 -4 -4 -10z"/>
</g>
<g>
<path d="M2390 1323 c0 -22 2 -25 10 -13 13 20 13 40 0 40 -5 0 -10 -12 -10
-27z"/>
</g>
<g>
<path d="M1890 1330 c0 -5 5 -10 10 -10 6 0 10 5 10 10 0 6 -4 10 -10 10 -5 0
-10 -4 -10 -10z"/>
</g>
<g>
<path d="M2310 1326 c-9 -12 -8 -15 9 -13 12 1 21 7 21 14 0 17 -15 16 -30 -1z"/>
</g>
<g>
<path d="M2350 1320 c0 -11 5 -20 10 -20 6 0 10 9 10 20 0 11 -4 20 -10 20 -5
0 -10 -9 -10 -20z"/>
</g>
<g>
<path d="M1820 1307 c0 -23 33 -19 38 5 2 12 -3 16 -17 15 -13 -1 -21 -8 -21
-20z"/>
</g>
<g>
<path d="M2057 1324 c-13 -13 -7 -24 14 -24 11 0 19 5 17 12 -5 14 -22 21 -31
12z"/>
</g>
<g>
<path d="M2430 1309 c0 -11 5 -17 10 -14 6 3 10 13 10 21 0 8 -4 14 -10 14 -5
0 -10 -9 -10 -21z"/>
</g>
<g>
<path d="M2495 1320 c-3 -5 -1 -10 4 -10 6 0 11 5 11 10 0 6 -2 10 -4 10 -3 0
-8 -4 -11 -10z"/>
</g>
<g>
<path d="M1635 1300 c-10 -11 -13 -20 -8 -20 13 0 38 29 31 35 -3 3 -13 -4
-23 -15z"/>
</g>
<g>
<path d="M1780 1310 c0 -5 5 -10 11 -10 5 0 7 5 4 10 -3 6 -8 10 -11 10 -2 0
-4 -4 -4 -10z"/>
</g>
<g>
<path d="M1690 1300 c0 -5 11 -10 25 -10 14 0 25 5 25 10 0 6 -11 10 -25 10
-14 0 -25 -4 -25 -10z"/>
</g>
<g>
<path d="M2235 1300 c-3 -5 -1 -10 4 -10 6 0 11 5 11 10 0 6 -2 10 -4 10 -3 0
-8 -4 -11 -10z"/>
</g>
<g>
<path d="M280 1279 c0 -5 9 -9 20 -9 11 0 20 4 20 8 0 4 -9 8 -20 9 -11 1 -20
-2 -20 -8z"/>
</g>
<g>
<path d="M615 1280 c3 -5 10 -10 16 -10 5 0 9 5 9 10 0 6 -7 10 -16 10 -8 0
-12 -4 -9 -10z"/>
</g>
<g>
<path d="M2162 1279 c5 -17 48 -25 48 -10 0 6 -4 11 -9 11 -5 0 -17 3 -27 7
-12 4 -15 2 -12 -8z"/>
</g>
<g>
<path d="M2780 1270 c0 -5 5 -10 10 -10 6 0 10 5 10 10 0 6 -4 10 -10 10 -5 0
-10 -4 -10 -10z"/>
</g>
<g>
<path d="M770 1260 c0 -5 5 -10 11 -10 5 0 7 5 4 10 -3 6 -8 10 -11 10 -2 0
-4 -4 -4 -10z"/>
</g>
<g>
<path d="M946 1263 c-11 -11 -6 -21 14 -26 12 -3 20 0 20 8 0 14 -25 27 -34
18z"/>
</g>
<g>
<path d="M1610 1260 c0 -5 5 -10 10 -10 6 0 10 5 10 10 0 6 -4 10 -10 10 -5 0
-10 -4 -10 -10z"/>
</g>
<g>
<path d="M2026 1263 c-11 -11 -6 -23 9 -23 8 0 15 4 15 9 0 13 -16 22 -24 14z"/>
</g>
<g>
<path d="M2590 1249 c0 -15 4 -19 16 -15 9 3 20 6 26 6 19 0 2 23 -20 27 -17
2 -22 -2 -22 -18z"/>
</g>
<g>
<path d="M2750 1260 c0 -5 5 -10 10 -10 6 0 10 5 10 10 0 6 -4 10 -10 10 -5 0
-10 -4 -10 -10z"/>
</g>
<g>
<path d="M1920 1250 c0 -5 5 -10 10 -10 6 0 10 5 10 10 0 6 -4 10 -10 10 -5 0
-10 -4 -10 -10z"/>
</g>
<g>
<path d="M435 1241 c-3 -5 -1 -12 5 -16 5 -3 10 1 10 9 0 18 -6 21 -15 7z"/>
</g>
<g>
<path d="M2303 1233 c-8 -19 -3 -21 35 -16 17 3 32 11 32 17 0 17 -61 16 -67
-1z"/>
</g>
<g>
<path d="M211 1224 c0 -11 3 -14 6 -6 3 7 2 16 -1 19 -3 4 -6 -2 -5 -13z"/>
</g>
<g>
<path d="M510 1230 c0 -5 5 -10 11 -10 5 0 7 5 4 10 -3 6 -8 10 -11 10 -2 0
-4 -4 -4 -10z"/>
</g>
<g>
<path d="M555 1230 c-3 -5 -1 -10 4 -10 6 0 11 5 11 10 0 6 -2 10 -4 10 -3 0
-8 -4 -11 -10z"/>
</g>
<g>
<path d="M1580 1230 c0 -5 4 -10 9 -10 6 0 13 5 16 10 3 6 -1 10 -9 10 -9 0
-16 -4 -16 -10z"/>
</g>
<g>
<path d="M1770 1229 c0 -5 5 -7 10 -4 6 3 10 8 10 11 0 2 -4 4 -10 4 -5 0 -10
-5 -10 -11z"/>
</g>
<g>
<path d="M1870 1225 c0 -8 5 -15 10 -15 6 0 10 7 10 15 0 8 -4 15 -10 15 -5 0
-10 -7 -10 -15z"/>
</g>
<g>
<path d="M2453 1233 c-31 -6 -29 -20 2 -20 15 0 25 5 25 13 0 8 -1 13 -2 13
-2 -1 -13 -4 -25 -6z"/>
</g>
<g>
<path d="M632 1218 c5 -15 28 -23 28 -10 0 5 -7 13 -16 16 -10 4 -14 1 -12 -6z"/>
</g>
<g>
<path d="M1841 1214 c0 -11 3 -14 6 -6 3 7 2 16 -1 19 -3 4 -6 -2 -5 -13z"/>
</g>
<g>
<path d="M940 1210 c0 -5 5 -10 10 -10 6 0 10 5 10 10 0 6 -4 10 -10 10 -5 0
-10 -4 -10 -10z"/>
</g>
<g>
<path d="M1705 1211 c-7 -12 12 -24 25 -16 11 7 4 25 -10 25 -5 0 -11 -4 -15
-9z"/>
</g>
<g>
<path d="M2690 1201 c0 -6 5 -13 10 -16 6 -3 10 1 10 9 0 9 -4 16 -10 16 -5 0
-10 -4 -10 -9z"/>
</g>
<g>
<path d="M830 1189 c0 -5 5 -7 10 -4 6 3 10 8 10 11 0 2 -4 4 -10 4 -5 0 -10
-5 -10 -11z"/>
</g>
<g>
<path d="M2490 1187 c0 -7 9 -13 20 -13 11 0 22 6 24 13 4 8 -3 13 -19 13 -14
0 -25 -6 -25 -13z"/>
</g>
<g>
<path d="M2660 1190 c0 -5 5 -10 10 -10 6 0 10 5 10 10 0 6 -4 10 -10 10 -5 0
-10 -4 -10 -10z"/>
</g>
<g>
<path d="M2035 1170 c-4 -6 -11 -8 -16 -5 -5 4 -9 -1 -9 -10 0 -24 64 -17 68
8 4 19 -32 25 -43 7z"/>
</g>
<g>
<path d="M2096 1171 c-4 -7 -5 -15 -2 -18 9 -9 19 4 14 18 -4 11 -6 11 -12 0z"/>
</g>
<g>
<path d="M485 1151 c-3 -5 -1 -12 5 -16 5 -3 10 1 10 9 0 18 -6 21 -15 7z"/>
</g>
<g>
<path d="M900 1150 c0 -5 5 -10 10 -10 6 0 10 5 10 10 0 6 -4 10 -10 10 -5 0
-10 -4 -10 -10z"/>
</g>
<g>
<path d="M1681 1144 c0 -11 3 -14 6 -6 3 7 2 16 -1 19 -3 4 -6 -2 -5 -13z"/>
</g>
<g>
<path d="M1710 1150 c0 -5 5 -10 10 -10 6 0 10 5 10 10 0 6 -4 10 -10 10 -5 0
-10 -4 -10 -10z"/>
</g>
<g>
<path d="M1840 1144 c0 -8 -8 -14 -17 -14 -12 0 -14 -3 -6 -11 17 -17 58 -7
61 16 2 15 -3 21 -18 22 -11 1 -20 -4 -20 -13z"/>
</g>
<g>
<path d="M2326 1152 c-3 -6 -1 -14 5 -17 15 -10 25 3 12 16 -7 7 -13 7 -17 1z"/>
</g>
<g>
<path d="M2400 1150 c0 -5 5 -10 11 -10 5 0 7 5 4 10 -3 6 -8 10 -11 10 -2 0
-4 -4 -4 -10z"/>
</g>
<g>
<path d="M830 1140 c0 -5 5 -10 10 -10 6 0 10 5 10 10 0 6 -4 10 -10 10 -5 0
-10 -4 -10 -10z"/>
</g>
<g>
<path d="M1910 1135 c0 -8 5 -15 10 -15 6 0 10 7 10 15 0 8 -4 15 -10 15 -5 0
-10 -7 -10 -15z"/>
</g>
<g>
<path d="M2370 1140 c0 -5 5 -10 11 -10 5 0 7 5 4 10 -3 6 -8 10 -11 10 -2 0
-4 -4 -4 -10z"/>
</g>
<g>
<path d="M130 1090 c0 -5 5 -10 10 -10 6 0 10 5 10 10 0 6 -4 10 -10 10 -5 0
-10 -4 -10 -10z"/>
</g>
<g>
<path d="M170 1090 c0 -5 5 -10 10 -10 6 0 10 5 10 10 0 6 -4 10 -10 10 -5 0
-10 -4 -10 -10z"/>
</g>
<g>
<path d="M730 1090 c0 -5 5 -10 10 -10 6 0 10 5 10 10 0 6 -4 10 -10 10 -5 0
-10 -4 -10 -10z"/>
</g>
<g>
<path d="M770 1090 c0 -5 4 -10 9 -10 6 0 13 5 16 10 3 6 -1 10 -9 10 -9 0
-16 -4 -16 -10z"/>
</g>
<g>
<path d="M1990 1081 c0 -12 5 -21 10 -21 6 0 10 6 10 14 0 8 -4 18 -10 21 -5
3 -10 -3 -10 -14z"/>
</g>
<g>
<path d="M528 1068 c9 -9 15 -9 24 0 9 9 7 12 -12 12 -19 0 -21 -3 -12 -12z"/>
</g>
<g>
<path d="M2025 1070 c-3 -5 -1 -10 4 -10 6 0 11 5 11 10 0 6 -2 10 -4 10 -3 0
-8 -4 -11 -10z"/>
</g>
<g>
<path d="M830 1060 c0 -5 5 -10 10 -10 6 0 10 5 10 10 0 6 -4 10 -10 10 -5 0
-10 -4 -10 -10z"/>
</g>
<g>
<path d="M867 1021 c-3 -15 -4 -37 -1 -48 3 -12 1 -24 -5 -27 -7 -5 -11 2 -12
16 0 13 -3 17 -6 10 -3 -8 0 -24 6 -36 7 -12 11 -29 9 -37 -2 -7 4 -14 12 -14
12 0 15 16 16 83 1 82 -8 108 -19 53z"/>
</g>
<g>
<path d="M1940 1040 c0 -5 5 -10 11 -10 5 0 7 5 4 10 -3 6 -8 10 -11 10 -2 0
-4 -4 -4 -10z"/>
</g>
<g>
<path d="M40 990 c0 -5 5 -10 11 -10 5 0 7 5 4 10 -3 6 -8 10 -11 10 -2 0 -4
-4 -4 -10z"/>
</g>
<g>
<path d="M774 958 c14 -118 17 -125 39 -124 19 1 22 8 25 50 3 44 1 48 -17 43
-22 -5 -31 9 -31 49 0 13 -5 24 -10 24 -7 0 -9 -16 -6 -42z"/>
</g>
<g>
<path d="M2455 920 c3 -5 10 -10 16 -10 5 0 9 5 9 10 0 6 -7 10 -16 10 -8 0
-12 -4 -9 -10z"/>
</g>
<g>
<path d="M767 859 c4 -13 8 -18 11 -10 2 7 -1 18 -6 23 -8 8 -9 4 -5 -13z"/>
</g>
<g>
<path d="M105 840 c3 -5 8 -10 11 -10 2 0 4 5 4 10 0 6 -5 10 -11 10 -5 0 -7
-4 -4 -10z"/>
</g>
<g>
<path d="M365 770 c4 -6 11 -8 16 -5 14 9 11 15 -7 15 -8 0 -12 -5 -9 -10z"/>
</g>
<g>
<path d="M281 725 c-50 -12 -91 -38 -80 -49 3 -3 18 2 34 11 17 9 44 15 62 14
17 -1 34 3 38 9 3 5 15 10 26 10 11 0 17 5 14 10 -8 12 -25 11 -94 -5z"/>
</g>
<g>
<path d="M408 709 c-51 -26 -49 -43 2 -20 46 21 54 27 43 34 -4 3 -25 -4 -45
-14z"/>
</g>
<g>
<path d="M470 690 c-8 -5 -12 -12 -9 -15 8 -8 39 5 39 16 0 11 -11 11 -30 -1z"/>
</g>
<g>
<path d="M802 692 c-26 -8 -31 -27 -7 -26 46 2 55 5 55 19 0 16 -10 17 -48 7z"/>
</g>
<g>
<path d="M296 661 c-10 -11 -38 -29 -63 -41 -25 -12 -43 -23 -41 -26 10 -10
67 10 93 32 16 13 36 24 46 24 24 0 33 16 13 24 -24 9 -29 8 -48 -13z"/>
</g>
<g>
<path d="M628 523 c-16 -8 -28 -18 -28 -23 0 -18 21 -21 36 -6 8 9 20 16 25
16 5 0 9 7 9 15 0 18 -6 18 -42 -2z"/>
</g>
<g>
<path d="M410 505 c-19 -22 -7 -41 13 -21 18 19 22 36 8 36 -5 0 -14 -7 -21
-15z"/>
</g>
<g>
<path d="M119 468 c-28 -29 -30 -33 -14 -37 10 -2 24 5 31 15 7 11 21 27 30
37 16 15 16 17 2 17 -9 0 -31 -15 -49 -32z"/>
</g>
<g>
<path d="M345 445 l-30 -13 28 -7 c28 -7 62 10 51 26 -7 11 -12 11 -49 -6z"/>
</g>
<g>
<path d="M1564 2356 c-10 -8 -16 -17 -12 -21 7 -7 48 16 48 27 0 12 -14 9 -36
-6z"/>
</g>
<g>
<path d="M1746 822 c-3 -3 -3 -9 0 -13 7 -12 54 -12 54 0 0 10 -47 21 -54 13z"/>
</g>
<g>
<path d="M1816 791 c14 -13 64 -23 64 -12 0 11 -25 21 -53 21 -12 0 -17 -4
-11 -9z"/>
</g>
<g>
<path d="M1985 770 c28 -12 65 -12 65 0 0 6 -19 10 -42 9 -33 0 -38 -2 -23 -9z"/>
</g>
<g>
<path d="M1760 752 c0 -4 42 -9 93 -10 64 -2 87 1 77 8 -17 11 -170 14 -170 2z"/>
</g>
<g>
<path d="M2133 744 c15 -16 171 -46 261 -50 48 -2 111 -11 139 -19 55 -16 107
-20 107 -7 0 12 -161 42 -226 42 -33 1 -88 8 -124 16 -83 19 -167 29 -157 18z"/>
</g>
<g>
<path d="M1955 708 c10 -6 44 -12 75 -13 34 -1 71 -10 97 -23 24 -13 44 -18
48 -12 3 5 -19 21 -48 35 -42 19 -69 25 -123 25 -57 -1 -65 -3 -49 -12z"/>
</g>
<g>
<path d="M1750 701 c0 -6 10 -11 23 -12 44 -1 182 -18 205 -24 12 -4 22 -3 22
2 0 16 -69 32 -163 39 -63 5 -87 4 -87 -5z"/>
</g>
<g>
<path d="M2663 669 c14 -8 22 -8 30 0 8 8 3 11 -18 11 -26 -1 -28 -2 -12 -11z"/>
</g>
<g>
<path d="M2206 642 c5 -5 36 -20 69 -33 33 -13 79 -34 103 -46 24 -13 50 -23
58 -23 30 0 10 16 -59 47 -111 50 -198 78 -171 55z"/>
</g>
<g>
<path d="M1935 630 c11 -5 28 -9 38 -9 20 -1 66 -49 67 -68 0 -25 20 -13 20
12 0 30 -71 75 -116 74 -25 0 -26 -2 -9 -9z"/>
</g>
<g>
<path d="M2065 630 c-6 -10 85 -54 93 -45 9 8 -10 23 -50 39 -22 9 -39 12 -43
6z"/>
</g>
<g>
<path d="M2480 610 c0 -5 9 -10 21 -10 11 0 17 5 14 10 -3 6 -13 10 -21 10 -8
0 -14 -4 -14 -10z"/>
</g>
<g>
<path d="M2190 561 c0 -13 29 -35 37 -28 7 8 -15 37 -28 37 -5 0 -9 -4 -9 -9z"/>
</g>
<g>
<path d="M2087 544 c-7 -8 36 -44 51 -44 25 0 20 20 -7 35 -34 17 -35 17 -44
9z"/>
</g>
<g>
<path d="M2870 510 c-12 -7 -12 -12 -2 -22 9 -9 15 -9 24 0 16 16 -2 34 -22
22z"/>
</g>
<g>
<path d="M2260 490 c0 -5 9 -10 19 -10 11 0 31 -13 44 -30 25 -29 47 -39 47
-21 0 5 -17 23 -37 40 -37 30 -73 41 -73 21z"/>
</g>
<g>
<path d="M2470 492 c0 -10 43 -52 53 -52 14 0 7 27 -11 43 -20 18 -42 22 -42
9z"/>
</g>
<g>
<path d="M2066 455 c16 -24 34 -34 34 -17 -1 13 -27 42 -39 42 -7 0 -6 -9 5
-25z"/>
</g>
<g>
<path d="M2180 462 c0 -14 39 -46 47 -38 4 4 2 15 -3 24 -12 19 -44 29 -44 14z"/>
</g>
<g>
<path d="M2752 448 c3 -7 13 -15 22 -16 12 -3 17 1 14 10 -3 7 -13 15 -22 16
-12 3 -17 -1 -14 -10z"/>
</g>
<g>
<path d="M2030 440 c0 -5 5 -10 11 -10 5 0 7 5 4 10 -3 6 -8 10 -11 10 -2 0
-4 -4 -4 -10z"/>
</g>
</g>
<g>
<path d="M750 5269 c338 -4 767 -4 953 -1 l337 5 0 -23 c0 -19 -106 -355 -116
-368 -6 -9 -44 11 -44 22 0 7 33 79 74 161 41 82 73 152 70 154 -5 5 -3 8 -32
-49 -127 -245 -136 -260 -158 -260 -17 0 -23 8 -28 38 -9 58 -7 90 7 95 18 8
-14 28 -35 21 -14 -4 -17 6 -23 60 -8 75 -5 91 20 91 10 0 20 6 23 13 4 12
-44 13 -279 9 -156 -3 -285 -6 -286 -6 -2 -1 -3 -5 -3 -11 0 -5 15 -10 34 -10
25 0 40 -7 55 -26 26 -33 26 -36 -1 -79 -17 -26 -30 -35 -51 -35 -15 0 -30 -6
-33 -13 -2 -7 7 -46 21 -86 14 -41 25 -85 25 -98 0 -29 -24 -30 -43 -3 -8 11
-31 38 -51 60 -20 21 -36 43 -36 47 0 11 -59 63 -71 63 -5 0 -5 -10 0 -22 114
-283 113 -283 -52 -138 -71 61 -131 109 -134 106 -4 -3 -4 -7 -2 -9 3 -2 138
-122 219 -195 20 -18 23 -25 14 -40 -6 -9 -18 -17 -26 -17 -9 0 -63 59 -121
130 -96 120 -137 165 -137 152 0 -2 54 -71 119 -153 105 -131 117 -151 105
-165 -13 -14 -25 -10 -121 37 -79 38 -111 50 -120 42 -7 -6 -13 -15 -13 -22 0
-6 39 -47 88 -92 48 -45 84 -85 80 -89 -8 -8 -40 -1 -188 42 -110 32 -171 45
-189 38 -7 -3 -20 0 -29 7 -12 11 -14 11 -11 -1 3 -7 38 -31 79 -54 41 -22 80
-46 87 -53 7 -7 43 -24 80 -39 98 -38 117 -54 109 -93 l-7 -31 -105 5 c-142 6
-141 -5 6 -55 l75 -26 3 -68 3 -67 -38 5 c-143 19 -305 36 -309 32 -3 -2 41
-10 98 -17 57 -7 119 -16 138 -21 19 -5 51 -9 71 -9 31 0 37 -4 41 -24 4 -21
-1 -27 -36 -42 -87 -36 -120 -53 -106 -53 8 0 33 8 55 18 71 32 92 34 99 8 3
-12 6 -26 6 -30 0 -5 -46 -7 -101 -5 -65 2 -100 -1 -98 -7 2 -6 47 -10 104
-10 93 -1 100 -2 100 -20 0 -11 8 -23 18 -27 10 -4 17 -18 17 -32 0 -22 -7
-27 -57 -42 -217 -61 -299 -87 -307 -95 -14 -13 6 -11 56 5 24 8 86 26 138 40
52 14 114 32 137 40 41 14 43 14 58 -7 22 -31 20 -37 -31 -89 -26 -27 -42 -48
-38 -48 11 0 70 55 84 78 9 16 11 16 25 -2 8 -11 15 -25 15 -30 0 -6 -46 -35
-102 -63 -55 -29 -96 -53 -91 -53 21 0 80 25 135 58 55 33 88 38 95 16 2 -6
-21 -40 -52 -75 -31 -35 -75 -86 -98 -114 -23 -27 -59 -68 -79 -91 -58 -64
-47 -76 20 -21 22 17 79 64 127 102 48 39 103 83 122 99 34 29 35 29 53 10 22
-21 25 -12 -43 -136 -39 -70 -42 -78 -28 -78 5 0 16 17 24 38 8 20 31 63 50
94 31 52 36 56 53 44 17 -13 16 -16 -21 -61 -55 -65 -69 -85 -63 -91 3 -3 29
25 58 61 49 62 72 77 85 55 3 -5 -17 -77 -45 -160 -27 -83 -50 -154 -50 -158
1 -17 24 38 66 155 24 70 47 134 49 141 4 10 11 9 35 -3 l31 -16 -47 -87 c-26
-48 -55 -98 -64 -112 -9 -14 -29 -51 -44 -82 -31 -64 -39 -72 -30 -30 l6 27
-16 -29 c-9 -15 -16 -37 -16 -49 0 -19 1 -20 20 -2 11 10 63 94 116 187 l96
169 32 -7 c17 -3 34 -9 38 -13 4 -3 3 -48 -3 -100 -6 -51 -8 -95 -5 -98 15
-16 37 15 66 92 31 80 45 104 56 92 6 -6 24 -215 26 -297 1 -36 5 -76 10 -90
4 -14 6 63 3 183 l-5 207 30 0 c36 0 36 6 15 -205 -17 -175 -18 -213 -6 -199
5 5 14 72 20 149 25 294 33 307 89 155 20 -52 37 -97 39 -99 12 -16 17 25 15
116 -3 93 -1 104 14 101 15 -3 142 -228 180 -320 30 -70 57 -33 32 41 -9 25
-33 106 -54 179 -38 131 -38 134 -19 148 28 21 39 17 60 -18 23 -40 99 -118
114 -118 17 0 13 15 -23 93 -45 97 -49 112 -34 124 10 8 53 -24 168 -123 85
-73 161 -134 168 -134 23 0 12 26 -36 81 -26 29 -83 101 -126 157 l-79 104 21
20 c19 19 23 20 73 7 30 -7 56 -16 59 -20 7 -8 72 -30 77 -25 8 8 -28 55 -63
81 -40 31 -68 70 -60 84 4 6 30 2 69 -9 90 -27 219 -70 239 -81 24 -12 45 -12
32 0 -5 6 -57 26 -117 46 -59 19 -115 40 -125 45 -9 6 -29 14 -44 20 -20 7
-28 16 -28 33 0 13 3 26 6 30 13 13 329 -164 329 -184 0 -8 7 -14 15 -14 30 0
14 29 -29 52 -24 12 -50 28 -59 35 -8 7 -45 29 -82 48 -166 87 -167 88 -151
119 9 16 27 20 116 26 77 5 105 10 105 20 0 7 -14 16 -31 20 -42 9 -159 65
-159 75 0 11 50 17 240 30 143 10 170 14 159 23 -4 4 -310 -17 -378 -25 -23
-3 -26 1 -29 31 -2 18 0 37 5 42 4 4 62 1 128 -7 165 -19 271 -28 265 -21 -3
3 -70 13 -150 22 -261 30 -245 26 -248 60 -3 29 0 31 75 58 43 16 84 30 91 33
7 2 11 8 8 13 -3 5 -49 7 -102 4 -88 -5 -96 -4 -92 12 2 10 35 34 78 57 41 22
79 43 84 49 6 5 17 9 26 9 9 0 34 13 56 30 21 16 44 30 50 30 12 0 44 32 44
43 0 4 -13 7 -30 7 -16 0 -30 -4 -30 -10 0 -5 -8 -10 -17 -10 -26 0 -113 -32
-113 -42 0 -11 14 -10 26 1 11 10 105 34 111 27 3 -2 -28 -21 -69 -41 -40 -20
-104 -54 -143 -76 -38 -21 -75 -39 -81 -39 -10 0 -34 41 -34 60 0 4 15 12 33
15 17 4 37 11 42 15 6 4 32 13 58 20 26 7 46 15 44 17 -5 5 -83 -13 -146 -33
-24 -8 -44 -13 -45 -12 0 2 -7 13 -14 26 -15 26 -8 40 38 77 72 57 105 94 94
105 -9 9 -29 2 -80 -26 -38 -20 -73 -41 -78 -45 -16 -14 -46 -10 -46 5 0 13
31 56 68 94 7 8 25 30 40 50 15 21 30 39 34 42 13 10 118 145 118 153 0 18
-28 4 -39 -19 -10 -23 -107 -144 -214 -268 l-33 -39 -22 23 c-12 13 -22 27
-22 31 0 4 37 38 82 75 45 38 100 86 122 108 l41 38 -46 -33 c-25 -19 -84 -64
-130 -102 -46 -37 -91 -66 -99 -64 -17 3 -18 57 -2 91 18 37 62 138 62 142 0
2 -6 4 -14 4 -8 0 -27 -16 -42 -37 -46 -57 -106 -128 -113 -131 -4 -1 -14 3
-23 10 -15 12 -10 32 49 210 l64 198 287 3 c158 1 -278 3 -968 3 -1040 0
-1150 -1 -640 -7z m780 -78 c-1 -9 -7 -29 -14 -46 l-13 -30 -12 43 c-7 23 -9
46 -6 51 8 15 45 0 45 -18z m130 -41 c0 -38 -4 -70 -9 -70 -16 0 -29 118 -14
133 17 18 23 1 23 -63z m-289 47 c-1 -12 -15 -9 -19 4 -3 6 1 10 8 8 6 -3 11
-8 11 -12z m99 -61 c11 -32 18 -62 15 -66 -9 -14 -57 3 -66 24 -5 11 -14 28
-21 37 -9 13 -7 23 12 48 12 18 26 29 31 24 5 -5 18 -35 29 -67z m129 -1 l0
-74 -32 6 c-18 3 -33 7 -34 7 -1 1 5 27 14 57 8 29 17 60 19 67 2 6 10 12 18
12 12 0 15 -15 15 -75z m120 23 c-1 -75 -15 -107 -21 -48 -5 54 1 100 13 100
5 0 9 -24 8 -52z m-329 -79 c0 -5 -11 -9 -25 -9 -27 0 -32 9 -13 28 12 12 38
-1 38 -19z m-67 -76 c13 -21 29 -53 37 -72 12 -30 12 -35 -5 -47 -45 -33 -65
-4 -91 126 -10 46 29 41 59 -7z m95 -28 c5 -94 -16 -90 -70 14 -21 41 -11 53
37 48 29 -3 30 -5 33 -62z m66 13 c17 -59 14 -68 -20 -68 -23 0 -24 3 -24 60
0 78 22 82 44 8z m96 16 c0 -47 -16 -74 -43 -74 -18 0 -25 9 -35 43 -7 23 -15
48 -18 55 -4 9 8 12 45 12 l51 0 0 -36z m68 -16 c3 -47 3 -48 -27 -48 -30 0
-31 1 -31 51 0 49 1 50 28 47 25 -3 27 -7 30 -50z m92 46 c0 -3 -5 -25 -11
-50 -9 -35 -16 -44 -33 -44 -20 0 -23 6 -25 50 l-2 50 36 0 c19 0 35 -3 35 -6z
m48 -51 c-3 -55 -4 -58 -27 -55 -14 1 -26 3 -27 5 -1 1 5 26 14 55 22 73 44
70 40 -5z m-609 -67 c33 -41 61 -78 61 -83 0 -11 -48 -39 -54 -32 -4 4 -76
180 -76 186 0 10 13 -4 69 -71z m912 -3 c-29 -72 -44 -103 -50 -103 -3 0 -14
7 -24 15 -18 13 -16 17 30 74 26 34 51 61 55 61 4 0 -1 -21 -11 -47z m-321
-14 c74 -12 229 -81 293 -131 126 -98 222 -249 253 -398 29 -136 6 -341 -50
-447 -13 -27 -14 -25 -20 42 -28 328 -216 615 -493 754 -128 64 -273 101 -394
101 -32 0 -59 4 -59 9 0 19 168 73 260 83 38 5 138 -2 210 -13z m-225 -120
c94 -24 219 -80 301 -137 228 -156 374 -431 374 -707 l0 -102 -52 -59 c-74
-85 -90 -94 -60 -33 33 66 41 143 17 169 -36 40 -96 34 -137 -14 -40 -46 -38
-59 3 -20 67 63 97 66 124 14 13 -25 13 -35 -1 -82 -37 -123 -90 -181 -207
-228 -233 -93 -465 -75 -663 50 -82 51 -198 173 -237 248 -68 131 -82 191 -82
342 1 156 19 230 85 341 51 86 91 104 171 78 42 -14 120 -95 166 -174 19 -33
49 -69 65 -80 26 -17 36 -36 59 -115 16 -52 32 -122 35 -155 4 -33 11 -66 17
-72 13 -18 58 -16 85 3 27 19 38 13 57 -32 9 -23 21 -34 34 -34 11 0 25 -9 31
-20 6 -11 18 -20 27 -20 15 0 15 2 0 18 -26 28 -20 55 16 76 26 16 29 20 14
24 -10 2 -26 -2 -35 -10 -19 -14 -59 -38 -66 -38 -2 0 -7 12 -11 28 -14 61
-65 89 -80 42 -8 -26 -30 -41 -47 -35 -10 4 -17 26 -21 63 -4 31 -18 102 -32
157 -13 55 -25 106 -25 113 0 29 60 5 72 -29 8 -21 58 -13 58 9 0 8 6 23 14
31 18 21 29 71 16 71 -5 0 -21 -18 -35 -41 -29 -45 -51 -48 -74 -8 -17 30 -8
79 14 79 8 0 15 5 15 10 0 28 -52 -18 -64 -57 -20 -63 -76 -46 -125 38 -70
121 -157 188 -244 189 l-32 1 56 52 c86 81 106 89 224 82 55 -4 136 -15 180
-26z m-607 -69 c56 -27 102 -53 102 -57 -1 -12 -37 -53 -47 -53 -13 0 -180
159 -168 159 6 1 56 -21 113 -49z m1402 6 c0 -7 -102 -86 -110 -86 -4 0 -10 6
-13 14 -4 10 11 25 46 45 47 27 77 38 77 27z m-1574 -117 c76 -22 151 -43 167
-46 15 -3 27 -11 27 -18 0 -26 -20 -65 -32 -65 -20 1 -244 116 -303 156 -30
21 -10 17 141 -27z m1644 -213 c-58 -24 -70 -24 -70 -1 0 16 20 22 80 24 l45
0 -55 -23z m-1500 -20 c0 -17 -15 -36 -27 -36 -26 0 -93 23 -93 32 0 4 27 8
60 8 33 0 60 -2 60 -4z m1539 -269 c65 -24 55 -33 -41 -39 l-68 -4 0 31 c0 52
2 52 109 12z m-121 -317 c13 -13 19 -26 14 -28 -11 -3 -122 37 -122 44 0 3 8
16 18 29 l17 23 24 -21 c14 -12 35 -33 49 -47z m-1220 -72 c7 -7 12 -18 12
-25 0 -6 -46 -49 -102 -94 -57 -45 -111 -89 -120 -97 -10 -8 -18 -11 -18 -5 0
11 199 233 209 233 4 0 12 -5 19 -12z m1150 -119 c151 -185 148 -188 -36 -29
l-121 105 21 23 c12 12 27 21 32 19 6 -2 53 -55 104 -118z m-179 -49 c22 -44
37 -81 33 -84 -6 -4 -89 110 -101 137 -3 7 16 26 26 27 1 0 20 -36 42 -80z
m-164 0 c10 -17 95 -313 91 -317 -2 -3 -10 8 -18 24 -78 151 -138 273 -138
278 0 5 37 23 52 24 4 1 10 -4 13 -9z m-395 -45 c0 -19 -40 -127 -52 -140 -9
-10 -1 131 9 148 8 13 43 7 43 -8z m265 -50 c10 -92 -4 -101 -31 -19 -16 50
-19 71 -11 76 27 17 35 6 42 -57z"/>
<g>
<path d="M1800 3915 c0 -3 10 -25 21 -50 24 -51 55 -66 95 -45 31 17 25 24
-10 10 -38 -14 -63 2 -76 50 -6 22 -15 40 -20 40 -6 0 -10 -2 -10 -5z"/>
</g>
</g>
<g>
<path d="M2981 5231 c4 -27 8 -433 8 -902 1 -469 3 -855 6 -857 3 -3 5 403 5
901 0 755 -2 907 -14 907 -10 0 -11 -11 -5 -49z"/>
</g>
<g>
<path d="M820 5040 c0 -5 5 -10 10 -10 6 0 10 5 10 10 0 6 -4 10 -10 10 -5 0
-10 -4 -10 -10z"/>
</g>
<g>
<path d="M730 4250 l-65 -7 70 -1 c39 0 88 3 110 7 l40 9 -45 -1 c-25 0 -74
-3 -110 -7z"/>
</g>
<g>
<path d="M456 4233 c-11 -11 -6 -23 9 -23 8 0 15 4 15 9 0 13 -16 22 -24 14z"/>
</g>
<g>
<path d="M553 4233 c20 -2 54 -2 75 0 20 2 3 4 -38 4 -41 0 -58 -2 -37 -4z"/>
</g>
<g>
<path d="M810 3934 c-36 -19 -59 -34 -52 -34 14 0 132 58 132 65 0 9 -14 3
-80 -31z"/>
</g>
<g>
<path d="M650 3860 c-41 -21 -81 -39 -87 -39 -7 -1 -13 -6 -13 -12 0 -6 3 -9
8 -7 57 26 182 90 182 93 0 9 -15 3 -90 -35z"/>
</g>
<g>
<path d="M2424 3625 c-8 -21 22 -64 53 -76 32 -12 83 -2 83 15 0 23 -37 56
-61 55 -23 -1 -23 -1 4 -11 39 -14 37 -48 -2 -48 -29 0 -61 22 -61 41 0 5 7 9
16 9 14 0 14 2 0 15 -18 19 -25 19 -32 0z"/>
</g>
<g>
<path d="M527 3613 c-5 -27 22 -76 39 -69 7 3 18 -3 24 -14 33 -62 71 -60 63
3 -6 49 -33 77 -72 76 -25 -1 -25 -1 5 -8 47 -12 54 -19 54 -61 0 -31 -3 -38
-15 -34 -8 4 -15 12 -15 19 0 7 -16 23 -35 35 -29 18 -34 26 -29 46 4 14 2 24
-4 24 -6 0 -12 -8 -15 -17z"/>
</g>
<g>
<path d="M937 3373 c-20 -19 2 -113 27 -113 7 0 19 -6 25 -14 14 -17 59 -27
67 -14 3 5 -1 17 -10 27 -9 10 -16 30 -16 45 0 33 -21 56 -49 56 -12 0 -21 5
-21 10 0 11 -13 13 -23 3z m62 -32 c15 -10 24 -91 10 -91 -5 0 -9 3 -9 8 0 4
-10 12 -22 17 -30 13 -39 75 -11 75 10 0 24 -4 32 -9z"/>
</g>
<g>
<path d="M2364 3266 c-8 -22 3 -33 18 -18 9 9 9 15 0 24 -9 9 -13 7 -18 -6z"/>
</g>
<g>
<path d="M2425 3251 c20 -4 33 -15 39 -33 13 -36 4 -43 -28 -23 -14 9 -31 15
-38 12 -8 -3 -2 -9 14 -15 14 -6 29 -16 33 -21 3 -6 15 -11 26 -11 17 0 18 5
13 43 -8 48 -17 57 -59 56 l-30 -1 30 -7z"/>
</g>
<g>
<path d="M1310 3220 c0 -5 5 -10 10 -10 6 0 10 5 10 10 0 6 -4 10 -10 10 -5 0
-10 -4 -10 -10z"/>
</g>
<g>
<path d="M2097 3214 c-27 -28 19 -94 65 -94 15 0 28 -6 31 -12 3 -10 7 -10 20
1 22 18 21 33 -4 65 -16 20 -29 26 -59 26 -21 0 -40 5 -42 11 -2 5 -7 7 -11 3z
m103 -43 c19 -36 13 -48 -22 -43 -32 4 -78 36 -78 54 0 4 20 8 45 8 34 0 47
-5 55 -19z"/>
</g>
<g>
<path d="M1773 3184 c-6 -17 14 -44 33 -44 8 0 19 -9 26 -20 7 -11 20 -20 28
-20 15 1 -26 42 -66 67 -17 11 -16 12 14 12 17 1 35 2 39 4 4 1 16 -14 25 -33
16 -34 17 -34 18 -9 0 15 -6 32 -14 38 -22 18 -97 21 -103 5z"/>
</g>
<g>
<path d="M681 3155 c1 -40 1 -40 10 -10 5 18 5 33 -1 39 -7 7 -10 -4 -9 -29z"/>
</g>
<g>
<path d="M1321 3163 c-1 -12 4 -25 9 -28 12 -7 12 2 0 30 -8 19 -9 19 -9 -2z"/>
</g>
<g>
<path d="M712 3151 c2 -8 17 -19 34 -24 44 -15 53 -25 45 -54 -10 -37 -23 -38
-43 -3 -9 17 -24 30 -33 30 -12 0 -11 -4 5 -20 11 -11 20 -24 20 -28 0 -11 51
-35 58 -27 3 3 7 23 9 44 4 44 -15 71 -51 71 -12 0 -28 6 -35 13 -11 10 -13 9
-9 -2z"/>
</g>
<g>
<path d="M1372 3133 c-15 -6 -6 -23 14 -23 8 0 14 7 14 15 0 15 -6 17 -28 8z"/>
</g>
<g>
<path d="M2992 3100 c0 -14 2 -19 5 -12 2 6 2 18 0 25 -3 6 -5 1 -5 -13z"/>
</g>
<g>
<path d="M1014 2995 c-8 -31 17 -72 52 -85 13 -5 24 -14 24 -20 0 -16 27 -12
34 6 16 43 -10 94 -48 94 -7 0 -19 7 -26 15 -18 22 -29 19 -36 -10z m96 -66
l0 -29 -27 17 c-36 21 -53 42 -53 64 0 15 4 15 40 -3 33 -17 40 -25 40 -49z"/>
</g>
<g>
<path d="M1776 2958 c15 -50 23 -64 47 -86 38 -36 59 -26 63 29 4 41 1 48 -20
63 -14 9 -42 16 -61 16 -33 0 -36 -2 -29 -22z m83 -13 c19 -19 6 -67 -17 -63
-19 3 -54 66 -46 80 7 11 44 1 63 -17z"/>
</g>
<g>
<path d="M2213 2954 c-7 -18 15 -62 37 -73 8 -5 32 -11 53 -14 35 -5 37 -4 37
22 0 32 -16 51 -45 51 -12 0 -30 7 -41 15 -25 19 -33 19 -41 -1z m112 -51 c8
-23 1 -25 -43 -14 -35 10 -52 26 -52 50 0 14 88 -20 95 -36z"/>
</g>
<g>
<path d="M563 2884 c4 -23 19 -49 41 -71 52 -52 65 -40 57 52 -1 10 -11 15
-33 14 -22 -1 -26 -3 -13 -6 30 -7 37 -18 29 -47 l-6 -26 -35 36 c-24 26 -31
39 -22 44 14 9 5 40 -12 40 -8 0 -10 -12 -6 -36z"/>
</g>
<g>
<path d="M1392 2883 c3 -33 6 -38 32 -41 18 -2 30 -11 33 -23 11 -40 52 -14
53 33 0 10 -41 48 -65 60 -11 5 -5 -2 13 -17 17 -15 32 -35 32 -46 0 -23 -13
-25 -30 -5 -6 8 -21 16 -33 18 -17 2 -22 9 -20 31 1 15 -3 27 -8 27 -6 0 -9
-17 -7 -37z"/>
</g>
<g>
<path d="M1686 2754 c-9 -36 14 -67 69 -95 55 -28 69 -19 51 33 -15 45 -21 52
-35 43 -8 -4 -6 -11 4 -21 16 -17 21 -54 6 -54 -5 0 -11 7 -15 15 -3 8 -14 15
-24 15 -21 0 -42 18 -42 37 0 8 13 14 33 14 24 1 26 3 9 6 -13 3 -26 11 -29
19 -8 22 -20 17 -27 -12z"/>
</g>
<g>
<path d="M817 2743 c-13 -12 -7 -51 11 -71 9 -12 32 -23 50 -26 18 -2 39 -9
46 -15 18 -15 26 -4 26 34 0 42 -16 55 -67 55 -32 0 -43 4 -43 15 0 16 -12 20
-23 8z m28 -33 c3 -5 21 -10 39 -10 39 0 62 -22 51 -47 -5 -12 -9 -14 -12 -5
-3 6 -20 12 -38 12 -31 0 -65 27 -65 52 0 11 18 10 25 -2z"/>
</g>
<g>
<path d="M293 282 c-25 -2 -33 -8 -33 -23 0 -23 15 -25 24 -4 3 9 19 15 41 15
l35 0 0 -88 c0 -55 -4 -92 -12 -100 -9 -9 -4 -12 26 -12 31 0 37 3 32 16 -3 9
-3 54 0 100 l7 84 33 0 c24 0 34 -5 34 -15 0 -8 7 -15 16 -15 10 0 14 7 12 23
-3 21 -7 22 -93 22 -49 0 -105 -1 -122 -3z"/>
</g>
<g>
<path d="M2135 184 l0 -104 29 0 c22 0 26 3 18 12 -6 7 -12 43 -14 81 -1 37
-3 67 -3 67 0 0 25 -31 55 -70 49 -61 102 -102 115 -88 3 3 7 48 9 101 3 95 3
97 -19 97 -21 0 -22 -3 -15 -35 8 -37 2 -115 -9 -115 -5 1 -80 102 -100 136
-3 6 -19 13 -36 17 l-30 6 0 -105z"/>
</g>
<g>
<path d="M565 175 l0 -105 25 0 25 0 0 103 c0 101 0 102 -25 105 l-25 3 0
-106z"/>
</g>
<g>
<path d="M734 238 l1 -43 -55 -6 -55 -5 55 -5 55 -4 -2 -52 -2 -53 36 0 c30 0
34 2 23 15 -9 10 -11 43 -8 105 l4 90 -26 0 c-25 0 -27 -3 -26 -42z"/>
</g>
<g>
<path d="M847 178 l2 -103 72 1 c63 0 73 3 89 25 24 31 16 38 -13 11 -16 -15
-36 -22 -65 -22 l-42 0 2 88 3 87 38 3 c26 2 39 -1 43 -12 9 -23 24 -20 24 4
0 18 -7 20 -77 20 l-78 0 2 -102z"/>
</g>
<g>
<path d="M1249 193 c3 -74 1 -89 -14 -100 -16 -11 -17 -13 -2 -19 32 -12 40 1
44 71 2 38 5 71 6 72 1 1 20 -29 42 -67 22 -38 43 -70 46 -70 3 0 22 28 43 63
l37 62 -3 -68 -3 -67 39 0 c32 0 37 2 27 14 -8 9 -11 46 -10 103 l2 88 -31 3
c-28 3 -32 0 -32 -20 0 -25 -42 -110 -57 -115 -5 -2 -20 18 -33 43 -48 92 -50
94 -78 94 l-27 0 4 -87z"/>
</g>
<g>
<path d="M1615 270 c-74 -31 -88 -109 -31 -166 26 -26 42 -34 70 -34 79 0 146
51 146 111 0 30 -39 86 -65 93 -29 8 -97 6 -120 -4z m106 -26 c7 -9 14 -40 15
-69 2 -47 -1 -56 -22 -69 -30 -20 -49 -20 -79 0 -22 14 -25 24 -25 72 0 40 5
58 18 68 24 18 77 17 93 -2z"/>
</g>
<g>
<path d="M1890 262 c-29 -14 -36 -24 -42 -62 -10 -59 -4 -75 38 -101 53 -32
127 -23 167 21 25 28 28 39 24 71 -6 43 -22 64 -62 79 -39 15 -86 12 -125 -8z
m117 -14 c6 -7 13 -32 17 -54 4 -32 2 -47 -12 -65 -23 -28 -73 -30 -102 -4
-17 16 -19 26 -14 69 4 28 12 54 18 58 18 12 83 9 93 -4z"/>
</g>
<g>
<path d="M929 201 c-15 -16 -15 -20 0 -40 21 -27 31 -18 31 26 0 37 -8 41 -31
14z"/>
</g>
<g>
<path d="M2487 113 c-16 -15 -6 -34 15 -31 29 4 38 38 10 38 -10 0 -22 -3 -25
-7z"/>
</g>
<g>
<path d="M2991 64 c0 -11 3 -14 6 -6 3 7 2 16 -1 19 -3 4 -6 -2 -5 -13z"/>
</g>
</g>
</svg>
