<?xml version="1.0" standalone="no"?>
<!DOCTYPE svg PUBLIC "-//W3C//DTD SVG 20010904//EN"
 "http://www.w3.org/TR/2001/REC-SVG-20010904/DTD/svg10.dtd">
<svg version="1.0" xmlns="http://www.w3.org/2000/svg"
 width="300.000000pt" height="525.000000pt" viewBox="0 0 300.000000 525.000000"
 preserveAspectRatio="xMidYMid meet">
<metadata>
Created by potrace 1.15, written by Peter Selinger 2001-2017
</metadata>
<g transform="translate(0.000000,525.000000) scale(0.100000,-0.100000)"
fill="#000000" stroke="none">
<g>
<path d="M16 5241 c-4 -6 -9 -1041 -10 -2299 -2 -1258 -1 -2240 1 -2184 3 85
6 103 18 98 8 -3 17 -1 20 4 8 13 25 13 25 0 0 -5 -7 -10 -15 -10 -24 0 -35
-35 -35 -114 l0 -76 33 -1 32 -2 -33 -6 c-18 -3 -33 -9 -32 -13 1 -26 -3 -30
-10 -8 -7 20 -8 16 -9 -22 -1 -27 4 -48 9 -48 6 0 10 -9 10 -20 0 -11 -4 -20
-10 -20 -5 0 -10 -5 -10 -11 0 -5 4 -8 9 -5 4 3 16 -3 26 -14 17 -19 17 -21
-9 -41 -35 -28 -33 -37 11 -42 l38 -4 -37 -1 c-21 -1 -38 -7 -38 -13 0 -8 393
-10 1478 -6 812 3 1479 6 1482 8 3 1 -20 5 -50 8 l-55 6 -13 70 c-8 39 -16 81
-18 94 -3 13 -14 25 -24 28 -11 3 -20 10 -20 15 0 6 -23 35 -51 66 -28 31 -78
97 -111 146 -66 99 -150 193 -185 207 -39 15 -34 20 67 68 21 10 34 9 72 -8
85 -36 258 -235 241 -277 -5 -14 -3 -16 11 -11 10 4 27 2 38 -4 16 -8 23 -8
29 2 6 10 9 11 9 2 0 -7 7 -13 15 -13 8 0 15 5 15 11 0 22 43 98 52 93 5 -3 3
-13 -4 -22 -10 -12 -10 -16 0 -20 10 -3 11 -42 7 -175 -6 -157 -13 -347 -14
-372 -1 -6 -34 -9 -86 -7 -71 3 -86 1 -91 -13 -8 -20 4 -34 15 -16 5 7 17 11
27 9 17 -3 19 -13 19 -87 0 -45 -3 -85 -7 -88 -5 -2 -8 -8 -8 -14 0 -12 77
-12 85 1 3 5 0 10 -8 10 -17 0 -26 80 -17 140 4 27 11 36 29 38 13 2 28 -2 32
-10 5 -7 9 -68 9 -135 l0 -122 -1485 5 c-1012 3 -1485 1 -1485 -6 0 -7 478 -9
1498 -7 l1497 2 3 1725 c3 1822 -1 2210 -23 2210 -8 0 -16 -12 -18 -27 -2 -16
-5 -4 -6 25 -1 64 -21 70 -21 6 0 -53 -23 -58 -28 -6 -2 18 -7 32 -13 32 -12
0 -11 -32 2 -67 15 -39 18 -121 18 -550 1 -242 5 -373 11 -373 6 0 10 132 10
375 0 321 2 375 14 375 11 0 16 15 19 53 2 28 4 4 5 -55 1 -64 6 -108 12 -108
6 0 10 -32 10 -76 0 -41 -4 -73 -9 -70 -5 3 -11 -9 -14 -27 -7 -49 4 -671 13
-682 10 -14 7 -77 -5 -95 -11 -16 -14 -834 -5 -1150 3 -96 3 -213 0 -259 -4
-73 -7 -82 -19 -68 -7 9 -17 15 -21 12 -5 -3 -25 6 -44 19 -30 20 -33 26 -21
36 8 7 19 27 24 44 l9 31 1 -38 c1 -23 5 -36 11 -32 13 8 13 182 0 190 -5 3
-10 -1 -10 -9 0 -32 -18 -15 -25 22 -5 29 -20 52 -58 90 -51 50 -54 52 -129
60 -57 6 -83 5 -100 -5 -13 -7 -32 -12 -44 -13 -21 0 -21 2 -22 328 -1 322 -8
496 -21 488 -8 -5 -6 -814 2 -823 13 -12 7 -36 -18 -68 -34 -46 -45 -149 -20
-208 27 -67 30 -71 66 -95 39 -26 48 -42 25 -42 -9 0 -18 -11 -22 -25 -9 -36
-59 -34 -104 3 l-34 29 -2 111 c-1 71 2 114 9 119 6 3 7 1 3 -5 -4 -7 -1 -12
6 -12 9 0 14 18 17 58 1 31 4 67 4 79 1 12 -2 22 -8 23 -5 0 -13 -28 -16 -62
-3 -35 -4 259 -2 652 2 398 7 718 12 723 5 5 8 -128 8 -319 -2 -304 -1 -329
15 -326 13 2 16 -4 15 -25 -2 -17 -8 -28 -17 -28 -13 0 -15 -41 -18 -282 -1
-187 1 -283 8 -283 6 0 11 54 11 143 l2 142 8 -105 c5 -58 6 -138 3 -177 -5
-71 7 -99 20 -48 4 14 7 280 8 592 0 313 3 558 5 546 8 -43 23 -23 23 30 0 41
-5 58 -20 72 -25 23 -29 14 -33 -85 -3 -66 -3 -63 -5 27 -2 87 0 102 13 97 10
-4 15 0 15 15 0 12 5 21 11 21 6 0 8 -9 4 -21 -5 -15 -3 -20 6 -17 18 6 24 47
10 61 -6 6 -11 24 -11 39 0 15 -4 28 -10 28 -5 0 -10 -7 -10 -15 0 -8 -6 -14
-12 -12 -8 1 -13 -9 -13 -25 0 -32 -12 -47 -21 -25 -9 23 26 116 41 110 22 -8
26 47 19 251 -6 179 -5 200 8 188 13 -10 16 -7 22 25 3 21 6 151 6 290 0 138
4 254 8 257 5 3 18 2 30 -1 19 -5 22 -12 22 -64 0 -33 4 -59 10 -59 6 0 10 4
10 10 0 5 7 7 16 3 14 -5 15 3 12 61 -3 59 -1 66 15 66 17 0 18 -8 15 -75 -2
-47 1 -74 7 -72 6 2 11 36 13 75 l3 72 44 0 45 0 0 -97 c1 -73 3 -93 11 -80 6
10 9 54 7 97 l-3 80 35 0 c19 -1 66 -7 103 -14 l68 -13 -3 31 c-3 34 -38 52
-39 19 0 -14 -2 -13 -10 5 -5 13 -13 21 -18 18 -5 -4 -21 -2 -36 4 -22 8 -27
7 -35 -13 l-9 -22 0 23 c-1 12 -5 22 -10 22 -5 0 -12 -10 -14 -22 l-4 -23 -2
23 c-1 17 -7 22 -26 22 -17 0 -29 -8 -35 -22 l-9 -23 -7 23 c-3 12 -10 22 -15
22 -5 0 -9 -10 -10 -22 0 -22 0 -22 -9 -2 -6 16 -15 19 -44 16 -20 -2 -36 -8
-36 -13 0 -5 -4 -9 -10 -9 -5 0 -10 7 -10 16 0 12 -3 14 -13 6 -9 -8 -34 -8
-85 0 -102 15 -93 32 12 24 77 -6 85 -5 90 12 4 11 3 27 0 37 -7 16 3 17 156
10 131 -6 170 -11 197 -26 l33 -19 0 44 0 44 -96 1 c-52 0 -99 3 -104 6 -4 2
-13 -2 -20 -10 -14 -17 -120 -21 -120 -5 0 6 -17 10 -38 10 -29 0 -39 5 -47
22 -7 15 -25 26 -55 34 -26 7 -35 12 -22 13 33 1 27 21 -8 21 -26 0 -28 -2
-21 -22 6 -16 19 -25 41 -28 54 -8 49 -30 -7 -31 -70 -2 -76 -3 -79 -14 -9
-25 19 -40 93 -50 57 -8 78 -15 78 -25 0 -12 -11 -14 -55 -11 -110 9 -125 8
-125 -14 0 -21 22 -27 138 -40 42 -5 57 -11 57 -22 0 -15 -41 -14 -161 3 -44
6 -44 5 -61 -117 -8 -62 -17 -94 -30 -106 -10 -9 -20 -14 -23 -12 -2 3 0 34 6
69 25 163 24 165 -7 178 -16 6 -57 14 -92 17 -63 7 -86 20 -61 36 11 7 10 9
-4 9 -11 0 -21 -9 -24 -20 -8 -30 -24 -25 -70 23 -46 47 -63 82 -63 131 0 49
-41 98 -112 136 -47 25 -58 25 -58 0 0 -15 7 -20 24 -20 14 0 28 -4 31 -10 4
-6 -5 -10 -20 -10 -47 0 -21 -25 31 -30 l49 -6 -43 -8 c-29 -5 -48 -4 -55 3
-17 17 -27 13 -27 -9 0 -11 5 -20 10 -20 19 0 10 -18 -12 -24 -23 -5 -23 -6
-3 -20 11 -7 29 -15 40 -17 26 -5 33 -36 34 -161 1 -74 5 -109 14 -115 6 -4
62 -8 122 -8 l110 0 3 -185 c2 -122 -1 -181 -7 -175 -6 6 -12 80 -13 165 l-3
155 -112 5 c-62 3 -115 9 -119 12 -3 4 -9 58 -11 120 -6 112 -14 148 -34 148
-7 0 -8 -14 -4 -40 7 -39 6 -40 -24 -40 -17 0 -31 -5 -31 -10 0 -6 3 -9 8 -9
27 4 52 -3 52 -16 0 -11 -8 -13 -30 -8 -19 3 -30 1 -30 -6 0 -6 16 -11 35 -11
19 0 35 -4 35 -10 0 -5 -20 -10 -45 -10 l-45 0 0 45 c0 25 4 45 9 45 13 0 51
68 51 91 0 18 -12 22 -80 23 -12 0 -15 11 -13 47 2 59 -15 78 -53 60 -14 -6
-33 -11 -43 -11 -24 0 -34 -26 -20 -52 15 -29 -1 -42 -34 -27 -31 14 -33 25
-11 51 14 15 15 20 3 34 -13 16 -11 17 14 12 15 -3 27 -2 27 2 0 12 -45 21
-48 10 -7 -19 -22 -10 -22 14 0 39 -55 51 -69 15 -8 -24 -97 -63 -107 -48 -16
27 -60 -3 -69 -48 -5 -25 -2 -36 14 -50 26 -22 26 -35 1 -58 -22 -20 -23 -18
-24 35 -1 28 -5 36 -23 38 -31 5 -29 26 5 51 21 16 23 20 10 21 -10 0 -18 5
-18 11 0 6 -8 8 -18 5 -17 -6 -19 -2 -48 69 -7 19 -8 19 -12 -3 -2 -13 6 -43
17 -68 26 -54 26 -56 1 -72 -21 -13 -26 -41 -11 -57 14 -16 23 -55 13 -55 -5
0 -12 9 -15 20 -18 68 -37 -34 -37 -197 0 -81 -1 -83 -26 -89 -15 -4 -68 -4
-119 -1 -65 5 -97 3 -108 -6 -13 -9 -17 -37 -19 -130 -3 -90 -7 -120 -18 -127
-13 -8 -16 9 -24 109 -5 66 -6 135 -2 154 l7 35 131 1 c72 1 134 4 138 6 4 2
10 60 13 127 5 94 11 133 27 165 11 23 20 45 20 48 0 4 -25 5 -55 3 -30 -1
-55 0 -55 5 0 7 54 12 103 9 20 -2 27 2 24 10 -3 9 -23 12 -61 11 -31 -1 -56
2 -56 8 0 5 25 9 55 9 52 0 73 14 41 26 -8 3 -12 13 -9 24 3 11 3 27 -1 35 -5
13 -10 14 -28 4 -53 -27 -84 -76 -101 -160 -17 -81 -51 -128 -120 -167 -94
-53 -92 -47 -93 -271 -2 -239 0 -221 -23 -221 -11 0 -38 26 -67 65 -27 35 -57
67 -66 70 -25 9 -31 42 -26 150 3 66 8 99 20 112 24 28 65 107 79 152 7 23 17
41 23 41 16 0 64 59 85 105 53 111 81 179 86 208 9 47 11 217 3 204 -4 -7 -39
-10 -96 -8 -66 2 -92 -1 -98 -11 -5 -7 -23 -54 -40 -104 -41 -117 -54 -140
-106 -193 -70 -70 -154 -103 -267 -103 -58 -1 -75 4 -146 41 -47 25 -98 61
-123 88 l-43 46 2 138 c0 77 5 139 10 139 5 0 9 -33 9 -72 0 -118 50 -200 170
-282 l55 -38 95 4 c114 6 174 30 225 92 44 54 114 204 122 261 l6 44 116 3
116 3 3 55 c2 41 -1 57 -13 66 -13 10 -15 36 -13 180 l3 168 598 3 597 2 1
-37 c1 -20 0 -95 -1 -167 -1 -104 -4 -132 -17 -142 -11 -9 -14 -21 -9 -50 4
-21 11 -110 16 -198 5 -106 14 -175 25 -205 18 -49 91 -156 133 -196 l27 -25
-53 2 c-99 5 -100 -45 0 -56 69 -8 102 -21 93 -36 -4 -5 1 -9 10 -9 11 0 15 7
13 23 -3 20 -11 23 -73 30 -82 8 -95 12 -95 28 0 9 24 10 89 6 85 -6 90 -6 96
14 7 22 1 33 -18 34 -7 1 -29 5 -49 9 -58 12 -46 33 15 27 9 -1 17 3 17 8 0 6
-7 11 -15 11 -8 0 -15 5 -15 10 0 6 -17 10 -37 11 l-38 1 45 13 45 13 -50 2
c-27 2 -59 3 -69 4 -11 1 -21 7 -24 15 -4 11 3 12 32 7 39 -8 106 1 106 14 0
5 -26 6 -59 3 -38 -4 -61 -2 -65 6 -5 7 6 11 34 11 25 0 39 4 35 10 -3 6 -28
10 -55 10 -27 0 -52 5 -56 11 -4 7 7 10 32 8 42 -3 85 14 70 28 -5 4 -11 2
-13 -4 -8 -21 -93 -12 -93 9 0 6 11 7 24 4 14 -3 27 -2 31 3 3 6 -10 13 -30
17 -44 8 -46 24 -2 25 l32 1 -33 8 c-48 11 -51 20 -8 20 24 0 35 4 31 11 -4 6
-13 8 -21 5 -17 -7 -46 3 -39 14 2 4 16 5 30 2 36 -6 31 6 -7 17 l-33 9 35 2
35 2 -35 11 -35 12 42 3 c24 2 43 8 43 13 0 6 12 9 26 7 20 -2 29 -12 40 -43
7 -22 14 -49 14 -61 0 -32 61 -144 88 -162 21 -14 22 -16 6 -33 -11 -13 -14
-27 -10 -45 5 -18 3 -30 -6 -35 -10 -7 -9 -9 5 -9 17 0 21 13 18 57 -3 26 13
37 28 19 8 -10 8 -21 1 -41 -10 -27 -6 -45 11 -45 5 0 7 10 4 23 -3 12 1 30 8
39 13 16 17 16 64 -2 93 -35 169 -43 251 -26 40 9 87 23 105 32 43 22 127 104
127 125 0 11 -22 -5 -63 -45 -116 -113 -251 -134 -427 -64 -111 44 -161 108
-195 248 -11 41 -21 78 -24 81 -9 10 -141 16 -141 7 0 -4 9 -8 19 -8 11 0 23
-4 26 -10 4 -6 -8 -10 -29 -10 l-35 0 5 43 c4 23 7 43 9 45 1 1 49 3 106 5
l104 2 3 -35 c9 -136 47 -226 121 -288 63 -53 105 -71 185 -79 93 -8 163 15
235 80 77 70 104 142 99 271 -2 60 -7 91 -15 94 -7 2 -13 -3 -13 -12 0 -9 -4
-16 -10 -16 -5 0 -10 9 -10 20 0 11 -4 20 -10 20 -5 0 -10 -9 -10 -20 0 -11
-4 -20 -10 -20 -5 0 -10 9 -10 20 0 11 -4 20 -9 20 -5 0 -11 -9 -14 -20 -7
-26 -47 -27 -47 -1 0 13 -7 19 -25 19 -18 0 -25 -6 -25 -19 0 -11 -4 -19 -10
-19 -5 0 -10 9 -10 20 0 11 -7 20 -15 20 -8 0 -15 -9 -15 -20 0 -11 -4 -20
-10 -20 -5 0 -10 9 -10 20 0 11 -5 20 -11 20 -6 0 -9 -9 -6 -20 5 -18 0 -20
-54 -20 -53 0 -59 2 -59 21 0 12 -5 19 -13 16 -6 -2 -11 -12 -9 -22 2 -10 -2
-15 -10 -13 -7 3 -14 14 -16 26 -5 30 -22 28 -22 -3 0 -14 -4 -25 -10 -25 -5
0 -10 9 -10 20 0 11 -5 20 -11 20 -6 0 -9 -9 -6 -20 3 -13 0 -20 -9 -20 -8 0
-14 9 -14 21 0 12 -5 19 -12 16 -7 -2 -12 -11 -10 -21 4 -23 -13 -20 -31 7
l-16 22 0 -22 c-1 -28 -17 -30 -24 -4 -3 14 -11 17 -31 14 -14 -3 -26 -9 -26
-14 0 -18 -18 -8 -24 14 -6 21 -7 21 -24 -8 l-17 -30 -3 28 c-4 31 -22 37 -22
7 0 -11 -4 -20 -10 -20 -5 0 -10 9 -10 20 0 27 -18 25 -23 -2 -4 -19 -5 -18
-6 5 0 18 -6 27 -13 24 -8 -2 -12 -15 -10 -30 3 -21 0 -26 -12 -21 -9 3 -16
14 -16 23 0 9 -3 27 -7 40 l-6 24 444 -6 444 -5 0 193 0 193 -85 1 c-47 0
-168 4 -269 7 -150 6 -185 4 -192 -7 -5 -8 -9 -84 -10 -169 0 -85 -4 -164 -9
-175 -6 -12 -7 51 -3 158 4 130 3 177 -6 177 -7 0 -11 -34 -11 -112 0 -61 -3
-108 -6 -105 -4 4 -6 42 -5 84 1 51 -1 75 -8 68 -5 -5 -11 -53 -12 -105 -3
-78 -1 -95 11 -95 8 0 15 -8 14 -17 -3 -59 -5 -68 -19 -68 -8 0 -15 7 -15 15
0 21 -18 19 -23 -2 -4 -14 -5 -12 -6 5 -1 28 -21 29 -21 1 0 -11 -4 -18 -9
-14 -5 3 -7 27 -5 54 3 28 0 52 -5 56 -11 6 -19 -18 -24 -80 -2 -22 -4 15 -5
83 -2 157 -20 162 -24 5 -2 -88 -6 -117 -17 -121 -11 -4 -12 18 -6 132 5 89 4
136 -3 136 -6 0 -13 -46 -17 -107 -9 -158 -14 -158 -12 0 2 106 0 137 -10 137
-10 0 -13 -29 -13 -119 0 -66 -3 -122 -7 -124 -5 -3 -7 62 -5 144 l3 149 120
0 c77 0 119 4 119 11 0 7 -207 9 -682 7 -376 -2 -911 1 -1189 6 -383 7 -508 6
-513 -3z m414 -18 c9 -113 9 -211 1 -273 l-10 -75 2 84 c1 60 -2 86 -10 88
-10 4 -13 -15 -13 -73 0 -42 -3 -74 -7 -70 -5 4 -6 34 -5 67 3 49 1 59 -12 59
-13 0 -16 -14 -16 -80 0 -49 -4 -80 -11 -80 -13 0 -10 310 4 328 14 18 0 27
-18 12 -11 -9 -15 -33 -15 -96 0 -49 -4 -84 -10 -84 -6 0 -10 35 -10 85 0 50
-4 85 -10 85 -5 0 -10 -21 -10 -46 0 -31 -4 -43 -11 -38 -11 6 -8 89 4 100 3
3 36 9 74 13 37 5 71 9 75 10 4 0 7 -7 8 -16z m-354 -100 c-2 -60 -5 -141 -5
-181 -1 -49 -5 -71 -12 -67 -6 4 -9 37 -8 82 2 55 -2 77 -12 84 -12 8 -11 12
4 23 21 16 22 30 2 22 -10 -3 -15 1 -15 13 0 10 7 21 15 25 11 4 15 20 15 56
0 27 5 50 10 50 7 0 9 -39 6 -107z m83 52 c-1 -30 -5 -55 -10 -55 -5 0 -8 12
-5 28 2 15 5 39 5 55 2 52 10 27 10 -28z m321 -24 c0 -82 13 -114 24 -60 3 18
6 56 6 85 0 51 1 54 25 54 l25 0 -1 -132 c0 -73 -4 -153 -8 -178 -6 -32 -9 0
-10 113 -1 97 -5 157 -11 157 -5 0 -10 -24 -10 -53 0 -93 -13 -268 -19 -261
-3 3 -6 29 -6 58 0 70 -19 70 -26 -1 -3 -32 -5 15 -5 104 0 89 -3 165 -7 169
-12 12 -8 24 8 24 12 0 15 -15 15 -79z m123 -8 c-6 -122 -11 -126 -12 -10 -1
53 3 97 8 97 5 0 7 -39 4 -87z m178 77 c77 0 119 -4 119 -11 0 -5 -4 -8 -9 -5
-9 6 -21 -65 -21 -130 0 -24 -4 -44 -10 -44 -5 0 -10 7 -10 16 0 12 -7 15 -28
12 l-28 -4 7 47 c9 55 7 72 -6 79 -6 3 -13 -27 -17 -70 -4 -41 -12 -113 -17
-160 l-9 -85 0 90 c0 119 0 125 -12 125 -5 0 -10 -26 -11 -57 0 -32 -4 -80 -9
-108 -7 -50 -7 -50 -9 23 -1 54 -4 73 -13 70 -8 -3 -14 -29 -16 -71 -2 -37 -7
-67 -12 -67 -16 0 -13 297 3 303 9 4 8 8 -3 16 -23 16 -28 13 -33 -16 -3 -19
-4 -14 -6 16 -1 36 2 42 15 37 9 -3 69 -6 135 -6z m-662 -97 c-1 -54 -5 -132
-9 -173 -5 -60 -7 -41 -8 98 -1 109 2 172 8 172 6 0 9 -38 9 -97z m78 -47 c-1
-79 1 -148 5 -152 4 -4 14 -1 23 6 13 11 15 9 15 -14 0 -18 -8 -30 -25 -38
-28 -13 -47 -2 -25 13 11 8 12 12 3 16 -21 8 -17 313 3 313 2 0 2 -65 1 -144z
m2373 94 c0 -27 5 -50 10 -50 6 0 10 23 10 50 0 28 5 50 10 50 12 0 13 -59 3
-228 -6 -119 -7 -122 -30 -122 -23 0 -23 1 -23 125 0 77 -4 125 -10 125 -6 0
-11 -49 -12 -122 l-2 -123 -6 163 c-3 95 -9 162 -15 162 -5 0 -9 -33 -8 -77 1
-50 -2 -81 -10 -86 -9 -7 -9 -10 1 -14 15 -6 16 -74 1 -70 -6 1 -14 -4 -16
-10 -3 -7 2 -13 11 -13 11 0 16 -9 16 -31 0 -26 -3 -30 -22 -27 -21 3 -22 5
-19 168 2 112 6 167 14 172 7 4 31 8 55 8 l42 0 0 -50z m133 -10 c-8 -200 -16
-290 -25 -290 -8 0 -9 53 -4 166 6 136 5 165 -6 162 -10 -4 -14 -41 -16 -154
-3 -153 -5 -174 -20 -174 -5 0 -8 21 -6 48 2 26 6 104 10 174 l6 126 31 -1 32
-2 -2 -55z m88 -26 c-1 -43 -5 -89 -7 -100 -6 -22 10 -42 20 -26 2 4 6 51 7
105 l3 97 58 0 c51 0 58 -2 58 -20 0 -11 5 -20 10 -20 6 0 10 9 10 20 0 11 4
20 8 20 5 0 9 -71 10 -159 1 -124 -2 -162 -13 -177 -13 -17 -14 -14 -15 39 0
36 -4 56 -10 52 -5 -3 -10 -29 -10 -56 0 -31 -4 -48 -10 -44 -6 4 -8 59 -4
149 4 99 2 146 -5 150 -6 4 -12 4 -12 -1 -3 -13 -7 -142 -8 -225 -1 -64 -4
-76 -16 -72 -18 7 -20 40 -2 47 9 4 8 8 -3 16 -19 13 -35 9 -36 -10 -3 -43 -5
-49 -14 -49 -5 0 -10 11 -10 25 0 14 -4 25 -10 25 -5 0 -10 -11 -10 -25 0 -14
-4 -25 -10 -25 -5 0 -10 16 -10 35 0 19 -4 35 -10 35 -5 0 -10 -16 -10 -35 0
-25 -5 -35 -15 -35 -12 0 -14 10 -10 53 2 28 7 103 10 166 3 63 8 117 10 122
3 4 17 6 32 5 26 -3 26 -3 24 -82z m-2557 -51 c3 -49 2 -85 -4 -88 -6 -4 -10
29 -10 86 0 51 2 90 4 88 2 -2 6 -41 10 -86z m37 -191 c-13 -21 -15 101 -3
163 6 32 8 22 10 -53 1 -51 -2 -100 -7 -110z m-124 15 c-2 -23 -3 -1 -3 48 0
50 1 68 3 42 2 -26 2 -67 0 -90z m688 109 c0 -27 -15 -49 -15 -23 0 22 -17 22
-23 0 -3 -10 -5 -3 -6 15 -1 27 2 32 22 32 18 0 23 -5 22 -24z m-523 -94 c-9
-35 -10 -33 -10 28 0 55 1 61 10 37 6 -18 7 -40 0 -65z m558 56 c0 -36 -4 -35
-14 5 -4 16 -2 27 4 27 5 0 10 -14 10 -32z m-283 -60 c-2 -13 -4 -3 -4 22 0
25 2 35 4 23 2 -13 2 -33 0 -45z m40 0 c-2 -13 -4 -3 -4 22 0 25 2 35 4 23 2
-13 2 -33 0 -45z m200 -15 c-2 -16 -4 -5 -4 22 0 28 2 40 4 28 2 -13 2 -35 0
-50z m40 -20 c-3 -10 -5 -4 -5 12 0 17 2 24 5 18 2 -7 2 -21 0 -30z m-237 -3
c0 -5 -5 -10 -11 -10 -5 0 -7 5 -4 10 3 6 8 10 11 10 2 0 4 -4 4 -10z m123
-30 l188 -1 -3 -42 c-3 -39 -5 -42 -35 -45 -25 -2 -33 1 -33 12 0 9 -9 17 -20
18 -11 0 -26 1 -32 2 -7 1 -12 -5 -11 -11 2 -7 -2 -13 -7 -13 -6 0 -10 7 -10
15 0 8 -4 15 -10 15 -5 0 -10 -9 -10 -20 0 -11 -4 -20 -9 -20 -5 0 -11 9 -14
20 -3 11 -10 20 -16 20 -6 0 -11 -9 -11 -20 0 -11 -7 -20 -15 -20 -8 0 -15 9
-15 20 0 11 -5 20 -11 20 -6 0 -13 -9 -16 -20 -6 -24 -19 -26 -27 -5 -3 8 -10
15 -16 15 -5 0 -10 -7 -10 -15 0 -8 -4 -15 -10 -15 -5 0 -10 9 -10 20 0 11 -4
20 -10 20 -5 0 -10 -9 -10 -20 0 -27 -18 -25 -22 3 -3 25 -23 21 -22 -5 0 -10
-5 -18 -13 -18 -7 0 -13 7 -13 15 0 21 -20 19 -20 -2 -1 -17 -1 -17 -14 0 -16
21 -26 22 -26 2 0 -8 -5 -15 -10 -15 -6 0 -13 7 -16 15 -8 20 -21 19 -27 -2
-4 -15 -6 -15 -12 5 -9 27 -25 29 -25 2 0 -11 -5 -20 -11 -20 -7 0 -9 10 -7
25 4 17 1 25 -8 25 -8 0 -14 -11 -14 -25 0 -31 -29 -34 -37 -5 -3 11 -9 20
-14 20 -5 0 -9 -9 -9 -20 0 -11 -4 -20 -10 -20 -5 0 -10 9 -10 20 0 12 -7 20
-16 20 -11 0 -15 -6 -11 -20 3 -13 0 -20 -9 -20 -8 0 -14 9 -14 20 0 11 -4 20
-10 20 -9 0 -14 -14 -11 -32 3 -18 -21 -6 -26 12 -6 23 -23 27 -23 5 0 -22
-15 -18 -27 8 l-11 22 -10 -25 c-10 -24 -11 -24 -11 -3 -1 12 -5 25 -11 28 -5
3 -10 13 -10 20 0 12 39 15 228 17 125 2 245 2 267 1 22 -2 125 -3 228 -3z
m-369 -129 c-21 -20 -34 -18 -34 5 0 9 10 14 27 14 26 0 26 0 7 -19z m169 12
c-7 -2 -19 -2 -25 0 -7 3 -2 5 12 5 14 0 19 -2 13 -5z m137 -3 c0 -5 -4 -10
-10 -10 -5 0 -10 5 -10 10 0 6 5 10 10 10 6 0 10 -4 10 -10z m1840 6 c0 -11
-19 -15 -25 -6 -3 5 1 10 9 10 9 0 16 -2 16 -4z m191 -10 c-12 -15 -5 -66 16
-106 12 -23 10 -27 -17 -53 -33 -31 -35 -38 -19 -54 7 -7 7 -13 1 -17 -5 -3
-16 1 -23 10 -10 12 -9 25 4 67 10 32 13 53 7 55 -6 2 -7 20 -4 43 4 25 2 44
-6 54 -11 13 -8 15 20 15 26 0 30 -3 21 -14z m123 -2 c13 -8 27 -26 30 -38 7
-27 40 -40 56 -22 12 16 3 27 -16 19 -9 -3 -14 2 -14 15 0 25 25 35 51 22 19
-11 25 -43 13 -74 -8 -20 -58 -21 -78 -1 -8 8 -19 15 -25 15 -5 0 -18 14 -28
30 -19 34 -38 37 -71 14 -27 -19 -31 2 -4 22 23 18 58 17 86 -2z m-2533 -4
c26 -15 24 -45 -6 -64 -38 -25 -46 -48 -29 -81 16 -32 10 -46 -10 -24 -28 29
-27 54 4 94 38 48 38 65 1 65 -21 0 -32 -6 -36 -20 -6 -20 -25 -28 -25 -12 0
17 46 49 73 51 5 1 17 -4 28 -9z m194 -6 c16 -8 38 -13 48 -10 14 3 16 2 7 -9
-7 -8 -9 -24 -4 -37 6 -21 8 -58 5 -115 0 -13 -7 -23 -15 -23 -8 0 -18 -5 -22
-11 -5 -8 1 -10 20 -7 18 4 26 1 26 -9 0 -24 -29 -72 -51 -84 -30 -16 -38 0
-10 22 13 10 18 19 12 19 -6 0 -11 5 -11 10 0 6 12 10 26 10 14 0 23 4 19 10
-3 6 -15 10 -26 10 -23 0 -24 9 -2 70 14 40 15 54 5 87 -14 46 -51 70 -83 53
-24 -13 -24 -19 1 -50 22 -28 26 -60 8 -78 -19 -19 -30 -14 -18 7 15 29 13 39
-15 63 -63 55 1 113 80 72z m1985 -14 c0 -4 -3 -15 -6 -24 -8 -20 -34 -21 -34
-1 0 8 -4 15 -10 15 -15 0 -12 -36 5 -50 8 -6 19 -9 25 -5 5 3 10 1 10 -4 0
-6 -8 -11 -17 -11 -12 0 -14 -3 -6 -11 17 -17 55 -1 48 21 -3 10 -1 21 5 25 6
4 10 -8 10 -33 0 -24 7 -46 19 -58 13 -15 16 -25 9 -37 -10 -19 12 -70 39 -87
15 -9 11 -10 -16 -6 -37 7 -71 31 -71 52 0 7 -6 15 -12 17 -10 4 -10 7 -1 14
9 6 7 15 -7 33 -18 24 -19 24 -33 6 -18 -24 -32 -6 -23 30 4 14 0 37 -9 54
-27 51 10 101 58 78 9 -5 17 -13 17 -18z m160 15 c21 -19 15 -57 -11 -81 -20
-18 -26 -54 -9 -54 6 0 10 -15 10 -34 0 -39 41 -96 69 -96 20 0 51 49 51 80 0
12 7 28 15 36 27 28 18 -28 -15 -90 -17 -31 -28 -60 -26 -65 3 -4 -1 -16 -8
-27 -12 -15 -16 -16 -30 -5 -9 7 -16 24 -16 37 0 14 -10 30 -24 39 -57 38 -77
148 -36 203 12 17 19 35 16 41 -11 18 -56 13 -87 -10 -36 -25 -39 -8 -3 20 31
25 81 27 104 6z m-2470 -10 c13 -16 7 -45 -10 -45 -5 0 -10 8 -10 17 0 16 -1
16 -16 1 -23 -23 -8 -41 27 -34 16 3 29 2 29 -2 -1 -13 -30 -46 -30 -34 0 7
-9 12 -19 12 -14 0 -18 -5 -14 -21 4 -15 11 -19 27 -15 20 5 24 -1 41 -59 10
-36 27 -74 38 -85 26 -29 14 -37 -28 -17 -32 15 -49 47 -24 47 5 0 7 5 4 11
-4 6 -13 8 -21 5 -8 -3 -14 -1 -14 4 0 6 10 10 23 11 12 0 16 3 10 6 -7 2 -13
11 -13 19 0 17 -12 18 -27 3 -6 -6 -20 -8 -32 -4 -22 7 -28 29 -11 40 15 9 12
40 -7 80 -17 36 -17 37 7 56 30 23 53 24 70 4z m487 -15 c13 -23 13 -29 -3
-67 -12 -28 -22 -39 -32 -35 -12 4 -14 0 -8 -21 8 -32 -9 -45 -23 -18 -17 32
-13 50 14 57 14 3 25 13 25 20 0 12 -4 12 -21 4 -11 -6 -25 -9 -32 -7 -7 3 -4
8 8 13 25 10 35 23 28 41 -8 20 -23 16 -23 -7 0 -11 -4 -20 -10 -20 -5 0 -10
11 -10 25 0 17 8 29 23 35 32 13 46 8 64 -20z m-279 -52 c14 -17 13 -18 -15
-18 -31 0 -35 13 -17 55 l8 20 4 -20 c2 -11 11 -28 20 -37z m542 24 c0 -4 -29
-6 -65 -4 -44 3 -65 1 -65 -7 0 -7 24 -11 65 -11 36 0 65 -4 65 -9 0 -5 -29
-6 -65 -3 -45 3 -65 1 -65 -7 0 -6 18 -11 43 -11 23 0 52 -3 65 -6 43 -12 21
-24 -43 -24 -37 0 -65 4 -65 10 0 6 -7 10 -15 10 -8 0 -15 -4 -15 -9 0 -10 25
-16 108 -26 87 -11 60 -27 -38 -22 -75 4 -90 2 -90 -10 0 -10 6 -13 15 -9 21
8 165 -5 165 -15 0 -4 -42 -5 -94 -2 -64 4 -95 2 -100 -6 -5 -8 9 -11 46 -11
77 0 128 -11 128 -26 0 -22 -33 -83 -42 -78 -4 3 -6 9 -3 14 3 5 -18 13 -47
17 -74 11 -72 11 -72 -17 0 -31 -29 -54 -62 -47 -13 2 -27 0 -30 -4 -3 -5 6
-9 20 -9 40 0 30 -18 -11 -22 -38 -4 -38 -4 -13 -16 25 -12 24 -12 -8 -9 -18
2 -35 0 -38 -5 -3 -4 4 -8 15 -8 12 0 21 -3 21 -8 0 -9 -42 -37 -53 -34 -4 1
-12 -9 -17 -23 -7 -19 -17 -25 -41 -25 -27 0 -30 -2 -19 -15 11 -13 8 -14 -21
-9 -39 8 -50 14 -26 14 10 0 17 5 17 10 0 12 -77 13 -84 1 -7 -11 -300 -11
-335 0 -19 7 -11 8 31 6 32 -2 58 0 58 5 0 4 -21 8 -47 8 -27 0 -55 4 -62 9
-10 6 -1 8 26 4 25 -3 43 -1 47 6 5 7 -4 11 -26 11 -18 0 -40 5 -48 10 -12 8
-9 10 12 10 15 0 30 5 33 10 4 6 -7 10 -24 10 -17 0 -31 5 -31 10 0 6 26 10
58 11 43 1 51 3 32 9 -14 4 -40 8 -57 9 -34 1 -47 21 -15 21 16 1 16 1 0 11
-10 5 -18 14 -18 19 0 18 26 10 56 -15 16 -14 38 -28 48 -31 10 -4 42 -20 70
-37 46 -27 59 -30 131 -30 105 0 185 25 255 78 74 57 105 104 144 217 17 51
35 99 39 106 9 13 157 18 157 4z m1900 -42 c0 -5 -4 -10 -10 -10 -5 0 -10 5
-10 10 0 6 5 10 10 10 6 0 10 -4 10 -10z m108 -6 c17 -5 15 -34 -3 -34 -8 0
-15 5 -15 10 0 6 -9 10 -20 10 -13 0 -20 -7 -20 -20 0 -11 -7 -20 -15 -20 -15
0 -20 26 -9 54 5 14 36 14 82 0z m-2563 -14 c3 -5 2 -10 -4 -10 -5 0 -4 -12 5
-27 25 -49 14 -123 -18 -123 -4 0 -8 18 -8 39 0 22 -6 46 -14 53 -12 12 -12
19 0 46 13 32 28 40 39 22z m45 -4 c0 -3 -4 -8 -10 -11 -5 -3 -10 -1 -10 4 0
6 5 11 10 11 6 0 10 -2 10 -4z m37 -103 c-4 -22 -16 -46 -30 -58 -14 -11 -30
-30 -36 -42 -19 -38 -71 -24 -71 19 0 10 -6 18 -14 18 -14 0 -43 67 -33 76 3
3 14 -10 26 -29 11 -18 30 -42 41 -52 20 -18 21 -18 55 15 19 18 37 46 40 62
10 43 29 35 22 -9z m2393 -53 c0 -12 -28 -25 -36 -17 -9 9 6 27 22 27 8 0 14
-5 14 -10z m-2023 -46 c-3 -3 -12 -4 -19 -1 -8 3 -5 6 6 6 11 1 17 -2 13 -5z
m1822 -10 c2 -2 -17 -4 -42 -4 -26 0 -47 4 -47 9 0 8 79 3 89 -5z m-2172 -10
c-3 -3 -12 -4 -19 -1 -8 3 -5 6 6 6 11 1 17 -2 13 -5z m1065 -22 c-2 -15 2
-22 12 -22 9 0 16 -9 16 -20 0 -13 -7 -20 -20 -20 -21 0 -26 -16 -12 -37 8
-13 73 -43 92 -43 19 0 34 48 21 64 -16 19 -6 35 18 29 10 -3 22 0 25 6 13 21
38 12 35 -11 -2 -13 0 -29 4 -35 12 -19 -2 -35 -23 -28 -10 3 -25 -2 -35 -11
-15 -16 -14 -19 11 -45 23 -24 29 -26 51 -16 16 7 23 17 20 29 -6 20 7 33 24
22 8 -4 8 -9 0 -17 -16 -16 -14 -24 9 -30 30 -8 25 -30 -6 -24 -18 3 -24 1
-20 -9 3 -7 -2 -18 -10 -24 -11 -10 -14 -9 -14 4 0 11 5 14 12 10 7 -4 8 -3 4
4 -12 19 -36 1 -36 -27 l0 -26 -19 30 c-10 17 -27 38 -37 47 -46 41 -146 63
-189 41 -101 -49 -120 -62 -135 -91 -8 -17 -19 -32 -23 -32 -5 0 -6 4 -3 9 8
13 -4 42 -15 35 -5 -3 -9 1 -9 10 0 8 -3 23 -7 33 -6 17 -5 17 14 1 19 -17 20
-17 46 10 32 34 34 57 6 72 -17 9 -19 17 -13 43 8 42 8 41 43 26 35 -16 38
-25 15 -50 -15 -17 -14 -19 17 -32 38 -16 62 -9 80 24 8 17 8 27 -2 47 -12 21
-12 26 -1 30 7 2 18 15 23 29 11 29 35 25 31 -5z m-694 11 c-10 -2 -26 -2 -35
0 -10 3 -2 5 17 5 19 0 27 -2 18 -5z m305 -10 c-7 -2 -19 -2 -25 0 -7 3 -2 5
12 5 14 0 19 -2 13 -5z m-413 -14 c0 -30 -25 -89 -37 -89 -15 0 -10 36 8 55 5
5 9 17 9 27 0 10 5 18 10 18 6 0 10 -5 10 -11z m717 -19 c-3 -12 1 -24 11 -29
13 -8 14 -13 4 -35 -6 -14 -18 -26 -27 -26 -15 0 -18 9 -16 47 1 11 -3 24 -10
28 -8 6 -4 12 12 21 32 17 32 17 26 -6z m-688 -27 c-1 -10 -4 -29 -8 -43 -9
-33 -21 -5 -14 33 6 30 24 37 22 10z m58 -9 c-3 -3 -12 -4 -19 -1 -8 3 -5 6 6
6 11 1 17 -2 13 -5z m1143 -4 c-8 -5 -31 -9 -50 -9 l-35 1 30 8 c17 4 39 8 50
9 16 1 17 -1 5 -9z m-1333 -95 c-7 -33 -16 -54 -20 -49 -9 15 19 122 28 112 3
-3 -1 -31 -8 -63z m453 55 c0 -5 -4 -10 -10 -10 -5 0 -10 5 -10 10 0 6 5 10
10 10 6 0 10 -4 10 -10z m186 0 c24 0 23 -30 -1 -46 -22 -14 -26 -14 -40 -1
-8 9 -15 25 -15 37 0 18 4 21 23 16 12 -3 27 -6 33 -6z m697 3 c-13 -2 -35 -2
-50 0 -16 2 -5 4 22 4 28 0 40 -2 28 -4z m-1261 -104 c-8 -59 -17 -85 -46
-128 -20 -29 -36 -57 -36 -63 0 -12 -62 -38 -91 -38 -12 0 -23 8 -26 20 -3 11
-9 20 -14 20 -5 0 -8 12 -8 28 2 23 2 24 6 5 7 -35 23 -27 23 10 0 18 7 57 16
86 13 44 18 50 30 41 7 -7 27 -10 44 -8 16 3 30 3 30 1 0 -1 -16 -17 -35 -35
-36 -33 -61 -108 -36 -108 6 0 14 17 17 39 5 31 15 45 49 69 32 23 44 38 49
67 9 44 29 91 34 77 1 -5 -1 -43 -6 -83z m-121 14 c-9 -15 -10 -12 -11 18 0
20 3 39 8 43 11 12 14 -42 3 -61z m522 50 c-7 -2 -21 -2 -30 0 -10 3 -4 5 12
5 17 0 24 -2 18 -5z m618 -16 c-13 -13 -26 -3 -16 12 3 6 11 8 17 5 6 -4 6
-10 -1 -17z m89 9 c0 -8 -4 -17 -9 -21 -12 -7 -24 12 -16 25 9 15 25 12 25 -4z
m137 8 c-3 -3 -12 -4 -19 -1 -8 3 -5 6 6 6 11 1 17 -2 13 -5z m622 0 c17 -4
28 -10 25 -15 -7 -12 -64 -12 -64 0 0 5 -12 12 -27 14 -27 4 -27 4 3 6 17 0
45 -2 63 -5z m349 -21 c-10 -2 -28 -2 -40 0 -13 2 -5 4 17 4 22 1 32 -1 23 -4z
m-1320 -23 c43 -20 49 -40 11 -40 -11 0 -31 -7 -44 -16 -22 -14 -25 -24 -25
-75 0 -60 16 -82 22 -31 3 25 7 27 55 30 41 2 52 0 48 -11 -3 -7 -1 -24 4 -38
9 -22 10 -20 12 19 1 23 3 47 4 52 1 6 3 13 4 16 0 4 8 1 16 -6 11 -9 15 -33
15 -85 0 -43 6 -88 16 -110 18 -43 15 -48 -19 -40 -27 7 -47 49 -44 90 3 31
-16 29 -20 -2 -5 -33 -47 -88 -85 -111 -23 -14 -32 -14 -68 -2 -73 24 -130
113 -130 201 0 34 2 36 33 36 18 0 45 3 60 7 25 6 27 4 27 -24 0 -16 5 -30 11
-30 7 0 9 10 5 28 -4 15 -7 39 -6 54 0 32 -12 41 -68 48 -23 3 -43 10 -43 15
-1 15 81 44 126 44 22 0 59 -8 83 -19z m-1163 -9 c44 -7 81 -14 83 -15 1 -2
-5 -19 -13 -39 -14 -34 -17 -36 -42 -26 -15 5 -36 9 -47 7 -12 -1 -27 1 -34 5
-8 6 -15 0 -21 -15 -9 -21 -10 -21 -10 -3 -1 17 -8 21 -46 23 -42 1 -45 0 -45
-24 0 -14 -4 -22 -10 -19 -5 3 -10 15 -10 26 0 10 -4 19 -10 19 -5 0 -10 -11
-10 -25 0 -31 -17 -33 -22 -3 -2 12 -9 23 -17 26 -10 3 -13 -2 -9 -22 3 -14 1
-26 -3 -26 -5 0 -9 11 -9 23 0 30 -10 40 -26 26 -7 -5 -25 -11 -41 -13 -22 -1
-28 -6 -26 -24 2 -12 -2 -22 -7 -22 -6 0 -10 14 -10 30 0 20 -5 30 -15 30 -25
0 -19 49 8 55 95 23 263 26 392 6z m615 -10 c0 -6 -4 -13 -10 -16 -5 -3 -10 1
-10 9 0 9 5 16 10 16 6 0 10 -4 10 -9z m57 -7 c-3 -3 -12 -4 -19 -1 -8 3 -5 6
6 6 11 1 17 -2 13 -5z m133 -14 c12 -8 9 -10 -12 -10 -33 0 -38 -20 -5 -21 21
0 21 -1 -3 -11 -24 -11 -24 -12 14 -17 34 -5 37 -8 24 -19 -10 -8 -26 -10 -42
-6 -23 5 -26 11 -26 50 0 46 15 56 50 34z m-232 -37 c-2 -18 -10 -29 -23 -32
-16 -3 -17 -1 -7 12 7 8 12 19 11 23 -3 16 1 24 12 24 6 0 9 -12 7 -27z m455
7 c5 -4 -10 -7 -32 -6 -29 0 -44 -5 -55 -19 -15 -19 -15 -19 -16 7 0 17 6 28
18 31 21 6 74 -2 85 -13z m196 6 c8 -9 8 -16 2 -20 -5 -4 -12 -2 -15 3 -9 14
-58 3 -72 -17 -8 -9 -14 -12 -14 -6 -1 39 74 70 99 40z m-599 -6 c0 -5 -4 -10
-10 -10 -5 0 -10 5 -10 10 0 6 5 10 10 10 6 0 10 -4 10 -10z m885 0 c3 -5 1
-10 -4 -10 -6 0 -11 5 -11 10 0 6 2 10 4 10 3 0 8 -4 11 -10z m-592 -147 c2
-75 -1 -95 -15 -109 -20 -20 -48 -12 -48 14 0 11 7 36 15 55 8 20 15 58 15 84
0 26 3 59 7 72 l6 25 9 -25 c5 -13 10 -65 11 -116z m-398 117 c3 -5 -1 -10
-10 -10 -9 0 -13 5 -10 10 3 6 8 10 10 10 2 0 7 -4 10 -10z m-925 -21 c0 -5
-4 -9 -10 -9 -5 0 -10 7 -10 16 0 8 5 12 10 9 6 -3 10 -10 10 -16z m1265 -106
c-3 -24 -10 -45 -16 -48 -16 -11 -10 -64 11 -83 19 -18 20 -24 10 -148 -13
-159 -39 -398 -48 -441 -8 -37 -14 -35 -61 25 l-34 43 31 177 c17 97 36 224
42 282 6 58 15 119 20 135 5 17 17 66 27 110 18 79 18 79 21 35 2 -25 1 -64
-3 -87z m511 -233 c9 -47 22 -144 29 -216 8 -72 21 -151 29 -175 9 -24 16 -49
16 -56 0 -17 -59 -83 -74 -83 -15 0 -33 141 -46 371 -6 90 -13 184 -16 208 -5
35 -3 47 10 56 15 11 15 17 2 56 -17 50 -20 83 -16 154 2 42 6 27 27 -90 13
-77 31 -178 39 -225z m209 325 c0 -28 -3 -30 -35 -30 -25 0 -36 5 -38 18 -5
27 18 48 47 45 22 -2 26 -8 26 -33z m314 20 c3 -3 -2 -54 -11 -113 -14 -95
-19 -111 -46 -140 -39 -41 -46 -78 -32 -162 18 -102 19 -132 7 -157 -13 -28
-15 -28 -49 1 l-26 24 0 282 -1 283 76 -7 c42 -3 79 -8 82 -11z m-229 -16 c0
-5 -4 -9 -10 -9 -5 0 -10 7 -10 16 0 8 5 12 10 9 6 -3 10 -10 10 -16z m-1022
-18 c5 -32 -11 -46 -37 -32 -21 11 -28 41 -14 55 15 15 48 1 51 -23z m1062 19
c0 -5 -4 -10 -10 -10 -5 0 -10 5 -10 10 0 6 5 10 10 10 6 0 10 -4 10 -10z
m-1860 -39 c0 -47 17 -64 23 -24 3 23 4 22 6 -9 1 -47 20 -60 23 -16 3 63 4
67 11 75 5 4 8 -98 7 -227 -1 -310 -2 -302 10 -295 6 4 10 96 11 238 1 128 5
246 9 262 5 18 8 -31 9 -123 1 -126 4 -154 16 -158 8 -4 15 -14 15 -24 0 -10
-7 -20 -15 -24 -17 -6 -21 -66 -6 -82 5 -5 4 -29 -4 -59 -11 -42 -14 -265 -6
-392 2 -41 21 -24 21 20 1 33 3 38 11 25 6 -11 10 -138 9 -338 0 -211 3 -320
10 -320 10 0 12 78 11 370 0 129 1 142 13 115 9 -19 12 -49 9 -86 -4 -36 -2
-59 6 -63 7 -5 11 5 11 28 0 20 4 36 9 36 12 0 21 -93 13 -127 -9 -33 -4 -73
9 -73 5 0 9 14 9 31 0 16 4 28 9 25 5 -3 7 -24 4 -46 -4 -26 -2 -40 6 -40 6 0
11 5 11 10 0 6 5 10 11 10 8 0 10 -69 9 -232 -3 -293 -3 -281 15 -274 12 4 15
-3 15 -29 0 -24 -5 -35 -15 -35 -13 0 -15 -31 -15 -220 0 -140 4 -220 10 -220
13 0 13 2 13 235 l-1 200 8 -140 c11 -210 11 -383 0 -390 -6 -4 -10 8 -10 29
0 42 -15 48 -24 11 l-7 -26 -35 27 c-30 23 -48 28 -114 32 -93 5 -121 -8 -189
-88 -38 -44 -44 -60 -51 -118 -5 -37 -12 -75 -16 -85 -4 -13 -1 -17 15 -17 12
0 21 -6 21 -15 0 -8 5 -15 10 -15 6 0 10 -7 10 -15 0 -9 11 -20 25 -25 34 -13
33 -34 -1 -26 -17 5 -32 2 -43 -8 -9 -8 -38 -19 -66 -24 -27 -5 -58 -13 -69
-17 -17 -8 -18 -5 -12 38 5 31 4 47 -3 47 -10 0 -16 -37 -13 -79 0 -8 -8 -26
-19 -39 l-19 -25 2 94 c1 52 3 77 5 57 2 -21 9 -38 15 -38 14 0 4 133 -11 138
-8 3 -11 125 -10 420 1 230 4 405 6 390 2 -16 9 -28 14 -28 5 0 9 59 9 137 0
157 -17 175 -23 23 -3 -86 -3 -83 -5 34 -2 116 0 128 13 110 13 -17 14 -12 15
59 0 45 -4 77 -10 77 -13 0 -13 61 0 95 7 18 6 39 -1 68 -18 67 -22 127 -10
127 15 0 14 85 -1 128 -11 29 -10 35 5 47 23 16 24 129 2 151 -16 17 -21 79
-6 88 15 10 24 115 11 132 -10 11 -10 14 0 14 9 0 11 25 8 95 -1 52 0 95 5 95
4 0 7 -7 7 -15 0 -8 5 -15 10 -15 6 0 10 33 10 80 0 73 -12 105 -23 63 -3 -10
-5 -3 -6 15 -1 21 3 31 12 30 8 -2 13 19 15 75 2 48 -1 77 -8 77 -5 0 -10 -22
-10 -52 0 -65 -6 -59 -13 15 l-6 57 31 0 c29 0 30 -1 26 -42 -2 -24 2 -45 7
-48 6 -3 11 17 13 47 l3 52 52 4 c137 9 127 12 127 -32z m630 19 c0 -5 -4 -10
-10 -10 -5 0 -10 5 -10 10 0 6 5 10 10 10 6 0 10 -4 10 -10z m315 0 c19 -8 19
-9 -2 -9 -28 -1 -31 -21 -3 -21 11 0 20 -4 20 -10 0 -5 -9 -10 -20 -10 -11 0
-20 -4 -20 -10 0 -5 7 -10 15 -10 8 0 15 -4 15 -10 0 -5 -9 -10 -20 -10 -17 0
-20 7 -20 50 0 52 2 54 35 40z m-768 -37 c-3 -10 -5 -4 -5 12 0 17 2 24 5 18
2 -7 2 -21 0 -30z m2043 -89 c0 -96 -3 -125 -12 -121 -8 2 -12 16 -10 35 2 22
-1 34 -12 38 -11 4 -16 18 -15 43 l1 36 12 -38 c6 -21 15 -35 19 -31 13 13 -5
128 -21 138 -12 7 -12 10 -1 17 35 22 39 12 39 -117z m-1643 94 c-3 -8 -6 -5
-6 6 -1 11 2 17 5 13 3 -3 4 -12 1 -19z m1003 12 c0 -5 -18 -10 -40 -10 -22 0
-40 5 -40 10 0 6 18 10 40 10 22 0 40 -4 40 -10z m240 -10 c0 -5 -4 -10 -10
-10 -5 0 -10 5 -10 10 0 6 5 10 10 10 6 0 10 -4 10 -10z m50 -6 c0 -9 -5 -14
-12 -12 -18 6 -21 28 -4 28 9 0 16 -7 16 -16z m-1204 -21 c-10 -10 -19 5 -10
18 6 11 8 11 12 0 2 -7 1 -15 -2 -18z m-516 7 c0 -5 -4 -10 -10 -10 -5 0 -10
5 -10 10 0 6 5 10 10 10 6 0 10 -4 10 -10z m1430 0 c0 -6 -16 -10 -35 -10 -19
0 -35 4 -35 8 0 5 16 9 35 10 19 1 35 -3 35 -8z m0 -32 c0 -4 -13 -8 -30 -8
-16 0 -30 4 -30 9 0 5 14 9 30 9 17 -1 30 -5 30 -10z m-1425 -39 c-10 -15 -25
-10 -19 6 4 8 10 12 15 9 5 -3 7 -10 4 -15z m138 -1 c-2 -5 -11 -8 -19 -8 -8
0 -14 -4 -14 -9 0 -20 22 -22 48 -6 21 12 20 9 -7 -14 -38 -34 -35 -51 5 -32
32 14 38 10 31 -21 -4 -14 -19 -29 -34 -35 l-28 -11 26 -1 c15 -1 32 -8 39
-16 11 -13 8 -15 -16 -16 l-29 -2 28 -4 c34 -5 36 -23 2 -23 -14 0 -25 -5 -25
-11 0 -7 10 -9 24 -5 35 9 42 -10 9 -22 l-28 -10 33 -1 c34 -1 32 2 37 -80 1
-16 7 -42 13 -58 20 -53 22 -97 7 -127 -9 -16 -13 -31 -10 -34 2 -3 7 3 11 12
3 9 12 16 20 16 9 0 14 12 14 37 l0 36 25 -23 c21 -19 25 -32 23 -62 -2 -21
-7 -38 -12 -37 -5 0 -22 -27 -37 -60 -28 -61 -48 -85 -28 -35 14 38 3 41 -16
5 -15 -30 -32 -44 -22 -18 2 6 -1 17 -7 23 -13 12 -36 7 -36 -8 0 -6 7 -8 15
-4 8 3 15 1 15 -5 0 -16 -25 -21 -53 -10 -29 11 -35 27 -14 34 6 2 0 2 -15 0
-20 -3 -28 0 -28 11 0 9 6 13 14 10 8 -3 17 0 22 7 5 8 2 11 -8 6 -18 -6 -58
31 -58 54 0 8 5 20 12 27 9 9 9 12 0 12 -7 0 -12 7 -12 15 0 8 7 15 16 15 14
0 14 3 4 15 -10 12 -10 15 3 15 27 0 29 30 2 40 -30 11 -34 25 -5 17 11 -3 20
-1 20 4 0 5 -4 9 -8 9 -5 0 -16 6 -26 13 -15 11 -17 17 -7 35 6 12 18 22 26
22 23 0 18 17 -6 23 -23 6 -17 27 7 27 8 0 12 5 9 10 -3 6 -17 10 -31 10 -24
0 -32 14 -14 25 5 3 7 12 3 20 -3 9 0 22 6 29 9 11 9 15 -1 19 -8 4 -7 6 5 6
24 1 21 17 -5 25 -22 7 -22 7 -3 15 19 8 19 8 -2 19 -14 8 -20 18 -16 32 3 11
0 20 -6 20 -15 0 -14 16 3 33 14 14 118 19 109 5z m647 2 c0 -5 -7 -10 -15
-10 -8 0 -15 5 -15 10 0 6 7 10 15 10 8 0 15 -4 15 -10z m768 -6 c56 -4 102
-11 102 -15 0 -5 -6 -9 -12 -10 -7 0 -3 -4 10 -9 12 -5 22 -16 22 -25 0 -11
-12 -15 -51 -15 -31 0 -48 -4 -44 -10 3 -5 26 -10 51 -10 34 0 44 -4 44 -16 0
-14 -11 -16 -70 -12 -38 2 -70 1 -70 -3 0 -8 62 -19 108 -19 17 0 32 -4 32 -9
0 -15 -151 -18 -190 -4 -33 12 -34 12 -7 13 15 0 27 5 27 10 0 6 -26 10 -59
10 -33 0 -62 3 -64 8 -2 4 -7 36 -11 71 l-7 63 43 -6 c24 -3 89 -9 146 -12z
m-598 -15 c0 -22 107 -99 137 -99 12 0 14 -3 7 -10 -7 -7 -23 -5 -48 5 -21 9
-45 14 -53 11 -9 -4 -13 0 -11 12 2 12 -4 17 -22 17 -22 0 -25 5 -28 44 -2 28
0 41 7 36 6 -3 11 -11 11 -16z m1013 -9 c-7 -28 -13 -25 -13 6 0 14 4 23 9 20
5 -3 7 -15 4 -26z m-1188 -31 c0 -20 -6 -25 -40 -31 -22 -4 -85 -7 -140 -7
-124 1 -121 1 -109 -11 12 -12 104 -14 195 -5 44 4 69 3 74 -4 4 -7 -9 -11
-39 -11 -25 0 -46 -4 -46 -10 0 -5 8 -10 18 -11 9 0 -7 -11 -35 -24 -39 -18
-53 -29 -53 -44 0 -12 3 -21 8 -21 4 0 23 -25 42 -55 19 -30 39 -55 44 -55 5
0 1 -9 -9 -21 -19 -20 -19 -20 10 -9 37 14 45 3 31 -45 l-12 -40 -24 26 c-14
14 -43 52 -65 83 -22 32 -41 52 -43 46 -2 -6 4 -20 14 -31 37 -41 6 -25 -44
23 -48 46 -50 50 -25 44 25 -6 26 -5 11 7 -21 16 -24 37 -5 37 6 1 1 8 -13 16
-24 15 -24 15 17 10 42 -6 65 6 41 20 -9 6 -6 10 10 14 45 10 21 25 -40 25
l-63 0 3 -32 c2 -19 -1 -33 -7 -33 -7 0 -11 32 -11 88 l0 88 153 -1 152 -2 0
-24z m455 14 c0 -9 10 -27 22 -40 18 -20 19 -23 5 -23 -9 0 -17 6 -17 14 0 8
-5 18 -11 22 -13 8 -29 -14 -22 -32 2 -6 -1 -15 -8 -20 -9 -5 -10 -2 -6 9 5
12 1 17 -12 17 -10 0 -21 -7 -25 -15 -6 -17 -36 -21 -36 -5 0 6 6 10 14 10 8
0 30 18 48 40 36 43 48 49 48 23z m-1235 -40 c5 -17 2 -23 -9 -23 -11 0 -16
10 -16 32 0 34 13 29 25 -9z m2020 7 c12 -19 -5 -29 -36 -20 -19 6 -39 5 -55
-2 -31 -14 -45 -1 -20 18 23 16 102 19 111 4z m-1097 -21 c-2 -6 -8 -10 -13
-10 -5 0 -11 4 -13 10 -2 6 4 11 13 11 9 0 15 -5 13 -11z m938 -17 c-4 -11
-15 -30 -26 -42 -27 -31 -26 -5 1 39 21 35 35 37 25 3z m138 -8 c28 -11 5 -25
-29 -18 -25 4 -43 1 -68 -15 -37 -23 -47 -25 -47 -13 0 5 12 15 28 23 55 27
88 34 116 23z m-955 -20 c1 -1 0 -7 -4 -13 -7 -13 -45 4 -45 20 0 9 37 4 49
-7z m-108 -32 c14 -21 28 -54 32 -75 6 -36 5 -37 -23 -37 -16 0 -31 4 -34 8
-10 16 -19 142 -10 142 5 -1 21 -18 35 -38z m309 29 c0 -5 -7 -14 -15 -21 -16
-14 -18 -10 -9 14 6 17 24 22 24 7z m50 -78 c0 -67 -12 -87 -31 -51 -6 13 -13
24 -14 26 -1 1 -23 -7 -50 -19 -62 -28 -149 -23 -190 9 -33 26 -28 28 22 7 46
-19 77 -19 137 3 38 13 56 28 80 63 37 54 46 47 46 -38z m-210 56 c0 -6 -4 -7
-10 -4 -5 3 -10 11 -10 16 0 6 5 7 10 4 6 -3 10 -11 10 -16z m920 -4 c22 -13
-2 -22 -48 -17 -37 3 -51 0 -62 -14 -14 -16 -13 -17 10 -11 14 4 42 4 62 1 35
-6 37 -8 31 -38 -3 -17 -10 -36 -14 -42 -5 -6 -6 -14 -2 -17 3 -4 1 -7 -5 -7
-6 0 -21 -21 -33 -47 -33 -73 -58 -82 -51 -19 3 22 10 36 18 36 9 0 14 11 14
28 0 16 9 37 20 47 38 34 18 65 -29 45 -27 -11 -29 -15 -35 -98 -4 -48 -11
-114 -17 -147 -5 -33 -14 -85 -19 -115 -22 -131 -41 -257 -65 -430 -49 -352
-56 -384 -75 -364 -5 5 8 109 31 244 22 129 43 264 48 300 7 52 47 314 65 428
2 12 -1 22 -5 22 -5 0 -9 7 -9 15 0 8 4 15 9 15 9 0 32 97 32 135 0 42 87 76
129 50z m-1993 -27 c-3 -8 -6 -5 -6 6 -1 11 2 17 5 13 3 -3 4 -12 1 -19z
m1028 12 c3 -5 -3 -10 -14 -10 -12 0 -21 5 -21 10 0 6 6 10 14 10 8 0 18 -4
21 -10z m1025 -77 c0 -49 -3 -105 -6 -126 -6 -32 -8 -35 -19 -20 -9 12 -10 26
-2 52 5 20 7 69 4 109 -4 58 -3 72 9 72 11 0 14 -18 14 -87z m-390 67 c0 -5
-24 -10 -54 -10 -30 0 -58 5 -61 10 -4 6 17 10 54 10 34 0 61 -4 61 -10z m176
-33 c-3 -16 -6 -43 -6 -60 0 -50 -17 -17 -23 44 -5 53 -4 56 15 51 16 -4 19
-10 14 -35z m-188 -4 c-10 -2 -26 -2 -35 0 -10 3 -2 5 17 5 19 0 27 -2 18 -5z
m3 -35 c1 -7 1 -18 0 -25 -1 -6 3 -14 9 -18 19 -12 10 -23 -37 -51 -27 -15
-68 -46 -93 -69 -55 -51 -99 -80 -107 -72 -11 11 -16 107 -6 107 6 0 46 32 89
70 63 57 84 70 111 70 19 0 33 -5 34 -12z m-1616 -28 c3 -5 1 -10 -4 -10 -6 0
-11 5 -11 10 0 6 2 10 4 10 3 0 8 -4 11 -10z m1969 -27 c-9 -52 -14 -54 -14
-5 0 23 5 42 10 42 7 0 8 -14 4 -37z m-30 -74 c-4 -7 -44 -19 -44 -14 0 2 5
15 12 29 10 24 12 24 24 8 7 -9 10 -20 8 -23z m22 -46 c-3 -3 -13 -2 -23 2
-17 7 -17 8 2 15 19 7 34 -5 21 -17z m-176 7 c0 -5 -5 -10 -11 -10 -5 0 -7 5
-4 10 3 6 8 10 11 10 2 0 4 -4 4 -10z m-926 -9 c4 -5 -3 -7 -14 -4 -23 6 -26
13 -6 13 8 0 17 -4 20 -9z m1046 4 c0 -10 -40 -24 -54 -19 -28 11 -17 24 19
24 19 0 35 -2 35 -5z m30 -35 c0 -18 -7 -20 -55 -20 -31 0 -55 5 -55 10 0 6
10 8 24 4 14 -3 36 1 53 10 15 8 29 15 31 16 1 0 2 -9 2 -20z m-1053 -14 c32
-13 66 -27 75 -30 14 -4 17 -15 16 -46 -1 -23 -5 -43 -9 -45 -6 -5 -35 5 -121
43 -21 9 -38 21 -38 28 0 17 12 74 16 74 1 0 29 -11 61 -24z m218 -26 c0 -19
-6 -25 -33 -31 -33 -7 -60 -23 -32 -19 54 8 61 2 59 -47 -2 -70 10 -258 22
-333 6 -36 10 -145 9 -242 0 -142 3 -184 15 -207 14 -27 13 -31 -1 -39 -21
-12 -14 -122 14 -214 19 -63 20 -72 6 -185 -7 -65 -14 -179 -14 -254 0 -91 -4
-139 -12 -147 -9 -9 -9 -12 1 -12 8 0 19 7 26 16 11 15 12 15 18 -5 3 -14 1
-21 -9 -21 -10 0 -12 -10 -8 -44 6 -41 5 -45 -23 -59 -38 -20 -77 -4 -81 33
-2 14 -8 35 -14 47 -8 16 -9 93 -5 255 3 128 1 278 -4 333 -5 55 -12 219 -15
365 -4 146 -9 343 -11 438 -5 154 -4 172 11 172 12 0 16 -10 16 -40 0 -22 5
-40 10 -40 6 0 10 18 10 40 0 27 6 42 18 49 16 10 16 10 0 11 -14 0 -18 9 -18
40 0 22 -4 40 -10 40 -5 0 -10 -18 -10 -40 0 -33 -3 -40 -19 -40 -15 0 -20 9
-24 38 -4 29 -3 157 2 170 1 2 25 2 54 0 48 -3 52 -5 52 -28z m165 -10 c0 -39
-2 -42 -52 -65 -29 -14 -63 -25 -75 -25 -19 0 -23 5 -23 33 0 18 6 41 13 50
13 18 80 45 115 46 19 1 22 -4 22 -39z m613 -4 c10 -3 15 -10 12 -16 -4 -6
-10 -8 -15 -5 -5 3 -11 1 -15 -5 -4 -6 5 -10 19 -10 16 0 26 6 26 15 0 8 7 15
15 15 23 0 18 -28 -7 -36 -21 -6 -21 -7 -3 -20 17 -12 17 -14 2 -14 -9 0 -17
-5 -17 -10 0 -6 11 -8 25 -4 30 7 34 -12 5 -21 -11 -3 -20 -10 -20 -15 0 -4 9
-6 20 -3 25 7 26 -5 3 -23 -17 -12 -17 -13 3 -14 18 0 21 -7 22 -43 2 -38 -1
-44 -25 -54 -26 -10 -26 -11 -5 -12 27 -1 28 -9 5 -27 -10 -7 -13 -14 -8 -14
6 0 10 -17 9 -37 -1 -34 -8 -54 -47 -130 -13 -26 -49 -30 -67 -8 -7 8 -21 15
-32 15 -15 0 -19 -5 -15 -20 3 -11 0 -23 -5 -27 -8 -4 -9 11 -4 47 8 63 14 76
29 61 13 -13 54 -15 61 -2 3 5 -12 11 -34 15 -22 3 -40 11 -40 17 0 6 9 7 23
3 34 -12 70 -10 74 4 3 7 -1 10 -11 6 -8 -3 -32 0 -52 6 l-36 12 6 47 c4 25
13 100 22 166 20 165 21 167 42 156 9 -5 25 -12 35 -15z m-463 -10 c0 -8 -4
-18 -10 -21 -5 -3 -10 3 -10 14 0 12 5 21 10 21 6 0 10 -6 10 -14z m560 -38
c-1 -28 -2 -30 -11 -15 -6 10 -8 25 -5 33 9 24 16 16 16 -18z m517 -30 c-2
-13 -4 -5 -4 17 -1 22 1 32 4 23 2 -10 2 -28 0 -40z m-2247 -59 c-31 -43 -35
-30 -8 32 20 47 23 50 26 26 2 -16 -6 -40 -18 -58z m705 1 c3 -5 1 -10 -4 -10
-6 0 -11 5 -11 10 0 6 2 10 4 10 3 0 8 -4 11 -10z m177 -32 c-9 -9 -12 -7 -12
12 0 19 3 21 12 12 9 -9 9 -15 0 -24z m-1032 -10 c0 -13 -23 -5 -28 10 -2 7 2
10 12 6 9 -3 16 -11 16 -16z m1240 -42 c0 -11 -19 -15 -25 -6 -3 5 1 10 9 10
9 0 16 -2 16 -4z m650 -96 c0 -5 -5 -10 -11 -10 -5 0 -7 5 -4 10 3 6 8 10 11
10 2 0 4 -4 4 -10z m-290 -90 c0 -5 -4 -10 -10 -10 -5 0 -10 5 -10 10 0 6 5
10 10 10 6 0 10 -4 10 -10z m127 -116 c-3 -3 -12 -4 -19 -1 -8 3 -5 6 6 6 11
1 17 -2 13 -5z m70 -131 c-3 -10 -5 -4 -5 12 0 17 2 24 5 18 2 -7 2 -21 0 -30z
m-740 -5 c-3 -7 -5 -2 -5 12 0 14 2 19 5 13 2 -7 2 -19 0 -25z m0 -65 c-3 -10
-5 -4 -5 12 0 17 2 24 5 18 2 -7 2 -21 0 -30z m739 -330 c-3 -186 -8 -504 -12
-708 -3 -203 -8 -373 -10 -377 -6 -9 -85 -11 -108 -2 -12 5 -16 21 -16 65 0
56 1 59 33 75 85 43 90 61 66 231 -17 120 -18 152 -8 248 18 182 -6 426 -50
501 -24 40 -24 38 40 169 26 55 51 108 53 118 3 9 8 17 11 17 4 0 4 -152 1
-337z m-1722 309 c9 -28 107 -122 149 -144 35 -18 37 -21 24 -36 -44 -50 -61
-115 -71 -267 -10 -157 -8 -176 38 -342 12 -42 13 -91 6 -263 l-8 -212 39 -39
c41 -41 46 -53 27 -65 -7 -4 -8 -3 -4 4 4 7 0 13 -11 13 -62 5 -95 6 -152 8
l-63 1 7 38 c8 37 7 810 0 1145 -3 102 -1 177 5 177 5 0 11 -8 14 -18z m1795
-167 c-1 -102 -5 -185 -10 -185 -9 0 -11 317 -2 353 11 44 14 4 12 -168z
m-1839 143 c0 -18 -2 -20 -9 -8 -6 8 -7 18 -5 22 9 14 14 9 14 -14z m1524
-143 c-4 -8 -10 -12 -15 -9 -11 6 -2 24 11 24 5 0 7 -7 4 -15z m-74 -34 c0
-12 -28 -22 -34 -12 -3 5 -3 11 1 15 9 9 33 7 33 -3z m-1453 -143 c-2 -24 -4
-5 -4 42 0 47 2 66 4 43 2 -24 2 -62 0 -85z m1553 112 c0 -5 -2 -10 -4 -10 -3
0 -8 5 -11 10 -3 6 -1 10 4 10 6 0 11 -4 11 -10z m-1012 -55 c-3 -3 -9 2 -12
12 -6 14 -5 15 5 6 7 -7 10 -15 7 -18z m733 -8 c-13 -13 -26 -3 -16 12 3 6 11
8 17 5 6 -4 6 -10 -1 -17z m71 -49 c-5 -35 -17 -36 -38 -3 -23 35 -13 57 18
43 19 -9 23 -18 20 -40z m-746 -66 c-8 -8 -19 -11 -25 -7 -16 9 -6 21 18 21
18 0 19 -2 7 -14z m584 -42 c0 -5 -2 -10 -4 -10 -3 0 -8 5 -11 10 -3 6 -1 10
4 10 6 0 11 -4 11 -10z m660 -15 c0 -8 -4 -15 -10 -15 -5 0 -10 7 -10 15 0 8
5 15 10 15 6 0 10 -7 10 -15z m-1218 -47 c-7 -7 -12 -8 -12 -2 0 14 12 26 19
19 2 -3 -1 -11 -7 -17z m628 -38 c0 -5 -4 -10 -10 -10 -5 0 -10 5 -10 10 0 6
5 10 10 10 6 0 10 -4 10 -10z m-1000 -46 c0 -8 -5 -12 -10 -9 -6 4 -8 11 -5
16 9 14 15 11 15 -7z m-57 -94 c3 -11 1 -23 -4 -26 -5 -3 -9 6 -9 20 0 31 6
34 13 6z m510 -73 c-7 -11 -23 12 -23 33 1 12 4 11 15 -4 8 -10 12 -23 8 -29z
m344 -29 c-3 -8 -6 -5 -6 6 -1 11 2 17 5 13 3 -3 4 -12 1 -19z m-807 -92 c0
-3 -4 -8 -10 -11 -5 -3 -10 -1 -10 4 0 6 5 11 10 11 6 0 10 -2 10 -4z m-353
-102 c3 -8 13 -14 23 -14 17 0 36 -40 31 -67 -1 -7 3 -13 9 -13 5 0 10 -4 10
-10 0 -5 -7 -10 -15 -10 -9 0 -18 -8 -22 -17 -8 -25 -64 -83 -80 -83 -7 0 -13
-4 -13 -9 0 -5 -8 -7 -19 -4 -10 3 -22 0 -25 -6 -10 -15 -26 -14 -26 2 0 9
-11 13 -30 12 -26 -2 -29 1 -24 22 7 26 5 27 -30 13 -20 -7 -24 -6 -19 5 3 8
9 15 14 15 5 0 9 5 9 10 0 6 -6 10 -13 10 -24 0 -15 75 13 107 14 15 28 29 33
31 4 2 7 10 7 17 0 10 16 15 53 17 59 3 106 -8 114 -28z m2216 -44 c7 -6 25
-20 40 -31 15 -12 26 -24 23 -27 -3 -3 -1 -11 5 -18 6 -8 12 -35 12 -61 3 -73
-35 -105 -128 -108 -49 -2 -81 12 -126 55 -22 21 -32 66 -19 90 9 16 8 20 -7
20 -11 0 -14 3 -7 8 6 4 16 17 23 29 6 13 23 26 36 29 14 3 25 10 25 15 0 12
108 11 123 -1z m-2483 -50 c0 -5 -5 -10 -11 -10 -5 0 -7 5 -4 10 3 6 8 10 11
10 2 0 4 -4 4 -10z m1945 -200 c-3 -5 -14 -10 -23 -10 -15 0 -15 2 -2 10 20
13 33 13 25 0z m-1819 -70 c7 0 14 10 16 23 l3 22 14 -23 c15 -28 14 -30 -24
-32 -52 -4 -75 0 -75 11 0 6 9 8 20 4 18 -6 20 -3 16 22 l-6 28 12 -27 c7 -16
17 -28 24 -28z m244 25 c0 6 5 2 11 -9 9 -14 8 -22 -4 -33 -13 -14 -19 -13
-56 3 -38 16 -60 41 -26 28 10 -4 15 0 16 12 0 16 2 15 10 -4 10 -27 29 -20
30 11 0 21 1 21 9 2 5 -11 9 -15 10 -10z m1580 6 c0 -11 -39 -21 -45 -11 -2 4
-2 10 2 14 10 9 43 7 43 -3z m-1700 -21 c0 -5 -2 -10 -4 -10 -3 0 -8 5 -11 10
-3 6 -1 10 4 10 6 0 11 -4 11 -10z m-37 -7 c-7 -2 -19 -2 -25 0 -7 3 -2 5 12
5 14 0 19 -2 13 -5z m-111 -37 c29 3 75 9 101 14 47 10 97 5 97 -9 0 -4 -16
-6 -35 -5 -25 2 -35 -1 -35 -11 0 -20 -10 -19 -26 3 -12 16 -13 15 -14 -8 -1
-23 -2 -24 -14 -7 -16 21 -26 22 -26 2 0 -8 -4 -15 -10 -15 -5 0 -10 5 -10 11
0 8 -4 8 -13 1 -7 -6 -18 -7 -26 -2 -8 4 -20 6 -27 3 -13 -5 -74 26 -74 37 0
17 15 17 36 1 19 -15 36 -18 76 -15z m363 25 c8 -14 -12 -23 -36 -16 -17 6
-19 9 -8 16 18 11 36 11 44 0z m1485 -1 c0 -5 -15 -10 -32 -9 -28 0 -30 2 -13
9 28 12 45 12 45 0z m600 -5 c0 -8 -2 -15 -4 -15 -2 0 -6 7 -10 15 -3 8 -1 15
4 15 6 0 10 -7 10 -15z m-1963 -2 c-8 -7 -77 -6 -85 2 -3 3 16 5 43 5 27 0 45
-3 42 -7z m1193 -13 c0 -11 -7 -20 -15 -20 -13 0 -13 3 -3 20 7 11 14 20 15
20 2 0 3 -9 3 -20z m-1799 -3 c9 -7 14 -17 12 -24 -3 -7 17 -16 51 -23 61 -12
146 -6 210 16 55 20 122 18 130 -3 9 -22 -10 -33 -60 -33 -26 0 -47 -6 -55
-16 -8 -10 -22 -14 -41 -10 -25 5 -58 -13 -58 -32 0 -10 -41 -34 -47 -28 -7 7
23 36 36 36 6 0 11 4 11 9 0 12 -36 21 -84 21 -30 0 -94 25 -144 56 -6 4 9 44
16 44 4 0 14 -6 23 -13z m-83 -27 c25 -23 29 -42 8 -34 -8 3 -17 0 -21 -6 -4
-7 2 -14 14 -17 15 -4 21 -13 21 -32 0 -42 34 -141 74 -216 60 -113 96 -131
133 -67 21 38 106 147 176 227 29 32 37 37 50 27 11 -10 17 -9 27 3 10 12 10
15 -4 15 -22 0 -20 13 3 27 15 10 20 10 24 0 3 -9 8 -9 20 1 19 16 48 9 72
-18 14 -15 15 -23 6 -34 -9 -11 -9 -16 0 -21 17 -11 -11 -26 -35 -19 -14 5
-18 2 -13 -9 7 -18 -11 -37 -35 -37 -10 0 -18 -7 -18 -15 0 -8 -7 -15 -15 -15
-10 0 -15 -7 -13 -17 2 -12 -4 -19 -19 -21 -16 -2 -22 -9 -20 -25 1 -14 -6
-25 -20 -31 -12 -6 -24 -19 -27 -29 -2 -11 -9 -17 -13 -14 -14 9 -40 -12 -27
-20 8 -6 5 -17 -7 -38 -68 -111 -88 -178 -89 -292 0 -68 -9 -89 -26 -62 -4 8
-9 8 -17 0 -6 -6 -30 -11 -54 -11 -42 0 -43 0 -43 35 0 19 -4 35 -10 35 -5 0
-10 7 -10 15 0 8 7 15 15 15 16 0 21 36 7 42 -5 2 -12 25 -15 51 -4 31 -3 46
3 42 6 -3 10 0 10 8 0 8 -9 17 -20 20 -20 5 -28 27 -10 27 6 0 10 5 10 11 0 6
-6 9 -14 6 -8 -3 -20 0 -26 8 -8 9 -8 14 0 17 7 2 8 11 4 22 -7 17 -8 18 -19
2 -12 -15 -13 -15 -19 0 -4 10 -1 21 6 25 9 6 9 11 -1 23 -7 9 -18 13 -23 10
-6 -4 -14 0 -19 7 -11 17 -12 40 -1 36 8 -2 12 6 12 24 0 6 -9 9 -20 6 -19 -5
-20 -2 -14 29 5 30 4 34 -15 34 -14 0 -21 6 -21 20 0 11 7 20 15 20 8 0 15 5
15 10 0 6 -9 10 -20 10 -22 0 -26 10 -9 27 13 13 3 36 -12 28 -5 -4 -9 3 -9
14 0 10 6 22 13 25 9 5 9 7 -1 12 -7 3 -17 14 -22 25 -9 15 -8 17 7 12 13 -5
15 -2 10 11 -5 12 2 22 26 36 39 24 38 24 65 0z m592 10 c0 -5 -4 -10 -10 -10
-5 0 -10 5 -10 10 0 6 5 10 10 10 6 0 10 -4 10 -10z m1170 -35 c0 -31 -5 -47
-15 -51 -8 -4 -15 -13 -15 -21 0 -10 -6 -13 -16 -9 -9 3 -20 6 -25 6 -5 0 -9
5 -9 10 0 6 6 10 13 10 6 0 19 5 27 10 13 9 13 11 0 20 -13 9 -13 12 3 24 10
8 17 18 16 22 -3 16 1 24 11 24 6 0 10 -20 10 -45z m290 35 c0 -5 -16 -10 -36
-10 -21 0 -33 4 -29 10 3 6 19 10 36 10 16 0 29 -4 29 -10z m515 -1 c4 -6 27
-8 57 -5 50 6 78 -4 78 -27 0 -10 -156 -4 -167 7 -8 8 5 36 16 36 5 0 13 -5
16 -11z m175 -11 c0 -6 -6 -5 -15 2 -8 7 -15 14 -15 16 0 2 7 1 15 -2 8 -4 15
-11 15 -16z m-2069 -2 c18 10 9 -12 -10 -25 -11 -8 -18 -24 -16 -38 3 -33 -10
-37 -29 -9 -16 26 -11 36 26 49 10 3 16 12 14 19 -1 7 -1 10 1 5 3 -4 9 -5 14
-1z m1279 -21 c0 -33 -1 -34 -20 -23 -17 10 -18 14 -5 16 21 5 19 29 -2 35
-14 4 -12 5 5 6 19 1 22 -4 22 -34z m540 21 c0 -2 -7 -6 -15 -10 -8 -3 -15 -1
-15 4 0 6 7 10 15 10 8 0 15 -2 15 -4z m-610 -24 c0 -11 9 -27 21 -38 40 -36
41 -49 0 -50 -20 -1 -28 1 -18 3 31 8 19 25 -13 18 -19 -4 -30 -3 -30 4 0 6 7
11 15 11 8 0 15 5 15 10 0 6 -9 10 -20 10 -11 0 -20 5 -20 10 0 6 7 10 15 10
23 0 18 18 -7 23 -17 3 -14 5 10 6 25 1 32 -3 32 -17z m-1114 -18 c8 3 14 1
14 -3 0 -12 -27 -21 -43 -15 -8 3 -20 -2 -27 -11 -19 -22 -28 -18 -22 10 3 16
11 25 23 25 10 0 21 6 26 13 5 9 9 7 11 -6 2 -11 9 -16 18 -13z m58 17 c4 -5
-3 -7 -14 -4 -23 6 -26 13 -6 13 8 0 17 -4 20 -9z m1216 -1 c-14 -4 -34 -8
-45 -8 l-20 -1 20 9 c11 5 31 8 45 8 l25 0 -25 -8z m750 -19 c0 -26 -3 -29
-46 -35 -71 -9 -115 -7 -159 9 -22 8 -68 14 -102 15 -35 0 -63 4 -63 10 0 17
49 22 113 11 97 -17 223 -15 231 4 9 25 26 17 26 -14z m-1145 -21 c0 -22 -3
-40 -7 -40 -5 0 -8 18 -8 40 0 22 3 40 8 40 4 0 7 -18 7 -40z m615 19 c0 -12
-57 -12 -64 0 -3 4 -3 10 -1 13 8 8 65 -4 65 -13z m-246 -20 c-27 -11 -34 -10
-34 0 0 11 31 20 44 13 5 -3 1 -9 -10 -13z m73 -6 l35 -27 -47 -14 c-26 -7
-50 -11 -53 -8 -3 3 2 6 11 6 10 0 17 5 17 11 0 7 -11 8 -31 4 -20 -5 -29 -3
-25 3 3 5 20 12 37 16 27 5 30 8 19 21 -19 23 -2 18 37 -12z m96 -32 c12 -6
14 -9 5 -7 -10 3 -22 -2 -27 -12 -9 -14 -10 -11 -11 16 0 22 -5 32 -15 32 -21
0 -19 18 3 22 11 2 18 -4 20 -18 2 -12 13 -27 25 -33z m-988 39 c-3 -5 -10
-10 -16 -10 -5 0 -9 5 -9 10 0 6 7 10 16 10 8 0 12 -4 9 -10z m-870 -41 c15
-29 15 -32 -1 -51 -15 -15 -16 -21 -5 -27 8 -5 10 -14 6 -21 -6 -9 -12 -6 -21
12 -10 19 -11 35 -3 62 5 20 7 41 4 46 -3 6 -4 10 -1 10 3 0 13 -14 21 -31z
m359 -21 c8 -6 7 -11 -4 -18 -20 -13 -33 12 -23 47 l7 28 4 -25 c2 -14 9 -28
16 -32z m-614 32 c0 -5 -4 -10 -10 -10 -5 0 -10 5 -10 10 0 6 5 10 10 10 6 0
10 -4 10 -10z m133 -4 c4 -9 -3 -13 -21 -13 -15 0 -35 -3 -44 -7 -11 -5 -18
-4 -18 3 0 6 9 11 19 11 11 0 23 5 26 10 9 14 32 12 38 -4z m757 4 c0 -5 -5
-10 -11 -10 -5 0 -7 5 -4 10 3 6 8 10 11 10 2 0 4 -4 4 -10z m373 3 c-7 -2
-19 -2 -25 0 -7 3 -2 5 12 5 14 0 19 -2 13 -5z m137 -3 c0 -11 -21 -11 -65 0
-27 7 -25 8 18 9 26 0 47 -3 47 -9z m-420 -20 c0 -23 -8 -25 -33 -6 -14 11
-15 15 -5 19 26 11 38 7 38 -13z m165 10 c-3 -5 -15 -10 -26 -10 -10 0 -19 -4
-19 -10 0 -5 4 -10 10 -10 5 0 7 -7 4 -15 -8 -19 10 -20 25 -1 7 8 22 12 34 9
20 -4 21 -3 4 10 -15 12 -15 16 -3 26 11 9 20 9 35 2 11 -6 36 -11 56 -11 32
0 35 -2 25 -19 -22 -43 -83 -66 -198 -75 -25 -2 -29 69 -6 95 17 19 70 27 59
9z m1509 -7 c3 -6 14 -9 25 -6 12 3 21 1 21 -5 0 -16 -43 -19 -113 -9 -91 13
-94 32 -6 32 43 0 70 -4 73 -12z m-1152 -4 c41 -11 68 -48 68 -95 0 -21 -4
-25 -17 -19 -10 3 -38 11 -63 17 -60 13 -129 47 -141 69 -8 16 -3 19 38 24 27
4 53 8 58 10 16 6 18 5 57 -6z m658 -21 c0 -19 -2 -20 -10 -8 -13 19 -13 30 0
30 6 0 10 -10 10 -22z m-2050 -7 c0 -30 -11 -51 -25 -51 -8 0 -23 -12 -34 -27
-23 -28 -23 -29 -40 5 -15 28 1 51 52 76 41 20 47 20 47 -3z m565 9 c3 -5 -1
-10 -10 -10 -12 0 -15 -6 -10 -20 5 -17 2 -20 -22 -19 -15 0 -22 3 -15 6 6 2
12 16 12 29 0 17 6 24 19 24 11 0 23 -4 26 -10z m82 -7 c-9 -9 -19 -14 -23
-11 -10 10 6 28 24 28 15 0 15 -1 -1 -17z m123 -3 c0 -5 -4 -10 -10 -10 -5 0
-10 5 -10 10 0 6 5 10 10 10 6 0 10 -4 10 -10z m753 3 c-7 -2 -21 -2 -30 0
-10 3 -4 5 12 5 17 0 24 -2 18 -5z m303 -8 c18 -13 17 -14 -18 -15 -36 0 -47
8 -31 23 10 11 28 8 49 -8z m187 0 c4 -8 2 -17 -3 -20 -6 -4 -10 3 -10 14 0
25 6 27 13 6z m-798 -5 c3 -5 1 -10 -4 -10 -6 0 -11 5 -11 10 0 6 2 10 4 10 3
0 8 -4 11 -10z m395 0 c0 -5 -15 -10 -32 -10 -25 0 -29 3 -18 10 20 13 50 13
50 0z m1000 -5 c0 -8 -9 -15 -20 -15 -22 0 -27 15 -7 23 21 9 27 7 27 -8z
m-2900 -41 c0 -19 -4 -34 -10 -34 -5 0 -10 18 -10 41 0 24 4 38 10 34 6 -3 10
-22 10 -41z m320 15 c0 -10 -4 -19 -10 -19 -5 0 -10 12 -10 26 0 14 4 23 10
19 6 -3 10 -15 10 -26z m1653 19 c29 -14 37 -48 11 -48 -10 0 -14 5 -10 16 4
10 -4 19 -27 29 -17 8 -25 14 -16 15 8 0 27 -6 42 -12z m827 8 c0 -2 3 -11 6
-19 3 -9 -3 -16 -15 -20 -12 -3 -21 -1 -21 3 0 5 -3 15 -6 24 -4 12 0 16 15
16 12 0 21 -2 21 -4z m-1812 -18 c-5 -15 -58 -24 -58 -9 0 11 17 19 43 20 11
1 17 -4 15 -11z m1292 8 c0 -3 -4 -8 -10 -11 -5 -3 -10 -1 -10 4 0 6 5 11 10
11 6 0 10 -2 10 -4z m-463 -12 c-3 -3 -12 -4 -19 -1 -8 3 -5 6 6 6 11 1 17 -2
13 -5z m243 -21 c0 -13 -3 -13 -15 -3 -8 7 -12 16 -9 21 8 13 24 1 24 -18z
m879 10 c-7 -10 -15 -20 -16 -22 -2 -2 -3 5 -3 17 0 14 6 22 16 22 14 0 15 -3
3 -17z m-1716 -8 c9 -22 -8 -26 -21 -4 -10 15 -10 19 2 19 8 0 16 -7 19 -15z
m317 -10 c0 -22 2 -24 19 -14 22 14 51 6 51 -15 0 -10 -8 -14 -27 -11 -16 2
-43 4 -60 4 -32 1 -49 21 -18 21 8 0 15 9 15 20 0 11 5 20 10 20 6 0 10 -11
10 -25z m1347 6 c3 -11 15 -22 26 -25 21 -6 21 -7 -5 -22 -25 -13 -28 -20 -28
-65 0 -43 -3 -50 -17 -47 -13 2 -20 16 -24 45 -6 45 -21 69 -50 78 -33 11 -21
25 21 25 27 0 43 5 46 15 8 21 25 19 31 -4z m-2107 -27 c13 -33 13 -34 -6 -34
-11 0 -7 -11 17 -45 18 -25 30 -48 26 -51 -3 -4 -22 1 -41 10 -19 9 -41 16
-50 16 -9 0 -19 8 -23 18 -10 29 -35 52 -55 52 -11 0 -18 5 -15 13 6 18 49 15
70 -6 25 -25 41 -17 45 21 4 39 19 41 32 6z m64 13 c17 -13 17 -14 0 -31 -17
-17 -18 -17 -30 5 -19 37 -3 50 30 26z m1476 3 c0 -5 -9 -10 -21 -10 -11 0
-17 5 -14 10 3 6 13 10 21 10 8 0 14 -4 14 -10z m95 0 c-3 -5 -12 -10 -20 -10
-8 0 -17 5 -20 10 -4 6 5 10 20 10 15 0 24 -4 20 -10z m-2015 -26 c0 -8 -4
-14 -10 -14 -5 0 -10 2 -10 4 0 2 -3 12 -6 20 -5 12 -2 15 10 10 9 -3 16 -12
16 -20z m1008 14 c-3 -7 -10 -13 -15 -13 -6 0 -14 -2 -16 -5 -9 -8 -107 1
-107 10 0 5 28 11 63 13 34 2 66 4 70 5 5 1 7 -4 5 -10z m407 2 c3 -5 1 -10
-4 -10 -6 0 -11 5 -11 10 0 6 2 10 4 10 3 0 8 -4 11 -10z m-812 -7 c11 -10
-13 -33 -35 -33 -16 0 -17 3 -8 20 11 20 31 26 43 13z m1189 -10 c25 -23 23
-33 -9 -33 -26 0 -63 25 -63 42 0 15 53 9 72 -9z m153 -3 c4 -6 -7 -10 -27 -9
-27 0 -30 2 -13 9 27 12 33 12 40 0z m115 2 c0 -19 -23 -32 -37 -21 -20 17
-15 29 12 29 14 0 25 -4 25 -8z m-2454 -30 c-8 -9 -18 -13 -22 -10 -8 9 19 37
29 31 5 -3 2 -12 -7 -21z m1925 13 c0 -5 -12 -11 -26 -13 -18 -2 -25 1 -25 13
0 12 7 15 25 13 14 -2 26 -7 26 -13z m-690 -5 c5 0 9 -4 9 -9 0 -12 -38 -2
-47 12 -4 7 0 8 11 4 10 -4 22 -7 27 -7z m819 -4 c0 -8 6 -16 13 -19 6 -3 2
-4 -10 -4 -15 1 -23 8 -23 19 0 10 5 18 10 18 6 0 10 -6 10 -14z m-1156 -5 c3
-5 -1 -14 -10 -21 -8 -7 -13 -19 -10 -27 8 -20 -4 -16 -26 9 -18 21 -18 23 -2
35 21 15 41 17 48 4z m262 -4 c4 -4 -5 -7 -19 -7 -15 0 -27 4 -27 8 0 10 36 9
46 -1z m139 3 c3 -5 -1 -10 -9 -10 -9 0 -16 5 -16 10 0 6 4 10 9 10 6 0 13 -4
16 -10z m1612 -12 c-3 -8 -6 -5 -6 6 -1 11 2 17 5 13 3 -3 4 -12 1 -19z
m-1517 2 c0 -5 -4 -10 -10 -10 -5 0 -10 5 -10 10 0 6 5 10 10 10 6 0 10 -4 10
-10z m243 3 c-7 -2 -19 -2 -25 0 -7 3 -2 5 12 5 14 0 19 -2 13 -5z m37 -3 c0
-5 7 -10 15 -10 8 0 15 -5 15 -12 0 -9 3 -9 12 0 18 18 62 16 55 -3 -4 -8 -2
-17 4 -20 5 -4 8 -19 7 -33 -3 -24 1 -27 27 -28 17 -1 41 -3 55 -5 14 -2 36 3
50 11 37 20 71 22 68 4 -2 -12 12 -16 70 -20 52 -3 72 -1 72 8 0 9 3 9 11 1 6
-6 9 -15 6 -21 -9 -13 -170 -3 -179 11 -6 9 -10 9 -16 -1 -15 -22 -169 -14
-210 10 -18 11 -31 25 -29 32 5 14 -17 36 -36 36 -10 0 -14 9 -13 25 1 23 16
37 16 15z m660 3 c0 -9 -49 -33 -64 -33 -6 1 5 9 24 20 41 22 40 22 40 13z
m-1270 -13 c0 -5 -9 -10 -19 -10 -11 0 -23 5 -26 10 -4 6 5 10 19 10 14 0 26
-4 26 -10z m1075 -10 c18 -19 17 -20 -3 -20 -12 0 -22 2 -22 4 0 2 -3 11 -6
20 -9 22 9 20 31 -4z m-695 -11 c0 -5 -4 -9 -10 -9 -5 0 -10 7 -10 16 0 8 5
12 10 9 6 -3 10 -10 10 -16z m370 -5 c0 -8 -4 -12 -10 -9 -5 3 -10 13 -10 21
0 8 5 12 10 9 6 -3 10 -13 10 -21z m-610 6 c0 -12 -59 -10 -66 2 -3 4 11 8 30
8 20 0 36 -5 36 -10z m170 -5 c5 3 11 -8 15 -25 7 -30 29 -41 38 -17 3 7 6 5
6 -5 1 -10 6 -18 11 -18 6 0 10 8 10 18 1 16 1 16 11 0 5 -10 20 -18 32 -18
21 1 22 1 3 15 -19 15 -19 15 2 15 13 0 22 -6 22 -15 0 -8 1 -18 3 -22 1 -5
-28 -9 -64 -9 -62 -1 -70 1 -103 31 -20 17 -36 37 -36 43 0 12 33 21 38 10 2
-5 7 -6 12 -3z m132 0 c0 -5 -5 -11 -11 -13 -6 -2 -11 4 -11 13 0 9 5 15 11
13 6 -2 11 -8 11 -13z m138 4 c0 -6 -7 -9 -15 -5 -8 3 -15 1 -15 -4 0 -6 5
-10 12 -10 6 0 1 -8 -10 -19 -12 -10 -22 -23 -22 -30 0 -6 -4 -11 -10 -11 -15
0 -9 52 8 73 17 19 52 23 52 6z m370 1 c0 -5 -4 -10 -10 -10 -5 0 -10 5 -10
10 0 6 5 10 10 10 6 0 10 -4 10 -10z m522 -27 c11 -14 10 -15 -12 -8 -14 4
-34 16 -45 26 -20 20 -20 20 12 9 17 -7 38 -19 45 -27z m-1548 2 c-4 -15 -2
-25 5 -25 6 0 11 -6 11 -14 0 -9 -7 -12 -20 -9 -11 3 -20 10 -20 16 0 7 -4 7
-12 -1 -14 -14 -28 -16 -28 -4 0 14 44 61 58 61 8 1 10 -7 6 -24z m282 4 c-8
-12 -12 -28 -9 -35 3 -8 -1 -14 -9 -14 -8 0 -24 -9 -36 -20 -21 -20 -23 -20
-42 -3 -13 13 -17 26 -13 41 7 28 23 29 23 1 0 -15 4 -19 16 -15 9 3 18 6 20
6 14 0 1 20 -13 21 -14 0 -13 2 5 9 12 5 22 13 22 17 0 5 11 10 26 11 24 2 24
1 10 -19z m1103 0 c-13 -25 -12 -27 19 -43 27 -15 26 -15 -25 -13 -60 4 -77
13 -39 23 14 3 26 11 26 16 0 10 -35 6 -97 -9 -13 -3 -23 -1 -23 6 0 6 18 14
40 17 22 4 40 10 40 14 0 5 15 8 34 7 30 -1 33 -3 25 -18z m86 7 c12 -11 12
-16 0 -32 -13 -18 -14 -18 -34 0 -20 18 -20 20 -3 32 21 17 21 17 37 0z m-895
-6 c0 -5 -4 -10 -10 -10 -5 0 -10 5 -10 10 0 6 5 10 10 10 6 0 10 -4 10 -10z
m-723 -22 c-3 -8 -6 -5 -6 6 -1 11 2 17 5 13 3 -3 4 -12 1 -19z m1023 2 c0
-11 -4 -20 -9 -20 -5 0 -7 9 -4 20 3 11 7 20 9 20 2 0 4 -9 4 -20z m305 11 c7
-12 -12 -24 -25 -16 -11 7 -4 25 10 25 5 0 11 -4 15 -9z m-1622 -23 c8 -28 6
-29 -17 -13 -10 8 -15 18 -11 24 10 17 22 13 28 -11z m1547 11 c0 -5 -5 -7
-11 -3 -6 3 -15 0 -20 -7 -7 -11 -9 -10 -9 4 0 10 8 17 20 17 11 0 20 -5 20
-11z m-1190 -9 c0 -5 -4 -10 -9 -10 -6 0 -13 5 -16 10 -3 6 1 10 9 10 9 0 16
-4 16 -10z m1140 0 c0 -5 -4 -10 -10 -10 -5 0 -10 5 -10 10 0 6 5 10 10 10 6
0 10 -4 10 -10z m-1969 -41 c16 -23 19 -33 10 -42 -8 -8 -11 -7 -11 6 0 10
-14 26 -31 36 -27 16 -28 20 -13 24 11 3 20 5 21 6 1 0 11 -13 24 -30z m674
-3 c7 3 16 1 20 -5 3 -6 2 -11 -4 -11 -6 0 -15 -10 -22 -21 -9 -18 -7 -25 15
-46 23 -21 54 -24 41 -3 -6 10 40 41 49 33 3 -4 -3 -17 -15 -29 -31 -33 -19
-58 23 -49 33 7 33 7 14 -13 -15 -17 -17 -30 -12 -67 6 -37 12 -46 32 -51 32
-8 31 -34 -1 -34 -14 0 -25 -4 -25 -10 0 -5 -5 -10 -10 -10 -7 0 -8 13 -4 35
5 27 2 41 -11 55 -22 25 -31 19 -40 -26 -5 -27 -2 -41 11 -55 9 -11 14 -22 10
-26 -9 -9 -46 32 -46 52 0 8 -7 15 -17 15 -15 0 -15 1 0 18 9 10 22 32 28 50
9 26 7 37 -7 62 -10 16 -21 30 -25 30 -3 0 -19 11 -35 25 -26 22 -27 40 -1 40
5 0 12 6 15 13 2 6 -1 12 -6 12 -5 0 -18 12 -27 27 l-18 27 27 -22 c15 -11 33
-19 41 -16z m1561 -11 c20 -25 43 -45 50 -45 20 0 28 -21 13 -31 -8 -5 -24 -7
-36 -4 -19 4 -23 1 -23 -19 0 -37 -19 -42 -26 -7 -4 20 -11 28 -20 24 -11 -4
-14 5 -14 34 0 21 -5 44 -11 50 -14 14 -4 43 15 43 8 0 31 -20 52 -45z m247 7
c10 -18 17 -37 14 -44 -2 -7 -11 4 -20 25 -9 20 -21 37 -26 37 -6 0 -11 5 -11
11 0 19 24 3 43 -29z m-1753 18 c0 -5 -2 -10 -4 -10 -3 0 -8 5 -11 10 -3 6 -1
10 4 10 6 0 11 -4 11 -10z m760 1 c0 -6 -4 -13 -10 -16 -5 -3 -10 1 -10 9 0 9
5 16 10 16 6 0 10 -4 10 -9z m-1050 -38 c0 -15 -9 -16 -29 -4 -12 8 -13 12 -1
26 10 13 15 13 21 3 5 -7 9 -19 9 -25z m425 27 c18 -8 17 -9 -7 -9 -15 -1 -30
4 -33 9 -7 12 12 12 40 0z m135 0 c0 -5 -4 -10 -10 -10 -5 0 -10 5 -10 10 0 6
5 10 10 10 6 0 10 -4 10 -10z m247 -12 c13 -12 23 -28 23 -37 0 -11 -3 -12
-12 -3 -9 9 -14 6 -22 -11 -7 -13 -21 -22 -35 -22 -32 0 -36 -16 -11 -45 l20
-23 18 20 c17 20 17 20 18 -20 1 -23 -5 -47 -12 -55 -8 -7 -14 -22 -14 -34 0
-30 -23 -16 -33 21 -5 21 -4 37 2 45 12 15 -24 60 -40 51 -15 -10 -10 25 6 41
8 9 15 24 15 35 0 11 9 21 24 25 16 4 23 11 19 20 -8 21 7 17 34 -8z m1066 -5
c22 -7 22 -19 1 -27 -10 -4 -25 1 -35 10 -24 22 -25 38 -1 29 9 -4 25 -10 35
-12z m-1782 -16 c13 -12 25 -35 27 -50 3 -26 -11 -37 -23 -17 -3 6 -17 10 -31
10 -15 0 -24 6 -24 15 0 17 16 20 25 5 7 -12 25 -4 25 11 0 5 -9 9 -20 9 -13
0 -20 7 -20 20 0 26 11 25 41 -3z m74 13 c-3 -5 -13 -10 -21 -10 -8 0 -12 5
-9 10 3 6 13 10 21 10 8 0 12 -4 9 -10z m993 -2 c-2 -7 6 -13 17 -13 29 0 34
-50 6 -58 -15 -4 -22 2 -30 25 -6 16 -15 27 -21 23 -14 -9 -13 8 2 23 16 16
29 15 26 0z m817 2 c-3 -5 -11 -10 -16 -10 -6 0 -7 5 -4 10 3 6 11 10 16 10 6
0 7 -4 4 -10z m-1555 -44 c0 -24 4 -46 9 -48 8 -3 16 -125 11 -168 -3 -24 -19
61 -19 105 -1 22 -7 64 -14 93 -8 28 -12 54 -9 57 14 14 22 1 22 -39z m270 -3
c0 -20 -17 -15 -23 7 -7 28 -27 25 -27 -5 0 -14 -4 -25 -9 -25 -17 0 -9 59 8
63 19 4 51 -21 51 -40z m324 25 c-8 -27 -12 -33 -19 -27 -7 8 7 49 17 49 5 0
6 -10 2 -22z m656 18 c0 -3 -4 -8 -10 -11 -5 -3 -10 -1 -10 4 0 6 5 11 10 11
6 0 10 -2 10 -4z m44 -12 c5 -14 -9 -54 -19 -54 -3 0 -5 16 -5 35 0 36 13 47
24 19z m306 -23 c0 -11 -3 -11 -14 -1 -8 6 -12 18 -9 27 5 12 7 12 14 1 5 -7
9 -19 9 -27z m-1653 23 c-3 -3 -12 -4 -19 -1 -8 3 -5 6 6 6 11 1 17 -2 13 -5z
m-379 -42 c2 -7 -2 -10 -11 -7 -7 3 -24 -3 -37 -13 -28 -23 -19 -46 16 -38 34
9 30 -10 -6 -29 -20 -10 -33 -26 -37 -45 -4 -21 -11 -30 -24 -30 -11 0 -19 5
-19 10 0 6 7 10 16 10 14 0 14 3 4 15 -14 17 -7 30 18 30 9 0 17 7 17 15 0 8
-8 14 -18 14 -21 -2 -15 25 15 68 15 22 23 25 40 19 12 -4 24 -13 26 -19z
m1282 8 c0 -11 5 -20 11 -20 7 0 9 -10 5 -26 -5 -19 -4 -24 6 -18 7 4 4 -2 -6
-14 -11 -12 -15 -22 -11 -22 5 0 0 -6 -11 -14 -25 -19 -14 -29 18 -17 14 5 30
6 37 1 12 -7 4 -9 -86 -26 -16 -3 -23 0 -23 10 0 10 6 13 15 10 8 -4 15 -1 15
5 0 6 -6 11 -14 11 -11 0 -15 13 -14 50 0 27 4 47 9 44 5 -3 9 -20 9 -39 0
-28 3 -32 20 -28 24 6 27 50 4 67 -9 7 -12 18 -8 29 9 23 24 22 24 -3z m-1670
1 c0 -12 -39 -21 -45 -11 -6 10 1 15 25 17 11 1 20 -2 20 -6z m956 -6 c-7 -20
11 -19 22 1 8 14 12 13 35 -10 30 -30 34 -41 13 -33 -7 3 -19 0 -25 -6 -8 -8
-14 -8 -23 1 -17 17 -25 15 -31 -10 -4 -13 -1 -26 6 -30 8 -5 -3 -14 -30 -24
-24 -9 -43 -23 -43 -31 0 -7 -4 -13 -10 -13 -5 0 -9 20 -8 45 0 28 5 44 12 43
21 -4 56 13 56 28 0 8 -4 14 -10 14 -5 0 -10 8 -10 18 0 15 2 15 10 2 9 -13
12 -13 21 3 12 21 23 23 15 2z m422 -3 c2 -7 -2 -10 -12 -6 -9 3 -16 11 -16
16 0 13 23 5 28 -10z m376 -29 c-16 -12 -16 -13 -1 -13 9 0 17 -4 17 -10 0 -5
-9 -10 -20 -10 -16 0 -20 7 -20 30 0 22 4 28 15 24 10 -4 15 0 16 12 1 18 2
18 6 0 3 -12 -2 -25 -13 -33z m-431 22 c-3 -9 -8 -14 -10 -11 -3 3 -2 9 2 15
9 16 15 13 8 -4z m1071 -1 c4 -9 4 -19 2 -21 -8 -8 -26 8 -26 23 0 19 16 18
24 -2z m-494 -4 c0 -5 -11 -10 -25 -10 -14 0 -25 5 -25 10 0 6 11 10 25 10 14
0 25 -4 25 -10z m630 0 c0 -5 -4 -10 -10 -10 -5 0 -10 5 -10 10 0 6 5 10 10
10 6 0 10 -4 10 -10z m-507 -20 c-3 -12 -8 -19 -11 -16 -5 6 5 36 12 36 2 0 2
-9 -1 -20z m-426 -15 c-4 -8 -11 -15 -17 -15 -6 0 -6 7 2 20 14 22 24 19 15
-5z m875 8 c10 -9 18 -20 18 -25 0 -11 -49 24 -50 35 0 12 12 8 32 -10z
m-2442 -7 c0 -8 6 -16 13 -19 6 -2 9 -7 6 -11 -3 -3 -21 -1 -39 5 -31 11 -32
13 -15 26 24 17 35 17 35 -1z m1941 -30 c-5 -11 -13 -21 -20 -22 -6 -1 -7 0
-1 3 5 2 10 14 10 24 0 11 -4 17 -10 14 -5 -3 -10 1 -10 9 0 13 3 14 19 4 14
-8 17 -17 12 -32z m109 34 c-19 -13 -30 -13 -30 0 0 6 10 10 23 10 18 0 19 -2
7 -10z m215 -29 c-10 -16 -25 -3 -25 22 0 20 1 20 16 5 9 -9 13 -21 9 -27z
m-821 5 c-2 -23 12 -20 31 7 13 18 17 20 25 7 5 -8 7 -17 5 -20 -4 -6 11 -10
48 -11 21 0 23 -19 2 -19 -8 0 -15 -4 -15 -10 0 -5 4 -10 10 -10 13 0 23 -44
15 -69 -10 -34 -25 -24 -25 17 0 31 -5 41 -29 55 -16 9 -41 17 -55 17 -26 0
-47 25 -39 48 7 18 28 9 27 -12z m456 8 c0 -8 -5 -12 -10 -9 -6 4 -8 11 -5 16
9 14 15 11 15 -7z m-1446 -5 c-3 -5 -18 -9 -34 -9 -16 0 -31 4 -34 9 -3 4 12
8 34 8 22 0 37 -4 34 -8z m96 1 c0 -5 -5 -10 -11 -10 -5 0 -7 5 -4 10 3 6 8
10 11 10 2 0 4 -4 4 -10z m446 -5 c9 -9 12 -23 8 -40 -6 -24 -24 -35 -24 -14
0 6 -7 17 -15 26 -12 12 -13 18 -4 29 14 17 17 17 35 -1z m290 -22 c-6 -15 -8
-15 -16 -3 -7 10 -10 11 -10 3 0 -7 -7 -13 -15 -13 -22 0 -18 15 8 33 25 17
43 7 33 -20z m54 17 c-6 -11 -13 -20 -16 -20 -2 0 0 9 6 20 6 11 13 20 16 20
2 0 0 -9 -6 -20z m1190 13 c0 -5 -5 -15 -10 -23 -8 -12 -10 -11 -10 8 0 12 5
22 10 22 6 0 10 -3 10 -7z m-116 -12 c3 -5 -5 -16 -19 -25 -27 -18 -30 -15
-15 15 11 20 25 25 34 10z m-437 -23 c-3 -8 -6 -5 -6 6 -1 11 2 17 5 13 3 -3
4 -12 1 -19z m-582 2 c-3 -5 -1 -10 5 -10 6 0 8 -5 5 -10 -5 -8 -11 -7 -21 1
-14 12 -10 29 7 29 6 0 7 -4 4 -10z m345 0 c0 -13 -11 -13 -30 0 -12 8 -11 10
8 10 12 0 22 -4 22 -10z m93 3 c-7 -2 -19 -2 -25 0 -7 3 -2 5 12 5 14 0 19 -2
13 -5z m291 -9 c9 -22 -3 -32 -14 -14 -12 19 -12 30 -1 30 5 0 12 -7 15 -16z
m446 6 c0 -5 -4 -10 -10 -10 -5 0 -10 -10 -10 -22 0 -16 -3 -19 -11 -11 -8 8
-8 17 0 32 12 22 31 29 31 11z m-499 -16 c10 -13 10 -17 -2 -24 -9 -7 -15 -5
-17 5 -2 8 -8 15 -13 15 -5 0 -9 5 -9 10 0 15 26 12 41 -6z m238 7 c11 -7 9
-10 -8 -16 -14 -4 -21 -15 -22 -33 -3 -68 7 -112 26 -112 8 0 15 -4 15 -10 0
-5 -13 -10 -30 -10 -21 0 -30 5 -30 16 0 11 -6 14 -20 9 -14 -5 -20 -2 -20 9
0 18 -15 21 -25 6 -9 -15 -51 -12 -64 4 -9 11 -5 15 24 20 28 6 39 15 56 49
37 73 62 90 98 68z m-1873 -18 c20 -26 17 -43 -7 -43 -18 0 -19 2 -9 15 9 10
9 15 1 15 -6 0 -11 7 -11 15 0 20 10 19 26 -2z m181 -5 c-3 -8 -6 -5 -6 6 -1
11 2 17 5 13 3 -3 4 -12 1 -19z m1563 12 c0 -5 -4 -10 -10 -10 -5 0 -10 5 -10
10 0 6 5 10 10 10 6 0 10 -4 10 -10z m330 -20 c12 -17 29 -30 39 -29 48 4 62
-1 59 -23 -2 -15 -11 -24 -24 -26 -12 -2 -25 -13 -28 -25 l-6 -22 -18 23 -18
24 -17 -26 c-24 -36 -51 -36 -35 0 9 19 9 36 0 70 -16 59 -15 64 7 64 11 0 29
-14 41 -30z m-1483 -2 c-3 -8 -6 -5 -6 6 -1 11 2 17 5 13 3 -3 4 -12 1 -19z
m49 -5 c-10 -10 -19 5 -10 18 6 11 8 11 12 0 2 -7 1 -15 -2 -18z m-529 -5 c-3
-8 -6 -5 -6 6 -1 11 2 17 5 13 3 -3 4 -12 1 -19z m947 2 c8 -9 6 -11 -11 -5
-17 5 -23 2 -23 -9 0 -9 -4 -16 -10 -16 -5 0 -10 7 -10 15 0 21 -27 7 -34 -17
-8 -34 11 -58 46 -58 29 0 30 2 24 31 -5 25 -3 30 9 25 8 -3 15 0 16 7 0 7 5
1 10 -13 9 -21 6 -28 -16 -47 -33 -29 -50 -29 -80 2 -46 45 -25 105 33 100 19
-2 39 -9 46 -15z m369 13 c-7 -2 -21 -2 -30 0 -10 3 -4 5 12 5 17 0 24 -2 18
-5z m54 -30 c-3 -10 -5 -4 -5 12 0 17 2 24 5 18 2 -7 2 -21 0 -30z m104 21
c11 -13 24 -134 14 -134 -2 0 -12 16 -24 35 -13 22 -28 35 -41 35 -30 0 -28
51 3 66 31 16 33 16 48 -2z m389 6 c0 -5 -5 -10 -11 -10 -5 0 -7 5 -4 10 3 6
8 10 11 10 2 0 4 -4 4 -10z m210 -11 c0 -12 -37 -12 -44 0 -3 4 -3 11 0 14 8
7 44 -4 44 -14z m-1717 -9 c3 -11 1 -23 -4 -26 -5 -3 -9 0 -9 6 0 7 -7 10 -15
6 -12 -4 -13 -2 -2 14 15 25 23 25 30 0z m310 -2 c-12 -13 -23 -32 -26 -43 -5
-20 -5 -20 -6 0 -1 24 25 65 41 65 6 0 2 -10 -9 -22z m85 10 c19 -19 14 -33
-5 -16 -10 9 -27 18 -38 21 -16 4 -15 5 6 6 14 0 30 -4 37 -11z m1032 -3 c0
-8 -7 -15 -15 -15 -16 0 -20 12 -8 23 11 12 23 8 23 -8z m-2297 -21 c-4 -10
-9 -12 -15 -6 -12 12 -1 35 12 27 5 -3 6 -13 3 -21z m333 12 c3 -8 1 -24 -5
-35 -9 -16 -18 -19 -40 -15 -16 4 -32 1 -35 -5 -8 -13 -46 -15 -46 -2 0 5 14
11 30 15 17 3 30 11 30 19 0 32 55 51 66 23z m1734 4 c0 -5 -4 -10 -10 -10 -5
0 -10 5 -10 10 0 6 5 10 10 10 6 0 10 -4 10 -10z m-740 -10 c0 -5 -4 -10 -10
-10 -5 0 -10 5 -10 10 0 6 5 10 10 10 6 0 10 -4 10 -10z m350 0 c0 -5 -4 -10
-10 -10 -5 0 -10 5 -10 10 0 6 5 10 10 10 6 0 10 -4 10 -10z m30 0 c0 -5 -5
-10 -11 -10 -5 0 -7 5 -4 10 3 6 8 10 11 10 2 0 4 -4 4 -10z m-1165 -20 c-3
-5 -11 -10 -16 -10 -6 0 -7 5 -4 10 3 6 11 10 16 10 6 0 7 -4 4 -10z m715 1
c0 -12 -20 -25 -27 -18 -7 7 6 27 18 27 5 0 9 -4 9 -9z m140 -1 c0 -5 -5 -10
-11 -10 -5 0 -7 5 -4 10 3 6 8 10 11 10 2 0 4 -4 4 -10z m660 -5 c10 -13 9
-15 -8 -15 -22 0 -36 13 -25 24 10 10 20 7 33 -9z m335 5 c3 -6 -1 -7 -9 -4
-18 7 -21 14 -7 14 6 0 13 -4 16 -10z m-1945 -8 c0 -4 -9 -13 -19 -19 -16 -10
-26 -10 -51 0 -17 8 -27 16 -23 20 9 10 93 9 93 -1z m600 -2 c0 -5 -4 -10 -10
-10 -5 0 -10 5 -10 10 0 6 5 10 10 10 6 0 10 -4 10 -10z m45 -10 c-5 -14 -2
-20 9 -20 9 0 16 -9 16 -20 0 -21 -19 -28 -21 -7 0 10 -2 10 -6 0 -2 -7 -10
-13 -15 -13 -6 0 -8 3 -5 7 4 3 -1 12 -11 19 -16 11 -16 13 2 33 24 27 39 27
31 1z m105 16 c0 -3 -4 -8 -10 -11 -5 -3 -10 -1 -10 4 0 6 5 11 10 11 6 0 10
-2 10 -4z m90 -16 c0 -47 -80 -81 -110 -46 -10 13 -7 13 18 4 35 -13 58 -1 73
39 11 28 19 30 19 3z m328 -9 c-2 -10 3 -15 15 -13 9 2 17 -2 17 -8 0 -5 -3
-9 -7 -8 -5 0 -16 -2 -25 -6 -13 -6 -14 -11 -6 -20 10 -10 17 -7 36 16 13 15
33 28 44 28 20 0 21 -1 3 -20 -10 -11 -13 -20 -7 -20 7 0 12 -7 12 -16 0 -11
5 -14 16 -10 9 3 20 6 25 6 4 0 6 7 3 15 -4 10 0 15 15 15 12 0 21 -6 21 -14
0 -17 17 -24 47 -18 26 5 33 42 8 42 -8 0 -15 5 -15 10 0 6 12 10 26 10 19 0
25 -4 20 -15 -3 -8 -2 -15 3 -15 5 0 12 10 16 23 10 33 18 3 11 -39 -5 -26
-12 -34 -29 -35 -12 0 -85 -1 -162 -2 -135 -2 -140 -1 -137 18 2 11 1 17 -4
13 -4 -4 -12 -3 -19 2 -8 7 -12 5 -12 -5 0 -8 4 -12 9 -9 4 3 8 1 8 -4 0 -14
-34 -25 -38 -12 -3 8 -8 7 -18 -1 -11 -9 -14 -6 -14 20 0 21 5 31 15 31 8 0
15 8 15 18 0 14 2 15 10 2 9 -14 14 -7 11 15 -1 6 8 -1 19 -14 11 -13 20 -21
20 -18 0 3 3 13 7 23 5 13 3 16 -9 11 -9 -3 -19 0 -21 8 -8 19 -2 22 38 17 26
-3 35 -9 33 -21z m222 19 c0 -5 -4 -10 -10 -10 -5 0 -10 5 -10 10 0 6 5 10 10
10 6 0 10 -4 10 -10z m455 0 c3 -5 -1 -10 -9 -10 -9 0 -16 5 -16 10 0 6 4 10
9 10 6 0 13 -4 16 -10z m-1470 -9 c3 -5 1 -12 -5 -16 -5 -3 -10 1 -10 9 0 18
6 21 15 7z m1524 -18 c0 -25 -1 -26 -9 -8 -12 27 -12 35 0 35 6 0 10 -12 9
-27z m-2436 -3 c-3 -11 -13 -20 -23 -20 -9 0 -25 9 -35 20 -18 20 -17 20 23
20 35 0 39 -2 35 -20z m77 10 c0 -5 -4 -10 -10 -10 -5 0 -10 5 -10 10 0 6 5
10 10 10 6 0 10 -4 10 -10z m590 -5 c10 -12 10 -15 -2 -15 -8 0 -19 -5 -26
-12 -16 -16 13 -48 44 -48 13 0 26 -4 29 -10 9 -15 -68 -12 -84 3 -11 10 -14
10 -18 0 -3 -9 -28 -13 -77 -13 -68 0 -74 2 -84 25 -18 39 -15 65 7 65 17 0
19 -5 14 -34 -6 -35 10 -57 29 -38 6 6 31 8 59 5 27 -3 49 -2 49 3 -1 15 -24
40 -43 47 -30 11 -8 29 29 24 19 -3 37 -1 40 4 8 13 20 11 34 -6z m648 -4 c3
-8 -1 -12 -9 -9 -7 2 -15 10 -17 17 -3 8 1 12 9 9 7 -2 15 -10 17 -17z m202 9
c0 -5 -4 -10 -10 -10 -5 0 -10 5 -10 10 0 6 5 10 10 10 6 0 10 -4 10 -10z
m969 -47 c-15 -17 -18 -14 -23 28 l-4 34 19 -24 c15 -18 17 -27 8 -38z m204 4
c-4 -7 -10 -2 -13 13 -9 33 1 50 12 21 4 -13 5 -28 1 -34z m-643 17 c0 -8 -4
-12 -10 -9 -5 3 -10 10 -10 16 0 5 5 9 10 9 6 0 10 -7 10 -16z m110 6 c0 -5
-4 -10 -10 -10 -5 0 -10 5 -10 10 0 6 5 10 10 10 6 0 10 -4 10 -10z m235 -10
c3 -5 -1 -10 -9 -10 -9 0 -16 5 -16 10 0 6 4 10 9 10 6 0 13 -4 16 -10z
m-2068 -11 c6 -6 17 -8 24 -3 19 12 59 14 59 3 0 -5 -9 -9 -21 -9 -11 0 -17
-5 -14 -10 4 -6 14 -9 23 -8 9 2 18 -5 20 -14 5 -24 -26 -23 -58 2 -14 11 -33
20 -42 20 -19 0 -31 14 -21 24 9 9 17 8 30 -5z m611 -27 c33 -18 122 -13 114
6 -4 12 0 14 21 8 14 -3 29 -2 32 4 3 5 11 10 16 10 6 0 7 -4 4 -10 -3 -5 3
-10 13 -10 15 0 19 -5 15 -20 -5 -20 -13 -21 -158 -19 l-153 1 15 29 c8 16 19
27 24 24 5 -4 9 0 9 7 1 10 4 9 13 -2 7 -8 23 -21 35 -28z m476 22 c3 -9 13
-14 20 -11 8 3 20 -1 26 -9 12 -13 36 -13 80 1 14 4 20 2 20 -8 0 -17 -29 -27
-77 -27 -20 0 -33 5 -33 13 0 8 -3 8 -9 -2 -13 -21 -39 -6 -44 26 -4 28 -4 28
-6 -3 -1 -27 -5 -31 -26 -31 -31 0 -31 2 2 38 32 33 38 35 47 13z m486 7 c0
-6 -4 -13 -10 -16 -5 -3 -10 1 -10 9 0 9 5 16 10 16 6 0 10 -4 10 -9z m250
-27 c0 -21 -17 -17 -23 5 -3 14 -1 18 9 14 8 -3 14 -11 14 -19z m446 -21 c-11
-11 -19 6 -11 24 8 17 8 17 12 0 3 -10 2 -21 -1 -24z m54 17 c0 -11 -4 -20
-10 -20 -5 0 -10 9 -10 20 0 11 5 20 10 20 6 0 10 -9 10 -20z m-2535 0 c3 -5
1 -10 -4 -10 -6 0 -11 5 -11 10 0 6 2 10 4 10 3 0 8 -4 11 -10z m1140 -1 c4
-6 21 -9 38 -7 18 2 32 -2 34 -9 4 -10 -17 -13 -81 -13 -51 0 -86 4 -86 10 0
6 8 11 18 12 9 0 22 2 29 2 6 1 15 5 19 9 10 10 22 9 29 -4z m1055 -4 c0 -8
-7 -15 -16 -15 -14 0 -14 3 -4 15 7 8 14 15 16 15 2 0 4 -7 4 -15z m140 -6 c0
-11 -4 -17 -10 -14 -5 3 -10 13 -10 21 0 8 5 14 10 14 6 0 10 -9 10 -21z
m-2375 1 c3 -5 1 -10 -4 -10 -6 0 -11 5 -11 10 0 6 2 10 4 10 3 0 8 -4 11 -10z
m705 0 c0 -5 -7 -10 -15 -10 -8 0 -15 5 -15 10 0 6 7 10 15 10 8 0 15 -4 15
-10z m45 0 c-3 -5 -13 -10 -21 -10 -8 0 -14 5 -14 10 0 6 9 10 21 10 11 0 17
-4 14 -10z m1220 0 c3 -5 1 -10 -4 -10 -6 0 -11 5 -11 10 0 6 2 10 4 10 3 0 8
-4 11 -10z m480 0 c3 -5 -1 -10 -10 -10 -9 0 -13 5 -10 10 3 6 8 10 10 10 2 0
7 -4 10 -10z m-418 -6 c-3 -3 -12 -4 -19 -1 -8 3 -5 6 6 6 11 1 17 -2 13 -5z"/>
<g>
<path d="M690 5160 c0 -5 5 -10 10 -10 6 0 10 5 10 10 0 6 -4 10 -10 10 -5 0
-10 -4 -10 -10z"/>
</g>
<g>
<path d="M740 5160 c0 -5 5 -10 10 -10 6 0 10 5 10 10 0 6 -4 10 -10 10 -5 0
-10 -4 -10 -10z"/>
</g>
<g>
<path d="M830 5140 c0 -5 5 -10 10 -10 6 0 10 5 10 10 0 6 -4 10 -10 10 -5 0
-10 -4 -10 -10z"/>
</g>
<g>
<path d="M700 5120 c0 -5 5 -10 10 -10 6 0 10 5 10 10 0 6 -4 10 -10 10 -5 0
-10 -4 -10 -10z"/>
</g>
<g>
<path d="M820 5105 c0 -8 5 -15 10 -15 6 0 10 7 10 15 0 8 -4 15 -10 15 -5 0
-10 -7 -10 -15z"/>
</g>
<g>
<path d="M700 5060 c0 -5 5 -10 10 -10 6 0 10 5 10 10 0 6 -4 10 -10 10 -5 0
-10 -4 -10 -10z"/>
</g>
<g>
<path d="M2570 5095 c0 -8 5 -15 10 -15 6 0 10 7 10 15 0 8 -4 15 -10 15 -5 0
-10 -7 -10 -15z"/>
</g>
<g>
<path d="M2565 4994 c-7 -39 1 -57 15 -34 12 19 13 70 1 70 -5 0 -12 -16 -16
-36z"/>
</g>
<g>
<path d="M2747 5183 c-9 -20 -8 -153 2 -153 6 0 11 8 11 19 0 10 3 46 6 80 5
41 3 61 -4 61 -6 0 -13 -3 -15 -7z"/>
</g>
<g>
<path d="M2830 5094 c0 -94 17 -90 21 5 2 43 -1 66 -9 69 -9 3 -12 -19 -12
-74z"/>
</g>
<g>
<path d="M2926 5103 c-10 -10 -7 -93 4 -93 6 0 10 3 11 8 10 70 4 104 -15 85z"/>
</g>
<g>
<path d="M2835 5000 c3 -5 10 -10 16 -10 5 0 9 5 9 10 0 6 -7 10 -16 10 -8 0
-12 -4 -9 -10z"/>
</g>
<g>
<path d="M2750 4980 c0 -5 5 -10 10 -10 6 0 10 5 10 10 0 6 -4 10 -10 10 -5 0
-10 -4 -10 -10z"/>
</g>
<g>
<path d="M2800 4964 c0 -8 5 -12 10 -9 6 4 8 11 5 16 -9 14 -15 11 -15 -7z"/>
</g>
<g>
<path d="M880 4786 c0 -9 7 -16 16 -16 9 0 14 5 12 12 -6 18 -28 21 -28 4z"/>
</g>
<g>
<path d="M2485 4580 c3 -5 10 -10 16 -10 5 0 9 5 9 10 0 6 -7 10 -16 10 -8 0
-12 -4 -9 -10z"/>
</g>
<g>
<path d="M753 4456 c2 -6 35 -12 73 -14 87 -4 75 14 -14 20 -41 3 -61 1 -59
-6z"/>
</g>
<g>
<path d="M710 4434 c0 -8 5 -12 10 -9 6 3 10 10 10 16 0 5 -4 9 -10 9 -5 0
-10 -7 -10 -16z"/>
</g>
<g>
<path d="M698 4373 c7 -3 16 -2 19 1 4 3 -2 6 -13 5 -11 0 -14 -3 -6 -6z"/>
</g>
<g>
<path d="M115 4270 c3 -5 11 -10 16 -10 6 0 7 5 4 10 -3 6 -11 10 -16 10 -6 0
-7 -4 -4 -10z"/>
</g>
<g>
<path d="M160 4270 c0 -5 5 -10 10 -10 6 0 10 5 10 10 0 6 -4 10 -10 10 -5 0
-10 -4 -10 -10z"/>
</g>
<g>
<path d="M540 4272 c0 -10 41 -24 49 -17 6 7 0 11 -26 19 -13 4 -23 3 -23 -2z"/>
</g>
<g>
<path d="M477 4250 c-21 -25 -21 -27 3 -33 17 -4 20 -2 15 14 -4 11 -2 19 4
19 6 0 11 5 11 10 0 16 -14 12 -33 -10z"/>
</g>
<g>
<path d="M200 4250 c0 -5 5 -10 10 -10 6 0 10 5 10 10 0 6 -4 10 -10 10 -5 0
-10 -4 -10 -10z"/>
</g>
<g>
<path d="M160 4230 c0 -5 5 -10 10 -10 6 0 10 5 10 10 0 6 -4 10 -10 10 -5 0
-10 -4 -10 -10z"/>
</g>
<g>
<path d="M400 4230 c0 -5 5 -10 10 -10 6 0 10 5 10 10 0 6 -4 10 -10 10 -5 0
-10 -4 -10 -10z"/>
</g>
<g>
<path d="M530 4230 c0 -5 5 -10 10 -10 6 0 10 5 10 10 0 6 -4 10 -10 10 -5 0
-10 -4 -10 -10z"/>
</g>
<g>
<path d="M1516 4323 c-11 -11 -6 -23 9 -23 8 0 15 4 15 9 0 13 -16 22 -24 14z"/>
</g>
<g>
<path d="M1360 4269 c0 -5 5 -7 10 -4 6 3 10 8 10 11 0 2 -4 4 -10 4 -5 0 -10
-5 -10 -11z"/>
</g>
<g>
<path d="M1680 4270 c0 -5 7 -10 16 -10 8 0 12 5 9 10 -3 6 -10 10 -16 10 -5
0 -9 -4 -9 -10z"/>
</g>
<g>
<path d="M1240 4210 c0 -5 5 -10 10 -10 6 0 10 5 10 10 0 6 -4 10 -10 10 -5 0
-10 -4 -10 -10z"/>
</g>
<g>
<path d="M1500 3938 c0 -4 7 -8 15 -8 22 0 18 -27 -5 -33 -39 -10 -20 -25 28
-20 62 6 72 10 45 18 -27 9 -30 30 -6 44 13 7 5 9 -30 9 -26 -1 -47 -5 -47
-10z"/>
</g>
<g>
<path d="M1516 3851 c-3 -5 7 -11 22 -14 30 -6 45 0 37 14 -8 12 -52 12 -59 0z"/>
</g>
<g>
<path d="M1981 4036 c-11 -13 -10 -17 3 -22 22 -8 30 1 19 21 -9 15 -11 15
-22 1z"/>
</g>
<g>
<path d="M1040 4010 c0 -5 9 -10 20 -10 11 0 20 5 20 10 0 6 -9 10 -20 10 -11
0 -20 -4 -20 -10z"/>
</g>
<g>
<path d="M260 3981 c0 -11 5 -23 10 -26 6 -4 10 5 10 19 0 14 -4 26 -10 26 -5
0 -10 -9 -10 -19z"/>
</g>
<g>
<path d="M292 3803 c2 -42 8 -78 13 -80 6 -2 9 27 7 77 -2 44 -8 80 -13 80 -6
0 -9 -32 -7 -77z"/>
</g>
<g>
<path d="M250 3840 c0 -5 5 -10 10 -10 6 0 10 5 10 10 0 6 -4 10 -10 10 -5 0
-10 -4 -10 -10z"/>
</g>
<g>
<path d="M80 3727 c0 -57 -4 -107 -9 -112 -9 -9 -14 -132 -12 -287 1 -64 13
-89 25 -50 3 9 3 -5 1 -32 -3 -28 -10 -53 -16 -57 -15 -9 -24 -326 -14 -472 5
-82 10 -107 21 -107 10 0 14 -13 15 -42 l2 -43 7 50 c12 75 12 315 0 315 -6 0
-11 -42 -11 -102 l-2 -103 -10 97 c-6 60 -6 156 -1 245 8 131 9 140 15 83 3
-36 7 -63 9 -60 5 9 9 744 4 763 -13 46 -24 7 -24 -86z m7 -224 c-3 -10 -5 -2
-5 17 0 19 2 27 5 18 2 -10 2 -26 0 -35z m0 -130 c-3 -10 -5 -4 -5 12 0 17 2
24 5 18 2 -7 2 -21 0 -30z"/>
</g>
<g>
<path d="M270 3640 c0 -5 5 -10 10 -10 6 0 10 5 10 10 0 6 -4 10 -10 10 -5 0
-10 -4 -10 -10z"/>
</g>
<g>
<path d="M190 3610 c0 -5 5 -10 10 -10 6 0 10 5 10 10 0 6 -4 10 -10 10 -5 0
-10 -4 -10 -10z"/>
</g>
<g>
<path d="M230 3510 c0 -5 5 -10 10 -10 6 0 10 5 10 10 0 6 -4 10 -10 10 -5 0
-10 -4 -10 -10z"/>
</g>
<g>
<path d="M270 3480 c0 -5 5 -10 10 -10 6 0 10 5 10 10 0 6 -4 10 -10 10 -5 0
-10 -4 -10 -10z"/>
</g>
<g>
<path d="M357 3394 c-7 -26 -8 -245 -1 -267 14 -45 24 6 24 126 0 124 -10 187
-23 141z"/>
</g>
<g>
<path d="M214 3174 c3 -86 8 -159 11 -162 3 -3 5 67 5 156 0 112 -3 162 -11
162 -8 0 -9 -45 -5 -156z"/>
</g>
<g>
<path d="M249 3274 c-4 -63 -3 -112 3 -106 9 9 13 100 5 108 -4 4 -7 3 -8 -2z"/>
</g>
<g>
<path d="M360 3068 c0 -8 -3 -30 -6 -47 -4 -18 -2 -31 4 -31 15 0 26 70 13 83
-8 8 -11 6 -11 -5z"/>
</g>
<g>
<path d="M180 3040 c0 -5 5 -10 10 -10 6 0 10 5 10 10 0 6 -4 10 -10 10 -5 0
-10 -4 -10 -10z"/>
</g>
<g>
<path d="M400 2974 c0 -26 3 -44 7 -40 11 11 13 75 3 81 -6 4 -10 -14 -10 -41z"/>
</g>
<g>
<path d="M223 2965 c0 -22 2 -30 4 -17 2 12 2 30 0 40 -3 9 -5 -1 -4 -23z"/>
</g>
<g>
<path d="M270 2950 c0 -5 5 -10 10 -10 6 0 10 5 10 10 0 6 -4 10 -10 10 -5 0
-10 -4 -10 -10z"/>
</g>
<g>
<path d="M402 2810 c0 -14 2 -19 5 -12 2 6 2 18 0 25 -3 6 -5 1 -5 -13z"/>
</g>
<g>
<path d="M207 2803 c-7 -14 5 -103 14 -103 12 0 12 97 0 105 -5 3 -11 2 -14
-2z"/>
</g>
<g>
<path d="M480 2761 c0 -17 5 -33 10 -36 6 -4 10 8 10 29 0 20 -4 36 -10 36 -5
0 -10 -13 -10 -29z"/>
</g>
<g>
<path d="M160 2659 c0 -68 3 -90 13 -87 16 6 20 40 12 115 -10 93 -25 76 -25
-28z"/>
</g>
<g>
<path d="M398 2661 c-11 -47 -10 -961 1 -961 4 0 11 24 13 53 8 80 -6 947 -14
908z"/>
</g>
<g>
<path d="M517 2663 c-10 -10 -8 -101 2 -108 13 -8 21 23 17 68 -3 40 -9 51
-19 40z"/>
</g>
<g>
<path d="M477 2598 c-10 -60 -9 -886 1 -892 6 -3 12 0 14 7 6 19 2 907 -4 913
-3 3 -8 -10 -11 -28z"/>
</g>
<g>
<path d="M554 2556 c-7 -19 3 -52 13 -42 12 11 13 45 3 51 -6 4 -13 -1 -16 -9z"/>
</g>
<g>
<path d="M270 2540 c0 -5 5 -10 10 -10 6 0 10 5 10 10 0 6 -4 10 -10 10 -5 0
-10 -4 -10 -10z"/>
</g>
<g>
<path d="M517 2514 c-10 -10 -8 -814 2 -814 5 0 12 8 15 18 6 21 1 791 -6 797
-3 3 -7 2 -11 -1z"/>
</g>
<g>
<path d="M170 2495 c0 -8 5 -15 10 -15 6 0 10 7 10 15 0 8 -4 15 -10 15 -5 0
-10 -7 -10 -15z"/>
</g>
<g>
<path d="M61 2413 c2 -124 17 -145 18 -25 1 62 -3 102 -9 102 -6 0 -10 -32 -9
-77z"/>
</g>
<g>
<path d="M100 2435 c-2 -92 -12 -270 -15 -274 -3 -2 -5 17 -5 44 0 27 -2 46
-5 43 -6 -5 -8 -247 -4 -293 1 -11 5 3 9 30 5 33 7 -1 7 -95 -1 -80 -3 -135
-5 -122 -2 12 -7 22 -12 22 -12 0 -2 -424 10 -428 6 -2 10 -26 10 -53 0 -28 4
-48 9 -45 4 3 8 91 8 195 0 150 -3 191 -13 195 -17 7 -18 33 -2 38 10 4 14 91
18 374 3 203 2 373 -2 379 -5 5 -8 0 -8 -10z"/>
</g>
<g>
<path d="M230 2441 c0 -6 5 -13 10 -16 6 -3 10 1 10 9 0 9 -4 16 -10 16 -5 0
-10 -4 -10 -9z"/>
</g>
<g>
<path d="M320 2420 c0 -5 5 -10 10 -10 6 0 10 5 10 10 0 6 -4 10 -10 10 -5 0
-10 -4 -10 -10z"/>
</g>
<g>
<path d="M440 2379 c0 -24 4 -38 10 -34 6 3 10 22 10 41 0 19 -4 34 -10 34 -5
0 -10 -18 -10 -41z"/>
</g>
<g>
<path d="M557 2383 c-11 -10 -8 -43 3 -43 6 0 10 11 10 25 0 26 -2 29 -13 18z"/>
</g>
<g>
<path d="M300 2340 c0 -5 5 -10 10 -10 6 0 10 5 10 10 0 6 -4 10 -10 10 -5 0
-10 -4 -10 -10z"/>
</g>
<g>
<path d="M160 2304 c0 -21 4 -33 10 -29 6 3 10 19 10 36 0 16 -4 29 -10 29 -5
0 -10 -16 -10 -36z"/>
</g>
<g>
<path d="M437 2174 c2 -77 13 -82 13 -6 0 34 -3 62 -8 62 -4 0 -6 -25 -5 -56z"/>
</g>
<g>
<path d="M557 2223 c-11 -10 -8 -103 3 -103 6 0 10 25 10 55 0 56 -1 60 -13
48z"/>
</g>
<g>
<path d="M270 2190 c0 -5 5 -10 10 -10 6 0 10 5 10 10 0 6 -4 10 -10 10 -5 0
-10 -4 -10 -10z"/>
</g>
<g>
<path d="M159 2105 c-4 -86 0 -207 7 -214 11 -11 11 14 5 149 -7 129 -8 136
-12 65z"/>
</g>
<g>
<path d="M20 2110 c0 -22 5 -40 10 -40 6 0 10 18 10 40 0 22 -4 40 -10 40 -5
0 -10 -18 -10 -40z"/>
</g>
<g>
<path d="M437 2063 c-11 -10 -8 -121 3 -128 6 -4 10 20 10 64 0 71 -1 77 -13
64z"/>
</g>
<g>
<path d="M550 1860 c0 -133 4 -210 10 -210 6 0 11 47 11 118 1 64 3 149 5 187
4 78 -1 115 -16 115 -6 0 -10 -79 -10 -210z"/>
</g>
<g>
<path d="M20 1951 c0 -33 5 -63 10 -66 6 -4 10 18 10 59 0 37 -4 66 -10 66 -6
0 -10 -26 -10 -59z"/>
</g>
<g>
<path d="M320 1930 c0 -5 5 -10 10 -10 6 0 10 5 10 10 0 6 -4 10 -10 10 -5 0
-10 -4 -10 -10z"/>
</g>
<g>
<path d="M438 1804 c-3 -82 3 -112 16 -78 10 25 7 164 -3 164 -5 0 -11 -39
-13 -86z"/>
</g>
<g>
<path d="M268 1788 c-4 -89 -2 -102 13 -93 12 8 12 175 0 175 -5 0 -11 -37
-13 -82z"/>
</g>
<g>
<path d="M20 1679 c0 -97 4 -148 10 -144 13 8 13 295 0 295 -6 0 -10 -57 -10
-151z"/>
</g>
<g>
<path d="M158 1758 c-5 -35 3 -79 13 -72 12 7 12 94 0 94 -5 0 -11 -10 -13
-22z"/>
</g>
<g>
<path d="M220 1760 c0 -5 5 -10 10 -10 6 0 10 5 10 10 0 6 -4 10 -10 10 -5 0
-10 -4 -10 -10z"/>
</g>
<g>
<path d="M144 1559 c-3 -6 -1 -16 5 -22 8 -8 11 -5 11 11 0 24 -5 28 -16 11z"/>
</g>
<g>
<path d="M151 1454 c0 -11 3 -14 6 -6 3 7 2 16 -1 19 -3 4 -6 -2 -5 -13z"/>
</g>
<g>
<path d="M130 1346 c0 -9 5 -16 10 -16 6 0 10 4 10 9 0 6 -4 13 -10 16 -5 3
-10 -1 -10 -9z"/>
</g>
<g>
<path d="M480 3870 c0 -5 9 -10 20 -10 11 0 20 5 20 10 0 6 -9 10 -20 10 -11
0 -20 -4 -20 -10z"/>
</g>
<g>
<path d="M545 3790 c-8 -13 25 -13 45 0 12 8 9 10 -12 10 -15 0 -30 -4 -33
-10z"/>
</g>
<g>
<path d="M610 3600 c0 -13 11 -13 30 0 12 8 11 10 -7 10 -13 0 -23 -4 -23 -10z"/>
</g>
<g>
<path d="M721 3356 c-6 -16 -10 -31 -7 -33 7 -8 28 37 23 50 -3 7 -10 -1 -16
-17z"/>
</g>
<g>
<path d="M538 3303 c6 -2 18 -2 25 0 6 3 1 5 -13 5 -14 0 -19 -2 -12 -5z"/>
</g>
<g>
<path d="M670 3279 c0 -5 5 -7 10 -4 6 3 10 8 10 11 0 2 -4 4 -10 4 -5 0 -10
-5 -10 -11z"/>
</g>
<g>
<path d="M1830 3870 c0 -6 26 -10 57 -10 31 0 54 2 51 5 -10 11 -108 15 -108
5z"/>
</g>
<g>
<path d="M2005 3850 c3 -5 17 -10 31 -10 13 0 24 5 24 10 0 6 -14 10 -31 10
-17 0 -28 -4 -24 -10z"/>
</g>
<g>
<path d="M1830 3830 c0 -6 35 -10 85 -10 50 0 85 4 85 10 0 6 -35 10 -85 10
-50 0 -85 -4 -85 -10z"/>
</g>
<g>
<path d="M1840 3802 c0 -11 47 -22 91 -22 16 0 29 5 29 10 0 6 -20 10 -44 10
-24 0 -51 3 -60 6 -9 3 -16 2 -16 -4z"/>
</g>
<g>
<path d="M950 3831 c0 -17 101 -27 148 -15 43 12 21 20 -63 22 -47 1 -85 -2
-85 -7z"/>
</g>
<g>
<path d="M1130 3820 c0 -5 20 -10 45 -10 25 0 45 5 45 10 0 6 -20 10 -45 10
-25 0 -45 -4 -45 -10z"/>
</g>
<g>
<path d="M1150 3469 c0 -5 5 -7 10 -4 6 3 10 8 10 11 0 2 -4 4 -10 4 -5 0 -10
-5 -10 -11z"/>
</g>
<g>
<path d="M2080 3588 c0 -9 5 -20 11 -23 17 -11 20 0 4 21 -13 17 -14 17 -15 2z"/>
</g>
<g>
<path d="M2045 3560 c3 -5 11 -10 16 -10 6 0 7 5 4 10 -3 6 -11 10 -16 10 -6
0 -7 -4 -4 -10z"/>
</g>
<g>
<path d="M1985 3520 c-3 -5 -1 -10 4 -10 6 0 11 5 11 10 0 6 -2 10 -4 10 -3 0
-8 -4 -11 -10z"/>
</g>
<g>
<path d="M1555 2689 c5 -15 2 -22 -15 -26 -18 -5 -19 -8 -7 -22 8 -9 18 -33
21 -54 4 -23 11 -35 18 -31 6 4 8 21 5 40 -4 25 -2 34 9 34 8 0 14 7 14 15 0
8 -7 15 -15 15 -9 0 -15 9 -15 25 0 14 -5 25 -11 25 -6 0 -8 -9 -4 -21z"/>
</g>
<g>
<path d="M1580 2250 c0 -11 -7 -20 -15 -20 -8 0 -15 -4 -15 -10 0 -5 7 -10 15
-10 11 0 15 -13 15 -54 0 -30 5 -58 10 -61 6 -4 10 15 10 50 0 40 4 57 15 61
8 4 15 10 15 15 0 5 -7 9 -15 9 -8 0 -15 9 -15 20 0 11 -4 20 -10 20 -5 0 -10
-9 -10 -20z"/>
</g>
<g>
<path d="M1572 1599 c-11 -18 -11 -24 4 -40 22 -25 36 -24 53 3 12 19 11 24
-9 40 -28 23 -32 23 -48 -3z m44 -10 c3 -6 1 -16 -5 -22 -9 -9 -14 -8 -21 3
-5 8 -10 18 -10 23 0 11 28 8 36 -4z"/>
</g>
<g>
<path d="M2325 3290 c3 -5 8 -10 11 -10 2 0 4 5 4 10 0 6 -5 10 -11 10 -5 0
-7 -4 -4 -10z"/>
</g>
<g>
<path d="M2320 3260 c0 -5 5 -10 10 -10 6 0 10 5 10 10 0 6 -4 10 -10 10 -5 0
-10 -4 -10 -10z"/>
</g>
<g>
<path d="M2279 2907 c14 -18 71 -24 71 -7 0 6 -11 10 -24 10 -13 0 -33 3 -43
7 -16 6 -16 5 -4 -10z"/>
</g>
<g>
<path d="M130 1095 c0 -8 5 -15 10 -15 6 0 10 7 10 15 0 8 -4 15 -10 15 -5 0
-10 -7 -10 -15z"/>
</g>
<g>
<path d="M144 1039 c-3 -6 -1 -16 5 -22 8 -8 11 -5 11 11 0 24 -5 28 -16 11z"/>
</g>
<g>
<path d="M550 1034 c0 -9 5 -14 12 -12 18 6 21 28 4 28 -9 0 -16 -7 -16 -16z"/>
</g>
<g>
<path d="M517 1003 c-4 -3 -7 -13 -7 -21 0 -12 3 -12 15 -2 8 7 15 16 15 21 0
11 -14 12 -23 2z"/>
</g>
<g>
<path d="M162 968 c2 -6 10 -14 16 -16 7 -2 10 2 6 12 -7 18 -28 22 -22 4z"/>
</g>
<g>
<path d="M460 930 c0 -5 4 -10 9 -10 6 0 13 5 16 10 3 6 -1 10 -9 10 -9 0 -16
-4 -16 -10z"/>
</g>
<g>
<path d="M190 901 c0 -6 5 -13 10 -16 6 -3 10 1 10 9 0 9 -4 16 -10 16 -5 0
-10 -4 -10 -9z"/>
</g>
<g>
<path d="M420 875 c-7 -9 -11 -18 -8 -20 3 -3 11 1 18 10 7 9 11 18 8 20 -3 3
-11 -1 -18 -10z"/>
</g>
<g>
<path d="M236 816 c3 -9 11 -16 16 -16 13 0 5 23 -10 28 -7 2 -10 -2 -6 -12z"/>
</g>
<g>
<path d="M376 821 c-4 -7 -5 -15 -2 -18 9 -9 19 4 14 18 -4 11 -6 11 -12 0z"/>
</g>
<g>
<path d="M278 773 c6 -2 18 -2 25 0 6 3 1 5 -13 5 -14 0 -19 -2 -12 -5z"/>
</g>
<g>
<path d="M350 769 c0 -5 5 -7 10 -4 6 3 10 8 10 11 0 2 -4 4 -10 4 -5 0 -10
-5 -10 -11z"/>
</g>
<g>
<path d="M445 769 c-11 -17 1 -21 15 -4 8 9 8 15 2 15 -6 0 -14 -5 -17 -11z"/>
</g>
<g>
<path d="M410 710 c0 -5 5 -10 10 -10 6 0 10 5 10 10 0 6 -4 10 -10 10 -5 0
-10 -4 -10 -10z"/>
</g>
<g>
<path d="M370 640 c0 -5 4 -10 9 -10 6 0 13 5 16 10 3 6 -1 10 -9 10 -9 0 -16
-4 -16 -10z"/>
</g>
<g>
<path d="M250 586 c0 -9 5 -16 10 -16 6 0 10 4 10 9 0 6 -4 13 -10 16 -5 3
-10 -1 -10 -9z"/>
</g>
<g>
<path d="M366 591 c-4 -5 -2 -12 3 -15 5 -4 12 -2 15 3 4 5 2 12 -3 15 -5 4
-12 2 -15 -3z"/>
</g>
<g>
<path d="M360 514 c0 -8 5 -12 10 -9 6 4 8 11 5 16 -9 14 -15 11 -15 -7z"/>
</g>
<g>
<path d="M355 450 c3 -5 8 -10 11 -10 2 0 4 5 4 10 0 6 -5 10 -11 10 -5 0 -7
-4 -4 -10z"/>
</g>
<g>
<path d="M1660 1071 c0 -5 6 -12 13 -15 10 -5 10 -7 0 -12 -21 -9 -15 -26 6
-19 11 3 22 1 26 -5 3 -5 14 -10 23 -10 12 0 13 3 4 12 -9 9 -9 15 1 27 10 12
9 14 -3 9 -9 -3 -24 0 -35 8 -22 16 -35 18 -35 5z"/>
</g>
<g>
<path d="M253 1023 c-13 -8 -23 -22 -23 -29 0 -20 5 -18 42 16 34 32 20 41
-19 13z"/>
</g>
<g>
<path d="M762 889 c2 -7 10 -15 17 -17 8 -3 12 1 9 9 -2 7 -10 15 -17 17 -8 3
-12 -1 -9 -9z"/>
</g>
<g>
<path d="M850 620 c0 -5 7 -10 15 -10 8 0 15 5 15 10 0 6 -7 10 -15 10 -8 0
-15 -4 -15 -10z"/>
</g>
<g>
<path d="M1310 595 c0 -8 2 -15 4 -15 2 0 6 7 10 15 3 8 1 15 -4 15 -6 0 -10
-7 -10 -15z"/>
</g>
<g>
<path d="M510 530 c0 -5 5 -10 10 -10 6 0 10 5 10 10 0 6 -4 10 -10 10 -5 0
-10 -4 -10 -10z"/>
</g>
</g>
<g>
<path d="M2275 5180 c-3 -5 1 -10 9 -10 9 0 16 5 16 10 0 6 -4 10 -9 10 -6 0
-13 -4 -16 -10z"/>
</g>
<g>
<path d="M1360 5140 c0 -10 26 -20 54 -20 17 0 30 -13 49 -49 15 -27 27 -54
27 -60 0 -7 -23 -11 -60 -11 -33 0 -60 -4 -60 -10 0 -6 58 -10 155 -10 97 0
155 4 155 10 0 6 -25 10 -55 10 -34 0 -55 4 -55 11 0 6 12 33 27 60 23 44 30
49 60 49 23 0 33 4 31 12 -5 14 -328 22 -328 8z m220 -23 c0 -8 -41 -87 -45
-87 -5 0 -45 75 -45 85 0 3 20 5 45 5 25 0 45 -1 45 -3z"/>
</g>
<g>
<path d="M2310 5120 c0 -5 5 -10 11 -10 5 0 7 5 4 10 -3 6 -8 10 -11 10 -2 0
-4 -4 -4 -10z"/>
</g>
<g>
<path d="M2345 5080 c3 -5 8 -10 11 -10 2 0 4 5 4 10 0 6 -5 10 -11 10 -5 0
-7 -4 -4 -10z"/>
</g>
<g>
<path d="M2320 5034 c0 -8 5 -12 10 -9 6 4 8 11 5 16 -9 14 -15 11 -15 -7z"/>
</g>
<g>
<path d="M2340 4970 c0 -5 5 -10 10 -10 6 0 10 5 10 10 0 6 -4 10 -10 10 -5 0
-10 -4 -10 -10z"/>
</g>
<g>
<path d="M2660 4790 c0 -11 5 -20 10 -20 6 0 10 9 10 20 0 11 -4 20 -10 20 -5
0 -10 -9 -10 -20z"/>
</g>
<g>
<path d="M1500 4793 c0 -5 4 -13 9 -18 6 -6 4 -23 -5 -45 -15 -33 -16 -34 -30
-16 -8 11 -14 31 -14 44 0 21 -3 23 -27 17 -36 -9 -40 -13 -22 -28 9 -6 23
-25 33 -40 15 -25 15 -29 1 -43 -20 -20 -19 -31 3 -43 9 -5 16 -12 15 -15 -2
-3 0 -6 5 -6 4 0 7 5 7 10 0 6 6 14 13 19 9 5 11 17 6 34 -7 31 2 35 23 10 8
-10 12 -13 9 -7 -5 11 14 24 35 24 5 0 8 -15 7 -32 -2 -24 1 -33 12 -33 10 0
15 10 15 30 0 20 6 31 17 33 15 3 15 7 5 23 -9 15 -9 23 0 38 10 16 9 20 -3
25 -26 10 -36 7 -30 -10 3 -8 3 -27 0 -40 -10 -39 -36 -10 -32 35 3 33 0 36
-24 39 -16 2 -28 -1 -28 -5z m40 -83 c0 -11 -7 -20 -15 -20 -18 0 -19 12 -3
28 16 16 18 15 18 -8z"/>
</g>
<g>
<path d="M2620 4785 c0 -8 5 -15 10 -15 6 0 10 7 10 15 0 8 -4 15 -10 15 -5 0
-10 -7 -10 -15z"/>
</g>
<g>
<path d="M2860 4785 c0 -8 5 -15 10 -15 6 0 10 7 10 15 0 8 -4 15 -10 15 -5 0
-10 -7 -10 -15z"/>
</g>
<g>
<path d="M1373 4683 c-3 -10 -8 -22 -11 -27 -3 -5 0 -6 6 -2 7 4 12 2 12 -3 0
-6 5 -11 10 -11 6 0 5 8 -2 20 -16 25 -3 38 22 22 11 -7 20 -8 20 -3 0 9 -23
21 -41 21 -5 0 -12 -8 -16 -17z"/>
</g>
<g>
<path d="M1630 4673 c-13 -15 -12 -16 3 -10 10 4 17 2 17 -6 0 -8 4 -7 9 3 19
29 -5 39 -29 13z"/>
</g>
<g>
<path d="M1644 4625 c-3 -8 -4 -20 -2 -27 3 -7 7 -1 10 15 6 29 1 36 -8 12z"/>
</g>
<g>
<path d="M2224 4625 c-17 -13 -17 -14 -2 -15 9 0 20 5 23 11 11 17 0 20 -21 4z"/>
</g>
<g>
<path d="M1321 4596 c-13 -15 -6 -62 11 -72 5 -3 6 -15 2 -27 -6 -21 -5 -21
11 1 15 21 16 25 1 40 -19 21 -11 66 11 58 8 -3 11 -1 8 4 -9 14 -31 12 -44
-4z"/>
</g>
<g>
<path d="M1503 4598 c-12 -6 -26 -24 -32 -39 -5 -16 -15 -29 -20 -29 -16 0
-13 -36 3 -50 8 -6 25 -10 38 -8 29 4 36 42 12 69 -16 18 -16 20 7 38 23 18
23 18 42 -6 15 -18 16 -27 7 -38 -6 -7 -10 -26 -8 -42 2 -22 8 -28 28 -28 20
0 26 6 28 27 2 14 -3 32 -12 40 -12 11 -12 16 7 36 15 16 17 22 6 22 -12 0
-11 2 1 10 12 8 11 10 -7 10 -14 0 -23 -6 -23 -15 0 -8 -5 -15 -10 -15 -6 0
-13 7 -16 15 -7 17 -20 18 -51 3z m-13 -87 c0 -23 -16 -36 -25 -21 -9 14 1 40
15 40 5 0 10 -9 10 -19z m100 -17 c0 -8 -4 -14 -10 -14 -5 0 -10 9 -10 21 0
11 5 17 10 14 6 -3 10 -13 10 -21z"/>
</g>
<g>
<path d="M1698 4603 c-20 -5 -25 -33 -7 -33 6 0 9 -7 5 -15 -3 -9 0 -15 9 -15
10 0 15 11 15 35 0 19 -1 34 -2 34 -2 -1 -11 -3 -20 -6z"/>
</g>
<g>
<path d="M1404 4592 c-18 -12 -36 -53 -30 -69 3 -8 1 -24 -5 -35 -14 -25 8
-52 34 -42 22 8 22 53 0 69 -15 11 -15 17 -5 39 11 25 32 36 32 16 0 -5 7 -10
15 -10 13 0 13 3 3 20 -13 21 -26 25 -44 12z m-4 -113 c0 -11 -4 -17 -10 -14
-5 3 -10 13 -10 21 0 8 5 14 10 14 6 0 10 -9 10 -21z"/>
</g>
<g>
<path d="M1618 4566 c-22 -16 -23 -26 -3 -26 8 0 15 5 15 10 0 6 7 10 15 10 8
0 15 -9 15 -20 0 -11 5 -20 10 -20 13 0 13 3 -2 35 -13 28 -25 31 -50 11z"/>
</g>
<g>
<path d="M1415 4540 c-3 -5 -1 -10 4 -10 6 0 11 5 11 10 0 6 -2 10 -4 10 -3 0
-8 -4 -11 -10z"/>
</g>
<g>
<path d="M1294 4515 c-4 -8 -7 -26 -8 -40 0 -14 -5 -25 -11 -25 -19 0 -13 -46
7 -59 17 -10 23 -9 39 5 25 22 26 62 2 60 -15 -1 -18 6 -17 37 2 39 -3 47 -12
22z m21 -93 c0 -18 -20 -15 -23 4 -3 10 1 15 10 12 7 -3 13 -10 13 -16z"/>
</g>
<g>
<path d="M1630 4519 c0 -5 5 -7 10 -4 6 3 10 8 10 11 0 2 -4 4 -10 4 -5 0 -10
-5 -10 -11z"/>
</g>
<g>
<path d="M1700 4507 c-18 -9 -24 -19 -22 -34 2 -14 -2 -23 -9 -23 -10 0 -10
-3 -1 -12 14 -14 42 6 42 32 0 19 27 47 36 37 3 -3 0 -15 -6 -28 -11 -19 -10
-21 4 -16 9 4 16 2 16 -3 0 -6 7 -10 15 -10 9 0 15 -9 15 -22 0 -21 0 -21 15
-2 14 18 14 18 15 -5 0 -23 -46 -69 -64 -63 -5 2 -1 -9 9 -24 9 -14 12 -23 6
-20 -14 9 -14 0 0 -26 8 -15 8 -19 0 -14 -6 4 -11 1 -11 -7 0 -20 29 -30 46
-16 7 5 16 25 20 42 3 18 10 37 13 42 4 6 6 31 3 56 -3 40 -8 48 -35 60 -19 9
-34 24 -37 39 -7 29 -32 35 -70 17z m99 -191 c-3 -3 -11 5 -18 17 -13 21 -12
21 5 5 10 -10 16 -20 13 -22z"/>
</g>
<g>
<path d="M1640 4475 c0 -14 5 -25 10 -25 6 0 10 11 10 25 0 14 -4 25 -10 25
-5 0 -10 -11 -10 -25z"/>
</g>
<g>
<path d="M1223 4453 c-10 -4 -9 -8 1 -19 18 -18 26 -18 26 0 0 18 -11 25 -27
19z"/>
</g>
<g>
<path d="M1539 4434 c-12 -14 -11 -16 5 -13 11 2 21 10 24 17 5 17 -13 15 -29
-4z"/>
</g>
<g>
<path d="M1725 4421 c-14 -28 -14 -30 6 -36 26 -9 35 0 20 19 -8 10 -9 16 -1
21 5 3 10 -1 10 -9 0 -9 5 -16 10 -16 16 0 11 37 -6 44 -22 9 -22 9 -39 -23z"/>
</g>
<g>
<path d="M1427 4429 c7 -7 15 -10 18 -7 3 3 -2 9 -12 12 -14 6 -15 5 -6 -5z"/>
</g>
<g>
<path d="M1633 4420 c5 -29 14 -35 33 -19 14 12 14 14 -2 26 -25 18 -34 16
-31 -7z"/>
</g>
<g>
<path d="M1363 4402 c0 -12 7 -24 13 -26 15 -6 12 20 -4 36 -8 8 -11 6 -9 -10z"/>
</g>
<g>
<path d="M1594 4387 c-14 -16 75 -52 90 -37 7 7 6 10 -3 10 -7 0 -24 9 -38 20
-29 23 -34 24 -49 7z"/>
</g>
<g>
<path d="M1257 4369 c7 -7 15 -10 18 -7 3 3 -2 9 -12 12 -14 6 -15 5 -6 -5z"/>
</g>
<g>
<path d="M1415 4365 c-40 -18 -16 -19 26 0 19 8 27 14 19 14 -8 0 -28 -6 -45
-14z"/>
</g>
<g>
<path d="M2945 4340 c3 -5 8 -10 11 -10 2 0 4 5 4 10 0 6 -5 10 -11 10 -5 0
-7 -4 -4 -10z"/>
</g>
<g>
<path d="M2975 4310 c-3 -5 1 -10 9 -10 9 0 16 5 16 10 0 6 -4 10 -9 10 -6 0
-13 -4 -16 -10z"/>
</g>
<g>
<path d="M2945 4270 c-4 -6 7 -10 24 -10 17 0 31 5 31 10 0 6 -11 10 -24 10
-14 0 -28 -4 -31 -10z"/>
</g>
<g>
<path d="M2760 4260 c0 -5 5 -10 10 -10 6 0 10 5 10 10 0 6 -4 10 -10 10 -5 0
-10 -4 -10 -10z"/>
</g>
<g>
<path d="M2700 4251 c0 -5 7 -11 14 -14 10 -4 13 -1 9 9 -6 15 -23 19 -23 5z"/>
</g>
<g>
<path d="M2845 4242 c31 -14 155 -23 155 -12 0 6 -11 10 -24 10 -12 0 -52 2
-87 5 -41 4 -57 2 -44 -3z"/>
</g>
<g>
<path d="M2818 4004 c-5 -4 -8 -16 -8 -28 0 -14 3 -17 11 -9 6 6 9 19 7 28 -1
9 -6 13 -10 9z"/>
</g>
<g>
<path d="M2890 3990 c0 -5 5 -10 10 -10 6 0 10 5 10 10 0 6 -4 10 -10 10 -5 0
-10 -4 -10 -10z"/>
</g>
<g>
<path d="M2847 3983 c-4 -3 -7 -37 -7 -74 0 -37 -4 -69 -9 -71 -12 -4 -25
-338 -13 -338 9 0 22 166 22 282 0 31 4 58 9 60 10 3 20 148 10 148 -3 0 -9
-3 -12 -7z"/>
</g>
<g>
<path d="M2546 3973 c-9 -10 -7 -103 3 -103 10 0 21 35 21 72 0 27 -12 43 -24
31z"/>
</g>
<g>
<path d="M2707 3973 c-11 -10 -8 -93 3 -93 6 0 10 23 10 50 0 51 -1 55 -13 43z"/>
</g>
<g>
<path d="M2730 3970 c0 -5 5 -10 11 -10 5 0 7 5 4 10 -3 6 -8 10 -11 10 -2 0
-4 -4 -4 -10z"/>
</g>
<g>
<path d="M2960 3969 c0 -5 5 -7 10 -4 6 3 10 8 10 11 0 2 -4 4 -10 4 -5 0 -10
-5 -10 -11z"/>
</g>
<g>
<path d="M2609 3870 c-7 -41 -9 -622 -2 -635 7 -11 12 90 16 302 4 196 2 322
-3 327 -6 6 -10 8 -11 6z"/>
</g>
<g>
<path d="M2730 3801 c0 -6 5 -13 10 -16 6 -3 10 1 10 9 0 9 -4 16 -10 16 -5 0
-10 -4 -10 -9z"/>
</g>
<g>
<path d="M2866 3775 c-9 -24 -7 -63 3 -69 12 -8 25 64 13 76 -6 6 -12 3 -16
-7z"/>
</g>
<g>
<path d="M2548 3463 c2 -175 -1 -358 -5 -406 -8 -80 -3 -111 14 -93 10 9 17
652 8 740 -14 153 -20 69 -17 -241z"/>
</g>
<g>
<path d="M2768 3623 c-4 -94 -2 -107 13 -98 12 8 12 185 0 185 -5 0 -11 -39
-13 -87z"/>
</g>
<g>
<path d="M2668 3308 c-2 -90 0 -167 4 -173 5 -5 8 68 8 163 0 95 -2 172 -4
172 -3 0 -6 -73 -8 -162z"/>
</g>
<g>
<path d="M2820 3440 c0 -5 5 -10 10 -10 6 0 10 5 10 10 0 6 -4 10 -10 10 -5 0
-10 -4 -10 -10z"/>
</g>
<g>
<path d="M2835 3320 c3 -5 8 -10 11 -10 2 0 4 5 4 10 0 6 -5 10 -11 10 -5 0
-7 -4 -4 -10z"/>
</g>
<g>
<path d="M2850 3225 c0 -8 5 -15 10 -15 6 0 10 7 10 15 0 8 -4 15 -10 15 -5 0
-10 -7 -10 -15z"/>
</g>
<g>
<path d="M2597 2783 c3 -203 9 -372 14 -377 11 -12 12 337 2 577 -12 303 -22
173 -16 -200z"/>
</g>
<g>
<path d="M2721 3094 c0 -11 3 -14 6 -6 3 7 2 16 -1 19 -3 4 -6 -2 -5 -13z"/>
</g>
<g>
<path d="M2680 3060 c0 -5 5 -10 10 -10 6 0 10 5 10 10 0 6 -4 10 -10 10 -5 0
-10 -4 -10 -10z"/>
</g>
<g>
<path d="M2666 2983 c-3 -16 -2 -50 3 -78 9 -50 9 -50 10 28 1 80 -3 97 -13
50z"/>
</g>
<g>
<path d="M2720 2950 c0 -5 5 -10 10 -10 6 0 10 5 10 10 0 6 -4 10 -10 10 -5 0
-10 -4 -10 -10z"/>
</g>
<g>
<path d="M2790 2920 c0 -5 5 -10 10 -10 6 0 10 5 10 10 0 6 -4 10 -10 10 -5 0
-10 -4 -10 -10z"/>
</g>
<g>
<path d="M2860 2864 c0 -41 4 -63 10 -59 6 3 10 33 10 66 0 33 -4 59 -10 59
-6 0 -10 -29 -10 -66z"/>
</g>
<g>
<path d="M2544 2728 c3 -95 9 -379 12 -630 4 -252 10 -458 15 -458 4 0 11 5
14 10 6 10 -13 950 -24 1220 0 17 -6 30 -12 30 -8 0 -10 -49 -5 -172z"/>
</g>
<g>
<path d="M2903 2499 c5 -271 9 -322 21 -308 9 11 -7 609 -17 609 -7 0 -8 -98
-4 -301z"/>
</g>
<g>
<path d="M2708 2583 c-3 -199 5 -260 15 -121 10 124 8 296 -3 303 -5 3 -10
-66 -12 -182z"/>
</g>
<g>
<path d="M2840 2739 c0 -5 5 -7 10 -4 6 3 10 8 10 11 0 2 -4 4 -10 4 -5 0 -10
-5 -10 -11z"/>
</g>
<g>
<path d="M2805 2730 c3 -5 8 -10 11 -10 2 0 4 5 4 10 0 6 -5 10 -11 10 -5 0
-7 -4 -4 -10z"/>
</g>
<g>
<path d="M2670 2680 c0 -5 5 -10 10 -10 6 0 10 5 10 10 0 6 -4 10 -10 10 -5 0
-10 -4 -10 -10z"/>
</g>
<g>
<path d="M2490 2565 c0 -30 5 -55 10 -55 6 0 10 25 10 55 0 30 -4 55 -10 55
-5 0 -10 -25 -10 -55z"/>
</g>
<g>
<path d="M2877 2315 c3 -143 7 -262 9 -264 7 -8 2 383 -6 454 -4 39 -6 -47 -3
-190z"/>
</g>
<g>
<path d="M2740 2271 c0 -41 4 -71 10 -71 6 0 10 28 10 64 0 36 -4 68 -10 71
-6 4 -10 -20 -10 -64z"/>
</g>
<g>
<path d="M2610 2269 c0 -11 5 -17 10 -14 6 3 10 13 10 21 0 8 -4 14 -10 14 -5
0 -10 -9 -10 -21z"/>
</g>
<g>
<path d="M2916 2033 c7 -104 10 -116 20 -89 9 24 -6 186 -18 186 -6 0 -7 -36
-2 -97z"/>
</g>
<g>
<path d="M2610 2012 c0 -49 -3 -110 -6 -136 -6 -38 -4 -46 10 -46 14 0 16 16
16 129 0 76 -4 132 -10 136 -6 4 -10 -26 -10 -83z"/>
</g>
<g>
<path d="M2880 2006 c0 -8 5 -18 10 -21 6 -3 10 3 10 14 0 12 -4 21 -10 21 -5
0 -10 -6 -10 -14z"/>
</g>
<g>
<path d="M2690 1870 c0 -5 5 -10 10 -10 6 0 10 5 10 10 0 6 -4 10 -10 10 -5 0
-10 -4 -10 -10z"/>
</g>
<g>
<path d="M2890 1806 c0 -31 5 -56 10 -56 6 0 10 22 10 49 0 28 -4 53 -10 56
-6 4 -10 -15 -10 -49z"/>
</g>
<g>
<path d="M2930 1815 c-1 -5 -1 -59 0 -120 4 -273 5 -288 19 -293 12 -4 13 25
7 188 -4 106 -11 202 -16 214 -5 11 -9 17 -10 11z"/>
</g>
<g>
<path d="M2607 1763 c-4 -3 -7 -26 -7 -50 0 -32 4 -43 15 -43 11 0 15 12 15
50 0 46 -7 60 -23 43z"/>
</g>
<g>
<path d="M2690 1740 c0 -5 5 -10 10 -10 6 0 10 5 10 10 0 6 -4 10 -10 10 -5 0
-10 -4 -10 -10z"/>
</g>
<g>
<path d="M2890 1602 c0 -38 7 -55 19 -47 10 5 0 85 -10 85 -5 0 -9 -17 -9 -38z"/>
</g>
<g>
<path d="M2830 1600 c0 -5 5 -10 10 -10 6 0 10 5 10 10 0 6 -4 10 -10 10 -5 0
-10 -4 -10 -10z"/>
</g>
<g>
<path d="M2930 1275 c0 -30 5 -55 10 -55 6 0 10 10 11 23 1 12 2 37 4 55 2 22
-2 32 -11 32 -10 0 -14 -15 -14 -55z"/>
</g>
<g>
<path d="M2525 1090 c-4 -6 3 -10 14 -10 25 0 27 6 6 13 -8 4 -17 2 -20 -3z"/>
</g>
<g>
<path d="M2440 1050 c0 -5 5 -10 10 -10 6 0 10 5 10 10 0 6 -4 10 -10 10 -5 0
-10 -4 -10 -10z"/>
</g>
<g>
<path d="M2580 1050 c0 -5 7 -10 15 -10 8 0 15 5 15 10 0 6 -7 10 -15 10 -8 0
-15 -4 -15 -10z"/>
</g>
<g>
<path d="M2480 1020 c0 -5 5 -10 10 -10 6 0 10 5 10 10 0 6 -4 10 -10 10 -5 0
-10 -4 -10 -10z"/>
</g>
<g>
<path d="M2632 1008 c5 -15 28 -23 28 -10 0 5 -7 13 -16 16 -10 4 -14 1 -12
-6z"/>
</g>
<g>
<path d="M2530 980 c0 -5 5 -10 10 -10 6 0 10 5 10 10 0 6 -4 10 -10 10 -5 0
-10 -4 -10 -10z"/>
</g>
<g>
<path d="M2730 900 c0 -5 5 -10 10 -10 6 0 10 5 10 10 0 6 -4 10 -10 10 -5 0
-10 -4 -10 -10z"/>
</g>
<g>
<path d="M2770 860 c0 -5 5 -10 11 -10 5 0 7 5 4 10 -3 6 -8 10 -11 10 -2 0
-4 -4 -4 -10z"/>
</g>
<g>
<path d="M2680 760 c0 -5 5 -10 10 -10 6 0 10 5 10 10 0 6 -4 10 -10 10 -5 0
-10 -4 -10 -10z"/>
</g>
<g>
<path d="M2840 551 c0 -6 5 -13 10 -16 6 -3 10 1 10 9 0 9 -4 16 -10 16 -5 0
-10 -4 -10 -9z"/>
</g>
<g>
<path d="M5 470 c-3 -5 1 -10 9 -10 9 0 16 5 16 10 0 6 -4 10 -9 10 -6 0 -13
-4 -16 -10z"/>
</g>
<g>
<path d="M2865 440 c-3 -5 -1 -10 4 -10 6 0 11 5 11 10 0 6 -2 10 -4 10 -3 0
-8 -4 -11 -10z"/>
</g>
<g>
<path d="M44 305 c-10 -25 6 -38 26 -20 27 24 54 15 61 -20 11 -49 10 -143 -1
-150 -32 -20 18 -29 90 -15 3 0 -3 7 -12 14 -14 10 -18 31 -20 97 -3 80 -2 84
20 87 17 3 22 -2 22 -17 0 -12 5 -21 10 -21 12 0 30 41 23 53 -2 4 -51 7 -109
7 -82 0 -106 -3 -110 -15z"/>
</g>
<g>
<path d="M300 318 c-1 -2 -2 -54 -3 -116 l-2 -113 29 3 c28 3 29 5 30 58 l1
55 53 3 52 3 0 -62 c0 -52 2 -60 16 -55 9 3 22 6 30 6 11 0 11 5 3 24 -8 17
-9 47 -2 103 6 43 8 81 6 86 -6 10 -63 9 -63 -1 0 -4 5 -13 11 -19 5 -5 7 -22
3 -37 -5 -23 -11 -26 -50 -26 -50 0 -73 25 -55 59 6 10 7 21 4 25 -6 6 -63 9
-63 4z"/>
</g>
<g>
<path d="M560 311 c0 -6 5 -11 10 -11 6 0 10 -38 10 -95 0 -57 -4 -95 -10 -95
-5 0 -10 -5 -10 -11 0 -6 26 -9 71 -7 57 2 74 6 85 22 17 25 9 34 -13 14 -10
-9 -29 -14 -43 -13 -14 2 -28 4 -32 4 -5 1 -8 41 -8 91 l0 90 30 0 c17 0 33
-7 39 -17 9 -17 10 -17 16 -1 4 9 4 21 1 26 -8 13 -146 15 -146 3z"/>
</g>
<g>
<path d="M840 295 c8 -10 11 -45 8 -110 l-3 -96 25 3 c23 3 25 8 28 56 l3 52
60 0 59 0 0 -43 c0 -24 -5 -48 -11 -54 -14 -14 0 -22 31 -16 25 4 25 5 25 114
l0 109 -26 0 c-25 0 -26 -2 -21 -45 l5 -45 -63 0 -63 0 5 45 6 45 -40 0 c-35
0 -39 -2 -28 -15z"/>
</g>
<g>
<path d="M1110 301 c0 -6 5 -13 10 -16 14 -9 13 -168 -2 -183 -9 -9 -9 -12 3
-13 7 -1 26 -3 42 -5 25 -3 27 -1 20 24 -5 15 -7 66 -7 115 l1 87 -33 0 c-19
0 -34 -4 -34 -9z"/>
</g>
<g>
<path d="M1220 300 c0 -5 5 -10 10 -10 13 0 13 -177 0 -185 -5 -3 -10 -11 -10
-17 0 -6 27 -9 75 -6 61 3 79 8 97 25 28 29 17 41 -17 19 -15 -10 -40 -16 -58
-14 -30 3 -32 5 -31 41 2 46 11 58 29 33 18 -24 34 -13 27 19 -4 24 -22 36
-22 15 0 -5 -6 -10 -14 -10 -14 0 -29 48 -19 62 5 9 54 -1 68 -13 14 -13 22
-11 29 7 12 32 -13 44 -90 44 -43 0 -74 -4 -74 -10z"/>
</g>
<g>
<path d="M1440 295 c0 -8 5 -15 10 -15 6 0 10 -37 10 -90 0 -53 -4 -90 -10
-90 -5 0 -10 -4 -10 -10 0 -5 18 -10 40 -10 22 0 40 5 40 10 0 6 -4 10 -10 10
-5 0 -10 20 -10 45 0 38 3 45 20 45 12 0 25 -13 36 -35 16 -34 57 -75 75 -75
18 0 8 22 -21 52 -35 35 -38 58 -10 83 51 46 1 95 -96 95 -50 0 -64 -3 -64
-15z m119 -19 c18 -22 -3 -56 -34 -56 -22 0 -25 4 -25 35 0 30 3 35 24 35 13
0 29 -6 35 -14z"/>
</g>
<g>
<path d="M1725 303 c-53 -13 -90 -80 -74 -136 19 -69 93 -96 155 -58 102 62
36 221 -81 194z m75 -38 c17 -20 9 -133 -11 -146 -8 -5 -26 -9 -41 -9 -23 0
-29 6 -38 39 -10 40 -5 97 13 119 13 17 62 15 77 -3z"/>
</g>
<g>
<path d="M2106 290 c13 -29 16 -181 3 -196 -9 -12 -6 -14 20 -14 20 0 31 5 30
13 -1 6 -1 31 0 55 l1 42 49 0 c47 0 50 -2 53 -27 2 -16 0 -40 -4 -55 -6 -25
-4 -28 20 -28 l27 0 -3 95 c-3 65 0 100 8 110 11 13 6 15 -31 14 -24 0 -38 -3
-31 -6 7 -2 12 -22 12 -44 l0 -39 -50 0 c-50 0 -50 0 -50 33 0 18 5 38 11 44
8 8 -1 12 -30 15 -34 3 -40 1 -35 -12z"/>
</g>
<g>
<path d="M2696 302 c-3 -5 3 -12 14 -15 19 -5 20 -11 15 -68 -4 -35 -7 -65 -9
-66 -1 -1 -19 31 -40 72 l-37 75 -46 0 c-39 0 -44 -2 -33 -15 8 -10 11 -44 9
-105 l-4 -90 29 0 c23 0 26 3 17 14 -7 9 -11 42 -9 88 l3 73 28 -55 c45 -91
62 -115 84 -118 20 -3 22 3 28 85 4 48 9 96 11 106 4 11 0 17 -10 17 -8 0 -21
3 -29 6 -8 3 -18 1 -21 -4z"/>
</g>
<g>
<path d="M1899 286 c8 -10 11 -47 9 -110 l-3 -96 35 0 c26 0 31 3 22 12 -7 7
-12 31 -12 55 0 41 1 43 30 43 73 0 115 55 70 92 -29 24 -170 27 -151 4z m109
-5 c8 -5 12 -21 10 -37 -2 -25 -8 -29 -35 -32 -31 -3 -33 -2 -33 31 0 18 3 37
7 40 9 9 35 8 51 -2z"/>
</g>
<g>
<path d="M2391 292 c15 -6 15 -14 -2 -87 -10 -44 -23 -88 -29 -97 -6 -11 -6
-19 0 -23 16 -10 35 8 37 35 6 69 9 75 38 75 22 0 29 -7 41 -40 8 -22 12 -46
9 -52 -3 -9 6 -13 25 -13 l29 0 -13 38 c-7 20 -19 67 -26 105 l-14 67 -55 -1
c-31 0 -49 -3 -40 -7z m59 -51 c8 -29 7 -31 -16 -31 -28 0 -27 -2 -13 39 13
37 16 36 29 -8z"/>
</g>
<g>
<path d="M648 223 c-6 -22 1 -43 13 -43 5 0 9 14 9 30 0 33 -15 41 -22 13z"/>
</g>
</g>
</svg>
