<?xml version="1.0" standalone="no"?>
<!DOCTYPE svg PUBLIC "-//W3C//DTD SVG 20010904//EN"
 "http://www.w3.org/TR/2001/REC-SVG-20010904/DTD/svg10.dtd">
<svg version="1.0" xmlns="http://www.w3.org/2000/svg"
 width="300.000000pt" height="523.000000pt" viewBox="0 0 300.000000 523.000000"
 preserveAspectRatio="xMidYMid meet">
<metadata>
Created by potrace 1.15, written by Peter Selinger 2001-2017
</metadata>
<g transform="translate(0.000000,523.000000) scale(0.100000,-0.100000)"
fill="#000000" stroke="none">
<g>
<path d="M19 5223 c-16 -4 -17 -202 -18 -2601 l-2 -2597 938 -3 c516 -2 1111
-6 1323 -9 693 -9 678 -9 692 5 11 11 13 306 15 1545 1 843 5 1600 10 1683 4
83 6 263 3 400 -3 137 -2 395 2 574 4 179 7 475 8 658 l1 333 -518 -1 c-285
-1 -648 -3 -808 -6 -159 -2 -486 1 -725 7 -482 13 -896 18 -921 12z m1629 -85
c-3 -7 -13 -14 -24 -16 -20 -3 -64 -69 -64 -96 0 -10 12 -16 37 -18 20 -2 38
-8 40 -14 5 -14 -353 -18 -362 -4 -3 5 0 10 8 10 8 0 27 16 42 36 l27 35 -22
24 c-12 13 -32 25 -43 27 -11 2 -22 8 -24 14 -3 8 53 12 193 13 157 2 195 -1
192 -11z m-1323 -68 c22 -25 14 -36 -13 -19 -17 10 -23 10 -36 0 -19 -16 -22
-130 -4 -182 12 -38 86 -149 99 -149 4 0 14 -6 21 -12 48 -45 126 -70 159 -52
13 7 34 13 46 14 25 0 50 -35 33 -45 -6 -3 -13 1 -16 9 -3 9 -15 16 -25 16
-44 0 -35 -104 20 -223 37 -81 38 -87 8 -87 -13 0 -40 -16 -61 -35 l-38 -35
-22 27 c-11 14 -28 48 -37 75 -15 48 -15 50 10 103 14 30 29 54 34 54 14 1 7
-39 -13 -71 -11 -18 -20 -39 -20 -45 0 -23 30 -13 40 13 13 34 23 25 40 -35
15 -56 26 -64 36 -26 4 16 -3 43 -22 81 -15 32 -27 71 -26 87 2 16 0 38 -3 48
-6 19 -80 59 -108 59 -28 0 -93 49 -119 88 -33 50 -66 123 -80 177 -10 36 -16
45 -34 45 -13 0 -26 -4 -29 -10 -7 -11 -94 -14 -119 -4 -9 3 -16 17 -16 30 0
23 3 24 60 24 63 0 150 33 150 56 0 14 38 44 56 44 6 0 19 -9 29 -20z m2495
-25 c15 -8 30 -19 32 -25 2 -6 20 -12 40 -13 21 -2 42 -7 48 -13 8 -8 11 -185
11 -564 -1 -522 -2 -555 -19 -574 -36 -42 -52 -75 -62 -139 -11 -73 -4 -151
18 -184 22 -36 7 -100 -28 -118 -48 -25 -53 -17 -14 21 31 32 35 41 31 71 -20
124 -235 220 -398 179 -35 -9 -83 -30 -107 -47 -24 -17 -44 -30 -46 -28 -1 2
-21 36 -44 74 -23 39 -60 90 -82 114 -22 24 -56 69 -75 99 l-34 55 50 18 c120
43 174 81 209 148 11 22 32 49 46 60 34 27 25 37 -14 17 -19 -10 -36 -31 -46
-58 -20 -48 -29 -57 -110 -101 -32 -17 -68 -38 -80 -44 -26 -16 -61 -16 -87
-2 -25 13 -11 34 29 42 29 6 130 70 200 127 39 31 112 120 112 137 0 3 7 14
15 23 63 70 88 318 33 336 -23 7 -39 -10 -31 -35 3 -11 1 -11 -7 2 -6 10 -9
25 -6 33 7 19 55 18 77 -2 15 -14 22 -14 70 1 84 24 134 55 183 114 61 73 98
152 94 205 -2 29 -8 42 -20 44 -11 2 -18 -3 -18 -13 0 -21 -24 -14 -28 9 -3
15 13 46 25 46 2 0 17 -7 33 -15z m-1521 -84 c38 -28 91 -61 118 -75 l48 -24
122 64 c67 35 124 64 128 64 4 0 5 -13 1 -30 -3 -19 -1 -30 5 -30 6 0 9 -7 6
-15 -4 -8 -2 -17 3 -20 5 -3 12 6 16 20 6 25 31 45 54 45 7 0 9 -8 5 -20 -9
-29 13 -25 27 5 14 30 28 33 28 5 0 -23 8 -26 24 -6 6 8 27 17 46 21 31 7 33
6 21 -9 -20 -24 -7 -30 23 -11 34 22 61 13 46 -15 -8 -16 -8 -20 4 -20 7 0 16
7 20 15 7 18 56 20 56 2 0 -7 -5 -18 -12 -25 -6 -6 -8 -15 -4 -19 4 -4 10 -3
14 3 15 23 49 25 75 3 32 -25 35 -45 6 -52 -30 -8 -15 -25 17 -19 16 3 29 -1
35 -9 14 -22 11 -29 -14 -29 -12 0 -33 -7 -46 -16 -19 -14 -25 -14 -32 -3 -5
8 -7 24 -4 37 5 22 -10 32 -17 10 -8 -24 -30 4 -24 31 l6 26 -20 -24 c-16 -19
-23 -22 -33 -12 -7 7 -12 22 -12 34 0 36 -20 35 -23 0 -4 -36 -3 -36 -26 -27
-10 4 -16 18 -16 40 0 19 -4 34 -10 34 -5 0 -10 -13 -10 -29 0 -30 5 -28 -100
-45 -16 -3 -86 -41 -92 -50 -5 -7 -16 -6 -35 4 -15 8 -31 16 -35 18 -5 2 -8
-4 -8 -12 0 -9 12 -19 26 -22 16 -4 23 -11 20 -20 -3 -8 -8 -20 -11 -27 -3 -7
10 -20 30 -31 19 -11 35 -23 35 -28 0 -4 -40 -8 -90 -8 -53 0 -90 -4 -90 -10
0 -5 23 -10 50 -10 54 0 65 -14 32 -43 -15 -13 -25 -15 -55 -6 -20 5 -39 14
-42 20 -7 11 -25 3 -25 -12 0 -5 11 -14 24 -20 16 -8 22 -17 19 -30 -7 -27 35
-43 89 -35 28 4 55 17 78 39 46 42 95 67 129 67 15 0 42 13 63 30 l37 30 -3
-27 c-3 -22 -9 -29 -32 -33 -15 -3 -27 -9 -27 -15 1 -5 -7 -13 -18 -17 -13 -5
-19 -17 -19 -40 0 -28 -5 -35 -31 -45 -17 -7 -37 -9 -44 -7 -21 8 -53 -13 -71
-47 -8 -17 -11 -28 -5 -25 6 4 11 3 11 -1 0 -5 -9 -14 -19 -20 -15 -10 -19
-20 -14 -46 3 -23 0 -37 -11 -46 -21 -18 -20 -31 2 -31 13 -1 11 -6 -12 -26
-23 -20 -26 -28 -16 -34 11 -7 4 -17 -26 -44 -21 -20 -42 -36 -46 -36 -5 0 -8
-4 -8 -10 0 -17 26 -11 45 10 23 26 35 25 35 -1 0 -12 -8 -23 -20 -26 -23 -6
-26 -19 -7 -26 9 -4 9 -8 -2 -15 -7 -5 -10 -15 -6 -22 4 -6 1 -23 -6 -37 -10
-19 -11 -28 -1 -44 10 -16 9 -19 -6 -19 -10 0 -24 -11 -31 -24 -12 -21 -11
-28 5 -50 19 -25 44 -35 44 -17 0 5 6 11 14 14 24 9 5 -34 -20 -45 -20 -10
-22 -15 -17 -59 6 -51 1 -60 -50 -94 -26 -16 -28 -22 -22 -59 5 -30 3 -37 -4
-26 -6 8 -11 32 -11 53 0 31 6 43 35 68 32 28 35 36 35 83 0 30 -6 60 -15 72
-20 27 -18 57 6 88 21 26 21 27 3 49 -10 12 -20 23 -20 25 -1 2 -23 6 -50 10
-51 8 -74 32 -30 32 19 0 26 5 26 19 0 11 -5 23 -10 26 -13 8 -3 26 13 24 24
-3 37 1 37 11 0 6 -13 10 -30 10 -16 0 -30 5 -30 10 0 6 -7 10 -16 10 -11 0
-15 -6 -11 -20 3 -11 -3 -30 -13 -42 -15 -19 -20 -20 -34 -9 -9 8 -26 11 -42
7 -34 -9 -28 -40 9 -44 40 -5 34 -30 -10 -38 -21 -4 -44 -11 -50 -17 -9 -6
-13 -6 -13 1 0 6 8 15 17 21 10 5 14 13 10 17 -4 5 -17 3 -27 -4 -25 -15 -38
-16 -22 0 17 17 15 28 -7 28 -10 0 -21 7 -25 15 -3 8 -15 15 -26 15 -22 0 -23
1 -14 24 5 14 12 11 40 -14 37 -32 49 -36 59 -20 3 5 -5 16 -19 25 -13 9 -26
25 -29 35 -4 15 -14 20 -37 20 -35 0 -70 15 -70 31 0 6 5 7 11 3 6 -4 27 -10
46 -14 48 -11 38 10 -13 25 -22 6 -34 14 -28 18 7 4 39 -2 72 -12 33 -11 71
-17 84 -15 20 5 21 4 5 -6 -10 -6 -31 -9 -47 -5 -19 4 -30 3 -30 -4 0 -7 14
-14 30 -17 21 -5 30 -12 30 -26 0 -10 4 -17 9 -14 5 4 11 1 13 -6 3 -7 11 -9
24 -4 13 6 15 10 6 13 -10 4 -10 8 -1 19 9 11 9 14 -1 14 -10 0 -10 4 1 16 10
13 10 17 0 23 -10 7 -10 12 0 29 10 16 10 26 1 46 -10 22 -18 26 -53 26 -26 0
-50 7 -66 20 -14 11 -37 20 -52 20 -20 0 -23 -2 -11 -10 12 -8 12 -10 -3 -16
-25 -9 -48 2 -41 21 8 21 -41 138 -80 192 -20 28 -37 42 -48 39 -10 -2 -22 2
-29 10 -6 8 -8 14 -4 14 4 0 2 7 -5 15 -18 22 -4 32 17 13 10 -9 55 -34 100
-57 45 -23 86 -48 92 -55 10 -11 22 -10 74 6 61 19 97 42 84 54 -3 3 -21 -3
-40 -15 -41 -25 -82 -27 -91 -5 -9 23 -1 28 23 15 32 -17 110 26 94 52 -3 5
-18 -3 -33 -18 -24 -23 -31 -25 -49 -16 -24 13 -26 22 -9 39 9 9 -1 12 -48 12
-34 0 -63 3 -67 6 -8 8 10 25 46 43 17 9 27 21 25 32 -2 10 8 29 21 43 30 32
19 47 -12 18 -27 -26 -50 -28 -67 -7 -11 13 -9 20 10 40 13 14 20 28 17 32 -4
3 -17 -3 -28 -16 -27 -29 -43 -23 -47 17 -4 38 -22 43 -22 6 0 -24 -2 -25 -52
-22 -46 3 -53 6 -56 26 -5 33 -22 27 -22 -8 0 -23 -5 -30 -19 -30 -10 0 -21 9
-24 20 -3 11 -10 20 -16 20 -14 0 -14 -23 -1 -36 7 -7 4 -16 -10 -29 -11 -10
-20 -13 -20 -7 0 18 -42 52 -63 52 -16 0 -17 2 -7 15 9 11 22 14 46 9 36 -7
48 9 17 21 -16 6 -16 7 -2 15 17 10 70 6 89 -5 14 -9 13 18 -2 33 -10 10 -10
15 2 22 20 13 40 13 40 0 0 -5 9 -10 20 -10 11 0 20 -4 20 -10 0 -5 5 -10 11
-10 6 0 8 9 4 20 -10 31 21 37 51 10 13 -13 24 -30 24 -37 0 -8 5 -11 11 -7 6
3 8 17 5 30 -7 26 -4 27 32 18 17 -5 22 -14 23 -43 l1 -36 13 30 c8 17 14 26
15 21 0 -5 3 -7 6 -4 3 4 -1 19 -10 36 -13 25 -13 42 1 42 1 0 34 -22 72 -49z
m-1119 -66 c1 -10 37 -84 81 -163 25 -47 128 -132 159 -132 53 0 63 -31 33
-95 -20 -42 -27 -43 -48 -7 -21 34 -62 65 -76 56 -6 -3 -9 -17 -6 -30 2 -13 3
-24 2 -24 -1 0 -15 11 -31 25 -27 23 -30 24 -41 8 -17 -23 -16 -34 7 -94 30
-74 21 -90 -18 -34 -25 35 -38 46 -55 43 -13 -2 -23 -11 -25 -23 -2 -11 -8
-30 -14 -42 -9 -17 -4 -34 30 -95 80 -147 116 -204 152 -239 43 -41 56 -95 64
-266 l4 -102 -36 -12 c-39 -13 -115 -57 -170 -98 -78 -58 -120 -228 -51 -206
13 4 19 2 19 -9 0 -22 -43 -20 -63 2 -12 13 -17 36 -16 83 0 59 -19 137 -40
163 -8 10 -13 1283 -6 1296 6 10 145 5 145 -5z m673 -93 c16 -14 16 -16 0 -34
-15 -16 -18 -17 -33 -3 -9 8 -29 15 -43 15 -29 0 -35 18 -15 38 15 15 66 6 91
-16z m1410 -72 c-5 -3 -25 -12 -47 -19 -32 -11 -40 -11 -47 0 -11 18 7 37 45
48 24 6 34 5 44 -7 6 -9 9 -19 5 -22z m-1465 21 c17 -10 12 -46 -6 -45 -6 1
-27 2 -46 3 -30 1 -33 4 -28 26 3 20 10 25 36 25 17 0 37 -4 44 -9z m1480 -78
c2 -15 -4 -22 -25 -27 -15 -4 -36 -9 -45 -12 -22 -6 -29 26 -10 48 21 25 76
18 80 -9z m-1514 7 c32 -12 25 -35 -12 -44 -15 -3 -38 -9 -51 -12 -21 -6 -23
-5 -16 17 7 23 31 49 46 49 4 0 19 -4 33 -10z m1285 -26 c-13 -16 -49 -19 -49
-4 0 6 7 10 15 10 8 0 15 4 15 10 0 5 7 7 15 4 12 -5 13 -10 4 -20z m-1084
-14 c3 -5 1 -10 -4 -10 -6 0 -11 5 -11 10 0 6 2 10 4 10 3 0 8 -4 11 -10z
m1315 -45 c0 -34 -1 -35 -40 -35 -32 0 -40 4 -40 19 0 26 23 42 73 50 4 0 7
-15 7 -34z m-1510 -15 c0 -23 -5 -30 -19 -30 -10 0 -24 -7 -31 -15 -20 -24
-30 -18 -30 20 0 37 18 54 58 55 18 0 22 -5 22 -30z m1215 10 c-3 -5 -12 -10
-18 -10 -7 0 -6 4 3 10 19 12 23 12 15 0z m-275 -14 c0 -3 -7 -12 -16 -20 -17
-18 -64 -22 -64 -6 0 6 11 10 24 10 14 0 28 5 31 10 6 10 25 14 25 6z m35 -16
c-10 -11 -21 -17 -24 -14 -3 3 3 12 13 20 28 20 32 17 11 -6z m-674 -32 c19
-28 20 -30 3 -16 -10 9 -32 20 -47 24 -21 5 -25 9 -15 15 23 15 36 10 59 -23z
m1209 -14 c0 -21 -5 -24 -40 -24 -45 0 -54 19 -19 43 28 20 59 10 59 -19z
m-1897 -34 c10 -18 15 -40 12 -49 -3 -8 -3 -12 1 -8 8 8 44 -77 44 -105 0 -9
6 -18 13 -21 6 -2 -5 -12 -26 -23 -25 -12 -36 -23 -32 -34 7 -22 -48 -43 -61
-24 -6 9 -14 11 -23 5 -12 -8 -13 -12 -1 -26 10 -12 10 -19 2 -27 -8 -8 -16
-3 -29 20 -10 17 -26 33 -35 36 -10 2 -18 11 -18 19 0 10 7 13 20 10 11 -3 20
-3 20 1 0 10 -44 91 -53 97 -5 4 -11 20 -13 35 -3 28 -2 28 13 9 8 -11 24 -39
35 -62 29 -62 40 -67 73 -39 26 22 27 26 12 41 -9 9 -21 33 -27 55 -6 21 -17
51 -25 67 -17 33 -19 53 -5 53 6 0 10 -6 10 -14 0 -7 6 -19 13 -25 8 -6 19
-30 26 -53 7 -24 20 -51 29 -60 18 -21 51 -26 34 -5 -6 6 -15 38 -21 70 -6 31
-15 67 -22 78 -19 37 13 17 34 -21z m390 13 c6 -34 1 -43 -23 -43 -10 0 -22
-4 -25 -10 -11 -18 -25 -10 -25 15 0 61 62 93 73 38z m311 -29 c12 -30 7 -42
-15 -37 -16 5 -18 8 -7 15 10 7 10 11 1 15 -17 6 -16 23 1 23 8 0 17 -7 20
-16z m1186 -10 c0 -35 -18 -50 -54 -46 -61 7 -42 62 21 62 23 0 33 -5 33 -16z
m-1146 -20 c3 -8 2 -12 -4 -9 -6 3 -10 10 -10 16 0 14 7 11 14 -7z m711 6 c3
-5 -1 -10 -10 -10 -9 0 -13 5 -10 10 3 6 8 10 10 10 2 0 7 -4 10 -10z m-1050
-31 c4 -11 5 -21 3 -22 -1 -1 -17 -12 -34 -24 l-32 -22 -6 22 c-10 37 -7 47
17 57 35 14 45 12 52 -11z m335 -34 c0 -8 -8 -11 -19 -8 -11 3 -17 11 -14 18
6 17 33 8 33 -10z m-50 11 c0 -3 -4 -8 -10 -11 -5 -3 -10 -1 -10 4 0 6 5 11
10 11 6 0 10 -2 10 -4z m1177 -13 c4 -9 1 -19 -5 -21 -7 -2 -12 -11 -12 -21 0
-32 -30 -106 -54 -134 -54 -63 -81 -13 -46 86 21 60 24 63 51 59 17 -3 29 0
29 7 0 6 -9 11 -20 11 -11 0 -20 7 -20 15 0 22 69 20 77 -2z m-457 -13 c13 -8
13 -10 -2 -10 -9 0 -20 5 -23 10 -8 13 5 13 25 0z m-1590 -36 c12 -19 20 -37
18 -39 -2 -3 -15 13 -27 35 -28 50 -21 53 9 4z m627 -34 c30 -78 39 -125 24
-134 -13 -8 -51 10 -51 25 0 5 -11 26 -25 47 -38 57 -42 96 -14 116 13 9 28
15 33 13 4 -1 20 -32 33 -67z m488 -7 c-2 -6 2 -16 9 -22 16 -14 37 5 29 27
-4 10 -1 13 8 10 8 -3 14 -16 14 -29 0 -20 -6 -25 -32 -27 -34 -3 -73 28 -73
58 0 9 -6 22 -12 29 -7 7 4 2 24 -11 21 -12 35 -28 33 -35z m-685 27 c0 -5 -6
-13 -14 -17 -15 -9 -66 -123 -66 -148 0 -8 -6 -15 -14 -15 -17 0 -22 -13 -30
-71 -9 -64 5 -105 35 -101 19 2 21 0 9 -8 -13 -8 -10 -18 17 -69 19 -36 29
-68 26 -81 -4 -14 -1 -20 11 -20 9 0 16 -8 16 -19 0 -24 16 -36 24 -19 3 7 4
1 1 -14 -4 -21 -2 -26 9 -22 11 4 17 -7 23 -43 4 -26 6 -58 5 -70 -2 -13 2
-23 8 -23 7 0 9 -8 5 -20 -7 -21 11 -29 18 -7 2 6 3 5 2 -3 -2 -8 -6 -23 -10
-32 -5 -12 -3 -18 7 -18 10 0 15 -11 16 -30 1 -37 22 -88 39 -94 21 -8 26 14
8 34 -13 14 -14 23 -6 39 15 28 14 68 -5 155 -15 65 -15 78 -3 92 8 9 14 35
15 57 0 23 5 42 12 45 6 2 8 10 5 18 -3 8 0 14 6 14 6 0 11 9 11 20 0 19 34
77 54 91 5 4 5 12 2 18 -5 7 1 11 14 11 17 0 20 4 16 23 -3 12 -3 16 0 9 3 -6
11 -9 17 -5 12 8 33 13 55 15 6 1 12 11 12 22 0 18 2 19 11 6 8 -11 12 -12 16
-3 3 8 14 11 29 7 19 -5 24 -2 25 12 1 17 2 17 6 2 6 -22 23 -24 23 -2 0 14 1
14 16 0 19 -20 28 -20 44 -1 16 20 30 19 30 -1 0 -10 6 -14 15 -11 8 4 17 2
20 -4 4 -5 11 -7 16 -4 12 8 11 -27 -2 -62 -15 -39 -4 -83 30 -120 16 -18 33
-45 38 -60 8 -24 15 -28 47 -28 l37 0 -6 -37 c-4 -21 -4 -38 -1 -38 11 0 40
65 38 85 -2 18 -1 18 18 -4 11 -13 20 -32 20 -43 0 -15 5 -18 23 -13 l22 7
-21 -22 c-23 -23 -44 -20 -44 6 0 21 -13 17 -33 -12 -24 -32 -16 -54 44 -120
27 -30 49 -59 49 -65 0 -8 4 -8 14 0 10 8 16 8 24 -2 8 -9 44 -14 119 -15 59
-1 117 -4 128 -6 11 -3 36 -5 57 -5 l36 -1 4 -50 c1 -28 -1 -50 -5 -50 -5 0
-5 -5 -1 -12 4 -7 9 -26 11 -42 2 -17 8 -33 14 -37 8 -4 7 -9 -1 -14 -9 -6 -6
-13 11 -26 20 -15 21 -19 7 -19 -10 0 -18 -4 -18 -10 0 -5 5 -10 10 -10 6 0
10 -15 10 -33 0 -26 -6 -36 -24 -45 -18 -8 -23 -16 -19 -31 4 -15 1 -21 -10
-21 -9 0 -18 -12 -22 -29 -7 -33 -35 -33 -35 0 0 10 -6 19 -14 19 -22 0 -30
-19 -12 -26 20 -8 21 -44 1 -44 -8 0 -15 -5 -15 -11 0 -5 -4 -8 -9 -5 -15 10
-41 -5 -41 -23 -1 -14 -2 -14 -11 2 -10 18 -49 24 -49 7 0 -5 8 -13 17 -19 10
-5 14 -13 10 -17 -4 -5 -17 -3 -27 4 -17 10 -20 10 -20 -3 0 -8 -4 -15 -10
-15 -5 0 -10 7 -10 16 0 8 -5 12 -10 9 -5 -3 -10 3 -10 15 0 13 -5 20 -12 17
-8 -2 -12 -17 -10 -36 3 -28 1 -32 -15 -27 -25 8 -72 -29 -57 -44 9 -9 17 -9
33 0 22 11 41 6 41 -11 0 -5 -10 -9 -23 -9 -12 0 -28 -10 -36 -22 -14 -22 -14
-22 -21 -3 -7 19 -9 19 -19 -5 -10 -23 -11 -22 -6 12 5 35 4 37 -23 36 -38 -1
-52 8 -52 34 0 17 -5 20 -30 16 -28 -4 -30 -3 -30 28 0 32 1 33 25 24 21 -8
25 -7 25 9 0 16 -6 18 -39 14 -33 -5 -40 -2 -45 15 -5 13 -13 19 -22 15 -19
-7 -18 -23 3 -38 9 -7 13 -17 9 -24 -6 -9 -13 -6 -26 9 -18 21 -47 20 -35 -1
4 -5 3 -9 -2 -9 -10 1 -63 47 -63 55 0 3 12 4 28 3 19 -2 27 2 27 12 0 11 -12
15 -43 16 -26 0 -49 7 -59 17 -11 11 -13 17 -5 17 7 0 12 9 12 20 0 26 -15 26
-33 -1 -10 -14 -17 -17 -22 -9 -4 6 1 20 10 30 19 21 12 42 -10 33 -11 -4 -15
3 -16 28 0 19 -2 63 -4 98 -3 52 0 68 13 78 16 11 16 12 0 13 -24 0 -23 17 2
25 11 4 19 9 16 13 -7 14 14 52 29 52 8 0 15 5 15 10 0 6 52 10 135 10 110 0
135 3 135 14 0 16 -53 31 -71 20 -6 -3 -14 -2 -18 4 -5 8 -24 9 -60 3 -29 -4
-68 -7 -87 -6 -19 1 -34 -3 -34 -9 0 -6 -5 -3 -11 8 -9 15 -13 16 -20 5 -6
-10 -9 -11 -9 -1 0 6 -9 12 -19 12 -12 0 -21 9 -25 25 -4 15 -11 23 -18 19 -7
-5 -9 5 -6 30 2 20 0 36 -5 36 -5 0 -6 7 -3 16 3 9 3 21 -1 26 -12 21 -9 140
5 145 14 6 16 41 3 62 -14 22 -40 6 -35 -21 2 -13 2 -17 -2 -10 -10 21 -34 13
-44 -14 -14 -37 -12 -75 5 -94 28 -31 48 -220 24 -220 -6 0 -9 -7 -5 -15 3 -8
-1 -18 -8 -22 -23 -15 -25 -41 -5 -67 11 -14 16 -26 11 -26 -6 0 -12 7 -16 15
-3 8 -10 15 -17 15 -6 0 -9 -7 -5 -15 3 -8 1 -15 -5 -15 -6 0 -8 -9 -4 -22 6
-17 4 -20 -10 -14 -13 4 -16 2 -12 -9 4 -8 -1 -21 -9 -30 -14 -13 -14 -17 0
-31 9 -8 16 -21 15 -27 0 -9 -2 -8 -6 1 -7 17 -23 15 -23 -3 0 -8 -4 -15 -8
-15 -4 0 -8 -10 -9 -21 -1 -12 -4 -24 -7 -27 -16 -16 -206 -36 -206 -22 0 12
-28 6 -42 -8 -7 -7 -16 -12 -22 -12 -5 0 -1 6 9 14 11 8 16 19 12 30 -8 21
-27 21 -27 -1 0 -14 -3 -14 -12 -5 -10 10 -10 15 1 21 23 15 5 44 -21 35 -22
-6 -22 -6 -7 12 24 28 14 45 -19 33 -25 -8 -26 -8 -8 6 10 8 24 16 30 18 6 3
7 8 2 13 -5 5 -11 4 -13 -3 -3 -7 -14 -13 -26 -13 -20 1 -20 2 -4 11 10 6 17
22 17 40 0 27 -3 30 -22 23 -20 -6 -21 -5 -10 9 10 12 10 16 0 21 -10 5 -10 7
1 12 11 5 11 8 0 15 -11 8 -11 11 4 20 9 6 14 15 11 21 -4 6 -8 20 -9 32 -1
11 -3 24 -4 29 0 4 -9 7 -18 7 -14 1 -12 4 7 15 l25 14 -25 1 c-24 1 -24 1 -5
13 28 17 30 51 3 44 -19 -5 -19 -5 -1 15 17 20 17 21 1 15 -10 -4 -18 -2 -18
2 0 5 6 11 14 14 11 4 11 14 2 49 -6 24 -15 49 -19 56 -5 8 -3 12 8 12 9 0 15
6 12 13 -2 6 0 22 4 35 5 13 5 22 -1 22 -6 0 -9 3 -8 8 1 4 -1 31 -5 60 -5 32
-4 60 3 72 8 15 8 20 -1 20 -8 0 -6 7 4 18 38 42 10 68 -39 36 -22 -15 -24
-15 -18 0 3 9 2 16 -4 16 -5 0 -13 -8 -16 -17 -6 -14 -10 -11 -26 15 -11 18
-24 32 -30 32 -18 0 -11 18 10 23 13 3 24 -3 35 -19 8 -13 20 -24 25 -24 14 0
12 44 -2 58 -9 9 -9 15 -1 23 16 16 47 7 51 -16 9 -59 12 -66 26 -53 7 8 13
33 12 58 -1 39 2 45 20 48 12 2 30 12 40 23 9 10 21 19 27 19 5 0 18 11 29 25
20 25 38 33 38 15z m56 -42 c35 -68 176 -198 215 -198 15 0 10 -17 -7 -24 -29
-11 -99 36 -185 125 -80 82 -85 90 -72 109 20 28 30 25 49 -12z m567 12 c5 -4
5 -10 -1 -14 -11 -7 -72 15 -72 27 0 10 61 -1 73 -13z m537 -10 c-8 -5 -19
-10 -25 -10 -5 0 -3 5 5 10 8 5 20 10 25 10 6 0 3 -5 -5 -10z m-1086 -150 c34
-36 84 -70 144 -96 2 -1 -15 -28 -37 -59 -28 -40 -41 -69 -41 -92 0 -18 -4
-41 -9 -51 -5 -9 -17 -34 -27 -54 -10 -21 -21 -38 -24 -38 -10 0 -67 123 -104
221 -41 110 -44 155 -16 201 11 18 20 42 20 53 1 17 4 16 26 -10 14 -16 45
-50 68 -75z m1043 -45 c8 -22 -6 -33 -17 -15 -13 20 -12 30 0 30 6 0 13 -7 17
-15z m-28 -58 c0 -21 -1 -21 -9 -2 -12 28 -12 37 0 30 6 -3 10 -16 9 -28z
m247 -10 c8 3 14 0 14 -6 0 -6 11 -16 24 -21 34 -13 91 -87 115 -149 21 -57
37 -76 89 -106 17 -11 32 -23 32 -27 0 -4 14 -30 30 -58 17 -28 30 -58 30 -66
0 -9 14 -29 30 -46 17 -16 30 -36 30 -44 0 -8 5 -14 10 -14 6 0 10 -10 10 -23
0 -12 9 -29 21 -37 11 -8 30 -32 40 -53 11 -21 26 -40 34 -44 10 -3 13 -13 9
-29 -5 -18 -2 -24 10 -24 9 0 16 -8 16 -19 0 -11 5 -23 10 -26 6 -3 10 -15 10
-25 0 -10 6 -23 13 -27 22 -13 68 -154 74 -226 3 -37 10 -70 15 -73 5 -3 4
-12 -3 -20 -6 -8 -7 -14 -2 -14 5 0 7 -14 5 -31 -3 -22 -1 -30 7 -25 6 4 11 3
11 -3 0 -5 -4 -13 -10 -16 -16 -10 -12 -25 5 -19 8 4 15 1 15 -5 0 -6 -5 -11
-10 -11 -13 0 -9 -32 5 -42 6 -5 5 -8 -3 -8 -18 0 -7 -71 13 -86 9 -7 25 -9
36 -7 24 7 41 -14 33 -39 -3 -10 4 -22 17 -32 20 -14 21 -16 5 -22 -10 -4 -22
-2 -28 4 -11 11 -38 5 -38 -9 0 -11 49 -59 60 -59 6 0 11 12 11 28 1 22 2 23
6 5 2 -12 -1 -31 -7 -42 -8 -15 -8 -27 0 -41 15 -27 -5 -26 -24 1 -27 39 -136
86 -136 59 0 -6 -7 -10 -15 -10 -10 0 -15 -10 -15 -31 0 -27 -2 -30 -15 -19
-15 13 -15 82 0 220 2 20 0 42 -5 50 -6 9 -4 20 3 29 10 12 8 14 -10 9 -25 -7
-30 1 -11 20 9 9 8 12 -6 12 -13 0 -16 5 -11 22 6 16 4 20 -8 15 -11 -4 -13 0
-10 14 4 15 2 18 -11 13 -12 -5 -15 -2 -9 12 5 14 3 16 -11 11 -15 -6 -17 -3
-13 13 3 11 2 20 -3 20 -4 0 -11 11 -14 25 -4 14 -11 23 -16 20 -6 -3 -10 3
-10 14 0 14 -6 21 -20 21 -13 0 -18 5 -14 14 3 9 -3 20 -15 28 -12 7 -21 18
-21 25 0 6 -4 13 -8 15 -15 6 -55 153 -57 205 -1 31 -7 59 -17 70 -8 10 -13
24 -10 32 3 10 0 12 -12 8 -8 -3 -15 -3 -15 1 3 19 -2 23 -16 12 -14 -11 -15
-10 -7 11 6 18 4 28 -9 41 -20 19 -39 7 -40 -26 0 -12 -3 -15 -6 -9 -2 7 1 29
7 49 16 48 5 55 -15 9 -18 -45 -32 -40 -16 6 16 46 14 55 -9 34 -11 -10 -21
-28 -21 -39 -1 -19 -2 -19 -6 -2 -3 10 1 29 8 42 15 29 4 44 -15 19 -12 -16
-13 -15 -8 13 6 42 -12 41 -26 0 -9 -30 -10 -28 -5 17 6 54 -4 54 -25 2 -12
-31 -12 -30 -8 21 5 48 -5 70 -17 40 -3 -7 -6 2 -6 20 -1 25 -5 32 -20 32 -39
0 -34 22 21 101 9 13 20 41 24 63 6 37 6 38 -15 27 -11 -7 -21 -20 -21 -31 0
-10 -15 -34 -34 -52 -33 -32 -35 -39 -49 -147 -2 -13 -12 -28 -21 -33 -28 -16
-179 -19 -189 -5 -7 9 -10 9 -14 0 -6 -16 -40 -17 -45 -2 -3 9 -9 9 -24 1 -34
-18 -64 -4 -64 29 l0 29 20 -20 c31 -31 39 -24 42 37 3 52 6 59 33 73 57 29
75 59 75 124 0 33 4 73 10 90 5 17 15 51 21 77 11 41 15 45 39 41 15 -2 31 1
34 7 5 7 14 8 24 3 24 -12 90 -8 105 7 10 10 13 9 15 -3 2 -8 10 -12 18 -9z
m-422 -20 c17 -22 26 -47 26 -69 0 -20 6 -53 14 -75 14 -40 11 -89 -5 -99 -5
-3 -9 0 -9 5 0 6 -4 11 -10 11 -5 0 -10 -5 -10 -12 0 -15 -42 -78 -53 -78 -4
0 0 11 8 24 9 13 16 44 16 68 0 65 5 118 13 125 3 3 6 -3 6 -15 0 -12 5 -22
10 -22 12 0 12 23 1 72 -11 49 -30 65 -76 69 -35 3 -40 1 -54 -28 -11 -23 -21
-31 -33 -27 -13 4 -18 0 -18 -16 0 -17 -4 -20 -20 -15 -11 4 -20 2 -20 -4 0
-6 -4 -11 -10 -11 -13 0 -13 97 0 105 6 4 9 -4 7 -17 -1 -18 3 -24 25 -26 20
-2 32 5 53 32 24 32 33 36 71 36 37 0 46 -5 68 -33z m154 -40 c2 -15 -2 -27
-8 -27 -6 0 -8 4 -5 10 3 5 1 19 -6 31 -9 17 -8 20 3 17 7 -3 14 -17 16 -31z
m-413 -77 l5 -25 -15 25 c-8 14 -14 43 -14 65 l1 40 9 -40 c5 -22 11 -51 14
-65z m-858 84 c-3 -3 -12 -4 -19 -1 -8 3 -5 6 6 6 11 1 17 -2 13 -5z m1031
-35 c-2 -6 -8 -10 -13 -10 -5 0 -11 4 -13 10 -2 6 4 11 13 11 9 0 15 -5 13
-11z m189 -21 c-3 -7 -5 -2 -5 12 0 14 2 19 5 13 2 -7 2 -19 0 -25z m-251 -25
c-11 -11 -19 6 -11 24 8 17 8 17 12 0 3 -10 2 -21 -1 -24z m114 22 c0 -8 -4
-15 -10 -15 -5 0 -10 7 -10 15 0 8 5 15 10 15 6 0 10 -7 10 -15z m-1074 -55
c1 -16 -1 -30 -5 -30 -3 0 -7 14 -7 30 -1 17 1 30 5 30 3 0 7 -13 7 -30z m902
-3 c-1 -19 3 -40 7 -48 5 -8 -1 -5 -13 5 -24 21 -28 46 -10 64 17 17 18 16 16
-21z m145 -53 c4 -4 7 -17 7 -28 0 -18 -3 -17 -20 9 -12 18 -20 46 -19 70 l1
40 11 -42 c7 -23 15 -45 20 -49z m-89 -3 c-9 -10 -26 18 -18 30 5 9 9 8 14 -7
4 -10 6 -21 4 -23z m277 -38 c-8 -15 -10 -15 -11 -2 0 17 10 32 18 25 2 -3 -1
-13 -7 -23z m-154 -105 c-3 -8 -6 -5 -6 6 -1 11 2 17 5 13 3 -3 4 -12 1 -19z
m-41 -30 c19 -18 34 -42 34 -53 -1 -19 -1 -19 -14 -2 -7 9 -18 17 -23 17 -14
0 -29 19 -37 48 -10 30 1 28 40 -10z m-999 -134 c-3 -3 -12 -4 -19 -1 -8 3 -5
6 6 6 11 1 17 -2 13 -5z m2187 -290 c3 -9 6 -37 6 -64 0 -38 -4 -50 -17 -53
-13 -3 -11 -5 6 -6 20 -1 23 -5 19 -36 -2 -19 1 -37 7 -40 5 -2 1 -4 -10 -2
-14 1 -25 16 -37 52 -22 66 -22 73 1 80 13 4 18 13 16 26 -7 35 -16 41 -54 35
l-36 -5 40 14 c52 18 52 18 59 -1z m-1839 -52 c17 -10 10 -11 -40 -6 -79 9
-98 20 -32 19 28 0 61 -6 72 -13z m1375 -21 c0 -4 -11 -18 -25 -31 -16 -15
-23 -30 -20 -41 5 -14 -3 -22 -27 -33 -18 -8 -43 -24 -55 -35 -23 -19 -31 -65
-14 -76 6 -3 4 -19 -5 -40 -18 -44 -18 -45 6 -45 13 0 20 7 20 20 0 27 28 59
69 76 43 18 45 18 21 -6 -11 -11 -24 -20 -29 -20 -16 0 -41 -43 -41 -71 0 -15
-8 -33 -17 -40 -15 -12 -16 -12 -10 4 4 12 1 17 -10 17 -23 0 -53 -29 -54 -54
-1 -19 -2 -18 -9 4 -13 40 -11 57 6 75 9 9 18 33 20 53 l3 37 -20 -25 -20 -25
7 25 c3 14 13 32 20 41 16 18 19 43 5 34 -5 -3 -3 8 5 24 9 19 28 34 49 41 24
8 35 18 35 31 0 10 -2 19 -5 19 -12 0 -86 -44 -109 -65 -14 -13 -26 -20 -26
-15 0 6 -7 10 -16 10 -21 0 -49 -67 -34 -85 9 -11 7 -12 -11 -8 -18 5 -20 11
-15 42 3 20 10 37 16 39 5 2 10 9 10 15 1 23 51 70 75 70 16 0 22 4 18 13 -3
8 0 14 6 14 6 0 11 -7 11 -15 0 -24 20 -17 21 8 l0 22 11 -22 c14 -30 21 -29
59 5 22 20 40 27 56 24 12 -2 23 -8 23 -11z m433 12 c-7 -2 -19 -2 -25 0 -7 3
-2 5 12 5 14 0 19 -2 13 -5z m-1907 -15 c4 -6 3 -8 -3 -5 -6 4 -19 0 -29 -8
-17 -13 -18 -14 -1 -15 9 0 17 -3 17 -7 0 -5 -23 -9 -50 -10 -60 -3 -64 10
-12 36 44 22 68 25 78 9z m196 -8 c7 -11 21 -20 30 -20 18 0 24 -15 10 -24 -9
-5 -72 45 -72 57 0 14 20 6 32 -13z m-135 -30 c1 -15 -4 -20 -23 -20 -35 0
-32 -34 6 -57 17 -9 30 -22 30 -27 0 -5 -8 -2 -18 7 -10 10 -26 17 -35 17 -11
0 -18 12 -23 36 -5 28 -3 38 12 49 27 20 50 18 51 -5z m1453 -6 c0 -8 7 -17
15 -20 8 -4 15 -12 15 -20 0 -8 -7 -14 -15 -14 -8 0 -15 7 -15 16 0 8 -7 22
-15 31 -8 8 -13 19 -9 24 7 13 24 1 24 -17z m-1369 6 c19 -10 26 -30 12 -30
-5 0 -19 9 -33 20 -26 21 -12 27 21 10z m-196 -40 c8 -13 -5 -13 -25 0 -13 8
-13 10 2 10 9 0 20 -4 23 -10z m196 -26 c11 -4 15 -13 12 -25 -6 -23 -16 -24
-33 -4 -7 8 -9 15 -4 15 4 0 -3 12 -17 27 l-24 27 25 -17 c14 -10 32 -20 41
-23z m1334 -14 c9 -29 -4 -45 -19 -24 -12 16 -14 15 -34 -2 -12 -10 -22 -24
-22 -31 0 -17 -15 -17 -29 0 -14 17 11 42 52 52 15 4 27 11 27 16 0 17 19 9
25 -11z m-1520 -21 l20 -21 -32 16 c-18 9 -41 16 -53 16 -11 0 -20 5 -20 11 0
18 62 2 85 -22z m1575 0 c0 -11 -4 -17 -10 -14 -5 3 -10 13 -10 21 0 8 5 14
10 14 6 0 10 -9 10 -21z m-1684 -16 c-10 -10 -19 5 -10 18 6 11 8 11 12 0 2
-7 1 -15 -2 -18z m424 -15 l-1 -33 -13 25 c-14 25 -13 40 5 40 5 0 9 -15 9
-32z m1685 22 c-3 -5 -1 -10 4 -10 6 0 11 -4 11 -10 0 -20 -36 -10 -37 10 -1
12 4 20 13 20 8 0 12 -4 9 -10z m-1595 -64 c0 -6 -11 1 -25 16 -14 15 -25 33
-25 40 0 7 11 0 25 -16 14 -16 25 -34 25 -40z m-400 18 c13 -13 20 -24 13 -24
-6 0 -13 7 -17 15 -3 9 -18 15 -36 15 -21 0 -30 5 -30 16 0 21 37 9 70 -22z
m167 4 c19 -15 4 -38 -24 -38 -21 0 -23 2 -13 15 7 8 10 22 6 30 -6 16 4 14
31 -7z m-275 -30 c-9 -9 -12 -7 -12 12 0 19 3 21 12 12 9 -9 9 -15 0 -24z
m2123 13 c3 -10 5 -31 4 -47 -1 -16 2 -48 6 -71 7 -37 5 -43 -10 -43 -14 0
-15 3 -5 15 8 10 9 15 2 15 -6 0 -9 7 -6 15 4 8 2 15 -4 15 -6 0 -9 16 -8 35
2 19 -1 35 -7 35 -5 0 -4 7 3 15 9 11 9 15 1 15 -7 0 -9 5 -6 10 10 16 23 12
30 -9z m-1487 -20 c4 -28 -13 -20 -21 9 -3 14 -1 20 6 17 7 -2 14 -14 15 -26z
m-418 10 c0 -12 -20 -25 -27 -18 -7 7 6 27 18 27 5 0 9 -4 9 -9z m1000 -23 c0
-23 -3 -29 -9 -19 -8 12 -4 51 5 51 2 0 4 -15 4 -32z m179 -23 c1 -17 -1 -17
-9 -5 -5 8 -9 26 -9 40 0 23 1 23 9 5 5 -11 9 -29 9 -40z m-1251 -8 c6 3 12
11 12 19 0 8 5 14 10 14 6 0 10 -6 10 -14 0 -8 8 -17 18 -19 11 -3 7 -5 -10
-6 -15 0 -33 -8 -42 -16 -13 -14 -16 -13 -26 5 -6 11 -19 20 -28 20 -10 0 -23
5 -30 12 -24 24 -11 26 31 4 23 -13 48 -21 55 -19z m922 33 c0 -5 -5 -10 -11
-10 -5 0 -7 5 -4 10 3 6 8 10 11 10 2 0 4 -4 4 -10z m-40 -16 c0 -8 -5 -12
-10 -9 -6 4 -8 11 -5 16 9 14 15 11 15 -7z m309 -17 c0 -21 -1 -21 -9 -2 -12
28 -12 37 0 30 6 -3 10 -16 9 -28z m-1099 14 c0 -6 -4 -13 -10 -16 -5 -3 -10
1 -10 9 0 9 5 16 10 16 6 0 10 -4 10 -9z m560 -11 c0 -5 -5 -10 -11 -10 -5 0
-7 5 -4 10 3 6 8 10 11 10 2 0 4 -4 4 -10z m-219 -41 c-9 -22 -10 -22 -10 -3
-1 11 2 24 6 27 12 12 14 0 4 -24z m79 5 c13 -33 13 -104 0 -104 -5 0 -10 15
-10 33 0 17 -4 47 -9 65 -12 39 5 44 19 6z m494 -10 c3 -8 2 -12 -4 -9 -6 3
-10 10 -10 16 0 14 7 11 14 -7z m196 -9 c0 -9 9 -19 21 -23 21 -8 21 -9 -5
-25 -32 -22 -35 -21 -29 3 3 11 0 26 -6 33 -6 8 -8 17 -4 20 11 12 23 8 23 -8z
m-575 -25 c3 -5 -1 -10 -10 -10 -9 0 -13 5 -10 10 3 6 8 10 10 10 2 0 7 -4 10
-10z m115 1 c0 -5 -9 -19 -20 -32 l-19 -24 -1 23 c0 13 6 22 15 22 8 0 15 5
15 10 0 6 2 10 5 10 3 0 5 -4 5 -9z m730 5 c0 -3 -4 -8 -10 -11 -5 -3 -10 -1
-10 4 0 6 5 11 10 11 6 0 10 -2 10 -4z m177 -28 c-3 -7 -5 -2 -5 12 0 14 2 19
5 13 2 -7 2 -19 0 -25z m-1537 18 c0 -2 -7 -6 -15 -10 -8 -3 -15 -1 -15 4 0 6
7 10 15 10 8 0 15 -2 15 -4z m714 -9 c-5 -14 -44 -41 -44 -30 0 8 33 42 42 42
4 1 5 -5 2 -12z m66 9 c0 -3 -4 -8 -10 -11 -5 -3 -10 -1 -10 4 0 6 5 11 10 11
6 0 10 -2 10 -4z m-216 -25 c-21 -21 -29 -19 -21 4 4 8 14 15 23 15 16 0 16
-2 -2 -19z m433 -23 c-3 -7 -5 -2 -5 12 0 14 2 19 5 13 2 -7 2 -19 0 -25z
m-1076 12 c5 0 9 -4 9 -9 0 -12 -38 -2 -47 12 -4 7 0 8 11 4 10 -4 22 -7 27
-7z m123 -15 c20 -30 8 -33 -17 -5 -19 23 -21 30 -8 30 5 0 16 -11 25 -25z
m1254 18 c-10 -2 -18 -13 -18 -24 0 -18 -44 -38 -57 -25 -4 3 1 6 11 6 13 0
15 6 10 25 -6 24 -4 25 32 24 22 -1 31 -3 22 -6z m120 -33 c-3 -19 2 -31 14
-39 14 -9 18 -8 18 5 0 14 2 14 17 -1 9 -10 12 -20 7 -23 -6 -4 -21 -23 -34
-42 -25 -37 -55 -70 -65 -70 -3 0 -5 8 -5 18 0 19 28 54 57 71 16 9 16 12 3
21 -11 7 -18 5 -27 -6 -7 -10 -13 -11 -18 -5 -3 6 -2 11 3 11 6 0 9 22 7 49
-2 40 0 48 12 44 10 -4 13 -16 11 -33z m462 30 c0 -5 -4 -10 -10 -10 -5 0 -10
5 -10 10 0 6 5 10 10 10 6 0 10 -4 10 -10z m-1883 -39 c22 -28 22 -29 3 -34
-12 -3 -20 0 -20 7 0 6 -9 18 -20 26 -25 18 -26 30 -2 29 9 0 27 -13 39 -28z
m893 2 c0 -22 -2 -25 -10 -13 -13 20 -13 40 0 40 6 0 10 -12 10 -27z m-1306
-8 c4 -14 16 -35 28 -47 21 -21 21 -21 2 -35 -10 -8 -18 -16 -16 -18 6 -12 1
-25 -9 -25 -6 0 -9 6 -6 14 3 8 0 19 -7 25 -17 14 -27 61 -19 90 7 28 19 27
27 -4z m1528 13 c-7 -7 -12 -22 -12 -33 0 -14 -10 -26 -26 -34 -20 -9 -24 -14
-15 -25 9 -10 8 -15 -4 -19 -14 -6 -55 -64 -55 -79 0 -3 9 -4 20 -1 11 3 20
13 20 22 0 10 11 24 25 31 14 7 25 22 25 32 0 32 19 19 29 -19 6 -21 11 -43
11 -49 0 -6 7 -17 15 -24 21 -17 19 -29 -4 -23 -23 6 -51 -30 -51 -65 0 -17
-4 -23 -15 -18 -9 3 -15 0 -15 -8 0 -8 7 -16 15 -20 8 -3 15 -11 15 -17 0 -8
-4 -8 -15 1 -9 7 -17 11 -18 9 -30 -41 -38 -62 -28 -72 17 -17 13 -31 -4 -17
-12 10 -15 10 -15 -4 0 -9 -4 -16 -10 -16 -17 0 -11 -58 7 -69 10 -5 15 -13
10 -17 -4 -4 -15 0 -25 9 -10 10 -25 17 -33 17 -8 0 -5 -6 9 -16 12 -8 22 -20
22 -26 0 -7 -5 -6 -15 2 -11 9 -22 9 -50 0 -34 -11 -48 -30 -22 -30 6 0 4 -5
-5 -11 -10 -5 -18 -17 -18 -24 0 -8 -4 -15 -9 -15 -17 0 -18 -34 -2 -59 15
-23 15 -24 -7 -12 -24 13 -30 3 -10 -17 8 -8 9 -12 1 -12 -6 0 -24 -13 -40
-28 -15 -16 -35 -31 -43 -35 -12 -5 -9 -11 13 -29 35 -30 36 -46 1 -19 -28 22
-50 28 -39 12 3 -5 1 -12 -5 -16 -13 -8 -13 -55 0 -55 6 0 10 -5 10 -12 0 -9
-3 -9 -12 0 -7 7 -19 12 -27 12 -10 0 -8 -7 9 -25 13 -14 18 -25 11 -25 -6 0
-14 7 -17 15 -4 8 -12 15 -20 15 -7 0 -11 -6 -9 -12 3 -8 -4 -14 -20 -14 -22
-2 -24 0 -13 14 10 11 10 16 1 19 -7 2 5 19 26 39 42 37 109 163 135 254 19
63 23 71 51 86 16 9 20 22 21 68 1 32 7 63 13 69 16 16 14 47 -4 53 -19 8 -11
70 11 94 13 13 14 10 8 -18 -6 -30 7 -45 20 -23 3 5 21 5 40 1 19 -4 37 -5 40
-2 11 11 6 32 -8 32 -8 0 -17 6 -19 13 -4 9 -8 8 -16 -3 -12 -17 -16 -14 -24
20 -5 20 0 32 22 53 18 17 32 42 36 66 4 27 13 41 26 44 11 3 19 14 19 26 0
12 11 26 28 35 33 18 50 20 34 4z m772 -4 c8 -21 8 -24 -5 -24 -5 0 -7 5 -4
10 3 6 1 10 -4 10 -6 0 -11 5 -11 10 0 16 17 12 24 -6z m-1319 -4 c3 -5 -1
-10 -10 -10 -9 0 -13 5 -10 10 3 6 8 10 10 10 2 0 7 -4 10 -10z m442 -22 c-3
-8 -6 -5 -6 6 -1 11 2 17 5 13 3 -3 4 -12 1 -19z m168 12 c3 -5 1 -10 -4 -10
-6 0 -11 5 -11 10 0 6 2 10 4 10 3 0 8 -4 11 -10z m135 -10 c-6 -11 -20 -20
-32 -20 -12 0 -18 3 -15 6 6 6 46 30 55 33 1 1 -2 -8 -8 -19z m-1455 -7 c11
-14 10 -23 -1 -45 -8 -16 -19 -28 -25 -28 -15 0 -23 30 -10 43 6 6 11 19 11
29 0 23 9 23 25 1z m382 -5 c-3 -8 -6 -5 -6 6 -1 11 2 17 5 13 3 -3 4 -12 1
-19z m713 12 c0 -5 -2 -10 -4 -10 -3 0 -8 5 -11 10 -3 6 -1 10 4 10 6 0 11 -4
11 -10z m-206 -72 c20 -29 21 -44 1 -28 -23 19 -48 77 -39 92 5 8 10 4 15 -14
4 -15 14 -37 23 -50z m-404 48 c0 -8 3 -21 6 -30 8 -20 -23 -21 -48 -2 -31 23
-19 40 30 45 6 0 12 -5 12 -13z m840 -18 c0 -12 -14 -10 -28 4 -19 19 -14 29
8 16 11 -7 20 -16 20 -20z m-1455 11 c4 -6 13 -8 21 -5 7 3 16 1 19 -3 11 -19
-38 -19 -58 0 -17 16 -18 19 -4 19 8 0 19 -5 22 -11z m835 -10 c0 -11 -4 -17
-10 -14 -5 3 -10 13 -10 21 0 8 5 14 10 14 6 0 10 -9 10 -21z m675 -9 c0 -16
-1 -30 -2 -30 -1 0 -8 14 -17 30 -13 27 -13 30 2 30 12 0 17 -9 17 -30z m662
16 c-4 -10 -1 -13 7 -10 8 3 17 1 21 -5 9 -15 -28 -14 -43 1 -17 17 -15 28 4
28 10 0 14 -6 11 -14z m-1957 -6 c0 -5 -5 -10 -11 -10 -5 0 -7 5 -4 10 3 6 8
10 11 10 2 0 4 -4 4 -10z m310 -44 c0 -5 -11 1 -25 14 -14 13 -25 28 -25 33 0
12 50 -35 50 -47z m-215 25 c-3 -6 -14 -11 -23 -11 -15 1 -15 2 2 15 21 16 32
13 21 -4z m152 -37 c85 -87 150 -240 144 -340 -1 -23 2 -45 8 -49 6 -3 11 -17
11 -29 0 -13 6 -29 14 -35 7 -6 16 -35 19 -64 4 -29 13 -57 22 -63 8 -6 15
-24 15 -40 0 -22 -3 -26 -10 -14 -5 8 -10 11 -10 6 0 -5 -6 -3 -13 3 -8 6 -17
8 -20 4 -4 -3 -7 -1 -7 5 0 7 5 12 10 12 6 0 10 5 10 11 0 6 -7 8 -15 5 -8 -3
-22 -9 -30 -12 -8 -3 -15 -1 -15 4 0 6 8 13 18 16 10 3 18 15 19 26 2 17 -3
20 -20 16 -12 -3 -16 -3 -9 0 18 9 15 25 -5 22 -10 -2 -18 3 -18 12 -1 8 -7
14 -15 12 -12 -3 -13 -1 -2 9 20 21 14 30 -15 23 -16 -3 -23 -2 -17 3 20 15
33 49 27 71 -7 28 -33 29 -40 2 -8 -29 -24 -25 -56 16 -17 21 -35 33 -43 30
-10 -4 -14 2 -14 18 0 36 -10 55 -26 49 -9 -3 -14 1 -14 12 0 11 -5 15 -15 11
-21 -8 -19 14 3 30 24 18 5 35 -42 37 -39 2 -48 20 -17 37 14 7 21 6 24 -3 4
-8 8 -8 14 -2 20 24 53 35 73 25 16 -9 22 -7 27 6 10 28 -46 59 -62 34 -12
-19 -34 -11 -30 11 3 16 0 19 -16 14 -11 -4 -27 -1 -35 6 -8 6 -17 9 -21 5 -3
-3 -1 -6 5 -6 7 0 12 -4 12 -10 0 -16 -17 -11 -24 7 -10 24 8 37 33 23 30 -16
41 -5 31 30 -8 28 -7 29 21 23 25 -5 29 -2 29 16 0 35 28 24 87 -35z m1123 52
c0 -3 -4 -8 -10 -11 -5 -3 -10 -1 -10 4 0 6 5 11 10 11 6 0 10 -2 10 -4z m40
-6 c0 -5 -7 -10 -15 -10 -8 0 -15 5 -15 10 0 6 7 10 15 10 8 0 15 -4 15 -10z
m-477 -25 c-7 -21 -13 -19 -13 6 0 11 4 18 10 14 5 -3 7 -12 3 -20z m31 0 c-4
-8 -8 -15 -10 -15 -2 0 -4 7 -4 15 0 8 4 15 10 15 5 0 7 -7 4 -15z m-1114 -5
c0 -5 -7 -10 -15 -10 -8 0 -15 5 -15 10 0 6 7 10 15 10 8 0 15 -4 15 -10z
m1370 -37 c0 -13 3 -23 8 -23 4 0 13 -9 20 -20 7 -12 8 -20 2 -20 -16 0 -50
62 -50 90 0 20 2 22 10 10 5 -8 10 -25 10 -37z m-1190 27 c0 -5 -5 -10 -12
-10 -6 0 -26 -11 -45 -26 -18 -14 -33 -21 -33 -16 0 9 70 62 82 62 5 0 8 -4 8
-10z m1347 -10 c18 0 32 -3 31 -7 -1 -5 6 -24 14 -43 9 -19 17 -27 17 -18 1 9
11 20 23 24 13 4 28 14 35 23 9 11 12 12 13 3 0 -7 -12 -25 -26 -39 -18 -18
-22 -28 -14 -33 9 -6 9 -9 1 -15 -8 -4 -9 -11 -3 -18 5 -7 12 -54 14 -104 4
-90 2 -97 -27 -94 -5 0 -30 -17 -54 -39 -50 -45 -61 -49 -61 -21 0 11 -4 23
-10 26 -5 3 -10 15 -10 26 0 10 5 19 10 19 6 0 10 11 10 24 0 14 -4 28 -10 31
-5 3 -10 10 -10 16 0 5 5 9 10 9 6 0 10 -5 10 -11 0 -16 38 -61 44 -51 2 4 1
14 -5 22 -15 25 -10 59 11 72 11 7 20 21 20 31 0 16 -2 16 -22 -3 -23 -21 -58
-27 -58 -10 0 6 7 10 16 10 10 0 14 6 10 15 -3 10 1 15 12 15 14 0 15 2 2 9
-8 6 -17 8 -21 6 -10 -7 -35 26 -46 60 -7 20 -16 29 -27 27 -27 -5 -18 15 16
37 21 13 36 17 42 11 6 -6 25 -10 43 -10z m-1619 -7 c-3 -19 -48 -32 -48 -14
0 6 7 11 15 11 8 0 15 5 15 10 0 6 5 10 11 10 6 0 9 -8 7 -17z m52 -3 c11 -11
15 -22 10 -25 -6 -4 -10 -22 -10 -41 0 -19 -4 -33 -9 -31 -5 1 -9 -2 -9 -7 0
-5 -7 -13 -16 -18 -9 -5 -14 -14 -11 -19 4 -5 11 -7 16 -3 5 3 8 0 7 -7 -5
-20 17 -20 30 1 10 17 10 20 -5 20 -17 1 -17 1 0 11 9 5 17 21 17 34 0 15 6
25 14 25 8 0 17 6 19 13 3 6 6 0 6 -15 1 -18 6 -28 16 -28 17 0 20 -16 6 -25
-5 -3 -13 -1 -16 5 -10 15 -31 -5 -39 -35 -8 -32 -40 -49 -65 -35 -27 14 -36
13 -22 -4 7 -8 23 -17 36 -20 14 -4 31 -20 41 -41 10 -21 23 -35 35 -35 12 0
16 -5 13 -14 -3 -8 -1 -17 5 -21 16 -9 13 -25 -4 -25 -8 0 -15 -4 -15 -10 0
-15 -132 55 -160 85 -19 20 -22 30 -14 43 13 22 6 54 -9 46 -7 -3 -3 1 7 10
14 11 16 19 8 28 -7 9 -6 20 3 38 8 14 14 33 15 43 0 12 4 16 12 11 19 -12 48
-12 49 0 5 33 6 42 8 54 2 17 8 15 31 -8z m640 -1 c0 -18 -2 -19 -15 -9 -15
12 -12 30 6 30 5 0 9 -10 9 -21z m-540 1 c0 -5 -2 -10 -4 -10 -3 0 -8 5 -11
10 -3 6 -1 10 4 10 6 0 11 -4 11 -10z m1637 -15 c-4 -8 -11 -15 -17 -15 -6 0
-6 7 2 20 14 22 24 19 15 -5z m476 -5 c9 -11 13 -20 9 -20 -10 1 -42 26 -42
34 0 12 16 6 33 -14z m-2013 0 c0 -5 -5 -10 -11 -10 -5 0 -7 5 -4 10 3 6 8 10
11 10 2 0 4 -4 4 -10z m-322 -17 c-8 -10 -18 -27 -22 -37 -6 -18 -7 -19 -20
-1 -12 17 -10 21 18 36 40 23 42 23 24 2z m972 -4 c0 -6 -4 -7 -10 -4 -5 3
-10 11 -10 16 0 6 5 7 10 4 6 -3 10 -11 10 -16z m140 -32 c0 -5 -9 -2 -20 8
-11 10 -20 25 -20 34 1 12 5 10 20 -8 11 -13 20 -28 20 -34z m-895 23 c3 -5 1
-10 -4 -10 -6 0 -11 5 -11 10 0 6 2 10 4 10 3 0 8 -4 11 -10z m85 6 c0 -2 -7
-7 -16 -10 -8 -3 -12 -2 -9 4 6 10 25 14 25 6z m869 -29 c0 -21 -1 -21 -9 -2
-12 28 -12 37 0 30 6 -3 10 -16 9 -28z m829 -22 c20 -83 27 -159 15 -152 -6 4
-14 35 -18 69 -11 79 -12 88 -21 116 -3 12 -2 22 3 22 4 0 14 -25 21 -55z
m-1193 35 c3 -5 -1 -10 -10 -10 -9 0 -13 5 -10 10 3 6 8 10 10 10 2 0 7 -4 10
-10z m-61 -16 c10 -25 -1 -29 -14 -5 -6 12 -7 21 -1 21 5 0 12 -7 15 -16z
m-353 -5 c23 -12 16 -29 -11 -29 -13 0 -18 7 -17 20 1 23 2 23 28 9z m-106 -9
c-3 -5 -11 -10 -16 -10 -6 0 -7 5 -4 10 3 6 11 10 16 10 6 0 7 -4 4 -10z
m1335 -34 c0 -5 -7 -1 -15 10 -8 10 -14 24 -14 29 0 6 6 1 14 -9 8 -11 15 -24
15 -30z m-604 8 c23 9 17 -44 -8 -71 -22 -24 -52 -30 -63 -14 -3 5 7 11 21 13
30 3 58 37 37 45 -7 3 -12 17 -12 31 1 19 3 21 6 9 3 -11 11 -16 19 -13z m804
5 c0 -6 -4 -7 -10 -4 -5 3 -10 11 -10 16 0 6 5 7 10 4 6 -3 10 -11 10 -16z
m-1874 -2 c4 -4 -2 -7 -14 -7 -12 0 -22 4 -22 9 0 10 26 9 36 -2z m1159 -71
c-13 -31 -18 -36 -30 -26 -12 10 -19 10 -32 -1 -9 -8 -4 3 12 23 17 21 33 38
38 38 4 0 7 8 7 18 0 29 15 37 18 10 2 -13 -4 -41 -13 -62z m-805 70 c0 -3 -4
-8 -10 -11 -5 -3 -10 -1 -10 4 0 6 5 11 10 11 6 0 10 -2 10 -4z m2090 -27 c0
-5 -4 -9 -10 -9 -5 0 -10 7 -10 16 0 8 5 12 10 9 6 -3 10 -10 10 -16z m-1445
1 c-3 -5 -13 -10 -21 -10 -8 0 -12 5 -9 10 3 6 13 10 21 10 8 0 12 -4 9 -10z
m-630 -30 c-3 -5 -11 -10 -16 -10 -6 0 -7 5 -4 10 3 6 11 10 16 10 6 0 7 -4 4
-10z m1915 -41 c0 -11 5 -19 11 -19 5 0 7 -4 4 -10 -3 -5 -2 -10 4 -10 24 0 1
-35 -28 -43 -18 -4 -31 -10 -29 -12 2 -3 21 0 42 6 21 6 40 8 43 5 7 -7 -42
-26 -65 -26 -15 0 -15 -2 -2 -10 8 -5 27 -10 43 -10 17 0 27 -5 27 -15 0 -8 5
-15 10 -15 6 0 10 -9 10 -20 0 -11 -5 -20 -10 -20 -6 0 -18 -13 -28 -29 -13
-22 -21 -26 -37 -21 -19 8 -19 8 5 18 14 6 18 11 10 12 -13 0 -13 1 0 10 19
12 4 13 -38 1 -20 -6 -30 -6 -27 0 4 5 16 9 28 10 21 0 21 1 2 9 l-20 9 20 1
c16 1 14 4 -10 14 l-30 13 30 8 30 8 -25 11 c-35 15 -36 35 -2 47 34 12 41 43
8 33 -12 -4 -27 -12 -35 -18 -12 -8 -13 -8 -7 2 4 7 19 17 33 23 16 6 22 13
16 21 -4 7 -8 23 -9 35 -1 18 2 21 13 12 7 -6 13 -20 13 -30z m-1894 16 c-8
-8 -18 -15 -22 -15 -3 0 -1 7 6 15 7 8 17 15 22 15 5 0 3 -7 -6 -15z m1149 5
c3 -5 1 -10 -4 -10 -6 0 -11 5 -11 10 0 6 2 10 4 10 3 0 8 -4 11 -10z m-1315
-14 c0 -3 -4 -8 -10 -11 -5 -3 -10 -1 -10 4 0 6 5 11 10 11 6 0 10 -2 10 -4z
m244 -10 c-3 -8 -13 -17 -22 -21 -13 -5 -13 -2 3 15 21 24 26 25 19 6z m331
-5 c3 -5 1 -12 -5 -16 -5 -3 -10 1 -10 9 0 18 6 21 15 7z m-775 -11 c0 -5 -7
-10 -15 -10 -8 0 -15 -7 -15 -15 0 -19 58 -77 69 -70 5 3 16 -7 25 -21 22 -33
58 -46 133 -49 49 -3 68 1 87 16 13 10 28 19 33 19 4 0 1 -5 -7 -10 -9 -6 -11
-13 -5 -17 18 -14 55 -72 55 -87 0 -9 9 -20 20 -26 11 -6 20 -20 20 -30 0 -28
-17 -25 -24 4 -4 18 -11 23 -27 19 -12 -4 -18 -11 -15 -20 3 -8 6 -24 6 -34 0
-11 3 -18 8 -16 4 3 6 -25 6 -61 -1 -37 0 -50 3 -29 2 21 11 41 19 44 9 3 12
13 8 28 -3 13 -1 26 5 29 6 4 11 -1 11 -11 0 -10 3 -28 6 -41 4 -13 3 -22 -2
-21 -28 5 -35 -3 -33 -34 2 -18 1 -37 -3 -42 -3 -6 1 -55 8 -110 7 -55 11
-107 9 -115 -9 -32 15 -91 60 -149 27 -34 46 -64 43 -67 -3 -3 -23 11 -44 30
-22 20 -42 36 -46 36 -12 0 -9 -35 4 -48 6 -6 8 -15 5 -19 -13 -12 -41 25 -55
74 -7 27 -17 105 -22 175 -5 71 -16 142 -25 163 -33 80 -10 274 31 258 22 -8
16 19 -12 60 -26 39 -44 45 -25 9 25 -47 -1 -92 -53 -92 -35 1 -57 15 -75 48
-18 33 -26 19 -11 -17 12 -31 49 -61 73 -61 18 0 27 -43 27 -122 0 -35 6 -68
15 -81 8 -13 20 -66 27 -119 12 -98 3 -249 -22 -373 -6 -27 -15 -84 -20 -125
-5 -41 -19 -118 -29 -170 -48 -231 -59 -288 -64 -332 -4 -45 -3 -49 31 -74 19
-15 48 -30 65 -33 17 -4 32 -12 34 -18 6 -17 -60 -27 -86 -13 -12 6 -41 10
-65 9 -25 -2 -51 3 -59 9 -12 10 -18 8 -31 -12 -9 -14 -16 -29 -16 -33 0 -4
-12 -21 -26 -37 -18 -21 -28 -26 -36 -18 -8 8 -8 15 2 27 10 12 10 15 0 15 -7
0 -18 -7 -25 -17 -7 -9 -19 -14 -28 -10 -14 5 -15 10 -5 34 7 15 24 39 38 53
15 14 35 45 44 70 16 41 17 56 6 155 -12 103 -11 114 9 172 21 62 29 173 12
173 -7 0 -22 -77 -26 -140 -3 -30 -18 -86 -33 -120 -39 -86 -87 -103 -139 -48
-17 18 -34 48 -38 66 -5 26 -11 32 -33 32 -25 1 -26 2 -8 15 21 16 14 35 -14
35 -19 0 -60 56 -60 81 0 12 2 12 9 0 11 -16 31 -6 31 16 0 13 3 13 15 3 8 -7
15 -21 15 -31 0 -11 4 -19 9 -19 5 0 16 -3 24 -6 11 -4 17 4 22 25 7 35 16 38
36 15 12 -14 15 -13 36 12 18 23 25 26 35 16 9 -9 9 -15 0 -24 -18 -18 -14
-30 8 -23 11 3 20 4 20 1 0 -10 -43 -56 -53 -56 -5 0 -22 -13 -38 -30 -28 -27
-29 -32 -20 -68 11 -41 47 -67 76 -55 36 13 82 157 86 270 1 35 -1 66 -4 70
-11 10 -8 53 3 53 16 0 12 37 -10 88 -11 26 -29 83 -41 127 -29 107 -21 235
18 302 22 39 25 52 20 103 -8 70 -50 187 -55 152 -2 -12 4 -43 14 -68 15 -38
15 -52 5 -97 -25 -110 -51 -250 -51 -275 0 -30 -16 -82 -39 -132 -11 -24 -25
-36 -41 -38 -34 -5 -60 -35 -60 -69 0 -19 -3 -24 -11 -16 -16 16 5 81 38 115
27 29 28 32 30 151 0 67 4 144 8 172 4 27 7 95 6 150 -3 221 26 327 100 361
28 12 39 23 39 39 0 12 3 25 7 28 10 11 33 8 33 -3z m970 -10 c0 -5 -6 -10
-14 -10 -8 0 -18 5 -21 10 -3 6 3 10 14 10 12 0 21 -4 21 -10z m65 0 c-3 -5
-12 -10 -18 -10 -7 0 -6 4 3 10 19 12 23 12 15 0z m1004 -49 c31 -32 69 -83
85 -114 16 -30 45 -72 64 -93 45 -49 53 -100 20 -131 -24 -24 -88 -71 -151
-113 -34 -22 -37 -28 -32 -55 3 -16 8 -47 9 -67 2 -21 9 -44 16 -53 15 -18 0
-20 -21 -2 -17 14 -34 63 -44 123 -7 44 5 71 73 166 19 26 32 51 30 55 -10 23
-93 121 -99 117 -4 -2 -10 -35 -14 -72 -4 -37 -11 -81 -16 -98 -9 -30 15 -225
40 -319 14 -50 15 -216 2 -275 -5 -25 -16 -71 -25 -103 -9 -32 -16 -69 -16
-82 0 -13 -4 -27 -10 -30 -5 -3 -10 -24 -10 -46 0 -23 -4 -38 -10 -34 -11 7
-45 -54 -35 -63 3 -4 10 0 14 7 26 42 22 -118 -5 -170 -17 -34 -44 -152 -44
-194 0 -27 9 -42 56 -85 43 -38 54 -54 45 -63 -8 -8 -14 -8 -23 1 -7 7 -19 12
-28 12 -10 0 -8 -6 10 -20 24 -19 24 -20 3 -20 -12 0 -34 11 -50 23 -15 13
-43 30 -61 38 -30 13 -33 17 -27 48 11 59 23 235 18 268 -3 18 0 61 6 96 8 46
8 126 1 282 -10 212 -9 219 10 240 11 12 20 31 20 44 0 12 5 31 11 42 5 11 8
28 6 37 -3 13 -7 9 -16 -13 -10 -23 -14 -26 -21 -15 -8 12 -10 9 -11 -10 -1
-20 -3 -18 -9 10 -8 34 -8 33 -7 -10 1 -30 6 -44 15 -43 6 2 12 -4 12 -13 0
-10 -7 -14 -22 -12 -20 3 -24 11 -28 53 -5 47 -26 95 -42 95 -14 0 -9 -27 7
-40 9 -7 15 -29 15 -51 0 -22 9 -56 20 -76 10 -20 17 -40 14 -45 -3 -5 -1 -30
5 -56 7 -31 8 -86 3 -162 -5 -63 -5 -128 -1 -144 10 -36 -6 -363 -22 -435 -9
-44 -20 -62 -53 -93 -45 -41 -62 -48 -51 -20 4 9 9 23 12 30 6 14 -13 16 -22
2 -11 -17 -35 -11 -35 9 0 18 52 71 69 71 4 0 18 9 30 19 19 17 21 25 15 73
-4 29 -10 58 -14 63 -4 6 -17 52 -30 103 -17 70 -21 110 -17 156 4 44 2 69 -7
82 -7 10 -16 43 -20 73 -4 30 -16 92 -27 138 -18 75 -20 110 -16 301 2 119 2
224 -1 234 -6 24 -22 23 -22 -2 0 -11 -4 -20 -10 -20 -5 0 -7 14 -4 33 l5 32
-17 -33 c-19 -36 -122 -92 -210 -113 -53 -13 -74 -31 -74 -65 0 -20 4 -22 38
-17 33 4 40 1 60 -26 18 -25 22 -39 17 -69 -11 -60 -16 -72 -31 -72 -18 0 -20
80 -2 98 9 9 7 16 -7 32 -27 30 -39 10 -36 -60 2 -61 -2 -68 -29 -50 -12 8
-12 10 -1 10 11 0 11 3 1 15 -8 9 -8 15 -2 15 6 0 10 9 9 20 -1 11 -5 20 -10
20 -4 0 -5 5 -1 11 10 16 -15 29 -58 29 -20 0 -39 4 -43 10 -3 5 -12 7 -20 3
-8 -3 -15 0 -15 6 0 15 23 14 38 -1 6 -6 15 -8 19 -4 5 4 -3 16 -16 27 -19 15
-21 22 -11 33 6 8 24 17 38 19 15 2 8 3 -15 1 -24 -2 -43 1 -43 6 0 15 43 40
70 40 29 0 57 17 118 73 24 21 58 45 76 52 37 16 38 21 52 245 7 110 19 138
64 150 55 16 80 13 80 -9 0 -10 7 -22 16 -25 11 -4 14 -12 9 -24 -4 -9 -8 -39
-9 -67 -1 -31 -5 -49 -12 -48 -7 1 -11 -19 -10 -58 2 -59 -13 -97 -16 -42 -1
27 -2 35 -8 58 -2 6 -6 -24 -11 -65 -4 -41 -10 -85 -14 -97 -4 -14 -3 -23 3
-23 6 0 13 8 15 18 4 13 5 11 6 -5 0 -13 7 -23 15 -23 24 0 41 32 39 76 -1 28
3 44 12 48 8 3 19 23 26 45 7 22 21 50 31 61 10 11 14 20 8 20 -5 0 -10 7 -10
15 0 14 3 14 30 0 36 -19 40 -19 40 0 0 8 7 15 15 15 8 0 15 5 15 10 0 6 7 10
15 10 8 0 15 9 15 20 0 25 28 70 44 70 6 0 17 14 24 30 12 25 19 30 49 30 30
0 44 -9 92 -59z m-159 39 c0 -5 -7 -10 -15 -10 -8 0 -15 5 -15 10 0 6 7 10 15
10 8 0 15 -4 15 -10z m-970 -31 c0 -6 -4 -7 -10 -4 -5 3 -10 11 -10 16 0 6 5
7 10 4 6 -3 10 -11 10 -16z m220 17 c0 -2 -8 -10 -17 -17 -16 -13 -17 -12 -4
4 13 16 21 21 21 13z m-1105 -16 c3 -5 2 -10 -4 -10 -5 0 -13 5 -16 10 -3 6
-2 10 4 10 5 0 13 -4 16 -10z m2343 -35 c-3 -3 -9 2 -12 12 -6 14 -5 15 5 6 7
-7 10 -15 7 -18z m-2084 0 c4 -13 2 -14 -14 -5 -23 13 -26 20 -6 20 8 0 16 -7
20 -15z m763 -7 c-3 -8 -6 -5 -6 6 -1 11 2 17 5 13 3 -3 4 -12 1 -19z m1283 2
c0 -5 -4 -10 -10 -10 -5 0 -10 5 -10 10 0 6 5 10 10 10 6 0 10 -4 10 -10z
m169 -32 c-1 -31 -1 -31 -8 -8 -5 14 -6 28 -4 33 9 15 13 6 12 -25z m-2389 14
c0 -5 10 -14 23 -20 21 -11 21 -11 -5 -7 -15 2 -32 6 -38 10 -15 9 -12 25 5
25 8 0 15 -4 15 -8z m797 -34 c-3 -8 -6 -5 -6 6 -1 11 2 17 5 13 3 -3 4 -12 1
-19z m252 -5 c0 -25 -1 -26 -9 -8 -12 27 -12 35 0 35 6 0 10 -12 9 -27z m641
17 c0 -5 -7 -10 -15 -10 -8 0 -15 5 -15 10 0 6 7 10 15 10 8 0 15 -4 15 -10z
m-1553 -6 c-3 -3 -12 -4 -19 -1 -8 3 -5 6 6 6 11 1 17 -2 13 -5z m2120 0 c-3
-3 -12 -4 -19 -1 -8 3 -5 6 6 6 11 1 17 -2 13 -5z m-2 -54 c-3 -5 -12 -10 -18
-10 -7 0 -6 4 3 10 19 12 23 12 15 0z m102 -37 c-3 -10 -5 -4 -5 12 0 17 2 24
5 18 2 -7 2 -21 0 -30z m-223 19 c-18 -12 -24 -52 -7 -52 8 0 11 -5 8 -10 -10
-17 -35 8 -35 35 0 26 8 35 29 35 10 0 12 -3 5 -8z m166 -21 c0 -20 -27 -48
-37 -37 -3 3 0 6 8 7 8 0 6 4 -6 9 -17 7 -17 9 -2 9 20 1 23 17 5 24 -7 3 -3
6 10 6 15 1 22 -5 22 -18z m-750 -10 c0 -17 -12 -41 -21 -41 -10 0 -12 33 -2
43 9 10 23 9 23 -2z m-741 -40 c-2 -6 -10 2 -17 17 -11 25 -11 25 4 10 9 -9
15 -21 13 -27z m61 -6 c0 -5 -5 -3 -10 5 -5 8 -10 20 -10 25 0 6 5 3 10 -5 5
-8 10 -19 10 -25z m1318 -10 c1 -19 -3 -35 -8 -35 -5 0 -7 6 -4 14 3 7 -2 16
-12 20 -13 5 -14 9 -4 21 19 23 27 18 28 -20z m60 -5 c-10 -16 -10 -24 0 -40
6 -11 12 -28 12 -37 -1 -16 -2 -16 -12 2 -6 11 -15 23 -20 26 -13 8 3 69 18
69 12 0 12 -4 2 -20z m-1018 6 c0 -3 -4 -8 -10 -11 -5 -3 -10 -1 -10 4 0 6 5
11 10 11 6 0 10 -2 10 -4z m1071 -26 c1 -16 2 -44 3 -62 0 -17 7 -33 14 -35 7
-3 12 -22 12 -49 0 -29 5 -47 14 -50 9 -4 17 -30 21 -75 8 -75 -2 -100 -35
-94 -11 2 -19 1 -19 -3 3 -20 -3 -22 -23 -8 -16 12 -25 13 -35 4 -10 -8 -12
-8 -8 3 3 10 -3 14 -20 15 -14 1 -25 -2 -25 -8 0 -5 5 -6 10 -3 17 10 11 -22
-7 -36 -13 -11 -17 -11 -20 -1 -7 18 -34 15 -49 -5 -17 -24 -22 -17 -39 53 -9
32 -22 64 -30 70 -8 6 -15 16 -15 22 0 5 -7 12 -15 16 -8 3 -15 15 -15 26 0
14 -4 19 -12 14 -7 -4 -8 -3 -4 4 4 7 15 12 24 12 14 0 14 2 3 9 -8 5 -10 14
-6 21 6 10 10 9 17 -4 5 -9 22 -16 38 -16 36 0 64 34 81 99 11 43 14 47 27 35
9 -10 12 -25 8 -48 -4 -23 -2 -37 8 -45 21 -17 43 -4 66 41 18 34 19 45 10 74
-11 34 -7 54 11 54 5 0 10 -13 10 -30z m-1484 -2 c-3 -8 -6 -5 -6 6 -1 11 2
17 5 13 3 -3 4 -12 1 -19z m684 -101 c-8 -8 -11 -7 -11 4 0 9 3 19 7 23 4 4 9
2 11 -4 3 -7 -1 -17 -7 -23z m-1197 -58 c-4 -23 -3 -44 2 -48 10 -6 35 -81 28
-81 -3 0 -9 11 -14 25 -12 31 -30 33 -31 3 0 -23 0 -23 -12 1 -9 19 -9 25 1
29 14 4 16 48 2 57 -14 9 8 54 28 55 1 0 -1 -18 -4 -41z m1806 27 c0 -3 -4 -8
-10 -11 -5 -3 -10 -1 -10 4 0 6 5 11 10 11 6 0 10 -2 10 -4z m-1286 -78 c-3
-4 -13 -8 -22 -8 -12 0 -13 -3 -4 -12 16 -16 15 -28 -2 -28 -18 0 -29 -42 -13
-52 9 -6 8 -10 -3 -18 -12 -8 -13 -12 -2 -19 17 -10 21 -102 6 -108 -6 -2 -17
18 -24 44 -8 26 -18 51 -24 55 -22 15 -45 8 -48 -14 -2 -15 -11 -24 -25 -26
-27 -4 -29 5 -6 30 15 17 14 18 -20 18 -21 0 -37 -4 -37 -10 0 -5 -9 -10 -20
-10 -11 0 -20 5 -20 10 0 17 -40 11 -62 -10 -16 -15 -18 -22 -10 -33 7 -8 9
-17 5 -20 -3 -4 0 -13 6 -21 8 -9 8 -16 2 -20 -10 -6 -16 1 -38 43 -33 60 -1
93 90 95 53 1 61 3 48 13 -26 20 10 16 39 -4 16 -11 25 -13 28 -5 2 6 10 8 18
5 9 -3 14 1 14 12 0 13 6 16 25 11 31 -8 33 9 3 19 -22 8 -22 8 5 12 36 6 35
23 -3 23 -16 0 -30 5 -30 10 0 6 11 10 24 10 20 0 23 4 20 29 -2 21 1 31 13
33 19 3 75 -41 67 -54z m241 12 c3 -6 -1 -7 -9 -4 -18 7 -21 14 -7 14 6 0 13
-4 16 -10z m401 -25 c10 -25 -4 -62 -31 -79 -24 -16 -25 -16 -25 8 0 15 7 25
20 29 25 6 27 44 3 50 -13 4 -12 5 5 6 12 0 25 -6 28 -14z m-596 -15 c0 -5 -4
-10 -10 -10 -5 0 -10 5 -10 10 0 6 5 10 10 10 6 0 10 -4 10 -10z m-525 -120
c10 -11 15 -29 12 -47 -4 -27 -4 -26 -6 5 -1 26 -5 33 -18 30 -14 -3 -18 -12
-16 -43 l2 -40 -11 34 c-8 23 -8 38 -1 50 6 9 9 32 7 51 -4 34 -4 34 6 6 5
-15 16 -36 25 -46z m1070 -42 c-4 -15 -10 -28 -15 -28 -5 0 -16 -8 -26 -17
-16 -16 -16 -16 -9 7 4 14 13 29 20 35 15 12 26 41 18 49 -3 3 -12 -2 -20 -12
-12 -16 -13 -15 -6 3 17 52 50 20 38 -37z m48 17 c-3 -9 -8 -14 -10 -11 -3 3
-2 9 2 15 9 16 15 13 8 -4z m-833 -28 c0 -14 -20 -37 -32 -37 -10 0 -11 34 -1
43 11 12 33 8 33 -6z m450 -17 c0 -32 -25 -90 -38 -90 -4 0 -8 9 -9 20 -1 11
2 20 8 20 5 0 8 3 8 8 -1 4 -1 22 0 40 1 43 31 45 31 2z m1207 0 c-11 -19 -27
-27 -27 -14 0 15 22 44 30 39 6 -4 5 -14 -3 -25z m-1382 10 c-28 -12 -85 -12
-85 0 0 6 24 10 53 9 38 0 47 -3 32 -9z m125 0 c0 -5 -15 -10 -34 -10 -19 0
-38 5 -41 10 -4 6 10 10 34 10 23 0 41 -4 41 -10z m1120 -20 c0 -5 -4 -10 -10
-10 -5 0 -10 5 -10 10 0 6 5 10 10 10 6 0 10 -4 10 -10z m75 -10 c3 -5 2 -10
-4 -10 -5 0 -13 5 -16 10 -3 6 -2 10 4 10 5 0 13 -4 16 -10z m-1595 -41 c-13
-43 -18 -46 -25 -16 -8 29 0 47 20 47 11 0 12 -7 5 -31z m-218 -29 c7 -16 17
-30 22 -30 4 0 6 -9 3 -20 -4 -15 7 -34 40 -68 71 -74 77 -81 70 -88 -4 -4
-13 -1 -22 6 -8 7 -21 10 -29 7 -8 -3 -26 5 -41 19 -21 19 -25 31 -21 52 5 23
0 32 -34 61 -41 35 -49 58 -28 79 18 18 25 15 40 -18z m958 10 c0 -27 -20 -71
-43 -94 -11 -11 -17 -26 -14 -38 6 -22 -1 -48 -13 -48 -9 0 -6 43 9 105 5 22
9 32 10 23 1 -18 21 -26 21 -9 0 5 3 23 7 41 4 24 3 31 -5 26 -7 -4 -12 -2
-12 3 0 6 9 11 20 11 13 0 20 -7 20 -20z m790 -45 c0 -25 -4 -45 -10 -45 -11
0 -14 73 -3 83 11 12 13 8 13 -38z m-970 21 c0 -8 -4 -18 -10 -21 -5 -3 -10
-4 -10 -1 0 2 -3 11 -6 20 -4 11 -1 16 10 16 9 0 16 -6 16 -14z m-650 -11 c0
-8 -4 -15 -10 -15 -5 0 -10 7 -10 15 0 8 5 15 10 15 6 0 10 -7 10 -15z m690
-7 c0 -16 -3 -19 -11 -11 -6 6 -8 16 -5 22 11 17 16 13 16 -11z m-590 2 c0 -5
-4 -10 -10 -10 -5 0 -10 5 -10 10 0 6 5 10 10 10 6 0 10 -4 10 -10z m548 -121
c-5 -78 -3 -89 10 -84 12 4 13 3 3 -9 -14 -17 -5 -40 11 -30 6 4 9 1 6 -7 -3
-9 -17 -13 -41 -11 -29 3 -39 -1 -52 -22 -10 -15 -27 -26 -39 -26 -21 1 -21 1
-1 16 17 13 18 16 5 24 -23 15 -36 12 -70 -17 -28 -23 -32 -24 -29 -8 6 27 67
66 94 59 15 -4 31 4 55 26 32 30 33 35 32 98 0 36 2 70 4 74 13 21 16 0 12
-83z m882 67 c0 -25 -12 -46 -26 -46 -17 0 -17 2 -2 35 12 27 28 33 28 11z
m-1430 -101 l0 -94 28 1 c47 1 107 -27 110 -53 6 -39 33 -68 73 -81 57 -16
109 2 149 52 36 45 50 50 49 18 -1 -39 -34 -82 -81 -106 -42 -22 -51 -23 -100
-13 -34 7 -68 23 -91 42 -34 28 -37 34 -31 65 6 33 -7 47 -22 23 -8 -14 -55
-3 -71 17 -6 8 -22 16 -35 16 -25 2 -68 35 -68 53 0 7 9 20 20 30 16 15 22 15
35 5 13 -11 15 -4 15 54 0 37 4 66 10 66 6 0 10 -38 10 -95z m1520 82 c0 -23
-30 -56 -45 -51 -21 8 -19 21 5 27 11 3 20 12 20 21 0 9 5 16 10 16 6 0 10 -6
10 -13z m-1800 -13 c0 -8 -4 -12 -10 -9 -5 3 -10 10 -10 16 0 5 5 9 10 9 6 0
10 -7 10 -16z m-661 -20 c-14 -18 -24 -11 -15 11 3 9 11 13 16 10 8 -5 7 -11
-1 -21z m1252 -3 c13 -11 21 -23 17 -27 -5 -4 -17 1 -28 11 -14 13 -28 16 -54
11 -19 -4 -37 -12 -39 -19 -2 -7 -8 -9 -12 -5 -5 5 0 17 10 28 23 26 75 26
106 1z m1229 -15 c0 -21 -36 -61 -43 -49 -4 6 0 16 8 23 8 7 15 19 15 26 0 8
5 14 10 14 6 0 10 -6 10 -14z m-132 -39 c-14 -30 -38 -36 -38 -10 0 22 31 56
42 45 4 -4 2 -20 -4 -35z m-1120 -14 c3 -39 1 -43 -20 -43 -20 0 -23 5 -25 46
-1 41 0 45 20 42 18 -2 23 -11 25 -45z m335 5 c6 -18 -10 -58 -23 -58 -6 0 -8
5 -5 11 4 6 -1 17 -11 24 -18 13 -18 14 -1 15 9 0 17 5 17 10 0 14 17 12 23
-2z m-403 -8 c0 -5 -15 -17 -32 -26 -18 -9 -37 -23 -41 -30 -10 -18 -27 -18
-27 0 0 19 57 66 81 66 10 0 19 -4 19 -10z m136 -5 c4 -8 12 -15 19 -15 21 0
28 -19 10 -26 -16 -6 -65 30 -65 48 0 14 30 9 36 -7z m1108 -25 c-5 -5 -10 3
-11 18 -1 22 0 24 9 8 6 -10 6 -22 2 -26z m-108 -11 c1 -5 2 -16 3 -25 1 -13
4 -12 19 5 12 15 21 18 32 11 11 -7 12 -12 3 -18 -7 -5 -9 -13 -3 -21 4 -8 4
-25 -1 -38 -12 -31 -11 -46 0 -38 6 3 19 -5 30 -17 18 -19 21 -19 21 -4 0 18
43 66 60 66 5 0 10 -9 10 -20 0 -11 -5 -20 -12 -20 -27 0 -48 -34 -48 -76 0
-25 -11 -66 -24 -96 -19 -42 -32 -56 -58 -66 -51 -18 -79 -15 -120 13 -44 30
-58 71 -57 160 l1 60 14 -45 c7 -25 16 -61 19 -81 8 -55 25 -71 83 -77 l50 -4
21 40 c12 23 21 52 21 66 0 13 7 27 16 30 8 3 12 11 9 17 -4 6 -13 8 -21 5 -7
-3 -17 1 -21 9 -5 7 -24 31 -44 52 -30 33 -36 46 -34 76 2 20 6 41 10 47 7 12
19 5 21 -11z m-2291 1 c3 -5 1 -10 -4 -10 -6 0 -11 5 -11 10 0 6 2 10 4 10 3
0 8 -4 11 -10z m1160 -10 c3 -5 22 -10 41 -10 19 0 34 5 34 10 0 6 5 10 10 10
14 0 13 -33 -2 -48 -7 -7 -21 -12 -31 -12 -21 0 -77 37 -77 51 0 12 17 12 25
-1z m1225 -23 c0 -7 -6 -21 -13 -31 -12 -16 -13 -16 -14 6 -1 12 3 26 10 30
16 10 17 10 17 -5z m86 -23 c-5 -14 -9 -15 -19 -5 -9 9 -9 14 3 21 18 11 24 6
16 -16z m-54 -36 c-7 -7 -12 -8 -12 -2 0 14 12 26 19 19 2 -3 -1 -11 -7 -17z
m-1484 -57 c1 -39 -2 -72 -8 -76 -6 -4 -10 21 -10 69 0 95 14 100 18 7z m539
-403 c-1 -90 -3 -19 -3 157 0 176 2 249 3 163 2 -86 2 -230 0 -320z m-547 62
c-4 -164 -7 -194 -14 -149 -9 66 -1 314 13 358 5 18 6 -31 1 -209z m1670 25
c0 -10 -10 -15 -33 -15 -23 0 -34 5 -34 15 0 10 11 15 34 15 23 0 33 -5 33
-15z m-63 -41 c-3 -3 -12 -4 -19 -1 -8 3 -5 6 6 6 11 1 17 -2 13 -5z m46 -1
c-7 -2 -19 -2 -25 0 -7 3 -2 5 12 5 14 0 19 -2 13 -5z m-33 -33 c0 -5 8 -10
18 -10 13 -1 11 -4 -8 -15 -25 -14 -25 -14 15 -16 39 -1 39 -1 11 -9 -39 -12
-44 -23 -40 -81 2 -27 -1 -49 -6 -49 -6 0 -10 23 -10 50 0 54 -10 62 -43 33
-19 -17 -19 -17 -16 2 3 13 14 21 32 23 32 4 36 17 7 25 -11 3 -20 10 -20 16
0 6 9 11 20 11 22 0 27 15 8 23 -7 3 -3 6 10 6 12 1 22 -3 22 -9z m68 3 c-10
-2 -26 -2 -35 0 -10 3 -2 5 17 5 19 0 27 -2 18 -5z m-2555 -154 c20 -5 37 -15
37 -20 0 -6 -8 -8 -17 -5 -10 2 -28 7 -39 10 -12 4 -32 2 -45 -3 -14 -5 -69
-11 -124 -15 -71 -4 -91 -3 -70 4 17 5 55 10 85 11 30 1 60 5 65 9 10 7 38 16
60 19 6 0 27 -4 48 -10z m797 0 c14 0 -24 -8 -85 -15 -86 -12 -124 -12 -177
-3 -38 6 -68 14 -68 17 0 6 253 7 330 1z m430 -1 c0 -4 -42 -7 -92 -6 -88 1
-90 2 -33 8 83 9 125 8 125 -2z m107 5 c-11 -11 -67 -13 -67 -3 0 6 17 10 37
10 20 0 33 -3 30 -7z m373 -3 c22 -7 21 -8 -12 -9 -21 -1 -38 4 -38 9 0 11 14
11 50 0z m-1355 -20 c8 -12 -71 -12 -100 0 -14 6 -4 9 37 9 31 1 60 -3 63 -9z
m1908 3 c-23 -2 -64 -2 -90 0 -26 2 -7 3 42 3 50 0 71 -1 48 -3z m100 0 c-7
-2 -19 -2 -25 0 -7 3 -2 5 12 5 14 0 19 -2 13 -5z m-1434 -33 c49 0 55 17 9
23 -18 2 -1 4 37 5 47 0 63 -2 50 -8 -13 -6 7 -9 63 -9 53 -1 81 -5 77 -11 -7
-12 -271 -12 -355 0 l-55 7 53 2 c34 1 52 5 52 14 1 7 6 5 14 -5 9 -12 27 -18
55 -18z m-199 10 c0 -6 -26 -9 -62 -8 -62 1 -63 1 -18 8 69 11 80 11 80 0z
m608 3 c-10 -2 -26 -2 -35 0 -10 3 -2 5 17 5 19 0 27 -2 18 -5z m377 -2 c57
-12 10 -17 -55 -5 -61 11 -62 12 -20 12 25 0 59 -3 75 -7z m-1715 -10 c0 -6
-15 -11 -33 -11 -19 0 -37 -3 -40 -6 -11 -12 -217 -16 -217 -4 0 6 28 10 68
10 37 0 72 4 79 8 19 12 143 15 143 3z m434 -1 c-6 -6 -67 -13 -135 -15 l-124
-4 80 13 c102 17 193 20 179 6z m1172 -11 c6 -11 -7 -11 -58 -3 -21 4 -36 10
-34 13 6 9 85 1 92 -10z m724 17 c0 -11 -19 -15 -25 -6 -3 5 1 10 9 10 9 0 16
-2 16 -4z m50 -6 c0 -5 -9 -10 -20 -10 -11 0 -20 5 -20 10 0 6 9 10 20 10 11
0 20 -4 20 -10z m98 3 c-10 -2 -26 -2 -35 0 -10 3 -2 5 17 5 19 0 27 -2 18 -5z
m92 -3 c0 -5 -9 -10 -21 -10 -11 0 -17 5 -14 10 3 6 13 10 21 10 8 0 14 -4 14
-10z m-1975 -10 c4 -6 -19 -10 -62 -10 -48 0 -63 3 -53 10 20 13 107 13 115 0z
m-557 -17 c-15 -2 -42 -2 -60 0 -18 2 -6 4 27 4 33 0 48 -2 33 -4z m1281 -2
c10 -6 -18 -11 -79 -13 -120 -4 -200 1 -200 13 0 12 261 11 279 0z m86 -1 c-3
-5 -13 -10 -21 -10 -8 0 -14 5 -14 10 0 6 9 10 21 10 11 0 17 -4 14 -10z m925
0 c0 -6 -33 -9 -85 -8 -47 2 -85 6 -85 11 0 4 38 7 85 7 51 0 85 -4 85 -10z
m-672 -7 c-15 -2 -42 -2 -60 0 -18 2 -6 4 27 4 33 0 48 -2 33 -4z m105 0 c-13
-2 -35 -2 -50 0 -16 2 -5 4 22 4 28 0 40 -2 28 -4z m207 -3 c0 -6 -30 -10 -70
-10 -40 0 -70 4 -70 10 0 6 30 10 70 10 40 0 70 -4 70 -10z m358 -60 l292 0 0
-177 0 -176 -367 6 c-203 4 -851 7 -1442 8 -590 0 -1079 3 -1086 5 -9 4 -12
50 -14 176 l-1 171 1162 -6 c640 -4 1295 -7 1456 -7z"/>
<g>
<path d="M1346 5121 c-7 -11 22 -23 35 -15 5 3 7 10 4 15 -8 12 -32 12 -39 0z"/>
</g>
<g>
<path d="M1418 5095 c-23 -30 -22 -36 2 -63 14 -14 33 -22 55 -22 34 0 46 12
25 25 -6 4 -18 24 -27 46 -18 45 -31 48 -55 14z"/>
</g>
<g>
<path d="M1490 5114 c0 -4 10 -23 22 -42 l22 -35 12 34 c18 49 18 49 -21 49
-19 0 -35 -3 -35 -6z"/>
</g>
<g>
<path d="M1357 5025 c-5 -10 0 -15 14 -15 12 0 19 5 17 12 -6 18 -25 20 -31 3z"/>
</g>
<g>
<path d="M2880 4932 c-16 -13 -23 -29 -22 -52 1 -42 -24 -91 -83 -163 -26 -33
-40 -57 -32 -57 34 0 147 166 147 216 0 22 6 37 15 40 16 7 21 34 6 34 -5 0
-19 -8 -31 -18z"/>
</g>
<g>
<path d="M2693 4636 c-4 -8 -21 -16 -37 -18 -43 -5 -46 -28 -3 -28 33 0 67 24
67 48 0 17 -17 15 -27 -2z"/>
</g>
<g>
<path d="M2510 4586 c0 -9 9 -21 20 -28 11 -7 20 -21 20 -32 0 -10 16 -62 36
-115 20 -53 47 -132 59 -176 12 -44 38 -124 58 -177 19 -54 38 -117 42 -140 4
-24 14 -61 22 -83 9 -22 25 -77 37 -122 11 -46 26 -84 31 -85 19 -5 16 61 -5
129 -12 37 -34 118 -50 180 -25 95 -51 182 -100 337 -7 23 -6 34 6 47 13 15
13 23 0 75 -34 136 -42 159 -60 162 -20 4 -20 7 9 -90 10 -31 15 -62 12 -70
-2 -7 -8 1 -12 17 -4 17 -16 47 -26 67 -11 21 -19 51 -19 67 0 34 -2 36 -47
46 -26 5 -33 3 -33 -9z"/>
</g>
<g>
<path d="M2507 4454 c-3 -30 -10 -61 -16 -67 -12 -15 -35 -106 -29 -113 7 -7
45 104 53 156 4 25 11 53 17 63 6 12 5 17 -5 17 -10 0 -16 -17 -20 -56z"/>
</g>
<g>
<path d="M2421 4234 c0 -11 3 -14 6 -6 3 7 2 16 -1 19 -3 4 -6 -2 -5 -13z"/>
</g>
<g>
<path d="M1592 4901 c-45 -27 -85 -50 -88 -53 -7 -7 43 -39 78 -49 25 -7 29
-5 26 10 -2 10 8 33 22 52 40 53 61 89 53 88 -5 0 -45 -22 -91 -48z"/>
</g>
<g>
<path d="M1307 4870 c19 -38 39 -70 43 -70 10 0 80 40 80 46 0 2 -19 13 -42
25 -24 12 -57 32 -74 45 -17 13 -33 24 -36 24 -3 0 10 -31 29 -70z"/>
</g>
<g>
<path d="M1870 4896 c0 -16 28 -42 36 -33 8 7 -14 47 -26 47 -6 0 -10 -6 -10
-14z"/>
</g>
<g>
<path d="M1040 4881 c0 -20 13 -35 23 -25 7 8 -4 44 -14 44 -5 0 -9 -9 -9 -19z"/>
</g>
<g>
<path d="M1250 4875 c0 -8 5 -15 10 -15 6 0 10 7 10 15 0 8 -4 15 -10 15 -5 0
-10 -7 -10 -15z"/>
</g>
<g>
<path d="M1810 4877 c0 -8 7 -21 16 -28 14 -11 15 -10 12 11 -3 26 -28 41 -28
17z"/>
</g>
<g>
<path d="M1744 4849 c-7 -12 12 -29 34 -29 19 0 14 18 -7 30 -14 7 -22 7 -27
-1z"/>
</g>
<g>
<path d="M1660 4840 c0 -5 5 -10 10 -10 6 0 10 5 10 10 0 6 -4 10 -10 10 -5 0
-10 -4 -10 -10z"/>
</g>
<g>
<path d="M1402 4795 c-29 -20 -52 -43 -52 -53 0 -13 2 -14 9 -3 5 7 14 10 20
7 15 -9 14 -46 -1 -46 -6 0 -8 -3 -5 -7 9 -8 160 -4 168 5 4 4 10 21 13 38 7
29 4 34 -42 63 -27 17 -51 31 -53 31 -2 0 -28 -16 -57 -35z"/>
</g>
<g>
<path d="M1315 4699 c-9 -14 -2 -20 14 -10 8 6 9 11 3 15 -6 3 -14 1 -17 -5z"/>
</g>
<g>
<path d="M1230 4690 c-13 -8 -12 -10 3 -10 9 0 17 5 17 10 0 12 -1 12 -20 0z"/>
</g>
<g>
<path d="M1428 4648 c-29 -10 -32 -16 -22 -42 5 -12 10 -13 25 -5 11 5 35 7
54 3 28 -5 35 -3 35 9 0 8 6 17 13 20 6 2 10 7 7 9 -11 11 -86 15 -112 6z"/>
</g>
<g>
<path d="M1432 4581 c-8 -5 -12 -17 -10 -27 3 -15 10 -18 38 -15 35 3 50 15
50 39 0 14 -57 16 -78 3z m35 -17 c-3 -3 -12 -4 -19 -1 -8 3 -5 6 6 6 11 1 17
-2 13 -5z"/>
</g>
<g>
<path d="M1526 4541 c-9 -13 28 -41 42 -32 11 6 10 11 -3 25 -18 18 -31 20
-39 7z"/>
</g>
<g>
<path d="M1370 4526 c-13 -16 -7 -46 9 -46 12 0 22 43 12 53 -4 4 -14 1 -21
-7z"/>
</g>
<g>
<path d="M1837 4516 c-4 -10 -1 -13 9 -9 15 6 19 23 5 23 -5 0 -11 -7 -14 -14z"/>
</g>
<g>
<path d="M1502 4406 c-33 -46 -40 -70 -21 -82 6 -3 8 -17 4 -31 -3 -14 -1 -31
6 -39 9 -11 9 -17 0 -28 -17 -20 23 -46 71 -46 50 0 49 16 -2 24 -22 3 -40 11
-40 16 0 6 11 8 24 4 28 -7 81 20 90 45 3 9 9 22 12 29 3 7 -1 12 -10 12 -8 0
-21 -12 -28 -27 -10 -22 -21 -29 -51 -31 -31 -3 -37 0 -37 17 0 39 12 50 58
57 58 8 102 30 102 49 0 19 -5 19 -36 -2 -14 -9 -44 -20 -67 -23 -23 -4 -49
-9 -57 -11 -23 -6 -13 41 16 72 22 23 23 39 4 39 -4 0 -21 -20 -38 -44z"/>
</g>
<g>
<path d="M1340 4425 c0 -8 11 -22 24 -31 14 -8 30 -31 36 -50 13 -39 25 -44
33 -12 8 28 -4 49 -47 81 -40 31 -46 33 -46 12z"/>
</g>
<g>
<path d="M1550 4301 c0 -6 6 -11 13 -11 8 0 7 -4 -3 -10 -13 -8 -12 -10 3 -10
12 0 17 6 15 17 -3 18 -28 31 -28 14z"/>
</g>
<g>
<path d="M1561 4071 c-12 -7 -7 -13 22 -27 44 -21 62 -10 27 16 -29 22 -30 23
-49 11z"/>
</g>
<g>
<path d="M1060 3565 c0 -8 9 -15 20 -15 11 0 20 7 20 15 0 8 -9 15 -20 15 -11
0 -20 -7 -20 -15z"/>
</g>
<g>
<path d="M1657 3054 c-14 -15 -6 -34 14 -34 14 0 19 5 17 17 -3 18 -20 27 -31
17z"/>
</g>
<g>
<path d="M1451 3031 c-34 -9 -39 -31 -7 -31 13 0 28 -4 31 -10 3 -5 -1 -10 -9
-10 -9 0 -16 -4 -16 -10 0 -14 40 -12 68 3 l23 13 -25 27 c-26 29 -27 29 -65
18z"/>
</g>
<g>
<path d="M1707 3005 c-5 -10 0 -15 14 -15 12 0 19 5 17 12 -6 18 -25 20 -31 3z"/>
</g>
<g>
<path d="M1612 2998 c-18 -18 -14 -28 8 -28 11 0 20 6 20 14 0 21 -15 27 -28
14z"/>
</g>
<g>
<path d="M1507 2933 c-12 -11 -8 -23 8 -23 8 0 15 7 15 15 0 16 -12 20 -23 8z"/>
</g>
<g>
<path d="M1432 2892 c4 -19 29 -23 35 -6 2 6 -6 14 -17 17 -16 4 -20 1 -18
-11z"/>
</g>
<g>
<path d="M1794 3579 c-8 -14 5 -29 27 -29 14 0 19 6 17 17 -3 18 -35 27 -44
12z"/>
</g>
<g>
<path d="M1560 3800 c0 -5 5 -10 11 -10 5 0 7 5 4 10 -3 6 -8 10 -11 10 -2 0
-4 -4 -4 -10z"/>
</g>
<g>
<path d="M1870 2480 c-18 -16 -32 -32 -29 -34 9 -9 62 -18 57 -10 -3 5 0 15 8
22 8 7 14 10 14 7 0 -4 7 1 17 10 14 14 14 18 2 26 -22 14 -33 11 -69 -21z"/>
</g>
<g>
<path d="M1780 2370 c0 -5 11 -10 25 -10 14 0 25 5 25 10 0 6 -11 10 -25 10
-14 0 -25 -4 -25 -10z"/>
</g>
<g>
<path d="M1760 2320 c0 -34 10 -38 33 -12 24 26 21 42 -8 42 -21 0 -25 -5 -25
-30z"/>
</g>
<g>
<path d="M953 2566 c-26 -12 -31 -36 -8 -36 8 0 15 -4 15 -10 0 -5 15 -13 33
-18 56 -16 62 2 17 48 -16 16 -31 29 -32 29 -2 -1 -13 -6 -25 -13z"/>
</g>
<g>
<path d="M1040 2453 c0 -28 16 -47 33 -40 13 5 14 10 4 31 -14 29 -37 35 -37
9z"/>
</g>
<g>
<path d="M957 2373 c-13 -12 -7 -40 12 -57 25 -23 37 -4 21 35 -12 29 -21 35
-33 22z"/>
</g>
<g>
<path d="M2101 2536 c-16 -19 11 -40 41 -30 22 7 22 7 3 15 -18 7 -18 8 -2 8
24 1 12 21 -12 21 -10 0 -24 -6 -30 -14z"/>
</g>
<g>
<path d="M2675 2191 c-17 -7 -15 -9 15 -16 30 -7 32 -9 15 -16 -13 -5 -15 -8
-5 -8 21 -1 36 11 35 29 0 17 -31 23 -60 11z"/>
</g>
<g>
<path d="M430 2090 c0 -5 5 -10 10 -10 6 0 10 5 10 10 0 6 -4 10 -10 10 -5 0
-10 -4 -10 -10z"/>
</g>
<g>
<path d="M700 2090 c0 -5 5 -10 10 -10 6 0 10 5 10 10 0 6 -4 10 -10 10 -5 0
-10 -4 -10 -10z"/>
</g>
<g>
<path d="M360 2081 c0 -5 12 -23 26 -40 35 -42 92 -44 123 -5 22 28 27 54 11
54 -5 0 -10 -6 -10 -14 0 -21 -40 -46 -73 -46 -21 0 -32 8 -45 30 -17 29 -32
39 -32 21z"/>
</g>
<g>
<path d="M603 1758 c2 -7 10 -13 17 -13 7 0 15 6 18 13 2 7 -5 12 -18 12 -13
0 -20 -5 -17 -12z"/>
</g>
<g>
<path d="M580 1538 c30 -32 33 -52 27 -200 -6 -141 -18 -232 -38 -280 -9 -23
-9 -34 1 -53 11 -20 9 -38 -10 -115 -12 -50 -19 -94 -16 -97 3 -3 7 0 9 8 3 8
12 40 21 72 10 32 16 83 15 115 -1 31 6 84 15 117 10 35 20 125 25 218 4 88
12 162 17 165 18 13 54 72 45 72 -6 0 -22 -11 -38 -24 l-28 -24 -22 24 c-12
13 -27 24 -33 24 -6 0 -1 -10 10 -22z"/>
</g>
<g>
<path d="M526 758 c-9 -37 -7 -128 4 -128 6 0 10 32 10 75 0 78 -3 91 -14 53z"/>
</g>
<g>
<path d="M2000 2200 c0 -5 5 -10 10 -10 6 0 10 5 10 10 0 6 -4 10 -10 10 -5 0
-10 -4 -10 -10z"/>
</g>
<g>
<path d="M2420 2164 c0 -14 4 -23 10 -19 6 3 10 15 10 26 0 10 -4 19 -10 19
-5 0 -10 -12 -10 -26z"/>
</g>
<g>
<path d="M2000 2143 c0 -12 5 -25 10 -28 13 -8 13 15 0 35 -8 12 -10 11 -10
-7z"/>
</g>
<g>
<path d="M2320 2108 c0 -4 11 -8 24 -8 14 0 27 4 30 8 3 5 -8 8 -25 8 -16 0
-29 -3 -29 -8z"/>
</g>
<g>
<path d="M2550 2000 c0 -5 11 -10 25 -10 14 0 25 5 25 10 0 6 -11 10 -25 10
-14 0 -25 -4 -25 -10z"/>
</g>
<g>
<path d="M2202 1789 c2 -7 14 -14 27 -16 15 -2 21 1 19 9 -3 7 -15 15 -27 16
-15 3 -22 -1 -19 -9z"/>
</g>
<g>
<path d="M1656 1663 c-9 -9 -7 -33 3 -33 12 0 22 28 12 34 -5 3 -11 3 -15 -1z"/>
</g>
<g>
<path d="M2130 1660 c0 -14 86 -70 108 -70 27 0 52 10 52 21 0 5 -13 6 -29 3
-29 -6 -111 29 -111 48 0 4 -4 8 -10 8 -5 0 -10 -4 -10 -10z"/>
</g>
<g>
<path d="M2291 1054 c0 -11 3 -14 6 -6 3 7 2 16 -1 19 -3 4 -6 -2 -5 -13z"/>
</g>
<g>
<path d="M2133 1030 c4 -18 7 -36 7 -41 0 -5 4 -9 8 -9 11 0 2 69 -11 77 -7 4
-8 -5 -4 -27z"/>
</g>
<g>
<path d="M2166 1031 c-4 -7 -5 -15 -2 -18 9 -9 19 4 14 18 -4 11 -6 11 -12 0z"/>
</g>
<g>
<path d="M2311 1004 c0 -11 3 -14 6 -6 3 7 2 16 -1 19 -3 4 -6 -2 -5 -13z"/>
</g>
<g>
<path d="M2640 1731 c0 -5 5 -22 10 -37 13 -33 34 -20 28 17 -3 23 -38 41 -38
20z"/>
</g>
<g>
<path d="M2710 1680 c0 -5 5 -10 10 -10 6 0 10 5 10 10 0 6 -4 10 -10 10 -5 0
-10 -4 -10 -10z"/>
</g>
<g>
<path d="M935 1470 c-7 -12 2 -30 16 -30 12 0 12 27 0 35 -5 3 -12 1 -16 -5z"/>
</g>
<g>
<path d="M1007 1354 c-7 -7 14 -44 25 -44 5 0 8 6 8 14 0 16 -24 38 -33 30z"/>
</g>
<g>
<path d="M1127 1244 c-9 -10 4 -34 19 -34 8 0 14 4 14 9 0 12 -26 32 -33 25z"/>
</g>
<g>
<path d="M1230 1170 c0 -5 7 -10 15 -10 8 0 15 5 15 10 0 6 -7 10 -15 10 -8 0
-15 -4 -15 -10z"/>
</g>
<g>
<path d="M2808 763 c7 -3 16 -2 19 1 4 3 -2 6 -13 5 -11 0 -14 -3 -6 -6z"/>
</g>
<g>
<path d="M2758 653 c7 -3 16 -2 19 1 4 3 -2 6 -13 5 -11 0 -14 -3 -6 -6z"/>
</g>
<g>
<path d="M523 333 c-102 -3 -113 -5 -113 -22 0 -25 31 -36 46 -17 6 9 23 16
38 16 26 0 26 0 26 -79 0 -44 -5 -83 -10 -86 -20 -13 2 -25 46 -25 42 0 59 12
32 23 -10 3 -12 26 -8 83 5 73 7 79 28 82 14 2 29 -4 37 -15 13 -17 14 -17 20
0 9 22 -1 48 -17 45 -7 -1 -64 -4 -125 -5z"/>
</g>
<g>
<path d="M705 225 l0 -105 32 0 c30 0 32 2 27 28 -13 66 -13 67 39 70 l49 3
-3 -48 c-3 -47 -3 -47 31 -54 41 -9 57 -2 35 15 -14 10 -17 27 -14 104 l4 92
-26 0 c-25 0 -27 -3 -25 -42 l1 -43 -47 -2 -48 -2 0 44 c0 42 -2 45 -27 45
l-28 0 0 -105z"/>
</g>
<g>
<path d="M952 243 c-1 -48 -5 -96 -8 -105 -5 -16 3 -18 68 -18 72 1 108 14
108 39 0 6 -7 11 -15 11 -8 0 -15 -4 -15 -10 0 -11 -77 -14 -83 -2 -2 4 0 21
3 37 6 24 8 27 14 13 11 -25 26 -22 26 5 0 29 -15 51 -29 43 -7 -5 -11 3 -11
23 0 29 2 30 33 24 17 -3 38 -11 45 -16 11 -9 13 -6 10 13 -3 24 -7 25 -73 28
l-70 3 -3 -88z"/>
</g>
<g>
<path d="M1400 321 c0 -5 7 -12 16 -15 13 -5 15 -21 12 -96 -2 -66 0 -90 9
-90 7 0 46 5 87 11 85 13 113 34 123 93 7 43 -13 71 -64 92 -36 15 -183 19
-183 5z m168 -43 c18 -18 14 -80 -6 -104 -9 -12 -29 -24 -44 -26 -31 -6 -38 9
-38 90 l0 52 38 0 c21 0 43 -5 50 -12z"/>
</g>
<g>
<path d="M1670 321 c0 -5 7 -12 16 -15 13 -5 15 -20 13 -79 -1 -39 -7 -77 -12
-84 -17 -23 4 -31 73 -29 56 3 74 7 84 22 20 27 8 38 -20 19 -14 -9 -39 -15
-57 -13 -29 3 -32 6 -33 36 -1 32 16 57 24 34 7 -21 30 -13 34 12 8 39 -7 54
-30 33 -19 -17 -20 -17 -26 9 -8 31 -9 29 27 38 24 6 30 3 34 -14 3 -11 9 -20
13 -20 12 0 23 38 15 50 -8 12 -155 13 -155 1z"/>
</g>
<g>
<path d="M1867 323 c-4 -3 2 -12 12 -20 21 -14 61 -126 61 -168 0 -23 4 -25
40 -25 22 0 40 5 40 10 0 6 -4 10 -10 10 -16 0 -12 19 19 84 43 92 45 103 21
109 -15 4 -19 0 -18 -16 1 -27 -38 -117 -50 -117 -11 0 -32 76 -32 114 0 23
-4 26 -38 26 -21 0 -42 -3 -45 -7z"/>
</g>
<g>
<path d="M2140 326 c0 0 -1 -49 -3 -108 l-2 -108 32 0 c33 0 46 21 22 36 -8 4
-9 33 -4 89 l7 82 -26 5 c-14 3 -26 5 -26 4z"/>
</g>
<g>
<path d="M2253 317 c-3 -5 0 -14 6 -20 14 -14 15 -164 1 -172 -22 -13 3 -25
53 -25 71 0 92 7 107 36 18 32 8 39 -20 14 -13 -11 -34 -20 -46 -20 -30 0 -38
31 -30 113 4 34 6 67 4 72 -4 12 -68 13 -75 2z"/>
</g>
<g>
<path d="M2600 135 c0 -22 4 -26 23 -23 14 2 22 10 22 23 0 13 -8 21 -22 23
-19 3 -23 -1 -23 -23z"/>
</g>
</g>
</g>
</svg>
