<?xml version="1.0" standalone="no"?>
<!DOCTYPE svg PUBLIC "-//W3C//DTD SVG 20010904//EN"
 "http://www.w3.org/TR/2001/REC-SVG-20010904/DTD/svg10.dtd">
<svg version="1.0" xmlns="http://www.w3.org/2000/svg"
 width="300.000000pt" height="525.000000pt" viewBox="0 0 300.000000 525.000000"
 preserveAspectRatio="xMidYMid meet">
<metadata>
Created by potrace 1.15, written by Peter Selinger 2001-2017
</metadata>
<g transform="translate(0.000000,525.000000) scale(0.100000,-0.100000)"
fill="#000000" stroke="none">
<g>
<path d="M2 3633 c2 -982 4 -1257 5 -699 3 869 4 918 21 910 36 -18 119 -10
151 13 42 32 49 11 9 -27 -38 -35 -64 -44 -113 -38 -26 3 -35 0 -35 -10 0 -22
104 -11 131 14 l22 19 -7 -60 c-19 -164 -23 -192 -35 -219 -6 -16 -13 -59 -15
-96 -1 -37 -6 -73 -11 -80 -8 -12 -20 -273 -17 -380 4 -191 3 -264 -3 -307 -4
-31 -2 -59 6 -78 12 -29 19 -145 18 -306 0 -51 5 -89 17 -115 11 -26 16 -60
15 -104 -2 -61 10 -104 47 -170 26 -45 32 -63 32 -93 0 -18 5 -38 12 -45 6 -6
10 -13 7 -15 -10 -9 -129 -14 -135 -6 -3 5 -15 9 -27 9 -22 -1 -22 -1 -3 -15
19 -15 19 -15 -1 -15 -23 0 -50 -27 -38 -38 4 -4 10 -1 12 6 3 6 16 12 29 12
14 0 41 7 61 15 45 19 74 19 99 0 18 -14 17 -15 -18 -9 -61 10 -69 -9 -9 -21
54 -10 54 -10 68 -60 8 -27 23 -57 34 -67 10 -9 19 -27 19 -41 0 -13 11 -39
25 -58 31 -44 51 -78 59 -106 11 -34 -19 -30 -53 8 -32 35 -108 61 -151 52
-36 -7 -80 -46 -80 -70 1 -13 5 -11 16 9 8 15 23 32 34 38 44 24 125 3 169
-44 14 -15 41 -29 60 -32 61 -10 114 -68 93 -102 -12 -19 -146 -45 -239 -47
-46 -1 -83 -5 -83 -9 0 -3 0 -13 0 -21 0 -8 7 -15 15 -15 8 0 15 5 15 11 0 8
5 7 15 -1 23 -19 75 -21 75 -3 0 12 3 13 13 4 10 -7 24 -8 48 -1 24 8 40 7 57
-2 19 -10 25 -9 32 2 6 10 11 4 18 -21 5 -19 14 -33 20 -32 6 2 9 -4 6 -12 -9
-22 20 -29 61 -15 54 18 77 7 160 -75 84 -82 148 -125 188 -125 28 0 49 -21
28 -28 -22 -7 -51 -41 -51 -60 0 -13 5 -11 23 11 25 31 67 43 98 27 19 -11 19
-12 -13 -33 -22 -15 -34 -32 -36 -51 -2 -18 0 -26 7 -21 6 3 11 15 11 25 0 22
46 50 81 50 35 0 89 -23 89 -37 0 -7 9 -13 19 -13 10 0 22 -7 25 -16 24 -63
-34 -134 -126 -154 -52 -12 -59 -11 -91 9 -42 26 -55 15 -32 -29 12 -24 13
-35 4 -53 -16 -30 -28 -37 -67 -37 -18 0 -42 -4 -52 -10 -26 -14 -108 3 -133
28 -17 18 -19 25 -9 44 11 23 11 23 11 1 1 -12 13 -31 27 -42 28 -22 64 -28
64 -11 0 6 17 10 38 10 39 0 72 23 72 50 0 9 -8 6 -23 -8 -37 -35 -105 -23
-124 21 -5 11 -12 16 -16 11 -3 -6 0 -22 8 -37 8 -15 10 -27 5 -27 -16 0 -41
46 -34 64 5 12 2 15 -10 10 -10 -4 -16 -1 -16 9 0 16 20 27 48 27 19 0 87 39
80 45 -2 3 -22 -5 -44 -16 -28 -14 -51 -19 -81 -16 -39 4 -60 -6 -32 -15 16
-5 14 -69 -2 -79 -8 -5 -31 -9 -53 -9 -29 0 -43 -6 -58 -25 -11 -14 -28 -25
-39 -25 -18 0 -18 1 1 35 11 19 16 35 11 35 -13 0 -32 -26 -24 -33 3 -4 -9 -7
-28 -7 -39 0 -59 15 -59 42 0 11 7 18 20 18 11 0 20 7 20 15 0 8 3 15 8 15 11
0 34 58 29 72 -2 7 0 27 6 43 5 17 11 59 13 95 2 36 6 79 10 96 5 29 8 30 52
29 26 -1 53 3 60 8 6 5 12 6 12 3 0 -4 10 0 22 8 12 9 30 16 40 16 10 0 18 4
18 9 0 20 -21 21 -61 3 -54 -25 -124 -14 -154 23 -27 32 -32 32 -27 -3 3 -25
0 -29 -35 -38 -54 -13 -66 -43 -49 -117 7 -31 11 -57 8 -57 -2 0 1 -6 7 -14
18 -22 2 -46 -30 -46 -20 0 -29 5 -29 16 0 25 -44 13 -48 -13 -3 -17 3 -26 22
-33 58 -22 19 -41 -74 -37 -64 3 -115 36 -104 70 7 21 -22 48 -43 40 -17 -7
-16 8 3 35 18 26 8 29 -18 5 -17 -15 -18 -15 -18 8 0 14 5 30 12 37 16 16 -4
16 -21 0 -14 -13 -14 -9 4 35 4 8 -5 18 -20 25 -27 12 -34 32 -11 32 17 0 26
22 31 72 4 36 3 38 -24 38 -32 0 -56 -22 -47 -45 3 -8 15 -15 26 -15 27 0 25
-16 -5 -36 -25 -16 -25 -17 -24 -173 0 -121 3 -150 11 -131 9 20 12 22 15 8 3
-10 -3 -28 -11 -40 -11 -15 -16 -44 -15 -88 0 -36 3 -59 6 -52 2 6 9 10 14 6
14 -8 11 -24 -6 -24 -8 0 -15 -7 -15 -16 0 -14 137 -15 1478 -9 1405 7 1479 6
1496 -11 13 -12 16 -26 12 -47 -3 -16 -6 -95 -6 -176 l0 -146 -1485 -3 -1484
-4 -4 149 -3 148 -2 -158 -2 -158 1500 3 1500 3 -1 495 c0 286 -4 487 -9 475
-7 -17 -9 -15 -9 13 -1 17 4 32 9 32 13 0 12 387 -1 395 -5 4 -9 21 -8 38 0
27 2 29 9 12 6 -14 9 3 9 53 1 68 0 72 -21 72 -21 -1 -22 -2 -5 -14 22 -17 22
-27 0 -19 -17 6 -17 5 0 -14 9 -11 17 -28 17 -39 -1 -16 -3 -14 -15 7 -8 14
-28 32 -45 39 -32 13 -131 16 -181 5 -44 -10 -35 10 14 30 23 10 37 20 30 22
-21 8 -81 -27 -87 -50 -3 -12 -15 -28 -26 -35 -17 -10 -21 -10 -26 3 -11 27
11 87 38 108 31 23 107 34 136 18 17 -9 21 -8 24 6 2 12 -9 24 -35 37 -21 10
-44 31 -52 47 -18 34 -15 97 6 130 10 15 13 31 9 44 -7 18 -9 18 -15 3 -4 -9
-4 -22 0 -28 3 -5 2 -10 -3 -10 -12 0 -34 59 -27 71 3 4 12 6 19 3 9 -4 15 7
20 35 7 44 44 81 82 81 29 0 38 14 24 40 -30 57 26 171 90 183 16 4 30 11 30
17 0 15 -20 12 -66 -9 -56 -26 -89 -80 -90 -150 0 -52 -9 -65 -44 -70 -3 -1
-4 34 -2 77 1 42 3 95 2 116 0 22 4 55 10 74 5 21 5 43 -1 60 -7 19 -6 36 6
64 17 42 19 122 6 181 -6 26 -4 65 5 120 12 66 13 93 3 139 -9 45 -9 64 1 88
13 31 12 43 -10 235 -6 44 -14 127 -20 185 -6 58 -19 139 -31 180 -11 41 -28
102 -36 135 -9 33 -20 64 -25 70 -4 5 -8 25 -8 45 0 19 -6 47 -14 61 -7 15
-13 38 -13 52 0 14 -11 47 -23 72 -13 26 -24 61 -25 79 -2 39 -66 175 -94 200
-11 10 -24 35 -27 55 -9 50 -28 84 -64 114 -16 14 -30 34 -30 45 0 33 -41 73
-107 103 -34 17 -63 36 -63 44 0 34 -132 115 -189 115 -8 0 -36 14 -63 31 -43
28 -48 35 -48 68 1 47 20 71 58 71 34 0 42 14 47 79 6 83 69 134 166 133 32 0
59 3 59 8 0 5 19 20 42 34 41 24 50 25 228 26 101 0 186 3 189 5 2 3 -611 5
-1362 5 l-1367 0 2 -1617z m381 1597 c-33 -13 -28 -21 8 -13 17 3 40 0 55 -7
13 -7 27 -11 30 -7 3 3 -7 12 -23 21 -28 15 -27 15 36 16 61 0 64 -1 45 -16
-17 -14 -17 -15 -1 -10 10 3 35 0 56 -8 32 -10 41 -10 57 1 24 17 63 17 109
-3 20 -8 40 -13 42 -10 3 3 -6 10 -20 15 -70 27 -33 31 240 26 252 -4 1020 -6
1068 -3 11 1 57 1 103 0 79 -2 82 -3 72 -22 -9 -16 -21 -20 -65 -20 -74 0
-132 -32 -163 -91 -15 -29 -22 -55 -18 -75 5 -38 -8 -54 -45 -54 -34 0 -59
-32 -59 -77 0 -31 -1 -32 -22 -22 -13 7 -31 16 -41 21 -32 16 -149 25 -193 16
-34 -8 -48 -6 -66 6 -12 9 -36 16 -53 16 -23 0 -35 7 -48 30 -23 38 -39 38
-71 -1 -27 -32 -33 -54 -16 -64 6 -3 10 -15 10 -26 0 -10 5 -19 11 -19 5 0 7
-4 4 -10 -7 -11 -101 44 -108 63 -3 7 -24 19 -47 26 -43 13 -86 8 -130 -14
-32 -16 -99 -45 -105 -45 -2 0 -5 12 -7 27 -4 36 -59 73 -108 73 -30 0 -39 -5
-49 -26 -10 -22 -14 -24 -26 -14 -13 11 -14 10 -9 -4 9 -22 35 -20 41 4 13 48
117 22 136 -34 12 -37 -12 -62 -80 -82 -29 -8 -60 -22 -68 -31 -9 -8 -35 -21
-59 -28 -48 -15 -126 -60 -126 -74 0 -4 -28 -38 -62 -74 -135 -143 -164 -178
-182 -224 -11 -27 -23 -50 -26 -53 -16 -12 -81 -112 -76 -117 3 -3 -4 -22 -15
-41 -10 -20 -19 -42 -19 -49 0 -6 -11 -33 -25 -59 -14 -26 -25 -58 -25 -71 0
-16 -8 -27 -27 -34 -16 -7 -23 -13 -16 -16 24 -9 13 -33 -28 -62 -54 -40 -90
-46 -134 -25 l-36 17 3 256 c3 311 10 480 21 464 4 -7 21 -10 39 -8 18 2 38
-1 44 -6 10 -8 12 3 11 50 -2 45 -7 65 -23 83 -12 13 -28 40 -35 61 -7 20 -17
37 -22 37 -5 0 -6 -7 -3 -16 3 -9 6 -19 6 -24 0 -5 10 -21 23 -37 25 -31 32
-70 18 -92 -8 -12 -12 -12 -25 -2 -20 17 -21 35 -1 27 17 -6 21 9 4 20 -6 3
-18 -1 -27 -10 -14 -13 -14 -20 -4 -36 10 -17 10 -20 -4 -20 -14 0 -15 10 -10
78 3 42 5 84 5 92 -5 77 2 128 25 187 46 120 107 165 236 173 l85 6 -60 8
c-100 15 -209 -30 -245 -99 -8 -17 -18 -31 -22 -33 -5 -2 -8 -12 -8 -22 0 -10
-5 -22 -10 -25 -6 -4 -10 40 -10 124 l0 131 193 -1 c125 0 184 -3 170 -9z
m264 -5 c-21 -11 -34 -12 -48 -5 -29 16 -23 20 29 20 l47 0 -28 -15z m793
-286 c0 -6 9 -8 20 -4 29 9 26 -24 -4 -52 l-23 -22 -13 23 c-12 24 -6 66 11
66 5 0 9 -5 9 -11z m-160 -23 c0 -11 -19 -15 -25 -6 -3 5 1 10 9 10 9 0 16 -2
16 -4z m285 -17 c12 -18 -1 -20 -31 -4 l-29 15 27 0 c15 0 30 -5 33 -11z
m-330 -19 c5 -8 11 -7 21 1 11 9 14 7 14 -14 0 -30 26 -44 33 -17 3 13 0 17
-9 13 -8 -3 -14 0 -14 6 0 16 25 13 40 -4 7 -8 19 -14 28 -13 9 2 16 -5 17
-20 1 -15 -3 -21 -14 -20 -10 2 -15 -4 -15 -15 2 -17 0 -17 -22 -2 -13 8 -24
11 -24 5 0 -5 3 -10 8 -10 4 0 12 -11 19 -25 6 -14 7 -25 3 -25 -5 0 -11 6
-13 13 -4 9 -8 8 -16 -3 -9 -13 -11 -12 -11 4 0 11 -8 28 -17 39 -17 19 -17
20 0 14 11 -4 17 -1 17 7 0 8 -11 17 -25 20 -14 4 -25 12 -25 20 0 7 -10 18
-22 24 l-23 11 22 0 c12 1 25 -4 28 -9z m295 -10 c0 -12 -71 -43 -79 -34 -9 9
39 44 60 44 10 0 19 -4 19 -10z m-334 -26 c53 -25 40 -34 -18 -12 -29 11 -55
22 -57 24 -11 11 45 2 75 -12z m690 7 c5 -5 25 -14 44 -20 52 -17 82 -43 70
-61 -8 -13 -13 -11 -32 11 -13 15 -42 35 -65 45 -24 10 -43 21 -43 26 0 11 14
10 26 -1z m-273 -8 c-15 -5 -18 -33 -4 -33 5 0 26 7 47 16 l39 15 -30 -25
c-16 -14 -38 -25 -47 -26 -10 0 -17 -4 -15 -9 1 -5 -17 -23 -40 -40 -24 -17
-43 -38 -43 -46 0 -8 -4 -15 -9 -15 -4 0 -25 -11 -45 -25 -43 -29 -86 -42 -86
-26 0 6 12 14 28 17 39 10 44 14 32 29 -8 10 -6 18 11 33 21 20 19 42 -4 42
-7 -1 -27 -21 -46 -46 -23 -33 -36 -43 -44 -35 -7 7 -5 16 8 31 14 16 15 22 5
35 -10 12 -10 15 4 15 9 0 25 9 36 20 12 12 26 18 32 14 6 -4 8 -3 5 3 -4 6 5
15 21 21 39 13 47 13 44 -4 -3 -13 1 -13 20 -3 13 7 34 20 47 30 13 11 29 19
35 18 7 0 6 -3 -1 -6z m275 -33 c22 -13 27 -18 13 -14 -20 5 -23 3 -17 -11 5
-15 2 -16 -21 -10 -14 3 -38 15 -51 26 -14 10 -31 19 -38 19 -8 0 -14 5 -14
11 0 17 83 3 128 -21z m-768 10 c17 -11 17 -11 -40 -31 -25 -9 -54 -20 -65
-24 -16 -5 -15 -3 5 14 14 11 31 21 38 21 6 0 12 7 12 15 0 17 27 20 50 5z
m-112 -7 c-17 -37 -46 -74 -60 -79 -10 -3 -25 -12 -33 -20 -10 -10 -20 -12
-31 -6 -15 8 -14 11 7 25 12 9 20 20 16 23 -4 4 -13 1 -22 -6 -9 -7 -18 -10
-21 -8 -9 9 49 45 83 53 18 3 35 11 38 16 7 11 28 12 23 2z m768 -17 c29 -22
12 -28 -45 -14 -33 7 -47 14 -39 20 20 12 62 9 84 -6z m-616 -13 c-1 -12 -103
-73 -122 -73 -26 0 -22 9 10 22 l27 12 -25 4 c-21 4 -16 8 30 23 61 20 80 23
80 12z m65 -2 c6 -11 -33 -36 -42 -27 -7 7 16 36 28 36 4 0 10 -4 14 -9z m528
-31 c45 -12 64 -30 32 -30 -21 0 -19 -18 3 -23 9 -3 4 -5 -13 -6 -22 -1 -33 5
-40 21 -6 12 -21 25 -34 28 -14 3 -27 12 -29 19 -3 9 2 11 14 8 11 -3 40 -10
67 -17z m177 10 c0 -5 -2 -10 -4 -10 -3 0 -8 5 -11 10 -3 6 -1 10 4 10 6 0 11
-4 11 -10z m210 -21 c32 -17 61 -38 64 -46 4 -10 -2 -8 -22 6 -30 21 -82 38
-82 27 0 -4 15 -13 33 -21 l32 -14 -32 -1 c-42 0 -99 46 -82 66 16 20 24 18
89 -17z m-1120 -3 c0 -3 -4 -8 -10 -11 -5 -3 -10 -1 -10 4 0 6 5 11 10 11 6 0
10 -2 10 -4z m224 -23 l-5 -28 20 23 c12 14 22 18 26 12 9 -14 -23 -50 -45
-50 -9 0 -21 -5 -28 -12 -25 -25 -22 2 5 41 15 22 29 40 31 41 1 0 0 -12 -4
-27z m672 11 c45 -21 54 -37 17 -29 l-28 7 25 -21 25 -21 -55 6 c-30 3 -57 8
-60 10 -2 3 -5 19 -6 35 -1 25 2 29 23 29 14 0 40 -7 59 -16z m97 0 c42 -22
42 -21 24 -39 -22 -21 -29 -19 -60 20 -32 40 -19 47 36 19z m-1179 -10 c7 -19
-21 -45 -81 -75 -52 -25 -83 -20 -33 6 20 10 29 20 22 23 -7 2 -19 -2 -27 -8
-24 -20 -17 5 8 28 42 39 101 53 111 26z m374 4 c-7 -19 -79 -65 -113 -72
l-30 -7 25 21 c14 11 31 20 38 20 15 0 17 20 2 20 -6 0 -24 -7 -40 -15 -17 -9
-30 -11 -30 -5 0 5 17 18 38 29 42 23 116 28 110 9z m461 6 c38 -8 41 -24 4
-25 -28 0 -28 0 -5 -10 13 -5 28 -7 33 -3 5 3 9 0 9 -5 0 -20 -81 -15 -93 5
-4 8 -15 14 -22 14 -16 0 -20 12 -8 23 8 9 41 9 82 1z m-659 -36 c49 8 -4 -39
-84 -75 -29 -13 -66 -9 -66 6 0 15 43 63 74 82 29 18 32 18 44 1 7 -9 22 -16
32 -14z m-142 -18 c-13 -21 -38 -27 -38 -10 0 9 28 29 43 30 4 0 2 -9 -5 -20z
m424 -12 c-9 -9 -12 -7 -12 12 0 19 3 21 12 12 9 -9 9 -15 0 -24z m339 -40
c26 -26 41 -48 34 -48 -8 0 -17 5 -20 10 -3 6 -19 10 -34 10 -16 0 -34 6 -40
14 -10 12 -8 13 8 9 30 -8 27 21 -4 35 -14 6 -25 16 -25 21 0 19 33 -2 81 -51z
m236 25 c52 -25 55 -28 33 -34 -25 -6 -23 -8 20 -22 8 -3 1 -6 -17 -6 -42 -1
-63 8 -63 27 0 9 -10 26 -22 39 -28 30 -21 29 49 -4z m347 -25 c32 -34 45 -53
36 -56 -7 -3 -17 4 -23 14 -13 23 -44 54 -77 76 -22 15 -23 17 -6 17 11 1 42
-22 70 -51z m-696 24 c-30 -6 -26 -28 8 -51 19 -13 33 -26 31 -28 -6 -5 -81
28 -88 40 -9 13 42 57 56 49 6 -4 3 -8 -7 -10z m257 6 c35 -16 32 -32 -5 -24
-38 7 -39 -6 -2 -21 24 -10 22 -11 -18 -6 -49 6 -94 29 -85 43 3 5 12 7 20 4
7 -3 22 -1 32 5 23 13 27 13 58 -1z m260 -19 l30 -20 -32 6 c-28 6 -31 4 -26
-14 7 -28 -3 -26 -45 6 -32 24 -33 27 -16 34 33 13 58 10 89 -12z m98 10 c29
-15 67 -50 67 -62 0 -5 -7 -4 -15 3 -20 17 -32 5 -15 -15 10 -12 9 -15 -6 -15
-33 1 -84 56 -84 91 0 12 27 11 53 -2z m-1296 -14 c4 -11 -12 -33 -48 -65 -29
-28 -56 -50 -61 -50 -13 0 -9 17 7 30 8 7 15 18 15 24 -1 12 -45 -35 -53 -56
-2 -7 -8 -10 -12 -6 -15 14 14 56 65 97 55 44 77 50 87 26z m207 2 l25 -14
-29 -21 c-34 -26 -48 -29 -30 -7 24 29 0 29 -30 0 -28 -27 -30 -27 -30 -8 0
13 13 29 33 42 38 25 30 24 61 8z m186 6 c0 -2 -23 -15 -52 -29 -33 -17 -54
-22 -56 -15 -2 6 -11 11 -20 11 -10 1 -2 9 18 19 28 15 110 25 110 14z m1080
-24 c47 -21 86 -56 75 -67 -3 -3 -10 0 -16 8 -8 13 -10 13 -19 0 -7 -12 -12
-12 -22 -2 -6 6 -20 12 -30 12 -10 0 -18 6 -18 13 0 7 -9 18 -20 25 -22 14
-27 32 -7 32 6 0 32 -10 57 -21z m-948 -11 c-6 -6 -15 -8 -19 -4 -4 4 -1 11 7
16 19 12 27 3 12 -12z m-678 -29 c-15 -16 -30 -27 -32 -24 -2 2 -19 -7 -37
-20 -33 -26 -55 -32 -55 -15 0 6 8 10 18 10 18 1 52 22 52 34 0 3 -7 6 -15 6
-8 0 -15 -4 -15 -9 0 -5 -8 -12 -17 -15 -14 -6 -14 -3 3 15 31 35 72 57 100
51 l25 -5 -27 -28z m551 21 c-10 -11 -25 -20 -34 -20 -12 1 -10 5 8 20 30 26
49 26 26 0z m227 -34 c3 -13 -1 -35 -9 -47 -13 -23 -14 -23 -8 8 4 18 2 34 -4
38 -6 3 -11 -1 -11 -9 0 -8 -5 -18 -11 -22 -8 -4 -9 4 -4 27 4 19 9 38 12 42
8 13 30 -11 35 -37z m-542 8 c0 -18 -65 -84 -82 -84 -6 0 -6 6 2 15 7 9 10 19
6 22 -4 4 -18 -6 -31 -22 -19 -24 -24 -26 -25 -12 0 25 18 59 44 79 28 23 86
24 86 2z m916 -4 c0 -23 -18 -26 -35 -6 -9 11 -9 15 1 19 25 10 34 7 34 -13z
m174 -17 c0 -3 -7 -3 -15 0 -8 4 -17 2 -20 -3 -3 -4 1 -11 7 -13 9 -4 8 -6 -3
-6 -8 -1 -24 6 -35 14 -19 15 -19 15 0 29 16 13 21 13 42 -1 13 -8 24 -18 24
-20z m-970 14 c0 -12 -40 -38 -58 -37 -6 1 49 50 56 50 1 0 2 -6 2 -13z m342
-15 c-3 -21 24 -80 42 -94 10 -7 66 69 66 90 0 15 1 15 60 -4 51 -16 101 -15
175 4 21 6 44 7 50 3 19 -15 56 -19 87 -10 22 6 36 5 46 -4 8 -6 32 -21 52
-32 114 -60 240 -156 240 -183 0 -25 56 -136 80 -157 29 -26 52 -80 56 -132 4
-50 32 -118 63 -150 11 -12 24 -41 27 -65 4 -24 11 -49 17 -56 14 -17 28 -99
31 -182 1 -36 9 -76 16 -90 8 -14 12 -51 11 -91 -1 -38 4 -84 13 -110 10 -29
16 -81 16 -149 0 -58 4 -121 10 -140 7 -24 6 -60 -2 -116 -10 -71 -10 -87 5
-126 15 -38 16 -53 6 -98 -6 -29 -9 -75 -6 -100 4 -29 0 -67 -9 -96 -8 -28
-14 -83 -13 -129 2 -81 -13 -233 -24 -251 -3 -6 -8 -40 -11 -77 -3 -37 -12
-77 -20 -90 -8 -12 -17 -53 -21 -92 -4 -38 -15 -81 -24 -95 -25 -37 -41 -78
-41 -105 0 -14 -4 -25 -9 -25 -16 0 -51 -66 -51 -96 0 -18 -14 -44 -40 -75
-22 -26 -40 -55 -40 -63 0 -9 -17 -25 -37 -35 -44 -24 -113 -82 -113 -97 0 -5
-16 -16 -35 -23 -19 -7 -49 -30 -67 -52 -25 -31 -38 -39 -64 -39 -18 0 -53 -6
-76 -14 -24 -8 -65 -15 -93 -15 -27 0 -81 -8 -120 -16 -74 -17 -233 -27 -250
-15 -5 3 -30 13 -55 20 -25 8 -68 26 -96 42 -56 31 -117 37 -150 14 -17 -12
-24 -11 -60 8 -71 37 -106 60 -156 104 -27 23 -53 42 -58 42 -6 0 -10 7 -10
17 0 9 -24 40 -54 69 -39 37 -58 65 -66 96 -21 75 -33 102 -63 141 -18 24 -34
61 -43 105 -7 37 -27 94 -43 127 -31 62 -39 103 -45 215 -1 36 -9 108 -16 160
-7 52 -14 129 -16 170 -2 41 -4 89 -4 105 -1 17 3 52 8 80 8 40 6 57 -8 91
-20 46 -27 182 -15 272 5 33 3 68 -5 97 -11 38 -10 50 4 86 14 35 16 64 10
189 -6 125 -4 155 10 189 9 23 16 65 16 94 0 29 5 58 10 63 6 6 12 26 13 45 1
19 6 39 10 46 4 7 10 43 14 80 3 37 11 77 18 88 6 11 15 36 19 56 6 36 25 77
64 139 12 19 24 46 27 61 4 15 21 39 40 53 19 15 36 39 40 55 4 20 15 33 35
39 15 6 43 30 62 55 22 30 46 49 72 58 23 8 46 24 54 39 8 14 41 39 74 54 54
26 72 30 171 32 62 1 126 7 142 12 40 13 51 10 47 -16z m726 5 c32 -18 37 -24
26 -35 -7 -6 -18 -12 -24 -12 -18 0 -70 43 -70 57 0 19 23 16 68 -10z m-465
-4 c-7 -2 -19 -2 -25 0 -7 3 -2 5 12 5 14 0 19 -2 13 -5z m-683 -12 c0 -16
-42 -61 -51 -55 -5 3 -21 -4 -36 -15 -47 -38 -38 -11 13 34 47 42 74 55 74 36z
m1324 -30 c34 -37 11 -32 -24 6 -21 21 -26 32 -15 26 11 -6 29 -21 39 -32z m4
-59 c13 -19 12 -22 -2 -28 -20 -8 -66 32 -66 57 0 9 -7 22 -15 29 -8 7 -15 17
-15 23 0 12 79 -52 98 -81z m60 68 c26 -16 52 -53 52 -76 0 -12 -71 45 -85 68
-19 33 -12 35 33 8z m-1702 -75 c-47 -57 -79 -78 -105 -70 -12 3 -21 15 -21
26 0 23 62 94 99 112 23 12 28 12 43 -7 16 -20 15 -23 -16 -61z m-86 46 c0 -6
-8 -16 -18 -23 -26 -18 -45 -56 -39 -79 6 -21 -27 -68 -39 -56 -4 4 -2 13 4
19 14 14 16 28 3 28 -5 0 -13 -9 -16 -20 -9 -28 -24 -25 -18 3 13 52 123 167
123 128z m213 -12 c10 -38 -85 -138 -119 -125 -29 11 -15 57 30 102 48 48 80
56 89 23z m1350 -3 c10 -8 15 -20 11 -29 -7 -18 -34 -11 -34 9 0 8 -10 14 -24
14 -14 0 -28 5 -31 10 -9 15 57 12 78 -4z m319 -3 c27 -32 31 -43 12 -36 -14
5 -16 2 -11 -17 3 -13 2 -19 -3 -14 -12 13 -30 84 -21 84 4 0 15 -8 23 -17z
m-1622 -63 c-4 -8 -21 -26 -36 -40 -16 -14 -22 -17 -15 -7 20 26 -7 22 -30 -5
-11 -11 -21 -19 -24 -17 -2 3 17 30 42 62 41 51 47 55 59 39 7 -10 9 -23 4
-32z m1557 18 c35 -37 59 -94 29 -69 -15 12 -21 8 -17 -12 1 -5 -3 -6 -9 -2
-15 9 -60 102 -53 109 11 11 18 7 50 -26z m-128 -35 c14 -30 14 -43 1 -23 -9
13 -11 13 -19 1 -8 -12 -12 -12 -25 -2 -16 13 -22 52 -10 64 10 9 42 -15 53
-40z m73 -15 c0 -13 0 -32 -1 -43 -1 -11 6 -25 16 -32 9 -7 12 -13 6 -13 -22
0 -69 90 -55 105 13 13 32 3 34 -17z m152 -33 c20 -31 20 -46 0 -38 -12 4 -14
0 -8 -23 7 -26 6 -28 -9 -15 -11 9 -17 29 -17 57 0 50 10 55 34 19z m-1908
-26 c-16 -38 -72 -96 -83 -86 -3 4 2 16 12 27 10 11 16 23 12 26 -3 3 -13 -6
-23 -20 -28 -44 -28 -21 1 33 23 41 33 50 59 53 17 2 32 3 34 2 1 0 -4 -16
-12 -35z m64 26 c10 -12 10 -19 2 -27 -9 -9 -12 -8 -12 6 0 12 -5 16 -14 13
-10 -4 -13 -1 -9 9 7 18 17 18 33 -1z m76 -19 c18 -19 18 -22 -7 -57 -23 -33
-43 -39 -34 -9 9 28 -10 25 -30 -6 -9 -14 -19 -24 -22 -21 -11 12 54 107 73
107 3 0 12 -6 20 -14z m-246 -26 c0 -13 -30 -68 -44 -79 -11 -9 -12 -6 -8 14
6 36 -6 31 -17 -7 -9 -33 -9 -33 -10 -5 -1 15 5 43 13 61 12 29 18 33 40 29
14 -3 26 -9 26 -13z m1836 -1 c3 -5 0 -9 -5 -9 -17 0 -13 -18 10 -41 11 -11
18 -23 15 -26 -12 -12 -36 8 -55 45 l-20 40 25 0 c13 0 27 -4 30 -9z m114 -19
c12 -18 23 -50 25 -82 4 -48 3 -50 -7 -25 -7 15 -16 27 -21 27 -12 0 1 -53 16
-62 6 -4 8 -10 5 -13 -20 -20 -40 30 -53 133 -8 60 3 67 35 22z m-1805 10 c6
-10 -15 -50 -26 -50 -14 0 -19 33 -8 46 13 16 25 18 34 4z m1965 -75 c11 -21
11 -28 2 -34 -8 -5 -10 -15 -5 -27 6 -16 5 -17 -9 -6 -9 7 -18 25 -21 40 -3
15 -8 38 -13 51 -6 21 -5 22 12 13 11 -6 26 -22 34 -37z m-60 6 c5 -11 10 -32
10 -47 l0 -27 -35 39 c-19 21 -35 42 -35 46 0 17 50 7 60 -11z m-145 -56 c7
-39 7 -40 -10 -17 -9 12 -21 20 -26 17 -13 -8 -11 22 2 47 14 26 24 12 34 -47z
m-1922 18 c-3 -18 -10 -33 -16 -33 -5 0 -16 -8 -24 -17 -13 -17 -14 -16 -8 5
6 22 -10 32 -17 10 -2 -6 -14 -12 -25 -13 -19 -1 -20 1 -11 27 11 31 18 34 36
16 10 -10 18 -6 39 15 15 14 28 25 29 24 1 -1 -1 -17 -3 -34z m122 -19 c-10
-19 -15 -23 -15 -11 0 22 -16 22 -24 1 -4 -9 -9 -15 -11 -12 -11 10 8 39 34
52 32 17 36 9 16 -30z m-75 22 c0 -8 -9 -24 -19 -37 l-19 -24 11 38 c12 37 27
50 27 23z m140 10 c0 -14 -32 -75 -44 -85 -25 -21 -40 -2 -18 23 11 11 25 31
31 44 10 18 31 31 31 18z m1867 -65 c-5 -2 -13 3 -18 10 -15 24 -10 30 9 12
10 -10 14 -20 9 -22z m82 -70 c35 -83 35 -81 21 -81 -5 0 -10 9 -10 20 0 27
-18 25 -22 -2 -2 -16 -10 -3 -25 42 -15 47 -18 70 -11 83 12 23 10 26 47 -62z
m-63 2 c18 -43 18 -62 -1 -37 -14 18 -14 18 -15 -8 0 -17 6 -28 18 -30 12 -2
13 -6 5 -11 -20 -12 -50 30 -61 86 -5 29 -8 56 -5 60 8 13 44 -24 59 -60z
m-2056 23 c0 -5 -7 -3 -15 4 -8 7 -12 17 -9 22 7 10 24 -9 24 -26z m59 25 c19
-12 5 -95 -15 -87 -8 3 -20 -6 -28 -22 l-15 -27 -1 43 c0 23 5 42 10 42 6 0
10 14 10 30 0 30 13 37 39 21z m1919 -55 c3 -21 0 -25 -14 -19 -14 5 -16 2
-11 -17 4 -16 3 -20 -5 -12 -6 6 -13 32 -16 58 l-5 49 24 -16 c13 -9 25 -28
27 -43z m-2096 -27 c-5 -45 -22 -64 -22 -24 0 15 -4 24 -10 20 -5 -3 -10 -16
-10 -28 0 -16 -3 -18 -9 -8 -8 13 0 68 13 90 5 7 12 8 24 0 13 -8 16 -21 14
-50z m73 -5 c-3 -20 -10 -32 -16 -28 -6 3 -17 -2 -25 -12 -14 -18 -15 -17 -10
8 4 15 16 44 28 65 18 29 24 34 26 19 2 -10 1 -33 -3 -52z m135 9 c-11 -17
-11 -17 -6 0 3 10 6 24 7 30 0 9 2 9 5 0 3 -7 0 -20 -6 -30z m2100 -15 c0 -5
-6 -16 -13 -23 -12 -11 -16 -6 -24 31 l-10 45 23 -22 c13 -12 24 -27 24 -31z
m-256 -23 c6 -6 18 -14 27 -17 19 -7 31 -68 17 -83 -6 -7 -9 -5 -8 5 5 32 -1
41 -22 38 -18 -2 -25 4 -35 32 -6 19 -12 49 -12 65 l1 30 10 -30 c6 -16 16
-34 22 -40z m-1930 -70 c-8 -31 -24 -43 -24 -18 -1 14 -4 13 -16 -7 -14 -24
-15 -23 -9 24 10 74 14 80 36 52 14 -17 18 -33 13 -51z m2040 25 c24 0 37 -92
15 -105 -16 -11 -23 3 -10 19 13 15 7 36 -10 36 -5 0 -9 -8 -10 -17 -1 -25
-19 20 -29 70 -7 38 -7 38 12 18 10 -12 25 -21 32 -21z m-1974 15 c0 -9 -7
-18 -16 -22 -9 -3 -20 -15 -24 -27 -9 -21 -9 -21 -9 2 -1 27 19 62 36 62 7 0
13 -7 13 -15z m2103 -37 c-7 -56 -20 -68 -33 -34 -17 45 -13 68 10 61 11 -4
20 -2 20 4 0 6 2 11 4 11 2 0 2 -19 -1 -42z m-2335 -1 c3 -21 -1 -27 -16 -27
-15 0 -18 -5 -14 -25 2 -15 0 -25 -7 -25 -12 0 -16 92 -4 104 15 14 38 0 41
-27z m2264 -4 c8 -16 19 -44 23 -63 7 -31 6 -33 -9 -21 -14 12 -16 10 -17 -15
0 -25 -2 -26 -9 -9 -5 11 -6 34 -4 50 3 17 1 43 -5 58 -14 35 0 35 21 0z
m-2192 -4 c0 -5 -4 -9 -9 -9 -5 0 -11 -13 -14 -30 -4 -16 -12 -30 -18 -30 -7
0 -9 9 -5 23 3 12 6 32 6 44 0 16 5 20 20 16 11 -3 20 -9 20 -14z m2299 -23
c13 -54 13 -56 3 -56 -9 0 -32 66 -32 89 0 28 19 7 29 -33z m-2263 -71 c-3
-11 -6 -29 -7 -40 0 -11 -3 -14 -6 -7 -8 21 -21 13 -26 -15 -2 -16 -5 -4 -6
25 0 29 4 63 10 74 11 21 12 21 26 2 8 -10 12 -28 9 -39z m93 28 c-2 -41 -16
-93 -18 -68 -2 19 -3 18 -11 -2 -14 -34 -23 -28 -18 12 3 30 1 34 -14 29 -24
-7 -23 6 5 33 32 32 57 30 56 -4z m1971 1 c0 -8 11 -20 25 -26 29 -13 39 -39
29 -70 l-7 -23 -10 25 -10 25 -6 -25 -7 -24 -17 24 c-19 27 -25 126 -7 115 6
-3 10 -13 10 -21z m180 -13 c5 -11 10 -33 10 -50 0 -23 -4 -29 -15 -25 -20 8
-19 -10 1 -31 17 -17 13 -32 -5 -20 -17 10 -38 66 -39 108 -1 30 2 37 18 37
11 0 24 -9 30 -19z m-2384 -45 c-3 -11 -6 -32 -6 -45 0 -18 -3 -21 -13 -12 -8
6 -17 8 -20 4 -4 -3 -7 12 -7 34 0 47 4 53 31 46 15 -4 19 -11 15 -27z m70 8
c-3 -9 -6 -21 -6 -27 0 -7 -4 -6 -10 3 -8 13 -9 13 -14 0 -2 -8 -7 -22 -9 -30
-3 -8 -6 -3 -6 12 -1 39 9 58 31 58 14 0 18 -5 14 -16z m2374 -49 c13 -63 10
-137 -6 -142 -17 -6 -24 32 -24 125 0 94 13 101 30 17z m-2280 -35 c0 -49 -3
-58 -15 -54 -10 4 -15 0 -15 -15 0 -12 -4 -21 -10 -21 -18 0 -11 76 10 103 11
14 20 30 20 36 0 6 2 11 5 11 3 0 5 -27 5 -60z m2144 45 c12 0 36 -82 35 -120
0 -16 -3 -24 -6 -17 -9 24 -23 12 -17 -15 4 -18 3 -25 -3 -18 -6 6 -16 44 -23
85 -7 41 -15 81 -18 89 -4 10 -1 12 9 5 8 -5 18 -9 23 -9z m-2234 -47 c0 -7
-5 -20 -10 -28 -9 -13 -10 -13 -10 0 -1 11 -4 10 -15 -4 -10 -13 -15 -15 -15
-6 0 15 29 50 42 50 4 0 8 -6 8 -12z m2196 -37 c1 -31 0 -32 -12 -16 -15 20
-17 16 -15 -25 0 -24 0 -24 -14 5 -25 52 -18 78 20 73 15 -2 20 -11 21 -37z
m-2302 -22 c3 -19 10 -28 17 -23 6 3 9 19 5 35 -3 16 -1 29 4 29 6 0 10 -7 10
-15 0 -8 9 -32 20 -52 13 -25 19 -54 19 -88 -1 -30 -4 -39 -6 -22 -3 16 -11
31 -19 34 -8 3 -14 18 -14 34 0 22 -5 29 -20 29 -16 0 -20 -7 -22 -32 -1 -28
-2 -27 -8 12 -5 30 -7 36 -8 18 -1 -16 -6 -28 -12 -28 -11 0 -14 103 -3 113
11 11 30 -12 37 -44z m2420 -10 c7 -37 7 -140 -1 -121 -4 10 -8 10 -19 1 -17
-14 -17 -4 -8 90 7 67 18 78 28 30z m-2294 -69 c0 -76 -2 -90 -16 -90 -13 0
-15 7 -10 36 4 19 2 50 -4 69 -8 25 -8 40 0 55 21 40 30 20 30 -70z m2399 -18
c23 -112 8 -186 -30 -138 -14 18 -17 35 -13 82 12 139 23 153 43 56z m-2309
12 c0 -37 -3 -45 -15 -40 -11 4 -15 -2 -16 -22 0 -24 -1 -25 -9 -7 -5 11 -9
32 -9 48 -1 15 -5 27 -11 27 -5 0 -10 5 -10 10 0 6 9 10 19 10 11 0 23 5 26
10 14 23 25 7 25 -36z m2100 -31 l0 -55 -25 23 c-29 28 -33 74 -8 88 27 15 33
4 33 -56z m150 11 c0 -14 -4 -22 -10 -19 -5 3 -10 17 -10 31 0 14 4 22 10 19
6 -3 10 -17 10 -31z m-85 -104 c2 -30 1 -45 -2 -32 -2 12 -9 22 -14 22 -5 0
-9 -10 -9 -22 0 -19 -2 -20 -10 -8 -15 23 -13 147 3 153 15 5 28 -40 32 -113z
m-2410 0 c0 -44 -3 -80 -7 -80 -5 0 -9 8 -9 18 -1 16 -2 16 -6 -1 -9 -34 -23
-5 -23 48 0 63 14 107 32 100 9 -4 13 -29 13 -85z m49 55 c4 -14 11 -25 16
-25 12 0 13 -70 1 -88 -6 -10 -10 -8 -16 10 l-7 23 -7 -25 c-6 -22 -8 -23 -14
-7 -14 37 -5 137 13 137 4 0 11 -11 14 -25z m152 -81 c4 -49 3 -65 -5 -54 -5
8 -13 11 -17 7 -4 -3 -1 -13 6 -22 10 -12 10 -15 -3 -15 -38 0 -46 78 -15 145
17 37 28 18 34 -61z m2283 13 c0 -29 -3 -46 -6 -39 -9 22 -23 13 -24 -15 l-1
-28 -8 25 c-14 42 -11 79 8 98 25 27 32 18 31 -41z m-2353 -77 c4 -28 2 -55
-5 -66 -10 -18 -10 -18 -11 3 0 12 -4 25 -10 28 -6 4 -10 -5 -10 -20 0 -15 -4
-24 -10 -20 -13 8 -13 46 2 116 11 55 12 57 25 33 7 -14 15 -47 19 -74z m2235
-15 c-10 -20 -10 -20 -11 0 -1 20 -1 20 -15 1 -14 -19 -15 -17 -15 20 0 21 3
50 7 64 6 23 8 21 25 -20 14 -33 16 -50 9 -65z m175 -36 c4 -52 3 -60 -7 -45
-9 14 -13 16 -19 5 -14 -21 -23 35 -15 87 6 42 8 45 22 32 9 -9 17 -41 19 -79z
m47 -26 c5 -42 3 -53 -8 -53 -10 0 -15 -10 -15 -30 0 -16 -4 -30 -9 -30 -5 0
-11 -9 -13 -20 -5 -31 -23 -29 -26 3 -3 22 0 28 14 25 19 -3 23 14 24 126 2
117 20 105 33 -21z m-158 68 c3 -11 12 -22 20 -25 11 -4 15 -22 14 -68 0 -48
-2 -58 -9 -40 -5 12 -14 22 -20 22 -7 0 -9 -9 -5 -22 5 -21 5 -21 -5 -5 -13
21 -32 136 -24 149 9 14 22 9 29 -11z m-2469 -5 c16 -17 20 -146 4 -146 -5 0
-10 10 -11 23 -1 21 -1 21 -8 -3 -7 -24 -8 -24 -15 8 -7 31 1 132 11 132 2 0
11 -6 19 -14z m88 -34 c9 -52 7 -102 -4 -121 -7 -12 -10 -8 -11 19 l-2 35 -7
-35 -7 -35 -12 29 c-13 32 -12 124 2 143 15 20 35 3 41 -35z m131 -23 c4 -18
3 -35 -4 -42 -8 -8 -11 -6 -11 6 0 9 -5 17 -11 17 -6 0 -9 -9 -6 -20 5 -21 -7
-27 -19 -9 -8 13 26 90 37 84 4 -3 11 -19 14 -36z m44 -77 c1 -47 -3 -64 -14
-68 -8 -4 -15 -13 -15 -22 0 -28 -17 1 -23 38 -4 26 0 42 14 59 11 14 19 40
20 65 2 65 17 5 18 -72z m2137 72 c-5 -14 -9 -15 -19 -5 -9 9 -9 14 3 21 18
11 24 6 16 -16z m-2262 -40 c11 -27 7 -121 -4 -104 -5 8 -10 11 -11 5 0 -5 -5
4 -10 20 -15 51 8 125 25 79z m2306 -46 c0 -9 7 -21 16 -26 16 -9 16 -11 0
-33 -10 -13 -16 -17 -14 -9 1 8 -2 15 -7 15 -6 0 -10 -12 -10 -27 0 -15 -3
-24 -7 -20 -12 12 -26 91 -21 115 11 50 14 53 28 27 8 -14 14 -33 15 -42z
m103 -133 c2 -29 -2 -39 -12 -37 -10 2 -12 -5 -8 -28 4 -16 2 -30 -3 -30 -33
0 -42 148 -12 210 l17 37 8 -56 c5 -31 10 -74 10 -96z m-2353 109 c0 -15 5
-43 11 -63 7 -24 7 -52 1 -86 -5 -27 -10 -40 -11 -27 0 12 -5 22 -11 22 -5 0
-7 -7 -4 -15 4 -8 1 -15 -4 -15 -14 0 -25 56 -18 95 2 17 5 49 5 73 1 30 5 42
16 42 10 0 15 -10 15 -26z m-160 -48 c0 -53 -12 -79 -24 -54 -5 11 -7 11 -12
0 -11 -23 -24 -1 -24 41 0 34 5 44 23 53 36 18 37 17 37 -40z m78 -38 c13 -9
22 -37 30 -85 18 -106 16 -120 -10 -118 -21 2 -23 7 -23 51 0 27 4 64 9 83 7
29 6 33 -7 28 -9 -3 -18 -1 -21 6 -2 7 -5 1 -6 -13 l-1 -25 -14 25 c-18 31
-20 107 -2 113 7 2 15 -8 20 -24 4 -16 15 -34 25 -41z m2527 32 c8 -38 -6 -65
-16 -30 -10 37 -10 60 0 60 5 0 12 -13 16 -30z m-225 -40 c11 -11 19 -32 19
-47 -1 -17 -3 -21 -6 -10 -9 34 -26 18 -20 -20 4 -22 3 -33 -3 -27 -11 11 -26
124 -16 124 3 0 15 -9 26 -20z m74 -170 c-5 -35 -8 -41 -14 -25 -8 19 -8 19
-18 -5 -8 -20 -10 -8 -11 59 0 46 5 91 12 102 10 16 13 11 25 -34 8 -32 11
-69 6 -97z m-2424 100 c14 -28 20 -57 19 -102 -1 -61 -1 -62 -11 -25 -13 47
-33 50 -24 2 6 -28 4 -34 -8 -29 -10 4 -16 -6 -21 -35 -4 -22 -12 -39 -18 -38
-7 1 -11 -9 -9 -28 2 -23 1 -27 -7 -15 -6 8 -11 36 -11 61 0 42 3 47 26 53 24
6 25 10 19 39 -11 49 -9 111 4 135 6 12 14 22 16 22 3 0 14 -18 25 -40z m189
-35 c1 -53 -17 -115 -33 -115 -20 0 -28 79 -10 104 8 11 14 32 14 47 0 14 3
29 7 33 11 10 22 -23 22 -69z m2359 26 c2 -21 -2 -42 -8 -46 -5 -3 -10 -25
-11 -48 -1 -35 -3 -30 -14 33 -12 66 -12 77 2 92 21 24 29 17 31 -31z m-2618
-33 c0 -17 -5 -28 -14 -28 -15 0 -29 52 -19 76 6 15 7 15 20 -2 7 -10 13 -30
13 -46z m2560 -28 c0 -5 -2 -10 -4 -10 -3 0 -8 5 -11 10 -3 6 -1 10 4 10 6 0
11 -4 11 -10z m-129 -98 c5 -24 7 -53 3 -64 -5 -18 -7 -18 -20 7 -11 21 -12
44 -7 94 5 39 9 54 11 36 1 -16 7 -50 13 -73z m219 34 c-7 -7 -10 4 -9 30 1
39 1 39 10 9 5 -18 5 -33 -1 -39z m-2643 12 c-3 -8 -6 -5 -6 6 -1 11 2 17 5
13 3 -3 4 -12 1 -19z m150 -40 c-3 -8 -6 -5 -6 6 -1 11 2 17 5 13 3 -3 4 -12
1 -19z m52 -36 c17 -67 24 -172 11 -172 -7 0 -9 8 -5 21 5 16 3 20 -12 17 -16
-3 -18 6 -21 90 -3 97 9 116 27 44z m2360 -29 c-1 -95 -7 -117 -30 -100 -12 9
-19 37 -24 95 l-7 82 31 0 31 0 -1 -77z m78 15 c-2 -13 -4 -3 -4 22 0 25 2 35
4 23 2 -13 2 -33 0 -45z m-2403 7 c5 -22 4 -26 -4 -15 -5 8 -10 24 -10 34 0
26 6 18 14 -19z m2376 14 c0 -11 -7 -27 -15 -35 -13 -14 -15 -11 -15 20 0 25
4 36 15 36 9 0 15 -9 15 -21z m-2517 -36 c3 -27 1 -52 -4 -57 -6 -6 -9 -6 -9
2 0 27 -19 10 -22 -20 -3 -30 -5 -28 -17 23 -15 62 -5 99 28 99 15 0 20 -10
24 -47z m2395 7 c5 -32 -7 -90 -18 -90 -6 0 -10 9 -10 20 0 11 -4 20 -10 20
-13 0 -13 21 0 55 12 31 34 28 38 -5z m-2338 -60 c0 -27 -4 -50 -10 -50 -5 0
-11 -8 -11 -17 -1 -10 -5 2 -9 27 -10 54 -3 90 16 90 10 0 14 -14 14 -50z
m-184 -47 c-10 -10 -19 5 -10 18 6 11 8 11 12 0 2 -7 1 -15 -2 -18z m2468 -10
c13 -84 5 -133 -23 -133 -10 0 -12 3 -5 8 14 9 26 72 14 72 -6 0 -10 -7 -10
-15 0 -8 -4 -15 -9 -15 -6 0 -6 12 0 32 5 18 9 45 9 60 0 41 16 34 24 -9z
m158 -20 c2 -32 1 -62 -4 -67 -5 -6 -8 -5 -8 2 0 6 -7 9 -16 5 -18 -7 -18 -10
2 87 10 48 22 35 26 -27z m-2563 21 c21 -26 21 -51 5 -131 -6 -33 -24 -28 -24
7 0 35 -17 40 -23 8 -2 -13 -5 4 -6 37 -1 65 6 105 19 105 5 0 18 -12 29 -26z
m2492 -54 c13 0 11 -142 -3 -181 l-13 -34 -6 40 c-5 39 -6 39 -17 15 -10 -23
-11 -21 -11 21 -1 25 -3 75 -6 110 -2 35 -2 56 1 46 8 -26 24 -10 25 26 l1 32
10 -37 c6 -21 14 -38 19 -38z m112 -20 c5 -60 3 -66 -14 -67 -11 -1 -17 2 -14
6 2 5 5 33 6 62 2 50 7 75 14 67 2 -2 6 -33 8 -68z m-2373 -7 c0 -24 -4 -43
-9 -43 -17 0 -29 89 -14 103 12 12 23 -17 23 -60z m-137 -1 c19 -47 22 -117 7
-127 -6 -4 -10 5 -10 19 0 14 -4 26 -10 26 -5 0 -10 -12 -10 -27 -1 -23 -2
-25 -10 -11 -17 29 -24 132 -10 157 14 27 21 21 43 -37z m75 17 c-7 -5 -12
-21 -10 -39 2 -16 -1 -30 -7 -30 -5 0 -11 -8 -13 -17 -3 -10 -8 1 -12 24 -9
52 5 84 35 76 15 -4 17 -8 7 -14z m26 -50 c9 -46 8 -85 -3 -73 -12 13 -23 104
-12 104 5 0 11 -14 15 -31z m-157 -144 c0 -38 -2 -53 -4 -32 -4 39 -11 45 -31
25 -20 -20 -15 68 5 99 l17 26 7 -24 c4 -13 7 -55 6 -94z m2383 36 c0 -69 -15
-131 -31 -131 -5 0 -9 14 -9 32 0 30 -1 31 -15 12 -13 -17 -14 -15 -15 33 0
72 23 122 58 123 8 0 12 -20 12 -69z m135 59 c4 -6 -3 -25 -14 -43 l-21 -32 0
36 c0 45 18 66 35 39z m-2589 -36 c-4 -9 -9 -15 -11 -12 -3 3 -3 13 1 22 4 9
9 15 11 12 3 -3 3 -13 -1 -22z m270 -28 c8 -31 2 -71 -11 -71 -5 0 -11 21 -13
48 -3 49 13 66 24 23z m-78 -31 c7 -25 12 -67 11 -93 0 -43 -1 -45 -11 -22
l-11 25 -7 -30 -6 -30 -6 30 c-17 78 -19 124 -6 144 18 30 22 27 36 -24z m-65
-22 c6 -32 3 -38 -12 -28 -13 8 -15 55 -2 55 5 0 11 -12 14 -27z m2492 -25
c-12 -80 -17 -98 -26 -98 -19 0 -21 31 -4 85 21 66 40 73 30 13z m-56 -52 c-1
-19 -2 -19 -9 4 -4 14 -9 21 -10 15 -1 -5 -5 1 -9 15 -5 14 -6 29 -3 33 6 13
32 -42 31 -67z m-2320 -33 c0 -24 -3 -43 -9 -43 -6 0 -10 30 -9 73 1 54 3 65
9 42 4 -16 8 -49 9 -72z m2272 49 c8 -41 -5 -153 -21 -178 -10 -16 -10 -14 -6
14 7 43 -16 39 -26 -4 -4 -16 -5 17 -2 74 3 57 8 110 11 118 10 26 37 11 44
-24z m-2435 -57 c16 -61 17 -75 4 -75 -5 0 -10 7 -10 15 0 8 -6 15 -14 15 -19
0 -24 9 -32 59 -6 40 -6 43 16 39 18 -2 26 -13 36 -53z m81 -46 c12 -35 22
-75 22 -89 l-1 -25 -7 24 c-4 14 -13 27 -20 29 -9 3 -12 -1 -9 -9 18 -47 17
-60 -2 -26 -23 42 -42 129 -33 152 10 29 28 9 50 -56z m122 -4 c0 -31 -2 -36
-9 -20 -13 29 -13 94 0 75 5 -8 9 -33 9 -55z m2150 28 c-1 -16 -5 -41 -9 -58
-7 -27 -8 -28 -9 -5 -1 32 -18 15 -24 -25 -3 -16 -3 -4 -2 28 3 54 16 87 36
87 5 0 8 -12 8 -27z m-2376 -90 c15 -9 37 -66 37 -92 -1 -12 -4 -11 -13 5 -7
12 -17 19 -23 17 -14 -5 -21 13 -40 87 -18 75 -17 82 6 33 11 -23 26 -46 33
-50z m2513 71 c-3 -9 -6 -26 -6 -39 0 -18 -5 -23 -20 -22 -18 1 -20 6 -14 32
6 29 19 45 38 45 4 0 5 -7 2 -16z m29 -76 c-7 -46 -37 -150 -41 -145 -2 2 3
39 11 82 8 44 14 86 15 93 0 6 5 12 11 12 7 0 8 -14 4 -42z m-2360 -54 c17
-61 19 -90 5 -99 -6 -4 -10 7 -10 25 0 25 -4 31 -15 26 -12 -4 -15 4 -15 42 0
26 -3 58 -6 72 -11 48 24 -8 41 -66z m39 16 c18 -45 21 -76 8 -84 -5 -3 -16
21 -25 54 -20 69 -20 70 -8 70 5 0 16 -18 25 -40z m2267 13 c-8 -15 -10 -15
-11 -2 0 17 10 32 18 25 2 -3 -1 -13 -7 -23z m-2417 -15 c18 -35 21 -58 7 -58
-5 0 -15 20 -23 45 -17 52 -7 60 16 13z m2302 -38 c-4 -27 -16 -69 -27 -92
l-19 -43 4 38 c5 41 -9 50 -24 15 -9 -23 -9 -23 -9 2 -1 39 23 105 39 108 8 2
19 8 25 13 16 16 18 10 11 -41z m49 -12 c-11 -49 -22 -75 -36 -84 -9 -5 -10
-1 -5 17 4 13 10 41 13 62 3 23 11 37 20 37 11 0 13 -8 8 -32z m-2295 -3 c0
-9 11 -37 25 -63 27 -50 31 -72 15 -72 -5 0 -10 7 -10 15 0 8 -5 15 -11 15 -6
0 -8 -9 -4 -22 6 -20 4 -19 -13 5 -21 30 -31 137 -13 137 6 0 11 -7 11 -15z
m2355 -28 c-4 -15 -12 -24 -20 -21 -7 3 -15 -5 -18 -17 -10 -36 -19 -15 -12
24 5 26 13 37 29 39 28 5 28 5 21 -25z m-2407 -19 c-1 -13 3 -45 7 -73 7 -45
7 -49 -7 -37 -13 10 -17 10 -21 0 -5 -14 -25 29 -34 75 -5 23 -2 29 16 34 11
3 21 9 21 14 0 5 4 9 9 9 5 0 9 -10 9 -22z m170 -34 l2 -29 -14 25 c-19 31
-20 43 -3 38 6 -3 13 -18 15 -34z m-19 -35 c15 -44 14 -48 -9 -42 -11 3 -20
10 -20 17 0 6 -3 21 -6 34 -10 36 22 27 35 -9z m2181 -5 c0 -22 -34 -133 -47
-153 -12 -19 -17 -21 -24 -10 -6 10 -11 5 -20 -19 -20 -57 -22 -27 -4 50 22
92 34 118 60 129 25 10 35 11 35 3z m-2242 -103 c14 -40 16 -73 4 -53 -5 7
-16 10 -25 6 -22 -8 -37 31 -37 98 l0 51 23 -35 c13 -18 29 -49 35 -67z m38
45 c8 -8 14 -25 14 -38 0 -13 5 -29 11 -35 12 -12 30 -83 20 -83 -14 1 -64 97
-69 133 -5 40 1 46 24 23z m2102 -28 c-9 -42 -28 -75 -28 -49 0 22 -20 1 -21
-22 0 -12 -3 -16 -6 -10 -2 7 1 37 7 68 10 48 15 55 35 55 22 0 22 -2 13 -42z
m142 29 c0 -8 -9 -22 -20 -32 -19 -18 -20 -17 -20 7 0 13 3 28 7 31 11 12 33
8 33 -6z m-2134 -107 c28 -70 29 -74 8 -66 -12 4 -14 1 -9 -14 5 -15 3 -18 -9
-14 -9 3 -21 25 -26 48 -6 22 -16 56 -21 73 -6 18 -7 42 -4 54 l7 21 15 -22
c8 -11 26 -48 39 -80z m-241 72 c6 -4 19 -26 29 -50 11 -23 25 -47 33 -53 18
-16 16 -29 -4 -29 -25 0 -73 64 -80 105 -5 34 1 42 22 27z m2428 -37 c-7 -19
16 -105 28 -105 5 0 9 -4 9 -10 0 -5 -6 -10 -14 -10 -7 0 -30 -11 -51 -25 -20
-15 -40 -23 -43 -20 -4 3 -1 9 5 13 24 16 53 79 53 118 0 22 3 44 7 47 10 11
13 8 6 -8z m-63 -36 c-5 -19 -17 -44 -26 -54 -13 -17 -15 -17 -10 -2 8 26 -13
20 -24 -7 -14 -38 -29 -40 -20 -3 9 42 29 79 39 73 4 -3 17 3 27 13 10 10 20
18 21 17 1 -1 -2 -18 -7 -37z m-2215 -59 c29 -58 30 -61 10 -54 -12 5 -14 2
-8 -12 12 -32 -23 2 -37 36 -11 26 -7 80 5 80 3 0 16 -22 30 -50z m2040 -34
c-19 -50 -54 -91 -40 -47 6 20 4 23 -9 18 -20 -8 -20 -4 0 34 13 26 52 53 63
43 2 -1 -5 -23 -14 -48z m67 7 c-10 -17 -42 -27 -42 -13 0 9 29 29 43 30 4 0
4 -8 -1 -17z m-2232 -10 c0 -10 9 -37 20 -60 24 -53 17 -57 -9 -5 -27 53 -34
82 -22 82 6 0 11 -8 11 -17z m77 -52 c12 -24 29 -51 38 -61 17 -19 19 -30 5
-30 -5 0 -10 6 -10 14 0 8 -7 16 -14 19 -10 4 -13 1 -9 -9 3 -7 2 -14 -1 -14
-9 0 -56 100 -56 118 0 26 25 6 47 -37z m127 36 c19 -14 60 -117 46 -117 -4 0
-10 7 -14 15 -8 21 -27 19 -19 -2 5 -15 2 -14 -17 3 -14 14 -24 38 -27 68 -6
48 1 55 31 33z m2087 -14 c-6 -10 -20 -31 -33 -46 l-23 -28 -3 40 c-2 38 -1
40 30 44 18 2 34 5 36 5 1 1 -2 -6 -7 -15z m-1999 -60 c14 -21 28 -51 32 -68
l7 -29 -30 34 c-17 19 -31 43 -31 52 0 9 -4 20 -10 23 -12 8 -13 25 -1 25 4 0
19 -17 33 -37z m-123 -15 c11 -23 18 -44 16 -47 -7 -7 -38 24 -58 58 -18 30
-18 31 1 31 13 0 27 -14 41 -42z m2011 9 c0 -8 -11 -19 -25 -25 -28 -13 -30
-10 -13 18 14 23 38 27 38 7z m-74 -19 c-4 -13 -9 -35 -12 -50 -4 -16 -13 -28
-21 -28 -11 0 -13 7 -8 27 5 23 4 25 -9 14 -21 -18 -21 2 0 34 22 33 59 35 50
3z m164 -32 c-6 -18 -20 -42 -31 -52 -21 -18 -21 -18 -8 9 16 36 4 46 -20 16
-17 -20 -20 -21 -21 -7 0 10 10 23 23 29 12 7 31 23 42 36 24 29 31 15 15 -31z
m-100 -6 c-18 -11 -22 -7 -14 14 5 13 10 14 18 6 8 -8 7 -13 -4 -20z m410 13
c0 -5 -14 -16 -30 -25 -34 -19 -40 -52 -13 -67 16 -8 14 -11 -10 -22 -26 -12
-34 -28 -20 -42 3 -4 12 -2 20 5 19 16 30 1 15 -22 -17 -27 -15 -30 13 -30 25
0 30 -11 17 -40 -5 -10 -22 -15 -57 -15 -61 0 -67 -15 -28 -74 28 -43 43 -50
105 -48 44 1 44 1 53 -40 6 -28 4 -33 -13 -33 -27 0 -34 -11 -18 -29 16 -19
26 -113 14 -135 -5 -8 -15 -13 -23 -10 -9 4 -20 -7 -30 -28 -9 -18 -33 -48
-53 -66 -28 -26 -32 -33 -16 -29 19 4 20 1 14 -37 -11 -61 -18 -73 -52 -80
-43 -8 -118 -8 -118 2 1 4 9 32 20 62 14 41 25 57 45 65 38 13 31 50 -10 50
-27 0 -30 -3 -37 -45 -12 -69 -14 -73 -37 -58 -14 9 -18 19 -14 39 7 35 -29
73 -63 66 -17 -3 -25 1 -29 14 -9 29 -25 22 -25 -10 0 -27 19 -53 36 -50 14 2
54 -13 54 -20 0 -4 -5 -12 -11 -18 -7 -7 -1 -18 21 -37 46 -38 39 -68 -19 -78
-33 -6 -51 -3 -72 9 -16 10 -28 22 -28 28 3 24 -2 36 -11 30 -6 -3 -14 5 -20
19 -10 28 -30 35 -30 11 0 -23 36 -85 58 -101 17 -12 18 -17 9 -39 -7 -14 -18
-25 -25 -25 -8 0 -19 -13 -25 -30 -12 -32 -29 -36 -71 -21 -18 8 -25 19 -28
43 -3 38 -31 46 -36 11 -3 -24 -18 -28 -59 -17 -31 9 -29 22 5 26 26 3 27 4
27 70 0 38 -3 68 -7 68 -3 0 -24 -10 -47 -22 -43 -23 -58 -45 -41 -62 14 -14
13 -26 -3 -26 -25 0 -46 34 -52 86 -7 50 -7 51 33 83 24 19 43 43 47 61 4 16
11 32 16 35 17 11 9 31 -21 53 l-30 23 -20 -33 -21 -33 5 45 c5 37 13 52 55
92 28 26 58 65 67 85 10 21 24 45 31 55 18 20 2 32 -33 24 -17 -5 -24 -2 -24
8 0 19 15 29 65 41 57 14 58 39 3 51 -39 8 -43 12 -46 41 -3 27 4 40 43 79 42
43 48 46 71 35 14 -6 39 -11 56 -11 34 0 118 -44 118 -62 0 -15 -59 -2 -81 18
-22 20 -83 15 -87 -6 -2 -11 6 -16 24 -18 36 -3 38 -5 21 -39 -19 -38 -12 -53
28 -53 37 0 54 -15 36 -33 -6 -6 -11 -19 -11 -29 0 -14 -11 -18 -62 -20 -54
-3 -63 -6 -66 -23 -2 -11 -19 -33 -39 -50 -48 -41 -56 -98 -19 -137 28 -29 35
-48 12 -29 -9 7 -17 8 -20 2 -9 -13 12 -63 23 -56 5 3 12 1 16 -5 16 -25 25
-5 25 56 0 65 0 66 -25 62 -33 -7 -34 19 0 32 17 6 23 14 19 25 -5 12 -9 13
-20 4 -11 -9 -14 -8 -14 4 0 10 16 21 43 28 54 16 70 28 64 51 -4 14 -2 16 10
9 9 -4 24 -6 34 -4 17 5 18 2 8 -26 -12 -34 0 -61 28 -61 11 0 13 3 5 13 -6 7
-9 32 -7 57 2 34 9 49 29 65 27 22 27 22 9 53 -24 43 -8 60 35 38 17 -9 38
-16 47 -16 22 0 19 21 -5 27 -11 3 -20 10 -20 15 0 6 8 7 18 3 29 -12 62 -18
62 -10 0 4 -10 20 -21 37 -24 33 -21 70 7 113 23 35 37 31 16 -4 -13 -24 -14
-34 -4 -55 15 -33 32 -33 32 -1 0 25 25 85 35 85 3 0 3 -11 -1 -25 -5 -19 -2
-25 9 -25 9 0 18 9 22 19 11 36 56 71 91 71 19 0 34 -3 34 -7z m-2490 -26 c15
-12 20 -50 7 -63 -6 -6 -37 54 -37 71 0 9 14 5 30 -8z m234 -44 c25 -31 43
-59 40 -62 -2 -3 -10 1 -16 7 -24 24 -31 11 -8 -13 26 -28 22 -42 -8 -26 -20
11 -43 41 -75 100 -15 27 -16 35 -5 42 22 14 26 11 72 -48z m-161 25 c2 -13 7
-30 9 -38 3 -8 3 -12 1 -7 -9 14 -25 7 -19 -9 5 -14 4 -15 -8 -5 -23 19 -29
49 -14 65 18 21 25 20 31 -6z m2464 -15 c-11 -11 -19 -11 -43 -2 l-29 11 30
13 c37 16 65 1 42 -22z m-2397 -2 c13 -26 13 -30 -6 -27 -15 2 -34 23 -34 39
0 15 30 6 40 -12z m1930 -1 c0 -5 -4 -10 -10 -10 -5 0 -10 5 -10 10 0 6 5 10
10 10 6 0 10 -4 10 -10z m130 -61 c0 -18 -2 -19 -15 -9 -15 12 -12 30 6 30 5
0 9 -10 9 -21z m350 -15 c0 -13 -3 -14 -13 -5 -8 6 -17 8 -20 4 -4 -3 -7 -1
-7 5 0 7 9 12 20 12 12 0 20 -7 20 -16z m-2349 -16 c5 -13 21 -39 35 -58 29
-40 12 -58 -18 -19 -10 13 -27 34 -38 47 -18 22 -18 52 1 52 5 0 14 -10 20
-22z m2289 18 c0 -3 -4 -8 -10 -11 -5 -3 -10 -1 -10 4 0 6 5 11 10 11 6 0 10
-2 10 -4z m-2404 -53 c-5 -12 -10 -13 -18 -5 -8 8 -8 15 3 28 15 18 25 4 15
-23z m274 -37 c0 -5 -13 3 -30 19 -16 16 -30 33 -30 39 0 5 14 -3 30 -19 17
-16 30 -33 30 -39z m-212 12 c36 -78 42 -99 42 -138 0 -32 -5 -43 -27 -57 -19
-13 -28 -14 -31 -5 -2 6 -9 12 -16 12 -7 0 -21 9 -31 20 -18 19 -17 20 7 20
14 0 31 7 38 15 12 14 11 24 -6 138 -8 49 0 47 24 -5z m2418 5 c-7 -7 -26 7
-26 19 0 6 6 6 15 -2 9 -7 13 -15 11 -17z m-2242 -23 c42 -47 44 -54 14 -45
-19 6 -21 5 -10 -6 17 -19 15 -29 -7 -29 -24 0 -44 24 -46 58 -1 15 -5 35 -9
45 -15 32 20 19 58 -23z m1468 -50 c-29 -28 -59 -50 -65 -50 -7 0 -4 7 6 14
21 16 22 30 2 22 -8 -3 -15 -1 -15 4 0 13 82 60 105 60 16 -1 8 -12 -33 -50z
m-1480 -74 c11 -20 10 -20 -9 -3 -27 23 -40 22 -18 -3 10 -11 14 -20 9 -20
-17 0 -93 89 -100 117 -7 26 -4 25 50 -22 31 -26 62 -58 68 -69z m127 38 c1
-15 -25 -25 -44 -18 -8 4 -15 1 -15 -6 0 -6 4 -9 9 -6 4 3 16 -3 26 -14 12
-14 14 -20 5 -20 -10 0 -9 -4 1 -17 13 -15 11 -16 -16 -9 -16 4 -42 21 -57 39
l-27 32 27 5 c22 4 28 11 30 38 l3 32 29 -22 c16 -13 29 -28 29 -34z m2053 15
c30 -29 30 -31 11 -44 -11 -8 -30 -11 -41 -8 -25 6 -30 23 -6 23 9 0 14 6 11
13 -2 6 -14 11 -27 9 -23 -2 -50 13 -50 29 0 5 16 9 36 9 26 0 43 -8 66 -31z
m73 2 c10 -17 -12 -21 -25 -6 -10 12 -10 15 3 15 9 0 18 -4 22 -9z m-755 -34
c0 -8 -11 -24 -25 -37 l-25 -23 0 24 c0 27 17 49 37 49 7 0 13 -6 13 -13z
m-1272 -40 c12 -11 22 -25 22 -31 0 -6 -5 -4 -10 4 -7 11 -10 12 -10 2 0 -8 9
-16 20 -19 11 -3 20 -9 20 -14 0 -19 -23 -18 -62 4 -37 20 -43 29 -46 61 -2
35 -2 36 20 25 13 -6 33 -21 46 -32z m2032 14 c16 -30 12 -36 -10 -16 -21 19
-26 35 -10 35 5 0 14 -9 20 -19z m-2310 -42 c0 -14 -12 -10 -26 9 -22 29 -16
51 6 23 11 -13 20 -27 20 -32z m1430 16 c-29 -28 -100 -60 -100 -45 0 5 7 10
16 10 11 0 14 5 10 16 -9 23 21 43 64 44 l35 0 -25 -25z m160 6 c0 -12 -19
-25 -42 -28 -21 -3 -23 8 -6 25 14 14 48 16 48 3z m-1445 -62 c25 -26 33 -38
20 -33 -20 7 -20 7 -1 -14 39 -45 -38 -7 -87 42 -33 33 -33 34 -4 39 12 2 24
5 27 5 3 1 23 -17 45 -39z m1310 20 c8 -13 6 -15 -23 -24 -22 -6 -23 -5 -13
14 13 23 26 27 36 10z m-1188 -47 c4 -9 11 -20 17 -24 8 -5 8 -8 0 -8 -5 0
-19 7 -30 15 -10 8 -27 15 -36 15 -22 0 -43 36 -25 43 17 6 67 -21 74 -41z
m123 33 c37 -19 39 -28 5 -19 -15 4 -25 2 -25 -5 0 -6 11 -13 25 -17 14 -3 23
-10 20 -14 -6 -9 -40 -1 -69 16 -15 9 -16 15 -7 33 14 25 14 25 51 6z m-469
-10 c0 -13 -41 -19 -41 -7 0 11 20 22 33 18 5 -1 8 -6 8 -11z m1379 -5 c0 -8
-51 -40 -65 -40 -3 0 -5 7 -5 15 0 8 -6 15 -12 16 -19 1 33 17 60 18 12 1 22
-3 22 -9z m-1225 -20 c12 -13 14 -20 5 -20 -10 0 -10 -3 0 -15 21 -25 -5 -17
-29 9 -13 14 -20 29 -16 35 9 16 20 14 40 -9z m1411 9 c9 -16 -50 -64 -99 -80
-30 -10 -42 -10 -44 -2 -3 7 -11 9 -19 6 -17 -6 -19 11 -1 25 6 5 34 17 61 26
27 9 57 21 65 26 21 12 28 12 37 -1z m-156 -19 c-34 -27 -63 -26 -31 0 13 11
31 20 40 20 12 0 10 -5 -9 -20z m-740 0 c0 -5 -2 -10 -4 -10 -3 0 -8 5 -11 10
-3 6 -1 10 4 10 6 0 11 -4 11 -10z m-105 -20 c12 -13 14 -20 5 -20 -7 0 -10
-7 -6 -15 7 -19 -7 -19 -47 2 -31 16 -32 16 -9 26 12 6 22 14 22 19 0 14 16 9
35 -12z m-79 -36 l29 -24 -30 7 c-27 6 -29 5 -16 -11 13 -15 12 -16 -15 -6
-45 18 -55 29 -42 50 13 21 35 17 74 -16z m251 -21 c10 -18 24 -33 33 -33 11
-1 8 -6 -9 -20 -23 -20 -46 -27 -38 -12 8 13 -12 52 -27 52 -17 0 -26 22 -19
48 4 18 8 19 24 9 10 -6 26 -26 36 -44z m348 47 c10 -17 -13 -37 -49 -44 -18
-3 -42 -16 -53 -29 -11 -12 -29 -29 -39 -38 -10 -9 -33 -32 -51 -52 -22 -24
-38 -34 -51 -30 -11 2 -37 -5 -58 -16 -46 -25 -54 -26 -54 -6 0 11 -8 13 -31
8 -25 -5 -31 -3 -27 8 3 8 10 13 16 12 6 -2 9 4 6 12 -4 10 0 15 14 15 12 0
23 4 27 9 3 5 19 12 36 16 16 4 59 26 94 50 35 23 71 45 79 48 9 4 16 11 16
16 0 14 31 22 45 11 8 -6 18 -5 31 5 23 17 40 19 49 5z m-743 -16 c41 -21 23
-43 -21 -24 -31 12 -37 21 -24 33 9 9 10 9 45 -9z m943 6 c-7 -12 -85 -33 -93
-25 -3 3 -7 12 -8 20 -2 12 10 15 52 15 33 0 53 -4 49 -10z m-1027 -12 c12
-12 17 -58 7 -58 -13 0 -45 37 -45 52 0 21 20 24 38 6z m1092 -2 c0 -16 -14
-36 -26 -36 -14 0 -19 22 -7 33 7 8 33 10 33 3z m194 -18 c-8 -29 -5 -27 -44
-34 -41 -9 -38 12 6 37 39 24 47 23 38 -3z m-1346 -13 c-3 -3 -9 2 -12 12 -6
14 -5 15 5 6 7 -7 10 -15 7 -18z m638 -4 c-12 -19 -24 -12 -19 10 4 13 9 17
15 11 6 -6 7 -15 4 -21z m-226 -16 c35 -3 35 -4 23 -16 -7 -7 -21 -6 -47 5
-20 8 -36 18 -36 22 0 3 8 3 18 -1 9 -4 28 -9 42 -10z m620 5 c0 -5 -22 -10
-50 -10 -27 0 -50 5 -50 10 0 6 23 10 50 10 28 0 50 -4 50 -10z m183 -52 c-6
-12 -61 -9 -68 3 -4 5 7 15 24 22 17 6 31 16 32 22 1 5 4 -1 8 -15 5 -14 6
-28 4 -32z m-1005 32 l26 0 -23 -16 c-22 -16 -24 -15 -44 6 -19 20 -20 22 -4
16 10 -3 31 -6 45 -6z m93 0 c10 0 19 -6 19 -14 0 -18 -45 -9 -62 12 -11 13
-10 15 5 9 10 -4 27 -7 38 -7z m793 -14 c-3 -8 -19 -17 -36 -20 -67 -13 -75
-2 -15 21 44 16 57 16 51 -1z m205 -13 c-12 -14 -68 -43 -84 -43 -3 0 -5 5 -5
10 0 6 5 10 11 10 6 0 22 9 36 20 33 26 62 28 42 3z m-1581 -20 c-2 -16 -11
-34 -22 -42 -15 -12 -17 -22 -12 -67 3 -29 8 -59 12 -67 3 -8 -6 -27 -20 -43
-19 -22 -25 -25 -26 -12 0 9 5 20 11 23 6 4 7 14 3 24 -4 9 -6 28 -5 43 1 15
-3 29 -9 33 -16 10 -12 52 5 59 9 3 25 21 36 41 25 42 31 44 27 8z m487 -2
c28 -12 59 -26 70 -31 14 -6 8 -7 -23 -5 -43 4 -112 38 -112 57 0 5 3 8 8 6 4
-2 30 -14 57 -27z m745 9 c0 -16 -7 -20 -35 -20 -28 0 -35 4 -35 20 0 16 7 20
35 20 28 0 35 -4 35 -20z m-840 0 c0 -5 -2 -10 -4 -10 -3 0 -8 5 -11 10 -3 6
-1 10 4 10 6 0 11 -4 11 -10z m150 -2 c0 -14 -16 -16 -39 -3 -24 12 -24 12 8
11 17 0 31 -4 31 -8z m177 -2 c3 -3 2 -10 -2 -16 -8 -13 -43 -3 -64 18 -14 14
-12 15 23 9 21 -3 41 -8 43 -11z m53 -6 c0 -5 -8 -10 -17 -10 -15 0 -16 2 -3
10 19 12 20 12 20 0z m1696 -21 c-3 -17 -6 -46 -7 -63 -1 -26 -3 -24 -10 14
-9 48 -4 80 13 80 6 0 8 -12 4 -31z m-1841 7 l30 -13 -27 -5 c-19 -3 -33 1
-44 13 -21 23 -5 25 41 5z m752 -3 c5 -15 -52 -22 -74 -9 -16 9 -13 11 17 17
42 8 53 6 57 -8z m213 7 c0 -5 -5 -10 -11 -10 -5 0 -7 5 -4 10 3 6 8 10 11 10
2 0 4 -4 4 -10z m-492 -28 c2 -7 -2 -10 -12 -6 -24 9 -31 -23 -11 -46 11 -12
13 -20 7 -20 -7 0 -12 -7 -12 -15 0 -8 -4 -15 -10 -15 -5 0 -10 6 -10 13 0 19
-20 36 -36 30 -8 -3 -12 -9 -9 -13 10 -16 -13 -20 -25 -4 -11 12 -9 18 11 32
13 9 38 27 54 39 32 23 46 24 53 5z m362 10 c0 -9 -68 -33 -86 -31 -10 1 66
38 79 39 4 0 7 -4 7 -8z m150 -12 c-8 -6 -22 -10 -30 -9 -9 0 -5 6 10 14 27
14 44 10 20 -5z m-50 -5 c0 -3 -6 -14 -12 -26 -12 -18 -9 -24 20 -49 25 -24
32 -38 32 -67 0 -50 19 -85 56 -103 16 -8 40 -25 52 -37 16 -17 34 -23 66 -23
27 0 51 -6 60 -15 9 -9 39 -19 68 -22 29 -3 64 -14 78 -23 16 -11 32 -15 45
-10 20 7 45 -4 45 -21 0 -13 -867 -12 -872 2 -2 5 -22 13 -44 16 -29 4 -43 1
-53 -11 -20 -24 -40 -20 -34 7 11 46 48 54 111 21 25 -13 76 -4 96 17 8 8 1
10 -26 5 -24 -4 -54 -1 -83 8 -67 23 -114 1 -115 -51 0 -26 -23 -30 -65 -11
-26 12 -41 46 -32 70 3 7 6 1 6 -14 1 -41 21 -34 21 7 0 37 18 53 75 65 21 4
25 8 15 12 -9 3 -33 0 -53 -7 -28 -9 -37 -10 -34 -1 6 19 79 29 125 16 31 -8
46 -18 52 -36 11 -28 30 -24 30 7 0 14 7 19 25 19 26 0 34 -15 13 -23 -23 -8
-1 -18 25 -12 22 6 25 11 20 36 -8 44 4 76 41 104 61 47 124 51 161 11 26 -29
55 -34 55 -11 0 8 5 15 10 15 14 0 13 -13 -2 -28 -6 -6 -8 -15 -5 -19 10 -10
33 17 40 47 5 21 0 31 -28 55 -36 30 -43 53 -23 73 12 12 38 17 38 7z m80 -10
c-7 -8 -17 -15 -22 -15 -6 0 -5 7 2 15 7 8 17 15 22 15 6 0 5 -7 -2 -15z
m-1010 -15 c0 -5 -5 -10 -11 -10 -5 0 -7 5 -4 10 3 6 8 10 11 10 2 0 4 -4 4
-10z m585 -9 c20 -4 26 -9 18 -14 -15 -9 -81 1 -89 14 -6 10 25 10 71 0z m271
-13 c3 -13 13 -31 22 -41 12 -14 13 -20 3 -30 -8 -8 -14 -9 -19 -1 -4 6 -21
18 -38 27 -29 15 -35 15 -84 -3 -48 -17 -67 -29 -108 -68 -8 -7 -17 -24 -21
-39 -5 -18 -14 -27 -29 -28 -13 -1 -27 -6 -33 -12 -7 -7 -20 -6 -42 6 -19 9
-53 15 -84 15 -42 -1 -59 -7 -87 -30 -39 -33 -55 -83 -38 -126 l10 -28 -71 -2
c-219 -5 -427 -4 -427 1 0 3 9 20 20 36 11 17 18 37 15 45 -4 12 6 15 50 16
109 3 202 80 193 159 l-4 35 67 0 c37 0 71 4 74 10 4 6 15 4 30 -6 14 -9 44
-15 77 -14 29 0 88 -3 130 -6 65 -6 83 -3 120 14 24 11 68 26 98 32 31 7 76
22 100 35 59 29 67 29 76 3z m110 8 c3 -8 12 -12 21 -9 13 5 13 3 2 -15 -13
-20 -13 -20 -31 3 -10 13 -18 26 -18 29 0 12 21 5 26 -8z m819 -16 c0 -13 -6
-25 -12 -27 -9 -3 -13 6 -13 27 0 21 4 30 13 28 6 -3 12 -15 12 -28z m-1105 0
c0 -6 -11 -8 -27 -4 -40 10 -41 14 -5 14 18 0 32 -5 32 -10z m-130 -30 c8 -5
11 -12 7 -17 -5 -4 -11 -3 -15 3 -4 6 -14 14 -22 17 -13 5 -13 5 0 6 8 0 22
-3 30 -9z m1190 -55 c0 -18 -7 -28 -24 -35 -14 -5 -43 -34 -66 -64 -24 -31
-47 -56 -54 -57 -60 -4 -145 -5 -163 -1 -30 6 -47 60 -26 82 12 13 16 13 31
-6 15 -18 27 -20 97 -19 86 1 110 9 101 31 -3 8 1 14 9 14 8 0 29 18 47 40 39
46 48 49 48 15z m70 3 c-1 -29 -22 -58 -43 -58 -13 0 -15 5 -8 23 5 12 12 30
15 40 8 25 36 21 36 -5z m-682 -41 c15 -41 15 -47 2 -47 -5 0 -10 5 -10 12 0
6 -7 19 -16 29 -9 10 -13 23 -9 28 11 19 21 12 33 -22z m722 -9 c0 -38 -2 -41
-15 -27 -13 12 -13 19 -3 42 7 15 14 27 16 27 1 0 2 -19 2 -42z m-110 -17 c0
-5 -7 -12 -16 -15 -24 -9 -28 -7 -14 9 14 17 30 20 30 6z m-123 -7 c-3 -3 -12
-4 -19 -1 -8 3 -5 6 6 6 11 1 17 -2 13 -5z m178 -28 c22 9 28 -16 9 -37 -9
-10 -13 -19 -9 -19 4 0 0 -9 -10 -20 -10 -11 -24 -20 -32 -20 -7 0 -13 -7 -13
-15 0 -8 -4 -15 -8 -15 -21 0 -19 15 4 45 30 40 19 51 -32 35 -19 -7 -38 -10
-41 -7 -10 11 9 27 31 27 13 0 34 9 47 19 13 11 28 16 33 11 5 -5 14 -6 21 -4z
m-2878 -37 c-10 -26 -9 -36 10 -70 24 -43 22 -48 -8 -20 -25 23 -37 95 -19
116 19 23 29 8 17 -26z m150 25 c-3 -3 -12 -4 -19 -1 -8 3 -5 6 6 6 11 1 17
-2 13 -5z m-91 -21 c4 3 14 -1 23 -11 9 -10 25 -18 36 -18 43 -1 94 -17 110
-34 20 -23 10 -49 -24 -56 -14 -3 -36 -9 -48 -14 -14 -6 -25 -6 -28 0 -4 6
-19 10 -35 10 -20 0 -31 6 -35 20 -3 11 -10 20 -14 20 -4 0 -13 16 -20 35 -10
29 -10 39 0 51 10 12 14 12 20 2 4 -7 11 -9 15 -5z m184 -3 c12 -13 21 -17 25
-10 7 12 25 4 25 -11 0 -11 -59 -2 -77 13 -7 5 -10 14 -7 19 8 13 15 11 34
-11z m2233 -63 c-7 -11 -43 12 -43 28 0 7 3 21 7 30 5 14 9 11 24 -16 9 -19
15 -37 12 -42z m457 49 c0 -7 -8 -20 -17 -27 -15 -12 -16 -12 -10 4 4 10 7 23
7 28 0 5 5 9 10 9 6 0 10 -6 10 -14z m-2555 -87 l30 -21 -29 7 c-42 9 -69 49
-49 69 5 4 10 -2 13 -13 3 -12 19 -31 35 -42z m-70 24 c6 -12 17 -28 24 -37
12 -14 8 -16 -42 -16 l-54 0 20 40 c21 43 35 47 52 13z m2415 17 c0 -5 -4 -10
-10 -10 -5 0 -10 5 -10 10 0 6 5 10 10 10 6 0 10 -4 10 -10z m-60 -10 c0 -5
-6 -10 -14 -10 -8 0 -18 5 -21 10 -3 6 3 10 14 10 12 0 21 -4 21 -10z m-2030
-52 c0 -10 -12 -11 -75 -8 -58 2 -62 4 -46 24 17 21 93 25 109 7 6 -8 12 -18
12 -23z m2290 3 c-6 -13 -17 -17 -35 -13 l-26 5 28 17 c33 20 47 16 33 -9z
m-125 -1 c16 -7 13 -9 -17 -9 -21 -1 -38 4 -38 9 0 12 27 12 55 0z m-1192 -7
c-7 -2 -19 -2 -25 0 -7 3 -2 5 12 5 14 0 19 -2 13 -5z"/>
<g>
<path d="M375 5190 c-3 -5 7 -8 25 -7 16 1 30 5 30 10 0 11 -48 9 -55 -3z"/>
</g>
<g>
<path d="M520 5190 c-11 -7 -8 -9 15 -8 17 1 39 -2 50 -6 20 -8 20 -7 1 8 -22
18 -44 20 -66 6z"/>
</g>
<g>
<path d="M1235 5189 c4 -5 17 -9 28 -8 39 3 45 -1 61 -32 15 -30 15 -33 -12
-65 -15 -18 -37 -33 -49 -33 -13 -1 -23 -5 -23 -11 0 -6 80 -10 220 -10 140 0
220 4 220 10 0 6 -11 10 -24 10 -29 0 -36 16 -36 79 0 45 2 49 33 59 24 7 -23
10 -196 11 -158 1 -226 -2 -222 -10z m139 -8 c3 -5 -1 -14 -8 -20 -16 -13 -32
2 -21 19 8 12 22 13 29 1z m83 -23 c23 -33 22 -42 -16 -85 -26 -31 -33 -29
-55 17 l-19 40 28 30 c16 17 31 30 34 30 3 0 16 -15 28 -32z m63 18 c0 -2 -7
-17 -15 -32 -12 -24 -15 -26 -15 -8 0 11 -5 25 -12 32 -9 9 -6 12 15 12 15 0
27 -2 27 -4z m70 -61 c0 -58 -2 -65 -19 -65 -18 0 -61 47 -61 66 0 13 53 64
67 64 9 0 13 -18 13 -65z m-210 -57 c0 -5 -13 -8 -30 -8 -34 0 -37 6 -14 32
16 17 18 17 30 0 7 -9 14 -20 14 -24z m130 12 c10 -18 8 -20 -25 -20 -33 0
-34 1 -23 20 7 11 18 20 25 20 7 0 17 -9 23 -20z"/>
</g>
<g>
<path d="M688 5183 c6 -2 18 -2 25 0 6 3 1 5 -13 5 -14 0 -19 -2 -12 -5z"/>
</g>
<g>
<path d="M754 5167 c11 -7 28 -20 38 -29 27 -27 35 -22 9 6 -13 13 -32 26 -44
29 -21 5 -21 5 -3 -6z"/>
</g>
<g>
<path d="M827 5158 c35 -25 43 -43 43 -104 0 -28 -6 -46 -20 -59 -11 -10 -20
-22 -20 -27 0 -18 49 48 55 75 13 50 -37 137 -79 137 -6 0 4 -10 21 -22z"/>
</g>
<g>
<path d="M390 5140 c20 -13 50 -13 50 0 0 6 -15 10 -32 10 -25 0 -29 -3 -18
-10z"/>
</g>
<g>
<path d="M492 5124 c10 -10 20 -15 24 -12 3 4 -5 12 -18 18 -22 12 -22 12 -6
-6z"/>
</g>
<g>
<path d="M740 5138 c0 -4 11 -24 25 -44 14 -21 25 -30 25 -21 0 15 -49 79 -50
65z"/>
</g>
<g>
<path d="M822 5085 c0 -16 2 -22 5 -12 2 9 2 23 0 30 -3 6 -5 -1 -5 -18z"/>
</g>
<g>
<path d="M453 5082 c21 -23 21 -44 2 -82 -10 -19 -23 -30 -38 -30 -22 -1 -22
-1 2 -14 l24 -13 -26 -7 c-34 -8 -97 -71 -97 -95 0 -24 25 -45 45 -37 8 3 15
14 15 24 0 35 116 115 131 91 11 -18 2 -29 -23 -29 -21 0 -21 0 -2 -18 17 -17
20 -17 32 -3 14 18 21 12 55 -50 26 -47 32 -28 7 21 -25 49 -42 141 -29 155
23 23 -8 96 -40 94 -10 0 -11 -2 -4 -6 8 -3 11 -15 7 -31 -12 -55 -16 -57 -30
-11 -8 26 -22 50 -31 53 -16 6 -16 6 0 -12z m80 -72 c-6 -16 -9 -40 -5 -52 4
-17 2 -20 -13 -15 -9 4 -24 2 -31 -4 -8 -6 -14 -9 -14 -5 0 12 25 51 42 63 11
9 15 22 12 41 -4 22 -3 25 8 14 9 -9 10 -19 1 -42z m-109 -104 c-3 -7 -16 -18
-30 -25 -15 -7 -27 -22 -30 -41 -7 -33 -24 -31 -24 3 0 13 14 34 32 49 36 30
61 36 52 14z"/>
</g>
<g>
<path d="M771 5034 c0 -11 3 -14 6 -6 3 7 2 16 -1 19 -3 4 -6 -2 -5 -13z"/>
</g>
<g>
<path d="M750 4995 c-7 -9 -11 -17 -9 -20 3 -2 10 5 17 15 14 24 10 26 -8 5z"/>
</g>
<g>
<path d="M795 4999 c-4 -6 -5 -12 -2 -15 2 -3 7 2 10 11 7 17 1 20 -8 4z"/>
</g>
<g>
<path d="M52 4910 c0 -14 2 -19 5 -12 2 6 2 18 0 25 -3 6 -5 1 -5 -13z"/>
</g>
<g>
<path d="M891 4909 c-15 -16 -26 -20 -46 -15 -17 4 -24 3 -20 -4 11 -18 64
-11 77 10 16 24 55 26 80 3 10 -9 18 -12 18 -7 0 38 -78 46 -109 13z"/>
</g>
<g>
<path d="M1335 4920 c-3 -5 3 -10 15 -10 12 0 18 5 15 10 -3 6 -10 10 -15 10
-5 0 -12 -4 -15 -10z"/>
</g>
<g>
<path d="M771 4894 c-1 -15 9 -26 29 -34 17 -7 33 -10 36 -8 3 3 -6 8 -19 12
-13 3 -29 16 -35 28 -10 23 -11 23 -11 2z"/>
</g>
<g>
<path d="M945 4880 c28 -12 37 -12 30 0 -3 6 -16 10 -28 9 -21 0 -21 -1 -2 -9z"/>
</g>
<g>
<path d="M41 4864 c0 -11 3 -14 6 -6 3 7 2 16 -1 19 -3 4 -6 -2 -5 -13z"/>
</g>
<g>
<path d="M890 4860 c-24 -19 -24 -19 -2 -13 12 3 25 10 28 15 11 18 -1 17 -26
-2z"/>
</g>
<g>
<path d="M219 4809 c-23 -23 -19 -51 14 -87 17 -18 19 -25 8 -31 -10 -7 -11
-13 -1 -31 10 -19 8 -25 -11 -46 l-23 -25 -8 22 c-6 15 -4 27 7 39 20 23 6 34
-17 13 -20 -18 -24 -48 -8 -58 14 -8 3 -24 -24 -35 l-21 -9 21 0 c12 -1 24 -8
28 -16 6 -17 42 -20 51 -4 11 16 -3 23 -19 10 -10 -8 -16 -9 -21 -1 -9 15 1
28 45 55 49 31 59 59 31 94 -34 42 -43 71 -32 103 12 33 8 35 -20 7z"/>
</g>
<g>
<path d="M364 4757 c11 -34 18 -117 12 -142 -4 -14 -20 -40 -37 -60 -24 -27
-39 -35 -68 -36 -32 -2 -33 -2 -7 -6 46 -7 110 31 127 75 7 18 17 22 51 23 43
1 43 1 13 11 -44 16 -52 24 -58 67 -3 22 -13 50 -22 63 -13 17 -16 18 -11 5z"/>
</g>
<g>
<path d="M535 4760 c3 -5 8 -20 10 -31 7 -35 12 -33 17 5 3 30 1 36 -15 36
-10 0 -15 -4 -12 -10z"/>
</g>
<g>
<path d="M549 4660 c-3 -30 -9 -36 -34 -41 -29 -6 -29 -7 7 -8 42 -1 55 19 39
60 -8 23 -9 22 -12 -11z"/>
</g>
<g>
<path d="M290 4473 c0 -7 4 -14 9 -18 16 -9 24 -91 11 -116 -11 -23 -11 -23 5
-4 21 25 15 109 -9 133 -9 9 -16 12 -16 5z"/>
</g>
<g>
<path d="M80 4454 c0 -14 27 -50 33 -44 3 3 -3 16 -13 30 -11 14 -20 20 -20
14z"/>
</g>
<g>
<path d="M137 4453 c-11 -11 -8 -43 4 -43 6 0 8 7 5 17 -4 9 -1 20 6 25 8 4 8
8 2 8 -6 0 -14 -3 -17 -7z"/>
</g>
<g>
<path d="M170 4456 c0 -2 9 -6 20 -9 11 -3 18 -1 14 4 -5 9 -34 13 -34 5z"/>
</g>
<g>
<path d="M258 4425 c2 -14 6 -25 8 -25 2 0 4 11 4 25 0 14 -4 25 -9 25 -4 0
-6 -11 -3 -25z"/>
</g>
<g>
<path d="M220 4425 c0 -5 5 -17 10 -25 5 -8 10 -10 10 -5 0 6 -5 17 -10 25 -5
8 -10 11 -10 5z"/>
</g>
<g>
<path d="M273 4353 c-10 -34 -10 -36 3 -19 12 17 20 56 11 56 -1 0 -7 -17 -14
-37z"/>
</g>
<g>
<path d="M53 4356 c15 -14 27 -27 27 -30 0 -3 -12 -1 -27 4 l-28 10 25 -19
c42 -33 91 -36 162 -9 15 5 29 16 32 23 3 10 -5 8 -27 -5 -18 -11 -48 -20 -67
-20 -34 1 -34 1 -12 13 22 13 21 13 -12 14 -19 1 -50 11 -68 23 l-33 22 28
-26z"/>
</g>
<g>
<path d="M30 4279 c0 -11 25 -22 39 -17 6 1 -1 8 -14 15 -14 6 -25 7 -25 2z"/>
</g>
<g>
<path d="M168 4273 c6 -2 18 -2 25 0 6 3 1 5 -13 5 -14 0 -19 -2 -12 -5z"/>
</g>
<g>
<path d="M210 4261 c-16 -5 -1 -7 41 -7 37 1 62 4 55 8 -14 9 -62 9 -96 -1z"/>
</g>
<g>
<path d="M130 4235 c-33 -19 -21 -19 21 0 19 8 27 14 19 14 -8 0 -26 -6 -40
-14z"/>
</g>
<g>
<path d="M195 4225 c-16 -8 -43 -27 -60 -41 -24 -20 -20 -19 18 6 26 17 66 35
90 39 35 7 37 9 12 10 -16 0 -43 -6 -60 -14z"/>
</g>
<g>
<path d="M85 4200 c-3 -6 1 -7 9 -4 18 7 21 14 7 14 -6 0 -13 -4 -16 -10z"/>
</g>
<g>
<path d="M164 4168 l-29 -33 33 29 c30 28 37 36 29 36 -2 0 -16 -15 -33 -32z"/>
</g>
<g>
<path d="M255 4190 c-3 -5 7 -8 25 -7 16 1 30 5 30 10 0 11 -48 9 -55 -3z"/>
</g>
<g>
<path d="M250 4150 c-13 -9 -13 -10 0 -10 8 0 22 5 30 10 13 9 13 10 0 10 -8
0 -22 -5 -30 -10z"/>
</g>
<g>
<path d="M97 4143 c-4 -3 -7 -18 -6 -32 1 -26 1 -25 10 3 9 31 7 41 -4 29z"/>
</g>
<g>
<path d="M198 4144 c-5 -4 -8 -35 -8 -69 0 -81 -23 -104 -110 -107 -60 -3 -75
-10 -44 -22 28 -11 64 -6 102 13 64 32 73 50 70 126 -2 37 -6 63 -10 59z"/>
</g>
<g>
<path d="M141 4114 c-1 -11 6 -29 15 -40 8 -10 12 -13 9 -6 -4 8 -11 26 -15
40 -7 22 -8 23 -9 6z"/>
</g>
<g>
<path d="M66 4052 c6 -4 13 -15 17 -24 7 -19 51 -25 61 -9 3 4 -6 6 -19 3 -18
-3 -25 0 -25 11 0 8 -7 18 -16 21 -21 8 -31 7 -18 -2z"/>
</g>
<g>
<path d="M145 3909 c-20 -13 -40 -18 -60 -14 -22 4 -27 3 -18 -6 16 -16 75 -3
105 21 30 25 12 24 -27 -1z"/>
</g>
<g>
<path d="M897 4649 c-9 -6 -17 -18 -17 -27 0 -14 4 -13 22 6 24 24 22 36 -5
21z"/>
</g>
<g>
<path d="M1373 4109 c-23 -12 -63 -45 -88 -74 -40 -47 -45 -59 -45 -101 0 -47
26 -124 42 -124 4 0 8 -6 8 -14 0 -11 -7 -11 -44 1 -37 13 -46 20 -52 46 -3
18 -11 35 -17 39 -17 10 -37 -11 -37 -38 0 -15 -6 -24 -15 -24 -21 0 -31 29
-17 51 17 27 14 38 -4 14 -13 -17 -16 -18 -24 -5 -6 8 -8 21 -5 28 9 24 -27
12 -56 -19 -16 -18 -35 -29 -43 -26 -8 3 -17 -1 -20 -9 -4 -10 -13 -13 -31 -8
-25 6 -36 -10 -12 -19 6 -2 -4 -5 -24 -5 -20 0 -46 -5 -57 -11 -31 -16 -56
-13 -85 9 l-26 21 -41 -21 c-22 -11 -40 -24 -40 -29 0 -5 -22 -25 -49 -44 -41
-30 -50 -42 -56 -77 -4 -23 -4 -44 -1 -47 3 -3 36 2 73 12 38 10 77 18 88 17
30 -2 95 17 95 28 0 6 -12 10 -27 10 -25 1 -24 2 12 15 35 13 41 12 60 -3 35
-30 44 -46 38 -69 -4 -17 -1 -23 10 -23 29 0 40 50 22 93 -12 28 -70 50 -91
35 -7 -5 -14 -3 -18 7 -8 21 -26 19 -26 -2 0 -15 -2 -15 -9 -4 -8 12 -12 13
-25 1 -21 -17 -25 -11 -19 22 5 24 7 26 35 16 16 -6 32 -8 35 -4 3 3 12 1 20
-6 11 -8 17 -7 28 8 13 17 14 18 15 2 0 -21 16 -24 23 -5 3 6 6 3 7 -8 1 -20
1 -20 15 -1 14 19 15 19 15 2 0 -15 3 -16 15 -6 12 10 15 9 15 -4 0 -10 5 -14
10 -11 14 9 12 -21 -2 -45 -15 -23 -4 -47 28 -64 10 -6 25 -19 32 -28 9 -13
18 -15 35 -9 12 5 27 9 32 10 27 3 55 17 105 51 30 20 71 40 90 44 104 23 107
23 130 6 17 -13 19 -19 10 -25 -7 -4 -16 -2 -21 6 -6 10 -9 8 -9 -9 0 -20 -49
-62 -72 -62 -22 0 -4 21 22 27 23 4 30 11 30 29 0 13 -4 24 -10 24 -5 0 -10
-7 -10 -15 0 -8 -4 -15 -10 -15 -5 0 -10 7 -10 15 0 8 -5 15 -10 15 -6 0 -10
-7 -8 -16 2 -10 -3 -19 -9 -21 -7 -3 -13 2 -13 11 0 9 -4 16 -9 16 -5 0 -8
-14 -7 -31 0 -18 -5 -34 -11 -36 -8 -3 -13 5 -13 21 0 14 -4 26 -10 26 -5 0
-10 -18 -10 -40 0 -43 -14 -54 -23 -19 -3 12 -10 18 -17 14 -6 -4 -9 -12 -7
-19 2 -6 0 -20 -4 -31 -8 -18 -8 -18 -6 4 1 13 -4 26 -10 28 -9 3 -13 -6 -13
-26 0 -16 -4 -33 -10 -36 -6 -4 -10 5 -10 20 0 15 -4 24 -10 20 -5 -3 -10 -17
-10 -31 0 -13 -4 -24 -10 -24 -5 0 -10 9 -10 20 0 11 -4 20 -10 20 -9 0 -12
-6 -14 -39 -1 -8 -7 -16 -15 -19 -9 -3 -11 2 -6 17 9 29 -13 27 -25 -1 l-9
-23 0 23 c-1 24 -21 32 -21 8 0 -8 -5 -18 -11 -22 -8 -4 -9 0 -4 15 8 25 -10
29 -20 4 -7 -17 -8 -17 -14 0 -7 19 -26 24 -26 7 0 -5 -4 -9 -10 -7 -5 1 -8 8
-7 16 6 26 -22 32 -41 8 -18 -22 -18 -22 -11 18 6 36 5 39 -9 27 -13 -11 -15
-10 -10 10 3 13 10 28 15 35 11 14 2 33 -16 33 -15 0 -46 -74 -46 -109 0 -14
14 -37 33 -55 18 -17 36 -39 40 -48 3 -10 13 -18 20 -18 8 0 20 -7 27 -15 16
-19 104 -19 183 -1 31 8 57 11 57 8 -1 -9 -25 -103 -43 -167 -8 -27 -30 -76
-50 -107 -21 -31 -37 -59 -37 -62 0 -3 -22 -26 -49 -51 -32 -30 -61 -72 -88
-128 -50 -103 -59 -110 -117 -102 -40 6 -45 10 -41 29 21 96 35 183 39 249 3
43 8 82 10 86 9 13 -14 81 -27 81 -21 0 -55 -72 -50 -105 5 -32 -3 -91 -36
-279 -19 -109 -35 -155 -49 -141 -3 2 1 11 8 20 17 21 -3 19 -22 -2 -19 -22
-13 -83 8 -83 17 0 18 -25 2 -144 -6 -50 -17 -100 -24 -111 -15 -23 -3 -88 18
-101 8 -5 9 -1 4 12 -17 43 -18 80 -2 93 39 32 64 -29 30 -77 -18 -26 -7 -30
12 -4 7 9 14 33 14 52 0 19 4 53 9 75 13 57 24 171 17 164 -4 -3 -12 -46 -19
-95 -11 -73 -16 -90 -32 -93 -17 -3 -18 3 -12 86 10 134 24 193 48 193 15 0
19 -7 20 -37 0 -21 3 -31 6 -23 10 26 26 31 87 24 l59 -6 61 63 c34 35 107
108 163 162 67 64 110 114 122 143 23 51 79 136 98 147 9 5 13 30 13 74 0 57
-2 64 -15 53 -9 -7 -13 -15 -11 -18 3 -2 1 -13 -4 -23 -7 -12 -7 -20 0 -24 17
-11 11 -25 -7 -18 -16 6 -16 5 -4 -11 13 -15 13 -19 0 -27 -8 -5 -19 -7 -25
-5 -7 3 -10 -6 -8 -20 2 -21 -1 -24 -19 -18 -16 5 -19 3 -11 -5 17 -18 -16
-102 -62 -157 -29 -36 -40 -44 -42 -31 -4 18 -22 24 -22 7 0 -5 -7 -10 -15
-10 -8 0 -12 -6 -9 -14 3 -7 -2 -20 -10 -29 -9 -9 -16 -23 -16 -31 0 -10 -6
-13 -15 -10 -11 5 -13 2 -9 -11 5 -11 2 -15 -7 -13 -14 3 -77 -61 -118 -119
-21 -31 -61 -46 -61 -23 0 6 10 10 22 10 12 0 18 3 14 7 -7 7 -72 15 -143 16
-42 1 -55 10 -30 20 9 4 9 6 -1 6 -14 1 -15 -4 20 204 18 111 25 137 38 134
12 -2 14 -14 12 -57 -4 -60 -38 -255 -47 -271 -9 -13 43 -11 95 5 45 13 52 21
100 108 41 76 76 124 126 174 28 28 61 73 74 100 26 58 60 162 60 185 0 8 9
34 20 57 11 22 20 46 20 52 0 5 5 10 10 10 6 0 10 6 10 13 0 21 89 107 110
107 11 0 21 4 24 9 3 5 18 12 33 16 15 3 34 12 42 18 8 7 26 12 40 12 17 0 25
5 23 14 -2 8 11 31 28 52 35 44 28 49 -25 17 l-37 -21 -39 44 c-55 62 -63 78
-44 85 18 7 20 34 2 34 -7 0 -18 -5 -25 -12 -9 -9 -12 -9 -12 0 0 7 7 15 15
18 8 4 15 11 15 16 0 6 -7 8 -15 4 -8 -3 -15 -1 -15 4 0 6 -4 10 -10 10 -5 0
-10 -11 -10 -25 0 -22 -3 -24 -19 -16 -13 7 -17 18 -13 37 3 19 7 22 13 12 6
-9 9 -4 9 15 0 16 -4 26 -10 22 -16 -10 -12 11 5 25 13 10 15 9 15 -9 0 -28
18 -27 30 2 11 26 45 67 56 67 4 0 -1 -9 -11 -20 -17 -18 -14 -25 9 -21 5 1
13 -4 17 -11 6 -9 12 -9 26 4 21 18 73 32 73 20 0 -4 -6 -14 -12 -21 -11 -11
-7 -12 20 -6 32 7 46 -8 17 -19 -22 -8 -19 -18 20 -75 19 -27 34 -61 34 -73 0
-13 2 -36 5 -53 18 -86 39 -116 101 -145 17 -8 38 -23 47 -35 14 -15 20 -17
26 -7 6 9 12 6 20 -13 15 -32 15 -72 2 -80 -15 -9 0 -55 32 -99 71 -98 -3
-204 -106 -151 -16 9 -31 13 -34 10 -3 -3 0 -5 7 -5 8 0 11 -8 8 -19 -3 -12 1
-21 12 -24 22 -5 24 -45 3 -50 -15 -4 -15 -5 1 -6 10 0 17 -7 14 -13 -2 -7
-10 -12 -16 -11 -6 2 -11 -2 -11 -7 0 -6 5 -10 10 -10 11 0 4 -14 -44 -93 -18
-30 -34 -46 -42 -43 -8 3 -14 1 -14 -5 0 -11 -61 -92 -89 -119 -23 -22 -84
-99 -115 -144 -32 -47 -36 -20 -5 30 24 39 8 47 -17 9 -9 -14 -18 -24 -20 -22
-6 6 20 67 28 67 4 0 8 5 8 10 0 19 -16 10 -34 -21 -10 -17 -20 -28 -23 -26
-6 7 17 46 46 80 24 26 18 40 -7 15 -6 -6 -15 -9 -18 -5 -3 3 9 20 27 36 21
20 28 31 18 31 -8 0 -20 -5 -27 -12 -15 -15 -16 -3 -2 23 6 10 17 19 25 19 8
0 15 5 15 10 0 6 -7 10 -15 10 -19 0 -9 30 19 52 11 9 18 20 14 24 -4 4 -14 1
-23 -6 -12 -10 -15 -10 -15 0 0 7 8 19 18 27 16 14 16 14 0 9 -25 -8 -22 8 5
28 l22 17 -25 -6 c-14 -2 -19 -2 -12 1 20 9 14 44 -10 53 -19 7 -15 10 32 26
66 21 80 31 80 57 0 17 -4 15 -25 -10 -31 -37 -93 -50 -138 -27 -42 21 -56 4
-20 -25 27 -21 28 -25 31 -129 4 -96 1 -113 -19 -162 -30 -68 -34 -205 -7
-257 13 -24 14 -40 7 -65 -12 -42 -12 -124 1 -147 6 -11 12 -32 14 -48 3 -28
71 -122 88 -122 12 0 9 18 -3 22 -15 5 -14 78 2 139 13 48 22 59 34 39 3 -5 1
-10 -5 -10 -7 0 -9 -8 -5 -20 3 -11 2 -20 -4 -20 -12 0 -5 -140 9 -154 16 -16
20 -2 8 36 -13 44 -4 99 22 130 l19 23 -14 -40 c-8 -22 -14 -56 -15 -75 0 -34
36 -118 73 -170 22 -31 22 -35 -6 -47 -13 -6 -54 -39 -93 -74 -38 -35 -80 -72
-94 -81 -18 -12 -20 -17 -9 -17 19 -1 99 55 99 69 0 5 24 28 53 50 28 22 58
45 65 51 25 20 45 -13 43 -71 -1 -54 -13 -80 -38 -80 -17 0 -162 -76 -186 -98
-27 -24 -67 -114 -66 -148 l1 -29 7 31 c4 16 21 55 37 85 23 43 39 59 79 79
145 72 165 73 165 12 0 -40 25 -149 39 -166 27 -36 21 -45 -57 -82 -61 -28
-85 -34 -114 -30 -36 6 -108 -18 -108 -35 0 -4 -21 -10 -47 -14 -27 -3 -66
-18 -88 -32 -39 -26 -39 -26 -17 -41 12 -8 22 -17 22 -21 0 -3 -34 -7 -75 -9
-42 -2 -88 -7 -103 -13 -63 -24 -82 -71 -37 -91 14 -6 25 -16 25 -22 0 -7 13
-26 29 -44 24 -26 38 -32 69 -32 30 0 44 -6 56 -23 10 -14 14 -16 10 -4 -8 23
8 22 40 -4 25 -20 32 -20 79 -11 29 6 62 14 74 18 18 5 25 1 34 -20 11 -23 18
-26 63 -26 28 0 58 5 66 10 12 8 9 10 -12 10 -31 0 -33 3 -17 32 9 17 8 19 -9
14 -14 -5 -27 0 -39 13 -10 11 -31 23 -46 26 -18 5 -26 12 -23 21 12 32 -74
44 -163 23 -30 -6 -48 -6 -54 0 -16 16 37 31 110 31 39 0 78 6 99 16 33 16 38
23 35 55 -2 13 9 16 66 15 37 -1 86 3 109 7 l41 8 28 -87 c36 -108 47 -122
105 -125 123 -6 136 6 86 84 -22 34 -37 75 -45 118 -19 109 -18 110 52 143 34
16 85 51 112 78 28 26 65 63 84 81 51 49 77 94 106 186 28 87 29 156 3 205 -7
12 -23 54 -38 94 -27 78 -75 136 -159 195 -37 27 -52 49 -92 132 -53 114 -84
223 -75 269 3 17 10 52 15 77 6 26 11 67 12 92 2 25 6 44 11 41 4 -3 26 -31
47 -62 38 -56 101 -123 101 -108 0 4 -25 37 -55 73 -90 106 -103 142 -76 213
10 26 20 87 21 128 0 39 15 24 35 -35 24 -76 76 -176 149 -291 44 -70 65 -94
85 -98 14 -3 42 -9 62 -15 21 -5 44 -6 53 -3 9 3 16 1 16 -5 0 -6 -11 -11 -24
-11 -13 0 -36 -7 -52 -14 -15 -8 -32 -12 -37 -9 -6 4 -7 1 -2 -7 5 -8 20 -10
45 -6 28 4 39 2 44 -9 16 -44 -182 9 -224 60 -7 8 -18 15 -24 15 -15 0 41 -46
84 -69 29 -15 77 -31 166 -56 6 -2 19 -45 28 -97 10 -51 22 -114 28 -141 5
-26 7 -63 4 -82 -6 -29 -3 -38 23 -61 38 -33 42 -34 53 -5 7 20 6 22 -6 12
-11 -10 -19 -9 -35 1 -23 14 -26 30 -11 59 16 28 35 23 54 -13 14 -26 16 -27
11 -8 -23 91 -45 197 -51 248 -5 50 -4 60 11 66 12 4 15 13 11 31 -5 20 -3 25
14 25 21 0 27 14 11 24 -5 4 -11 1 -13 -6 -3 -9 -12 -8 -31 5 -32 20 -38 43
-8 27 36 -19 36 -10 0 23 -37 34 -47 69 -79 262 -11 65 -46 155 -61 155 -4 0
-14 -12 -24 -26 -20 -30 -18 -49 18 -184 34 -126 41 -153 41 -164 1 -4 -18
-10 -42 -12 -38 -4 -47 0 -71 27 -38 41 -167 257 -186 311 -47 130 -56 164
-64 238 -7 62 -14 86 -30 101 -12 11 -21 32 -21 47 0 16 -12 43 -27 60 -14 18
-32 43 -38 55 -16 33 -59 51 -84 35 -26 -16 -53 4 -33 24 7 7 12 22 12 35 0
13 7 26 15 29 11 5 14 20 12 65 -2 32 -7 62 -10 66 -4 3 -7 19 -7 35 0 29 -49
83 -75 83 -7 0 -22 9 -34 19 -22 20 -79 28 -98 14 -7 -6 -20 -5 -32 1 -26 14
-28 14 -78 -10z m77 -9 c0 -5 -8 -10 -19 -10 -10 0 -35 -7 -56 -16 -20 -8 -34
-10 -30 -4 15 25 105 51 105 30z m150 -30 c0 -12 0 -12 -39 1 -30 11 -37 19
-25 32 9 8 64 -21 64 -33z m-140 -10 c13 -8 13 -9 0 -14 -8 -2 -24 -7 -35 -11
-11 -3 -16 -3 -12 1 4 4 2 13 -4 21 -9 10 -6 13 12 13 13 0 31 -4 39 -10z
m125 -21 c12 -18 -1 -20 -31 -4 l-29 15 27 0 c15 0 30 -5 33 -11z m75 2 c0
-14 -18 -23 -31 -15 -8 4 -7 9 2 15 18 11 29 11 29 0z m-10 -63 c0 -6 -7 -5
-15 2 -8 7 -15 17 -15 22 0 6 7 5 15 -2 8 -7 15 -17 15 -22z m-26 -38 c-14
-14 -39 14 -29 31 5 8 12 6 23 -5 11 -11 13 -19 6 -26z m-64 26 c0 -2 -7 -6
-15 -10 -8 -3 -15 -1 -15 4 0 6 7 10 15 10 8 0 15 -2 15 -4z m85 -46 c-7 -12
-45 -14 -45 -2 0 4 11 9 26 10 14 1 23 -2 19 -8z m33 -12 c0 -7 2 -22 4 -33 4
-25 -21 -27 -36 -3 -8 14 -6 21 9 32 11 9 20 16 21 16 0 0 1 -6 2 -12z m-86
-40 c-7 -7 -12 -8 -12 -2 0 14 12 26 19 19 2 -3 -1 -11 -7 -17z m-545 -14 c-3
-3 -12 -4 -19 -1 -8 3 -5 6 6 6 11 1 17 -2 13 -5z m243 -16 c0 -19 -2 -20 -10
-8 -13 19 -13 30 0 30 6 0 10 -10 10 -22z m-210 -7 c0 -10 7 -21 15 -25 19 -7
20 -26 1 -26 -7 0 -16 8 -19 18 -2 9 -8 25 -12 35 -4 10 -3 17 4 17 6 0 11 -9
11 -19z m520 -11 c0 -5 -4 -10 -10 -10 -5 0 -10 5 -10 10 0 6 5 10 10 10 6 0
10 -4 10 -10z m60 -10 c0 -19 -20 -27 -33 -13 -8 7 11 33 24 33 5 0 9 -9 9
-20z m-480 0 c0 -5 -4 -10 -10 -10 -5 0 -10 5 -10 10 0 6 5 10 10 10 6 0 10
-4 10 -10z m-463 -6 c-3 -3 -12 -4 -19 -1 -8 3 -5 6 6 6 11 1 17 -2 13 -5z
m243 -3 c0 -6 -4 -13 -10 -16 -5 -3 -10 1 -10 9 0 9 5 16 10 16 6 0 10 -4 10
-9z m51 -18 c-8 -15 -10 -15 -11 -2 0 17 10 32 18 25 2 -3 -1 -13 -7 -23z
m-321 -27 c0 -2 -7 -6 -15 -10 -8 -3 -15 -1 -15 4 0 6 7 10 15 10 8 0 15 -2
15 -4z m-80 -62 c0 -8 -4 -12 -10 -9 -5 3 -10 10 -10 16 0 5 5 9 10 9 6 0 10
-7 10 -16z m558 -14 c7 0 12 7 12 15 0 8 7 15 16 15 28 0 9 -22 -41 -48 -56
-30 -108 -33 -132 -9 -14 14 -15 17 -3 18 8 1 24 2 35 3 11 1 30 3 43 4 13 1
22 9 22 19 0 15 1 15 18 0 10 -10 24 -17 30 -17z m-95 9 c-8 -8 -19 -8 -40 -1
-28 10 -28 10 12 11 28 1 36 -2 28 -10z m747 -83 c0 -3 -4 -8 -10 -11 -5 -3
-10 -1 -10 4 0 6 5 11 10 11 6 0 10 -2 10 -4z m-650 -90 c0 -3 -14 -14 -31
-27 -34 -24 -179 -46 -206 -31 -10 6 13 11 66 15 56 3 91 11 113 25 31 19 58
27 58 18z m695 -37 c12 -19 -5 -23 -22 -6 -16 16 -16 17 -1 17 9 0 20 -5 23
-11z m15 -99 c0 -5 -4 -10 -10 -10 -5 0 -10 5 -10 10 0 6 5 10 10 10 6 0 10
-4 10 -10z m-15 -69 c3 -5 1 -12 -5 -16 -5 -3 -10 1 -10 9 0 18 6 21 15 7z
m-4 -54 c-13 -13 -26 -3 -16 12 3 6 11 8 17 5 6 -4 6 -10 -1 -17z m-1121 -56
c0 -45 -7 -54 -31 -40 -23 12 -24 37 -3 67 21 30 34 19 34 -27z m1115 30 c3
-5 1 -12 -5 -16 -5 -3 -10 1 -10 9 0 18 6 21 15 7z m395 -35 c14 -25 13 -28
-5 -42 -28 -21 -50 3 -40 45 8 37 24 36 45 -3z m-400 -16 c0 -5 -5 -10 -11
-10 -6 0 -8 -9 -4 -20 5 -14 2 -20 -9 -20 -19 0 -19 2 -4 35 11 25 28 34 28
15z m-96 -79 c-20 -40 -43 -75 -50 -78 -8 -3 -14 -12 -14 -21 0 -8 -8 -24 -17
-35 -10 -10 -18 -26 -18 -35 0 -10 -7 -16 -17 -16 -9 1 -14 -4 -12 -11 6 -16
-12 -29 -21 -15 -3 5 12 33 35 61 22 28 40 55 40 60 0 6 8 22 19 37 10 15 33
51 51 80 18 29 34 51 37 49 2 -2 -13 -37 -33 -76z m-364 35 c0 -3 -4 -8 -10
-11 -5 -3 -10 -1 -10 4 0 6 5 11 10 11 6 0 10 -2 10 -4z m866 -32 c1 -10 4
-26 7 -34 10 -23 47 -171 47 -187 0 -28 -25 -6 -32 28 -4 19 -16 70 -27 114
-11 44 -20 86 -21 93 0 21 25 7 26 -14z m-432 1 c3 -9 0 -15 -8 -15 -9 0 -12
-7 -9 -18 3 -13 -1 -19 -12 -19 -11 0 -14 6 -9 16 3 9 9 24 11 34 6 21 19 22
27 2z m-36 -83 c2 -7 -3 -12 -12 -12 -9 0 -16 -5 -16 -12 0 -6 -2 -9 -5 -7 -2
3 -2 15 2 27 6 23 24 25 31 4z m-58 -66 c0 -3 -4 -8 -10 -11 -5 -3 -10 -1 -10
4 0 6 5 11 10 11 6 0 10 -2 10 -4z m-10 -47 c0 -5 -7 -9 -16 -9 -11 0 -14 -6
-9 -20 4 -13 -2 -35 -15 -58 -14 -24 -18 -38 -11 -40 9 -3 8 -8 -1 -20 -10
-12 -10 -16 0 -19 19 -7 14 -24 -5 -21 -14 2 -17 -3 -15 -20 3 -20 0 -23 -17
-17 -17 5 -20 3 -14 -11 5 -13 3 -16 -10 -11 -21 8 -23 -16 -2 -33 20 -17 9
-33 -15 -20 -29 15 -35 12 -16 -9 13 -14 14 -20 4 -23 -7 -3 -20 5 -30 16 -20
24 -24 6 -6 -24 10 -15 9 -23 -7 -40 -13 -14 -22 -17 -29 -10 -17 17 -27 11
-16 -11 11 -20 11 -20 -14 -4 -21 14 -29 15 -41 5 -19 -16 -44 -86 -49 -138
-6 -70 -24 -72 -33 -4 -7 54 33 137 146 302 47 69 92 137 98 153 7 15 19 27
26 27 8 0 28 18 46 40 29 36 51 45 51 19z m-123 -46 c2 -6 -5 -14 -16 -18 -12
-4 -21 -15 -21 -27 0 -12 -5 -18 -13 -15 -8 3 -13 -4 -12 -22 0 -19 -5 -25
-17 -23 -12 2 -15 -3 -11 -19 5 -19 3 -20 -18 -14 -21 7 -22 6 -11 -8 16 -19
8 -39 -13 -31 -10 4 -12 0 -8 -15 4 -17 1 -19 -19 -14 -20 6 -21 4 -11 -9 15
-17 7 -29 -13 -21 -17 6 -19 -13 -1 -21 6 -4 2 -4 -10 -2 -25 4 -28 -1 -14
-24 15 -22 1 -33 -19 -15 -18 16 -19 15 -24 -27 -11 -85 -15 -92 -12 -21 3 65
7 76 35 108 17 20 31 40 31 46 0 19 79 118 140 176 35 33 50 37 57 16z m723
-98 c0 -13 4 -25 10 -27 5 -1 12 -19 14 -38 3 -19 5 -35 6 -35 1 0 4 -13 5
-30 2 -16 10 -59 18 -95 8 -36 12 -71 9 -77 -7 -20 -22 -15 -22 7 0 11 -4 28
-9 38 -5 9 -17 62 -26 117 -9 55 -20 117 -25 137 -6 29 -5 35 6 31 8 -3 14
-16 14 -28z m59 -20 c3 -17 2 -17 -13 -3 -19 20 -21 31 -3 26 6 -3 14 -13 16
-23z m-555 -23 c3 -21 22 -74 43 -118 20 -43 37 -81 38 -84 0 -3 12 -30 26
-60 15 -30 34 -85 43 -122 18 -77 22 -213 5 -224 -18 -10 -173 -64 -186 -64
-8 0 -13 13 -13 31 0 18 -5 49 -12 70 -13 44 -6 58 17 39 22 -19 20 11 -4 41
-23 30 -38 78 -46 153 -4 32 -14 81 -22 110 -24 78 -19 102 30 166 25 31 48
67 52 79 10 32 22 25 29 -17z m-1214 -12 c0 -5 -4 -10 -10 -10 -5 0 -10 5 -10
10 0 6 5 10 10 10 6 0 10 -4 10 -10z m1035 -70 c3 -5 1 -10 -4 -10 -6 0 -11 5
-11 10 0 6 2 10 4 10 3 0 8 -4 11 -10z m-4 -48 c-12 -22 -51 -58 -51 -47 0 9
50 65 57 65 2 0 -1 -8 -6 -18z m35 -49 c3 -16 12 -45 20 -67 8 -21 20 -86 25
-145 6 -58 19 -142 30 -186 11 -48 23 -151 29 -260 19 -330 21 -370 32 -430 5
-33 23 -88 40 -123 17 -35 27 -66 23 -70 -4 -4 -10 -2 -12 4 -2 6 -11 20 -19
30 -14 18 -15 17 -9 -13 8 -42 -1 -42 -19 0 -14 30 -14 31 -16 7 -1 -23 -2
-24 -14 -7 -7 9 -16 17 -19 17 -4 0 -4 -8 -1 -17 5 -17 5 -17 -9 -1 -8 10 -17
15 -20 12 -3 -3 -13 20 -23 52 -9 33 -20 63 -25 69 -10 10 -12 45 -3 45 4 0
13 -8 20 -17 13 -17 13 -17 14 0 0 9 -4 17 -8 17 -4 0 -7 34 -6 77 2 80 -8
122 -52 210 -29 59 -46 165 -37 236 5 42 7 45 19 30 13 -17 13 -17 14 2 0 11
-28 58 -61 104 -54 76 -85 131 -103 185 -9 26 12 89 40 121 13 16 24 31 24 35
0 9 102 110 112 110 4 0 10 -12 14 -27z m-196 -74 c0 -5 -9 -4 -19 3 -11 7
-17 16 -14 20 5 10 33 -10 33 -23z m569 -123 c10 -12 8 -13 -8 -9 -12 3 -18 9
-15 14 7 12 10 11 23 -5z m-19 -46 c0 -5 -5 -10 -11 -10 -5 0 -7 5 -4 10 3 6
8 10 11 10 2 0 4 -4 4 -10z m80 -94 c8 -11 18 -32 22 -46 6 -22 3 -20 -27 14
-19 21 -35 45 -35 53 0 17 19 7 40 -21z m-54 -45 c-4 -6 -11 -11 -15 -11 -11
0 -21 37 -13 45 9 9 35 -22 28 -34z m42 -47 c3 -22 -24 -52 -36 -40 -4 4 1 13
11 20 9 7 17 16 17 20 0 14 -35 5 -64 -17 -17 -13 -39 -27 -49 -30 -15 -6 -17
-13 -12 -39 l7 -33 -18 25 c-10 14 -22 28 -28 32 -6 4 -8 9 -6 11 13 12 91 47
103 47 8 0 20 7 27 15 18 21 44 15 48 -11z m-187 -94 c16 -29 18 -47 13 -110
-4 -41 -15 -92 -26 -113 -19 -38 -77 -83 -89 -69 -4 4 -10 73 -14 153 l-7 146
39 16 c51 22 62 18 84 -23z m209 6 c0 -19 -4 -37 -9 -40 -5 -3 -7 -16 -4 -27
4 -16 2 -20 -8 -17 -18 6 -24 45 -9 64 10 11 10 17 1 28 -9 11 -9 15 1 19 25
10 28 7 28 -27z m47 12 c-3 -8 -6 -5 -6 6 -1 11 2 17 5 13 3 -3 4 -12 1 -19z
m-137 -27 c0 -10 3 -31 6 -47 3 -18 0 -36 -10 -49 -14 -19 -15 -15 -16 48 0
38 4 67 10 67 6 0 10 -8 10 -19z m70 -101 c0 -5 -7 -10 -15 -10 -8 0 -15 5
-15 10 0 6 7 10 15 10 8 0 15 -4 15 -10z m-20 -56 c0 -19 -19 -27 -35 -14 -15
12 -31 -3 -20 -20 3 -6 -1 -7 -9 -4 -9 3 -16 2 -16 -4 0 -5 7 -12 15 -16 8 -3
15 -10 15 -17 0 -7 -7 -8 -17 -4 -10 4 -27 9 -38 12 -18 4 -18 2 4 -16 28 -25
22 -38 -8 -20 -27 17 -40 3 -15 -16 18 -15 18 -15 -8 -9 -29 6 -36 -4 -16 -24
6 -6 9 -15 5 -19 -4 -4 -13 -1 -19 5 -13 13 -29 16 -27 5 3 -20 -2 -27 -11
-13 -12 19 -18 11 -26 -29 -7 -32 -6 -33 17 -26 23 7 23 7 6 -11 -17 -18 -19
-18 -31 -2 -7 10 -15 15 -18 12 -3 -2 -8 4 -11 16 -3 11 -1 20 4 20 5 0 9 5 9
11 0 13 24 35 73 69 19 13 49 47 68 76 19 29 42 53 51 54 9 0 20 5 23 10 8 14
35 -6 35 -26z m-420 -251 c0 -12 -33 -43 -47 -43 -7 0 -13 -4 -13 -10 0 -5 -6
-7 -14 -4 -8 3 -17 0 -21 -6 -4 -6 -16 -8 -27 -4 -18 5 -20 3 -15 -22 6 -27 6
-27 -5 -7 -8 18 -17 22 -42 18 -17 -2 -33 -4 -36 -5 -3 -1 -15 -1 -27 0 -13 1
-23 -4 -23 -10 0 -6 -4 -8 -10 -5 -5 3 -23 -1 -39 -10 -30 -15 -71 -9 -85 14
-11 16 7 20 120 25 60 3 109 6 109 6 0 1 7 3 15 5 23 4 123 47 135 57 11 10
25 11 25 1z m-124 -22 c-8 -13 -103 -24 -118 -14 -8 5 5 10 37 14 80 9 86 9
81 0z m-176 -101 c0 -5 -2 -10 -4 -10 -3 0 -8 5 -11 10 -3 6 -1 10 4 10 6 0
11 -4 11 -10z m-2 -75 c1 -1 -11 -2 -28 -3 -31 -1 -46 11 -35 28 4 6 17 3 33
-7 15 -9 28 -18 30 -18z m-150 8 c2 -8 -5 -13 -17 -13 -15 0 -21 -6 -21 -22 0
-22 -1 -22 -25 7 -23 26 -28 28 -47 16 -17 -11 -22 -11 -29 1 -7 11 -11 10
-19 -2 -8 -13 -10 -13 -10 2 0 21 20 26 99 25 42 -1 66 -6 69 -14z m52 -9 c0
-14 -3 -14 -15 -4 -8 7 -15 14 -15 16 0 2 7 4 15 4 8 0 15 -7 15 -16z m-120
-65 c0 -6 -4 -7 -10 -4 -5 3 -10 11 -10 16 0 6 5 7 10 4 6 -3 10 -11 10 -16z
m124 -84 c-4 -9 2 -18 17 -24 14 -6 18 -10 8 -10 -23 -1 -53 24 -45 37 10 17
26 15 20 -3z"/>
<g>
<path d="M1490 2562 c0 -11 22 -32 32 -32 5 0 4 9 -2 20 -11 20 -30 28 -30 12z"/>
</g>
</g>
<g>
<path d="M1410 3941 l-24 -19 26 -13 c29 -13 58 -7 58 12 0 7 -10 9 -25 7 -13
-3 -22 -1 -19 3 3 5 12 9 20 9 8 0 12 5 9 10 -9 14 -16 12 -45 -9z"/>
</g>
<g>
<path d="M880 3890 c0 -5 -6 -10 -12 -13 -7 -2 -2 -2 10 0 13 2 31 -2 40 -9
13 -11 14 -11 11 1 -6 16 -49 35 -49 21z"/>
</g>
<g>
<path d="M1395 3830 c-3 -5 1 -10 9 -10 9 0 16 5 16 10 0 6 -4 10 -9 10 -6 0
-13 -4 -16 -10z"/>
</g>
<g>
<path d="M1414 3806 c-14 -11 -16 -18 -8 -26 8 -8 19 -5 40 14 26 23 27 25 8
26 -11 0 -29 -6 -40 -14z"/>
</g>
<g>
<path d="M1290 3395 c0 -8 5 -15 10 -15 6 0 10 7 10 15 0 8 -4 15 -10 15 -5 0
-10 -7 -10 -15z"/>
</g>
<g>
<path d="M1086 3015 c-3 -8 -1 -15 4 -15 13 0 22 18 11 24 -5 3 -11 -1 -15 -9z"/>
</g>
<g>
<path d="M1288 1933 c7 -3 16 -2 19 1 4 3 -2 6 -13 5 -11 0 -14 -3 -6 -6z"/>
</g>
<g>
<path d="M1245 1878 c4 -29 8 -83 10 -120 2 -43 9 -77 19 -93 18 -28 47 -30
53 -5 4 13 3 13 -6 0 -9 -13 -12 -13 -27 2 -14 13 -18 37 -20 100 -1 46 -7 95
-13 110 -6 15 -8 35 -5 43 4 8 1 15 -6 15 -9 0 -11 -14 -5 -52z"/>
</g>
<g>
<path d="M560 4405 c-7 -9 -10 -18 -7 -22 8 -7 37 15 37 28 0 14 -16 11 -30
-6z"/>
</g>
<g>
<path d="M666 4388 c-9 -12 -13 -24 -11 -27 6 -5 45 29 45 41 0 15 -19 8 -34
-14z"/>
</g>
<g>
<path d="M2690 3646 c0 -8 5 -18 10 -21 6 -3 10 3 10 14 0 12 -4 21 -10 21 -5
0 -10 -6 -10 -14z"/>
</g>
<g>
<path d="M2740 3435 c0 -14 5 -25 10 -25 6 0 10 11 10 25 0 14 -4 25 -10 25
-5 0 -10 -11 -10 -25z"/>
</g>
<g>
<path d="M2708 1059 c-6 -15 15 -53 24 -43 3 2 3 -7 1 -21 -6 -28 -13 -31 -32
-12 -11 10 -11 8 -2 -10 12 -23 31 -31 31 -14 0 9 84 28 101 23 17 -4 41 39
35 63 -6 23 -11 25 -60 25 -45 0 -54 -3 -63 -22 l-11 -23 -9 24 c-7 18 -11 20
-15 10z m112 -23 c0 -3 -4 -8 -10 -11 -5 -3 -10 -1 -10 4 0 6 5 11 10 11 6 0
10 -2 10 -4z m-40 -32 c0 -8 -6 -14 -14 -14 -9 0 -12 7 -9 20 6 22 23 18 23
-6z"/>
</g>
<g>
<path d="M2441 1051 c-13 -3 -28 -16 -32 -29 -7 -17 -3 -25 16 -38 14 -9 32
-13 41 -10 8 3 25 -1 37 -9 12 -8 29 -15 39 -15 14 0 18 -8 18 -32 0 -46 16
-22 24 35 4 38 3 47 -9 47 -9 0 -18 13 -21 30 -6 28 -10 30 -48 29 -22 -1 -52
-4 -65 -8z m9 -41 c0 -5 -4 -10 -10 -10 -5 0 -10 5 -10 10 0 6 5 10 10 10 6 0
10 -4 10 -10z m75 -20 c3 -5 1 -10 -4 -10 -6 0 -11 5 -11 10 0 6 2 10 4 10 3
0 8 -4 11 -10z"/>
</g>
<g>
<path d="M2910 985 c0 -19 5 -35 10 -35 6 0 10 9 10 19 0 11 3 26 6 35 4 11 1
16 -10 16 -12 0 -16 -10 -16 -35z"/>
</g>
<g>
<path d="M2730 923 c1 -21 27 -59 36 -50 9 9 -10 60 -24 65 -7 2 -12 -5 -12
-15z"/>
</g>
<g>
<path d="M2275 890 c-10 -15 24 -58 55 -68 54 -19 69 -71 54 -180 -5 -36 -2
-47 16 -67 30 -32 43 -23 22 14 -14 25 -15 36 -5 72 18 69 -19 159 -75 180
-12 5 -27 20 -32 34 -10 26 -24 32 -35 15z"/>
</g>
<g>
<path d="M2375 869 c-7 -10 71 -99 87 -99 16 0 6 16 -37 63 -27 29 -46 43 -50
36z"/>
</g>
<g>
<path d="M2521 771 c-8 -6 -9 -11 -3 -15 6 -3 14 -1 17 5 9 14 2 20 -14 10z"/>
</g>
<g>
<path d="M2347 763 c-10 -17 -2 -116 11 -121 12 -4 16 22 12 83 -2 32 -14 53
-23 38z"/>
</g>
<g>
<path d="M2757 745 c-11 -16 -13 -26 -6 -30 6 -4 13 2 16 14 3 12 9 21 14 21
5 0 9 5 9 10 0 17 -14 11 -33 -15z"/>
</g>
<g>
<path d="M2711 714 c0 -11 3 -14 6 -6 3 7 2 16 -1 19 -3 4 -6 -2 -5 -13z"/>
</g>
<g>
<path d="M2585 710 c-3 -5 -1 -10 4 -10 6 0 11 5 11 10 0 6 -2 10 -4 10 -3 0
-8 -4 -11 -10z"/>
</g>
<g>
<path d="M2795 710 c-3 -5 -1 -10 4 -10 6 0 11 5 11 10 0 6 -2 10 -4 10 -3 0
-8 -4 -11 -10z"/>
</g>
<g>
<path d="M2560 680 c0 -5 5 -10 10 -10 6 0 10 5 10 10 0 6 -4 10 -10 10 -5 0
-10 -4 -10 -10z"/>
</g>
<g>
<path d="M2610 680 c0 -5 5 -10 10 -10 6 0 10 5 10 10 0 6 -4 10 -10 10 -5 0
-10 -4 -10 -10z"/>
</g>
<g>
<path d="M2720 680 c0 -5 5 -10 10 -10 6 0 10 5 10 10 0 6 -4 10 -10 10 -5 0
-10 -4 -10 -10z"/>
</g>
<g>
<path d="M1490 940 c0 -5 5 -10 10 -10 6 0 10 5 10 10 0 6 -4 10 -10 10 -5 0
-10 -4 -10 -10z"/>
</g>
<g>
<path d="M1426 891 c-3 -5 1 -11 9 -15 8 -3 15 -1 15 4 0 13 -18 22 -24 11z"/>
</g>
<g>
<path d="M1863 688 c-28 -14 -62 -76 -46 -86 6 -4 13 -25 15 -46 2 -23 10 -43
20 -50 24 -14 36 1 13 18 -24 17 -23 75 2 94 10 7 27 20 37 28 11 7 17 16 14
19 -2 3 -24 -8 -46 -25 -46 -33 -55 -26 -19 16 18 21 31 26 65 26 23 0 42 3
42 9 0 12 -69 10 -97 -3z"/>
</g>
<g>
<path d="M2068 639 c-22 -23 -60 -26 -52 -4 9 23 -62 19 -102 -6 -34 -20 -52
-58 -39 -78 11 -18 27 -12 21 7 -11 35 63 91 94 72 9 -6 7 -10 -9 -15 -30 -9
-26 -27 4 -20 14 3 37 8 53 11 28 6 62 31 62 46 0 13 -14 8 -32 -13z"/>
</g>
<g>
<path d="M1604 565 c4 -10 -1 -15 -15 -15 -57 0 -100 -52 -76 -91 18 -30 29
-22 22 15 -8 41 11 56 75 56 l40 0 -16 25 c-18 27 -40 34 -30 10z"/>
</g>
<g>
<path d="M1890 523 c0 -4 12 -18 26 -30 36 -30 120 -31 130 -1 7 24 -3 37 -12
14 -9 -23 -72 -21 -104 4 -26 20 -40 25 -40 13z"/>
</g>
<g>
<path d="M2087 523 c-15 -14 -6 -23 17 -17 18 4 28 0 37 -15 10 -15 16 -17 26
-9 10 8 13 7 13 -4 0 -16 54 -38 95 -38 15 0 45 5 65 11 28 9 47 9 70 0 18 -6
37 -8 42 -5 17 11 -26 33 -64 34 -21 0 -38 4 -38 9 0 5 -19 8 -42 7 -46 -2
-54 -17 -16 -28 20 -5 18 -6 -10 -7 -34 -1 -71 15 -85 37 -4 6 -17 12 -27 12
-10 0 -22 5 -25 10 -7 11 -48 14 -58 3z"/>
</g>
<g>
<path d="M2080 476 c0 -9 -5 -16 -12 -16 -9 0 -9 -3 0 -12 10 -10 14 -10 21 0
4 7 15 10 25 6 14 -5 17 -3 14 12 -4 24 -48 33 -48 10z"/>
</g>
<g>
<path d="M114 515 c-4 -8 -1 -22 6 -30 14 -17 60 -21 60 -5 0 6 -4 10 -10 10
-5 0 -19 9 -30 20 -17 17 -21 18 -26 5z"/>
</g>
</g>
<g>
<path d="M2868 5243 c7 -3 16 -2 19 1 4 3 -2 6 -13 5 -11 0 -14 -3 -6 -6z"/>
</g>
<g>
<path d="M2990 5210 c0 -42 -9 -50 -30 -25 -7 8 -17 15 -23 15 -6 0 3 -15 21
-33 18 -18 32 -39 32 -47 0 -10 -8 -6 -20 10 -11 14 -19 21 -19 15 0 -5 11
-23 24 -40 l25 -30 0 88 c0 48 -2 87 -5 87 -3 0 -5 -18 -5 -40z"/>
</g>
<g>
<path d="M2445 5199 c-88 -15 -163 -56 -170 -94 -2 -11 -4 -36 -4 -56 -1 -35
-5 -40 -75 -83 -83 -52 -111 -92 -94 -135 11 -31 37 -61 51 -61 6 0 1 10 -11
23 -12 13 -22 35 -22 49 0 32 29 85 50 93 8 3 41 20 72 39 31 19 71 37 87 41
17 4 31 11 31 16 0 5 4 9 9 9 5 0 8 -7 7 -16 -2 -26 21 -27 27 -2 10 36 -7 43
-55 25 -58 -22 -58 -22 -58 19 0 51 15 72 68 97 42 19 67 21 245 23 190 2 197
1 192 -17 -4 -10 -2 -19 4 -19 10 0 43 41 37 47 -8 8 -346 10 -391 2z"/>
</g>
<g>
<path d="M2580 5159 c0 -5 10 -9 22 -9 12 0 18 3 14 7 -10 11 -36 12 -36 2z"/>
</g>
<g>
<path d="M2661 5161 c-9 -6 -1 -11 24 -15 33 -7 56 -2 44 8 -11 9 -56 14 -68
7z"/>
</g>
<g>
<path d="M2508 5153 c6 -2 18 -2 25 0 6 3 1 5 -13 5 -14 0 -19 -2 -12 -5z"/>
</g>
<g>
<path d="M2397 5143 c-10 -9 -9 -23 1 -23 5 0 17 7 28 15 19 14 19 14 -2 15
-11 0 -24 -3 -27 -7z"/>
</g>
<g>
<path d="M2332 5124 c-12 -8 -22 -22 -22 -30 0 -22 26 -28 51 -10 19 13 20 16
6 21 -8 4 -13 13 -10 21 7 18 3 18 -25 -2z"/>
</g>
<g>
<path d="M2612 5128 c-12 -5 -9 -7 13 -7 32 -1 95 -34 95 -51 0 -12 -13 -13
-25 -1 -17 14 -74 30 -80 21 -3 -4 7 -11 23 -15 15 -3 35 -14 45 -23 18 -16
55 -24 70 -15 5 3 1 14 -9 24 -16 18 -16 19 7 19 13 0 52 -22 88 -50 36 -28
71 -50 78 -50 7 0 13 -4 13 -10 0 -23 -42 -7 -91 35 -29 25 -56 45 -61 45 -13
0 -9 -20 5 -21 14 0 63 -59 49 -59 -5 0 -17 9 -27 20 -24 27 -31 18 -10 -14
27 -41 81 -69 140 -72 l52 -3 -31 62 c-37 75 -38 75 -43 60 -5 -15 -33 -18
-33 -3 0 15 -82 67 -118 75 -18 3 -30 11 -27 15 8 13 63 0 103 -23 18 -11 35
-17 38 -14 3 2 -14 16 -38 30 -34 20 -60 26 -126 28 -45 2 -90 1 -100 -3z
m318 -200 c10 -6 4 -7 -20 -3 -19 3 -39 10 -45 16 -12 12 41 2 65 -13z"/>
</g>
<g>
<path d="M2144 5120 c-26 -10 -51 -67 -37 -81 7 -7 12 0 16 21 5 24 16 35 49
50 35 16 38 19 18 19 -14 0 -34 -4 -46 -9z"/>
</g>
<g>
<path d="M2430 5120 c-12 -8 -12 -10 5 -10 11 0 27 5 35 10 12 8 12 10 -5 10
-11 0 -27 -5 -35 -10z"/>
</g>
<g>
<path d="M2508 5103 c7 -3 16 -2 19 1 4 3 -2 6 -13 5 -11 0 -14 -3 -6 -6z"/>
</g>
<g>
<path d="M2500 5070 c0 -5 5 -10 10 -10 6 0 10 5 10 10 0 6 -4 10 -10 10 -5 0
-10 -4 -10 -10z"/>
</g>
<g>
<path d="M2472 5033 l-32 -4 20 -29 c26 -36 69 -48 87 -24 7 10 13 28 13 41 0
24 -8 26 -88 16z m68 -27 c0 -15 -37 -32 -48 -22 -6 6 27 35 41 36 4 0 7 -6 7
-14z"/>
</g>
<g>
<path d="M2640 5015 c-7 -9 -10 -18 -6 -22 3 -3 6 -2 6 4 0 6 11 8 25 5 30 -5
33 3 6 17 -14 8 -22 7 -31 -4z"/>
</g>
<g>
<path d="M2316 4982 c-2 -4 7 -12 20 -19 29 -13 43 2 15 16 -23 13 -28 13 -35
3z"/>
</g>
<g>
<path d="M2710 4983 c0 -5 20 -29 45 -53 25 -24 45 -38 44 -30 -1 16 -89 98
-89 83z"/>
</g>
<g>
<path d="M2421 4956 c15 -32 32 -34 27 -4 -2 13 -11 24 -21 26 -15 3 -16 0 -6
-22z"/>
</g>
<g>
<path d="M2662 4958 c3 -7 15 -18 27 -24 12 -7 38 -27 57 -45 19 -18 34 -28
34 -22 0 13 -100 103 -113 103 -5 0 -7 -6 -5 -12z"/>
</g>
<g>
<path d="M2065 4940 c-3 -5 -23 -10 -44 -10 -38 0 -72 -23 -56 -38 4 -4 10 -1
12 6 3 6 20 12 39 12 38 0 74 15 74 30 0 13 -17 13 -25 0z"/>
</g>
<g>
<path d="M2620 4905 c7 -9 15 -13 17 -11 7 7 -7 26 -19 26 -6 0 -6 -6 2 -15z"/>
</g>
<g>
<path d="M2325 4877 c-131 -31 -164 -49 -142 -75 9 -11 12 -10 18 6 10 26 35
34 49 16 7 -8 30 -14 55 -14 65 0 152 -21 175 -42 11 -10 27 -30 36 -43 9 -14
22 -25 30 -25 7 0 20 -10 28 -22 9 -12 27 -23 40 -23 14 -1 32 -8 41 -15 9 -7
42 -15 73 -16 l57 -3 -49 9 c-49 9 -97 42 -82 57 4 4 10 3 14 -3 14 -21 51
-35 70 -26 20 11 82 4 82 -9 0 -5 -5 -9 -12 -9 -6 0 -8 -3 -5 -6 4 -4 22 5 41
20 19 14 41 26 48 26 15 1 57 30 42 30 -5 0 -33 -9 -62 -20 -63 -24 -63 -24
-88 -5 -18 14 -17 14 12 9 19 -4 34 -1 38 5 5 7 -2 11 -18 11 -14 0 -28 4 -31
10 -4 6 10 7 39 4 26 -4 51 -2 58 3 7 6 28 13 47 17 29 5 33 4 28 -13 -8 -33
18 -13 31 23 18 49 16 63 -6 43 -19 -18 -32 -14 -32 10 0 7 11 13 25 13 22 0
25 5 25 33 l0 32 -60 -3 c-45 -3 -68 1 -86 13 -17 11 -30 13 -36 7 -16 -16 59
-44 107 -40 32 2 41 0 37 -10 -5 -15 -112 -13 -146 3 -14 6 -18 5 -14 -6 3 -9
28 -18 66 -23 49 -8 62 -13 62 -27 0 -11 -11 -20 -31 -24 -25 -6 -39 -1 -74
24 -24 17 -46 27 -49 22 -4 -5 14 -22 39 -38 24 -15 44 -31 45 -35 0 -5 -24
-8 -54 -8 -50 0 -56 3 -90 40 -20 22 -36 45 -36 50 0 10 -81 50 -101 50 -23 0
-5 -19 24 -25 34 -8 67 -31 67 -48 0 -6 7 -19 17 -29 9 -10 11 -18 5 -18 -6 0
-20 10 -32 22 -15 16 -20 18 -20 7 0 -22 21 -39 50 -39 28 0 79 -35 68 -46 -4
-4 -19 1 -32 10 -27 17 -46 21 -46 8 0 -4 14 -13 31 -21 21 -9 27 -17 20 -24
-15 -15 -74 28 -126 96 -25 31 -52 57 -61 57 -11 0 -3 -15 25 -46 39 -45 52
-74 32 -74 -5 0 -19 15 -31 34 -29 48 -86 96 -113 96 -20 0 -19 -2 8 -19 35
-21 85 -70 85 -82 0 -18 -15 -8 -35 21 -25 37 -88 60 -166 60 -32 0 -61 5 -64
10 -4 6 6 10 24 10 35 0 154 24 194 39 16 6 25 15 22 21 -10 16 -61 10 -200
-23z m615 -117 c0 -5 -2 -10 -4 -10 -3 0 -8 5 -11 10 -3 6 -1 10 4 10 6 0 11
-4 11 -10z m-320 -80 c0 -5 -4 -10 -10 -10 -5 0 -10 5 -10 10 0 6 5 10 10 10
6 0 10 -4 10 -10z"/>
</g>
<g>
<path d="M2002 4868 c2 -12 10 -24 18 -26 13 -5 13 -3 2 11 -8 9 -11 21 -7 27
3 5 1 10 -5 10 -6 0 -10 -10 -8 -22z"/>
</g>
<g>
<path d="M2685 4880 c-3 -5 1 -10 10 -10 9 0 13 5 10 10 -3 6 -8 10 -10 10 -2
0 -7 -4 -10 -10z"/>
</g>
<g>
<path d="M2595 4830 c3 -5 13 -10 21 -10 8 0 12 5 9 10 -3 6 -13 10 -21 10 -8
0 -12 -4 -9 -10z"/>
</g>
<g>
<path d="M2720 4833 c1 -15 60 -77 66 -70 8 8 -43 77 -57 77 -5 0 -9 -3 -9 -7z"/>
</g>
<g>
<path d="M2180 4760 c0 -5 4 -10 9 -10 6 0 13 5 16 10 3 6 -1 10 -9 10 -9 0
-16 -4 -16 -10z"/>
</g>
<g>
<path d="M2977 4573 c-15 -16 -35 -18 -140 -15 -145 3 -180 -8 -220 -71 -35
-54 -36 -105 -2 -145 35 -42 87 -65 119 -52 38 14 32 25 -15 26 -42 2 -92 38
-105 76 -10 32 14 82 52 107 31 22 52 26 160 32 95 6 129 11 148 26 14 10 26
21 26 26 0 11 -4 9 -23 -10z"/>
</g>
<g>
<path d="M2955 4512 c-16 -8 -65 -18 -107 -20 -43 -3 -75 -8 -72 -13 12 -21
185 1 210 26 29 28 15 31 -31 7z"/>
</g>
<g>
<path d="M2702 4460 c-26 -25 -29 -68 -4 -86 27 -21 38 -16 14 6 -12 12 -22
25 -22 31 0 21 22 50 43 59 14 6 16 9 6 9 -8 1 -25 -8 -37 -19z"/>
</g>
<g>
<path d="M2975 4449 c-11 -4 -52 -8 -92 -8 -74 -1 -123 -13 -123 -31 0 -5 18
-19 40 -30 62 -32 74 -75 32 -123 -8 -9 -13 -20 -10 -23 3 -3 18 11 34 31 24
32 26 41 18 71 -9 34 -31 54 -78 68 -34 11 -11 16 91 18 56 2 105 6 108 10 14
13 0 25 -20 17z"/>
</g>
<g>
<path d="M2520 4367 c0 -11 61 -69 67 -64 7 8 -24 44 -49 58 -10 5 -18 8 -18
6z"/>
</g>
<g>
<path d="M2948 4293 c-10 -2 -18 -9 -18 -15 0 -5 7 -7 16 -4 9 3 20 6 25 6 5
0 9 5 9 10 0 10 -3 11 -32 3z"/>
</g>
<g>
<path d="M2618 4264 c-4 -3 11 -22 33 -40 41 -34 75 -41 127 -28 38 11 24 20
-31 20 -52 1 -112 23 -119 44 -2 6 -6 8 -10 4z"/>
</g>
<g>
<path d="M2964 4215 c-10 -8 -14 -14 -9 -14 6 0 19 6 29 14 11 8 15 15 10 15
-6 0 -19 -7 -30 -15z"/>
</g>
<g>
<path d="M2877 4186 c-43 -66 -168 -75 -227 -16 -11 11 -20 16 -20 12 0 -5 10
-18 23 -29 75 -69 177 -58 229 25 23 36 18 44 -5 8z"/>
</g>
<g>
<path d="M2948 4137 c-10 -12 -32 -42 -50 -67 -28 -40 -29 -43 -8 -29 13 8 38
39 57 67 33 52 33 71 1 29z"/>
</g>
<g>
<path d="M2720 3992 c0 -12 70 -72 83 -72 13 0 -1 17 -43 50 -22 17 -40 27
-40 22z"/>
</g>
<g>
<path d="M2680 3983 c0 -34 105 -126 157 -137 60 -14 132 47 119 99 -9 34 -26
32 -26 -4 0 -102 -161 -86 -216 21 -13 25 -34 38 -34 21z"/>
</g>
<g>
<path d="M2981 3972 c-13 -25 -14 -52 -2 -52 8 0 22 61 16 68 -2 2 -8 -5 -14
-16z"/>
</g>
<g>
<path d="M2866 3954 c-9 -23 -7 -44 3 -44 5 0 11 14 13 30 5 32 -6 41 -16 14z"/>
</g>
<g>
<path d="M2993 2400 c0 -36 2 -50 4 -32 2 17 2 47 0 65 -2 17 -4 3 -4 -33z"/>
</g>
<g>
<path d="M2948 2247 c-47 -36 -59 -73 -37 -113 6 -12 9 -30 6 -38 -4 -9 -2
-16 2 -16 16 0 19 26 8 68 -13 50 2 85 44 103 16 6 29 15 29 20 0 14 -5 11
-52 -24z"/>
</g>
<g>
<path d="M2977 2212 c-11 -12 -17 -36 -17 -70 0 -47 -3 -53 -42 -86 -23 -20
-37 -36 -32 -36 6 0 30 17 53 37 42 36 43 37 37 84 -5 36 -3 51 10 64 9 9 14
18 12 21 -3 2 -12 -4 -21 -14z"/>
</g>
<g>
<path d="M2991 2164 c0 -11 3 -14 6 -6 3 7 2 16 -1 19 -3 4 -6 -2 -5 -13z"/>
</g>
<g>
<path d="M2833 2040 c-34 -20 -50 -58 -38 -87 6 -14 10 -9 15 21 4 21 14 42
21 47 28 16 54 38 44 39 -5 0 -25 -9 -42 -20z"/>
</g>
<g>
<path d="M2851 2011 c-7 -5 -11 -15 -9 -22 3 -10 8 -7 17 9 13 24 12 26 -8 13z"/>
</g>
<g>
<path d="M2916 2013 c-3 -3 -6 -14 -6 -24 0 -12 -11 -19 -40 -24 -47 -8 -59
-20 -28 -29 14 -3 26 0 31 9 11 21 35 19 33 -2 -1 -13 -12 -19 -41 -23 -27 -3
-40 -10 -40 -20 0 -11 11 -15 43 -14 29 0 42 -3 42 -13 0 -9 -13 -13 -40 -13
-36 0 -40 -3 -40 -24 0 -13 7 -27 16 -30 13 -5 15 -2 11 14 -6 24 7 34 36 26
21 -5 22 -10 21 -94 -1 -84 7 -125 21 -110 8 7 8 69 2 141 -5 51 -2 56 37 59
26 2 26 3 24 88 0 47 -3 71 -5 54 -4 -32 -34 -51 -57 -36 -6 4 3 10 19 13 l30
7 -29 1 c-23 1 -27 5 -23 21 5 20 -5 35 -17 23z m74 -83 c0 -5 -15 -10 -32 -9
-28 0 -30 2 -13 9 28 12 45 12 45 0z m-93 -26 c-3 -3 -12 -4 -19 -1 -8 3 -5 6
6 6 11 1 17 -2 13 -5z m90 0 c-3 -3 -12 -4 -19 -1 -8 3 -5 6 6 6 11 1 17 -2
13 -5z m-3 -23 c6 -10 -33 -23 -46 -15 -4 3 -8 9 -8 15 0 12 47 12 54 0z"/>
</g>
<g>
<path d="M2774 1849 c-3 -6 -2 -15 4 -21 6 -6 11 -2 15 11 5 22 -7 29 -19 10z"/>
</g>
<g>
<path d="M2957 1823 c-3 -5 -2 -15 2 -22 7 -10 10 -10 16 -1 4 6 3 16 -3 22
-5 5 -12 6 -15 1z"/>
</g>
<g>
<path d="M2994 1730 c0 -52 1 -74 3 -47 2 26 2 68 0 95 -2 26 -3 4 -3 -48z"/>
</g>
<g>
<path d="M2777 1796 c-10 -25 18 -68 56 -86 38 -18 60 -66 37 -80 -8 -5 -11
-12 -7 -16 8 -8 36 24 37 41 0 22 -41 75 -59 75 -23 0 -40 19 -50 56 -6 24 -8
25 -14 10z"/>
</g>
<g>
<path d="M40 1735 c-19 -23 -8 -25 14 -4 11 11 15 19 9 19 -6 0 -16 -7 -23
-15z"/>
</g>
<g>
<path d="M70 1665 c-7 -8 -20 -15 -29 -16 -12 0 -11 -2 4 -9 30 -13 35 -12 35
9 0 11 6 22 13 24 7 4 8 6 1 6 -6 1 -17 -6 -24 -14z"/>
</g>
<g>
<path d="M117 1643 c-4 -3 -7 -13 -7 -21 0 -12 3 -12 15 -2 8 7 25 10 40 6 14
-4 25 -2 25 3 0 17 -59 29 -73 14z"/>
</g>
<g>
<path d="M2735 1634 c-16 -8 -35 -21 -42 -27 -16 -16 -28 -67 -15 -67 5 0 12
12 15 28 7 33 64 67 96 57 24 -7 29 10 5 19 -22 8 -25 8 -59 -10z"/>
</g>
<g>
<path d="M2985 1621 c-3 -5 -1 -12 5 -16 5 -3 10 1 10 9 0 18 -6 21 -15 7z"/>
</g>
<g>
<path d="M53 1603 c9 -2 23 -2 30 0 6 3 -1 5 -18 5 -16 0 -22 -2 -12 -5z"/>
</g>
<g>
<path d="M220 1580 c0 -5 4 -10 9 -10 5 0 18 -3 28 -6 16 -5 16 -4 -1 10 -23
18 -36 20 -36 6z"/>
</g>
<g>
<path d="M2908 1583 c7 -3 16 -2 19 1 4 3 -2 6 -13 5 -11 0 -14 -3 -6 -6z"/>
</g>
<g>
<path d="M133 1569 c14 -8 22 -8 30 0 8 8 3 11 -18 11 -26 -1 -28 -2 -12 -11z"/>
</g>
<g>
<path d="M185 1560 c4 -6 24 -19 46 -30 59 -31 53 -56 -16 -70 -30 -6 -55 -13
-55 -14 0 -2 -7 -21 -16 -42 -15 -35 -15 -37 0 -25 9 7 16 22 16 32 0 27 44
42 108 37 28 -3 52 -1 52 4 0 4 -7 8 -15 8 -9 0 -15 9 -15 23 0 27 -19 46 -69
71 -40 19 -44 20 -36 6z"/>
</g>
<g>
<path d="M80 1544 c0 -8 5 -12 10 -9 6 4 8 11 5 16 -9 14 -15 11 -15 -7z"/>
</g>
<g>
<path d="M64 1380 c29 -87 28 -86 13 -117 -13 -24 -14 -38 -6 -68 8 -29 8 -40
-3 -46 -11 -7 -10 -11 2 -19 13 -8 13 -11 0 -24 -8 -9 -26 -17 -39 -19 -17 -3
-25 -11 -28 -28 -2 -14 0 -19 5 -12 12 18 129 9 153 -12 10 -10 17 -20 14 -23
-3 -3 2 -13 11 -23 16 -17 17 -17 34 3 l17 21 -1 -24 c-1 -15 5 -24 14 -24 9
0 14 7 12 19 -4 19 -3 19 22 2 15 -9 31 -14 36 -11 5 3 11 1 15 -5 6 -10 42
-8 80 5 20 6 55 68 55 96 0 9 -15 22 -32 30 -30 13 -36 12 -65 -4 -28 -16 -31
-22 -23 -38 7 -13 7 -19 0 -19 -5 0 -10 6 -10 14 0 20 -21 31 -30 16 -4 -7
-13 -9 -20 -5 -21 13 -111 14 -108 1 5 -19 -17 -18 -22 1 -3 10 -11 18 -17 18
-7 0 -13 3 -13 8 0 4 0 17 0 28 0 18 2 19 15 9 18 -15 22 -13 27 14 2 15 -4
20 -32 23 -19 3 -36 6 -37 7 -5 5 -4 65 2 111 6 45 3 53 -20 80 -14 17 -24 23
-21 15z m376 -309 c0 -6 -4 -13 -10 -16 -5 -3 -10 1 -10 9 0 9 5 16 10 16 6 0
10 -4 10 -9z m-40 -33 c0 -5 -4 -8 -10 -8 -5 0 -10 10 -10 23 0 18 2 19 10 7
5 -8 10 -18 10 -22z"/>
</g>
<g>
<path d="M17 1334 c-3 -27 -9 -65 -12 -84 l-7 -35 20 37 c28 54 33 80 17 107
-12 24 -13 23 -18 -25z"/>
</g>
<g>
<path d="M213 1350 c-18 -11 -33 -24 -33 -30 0 -6 -11 -22 -25 -36 -20 -20
-22 -25 -8 -22 9 2 30 22 46 46 26 39 31 42 75 42 36 0 52 -6 74 -27 15 -14
31 -24 34 -20 17 17 -63 67 -108 67 -12 0 -38 -9 -55 -20z"/>
</g>
<g>
<path d="M236 1309 c-14 -11 -31 -30 -37 -42 -6 -13 2 -8 19 12 27 32 32 34
70 27 44 -7 59 7 20 18 -36 9 -43 7 -72 -15z"/>
</g>
<g>
<path d="M392 1288 c3 -7 19 -14 36 -16 18 -2 30 -8 27 -13 -8 -12 -62 -12
-70 1 -3 6 -12 10 -18 10 -7 0 -1 -9 13 -20 18 -14 34 -18 59 -13 22 4 36 1
42 -8 4 -7 11 -11 14 -7 13 12 -38 68 -56 63 -10 -3 -20 -1 -24 5 -9 14 -28
13 -23 -2z"/>
</g>
<g>
<path d="M260 1265 c-6 -8 -10 -22 -7 -32 3 -14 6 -12 15 10 11 25 16 28 45
22 24 -5 28 -4 17 4 -22 15 -56 13 -70 -4z"/>
</g>
<g>
<path d="M300 1220 c0 -5 14 -7 33 -3 45 8 47 13 4 13 -20 0 -37 -4 -37 -10z"/>
</g>
<g>
<path d="M533 1009 c-19 -20 -16 -36 10 -43 33 -9 90 -7 107 4 13 8 13 11 0
25 -21 21 -101 30 -117 14z"/>
</g>
<g>
<path d="M745 891 c-3 -7 3 -11 15 -11 32 0 73 -27 93 -62 20 -36 21 -79 2
-133 -18 -48 -18 -48 -5 -40 13 8 40 72 40 94 0 37 -23 94 -48 121 -29 30 -86
48 -97 31z"/>
</g>
<g>
<path d="M138 882 c-15 -6 -14 -10 8 -36 21 -24 30 -28 60 -23 19 3 34 2 34
-4 0 -5 9 -9 19 -9 10 0 21 -7 25 -15 3 -8 12 -15 21 -15 28 0 17 49 -17 81
-27 24 -41 29 -83 28 -27 0 -58 -3 -67 -7z"/>
</g>
<g>
<path d="M830 742 c0 -38 -5 -55 -25 -76 -13 -14 -29 -26 -36 -26 -7 0 -5 8 6
20 10 11 15 23 12 27 -4 4 -14 -2 -21 -13 -13 -16 -25 -19 -93 -16 -69 2 -82
0 -98 -18 -10 -11 -15 -23 -12 -27 4 -3 7 -1 7 5 0 13 66 36 85 28 8 -3 15
-12 15 -21 0 -8 6 -15 13 -16 83 -7 156 47 164 124 3 27 1 47 -6 51 -7 5 -11
-8 -11 -42z m-92 -109 c-10 -2 -26 -2 -35 0 -10 3 -2 5 17 5 19 0 27 -2 18 -5z"/>
</g>
<g>
<path d="M947 769 c-10 -11 -16 -28 -14 -37 4 -14 6 -13 12 6 4 12 18 25 31
28 28 7 32 24 6 24 -10 0 -26 -9 -35 -21z"/>
</g>
<g>
<path d="M295 760 c3 -5 8 -10 11 -10 2 0 4 5 4 10 0 6 -5 10 -11 10 -5 0 -7
-4 -4 -10z"/>
</g>
<g>
<path d="M1029 733 c-8 -9 -13 -24 -11 -35 2 -11 -3 -18 -12 -18 -9 0 -16 -4
-16 -10 0 -5 6 -10 14 -10 14 0 32 36 28 54 -2 4 3 14 9 22 6 8 9 14 6 14 -2
0 -11 -7 -18 -17z"/>
</g>
<g>
<path d="M905 699 c-4 -6 -5 -13 -2 -16 7 -7 27 6 27 18 0 12 -17 12 -25 -2z"/>
</g>
<g>
<path d="M1145 690 c-19 -8 -19 -9 3 -9 29 -1 28 -22 -3 -51 -21 -19 -39 -24
-105 -28 -44 -2 -80 -9 -80 -14 0 -16 154 -2 182 16 31 20 53 60 45 80 -7 18
-13 19 -42 6z"/>
</g>
<g>
<path d="M920 670 c-14 -11 -20 -20 -14 -20 7 0 22 9 35 20 31 25 12 26 -21 0z"/>
</g>
<g>
<path d="M1089 645 c-11 -11 -22 -12 -56 -3 -31 9 -51 9 -83 -1 -37 -11 -44
-18 -63 -63 -20 -48 -22 -50 -54 -45 -24 4 -33 2 -30 -6 5 -16 55 -21 72 -7 8
6 23 9 35 5 20 -6 28 9 10 20 -13 8 -13 62 0 70 6 4 49 7 95 6 58 0 87 4 95
14 15 18 -3 27 -21 10z"/>
</g>
<g>
<path d="M580 520 c32 -25 52 -25 75 0 20 23 14 26 -15 8 -15 -10 -22 -10 -32
0 -6 6 -21 12 -32 12 -20 0 -19 -2 4 -20z"/>
</g>
<g>
<path d="M1 354 c0 -11 3 -14 6 -6 3 7 2 16 -1 19 -3 4 -6 -2 -5 -13z"/>
</g>
<g>
<path d="M1504 319 c-3 -5 2 -9 10 -9 9 0 16 -2 16 -4 0 -14 -32 -76 -39 -76
-11 0 -51 53 -51 68 0 12 -34 22 -78 22 -38 0 -41 -23 -4 -28 11 -2 24 -12 27
-22 3 -11 26 -46 50 -79 32 -43 40 -62 32 -70 -8 -8 -1 -11 26 -12 20 -1 42
-2 49 -3 22 -2 19 22 -7 52 l-25 30 22 46 c12 25 25 46 28 46 3 0 21 -20 38
-45 37 -53 42 -94 12 -102 -36 -9 -21 -23 25 -23 42 0 61 13 33 22 -21 7 43
160 72 175 24 12 23 13 -16 13 -40 0 -42 -1 -49 -37 l-7 -38 -19 24 c-11 13
-18 30 -15 38 3 7 -2 14 -12 15 -68 5 -113 5 -118 -3z"/>
</g>
<g>
<path d="M1808 304 c-46 -33 -55 -71 -28 -123 34 -67 96 -89 160 -56 41 21 60
53 60 100 0 48 -5 56 -50 84 -48 29 -97 27 -142 -5z m131 -20 c42 -54 11 -154
-47 -154 -36 0 -49 10 -65 49 -18 42 -11 74 20 106 33 32 66 32 92 -1z"/>
</g>
<g>
<path d="M2040 319 c0 -4 7 -9 15 -13 12 -4 14 -21 11 -87 -3 -48 -9 -85 -16
-89 -12 -8 49 -19 68 -12 5 1 7 22 5 46 -8 63 12 69 55 16 36 -43 94 -76 113
-65 5 4 -4 16 -22 28 -17 12 -38 35 -48 50 -14 26 -15 29 0 40 23 18 30 44 19
72 -9 25 -12 25 -105 23 -52 -1 -95 -5 -95 -9z m158 -35 c4 -28 -24 -56 -52
-52 -17 2 -21 10 -22 41 -1 38 -1 38 35 35 28 -2 37 -8 39 -24z"/>
</g>
<g>
<path d="M2334 309 c16 -10 18 -22 15 -103 l-4 -91 60 -3 c47 -3 62 0 72 14
21 28 15 38 -12 20 -13 -9 -34 -16 -45 -16 -20 0 -21 4 -18 95 l3 95 -45 0
c-37 -1 -42 -2 -26 -11z"/>
</g>
<g>
<path d="M2538 225 c2 -63 0 -95 -7 -95 -6 0 -11 -4 -11 -10 0 -14 103 -12
137 2 68 30 90 86 58 148 -21 40 -43 50 -117 50 l-63 0 3 -95z m116 53 c26
-37 20 -82 -15 -117 -17 -17 -35 -31 -40 -31 -5 0 -9 38 -9 85 0 83 0 85 24
85 14 0 32 -10 40 -22z"/>
</g>
<g>
<path d="M337 296 c-5 -16 4 -46 14 -46 5 0 9 7 9 15 0 9 10 15 26 15 l26 0
-4 -90 -3 -90 50 0 c44 1 48 2 33 14 -14 11 -18 29 -18 90 0 74 1 76 25 76 16
0 25 -6 25 -15 0 -8 7 -15 16 -15 11 0 14 8 12 25 -3 25 -5 25 -105 29 -70 3
-103 0 -106 -8z"/>
</g>
<g>
<path d="M605 301 c-3 -6 -2 -11 3 -11 4 0 8 -42 8 -92 l-1 -93 38 -3 c21 -2
37 1 37 7 0 6 -4 11 -10 11 -5 0 -10 20 -10 44 0 49 9 56 67 56 l36 0 -6 -60
-5 -60 40 0 c34 0 39 2 28 14 -7 10 -10 45 -8 105 l3 91 -32 0 c-31 0 -32 -1
-26 -36 l6 -35 -54 3 c-53 3 -54 4 -54 33 -1 25 -5 31 -27 33 -14 2 -29 -2
-33 -7z"/>
</g>
<g>
<path d="M880 300 c0 -5 5 -10 10 -10 6 0 10 -37 10 -90 l0 -90 74 0 c54 0 77
4 86 15 18 22 4 31 -23 16 -33 -17 -81 -11 -85 12 -6 29 6 53 20 39 19 -19 28
-14 28 18 0 20 -5 30 -15 30 -8 0 -15 -7 -15 -15 0 -8 -4 -15 -10 -15 -5 0
-10 18 -10 41 l0 41 50 -4 c28 -2 50 1 50 7 0 6 -37 11 -85 13 -54 2 -85 -1
-85 -8z"/>
</g>
<g>
<path d="M2815 145 c-17 -13 -18 -16 -5 -25 22 -15 45 -8 45 14 0 25 -16 30
-40 11z"/>
</g>
</g>
</svg>
