<?xml version="1.0" standalone="no"?>
<!DOCTYPE svg PUBLIC "-//W3C//DTD SVG 20010904//EN"
 "http://www.w3.org/TR/2001/REC-SVG-20010904/DTD/svg10.dtd">
<svg version="1.0" xmlns="http://www.w3.org/2000/svg"
 width="300.000000pt" height="514.000000pt" viewBox="0 0 300.000000 514.000000"
 preserveAspectRatio="xMidYMid meet">
<metadata>
Created by potrace 1.15, written by Peter Selinger 2001-2017
</metadata>
<g transform="translate(0.000000,514.000000) scale(0.100000,-0.100000)"
fill="#000000" stroke="none">
<g>
<path d="M163 5132 l-163 -2 0 -990 0 -990 30 0 c35 0 80 -38 80 -67 0 -10 3
-28 6 -40 9 -32 -19 -30 -54 2 -15 14 -32 25 -39 25 -6 0 -14 10 -16 23 -2 12
-5 -507 -6 -1155 -1 -1156 -1 -1176 18 -1171 16 4 18 11 14 39 -5 29 -1 38 27
64 37 35 74 38 110 10 32 -25 35 -25 48 5 15 33 15 35 -3 35 -8 0 -15 8 -15
19 0 10 -9 21 -20 24 -13 3 -31 29 -51 71 -28 61 -30 68 -18 103 7 21 33 59
58 86 44 46 46 47 106 47 58 0 64 -3 106 -40 24 -22 51 -40 60 -40 24 0 39 23
33 47 -5 17 1 25 27 39 78 40 162 6 204 -85 18 -37 23 -42 46 -37 29 6 49 -9
49 -36 0 -10 7 -21 15 -24 17 -7 21 -44 5 -44 -6 0 -19 13 -28 30 -17 30 -32
39 -32 20 0 -6 -10 -8 -24 -4 -19 4 -27 0 -37 -18 -17 -29 -38 -122 -38 -171
-1 -26 -6 -40 -19 -44 -32 -13 -51 -47 -52 -93 0 -25 -3 -68 -6 -96 -6 -49 -9
-53 -50 -73 -51 -26 -84 -16 -84 23 0 31 -22 48 -57 44 -24 -3 -28 -8 -28 -33
0 -19 -11 -44 -27 -63 -23 -27 -33 -32 -71 -32 -98 0 -125 26 -114 116 6 55
30 84 69 84 23 0 29 4 26 18 -3 13 -13 17 -43 16 -32 -1 -45 -8 -67 -35 -34
-40 -45 -92 -28 -124 22 -40 7 -57 -47 -53 l-48 3 -6 95 c-3 52 -6 -75 -7
-282 -1 -208 1 -378 6 -378 4 0 7 80 7 177 l0 178 210 1 c116 1 487 5 825 9
338 3 750 8 915 10 165 2 459 6 653 10 l352 8 0 -197 c0 -175 2 -196 16 -196
16 0 16 154 10 2093 -4 1150 -9 2148 -12 2217 -3 69 -6 278 -7 465 l-3 340
-39 7 c-45 7 -1129 14 -1599 10 -282 -2 -345 -6 -308 -19 6 -3 12 -11 12 -18
0 -7 8 -16 17 -19 15 -6 15 -8 3 -16 -12 -8 -10 -10 7 -10 17 0 21 -4 16 -17
-4 -11 -3 -14 5 -9 7 4 15 -1 20 -13 4 -11 10 -20 15 -20 22 0 67 -38 72 -60
7 -33 -8 -113 -33 -177 -20 -49 -20 -50 -1 -73 11 -13 19 -39 19 -60 0 -40 44
-136 62 -136 7 0 15 -14 20 -32 9 -34 50 -73 78 -73 9 0 22 10 29 23 10 18 9
28 -3 52 -9 17 -16 35 -16 41 0 7 -7 14 -15 18 -18 6 -22 126 -5 126 13 0 52
-83 60 -125 3 -21 11 -31 28 -33 15 -2 22 2 22 13 0 9 7 15 17 13 18 -3 40 54
23 60 -6 2 -10 15 -10 28 0 17 -6 24 -19 24 -28 0 -74 58 -67 85 4 16 -2 27
-24 44 -17 12 -30 26 -30 31 0 5 -15 25 -34 44 -53 55 -64 166 -23 227 40 60
59 64 287 63 196 0 208 -1 255 -24 53 -25 74 -45 75 -71 0 -8 12 -25 26 -38
34 -29 56 -85 53 -132 -4 -43 4 -57 23 -42 35 28 118 -20 118 -68 0 -60 -57
-130 -94 -116 -16 6 -20 3 -183 -120 -59 -46 -109 -79 -111 -74 -1 4 11 57 28
116 23 84 27 111 18 117 -7 4 -17 6 -23 5 -11 -4 -73 -88 -74 -101 -1 -4 -16
-34 -35 -65 -19 -31 -45 -74 -58 -96 -50 -85 -63 -105 -70 -105 -12 0 -10 24
2 36 6 6 16 66 22 133 11 129 7 151 -29 136 -17 -8 -17 -8 0 -12 21 -5 22 -32
2 -78 -9 -23 -12 -52 -8 -84 3 -31 1 -51 -6 -55 -7 -5 -11 2 -11 18 0 27 -24
36 -33 14 -4 -9 -12 -5 -26 12 -15 18 -21 21 -21 9 0 -8 4 -19 9 -25 6 -5 11
-29 13 -54 2 -35 7 -46 23 -49 26 -5 44 -30 45 -63 0 -35 -25 -38 -34 -4 -3
14 -19 34 -35 46 l-30 20 -14 -21 c-9 -12 -23 -19 -34 -17 -14 3 -17 11 -15
42 3 31 -2 44 -24 67 -15 16 -32 29 -38 29 -5 0 -23 12 -40 28 -17 15 -24 19
-17 10 15 -19 2 -25 -16 -7 -7 7 -10 4 -9 -13 1 -13 -2 -29 -7 -35 -6 -9 -5
-13 4 -13 10 0 9 -4 -3 -16 -13 -13 -20 -14 -39 -4 -44 23 -69 53 -69 81 0 26
2 28 30 23 35 -8 38 6 15 70 -11 32 -11 44 1 79 11 32 12 47 3 76 -7 20 -14
43 -16 51 -4 12 -7 11 -14 -5 -64 -154 -85 -195 -128 -254 -39 -54 -47 -72
-37 -80 8 -7 16 -7 23 0 7 7 14 5 23 -6 7 -8 25 -15 39 -15 19 0 37 -11 59
-36 28 -31 37 -35 65 -31 54 9 122 28 131 37 5 5 15 3 22 -5 16 -15 18 -35 5
-35 -5 0 -12 -18 -16 -40 -4 -22 -11 -40 -16 -40 -5 0 -14 -11 -19 -25 -6 -14
-14 -36 -19 -49 -8 -19 -15 -22 -36 -19 -25 5 -25 6 -10 30 20 30 17 34 -43
49 -43 11 -49 11 -68 -7 -16 -15 -32 -19 -60 -17 -43 3 -61 28 -20 28 14 0 26
5 26 10 0 6 -6 10 -13 10 -25 0 -87 74 -87 104 0 15 -5 36 -10 47 -9 16 -3 30
36 81 48 61 121 199 145 273 22 66 33 74 40 29 l5 -39 18 39 c43 95 45 176 4
184 -10 2 -13 -6 -10 -30 2 -19 -1 -49 -6 -68 -10 -33 -10 -32 -9 19 1 31 -3
56 -9 58 -36 12 -155 -130 -228 -272 -35 -68 -74 -178 -82 -232 -8 -52 5 -67
44 -52 14 5 27 7 31 4 9 -10 -22 -25 -51 -25 -32 0 -36 -15 -9 -30 13 -7 28
-7 45 0 27 10 37 -2 13 -17 -20 -13 -97 -9 -97 5 0 6 -4 12 -9 12 -5 0 -12 -6
-14 -12 -4 -10 -8 -9 -16 2 -10 13 -12 13 -21 0 -8 -12 -10 -11 -10 8 0 12 -4
22 -10 22 -5 0 -10 -7 -10 -15 0 -8 -4 -15 -10 -15 -5 0 -10 7 -10 15 0 20
-10 19 -25 -2 -15 -21 -45 -10 -45 16 0 22 27 41 59 41 32 0 35 19 4 32 -40
18 -62 39 -57 53 3 7 -5 16 -18 19 -14 5 -18 9 -11 12 10 4 10 11 2 25 -5 11
-14 17 -19 14 -5 -3 -11 -1 -14 4 -4 5 -2 12 3 16 14 8 2 35 -15 35 -16 0 -19
17 -3 22 5 2 7 11 4 20 -4 9 -13 14 -21 11 -16 -6 -19 12 -4 22 16 10 12 45
-5 45 -8 0 -15 5 -15 10 0 6 7 10 15 10 18 0 21 46 3 53 -10 4 -10 8 1 15 8 6
11 18 6 31 -4 12 -2 21 4 21 19 0 12 17 -9 23 -33 9 -24 30 9 22 26 -6 29 -4
24 15 -5 17 -2 21 13 18 13 -2 18 2 16 15 -2 11 4 17 18 17 12 0 20 7 20 16 0
11 5 14 16 10 11 -4 18 1 21 14 4 14 14 20 34 20 16 0 29 5 29 10 0 6 9 10 20
10 11 0 20 5 20 10 0 6 13 9 29 8 16 -1 36 4 44 10 10 9 17 10 22 2 9 -14 45
-13 45 3 1 7 6 5 14 -5 15 -21 52 -24 58 -6 3 8 9 4 17 -10 17 -32 28 -27 29
13 1 19 -3 35 -8 35 -6 0 -10 6 -10 14 0 24 -201 29 -827 18z m2692 -145 c0
-67 3 -203 7 -302 4 -99 5 -188 2 -197 -9 -29 -33 -21 -85 26 -27 24 -71 58
-97 76 -26 17 -100 82 -164 145 -76 75 -125 115 -139 115 -27 0 -27 5 39 -250
29 -107 58 -220 66 -250 8 -30 12 -58 10 -62 -3 -4 -17 -2 -32 5 -29 12 -134
76 -142 86 -12 14 -91 61 -103 61 -7 0 -17 4 -22 9 -22 20 -165 91 -185 91
-20 0 -20 -1 -6 -22 23 -33 19 -64 -10 -87 -29 -23 -79 -28 -90 -9 -4 6 5 22
22 38 16 14 35 34 43 43 26 33 0 17 -57 -35 -31 -29 -74 -64 -95 -78 -62 -42
-53 -48 78 -53 105 -5 122 -23 40 -43 -131 -31 -168 -37 -215 -38 -51 -1 -51
-1 -46 -31 2 -16 8 -42 11 -57 5 -18 3 -28 -4 -28 -6 0 -11 10 -11 21 0 18 -2
19 -15 9 -12 -10 -15 -10 -15 0 0 10 -3 10 -15 0 -13 -11 -15 -7 -15 28 0 33
6 45 35 71 20 17 30 31 24 31 -13 0 -99 -89 -99 -102 0 -5 -4 -8 -10 -8 -5 0
-10 14 -10 30 0 18 -6 33 -15 36 -13 5 -13 10 0 40 8 19 21 42 30 50 8 9 23
30 32 47 9 18 33 57 53 87 20 30 46 76 57 101 20 45 39 66 49 56 3 -3 1 -15
-6 -26 -6 -12 -20 -54 -30 -94 -11 -39 -22 -82 -26 -94 -14 -49 24 -35 133 48
59 46 123 95 141 111 l32 28 53 -20 c28 -11 61 -25 72 -32 11 -6 67 -36 125
-66 58 -30 111 -59 118 -65 9 -7 16 -7 24 1 8 8 3 38 -20 114 -17 57 -40 139
-51 183 -11 44 -29 115 -41 159 -11 43 -19 81 -16 83 17 17 146 -62 301 -182
42 -33 91 -70 108 -83 18 -13 41 -32 53 -43 24 -22 52 -25 60 -5 5 12 -8 234
-23 394 l-5 62 48 0 49 0 0 -123z m-1754 -383 c-31 -79 -104 -194 -122 -194
-5 0 10 28 34 63 23 34 56 90 72 124 34 73 44 77 16 7z m209 26 c0 -5 -4 -10
-10 -10 -5 0 -10 5 -10 10 0 6 5 10 10 10 6 0 10 -4 10 -10z m1415 -284 c15
-15 17 -83 3 -92 -13 -8 -102 81 -94 94 10 17 75 15 91 -2z m-2135 -21 c0 -8
-4 -15 -9 -15 -13 0 -22 16 -14 24 11 11 23 6 23 -9z m1543 -77 c5 -54 -10
-88 -38 -88 -7 0 -18 -7 -25 -15 -11 -13 -8 -15 13 -15 14 0 30 -7 35 -16 13
-23 55 -21 90 5 31 22 68 29 57 11 -3 -5 1 -10 9 -10 8 0 18 5 21 10 8 13 52
13 60 0 3 -5 -5 -15 -20 -22 -19 -8 -24 -16 -19 -31 6 -19 3 -19 -44 -13 -47
6 -52 4 -72 -21 l-22 -28 36 -3 c44 -4 46 -15 6 -32 -35 -15 -38 -26 -9 -33
36 -9 11 -30 -27 -22 -20 3 -34 2 -34 -4 0 -5 10 -11 22 -13 29 -4 34 -24 7
-31 -36 -10 -89 18 -89 45 0 24 -16 48 -32 48 -4 0 -8 -7 -8 -15 0 -18 -19
-19 -42 -1 -24 18 -22 26 5 26 13 0 28 5 33 10 7 7 19 4 37 -10 23 -18 28 -19
33 -6 7 19 -3 36 -22 36 -25 0 -15 18 19 30 l32 13 -35 7 c-19 3 -45 12 -57
18 -30 16 -44 15 -73 -8 -14 -11 -18 -18 -9 -14 10 3 20 -1 25 -8 4 -7 4 -10
-1 -6 -10 10 -37 -11 -29 -23 3 -5 -2 -9 -10 -9 -8 0 -19 -8 -25 -17 -11 -20
-13 -15 -25 38 -8 37 19 71 52 67 23 -3 27 0 25 22 -4 32 24 71 36 52 6 -10
10 -7 15 11 3 13 22 36 41 51 19 15 35 36 35 47 0 42 18 16 23 -33z m-244 -53
c10 -38 -1 -180 -14 -179 -11 1 -7 -38 4 -46 4 -3 10 -13 14 -22 3 -10 12 -18
19 -18 9 0 9 3 -2 10 -20 13 -10 19 21 13 20 -4 25 -9 22 -24 -9 -31 -39 -42
-67 -24 -18 12 -25 28 -31 70 -3 30 -3 60 1 66 8 13 -13 29 -38 29 -12 0 -18
-8 -18 -22 0 -16 -3 -19 -11 -11 -13 13 1 133 16 136 6 1 11 -15 13 -35 4 -49
14 -48 29 2 9 27 10 47 3 65 -15 39 -12 47 10 33 11 -7 24 -26 29 -43z m-573
-55 c21 0 17 18 -7 30 -31 17 -15 24 25 10 45 -15 46 -36 2 -57 -58 -27 -110
2 -85 48 10 19 11 19 30 -5 11 -15 27 -26 35 -26z m1311 42 c21 -13 43 -78 31
-90 -15 -15 -61 4 -73 31 -6 12 -20 26 -32 32 -13 5 -23 13 -23 17 0 15 77 23
97 10z m-2331 -27 c19 -29 51 -33 70 -7 11 14 15 14 22 4 6 -8 23 -12 43 -10
27 2 35 -2 46 -22 17 -34 16 -85 -2 -100 -9 -7 -13 -20 -10 -28 3 -9 0 -19 -7
-23 -9 -6 -5 -15 15 -35 24 -24 29 -25 56 -14 16 6 32 18 35 27 3 8 16 13 28
12 13 -1 31 1 41 6 25 11 57 -21 57 -57 0 -21 5 -28 19 -28 10 0 24 -6 31 -14
6 -8 18 -12 27 -9 8 3 19 0 23 -7 12 -20 27 -4 28 31 0 18 10 42 23 55 41 44
83 23 93 -46 10 -70 7 -123 -10 -149 -13 -19 -14 -25 -3 -32 22 -14 49 -10 49
5 0 8 4 17 10 21 15 10 60 -6 60 -22 0 -7 8 -13 17 -11 25 4 29 -34 23 -212
l-5 -155 -25 -3 c-13 -2 -30 -13 -38 -23 -17 -24 -52 -25 -52 -1 0 46 -58 57
-85 16 -13 -21 -23 -25 -52 -22 l-35 3 -4 -83 c-3 -66 -1 -90 13 -113 13 -22
15 -31 5 -41 -7 -7 -12 -22 -12 -34 0 -12 -7 -27 -16 -35 -15 -12 -14 -26 2
-81 3 -10 1 -18 -4 -18 -9 0 -12 14 -31 130 -8 50 -36 100 -57 100 -28 0 -25
23 9 54 21 19 40 49 48 76 16 57 28 73 51 67 11 -3 18 0 18 9 0 21 -33 17 -64
-7 -58 -45 -123 12 -109 96 5 33 4 35 -21 35 -19 0 -26 -5 -26 -19 0 -26 -14
-34 -79 -42 -43 -6 -61 -4 -83 9 -26 15 -28 21 -28 75 0 50 -2 58 -16 53 -9
-3 -20 -6 -25 -6 -6 0 -21 -12 -34 -26 -18 -20 -23 -33 -18 -55 10 -52 -5 -96
-41 -118 -18 -12 -44 -21 -56 -21 -13 0 -31 -7 -41 -16 -16 -14 -20 -14 -51 2
-34 18 -58 19 -69 3 -3 -5 -13 -7 -22 -3 -15 5 -17 28 -17 205 l0 200 27 -3
c23 -3 27 1 28 22 0 20 6 26 27 28 22 3 30 -2 40 -23 9 -19 17 -25 32 -21 11
3 28 -2 38 -10 18 -17 38 -11 38 11 0 7 7 15 15 19 9 3 15 18 15 35 0 26 -4
31 -33 36 -24 5 -36 15 -46 36 -7 16 -20 29 -28 29 -9 0 -29 15 -45 32 -27 30
-29 37 -23 83 15 115 46 162 126 191 49 18 57 17 75 -11z m858 13 c-4 -7 -14
-21 -22 -31 -8 -9 -12 -20 -9 -23 3 -4 47 -11 96 -17 83 -9 93 -8 134 12 24
12 52 19 61 15 8 -3 32 3 51 15 l36 21 29 -22 c37 -27 31 -35 -9 -15 -24 12
-31 13 -31 2 0 -7 7 -18 15 -25 8 -7 15 -18 15 -25 0 -8 21 -18 48 -24 40 -9
51 -8 72 8 14 10 30 28 36 40 18 35 23 35 23 0 0 -73 12 -310 21 -414 6 -60
10 -203 10 -317 l0 -207 -22 8 c-17 6 -22 15 -20 34 2 18 -3 29 -18 37 -14 8
-19 17 -15 30 3 10 1 21 -5 25 -13 8 -3 25 16 25 8 0 14 -7 14 -16 0 -8 5 -12
10 -9 6 3 10 18 10 32 0 18 -4 24 -15 20 -12 -5 -13 4 -8 58 5 57 4 64 -16 76
-11 8 -21 19 -21 25 0 6 -7 17 -15 24 -9 7 -14 19 -11 26 2 6 -2 20 -10 31
-13 16 -14 14 -11 -27 3 -49 21 -82 50 -93 20 -7 24 -66 7 -98 -17 -30 -25
-23 -28 25 -1 24 -13 68 -27 98 -21 46 -24 62 -18 121 4 47 2 67 -5 67 -7 0
-11 -19 -11 -50 1 -27 -4 -57 -11 -65 -10 -12 -9 -22 5 -52 18 -36 17 -37 -4
-51 -13 -9 -21 -25 -21 -43 0 -18 -7 -32 -20 -39 -20 -11 -29 -60 -10 -60 6 0
10 9 10 19 0 11 5 23 10 26 6 3 10 -3 10 -14 0 -10 3 -26 6 -34 3 -10 -2 -17
-13 -20 -13 -3 -11 -5 8 -6 14 0 30 4 37 11 9 9 12 8 12 -5 0 -22 -31 -37 -60
-30 -19 5 -21 3 -16 -14 4 -12 8 -72 11 -134 4 -114 4 -114 29 -117 31 -4 34
-22 6 -40 -29 -18 -25 -42 20 -105 42 -60 39 -79 -4 -25 -20 26 -28 30 -37 21
-10 -10 -8 -18 9 -36 27 -28 28 -37 4 -37 -27 0 -42 -20 -42 -57 0 -47 32 -64
125 -68 87 -3 108 -15 94 -52 -11 -30 -4 -60 21 -88 27 -31 32 -72 39 -350 4
-158 12 -272 19 -290 6 -17 13 -100 14 -192 3 -176 6 -168 -54 -187 -10 -3
-30 -32 -45 -66 -22 -46 -33 -60 -49 -60 -17 0 -67 33 -112 75 -2 2 1 12 7 23
14 26 -4 42 -45 42 -23 0 -34 -5 -37 -17 -6 -26 -40 53 -42 100 -3 48 -9 54
-40 37 -18 -10 -25 -22 -25 -45 0 -17 -6 -55 -14 -85 -8 -30 -12 -58 -9 -63
11 -19 -21 -37 -68 -37 -39 0 -49 -4 -54 -20 -6 -18 -63 -70 -78 -70 -3 0 -8
19 -12 43 -9 60 -25 107 -36 107 -5 0 -9 18 -9 40 0 32 -4 40 -19 40 -15 0
-19 -10 -24 -55 -7 -67 -12 -75 -43 -75 -17 0 -28 -8 -36 -27 -17 -39 -16 -39
-38 -16 -19 21 -19 21 2 39 11 11 35 42 53 70 l33 52 12 238 c18 394 20 431
31 629 6 105 14 294 18 421 5 127 12 237 17 245 7 12 10 216 13 937 l1 182 26
0 c17 0 23 -4 18 -12z m609 -86 c-7 -52 17 -96 48 -87 16 6 19 1 19 -30 0 -37
13 -69 37 -93 7 -7 13 -31 13 -53 0 -21 4 -39 9 -39 5 0 10 -15 10 -32 0 -18
3 -100 5 -183 3 -82 8 -238 11 -345 3 -107 8 -237 11 -288 6 -89 5 -93 -13
-83 -10 5 -25 12 -34 15 -11 3 -17 16 -17 38 0 18 -7 47 -16 63 -9 17 -16 36
-16 43 0 22 -41 9 -63 -19 -10 -15 -23 -46 -27 -70 -10 -53 1 -69 57 -79 34
-7 32 -8 -25 -9 -60 -1 -63 0 -82 32 -36 59 -22 125 35 158 28 17 35 28 36 52
l1 32 9 -32 c6 -19 16 -33 25 -33 11 0 14 5 9 18 -3 9 -9 30 -12 45 -3 16 -12
31 -19 34 -11 4 -14 41 -14 172 0 91 -4 240 -10 331 -5 91 -12 239 -15 329 -3
90 -8 168 -11 172 -13 22 9 27 26 6 14 -18 17 -34 13 -65z m-183 68 c0 -5 -7
-10 -15 -10 -8 0 -15 5 -15 10 0 6 7 10 15 10 8 0 15 -4 15 -10z m1262 -20
c27 -20 40 -60 28 -81 -17 -27 -90 44 -90 88 0 19 34 16 62 -7z m-396 -121
c22 -25 12 -89 -15 -89 -32 0 -66 34 -56 56 4 10 7 23 6 28 -8 36 33 40 65 5z
m282 -76 c5 -10 12 -31 16 -46 6 -27 5 -28 -26 -25 -23 2 -36 10 -43 26 -5 12
-15 22 -22 22 -17 0 -17 27 0 33 28 12 67 6 75 -10z m-291 -152 c29 -56 18
-72 -32 -48 -23 11 -35 24 -35 37 0 11 -7 23 -15 26 -8 4 -15 13 -15 21 0 10
10 13 37 11 32 -3 39 -9 60 -47z m457 3 c17 -7 32 -65 22 -91 -6 -14 -11 -12
-36 15 -16 18 -35 32 -41 32 -10 0 -10 3 -2 11 6 6 9 18 6 25 -5 15 22 19 51
8z m-715 -39 c30 -15 43 -35 47 -72 2 -20 -2 -23 -30 -23 -38 0 -63 17 -68 45
-2 11 -13 24 -26 30 -26 12 -28 22 -4 28 33 9 53 7 81 -8z m531 -20 c12 -15
27 -95 17 -95 -12 0 -107 54 -108 61 -5 27 -2 34 21 40 40 11 57 10 70 -6z
m-184 -141 c67 -32 105 -79 112 -139 3 -31 11 -49 23 -56 11 -5 19 -16 19 -24
0 -19 0 -19 39 1 18 9 36 26 41 39 5 12 16 25 25 29 11 4 14 12 10 26 -5 15 0
26 17 40 31 26 48 25 88 -5 19 -14 40 -23 46 -21 7 3 14 -1 17 -7 8 -25 -3
-1171 -12 -1180 -15 -15 -40 0 -51 29 l-11 27 -23 -22 c-35 -33 -99 -20 -126
24 -26 42 -26 90 0 108 13 9 18 20 14 31 -6 17 -16 20 -27 10 -4 -4 -21 -8
-40 -10 -25 -2 -40 4 -64 26 -59 55 -67 141 -18 194 26 28 54 33 84 14 11 -7
26 -8 37 -3 11 5 28 9 39 9 15 1 20 8 20 27 0 29 31 65 83 95 36 21 75 85 70
118 -1 11 1 27 5 34 6 8 0 12 -18 12 -24 0 -26 -3 -21 -24 8 -34 -3 -81 -25
-105 -28 -30 -92 -45 -133 -31 -34 11 -41 17 -100 84 -23 26 -39 37 -50 33
-17 -7 -22 -37 -6 -37 18 0 11 -49 -10 -70 -11 -11 -20 -28 -20 -39 0 -25 -25
-44 -49 -36 -23 7 -61 -14 -61 -33 0 -14 -36 -8 -54 9 -23 21 -37 9 -30 -26 7
-37 -11 -50 -23 -17 -4 9 -17 28 -30 42 -20 21 -32 25 -81 25 -31 0 -67 -4
-79 -8 -19 -7 -23 -5 -23 11 0 28 -44 107 -60 107 -14 0 -24 -16 -53 -83 -13
-30 -15 -31 -29 -15 -12 13 -19 55 -27 145 -11 132 -8 178 17 215 12 19 20 22
51 17 29 -5 40 -2 55 15 18 20 18 22 3 39 -24 27 -21 65 8 92 24 23 25 23 45
5 11 -10 20 -13 20 -7 0 20 38 34 60 22 11 -6 20 -15 20 -20 0 -5 11 -21 25
-36 53 -57 75 16 22 76 -31 34 -35 62 -9 58 13 -2 17 4 17 27 1 19 6 31 17 33
8 2 24 20 34 40 24 46 66 77 122 91 2 1 28 -11 58 -25z m-323 -80 c14 -30 18
-47 11 -54 -15 -15 -60 4 -74 30 -6 11 -17 20 -24 20 -8 0 -19 6 -25 14 -10
12 -7 17 14 29 44 22 74 10 98 -39z m-623 -124 c5 0 11 15 13 33 l4 32 1 -37
c2 -36 -11 -58 -23 -39 -3 6 -12 8 -19 5 -10 -4 -12 2 -9 23 8 51 17 59 21 21
2 -21 7 -38 12 -38z m-1102 -76 c18 -3 22 -11 22 -39 0 -33 0 -34 -37 -28 -40
5 -73 34 -73 62 0 18 22 19 88 5z m1132 -34 c0 -5 -7 -10 -16 -10 -8 0 -12 5
-9 10 3 6 10 10 16 10 5 0 9 -4 9 -10z m-1238 -22 c18 -9 35 -54 24 -65 -11
-12 -85 17 -101 40 -25 36 -19 46 23 40 20 -3 45 -10 54 -15z m-113 -114 c27
-34 29 -79 4 -69 -10 4 -36 12 -58 17 -46 11 -75 34 -75 60 0 15 8 18 54 18
47 0 57 -4 75 -26z m1454 2 c27 -21 23 -92 -5 -107 -70 -35 -86 -90 -49 -159
19 -36 78 -66 113 -57 10 3 16 0 15 -5 -1 -6 4 -13 11 -15 6 -3 12 0 12 6 0 6
9 11 20 11 10 0 23 7 28 16 7 13 13 13 35 3 15 -7 27 -20 27 -30 0 -13 -8 -17
-35 -16 -40 1 -86 -36 -86 -69 1 -10 1 -46 1 -79 0 -38 5 -68 14 -80 9 -11 16
-27 16 -36 0 -9 7 -22 15 -29 27 -22 9 -22 -35 1 -47 25 -61 52 -58 111 3 39
1 42 -41 64 -47 25 -76 30 -86 15 -6 -11 -75 -3 -89 9 -13 12 4 69 22 74 9 3
52 8 94 10 62 5 80 2 93 -10 14 -15 14 -17 0 -28 -13 -9 -14 -17 -4 -44 17
-49 36 -40 42 21 6 63 1 68 -93 93 -39 10 -70 21 -70 24 0 4 -16 25 -35 47
-43 50 -47 78 -10 69 22 -6 25 -3 25 24 0 25 5 31 32 38 48 12 57 35 29 72
-22 30 -22 32 -5 51 20 22 32 23 57 5z m-1072 -49 c-13 -13 -26 -3 -16 12 3 6
11 8 17 5 6 -4 6 -10 -1 -17z m949 -2 c0 -16 6 -25 15 -25 9 0 15 9 15 22 l0
21 25 -23 c30 -28 32 -44 5 -37 -11 3 -18 1 -14 -4 6 -11 -44 -32 -57 -23 -12
7 -12 94 1 94 6 0 10 -11 10 -25z m-1102 -31 c2 -16 10 -36 18 -45 7 -8 17
-30 20 -48 8 -40 43 -60 77 -43 63 30 99 19 72 -22 -11 -17 -17 -45 -16 -81 0
-30 -3 -55 -7 -55 -13 0 -28 15 -35 32 -8 24 -85 61 -113 55 -13 -2 -32 1 -41
8 -16 12 -16 14 1 30 10 11 14 24 10 34 -3 9 -9 51 -12 95 -4 64 -2 78 9 74 8
-2 16 -18 17 -34z m363 3 c-13 -13 -26 -3 -16 12 3 6 11 8 17 5 6 -4 6 -10 -1
-17z m43 -26 c8 -12 -3 -41 -15 -41 -5 0 -9 7 -9 15 0 19 -10 19 -38 -1 -12
-8 -22 -11 -22 -7 0 10 50 42 67 43 6 0 14 -4 17 -9z m2 -83 c16 -18 43 -54
59 -80 17 -27 33 -48 38 -48 4 0 7 -10 7 -21 0 -19 -4 -21 -31 -15 -36 7 -73
-10 -65 -30 3 -9 -1 -13 -12 -11 -9 1 -18 -2 -20 -8 -2 -5 -10 -17 -18 -27
-18 -19 0 -38 19 -19 6 6 19 11 29 11 10 0 18 5 18 11 0 5 5 7 10 4 16 -10 11
-25 -9 -25 -10 0 -24 -7 -31 -15 -7 -8 -18 -15 -24 -15 -21 0 -49 -26 -42 -38
5 -8 22 -2 55 18 27 17 53 30 58 30 6 0 15 15 21 33 l12 32 -5 -30 -5 -30 15
28 c9 15 21 25 26 21 12 -7 3 -73 -12 -89 -5 -5 -9 -18 -9 -28 0 -22 -54 -133
-77 -159 -9 -10 -21 -56 -28 -104 -7 -48 -20 -93 -28 -101 -12 -12 -16 -11
-31 12 -11 17 -14 31 -8 38 13 17 24 67 14 67 -15 0 -32 -24 -32 -47 0 -23
-14 -31 -24 -14 -3 5 2 32 11 61 13 41 14 53 4 59 -10 7 -10 18 2 59 9 27 18
76 22 108 5 48 4 56 -6 40 -7 -11 -13 -37 -14 -59 -3 -51 -25 -75 -25 -26 0
48 13 89 46 140 15 24 28 49 29 56 0 7 9 19 20 26 17 13 18 17 5 32 -8 10 -14
20 -12 22 1 2 -9 20 -22 41 -14 20 -28 53 -31 74 -6 30 -4 37 12 41 41 11 60
5 89 -25z m923 0 c10 -26 5 -41 -10 -32 -5 3 -7 9 -4 14 3 5 1 11 -5 15 -13 8
-13 25 0 25 6 0 14 -10 19 -22z m-1655 -30 c40 -65 21 -144 -25 -102 -27 24
-35 40 -43 87 -7 36 -6 37 23 37 21 0 35 -7 45 -22z m650 -84 l39 -46 -31 -29
c-33 -31 -76 -42 -52 -14 11 13 8 15 -14 15 -15 0 -38 7 -51 16 -20 13 -25 25
-25 60 l0 44 48 0 c43 -1 50 -4 86 -46z m-732 -11 c21 -25 29 -53 21 -66 -4
-7 -8 -18 -8 -26 0 -17 -16 -24 -30 -13 -15 11 -55 88 -55 106 0 22 52 21 72
-1z m941 -43 c-3 -11 -7 -20 -9 -20 -2 0 -4 9 -4 20 0 11 4 20 9 20 5 0 7 -9
4 -20z m1267 -37 c25 -23 34 -44 50 -118 10 -49 18 -91 16 -92 -1 -2 -23 7
-47 20 -33 18 -45 30 -47 50 -4 33 -15 34 -35 5 -16 -22 -16 -22 -16 22 -1 26
6 55 15 68 8 12 12 26 9 32 -10 17 -54 -20 -64 -54 -9 -30 -9 -30 -10 -5 -1
30 21 78 41 90 25 16 58 9 88 -18z m-305 7 c3 -5 1 -10 -4 -10 -6 0 -11 5 -11
10 0 6 2 10 4 10 3 0 8 -4 11 -10z m-125 -15 c-7 -9 -15 -13 -17 -11 -7 7 7
26 19 26 6 0 6 -6 -2 -15z m275 5 c-3 -5 -13 -10 -21 -10 -8 0 -12 5 -9 10 3
6 13 10 21 10 8 0 12 -4 9 -10z m-1439 -25 c-14 -13 -26 -29 -26 -35 0 -5 -7
-10 -15 -10 -7 0 -19 -8 -24 -17 -9 -16 -10 -16 -11 -1 0 9 3 24 6 33 5 13 9
14 15 4 6 -10 10 -9 15 6 11 32 25 45 47 45 18 0 18 -2 -7 -25z m1198 -9 c-15
-12 -16 -17 -7 -27 10 -10 16 -9 31 4 10 9 32 17 49 17 17 0 34 6 37 13 3 6 3
-1 -1 -16 -5 -24 0 -33 28 -57 19 -16 39 -30 44 -30 6 0 19 -8 30 -16 19 -15
18 -16 -20 -10 -22 4 -52 16 -67 27 -27 19 -35 16 -20 -8 13 -21 64 -35 147
-42 69 -6 88 -12 139 -45 42 -27 61 -34 66 -25 6 8 11 6 19 -9 6 -11 11 -25
11 -31 0 -6 17 -26 37 -45 37 -33 41 -65 6 -34 -26 21 -103 48 -140 48 -18 0
-33 6 -37 15 -3 10 -19 15 -45 15 -46 0 -116 24 -146 50 -11 10 -29 21 -41 24
-12 4 -33 19 -47 34 -41 44 -57 54 -72 48 -15 -5 -10 -36 6 -36 5 0 21 -14 36
-30 15 -17 49 -45 77 -61 41 -25 47 -33 34 -40 -20 -11 -63 5 -100 39 -17 16
-33 22 -44 18 -14 -5 -16 -2 -11 23 5 24 2 31 -13 36 -29 9 -53 66 -41 97 11
28 49 68 65 68 5 0 1 -6 -10 -14z m181 -7 c6 -19 0 -38 -9 -28 -10 12 -16 49
-7 49 5 0 13 -9 16 -21z m-1300 -48 c-29 -56 -41 -66 -30 -24 7 29 44 87 51
80 3 -2 -7 -27 -21 -56z m-39 40 c19 16 18 5 -7 -43 -17 -34 -20 -53 -16 -97
4 -35 3 -48 -2 -35 -18 42 -24 153 -10 170 9 11 15 12 17 5 3 -9 7 -9 18 0z
m1397 -15 c-3 -13 0 -33 6 -45 13 -23 2 -28 -17 -9 -13 13 -16 60 -5 71 13 14
20 6 16 -17z m-1476 -53 c-3 -10 -5 -4 -5 12 0 17 2 24 5 18 2 -7 2 -21 0 -30z
m-595 -93 c3 -53 2 -55 -22 -55 -23 0 -25 4 -28 59 -2 32 0 66 3 74 5 14 8 13
25 -4 12 -13 20 -37 22 -74z m558 -6 c0 -9 -6 -14 -12 -11 -7 2 -21 -2 -30
-10 -19 -17 -47 -8 -30 9 16 16 56 35 65 31 4 -2 7 -11 7 -19z m1706 -12 c-4
-3 -14 2 -24 12 -16 18 -16 18 6 6 13 -6 21 -14 18 -18z m-1579 -4 c-3 -8 -6
-5 -6 6 -1 11 2 17 5 13 3 -3 4 -12 1 -19z m-47 -21 c0 -8 -7 -14 -15 -14 -8
0 -15 6 -15 14 0 7 7 13 15 13 8 0 15 -6 15 -13z m40 -24 c0 -23 -24 -90 -35
-100 -4 -5 -5 0 -1 11 3 10 1 25 -5 32 -9 11 -8 19 5 32 9 10 16 24 16 30 0 7
5 12 10 12 6 0 10 -8 10 -17z m1153 -51 c26 -26 46 -51 44 -57 -2 -5 2 -30 10
-55 8 -25 18 -110 23 -190 27 -433 57 -679 87 -712 15 -16 15 -18 0 -18 -25 0
-66 18 -88 39 -11 10 -39 22 -62 25 -23 4 -49 14 -59 23 -19 17 -25 53 -8 53
6 0 10 28 11 63 1 56 2 59 11 32 24 -67 56 -68 37 -1 -6 21 -8 54 -4 72 15 84
-20 245 -45 205 -17 -29 -28 64 -34 290 -3 124 -9 240 -12 258 -7 32 -6 33 17
26 13 -4 45 -28 72 -53z m76 6 c41 -36 39 -40 -9 -17 -22 11 -40 21 -40 23 0
3 -3 12 -7 22 -8 20 8 13 56 -28z m208 -4 c-3 -3 -12 -4 -19 -1 -8 3 -5 6 6 6
11 1 17 -2 13 -5z m175 -35 c9 -5 25 -9 35 -9 26 0 88 -67 102 -110 6 -19 36
-61 66 -93 40 -42 55 -66 55 -86 0 -41 62 -95 101 -87 32 6 59 -1 59 -16 0 -5
-15 -6 -35 -2 -34 6 -65 -7 -65 -27 0 -9 47 -6 57 4 3 4 12 7 20 7 10 0 8 -7
-6 -27 -19 -26 -19 -32 -8 -77 7 -27 19 -52 26 -54 10 -3 11 2 6 19 -15 45
-15 109 0 109 7 0 15 -6 18 -12 3 -10 8 -10 18 1 11 10 11 15 2 18 -7 3 -13
12 -13 20 0 13 3 13 15 3 8 -7 15 -21 15 -32 0 -10 10 -32 22 -48 l21 -30 -22
-72 c-24 -76 -32 -101 -32 -105 -1 -2 -7 -26 -15 -55 -16 -63 -16 -58 -6 -56
6 1 56 -19 71 -28 1 -2 0 -7 -4 -13 -4 -7 -14 -5 -30 5 l-25 16 11 -31 c6 -18
9 -34 6 -37 -3 -3 -8 4 -12 15 -3 12 -10 21 -15 21 -6 0 -5 -11 0 -26 6 -14
10 -30 10 -36 0 -16 -13 -1 -16 18 -4 27 -13 44 -23 44 -6 0 -6 -12 -1 -30 12
-42 -3 -38 -19 6 -11 31 -11 38 5 55 9 10 14 22 11 25 -3 4 -17 -6 -30 -20
-24 -26 -47 -34 -47 -17 0 5 7 11 15 15 23 8 34 42 56 169 9 54 8 60 -12 76
-13 10 -21 29 -21 45 0 35 -75 113 -92 96 -21 -21 -26 -9 -11 27 17 40 14 63
-9 63 -18 0 -28 25 -20 54 4 18 -5 34 -39 69 -24 25 -55 63 -69 84 -45 67
-103 122 -151 143 -26 12 -47 23 -47 26 0 6 50 -6 72 -17z m-2254 -13 c18 -24
25 -96 9 -96 -4 0 -13 0 -21 0 -8 0 -28 12 -45 26 -24 19 -31 34 -31 60 0 32
2 34 34 34 25 0 40 -7 54 -24z m62 4 c0 -5 -2 -10 -4 -10 -3 0 -8 5 -11 10 -3
6 -1 10 4 10 6 0 11 -4 11 -10z m1893 -5 c12 -8 49 -17 82 -21 82 -9 118 -28
112 -60 -3 -20 0 -24 20 -24 42 0 93 -27 103 -56 6 -15 27 -53 47 -85 22 -37
34 -66 30 -79 -3 -11 -1 -23 4 -26 14 -8 10 -24 -5 -18 -8 3 -16 -4 -19 -18
-5 -18 -9 -20 -19 -10 -18 18 -31 14 -25 -8 3 -11 1 -20 -4 -20 -5 0 -9 7 -9
15 0 9 -10 29 -22 45 -17 23 -19 33 -10 42 16 16 15 48 -4 94 -18 43 -32 56
-52 49 -8 -3 -19 -2 -25 2 -7 4 -3 9 12 13 35 8 39 30 6 30 -15 0 -56 14 -92
30 -76 35 -71 34 -75 14 -2 -11 -16 0 -45 36 -54 67 -58 87 -10 55z m-1303 -4
c0 -6 -4 -13 -10 -16 -5 -3 -10 1 -10 9 0 9 5 16 10 16 6 0 10 -4 10 -9z
m1590 -56 c19 -19 30 -35 24 -35 -10 0 -74 55 -74 64 0 14 19 3 50 -29z
m-1990 5 c0 -5 -6 -10 -14 -10 -8 0 -16 -5 -18 -12 -3 -9 -6 -9 -12 0 -6 10
13 24 42 31 1 1 2 -3 2 -9z m39 -22 c10 -30 9 -31 -4 -14 -8 11 -15 26 -15 33
0 22 8 14 19 -19z m-32 -20 c-3 -8 -6 -5 -6 6 -1 11 2 17 5 13 3 -3 4 -12 1
-19z m-126 -22 c-8 -10 -8 -20 4 -42 8 -16 14 -40 14 -54 -1 -20 -2 -21 -6 -5
-2 11 -13 39 -24 62 -24 53 -24 53 2 53 17 0 19 -3 10 -14z m64 4 c-3 -5 -10
-10 -16 -10 -5 0 -9 5 -9 10 0 6 7 10 16 10 8 0 12 -4 9 -10z m162 -42 c-2
-13 -4 -5 -4 17 -1 22 1 32 4 23 2 -10 2 -28 0 -40z m1727 27 c16 -12 17 -15
4 -15 -24 0 -48 11 -48 21 0 13 23 10 44 -6z m295 -75 c24 -47 34 -80 24 -80
-5 0 -22 27 -38 60 -23 46 -34 58 -47 54 -20 -6 -21 -1 -11 35 l6 24 24 -29
c13 -16 32 -45 42 -64z m-2059 64 c0 -8 -4 -12 -10 -9 -5 3 -10 10 -10 16 0 5
5 9 10 9 6 0 10 -7 10 -16z m-293 -29 c25 -18 39 -109 15 -100 -8 3 -26 8 -40
11 -15 4 -35 15 -44 24 -9 10 -23 20 -30 23 -9 3 -4 13 16 31 33 30 53 32 83
11z m350 -67 c-2 -13 -4 -5 -4 17 -1 22 1 32 4 23 2 -10 2 -28 0 -40z m-117
32 c0 -5 -4 -10 -10 -10 -5 0 -10 5 -10 10 0 6 5 10 10 10 6 0 10 -4 10 -10z
m2170 -21 c0 -6 -4 -7 -10 -4 -5 3 -10 11 -10 16 0 6 5 7 10 4 6 -3 10 -11 10
-16z m-2114 -32 c7 2 19 -5 26 -16 7 -12 19 -21 26 -21 8 0 12 -12 11 -32 -1
-18 1 -43 5 -55 10 -32 -2 -63 -25 -63 -17 0 -18 3 -7 21 11 17 10 22 -6 35
-31 22 -49 18 -44 -10 l5 -24 -28 20 c-26 19 -27 22 -11 34 16 11 15 14 -3 34
-11 12 -27 19 -37 17 -10 -3 -16 -1 -12 4 3 5 -1 9 -8 9 -10 0 -9 3 2 9 8 6
18 8 22 5 13 -8 48 16 48 33 0 13 3 14 11 6 6 -6 17 -9 25 -6z m-149 -69 c-3
-8 -6 -5 -6 6 -1 11 2 17 5 13 3 -3 4 -12 1 -19z m2279 -5 c-3 -8 -6 -17 -6
-19 0 -3 -4 -2 -10 1 -17 11 -12 45 6 38 8 -3 13 -12 10 -20z m-46 -23 c0 -5
-5 -10 -11 -10 -5 0 -7 5 -4 10 3 6 8 10 11 10 2 0 4 -4 4 -10z m-162 -48 c8
-20 17 -54 19 -74 3 -21 9 -38 14 -38 5 0 9 -9 9 -21 0 -11 -4 -17 -10 -14 -5
3 -10 2 -10 -3 0 -13 -52 -25 -59 -14 -9 14 -48 32 -68 32 -11 0 -28 -7 -39
-15 -17 -14 -15 -15 26 -10 29 3 38 2 26 -3 -18 -8 -18 -9 -2 -15 10 -4 26 -7
37 -7 11 0 22 -7 26 -15 5 -14 8 -14 29 0 21 14 24 14 24 0 0 -8 -4 -15 -10
-15 -5 0 -10 -5 -10 -11 0 -6 7 -8 16 -5 8 3 24 1 35 -4 24 -13 25 2 3 25 -13
13 -14 19 -5 28 7 7 11 8 9 2 -2 -5 2 -12 7 -15 6 -3 11 14 13 40 2 25 7 49
13 55 5 5 9 19 9 32 0 38 20 67 57 85 20 9 40 15 45 12 9 -6 0 -53 -13 -70 -4
-5 -6 -20 -2 -32 4 -16 1 -22 -10 -22 -8 0 -17 5 -19 11 -2 7 -16 1 -33 -15
l-30 -28 28 7 c27 7 33 0 19 -23 -5 -8 -16 -10 -28 -5 -17 6 -17 5 -5 -10 19
-24 51 -22 51 3 0 18 2 19 20 8 11 -7 20 -18 20 -25 0 -9 10 -11 30 -6 19 3
30 1 30 -6 0 -6 -9 -11 -20 -11 -13 0 -20 -7 -20 -18 0 -13 -8 -18 -27 -17
-21 0 -28 -5 -28 -20 0 -14 8 -21 28 -23 15 -2 27 2 27 8 0 6 5 8 11 5 18 -12
-27 -35 -78 -40 -42 -5 -45 -4 -25 7 18 9 23 19 21 42 -2 17 0 37 5 44 4 7 1
12 -9 12 -8 0 -19 -8 -22 -17 -4 -9 -15 -25 -25 -35 -10 -10 -16 -23 -13 -28
4 -6 0 -10 -9 -10 -8 0 -16 5 -18 11 -5 16 -58 -34 -58 -54 0 -9 -4 -19 -10
-22 -5 -3 -10 -2 -10 4 0 5 -2 16 -5 23 -7 18 27 58 49 58 9 0 16 5 16 10 0 6
-6 10 -14 10 -8 0 -18 -4 -21 -10 -11 -19 -26 -10 -20 11 6 17 3 20 -12 17
-14 -3 -18 -12 -18 -44 0 -23 -7 -47 -15 -55 -12 -12 -14 -33 -10 -100 l5 -84
32 -3 c17 -2 34 -9 37 -17 6 -18 -56 -14 -79 5 -12 10 -15 10 -15 -4 0 -9 7
-17 15 -17 42 -4 38 0 69 -66 8 -18 11 -33 6 -33 -4 0 -15 18 -24 40 -9 22
-20 40 -26 40 -13 0 -13 -6 1 -31 5 -11 9 -28 6 -37 -2 -10 -9 0 -16 26 -6 23
-16 42 -21 42 -5 0 -11 -19 -13 -42 l-4 -43 -1 48 c-2 51 -6 55 -34 30 -22
-19 -25 -1 -3 21 16 16 16 16 -27 146 -6 19 -13 53 -14 75 -2 22 -6 51 -9 64
-6 22 -5 22 10 7 9 -9 25 -16 35 -16 11 0 27 -11 36 -25 l17 -26 14 21 c8 12
12 31 9 43 -3 11 0 28 7 36 10 12 9 13 -3 6 -8 -4 -23 -15 -33 -23 -13 -12
-20 -13 -29 -4 -9 9 -8 12 4 12 21 0 29 12 19 29 -5 8 -17 10 -35 5 -20 -5
-25 -11 -21 -25 4 -11 2 -19 -3 -19 -9 0 -22 46 -22 81 0 10 15 34 33 52 17
19 45 55 60 81 16 25 35 46 43 46 8 0 14 8 14 17 0 23 11 9 28 -35z m-1517
-25 c-8 -8 -11 -5 -11 9 0 27 14 41 18 19 2 -9 -1 -22 -7 -28z m-649 16 c9
-10 18 -35 22 -55 8 -46 -9 -50 -57 -15 -17 12 -40 27 -51 32 -28 14 -29 29
-4 41 35 18 73 16 90 -3z m598 -79 c-10 -11 -9 -14 5 -14 13 0 16 -6 11 -25
-7 -27 11 -34 32 -13 8 8 12 8 12 1 0 -21 -53 -63 -80 -63 -22 0 -30 7 -41 32
-10 24 -10 33 -1 36 16 5 15 22 -1 22 -8 0 -14 6 -14 13 0 6 -2 19 -4 27 -3
11 6 16 31 18 19 2 40 8 45 13 15 15 19 -29 5 -47z m1647 24 c-3 -7 -5 -2 -5
12 0 14 2 19 5 13 2 -7 2 -19 0 -25z m158 22 c3 -5 -1 -10 -10 -10 -9 0 -13 5
-10 10 3 6 8 10 10 10 2 0 7 -4 10 -10z m-1754 -43 c-13 -13 -26 -3 -16 12 3
6 11 8 17 5 6 -4 6 -10 -1 -17z m1794 13 c3 -5 -9 -9 -29 -8 -19 1 -33 5 -30
10 7 11 51 10 59 -2z m56 -18 c8 -20 6 -21 -11 -12 -11 6 -20 18 -20 26 0 22
22 12 31 -14z m-1817 -27 c5 -22 4 -26 -4 -15 -5 8 -10 24 -10 34 0 26 6 18
14 -19z m1763 -37 c-3 -8 -6 -5 -6 6 -1 11 2 17 5 13 3 -3 4 -12 1 -19z
m-2509 -13 c37 -47 19 -125 -18 -80 -7 8 -21 15 -31 15 -22 0 -39 28 -39 64 0
23 4 26 34 26 25 0 40 -7 54 -25z m2547 6 c-3 -6 -11 -11 -17 -11 -6 0 -6 6 2
15 14 17 26 13 15 -4z m31 -6 c-3 -9 0 -15 10 -15 8 0 12 -4 9 -10 -7 -11 -55
-14 -55 -3 0 7 31 43 38 43 2 0 2 -7 -2 -15z m-1989 -17 c-3 -8 -6 -5 -6 6 -1
11 2 17 5 13 3 -3 4 -12 1 -19z m135 -51 c-18 -18 -32 -38 -32 -45 0 -7 -4
-12 -10 -12 -17 0 -71 -90 -66 -108 4 -10 20 -28 36 -40 17 -13 30 -28 30 -34
0 -6 -9 -3 -20 7 -10 9 -26 15 -35 12 -8 -4 -15 -1 -15 6 0 7 -5 4 -11 -6 -8
-14 -14 -16 -25 -6 -12 9 -14 5 -14 -27 -1 -33 -2 -36 -11 -21 -6 10 -9 35 -7
54 l4 35 -38 -5 c-21 -3 -38 -2 -38 3 0 10 61 36 77 32 15 -3 26 14 38 62 6
22 17 42 25 46 65 30 88 45 108 71 20 24 21 28 5 22 -16 -6 -17 -5 -3 11 14
17 15 17 24 -3 8 -18 4 -27 -22 -54z m-392 54 c0 -5 -12 -20 -27 -33 -16 -12
-28 -30 -28 -38 0 -8 -10 -19 -22 -25 -16 -7 -23 -18 -23 -37 0 -16 -4 -28 -9
-28 -4 0 -7 14 -5 30 3 24 0 30 -16 30 -22 0 -27 -29 -9 -47 8 -8 5 -19 -11
-42 -26 -33 -56 -51 -46 -26 9 23 -8 18 -36 -12 -39 -44 -57 -74 -51 -89 4
-10 0 -12 -11 -8 -10 4 -16 1 -16 -7 0 -12 -2 -12 -9 0 -12 19 -25 8 -46 -36
-10 -21 -20 -32 -23 -25 -2 7 3 24 12 37 18 28 21 55 5 55 -5 0 -7 5 -4 11 4
6 19 7 37 4 42 -10 33 14 -12 29 -18 6 -35 17 -38 24 -5 16 18 15 42 -3 27
-20 57 -20 49 0 -3 9 3 25 13 36 13 14 15 22 7 27 -7 5 -9 13 -4 21 6 9 10 10
16 2 8 -13 55 26 55 46 0 18 38 39 98 54 50 12 70 29 35 29 -27 0 -2 18 32 23
17 2 33 5 38 6 4 0 7 -3 7 -8z m-116 -26 c-6 -16 -34 -21 -34 -7 0 13 11 22
26 22 8 0 11 -6 8 -15z m386 -2 c0 -5 -7 -17 -15 -27 -15 -20 -15 -20 -15 0 0
12 3 24 7 27 9 9 23 9 23 0z m1890 -3 c0 -5 -4 -10 -10 -10 -5 0 -10 5 -10 10
0 6 5 10 10 10 6 0 10 -4 10 -10z m-1814 -15 c-22 -17 -56 -20 -56 -6 0 8 19
14 65 19 6 1 1 -5 -9 -13z m1824 -27 c0 -19 -2 -20 -10 -8 -13 19 -13 30 0 30
6 0 10 -10 10 -22z m-753 -10 c-3 -8 -6 -5 -6 6 -1 11 2 17 5 13 3 -3 4 -12 1
-19z m-1657 -18 c-6 -11 -13 -20 -16 -20 -2 0 0 9 6 20 6 11 13 20 16 20 2 0
0 -9 -6 -20z m2420 -50 c-8 -5 -7 -9 5 -13 9 -4 14 -3 11 2 -7 10 33 23 46 14
16 -9 -30 -34 -67 -35 -35 -1 -47 -12 -22 -21 6 -2 9 -8 5 -12 -4 -4 -19 0
-32 9 -27 17 -41 8 -31 -23 3 -10 -2 -28 -13 -41 l-19 -23 -21 23 c-12 13 -22
34 -22 48 0 19 -4 22 -20 17 -12 -4 -20 -2 -20 6 0 6 -12 0 -26 -15 -28 -27
-35 -29 -71 -20 -26 7 -31 24 -8 24 9 0 29 20 46 44 30 42 33 44 61 34 27 -10
86 -6 121 8 9 3 16 -3 20 -15 6 -25 37 -18 36 8 0 10 -2 11 -6 4 -2 -7 -9 -13
-14 -13 -5 0 -4 8 2 19 12 17 13 17 32 -2 14 -14 16 -21 7 -27z m-315 -10 c3
-5 1 -10 -4 -10 -6 0 -11 5 -11 10 0 6 2 10 4 10 3 0 8 -4 11 -10z m-1864 -67
c34 -20 38 -35 26 -86 -8 -30 -14 -37 -30 -35 -28 4 -54 45 -60 96 -5 37 -3
42 15 42 11 0 33 -8 49 -17z m1989 -2 c0 -5 -7 -11 -14 -14 -10 -4 -13 -1 -9
9 6 15 23 19 23 5z m-1007 -85 c6 -15 -1 -26 -15 -26 -4 0 -8 9 -8 20 0 23 15
27 23 6z m-1373 -13 c0 -14 -19 -38 -25 -32 -8 8 5 39 16 39 5 0 9 -3 9 -7z
m1778 -31 c13 -20 13 -22 -6 -22 -23 0 -46 25 -37 40 9 15 25 8 43 -18z m-338
-2 c0 -14 -42 -102 -46 -97 -3 3 10 60 21 95 5 14 25 16 25 2z m491 -50 c8 0
25 -7 37 -16 18 -12 26 -13 37 -4 22 18 63 3 79 -28 20 -39 18 -110 -3 -121
-9 -5 -35 -12 -58 -16 -27 -4 -43 -12 -43 -21 0 -11 -22 -14 -107 -14 -74 0
-103 3 -93 10 8 5 31 10 50 10 42 0 64 13 58 31 -8 23 -139 47 -200 38 -56 -9
-138 -2 -138 11 0 12 78 25 124 21 21 -2 55 5 77 15 31 13 42 25 51 56 9 30
16 38 35 38 13 0 26 7 30 16 5 13 9 12 27 -5 12 -12 29 -21 37 -21z m-952
-112 c-1 -68 1 -181 4 -253 4 -71 9 -226 11 -342 l5 -213 -40 -11 c-21 -7 -46
-20 -55 -31 -10 -10 -31 -18 -47 -18 -29 0 -29 1 -14 18 13 14 17 39 17 107 0
69 3 86 12 77 7 -7 16 -12 20 -12 4 0 9 55 9 123 l2 122 11 -127 c6 -69 14
-130 18 -133 4 -4 15 -5 24 -1 14 6 16 16 10 77 -3 40 -9 76 -13 82 -4 6 -6
44 -5 84 1 41 -3 73 -8 73 -13 0 -13 307 0 362 5 24 12 64 16 91 3 26 10 47
16 47 6 0 9 -43 7 -122z m283 89 c-35 -36 -41 -66 -14 -73 15 -5 17 -19 14
-147 -1 -78 -7 -159 -14 -179 -8 -27 -8 -78 1 -195 6 -87 13 -202 15 -255 4
-91 3 -98 -14 -98 -14 0 -20 9 -24 33 -13 89 -29 260 -32 341 -2 50 -3 92 -4
94 0 1 -9 -2 -20 -8 -18 -9 -20 -21 -20 -93 0 -45 7 -127 15 -182 19 -134 19
-185 0 -185 -12 0 -15 15 -15 78 0 42 -5 106 -10 142 -14 105 -15 265 -1 262
22 -4 24 31 11 170 -12 128 -12 141 5 178 17 38 17 41 1 53 -15 11 -14 15 16
43 57 55 141 74 90 21z m90 -14 c-8 -18 -11 -100 -11 -233 1 -113 1 -279 0
-369 -1 -90 1 -201 5 -247 7 -83 1 -101 -24 -71 -13 16 -37 488 -27 520 4 12
11 87 15 167 4 80 9 153 11 164 2 11 -4 23 -16 30 -11 6 -22 12 -25 14 -2 2
11 18 30 36 39 38 59 32 42 -11z m-289 -93 c6 -14 17 -29 24 -35 6 -5 14 -53
17 -105 4 -52 9 -118 12 -147 5 -48 4 -52 -18 -55 -22 -3 -23 -6 -20 -68 1
-36 8 -108 13 -160 6 -52 12 -135 12 -185 l1 -90 -34 0 -33 0 2 215 c0 119 -3
291 -9 383 -5 92 -6 213 -3 270 7 97 7 100 15 52 5 -27 14 -61 21 -75z m-153
40 c0 -10 -7 -20 -15 -24 -10 -4 -15 1 -15 14 0 11 -7 20 -15 20 -15 0 -21 21
-9 33 11 10 54 -24 54 -43z m487 -32 c-3 -8 -6 -5 -6 6 -1 11 2 17 5 13 3 -3
4 -12 1 -19z m-537 -7 c0 -10 -6 -21 -14 -24 -11 -4 -11 -1 -2 19 13 29 16 30
16 5z m40 -59 c0 -13 -4 -20 -10 -17 -5 3 -10 21 -10 38 0 24 3 28 10 17 5 -8
10 -25 10 -38z m723 28 c41 0 33 -18 -10 -22 -44 -4 -50 -23 -13 -41 33 -17
38 -58 39 -359 1 -228 2 -238 20 -238 11 0 22 8 25 18 3 9 4 124 2 254 -2 179
0 238 9 242 19 7 27 -148 19 -365 -6 -174 -9 -189 -26 -195 -16 -5 -19 -14
-17 -50 4 -52 -2 -60 -30 -42 -17 10 -25 10 -41 0 -29 -18 -36 -15 -50 17 -9
23 -10 113 -5 375 7 310 6 348 -9 371 -26 39 -21 48 22 41 20 -3 49 -6 65 -6z
m-236 -42 c-3 -8 -6 -5 -6 6 -1 11 2 17 5 13 3 -3 4 -12 1 -19z m-537 -22 c0
-13 -5 -26 -10 -28 -6 -2 -14 -26 -19 -53 -20 -114 -54 -261 -62 -270 -5 -5
-9 14 -9 45 0 59 -11 87 -29 76 -13 -8 -53 -93 -56 -119 -1 -10 -7 -23 -14
-30 -21 -19 -10 248 12 288 16 30 16 30 14 -42 -1 -39 1 -74 5 -78 4 -4 30 16
58 45 41 42 52 61 57 97 3 25 12 47 19 50 8 3 14 14 14 24 0 10 5 19 10 19 6
0 10 -11 10 -24z m1207 18 c-3 -3 -12 -4 -19 -1 -8 3 -5 6 6 6 11 1 17 -2 13
-5z m-601 -57 c4 -23 6 -80 5 -127 -1 -47 3 -117 9 -155 15 -95 29 -339 23
-386 -4 -24 -11 -39 -19 -39 -8 0 -14 3 -14 8 0 4 -5 140 -11 302 -5 162 -12
330 -14 373 -4 82 8 96 21 24z m654 35 c0 -4 -10 -12 -22 -17 -22 -10 -23 -13
-22 -160 1 -100 7 -173 18 -220 18 -76 45 -254 46 -298 0 -33 -28 -49 -42 -24
-5 10 -16 17 -23 17 -8 0 -15 7 -15 16 0 9 -6 22 -13 28 -10 9 -12 56 -7 214
3 112 2 215 -2 230 -5 16 -1 64 9 114 17 89 18 91 71 107 1 1 2 -2 2 -7z
m-2110 -6 c0 -11 -19 -15 -25 -6 -3 5 1 10 9 10 9 0 16 -2 16 -4z m1819 -285
c-2 -220 -5 -280 -16 -298 -18 -27 -9 -103 13 -103 19 0 36 37 27 58 -12 24
-4 180 8 161 14 -22 11 -246 -3 -255 -15 -10 -61 -10 -76 0 -9 5 -12 96 -12
359 l0 352 31 1 30 1 -2 -276z m111 142 c2 -76 2 -203 -1 -283 -2 -80 -4 -180
-4 -223 0 -67 -2 -77 -17 -77 -16 0 -18 14 -20 128 -2 70 -2 183 0 252 3 139
-5 250 -18 250 -5 0 -11 -17 -13 -37 -2 -21 -4 -1 -5 45 l-2 82 38 0 39 0 3
-137z m219 23 c2 -60 -6 -39 -12 34 -3 41 -2 54 3 35 4 -16 8 -48 9 -69z
m-762 12 c-2 -13 -4 -3 -4 22 0 25 2 35 4 23 2 -13 2 -33 0 -45z m607 30 c-4
-18 -7 -76 -7 -128 1 -66 -2 -88 -8 -71 -10 25 -11 171 -2 209 3 12 10 22 15
22 6 0 7 -13 2 -32z m-1097 -140 c-2 -24 -4 -5 -4 42 0 47 2 66 4 43 2 -24 2
-62 0 -85z m1222 -6 c1 -41 13 -72 39 -100 8 -9 10 -22 6 -31 -11 -25 -8 -59
15 -141 22 -80 27 -140 12 -140 -6 0 -12 -19 -14 -42 -3 -39 -4 -37 -5 13 -1
30 -14 123 -28 205 -29 163 -43 265 -42 304 l0 25 8 -25 c4 -14 8 -44 9 -68z
m-1259 -2 c0 -68 -1 -70 -25 -70 -14 0 -25 1 -25 3 0 12 23 123 27 130 14 23
23 -1 23 -63z m550 -217 c4 -153 4 -282 0 -287 -11 -11 -18 50 -25 226 -6 138
2 355 12 344 3 -3 9 -130 13 -283z m812 234 c4 -6 7 -19 7 -27 0 -8 -4 -5 -9
8 -6 14 -18 22 -34 22 -14 0 -28 5 -32 12 -5 8 2 9 26 4 19 -3 38 -12 42 -19z
m-365 -84 c-2 -16 -4 -3 -4 27 0 30 2 43 4 28 2 -16 2 -40 0 -55z m341 38 c16
-52 15 -57 -8 -36 -20 18 -28 75 -12 75 5 0 14 -17 20 -39z m52 -38 c0 -10 -5
-25 -10 -33 -7 -11 -10 -7 -10 18 0 17 5 32 10 32 6 0 10 -8 10 -17z m-1648
-23 c-2 -7 2 -26 7 -41 8 -23 7 -29 -5 -29 -10 0 -13 -7 -10 -22 30 -139 29
-162 -4 -171 -10 -3 -21 -18 -25 -38 -12 -52 -51 -104 -90 -118 -47 -16 -61
-7 -39 27 9 15 23 31 31 35 7 4 13 17 13 29 0 42 23 96 45 106 24 11 35 52 35
133 0 73 10 111 29 106 9 -2 15 -9 13 -17z m120 -52 c4 -60 33 -65 55 -9 19
47 25 50 43 17 9 -18 11 -65 8 -181 -3 -135 -6 -158 -21 -166 -9 -6 -17 -17
-17 -24 0 -8 -9 -15 -19 -15 -18 0 -19 6 -15 66 2 37 8 72 13 78 5 6 12 38 16
71 4 33 11 68 17 79 7 12 6 22 0 28 -17 17 -41 -32 -48 -97 -4 -33 -11 -65
-16 -71 -4 -6 -12 -38 -16 -70 -8 -64 -28 -84 -84 -84 -33 0 -34 2 -8 56 14
27 29 44 46 48 23 6 24 11 23 62 -2 58 -12 75 -27 48 -6 -11 -11 -13 -16 -5
-4 6 0 18 8 27 9 8 17 27 18 42 7 123 33 188 40 100z m145 0 c-3 -8 -6 -5 -6
6 -1 11 2 17 5 13 3 -3 4 -12 1 -19z m1450 -20 c13 -12 23 -29 23 -39 0 -10 5
-21 10 -24 13 -8 13 -25 0 -25 -5 0 -13 12 -16 28 -7 30 -32 62 -47 62 -6 0
-3 -8 6 -18 10 -10 17 -30 17 -44 0 -16 8 -29 24 -37 13 -7 29 -24 35 -37 7
-16 16 -22 27 -17 22 8 34 -14 34 -67 l0 -45 -39 45 c-32 37 -42 43 -52 32
-11 -10 -9 -21 13 -62 15 -28 24 -50 19 -50 -17 0 -54 65 -58 104 -9 77 -39
136 -70 136 -16 0 -27 8 -33 26 -14 35 -13 35 15 28 19 -5 25 -2 25 10 0 23
39 20 67 -6z m458 2 c4 -6 -7 -10 -25 -10 -18 0 -29 4 -25 10 3 6 15 10 25 10
10 0 22 -4 25 -10z m-1908 -72 c-2 -13 -4 -3 -4 22 0 25 2 35 4 23 2 -13 2
-33 0 -45z m1858 32 c-3 -6 5 -10 19 -10 14 0 28 -4 31 -10 4 -6 -13 -10 -44
-10 -28 0 -51 -4 -51 -10 0 -5 32 -8 75 -6 41 1 72 -1 69 -6 -3 -4 -25 -8 -50
-8 -24 0 -44 -4 -44 -10 0 -5 26 -10 57 -10 80 0 62 -9 -25 -12 -102 -3 -114
-18 -14 -18 54 0 82 -4 82 -11 0 -8 -12 -10 -36 -6 -38 6 -64 0 -64 -14 0 -5
24 -10 53 -11 l52 -1 -50 -6 -50 -6 0 -64 c-1 -46 -5 -66 -14 -69 -12 -4 -13
8 -8 62 l6 66 -35 0 c-27 0 -37 -5 -41 -20 -7 -26 -23 -26 -23 0 0 24 28 40
69 40 17 0 31 5 31 10 0 6 -16 10 -35 10 -28 0 -35 4 -35 20 0 15 9 22 30 27
33 6 41 23 11 23 -11 0 -22 4 -25 9 -10 16 5 41 25 41 10 0 19 5 19 10 0 6 5
10 11 10 5 0 7 -4 4 -10z m-254 -42 c1 -18 2 -41 3 -51 1 -10 6 -21 12 -25 6
-4 15 -26 18 -48 6 -31 14 -45 34 -55 40 -20 62 -40 62 -58 0 -11 -4 -9 -16 7
-8 12 -22 22 -30 22 -24 0 -53 40 -60 83 -6 34 -24 53 -24 25 0 -8 -5 -5 -11
4 -5 10 -9 30 -7 45 3 26 0 28 -29 27 -18 -1 -33 2 -33 7 0 5 9 9 20 9 11 0
25 9 32 20 18 29 28 25 29 -12z m-484 -30 c-3 -8 -6 -5 -6 6 -1 11 2 17 5 13
3 -3 4 -12 1 -19z m280 -67 c-7 -32 16 -82 58 -127 l27 -29 -52 -3 c-65 -4
-83 10 -49 37 24 19 24 20 7 49 -19 31 -22 59 -12 86 11 28 27 18 21 -13z
m-1597 -27 c0 -17 -6 -24 -18 -24 -13 0 -26 -18 -45 -60 -23 -55 -49 -81 -64
-67 -3 4 9 27 26 53 17 26 31 51 31 56 0 15 54 77 62 72 4 -3 8 -16 8 -30z
m1307 -16 c-3 -8 -6 -5 -6 6 -1 11 2 17 5 13 3 -3 4 -12 1 -19z m0 -95 c-3
-10 -5 -2 -5 17 0 19 2 27 5 18 2 -10 2 -26 0 -35z m539 22 c4 -10 13 -13 24
-10 10 3 21 1 25 -5 8 -13 -30 -13 -56 0 -20 11 -26 30 -9 30 6 0 13 -7 16
-15z"/>
<g>
<path d="M1637 4223 c-4 -3 -7 -11 -7 -17 0 -6 5 -5 12 2 6 6 9 14 7 17 -3 3
-9 2 -12 -2z"/>
</g>
<g>
<path d="M2135 3960 c3 -5 11 -10 16 -10 6 0 7 5 4 10 -3 6 -11 10 -16 10 -6
0 -7 -4 -4 -10z"/>
</g>
<g>
<path d="M1412 4088 c-7 -7 -12 -17 -12 -24 0 -13 -66 -74 -80 -74 -5 0 -16
-12 -23 -27 -17 -33 -21 -273 -5 -273 5 0 8 -10 6 -22 -2 -18 2 -23 17 -21 11
1 61 4 110 6 l90 3 3 57 c3 53 5 57 25 52 13 -3 31 2 43 12 31 27 84 109 84
132 0 30 -21 37 -39 13 -15 -19 -37 -26 -67 -23 -7 1 -11 18 -10 40 1 51 -6
57 -53 45 l-39 -11 -6 49 c-11 78 -19 91 -44 66z m17 -40 c-9 -16 -9 -23 0
-26 6 -2 11 -18 10 -35 l-1 -32 -8 29 c-5 16 -13 32 -18 35 -12 8 4 51 18 51
7 0 7 -7 -1 -22z m111 -86 c0 -5 -12 -15 -27 -22 -27 -13 -27 -14 -6 -18 19
-3 21 -7 13 -23 -10 -18 -7 -19 41 -19 35 0 59 6 71 17 26 23 32 11 8 -19 -19
-25 -66 -42 -75 -28 -2 4 -16 5 -31 2 -18 -3 -30 0 -36 12 -5 9 -13 14 -18 11
-16 -10 -22 15 -8 32 11 15 10 16 -9 11 -38 -10 -26 15 15 34 42 18 62 22 62
10z m-67 -117 c4 -8 2 -17 -3 -20 -6 -4 -10 3 -10 14 0 25 6 27 13 6z m98 -46
c-24 -20 -41 -24 -41 -11 0 9 53 40 60 35 3 -3 -6 -13 -19 -24z"/>
</g>
<g>
<path d="M1204 3599 c-43 -67 -64 -146 -50 -180 4 -9 0 -21 -9 -29 -27 -22 -9
-90 23 -90 19 0 25 -47 18 -135 -3 -46 -3 -97 0 -114 6 -30 8 -31 58 -31 29 0
56 -4 62 -10 6 -6 20 0 38 17 28 26 29 28 22 107 -3 45 -6 114 -6 154 l0 73
-34 -6 c-38 -8 -63 13 -27 22 13 3 21 13 21 28 0 12 9 30 20 40 34 30 23 115
-14 115 -10 0 -23 -18 -63 -85 -12 -19 -13 -18 -13 12 0 17 -4 35 -10 38 -5 3
-10 18 -10 33 0 37 -14 59 -26 41z m15 -92 c-1 -29 -4 -40 -6 -24 -5 34 -21
35 -29 2 -4 -14 -9 -24 -11 -21 -8 8 18 77 27 71 4 -3 6 5 2 17 -3 14 -2 19 6
14 7 -4 11 -29 11 -59z m115 11 c8 -33 5 -58 -4 -28 l-7 25 -12 -25 -12 -25 6
25 c2 14 5 31 5 38 0 21 17 13 24 -10z m-154 -170 c0 -5 -4 -8 -10 -8 -5 0
-10 10 -10 23 0 18 2 19 10 7 5 -8 10 -18 10 -22z"/>
</g>
<g>
<path d="M620 2896 c0 -2 7 -9 15 -16 12 -10 15 -10 15 4 0 9 -7 16 -15 16 -8
0 -15 -2 -15 -4z"/>
</g>
<g>
<path d="M602 2859 c2 -7 10 -15 17 -17 8 -3 12 1 9 9 -2 7 -10 15 -17 17 -8
3 -12 -1 -9 -9z"/>
</g>
<g>
<path d="M880 2494 c0 -5 -16 -27 -35 -49 -32 -37 -33 -41 -17 -53 15 -11 18
-9 25 19 5 17 15 42 24 56 9 13 13 26 9 30 -3 3 -6 2 -6 -3z"/>
</g>
<g>
<path d="M2106 2531 c-7 -11 31 -31 57 -31 7 0 29 -9 48 -19 41 -22 137 -42
144 -31 3 4 -10 11 -29 14 -20 4 -41 16 -49 30 -12 17 -28 25 -64 29 -26 4
-60 9 -74 13 -15 3 -30 1 -33 -5z"/>
</g>
<g>
<path d="M1841 2030 c1 -50 4 -70 14 -70 16 0 22 32 17 93 -3 31 -9 47 -18 47
-10 0 -13 -17 -13 -70z"/>
</g>
<g>
<path d="M380 2075 c-17 -21 -2 -50 26 -50 14 0 19 7 19 30 0 34 -24 45 -45
20z"/>
</g>
<g>
<path d="M2265 1920 c-3 -5 3 -10 15 -10 12 0 18 5 15 10 -3 6 -10 10 -15 10
-5 0 -12 -4 -15 -10z"/>
</g>
<g>
<path d="M2237 1873 c-3 -5 6 -8 19 -8 13 0 24 3 24 8 0 4 -9 7 -19 7 -11 0
-22 -3 -24 -7z"/>
</g>
<g>
<path d="M240 1610 c0 -5 9 -10 19 -10 11 0 23 5 26 10 4 6 -5 10 -19 10 -14
0 -26 -4 -26 -10z"/>
</g>
<g>
<path d="M2400 1630 c-12 -7 -12 -12 -2 -22 14 -14 35 1 24 19 -5 8 -13 9 -22
3z"/>
</g>
<g>
<path d="M2487 1623 c-12 -11 -8 -23 8 -23 8 0 15 7 15 15 0 16 -12 20 -23 8z"/>
</g>
<g>
<path d="M2520 1626 c0 -2 7 -7 16 -10 8 -3 12 -2 9 4 -6 10 -25 14 -25 6z"/>
</g>
<g>
<path d="M2370 1590 c0 -5 5 -10 10 -10 6 0 10 5 10 10 0 6 -4 10 -10 10 -5 0
-10 -4 -10 -10z"/>
</g>
</g>
<g>
<path d="M1290 5010 c0 -5 10 -10 23 -10 22 0 67 -40 67 -58 0 -15 -56 -62
-74 -62 -10 0 -16 -6 -14 -12 4 -10 62 -14 236 -16 202 -2 232 0 232 13 0 8
-9 15 -20 15 -18 0 -20 7 -20 55 0 48 2 55 20 55 31 0 23 17 -11 24 -53 10
-439 7 -439 -4z m128 -21 c-2 -6 -8 -10 -13 -10 -5 0 -11 4 -13 10 -2 6 4 11
13 11 9 0 15 -5 13 -11z m115 -46 c29 -65 25 -73 -33 -66 -26 4 -41 13 -57 38
l-22 34 22 25 c37 42 60 34 90 -31z m78 14 c-27 -43 -37 -44 -50 -6 -14 41
-10 46 34 41 l36 -4 -20 -31z m74 -22 c0 -28 -4 -53 -10 -57 -15 -11 -75 -9
-75 2 0 5 12 33 28 60 35 65 57 63 57 -5z m-265 -46 c0 -5 -11 -9 -25 -9 -27
0 -32 9 -13 28 12 12 38 -1 38 -19z"/>
</g>
<g>
<path d="M717 4989 c-22 -12 -35 -24 -31 -31 5 -8 10 -6 18 4 9 12 15 13 29 4
13 -8 20 -8 26 3 5 8 14 10 22 5 19 -12 59 -14 59 -3 0 5 5 9 10 9 6 0 10 -6
10 -14 0 -8 7 -17 16 -20 13 -5 15 -1 12 19 -4 17 -1 25 8 25 8 0 14 5 14 10
0 6 -32 10 -77 10 -58 -1 -88 -6 -116 -21z"/>
</g>
<g>
<path d="M630 4939 l-25 -20 33 16 c17 8 32 18 32 20 0 10 -16 4 -40 -16z"/>
</g>
<g>
<path d="M675 4887 c-90 -35 -104 -72 -56 -148 17 -28 31 -54 31 -58 0 -9 48
-52 78 -69 27 -15 28 -8 2 20 -25 27 -25 44 -3 57 15 8 14 11 -12 23 -31 13
-75 54 -75 69 0 5 -7 9 -15 9 -8 0 -15 6 -15 13 0 8 20 12 65 12 36 0 65 -3
65 -6 0 -4 9 -9 20 -12 22 -6 26 3 9 20 -17 17 9 27 28 11 22 -18 66 -19 51
-1 -14 18 -16 56 -3 65 17 13 -138 7 -170 -5z m25 -217 c0 -5 -4 -10 -10 -10
-5 0 -10 5 -10 10 0 6 5 10 10 10 6 0 10 -4 10 -10z"/>
</g>
<g>
<path d="M576 4633 c16 -68 84 -175 84 -133 0 5 6 7 13 4 10 -3 14 4 14 26 0
23 -4 29 -15 25 -10 -3 -12 0 -8 10 5 15 -5 19 -32 16 -10 -2 -12 4 -7 18 5
17 2 21 -15 21 -17 0 -20 4 -15 20 5 14 2 20 -10 20 -12 0 -14 -6 -9 -27z"/>
</g>
<g>
<path d="M1120 4230 c0 -5 5 -10 10 -10 6 0 10 5 10 10 0 6 -4 10 -10 10 -5 0
-10 -4 -10 -10z"/>
</g>
<g>
<path d="M2095 302 c-3 -3 -1 -10 5 -17 11 -13 -1 -67 -16 -72 -5 -2 -21 17
-36 42 -15 25 -34 45 -43 45 -8 0 -29 -23 -46 -51 -35 -56 -51 -54 -54 8 -3
38 -3 38 -49 41 -35 2 -46 0 -46 -12 0 -8 7 -16 15 -18 20 -4 87 -157 79 -181
-5 -16 -2 -17 33 -11 49 9 49 9 24 35 -27 29 -26 31 6 89 l27 48 33 -52 c38
-60 40 -69 12 -95 l-21 -19 22 -7 c15 -5 28 -2 38 9 10 10 12 16 4 16 -13 0
-10 11 24 88 13 29 24 56 24 61 0 5 7 14 15 21 8 7 15 16 15 20 0 9 -58 19
-65 12z"/>
</g>
<g>
<path d="M2435 300 c-4 -6 -4 -49 0 -95 5 -62 4 -89 -5 -100 -11 -13 -8 -15
21 -15 l34 0 -3 50 c-2 27 -1 50 4 50 4 0 31 -22 60 -50 34 -33 62 -50 78 -50
33 0 42 16 13 24 -12 3 -37 21 -56 40 l-34 35 22 27 c26 33 27 70 2 84 -26 13
-128 13 -136 0z m108 -24 c9 -24 -17 -61 -43 -61 -19 0 -26 6 -28 23 -2 13 -1
30 2 38 7 18 62 18 69 0z"/>
</g>
<g>
<path d="M2205 291 c-3 -5 -1 -12 5 -16 5 -3 10 -44 10 -91 0 -72 -2 -84 -17
-84 -10 0 -13 -3 -7 -9 5 -5 46 -6 92 -3 87 5 102 13 87 49 -6 16 -8 16 -22
-5 -10 -14 -26 -22 -43 -22 -24 0 -29 5 -35 36 -7 42 -2 52 20 34 19 -16 39
-1 29 23 -7 19 -20 22 -29 7 -14 -22 -26 -8 -23 28 l3 37 48 -1 c32 0 47 4 47
13 0 15 -155 19 -165 4z"/>
</g>
<g>
<path d="M783 282 c-37 -4 -39 -7 -18 -28 8 -9 15 -24 15 -35 0 -18 -6 -20
-57 -17 -57 3 -58 3 -61 36 -3 29 -6 32 -36 32 l-33 0 9 -62 c5 -35 8 -81 6
-102 -3 -39 -3 -40 35 -41 21 -1 40 2 43 6 3 5 -2 9 -10 9 -12 0 -16 11 -16
45 l0 45 55 0 c51 0 56 -2 66 -27 7 -20 7 -33 0 -45 -16 -25 -14 -28 17 -28
l27 0 -2 106 c0 58 -3 106 -5 107 -1 1 -18 1 -35 -1z"/>
</g>
<g>
<path d="M1275 282 c-8 -8 -5 -36 5 -52 8 -13 12 -12 25 8 10 13 27 22 42 22
l25 0 -4 -95 -3 -95 38 0 c35 0 48 12 27 25 -5 3 -10 42 -10 86 l0 79 34 0
c26 0 35 -5 39 -21 8 -30 27 -14 27 22 l0 30 -120 -2 c-66 -1 -122 -5 -125 -7z"/>
</g>
<g>
<path d="M1630 279 c-40 -16 -60 -49 -59 -99 0 -65 36 -100 103 -100 52 0 86
19 102 58 18 45 18 68 -3 102 -27 46 -84 62 -143 39z m68 -15 c22 -6 23 -11
20 -83 l-3 -76 -34 -3 c-45 -5 -53 10 -45 88 7 76 16 86 62 74z"/>
</g>
<g>
<path d="M860 266 c0 -8 5 -16 11 -18 12 -4 16 -121 5 -155 -7 -23 -6 -23 78
-23 76 0 85 2 91 20 9 28 -5 48 -19 27 -10 -13 -46 -21 -83 -18 -20 2 -15 49
6 60 14 8 20 7 25 -4 10 -28 26 -15 26 21 0 34 -1 35 -22 20 -30 -21 -48 -20
-48 3 0 30 29 53 56 47 19 -5 24 -2 24 14 0 18 -6 20 -75 20 -58 0 -75 -3 -75
-14z"/>
</g>
<g>
<path d="M300 251 c0 -23 19 -38 29 -23 3 6 20 12 36 14 l30 3 0 -93 c0 -92 0
-92 25 -92 32 0 56 15 41 24 -7 4 -11 39 -11 87 l0 79 36 0 c27 0 37 -5 41
-20 8 -29 20 -24 25 10 l5 30 -129 0 c-120 0 -128 -1 -128 -19z"/>
</g>
<g>
<path d="M2720 115 c0 -8 9 -15 20 -15 11 0 20 7 20 15 0 8 -9 15 -20 15 -11
0 -20 -7 -20 -15z"/>
</g>
</g>
</svg>
