<?xml version="1.0" standalone="no"?>
<!DOCTYPE svg PUBLIC "-//W3C//DTD SVG 20010904//EN"
 "http://www.w3.org/TR/2001/REC-SVG-20010904/DTD/svg10.dtd">
<svg version="1.0" xmlns="http://www.w3.org/2000/svg"
 width="300.000000pt" height="510.000000pt" viewBox="0 0 300.000000 510.000000"
 preserveAspectRatio="xMidYMid meet">
<metadata>
Created by potrace 1.15, written by Peter Selinger 2001-2017
</metadata>
<g transform="translate(0.000000,510.000000) scale(0.100000,-0.100000)"
fill="#000000" stroke="none">
<g>
<path d="M13 4773 c-1 -181 -4 -1092 -7 -2025 -4 -1627 -4 -1698 13 -1698 15
0 19 11 24 67 3 39 1 71 -4 74 -13 8 -7 238 6 242 5 2 26 3 45 2 41 -2 47 -18
48 -125 1 -52 -1 -60 -9 -40 -5 13 -9 33 -8 45 3 48 -2 86 -11 80 -6 -3 -10
-40 -10 -81 0 -43 -4 -74 -10 -74 -10 0 -16 62 -12 128 1 22 -3 32 -13 32 -9
0 -15 -11 -16 -27 -2 -40 2 -125 8 -148 2 -11 5 -51 6 -89 1 -45 6 -71 15 -73
9 -4 12 16 12 78 0 45 3 79 7 75 4 -3 7 -41 7 -83 1 -52 5 -78 14 -80 9 -4 12
17 12 80 0 63 4 86 14 90 11 4 13 -13 12 -89 l-1 -94 -77 0 -77 0 4 -62 c6
-92 6 -105 1 -561 -2 -248 -1 -417 5 -417 10 0 10 14 9 232 l-1 147 308 -1
c185 0 313 -5 321 -11 8 -6 17 -6 26 2 11 9 143 12 523 10 984 -5 1310 -4
1544 3 l236 7 -1 -194 c-1 -154 1 -195 12 -195 10 0 12 183 11 993 0 546 -5
1013 -9 1037 -5 25 -5 47 -1 50 6 4 8 102 2 131 -1 3 -13 11 -28 18 l-27 13
27 16 c21 13 27 24 27 49 0 30 -2 32 -20 21 -10 -7 -23 -9 -27 -4 -4 4 0 12
10 17 9 6 17 16 17 23 0 8 7 17 16 20 14 5 16 20 10 104 -3 53 -6 141 -6 195
0 71 -3 96 -11 91 -8 -5 -10 3 -5 27 11 50 10 67 -4 144 -14 81 -15 100 -5
178 5 38 11 54 16 45 7 -10 9 -9 9 5 0 9 -5 17 -11 17 -6 0 -8 20 -4 58 9 84
9 142 1 187 l-8 40 -14 -30 -14 -30 6 40 c3 22 10 45 15 51 4 6 10 47 12 92 2
45 8 87 13 94 5 7 9 20 8 28 -1 8 -2 34 -3 58 -1 30 -5 42 -16 42 -20 0 -19
24 1 45 14 14 15 18 2 33 -8 9 -20 42 -27 73 -6 31 -21 74 -31 95 -27 51 -25
56 13 52 29 -3 32 -6 32 -38 1 -19 5 -43 9 -54 6 -12 4 -21 -5 -28 -11 -7 -11
-11 -1 -15 6 -2 13 -19 13 -36 1 -26 3 -23 9 15 9 52 10 298 2 312 -7 12 -4
193 4 230 4 19 1 31 -7 37 -8 5 -9 9 -3 9 15 0 8 411 -7 421 -8 5 -8 8 0 13 6
4 11 32 11 62 0 41 -4 54 -15 54 -12 0 -15 -15 -15 -73 l0 -73 -73 -37 c-41
-20 -77 -37 -80 -37 -4 0 -7 9 -7 20 0 30 -26 24 -40 -10 -10 -25 -36 -41
-151 -97 -76 -37 -137 -68 -135 -70 3 -4 142 58 197 88 20 10 39 19 41 19 5 0
-17 -111 -26 -136 -3 -8 -14 -14 -24 -14 -10 0 -22 -4 -28 -10 -10 -10 -393
-206 -431 -221 -21 -8 -26 -3 -54 52 -17 34 -29 63 -27 65 3 2 35 17 72 34 38
17 66 33 64 36 -3 2 -32 -10 -66 -26 -34 -17 -66 -30 -70 -30 -5 0 -18 11 -31
23 -18 20 -20 29 -12 50 14 37 27 41 113 42 71 0 80 2 105 27 22 22 28 38 28
75 l1 48 81 0 c72 0 84 3 123 30 51 35 77 87 62 121 -13 28 -7 34 33 34 18 0
53 14 85 35 32 20 48 35 37 35 -10 0 -30 -9 -45 -20 -15 -11 -46 -23 -67 -27
-56 -8 -77 -29 -69 -67 8 -48 -10 -83 -57 -106 -36 -19 -51 -21 -112 -15 -80
8 -86 4 -87 -60 -1 -73 -42 -101 -135 -91 -58 6 -62 5 -89 -23 -17 -18 -25
-35 -21 -43 4 -7 -12 6 -34 29 -23 23 -41 51 -41 61 0 34 50 69 110 77 74 9
98 26 106 75 10 60 42 83 122 88 73 4 112 27 112 65 0 11 7 29 17 39 15 17 15
18 -4 18 -12 0 -25 -11 -32 -27 -38 -83 -33 -78 -92 -79 -80 -1 -119 -26 -135
-87 -18 -70 -27 -77 -97 -77 -59 0 -62 -1 -104 -45 -30 -32 -45 -42 -49 -32
-6 17 51 136 124 260 30 50 46 87 39 87 -7 0 -25 -24 -40 -52 -44 -86 -137
-252 -147 -262 -10 -10 -100 33 -100 47 0 5 11 23 24 40 13 18 43 68 66 112
23 44 46 84 51 90 11 11 12 25 1 25 -4 0 -16 -17 -27 -37 -11 -21 -28 -50 -39
-66 l-20 -27 -13 42 c-14 48 -11 68 11 68 8 0 18 5 21 10 4 6 -7 10 -27 10
-44 0 -66 -31 -43 -63 27 -38 19 -60 -28 -79 -63 -26 -101 -24 -122 9 -17 26
-17 28 1 62 17 33 24 36 66 39 27 2 48 8 48 13 0 9 -125 9 -542 0 -16 -1 -28
-6 -28 -11 0 -6 17 -10 40 -8 22 1 41 0 42 -3 2 -2 11 -14 22 -26 18 -21 17
-23 -5 -62 -19 -34 -28 -41 -53 -41 -16 0 -26 -3 -22 -7 4 -5 120 -6 258 -4
l250 3 -4 -23 c-4 -28 -18 -29 -113 -9 -78 16 -274 8 -334 -14 -24 -9 -45 -16
-46 -16 -5 0 -58 93 -93 165 -40 80 -40 80 -48 72 -3 -3 21 -56 53 -118 32
-62 59 -117 61 -121 4 -8 -105 -65 -111 -57 -2 2 -25 49 -52 104 -26 55 -57
117 -67 137 -11 21 -16 42 -13 48 4 6 -6 10 -22 10 -15 0 -23 -4 -18 -8 13 -9
32 -40 45 -72 15 -36 74 -154 80 -160 9 -9 30 -73 25 -78 -2 -2 -11 12 -19 32
-19 46 -68 76 -126 76 -65 0 -74 9 -67 63 5 38 3 47 -17 66 -12 11 -35 21 -52
21 -57 0 -109 44 -62 53 13 2 -8 4 -47 4 -38 0 -53 -2 -32 -4 20 -2 37 -8 37
-13 0 -20 44 -49 84 -55 59 -10 75 -28 69 -74 -7 -55 20 -81 85 -81 71 0 112
-31 112 -87 0 -26 -8 -37 -47 -66 -46 -34 -48 -35 -51 -14 -5 36 -31 47 -104
47 -88 0 -124 17 -137 68 -14 47 -14 79 -1 87 17 11 11 34 -12 47 -13 6 -45
17 -73 23 -40 9 -53 17 -64 41 -8 16 -18 37 -23 46 -12 26 -12 27 40 31 35 2
28 4 -27 5 l-75 2 27 -28 c15 -15 27 -35 27 -44 0 -29 45 -65 89 -72 62 -10
85 -24 70 -42 -14 -17 -6 -109 12 -130 25 -30 0 -22 -84 26 -48 28 -91 50 -96
50 -5 0 -22 10 -38 23 -35 29 -134 89 -139 85 -4 -5 136 -97 201 -133 116 -64
355 -212 355 -221 0 -2 -14 -23 -31 -48 l-30 -46 -42 27 c-23 14 -69 45 -103
68 -33 24 -94 62 -135 85 -41 23 -103 63 -139 89 -36 26 -82 58 -102 72 -20
13 -79 54 -132 92 -53 37 -100 67 -106 67 -5 0 -10 4 -10 9 0 5 -9 13 -20 16
-11 3 -23 17 -26 31 -3 13 -9 24 -13 24 -3 0 -7 -147 -8 -327z m1377 293 c0
-11 -13 -36 -19 -36 -3 0 -12 9 -19 20 -11 18 -10 20 13 20 14 0 25 -2 25 -4z
m90 -61 c0 -56 -2 -65 -18 -65 -18 0 -72 48 -72 65 0 17 54 65 72 65 16 0 18
-9 18 -65z m104 30 c30 -38 26 -60 -16 -89 -40 -29 -48 -21 -48 47 0 90 19
102 64 42z m64 18 c-2 -10 -10 -18 -18 -18 -8 0 -16 8 -18 18 -2 12 3 17 18
17 15 0 20 -5 18 -17z m-1521 -70 c38 -27 77 -52 85 -58 9 -5 81 -56 160 -112
80 -56 153 -106 164 -110 36 -15 287 -190 292 -204 2 -5 -12 -9 -32 -9 -19 0
-46 -4 -61 -10 -24 -9 -27 -7 -45 35 -35 82 -123 103 -229 54 -54 -25 -72 -22
-84 16 -17 54 -45 75 -96 74 l-46 -2 41 -6 c49 -8 72 -29 85 -76 13 -46 38
-52 97 -23 88 43 187 24 208 -41 17 -51 37 -62 85 -46 41 15 73 10 66 -9 -18
-50 -48 -146 -52 -167 l-5 -26 -362 -5 c-200 -3 -364 -4 -366 -3 -2 2 0 56 4
119 6 112 7 116 25 100 21 -19 97 -12 135 13 12 8 37 13 55 11 30 -3 35 -8 46
-48 7 -25 22 -53 34 -62 29 -24 82 -23 128 4 40 23 67 20 78 -9 12 -34 45 -74
69 -83 17 -7 42 -2 91 15 77 27 58 34 -23 8 -49 -15 -54 -15 -77 0 -14 9 -28
31 -32 49 -7 29 -39 67 -58 68 -4 0 -25 -11 -47 -25 -75 -47 -126 -30 -145 50
-3 16 -11 36 -17 42 -14 18 -79 16 -105 -2 -11 -8 -39 -17 -62 -21 -38 -6 -45
-4 -73 25 -28 29 -30 35 -26 86 3 30 7 58 11 61 3 3 27 -9 52 -27 l46 -33 46
24 c25 13 40 26 34 28 -7 2 -20 -3 -30 -12 -27 -24 -56 -19 -105 17 l-45 32 0
173 c-1 94 3 172 7 172 5 0 40 -21 79 -47z m1266 -45 c-7 -12 -53 -9 -53 3 0
6 5 19 11 30 10 19 11 19 29 -3 10 -13 16 -26 13 -30z m255 20 c19 -19 14 -28
-13 -28 -27 0 -28 1 -19 24 7 19 16 20 32 4z m212 -19 c0 -17 -60 -89 -74 -89
-20 0 -6 69 17 85 25 18 57 20 57 4z m1100 -49 c0 -23 5 -40 11 -40 27 0 -15
-29 -101 -70 -88 -41 -111 -46 -94 -18 4 7 7 29 5 50 l-3 38 79 39 c43 21 84
40 91 40 8 1 12 -13 12 -39z m-1308 -34 c243 -47 451 -241 517 -481 29 -104
29 -261 0 -364 -57 -203 -184 -356 -372 -447 -196 -94 -407 -100 -592 -14 -44
20 -83 36 -87 36 -4 -1 -13 6 -20 15 -7 8 -32 30 -56 48 -62 48 -154 166 -186
241 -48 108 -65 193 -61 300 5 117 23 191 75 295 47 97 106 165 203 237 106
80 166 106 322 141 45 10 188 6 257 -7z m1108 -48 c0 -27 -16 -55 -25 -46 -9
9 5 68 16 68 5 0 9 -10 9 -22z m208 -60 c0 -35 -4 -68 -10 -75 -5 -6 -26 -14
-46 -18 -21 -3 -44 -11 -52 -16 -12 -8 -11 -9 5 -5 11 2 39 8 63 11 l42 7 0
-40 c0 -32 -4 -42 -21 -47 -22 -7 -39 -42 -39 -83 -1 -60 -72 -100 -167 -94
-15 1 -23 8 -23 21 0 10 -7 24 -15 31 -19 16 -20 86 -2 93 8 3 20 1 28 -4 8
-5 23 -8 34 -8 13 0 8 5 -15 13 -31 12 -35 17 -34 47 1 19 5 52 9 74 7 39 9
41 124 97 64 31 117 57 118 57 0 1 1 -27 1 -61z m-2031 -65 c1 -23 -2 -45 -7
-48 -5 -3 -31 10 -58 30 -27 19 -54 35 -59 35 -6 0 -16 6 -22 13 -9 12 3 14
66 13 l77 -1 3 -42z m1733 -30 c0 -20 -53 -71 -82 -78 l-33 -8 27 -4 c26 -4
27 -6 16 -26 -19 -34 -37 -88 -44 -133 -3 -22 -9 -46 -13 -53 -5 -7 -38 -17
-74 -24 -63 -10 -67 -10 -106 16 -49 33 -60 33 -96 5 -31 -24 -58 -16 -63 21
-3 17 5 25 40 41 25 11 53 28 63 40 22 24 86 27 105 5 15 -18 60 -20 82 -2 18
14 61 107 50 107 -5 0 -20 -25 -35 -55 -30 -61 -38 -64 -100 -36 -23 10 -49
21 -57 23 -9 3 2 13 30 26 25 12 97 49 160 82 115 60 130 66 130 53z m24 -48
c4 -10 -1 -15 -14 -15 -20 0 -26 11 -13 23 10 11 20 8 27 -8z m-18 -38 c9 3
14 -1 14 -12 0 -12 -5 -15 -22 -9 -30 9 -31 10 -22 25 5 9 9 10 11 2 3 -7 11
-9 19 -6z m293 -157 l-1 -140 -89 0 -89 0 -20 33 c-25 40 -26 66 -2 64 9 0 39
5 65 12 58 17 93 55 102 113 8 49 12 58 26 58 6 0 9 -54 8 -140z m-678 46
c-16 -19 -79 -48 -94 -43 -7 2 11 16 38 30 57 30 73 33 56 13z m321 -18 c0
-18 0 -41 0 -51 -1 -10 5 -20 13 -23 8 -4 15 -14 15 -23 0 -9 5 -22 12 -29 9
-9 5 -19 -17 -42 -23 -24 -26 -32 -16 -44 15 -18 37 -11 44 15 3 10 13 19 23
19 16 0 16 -2 -3 -22 -32 -36 -46 -69 -35 -80 7 -7 16 0 26 21 15 29 35 39 49
25 3 -3 -10 -21 -29 -40 -39 -39 -46 -69 -14 -61 15 4 20 0 20 -14 0 -25 26
-24 40 1 6 11 18 20 26 20 13 0 12 -5 -5 -26 -11 -15 -18 -30 -15 -35 9 -15
34 -10 34 6 0 27 16 16 30 -20 8 -20 19 -40 26 -46 7 -5 9 -19 6 -31 -4 -18
-2 -20 22 -14 25 6 24 4 -15 -34 -23 -22 -45 -37 -50 -34 -5 3 -9 3 -9 0 0 -2
-3 -11 -6 -20 -10 -26 18 -19 55 14 36 32 41 35 41 22 0 -4 -22 -25 -50 -45
-27 -21 -50 -44 -50 -53 0 -8 5 -12 10 -9 6 3 13 -2 17 -12 4 -10 11 -21 17
-25 8 -5 7 -8 -1 -8 -7 0 -10 -6 -7 -14 3 -7 -6 -21 -20 -30 -34 -22 -33 -38
2 -30 24 7 26 6 13 -10 -18 -21 -7 -33 15 -16 14 12 15 10 9 -22 -5 -28 -3
-37 10 -42 9 -3 13 -11 10 -16 -5 -8 -11 -7 -20 0 -8 7 -19 9 -25 5 -11 -7
-41 -71 -38 -83 1 -4 -5 -19 -12 -34 -12 -26 -22 -33 -43 -29 -5 1 -6 -2 -4
-6 3 -5 -5 -16 -18 -25 -21 -16 -24 -16 -37 -1 -7 9 -13 37 -14 64 -1 54 -40
114 -68 103 -21 -8 -20 6 2 22 14 10 15 15 4 26 -10 10 -17 7 -37 -16 -27 -31
-31 -46 -14 -46 5 0 9 -8 8 -17 -3 -33 1 -43 16 -43 8 0 15 -4 15 -9 0 -5 -7
-11 -15 -15 -15 -6 -21 -36 -7 -36 14 0 7 -61 -8 -70 -25 -16 -34 -11 -17 8
19 21 13 34 -11 25 -15 -6 -15 -4 1 14 22 25 22 25 -9 94 -26 57 -45 67 -58
32 -10 -24 5 -65 20 -59 12 4 12 1 4 -15 -16 -29 -8 -45 13 -25 21 21 22 8 1
-19 -9 -12 -12 -30 -9 -46 6 -27 -15 -55 -23 -30 -2 6 -15 25 -29 41 -42 51
-74 121 -70 154 l3 31 8 -31 c4 -17 14 -31 21 -31 11 0 11 5 3 21 -8 15 -8 21
1 24 14 5 15 23 0 19 -21 -4 -34 30 -21 58 11 23 14 25 27 11 8 -8 15 -22 15
-30 0 -19 21 -21 38 -4 16 16 15 28 -1 28 -23 0 -33 42 -28 115 6 75 14 77 26
7 4 -24 14 -46 22 -49 18 -7 93 64 93 89 0 23 -19 24 -27 1 -9 -22 -40 -53
-55 -53 -6 0 0 12 14 28 45 48 61 92 33 92 -8 0 -15 -5 -15 -11 0 -6 -11 -24
-25 -41 -16 -19 -25 -24 -25 -14 0 8 4 17 9 20 5 3 21 28 35 56 27 52 33 94
15 106 -14 8 -3 70 17 102 13 20 13 24 -1 38 -16 16 -21 54 -7 54 5 0 17 -19
28 -42 10 -24 35 -72 56 -108 20 -36 39 -78 43 -95 4 -16 11 -39 16 -50 5 -11
15 -49 21 -84 7 -36 19 -66 27 -69 10 -3 12 3 6 27 -6 27 -3 32 19 42 19 9 23
15 15 25 -6 7 -18 10 -27 7 -12 -5 -10 0 5 17 21 22 22 47 2 34 -6 -3 -7 4 -4
19 4 14 2 28 -4 31 -6 4 -11 2 -11 -3 0 -6 -5 -11 -12 -11 -6 0 -4 8 6 19 20
22 48 18 39 -5 -3 -8 0 -14 5 -14 6 0 9 9 7 20 -6 29 -14 40 -31 40 -8 0 -19
11 -24 25 -10 25 -10 25 -37 8 l-28 -18 18 27 c23 36 22 52 -3 45 -17 -4 -20
-2 -15 14 9 27 -3 43 -21 28 -10 -8 -14 -8 -14 0 0 6 4 11 9 11 5 0 11 11 13
24 6 29 -11 29 -43 0 -22 -19 -22 -19 -11 3 7 12 17 23 24 26 10 3 10 9 1 25
-6 11 -10 34 -8 52 3 25 0 33 -15 37 -20 5 -29 43 -10 43 6 0 10 -4 10 -10 0
-5 6 -10 14 -10 14 0 12 33 -4 55 -10 13 0 125 11 125 5 0 10 -15 11 -32z
m118 -95 c0 -22 -8 -14 -19 20 -10 29 -9 30 4 13 8 -11 15 -26 15 -33z m-373
-24 c28 -18 44 -21 86 -16 29 4 62 9 74 13 19 5 21 3 16 -16 -6 -23 -7 -23
-152 -18 -80 3 -135 2 -121 -2 14 -5 78 -8 142 -9 123 -1 138 -7 120 -44 -5
-12 -15 -37 -22 -54 l-12 -33 -112 -2 -111 -2 100 -3 c55 -2 103 -7 107 -11 4
-4 1 -30 -6 -57 -11 -46 -15 -50 -42 -50 -23 0 -32 6 -43 33 -20 44 -48 49
-103 18 -25 -14 -48 -22 -52 -19 -13 13 -6 74 10 80 9 3 11 8 6 12 -6 3 -13
43 -17 89 -7 78 -7 82 12 82 12 0 26 7 33 15 17 21 47 19 87 -6z m582 -65 c30
-6 31 -8 31 -59 0 -51 -1 -54 -30 -60 -40 -9 -81 13 -101 52 -9 18 -21 39 -28
46 -6 8 -8 17 -4 20 8 9 91 9 132 1z m-2181 -64 l-3 -55 -57 0 c-32 1 -195 2
-363 3 l-305 2 0 50 0 49 108 4 c59 1 223 3 365 3 l258 0 -3 -56z m2022 -17
c-1 -16 -26 -40 -48 -47 -30 -10 -28 7 3 24 14 7 25 17 25 22 0 4 5 8 10 8 6
0 10 -3 10 -7z m-2135 -59 c10 -4 0 -18 -34 -44 -27 -21 -51 -50 -55 -64 -11
-46 -40 -51 -108 -21 -44 20 -68 25 -94 21 -40 -8 -104 -65 -104 -94 0 -32
-13 -33 -53 -6 -58 39 -131 61 -142 43 -4 -5 -10 -9 -16 -9 -11 0 -12 173 -1
185 8 8 583 -2 607 -11z m111 -38 c6 -6 14 -25 17 -42 6 -29 3 -32 -24 -38
-29 -6 -47 -21 -104 -90 -50 -61 -117 -72 -179 -30 -79 54 -114 50 -136 -18
-12 -41 -52 -78 -81 -78 -10 0 -38 20 -62 45 -43 43 -69 54 -92 37 -17 -12
-45 -60 -45 -77 0 -8 -6 -15 -13 -15 -19 0 -21 119 -2 145 24 31 75 25 139
-18 46 -31 60 -36 76 -27 11 6 20 19 20 30 0 35 22 69 53 80 45 15 69 13 131
-16 53 -24 58 -25 81 -10 14 9 25 23 25 30 0 23 77 95 112 105 36 10 67 5 84
-13z m1610 -41 c8 -19 20 -35 27 -36 6 -1 21 -2 32 -3 23 -1 22 2 11 -88 l-8
-68 -53 0 c-59 0 -68 7 -87 66 -12 37 -16 39 -53 39 -32 0 -40 4 -39 18 3 60
5 67 22 67 9 1 33 9 52 19 56 30 79 26 96 -14z m484 5 c0 -5 -5 -10 -11 -10
-5 0 -7 5 -4 10 3 6 8 10 11 10 2 0 4 -4 4 -10z m-2057 -81 c4 -13 0 -22 -11
-27 -22 -8 -129 -72 -121 -72 3 0 37 14 74 31 37 16 68 29 70 27 12 -14 45
-90 41 -96 -3 -5 -29 -19 -58 -32 -29 -13 -81 -36 -116 -52 -34 -15 -65 -28
-69 -28 -3 0 -36 -13 -72 -29 -36 -16 -127 -55 -201 -86 -74 -32 -168 -73
-208 -91 -40 -19 -77 -34 -82 -34 -10 0 -13 66 -10 205 1 54 5 72 20 82 10 7
21 25 25 40 16 65 51 70 95 14 42 -52 81 -60 127 -26 18 15 40 39 48 55 26 49
48 55 101 24 63 -37 124 -47 168 -29 22 9 33 20 30 28 -2 7 18 37 45 65 54 57
94 69 104 31z m2162 -63 c6 -36 5 -38 -9 -27 -9 8 -16 29 -16 49 0 45 15 31
25 -22z m-684 17 c24 -59 32 -71 56 -82 13 -6 36 -11 50 -11 21 0 24 -3 19
-22 -3 -13 -6 -35 -6 -50 0 -16 -5 -28 -10 -28 -6 0 -50 25 -97 55 -48 30 -92
55 -97 55 -12 0 77 -59 146 -97 26 -14 49 -32 52 -40 4 -8 -5 -28 -19 -45 -14
-16 -25 -36 -25 -44 0 -20 -23 -17 -65 7 -56 33 -52 16 5 -21 50 -32 50 -32
52 -89 1 -66 0 -101 -8 -158 l-5 -43 -48 0 c-44 0 -48 2 -62 33 -13 30 -17 32
-56 29 -34 -3 -47 1 -68 22 -21 21 -25 34 -25 84 0 65 -11 82 -52 82 -36 0
-88 26 -88 43 0 7 14 24 32 37 57 42 208 27 208 -21 0 -10 5 -21 11 -25 8 -4
10 -26 6 -60 -4 -44 -2 -58 14 -79 12 -14 31 -25 44 -25 23 0 26 -5 39 -62 4
-16 13 -28 22 -28 12 0 13 4 4 20 -6 11 -8 25 -5 31 11 17 -24 58 -58 67 -31
8 -32 10 -38 73 -10 117 -42 152 -137 150 l-55 -1 19 23 c30 35 36 36 63 19
l26 -16 -23 26 -23 26 37 51 c25 35 42 50 52 46 12 -4 13 -3 3 9 -17 21 13 79
37 72 9 -3 24 -1 32 4 23 15 30 12 41 -17z m639 -60 c-1 -11 -81 -66 -87 -60
-5 5 68 67 79 67 5 0 8 -3 8 -7z m26 -85 c-3 -24 -5 -46 -5 -50 -1 -5 -5 -8
-10 -8 -6 0 -8 18 -5 40 3 25 1 40 -6 40 -6 0 -8 5 -5 10 3 6 13 10 21 10 12
0 14 -9 10 -42z m-2052 3 c14 -26 14 -30 -2 -43 -36 -30 -90 -55 -134 -62 -58
-9 -111 -62 -122 -122 -4 -21 -14 -48 -21 -60 -19 -29 -75 -54 -127 -55 l-43
-1 34 -10 c67 -19 171 47 171 108 0 60 54 119 120 129 46 8 112 36 141 61 13
12 20 9 48 -20 46 -48 52 -97 15 -131 -24 -22 -35 -25 -106 -25 -75 0 -81 -2
-109 -29 -22 -23 -29 -39 -29 -70 0 -31 -7 -49 -31 -76 -42 -47 -93 -62 -143
-41 -49 20 -65 20 -88 -1 -13 -11 -18 -30 -18 -64 0 -57 -28 -96 -88 -123 -38
-17 -40 -17 -81 4 -58 29 -88 18 -81 -29 7 -54 -58 -98 -126 -85 -43 8 -43 19
-1 40 42 22 45 28 40 77 -6 69 17 88 117 97 69 6 87 11 102 30 10 12 18 31 18
42 0 38 33 79 80 100 11 5 9 7 -7 7 -36 1 -74 -42 -87 -101 l-11 -53 -80 -5
c-44 -3 -90 -12 -102 -18 -33 -18 -56 -68 -49 -107 7 -34 -12 -65 -38 -65 -18
0 -25 103 -18 260 4 100 8 123 21 126 9 3 34 14 56 24 67 32 223 99 360 154
72 30 159 67 195 83 36 17 81 35 100 42 19 6 46 18 60 26 36 21 48 18 64 -14z
m2087 -18 c-9 -15 -10 -12 -10 17 0 29 1 32 10 18 7 -12 7 -24 0 -35z m-101
13 c0 -7 -6 -19 -14 -25 -11 -9 -13 -7 -11 11 3 28 3 28 15 28 6 0 10 -6 10
-14z m15 -106 c-3 -5 -12 -10 -18 -10 -7 0 -6 4 3 10 19 12 23 12 15 0z
m-1838 -55 c3 -9 -1 -23 -10 -33 -18 -21 -85 -139 -165 -293 -33 -64 -79 -145
-101 -180 -90 -143 -99 -159 -93 -159 10 1 160 242 195 314 41 83 179 319 191
328 6 4 20 1 31 -7 11 -8 37 -24 58 -36 l38 -20 -21 -32 c-11 -18 -67 -105
-123 -194 -56 -90 -119 -189 -139 -220 -94 -147 -113 -190 -93 -212 11 -10 24
12 16 27 -6 12 1 34 28 79 41 69 158 247 203 308 16 22 41 65 56 95 36 72 84
140 97 136 15 -4 28 -61 21 -89 -3 -13 -28 -49 -56 -78 -28 -30 -53 -64 -57
-77 -10 -43 4 -112 28 -138 l24 -26 -37 -34 c-37 -33 -68 -44 -68 -24 0 16
-17 12 -55 -15 -45 -30 -75 -67 -75 -92 0 -11 -7 -28 -15 -39 -8 -10 -15 -35
-15 -55 0 -29 -5 -38 -27 -48 -16 -8 -35 -17 -43 -22 -8 -5 -23 -12 -32 -15
-21 -7 -24 -24 -4 -24 8 0 16 7 19 14 8 21 73 32 92 16 8 -7 15 -25 15 -41 0
-15 5 -31 10 -34 6 -3 10 -17 10 -31 0 -20 -5 -24 -30 -24 -17 0 -42 7 -55 16
-16 11 -25 12 -25 5 0 -7 16 -21 35 -32 35 -21 38 -39 6 -39 -23 0 -64 39 -57
55 3 8 8 29 11 47 6 29 10 33 37 33 17 0 33 6 35 12 5 14 -53 7 -73 -8 -6 -5
-15 -5 -20 -1 -4 4 -3 0 3 -9 13 -17 6 -60 -11 -71 -24 -14 -30 -12 -31 15 -1
15 -4 28 -6 30 -37 21 -49 26 -49 17 0 -5 5 -10 10 -10 6 0 10 -7 10 -15 0 -8
3 -15 8 -15 4 0 7 -16 8 -35 0 -19 -3 -35 -8 -35 -4 0 -8 7 -8 16 0 14 -7 16
-40 11 -44 -6 -51 3 -39 47 10 35 2 48 -15 25 -9 -13 -15 -14 -26 -5 -19 14
-25 56 -10 56 7 0 10 -7 6 -15 -3 -9 0 -15 8 -15 8 0 16 6 19 13 3 8 10 7 26
-7 19 -17 26 -15 22 7 -1 5 3 6 8 3 12 -8 24 11 16 24 -5 8 -11 8 -20 0 -9 -7
-16 -6 -25 5 -15 18 -7 31 11 19 22 -13 59 -11 59 4 0 8 -6 12 -15 8 -8 -3
-15 -1 -15 5 0 5 -12 7 -27 3 -22 -4 -25 -3 -13 5 18 13 60 14 79 2 22 -14 22
-43 0 -48 -23 -6 -21 -25 3 -29 8 -1 15 5 14 13 0 8 8 20 19 27 11 6 22 12 24
14 3 1 -3 8 -13 15 -14 10 -15 18 -7 40 13 35 14 70 2 62 -5 -3 -16 1 -23 9
-10 10 -19 11 -32 4 -13 -7 -22 -5 -35 6 -28 25 -65 25 -69 0 -2 -18 -12 -23
-49 -29 -38 -5 -47 -11 -56 -36 -6 -16 -16 -29 -22 -29 -15 0 -42 34 -38 47 2
6 -6 18 -19 27 -14 10 -23 27 -23 44 0 23 -5 27 -32 30 -27 3 -33 7 -33 28 0
21 -5 24 -37 25 -58 2 -77 -2 -86 -16 -5 -10 -13 -11 -37 -2 -29 11 -41 27
-20 27 17 0 38 54 33 83 -6 32 -4 33 44 7 47 -25 59 -25 107 0 74 37 111 92
100 147 -9 44 12 56 65 37 95 -32 211 34 217 125 1 20 2 42 3 48 2 27 59 44
120 37 73 -8 114 12 138 68 18 41 30 47 40 23z m883 -46 c16 -12 46 -25 67
-28 l38 -6 5 -67 c6 -85 27 -109 98 -116 38 -3 51 -9 55 -23 4 -15 -2 -20 -32
-25 -20 -3 -65 -15 -100 -25 -35 -10 -65 -19 -67 -19 -2 0 -13 21 -25 48 -11
26 -29 66 -40 90 -10 23 -19 46 -19 51 0 13 -41 103 -45 99 -3 -3 74 -219 100
-280 7 -18 -18 -33 -77 -45 -25 -5 -29 0 -71 88 -61 128 -88 191 -85 193 2 1
27 14 55 29 29 15 59 27 67 27 8 0 16 7 20 15 7 20 22 19 56 -6z m886 -47
c-18 -16 -18 -16 -6 6 6 13 14 21 18 18 3 -4 -2 -14 -12 -24z m-339 -7 c-4 -8
-11 -15 -17 -15 -6 0 -6 7 2 20 14 22 24 19 15 -5z m113 5 c0 -5 -5 -10 -11
-10 -5 0 -7 5 -4 10 3 6 8 10 11 10 2 0 4 -4 4 -10z m-1222 -46 c8 -2 12 -24
12 -63 0 -57 -2 -62 -38 -98 -22 -21 -46 -44 -55 -51 -10 -7 -17 -17 -17 -22
0 -10 33 15 81 61 28 26 48 80 50 134 1 17 7 -1 14 -40 l12 -70 2 73 1 72 65
0 65 0 0 -207 c0 -138 -5 -233 -14 -283 -8 -41 -13 -77 -10 -81 6 -11 -7 -39
-18 -39 -5 0 -6 5 -3 10 10 17 -14 39 -35 33 -32 -9 -42 37 -39 182 3 166 1
235 -8 235 -5 0 -8 -80 -8 -178 0 -97 -4 -186 -8 -197 -8 -19 -9 -19 -27 5
-17 22 -20 23 -44 11 -21 -12 -28 -12 -42 0 -14 12 -19 10 -40 -14 -13 -16
-24 -35 -24 -43 0 -40 -70 -61 -89 -26 -8 14 -12 15 -23 4 -9 -9 -9 -15 -2
-20 6 -4 13 -15 17 -24 8 -22 -10 -23 -34 -2 -23 21 -64 2 -54 -24 4 -9 8 -23
8 -29 0 -7 11 -13 23 -13 13 0 26 -4 29 -10 10 -16 28 -12 21 5 -6 17 19 21
29 5 3 -5 1 -10 -4 -10 -6 0 -11 -5 -11 -11 0 -6 9 -8 23 -4 32 10 44 24 29
34 -11 6 -11 10 0 18 47 36 85 5 54 -45 -11 -19 1 -27 18 -13 18 15 27 51 13
51 -6 0 -8 3 -4 6 3 3 15 3 27 -1 l22 -7 -23 -24 c-12 -13 -19 -27 -16 -31 9
-8 57 36 66 60 11 28 42 -2 44 -43 2 -28 -2 -34 -25 -41 -16 -4 -28 -3 -28 1
0 10 21 25 35 25 9 0 10 4 7 40 -3 23 -22 18 -22 -5 0 -11 -3 -19 -7 -19 -20
3 -34 -2 -28 -11 3 -5 -1 -10 -9 -10 -9 0 -16 -9 -16 -20 0 -11 6 -19 13 -17
6 1 11 -6 9 -15 -3 -21 9 -23 27 -5 11 10 12 8 6 -12 -5 -16 -4 -21 4 -17 6 4
11 18 11 32 0 15 6 24 15 24 8 0 15 -4 15 -9 0 -5 12 -8 27 -8 24 0 25 1 10
12 -22 16 -21 25 2 25 26 0 30 -9 19 -47 -8 -30 -10 -32 -34 -23 -22 9 -31 6
-60 -20 -26 -23 -44 -30 -75 -30 -40 0 -40 1 -38 33 2 17 0 33 -4 35 -15 7
-28 -4 -29 -25 -1 -12 -7 -19 -15 -16 -8 3 -11 14 -7 29 5 18 2 24 -10 24 -23
0 -20 6 14 38 35 32 44 74 17 80 -16 3 -17 1 -8 -16 9 -16 4 -22 -29 -41 -45
-25 -53 -60 -23 -93 14 -16 14 -18 0 -18 -9 0 -19 -9 -22 -20 -8 -26 -35 -26
-42 -1 -3 12 -15 21 -32 23 -21 2 -27 9 -29 33 -2 17 -8 35 -14 42 -5 7 -7 21
-3 33 4 12 2 27 -4 33 -6 8 -6 18 -1 27 14 23 12 38 -9 59 -18 18 -18 21 -3
33 14 11 15 11 9 -5 -4 -11 -3 -16 3 -12 6 3 10 17 10 30 0 25 21 38 45 29 8
-4 15 -15 15 -25 0 -29 17 -23 23 9 3 15 9 40 13 56 4 16 3 27 -2 24 -5 -3
-18 4 -29 15 -16 16 -16 19 -3 14 23 -8 98 58 98 88 0 12 -9 29 -20 36 -23 15
-36 73 -26 113 3 13 30 50 58 82 48 52 53 62 55 108 0 28 2 52 2 52 1 1 22 -5
49 -13 26 -8 53 -17 60 -19z m360 -13 c30 -53 29 -113 -4 -168 -30 -51 -26
-88 9 -104 28 -13 49 -43 42 -61 -3 -8 -14 -19 -25 -25 -16 -11 -20 -9 -25 8
-4 12 -19 22 -36 26 -17 3 -39 18 -50 35 -19 27 -20 37 -14 127 6 80 4 104 -9
129 -9 17 -16 35 -16 40 0 8 59 27 96 31 6 0 20 -16 32 -38z m-125 -28 c13
-48 17 -96 9 -106 -5 -7 -12 -34 -15 -62 -8 -64 15 -113 62 -137 18 -9 39 -25
46 -36 12 -17 11 -22 -16 -43 -31 -24 -56 -50 -104 -104 l-27 -30 7 35 c4 19
9 140 12 268 4 208 12 268 26 215z m1002 -74 l20 -9 -20 2 c-11 2 -26 -1 -32
-5 -13 -8 -18 5 -6 16 8 9 13 8 38 -4z m-778 -101 c23 -30 22 -48 -5 -73 -30
-28 -42 -31 -42 -12 0 8 -11 20 -24 27 -36 19 -37 32 -10 86 13 26 24 55 25
63 0 9 11 -5 23 -31 12 -26 27 -53 33 -60z m813 74 c0 -17 -110 -61 -190 -76
-35 -7 -76 -19 -85 -26 -18 -13 -129 -37 -170 -36 -33 1 -40 5 -45 26 -5 19
-13 25 -35 26 -43 2 -56 -6 -54 -30 2 -34 -2 -43 -9 -18 -9 31 -24 30 -40 -2
-16 -31 -32 -34 -39 -6 -6 22 -9 23 -38 10 -11 -5 -14 -9 -7 -9 16 -1 16 -72
-1 -95 -12 -16 -14 -13 -13 30 1 43 -2 49 -19 49 -14 0 -19 -6 -18 -19 2 -28
-15 -68 -27 -61 -5 3 -10 15 -10 27 0 14 -5 18 -15 14 -8 -3 -15 -2 -15 2 0
15 39 50 62 57 13 4 39 14 58 23 36 17 47 19 92 26 15 2 34 9 42 15 8 7 23 11
33 9 10 -1 25 2 33 7 8 6 92 11 186 12 95 2 178 5 185 7 12 3 129 42 137 45 1
1 2 -3 2 -7z m124 -89 c-7 -16 -14 -33 -14 -39 0 -6 -11 -21 -24 -33 -13 -13
-27 -33 -30 -46 -6 -23 -69 -69 -96 -69 -8 0 -29 -16 -47 -34 -17 -18 -41 -34
-52 -35 -12 -1 -21 -4 -21 -8 0 -7 -40 -22 -54 -20 -4 1 -13 -2 -20 -8 -28
-22 -104 -60 -110 -53 -4 3 -5 0 -2 -8 4 -10 -11 -25 -42 -44 -26 -17 -51 -29
-56 -27 -5 1 -17 -6 -27 -15 -11 -9 -19 -14 -19 -10 0 4 -10 1 -22 -6 l-23
-12 23 -5 c35 -9 22 -26 -21 -26 -20 0 -37 -3 -37 -6 0 -4 -15 -6 -32 -5 -41
3 -58 -3 -58 -19 0 -8 -8 -11 -20 -8 -14 4 -20 0 -20 -11 0 -9 -4 -16 -10 -16
-5 0 -10 5 -10 11 0 5 -6 7 -12 3 -7 -4 5 12 27 35 22 23 45 39 53 36 7 -2 17
6 22 19 4 13 23 36 42 51 19 15 28 29 22 31 -18 7 34 57 81 78 51 23 85 40
110 53 65 34 98 44 106 31 7 -10 9 -10 9 2 0 14 12 22 93 60 15 7 27 17 27 22
0 4 7 8 15 8 8 0 15 5 15 11 0 20 42 51 54 39 5 -5 18 -10 29 -10 23 0 101 53
124 85 26 35 46 33 27 -2z m123 -35 c-3 -8 -6 -5 -6 6 -1 11 2 17 5 13 3 -3 4
-12 1 -19z m-7 -28 c0 -5 -5 -10 -10 -10 -6 0 -8 -10 -4 -24 6 -25 -10 -44
-21 -26 -8 13 14 70 26 70 5 0 9 -4 9 -10z m-1077 -100 c-3 -11 -9 -20 -14
-20 -5 0 -9 -7 -9 -15 0 -17 -26 -20 -35 -5 -5 8 -12 7 -23 -1 -10 -6 1 5 23
25 45 40 66 46 58 16z m1042 0 c3 -5 2 -10 -4 -10 -5 0 -13 5 -16 10 -3 6 -2
10 4 10 5 0 13 -4 16 -10z m-465 -4 c0 -2 -9 -6 -20 -9 -11 -3 -18 -1 -14 4 5
9 34 13 34 5z m429 -64 c-5 -2 -9 -12 -9 -22 0 -9 -7 -23 -15 -30 -18 -15 -49
-5 -39 12 5 8 1 7 -10 -2 -17 -13 -17 -15 3 -31 16 -13 20 -24 15 -43 -3 -14
-10 -26 -15 -26 -5 0 -9 -7 -9 -15 0 -24 -71 -86 -86 -74 -8 7 -13 6 -17 -3
-4 -10 -7 -10 -18 -1 -8 8 -17 9 -24 3 -18 -15 5 -100 27 -100 10 0 18 -4 18
-8 0 -5 20 -6 45 -2 25 4 47 5 50 2 10 -10 5 -33 -6 -26 -6 3 -14 2 -18 -3 -8
-12 -90 -50 -127 -59 -16 -4 -35 -11 -41 -17 -10 -7 -13 -4 -13 9 0 15 -3 14
-26 -7 -21 -20 -36 -24 -87 -25 -141 -1 -167 -4 -167 -18 0 -12 -41 -23 -98
-28 -8 -1 -23 -14 -35 -29 -11 -16 -24 -26 -28 -23 -4 2 -24 -16 -44 -41 -21
-25 -41 -42 -46 -39 -14 8 -31 -47 -25 -78 8 -40 -12 -35 -30 7 -16 40 -19 91
-4 100 6 3 10 15 10 26 0 10 6 18 13 16 6 -1 11 5 10 13 -2 14 50 56 91 73 11
4 16 13 12 23 -6 15 -4 15 18 0 18 -11 27 -13 32 -4 5 7 2 8 -7 3 -8 -5 -11
-5 -7 -1 7 8 80 19 129 19 20 0 30 8 41 33 13 27 13 34 2 38 -8 3 -14 -1 -14
-9 0 -8 -3 -15 -6 -15 -10 0 -43 44 -44 58 0 6 -4 12 -9 12 -20 0 -20 -18 -1
-38 27 -28 12 -35 -71 -34 -37 1 -71 -3 -74 -8 -3 -5 -13 -6 -21 -3 -10 4 -17
-2 -21 -15 -3 -12 -11 -18 -18 -15 -17 6 -108 -83 -100 -97 3 -6 2 -10 -3 -10
-12 0 -26 -62 -25 -107 0 -18 -4 -33 -10 -33 -19 0 0 123 28 175 34 65 85 117
107 112 9 -3 15 0 12 7 -4 11 73 53 89 48 5 -1 11 6 14 17 3 13 11 17 24 14
10 -3 19 -1 19 4 0 5 11 15 25 21 15 7 25 20 25 32 0 16 5 21 22 18 29 -4 36
-28 8 -28 -13 0 -20 -5 -17 -12 2 -7 13 -13 25 -12 12 0 54 1 92 2 55 2 70 5
70 17 0 8 7 15 15 15 8 0 15 5 15 10 0 6 5 10 10 10 6 0 36 16 66 35 44 28 56
32 60 20 4 -8 11 -15 16 -15 6 0 5 6 -2 15 -11 13 -2 25 56 80 38 35 72 65 77
65 4 0 7 5 7 12 0 6 19 31 43 54 l42 44 7 -33 c4 -17 2 -33 -3 -35z m-499 44
c0 -3 -4 -8 -10 -11 -5 -3 -10 -1 -10 4 0 6 5 11 10 11 6 0 10 -2 10 -4z m-56
-15 c3 -4 -6 -13 -20 -20 -38 -17 -49 -13 -23 9 27 22 35 24 43 11z m-2110
-37 c11 -28 7 -33 -29 -40 -33 -6 -39 -13 -36 -40 1 -7 -12 -17 -29 -22 -29
-11 -30 -10 -30 17 0 16 3 42 6 59 7 32 4 31 95 40 9 1 20 -5 23 -14z m132
-33 c3 -9 10 -6 23 10 23 29 35 21 22 -12 -7 -21 -16 -25 -55 -27 -46 -2 -97
-22 -124 -49 -17 -17 -42 -1 -42 28 0 26 17 32 23 9 3 -11 10 -20 17 -20 7 0
9 8 5 21 -6 18 -4 20 15 14 20 -6 21 -5 15 24 -9 40 15 42 44 4 18 -25 20 -26
21 -7 0 25 23 51 28 32 2 -7 6 -19 8 -27z m1704 29 c0 -5 -4 -10 -10 -10 -5 0
-10 5 -10 10 0 6 5 10 10 10 6 0 10 -4 10 -10z m190 -5 c-7 -8 -17 -15 -22
-15 -6 0 -5 7 2 15 7 8 17 15 22 15 6 0 5 -7 -2 -15z m-470 -10 c10 -12 10
-19 2 -27 -9 -9 -15 -7 -26 7 -23 32 0 49 24 20z m970 5 c0 -5 -4 -10 -10 -10
-5 0 -10 5 -10 10 0 6 5 10 10 10 6 0 10 -4 10 -10z m-565 -19 c3 -6 -4 -15
-15 -21 -16 -8 -20 -8 -20 3 0 25 23 36 35 18z m445 -6 c0 -8 -4 -15 -10 -15
-5 0 -10 7 -10 15 0 8 5 15 10 15 6 0 10 -7 10 -15z m-513 -47 c-21 -16 -22
-16 -25 3 -2 11 2 27 9 35 10 12 13 12 25 -3 11 -16 10 -20 -9 -35z m-1637 29
c0 -7 -9 -18 -19 -24 -15 -9 -23 -9 -36 1 -10 7 -15 18 -11 24 10 16 66 15 66
-1z m1235 3 c3 -5 -1 -10 -10 -10 -9 0 -13 5 -10 10 3 6 8 10 10 10 2 0 7 -4
10 -10z m-331 -16 c8 -20 1 -30 -24 -37 -22 -6 -25 5 -10 34 13 23 26 24 34 3z
m412 -19 c-4 -13 -10 -14 -26 -5 -11 6 -18 15 -15 21 4 5 11 7 16 4 5 -4 9 -1
9 6 0 10 3 10 11 2 7 -7 9 -19 5 -28z m-346 9 c0 -11 8 -14 33 -12 25 2 31 0
29 -14 -3 -22 15 -33 33 -18 17 15 36 5 28 -15 -3 -10 1 -15 11 -15 14 0 15
-4 6 -20 -10 -19 -12 -19 -38 -3 -15 10 -31 23 -35 30 -4 7 -22 13 -39 13 -26
0 -29 -2 -18 -15 7 -9 19 -14 27 -11 7 3 13 -1 13 -9 0 -8 8 -15 18 -15 9 -1
27 -9 40 -20 19 -16 21 -22 11 -43 -8 -18 -17 -23 -35 -19 -26 5 -33 22 -9 22
8 0 15 5 15 11 0 6 -6 9 -14 6 -8 -3 -21 4 -29 16 -21 32 -96 68 -129 62 -41
-8 -81 -25 -101 -42 -21 -20 -28 -14 -20 15 4 16 13 22 33 22 15 0 30 6 33 13
3 8 24 12 61 11 31 -1 56 3 56 8 0 5 6 6 13 3 6 -4 2 2 -10 13 -28 25 -29 42
-3 42 11 0 20 -7 20 -16z m490 -5 c0 -5 -4 -9 -10 -9 -5 0 -10 7 -10 16 0 8 5
12 10 9 6 -3 10 -10 10 -16z m125 -16 c4 -14 2 -23 -4 -23 -6 0 -11 3 -11 8 0
4 -3 18 -6 32 -8 31 11 16 21 -17z m-1284 -8 c3 -31 4 -35 14 -35 6 0 10 7 10
15 0 18 22 41 31 32 4 -3 8 -24 10 -45 l2 -39 -37 9 c-29 7 -47 6 -75 -6 -30
-12 -43 -13 -59 -4 -22 11 -37 27 -37 41 0 14 41 7 46 -8 4 -8 13 -15 22 -15
12 0 13 3 4 12 -16 16 -15 28 3 28 8 0 15 -7 15 -15 0 -8 5 -15 10 -15 13 0
13 16 0 41 -6 11 -8 24 -5 29 8 14 45 -6 46 -25z m-421 8 c0 9 5 17 10 17 13
0 13 -17 0 -25 -6 -4 -8 -11 -5 -16 10 -15 33 -10 38 9 4 14 5 14 6 1 0 -9 -5
-22 -13 -28 -8 -7 -12 -21 -9 -31 3 -11 1 -20 -5 -20 -12 0 -24 27 -26 55 -1
11 -7 19 -13 18 -7 -2 -13 7 -13 19 0 21 0 21 15 2 13 -17 14 -17 15 -1z
m1360 -20 c0 -15 -16 -17 -25 -3 -8 13 -28 4 -43 -20 -10 -16 -9 -18 3 -14 17
7 20 -7 4 -23 -8 -8 -4 -15 12 -27 13 -8 20 -18 17 -21 -9 -9 -70 8 -75 21 -7
18 34 101 55 113 18 10 52 -7 52 -26z m-1415 16 c-4 -6 3 -21 16 -35 12 -13
19 -27 16 -31 -4 -3 0 -14 8 -23 9 -10 18 -27 20 -40 5 -28 11 -34 24 -26 6 4
8 13 5 21 -6 15 31 39 46 30 18 -11 10 -26 -10 -20 -22 7 -28 -13 -10 -31 6
-6 5 -17 -6 -32 -20 -29 -32 -28 -44 4 -9 22 -13 24 -26 13 -17 -14 -54 -20
-54 -9 0 3 5 11 12 18 6 6 8 15 4 19 -10 11 -48 -36 -40 -49 4 -6 24 -8 45 -5
39 5 62 -9 39 -23 -12 -7 -17 -7 -72 5 -30 6 -37 32 -16 53 20 20 -1 26 -22 7
-11 -10 -21 -15 -21 -12 -5 26 -1 34 25 48 16 8 30 23 32 33 4 28 13 31 11 5
0 -13 -6 -27 -11 -31 -6 -4 -7 -10 -3 -14 9 -9 47 25 47 43 0 7 -4 13 -9 13
-5 0 -8 8 -7 18 0 10 -5 16 -14 13 -32 -8 -43 -5 -48 9 -4 13 -3 13 11 1 15
-11 18 -10 27 13 5 14 14 26 20 26 6 0 8 -5 5 -11z m201 -34 c-20 -20 -33 -19
-46 5 -17 31 -3 42 31 25 26 -14 28 -18 15 -30z m1374 29 c0 -9 16 -34 35 -55
34 -38 44 -59 26 -59 -11 0 -81 101 -81 118 0 6 5 12 10 12 6 0 10 -7 10 -16z
m130 -17 c0 -5 -4 -5 -10 -2 -5 3 -10 14 -10 23 0 15 2 15 10 2 5 -8 10 -19
10 -23z m-1829 -7 c23 -19 23 -19 4 -20 -21 0 -45 17 -45 32 0 14 17 9 41 -12z
m1629 1 c0 -11 5 -23 10 -26 6 -4 7 -11 4 -17 -5 -7 -12 -4 -21 7 -15 22 -17
55 -3 55 6 0 10 -9 10 -19z m-1685 -23 c-19 -11 -30 -5 -21 11 4 6 14 7 22 4
15 -5 14 -7 -1 -15z m325 -7 c0 -10 -30 -24 -37 -17 -3 3 -2 9 2 15 8 13 35
15 35 2z m1560 -3 c0 -7 -11 -18 -25 -25 -28 -13 -30 -11 -13 17 14 22 38 27
38 8z m-1766 -7 c4 -5 -3 -7 -14 -4 -23 6 -26 13 -6 13 8 0 17 -4 20 -9z m306
-6 c14 -17 8 -18 -40 -9 -22 5 -28 9 -18 15 20 13 44 11 58 -6z m663 -25 c7 0
5 -5 -5 -10 -20 -12 -44 -4 -52 17 -11 27 5 35 25 14 11 -12 25 -21 32 -21z
m507 30 c0 -5 -5 -10 -11 -10 -5 0 -7 5 -4 10 3 6 8 10 11 10 2 0 4 -4 4 -10z
m-1531 -5 c-10 -10 -80 -14 -74 -5 4 6 22 10 42 10 20 0 34 -2 32 -5z m459
-11 c35 -17 39 -26 18 -43 -10 -9 -15 -8 -20 4 -3 8 -12 15 -21 15 -8 0 -15 9
-15 20 0 24 -1 24 38 4z m767 6 c15 -6 11 -8 -16 -7 -21 1 -35 5 -32 10 5 9
22 8 48 -3z m-825 -20 c0 -5 -7 -10 -16 -10 -8 0 -12 5 -9 10 3 6 10 10 16 10
5 0 9 -4 9 -10z m-416 -16 c10 -27 7 -32 -24 -39 -42 -9 -52 1 -27 30 25 29
42 32 51 9z m359 7 c4 -1 7 -13 7 -27 0 -21 -4 -24 -20 -19 -11 4 -20 2 -20
-4 0 -11 6 -13 42 -15 23 -1 23 -21 1 -21 -10 0 -19 -8 -21 -18 -5 -23 -11
-21 -45 9 -30 25 -31 59 -2 48 8 -3 15 -2 15 4 0 6 -5 12 -12 14 -21 7 -1 35
24 32 12 -1 26 -3 31 -3z m1327 5 c0 -3 -4 -8 -10 -11 -5 -3 -10 -1 -10 4 0 6
5 11 10 11 6 0 10 -2 10 -4z m-1135 -16 c-3 -5 -11 -10 -16 -10 -6 0 -7 5 -4
10 3 6 11 10 16 10 6 0 7 -4 4 -10z m1181 -5 c23 -12 25 -15 11 -21 -17 -6
-47 11 -47 27 0 12 3 11 36 -6z m-1274 -12 c27 -24 23 -43 -9 -43 -34 1 -63
21 -63 44 0 22 47 21 72 -1z m1176 -6 c6 3 12 1 12 -4 0 -5 9 -9 21 -10 27 -2
52 -24 41 -35 -13 -13 -73 16 -102 49 -16 17 -18 22 -5 12 11 -9 26 -14 33
-12z m-717 -18 c-9 -22 -10 -22 -10 -3 -1 11 2 24 6 27 12 12 14 0 4 -24z
m525 6 c9 -19 9 -27 -1 -35 -6 -5 -14 -7 -18 -4 -3 3 -3 -3 0 -14 3 -14 16
-22 44 -26 25 -4 39 -12 39 -21 0 -8 -4 -15 -10 -15 -5 0 -10 5 -10 10 0 6
-13 10 -29 10 -32 0 -47 -23 -35 -54 3 -9 1 -16 -5 -16 -7 0 -11 -23 -11 -60
l0 -60 35 6 c22 3 35 1 35 -5 0 -6 -9 -11 -21 -11 -15 0 -20 -5 -17 -22 2 -19
11 -24 43 -28 42 -5 39 -13 -7 -24 -16 -3 -28 -11 -28 -16 0 -17 102 -32 156
-23 33 5 35 8 32 35 -3 15 1 33 7 38 9 7 12 -2 13 -35 1 -24 7 -56 12 -70 6
-15 8 -31 4 -36 -7 -12 -114 -12 -114 1 0 6 15 10 34 10 42 0 66 8 66 24 0 9
-88 13 -182 7 -22 -1 -24 -29 -4 -37 18 -7 17 -44 -1 -44 -14 0 -30 26 -36 61
-4 24 -10 41 -28 87 -6 15 -6 21 1 17 16 -10 12 15 -6 32 -12 13 -14 34 -10
117 2 55 6 110 9 121 2 11 7 39 12 63 9 48 15 52 31 17z m1430 -47 c-1 -54 -4
-63 -21 -66 -28 -6 -57 -33 -51 -49 3 -8 -2 -13 -14 -13 -20 0 -28 15 -12 22
16 7 60 75 77 121 10 26 19 47 20 47 1 0 1 -28 1 -62z m-2841 12 c9 -16 20
-30 25 -30 12 0 -7 -52 -23 -62 -35 -23 -46 -1 -23 44 14 27 14 27 -15 21 -33
-6 -36 2 -13 35 20 29 30 28 49 -8z m1475 15 c7 -9 10 -19 6 -22 -8 -9 -38 9
-44 25 -5 17 23 15 38 -3z m1110 -15 c-24 -15 -37 -11 -16 5 11 8 22 12 25 9
3 -3 -1 -9 -9 -14z m-2666 -5 c-4 -8 -8 -15 -10 -15 -2 0 -4 7 -4 15 0 8 4 15
10 15 5 0 7 -7 4 -15z m533 -12 c3 -8 -9 -11 -36 -10 -32 1 -38 4 -29 15 13
15 60 12 65 -5z m-196 -3 c12 -7 19 -21 19 -40 0 -17 -2 -30 -5 -30 -16 0 -55
26 -55 37 0 7 -4 13 -10 13 -14 0 -12 -13 5 -36 20 -26 19 -34 -4 -34 -20 0
-51 35 -51 57 0 7 8 13 19 13 10 0 24 7 31 15 15 18 25 19 51 5z m2379 0 c0
-5 -4 -10 -10 -10 -5 0 -10 5 -10 10 0 6 5 10 10 10 6 0 10 -4 10 -10z m-1730
-15 c0 -8 -4 -15 -10 -15 -5 0 -10 7 -10 15 0 8 5 15 10 15 6 0 10 -7 10 -15z
m726 1 c10 -8 16 -17 13 -20 -7 -7 -69 16 -69 26 0 13 35 9 56 -6z m-1676 -28
c0 -4 -5 -10 -10 -13 -7 -4 -6 -13 1 -27 8 -16 17 -19 40 -14 20 4 28 2 23 -5
-7 -12 24 -38 48 -39 9 0 21 7 26 16 8 14 10 14 21 0 19 -22 52 -20 58 4 6 24
19 26 27 5 9 -24 -3 -43 -27 -43 -38 0 -59 -8 -73 -26 -12 -17 -14 -16 -33 3
-26 26 -61 35 -112 28 -34 -4 -40 -2 -45 18 -4 17 0 111 5 122 3 4 51 -23 51
-29z m160 7 c24 8 35 -12 18 -32 -10 -13 -10 -17 0 -20 6 -3 12 -11 12 -20 0
-26 -25 -8 -35 25 -11 37 -25 42 -25 9 0 -23 -16 -47 -32 -47 -18 0 -27 39
-17 68 10 28 13 30 36 21 14 -5 34 -7 43 -4z m318 9 c42 -8 47 -38 15 -80 -39
-52 -60 -42 -55 28 1 11 -4 15 -12 12 -20 -8 -30 14 -16 31 14 17 23 18 68 9z
m-102 -19 c-3 -8 0 -20 7 -27 19 -20 50 -89 42 -96 -3 -4 -10 -1 -14 7 -5 7
-10 12 -12 11 -2 -1 -12 2 -22 6 -12 4 -32 -3 -61 -24 -40 -29 -43 -30 -54
-11 -20 32 -14 59 16 71 15 6 31 10 36 9 16 -4 36 22 31 40 -4 11 0 19 12 22
10 3 20 5 22 6 2 0 1 -6 -3 -14z m1281 -32 c3 -7 3 -16 0 -19 -7 -8 -78 37
-72 46 8 12 65 -10 72 -27z m-283 -17 c-10 -48 -7 -192 5 -214 6 -12 11 -33
11 -49 0 -16 18 -59 40 -97 22 -37 40 -72 40 -76 0 -4 -30 -7 -67 -7 -43 -1
-79 -7 -98 -17 -39 -21 -52 -20 -65 4 -10 18 -8 20 19 20 16 0 33 5 36 10 4 6
-7 10 -24 10 -28 0 -31 3 -31 30 0 37 25 41 34 5 6 -25 29 -34 41 -15 3 6 -4
11 -17 11 -18 1 -19 2 -5 6 23 6 58 39 50 47 -4 3 -1 6 5 6 7 0 12 5 12 11 0
8 -18 10 -54 7 -45 -4 -57 -1 -82 20 -20 17 -23 22 -9 17 41 -15 68 -18 61 -6
-5 7 0 11 13 11 12 0 21 -4 21 -10 0 -5 4 -10 8 -10 14 0 7 137 -7 154 -11 13
-11 19 -1 31 7 8 16 13 20 10 4 -3 13 2 20 10 10 12 9 15 -4 15 -9 0 -25 13
-34 30 -24 43 -44 41 -21 -1 16 -31 4 -53 -21 -39 -11 6 -20 17 -20 25 0 7 -5
17 -11 21 -8 5 -10 -1 -6 -19 6 -23 5 -25 -28 -24 -19 1 -35 5 -35 9 0 4 -8 8
-17 7 -10 0 -13 -3 -6 -5 8 -4 10 -16 7 -34 -5 -22 -2 -29 15 -35 27 -8 41 1
42 28 l0 22 11 -22 c14 -30 -5 -53 -43 -53 -16 0 -29 -2 -29 -4 0 -2 -3 -13
-6 -23 -5 -16 -4 -16 11 2 17 20 17 20 10 -3 -9 -30 17 -39 47 -17 15 12 17
15 6 12 -21 -7 -23 4 -6 21 20 20 25 14 32 -30 4 -23 12 -45 18 -49 6 -4 7
-12 3 -18 -4 -8 -11 -9 -18 -3 -7 5 -25 12 -40 16 -26 6 -28 5 -21 -16 4 -13
15 -38 24 -56 23 -42 17 -64 -34 -118 -37 -38 -47 -44 -81 -43 -67 2 -89 12
-108 52 -9 20 -19 37 -22 37 -3 0 -5 -18 -5 -40 0 -31 3 -38 15 -34 10 4 15 0
15 -11 0 -9 9 -19 20 -22 11 -3 20 -9 20 -14 0 -12 -50 -7 -50 6 0 5 -7 2 -14
-7 -7 -10 -16 -15 -19 -12 -3 3 -12 -3 -19 -15 -15 -24 -28 -27 -28 -7 0 22
-28 28 -113 26 -71 -1 -78 0 -75 17 2 12 17 21 45 27 27 6 43 16 46 28 6 22
24 24 29 2 2 -8 8 1 14 20 6 20 7 36 3 36 -5 0 -9 -8 -9 -17 -1 -16 -2 -16
-15 1 -21 28 -19 33 14 34 17 0 39 6 51 12 12 6 23 10 24 8 1 -2 -6 -25 -16
-53 -15 -44 -17 -46 -18 -20 0 22 -3 26 -9 15 -11 -18 -3 -70 10 -70 5 0 9 6
9 13 0 9 3 8 9 -2 6 -8 11 6 16 44 3 31 9 54 13 51 11 -11 9 -61 -5 -100 -7
-22 -12 -41 -10 -42 2 -2 14 4 26 13 16 11 19 18 11 23 -9 6 -10 19 -2 56 9
38 8 51 -2 59 -7 6 -11 15 -10 20 2 6 -1 17 -6 25 -9 13 -12 13 -21 -3 -6 -9
-14 -15 -19 -12 -4 3 -10 -2 -14 -10 -3 -8 -16 -15 -28 -15 -20 1 -21 2 -5 11
22 13 22 36 -2 48 -24 13 -47 -10 -37 -36 5 -14 4 -15 -4 -7 -6 6 -10 24 -8
40 3 30 7 31 63 22 11 -2 23 -7 27 -13 4 -6 8 -2 8 8 0 9 -7 17 -15 17 -12 0
-13 4 -4 19 7 10 9 26 6 35 -9 24 -46 20 -57 -6 -8 -21 -9 -21 -9 -3 -1 44 33
54 79 22 21 -15 23 -20 12 -37 -10 -16 -10 -24 0 -40 16 -26 32 -26 25 0 -3
11 -1 23 5 26 6 4 6 9 -2 14 -7 4 -9 13 -5 19 5 9 10 9 21 0 11 -9 14 -8 14 5
0 16 10 20 40 17 11 -1 12 0 3 6 -15 11 0 38 16 29 6 -4 9 -12 6 -17 -4 -5 -2
-9 3 -9 6 0 13 8 17 18 7 16 8 15 15 -3 8 -19 9 -19 9 2 1 17 -5 22 -30 25
-44 4 -56 38 -26 73 20 24 25 25 54 15 28 -10 35 -9 50 5 16 17 16 17 -4 11
-26 -8 -53 2 -53 20 0 8 10 24 21 35 l22 22 -5 -27 c-5 -26 5 -35 17 -16 12
19 53 11 61 -12 6 -19 8 -20 18 -6 6 8 27 19 46 23 19 4 41 12 49 18 10 9 16
7 26 -6 7 -9 21 -17 31 -17 16 0 15 3 -6 17 -36 24 -36 23 -22 32 8 4 24 6 38
3 22 -4 24 -8 18 -36z m-486 17 c-1 -10 1 -24 6 -31 4 -7 2 -19 -5 -28 -11
-13 -14 -13 -27 0 -12 12 -13 19 -1 45 15 34 32 42 27 14z m-114 -55 c-10 -16
-34 -8 -50 17 -25 38 -7 51 27 19 15 -15 26 -31 23 -36z m232 46 c-4 -10 0
-18 13 -21 20 -5 38 -33 21 -33 -15 0 -70 52 -64 61 10 16 37 10 30 -7z m703
-62 c-20 -60 -31 -73 -44 -52 -7 11 54 125 62 116 2 -1 -7 -30 -18 -64z
m-1165 36 c-10 -33 -44 -53 -44 -26 0 14 30 48 42 48 5 0 6 -10 2 -22z m941
13 c7 -12 -12 -24 -25 -16 -11 7 -4 25 10 25 5 0 11 -4 15 -9z m1395 -5 c0 -8
4 -16 8 -18 4 -1 6 -24 4 -50 -5 -55 -17 -60 -61 -27 -16 12 -34 18 -41 14 -9
-6 -9 -2 -1 14 7 13 21 21 36 21 20 0 25 5 25 23 0 13 3 27 7 30 11 12 23 8
23 -7z m-2180 -12 c0 -7 7 -20 16 -29 21 -20 13 -28 -19 -19 -15 3 -29 15 -33
26 -4 13 -9 17 -16 10 -6 -6 -6 -17 1 -31 14 -25 5 -27 -19 -6 -15 14 -18 14
-30 0 -28 -33 -58 -4 -39 38 9 19 18 22 74 23 46 0 65 -3 65 -12z m2035 7 c3
-5 1 -12 -5 -16 -5 -3 -10 1 -10 9 0 18 6 21 15 7z m-1920 -49 c-11 -11 -27
17 -20 35 6 16 8 16 16 -6 5 -13 7 -26 4 -29z m827 26 c-7 -7 -12 -8 -12 -2 0
6 3 14 7 17 3 4 9 5 12 2 2 -3 -1 -11 -7 -17z m-117 2 c3 -5 2 -10 -4 -10 -5
0 -13 5 -16 10 -3 6 -2 10 4 10 5 0 13 -4 16 -10z m63 -16 c32 -9 28 -28 -5
-19 -32 7 -55 25 -32 25 7 0 24 -3 37 -6z m-1018 -116 c0 -4 -12 -10 -27 -14
-58 -12 -73 -23 -73 -52 0 -20 -8 -32 -30 -45 -18 -11 -30 -26 -30 -39 0 -21
-26 -47 -47 -48 -7 0 -12 9 -10 19 1 11 -2 20 -8 20 -10 1 -12 -3 -14 -39 -1
-17 -4 -18 -20 -9 -35 23 -76 -15 -54 -50 8 -12 7 -22 -3 -36 -13 -17 -14 -16
-14 20 0 31 19 151 25 163 1 1 15 -4 31 -13 38 -20 44 -19 44 5 0 14 -6 19
-22 17 -25 -2 -29 12 -30 96 0 33 6 55 18 69 30 32 53 41 70 27 13 -10 12 -14
-2 -30 -17 -19 -16 -60 3 -66 6 -3 13 8 15 23 5 46 23 38 20 -8 -2 -29 2 -50
13 -63 16 -19 16 -18 11 19 -4 29 0 46 14 67 24 33 25 39 3 39 -15 0 -14 2 3
19 19 19 20 18 67 -32 26 -28 47 -54 47 -59z m440 108 c0 -3 -4 -8 -10 -11 -5
-3 -10 -1 -10 4 0 6 5 11 10 11 6 0 10 -2 10 -4z m-26 -38 c-4 -6 -10 -5 -15
3 -14 22 -10 33 6 19 8 -7 12 -17 9 -22z m284 2 c11 -18 10 -20 -8 -20 -13 0
-20 7 -20 20 0 11 3 20 8 20 4 0 13 -9 20 -20z m-1197 -11 l29 -21 -31 -29
c-24 -22 -29 -33 -23 -51 10 -32 37 -67 52 -68 16 0 16 3 -9 45 -12 20 -20 37
-18 38 56 37 77 59 72 76 -4 16 2 20 38 26 57 10 79 -15 79 -87 0 -43 -4 -54
-30 -78 -20 -18 -28 -34 -24 -44 4 -10 -1 -25 -11 -36 -9 -10 -15 -29 -13 -42
5 -35 -43 -38 -66 -3 -13 19 -22 24 -41 19 -21 -5 -27 0 -47 43 -14 31 -33 54
-53 64 -38 20 -47 64 -16 74 25 7 27 21 6 29 -21 8 -19 53 3 59 40 11 76 6
103 -14z m729 16 c0 -2 -18 -14 -40 -25 -23 -12 -45 -31 -50 -43 -7 -18 -9
-19 -9 -4 -1 22 57 77 81 77 10 0 18 -2 18 -5z m93 -21 c-18 -14 -33 -31 -33
-37 0 -7 -14 -18 -31 -26 -18 -8 -34 -22 -36 -32 -8 -30 -53 -36 -53 -7 0 19
32 48 52 48 14 0 18 6 16 23 -2 18 2 23 27 25 16 2 38 10 49 18 36 25 42 15 9
-12z m-205 -16 c-21 -62 -22 -64 -26 -36 -3 28 12 68 27 68 5 0 4 -15 -1 -32z
m2062 24 c0 -4 -5 -13 -12 -20 -6 -6 -9 -15 -5 -18 3 -4 13 1 22 10 23 23 59
22 50 -1 -18 -45 -18 -53 4 -53 49 0 83 -42 46 -56 -8 -4 -15 -13 -15 -20 0
-8 7 -17 15 -20 22 -9 18 -34 -5 -34 -22 0 -26 -10 -9 -27 16 -16 4 -44 -16
-37 -22 9 -18 -9 5 -24 11 -7 20 -17 20 -22 0 -17 -25 -11 -38 10 -15 25 -32
26 -25 2 3 -14 -1 -19 -19 -18 -20 1 -23 -3 -20 -31 4 -39 -9 -42 -36 -8 -24
30 -32 31 -32 5 0 -23 -10 -26 -29 -7 -11 10 -12 7 -7 -18 5 -22 4 -26 -4 -15
-5 8 -10 25 -10 38 0 12 -4 22 -10 22 -5 0 -10 -9 -10 -20 0 -11 -4 -20 -10
-20 -5 0 -10 11 -10 24 0 13 -7 29 -15 36 -19 16 -20 34 -1 27 22 -9 26 3 9
29 -8 13 -13 25 -9 25 3 1 11 2 16 3 6 0 15 7 19 15 5 8 16 11 25 8 8 -3 18
-2 22 4 3 6 -3 13 -15 16 -12 3 -21 9 -21 14 0 5 -7 9 -15 9 -8 0 -15 -9 -15
-20 0 -33 -18 -23 -22 13 l-4 32 -13 -30 c-10 -25 -14 -27 -22 -13 -11 19 14
88 25 69 10 -15 29 -3 22 14 -5 15 29 41 62 47 11 1 21 -1 21 -7 1 -5 -7 -10
-16 -10 -10 0 -19 -8 -21 -18 -3 -16 1 -17 32 -11 37 6 41 3 37 -38 -2 -11 5
-18 14 -18 12 0 15 6 10 19 -3 11 -1 22 5 26 14 9 2 25 -14 19 -8 -3 -16 4
-19 15 -6 25 4 26 43 6 41 -21 62 -66 58 -123 -3 -44 -5 -47 -33 -50 -29 -2
-29 -2 -10 14 14 11 16 18 7 21 -6 3 -10 9 -6 14 9 15 -21 21 -51 9 -21 -8
-25 -14 -17 -22 8 -8 15 -8 27 2 27 23 29 1 2 -26 -23 -23 -28 -24 -33 -10 -8
21 -34 21 -34 0 0 -10 6 -14 15 -10 9 3 15 0 15 -9 0 -8 7 -15 15 -15 8 0 15
7 15 16 0 13 3 14 15 4 8 -7 21 -10 29 -7 9 4 13 1 10 -7 -4 -11 -58 -36 -77
-36 -4 0 -7 7 -7 15 0 18 -14 19 -41 5 -29 -16 -23 -28 16 -36 118 -22 202
106 142 216 -21 39 -36 50 -87 66 -41 13 -54 44 -18 41 13 0 26 -6 30 -12 5
-6 8 -3 8 8 0 9 7 17 15 17 8 0 15 -4 15 -8z m-2110 -27 c0 -14 -4 -25 -10
-25 -5 0 -10 11 -10 25 0 14 5 25 10 25 6 0 10 -11 10 -25z m342 1 c13 -18 9
-35 -12 -56 -38 -38 -95 -18 -88 32 6 41 78 58 100 24z m-392 4 c0 -5 -2 -10
-4 -10 -3 0 -8 5 -11 10 -3 6 -1 10 4 10 6 0 11 -4 11 -10z m1027 -24 c-1 -22
-5 -32 -11 -28 -12 7 -18 8 -53 10 -35 3 -27 20 10 24 19 2 31 8 30 16 -2 6 3
12 11 12 9 0 14 -11 13 -34z m-327 14 c0 -5 -7 -7 -15 -4 -8 4 -15 8 -15 10 0
2 7 4 15 4 8 0 15 -4 15 -10z m1010 0 c0 -5 -2 -10 -4 -10 -3 0 -8 5 -11 10
-3 6 -1 10 4 10 6 0 11 -4 11 -10z m340 1 c0 -5 -9 -11 -20 -14 -20 -5 -26 3
-13 16 9 10 33 8 33 -2z m-960 -17 c0 -9 -5 -14 -12 -12 -18 6 -21 28 -4 28 9
0 16 -7 16 -16z m590 -9 l23 -25 -23 0 c-13 0 -31 -7 -41 -16 -17 -15 -19 -15
-35 1 -9 9 -25 14 -35 12 -29 -8 -23 16 9 35 39 25 75 22 102 -7z m90 -5 c0
-16 -4 -30 -10 -30 -5 0 -10 14 -10 30 0 17 5 30 10 30 6 0 10 -13 10 -30z
m42 -21 c3 -35 2 -38 -9 -23 -14 19 -17 47 -6 57 10 11 11 9 15 -34z m188 32
c0 -10 -30 -24 -37 -17 -3 3 -2 9 2 15 8 13 35 15 35 2z m258 -2 c-2 -6 -8
-10 -13 -10 -5 0 -11 4 -13 10 -2 6 4 11 13 11 9 0 15 -5 13 -11z m62 -18 c0
-4 -3 -11 -7 -14 -8 -9 -34 13 -28 24 6 9 35 1 35 -10z m-1610 0 c0 -12 -20
-25 -27 -18 -7 7 6 27 18 27 5 0 9 -4 9 -9z m1225 -11 c0 -18 -33 -26 -47 -12
-6 6 -7 15 -3 22 10 16 50 8 50 -10z m-1887 -32 c3 -37 -2 -35 -12 5 -3 15 -3
27 2 27 4 0 9 -14 10 -32z m-60 11 c-31 -17 -21 -69 15 -82 9 -3 17 -10 17
-15 0 -5 -20 -3 -45 5 -42 15 -46 14 -90 -10 -25 -14 -45 -24 -45 -22 0 15 15
35 25 35 21 0 45 29 45 54 0 17 8 25 38 33 49 14 61 15 40 2z m1052 -10 c0 -5
-20 -9 -45 -9 -54 0 -60 17 -7 22 41 4 52 1 52 -13z m-963 -21 c-3 -7 -5 -2
-5 12 0 14 2 19 5 13 2 -7 2 -19 0 -25z m608 22 c3 -5 1 -10 -4 -10 -6 0 -11
5 -11 10 0 6 2 10 4 10 3 0 8 -4 11 -10z m851 -4 c19 -20 18 -33 -6 -39 -17
-4 -20 0 -20 24 0 33 5 35 26 15z m267 -46 c46 -48 48 -79 7 -102 -35 -20 -42
-58 -10 -58 16 0 19 -5 14 -30 -5 -23 -3 -30 10 -30 10 0 16 8 16 22 0 12 7
29 16 39 20 23 11 39 -19 31 -20 -5 -21 -4 -8 12 23 28 80 13 119 -32 38 -43
40 -79 4 -74 -17 3 -36 -10 -72 -47 -46 -48 -81 -63 -95 -41 -3 5 -12 7 -20 3
-19 -7 -19 -4 1 42 12 31 13 43 3 66 -14 35 -25 36 -56 8 -19 -19 -25 -20 -38
-9 -9 7 -14 19 -11 26 3 7 1 16 -5 20 -6 3 -8 12 -5 20 8 22 -4 44 -25 44 -30
0 -25 48 6 62 28 13 30 19 14 35 -7 7 -9 19 -6 27 5 13 17 15 64 11 51 -5 63
-11 96 -45z m105 28 c20 -20 13 -29 -20 -26 -40 4 -54 38 -16 38 13 0 29 -5
36 -12z m-1193 -8 c-3 -5 -10 -10 -16 -10 -5 0 -9 5 -9 10 0 6 7 10 16 10 8 0
12 -4 9 -10z m691 -39 c1 -28 -4 -35 -32 -48 -22 -11 -34 -25 -38 -46 -6 -29
-7 -29 -20 -12 -16 22 -2 67 19 59 17 -7 45 34 45 64 0 37 25 20 26 -17z
m-1299 7 c-3 -8 -6 -5 -6 6 -1 11 2 17 5 13 3 -3 4 -12 1 -19z m81 7 c4 -4
-36 -45 -43 -45 -3 0 -5 14 -5 31 0 27 3 30 23 23 12 -3 24 -8 25 -9z m67 5
c3 -5 2 -10 -4 -10 -5 0 -13 5 -16 10 -3 6 -2 10 4 10 5 0 13 -4 16 -10z
m1075 -6 c0 -8 -5 -12 -10 -9 -6 4 -8 11 -5 16 9 14 15 11 15 -7z m285 6 c3
-5 1 -10 -4 -10 -6 0 -11 5 -11 10 0 6 2 10 4 10 3 0 8 -4 11 -10z m-2206 -53
c5 -13 5 -27 -1 -34 -16 -20 -28 -15 -28 12 0 14 -4 25 -10 25 -5 0 -10 9 -10
20 0 18 3 19 21 10 11 -6 24 -21 28 -33z m2509 21 c-3 -25 -34 -36 -50 -20
-17 17 -1 42 27 42 22 0 26 -4 23 -22z m-368 5 c0 -5 -5 -15 -10 -23 -8 -12
-10 -11 -10 8 0 12 5 22 10 22 6 0 10 -3 10 -7z m-850 -33 c18 0 29 -4 25 -10
-13 -22 -95 -4 -95 21 0 6 7 6 19 -1 11 -5 34 -10 51 -10z m-716 -1 c38 -18
40 -38 5 -70 -24 -22 -30 -35 -27 -60 2 -24 8 -33 26 -35 17 -3 22 1 22 17 0
11 5 30 12 42 6 12 13 36 15 52 5 50 14 63 24 38 10 -28 39 -30 39 -3 0 26 14
25 45 -2 35 -31 56 -64 49 -81 -3 -8 -21 -18 -39 -21 -34 -7 -75 -46 -75 -72
0 -7 -14 -20 -30 -29 -23 -12 -73 -72 -85 -102 0 -1 -11 0 -23 4 -14 3 -29 22
-41 49 -11 24 -26 44 -34 44 -18 0 -30 79 -15 97 6 7 8 13 4 13 -3 0 3 16 15
36 16 29 17 39 8 50 -15 18 -4 31 31 37 43 8 48 7 74 -4z m976 1 c0 -5 -4 -10
-10 -10 -5 0 -10 5 -10 10 0 6 5 10 10 10 6 0 10 -4 10 -10z m453 -25 c-26
-21 -63 -75 -63 -92 0 -2 9 -1 21 2 17 6 20 3 17 -11 -2 -11 -11 -20 -20 -22
-20 -4 -36 54 -19 71 6 6 11 18 11 27 0 9 15 24 33 33 48 23 56 20 20 -8z
m187 -32 c0 -22 -27 -14 -34 10 -11 43 -6 53 14 27 11 -14 20 -31 20 -37z
m-126 -32 c-17 -15 -17 -15 -3 3 13 18 12 19 -3 13 -10 -3 -18 -4 -18 0 0 3 8
12 18 19 12 10 13 13 3 14 -11 0 -11 3 0 17 13 15 14 13 17 -17 2 -22 -2 -38
-14 -49z m496 69 c0 -5 -13 -10 -30 -10 -16 0 -30 5 -30 10 0 6 14 10 30 10
17 0 30 -4 30 -10z m-2336 -25 c3 -8 1 -15 -4 -15 -6 0 -10 7 -10 15 0 8 2 15
4 15 2 0 6 -7 10 -15z m216 6 c0 -6 -4 -12 -10 -16 -5 -3 -7 -12 -3 -20 3 -8
1 -15 -5 -15 -16 0 -21 -53 -12 -121 9 -64 6 -87 -7 -53 -8 23 -53 64 -70 64
-7 0 -23 12 -37 26 -20 22 -22 30 -13 45 9 14 9 21 -1 31 -17 17 -15 28 7 28
11 0 27 -10 35 -21 18 -26 43 -19 48 13 4 28 68 65 68 39z m1329 -17 c-10 -12
-14 -12 -20 -2 -4 7 -3 16 4 20 18 11 29 -2 16 -18z m-143 6 c19 0 34 -4 34
-10 0 -5 -25 -10 -55 -10 -44 0 -56 -4 -65 -20 -12 -23 -30 -18 -30 9 0 28 22
43 54 37 16 -3 44 -6 62 -6z m230 -5 c19 -19 14 -19 -22 0 -21 11 -24 15 -11
15 10 0 25 -7 33 -15z m1034 -10 c0 -8 -7 -15 -15 -15 -16 0 -20 12 -8 23 11
12 23 8 23 -8z m-2860 -10 c7 -8 10 -25 6 -39 -8 -33 18 -55 45 -37 16 9 27 9
54 0 19 -7 36 -18 39 -25 5 -14 -14 -84 -24 -84 -17 0 -50 -43 -45 -59 3 -11
-5 -29 -20 -47 -14 -16 -25 -35 -25 -42 0 -8 -7 -11 -17 -8 -66 19 -73 19 -74
-5 0 -14 -3 -18 -6 -9 -2 8 -9 25 -15 37 -14 28 -4 41 17 23 13 -10 15 -9 15
8 0 11 -8 22 -18 24 -16 5 -18 15 -17 79 1 41 3 79 4 85 0 5 17 16 36 24 19 8
35 18 35 23 0 9 -17 6 -52 -8 -13 -5 -18 -2 -18 10 0 11 6 15 19 10 14 -4 20
1 24 25 7 33 18 38 37 15z m108 -25 c7 0 12 -7 12 -15 0 -18 -5 -18 -30 -5
-14 7 -23 6 -34 -6 -15 -14 -16 -12 -16 19 0 44 9 51 35 27 12 -11 27 -20 33
-20z m459 7 c-8 -13 -17 -32 -20 -42 -5 -19 -5 -19 -6 0 0 11 6 31 15 43 20
29 31 29 11 -1z m1245 -9 c-6 -6 -24 -12 -39 -13 -15 -1 -41 -5 -58 -9 -23 -5
-20 -1 15 15 25 12 48 23 52 23 3 1 10 4 14 9 4 4 12 3 18 -3 7 -7 6 -14 -2
-22z m78 -59 c29 -76 30 -84 20 -135 -9 -42 -9 -58 1 -70 9 -11 15 -11 25 -3
10 8 19 4 39 -17 14 -15 25 -32 25 -37 0 -6 7 -18 16 -28 14 -16 14 -20 -6
-47 -27 -36 -22 -66 16 -112 23 -27 26 -36 17 -63 -11 -38 -7 -57 14 -57 9 0
12 6 8 19 -4 13 2 23 21 35 14 10 26 16 27 14 1 -2 12 -17 25 -35 26 -37 27
-43 8 -43 -27 0 -76 -177 -76 -278 0 -31 -4 -72 -9 -89 -5 -18 -13 -77 -16
-133 -7 -86 -5 -100 8 -100 34 0 24 -99 -14 -144 -6 -6 -16 -20 -23 -30 -10
-15 -29 -20 -87 -23 -65 -5 -77 -2 -101 16 -31 25 -48 75 -48 146 0 28 -4 55
-8 61 -10 14 -40 25 -46 15 -6 -8 14 -94 24 -101 11 -9 50 -113 45 -119 -12
-12 -40 17 -43 45 -2 16 -8 34 -12 39 -5 6 -14 41 -21 78 -11 60 -11 71 4 97
23 38 22 55 -12 135 -21 50 -35 71 -50 73 -52 8 -95 133 -96 276 0 57 -4 101
-10 103 -6 2 -10 -41 -10 -115 0 -99 3 -124 21 -162 12 -25 25 -55 29 -68 3
-12 17 -30 30 -38 52 -34 92 -143 75 -204 -12 -42 14 -176 50 -250 4 -8 24
-24 45 -35 l37 -20 -5 -67 c-6 -74 9 -95 19 -27 5 27 10 36 15 28 9 -17 -14
-108 -39 -158 -10 -20 -32 -45 -48 -56 -29 -20 -45 -20 -659 -20 l-630 0 -27
55 c-17 33 -32 87 -39 135 -6 44 -17 96 -26 115 -50 118 -63 175 -63 282 0
127 12 192 52 274 69 142 147 196 285 198 46 1 83 4 83 9 0 4 -10 7 -22 7 -33
0 -68 11 -68 21 0 5 30 7 68 6 37 -1 78 2 92 6 18 6 21 5 10 -2 -25 -17 13
-24 90 -17 83 8 93 -1 53 -51 -63 -79 -165 -277 -205 -398 -35 -106 -49 -122
-88 -98 -38 22 -55 12 -68 -36 -14 -56 -7 -74 37 -102 21 -13 48 -41 60 -61
12 -21 29 -38 38 -38 28 0 63 41 63 74 1 42 31 106 73 152 41 46 77 114 82
156 2 17 13 40 24 52 32 34 25 43 -9 11 -17 -16 -30 -39 -30 -52 0 -39 -27
-91 -78 -151 -26 -31 -57 -76 -67 -99 -10 -24 -22 -43 -26 -43 -4 0 -5 -16 -2
-35 4 -27 2 -36 -12 -41 -23 -9 -46 21 -40 53 3 20 0 24 -19 21 -49 -6 -104
65 -71 92 9 8 12 4 13 -16 0 -35 34 -71 50 -52 7 9 8 19 2 28 -7 11 -10 12
-10 2 0 -7 -4 -10 -10 -7 -5 3 -10 18 -10 32 0 15 -7 35 -17 45 -12 13 -13 18
-3 18 7 0 30 -18 50 -39 l38 -39 5 35 c3 19 15 53 25 76 11 23 27 65 36 92 21
60 48 115 57 115 3 0 9 15 12 33 6 38 54 121 108 187 44 53 62 87 54 99 -3 5
2 17 12 26 15 16 15 19 0 45 -10 15 -17 39 -17 52 0 40 -67 209 -87 221 -5 3
-52 -32 -105 -78 -88 -74 -107 -85 -185 -109 -121 -38 -124 -39 -187 -88 -44
-34 -56 -49 -56 -70 0 -33 -25 -38 -33 -8 -7 27 -27 25 -28 -2 -1 -22 -1 -22
-8 2 -5 19 -14 25 -36 25 -27 0 -30 3 -33 38 -2 20 -7 37 -12 37 -26 0 -40
-86 -18 -108 9 -9 8 -12 -5 -12 -14 0 -17 11 -17 75 l0 75 41 0 c35 0 40 -2
34 -19 -3 -11 -1 -22 5 -26 8 -5 8 -11 0 -20 -9 -11 -1 -17 41 -29 62 -19 60
-19 56 -7 -1 5 7 17 18 26 20 16 20 16 -5 11 -24 -5 -24 -4 -6 9 25 19 15 19
-31 0 -46 -19 -56 -11 -14 12 32 19 43 40 15 29 -30 -11 -64 -18 -64 -13 0 4
20 15 45 26 41 18 47 18 75 4 17 -8 34 -13 37 -10 2 3 -8 12 -24 21 -48 25
-56 39 -32 65 22 23 23 72 2 79 -9 2 -13 -8 -13 -31 0 -19 -7 -40 -15 -47 -10
-8 -13 -21 -9 -33 4 -12 1 -23 -7 -28 -17 -11 -40 -12 -37 -1 5 21 -15 192
-23 192 -5 0 -9 -43 -9 -95 0 -75 -3 -95 -14 -95 -20 0 -26 23 -26 98 0 73 -8
112 -21 112 -5 0 -9 -47 -9 -105 0 -63 -4 -105 -10 -105 -5 0 -10 6 -11 13 0
6 -1 61 -2 121 -1 77 -6 111 -14 113 -10 4 -13 -18 -15 -84 l-2 -88 -5 74 c-4
46 -11 76 -18 79 -10 3 -13 -20 -13 -92 0 -76 3 -96 14 -96 8 0 17 8 19 18 3
9 5 0 6 -21 1 -34 -1 -38 -21 -35 -21 3 -23 9 -26 68 -1 36 -4 75 -7 88 -9 39
-21 24 -24 -30 -4 -89 -11 -67 -11 34 0 71 4 97 13 101 12 4 359 11 395 7 6 0
26 -2 43 -3 33 -2 51 -25 49 -60 -4 -39 0 -57 10 -57 6 0 10 15 10 34 0 39 15
56 23 26 3 -11 10 -20 16 -20 15 0 14 63 -1 78 -9 9 -7 12 11 12 19 0 22 -4
17 -24 -3 -14 0 -28 8 -35 11 -9 15 -6 18 19 3 16 1 30 -4 30 -5 0 -6 5 -3 10
12 19 25 10 25 -16 0 -22 2 -24 14 -14 8 6 13 17 10 24 -3 8 11 21 36 34 23
11 40 16 38 12 -2 -5 -36 -43 -77 -84 -71 -74 -185 -155 -199 -142 -3 4 -8 36
-10 71 -2 36 -9 65 -14 65 -7 0 -9 -31 -6 -84 4 -83 4 -84 -24 -100 -22 -13
-32 -15 -49 -6 -11 7 -23 9 -27 6 -9 -10 6 -19 45 -25 32 -5 41 -2 65 23 15
16 28 25 28 20 0 -5 6 -2 13 7 7 8 37 29 67 45 60 31 195 161 222 212 23 42
73 72 110 65 16 -3 34 0 43 7 8 7 15 10 15 6 0 -9 116 52 130 69 11 14 14 13
27 -5 18 -25 57 -26 130 -3 44 14 63 15 106 6 76 -15 359 -1 385 19 6 6 12 7
12 3 0 -15 -55 -54 -85 -61 -16 -3 -49 -15 -72 -25 -23 -11 -46 -19 -50 -19
-4 0 -33 -15 -63 -33 -31 -19 -73 -36 -95 -40 -51 -8 -69 -28 -68 -74 1 -22
-9 -57 -21 -83 -24 -47 -52 -128 -60 -170 -17 -95 -40 -166 -65 -200 -17 -21
-21 -22 -35 -11 -19 16 -35 6 -18 -11 19 -19 14 -39 -18 -87 -19 -29 -26 -49
-20 -56 6 -7 6 -32 0 -66 -18 -102 -23 -159 -13 -159 9 0 28 92 43 210 6 55
37 130 52 130 4 0 8 -7 8 -17 0 -9 11 -31 25 -49 14 -18 25 -38 25 -44 0 -6 7
-18 15 -27 12 -11 13 -18 4 -29 -13 -15 -4 -34 17 -34 17 0 19 16 2 24 -7 3
-4 4 7 3 14 -1 21 5 23 20 4 25 -26 76 -39 67 -12 -7 -11 0 7 46 13 32 20 39
35 35 13 -4 22 3 34 30 10 19 23 35 30 35 15 0 29 35 21 49 -3 5 2 8 11 7 24
-2 44 58 37 109 -4 22 -21 72 -40 112 -37 78 -40 102 -20 148 12 29 13 28 18
-36 6 -74 44 -170 65 -162 16 6 17 -9 2 -24 -6 -6 -9 -17 -7 -25 3 -8 14 1 28
24 12 21 26 35 32 32 16 -10 48 28 48 57 0 15 5 31 10 34 6 3 10 1 10 -4 0
-20 29 -11 65 20 19 17 35 37 35 45 0 19 20 17 36 -3 19 -26 17 -33 -11 -33
-18 0 -25 -5 -25 -20 0 -28 27 -16 73 34 42 46 46 67 16 88 -29 19 -38 103
-16 147 9 17 21 56 27 86 6 30 15 55 20 55 5 0 23 -36 40 -81z m-1697 14 c6
-62 3 -73 -19 -73 -10 0 -13 7 -8 26 4 14 1 36 -6 49 -11 20 -11 27 0 40 21
25 27 18 33 -42z m1947 47 c8 -5 12 -11 9 -14 -7 -8 -49 5 -49 15 0 12 21 11
40 -1z m-487 -14 c5 -12 -4 -15 -41 -15 -26 -1 -62 -3 -80 -5 -27 -3 -31 -1
-21 11 8 9 28 13 55 12 24 -2 47 0 50 4 12 12 32 8 37 -7z m402 -7 c-10 -15
-25 -10 -19 6 4 8 10 12 15 9 5 -3 7 -10 4 -15z m715 -18 c7 -13 7 -22 0 -26
-15 -9 -30 4 -30 26 0 25 16 25 30 0z m-474 -109 c-9 -25 -16 -53 -16 -63 0
-9 -8 -19 -17 -23 -10 -3 -25 -11 -34 -17 -20 -15 -69 -4 -69 16 0 8 -5 15
-11 15 -13 0 -2 37 22 72 11 14 45 44 77 66 l57 39 3 -29 c2 -16 -4 -50 -12
-76z m562 85 c2 -10 -3 -17 -12 -17 -10 0 -16 9 -16 21 0 24 23 21 28 -4z
m-633 -7 c3 -5 -1 -10 -10 -10 -9 0 -13 5 -10 10 3 6 8 10 10 10 2 0 7 -4 10
-10z m-1972 -37 c7 -9 5 -13 -6 -13 -17 0 -30 27 -20 43 4 7 8 6 11 -3 3 -8 9
-21 15 -27z m1722 17 c-5 -15 0 -23 19 -32 31 -13 34 -28 6 -28 -21 0 -70 47
-70 67 0 7 12 13 26 13 21 0 24 -4 19 -20z m709 4 c9 -22 8 -24 -9 -24 -8 0
-15 9 -15 20 0 24 15 27 24 4z m-664 -14 c0 -5 -7 -7 -15 -4 -8 4 -15 8 -15
10 0 2 7 4 15 4 8 0 15 -4 15 -10z m553 3 c-7 -2 -21 -2 -30 0 -10 3 -4 5 12
5 17 0 24 -2 18 -5z m207 -3 c0 -5 -7 -10 -16 -10 -8 0 -12 5 -9 10 3 6 10 10
16 10 5 0 9 -4 9 -10z m-1068 -52 c-12 -18 -28 -67 -36 -107 -15 -70 -47 -124
-61 -102 -7 12 12 61 24 61 12 0 31 55 31 89 0 27 47 107 57 97 3 -3 -4 -20
-15 -38z m986 32 c35 0 43 -15 12 -23 -11 -3 -20 -12 -20 -21 0 -9 8 -16 20
-16 16 0 20 -7 20 -30 0 -16 -4 -30 -10 -30 -5 0 -10 9 -10 20 0 11 -4 20 -10
20 -5 0 -10 -16 -10 -36 l0 -36 40 7 c33 6 40 4 40 -9 0 -9 -6 -16 -14 -16
-20 0 -27 -28 -22 -93 2 -31 0 -57 -5 -57 -5 0 -9 32 -9 71 0 52 -3 70 -12 67
-14 -5 -31 -83 -24 -110 2 -10 0 -18 -6 -18 -6 0 -8 24 -6 58 2 45 0 57 -12
57 -12 0 -15 -13 -15 -58 0 -31 -3 -57 -7 -57 -5 0 -8 27 -8 60 0 47 -3 60
-15 60 -11 0 -15 -12 -17 -42 l-1 -43 -6 50 c-5 45 -8 50 -33 52 -16 1 -28 -3
-28 -10 0 -7 -5 -4 -11 5 -5 10 -16 15 -24 12 -8 -4 -15 -1 -15 5 0 6 19 11
48 11 26 0 71 3 100 6 l52 7 0 58 c0 46 -3 59 -15 59 -11 0 -15 -14 -17 -57
l-2 -58 -3 55 c-5 63 -15 79 -38 60 -9 -7 -29 -13 -45 -12 -26 1 -30 -3 -31
-26 l-2 -27 -4 28 c-2 15 -10 27 -18 27 -8 0 -16 -12 -18 -27 -3 -17 -4 -12
-3 12 l1 40 70 6 c39 3 79 4 90 3 11 -2 35 -4 53 -4z m-1850 -24 c-2 -13 -9
-20 -18 -17 -8 2 -34 4 -57 5 -24 1 -45 5 -49 8 -3 4 -12 4 -20 1 -8 -3 -14 1
-14 9 0 11 18 14 80 14 76 0 81 -1 78 -20z m937 7 c-4 -10 -10 -31 -14 -46 -6
-30 -28 -38 -23 -9 6 32 24 72 34 72 6 0 7 -8 3 -17z m1065 -37 c0 -25 -4 -48
-10 -51 -6 -4 -10 13 -10 44 0 28 5 51 10 51 6 0 10 -20 10 -44z m-2623 26 c6
-4 14 -21 17 -37 6 -26 5 -27 -3 -7 -14 30 -31 28 -31 -4 0 -15 -4 -23 -11
-18 -6 3 -9 15 -6 25 3 10 1 22 -4 25 -5 3 -9 9 -9 15 0 11 30 12 47 1z m113
-1 c0 -5 -9 -7 -20 -4 -11 3 -20 7 -20 9 0 2 9 4 20 4 11 0 20 -4 20 -9z m310
-31 c0 -22 -4 -40 -10 -40 -5 0 -10 11 -10 24 0 13 -3 31 -6 40 -4 11 -1 16
10 16 12 0 16 -10 16 -40z m1015 23 c-4 -10 -11 -31 -15 -48 -6 -23 -8 -25 -9
-8 -1 25 15 73 25 73 3 0 3 -8 -1 -17z m1135 -30 c0 -35 -3 -44 -10 -33 -16
25 -11 80 7 80 2 0 3 -21 3 -47z m-1180 32 c0 -3 -8 -18 -17 -33 -15 -21 -18
-49 -18 -142 0 -88 -3 -115 -13 -115 -9 0 -14 22 -17 70 -7 96 4 170 27 200
18 23 38 33 38 20z m344 -4 c3 -4 19 -11 36 -14 17 -4 30 -13 30 -21 0 -8 8
-19 17 -25 10 -5 14 -13 10 -17 -4 -4 -13 -2 -19 4 -7 7 -20 12 -30 12 -9 0
-22 9 -28 20 -6 11 -16 19 -22 17 -7 -1 -14 6 -16 16 -4 17 13 24 22 8z m102
-38 c-8 -8 -12 -3 -21 27 l-7 25 17 -23 c9 -13 14 -26 11 -29z m74 38 c0 -6
-4 -13 -10 -16 -5 -3 -10 1 -10 9 0 9 5 16 10 16 6 0 10 -4 10 -9z m620 -7 c0
-8 -4 -12 -10 -9 -5 3 -10 10 -10 16 0 5 5 9 10 9 6 0 10 -7 10 -16z m-2325
-4 c3 -5 1 -10 -4 -10 -6 0 -11 5 -11 10 0 6 2 10 4 10 3 0 8 -4 11 -10z m165
0 c0 -5 -5 -10 -11 -10 -5 0 -7 5 -4 10 3 6 8 10 11 10 2 0 4 -4 4 -10z m140
-25 c0 -14 -4 -25 -10 -25 -5 0 -10 11 -10 25 0 14 5 25 10 25 6 0 10 -11 10
-25z m1607 -1 c-9 -9 -28 6 -21 18 4 6 10 6 17 -1 6 -6 8 -13 4 -17z m275 -41
c8 -10 6 -13 -5 -13 -18 0 -25 24 -18 60 5 24 6 24 9 -5 2 -16 8 -36 14 -42z
m-2262 27 c0 -11 -4 -20 -10 -20 -5 0 -10 9 -10 20 0 11 5 20 10 20 6 0 10 -9
10 -20z m1760 -17 c0 -13 -3 -13 -15 -3 -8 7 -15 19 -15 27 0 13 3 13 15 3 8
-7 15 -19 15 -27z m-2000 -7 c-14 -14 -22 -2 -14 18 5 14 9 15 15 4 4 -7 4
-17 -1 -22z m1591 -66 c-8 -21 -9 -18 -6 20 5 76 8 87 12 45 2 -23 0 -52 -6
-65z m1046 68 c-3 -7 -5 -2 -5 12 0 14 2 19 5 13 2 -7 2 -19 0 -25z m-1229
-15 c-6 -22 -7 -71 -3 -120 8 -92 -5 -111 -25 -38 -14 52 -8 142 12 174 20 32
28 25 16 -16z m929 5 c-3 -8 -6 -5 -6 6 -1 11 2 17 5 13 3 -3 4 -12 1 -19z
m-837 -10 c0 -16 -3 -19 -11 -11 -6 6 -8 16 -5 22 11 17 16 13 16 -11z m417 1
c62 -23 81 -133 32 -185 l-22 -24 21 -23 c12 -13 22 -32 22 -42 0 -15 -6 -12
-30 15 -16 19 -29 38 -30 41 0 3 11 18 25 33 47 51 27 125 -42 156 -25 11 -43
26 -43 35 0 17 9 16 67 -6z m-1417 1 c0 -5 -5 -10 -11 -10 -5 0 -7 5 -4 10 3
6 8 10 11 10 2 0 4 -4 4 -10z m1805 -10 c3 -5 -1 -10 -9 -10 -9 0 -16 5 -16
10 0 6 4 10 9 10 6 0 13 -4 16 -10z m442 -17 c4 -9 1 -19 -5 -21 -8 -2 -12
-26 -12 -63 0 -42 -3 -58 -11 -53 -8 4 -9 25 -5 61 6 49 4 55 -14 60 -11 3
-20 12 -20 19 0 21 59 18 67 -3z m-677 -26 c0 -5 -4 -5 -10 -2 -5 3 -10 14
-10 23 0 15 2 15 10 2 5 -8 10 -19 10 -23z m260 13 c0 -5 -5 -10 -11 -10 -5 0
-7 5 -4 10 3 6 8 10 11 10 2 0 4 -4 4 -10z m-636 -13 c4 4 4 0 0 -10 -9 -24
-34 -21 -34 4 0 17 3 19 13 10 8 -6 17 -8 21 -4z m477 0 c-1 -12 -15 -9 -19 4
-3 6 1 10 8 8 6 -3 11 -8 11 -12z m-131 -66 c0 -45 -6 -37 -13 18 -4 29 -2 40
4 30 5 -7 9 -29 9 -48z m647 37 c-3 -8 -6 -5 -6 6 -1 11 2 17 5 13 3 -3 4 -12
1 -19z m-607 -43 c-17 -97 -12 -207 11 -250 25 -50 20 -90 -19 -153 -17 -27
-32 -68 -36 -97 -7 -56 -33 -132 -52 -155 -7 -9 -16 -46 -20 -83 -4 -38 -10
-64 -15 -60 -10 10 6 166 20 192 6 11 11 45 11 76 0 63 35 212 56 236 19 22
17 53 -6 99 -26 50 -25 64 5 125 13 28 25 60 25 73 0 18 20 55 26 48 1 0 -2
-23 -6 -51z m-2202 -53 c2 -59 -1 -92 -8 -92 -5 0 -10 15 -11 33 0 17 -3 61
-5 96 -4 49 -3 62 8 59 9 -3 14 -31 16 -96z m2128 10 c-11 -10 -13 3 -7 48 l6
45 3 -44 c2 -23 1 -46 -2 -49z m310 62 c-15 -14 -31 -23 -34 -20 -6 7 39 45
53 45 6 0 -3 -11 -19 -25z m91 4 c-3 -8 -6 -5 -6 6 -1 11 2 17 5 13 3 -3 4
-12 1 -19z m-198 -9 c-16 -10 -23 -4 -14 10 3 6 11 8 17 5 6 -4 5 -9 -3 -15z
m-285 -50 c-9 -10 -19 -17 -22 -15 -2 3 3 12 12 21 9 9 17 26 17 38 2 21 2 21
6 -1 3 -14 -3 -32 -13 -43z m-1983 -9 c-1 -30 -8 -60 -14 -67 -9 -9 -12 4 -13
58 0 57 3 69 15 67 12 -2 14 -15 12 -58z m917 -7 c12 -37 19 -70 16 -72 -10
-10 -24 24 -30 72 -7 48 -7 48 -38 41 -41 -8 -55 -22 -36 -34 12 -8 13 -13 3
-30 -7 -11 -13 -26 -13 -34 0 -8 6 -17 13 -19 6 -3 2 -6 -10 -6 -23 -1 -27 9
-23 58 1 15 -3 22 -12 19 -8 -3 -13 -20 -13 -41 0 -42 -13 -47 -36 -14 -16 22
-15 23 53 75 39 28 78 52 88 52 13 0 23 -17 38 -67z m499 45 c-3 -8 -6 -5 -6
6 -1 11 2 17 5 13 3 -3 4 -12 1 -19z m203 18 c0 -2 -7 -9 -15 -16 -12 -10 -15
-10 -15 4 0 9 7 16 15 16 8 0 15 -2 15 -4z m-1731 -113 c1 -13 -3 -23 -8 -23
-12 0 -20 60 -13 95 6 30 6 30 13 -10 5 -22 8 -50 8 -62z m2426 58 c5 -17 3
-22 -5 -19 -7 2 -14 17 -16 32 -3 32 10 24 21 -13z m-1437 -22 c1 -17 7 -40
13 -50 8 -15 6 -19 -8 -19 -15 0 -19 10 -21 50 -2 28 1 50 5 50 5 0 10 -14 11
-31z m562 -4 c0 -5 -5 -3 -10 5 -5 8 -10 20 -10 25 0 6 5 3 10 -5 5 -8 10 -19
10 -25z m-72 -32 c26 -72 31 -111 22 -143 -7 -21 -8 -18 -7 15 0 22 -5 49 -10
60 -18 33 -42 125 -34 125 5 0 18 -26 29 -57z m1108 32 c15 -30 10 -35 -26
-25 -17 5 -32 4 -38 -2 -6 -6 -18 -8 -27 -4 -15 5 -15 7 -1 22 13 13 50 29 76
33 3 0 10 -10 16 -24z m-1145 -51 c10 -27 17 -67 18 -89 l0 -40 -25 65 c-14
35 -28 78 -31 94 -10 48 18 26 38 -30z m1004 25 c-4 -5 -13 -9 -22 -9 -13 0
-13 3 -3 15 13 15 35 11 25 -6z m305 -73 c0 -65 -4 -96 -12 -98 -22 -8 -58 4
-58 18 0 17 32 18 48 2 10 -10 12 3 10 66 -2 52 -7 81 -15 84 -9 2 -13 -13
-15 -55 l-1 -58 -6 59 c-6 62 -30 91 -32 39 l-2 -28 -4 27 c-2 15 -12 29 -21
31 -9 3 11 5 46 6 l62 1 0 -94z m163 2 c-6 -123 -11 -134 -12 -25 -1 70 -4 87
-16 87 -12 0 -15 -15 -15 -76 0 -48 -4 -73 -10 -69 -6 4 -8 11 -4 16 3 6 3 36
-1 68 -6 56 -8 58 -36 58 l-29 0 0 -75 c0 -96 -9 -89 -14 11 -4 91 0 96 85 97
l56 0 -4 -92z m-569 45 c9 -23 -11 -14 -28 12 -17 25 -16 25 3 13 11 -7 23
-18 25 -25z m-1528 -21 c-4 -3 -12 0 -19 7 -9 9 -9 14 3 21 11 7 16 5 18 -6 2
-9 1 -18 -2 -22z m1354 28 c0 -5 -4 -10 -9 -10 -6 0 -13 5 -16 10 -3 6 1 10 9
10 9 0 16 -4 16 -10z m290 -10 c0 -5 -5 -10 -11 -10 -5 0 -7 5 -4 10 3 6 8 10
11 10 2 0 4 -4 4 -10z m158 -36 c62 -180 70 -349 26 -525 -32 -128 -83 -248
-96 -224 -5 8 -13 13 -17 10 -13 -7 -71 15 -71 27 0 7 18 8 50 4 28 -4 50 -3
50 2 0 5 -25 19 -56 32 -56 24 -78 40 -47 35 26 -4 36 5 22 21 -16 20 -6 18
36 -7 25 -15 39 -19 47 -11 7 7 -2 18 -31 37 -42 29 -58 48 -18 23 27 -17 49
-17 54 -1 5 13 -26 32 -72 45 -21 5 -12 6 28 3 44 -4 57 -2 57 8 0 8 -15 19
-32 25 l-33 11 36 -5 c35 -6 37 -4 41 26 4 29 1 34 -28 46 -18 8 -40 14 -49
14 -8 0 -15 4 -15 9 0 5 25 13 55 17 67 11 69 29 2 29 -65 -1 -55 19 13 25 55
5 77 23 40 33 -12 3 -37 3 -56 1 -23 -3 -33 -1 -29 6 3 5 26 10 51 10 32 0 44
4 44 15 0 8 -7 15 -15 15 -8 0 -15 5 -15 11 0 6 9 9 20 6 21 -6 37 8 20 18 -5
3 -7 20 -3 37 l6 30 -52 -7 c-61 -8 -69 7 -9 21 44 10 65 34 29 34 -12 0 -21
5 -21 10 0 6 9 10 20 10 20 0 28 24 11 34 -5 3 -23 1 -41 -5 -23 -9 -34 -9
-43 0 -8 8 -6 11 6 11 10 0 32 7 48 16 25 12 28 18 19 29 -8 10 -18 12 -29 6
-9 -4 -28 -11 -43 -15 -21 -5 -28 -3 -28 9 0 10 10 15 28 15 15 0 34 5 42 10
23 15 34 7 48 -36z m-1838 32 c0 -3 -4 -8 -10 -11 -5 -3 -10 -1 -10 4 0 6 5
11 10 11 6 0 10 -2 10 -4z m1530 -51 c0 -13 -39 -3 -44 11 -13 35 -6 43 19 18
14 -14 25 -27 25 -29z m519 -8 l-1 -52 -9 40 c-11 55 -11 77 1 70 6 -3 9 -30
9 -58z m-1427 10 c31 -79 41 -143 26 -166 -19 -31 -28 -26 -28 19 0 21 -7 65
-15 97 -25 97 -14 130 17 50z m-660 21 c5 -44 3 -96 -5 -91 -5 3 -5 23 -2 44
6 32 4 39 -9 39 -10 0 -16 -9 -17 -22 -1 -17 -2 -19 -6 -5 -8 30 -32 19 -39
-19 -7 -40 10 -62 33 -42 9 7 13 7 13 0 0 -12 -31 -32 -50 -32 -7 0 -11 18 -9
50 2 27 -1 53 -5 57 -4 4 10 13 31 19 51 16 63 16 65 2z m311 -8 c3 -11 1 -23
-4 -26 -12 -7 -11 -64 1 -64 6 0 10 -4 10 -10 0 -5 -9 -10 -20 -10 -22 0 -25
22 -14 93 7 41 19 48 27 17z m-144 1 c11 -7 12 -13 4 -23 -6 -7 -13 -22 -16
-33 -2 -11 -3 -5 -1 13 2 23 -1 32 -12 32 -9 0 -14 -11 -14 -36 0 -19 -4 -33
-8 -30 -9 6 -15 64 -7 77 8 11 36 11 54 0z m-689 -16 c0 -10 -7 -15 -17 -13
-15 3 -18 -6 -19 -56 -1 -55 -11 -75 -38 -76 -11 0 3 73 16 81 13 8 6 41 -9
47 -8 2 -13 -6 -13 -22 0 -14 -4 -26 -10 -26 -5 0 -10 -9 -10 -19 0 -36 -19
-32 -22 4 -4 45 -28 33 -32 -16 -5 -56 -8 -56 -20 -1 -13 61 -31 65 -32 7 -2
-67 -19 -49 -19 19 0 35 -3 62 -7 60 -4 -2 -9 0 -12 5 -8 12 16 15 142 19 87
2 102 0 102 -13z m592 -47 c9 1 19 -2 23 -8 4 -6 -8 -10 -30 -10 -37 0 -37 0
-31 38 7 51 8 52 15 12 4 -25 11 -34 23 -32z m18 37 c0 -14 -2 -25 -4 -25 -2
0 -6 11 -8 25 -3 14 -1 25 3 25 5 0 9 -11 9 -25z m1658 -26 c15 -63 15 -163 1
-266 -13 -97 -18 -115 -31 -107 -6 4 -8 -1 -3 -16 4 -12 3 -32 -3 -44 -6 -11
-30 -63 -53 -113 -24 -51 -47 -93 -51 -93 -4 0 -8 -5 -8 -12 0 -6 -12 -26 -26
-45 -21 -27 -29 -32 -40 -22 -21 18 -17 27 11 21 27 -5 35 15 10 24 -8 4 -15
12 -15 20 0 16 9 18 30 4 22 -14 31 10 11 29 -9 9 -13 13 -8 10 9 -7 47 0 47
8 0 2 -7 12 -16 21 -14 13 -14 17 -3 20 41 11 42 12 29 27 -12 15 -4 20 23 16
11 -2 9 27 -3 34 -17 11 -11 25 11 25 30 0 18 24 -13 28 -22 3 -27 -2 -33 -27
-3 -17 -14 -40 -24 -53 -10 -13 -21 -33 -25 -45 -8 -26 -14 -28 -36 -12 -11 8
-12 12 -2 16 6 2 12 11 12 19 0 8 4 14 9 14 5 0 11 12 14 28 11 55 46 185 52
190 3 3 11 0 17 -6 9 -9 8 -12 -5 -12 -9 0 -17 -4 -17 -10 0 -20 38 -10 43 12
8 27 1 38 -24 38 -10 0 -19 5 -19 11 0 8 13 9 40 5 48 -8 54 9 8 19 -33 8 -51
23 -42 37 3 4 16 3 30 -2 32 -12 54 -13 54 -1 0 5 -18 12 -40 16 -57 10 -50
22 10 17 32 -3 50 0 50 7 0 6 -15 11 -34 11 -44 0 -66 9 -66 26 0 17 -3 16 38
5 28 -9 32 -7 32 10 0 11 7 30 16 44 17 26 22 80 10 108 -6 12 -4 17 6 17 9 0
19 -19 26 -51z m179 29 c-3 -8 -6 -5 -6 6 -1 11 2 17 5 13 3 -3 4 -12 1 -19z
m-2046 -50 c-2 -33 2 -54 10 -59 9 -5 2 -12 -22 -22 -49 -20 -78 -1 -70 47 1
4 -3 14 -8 20 -8 9 -2 19 22 37 35 27 60 39 66 33 3 -3 4 -27 2 -56z m1729 42
c0 -5 -7 -10 -15 -10 -8 0 -15 5 -15 10 0 6 7 10 15 10 8 0 15 -4 15 -10z m83
-8 c16 -17 14 -32 -4 -32 -14 0 -39 31 -34 41 9 14 20 11 38 -9z m-1496 -29
c-3 -10 -5 -4 -5 12 0 17 2 24 5 18 2 -7 2 -21 0 -30z m55 0 c6 -43 4 -48 -15
-40 -9 3 -12 17 -9 41 5 47 19 46 24 -1z m-768 -20 c4 -27 2 -43 -4 -43 -5 0
-10 21 -10 47 0 55 5 54 14 -4z m2076 31 c0 -8 -4 -12 -10 -9 -5 3 -10 10 -10
16 0 5 5 9 10 9 6 0 10 -7 10 -16z m75 -4 c-3 -5 -13 -10 -21 -10 -8 0 -12 5
-9 10 3 6 13 10 21 10 8 0 12 -4 9 -10z m-1003 -74 c2 -27 -1 -50 -7 -52 -6
-2 -11 21 -12 57 -2 73 15 68 19 -5z m-865 14 c7 -19 8 -30 1 -30 -5 0 -12 9
-15 20 -3 11 -10 20 -15 20 -5 0 -6 5 -3 10 11 17 20 11 32 -20z m433 14 c0
-8 -4 -12 -10 -9 -5 3 -10 10 -10 16 0 5 5 9 10 9 6 0 10 -7 10 -16z m1433 10
c4 -4 5 -10 2 -14 -6 -9 -65 0 -65 11 0 10 53 12 63 3z m45 -15 c-19 -13 -28
-11 -28 5 0 9 7 12 21 9 16 -4 17 -8 7 -14z m-2058 -24 c0 -8 -7 -15 -15 -15
-16 0 -20 12 -8 23 11 12 23 8 23 -8z m2486 -50 c1 -33 0 -49 -2 -35 -10 55
-15 70 -24 70 -11 0 -13 -74 -4 -144 l7 -46 42 0 c51 0 56 -10 53 -115 l-1
-70 -6 63 c-3 34 -10 62 -16 62 -5 0 -13 -28 -16 -62 -5 -59 -6 -60 -8 -18 -2
25 -2 55 -1 68 1 12 -3 22 -9 22 -12 0 -13 -8 -13 -105 l0 -70 -8 84 c-5 46
-11 86 -14 89 -3 2 -12 -1 -21 -8 -10 -8 -15 -9 -15 -1 0 6 -9 11 -21 11 -15
0 -20 5 -17 23 2 15 10 22 25 22 12 0 24 3 27 6 11 11 -9 182 -21 187 -10 3
-13 -16 -15 -70 l-2 -73 -5 68 c-3 37 -10 67 -16 67 -5 0 -13 -28 -16 -62 l-6
-63 -1 72 c-2 60 -5 71 -17 67 -14 -6 -21 7 -11 17 2 2 37 4 78 4 l73 0 1 -60z
m-431 45 c3 -5 -3 -10 -15 -10 -12 0 -18 5 -15 10 3 6 10 10 15 10 5 0 12 -4
15 -10z m505 1 c0 -5 -7 -11 -14 -14 -10 -4 -16 -25 -19 -59 -3 -50 -3 -50 -5
15 -2 61 0 67 18 67 11 0 20 -4 20 -9z m-2706 -15 c-3 -7 1 -16 9 -19 11 -4
12 -21 5 -87 -6 -55 -6 -86 1 -93 18 -18 22 -3 28 92 3 50 9 91 12 91 3 0 5
-38 3 -85 -3 -73 -1 -85 13 -85 12 0 16 8 14 28 -1 15 -1 53 -1 85 2 52 4 57
25 57 16 0 19 -2 8 -9 -10 -7 -14 -35 -15 -107 l-1 -98 -27 1 c-16 1 -56 1
-90 2 -59 1 -64 3 -80 30 -9 16 -14 32 -10 35 3 3 10 -4 16 -15 20 -40 31 -20
34 61 2 44 7 80 12 80 5 0 8 -36 7 -81 -3 -113 18 -118 27 -7 5 54 3 84 -4 86
-11 4 -14 35 -3 45 11 12 23 7 17 -7z m1105 -68 c-12 -21 -13 -21 -17 -4 -2
10 2 30 10 44 12 24 13 24 16 4 2 -11 -2 -31 -9 -44z m-772 38 c-9 -7 -28 -11
-42 -8 -26 5 -33 -6 -15 -24 8 -8 6 -15 -5 -24 -13 -11 -15 -9 -15 14 0 17 -5
26 -16 26 -14 0 -16 -7 -11 -45 4 -25 2 -47 -3 -50 -6 -4 -10 14 -10 44 0 38
-4 51 -14 51 -10 0 -16 -14 -18 -42 l-4 -43 -8 43 c-5 25 -14 42 -22 42 -8 0
-14 7 -14 15 0 12 18 15 108 15 91 -1 104 -3 89 -14z m2058 4 c3 -5 2 -10 -3
-10 -5 0 -24 -3 -41 -6 -19 -4 -31 -2 -31 4 0 6 12 13 28 15 15 2 30 5 34 6 4
0 10 -3 13 -9z m-2498 -47 c-3 -10 -5 -4 -5 12 0 17 2 24 5 18 2 -7 2 -21 0
-30z m2450 -9 c-3 -3 -12 -4 -19 -1 -8 3 -5 6 6 6 11 1 17 -2 13 -5z m-266
-13 c-7 -5 -10 -14 -7 -20 4 -6 0 -11 -8 -11 -9 0 -16 4 -16 8 0 12 22 32 35
32 5 0 4 -4 -4 -9z m-2171 -23 c0 -19 -2 -20 -10 -8 -13 19 -13 30 0 30 6 0
10 -10 10 -22z m242 -38 c1 -33 0 -60 -4 -60 -5 0 -9 12 -9 28 -1 15 -3 42 -5
60 -2 17 0 32 5 32 5 0 11 -27 13 -60z m2498 14 c0 -8 -5 -12 -10 -9 -6 4 -8
11 -5 16 9 14 15 11 15 -7z m-555 -24 c14 -5 23 -14 20 -20 -9 -14 -16 -12
-45 10 -27 21 -16 26 25 10z m-1892 -36 c-9 -23 -23 -16 -23 12 0 22 2 24 14
14 8 -6 12 -18 9 -26z m1867 -15 c0 -12 -17 -11 -25 1 -4 6 -11 7 -17 4 -6 -4
-8 -2 -5 4 8 12 47 4 47 -9z m452 12 c-11 -6 -12 -28 -7 -100 5 -59 4 -91 -2
-91 -6 0 -13 35 -16 78 -3 42 -9 87 -12 100 -6 19 -4 22 21 22 20 0 25 -3 16
-9z m-1357 -11 c3 -5 1 -10 -4 -10 -6 0 -11 5 -11 10 0 6 2 10 4 10 3 0 8 -4
11 -10z m940 -10 c3 -5 -1 -10 -10 -10 -9 0 -13 5 -10 10 3 6 8 10 10 10 2 0
7 -4 10 -10z m-2115 -39 c0 -10 7 -22 16 -25 14 -5 15 -15 10 -56 -4 -32 -3
-50 4 -50 5 0 10 12 11 28 0 15 4 36 8 47 7 16 9 14 14 -14 4 -19 7 -47 7 -63
0 -28 -2 -29 -32 -23 -22 4 -28 3 -19 -3 11 -8 12 -28 6 -96 -6 -74 -5 -86 9
-86 12 0 16 16 18 88 l3 87 5 -98 5 -97 -35 0 -35 0 4 96 c3 106 -2 117 -51
107 -28 -5 -28 -5 -27 48 0 46 2 51 11 32 17 -36 28 -27 28 21 0 24 3 51 6 60
9 22 34 20 34 -3z m57 -13 c-3 -7 -5 -2 -5 12 0 14 2 19 5 13 2 -7 2 -19 0
-25z m58 -88 c11 0 15 15 17 63 1 43 2 50 5 22 2 -22 8 -49 13 -60 14 -31 18
-293 4 -288 -13 5 -29 176 -19 193 4 6 -5 10 -19 10 -14 0 -26 5 -26 10 0 6 9
10 20 10 11 0 20 5 20 11 0 6 -9 9 -19 6 -18 -4 -20 2 -23 65 -2 38 -1 72 2
75 3 3 6 -23 8 -56 2 -45 7 -61 17 -61z m69 98 c-8 -27 -12 -33 -19 -27 -7 8
7 49 17 49 5 0 6 -10 2 -22z m1892 7 c15 -11 16 -14 3 -15 -8 0 -24 7 -35 15
-15 11 -16 14 -3 15 8 0 24 -7 35 -15z m493 -83 c-1 -79 -6 -72 -11 15 -2 34
-1 60 4 57 4 -3 8 -35 7 -72z m-194 46 c7 -7 2 -9 -15 -4 -14 3 -33 6 -42 6
-10 0 -18 5 -18 11 0 13 60 2 75 -13z m232 -65 c-2 -16 -4 -3 -4 27 0 30 2 43
4 28 2 -16 2 -40 0 -55z m-534 34 c-5 -8 -8 -8 -10 0 -3 7 -11 9 -19 6 -14 -5
-20 8 -8 20 11 11 45 -13 37 -26z m-23 -27 c8 -5 12 -12 9 -15 -8 -8 -39 5
-39 16 0 11 11 11 30 -1z m432 -25 c-2 -14 -9 -25 -14 -25 -6 0 -7 7 -4 16 3
9 6 20 6 25 0 5 4 9 9 9 4 0 6 -11 3 -25z m-437 -25 c3 -6 -1 -7 -9 -4 -18 7
-21 14 -7 14 6 0 13 -4 16 -10z m663 -30 c18 0 10 -25 -8 -25 -9 0 -14 -21
-17 -74 -3 -64 -1 -77 17 -96 14 -15 17 -24 9 -27 -6 -2 -14 -26 -16 -54 -4
-38 -1 -53 11 -63 13 -11 16 -35 16 -132 0 -73 -4 -119 -10 -119 -5 0 -10 21
-10 46 l0 45 -82 -1 c-46 -1 -89 -1 -95 -1 -8 1 -13 15 -13 36 0 28 4 35 19
35 11 0 23 5 26 10 4 6 -5 10 -20 10 -44 0 -23 25 23 28 58 4 53 21 -5 19 -42
-2 -48 1 -51 20 -4 26 13 32 96 34 34 1 65 5 68 10 2 4 -34 5 -82 2 -61 -4
-85 -3 -81 4 4 7 24 9 47 6 26 -4 40 -2 40 6 0 6 -19 11 -47 12 -27 0 -43 3
-36 5 7 3 9 12 6 20 -4 10 3 14 28 13 32 -1 32 -2 9 -9 -22 -7 -21 -8 13 -9
26 -1 37 3 37 14 0 18 -41 29 -75 21 -16 -4 -25 -2 -25 5 0 9 23 10 85 6 l85
-6 0 89 c0 75 -3 90 -16 90 -13 0 -15 -13 -14 -77 1 -43 1 -82 -1 -88 -3 -18
-18 79 -18 128 -1 52 -5 55 -38 29 -17 -13 -23 -30 -26 -77 l-3 -60 -2 73 c-2
56 -5 72 -17 72 -11 0 -15 -14 -17 -57 l-1 -58 -6 54 c-4 33 -11 56 -20 59
-11 4 -13 -11 -10 -74 2 -44 0 -79 -4 -79 -5 0 -9 42 -10 92 -2 75 1 93 13 97
8 3 60 3 115 1 55 -3 106 -5 113 -5z m-2908 -87 l-4 -88 -6 80 c-6 80 -5 95 8
95 4 0 5 -39 2 -87z m126 41 c-3 -26 -6 -55 -6 -65 0 -11 -6 -18 -12 -16 -8 1
-14 -11 -16 -30 -2 -18 -8 -33 -13 -33 -6 0 -9 17 -7 38 2 25 8 37 18 37 12 0
14 12 12 58 -3 49 -1 57 13 57 15 0 17 -7 11 -46z m44 -19 c0 -37 -4 -65 -10
-65 -11 0 -14 88 -4 114 11 28 14 17 14 -49z m134 -32 c5 -64 4 -93 -3 -93 -7
0 -11 34 -11 97 0 53 2 94 4 92 2 -2 7 -46 10 -96z m1936 93 c0 -3 -4 -8 -10
-11 -5 -3 -10 -1 -10 4 0 6 5 11 10 11 6 0 10 -2 10 -4z m-2197 -169 c-8 -17
-10 1 -10 73 l-1 95 11 -73 c6 -49 7 -80 0 -95z m34 121 c-3 -8 -6 -5 -6 6 -1
11 2 17 5 13 3 -3 4 -12 1 -19z m2193 -18 c0 -11 -3 -20 -7 -20 -9 0 -33 -48
-33 -64 0 -15 -53 -120 -62 -124 -5 -2 -8 -8 -8 -14 0 -15 -54 -128 -61 -128
-11 0 -19 31 -12 43 4 7 8 26 9 42 2 55 5 61 14 38 13 -31 30 -29 30 3 0 42
21 106 47 141 13 17 23 36 23 42 0 6 6 11 14 11 8 0 17 11 20 25 8 30 26 33
26 5z m180 -21 c13 -9 13 -10 -1 -6 -9 3 -22 0 -28 -6 -8 -8 -11 -8 -11 0 0 6
-3 19 -7 28 -5 15 -3 16 13 6 10 -5 26 -15 34 -22z m194 -11 c4 -22 3 -38 -2
-38 -11 0 -22 60 -15 73 7 12 9 7 17 -35z m156 -17 c0 -38 4 -61 13 -64 7 -3
5 -6 -5 -6 -15 -1 -18 7 -18 42 0 23 -3 52 -6 65 -4 13 -2 22 5 22 7 0 11 -22
11 -59z m-386 -22 c38 -22 44 -29 24 -29 -14 0 -78 49 -66 50 4 0 23 -9 42
-21z m-24 -39 c14 -11 33 -20 42 -20 21 0 33 -19 20 -32 -10 -10 -112 46 -112
63 0 15 23 10 50 -11z m111 0 c6 0 8 -4 5 -9 -8 -12 -46 -2 -46 11 0 6 7 7 16
4 9 -3 20 -6 25 -6z m34 -22 c-4 -18 -16 -42 -26 -54 -10 -11 -19 -24 -19 -28
0 -11 -83 -126 -92 -126 -4 0 -5 -6 -2 -14 6 -15 -44 -79 -56 -71 -5 3 -11
-13 -15 -35 -4 -22 -11 -40 -16 -40 -5 0 -9 5 -9 10 0 6 -10 10 -22 10 -13 1
-36 7 -53 15 -29 14 -28 15 30 9 56 -6 58 -5 45 12 -9 11 -10 15 -2 10 7 -4
12 -2 12 8 0 15 -52 46 -76 46 -7 0 -15 4 -19 9 -12 21 14 19 63 -4 l52 -24
15 29 c21 41 19 48 -22 65 -20 8 -33 18 -30 21 3 3 20 -1 38 -10 18 -9 39 -16
46 -16 21 0 10 23 -18 37 -21 11 -22 13 -4 13 11 0 26 -4 34 -9 9 -6 20 -2 34
12 l20 20 -33 29 c-35 28 -21 40 14 13 30 -23 47 -19 40 9 -6 27 14 46 27 25
7 -11 9 -11 9 -1 0 13 29 62 37 62 2 0 1 -15 -2 -32z m-2525 -30 c0 -16 -3
-17 -20 -8 -11 6 -20 17 -20 24 0 9 7 12 20 9 11 -3 20 -14 20 -25z m332 -56
c1 -46 -2 -76 -10 -84 -9 -9 -12 9 -12 82 0 111 18 113 22 2z m-212 -14 c0
-88 -1 -91 -17 -74 -13 13 -15 20 -5 23 8 3 12 28 12 74 0 38 2 69 5 69 3 0 5
-41 5 -92z m62 67 c-2 -14 -6 -25 -8 -25 -2 0 -4 11 -4 25 0 14 4 25 9 25 4 0
6 -11 3 -25z m50 -142 c3 -55 0 -73 -9 -73 -10 0 -13 29 -12 123 1 98 3 112 9
72 5 -27 10 -83 12 -122z m50 61 c3 -90 -3 -128 -16 -113 -2 2 -6 52 -8 112
-4 82 -2 107 8 107 9 0 14 -29 16 -106z m1988 101 c0 -7 -39 -85 -43 -85 -1 0
-3 11 -3 25 -1 15 3 25 12 25 17 0 18 12 2 28 -9 9 -7 12 10 12 12 0 22 -2 22
-5z m50 -5 c0 -5 -2 -10 -4 -10 -3 0 -8 5 -11 10 -3 6 -1 10 4 10 6 0 11 -4
11 -10z m-2233 -22 c-3 -8 -6 -5 -6 6 -1 11 2 17 5 13 3 -3 4 -12 1 -19z
m2588 12 c4 -6 -5 -10 -20 -10 -22 0 -25 -3 -20 -20 3 -11 2 -20 -4 -20 -5 0
-16 -3 -25 -6 -12 -5 -16 1 -16 24 0 17 6 33 13 35 22 9 66 7 72 -3z m-113
-107 c2 -68 7 -106 13 -103 6 3 11 28 11 55 2 80 3 87 15 80 6 -4 8 -13 5 -21
-3 -8 -1 -14 4 -14 6 0 10 6 10 14 0 9 8 12 25 8 30 -5 34 -22 5 -22 -11 0
-20 -5 -20 -11 0 -6 9 -8 20 -4 11 4 20 2 20 -4 0 -6 -13 -11 -29 -11 -21 0
-30 -6 -34 -22 -9 -31 1 -41 34 -34 24 5 29 2 29 -14 0 -23 -10 -26 -28 -8 -9
9 -12 7 -12 -10 0 -17 6 -22 25 -22 14 0 25 -4 25 -9 0 -5 -8 -8 -17 -7 -16 1
-18 -8 -18 -67 0 -87 -20 -89 -22 -1 -2 69 -5 80 -22 69 -14 -8 -14 -90 -1
-116 8 -15 7 -19 -4 -19 -21 0 -30 29 -27 89 2 41 0 52 -11 49 -8 -3 -14 -25
-16 -63 -2 -33 -8 -65 -14 -72 -6 -8 -34 -13 -70 -13 -53 0 -59 2 -54 17 4 9
10 37 13 60 7 50 19 49 15 -1 -3 -25 1 -35 15 -40 10 -3 24 -9 32 -12 11 -6
13 2 8 41 -4 26 -4 58 -1 71 6 22 11 24 65 24 33 0 59 4 59 10 0 6 -40 10
-101 10 -99 0 -100 0 -94 23 11 33 25 45 25 19 0 -42 20 -22 21 21 l1 42 9
-33 c14 -46 29 -30 29 29 0 27 4 49 8 49 4 0 6 -29 4 -65 -3 -38 0 -65 5 -65
11 0 23 92 23 166 0 24 4 44 10 44 5 0 11 -47 12 -107z m-2515 71 c1 -24 -1
-25 -14 -11 -9 8 -12 20 -9 26 12 19 21 12 23 -15z m354 -31 c7 -18 6 -30 -1
-37 -5 -5 -10 -25 -10 -44 0 -97 -41 -160 -118 -182 -47 -13 -109 -13 -117 0
-3 5 -11 10 -17 10 -7 0 -6 -6 2 -15 8 -10 31 -15 66 -15 96 0 180 57 211 142
l11 33 1 -38 c1 -54 -22 -88 -84 -125 -67 -40 -162 -54 -188 -28 -9 9 -31 19
-48 21 -18 2 -46 17 -63 34 -17 17 -46 35 -64 42 -17 6 -32 17 -32 24 0 21 33
22 55 2 11 -10 41 -34 67 -52 37 -27 49 -31 57 -21 6 7 33 14 61 15 28 1 68 9
90 17 42 17 105 85 98 106 -3 7 -20 -9 -39 -34 -19 -25 -49 -53 -67 -62 -38
-18 -93 -21 -109 -5 -8 8 -17 8 -33 -1 -19 -10 -28 -8 -64 17 -22 16 -41 33
-41 38 -2 30 -19 55 -45 64 -30 10 -41 31 -17 31 18 0 57 -29 57 -43 0 -15 89
-111 96 -104 11 10 -6 44 -41 83 -37 41 -51 71 -40 82 4 4 16 -4 26 -18 81
-103 89 -110 133 -110 84 0 148 52 174 142 9 32 18 58 20 58 1 0 7 -12 13 -27z
m1982 1 c9 -4 17 -10 17 -15 0 -14 -13 -10 -40 12 -14 11 -18 18 -10 15 8 -3
23 -9 33 -12z m287 -4 c0 -12 -8 -12 -35 0 -18 8 -17 9 8 9 15 1 27 -3 27 -9z
m-2517 -57 c-6 -51 -16 -72 -27 -54 -4 6 -2 11 3 11 6 0 11 22 11 51 0 27 4
48 9 45 5 -3 6 -27 4 -53z m-143 27 c0 -5 -5 -10 -11 -10 -5 0 -7 5 -4 10 3 6
8 10 11 10 2 0 4 -4 4 -10z m166 -108 c-11 -10 -12 3 -7 58 l6 55 3 -54 c2
-29 1 -56 -2 -59z m1884 99 c0 -6 -4 -13 -10 -16 -5 -3 -10 1 -10 9 0 9 5 16
10 16 6 0 10 -4 10 -9z m132 -43 c-6 -6 -15 -8 -19 -4 -4 4 -1 11 7 16 19 12
27 3 12 -12z m478 -13 c0 -8 -7 -15 -15 -15 -8 0 -18 -1 -22 -2 -3 -2 -7 5 -9
15 -2 12 5 17 22 17 15 0 24 -6 24 -15z m-2700 -30 c0 -8 -4 -15 -10 -15 -5 0
-10 7 -10 15 0 8 5 15 10 15 6 0 10 -7 10 -15z m2210 5 c0 -5 -7 -7 -15 -4 -8
4 -15 8 -15 10 0 2 7 4 15 4 8 0 15 -4 15 -10z m-180 -24 c0 -3 -4 -8 -10 -11
-5 -3 -10 -1 -10 4 0 6 5 11 10 11 6 0 10 -2 10 -4z m90 0 c0 -3 -4 -8 -10
-11 -5 -3 -10 -1 -10 4 0 6 5 11 10 11 6 0 10 -2 10 -4z m80 -12 c0 -3 -7 -12
-15 -21 -18 -18 -16 -116 4 -136 19 -19 12 -27 -26 -27 -34 1 -36 2 -21 14 10
7 16 15 13 17 -6 7 -13 132 -7 147 4 12 52 18 52 6z m-106 -78 c-5 -41 -3 -59
11 -80 17 -26 17 -26 -8 -26 -26 0 -26 0 -21 68 6 72 10 92 19 92 3 0 2 -24
-1 -54z m406 4 c0 -27 -4 -50 -10 -50 -5 0 -10 23 -10 50 0 28 5 50 10 50 6 0
10 -22 10 -50z m-83 -35 c-2 -80 -13 -93 -41 -50 -19 30 -23 66 -4 47 20 -20
30 -13 27 21 -3 29 5 57 16 57 3 0 4 -34 2 -75z m-2396 27 c125 -84 137 -105
54 -97 -54 5 -91 20 -99 41 -11 30 3 28 48 -4 29 -21 47 -28 51 -21 8 13 -20
41 -63 63 -18 9 -32 21 -32 26 0 14 12 12 41 -8z m459 7 c0 -17 -57 -69 -75
-69 -8 0 -15 -5 -15 -11 0 -6 7 -8 16 -5 9 3 19 6 23 6 4 0 18 10 31 22 l23
22 18 -23 c29 -35 24 -41 -33 -42 -29 0 -77 -3 -105 -5 -53 -4 -72 9 -32 21
26 9 102 59 119 80 15 18 30 20 30 4z m2306 -30 c-4 -27 -2 -46 5 -56 11 -12
5 -14 -37 -11 l-49 3 -2 40 c-1 22 1 32 4 23 5 -21 19 -23 26 -5 3 6 6 0 6
-14 1 -15 8 -29 16 -33 12 -4 15 4 15 44 0 31 4 50 11 50 8 0 9 -13 5 -41z
m60 -49 c8 0 14 10 14 23 0 34 11 67 23 67 6 0 7 -17 4 -45 -7 -45 -6 -45 23
-45 17 0 30 -4 30 -9 0 -5 -30 -9 -66 -10 -56 -1 -65 2 -60 15 3 9 7 34 8 57
l2 42 3 -47 c3 -34 8 -48 19 -48z m-512 15 c3 -9 0 -15 -9 -15 -8 0 -15 7 -15
15 0 8 4 15 9 15 5 0 11 -7 15 -15z m-404 -30 c0 -11 -12 -15 -40 -15 -46 0
-49 5 -18 30 25 20 58 11 58 -15z m83 8 c-7 -2 -19 -2 -25 0 -7 3 -2 5 12 5
14 0 19 -2 13 -5z m277 -9 c0 -11 -5 -14 -16 -10 -9 3 -22 6 -30 6 -25 0 -7
15 20 18 18 1 26 -3 26 -14z"/>
<g>
<path d="M1807 4455 c-21 -7 -42 -17 -45 -21 -4 -4 2 -3 13 1 39 17 124 17
172 1 26 -9 56 -16 67 -15 28 1 -112 48 -144 48 -14 0 -42 -6 -63 -14z"/>
</g>
<g>
<path d="M1040 4414 c-25 -7 -57 -16 -72 -19 -16 -3 -28 -10 -28 -15 0 -11 46
-4 104 17 21 7 49 13 62 13 13 0 24 5 24 10 0 13 -35 11 -90 -6z"/>
</g>
<g>
<path d="M1165 4410 c-4 -6 5 -10 20 -10 14 0 44 -9 68 -19 23 -11 53 -22 66
-26 12 -4 41 -24 62 -45 l39 -38 0 -85 c0 -54 4 -88 12 -93 8 -5 10 18 5 94
-6 101 -6 101 -45 142 -24 24 -53 43 -73 47 -19 3 -50 14 -69 25 -38 20 -75
24 -85 8z"/>
</g>
<g>
<path d="M1700 4406 c-14 -8 -46 -24 -72 -37 -42 -21 -47 -27 -54 -69 -7 -49
-6 -261 2 -269 15 -15 24 37 24 140 0 101 3 120 20 142 11 14 20 29 20 35 0 5
18 17 40 27 38 17 72 45 54 45 -5 0 -20 -7 -34 -14z"/>
</g>
<g>
<path d="M1735 4344 c-42 -21 -93 -64 -76 -64 7 0 26 11 43 25 16 14 39 27 51
29 12 3 40 9 62 14 l40 10 -45 1 c-25 0 -58 -6 -75 -15z"/>
</g>
<g>
<path d="M1080 4332 c0 -5 28 -8 63 -8 47 1 71 -4 100 -21 43 -26 47 -27 47
-13 0 22 -79 50 -145 50 -36 0 -65 -4 -65 -8z"/>
</g>
<g>
<path d="M1890 4330 c0 -5 7 -10 15 -10 8 0 15 5 15 10 0 6 -7 10 -15 10 -8 0
-15 -4 -15 -10z"/>
</g>
<g>
<path d="M1000 4300 c-12 -8 -9 -10 13 -10 15 0 27 5 27 10 0 13 -20 13 -40 0z"/>
</g>
<g>
<path d="M1795 4299 c-45 -8 -143 -40 -163 -52 -17 -12 -5 -27 21 -27 18 0 19
2 7 10 -12 7 -11 10 5 15 11 4 31 11 44 16 13 5 24 8 25 7 0 -2 6 -13 13 -25
10 -17 10 -23 0 -26 -7 -3 -2 -6 11 -6 19 -1 21 2 12 18 -5 11 -10 29 -10 41
0 19 5 21 63 18 60 -3 62 -4 62 -30 -1 -38 14 -35 22 3 5 25 9 30 27 25 12 -4
35 -9 51 -11 23 -4 20 -1 -10 9 -54 18 -131 24 -180 15z"/>
</g>
<g>
<path d="M1013 4271 c-35 -9 -63 -20 -63 -25 0 -4 10 -5 23 -2 12 4 38 10 58
13 33 5 37 3 41 -22 5 -25 4 -26 -21 -20 -67 16 -81 14 -28 -6 32 -11 61 -18
65 -15 3 4 5 22 4 40 -2 26 2 35 18 39 21 5 37 -8 21 -18 -12 -7 -3 -35 10
-35 5 0 9 11 9 25 0 29 29 35 50 10 10 -12 9 -20 -5 -41 -22 -33 -15 -39 32
-25 34 10 35 10 6 6 -18 -2 -33 0 -33 5 0 6 4 10 10 10 5 0 12 11 16 24 5 23
6 23 49 7 28 -10 40 -18 32 -23 -9 -6 -8 -8 3 -8 23 0 43 17 36 29 -4 6 -17
11 -29 11 -12 0 -46 9 -75 20 -62 24 -139 24 -229 1z"/>
</g>
<g>
<path d="M1800 4255 c0 -8 7 -15 15 -15 9 0 12 6 9 15 -4 8 -10 15 -15 15 -5
0 -9 -7 -9 -15z"/>
</g>
<g>
<path d="M1688 4223 c6 -2 18 -2 25 0 6 3 1 5 -13 5 -14 0 -19 -2 -12 -5z"/>
</g>
<g>
<path d="M1104 4189 c-3 -5 9 -9 25 -9 17 0 31 2 31 4 0 8 -51 13 -56 5z"/>
</g>
<g>
<path d="M1377 3992 c-24 -26 -22 -69 4 -82 29 -16 38 -2 11 18 -20 16 -21 19
-7 46 18 35 14 43 -8 18z"/>
</g>
<g>
<path d="M1610 4003 c0 -3 8 -15 17 -25 14 -16 15 -23 5 -39 -7 -11 -8 -19 -2
-19 5 0 14 9 20 21 9 16 8 26 -5 45 -14 22 -35 33 -35 17z"/>
</g>
<g>
<path d="M1561 3961 c-15 -28 -14 -30 17 -27 19 2 27 9 27 22 0 26 -31 30 -44
5z"/>
</g>
<g>
<path d="M1411 3961 c-10 -6 -5 -14 20 -33 19 -14 42 -28 52 -31 9 -4 17 -16
17 -27 0 -28 17 -25 22 4 4 19 0 26 -15 28 -11 2 -28 17 -37 33 -18 32 -37 40
-59 26z"/>
</g>
<g>
<path d="M1550 3808 c-20 -22 -21 -22 -55 -4 l-35 19 -56 -27 c-42 -21 -59
-25 -69 -16 -10 8 -17 6 -29 -11 -18 -26 -11 -43 7 -18 9 12 37 16 117 20 148
6 260 4 298 -4 17 -3 32 -3 32 1 0 15 -59 39 -84 35 -15 -3 -36 2 -51 11 -33
22 -50 20 -75 -6z"/>
</g>
<g>
<path d="M1430 3723 c0 -5 7 -17 15 -27 8 -10 12 -23 9 -27 -3 -5 27 -8 66 -8
59 1 70 3 70 18 0 9 5 22 12 29 17 17 -3 15 -41 -4 -35 -17 -82 -12 -102 12
-12 15 -29 19 -29 7z"/>
</g>
<g>
<path d="M2817 4576 c-13 -37 -13 -44 -1 -39 13 5 31 69 21 79 -2 3 -12 -15
-20 -40z"/>
</g>
<g>
<path d="M2745 3991 c-3 -5 -1 -12 5 -16 5 -3 10 1 10 9 0 18 -6 21 -15 7z"/>
</g>
<g>
<path d="M2757 3753 c-12 -12 -7 -22 8 -17 8 4 15 10 15 15 0 11 -14 12 -23 2z"/>
</g>
<g>
<path d="M2518 3700 c-24 -26 -35 -45 -31 -56 5 -13 10 -12 29 10 13 14 24 30
24 36 0 9 14 14 33 11 9 -1 9 3 1 23 -9 23 -14 20 -56 -24z"/>
</g>
<g>
<path d="M2727 3683 c-6 -10 0 -63 7 -71 11 -10 29 16 20 30 -5 7 -7 21 -6 31
3 17 -13 24 -21 10z"/>
</g>
<g>
<path d="M2526 3631 c-9 -9 -16 -26 -16 -36 0 -15 2 -15 16 -5 22 19 36 48 25
54 -4 3 -16 -3 -25 -13z"/>
</g>
<g>
<path d="M2776 3621 c-4 -7 -5 -15 -2 -18 9 -9 19 4 14 18 -4 11 -6 11 -12 0z"/>
</g>
<g>
<path d="M2370 3601 c0 -5 5 -13 10 -16 6 -3 10 -2 10 4 0 5 -4 13 -10 16 -5
3 -10 2 -10 -4z"/>
</g>
<g>
<path d="M2723 3583 c-7 -2 -13 -16 -13 -31 l0 -25 25 23 c31 29 24 48 -12 33z"/>
</g>
<g>
<path d="M2430 3559 c-7 -11 -9 -23 -6 -26 7 -7 24 5 36 28 8 15 7 19 -4 19
-9 0 -20 -9 -26 -21z"/>
</g>
<g>
<path d="M435 3769 c-142 -64 -216 -101 -185 -93 14 4 52 20 86 35 34 16 64
29 67 29 10 0 157 70 157 75 0 9 -12 4 -125 -46z"/>
</g>
<g>
<path d="M131 3639 c-46 -18 -92 -42 -88 -45 4 -4 115 40 124 50 9 9 -8 7 -36
-5z"/>
</g>
<g>
<path d="M2139 3681 c33 -25 81 -53 81 -47 0 6 -89 66 -98 66 -4 0 4 -9 17
-19z"/>
</g>
<g>
<path d="M858 2883 c23 -9 14 -53 -14 -64 -15 -5 -24 -12 -22 -15 10 -9 56 7
62 22 8 20 -11 64 -26 63 -10 0 -10 -2 0 -6z"/>
</g>
<g>
<path d="M778 2703 c7 -3 16 -2 19 1 4 3 -2 6 -13 5 -11 0 -14 -3 -6 -6z"/>
</g>
<g>
<path d="M685 2690 c-3 -5 -3 -10 1 -10 3 0 -1 -11 -10 -25 -18 -27 -13 -33 8
-12 18 18 30 57 17 57 -5 0 -13 -4 -16 -10z"/>
</g>
<g>
<path d="M790 2670 c0 -5 5 -10 10 -10 6 0 10 5 10 10 0 6 -4 10 -10 10 -5 0
-10 -4 -10 -10z"/>
</g>
<g>
<path d="M706 2645 c-4 -12 -1 -16 11 -13 18 3 21 20 5 26 -5 1 -12 -4 -16
-13z"/>
</g>
<g>
<path d="M1230 3193 c0 -10 12 -36 25 -58 14 -22 25 -50 25 -63 0 -13 4 -20
10 -17 19 11 10 63 -15 93 -14 17 -25 37 -25 46 0 9 -4 16 -10 16 -5 0 -10 -8
-10 -17z"/>
</g>
<g>
<path d="M1211 2989 c-29 -28 -44 -68 -21 -54 6 3 10 13 10 21 0 8 3 14 8 14
4 0 21 11 37 25 22 18 25 24 13 25 -9 0 -30 -14 -47 -31z"/>
</g>
<g>
<path d="M1207 2943 c-11 -11 -8 -43 4 -43 6 0 9 7 5 15 -3 8 2 19 12 24 15 9
15 10 1 11 -9 0 -19 -3 -22 -7z"/>
</g>
<g>
<path d="M1170 2902 c0 -5 7 -15 15 -22 8 -7 15 -8 15 -2 0 5 -7 15 -15 22 -8
7 -15 8 -15 2z"/>
</g>
<g>
<path d="M1040 2748 c0 -10 4 -18 10 -18 5 0 7 -7 3 -16 -5 -14 -3 -15 15 -5
27 14 39 14 25 0 -6 -6 -9 -18 -6 -26 5 -12 1 -14 -18 -8 -21 7 -22 6 -11 -8
11 -13 18 -14 32 -5 10 6 16 17 13 25 -3 7 3 16 12 19 13 5 14 9 3 15 -7 5
-23 9 -35 9 -12 0 -27 8 -32 18 -10 16 -10 16 -11 0z"/>
</g>
<g>
<path d="M1217 2704 c-13 -14 -7 -25 11 -22 11 2 26 -3 34 -10 12 -10 18 -10
27 2 7 8 8 16 4 19 -17 10 -69 17 -76 11z"/>
</g>
<g>
<path d="M1297 2653 c-12 -11 -8 -20 11 -27 9 -3 23 -9 30 -12 7 -3 12 1 12
10 0 10 -6 13 -15 10 -9 -4 -15 0 -15 10 0 16 -12 21 -23 9z"/>
</g>
<g>
<path d="M1120 2640 c0 -5 5 -10 10 -10 6 0 10 5 10 10 0 6 -4 10 -10 10 -5 0
-10 -4 -10 -10z"/>
</g>
<g>
<path d="M1285 2610 c-3 -5 -1 -10 4 -10 6 0 11 5 11 10 0 6 -2 10 -4 10 -3 0
-8 -4 -11 -10z"/>
</g>
<g>
<path d="M2250 3230 c0 -5 7 -10 15 -10 8 0 15 5 15 10 0 6 -7 10 -15 10 -8 0
-15 -4 -15 -10z"/>
</g>
<g>
<path d="M2050 2785 c-11 -13 -8 -15 18 -15 17 0 34 5 37 10 3 6 2 10 -4 10
-5 0 -16 2 -24 5 -7 3 -20 -1 -27 -10z"/>
</g>
<g>
<path d="M2521 2714 c0 -11 3 -14 6 -6 3 7 2 16 -1 19 -3 4 -6 -2 -5 -13z"/>
</g>
<g>
<path d="M2312 2623 c-10 -4 -10 -8 -1 -19 9 -11 15 -11 25 -3 23 19 6 34 -24
22z"/>
</g>
<g>
<path d="M236 2781 c-4 -5 -1 -22 4 -37 8 -21 13 -25 23 -15 9 9 9 14 -2 20
-9 6 -10 11 -2 15 6 4 11 11 11 17 0 12 -27 12 -34 0z"/>
</g>
<g>
<path d="M310 2715 c0 -8 5 -15 10 -15 6 0 10 7 10 15 0 8 -4 15 -10 15 -5 0
-10 -7 -10 -15z"/>
</g>
<g>
<path d="M535 2600 c-3 -5 1 -10 9 -10 8 0 18 5 21 10 3 6 -1 10 -9 10 -8 0
-18 -4 -21 -10z"/>
</g>
<g>
<path d="M1101 2492 c-12 -22 3 -42 30 -42 25 0 32 16 17 40 -16 25 -34 26
-47 2z"/>
</g>
<g>
<path d="M1185 2502 c-5 -4 -11 -28 -13 -54 -2 -38 0 -48 12 -48 17 0 18 4 21
68 1 42 -2 48 -20 34z m7 -74 c-7 -7 -12 -8 -12 -2 0 14 12 26 19 19 2 -3 -1
-11 -7 -17z"/>
</g>
<g>
<path d="M1295 2370 c-3 -5 -1 -10 4 -10 6 0 11 5 11 10 0 6 -2 10 -4 10 -3 0
-8 -4 -11 -10z"/>
</g>
<g>
<path d="M1164 2318 c-9 -14 23 -38 41 -32 8 3 13 14 12 25 -1 21 -41 27 -53
7z"/>
</g>
<g>
<path d="M1060 2270 c-19 -26 -18 -32 8 -41 12 -5 22 -5 23 -1 0 4 2 17 5 29
5 27 -19 36 -36 13z"/>
</g>
<g>
<path d="M1161 2211 c-10 -7 -11 -10 -1 -16 10 -6 9 -11 -5 -21 -21 -16 -20
-19 16 -27 18 -5 31 -2 39 8 7 8 9 15 4 15 -5 0 2 9 16 20 27 21 12 27 -22 9
-18 -10 -20 -9 -15 5 7 17 -9 21 -32 7z m49 -45 c0 -3 -4 -8 -10 -11 -5 -3
-10 -1 -10 4 0 6 5 11 10 11 6 0 10 -2 10 -4z"/>
</g>
<g>
<path d="M196 2404 c-6 -16 28 -74 45 -74 13 0 11 12 -5 33 -8 10 -12 27 -9
37 7 25 -22 28 -31 4z"/>
</g>
<g>
<path d="M2820 2366 c0 -17 14 -29 23 -20 8 8 -3 34 -14 34 -5 0 -9 -6 -9 -14z"/>
</g>
<g>
<path d="M2664 2356 c-8 -22 3 -33 18 -18 9 9 9 15 0 24 -9 9 -13 7 -18 -6z"/>
</g>
<g>
<path d="M2715 2350 c-8 -12 35 -61 48 -53 4 2 3 11 -3 18 -6 7 -9 19 -8 26 4
16 -28 24 -37 9z"/>
</g>
<g>
<path d="M2832 2306 c1 -10 8 -17 13 -17 15 1 12 24 -3 29 -9 3 -13 -2 -10
-12z"/>
</g>
<g>
<path d="M2682 2238 c-7 -7 -12 -16 -12 -20 0 -12 28 -10 36 3 10 17 -10 31
-24 17z"/>
</g>
<g>
<path d="M983 2434 c-17 -13 -17 -15 2 -29 24 -19 36 -15 46 12 10 27 -21 38
-48 17z"/>
</g>
<g>
<path d="M640 2220 c0 -5 5 -10 10 -10 6 0 10 5 10 10 0 6 -4 10 -10 10 -5 0
-10 -4 -10 -10z"/>
</g>
<g>
<path d="M111 2069 c-24 -20 -38 -73 -22 -83 7 -5 11 3 11 22 0 16 8 36 18 45
20 18 37 23 27 8 -3 -5 -1 -12 5 -16 5 -3 10 -2 10 4 0 5 2 16 5 23 8 20 -29
17 -54 -3z"/>
</g>
<g>
<path d="M1415 1930 c-3 -5 1 -10 10 -10 9 0 13 5 10 10 -3 6 -8 10 -10 10 -2
0 -7 -4 -10 -10z"/>
</g>
<g>
<path d="M510 1851 c0 -28 5 -53 10 -56 6 -4 10 15 10 49 0 31 -4 56 -10 56
-5 0 -10 -22 -10 -49z"/>
</g>
<g>
<path d="M572 1811 c1 -49 6 -93 11 -97 17 -17 23 16 19 99 -3 69 -7 87 -19
87 -12 0 -14 -15 -11 -89z"/>
</g>
<g>
<path d="M465 1877 c-9 -22 3 -73 15 -61 5 5 5 25 1 44 -6 28 -10 31 -16 17z"/>
</g>
<g>
<path d="M650 1852 c0 -45 8 -72 20 -72 5 0 7 23 6 52 -3 62 -26 80 -26 20z"/>
</g>
<g>
<path d="M380 1870 c0 -5 7 -10 15 -10 8 0 15 5 15 10 0 6 -7 10 -15 10 -8 0
-15 -4 -15 -10z"/>
</g>
<g>
<path d="M1135 1859 c-10 -15 3 -25 16 -12 7 7 7 13 1 17 -6 3 -14 1 -17 -5z"/>
</g>
<g>
<path d="M2071 1777 c-7 -20 -26 -47 -42 -61 -16 -14 -29 -32 -29 -41 0 -9 -6
-15 -12 -12 -7 2 -12 12 -12 21 2 21 -19 20 -39 -2 -22 -24 -21 -32 2 -32 11
0 22 -6 24 -12 4 -9 8 -10 14 -2 4 6 17 16 28 22 11 6 38 35 59 66 29 42 35
59 28 72 -8 14 -11 11 -21 -19z"/>
</g>
<g>
<path d="M470 1755 c0 -25 4 -35 13 -32 6 2 12 16 12 32 0 16 -6 30 -12 33 -9
2 -13 -8 -13 -33z"/>
</g>
<g>
<path d="M1900 1614 c-7 -8 -25 -14 -39 -13 -46 3 -61 -1 -61 -16 0 -8 7 -15
15 -15 8 0 15 4 15 9 0 6 15 7 33 4 24 -4 37 0 50 15 10 11 14 23 9 26 -5 3
-15 -1 -22 -10z"/>
</g>
<g>
<path d="M1325 1610 c-8 -12 20 -24 35 -15 6 3 8 11 5 16 -8 12 -32 12 -40 -1z"/>
</g>
<g>
<path d="M1927 1568 c-2 -7 5 -23 16 -35 18 -21 19 -23 3 -29 -11 -4 -27 3
-45 20 -34 32 -54 33 -74 3 -14 -21 -14 -27 0 -54 13 -28 63 -53 63 -32 0 5 6
9 14 9 8 0 17 8 19 18 4 16 5 16 6 -1 0 -10 -10 -30 -24 -45 l-24 -26 -31 22
c-31 24 -39 19 -17 -10 18 -23 64 -33 82 -18 12 10 18 8 34 -11 11 -13 22 -21
26 -17 10 10 -14 48 -30 48 -19 0 -18 10 1 35 15 19 16 19 29 1 15 -20 36
-104 34 -139 -1 -18 -2 -19 -6 -4 -3 10 -10 16 -16 14 -15 -5 -20 -124 -6
-133 6 -4 4 -13 -7 -25 -9 -10 -12 -19 -6 -19 15 0 43 41 35 52 -3 5 5 17 17
25 21 15 22 21 17 102 -3 48 -12 99 -21 116 -9 17 -16 36 -16 44 0 16 -52 100
-62 101 -3 0 -8 -6 -11 -12z m-42 -58 c10 -11 14 -20 8 -20 -5 0 -18 9 -28 20
-10 11 -14 20 -8 20 5 0 18 -9 28 -20z m-25 -53 c0 -5 -4 -5 -10 -2 -5 3 -10
14 -10 23 0 15 2 15 10 2 5 -8 10 -19 10 -23z"/>
</g>
<g>
<path d="M1182 1214 c-23 -24 -39 -44 -34 -44 11 0 87 78 81 84 -2 2 -23 -16
-47 -40z"/>
</g>
<g>
<path d="M1983 1133 c-7 -2 -13 -9 -13 -15 0 -6 8 -7 17 -4 14 6 12 2 -5 -17
-26 -27 -28 -37 -7 -37 9 0 19 8 22 18 4 9 10 20 15 23 9 6 0 40 -11 38 -3 0
-12 -3 -18 -6z"/>
</g>
<g>
<path d="M2010 1033 c0 -22 17 -49 25 -41 8 8 -5 58 -16 58 -5 0 -9 -8 -9 -17z"/>
</g>
<g>
<path d="M1244 987 c-9 -24 66 -154 79 -136 2 2 -14 37 -35 78 -26 53 -39 70
-44 58z"/>
</g>
<g>
<path d="M1940 930 c0 -13 10 -24 25 -30 29 -11 31 -22 8 -45 -15 -15 -14 -18
10 -40 l25 -24 7 69 c4 38 4 74 0 79 -3 6 -22 11 -41 11 -27 0 -34 -4 -34 -20z"/>
</g>
<g>
<path d="M1395 741 c-15 -25 71 -121 109 -121 9 0 31 -13 49 -30 19 -16 43
-30 53 -30 18 1 18 1 -1 12 -11 6 -26 20 -33 30 -7 10 -19 18 -27 18 -34 0
-85 38 -113 83 -17 28 -33 44 -37 38z"/>
</g>
<g>
<path d="M1235 536 c-9 -43 -3 -78 13 -84 9 -3 12 13 12 57 0 66 -15 82 -25
27z"/>
</g>
<g>
<path d="M1210 435 c0 -8 5 -15 10 -15 6 0 10 7 10 15 0 8 -4 15 -10 15 -5 0
-10 -7 -10 -15z"/>
</g>
<g>
<path d="M2470 1235 c0 -13 4 -14 20 -5 11 6 20 13 20 15 0 3 -9 5 -20 5 -11
0 -20 -7 -20 -15z"/>
</g>
<g>
<path d="M2458 1182 c-23 -4 -23 -18 -2 -26 20 -8 27 -3 22 16 -1 7 -11 12
-20 10z"/>
</g>
<g>
<path d="M629 1556 c-13 -28 -4 -79 12 -74 13 4 20 98 8 98 -5 0 -14 -11 -20
-24z"/>
</g>
<g>
<path d="M247 1143 c-4 -3 -7 -24 -7 -45 0 -54 24 -45 28 10 3 39 -5 52 -21
35z"/>
</g>
<g>
<path d="M190 1075 c0 -8 7 -15 15 -15 8 0 15 7 15 15 0 8 -7 15 -15 15 -8 0
-15 -7 -15 -15z"/>
</g>
<g>
<path d="M2910 785 c0 -16 6 -25 15 -25 9 0 15 9 15 25 0 16 -6 25 -15 25 -9
0 -15 -9 -15 -25z"/>
</g>
<g>
<path d="M2810 690 c-28 -6 -21 -8 38 -9 42 0 72 3 72 9 0 11 -57 11 -110 0z"/>
</g>
<g>
<path d="M2936 648 c4 -6 -1 -17 -11 -25 -17 -12 -17 -13 -2 -13 13 0 17 -9
17 -35 0 -24 5 -35 15 -35 16 0 22 50 8 64 -8 8 -9 13 -12 41 0 8 -6 15 -12
15 -5 0 -7 -5 -3 -12z"/>
</g>
<g>
<path d="M2790 565 c0 -8 9 -15 20 -15 11 0 20 7 20 15 0 8 -9 15 -20 15 -11
0 -20 -7 -20 -15z"/>
</g>
<g>
<path d="M2850 570 c0 -5 7 -10 16 -10 8 0 12 5 9 10 -3 6 -10 10 -16 10 -5 0
-9 -4 -9 -10z"/>
</g>
<g>
<path d="M2890 560 c0 -24 15 -27 24 -4 9 22 8 24 -9 24 -8 0 -15 -9 -15 -20z"/>
</g>
<g>
<path d="M2580 485 c0 -30 0 -58 -1 -62 0 -4 3 -9 8 -10 4 -2 9 26 11 62 1 39
-2 65 -8 65 -6 0 -10 -24 -10 -55z"/>
</g>
<g>
<path d="M520 420 c0 -5 5 -10 10 -10 6 0 10 5 10 10 0 6 -4 10 -10 10 -5 0
-10 -4 -10 -10z"/>
</g>
</g>
<g>
<path d="M68 5093 c7 -3 16 -2 19 1 4 3 -2 6 -13 5 -11 0 -14 -3 -6 -6z"/>
</g>
<g>
<path d="M136 5091 c12 -13 184 -111 192 -111 11 1 -42 40 -53 40 -6 0 -32 15
-58 34 l-49 35 34 4 c22 3 16 4 -21 5 -34 1 -51 -2 -45 -7z"/>
</g>
<g>
<path d="M298 5093 c34 -2 90 -2 125 0 34 2 6 3 -63 3 -69 0 -97 -1 -62 -3z"/>
</g>
<g>
<path d="M823 5093 c20 -2 54 -2 75 0 20 2 3 4 -38 4 -41 0 -58 -2 -37 -4z"/>
</g>
<g>
<path d="M2330 4670 c-19 -11 -31 -19 -27 -20 11 0 67 29 67 35 0 7 -1 7 -40
-15z"/>
</g>
<g>
<path d="M2983 3510 c0 -30 2 -43 4 -27 2 15 2 39 0 55 -2 15 -4 2 -4 -28z"/>
</g>
<g>
<path d="M2974 3094 c-3 -31 -2 -69 4 -87 8 -27 10 -19 11 56 1 48 -1 87 -3
87 -3 0 -8 -25 -12 -56z"/>
</g>
<g>
<path d="M1570 281 c0 -6 4 -12 9 -16 6 -3 7 -28 4 -55 -7 -56 10 -106 37
-115 23 -7 70 4 91 22 14 12 18 11 29 -2 21 -26 80 -13 80 17 0 13 -28 9 -32
-4 -3 -7 -12 -9 -22 -5 -15 6 -17 17 -14 70 2 34 8 70 12 80 7 15 2 17 -38 17
-49 0 -62 -16 -21 -26 23 -6 25 -10 19 -43 -12 -69 -60 -129 -85 -104 -13 13
-20 141 -7 149 4 3 6 10 3 15 -8 12 -65 12 -65 0z"/>
</g>
<g>
<path d="M372 258 c3 -24 28 -38 28 -15 0 11 10 15 35 14 l35 -1 0 -77 c0 -43
-5 -81 -10 -84 -6 -4 -8 -11 -5 -16 8 -12 85 -12 85 1 0 6 -4 10 -9 10 -5 0
-9 38 -10 85 l-2 85 32 0 c22 0 32 -5 36 -20 3 -11 9 -20 13 -20 9 0 19 47 12
55 -3 3 -59 5 -124 5 -117 0 -119 0 -116 -22z"/>
</g>
<g>
<path d="M640 270 c0 -5 7 -13 17 -18 25 -15 25 -132 -1 -161 l-19 -21 44 0
c52 0 84 15 56 26 -12 4 -17 17 -17 45 l0 39 50 0 50 0 0 -39 c0 -22 -4 -43
-10 -46 -21 -13 -9 -21 25 -17 l35 4 -5 85 c-4 57 -2 90 6 99 9 11 5 14 -23
14 -33 0 -34 -1 -30 -34 4 -32 3 -34 -35 -38 -21 -3 -44 -3 -50 0 -15 5 -18
52 -3 52 6 0 10 5 10 10 0 6 -22 10 -50 10 -27 0 -50 -4 -50 -10z"/>
</g>
<g>
<path d="M956 258 c9 -30 6 -149 -5 -162 -17 -20 -5 -24 72 -19 49 4 76 10 85
21 16 21 15 32 -3 32 -8 0 -15 -7 -15 -15 0 -11 -11 -15 -40 -15 -39 0 -40 1
-40 34 0 35 13 55 25 36 10 -17 35 -11 35 8 0 9 -7 25 -14 35 -13 16 -14 16
-19 -4 -3 -11 -10 -18 -16 -14 -16 9 -13 51 4 65 17 14 55 4 55 -16 0 -19 16
-18 24 2 11 28 -4 35 -80 32 -63 -3 -73 -5 -68 -20z"/>
</g>
<g>
<path d="M1354 255 c-4 -15 -1 -38 5 -52 10 -22 16 -24 59 -21 l47 3 3 -39 3
-39 -47 6 c-35 4 -54 12 -70 30 -26 31 -34 26 -34 -23 l0 -36 88 4 c93 5 112
12 112 46 -1 38 -34 66 -79 66 -39 0 -41 2 -41 30 0 28 2 30 41 30 32 0 42 -4
46 -20 8 -32 35 -25 31 8 -3 27 -4 27 -80 30 -76 3 -78 2 -84 -23z"/>
</g>
<g>
<path d="M1873 273 c14 -4 17 -17 17 -84 0 -46 -4 -79 -10 -79 -5 0 -10 -4
-10 -10 0 -5 14 -10 31 -10 26 0 30 3 24 18 -12 31 -18 92 -8 92 5 0 37 -27
70 -60 33 -33 65 -60 72 -60 7 0 11 29 11 88 0 55 4 92 12 100 9 9 4 12 -25
12 -35 0 -51 -14 -25 -22 11 -4 19 -128 8 -128 -3 0 -30 34 -60 75 -51 70 -57
75 -90 74 -19 -1 -27 -3 -17 -6z"/>
</g>
<g>
<path d="M2344 125 c-4 -9 -2 -21 4 -27 16 -16 47 -5 47 17 0 26 -42 34 -51
10z"/>
</g>
<g>
<path d="M1318 3 c23 -2 61 -2 85 0 23 2 4 4 -43 4 -47 0 -66 -2 -42 -4z"/>
</g>
</g>
</svg>
