<?xml version="1.0" standalone="no"?>
<!DOCTYPE svg PUBLIC "-//W3C//DTD SVG 20010904//EN"
 "http://www.w3.org/TR/2001/REC-SVG-20010904/DTD/svg10.dtd">
<svg version="1.0" xmlns="http://www.w3.org/2000/svg"
 width="300.000000pt" height="527.000000pt" viewBox="0 0 300.000000 527.000000"
 preserveAspectRatio="xMidYMid meet">
<metadata>
Created by potrace 1.15, written by Peter Selinger 2001-2017
</metadata>
<g transform="translate(0.000000,527.000000) scale(0.100000,-0.100000)"
fill="#000000" stroke="none">
<g>
<path d="M7 5133 c-4 -110 1 -1827 6 -1988 1 -22 -3 -739 -7 -1592 l-9 -1553
1495 0 1495 0 6 38 c11 68 8 4704 -3 4697 -6 -4 -10 10 -10 37 0 31 3 39 10
28 6 -10 9 53 8 185 -1 110 -3 185 -5 168 l-4 -33 -72 3 c-69 2 -72 1 -69 -20
2 -13 -2 -23 -7 -23 -6 0 -11 7 -11 15 0 8 -4 15 -10 15 -5 0 -10 7 -10 15 0
8 -4 15 -9 15 -14 0 -61 -48 -61 -63 0 -8 -8 -21 -18 -30 -14 -13 -44 -16
-147 -18 -72 -1 -134 -5 -140 -9 -18 -14 -65 36 -65 69 0 16 -4 32 -9 35 -16
10 -61 -19 -78 -52 -17 -31 -18 -32 -24 -10 -4 18 -11 22 -30 20 -23 -3 -28
-8 -58 -50 -8 -11 -28 -23 -45 -26 -51 -11 -476 14 -500 29 -20 12 -55 12
-166 -2 -70 -9 -414 -10 -630 -2 -146 5 -203 11 -225 23 -19 10 -42 13 -66 10
-40 -7 -79 9 -79 31 0 7 -14 16 -31 20 -40 9 -81 -26 -77 -64 2 -20 -2 -27
-19 -29 -15 -2 -23 2 -23 11 0 22 -34 47 -63 47 -21 0 -31 9 -48 43 -12 23
-27 45 -33 49 -23 15 -44 8 -50 -18 -6 -24 -8 -25 -25 -10 -22 20 -30 20 -48
-1 -14 -17 -14 -17 -9 0 3 10 6 37 6 60 l0 42 183 3 c100 2 421 7 712 11 l530
8 -726 1 -726 2 -6 -137z m174 -69 l-12 -27 -21 21 c-19 19 -20 24 -9 48 l12
27 21 -21 c19 -19 20 -24 9 -48z m-91 30 c0 -8 -4 -12 -10 -9 -5 3 -10 13 -10
21 0 8 5 12 10 9 6 -3 10 -13 10 -21z m2713 20 c8 -8 -3 -34 -14 -34 -5 0 -9
9 -9 20 0 19 11 26 23 14z m177 -26 c0 -6 -3 -9 -6 -5 -4 3 -22 0 -41 -8 -48
-20 -59 -19 -38 5 20 22 85 28 85 8z m-2552 -34 c-4 -23 -18 -24 -32 -1 -8 14
-8 20 4 27 18 11 33 -2 28 -26z m1894 4 c-7 -7 -12 -8 -12 -2 0 14 12 26 19
19 2 -3 -1 -11 -7 -17z m461 -22 c7 -18 -1 -26 -25 -26 -21 0 -23 11 -6 28 16
16 25 15 31 -2z m67 -3 c0 -7 -11 -13 -25 -13 -15 0 -25 6 -25 14 0 9 10 13
25 12 14 0 25 -7 25 -13z m130 2 c0 -16 -9 -19 -34 -9 -20 8 -11 24 15 24 10
0 19 -7 19 -15z m-2405 -47 c0 -32 5 -53 13 -55 7 -3 12 4 12 18 0 18 3 20 12
11 18 -18 28 -15 28 8 0 11 3 20 8 20 4 1 112 3 241 5 l234 4 29 -31 c21 -23
34 -29 54 -25 16 3 28 -1 31 -9 7 -19 30 -17 42 3 7 14 12 15 25 4 16 -13 56
-7 56 10 0 5 36 8 81 7 44 0 75 -4 68 -8 -16 -10 -2 -30 21 -30 10 0 21 -4 25
-9 10 -18 -33 -31 -86 -26 -29 2 -59 -1 -65 -6 -9 -7 -19 -6 -33 3 -17 10 -25
10 -41 0 -26 -16 -30 -15 -30 3 0 20 -5 19 -40 -6 -24 -19 -37 -21 -82 -16
-30 4 -58 13 -64 22 -6 8 -18 13 -27 9 -8 -3 -18 -1 -22 5 -10 18 -25 12 -25
-9 0 -15 -7 -20 -25 -20 -14 0 -25 5 -25 11 0 6 -11 8 -28 4 -19 -4 -33 -1
-40 8 -6 7 -24 13 -39 12 -23 0 -28 -4 -27 -23 1 -13 -3 -21 -10 -19 -6 2 -12
14 -12 26 -1 12 -7 28 -13 34 -9 9 -13 6 -18 -12 -6 -24 -6 -24 -14 -3 -13 34
-39 28 -41 -10 l-1 -33 -4 33 c-3 25 -9 32 -21 30 -12 -3 -16 -12 -14 -31 1
-15 -2 -27 -8 -27 -5 0 -11 6 -11 13 -1 6 -2 17 -4 22 -1 6 -3 14 -3 19 -1 5
-9 3 -17 -4 -8 -7 -14 -20 -13 -28 3 -12 -9 -15 -62 -13 -45 1 -71 -3 -85 -13
-11 -9 -39 -16 -62 -16 -40 0 -43 2 -43 26 0 15 -4 23 -11 18 -6 -3 -8 -17 -4
-31 5 -20 2 -24 -12 -21 -10 2 -18 12 -19 23 -2 39 -4 44 -21 48 -10 2 -26 -3
-35 -11 -13 -10 -21 -11 -37 -2 -12 6 -27 7 -34 3 -6 -4 -20 -6 -29 -5 -10 2
-18 -2 -18 -8 0 -6 -4 -9 -9 -6 -5 4 -22 1 -38 -5 -27 -11 -92 -13 -102 -3 -3
2 0 9 6 15 8 8 17 8 32 -1 22 -11 28 -6 35 32 2 7 7 21 11 32 5 11 3 26 -4 38
-9 15 -9 20 4 24 25 10 45 -4 45 -31 0 -30 20 -34 27 -5 4 16 9 18 19 9 7 -6
18 -8 24 -4 5 3 10 -1 10 -9 0 -15 29 -36 48 -36 5 0 12 9 15 20 3 13 14 20
30 20 14 0 29 5 32 10 10 16 35 -8 35 -31 0 -30 28 -22 35 10 7 34 45 73 52
53 3 -6 9 -10 14 -6 5 3 9 -6 9 -19 0 -14 -7 -27 -15 -31 -17 -6 -21 -46 -5
-46 6 0 13 7 16 15 4 8 15 15 25 15 15 0 19 7 19 38 0 37 6 52 20 52 3 0 6
-23 5 -52z m-365 38 c0 -3 -4 -8 -10 -11 -5 -3 -10 -1 -10 4 0 6 5 11 10 11 6
0 10 -2 10 -4z m-137 -13 c7 -6 -21 -32 -35 -33 -5 0 -8 9 -8 20 0 19 28 28
43 13z m1491 -9 c9 -8 20 -13 25 -10 18 12 58 -20 74 -58 28 -68 19 -74 -32
-18 -26 28 -57 52 -67 52 -23 0 -44 18 -44 37 0 18 25 16 44 -3z m816 0 c0 -9
-5 -14 -12 -12 -18 6 -21 28 -4 28 9 0 16 -7 16 -16z m-895 -4 c-3 -5 -12 -10
-20 -10 -8 0 -17 5 -20 10 -4 6 5 10 20 10 15 0 24 -4 20 -10z m1025 2 c0 -16
-22 -30 -41 -25 -24 7 -25 20 -1 26 29 8 42 7 42 -1z m60 -2 c0 -5 -9 -10 -20
-10 -11 0 -20 5 -20 10 0 6 9 10 20 10 11 0 20 -4 20 -10z m-322 -30 c3 -21 2
-22 -12 -11 -19 16 -21 44 -3 39 6 -3 14 -15 15 -28z m741 -52 c-1 -40 -4 -64
-6 -54 -4 14 -7 16 -13 6 -4 -7 -18 -12 -31 -11 -13 1 -55 3 -94 4 -68 2 -70
1 -84 -27 l-14 -29 -17 23 c-17 22 -19 23 -41 8 -18 -11 -50 -14 -134 -13 -60
1 -118 5 -128 10 -31 13 -160 -3 -174 -22 -12 -15 -13 -15 -13 3 0 29 -8 34
-40 22 -19 -6 -35 -6 -47 0 -13 8 -22 7 -34 -4 -19 -18 -27 -18 -137 -4 -120
16 -141 26 -67 33 33 3 84 6 113 6 59 0 73 5 65 26 -6 17 12 21 22 5 10 -17
25 -11 35 13 6 15 9 17 9 6 1 -9 8 -19 16 -22 16 -7 29 8 20 22 -3 5 -1 12 5
16 6 3 13 -1 16 -9 8 -20 28 -20 44 -1 9 11 16 13 24 5 7 -7 15 -4 27 11 13
18 22 21 53 15 26 -5 36 -12 36 -25 0 -16 8 -18 48 -17 29 1 47 6 48 14 1 6 2
16 3 22 0 5 14 7 30 4 18 -4 42 0 60 9 21 10 41 13 59 8 15 -4 59 -5 97 -1 81
8 95 5 95 -20 0 -29 19 -34 29 -8 9 22 12 21 15 -4 2 -18 26 -22 26 -4 0 9 5
16 10 16 6 0 10 -7 10 -16 0 -8 5 -12 10 -9 6 3 10 19 10 36 0 22 5 29 20 29
18 0 20 -6 19 -72z m-1226 51 c-8 -8 -19 -8 -40 -1 -28 10 -28 10 12 11 28 1
36 -2 28 -10z m191 -34 c21 -32 21 -32 -116 -40 -102 -6 -107 -5 -118 15 -6
12 -10 23 -8 25 2 1 31 6 66 10 53 6 62 5 62 -9 0 -24 57 -21 70 4 14 26 24
25 44 -5z m102 12 c1 -1 5 -12 8 -24 7 -21 4 -23 -33 -23 -46 0 -57 11 -41 41
9 16 17 19 38 14 15 -4 28 -7 28 -8z m-406 -104 c0 -32 -18 -29 -26 5 -3 15
-8 33 -10 41 -3 11 1 9 16 -4 11 -10 20 -29 20 -42z m-60 -4 c0 -5 -7 -9 -15
-9 -9 0 -15 9 -15 21 0 18 2 19 15 9 8 -7 15 -16 15 -21z m-191 3 c8 -16 5
-18 -25 -19 l-34 -1 23 19 c27 23 24 23 36 1z m131 -3 c0 -5 -4 -9 -10 -9 -5
0 -10 7 -10 16 0 8 5 12 10 9 6 -3 10 -10 10 -16z m-322 -21 c9 -8 10 -14 2
-22 -8 -8 -13 -7 -19 3 -5 8 -16 11 -29 7 -21 -7 -62 11 -62 27 0 12 91 -1
108 -15z m-1139 -49 c-13 -9 -27 -15 -31 -13 -15 9 -8 33 14 48 20 14 23 14
31 -1 7 -12 4 -20 -14 -34z m261 42 c0 -14 -18 -23 -31 -15 -8 4 -7 9 2 15 18
11 29 11 29 0z m306 -2 c3 -6 1 -15 -6 -19 -17 -11 -5 -41 20 -47 15 -4 20
-14 20 -36 0 -28 32 -77 51 -77 5 0 25 16 45 36 33 34 36 41 31 80 -3 29 -1
44 7 45 136 9 237 -1 266 -25 8 -7 35 -24 60 -38 63 -36 85 -64 104 -131 22
-78 7 -97 -49 -61 -40 26 -86 -1 -54 -33 6 -6 16 -20 23 -31 6 -11 19 -31 30
-46 17 -24 17 -28 2 -51 -15 -23 -15 -27 0 -50 9 -14 25 -25 35 -25 18 0 19
-10 19 -145 0 -158 3 -150 -58 -145 -13 1 -30 -7 -37 -17 -16 -20 -20 -47 -6
-39 14 9 41 -5 41 -21 0 -8 4 -12 8 -9 4 2 14 1 22 -4 11 -7 12 -12 3 -21 -8
-8 -6 -20 9 -46 20 -33 21 -44 14 -221 -4 -102 -8 -187 -9 -189 -2 -1 -60 2
-131 8 -200 16 -304 -8 -354 -82 -30 -43 -25 -91 15 -151 16 -23 47 -79 68
-123 21 -43 56 -108 78 -144 27 -44 41 -82 47 -124 7 -49 15 -67 44 -96 20
-20 36 -44 36 -53 0 -9 16 -35 35 -59 54 -64 55 -65 42 -187 l-12 -112 -60
-40 c-33 -22 -75 -53 -94 -70 -19 -16 -40 -30 -48 -30 -7 0 -13 -4 -13 -10 0
-5 -7 -10 -15 -10 -8 0 -45 -15 -82 -34 -38 -18 -85 -42 -105 -51 -21 -10 -38
-21 -38 -26 0 -5 -4 -9 -9 -9 -21 0 -121 -77 -131 -101 -9 -21 -8 -37 6 -78
24 -74 47 -98 111 -117 30 -9 82 -30 116 -46 70 -35 194 -67 252 -65 63 2 207
-23 238 -41 26 -16 29 -16 38 0 21 38 80 -21 78 -78 -2 -32 -7 -48 -38 -115
-26 -58 -26 -64 0 -38 26 26 36 18 15 -13 -18 -25 -22 -88 -6 -88 6 0 10 -19
11 -42 l1 -43 13 35 c7 19 14 31 15 25 1 -5 3 -20 4 -33 4 -31 18 -43 36 -32
13 8 13 13 2 31 -20 31 -8 34 16 4 l21 -26 -3 28 c-2 17 -11 32 -25 38 -26 12
-62 102 -50 125 4 8 13 44 19 80 7 36 16 70 21 77 7 7 6 14 -1 18 -5 3 -10 34
-10 68 0 40 -3 57 -9 48 -7 -12 -14 -10 -36 7 -15 12 -31 19 -35 17 -15 -9
-20 12 -7 28 7 9 30 18 52 20 41 4 63 11 102 30 25 11 73 -4 73 -23 0 -5 15
-10 34 -10 19 0 47 -5 62 -10 26 -10 26 -12 11 -28 -14 -14 -21 -14 -37 -4
-31 19 -37 15 -37 -30 -1 -80 -14 -99 -59 -90 -14 2 -24 0 -24 -7 0 -9 8 -12
35 -11 24 1 67 -35 72 -61 3 -16 10 -32 14 -35 5 -3 9 -14 9 -25 0 -11 5 -30
12 -42 l12 -22 8 25 c7 23 6 -1 -4 -100 -2 -14 -9 -36 -16 -48 -22 -38 -5 -38
17 -1 13 22 21 52 22 84 0 41 2 46 10 27 5 -15 5 -40 -1 -69 -12 -50 -6 -70 9
-32 6 18 8 10 5 -31 -7 -99 -16 -143 -35 -164 -24 -25 -27 -1 -3 32 16 24 10
30 -10 9 -21 -21 -37 -57 -31 -67 4 -6 10 -8 15 -5 4 3 10 -18 12 -45 3 -55
-1 -61 -20 -29 -20 32 -25 116 -8 140 7 11 11 30 9 42 -5 22 -5 22 10 2 16
-20 16 -19 17 7 0 63 -53 2 -63 -70 -3 -24 -13 -52 -23 -63 -15 -17 -16 -23
-4 -44 11 -21 11 -27 -3 -43 -10 -10 -17 -26 -17 -35 0 -9 -4 -17 -10 -17 -5
0 -10 -13 -10 -30 0 -16 -4 -30 -10 -30 -11 0 -11 -3 -14 70 -2 31 -8 56 -15
58 -7 2 -4 11 10 23 18 16 20 23 11 41 -6 13 -11 17 -11 11 -1 -7 -8 -13 -16
-13 -23 0 -18 15 9 28 21 9 25 8 30 -11 6 -23 18 -17 22 11 14 88 16 124 6
119 -5 -4 -12 6 -14 23 -2 16 -2 27 2 25 3 -2 12 1 20 6 13 8 13 10 0 19 -8 5
-23 10 -32 10 -15 0 -18 -10 -18 -67 0 -38 -5 -75 -10 -83 -6 -10 -8 13 -5 70
2 47 2 77 -1 67 -3 -9 -10 -14 -16 -11 -8 5 -9 -10 -5 -47 5 -44 4 -49 -4 -26
-9 22 -14 26 -25 16 -17 -14 -19 -39 -3 -39 7 0 9 -11 6 -30 -4 -17 0 -40 8
-57 19 -37 20 -67 1 -60 -8 3 -17 1 -19 -6 -2 -7 -7 15 -11 48 -11 89 -17 115
-27 115 -5 0 -8 -26 -6 -57 2 -55 1 -58 -23 -61 -14 -2 -30 -8 -36 -13 -14
-11 -24 -1 -24 23 0 12 -4 16 -12 12 -6 -4 -17 1 -24 11 -13 18 -14 18 -33 1
-22 -20 -63 -97 -56 -105 3 -2 14 4 25 14 17 15 20 16 20 3 0 -9 -10 -23 -22
-32 -23 -16 -22 -16 14 -10 l36 6 2 -49 c5 -103 -2 -317 -11 -340 -5 -13 -9
-44 -9 -68 l0 -43 -172 -7 c-181 -7 -1006 0 -1014 8 -3 3 -1 398 4 878 5 481
8 1237 8 1681 -2 770 -1 808 16 814 21 6 25 63 6 82 -16 16 -2 28 16 13 8 -7
25 -11 38 -9 34 5 36 47 4 86 -15 16 -26 32 -26 35 0 2 14 7 30 11 26 5 30 10
30 40 0 29 -5 38 -30 51 l-31 16 18 30 18 30 19 -40 c18 -37 38 -51 79 -51 19
0 23 30 6 47 -9 9 -9 20 1 43 12 30 11 32 -21 60 -19 16 -42 29 -52 30 -10 0
-27 9 -39 19 l-21 20 27 7 c14 3 26 12 26 20 0 8 5 14 10 14 6 0 10 -11 10
-25 0 -29 32 -65 58 -65 41 0 57 51 22 70 -12 6 -20 21 -20 36 0 21 -4 24 -20
19 -14 -5 -20 -2 -20 9 0 9 8 16 17 16 9 0 25 7 35 16 17 16 20 15 53 -22 34
-37 35 -37 50 -18 33 44 38 72 21 114 -16 39 -15 42 6 71 18 24 27 29 48 24
28 -6 80 9 80 23 0 4 -12 22 -27 40 -32 36 -103 51 -124 26 -15 -18 -29 -18
-29 1 0 8 9 15 20 15 11 0 20 7 20 15 0 23 36 37 50 20 16 -19 30 -19 30 -1 0
7 -10 16 -22 20 -35 9 -9 26 50 33 31 3 58 13 68 24 19 21 88 26 100 8z m851
-6 c2 -6 -3 -13 -12 -16 -10 -5 -15 0 -15 14 0 21 21 22 27 2z m997 -4 c51 0
53 -2 48 -25 -3 -15 1 -26 11 -30 9 -3 15 -18 15 -37 0 -39 23 -109 37 -114 6
-2 19 11 29 27 15 26 20 29 32 19 31 -26 36 -48 16 -77 -28 -40 -33 -59 -26
-102 4 -24 13 -40 24 -43 11 -3 19 -19 24 -48 10 -62 28 -109 42 -109 13 0 19
13 29 73 3 20 10 37 15 37 13 0 13 -17 0 -25 -6 -4 -7 -12 -3 -18 5 -7 8 -40
8 -75 0 -44 4 -65 14 -72 12 -7 13 -13 3 -35 -8 -17 -9 -32 -2 -44 13 -25 61
-56 83 -53 9 2 17 -2 17 -9 0 -7 -10 -9 -26 -6 -30 5 -64 -22 -63 -50 1 -30
35 -117 46 -120 6 -2 24 8 41 22 28 23 30 28 20 56 -8 24 -7 33 4 42 18 15 48
108 48 151 0 17 5 38 11 46 7 10 8 -370 3 -1205 -3 -671 -8 -1223 -10 -1226
-2 -4 -4 -391 -4 -862 l-1 -855 -167 -6 c-92 -3 -651 -4 -1242 -1 -591 2
-1122 5 -1180 5 -58 0 -162 -3 -232 -6 l-128 -7 0 187 c0 103 4 185 9 182 4
-3 666 -8 1470 -11 1306 -5 1461 -4 1461 10 0 19 30 19 -690 15 -333 -1 -625
1 -650 5 l-46 7 8 87 c8 102 -2 261 -17 261 -5 0 -11 -23 -13 -51 -3 -45 -5
-50 -23 -46 -13 4 -19 0 -20 -11 0 -10 -1 -37 -2 -62 -2 -37 -5 -44 -19 -42
-10 2 -18 -1 -18 -6 0 -15 -37 -52 -52 -52 -11 0 -15 12 -15 45 0 55 -32 97
-72 93 -33 -4 -36 26 -3 30 12 2 22 10 22 18 0 8 7 14 15 14 28 0 16 30 -15
36 -42 9 -58 31 -35 48 22 16 11 39 -16 31 -22 -7 -27 19 -6 32 6 4 20 25 30
46 9 21 21 36 26 32 6 -3 4 -17 -5 -33 -21 -40 -18 -55 8 -46 13 4 28 14 35
23 11 14 12 14 13 0 0 -8 6 -24 14 -34 12 -16 16 -17 30 -6 14 12 16 11 16 -7
0 -11 7 -25 16 -33 13 -10 17 -10 25 2 5 8 9 22 9 31 0 23 36 43 47 26 4 -7
17 -18 28 -24 18 -10 20 -22 20 -107 0 -52 3 -98 7 -102 16 -16 26 39 27 154
1 122 6 157 18 113 7 -27 23 -29 23 -3 0 11 5 21 10 23 22 7 22 72 -1 108 -26
41 -38 26 -15 -19 20 -38 20 -51 1 -51 -8 0 -17 11 -20 25 -3 14 -8 37 -11 52
-4 20 0 31 16 43 19 14 21 28 25 154 3 90 1 145 -6 159 -10 18 -9 20 2 9 7 -6
16 -33 20 -60 7 -46 7 -46 5 13 -1 52 -4 61 -25 72 -26 12 -50 48 -51 74 0 9
-7 22 -15 29 -9 7 -15 29 -15 55 l0 42 48 6 c26 2 55 8 65 12 12 5 17 2 17 -9
0 -20 19 -21 46 -2 11 8 41 23 65 32 24 10 55 26 68 36 13 10 49 25 80 34 78
21 106 32 186 71 106 52 117 59 154 97 l33 34 -12 54 c-19 82 -33 101 -89 127
-34 15 -51 29 -51 41 0 10 -10 24 -23 33 -28 18 -167 48 -193 41 -11 -3 -50
11 -89 30 -38 20 -83 36 -100 36 -50 1 -82 36 -90 101 -5 44 -4 58 9 68 9 8
16 29 16 48 0 27 10 45 50 87 52 55 56 65 41 94 -24 45 -50 133 -55 185 -2 32
-11 68 -19 80 -8 12 -17 38 -21 58 -8 47 -11 268 -2 276 15 15 76 2 100 -22
22 -22 29 -24 53 -14 38 14 62 37 84 82 11 20 23 37 27 37 12 0 104 94 127
130 31 49 35 76 19 109 l-15 29 -78 -39 c-43 -21 -96 -57 -118 -78 -40 -40
-111 -71 -163 -71 l-30 0 -1 83 c-1 45 -2 201 -3 347 -1 194 -5 278 -15 314
-10 34 -11 50 -3 55 6 3 13 31 15 61 2 30 7 63 12 73 4 11 3 23 -4 30 -8 8 -7
15 2 26 8 9 20 36 28 61 7 25 24 64 36 88 31 59 50 148 42 197 -4 22 -5 42 -3
44 1 2 49 -1 104 -5 l102 -9 -21 -27 c-12 -14 -21 -31 -21 -36 0 -18 32 -43
48 -37 23 8 102 -34 102 -55 0 -27 27 -45 45 -30 11 9 20 8 44 -9 34 -25 36
-23 45 43 7 42 5 51 -16 73 l-23 26 32 -6 c35 -7 53 11 53 52 0 22 42 33 73
18 10 -5 42 -8 71 -8z m-2287 -8 c3 -11 13 -21 22 -24 13 -3 18 -16 19 -52 l2
-48 -26 26 c-22 22 -24 29 -14 42 10 13 10 19 -5 35 -10 11 -28 20 -39 20 -17
0 -18 2 -6 10 24 15 41 12 47 -9z m1335 -34 c-5 -33 -19 -24 -22 13 -3 38 -1
42 13 29 7 -7 11 -25 9 -42z m1143 34 c3 -5 1 -12 -5 -16 -5 -3 -10 1 -10 9 0
18 6 21 15 7z m-1245 -35 c0 -19 3 -41 6 -50 5 -12 0 -16 -19 -16 -14 0 -29
-4 -32 -10 -11 -18 -32 -11 -38 12 -4 12 -2 27 3 33 12 15 3 25 -22 25 -10 0
-18 5 -18 10 0 6 21 9 47 8 28 -1 48 3 51 10 8 25 22 11 22 -22z m718 9 c6
-14 16 -25 22 -25 5 0 10 -9 10 -20 0 -20 -15 -25 -44 -14 -11 4 -16 19 -16
45 0 45 12 50 28 14z m496 3 c9 -33 8 -38 -8 -38 -17 0 -25 18 -18 43 6 24 18
21 26 -5z m-2274 -9 c0 -5 -7 -9 -15 -9 -15 0 -20 12 -9 23 8 8 24 -1 24 -14z
m1218 -100 l-3 -104 -11 105 c-12 105 -10 130 7 113 6 -6 8 -57 7 -114z m1246
80 c-15 -16 -31 -29 -35 -29 -14 0 4 41 24 55 33 23 41 5 11 -26z m-1011 -36
c-1 -48 -10 -79 -37 -137 -20 -42 -41 -76 -46 -76 -13 0 -13 -4 10 58 24 61
25 82 6 82 -7 0 -25 -27 -39 -60 -18 -40 -35 -64 -52 -72 -14 -6 -28 -23 -32
-37 -9 -40 -26 -43 -40 -9 -19 45 -16 62 15 80 17 10 37 38 51 70 52 121 65
141 101 153 60 22 65 17 63 -52z m-1062 36 c9 -18 8 -25 -7 -40 -16 -15 -22
-16 -36 -5 -15 11 -16 17 -5 39 15 32 32 34 48 6z m530 -11 c11 -11 19 -31 19
-43 0 -29 18 -45 51 -45 33 0 39 -14 26 -57 -13 -41 4 -83 33 -83 11 0 20 -4
20 -10 0 -5 -10 -9 -22 -7 -18 2 -24 -4 -26 -26 -2 -16 2 -35 9 -43 10 -13 8
-20 -14 -42 -27 -26 -27 -26 -27 -4 0 13 -6 33 -14 45 -7 12 -16 41 -20 65 -5
33 -3 42 8 42 27 0 27 19 2 47 -15 15 -26 34 -26 41 0 7 -7 15 -15 18 -10 4
-15 20 -15 46 0 31 -4 41 -20 45 -21 5 -25 15 -13 26 11 12 25 8 44 -15z
m1447 10 c20 -20 14 -38 -13 -38 -13 0 -29 -8 -34 -17 -10 -16 -10 -17 -11 -1
0 28 19 68 33 68 7 0 18 -5 25 -12z m222 -19 c0 -6 7 -9 15 -5 12 4 15 -3 14
-32 -2 -30 -3 -32 -6 -9 -5 30 -6 31 -34 17 -11 -6 -19 -21 -19 -35 0 -38 -17
-30 -25 11 -3 20 -5 37 -3 38 2 0 12 6 23 13 26 15 35 16 35 2z m-100 -19 c0
-11 -5 -20 -11 -20 -7 0 -18 -8 -25 -17 -7 -10 -16 -15 -20 -10 -4 4 6 20 22
37 35 35 34 35 34 10z m-2800 6 c0 -2 -7 -9 -15 -16 -12 -10 -15 -10 -15 4 0
9 7 16 15 16 8 0 15 -2 15 -4z m106 -13 c17 -23 17 -33 -1 -33 -7 0 -19 -8
-24 -17 -8 -14 -10 -9 -11 25 0 45 13 54 36 25z m2444 -9 c0 -8 -4 -14 -10
-14 -5 0 -10 9 -10 21 0 11 5 17 10 14 6 -3 10 -13 10 -21z m-340 -15 c0 -10
-4 -19 -9 -19 -12 0 -23 29 -15 41 8 14 24 0 24 -22z m-2181 -10 c-19 -12 -24
-2 -8 17 9 11 14 13 17 4 3 -7 -2 -16 -9 -21z m195 -4 c-6 -25 -6 -25 65 -51
11 -3 12 -7 3 -16 -9 -9 -19 -8 -43 6 -25 15 -33 15 -46 5 -13 -11 -17 -10
-29 6 -18 24 -18 35 1 35 8 0 20 9 27 20 18 28 30 25 22 -5z m2473 -1 c-9 -9
-28 6 -21 18 4 6 10 6 17 -1 6 -6 8 -13 4 -17z m-2311 -15 c16 -17 16 -22 4
-29 -22 -14 -28 -12 -40 10 -6 11 -20 20 -31 20 -11 0 -17 5 -14 10 11 17 61
11 81 -11z m2424 5 c0 -8 -4 -12 -10 -9 -5 3 -10 10 -10 16 0 5 5 9 10 9 6 0
10 -7 10 -16z m-1330 -98 c0 -47 4 -87 9 -90 5 -3 8 -66 7 -138 -1 -99 -8
-156 -24 -223 -25 -101 -40 -184 -47 -265 -9 -102 -26 -225 -35 -250 -4 -14
-14 -53 -20 -87 l-13 -63 -43 0 c-24 0 -45 5 -45 10 -1 6 -1 21 -1 35 0 87 2
104 16 99 18 -7 23 48 16 181 -3 55 -5 102 -3 104 1 2 9 -2 18 -9 13 -11 15
-9 15 11 0 22 0 22 14 3 8 -10 17 -16 20 -13 4 3 9 52 12 108 5 90 4 101 -11
101 -9 0 -14 4 -11 9 3 5 -1 14 -8 21 -24 19 -36 -20 -36 -121 l0 -93 -20 22
c-22 23 -25 43 -11 58 10 10 20 144 21 284 0 84 1 85 19 61 14 -19 20 -21 27
-10 5 8 7 24 6 36 -2 16 5 26 26 37 32 17 45 38 36 61 -4 8 1 17 9 21 25 9 41
58 27 84 -10 19 -6 70 7 93 14 25 23 -4 23 -77z m1190 74 c0 -5 -4 -10 -9 -10
-6 0 -13 5 -16 10 -3 6 1 10 9 10 9 0 16 -4 16 -10z m-2600 -20 c18 -10 18
-11 -3 -34 -26 -29 -37 -25 -37 15 0 31 10 35 40 19z m2726 -11 c11 -18 -13
-34 -31 -19 -8 7 -15 16 -15 21 0 13 38 11 46 -2z m74 1 c0 -5 -4 -10 -10 -10
-5 0 -10 -8 -10 -18 0 -10 -7 -27 -15 -38 -14 -18 -14 -18 -15 4 0 12 7 34 16
47 17 25 34 33 34 15z m-2745 -10 c3 -5 1 -10 -4 -10 -6 0 -11 5 -11 10 0 6 2
10 4 10 3 0 8 -4 11 -10z m105 -15 c0 -8 -4 -15 -10 -15 -5 0 -10 7 -10 15 0
8 5 15 10 15 6 0 10 -7 10 -15z m1150 -21 c0 -8 -4 -12 -10 -9 -5 3 -10 13
-10 21 0 8 5 12 10 9 6 -3 10 -13 10 -21z m1310 11 c0 -16 -46 -65 -61 -65
-15 0 -10 21 12 51 22 31 49 39 49 14z m239 -28 c0 -21 -1 -21 -9 -2 -12 28
-12 37 0 30 6 -3 10 -16 9 -28z m-2904 -8 c4 -11 5 -23 2 -25 -8 -8 -47 20
-47 33 0 21 38 15 45 -8z m61 -26 c-11 -11 -19 6 -11 24 8 17 8 17 12 0 3 -10
2 -21 -1 -24z m159 31 c14 -6 45 -63 45 -85 0 -5 -9 -9 -20 -9 -11 0 -20 4
-20 10 0 5 -10 12 -23 15 -19 5 -22 11 -19 41 4 35 9 38 37 28z m2645 -14 c0
-5 -4 -10 -10 -10 -5 0 -10 5 -10 10 0 6 5 10 10 10 6 0 10 -4 10 -10z m-2710
-10 c0 -11 -50 -34 -58 -26 -2 3 -2 12 1 21 7 17 57 21 57 5z m2584 -38 c1
-23 1 -42 -1 -42 -12 0 -33 53 -28 70 11 34 27 18 29 -28z m-64 8 c0 -28 -2
-30 -21 -20 -20 11 -20 12 -3 31 23 25 24 24 24 -11z m214 5 c3 -8 1 -15 -4
-15 -6 0 -10 7 -10 15 0 8 2 15 4 15 2 0 6 -7 10 -15z m-1727 -32 c17 -43 2
-42 -32 3 -27 36 -27 36 -4 32 15 -2 27 -14 36 -35z m1690 -4 c6 -13 13 -40
15 -59 2 -29 0 -35 -17 -35 -15 0 -20 7 -20 29 -1 21 -7 31 -23 37 -27 10 -27
14 -4 38 21 24 34 21 49 -10z m-2862 -6 c0 -13 -38 -63 -47 -63 -9 0 -11 74
-2 83 8 8 49 -8 49 -20z m155 7 c0 -5 -4 -10 -10 -10 -5 0 -10 5 -10 10 0 6 5
10 10 10 6 0 10 -4 10 -10z m1060 -40 c0 -5 -5 -10 -11 -10 -5 0 -7 5 -4 10 3
6 8 10 11 10 2 0 4 -4 4 -10z m1455 -29 c-10 -16 -25 -3 -25 22 0 20 1 20 16
5 9 -9 13 -21 9 -27z m127 -8 c24 -21 23 -40 -2 -48 -11 -3 -20 -11 -20 -16 0
-5 -9 -4 -20 3 -24 15 -26 36 -5 44 8 4 15 12 15 20 0 18 9 18 32 -3z m-1632
-18 c0 -8 -4 -15 -9 -15 -13 0 -22 16 -14 24 11 11 23 6 23 -9z m457 -7 c-4
-14 -46 -12 -61 3 -6 5 5 9 28 9 26 0 36 -4 33 -12z m1241 -42 c4 -17 -43 -76
-60 -76 -16 0 -7 43 15 70 24 31 40 33 45 6z m-1651 -268 c1 -156 4 -319 7
-363 4 -67 3 -74 -5 -40 -8 33 -17 225 -22 480 -1 34 14 205 17 205 1 0 2
-127 3 -282z m-1047 262 c0 -5 -6 -10 -14 -10 -8 0 -18 5 -21 10 -3 6 3 10 14
10 12 0 21 -4 21 -10z m-150 -51 c0 -6 -4 -7 -10 -4 -5 3 -10 11 -10 16 0 6 5
7 10 4 6 -3 10 -11 10 -16z m2760 -21 c0 -5 -4 -8 -10 -8 -5 0 -10 10 -10 23
0 18 2 19 10 7 5 -8 10 -18 10 -22z m-2686 1 c-27 -11 -34 -10 -34 0 0 11 31
20 44 13 5 -3 1 -9 -10 -13z m2783 -80 c-2 -49 -6 -92 -10 -95 -7 -7 -29 97
-30 143 -1 33 18 57 35 46 5 -2 7 -45 5 -94z m-2867 51 c11 -7 12 -14 4 -27
-16 -25 -31 -27 -44 -3 -18 34 6 52 40 30z m112 -26 c-4 -23 -6 -24 -20 -11
-16 16 -9 37 12 37 9 0 12 -9 8 -26z m1143 -41 c-2 -27 -4 -64 -5 -83 -1 -33
-2 -34 -11 -11 -9 24 -10 103 -1 129 10 28 19 9 17 -35z m1549 12 c7 -20 -19
-49 -38 -42 -15 6 -23 47 -10 59 9 9 42 -3 48 -17z m-2824 -45 c0 -5 -7 -10
-15 -10 -8 0 -15 5 -15 10 0 6 7 10 15 10 8 0 15 -4 15 -10z m1535 -20 c-3 -5
-11 -10 -16 -10 -6 0 -7 5 -4 10 3 6 11 10 16 10 6 0 7 -4 4 -10z m-1465 -25
c0 -8 -4 -15 -10 -15 -5 0 -10 7 -10 15 0 8 5 15 10 15 6 0 10 -7 10 -15z
m1470 -35 c0 -5 -7 -10 -15 -10 -8 0 -15 5 -15 10 0 6 7 10 15 10 8 0 15 -4
15 -10z m110 -11 c0 -5 -4 -9 -10 -9 -5 0 -10 7 -10 16 0 8 5 12 10 9 6 -3 10
-10 10 -16z m1170 -7 c0 -4 -9 -13 -19 -19 -15 -10 -20 -9 -24 1 -3 8 -3 17 0
20 9 9 43 7 43 -2z m-2782 -51 c22 -19 30 -41 14 -41 -16 0 -52 32 -52 46 0
19 10 17 38 -5z m2802 -26 c0 -5 -5 -3 -10 5 -5 8 -10 20 -10 25 0 6 5 3 10
-5 5 -8 10 -19 10 -25z m-1494 -11 c-4 -9 -9 -15 -11 -12 -3 3 -3 13 1 22 4 9
9 15 11 12 3 -3 3 -13 -1 -22z m-1356 -75 c0 -11 -4 -17 -10 -14 -5 3 -10 15
-10 26 0 11 5 17 10 14 6 -3 10 -15 10 -26z m1294 -89 c4 -76 3 -111 -3 -105
-8 8 -17 179 -12 219 4 29 9 -13 15 -114z m783 -176 c13 -34 -55 -132 -112
-161 -42 -21 -75 -53 -75 -73 0 -20 -54 -74 -69 -69 -6 2 4 26 23 52 19 27 38
62 41 78 4 16 26 45 51 68 67 59 58 86 -11 31 -41 -33 -50 -37 -39 -17 19 31
137 107 167 107 10 0 20 -7 24 -16z m-427 -69 c0 -8 -4 -15 -10 -15 -5 0 -10
7 -10 15 0 8 5 15 10 15 6 0 10 -7 10 -15z m-410 -46 c0 -10 -6 -21 -12 -25
-7 -4 -10 -4 -6 1 4 4 0 13 -9 20 -10 8 -14 19 -10 30 6 14 10 15 22 5 8 -7
15 -21 15 -31z m400 -127 c0 -13 -12 -22 -22 -16 -10 6 -1 24 13 24 5 0 9 -4
9 -8z m-310 -106 c0 -13 -13 -39 -30 -57 -16 -19 -32 -46 -35 -61 -8 -33 -21
-43 -39 -29 -13 11 -20 116 -9 133 8 14 23 -12 23 -39 0 -30 18 -29 32 2 6 14
15 25 20 25 4 0 8 11 8 23 0 13 3 27 6 30 11 11 24 -3 24 -27z m-319 -39 c-1
-12 -15 -9 -19 4 -3 6 1 10 8 8 6 -3 11 -8 11 -12z m103 -27 c31 -48 32 -51 5
-73 -26 -23 -32 -18 -15 13 11 22 10 28 -11 47 -23 22 -31 53 -14 53 4 0 20
-18 35 -40z m66 -31 c0 -10 -4 -19 -8 -19 -12 0 -42 67 -34 75 10 9 42 -34 42
-56z m291 -10 c75 -24 102 -45 79 -59 -10 -6 -20 -4 -31 6 -23 21 -59 18 -59
-5 0 -21 44 -61 66 -61 8 0 14 -7 14 -15 0 -13 -7 -12 -41 5 -22 12 -46 19
-52 17 -13 -4 61 -57 80 -57 7 0 13 -4 13 -10 0 -13 -6 -13 -64 5 -27 8 -51
13 -54 11 -9 -10 10 -24 41 -30 37 -7 76 -31 66 -41 -4 -3 -24 1 -44 9 -44 19
-55 20 -55 6 0 -5 16 -16 35 -24 43 -18 46 -31 5 -22 -29 5 -41 -6 -20 -19 8
-5 8 -11 0 -20 -15 -18 -9 -77 8 -83 7 -2 16 5 19 16 3 13 11 18 19 15 16 -6
19 -43 4 -43 -18 0 -10 -16 14 -29 21 -12 28 -10 54 9 25 18 30 28 26 49 -6
27 26 78 40 64 3 -3 6 -2 6 3 0 6 -5 15 -11 21 -8 8 -8 25 -1 59 9 40 8 51 -6
70 -10 13 -23 24 -29 24 -13 0 -18 22 -7 33 6 5 87 -74 91 -90 2 -4 -5 -8 -15
-8 -13 0 -18 -10 -20 -38 -4 -45 11 -67 38 -60 25 7 28 -28 5 -47 -8 -7 -15
-19 -15 -26 0 -8 -12 -33 -26 -55 -35 -56 -17 -73 24 -23 26 31 32 35 38 21 3
-9 12 -17 20 -17 8 0 14 -2 14 -4 0 -2 3 -11 6 -20 8 -22 -15 -20 -33 2 -12
15 -13 13 -7 -18 6 -33 5 -34 -9 -15 -22 29 -33 11 -13 -21 22 -32 13 -44 -14
-19 -25 23 -39 12 -17 -13 22 -24 21 -32 -3 -32 -13 0 -20 7 -20 19 0 30 -77
86 -152 111 -56 19 -83 22 -158 18 -74 -3 -90 -2 -90 10 0 11 -9 13 -34 9 -19
-3 -37 -3 -40 0 -9 9 23 63 37 63 10 0 13 19 13 70 -1 90 19 116 29 37 8 -60
-9 -127 -32 -127 -16 0 -17 -16 -2 -25 34 -22 79 96 79 209 0 42 4 65 10 61 6
-3 10 -50 10 -106 0 -109 14 -132 24 -40 4 33 12 62 19 65 9 3 9 7 1 13 -7 4
-15 33 -19 64 -6 46 -3 63 14 97 30 59 40 61 132 31z m149 -7 c0 -14 -11 -21
-26 -15 -21 8 -17 23 6 23 11 0 20 -4 20 -8z m-575 -30 c0 -18 -20 -15 -23 4
-3 10 1 15 10 12 7 -3 13 -10 13 -16z m105 -33 c0 -6 -4 -7 -10 -4 -5 3 -10
11 -10 16 0 6 5 7 10 4 6 -3 10 -11 10 -16z m70 -4 c0 -9 -7 -18 -15 -21 -10
-4 -15 -20 -15 -50 0 -36 -3 -42 -16 -37 -23 8 -13 89 12 108 25 19 34 19 34
0z m-96 -20 c28 -21 10 -38 -20 -19 -13 9 -24 20 -24 25 0 13 22 10 44 -6z
m-16 -45 c40 -25 41 -31 2 -20 -37 11 -50 19 -50 31 0 14 11 11 48 -11z m142
-9 c0 -11 -4 -23 -10 -26 -6 -4 -10 5 -10 19 0 14 5 26 10 26 6 0 10 -9 10
-19z m350 -84 c0 -34 -6 -57 -22 -77 -12 -16 -22 -45 -22 -65 -1 -19 -5 -35
-10 -35 -11 0 -2 84 20 178 18 81 34 81 34 -1z m-530 53 c0 -5 -4 -10 -9 -10
-6 0 -13 5 -16 10 -3 6 1 10 9 10 9 0 16 -4 16 -10z m7 -45 c-20 -14 -47 -10
-47 7 0 5 9 7 19 3 11 -3 22 -1 26 5 4 6 10 8 13 5 4 -4 -1 -13 -11 -20z m103
-1 c0 -14 -3 -14 -15 -4 -8 7 -15 14 -15 16 0 2 7 4 15 4 8 0 15 -7 15 -16z
m520 -14 c0 -11 -4 -20 -8 -20 -4 0 -8 9 -8 20 0 11 4 20 8 20 4 0 8 -9 8 -20z
m-665 -21 c9 -27 -38 -80 -55 -63 -8 8 -4 22 12 47 27 42 34 45 43 16z m135 1
c0 -5 -4 -10 -10 -10 -5 0 -10 5 -10 10 0 6 5 10 10 10 6 0 10 -4 10 -10z
m-60 -15 c7 -8 21 -15 31 -15 11 0 19 -4 19 -10 0 -15 -33 -12 -58 6 -22 15
-29 34 -13 34 5 0 14 -7 21 -15z m398 -38 c2 -10 -3 -17 -12 -17 -9 0 -16 2
-16 4 0 2 -3 12 -6 21 -5 13 -2 16 12 13 10 -2 20 -11 22 -21z m-423 3 c3 -5
-1 -10 -10 -10 -9 0 -13 5 -10 10 3 6 8 10 10 10 2 0 7 -4 10 -10z m55 -47 c0
-7 -4 -13 -8 -13 -12 0 -32 23 -32 37 0 11 4 11 20 1 11 -7 20 -18 20 -25z
m-117 0 c3 -5 1 -17 -3 -28 -7 -19 -7 -19 -18 2 -7 12 -12 24 -12 27 0 9 28 7
33 -1z m95 -48 c27 -42 16 -46 -21 -7 -30 31 -34 42 -14 42 6 0 22 -16 35 -35z
m-64 -21 c10 -4 16 -18 16 -38 l-1 -31 -24 28 c-31 34 -26 54 9 41z m144 -13
c9 -5 -2 -15 -38 -30 -51 -22 -68 -23 -56 -2 4 6 12 8 19 5 7 -2 22 4 32 16
20 22 24 23 43 11z m227 -75 c19 -14 19 -15 -8 -27 -21 -10 -27 -19 -26 -43 1
-52 23 -155 34 -155 11 -1 11 29 0 112 -5 37 -4 57 2 57 15 0 23 -40 32 -153
6 -83 21 -132 34 -116 2 2 1 43 -2 92 -3 48 -3 87 1 87 5 0 8 -2 8 -4 0 -2 9
-39 19 -82 11 -44 23 -139 27 -211 5 -100 11 -136 22 -145 14 -12 14 -1 8 92
-6 103 -29 269 -43 320 -5 21 -4 23 8 13 8 -6 19 -11 24 -10 10 2 48 -171 60
-274 5 -43 11 -58 24 -62 15 -4 19 -20 24 -118 5 -116 20 -180 37 -163 5 5 5
37 0 79 -5 39 -9 99 -9 135 1 55 2 60 10 35 5 -16 16 -70 24 -120 17 -98 40
-159 57 -149 5 3 8 17 5 30 -2 13 0 24 4 24 5 0 9 5 9 11 0 6 -6 9 -14 6 -9
-4 -17 7 -25 32 -14 47 -14 64 -1 56 6 -3 10 -15 10 -25 0 -13 5 -17 15 -14 9
4 15 0 15 -10 0 -21 5 -20 35 6 14 12 25 31 26 42 0 17 2 16 11 -6 13 -38 26
-35 20 3 -3 22 -1 30 7 25 6 -4 11 -14 11 -23 0 -10 5 -13 18 -8 34 13 161 18
175 7 8 -7 16 -10 19 -7 8 8 -3 55 -13 55 -15 0 -10 27 5 33 14 6 44 -20 38
-32 -2 -3 1 -7 7 -9 23 -8 24 31 2 49 -17 14 -20 23 -13 35 6 11 11 13 16 5 4
-6 16 -11 26 -11 22 0 60 -45 60 -71 0 -11 -7 -19 -15 -19 -17 0 -20 -16 -5
-25 15 -9 2 -25 -15 -18 -11 3 -15 -2 -15 -18 0 -18 -3 -20 -12 -11 -16 16
-28 15 -28 -3 0 -9 -6 -12 -15 -9 -8 4 -15 1 -15 -6 0 -7 -7 -10 -15 -7 -8 4
-17 2 -21 -4 -3 -5 -14 -7 -25 -4 -23 8 -24 -2 -2 -27 25 -28 6 -35 -22 -8
-24 23 -50 21 -27 -2 7 -7 12 -17 12 -22 0 -6 -5 -4 -10 4 -12 19 -70 20 -89
2 -10 -10 -11 -16 -2 -25 6 -6 11 -16 11 -22 0 -5 -7 -2 -15 8 -16 22 -55 15
-55 -11 0 -13 -3 -13 -16 4 -15 18 -15 18 -9 -8 5 -27 -7 -38 -20 -18 -10 17
-25 11 -25 -10 0 -11 -4 -20 -10 -20 -5 0 -10 7 -10 15 0 8 -4 15 -10 15 -5 0
-10 -11 -10 -25 0 -14 -4 -25 -10 -25 -5 0 -10 9 -10 21 0 11 -4 17 -10 14 -6
-4 -8 -15 -5 -26 4 -11 2 -19 -4 -19 -6 0 -11 9 -11 19 0 14 -6 19 -20 18 -12
-1 -20 -8 -20 -19 0 -10 -4 -18 -9 -18 -4 0 -12 27 -15 61 -7 58 -8 61 -31 55
-32 -8 -55 2 -55 25 0 10 -4 19 -10 19 -5 0 -10 -7 -10 -16 0 -8 -4 -12 -10
-9 -5 3 -10 18 -10 32 0 15 -3 24 -6 20 -3 -3 -16 5 -29 19 -26 28 -35 30 -35
9 0 -8 -5 -15 -12 -15 -6 0 -20 -7 -30 -17 -17 -15 -18 -14 -18 15 0 21 -7 35
-20 42 -17 9 -20 21 -20 84 0 51 -4 77 -14 85 -11 9 -14 60 -15 256 l-1 245
24 0 c14 0 28 5 31 10 8 14 18 13 40 -4z m-170 -152 c0 -91 -4 -159 -11 -174
-18 -40 -45 -230 -42 -294 2 -36 8 -61 16 -64 9 -3 12 17 12 75 0 43 10 121
21 173 13 57 23 148 26 225 2 72 8 134 12 138 11 11 18 -196 11 -318 -3 -55
-2 -110 2 -123 11 -33 17 -221 7 -228 -5 -3 -4 -15 2 -26 9 -16 13 -18 20 -7
10 17 23 5 16 -15 -4 -9 -19 -18 -34 -22 -98 -22 -104 -25 -98 -45 7 -21 -5
-25 -22 -8 -20 20 -43 2 -43 -31 0 -18 -4 -29 -10 -25 -5 3 -10 16 -10 28 0
24 -16 13 -23 -18 -3 -14 -5 -11 -6 10 -1 31 -15 25 -24 -10 -4 -17 -5 -17 -6
4 -1 16 -5 21 -16 17 -10 -3 -15 1 -15 13 0 14 -5 18 -20 14 -11 -3 -20 -14
-20 -24 0 -11 -4 -19 -10 -19 -5 0 -10 12 -10 26 0 14 -4 23 -10 19 -5 -3 -10
1 -10 10 0 9 -4 13 -10 10 -5 -3 -10 -19 -10 -36 0 -16 -4 -29 -10 -29 -12 0
-24 45 -15 59 3 6 1 11 -4 11 -6 0 -11 -13 -11 -30 0 -16 -4 -30 -10 -30 -5 0
-10 11 -10 25 0 14 -4 25 -10 25 -5 0 -10 -9 -10 -20 0 -37 -20 -21 -21 18 -2
33 -2 34 -6 7 -3 -16 -9 -34 -15 -40 -7 -7 -9 0 -5 23 4 19 2 32 -4 32 -5 0
-12 -13 -15 -30 -4 -16 -11 -30 -16 -30 -6 0 -8 13 -4 30 3 19 2 29 -4 25 -6
-3 -10 -12 -10 -20 0 -8 -5 -17 -12 -21 -8 -5 -9 2 -5 27 6 32 6 33 -8 15 -8
-11 -15 -24 -15 -29 0 -4 -5 -5 -10 -2 -7 4 -7 13 0 26 14 26 2 24 -21 -3 -14
-17 -18 -19 -19 -8 0 9 5 21 12 28 9 9 9 12 0 12 -7 0 -12 -4 -12 -10 0 -13
-37 -13 -46 1 -3 6 -1 16 5 22 23 23 10 29 -15 6 l-27 -24 7 30 c6 28 5 29 -9
11 -8 -11 -18 -17 -21 -13 -4 4 -1 14 7 23 11 13 11 18 2 21 -7 3 -13 12 -13
21 0 13 -3 13 -12 4 -10 -10 -10 -15 2 -22 8 -5 11 -12 7 -16 -16 -16 -36 19
-35 61 0 35 7 49 33 75 23 23 39 30 53 26 15 -5 21 -1 26 16 6 23 7 23 21 4
15 -19 15 -19 15 4 0 23 0 23 15 4 14 -18 14 -18 15 9 0 31 7 34 26 10 12 -16
14 -14 15 17 1 19 3 27 6 18 5 -20 23 -25 23 -7 0 8 4 8 14 0 12 -10 15 -8 18
10 2 15 14 26 33 32 17 6 42 24 57 41 15 17 28 28 29 24 1 -5 2 -12 3 -18 0
-5 4 -10 9 -10 4 0 12 0 17 0 6 0 9 12 8 27 -2 19 2 28 15 31 13 3 17 -3 17
-30 0 -42 -9 -54 -37 -52 -20 1 -23 -4 -24 -35 l-2 -36 -6 35 c-7 38 -34 49
-39 15 -7 -44 -12 -49 -26 -30 -20 28 -36 9 -36 -45 0 -33 -5 -50 -15 -54 -8
-3 -20 -17 -25 -31 -8 -22 -16 -25 -54 -25 -26 0 -46 5 -49 13 -4 9 -7 9 -17
0 -11 -10 -11 -15 0 -28 7 -8 19 -15 27 -15 13 0 13 -3 3 -15 -11 -13 -8 -15
14 -15 57 0 117 22 127 46 4 13 13 24 19 24 5 0 10 8 11 18 0 14 2 14 9 -3 6
-13 9 -15 9 -5 2 24 41 -42 41 -68 0 -14 4 -21 11 -16 6 3 15 0 20 -7 6 -10 9
-8 9 9 0 12 5 22 10 22 6 0 10 -16 10 -35 0 -26 3 -33 15 -29 10 4 15 0 15
-11 0 -9 5 -13 10 -10 6 3 10 18 10 32 0 25 1 25 18 10 33 -30 44 -21 37 27
-14 92 40 486 75 548 6 11 6 19 0 23 -16 10 -12 22 8 27 17 5 17 0 10 -59 -4
-35 -10 -68 -14 -74 -3 -6 -9 -34 -14 -62 -4 -29 -16 -81 -26 -117 -13 -48
-18 -98 -17 -193 0 -70 2 -129 4 -131 2 -2 14 -7 27 -10 16 -6 22 -3 22 8 0 9
-4 16 -10 16 -13 0 -13 63 1 77 6 6 13 53 15 104 3 52 10 122 15 157 5 34 13
90 18 125 6 34 13 109 16 166 6 109 10 124 28 118 8 -3 12 -49 12 -153z m239
85 c31 -61 31 -59 7 -59 -12 0 -20 9 -24 29 -3 16 -9 40 -13 55 -10 41 3 31
30 -25z m88 39 c26 -22 48 -61 48 -88 l-1 -25 -15 28 c-8 15 -21 27 -30 27
-13 0 -34 37 -34 61 0 13 13 11 32 -3z m-392 -25 c0 -40 -16 -61 -32 -45 -9 9
-8 12 6 12 12 0 17 7 16 23 -3 28 -1 37 5 37 3 0 5 -12 5 -27z m380 -75 c0 -5
-4 -8 -8 -8 -15 0 -32 24 -32 45 0 19 2 18 20 -5 11 -14 20 -28 20 -32z m100
1 c0 -11 -4 -17 -10 -14 -5 3 -10 13 -10 21 0 8 5 14 10 14 6 0 10 -9 10 -21z
m-587 -229 c-3 -11 -7 -20 -9 -20 -2 0 -4 9 -4 20 0 11 4 20 9 20 5 0 7 -9 4
-20z m717 -25 c8 -8 27 -17 43 -20 30 -8 36 -22 12 -31 -8 -4 -37 12 -67 36
-38 30 -46 40 -28 35 14 -4 32 -13 40 -20z m-70 -35 c0 -5 -4 -10 -10 -10 -5
0 -10 5 -10 10 0 6 5 10 10 10 6 0 10 -4 10 -10z m-582 -92 c-11 -93 -23 -105
-14 -14 6 62 12 86 20 86 1 0 -1 -32 -6 -72z m852 52 c6 -11 25 -22 48 -25 60
-10 102 -32 96 -50 -7 -18 -30 -14 -26 5 2 8 -3 10 -13 7 -8 -4 -15 -2 -15 2
0 5 -11 8 -25 7 -14 0 -25 -5 -25 -9 0 -5 -9 -5 -20 -2 -14 5 -20 2 -20 -9 0
-9 -4 -16 -9 -16 -5 0 -8 6 -7 13 0 6 -3 13 -9 15 -5 1 -11 -9 -13 -23 -2 -14
-7 -25 -12 -25 -4 0 -6 10 -3 21 4 16 2 20 -8 17 -8 -3 -13 -15 -11 -26 2 -12
-2 -22 -7 -22 -6 0 -11 9 -11 20 0 11 -4 20 -10 20 -5 0 -10 -7 -10 -15 0 -8
-7 -15 -16 -15 -9 0 -14 5 -12 12 4 12 6 13 80 48 42 19 47 24 38 41 -13 24
-26 24 -75 -1 -49 -25 -59 -18 -14 9 44 27 95 28 109 1z m-210 -77 c0 -19 -47
-16 -54 3 -3 9 -4 19 -1 24 7 11 55 -12 55 -27z m50 17 c0 -5 -4 -10 -10 -10
-5 0 -10 5 -10 10 0 6 5 10 10 10 6 0 10 -4 10 -10z m-825 -50 c-3 -5 -10 -10
-16 -10 -5 0 -9 5 -9 10 0 6 7 10 16 10 8 0 12 -4 9 -10z m1085 -5 c0 -8 -4
-15 -10 -15 -5 0 -10 7 -10 15 0 8 5 15 10 15 6 0 10 -7 10 -15z m-107 -45
c10 0 15 -4 12 -10 -9 -15 -39 -12 -61 6 -18 15 -18 15 6 10 14 -3 33 -6 43
-6z m-984 -36 c2 -2 -10 -4 -27 -4 -17 0 -34 4 -37 10 -5 9 53 3 64 -6z m9
-61 c-2 -14 -8 -28 -14 -30 -7 -2 -9 8 -6 27 5 37 25 40 20 3z m456 -48 c3 -8
1 -15 -4 -15 -6 0 -10 7 -10 15 0 8 2 15 4 15 2 0 6 -7 10 -15z m656 -6 c0 -5
-7 -9 -15 -9 -9 0 -12 6 -9 15 6 15 24 11 24 -6z m-690 -29 c0 -5 -4 -10 -10
-10 -5 0 -10 5 -10 10 0 6 5 10 10 10 6 0 10 -4 10 -10z m-149 -381 c-9 -22
-10 -22 -10 -3 -1 11 2 24 6 27 12 12 14 0 4 -24z m8 -146 c1 -7 -3 -13 -9
-13 -5 0 -10 15 -9 33 0 27 2 29 9 12 5 -11 9 -26 9 -32z m159 -183 c-12 -36
-28 -50 -21 -18 6 22 21 48 29 48 1 0 -2 -14 -8 -30z m-61 -32 c-3 -7 -5 -2
-5 12 0 14 2 19 5 13 2 -7 2 -19 0 -25z m-124 -125 c-11 -29 -35 -64 -41 -58
-9 9 30 74 45 75 1 0 -1 -8 -4 -17z m238 -24 c-6 -16 -10 -18 -10 -7 -1 22 12
55 16 42 2 -6 -1 -22 -6 -35z m46 -31 c-3 -7 -5 -2 -5 12 0 14 2 19 5 13 2 -7
2 -19 0 -25z m-150 -20 c-3 -7 -5 -2 -5 12 0 14 2 19 5 13 2 -7 2 -19 0 -25z
m-145 -280 c0 -13 0 -32 -1 -42 -1 -11 8 -30 21 -43 23 -25 19 -37 -15 -38
-15 0 -23 -7 -25 -23 -3 -20 -5 -21 -19 -7 -12 13 -14 28 -9 73 4 31 7 67 8
80 0 15 6 22 19 22 13 0 20 -8 21 -22z m58 -34 c0 -13 -4 -24 -10 -24 -5 0
-10 14 -10 31 0 17 4 28 10 24 6 -3 10 -17 10 -31z m110 -94 c0 -12 10 -24 23
-30 18 -7 14 -9 -22 -9 -35 -1 -42 2 -33 11 7 7 12 20 12 30 0 10 5 18 10 18
6 0 10 -9 10 -20z"/>
<g>
<path d="M1122 1592 c-31 -9 -29 -21 8 -43 39 -24 54 -24 47 0 -3 14 0 17 13
14 17 -5 37 13 27 23 -9 9 -72 13 -95 6z"/>
</g>
<g>
<path d="M1042 1520 c6 -18 98 -44 110 -32 13 13 -17 29 -72 38 -33 5 -42 4
-38 -6z"/>
</g>
<g>
<path d="M1446 1488 c-9 -5 -16 -13 -16 -17 0 -23 89 -18 90 4 1 14 -55 24
-74 13z"/>
</g>
<g>
<path d="M1006 1471 c-8 -12 -4 -14 59 -30 50 -13 65 -14 65 -1 0 24 -112 52
-124 31z"/>
</g>
<g>
<path d="M1453 1418 c2 -7 12 -13 22 -13 10 0 20 6 23 13 2 7 -6 12 -23 12
-17 0 -25 -5 -22 -12z"/>
</g>
<g>
<path d="M970 1401 c0 -5 19 -11 43 -15 23 -4 57 -9 75 -12 42 -8 42 10 1 25
-38 13 -119 15 -119 2z"/>
</g>
<g>
<path d="M1450 1362 c0 -17 -4 -34 -10 -37 -5 -3 -10 -1 -10 5 0 6 -10 10 -22
8 -29 -4 -31 -38 -3 -48 24 -9 65 5 66 22 1 7 3 23 4 35 1 13 -4 28 -11 34
-11 9 -14 6 -14 -19z"/>
</g>
<g>
<path d="M941 1352 c-21 -15 0 -21 83 -29 67 -5 76 -4 76 11 0 11 -9 16 -29
16 -15 0 -48 2 -72 5 -24 3 -50 2 -58 -3z"/>
</g>
<g>
<path d="M1534 1334 c-15 -22 -15 -27 -3 -35 20 -13 41 -11 64 7 20 15 20 15
-4 35 -30 25 -37 24 -57 -7z"/>
</g>
<g>
<path d="M1270 1282 c0 -28 4 -53 8 -56 8 -5 5 95 -4 103 -2 2 -4 -19 -4 -47z"/>
</g>
<g>
<path d="M945 1270 c-3 -6 6 -15 22 -21 35 -13 123 -2 123 16 0 16 -135 20
-145 5z"/>
</g>
<g>
<path d="M1003 1209 c-49 -19 -70 -40 -40 -39 33 1 141 37 145 48 6 18 -45 14
-105 -9z"/>
</g>
<g>
<path d="M1643 1195 c-8 -9 -9 -16 -3 -20 6 -3 13 1 16 10 9 21 2 26 -13 10z"/>
</g>
<g>
<path d="M1070 1175 c-19 -13 -44 -24 -55 -25 -20 -1 -55 -22 -55 -34 0 -10
34 -7 61 8 14 7 37 16 51 19 31 8 61 35 53 48 -9 13 -16 11 -55 -16z"/>
</g>
<g>
<path d="M1578 1186 c-10 -7 -18 -22 -17 -32 0 -14 2 -15 6 -4 3 8 12 23 21
33 18 20 14 22 -10 3z"/>
</g>
<g>
<path d="M1290 1155 c0 -8 5 -15 10 -15 6 0 10 7 10 15 0 8 -4 15 -10 15 -5 0
-10 -7 -10 -15z"/>
</g>
<g>
<path d="M1072 1119 c-23 -17 -42 -38 -42 -47 0 -13 4 -12 23 5 12 11 39 28
60 38 20 9 37 21 37 26 0 18 -38 8 -78 -22z"/>
</g>
<g>
<path d="M1300 1116 c0 -8 9 -20 21 -26 19 -11 20 -10 10 9 -15 27 -31 36 -31
17z"/>
</g>
<g>
<path d="M1098 1076 c-45 -39 -47 -49 -10 -40 27 7 82 50 82 66 0 18 -37 5
-72 -26z"/>
</g>
<g>
<path d="M1535 1089 c-4 -12 -2 -26 4 -32 8 -8 11 -2 11 21 0 37 -6 41 -15 11z"/>
</g>
<g>
<path d="M1150 1044 c-54 -51 -63 -69 -27 -58 27 8 52 30 78 66 33 46 2 42
-51 -8z"/>
</g>
<g>
<path d="M1500 955 c-14 -36 -13 -37 10 -23 22 14 26 33 10 43 -6 3 -15 -6
-20 -20z"/>
</g>
<g>
<path d="M1831 1609 c-33 -13 -81 -49 -81 -60 0 -5 18 0 40 11 23 11 53 25 68
30 27 10 27 10 5 -6 -13 -9 -23 -22 -23 -29 0 -7 -16 -17 -36 -22 -40 -9 -43
-29 -4 -24 29 4 65 22 98 50 26 22 28 31 7 31 -8 0 -14 6 -12 12 3 16 -31 20
-62 7z"/>
</g>
<g>
<path d="M1900 1526 c-6 -18 -20 -27 -44 -32 -33 -6 -65 -29 -55 -39 6 -5 78
16 101 30 20 12 36 65 19 65 -6 0 -16 -11 -21 -24z"/>
</g>
<g>
<path d="M1895 1453 c-44 -6 -86 -24 -79 -35 3 -5 15 -6 27 -2 12 4 40 10 61
13 22 3 41 12 44 19 2 6 -2 11 -10 11 -7 -1 -26 -4 -43 -6z"/>
</g>
<g>
<path d="M1882 1386 c-54 -14 -70 -22 -60 -32 9 -8 149 20 151 31 3 15 -32 15
-91 1z"/>
</g>
<g>
<path d="M1825 1321 c-14 -13 16 -21 80 -21 82 0 110 16 43 24 -45 5 -117 4
-123 -3z"/>
</g>
<g>
<path d="M1823 1273 c9 -15 89 -35 122 -31 40 4 43 25 3 25 -18 0 -55 3 -82 8
-33 5 -47 5 -43 -2z"/>
</g>
<g>
<path d="M1830 1218 c42 -39 131 -73 129 -50 0 8 -129 73 -144 72 -5 0 1 -10
15 -22z"/>
</g>
<g>
<path d="M1810 1173 c0 -12 15 -24 43 -35 67 -28 76 -21 20 17 -60 40 -63 41
-63 18z"/>
</g>
<g>
<path d="M1785 1139 c-7 -11 22 -38 41 -39 6 0 17 -7 24 -15 15 -18 67 -45 74
-38 4 5 -118 103 -128 103 -3 0 -8 -5 -11 -11z"/>
</g>
<g>
<path d="M1754 1099 c-7 -12 83 -98 105 -99 15 0 8 12 -39 63 -34 37 -57 50
-66 36z"/>
</g>
<g>
<path d="M1720 1070 c0 -13 102 -121 108 -115 8 7 -81 125 -94 125 -8 0 -14
-5 -14 -10z"/>
</g>
<g>
<path d="M1690 1045 c0 -16 70 -118 90 -130 20 -12 9 15 -30 74 -43 65 -60 81
-60 56z"/>
</g>
<g>
<path d="M2757 763 c-15 -14 -6 -41 16 -47 58 -15 103 7 77 39 -12 15 -81 21
-93 8z"/>
</g>
<g>
<path d="M2643 693 c-29 -2 -53 -8 -53 -13 0 -17 58 -40 102 -41 24 -1 32 -3
18 -5 -49 -8 -100 -25 -100 -34 0 -20 44 -32 92 -27 36 5 48 3 45 -6 -2 -7
-30 -15 -63 -19 -104 -13 -124 -18 -124 -34 0 -22 29 -29 43 -11 7 10 35 19
73 23 l61 6 5 -32 c3 -21 0 -34 -9 -37 -22 -9 -15 -23 12 -23 23 0 25 4 25 45
0 43 1 44 28 40 101 -16 115 -15 133 1 11 10 19 20 19 23 0 15 -68 45 -119 52
l-56 7 67 -1 c106 -1 98 12 -17 26 -21 3 -17 4 15 6 56 1 42 18 -20 24 l-45 4
48 1 c34 1 47 6 45 15 -5 12 -119 18 -225 10z m87 -23 c12 -8 10 -10 -10 -10
-14 0 -32 5 -40 10 -12 8 -10 10 10 10 14 0 32 -5 40 -10z m-12 -67 c-10 -2
-26 -2 -35 0 -10 3 -2 5 17 5 19 0 27 -2 18 -5z m171 -36 c14 -6 26 -18 29
-25 3 -10 -11 -11 -65 -6 -37 4 -72 10 -77 14 -29 27 65 42 113 17z"/>
</g>
<g>
<path d="M1608 548 c-6 -41 2 -118 13 -118 16 0 18 18 12 84 -6 71 -18 86 -25
34z"/>
</g>
<g>
<path d="M2830 480 c0 -5 7 -10 15 -10 8 0 15 5 15 10 0 6 -7 10 -15 10 -8 0
-15 -4 -15 -10z"/>
</g>
<g>
<path d="M72 298 c4 -25 28 -37 28 -14 0 22 37 20 42 -1 2 -10 2 -53 -2 -96
-3 -43 -3 -80 -1 -83 2 -2 16 -4 30 -4 l26 0 0 97 c0 86 2 98 18 101 12 3 20
-4 24 -18 7 -28 27 -20 31 13 l3 27 -101 0 c-98 0 -101 -1 -98 -22z"/>
</g>
<g>
<path d="M309 318 c0 -2 -3 -51 -5 -110 l-5 -108 25 0 c25 0 26 3 26 55 l0 55
40 0 c39 0 40 -1 42 -37 1 -21 2 -47 2 -58 1 -18 9 -21 34 -17 4 1 6 52 4 113
-3 107 -4 110 -25 107 -19 -3 -21 -8 -19 -45 l3 -42 -38 3 c-35 2 -38 4 -39
32 0 36 -10 54 -30 54 -8 0 -14 -1 -15 -2z"/>
</g>
<g>
<path d="M495 310 c-3 -5 -1 -10 4 -10 7 0 11 -36 11 -100 l0 -100 65 0 c53 0
66 3 75 19 13 26 13 31 -5 31 -8 0 -15 -6 -15 -14 0 -14 -46 -26 -68 -18 -13
4 -17 137 -6 166 9 24 55 20 61 -4 6 -24 19 -26 27 -4 12 30 -13 44 -80 44
-34 0 -66 -4 -69 -10z"/>
</g>
<g>
<path d="M720 302 c0 -4 5 -13 11 -19 16 -16 13 -165 -4 -175 -7 -4 6 -8 31
-8 l43 0 -3 53 -3 52 33 3 34 3 -4 -53 c-3 -53 -3 -53 27 -56 l31 -3 -7 78
c-4 43 -4 90 -2 106 5 25 3 27 -25 27 -30 0 -31 -2 -29 -37 2 -36 0 -38 -32
-41 l-34 -3 7 40 6 41 -40 0 c-22 0 -40 -4 -40 -8z"/>
</g>
<g>
<path d="M984 295 c3 -9 -1 -52 -9 -98 -19 -104 -19 -97 10 -97 26 0 32 9 15
26 -5 5 -7 20 -3 32 5 19 11 23 42 20 33 -3 36 -6 39 -36 4 -39 32 -54 99 -50
52 2 64 14 29 28 -23 8 -26 15 -26 59 0 27 4 52 8 55 4 2 20 -17 35 -44 28
-51 69 -90 93 -90 11 0 14 20 14 87 0 66 4 91 17 105 15 17 14 18 -25 18 -23
0 -42 -4 -42 -10 0 -5 4 -10 9 -10 13 0 20 -50 12 -95 l-7 -40 -26 45 c-15 25
-35 60 -44 78 -14 26 -24 32 -49 32 l-31 0 2 -95 c2 -77 0 -95 -12 -95 -17 0
-16 -2 -45 108 l-21 82 -45 0 c-36 0 -44 -3 -39 -15z m69 -54 c10 -39 6 -45
-22 -36 -15 4 -21 15 -21 34 0 53 29 54 43 2z"/>
</g>
<g>
<path d="M1391 285 c-26 -23 -31 -34 -31 -70 0 -89 35 -119 126 -109 l54 7 0
38 0 39 -45 0 c-25 0 -45 -4 -45 -10 0 -5 9 -10 21 -10 29 0 18 -24 -13 -28
-47 -6 -69 53 -39 108 16 30 24 35 55 35 53 0 49 20 -5 23 -38 2 -52 -2 -78
-23z"/>
</g>
<g>
<path d="M1560 301 c0 -6 4 -12 9 -15 5 -3 6 -47 3 -97 l-5 -92 64 6 c68 8 73
10 84 45 5 17 2 22 -10 22 -9 0 -19 -9 -22 -21 -4 -15 -12 -19 -32 -17 -22 2
-26 8 -26 33 0 20 5 30 15 30 8 0 15 9 15 20 0 14 -6 19 -17 17 -14 -2 -18 4
-18 28 0 27 3 30 30 30 20 0 30 -5 30 -15 0 -8 7 -15 15 -15 9 0 15 9 15 25 0
24 -2 25 -75 25 -41 0 -75 -4 -75 -9z"/>
</g>
<g>
<path d="M1759 225 c2 -52 -1 -91 -8 -99 -16 -20 -8 -22 61 -16 72 6 114 28
129 68 13 35 5 63 -28 99 -25 26 -35 30 -93 32 l-65 2 4 -86z m125 33 c23 -33
20 -71 -9 -102 -29 -31 -68 -32 -73 -2 -2 10 -1 43 3 72 6 51 8 54 35 54 18 0
34 -8 44 -22z"/>
</g>
<g>
<path d="M2075 291 c8 -26 -33 -161 -51 -168 -24 -9 -15 -23 14 -23 25 0 28 5
42 62 8 34 20 63 25 65 6 2 24 -26 40 -62 16 -36 32 -65 36 -65 16 0 46 41 59
81 21 61 30 57 30 -15 l0 -66 29 0 c17 0 33 5 36 10 3 6 1 10 -5 10 -8 0 -10
28 -8 90 3 82 1 89 -17 94 -41 11 -63 7 -58 -12 5 -21 -28 -114 -42 -118 -6
-2 -21 22 -34 54 -32 75 -38 82 -73 82 -24 0 -28 -3 -23 -19z"/>
</g>
<g>
<path d="M2394 293 c8 -19 -10 -137 -25 -165 -13 -25 -12 -28 10 -28 15 0 20
10 25 45 7 43 9 45 41 45 30 0 35 -4 52 -45 l18 -45 63 0 c56 0 63 2 58 18
-26 92 -15 120 23 60 35 -55 54 -70 83 -66 22 3 23 7 23 80 0 48 5 82 13 89
20 21 14 29 -23 29 -34 0 -46 -12 -25 -25 13 -8 13 -105 0 -105 -5 0 -15 10
-21 23 -6 12 -23 41 -38 64 -24 40 -29 42 -71 42 -41 0 -43 -1 -26 -14 16 -12
19 -26 17 -92 -1 -43 -6 -82 -11 -87 -16 -16 -42 16 -84 104 -38 80 -43 85
-75 88 -29 3 -33 1 -27 -15z m60 -55 c5 -24 3 -28 -14 -28 -15 0 -20 7 -20 28
0 52 22 52 34 0z"/>
</g>
<g>
<path d="M575 220 c-7 -21 0 -40 16 -40 5 0 9 14 9 30 0 34 -15 40 -25 10z"/>
</g>
<g>
<path d="M2804 119 c-7 -12 15 -31 31 -26 6 2 11 11 13 20 4 19 -32 24 -44 6z"/>
</g>
<g>
<path d="M1396 4241 c-3 -5 1 -14 9 -21 12 -10 15 -10 15 3 0 19 -16 31 -24
18z"/>
</g>
<g>
<path d="M1390 2861 c0 -11 26 -22 34 -14 12 12 5 23 -14 23 -11 0 -20 -4 -20
-9z"/>
</g>
<g>
<path d="M1397 2824 c-3 -3 -3 -12 0 -20 3 -8 0 -14 -7 -14 -6 0 -8 -5 -4 -11
3 -6 17 -9 31 -6 21 4 23 2 19 -22 -7 -30 7 -57 23 -47 13 9 15 106 2 106 -6
0 -13 -4 -16 -10 -11 -18 -23 -11 -18 10 5 19 -15 29 -30 14z"/>
</g>
<g>
<path d="M1400 2720 c0 -5 5 -10 11 -10 5 0 7 5 4 10 -3 6 -8 10 -11 10 -2 0
-4 -4 -4 -10z"/>
</g>
<g>
<path d="M1465 2243 c3 -38 8 -112 11 -165 5 -91 17 -128 30 -95 6 17 -12 286
-22 310 -14 38 -24 13 -19 -50z"/>
</g>
<g>
<path d="M1308 1833 c-10 -2 -18 -13 -18 -24 0 -20 15 -26 25 -9 3 5 13 6 21
3 12 -4 15 -1 13 12 -4 20 -15 25 -41 18z"/>
</g>
</g>
<g>
<path d="M2993 5230 c0 -25 2 -35 4 -22 2 12 2 32 0 45 -2 12 -4 2 -4 -23z"/>
</g>
<g>
<path d="M1515 5242 c-1 -2 -54 -4 -116 -5 -80 -1 -114 -6 -117 -14 -2 -9 8
-13 33 -13 24 0 44 -8 62 -25 26 -24 26 -25 9 -44 -11 -12 -34 -23 -52 -27
-19 -3 -34 -11 -34 -17 0 -13 450 -1 464 13 7 7 -7 10 -42 10 l-52 0 0 45 c0
43 1 45 29 45 40 0 61 9 61 26 0 12 -21 14 -121 12 -66 -2 -122 -4 -124 -6z
m33 -74 c3 -47 2 -48 -26 -48 -16 0 -37 9 -46 19 -17 19 -17 21 5 51 36 47 63
38 67 -22z m-108 32 c0 -5 -4 -10 -10 -10 -5 0 -10 5 -10 10 0 6 5 10 10 10 6
0 10 -4 10 -10z m188 -32 c-3 -43 -13 -54 -37 -39 -22 14 -6 81 20 81 17 0 20
-6 17 -42z m-184 -44 c4 -11 1 -14 -11 -12 -9 2 -18 9 -21 16 -6 18 25 15 32
-4z"/>
</g>
</g>
</svg>
