<?xml version="1.0" standalone="no"?>
<!DOCTYPE svg PUBLIC "-//W3C//DTD SVG 20010904//EN"
 "http://www.w3.org/TR/2001/REC-SVG-20010904/DTD/svg10.dtd">
<svg version="1.0" xmlns="http://www.w3.org/2000/svg"
 width="300.000000pt" height="530.000000pt" viewBox="0 0 300.000000 530.000000"
 preserveAspectRatio="xMidYMid meet">
<metadata>
Created by potrace 1.15, written by Peter Selinger 2001-2017
</metadata>
<g transform="translate(0.000000,530.000000) scale(0.100000,-0.100000)"
fill="#000000" stroke="none">
<g>
<path d="M23 5292 l-23 -3 0 -2645 0 -2644 1500 0 1500 0 -2 138 -2 137 -3
-127 -4 -128 -27 0 c-35 -1 -2668 -1 -2829 0 l-123 0 0 370 c0 323 2 369 15
364 10 -4 13 -15 10 -30 -3 -13 -7 -35 -10 -49 -4 -18 -1 -25 10 -25 9 0 15
-9 15 -23 0 -27 26 -67 44 -67 8 0 19 7 26 15 12 14 15 14 30 0 15 -14 21 -14
39 -4 11 7 24 10 28 6 4 -5 1 -12 -6 -16 -10 -7 -5 -16 20 -40 39 -37 76 -39
71 -4 -2 16 2 23 13 23 12 0 14 -6 9 -26 -6 -22 -4 -25 12 -22 11 2 20 10 20
18 3 32 6 34 13 10 8 -30 54 -50 79 -33 13 8 17 24 16 62 -1 29 3 51 8 51 11
0 5 76 -7 88 -3 4 -17 -8 -31 -26 -26 -33 -55 -41 -78 -20 -7 7 -11 20 -9 29
6 22 -14 34 -33 18 -21 -17 -26 -6 -11 24 12 24 15 25 29 10 33 -32 45 2 21
63 -5 14 -2 16 15 12 16 -4 28 1 41 18 10 13 25 24 33 24 8 0 17 3 20 6 10 10
-24 65 -46 74 -20 8 -19 9 6 9 25 1 58 -21 58 -39 0 -16 59 -32 98 -25 36 6
40 4 46 -19 9 -37 49 -45 86 -17 40 29 50 26 44 -11 -3 -18 2 -53 9 -77 18
-57 52 -72 104 -47 41 20 63 20 133 1 49 -13 56 -13 66 0 15 20 21 19 27 -6 5
-17 12 -20 46 -18 44 3 45 2 35 -36 -4 -15 1 -40 12 -63 14 -28 17 -56 16
-114 l-3 -77 43 -5 c24 -3 77 -7 118 -10 l75 -5 -45 15 c-70 22 -74 30 -75
147 -1 80 -5 110 -18 130 -23 36 -22 51 5 44 12 -3 30 -1 40 4 30 16 38 2 22
-42 -10 -30 -12 -64 -8 -128 l7 -86 45 -42 c25 -24 47 -41 49 -39 7 7 -21 46
-33 46 -21 0 -35 54 -37 145 -2 85 -1 90 18 87 57 -10 111 -1 168 28 75 38
119 39 141 5 15 -23 15 -25 -4 -35 -11 -6 -24 -9 -28 -6 -9 5 -65 -13 -96 -30
-28 -17 -13 -40 30 -49 21 -4 50 -15 64 -25 14 -10 49 -21 79 -25 30 -4 68
-13 86 -21 38 -16 67 -10 83 17 10 15 10 33 1 84 -11 57 -10 67 4 83 12 13 17
37 17 80 0 67 8 79 42 61 l23 -12 -28 -10 c-28 -9 -34 -21 -16 -32 5 -4 18 0
27 8 9 7 25 17 35 20 12 5 16 13 13 25 -8 24 45 45 80 32 13 -5 31 -7 39 -4 8
4 15 2 15 -4 0 -5 -9 -12 -20 -15 -23 -6 -27 -37 -5 -37 8 0 15 7 15 15 0 9 7
15 17 13 21 -4 29 27 13 47 -7 8 -27 15 -46 15 -41 0 -49 11 -23 33 14 13 19
30 19 72 0 30 -4 55 -10 55 -5 0 -10 -24 -10 -52 0 -73 -9 -84 -47 -64 -30 15
-31 17 -43 131 -7 64 -10 141 -6 171 4 32 2 54 -3 54 -23 0 -34 -99 -22 -200
10 -86 2 -122 -20 -90 -11 16 -5 153 11 260 5 36 10 160 10 276 l0 212 32 -30
c25 -24 38 -29 61 -24 20 4 36 0 54 -14 14 -11 32 -20 39 -20 7 0 27 -13 44
-29 36 -32 89 -51 148 -51 42 0 52 -10 52 -56 0 -13 5 -24 10 -24 6 0 8 11 4
27 -6 22 -4 25 10 20 11 -4 16 -1 16 12 0 17 48 67 56 58 2 -2 -1 -26 -6 -53
-6 -27 -15 -116 -20 -199 -9 -153 -23 -230 -41 -220 -5 4 -7 9 -5 13 2 4 7 80
11 169 6 139 5 163 -8 163 -11 0 -16 -20 -21 -82 -15 -190 -24 -277 -30 -287
-10 -16 -31 -14 -46 5 -11 12 -11 33 -1 112 7 53 19 119 27 146 8 27 12 51 10
54 -9 9 -36 -46 -45 -93 -33 -172 -36 -245 -13 -245 5 0 17 -6 27 -14 16 -11
17 -16 7 -29 -18 -21 -26 -156 -11 -184 10 -18 8 -25 -10 -45 -12 -12 -32 -24
-44 -25 -71 -5 -137 -17 -137 -24 0 -5 -14 -29 -32 -54 -25 -36 -30 -49 -22
-63 13 -20 93 -18 139 4 34 16 115 88 115 102 0 5 20 15 44 21 25 6 48 16 51
21 4 6 16 8 27 5 21 -7 58 19 58 41 0 8 6 11 16 7 17 -6 64 33 64 55 0 12 3
12 15 2 14 -12 14 -15 0 -30 -26 -29 -2 -31 37 -5 32 21 38 23 48 10 10 -12
10 -19 -3 -33 -23 -25 -8 -40 38 -41 22 0 57 -3 78 -7 28 -5 37 -3 37 8 0 20
-42 58 -66 58 -17 0 -17 2 4 18 31 24 20 52 -19 52 -27 0 -29 -2 -24 -30 6
-36 -4 -38 -28 -5 -18 24 -17 25 18 39 25 11 35 21 35 37 0 15 4 19 16 15 9
-3 18 -6 20 -6 2 0 4 -9 4 -19 0 -31 28 -51 71 -51 37 0 39 2 39 29 0 18 8 35
20 44 18 13 20 25 19 175 -1 177 -2 182 -64 182 l-26 0 3 117 3 117 33 8 c18
5 36 16 39 24 7 19 -29 54 -57 54 -39 0 -21 27 22 34 32 5 39 9 28 16 -8 6
-27 7 -42 4 -17 -3 -28 -1 -28 5 0 6 14 11 31 11 17 0 28 4 24 10 -3 6 -17 10
-31 10 -31 0 -31 14 1 28 45 21 21 51 -29 38 -19 -5 -25 -14 -28 -39 -2 -27
-8 -33 -31 -35 -32 -4 -47 -29 -26 -43 8 -5 24 -7 36 -4 12 3 24 1 27 -3 9
-15 -9 -29 -46 -36 -57 -10 -43 -36 18 -36 37 0 28 -18 -11 -22 -20 -2 -35 -7
-35 -13 0 -5 16 -9 34 -7 l34 3 4 -118 c4 -114 4 -119 -20 -142 l-24 -23 7 56
c6 47 5 56 -8 56 -9 0 -19 -4 -22 -10 -3 -5 -21 -10 -39 -10 -17 0 -37 -5 -44
-12 -9 -9 -12 -8 -12 5 0 9 -5 17 -10 17 -16 0 -26 -33 -12 -38 17 -5 15 -57
-2 -71 -24 -20 -27 2 -15 116 7 59 13 131 14 160 2 28 6 56 9 61 4 6 -3 46
-15 89 -24 90 -34 236 -16 230 7 -2 13 -13 15 -25 5 -34 28 -47 58 -33 22 9
25 17 22 41 -3 18 1 35 9 41 7 6 13 17 13 24 0 7 11 20 25 29 19 13 24 22 19
38 -4 15 1 26 20 42 22 17 27 30 29 74 2 43 -2 57 -18 70 -12 10 -20 29 -20
47 0 24 5 31 32 38 31 9 31 10 30 68 -2 58 -3 59 -27 54 -20 -4 -27 0 -37 20
-9 20 -8 25 3 25 8 0 14 4 14 8 0 19 -15 21 -36 7 -25 -16 -54 -11 -54 11 0 7
8 17 17 23 10 5 14 13 10 17 -4 4 -17 -2 -30 -14 -34 -32 -89 -29 -126 6 -35
34 -60 128 -68 258 -5 78 -2 99 17 150 58 156 77 328 46 411 -8 21 -17 51 -21
67 -3 15 -13 39 -22 52 -17 26 -112 94 -132 94 -6 0 -11 7 -11 15 0 18 31 20
49 3 10 -11 15 -9 26 5 7 10 17 17 21 15 18 -5 74 12 74 22 0 5 -12 10 -27 10
l-27 0 22 16 c23 16 20 39 -4 30 -11 -4 -12 -1 -4 13 10 19 41 19 66 -1 7 -5
16 -3 23 6 8 10 9 16 1 21 -5 3 -10 11 -10 18 0 8 3 8 12 -1 17 -17 48 -15 48
3 0 9 -7 32 -15 52 -10 23 -13 49 -9 66 7 33 -6 47 -45 47 -20 0 -22 3 -13 12
22 22 14 48 -15 54 -40 8 -83 94 -48 94 8 0 15 5 15 10 0 6 -6 10 -14 10 -8 0
-18 -4 -21 -10 -7 -11 -45 -14 -45 -4 0 3 10 14 23 24 26 21 15 40 -13 22 -27
-16 -30 -15 -30 9 0 18 -5 21 -30 17 -16 -3 -30 -1 -30 4 0 4 -4 8 -10 8 -5 0
-10 -11 -10 -24 0 -16 -5 -23 -17 -22 -10 0 -19 -9 -23 -24 -4 -16 -14 -26
-28 -28 -24 -4 -29 7 -10 26 9 9 9 15 0 24 -10 10 -14 8 -19 -10 -3 -14 -16
-24 -32 -28 -75 -16 -71 -16 -71 15 0 16 -4 33 -10 36 -16 10 -12 43 6 53 13
7 14 13 5 31 -7 11 -16 21 -20 21 -11 0 6 79 23 105 7 11 16 32 19 47 4 14 23
47 42 72 44 58 40 86 -14 111 -31 14 -63 16 -178 13 -130 -3 -142 -5 -176 -28
-20 -14 -37 -32 -37 -41 0 -20 31 -49 52 -49 18 0 37 -36 67 -127 26 -79 26
-91 -1 -95 -32 -4 -36 -44 -7 -75 20 -20 21 -26 9 -34 -13 -8 -13 -10 0 -19 8
-5 23 -10 32 -10 17 0 102 53 113 71 9 14 25 11 25 -6 0 -8 -15 -28 -32 -44
-30 -27 -31 -30 -14 -37 13 -5 24 -1 36 16 11 15 19 19 24 11 4 -6 -6 -22 -23
-37 -17 -14 -28 -30 -25 -36 4 -6 10 -6 17 1 6 6 17 11 24 11 23 0 14 -17 -17
-30 -31 -13 -37 -24 -20 -35 6 -4 -2 -18 -19 -34 -24 -23 -31 -39 -37 -90 -3
-34 -11 -64 -16 -67 -6 -4 -27 -1 -48 6 -53 17 -54 27 -25 258 2 17 0 32 -3
32 -18 0 -31 -44 -33 -111 -1 -47 -8 -83 -18 -99 -9 -14 -21 -54 -26 -90 l-11
-65 -59 3 c-160 7 -280 50 -422 152 -65 47 -70 63 -35 103 20 23 41 22 100 -8
48 -24 53 -24 133 -14 159 20 168 28 125 116 -13 26 -33 87 -44 134 -17 76
-18 98 -9 174 8 69 8 88 -3 95 -22 14 -8 195 20 250 28 56 58 90 81 90 22 0
42 24 37 46 -6 36 -60 54 -182 63 -93 7 -131 6 -184 -6 -91 -21 -141 -47 -142
-75 0 -18 35 -38 70 -38 44 0 58 -18 104 -132 30 -76 32 -88 11 -88 -8 0 -20
-10 -26 -22 -10 -18 -8 -24 10 -39 l21 -17 -51 -87 c-28 -47 -49 -89 -46 -92
3 -2 13 8 23 24 9 15 30 47 45 70 16 23 29 48 29 55 0 23 22 38 56 38 44 0 53
-18 12 -22 -34 -3 -33 0 -58 -98 -7 -25 -16 -54 -21 -65 -5 -11 -15 -47 -23
-80 -17 -70 -72 -197 -110 -256 -20 -30 -32 -39 -44 -34 -9 4 -31 9 -47 12
-47 8 -59 43 -34 105 11 28 35 69 53 92 41 51 57 82 21 41 -50 -57 -65 -76
-82 -106 -18 -31 -33 -38 -33 -15 0 7 -12 21 -26 31 -15 10 -23 22 -20 31 3 8
1 23 -6 33 -17 28 53 218 94 252 26 22 29 28 19 47 -15 28 -70 36 -252 37
-131 0 -149 -2 -168 -19 -29 -26 -26 -44 13 -82 19 -18 44 -58 55 -89 11 -30
32 -73 46 -95 26 -41 31 -60 16 -60 -5 0 -12 -8 -16 -17 -4 -12 2 -24 20 -39
26 -21 27 -22 10 -47 -9 -14 -14 -30 -12 -34 3 -5 8 -37 11 -72 4 -36 11 -70
17 -78 6 -7 9 -24 7 -38 -3 -13 -1 -22 3 -19 5 3 9 14 9 24 0 10 5 22 11 26 8
4 9 0 4 -15 -4 -14 -2 -21 6 -21 7 0 3 -9 -9 -20 -34 -32 -48 -70 -46 -123 3
-64 18 -97 59 -127 40 -29 43 -47 15 -83 -11 -14 -20 -34 -20 -45 0 -14 -9
-22 -29 -27 -43 -9 -54 -29 -55 -98 -1 -60 -2 -62 -28 -65 -30 -4 -36 -18 -36
-87 0 -26 -12 -66 -37 -115 -20 -41 -50 -111 -66 -155 -17 -44 -36 -90 -44
-101 -17 -26 -51 -133 -60 -189 -4 -22 -11 -46 -17 -52 -6 -7 -8 -19 -5 -28 4
-8 2 -17 -3 -20 -22 -13 4 170 27 193 7 7 10 19 6 27 -3 9 0 22 7 30 7 8 10
21 7 30 -4 8 1 22 10 31 14 13 14 17 2 25 -12 8 -11 11 3 19 10 6 14 18 11 30
-3 11 -1 20 5 20 6 0 8 9 5 21 -4 15 0 22 16 26 21 5 30 23 11 23 -5 0 -10 5
-10 10 0 6 7 10 15 10 8 0 15 5 15 10 0 6 -4 10 -10 10 -21 0 -9 20 15 26 20
5 23 9 14 20 -9 11 -8 14 6 14 11 0 15 5 12 14 -3 9 3 17 16 21 19 6 20 8 5
12 -24 6 -23 10 8 37 20 17 25 28 20 44 -9 28 -38 28 -62 0 -19 -23 -19 -23 2
-5 19 16 34 14 34 -4 0 -16 -64 -73 -68 -61 -2 7 -12 12 -23 12 -30 0 -24 -37
8 -45 l27 -6 -30 -24 c-16 -13 -42 -29 -58 -34 -23 -9 -27 -8 -22 4 3 8 1 15
-4 15 -6 0 -10 -4 -10 -10 0 -5 -6 -10 -12 -10 -18 0 -58 65 -58 92 0 29 -17
11 -22 -22 -3 -23 -4 -23 -21 13 -16 33 -17 45 -7 90 6 28 14 54 18 57 11 7
52 79 52 91 0 17 -18 9 -23 -11 -3 -11 -10 -20 -16 -20 -18 0 -13 18 12 43 12
12 23 25 23 30 1 4 2 12 3 17 0 6 7 10 14 10 19 0 47 32 53 61 10 50 4 253 -9
261 -9 6 -8 11 5 18 13 8 16 22 12 73 -3 58 -1 66 22 88 21 20 35 23 97 24 40
0 73 -4 75 -10 2 -5 9 -17 16 -25 7 -8 16 -23 19 -33 8 -21 -21 -166 -36 -185
-7 -9 -28 -12 -61 -11 -54 3 -76 -16 -32 -27 14 -3 32 -17 41 -31 15 -23 15
-26 -1 -44 -9 -10 -23 -19 -30 -19 -23 0 -77 -96 -88 -156 -6 -36 -56 -60 -56
-27 0 13 -3 14 -12 5 -9 -9 -8 -18 2 -38 13 -23 12 -29 -2 -55 -14 -23 -14
-29 -3 -29 7 0 22 18 32 40 29 62 45 48 22 -19 -12 -33 -4 -56 10 -32 5 7 12
35 15 62 4 26 11 51 16 54 6 3 10 17 10 31 0 60 47 124 147 200 33 26 81 110
69 121 -5 4 -11 2 -13 -5 -3 -7 -20 -31 -39 -53 -27 -32 -34 -37 -34 -21 0 11
6 25 14 31 7 6 23 38 35 70 12 32 27 64 35 70 17 14 9 99 -11 119 -9 10 -10
19 -3 33 9 16 7 19 -11 19 -17 0 -19 3 -10 13 14 18 2 30 -15 16 -18 -15 -36
-1 -29 22 8 24 -12 25 -38 2 -18 -17 -19 -17 -28 0 -6 9 -18 17 -27 17 -10 0
-23 5 -29 11 -18 18 -36 -1 -29 -32 3 -17 1 -29 -5 -29 -6 0 -7 5 -4 10 8 12
-44 3 -59 -11 -5 -4 -17 -4 -27 1 -26 14 -53 2 -38 -16 7 -8 9 -18 5 -22 -4
-4 -14 2 -22 13 -15 20 -15 20 -30 0 -8 -11 -17 -19 -19 -17 -12 6 -19 1 -8
-6 18 -11 5 -46 -20 -57 -12 -6 -23 -20 -25 -32 -3 -19 1 -23 22 -23 28 0 33
-9 14 -28 -9 -9 -8 -12 6 -12 10 0 16 -6 13 -12 -2 -7 -14 -12 -26 -11 -11 2
-21 -1 -21 -5 0 -11 58 -34 70 -27 5 3 10 0 10 -7 0 -7 -9 -19 -20 -26 -15 -9
-20 -23 -20 -52 0 -33 -3 -39 -19 -37 -11 1 -19 -2 -18 -8 1 -5 7 -10 12 -10
21 -1 37 -18 32 -37 -3 -11 0 -21 9 -25 22 -8 18 -36 -5 -28 -25 8 -45 -19
-37 -50 6 -23 3 -25 -23 -25 -27 0 -51 -21 -51 -44 0 -10 39 -6 45 4 3 6 16
10 27 10 12 0 30 8 41 18 17 15 17 13 -3 -20 -13 -22 -18 -42 -14 -50 5 -7 7
-21 5 -31 -1 -10 5 -24 14 -31 16 -11 15 -15 -4 -49 -27 -48 -27 -102 0 -164
29 -68 35 -161 16 -274 -9 -51 -19 -128 -22 -169 -6 -81 -8 -97 -31 -209 -8
-40 -13 -79 -10 -86 2 -7 -15 -33 -39 -59 -23 -26 -45 -59 -48 -74 -6 -30 14
-86 41 -115 13 -14 16 -34 13 -95 -4 -106 20 -203 67 -270 48 -70 162 -178
209 -197 20 -8 46 -25 58 -38 25 -26 65 -120 65 -153 0 -12 5 -26 10 -29 19
-12 1 -22 -30 -17 -21 3 -30 10 -30 22 0 10 5 20 12 22 6 2 8 9 5 15 -5 8 -16
7 -38 -4 -24 -12 -28 -18 -18 -29 9 -11 8 -15 -4 -20 -19 -7 -40 4 -32 16 3 5
1 19 -5 30 -13 25 -77 29 -86 5 -8 -20 -24 -19 -24 1 0 8 -5 12 -10 9 -6 -4
-8 -11 -5 -16 4 -5 -1 -9 -10 -9 -14 0 -14 4 1 38 9 20 18 43 22 51 4 11 -6
13 -51 9 -44 -4 -57 -2 -57 9 0 10 -7 12 -22 7 -34 -10 -35 -14 -10 -32 19
-15 21 -23 16 -52 -7 -34 -19 -50 -39 -50 -5 1 -2 5 7 10 20 12 22 70 2 70 -7
0 -15 6 -17 13 -4 9 -8 9 -15 -1 -14 -21 -45 -10 -60 20 -23 50 -133 50 -171
1 -24 -30 -20 -43 14 -43 27 0 42 -17 27 -32 -6 -6 -12 -6 -16 1 -12 19 -27
12 -24 -11 2 -11 -3 -23 -10 -25 -6 -3 -12 0 -12 7 0 6 -5 8 -10 5 -15 -9 -12
-25 5 -25 8 0 15 -4 15 -10 0 -5 -18 -10 -40 -10 -39 0 -40 -1 -34 -28 3 -15
8 -33 10 -41 3 -8 -1 -11 -11 -7 -8 3 -33 -1 -56 -9 l-41 -15 6 943 c9 1525
10 2843 2 2973 l-8 121 1073 9 c591 5 1264 9 1497 9 232 0 422 4 422 8 0 8
-2924 6 -2977 -1z m1658 -367 c36 -6 74 -17 85 -23 15 -9 7 -12 -46 -13 l-65
-1 43 -10 c57 -13 53 -29 -5 -23 -46 5 -45 2 5 -16 l23 -9 -23 -30 c-14 -20
-31 -30 -47 -30 -14 0 -33 -5 -41 -10 -11 -7 -6 -10 22 -10 29 0 36 -3 32 -15
-4 -9 -19 -15 -35 -15 -16 0 -29 -5 -29 -11 0 -5 10 -9 22 -7 36 5 31 -19 -6
-26 -55 -11 -55 -44 1 -37 6 1 14 -3 18 -9 3 -5 -2 -10 -12 -11 -10 0 -31 -2
-47 -3 -22 -1 -31 4 -39 24 -70 174 -126 252 -165 231 -25 -14 -32 -14 -32 -1
0 11 52 40 72 40 9 0 9 -3 -2 -11 -11 -8 1 -9 45 -3 33 4 81 7 107 7 29 0 45
4 41 10 -3 6 -40 8 -90 4 -47 -3 -81 -1 -76 3 22 22 144 24 244 5z m-145 -372
c-3 -3 -12 0 -21 7 -12 10 -12 16 -3 34 11 21 12 20 21 -7 5 -16 6 -31 3 -34z
m54 32 c0 -8 -7 -15 -15 -15 -8 0 -15 7 -15 15 0 8 7 15 15 15 8 0 15 -7 15
-15z m58 -13 c3 -9 -2 -13 -14 -10 -9 1 -19 9 -22 16 -3 9 2 13 14 10 9 -1 19
-9 22 -16z m605 -1 c15 -6 27 -17 27 -25 0 -12 -11 -13 -57 -9 -41 5 -54 3
-49 -5 4 -7 27 -12 52 -12 26 0 44 -5 44 -11 0 -8 -14 -10 -42 -6 -24 3 -52 1
-63 -3 -16 -7 -13 -9 17 -9 44 -1 70 -10 63 -22 -3 -4 -16 -4 -29 1 -25 9 -66
3 -66 -10 0 -5 18 -6 40 -3 24 3 40 2 40 -4 0 -6 -18 -13 -40 -17 -22 -3 -40
-11 -40 -16 0 -5 13 -7 30 -3 19 3 30 1 30 -6 0 -6 -13 -11 -29 -11 -17 0 -33
-4 -36 -10 -4 -6 5 -10 20 -10 15 0 24 -4 20 -10 -3 -5 -17 -10 -31 -10 -15 0
-23 -4 -19 -10 4 -6 12 -9 19 -8 6 2 11 -1 11 -7 0 -5 -10 -8 -22 -7 -13 2
-23 -1 -23 -7 0 -6 12 -11 26 -11 16 0 24 -5 21 -12 -2 -7 -17 -13 -32 -13
-16 -1 -30 -6 -33 -13 -4 -14 -58 -16 -67 -2 -3 6 0 10 7 10 9 0 10 3 2 8 -6
4 -14 17 -18 30 -3 12 -8 30 -11 40 -4 13 2 22 21 30 14 7 29 10 34 7 5 -3 11
-1 15 5 9 14 -48 13 -62 -1 -15 -15 -33 -3 -33 21 0 12 10 21 30 25 37 8 37
15 5 39 -14 10 -25 25 -25 32 0 19 -16 18 -51 -3 -27 -16 -30 -16 -46 0 -16
16 -16 18 5 39 13 13 41 25 69 29 64 10 241 4 276 -10z m-1044 -66 c22 -21 13
-24 -62 -16 -38 4 -70 4 -73 -1 -6 -9 -7 -9 59 -13 26 -1 50 -5 54 -8 3 -4 -1
-23 -10 -44 -13 -34 -19 -39 -58 -44 -37 -5 -39 -6 -14 -9 17 -1 33 -2 38 -1
4 0 7 -6 7 -15 0 -14 -7 -16 -40 -11 -22 3 -43 1 -46 -4 -3 -5 5 -9 18 -9 43
0 52 -13 38 -55 -7 -21 -20 -40 -31 -42 -11 -3 -19 -9 -19 -13 0 -4 -11 -7
-25 -7 -20 0 -25 5 -25 24 0 20 -4 23 -20 18 -11 -4 -20 -2 -20 4 0 6 9 11 20
11 11 0 20 4 20 10 0 5 -15 7 -32 5 l-33 -5 30 15 30 15 -34 -2 c-45 -4 -54
20 -12 28 41 9 50 24 14 25 -29 0 -76 16 -58 19 6 1 22 1 38 0 15 -1 27 3 27
9 0 6 -18 11 -40 11 -22 0 -40 4 -40 10 0 5 13 7 32 3 22 -4 29 -3 24 5 -4 7
-25 12 -46 12 -21 0 -42 5 -46 12 -11 18 26 38 73 38 24 0 43 4 43 10 0 10
-96 2 -122 -11 -23 -12 -28 -11 -28 6 0 8 19 21 48 30 61 20 299 12 321 -10z
m439 3 c-3 -7 -13 -15 -24 -17 -16 -3 -17 -1 -5 13 16 19 34 21 29 4z m12 -46
c0 -13 -12 -22 -22 -16 -10 6 -1 24 13 24 5 0 9 -4 9 -8z m345 -2 c-3 -5 -13
-10 -21 -10 -8 0 -14 5 -14 10 0 6 9 10 21 10 11 0 17 -4 14 -10z m-391 -71
c2 -18 9 -35 17 -38 18 -8 25 -61 8 -61 -7 0 -4 -6 7 -14 19 -15 19 -15 -1
-30 -20 -15 -20 -15 3 -16 27 0 29 -20 2 -27 -26 -7 -26 -20 0 -19 26 1 26
-18 0 -22 -11 -2 -20 -8 -20 -13 0 -5 12 -7 28 -4 26 6 26 6 8 -9 -11 -9 -29
-16 -40 -16 -12 0 -28 -5 -36 -11 -11 -8 -6 -9 20 -5 19 2 46 7 60 11 21 5 27
2 36 -23 8 -22 9 -33 1 -41 -8 -8 -4 -11 13 -11 15 0 20 -4 15 -9 -11 -11
-176 -41 -187 -35 -3 2 -3 16 1 31 6 23 16 30 64 41 31 8 55 18 52 22 -3 4
-22 4 -42 -2 -62 -15 -68 -15 -66 7 1 11 9 87 17 169 9 82 16 158 16 170 1 18
2 19 10 4 6 -9 12 -31 14 -49z m46 27 c0 -11 -19 -15 -25 -6 -3 5 1 10 9 10 9
0 16 -2 16 -4z m-108 -82 c-2 -32 -8 -104 -14 -159 -7 -55 -12 -117 -12 -137
-1 -21 -3 -38 -5 -38 -18 0 -111 55 -111 66 0 18 3 18 42 -6 35 -21 48 -25 48
-12 0 4 -16 16 -35 26 -19 11 -35 23 -35 27 0 15 12 39 21 39 4 0 6 -6 3 -14
-3 -8 3 -19 15 -25 25 -14 44 -14 36 -1 -3 6 -1 10 4 10 22 0 10 18 -19 29
-16 5 -30 15 -30 20 0 14 17 14 25 1 8 -12 35 -13 35 -1 0 5 -14 14 -32 20
-25 9 -29 14 -19 24 9 9 14 9 20 -2 5 -7 17 -11 27 -9 16 4 15 7 -8 16 -16 6
-28 16 -28 22 0 13 17 13 25 0 3 -5 12 -10 18 -9 7 0 2 7 -10 16 -28 19 -31
38 -4 23 12 -6 22 -6 26 -1 3 5 -4 12 -15 16 -11 3 -20 11 -20 17 0 5 7 8 15
4 17 -6 21 9 5 19 -14 9 -12 25 3 25 9 0 12 10 9 31 -4 24 -1 30 9 27 10 -4
13 -21 11 -64z m565 -99 c5 -16 -14 -38 -26 -31 -18 12 -13 48 6 44 9 -2 18
-7 20 -13z m-117 -21 c0 -8 -4 -12 -10 -9 -5 3 -10 13 -10 21 0 8 5 12 10 9 6
-3 10 -13 10 -21z m50 6 c0 -11 -4 -20 -10 -20 -5 0 -10 2 -10 4 0 2 -3 11 -6
20 -4 11 -1 16 10 16 9 0 16 -8 16 -20z m110 10 c0 -5 -4 -10 -10 -10 -5 0
-10 5 -10 10 0 6 5 10 10 10 6 0 10 -4 10 -10z m40 -11 c0 -5 -4 -9 -10 -9 -5
0 -10 7 -10 16 0 8 5 12 10 9 6 -3 10 -10 10 -16z m-1130 -45 c0 -16 -26 -19
-35 -4 -3 6 -4 14 0 20 8 13 35 1 35 -16z m46 15 c3 -6 -1 -18 -10 -27 -15
-15 -16 -14 -16 11 0 27 13 36 26 16z m-116 -19 c0 -11 -4 -20 -9 -20 -11 0
-22 26 -14 34 12 12 23 5 23 -14z m152 -47 c16 -19 38 -76 38 -99 0 -8 -11
-14 -26 -14 -22 0 -25 4 -21 23 3 12 0 33 -8 47 -11 21 -19 24 -59 21 -54 -3
-58 4 -13 23 44 20 71 19 89 -1z m1313 -4 c8 -23 1 -34 -14 -24 -13 8 -15 45
-2 45 5 0 13 -9 16 -21z m-1435 -54 c7 -9 10 -18 7 -21 -7 -8 -47 14 -47 26 0
15 26 12 40 -5z m1450 5 c0 -5 -4 -10 -9 -10 -6 0 -13 5 -16 10 -3 6 1 10 9
10 9 0 16 -4 16 -10z m-25 -20 c3 -5 2 -10 -4 -10 -5 0 -13 5 -16 10 -3 6 -2
10 4 10 5 0 13 -4 16 -10z m85 -5 c7 -9 14 -37 16 -63 2 -26 1 -38 -2 -27 -3
11 -16 28 -27 37 l-22 18 25 0 25 1 -22 11 c-13 6 -23 17 -23 25 0 18 15 17
30 -2z m-1496 -36 c-5 -9 -44 1 -44 10 0 4 3 10 6 14 8 8 44 -15 38 -24z m-9
-48 c-2 -24 -15 -42 -26 -35 -5 3 -7 14 -4 24 3 10 1 21 -5 25 -6 3 -8 10 -5
15 9 14 42 -10 40 -29z m-381 -6 c-4 -8 -11 -15 -16 -15 -6 0 -5 6 2 15 7 8
14 15 16 15 2 0 1 -7 -2 -15z m1504 -29 c0 -47 26 -167 45 -204 10 -21 8 -26
-13 -43 -14 -10 -30 -19 -35 -19 -6 0 -11 39 -12 98 -2 127 -1 122 -18 122
-26 0 -19 63 8 76 12 7 23 12 24 13 1 0 1 -19 1 -43z m107 34 c3 -5 15 -10 25
-10 11 0 35 -8 55 -17 30 -14 38 -15 62 -3 16 8 33 16 38 19 6 2 2 -5 -7 -16
-22 -24 -23 -42 -3 -49 18 -7 15 -51 -5 -99 -18 -40 -13 -210 6 -247 9 -16 23
-28 34 -28 24 0 26 16 4 28 -11 6 -13 12 -6 16 19 11 34 -31 21 -56 -9 -16 -9
-23 0 -26 24 -8 11 -32 -18 -32 -20 0 -34 -8 -46 -26 -20 -31 -12 -44 13 -21
10 9 27 18 38 20 10 1 24 6 31 10 6 4 24 -6 41 -23 17 -16 37 -30 45 -30 18 0
43 -101 31 -127 -7 -15 -8 -14 -12 10 -2 15 -12 32 -23 38 -15 8 -18 14 -10
23 8 10 4 21 -14 42 -13 15 -27 25 -31 21 -4 -4 0 -15 9 -25 22 -24 21 -28 -5
-36 -23 -6 -23 -7 -3 -18 22 -13 44 -38 45 -51 0 -5 -10 -8 -22 -7 -36 3 -48
1 -48 -10 0 -5 13 -10 29 -10 16 0 34 -7 41 -15 17 -21 8 -28 -21 -17 -26 10
-49 6 -49 -9 0 -5 10 -9 23 -9 32 0 51 -15 44 -34 -5 -13 -11 -15 -26 -6 -24
12 -51 13 -51 1 0 -5 10 -12 23 -15 48 -13 50 -18 32 -86 -9 -35 -16 -82 -14
-104 5 -100 0 -126 -22 -126 -12 0 -19 -5 -16 -12 2 -7 11 -12 19 -10 16 2 28
-25 28 -65 0 -16 -7 -22 -27 -25 -16 -2 -26 -7 -23 -13 3 -5 12 -9 20 -7 19 3
47 -15 37 -24 -4 -4 -18 -8 -32 -8 -37 -2 -35 -20 3 -24 40 -4 42 -22 2 -22
-16 0 -30 -4 -30 -10 0 -5 9 -10 19 -10 11 0 23 -4 26 -10 4 -6 -5 -10 -20
-10 -15 0 -24 -4 -20 -10 3 -5 17 -10 31 -10 13 0 24 -5 24 -11 0 -5 -10 -9
-22 -7 -11 2 -23 -2 -25 -9 -2 -6 8 -13 23 -15 32 -4 45 -28 15 -28 -11 0 -23
-4 -26 -10 -3 -5 3 -10 13 -10 11 0 25 -6 31 -14 9 -11 7 -15 -11 -20 l-23 -7
25 -11 25 -11 -25 -7 -25 -8 23 -7 c30 -10 28 -25 -3 -25 -34 0 -32 -20 3 -21
26 -1 26 -1 -5 -10 -41 -12 -43 -29 -3 -29 41 0 38 -20 -2 -21 l-33 -1 33 -10
c36 -12 42 -23 12 -26 -43 -4 -49 -6 -44 -14 3 -5 19 -6 35 -3 22 5 29 3 29
-9 0 -10 -9 -16 -24 -16 -14 0 -28 -4 -31 -10 -4 -6 8 -10 30 -10 35 0 36 -1
33 -32 -2 -24 -7 -32 -20 -30 -27 4 -31 -17 -3 -24 40 -10 30 -26 -12 -18 -35
7 -37 6 -24 -9 7 -10 24 -17 37 -17 13 0 24 -4 24 -10 0 -5 -8 -10 -18 -10
-19 0 -42 -18 -42 -33 0 -4 4 -6 9 -3 12 8 41 -3 41 -15 0 -5 -12 -9 -26 -9
-22 0 -25 -2 -14 -15 7 -8 19 -15 26 -15 8 0 14 -4 14 -10 0 -5 -13 -10 -30
-10 -16 0 -30 -5 -30 -11 0 -5 8 -9 18 -8 29 3 42 -1 42 -11 0 -5 -11 -10 -24
-10 -37 0 -42 -19 -7 -26 36 -8 41 -24 8 -24 -21 0 -47 -16 -47 -30 0 -3 16
-4 35 -2 21 3 35 0 35 -7 0 -6 -8 -11 -18 -11 -24 0 -64 -29 -57 -41 4 -5 15
-3 28 6 12 8 27 15 34 15 23 0 14 -29 -14 -42 -14 -7 -29 -19 -31 -26 -3 -11
0 -12 17 -2 12 6 27 10 32 8 6 -2 -2 -10 -17 -18 -16 -8 -39 -27 -52 -42 -22
-25 -30 -28 -90 -28 -74 1 -143 28 -170 68 -13 20 -13 22 2 22 9 0 16 5 16 10
0 6 -4 10 -10 10 -5 0 -10 9 -10 20 0 11 -7 20 -15 20 -10 0 -13 -9 -10 -30 3
-24 0 -30 -16 -30 -12 0 -19 7 -19 20 0 27 -22 34 -64 20 -26 -8 -40 -8 -56 0
-30 16 -15 30 20 17 31 -12 54 -2 30 13 -12 8 -9 10 11 10 45 0 46 49 2 50
-20 0 -15 -20 5 -21 9 0 12 -3 7 -5 -6 -2 -27 4 -48 15 -30 15 -34 20 -20 26
17 6 17 7 0 16 -21 12 -38 3 -30 -16 4 -12 -4 -15 -35 -15 -50 0 -51 2 -51
188 -1 79 -3 147 -5 151 -3 4 -7 65 -10 135 l-6 128 36 76 c39 82 42 91 50
170 7 62 9 72 19 95 4 9 12 41 19 70 9 42 16 53 33 55 13 2 30 -2 40 -8 15 -9
12 -10 -14 -5 -40 8 -45 -11 -8 -25 14 -5 25 -14 25 -20 0 -13 -13 -13 -27 1
-13 13 -43 5 -43 -10 0 -5 11 -12 25 -15 14 -4 25 -13 25 -21 0 -17 -16 -20
-25 -5 -9 15 -25 12 -25 -5 0 -14 12 -19 33 -16 4 0 7 -6 7 -15 0 -13 -3 -14
-14 -5 -11 9 -16 9 -22 0 -4 -7 0 -17 9 -24 14 -10 15 -18 6 -51 -6 -21 -18
-45 -26 -51 -14 -11 -14 -13 2 -20 11 -4 20 -2 23 5 2 7 10 12 17 12 10 0 10
-11 -2 -58 -13 -54 -17 -59 -39 -54 -29 5 -32 22 -3 22 11 0 18 4 15 9 -10 16
-61 -4 -58 -22 1 -9 -7 -21 -18 -27 -23 -13 -27 -30 -5 -30 24 0 17 -20 -11
-30 -29 -11 -23 -34 7 -25 10 4 19 2 19 -4 0 -5 -10 -11 -22 -13 -32 -5 -35
-28 -4 -28 32 0 35 -17 4 -22 -31 -4 -37 -58 -7 -58 10 0 19 -4 19 -10 0 -5
-7 -10 -15 -10 -8 0 -15 -7 -15 -15 0 -8 9 -15 20 -15 11 0 20 -4 20 -10 0 -5
-9 -10 -20 -10 -11 0 -20 -7 -20 -15 0 -9 9 -15 25 -15 20 0 25 -5 25 -25 0
-16 -6 -25 -15 -25 -8 0 -15 -7 -15 -16 0 -11 6 -14 20 -9 14 5 20 2 20 -9 0
-9 -9 -16 -20 -16 -28 0 -25 -18 5 -26 28 -7 35 -27 8 -22 -10 2 -19 -4 -21
-14 -3 -14 3 -18 22 -18 15 0 30 -8 36 -20 10 -18 8 -19 -20 -14 -23 5 -30 3
-30 -10 0 -11 9 -16 30 -16 17 0 30 -4 30 -10 0 -5 -11 -10 -25 -10 -28 0 -35
-19 -7 -22 9 0 23 -2 30 -2 16 -1 35 -33 27 -45 -3 -5 -1 -12 5 -16 6 -3 13 1
16 9 3 9 17 16 30 16 34 0 30 17 -6 25 -36 8 -44 45 -9 45 12 0 19 5 16 13 -2
6 -16 11 -31 9 -14 -1 -26 2 -26 7 0 5 -3 17 -6 25 -5 12 -2 15 9 10 18 -6 50
46 42 68 -5 13 -15 262 -17 389 0 37 7 91 15 120 14 50 30 132 28 144 -3 15
-18 1 -28 -28 -9 -24 -12 -27 -12 -11 -1 12 11 53 25 90 46 122 32 204 -35
204 -20 0 -23 2 -11 10 26 17 57 12 63 -11 3 -12 11 -19 19 -16 21 7 12 66
-22 135 -34 70 -34 72 -20 72 6 0 15 -12 21 -27 6 -16 21 -51 34 -79 13 -27
29 -72 36 -100 18 -77 45 -89 41 -19 -2 33 -1 35 28 35 16 0 30 5 30 10 0 10
-21 14 -49 10 -13 -1 -31 17 -31 33 0 4 16 5 36 1 29 -5 36 -4 32 7 -3 8 -22
15 -46 17 -25 2 -42 8 -42 16 0 8 13 10 47 6 43 -4 48 -8 54 -35 4 -16 7 -54
8 -83 1 -60 14 -71 58 -50 l28 13 -4 90 c-2 50 -7 100 -12 111 -19 50 -30 145
-19 159 7 8 7 16 2 19 -17 10 -34 -23 -34 -64 1 -22 -3 -38 -8 -35 -5 3 -12 0
-16 -6 -3 -6 0 -15 7 -20 12 -7 11 -9 -1 -9 -8 0 -25 19 -38 43 -16 30 -34 47
-64 59 -23 10 -43 16 -46 13 -3 -2 3 -20 12 -40 14 -28 15 -39 6 -51 -19 -22
-30 -17 -30 16 0 20 -8 35 -25 46 -30 20 -32 34 -5 34 11 0 20 5 20 10 0 6 -7
10 -15 10 -17 0 -15 42 4 78 7 14 11 53 10 97 -3 80 2 95 26 75 8 -7 27 -10
42 -7 26 5 26 4 8 -9 -10 -8 -25 -14 -32 -14 -7 0 -13 -4 -13 -9 0 -11 71 -11
85 0 6 4 29 -1 52 -12 56 -26 103 -35 103 -20 0 6 7 11 16 11 8 0 12 5 8 11
-4 7 -10 7 -16 1 -6 -6 -18 -7 -27 -2 -9 4 -29 13 -46 20 -65 26 -80 36 -98
68 -19 32 -19 32 2 55 12 12 27 31 34 41 8 10 27 20 43 21 16 2 35 3 42 4 6 1
12 6 12 11 0 6 -20 8 -54 4 -49 -6 -57 -4 -80 19 -29 29 -37 59 -10 36 9 -8
29 -12 43 -11 32 4 53 22 26 22 -10 0 -33 5 -50 12 -31 11 -33 13 -38 82 -6
73 -1 116 14 116 4 0 11 -4 14 -10z m-988 -6 c-3 -3 -12 -4 -19 -1 -8 3 -5 6
6 6 11 1 17 -2 13 -5z m-52 -13 c3 -5 1 -12 -5 -16 -5 -3 -10 1 -10 9 0 18 6
21 15 7z m-615 -42 c0 -6 -4 -7 -10 -4 -5 3 -10 11 -10 16 0 6 5 7 10 4 6 -3
10 -11 10 -16z m690 17 c0 -2 -7 -9 -15 -16 -13 -11 -14 -10 -9 4 5 14 24 23
24 12z m148 -70 c34 -26 62 -44 62 -41 0 3 19 -5 43 -19 44 -26 114 -45 235
-66 39 -7 72 -16 72 -19 0 -3 -15 -16 -34 -29 -31 -21 -40 -22 -117 -16 -59 5
-88 12 -96 23 -8 11 -12 12 -13 4 0 -8 -15 -13 -39 -13 -35 0 -39 2 -34 23 4
19 3 20 -9 6 -9 -11 -24 -14 -51 -11 -36 4 -38 6 -31 34 4 23 3 29 -7 26 -18
-6 -60 76 -65 126 -3 29 -1 36 9 29 6 -5 40 -31 75 -57z m1131 37 c0 -25 -1
-26 -9 -8 -12 27 -12 35 0 35 6 0 10 -12 9 -27z m66 17 c7 0 12 -10 12 -22 -1
-13 2 -32 6 -44 6 -16 2 -23 -18 -32 -14 -6 -25 -18 -25 -27 0 -8 -4 -15 -9
-15 -15 0 -21 42 -14 98 4 41 9 52 20 48 8 -4 21 -6 28 -6z m-1525 -8 c0 -5
-7 -17 -15 -28 -13 -16 -16 -17 -25 -4 -17 25 -11 40 15 40 14 0 25 -4 25 -8z
m48 -23 c-6 -16 -7 -48 -4 -70 4 -27 3 -38 -4 -34 -5 3 -10 26 -10 50 0 24 -5
47 -10 50 -14 8 6 35 26 35 10 0 11 -6 2 -31z m-568 2 c0 -6 -5 -13 -10 -16
-6 -4 -8 -15 -5 -26 4 -11 2 -19 -5 -19 -9 0 -9 44 -1 68 3 7 21 1 21 -7z
m596 -23 c-9 -12 -16 -19 -16 -15 0 11 24 47 28 42 2 -2 -3 -14 -12 -27z m104
8 c0 -3 -4 -8 -10 -11 -5 -3 -10 -1 -10 4 0 6 5 11 10 11 6 0 10 -2 10 -4z
m60 -67 c0 -10 4 -20 9 -23 14 -9 43 -107 37 -123 -5 -13 -9 -13 -31 1 -27 18
-44 4 -24 -20 9 -11 9 -18 -3 -32 -9 -9 -22 -30 -31 -47 -18 -36 -62 -85 -77
-85 -5 0 -10 17 -10 38 0 32 4 39 29 49 49 18 80 111 57 168 -13 30 -13 35 -1
35 11 0 13 8 9 30 -4 16 -3 37 1 47 6 17 7 17 21 -1 8 -11 14 -28 14 -37z
m-130 -23 c0 -3 -7 -6 -15 -6 -9 0 -15 9 -15 21 0 18 2 19 15 5 8 -8 15 -17
15 -20z m-219 -37 l-9 -34 -1 31 c-1 17 2 34 6 37 12 13 14 -1 4 -34z m115 1
c1 -25 0 -27 -13 -15 -19 19 -32 19 -55 -2 -10 -9 -18 -11 -18 -5 0 17 47 45
64 39 11 -4 13 -1 9 11 -4 10 -2 13 3 9 5 -5 9 -21 10 -37z m-516 5 c0 -8 -4
-15 -10 -15 -5 0 -10 7 -10 15 0 8 5 15 10 15 6 0 10 -7 10 -15z m1371 5 c5 0
9 -4 9 -10 0 -14 -13 -12 -36 6 -17 14 -17 15 -1 10 10 -3 23 -6 28 -6z m-771
-68 c-9 -14 -10 -12 -4 7 5 19 3 23 -9 18 -23 -9 -29 4 -9 19 14 11 18 9 25
-8 4 -11 2 -27 -3 -36z m67 11 c-3 -10 -5 -4 -5 12 0 17 2 24 5 18 2 -7 2 -21
0 -30z m-217 -57 c0 -5 -11 1 -25 14 -14 13 -25 31 -25 39 0 17 49 -36 50 -53z
m110 -21 c-13 -14 -25 -24 -26 -22 -9 9 -2 21 18 32 33 19 34 18 8 -10z m410
5 c0 -5 -2 -10 -4 -10 -3 0 -8 5 -11 10 -3 6 -1 10 4 10 6 0 11 -4 11 -10z
m650 -57 c0 -15 -36 -17 -45 -3 -3 5 -3 21 1 36 l7 27 18 -24 c10 -13 19 -30
19 -36z m-690 37 c0 -5 -4 -10 -10 -10 -5 0 -10 5 -10 10 0 6 5 10 10 10 6 0
10 -4 10 -10z m270 0 c0 -5 -5 -10 -11 -10 -5 0 -7 5 -4 10 3 6 8 10 11 10 2
0 4 -4 4 -10z m-1200 -39 c0 -13 -29 -35 -37 -28 -7 8 15 37 28 37 5 0 9 -4 9
-9z m50 -1 c0 -5 -5 -10 -11 -10 -6 0 -9 -6 -6 -14 6 -16 -16 -40 -26 -29 -12
12 -7 36 11 49 21 16 32 17 32 4z m826 -15 c-3 -9 -11 -13 -16 -10 -8 5 -7 11
1 21 14 18 24 11 15 -11z m94 -12 c0 -43 -5 -41 -13 5 -4 18 -2 32 3 32 6 0
10 -16 10 -37z m300 27 c0 -5 -5 -10 -11 -10 -5 0 -7 5 -4 10 3 6 8 10 11 10
2 0 4 -4 4 -10z m-150 -10 c0 -5 -4 -10 -10 -10 -5 0 -10 5 -10 10 0 6 5 10
10 10 6 0 10 -4 10 -10z m-613 -42 c-3 -8 -6 -5 -6 6 -1 11 2 17 5 13 3 -3 4
-12 1 -19z m369 -36 c-2 -32 -21 -28 -22 5 0 16 1 32 4 37 7 13 20 -16 18 -42z
m254 26 c0 -16 -3 -19 -11 -11 -6 6 -8 16 -5 22 11 17 16 13 16 -11z m804 7
c-4 -8 -2 -21 3 -28 6 -6 13 -19 16 -28 4 -13 1 -16 -14 -12 -11 3 -18 11 -15
18 2 7 0 17 -5 22 -11 11 -2 43 12 43 4 0 6 -7 3 -15z m-622 -42 c6 -16 14
-48 19 -73 4 -25 14 -73 21 -107 8 -34 15 -109 17 -166 1 -58 5 -126 9 -153 6
-34 4 -57 -5 -74 -7 -14 -12 -34 -12 -45 0 -11 3 -14 6 -7 2 6 8 10 13 7 4 -3
2 -22 -6 -42 -7 -21 -14 -67 -15 -103 -1 -65 -2 -65 -9 -20 -4 25 -9 99 -10
165 -3 227 -6 279 -18 283 -7 2 -12 10 -12 17 0 7 -6 16 -12 18 -10 4 -10 7 0
15 14 9 12 90 -4 245 -7 71 -1 85 18 40z m-822 7 c0 -5 -10 -10 -22 -10 -19 0
-20 2 -8 10 19 13 30 13 30 0z m232 -12 c-7 -7 -12 -8 -12 -2 0 14 12 26 19
19 2 -3 -1 -11 -7 -17z m88 12 c0 -5 -4 -10 -10 -10 -5 0 -10 5 -10 10 0 6 5
10 10 10 6 0 10 -4 10 -10z m430 -26 c0 -13 -4 -24 -10 -24 -5 0 -10 14 -10
31 0 17 4 28 10 24 6 -3 10 -17 10 -31z m-95 -43 c4 -39 4 -75 -1 -82 -4 -8
-3 -10 4 -5 8 5 12 -1 11 -16 0 -13 1 -30 2 -38 5 -35 -2 -120 -10 -120 -9 0
-21 58 -25 120 -2 19 -6 50 -10 68 -5 22 -3 38 5 48 8 10 9 18 3 22 -6 4 -10
21 -9 37 3 36 3 35 14 35 5 0 12 -31 16 -69z m49 7 c4 -37 2 -58 -4 -58 -6 0
-10 27 -10 62 0 74 5 73 14 -4z m-724 22 c0 -5 -4 -10 -10 -10 -5 0 -10 5 -10
10 0 6 5 10 10 10 6 0 10 -4 10 -10z m340 -20 c0 -16 -4 -30 -8 -30 -4 0 -7
12 -6 28 3 32 3 32 9 32 3 0 5 -13 5 -30z m-396 11 c3 -5 -1 -14 -8 -20 -10
-8 -16 -9 -21 -1 -12 19 -22 1 -19 -35 1 -19 -2 -35 -7 -35 -10 0 -13 83 -2
93 9 10 51 8 57 -2z m96 -6 c0 -8 -18 -24 -40 -35 -47 -24 -45 -6 3 27 18 11
33 22 35 22 1 1 2 -6 2 -14z m440 -17 c0 -16 -3 -19 -11 -11 -6 6 -8 16 -5 22
11 17 16 13 16 -11z m296 -15 c-7 -7 -26 7 -26 19 0 6 6 6 15 -2 9 -7 13 -15
11 -17z m-246 -11 c0 -22 27 -79 41 -87 13 -9 49 -91 49 -114 0 -10 -6 -22
-12 -25 -7 -3 -4 -4 7 -1 18 4 23 -2 34 -55 15 -65 17 -158 6 -208 -4 -20 -3
-32 4 -32 15 0 9 -79 -6 -85 -18 -6 -16 -34 2 -41 8 -4 13 -10 10 -15 -3 -4
-12 -6 -20 -3 -8 3 -21 -5 -30 -20 -10 -14 -21 -24 -25 -21 -4 3 -10 -5 -13
-17 -4 -12 -9 -19 -12 -16 -4 3 -20 2 -36 -2 -39 -11 -37 -1 11 45 22 21 45
55 51 74 6 20 13 43 16 51 13 39 13 161 -2 264 -16 122 -30 171 -51 197 -8 8
-14 23 -14 31 0 9 -4 18 -9 20 -13 5 -24 78 -11 78 5 0 10 -8 10 -18z m-588
-24 c-7 -7 -12 -8 -12 -2 0 14 12 26 19 19 2 -3 -1 -11 -7 -17z m460 -10 c-9
-9 -12 -7 -12 12 0 19 3 21 12 12 9 -9 9 -15 0 -24z m84 5 c-10 -10 -19 5 -10
18 6 11 8 11 12 0 2 -7 1 -15 -2 -18z m309 17 c-3 -5 -13 -10 -21 -10 -8 0
-14 5 -14 10 0 6 9 10 21 10 11 0 17 -4 14 -10z m-795 -14 c0 -3 -4 -8 -10
-11 -5 -3 -10 -1 -10 4 0 6 5 11 10 11 6 0 10 -2 10 -4z m352 -26 c4 -23 -2
-37 -20 -55 -14 -14 -30 -25 -38 -25 -7 0 -14 -6 -17 -12 -2 -7 -7 -10 -11 -6
-4 3 5 21 21 38 15 18 28 39 28 49 1 20 13 41 24 41 5 0 11 -14 13 -30z m273
-18 c-3 -3 -11 0 -18 7 -9 10 -8 11 6 5 10 -3 15 -9 12 -12z m-565 -2 c0 -5
-4 -10 -10 -10 -5 0 -10 5 -10 10 0 6 5 10 10 10 6 0 10 -4 10 -10z m344 -1
c-2 -4 0 -10 6 -14 13 -8 13 -75 0 -75 -5 0 -10 17 -10 38 0 21 -5 43 -10 48
-7 7 -6 11 4 11 8 0 13 -4 10 -8z m96 1 c0 -5 -4 -10 -10 -10 -5 0 -10 5 -10
10 0 6 5 10 10 10 6 0 10 -4 10 -10z m-567 -34 c-32 -39 -69 -57 -52 -25 5 10
16 19 24 19 8 0 19 9 25 20 6 11 15 20 21 20 6 0 -2 -15 -18 -34z m590 -16 c4
-17 2 -18 -14 -9 -11 5 -17 14 -14 20 10 15 22 10 28 -11z m-673 -5 c0 -8 -4
-15 -10 -15 -5 0 -10 7 -10 15 0 8 5 15 10 15 6 0 10 -7 10 -15z m967 9 c-3
-3 -12 -4 -19 -1 -8 3 -5 6 6 6 11 1 17 -2 13 -5z m-16 -57 c-13 -13 -26 -3
-16 12 3 6 11 8 17 5 6 -4 6 -10 -1 -17z m-276 3 c-3 -5 -11 -10 -16 -10 -6 0
-7 5 -4 10 3 6 11 10 16 10 6 0 7 -4 4 -10z m230 -21 c0 -19 5 -23 23 -22 12
2 22 -2 22 -7 0 -6 -12 -10 -26 -10 l-26 0 5 -112 c4 -100 7 -114 26 -129 l22
-18 -20 -28 c-15 -21 -21 -49 -25 -113 -6 -107 -37 -216 -60 -214 -9 1 -16 -2
-16 -7 0 -5 -4 -9 -10 -9 -5 0 -19 -9 -30 -20 -12 -12 -25 -18 -31 -15 -5 4
-17 1 -26 -7 -22 -18 -63 -18 -63 0 0 12 -3 12 -15 2 -8 -6 -19 -9 -25 -5 -5
3 -14 -4 -19 -17 -10 -23 -10 -22 -10 5 -1 15 -4 26 -8 25 -14 -4 -53 13 -53
23 0 5 -4 9 -10 9 -5 0 -44 33 -85 74 -64 62 -81 86 -111 157 -20 46 -38 93
-41 104 -3 11 -10 26 -16 33 -5 7 -7 15 -4 18 3 4 0 13 -8 21 -8 8 -15 20 -15
26 0 15 13 0 39 -43 41 -69 71 -144 66 -162 -5 -13 -2 -16 9 -12 10 4 16 1 16
-8 0 -8 9 -23 20 -33 11 -10 20 -24 20 -32 0 -7 5 -13 10 -13 6 0 10 -4 10 -9
0 -13 73 -84 106 -103 27 -15 75 -24 99 -18 6 2 33 3 61 4 39 1 57 7 83 29 18
15 37 25 42 21 5 -3 16 11 25 31 12 29 12 40 3 51 -9 11 -8 18 5 32 9 10 13
22 10 25 -4 4 -2 12 4 20 11 13 11 127 -1 364 -3 61 -3 114 1 117 12 13 27 -1
27 -25z m295 21 c0 -12 -28 -25 -36 -17 -9 9 6 27 22 27 8 0 14 -5 14 -10z
m-1130 -20 c0 -13 -11 -13 -30 0 -12 8 -11 10 8 10 12 0 22 -4 22 -10z m350
-17 c0 -20 -3 -24 -11 -16 -7 7 -9 19 -6 27 10 24 17 19 17 -11z m158 1 c11
-20 5 -53 -14 -75 -8 -9 -11 -19 -7 -22 12 -13 -27 -45 -48 -40 -18 5 -18 7
-4 23 8 9 13 24 10 32 -4 9 0 18 8 21 8 3 17 22 21 41 7 39 20 46 34 20z m768
-9 c1 -8 -2 -13 -7 -9 -5 3 -9 12 -9 21 0 19 13 9 16 -12z m-1333 1 c6 -16
-16 -70 -40 -97 -8 -10 -20 -40 -28 -67 -7 -28 -20 -61 -29 -73 -9 -13 -16
-32 -16 -43 0 -11 -7 -28 -16 -38 -11 -12 -18 -38 -19 -78 -1 -40 -7 -66 -18
-78 -9 -10 -22 -45 -28 -78 -7 -32 -21 -69 -33 -82 -11 -13 -26 -35 -32 -50
-26 -58 -5 82 21 148 17 41 23 66 16 68 -6 2 -11 12 -11 23 0 12 5 16 15 13
10 -4 15 0 15 11 0 9 -4 13 -10 10 -11 -7 -13 6 -4 29 3 9 15 16 25 16 10 0
19 5 19 10 0 6 -8 10 -17 10 -14 0 -13 3 5 23 12 13 22 31 22 40 0 10 7 20 15
23 10 4 13 14 9 30 -5 19 -3 23 9 18 8 -3 18 -1 21 4 3 5 -4 13 -17 17 -21 6
-21 7 6 17 22 8 26 13 16 24 -9 11 -8 14 6 14 11 0 15 5 11 15 -3 9 0 15 9 15
18 0 20 17 3 22 -6 2 -8 10 -4 16 4 7 16 10 26 7 10 -3 21 -1 25 5 3 6 -3 10
-14 10 -12 0 -21 7 -21 15 0 10 10 15 27 15 26 0 26 1 7 15 -19 14 -19 14 2
15 12 0 24 -7 27 -14z m122 -14 c-3 -3 -11 0 -18 7 -9 10 -8 11 6 5 10 -3 15
-9 12 -12z m1135 -12 c0 -5 -2 -10 -4 -10 -3 0 -8 5 -11 10 -3 6 -1 10 4 10 6
0 11 -4 11 -10z m-1105 -10 c3 -5 1 -10 -4 -10 -6 0 -11 5 -11 10 0 6 2 10 4
10 3 0 8 -4 11 -10z m535 0 c0 -5 -4 -10 -10 -10 -5 0 -10 5 -10 10 0 6 5 10
10 10 6 0 10 -4 10 -10z m-1030 -42 c0 -14 -18 -9 -24 8 -11 28 -6 39 9 20 8
-11 15 -23 15 -28z m1280 32 c0 -5 -5 -10 -11 -10 -5 0 -7 5 -4 10 3 6 8 10
11 10 2 0 4 -4 4 -10z m480 0 c0 -5 -3 -9 -7 -9 -21 3 -33 -2 -33 -16 0 -14
-12 -20 -34 -16 -4 1 -23 2 -42 3 -22 1 -34 6 -34 15 0 11 5 11 20 3 15 -8 26
-7 43 2 12 7 28 11 35 10 6 -2 12 2 12 8 0 5 9 10 20 10 11 0 20 -4 20 -10z
m-318 -182 c-2 -32 -6 -57 -8 -56 -8 9 -23 208 -17 224 12 30 32 -99 25 -168z
m-477 162 c3 -5 -1 -10 -9 -10 -9 0 -16 5 -16 10 0 6 4 10 9 10 6 0 13 -4 16
-10z m530 0 c-3 -5 -13 -10 -21 -10 -8 0 -14 5 -14 10 0 6 9 10 21 10 11 0 17
-4 14 -10z m-1023 -28 c-2 -16 1 -20 11 -16 16 6 43 -48 32 -66 -3 -6 -1 -9 6
-8 7 2 21 -20 32 -50 16 -43 17 -55 7 -65 -10 -9 -14 -9 -17 1 -3 6 -11 12
-18 12 -8 0 -16 16 -20 38 -4 23 -20 53 -41 75 -37 42 -42 57 -18 57 12 0 15
7 11 25 -3 16 0 24 7 22 6 -2 10 -14 8 -25z m1294 6 c-3 -13 -5 -25 -5 -27 -1
-3 -6 0 -12 6 -13 13 -5 43 11 43 5 0 8 -10 6 -22z m-1640 -25 c-4 -16 -17
-64 -30 -108 -63 -212 -106 -459 -77 -441 17 11 36 -4 20 -16 -11 -7 -11 -11
-1 -15 6 -2 12 -12 12 -22 0 -34 -24 -49 -90 -56 -58 -7 -63 -6 -51 8 7 9 10
21 6 27 -3 5 1 10 10 10 11 0 15 6 10 19 -4 13 0 20 15 24 21 5 28 -7 10 -18
-5 -3 -10 -17 -10 -31 0 -14 4 -22 10 -19 6 3 10 15 10 26 0 10 5 19 10 19 6
0 10 -5 10 -12 0 -9 3 -9 12 0 10 10 10 17 0 32 -6 11 -12 32 -12 47 -1 27 -1
27 -15 9 -8 -10 -12 -23 -9 -27 3 -5 -5 -9 -18 -9 -21 1 -22 1 -4 11 15 9 16
13 5 21 -11 7 -11 11 -1 15 7 3 12 26 13 61 1 32 5 68 9 82 7 18 9 7 8 -40 -2
-106 16 -84 28 35 6 61 15 124 19 140 16 66 47 155 55 155 4 0 6 9 3 20 -3 11
0 20 6 20 6 0 11 7 11 15 0 8 4 15 10 15 5 0 7 7 4 15 -4 8 -1 15 6 15 8 0 10
-9 6 -27z m-100 -149 c-15 -45 -29 -103 -32 -129 -8 -52 -16 -62 -35 -39 -9
11 -10 17 -1 22 15 10 32 57 32 90 0 15 9 59 19 97 11 39 23 84 28 100 7 29 8
28 11 -14 2 -28 -6 -74 -22 -127z m1024 135 c0 -19 -1 -19 -24 -2 -21 15 -22
19 -8 24 23 9 32 2 32 -22z m-363 -1 c-3 -8 -6 -5 -6 6 -1 11 2 17 5 13 3 -3
4 -12 1 -19z m224 -53 c14 5 19 2 19 -12 0 -14 -2 -15 -9 -4 -7 11 -10 9 -16
-9 -9 -29 9 -49 32 -34 13 8 26 6 55 -9 41 -23 46 -37 23 -81 -8 -15 -15 -37
-15 -47 0 -11 -6 -19 -12 -19 -7 -1 -23 -16 -35 -35 -21 -33 -21 -34 -2 -51
10 -9 19 -21 19 -26 0 -16 -28 -7 -44 15 -9 12 -14 16 -11 10 3 -7 4 -13 0
-13 -3 0 -10 11 -15 25 -5 14 -15 25 -22 25 -12 0 -48 67 -48 89 0 5 -13 12
-29 16 -20 4 -28 11 -24 20 2 8 -4 27 -16 43 -11 16 -18 32 -14 35 3 4 0 13
-7 22 -7 9 -10 18 -7 22 4 3 12 -7 19 -23 19 -46 39 -66 54 -53 9 8 17 4 29
-15 19 -29 62 -35 71 -11 4 9 -4 38 -16 66 -15 36 -19 59 -14 78 l8 26 4 -28
c3 -22 7 -27 23 -22z m394 25 c-3 -5 -13 -10 -21 -10 -8 0 -14 5 -14 10 0 6 9
10 21 10 11 0 17 -4 14 -10z m477 -30 c0 -22 1 -45 2 -52 1 -6 -5 -13 -11 -15
-10 -4 -13 11 -13 51 0 63 19 78 22 16z m-1057 21 c3 -5 1 -12 -4 -15 -5 -3
-11 1 -15 9 -6 16 9 21 19 6z m460 -9 c-3 -3 -11 0 -18 7 -9 10 -8 11 6 5 10
-3 15 -9 12 -12z m315 14 c0 -3 -4 -8 -10 -11 -5 -3 -10 -1 -10 4 0 6 5 11 10
11 6 0 10 -2 10 -4z m37 -2 c-3 -3 -12 -4 -19 -1 -8 3 -5 6 6 6 11 1 17 -2 13
-5z m-17 -74 c0 -5 -12 -10 -27 -9 l-28 1 25 8 c14 4 26 8 28 9 1 1 2 -3 2 -9z
m-1187 -37 c3 -16 3 -30 1 -33 -7 -7 -24 23 -24 43 0 27 17 20 23 -10z m987
-3 c0 -5 -2 -10 -4 -10 -3 0 -8 5 -11 10 -3 6 -1 10 4 10 6 0 11 -4 11 -10z
m-952 -52 c9 -11 52 -124 52 -136 0 -2 -6 -2 -14 1 -8 3 -17 -1 -20 -10 -5
-12 -9 -13 -21 -3 -16 13 -21 35 -6 26 21 -13 19 29 -2 75 -13 27 -22 51 -19
54 9 8 19 6 30 -7z m209 -15 c-3 -3 -11 -2 -17 2 -9 6 -9 10 1 16 14 8 27 -7
16 -18z m730 21 c-3 -3 -12 -4 -19 -1 -8 3 -5 6 6 6 11 1 17 -2 13 -5z m-1346
-47 c-8 -8 -11 -7 -11 4 0 20 13 34 18 19 3 -7 -1 -17 -7 -23z m644 -39 c26
-56 32 -88 15 -88 -6 0 -13 8 -16 18 -3 9 -10 25 -15 35 -6 10 -7 27 -4 38 4
11 2 19 -4 19 -6 0 -11 7 -11 15 0 27 11 16 35 -37z m-135 22 c0 -5 -4 -10
-10 -10 -5 0 -10 5 -10 10 0 6 5 10 10 10 6 0 10 -4 10 -10z m-140 -20 c0 -5
-4 -10 -10 -10 -5 0 -10 5 -10 10 0 6 5 10 10 10 6 0 10 -4 10 -10z m158 -12
c0 -7 3 -24 7 -38 l6 -25 -15 25 c-17 28 -20 50 -8 50 5 0 9 -6 10 -12z m-200
-16 c2 -7 -2 -10 -12 -6 -9 3 -16 11 -16 16 0 13 23 5 28 -10z m142 -57 c6 -8
8 -20 4 -27 -6 -10 -3 -9 9 1 15 12 17 11 17 -8 0 -11 6 -20 13 -18 7 1 11 -7
10 -21 -2 -16 1 -21 10 -15 6 4 16 8 21 8 17 0 17 22 1 38 -21 21 -20 49 2 45
10 -2 21 -19 28 -43 5 -22 27 -68 48 -103 20 -35 37 -68 37 -73 0 -5 14 -39
30 -74 17 -35 30 -73 30 -83 0 -26 26 -48 33 -29 6 17 -3 66 -14 73 -5 3 -9
12 -9 21 0 9 -6 24 -14 32 -7 9 -17 26 -20 39 -6 17 -3 22 9 22 9 0 15 -6 12
-12 -2 -7 4 -24 13 -38 10 -14 21 -36 24 -50 4 -14 17 -45 27 -69 23 -49 20
-68 -11 -73 -11 -2 -20 -7 -19 -13 0 -5 5 -9 10 -7 16 4 23 -29 8 -39 -14 -8
-59 25 -59 43 0 5 -19 28 -41 51 -56 57 -69 72 -69 82 0 4 -11 23 -25 41 -14
18 -25 36 -25 39 0 4 -9 18 -20 32 -11 14 -20 36 -20 49 0 18 -6 24 -21 24
-14 0 -19 5 -16 15 4 8 2 17 -2 20 -12 7 -20 55 -10 55 5 0 9 4 9 9 0 5 -7 8
-16 7 -11 -1 -17 9 -20 32 -4 34 6 41 26 17z m890 5 c0 -5 -9 -10 -19 -10 -11
0 -23 5 -26 10 -4 6 5 10 19 10 14 0 26 -4 26 -10z m-216 -15 c-6 -15 9 -20
49 -17 9 1 17 -3 17 -8 0 -6 -8 -14 -17 -17 -10 -4 -22 -12 -26 -20 -4 -7 -13
-13 -19 -13 -6 0 -19 -7 -29 -16 -11 -10 -19 -12 -24 -5 -3 6 1 14 9 17 11 4
16 19 16 43 0 37 6 51 21 51 5 0 6 -7 3 -15z m-814 -26 c0 -6 -4 -7 -10 -4 -5
3 -10 11 -10 16 0 6 5 7 10 4 6 -3 10 -11 10 -16z m-63 -11 c-3 -8 -6 -5 -6 6
-1 11 2 17 5 13 3 -3 4 -12 1 -19z m453 13 c0 -5 -7 -14 -15 -21 -16 -14 -18
-10 -9 14 6 17 24 22 24 7z m652 -31 c-1 -14 -3 -40 -3 -57 -1 -35 -8 -40 -26
-22 -8 8 -6 20 7 44 20 36 14 45 -31 45 -10 0 -19 5 -19 11 0 6 16 9 38 7 33
-3 37 -6 34 -28z m-642 -20 c-6 -11 -13 -20 -16 -20 -2 0 0 9 6 20 6 11 13 20
16 20 2 0 0 -9 -6 -20z m-340 -18 c0 -15 -2 -15 -10 -2 -13 20 -13 33 0 25 6
-3 10 -14 10 -23z m540 18 c0 -5 -2 -10 -4 -10 -3 0 -8 5 -11 10 -3 6 -1 10 4
10 6 0 11 -4 11 -10z m-160 -24 c0 -8 -7 -16 -15 -20 -15 -5 -21 14 -8 27 11
12 23 8 23 -7z m534 -49 c-3 -18 -5 -44 -5 -59 0 -21 -6 -29 -25 -34 -13 -4
-31 -1 -39 6 -13 11 -12 16 5 40 11 16 20 32 20 37 0 16 31 53 40 48 5 -3 7
-20 4 -38z m823 -3 c42 10 65 8 74 -6 15 -23 10 -27 -22 -16 -22 7 -37 7 -52
-1 -12 -6 -31 -10 -42 -8 -15 1 -20 -4 -20 -25 -1 -35 -15 -50 -15 -16 0 14
-3 47 -6 74 l-7 49 31 -29 c25 -23 36 -27 59 -22z m-1317 27 c0 -5 -9 -11 -21
-14 -16 -4 -18 -3 -8 9 13 16 29 19 29 5z m-419 -61 c10 -22 15 -40 10 -40 -8
0 -41 65 -41 82 0 17 11 2 31 -42z m825 15 c-3 -9 -11 -13 -16 -10 -8 5 -7 11
1 21 14 18 24 11 15 -11z m-386 5 c0 -5 8 -10 18 -10 17 0 45 -25 118 -103 51
-55 127 -77 140 -42 4 8 13 15 21 15 12 0 14 7 9 30 -4 23 -2 32 10 37 9 3 19
15 24 27 7 20 8 20 21 -7 11 -25 11 -30 -4 -38 -10 -6 -17 -22 -17 -39 0 -22
-6 -30 -29 -38 -15 -5 -31 -19 -34 -31 -3 -14 -1 -19 6 -14 7 4 17 8 22 9 32
6 65 26 65 39 0 9 8 18 18 22 9 3 26 14 38 25 18 16 23 17 33 4 19 -22 5 -39
-21 -25 -11 6 -18 7 -14 1 3 -5 -1 -15 -9 -22 -8 -7 -15 -19 -15 -26 0 -8 -5
-13 -12 -12 -6 2 -14 -8 -18 -22 -4 -17 -8 -21 -14 -12 -5 9 -18 5 -49 -16
-44 -30 -93 -34 -108 -10 -5 7 -9 9 -9 5 0 -5 -19 5 -42 22 -49 36 -58 38 -58
12 0 -11 -5 -23 -12 -27 -8 -5 -9 0 -4 17 13 40 12 64 -1 62 -7 -2 -13 4 -13
12 0 8 -7 15 -15 15 -8 0 -15 -5 -15 -11 0 -5 -5 -7 -10 -4 -8 5 -7 11 1 21 9
11 9 17 0 28 -6 8 -10 20 -9 27 2 9 -4 13 -17 11 -17 -2 -17 -1 -5 8 13 9 13
12 -3 24 -10 8 -15 20 -11 30 7 18 24 22 24 6z m1420 -52 c0 -13 -23 -5 -28
10 -2 7 2 10 12 6 9 -3 16 -11 16 -16z m-1915 -8 c-3 -5 -2 -10 3 -10 5 0 15
-26 22 -57 7 -32 17 -62 22 -67 4 -6 8 -18 8 -28 0 -10 4 -18 10 -18 5 0 7 -7
3 -15 -5 -14 -8 -14 -25 1 -10 10 -16 24 -13 31 2 8 1 12 -4 8 -5 -3 -12 14
-16 37 -4 24 -11 48 -16 53 -4 6 -6 24 -4 40 5 37 4 35 11 35 3 0 2 -4 -1 -10z
m155 6 c0 -3 -4 -8 -10 -11 -5 -3 -10 -1 -10 4 0 6 5 11 10 11 6 0 10 -2 10
-4z m1020 -15 c0 -10 -9 -21 -20 -24 -15 -4 -20 0 -20 13 0 10 8 21 18 23 9 3
18 5 20 6 1 0 2 -7 2 -18z m-1060 -36 c12 -19 26 -35 31 -35 5 0 9 -6 9 -12 0
-7 11 -26 25 -42 25 -29 29 -36 21 -36 -16 0 -126 134 -126 154 0 17 21 2 40
-29z m1720 -36 c0 -24 -4 -38 -10 -34 -17 10 -11 75 7 75 2 0 3 -18 3 -41z
m46 19 c-3 -13 -6 -30 -6 -37 0 -10 -3 -11 -9 -5 -12 11 -2 64 11 64 6 0 8
-10 4 -22z m-697 -29 c1 -3 -10 -4 -24 -1 -29 5 -34 29 -7 34 15 3 29 -12 31
-33z m-1426 2 c22 -38 22 -51 -2 -51 -11 0 -23 -5 -26 -10 -3 -6 -26 -15 -51
-21 -42 -11 -59 -24 -103 -79 -17 -20 -20 -22 -21 -8 0 10 16 36 36 58 20 21
33 44 29 50 -9 14 -41 -14 -62 -53 -8 -16 -17 -27 -20 -24 -9 10 9 48 39 83
17 19 27 38 23 42 -4 4 -22 -11 -41 -33 -18 -22 -34 -35 -34 -29 0 6 15 28 33
49 33 38 59 47 147 53 30 2 38 -2 53 -27z m2011 7 c-3 -13 -13 -30 -20 -39 -8
-9 -11 -18 -8 -21 3 -3 1 -9 -5 -13 -7 -4 -11 4 -11 19 0 14 4 26 9 26 5 0 12
11 15 25 4 14 11 25 17 25 6 0 8 -9 3 -22z m26 -18 c0 -5 -4 -10 -10 -10 -5 0
-10 5 -10 10 0 6 5 10 10 10 6 0 10 -4 10 -10z m-854 -27 c-10 -10 -19 5 -10
18 6 11 8 11 12 0 2 -7 1 -15 -2 -18z m246 5 c1 -7 2 -72 3 -145 1 -85 6 -137
14 -146 9 -12 8 -16 -8 -20 -11 -3 -22 -2 -25 1 -10 9 -7 42 4 42 6 0 10 7 10
15 0 8 -6 12 -14 9 -9 -3 -15 4 -18 20 -4 18 -1 26 8 26 19 0 18 29 -1 36 -14
6 -13 8 1 19 9 6 14 17 10 23 -4 7 -2 12 3 12 6 0 11 11 11 25 0 20 -5 25 -25
25 -30 0 -33 16 -5 23 27 7 25 27 -2 28 -22 0 -22 1 -3 9 28 12 35 12 37 -2z
m728 -13 c0 -8 -4 -15 -10 -15 -5 0 -10 7 -10 15 0 8 5 15 10 15 6 0 10 -7 10
-15z m-2106 -37 c-15 -24 -12 -49 5 -42 9 4 26 9 38 11 12 3 24 13 26 22 2 11
9 5 20 -19 9 -19 26 -49 37 -67 18 -30 53 -143 46 -150 -1 -2 -9 8 -16 22 -19
35 -42 33 -36 -2 3 -18 30 -51 77 -94 l72 -67 -16 -31 c-9 -18 -13 -39 -10
-48 5 -13 3 -13 -25 1 -17 9 -39 16 -49 16 -10 0 -30 7 -45 14 -18 9 -30 11
-34 5 -9 -16 25 -36 86 -50 30 -7 56 -13 58 -15 9 -6 -23 -41 -34 -37 -8 3
-16 -6 -20 -21 -6 -25 -9 -26 -76 -26 -64 0 -73 3 -108 33 -22 17 -40 37 -40
42 0 6 -12 24 -25 40 l-25 30 0 -28 c0 -40 13 -60 71 -106 48 -38 56 -41 113
-41 91 0 99 -5 118 -61 17 -52 15 -57 -18 -35 -15 11 -20 23 -16 45 5 36 -5
41 -18 9 l-9 -23 0 23 c-1 24 -21 31 -21 7 0 -8 -4 -15 -10 -15 -5 0 -10 9
-10 21 0 12 -4 17 -11 14 -6 -4 -8 -13 -5 -21 3 -9 -2 -14 -14 -14 -12 0 -17
5 -14 14 3 8 1 17 -5 21 -6 3 -11 -1 -11 -9 0 -22 -6 -20 -60 19 -45 33 -98
88 -149 155 -31 41 -61 139 -61 200 0 42 4 52 31 75 34 28 34 44 -1 25 -29
-15 -32 -10 -10 18 10 12 30 23 44 24 15 1 25 7 23 13 -3 5 -14 9 -26 8 -13
-2 -20 1 -16 7 3 6 17 10 31 10 13 0 24 5 24 10 0 6 -7 10 -15 10 -8 0 -15 5
-15 11 0 7 10 9 25 5 18 -5 27 -2 32 10 6 18 57 43 86 44 12 0 16 -4 11 -12z
m1106 -12 c0 -8 -4 -18 -10 -21 -5 -3 -10 3 -10 14 0 12 5 21 10 21 6 0 10 -6
10 -14z m860 -6 c0 -5 -4 -10 -9 -10 -6 0 -13 5 -16 10 -3 6 1 10 9 10 9 0 16
-4 16 -10z m-1553 -22 c-3 -8 -6 -5 -6 6 -1 11 2 17 5 13 3 -3 4 -12 1 -19z
m1733 3 c0 -27 -20 -38 -32 -17 -5 9 -16 16 -24 16 -8 0 -12 5 -9 10 3 6 19
10 36 10 22 0 29 -5 29 -19z m-1670 -84 c19 -39 35 -76 35 -82 1 -5 7 -23 14
-40 13 -30 28 -195 16 -184 -3 4 -10 35 -16 70 -10 66 -46 176 -80 242 -10 22
-19 45 -19 53 0 30 16 11 50 -59z m592 31 c-6 -6 -9 0 -9 18 0 23 1 24 9 10 7
-12 7 -21 0 -28z m928 38 c0 -3 -4 -8 -10 -11 -5 -3 -10 -1 -10 4 0 6 5 11 10
11 6 0 10 -2 10 -4z m-1665 -16 c-3 -5 -12 -10 -18 -10 -7 0 -6 4 3 10 19 12
23 12 15 0z m375 -11 c0 -14 -17 -10 -23 5 -4 10 -1 13 9 9 7 -3 14 -9 14 -14z
m-390 -51 c0 -18 -18 -6 -30 20 -23 45 -23 48 4 17 14 -16 26 -33 26 -37z
m667 15 c-3 -10 -5 -2 -5 17 0 19 2 27 5 18 2 -10 2 -26 0 -35z m1033 22 c0
-2 -10 -10 -22 -16 -21 -11 -22 -11 -9 4 13 16 31 23 31 12z m-1277 -30 c11
-16 14 -25 6 -25 -12 0 -38 29 -39 43 0 14 15 6 33 -18z m196 -17 c12 -15 11
-18 -3 -18 -10 0 -16 8 -16 22 0 12 1 19 3 17 1 -2 9 -12 16 -21z m-322 -46
c16 -26 28 -49 29 -52 1 -9 16 -44 51 -119 32 -70 39 -108 18 -104 -5 1 -15
21 -21 45 -19 70 -89 226 -108 240 -12 8 -16 49 -4 42 4 -3 20 -26 35 -52z
m43 51 c0 -5 18 -21 40 -37 29 -22 39 -35 34 -48 -3 -10 0 -18 6 -18 8 0 10
-8 7 -21 -4 -16 2 -30 23 -49 16 -15 27 -30 24 -33 -3 -3 -17 6 -30 18 -14 13
-31 22 -38 19 -9 -3 -18 13 -28 48 -8 29 -19 52 -24 51 -8 -2 -43 53 -44 70 0
4 7 7 15 7 8 0 15 -3 15 -7z m234 -70 c28 3 59 8 69 12 27 11 20 -11 -15 -47
-26 -26 -38 -32 -71 -31 -43 2 -91 37 -83 60 3 7 -1 13 -9 13 -25 0 -27 20 -2
29 14 6 29 16 33 23 6 9 11 0 17 -26 l10 -39 51 6z m-540 42 c-4 -8 -10 -15
-15 -15 -5 0 -9 7 -9 15 0 8 7 15 15 15 9 0 12 -6 9 -15z m1666 -5 c0 -13 -28
-25 -38 -16 -3 4 0 11 8 16 20 13 30 12 30 0z m60 -10 c0 -5 -4 -10 -10 -10
-5 0 -10 5 -10 10 0 6 5 10 10 10 6 0 10 -4 10 -10z m-49 -53 c-13 -13 -26 -3
-16 12 3 6 11 8 17 5 6 -4 6 -10 -1 -17z m-21 -37 c0 -5 -4 -10 -10 -10 -5 0
-10 5 -10 10 0 6 5 10 10 10 6 0 10 -4 10 -10z m-93 -57 c-3 -10 -5 -2 -5 17
0 19 2 27 5 18 2 -10 2 -26 0 -35z m-1312 7 c3 -5 1 -10 -4 -10 -6 0 -11 5
-11 10 0 6 2 10 4 10 3 0 8 -4 11 -10z m1435 -4 c0 -8 -4 -18 -10 -21 -5 -3
-10 3 -10 14 0 12 5 21 10 21 6 0 10 -6 10 -14z m-1433 -42 c-9 -9 -28 6 -21
18 4 6 10 6 17 -1 6 -6 8 -13 4 -17z m-227 0 c0 -8 -4 -12 -10 -9 -5 3 -10 10
-10 16 0 5 5 9 10 9 6 0 10 -7 10 -16z m566 -21 c-10 -10 -19 5 -10 18 6 11 8
11 12 0 2 -7 1 -15 -2 -18z m-63 -40 c-7 -2 -19 -2 -25 0 -7 3 -2 5 12 5 14 0
19 -2 13 -5z m-603 -24 c0 -11 -4 -17 -10 -14 -5 3 -10 13 -10 21 0 8 5 14 10
14 6 0 10 -9 10 -21z m354 -18 c-2 -42 -3 -44 -19 -31 -8 7 -13 22 -11 34 5
25 3 23 19 23 7 0 12 -11 11 -26z m286 5 c0 -3 -4 -8 -10 -11 -5 -3 -10 -1
-10 4 0 6 5 11 10 11 6 0 10 -2 10 -4z m-669 -126 l-19 -65 -1 42 c-1 24 7 61
17 84 25 58 27 19 3 -61z m529 80 c0 -5 -2 -10 -4 -10 -3 0 -8 5 -11 10 -3 6
-1 10 4 10 6 0 11 -4 11 -10z m-336 -25 c-4 -8 -8 -15 -10 -15 -2 0 -4 7 -4
15 0 8 4 15 10 15 5 0 7 -7 4 -15z m1736 5 c0 -5 -9 -10 -21 -10 -11 0 -17 5
-14 10 3 6 13 10 21 10 8 0 14 -4 14 -10z m-1511 -16 c2 -2 -5 -4 -15 -4 -11
0 -29 -7 -40 -15 -15 -12 -16 -16 -5 -24 11 -7 9 -13 -8 -30 -12 -12 -19 -26
-16 -30 6 -10 -23 -37 -31 -29 -3 3 2 23 10 43 9 21 16 44 16 53 0 29 31 52
59 45 14 -3 28 -7 30 -9z m-468 -47 c-16 -16 -26 0 -10 19 9 11 15 12 17 4 2
-6 -1 -17 -7 -23z m1075 -19 c-3 -13 -6 -35 -6 -50 0 -16 -4 -28 -10 -28 -5 0
-10 23 -10 50 0 39 3 50 16 50 12 0 15 -6 10 -22z m665 -5 c20 -34 32 -132 19
-153 -5 -8 -21 -14 -37 -15 -22 0 -27 -4 -24 -20 1 -11 5 -58 8 -105 4 -71 1
-93 -16 -133 -24 -55 -27 -97 -9 -115 7 -7 13 -29 14 -50 0 -20 4 -62 8 -92 8
-64 -3 -91 -31 -74 -20 12 -23 49 -10 121 6 34 4 41 -7 37 -18 -7 -26 -49 -26
-140 0 -72 -6 -89 -26 -76 -21 14 -22 55 -4 130 81 333 87 377 71 486 -14 90
-11 202 4 198 11 -3 11 -52 0 -94 -9 -33 1 -66 15 -52 6 6 12 46 14 90 5 91 4
84 14 84 4 0 15 -12 23 -27z m244 7 c-3 -5 -10 -10 -16 -10 -5 0 -9 5 -9 10 0
6 7 10 16 10 8 0 12 -4 9 -10z m45 0 c0 -5 -2 -10 -4 -10 -3 0 -8 5 -11 10 -3
6 -1 10 4 10 6 0 11 -4 11 -10z m-1423 -15 c0 -8 -4 -12 -9 -9 -5 3 -6 10 -3
15 9 13 12 11 12 -6z m-82 -13 c-3 -3 -11 0 -18 7 -9 10 -8 11 6 5 10 -3 15
-9 12 -12z m1530 -2 c-3 -5 -15 -10 -26 -10 -11 0 -17 5 -14 10 3 6 15 10 26
10 11 0 17 -4 14 -10z m-1715 -90 c-8 -5 -15 -15 -16 -22 -1 -19 -15 -48 -23
-48 -14 0 -11 64 5 88 15 23 17 23 32 8 15 -15 15 -18 2 -26z m-386 15 c14
-11 17 -18 9 -26 -7 -7 -15 -2 -27 15 -18 29 -11 33 18 11z m1116 -35 c0 -22
-4 -40 -10 -40 -5 0 -10 18 -10 40 0 22 5 40 10 40 6 0 10 -18 10 -40z m-1074
-15 c-22 -17 -36 -19 -36 -7 0 14 12 22 34 22 21 -1 21 -1 2 -15z m52 -25 c-1
-17 -6 -34 -11 -37 -6 -4 -8 0 -4 10 4 11 1 17 -7 17 -20 0 -37 -25 -30 -43 3
-8 1 -18 -5 -22 -6 -3 -11 2 -11 12 0 10 -3 27 -5 38 -4 15 3 24 27 36 46 23
47 23 46 -11z m430 1 c-13 -16 -30 -32 -38 -36 -8 -3 1 10 19 29 42 44 51 46
19 7z m-1033 -23 c11 -21 27 -38 36 -38 17 0 32 -24 22 -34 -4 -3 -12 -1 -18
4 -15 12 -71 -14 -88 -41 -15 -24 -49 -24 -71 0 -17 18 -7 39 13 27 4 -3 18 6
31 19 22 23 22 25 6 50 -12 18 -25 25 -47 25 -27 0 -30 2 -19 15 10 12 28 15
64 13 48 -3 52 -6 71 -40z m225 16 c0 -11 -23 -49 -34 -56 -27 -18 -35 6 -16
43 10 17 50 28 50 13z m438 -6 c10 -10 15 -10 22 2 5 8 10 10 10 4 0 -26 -25
-32 -49 -13 -14 12 -18 19 -9 19 8 0 20 -6 26 -12z m113 -23 c0 -6 -10 -12
-23 -13 -19 -4 -20 -2 -9 12 15 17 33 18 32 1z m1433 -25 c5 -35 -8 -168 -19
-178 -2 -2 -3 46 -3 107 1 113 10 144 22 71z m99 -7 c-8 -65 -13 -67 -13 -5 0
29 4 52 10 52 6 0 7 -19 3 -47z m-2213 23 c0 -2 -3 -12 -6 -20 -5 -13 -9 -14
-20 -5 -20 16 -17 29 6 29 11 0 20 -2 20 -4z m540 -4 c0 -9 -44 -32 -58 -32
-10 1 38 40 49 40 5 0 9 -4 9 -8z m280 -16 c0 -9 -30 -14 -35 -6 -4 6 3 10 14
10 12 0 21 -2 21 -4z m-562 -23 c6 -19 -25 -16 -32 3 -4 11 -1 14 11 12 9 -2
18 -9 21 -15z m712 -3 c-6 -11 -16 -20 -22 -20 -6 0 -3 9 7 20 10 11 20 20 22
20 2 0 -1 -9 -7 -20z m-340 1 c0 -12 -20 -25 -27 -18 -7 7 6 27 18 27 5 0 9
-4 9 -9z m-430 -10 c0 -5 -9 -11 -20 -14 -20 -5 -26 3 -13 16 9 10 33 8 33 -2z
m2175 0 c9 -16 -40 -65 -58 -58 -22 8 -22 43 1 56 22 13 49 14 57 2z m-2375
-37 c0 -8 -8 -14 -18 -14 -25 0 -34 11 -21 26 13 15 39 7 39 -12z m120 13 c0
-21 -26 -51 -38 -43 -8 4 -4 15 10 31 25 29 28 30 28 12z m158 -32 c-18 -18
-58 -29 -58 -16 0 12 52 39 63 33 5 -2 3 -10 -5 -17z m62 15 c0 -5 -5 -10 -11
-10 -5 0 -7 5 -4 10 3 6 8 10 11 10 2 0 4 -4 4 -10z m60 -10 c0 -5 -4 -10 -9
-10 -6 0 -13 5 -16 10 -3 6 1 10 9 10 9 0 16 -4 16 -10z m2117 -12 c-3 -8 -6
-5 -6 6 -1 11 2 17 5 13 3 -3 4 -12 1 -19z m-2777 -30 c0 -12 -28 -10 -35 2
-4 6 -4 19 0 28 6 16 8 15 21 -2 8 -11 14 -23 14 -28z m45 24 c-3 -3 -11 0
-18 7 -9 10 -8 11 6 5 10 -3 15 -9 12 -12z m365 8 c0 -5 -4 -10 -10 -10 -5 0
-10 5 -10 10 0 6 5 10 10 10 6 0 10 -4 10 -10z m2320 -9 c0 -20 -17 -37 -27
-28 -7 8 7 47 18 47 5 0 9 -9 9 -19z m-2184 -29 c0 -14 -6 -17 -23 -14 -29 5
-29 10 0 22 12 5 22 9 22 9 1 1 1 -7 1 -17z m-185 -7 c-1 -15 -24 -12 -29 3
-3 9 2 13 12 10 10 -1 17 -7 17 -13z m83 9 c25 -10 19 -32 -14 -49 -38 -20
-37 -20 -38 13 0 36 19 49 52 36z m-384 -20 c0 -8 -4 -12 -10 -9 -5 3 -10 10
-10 16 0 5 5 9 10 9 6 0 10 -7 10 -16z m142 2 c22 -17 28 -44 18 -72 -8 -20
-15 -24 -30 -19 -13 4 -31 0 -46 -10 -24 -15 -27 -15 -45 1 -19 17 -26 69 -11
90 16 24 87 30 114 10z m2328 4 c0 -5 -7 -10 -16 -10 -8 0 -12 5 -9 10 3 6 10
10 16 10 5 0 9 -4 9 -10z m70 0 c0 -5 -7 -10 -15 -10 -8 0 -15 5 -15 10 0 6 7
10 15 10 8 0 15 -4 15 -10z m-2330 -10 c0 -5 -4 -10 -10 -10 -5 0 -10 5 -10
10 0 6 5 10 10 10 6 0 10 -4 10 -10z m2460 -9 c0 -5 -7 -14 -15 -21 -18 -15
-20 -41 -4 -57 8 -8 3 -16 -20 -28 -17 -9 -36 -13 -41 -10 -16 10 -12 42 6 49
12 4 14 13 10 31 -5 20 -2 27 16 35 30 12 48 12 48 1z m46 -49 c-11 -10 -14 3
-8 33 l7 30 3 -28 c2 -16 1 -31 -2 -35z m-2756 26 c29 -32 26 -56 -7 -54 -16
1 -34 5 -41 10 -14 9 -26 2 -28 -17 0 -7 -2 -20 -2 -29 -4 -36 -21 -17 -28 29
-6 41 -4 49 16 65 30 24 65 23 90 -4z m630 6 c0 -2 -7 -4 -15 -4 -8 0 -15 4
-15 10 0 5 7 7 15 4 8 -4 15 -8 15 -10z m-770 -15 c0 -5 -7 -9 -15 -9 -15 0
-20 12 -9 23 8 8 24 -1 24 -14z m2723 -42 c-19 -12 -63 0 -63 16 0 30 22 36
50 14 22 -18 24 -24 13 -30z m-2246 26 c4 -10 -2 -23 -16 -34 -16 -13 -20 -24
-16 -42 4 -14 2 -27 -3 -31 -5 -3 -12 15 -15 42 -3 26 -1 49 4 50 5 2 9 10 9
18 0 20 29 18 37 -3z m153 7 c8 -5 12 -11 9 -15 -8 -8 -69 6 -69 16 0 12 41
11 60 -1z m45 -40 c3 -5 1 -10 -4 -10 -6 0 -11 5 -11 10 0 6 2 10 4 10 3 0 8
-4 11 -10z m-75 -10 c0 -5 -4 -10 -9 -10 -6 0 -13 5 -16 10 -3 6 1 10 9 10 9
0 16 -4 16 -10z m-258 -22 c-6 -6 -15 -8 -19 -4 -4 4 -1 11 7 16 19 12 27 3
12 -12z m172 13 c9 -14 -4 -41 -19 -41 -21 0 -28 19 -15 35 14 17 26 19 34 6z
m-224 -25 c0 -22 -29 -41 -42 -28 -9 9 -7 17 7 32 18 20 35 18 35 -4z m-145
-6 c11 -13 14 -20 6 -20 -18 0 -51 19 -51 30 0 17 26 11 45 -10z m70 11 c3 -5
1 -12 -5 -16 -5 -3 -10 1 -10 9 0 18 6 21 15 7z m2425 -12 c0 -5 -7 -9 -15 -9
-15 0 -20 12 -9 23 8 8 24 -1 24 -14z m-193 -11 c-3 -13 -11 -49 -17 -80 -6
-32 -14 -58 -16 -58 -5 0 3 95 12 138 2 12 9 22 15 22 6 0 9 -10 6 -22z
m-2057 3 c0 -12 -20 -25 -27 -18 -7 7 6 27 18 27 5 0 9 -4 9 -9z m160 -20 c0
-5 -7 -12 -16 -15 -14 -5 -15 -4 -4 9 14 17 20 19 20 6z m-516 -27 c27 -24 28
-26 10 -39 -11 -8 -28 -15 -40 -15 -27 0 -36 -10 -23 -26 8 -9 5 -11 -10 -7
-22 6 -29 23 -10 23 7 0 8 11 4 30 -7 31 7 60 29 60 6 0 24 -12 40 -26z m2351
-1 c-2 -16 -7 -44 -10 -64 -4 -26 -12 -38 -26 -42 -18 -5 -20 -2 -14 21 19 83
61 152 50 85z m515 -24 c0 -28 -35 -24 -48 6 -6 14 -17 25 -24 25 -10 0 -10 2
1 9 19 12 71 -16 71 -40z m-333 9 c-3 -7 -5 -2 -5 12 0 14 2 19 5 13 2 -7 2
-19 0 -25z m-2417 12 c0 -5 -4 -10 -9 -10 -6 0 -13 5 -16 10 -3 6 1 10 9 10 9
0 16 -4 16 -10z m174 1 c3 -5 -1 -14 -8 -20 -16 -13 -32 2 -21 19 8 12 22 13
29 1z m-214 -32 c0 -6 -4 -7 -10 -4 -5 3 -10 11 -10 16 0 6 5 7 10 4 6 -3 10
-11 10 -16z m80 11 c0 -5 -5 -10 -11 -10 -5 0 -7 5 -4 10 3 6 8 10 11 10 2 0
4 -4 4 -10z m234 -32 c-2 -39 -4 -43 -25 -40 -40 6 -43 19 -13 51 16 17 31 31
35 31 3 0 4 -19 3 -42z m66 24 c0 -18 -18 -42 -32 -42 -4 0 -5 7 -3 15 3 8 7
22 10 30 6 21 25 19 25 -3z m71 -32 c-2 -19 -5 -44 -6 -55 -2 -24 -52 -56 -74
-47 -16 6 -40 32 -41 44 0 4 12 8 27 10 19 2 29 10 31 23 2 11 11 26 20 33 9
6 12 12 8 12 -4 0 -4 5 -1 11 4 5 14 9 23 7 13 -3 16 -12 13 -38z m2135 32 c6
-4 14 -17 18 -29 5 -16 2 -25 -14 -33 -18 -10 -26 -8 -46 11 l-25 23 23 18
c26 20 29 21 44 10z m-2594 -68 c-5 -41 -36 -47 -54 -10 -16 36 -5 54 29 49
26 -4 28 -8 25 -39z m78 36 c9 -5 19 -5 27 1 18 16 46 3 66 -30 20 -34 15 -41
-30 -41 -22 0 -32 -4 -27 -11 3 -6 18 -9 33 -6 l26 5 -24 -19 c-25 -20 -56
-25 -66 -9 -3 5 -12 7 -20 3 -8 -3 -15 0 -15 6 0 10 13 15 31 13 4 -1 5 7 2
17 -3 14 3 20 26 24 17 4 31 11 31 16 0 5 -16 5 -41 0 -46 -11 -58 -6 -40 15
9 11 9 15 -1 19 -7 3 -8 6 -3 6 6 0 17 -3 25 -9z m2677 -36 c-9 -9 -28 6 -21
18 4 6 10 6 17 -1 6 -6 8 -13 4 -17z m-2888 -16 c-1 -7 -5 -24 -9 -38 -7 -22
-8 -21 -9 13 -1 20 4 37 9 37 6 0 10 -6 9 -12z m51 -29 c0 -20 -15 -26 -25 -9
-9 15 3 43 15 35 5 -3 10 -15 10 -26z m140 21 c0 -5 -5 -10 -11 -10 -5 0 -7 5
-4 10 3 6 8 10 11 10 2 0 4 -4 4 -10z m210 -30 c0 -5 3 -15 6 -24 5 -13 1 -14
-26 -6 -43 12 -47 18 -25 34 19 14 45 11 45 -4z m1600 10 c0 -5 -5 -10 -11
-10 -5 0 -7 5 -4 10 3 6 8 10 11 10 2 0 4 -4 4 -10z m425 -76 c-3 -20 -12 -34
-20 -34 -18 0 -18 1 0 36 8 16 16 40 16 54 l2 25 4 -24 c3 -13 2 -39 -2 -57z
m-2342 24 c-11 -13 -22 -28 -24 -34 -7 -20 -49 3 -49 26 0 18 2 19 21 8 17
-11 22 -10 30 5 6 9 17 17 26 17 14 0 13 -3 -4 -22z m1867 2 c0 -5 -4 -10 -10
-10 -5 0 -10 5 -10 10 0 6 5 10 10 10 6 0 10 -4 10 -10z m-1810 -13 c0 -17
-20 -37 -37 -37 -19 0 -16 20 5 36 22 17 32 17 32 1z m59 4 c7 -5 10 -14 7
-20 -11 -18 -33 -13 -39 9 -5 21 8 26 32 11z m155 3 c13 -5 24 -34 12 -34 -15
0 -66 24 -66 31 0 10 31 12 54 3z m-327 -70 c-2 -2 -13 -1 -25 3 -14 3 -22 13
-22 26 0 20 1 20 25 -3 14 -13 24 -25 22 -26z m275 -2 c11 -18 15 -32 9 -32
-7 0 -14 7 -17 15 -4 8 -14 15 -24 15 -21 0 -44 25 -36 39 11 17 46 -3 68 -37z
m-72 -12 c22 -31 21 -60 -2 -60 -24 0 -35 15 -41 53 -7 47 12 50 43 7z m1990
-13 c0 -1 4 -17 10 -35 9 -32 7 -34 -25 -48 -19 -8 -46 -14 -60 -14 -23 0 -25
3 -20 23 10 31 55 77 77 77 10 0 18 -1 18 -3z m-2150 -17 c0 -5 -9 -14 -20
-20 -15 -8 -20 -8 -20 3 0 8 3 17 7 20 10 10 33 8 33 -3z m100 -5 c0 -8 -4
-15 -10 -15 -5 0 -10 7 -10 15 0 8 5 15 10 15 6 0 10 -7 10 -15z m17 -51 c-2
-2 -12 -1 -22 3 -18 6 -18 7 1 13 17 7 33 -5 21 -16z m-116 -41 l-4 -38 -8 29
c-8 29 -5 46 10 46 4 0 5 -17 2 -37z m199 12 c-16 -19 -30 -19 -30 -1 0 8 8
16 18 18 24 6 27 1 12 -17z m156 -20 c-3 -8 -12 -15 -21 -15 -14 0 -14 3 2 24
18 24 30 18 19 -9z m1439 -25 c7 -30 15 -65 19 -77 11 -35 -25 -39 -88 -9 -30
14 -62 26 -70 26 -9 0 -16 5 -16 11 0 6 -9 8 -20 4 -23 -7 -25 -2 -10 26 14
25 -2 25 -18 -1 -7 -12 -17 -18 -23 -14 -6 4 -5 11 3 21 11 14 9 15 -17 11
-17 -3 -39 -9 -50 -13 -18 -7 -18 -6 -5 8 20 20 140 39 158 24 10 -8 14 -5 19
11 3 14 15 22 37 25 65 9 69 6 81 -53z m-1655 25 c0 -8 -7 -15 -15 -15 -8 0
-15 7 -15 15 0 8 7 15 15 15 8 0 15 -7 15 -15z m130 -19 c0 -11 -19 -15 -25
-6 -3 5 1 10 9 10 9 0 16 -2 16 -4z m-87 -21 c4 -8 2 -17 -4 -20 -5 -4 -8 -13
-7 -20 2 -8 -1 -15 -7 -17 -12 -3 -19 37 -11 58 7 18 22 18 29 -1z m67 -26 c0
-5 -7 -9 -15 -9 -8 0 -15 7 -15 15 0 9 6 12 15 9 8 -4 15 -10 15 -15z m84 5
c12 -32 6 -54 -15 -54 -15 0 -19 4 -15 16 3 9 6 24 6 35 0 23 15 25 24 3z"/>
<g>
<path d="M1475 4874 l-30 -15 34 6 c18 3 42 5 52 5 11 0 19 5 19 10 0 14 -40
11 -75 -6z"/>
</g>
<g>
<path d="M1498 4843 c7 -3 16 -2 19 1 4 3 -2 6 -13 5 -11 0 -14 -3 -6 -6z"/>
</g>
<g>
<path d="M1621 4816 c-18 -21 43 -33 63 -13 8 8 12 17 9 21 -12 11 -61 6 -72
-8z"/>
</g>
<g>
<path d="M1488 4813 c7 -3 16 -2 19 1 4 3 -2 6 -13 5 -11 0 -14 -3 -6 -6z"/>
</g>
<g>
<path d="M1933 4547 c-22 -9 -32 -27 -15 -27 11 1 46 29 41 34 -2 2 -14 -1
-26 -7z"/>
</g>
<g>
<path d="M2014 4425 c-18 -15 -17 -16 16 -9 44 8 63 24 29 24 -14 0 -34 -7
-45 -15z"/>
</g>
<g>
<path d="M2039 4363 c-12 -15 -12 -16 4 -10 10 4 23 7 28 7 5 0 9 5 9 10 0 16
-26 12 -41 -7z"/>
</g>
<g>
<path d="M2045 4330 c-3 -5 -1 -10 4 -10 6 0 11 5 11 10 0 6 -2 10 -4 10 -3 0
-8 -4 -11 -10z"/>
</g>
<g>
<path d="M913 4453 c9 -2 25 -2 35 0 9 3 1 5 -18 5 -19 0 -27 -2 -17 -5z"/>
</g>
<g>
<path d="M1090 4450 c0 -5 20 -10 45 -10 25 0 45 5 45 10 0 6 -20 10 -45 10
-25 0 -45 -4 -45 -10z"/>
</g>
<g>
<path d="M1104 4409 c26 -6 43 -6 50 1 7 7 -6 10 -39 9 l-50 -1 39 -9z"/>
</g>
<g>
<path d="M1070 4300 c0 -5 7 -10 15 -10 8 0 15 5 15 10 0 6 -7 10 -15 10 -8 0
-15 -4 -15 -10z"/>
</g>
<g>
<path d="M1075 4260 c4 -6 11 -8 16 -5 14 9 11 15 -7 15 -8 0 -12 -5 -9 -10z"/>
</g>
<g>
<path d="M1620 4048 c-41 -11 -63 -28 -37 -28 26 0 97 24 97 32 0 10 -16 9
-60 -4z"/>
</g>
<g>
<path d="M2250 3916 c0 -23 31 -49 44 -36 7 7 8 15 0 28 -14 22 -44 28 -44 8z"/>
</g>
<g>
<path d="M2358 3882 c-17 -3 -26 -31 -10 -33 4 0 15 -2 26 -4 21 -4 46 4 46
14 0 12 -43 28 -62 23z"/>
</g>
<g>
<path d="M2262 3806 c1 -10 8 -17 13 -17 15 1 12 24 -3 29 -9 3 -13 -2 -10
-12z"/>
</g>
<g>
<path d="M2290 3431 c0 -6 6 -11 13 -11 21 0 51 -38 55 -68 2 -15 11 -38 20
-52 9 -14 19 -36 22 -50 3 -14 13 -26 23 -28 14 -3 17 4 17 35 0 22 -5 44 -11
50 -7 7 -2 19 16 42 29 34 23 40 -13 15 -13 -9 -21 -22 -18 -30 3 -7 1 -16 -4
-19 -4 -3 -11 12 -15 34 -3 21 -16 48 -28 59 -26 24 -77 40 -77 23z"/>
</g>
<g>
<path d="M2165 3350 c3 -5 10 -10 16 -10 5 0 9 5 9 10 0 6 -7 10 -16 10 -8 0
-12 -4 -9 -10z"/>
</g>
<g>
<path d="M2145 3310 c-3 -5 1 -10 9 -10 9 0 16 5 16 10 0 6 -4 10 -9 10 -6 0
-13 -4 -16 -10z"/>
</g>
<g>
<path d="M2485 3090 c-3 -6 6 -15 20 -20 34 -13 35 -13 35 4 0 22 -43 35 -55
16z"/>
</g>
<g>
<path d="M2480 3041 c0 -10 24 -21 47 -21 13 0 13 3 3 15 -13 16 -50 21 -50 6z"/>
</g>
<g>
<path d="M2480 2966 c0 -7 9 -16 20 -19 24 -6 28 18 4 27 -22 8 -24 8 -24 -8z"/>
</g>
<g>
<path d="M2490 2896 c6 -8 18 -12 26 -9 23 9 16 23 -12 23 -22 0 -24 -2 -14
-14z"/>
</g>
<g>
<path d="M2283 2860 c-2 -35 2 -42 24 -51 14 -5 28 -7 30 -5 10 9 -9 26 -30
27 -17 1 -18 2 -4 6 31 8 17 63 -17 63 -1 0 -2 -18 -3 -40z"/>
</g>
<g>
<path d="M2497 2854 c-9 -10 2 -24 19 -24 8 0 14 7 14 15 0 15 -21 21 -33 9z"/>
</g>
<g>
<path d="M2416 2831 c-4 -6 -4 -100 -1 -208 4 -109 8 -261 9 -338 2 -115 4
-140 16 -140 17 0 18 100 5 475 -6 191 -13 238 -29 211z"/>
</g>
<g>
<path d="M2335 2780 c-29 -7 -29 -8 -7 -15 12 -4 22 -11 22 -16 0 -16 -5 -24
-12 -21 -5 1 -8 -5 -8 -13 0 -8 5 -15 10 -15 6 0 10 -7 10 -16 0 -8 -4 -12
-10 -9 -5 3 -10 -1 -10 -9 0 -9 7 -16 15 -16 8 0 15 -7 15 -15 0 -8 -7 -15
-15 -15 -8 0 -15 -5 -15 -10 0 -6 7 -13 15 -16 23 -9 19 -33 -5 -27 -14 4 -20
0 -20 -11 0 -9 8 -16 20 -16 11 0 20 -6 20 -14 0 -9 -7 -12 -20 -9 -11 3 -20
0 -20 -6 0 -6 9 -11 20 -11 11 0 20 -7 20 -15 0 -9 -9 -15 -21 -15 -12 0 -19
-5 -17 -12 3 -7 13 -13 24 -13 18 0 19 -12 19 -368 0 -307 2 -365 13 -350 7
10 22 17 32 15 26 -4 26 14 0 21 -26 7 -26 24 0 23 10 -1 19 4 19 9 0 6 -9 10
-19 9 -11 0 -20 5 -20 13 0 7 9 13 19 13 29 0 35 18 9 22 -13 2 -24 11 -26 21
-3 15 2 18 24 15 15 -2 29 2 31 10 3 8 -6 12 -26 12 -21 0 -31 5 -31 15 0 9 9
15 24 15 14 0 28 5 31 10 4 6 3 10 -2 9 -40 -7 -59 14 -22 24 25 7 16 27 -11
27 -17 0 -18 16 -19 323 -1 177 -3 338 -5 357 -2 19 -5 50 -5 68 -1 17 -4 31
-8 31 -5 -1 -21 -5 -38 -9z"/>
</g>
<g>
<path d="M2502 2739 c2 -6 8 -10 13 -10 5 0 11 4 13 10 2 6 -4 11 -13 11 -9 0
-15 -5 -13 -11z"/>
</g>
<g>
<path d="M2045 2550 c-3 -6 1 -13 10 -16 19 -8 30 0 20 15 -8 14 -22 14 -30 1z"/>
</g>
<g>
<path d="M2330 2410 c0 -5 5 -10 10 -10 6 0 10 5 10 10 0 6 -4 10 -10 10 -5 0
-10 -4 -10 -10z"/>
</g>
<g>
<path d="M2327 2353 c-12 -11 -8 -23 8 -23 8 0 15 7 15 15 0 16 -12 20 -23 8z"/>
</g>
<g>
<path d="M2330 2300 c0 -5 4 -10 9 -10 6 0 13 5 16 10 3 6 -1 10 -9 10 -9 0
-16 -4 -16 -10z"/>
</g>
<g>
<path d="M2535 2120 c-3 -6 1 -13 10 -16 19 -8 30 0 20 15 -8 14 -22 14 -30 1z"/>
</g>
<g>
<path d="M2415 2049 c-10 -15 3 -25 16 -12 7 7 7 13 1 17 -6 3 -14 1 -17 -5z"/>
</g>
<g>
<path d="M2390 1710 c0 -5 9 -10 20 -10 11 0 20 5 20 10 0 6 -9 10 -20 10 -11
0 -20 -4 -20 -10z"/>
</g>
<g>
<path d="M2290 1681 c0 -5 5 -13 10 -16 6 -4 8 -10 5 -15 -14 -22 91 -49 132
-33 30 12 9 19 -47 17 -60 -2 -60 -2 -58 25 2 20 -2 27 -19 29 -13 2 -23 -1
-23 -7z"/>
</g>
<g>
<path d="M2385 1670 c-4 -6 -3 -16 3 -22 6 -6 12 -6 17 2 4 6 3 16 -3 22 -6 6
-12 6 -17 -2z"/>
</g>
<g>
<path d="M1446 3721 c-4 -7 -5 -15 -2 -18 9 -9 19 4 14 18 -4 11 -6 11 -12 0z"/>
</g>
<g>
<path d="M1480 3710 c0 -5 5 -10 10 -10 6 0 10 5 10 10 0 6 -4 10 -10 10 -5 0
-10 -4 -10 -10z"/>
</g>
<g>
<path d="M1550 3690 c0 -5 5 -10 10 -10 6 0 10 5 10 10 0 6 -4 10 -10 10 -5 0
-10 -4 -10 -10z"/>
</g>
<g>
<path d="M1120 2551 c-12 -23 -14 -54 -2 -48 4 3 8 -8 9 -24 3 -38 30 -87 68
-121 32 -29 41 -33 49 -20 6 11 -29 84 -37 75 -4 -3 -7 1 -7 10 0 10 -4 17
-10 17 -5 0 -7 7 -4 15 4 8 1 15 -6 15 -7 0 -10 7 -6 15 6 16 -23 84 -36 85
-4 0 -12 -9 -18 -19z"/>
</g>
<g>
<path d="M724 2186 c-10 -8 -16 -17 -13 -20 8 -8 79 16 73 26 -8 12 -38 10
-60 -6z"/>
</g>
<g>
<path d="M633 2169 c-14 -32 -2 -94 17 -94 9 0 13 7 11 15 -2 8 -7 35 -11 60
-6 43 -7 44 -17 19z"/>
</g>
<g>
<path d="M768 2153 c-10 -2 -18 -9 -18 -14 0 -15 53 -6 58 9 4 12 -8 14 -40 5z"/>
</g>
<g>
<path d="M785 2110 c-11 -18 13 -49 35 -43 20 5 28 23 10 23 -5 0 -7 7 -4 15
7 17 -31 22 -41 5z"/>
</g>
<g>
<path d="M741 2073 c-8 -16 -6 -30 11 -64 11 -24 27 -48 34 -52 8 -4 26 -21
41 -37 30 -31 63 -42 70 -23 2 6 -4 14 -14 18 -41 14 -96 75 -113 126 -16 46
-19 50 -29 32z"/>
</g>
<g>
<path d="M506 2024 c-4 -9 -4 -19 -1 -22 6 -6 35 18 35 29 0 16 -28 10 -34 -7z"/>
</g>
<g>
<path d="M650 2010 c0 -62 143 -180 217 -180 17 0 35 -4 38 -10 10 -17 28 -11
21 7 -4 9 -1 20 5 24 6 4 8 12 5 18 -10 16 -26 14 -26 -4 0 -19 -14 -19 -76 0
-50 14 -127 82 -153 133 -12 23 -31 30 -31 12z"/>
</g>
<g>
<path d="M510 1955 c0 -9 6 -12 15 -9 8 4 15 10 15 15 0 5 -7 9 -15 9 -8 0
-15 -7 -15 -15z"/>
</g>
<g>
<path d="M625 1949 c-4 -6 -5 -13 -2 -16 7 -7 27 6 27 18 0 12 -17 12 -25 -2z"/>
</g>
<g>
<path d="M643 1915 c-9 -25 2 -27 22 -5 17 18 17 20 1 20 -9 0 -19 -7 -23 -15z"/>
</g>
<g>
<path d="M520 1896 c0 -9 5 -16 10 -16 6 0 10 4 10 9 0 6 -4 13 -10 16 -5 3
-10 -1 -10 -9z"/>
</g>
<g>
<path d="M681 1881 c-13 -23 -14 -31 -3 -31 13 0 32 39 22 45 -5 3 -14 -3 -19
-14z"/>
</g>
<g>
<path d="M724 1856 c-3 -8 -4 -23 -2 -33 3 -13 7 -9 15 15 12 31 -1 48 -13 18z"/>
</g>
<g>
<path d="M760 1843 c0 -6 -3 -18 -6 -27 -3 -9 -2 -16 4 -16 15 0 24 32 12 44
-7 7 -10 7 -10 -1z"/>
</g>
<g>
<path d="M690 1735 c0 -8 5 -15 10 -15 6 0 10 7 10 15 0 8 -4 15 -10 15 -5 0
-10 -7 -10 -15z"/>
</g>
<g>
<path d="M730 1715 c0 -8 5 -15 10 -15 6 0 10 7 10 15 0 8 -4 15 -10 15 -5 0
-10 -7 -10 -15z"/>
</g>
<g>
<path d="M775 1717 c-4 -10 -5 -21 -1 -24 10 -10 18 4 13 24 -4 17 -4 17 -12
0z"/>
</g>
<g>
<path d="M815 1717 c-4 -10 -5 -21 -1 -24 10 -10 18 4 13 24 -4 17 -4 17 -12
0z"/>
</g>
<g>
<path d="M846 1704 c-9 -22 3 -32 14 -14 12 19 12 30 1 30 -5 0 -12 -7 -15
-16z"/>
</g>
<g>
<path d="M1567 2003 c3 -7 14 -13 24 -13 10 0 19 6 19 13 0 6 -11 12 -24 12
-15 0 -22 -5 -19 -12z"/>
</g>
<g>
<path d="M145 1201 c-6 -11 33 -26 43 -16 4 3 0 10 -8 15 -19 12 -27 12 -35 1z"/>
</g>
</g>
<g>
<path d="M1360 5210 c0 -5 11 -10 25 -10 24 0 25 -2 25 -69 0 -58 -3 -70 -17
-74 -10 -3 51 -5 135 -6 106 -1 152 2 152 10 0 7 -11 9 -30 6 l-30 -6 0 74 c0
73 0 74 28 78 15 2 -44 5 -130 6 -100 0 -158 -3 -158 -9z m222 -52 c5 -76 0
-97 -23 -91 -16 5 -19 15 -19 67 0 64 4 76 26 76 7 0 13 -20 16 -52z m-82 -28
c0 -68 -1 -70 -25 -70 -24 0 -25 2 -25 70 0 68 1 70 25 70 24 0 25 -2 25 -70z"/>
</g>
<g>
<path d="M1350 4289 c0 -5 5 -7 10 -4 6 3 10 8 10 11 0 2 -4 4 -10 4 -5 0 -10
-5 -10 -11z"/>
</g>
<g>
<path d="M736 3911 c-16 -17 -16 -19 3 -24 21 -5 41 9 41 30 0 19 -24 16 -44
-6z"/>
</g>
<g>
<path d="M847 3923 c-4 -3 -7 -14 -7 -23 0 -13 6 -16 25 -12 30 5 36 42 7 42
-10 0 -22 -3 -25 -7z"/>
</g>
<g>
<path d="M807 3844 c-10 -11 3 -24 24 -24 10 0 19 7 19 15 0 15 -31 21 -43 9z"/>
</g>
<g>
<path d="M792 3794 c-14 -10 -13 -12 9 -20 41 -14 49 -13 59 7 6 10 9 20 8 20
-15 7 -63 3 -76 -7z"/>
</g>
<g>
<path d="M476 3701 c-3 -5 1 -11 9 -15 9 -3 15 0 15 9 0 16 -16 20 -24 6z"/>
</g>
<g>
<path d="M907 3633 c-62 -60 -54 -67 9 -9 27 25 46 47 43 50 -3 3 -26 -16 -52
-41z"/>
</g>
<g>
<path d="M2558 3609 c-10 -6 -18 -14 -18 -19 0 -14 37 -12 46 1 10 17 -9 29
-28 18z"/>
</g>
<g>
<path d="M833 3541 c-13 -16 -31 -51 -41 -78 -11 -26 -23 -57 -27 -67 -6 -13
-5 -17 3 -12 15 9 94 165 90 178 -2 5 -13 -4 -25 -21z"/>
</g>
<g>
<path d="M825 3406 c-18 -42 -38 -137 -30 -144 6 -6 20 32 38 108 17 75 14 90
-8 36z"/>
</g>
<g>
<path d="M860 3403 c-1 -5 -5 -28 -10 -53 -6 -32 -5 -47 3 -52 21 -14 23 -9
25 52 1 34 -3 60 -8 60 -6 0 -10 -3 -10 -7z"/>
</g>
<g>
<path d="M735 3351 c-13 -22 -23 -106 -14 -123 18 -33 24 -18 24 57 0 41 -1
75 -2 75 -1 0 -4 -4 -8 -9z"/>
</g>
<g>
<path d="M686 3180 c-20 -50 -20 -64 -1 -56 11 4 15 -1 15 -17 1 -22 1 -22 15
-2 18 23 14 41 -9 39 -12 -1 -15 4 -11 17 3 10 8 28 11 39 10 35 -3 22 -20
-20z"/>
</g>
<g>
<path d="M636 3171 c-17 -19 -14 -71 5 -71 8 0 12 12 24 73 4 22 -8 22 -29 -2z"/>
</g>
<g>
<path d="M2711 2577 c-13 -16 -5 -27 21 -27 11 0 18 7 18 20 0 23 -22 27 -39
7z"/>
</g>
<g>
<path d="M2710 1850 c-12 -7 -12 -12 -2 -22 9 -9 15 -9 24 0 16 16 -2 34 -22
22z"/>
</g>
<g>
<path d="M2705 1770 c4 -6 11 -8 16 -5 14 9 11 15 -7 15 -8 0 -12 -5 -9 -10z"/>
</g>
<g>
<path d="M2040 1632 c0 -10 4 -22 9 -27 15 -16 30 -204 24 -296 -3 -52 -2 -89
4 -92 28 -17 21 343 -8 406 -14 31 -29 36 -29 9z"/>
</g>
<g>
<path d="M2933 1538 c2 -7 10 -13 17 -13 7 0 15 6 18 13 2 7 -5 12 -18 12 -13
0 -20 -5 -17 -12z"/>
</g>
<g>
<path d="M2406 1524 c-7 -18 -8 -80 -2 -73 10 9 24 89 16 89 -4 0 -11 -7 -14
-16z"/>
</g>
<g>
<path d="M465 1520 c4 -6 11 -8 16 -5 14 9 11 15 -7 15 -8 0 -12 -5 -9 -10z"/>
</g>
<g>
<path d="M2717 1476 c-6 -16 2 -28 14 -20 12 7 11 34 0 34 -5 0 -11 -6 -14
-14z"/>
</g>
<g>
<path d="M753 1443 c-14 -5 -18 -23 -5 -23 5 0 17 7 28 15 14 11 15 14 4 14
-8 0 -21 -3 -27 -6z"/>
</g>
<g>
<path d="M2760 1440 c0 -5 5 -10 10 -10 6 0 10 5 10 10 0 6 -4 10 -10 10 -5 0
-10 -4 -10 -10z"/>
</g>
<g>
<path d="M2212 1400 c0 -14 2 -19 5 -12 2 6 2 18 0 25 -3 6 -5 1 -5 -13z"/>
</g>
<g>
<path d="M130 1400 c0 -5 4 -10 9 -10 6 0 13 5 16 10 3 6 -1 10 -9 10 -9 0
-16 -4 -16 -10z"/>
</g>
<g>
<path d="M2186 1205 c-11 -60 -21 -105 -22 -100 -1 6 -5 27 -9 48 -9 56 -25
45 -25 -18 0 -38 4 -57 14 -61 9 -3 16 -31 20 -82 4 -43 11 -84 16 -92 17 -28
23 18 11 81 -10 51 -10 78 4 159 9 53 15 115 13 136 -2 30 -7 14 -22 -71z"/>
</g>
<g>
<path d="M70 1290 c0 -5 5 -10 10 -10 6 0 10 5 10 10 0 6 -4 10 -10 10 -5 0
-10 -4 -10 -10z"/>
</g>
<g>
<path d="M2991 944 c0 -11 3 -14 6 -6 3 7 2 16 -1 19 -3 4 -6 -2 -5 -13z"/>
</g>
<g>
<path d="M2673 633 c-13 -8 -23 -21 -23 -29 0 -19 -19 -27 -35 -14 -11 9 -24
8 -60 -6 -50 -19 -75 -46 -75 -81 0 -27 -6 -29 -26 -8 -19 18 -73 20 -80 2 -3
-9 -22 -12 -67 -9 -61 4 -64 3 -93 -30 -24 -27 -41 -36 -77 -41 -26 -4 -55
-12 -65 -18 -11 -7 -27 -9 -38 -5 -18 8 -18 9 4 17 12 4 22 11 22 14 0 11 -47
4 -66 -9 -19 -15 -19 -15 1 -29 16 -13 17 -17 6 -31 -17 -21 -35 -21 -27 0 9
22 -11 44 -40 44 -24 0 -36 -24 -31 -65 1 -15 -3 -19 -21 -18 -13 2 -36 -4
-52 -12 -16 -8 -35 -12 -44 -9 -24 9 -56 -14 -56 -41 0 -16 -6 -25 -16 -25
-11 0 -14 -5 -10 -17 4 -9 1 -20 -6 -25 -26 -16 -38 -8 -38 25 0 36 -25 67
-54 67 -26 0 -56 -19 -56 -35 0 -8 -12 -15 -27 -17 -22 -2 -29 -10 -34 -33 -6
-28 -7 -28 -8 -4 0 14 -7 34 -15 44 -12 16 -17 17 -43 6 -17 -7 -42 -9 -57 -5
-17 4 -35 1 -50 -9 -13 -9 -50 -17 -81 -19 -41 -2 -61 -8 -69 -20 -14 -23 2
-37 18 -15 7 9 25 17 40 17 21 0 26 -5 26 -24 0 -31 14 -40 30 -21 10 12 16
13 26 4 22 -18 44 7 37 42 -3 18 -1 29 6 29 6 0 11 -10 11 -23 0 -32 23 -60
46 -56 15 3 20 14 22 47 4 49 22 47 22 -3 0 -27 5 -34 26 -39 14 -4 32 -2 39
4 10 8 19 8 34 -2 18 -11 23 -10 38 5 18 18 18 19 -12 90 -7 16 -4 18 21 15
26 -3 29 -7 34 -48 4 -40 8 -45 30 -45 15 0 28 -7 32 -18 11 -27 29 -17 42 23
9 29 17 36 42 38 24 2 33 -1 36 -16 4 -15 0 -19 -19 -19 -14 0 -32 -8 -41 -16
-34 -35 34 -97 77 -70 9 6 17 24 19 41 2 23 9 32 30 37 43 12 103 15 116 7 6
-4 36 -7 66 -7 35 -1 65 -7 82 -19 17 -11 28 -13 33 -7 11 19 25 12 25 -14 0
-13 8 -28 18 -34 20 -10 122 -2 122 10 0 15 28 10 34 -6 11 -29 113 -15 138
20 22 30 -9 34 -35 5 -21 -24 -77 -28 -77 -5 0 31 -79 42 -81 11 0 -6 -4 -1
-9 12 -6 15 -18 22 -35 22 -21 0 -25 -5 -25 -31 0 -17 -4 -28 -10 -24 -5 3
-10 22 -10 41 0 21 -5 34 -13 34 -16 0 -57 41 -57 57 0 6 -12 20 -27 31 -16
11 -24 24 -20 28 4 5 24 -10 43 -33 19 -23 46 -49 60 -57 22 -15 26 -15 48 -1
25 16 36 10 49 -27 5 -13 17 -18 47 -18 22 0 40 4 40 9 0 12 91 20 111 10 9
-5 33 -6 53 -2 30 5 35 9 31 24 -8 24 7 24 29 0 21 -23 66 -33 84 -19 8 7 12
7 12 -1 0 -12 49 -15 67 -3 6 4 15 20 18 35 5 20 12 26 25 22 28 -9 50 5 65
41 17 41 30 43 47 7 17 -36 38 -41 38 -10 0 27 -28 57 -55 57 -16 0 -17 6 -11
58 8 68 -5 112 -34 119 -11 3 -20 11 -20 18 0 7 -7 16 -16 19 -10 4 -13 13 -9
26 5 16 2 20 -17 20 -13 0 -30 6 -36 12 -10 10 -17 10 -33 0 -11 -7 -24 -10
-29 -7 -5 3 -11 1 -15 -5 -9 -15 -25 -12 -25 5 0 9 11 21 25 27 14 6 25 15 25
20 0 13 -33 8 -57 -9z m-63 -78 c0 -25 -1 -25 -77 -41 -34 -7 -30 31 5 50 43
24 72 21 72 -9z m100 -5 c0 -5 -4 -10 -10 -10 -5 0 -10 5 -10 10 0 6 5 10 10
10 6 0 10 -4 10 -10z m65 -10 c-3 -5 -12 -10 -18 -10 -7 0 -6 4 3 10 19 12 23
12 15 0z m67 -20 c28 -21 52 -72 46 -92 -2 -6 -13 6 -24 29 -10 22 -28 44 -38
49 -21 10 -34 34 -18 34 5 0 21 -9 34 -20z m-177 0 c-3 -5 -10 -10 -16 -10 -5
0 -9 5 -9 10 0 6 7 10 16 10 8 0 12 -4 9 -10z m-80 -33 c-10 -8 -15 -19 -11
-25 4 -7 1 -12 -10 -12 -11 0 -15 -6 -11 -19 3 -12 -1 -22 -12 -26 -13 -5 -11
-9 12 -21 34 -18 35 -26 2 -20 -26 5 -43 -8 -25 -19 8 -5 7 -11 -1 -21 -6 -8
-9 -18 -5 -22 8 -7 14 -9 46 -11 11 0 20 -6 20 -11 0 -6 -15 -9 -32 -8 -29 3
-33 0 -31 -19 3 -30 -18 -30 -44 -1 -27 31 -36 58 -19 58 20 0 25 20 13 53
-21 61 30 137 92 137 32 0 33 -1 16 -13z m212 -8 c46 -29 83 -89 83 -136 0
-49 -8 -58 -48 -66 -25 -5 -32 -3 -30 6 3 6 14 13 26 15 27 4 28 13 3 32 -11
7 -18 17 -15 21 8 13 -9 41 -30 48 -11 5 -21 14 -22 22 0 8 -2 22 -2 32 -1 9
-9 17 -17 17 -16 0 -20 12 -8 23 11 11 24 8 60 -14z m-92 -26 c12 -29 12 -32
-8 -37 -22 -6 -22 -7 -3 -21 11 -8 16 -15 10 -15 -5 -1 2 -7 16 -15 25 -14 25
-14 3 -15 -13 0 -23 -4 -23 -9 0 -5 10 -12 23 -15 l22 -7 -21 -11 c-20 -9 -21
-12 -7 -39 10 -20 22 -29 39 -29 14 0 22 -4 19 -10 -9 -14 -86 0 -112 20 -20
16 -21 19 -6 24 12 5 13 10 5 18 -8 8 -9 15 -1 25 8 9 7 14 -5 19 -9 3 -16 12
-16 20 0 8 -7 14 -16 14 -11 0 -14 6 -8 23 4 12 8 29 9 37 0 9 4 21 9 28 4 6
5 16 2 20 -2 4 9 8 26 7 24 0 32 -6 43 -32z m-375 12 c31 -16 38 -31 19 -37
-7 -2 0 -12 15 -22 37 -24 60 -6 53 41 -3 18 -2 33 4 33 5 0 9 -7 9 -15 0 -8
4 -15 10 -15 11 0 1 -101 -11 -114 -17 -18 -9 -53 21 -94 28 -39 29 -42 10
-42 -11 0 -23 7 -26 15 -8 21 -32 19 -46 -5 -19 -30 -44 -25 -55 13 -10 36
-34 39 -69 6 -20 -19 -21 -19 -38 0 -25 28 -12 85 25 112 16 11 29 29 29 38 0
25 -26 44 -50 38 -27 -7 -25 4 5 37 27 30 53 33 95 11z m-169 -82 c4 -49 2
-67 -9 -71 -7 -2 -11 5 -10 19 5 35 -20 33 -35 -3 -8 -19 -26 -47 -41 -63
l-26 -28 0 26 c0 17 7 28 19 32 11 3 25 21 31 40 17 50 68 84 71 48z m579 7
c0 -5 -2 -10 -4 -10 -3 0 -8 5 -11 10 -3 6 -1 10 4 10 6 0 11 -4 11 -10z
m-490 -14 c0 -8 -5 -18 -11 -22 -14 -8 -33 11 -25 25 10 16 36 13 36 -3z
m-300 -4 c0 -13 -12 -22 -22 -16 -10 6 -1 24 13 24 5 0 9 -4 9 -8z m100 -37
c0 -8 -7 -15 -15 -15 -8 0 -15 7 -15 15 0 8 7 15 15 15 8 0 15 -7 15 -15z
m536 -22 c-10 -10 -19 5 -10 18 6 11 8 11 12 0 2 -7 1 -15 -2 -18z m-636 -13
c0 -5 -4 -10 -10 -10 -5 0 -10 5 -10 10 0 6 5 10 10 10 6 0 10 -4 10 -10z
m-80 -26 c0 -8 -4 -14 -10 -14 -5 0 -10 9 -10 21 0 11 5 17 10 14 6 -3 10 -13
10 -21z m140 -5 c0 -5 -4 -9 -10 -9 -5 0 -10 7 -10 16 0 8 5 12 10 9 6 -3 10
-10 10 -16z m760 1 c0 -5 -4 -10 -10 -10 -5 0 -10 5 -10 10 0 6 5 10 10 10 6
0 10 -4 10 -10z m-990 -20 c-6 -11 -13 -20 -15 -20 -3 0 -5 9 -5 20 0 11 7 20
15 20 13 0 14 -4 5 -20z m150 6 c0 -11 -19 -15 -25 -6 -3 5 1 10 9 10 9 0 16
-2 16 -4z m-42 -48 c-2 -13 -10 -23 -18 -23 -8 0 -16 10 -18 23 -3 17 2 22 18
22 16 0 21 -5 18 -22z m72 7 c0 -8 -4 -15 -10 -15 -5 0 -10 7 -10 15 0 8 5 15
10 15 6 0 10 -7 10 -15z m160 -11 c0 -10 -7 -14 -22 -12 -32 5 -35 28 -4 28
17 0 26 -5 26 -16z m443 -1 c-7 -2 -19 -2 -25 0 -7 3 -2 5 12 5 14 0 19 -2 13
-5z m-1159 -18 c3 -8 1 -15 -4 -15 -6 0 -10 7 -10 15 0 8 2 15 4 15 2 0 6 -7
10 -15z m402 -55 c17 0 19 -16 2 -26 -14 -9 -40 25 -31 39 5 8 8 7 11 -1 2 -7
10 -12 18 -12z"/>
</g>
<g>
<path d="M2795 640 c-3 -5 -1 -10 4 -10 6 0 11 5 11 10 0 6 -2 10 -4 10 -3 0
-8 -4 -11 -10z"/>
</g>
<g>
<path d="M2991 494 c0 -11 3 -14 6 -6 3 7 2 16 -1 19 -3 4 -6 -2 -5 -13z"/>
</g>
<g>
<path d="M2993 340 c0 -30 2 -43 4 -27 2 15 2 39 0 55 -2 15 -4 2 -4 -28z"/>
</g>
<g>
<path d="M2877 222 c-24 -26 -21 -41 9 -48 33 -8 48 7 40 40 -8 30 -26 33 -49
8z"/>
</g>
<g>
<path d="M1070 192 c0 -10 22 -32 32 -32 5 0 3 9 -4 20 -13 20 -28 27 -28 12z"/>
</g>
<g>
<path d="M2790 146 c-17 -32 -8 -52 25 -60 33 -8 65 16 65 49 0 41 -69 49 -90
11z m60 -8 c0 -7 -5 -20 -10 -28 -12 -19 -35 2 -27 24 7 19 37 21 37 4z"/>
</g>
</g>
</svg>
