<?xml version="1.0" standalone="no"?>
<!DOCTYPE svg PUBLIC "-//W3C//DTD SVG 20010904//EN"
 "http://www.w3.org/TR/2001/REC-SVG-20010904/DTD/svg10.dtd">
<svg version="1.0" xmlns="http://www.w3.org/2000/svg"
 width="300.000000pt" height="523.000000pt" viewBox="0 0 300.000000 523.000000"
 preserveAspectRatio="xMidYMid meet">
<metadata>
Created by potrace 1.15, written by Peter Selinger 2001-2017
</metadata>
<g transform="translate(0.000000,523.000000) scale(0.100000,-0.100000)"
fill="#000000" stroke="none">
<g>
<path d="M270 5220 l-265 -5 -3 -970 c-2 -909 -1 -968 15 -945 46 69 265 280
290 280 7 0 13 4 13 9 0 12 169 137 196 145 11 3 28 0 40 -9 18 -13 18 -14 1
-15 -49 -1 -270 -164 -388 -288 -124 -130 -170 -185 -167 -201 2 -10 25 12 63
59 33 41 89 104 125 140 70 69 272 226 328 254 42 22 64 15 164 -50 250 -163
541 -615 672 -1045 27 -88 33 -149 16 -149 -5 0 -12 12 -16 28 -35 161 -107
351 -206 545 -86 169 -260 408 -356 488 -10 9 -48 40 -83 70 -35 30 -80 60
-99 68 -19 7 -43 17 -52 21 -11 6 -24 3 -41 -10 -14 -11 -28 -20 -32 -20 -11
0 -122 -81 -196 -142 -56 -47 -115 -106 -252 -255 -20 -23 -37 -51 -37 -63 0
-25 7 -19 55 45 53 72 208 226 290 289 142 109 175 128 217 123 86 -11 277
-193 429 -407 90 -128 217 -376 273 -534 35 -97 38 -122 14 -98 -18 18 -79 14
-115 -7 -35 -22 -88 -94 -98 -134 -4 -15 -2 -40 3 -57 6 -16 8 -30 3 -30 -12
0 -41 69 -31 75 16 10 22 65 8 82 -11 14 -10 15 10 9 24 -8 31 11 12 30 -8 8
0 19 24 37 28 22 46 27 90 27 63 0 65 3 45 75 -10 37 -107 251 -129 285 -5 8
-19 32 -31 54 -31 57 -109 177 -127 195 -8 9 -44 50 -78 91 -89 107 -199 200
-297 250 -27 13 -32 12 -83 -15 -60 -33 -205 -146 -271 -212 -50 -51 -157
-193 -186 -248 -17 -33 -22 -63 -25 -170 l-4 -130 77 3 77 4 -7 -23 c-4 -13
-13 -27 -20 -31 -20 -12 -28 -77 -14 -110 12 -30 4 -53 -10 -29 -5 7 -14 10
-20 7 -16 -10 -14 -56 4 -90 13 -24 13 -31 3 -38 -27 -17 -55 -4 -38 17 7 8 2
20 -15 39 -17 18 -25 39 -25 62 0 40 17 46 22 7 5 -42 28 -41 28 1 0 19 4 38
10 41 15 9 12 25 -5 25 -8 0 -15 -4 -15 -10 0 -5 -9 -10 -20 -10 -26 0 -28 54
-3 69 21 11 11 26 -12 18 -13 -6 -15 -149 -13 -1374 1 -752 4 -1324 5 -1270
l4 99 49 -4 c28 -1 50 0 50 4 0 8 -40 20 -56 17 -21 -4 -44 2 -44 11 0 6 30 8
80 6 45 -3 80 0 80 5 0 5 -18 9 -39 9 -22 0 -46 3 -55 6 -35 13 -12 19 63 16
76 -4 121 7 121 28 0 6 -3 9 -7 8 -21 -5 -173 15 -173 23 0 11 81 11 140 -1
50 -9 82 5 34 15 -50 11 -50 13 -1 14 l47 1 0 -62 c-1 -35 -5 -83 -9 -107 -11
-56 -5 -71 25 -71 21 0 23 3 14 19 -15 29 -12 61 5 61 17 0 20 16 5 25 -17 10
-12 45 5 39 12 -5 15 2 15 30 0 24 5 39 15 43 26 10 29 -4 18 -98 -8 -67 -15
-94 -27 -101 -24 -14 -11 -25 23 -20 41 6 59 48 67 154 5 78 8 88 25 88 10 0
19 5 19 10 0 6 -9 10 -21 10 -11 0 -18 4 -15 9 3 4 29 6 58 4 39 -3 49 -2 38
6 -8 6 -32 11 -52 11 -20 0 -40 5 -44 11 -4 8 15 10 64 8 82 -4 106 7 35 16
-83 11 -81 15 5 10 49 -3 82 -1 82 5 0 6 9 10 20 10 11 0 20 5 20 10 0 6 9 10
20 10 37 0 20 18 -27 29 -45 10 -44 10 30 6 92 -6 102 9 15 23 -45 7 -53 10
-28 11 19 0 62 -4 95 -9 36 -6 63 -6 68 -1 10 10 -7 14 -107 26 -26 4 -44 10
-40 15 9 7 97 0 162 -14 19 -5 32 -4 32 2 0 6 -24 15 -52 21 -91 17 -94 19
-47 20 26 0 70 -4 99 -9 50 -10 71 -7 58 6 -4 3 -38 11 -77 17 -39 6 -71 14
-71 19 0 5 15 7 33 4 114 -18 138 -17 135 1 -2 14 4 18 24 18 15 1 30 4 34 8
4 4 0 7 -9 7 -9 0 -19 5 -23 12 -5 8 8 10 51 5 43 -4 63 -2 81 10 13 8 21 19
18 24 -3 5 4 9 14 9 15 0 22 -9 27 -36 4 -24 13 -38 26 -41 28 -8 13 -23 -22
-23 -18 0 -28 -4 -24 -10 8 -13 27 -13 62 2 15 6 33 10 40 9 18 -3 26 18 13
34 -7 8 -21 15 -31 15 -11 0 -19 4 -19 10 0 5 15 9 33 7 l32 -2 5 -235 5 -235
23 0 c23 -1 45 -22 36 -37 -9 -13 -24 -9 -24 7 0 12 -14 15 -65 15 -42 0 -65
-4 -65 -11 0 -8 13 -9 40 -5 32 5 40 3 40 -9 0 -11 12 -15 45 -15 35 0 45 4
45 17 0 14 4 13 23 -6 13 -12 30 -19 38 -16 8 2 73 7 144 11 232 11 253 10
271 -8 15 -15 15 -19 -10 -51 -52 -68 -25 -91 98 -85 85 4 121 17 220 78 l49
31 -7 -53 c-4 -29 -11 -57 -16 -63 -13 -15 -440 -20 -440 -6 0 6 13 11 30 11
22 0 28 4 24 15 -4 9 -19 15 -35 15 -16 0 -29 5 -29 11 0 5 -5 7 -11 4 -6 -4
-8 -13 -5 -20 6 -17 -23 -24 -104 -27 l-65 -1 65 -7 c74 -7 61 -8 -555 -19
-255 -5 -30 -8 770 -9 l1130 -2 -2 472 c0 260 -4 1211 -7 2113 -3 902 -6 1866
-6 2143 l0 503 -1217 -3 c-670 -2 -1337 -5 -1483 -8z m1598 -19 c3 -8 -1 -12
-9 -9 -7 2 -15 10 -17 17 -3 8 1 12 9 9 7 -2 15 -10 17 -17z m386 -3 c8 -34
-6 -41 -99 -46 -47 -2 -85 -7 -85 -11 0 -3 9 -12 21 -19 15 -9 24 -10 33 -3 7
6 53 12 102 14 81 2 103 8 104 30 0 4 -12 7 -26 7 -21 0 -25 4 -22 23 3 22 4
22 211 25 193 2 208 1 205 -15 -2 -9 -18 -21 -36 -27 -44 -12 -41 -25 6 -18
52 7 157 3 184 -7 27 -10 44 -9 41 2 -2 4 8 7 22 7 24 0 25 -2 25 -76 0 -67
-2 -75 -15 -64 -9 8 -13 21 -9 36 5 19 3 23 -10 18 -9 -3 -17 -16 -17 -28 -1
-11 -2 -28 -3 -36 0 -9 -13 -16 -33 -18 -18 -2 -33 -7 -33 -13 0 -11 33 -11
82 0 l37 9 3 -87 c2 -47 2 -138 0 -202 l-4 -117 -40 -6 c-24 -4 -46 -2 -53 4
-9 8 -15 8 -20 0 -3 -5 -17 -10 -31 -10 -13 0 -24 -4 -24 -10 0 -5 22 -10 49
-10 40 0 53 -4 65 -22 14 -19 16 -19 22 -5 3 9 12 17 20 17 11 0 14 -20 14
-90 0 -87 -16 -126 -22 -55 -2 20 -7 35 -13 35 -5 0 -9 -16 -7 -35 3 -31 1
-35 -19 -35 -32 0 -203 181 -183 193 18 11 18 23 -1 25 -8 1 -22 3 -30 4 -25
2 -177 156 -163 164 7 4 46 8 88 8 l76 0 -4 108 -5 108 32 0 c17 0 31 5 31 10
0 6 -33 10 -77 10 -85 0 -99 5 -104 35 -3 11 -11 20 -19 20 -8 0 -16 -9 -19
-20 -5 -27 -19 -35 -63 -35 -21 0 -38 -4 -38 -10 0 -5 45 -8 108 -8 59 1 113
-2 120 -6 16 -10 16 -168 0 -184 -7 -7 -44 -12 -95 -12 -93 0 -95 1 -221 104
-74 62 -87 84 -52 93 40 11 14 27 -37 24 -60 -3 -111 22 -92 45 6 7 8 18 4 24
-9 15 -35 12 -35 -5 0 -10 -20 -2 -66 27 -63 40 -65 42 -43 51 22 9 19 11 -27
19 -44 8 -53 13 -57 33 -2 14 -2 27 1 30 3 3 81 5 173 5 164 0 167 0 173 -22z
m696 2 c-12 -22 -26 -23 -143 -14 -55 5 -77 11 -77 20 0 11 25 14 115 14 113
0 115 -1 105 -20z m-1931 1 c11 -7 10 -11 -7 -20 -11 -6 -28 -8 -36 -5 -10 4
-16 1 -16 -9 0 -19 -62 -56 -120 -72 -25 -7 -44 -17 -43 -23 1 -5 -13 -22 -32
-36 -19 -15 -49 -40 -67 -56 -18 -16 -47 -37 -65 -45 -18 -9 -33 -20 -33 -24
0 -12 -207 -191 -220 -191 -6 0 -10 6 -9 13 3 23 -1 37 -10 37 -5 0 -11 -12
-13 -27 -2 -20 -9 -28 -22 -28 -11 0 -21 -6 -24 -13 -2 -7 6 -12 22 -12 14 0
26 -3 26 -7 0 -5 -34 -42 -75 -83 -58 -58 -78 -72 -84 -61 -5 8 -7 21 -3 29 3
10 0 13 -9 10 -8 -2 -16 -22 -19 -44 l-5 -39 -51 1 c-49 2 -51 0 -51 -24 0
-21 2 -23 11 -11 6 8 27 14 46 14 42 0 42 -12 -3 -69 -24 -30 -33 -36 -35 -23
-6 31 -22 18 -28 -23 -4 -22 -13 -45 -20 -51 -12 -10 -14 40 -10 342 2 195 5
398 5 452 l1 97 466 0 c257 0 469 2 472 5 8 8 45 6 61 -4z m624 -12 c74 -25
129 -51 302 -142 217 -115 464 -328 764 -658 189 -207 231 -266 231 -320 l0
-41 -23 29 c-13 15 -47 62 -77 103 -69 98 -172 212 -345 385 -288 288 -427
400 -650 520 -174 94 -141 85 -319 85 -89 -1 -207 -5 -263 -10 -111 -10 -156
-29 -273 -114 -30 -22 -86 -61 -125 -87 -70 -46 -255 -194 -330 -264 -22 -20
-82 -76 -134 -123 -97 -89 -251 -259 -335 -369 -26 -35 -49 -63 -52 -63 -29 0
78 150 211 295 329 359 570 552 912 732 l118 62 163 0 c140 1 171 -2 225 -20z
m172 -4 c24 -14 49 -32 55 -40 7 -8 19 -15 27 -15 7 0 61 -31 119 -70 59 -38
108 -70 111 -70 17 0 360 -287 466 -390 181 -175 371 -410 350 -431 -7 -7 -27
13 -58 58 -61 86 -91 120 -240 273 -161 166 -251 250 -361 340 -50 41 -111 91
-134 110 -54 44 -143 97 -285 168 -60 31 -113 62 -118 69 -4 6 -14 10 -21 7
-8 -3 -17 -1 -21 5 -13 22 66 11 110 -14z m-659 7 c-3 -5 -38 -26 -78 -46 -40
-21 -85 -45 -99 -54 -15 -9 -48 -30 -75 -47 -96 -58 -279 -205 -424 -340 -106
-98 -354 -365 -405 -435 -64 -88 -65 -89 -65 -54 0 21 11 43 36 70 19 21 59
71 88 109 71 93 155 187 230 258 33 31 81 76 106 100 45 43 89 81 171 148 121
100 179 142 228 166 30 14 86 45 125 68 39 23 85 47 101 53 37 13 68 15 61 4z
m626 -120 c155 -80 265 -150 378 -240 109 -86 570 -546 615 -613 16 -24 60
-84 96 -134 l67 -90 4 -127 c2 -71 1 -128 -2 -128 -4 0 -26 33 -50 73 -38 64
-139 196 -217 283 -15 18 -59 69 -98 114 -38 45 -128 136 -200 202 -71 67
-146 137 -165 158 -36 38 -218 196 -305 265 -56 45 -69 54 -139 93 -27 15 -60
37 -73 49 -17 16 -38 23 -80 25 l-58 3 -3 49 c-2 27 -1 54 1 60 3 7 28 13 60
15 49 2 66 -4 169 -57z m-417 15 c4 -19 5 -47 3 -63 l-3 -29 -82 -3 c-57 -2
-83 -7 -83 -15 0 -7 -32 -30 -71 -52 -89 -50 -259 -176 -364 -269 -130 -115
-383 -355 -466 -441 -70 -73 -229 -263 -271 -325 -16 -24 -17 -22 -17 81 l-1
106 77 99 c107 138 193 236 277 313 39 36 105 98 146 138 125 119 237 207 419
329 223 150 254 164 353 164 l77 0 6 -33z m75 -27 c0 -47 -3 -60 -15 -60 -12
0 -15 13 -15 60 0 47 3 60 15 60 12 0 15 -13 15 -60z m70 -1 c0 -44 -3 -60
-12 -57 -13 5 -23 80 -14 104 13 34 26 10 26 -47z m216 -129 c47 -27 87 -50
90 -50 12 0 203 -162 329 -280 139 -129 436 -433 467 -477 16 -24 32 -43 36
-43 10 0 118 -130 174 -210 58 -83 109 -176 119 -218 14 -64 -9 -37 -87 102
-9 16 -33 51 -53 77 -49 65 -75 101 -150 211 -93 134 -392 428 -641 628 -51
41 -98 80 -104 85 -25 22 -74 54 -121 79 -28 15 -81 47 -120 71 -38 24 -81 44
-95 44 -23 0 -21 -2 13 -22 21 -12 78 -45 125 -72 48 -28 100 -57 116 -65 54
-28 395 -321 538 -462 153 -152 219 -228 308 -354 30 -44 58 -80 62 -82 5 -2
8 -8 8 -13 0 -5 26 -45 58 -88 103 -143 180 -302 145 -301 -5 0 -30 40 -58 87
-27 48 -61 105 -75 128 -14 22 -34 56 -45 74 -19 32 -203 281 -215 291 -3 3
-13 15 -21 27 -38 56 -296 304 -411 396 -26 21 -53 43 -60 50 -85 80 -409 302
-527 362 -60 29 -78 35 -95 27 -12 -6 -61 -29 -110 -52 -153 -69 -325 -189
-494 -341 -48 -43 -123 -110 -168 -148 -90 -77 -276 -272 -351 -368 -53 -68
-94 -127 -153 -218 -21 -33 -47 -69 -58 -81 -19 -20 -33 -42 -74 -118 l-17
-31 -1 55 c0 60 14 86 128 235 4 6 19 26 32 45 62 88 287 346 376 432 160 152
258 241 310 278 27 19 81 60 120 90 175 135 290 209 325 210 9 0 22 7 30 16
11 13 9 14 -14 9 -95 -24 -356 -201 -554 -376 -148 -130 -379 -349 -420 -396
-70 -81 -152 -186 -180 -232 -16 -24 -47 -68 -70 -96 -22 -29 -48 -67 -57 -84
-9 -17 -19 -31 -21 -31 -3 0 -5 21 -5 48 0 42 7 57 63 134 184 256 313 390
709 733 141 122 205 170 356 261 l102 63 192 1 c106 0 194 3 197 5 7 8 8 7 97
-45z m-204 -44 c37 -19 73 -39 80 -45 7 -6 52 -35 100 -64 196 -118 366 -295
491 -513 97 -170 211 -420 205 -450 -4 -22 -264 -127 -396 -160 -213 -52 -455
-75 -693 -63 -169 8 -333 29 -348 45 -3 4 5 4 19 1 14 -3 95 -14 179 -23 135
-15 185 -16 380 -6 195 9 244 15 356 42 162 39 430 131 471 162 10 8 7 21 -30
123 -22 59 -154 313 -208 400 -125 202 -380 423 -615 534 -70 33 -75 33 -172
-17 -87 -46 -149 -90 -263 -189 -204 -177 -308 -320 -426 -583 -24 -54 -62
-168 -62 -187 0 -7 -4 -13 -8 -13 -12 0 -34 -102 -25 -110 5 -4 51 -22 103
-40 102 -36 106 -38 99 -45 -3 -2 -54 12 -114 33 -83 28 -111 42 -113 56 -6
31 72 295 98 331 4 6 12 24 18 42 15 46 104 193 169 282 71 96 246 267 340
331 70 49 268 158 288 159 6 1 41 -14 77 -33z m238 -195 c127 -92 249 -212
311 -306 88 -135 135 -210 152 -245 46 -97 82 -182 103 -243 l23 -67 -42 -19
c-23 -10 -76 -31 -117 -46 -41 -15 -88 -33 -105 -40 -33 -14 -268 -67 -380
-84 -38 -6 -169 -12 -290 -13 -227 -2 -391 13 -515 49 -138 39 -310 96 -316
104 -6 10 24 124 31 117 2 -2 -1 -25 -7 -52 -8 -39 -7 -51 5 -63 43 -43 422
-126 642 -141 167 -11 456 12 615 49 131 31 431 130 436 144 8 20 -57 198
-114 315 -37 74 -164 263 -225 333 -85 99 -296 266 -404 321 -63 32 -46 15 51
-51 54 -38 113 -78 130 -89 17 -12 51 -40 76 -63 25 -22 48 -41 52 -41 14 0
148 -169 213 -269 71 -110 126 -215 169 -323 27 -69 43 -128 33 -128 -2 0 -49
-15 -103 -34 -272 -93 -477 -133 -724 -142 -236 -8 -401 12 -680 83 -94 24
-156 53 -153 73 6 58 27 131 57 193 19 39 48 101 65 137 51 107 133 248 175
301 12 14 2 5 -22 -19 -23 -24 -59 -74 -79 -111 -20 -36 -53 -91 -73 -121 -19
-31 -55 -106 -80 -168 -51 -129 -65 -136 -21 -11 74 209 192 389 374 568 140
139 186 173 332 245 l90 44 105 -55 c58 -31 152 -90 210 -132z m1178 -418 c-3
-28 -3 -28 -27 12 -28 48 -28 49 1 56 25 6 32 -14 26 -68z m-470 -537 c102
-79 326 -319 385 -413 14 -23 30 -44 36 -47 12 -8 64 -107 58 -112 -2 -2 -30
35 -62 83 -32 49 -84 120 -115 158 -115 140 -343 345 -384 345 -23 0 -22 -1
64 -65 86 -64 227 -202 303 -294 124 -153 226 -331 189 -331 -4 0 -23 26 -42
58 -19 31 -47 75 -62 97 -16 22 -45 64 -65 93 -45 67 -191 231 -240 271 -118
95 -139 111 -151 111 -46 0 -256 -148 -375 -265 -209 -205 -402 -600 -441
-900 -15 -113 -9 -106 -84 -103 l-66 3 -17 85 c-20 101 -35 146 -83 264 -37
88 -120 262 -136 281 -4 6 -24 41 -44 79 -94 176 -288 400 -434 501 -79 55
-91 72 -36 49 19 -8 54 -19 77 -24 115 -25 206 -48 215 -54 21 -13 221 -36
367 -42 208 -9 481 15 655 57 82 20 213 67 315 113 55 25 104 46 108 46 5 0
34 -20 65 -44z m-1658 -56 c13 -8 13 -10 -2 -10 -9 0 -20 5 -23 10 -8 13 5 13
25 0z m75 -20 l20 -9 -20 0 c-11 0 -29 4 -40 9 l-20 9 20 0 c11 0 29 -4 40 -9z
m1580 -55 c185 -162 307 -311 443 -541 38 -64 56 -134 35 -134 -5 0 -25 34
-47 75 -21 42 -67 116 -102 166 -35 49 -64 94 -64 98 0 4 -9 16 -20 26 -11 10
-20 23 -20 29 0 7 -15 27 -33 46 -18 19 -50 57 -71 84 -59 73 -164 156 -198
156 -77 0 -312 -183 -431 -336 -135 -174 -205 -304 -282 -529 -22 -64 -43
-164 -51 -242 -5 -52 -11 -73 -20 -73 -18 0 -18 34 2 151 37 221 133 439 296
675 66 95 112 150 150 181 18 15 54 46 80 70 64 58 228 165 248 161 9 -2 47
-30 85 -63z m-1522 38 c-7 -2 -19 -2 -25 0 -7 3 -2 5 12 5 14 0 19 -2 13 -5z
m-566 -385 c-3 -7 -5 -2 -5 12 0 14 2 19 5 13 2 -7 2 -19 0 -25z m-104 -39
c-3 -10 -9 -19 -14 -19 -11 0 -12 44 -2 53 10 11 21 -13 16 -34z m-56 -26 c-4
-17 -4 -17 -12 0 -4 9 -4 25 0 35 8 16 8 16 12 0 3 -10 3 -26 0 -35z m299 41
c48 -6 51 -8 51 -35 0 -16 -5 -29 -10 -29 -5 0 -7 -9 -4 -20 3 -11 -1 -33 -9
-49 -11 -22 -19 -27 -39 -23 -29 5 -55 -13 -55 -37 0 -10 -9 -27 -20 -39 -11
-12 -20 -26 -20 -31 0 -6 -7 -8 -16 -4 -10 4 -20 0 -26 -10 -15 -27 -38 -20
-44 13 -6 28 -24 43 -24 20 0 -5 -4 -10 -10 -10 -5 0 -10 14 -10 30 0 20 5 30
15 30 8 0 15 5 15 10 0 6 -6 10 -14 10 -10 0 -12 9 -6 41 8 43 59 99 115 125
35 15 42 16 111 8z m154 -33 c0 -6 -4 -13 -10 -16 -5 -3 -10 1 -10 9 0 9 5 16
10 16 6 0 10 -4 10 -9z m70 -20 c0 -6 -4 -13 -10 -16 -5 -3 -10 1 -10 9 0 9 5
16 10 16 6 0 10 -4 10 -9z m-122 -61 c-2 -8 -12 -15 -23 -15 -13 0 -19 6 -16
15 2 8 5 22 6 30 2 8 4 17 5 20 2 13 30 -36 28 -50z m-478 26 c0 -3 -4 -8 -10
-11 -5 -3 -10 -1 -10 4 0 6 5 11 10 11 6 0 10 -2 10 -4z m56 -41 c-13 -51 31
-86 60 -47 11 14 13 14 14 2 0 -16 -22 -51 -53 -85 -10 -11 -20 -31 -23 -45
-14 -60 -38 -99 -67 -110 -17 -5 -32 -10 -34 -10 -2 0 -4 26 -3 58 0 31 -1 87
-2 125 -2 71 13 107 32 77 9 -13 10 -13 10 1 0 8 7 24 15 35 14 18 15 16 9
-18 -4 -25 -2 -38 5 -38 6 0 11 7 11 15 0 16 21 65 28 65 2 0 1 -11 -2 -25z
m550 -32 c-10 -10 -19 5 -10 18 6 11 8 11 12 0 2 -7 1 -15 -2 -18z m-168 -1
c-10 -2 -18 -7 -18 -12 0 -11 37 -23 49 -16 5 4 16 -7 24 -24 15 -28 14 -31
-5 -41 -11 -6 -17 -13 -14 -16 3 -4 1 -12 -5 -20 -9 -9 -8 -13 0 -13 6 0 11
-7 11 -15 0 -34 -95 -9 -110 29 -5 13 -14 27 -19 31 -20 12 -12 23 24 35 26 9
35 17 35 34 0 26 19 48 34 38 7 -4 4 -8 -6 -10z m362 14 c0 -2 -15 -6 -34 -8
-19 -2 -32 0 -30 4 5 8 64 12 64 4z m-253 -68 c-3 -7 -5 -2 -5 12 0 14 2 19 5
13 2 -7 2 -19 0 -25z m67 -60 c-7 -44 -23 -85 -24 -60 0 18 21 102 26 102 2 0
1 -19 -2 -42z m121 30 c-11 -6 -25 -19 -32 -27 -7 -9 -12 -11 -13 -6 0 15 13
31 30 38 26 10 36 7 15 -5z m-200 -50 c-10 -61 -26 -84 -19 -28 7 54 11 70 20
70 3 0 3 -19 -1 -42z m127 7 c-7 -37 -22 -41 -22 -6 0 20 5 31 14 31 9 0 12
-8 8 -25z m-330 -17 c-6 -6 -59 -11 -90 -9 -7 1 -10 6 -7 11 4 6 14 8 23 6 10
-3 28 0 42 7 24 13 49 1 32 -15z m-159 -1 c3 -7 -1 -21 -9 -32 -13 -17 -14
-17 -14 13 0 32 14 43 23 19z m697 -1 c0 -3 -4 -8 -10 -11 -5 -3 -10 -1 -10 4
0 6 5 11 10 11 6 0 10 -2 10 -4z m1104 -48 c35 -36 38 -43 23 -46 -11 -2 -31
7 -46 22 -15 14 -41 31 -59 37 -43 15 -41 29 4 29 29 0 44 -8 78 -42z m-1857
-15 c-3 -10 -5 -2 -5 17 0 19 2 27 5 18 2 -10 2 -26 0 -35z m204 40 c-22 -3
-35 -11 -38 -24 -4 -14 -14 -19 -40 -19 -22 0 -32 4 -27 11 11 18 67 38 104
37 l35 -1 -34 -4z m1455 -7 c-1 -8 -8 -22 -16 -32 -13 -16 -13 -17 2 -11 10 3
33 0 53 -9 19 -8 38 -14 41 -13 3 0 19 -14 36 -33 24 -27 29 -39 24 -65 -2
-18 -1 -33 5 -33 5 0 9 5 9 11 0 5 5 7 11 3 8 -5 8 -9 -1 -14 -7 -4 -9 -13 -6
-19 4 -6 0 -11 -9 -11 -9 0 -14 -4 -10 -9 3 -5 -11 -15 -30 -22 -19 -7 -35
-17 -35 -21 0 -11 4 -10 34 3 20 10 28 9 41 -5 15 -15 15 -16 0 -16 -9 0 -28
-6 -43 -14 -15 -7 -38 -17 -52 -20 -24 -7 -25 -7 -5 10 19 16 19 16 -15 10
-56 -11 -79 -9 -106 9 -20 13 -24 22 -19 38 3 12 10 49 14 83 11 78 38 124 56
94 3 -5 -1 -10 -9 -10 -11 0 -16 -9 -16 -26 0 -22 2 -25 15 -14 21 17 19 1 -4
-34 -11 -17 -17 -34 -14 -39 3 -4 -3 -17 -12 -27 -18 -20 -14 -50 6 -50 6 0 9
7 5 15 -4 13 -2 14 14 5 25 -13 26 -3 3 23 -16 18 -16 20 -1 14 23 -8 31 4 10
19 -16 12 -15 15 11 41 31 33 35 65 10 91 -45 45 -47 51 -28 72 21 23 34 26
31 6z m-882 -15 c-5 -5 -22 -11 -37 -15 -21 -5 -28 -3 -25 6 3 7 18 16 34 19
33 6 42 3 28 -10z m1348 9 c106 -48 162 -104 181 -180 37 -148 45 -233 27
-290 l-8 -25 -1 27 c-1 21 -7 29 -26 34 -26 6 -48 54 -50 109 0 23 -6 31 -23
33 -50 7 -63 -34 -41 -124 6 -24 16 -44 21 -44 5 0 21 -25 35 -56 22 -49 25
-65 19 -119 -5 -54 -4 -64 11 -71 37 -16 53 -12 53 12 0 13 5 24 10 24 6 0 10
-32 10 -75 0 -41 -2 -75 -5 -75 -3 0 -14 6 -26 13 -17 10 -22 9 -34 -7 -19
-25 -4 -52 34 -61 28 -6 29 -9 33 -67 1 -33 1 -61 -2 -63 -3 -2 -13 3 -23 10
-13 9 -18 23 -15 47 2 24 -1 33 -12 33 -17 0 -29 -53 -29 -138 -1 -55 -2 -57
-21 -45 -11 7 -19 20 -18 28 5 31 -18 21 -31 -14 -11 -28 -11 -42 -3 -61 10
-22 14 -24 37 -13 14 6 27 9 28 7 8 -9 -6 -149 -14 -149 -5 0 -9 6 -9 14 0 19
-26 40 -35 26 -3 -5 -15 -10 -26 -10 -15 0 -19 -7 -19 -34 0 -39 36 -71 61
-55 26 16 31 9 25 -33 -3 -24 -8 -108 -11 -188 -3 -80 -8 -167 -10 -195 -3
-27 -6 -179 -7 -338 -1 -224 -4 -290 -15 -298 -7 -6 -10 -21 -7 -33 3 -12 0
-34 -5 -49 -9 -23 -14 -25 -34 -18 -12 5 -51 8 -85 7 -58 -3 -76 4 -52 19 7 4
8 11 2 18 -6 7 -12 21 -14 32 -5 18 -6 18 -15 -5 -6 -15 -7 -34 -2 -48 10 -26
2 -72 -12 -72 -5 0 -9 47 -9 105 0 63 -4 105 -10 105 -5 0 -10 -8 -10 -18 0
-10 -3 -21 -6 -24 -9 -10 -167 78 -215 121 -30 26 -58 64 -79 108 -50 105 -62
127 -82 141 -21 15 -23 44 -5 72 10 17 9 22 -3 30 -18 11 -6 25 15 17 8 -4 15
-17 15 -31 0 -14 4 -27 9 -30 4 -3 11 -21 14 -39 10 -64 74 -180 128 -235 35
-34 56 -49 63 -42 6 6 4 16 -7 28 -9 10 -17 24 -17 31 0 19 -46 71 -55 63 -5
-4 -5 -2 -1 5 3 6 2 14 -4 18 -6 4 -7 11 -4 17 4 7 2 8 -4 4 -14 -9 -57 78
-47 95 4 6 2 15 -6 19 -7 5 -13 14 -15 22 -1 7 -9 35 -18 61 -9 26 -16 56 -16
65 0 10 -4 22 -9 28 -16 15 -42 217 -37 283 5 59 4 62 -25 83 l-29 22 0 117
c0 67 4 120 10 124 5 3 17 30 26 60 21 74 34 78 34 11 0 -58 11 -76 35 -56 12
10 17 7 25 -16 30 -84 29 -82 83 -92 41 -7 58 -5 82 7 17 9 39 18 49 21 10 3
31 28 45 55 23 43 31 50 56 50 21 0 31 5 33 19 3 14 0 17 -12 13 -19 -8 -21 4
-3 22 10 11 10 13 0 7 -8 -4 -13 -1 -13 8 0 9 -4 16 -10 16 -5 0 -10 -7 -10
-16 0 -8 -3 -13 -8 -10 -4 2 -24 -26 -45 -64 -42 -77 -75 -100 -142 -100 -40
0 -43 2 -61 43 -10 23 -31 60 -46 81 -16 21 -28 50 -28 64 0 17 -4 23 -15 18
-10 -4 -15 1 -15 14 0 11 -7 20 -15 20 -13 0 -14 4 -5 20 6 12 21 20 36 20 13
0 27 7 31 15 3 9 13 15 22 14 37 -3 41 1 41 49 0 26 7 58 15 72 8 14 19 35 24
47 5 11 15 24 20 28 6 3 11 15 11 25 0 11 8 24 18 29 10 5 37 27 61 49 31 28
42 45 37 57 -5 15 -9 14 -35 -4 -16 -12 -34 -21 -40 -21 -18 0 -1 25 29 44 20
11 30 25 30 41 0 15 11 33 30 47 28 20 44 48 19 32 -7 -4 -10 -1 -7 7 3 8 15
15 29 17 47 6 54 11 33 27 -10 8 -29 15 -42 15 -13 0 -20 4 -17 10 3 6 15 10
25 10 29 0 47 36 61 123 10 68 14 77 30 72 15 -5 19 -1 19 19 0 14 -3 26 -7
25 -16 -2 -53 14 -53 22 0 5 -11 9 -25 9 -30 0 -41 20 -25 49 14 27 30 27 30
1 0 -22 7 -25 30 -10 10 6 11 10 3 10 -7 0 -13 7 -13 15 0 19 14 19 30 0 7 -8
17 -12 23 -8 6 4 2 13 -11 23 -12 10 -18 20 -15 24 10 10 100 7 125 -4z
m-1905 -16 c-3 -3 -12 -4 -19 -1 -8 3 -5 6 6 6 11 1 17 -2 13 -5z m43 -14 c0
-5 18 -10 40 -10 33 0 40 -3 40 -20 0 -11 7 -20 15 -20 22 0 136 -58 163 -83
14 -13 20 -27 16 -39 -4 -13 0 -18 12 -18 27 0 4 -17 -32 -24 -23 -5 -33 -3
-37 7 -4 10 -15 12 -41 8 -50 -8 -106 -86 -106 -145 l0 -41 -49 0 c-52 0 -74
-11 -52 -24 7 -5 10 -14 7 -20 -4 -6 0 -14 9 -17 11 -5 13 -10 5 -19 -14 -17
3 -29 30 -20 18 6 24 -2 18 -22 -2 -4 -13 -6 -25 -5 -16 2 -23 -2 -23 -12 0
-9 7 -16 15 -16 9 0 15 -9 15 -21 0 -28 20 -20 45 19 24 38 38 41 24 6 -13
-37 -59 -90 -59 -70 0 18 -15 21 -25 6 -7 -12 -26 -14 -24 -2 5 30 -3 54 -15
49 -11 -4 -16 3 -18 26 -3 29 -6 32 -35 31 -18 -1 -33 2 -33 7 0 5 11 9 24 9
28 0 45 18 27 29 -6 4 -9 15 -6 23 9 24 -14 32 -35 13 -17 -15 -19 -15 -29 17
-8 23 -8 44 -1 68 13 46 13 127 0 135 -6 4 -29 -3 -52 -15 -22 -11 -42 -19
-45 -17 -5 6 61 47 74 47 6 0 13 12 16 28 3 15 13 36 22 47 9 11 14 14 10 7
-4 -7 -4 -20 -1 -28 5 -12 10 -13 26 -4 17 9 19 14 10 25 -9 11 -6 16 10 25
44 23 60 43 54 67 -4 14 -2 23 5 23 6 0 11 -4 11 -10z m301 -70 l-9 -45 -1 51
c-1 28 2 54 7 58 11 12 13 -15 3 -64z m-41 20 c0 -16 -4 -30 -10 -30 -5 0 -10
14 -10 30 0 17 5 30 10 30 6 0 10 -13 10 -30z m-560 -10 c0 -5 -5 -10 -11 -10
-5 0 -7 5 -4 10 3 6 8 10 11 10 2 0 4 -4 4 -10z m1979 -41 c28 -10 31 -15 31
-51 0 -52 -19 -129 -38 -150 -8 -10 -26 -18 -38 -18 -21 0 -23 4 -17 30 4 21
0 36 -11 49 -21 23 -6 70 24 78 22 6 25 14 10 29 -6 6 -8 18 -4 27 7 20 4 20
43 6z m-1312 -86 c-2 -16 -4 -5 -4 22 0 28 2 40 4 28 2 -13 2 -35 0 -50z m180
15 c-2 -13 -4 -5 -4 17 -1 22 1 32 4 23 2 -10 2 -28 0 -40z m-220 5 c-3 -10
-5 -4 -5 12 0 17 2 24 5 18 2 -7 2 -21 0 -30z m110 -10 c-3 -10 -5 -2 -5 17 0
19 2 27 5 18 2 -10 2 -26 0 -35z m70 0 c-3 -10 -5 -2 -5 17 0 19 2 27 5 18 2
-10 2 -26 0 -35z m-737 2 c-7 -8 -17 -15 -23 -15 -6 0 -2 7 9 15 25 19 30 19
14 0z m670 -49 c0 -18 -27 -39 -40 -31 -7 4 -7 12 0 26 12 22 40 26 40 5z m90
-6 c12 -8 12 -10 -5 -10 -11 0 -28 -7 -37 -14 -19 -14 -24 -61 -8 -71 17 -10
-9 -86 -29 -85 -3 1 -17 9 -29 20 -24 20 -24 20 -7 67 17 45 67 103 90 103 5
0 17 -5 25 -10z m-329 -22 c-4 -12 -14 -24 -21 -26 -8 -3 -10 0 -5 8 5 8 4 11
-3 6 -6 -4 -9 -13 -6 -20 3 -8 1 -17 -4 -20 -5 -3 -12 4 -15 16 -7 26 17 58
44 58 15 0 17 -4 10 -22z m103 -4 c19 -18 20 -31 4 -36 -7 -3 -5 -13 7 -31 17
-27 17 -86 0 -144 -5 -15 -3 -23 4 -23 6 0 11 7 11 15 0 8 4 15 8 15 4 0 6
-15 4 -34 -2 -18 1 -37 7 -40 17 -11 13 -67 -9 -115 -11 -24 -18 -46 -15 -49
13 -13 41 33 51 86 l11 57 2 -50 c1 -69 -6 -89 -40 -109 -16 -10 -38 -27 -49
-38 l-19 -21 -45 27 c-25 15 -46 31 -46 36 0 6 -4 10 -10 10 -22 0 -8 -29 34
-66 l43 -39 7 -90 c8 -101 10 -584 3 -591 -3 -3 -10 23 -16 57 -6 33 -15 66
-20 73 -5 6 -12 29 -16 51 -7 38 -43 113 -71 145 -7 9 -20 63 -29 120 -9 58
-20 119 -25 136 -6 17 -10 45 -10 63 0 24 -5 34 -20 38 -11 3 -20 11 -20 18 0
7 -18 29 -41 49 -46 42 -43 57 20 82 20 8 49 33 65 55 21 31 31 37 37 27 13
-19 11 -28 -6 -28 -8 0 -15 -4 -15 -9 0 -13 27 -21 45 -15 9 4 17 -1 21 -12
19 -60 57 -104 89 -104 15 0 2 30 -15 35 -28 9 -43 42 -37 80 3 18 2 36 -1 40
-14 13 -17 173 -6 245 l8 45 7 -45 c4 -25 8 -71 8 -102 1 -56 16 -108 32 -108
4 0 6 21 3 48 -11 105 -21 247 -17 255 7 13 51 7 67 -9z m983 -16 c-3 -8 -6
-5 -6 6 -1 11 2 17 5 13 3 -3 4 -12 1 -19z m-1492 2 c-3 -5 -13 -10 -21 -10
-8 0 -12 5 -9 10 3 6 13 10 21 10 8 0 12 -4 9 -10z m745 2 c0 -13 -36 -43 -43
-36 -10 10 12 44 28 44 8 0 15 -4 15 -8z m1032 -20 c-7 -2 -12 -13 -12 -25 0
-14 -3 -18 -8 -10 -6 10 -30 11 -52 3 -3 -1 -8 -2 -12 -1 -5 0 -8 -4 -8 -11 0
-9 -3 -9 -12 0 -6 6 -10 14 -7 16 11 11 105 42 114 38 5 -3 4 -7 -3 -10z
m-314 -6 c-11 -8 -15 -20 -11 -34 3 -13 1 -22 -6 -22 -13 0 -25 45 -16 59 3 6
16 11 28 11 20 -1 21 -2 5 -14z m73 4 c14 -8 19 -21 18 -48 -1 -20 -3 -29 -6
-19 -2 9 -8 17 -12 17 -7 0 -31 43 -31 55 0 8 10 6 31 -5z m-951 -56 c0 -2 -7
-4 -15 -4 -10 0 -15 10 -15 33 l0 32 15 -29 c8 -15 15 -30 15 -32z m362 39
c13 -12 18 -30 18 -69 0 -46 -5 -59 -31 -89 -31 -35 -77 -65 -99 -65 -6 0 -8
10 -4 26 5 20 2 26 -15 31 -24 6 -25 11 -11 47 6 16 6 27 0 31 -20 13 -8 35
36 70 52 39 78 43 106 18z m-942 -3 c0 -5 -5 -10 -11 -10 -5 0 -7 5 -4 10 3 6
8 10 11 10 2 0 4 -4 4 -10z m1600 -26 c-15 -17 -30 -9 -30 17 0 17 3 18 21 9
16 -9 18 -14 9 -26z m-1283 -6 c-3 -8 -6 -5 -6 6 -1 11 2 17 5 13 3 -3 4 -12
1 -19z m1333 -8 c0 -5 -2 -10 -4 -10 -3 0 -8 5 -11 10 -3 6 -1 10 4 10 6 0 11
-4 11 -10z m58 -36 c-3 -27 -4 -26 -9 8 -3 22 -1 34 4 29 5 -5 7 -21 5 -37z
m-1712 15 c-15 -12 -30 -18 -33 -15 -8 8 27 35 46 36 7 0 2 -10 -13 -21z m365
-67 c-8 -35 -9 -33 -9 23 -1 46 1 55 8 37 6 -13 6 -38 1 -60z m-599 33 c19 5
27 1 36 -20 16 -35 16 -35 -18 -35 -48 0 -90 26 -90 55 0 25 1 25 24 10 14
-10 34 -13 48 -10z m845 -1 c24 -18 33 -33 33 -55 0 -37 -13 -37 -27 1 -7 18
-19 30 -29 30 -16 0 -16 -1 -1 -18 10 -11 17 -35 16 -58 0 -35 -1 -37 -11 -16
-6 12 -14 22 -18 22 -4 0 -8 27 -9 60 -1 33 1 60 5 60 4 0 22 -11 41 -26z
m934 -58 c48 -9 99 -7 99 4 0 6 -6 13 -14 16 -8 3 -12 12 -9 21 5 12 7 12 14
1 7 -10 11 -11 17 0 12 17 32 -29 32 -71 0 -18 5 -38 10 -43 19 -19 -90 -85
-147 -91 -34 -3 -44 -2 -33 6 12 8 9 12 -14 20 -15 6 -32 9 -37 5 -5 -3 -9 2
-9 10 0 12 7 14 33 8 17 -3 48 -7 67 -7 33 0 35 2 35 34 0 19 -6 36 -12 39 -8
2 -13 -6 -13 -22 0 -38 -17 -32 -24 9 -4 21 -11 33 -18 29 -5 -4 -7 -19 -4
-35 8 -39 -17 -39 -72 2 -48 35 -50 39 -22 39 12 0 20 -7 20 -16 0 -10 6 -14
15 -10 9 3 15 0 15 -9 0 -8 7 -15 15 -15 10 0 15 10 15 31 0 23 -4 30 -14 26
-8 -3 -17 1 -20 9 -3 9 -10 12 -16 9 -5 -3 -10 0 -10 8 0 8 -9 22 -21 33 -19
17 -19 19 -4 30 14 10 23 6 56 -26 21 -20 53 -40 70 -44z m254 74 c3 -5 1 -10
-4 -10 -6 0 -11 5 -11 10 0 6 2 10 4 10 3 0 8 -4 11 -10z m-785 -31 c0 -12 11
-24 28 -32 15 -6 30 -16 35 -22 5 -7 9 -6 15 1 4 6 45 14 92 17 98 7 140 20
140 43 0 19 24 13 27 -7 2 -8 -13 -32 -31 -53 -33 -38 -35 -39 -115 -44 -44
-2 -81 -9 -81 -15 0 -6 30 -8 80 -5 44 3 80 1 80 -3 0 -24 -163 -33 -257 -13
-42 8 -26 26 17 19 24 -4 40 -3 40 3 0 5 -20 13 -44 16 -64 10 -75 31 -51 103
8 26 25 21 25 -8z m373 6 c-7 -21 -13 -19 -13 6 0 11 4 18 10 14 5 -3 7 -12 3
-20z m307 -7 c0 -5 -4 -8 -10 -8 -5 0 -10 10 -10 23 0 18 2 19 10 7 5 -8 10
-18 10 -22z m-1662 4 c3 -9 -45 -42 -63 -42 -12 0 -4 21 17 40 23 21 39 22 46
2z m1558 -8 c8 3 14 1 14 -4 0 -6 -11 -10 -24 -10 -20 0 -23 4 -18 23 5 19 7
19 10 4 2 -11 9 -16 18 -13z m-1322 -9 c3 -9 0 -15 -9 -15 -9 0 -12 6 -9 15 4
8 7 15 9 15 2 0 5 -7 9 -15z m430 -30 c9 -14 13 -31 9 -38 -4 -6 -9 -38 -10
-69 -3 -47 -1 -58 12 -58 11 0 15 12 15 52 0 28 2 49 4 47 2 -2 7 -88 10 -191
4 -158 3 -187 -9 -192 -11 -4 -15 -22 -15 -70 0 -55 -3 -64 -17 -62 -15 1 -17
-6 -15 -46 2 -30 0 -48 -7 -48 -6 0 -11 9 -11 20 0 11 -4 20 -10 20 -5 0 -10
18 -10 40 0 31 3 38 15 34 12 -5 15 4 15 45 0 39 -4 51 -15 51 -12 0 -15 15
-14 83 0 45 3 76 6 70 12 -31 23 -8 23 47 0 33 -4 60 -10 60 -5 0 -10 -9 -10
-20 0 -11 -7 -20 -15 -20 -8 0 -15 -4 -15 -10 0 -5 -5 -10 -11 -10 -6 0 -9 8
-7 18 2 9 11 16 20 14 14 -2 18 9 24 57 4 36 12 62 20 65 9 3 14 21 14 46 0
25 -4 39 -10 35 -11 -7 -14 38 -3 48 9 10 9 10 27 -18z m-987 -43 c2 -20 3
-52 4 -69 1 -62 36 -31 45 41 4 25 11 46 16 46 6 0 7 -7 4 -16 -13 -34 -19
-124 -8 -124 11 0 16 12 27 67 7 36 35 67 35 39 0 -10 -5 -27 -12 -39 -18 -34
-27 -91 -36 -217 -8 -133 -7 -1108 2 -1190 6 -53 5 -56 -23 -73 -16 -9 -31
-17 -34 -17 -2 0 -5 60 -5 133 -2 187 -14 602 -18 662 -11 141 -15 446 -6 458
14 17 26 157 13 157 -5 0 -12 -15 -14 -32 -2 -18 -5 25 -5 96 -1 71 1 126 5
122 4 -4 9 -24 10 -44z m1678 30 c-3 -3 -11 0 -18 7 -9 10 -8 11 6 5 10 -3 15
-9 12 -12z m-1355 -1 c0 -5 -9 -11 -20 -14 -20 -5 -26 3 -13 16 9 10 33 8 33
-2z m1695 -27 c9 3 12 0 8 -10 -11 -29 -35 -4 -32 34 1 10 4 7 6 -6 3 -15 10
-22 18 -18z m-1360 -42 c-5 -14 -7 -14 -21 0 -10 10 -13 24 -8 43 l7 28 14
-27 c8 -15 12 -35 8 -44z m980 49 c-3 -6 -11 -11 -17 -11 -6 0 -6 6 2 15 14
17 26 13 15 -4z m941 -36 c8 -56 -2 -91 -22 -74 -8 6 -14 8 -14 3 0 -5 -7 0
-15 10 -8 11 -15 38 -15 60 0 38 2 41 30 42 27 1 30 -2 36 -41z m-2559 13 c-3
-8 -6 -5 -6 6 -1 11 2 17 5 13 3 -3 4 -12 1 -19z m1680 -4 c33 -25 36 -44 7
-44 -8 0 -14 5 -14 12 0 6 -10 22 -22 35 -29 31 -13 29 29 -3z m-1372 -11
c-11 -7 -22 -13 -27 -13 -14 0 -8 19 9 29 25 13 40 1 18 -16z m-133 -45 c17
-50 24 -59 64 -77 48 -23 59 -41 20 -34 -18 4 -26 0 -31 -17 -4 -12 -24 -39
-45 -60 -21 -21 -41 -52 -45 -69 -9 -44 -30 -53 -21 -10 4 19 10 78 14 131 5
54 11 100 15 104 4 4 7 -2 7 -14 0 -14 6 -22 16 -22 11 0 14 5 10 16 -3 9 -6
23 -6 31 0 10 -6 14 -19 10 -17 -4 -18 -2 -10 20 7 18 6 30 -3 41 -11 13 -10
14 1 11 8 -3 23 -30 33 -61z m1455 20 c13 -12 23 -31 22 -42 0 -12 -3 -15 -6
-8 -2 6 -11 12 -19 12 -12 0 -34 37 -34 56 0 10 15 3 37 -18z m-97 -23 c-29
-16 -193 -19 -225 -4 -14 6 3 8 55 5 41 -2 98 -1 125 3 72 12 72 12 45 -4z
m-1423 -52 c-3 -10 -5 -4 -5 12 0 17 2 24 5 18 2 -7 2 -21 0 -30z m253 22 c-5
-6 -6 -15 -2 -20 4 -4 -3 -1 -15 6 -30 18 -29 27 2 27 19 0 23 -4 15 -13z
m1190 10 c0 -4 -8 -20 -17 -38 -17 -30 -18 -31 -21 -9 -5 32 4 52 23 52 8 0
15 -2 15 -5z m390 -4 c0 -10 -73 -55 -108 -66 -13 -4 -35 -3 -50 1 l-27 7 30
8 c17 4 48 12 69 18 21 5 46 17 55 25 17 18 31 21 31 7z m-624 -217 c-2 -109
-7 -217 -11 -240 -5 -29 -1 -58 14 -104 18 -54 20 -76 14 -135 -5 -38 -7 -347
-6 -687 2 -524 0 -617 -12 -622 -8 -3 -17 -1 -19 3 -9 13 -9 1978 -1 1991 20
33 26 -20 21 -206z m31 -26 c-1 -46 -3 -11 -3 77 0 88 2 125 3 83 2 -42 2
-114 0 -160z m94 113 c-2 -111 -3 -115 -30 -140 l-29 -27 -6 66 c-8 84 -8 149
0 189 6 28 10 32 37 29 l30 -3 -2 -114z m48 57 c0 -35 -4 -83 -8 -108 l-8 -45
-2 40 c-1 22 -3 67 -6 100 -4 61 -1 75 16 75 5 0 9 -28 8 -62z m221 42 c0 -5
-2 -10 -4 -10 -3 0 -8 5 -11 10 -3 6 -1 10 4 10 6 0 11 -4 11 -10z m30 -20 c0
-5 -2 -10 -4 -10 -3 0 -8 5 -11 10 -3 6 -1 10 4 10 6 0 11 -4 11 -10z m210 -3
c0 -2 -9 -12 -20 -22 -19 -18 -20 -17 -20 3 0 15 6 22 20 22 11 0 20 -2 20 -3z
m-403 -54 c-3 -10 -5 -2 -5 17 0 19 2 27 5 18 2 -10 2 -26 0 -35z m50 -10 c-3
-10 -5 -2 -5 17 0 19 2 27 5 18 2 -10 2 -26 0 -35z m246 -7 c37 -34 45 -58 27
-86 -9 -13 -11 -13 -19 0 -9 12 -11 12 -17 -3 -4 -11 0 -25 10 -36 15 -16 14
-19 -14 -39 -16 -12 -38 -22 -48 -22 -19 0 -72 -45 -72 -60 0 -4 -9 -10 -20
-13 -25 -6 -39 -43 -53 -134 -7 -51 -14 -73 -24 -73 -8 0 -12 4 -8 9 13 21
-18 21 -41 0 -13 -12 -24 -18 -24 -11 0 6 16 24 35 40 36 29 62 87 44 97 -5 4
-23 -4 -40 -15 -16 -12 -33 -19 -37 -15 -9 9 35 45 71 57 15 6 27 15 27 20 0
17 -53 -1 -81 -28 -14 -13 -33 -24 -42 -24 -9 0 -32 -20 -51 -45 l-34 -45 -21
35 c-21 35 -21 35 -1 55 11 11 25 20 30 20 6 0 10 5 10 10 0 6 -6 10 -14 10
-18 0 -80 -74 -66 -78 12 -4 40 -55 40 -72 0 -23 -16 -6 -39 40 -13 27 -28 47
-32 44 -4 -2 6 -31 22 -64 16 -34 27 -66 23 -72 -4 -7 -3 -8 4 -4 17 10 15
-16 -3 -40 -17 -23 -19 -34 -5 -34 6 0 10 7 10 15 0 8 5 15 10 15 6 0 10 -7
10 -15 0 -8 5 -15 11 -15 7 0 8 14 4 42 -6 35 -5 40 9 35 11 -5 16 -1 16 13 0
11 14 35 30 53 42 48 38 58 -6 16 -22 -20 -32 -26 -26 -14 15 29 72 81 72 66
0 -10 11 -12 42 -7 l42 7 -25 -20 c-90 -71 -147 -269 -120 -415 6 -33 8 -62 5
-65 -8 -9 -49 45 -85 112 -29 56 -30 60 -28 175 3 102 0 123 -19 165 -20 44
-21 84 -2 72 5 -3 21 11 37 30 15 20 38 48 50 63 l23 27 0 -26 c0 -15 6 -31
13 -37 19 -16 97 -27 97 -14 0 6 -19 12 -42 14 l-43 3 2 41 c1 37 12 68 45
129 10 19 113 75 138 75 6 0 10 -8 8 -17 -2 -12 4 -19 20 -21 30 -4 27 -13
-11 -37 -22 -14 -32 -28 -32 -45 0 -32 32 -38 92 -15 24 9 50 14 58 11 17 -6
18 -4 9 18 -6 15 -10 14 -41 -4 -35 -20 -113 -28 -113 -11 0 6 27 29 60 52 33
23 60 43 60 43 0 1 -15 0 -34 -2 -48 -6 -52 11 -11 55 31 34 37 37 55 25 17
-10 20 -10 20 3 0 23 12 18 53 -19z m52 4 c3 -5 1 -10 -4 -10 -6 0 -11 5 -11
10 0 6 2 10 4 10 3 0 8 -4 11 -10z m-1048 -32 c-3 -7 -5 -2 -5 12 0 14 2 19 5
13 2 -7 2 -19 0 -25z m35 -168 c1 -127 4 -163 14 -167 9 -3 14 -21 13 -52 -1
-30 -3 -36 -6 -18 -3 16 -10 26 -16 24 -8 -2 -14 -52 -18 -153 -4 -111 -6 -73
-6 151 0 214 -3 300 -12 303 -12 4 -12 -11 -16 -525 -1 -161 -5 -296 -9 -300
-4 -4 -6 65 -5 153 2 88 -1 165 -5 172 -4 7 -5 16 -2 21 3 4 6 126 7 270 0
143 5 264 10 267 5 3 9 -2 9 -10 0 -9 7 -16 15 -16 10 0 15 10 15 27 0 14 3
24 6 21 3 -4 6 -79 6 -168z m-82 128 c0 -16 -3 -19 -11 -11 -6 6 -8 16 -5 22
11 17 16 13 16 -11z m-705 -203 c0 -155 -3 -206 -12 -210 -10 -3 -13 29 -13
143 0 154 9 286 19 277 3 -3 5 -98 6 -210z m185 205 c0 -5 -4 -10 -10 -10 -5
0 -10 5 -10 10 0 6 5 10 10 10 6 0 10 -4 10 -10z m-10 -50 c0 -5 -7 -10 -15
-10 -8 0 -15 5 -15 10 0 6 7 10 15 10 8 0 15 -4 15 -10z m230 -26 c0 -8 7 -17
16 -21 11 -4 15 -18 14 -52 -1 -25 -1 -50 0 -56 3 -14 7 -62 15 -201 l8 -121
-27 -5 c-30 -6 -31 -5 -10 17 12 12 13 19 5 29 -7 9 -9 34 -5 70 l7 56 -38 0
c-21 0 -35 3 -31 8 4 4 18 7 29 7 19 0 22 6 22 42 1 23 4 45 8 49 3 4 3 12 0
18 -4 6 -8 35 -9 65 -1 29 -6 56 -10 60 -12 8 -14 62 -3 55 5 -3 9 -12 9 -20z
m300 6 c0 -11 -4 -20 -10 -20 -5 0 -10 9 -10 20 0 11 5 20 10 20 6 0 10 -9 10
-20z m663 -27 c-26 -41 -127 -162 -132 -158 -13 14 38 103 87 152 57 56 78 59
45 6z m-1213 3 c0 -3 -4 -8 -10 -11 -5 -3 -10 -1 -10 4 0 6 5 11 10 11 6 0 10
-2 10 -4z m-70 -26 c0 -5 -4 -10 -10 -10 -5 0 -10 5 -10 10 0 6 5 10 10 10 6
0 10 -4 10 -10z m610 -155 l-5 -150 -7 130 c-6 126 -2 195 11 178 4 -4 4 -75
1 -158z m-530 131 c0 -2 -9 -6 -20 -9 -11 -3 -20 -1 -20 4 0 5 9 9 20 9 11 0
20 -2 20 -4z m660 -42 c0 -8 -5 -12 -10 -9 -6 4 -8 11 -5 16 9 14 15 11 15 -7z
m-670 -10 c0 -2 -9 -4 -20 -4 -11 0 -20 4 -20 9 0 5 9 7 20 4 11 -3 20 -7 20
-9z m87 10 c-3 -3 -12 -4 -19 -1 -8 3 -5 6 6 6 11 1 17 -2 13 -5z m-102 -54
c18 -8 17 -9 -7 -9 -16 -1 -28 4 -28 9 0 12 8 12 35 0z m1480 -63 c-9 -30 -22
-58 -30 -61 -18 -7 -19 -101 -5 -306 7 -97 7 -150 -2 -188 -9 -40 -9 -55 0
-64 7 -7 12 -22 12 -34 0 -44 32 -35 42 11 4 16 8 12 21 -19 26 -60 23 -77
-13 -69 -23 4 -30 2 -30 -11 0 -9 -5 -16 -10 -16 -6 0 -15 -11 -20 -25 -5 -14
-14 -25 -20 -25 -5 0 -10 -5 -10 -11 0 -6 8 -8 19 -4 24 7 44 -20 61 -82 7
-29 17 -43 28 -44 16 -1 16 -2 0 -6 -18 -5 -26 -28 -20 -55 3 -13 14 -18 38
-18 19 0 34 -4 34 -10 0 -5 -15 -10 -34 -10 -26 0 -33 -4 -32 -17 1 -13 13
-20 41 -24 l40 -6 -47 -1 c-61 -2 -63 -22 -3 -22 25 0 45 -4 45 -9 0 -5 -9 -7
-19 -4 -11 3 -28 0 -38 -6 -15 -9 -13 -10 15 -11 41 0 42 -15 0 -18 -49 -4
-47 -12 3 -13 41 -1 42 -1 15 -9 -16 -5 -33 -7 -37 -4 -4 2 -10 0 -14 -6 -4
-6 11 -10 39 -10 25 0 46 -4 46 -9 0 -6 -15 -7 -34 -4 -28 4 -36 1 -45 -16
-11 -20 -9 -21 34 -21 25 0 45 -4 45 -10 0 -5 -20 -10 -45 -10 -25 0 -45 -4
-45 -10 0 -5 18 -8 40 -6 22 2 40 -1 40 -5 0 -5 -15 -9 -34 -9 -42 0 -59 -19
-19 -21 l28 -2 -27 -4 c-31 -5 -35 -19 -15 -47 21 -28 55 -13 60 27 3 27 4 26
5 -10 2 -41 1 -43 -27 -43 -17 0 -33 -4 -36 -10 -4 -6 8 -10 29 -10 20 0 36
-4 36 -10 0 -5 -18 -10 -40 -10 -23 0 -40 -5 -40 -11 0 -7 15 -10 40 -7 l40 4
0 -38 c0 -37 -1 -38 -37 -37 -29 2 -32 3 -12 6 19 3 28 11 32 29 4 21 1 24
-29 24 -18 0 -36 -5 -40 -11 -5 -8 3 -10 25 -7 17 2 31 1 31 -4 0 -4 -16 -8
-36 -8 -31 0 -35 -2 -24 -15 10 -12 10 -15 -4 -15 -19 0 -18 -11 -21 235 -4
271 -14 395 -30 395 -19 0 -28 -17 -13 -23 11 -3 11 -9 0 -26 -9 -15 -9 -21
-1 -21 8 0 8 -4 0 -14 -9 -11 -9 -15 1 -20 10 -5 10 -7 1 -12 -18 -8 -16 -24
2 -24 8 0 15 -5 15 -11 0 -6 -9 -8 -20 -4 -28 9 -25 -11 3 -20 21 -8 21 -8 -5
-12 -16 -2 -28 -9 -28 -15 0 -6 10 -8 25 -4 14 4 25 2 25 -3 0 -5 -11 -12 -25
-15 -14 -4 -23 -11 -20 -17 4 -5 15 -7 26 -4 11 4 19 2 19 -4 0 -6 -9 -11 -20
-11 -11 0 -20 -5 -20 -11 0 -6 9 -8 20 -4 11 3 20 2 20 -3 0 -5 -10 -13 -22
-17 l-23 -8 23 -4 c27 -5 29 -23 3 -23 -11 0 -23 -4 -26 -10 -4 -6 5 -10 19
-10 14 0 26 -4 26 -10 0 -5 -11 -10 -25 -10 -14 0 -25 -4 -25 -10 0 -5 11 -10
25 -10 14 0 25 -4 25 -10 0 -5 -11 -10 -24 -10 -14 0 -28 -4 -31 -10 -4 -6 6
-7 25 -4 19 4 30 2 30 -5 0 -6 -11 -11 -25 -11 -14 0 -25 -5 -25 -11 0 -7 10
-9 25 -5 14 4 25 2 25 -3 0 -5 -11 -12 -25 -15 -18 -5 -25 -13 -25 -30 0 -27
-34 -75 -46 -63 -4 4 0 134 10 290 9 155 16 351 16 436 0 85 2 152 4 150 2 -2
6 -31 10 -63 3 -32 11 -64 16 -71 6 -7 8 -20 4 -29 -4 -11 -1 -16 11 -16 15 0
17 7 12 53 -15 130 -27 326 -22 362 3 22 5 83 6 135 0 109 21 271 33 252 12
-19 23 -14 30 14 4 15 9 24 12 21 3 -3 -2 -30 -11 -60z m-738 -24 c-2 -16 -4
-5 -4 22 0 28 2 40 4 28 2 -13 2 -35 0 -50z m-627 48 c0 -5 -9 -7 -20 -4 -11
3 -20 7 -20 9 0 2 9 4 20 4 11 0 20 -4 20 -9z m2208 -69 l3 -70 -28 7 c-26 7
-28 12 -31 60 -4 68 2 82 30 78 21 -4 23 -10 26 -75z m-2353 58 c3 -5 1 -10
-4 -10 -6 0 -11 5 -11 10 0 6 2 10 4 10 3 0 8 -4 11 -10z m201 -57 c-11 -11
-19 6 -11 24 8 17 8 17 12 0 3 -10 2 -21 -1 -24z m-56 17 c0 -13 -11 -13 -30
0 -12 8 -11 10 8 10 12 0 22 -4 22 -10z m4 -72 c11 -32 6 -41 -18 -32 -15 6
-15 7 1 20 17 13 17 14 -4 20 -27 7 -31 27 -6 22 10 -2 22 -15 27 -30z m-129
-8 c4 -6 -7 -10 -24 -10 -17 0 -31 5 -31 10 0 6 11 10 24 10 14 0 28 -4 31
-10z m715 -35 c0 -31 -4 -44 -12 -42 -10 1 -14 -37 -18 -155 -3 -86 -8 -160
-12 -164 -4 -3 -5 82 -3 191 2 108 6 199 9 203 3 3 6 -4 6 -16 0 -12 5 -22 10
-22 6 0 10 11 10 25 0 14 2 25 5 25 3 0 5 -20 5 -45z m37 23 c-3 -8 -6 -5 -6
6 -1 11 2 17 5 13 3 -3 4 -12 1 -19z m-897 -113 c0 -103 7 -124 30 -87 8 13 9
5 4 -33 -8 -62 -10 -235 -5 -420 3 -118 1 -140 -12 -143 -12 -3 -15 31 -21
225 -4 125 -9 303 -12 396 -3 114 -2 167 5 167 7 0 11 -38 11 -105z m360 95
c10 -6 11 -10 3 -10 -15 0 -17 -36 -3 -45 5 -3 7 -12 4 -20 -4 -9 3 -18 17
-24 13 -5 17 -10 9 -10 -23 -1 -34 10 -54 56 -23 53 -12 77 24 53z m1180 -32
c0 -24 -5 -50 -10 -58 -7 -11 -10 2 -10 43 0 31 4 57 10 57 6 0 10 -19 10 -42z
m-88 -70 c-2 -57 -7 -128 -12 -158 -6 -42 -8 -21 -9 96 -1 139 2 164 19 164 3
0 4 -46 2 -102z m-1259 41 c18 -20 18 -21 -4 -14 -13 4 -36 14 -53 21 l-31 13
35 1 c24 0 41 -7 53 -21z m120 -3 c11 -28 -27 -36 -66 -14 l-22 12 25 7 c40
11 57 10 63 -5z m407 -191 c0 -157 3 -205 13 -205 13 0 -12 -20 -25 -20 -5 0
-8 97 -8 215 0 137 4 215 10 215 6 0 10 -75 10 -205z m177 128 c-2 -16 -4 -3
-4 27 0 30 2 43 4 28 2 -16 2 -40 0 -55z m1583 -4 c0 -71 -2 -80 -17 -77 -10
2 -19 10 -20 18 -9 74 -15 89 -28 83 -17 -6 -18 -2 -9 21 3 9 17 16 29 16 13
0 27 5 30 10 12 20 15 8 15 -71z m-1916 63 c2 -4 -12 -8 -32 -9 -36 -1 -36 -1
-7 7 17 4 31 8 32 9 1 0 4 -3 7 -7z m-537 -64 c-2 -13 -4 -3 -4 22 0 25 2 35
4 23 2 -13 2 -33 0 -45z m563 1 c0 -5 -4 -9 -10 -9 -5 0 -10 7 -10 16 0 8 5
12 10 9 6 -3 10 -10 10 -16z m-97 -3 c13 -10 17 -28 17 -78 0 -35 -4 -68 -9
-73 -5 -6 -18 -46 -29 -90 -22 -87 -50 -192 -58 -214 -3 -9 -8 -10 -17 -3 -6
5 -26 13 -44 16 -31 7 -32 9 -39 72 -10 100 0 148 42 200 32 38 35 46 23 60
-8 9 -19 35 -25 58 l-10 41 60 11 c34 6 63 12 66 12 3 1 13 -5 23 -12z m913
-50 c-1 -35 -4 -68 -8 -72 -5 -4 -8 25 -8 64 0 40 4 72 8 72 5 0 8 -29 8 -64z
m-1096 24 c5 -8 12 -39 16 -68 5 -45 3 -56 -14 -75 -30 -32 -44 -109 -36 -194
6 -69 5 -73 -14 -73 -15 0 -23 9 -28 33 -11 44 -7 203 6 242 7 21 7 48 0 84
-5 30 -10 57 -10 61 0 13 71 4 80 -10z m1217 -42 c-2 -13 -4 -3 -4 22 0 25 2
35 4 23 2 -13 2 -33 0 -45z m-40 20 c-3 -8 -6 -5 -6 6 -1 11 2 17 5 13 3 -3 4
-12 1 -19z m923 -74 c0 -30 -4 -54 -10 -54 -6 0 -10 27 -10 61 0 37 4 58 10
54 6 -3 10 -31 10 -61z m-1786 -66 c5 -11 4 -18 -3 -18 -7 0 -14 6 -17 14 -5
14 -50 10 -60 -5 -7 -12 -24 -12 -24 0 0 5 13 12 30 16 35 8 48 24 29 36 -11
6 -10 9 4 15 9 3 17 13 17 21 0 13 -3 13 -25 -1 -14 -9 -25 -13 -25 -9 0 5 12
15 28 23 l27 16 6 -46 c3 -25 9 -53 13 -62z m163 15 c-2 -16 -4 -3 -4 27 0 30
2 43 4 28 2 -16 2 -40 0 -55z m83 67 c0 -5 -4 -10 -10 -10 -5 0 -10 5 -10 10
0 6 5 10 10 10 6 0 10 -4 10 -10z m401 -413 c-8 -8 -11 51 -9 209 l1 219 9
-209 c7 -148 6 -212 -1 -219z m-1148 386 c-7 -2 -21 -2 -30 0 -10 3 -4 5 12 5
17 0 24 -2 18 -5z m1367 -3 c0 -5 -4 -10 -10 -10 -5 0 -10 5 -10 10 0 6 5 10
10 10 6 0 10 -4 10 -10z m150 -52 c0 -62 -5 -60 -14 5 -5 31 -4 47 3 47 7 0
11 -22 11 -52z m-754 -78 c9 0 14 -5 12 -11 -2 -6 -7 -10 -11 -10 -4 1 -14 1
-22 1 -11 0 -15 12 -15 49 0 75 14 97 18 29 2 -44 7 -58 18 -58z m1593 5 c1
-59 -3 -95 -9 -95 -5 0 -10 6 -10 14 0 7 -7 19 -15 26 -10 9 -15 32 -15 76 0
50 3 64 15 64 8 0 15 5 15 11 0 5 4 8 9 5 5 -3 9 -49 10 -101z m-2406 -103 c3
-122 8 -187 16 -195 8 -8 10 27 5 149 -5 107 -4 163 3 167 7 5 13 -44 17 -141
4 -81 9 -163 11 -184 4 -33 2 -37 -25 -46 -16 -6 -32 -8 -34 -4 -2 4 -7 109
-11 232 -5 164 -4 222 4 215 7 -7 12 -78 14 -193z m1417 188 c0 -5 -4 -10 -10
-10 -5 0 -10 5 -10 10 0 6 5 10 10 10 6 0 10 -4 10 -10z m-128 -184 c2 -67 4
-303 3 -526 l0 -405 -27 -3 -28 -3 0 154 c0 84 -3 338 -6 563 l-6 409 30 -34
c29 -34 30 -39 34 -155z m128 135 c0 -6 -4 -13 -10 -16 -5 -3 -10 1 -10 9 0 9
5 16 10 16 6 0 10 -4 10 -9z m-821 -71 c-2 -82 -19 -107 -19 -28 0 52 8 98 17
98 2 0 3 -32 2 -70z m116 -12 c-15 -11 -18 8 -9 50 l8 37 5 -40 c4 -22 2 -43
-4 -47z m-629 -30 c4 -46 6 -98 5 -115 -2 -24 2 -33 13 -33 20 0 20 1 -3 -45
-10 -21 -20 -34 -23 -29 -11 18 -20 304 -10 304 6 0 13 -37 18 -82z m33 10
l-2 -73 -8 64 c-7 58 -6 81 7 81 2 0 3 -33 3 -72z m1221 -439 c0 -270 -3 -490
-8 -493 -10 -6 -24 947 -15 983 16 64 21 -43 23 -490z m90 497 c0 -8 -6 -17
-12 -19 -10 -4 -9 -8 2 -16 16 -11 8 -27 -9 -16 -17 10 -14 65 4 65 8 0 15 -6
15 -14z m-1613 -48 c-2 -13 -4 -5 -4 17 -1 22 1 32 4 23 2 -10 2 -28 0 -40z
m699 10 c-3 -13 -6 -42 -6 -65 0 -24 -4 -43 -10 -43 -11 0 -13 51 -4 99 4 17
11 31 16 31 6 0 8 -10 4 -22z m35 -35 c2 -23 0 -45 -4 -49 -4 -4 -7 17 -7 46
0 62 7 64 11 3z m1783 -102 c-1 -1 -7 0 -13 4 -12 7 -15 118 -3 129 6 7 23
-125 16 -133z m-1874 74 l-7 -50 -2 46 c0 25 2 49 6 52 10 11 11 5 3 -48z
m407 45 c90 -18 188 -32 216 -31 32 1 36 -20 7 -34 -11 -6 -52 -32 -92 -59
-117 -78 -260 -172 -295 -192 -17 -11 -66 -40 -109 -66 -81 -50 -85 -52 -83
-40 5 33 -31 62 -83 67 -61 6 -88 22 -88 52 0 16 8 33 18 39 10 7 24 30 30 52
11 36 46 71 76 76 6 1 27 11 46 23 59 36 223 113 239 112 11 0 12 -2 4 -6 -7
-2 -13 -11 -13 -19 0 -19 54 -18 70 1 10 12 10 15 -3 15 -9 0 -19 5 -22 10 -8
13 20 13 82 0z m553 -20 c13 -8 12 -10 -2 -10 -10 0 -18 -4 -18 -10 0 -5 7
-10 15 -10 8 0 15 -4 15 -10 0 -5 -7 -10 -15 -10 -8 0 -15 -4 -15 -10 0 -5 7
-10 15 -10 19 0 19 -9 0 -34 -19 -25 -19 -36 0 -36 8 0 15 -4 15 -10 0 -5 -6
-10 -14 -10 -8 0 -13 -10 -13 -25 0 -15 5 -25 13 -25 8 0 14 -4 14 -10 0 -5
-9 -10 -20 -10 -19 0 -20 7 -20 120 0 66 3 120 8 120 4 0 14 -5 22 -10z m989
-130 c-1 -69 -4 -88 -14 -80 -6 5 -15 7 -18 3 -4 -3 -7 22 -7 56 0 46 4 63 15
67 8 4 15 15 15 25 0 10 2 19 6 19 3 0 4 -41 3 -90z m-1992 38 c-3 -7 -5 -2
-5 12 0 14 2 19 5 13 2 -7 2 -19 0 -25z m-600 -150 c-2 -35 -3 -9 -3 57 0 66
1 94 3 63 2 -32 2 -86 0 -120z m319 145 c-4 -9 -1 -20 6 -25 10 -6 9 -8 -4 -8
-9 0 -20 5 -23 10 -9 14 1 40 16 40 6 0 8 -7 5 -17z m177 -50 c34 -15 36 -18
22 -33 -11 -12 -12 -19 -3 -28 22 -22 -2 -25 -25 -4 -13 12 -26 19 -30 16 -4
-4 -9 1 -13 10 -3 9 -15 16 -26 16 -14 0 -18 5 -14 16 3 9 6 20 6 25 0 12 27
5 83 -18z m-153 -48 c0 -9 7 -18 16 -22 14 -5 15 -16 10 -65 -7 -70 -11 -78
-37 -78 -20 0 -26 19 -9 36 11 11 13 66 4 112 -4 21 -2 32 5 32 6 0 11 -7 11
-15z m2180 -50 c0 -50 -3 -65 -14 -65 -20 0 -29 35 -21 78 8 43 13 52 26 52 5
0 9 -29 9 -65z m-2048 3 c7 -13 12 -41 13 -63 0 -38 2 -40 33 -43 18 -2 36
-10 39 -18 7 -19 33 -18 33 1 0 19 0 19 39 -1 l32 -16 -27 -14 c-15 -8 -53
-17 -83 -21 -31 -3 -73 -12 -95 -19 -21 -8 -47 -14 -58 -14 -17 0 -19 5 -15
38 22 146 27 174 32 182 11 18 44 10 57 -12z m-188 -3 c-6 -16 -34 -21 -34 -7
0 13 11 22 26 22 8 0 11 -6 8 -15z m1106 -325 c1 -184 0 -339 -2 -345 -4 -16
-13 638 -9 663 2 13 5 21 7 20 2 -2 4 -154 4 -338z m1200 320 c0 -11 -4 -20
-10 -20 -5 0 -10 9 -10 20 0 11 5 20 10 20 6 0 10 -9 10 -20z m-987 -7 c-7 -2
-19 -2 -25 0 -7 3 -2 5 12 5 14 0 19 -2 13 -5z m-1298 -43 c-15 -17 -55 -28
-55 -16 0 22 17 36 43 36 29 0 30 0 12 -20z m1305 10 c0 -5 -11 -10 -25 -10
-14 0 -25 5 -25 10 0 6 11 10 25 10 14 0 25 -4 25 -10z m-1385 -11 c-8 -12 22
-49 40 -49 7 0 20 -9 30 -20 10 -11 26 -20 37 -20 14 0 18 -8 18 -38 0 -52 21
-63 85 -45 28 7 75 17 105 22 30 5 67 12 83 16 15 4 27 5 27 2 0 -9 -93 -65
-175 -105 -75 -37 -84 -39 -125 -31 -55 12 -217 37 -285 45 -27 3 -56 7 -63 9
-19 7 -14 50 8 70 22 20 18 37 -6 28 -12 -4 -15 0 -12 17 2 16 14 27 41 36 21
7 66 27 100 43 63 31 104 40 92 20z m2356 -41 c1 -24 3 -53 4 -65 1 -13 -3
-30 -10 -39 -12 -17 -12 -18 -17 31 -4 47 3 115 12 115 6 0 11 -19 11 -42z
m-971 12 c0 -5 -11 -10 -25 -10 -14 0 -25 5 -25 10 0 6 11 10 25 10 14 0 25
-4 25 -10z m-1605 -10 c3 -5 1 -10 -4 -10 -6 0 -11 5 -11 10 0 6 2 10 4 10 3
0 8 -4 11 -10z m1118 3 c-7 -2 -19 -2 -25 0 -7 3 -2 5 12 5 14 0 19 -2 13 -5z
m57 -12 c0 -28 -11 -32 -61 -22 l-44 9 38 1 c26 1 37 6 37 16 0 8 7 15 15 15
8 0 15 -9 15 -19z m1760 9 c0 -5 -19 -11 -42 -12 l-43 -1 45 -7 45 -7 -60 -3
-60 -2 53 -8 c29 -4 55 -10 58 -13 7 -7 -294 -20 -305 -12 -6 3 -11 15 -11 26
0 17 8 19 85 19 54 0 85 4 85 11 0 7 -18 9 -50 6 -27 -3 -50 -1 -50 4 0 5 56
9 125 9 77 0 125 -4 125 -10z m-1330 -30 c0 -5 -11 -10 -25 -10 -14 0 -25 5
-25 10 0 6 11 10 25 10 14 0 25 -4 25 -10z m-502 -27 c-10 -2 -26 -2 -35 0
-10 3 -2 5 17 5 19 0 27 -2 18 -5z m162 -3 c0 -5 -4 -10 -10 -10 -5 0 -10 5
-10 10 0 6 5 10 10 10 6 0 10 -4 10 -10z m340 -34 c0 -36 -21 -66 -46 -66 -8
0 -14 5 -14 10 0 6 9 10 19 10 11 0 23 5 26 10 3 6 -3 10 -14 10 -12 0 -21 5
-21 10 0 6 9 10 20 10 11 0 20 5 20 10 0 6 -9 10 -20 10 -11 0 -20 5 -20 10 0
6 11 10 25 10 22 0 25 -4 25 -34z m908 -49 c-2 -65 -6 -82 -18 -82 -12 0 -16
17 -18 80 -3 76 -1 81 18 82 20 2 21 -2 18 -80z m-1475 66 c-7 -2 -21 -2 -30
0 -10 3 -4 5 12 5 17 0 24 -2 18 -5z m1875 -4 c21 -1 17 -3 -13 -9 -22 -5 -69
-7 -105 -5 -36 2 -83 0 -105 -4 -29 -6 -2 -9 103 -10 87 -1 142 -5 142 -11 0
-6 -33 -11 -77 -11 -57 -1 -70 -3 -48 -9 17 -4 51 -8 78 -9 48 -1 63 -15 28
-26 -10 -3 -42 -4 -70 -1 -28 3 -53 0 -56 -5 -4 -5 26 -9 70 -9 54 0 76 -3 73
-12 -3 -8 -43 -11 -134 -11 l-129 1 128 -10 c70 -6 127 -14 127 -19 0 -5 -12
-10 -27 -10 -28 -2 -28 -2 -3 -6 30 -6 44 -24 27 -35 -9 -6 -9 -8 1 -8 11 0
13 -47 10 -240 l-2 -241 -231 3 -230 3 3 75 c4 102 7 107 50 113 20 4 53 20
72 36 l35 29 -4 154 c-3 84 -5 182 -5 218 l-1 65 120 5 c66 3 126 4 133 3 8
-2 26 -4 40 -4z m-2035 -56 c-7 -2 -19 -2 -25 0 -7 3 -2 5 12 5 14 0 19 -2 13
-5z m1112 -121 c17 -11 18 -12 2 -7 -11 3 -31 8 -45 11 -25 6 -26 5 -11 -10
10 -10 46 -22 88 -28 48 -8 71 -16 71 -25 0 -8 10 -18 23 -23 l22 -9 -22 0
c-13 -1 -23 -7 -23 -13 0 -10 -2 -10 -8 -1 -9 14 -168 21 -164 7 3 -10 7 -10
90 -13 48 -1 52 -3 52 -26 0 -23 -4 -25 -41 -25 -27 0 -38 4 -33 11 3 6 19 9
35 5 16 -3 29 -1 29 4 0 6 -27 10 -60 10 -33 0 -60 -3 -60 -6 0 -18 38 -38 81
-42 67 -6 62 -24 -6 -21 -30 1 -55 -2 -55 -7 0 -5 25 -10 55 -12 30 -2 55 -8
55 -13 0 -6 -25 -9 -62 -8 -73 3 -82 -14 -11 -21 l48 -4 -60 -6 c-46 -5 -55
-9 -37 -15 12 -4 22 -11 22 -16 0 -14 88 -11 93 4 4 7 6 6 6 -4 1 -20 -27 -29
-94 -29 -52 0 -53 -15 0 -23 25 -3 23 -4 -10 -5 -22 -1 -51 5 -64 12 -23 13
-25 20 -27 102 -2 49 1 136 7 193 7 72 7 107 -1 115 -5 5 -10 21 -10 34 0 21
5 18 53 -30 28 -29 61 -59 72 -66z m-395 73 c1 -5 -11 -11 -25 -13 -23 -3 -33
7 -20 20 9 9 45 4 45 -7z m-940 -15 c0 -5 -5 -10 -11 -10 -5 0 -7 5 -4 10 3 6
8 10 11 10 2 0 4 -4 4 -10z m1932 -12 c3 -7 6 -41 7 -75 2 -63 -6 -76 -35 -55
-15 11 -17 124 -2 134 18 11 25 10 30 -4z m-2545 -60 c-2 -13 -4 -3 -4 22 0
25 2 35 4 23 2 -13 2 -33 0 -45z m1553 47 c0 -8 -9 -15 -20 -15 -25 0 -26 17
-2 23 9 3 18 5 20 6 1 0 2 -6 2 -14z m-1412 -10 c116 -19 175 -34 183 -46 3
-5 3 -24 0 -42 l-5 -32 -5 29 c-7 36 -31 47 -32 14 l-1 -23 -7 25 c-6 22 -31
36 -68 39 -7 1 -13 -10 -13 -24 0 -14 -5 -25 -11 -25 -6 0 -9 12 -7 28 3 29 3
29 -84 34 -16 1 -28 5 -28 10 0 4 -4 8 -10 8 -5 0 -10 -16 -10 -36 0 -19 -4
-33 -8 -30 -8 4 -4 86 4 86 2 0 48 -7 102 -15z m-181 -47 c-3 -8 -6 -5 -6 6
-1 11 2 17 5 13 3 -3 4 -12 1 -19z m1593 12 c0 -5 -9 -10 -20 -10 -11 0 -20 5
-20 10 0 6 9 10 20 10 11 0 20 -4 20 -10z m-1405 -29 c3 -5 1 -12 -5 -16 -5
-3 -10 1 -10 9 0 18 6 21 15 7z m95 -22 c0 -5 -4 -9 -10 -9 -5 0 -10 7 -10 16
0 8 5 12 10 9 6 -3 10 -10 10 -16z m345 11 c29 -7 29 -8 -10 -9 -22 0 -47 4
-55 9 -12 8 -10 9 10 9 14 -1 39 -5 55 -9z m959 -42 c-1 -13 -3 -27 -3 -33 -1
-6 -4 -6 -9 1 -4 6 -14 14 -22 17 -12 4 -11 6 3 6 9 1 17 6 17 11 0 6 -8 10
-17 11 -15 0 -15 2 2 8 26 11 32 7 29 -21z m926 15 c0 -12 -33 -43 -47 -43
-11 0 -10 5 3 25 15 23 44 35 44 18z m-2510 -40 c-1 -28 -3 -34 -10 -22 -8 14
-3 59 6 59 2 0 4 -17 4 -37z m140 -17 c-7 -7 -10 1 -9 25 0 32 1 33 10 10 6
-16 6 -28 -1 -35z m-46 12 c4 -17 2 -28 -4 -28 -5 0 -10 14 -10 32 0 36 4 35
14 -4z m2043 6 c-3 -3 -12 -4 -19 -1 -8 3 -5 6 6 6 11 1 17 -2 13 -5z m-2090
-41 c-3 -10 -5 -4 -5 12 0 17 2 24 5 18 2 -7 2 -21 0 -30z m228 17 c4 -6 -6
-10 -24 -10 -16 0 -33 5 -36 10 -4 6 6 10 24 10 16 0 33 -4 36 -10z m1298 -75
c-3 -55 -1 -65 12 -65 9 0 13 -4 10 -10 -3 -5 -17 -10 -30 -10 -26 0 -31 16
-34 103 -2 44 0 47 22 47 24 0 24 -2 20 -65z m-1355 48 c-10 -2 -28 -2 -40 0
-13 2 -5 4 17 4 22 1 32 -1 23 -4z m2379 -35 c-2 -29 -6 -33 -27 -30 -14 2
-32 10 -40 18 -13 13 -13 16 -1 23 8 5 20 7 28 4 7 -3 13 0 13 6 0 6 7 11 15
11 11 0 14 -9 12 -32z m-280 -20 c-3 -7 -5 -2 -5 12 0 14 2 19 5 13 2 -7 2
-19 0 -25z m40 -30 c-2 -13 -4 -3 -4 22 0 25 2 35 4 23 2 -13 2 -33 0 -45z
m-213 24 c-6 -4 -16 -16 -22 -27 -11 -19 -11 -18 -12 8 0 21 5 27 23 27 12 0
17 -3 11 -8z m-2144 -63 c0 -5 -4 -9 -10 -9 -5 0 -10 7 -10 16 0 8 5 12 10 9
6 -3 10 -10 10 -16z m2431 -192 c-4 -17 -12 -32 -18 -34 -16 -6 -21 25 -11 67
4 19 5 61 2 92 -5 42 -3 62 7 75 12 14 15 4 20 -77 3 -51 3 -107 0 -123z
m-301 188 c0 -10 10 -15 30 -15 17 0 30 -4 30 -10 0 -5 -13 -7 -30 -3 -18 3
-30 1 -30 -5 0 -6 10 -13 23 -15 17 -3 16 -5 -8 -6 -27 -1 -30 2 -32 34 -2 19
2 35 7 35 6 0 10 -7 10 -15z m-485 -4 c3 -6 -3 -15 -12 -21 -15 -8 -12 -10 17
-8 22 2 34 8 33 16 -4 17 14 15 20 -2 7 -18 -14 -23 -128 -32 -71 -5 -88 -4
-78 6 6 7 32 15 57 17 25 3 51 12 57 19 13 16 25 18 34 5z m675 -11 c0 -11 7
-20 15 -20 17 0 20 -16 4 -25 -6 -4 -9 -21 -7 -38 3 -30 0 -32 -29 -35 -38 -4
-45 -22 -8 -22 15 0 25 -6 25 -15 0 -9 8 -14 22 -12 17 1 24 -4 26 -21 3 -21
1 -22 -70 -18 -55 3 -72 7 -69 18 3 7 4 39 3 71 -1 48 1 57 15 55 9 -2 18 3
20 10 3 7 -4 12 -16 12 -12 0 -21 5 -21 11 0 5 8 9 18 8 29 -3 42 1 42 11 0 6
-10 11 -22 11 -19 1 -17 3 7 9 45 11 45 11 45 -10z m-265 -40 c-3 -5 -10 -10
-16 -10 -5 0 -9 5 -9 10 0 6 7 10 16 10 8 0 12 -4 9 -10z m56 -30 c10 0 19 -4
19 -9 0 -16 -40 -23 -55 -11 -20 16 -19 34 1 26 9 -3 24 -6 35 -6z m-61 -30
c17 -23 18 -30 7 -30 -8 0 -20 14 -26 30 -5 17 -8 30 -6 30 2 0 13 -13 25 -30z
m-124 -13 c1 -9 -2 -17 -8 -17 -6 0 -8 -6 -5 -14 4 -10 -4 -13 -31 -12 -21 1
-36 4 -34 8 1 4 5 15 9 24 6 16 41 35 57 30 5 -1 10 -10 12 -19z m94 -29 c0
-5 -5 -8 -10 -8 -9 0 -30 41 -30 58 1 9 39 -41 40 -50z m-60 -8 c0 -5 -4 -10
-10 -10 -5 0 -10 5 -10 10 0 6 5 10 10 10 6 0 10 -4 10 -10z"/>
<g>
<path d="M2448 5163 c-53 -6 -52 -33 0 -33 21 0 44 -6 51 -12 10 -11 14 -10
22 5 6 9 19 17 31 17 17 0 18 2 8 15 -12 15 -33 16 -112 8z"/>
</g>
<g>
<path d="M2852 4779 c-46 -10 -57 -22 -40 -48 13 -21 28 -28 28 -12 0 4 12 20
27 35 31 31 29 35 -15 25z"/>
</g>
<g>
<path d="M266 5105 c6 -25 6 -25 -65 -25 -41 0 -71 -4 -71 -10 0 -5 6 -10 14
-10 8 0 17 -6 19 -12 4 -10 7 -10 15 0 6 9 38 14 105 14 53 1 102 5 109 9 8 6
-4 9 -30 9 -33 0 -48 6 -66 25 -13 14 -26 25 -30 25 -3 0 -4 -11 0 -25z"/>
</g>
<g>
<path d="M640 5091 c0 -7 -28 -11 -80 -11 -47 0 -80 -4 -80 -10 0 -5 9 -10 19
-10 25 0 27 -4 35 -62 7 -44 5 -50 -20 -73 l-27 -25 31 0 c41 0 47 12 44 91
l-2 66 66 6 c36 2 71 10 77 16 8 8 7 11 -3 11 -8 0 -25 3 -37 6 -14 4 -23 2
-23 -5z"/>
</g>
<g>
<path d="M160 4945 c0 -19 -7 -26 -35 -34 -19 -5 -44 -7 -55 -4 -31 8 -49 -3
-43 -27 4 -16 8 -18 14 -9 4 7 26 14 49 16 22 1 49 7 60 13 10 5 37 10 59 10
23 0 41 5 41 10 0 6 -9 10 -19 10 -30 0 -51 11 -51 26 0 8 -4 14 -10 14 -5 0
-10 -11 -10 -25z"/>
</g>
<g>
<path d="M344 4904 c3 -9 6 -20 6 -25 0 -5 5 -9 10 -9 6 0 10 7 10 16 0 13 7
15 30 11 16 -4 32 -3 34 2 6 9 -40 21 -76 21 -14 0 -18 -5 -14 -16z"/>
</g>
<g>
<path d="M26 4757 c-3 -12 -6 -27 -6 -34 0 -14 61 -33 108 -33 25 0 32 -4 32
-20 0 -11 7 -20 15 -20 10 0 15 7 13 18 -2 13 5 18 30 20 63 6 31 22 -45 22
-102 0 -123 6 -123 36 0 31 -16 39 -24 11z"/>
</g>
<g>
<path d="M1405 4840 c-4 -7 3 -8 22 -4 38 9 42 14 10 14 -14 0 -29 -5 -32 -10z"/>
</g>
<g>
<path d="M1290 4781 c-83 -47 -179 -123 -214 -168 -27 -37 -10 -27 51 29 31
28 104 82 162 120 122 79 123 89 1 19z"/>
</g>
<g>
<path d="M1354 4781 c-75 -35 -189 -144 -223 -214 -19 -40 -23 -60 -19 -118 4
-81 20 -104 64 -93 25 6 26 8 9 15 -20 8 -20 8 0 14 17 5 20 15 20 63 1 98 72
199 164 230 48 17 142 15 185 -3 84 -35 146 -128 146 -219 0 -25 4 -36 15 -36
8 0 15 -4 15 -10 0 -5 -7 -10 -15 -10 -8 0 -15 -4 -15 -10 0 -5 11 -10 24 -10
33 0 49 50 40 122 -10 77 -36 128 -93 181 -52 49 -199 127 -235 127 -12 -1
-49 -14 -82 -29z"/>
</g>
<g>
<path d="M1477 4644 c-7 -7 17 -104 32 -131 10 -19 20 -23 64 -23 89 0 98 25
32 93 -31 31 -117 72 -128 61z"/>
</g>
<g>
<path d="M1350 4621 c-31 -16 -100 -100 -100 -122 0 -5 31 -9 68 -9 l68 0 27
65 c15 36 27 70 27 75 0 16 -53 11 -90 -9z"/>
</g>
<g>
<path d="M1015 4560 c-16 -16 -24 -30 -18 -30 10 0 34 24 47 48 12 20 2 14
-29 -18z"/>
</g>
<g>
<path d="M1436 4536 c-20 -49 -21 -46 14 -46 28 0 30 2 24 28 -13 55 -21 58
-38 18z"/>
</g>
<g>
<path d="M965 4443 c-36 -42 -65 -80 -65 -85 0 -10 36 -5 103 14 l37 11 0 69
c0 37 -2 68 -5 68 -2 0 -34 -34 -70 -77z"/>
</g>
<g>
<path d="M1845 4477 l0 -44 53 -9 c28 -6 52 -7 52 -4 0 7 -94 100 -100 100 -3
0 -5 -19 -5 -43z"/>
</g>
<g>
<path d="M1297 4464 c-8 -8 55 -44 66 -37 4 2 7 13 7 24 0 15 -7 19 -33 19
-19 0 -37 -3 -40 -6z"/>
</g>
<g>
<path d="M1575 4463 c-37 -6 -47 -14 -36 -32 7 -11 14 -10 40 5 17 10 31 22
31 26 0 4 -1 7 -2 7 -2 -1 -16 -4 -33 -6z"/>
</g>
<g>
<path d="M1398 4435 c-10 -21 -8 -28 8 -40 23 -18 45 -19 79 -3 28 12 30 20
15 49 -8 14 -21 19 -51 19 -32 0 -41 -4 -51 -25z"/>
</g>
<g>
<path d="M1250 4424 c0 -41 50 -127 65 -112 3 2 11 20 19 40 l15 35 -49 31
-50 31 0 -25z"/>
</g>
<g>
<path d="M1598 4419 c-42 -22 -45 -33 -23 -86 12 -29 18 -33 29 -24 17 14 42
64 51 104 9 33 -4 35 -57 6z"/>
</g>
<g>
<path d="M1497 4369 c-17 -10 -16 -13 14 -35 18 -13 34 -22 37 -20 3 4 -26 66
-31 66 -1 0 -10 -5 -20 -11z"/>
</g>
<g>
<path d="M1361 4348 c-12 -31 -8 -33 24 -12 20 13 23 19 13 25 -21 13 -28 11
-37 -13z"/>
</g>
<g>
<path d="M1680 4342 c0 -5 -17 -28 -37 -51 -46 -55 -109 -82 -189 -83 -93 0
-155 32 -217 115 -8 12 -20 15 -36 10 -23 -6 -24 -7 -4 -14 11 -4 23 -17 26
-28 4 -17 1 -21 -22 -21 -15 0 -32 5 -39 12 -9 9 -12 8 -12 -8 0 -15 11 -23
47 -33 55 -17 116 -74 144 -134 10 -23 19 -34 19 -24 0 32 30 76 61 93 24 12
37 13 62 4 36 -12 77 -48 77 -67 0 -25 16 -13 28 21 15 40 100 123 136 132 24
6 34 23 20 37 -3 3 -21 -4 -40 -15 -25 -15 -34 -16 -34 -6 1 18 25 48 39 48 6
0 11 5 11 10 0 6 -9 10 -20 10 -11 0 -20 -4 -20 -8z"/>
</g>
<g>
<path d="M1780 4336 c-8 -11 -9 -20 -1 -33 10 -17 10 -17 11 0 0 9 5 17 10 17
6 0 10 -8 10 -19 0 -15 10 -20 48 -25 114 -15 202 -116 202 -232 0 -61 0 -62
30 -66 20 -3 30 0 30 8 0 17 15 25 34 18 20 -8 21 -24 1 -24 -9 0 -12 -6 -8
-16 7 -19 52 -15 66 7 12 19 -38 136 -98 229 -50 79 -104 123 -167 138 -67 17
-153 15 -168 -2z"/>
</g>
<g>
<path d="M986 4315 c-78 -32 -158 -86 -191 -130 -33 -43 -75 -154 -75 -199 0
-22 8 -40 25 -56 26 -25 47 -21 25 5 -10 12 -10 15 3 15 8 0 18 -6 20 -12 4
-10 7 -10 15 0 5 8 18 11 33 7 24 -6 24 -5 25 67 0 48 7 85 18 108 27 53 92
107 148 121 29 8 48 18 48 27 0 10 7 12 25 8 31 -8 34 15 5 44 -26 26 -52 25
-124 -5z"/>
</g>
<g>
<path d="M1386 4304 c-49 -33 -37 -46 43 -52 65 -5 111 3 111 18 0 14 -76 60
-97 59 -10 0 -35 -12 -57 -25z"/>
</g>
<g>
<path d="M1770 4233 c-66 -17 -150 -96 -150 -140 0 -18 129 -18 134 0 41 132
43 147 16 140z"/>
</g>
<g>
<path d="M1840 4221 c0 -5 9 -39 20 -75 l21 -66 57 0 c31 0 62 4 68 8 19 12
-43 95 -90 120 -43 23 -76 29 -76 13z"/>
</g>
<g>
<path d="M1025 4195 c-34 -17 -59 -39 -83 -69 -34 -44 -29 -56 23 -56 25 0 45
-5 45 -11 0 -6 -14 -9 -32 -7 -46 4 -43 -20 3 -36 32 -11 38 -11 48 6 6 10 11
23 11 29 0 6 6 25 14 42 19 41 46 108 46 113 0 8 -55 0 -75 -11z"/>
</g>
<g>
<path d="M1140 4204 c0 -5 4 -25 9 -44 5 -19 12 -47 15 -62 5 -22 12 -28 34
-28 l27 0 -22 -18 c-16 -12 -20 -21 -13 -32 8 -12 13 -12 44 3 39 18 46 33 19
40 -10 3 -1 5 20 6 20 0 37 4 37 9 0 20 -43 74 -77 96 -41 27 -93 43 -93 30z"/>
</g>
<g>
<path d="M1103 4135 c-6 -17 -14 -37 -18 -46 -7 -19 16 -32 40 -23 18 7 18 29
1 69 l-12 30 -11 -30z"/>
</g>
<g>
<path d="M1792 4127 c-16 -46 -16 -47 19 -47 26 0 29 3 25 20 -3 11 -9 29 -12
40 -8 29 -18 25 -32 -13z"/>
</g>
<g>
<path d="M1412 4118 c-19 -19 -14 -30 10 -26 13 2 24 11 26 21 4 20 -18 23
-36 5z"/>
</g>
<g>
<path d="M1470 4110 c0 -15 7 -20 25 -20 29 0 32 8 8 26 -25 19 -33 17 -33 -6z"/>
</g>
<g>
<path d="M1400 4052 c0 -10 33 -42 44 -42 4 0 6 10 4 23 -2 14 -11 23 -25 25
-13 2 -23 -1 -23 -6z"/>
</g>
<g>
<path d="M1470 4035 c0 -30 11 -32 33 -7 23 25 21 32 -8 32 -20 0 -25 -5 -25
-25z"/>
</g>
<g>
<path d="M1634 4052 c3 -5 24 -17 46 -27 36 -16 43 -17 51 -4 19 31 10 39 -47
39 -30 0 -53 -4 -50 -8z"/>
</g>
<g>
<path d="M1893 4044 c-3 -8 1 -23 10 -32 15 -14 18 -14 35 1 10 9 23 17 29 17
6 0 16 7 23 15 11 13 6 15 -39 15 -38 0 -53 -4 -58 -16z"/>
</g>
<g>
<path d="M1760 4024 c-14 -36 -13 -40 15 -58 32 -21 68 -20 89 3 14 15 15 23
5 44 -20 44 -94 52 -109 11z"/>
</g>
<g>
<path d="M1050 4014 c-11 -29 -6 -44 16 -44 8 0 14 -4 14 -10 0 -16 30 -11 60
10 21 15 26 25 22 45 -4 23 -9 25 -53 25 -44 0 -51 -3 -59 -26z"/>
</g>
<g>
<path d="M1261 4009 c-23 -16 -44 -36 -47 -43 -8 -21 22 -101 37 -101 34 0 88
152 60 169 -5 3 -27 -8 -50 -25z"/>
</g>
<g>
<path d="M1361 4001 c-1 -25 -12 -64 -27 -95 -45 -89 -103 -127 -210 -134 -61
-4 -80 -1 -126 20 -51 24 -118 90 -118 117 0 14 -17 14 -25 1 -3 -5 -16 -10
-28 -11 -15 0 -17 -2 -7 -6 20 -8 29 -23 23 -40 -7 -17 -28 -12 -28 7 0 7 -6
15 -12 18 -21 6 -15 -56 7 -78 22 -22 151 -62 259 -81 65 -11 82 -11 138 4
119 31 213 113 233 204 7 29 5 34 -26 52 -19 12 -39 31 -44 43 -7 19 -9 16 -9
-21z"/>
</g>
<g>
<path d="M1967 4004 c-26 -20 -47 -42 -47 -49 0 -19 21 -75 28 -75 16 1 62 81
68 119 4 22 4 41 2 41 -3 0 -26 -16 -51 -36z"/>
</g>
<g>
<path d="M904 3989 c7 -42 43 -119 57 -119 3 0 16 21 27 48 24 53 23 55 -52
94 l-39 20 7 -43z"/>
</g>
<g>
<path d="M1610 4002 c0 -29 43 -107 61 -110 11 -2 19 6 23 22 3 13 9 31 12 39
4 11 -9 23 -45 42 -46 23 -51 24 -51 7z"/>
</g>
<g>
<path d="M1532 3990 c-12 -10 -27 -20 -34 -22 -8 -3 -6 -19 6 -55 18 -55 84
-126 146 -158 50 -26 167 -22 278 10 149 41 202 71 202 111 0 27 -17 33 -26 9
-9 -23 -26 -18 -23 8 2 12 -3 33 -10 46 l-14 25 -23 -46 c-37 -72 -130 -127
-216 -128 -60 0 -147 32 -180 68 -34 35 -68 101 -68 129 0 28 -8 28 -38 3z"/>
</g>
<g>
<path d="M1011 3918 c-6 -17 -10 -33 -8 -34 1 -2 18 7 36 18 31 20 32 22 15
35 -26 19 -31 17 -43 -19z"/>
</g>
<g>
<path d="M1722 3918 c-14 -37 -11 -44 15 -29 48 28 49 29 28 45 -27 21 -29 20
-43 -16z"/>
</g>
<g>
<path d="M1860 3935 c-11 -13 -10 -18 6 -30 33 -25 47 -15 33 23 -10 26 -22
28 -39 7z"/>
</g>
<g>
<path d="M1147 3933 c-13 -12 -7 -23 23 -38 32 -16 38 -9 20 26 -11 19 -31 25
-43 12z"/>
</g>
<g>
<path d="M2195 3900 c-3 -5 -3 -21 1 -35 6 -23 10 -25 38 -19 40 8 40 8 32 39
-5 20 -13 25 -36 25 -16 0 -31 -4 -35 -10z"/>
</g>
<g>
<path d="M658 3877 c-22 -33 -6 -57 36 -57 35 0 46 13 46 51 0 12 -7 19 -19
19 -11 0 -26 2 -34 6 -8 3 -21 -5 -29 -19z"/>
</g>
<g>
<path d="M1048 3873 c-26 -14 -45 -30 -42 -34 3 -5 24 -13 46 -20 69 -18 197
7 141 28 -10 4 -33 17 -52 30 -19 13 -37 23 -40 23 -3 0 -27 -12 -53 -27z"/>
</g>
<g>
<path d="M1757 3876 l-38 -23 31 -13 c29 -12 120 -8 143 7 10 6 -68 53 -87 53
-6 0 -28 -11 -49 -24z"/>
</g>
<g>
<path d="M1463 3848 c-6 -7 -13 -22 -17 -34 -4 -12 -23 -40 -44 -62 l-38 -41
48 -6 c26 -4 77 -4 113 0 l67 8 -37 37 c-20 21 -47 54 -59 75 -18 28 -25 34
-33 23z"/>
</g>
<g>
<path d="M2249 3679 c-160 -93 -323 -238 -402 -357 -72 -109 -117 -183 -144
-237 -88 -178 -114 -237 -133 -305 -11 -41 -28 -99 -36 -127 -17 -61 -31 -236
-16 -213 5 8 13 44 16 80 4 36 13 88 21 115 8 28 23 86 35 130 35 130 180 411
292 565 76 106 237 243 403 345 58 36 79 55 58 55 -5 0 -47 -23 -94 -51z"/>
</g>
<g>
<path d="M1975 3585 c-22 -8 -107 -30 -190 -50 -261 -63 -442 -60 -725 10
-135 33 -173 33 -132 -2 25 -22 147 -172 188 -233 17 -25 62 -103 99 -175 38
-71 79 -150 92 -175 13 -25 42 -90 64 -145 22 -55 46 -111 53 -125 8 -14 17
-42 21 -62 4 -21 13 -42 20 -48 10 -9 15 -2 20 32 13 86 49 177 151 380 129
259 204 377 312 496 49 54 81 97 76 102 -5 5 -26 2 -49 -5z m-15 -39 c0 -1
-23 -27 -51 -57 -43 -45 -159 -208 -159 -223 0 -3 -14 -29 -32 -58 -56 -94
-195 -381 -217 -448 -11 -36 -24 -83 -28 -105 -4 -26 -8 -33 -11 -20 -13 61
-118 327 -145 369 -8 12 -40 71 -72 131 -64 121 -149 256 -186 295 -35 37 -92
110 -86 110 3 0 61 -14 129 -32 119 -30 130 -32 333 -32 215 -1 304 11 455 58
45 15 70 19 70 12z"/>
<g>
<path d="M1790 3475 c-19 -7 -51 -14 -71 -14 -33 -1 -38 -5 -53 -41 -9 -22
-16 -42 -16 -45 0 -2 19 -3 41 -2 23 1 43 -3 45 -8 2 -6 -9 -25 -26 -43 -23
-26 -34 -31 -55 -26 -23 6 -25 4 -25 -28 0 -19 -7 -43 -15 -54 -8 -10 -15 -29
-15 -40 0 -34 -38 -74 -69 -74 -15 0 -32 5 -39 12 -20 20 -15 -36 6 -63 10
-13 22 -33 26 -43 8 -23 18 -14 36 34 29 76 123 220 248 384 23 30 42 58 42
61 0 8 -22 5 -60 -10z"/>
</g>
<g>
<path d="M1131 3454 c14 -16 33 -41 42 -56 12 -19 26 -28 43 -28 29 0 84 -26
84 -40 0 -6 12 -10 26 -10 l25 0 -26 23 c-16 14 -28 37 -32 62 -3 22 -11 43
-16 47 -6 3 -38 9 -71 13 -34 4 -70 9 -81 12 -18 5 -17 2 6 -23z"/>
</g>
<g>
<path d="M1346 3417 c19 -16 34 -34 34 -40 0 -7 4 -18 9 -25 6 -11 14 -8 35
11 15 14 41 27 59 30 27 5 36 1 60 -26 23 -27 29 -29 37 -17 5 8 10 20 10 27
0 6 11 24 24 40 l24 28 -163 0 -163 0 34 -28z"/>
</g>
<g>
<path d="M1626 3334 c-4 -9 -4 -19 -2 -21 8 -8 26 8 26 23 0 19 -16 18 -24 -2z"/>
</g>
<g>
<path d="M1220 3321 c0 -6 4 -12 9 -15 5 -3 28 -45 51 -93 23 -49 57 -110 75
-138 18 -27 52 -87 74 -132 23 -46 46 -83 51 -83 5 0 13 12 16 28 4 15 13 36
20 47 20 28 19 51 -1 35 -8 -7 -15 -19 -15 -26 0 -8 -4 -14 -10 -14 -5 0 -10
6 -10 13 0 7 -9 20 -20 30 -23 19 -25 37 -8 83 16 44 5 69 -23 54 -48 -26 -95
22 -69 70 8 15 6 21 -9 30 -11 6 -23 26 -27 45 -4 24 -12 35 -24 35 -9 0 -29
9 -43 20 -28 22 -37 25 -37 11z"/>
</g>
<g>
<path d="M1425 3290 c-10 -11 -13 -20 -7 -20 6 0 17 -3 26 -6 12 -5 16 0 16
20 0 31 -11 33 -35 6z"/>
</g>
<g>
<path d="M1490 3290 c0 -16 7 -20 32 -20 30 0 31 0 13 20 -10 11 -24 20 -32
20 -7 0 -13 -9 -13 -20z"/>
</g>
<g>
<path d="M1428 3232 c-33 -4 -35 -11 -8 -40 25 -26 50 -29 49 -4 -1 34 -13 47
-41 44z"/>
</g>
<g>
<path d="M1494 3226 c-3 -8 -4 -24 -2 -36 3 -19 4 -20 26 -5 28 21 30 55 2 55
-11 0 -23 -6 -26 -14z"/>
</g>
</g>
<g>
<path d="M1885 2879 c-11 -17 1 -21 15 -4 8 9 8 15 2 15 -6 0 -14 -5 -17 -11z"/>
</g>
<g>
<path d="M1966 2757 c-13 -10 -16 -16 -7 -21 6 -4 9 -11 6 -16 -3 -5 -1 -11 5
-15 5 -3 10 1 10 11 0 14 2 15 16 3 15 -12 16 -11 9 11 l-8 25 23 -20 22 -20
-3 25 c-5 30 -43 39 -73 17z"/>
</g>
<g>
<path d="M2354 2836 c-13 -10 -16 -18 -9 -25 7 -7 17 -2 32 15 24 26 9 33 -23
10z"/>
</g>
<g>
<path d="M2453 2739 c2 -31 34 -44 47 -19 14 26 5 40 -25 40 -18 0 -23 -5 -22
-21z"/>
</g>
<g>
<path d="M2351 2697 c-19 -19 -12 -24 29 -23 31 0 40 4 38 16 -4 17 -52 22
-67 7z"/>
</g>
<g>
<path d="M2517 2662 c-31 -34 -19 -54 16 -27 13 9 16 18 10 30 -8 14 -11 14
-26 -3z"/>
</g>
<g>
<path d="M2522 2608 c-8 -8 -9 -15 0 -25 9 -11 13 -10 24 4 7 10 14 21 14 26
0 11 -25 8 -38 -5z"/>
</g>
<g>
<path d="M2310 2581 c0 -28 1 -28 35 -17 37 11 51 43 15 33 -11 -3 -23 -1 -26
4 -11 18 -24 8 -24 -20z"/>
</g>
<g>
<path d="M2244 2535 c-32 -30 -28 -40 12 -25 30 12 46 29 38 42 -9 14 -22 9
-50 -17z"/>
</g>
<g>
<path d="M2232 2460 c-10 -17 -10 -20 2 -20 19 0 31 19 19 31 -5 5 -14 0 -21
-11z"/>
</g>
<g>
<path d="M2250 2415 c0 -8 7 -15 15 -15 9 0 12 6 9 15 -4 8 -10 15 -15 15 -5
0 -9 -7 -9 -15z"/>
</g>
<g>
<path d="M2407 2424 c-4 -4 -7 -20 -7 -35 0 -52 72 -102 83 -59 3 13 -1 28
-11 38 -9 9 -17 26 -17 37 0 20 -33 33 -48 19z"/>
</g>
<g>
<path d="M2170 2366 c0 -2 8 -10 18 -17 15 -13 16 -12 3 4 -13 16 -21 21 -21
13z"/>
</g>
<g>
<path d="M2130 2332 c0 -5 7 -16 16 -23 14 -12 16 -11 13 5 -4 20 -29 35 -29
18z"/>
</g>
<g>
<path d="M2335 2280 c-11 -4 -24 -5 -30 -3 -5 2 1 -5 14 -17 22 -19 26 -19 40
-6 19 20 4 37 -24 26z"/>
</g>
<g>
<path d="M2305 2219 c-4 -6 -9 -103 -11 -216 -1 -114 -7 -209 -12 -212 -15
-10 -42 -73 -36 -83 8 -12 -18 -128 -28 -128 -4 0 -8 4 -8 9 0 4 -11 7 -25 6
-14 -2 -25 1 -25 6 0 5 5 9 10 9 6 0 10 7 10 16 0 11 -5 14 -16 10 -9 -3 -18
-6 -20 -6 -2 0 -4 -9 -4 -21 0 -14 -5 -19 -15 -16 -8 4 -17 2 -20 -2 -7 -12
39 -41 65 -41 11 0 20 -4 20 -9 0 -14 -79 -81 -95 -81 -8 0 -15 -7 -15 -15 0
-11 7 -14 25 -9 19 5 25 2 25 -10 0 -28 1 -31 15 -39 16 -8 45 1 45 15 0 5 6
6 13 2 8 -6 8 -3 -1 9 -8 9 -11 21 -7 28 6 8 2 8 -13 0 -39 -21 -36 9 6 52 46
48 82 111 83 147 1 14 5 36 9 50 4 14 6 -20 3 -75 -4 -77 -10 -105 -24 -120
-9 -11 -23 -41 -30 -68 -6 -26 -24 -65 -40 -86 -23 -33 -26 -41 -14 -51 9 -7
15 -8 20 0 3 5 3 10 0 10 -4 0 3 13 14 29 12 16 30 49 41 73 l20 43 -5 -80
c-11 -164 -25 -323 -35 -405 -5 -47 -12 -125 -15 -175 -3 -49 -8 -115 -11
-147 -3 -36 -1 -59 6 -63 6 -4 14 -5 16 -2 3 3 10 68 14 144 5 76 16 194 24
263 9 69 22 214 30 322 12 170 16 200 34 223 18 23 19 28 6 54 -11 23 -13 65
-9 207 2 99 4 197 5 218 0 37 1 38 18 23 14 -13 21 -14 30 -5 16 16 15 39 0
36 -9 -2 -12 7 -10 25 2 21 -1 27 -18 27 -18 0 -20 6 -20 60 0 56 -10 75 -25
49z"/>
</g>
<g>
<path d="M2413 2203 c-20 -7 -15 -58 8 -79 17 -16 22 -16 29 -4 14 21 12 36
-5 50 -8 7 -13 16 -10 20 7 11 -7 19 -22 13z"/>
</g>
<g>
<path d="M1970 2036 c0 -11 33 -36 41 -30 10 6 -14 34 -30 34 -6 0 -11 -2 -11
-4z"/>
</g>
<g>
<path d="M2452 2018 c-14 -14 -16 -54 -3 -63 5 -3 13 0 17 7 5 8 10 4 15 -10
13 -36 27 -25 25 19 -3 50 -28 73 -54 47z"/>
</g>
<g>
<path d="M2186 1981 c-8 -13 5 -72 15 -66 4 3 10 1 14 -5 9 -15 25 -2 25 22 0
14 -5 18 -15 14 -10 -3 -15 1 -15 14 0 21 -16 35 -24 21z"/>
</g>
<g>
<path d="M2346 1919 c-7 -35 2 -79 15 -79 15 0 23 30 10 43 -16 16 -14 47 4
47 8 0 15 5 15 10 0 6 -8 10 -19 10 -13 0 -20 -10 -25 -31z"/>
</g>
<g>
<path d="M1895 1909 c-4 -6 -3 -15 3 -21 6 -6 11 -4 15 6 7 18 -9 31 -18 15z"/>
</g>
<g>
<path d="M2040 1905 c0 -2 6 -8 13 -14 10 -8 14 -7 14 2 0 8 -6 14 -14 14 -7
0 -13 -1 -13 -2z"/>
</g>
<g>
<path d="M1920 1877 c0 -19 16 -31 24 -18 3 5 -1 14 -9 21 -12 10 -15 10 -15
-3z"/>
</g>
<g>
<path d="M2006 1763 c-3 -4 -6 -17 -6 -30 0 -16 6 -23 20 -23 12 0 20 7 20 16
0 18 -25 46 -34 37z"/>
</g>
<g>
<path d="M2363 1733 c-18 -38 -16 -59 8 -82 18 -17 24 -18 35 -6 18 18 18 25
-1 25 -17 0 -20 16 -5 25 15 10 12 25 -6 25 -11 0 -14 6 -9 20 9 30 -8 24 -22
-7z"/>
</g>
<g>
<path d="M1850 1658 c0 -7 11 -36 24 -64 13 -28 27 -70 31 -93 5 -32 11 -41
22 -37 8 3 17 6 19 6 7 0 4 36 -4 46 -5 5 -17 32 -27 59 -21 57 -43 95 -56 95
-5 0 -9 -6 -9 -12z"/>
</g>
<g>
<path d="M1790 1624 c0 -32 11 -79 31 -134 66 -189 71 -199 106 -231 38 -34
79 -59 98 -59 26 0 0 37 -40 56 -44 20 -98 104 -89 138 4 17 -2 31 -20 51 -14
15 -26 31 -26 34 -2 55 -22 134 -39 152 l-21 23 0 -30z"/>
</g>
<g>
<path d="M2016 1511 c-4 -7 -5 -15 -2 -18 9 -9 19 4 14 18 -4 11 -6 11 -12 0z"/>
</g>
<g>
<path d="M2040 1500 c0 -26 12 -31 34 -14 22 16 19 23 -13 29 -15 3 -21 -1
-21 -15z"/>
</g>
<g>
<path d="M2352 1487 c-14 -16 -2 -69 18 -75 9 -3 11 1 6 13 -3 10 -1 24 5 32
10 11 9 17 -3 29 -12 13 -17 13 -26 1z"/>
</g>
<g>
<path d="M1960 1461 c0 -14 82 -71 102 -71 30 0 21 14 -31 48 -51 33 -71 39
-71 23z"/>
</g>
<g>
<path d="M2444 1409 c-5 -9 -17 -18 -26 -22 -22 -8 -23 -29 -3 -67 18 -34 21
-35 41 -16 15 15 18 68 5 101 -7 16 -9 17 -17 4z"/>
</g>
<g>
<path d="M2017 1333 c-2 -5 -3 -21 -3 -38 1 -39 45 -58 74 -32 10 9 22 14 27
10 4 -5 5 -2 1 5 -4 6 -14 12 -22 12 -8 0 -14 5 -14 11 0 6 -9 9 -20 6 -20 -5
-45 15 -33 26 3 4 4 7 0 7 -3 0 -8 -3 -10 -7z"/>
</g>
<g>
<path d="M2334 1225 c-7 -40 5 -61 30 -52 25 10 32 56 11 75 -13 13 -16 13 -9
2 7 -13 5 -13 -8 -2 -15 12 -18 9 -24 -23z"/>
</g>
<g>
<path d="M1875 1227 c-4 -10 -5 -21 -1 -24 10 -10 18 4 13 24 -4 17 -4 17 -12
0z"/>
</g>
<g>
<path d="M2150 1187 c0 -18 21 -37 40 -37 9 0 16 8 16 20 0 10 -2 17 -4 15 -2
-2 -15 0 -28 5 -18 7 -24 6 -24 -3z"/>
</g>
<g>
<path d="M1910 1180 c0 -5 5 -10 10 -10 6 0 10 5 10 10 0 6 -4 10 -10 10 -5 0
-10 -4 -10 -10z"/>
</g>
<g>
<path d="M2032 1134 c4 -21 22 -23 26 -1 2 10 -3 17 -13 17 -10 0 -15 -6 -13
-16z"/>
</g>
<g>
<path d="M2405 1127 c-7 -25 7 -71 25 -82 16 -10 18 -6 26 53 6 51 6 52 -20
52 -18 0 -27 -6 -31 -23z"/>
</g>
<g>
<path d="M2015 1081 c-6 -11 20 -33 28 -24 4 3 7 10 7 14 0 11 -29 19 -35 10z"/>
</g>
<g>
<path d="M2300 1036 c-14 -14 -13 -82 3 -93 6 -5 19 -9 27 -9 15 1 17 20 5 66
-6 23 -5 24 8 8 17 -21 81 -25 74 -5 -2 6 -14 12 -26 12 -12 0 -26 7 -31 15
-10 17 -45 21 -60 6z"/>
</g>
<g>
<path d="M1880 1031 c0 -13 50 -44 58 -36 4 4 -4 15 -17 26 -25 20 -41 24 -41
10z"/>
</g>
<g>
<path d="M2116 928 c3 -5 10 -6 15 -3 13 9 11 12 -6 12 -8 0 -12 -4 -9 -9z"/>
</g>
<g>
<path d="M2402 918 c-17 -17 -14 -59 6 -86 17 -21 19 -22 32 -7 10 12 10 19 2
27 -13 13 -16 49 -4 47 19 -3 23 2 12 16 -15 18 -32 19 -48 3z"/>
</g>
<g>
<path d="M2056 881 c-4 -5 -2 -12 3 -15 5 -4 12 -2 15 3 4 5 2 12 -3 15 -5 4
-12 2 -15 -3z"/>
</g>
<g>
<path d="M2280 820 c-6 -11 -7 -80 -1 -81 3 0 16 -2 29 -5 28 -5 30 19 3 38
-10 7 -21 22 -24 33 -2 11 -6 18 -7 15z"/>
</g>
<g>
<path d="M2117 754 c-8 -8 1 -24 14 -24 5 0 9 7 9 15 0 15 -12 20 -23 9z"/>
</g>
<g>
<path d="M2392 680 c-12 -20 -4 -70 12 -70 15 0 39 39 41 66 1 25 -38 28 -53
4z"/>
</g>
<g>
<path d="M2082 598 c5 -14 65 -47 87 -48 9 0 4 11 -14 30 -29 30 -81 42 -73
18z"/>
</g>
<g>
<path d="M2271 597 c-15 -15 -14 -25 10 -64 17 -27 24 -31 35 -22 8 6 14 20
14 31 0 17 -3 18 -15 8 -12 -10 -15 -10 -15 3 0 9 5 19 11 22 5 4 8 12 6 18
-4 14 -33 17 -46 4z"/>
</g>
<g>
<path d="M2375 473 c-9 -13 -13 -32 -10 -42 7 -22 42 -34 52 -19 3 7 1 8 -5 4
-7 -4 -12 -3 -12 3 0 5 5 13 10 16 6 3 10 19 10 34 0 35 -24 37 -45 4z"/>
</g>
<g>
<path d="M797 2294 c-10 -11 -9 -44 2 -44 15 0 19 13 12 33 -4 10 -10 15 -14
11z"/>
</g>
<g>
<path d="M730 2241 c0 -12 54 -51 69 -51 20 0 11 20 -14 32 -14 6 -25 15 -25
20 0 4 -7 8 -15 8 -8 0 -15 -4 -15 -9z"/>
</g>
<g>
<path d="M620 2211 c0 -9 52 -22 60 -15 7 7 -23 24 -42 24 -10 0 -18 -4 -18
-9z"/>
</g>
<g>
<path d="M515 2170 c-7 -12 2 -30 16 -30 5 0 9 9 9 20 0 21 -15 27 -25 10z"/>
</g>
<g>
<path d="M642 2159 c2 -7 10 -15 17 -17 8 -3 12 1 9 9 -2 7 -10 15 -17 17 -8
3 -12 -1 -9 -9z"/>
</g>
<g>
<path d="M1975 2380 c3 -5 8 -10 11 -10 2 0 4 5 4 10 0 6 -5 10 -11 10 -5 0
-7 -4 -4 -10z"/>
</g>
<g>
<path d="M1964 2345 c-3 -8 -3 -19 1 -25 11 -18 25 -11 25 15 0 27 -17 34 -26
10z"/>
</g>
<g>
<path d="M1922 2323 c4 -39 28 -42 28 -4 0 21 -5 31 -16 31 -11 0 -14 -8 -12
-27z"/>
</g>
<g>
<path d="M1010 2155 c0 -25 5 -45 10 -45 6 0 10 3 11 8 8 61 7 82 -7 82 -10 0
-14 -12 -14 -45z"/>
</g>
<g>
<path d="M1007 2043 c-10 -10 -8 -123 2 -123 12 0 21 37 21 88 0 39 -8 51 -23
35z"/>
</g>
<g>
<path d="M65 2190 c-7 -12 -24 -470 -18 -487 14 -38 21 6 27 188 4 111 9 225
11 255 4 49 -5 68 -20 44z"/>
</g>
<g>
<path d="M55 1363 c4 -137 9 -291 11 -343 2 -52 3 -116 4 -142 0 -29 4 -48 12
-48 8 0 9 48 4 183 -3 100 -9 275 -13 390 -4 127 -10 207 -16 207 -7 0 -7 -84
-2 -247z"/>
</g>
<g>
<path d="M202 2174 c4 -21 22 -23 26 -1 2 10 -3 17 -13 17 -10 0 -15 -6 -13
-16z"/>
</g>
<g>
<path d="M1882 2093 c15 -15 31 -23 35 -19 4 4 -3 16 -17 26 -37 29 -49 24
-18 -7z"/>
</g>
<g>
<path d="M1768 2083 c7 -3 16 -2 19 1 4 3 -2 6 -13 5 -11 0 -14 -3 -6 -6z"/>
</g>
<g>
<path d="M1840 2050 c-14 -11 -20 -20 -14 -20 7 0 22 9 35 20 31 25 12 26 -21
0z"/>
</g>
<g>
<path d="M1581 1984 c-24 -27 -31 -44 -29 -67 3 -29 7 -32 43 -37 36 -5 38 -6
20 -17 -18 -11 -18 -12 -2 -13 9 0 17 4 17 10 0 5 12 16 28 25 l27 15 -37 -6
c-38 -6 -78 2 -78 16 0 4 9 6 20 3 26 -7 90 5 90 17 0 5 -6 15 -14 23 -9 9
-11 19 -5 28 13 21 11 29 -6 23 -8 -4 -15 -12 -15 -20 0 -16 -9 -18 -30 -4
-13 9 -13 11 0 19 8 6 12 13 9 16 -4 3 -21 -11 -38 -31z m16 -19 c-4 -8 -2
-17 3 -20 13 -8 13 -25 0 -25 -5 0 -10 7 -10 16 0 8 -4 12 -10 9 -14 -9 -13 8
2 23 16 16 21 15 15 -3z m58 -25 c3 -5 -1 -10 -10 -10 -9 0 -13 5 -10 10 3 6
8 10 10 10 2 0 7 -4 10 -10z"/>
</g>
<g>
<path d="M1860 2001 c0 -5 5 -13 10 -16 6 -3 10 -2 10 4 0 5 -4 13 -10 16 -5
3 -10 2 -10 -4z"/>
</g>
<g>
<path d="M1438 1465 c-8 -8 2 -45 13 -45 10 0 10 8 0 33 -3 10 -9 15 -13 12z"/>
</g>
<g>
<path d="M1456 1391 c-4 -5 -2 -12 3 -15 5 -4 12 -2 15 3 4 5 2 12 -3 15 -5 4
-12 2 -15 -3z"/>
</g>
<g>
<path d="M1705 900 c-3 -5 -2 -10 4 -10 5 0 13 5 16 10 3 6 2 10 -4 10 -5 0
-13 -4 -16 -10z"/>
</g>
<g>
<path d="M1705 870 c-3 -5 1 -10 9 -10 9 0 16 5 16 10 0 6 -4 10 -9 10 -6 0
-13 -4 -16 -10z"/>
</g>
<g>
<path d="M1175 1110 c-19 -7 -19 -7 4 -19 23 -13 71 -7 71 8 0 5 -9 11 -20 14
-11 3 -18 1 -14 -4 3 -5 1 -9 -5 -9 -5 0 -11 4 -13 9 -1 4 -12 5 -23 1z"/>
</g>
<g>
<path d="M365 640 c-3 -5 5 -16 18 -25 19 -12 30 -13 51 -5 30 11 27 31 -3 23
-10 -3 -28 0 -39 6 -13 7 -23 7 -27 1z"/>
</g>
<g>
<path d="M2664 758 c-3 -4 21 -8 52 -8 32 0 55 3 51 6 -9 9 -98 11 -103 2z"/>
</g>
<g>
<path d="M2670 640 c0 -5 5 -10 10 -10 6 0 10 5 10 10 0 6 -4 10 -10 10 -5 0
-10 -4 -10 -10z"/>
</g>
<g>
<path d="M2789 520 c-9 -5 -20 -27 -24 -47 -4 -21 -10 -32 -12 -25 -3 6 -14
12 -25 12 -25 0 -19 -24 8 -28 34 -7 38 -21 10 -32 -31 -12 -30 -33 2 -38 21
-3 32 -22 13 -22 -10 0 -25 -50 -17 -58 3 -2 12 1 21 8 13 11 15 2 15 -74 0
-73 2 -86 17 -86 14 0 15 11 10 100 l-6 100 57 1 c31 1 63 1 70 0 9 -2 12 6
10 21 -3 21 -9 23 -70 26 -78 3 -91 19 -20 25 l47 3 -47 2 c-71 3 -58 22 14
22 34 0 58 3 55 7 -4 3 -35 5 -69 4 -34 -1 -59 1 -56 4 3 4 20 7 37 7 44 1 39
18 -6 19 l-38 1 40 12 c22 7 40 19 40 27 0 17 -53 23 -76 9z m46 -10 c3 -5 -3
-10 -15 -10 -12 0 -18 5 -15 10 3 6 10 10 15 10 5 0 12 -4 15 -10z m83 -151
c-2 -6 -7 -10 -11 -10 -4 1 -29 1 -57 1 -27 0 -50 5 -50 10 0 6 27 10 61 10
39 0 59 -4 57 -11z"/>
</g>
<g>
<path d="M2820 300 c0 -5 6 -10 14 -10 8 0 18 5 21 10 3 6 -3 10 -14 10 -12 0
-21 -4 -21 -10z"/>
</g>
<g>
<path d="M1965 492 c11 -12 131 -19 142 -9 3 4 -7 7 -24 7 -17 0 -52 3 -79 6
-34 5 -46 3 -39 -4z"/>
</g>
</g>
<g>
<path d="M1125 670 c-4 -6 7 -10 25 -10 18 0 29 4 25 10 -3 6 -15 10 -25 10
-10 0 -22 -4 -25 -10z"/>
</g>
<g>
<path d="M1040 646 c0 -9 40 -13 46 -5 3 5 -6 9 -20 9 -14 0 -26 -2 -26 -4z"/>
</g>
<g>
<path d="M1104 612 c4 -7 24 -12 44 -12 20 0 54 -4 75 -9 21 -5 50 -6 65 -2
21 6 12 9 -43 15 -38 4 -88 10 -109 13 -28 4 -37 3 -32 -5z"/>
</g>
<g>
<path d="M1010 581 c0 -5 11 -8 25 -8 14 0 25 3 25 8 0 5 -11 9 -25 9 -14 0
-25 -4 -25 -9z"/>
</g>
<g>
<path d="M1170 560 c20 -13 90 -13 90 0 0 6 -24 10 -52 10 -38 0 -49 -3 -38
-10z"/>
</g>
<g>
<path d="M1240 530 c0 -5 9 -10 20 -10 11 0 20 5 20 10 0 6 -9 10 -20 10 -11
0 -20 -4 -20 -10z"/>
</g>
<g>
<path d="M1170 270 c-24 -5 -28 -8 -12 -9 13 0 20 -5 17 -11 -4 -6 17 -10 57
-9 54 1 58 3 28 9 -31 7 -32 7 -7 9 15 0 27 6 27 11 0 11 -57 11 -110 0z"/>
</g>
<g>
<path d="M1175 220 c-3 -5 1 -10 10 -10 9 0 13 5 10 10 -3 6 -8 10 -10 10 -2
0 -7 -4 -10 -10z"/>
</g>
<g>
<path d="M20 160 c0 -5 4 -10 9 -10 6 0 13 5 16 10 3 6 -1 10 -9 10 -9 0 -16
-4 -16 -10z"/>
</g>
<g>
<path d="M1406 161 c-5 -7 11 -11 48 -11 30 0 58 -4 61 -10 8 -12 165 -13 165
-1 0 5 -51 12 -112 15 -62 4 -123 10 -134 13 -12 2 -25 0 -28 -6z"/>
</g>
<g>
<path d="M535 140 c-4 -6 15 -10 49 -10 31 0 56 5 56 10 0 6 -22 10 -49 10
-28 0 -53 -4 -56 -10z"/>
</g>
<g>
<path d="M468 133 c7 -3 16 -2 19 1 4 3 -2 6 -13 5 -11 0 -14 -3 -6 -6z"/>
</g>
<g>
<path d="M173 113 c15 -2 37 -2 50 0 12 2 0 4 -28 4 -27 0 -38 -2 -22 -4z"/>
</g>
<g>
<path d="M143 83 c37 -2 96 -2 130 0 34 2 4 3 -68 3 -72 0 -99 -1 -62 -3z"/>
</g>
<g>
<path d="M1265 70 c11 -5 34 -9 50 -10 l30 -2 -35 -8 c-19 -5 -63 -8 -98 -8
-35 0 -66 -3 -69 -6 -4 -3 36 -6 88 -6 61 0 99 4 107 12 9 9 15 9 24 0 7 -7
28 -12 48 -11 l35 1 -31 8 c-65 15 -72 23 -29 30 29 5 16 7 -50 8 -58 0 -83
-2 -70 -8z"/>
</g>
<g>
<path d="M2170 69 c0 -5 5 -7 10 -4 6 3 10 8 10 11 0 2 -4 4 -10 4 -5 0 -10
-5 -10 -11z"/>
</g>
<g>
<path d="M337 40 c-81 -4 -151 -11 -155 -15 -4 -4 29 -5 73 -2 44 4 131 6 193
7 68 0 112 4 112 10 0 6 -17 9 -37 8 -21 0 -105 -4 -186 -8z"/>
</g>
<g>
<path d="M849 45 c-3 -2 -52 -5 -109 -6 -79 -1 -99 -4 -80 -11 15 -6 70 -7
135 -2 61 4 131 7 157 8 81 3 65 16 -19 16 -44 0 -82 -2 -84 -5z"/>
</g>
<g>
<path d="M1465 40 c-15 -7 -10 -9 23 -9 23 -1 42 4 42 9 0 12 -37 12 -65 0z"/>
</g>
<g>
<path d="M78 3 c18 -2 45 -2 60 0 15 2 0 4 -33 4 -33 0 -45 -2 -27 -4z"/>
</g>
<g>
<path d="M683 3 c9 -2 23 -2 30 0 6 3 -1 5 -18 5 -16 0 -22 -2 -12 -5z"/>
</g>
</g>
</svg>
