<?xml version="1.0" standalone="no"?>
<!DOCTYPE svg PUBLIC "-//W3C//DTD SVG 20010904//EN"
 "http://www.w3.org/TR/2001/REC-SVG-20010904/DTD/svg10.dtd">
<svg version="1.0" xmlns="http://www.w3.org/2000/svg"
 width="300.000000pt" height="530.000000pt" viewBox="0 0 300.000000 530.000000"
 preserveAspectRatio="xMidYMid meet">
<metadata>
Created by potrace 1.15, written by Peter Selinger 2001-2017
</metadata>
<g transform="translate(0.000000,530.000000) scale(0.100000,-0.100000)"
fill="#000000" stroke="none">
<g>
<path d="M23 5287 c-4 -6 -8 -253 -9 -547 -2 -581 -6 -4602 -5 -4687 l1 -52
1423 6 c782 4 1455 7 1496 7 l73 1 -5 2595 c-4 1427 -7 2616 -9 2643 l-3 47
-1477 0 c-1158 0 -1479 -3 -1485 -13z m2947 -392 c0 -214 3 -464 7 -555 8
-181 6 -3160 -2 -3168 -3 -3 -47 -6 -98 -7 -56 -2 -109 -9 -136 -19 -24 -9
-66 -15 -93 -15 l-48 2 0 96 c0 53 5 164 10 246 5 83 10 209 10 280 1 72 6
184 11 250 5 66 9 293 9 504 0 344 2 387 17 403 24 26 32 174 10 191 -10 8
-17 40 -21 100 l-7 87 35 21 c20 12 36 25 36 30 0 5 9 9 20 9 27 0 38 29 17
45 -13 9 -15 21 -11 43 5 24 2 33 -10 38 -22 8 -44 -12 -48 -44 -2 -16 -9 -27
-18 -27 -8 0 -13 7 -11 15 2 8 3 24 2 35 -10 74 3 859 15 921 5 28 2 40 -17
60 -12 13 -33 24 -46 24 -20 0 -23 5 -23 34 0 19 -4 38 -10 41 -18 11 -10 22
21 29 40 8 37 42 -4 39 -37 -2 -34 13 3 21 17 3 33 12 36 21 9 21 -14 45 -42
45 -19 0 -24 5 -24 24 0 13 -7 29 -15 36 -24 20 -39 -2 -40 -55 0 -24 -6 -50
-12 -57 -27 -26 -14 -43 30 -39 13 2 17 -5 17 -28 0 -16 5 -33 10 -36 16 -10
12 -75 -5 -75 -8 0 -19 -9 -25 -19 -11 -22 -14 -84 -3 -95 20 -19 13 -516 -7
-516 -5 0 -16 8 -25 17 -16 16 -16 18 5 35 30 24 19 58 -19 58 -16 0 -34 7
-41 15 -21 25 -30 17 -30 -25 0 -35 4 -42 28 -52 l27 -11 -25 -6 c-20 -5 -25
-13 -25 -36 0 -36 27 -45 55 -20 10 9 27 14 37 11 17 -5 18 -25 15 -383 -2
-208 -7 -380 -12 -383 -4 -3 -11 -24 -15 -47 -3 -23 -13 -44 -22 -47 -18 -7
-202 13 -225 25 -14 7 -15 22 -12 101 5 111 7 118 34 118 12 0 18 4 15 10 -3
5 -1 19 5 31 11 20 12 20 31 3 16 -14 24 -15 44 -6 14 6 25 15 25 20 0 11 -36
49 -51 54 -8 3 -8 14 0 43 15 54 14 75 -3 75 -16 0 -66 -56 -66 -74 0 -7 -7
-21 -16 -32 -14 -17 -15 3 -7 226 4 135 8 315 9 400 2 156 4 181 18 212 13 30
3 63 -21 66 -13 2 -23 10 -23 17 0 10 9 12 35 8 30 -5 35 -3 35 14 0 20 -47
53 -67 46 -8 -3 -13 4 -13 19 -1 30 -34 73 -49 63 -21 -12 -33 -56 -20 -71 9
-11 6 -16 -15 -24 -33 -12 -33 -35 -1 -56 20 -13 28 -14 40 -4 22 18 31 4 15
-25 -15 -28 -4 -50 11 -22 11 18 59 24 59 7 0 -5 -9 -10 -20 -10 -15 0 -20 -7
-21 -27 0 -16 -2 -41 -4 -58 -2 -16 0 -34 4 -40 5 -5 9 -32 9 -60 1 -39 -1
-46 -9 -32 -5 9 -11 32 -12 50 -5 73 -44 69 -44 -6 0 -30 5 -46 19 -55 12 -9
17 -21 13 -32 -4 -12 1 -19 15 -23 11 -3 20 -12 20 -20 0 -10 -7 -13 -20 -10
-11 3 -20 0 -20 -6 0 -6 9 -11 20 -11 22 0 28 -26 8 -33 -10 -3 -10 -7 0 -19
8 -10 9 -17 3 -20 -6 -2 -7 -17 -1 -41 6 -30 5 -40 -6 -44 -9 -3 -13 -12 -10
-19 3 -8 -1 -14 -9 -14 -19 0 -19 0 1 -40 14 -26 14 -34 3 -41 -11 -6 -10 -12
5 -28 19 -21 19 -21 -2 -21 -29 0 -28 -14 1 -27 l22 -11 -25 -10 -25 -10 24
-9 c16 -6 20 -12 13 -17 -7 -4 -12 -14 -12 -22 0 -8 -9 -23 -21 -35 -24 -24
-21 -43 9 -47 28 -4 29 -22 2 -22 -31 0 -24 -20 8 -21 l27 -2 -27 -4 c-35 -5
-36 -19 -3 -27 25 -6 25 -6 5 -26 -11 -11 -24 -20 -30 -20 -5 0 -10 -7 -10
-15 0 -9 6 -12 15 -9 8 4 15 10 15 15 0 5 7 9 15 9 24 0 17 -29 -9 -36 -31 -7
-56 -75 -36 -99 7 -8 21 -15 31 -15 25 0 24 -16 -1 -23 -11 -3 -20 -10 -20
-16 0 -6 9 -11 20 -11 11 0 20 -4 20 -10 0 -5 -9 -10 -20 -10 -28 0 -25 -30 3
-31 21 -2 21 -2 1 -6 -20 -4 -21 -11 -23 -103 -1 -95 0 -99 21 -103 22 -3 21
-4 -7 -17 l-30 -14 28 -4 c30 -4 28 -22 -3 -22 -16 0 -18 -6 -14 -37 2 -21 11
-41 19 -46 9 -4 13 -13 10 -18 -4 -5 -11 -7 -16 -4 -5 4 -9 0 -9 -8 0 -8 -7
-17 -15 -21 -17 -6 -20 -42 -4 -52 8 -4 8 -9 0 -17 -17 -17 -13 -45 9 -57 11
-6 20 -8 20 -4 0 4 3 4 7 1 3 -4 -2 -13 -11 -20 -14 -10 -17 -21 -11 -45 3
-18 12 -32 18 -33 7 0 -1 -7 -18 -14 -25 -11 -27 -14 -12 -20 16 -7 16 -8 1
-20 -15 -11 -14 -13 12 -20 29 -7 29 -7 6 -16 -13 -5 -20 -14 -17 -20 4 -5 7
-26 7 -45 0 -19 5 -34 11 -34 6 0 2 -7 -9 -15 -17 -14 -18 -16 -3 -28 14 -10
14 -14 3 -25 -20 -18 -17 -27 8 -39 l23 -10 -24 -12 c-12 -7 -24 -11 -26 -9
-2 2 -6 53 -8 113 -3 61 -8 118 -12 128 -4 9 -4 30 0 45 4 15 6 38 5 52 -6 94
-5 701 2 915 9 295 20 413 40 427 10 7 10 11 1 15 -15 6 -17 33 -3 33 18 0 12
78 -7 89 -16 8 -18 28 -20 155 -1 120 2 147 15 158 8 7 17 12 19 11 1 -2 4 0
6 5 1 4 -8 8 -20 10 -40 6 -46 -26 -41 -229 4 -156 2 -187 -9 -178 -7 7 -13
16 -13 22 0 21 -33 97 -42 97 -16 0 -38 -67 -32 -97 5 -24 1 -30 -24 -41 -56
-24 -37 -72 28 -72 11 0 20 -6 20 -13 0 -8 9 -22 20 -32 11 -10 20 -26 20 -36
0 -10 9 -23 20 -29 10 -6 17 -16 14 -23 -4 -11 -10 -197 -13 -404 -1 -83 -1
-83 -28 -83 -14 0 -34 -7 -44 -16 -17 -15 -24 -14 -96 16 -43 18 -82 36 -88
40 -5 4 -32 13 -60 20 -27 8 -52 16 -55 19 -24 29 -65 41 -142 41 -46 0 -93 3
-106 7 -30 7 -49 53 -29 65 8 4 18 20 21 34 4 15 16 34 26 43 18 15 19 21 8
82 l-12 66 -20 -23 c-32 -35 -129 -65 -231 -71 -49 -3 -93 -11 -97 -17 -5 -6
-6 -22 -3 -36 3 -15 -1 -34 -9 -45 -23 -31 -19 -42 15 -40 21 1 35 -4 42 -17
7 -10 23 -18 40 -18 16 0 26 -4 22 -10 -3 -5 -16 -10 -27 -10 -26 0 -178 -50
-197 -64 -34 -27 -71 -69 -71 -83 0 -27 -76 -184 -139 -288 l-36 -60 -7 -304
c-5 -195 -12 -317 -20 -340 -7 -20 -11 -40 -9 -46 2 -5 5 -202 8 -437 l5 -428
-24 -9 c-13 -5 -45 -10 -70 -12 l-47 -4 -5 405 c-6 417 -6 913 -1 1338 2 238
3 243 24 259 17 11 21 21 17 39 -6 24 -6 24 44 19 27 -3 50 -4 50 -1 0 3 -5
17 -10 31 -8 20 -15 25 -30 20 -11 -3 -20 -2 -20 3 0 5 9 12 20 15 16 4 20 14
20 51 0 25 -5 46 -10 46 -21 0 -60 -33 -60 -49 0 -12 -7 -17 -22 -16 l-22 2 0
249 c0 373 14 811 29 901 5 29 4 48 -5 58 -10 12 -10 15 1 15 8 0 20 4 28 9
17 11 -2 51 -24 51 -8 0 -15 9 -15 20 0 29 -21 70 -37 70 -7 0 -16 -13 -19
-29 -4 -20 -14 -31 -30 -35 -17 -5 -24 -13 -24 -32 0 -21 4 -25 23 -22 34 4
32 -12 -5 -31 l-33 -16 -5 -125 c-2 -69 -3 -209 -2 -312 1 -104 0 -188 -2
-188 -26 0 -56 23 -56 43 0 13 -9 32 -20 42 -19 17 -20 17 -29 -9 -6 -15 -18
-26 -29 -26 -10 0 -27 -6 -37 -14 -19 -14 -19 -15 -1 -35 11 -12 27 -21 38
-21 13 0 18 -8 18 -31 0 -27 3 -30 23 -23 32 10 47 24 47 45 0 28 24 23 41 -8
11 -21 14 -88 12 -362 -1 -185 -3 -709 -5 -1166 -2 -456 -5 -910 -6 -1007 l-2
-178 -82 0 c-46 0 -111 7 -145 15 -56 13 -71 13 -134 0 -38 -8 -77 -15 -84
-15 -13 0 -14 288 -9 2078 4 1142 8 2079 11 2081 2 3 117 4 256 3 139 0 272 2
297 6 25 4 568 7 1207 7 l1162 1 1 -391z m-433 -207 c-3 -7 -5 -2 -5 12 0 14
2 19 5 13 2 -7 2 -19 0 -25z m73 -34 c0 -11 -5 -14 -16 -10 -9 3 -20 6 -25 6
-6 0 -7 5 -4 10 10 16 45 12 45 -6z m-3 -70 c-3 -3 -12 -4 -19 -1 -8 3 -5 6 6
6 11 1 17 -2 13 -5z m-1988 -129 c0 -26 -14 -61 -28 -72 -14 -12 -14 -14 3
-28 17 -13 18 -15 3 -15 -21 0 -21 -13 -2 -76 8 -27 14 -60 14 -74 -1 -20 -2
-21 -6 -5 -10 42 -57 59 -68 25 -4 -11 -11 -18 -16 -14 -5 3 -7 9 -5 12 13 22
25 166 16 209 -11 61 4 78 55 60 19 -7 34 -16 34 -22z m1969 -41 c9 -19 17
-24 32 -19 17 5 20 2 20 -20 0 -21 -4 -26 -22 -25 -51 4 -58 1 -50 -22 4 -13
7 -34 7 -48 -1 -19 6 -27 25 -31 l25 -6 -24 -10 -23 -9 26 -17 c31 -21 34 -43
5 -50 -12 -3 -18 -10 -15 -16 4 -5 2 -12 -4 -16 -5 -3 -10 -13 -10 -21 0 -11
7 -13 26 -8 20 5 25 3 22 -7 -3 -8 -16 -14 -29 -14 -14 0 -25 -6 -25 -15 -4
-44 -8 -24 -16 80 -5 63 -8 136 -8 162 0 25 -4 49 -10 53 -8 5 -7 11 1 21 9
11 9 18 1 26 -6 6 -8 17 -5 24 9 23 39 16 51 -12z m-400 -80 c-10 -10 -28 6
-28 24 0 15 1 15 17 -1 9 -9 14 -19 11 -23z m62 -54 c0 -5 -4 -10 -10 -10 -5
0 -10 5 -10 10 0 6 5 10 10 10 6 0 10 -4 10 -10z m-90 -10 c0 -5 -7 -10 -16
-10 -8 0 -12 5 -9 10 3 6 10 10 16 10 5 0 9 -4 9 -10z m-1587 -84 c4 -10 1
-13 -8 -9 -8 3 -12 9 -9 14 7 12 11 11 17 -5z m31 -60 c-3 -14 -12 -26 -20
-26 -8 0 -14 -4 -14 -10 0 -5 7 -10 15 -10 8 0 15 -4 15 -10 0 -5 -7 -10 -15
-10 -20 0 -19 -17 3 -29 14 -8 15 -13 5 -29 -7 -12 -8 -23 -3 -28 14 -14 0
-84 -16 -84 -23 0 -27 -21 -4 -27 l23 -6 -23 -17 c-22 -16 -22 -19 -7 -49 8
-17 12 -33 7 -36 -13 -8 -9 -75 4 -75 9 0 12 -24 10 -87 -1 -59 -5 -87 -13
-85 -21 4 -11 -26 12 -33 22 -7 22 -7 -5 -18 -33 -13 -37 -27 -8 -27 11 0 20
-4 20 -10 0 -5 -9 -10 -20 -10 -11 0 -20 -4 -20 -10 0 -5 9 -10 19 -10 28 0
37 -20 12 -27 -12 -3 -21 -11 -21 -19 0 -8 6 -11 15 -8 10 4 15 0 15 -15 0
-12 -6 -21 -15 -21 -19 0 -19 -19 0 -26 17 -7 20 -40 5 -49 -5 -3 -10 -11 -10
-16 0 -6 4 -7 10 -4 5 3 10 -1 10 -9 0 -9 -4 -16 -10 -16 -5 0 -10 -7 -10 -15
0 -8 5 -15 11 -15 8 0 7 -5 -2 -16 -10 -13 -10 -17 2 -25 12 -8 11 -11 -3 -23
-22 -16 -23 -26 -3 -26 8 0 15 -7 15 -15 0 -8 -6 -15 -14 -15 -24 0 -29 -20
-10 -36 17 -14 17 -15 2 -10 -25 7 -33 -12 -14 -33 15 -17 15 -19 1 -25 -26
-9 -7 -27 23 -21 l27 5 -27 -11 c-35 -13 -36 -29 -3 -29 16 0 25 -6 25 -15 0
-8 -7 -15 -15 -15 -8 0 -15 -7 -15 -15 0 -8 7 -15 15 -15 8 0 15 -4 15 -10 0
-5 -9 -10 -20 -10 -15 0 -20 -7 -20 -25 0 -16 6 -25 15 -25 8 0 15 -4 15 -10
0 -5 -9 -10 -20 -10 -11 0 -20 -5 -20 -11 0 -6 9 -13 20 -16 23 -6 27 -23 5
-23 -21 0 -19 -20 3 -21 16 -1 16 -2 0 -6 -23 -6 -23 -33 0 -34 16 -1 16 -2 0
-6 -22 -5 -24 -33 -3 -33 8 0 15 -4 15 -10 0 -5 -7 -10 -15 -10 -21 0 -19 -16
3 -25 16 -6 16 -7 -2 -21 -11 -8 -14 -14 -8 -14 16 0 15 -27 0 -33 -10 -3 -10
-7 0 -20 11 -13 10 -16 -7 -22 -27 -8 -27 -25 -1 -25 23 0 27 -15 5 -24 -19
-7 -19 -26 0 -26 8 0 15 -6 16 -12 0 -7 2 -21 4 -30 4 -21 -11 -33 -20 -18 -4
6 -11 8 -16 4 -5 -3 -7 -10 -3 -15 3 -5 1 -15 -5 -22 -20 -24 -1 -67 30 -67
27 0 26 -38 -1 -42 -28 -4 -27 -22 1 -28 21 -5 21 -6 -7 -20 -28 -13 -28 -14
-6 -18 21 -3 32 -22 12 -22 -5 0 -10 -7 -10 -15 0 -8 7 -15 15 -15 9 0 15 -9
15 -25 0 -16 -6 -25 -15 -25 -8 0 -15 -4 -15 -10 0 -5 7 -10 15 -10 18 0 20
-36 3 -44 -10 -5 -10 -7 0 -12 17 -8 15 -44 -3 -44 -8 0 -15 -4 -15 -10 0 -5
7 -10 15 -10 8 0 15 -9 15 -20 0 -11 -5 -20 -12 -20 -9 0 -9 -3 0 -12 16 -16
15 -45 0 -51 -10 -4 -10 -7 0 -15 17 -12 12 -63 -8 -79 -13 -10 -11 -13 10
-21 l25 -10 -25 -11 -25 -10 23 -7 c25 -7 30 -24 7 -24 -10 0 -15 -10 -15 -30
0 -16 -7 -33 -15 -38 -13 -7 -15 -29 -13 -132 3 -116 4 -125 23 -128 34 -6 42
-22 21 -38 -20 -14 -20 -14 0 -29 17 -13 17 -14 2 -15 -23 0 -23 -16 0 -25 16
-6 16 -8 -3 -21 -20 -15 -20 -15 -1 -26 18 -10 18 -12 2 -23 -11 -8 -13 -15
-7 -20 16 -9 13 -25 -3 -25 -8 0 -16 -6 -19 -14 -4 -10 0 -12 14 -9 10 3 19 0
19 -6 0 -6 -7 -11 -15 -11 -21 0 -19 -30 3 -31 11 -1 8 -4 -8 -8 -14 -4 -24
-13 -23 -19 2 -7 -2 -12 -7 -12 -6 0 -10 -4 -10 -10 0 -5 7 -10 15 -10 22 0
18 -17 -5 -23 -29 -7 -25 -27 6 -27 22 0 24 -2 14 -15 -15 -19 -3 -38 21 -32
12 3 19 0 19 -9 0 -9 -11 -14 -29 -14 -28 0 -28 0 -18 -40 8 -28 17 -40 29
-40 10 0 18 -5 18 -10 0 -6 -6 -10 -12 -9 -7 1 -22 1 -32 0 -26 -1 -9 -18 24
-24 25 -4 25 -4 3 -12 -28 -9 -30 -25 -3 -25 11 0 20 -4 20 -10 0 -5 -9 -10
-20 -10 -25 0 -27 -30 -2 -31 9 -1 4 -4 -13 -8 -40 -8 -43 -52 -5 -61 l25 -6
-29 -10 c-28 -10 -28 -11 -11 -28 14 -14 15 -20 5 -26 -7 -4 -13 -19 -13 -34
0 -15 -5 -26 -13 -26 -14 0 -18 79 -16 380 1 63 3 588 6 1165 3 578 8 1070 12
1095 10 77 7 929 -5 1049 -10 107 -8 153 5 104 6 -22 34 -35 52 -24 5 3 13 16
17 29 9 32 18 21 9 -12z m2026 -115 c0 -6 -14 -11 -31 -13 -26 -2 -32 -8 -35
-30 -2 -20 2 -28 14 -30 9 0 23 -2 29 -2 7 -1 12 -6 10 -11 -1 -5 -8 -8 -16
-7 -7 2 -20 1 -27 -2 -24 -9 13 -58 37 -51 15 5 19 1 19 -19 0 -16 -6 -26 -15
-26 -8 0 -15 -4 -15 -10 0 -5 6 -9 13 -7 6 1 12 -5 12 -13 0 -8 -10 -16 -22
-18 -28 -4 -31 -32 -3 -32 11 0 20 -5 20 -11 0 -6 -9 -13 -20 -16 -11 -3 -20
-9 -20 -14 0 -5 9 -9 20 -9 11 0 20 -4 20 -10 0 -5 -13 -7 -30 -3 -19 3 -30 1
-30 -6 0 -6 14 -14 30 -17 33 -7 41 -34 10 -34 -11 0 -20 -4 -20 -10 0 -5 9
-10 20 -10 11 0 20 -7 20 -15 0 -9 -10 -15 -26 -15 -19 0 -25 -4 -21 -15 4 -8
2 -17 -4 -20 -15 -10 1 -26 23 -23 12 2 23 -3 25 -9 3 -9 -7 -13 -31 -13 -40
0 -44 -6 -18 -26 16 -13 16 -13 -1 -14 -10 0 -17 -6 -14 -12 2 -8 16 -12 35
-10 20 2 32 -1 32 -8 0 -8 -12 -11 -35 -8 -28 3 -35 1 -35 -13 0 -13 6 -16 23
-12 21 4 22 4 3 -11 -11 -9 -23 -16 -28 -16 -4 0 -8 -8 -8 -18 0 -10 17 -29
40 -42 45 -28 49 -37 18 -42 -32 -5 -33 -26 -1 -31 26 -4 26 -4 -5 -6 -30 -1
-33 -4 -30 -28 2 -22 9 -29 31 -31 16 -2 26 -8 24 -15 -2 -7 -11 -11 -19 -9
-16 2 -43 -31 -50 -63 -3 -11 -8 20 -13 69 -7 79 0 664 9 726 2 14 4 53 5 88
l1 62 40 0 c22 0 40 -4 40 -9z m0 -41 c0 -5 -11 -10 -25 -10 -14 0 -25 5 -25
10 0 6 11 10 25 10 14 0 25 -4 25 -10z m-2200 -85 c0 -5 -5 -3 -10 5 -5 8 -10
20 -10 25 0 6 5 3 10 -5 5 -8 10 -19 10 -25z m-50 -5 c0 -5 -7 -10 -15 -10 -8
0 -15 5 -15 10 0 6 7 10 15 10 8 0 15 -4 15 -10z m50 -49 c0 -12 -20 -25 -27
-18 -7 7 6 27 18 27 5 0 9 -4 9 -9z m2020 -1 c0 -5 -7 -10 -16 -10 -8 0 -12 5
-9 10 3 6 10 10 16 10 5 0 9 -4 9 -10z m-390 -26 c0 -8 -4 -14 -10 -14 -5 0
-10 9 -10 21 0 11 5 17 10 14 6 -3 10 -13 10 -21z m35 -64 c3 -5 1 -10 -4 -10
-6 0 -11 5 -11 10 0 6 2 10 4 10 3 0 8 -4 11 -10z m-75 -19 c0 -14 -18 -23
-30 -16 -6 4 -8 11 -5 16 8 12 35 12 35 0z m78 -17 c18 -5 22 -13 22 -45 0
-22 -4 -39 -8 -39 -13 0 -49 43 -57 68 -7 24 1 27 43 16z m517 -244 c-3 -5
-11 -10 -16 -10 -6 0 -7 5 -4 10 3 6 11 10 16 10 6 0 7 -4 4 -10z m105 -20 c0
-5 -5 -10 -11 -10 -5 0 -7 5 -4 10 3 6 8 10 11 10 2 0 4 -4 4 -10z m-1233 -77
c-3 -10 -5 -2 -5 17 0 19 2 27 5 18 2 -10 2 -26 0 -35z m723 27 c0 -5 -5 -10
-11 -10 -5 0 -7 5 -4 10 3 6 8 10 11 10 2 0 4 -4 4 -10z m100 -22 c0 -19 -18
-43 -25 -36 -9 9 4 48 16 48 5 0 9 -6 9 -12z m366 -8 c21 0 17 -18 -6 -30 -18
-10 -20 -8 -19 22 0 18 3 27 6 21 2 -7 11 -13 19 -13z m-1966 -80 c0 -11 -4
-20 -10 -20 -5 0 -10 9 -10 20 0 11 5 20 10 20 6 0 10 -9 10 -20z m1640 -16
c0 -2 -7 -4 -15 -4 -8 0 -15 4 -15 10 0 5 7 7 15 4 8 -4 15 -8 15 -10z m-95
-3 c3 -5 1 -12 -5 -16 -5 -3 -10 1 -10 9 0 18 6 21 15 7z m-833 -41 c-4 -33
-7 -35 -75 -35 -59 0 -62 1 -62 25 0 18 6 26 23 28 15 2 22 -2 22 -12 0 -22
23 -20 51 4 30 24 45 20 41 -10z m-788 -80 c-5 -10 -9 -3 -15 20 -4 19 -5 39
-1 44 8 14 23 -46 16 -64z m772 -5 c-48 -39 -97 -140 -104 -213 -3 -33 -10
-55 -18 -58 -52 -16 -50 -14 -31 -28 21 -16 22 -26 2 -26 -18 0 -20 -26 -2
-33 9 -4 8 -8 -3 -16 -12 -8 -12 -13 -2 -23 17 -17 15 -38 -3 -38 -8 0 -15 -7
-15 -15 0 -8 7 -15 16 -15 8 0 12 -4 9 -10 -3 -5 -15 -10 -26 -10 -25 0 -25
-20 1 -27 11 -3 20 -9 20 -14 0 -5 -9 -9 -20 -9 -27 0 -25 -26 3 -35 21 -8 21
-8 -5 -12 -16 -2 -28 -11 -28 -18 0 -8 12 -18 28 -22 l27 -7 -30 -6 c-39 -7
-48 -40 -11 -40 14 0 26 -5 26 -10 0 -6 -11 -8 -26 -4 -22 6 -25 4 -22 -12 2
-10 14 -21 28 -25 23 -6 22 -7 -12 -14 -21 -4 -38 -11 -38 -15 0 -10 25 -20
53 -21 24 -1 18 -4 -26 -13 -35 -8 -26 -26 14 -26 16 0 29 -4 29 -10 0 -5 -13
-10 -30 -10 -40 0 -42 -29 -2 -31 23 -2 24 -2 5 -6 -24 -4 -33 -33 -11 -33 25
0 -8 -18 -46 -24 l-39 -7 6 333 c3 183 11 375 18 426 13 94 8 121 -16 89 -22
-30 -30 -171 -30 -527 0 -304 -2 -337 -17 -354 -10 -11 -20 -17 -24 -14 -3 4
-7 172 -10 375 -3 343 -9 415 -29 352 -4 -12 -4 -181 0 -376 8 -385 8 -387
-46 -376 -17 3 -35 0 -44 -7 -13 -11 -15 6 -15 144 0 145 -1 156 -19 156 -17
0 -18 -10 -13 -189 l5 -189 -33 -17 c-27 -14 -34 -15 -41 -3 -18 28 -21 83 -9
215 7 76 13 209 14 295 l3 157 35 58 c38 63 122 234 133 271 18 62 106 121
159 108 15 -4 28 0 36 9 7 8 16 13 20 10 5 -3 11 -2 14 3 2 4 52 8 110 8 l106
0 -24 -21z m247 9 c12 -4 9 -15 -15 -60 -31 -56 -37 -61 -54 -44 -18 18 -36
-14 -29 -53 6 -28 13 -36 43 -45 l37 -11 -37 4 c-43 4 -60 -12 -33 -32 17 -12
16 -13 -14 -13 -27 0 -32 -3 -27 -16 7 -19 -10 -44 -31 -44 -11 0 -13 4 -6 13
11 13 11 57 0 74 -4 6 0 16 9 23 12 11 12 15 2 22 -10 8 -10 11 0 15 25 10 11
31 -23 35 -32 4 -33 3 -19 -13 13 -15 13 -18 1 -26 -16 -9 -39 -71 -32 -83 9
-14 -12 -20 -23 -7 -20 23 -2 94 34 136 19 21 34 42 34 46 0 14 46 45 78 51
19 4 36 13 39 20 5 14 40 19 66 8z m-199 -46 c-22 -24 -48 -56 -58 -72 -28
-44 -57 -161 -65 -264 -5 -51 -11 -95 -14 -98 -3 -3 -10 15 -15 41 -7 35 -6
59 5 98 8 29 18 75 23 102 11 72 37 129 71 159 16 14 29 33 29 41 0 14 30 33
55 34 5 1 -9 -18 -31 -41z m1163 6 c-3 -3 -12 -4 -19 -1 -8 3 -5 6 6 6 11 1
17 -2 13 -5z m-903 -41 c-7 -16 -14 -36 -14 -45 0 -10 -7 -16 -20 -15 -17 1
-18 3 -5 17 18 20 20 44 3 34 -7 -4 -4 2 6 14 29 33 49 29 30 -5z m127 -2 c13
-10 33 -20 44 -22 24 -5 27 -45 6 -71 -19 -24 -33 -12 -26 22 5 24 2 28 -21
34 -15 4 -32 2 -37 -3 -6 -6 -19 -11 -29 -11 -33 0 -19 -31 22 -48 22 -9 40
-21 40 -26 0 -9 -31 -4 -64 9 -16 7 -18 5 -14 -19 3 -14 1 -29 -4 -32 -5 -4
-7 -17 -4 -30 7 -28 -18 -35 -28 -8 -11 28 -6 91 8 103 7 6 12 24 10 41 -3 23
3 34 29 54 38 31 38 31 68 7z m819 10 c0 -5 -10 -11 -22 -14 -30 -8 -65 -34
-56 -42 4 -4 20 1 37 11 45 27 50 8 7 -27 -41 -35 -42 -50 -2 -23 15 9 29 14
32 11 6 -5 -7 -18 -41 -42 -11 -7 -17 -17 -12 -21 4 -4 13 -2 19 4 7 7 17 12
22 12 17 0 -41 -49 -70 -60 -18 -7 -30 -7 -40 0 -9 9 -18 6 -33 -9 l-20 -20
-7 35 c-5 25 -2 40 10 53 9 10 16 21 16 25 0 13 70 90 93 103 26 14 67 17 67
4z m-570 -141 c0 -87 -3 -104 -20 -122 -11 -12 -20 -28 -20 -35 0 -7 -5 -13
-11 -13 -14 0 -5 66 16 125 8 22 14 48 15 58 0 32 -17 17 -30 -25 -7 -24 -17
-47 -22 -52 -11 -13 -10 -9 7 48 8 27 15 53 15 58 0 16 -19 8 -25 -12 -4 -14
-15 -20 -36 -20 -31 0 -35 10 -19 41 8 13 21 19 45 19 19 0 35 -4 35 -10 0 -5
7 -10 16 -10 12 0 15 6 10 25 -5 18 -2 25 9 25 12 0 15 -17 15 -100z m245 10
c44 0 57 -4 69 -22 22 -31 20 -55 -4 -53 -11 1 -23 4 -26 8 -12 12 -24 8 -24
-8 0 -8 -4 -15 -10 -15 -5 0 -10 7 -10 15 0 17 -17 20 -22 4 -2 -7 -17 -5 -44
5 -37 15 -40 19 -36 51 4 31 6 33 29 24 13 -5 49 -9 78 -9z m-441 -39 c-4 -9
-10 -32 -14 -51 -7 -33 -8 -32 -9 16 0 28 2 54 5 57 12 12 26 -5 18 -22z
m-222 -23 c-7 -7 -12 -8 -12 -2 0 14 12 26 19 19 2 -3 -1 -11 -7 -17z m305
-20 c-3 -8 -6 -5 -6 6 -1 11 2 17 5 13 3 -3 4 -12 1 -19z m-587 -18 c0 -5 -4
-10 -10 -10 -5 0 -10 5 -10 10 0 6 5 10 10 10 6 0 10 -4 10 -10z m235 0 c3 -5
-3 -10 -15 -10 -12 0 -18 5 -15 10 3 6 10 10 15 10 5 0 12 -4 15 -10z m765
-10 c0 -5 -5 -10 -11 -10 -5 0 -7 5 -4 10 3 6 8 10 11 10 2 0 4 -4 4 -10z
m211 0 c5 0 9 -4 9 -10 0 -5 -9 -10 -20 -10 -11 0 -20 -4 -20 -10 0 -5 9 -10
19 -10 11 0 23 -4 26 -10 3 -5 -3 -10 -13 -10 -11 0 -25 -7 -32 -15 -11 -13
-8 -15 14 -15 16 0 26 -5 26 -15 0 -9 -10 -15 -26 -15 -16 0 -24 -5 -21 -12 2
-7 14 -12 26 -11 13 2 21 -3 21 -12 0 -9 -10 -15 -25 -15 -14 0 -25 -4 -25
-10 0 -5 11 -10 25 -10 34 0 32 -18 -2 -23 l-28 -4 24 -8 25 -8 -25 -11 -24
-10 28 -4 c31 -4 37 -22 8 -22 -11 0 -23 -4 -26 -10 -4 -6 5 -10 20 -10 15 0
24 -4 20 -10 -3 -5 -15 -10 -26 -10 -11 0 -17 -4 -14 -10 3 -5 15 -10 26 -10
28 0 24 -18 -6 -26 -14 -3 -25 -11 -25 -16 0 -6 11 -7 25 -4 14 4 25 2 25 -4
0 -5 -11 -10 -25 -10 -28 0 -35 -20 -7 -21 12 0 10 -3 -8 -11 -21 -9 -22 -12
-7 -15 18 -5 18 -5 0 -19 -16 -12 -14 -13 20 -14 27 0 37 -4 34 -12 -2 -7 -16
-12 -31 -10 -35 4 -33 -14 4 -27 30 -10 38 -25 20 -36 -5 -3 -10 -1 -10 5 0 6
-10 10 -22 8 -26 -3 -25 9 -16 -242 4 -126 7 -140 24 -147 17 -6 16 -7 -6 -11
-25 -5 -25 -5 -2 -13 12 -4 22 -14 22 -22 0 -10 -6 -12 -20 -8 -11 3 -20 2
-20 -4 0 -5 9 -13 20 -16 29 -9 25 -28 -5 -23 -14 3 -25 2 -25 -2 0 -4 11 -11
25 -14 32 -8 33 -28 0 -24 -13 2 -25 -1 -27 -7 -2 -5 9 -11 25 -13 28 -3 39
-32 12 -32 -18 0 -20 -16 -2 -23 7 -3 5 -6 -5 -6 -25 -1 -22 -18 3 -24 13 -3
18 -10 14 -17 -4 -7 -16 -10 -26 -7 -11 3 -19 1 -19 -5 0 -5 9 -12 20 -15 11
-3 20 -10 20 -15 0 -6 -11 -7 -25 -4 -14 4 -25 2 -25 -4 0 -5 11 -12 25 -16
20 -5 25 -12 25 -40 0 -32 -1 -33 -31 -27 -25 5 -31 3 -27 -8 3 -8 10 -15 16
-15 7 -1 19 -2 28 -3 12 -1 14 -12 12 -53 -2 -33 -8 -53 -15 -54 -7 -1 -22 -2
-33 -3 -32 -2 -23 -21 10 -21 23 0 30 -5 30 -19 0 -12 -8 -21 -22 -24 l-23 -4
23 -8 c22 -7 32 -35 12 -35 -5 0 -10 5 -10 11 0 5 -4 7 -10 4 -16 -10 -12 -21
13 -33 22 -11 22 -11 1 -11 -15 -1 -23 -9 -26 -26 -6 -29 -2 -35 24 -35 11 0
17 -4 13 -10 -3 -5 -11 -7 -18 -4 -8 3 -13 -5 -15 -22 -1 -14 -5 -31 -9 -37
-14 -22 -10 -108 5 -116 10 -6 11 -10 3 -15 -20 -13 -13 -54 11 -58 12 -2 23
-8 25 -15 3 -7 -3 -9 -16 -6 -15 4 -21 1 -21 -11 0 -11 9 -16 26 -16 15 0 23
-4 18 -11 -3 -6 -15 -9 -25 -6 -10 3 -21 1 -24 -3 -3 -5 8 -11 25 -15 21 -5
30 -12 30 -27 0 -17 -4 -19 -25 -14 -18 5 -25 2 -25 -9 0 -9 9 -15 25 -15 24
0 25 -3 25 -59 0 -64 -9 -78 -37 -62 -17 10 -17 10 0 11 19 0 24 20 5 20 -7 0
-4 6 7 12 19 11 19 11 0 19 -38 15 -43 10 -41 -38 1 -38 4 -47 21 -49 11 -1
31 -6 44 -10 l23 -7 -3 229 -4 229 162 0 c89 0 165 3 169 8 4 4 -62 8 -147 9
l-154 1 105 7 c58 4 135 8 173 9 67 1 67 1 67 -26 l0 -28 -140 3 c-93 2 -140
0 -140 -7 0 -7 49 -11 140 -11 l140 0 0 -116 0 -116 -35 6 c-22 4 -35 3 -35
-4 0 -5 16 -10 35 -10 25 0 35 -4 35 -15 0 -13 -7 -15 -34 -9 -19 3 -43 1 -53
-5 -14 -8 -8 -10 35 -11 28 0 52 -4 52 -10 0 -5 -22 -10 -50 -10 -29 0 -50 -5
-50 -11 0 -6 18 -9 48 -8 l47 3 3 -82 c2 -52 -1 -82 -8 -82 -5 0 -10 4 -10 9
0 4 -33 11 -72 15 -163 15 -221 35 -239 84 -8 21 -12 23 -19 12 -6 -10 -4 -23
6 -37 13 -20 13 -23 -1 -23 -8 0 -15 -5 -15 -11 0 -7 -9 -9 -27 -3 -16 4 -44
8 -63 8 l-35 1 -2 70 c-2 39 -3 77 -4 85 -1 18 11 391 16 475 2 33 4 85 4 115
1 53 2 56 27 55 33 0 53 28 38 53 -18 28 -44 27 -44 -2 0 -14 -5 -28 -12 -32
-8 -5 -9 83 -3 367 4 206 8 469 9 584 3 443 5 478 21 471 8 -3 15 -1 15 5 0 6
7 8 16 5 9 -3 20 -6 25 -6z m-106 -382 c-7 -736 -16 -1283 -20 -1295 -3 -9
-12 -8 -34 5 -25 14 -35 15 -63 4 -37 -13 -108 -16 -147 -5 l-23 6 7 241 c11
372 13 445 16 821 2 193 0 389 -3 436 l-7 87 37 6 c20 3 60 6 87 6 58 1 126
22 140 45 5 8 11 15 12 15 1 0 0 -168 -2 -372z m-525 330 c0 -20 67 -68 95
-68 l25 0 2 -302 c3 -397 -1 -811 -8 -1025 -6 -157 -8 -173 -24 -173 -10 0
-23 -6 -29 -14 -16 -19 -129 -68 -141 -61 -13 8 -13 142 0 150 6 4 4 12 -5 21
-17 17 -18 33 -8 152 4 58 10 82 19 82 23 0 34 36 34 114 0 41 7 155 16 252 9
111 14 254 12 383 l-3 206 52 3 c43 2 53 7 59 24 7 23 -16 48 -44 48 -9 0 -6
7 9 19 31 25 17 38 -23 23 -55 -20 -68 -4 -68 87 0 43 3 81 7 84 10 11 23 8
23 -5z m-83 -86 c-14 -18 -32 2 -22 25 5 10 7 22 6 27 -1 5 1 16 5 25 5 11 9
4 14 -24 5 -24 4 -45 -3 -53z m-517 24 c0 -8 -4 -18 -10 -21 -5 -3 -10 3 -10
14 0 12 5 21 10 21 6 0 10 -6 10 -14z m185 3 c10 -15 -1 -23 -20 -15 -9 3 -13
10 -10 16 8 13 22 13 30 -1z m200 -19 c3 -5 2 -10 -3 -10 -5 0 -12 -9 -15 -20
-3 -12 0 -20 8 -20 18 0 36 -25 26 -36 -5 -5 -11 -20 -14 -34 -3 -18 -5 -14
-6 14 -1 29 -4 37 -16 32 -12 -4 -15 4 -15 39 0 33 4 45 14 45 8 0 18 -4 21
-10z m-271 -6 c9 -3 16 -15 16 -26 0 -28 -34 -19 -38 10 -4 24 -2 25 22 16z
m141 -69 c0 -28 -29 -25 -33 3 -3 19 0 23 15 20 10 -2 18 -12 18 -23z m255 10
c0 -8 -4 -15 -10 -15 -5 0 -10 7 -10 15 0 8 5 15 10 15 6 0 10 -7 10 -15z
m-472 -18 c2 -10 -3 -17 -12 -17 -10 0 -16 9 -16 21 0 24 23 21 28 -4z m42
-13 c0 -8 -4 -12 -10 -9 -5 3 -10 10 -10 16 0 5 5 9 10 9 6 0 10 -7 10 -16z
m-92 -28 c3 -12 -1 -17 -10 -14 -7 3 -15 13 -16 22 -3 12 1 17 10 14 7 -3 15
-13 16 -22z m210 -10 c3 -23 0 -28 -13 -22 -9 3 -19 6 -21 6 -2 0 -4 12 -4 26
0 37 34 28 38 -10z m242 -16 c0 -5 -2 -10 -4 -10 -3 0 -8 5 -11 10 -3 6 -1 10
4 10 6 0 11 -4 11 -10z m-140 -21 c0 -5 -4 -9 -10 -9 -5 0 -10 7 -10 16 0 8 5
12 10 9 6 -3 10 -10 10 -16z m534 5 c11 -27 7 -37 -9 -24 -16 14 -20 40 -6 40
5 0 12 -7 15 -16z m-854 -15 c0 -5 -4 -9 -10 -9 -5 0 -10 7 -10 16 0 8 5 12
10 9 6 -3 10 -10 10 -16z m158 -13 c3 -20 0 -27 -10 -24 -7 3 -14 17 -16 32
-3 20 0 27 10 24 7 -3 14 -17 16 -32z m112 -37 c0 -38 -24 -35 -28 4 -2 19 1
27 12 27 11 0 16 -10 16 -31z m280 -15 c0 -3 -8 -19 -17 -37 l-16 -32 -9 34
c-13 46 -4 65 22 51 11 -6 20 -13 20 -16z m-542 -14 c-9 -6 -14 -18 -11 -29 3
-10 0 -22 -6 -25 -7 -5 -11 3 -11 22 0 33 7 42 29 42 14 -1 14 -2 -1 -10z m62
0 c0 -5 -7 -10 -15 -10 -8 0 -15 5 -15 10 0 6 7 10 15 10 8 0 15 -4 15 -10z
m300 -11 c0 -24 -23 -21 -28 4 -2 10 3 17 12 17 10 0 16 -9 16 -21z m-153 -4
c3 -9 3 -19 -1 -22 -8 -9 -37 18 -30 28 8 14 24 11 31 -6z m213 -11 c0 -8 -9
-14 -20 -14 -19 0 -27 19 -14 33 10 9 34 -4 34 -19z m-114 -33 c-13 -20 -26
-11 -26 16 0 25 1 26 16 11 9 -9 13 -21 10 -27z m-256 9 c0 -5 -9 -10 -20 -10
-11 0 -20 5 -20 10 0 6 9 10 20 10 11 0 20 -4 20 -10z m89 -4 c9 -10 9 -16 1
-21 -8 -5 -7 -10 4 -18 12 -10 21 -44 17 -69 -1 -5 -1 -11 -2 -15 -1 -5 -5
-16 -11 -26 -12 -22 -1 -57 18 -57 8 0 14 -5 14 -10 0 -6 -13 -8 -30 -5 -32 6
-40 -8 -14 -23 13 -7 14 -16 8 -43 -8 -33 -10 -44 -13 -64 -1 -5 -5 -4 -10 3
-9 15 -20 330 -12 360 2 7 20 0 30 -12z m-149 -47 c0 -5 -4 -9 -10 -9 -5 0
-10 7 -10 16 0 8 5 12 10 9 6 -3 10 -10 10 -16z m530 -5 c0 -31 -23 -28 -28 4
-2 15 2 22 12 22 11 0 16 -9 16 -26z m-485 6 c18 -8 17 -9 -7 -9 -16 -1 -28 4
-28 9 0 12 8 12 35 0z m435 -15 c0 -16 -6 -25 -15 -25 -9 0 -15 9 -15 25 0 16
6 25 15 25 9 0 15 -9 15 -25z m-210 0 c11 -13 8 -15 -14 -15 -25 0 -33 10 -19
23 10 11 19 8 33 -8z m99 -29 c8 -10 9 -16 1 -21 -13 -8 -30 3 -30 21 0 18 14
18 29 0z m52 -19 c8 -29 3 -38 -17 -30 -17 6 -19 66 -2 61 7 -3 15 -16 19 -31z
m-422 -31 c0 -30 -4 -58 -9 -61 -6 -4 -10 17 -10 54 0 76 17 81 19 7z m581 30
c0 -8 -4 -18 -10 -21 -5 -3 -10 3 -10 14 0 12 5 21 10 21 6 0 10 -6 10 -14z
m-1353 -38 c-3 -8 -6 -5 -6 6 -1 11 2 17 5 13 3 -3 4 -12 1 -19z m833 2 c0 -5
-11 -10 -25 -10 -14 0 -25 5 -25 10 0 6 11 10 25 10 14 0 25 -4 25 -10z m1210
0 c0 -5 -5 -10 -11 -10 -5 0 -7 5 -4 10 3 6 8 10 11 10 2 0 4 -4 4 -10z
m-2060 -30 c0 -5 -5 -10 -11 -10 -5 0 -7 5 -4 10 3 6 8 10 11 10 2 0 4 -4 4
-10z m1060 -6 c0 -7 -8 -10 -20 -7 -31 8 -35 23 -6 21 15 -1 26 -8 26 -14z
m260 -9 c0 -26 -14 -33 -25 -15 -9 14 1 40 15 40 5 0 10 -11 10 -25z m-50 -25
c0 -20 -5 -30 -15 -30 -10 0 -15 10 -15 30 0 20 5 30 15 30 10 0 15 -10 15
-30z m-134 -17 c26 -35 27 -40 24 -132 -1 -53 -3 -118 -4 -146 -1 -27 -5 -56
-9 -62 -5 -7 -4 -13 0 -13 5 0 10 -20 11 -45 1 -40 -1 -45 -15 -37 -9 5 -25 7
-36 4 -18 -5 -19 -1 -13 34 4 21 6 46 6 54 -5 231 -5 380 1 380 3 0 19 -16 35
-37z m913 -30 c1 -28 -2 -43 -8 -38 -10 12 -22 81 -14 89 12 12 20 -5 22 -51z
m-1259 12 c0 -19 -4 -35 -10 -35 -5 0 -10 16 -10 35 0 19 5 35 10 35 6 0 10
-16 10 -35z m255 25 c3 -5 -3 -10 -15 -10 -12 0 -18 5 -15 10 3 6 10 10 15 10
5 0 12 -4 15 -10z m325 -24 c0 -8 -4 -17 -9 -20 -10 -7 -23 19 -14 28 11 11
23 6 23 -8z m-155 -24 c0 -31 -19 -28 -23 4 -3 18 0 25 10 22 7 -3 13 -14 13
-26z m-545 8 c0 -5 -9 -10 -20 -10 -11 0 -20 5 -20 10 0 6 9 10 20 10 11 0 20
-4 20 -10z m-80 -10 c0 -5 -4 -10 -9 -10 -6 0 -13 5 -16 10 -3 6 1 10 9 10 9
0 16 -4 16 -10z m265 -10 c-3 -5 -17 -10 -31 -10 -13 0 -24 5 -24 10 0 6 14
10 31 10 17 0 28 -4 24 -10z m-355 -20 c0 -5 -4 -10 -10 -10 -5 0 -10 5 -10
10 0 6 5 10 10 10 6 0 10 -4 10 -10z m-95 -10 c3 -5 -1 -10 -9 -10 -9 0 -16 5
-16 10 0 6 4 10 9 10 6 0 13 -4 16 -10z m918 -27 c-3 -7 -9 -13 -14 -13 -11 0
-12 34 -2 43 9 10 22 -13 16 -30z m-653 17 c0 -5 -14 -10 -31 -10 -17 0 -28 4
-24 10 3 6 17 10 31 10 13 0 24 -4 24 -10z m130 -10 c0 -5 -5 -12 -10 -15 -14
-9 7 -35 29 -36 9 0 3 -5 -12 -11 -16 -5 -30 -8 -32 -6 -6 6 -13 77 -8 82 7 7
33 -5 33 -14z m-212 -1 c-22 -12 -23 -29 -3 -29 18 0 19 -12 3 -28 -8 -8 -8
-15 1 -26 7 -8 8 -17 3 -20 -5 -3 -9 -20 -8 -38 2 -31 4 -33 41 -34 61 -1 65
-7 10 -13 -41 -5 -50 -10 -51 -26 -1 -11 -2 -24 -3 -30 -2 -5 -2 -31 -1 -56 1
-26 -4 -50 -10 -54 -8 -5 -8 -11 1 -21 9 -11 9 -18 1 -26 -7 -7 -8 -17 -2 -29
8 -13 18 -16 49 -12 21 3 47 0 57 -6 15 -8 8 -10 -36 -11 -62 0 -76 -6 -82
-35 -3 -11 -5 95 -5 235 -1 140 1 258 4 263 2 4 14 7 26 7 20 -1 20 -2 5 -11z
m677 -21 c6 -6 -5 -8 -30 -6 -28 2 -41 8 -43 20 -3 15 0 16 30 6 18 -6 38 -15
43 -20z m-818 6 c-3 -3 -12 -4 -19 -1 -8 3 -5 6 6 6 11 1 17 -2 13 -5z m83 -4
c0 -5 -4 -10 -10 -10 -5 0 -10 5 -10 10 0 6 5 10 10 10 6 0 10 -4 10 -10z
m1520 0 c0 -5 -5 -10 -11 -10 -5 0 -7 5 -4 10 3 6 8 10 11 10 2 0 4 -4 4 -10z
m-1668 -7 c-9 -4 -10 -8 -2 -18 8 -10 8 -15 -1 -20 -8 -6 -7 -10 2 -16 12 -8
11 -11 -1 -19 -25 -16 -30 -12 -30 29 0 36 9 49 35 49 6 0 4 -2 -3 -5z m558
-21 c0 -4 -5 -13 -12 -20 -9 -9 -9 -12 1 -12 8 0 10 -7 6 -19 -3 -11 -1 -22 5
-26 6 -4 8 -15 5 -26 -5 -14 0 -22 17 -28 l23 -10 -23 0 c-17 -1 -22 -6 -20
-18 2 -10 9 -17 15 -16 7 2 27 -4 45 -13 l33 -15 -37 5 c-40 5 -50 -3 -54 -42
-2 -13 -8 -30 -15 -38 -8 -10 -8 -14 0 -14 6 0 11 5 11 12 0 6 8 4 19 -6 12
-11 27 -15 39 -11 11 3 23 1 27 -5 4 -6 -7 -10 -28 -10 -29 0 -36 -4 -43 -27
-11 -40 -11 -47 -2 -59 4 -6 6 -38 4 -72 -5 -68 5 -82 58 -82 14 0 26 -5 26
-11 0 -7 -13 -8 -39 -4 l-38 6 -9 -53 c-4 -29 -7 -61 -6 -70 1 -10 -3 -18 -8
-18 -14 0 -12 -27 3 -33 8 -3 6 -9 -8 -20 -22 -17 -22 -16 50 -43 18 -6 16 -8
-10 -13 -24 -5 -31 -12 -33 -35 -5 -37 6 -43 90 -51 37 -4 68 -11 68 -15 0
-12 -39 -19 -76 -13 -26 4 -34 2 -32 -8 2 -7 -6 -15 -18 -17 -18 -3 -20 -9
-17 -45 2 -23 5 -49 7 -57 2 -10 -4 -17 -15 -17 -15 -1 -18 7 -18 52 0 30 -3
60 -7 67 -4 6 -6 36 -5 66 2 53 2 55 -21 48 -13 -3 -34 -9 -48 -12 l-25 -6 25
21 c14 11 33 21 43 21 19 0 19 -9 16 290 -2 292 -2 310 10 324 10 11 8 16 -5
24 -14 8 -16 20 -11 73 5 53 10 87 16 107 2 6 21 1 21 -6z m673 -2 c7 0 1 -9
-13 -20 l-25 -19 25 -9 25 -9 -23 -7 c-25 -8 -31 -38 -6 -34 25 5 28 -19 3
-25 -27 -7 -19 -33 9 -29 28 4 29 -14 2 -21 -24 -6 -27 -27 -3 -27 15 0 14 -2
-3 -15 -19 -14 -19 -15 4 -21 24 -7 30 -24 8 -24 -17 0 -31 -33 -17 -38 17 -6
13 -20 -6 -18 -12 1 -17 -8 -19 -31 -1 -22 3 -33 12 -33 19 0 18 -9 -3 -32
-10 -11 -13 -19 -8 -18 23 5 55 -1 55 -9 0 -5 -9 -11 -20 -13 -22 -3 -24 -24
-2 -22 6 1 12 -4 12 -12 0 -8 -9 -14 -20 -14 -11 0 -20 -5 -20 -11 0 -6 9 -13
20 -16 27 -7 25 -21 -2 -26 l-23 -4 23 -8 c25 -8 30 -25 7 -25 -8 0 -15 -4
-15 -10 0 -5 7 -10 15 -10 8 0 15 -9 15 -20 0 -11 -7 -20 -15 -20 -8 0 -15 -4
-15 -10 0 -5 7 -10 15 -10 8 0 15 -5 15 -11 0 -6 -7 -8 -16 -5 -12 4 -15 2
-11 -9 4 -8 2 -17 -3 -20 -17 -10 -11 -23 12 -27 30 -4 36 -28 6 -28 -22 -1
-22 -1 -4 -15 11 -8 14 -15 8 -15 -7 0 -12 -4 -12 -10 0 -5 7 -10 15 -10 8 0
15 -5 15 -11 0 -6 -9 -9 -20 -6 -13 3 -20 0 -20 -9 0 -8 9 -14 20 -14 11 0 20
-4 20 -10 0 -5 -9 -10 -19 -10 -27 0 -31 -10 -24 -53 4 -27 11 -37 24 -37 26
0 24 -18 -1 -22 -22 -3 -24 -23 -3 -23 6 0 15 -4 19 -8 4 -4 -3 -7 -15 -7 -20
0 -22 -4 -19 -52 2 -38 7 -53 17 -53 8 0 16 -6 19 -14 3 -9 -1 -11 -17 -6 -12
4 -21 2 -21 -4 0 -6 9 -11 19 -11 11 0 23 -4 26 -10 3 -5 -3 -10 -15 -10 -13
0 -20 -5 -17 -12 2 -7 -3 -18 -11 -24 -9 -6 -17 -21 -19 -33 -2 -17 2 -21 27
-21 17 0 30 -4 30 -10 0 -5 -11 -10 -25 -10 -14 0 -25 -4 -25 -10 0 -5 11 -10
25 -10 16 0 25 -6 25 -15 0 -9 -6 -15 -12 -14 -36 4 -48 -2 -44 -23 2 -15 10
-23 24 -23 11 0 24 -3 28 -8 4 -4 -6 -7 -22 -7 -28 0 -29 -2 -28 -42 1 -36 5
-44 23 -46 30 -5 27 -32 -3 -32 -21 0 -25 -5 -24 -30 1 -20 6 -30 17 -30 10 0
7 -5 -9 -13 -29 -15 -60 -11 -60 8 0 8 8 11 21 8 17 -5 20 -2 17 13 -2 10 -10
18 -16 17 -7 -2 -12 7 -13 20 0 12 -2 33 -3 45 -2 17 4 26 21 33 13 5 21 14
18 20 -4 6 -13 8 -21 5 -16 -6 -16 -7 -14 333 0 129 3 237 5 241 2 3 6 98 10
211 17 626 19 663 42 655 8 -4 20 -6 26 -6z m-272 -120 c-3 -162 -19 -292 -39
-306 -9 -7 -18 -11 -19 -10 -1 1 3 97 9 214 11 202 13 213 31 210 18 -3 20
-11 18 -108z m-87 90 c-7 -7 -19 -7 -35 -1 -23 9 -22 10 11 10 23 1 31 -2 24
-9z m-578 -7 c-10 -10 -46 -11 -52 -1 -3 4 9 8 27 8 18 0 29 -3 25 -7z m-233
-10 c-7 -2 -19 -2 -25 0 -7 3 -2 5 12 5 14 0 19 -2 13 -5z m362 -50 c-1 -32 3
-66 9 -77 8 -14 8 -20 -1 -23 -24 -9 -13 -23 12 -17 15 4 25 2 25 -5 0 -6 7
-11 15 -11 8 0 15 -4 15 -10 0 -13 -3 -13 -35 2 -19 9 -28 9 -37 0 -16 -16
-28 -15 -28 3 0 8 -5 15 -11 15 -8 0 -8 4 0 14 13 16 18 110 7 144 -6 18 -4
22 12 22 18 0 19 -6 17 -57z m-550 16 c-3 -4 -12 -6 -20 -3 -8 4 -13 10 -10
15 3 4 12 6 20 3 8 -4 13 -10 10 -15z m130 1 c3 -5 -1 -10 -9 -10 -9 0 -16 5
-16 10 0 6 4 10 9 10 6 0 13 -4 16 -10z m134 -50 c1 -48 1 -50 -19 -38 -24 15
-25 22 -5 38 14 12 14 15 -1 31 -16 18 -16 19 3 19 17 0 20 -7 22 -50z m741
40 c0 -5 -9 -10 -19 -10 -11 0 -23 5 -26 10 -4 6 5 10 19 10 14 0 26 -4 26
-10z m-525 -10 c-3 -5 -13 -10 -21 -10 -8 0 -12 5 -9 10 3 6 13 10 21 10 8 0
12 -4 9 -10z m310 0 c4 -6 -6 -10 -24 -10 -16 0 -33 5 -36 10 -4 6 6 10 24 10
16 0 33 -4 36 -10z m-735 -24 c0 -2 -9 -6 -20 -9 -11 -3 -20 -1 -20 4 0 5 9 9
20 9 11 0 20 -2 20 -4z m81 -26 c10 0 19 -4 19 -10 0 -5 -12 -10 -26 -10 -30
0 -28 -24 2 -26 56 -5 59 -6 27 -15 -23 -7 -33 -16 -33 -29 0 -10 -5 -22 -10
-25 -8 -5 -8 -11 0 -20 8 -10 8 -15 0 -20 -9 -5 -9 -10 -1 -18 6 -6 11 -21 11
-33 0 -12 6 -25 13 -27 7 -3 6 -6 -5 -6 -11 -1 -16 -8 -14 -24 4 -36 13 -45
42 -39 19 3 25 1 20 -7 -4 -6 -11 -9 -16 -6 -10 6 -50 -16 -50 -27 0 -5 7 -8
15 -8 8 0 15 -4 15 -10 0 -16 -32 -12 -52 6 -17 16 -17 18 0 31 16 13 15 14
-5 8 -22 -6 -23 -4 -18 37 10 99 18 215 16 252 -1 32 1 37 14 32 9 -3 25 -6
36 -6z m859 0 c0 -5 -7 -10 -15 -10 -8 0 -15 5 -15 10 0 6 7 10 15 10 8 0 15
-4 15 -10z m-1007 -36 c-3 -8 0 -21 6 -28 9 -11 9 -15 0 -18 -8 -3 -8 -14 -1
-39 6 -23 6 -43 -1 -59 -10 -22 -11 -19 -18 35 -12 104 -11 135 5 129 8 -3 12
-12 9 -20z m617 6 c0 -5 -4 -10 -10 -10 -5 0 -10 5 -10 10 0 6 5 10 10 10 6 0
10 -4 10 -10z m-340 -62 c0 -17 -3 -28 -7 -25 -9 10 -10 57 -1 57 4 0 8 -14 8
-32z m-223 16 c-3 -3 -12 -4 -19 -1 -8 3 -5 6 6 6 11 1 17 -2 13 -5z m690 -20
c-3 -3 -12 -4 -19 -1 -8 3 -5 6 6 6 11 1 17 -2 13 -5z m53 -4 c0 -5 -6 -10
-14 -10 -8 0 -18 5 -21 10 -3 6 3 10 14 10 12 0 21 -4 21 -10z m-240 -41 c0
-10 5 -19 11 -19 8 0 8 -4 -1 -15 -6 -8 -8 -20 -4 -27 11 -18 11 -52 0 -60 -6
-4 -5 -13 3 -21 10 -13 9 -16 -5 -19 -16 -3 -16 -4 1 -21 15 -16 16 -20 4 -28
-11 -7 -12 -12 -1 -29 7 -12 8 -20 2 -20 -14 0 -12 -37 3 -44 10 -5 10 -7 0
-12 -16 -7 -17 -34 -2 -34 8 0 7 -5 -1 -15 -16 -19 -9 -27 38 -41 l37 -12 -37
-1 c-20 -1 -40 -6 -44 -13 -15 -23 -21 28 -24 177 -1 83 -3 177 -4 210 -2 33
-1 63 1 68 7 13 23 -3 23 -24z m-110 12 c0 -10 -40 -19 -58 -13 -25 8 -11 22
23 22 19 0 35 -4 35 -9z m-174 -28 c-10 -10 -19 5 -10 18 6 11 8 11 12 0 2 -7
1 -15 -2 -18z m-89 11 c-3 -3 -12 -4 -19 -1 -8 3 -5 6 6 6 11 1 17 -2 13 -5z
m741 -131 c2 -95 0 -128 -10 -134 -10 -7 -10 -13 -2 -27 8 -11 12 -73 13 -162
1 -143 1 -143 -19 -125 -19 17 -20 30 -19 252 0 145 4 233 10 233 6 0 7 4 4
10 -7 12 4 80 14 80 3 0 7 -57 9 -127z m-528 86 c0 -5 -11 -9 -25 -9 -14 0
-25 4 -25 9 0 5 11 9 25 9 14 0 25 -4 25 -9z m-120 -19 c0 -11 -7 -20 -15 -20
-8 0 -15 9 -15 20 0 11 7 20 15 20 8 0 15 -9 15 -20z m-230 -20 c0 -5 -14 -10
-31 -10 -17 0 -28 4 -24 10 3 6 17 10 31 10 13 0 24 -4 24 -10z m1340 -16 c0
-8 -4 -12 -10 -9 -5 3 -10 10 -10 16 0 5 5 9 10 9 6 0 10 -7 10 -16z m-1340
-24 c0 -5 -7 -10 -16 -10 -8 0 -12 5 -9 10 3 6 10 10 16 10 5 0 9 -4 9 -10z
m230 0 c0 -5 -4 -10 -10 -10 -5 0 -10 5 -10 10 0 6 5 10 10 10 6 0 10 -4 10
-10z m175 -40 c4 -6 -16 -10 -52 -10 -41 0 -54 3 -43 10 20 13 87 13 95 0z
m-420 -10 c-3 -5 -13 -10 -21 -10 -24 0 -11 -24 17 -31 13 -4 17 -7 8 -8 -23
-1 -43 -27 -29 -36 8 -5 8 -11 1 -19 -6 -7 -8 -16 -4 -19 9 -10 10 -138 0
-144 -4 -2 -3 -11 3 -18 8 -9 6 -14 -5 -19 -13 -5 -15 15 -15 154 l0 160 26 0
c14 0 23 -4 19 -10z m973 -9 c3 -8 -5 -11 -24 -9 -36 4 -42 24 -7 22 15 0 29
-6 31 -13z m-728 -1 c0 -5 -4 -10 -9 -10 -6 0 -13 5 -16 10 -3 6 1 10 9 10 9
0 16 -4 16 -10z m127 -30 c71 0 63 -11 -14 -17 -67 -5 -71 -7 -55 -33 7 -12 8
-21 2 -25 -6 -3 -10 -13 -10 -21 0 -11 15 -14 65 -14 37 0 65 -4 65 -10 0 -6
-30 -10 -70 -10 -54 0 -70 -3 -70 -14 0 -8 5 -18 11 -22 8 -4 7 -9 -2 -15 -12
-8 -11 -11 1 -20 11 -8 12 -12 3 -16 -7 -2 -13 -13 -13 -24 0 -16 6 -19 33
-18 57 4 107 -1 107 -10 0 -6 -27 -10 -60 -10 -32 0 -64 -2 -70 -6 -18 -11 0
-25 31 -25 16 0 29 -4 29 -10 0 -5 -13 -10 -30 -10 -16 0 -30 -4 -30 -9 0 -5
-3 -23 -6 -40 l-6 -31 48 0 c35 0 45 -3 34 -10 -8 -5 -28 -10 -43 -10 -30 0
-47 -24 -28 -43 17 -17 13 -27 -9 -27 -12 0 -20 7 -20 16 0 9 -7 14 -17 12
-23 -4 -23 -38 0 -52 13 -8 20 -8 26 2 6 10 10 10 21 -3 10 -12 10 -19 2 -27
-28 -28 -13 -38 57 -38 39 0 72 -4 75 -9 3 -5 -24 -9 -61 -10 -75 -1 -99 -14
-69 -37 19 -14 19 -14 1 -27 -13 -10 -15 -16 -6 -21 9 -6 9 -11 1 -21 -20 -24
-1 -35 60 -35 62 0 90 -7 90 -21 0 -5 -30 -7 -67 -4 -72 6 -108 -4 -86 -26 6
-6 9 -18 6 -25 -8 -21 15 -43 37 -37 11 3 20 0 20 -6 0 -15 -45 -25 -77 -15
-16 4 -35 8 -43 9 -12 0 -15 20 -17 105 0 58 -4 198 -8 311 -7 203 -6 206 14
212 27 7 27 27 1 27 -11 0 -20 4 -20 9 0 5 9 11 20 14 27 7 25 26 -2 36 -23 9
-23 9 5 16 33 9 35 21 5 31 -22 7 -22 7 -3 14 11 4 26 3 33 -2 9 -8 12 1 14
38 1 27 1 61 0 77 l-2 27 20 -20 c15 -15 33 -20 77 -20z m-607 -50 c0 -63 -3
-80 -14 -80 -23 0 -31 41 -12 55 11 8 16 27 16 59 0 25 2 46 5 46 3 0 5 -36 5
-80z m993 53 c-7 -2 -21 -2 -30 0 -10 3 -4 5 12 5 17 0 24 -2 18 -5z m-580
-10 c-7 -2 -19 -2 -25 0 -7 3 -2 5 12 5 14 0 19 -2 13 -5z m807 -28 c-13 -16
-55 -20 -64 -6 -9 14 5 21 42 21 29 0 33 -2 22 -15z m-866 -2 c8 -8 13 -9 42
-12 8 0 12 -6 8 -12 -3 -6 -17 -8 -29 -5 -26 7 -38 -4 -29 -27 4 -11 15 -14
40 -10 27 4 34 2 34 -11 0 -12 -10 -16 -39 -16 -43 0 -59 -13 -42 -34 6 -7 9
-21 5 -29 -4 -12 3 -19 28 -26 26 -9 27 -10 6 -7 -35 4 -57 -9 -41 -25 12 -12
10 -27 -10 -67 -9 -18 -8 -25 2 -31 10 -6 10 -10 2 -16 -9 -5 -9 -10 0 -21 9
-11 8 -18 -2 -30 -11 -13 -11 -17 2 -25 21 -11 17 -53 -5 -57 -14 -3 -16 1
-12 16 4 11 3 23 -2 26 -14 8 -7 393 8 411 14 17 23 19 34 8z m136 -8 c0 -9
-9 -15 -21 -15 -18 0 -19 2 -9 15 7 8 16 15 21 15 5 0 9 -7 9 -15z m350 5 c0
-5 -9 -10 -19 -10 -11 0 -23 5 -26 10 -4 6 5 10 19 10 14 0 26 -4 26 -10z
m-560 -20 c0 -5 -6 -10 -14 -10 -8 0 -18 5 -21 10 -3 6 3 10 14 10 12 0 21 -4
21 -10z m353 -7 c-13 -2 -35 -2 -50 0 -16 2 -5 4 22 4 28 0 40 -2 28 -4z m414
-135 c-2 -29 -3 -8 -3 47 0 55 1 79 3 53 2 -26 2 -71 0 -100z m-50 96 c-3 -3
-12 -4 -19 -1 -8 3 -5 6 6 6 11 1 17 -2 13 -5z m-164 -31 c-7 -2 -21 -2 -30 0
-10 3 -4 5 12 5 17 0 24 -2 18 -5z m-113 -13 c0 -5 -5 -10 -11 -10 -5 0 -7 5
-4 10 3 6 8 10 11 10 2 0 4 -4 4 -10z m-65 -20 c8 -13 -35 -13 -55 0 -11 7 -7
10 17 10 17 0 35 -4 38 -10z m-660 -10 c3 -5 -1 -10 -9 -10 -9 0 -16 5 -16 10
0 6 4 10 9 10 6 0 13 -4 16 -10z m425 2 c0 -5 -13 -9 -30 -9 -16 0 -30 4 -30
9 0 4 14 8 30 8 17 0 30 -4 30 -8z m793 -9 c-7 -2 -19 -2 -25 0 -7 3 -2 5 12
5 14 0 19 -2 13 -5z m-246 -9 c-3 -3 -12 -4 -19 -1 -8 3 -5 6 6 6 11 1 17 -2
13 -5z m-367 -8 c0 -3 -4 -8 -10 -11 -5 -3 -10 -1 -10 4 0 6 5 11 10 11 6 0
10 -2 10 -4z m120 -17 c0 -5 -4 -9 -10 -9 -5 0 -10 7 -10 16 0 8 5 12 10 9 6
-3 10 -10 10 -16z m-720 -9 c0 -13 -7 -20 -20 -20 -22 0 -23 1 -14 24 9 23 34
20 34 -4z m772 -23 c-5 -7 -8 -29 -6 -49 2 -21 -2 -38 -7 -38 -6 0 -9 20 -8
48 3 54 6 65 20 56 6 -3 6 -10 1 -17z m228 13 c0 -5 -15 -10 -32 -9 -31 1 -32
1 -8 9 35 11 40 11 40 0z m-280 -50 c0 -5 -7 -10 -15 -10 -8 0 -15 5 -15 10 0
6 7 10 15 10 8 0 15 -4 15 -10z m-510 -15 c-10 -12 -10 -18 -1 -29 7 -9 8 -17
3 -20 -6 -3 -9 -24 -8 -45 1 -22 -2 -38 -6 -35 -4 3 -8 36 -8 75 0 57 3 69 16
69 14 0 14 -3 4 -15z m70 5 c0 -5 -6 -10 -14 -10 -8 0 -18 5 -21 10 -3 6 3 10
14 10 12 0 21 -4 21 -10z m725 0 c-3 -5 -10 -10 -16 -10 -5 0 -9 5 -9 10 0 6
7 10 16 10 8 0 12 -4 9 -10z m235 -15 c0 -11 -11 -15 -40 -15 -29 0 -40 4 -40
15 0 11 11 15 40 15 29 0 40 -4 40 -15z m230 -17 c-1 -65 -5 -68 -97 -68 -82
0 -104 11 -45 23 16 3 51 19 78 36 60 36 64 37 64 9z m-1205 -8 c3 -5 -3 -10
-15 -10 -12 0 -18 5 -15 10 3 6 10 10 15 10 5 0 12 -4 15 -10z m455 -6 c0 -2
-7 -4 -15 -4 -8 0 -15 4 -15 10 0 5 7 7 15 4 8 -4 15 -8 15 -10z m283 -1 c-7
-2 -21 -2 -30 0 -10 3 -4 5 12 5 17 0 24 -2 18 -5z m861 -26 c6 6 10 -54 9
-137 -1 -77 -3 -90 -17 -90 -24 0 -27 15 -10 49 20 40 12 51 -37 51 -55 0 -77
-14 -85 -55 -5 -29 -9 -33 -20 -24 -21 17 -29 3 -16 -26 8 -18 20 -25 39 -25
24 -1 26 -2 10 -11 -9 -6 -15 -14 -12 -19 8 -13 35 -1 35 16 0 10 11 12 46 7
34 -4 48 -2 54 8 5 8 8 -33 7 -96 -2 -107 -2 -109 -27 -115 -14 -4 -47 -17
-75 -30 -61 -28 -150 -39 -157 -19 -3 8 -1 52 4 99 4 47 5 131 2 186 -4 66 -3
104 4 108 6 3 61 8 124 11 66 3 113 9 112 15 -1 6 -2 15 -2 20 -1 6 -52 11
-124 12 l-123 2 123 6 c162 7 164 26 2 22 l-120 -2 0 24 c0 30 16 42 35 26 16
-13 141 -4 151 11 3 5 18 0 33 -11 16 -10 31 -17 35 -13z m449 22 c62 2 67 1
67 -18 0 -12 -3 -21 -7 -21 -5 0 -88 -3 -185 -6 -113 -4 -178 -3 -178 3 0 6
34 13 75 16 44 3 84 12 97 22 14 9 31 13 43 9 11 -4 50 -6 88 -5z m-1543 -31
c0 -5 -4 -8 -10 -8 -5 0 -10 10 -10 23 0 18 2 19 10 7 5 -8 10 -18 10 -22z
m-367 15 c-7 -2 -19 -2 -25 0 -7 3 -2 5 12 5 14 0 19 -2 13 -5z m227 -3 c0 -5
-7 -10 -15 -10 -8 0 -15 5 -15 10 0 6 7 10 15 10 8 0 15 -4 15 -10z m595 0
c15 -6 9 -9 -25 -9 -34 0 -40 3 -25 9 11 5 22 9 25 9 3 0 14 -4 25 -9z m-495
-15 c0 -8 -7 -15 -16 -15 -14 0 -14 3 -4 15 7 8 14 15 16 15 2 0 4 -7 4 -15z
m-1040 -9 c52 -12 53 -13 25 -20 -34 -7 -276 -4 -269 4 8 8 114 27 154 28 19
1 60 -5 90 -12z m565 4 c-3 -5 -10 -10 -16 -10 -5 0 -9 5 -9 10 0 6 7 10 16
10 8 0 12 -4 9 -10z m-105 -10 c0 -6 -24 -10 -52 -9 -42 1 -48 3 -28 9 36 12
80 12 80 0z m-262 -340 c-1 -273 -4 -340 -14 -340 -8 0 -21 -11 -30 -25 -14
-21 -24 -25 -69 -25 -48 0 -54 -2 -64 -28 -18 -43 -63 -60 -179 -65 l-102 -5
0 394 0 394 128 1 c201 1 227 3 228 17 1 6 2 14 3 17 0 3 23 5 50 5 l50 0 -1
-340z m152 336 c0 -3 -4 -8 -10 -11 -5 -3 -10 -1 -10 4 0 6 5 11 10 11 6 0 10
-2 10 -4z m370 -6 c0 -5 -11 -10 -25 -10 -14 0 -25 5 -25 10 0 6 11 10 25 10
14 0 25 -4 25 -10z m247 -26 c-9 -9 -28 6 -21 18 4 6 10 6 17 -1 6 -6 8 -13 4
-17z m583 6 c0 -13 -50 -13 -70 0 -11 7 -4 10 28 10 23 0 42 -4 42 -10z m350
6 c0 -11 -19 -15 -25 -6 -3 5 1 10 9 10 9 0 16 -2 16 -4z m-1552 -24 c-29 -6
-20 -22 11 -22 16 0 36 7 45 15 20 21 66 20 66 -2 0 -23 29 -53 51 -53 32 0
39 -34 39 -179 0 -114 3 -145 18 -170 16 -30 20 -31 85 -31 37 0 67 -4 67 -9
0 -5 31 -12 70 -16 38 -4 68 -11 65 -15 -3 -5 -30 -12 -60 -15 -37 -5 -55 -12
-55 -21 0 -8 -11 -14 -27 -15 -25 0 -26 -1 -8 -9 19 -7 18 -9 -8 -19 -16 -6
-44 -11 -63 -11 -23 0 -34 -5 -34 -15 0 -8 -10 -17 -22 -19 -136 -27 -148 -28
-179 -17 -39 13 -49 14 -49 2 0 -5 9 -11 20 -14 14 -4 20 -14 20 -35 0 -22 6
-31 21 -35 16 -4 20 -11 15 -24 -4 -9 -4 -14 0 -11 4 4 16 3 26 -3 30 -16 43
3 18 26 -11 10 -20 28 -20 40 0 25 13 30 103 41 43 5 58 11 63 26 5 18 14 19
147 14 78 -2 167 -8 199 -11 70 -8 103 6 94 40 -5 19 0 26 22 38 24 12 31 12
50 -1 12 -8 22 -25 22 -37 0 -15 8 -25 23 -29 26 -7 127 22 127 36 0 6 6 8 13
5 23 -9 230 11 237 23 8 13 24 16 115 24 56 5 65 4 45 -5 -14 -6 -47 -14 -75
-18 -42 -5 -51 -10 -53 -28 -2 -14 2 -23 10 -23 30 0 83 -35 80 -53 -2 -10 3
-17 11 -17 8 0 22 -9 32 -20 18 -20 40 -17 32 4 -3 7 -1 19 5 27 14 21 1 -96
-15 -124 -23 -41 -40 -57 -62 -57 -11 0 -30 -6 -41 -14 -24 -18 -62 -10 -86
18 -25 30 -22 41 7 22 13 -9 38 -16 55 -16 37 0 100 25 100 39 0 12 -36 15
-43 4 -6 -10 -53 -8 -85 2 -17 6 -22 14 -20 34 2 20 -2 26 -18 27 -12 1 -28 5
-35 10 -8 5 -48 9 -89 10 -41 1 -82 3 -90 6 -62 21 -89 28 -107 28 -11 0 -31
9 -45 19 -27 22 -68 18 -68 -5 0 -17 23 -29 90 -44 70 -16 120 -39 142 -65 25
-29 22 -35 -12 -29 -25 5 -31 2 -42 -21 -16 -36 -3 -55 53 -71 29 -9 53 -24
67 -44 13 -16 31 -30 41 -30 10 0 30 -11 45 -25 27 -25 47 -31 59 -19 8 8 -27
40 -63 59 -14 7 -40 29 -59 49 -19 19 -38 33 -43 30 -4 -3 -13 -2 -19 2 -6 4
1 13 18 24 25 16 29 16 40 3 15 -19 33 -8 33 19 0 21 2 20 30 -7 16 -15 27
-31 25 -36 -9 -14 7 -39 25 -39 10 0 23 -7 30 -15 17 -21 31 -19 59 10 13 14
32 25 44 25 11 0 29 7 39 17 17 15 19 15 36 0 22 -20 43 -22 60 -5 16 16 120
18 133 1 13 -15 39 -18 39 -4 0 4 -10 20 -21 35 -36 45 -10 44 27 -2 20 -23
42 -42 50 -42 19 0 18 17 -3 30 -29 18 72 3 109 -16 32 -17 32 -17 9 -26 -23
-8 -23 -9 -5 -36 10 -15 28 -35 41 -45 36 -29 30 -47 -16 -47 -46 0 -60 14
-38 38 12 13 13 22 5 35 -20 36 -157 78 -146 45 3 -7 14 -13 25 -14 31 -2 46
-14 34 -28 -7 -8 -1 -21 20 -43 16 -18 29 -34 29 -37 0 -11 -384 -6 -422 4
-20 6 -46 22 -56 35 -25 32 -121 95 -145 95 -31 0 -14 -22 38 -51 27 -15 57
-38 68 -53 17 -23 17 -27 2 -32 -54 -21 -147 15 -263 102 -24 18 -57 36 -73
39 -41 9 -77 29 -95 51 -14 19 -14 18 -29 0 -15 -19 -15 -19 -38 2 -22 21 -57
30 -57 15 0 -4 10 -17 22 -30 12 -13 18 -26 15 -29 -4 -4 -16 4 -26 18 -28 35
-146 110 -167 106 -31 -6 -26 -26 10 -38 19 -6 40 -18 46 -26 16 -18 11 -18
-33 1 -52 22 -84 19 -90 -6 -7 -24 -33 -20 -29 5 2 11 -4 16 -18 16 -14 0 -19
-4 -14 -12 4 -7 3 -8 -5 -4 -6 4 -18 2 -26 -4 -18 -15 -46 -6 -40 12 2 7 -6
20 -18 29 -29 21 -156 61 -168 53 -16 -9 0 -23 41 -34 21 -6 55 -17 75 -26 34
-14 36 -16 20 -28 -24 -17 -11 -36 26 -36 17 0 29 -5 29 -13 0 -7 20 -19 45
-26 24 -7 50 -20 57 -29 11 -13 10 -14 -8 -4 -36 19 -108 42 -133 42 -16 0
-36 14 -58 40 -25 28 -42 40 -62 40 -14 0 -36 7 -48 15 -25 18 -46 16 -54 -4
-4 -10 11 -23 45 -41 60 -32 70 -50 28 -50 -24 0 -31 5 -34 22 -2 18 -12 24
-47 30 -24 4 -52 15 -62 24 -23 21 -25 46 -3 37 16 -6 34 12 34 35 0 6 -9 12
-20 12 -17 0 -20 7 -20 40 0 22 -3 40 -8 40 -4 0 -8 87 -9 192 0 106 -4 235
-7 286 -3 50 -3 91 1 91 5 -1 19 -1 33 0 18 1 21 4 11 10 -7 5 -22 6 -32 4
-16 -5 -19 -1 -17 24 2 25 5 29 23 24 17 -4 18 -6 3 -9z m219 12 c-3 -3 -12
-4 -19 -1 -8 3 -5 6 6 6 11 1 17 -2 13 -5z m581 -1 c-10 -2 -26 -2 -35 0 -10
3 -2 5 17 5 19 0 27 -2 18 -5z m-64 -55 c-3 -5 1 -17 9 -26 22 -26 26 -45 11
-63 -19 -22 -22 -74 -8 -136 12 -58 2 -72 -15 -20 -13 40 -13 313 0 279 5 -13
6 -28 3 -34z m561 32 c3 -5 -3 -10 -14 -10 -12 0 -21 5 -21 10 0 6 6 10 14 10
8 0 18 -4 21 -10z m105 0 l25 0 -1 -223 c0 -122 -1 -227 -2 -232 -1 -6 -25
-10 -53 -9 -29 1 -65 -3 -82 -8 -39 -14 -176 6 -229 33 -20 10 -45 19 -55 19
-10 0 7 11 37 23 48 19 56 26 60 55 5 31 41 62 74 62 6 0 25 11 41 24 26 21
30 31 31 78 0 29 1 74 2 101 l2 47 45 0 c25 0 45 5 45 10 0 6 -5 10 -11 10 -5
0 -7 5 -3 11 3 6 16 8 28 5 11 -3 32 -6 46 -6z m-1230 -10 c0 -5 -4 -10 -10
-10 -5 0 -10 5 -10 10 0 6 5 10 10 10 6 0 10 -4 10 -10z m1453 3 c-7 -2 -21
-2 -30 0 -10 3 -4 5 12 5 17 0 24 -2 18 -5z m100 0 c-7 -2 -21 -2 -30 0 -10 3
-4 5 12 5 17 0 24 -2 18 -5z m44 1 c-3 -3 -12 -4 -19 -1 -8 3 -5 6 6 6 11 1
17 -2 13 -5z m173 -4 c0 -5 -4 -10 -10 -10 -5 0 -10 5 -10 10 0 6 5 10 10 10
6 0 10 -4 10 -10z m-1337 -10 c35 0 11 -11 -34 -15 -47 -4 -63 1 -53 17 4 5
20 7 36 4 17 -3 40 -6 51 -6z m357 0 c0 -13 -20 -13 -40 0 -12 8 -9 10 13 10
15 0 27 -4 27 -10z m240 0 c0 -12 -37 -12 -65 0 -15 7 -10 9 23 9 23 1 42 -3
42 -9z m-190 -40 c0 -5 -4 -10 -10 -10 -5 0 -10 5 -10 10 0 6 5 10 10 10 6 0
10 -4 10 -10z m118 3 c-10 -2 -26 -2 -35 0 -10 3 -2 5 17 5 19 0 27 -2 18 -5z
m-818 -35 c0 -5 -11 -8 -25 -8 -18 0 -25 5 -25 19 0 17 3 18 25 8 14 -7 25
-15 25 -19z m893 25 c-7 -2 -19 -2 -25 0 -7 3 -2 5 12 5 14 0 19 -2 13 -5z
m587 3 c0 -15 -24 -66 -31 -66 -8 0 -3 43 8 63 4 7 23 10 23 3z m-1250 -20 c0
-11 -19 -15 -25 -6 -3 5 1 10 9 10 9 0 16 -2 16 -4z m68 -3 c-10 -2 -26 -2
-35 0 -10 3 -2 5 17 5 19 0 27 -2 18 -5z m1122 -13 c0 -11 -4 -20 -10 -20 -5
0 -10 9 -10 20 0 11 5 20 10 20 6 0 10 -9 10 -20z m-1040 0 c0 -5 -2 -10 -4
-10 -3 0 -8 5 -11 10 -3 6 -1 10 4 10 6 0 11 -4 11 -10z m130 -10 c0 -5 -9
-10 -21 -10 -11 0 -17 5 -14 10 3 6 13 10 21 10 8 0 14 -4 14 -10z m353 3
c-13 -2 -33 -2 -45 0 -13 2 -3 4 22 4 25 0 35 -2 23 -4z m377 3 c0 -11 -19
-15 -25 -6 -3 5 1 10 9 10 9 0 16 -2 16 -4z m400 0 c0 -11 -19 -15 -25 -6 -3
5 1 10 9 10 9 0 16 -2 16 -4z m-1053 -83 c-5 -7 -6 -13 -3 -13 4 0 4 -6 -1
-12 -4 -7 -6 -21 -5 -30 4 -20 -16 -25 -23 -5 -11 28 -11 127 -1 130 16 6 45
-55 33 -70z m-547 47 c38 -8 18 -15 -34 -11 -27 3 -28 1 -23 -27 4 -20 1 -34
-8 -42 -13 -11 -15 -4 -15 45 0 55 1 57 23 50 12 -4 38 -10 57 -15z m637 -6
c-3 -3 -12 -4 -19 -1 -8 3 -5 6 6 6 11 1 17 -2 13 -5z m191 -1 c-15 -2 -42 -2
-60 0 -18 2 -6 4 27 4 33 0 48 -2 33 -4z m-381 -9 c-3 -3 -12 -4 -19 -1 -8 3
-5 6 6 6 11 1 17 -2 13 -5z m-237 -34 c0 -5 -5 -10 -11 -10 -5 0 -7 5 -4 10 3
6 8 10 11 10 2 0 4 -4 4 -10z m628 3 c-16 -2 -40 -2 -55 0 -16 2 -3 4 27 4 30
0 43 -2 28 -4z m-548 -13 c0 -5 -4 -10 -10 -10 -5 0 -10 5 -10 10 0 6 5 10 10
10 6 0 10 -4 10 -10z m400 -30 c0 -5 -9 -10 -21 -10 -11 0 -17 5 -14 10 3 6
13 10 21 10 8 0 14 -4 14 -10z m-715 -20 c3 -5 -3 -10 -13 -10 -16 0 -21 -10
-28 -47 l-8 -48 -6 50 c-3 28 -4 53 -2 58 5 11 50 9 57 -3z m60 0 c3 -5 -3
-10 -15 -10 -12 0 -18 5 -15 10 3 6 10 10 15 10 5 0 12 -4 15 -10z m255 0 c0
-5 -22 -7 -52 -3 -72 8 -73 13 -5 13 32 0 57 -4 57 -10z m348 -24 c10 -10 -42
-6 -58 5 -11 7 -7 9 18 5 19 -2 36 -7 40 -10z m-91 -15 c8 -13 29 -22 58 -26
25 -4 45 -12 45 -17 0 -7 -13 -8 -32 -3 -58 12 -63 11 -62 -12 1 -24 -14 -32
-21 -10 -10 32 -15 87 -8 87 5 0 14 -9 20 -19z m660 3 c-3 -3 -12 -4 -19 -1
-8 3 -5 6 6 6 11 1 17 -2 13 -5z m-1177 -20 c0 -2 -16 -4 -36 -4 -19 0 -33 4
-30 8 5 8 66 4 66 -4z m263 -56 c-6 -11 -113 -10 -113 0 0 5 27 8 59 8 32 -1
57 -4 54 -8z m12 -48 c-8 -13 -65 -13 -85 0 -11 7 0 10 38 10 33 0 51 -4 47
-10z m1155 -14 c0 -38 24 -49 113 -52 55 -2 106 -11 157 -28 41 -14 93 -29
115 -33 l40 -7 -37 -4 c-48 -4 -50 -22 -3 -22 57 0 145 -53 145 -86 0 -16 -9
-19 -50 -22 -28 -1 -50 2 -50 7 0 5 -18 11 -40 13 -55 4 -51 22 5 26 25 2 45
5 45 7 0 23 -17 35 -50 35 -31 0 -44 -6 -66 -32 -15 -18 -31 -32 -36 -30 -12
3 -48 -17 -48 -26 0 -5 12 -13 28 -19 25 -10 25 -11 5 -12 -30 -1 -31 -37 -2
-46 19 -6 19 -8 4 -25 -19 -20 -17 -71 3 -78 8 -2 12 8 12 32 0 29 4 36 20 36
17 0 19 -8 22 -88 2 -69 6 -87 18 -87 12 0 14 15 12 92 l-4 91 86 4 85 3 -1
-78 c0 -42 -4 -77 -9 -77 -5 0 -9 6 -9 14 0 14 -36 46 -52 46 -15 0 -8 -19 26
-63 l34 -45 -36 -5 c-21 -3 -115 -6 -209 -7 -168 -1 -173 0 -173 20 0 11 -9
29 -21 41 -14 14 -17 24 -10 33 6 6 8 22 4 34 -7 29 10 28 30 0 53 -79 117
-126 117 -86 0 11 -51 69 -112 126 -21 20 -38 42 -38 50 0 26 -31 52 -62 52
-15 0 -28 -4 -28 -10 0 -5 7 -10 15 -10 8 0 15 -4 15 -10 0 -13 -2 -13 -36 5
-16 8 -37 12 -47 9 -11 -3 -27 2 -38 12 -16 14 -22 15 -32 5 -9 -10 -7 -17 12
-32 13 -11 31 -17 38 -15 8 3 30 -1 50 -9 19 -8 43 -15 53 -15 9 0 25 -9 35
-20 19 -21 8 -29 -12 -9 -14 14 -94 32 -148 33 -41 1 -42 3 -61 74 -2 7 -19
19 -39 28 -31 13 -34 17 -31 47 3 17 5 51 5 74 l1 41 40 -19 c21 -10 49 -19
61 -19 21 0 21 -1 -4 -24 -17 -16 -33 -22 -47 -19 -23 6 -27 -12 -4 -21 31
-12 70 -6 86 13 14 17 22 18 52 10 19 -5 48 -16 63 -24 15 -8 33 -15 40 -15 6
0 28 -16 49 -35 21 -20 44 -33 51 -31 19 8 2 38 -31 56 -15 7 -25 18 -23 24 6
20 64 18 101 -3 43 -25 56 -26 56 -7 0 18 -60 46 -99 46 -18 0 -53 11 -79 25
-26 14 -54 25 -63 25 -9 0 -34 7 -54 16 -32 13 -42 13 -62 3 -19 -10 -33 -10
-76 0 -66 17 -66 17 -60 41 4 16 14 20 53 20 33 0 69 10 112 30 76 36 78 36
78 6z m-1000 -25 c0 -15 -10 -19 -52 -24 -28 -4 -54 -5 -56 -3 -2 3 -1 14 3
25 5 18 15 21 56 21 41 0 49 -3 49 -19z m730 -21 c0 -5 -7 -10 -15 -10 -8 0
-15 5 -15 10 0 6 7 10 15 10 8 0 15 -4 15 -10z m738 -39 c62 -22 81 -36 65
-52 -7 -7 -19 -3 -40 15 -22 18 -54 30 -109 40 l-79 14 55 1 c30 0 79 -8 108
-18z m-2323 -21 c-3 -5 -14 -10 -23 -10 -15 0 -15 2 -2 10 20 13 33 13 25 0z
m1463 -43 c2 -21 -1 -37 -7 -37 -6 0 -11 4 -11 8 0 5 -11 15 -25 22 -24 13
-24 14 -8 32 26 29 48 19 51 -25z m402 1 c73 -22 91 -34 67 -44 -9 -3 -35 3
-59 14 -24 12 -56 25 -72 29 -17 5 -32 15 -34 23 -3 9 1 11 14 6 11 -4 48 -17
84 -28z m387 -44 c-3 -3 -12 -4 -19 -1 -8 3 -5 6 6 6 11 1 17 -2 13 -5z
m-2123 -50 c3 -8 2 -12 -4 -9 -6 3 -10 10 -10 16 0 14 7 11 14 -7z m1436 6 c0
-5 -6 -10 -14 -10 -20 0 -32 -60 -15 -71 10 -6 11 -9 2 -9 -7 0 -13 -7 -13
-15 0 -10 10 -15 30 -15 17 0 30 -4 30 -10 0 -5 -22 -10 -49 -10 -57 0 -78 25
-42 49 20 13 20 14 4 27 -17 13 -17 13 0 14 21 0 23 20 2 20 -22 0 -18 14 8
26 29 15 57 17 57 4z m-1745 -55 c14 -14 25 -35 25 -45 0 -11 9 -24 20 -30 23
-13 25 -28 7 -63 -10 -19 -17 -23 -25 -15 -6 6 -8 16 -6 23 3 7 -11 30 -30 51
-39 43 -44 54 -21 54 8 0 15 7 15 15 0 8 -4 15 -10 15 -5 0 -10 5 -10 10 0 15
7 12 35 -15z m50 15 c4 -6 11 -8 16 -4 6 3 13 -3 16 -15 5 -20 27 -27 75 -23
13 1 52 -39 74 -76 1 -2 15 -5 30 -6 23 -3 28 -8 26 -24 -4 -28 13 -31 148
-30 124 2 167 -10 253 -69 47 -32 42 -41 -7 -13 -20 11 -53 20 -72 20 -34 0
-35 -1 -29 -30 l7 -30 -106 -1 c-58 -1 -129 -2 -157 -3 -39 -1 -53 3 -58 15
-3 9 -31 36 -61 61 -34 28 -55 52 -55 65 0 12 -17 41 -37 65 -79 95 -89 108
-79 108 5 0 13 -5 16 -10z m1230 -6 c14 -9 25 -23 25 -30 0 -24 -24 -15 -42
16 -20 34 -17 36 17 14z m1285 -4 c0 -17 -7 -20 -50 -20 -27 0 -50 4 -50 9 0
6 -17 12 -37 14 -35 4 -35 4 5 3 23 -1 42 2 42 6 0 5 20 8 45 8 38 0 45 -3 45
-20z m-2622 -9 c3 -8 -1 -12 -9 -9 -7 2 -15 10 -17 17 -3 8 1 12 9 9 7 -2 15
-10 17 -17z m1872 -6 c10 -12 10 -19 2 -27 -14 -14 -17 -11 -26 20 -8 25 5 29
24 7z m545 -5 c3 -5 -1 -10 -9 -10 -9 0 -16 5 -16 10 0 6 4 10 9 10 6 0 13 -4
16 -10z m182 -24 c4 -4 -1 -7 -12 -5 -11 2 -24 1 -30 -2 -5 -4 -28 -4 -50 0
l-40 5 40 6 c53 7 82 6 92 -4z m-2615 -56 c10 -17 28 -35 40 -40 13 -5 17 -9
11 -9 -16 -1 -17 -57 -3 -66 7 -5 8 -11 1 -19 -7 -8 -2 -19 15 -35 32 -31 49
-17 29 23 -20 38 -9 48 16 16 10 -14 24 -31 30 -38 18 -21 0 -32 -55 -32 -45
0 -54 3 -59 20 -3 12 -14 20 -27 20 -17 0 -21 -4 -17 -20 10 -38 -8 -20 -52
50 -33 54 -48 70 -66 70 -12 0 -28 7 -35 15 -17 21 -29 19 -56 -10 -13 -14
-30 -25 -39 -25 -9 0 -19 -9 -22 -20 -11 -42 -23 -18 -20 42 2 62 2 62 37 71
46 12 148 5 184 -14 16 -7 34 -23 40 -34 6 -11 14 -22 18 -25 4 -3 11 -18 17
-33 6 -15 15 -27 21 -27 24 0 20 33 -9 78 -30 48 -38 72 -23 72 4 0 15 -14 24
-30z m516 -25 c-3 -3 -9 2 -12 12 -6 14 -5 15 5 6 7 -7 10 -15 7 -18z m-363
-34 c3 -5 1 -12 -5 -16 -5 -3 -10 1 -10 9 0 18 6 21 15 7z m983 -11 c-7 -10
-8 -23 -4 -27 5 -4 11 -2 13 5 7 19 21 14 25 -10 2 -12 10 -24 18 -26 13 -5
13 -3 1 11 -19 24 71 -27 94 -53 17 -19 16 -19 -31 -16 -27 2 -88 4 -135 5
-81 1 -87 2 -92 23 -2 13 -8 32 -13 43 -7 18 -6 19 10 6 15 -13 21 -11 54 22
40 41 82 53 60 17z m-148 -5 c20 -24 6 -28 -15 -5 -10 11 -13 20 -8 20 6 0 16
-7 23 -15z m220 5 c12 -8 11 -10 -7 -10 -13 0 -23 5 -23 10 0 13 11 13 30 0z
m-266 -29 l27 -28 -25 4 c-31 6 -33 -7 -6 -32 11 -10 17 -22 13 -26 -18 -17
-60 5 -91 47 -36 49 -37 54 -2 24 32 -28 56 -22 52 13 -4 34 -2 34 32 -2z
m-1114 -2 c0 -5 -7 -9 -15 -9 -8 0 -15 -8 -15 -19 0 -10 -7 -24 -15 -31 -8 -7
-15 -19 -15 -26 0 -8 -8 -14 -17 -14 -33 0 -63 12 -63 25 0 19 30 40 52 37 11
-2 29 9 44 27 24 29 44 33 44 10z m407 -33 c55 -42 59 -56 15 -56 -31 1 -88
43 -78 58 3 5 -1 15 -9 22 -17 14 -10 34 8 23 7 -3 35 -25 64 -47z m-328 -16
c12 -22 21 -43 21 -45 0 -3 -21 -5 -46 -5 -27 0 -43 4 -39 10 3 6 15 10 27 10
21 0 21 15 1 66 -12 32 14 6 36 -36z m886 40 c3 -5 1 -10 -4 -10 -6 0 -11 5
-11 10 0 6 2 10 4 10 3 0 8 -4 11 -10z m567 -52 c41 -22 42 -23 16 -26 -17 -2
-34 4 -47 17 -37 37 -28 40 31 9z m-627 -9 c4 -6 5 -12 2 -15 -7 -7 -37 7 -37
17 0 13 27 11 35 -2z m-910 -19 c3 -5 -1 -10 -10 -10 -9 0 -13 5 -10 10 3 6 8
10 10 10 2 0 7 -4 10 -10z"/>
<g>
<path d="M1438 5192 c-61 -1 -108 -7 -108 -12 0 -6 6 -10 14 -10 13 0 26 -41
26 -86 0 -17 -6 -24 -20 -24 -11 0 -20 -7 -20 -15 0 -12 19 -15 115 -13 88 1
115 5 115 15 0 7 -11 13 -25 13 -24 0 -25 3 -25 55 0 48 3 55 19 55 20 0 37
16 24 22 -5 2 -56 2 -115 0z m-10 -80 c3 -47 1 -52 -17 -52 -19 0 -21 6 -21
56 0 47 3 55 18 52 13 -2 18 -15 20 -56z m62 3 c0 -48 -2 -55 -20 -55 -17 0
-20 7 -20 48 0 51 5 62 27 62 9 0 13 -16 13 -55z"/>
</g>
<g>
<path d="M1253 3579 c-18 -12 -30 -25 -27 -30 3 -5 1 -9 -4 -9 -19 0 -52 -42
-62 -79 -5 -21 -17 -44 -25 -51 -8 -7 -12 -16 -9 -21 8 -13 24 -11 24 4 0 10
16 12 63 9 49 -3 84 2 148 21 111 34 123 43 109 83 -9 25 -24 37 -80 63 -81
36 -94 37 -137 10z m-3 -58 c0 -12 -20 -25 -27 -18 -7 7 6 27 18 27 5 0 9 -4
9 -9z m-10 -65 c0 -3 -4 -8 -10 -11 -5 -3 -10 -1 -10 4 0 6 5 11 10 11 6 0 10
-2 10 -4z"/>
</g>
<g>
<path d="M2530 1530 c0 -5 11 -10 25 -10 14 0 25 5 25 10 0 6 -11 10 -25 10
-14 0 -25 -4 -25 -10z"/>
</g>
<g>
<path d="M2791 885 c-29 -16 -41 -33 -41 -62 0 -14 -6 -23 -15 -23 -8 0 -15
-4 -15 -10 0 -5 5 -10 10 -10 6 0 10 -7 10 -15 0 -13 12 -15 68 -13 52 2 67 6
67 18 0 8 -10 16 -22 18 -26 4 -28 14 -12 44 8 15 8 27 -2 44 -14 27 -15 27
-48 9z m14 -66 c-9 -16 -20 -29 -25 -29 -17 0 -11 49 7 59 27 15 34 3 18 -30z"/>
</g>
<g>
<path d="M2618 849 c-5 -4 -6 -9 -2 -12 11 -5 94 -1 100 6 8 8 -86 13 -98 6z"/>
</g>
<g>
<path d="M2864 828 c-3 -4 11 -8 30 -8 20 0 36 2 36 4 0 8 -61 12 -66 4z"/>
</g>
<g>
<path d="M2663 808 c21 -7 32 -7 40 1 8 8 0 11 -28 10 -40 -1 -40 -1 -12 -11z"/>
</g>
<g>
<path d="M2808 733 c6 -2 18 -2 25 0 6 3 1 5 -13 5 -14 0 -19 -2 -12 -5z"/>
</g>
<g>
<path d="M2535 720 c3 -5 15 -10 26 -10 11 0 17 5 14 10 -3 6 -15 10 -26 10
-11 0 -17 -4 -14 -10z"/>
</g>
<g>
<path d="M2755 700 c-4 -6 6 -10 22 -10 22 0 25 2 13 10 -19 12 -27 12 -35 0z"/>
</g>
<g>
<path d="M1500 1090 c0 -5 10 -10 23 -10 18 0 19 2 7 10 -19 13 -30 13 -30 0z"/>
</g>
<g>
<path d="M2100 485 c0 -8 5 -15 10 -15 6 0 10 7 10 15 0 8 -4 15 -10 15 -5 0
-10 -7 -10 -15z"/>
</g>
<g>
<path d="M2265 810 c-4 -6 7 -10 24 -10 17 0 31 5 31 10 0 6 -11 10 -24 10
-14 0 -28 -4 -31 -10z"/>
</g>
<g>
<path d="M2400 810 c0 -5 9 -10 19 -10 11 0 23 5 26 10 4 6 -5 10 -19 10 -14
0 -26 -4 -26 -10z"/>
</g>
<g>
<path d="M2365 780 c-4 -6 5 -10 19 -10 14 0 26 5 26 10 0 6 -9 10 -19 10 -11
0 -23 -4 -26 -10z"/>
</g>
<g>
<path d="M430 1060 c0 -5 9 -10 19 -10 11 0 23 5 26 10 4 6 -5 10 -19 10 -14
0 -26 -4 -26 -10z"/>
</g>
<g>
<path d="M44 1028 c-9 -15 18 -18 108 -14 51 3 141 5 201 5 59 1 107 4 107 9
0 9 -410 10 -416 0z"/>
</g>
<g>
<path d="M348 1003 c-55 -3 -88 -8 -88 -15 0 -7 16 -9 46 -4 26 3 73 6 106 6
37 0 57 4 53 10 -3 6 -12 9 -18 8 -7 -1 -51 -4 -99 -5z"/>
</g>
<g>
<path d="M257 711 c-9 -16 -17 -36 -17 -45 0 -9 -8 -16 -17 -16 -15 0 -14 -4
6 -19 14 -10 30 -17 37 -14 6 2 14 -2 17 -10 6 -17 127 -24 127 -8 0 6 7 11
15 11 8 0 15 -4 15 -10 0 -5 5 -10 10 -10 16 0 11 30 -6 37 -8 3 -20 1 -27 -6
-16 -16 -52 -14 -67 4 -7 8 -21 15 -31 15 -22 0 -22 0 -9 35 8 20 6 29 -10 45
-11 11 -21 20 -23 20 -1 0 -10 -13 -20 -29z m33 -23 c0 -19 -18 -43 -25 -36
-9 9 4 48 16 48 5 0 9 -6 9 -12z"/>
</g>
<g>
<path d="M640 570 c0 -5 16 -10 35 -10 19 0 35 5 35 10 0 6 -16 10 -35 10 -19
0 -35 -4 -35 -10z"/>
</g>
<g>
<path d="M693 538 c-6 -10 -17 -9 140 -15 92 -3 137 -2 137 5 0 13 -269 21
-277 10z"/>
</g>
<g>
<path d="M670 506 c0 -8 61 -12 66 -4 3 4 -11 8 -30 8 -20 0 -36 -2 -36 -4z"/>
</g>
<g>
<path d="M820 500 c0 -5 7 -10 16 -10 8 0 12 5 9 10 -3 6 -10 10 -16 10 -5 0
-9 -4 -9 -10z"/>
</g>
<g>
<path d="M982 308 c-10 -10 0 -16 50 -30 79 -22 80 -22 76 -1 -2 11 -16 20
-38 24 -19 4 -44 10 -55 14 -11 3 -26 0 -33 -7z"/>
</g>
<g>
<path d="M2520 521 c0 -6 9 -16 21 -24 16 -12 25 -12 44 -3 30 13 33 36 5 36
-11 0 -20 -5 -20 -12 0 -9 -3 -9 -12 0 -14 14 -38 16 -38 3z"/>
</g>
<g>
<path d="M2603 483 c-9 -22 5 -27 32 -13 22 12 33 11 79 -3 29 -9 56 -17 60
-17 11 0 1 25 -10 25 -5 1 -19 6 -31 13 -30 17 -123 13 -130 -5z"/>
</g>
<g>
<path d="M2585 212 c28 -26 71 -72 97 -102 32 -37 51 -51 58 -44 7 7 -16 39
-70 102 -64 73 -86 92 -107 92 -26 0 -25 -2 22 -48z"/>
</g>
<g>
<path d="M2846 213 c-12 -12 -6 -33 9 -33 8 0 15 6 15 14 0 17 -14 28 -24 19z"/>
</g>
</g>
</g>
</svg>
