<?xml version="1.0" standalone="no"?>
<!DOCTYPE svg PUBLIC "-//W3C//DTD SVG 20010904//EN"
 "http://www.w3.org/TR/2001/REC-SVG-20010904/DTD/svg10.dtd">
<svg version="1.0" xmlns="http://www.w3.org/2000/svg"
 width="300.000000pt" height="533.000000pt" viewBox="0 0 300.000000 533.000000"
 preserveAspectRatio="xMidYMid meet">
<metadata>
Created by potrace 1.15, written by Peter Selinger 2001-2017
</metadata>
<g transform="translate(0.000000,533.000000) scale(0.100000,-0.100000)"
fill="#000000" stroke="none">
<g>
<path d="M33 5315 c-17 -13 -18 -53 -24 -792 -4 -428 -7 -1621 -8 -2652 l-1
-1873 1158 6 c636 4 1307 6 1491 5 274 -1 335 1 342 12 5 8 9 1163 9 2655 l0
2642 -25 6 c-13 3 -677 6 -1474 5 -1194 0 -1453 -3 -1468 -14z m648 -25 l79 0
-44 -64 c-54 -79 -61 -109 -41 -165 16 -45 39 -70 65 -71 8 0 22 -5 30 -10 12
-8 11 -12 -7 -32 -28 -31 -63 -103 -79 -163 -29 -106 -9 -237 49 -333 12 -20
28 -48 35 -62 19 -37 33 -52 77 -86 52 -40 115 -72 162 -82 32 -7 43 -16 73
-67 32 -54 35 -66 34 -135 -1 -97 -26 -155 -102 -231 -31 -32 -60 -59 -64 -59
-3 0 -22 28 -41 63 -28 51 -33 70 -29 105 2 25 0 42 -6 42 -6 0 -13 14 -17 30
-4 17 -10 30 -15 30 -4 0 -7 14 -5 32 2 27 9 34 49 52 25 11 46 23 46 28 0 18
-37 6 -124 -41 -50 -27 -102 -52 -116 -56 -13 -4 -36 -15 -50 -25 -45 -30
-131 -80 -139 -80 -10 0 -41 67 -34 74 4 3 14 6 23 6 9 0 56 20 104 45 49 25
93 45 98 45 5 0 43 23 85 50 42 28 81 50 87 50 6 0 16 -10 21 -22 6 -13 20
-24 32 -26 l23 -3 -20 43 c-24 55 -47 59 -109 19 -26 -17 -52 -31 -57 -31 -5
0 -15 12 -21 28 -7 15 -30 50 -52 77 -77 96 -80 101 -74 123 9 36 -6 72 -40
92 -42 26 -63 25 -93 -5 -20 -20 -25 -33 -22 -67 2 -29 9 -44 23 -52 28 -16
37 -33 57 -106 9 -36 26 -92 37 -124 12 -33 21 -61 21 -62 0 -7 -100 -54 -113
-54 -8 0 -22 -9 -31 -19 -16 -18 -16 -22 -2 -48 40 -73 60 -79 113 -33 18 17
41 30 51 30 9 0 34 -19 56 -42 39 -43 67 -90 166 -282 28 -55 58 -108 66 -120
20 -29 19 -31 -28 -47 -57 -19 -151 -108 -184 -175 l-26 -54 -50 0 c-49 0 -50
1 -65 40 -15 38 -18 40 -59 40 -24 0 -53 5 -66 10 -30 14 -52 59 -37 76 6 7 8
18 4 24 -6 10 0 14 47 24 37 8 97 62 105 95 3 14 17 36 30 48 20 19 27 20 53
11 38 -13 165 -7 181 9 25 25 -2 35 -72 29 -61 -6 -93 -2 -171 20 -13 4 -18 0
-18 -13 0 -10 -9 -24 -20 -31 -11 -7 -20 -21 -20 -31 0 -28 -59 -80 -105 -93
-22 -7 -51 -20 -64 -30 -60 -46 -140 -32 -215 37 -27 25 -51 45 -53 45 -7 0
-3 -40 5 -40 4 0 31 -23 60 -50 57 -54 112 -75 174 -67 21 3 38 2 38 -3 0 -4
-9 -27 -19 -51 -18 -40 -45 -172 -101 -484 -11 -66 -27 -151 -35 -190 -47
-233 -115 -680 -114 -755 1 -33 2 -32 14 15 20 80 45 225 65 383 11 81 26 172
35 202 8 30 15 66 15 79 0 13 6 47 14 75 8 28 26 114 40 191 76 428 82 455 97
455 5 0 24 -7 41 -16 17 -9 46 -14 64 -12 27 3 34 0 34 -13 0 -10 12 -32 27
-49 25 -30 30 -32 75 -27 43 5 48 4 44 -11 -2 -9 -7 -33 -11 -52 -3 -19 -11
-55 -17 -80 -8 -37 -6 -60 12 -135 19 -80 50 -237 50 -257 0 -5 -6 -8 -14 -8
-10 0 -16 -19 -21 -62 -6 -60 -22 -140 -51 -258 -8 -30 -19 -93 -25 -140 -6
-47 -15 -107 -20 -135 -26 -129 -59 -320 -73 -420 -31 -217 -38 -262 -56 -365
-11 -58 -24 -143 -30 -190 -22 -180 -30 -230 -55 -370 -14 -80 -30 -160 -36
-177 -6 -18 -9 -43 -7 -55 4 -22 5 -22 16 5 14 34 57 266 78 422 12 93 37 253
75 490 5 28 15 97 23 155 16 117 62 380 77 450 6 25 15 86 19 135 5 50 23 143
40 207 16 64 30 132 30 151 0 38 29 137 40 137 4 0 19 -24 35 -52 113 -211
168 -283 362 -477 52 -51 92 -99 89 -105 -2 -6 -32 -54 -65 -106 -207 -328
-312 -522 -341 -629 -10 -40 -10 -46 6 -58 10 -7 23 -13 30 -13 19 0 77 60
121 125 84 125 118 174 120 171 2 -1 -4 -29 -13 -62 -19 -75 -36 -161 -84
-439 -13 -71 -57 -261 -91 -388 -31 -115 -34 -137 -20 -137 5 0 12 17 15 38 4
20 14 60 22 87 20 72 80 335 98 435 9 47 27 146 41 222 14 75 35 165 46 200
12 34 21 72 21 82 -1 25 41 113 73 151 29 35 31 23 9 -55 -16 -57 -57 -285
-119 -660 -70 -421 -100 -584 -125 -681 -6 -20 -10 -51 -10 -70 0 -66 18 -12
44 136 15 83 36 193 47 245 11 52 28 158 39 235 10 77 32 212 48 300 17 88 33
187 37 220 4 33 25 137 47 230 22 94 42 179 44 190 2 11 19 44 38 74 20 30 37
59 39 65 3 6 8 8 11 4 4 -3 -7 -77 -24 -164 -34 -169 -55 -311 -70 -464 -13
-141 -36 -290 -65 -427 -25 -121 -33 -201 -16 -158 18 43 85 464 102 635 14
145 81 528 97 557 7 11 18 6 54 -22 26 -19 52 -35 57 -35 7 0 11 -33 11 -87 0
-49 2 -248 4 -443 5 -446 17 -534 73 -516 45 14 48 44 57 571 3 132 5 276 5
320 l1 80 59 48 c32 26 64 47 70 47 13 0 102 -132 143 -214 17 -33 38 -71 48
-85 9 -14 30 -46 46 -71 16 -25 31 -47 34 -50 4 -3 19 -30 34 -60 67 -130 109
-168 147 -134 24 21 24 38 -1 89 -11 22 -19 45 -20 50 0 6 -36 78 -81 160 -45
83 -103 192 -131 243 l-49 93 11 55 c14 66 6 84 -10 25 -13 -47 -22 -51 -39
-15 -14 31 -16 27 85 144 44 52 89 111 99 130 10 19 46 76 81 127 35 51 72
109 83 130 105 199 125 283 125 523 1 175 1 175 -33 265 -30 81 -41 98 -108
167 l-76 76 22 46 c13 25 34 62 47 81 13 20 36 60 50 88 15 29 33 56 40 60 8
4 14 14 14 21 0 8 18 38 40 67 22 30 40 59 40 66 0 22 37 35 63 22 35 -19 67
-46 61 -52 -22 -22 -154 -356 -154 -389 0 -36 15 -9 50 92 18 52 45 120 60
151 15 31 33 72 39 91 8 25 21 40 42 48 19 8 35 26 44 48 20 46 19 59 -5 65
-27 7 -25 16 9 54 39 43 103 76 70 37 -8 -10 -14 -42 -15 -78 0 -39 -8 -78
-22 -109 -26 -57 -39 -107 -25 -92 5 6 18 30 28 55 27 66 40 78 63 57 10 -9
23 -17 29 -17 6 0 13 -10 16 -22 2 -13 7 -30 11 -39 5 -12 -5 -17 -53 -26 -71
-14 -114 -33 -163 -73 -47 -39 -88 -121 -88 -176 0 -24 -5 -46 -10 -49 -6 -4
-8 -15 -5 -25 3 -10 1 -21 -5 -25 -6 -3 -17 -23 -26 -43 -29 -69 1 -153 73
-202 18 -12 33 -26 33 -31 0 -22 62 -76 120 -102 97 -45 196 -49 287 -12 37
15 74 31 81 37 14 12 13 71 11 -877 0 -346 0 -977 0 -1402 l1 -772 -253 3
c-138 1 -391 -4 -562 -11 -170 -7 -348 -13 -395 -12 -47 1 -206 2 -355 1 -148
0 -281 0 -295 0 -14 0 -250 -3 -525 -6 -275 -3 -513 -3 -528 0 l-28 6 5 2006
c3 1104 7 2286 8 2627 l3 620 220 6 c121 3 247 4 279 2 32 -1 94 -3 137 -3z
m2119 -3 l175 -2 3 -412 3 -412 -30 -65 c-43 -96 -76 -132 -156 -170 -38 -19
-84 -37 -101 -40 -20 -4 -35 -16 -42 -32 -13 -28 -71 -66 -90 -59 -7 2 -15 -3
-18 -13 -13 -38 -28 -62 -44 -67 -20 -6 -90 21 -90 35 0 6 11 27 24 48 25 38
49 100 61 162 5 22 20 46 41 63 45 37 46 75 3 111 -36 31 -88 35 -112 8 -21
-24 -33 -77 -18 -86 16 -10 13 -26 -4 -26 -8 0 -44 -45 -80 -100 -37 -57 -71
-100 -80 -100 -9 0 -43 18 -76 41 -66 44 -77 43 -99 -11 -16 -38 -8 -56 27
-63 41 -9 93 -44 93 -63 0 -9 -6 -22 -14 -28 -14 -12 -50 -100 -61 -151 -6
-29 -6 -29 14 -11 16 15 24 16 35 7 13 -11 11 -20 -14 -64 -16 -29 -69 -128
-116 -222 -48 -93 -103 -199 -124 -235 -45 -79 -147 -278 -154 -302 -6 -20
-14 -22 -35 -9 -12 8 -10 15 10 43 58 77 297 553 285 566 -8 7 -9 6 -39 -59
l-26 -56 -97 -6 c-107 -7 -189 -37 -264 -97 -21 -16 -41 -30 -45 -30 -3 0 -5
133 -4 295 2 220 6 295 15 295 6 0 14 -13 17 -28 9 -43 82 -120 125 -132 29
-7 249 -8 272 0 3 1 -8 6 -25 11 -16 5 -69 6 -118 3 -83 -6 -89 -5 -127 20
-39 26 -80 88 -90 136 -4 19 -12 25 -30 25 -24 0 -25 4 -30 65 -3 42 -1 72 7
85 7 11 12 31 12 45 1 14 1 35 1 48 0 13 5 32 10 43 12 21 32 20 104 -7 21 -8
46 -12 56 -9 23 7 34 53 25 103 l-6 38 -111 -4 c-109 -5 -110 -4 -99 16 16 30
13 77 -9 161 -19 73 -19 75 1 99 10 14 19 33 19 43 0 22 -46 77 -56 66 -4 -4
-2 -13 4 -19 18 -18 14 -73 -5 -90 -26 -21 -66 -8 -77 25 -8 22 -6 33 12 57
30 40 3 42 -28 3 -23 -30 -22 -76 4 -101 10 -10 12 -23 6 -44 -8 -25 -21 -132
-24 -192 -1 -18 -7 -21 -41 -20 -22 0 -57 4 -77 8 -36 8 -37 7 -43 -26 -4 -19
-5 -52 -3 -73 l3 -40 49 3 c28 2 57 7 66 12 13 7 20 0 34 -32 12 -30 14 -43 6
-48 -9 -5 -9 -17 -1 -46 15 -54 14 -67 -5 -60 -9 4 -31 1 -49 -6 -64 -23 -165
40 -165 104 0 23 -7 26 -86 38 -127 18 -213 62 -269 137 -16 21 -32 40 -36 43
-28 21 -81 181 -81 246 -1 68 46 215 78 245 13 12 24 30 24 40 0 9 11 24 25
33 35 23 24 35 -28 29 -37 -4 -47 -1 -75 25 -38 36 -40 57 -8 120 29 57 72
102 97 102 11 0 19 4 19 10 0 6 70 11 178 12 164 3 1395 -1 1792 -5z m-1292
-694 c17 -99 18 -186 4 -191 -17 -5 -43 17 -40 34 2 7 -6 20 -17 29 -11 8 -14
14 -6 13 7 -2 16 3 18 10 3 6 -2 12 -11 12 -22 0 -20 20 2 20 16 1 16 1 0 14
-22 16 -23 26 -3 26 11 0 14 10 11 43 -3 37 5 56 25 57 3 0 11 -30 17 -67z
m-954 -133 c45 -17 26 -89 -23 -90 -22 0 -51 30 -51 53 0 18 25 46 42 47 4 0
18 -4 32 -10z m1973 -42 c13 -12 23 -27 23 -35 0 -12 -77 -70 -83 -62 -13 18
-22 60 -19 87 3 27 7 32 29 32 15 0 37 -10 50 -22z m-964 -40 c144 2 157 1
157 -15 0 -10 3 -29 7 -42 5 -21 4 -23 -13 -17 -70 27 -348 38 -421 17 l-33
-10 0 41 0 40 73 -8 c39 -4 143 -7 230 -6z m1414 -613 c1 -688 11 -617 -95
-660 -89 -36 -172 -35 -255 4 -78 37 -107 62 -107 93 0 18 -8 27 -36 37 -52
19 -74 61 -74 144 0 52 4 69 16 74 9 3 14 13 11 25 -3 10 1 25 10 33 8 8 11
20 8 26 -13 20 6 97 35 140 42 63 86 89 172 101 86 12 106 25 88 58 -6 12 -9
33 -5 47 5 21 3 24 -10 19 -23 -9 -52 10 -70 44 -29 57 -13 127 40 168 29 23
31 32 8 33 -10 0 -3 7 17 16 129 56 202 112 232 178 6 14 12 25 13 25 0 0 1
-272 2 -605z m-2375 551 c20 -24 24 -36 16 -44 -7 -7 -8 -15 -4 -19 4 -4 11
-1 16 7 6 8 10 10 10 4 0 -6 -7 -17 -15 -24 -21 -17 -12 -24 13 -11 15 8 23 7
32 -4 10 -12 9 -15 -9 -15 -11 0 -21 -5 -21 -11 0 -7 10 -9 25 -5 27 7 32 -3
13 -22 -9 -9 -8 -12 7 -12 16 0 17 -2 3 -17 -9 -10 -14 -23 -11 -29 3 -8 -36
-34 -51 -34 -2 0 -9 21 -15 47 -7 25 -19 59 -27 75 -12 23 -13 33 -3 44 9 11
9 14 -1 14 -6 0 -10 6 -8 12 3 7 -1 24 -8 37 -12 24 -11 41 4 41 4 0 19 -15
34 -34z m938 -17 c0 -5 -21 -9 -46 -9 -25 0 -43 4 -40 9 3 4 24 8 46 8 22 0
40 -4 40 -8z m912 -34 c-4 -39 -29 -114 -57 -165 -15 -27 -50 -34 -50 -10 0 8
-11 20 -23 26 -16 8 -20 14 -12 19 6 4 17 2 23 -4 20 -20 30 -11 11 10 -19 22
-19 22 6 15 14 -3 19 -3 13 0 -19 8 -16 24 5 24 14 0 14 2 3 9 -8 5 -11 16 -7
26 5 14 9 15 21 5 9 -8 15 -8 15 -2 0 6 -5 12 -11 14 -18 6 31 80 50 76 12 -3
15 -13 13 -43z m-917 -5 c3 -6 3 -19 0 -30 -5 -16 -15 -20 -55 -20 -49 0 -66
14 -54 45 7 17 99 22 109 5z m-405 -70 c0 -36 48 -96 93 -116 23 -10 43 -19
45 -20 2 -1 -18 -92 -54 -244 -9 -36 -24 -94 -35 -129 -22 -72 -25 -111 -8
-94 8 8 71 251 114 441 6 25 58 51 91 44 19 -3 22 -12 27 -105 5 -99 1 -546
-5 -553 -2 -1 -24 10 -48 25 -54 33 -120 50 -217 55 l-73 3 -49 97 -48 97 26
17 c46 29 108 96 136 146 23 42 27 61 29 140 1 85 -1 95 -32 154 -30 58 -31
62 -12 62 13 0 20 -7 20 -20z m395 -11 c10 -15 6 -16 -47 -11 -27 2 -45 8 -42
13 7 13 81 11 89 -2z m690 -64 c38 -23 59 -33 148 -72 20 -9 37 -20 37 -25 0
-4 5 -8 11 -8 5 0 35 -12 65 -26 39 -18 54 -30 50 -41 -3 -8 -6 -19 -6 -24 0
-20 -33 -6 -126 51 -53 34 -111 67 -129 74 -30 13 -164 77 -174 83 -2 2 4 12
14 23 19 21 20 21 110 -35z m-755 13 c0 -7 3 -285 5 -617 3 -332 8 -608 11
-613 6 -9 -33 -58 -45 -58 -5 0 -6 1249 -2 1293 2 12 31 8 31 -5z m61 -485 c2
-519 0 -725 -7 -732 -2 -2 -6 -2 -9 0 -2 3 -7 237 -11 519 -7 500 -2 710 17
710 5 0 10 -208 10 -497z m794 457 c3 -5 2 -10 -4 -10 -5 0 -13 5 -16 10 -3 6
-2 10 4 10 5 0 13 -4 16 -10z m-1515 -75 c0 -7 -132 -66 -137 -62 -7 8 26 29
74 47 51 20 63 23 63 15z m1498 -25 c28 -17 52 -35 52 -41 0 -6 -4 -9 -8 -7
-73 29 -122 55 -122 66 0 19 21 14 78 -18z m-1478 -46 c0 -16 -12 -27 -49 -43
-27 -11 -54 -21 -60 -21 -10 0 -36 39 -29 44 2 1 30 16 63 33 62 33 75 31 75
-13z m1473 -4 c33 -16 33 -18 1 -54 l-25 -29 -42 19 c-59 25 -59 26 -42 67 17
41 12 41 108 -3z m-1443 -44 c0 -17 -16 -29 -63 -45 -55 -18 -55 -9 0 28 54
34 63 37 63 17z m1365 -38 c38 -19 59 -38 40 -38 -12 0 -94 46 -95 53 0 11 5
9 55 -15z m-1352 -50 c9 -18 25 -49 36 -68 11 -19 47 -89 79 -155 33 -66 110
-218 171 -338 75 -146 110 -224 106 -235 -5 -12 -23 15 -64 98 -31 63 -66 133
-78 155 -12 22 -45 87 -74 145 -28 58 -57 112 -65 120 -16 19 -144 284 -144
299 0 21 17 10 33 -21z m-47 -46 c68 -148 117 -249 130 -263 8 -9 37 -61 65
-115 28 -55 57 -106 64 -114 21 -23 135 -253 135 -270 0 -9 5 -21 12 -28 6 -6
9 -15 5 -19 -4 -4 -11 -2 -16 3 -18 18 -115 193 -213 384 -55 107 -104 200
-108 206 -10 11 -130 252 -130 259 0 3 8 5 18 5 10 -1 25 -18 38 -48z m1407
42 c12 -4 3 -27 -42 -107 -55 -96 -200 -380 -263 -512 -16 -33 -35 -71 -44
-85 -8 -14 -24 -44 -34 -67 -15 -34 -24 -43 -45 -43 -14 0 -25 2 -25 4 0 7
164 323 195 376 26 44 133 249 219 417 12 24 16 26 39 17z m-478 -684 c-5 -8
-11 -8 -17 -2 -6 6 -7 16 -3 22 5 8 11 8 17 2 6 -6 7 -16 3 -22z m-945 -130
c0 -5 -4 -10 -10 -10 -5 0 -10 5 -10 10 0 6 5 10 10 10 6 0 10 -4 10 -10z
m560 -219 c0 -16 -30 -33 -47 -27 -15 6 -14 9 7 21 31 16 40 18 40 6z m260
-557 c0 -8 -4 -14 -10 -14 -5 0 -10 9 -10 21 0 11 5 17 10 14 6 -3 10 -13 10
-21z m-385 -194 c3 -5 2 -10 -4 -10 -5 0 -13 5 -16 10 -3 6 -2 10 4 10 5 0 13
-4 16 -10z m1 -101 l22 -21 -40 -71 c-23 -40 -57 -97 -77 -126 -20 -30 -52
-82 -71 -115 -19 -34 -57 -94 -85 -135 -27 -41 -64 -97 -81 -124 -17 -28 -38
-55 -46 -61 -8 -6 -23 -23 -32 -38 -10 -16 -22 -28 -27 -28 -20 0 -7 50 37
140 73 150 85 172 126 232 21 31 38 60 38 63 0 3 19 36 43 73 23 36 47 74 52
83 39 66 100 149 108 149 6 0 21 -9 33 -21z m624 -111 c26 -51 64 -124 85
-163 92 -172 195 -382 195 -397 0 -46 -55 13 -105 112 -21 41 -54 100 -75 130
-34 50 -83 138 -85 150 0 3 -10 19 -21 35 -33 47 -64 112 -64 136 0 12 -8 23
-20 26 -11 3 -20 8 -20 11 0 9 53 62 58 58 2 -3 25 -46 52 -98z m-342 -57 c11
-7 12 -92 7 -467 -4 -254 -10 -463 -16 -468 -5 -5 -12 -7 -16 -3 -18 18 -31
441 -25 805 2 128 4 142 20 142 9 0 23 -4 30 -9z"/>
<g>
<path d="M2412 3843 c-24 -54 -165 -415 -177 -452 -5 -17 -4 -22 6 -19 7 2 27
42 45 89 18 46 62 159 98 251 70 179 70 178 58 178 -5 0 -18 -21 -30 -47z"/>
</g>
<g>
<path d="M2616 3854 c-4 -9 -4 -19 -2 -21 8 -8 26 8 26 23 0 19 -16 18 -24 -2z"/>
</g>
<g>
<path d="M2317 3773 c-40 -95 -96 -254 -103 -289 -12 -70 12 -25 65 121 29 77
56 150 61 163 12 28 13 42 2 42 -5 0 -16 -17 -25 -37z"/>
</g>
<g>
<path d="M375 3213 c-13 -73 -57 -299 -87 -448 -50 -245 -62 -337 -43 -343 10
-4 16 22 34 138 5 30 22 123 39 205 17 83 38 191 47 240 9 50 23 111 31 137
17 52 15 99 -3 105 -7 3 -14 -11 -18 -34z"/>
</g>
<g>
<path d="M211 3187 c-5 -13 -12 -46 -16 -73 -4 -27 -11 -65 -16 -85 -5 -20
-16 -81 -24 -135 -7 -55 -27 -171 -43 -259 -17 -88 -32 -191 -34 -230 l-5 -70
14 45 c14 47 136 688 148 778 7 55 -7 73 -24 29z"/>
</g>
<g>
<path d="M577 3143 c-6 -12 -58 -292 -87 -468 -34 -215 -43 -262 -85 -460 -48
-226 -90 -462 -97 -542 -5 -55 17 -37 24 19 8 66 71 410 98 538 25 115 65 326
90 475 10 61 28 150 39 198 12 48 21 100 21 115 0 15 7 40 15 56 8 15 15 34
15 41 0 16 -27 39 -33 28z"/>
</g>
<g>
<path d="M2887 2943 c-19 -65 -61 -201 -92 -303 -55 -176 -94 -316 -95 -332 0
-5 4 -8 9 -8 4 0 18 35 30 78 12 42 31 109 42 147 35 121 80 266 121 390 47
144 46 137 32 142 -6 2 -26 -46 -47 -114z"/>
</g>
<g>
<path d="M2845 3028 c-18 -51 -56 -177 -75 -243 -12 -44 -46 -161 -76 -260
-184 -605 -205 -681 -229 -800 -9 -44 -18 -88 -21 -97 -3 -10 -1 -18 4 -18 13
0 32 46 32 78 0 37 78 329 126 470 14 42 32 100 39 127 12 46 38 133 116 390
17 55 48 155 70 222 21 67 39 127 39 133 0 14 -20 13 -25 -2z"/>
</g>
<g>
<path d="M2597 2913 c-20 -54 -48 -138 -62 -188 -14 -49 -46 -153 -70 -230
-24 -77 -53 -174 -64 -215 -11 -41 -31 -115 -45 -165 -51 -180 -77 -270 -83
-289 -4 -11 -2 -17 4 -13 5 3 17 34 27 69 9 35 24 86 32 113 8 28 34 124 59
215 44 159 107 364 201 654 25 76 43 140 41 143 -3 2 -21 -40 -40 -94z"/>
</g>
<g>
<path d="M2669 2923 c-19 -50 -111 -336 -131 -408 -30 -109 -99 -317 -114
-347 -17 -32 -18 -48 -4 -48 6 0 10 5 10 11 0 6 9 22 20 36 11 14 34 71 51
127 17 55 37 120 45 144 8 23 14 48 14 55 0 7 32 108 70 226 39 117 70 218 70
222 0 20 -21 7 -31 -18z"/>
</g>
<g>
<path d="M696 2363 c-3 -10 -15 -74 -25 -143 -11 -69 -29 -170 -41 -225 -72
-352 -96 -519 -70 -474 5 9 14 45 19 80 16 100 29 173 39 215 6 22 13 62 17
89 3 28 15 88 25 135 10 47 26 132 35 190 9 58 19 115 22 128 6 26 -13 30 -21
5z"/>
</g>
<g>
<path d="M785 2338 c-2 -7 -9 -46 -15 -87 -6 -41 -13 -77 -15 -81 -2 -3 -16
-74 -30 -156 -14 -82 -36 -200 -48 -262 -13 -62 -20 -115 -16 -118 10 -6 13 6
49 201 17 94 46 245 65 336 19 92 35 169 35 173 0 11 -21 6 -25 -6z"/>
</g>
<g>
<path d="M1681 1678 c-7 -40 -23 -119 -37 -176 -23 -101 -30 -151 -18 -139 7
7 84 345 84 369 0 10 -4 18 -8 18 -4 0 -13 -33 -21 -72z"/>
</g>
<g>
<path d="M1660 1715 c-6 -16 -14 -46 -16 -65 -4 -29 -1 -26 16 20 21 57 21 97
0 45z"/>
</g>
<g>
<path d="M1736 1659 c-8 -41 -20 -101 -27 -134 -6 -33 -26 -122 -45 -197 -37
-149 -38 -158 -25 -158 5 0 17 35 26 78 15 68 46 207 91 401 10 41 12 67 5 74
-6 6 -15 -18 -25 -64z"/>
</g>
<g>
<path d="M1792 1610 c-6 -30 -21 -118 -32 -195 -12 -77 -35 -210 -51 -295 -32
-172 -59 -328 -59 -341 0 -5 5 -9 10 -9 6 0 10 13 10 29 0 16 18 123 39 238
52 270 104 599 98 615 -2 7 -9 -12 -15 -42z"/>
</g>
<g>
<path d="M628 1454 c-4 -6 -14 -49 -22 -95 -8 -46 -29 -151 -45 -234 -16 -82
-39 -217 -51 -300 -11 -82 -23 -163 -26 -180 -4 -27 -4 -28 7 -10 12 18 21 69
54 295 8 58 33 194 56 303 37 182 45 250 27 221z"/>
</g>
<g>
<path d="M1607 1316 c-5 -15 -6 -31 -3 -34 8 -8 18 25 14 45 -3 13 -6 10 -11
-11z"/>
</g>
<g>
<path d="M2660 613 c-17 -7 -40 -29 -40 -37 0 -10 138 -7 144 3 14 22 -68 49
-104 34z"/>
</g>
<g>
<path d="M476 588 c-60 -233 -106 -519 -77 -478 6 8 11 29 11 47 0 33 2 46 44
248 35 167 39 195 32 195 -4 0 -8 -6 -10 -12z"/>
</g>
<g>
<path d="M2525 549 c-4 -6 2 -13 14 -16 35 -9 24 -20 -29 -27 -79 -11 -59 -26
34 -26 106 0 125 -18 24 -22 -72 -3 -73 -3 -44 -18 23 -11 30 -12 34 -2 4 14
58 17 66 3 4 -5 9 -50 13 -100 4 -67 10 -91 19 -91 11 0 14 22 14 96 0 95 0
96 23 91 12 -3 66 -11 119 -18 76 -10 103 -10 124 0 35 15 20 32 -43 49 -26 7
-66 18 -88 25 l-40 12 40 5 c59 7 20 20 -68 22 -56 1 -61 2 -24 5 26 2 45 8
42 14 -9 13 -222 12 -230 -2z m88 -56 c-13 -2 -35 -2 -50 0 -16 2 -5 4 22 4
28 0 40 -2 28 -4z m100 0 c-7 -2 -21 -2 -30 0 -10 3 -4 5 12 5 17 0 24 -2 18
-5z m104 -26 c91 -11 114 -20 97 -37 -9 -9 -41 -7 -125 5 -120 18 -124 19
-116 32 7 12 51 12 144 0z"/>
</g>
<g>
<path d="M1610 538 c0 -7 -3 -24 -7 -37 -4 -16 -2 -22 4 -18 14 9 23 56 12 63
-5 3 -9 -1 -9 -8z"/>
</g>
<g>
<path d="M2730 390 c0 -15 27 -23 47 -16 15 6 15 8 3 16 -20 13 -50 12 -50 0z"/>
</g>
<g>
<path d="M1443 5211 c-56 -3 -107 -11 -114 -18 -17 -17 -1 -34 29 -31 17 2 27
-2 26 -9 -1 -7 -2 -28 -2 -47 -2 -25 -7 -35 -22 -39 -11 -3 -20 -13 -20 -22 0
-13 6 -16 26 -11 14 4 75 9 135 11 61 2 114 7 119 10 17 11 11 23 -15 29 -22
6 -25 12 -25 51 0 43 1 45 25 39 20 -5 25 -3 25 14 0 20 -27 33 -65 30 -11 -1
-66 -4 -122 -7z m97 -81 c0 -43 -3 -50 -19 -50 -17 0 -19 5 -15 38 8 51 12 62
24 62 5 0 10 -22 10 -50z m-82 -2 c-2 -31 -8 -44 -20 -46 -15 -3 -18 4 -18 36
0 42 5 52 27 52 10 0 13 -11 11 -42z"/>
</g>
<g>
<path d="M2036 3831 c-26 -11 -36 -20 -28 -25 18 -11 82 13 82 30 0 17 -5 17
-54 -5z"/>
</g>
<g>
<path d="M2104 3812 c-15 -10 -86 -151 -82 -163 2 -6 25 30 50 80 26 50 46 91
45 91 -1 0 -7 -4 -13 -8z"/>
</g>
<g>
<path d="M1816 3677 c-37 -110 -37 -107 -27 -107 11 0 70 180 61 185 -4 2 -19
-33 -34 -78z"/>
</g>
<g>
<path d="M1697 3678 c-9 -35 -20 -76 -23 -91 -4 -16 -15 -45 -24 -65 -20 -41
-16 -65 6 -34 11 16 74 223 74 245 0 4 -4 7 -9 7 -4 0 -15 -28 -24 -62z"/>
</g>
<g>
<path d="M1731 3614 c-13 -46 -13 -54 -3 -54 12 0 32 74 22 84 -5 5 -13 -9
-19 -30z"/>
</g>
<g>
<path d="M1160 3807 c0 -1 -13 -62 -30 -135 -34 -149 -35 -161 -19 -145 11 11
19 39 49 177 23 103 23 106 10 106 -5 0 -10 -1 -10 -3z"/>
</g>
<g>
<path d="M1259 3765 c0 -6 -2 -17 -5 -25 -23 -82 -54 -209 -54 -223 0 -35 18
-7 30 45 6 29 21 84 32 121 15 51 17 72 9 80 -6 6 -11 7 -12 2z"/>
</g>
</g>
</g>
</svg>
