<?xml version="1.0" standalone="no"?>
<!DOCTYPE svg PUBLIC "-//W3C//DTD SVG 20010904//EN"
 "http://www.w3.org/TR/2001/REC-SVG-20010904/DTD/svg10.dtd">
<svg version="1.0" xmlns="http://www.w3.org/2000/svg"
 width="300.000000pt" height="521.000000pt" viewBox="0 0 300.000000 521.000000"
 preserveAspectRatio="xMidYMid meet">
<metadata>
Created by potrace 1.15, written by Peter Selinger 2001-2017
</metadata>
<g transform="translate(0.000000,521.000000) scale(0.100000,-0.100000)"
fill="#000000" stroke="none">
<g>
<path d="M4 5197 c-5 -14 0 -1307 12 -3077 9 -1187 9 -1206 6 -1690 -2 -190
-2 -361 -2 -382 l0 -36 363 -3 c199 -1 385 -3 412 -3 115 -1 228 5 221 12 -4
4 -69 7 -144 7 -76 1 -293 2 -484 3 l-346 2 4 373 c2 204 4 378 4 385 0 8 17
11 58 10 l57 -2 -52 -3 c-29 -2 -53 -8 -53 -14 0 -5 65 -9 158 -9 86 0 189 -5
227 -12 79 -13 560 -12 688 1 45 4 133 6 195 3 100 -4 114 -7 123 -25 8 -14 8
-31 -1 -61 -23 -77 -45 -113 -100 -157 -52 -43 -120 -137 -120 -167 0 -17 45
-12 145 17 127 37 140 43 175 88 19 26 44 46 59 49 14 3 36 14 49 24 22 18 22
20 8 87 -8 37 -17 85 -20 106 l-5 37 81 0 81 0 54 -55 c59 -60 90 -73 193 -76
87 -2 90 -2 90 19 0 24 -57 92 -77 92 -36 0 1 15 40 16 56 1 578 5 739 4 l128
0 -6 -357 c-3 -196 -7 -359 -9 -362 -2 -3 -20 -5 -42 -5 -83 3 -162 3 -513 -1
-201 -2 -473 -3 -605 -3 -391 2 -727 -3 -749 -12 -12 -4 423 -7 966 -6 l988 1
0 2598 0 2597 -232 0 c-127 0 -229 -2 -226 -5 3 -3 99 -6 214 -6 l209 0 0
-1672 c0 -920 -2 -1869 -3 -2109 l-2 -438 -49 0 c-74 0 -105 16 -168 88 -32
36 -71 79 -88 95 -42 40 -143 87 -186 87 -24 0 -39 5 -43 16 -10 25 -7 72 5
79 6 4 9 21 8 39 -6 59 9 93 43 100 17 3 28 9 24 13 -11 11 -76 13 -76 3 0
-20 -2 -25 -12 -38 -9 -10 -16 -8 -37 12 -25 24 -108 53 -119 42 -5 -6 -31 24
-32 37 0 5 8 6 19 2 12 -4 29 5 51 25 28 26 29 30 12 30 -11 0 -25 -7 -32 -15
-7 -9 -18 -14 -24 -12 -19 8 -56 -12 -56 -29 0 -10 8 -26 17 -36 15 -16 15
-21 3 -28 -9 -5 -19 -5 -27 1 -7 6 -18 7 -25 3 -10 -6 -10 -5 -2 7 28 35 -23
190 -101 309 -16 25 -12 64 8 81 26 21 15 59 -18 59 -14 0 -31 11 -42 26 -14
19 -26 25 -44 22 l-24 -4 26 -11 c15 -7 29 -19 33 -28 3 -9 19 -21 36 -26 16
-6 30 -15 30 -19 0 -16 -32 -19 -53 -5 -24 15 -59 14 -64 -2 -2 -6 1 -14 6
-18 14 -8 14 -25 1 -25 -5 0 -16 14 -25 30 -9 17 -21 30 -28 30 -7 0 -30 9
-52 20 -29 15 -42 17 -52 9 -22 -19 -15 -57 17 -91 16 -17 30 -34 30 -38 0
-12 -26 -19 -47 -14 -29 8 -46 -18 -33 -51 14 -36 9 -39 -37 -25 -21 7 -44 14
-50 16 -7 2 -13 17 -13 33 0 33 -27 55 -53 45 -12 -4 -15 -23 -15 -77 0 -107
-2 -126 -13 -133 -5 -3 -16 -1 -23 6 -10 8 -15 8 -18 0 -2 -7 -20 4 -41 24
-26 25 -37 43 -37 64 0 16 -7 35 -15 42 -8 7 -15 21 -15 32 0 14 -6 19 -22 16
-18 -3 -22 -10 -23 -53 -2 -71 -18 -95 -60 -95 -30 0 -37 5 -50 36 -9 22 -12
50 -9 77 5 32 2 46 -9 56 -26 21 -52 9 -53 -24 -2 -61 -4 -65 -55 -90 -59 -28
-73 -25 -65 16 3 15 -1 44 -10 64 -10 26 -12 41 -4 55 16 30 12 47 -12 53 -22
6 -62 -19 -53 -33 2 -4 -2 -15 -9 -26 -9 -12 -11 -26 -5 -41 10 -27 -3 -37
-34 -29 -28 8 -60 72 -47 97 5 9 17 61 25 116 35 217 119 394 168 355 7 -5 30
-15 52 -21 22 -7 47 -15 55 -18 15 -6 25 -9 36 -12 3 0 -4 -14 -15 -29 -26
-37 -36 -79 -22 -96 12 -14 5 -73 -10 -82 -17 -10 -9 -34 10 -34 27 0 58 43
66 89 11 67 73 111 141 101 35 -5 47 -3 60 11 11 12 29 18 53 17 20 -1 49 1
66 5 25 5 40 -1 90 -36 64 -44 177 -152 212 -202 35 -49 38 -20 4 31 -18 25
-30 48 -29 50 2 1 46 -16 98 -40 52 -24 139 -53 193 -65 84 -20 109 -21 170
-13 175 24 309 126 372 286 22 56 31 197 15 249 -56 187 -105 259 -214 315
-176 90 -245 106 -467 107 l-176 0 -47 95 c-25 53 -46 104 -46 115 -1 63 -130
135 -242 135 l-56 0 2 53 c2 48 5 52 28 55 33 4 50 24 72 85 10 26 23 47 29
47 28 1 47 48 45 112 -2 67 15 115 129 357 55 118 77 244 49 286 -38 58 -106
75 -183 47 -40 -14 -57 -31 -117 -111 -83 -109 -126 -170 -126 -176 0 -4 -43
-72 -58 -90 -4 -5 -18 -25 -30 -42 -28 -39 -103 -93 -130 -93 -23 0 -62 -40
-62 -63 0 -10 6 -26 12 -37 11 -16 9 -22 -6 -33 -15 -11 -18 -22 -13 -50 6
-40 -6 -56 -28 -37 -8 6 -16 7 -19 2 -3 -6 1 -15 8 -22 16 -12 18 -50 3 -50
-5 0 -6 7 -3 16 4 11 1 14 -12 12 -17 -4 -19 -37 -3 -48 4 -3 10 -13 14 -22 6
-16 26 -23 51 -19 12 2 36 -20 36 -34 0 -6 -11 -17 -24 -23 -17 -8 -27 -22
-32 -47 -6 -35 -52 -85 -78 -85 -8 0 -37 38 -65 85 -74 121 -183 232 -307 315
-89 58 -117 71 -193 89 -49 12 -106 21 -127 21 -54 -1 -157 -24 -181 -41 -37
-26 -78 -64 -105 -97 -16 -19 -28 -30 -28 -25 -1 4 0 145 1 313 2 168 3 515 3
772 1 256 4 470 9 474 4 4 556 8 1226 8 671 1 1223 4 1227 9 4 4 -554 7 -1240
7 -1027 0 -1248 -2 -1252 -13z m1789 -945 c-2 -17 2 -34 7 -37 6 -3 10 -24 10
-46 0 -38 0 -39 -19 -20 -11 11 -21 38 -24 67 -2 27 -8 60 -13 74 -7 24 -7 25
17 8 18 -12 23 -24 22 -46z m-605 -464 c-3 -7 -13 -15 -24 -17 -16 -3 -17 -1
-5 13 16 19 34 21 29 4z m-683 -53 c74 -24 112 -44 190 -101 98 -71 165 -143
242 -257 61 -91 65 -100 50 -115 -15 -15 -18 -15 -29 0 -7 8 -35 44 -63 79
-27 35 -52 66 -55 69 -3 3 -27 31 -53 62 -50 59 -197 178 -221 178 -7 0 -25
11 -40 25 -60 55 -164 81 -250 61 -114 -27 -201 -111 -226 -220 -12 -51 -12
-67 2 -130 26 -115 41 -144 124 -236 137 -151 300 -228 575 -269 35 -6 75 -12
89 -15 14 -2 66 -9 115 -15 169 -20 190 -22 201 -23 6 -1 18 -15 27 -31 l17
-29 -112 6 c-145 8 -201 17 -318 48 -52 15 -127 31 -166 37 -80 12 -105 21
-259 96 -160 77 -235 152 -307 306 -21 44 -26 197 -9 254 31 100 87 182 143
211 67 34 241 39 333 9z m-84 -31 c42 -12 69 -28 104 -62 64 -63 78 -94 83
-183 4 -66 1 -81 -21 -125 -49 -96 -113 -139 -222 -148 -75 -6 -84 -5 -141 23
-107 51 -164 155 -151 276 7 69 36 124 89 169 72 62 157 79 259 50z m934 -24
c-5 -16 -10 -19 -18 -11 -7 7 -6 15 3 26 17 20 24 13 15 -15z m70 -13 c-5 -18
-2 -23 14 -24 11 -1 25 5 32 13 13 16 39 2 39 -22 0 -7 9 -18 20 -24 22 -12
24 -18 10 -40 -9 -13 -11 -13 -19 0 -14 21 -48 -13 -61 -62 -6 -22 -17 -38
-25 -38 -8 0 -15 -4 -15 -9 0 -5 -9 -11 -20 -14 -21 -5 -28 -27 -9 -27 8 0 8
-5 -1 -15 -10 -12 -9 -16 4 -21 22 -8 49 15 43 38 -3 10 -1 16 3 13 5 -3 17 6
26 20 9 14 23 25 31 25 8 0 17 9 20 20 3 11 9 17 14 14 5 -3 1 -17 -8 -32 -30
-45 -43 -66 -54 -89 -6 -11 -26 -29 -44 -39 -32 -17 -34 -17 -62 1 -15 10 -32
24 -36 32 -4 7 -15 13 -23 13 -20 0 19 -53 52 -71 32 -16 30 -26 -9 -64 l-33
-32 -18 43 c-16 39 -21 44 -61 50 -46 6 -96 33 -64 34 13 0 18 15 23 72 3 39
11 77 16 83 5 6 7 21 3 33 -6 23 11 31 21 10 3 -9 8 -8 16 5 6 9 18 17 26 17
8 0 17 7 20 15 4 8 13 15 22 15 22 0 52 30 52 51 0 16 8 20 53 28 4 0 5 -9 2
-22z m195 -26 c0 -6 -4 -13 -10 -16 -5 -3 -10 1 -10 9 0 9 5 16 10 16 6 0 10
-4 10 -9z m-961 -76 c32 -24 80 -72 107 -106 27 -34 63 -78 79 -98 43 -51 75
-99 75 -110 0 -5 -17 -24 -38 -43 -56 -48 -84 -95 -88 -142 -8 -100 -7 -96
-29 -90 -24 8 -93 66 -189 159 l-68 67 35 29 c20 16 48 55 64 87 37 76 40 184
5 250 -12 23 -20 42 -16 42 3 0 32 -20 63 -45z m971 25 c0 -5 -5 -10 -11 -10
-5 0 -7 5 -4 10 3 6 8 10 11 10 2 0 4 -4 4 -10z m-503 -42 c-3 -8 -6 -5 -6 6
-1 11 2 17 5 13 3 -3 4 -12 1 -19z m43 -147 c0 -12 -29 -35 -36 -28 -7 6 17
36 29 37 4 0 7 -4 7 -9z m-1 -79 c22 -10 39 -21 36 -24 -3 -3 1 -11 10 -18 8
-7 15 -25 15 -41 0 -16 5 -29 11 -29 8 0 8 -5 -1 -15 -15 -18 -5 -49 14 -42
20 8 36 -13 36 -49 0 -20 6 -34 16 -38 8 -3 14 -14 13 -23 -4 -45 2 -65 21
-70 23 -6 24 -7 8 -32 -14 -23 -4 -51 22 -58 35 -9 11 -22 -41 -21 -43 0 -52
4 -67 26 -9 15 -33 50 -54 79 -20 28 -51 75 -67 105 -64 114 -101 182 -98 183
35 22 77 61 77 71 0 18 0 18 49 -4z m466 -72 c17 -8 51 -30 78 -49 41 -31 47
-39 46 -71 -1 -19 -4 -46 -8 -60 l-7 -25 -7 28 c-4 15 -14 27 -23 27 -12 0
-14 -5 -8 -17 4 -10 9 -50 12 -89 l4 -72 -48 -11 c-92 -20 -219 -41 -238 -37
-27 4 -31 22 -6 29 28 7 36 35 16 55 -22 22 -49 6 -56 -33 -5 -26 -6 -27 -19
-11 -12 14 -11 19 5 37 18 20 18 21 -1 35 -10 8 -23 14 -28 14 -5 0 -6 15 -3
33 5 25 2 36 -14 50 -29 24 -15 41 16 20 24 -15 26 -15 45 3 18 18 18 21 3 42
-9 13 -22 21 -30 18 -10 -4 -14 2 -13 22 0 15 3 21 6 15 2 -7 16 -13 30 -13
22 0 25 3 21 30 -3 17 -1 30 3 30 4 0 9 -10 11 -22 5 -37 42 -30 46 7 l3 30
67 -1 c37 0 81 -7 97 -14z m-1486 -34 c-3 -3 -11 5 -18 17 -13 21 -12 21 5 5
10 -10 16 -20 13 -22z m891 -8 c0 -5 11 -25 23 -46 13 -20 39 -64 57 -97 66
-118 260 -391 331 -465 19 -19 46 -53 61 -75 51 -78 162 -182 248 -232 25 -15
67 -44 93 -65 26 -20 63 -42 82 -47 19 -5 49 -20 67 -33 66 -49 136 -70 248
-75 99 -5 110 -4 175 23 55 23 83 44 137 99 37 39 66 75 63 82 -2 7 2 19 10
26 27 28 47 93 48 158 1 55 -4 77 -31 131 -30 61 -79 113 -127 133 -26 11 -98
38 -155 60 -25 9 -58 23 -75 30 -33 15 -59 19 -215 36 -100 10 -116 9 -350
-26 -272 -42 -330 -48 -377 -40 -45 8 -42 25 5 26 73 1 197 25 195 37 -2 6 7
14 20 16 12 2 58 11 102 19 44 9 107 21 140 27 100 19 252 22 345 6 118 -19
219 -43 255 -60 16 -8 47 -21 67 -30 55 -22 129 -101 169 -181 40 -78 45 -94
58 -189 15 -105 -22 -231 -93 -316 -17 -19 -35 -35 -41 -35 -6 0 -24 -10 -40
-22 -109 -77 -311 -95 -456 -40 -103 39 -319 160 -319 179 0 5 -5 8 -11 8 -33
0 -268 229 -333 324 -14 21 -44 62 -66 90 -111 140 -150 192 -150 200 0 5 -6
17 -14 25 -8 9 -26 39 -41 66 -16 28 -57 100 -91 161 -62 107 -72 133 -57 147
7 8 43 -21 43 -35z m-72 -23 c19 -25 72 -113 72 -119 0 -4 11 -22 25 -40 14
-18 25 -38 25 -43 0 -6 7 -16 15 -23 8 -7 15 -19 15 -27 0 -8 9 -28 20 -43 23
-32 17 -41 -22 -33 -21 4 -29 14 -39 48 -29 96 -130 204 -206 220 -18 4 -33
10 -33 13 0 3 19 26 43 52 46 51 41 52 85 -5z m-889 -34 c50 -77 144 -153 266
-215 61 -30 123 -60 139 -66 l28 -10 -6 -78 c-8 -92 3 -136 43 -171 16 -14 38
-51 50 -82 30 -75 73 -116 136 -128 49 -9 128 -8 192 4 33 6 93 64 93 90 0 28
15 14 38 -34 27 -58 27 -71 3 -102 -61 -79 -120 -241 -136 -374 -8 -72 -26
-135 -38 -135 -5 0 -3 -8 6 -18 10 -10 14 -22 11 -25 -4 -4 -2 -12 4 -20 7 -8
7 -18 2 -27 -17 -27 -11 -30 54 -26 l64 4 6 -36 c7 -48 62 -162 119 -249 59
-89 117 -213 123 -260 2 -21 9 -53 15 -70 8 -26 7 -36 -5 -48 -8 -8 -21 -15
-28 -15 -10 0 -9 -3 2 -11 12 -8 10 -9 -7 -4 -16 4 -38 -4 -78 -30 -30 -20
-52 -41 -49 -46 12 -20 -90 -43 -181 -41 -47 1 -115 21 -115 34 0 5 10 13 23
17 19 8 20 10 5 16 -9 4 -21 4 -27 1 -21 -13 -20 15 4 78 30 80 17 89 -15 11
-13 -31 -25 -53 -28 -50 -3 2 3 23 13 46 17 38 18 42 3 53 -15 11 -17 38 -4
88 3 12 -4 2 -16 -25 -25 -50 -42 -63 -32 -22 3 14 3 25 0 25 -4 0 -11 -11
-16 -25 -5 -14 -17 -25 -28 -25 -21 0 -48 -42 -38 -59 9 -15 -1 -14 -65 5 -37
11 -78 15 -131 12 -65 -4 -84 -9 -119 -34 -48 -33 -119 -78 -167 -105 -18 -11
-57 -22 -87 -25 l-55 -7 0 254 c0 140 -3 649 -6 1132 -3 482 -4 877 -2 877 3
0 19 -22 37 -49z m121 25 c0 -7 15 -21 34 -31 33 -18 35 -18 73 2 56 29 101
37 119 22 20 -16 54 -22 54 -9 0 6 -5 10 -12 10 -9 0 -9 3 0 12 8 8 15 8 27
-2 17 -14 17 -65 1 -102 -6 -13 -2 -20 14 -26 21 -8 21 -8 -4 -20 -23 -10 -26
-9 -26 6 0 10 -15 33 -34 51 -28 28 -41 32 -89 34 -32 1 -61 -3 -68 -10 -9 -9
3 -10 47 -6 56 5 61 3 88 -26 17 -17 26 -31 20 -31 -5 0 1 -8 14 -18 13 -10
24 -25 25 -32 2 -8 6 -21 11 -29 10 -15 -13 -10 -81 19 -87 38 -233 161 -233
197 0 8 5 11 10 8 6 -3 10 -12 10 -19z m1117 -18 c-3 -7 -5 -2 -5 12 0 14 2
19 5 13 2 -7 2 -19 0 -25z m-1041 1 c9 -15 -23 -10 -35 5 -10 12 -8 13 9 9 11
-3 23 -9 26 -14z m314 -103 c0 -2 -7 -7 -16 -10 -8 -3 -12 -2 -9 4 6 10 25 14
25 6z m21 -9 c-6 -8 -7 -18 -3 -22 4 -5 1 -5 -6 -1 -10 6 -10 11 -1 22 6 8 14
14 16 14 3 0 0 -6 -6 -13z m329 -10 c0 -6 16 -27 35 -44 19 -18 35 -36 35 -40
0 -5 9 -14 21 -21 12 -7 18 -16 15 -19 -3 -3 -1 -13 4 -22 7 -15 3 -18 -36
-20 -24 -1 -70 3 -102 9 -49 10 -61 17 -80 46 -25 38 -21 64 6 37 9 -9 17 -21
17 -27 0 -6 14 -12 32 -14 17 -2 37 -10 43 -18 15 -17 40 -18 41 -1 4 44 -5
74 -27 90 -24 18 -33 57 -14 57 6 0 10 -6 10 -13z m-255 -38 c10 -15 -1 -23
-20 -15 -9 3 -13 10 -10 16 8 13 22 13 30 -1z m1095 -14 c0 -8 -4 -15 -10 -15
-5 0 -10 7 -10 15 0 8 5 15 10 15 6 0 10 -7 10 -15z m40 -5 c0 -5 -5 -10 -11
-10 -5 0 -7 5 -4 10 3 6 8 10 11 10 2 0 4 -4 4 -10z m-1275 -20 c3 -5 2 -10
-4 -10 -5 0 -13 5 -16 10 -3 6 -2 10 4 10 5 0 13 -4 16 -10z m173 -12 c-2 -13
2 -23 9 -23 6 0 15 -4 20 -9 5 -5 -2 -6 -17 -3 -14 4 -31 7 -37 7 -16 0 -17
22 -1 38 19 19 30 14 26 -10z m-168 -118 c0 -11 -4 -20 -10 -20 -5 0 -10 9
-10 20 0 11 5 20 10 20 6 0 10 -9 10 -20z m116 -5 c44 -8 88 -16 99 -18 11 -2
27 -6 35 -9 41 -15 102 -27 168 -33 39 -4 72 -11 72 -16 0 -5 -9 -9 -20 -9
-11 0 -25 -9 -32 -20 -16 -25 -25 -25 -31 -2 -3 15 -5 15 -11 -3 -5 -11 -14
-33 -21 -50 -8 -16 -12 -31 -10 -34 7 -7 35 21 30 29 -3 4 2 10 10 14 11 4 15
-2 15 -24 0 -16 5 -32 10 -35 6 -3 10 -15 10 -26 0 -11 -4 -18 -9 -15 -14 9
-33 -21 -36 -54 -3 -40 -6 -42 -43 -29 -23 8 -32 17 -32 33 0 19 -5 22 -31 21
-24 -1 -33 4 -41 21 -6 13 -15 21 -21 17 -5 -3 -3 -9 4 -14 10 -6 8 -9 -8 -9
-13 0 -23 5 -23 11 0 5 -5 7 -12 3 -6 -4 -8 -3 -5 4 4 5 4 18 1 27 -6 14 -8
13 -21 -5 -24 -35 -82 -16 -68 22 4 9 -1 18 -9 21 -9 4 -16 14 -16 23 0 10 -5
14 -15 11 -8 -4 -17 -2 -20 3 -4 6 3 10 14 10 26 0 26 8 1 30 -13 11 -20 28
-19 46 2 16 -1 39 -5 52 -9 26 -10 26 90 7z m1539 -10 c102 -21 170 -46 154
-56 -8 -5 -21 -9 -29 -9 -30 0 -116 -48 -153 -85 -22 -21 -47 -58 -58 -82 -18
-42 -19 -43 -37 -26 -10 10 -17 21 -15 25 2 4 -9 20 -24 35 -29 29 -56 80 -78
148 -7 22 -16 48 -20 59 -8 18 -4 18 91 12 54 -4 131 -14 169 -21z m-279 -7
c5 -13 8 -26 9 -30 0 -3 3 -10 8 -14 4 -4 7 -15 7 -25 0 -10 6 -33 14 -51 8
-18 17 -46 21 -61 4 -20 10 -27 20 -23 9 3 15 -1 15 -10 0 -8 7 -17 15 -20 8
-4 15 -16 15 -28 0 -28 15 -50 29 -42 7 5 11 -7 11 -38 0 -24 3 -51 6 -60 4
-11 -2 -17 -23 -21 -51 -11 -73 -24 -83 -50 -12 -32 -38 -32 -50 -1 -5 13 -13
27 -18 30 -5 3 -9 24 -10 47 -2 35 0 39 12 30 10 -9 16 -9 21 -1 4 6 4 14 1
17 -3 4 -6 0 -6 -8 -1 -9 -4 -8 -12 5 -9 16 -6 24 23 47 19 16 29 29 23 29 -6
0 -17 -7 -24 -15 -7 -9 -20 -15 -29 -13 -20 3 -41 -9 -41 -25 0 -6 7 -2 15 9
13 18 14 17 6 -11 -5 -16 -12 -39 -17 -49 -6 -15 -4 -17 7 -11 12 8 12 6 0 -8
-7 -9 -19 -17 -25 -16 -7 0 -7 2 1 5 12 5 6 34 -9 45 -5 3 -11 26 -14 50 -3
24 -9 48 -15 54 -5 5 -9 18 -9 29 0 18 -2 19 -15 5 -13 -13 -21 -64 -24 -151
-1 -16 -5 -28 -10 -28 -4 0 -8 17 -7 38 1 20 -2 53 -6 73 -5 25 -3 46 7 66 11
21 12 42 6 80 -4 29 -4 59 1 70 8 16 8 16 -6 -1 -20 -25 -31 -15 -16 14 6 12
18 19 25 16 7 -2 19 3 27 11 11 14 11 16 -4 10 -15 -5 -47 18 -37 27 6 5 101
24 131 25 19 1 29 -5 34 -21z m-223 -25 c-26 -18 -31 -38 -7 -29 15 6 15 4 0
-18 -20 -31 -20 -37 -1 -30 8 4 15 2 15 -4 0 -5 -9 -12 -20 -15 -11 -3 -20
-10 -20 -16 0 -6 4 -10 9 -8 5 1 9 -1 10 -5 3 -22 0 -29 -9 -23 -5 3 -7 0 -4
-8 3 -8 -6 -19 -23 -27 l-28 -14 30 -5 30 -4 -30 -6 c-32 -7 -35 -28 -2 -23
12 2 17 -1 13 -7 -4 -6 -20 -11 -37 -11 -16 0 -29 -4 -29 -10 0 -5 13 -10 29
-10 25 0 28 -3 23 -25 -2 -14 -9 -25 -14 -25 -6 0 -8 -7 -4 -15 10 -27 -12
-16 -53 27 -30 32 -37 46 -31 59 11 20 -6 39 -35 39 -13 0 -33 16 -53 42 -29
38 -31 43 -16 59 9 10 13 23 9 28 -3 7 2 11 15 11 15 0 22 8 26 29 6 27 10 29
93 43 47 8 97 16 111 16 l25 1 -22 -16z m-316 -43 c1 -11 0 -20 -2 -20 -2 0
-9 9 -15 20 -8 15 -8 20 3 20 7 0 13 -9 14 -20z m43 0 c0 -11 -4 -20 -10 -20
-5 0 -10 9 -10 20 0 11 5 20 10 20 6 0 10 -9 10 -20z m40 4 c0 -8 -4 -12 -10
-9 -5 3 -10 10 -10 16 0 5 5 9 10 9 6 0 10 -7 10 -16z m-218 -41 c42 -55 104
-132 165 -207 27 -32 42 -61 43 -79 0 -23 7 -31 30 -40 37 -14 41 -39 5 -34
-13 1 -27 6 -31 10 -11 11 -72 8 -79 -3 -5 -8 -11 -8 -19 -1 -7 6 -21 12 -32
14 -10 2 -28 7 -39 11 -29 11 -64 22 -115 36 -25 7 -51 14 -59 16 -11 4 -10 9
5 25 18 20 17 21 -11 45 -17 13 -22 21 -12 18 24 -8 21 4 -5 27 l-23 20 25 -6
c22 -5 23 -4 9 7 -21 17 -33 87 -24 144 l6 44 62 0 62 0 37 -47z m1220 17 c20
-6 56 -27 80 -46 176 -146 121 -400 -101 -469 -23 -7 -23 -6 -17 30 7 34 6 36
-13 30 -15 -5 -21 -2 -21 9 0 9 -6 16 -12 16 -18 -1 -48 -25 -48 -38 0 -7 -11
-9 -30 -5 -19 3 -30 1 -30 -6 0 -21 -26 -11 -69 25 -158 136 -102 393 99 455
37 11 120 10 162 -1z m-1044 -38 c6 -18 -15 -14 -22 4 -4 10 -1 14 6 12 6 -2
14 -10 16 -16z m-355 -102 c3 -11 0 -20 -5 -20 -6 0 -4 -8 5 -18 10 -10 14
-22 10 -25 -3 -4 3 -17 15 -30 21 -23 21 -23 1 -24 -24 -2 -37 27 -45 99 -5
49 8 61 19 18z m-360 -40 c-6 -22 -23 -38 -23 -21 0 17 12 41 20 41 5 0 6 -9
3 -20z m1390 -198 c-3 -7 -12 -11 -20 -8 -8 3 -21 6 -29 6 -8 0 -14 5 -14 10
0 6 15 10 34 8 24 -1 32 -6 29 -16z m-648 -39 c17 -40 15 -46 -20 -50 -23 -3
-25 0 -25 35 0 63 22 71 45 15z m335 22 c0 -9 7 -18 15 -21 8 -4 15 -10 15
-15 0 -5 -13 0 -30 13 -33 24 -38 38 -15 38 8 0 15 -7 15 -15z m390 -67 c20
-18 45 -38 56 -44 38 -23 2 -28 -39 -6 -64 35 -78 48 -71 66 8 22 11 21 54
-16z m195 -20 c-13 -56 -25 -80 -38 -75 -7 3 -24 -1 -38 -9 -22 -12 -22 -13
-4 -15 80 -6 106 -6 111 2 3 5 19 9 35 9 42 0 27 -17 -21 -25 -22 -4 -42 -11
-46 -16 -9 -15 -179 -11 -216 5 -18 8 -59 25 -92 37 -60 25 -71 44 -24 44 15
1 33 6 40 13 19 19 49 14 89 -14 21 -14 53 -27 71 -27 29 -2 34 2 45 33 11 33
12 34 12 8 1 -16 5 -28 10 -28 17 0 39 29 46 60 4 16 11 30 17 30 6 0 7 -13 3
-32z m-1113 -11 c-7 -8 -8 -18 -4 -22 4 -5 1 -5 -5 -1 -10 5 -10 11 -1 26 7
11 14 17 17 15 2 -3 -1 -11 -7 -18z m1144 -25 c-20 -20 -22 -1 -4 31 11 20 12
21 16 3 2 -10 -3 -26 -12 -34z m140 3 c-11 -8 -25 -15 -30 -15 -6 0 -2 7 8 15
11 8 25 15 30 15 6 0 2 -7 -8 -15z m-151 -35 c3 -5 -1 -10 -10 -10 -9 0 -13 5
-10 10 3 6 8 10 10 10 2 0 7 -4 10 -10z m110 -1 c5 -7 -5 -8 -32 -3 -51 9 -54
14 -10 14 20 0 39 -5 42 -11z m-621 -279 c11 0 15 -7 13 -22 -4 -25 -27 -37
-27 -14 0 9 -7 16 -15 16 -10 0 -15 10 -15 28 1 24 2 25 14 10 7 -10 21 -18
30 -18z m-819 -158 c-9 -9 -16 5 -21 44 l-4 39 15 -39 c8 -22 13 -42 10 -44z
m754 9 c-14 -4 -30 19 -22 33 3 5 12 1 20 -10 10 -13 10 -20 2 -23z m216 19
c-3 -5 -1 -10 5 -10 6 0 8 -4 5 -10 -10 -16 -23 -11 -20 8 5 23 4 22 11 22 3
0 2 -4 -1 -10z m-789 -39 c-1 -18 -5 -27 -13 -24 -14 6 -16 14 -7 37 10 26 21
18 20 -13z m165 -64 c-8 -8 -11 -7 -11 4 0 9 3 19 7 23 4 4 9 2 11 -4 3 -7 -1
-17 -7 -23z m251 10 c18 -12 69 -48 112 -81 l79 -58 -45 -42 c-25 -22 -53 -53
-62 -67 -25 -39 -23 -157 3 -239 23 -72 26 -106 11 -144 l-10 -26 -46 35 c-25
19 -56 38 -69 41 -17 4 -25 15 -30 42 -6 34 -41 111 -54 122 -25 20 -45 72
-48 130 -2 36 -8 89 -14 119 -17 99 -7 152 19 105 6 -10 24 -17 51 -18 49 -3
61 11 61 68 0 20 2 36 5 36 2 0 19 -10 37 -23z m-563 -41 c10 -25 10 -28 -2
-17 -8 6 -17 23 -20 37 -5 30 4 21 22 -20z m71 34 c12 -8 12 -10 -3 -16 -9 -3
-17 -12 -17 -20 0 -8 -7 -14 -15 -14 -18 0 -18 2 -3 35 12 28 16 29 38 15z
m90 -25 c0 -8 -4 -15 -10 -15 -5 0 -10 7 -10 15 0 8 5 15 10 15 6 0 10 -7 10
-15z m591 -58 c-7 -7 -14 -8 -21 -1 -6 6 -2 10 12 11 16 2 18 -1 9 -10z m-664
-33 c3 -9 1 -19 -6 -23 -6 -4 -9 -15 -5 -24 3 -10 1 -17 -5 -17 -17 0 -30 42
-19 63 11 21 27 22 35 1z m703 -53 c0 -6 -4 -13 -10 -16 -5 -3 -10 1 -10 9 0
9 5 16 10 16 6 0 10 -4 10 -9z m440 -11 c26 -13 41 -29 45 -45 3 -14 7 -36 10
-50 4 -20 0 -27 -19 -35 -39 -15 -66 -9 -66 15 0 27 -36 61 -73 70 l-27 7 36
29 c44 34 44 35 94 9z m-238 -130 c-29 -50 -28 -56 8 -63 17 -4 30 -11 30 -17
0 -8 -6 -8 -20 0 -16 8 -26 6 -50 -12 -16 -12 -30 -23 -30 -25 0 -14 85 -81
96 -76 8 3 16 -2 20 -10 3 -9 13 -13 27 -9 32 8 -54 -84 -122 -131 -30 -20
-48 -37 -40 -37 22 0 69 33 134 93 32 31 61 54 64 51 8 -7 -58 -70 -116 -110
-44 -30 -65 -38 -109 -40 l-54 -3 0 33 c0 39 27 120 70 213 59 125 69 148 80
177 8 23 13 27 23 17 9 -9 7 -20 -11 -51z m177 24 c8 -16 18 -36 22 -45 5 -12
-1 -20 -28 -33 -20 -9 -36 -16 -37 -14 -28 45 -39 58 -51 58 -8 0 -15 5 -15
10 0 6 6 10 13 10 8 0 24 11 37 25 28 30 40 28 59 -11z m-995 -56 c3 -16 2
-28 -3 -28 -5 0 -12 11 -15 24 -3 13 -9 32 -12 43 -6 16 -5 16 8 3 9 -8 18
-27 22 -42z m496 -42 c0 -8 -4 -18 -10 -21 -5 -3 -10 3 -10 14 0 12 5 21 10
21 6 0 10 -6 10 -14z m500 -14 c0 -5 -11 -15 -25 -22 -20 -11 -27 -11 -40 0
-8 7 -13 15 -10 18 2 3 11 0 18 -7 11 -9 17 -8 27 4 14 16 30 20 30 7z m-780
-32 c0 -5 -4 -10 -10 -10 -5 0 -10 5 -10 10 0 6 5 10 10 10 6 0 10 -4 10 -10z
m301 -31 c4 -18 5 -36 3 -38 -9 -9 -24 15 -30 48 -6 26 -4 33 7 29 7 -2 17
-20 20 -39z m509 31 c0 -5 -4 -10 -10 -10 -5 0 -10 5 -10 10 0 6 5 10 10 10 6
0 10 -4 10 -10z m193 -7 c-7 -2 -19 -2 -25 0 -7 3 -2 5 12 5 14 0 19 -2 13 -5z
m-260 -30 c-7 -2 -19 -2 -25 0 -7 3 -2 5 12 5 14 0 19 -2 13 -5z m376 -37 c33
-21 89 -66 123 -101 67 -70 115 -95 182 -95 42 0 44 -1 48 -35 l4 -34 -46 5
c-94 11 -155 43 -253 132 -63 58 -149 97 -207 95 -67 -2 -153 -47 -222 -115
-74 -73 -161 -128 -205 -128 -17 0 -35 -5 -39 -12 -5 -8 7 -9 46 -5 64 8 105
34 209 131 77 71 160 116 215 116 49 0 116 -34 197 -99 108 -87 170 -119 245
-129 50 -6 59 -10 59 -27 0 -19 -7 -20 -122 -20 -67 0 -120 2 -117 6 2 4 -13
10 -34 14 -20 4 -70 24 -111 46 -111 58 -174 55 -266 -15 -26 -20 -57 -39 -71
-42 -13 -3 -24 -10 -24 -15 0 -5 -48 -9 -107 -9 -58 0 -103 -3 -99 -7 4 -5
219 -8 476 -8 421 -1 495 -4 479 -20 -3 -2 -209 -5 -459 -5 -259 -1 -460 -6
-466 -11 -8 -6 -21 10 -43 51 -18 33 -31 61 -30 62 1 2 -3 13 -9 25 -11 21
-10 22 25 28 67 12 74 16 202 123 149 125 188 144 287 139 61 -3 80 -9 133
-41z m-1249 -108 c34 -65 41 -88 27 -82 -23 9 -77 144 -76 188 1 28 2 26 14
-16 7 -26 23 -67 35 -90z m-570 47 c0 -35 -5 -41 -27 -27 -15 10 -4 62 13 62
9 0 14 -12 14 -35z m1093 11 c3 -12 -30 -32 -39 -24 -11 12 5 40 21 36 9 -2
17 -7 18 -12z m-1240 -39 c21 -9 64 -40 95 -68 31 -28 81 -63 111 -76 47 -22
63 -25 135 -21 86 5 137 24 207 79 19 15 48 31 65 35 42 10 46 14 33 30 -9 11
-8 14 5 14 8 0 24 -17 34 -37 11 -21 38 -72 60 -114 39 -73 45 -102 16 -78 -8
7 -29 9 -51 5 -21 -3 -63 -9 -93 -11 l-55 -6 55 30 c30 17 67 30 83 31 17 0
27 5 27 15 0 12 -7 14 -27 9 -51 -12 -143 -57 -143 -70 0 -17 -309 -29 -509
-19 -86 4 -182 7 -213 7 -67 0 -68 11 -4 27 34 8 53 8 83 -3 54 -19 120 -30
108 -18 -15 15 -118 42 -157 42 -18 0 -53 -10 -78 -22 -39 -19 -66 -22 -212
-26 -161 -4 -168 -3 -168 16 0 17 9 20 73 25 86 6 141 27 224 83 105 72 168
71 331 -7 57 -27 106 -49 108 -49 3 0 26 -10 52 -21 66 -30 110 -33 239 -15
101 14 119 20 176 56 35 22 72 40 81 40 9 0 16 5 16 10 0 21 -39 9 -96 -29
-46 -31 -78 -43 -143 -55 -148 -28 -194 -22 -331 42 -169 78 -199 90 -255 96
-50 6 -70 4 -115 -14 -30 -12 -64 -30 -75 -40 -40 -37 -133 -71 -210 -77 -72
-6 -75 -5 -75 16 0 16 6 21 28 21 62 0 168 50 265 124 21 16 58 34 82 41 54
13 165 4 218 -18z m1010 -9 c35 -20 77 -61 77 -75 0 -18 -13 -16 -37 6 -11 10
-34 26 -51 35 -18 9 -32 23 -32 31 0 18 13 19 43 3z m149 -33 c-2 -14 -9 -25
-14 -25 -6 0 -7 7 -4 16 3 9 6 20 6 25 0 5 4 9 9 9 4 0 6 -11 3 -25z m-138
-47 c56 -36 64 -52 42 -77 -18 -20 -21 -47 -6 -56 26 -16 8 -27 -34 -21 -26 4
-47 3 -50 -3 -10 -15 28 -23 99 -20 40 1 70 -2 77 -9 9 -9 -12 -12 -90 -12
l-102 0 0 40 c0 38 1 39 26 30 33 -13 34 -13 34 4 0 8 -13 17 -30 21 -23 5
-30 12 -30 30 0 27 19 25 53 -3 9 -8 20 -12 23 -9 10 9 -15 36 -48 53 -19 10
-28 22 -28 39 0 32 7 31 64 -7z m-504 7 c-7 -8 -17 -15 -23 -15 -6 0 -2 7 9
15 25 19 30 19 14 0z m667 -72 c27 -16 50 -22 63 -18 16 5 20 2 20 -14 0 -11
4 -22 9 -25 5 -3 7 -15 4 -26 -6 -23 20 -49 50 -50 11 0 21 -9 24 -19 3 -11
22 -26 43 -35 34 -13 70 -48 70 -68 0 -6 -92 -1 -137 8 -13 2 -23 12 -23 20 0
11 -6 15 -20 11 -11 -3 -20 -1 -20 4 0 5 7 9 15 9 22 0 18 16 -8 33 -17 11
-28 12 -43 5 -16 -9 -17 -8 -6 3 19 20 14 31 -10 23 l-23 -7 20 23 20 23 -27
-7 c-24 -5 -28 -3 -34 19 -3 14 -12 25 -20 25 -8 0 -14 6 -14 14 0 8 -9 18
-20 21 -20 6 -25 21 -14 49 7 17 21 13 81 -21z m754 -28 c51 -25 102 -45 112
-45 11 0 18 -2 15 -5 -10 -10 -179 -17 -244 -10 -59 6 -65 9 -44 17 25 10 119
5 156 -8 13 -5 16 -4 9 3 -5 6 -31 16 -56 23 -40 10 -55 10 -105 -6 -62 -18
-164 -34 -164 -25 0 9 120 85 144 93 48 15 88 6 177 -37z m-1941 -93 c63 -4
207 -4 320 -1 325 11 480 10 480 -2 0 -7 -45 -10 -142 -8 -79 2 -267 -2 -418
-8 -227 -10 -298 -9 -410 3 -74 7 -173 14 -220 15 -57 1 -73 4 -50 8 43 7 285
4 440 -7z m1260 -66 c0 -3 -4 -8 -10 -11 -5 -3 -10 -1 -10 4 0 6 5 11 10 11 6
0 10 -2 10 -4z m-396 -52 c9 -22 8 -24 -9 -24 -8 0 -15 9 -15 20 0 24 15 27
24 4z m56 6 c0 -5 -5 -10 -11 -10 -5 0 -7 5 -4 10 3 6 8 10 11 10 2 0 4 -4 4
-10z m73 -45 c7 -21 7 -30 -1 -33 -7 -2 -12 -10 -12 -18 0 -8 -7 -14 -16 -14
-14 0 -14 -3 -4 -15 7 -9 10 -18 6 -22 -3 -3 -6 -1 -6 5 0 7 -4 12 -10 12 -5
0 -10 -9 -10 -20 0 -13 -5 -18 -16 -13 -11 4 -15 1 -12 -13 2 -14 -2 -18 -16
-16 -17 3 -18 1 -8 -11 11 -12 8 -19 -17 -36 -30 -22 -229 -83 -243 -75 -22
14 58 126 93 129 9 1 24 7 32 13 12 10 16 9 21 -3 3 -8 13 -15 23 -15 23 0 63
39 63 62 0 10 6 21 14 24 8 3 17 15 20 27 6 22 63 68 80 63 6 -1 14 -15 19
-31z m-177 -50 c-9 -7 -13 -14 -11 -17 3 -3 -4 -13 -15 -23 -16 -15 -15 -10 7
36 20 40 28 49 31 35 2 -11 -3 -25 -12 -31z"/>
<g>
<path d="M332 3620 c-5 -14 -18 -46 -27 -72 l-16 -47 -66 -3 -65 -3 47 -34
c44 -32 46 -35 40 -70 -3 -20 -13 -49 -21 -65 -24 -49 -16 -49 46 -1 l60 46
33 -22 c17 -12 42 -31 54 -42 35 -31 42 -16 22 48 -11 33 -17 65 -15 72 3 7
21 23 40 35 20 13 36 26 36 31 0 4 -27 7 -61 7 -33 0 -58 3 -56 8 2 4 -6 36
-18 72 -21 61 -23 63 -33 40z m37 -102 c1 -13 -7 -18 -29 -18 -35 0 -35 1 -13
66 l17 49 12 -40 c7 -22 13 -48 13 -57z m-89 -36 c0 -5 -6 -16 -12 -25 -12
-16 -15 -15 -43 8 l-30 24 43 1 c23 0 42 -4 42 -8z m110 -18 c13 -33 15 -29
-25 -54 -34 -21 -35 -21 -59 -3 -25 18 -31 38 -20 67 4 11 19 16 50 16 39 0
46 -3 54 -26z m64 12 c-12 -30 -54 -30 -54 0 0 9 11 14 30 14 21 0 28 -4 24
-14z m-160 -85 c16 -18 16 -20 -14 -41 -17 -12 -33 -20 -36 -17 -5 5 22 77 29
77 2 0 12 -9 21 -19z m124 -14 c20 -55 14 -60 -28 -27 -38 30 -39 33 -23 46
28 21 38 17 51 -19z"/>
</g>
<g>
<path d="M1390 3606 c25 -15 45 -12 35 5 -4 5 -18 9 -33 9 l-27 -1 25 -13z"/>
</g>
<g>
<path d="M1360 3579 c0 -5 4 -8 9 -4 5 3 12 1 15 -4 4 -5 -2 -12 -11 -14 -11
-3 -8 -5 10 -6 30 -1 38 23 11 33 -23 9 -34 7 -34 -5z"/>
</g>
<g>
<path d="M1374 3035 c-9 -22 3 -45 23 -45 31 0 46 16 38 39 -8 25 -52 29 -61
6z"/>
</g>
<g>
<path d="M1070 955 c-14 -8 -20 -14 -15 -14 6 0 21 6 35 14 14 8 21 14 15 14
-5 0 -21 -6 -35 -14z"/>
</g>
<g>
<path d="M710 2719 c0 -5 5 -7 10 -4 6 3 10 8 10 11 0 2 -4 4 -10 4 -5 0 -10
-5 -10 -11z"/>
</g>
<g>
<path d="M742 2710 c-18 -29 -15 -38 4 -12 9 13 14 25 12 27 -2 2 -9 -5 -16
-15z"/>
</g>
<g>
<path d="M910 2550 c0 -5 5 -10 10 -10 6 0 10 5 10 10 0 6 -4 10 -10 10 -5 0
-10 -4 -10 -10z"/>
</g>
<g>
<path d="M1871 2744 c-7 -8 -11 -17 -9 -20 3 -2 13 5 23 16 10 11 14 20 9 20
-5 -1 -15 -8 -23 -16z"/>
</g>
<g>
<path d="M1923 2688 c-15 -20 -25 -38 -20 -38 3 0 12 11 21 25 17 26 16 35 -1
13z"/>
</g>
<g>
<path d="M1840 2624 c0 -8 5 -12 10 -9 6 3 10 10 10 16 0 5 -4 9 -10 9 -5 0
-10 -7 -10 -16z"/>
</g>
<g>
<path d="M1870 2610 c-6 -11 -8 -20 -6 -20 3 0 10 9 16 20 6 11 8 20 6 20 -3
0 -10 -9 -16 -20z"/>
</g>
<g>
<path d="M1905 2619 c-4 -6 -5 -12 -2 -15 2 -3 7 2 10 11 7 17 1 20 -8 4z"/>
</g>
<g>
<path d="M1919 2583 c-13 -16 -12 -17 4 -4 9 7 17 15 17 17 0 8 -8 3 -21 -13z"/>
</g>
<g>
<path d="M1929 2553 c-13 -16 -12 -17 4 -4 9 7 17 15 17 17 0 8 -8 3 -21 -13z"/>
</g>
<g>
<path d="M2010 2425 c0 -8 7 -15 15 -15 9 0 12 6 9 15 -4 8 -10 15 -15 15 -5
0 -9 -7 -9 -15z"/>
</g>
<g>
<path d="M1468 2654 c-12 -27 -5 -40 26 -46 25 -4 44 26 30 49 -16 26 -44 24
-56 -3z m37 -14 c3 -5 1 -10 -4 -10 -6 0 -11 5 -11 10 0 6 2 10 4 10 3 0 8 -4
11 -10z"/>
</g>
<g>
<path d="M1610 2480 c0 -5 4 -10 9 -10 6 0 13 5 16 10 3 6 -1 10 -9 10 -9 0
-16 -4 -16 -10z"/>
</g>
<g>
<path d="M2359 2598 l-25 -63 -72 -3 c-40 -2 -72 -6 -72 -11 0 -4 23 -22 50
-40 28 -18 50 -38 50 -45 0 -7 -11 -34 -24 -62 -13 -27 -22 -51 -21 -52 6 -6
75 19 75 26 0 4 14 15 31 24 l31 18 58 -45 c32 -25 61 -45 64 -45 15 0 2 60
-28 131 -5 11 7 24 44 47 68 43 65 54 -17 51 l-67 -2 -20 66 c-12 37 -24 67
-27 67 -3 0 -17 -28 -30 -62z m45 -40 c6 -25 4 -28 -20 -28 -23 0 -25 3 -19
23 3 12 9 33 12 46 6 23 7 23 13 5 4 -10 10 -31 14 -46z m-84 -57 c0 -16 -19
-23 -40 -16 -30 10 -24 25 10 25 17 0 30 -4 30 -9z m110 -10 c16 -31 12 -47
-15 -59 -21 -10 -32 -9 -55 3 -35 18 -35 18 -14 50 20 31 68 34 84 6z m100 14
c0 -2 -14 -12 -31 -21 -26 -13 -33 -14 -40 -2 -15 23 -10 28 31 28 22 0 40 -2
40 -5z m-197 -122 c-35 -29 -46 -29 -37 0 12 39 23 48 45 34 19 -12 19 -13 -8
-34z m141 -5 c8 -35 2 -35 -42 -2 l-35 27 24 13 c28 15 43 4 53 -38z"/>
</g>
<g>
<path d="M1425 2318 c-4 -10 -4 -26 0 -35 8 -17 8 -17 12 0 3 9 3 25 0 35 -4
16 -4 16 -12 0z"/>
</g>
<g>
<path d="M2412 1049 c-51 -15 -122 -63 -172 -115 -42 -43 -112 -84 -146 -84
-8 0 -14 -4 -14 -10 0 -5 9 -10 19 -10 11 0 23 5 26 10 3 6 16 10 29 10 26 0
51 18 118 87 58 60 136 103 186 103 48 0 114 -35 165 -87 23 -24 69 -57 103
-72 67 -31 154 -49 154 -32 0 6 -13 11 -30 11 -52 0 -141 43 -199 96 -100 90
-165 115 -239 93z"/>
</g>
<g>
<path d="M433 940 c-29 -10 -65 -27 -81 -39 -16 -11 -47 -26 -70 -33 -43 -13
-56 -28 -24 -28 15 0 49 16 163 76 51 27 114 28 181 4 35 -13 79 -33 98 -45
61 -37 154 -63 165 -46 5 10 -18 21 -43 21 -9 0 -53 19 -97 41 -137 70 -203
82 -292 49z"/>
</g>
</g>
<g>
<path d="M1463 5123 c-48 -5 -63 -33 -18 -33 24 0 25 -3 25 -60 l0 -60 -36 0
c-60 0 -35 -24 32 -31 117 -10 240 16 142 31 -33 5 -33 5 -33 60 0 55 0 55 33
58 24 2 32 8 32 23 0 17 -7 19 -67 17 -38 -1 -87 -3 -110 -5z m73 -68 c8 -44
-2 -85 -21 -85 -12 0 -15 14 -15 60 0 46 3 60 15 60 8 0 17 -14 21 -35z"/>
</g>
<g>
<path d="M2759 573 c-13 -3 -16 -12 -12 -37 4 -33 4 -34 -44 -42 -60 -11 -67
-37 -10 -42 49 -4 47 -18 -4 -25 -22 -3 -43 -8 -46 -11 -13 -13 22 -36 53 -36
19 0 34 -4 34 -10 0 -5 -10 -10 -22 -10 -42 0 -69 -12 -66 -28 2 -9 8 -14 13
-11 6 2 9 7 8 12 -2 4 15 7 37 7 l40 0 1 -67 c1 -38 2 -81 2 -96 -1 -17 4 -26
11 -24 6 2 10 17 9 33 -5 78 -4 144 2 154 3 5 35 10 69 10 67 0 92 14 80 44
-5 13 -22 16 -83 18 l-76 2 63 3 c34 2 62 8 62 13 0 6 -28 10 -62 11 -66 0
-57 15 12 20 28 2 24 4 -20 9 -42 5 -47 7 -20 9 55 2 74 21 22 21 -41 0 -43 1
-40 28 2 21 9 27 28 29 14 1 18 0 8 -3 -27 -8 -22 -24 7 -24 29 0 45 28 24 41
-14 9 -51 10 -80 2z m-34 -103 c-3 -5 -13 -10 -21 -10 -8 0 -14 5 -14 10 0 6
9 10 21 10 11 0 17 -4 14 -10z m5 -60 c0 -5 -15 -10 -32 -9 -31 1 -32 1 -8 9
35 11 40 11 40 0z m158 -28 c-3 -13 -16 -18 -67 -20 -48 -2 -62 0 -59 10 4 11
24 16 111 25 12 1 17 -4 15 -15z"/>
</g>
<g>
<path d="M2790 320 c0 -5 5 -10 10 -10 6 0 10 5 10 10 0 6 -4 10 -10 10 -5 0
-10 -4 -10 -10z"/>
</g>
</g>
</svg>
