<?xml version="1.0" standalone="no"?>
<!DOCTYPE svg PUBLIC "-//W3C//DTD SVG 20010904//EN"
 "http://www.w3.org/TR/2001/REC-SVG-20010904/DTD/svg10.dtd">
<svg version="1.0" xmlns="http://www.w3.org/2000/svg"
 width="300.000000pt" height="531.000000pt" viewBox="0 0 300.000000 531.000000"
 preserveAspectRatio="xMidYMid meet">
<metadata>
Created by potrace 1.15, written by Peter Selinger 2001-2017
</metadata>
<g transform="translate(0.000000,531.000000) scale(0.100000,-0.100000)"
fill="#000000" stroke="none">
<g>
<path d="M17 5292 c-16 -17 -17 -202 -15 -2508 2 -1369 4 -2375 5 -2236 l3
252 165 0 c90 0 166 -3 168 -7 3 -5 7 -29 11 -54 l7 -46 -41 -17 c-50 -20 -58
-38 -36 -83 15 -32 20 -35 50 -30 21 3 42 0 54 -9 25 -17 115 -3 144 23 14 13
21 14 30 5 7 -7 26 -12 42 -12 17 0 51 -9 75 -20 45 -21 105 -25 198 -14 46 6
53 10 53 29 0 13 -7 25 -15 29 -29 11 -14 23 35 29 60 7 94 24 83 40 -4 7 -8
39 -8 72 l0 60 325 6 c179 3 461 7 628 8 l302 1 0 -34 c0 -23 -9 -45 -26 -66
-26 -30 -91 -70 -115 -70 -6 0 -40 -14 -76 -31 -53 -25 -64 -34 -61 -52 6 -40
42 -49 178 -43 89 3 143 10 189 25 35 12 71 21 80 21 23 0 41 20 41 45 0 17
13 25 73 43 39 13 96 27 125 31 80 12 111 51 80 101 -7 10 -10 22 -6 25 3 3
47 8 97 11 65 4 96 2 107 -7 12 -10 14 -66 11 -396 -2 -211 -6 -386 -9 -388
-2 -2 -251 -8 -553 -13 l-550 -9 568 -1 567 -2 -2 2652 -3 2653 -1481 3
c-1425 2 -1481 1 -1497 -16z m2308 -10 l661 -3 -3 -1832 c-2 -1962 -5 -2259
-24 -2266 -10 -3 -65 20 -88 36 -3 2 5 10 17 19 28 20 28 38 -3 78 -14 18 -25
38 -25 44 0 20 -52 27 -65 8 -7 -9 -17 -16 -22 -16 -23 0 -44 -39 -41 -76 2
-29 -1 -39 -12 -39 -8 0 -17 11 -18 24 -2 13 -12 37 -23 55 -10 17 -19 36 -19
42 0 6 -38 50 -84 97 -115 117 -131 148 -128 262 1 50 5 102 8 117 6 29 32 44
48 28 18 -18 54 -12 61 11 4 12 12 18 21 15 17 -7 54 14 54 30 0 6 18 19 39
29 51 23 86 59 77 81 -3 9 -2 22 3 28 7 8 1 38 -19 92 -16 43 -47 147 -70 229
-38 135 -82 238 -146 340 -17 28 -2 60 36 80 38 19 87 121 101 207 10 64 38
125 81 178 34 42 35 69 9 180 -25 102 -41 127 -143 217 -20 18 -40 38 -45 45
-11 18 -49 38 -70 38 -17 0 -53 49 -53 72 0 6 10 8 25 4 21 -5 24 -3 22 16 -1
13 -13 29 -27 36 -25 12 -25 12 6 8 40 -6 51 4 22 21 -16 8 -18 12 -7 13 22 0
27 100 5 100 -14 0 -86 74 -86 89 0 5 -26 22 -57 37 -76 39 -147 39 -221 1
-30 -15 -62 -27 -73 -27 -11 0 -33 -7 -48 -15 -24 -12 -29 -22 -34 -67 -5 -40
-3 -56 9 -68 14 -13 15 -12 9 11 -4 16 -2 30 4 33 7 5 11 -3 11 -18 0 -15 6
-26 14 -26 9 0 17 -25 26 -77 16 -101 16 -103 37 -103 12 0 27 -17 42 -50 16
-34 30 -50 42 -50 11 0 19 -3 19 -7 0 -9 -49 -40 -92 -59 -15 -7 -42 -34 -60
-59 -28 -40 -36 -45 -58 -40 -37 10 -270 11 -306 2 -30 -8 -32 -6 -38 24 -3
18 -14 41 -23 51 -16 18 -15 20 21 50 93 76 100 191 16 262 l-31 26 28 12 c31
14 74 42 115 74 84 66 93 204 14 204 -40 0 -86 -29 -86 -55 0 -42 50 -47 85
-9 14 15 25 21 25 15 0 -7 -7 -19 -15 -27 -8 -9 -15 -23 -15 -33 0 -26 -90
-119 -132 -136 l-38 -15 0 89 c0 79 2 89 19 94 13 3 18 11 15 23 -4 15 8 26
48 48 29 16 64 39 78 51 14 12 39 26 55 29 37 9 65 33 65 56 0 9 10 25 21 36
12 10 25 29 29 40 8 19 14 21 54 17 44 -5 155 24 180 48 6 5 25 9 44 9 18 0
42 5 53 10 10 6 40 11 67 12 26 0 51 3 56 6 22 13 121 8 139 -7 27 -23 173
-13 189 12 9 14 60 18 75 6 6 -6 27 -9 45 -8 18 2 42 -2 54 -9 16 -8 24 -8 32
0 16 16 15 28 -8 81 -22 50 -47 83 -99 131 -18 17 -50 47 -70 66 -65 63 -118
100 -145 100 -16 0 -26 6 -26 14 0 8 -20 21 -45 30 -25 8 -52 22 -61 30 -9 10
-33 16 -57 16 -39 0 -75 7 -224 40 -46 10 -58 9 -90 -7 -49 -23 -65 -56 -58
-113 5 -35 1 -58 -19 -101 -25 -56 -77 -111 -84 -89 -2 6 -15 23 -29 38 -20
22 -24 34 -21 77 l3 50 -53 3 c-46 3 -52 5 -41 18 16 20 8 25 -48 31 -72 6
-86 9 -107 18 -11 5 -21 3 -26 -5 -11 -17 -45 -4 -69 27 l-20 25 -38 -31 c-21
-17 -47 -31 -58 -31 -26 0 -50 -16 -50 -32 0 -8 -18 -15 -50 -18 l-50 -5 -7
-48 c-4 -27 -8 -50 -10 -51 -2 -1 -16 -6 -33 -12 -24 -7 -31 -16 -35 -44 l-5
-35 -23 29 c-31 40 -37 71 -22 116 15 45 8 81 -24 131 -19 28 -33 37 -76 47
-32 8 -58 9 -69 3 -9 -5 -54 -17 -100 -25 -58 -11 -100 -26 -140 -51 -31 -19
-64 -35 -73 -35 -10 0 -40 -13 -68 -30 -28 -16 -62 -30 -75 -30 -14 0 -34 -13
-50 -32 -15 -18 -36 -36 -46 -40 -22 -9 -59 -65 -59 -90 0 -10 -4 -18 -10 -18
-5 0 -15 -18 -21 -40 -7 -22 -16 -40 -20 -40 -5 0 -13 -19 -20 -42 -6 -24 -18
-52 -27 -63 -44 -53 -56 -105 -24 -105 10 0 40 14 66 30 26 17 64 32 85 34 36
3 72 17 100 40 16 12 84 33 154 46 26 5 57 12 67 15 14 5 20 2 20 -10 0 -14 7
-16 40 -10 32 5 40 4 40 -8 0 -29 102 -37 151 -11 38 19 86 10 94 -17 12 -36
50 -52 105 -45 49 7 56 3 51 -28 -1 -4 12 -6 29 -4 25 4 30 1 30 -17 0 -14
-10 -25 -27 -33 l-28 -12 31 5 c24 3 37 -2 54 -21 13 -13 30 -24 37 -24 8 0
31 -11 51 -25 20 -14 51 -25 68 -25 61 0 81 -45 91 -207 5 -99 -1 -103 -70
-43 -41 36 -87 96 -87 114 0 3 14 6 30 6 18 0 33 6 36 15 17 44 -74 97 -130
76 -26 -11 -28 -14 -21 -49 17 -92 88 -187 165 -220 33 -14 34 -15 15 -26 -10
-6 -35 -26 -53 -45 -33 -33 -34 -36 -30 -95 6 -72 44 -143 91 -169 23 -14 27
-21 19 -29 -7 -7 -12 -25 -12 -41 l0 -30 -62 9 c-139 20 -309 3 -350 -33 -19
-17 -24 -53 -8 -53 21 0 86 -200 93 -287 5 -66 -14 -88 -76 -86 -22 1 -47 -3
-55 -9 -19 -16 -34 3 -72 97 -66 164 -191 345 -238 345 -26 0 -33 10 -25 38 4
16 13 22 34 22 23 0 30 5 35 28 8 36 31 88 38 85 23 -11 28 1 22 50 -5 39 -3
61 8 82 9 17 16 44 16 61 0 17 7 37 16 45 14 12 14 14 -2 26 -17 12 -17 14 2
28 18 14 18 14 -6 16 -14 1 -29 1 -34 0 -5 -1 -12 2 -15 7 -3 4 -48 13 -100
19 -131 15 -205 -2 -267 -61 -24 -24 -44 -49 -44 -57 0 -8 -14 -27 -30 -42
-36 -34 -36 -41 -9 -68 11 -11 17 -24 13 -27 -3 -4 -9 -1 -11 6 -6 15 -23 6
-23 -14 0 -8 9 -14 20 -14 17 0 19 -3 8 -19 -9 -15 -9 -23 3 -37 8 -9 14 -27
14 -38 0 -12 10 -25 23 -31 39 -17 25 -56 -30 -82 -81 -39 -88 -59 -101 -310
-6 -120 -11 -301 -12 -403 0 -102 -4 -232 -8 -290 -13 -191 -19 -510 -18 -887
l1 -373 -32 0 c-18 0 -42 -7 -52 -15 -13 -10 -43 -15 -82 -15 l-63 0 5 1663
c8 2465 8 2455 17 2463 4 4 360 7 790 6 473 0 788 3 797 8 8 6 22 6 30 2 8 -4
312 -8 675 -10z m-1294 -371 c63 -24 95 -93 67 -144 -7 -12 -11 -35 -9 -51 4
-37 39 -104 62 -119 11 -7 19 -18 19 -26 0 -8 7 -11 20 -8 21 5 25 0 12 -21
-7 -10 -15 -10 -37 -2 -16 6 -35 8 -43 5 -10 -4 -13 0 -9 15 4 15 0 20 -15 20
-15 0 -19 5 -15 20 3 13 0 20 -10 20 -8 0 -11 5 -8 10 3 6 -1 13 -9 16 -9 3
-16 10 -16 15 0 4 6 6 14 3 8 -3 17 0 22 7 4 7 3 10 -4 5 -7 -4 -13 7 -18 28
-6 35 -6 35 -50 29 -27 -3 -44 -2 -44 5 0 14 24 22 49 15 21 -5 29 11 11 22
-15 9 -12 25 4 25 22 0 28 17 16 40 -8 16 -17 19 -38 14 -22 -5 -25 -4 -15 6
10 11 8 16 -10 25 -18 9 -26 9 -39 -3 -18 -15 -24 -6 -10 13 8 11 54 35 62 32
3 -1 21 -8 41 -16z m1115 -14 c3 -3 13 -3 22 1 15 5 15 4 3 -11 -7 -9 -22 -17
-33 -17 -15 0 -19 -5 -15 -20 7 -26 -9 -35 -27 -17 -12 11 -12 17 -3 28 7 7 3
6 -9 -4 -15 -12 -19 -26 -18 -54 2 -29 1 -26 -7 14 -9 44 -8 54 7 72 17 19 64
24 80 8z m108 -8 c-3 -5 -10 -7 -15 -3 -5 3 -7 10 -3 15 3 5 10 7 15 3 5 -3 7
-10 3 -15z m-1359 1 c3 -6 -4 -10 -17 -10 -18 0 -20 2 -8 10 19 12 18 12 25 0z
m1498 -7 c-7 -2 -21 -2 -30 0 -10 3 -4 5 12 5 17 0 24 -2 18 -5z m-58 -33 c-3
-5 -11 -10 -16 -10 -6 0 -7 5 -4 10 3 6 11 10 16 10 6 0 7 -4 4 -10z m-1565
-30 c0 -5 -4 -10 -10 -10 -5 0 -10 5 -10 10 0 6 5 10 10 10 6 0 10 -4 10 -10z
m650 0 c0 -5 -4 -10 -10 -10 -5 0 -10 5 -10 10 0 6 5 10 10 10 6 0 10 -4 10
-10z m774 -8 c2 -4 -7 -12 -20 -19 -26 -12 -32 -5 -12 15 14 14 25 15 32 4z
m236 -24 c0 -16 -3 -19 -11 -11 -6 6 -8 16 -5 22 11 17 16 13 16 -11z m-749
-31 c-16 -16 -20 -5 -8 23 9 22 11 23 14 6 3 -10 0 -23 -6 -29z m-1016 23 c-3
-5 -11 -10 -16 -10 -6 0 -7 5 -4 10 3 6 11 10 16 10 6 0 7 -4 4 -10z m863 -56
c-8 -7 -57 45 -58 61 0 5 14 -5 32 -22 18 -18 29 -35 26 -39z m-785 24 c-9
-11 -19 -15 -21 -9 -2 5 -11 7 -20 4 -15 -6 -15 -5 -3 10 7 9 17 15 21 12 5
-3 11 -1 15 5 4 6 11 8 16 4 6 -4 3 -14 -8 -26z m643 5 c-7 -7 -26 7 -26 19 0
6 6 6 15 -2 9 -7 13 -15 11 -17z m455 -16 c-18 -18 -13 -44 13 -60 26 -17 60
-76 50 -86 -3 -3 -11 2 -18 12 -7 9 -20 17 -28 17 -22 0 -41 -27 -34 -46 4
-11 -1 -18 -15 -21 -12 -4 -18 -11 -15 -20 8 -21 -19 -80 -43 -93 -12 -6 -19
-15 -16 -20 4 -6 -47 -40 -61 -40 -1 0 -4 12 -6 28 -3 23 -7 27 -30 24 -20 -3
-28 1 -28 12 0 9 -5 16 -11 16 -5 0 -9 -8 -8 -17 5 -51 0 -63 -23 -54 -18 7
-25 19 -31 62 -5 36 -4 55 3 57 7 3 7 9 -1 18 -9 11 -9 18 -1 26 23 23 14 56
-20 72 -17 9 -40 16 -50 16 -10 0 -21 7 -25 16 -3 9 -15 14 -32 12 -28 -3 -38
16 -21 42 9 13 12 13 21 -2 14 -25 39 -23 39 3 0 11 5 17 10 14 6 -3 8 -16 4
-29 -4 -17 1 -25 22 -34 25 -12 26 -12 22 13 -4 18 -1 25 11 26 35 3 39 5 57
25 11 12 31 25 45 28 23 5 25 3 21 -23 -2 -16 1 -32 7 -35 14 -9 51 15 51 32
0 9 6 12 16 8 9 -4 23 -1 30 5 17 14 19 -2 2 -19 -10 -10 -10 -17 0 -32 11
-18 9 -22 -13 -30 -15 -6 -31 -10 -36 -10 -11 0 -39 -25 -39 -33 0 -14 128 24
134 39 3 8 13 14 22 14 13 0 14 3 4 15 -9 11 -8 23 7 56 12 28 19 36 21 24 2
-9 -1 -22 -7 -28z m479 29 c0 -3 -4 -8 -10 -11 -5 -3 -10 -1 -10 4 0 6 5 11
10 11 6 0 10 -2 10 -4z m357 -18 c32 -30 29 -42 -7 -21 -16 9 -30 23 -30 30 0
19 10 16 37 -9z m-2057 2 c0 -5 -9 -10 -21 -10 -11 0 -17 5 -14 10 3 6 13 10
21 10 8 0 14 -4 14 -10z m810 0 c0 -5 -4 -10 -9 -10 -6 0 -13 5 -16 10 -3 6 1
10 9 10 9 0 16 -4 16 -10z m-945 -27 c-23 -37 -57 -74 -63 -69 -5 6 61 95 72
96 4 0 0 -12 -9 -27z m1588 2 c7 -16 -8 -29 -23 -20 -10 6 -2 35 10 35 4 0 10
-7 13 -15z m236 -4 c9 -6 10 -10 2 -16 -15 -8 -41 1 -41 15 0 12 20 13 39 1z
m58 -17 c-3 -3 -12 -4 -19 -1 -8 3 -5 6 6 6 11 1 17 -2 13 -5z m-1707 -8 c0
-3 -4 -8 -10 -11 -5 -3 -10 -1 -10 4 0 6 5 11 10 11 6 0 10 -2 10 -4z m1995
-31 l30 -25 -30 0 c-35 0 -56 16 -48 36 7 19 13 17 48 -11z m35 15 c0 -5 -2
-10 -4 -10 -3 0 -8 5 -11 10 -3 6 -1 10 4 10 6 0 11 -4 11 -10z m-1960 -15 c0
-9 -27 -28 -63 -45 -71 -33 -77 -35 -77 -19 0 18 32 38 60 39 14 0 36 9 50 20
30 24 30 24 30 5z m1310 7 c0 -13 -12 -22 -22 -16 -10 6 -1 24 13 24 5 0 9 -4
9 -8z m90 -2 c0 -5 -4 -10 -10 -10 -5 0 -10 5 -10 10 0 6 5 10 10 10 6 0 10
-4 10 -10z m-1640 -19 c-13 -25 -63 -61 -85 -61 -14 0 -15 3 -5 15 7 8 18 15
24 15 6 1 25 12 41 25 36 30 39 31 25 6z m90 9 c0 -5 -4 -10 -10 -10 -5 0 -10
5 -10 10 0 6 5 10 10 10 6 0 10 -4 10 -10z m1584 -11 c-3 -5 -10 -7 -15 -3 -5
3 -7 10 -3 15 3 5 10 7 15 3 5 -3 7 -10 3 -15z m266 0 c0 -5 -4 -9 -10 -9 -5
0 -10 7 -10 16 0 8 5 12 10 9 6 -3 10 -10 10 -16z m-120 1 c0 -5 -13 -10 -30
-10 -16 0 -30 5 -30 10 0 6 14 10 30 10 17 0 30 -4 30 -10z m-1018 -30 c-5
-34 -18 -39 -27 -10 -7 23 1 40 19 40 8 0 11 -10 8 -30z m1248 -6 c0 -19 -16
-18 -24 2 -11 27 -7 37 9 24 8 -7 15 -19 15 -26z m-1115 16 c3 -5 2 -10 -4
-10 -5 0 -13 5 -16 10 -3 6 -2 10 4 10 5 0 13 -4 16 -10z m1413 -46 c-2 -2
-14 -1 -26 3 -16 4 -22 13 -22 32 l1 26 25 -29 c14 -15 23 -30 22 -32z m-1438
20 l25 -15 -25 7 c-14 3 -29 10 -34 15 -16 14 6 10 34 -7z m120 -21 c0 -12 -7
-14 -31 -9 -17 3 -38 6 -45 6 -8 0 -11 6 -7 16 3 8 12 13 19 10 7 -3 16 -1 19
4 9 14 45 -7 45 -27z m768 30 c-16 -2 -40 -2 -55 0 -16 2 -3 4 27 4 30 0 43
-2 28 -4z m435 -12 c-3 -13 -11 -17 -24 -14 -15 4 -17 8 -8 19 17 21 38 17 32
-5z m-363 -11 c0 -5 -4 -10 -10 -10 -5 0 -10 5 -10 10 0 6 5 10 10 10 6 0 10
-4 10 -10z m207 -16 c-9 -9 -28 6 -21 18 4 6 10 6 17 -1 6 -6 8 -13 4 -17z
m-2041 3 c29 11 12 -13 -21 -29 -30 -15 -35 -15 -35 -3 0 8 5 15 10 15 6 0 10
8 10 17 0 13 3 14 11 6 6 -6 18 -9 25 -6z m855 -1 c-10 -12 -8 -17 9 -26 11
-6 25 -22 30 -36 10 -26 38 -32 58 -12 10 10 15 10 22 -2 6 -8 8 -21 5 -29 -3
-7 -1 -19 5 -26 8 -9 6 -14 -5 -19 -8 -3 -15 -16 -15 -29 0 -13 -8 -32 -19
-41 -18 -16 -18 -15 -17 15 1 34 -9 40 -66 40 -16 0 -28 2 -28 5 0 5 46 24 70
29 8 2 17 4 20 6 3 1 11 3 17 3 7 1 12 5 10 11 -3 12 -39 15 -53 4 -17 -13
-73 1 -78 20 -10 35 11 101 31 101 12 0 13 -3 4 -14z m579 10 c0 -3 -4 -8 -10
-11 -5 -3 -10 -1 -10 4 0 6 5 11 10 11 6 0 10 -2 10 -4z m-995 -26 c-3 -5 -17
-10 -31 -10 -14 0 -22 4 -19 10 3 6 17 10 31 10 14 0 22 -4 19 -10z m1123 1
c20 -12 -12 -41 -38 -34 -11 3 -20 0 -20 -6 0 -5 -7 -8 -15 -5 -21 8 0 34 26
34 11 0 19 5 19 10 0 12 10 13 28 1z m295 -5 c6 -16 -11 -36 -30 -36 -16 0
-16 5 -1 30 15 23 24 25 31 6z m77 4 c0 -5 -2 -10 -4 -10 -3 0 -8 5 -11 10 -3
6 -1 10 4 10 6 0 11 -4 11 -10z m-1880 -20 c0 -5 -4 -10 -10 -10 -5 0 -10 5
-10 10 0 6 5 10 10 10 6 0 10 -4 10 -10z m1410 -21 c0 -9 -37 -18 -44 -11 -3
3 -6 13 -6 23 0 15 3 16 25 6 14 -7 25 -15 25 -18z m-120 11 c0 -5 -4 -10 -10
-10 -5 0 -10 5 -10 10 0 6 5 10 10 10 6 0 10 -4 10 -10z m775 -6 c43 -18 42
-30 -1 -14 -19 8 -30 8 -32 1 -2 -5 -10 -7 -18 -4 -11 4 -12 9 -3 19 14 17 9
17 54 -2z m-2000 -4 c-3 -5 -13 -10 -21 -10 -8 0 -12 5 -9 10 3 6 13 10 21 10
8 0 12 -4 9 -10z m63 3 c-10 -2 -26 -2 -35 0 -10 3 -2 5 17 5 19 0 27 -2 18
-5z m556 -18 c-24 -37 -57 -33 -47 6 4 13 14 19 34 19 29 0 29 0 13 -25z
m1016 16 c0 -5 -7 -14 -15 -21 -16 -14 -18 -10 -9 14 6 17 24 22 24 7z m530
-7 c0 -2 -12 -4 -26 -4 -14 0 -23 4 -20 9 6 8 46 4 46 -5z m-280 -4 c-8 -5
-19 -10 -25 -10 -5 0 -3 5 5 10 8 5 20 10 25 10 6 0 3 -5 -5 -10z m-70 -31 c0
-18 -18 -9 -23 12 -4 16 -3 18 9 8 8 -6 14 -15 14 -20z m400 21 c0 -5 -2 -10
-4 -10 -3 0 -8 5 -11 10 -3 6 -1 10 4 10 6 0 11 -4 11 -10z m-1687 -20 c-13
-12 -53 -22 -53 -13 0 11 42 31 53 25 5 -2 5 -8 0 -12z m897 10 c0 -5 -2 -10
-4 -10 -3 0 -8 5 -11 10 -3 6 -1 10 4 10 6 0 11 -4 11 -10z m305 0 c-8 -13
-35 -13 -55 0 -11 7 -5 10 23 10 23 0 36 -4 32 -10z m-2041 -8 c3 -5 -1 -9 -9
-9 -8 0 -12 4 -9 9 3 4 7 8 9 8 2 0 6 -4 9 -8z m96 -3 c0 -12 -40 -48 -54 -49
-5 0 -3 7 4 15 6 8 8 20 4 26 -4 7 -3 9 4 5 6 -3 13 -2 17 4 8 13 25 13 25 -1z
m1420 1 c0 -5 -4 -10 -10 -10 -5 0 -10 5 -10 10 0 6 5 10 10 10 6 0 10 -4 10
-10z m700 0 c0 -5 3 -9 8 -9 20 3 32 -2 32 -16 0 -20 -29 -19 -52 2 -22 20
-23 33 -3 33 8 0 15 -4 15 -10z m275 0 c3 -5 -3 -10 -14 -10 -12 0 -21 5 -21
10 0 6 6 10 14 10 8 0 18 -4 21 -10z m-2188 -6 c-3 -3 -12 -4 -19 -1 -8 3 -5
6 6 6 11 1 17 -2 13 -5z m2033 -4 c0 -5 -7 -10 -15 -10 -8 0 -15 5 -15 10 0 6
7 10 15 10 8 0 15 -4 15 -10z m-770 -10 c0 -5 -7 -10 -15 -10 -8 0 -15 5 -15
10 0 6 7 10 15 10 8 0 15 -4 15 -10z m130 0 c0 -5 -2 -10 -4 -10 -3 0 -8 5
-11 10 -3 6 -1 10 4 10 6 0 11 -4 11 -10z m213 -11 c-6 -6 -17 -8 -24 -3 -9 5
-8 9 7 14 23 9 31 3 17 -11z m-1763 -15 c-19 -22 -51 -38 -45 -22 3 8 15 18
28 24 31 16 31 16 17 -2z m1526 -10 c17 -14 17 -15 1 -10 -10 3 -23 6 -28 6
-5 0 -9 5 -9 10 0 14 13 12 36 -6z m-96 -4 c0 -5 -4 -10 -10 -10 -5 0 -10 5
-10 10 0 6 5 10 10 10 6 0 10 -4 10 -10z m-1575 -10 c6 -9 -12 -32 -46 -58
-14 -10 -13 -6 3 28 20 40 32 48 43 30z m785 -10 c0 -5 -5 -10 -11 -10 -5 0
-7 5 -4 10 3 6 8 10 11 10 2 0 4 -4 4 -10z m70 0 c0 -5 -7 -10 -16 -10 -8 0
-12 5 -9 10 3 6 10 10 16 10 5 0 9 -4 9 -10z m170 -14 c0 -9 -39 -13 -51 -5
-10 6 -4 9 19 9 17 0 32 -2 32 -4z m318 -38 c-2 -18 -11 -24 -35 -26 -20 -2
-33 1 -33 8 0 6 8 10 18 9 32 -3 41 1 36 16 -4 8 -1 15 6 15 6 0 10 -10 8 -22z
m-323 2 c-3 -5 -16 -15 -28 -21 -21 -10 -21 -9 2 10 25 23 36 27 26 11z m69
-5 c-7 -17 -20 -20 -28 -6 -7 10 3 21 20 21 8 0 11 -6 8 -15z m112 2 c8 3 14
-1 14 -11 0 -11 -9 -16 -30 -16 -32 0 -37 9 -18 28 8 8 14 9 16 3 2 -5 10 -7
18 -4z m284 3 c0 -5 -2 -10 -4 -10 -3 0 -8 5 -11 10 -3 6 -1 10 4 10 6 0 11
-4 11 -10z m-30 -54 c0 -21 -26 -40 -36 -25 -4 8 -3 9 4 5 8 -5 12 0 12 13 0
12 5 21 10 21 6 0 10 -6 10 -14z m-70 -10 c0 -9 -10 -13 -25 -12 -33 1 -33 26
0 26 15 0 25 -6 25 -14z m120 -6 c0 -19 -45 -58 -56 -48 -4 4 45 66 54 68 1 0
2 -9 2 -20z m-506 -6 c4 -10 1 -14 -6 -12 -15 5 -23 28 -10 28 5 0 13 -7 16
-16z m146 9 c0 -2 -9 -12 -19 -22 -19 -19 -44 -11 -35 13 3 9 54 17 54 9z m55
-13 c3 -5 2 -10 -4 -10 -5 0 -13 5 -16 10 -3 6 -2 10 4 10 5 0 13 -4 16 -10z
m80 -10 c-3 -5 -10 -10 -16 -10 -5 0 -9 5 -9 10 0 6 7 10 16 10 8 0 12 -4 9
-10z m74 -44 c1 -5 -5 -3 -13 3 -10 8 -16 9 -21 1 -8 -13 -55 -13 -55 0 0 6 7
11 15 11 30 3 34 4 47 17 10 10 14 9 20 -5 3 -10 7 -22 7 -27z m-154 -16 c3
-5 1 -10 -4 -10 -6 0 -11 5 -11 10 0 6 2 10 4 10 3 0 8 -4 11 -10z m31 -167
c-9 -10 -14 -1 -20 42 l-7 40 17 -38 c9 -21 14 -41 10 -44z m21 45 c-3 -8 -6
-5 -6 6 -1 11 2 17 5 13 3 -3 4 -12 1 -19z m-227 -9 c0 -6 -4 -7 -10 -4 -5 3
-10 11 -10 16 0 6 5 7 10 4 6 -3 10 -11 10 -16z m810 -79 c0 -5 -2 -10 -4 -10
-3 0 -8 5 -11 10 -3 6 -1 10 4 10 6 0 11 -4 11 -10z m-13 -123 c7 3 18 -7 24
-21 10 -21 19 -26 46 -26 19 0 43 -5 54 -11 20 -10 20 -11 3 -30 -15 -17 -15
-19 -1 -19 9 0 19 5 22 10 5 8 11 8 20 0 7 -6 25 -8 39 -4 21 5 28 2 36 -17
19 -43 56 -99 74 -112 17 -12 15 -15 -16 -39 -53 -40 -77 -50 -109 -43 -18 4
-29 3 -29 -4 0 -6 -13 -11 -28 -11 l-29 0 17 68 c19 76 17 88 -10 65 -10 -9
-40 -24 -65 -34 l-46 -17 -10 25 c-7 20 -6 28 8 39 17 12 16 13 -8 14 -15 0
-32 6 -39 14 -6 8 -18 12 -26 9 -11 -4 -14 6 -14 50 0 30 -4 57 -10 59 -5 2
-12 22 -16 45 l-7 43 54 -29 c30 -15 60 -26 66 -24z m-1362 33 c-3 -5 -10 -10
-16 -10 -5 0 -9 5 -9 10 0 6 7 10 16 10 8 0 12 -4 9 -10z m1621 -28 c-9 -8
-26 10 -26 26 1 15 2 15 15 -2 8 -11 13 -21 11 -24z m-1681 18 c-3 -5 -10 -10
-16 -10 -5 0 -9 5 -9 10 0 6 7 10 16 10 8 0 12 -4 9 -10z m-65 -20 c0 -5 -4
-10 -9 -10 -6 0 -13 5 -16 10 -3 6 1 10 9 10 9 0 16 -4 16 -10z m1567 -6 c-3
-3 -12 -4 -19 -1 -8 3 -5 6 6 6 11 1 17 -2 13 -5z m233 2 c0 -3 -4 -8 -10 -11
-5 -3 -10 -1 -10 4 0 6 5 11 10 11 6 0 10 -2 10 -4z m-1860 -26 c0 -11 -4 -20
-10 -20 -5 0 -10 9 -10 20 0 11 5 20 10 20 6 0 10 -9 10 -20z m151 4 c11 -14
10 -15 -11 -12 -13 1 -25 9 -28 16 -5 17 23 15 39 -4z m60 0 c12 -14 11 -16
-5 -13 -11 2 -21 10 -24 17 -5 17 13 15 29 -4z m-121 -23 c0 -5 -7 -14 -15
-21 -8 -7 -15 -10 -15 -7 0 3 -3 12 -6 21 -4 12 0 16 15 16 12 0 21 -4 21 -9z
m840 -126 c0 -68 -4 -126 -9 -129 -10 -7 -42 27 -70 74 -25 41 -27 80 -6 120
17 33 63 72 76 64 5 -3 9 -61 9 -129z m-1012 108 c-2 -9 -8 -18 -15 -20 -7 -3
-9 3 -6 16 6 25 26 28 21 4z m-58 -29 c0 -16 -16 -19 -25 -4 -8 13 4 32 16 25
5 -4 9 -13 9 -21z m178 8 c3 -9 -3 -13 -19 -10 -12 1 -24 9 -27 16 -3 9 3 13
19 10 12 -1 24 -9 27 -16z m984 -18 c16 -27 17 -39 8 -80 -11 -47 -34 -84 -52
-84 -4 0 -8 45 -8 101 0 89 2 100 17 97 9 -2 25 -17 35 -34z m-807 -11 c-5
-21 -9 -62 -10 -92 -1 -52 -2 -54 -38 -70 -31 -13 -35 -19 -30 -41 10 -43 9
-45 -21 -43 -33 2 -96 42 -96 61 0 6 -4 12 -10 12 -15 0 -12 -26 5 -40 10 -8
15 -30 15 -64 0 -55 19 -84 64 -100 10 -3 16 -9 13 -12 -3 -4 -42 12 -85 34
-44 22 -98 46 -121 53 -32 9 -40 16 -35 28 3 9 14 38 23 65 12 37 26 57 59 80
34 24 39 32 27 39 -8 4 -15 15 -15 23 0 10 5 12 13 7 29 -18 106 15 161 69 18
18 39 28 58 28 30 0 30 -1 23 -37z m-250 8 c7 -12 -31 -25 -46 -15 -8 4 -7 9
2 15 18 11 36 11 44 0z m-155 -5 c0 -3 -4 -8 -10 -11 -5 -3 -10 -1 -10 4 0 6
5 11 10 11 6 0 10 -2 10 -4z m-40 -15 c0 -6 -4 -13 -10 -16 -5 -3 -10 1 -10 9
0 9 5 16 10 16 6 0 10 -4 10 -9z m120 -22 c0 -24 -23 -21 -28 4 -2 10 3 17 12
17 10 0 16 -9 16 -21z m50 -39 c0 -5 -4 -10 -10 -10 -5 0 -10 5 -10 10 0 6 5
10 10 10 6 0 10 -4 10 -10z m2000 -72 c0 -7 -25 -24 -55 -38 -37 -17 -56 -32
-60 -48 -4 -18 -10 -22 -25 -17 -14 4 -18 2 -15 -7 6 -17 -3 -29 -37 -51 -35
-22 -38 -22 -38 5 0 26 -16 13 -22 -16 -1 -11 -9 -21 -17 -24 -10 -3 -12 2 -7
22 3 14 2 26 -3 26 -5 0 -12 -11 -15 -25 -3 -13 -15 -29 -26 -35 -25 -14 -25
-6 1 36 23 39 17 45 -12 12 -22 -28 -25 -11 -3 20 22 32 -1 27 -25 -5 -13 -17
-20 -22 -20 -13 0 21 49 76 57 63 25 -38 130 -10 227 61 60 45 95 57 95 34z
m-350 -53 c0 -8 -2 -15 -4 -15 -2 0 -11 -3 -20 -6 -10 -4 -16 -1 -16 9 0 14
13 24 33 26 4 1 7 -6 7 -14z m-50 -40 c0 -8 -4 -15 -10 -15 -5 0 -10 7 -10 15
0 8 5 15 10 15 6 0 10 -7 10 -15z m370 -48 c15 -18 18 -19 65 -2 27 9 55 21
62 27 8 6 16 8 19 5 10 -10 32 -82 27 -89 -7 -13 -40 -9 -53 7 -9 10 -30 14
-75 13 -35 -1 -62 -4 -59 -7 5 -5 -26 -41 -35 -41 -3 0 -6 15 -6 33 0 28 -4
32 -27 35 -16 2 -28 6 -28 10 0 3 15 21 33 40 l32 33 15 -22 c8 -13 22 -32 30
-42z m-980 -39 c0 -34 -3 -49 -10 -42 -17 17 -17 94 0 94 6 0 10 -23 10 -52z
m53 -12 c-10 -54 -20 -49 -20 10 0 50 2 55 13 39 8 -10 11 -30 7 -49z m-1083
7 c25 -9 61 -27 80 -40 19 -13 42 -23 50 -23 9 0 21 -5 28 -12 6 -6 34 -11 62
-11 l50 1 52 -87 c59 -96 127 -247 136 -300 5 -34 5 -34 -29 -29 -35 6 -59 1
-59 -11 0 -3 12 -8 27 -9 39 -3 39 -8 4 -47 -17 -20 -31 -42 -31 -49 0 -25 64
-64 97 -58 6 2 14 -2 17 -7 4 -5 -20 -9 -56 -8 -35 1 -91 -2 -125 -6 -43 -5
-63 -5 -63 3 0 6 26 10 65 10 37 0 65 4 65 10 0 6 -22 10 -48 10 -27 0 -52 3
-55 7 -4 3 -29 14 -55 22 -40 14 -48 20 -50 45 -4 28 -3 28 40 21 24 -4 45
-11 46 -16 8 -21 35 -39 57 -39 27 0 84 44 72 56 -4 4 -18 -3 -32 -16 -29 -27
-58 -21 -53 12 2 16 11 24 28 26 40 6 46 19 20 47 -13 14 -29 25 -36 25 -12 0
-64 62 -64 78 0 4 -19 33 -42 64 -24 31 -55 77 -71 102 -35 60 -112 99 -194
99 -29 0 -56 4 -59 8 -3 5 -18 9 -35 9 -22 0 -29 5 -29 20 0 12 5 17 13 14 7
-2 30 2 50 11 44 18 47 18 47 2 0 -6 17 -18 38 -25 43 -15 175 -26 168 -13 -3
4 -32 18 -66 32 -33 13 -60 27 -60 31 0 12 -54 18 -85 10 -16 -4 -43 -6 -60
-2 l-30 5 45 22 c55 27 72 28 130 6z m887 6 c82 -12 100 -20 88 -39 -5 -8 -11
-8 -19 0 -20 15 -106 25 -106 11 0 -6 19 -11 48 -12 41 0 44 -1 22 -10 -18 -8
-21 -12 -11 -18 9 -6 10 -11 2 -15 -6 -4 -9 -12 -5 -17 3 -6 -2 -17 -12 -24
-11 -9 -14 -14 -6 -15 6 0 12 -7 12 -16 0 -11 -6 -13 -19 -9 -11 3 -22 2 -25
-3 -3 -6 3 -12 14 -15 28 -7 25 -26 -2 -21 l-23 5 23 -17 c31 -23 28 -38 -8
-30 -38 7 -39 -9 -2 -23 l27 -11 -27 5 c-29 6 -39 -9 -13 -19 17 -6 21 -36 5
-36 -5 0 -10 3 -10 8 0 18 -61 33 -107 27 -38 -6 -46 -5 -36 5 6 7 32 15 57
17 25 3 46 10 46 14 0 12 -37 11 -79 -1 -19 -5 -37 -7 -40 -4 -10 10 24 24 62
24 20 0 37 5 37 11 0 8 -18 10 -55 7 -30 -3 -52 -1 -49 4 3 4 25 8 50 8 25 0
44 5 44 11 0 7 -21 10 -62 8 -43 -3 -62 0 -65 9 -4 9 13 12 61 12 41 0 66 4
66 11 0 7 -17 10 -45 7 -27 -2 -44 1 -42 7 2 5 25 10 50 11 26 0 50 4 54 7 14
15 -117 10 -132 -4 -13 -13 -25 -11 -25 5 0 15 42 26 101 26 23 0 39 5 39 11
0 12 -98 7 -135 -7 -12 -5 -16 -4 -12 4 4 6 36 14 72 17 36 4 68 12 72 18 6
10 -66 6 -134 -9 -20 -4 -33 -3 -33 4 0 11 127 28 173 24 15 -2 27 2 27 8 0
13 -172 10 -202 -4 -11 -5 -18 -4 -18 2 0 9 56 27 110 35 51 8 121 7 197 -4z
m563 -10 c35 -12 63 -29 57 -35 -1 -2 -21 3 -42 11 -47 17 -181 20 -190 4 -5
-7 14 -9 61 -4 38 3 83 2 99 -4 25 -8 19 -10 -45 -11 -106 -3 -146 -17 -55
-20 39 -1 84 -6 100 -10 24 -6 19 -8 -30 -9 -67 -1 -60 -21 8 -21 20 0 37 -5
37 -11 0 -11 -32 -9 -92 6 -16 4 -28 3 -28 -2 0 -10 57 -33 83 -33 9 0 17 -5
17 -11 0 -7 -7 -8 -17 -4 -33 13 -93 18 -93 7 0 -5 20 -13 45 -16 24 -4 47
-11 50 -16 4 -6 -13 -7 -41 -3 -56 7 -55 -11 1 -21 46 -9 36 -27 -10 -19 -23
4 -35 2 -35 -6 0 -6 13 -11 29 -11 17 0 33 -5 37 -11 5 -8 -6 -9 -35 -4 -51 8
-56 -10 -6 -19 46 -9 36 -27 -10 -19 -22 3 -35 2 -35 -5 0 -6 14 -12 32 -14
17 -2 34 -9 36 -17 4 -11 -1 -12 -19 -7 -13 5 -36 10 -51 13 -16 3 -28 9 -28
13 0 5 -10 11 -22 13 -20 4 -19 4 5 6 15 0 27 6 27 11 0 6 -12 9 -26 8 -36 -4
-43 19 -7 25 23 3 22 4 -9 6 -44 1 -51 18 -10 24 25 4 25 4 -5 6 -22 0 -33 6
-33 16 0 8 7 15 16 15 8 0 12 5 9 10 -3 6 -1 10 4 10 6 0 11 5 11 10 0 17 -28
11 -39 -7 -12 -21 -26 -10 -35 28 -5 23 -2 28 27 37 29 9 30 10 7 11 -22 1
-63 19 -50 22 3 0 18 3 35 5 16 3 33 11 37 17 15 24 -11 27 -61 7 -48 -19 -52
-19 -49 -3 8 42 243 64 338 32z m234 -25 c4 -14 0 -27 -14 -39 -14 -12 -20
-14 -20 -5 0 7 8 19 18 26 10 8 12 13 5 14 -7 0 -13 10 -13 22 0 25 14 14 24
-18z m-54 -4 c0 -13 -7 -20 -20 -20 -13 0 -20 7 -20 20 0 13 7 20 20 20 13 0
20 -7 20 -20z m191 -24 c-16 -19 16 -43 57 -43 36 0 47 -6 37 -22 -3 -6 -17
-8 -31 -5 -14 4 -24 2 -24 -5 0 -6 5 -11 10 -11 6 0 10 -7 10 -16 0 -12 -6
-15 -22 -10 -13 3 -28 6 -35 6 -6 0 -13 10 -15 23 -5 33 -50 36 -68 3 -11 -21
-11 -28 1 -42 9 -12 10 -18 3 -21 -6 -2 -19 -10 -29 -17 -26 -19 0 -58 37 -54
15 1 35 -5 46 -15 17 -16 21 -16 35 -3 8 9 12 25 10 40 -4 19 -1 26 11 26 20
0 20 0 0 -50 -13 -32 -14 -43 -4 -55 18 -22 6 -43 -22 -38 -15 3 -30 -3 -42
-16 -19 -21 -19 -22 1 -44 11 -12 19 -26 17 -32 -2 -5 10 -18 26 -27 18 -10
30 -25 30 -37 0 -14 5 -19 15 -15 11 5 15 -1 15 -19 0 -14 3 -34 7 -44 6 -16
5 -16 -9 -5 -14 12 -17 10 -20 -15 -2 -17 -10 -29 -20 -31 -15 -3 -18 4 -18
32 0 48 -18 46 -22 -1 -2 -30 -7 -38 -23 -38 -13 0 -21 8 -23 23 -4 24 -27 25
-27 1 -1 -45 -45 -54 -45 -9 0 17 -4 30 -10 30 -5 0 -10 -9 -10 -19 0 -26 -10
-51 -20 -51 -5 0 -6 16 -3 35 7 46 -12 46 -27 1 -11 -35 -26 -46 -61 -46 -21
0 -23 10 -10 54 5 17 15 50 22 74 7 23 15 42 19 42 10 0 23 -68 15 -80 -12
-19 10 -9 33 14 17 18 21 31 16 50 -8 33 -10 34 -79 41 -32 3 -62 8 -66 11
-17 10 -9 46 11 51 11 3 20 13 20 23 0 10 8 20 18 24 9 3 23 9 30 12 17 8 15
-24 -3 -43 -21 -20 -7 -36 45 -53 21 -7 37 -17 34 -22 -3 -5 6 -21 20 -35 14
-14 26 -21 26 -16 0 13 32 13 48 0 9 -7 12 -4 12 11 0 15 5 20 15 16 26 -10
16 14 -14 35 -34 25 -45 26 -37 6 4 -11 -2 -15 -22 -15 -15 0 -22 4 -16 8 15
9 26 103 15 121 -5 8 -18 12 -30 8 -13 -3 -21 0 -21 8 0 7 -7 19 -16 26 -14
11 -19 10 -36 -10 -25 -32 -42 -15 -43 42 0 34 -4 44 -22 52 -25 11 -31 40
-10 49 10 5 10 7 0 12 -7 3 -13 12 -13 20 0 9 -5 12 -10 9 -6 -4 -18 -4 -26
-1 -12 5 -11 11 7 35 26 35 91 70 97 52 2 -6 10 -11 18 -11 8 0 14 -10 14 -21
0 -18 -3 -19 -14 -9 -8 6 -25 10 -38 8 -27 -4 -37 -41 -17 -64 7 -9 13 -25 14
-36 2 -20 21 -38 41 -38 6 0 30 18 55 40 l44 39 -21 22 -22 21 39 37 c46 43
109 66 122 44 5 -8 4 -20 -2 -27z m328 5 c5 -9 12 -37 16 -63 8 -51 5 -54 -42
-42 -28 8 -30 34 -3 41 23 6 27 43 5 43 -9 0 -15 9 -15 25 0 18 4 23 15 19 9
-4 19 -14 24 -23z m-129 9 c0 -5 -7 -10 -16 -10 -8 0 -12 5 -9 10 3 6 10 10
16 10 5 0 9 -4 9 -10z m-31 -76 c44 -22 46 -32 10 -47 -19 -8 -45 -24 -58 -36
-13 -12 -26 -19 -29 -17 -2 3 4 29 14 58 10 29 19 62 20 73 4 31 5 32 13 5 4
-14 17 -30 30 -36z m-976 16 c-2 -14 -6 -46 -9 -72 -5 -37 -1 -58 16 -93 12
-25 25 -45 28 -45 16 1 39 28 56 66 21 49 15 99 -16 126 -21 18 -17 38 7 38
32 0 128 -241 105 -264 -6 -6 -10 -18 -10 -28 0 -10 -1 -18 -3 -18 -1 0 -37
18 -78 39 -60 31 -89 40 -137 43 -34 2 -62 6 -62 9 0 11 40 203 45 217 3 8 16
12 32 10 23 -2 28 -7 26 -28z m1188 -47 c-9 -16 -10 -16 -11 4 0 12 3 30 7 40
7 16 8 16 11 -4 2 -12 -1 -30 -7 -40z m-1162 -45 c-1 -62 -2 -63 -9 -18 -6 41
-3 80 6 80 2 0 3 -28 3 -62z m43 -31 c-9 -19 -11 -13 -10 33 0 53 1 54 10 22
8 -23 8 -39 0 -55z m-1142 43 c-21 -17 -23 -21 -10 -30 22 -14 30 -12 30 9 0
29 23 43 54 31 36 -13 99 -78 93 -94 -3 -8 5 -24 19 -37 37 -34 29 -43 -13
-14 -21 14 -45 25 -55 25 -9 0 -20 5 -23 10 -3 6 -25 10 -48 10 -46 1 -87 27
-87 55 0 14 -3 15 -15 5 -12 -10 -15 -10 -15 3 0 20 39 46 70 46 l25 1 -25
-20z m2203 1 c34 -13 35 -34 6 -156 -45 -188 -47 -191 -96 -242 l-47 -48 -9
33 c-13 41 -29 42 -20 1 5 -25 3 -31 -8 -27 -8 2 -15 19 -17 36 -4 44 -20 40
-25 -5 l-4 -38 -1 42 c-1 24 -8 45 -16 50 -16 9 -22 41 -12 65 4 9 3 26 -4 37
-9 17 -8 21 6 21 15 0 15 2 0 25 -23 35 -20 56 15 93 31 33 34 57 4 32 -9 -7
-15 -8 -15 -2 0 11 93 75 132 92 26 11 69 7 111 -9z m87 -1 c0 -5 -5 -10 -11
-10 -5 0 -7 5 -4 10 3 6 8 10 11 10 2 0 4 -4 4 -10z m-2395 -100 c-3 -5 -10
-10 -16 -10 -5 0 -9 5 -9 10 0 6 7 10 16 10 8 0 12 -4 9 -10z m280 -62 c61
-48 75 -62 75 -78 0 -19 -19 -30 -51 -30 -22 0 -89 47 -89 62 0 5 -11 20 -25
34 -25 25 -30 36 -20 46 6 6 94 -21 110 -34z m642 36 c-3 -3 -12 -4 -19 -1 -8
3 -5 6 6 6 11 1 17 -2 13 -5z m58 -30 c0 -12 -8 -20 -22 -22 -25 -4 -31 16
-11 36 17 17 33 10 33 -14z m672 20 c-3 -3 -12 -4 -19 -1 -8 3 -5 6 6 6 11 1
17 -2 13 -5z m-422 -31 c48 -16 141 -78 149 -100 8 -21 -3 -38 -17 -24 -6 6
-31 11 -55 11 -36 0 -49 5 -71 29 -20 21 -39 31 -66 33 -46 4 -61 28 -17 28
16 0 43 -5 61 -11 18 -6 35 -9 38 -5 10 9 -79 46 -114 46 -17 0 -35 4 -38 10
-8 13 76 2 130 -17z m202 21 c-3 -3 -12 -4 -19 -1 -8 3 -5 6 6 6 11 1 17 -2
13 -5z m-517 -30 c0 -17 -22 -14 -28 4 -2 7 3 12 12 12 9 0 16 -7 16 -16z
m120 1 c-7 -8 -16 -12 -21 -9 -13 8 -1 24 18 24 13 0 13 -3 3 -15z m468 -13
c3 -19 -1 -23 -15 -20 -10 2 -19 14 -21 26 -3 19 1 23 15 20 10 -2 19 -14 21
-26z m-1505 11 c-7 -2 -19 -2 -25 0 -7 3 -2 5 12 5 14 0 19 -2 13 -5z m192
-54 c3 -9 15 -19 25 -22 11 -3 20 -12 20 -20 0 -19 -12 -28 -26 -19 -14 10
-74 103 -74 115 0 15 49 -33 55 -54z m679 30 c-8 -13 -24 -1 -24 18 0 13 3 13
15 3 8 -7 12 -16 9 -21z m216 11 c-6 -11 -17 -20 -25 -20 -13 0 -13 3 -3 20 7
11 19 20 26 20 10 0 10 -5 2 -20z m330 6 c0 -8 3 -21 6 -30 4 -12 0 -16 -15
-16 -24 0 -36 21 -27 45 7 19 36 20 36 1z m179 -4 c7 -13 6 -23 -1 -30 -19
-19 -27 -14 -26 18 1 34 13 39 27 12z m39 6 c18 -18 15 -68 -3 -68 -17 0 -20
-16 -5 -25 6 -3 10 -11 10 -17 0 -6 -11 -1 -25 12 l-25 24 21 22 c17 18 19 26
10 43 -13 23 -2 28 17 9z m-87 -21 c-13 -13 -26 -3 -16 12 3 6 11 8 17 5 6 -4
6 -10 -1 -17z m-1435 -14 c-7 -7 -26 7 -26 19 0 6 6 6 15 -2 9 -7 13 -15 11
-17z m1344 6 c0 -6 -4 -7 -10 -4 -5 3 -10 11 -10 16 0 6 5 7 10 4 6 -3 10 -11
10 -16z m-483 -9 c-43 -8 -52 -14 -42 -30 5 -8 24 -10 59 -6 36 5 47 3 36 -4
-8 -5 -28 -10 -43 -10 -16 0 -30 -7 -34 -15 -9 -24 4 -30 32 -15 14 7 28 11
31 8 3 -4 -4 -9 -15 -13 -28 -9 -27 -25 2 -25 17 0 12 -7 -26 -31 -58 -36 -87
-48 -147 -59 -25 -5 -52 -11 -61 -15 -41 -16 -24 85 19 112 15 9 50 39 79 65
48 44 56 48 100 47 l48 -1 -38 -8z m560 -25 c48 -24 121 -97 129 -129 4 -16 2
-36 -3 -45 -15 -24 -68 -25 -116 -2 -23 11 -55 22 -70 26 -15 3 -25 10 -22 14
3 5 14 7 25 4 11 -3 20 0 20 6 0 6 -10 11 -22 11 -13 0 -30 5 -38 10 -11 7 -5
10 23 10 20 0 37 5 37 10 0 6 -20 10 -45 10 -33 0 -45 4 -45 15 0 11 12 15 45
15 45 0 60 12 29 24 -9 3 -27 6 -42 6 -37 0 -15 18 28 23 19 2 35 5 36 5 0 1
15 -5 31 -13z m-721 -30 c-39 -34 -66 -45 -66 -25 0 6 5 10 11 10 6 0 24 11
41 25 45 38 58 29 14 -10z m-691 -12 c20 -47 13 -53 -14 -10 -23 38 -26 47
-11 47 5 0 17 -16 25 -37z m609 2 c-7 -17 -35 -35 -56 -35 -7 0 1 11 17 25 35
28 47 31 39 10z m431 -10 c17 -7 57 -16 90 -20 33 -4 74 -13 90 -20 17 -7 38
-15 48 -19 34 -11 14 -123 -57 -309 l-26 -68 31 -17 c17 -9 47 -27 66 -40 l35
-23 107 32 c58 17 108 33 110 35 3 3 -5 21 -16 42 -20 35 -44 121 -58 205 -5
33 -4 37 15 37 13 0 24 -10 31 -27 13 -34 28 -44 56 -36 14 3 23 1 23 -6 0 -6
-7 -11 -16 -11 -13 0 -14 -9 -9 -57 3 -32 11 -68 17 -80 8 -17 8 -46 -2 -110
-22 -150 -87 -400 -112 -428 -4 -5 -8 -23 -8 -40 0 -23 9 -39 36 -63 20 -18
44 -32 54 -32 12 0 20 -9 22 -22 3 -20 9 -23 48 -23 l45 0 14 -50 c7 -27 15
-98 16 -156 2 -70 8 -116 18 -135 8 -17 18 -68 21 -114 5 -60 3 -78 -4 -62 -5
12 -13 22 -18 22 -5 0 -12 19 -16 42 -4 23 -14 50 -23 60 -16 18 -73 25 -73
10 0 -14 -53 -36 -78 -33 -13 2 -31 -4 -41 -13 -15 -14 -18 -12 -30 15 -16 36
-37 46 -62 30 -12 -7 -35 -9 -58 -5 -28 5 -46 2 -62 -10 -32 -22 -37 -20 -41
11 -2 20 -14 33 -43 49 -22 13 -46 28 -53 34 -7 6 -21 8 -32 5 -34 -11 -47
-45 -45 -118 1 -45 -1 -63 -7 -53 -20 36 -124 0 -122 -42 0 -16 -7 -23 -30
-28 -17 -3 -47 -15 -66 -26 -54 -31 -89 -39 -156 -32 l-62 7 -10 51 c-5 28
-11 129 -11 224 -1 95 -4 179 -6 185 -2 7 -6 68 -10 136 -3 69 -8 128 -10 131
-4 7 -16 235 -31 573 l-6 157 26 0 c29 0 31 3 14 33 -10 19 -9 20 4 9 21 -17
78 -5 106 24 13 13 34 24 48 24 23 0 25 -3 19 -27 -11 -45 -90 -207 -108 -222
-9 -7 -17 -19 -17 -25 0 -11 51 -50 83 -62 28 -10 19 10 -13 29 -30 18 -40 50
-20 62 15 9 66 114 91 187 23 67 35 88 51 88 21 0 -12 -192 -52 -309 -30 -85
-24 -95 46 -86 31 4 77 13 103 21 25 7 58 14 73 14 30 0 44 15 30 33 -45 57
-112 383 -83 401 6 4 11 17 11 30 0 12 3 26 7 30 9 8 57 -1 98 -19z m-1158 9
c-3 -3 -12 -4 -19 -1 -8 3 -5 6 6 6 11 1 17 -2 13 -5z m351 -10 c18 -13 26
-13 38 -3 11 9 18 9 26 1 7 -7 20 -12 29 -12 10 0 21 -5 25 -12 5 -8 -4 -9
-32 -4 -21 4 -52 9 -68 11 -17 3 -37 11 -45 20 -20 20 -2 19 27 -1z m-343 -24
c4 -6 -7 -10 -27 -10 -25 0 -29 3 -18 10 19 13 37 13 45 0z m95 -35 c6 -19 15
-35 19 -35 5 0 11 -17 14 -37 6 -33 14 -43 64 -74 53 -33 64 -36 136 -36 43
-1 79 -2 81 -4 2 -2 6 -19 9 -37 l7 -34 -58 5 c-31 2 -94 12 -139 22 -70 15
-80 20 -68 32 8 7 12 20 9 28 -7 17 -24 20 -24 5 0 -19 -18 -10 -23 13 -3 12
-17 53 -31 90 -26 69 -33 113 -17 102 5 -3 15 -21 21 -40z m216 23 c10 -17
-25 -38 -64 -38 -39 0 -67 13 -76 35 -4 13 6 15 64 15 41 0 72 -5 76 -12z
m392 -59 c-6 -36 -16 -59 -29 -67 -17 -11 -19 -9 -19 23 0 27 -4 35 -17 35
-39 0 -63 -13 -64 -34 -2 -20 -2 -20 -6 2 -3 15 5 36 22 58 30 39 45 43 45 12
l1 -23 18 21 c14 17 47 34 57 30 1 -1 -2 -26 -8 -57z m-285 36 c-3 -13 -29
-18 -59 -11 -40 11 -27 27 19 24 23 -2 41 -7 40 -13z m1272 -64 c-7 -51 -28
-92 -41 -79 -3 4 1 18 9 32 9 14 19 43 23 66 9 58 17 42 9 -19z m-1497 11 c2
-12 17 -33 35 -48 26 -22 38 -25 72 -20 23 3 55 1 71 -4 l29 -8 -33 -1 c-18
-1 -46 -8 -61 -16 -26 -13 -30 -13 -41 0 -7 8 -20 15 -30 15 -25 0 -80 54 -80
77 0 39 33 43 38 5z m-188 5 c0 -9 -11 -12 -35 -9 -19 2 -35 8 -35 13 0 5 16
9 35 9 22 0 35 -5 35 -13z m275 -17 c18 -34 18 -40 5 -40 -14 0 -60 46 -60 60
0 23 40 9 55 -20z m725 20 c0 -5 -11 -10 -25 -10 -14 0 -25 5 -25 10 0 6 11
10 25 10 14 0 25 -4 25 -10z m462 -37 c7 -36 -15 -349 -24 -359 -5 -4 -8 -2
-8 4 0 6 -24 24 -52 38 -29 15 -54 28 -56 29 -1 1 7 27 19 56 22 56 49 142 69
217 13 51 44 59 52 15z m-472 7 c17 -11 13 -15 -22 -24 -24 -5 -28 -3 -28 14
0 21 24 27 50 10z m526 -17 c9 -13 9 -22 2 -30 -8 -10 -6 -13 6 -13 22 0 21
-40 -1 -41 -13 0 -11 -3 7 -11 l25 -11 -25 -7 -25 -7 25 -4 c31 -5 29 -22 -2
-31 -22 -6 -21 -6 5 -7 33 -1 36 -16 5 -26 -22 -7 -22 -8 7 -15 l30 -8 -27 -1
c-16 0 -28 -6 -28 -12 0 -7 11 -9 30 -5 40 7 39 -10 -1 -19 -17 -4 -28 -9 -25
-13 3 -3 0 -12 -7 -20 -10 -12 -9 -14 8 -9 47 14 79 19 72 11 -8 -8 -119 -45
-123 -41 -2 1 1 47 6 102 5 55 9 130 10 168 0 70 4 79 26 50z m-1511 -24 c-4
-5 -20 -9 -36 -9 -19 0 -28 4 -24 11 4 6 13 8 21 5 7 -3 16 -1 19 5 4 5 11 7
16 3 5 -3 7 -10 4 -15z m1005 -10 c0 -5 -13 -9 -30 -9 -16 0 -30 -5 -30 -11 0
-6 14 -9 32 -7 40 4 50 -19 11 -28 -48 -10 -49 -12 -10 -13 55 -1 42 -31 -14
-31 -11 0 -18 -4 -14 -9 3 -5 21 -7 40 -4 23 4 35 2 35 -6 0 -6 -12 -11 -27
-12 -16 0 -37 -5 -48 -10 -14 -7 -5 -8 33 -5 29 3 52 1 52 -4 0 -6 -15 -10
-32 -10 -18 0 -40 -5 -48 -11 -11 -8 -1 -9 38 -5 28 3 52 1 52 -3 0 -12 -26
-21 -61 -21 -16 0 -29 -5 -29 -11 0 -7 19 -8 56 -3 39 4 55 3 50 -4 -3 -6 -37
-14 -74 -18 -56 -7 -62 -9 -37 -15 17 -4 22 -7 13 -8 -9 0 -21 -7 -25 -15 -9
-17 -68 -26 -68 -11 1 6 11 42 22 80 12 39 27 102 33 142 11 67 13 72 38 75
31 4 42 1 42 -13z m931 -31 c25 27 47 27 78 1 19 -16 22 -22 12 -32 -10 -9
-14 -8 -22 6 -12 20 -57 23 -65 3 -3 -8 -19 -20 -35 -26 -25 -11 -29 -18 -27
-43 2 -17 -2 -32 -9 -34 -7 -3 -13 2 -13 11 0 9 -8 16 -20 16 -25 0 -27 -27
-2 -33 15 -4 15 -5 -2 -12 -13 -6 -21 -4 -24 3 -2 7 -8 12 -13 12 -4 0 -6 -7
-3 -15 4 -10 0 -15 -11 -15 -12 0 -15 5 -10 20 3 11 -1 30 -11 45 -14 22 -15
28 -4 35 11 7 11 11 1 24 -12 14 -10 16 8 16 12 0 21 -6 21 -15 0 -41 81 -32
88 10 3 11 9 26 15 33 9 11 13 9 19 -9 l9 -22 20 21z m169 -8 c-12 -16 -25
-30 -30 -30 -5 0 -24 -16 -41 -35 -18 -19 -38 -35 -45 -35 -6 0 -14 -7 -18
-15 -3 -8 -12 -15 -21 -15 -8 0 -15 -4 -15 -10 0 -13 -130 -50 -179 -50 -65 0
-48 17 22 22 70 4 88 13 260 131 30 21 61 44 67 52 22 27 22 16 0 -15z m-1508
-130 c4 -69 12 -228 18 -355 5 -126 16 -311 25 -410 8 -99 15 -272 15 -385 0
-132 6 -237 15 -295 24 -142 30 -280 14 -290 -7 -5 -14 -4 -17 3 -2 7 -19 12
-37 12 -25 0 -35 5 -40 20 -3 11 -15 20 -26 20 -22 0 -23 4 -7 29 8 14 8 106
0 372 -6 195 -14 362 -18 373 -19 50 -23 -37 -12 -356 6 -190 8 -353 5 -362
-4 -9 -15 -16 -26 -16 -46 0 -46 0 -39 451 11 721 11 910 -1 989 -7 41 -14
118 -17 170 -3 52 -6 106 -7 120 -2 22 3 26 43 31 25 4 59 6 75 5 l30 -1 7
-125z m-602 110 c0 -5 -12 -10 -26 -10 -14 0 -23 4 -19 10 3 6 15 10 26 10 10
0 19 -4 19 -10z m2160 -31 c0 -5 -4 -9 -10 -9 -5 0 -10 7 -10 16 0 8 5 12 10
9 6 -3 10 -10 10 -16z m-50 -3 c0 -7 10 -21 23 -29 19 -14 19 -16 4 -16 -10
-1 -20 6 -24 15 -3 8 -11 13 -18 10 -19 -7 -27 5 -14 21 15 17 29 17 29 -1z
m-2110 -46 c0 -5 -6 -10 -14 -10 -8 0 -18 5 -21 10 -3 6 3 10 14 10 12 0 21
-4 21 -10z m190 -14 c0 -9 8 -12 25 -8 13 2 33 1 42 -3 16 -6 16 -8 -3 -15
-14 -6 -23 -21 -28 -47 -3 -21 -9 -48 -12 -60 -5 -16 -2 -23 8 -23 10 0 18 19
25 58 l11 57 -6 -67 c-3 -47 -1 -68 7 -68 6 0 12 17 12 38 1 20 4 51 8 67 l7
30 7 -27 c4 -15 3 -112 -3 -215 -10 -183 -5 -383 10 -383 4 0 5 -66 3 -147 -3
-82 -1 -242 5 -358 5 -115 7 -271 3 -345 -4 -74 -4 -139 0 -143 16 -19 22 91
19 323 -6 394 -2 754 11 903 6 76 8 141 5 144 -14 14 -21 -14 -24 -98 -3 -51
-8 -89 -14 -89 -6 0 -8 14 -5 33 3 17 9 120 13 228 l7 197 47 -2 48 -1 6 -80
c8 -108 17 -893 10 -877 -17 36 -21 -5 -18 -165 6 -323 14 -512 23 -535 4 -13
6 -29 3 -36 -7 -22 9 -142 20 -142 6 0 9 26 8 63 -4 98 -2 107 19 107 24 0 31
-26 31 -112 0 -39 4 -68 10 -68 10 0 15 48 11 109 -2 18 1 31 6 28 11 -7 17
-187 6 -188 -77 -10 -121 2 -128 35 -4 20 -17 186 -47 591 -7 94 -12 277 -10
408 2 142 -1 237 -6 233 -14 -9 -25 -405 -13 -509 6 -51 15 -180 21 -287 18
-323 34 -459 56 -475 11 -8 22 -15 27 -15 4 0 7 -7 7 -15 0 -11 -11 -15 -37
-15 -21 0 -53 -9 -71 -20 -39 -24 -42 -24 -42 -6 0 10 -12 12 -50 8 -48 -4
-50 -4 -50 21 0 25 1 25 27 12 30 -16 70 -10 93 13 13 13 13 14 -5 7 -66 -25
-95 -13 -93 38 1 18 -6 46 -15 64 -15 28 -16 51 -7 195 9 156 6 481 -5 498 -3
5 0 40 6 79 6 44 7 76 1 87 -12 22 -21 -110 -18 -301 0 -82 -3 -236 -7 -342
-6 -138 -5 -198 3 -213 8 -16 8 -25 0 -35 -6 -7 -10 -33 -9 -57 3 -59 -7 -86
-41 -103 -34 -17 -70 -20 -70 -4 0 6 -21 9 -57 8 -51 -3 -58 0 -67 20 -8 19
-6 26 14 41 12 9 31 15 41 13 16 -5 19 1 19 36 0 32 7 51 32 82 37 46 47 103
47 277 1 56 5 102 10 102 6 0 11 17 13 37 2 21 5 -59 6 -178 1 -118 -2 -230
-8 -248 -5 -18 -25 -50 -45 -72 -29 -33 -34 -43 -24 -55 6 -8 20 -14 30 -14
10 0 21 -5 24 -10 9 -15 25 -2 25 20 0 16 -5 18 -30 14 -36 -8 -38 5 -5 36 53
50 54 67 57 693 2 317 0 577 -3 577 -14 0 -19 -75 -20 -309 -1 -159 -4 -232
-10 -206 -4 22 -8 200 -9 395 -1 233 -5 359 -12 367 -12 14 -2 163 11 163 13
0 31 75 31 130 0 28 7 67 16 86 17 35 34 45 34 20z m-63 -33 c-8 -15 -20 -50
-27 -76 -7 -26 -14 -46 -16 -44 -8 8 17 112 32 135 21 32 29 21 11 -15z m1580
15 c-3 -8 -6 -5 -6 6 -1 11 2 17 5 13 3 -3 4 -12 1 -19z m-1731 -7 c-3 -5 -15
-7 -26 -4 -28 7 -25 13 6 13 14 0 23 -4 20 -9z m2257 -43 c24 -64 31 -98 19
-98 -12 0 -22 24 -22 51 0 10 -4 19 -8 19 -12 0 -33 50 -27 61 12 18 23 8 38
-33z m-2270 5 c-7 -2 -19 -2 -25 0 -7 3 -2 5 12 5 14 0 19 -2 13 -5z m2107 -3
c0 -5 -7 -10 -15 -10 -8 0 -15 5 -15 10 0 6 7 10 15 10 8 0 15 -4 15 -10z
m-126 -22 c12 -62 26 -157 26 -174 0 -21 -50 -51 -51 -31 0 7 -4 34 -8 61 -7
43 -6 49 10 53 27 7 26 59 -1 73 -26 14 -26 40 0 40 12 0 21 -8 24 -22z m196
-41 c0 -10 -5 -17 -12 -15 -14 5 -30 57 -21 71 7 12 32 -31 33 -56z m61 18
c11 -25 22 -70 24 -101 2 -36 8 -59 19 -67 9 -7 18 -25 22 -42 5 -28 3 -30
-24 -32 -25 -2 -31 2 -36 27 -3 17 -3 37 0 45 4 8 -1 26 -10 40 -20 31 -20 45
0 45 9 0 14 6 12 13 -3 6 -10 12 -17 12 -12 0 -41 65 -41 93 0 30 33 8 51 -33z
m-341 10 c-7 -8 -16 -15 -21 -15 -5 0 -9 7 -9 15 0 9 9 15 21 15 18 0 19 -2 9
-15z m164 -1 c10 -26 7 -44 -10 -61 -9 -10 -13 -25 -10 -39 3 -12 2 -25 -3
-28 -4 -3 -15 28 -23 69 l-15 75 27 0 c16 0 30 -7 34 -16z m65 -31 c1 -7 -5
-13 -13 -13 -17 0 -28 48 -12 53 11 4 24 -17 25 -40z m-2116 30 c-7 -2 -19 -2
-25 0 -7 3 -2 5 12 5 14 0 19 -2 13 -5z m1830 -13 c4 -17 2 -18 -15 -9 -27 15
-48 -5 -48 -47 0 -19 -4 -34 -10 -34 -9 0 -11 86 -3 103 2 4 19 7 37 7 25 0
35 -5 39 -20z m308 -100 c14 0 11 -20 -6 -36 -12 -13 -15 -9 -25 27 -9 33 -9
44 2 50 9 6 14 1 16 -16 2 -14 8 -25 13 -25z m-261 10 c0 -6 -7 -10 -15 -10
-32 0 -2 -50 31 -52 18 -2 22 -13 32 -82 27 -186 26 -175 3 -169 -12 3 -21 12
-21 19 0 13 -5 16 -40 18 -16 1 -27 92 -29 239 -1 65 0 67 19 57 11 -6 20 -15
20 -20z m-60 -56 c0 -24 -4 -34 -12 -32 -24 8 -22 68 2 68 5 0 10 -16 10 -36z
m259 -24 c24 0 37 -26 47 -91 6 -35 4 -39 -15 -39 -16 0 -21 -6 -21 -24 0 -35
-15 -40 -29 -10 -14 31 -14 54 -1 54 19 0 11 52 -9 57 -14 4 -20 16 -23 50 -3
43 -3 44 13 24 10 -12 27 -21 38 -21z m-2049 10 c0 -5 -18 -10 -40 -10 -22 0
-40 5 -40 10 0 6 18 10 40 10 22 0 40 -4 40 -10z m1740 -95 c0 -79 -1 -85 -20
-85 -19 0 -20 5 -15 47 3 26 11 51 18 56 9 7 9 10 0 14 -14 5 -18 35 -6 46 18
18 23 0 23 -78z m-1753 49 c-3 -3 -12 -4 -19 -1 -8 3 -5 6 6 6 11 1 17 -2 13
-5z m80 -161 c-2 -32 -3 -6 -3 57 0 63 1 89 3 58 2 -32 2 -84 0 -115z m2127
123 c6 -26 5 -28 -8 -17 -9 8 -16 25 -16 39 0 32 15 18 24 -22z m-528 -22 c-4
-20 -10 -34 -13 -30 -3 3 -2 21 1 42 4 20 10 34 13 30 3 -3 2 -21 -1 -42z
m659 5 c9 -39 -1 -50 -15 -15 -12 34 -13 46 -1 46 5 0 12 -14 16 -31z m-143
-85 c11 -32 26 -74 34 -92 18 -40 15 -45 -20 -36 -26 6 -29 14 -50 107 -4 16
-2 27 4 27 5 0 10 5 10 10 0 6 -7 10 -15 10 -15 0 -20 21 -8 34 14 14 27 -2
45 -60z m-384 -61 c-2 -59 -7 -97 -13 -96 -15 3 -18 43 -3 43 9 0 10 2 1 8 -6
4 -14 19 -18 35 -5 20 -3 28 9 33 20 8 21 24 1 24 -9 0 -15 9 -15 25 0 18 5
25 20 25 20 0 21 -5 18 -97z m555 65 c2 -13 8 -32 12 -43 5 -16 3 -15 -14 5
-21 26 -28 60 -12 60 5 0 11 -10 14 -22z m-343 -8 c4 -8 11 -36 15 -62 7 -44
5 -48 -13 -48 -11 0 -23 8 -26 17 -5 12 -10 13 -18 5 -8 -8 -6 -15 6 -27 19
-19 20 -31 5 -41 -19 -11 -26 9 -32 92 l-6 82 30 -2 c17 -1 34 -8 39 -16z
m293 -47 c4 -3 2 -12 -4 -20 -9 -10 -8 -13 4 -13 9 0 19 5 23 11 10 17 25 -12
18 -35 -5 -15 -3 -18 10 -13 20 8 22 -16 2 -32 -11 -9 -19 -9 -35 1 -12 7 -21
17 -21 22 0 5 -11 24 -25 42 -14 18 -25 35 -25 38 0 8 45 7 53 -1z m-633 -68
c0 -35 -4 -45 -16 -45 -11 0 -14 5 -9 18 3 9 9 29 12 45 8 40 13 33 13 -18z
m410 20 c0 -22 4 -25 33 -25 33 0 34 -2 50 -60 24 -84 22 -102 -5 -70 -14 16
-22 21 -25 13 -12 -34 -32 -7 -52 70 -24 93 -25 97 -11 97 6 0 10 -11 10 -25z
m200 -44 c-1 -13 -3 -13 -15 3 -19 26 -19 42 0 26 8 -7 15 -20 15 -29z m-2213
-33 c-2 -13 -4 -3 -4 22 0 25 2 35 4 23 2 -13 2 -33 0 -45z m1558 53 c3 -6 -2
-14 -12 -19 -14 -8 -15 -13 -5 -25 8 -9 9 -18 4 -21 -16 -10 -35 22 -28 49 6
25 29 34 41 16z m307 -36 c2 -36 0 -45 -13 -45 -26 0 -52 -36 -44 -60 6 -18 3
-21 -12 -18 -13 2 -19 15 -23 50 -5 44 -4 47 19 50 16 2 30 14 40 35 9 18 19
33 22 33 4 0 9 -20 11 -45z m-1995 29 c-3 -3 -12 -4 -19 -1 -8 3 -5 6 6 6 11
1 17 -2 13 -5z m-2 -34 c-3 -5 -10 -10 -16 -10 -5 0 -9 5 -9 10 0 6 7 10 16
10 8 0 12 -4 9 -10z m1810 -24 c10 -53 3 -81 -22 -84 -22 -3 -23 0 -23 57 0
54 2 61 20 61 14 0 21 -9 25 -34z m-1745 14 c0 -5 -4 -10 -10 -10 -5 0 -10 5
-10 10 0 6 5 10 10 10 6 0 10 -4 10 -10z m2320 0 c0 -5 -4 -10 -10 -10 -5 0
-10 5 -10 10 0 6 5 10 10 10 6 0 10 -4 10 -10z m-650 -41 c0 -10 -4 -19 -8
-19 -15 0 -31 22 -25 36 7 18 33 5 33 -17z m-1670 1 c0 -5 -4 -10 -10 -10 -5
0 -10 5 -10 10 0 6 5 10 10 10 6 0 10 -4 10 -10z m67 -227 c-1 -43 -3 -8 -3
77 0 85 2 120 3 78 2 -43 2 -113 0 -155z m1947 182 c16 -24 15 -25 -3 -25 -17
0 -41 26 -41 44 0 16 30 3 44 -19z m-2014 5 c0 -5 -4 -10 -10 -10 -5 0 -10 5
-10 10 0 6 5 10 10 10 6 0 10 -4 10 -10z m1817 -16 c-3 -3 -12 -4 -19 -1 -8 3
-5 6 6 6 11 1 17 -2 13 -5z m-1867 -14 c0 -5 -9 -10 -20 -10 -11 0 -20 5 -20
10 0 6 9 10 20 10 11 0 20 -4 20 -10z m2075 -16 l46 6 -7 -53 c-4 -28 -10 -62
-15 -74 -14 -37 -23 -192 -12 -205 27 -34 57 -237 40 -265 -12 -18 -177 -87
-187 -77 -5 5 -13 62 -19 127 -6 64 -19 143 -28 175 -9 31 -20 107 -24 167 -4
61 -10 131 -14 156 l-7 46 76 -5 c57 -3 76 -1 76 8 0 10 3 10 15 0 10 -8 31
-11 60 -6z m-2080 -24 c3 -5 -3 -10 -14 -10 -12 0 -21 5 -21 10 0 6 6 10 14
10 8 0 18 -4 21 -10z m65 -40 c0 -5 -7 -7 -15 -4 -8 4 -15 8 -15 10 0 2 7 4
15 4 8 0 15 -4 15 -10z m-60 -10 c0 -5 -7 -10 -16 -10 -8 0 -12 5 -9 10 3 6
10 10 16 10 5 0 9 -4 9 -10z m60 -40 c0 -11 -4 -20 -9 -20 -14 0 -23 18 -16
30 10 17 25 11 25 -10z m-66 -24 c-5 -13 -44 -30 -44 -19 0 7 33 32 42 33 4 0
5 -6 2 -14z m71 -36 c-5 -8 -11 -8 -17 -2 -6 6 -7 16 -3 22 5 8 11 8 17 2 6
-6 7 -16 3 -22z m-73 -71 c3 -75 1 -83 -22 -68 -12 7 -12 9 -1 9 10 0 11 3 2
14 -9 11 -9 15 1 20 11 5 11 7 0 12 -10 5 -10 9 -1 20 6 8 7 14 2 14 -5 0 -9
10 -7 23 3 28 2 27 13 27 5 0 11 -32 13 -71z m58 51 c10 -5 17 -18 15 -27 -2
-10 -4 -20 -4 -22 -2 -10 -41 34 -41 46 0 16 5 16 30 3z m2070 -64 c14 -39 81
-126 95 -126 19 0 53 -46 65 -88 11 -43 -4 -73 -49 -96 -31 -17 -41 -13 -41
16 0 10 -7 21 -15 24 -8 4 -15 16 -15 28 0 11 -12 59 -26 106 -27 89 -40 160
-30 160 4 0 11 -11 16 -24z m-2064 -23 c-10 -10 -19 5 -10 18 6 11 8 11 12 0
2 -7 1 -15 -2 -18z m4 -48 c0 -18 -4 -23 -15 -19 -8 4 -15 15 -15 25 0 10 7
19 15 19 9 0 15 -9 15 -25z m1210 -5 c0 -5 7 -10 15 -10 25 0 65 -31 65 -50 0
-25 -18 -37 -68 -45 -39 -6 -42 -5 -39 14 2 11 6 24 10 27 12 13 7 34 -8 34
-17 0 -18 2 -9 24 7 17 34 22 34 6z m-1212 -60 c-2 -6 -8 -6 -18 0 -13 9 -13
11 0 20 15 10 25 0 18 -20z m61 -151 c7 -103 8 -174 3 -190 -9 -22 -10 -20
-16 21 -11 82 -13 351 -2 339 2 -2 9 -79 15 -170z m1689 139 c7 -7 12 -25 12
-40 0 -22 -5 -28 -21 -28 -17 0 -20 -4 -15 -22 3 -13 6 -26 6 -30 0 -16 30 -7
30 8 0 33 24 6 26 -29 1 -38 -12 -50 -23 -21 -3 8 -12 13 -19 10 -7 -3 -16 -1
-19 4 -4 6 -16 10 -29 10 -13 0 -31 9 -40 19 -10 11 -28 21 -40 23 -11 2 -20
8 -19 13 1 6 -4 16 -9 23 -18 21 7 40 32 24 28 -17 43 -15 58 8 7 11 19 20 27
20 8 0 15 5 15 10 0 14 13 13 28 -2z m-352 -13 c-3 -9 0 -15 9 -15 8 0 24 -18
35 -40 18 -36 19 -40 4 -40 -9 0 -26 11 -38 23 -12 13 -31 29 -41 35 -19 10
-19 11 -1 31 22 24 41 28 32 6z m-1396 -35 c0 -29 -4 -40 -15 -40 -17 0 -20
16 -4 26 8 4 8 9 0 17 -16 16 -13 37 4 37 11 0 15 -11 15 -40z m-60 14 c0 -9
-7 -14 -17 -12 -25 5 -28 28 -4 28 12 0 21 -6 21 -16z m-2 -60 c-2 -10 -12
-20 -23 -23 -16 -3 -17 -1 -7 12 7 8 12 19 11 23 -3 20 2 27 12 17 6 -6 9 -19
7 -29z m1381 0 c14 -8 31 -14 37 -14 6 0 17 -7 24 -15 7 -8 24 -15 39 -15 47
0 62 -3 58 -14 -2 -6 -17 -12 -33 -14 -40 -3 -214 -41 -241 -52 -13 -5 -23
-15 -23 -21 0 -7 9 -9 23 -5 12 3 42 9 67 13 25 3 54 10 64 16 32 16 158 27
180 15 11 -6 47 -12 80 -14 34 -1 65 -3 69 -3 5 -1 5 -10 2 -21 -5 -17 -2 -20
21 -20 22 0 25 2 14 15 -20 24 5 17 34 -10 14 -13 41 -27 60 -30 37 -7 46 -28
46 -106 0 -32 5 -42 24 -51 18 -7 27 -22 31 -50 4 -22 5 -41 3 -43 -1 -2 -261
-7 -576 -11 -487 -6 -575 -5 -583 7 -5 8 -9 41 -9 74 l0 60 85 2 c68 1 98 7
141 27 30 14 61 23 68 20 17 -6 126 41 126 55 0 17 -21 13 -64 -10 -26 -14
-41 -17 -46 -10 -4 7 -28 0 -71 -21 -60 -31 -70 -33 -153 -31 -49 2 -90 4 -92
6 -2 1 -6 21 -9 42 l-7 40 48 14 c36 11 49 11 52 3 2 -7 11 -12 20 -12 14 0
93 36 164 75 23 12 23 32 1 38 -11 3 -7 5 10 6 15 0 44 8 64 16 19 8 46 15 59
15 14 0 31 12 44 30 21 29 24 30 73 24 28 -4 62 -13 76 -20z m-209 2 c0 -7 -9
-16 -20 -19 -23 -6 -25 -2 -7 18 16 18 27 19 27 1z m-1013 -33 c-3 -10 -5 -4
-5 12 0 17 2 24 5 18 2 -7 2 -21 0 -30z m1403 22 c0 -8 -7 -15 -15 -15 -16 0
-20 12 -8 23 11 12 23 8 23 -8z m975 -16 c4 -17 13 -33 21 -36 23 -8 16 -23
-10 -23 -14 0 -28 -4 -31 -10 -11 -17 -38 -12 -31 6 4 10 0 18 -13 21 -43 11
-24 53 23 53 9 0 16 5 16 10 0 23 19 8 25 -21z m-186 -19 c26 -50 26 -62 1
-85 -11 -10 -20 -26 -20 -36 0 -17 -84 -109 -100 -109 -5 0 -1 18 7 40 18 46
14 57 -16 40 -19 -10 -21 -8 -21 22 0 48 10 77 29 83 9 3 34 23 56 45 22 21
41 39 41 40 1 0 11 -18 23 -40z m-2294 20 c3 -5 -3 -10 -15 -10 -12 0 -18 5
-15 10 3 6 10 10 15 10 5 0 12 -4 15 -10z m-65 -30 c0 -5 -4 -10 -10 -10 -5 0
-10 5 -10 10 0 6 5 10 10 10 6 0 10 -4 10 -10z m70 -9 c0 -14 -18 -23 -30 -16
-6 4 -8 11 -5 16 8 12 35 12 35 0z m1579 -2 c19 -7 29 -15 24 -20 -5 -5 -26 0
-48 11 -42 22 -28 27 24 9z m72 -27 c-7 -2 -18 1 -23 6 -8 8 -4 9 13 5 13 -4
18 -8 10 -11z m135 -12 c30 0 54 -4 54 -10 0 -15 -90 -12 -135 6 -39 15 -39
15 -6 9 18 -3 58 -5 87 -5z m329 -11 c0 -7 -28 -25 -63 -40 -74 -31 -104 -55
-57 -46 17 3 38 9 48 13 10 3 17 3 16 -2 -3 -20 2 -23 26 -14 25 9 25 9 12
-22 -29 -71 -227 -142 -227 -82 0 8 9 14 20 14 11 0 20 7 20 15 0 9 -9 15 -22
15 -22 1 -22 1 -4 12 18 10 18 11 -2 22 -29 16 -31 28 -4 32 33 6 139 51 181
79 39 25 56 27 56 4z m-2115 1 c0 -5 -7 -10 -15 -10 -8 0 -15 5 -15 10 0 6 7
10 15 10 8 0 15 -4 15 -10z m-70 -4 c0 -3 -4 -8 -10 -11 -5 -3 -10 -1 -10 4 0
6 5 11 10 11 6 0 10 -2 10 -4z m865 -15 c-6 -6 -29 -13 -52 -17 -36 -5 -43 -4
-43 10 0 13 11 16 52 16 33 0 48 -4 43 -9z m1663 -12 c66 -13 68 -28 2 -21
-33 3 -50 1 -50 -7 0 -6 8 -11 18 -11 9 0 52 -8 95 -17 l77 -18 0 -112 0 -113
-119 0 c-82 0 -122 4 -127 12 -7 10 -15 61 -41 239 -9 65 14 73 145 48z
m-2458 -14 c0 -8 -7 -15 -15 -15 -8 0 -15 7 -15 15 0 8 7 15 15 15 8 0 15 -7
15 -15z m1817 -1 c-3 -3 -12 -4 -19 -1 -8 3 -5 6 6 6 11 1 17 -2 13 -5z m293
-8 c0 -8 -9 -14 -19 -13 -15 1 -17 4 -9 14 14 17 28 16 28 -1z m-2240 -26 c0
-6 -6 -28 -12 -50 l-13 -39 -65 6 c-84 7 -94 16 -13 11 36 -2 63 1 65 7 2 6
-34 11 -90 13 -50 1 -92 7 -92 12 0 4 30 12 68 16 37 3 76 13 87 20 23 16 65
19 65 4z m2723 3 c-7 -2 -21 -2 -30 0 -10 3 -4 5 12 5 17 0 24 -2 18 -5z
m-2593 -24 c0 -11 -4 -17 -10 -14 -5 3 -10 13 -10 21 0 8 5 14 10 14 6 0 10
-9 10 -21z m2308 -164 c-1 -11 3 -30 10 -42 7 -12 12 -37 12 -57 0 -19 3 -36
8 -38 13 -6 42 -65 42 -87 0 -24 -35 -36 -80 -28 -18 4 -30 2 -33 -6 -3 -8
-10 -5 -21 8 -15 20 -15 20 -16 -2 0 -25 -15 -31 -23 -10 -4 7 -8 3 -12 -10
-6 -19 -10 -20 -27 -10 -16 9 -22 9 -25 0 -8 -22 -33 -1 -33 28 0 19 7 32 23
40 31 16 57 50 57 75 0 12 7 25 16 28 9 3 14 12 11 19 -2 6 0 20 5 30 6 12 5
17 -7 17 -8 0 -15 7 -15 15 0 9 -6 12 -15 9 -21 -8 -19 13 2 25 10 5 14 13 10
17 -4 4 1 16 10 27 18 20 17 20 -12 13 l-30 -7 28 19 c16 11 40 36 55 57 l26
37 18 -74 c10 -40 18 -82 16 -93z m-2615 108 c-7 -2 -21 -2 -30 0 -10 3 -5 5
12 5 17 0 24 -2 18 -5z m140 -32 c11 -1 17 -9 17 -26 0 -15 10 -31 26 -41 20
-14 24 -24 22 -52 -4 -43 -9 -44 -155 -36 l-101 6 0 76 c-1 42 1 79 3 82 2 3
41 2 87 -1 46 -4 91 -8 101 -8z m87 9 c0 -5 -4 -10 -10 -10 -5 0 -10 5 -10 10
0 6 5 10 10 10 6 0 10 -4 10 -10z m137 -6 c-3 -3 -12 -4 -19 -1 -8 3 -5 6 6 6
11 1 17 -2 13 -5z m2010 -19 c-17 -12 -14 -45 4 -45 6 0 9 -34 7 -77 -3 -72
-5 -78 -25 -81 -18 -3 -22 -9 -21 -29 2 -15 10 -28 20 -31 10 -2 18 -12 19
-21 5 -80 7 -161 5 -161 -2 0 -13 16 -25 36 -12 19 -26 32 -32 29 -7 -5 -4
-15 6 -32 11 -16 13 -29 7 -35 -6 -6 -15 1 -26 17 -9 14 -21 23 -27 19 -6 -4
-6 -11 2 -20 8 -10 9 -18 2 -25 -7 -7 -16 -2 -27 16 -19 29 -40 24 -30 -7 4
-15 -2 -11 -24 13 -36 40 -53 33 -23 -9 25 -36 26 -42 6 -42 -8 0 -15 6 -15
13 0 8 -9 22 -20 32 -19 17 -21 17 -40 0 -12 -10 -18 -25 -16 -32 7 -16 -16
-17 -32 -1 -9 9 -15 9 -24 0 -15 -15 -64 -16 -73 -1 -8 13 21 36 55 45 61 16
149 66 183 103 33 36 37 47 37 92 0 38 5 55 18 65 16 12 15 13 -5 14 -13 0
-23 5 -23 10 0 6 11 10 25 10 34 0 32 18 -2 27 l-28 7 29 6 c34 6 32 26 -1 22
-13 -1 -23 2 -23 8 0 5 9 10 20 10 29 0 80 28 80 44 0 13 41 37 50 29 3 -3 -3
-10 -13 -18z m-2014 -16 c7 -1 1 -4 -13 -8 -16 -5 -24 -13 -22 -24 2 -9 -2
-17 -8 -17 -9 0 -9 23 -1 59 1 2 8 0 17 -3 9 -3 21 -6 27 -7z m-8 -39 c3 -5 1
-10 -4 -10 -6 0 -11 5 -11 10 0 6 2 10 4 10 3 0 8 -4 11 -10z m2103 -52 c14
-16 13 -18 -6 -18 -18 0 -22 6 -21 33 0 17 3 25 6 17 3 -8 12 -23 21 -32z
m-2152 7 c-4 -11 3 -17 24 -22 17 -3 30 -9 30 -14 0 -10 -31 -12 -54 -3 -16 6
-22 35 -9 47 11 12 15 8 9 -8z m2164 -71 c0 -8 -9 -14 -19 -14 -22 0 -35 15
-27 29 9 13 46 1 46 -15z m-250 2 c0 -18 -69 -20 -749 -24 -413 -3 -463 -1
-452 12 16 18 84 21 744 24 393 2 457 0 457 -12z m698 2 c-5 -15 -248 -24
-248 -10 0 19 18 22 133 22 90 0 118 -3 115 -12z m-2640 -20 c3 -17 -10 -18
-162 -18 -160 0 -166 1 -166 20 0 20 5 20 162 18 146 -3 163 -5 166 -20z m616
-70 c-5 -56 -4 -70 5 -62 7 6 15 37 18 69 5 48 8 54 15 35 16 -43 -13 -130
-44 -130 -4 0 -8 36 -8 80 0 50 4 80 11 80 7 0 8 -24 3 -72z m1570 43 c7 -10
-38 -54 -47 -45 -7 7 22 54 34 54 4 0 10 -4 13 -9z m-1724 -216 c-7 -8 -17
-12 -23 -8 -6 4 -3 9 9 14 27 11 28 11 14 -6z m1405 -35 c10 -11 13 -20 7 -20
-6 0 -16 9 -22 20 -6 11 -9 20 -7 20 2 0 12 -9 22 -20z"/>
<g>
<path d="M1445 5200 c-3 -5 5 -10 17 -12 20 -3 23 -10 26 -56 3 -58 -8 -82
-40 -82 -10 0 -16 -4 -13 -10 3 -5 30 -10 58 -10 86 0 187 12 181 22 -3 5 -13
7 -22 6 -14 -3 -17 8 -20 65 -3 67 -3 67 24 67 15 0 24 3 20 8 -10 10 -225 12
-231 2z m140 -80 c0 -63 -1 -65 -25 -65 -24 0 -25 3 -28 68 l-3 68 28 -3 c27
-3 28 -4 28 -68z"/>
</g>
<g>
<path d="M1065 4811 c-3 -5 -1 -12 5 -16 5 -3 10 1 10 9 0 18 -6 21 -15 7z"/>
</g>
<g>
<path d="M1585 4719 c-4 -6 -3 -15 3 -21 6 -6 11 -4 15 6 7 18 -9 31 -18 15z"/>
</g>
<g>
<path d="M1535 4680 c-3 -5 1 -10 10 -10 9 0 13 5 10 10 -3 6 -8 10 -10 10 -2
0 -7 -4 -10 -10z"/>
</g>
<g>
<path d="M1685 4680 c-3 -5 3 -10 14 -10 12 0 21 5 21 10 0 6 -6 10 -14 10 -8
0 -18 -4 -21 -10z"/>
</g>
<g>
<path d="M1610 4672 c0 -4 9 -8 20 -9 11 -1 18 2 15 8 -7 11 -35 12 -35 1z"/>
</g>
<g>
<path d="M1587 4613 c-11 -11 -8 -43 7 -71 8 -15 17 -40 21 -55 5 -23 9 -27
20 -17 8 6 11 18 8 26 -6 16 22 20 32 4 9 -15 70 25 68 46 -1 10 6 23 15 30
14 10 13 13 -6 23 -29 16 -37 14 -71 -15 -36 -30 -61 -26 -61 11 0 24 -18 34
-33 18z"/>
</g>
<g>
<path d="M1560 4520 c0 -5 7 -10 15 -10 8 0 15 5 15 10 0 6 -7 10 -15 10 -8 0
-15 -4 -15 -10z"/>
</g>
<g>
<path d="M1360 4490 c0 -5 5 -10 10 -10 6 0 10 5 10 10 0 6 -4 10 -10 10 -5 0
-10 -4 -10 -10z"/>
</g>
<g>
<path d="M2071 3871 c-12 -8 -12 -13 3 -35 17 -27 24 -30 50 -20 27 10 18 24
-15 24 -26 0 -29 3 -24 20 7 22 6 23 -14 11z"/>
</g>
<g>
<path d="M776 3735 c4 -10 0 -15 -12 -15 -17 0 -17 -1 -1 -17 16 -16 18 -16
33 -1 19 19 12 48 -10 48 -10 0 -13 -6 -10 -15z"/>
</g>
<g>
<path d="M2350 3480 c0 -5 5 -10 10 -10 6 0 10 5 10 10 0 6 -4 10 -10 10 -5 0
-10 -4 -10 -10z"/>
</g>
<g>
<path d="M2465 3480 c3 -5 8 -10 11 -10 2 0 4 5 4 10 0 6 -5 10 -11 10 -5 0
-7 -4 -4 -10z"/>
</g>
<g>
<path d="M2646 3445 c4 -8 10 -12 15 -9 11 6 2 24 -11 24 -5 0 -7 -7 -4 -15z"/>
</g>
<g>
<path d="M1700 3300 c0 -12 8 -12 35 0 18 8 17 9 -7 9 -16 1 -28 -3 -28 -9z"/>
</g>
<g>
<path d="M2267 3374 c-13 -13 -7 -24 14 -24 11 0 19 5 17 12 -5 14 -22 21 -31
12z"/>
</g>
<g>
<path d="M2102 3149 c2 -6 8 -10 13 -10 5 0 11 4 13 10 2 6 -4 11 -13 11 -9 0
-15 -5 -13 -11z"/>
</g>
<g>
<path d="M2172 3138 c7 -20 48 -23 48 -4 0 11 -9 16 -26 16 -16 0 -24 -5 -22
-12z"/>
</g>
<g>
<path d="M2256 3097 c-13 -10 -13 -15 -1 -31 17 -22 45 -15 45 13 0 24 -23 33
-44 18z"/>
</g>
<g>
<path d="M2045 2960 c-3 -6 1 -13 10 -16 19 -8 30 0 20 15 -8 14 -22 14 -30 1z"/>
</g>
<g>
<path d="M2075 2750 c4 -6 11 -8 16 -5 14 9 11 15 -7 15 -8 0 -12 -5 -9 -10z"/>
</g>
<g>
<path d="M2650 3289 c0 -5 5 -7 10 -4 6 3 10 8 10 11 0 2 -4 4 -10 4 -5 0 -10
-5 -10 -11z"/>
</g>
<g>
<path d="M2460 3281 c0 -12 6 -21 16 -21 9 0 14 7 12 17 -5 25 -28 28 -28 4z"/>
</g>
<g>
<path d="M525 3189 c-10 -15 3 -25 16 -12 7 7 7 13 1 17 -6 3 -14 1 -17 -5z"/>
</g>
<g>
<path d="M2587 3233 c-4 -3 -7 -20 -7 -37 0 -17 -4 -46 -9 -64 -10 -32 1 -46
13 -16 8 22 20 124 14 124 -3 0 -8 -3 -11 -7z"/>
</g>
<g>
<path d="M2504 3208 c-24 -28 -79 -156 -71 -165 4 -3 9 3 13 13 7 24 55 124
59 124 8 0 -9 -87 -19 -105 -18 -29 -26 -55 -18 -55 19 0 78 188 63 203 -4 4
-16 -3 -27 -15z"/>
</g>
<g>
<path d="M2616 3179 c-3 -17 -6 -53 -6 -80 0 -27 -11 -78 -25 -115 -28 -75
-26 -101 3 -33 32 74 40 111 44 187 4 74 -5 96 -16 41z"/>
</g>
<g>
<path d="M2460 2994 c0 -8 5 -12 10 -9 6 4 8 11 5 16 -9 14 -15 11 -15 -7z"/>
</g>
<g>
<path d="M2140 2640 c0 -5 5 -10 10 -10 6 0 10 5 10 10 0 6 -4 10 -10 10 -5 0
-10 -4 -10 -10z"/>
</g>
<g>
<path d="M544 2572 c-22 -15 -32 -80 -33 -216 0 -76 -5 -164 -10 -195 -21
-126 -22 -141 -8 -141 15 0 31 115 48 360 6 85 15 162 20 171 15 29 8 38 -17
21z"/>
</g>
<g>
<path d="M2290 2370 c0 -11 7 -20 15 -20 17 0 18 2 9 24 -9 23 -24 20 -24 -4z"/>
</g>
<g>
<path d="M2570 2300 c0 -5 7 -10 16 -10 8 0 12 5 9 10 -3 6 -10 10 -16 10 -5
0 -9 -4 -9 -10z"/>
</g>
<g>
<path d="M2200 2265 c0 -8 7 -15 15 -15 8 0 15 7 15 15 0 8 -7 15 -15 15 -8 0
-15 -7 -15 -15z"/>
</g>
<g>
<path d="M2217 2174 c-8 -8 1 -24 14 -24 5 0 9 7 9 15 0 15 -12 20 -23 9z"/>
</g>
<g>
<path d="M2400 2296 c0 -9 5 -16 10 -16 6 0 10 4 10 9 0 6 -4 13 -10 16 -5 3
-10 -1 -10 -9z"/>
</g>
<g>
<path d="M2420 2220 c0 -5 5 -10 10 -10 6 0 10 5 10 10 0 6 -4 10 -10 10 -5 0
-10 -4 -10 -10z"/>
</g>
<g>
<path d="M2070 2200 c0 -5 5 -10 10 -10 6 0 10 5 10 10 0 6 -4 10 -10 10 -5 0
-10 -4 -10 -10z"/>
</g>
<g>
<path d="M2540 2060 c0 -5 5 -10 10 -10 6 0 10 5 10 10 0 6 -4 10 -10 10 -5 0
-10 -4 -10 -10z"/>
</g>
<g>
<path d="M2320 2100 c0 -5 7 -10 15 -10 8 0 15 5 15 10 0 6 -7 10 -15 10 -8 0
-15 -4 -15 -10z"/>
</g>
<g>
<path d="M2467 1994 c-8 -8 1 -24 14 -24 5 0 9 7 9 15 0 15 -12 20 -23 9z"/>
</g>
<g>
<path d="M2210 1930 c0 -5 5 -10 10 -10 6 0 10 5 10 10 0 6 -4 10 -10 10 -5 0
-10 -4 -10 -10z"/>
</g>
<g>
<path d="M2070 1930 c0 -5 5 -10 10 -10 6 0 10 5 10 10 0 6 -4 10 -10 10 -5 0
-10 -4 -10 -10z"/>
</g>
<g>
<path d="M1100 1141 c0 -11 26 -22 34 -14 12 12 5 23 -14 23 -11 0 -20 -4 -20
-9z"/>
</g>
<g>
<path d="M2622 1243 c-8 -14 -9 -24 -2 -28 12 -7 24 18 18 37 -3 8 -9 5 -16
-9z"/>
</g>
<g>
<path d="M2710 1190 c0 -5 14 -10 31 -10 17 0 28 4 24 10 -3 6 -17 10 -31 10
-13 0 -24 -4 -24 -10z"/>
</g>
</g>
<g>
<path d="M2798 536 c-3 -14 -2 -26 3 -26 14 0 20 20 11 36 -8 14 -10 12 -14
-10z"/>
</g>
<g>
<path d="M2788 479 c-12 -7 -18 -22 -18 -49 0 -30 -4 -40 -16 -40 -8 0 -12 5
-9 10 3 6 -1 10 -10 10 -24 0 -12 -24 13 -28 24 -4 30 -27 10 -35 -8 -3 -6 -6
5 -6 30 -2 18 -21 -13 -21 -21 0 -28 4 -24 14 4 11 0 13 -15 9 -12 -3 -21 -9
-21 -14 0 -10 8 -14 53 -23 39 -9 34 -24 -10 -28 -20 -2 -38 -9 -41 -15 -3
-10 8 -11 42 -7 l46 7 0 -35 c0 -50 11 -98 22 -98 5 0 9 15 7 32 -4 62 0 80
16 75 8 -4 17 -2 20 4 4 5 -4 13 -17 18 -19 8 -15 10 25 10 44 1 48 3 45 24
-2 18 -10 23 -45 25 -58 4 -55 20 5 25 l47 3 -52 2 c-67 2 -70 22 -3 22 28 0
50 5 50 10 0 6 -23 10 -52 10 -55 0 -57 15 -3 23 27 4 26 4 -7 6 -44 1 -52 21
-9 21 35 0 62 27 40 41 -19 12 -60 11 -81 -2z m57 -9 c4 -6 -6 -10 -22 -9 -25
0 -26 1 -8 9 11 5 21 9 22 9 1 1 5 -3 8 -9z m34 -176 c2 -2 -15 -4 -38 -4 -25
0 -40 4 -36 10 5 8 63 3 74 -6z"/>
</g>
<g>
<path d="M2 215 c0 -16 2 -22 5 -12 2 9 2 23 0 30 -3 6 -5 -1 -5 -18z"/>
</g>
<g>
<path d="M3 80 c0 -47 2 -66 4 -42 2 23 2 61 0 85 -2 23 -4 4 -4 -43z"/>
</g>
<g>
<path d="M1358 3 c6 -2 18 -2 25 0 6 3 1 5 -13 5 -14 0 -19 -2 -12 -5z"/>
</g>
<g>
<path d="M1598 3 c45 -2 119 -2 165 0 45 1 8 3 -83 3 -91 0 -128 -2 -82 -3z"/>
</g>
</g>
</svg>
