<?xml version="1.0" standalone="no"?>
<!DOCTYPE svg PUBLIC "-//W3C//DTD SVG 20010904//EN"
 "http://www.w3.org/TR/2001/REC-SVG-20010904/DTD/svg10.dtd">
<svg version="1.0" xmlns="http://www.w3.org/2000/svg"
 width="300.000000pt" height="521.000000pt" viewBox="0 0 300.000000 521.000000"
 preserveAspectRatio="xMidYMid meet">
<metadata>
Created by potrace 1.15, written by Peter Selinger 2001-2017
</metadata>
<g transform="translate(0.000000,521.000000) scale(0.100000,-0.100000)"
fill="#000000" stroke="none">
<g>
<path d="M0 2604 l0 -2604 1198 2 c1017 2 1111 3 627 8 -314 4 -829 5 -1145 2
-403 -3 -587 -1 -616 7 l-41 11 -5 58 c-3 31 -3 83 0 115 l5 58 251 -1 c240 0
429 10 443 23 3 4 8 52 11 107 3 63 9 101 16 101 6 1 129 1 274 -1 171 -1 262
1 262 8 0 5 -7 12 -15 16 -8 3 -15 17 -15 31 0 14 -4 25 -10 25 -5 0 -10 -11
-10 -25 0 -14 -4 -25 -9 -25 -6 0 -9 11 -8 24 1 14 -2 24 -8 23 -5 -1 -10 -12
-10 -24 -1 -29 -15 -43 -15 -15 0 27 -16 29 -22 4 -6 -21 -55 -23 -50 -3 3 14
-22 41 -37 41 -6 0 -11 -11 -11 -25 0 -14 -5 -25 -11 -25 -7 0 -9 11 -6 30 4
16 2 32 -2 35 -11 6 -21 -18 -21 -51 0 -21 -5 -24 -34 -24 -22 0 -36 6 -40 16
-4 10 -13 13 -25 9 -17 -5 -20 0 -23 32 -2 26 -7 37 -17 35 -7 -1 -19 3 -27 9
-18 15 -32 3 -16 -13 16 -16 15 -28 -3 -28 -8 0 -15 -4 -15 -10 0 -5 5 -10 10
-10 6 0 10 -7 10 -16 0 -14 -2 -15 -17 -3 -13 11 -17 11 -20 2 -3 -7 -20 -13
-39 -13 l-34 0 -1 53 c-1 28 -2 85 -3 125 -3 66 -1 72 16 66 10 -3 18 -1 18 5
0 5 -7 11 -15 13 -13 2 -17 23 -20 101 -3 82 -2 97 10 87 9 -7 15 -8 19 -1 4
6 13 8 21 5 8 -4 15 3 18 18 3 13 5 6 5 -17 -1 -73 0 -79 17 -65 12 10 15 10
15 -4 0 -9 5 -16 10 -16 6 0 10 7 10 15 0 8 4 15 9 15 5 0 12 -25 16 -55 3
-30 8 -55 11 -55 2 0 13 9 24 20 24 24 28 65 5 56 -11 -4 -16 5 -21 35 -4 21
-11 42 -15 45 -15 9 -10 54 6 54 9 0 15 -9 15 -25 0 -16 6 -25 15 -25 8 0 15
8 15 18 0 10 3 13 8 6 4 -6 17 -14 29 -18 20 -6 23 -4 24 21 1 20 3 23 6 8 3
-10 12 -30 21 -43 14 -22 14 -23 -6 -29 -14 -3 -22 -14 -23 -27 -1 -19 -2 -19
-8 3 -8 31 -65 44 -59 14 2 -10 11 -17 20 -15 12 2 16 -10 20 -59 3 -35 10
-64 18 -69 9 -5 11 -22 8 -54 -4 -35 -2 -46 8 -46 10 0 14 13 14 44 0 43 14
69 23 44 11 -31 16 6 18 120 2 93 5 122 15 122 7 0 12 -6 10 -12 -14 -45 -15
-78 -2 -78 14 0 26 30 26 68 0 12 5 22 10 22 12 0 12 -1 -1 -58 -7 -26 -20
-55 -30 -65 -23 -21 -23 -30 -4 -84 8 -23 12 -48 10 -55 -10 -26 72 -51 188
-58 14 0 7 -20 -8 -20 -8 0 -15 -7 -15 -16 0 -11 6 -13 19 -9 16 5 19 0 23
-40 2 -31 -1 -45 -9 -45 -7 0 -13 -5 -13 -11 0 -6 7 -9 15 -6 8 4 17 2 20 -3
10 -17 -31 -96 -61 -116 -31 -21 -150 -69 -196 -78 -15 -4 -39 -16 -54 -29
-25 -22 -26 -24 -9 -41 14 -14 26 -16 49 -10 17 4 122 8 233 9 210 2 233 7
233 46 0 10 -4 20 -9 24 -12 7 -12 155 0 155 5 0 9 -25 9 -55 0 -55 0 -55 30
-55 18 0 33 -6 36 -15 4 -8 17 -15 29 -15 13 0 26 -4 29 -9 7 -11 120 -23 141
-14 12 4 15 13 10 31 -5 19 -3 23 9 19 48 -19 114 -18 173 1 35 12 68 26 76
33 10 9 12 41 9 128 l-4 116 37 34 37 33 -4 114 c-2 74 0 113 7 110 5 -2 9
-22 7 -45 -1 -22 2 -41 8 -41 15 0 23 46 17 93 -5 31 -4 36 3 20 12 -29 18
-29 30 0 6 16 9 5 9 -45 1 -38 5 -68 11 -68 6 0 10 30 10 70 0 40 4 70 10 70
6 0 10 -20 10 -43 0 -52 6 -60 33 -45 19 10 19 12 4 23 -12 9 -14 19 -8 41 7
28 8 28 15 7 9 -29 23 -29 29 0 3 19 5 20 11 5 5 -11 2 -23 -8 -33 -9 -9 -16
-23 -16 -31 0 -8 -4 -14 -10 -14 -5 0 -10 -7 -10 -15 0 -10 -7 -15 -17 -13
-15 2 -19 -6 -21 -47 -3 -54 12 -54 22 0 2 17 3 2 1 -33 -2 -34 0 -62 5 -62
10 0 20 36 21 80 1 81 16 74 24 -10 4 -47 6 -94 5 -105 -4 -39 0 -56 11 -49 9
5 10 39 6 115 -5 89 -4 108 8 113 11 4 15 -2 15 -24 0 -17 5 -30 11 -30 8 0
10 20 6 66 -2 36 -3 74 0 85 5 19 43 27 43 9 0 -5 -4 -10 -10 -10 -5 0 -10
-16 -10 -36 0 -21 4 -33 10 -29 6 3 10 14 10 25 0 10 7 20 15 24 8 3 15 13 15
22 0 8 6 14 13 11 14 -4 11 -70 -4 -75 -5 -2 -9 -15 -9 -29 0 -16 -7 -27 -19
-30 -30 -8 -37 -96 -7 -92 30 4 44 -3 49 -23 4 -13 1 -26 -6 -30 -9 -6 -9 -12
1 -28 14 -23 17 -170 3 -170 -5 0 -12 6 -14 13 -4 9 -8 9 -14 1 -5 -7 -44 -12
-100 -13 l-93 0 0 89 c0 53 -4 90 -10 90 -5 0 -10 -24 -10 -54 0 -66 -9 -116
-22 -116 -5 0 -6 19 -3 44 4 26 3 46 -3 50 -6 3 -13 -15 -17 -45 l-7 -50 -52
3 c-46 3 -51 1 -54 -19 l-3 -22 203 0 203 0 8 -25 c8 -25 11 -25 70 -20 45 5
66 12 76 25 12 17 28 19 187 19 l174 0 0 -162 c0 -90 -3 -200 -7 -245 l-6 -82
-61 -4 c-59 -3 -58 -3 17 -5 l77 -2 0 2603 0 2602 -1500 1 -1500 2 0 -2604z
m1761 2575 l1217 -1 4 -32 c7 -44 0 -2478 -7 -2484 -3 -3 -11 0 -17 6 -16 16
-47 15 -82 -3 -15 -8 -33 -15 -40 -15 -6 0 -17 -14 -25 -31 -16 -38 -42 -35
-55 6 -18 61 -55 140 -70 150 -10 6 -26 6 -46 -2 l-30 -11 0 138 c0 131 1 140
22 154 18 13 23 13 32 2 6 -8 21 -17 33 -20 19 -6 21 -3 19 19 -1 14 -6 28 -9
32 -13 12 -7 22 16 25 17 2 23 11 25 36 2 17 0 32 -5 33 -101 12 -124 0 -103
-50 6 -17 9 -35 5 -40 -23 -39 -26 11 -24 424 2 397 1 437 -14 453 -15 14 -20
15 -38 4 -12 -8 -22 -12 -23 -10 -38 59 -38 58 -13 58 23 0 47 16 47 32 0 5
-11 13 -25 18 -17 6 -23 14 -19 25 4 9 -2 25 -12 36 -17 19 -19 19 -31 3 -7
-10 -13 -33 -13 -51 0 -29 -3 -33 -25 -33 -22 0 -25 -4 -25 -35 0 -28 4 -35
19 -35 10 0 22 8 25 17 6 15 9 15 28 -4 21 -21 20 -25 -7 -73 -17 -28 -20
-100 -5 -100 6 0 10 -7 10 -15 0 -8 -4 -15 -10 -15 -5 0 -10 -24 -10 -54 0
-61 -17 -77 -53 -51 -12 8 -25 15 -30 15 -11 0 1 -81 14 -94 5 -6 4 -15 -1
-22 -15 -17 5 -65 23 -58 8 3 20 16 27 30 7 13 16 24 19 24 7 0 11 -822 4
-866 -6 -36 -46 -56 -98 -47 -57 9 -84 -5 -159 -80 -68 -69 -120 -106 -131
-95 -3 3 -13 108 -21 234 -13 183 -21 245 -40 311 -14 46 -23 87 -20 91 3 5
-19 37 -48 71 -42 50 -55 74 -64 121 -7 32 -19 64 -28 71 -11 9 -14 22 -9 46
4 25 2 35 -9 39 -11 4 -13 14 -9 35 4 21 0 35 -12 49 -17 19 -16 21 22 67 89
109 91 127 26 180 -26 21 -56 47 -67 59 -31 32 -91 58 -189 83 -119 31 -168
24 -203 -28 -21 -32 -26 -56 -35 -162 -7 -93 -15 -134 -31 -163 l-21 -39 21
-16 c15 -11 24 -33 29 -71 8 -50 11 -55 36 -60 l29 -5 -41 -30 c-35 -25 -41
-34 -37 -57 3 -16 1 -28 -5 -28 -5 0 -17 -15 -25 -32 -8 -18 -30 -52 -49 -76
-19 -24 -39 -51 -44 -60 -9 -16 -11 -16 -27 0 -15 15 -15 18 10 51 38 50 45
119 17 182 -28 63 -46 83 -96 106 -80 37 -185 18 -243 -43 -29 -32 -63 -125
-56 -153 3 -13 -1 -27 -10 -34 -13 -11 -12 -16 2 -42 9 -16 20 -29 25 -29 4 0
7 -13 7 -28 0 -33 16 -52 45 -52 11 0 28 -9 37 -19 13 -15 25 -18 63 -14 60 7
127 -14 120 -37 -3 -9 4 -28 15 -43 25 -31 27 -98 4 -132 -12 -19 -15 -38 -10
-78 l7 -52 -48 -27 c-87 -49 -271 -136 -293 -139 -18 -3 -68 19 -95 42 -11 9
-33 23 -50 30 l-30 14 -3 180 c-1 103 4 236 12 310 7 72 11 134 8 139 -3 5 -7
45 -9 89 -4 93 11 131 51 121 28 -7 56 20 38 38 -6 6 -8 24 -5 39 7 35 -5 37
-41 8 -15 -12 -30 -18 -34 -14 -4 4 -8 185 -8 403 -1 219 -5 443 -9 498 -8 98
-7 104 19 155 33 67 33 82 -1 109 -26 20 -37 21 -75 5 -11 -4 -18 -3 -18 4 0
6 7 11 15 11 8 0 15 9 15 20 0 11 -6 20 -12 20 -7 0 -20 15 -28 32 -8 18 -20
34 -27 36 -18 5 -28 -47 -14 -70 10 -16 8 -22 -10 -37 -24 -19 -19 -41 9 -41
14 0 15 2 2 10 -8 5 -11 12 -7 16 4 4 15 0 25 -10 16 -16 16 -18 -9 -37 l-26
-19 6 -252 c9 -394 7 -743 -4 -743 -5 0 -9 6 -7 13 8 40 6 47 -11 46 -10 -1
-31 11 -47 27 -35 36 -48 36 -56 3 -5 -18 -1 -31 15 -48 12 -13 21 -29 19 -37
-2 -8 7 -15 21 -17 60 -9 67 -24 76 -145 9 -126 8 -508 -1 -754 -5 -131 -9
-163 -21 -163 -10 0 -13 -13 -12 -53 1 -28 6 -57 11 -64 5 -6 8 -17 7 -25 -1
-7 1 -21 5 -30 16 -37 0 -51 -52 -43 -26 4 -51 11 -57 16 -5 5 -23 9 -40 9
-21 0 -36 8 -49 25 -19 25 -59 34 -71 15 -16 -26 -112 -63 -165 -64 l-55 -1 1
75 c0 41 2 637 4 1324 2 688 6 1288 9 1335 l6 86 65 6 c36 4 151 5 255 3 105
-2 737 -5 1406 -5z m-1219 -411 c-9 -9 -12 -7 -12 12 0 19 3 21 12 12 9 -9 9
-15 0 -24z m102 -83 c3 -9 -1 -18 -9 -21 -8 -4 -15 -14 -15 -24 0 -23 -69 -39
-81 -19 -9 15 -7 19 13 24 46 11 55 18 51 36 -4 14 0 19 15 19 11 0 23 -7 26
-15z m-74 -171 c0 -9 -5 -12 -11 -8 -8 4 -9 -1 -4 -17 4 -13 12 -25 16 -27 5
-2 9 -12 9 -22 0 -10 6 -21 13 -23 7 -3 5 -6 -5 -6 -10 -1 -18 6 -18 14 0 8
-4 15 -10 15 -5 0 -10 -21 -10 -47 0 -88 -9 -37 -12 66 -1 56 -6 105 -10 107
-5 3 -6 10 -2 16 7 11 44 -45 44 -68z m47 -6 c-3 -7 -5 -2 -5 12 0 14 2 19 5
13 2 -7 2 -19 0 -25z m3 -28 c0 -5 -2 -10 -4 -10 -3 0 -8 5 -11 10 -3 6 -1 10
4 10 6 0 11 -4 11 -10z m9 -82 c0 -31 -1 -31 -10 -10 -5 13 -7 28 -3 33 10 16
14 9 13 -23z m-49 -14 c0 -8 -5 -12 -10 -9 -6 4 -8 11 -5 16 9 14 15 11 15 -7z
m7 -74 c0 -36 -4 -50 -13 -50 -16 0 -19 36 -4 45 6 4 10 12 9 18 -2 17 0 37 5
37 2 0 3 -22 3 -50z m53 10 c0 -5 -4 -10 -10 -10 -5 0 -10 5 -10 10 0 6 5 10
10 10 6 0 10 -4 10 -10z m-75 -80 c15 1 18 -49 5 -65 -20 -24 -30 -7 -29 48 0
32 3 45 8 34 4 -10 11 -18 16 -17z m65 -21 c0 -5 -4 -9 -10 -9 -5 0 -10 7 -10
16 0 8 5 12 10 9 6 -3 10 -10 10 -16z m-40 -64 c0 -8 -4 -15 -10 -15 -5 0 -10
7 -10 15 0 8 5 15 10 15 6 0 10 -7 10 -15z m2 -147 c3 -18 2 -45 -2 -59 -6
-19 -3 -36 11 -58 l19 -31 -27 0 c-20 0 -24 -3 -16 -11 13 -13 7 -66 -9 -86
-5 -7 -7 -20 -4 -30 3 -10 -1 -31 -9 -48 -13 -27 -14 -11 -9 140 5 159 16 231
34 220 4 -3 10 -19 12 -37z m1878 12 c0 -5 -4 -10 -10 -10 -5 0 -10 5 -10 10
0 6 5 10 10 10 6 0 10 -4 10 -10z m51 -143 c-8 -8 -11 -5 -11 9 0 27 14 41 18
19 2 -9 -1 -22 -7 -28z m-841 -7 c0 -5 -4 -10 -9 -10 -6 0 -13 5 -16 10 -3 6
1 10 9 10 9 0 16 -4 16 -10z m30 -34 c0 -2 -7 -7 -16 -10 -8 -3 -12 -2 -9 4 6
10 25 14 25 6z m-46 -92 c9 -3 16 -10 16 -16 0 -14 -43 -5 -48 10 -4 13 7 15
32 6z m-206 -26 c7 -7 12 -25 12 -40 0 -15 5 -28 11 -28 6 0 9 -7 6 -14 -3 -8
1 -29 10 -46 13 -27 20 -31 43 -26 22 4 29 1 33 -14 2 -10 15 -20 28 -22 12
-1 24 -7 26 -13 4 -12 -89 -55 -120 -55 -12 0 -31 -7 -41 -15 -11 -8 -29 -15
-39 -15 -17 0 -19 5 -14 34 3 19 3 37 -1 40 -12 13 -8 91 6 113 11 18 12 29 2
57 -16 50 6 76 38 44z m-866 -87 c3 -22 0 -31 -14 -34 -19 -5 -23 9 -12 50 8
29 21 21 26 -16z m1938 30 c0 -6 -4 -13 -10 -16 -5 -3 -10 1 -10 9 0 9 5 16
10 16 6 0 10 -4 10 -9z m0 -56 c0 -8 -2 -15 -4 -15 -2 0 -6 7 -10 15 -3 8 -1
15 4 15 6 0 10 -7 10 -15z m-980 -15 c0 -5 -7 -7 -15 -4 -8 4 -15 8 -15 10 0
2 7 4 15 4 8 0 15 -4 15 -10z m-171 -29 c-15 -5 -22 6 -14 19 6 9 10 9 16 -1
5 -8 4 -15 -2 -18z m-779 9 c0 -5 -4 -10 -10 -10 -5 0 -10 5 -10 10 0 6 5 10
10 10 6 0 10 -4 10 -10z m-38 -50 c5 0 8 -7 4 -15 -7 -18 3 -47 14 -40 5 3 6
-22 4 -55 -3 -55 -2 -62 19 -70 l22 -9 -22 -7 c-13 -3 -23 -12 -23 -20 0 -8 6
-11 15 -8 24 10 20 -48 -5 -64 -18 -11 -20 -10 -22 15 0 16 -1 34 -1 40 1 7
-3 10 -8 7 -5 -3 -9 19 -9 49 0 30 -2 90 -5 133 -2 43 -2 71 1 62 3 -10 10
-18 16 -18z m31 4 c-3 -9 2 -14 17 -14 13 0 20 -5 18 -12 -7 -21 -32 -15 -43
10 -5 12 -13 22 -17 22 -5 0 -8 4 -8 9 0 5 9 7 19 4 12 -3 17 -11 14 -19z
m1987 -68 c0 -3 -4 -8 -10 -11 -5 -3 -10 -1 -10 4 0 6 5 11 10 11 6 0 10 -2
10 -4z m-1600 -30 c0 -3 -4 -8 -10 -11 -5 -3 -10 -1 -10 4 0 6 5 11 10 11 6 0
10 -2 10 -4z m185 -6 c-3 -5 -11 -10 -16 -10 -6 0 -7 5 -4 10 3 6 11 10 16 10
6 0 7 -4 4 -10z m40 -39 c2 -12 0 -19 -6 -16 -5 4 -9 16 -9 27 0 26 9 19 15
-11z m-122 6 c-2 -4 -3 -11 -3 -17 0 -5 -15 -9 -32 -9 -44 2 -88 -17 -88 -36
0 -9 -4 -13 -10 -10 -25 15 -9 42 33 55 23 7 46 17 51 21 11 10 52 5 49 -4z
m-163 -57 c0 -29 4 -40 15 -40 8 0 15 -7 15 -15 0 -17 -16 -20 -25 -5 -3 5
-12 7 -20 3 -17 -6 -19 14 -9 66 9 44 24 39 24 -9z m182 5 c0 -5 -5 -11 -11
-13 -6 -2 -11 4 -11 13 0 9 5 15 11 13 6 -2 11 -8 11 -13z m-57 -24 c-3 -6
-11 -11 -17 -11 -6 0 -6 6 2 15 14 17 26 13 15 -4z m107 -16 c3 -15 11 -20 33
-19 17 0 38 4 48 9 34 14 7 -75 -40 -135 -2 -2 -27 -7 -56 -11 -29 -3 -67 -10
-84 -14 -22 -5 -33 -4 -33 4 0 6 13 11 28 11 39 0 66 48 63 113 -3 68 30 102
41 42z m1378 -37 c1 -27 2 -30 11 -16 11 20 39 13 39 -9 0 -8 -4 -11 -10 -8
-5 3 -10 -2 -10 -12 0 -10 -7 -31 -15 -47 -18 -34 -18 -36 -2 -36 6 0 12 -10
13 -22 1 -13 3 -44 6 -70 5 -37 3 -45 -8 -41 -8 3 -14 10 -14 16 0 6 -8 19
-17 29 -15 17 -15 20 -3 28 8 6 10 10 5 10 -6 0 -11 43 -12 105 -1 58 3 105 8
105 5 0 9 -15 9 -32z m47 10 c-3 -8 -6 -5 -6 6 -1 11 2 17 5 13 3 -3 4 -12 1
-19z m-1540 -50 c-3 -7 -5 -2 -5 12 0 14 2 19 5 13 2 -7 2 -19 0 -25z m-120
-15 c-3 -10 -5 -4 -5 12 0 17 2 24 5 18 2 -7 2 -21 0 -30z m-37 2 c0 -8 -2
-15 -4 -15 -2 0 -6 7 -10 15 -3 8 -1 15 4 15 6 0 10 -7 10 -15z m76 -10 c-10
-15 -15 -35 -11 -48 l5 -22 -11 22 c-9 18 -8 27 5 48 9 14 19 25 22 25 4 0 -1
-11 -10 -25z m44 11 c0 -3 -4 -8 -10 -11 -5 -3 -10 -1 -10 4 0 6 5 11 10 11 6
0 10 -2 10 -4z m1730 -61 c0 -8 -7 -15 -15 -15 -16 0 -20 12 -8 23 11 12 23 8
23 -8z m-1575 -35 c3 -5 17 -10 31 -10 27 0 30 -8 10 -35 -12 -17 -17 -17 -59
-6 -25 7 -68 11 -96 10 -64 -5 -67 11 -4 32 56 19 109 23 118 9z m-576 -37 c0
-25 -1 -25 -8 -8 -5 11 -7 23 -4 28 8 14 13 7 12 -20z m851 -9 c6 -14 10 -106
10 -205 0 -171 -1 -182 -25 -228 -35 -71 -64 -88 -180 -108 -16 -2 -45 -12
-63 -20 -19 -9 -55 -16 -80 -17 -37 -1 -53 -7 -75 -28 -34 -33 -57 -35 -82 -8
-15 16 -21 18 -33 8 -8 -7 -24 -12 -36 -13 -11 0 -20 -4 -19 -10 7 -48 6 -59
-4 -62 -9 -3 -13 8 -14 34 0 21 -2 47 -4 58 -2 11 4 29 13 40 17 20 177 105
198 105 7 0 14 -9 17 -21 7 -26 27 -16 27 14 0 12 5 29 10 37 7 11 10 6 10
-21 0 -22 6 -39 14 -42 19 -7 26 1 26 32 1 31 21 61 42 61 8 0 23 -9 33 -20
12 -14 22 -17 29 -10 6 6 4 16 -7 28 -24 27 -23 50 2 28 22 -20 40 -4 21 19
-7 8 -9 22 -5 32 4 10 16 56 26 103 29 134 31 139 82 203 36 43 54 47 67 11z
m1270 -5 c0 -5 -4 -9 -10 -9 -5 0 -10 7 -10 16 0 8 5 12 10 9 6 -3 10 -10 10
-16z m-130 -105 c0 -8 -5 -12 -10 -9 -6 4 -8 11 -5 16 9 14 15 11 15 -7z
m-1982 -56 c2 -34 -1 -47 -13 -51 -12 -5 -15 3 -15 49 0 69 23 71 28 2z m1973
17 c5 4 9 -1 9 -9 0 -9 -4 -16 -10 -16 -5 0 -10 -7 -10 -15 0 -9 6 -12 18 -9
9 4 4 -3 -13 -15 -16 -11 -33 -21 -37 -21 -12 0 -9 69 3 92 10 19 12 20 21 4
5 -9 13 -14 19 -11z m-1994 -117 c-3 -8 -6 -5 -6 6 -1 11 2 17 5 13 3 -3 4
-12 1 -19z m2125 -73 c4 -16 15 -44 25 -62 21 -39 12 -51 -21 -29 -14 9 -39
16 -56 16 -29 0 -30 2 -30 41 0 69 65 96 82 34z m-102 -5 c0 -5 -2 -10 -4 -10
-3 0 -8 5 -11 10 -3 6 -1 10 4 10 6 0 11 -4 11 -10z m-30 -30 c0 -5 -9 -10
-20 -10 -11 0 -20 5 -20 10 0 6 9 10 20 10 11 0 20 -4 20 -10z m-80 -45 c0 -9
-11 -20 -25 -25 -13 -5 -43 -34 -67 -64 -40 -51 -107 -106 -128 -106 -6 0 -10
-3 -10 -8 0 -9 -45 -28 -87 -37 -17 -3 -37 -13 -44 -21 -6 -8 -14 -14 -18 -14
-11 0 -6 95 5 95 21 1 93 56 136 104 25 28 50 51 56 51 5 0 15 7 23 16 10 12
23 14 60 9 28 -4 55 -2 66 4 25 14 33 13 33 -4z m52 -22 c-5 -59 -10 -63 -11
-10 -1 26 3 47 7 47 4 0 6 -17 4 -37z m445 -69 c-2 -47 -7 -87 -10 -90 -3 -3
-13 -1 -24 4 -10 5 -34 17 -53 26 -20 9 -41 25 -48 36 -10 16 -7 20 21 29 18
6 37 21 42 33 9 21 48 48 69 48 5 0 6 -38 3 -86z m-238 7 c77 -80 134 -121
168 -121 13 0 33 -5 44 -10 17 -10 19 -22 19 -137 0 -141 -9 -146 -59 -35 -6
12 -14 22 -18 22 -11 0 -63 -66 -63 -79 0 -6 -4 -11 -10 -11 -5 0 -10 14 -10
30 0 31 44 85 61 75 4 -3 9 9 11 27 3 34 38 56 38 24 0 -20 19 -31 33 -17 7 7
5 16 -8 31 -17 18 -26 20 -74 14 -31 -3 -61 -12 -67 -20 -6 -7 -22 -18 -35
-22 -22 -9 -25 -6 -34 32 -7 26 -17 42 -29 44 -22 5 -45 -25 -46 -60 0 -24
-23 -48 -44 -48 -3 0 -6 72 -6 159 0 118 3 161 13 164 33 14 54 3 116 -62z
m-2179 19 c0 -11 -4 -20 -10 -20 -5 0 -10 9 -10 20 0 11 5 20 10 20 6 0 10 -9
10 -20z m1914 -2 c3 -13 6 -57 6 -99 l0 -77 -47 5 c-27 3 -52 9 -57 14 -6 5
-23 9 -38 9 -38 0 -36 24 2 47 17 10 33 28 36 40 3 12 18 30 32 39 15 9 31 23
35 31 12 19 24 16 31 -9z m376 13 c0 -12 -28 -22 -34 -12 -3 5 -3 11 1 15 9 9
33 7 33 -3z m-2142 -24 c12 -13 38 -29 57 -37 32 -13 35 -17 35 -57 0 -27 -5
-43 -12 -44 -7 -1 -41 -3 -74 -4 -34 -2 -71 -8 -82 -14 -11 -6 -29 -11 -39
-11 -17 0 17 20 59 33 11 4 15 13 11 27 -5 19 -10 21 -58 15 -31 -4 -55 -3
-59 3 -3 5 16 12 44 16 46 6 69 20 56 33 -3 3 -26 0 -50 -7 -25 -7 -53 -9 -63
-5 -13 5 3 12 51 21 65 13 91 28 80 46 -12 18 24 6 44 -15z m-111 -3 c-3 -3
-12 -4 -19 -1 -8 3 -5 6 6 6 11 1 17 -2 13 -5z m833 -32 c0 -26 -6 -41 -20
-50 -26 -16 -29 -102 -4 -127 20 -19 11 -45 -15 -45 -11 0 -26 -3 -34 -6 -22
-8 -32 93 -16 159 12 47 56 105 82 107 4 0 7 -17 7 -38z m-291 -109 c-1 -63
-4 -65 -132 -68 -83 -1 -117 1 -114 9 4 11 199 84 230 85 12 1 17 -6 16 -26z
m1135 -18 c-4 -8 -14 -15 -23 -15 -9 0 -25 -7 -35 -15 -11 -8 -31 -15 -44 -15
-21 0 -22 2 -12 15 7 8 22 15 34 15 11 1 32 7 46 15 32 18 41 18 34 0z m-1977
-26 c21 -24 32 -30 52 -26 14 3 37 -1 51 -8 14 -8 44 -14 68 -15 l42 0 0 -40
c0 -33 -3 -40 -20 -40 -11 0 -19 6 -17 13 1 9 -50 13 -226 15 -225 2 -228 3
-225 23 2 18 12 22 56 25 49 4 107 28 167 70 25 18 22 19 52 -17z m511 -1 c15
-40 10 -45 -33 -29 -21 7 -53 9 -84 5 -53 -7 -61 -1 -38 29 8 11 31 17 72 20
33 2 62 4 65 5 3 1 11 -12 18 -30z m1558 18 c4 -11 16 -13 41 -9 26 4 34 3 29
-5 -4 -7 -14 -12 -22 -12 -8 0 -14 -4 -14 -9 0 -6 -16 -7 -35 -4 -20 3 -41 1
-49 -6 -7 -6 -20 -9 -29 -6 -9 4 -21 -2 -29 -13 -10 -15 -23 -19 -53 -16 -43
3 -85 -17 -85 -41 0 -8 -7 -15 -15 -15 -27 0 -16 24 27 60 26 21 43 30 46 22
3 -9 12 -6 32 8 15 11 34 18 42 15 8 -3 24 6 36 20 24 27 69 34 78 11z m-1798
-38 c-3 -7 -11 -13 -18 -13 -7 0 -15 6 -17 13 -3 7 4 12 17 12 13 0 20 -5 18
-12z m1562 -13 c-14 -17 -45 -21 -35 -5 4 6 10 8 15 5 5 -3 11 -1 15 5 3 5 9
10 12 10 3 0 0 -7 -7 -15z m319 -8 c13 -16 27 -77 17 -77 -3 0 -15 5 -26 12
-15 10 -22 9 -39 -6 -19 -17 -66 -21 -208 -17 -46 1 -51 3 -46 21 6 22 39 27
46 8 3 -10 8 -10 21 1 13 11 20 11 28 3 19 -19 28 -14 28 13 0 29 7 31 32 8
10 -9 18 -12 18 -6 0 5 6 18 14 29 14 19 15 19 40 -5 19 -18 26 -20 26 -10 0
15 19 39 31 39 4 0 12 -6 18 -13z m270 -10 c-5 -43 -1 -46 38 -27 20 10 42 16
49 13 6 -2 14 5 17 16 3 12 10 21 16 21 20 0 11 -28 -16 -52 -16 -13 -36 -34
-47 -46 -17 -19 -17 -22 -2 -37 27 -28 20 -45 -19 -45 -37 0 -47 18 -21 40 8
6 12 18 9 26 -3 8 0 14 6 14 6 0 11 5 11 10 0 18 -29 11 -42 -10 -7 -11 -22
-20 -33 -20 -19 1 -19 1 -2 14 21 16 22 26 2 26 -8 0 -15 7 -15 15 0 8 5 15
10 15 6 0 10 8 10 18 0 10 3 22 6 25 9 9 25 -2 23 -16z m-1952 -2 c17 -12 40
-14 105 -9 45 3 91 10 101 16 11 5 30 6 45 2 27 -8 44 -10 91 -13 23 -1 24 -3
18 -67 -4 -37 -8 -69 -10 -71 -3 -2 -24 1 -48 7 -24 6 -130 14 -236 17 l-192
6 4 50 c3 47 6 51 37 63 46 16 60 16 85 -1z m1768 -15 c3 -5 15 -10 26 -10 10
0 19 -5 19 -10 0 -6 -11 -8 -27 -4 -35 9 -43 13 -43 25 0 12 17 12 25 -1z m99
-61 c-10 -16 -24 -9 -24 12 0 18 2 19 15 9 8 -7 12 -16 9 -21z m-2304 -9 c0
-5 -12 -10 -27 -10 -35 0 -58 -14 -49 -29 5 -7 51 -11 132 -11 l124 0 0 -140
c0 -138 0 -140 -22 -141 -93 -2 -190 -18 -201 -32 -9 -12 -41 -17 -139 -23
l-128 -7 0 202 0 201 155 0 c97 0 155 -4 155 -10z m2110 0 c0 -5 7 -10 15 -10
8 0 15 -7 15 -15 0 -18 -2 -18 -35 -3 -27 12 -34 38 -10 38 8 0 15 -4 15 -10z
m-212 -22 c13 -13 36 -18 107 -23 28 -2 52 -4 55 -5 19 -2 -32 -20 -60 -20
-51 0 -110 -19 -110 -34 0 -17 22 -26 66 -26 43 0 43 -8 0 -42 -43 -34 -46
-34 -46 -2 0 32 -24 57 -49 49 -34 -11 -53 -43 -56 -92 -1 -34 -6 -49 -17 -51
-12 -2 -17 13 -22 74 -4 42 -4 79 -1 83 3 3 36 13 73 21 48 11 68 20 70 33 3
15 -6 17 -72 17 -61 0 -76 3 -76 15 0 12 14 15 63 15 35 0 68 -5 75 -12z
m-1820 -5 c-15 -2 -42 -2 -60 0 -18 2 -6 4 27 4 33 0 48 -2 33 -4z m85 0 c-7
-2 -21 -2 -30 0 -10 3 -4 5 12 5 17 0 24 -2 18 -5z m913 -14 c8 -7 11 -33 9
-77 -3 -37 -6 -244 -9 -461 -3 -217 -9 -398 -13 -402 -5 -5 -19 -6 -31 -2
l-23 6 6 171 c3 94 8 206 10 249 6 78 -6 102 -25 55 -8 -21 -9 -21 -9 7 0 17
6 71 14 120 8 50 15 103 15 119 0 24 -2 26 -14 16 -8 -6 -17 -26 -19 -43 -7
-47 1 127 9 200 l7 63 31 -6 c16 -3 36 -10 42 -15z m-114 -41 c-5 -72 -12 -74
-12 -5 0 32 4 57 8 57 5 0 7 -24 4 -52z m1398 44 c0 -4 -15 -14 -32 -22 -18
-7 -37 -15 -41 -18 -5 -2 -1 7 8 22 16 24 65 38 65 18z m-150 -22 c0 -5 -4
-10 -10 -10 -5 0 -10 5 -10 10 0 6 5 10 10 10 6 0 10 -4 10 -10z m-1463 -26
c24 -18 28 -28 27 -68 0 -25 -5 -51 -10 -56 -12 -12 -97 -27 -206 -35 -53 -5
-78 -11 -78 -19 0 -15 -64 -36 -111 -36 -35 0 -68 -14 -57 -25 11 -12 183 24
195 41 8 11 40 18 115 25 57 5 112 10 122 12 21 2 20 4 17 -95 -1 -45 -3 -48
-28 -48 -16 -1 -41 -12 -58 -26 l-30 -25 21 -18 22 -18 -32 -15 c-50 -26 -73
-28 -91 -8 -19 21 -43 16 -64 -13 -12 -17 -22 -19 -85 -14 -96 8 -102 18 -111
165 -10 151 -3 281 16 293 8 6 94 9 206 7 177 -3 194 -5 220 -24z m1063 16
c-8 -5 -24 -10 -35 -10 -17 0 -17 2 -5 10 8 5 24 10 35 10 17 0 17 -2 5 -10z
m334 -15 c4 -12 -3 -15 -29 -15 -18 0 -44 -4 -57 -9 -13 -4 -45 -5 -73 -2
l-50 7 80 7 c44 5 87 12 95 17 21 13 27 12 34 -5z m230 0 c8 -8 19 -15 25 -15
16 0 13 -15 -4 -30 -8 -7 -15 -19 -15 -27 0 -7 -7 -16 -15 -19 -8 -4 -15 -16
-15 -28 0 -19 -4 -21 -35 -18 -33 4 -50 22 -21 22 14 0 23 30 24 78 1 24 18
52 33 52 4 0 14 -7 23 -15z m206 -4 c0 -10 9 -21 20 -24 12 -3 20 -14 20 -26
0 -12 5 -21 10 -21 6 0 10 -12 10 -27 0 -25 -1 -25 -18 -10 -10 10 -27 17 -38
17 -19 0 -37 29 -50 83 -5 24 -3 27 20 27 19 0 26 -5 26 -19z m-83 -42 c-4
-34 -2 -39 14 -39 14 0 19 -7 19 -30 0 -30 21 -42 35 -20 10 17 25 11 25 -10
0 -11 -6 -20 -14 -20 -8 0 -21 -3 -30 -6 -10 -4 -19 3 -28 20 -14 33 -48 32
-63 -1 -8 -18 -18 -23 -49 -23 -32 0 -37 2 -26 15 6 8 9 23 5 35 -6 20 8 29
19 11 7 -10 56 -2 56 9 0 5 -10 10 -22 12 -25 4 -37 28 -14 28 9 0 16 8 16 20
0 11 6 20 14 20 8 0 17 7 20 16 11 29 28 2 23 -37z m-287 31 c0 -5 -4 -10 -10
-10 -5 0 -10 5 -10 10 0 6 5 10 10 10 6 0 10 -4 10 -10z m26 -43 c4 -4 -5 -7
-19 -7 -15 0 -27 4 -27 10 0 11 35 8 46 -3z m-140 -23 c-9 -8 -16 -22 -16 -30
0 -13 -2 -13 -16 1 -18 17 -18 17 11 33 29 16 39 14 21 -4z m-1155 -189 c-10
-36 -10 -34 -6 24 3 35 6 82 7 105 1 25 3 15 5 -24 2 -36 -1 -83 -6 -105z
m1073 150 c-4 -8 0 -23 7 -32 12 -14 12 -15 -1 -10 -8 4 -23 10 -33 13 -16 6
-16 8 4 25 27 23 30 24 23 4z m-94 -35 c-14 -11 -29 -20 -35 -20 -5 0 1 9 15
20 14 11 30 20 35 20 6 0 -1 -9 -15 -20z m230 -5 c0 -9 -6 -12 -15 -9 -8 4
-15 10 -15 15 0 5 7 9 15 9 8 0 15 -7 15 -15z m160 -10 c0 -13 14 -20 64 -27
23 -4 34 -28 12 -28 -8 0 -20 -9 -26 -20 -8 -15 -17 -19 -31 -15 -10 4 -19 2
-19 -4 0 -15 43 -20 192 -23 127 -3 138 -4 138 -22 0 -16 -5 -17 -32 -11 -18
5 -82 9 -143 11 -60 1 -127 3 -147 3 l-38 1 0 46 c0 44 1 46 25 40 14 -4 25
-2 25 4 0 5 -11 12 -25 16 -27 7 -36 44 -10 44 8 0 15 -7 15 -15z m-360 -9 c0
-3 -4 -8 -10 -11 -5 -3 -10 -1 -10 4 0 6 5 11 10 11 6 0 10 -2 10 -4z m140
-27 c10 -7 5 -9 -19 -7 -19 2 -36 9 -39 17 -3 10 2 11 19 6 13 -4 31 -11 39
-16z m-1193 -11 c-3 -8 -6 -5 -6 6 -1 11 2 17 5 13 3 -3 4 -12 1 -19z m1599
-10 c24 -17 44 -33 44 -35 0 -2 -34 -3 -75 -3 -71 0 -97 12 -56 25 10 3 21 15
24 25 7 26 11 25 63 -12z m144 12 c0 -22 -16 -25 -55 -10 -34 13 -23 30 21 30
27 0 34 -4 34 -20z m-825 0 c-3 -5 -13 -10 -21 -10 -8 0 -12 5 -9 10 3 6 13
10 21 10 8 0 12 -4 9 -10z m-1560 -10 c3 -5 1 -10 -4 -10 -6 0 -11 5 -11 10 0
6 2 10 4 10 3 0 8 -4 11 -10z m1895 -15 c0 -29 -25 -34 -56 -10 -18 14 -18 14
4 15 13 0 20 4 17 10 -3 6 3 10 14 10 16 0 21 -6 21 -25z m-145 -14 c72 -9
135 -36 135 -56 0 -13 -3 -13 -25 1 -21 14 -34 15 -74 7 -36 -7 -53 -6 -66 3
-9 7 -23 10 -29 8 -7 -3 -19 2 -26 11 -18 21 -37 19 -63 -9 -12 -13 -34 -26
-47 -27 -22 -4 -25 0 -28 28 -3 30 -1 32 40 42 24 5 61 7 83 4 22 -2 67 -8
100 -12z m595 -11 c0 -5 -4 -10 -9 -10 -6 0 -13 5 -16 10 -3 6 1 10 9 10 9 0
16 -4 16 -10z m-2420 -40 l0 -40 -247 0 c-276 0 -314 13 -84 28 110 7 147 13
156 25 12 17 43 23 123 26 l52 1 0 -40z m797 3 c-3 -10 -5 -4 -5 12 0 17 2 24
5 18 2 -7 2 -21 0 -30z m-761 -20 c-10 -26 -18 -8 -9 23 5 21 8 24 11 11 2
-10 1 -25 -2 -34z m1684 7 c0 -11 -7 -20 -15 -20 -17 0 -18 2 -9 24 9 23 24
20 24 -4z m67 -16 c4 -10 0 -20 -10 -26 -9 -4 -14 -15 -11 -23 6 -15 -50 -50
-66 -40 -6 3 -10 19 -10 35 0 27 2 29 24 20 21 -8 24 -5 30 21 6 32 33 40 43
13z m129 1 c19 -14 18 -14 -3 -15 -12 0 -26 -8 -32 -17 -9 -17 -11 -17 -23 -1
-7 9 -22 18 -33 21 -15 4 -14 5 7 6 15 0 30 6 33 11 9 14 28 12 51 -5z m439
-3 l50 -6 -70 -7 c-81 -7 -235 0 -235 12 0 9 187 11 255 1z m-315 -22 c0 -4
-7 -10 -15 -14 -10 -4 -15 1 -15 14 0 13 5 18 15 14 8 -4 15 -10 15 -14z
m-1343 -22 c-3 -7 -5 -2 -5 12 0 14 2 19 5 13 2 -7 2 -19 0 -25z m28 -247
c-15 -119 -29 -218 -31 -220 -6 -7 -4 28 6 99 5 36 16 135 24 220 9 85 17 162
18 170 0 8 3 0 5 -19 3 -18 -7 -131 -22 -250z m935 257 c0 -15 -9 -27 -25 -35
-35 -16 -42 2 -13 32 29 31 38 31 38 3z m-1660 -78 c0 -70 2 -81 21 -91 12 -6
30 -9 40 -6 10 3 21 1 25 -4 3 -5 -115 -9 -285 -8 l-291 1 0 93 0 93 245 0
245 1 0 -79z m780 -65 c-11 -172 -30 -378 -36 -384 -14 -14 -20 23 -14 79 28
230 40 341 50 449 0 2 2 2 4 0 3 -2 0 -67 -4 -144z m1060 125 c0 -11 7 -20 15
-20 8 0 15 -9 15 -20 0 -24 -4 -25 -41 -3 -35 21 -41 63 -9 63 13 0 20 -7 20
-20z m630 -19 c0 -60 -10 -64 -162 -56 -143 8 -201 22 -206 49 -8 39 1 41 187
44 l181 2 0 -39z m-450 3 c0 -8 -4 -12 -10 -9 -5 3 -10 10 -10 16 0 5 5 9 10
9 6 0 10 -7 10 -16z m-64 -4 c11 0 14 -25 14 -133 0 -225 -12 -467 -23 -467
-6 0 -26 10 -45 23 -33 22 -34 23 -28 82 3 33 10 150 16 260 12 231 15 249 36
241 9 -3 22 -6 30 -6z m-1851 -10 c4 -6 -5 -10 -19 -10 -14 0 -26 5 -26 10 0
6 9 10 19 10 11 0 23 -4 26 -10z m1534 -45 c-24 -35 -39 -44 -39 -25 0 13 52
71 58 65 3 -2 -6 -20 -19 -40z m-1453 -32 c23 -26 40 -51 38 -55 -3 -5 -26 -8
-52 -8 l-47 0 3 55 c2 30 6 55 9 55 3 0 25 -21 49 -47z m1544 37 c5 0 4 -16
-1 -35 -6 -19 -7 -40 -4 -45 3 -6 -2 -10 -13 -10 -22 0 -69 -47 -74 -74 -1
-11 -9 -21 -17 -24 -20 -7 -8 108 14 124 8 6 15 15 15 19 0 17 44 55 58 50 7
-3 17 -5 22 -5z m90 -15 c9 -11 16 -12 25 -5 6 5 15 7 18 3 9 -8 9 -138 1
-146 -12 -12 -42 12 -48 38 -8 31 -30 28 -34 -3 -2 -12 -30 -46 -63 -75 -51
-44 -59 -56 -54 -77 4 -14 6 -49 5 -78 -1 -39 3 -54 14 -58 18 -7 22 -24 5
-24 -6 0 -17 7 -25 15 -11 10 -21 12 -39 5 l-25 -10 0 71 c0 76 20 139 44 139
19 0 36 30 36 63 0 27 31 42 48 25 18 -18 34 3 28 36 -13 68 30 122 64 81z
m313 9 c12 -4 14 -19 11 -67 -2 -34 -6 -138 -9 -232 -6 -208 -15 -317 -27
-313 -17 6 -16 618 1 618 5 0 16 -3 24 -6z m97 -18 c0 -3 -4 -8 -10 -11 -5 -3
-10 -1 -10 4 0 6 5 11 10 11 6 0 10 -2 10 -4z m82 -8 c-20 -20 -14 -28 23 -28
27 0 34 -4 33 -17 -3 -42 3 -83 12 -83 6 0 10 21 10 48 0 26 5 54 11 62 8 11
9 -14 4 -87 -6 -103 -4 -110 29 -97 17 7 22 34 6 34 -5 0 -10 11 -10 25 0 27
12 32 28 12 15 -18 12 -78 -5 -84 -18 -7 -17 -23 2 -23 12 0 15 -13 15 -55 0
-42 -3 -55 -15 -55 -18 0 -19 -9 -2 -31 9 -12 13 -112 15 -387 l4 -370 -44 -3
c-24 -2 -107 -3 -184 -1 l-142 3 2 122 1 122 25 3 c32 4 50 28 50 65 0 20 -6
30 -20 34 -13 3 -20 14 -20 29 0 13 -9 32 -20 41 -26 22 -26 53 -1 53 26 0 44
25 36 51 -4 11 -3 71 1 133 5 61 10 96 12 79 2 -21 9 -33 18 -33 10 0 14 14
14 55 0 41 -4 55 -14 55 -19 0 -29 89 -17 155 8 48 9 46 10 -37 1 -110 20
-118 22 -10 1 42 4 65 6 50 2 -16 9 -28 15 -28 7 0 8 19 3 55 -6 48 -4 55 10
55 11 0 15 5 11 15 -3 8 -1 25 4 37 6 17 9 4 11 -52 2 -41 4 -86 5 -100 1 -14
3 -42 3 -62 1 -21 6 -38 11 -38 7 0 8 51 4 150 l-6 150 23 0 c18 0 20 -3 11
-12z m-2256 -36 c-10 -10 -29 15 -21 28 6 9 10 8 17 -4 6 -10 7 -20 4 -24z
m1994 28 c0 -5 -5 -10 -11 -10 -5 0 -7 5 -4 10 3 6 8 10 11 10 2 0 4 -4 4 -10z
m411 -54 c14 -15 11 -36 -5 -36 -20 0 -29 32 -19 67 l7 28 4 -25 c2 -14 8 -29
13 -34z m-1654 12 c-3 -7 -5 -2 -5 12 0 14 2 19 5 13 2 -7 2 -19 0 -25z m1388
-18 c3 -5 -1 -10 -9 -10 -9 0 -16 5 -16 10 0 6 4 10 9 10 6 0 13 -4 16 -10z
m-1657 -21 c18 -28 0 -49 -24 -28 -9 7 -32 13 -52 14 -20 0 -37 6 -40 14 -3 9
1 11 15 7 11 -4 31 -2 44 3 36 14 43 13 57 -10z m-388 -64 c6 -8 10 -26 8 -42
-2 -22 -8 -28 -28 -29 -14 0 -34 -3 -45 -7 -19 -6 -20 -3 -17 63 4 74 22 99
22 30 0 -22 5 -40 10 -40 6 0 10 17 10 38 0 47 12 62 22 27 3 -14 12 -32 18
-40z m57 43 c-3 -8 -6 -5 -6 6 -1 11 2 17 5 13 3 -3 4 -12 1 -19z m607 -118
c-7 -151 -10 -185 -18 -199 -15 -23 -23 -10 -20 32 20 242 28 307 35 296 4 -7
6 -65 3 -129z m-1261 51 l3 -71 -28 0 c-24 0 -28 4 -27 28 0 27 1 27 11 5 19
-40 28 -25 28 49 0 91 10 83 13 -11z m47 4 c0 -43 -4 -75 -10 -75 -6 0 -10 32
-10 75 0 43 4 75 10 75 6 0 10 -32 10 -75z m195 -35 c11 0 15 14 15 55 l0 55
35 0 35 0 0 -70 0 -70 -55 0 -55 0 2 73 c2 69 2 70 5 15 3 -42 8 -58 18 -58z
m125 40 c0 -40 -4 -70 -10 -70 -6 0 -10 30 -10 70 0 40 4 70 10 70 6 0 10 -30
10 -70z m40 54 c0 -15 23 -44 34 -44 3 0 10 15 15 33 9 30 10 29 6 -13 -2 -25
-4 -57 -4 -72 -1 -25 -5 -28 -36 -28 l-35 0 0 70 c0 40 4 70 10 70 6 0 10 -7
10 -16z m207 -16 c-3 -7 -5 -2 -5 12 0 14 2 19 5 13 2 -7 2 -19 0 -25z m183
12 c0 -26 27 -37 51 -21 15 9 19 8 19 -2 0 -24 -64 -39 -109 -26 -43 13 -47
33 -5 23 23 -6 24 -4 18 20 -5 20 -2 26 10 26 9 0 16 -8 16 -20z m-610 -65 c0
-63 -1 -65 -26 -65 -19 0 -25 4 -20 15 3 9 0 15 -9 15 -8 0 -15 -7 -15 -15 0
-9 -9 -15 -25 -15 -25 0 -25 1 -19 58 7 61 14 81 14 40 0 -15 7 -28 18 -32 9
-3 23 -9 30 -12 6 -3 12 1 12 9 0 8 7 17 15 21 8 3 15 15 15 26 0 11 2 20 5
20 3 0 5 -29 5 -65z m768 39 c25 -12 32 -22 32 -45 0 -26 -2 -29 -19 -19 -25
13 -68 13 -76 0 -3 -5 -21 -10 -39 -10 -20 0 -40 -8 -50 -19 -14 -15 -30 -20
-67 -19 -43 1 -49 4 -49 23 0 42 42 57 93 34 19 -9 30 -8 49 5 14 9 28 13 31
10 10 -11 37 17 37 37 0 23 17 24 58 3z m-461 -76 c-2 -13 -4 -3 -4 22 0 25 2
35 4 23 2 -13 2 -33 0 -45z m154 -43 c5 4 8 -10 8 -32 -1 -21 -3 -30 -6 -20
-8 30 -23 18 -24 -20 -2 -57 -14 -102 -23 -82 -4 9 -2 36 3 60 6 25 8 55 4 67
-3 12 -2 30 2 39 6 17 7 17 16 0 6 -9 14 -15 20 -12z m317 3 c6 -13 13 -39 14
-58 2 -25 10 -38 28 -47 27 -13 31 -28 18 -56 -8 -15 -21 -17 -91 -16 -73 1
-97 8 -136 36 -3 2 5 13 17 26 20 21 20 25 7 51 -9 16 -13 37 -10 47 7 22 34
32 50 19 9 -7 21 -6 41 5 39 20 49 19 62 -7z m1272 8 c0 -2 -7 -6 -15 -10 -8
-3 -15 -1 -15 4 0 6 7 10 15 10 8 0 15 -2 15 -4z m-1660 -112 l0 -106 -25 23
c-17 17 -22 31 -18 47 4 19 2 23 -13 22 -35 -4 -42 0 -53 30 -14 40 -24 38
-46 -10 -10 -22 -24 -40 -30 -40 -7 0 -18 -7 -25 -15 -11 -13 -11 -20 0 -39
12 -24 7 -46 -10 -46 -5 0 -12 10 -15 21 -12 37 -36 -1 -38 -58 -2 -51 -19
-83 -43 -83 -20 0 -47 47 -41 70 3 11 1 22 -4 25 -4 3 -6 19 -2 35 4 25 2 30
-13 30 -18 1 -18 1 1 12 11 7 26 18 33 25 7 7 20 13 28 13 19 0 18 34 -1 50
-8 7 -15 21 -15 31 0 22 -36 33 -83 26 -17 -2 -43 0 -56 5 -28 10 -61 2 -61
-16 0 -8 -7 -19 -15 -26 -23 -19 -18 -37 14 -48 29 -10 56 -44 45 -55 -3 -3
-12 -3 -20 0 -8 3 -14 0 -14 -6 0 -6 -19 -11 -45 -11 l-45 0 0 78 c0 120 -62
105 503 120 l107 3 0 -107z m174 61 c3 -8 12 -15 21 -15 20 0 19 -14 -2 -46
-13 -21 -14 -30 -5 -45 11 -18 9 -19 -39 -19 l-52 0 7 53 c8 65 54 113 70 72z
m1456 -19 c0 -33 23 -51 40 -31 7 8 21 15 31 15 16 0 19 -8 19 -41 0 -37 -2
-40 -22 -33 -65 20 -128 54 -128 70 0 11 5 14 16 10 11 -4 18 1 21 14 7 28 23
25 23 -4z m-2092 -1 c19 -14 24 -14 44 -1 25 16 56 7 43 -14 -4 -7 1 -13 14
-17 12 -3 21 -12 21 -20 0 -8 -4 -12 -9 -8 -5 3 -12 -4 -16 -15 -4 -13 -15
-20 -30 -20 -19 0 -24 -6 -27 -32 -4 -44 -32 -45 -36 -1 -2 19 -16 46 -33 64
-25 27 -28 34 -15 41 8 5 13 15 10 23 -8 19 6 19 34 0z m529 -77 c-3 -8 -6 -5
-6 6 -1 11 2 17 5 13 3 -3 4 -12 1 -19z m698 -57 c3 -11 5 -59 3 -106 -3 -96
-11 -108 -87 -133 -43 -15 -41 -16 -41 11 0 12 -9 51 -20 87 -11 36 -20 84
-20 106 l0 42 44 -5 c26 -3 46 -1 50 6 12 19 64 13 71 -8z m768 12 c-13 -2
-33 -2 -45 0 -13 2 -3 4 22 4 25 0 35 -2 23 -4z m-1063 -57 c23 -51 26 -109 8
-123 -8 -6 -88 -8 -200 -5 l-188 4 0 84 0 84 180 0 180 0 20 -44z m-443 -13
c-3 -10 -5 -2 -5 17 0 19 2 27 5 18 2 -10 2 -26 0 -35z m1736 5 c64 -42 66
-44 67 -85 l0 -42 -179 0 -178 0 -7 76 c-3 41 -3 79 0 84 3 5 56 9 118 9 l113
0 66 -42z m-2260 18 c28 -21 20 -27 -30 -24 -36 2 -49 7 -51 21 -3 13 3 17 30
17 18 0 41 -7 51 -14z m554 -38 c-3 -8 -6 -5 -6 6 -1 11 2 17 5 13 3 -3 4 -12
1 -19z m-602 -23 c16 -14 23 -29 19 -39 -4 -11 -1 -16 10 -16 10 0 16 -9 16
-23 0 -13 5 -28 12 -35 15 -15 4 -26 -17 -19 -8 4 -15 16 -15 27 0 13 -7 20
-19 20 -11 0 -23 5 -26 10 -3 6 -18 10 -32 10 -21 0 -24 3 -19 23 3 12 6 35 6
50 0 24 3 27 20 22 11 -4 32 -17 45 -30z m2473 19 c14 -6 13 -8 -7 -13 -21 -6
-24 -12 -26 -64 -2 -65 -7 -74 -25 -51 -11 12 -11 20 -2 35 7 10 12 39 12 64
0 46 0 46 48 29z m-1931 -36 c-3 -8 -6 -5 -6 6 -1 11 2 17 5 13 3 -3 4 -12 1
-19z m1943 -8 c0 -5 -4 -10 -10 -10 -5 0 -10 5 -10 10 0 6 5 10 10 10 6 0 10
-4 10 -10z m-2359 -40 c21 -21 39 -42 39 -45 0 -3 -12 -3 -27 1 -38 9 -75 46
-67 67 8 23 10 22 55 -23z m420 -162 c1 -95 1 -191 2 -213 l0 -40 -219 -12
c-275 -14 -401 -15 -408 -4 -3 5 -3 52 1 105 l6 97 22 -27 c19 -24 26 -26 60
-20 32 6 37 5 32 -8 -4 -9 5 -29 20 -46 25 -30 37 -32 39 -7 0 7 2 19 2 28 1
9 13 20 27 23 28 7 32 27 10 46 -15 13 -21 50 -7 50 4 0 13 -9 20 -20 7 -11
18 -20 26 -20 16 0 29 27 20 42 -8 13 15 28 33 21 19 -7 16 -30 -4 -38 -16 -6
-15 -8 7 -17 23 -9 24 -10 8 -22 -24 -17 -23 -26 3 -26 12 0 19 -5 16 -12 -2
-7 -18 -12 -36 -12 -35 2 -39 -10 -14 -46 22 -32 33 -40 60 -40 13 0 24 -8 28
-20 7 -22 20 -26 30 -10 3 6 24 10 46 10 29 0 41 5 45 18 3 9 11 28 18 42 15
28 12 44 -15 79 -26 33 -24 41 9 32 39 -11 92 5 92 29 0 23 -47 58 -89 66 -26
6 -30 10 -25 30 5 18 2 24 -10 24 -9 0 -16 -5 -16 -11 0 -8 -5 -7 -16 2 -13
11 -17 10 -25 -4 -12 -21 -27 -22 -51 0 -24 21 -23 45 2 61 25 15 67 6 97 -20
21 -20 21 -20 33 2 9 16 9 25 -1 36 -7 9 -8 14 -1 14 6 0 18 -10 26 -21 18
-26 46 -19 46 11 0 15 7 20 25 20 l25 0 1 -172z m1936 166 c-3 -3 -12 -4 -19
-1 -8 3 -5 6 6 6 11 1 17 -2 13 -5z m56 -8 c6 -15 -1 -26 -15 -26 -4 0 -8 9
-8 20 0 23 15 27 23 6z m-1936 -18 c-3 -8 -6 -5 -6 6 -1 11 2 17 5 13 3 -3 4
-12 1 -19z m155 -75 c6 -7 8 -13 5 -13 -3 0 -12 -3 -21 -6 -12 -5 -14 1 -11
33 5 50 7 53 12 23 3 -14 10 -31 15 -37z m1675 21 c-3 -3 -12 -4 -19 -1 -8 3
-5 6 6 6 11 1 17 -2 13 -5z m-1287 -14 c0 -5 -4 -10 -10 -10 -5 0 -10 5 -10
10 0 6 5 10 10 10 6 0 10 -4 10 -10z m1106 -21 c8 -14 -18 -31 -30 -19 -9 9 0
30 14 30 5 0 12 -5 16 -11z m-2026 -18 c0 -14 -6 -17 -24 -14 -16 3 -23 10
-19 19 8 21 43 17 43 -5z m2269 9 c21 0 -31 -38 -63 -46 l-28 -7 17 33 c13 25
21 31 38 26 12 -3 28 -6 36 -6z m-1229 -10 c0 -5 -6 -10 -12 -10 -8 0 -9 -3
-3 -8 6 -4 10 -28 10 -54 0 -45 0 -46 -18 -27 -10 11 -23 17 -29 13 -5 -4 -5
4 2 17 11 19 10 24 -6 36 -12 9 -20 10 -22 3 -2 -5 -10 -10 -17 -10 -7 0 -15
-7 -19 -15 -3 -9 0 -15 10 -15 11 0 14 -6 10 -16 -3 -9 -6 -22 -6 -30 0 -8 -4
-14 -10 -14 -5 0 -10 13 -10 29 0 17 -4 33 -10 36 -5 3 -10 17 -10 30 0 21 4
24 28 19 15 -2 38 2 52 10 30 17 60 20 60 6z m-815 -40 c33 -15 37 -19 22 -25
-10 -4 -23 -3 -29 3 -6 6 -23 9 -37 6 -30 -5 -57 9 -47 25 10 16 45 12 91 -9z
m484 -47 c-1 -27 -4 -38 -6 -25 -3 13 -11 26 -18 28 -11 5 -10 9 3 25 9 10 18
19 19 19 2 0 2 -21 2 -47z m371 27 c0 -5 -9 -10 -20 -10 -11 0 -20 5 -20 10 0
6 9 10 20 10 11 0 20 -4 20 -10z m-966 -26 c3 -9 6 -24 6 -34 0 -41 22 -70 53
-70 25 0 28 -2 17 -15 -7 -8 -19 -15 -26 -15 -8 0 -11 -6 -7 -17 5 -13 2 -15
-12 -10 -9 4 -24 2 -31 -4 -11 -9 -14 -7 -14 10 0 23 -10 27 -27 10 -15 -15
-63 -3 -63 16 0 8 8 15 18 15 22 0 42 19 42 39 0 28 21 91 29 91 5 0 12 -7 15
-16z m1993 -16 c-3 -8 -6 -5 -6 6 -1 11 2 17 5 13 3 -3 4 -12 1 -19z m-2267 2
c0 -5 -4 -10 -10 -10 -5 0 -10 5 -10 10 0 6 5 10 10 10 6 0 10 -4 10 -10z
m540 0 c0 -5 -4 -10 -10 -10 -5 0 -10 5 -10 10 0 6 5 10 10 10 6 0 10 -4 10
-10z m1960 0 c0 -5 -4 -10 -10 -10 -5 0 -10 5 -10 10 0 6 5 10 10 10 6 0 10
-4 10 -10z m-2158 -45 c0 -5 -5 -11 -11 -13 -6 -2 -11 4 -11 13 0 9 5 15 11
13 6 -2 11 -8 11 -13z m818 -20 c0 -8 -4 -15 -9 -15 -13 0 -22 16 -14 24 11
11 23 6 23 -9z m30 -84 c0 -14 6 -17 25 -13 15 2 25 0 25 -7 0 -7 -7 -11 -16
-9 -10 2 -19 -3 -21 -9 -3 -8 4 -13 16 -13 12 0 21 -4 21 -10 0 -5 -7 -10 -16
-10 -13 0 -14 -3 -5 -14 9 -11 8 -17 -4 -29 -17 -18 -21 -93 -4 -99 5 -2 11
-18 11 -36 1 -19 4 -28 8 -21 10 16 31 2 23 -16 -3 -10 1 -15 12 -15 14 0 15
-3 5 -15 -10 -13 -9 -15 9 -15 14 0 21 -6 21 -19 0 -19 -8 -20 -162 -20 -90 0
-188 -5 -218 -10 -30 -5 -59 -5 -64 -1 -10 10 45 40 76 40 13 1 41 9 63 20 22
11 46 19 54 20 8 0 23 7 33 16 10 9 31 17 48 18 28 1 30 3 30 44 0 30 4 42 15
42 12 0 13 12 8 68 -3 37 -10 72 -15 79 -5 7 -5 14 1 17 6 4 8 13 4 21 -3 8 0
15 6 15 6 0 11 -8 11 -19z m1180 -10 c0 -6 -4 -13 -10 -16 -5 -3 -10 1 -10 9
0 9 5 16 10 16 6 0 10 -4 10 -9z m-1832 -53 c-2 -6 -10 -14 -16 -16 -7 -2 -10
2 -6 12 7 18 28 22 22 4z m1822 -50 c0 -29 -4 -48 -9 -42 -8 8 -3 94 5 94 2 0
4 -23 4 -52z m-2030 -78 c0 -100 3 -120 15 -120 12 0 15 21 17 123 l2 122 3
-103 c3 -76 7 -102 16 -99 15 4 30 107 23 160 -3 30 -1 37 13 37 16 0 17 -8
13 -75 -4 -66 -3 -75 12 -75 15 0 17 10 14 75 -3 71 -2 75 19 75 19 0 21 -3
13 -29 -4 -16 -6 -32 -2 -35 12 -12 22 -5 22 15 0 12 5 19 13 17 9 -4 12 -40
12 -139 l0 -134 -37 -3 c-33 -3 -38 0 -38 17 0 14 -6 21 -20 21 -25 0 -26 25
-3 39 26 14 7 26 -21 13 -17 -8 -26 -21 -28 -43 -3 -29 -8 -33 -51 -46 -37
-11 -52 -11 -63 -2 -7 6 -21 9 -29 5 -13 -5 -15 14 -13 144 1 83 6 150 10 150
4 0 9 -51 10 -112 l3 -113 28 -3 c15 -2 27 1 27 7 0 6 -7 11 -15 11 -11 0 -15
12 -15 50 0 38 4 50 15 50 8 0 15 5 15 10 0 6 -7 10 -15 10 -10 0 -15 11 -15
35 0 24 5 35 15 35 8 0 15 7 15 15 0 8 5 15 10 15 6 0 10 -47 10 -120z m-380
51 c0 -33 -5 -63 -10 -66 -6 -4 -10 18 -10 59 0 37 4 66 10 66 6 0 10 -26 10
-59z m90 -16 c0 -68 -2 -75 -20 -75 -26 0 -26 -16 -1 -23 16 -4 19 -11 14 -44
-4 -31 -2 -41 11 -46 9 -4 16 -1 17 6 0 7 4 3 8 -7 10 -26 49 -28 62 -4 6 10
18 17 27 16 15 -3 17 10 15 125 -1 102 1 127 12 127 11 0 15 -29 17 -142 2
-79 0 -147 -4 -152 -5 -6 -8 -5 -8 2 0 7 -7 12 -15 12 -8 0 -15 -4 -15 -9 0
-5 -21 -12 -46 -16 -38 -5 -48 -3 -60 12 -14 17 -15 17 -29 -1 -15 -19 -15
-19 -15 2 0 13 -6 22 -15 22 -24 0 -21 148 3 166 16 13 16 13 0 14 -22 0 -24
30 -3 30 8 0 15 7 15 15 0 8 -7 15 -15 15 -8 0 -15 7 -15 15 0 10 10 15 30 15
l30 0 0 -75z m110 -40 l0 -115 -25 0 c-18 0 -25 5 -25 20 0 11 -7 20 -15 20
-16 0 -16 4 -19 127 l-1 63 43 0 42 0 0 -115z m-252 -169 c-3 -4 -11 -5 -17
-2 -16 10 -14 123 2 130 9 5 9 7 0 12 -15 7 -17 50 -3 59 6 4 5 13 -3 26 -10
16 -9 21 3 29 13 8 16 -8 20 -118 3 -70 2 -131 -2 -136z m51 70 c1 -67 -10
-107 -21 -73 -7 21 3 147 12 147 4 0 8 -33 9 -74z"/>
<g>
<path d="M1385 5060 c-18 -8 -17 -9 8 -9 28 -1 28 -1 25 -63 -3 -55 -6 -63
-23 -64 -11 -1 -26 -2 -33 -3 -29 -2 -2 -16 30 -15 18 1 75 2 126 3 54 1 92 5
92 11 0 6 -13 10 -29 10 -24 0 -29 5 -35 31 -12 61 -8 89 13 89 11 0 23 5 26
10 8 12 -171 12 -200 0z m117 -40 c8 -52 -2 -90 -23 -90 -17 0 -19 8 -19 60 0
52 2 60 19 60 13 0 20 -9 23 -30z"/>
</g>
<g>
<path d="M562 3345 c0 -16 2 -22 5 -12 2 9 2 23 0 30 -3 6 -5 -1 -5 -18z"/>
</g>
<g>
<path d="M2827 1614 c-8 -8 1 -24 14 -24 5 0 9 7 9 15 0 15 -12 20 -23 9z"/>
</g>
<g>
<path d="M2830 1570 c0 -5 7 -10 15 -10 8 0 15 5 15 10 0 6 -7 10 -15 10 -8 0
-15 -4 -15 -10z"/>
</g>
<g>
<path d="M2810 1520 c0 -5 7 -10 15 -10 8 0 15 5 15 10 0 6 -7 10 -15 10 -8 0
-15 -4 -15 -10z"/>
</g>
<g>
<path d="M2872 1488 c2 -13 8 -23 13 -23 6 0 11 10 13 23 2 15 -2 22 -13 22
-11 0 -15 -7 -13 -22z"/>
</g>
<g>
<path d="M2880 1416 c0 -9 6 -16 14 -16 11 0 13 -25 8 -136 -4 -114 -3 -136 9
-132 8 3 14 18 15 34 1 70 4 84 19 84 8 0 15 5 15 10 0 6 -7 10 -15 10 -11 0
-15 12 -15 50 0 36 4 52 15 56 23 9 18 31 -9 38 -13 3 -31 9 -40 12 -11 4 -16
1 -16 -10z"/>
</g>
<g>
<path d="M2740 1406 c0 -9 5 -16 10 -16 6 0 10 4 10 9 0 6 -4 13 -10 16 -5 3
-10 -1 -10 -9z"/>
</g>
<g>
<path d="M2817 1413 c-12 -11 -8 -23 8 -23 8 0 15 7 15 15 0 16 -12 20 -23 8z"/>
</g>
<g>
<path d="M2745 1340 c-3 -5 1 -10 10 -10 9 0 13 5 10 10 -3 6 -8 10 -10 10 -2
0 -7 -4 -10 -10z"/>
</g>
<g>
<path d="M2765 1310 c3 -5 10 -10 16 -10 5 0 9 5 9 10 0 6 -7 10 -16 10 -8 0
-12 -4 -9 -10z"/>
</g>
<g>
<path d="M2870 1310 c0 -5 5 -10 10 -10 6 0 10 5 10 10 0 6 -4 10 -10 10 -5 0
-10 -4 -10 -10z"/>
</g>
<g>
<path d="M2822 1269 c2 -7 10 -15 17 -17 8 -3 12 1 9 9 -2 7 -10 15 -17 17 -8
3 -12 -1 -9 -9z"/>
</g>
<g>
<path d="M2840 1210 c0 -5 7 -10 15 -10 8 0 15 5 15 10 0 6 -7 10 -15 10 -8 0
-15 -4 -15 -10z"/>
</g>
<g>
<path d="M2705 1160 c3 -5 8 -10 11 -10 2 0 4 5 4 10 0 6 -5 10 -11 10 -5 0
-7 -4 -4 -10z"/>
</g>
<g>
<path d="M2680 1130 c0 -5 7 -10 16 -10 8 0 12 5 9 10 -3 6 -10 10 -16 10 -5
0 -9 -4 -9 -10z"/>
</g>
<g>
<path d="M2690 1020 c0 -5 5 -10 10 -10 6 0 10 5 10 10 0 6 -4 10 -10 10 -5 0
-10 -4 -10 -10z"/>
</g>
<g>
<path d="M2685 970 c3 -5 8 -10 11 -10 2 0 4 5 4 10 0 6 -5 10 -11 10 -5 0 -7
-4 -4 -10z"/>
</g>
<g>
<path d="M2845 970 c3 -5 8 -10 11 -10 2 0 4 5 4 10 0 6 -5 10 -11 10 -5 0 -7
-4 -4 -10z"/>
</g>
<g>
<path d="M2810 940 c0 -5 5 -10 10 -10 6 0 10 5 10 10 0 6 -4 10 -10 10 -5 0
-10 -4 -10 -10z"/>
</g>
<g>
<path d="M2840 900 c0 -5 5 -10 10 -10 6 0 10 5 10 10 0 6 -4 10 -10 10 -5 0
-10 -4 -10 -10z"/>
</g>
<g>
<path d="M2785 850 c-3 -5 -1 -10 4 -10 6 0 11 5 11 10 0 6 -2 10 -4 10 -3 0
-8 -4 -11 -10z"/>
</g>
<g>
<path d="M350 1520 c0 -16 5 -30 10 -30 6 0 10 14 10 30 0 17 -4 30 -10 30 -5
0 -10 -13 -10 -30z"/>
</g>
<g>
<path d="M486 1483 c-12 -12 -6 -33 9 -33 8 0 15 6 15 14 0 17 -14 28 -24 19z"/>
</g>
<g>
<path d="M1332 370 c0 -14 2 -19 5 -12 2 6 2 18 0 25 -3 6 -5 1 -5 -13z"/>
</g>
<g>
<path d="M655 490 c3 -5 10 -10 16 -10 5 0 9 5 9 10 0 6 -7 10 -16 10 -8 0
-12 -4 -9 -10z"/>
</g>
<g>
<path d="M450 420 c0 -5 7 -10 15 -10 8 0 15 5 15 10 0 6 -7 10 -15 10 -8 0
-15 -4 -15 -10z"/>
</g>
<g>
<path d="M630 410 c0 -5 7 -10 16 -10 8 0 12 5 9 10 -3 6 -10 10 -16 10 -5 0
-9 -4 -9 -10z"/>
</g>
<g>
<path d="M655 370 c3 -5 10 -10 16 -10 5 0 9 5 9 10 0 6 -7 10 -16 10 -8 0
-12 -4 -9 -10z"/>
</g>
<g>
<path d="M645 340 c3 -5 13 -10 21 -10 8 0 14 5 14 10 0 6 -9 10 -21 10 -11 0
-17 -4 -14 -10z"/>
</g>
<g>
<path d="M455 331 c-7 -12 12 -24 25 -16 11 7 4 25 -10 25 -5 0 -11 -4 -15 -9z"/>
</g>
<g>
<path d="M160 370 c0 -5 5 -10 10 -10 6 0 10 5 10 10 0 6 -4 10 -10 10 -5 0
-10 -4 -10 -10z"/>
</g>
<g>
<path d="M256 553 c-3 -3 -6 -28 -6 -55 0 -36 4 -48 15 -48 11 0 15 12 15 49
0 47 -9 68 -24 54z"/>
</g>
<g>
<path d="M270 390 c0 -5 7 -10 15 -10 8 0 15 5 15 10 0 6 -7 10 -15 10 -8 0
-15 -4 -15 -10z"/>
</g>
</g>
<g>
<path d="M760 930 c0 -5 5 -10 10 -10 6 0 10 5 10 10 0 6 -4 10 -10 10 -5 0
-10 -4 -10 -10z"/>
</g>
<g>
<path d="M755 861 c-6 -11 9 -23 19 -14 9 9 7 23 -3 23 -6 0 -12 -4 -16 -9z"/>
</g>
<g>
<path d="M810 850 c0 -5 5 -10 10 -10 6 0 10 5 10 10 0 6 -4 10 -10 10 -5 0
-10 -4 -10 -10z"/>
</g>
<g>
<path d="M2170 830 c0 -5 5 -10 10 -10 6 0 10 5 10 10 0 6 -4 10 -10 10 -5 0
-10 -4 -10 -10z"/>
</g>
<g>
<path d="M790 820 c0 -5 5 -10 11 -10 5 0 7 5 4 10 -3 6 -8 10 -11 10 -2 0 -4
-4 -4 -10z"/>
</g>
<g>
<path d="M2125 810 c3 -5 8 -10 11 -10 2 0 4 5 4 10 0 6 -5 10 -11 10 -5 0 -7
-4 -4 -10z"/>
</g>
<g>
<path d="M2130 760 c0 -19 3 -21 12 -12 9 9 9 15 0 24 -9 9 -12 7 -12 -12z"/>
</g>
<g>
<path d="M2350 760 c0 -5 5 -10 10 -10 6 0 10 5 10 10 0 6 -4 10 -10 10 -5 0
-10 -4 -10 -10z"/>
</g>
<g>
<path d="M2180 744 c0 -8 5 -12 10 -9 6 3 10 10 10 16 0 5 -4 9 -10 9 -5 0
-10 -7 -10 -16z"/>
</g>
<g>
<path d="M780 725 c0 -9 5 -15 11 -13 6 2 11 8 11 13 0 5 -5 11 -11 13 -6 2
-11 -4 -11 -13z"/>
</g>
<g>
<path d="M2270 730 c0 -5 5 -10 10 -10 6 0 10 5 10 10 0 6 -4 10 -10 10 -5 0
-10 -4 -10 -10z"/>
</g>
<g>
<path d="M2370 720 c0 -5 5 -10 10 -10 6 0 10 5 10 10 0 6 -4 10 -10 10 -5 0
-10 -4 -10 -10z"/>
</g>
<g>
<path d="M915 700 c3 -5 8 -10 11 -10 2 0 4 5 4 10 0 6 -5 10 -11 10 -5 0 -7
-4 -4 -10z"/>
</g>
<g>
<path d="M1085 695 c-3 -8 -7 -22 -10 -30 -8 -26 15 -27 25 0 6 14 10 31 10
36 0 15 -20 10 -25 -6z"/>
</g>
<g>
<path d="M1047 693 c-2 -5 -5 -28 -6 -52 -2 -32 1 -42 11 -39 8 3 13 22 14 51
1 42 -8 60 -19 40z"/>
</g>
<g>
<path d="M2130 684 c0 -8 5 -12 10 -9 6 3 10 10 10 16 0 5 -4 9 -10 9 -5 0
-10 -7 -10 -16z"/>
</g>
<g>
<path d="M2180 685 c0 -8 5 -15 10 -15 6 0 10 7 10 15 0 8 -4 15 -10 15 -5 0
-10 -7 -10 -15z"/>
</g>
<g>
<path d="M747 675 c-4 -8 -1 -18 5 -21 7 -4 14 -2 16 4 2 7 10 12 18 12 8 0
14 5 14 10 0 16 -47 12 -53 -5z"/>
</g>
<g>
<path d="M820 680 c0 -5 5 -10 10 -10 6 0 10 5 10 10 0 6 -4 10 -10 10 -5 0
-10 -4 -10 -10z"/>
</g>
<g>
<path d="M2370 680 c0 -5 5 -10 10 -10 6 0 10 5 10 10 0 6 -4 10 -10 10 -5 0
-10 -4 -10 -10z"/>
</g>
<g>
<path d="M2075 659 c-10 -15 3 -25 16 -12 7 7 7 13 1 17 -6 3 -14 1 -17 -5z"/>
</g>
<g>
<path d="M2255 615 c-7 -51 -3 -76 10 -64 11 11 17 119 7 119 -6 0 -14 -25
-17 -55z"/>
</g>
<g>
<path d="M2420 659 c0 -5 5 -7 10 -4 6 3 10 8 10 11 0 2 -4 4 -10 4 -5 0 -10
-5 -10 -11z"/>
</g>
<g>
<path d="M1170 650 c0 -5 5 -10 10 -10 6 0 10 5 10 10 0 6 -4 10 -10 10 -5 0
-10 -4 -10 -10z"/>
</g>
<g>
<path d="M955 640 c3 -5 8 -10 11 -10 2 0 4 5 4 10 0 6 -5 10 -11 10 -5 0 -7
-4 -4 -10z"/>
</g>
<g>
<path d="M1220 640 c0 -5 5 -10 10 -10 6 0 10 5 10 10 0 6 -4 10 -10 10 -5 0
-10 -4 -10 -10z"/>
</g>
<g>
<path d="M1120 630 c0 -5 5 -10 10 -10 6 0 10 5 10 10 0 6 -4 10 -10 10 -5 0
-10 -4 -10 -10z"/>
</g>
<g>
<path d="M745 610 c-4 -6 -3 -16 3 -22 6 -6 12 -6 17 2 4 6 3 16 -3 22 -6 6
-12 6 -17 -2z"/>
</g>
<g>
<path d="M790 610 c0 -5 5 -10 10 -10 6 0 10 5 10 10 0 6 -4 10 -10 10 -5 0
-10 -4 -10 -10z"/>
</g>
<g>
<path d="M1165 610 c-3 -5 1 -10 10 -10 9 0 13 5 10 10 -3 6 -8 10 -10 10 -2
0 -7 -4 -10 -10z"/>
</g>
<g>
<path d="M2080 610 c0 -5 5 -10 10 -10 6 0 10 5 10 10 0 6 -4 10 -10 10 -5 0
-10 -4 -10 -10z"/>
</g>
<g>
<path d="M2140 585 c0 -19 5 -35 10 -35 6 0 10 16 10 35 0 19 -4 35 -10 35 -5
0 -10 -16 -10 -35z"/>
</g>
<g>
<path d="M2321 606 c-8 -9 -11 -19 -7 -23 9 -9 29 13 24 27 -2 8 -8 7 -17 -4z"/>
</g>
<g>
<path d="M950 600 c0 -5 5 -10 11 -10 5 0 7 5 4 10 -3 6 -8 10 -11 10 -2 0 -4
-4 -4 -10z"/>
</g>
<g>
<path d="M1245 600 c3 -5 8 -10 11 -10 2 0 4 5 4 10 0 6 -5 10 -11 10 -5 0 -7
-4 -4 -10z"/>
</g>
<g>
<path d="M2050 595 c0 -8 5 -15 10 -15 6 0 10 7 10 15 0 8 -4 15 -10 15 -5 0
-10 -7 -10 -15z"/>
</g>
<g>
<path d="M2400 600 c-8 -5 -11 -12 -8 -16 10 -9 38 3 38 16 0 12 -10 13 -30 0z"/>
</g>
<g>
<path d="M926 571 c-4 -5 -2 -12 3 -15 5 -4 12 -2 15 3 4 5 2 12 -3 15 -5 4
-12 2 -15 -3z"/>
</g>
<g>
<path d="M2350 570 c0 -5 5 -10 10 -10 6 0 10 5 10 10 0 6 -4 10 -10 10 -5 0
-10 -4 -10 -10z"/>
</g>
<g>
<path d="M740 551 c0 -6 5 -13 10 -16 6 -3 10 1 10 9 0 9 -4 16 -10 16 -5 0
-10 -4 -10 -9z"/>
</g>
<g>
<path d="M2784 434 c-23 -11 -30 -21 -27 -33 4 -15 -4 -20 -44 -27 -38 -7 -48
-13 -48 -29 0 -17 8 -20 48 -23 53 -3 61 -25 11 -30 -53 -5 -74 -12 -74 -26 0
-16 24 -24 68 -21 47 3 39 -11 -13 -24 -46 -12 -51 -16 -36 -40 7 -11 13 -9
30 8 11 11 29 21 40 21 15 0 19 -10 25 -56 3 -30 3 -60 0 -66 -4 -6 -1 -9 7
-6 10 4 14 22 13 64 -1 35 3 62 10 66 6 4 41 8 77 8 45 0 70 5 78 14 19 23
-17 36 -101 37 -71 1 -72 1 -28 10 25 5 55 7 68 4 12 -3 22 -1 22 5 0 6 -28
10 -65 10 -36 0 -65 4 -65 9 0 15 28 21 91 21 41 0 58 3 53 11 -4 7 -29 9 -75
4 -48 -5 -69 -4 -69 4 0 6 16 11 35 11 19 0 35 5 35 10 0 6 -13 10 -29 10 -17
0 -33 5 -37 12 -9 15 23 38 54 38 29 0 19 -20 -11 -21 l-22 0 22 -11 c28 -14
53 -4 53 21 0 33 -45 40 -96 15z m-24 -84 c0 -5 -17 -10 -37 -10 -28 0 -34 3
-23 10 20 13 60 13 60 0z m-15 -80 c4 -6 -9 -10 -32 -9 -38 1 -38 1 -8 9 17 4
31 8 32 9 1 0 5 -3 8 -9z m152 -16 c13 -4 20 -10 17 -15 -7 -12 -134 -12 -134
0 0 16 77 26 117 15z"/>
</g>
<g>
<path d="M2810 185 c0 -8 7 -15 15 -15 8 0 15 7 15 15 0 8 -7 15 -15 15 -8 0
-15 -7 -15 -15z"/>
</g>
</g>
</svg>
