<?xml version="1.0" standalone="no"?>
<!DOCTYPE svg PUBLIC "-//W3C//DTD SVG 20010904//EN"
 "http://www.w3.org/TR/2001/REC-SVG-20010904/DTD/svg10.dtd">
<svg version="1.0" xmlns="http://www.w3.org/2000/svg"
 width="300.000000pt" height="521.000000pt" viewBox="0 0 300.000000 521.000000"
 preserveAspectRatio="xMidYMid meet">
<metadata>
Created by potrace 1.15, written by Peter Selinger 2001-2017
</metadata>
<g transform="translate(0.000000,521.000000) scale(0.100000,-0.100000)"
fill="#000000" stroke="none">
<g>
<path d="M33 5203 c-19 -4 -22 -12 -28 -96 -5 -66 -1 -4208 5 -5034 0 -42 4
-73 10 -73 7 0 10 178 10 515 l0 515 73 1 c39 1 214 3 387 5 173 3 343 2 376
-1 l62 -6 6 -57 c4 -31 10 -72 13 -89 l5 -33 119 0 c109 0 119 -2 129 -21 6
-11 21 -24 33 -29 21 -8 20 -9 -14 -23 -44 -19 -61 -38 -50 -56 13 -20 165 -9
211 15 28 15 59 19 160 20 69 0 138 6 153 12 44 18 89 14 143 -13 58 -30 142
-42 172 -26 30 16 28 26 -18 73 -22 23 -40 46 -40 50 0 4 33 9 73 10 39 0 79
1 87 2 17 1 28 66 11 66 -6 0 -11 -8 -11 -19 0 -10 -8 -21 -18 -23 -27 -7
-132 3 -132 13 0 5 6 9 13 9 6 0 27 13 45 28 l33 27 -16 60 c-8 33 -18 115
-20 182 l-5 122 34 6 c73 14 71 21 72 -185 2 -217 2 -209 14 -190 5 8 10 32
10 53 l0 37 422 0 421 0 -6 -478 c-4 -262 -10 -494 -13 -514 l-7 -38 -331 -1
c-182 -1 -668 -5 -1081 -8 -740 -7 -735 -7 350 -7 l1100 1 3 2603 2 2602 -574
0 c-418 0 -577 -3 -582 -11 -5 -9 140 -10 565 -6 l571 6 1 -52 c0 -29 3 -138
5 -243 l4 -191 -29 -13 c-31 -12 -45 -30 -146 -189 -5 -8 -39 -55 -75 -103
-36 -48 -99 -135 -140 -194 -41 -58 -90 -123 -107 -144 -18 -21 -33 -40 -33
-44 0 -3 -28 -43 -62 -88 -34 -46 -80 -108 -102 -138 -23 -30 -46 -61 -53 -70
-7 -8 -96 -127 -199 -265 -102 -137 -205 -272 -229 -300 -23 -27 -45 -60 -49
-72 -10 -30 -20 -29 -65 8 -36 29 -38 33 -44 104 -4 48 -3 84 5 99 16 36 -7
138 -38 167 -22 21 -32 22 -146 20 -138 -2 -160 -10 -184 -67 -8 -19 -14 -56
-13 -82 1 -26 -1 -90 -4 -141 -5 -88 -7 -96 -31 -114 -26 -19 -26 -19 -46 5
-11 12 -66 88 -122 168 -57 80 -109 151 -116 159 -7 8 -21 26 -30 40 -15 23
-322 453 -406 568 -29 40 -212 293 -319 442 -26 36 -55 78 -65 92 -25 38 -91
109 -101 109 -11 0 -18 250 -11 395 l5 110 75 7 c41 3 442 7 890 7 542 1 818
5 825 12 7 7 -271 9 -880 8 -490 -2 -900 -4 -912 -6z m2926 -560 c-12 -21 -30
-47 -39 -58 -10 -11 -44 -58 -76 -105 -160 -235 -198 -289 -329 -469 -77 -106
-169 -236 -205 -287 -105 -151 -361 -505 -398 -551 -34 -43 -55 -53 -67 -32
-4 5 55 92 130 192 75 100 180 241 233 313 53 72 178 240 277 374 99 133 196
266 215 294 19 28 63 88 96 132 34 45 82 113 108 152 39 60 54 76 74 81 2 1
-6 -16 -19 -36z m-2878 -35 c13 -18 29 -40 34 -49 6 -9 23 -32 38 -50 15 -19
72 -97 125 -175 53 -77 130 -185 170 -240 69 -93 179 -248 254 -356 18 -27 62
-88 98 -137 36 -49 93 -129 127 -178 34 -48 92 -130 128 -181 36 -51 63 -97
60 -102 -13 -21 -32 -7 -72 53 -23 34 -72 105 -110 158 -37 53 -131 185 -208
294 -77 108 -155 218 -173 244 -18 25 -65 93 -105 150 -40 57 -82 118 -95 135
-12 17 -33 47 -46 66 -54 80 -173 247 -199 280 -47 60 -80 120 -64 120 7 0 24
-14 38 -32z m2865 -51 c-20 -29 -48 -65 -62 -82 -22 -27 -24 -27 -13 -5 7 14
25 41 40 61 16 20 29 41 29 46 0 17 34 57 38 44 2 -6 -12 -35 -32 -64z m-2857
-44 l21 -38 -30 35 c-16 19 -30 38 -30 43 0 16 18 -3 39 -40z m2893 -885 c-1
-513 -4 -934 -7 -936 -9 -10 -172 21 -201 37 -65 39 -93 42 -175 22 -62 -15
-85 -17 -117 -8 -32 8 -57 7 -119 -6 -105 -23 -132 -22 -199 8 -31 14 -72 25
-90 25 -39 0 -118 -41 -122 -64 -4 -21 36 -22 45 -1 7 19 55 45 82 45 11 0 28
-9 38 -19 10 -10 27 -21 38 -23 11 -2 19 -9 18 -15 -1 -6 7 -19 17 -28 11 -10
21 -15 21 -12 1 4 2 12 3 18 2 21 42 28 70 14 16 -9 28 -10 32 -4 3 6 18 7 34
4 15 -3 83 -6 151 -6 68 -1 139 -5 157 -11 40 -12 55 -2 27 19 -15 11 -38 14
-93 10 -82 -5 -96 12 -21 26 108 20 124 19 164 -5 46 -27 115 -47 165 -48 19
0 45 -3 58 -6 23 -7 30 -29 10 -33 -7 -1 -215 -3 -463 -6 -247 -2 -487 -7
-533 -10 l-83 -7 3 44 c2 34 6 42 21 40 10 -2 17 3 17 13 0 8 -8 15 -19 15
-14 0 -20 10 -24 42 -6 41 1 66 10 41 3 -7 11 -13 18 -13 18 0 75 70 75 92 0
9 -20 31 -45 48 -49 34 -53 44 -28 72 9 10 21 27 27 37 16 28 129 190 147 212
9 10 45 63 80 117 57 88 175 265 239 360 14 21 66 96 115 167 50 72 95 137
100 146 6 9 50 75 98 145 49 71 125 184 170 252 45 67 84 122 87 122 3 0 4
-419 2 -932z m-2795 677 c76 -112 158 -236 183 -274 25 -38 95 -143 155 -232
61 -89 112 -166 114 -171 6 -16 128 -195 186 -273 30 -41 55 -77 55 -79 0 -3
29 -49 65 -103 36 -54 65 -108 65 -121 0 -12 7 -25 15 -28 8 -4 15 -12 15 -19
0 -7 7 -18 15 -25 25 -21 17 -38 -40 -81 -30 -23 -55 -49 -55 -58 0 -20 57
-81 75 -81 6 0 22 14 35 30 25 33 47 41 32 13 -6 -10 -13 -41 -17 -69 l-6 -51
-152 -6 c-89 -3 -179 -13 -217 -23 -43 -11 -82 -14 -118 -10 -34 4 -73 1 -111
-9 -50 -13 -309 -35 -413 -35 l-38 0 0 961 c0 604 4 958 10 954 5 -3 71 -98
147 -210z m-30 108 c20 -32 55 -83 78 -113 58 -78 77 -110 65 -110 -6 0 -48
57 -93 128 -99 151 -100 152 -92 152 3 0 22 -26 42 -57z m2697 15 c-11 -18
-263 -392 -348 -516 -39 -57 -79 -117 -90 -135 -10 -18 -21 -34 -25 -37 -4 -3
-41 -57 -84 -121 -42 -64 -84 -122 -92 -129 -8 -7 -15 -16 -15 -21 0 -5 -14
-28 -30 -51 -17 -24 -47 -68 -67 -98 -20 -30 -55 -81 -79 -112 -24 -31 -44
-60 -44 -65 -1 -4 -10 -19 -21 -32 -18 -22 -21 -23 -35 -9 -18 18 -13 27 126
213 128 173 160 216 177 246 10 16 21 29 25 29 4 0 8 5 8 10 0 6 18 35 40 65
21 29 63 88 93 132 80 116 166 235 188 259 10 11 19 24 19 28 0 4 26 42 58 84
31 43 68 95 82 117 26 44 110 155 117 155 2 0 1 -6 -3 -12z m-2455 -358 c74
-106 79 -113 203 -290 222 -319 271 -390 345 -500 42 -63 86 -125 97 -138 14
-16 17 -25 9 -33 -6 -6 -16 -8 -22 -5 -11 7 -127 176 -178 259 -17 29 -36 57
-41 63 -8 9 -38 53 -77 115 -5 9 -45 67 -88 130 -255 372 -324 476 -331 494
-6 18 -5 18 8 5 8 -8 42 -53 75 -100z m1119 -710 c11 -18 10 -20 -18 -20 -18
0 -30 5 -30 13 0 32 30 36 48 7z m65 -51 c38 -10 57 -33 41 -48 -5 -5 -77 -11
-161 -14 l-152 -6 11 23 c11 26 38 43 78 49 51 9 146 7 183 -4z m17 -114 c0
-17 -7 -40 -15 -51 -8 -10 -15 -27 -15 -37 0 -10 -12 -29 -26 -42 -37 -34 -85
-33 -124 2 -17 14 -28 28 -25 31 2 2 -7 21 -20 41 -14 19 -25 46 -25 58 0 25
26 29 173 29 l77 0 0 -31z m266 -97 c11 -13 12 -17 3 -11 -8 7 -26 17 -40 22
-22 9 -22 10 -3 10 11 1 29 -9 40 -21z m-546 0 c0 -6 7 -19 14 -27 19 -20 15
-26 -59 -81 -33 -25 -102 -80 -154 -123 l-95 -77 -20 20 -21 21 40 37 c98 89
183 163 222 191 22 16 44 34 48 40 8 15 25 14 25 -1z m344 3 c3 -5 30 -25 58
-45 29 -19 76 -51 103 -71 28 -20 71 -51 98 -69 l48 -33 -20 -24 -19 -23 -68
55 c-38 30 -86 64 -107 74 -21 11 -53 33 -70 48 -18 16 -43 38 -57 49 -24 19
-24 20 -6 34 23 16 33 18 40 5z m-482 -18 c27 -24 23 -35 -26 -76 -37 -31 -46
-34 -56 -22 -6 8 -8 20 -4 26 4 7 -1 18 -11 26 -11 7 -14 13 -9 13 6 0 19 8
30 18 17 16 38 28 53 31 3 1 13 -6 23 -16z m649 -3 c10 -6 19 -15 19 -21 0 -6
10 -20 23 -30 l22 -20 -25 7 c-22 6 -23 5 -11 -10 23 -28 -7 -19 -50 15 -34
26 -37 33 -26 50 14 22 21 23 48 9z m88 -34 c-3 -3 -11 5 -18 17 -13 21 -12
21 5 5 10 -10 16 -20 13 -22z m-444 -26 c23 0 50 7 61 15 26 20 34 19 34 -6 0
-28 18 -59 34 -59 8 0 19 -7 27 -16 11 -13 6 -21 -28 -56 -40 -40 -43 -41
-108 -41 -65 0 -68 1 -102 38 -31 34 -33 39 -19 54 9 10 16 36 16 60 0 42 0
42 22 27 12 -9 41 -16 63 -16z m181 -22 c44 -32 55 -48 31 -48 -15 0 -87 58
-87 71 0 15 9 11 56 -23z m-312 -35 c-21 -15 -54 -17 -54 -4 0 5 15 21 33 35
l32 26 3 -22 c2 -13 -4 -27 -14 -35z m-66 -25 c20 -20 13 -36 -19 -43 -42 -9
-58 13 -26 37 26 21 30 21 45 6z m463 -16 c-6 -2 -9 -7 -7 -11 9 -14 -11 -32
-27 -25 -21 8 -22 22 0 46 13 14 19 16 31 6 9 -8 10 -14 3 -16z m-97 -26 c-7
-17 44 -36 97 -36 22 0 39 -4 39 -10 0 -5 -21 -10 -46 -10 -32 0 -44 -4 -41
-12 2 -7 13 -13 25 -13 12 0 22 -4 22 -10 0 -5 -15 -10 -33 -10 -26 0 -41 -9
-71 -42 -37 -41 -68 -54 -81 -33 -9 15 -25 12 -25 -5 0 -8 -4 -15 -10 -15 -13
0 -13 19 1 59 6 17 17 31 24 31 7 0 15 10 19 23 5 19 70 97 81 97 3 0 2 -6 -1
-14z m-265 -22 c12 -15 21 -32 21 -39 0 -7 6 -15 14 -18 18 -7 17 -53 -1 -69
-11 -9 -19 -9 -35 1 -15 9 -23 10 -31 2 -6 -6 -18 -11 -26 -11 -11 0 -11 4 4
20 17 19 17 19 -6 14 -65 -15 -72 -14 -31 6 57 28 46 37 -23 20 -30 -7 -58
-11 -61 -7 -8 7 62 37 87 37 25 0 34 19 13 27 -10 3 -30 -1 -46 -10 -17 -9
-39 -17 -51 -16 -22 0 -22 0 2 17 33 23 101 51 128 51 12 1 31 -11 42 -25z
m402 8 c-7 -2 -18 1 -23 6 -8 8 -4 9 13 5 13 -4 18 -8 10 -11z m66 -54 c13
-25 18 -66 21 -170 2 -76 2 -148 -1 -161 -10 -39 -68 -117 -87 -117 -25 0 -80
32 -80 47 0 6 -15 13 -32 15 -28 2 -34 8 -36 31 -3 25 -6 27 -40 21 -29 -4
-42 -1 -59 16 -26 24 -30 48 -8 56 20 8 19 24 -2 41 -16 12 -16 13 9 11 28 -3
68 26 68 49 0 17 11 17 62 -4 52 -20 86 -48 90 -76 2 -11 9 -22 17 -25 8 -3
11 0 7 6 -3 6 -2 13 4 17 16 10 11 41 -10 60 -11 10 -20 24 -20 32 0 19 -27
28 -44 14 -14 -11 -46 -5 -46 9 0 4 17 15 39 24 33 16 81 63 81 81 0 10 34 54
42 55 4 0 15 -15 25 -32z m-323 -7 c10 -15 -57 -19 -72 -5 -11 12 -7 14 27 14
22 0 42 -4 45 -9z m-352 -36 c11 -14 25 -25 33 -25 7 0 18 -6 24 -14 6 -7 25
-16 41 -20 38 -7 39 -22 2 -29 -32 -7 -80 -42 -70 -52 3 -4 24 6 47 20 22 15
45 24 52 19 8 -5 2 -12 -18 -23 -48 -26 -82 -57 -92 -84 -12 -31 -3 -43 15
-19 12 15 13 14 14 -10 0 -16 5 -28 10 -28 6 0 10 20 10 45 0 37 4 47 25 61
29 19 44 12 25 -11 -7 -8 -10 -15 -7 -15 3 0 12 -3 21 -6 10 -4 20 5 30 31 13
30 19 35 36 30 20 -6 25 5 21 42 -3 21 18 24 29 3 15 -28 26 -25 25 7 0 41 28
41 40 1 7 -23 20 -38 43 -48 37 -18 33 -30 -10 -30 -16 0 -37 -7 -46 -16 -14
-15 -14 -17 0 -25 27 -15 9 -46 -51 -90 -31 -23 -61 -48 -67 -55 -6 -7 -35
-29 -64 -49 -71 -48 -104 -45 -141 10 -35 50 -39 72 -40 221 -1 94 2 128 15
152 20 39 23 39 48 7z m518 -25 c0 -5 -4 -10 -9 -10 -6 0 -13 5 -16 10 -3 6 1
10 9 10 9 0 16 -4 16 -10z m-315 -60 c-4 -6 -14 -5 -25 2 -24 16 -15 31 11 18
11 -6 17 -15 14 -20z m1105 15 c11 -13 7 -15 -29 -15 -38 0 -50 8 -34 23 12
12 50 7 63 -8z m-274 -41 c2 -12 -1 -13 -12 -3 -7 6 -11 16 -8 21 7 11 17 3
20 -18z m-856 6 c0 -5 -4 -10 -10 -10 -5 0 -10 5 -10 10 0 6 5 10 10 10 6 0
10 -4 10 -10z m-307 -30 c32 0 37 -3 37 -23 l0 -24 -316 -7 c-174 -3 -319 -4
-322 -2 -13 13 63 28 158 31 58 2 143 10 190 19 47 8 114 13 150 10 36 -2 82
-4 103 -4z m1937 -109 c0 -38 -4 -61 -12 -64 -10 -4 -10 -7 -1 -14 13 -10 28
-766 16 -862 l-6 -53 -32 6 c-41 8 -65 -1 -65 -24 0 -32 -26 -41 -146 -46 -65
-3 -120 -7 -123 -9 -8 -9 9 -18 46 -26 37 -7 36 -8 -11 -6 -28 1 -51 -3 -53
-10 -4 -12 42 -23 104 -23 37 0 43 -3 34 -13 -6 -8 -8 -17 -4 -20 3 -4 58 -8
122 -9 64 -1 92 -3 64 -5 -29 -2 -53 -8 -53 -12 0 -5 -19 -11 -42 -14 -24 -3
-48 -13 -55 -24 -35 -49 -43 -53 -92 -53 -28 0 -53 -4 -56 -10 -3 -5 -46 -10
-96 -10 -49 0 -89 -3 -89 -8 0 -4 -63 -6 -140 -4 -84 1 -140 -2 -140 -7 0 -6
21 -12 48 -14 l47 -3 -52 -2 -53 -2 0 49 c0 67 7 81 41 81 16 0 29 5 29 11 0
7 -14 10 -35 7 l-34 -4 23 31 c51 67 37 167 -35 243 -24 27 -49 60 -56 74 -9
20 -21 27 -57 32 -25 4 -47 13 -47 19 -1 7 -2 37 -3 67 -1 56 -33 123 -65 135
-21 8 -26 -2 -10 -22 13 -15 12 -16 -6 -8 -11 5 -49 8 -85 7 -59 -3 -71 -7
-133 -49 -37 -25 -65 -48 -63 -50 6 -6 46 16 70 39 61 58 205 59 239 1 4 -7
14 -13 21 -13 9 0 12 -22 12 -80 0 -44 -3 -80 -8 -80 -4 0 -8 11 -8 24 0 29
-33 72 -70 91 -33 17 -80 20 -80 5 0 -5 12 -10 26 -10 46 0 103 -44 104 -80 0
-8 7 -28 15 -44 9 -18 15 -58 16 -110 1 -136 21 -295 47 -386 6 -19 13 -63 17
-98 3 -35 10 -73 14 -85 7 -18 3 -25 -21 -39 -31 -20 -48 -23 -48 -9 0 5 10
12 23 16 19 6 19 8 5 12 -19 5 -25 23 -8 23 6 0 10 5 10 10 0 6 -8 10 -17 10
-13 0 -14 3 -5 12 7 7 12 20 12 31 0 13 -6 18 -22 15 -16 -2 -22 -9 -21 -23 2
-11 4 -58 5 -105 l2 -85 -50 -6 c-27 -4 -84 -14 -127 -23 -43 -9 -86 -16 -95
-15 -23 1 51 27 113 41 56 12 125 44 125 58 0 15 -17 20 -49 14 -32 -7 -43
-24 -15 -24 33 0 1 -19 -44 -26 -26 -4 -64 -13 -86 -20 -21 -8 -63 -14 -92
-14 -64 0 -71 -14 -11 -25 l42 -7 -35 -10 c-58 -17 -152 -4 -196 26 -44 30
-80 33 -112 10 -14 -10 -33 -13 -51 -9 -27 6 -28 10 -50 128 -13 67 -27 156
-32 197 -16 126 -28 231 -35 309 -5 54 -12 78 -27 91 -14 14 -18 26 -13 44 4
15 0 41 -9 62 -23 56 -20 110 10 140 15 15 25 36 25 53 0 15 8 35 18 43 20 17
89 38 126 38 14 0 26 5 26 10 0 12 -52 13 -103 1 -66 -16 -58 19 15 65 40 26
81 30 124 14 34 -13 42 -5 19 20 -11 12 -31 20 -52 20 -23 0 -33 5 -33 15 0 9
-7 30 -16 47 -10 20 -12 34 -6 40 12 12 158 -95 165 -121 2 -10 14 -20 26 -24
24 -6 29 10 6 19 -8 4 -15 12 -15 20 0 7 -8 18 -19 23 -17 10 -87 63 -123 96
-13 10 -18 30 -18 64 0 66 23 117 62 137 17 9 53 36 79 61 l47 44 7 -76 c5
-50 11 -73 17 -67 6 6 7 36 1 81 -8 58 -7 74 5 83 11 10 18 8 31 -9 10 -11 51
-38 92 -59 41 -21 76 -42 77 -46 2 -4 9 -8 15 -8 16 -1 58 -36 56 -47 -2 -8 9
-57 18 -83 12 -31 6 -49 -25 -78 -32 -30 -41 -52 -22 -52 6 0 10 4 10 9 0 19
30 39 50 34 14 -4 19 -11 15 -23 -4 -12 1 -19 15 -23 12 -3 20 -13 20 -25 0
-11 3 -28 7 -38 5 -14 2 -16 -16 -11 -27 7 -71 -8 -71 -23 0 -15 33 -26 38
-12 2 7 11 12 19 12 9 0 13 -6 9 -15 -3 -9 0 -15 9 -15 8 0 19 -9 25 -20 6
-11 18 -20 27 -20 16 0 15 4 -6 65 -5 17 -17 56 -26 87 -9 31 -22 62 -30 68
-7 6 -16 31 -20 56 -3 25 -12 59 -20 77 -13 31 -13 32 18 42 25 8 38 24 64 75
21 42 32 80 33 108 0 26 5 43 13 43 31 4 587 15 820 17 l257 2 0 -59z m-1897
-1 c-4 -25 4 -60 26 -115 17 -45 26 -81 21 -83 -6 -2 -10 -8 -10 -13 0 -6 23
-7 60 -3 l60 7 0 -60 c0 -43 -5 -64 -16 -74 -12 -10 -15 -24 -11 -54 8 -53
-25 -125 -56 -125 -20 0 -20 0 -1 15 10 8 17 15 14 15 -50 6 -149 8 -163 4
-35 -11 -5 -24 55 -24 34 0 58 -3 55 -7 -4 -3 -2 -12 3 -18 7 -8 6 -29 -1 -61
-6 -27 -11 -60 -12 -74 -1 -14 -14 -35 -29 -48 -21 -18 -28 -35 -34 -85 -7
-61 -8 -63 -73 -120 -36 -32 -76 -66 -88 -76 -19 -15 -23 -28 -23 -80 0 -60 0
-61 -27 -60 -16 0 -22 3 -15 6 24 10 11 23 -23 23 -19 0 -35 5 -35 10 0 6 -54
10 -143 10 -117 0 -150 3 -178 17 l-34 18 103 3 c73 2 111 7 127 18 14 9 39
14 61 12 24 -2 39 2 42 10 3 10 -9 13 -49 11 -30 -2 -65 1 -78 5 -24 8 -24 9
-6 22 17 13 16 14 -13 14 -18 0 -32 -4 -32 -10 0 -6 -47 -10 -122 -10 -154 0
-199 7 -206 32 -2 10 -9 18 -14 18 -5 0 -7 4 -3 9 8 14 52 8 67 -9 11 -13 35
-15 136 -12 67 2 122 8 122 13 0 5 -51 10 -112 10 -62 1 -103 4 -90 6 27 5 29
23 2 23 -11 0 -20 6 -20 14 0 8 -12 17 -27 19 -16 2 8 4 52 5 44 0 74 -2 68
-5 -29 -11 -10 -23 38 -23 36 0 49 4 46 13 -2 6 -17 11 -33 10 -27 -2 -27 -2
5 8 25 8 42 7 60 -1 32 -15 210 -15 225 0 12 12 8 13 -72 10 -48 -1 -68 2 -82
15 -18 16 -20 16 -26 2 -5 -13 -10 -14 -26 -6 -11 6 -86 15 -167 19 -80 5
-156 12 -167 15 -12 4 -31 2 -43 -4 -18 -10 -21 -9 -21 9 0 16 -6 20 -34 20
-24 0 -36 -5 -39 -17 -3 -12 -5 -9 -6 8 0 14 -10 34 -21 44 -15 13 -19 30 -19
70 l1 53 37 6 c20 3 68 4 106 1 l70 -4 -60 10 c-33 5 -81 8 -107 6 l-48 -4 0
32 0 31 63 -4 c42 -3 59 -1 52 6 -8 8 -59 18 -107 21 -5 1 -8 10 -8 21 0 17 7
20 45 20 25 0 45 -4 45 -10 0 -5 -9 -10 -20 -10 -11 0 -20 -4 -20 -9 0 -10
465 -6 693 7 96 5 162 13 169 20 9 9 8 12 -6 12 -9 0 -14 5 -11 10 3 6 32 10
63 10 64 0 132 16 132 30 0 6 -8 10 -17 10 -9 0 -24 7 -34 16 -9 8 -24 17 -33
18 -8 1 -26 14 -40 29 -22 24 -33 27 -85 27 -33 0 -63 -4 -66 -10 -10 -15 -37
-12 -80 10 -22 11 -52 20 -67 20 -15 0 -29 4 -33 9 -10 17 -89 67 -125 79 -58
21 -105 14 -179 -23 -43 -22 -83 -35 -107 -35 -41 0 -88 -15 -142 -43 -34 -19
-73 -20 -72 -2 0 6 7 10 14 10 8 0 18 4 22 8 4 4 -5 7 -19 7 -25 0 -27 3 -27
39 0 37 2 39 38 45 20 3 49 6 65 6 15 0 27 4 27 9 0 5 -26 7 -59 4 -39 -4 -61
-2 -66 6 -12 20 -1 23 97 26 116 3 118 3 118 14 0 5 -49 8 -110 6 l-110 -2 0
63 0 64 45 0 c25 0 45 5 45 10 0 6 -20 10 -45 10 -25 0 -45 3 -45 8 0 4 238 7
529 7 l528 0 -4 -35z m-578 -234 c0 -6 -16 -14 -35 -19 -19 -5 -40 -13 -46
-18 -6 -4 -37 -17 -70 -27 -32 -11 -67 -23 -76 -27 -13 -5 -18 -2 -18 9 0 18
-40 22 -68 7 -9 -4 -30 -11 -47 -15 l-30 -7 24 17 c13 10 62 23 109 31 47 7
96 22 111 32 38 28 146 40 146 17z m464 -113 c15 -13 19 -25 15 -40 -8 -28
-24 -30 -24 -3 0 11 -6 20 -14 20 -15 0 -28 24 -19 34 10 10 19 7 42 -11z
m-444 -13 c4 -6 -11 -10 -39 -10 -25 0 -47 -4 -50 -9 -7 -11 -56 -21 -56 -11
0 11 22 27 45 33 36 9 94 7 100 -3z m168 -5 c7 -16 -8 -29 -23 -20 -15 9 -12
35 4 35 8 0 16 -7 19 -15z m187 5 c0 -13 -50 -13 -70 0 -11 7 -4 10 28 10 23
0 42 -4 42 -10z m-583 -14 c-7 -17 11 -36 35 -36 10 0 18 -4 18 -10 0 -16 -57
-12 -64 5 -5 14 -8 14 -28 1 -13 -8 -37 -17 -55 -21 l-32 -6 16 31 c16 34 42
48 87 49 20 1 27 -3 23 -13z m343 -26 c0 -5 -4 -10 -10 -10 -5 0 -10 5 -10 10
0 6 5 10 10 10 6 0 10 -4 10 -10z m55 -70 c-16 -4 -57 -7 -90 -7 -59 0 -60 0
-15 7 25 4 65 7 90 7 40 1 42 0 15 -7z m-399 -9 c-8 -12 -104 -12 -111 0 -4 5
19 9 55 9 34 0 59 -4 56 -9z m187 2 c3 -5 -33 -9 -78 -11 -48 -1 -86 2 -90 8
-4 6 24 10 79 10 47 0 87 -3 89 -7z m1567 -388 c0 -6 25 -40 55 -75 30 -34 52
-67 49 -71 -3 -5 -45 -9 -93 -9 l-88 0 -6 63 c-7 76 0 115 22 120 21 4 61 -13
61 -28z m-1765 -15 c4 -6 -12 -9 -40 -8 -25 1 -45 6 -45 10 0 12 78 10 85 -2z
m-187 -16 c12 -4 22 -11 22 -16 0 -5 -9 -6 -20 -3 -12 4 -27 2 -35 -5 -10 -8
-15 -8 -20 1 -4 6 -1 15 6 20 17 10 18 10 47 3z m970 -42 c1 -27 2 -55 4 -63
2 -11 -14 -14 -82 -16 l-85 -3 69 65 c37 36 74 65 81 65 9 0 13 -16 13 -48z
m-875 11 c-7 -2 -21 -2 -30 0 -10 3 -4 5 12 5 17 0 24 -2 18 -5z m914 -135
c-2 -13 -4 -5 -4 17 -1 22 1 32 4 23 2 -10 2 -28 0 -40z m1845 32 c10 0 18 -4
18 -10 0 -5 -6 -10 -14 -10 -26 0 -46 12 -46 28 0 12 3 13 12 4 7 -7 20 -12
30 -12z m-2885 -6 c-3 -3 -12 -4 -19 -1 -8 3 -5 6 6 6 11 1 17 -2 13 -5z
m2093 -65 c-7 -31 -8 -29 -8 21 -1 39 2 49 8 34 4 -11 5 -36 0 -55z m-1969 45
c12 -14 11 -16 -5 -13 -11 2 -21 10 -24 17 -5 17 13 15 29 -4z m858 10 c28 -6
31 -10 31 -46 0 -33 -2 -38 -14 -29 -11 9 -15 8 -20 -4 -3 -9 -10 -14 -15 -10
-6 3 -8 11 -5 19 3 9 -5 13 -26 13 -16 0 -30 -3 -30 -6 0 -10 -59 -33 -68 -27
-13 8 -23 62 -16 81 7 16 101 21 163 9z m958 -26 c-3 -7 -5 -2 -5 12 0 14 2
19 5 13 2 -7 2 -19 0 -25z m123 -8 c0 -22 -4 -40 -10 -40 -5 0 -10 7 -10 15 0
23 -18 18 -23 -7 -3 -14 -5 -9 -6 15 -1 25 -6 37 -15 37 -10 0 -16 -13 -19
-37 -3 -35 -4 -34 -5 10 l-2 47 45 0 45 0 0 -40z m-1747 23 c-13 -2 -33 -2
-45 0 -13 2 -3 4 22 4 25 0 35 -2 23 -4z m-288 -23 c4 -6 -6 -10 -22 -10 -22
0 -25 2 -13 10 19 12 27 12 35 0z m2665 0 c0 -5 -4 -10 -10 -10 -5 0 -10 5
-10 10 0 6 5 10 10 10 6 0 10 -4 10 -10z m-2390 -24 c0 -11 -19 -15 -25 -6 -3
5 1 10 9 10 9 0 16 -2 16 -4z m-285 -16 c-3 -5 -15 -10 -26 -10 -11 0 -17 5
-14 10 3 6 15 10 26 10 11 0 17 -4 14 -10z m1043 -82 c2 -34 7 -81 12 -103 5
-22 12 -71 15 -108 7 -59 5 -68 -8 -65 -9 2 -17 -1 -19 -7 -2 -5 7 -11 20 -13
30 -5 28 -22 -3 -22 -14 0 -25 -4 -25 -10 0 -5 13 -10 29 -10 30 0 41 -18 41
-69 l0 -24 -23 21 c-29 27 -40 28 -32 2 7 -23 -3 -26 -30 -7 -17 13 -17 29
-13 233 5 206 11 259 27 250 3 -2 8 -33 9 -68z m-985 45 c-13 -2 -35 -2 -50 0
-16 2 -5 4 22 4 28 0 40 -2 28 -4z m245 -9 c29 -8 29 -42 0 -46 -12 -2 -24 -9
-26 -17 -4 -11 5 -13 39 -9 24 3 53 2 64 -3 16 -6 11 -9 -23 -14 -23 -4 -45
-12 -48 -16 -3 -5 -14 -9 -25 -9 -11 0 -18 4 -15 9 3 5 -13 11 -36 15 -38 6
-46 21 -11 21 9 0 21 8 27 18 9 14 7 21 -7 32 -18 13 -17 14 5 18 13 2 25 5
28 6 3 0 15 -2 28 -5z m-278 -24 c0 -5 -18 -10 -40 -10 -22 0 -40 5 -40 10 0
6 18 10 40 10 22 0 40 -4 40 -10z m962 -115 c-1 -66 -5 -158 -8 -205 -6 -85
-6 -86 23 -117 35 -38 29 -43 -52 -43 -72 0 -78 9 -74 122 2 51 -1 100 -6 108
-10 16 -18 237 -9 252 3 5 33 8 67 6 l61 -3 -2 -120z m-782 95 c0 -5 -9 -10
-20 -10 -11 0 -20 5 -20 10 0 6 9 10 20 10 11 0 20 -4 20 -10z m625 -22 c-9
-42 -12 -45 -35 -30 -13 8 -65 12 -149 12 -76 0 -132 4 -136 10 -4 6 5 10 19
10 52 0 24 19 -31 22 -32 2 31 5 140 6 l199 2 -7 -32z m2065 -4 c0 -20 -5 -24
-27 -24 -25 0 -79 41 -68 51 2 2 24 3 49 1 41 -4 46 -7 46 -28z m-2832 -1
c-16 -2 -40 -2 -55 0 -16 2 -3 4 27 4 30 0 43 -2 28 -4z m2698 -8 c16 -12 16
-14 3 -15 -9 0 -22 -7 -29 -15 -7 -8 -19 -15 -27 -15 -12 0 -13 3 -4 14 6 8
11 18 10 22 -5 28 16 32 47 9z m-2668 -22 c-26 -2 -71 -2 -100 0 -29 2 -8 3
47 3 55 0 79 -1 53 -3z m27 -33 c-3 -5 -13 -10 -21 -10 -8 0 -12 5 -9 10 3 6
13 10 21 10 8 0 12 -4 9 -10z m45 6 c0 -11 -19 -15 -25 -6 -3 5 1 10 9 10 9 0
16 -2 16 -4z m193 -13 c-13 -2 -35 -2 -50 0 -16 2 -5 4 22 4 28 0 40 -2 28 -4z
m135 0 c-15 -2 -42 -2 -60 0 -18 2 -6 4 27 4 33 0 48 -2 33 -4z m249 1 c-3 -3
-12 -4 -19 -1 -8 3 -5 6 6 6 11 1 17 -2 13 -5z m61 -6 c-6 -18 -28 -21 -28 -4
0 9 7 16 16 16 9 0 14 -5 12 -12z m2087 2 c4 -6 -6 -10 -22 -10 -22 0 -25 2
-13 10 19 12 27 12 35 0z m-432 -17 c-13 -2 -33 -2 -45 0 -13 2 -3 4 22 4 25
0 35 -2 23 -4z m-2416 -9 c-3 -3 -12 -4 -19 -1 -8 3 -5 6 6 6 11 1 17 -2 13
-5z m63 -9 c0 -8 -7 -15 -16 -15 -14 0 -14 3 -4 15 7 8 14 15 16 15 2 0 4 -7
4 -15z m120 11 c0 -11 -19 -15 -25 -6 -3 5 1 10 9 10 9 0 16 -2 16 -4z m318
-3 c-26 -2 -71 -2 -100 0 -29 2 -8 3 47 3 55 0 79 -1 53 -3z m1772 -13 c0 -5
-7 -10 -15 -10 -8 0 -15 5 -15 10 0 6 7 10 15 10 8 0 15 -4 15 -10z m467 4
c-3 -3 -12 -4 -19 -1 -8 3 -5 6 6 6 11 1 17 -2 13 -5z m-1947 -14 c0 -6 -40
-10 -102 -9 -67 1 -94 4 -78 9 37 12 180 12 180 0z m1637 4 c-3 -3 -12 -4 -19
-1 -8 3 -5 6 6 6 11 1 17 -2 13 -5z m-1890 -10 c-3 -3 -12 -4 -19 -1 -8 3 -5
6 6 6 11 1 17 -2 13 -5z m1591 -11 c-21 -2 -55 -2 -75 0 -21 2 -4 4 37 4 41 0
58 -2 38 -4z m425 0 c-7 -2 -21 -2 -30 0 -10 3 -4 5 12 5 17 0 24 -2 18 -5z
m-165 -10 c-10 -2 -28 -2 -40 0 -13 2 -5 4 17 4 22 1 32 -1 23 -4z m432 -3 c0
-6 -28 -9 -67 -8 l-68 1 60 7 c33 4 63 7 68 8 4 1 7 -2 7 -8z m-2837 -7 c-7
-2 -19 -2 -25 0 -7 3 -2 5 12 5 14 0 19 -2 13 -5z m2655 0 c-10 -2 -26 -2 -35
0 -10 3 -2 5 17 5 19 0 27 -2 18 -5z m-135 -10 c-13 -2 -35 -2 -50 0 -16 2 -5
4 22 4 28 0 40 -2 28 -4z m352 -37 c0 -19 -10 -20 -419 -18 -231 1 -422 5
-425 7 -2 3 -2 7 0 9 2 3 141 7 308 10 167 3 306 8 309 11 3 3 56 4 116 3 102
-3 111 -5 111 -22z m-2057 -19 c2 -12 -4 -17 -20 -17 -13 0 -214 0 -448 -1
-365 0 -425 2 -428 15 -3 12 33 15 249 15 139 1 254 3 255 4 2 1 90 2 196 1
171 -1 193 -3 196 -17z m470 -264 c48 -31 51 -39 20 -46 -13 -3 -41 -12 -63
-21 -43 -16 -155 -22 -155 -8 0 5 18 17 39 27 22 9 52 30 67 46 34 36 40 36
92 2z m507 17 c14 0 98 -66 103 -81 7 -18 -93 -9 -123 11 -16 11 -37 20 -46
20 -9 0 -22 7 -29 15 -10 12 -6 17 22 29 18 8 39 12 46 10 8 -2 20 -4 27 -4z"/>
<g>
<path d="M2111 2666 c-10 -11 -9 -14 1 -12 14 2 23 15 15 22 -2 2 -10 -2 -16
-10z"/>
</g>
<g>
<path d="M1440 3159 c0 -11 46 -23 59 -14 21 13 10 23 -24 23 -19 0 -35 -4
-35 -9z"/>
</g>
<g>
<path d="M1448 3113 c-22 -5 -24 -33 -3 -33 8 0 15 -4 15 -10 0 -16 20 -12 53
12 27 20 28 22 11 29 -21 8 -50 9 -76 2z"/>
</g>
<g>
<path d="M1955 2550 l-50 -7 63 -1 c36 -1 62 2 62 8 0 6 -6 9 -12 8 -7 0 -35
-4 -63 -8z"/>
</g>
<g>
<path d="M2685 2549 c-66 -5 -158 -7 -205 -4 -60 4 -81 3 -70 -4 25 -18 535
-7 524 11 -6 9 -81 8 -249 -3z"/>
</g>
<g>
<path d="M2110 2540 c0 -6 37 -10 90 -10 53 0 90 4 90 10 0 6 -37 10 -90 10
-53 0 -90 -4 -90 -10z"/>
</g>
<g>
<path d="M2885 2521 c-2 -5 12 -11 33 -13 35 -5 51 -3 41 6 -11 9 -69 14 -74
7z"/>
</g>
<g>
<path d="M2435 2500 l-50 -7 63 -1 c40 -1 61 2 57 8 -3 6 -9 9 -13 8 -4 0 -29
-4 -57 -8z"/>
</g>
<g>
<path d="M2600 2490 c-11 -7 0 -10 38 -10 33 0 51 4 47 10 -8 13 -65 13 -85 0z"/>
</g>
<g>
<path d="M2793 2493 c-57 -7 -35 -23 32 -23 37 0 65 4 65 10 0 6 -6 10 -12 10
-7 0 -22 2 -33 4 -11 2 -35 1 -52 -1z"/>
</g>
<g>
<path d="M1913 2475 c5 -13 167 -19 167 -6 0 5 -38 11 -85 13 -54 2 -84 -1
-82 -7z"/>
</g>
<g>
<path d="M2195 2470 c-4 -6 10 -10 35 -10 25 0 39 4 35 10 -3 6 -19 10 -35 10
-16 0 -32 -4 -35 -10z"/>
</g>
<g>
<path d="M2347 2466 c-47 -17 -67 -34 -67 -57 0 -26 -38 -49 -81 -49 -20 0
-50 -7 -65 -15 -16 -8 -39 -15 -51 -15 -13 0 -23 -5 -23 -11 0 -7 -27 -10 -80
-7 -47 2 -80 -1 -82 -7 -2 -6 28 -11 72 -13 52 -2 77 -7 83 -17 9 -17 53 -20
62 -5 4 6 -7 13 -25 16 -47 10 -27 18 36 15 70 -3 119 -19 62 -20 -21 -1 -38
-5 -38 -11 0 -6 45 -10 115 -10 70 0 115 4 115 10 0 6 -12 10 -27 10 -17 0
-23 4 -17 9 11 11 266 17 282 7 20 -12 13 -26 -12 -26 -28 0 -56 -9 -56 -19 0
-3 86 -7 190 -9 113 -2 190 1 190 7 0 17 -31 21 -152 21 -67 0 -118 3 -115 6
4 4 68 8 144 11 76 2 144 5 151 8 20 7 14 22 -13 29 -30 8 -33 26 -5 26 11 0
20 5 20 10 0 13 -33 13 -47 -1 -13 -13 -69 -3 -80 14 -19 30 -99 47 -119 27
-6 -6 -35 -11 -65 -12 -45 -1 -63 4 -94 25 -22 15 -48 27 -57 27 -27 0 -98 24
-98 32 0 11 -8 10 -53 -6z m78 -28 c14 -6 25 -15 25 -21 0 -5 11 -6 24 -3 16
4 30 0 40 -10 20 -20 20 -34 1 -34 -9 0 -27 -7 -40 -16 -24 -16 -25 -16 -25 9
0 32 -10 38 -65 40 -29 1 -47 7 -50 17 -5 13 -7 13 -15 0 -7 -11 -10 -11 -10
-2 0 27 71 40 115 20z m382 -87 c11 -17 8 -19 -32 -24 -50 -7 -145 2 -145 14
0 4 25 7 55 5 37 -2 59 2 66 11 16 19 42 16 56 -6z m-497 -61 c11 -7 3 -10
-30 -10 -33 0 -41 3 -30 10 8 5 22 10 30 10 8 0 22 -5 30 -10z"/>
</g>
<g>
<path d="M2568 2452 c-16 -2 -28 -8 -28 -14 0 -6 11 -7 27 -3 47 11 47 23 1
17z"/>
</g>
<g>
<path d="M2695 2440 c-4 -6 7 -10 24 -10 17 0 31 5 31 10 0 6 -11 10 -24 10
-14 0 -28 -4 -31 -10z"/>
</g>
<g>
<path d="M2910 2430 c0 -5 9 -10 21 -10 11 0 17 5 14 10 -3 6 -13 10 -21 10
-8 0 -14 -4 -14 -10z"/>
</g>
<g>
<path d="M1876 2402 c5 -5 38 -6 74 -2 l65 7 -74 1 c-41 1 -71 -2 -65 -6z"/>
</g>
<g>
<path d="M2135 2391 c-19 -8 -19 -8 2 -15 24 -8 43 -1 43 15 0 11 -17 11 -45
0z"/>
</g>
<g>
<path d="M1369 2353 c0 -27 -1 -27 -9 -5 -13 30 -20 28 -20 -8 0 -18 5 -30 13
-30 9 0 12 -19 10 -72 -2 -60 -1 -66 6 -33 16 76 22 175 11 175 -5 0 -10 -12
-11 -27z"/>
</g>
<g>
<path d="M1815 2340 c-4 -6 10 -10 34 -10 23 0 41 5 41 10 0 6 -15 10 -34 10
-19 0 -38 -4 -41 -10z"/>
</g>
<g>
<path d="M2420 2270 c0 -5 23 -10 50 -10 28 0 50 5 50 10 0 6 -22 10 -50 10
-27 0 -50 -4 -50 -10z"/>
</g>
<g>
<path d="M1836 2251 c12 -11 103 -21 109 -11 7 12 -22 20 -73 20 -27 0 -42 -4
-36 -9z"/>
</g>
<g>
<path d="M2003 2233 c9 -14 196 -23 292 -14 l80 8 -105 2 c-58 0 -143 4 -189
8 -56 4 -82 3 -78 -4z"/>
</g>
<g>
<path d="M2455 2170 c3 -5 10 -10 16 -10 5 0 9 5 9 10 0 6 -7 10 -16 10 -8 0
-12 -4 -9 -10z"/>
</g>
<g>
<path d="M2555 2170 c3 -5 10 -10 16 -10 5 0 9 5 9 10 0 6 -7 10 -16 10 -8 0
-12 -4 -9 -10z"/>
</g>
<g>
<path d="M2620 2170 c-41 -10 -10 -15 85 -14 169 1 225 4 225 13 0 10 -268 11
-310 1z"/>
</g>
<g>
<path d="M1890 2156 c0 -13 6 -15 28 -10 33 8 41 14 19 14 -8 0 -22 3 -31 6
-11 4 -16 1 -16 -10z"/>
</g>
<g>
<path d="M2058 2163 c7 -3 16 -2 19 1 4 3 -2 6 -13 5 -11 0 -14 -3 -6 -6z"/>
</g>
<g>
<path d="M2218 2163 c7 -3 16 -2 19 1 4 3 -2 6 -13 5 -11 0 -14 -3 -6 -6z"/>
</g>
<g>
<path d="M2268 2163 c7 -3 16 -2 19 1 4 3 -2 6 -13 5 -11 0 -14 -3 -6 -6z"/>
</g>
<g>
<path d="M2870 2105 c0 -13 9 -16 43 -13 23 2 42 8 42 13 0 6 -19 11 -42 13
-34 3 -43 0 -43 -13z"/>
</g>
<g>
<path d="M1688 2092 c-10 -13 -112 -97 -147 -119 -2 -2 -2 -6 1 -9 7 -6 122
76 154 111 13 14 19 27 14 30 -5 3 -15 -3 -22 -13z"/>
</g>
<g>
<path d="M1928 2093 c6 -2 18 -2 25 0 6 3 1 5 -13 5 -14 0 -19 -2 -12 -5z"/>
</g>
<g>
<path d="M2108 2083 c12 -2 30 -2 40 0 9 3 -1 5 -23 4 -22 0 -30 -2 -17 -4z"/>
</g>
<g>
<path d="M2538 2073 c7 -3 16 -2 19 1 4 3 -2 6 -13 5 -11 0 -14 -3 -6 -6z"/>
</g>
<g>
<path d="M2728 2073 c6 -2 18 -2 25 0 6 3 1 5 -13 5 -14 0 -19 -2 -12 -5z"/>
</g>
<g>
<path d="M1686 2035 c-15 -19 -44 -44 -64 -55 -43 -22 -36 -26 11 -6 29 12 97
76 97 90 0 16 -20 2 -44 -29z"/>
</g>
<g>
<path d="M2838 2043 c23 -2 61 -2 85 0 23 2 4 4 -43 4 -47 0 -66 -2 -42 -4z"/>
</g>
<g>
<path d="M1920 2010 c0 -6 28 -10 64 -10 36 0 68 5 71 10 4 6 -20 10 -64 10
-41 0 -71 -4 -71 -10z"/>
</g>
<g>
<path d="M1445 2000 c3 -5 10 -10 16 -10 5 0 9 5 9 10 0 6 -7 10 -16 10 -8 0
-12 -4 -9 -10z"/>
</g>
<g>
<path d="M1380 1995 c0 -3 23 -16 50 -29 59 -28 68 -16 10 14 -38 20 -60 25
-60 15z"/>
</g>
<g>
<path d="M2120 1990 c0 -6 28 -10 65 -10 37 0 65 4 65 10 0 6 -28 10 -65 10
-37 0 -65 -4 -65 -10z"/>
</g>
<g>
<path d="M2520 1980 c0 -6 24 -10 57 -10 68 0 66 5 -4 14 -34 4 -53 3 -53 -4z"/>
</g>
<g>
<path d="M2818 1983 c-28 -7 -21 -23 11 -23 43 0 91 11 91 21 0 9 -71 10 -102
2z"/>
</g>
<g>
<path d="M1300 1971 c0 -6 10 -11 22 -11 32 0 108 -30 144 -57 41 -30 67 -29
102 5 15 15 18 19 7 10 -31 -26 -58 -22 -139 17 -79 39 -136 54 -136 36z"/>
</g>
<g>
<path d="M1760 1960 c0 -5 5 -10 10 -10 6 0 10 5 10 10 0 6 -4 10 -10 10 -5 0
-10 -4 -10 -10z"/>
</g>
<g>
<path d="M1615 1950 c-3 -5 -2 -10 4 -10 5 0 13 5 16 10 3 6 2 10 -4 10 -5 0
-13 -4 -16 -10z"/>
</g>
<g>
<path d="M2010 1920 c0 -5 15 -10 34 -10 19 0 38 5 41 10 4 6 -10 10 -34 10
-23 0 -41 -4 -41 -10z"/>
</g>
<g>
<path d="M2210 1902 c0 -5 20 -9 45 -10 25 0 45 4 45 9 0 5 -20 9 -45 9 -25 0
-45 -4 -45 -8z"/>
</g>
<g>
<path d="M1173 1889 c-18 -5 -33 -14 -33 -20 0 -6 7 -8 16 -5 9 3 31 6 49 6
20 0 35 6 39 15 6 17 -20 19 -71 4z"/>
</g>
<g>
<path d="M1260 1896 c0 -2 7 -6 15 -10 8 -3 15 -1 15 4 0 6 -7 10 -15 10 -8 0
-15 -2 -15 -4z"/>
</g>
<g>
<path d="M2434 1893 c11 -11 76 -13 76 -2 0 5 -19 9 -42 9 -23 0 -38 -3 -34
-7z"/>
</g>
<g>
<path d="M2760 1889 c0 -12 159 -9 167 4 2 4 -34 7 -81 7 -55 0 -86 -4 -86
-11z"/>
</g>
<g>
<path d="M1210 1830 c-10 -7 2 -9 41 -7 44 1 62 -2 78 -17 12 -11 24 -17 27
-14 3 3 -8 15 -24 27 -32 22 -96 28 -122 11z"/>
</g>
<g>
<path d="M2025 1820 c-4 -6 8 -10 30 -10 22 0 34 4 30 10 -3 6 -17 10 -30 10
-13 0 -27 -4 -30 -10z"/>
</g>
<g>
<path d="M2270 1800 c0 -5 14 -10 30 -10 17 0 30 5 30 10 0 6 -13 10 -30 10
-16 0 -30 -4 -30 -10z"/>
</g>
<g>
<path d="M2760 1800 c-45 -7 -45 -7 17 -8 34 -1 65 3 68 8 7 11 -15 11 -85 0z"/>
</g>
<g>
<path d="M2880 1800 c0 -5 14 -10 30 -10 17 0 30 5 30 10 0 6 -13 10 -30 10
-16 0 -30 -4 -30 -10z"/>
</g>
<g>
<path d="M2465 1790 c8 -13 35 -13 55 0 11 7 5 10 -23 10 -23 0 -36 -4 -32
-10z"/>
</g>
<g>
<path d="M1424 1751 c42 -21 185 -37 229 -26 43 11 31 25 -15 19 -41 -5 -174
7 -228 20 -15 4 -9 -2 14 -13z"/>
</g>
<g>
<path d="M1240 1752 c0 -5 11 -14 25 -20 26 -12 33 -4 13 16 -14 14 -38 16
-38 4z"/>
</g>
<g>
<path d="M2130 1740 c-12 -8 -12 -10 2 -15 20 -8 41 2 33 16 -8 11 -16 11 -35
-1z"/>
</g>
<g>
<path d="M2285 1730 c-3 -5 3 -10 15 -10 12 0 18 5 15 10 -3 6 -10 10 -15 10
-5 0 -12 -4 -15 -10z"/>
</g>
<g>
<path d="M2470 1720 c0 -5 20 -10 45 -10 25 0 45 5 45 10 0 6 -20 10 -45 10
-25 0 -45 -4 -45 -10z"/>
</g>
<g>
<path d="M2760 1720 c0 -5 11 -10 24 -10 14 0 28 5 31 10 4 6 -7 10 -24 10
-17 0 -31 -4 -31 -10z"/>
</g>
<g>
<path d="M1340 1690 c19 -13 30 -13 30 0 0 6 -10 10 -22 10 -19 0 -20 -2 -8
-10z"/>
</g>
<g>
<path d="M2585 1670 c3 -5 26 -10 51 -10 24 0 44 5 44 10 0 6 -23 10 -51 10
-31 0 -48 -4 -44 -10z"/>
</g>
<g>
<path d="M2130 1650 c0 -5 14 -10 30 -10 17 0 30 5 30 10 0 6 -13 10 -30 10
-16 0 -30 -4 -30 -10z"/>
</g>
<g>
<path d="M2940 1650 c0 -5 7 -10 15 -10 8 0 15 5 15 10 0 6 -7 10 -15 10 -8 0
-15 -4 -15 -10z"/>
</g>
<g>
<path d="M1270 1646 c0 -3 23 -28 50 -55 30 -30 50 -44 50 -35 0 9 -14 29 -32
45 -31 30 -68 54 -68 45z"/>
</g>
<g>
<path d="M1345 1640 c3 -5 8 -10 11 -10 2 0 4 5 4 10 0 6 -5 10 -11 10 -5 0
-7 -4 -4 -10z"/>
</g>
<g>
<path d="M2780 1631 c0 -11 40 -22 52 -15 5 3 6 10 3 15 -8 12 -55 12 -55 0z"/>
</g>
<g>
<path d="M2275 1620 c-4 -6 10 -10 35 -10 25 0 39 4 35 10 -3 6 -19 10 -35 10
-16 0 -32 -4 -35 -10z"/>
</g>
<g>
<path d="M2505 1620 c3 -5 19 -10 36 -10 16 0 29 5 29 10 0 6 -16 10 -36 10
-21 0 -33 -4 -29 -10z"/>
</g>
<g>
<path d="M1406 1588 c3 -13 11 -24 15 -26 10 -4 12 -36 2 -45 -3 -4 -12 -2
-20 5 -20 16 -29 1 -11 -19 9 -10 35 -58 59 -108 23 -49 44 -83 46 -75 2 9
-12 49 -31 90 -21 47 -31 79 -25 85 16 17 10 74 -11 95 -26 26 -33 25 -24 -2z"/>
</g>
<g>
<path d="M1586 1594 c-3 -9 -2 -23 4 -32 7 -14 9 -10 10 16 0 35 -5 41 -14 16z"/>
</g>
<g>
<path d="M1666 1581 c-4 -7 -5 -15 -2 -18 9 -9 19 4 14 18 -4 11 -6 11 -12 0z"/>
</g>
<g>
<path d="M1907 1560 c-3 -14 -8 -43 -11 -65 -2 -22 -8 -55 -12 -74 -5 -23 -4
-32 4 -28 13 9 36 133 30 167 l-4 25 -7 -25z"/>
</g>
<g>
<path d="M2650 1570 c0 -5 7 -10 15 -10 8 0 15 5 15 10 0 6 -7 10 -15 10 -8 0
-15 -4 -15 -10z"/>
</g>
<g>
<path d="M1507 1564 c-10 -11 -9 -104 2 -104 5 0 12 6 14 13 3 6 6 -9 6 -35 1
-27 5 -48 10 -48 9 0 21 72 21 131 0 47 -20 53 -21 7 l-1 -33 -12 38 c-6 21
-15 35 -19 31z"/>
</g>
<g>
<path d="M2310 1560 c0 -5 16 -10 35 -10 19 0 35 5 35 10 0 6 -16 10 -35 10
-19 0 -35 -4 -35 -10z"/>
</g>
<g>
<path d="M1470 1521 c0 -23 5 -41 10 -41 6 0 10 15 10 34 0 19 -4 38 -10 41
-6 4 -10 -10 -10 -34z"/>
</g>
<g>
<path d="M2210 1550 c0 -5 7 -10 15 -10 8 0 15 5 15 10 0 6 -7 10 -15 10 -8 0
-15 -4 -15 -10z"/>
</g>
<g>
<path d="M2830 1540 c0 -5 5 -10 10 -10 6 0 10 5 10 10 0 6 -4 10 -10 10 -5 0
-10 -4 -10 -10z"/>
</g>
<g>
<path d="M2510 1520 c0 -5 9 -10 19 -10 11 0 23 5 26 10 4 6 -5 10 -19 10 -14
0 -26 -4 -26 -10z"/>
</g>
<g>
<path d="M2718 1523 c7 -3 16 -2 19 1 4 3 -2 6 -13 5 -11 0 -14 -3 -6 -6z"/>
</g>
<g>
<path d="M2285 1510 c3 -5 17 -10 31 -10 13 0 24 5 24 10 0 6 -14 10 -31 10
-17 0 -28 -4 -24 -10z"/>
</g>
<g>
<path d="M2425 1470 c-13 -26 -22 -30 -76 -36 -37 -4 -63 -12 -66 -20 -3 -9
-20 -14 -44 -14 -41 0 -56 -19 -16 -21 66 -2 192 3 200 8 5 3 3 9 -4 14 -20
12 3 18 80 21 41 2 66 8 69 16 2 7 -5 12 -16 12 -10 0 -24 11 -30 25 -9 20
-19 25 -47 25 -28 0 -37 -5 -50 -30z"/>
</g>
<g>
<path d="M1587 1468 c-5 -18 3 -48 14 -48 5 0 9 14 9 30 0 30 -15 41 -23 18z"/>
</g>
<g>
<path d="M2230 1470 c0 -5 9 -10 20 -10 11 0 20 5 20 10 0 6 -9 10 -20 10 -11
0 -20 -4 -20 -10z"/>
</g>
<g>
<path d="M1628 1433 c-3 -16 -4 -43 -3 -60 2 -18 3 -43 4 -55 0 -12 4 -18 9
-14 9 9 10 156 1 156 -4 0 -9 -12 -11 -27z"/>
</g>
<g>
<path d="M1405 1405 c4 -22 18 -78 31 -124 13 -46 24 -89 24 -96 0 -33 43
-143 66 -169 37 -41 39 -26 5 30 -18 30 -40 91 -56 154 -14 58 -32 132 -41
165 -19 72 -40 100 -29 40z"/>
</g>
<g>
<path d="M2440 1370 c0 -5 13 -10 29 -10 17 0 33 5 36 10 4 6 -8 10 -29 10
-20 0 -36 -4 -36 -10z"/>
</g>
<g>
<path d="M2530 1370 c0 -5 14 -10 30 -10 17 0 30 5 30 10 0 6 -13 10 -30 10
-16 0 -30 -4 -30 -10z"/>
</g>
<g>
<path d="M2280 1360 c0 -5 16 -10 35 -10 19 0 35 5 35 10 0 6 -16 10 -35 10
-19 0 -35 -4 -35 -10z"/>
</g>
<g>
<path d="M1858 1317 c-9 -23 -19 -55 -23 -72 -3 -16 -8 -38 -11 -47 -3 -10 -1
-18 4 -18 5 0 13 17 16 38 4 20 14 59 23 85 19 60 13 70 -9 14z"/>
</g>
<g>
<path d="M1910 1335 c0 -8 5 -15 10 -15 6 0 10 7 10 15 0 8 -4 15 -10 15 -5 0
-10 -7 -10 -15z"/>
</g>
<g>
<path d="M1916 1291 c-4 -5 -2 -12 3 -15 5 -4 12 -2 15 3 4 5 2 12 -3 15 -5 4
-12 2 -15 -3z"/>
</g>
<g>
<path d="M1920 1240 c0 -5 5 -10 10 -10 6 0 10 5 10 10 0 6 -4 10 -10 10 -5 0
-10 -4 -10 -10z"/>
</g>
<g>
<path d="M1272 1185 c0 -16 2 -22 5 -12 2 9 2 23 0 30 -3 6 -5 -1 -5 -18z"/>
</g>
<g>
<path d="M1920 1190 c0 -5 4 -10 9 -10 6 0 13 5 16 10 3 6 -1 10 -9 10 -9 0
-16 -4 -16 -10z"/>
</g>
<g>
<path d="M1920 1150 c0 -5 7 -10 15 -10 8 0 15 5 15 10 0 6 -7 10 -15 10 -8 0
-15 -4 -15 -10z"/>
</g>
<g>
<path d="M1816 1105 c-9 -21 -15 -46 -13 -55 2 -9 10 1 21 25 9 21 15 46 13
55 -2 9 -10 -1 -21 -25z"/>
</g>
<g>
<path d="M1943 1117 c-22 -10 -31 -27 -15 -27 12 0 48 28 42 33 -3 2 -15 0
-27 -6z"/>
</g>
<g>
<path d="M1300 1090 c0 -5 9 -10 21 -10 11 0 17 5 14 10 -3 6 -13 10 -21 10
-8 0 -14 -4 -14 -10z"/>
</g>
<g>
<path d="M1330 1030 c0 -5 7 -10 16 -10 8 0 12 5 9 10 -3 6 -10 10 -16 10 -5
0 -9 -4 -9 -10z"/>
</g>
<g>
<path d="M1870 1020 c0 -5 5 -10 10 -10 6 0 10 5 10 10 0 6 -4 10 -10 10 -5 0
-10 -4 -10 -10z"/>
</g>
<g>
<path d="M1880 977 c-22 -9 -23 -11 -6 -14 10 -3 23 0 29 6 16 16 5 20 -23 8z"/>
</g>
<g>
<path d="M1330 961 c0 -6 7 -14 15 -17 8 -4 15 -12 15 -20 0 -8 3 -14 8 -14 4
0 24 -4 44 -9 30 -7 35 -6 31 6 -5 12 -1 14 15 8 13 -4 22 -2 22 4 0 6 -12 13
-27 16 -16 3 -41 10 -58 16 -56 20 -65 21 -65 10z"/>
</g>
<g>
<path d="M1750 930 c0 -5 6 -10 14 -10 8 0 18 5 21 10 3 6 -3 10 -14 10 -12 0
-21 -4 -21 -10z"/>
</g>
<g>
<path d="M1604 918 c-3 -4 9 -8 25 -8 17 0 31 4 31 8 0 4 -12 8 -26 8 -14 0
-28 -4 -30 -8z"/>
</g>
<g>
<path d="M1663 893 c-13 -2 -23 -9 -23 -15 0 -11 64 -2 90 13 16 9 -24 10 -67
2z"/>
</g>
<g>
<path d="M1482 851 c4 -13 18 -16 19 -4 0 4 -5 9 -11 12 -7 2 -11 -2 -8 -8z"/>
</g>
<g>
<path d="M212 2549 c5 -16 78 -25 78 -10 0 6 -11 11 -24 11 -13 0 -32 3 -42 7
-12 4 -15 2 -12 -8z"/>
</g>
<g>
<path d="M350 2540 c0 -5 18 -10 40 -10 22 0 40 5 40 10 0 6 -18 10 -40 10
-22 0 -40 -4 -40 -10z"/>
</g>
<g>
<path d="M470 2540 c0 -6 28 -10 65 -10 37 0 65 4 65 10 0 6 -28 10 -65 10
-37 0 -65 -4 -65 -10z"/>
</g>
<g>
<path d="M797 2544 c-15 -16 -5 -24 28 -24 19 0 35 5 35 10 0 6 -6 10 -14 10
-8 0 -21 2 -28 5 -8 3 -17 2 -21 -1z"/>
</g>
<g>
<path d="M977 2544 c-12 -12 4 -24 34 -24 19 0 29 5 29 15 0 15 -50 22 -63 9z"/>
</g>
<g>
<path d="M670 2530 c0 -5 20 -10 45 -10 25 0 45 5 45 10 0 6 -20 10 -45 10
-25 0 -45 -4 -45 -10z"/>
</g>
<g>
<path d="M45 2480 c3 -6 52 -10 110 -10 58 0 107 4 110 10 4 6 -35 10 -110 10
-75 0 -114 -4 -110 -10z"/>
</g>
<g>
<path d="M348 2483 c6 -2 18 -2 25 0 6 3 1 5 -13 5 -14 0 -19 -2 -12 -5z"/>
</g>
<g>
<path d="M450 2480 c0 -5 7 -10 15 -10 8 0 15 5 15 10 0 6 -7 10 -15 10 -8 0
-15 -4 -15 -10z"/>
</g>
<g>
<path d="M522 2479 c5 -17 48 -25 48 -10 0 6 -4 11 -9 11 -5 0 -17 3 -27 7
-12 4 -15 2 -12 -8z"/>
</g>
<g>
<path d="M910 2468 c0 -4 38 -8 85 -8 47 0 85 4 85 8 0 4 -38 8 -85 8 -47 0
-85 -4 -85 -8z"/>
</g>
<g>
<path d="M718 2458 c9 -9 15 -9 24 0 9 9 7 12 -12 12 -19 0 -21 -3 -12 -12z"/>
</g>
<g>
<path d="M446 2422 c-8 -14 28 -20 107 -17 84 2 101 15 20 15 -33 0 -74 3 -91
6 -16 3 -32 2 -36 -4z"/>
</g>
<g>
<path d="M740 2420 c0 -6 43 -10 110 -10 67 0 110 4 110 10 0 6 -43 10 -110
10 -67 0 -110 -4 -110 -10z"/>
</g>
<g>
<path d="M1018 2423 c7 -3 16 -2 19 1 4 3 -2 6 -13 5 -11 0 -14 -3 -6 -6z"/>
</g>
<g>
<path d="M296 2411 c5 -5 27 -6 49 -1 l40 8 -49 1 c-30 1 -46 -3 -40 -8z"/>
</g>
<g>
<path d="M622 2370 c4 -12 208 -22 208 -10 0 12 -56 20 -137 20 -46 0 -73 -4
-71 -10z"/>
</g>
<g>
<path d="M980 2370 c0 -5 25 -10 55 -10 30 0 55 5 55 10 0 6 -25 10 -55 10
-30 0 -55 -4 -55 -10z"/>
</g>
<g>
<path d="M240 2350 c0 -6 32 -10 75 -10 43 0 75 4 75 10 0 6 -32 10 -75 10
-43 0 -75 -4 -75 -10z"/>
</g>
<g>
<path d="M810 2330 c-12 -8 -10 -10 8 -10 13 0 20 4 17 10 -7 12 -6 12 -25 0z"/>
</g>
<g>
<path d="M880 2330 c0 -6 40 -10 101 -10 64 0 98 4 94 10 -3 6 -48 10 -101 10
-56 0 -94 -4 -94 -10z"/>
</g>
<g>
<path d="M708 2318 c9 -9 15 -9 24 0 9 9 7 12 -12 12 -19 0 -21 -3 -12 -12z"/>
</g>
<g>
<path d="M133 2313 c-18 -2 -33 -9 -33 -15 0 -6 10 -8 23 -4 12 3 30 6 40 6 9
0 17 5 17 10 0 6 -3 9 -7 8 -5 0 -23 -3 -40 -5z"/>
</g>
<g>
<path d="M720 2280 c0 -5 14 -10 30 -10 17 0 30 5 30 10 0 6 -13 10 -30 10
-16 0 -30 -4 -30 -10z"/>
</g>
<g>
<path d="M995 2280 c-71 -3 -128 -7 -125 -8 13 -6 249 -7 280 -1 19 4 27 7 18
8 -9 0 -22 2 -30 4 -7 1 -71 0 -143 -3z"/>
</g>
<g>
<path d="M1070 2239 c0 -7 24 -9 70 -7 96 6 100 18 7 18 -49 0 -77 -4 -77 -11z"/>
</g>
<g>
<path d="M1170 2210 c0 -5 5 -10 10 -10 6 0 10 5 10 10 0 6 -4 10 -10 10 -5 0
-10 -4 -10 -10z"/>
</g>
<g>
<path d="M223 2013 c-47 -10 -20 -20 69 -27 123 -8 168 -8 168 3 0 4 -33 11
-72 15 -40 3 -89 8 -108 10 -19 2 -45 2 -57 -1z"/>
</g>
<g>
<path d="M813 2007 c3 -9 39 -12 131 -13 133 -1 181 11 74 19 -131 10 -210 7
-205 -6z"/>
</g>
<g>
<path d="M520 2003 c0 -10 239 -27 248 -18 13 12 -15 17 -127 22 -77 4 -121 2
-121 -4z"/>
</g>
<g>
<path d="M386 1941 c-4 -5 22 -10 61 -10 38 -1 75 -2 83 -3 33 -3 71 2 67 10
-7 11 -204 14 -211 3z"/>
</g>
<g>
<path d="M710 1943 c0 -5 56 -9 125 -10 78 -2 125 1 125 7 0 6 -49 10 -125 10
-69 0 -125 -3 -125 -7z"/>
</g>
<g>
<path d="M1030 1940 c-12 -8 -9 -10 13 -10 15 0 27 5 27 10 0 13 -20 13 -40 0z"/>
</g>
<g>
<path d="M250 1890 c-11 -7 2 -10 43 -10 36 0 56 4 52 10 -8 13 -75 13 -95 0z"/>
</g>
<g>
<path d="M555 1890 c-4 -6 35 -10 110 -10 75 0 114 4 110 10 -3 6 -52 10 -110
10 -58 0 -107 -4 -110 -10z"/>
</g>
<g>
<path d="M975 1880 c3 -5 13 -10 21 -10 8 0 14 5 14 10 0 6 -9 10 -21 10 -11
0 -17 -4 -14 -10z"/>
</g>
<g>
<path d="M415 1850 c-15 -6 -7 -9 30 -9 37 0 45 3 30 9 -11 5 -24 9 -30 9 -5
0 -19 -4 -30 -9z"/>
</g>
<g>
<path d="M965 1850 c3 -5 15 -10 26 -10 11 0 17 5 14 10 -3 6 -15 10 -26 10
-11 0 -17 -4 -14 -10z"/>
</g>
<g>
<path d="M178 1843 c18 -2 45 -2 60 0 15 2 0 4 -33 4 -33 0 -45 -2 -27 -4z"/>
</g>
<g>
<path d="M813 1843 c26 -2 67 -2 90 0 23 2 2 3 -48 3 -49 0 -68 -1 -42 -3z"/>
</g>
<g>
<path d="M260 1800 c-14 -4 -42 -8 -62 -9 -21 -1 -38 -5 -38 -11 0 -6 22 -7
58 -3 31 3 102 7 157 8 142 2 169 4 162 11 -10 10 -249 13 -277 4z"/>
</g>
<g>
<path d="M636 1788 c6 -9 121 -9 214 1 50 6 32 7 -77 7 -78 0 -140 -3 -137 -8z"/>
</g>
<g>
<path d="M983 1793 c9 -2 23 -2 30 0 6 3 -1 5 -18 5 -16 0 -22 -2 -12 -5z"/>
</g>
<g>
<path d="M800 1710 c0 -5 18 -10 40 -10 22 0 40 5 40 10 0 6 -18 10 -40 10
-22 0 -40 -4 -40 -10z"/>
</g>
<g>
<path d="M930 1710 c0 -5 11 -10 24 -10 14 0 28 5 31 10 4 6 -7 10 -24 10 -17
0 -31 -4 -31 -10z"/>
</g>
<g>
<path d="M790 1640 c0 -6 35 -10 85 -10 50 0 85 4 85 10 0 6 -35 10 -85 10
-50 0 -85 -4 -85 -10z"/>
</g>
<g>
<path d="M556 1624 c-5 -14 -1 -16 25 -10 17 3 65 6 106 6 47 0 72 4 68 10 -3
6 -48 10 -100 10 -77 0 -94 -3 -99 -16z"/>
</g>
<g>
<path d="M775 1591 c-18 -7 -17 -8 5 -12 34 -6 70 0 70 12 0 11 -47 11 -75 0z"/>
</g>
<g>
<path d="M710 1490 c0 -5 21 -10 46 -10 27 0 43 4 39 10 -3 6 -24 10 -46 10
-21 0 -39 -4 -39 -10z"/>
</g>
<g>
<path d="M1120 1104 c0 -8 5 -12 10 -9 6 4 8 11 5 16 -9 14 -15 11 -15 -7z"/>
</g>
<g>
<path d="M1135 980 c-3 -5 3 -14 14 -20 26 -13 35 2 11 18 -11 7 -21 8 -25 2z"/>
</g>
</g>
<g>
<path d="M1313 5097 c-5 -8 11 -15 47 -19 23 -3 25 -8 28 -60 l3 -58 -41 0
c-29 0 -40 -4 -37 -12 5 -16 307 -19 307 -3 1 6 -14 12 -32 15 -30 5 -33 9
-36 42 -4 46 12 78 35 72 22 -5 51 12 39 23 -10 10 -306 11 -313 0z m190 -29
c-2 -5 -3 -30 -3 -58 0 -49 -1 -50 -30 -50 l-30 0 0 61 0 60 33 -3 c17 -2 31
-6 30 -10z"/>
</g>
<g>
<path d="M2100 4684 c-42 -18 -86 -59 -106 -97 -24 -44 -6 -51 34 -12 32 31
42 35 87 35 68 -1 105 -31 112 -91 6 -52 -20 -93 -74 -116 -40 -16 -35 -33 10
-32 50 2 74 12 112 48 90 85 85 199 -12 263 -34 22 -114 23 -163 2z m131 -26
c91 -27 107 -178 24 -232 -32 -21 -45 -13 -21 13 26 29 30 90 9 131 -26 50
-74 72 -142 66 -60 -5 -58 5 4 28 41 14 61 13 126 -6z"/>
</g>
<g>
<path d="M2823 573 c-41 -8 -25 -23 17 -17 29 5 40 3 40 -6 0 -9 -14 -11 -51
-8 -44 5 -52 3 -56 -13 -3 -11 -12 -19 -20 -19 -8 0 -23 -5 -34 -11 -26 -14
-11 -34 32 -43 40 -8 30 -22 -21 -30 -43 -7 -51 -19 -22 -35 16 -10 16 -10 0
-11 -24 0 -68 -21 -68 -33 0 -5 6 -4 14 2 8 7 37 11 68 9 52 -3 53 -3 50 -32
-5 -42 8 -136 19 -136 5 0 9 38 9 84 l0 84 80 7 c98 9 108 28 23 43 -33 5 -46
10 -30 11 17 0 26 5 22 11 -4 7 -24 8 -51 4 -27 -4 -44 -2 -44 4 0 15 26 22
81 22 75 0 58 20 -18 22 -57 1 -60 2 -20 5 56 5 54 23 -4 23 -21 0 -39 4 -39
10 0 5 13 7 30 4 30 -7 90 12 90 27 0 22 -45 32 -97 22z m-61 -95 c-9 -9 -15
-9 -24 0 -9 9 -7 12 12 12 19 0 21 -3 12 -12z m1 -75 c-7 -2 -19 -2 -25 0 -7
3 -2 5 12 5 14 0 19 -2 13 -5z m145 -20 c-10 -2 -26 -2 -35 0 -10 3 -2 5 17 5
19 0 27 -2 18 -5z"/>
</g>
<g>
<path d="M2830 330 c0 -5 7 -10 15 -10 8 0 15 5 15 10 0 6 -7 10 -15 10 -8 0
-15 -4 -15 -10z"/>
</g>
</g>
</svg>
