<?xml version="1.0" standalone="no"?>
<!DOCTYPE svg PUBLIC "-//W3C//DTD SVG 20010904//EN"
 "http://www.w3.org/TR/2001/REC-SVG-20010904/DTD/svg10.dtd">
<svg version="1.0" xmlns="http://www.w3.org/2000/svg"
 width="300.000000pt" height="518.000000pt" viewBox="0 0 300.000000 518.000000"
 preserveAspectRatio="xMidYMid meet">
<metadata>
Created by potrace 1.15, written by Peter Selinger 2001-2017
</metadata>
<g transform="translate(0.000000,518.000000) scale(0.100000,-0.100000)"
fill="#000000" stroke="none">
<g>
<path d="M2879 5176 c-2 -2 -647 -6 -1433 -10 -786 -3 -1431 -8 -1434 -11 -2
-2 -3 -242 -1 -532 1 -290 3 -1160 4 -1933 3 -2684 3 -2690 20 -2690 13 0 15
20 13 128 -2 179 14 195 66 63 24 -61 51 -102 59 -90 1 2 9 24 17 49 8 25 20
45 27 45 7 0 23 -20 35 -44 24 -45 48 -64 48 -39 0 23 56 160 65 159 9 -1 11
-148 2 -158 -15 -14 -6 -23 22 -23 29 0 30 2 33 53 3 51 4 52 35 55 l32 3 3
-58 c2 -46 7 -59 21 -61 15 -3 17 7 17 107 l0 111 -25 0 c-22 0 -24 -3 -19
-30 9 -44 1 -58 -35 -52 -29 4 -31 7 -31 43 l0 38 -55 -2 c-43 -2 -54 -5 -50
-16 6 -15 -24 -111 -35 -111 -13 0 -41 70 -38 96 3 28 1 29 -42 32 l-45 2 23
-18 c23 -18 23 -20 9 -54 -8 -20 -19 -38 -25 -42 -10 -6 -27 29 -37 81 -6 30
-10 33 -41 33 -33 0 -35 2 -32 27 l3 28 110 7 c61 3 409 7 775 7 366 1 688 3
715 6 28 2 336 5 685 7 l635 3 -3 -174 c-1 -96 -3 -175 -5 -177 -1 -1 -247 -5
-547 -9 -300 -4 -718 -11 -930 -15 -345 -6 -309 -7 345 -7 402 0 828 2 948 4
l217 5 0 2578 0 2577 -46 7 c-54 7 -69 7 -75 2z m-909 -39 c0 -8 -10 -19 -22
-26 -24 -12 -58 -70 -58 -96 0 -10 -10 -15 -29 -15 -16 0 -43 -8 -59 -17 -29
-17 -33 -17 -84 4 -81 32 -85 33 -105 18 -17 -13 -15 -14 15 -15 19 0 66 -16
105 -35 39 -19 81 -35 93 -35 20 0 62 -46 52 -56 -3 -2 -24 5 -47 17 -45 21
-71 20 -71 -5 0 -8 -6 -16 -12 -19 -20 -7 20 -34 71 -49 53 -16 72 -45 22 -35
-18 4 -31 2 -31 -3 0 -20 -31 -9 -40 14 -9 24 -55 66 -73 66 -6 0 -7 -3 -4 -7
16 -15 -18 -33 -64 -33 -58 0 -95 -28 -132 -100 l-24 -45 -79 -7 c-44 -3 -83
-2 -89 3 -16 16 -42 10 -73 -19 -30 -28 -30 -28 -53 -9 -18 14 -32 17 -65 12
-41 -6 -42 -5 -49 24 -6 29 -55 81 -76 81 -5 0 -9 7 -9 15 0 11 11 15 43 15
30 0 57 9 88 29 57 36 83 69 104 132 14 41 15 58 5 101 -6 29 -17 63 -25 75
-14 21 -13 22 18 26 17 2 195 5 395 5 295 2 362 0 362 -11z m270 5 c0 -19 -23
-32 -37 -21 -20 17 -15 29 12 29 14 0 25 -4 25 -8z m312 -29 c30 -28 36 -61
16 -81 -16 -16 -9 -15 42 3 49 17 61 13 37 -13 -10 -10 -14 -22 -10 -27 5 -4
-2 -5 -15 -2 -25 6 -122 -22 -122 -36 0 -5 11 -6 25 -3 14 3 36 9 50 12 38 9
30 -13 -10 -26 -42 -14 -81 -9 -77 9 2 9 -3 11 -13 7 -9 -3 -21 -6 -26 -6 -5
0 -21 -19 -36 -42 -22 -34 -29 -60 -34 -125 -5 -61 -12 -89 -28 -109 -28 -35
-27 -44 8 -83 17 -19 31 -47 33 -65 3 -27 7 -31 32 -31 21 -1 31 -7 38 -24 4
-13 17 -25 28 -28 23 -6 27 -23 5 -23 -15 0 -55 38 -55 53 0 4 -6 2 -13 -5
-10 -10 -11 -36 -6 -113 4 -54 5 -103 2 -108 -3 -5 -14 -6 -25 -4 -11 3 -21 0
-25 -9 -7 -19 -23 -18 -23 1 0 9 -11 38 -25 65 -14 27 -25 63 -25 79 0 16 -4
33 -10 36 -6 4 -10 -7 -10 -24 0 -17 -4 -31 -10 -31 -5 0 -10 4 -10 9 0 5 -12
14 -27 20 -41 17 -79 53 -113 107 -24 38 -30 59 -30 102 0 47 5 61 40 110 51
73 65 114 50 141 -12 24 -28 26 -55 8 -11 -8 -29 -17 -40 -21 -16 -6 -18 -5
-7 5 22 23 13 32 -28 25 -46 -7 -51 -2 -14 17 14 7 31 24 37 37 8 16 26 27 50
33 46 11 51 32 5 23 -41 -8 -78 -32 -78 -51 0 -8 -13 -21 -29 -30 -16 -8 -32
-24 -36 -35 -12 -38 -49 -18 -98 54 -11 15 -30 32 -45 37 -19 7 -23 12 -13 22
8 8 19 8 41 0 26 -10 32 -9 40 7 6 10 10 30 10 43 0 57 72 107 154 107 36 0
52 -7 86 -35 23 -19 46 -35 51 -35 6 0 27 19 49 41 35 37 43 41 72 35 90 -18
98 -19 104 -1 10 25 81 12 116 -22z m418 27 c0 -15 -45 -30 -93 -30 -45 0 -91
-19 -52 -21 17 -1 16 -2 -5 -9 -22 -7 -23 -8 -4 -9 12 -1 41 6 64 14 48 17 80
19 80 6 0 -5 -21 -12 -47 -16 -70 -11 -203 -14 -197 -4 7 12 3 11 -46 -6 -53
-19 -50 -19 -50 4 0 10 -9 30 -20 44 -11 14 -20 28 -20 31 0 3 88 6 195 6 126
0 195 -4 195 -10z m-2570 -7 c0 -3 -7 -15 -17 -25 -11 -12 -17 -38 -17 -81 -1
-34 -6 -71 -13 -81 -10 -18 -12 -17 -27 11 -12 23 -29 36 -66 48 -27 9 -56 15
-63 12 -6 -2 12 -12 41 -21 53 -18 82 -51 82 -94 0 -28 34 -127 54 -157 26
-39 33 -21 9 23 -11 20 -26 55 -33 76 -11 33 -10 41 2 50 8 6 18 23 22 39 3
15 13 27 22 27 13 0 15 6 9 28 -20 76 -1 124 55 141 20 6 95 11 166 11 116 0
130 -2 141 -19 14 -22 12 -25 -59 -61 -26 -13 -44 -28 -42 -32 3 -4 -2 -5 -10
-2 -21 8 -116 -24 -143 -49 -13 -11 -24 -32 -24 -46 -2 -25 -2 -25 -6 2 -8 50
-27 23 -29 -39 -1 -32 -5 -78 -9 -102 -7 -37 -5 -46 15 -64 22 -20 22 -22 4
-28 -10 -4 -35 -5 -54 -3 -32 4 -40 12 -74 71 -40 71 -68 143 -64 163 2 7 -10
17 -27 22 -16 5 -62 25 -101 43 -81 39 -96 42 -63 16 15 -13 20 -25 16 -36 -6
-16 -9 -16 -37 4 -23 17 -30 29 -30 56 0 19 4 34 9 34 5 0 33 -11 63 -25 82
-39 92 -28 11 12 -69 33 -88 55 -66 76 8 9 353 9 353 0z m480 -14 c0 -11 -13
-34 -30 -50 -16 -16 -27 -36 -24 -43 6 -15 -50 -73 -80 -82 -34 -11 -39 12 -7
35 17 13 31 29 31 36 0 8 12 22 28 32 32 21 49 40 62 71 12 28 20 28 20 1z
m208 12 c9 -5 30 -13 46 -17 34 -10 54 -55 55 -123 1 -52 -39 -122 -90 -160
-26 -19 -43 -24 -90 -22 -50 1 -58 -1 -64 -19 -4 -11 -15 -20 -27 -20 -33 0
-15 -24 32 -41 63 -23 93 -69 86 -131 -6 -57 4 -61 33 -13 25 42 61 46 104 11
24 -19 27 -26 18 -47 -5 -13 -20 -57 -32 -98 l-22 -74 21 -16 c11 -9 25 -34
32 -56 7 -22 21 -52 31 -67 27 -38 33 -77 20 -140 -13 -62 -3 -102 30 -126 21
-14 49 -73 49 -102 0 -10 -12 -28 -26 -39 -36 -29 -29 -63 16 -77 30 -10 35
-16 38 -46 3 -31 -2 -39 -54 -81 -31 -26 -62 -47 -70 -47 -7 0 -19 -9 -27 -21
-8 -11 -36 -27 -62 -35 -56 -16 -255 -20 -255 -4 0 6 16 10 35 10 41 0 43 5
13 31 -26 21 -59 24 -76 7 -7 -7 -12 -8 -12 -4 0 4 10 16 23 27 25 21 69 26
62 7 -4 -13 63 -63 73 -53 3 2 -3 15 -14 26 l-19 22 30 -5 c17 -3 38 -9 49
-13 14 -6 18 -5 14 6 -2 7 -18 16 -34 20 -31 6 -74 37 -74 52 0 5 21 7 48 3
39 -5 43 -4 22 5 -51 22 -55 27 -58 60 -5 49 -16 55 -55 30 -47 -29 -80 -27
-118 7 l-32 28 14 52 c9 39 17 52 31 52 10 0 18 -4 18 -10 0 -5 23 -10 50 -10
37 0 50 4 50 14 0 8 -9 18 -21 21 -12 4 -19 13 -17 23 3 13 13 16 42 15 29 -2
37 1 33 11 -12 30 18 37 67 17 25 -11 46 -23 46 -25 0 -3 -21 -3 -47 -1 -53 6
-42 1 59 -29 53 -16 58 -20 69 -57 11 -36 10 -41 -11 -64 -17 -19 -34 -25 -64
-25 -34 -1 -38 -2 -22 -11 26 -16 85 -4 112 22 33 31 33 91 -1 124 -13 14 -30
25 -38 25 -8 0 -21 7 -28 16 -8 9 -33 25 -56 35 -36 15 -43 23 -43 46 0 19
-29 67 -86 147 -71 100 -84 123 -79 146 4 16 -1 44 -10 66 -14 35 -14 41 0 77
15 37 15 41 -2 59 -24 26 -60 45 -106 53 -30 6 -35 10 -26 21 18 22 2 84 -21
84 -10 0 -22 5 -25 10 -3 6 5 10 19 10 13 0 26 -6 29 -12 3 -8 12 -3 26 15 13
15 29 27 37 27 8 0 14 10 14 25 0 14 14 37 35 58 36 35 65 91 65 127 0 11 4
20 9 20 12 0 75 109 67 117 -3 3 -13 -8 -23 -26 -18 -30 -33 -40 -33 -22 0 6
5 13 10 16 6 4 18 25 27 46 10 26 20 38 29 35 7 -3 16 -1 19 4 8 12 89 13 113
1z m-272 -49 c-17 -17 -26 -22 -26 -12 0 19 44 64 48 50 3 -7 -7 -24 -22 -38z
m89 -1 c-8 -17 -20 -31 -25 -31 -14 0 -13 4 12 46 25 43 37 30 13 -15z m2063
-270 c1 -139 -1 -251 -5 -249 -73 37 -85 39 -161 28 -119 -18 -172 -65 -172
-152 0 -37 -4 -47 -23 -55 -26 -12 -57 0 -57 21 0 8 -7 19 -15 26 -8 7 -15 16
-15 21 0 5 7 9 15 9 8 0 15 4 15 9 0 5 -7 14 -15 21 -21 18 -19 47 5 53 11 3
23 14 27 25 5 11 28 35 52 53 24 19 49 48 55 64 6 17 23 49 39 72 15 24 27 47
27 53 0 6 23 35 50 63 34 35 54 66 62 94 6 25 17 45 28 48 9 3 27 17 40 30 13
14 29 24 34 22 7 -2 12 -90 14 -256z m-79 233 c-7 -9 -23 -20 -36 -25 -13 -5
-23 -15 -23 -23 0 -14 -110 -86 -131 -86 -5 0 -9 8 -9 18 0 12 13 23 38 31 53
20 81 43 82 68 0 22 15 29 69 32 20 1 22 -1 10 -15z m-119 -39 c-22 -26 -71
-48 -82 -37 -7 7 0 15 18 23 41 20 42 39 2 40 -32 2 -32 2 7 8 49 9 76 -8 55
-34z m-2026 7 c8 -13 -49 -51 -84 -58 -26 -6 -30 -3 -30 14 0 15 9 22 30 27
16 4 32 11 35 16 8 11 42 12 49 1z m126 -12 c0 -5 -13 -31 -30 -57 -20 -31
-30 -40 -30 -27 0 10 9 30 20 44 11 14 20 31 20 38 0 14 20 17 20 2z m1810 0
c0 -5 -7 -10 -16 -10 -8 0 -12 5 -9 10 3 6 10 10 16 10 5 0 9 -4 9 -10z
m-2520 -24 c0 -2 3 -11 6 -20 9 -23 -19 -20 -41 4 -18 20 -17 20 8 20 15 0 27
-2 27 -4z m440 -16 c0 -12 -34 -30 -57 -29 -15 0 -15 2 3 9 12 5 25 13 29 19
8 14 25 14 25 1z m2065 -35 c0 -23 -40 -75 -57 -75 -4 0 -8 9 -8 20 0 11 4 20
8 20 5 0 17 7 28 15 17 13 15 14 -16 1 -68 -26 -90 -28 -90 -8 0 13 12 23 40
32 22 7 45 19 51 26 15 19 45 -2 44 -31z m-2600 25 c3 -5 1 -10 -4 -10 -6 0
-11 5 -11 10 0 6 2 10 4 10 3 0 8 -4 11 -10z m735 -14 c0 -7 -29 -41 -65 -75
-41 -38 -59 -61 -49 -61 16 0 16 -2 -1 -20 -10 -11 -24 -20 -31 -20 -7 0 -10
-8 -7 -20 4 -14 0 -20 -12 -20 -11 0 -15 6 -11 18 3 9 8 30 12 45 4 18 21 37
45 53 24 15 41 34 45 52 10 43 74 85 74 48z m-721 -17 c10 16 62 2 69 -19 5
-13 -10 -12 -50 5 -10 4 -18 3 -18 -2 0 -6 18 -15 39 -21 28 -9 41 -19 45 -37
4 -16 13 -25 26 -25 10 0 22 -4 25 -10 25 -40 -120 35 -156 81 -34 43 -38 60
-8 33 16 -14 22 -16 28 -5z m164 14 c-7 -2 -19 -2 -25 0 -7 3 -2 5 12 5 14 0
19 -2 13 -5z m423 -4 c3 -6 2 -14 -3 -18 -8 -5 -13 -51 -5 -51 2 0 12 5 23 10
28 16 23 -5 -6 -24 -23 -15 -26 -15 -46 5 -15 15 -18 24 -10 29 9 5 8 10 -4
20 -25 21 -18 40 14 40 17 0 33 -5 37 -11z m1804 1 c0 -18 -32 -60 -41 -54 -5
3 -2 19 8 35 17 29 33 38 33 19z m-1884 -39 c-4 -6 -17 -11 -28 -11 -21 0 -21
1 -3 20 19 21 44 13 31 -9z m2163 -34 c-35 -34 -75 -61 -113 -75 -61 -23 -101
-29 -91 -12 3 6 16 10 28 10 12 1 33 7 47 16 25 15 25 15 -10 9 -29 -5 -32 -4
-17 5 10 7 29 9 43 6 19 -5 26 -2 34 18 5 13 19 27 30 31 12 4 38 18 58 31 56
38 51 18 -9 -39z m-2219 45 c0 -13 -12 -22 -22 -16 -10 6 -1 24 13 24 5 0 9
-4 9 -8z m-262 -36 c3 -14 0 -17 -12 -13 -21 8 -20 -2 2 -19 16 -12 15 -13 -9
-14 -14 0 -34 7 -45 15 -19 14 -19 14 3 15 16 0 20 5 16 21 -5 17 -2 20 18 17
14 -2 25 -11 27 -22z m542 10 c0 -17 -38 -46 -59 -46 -10 0 -5 10 14 30 32 33
45 38 45 16z m1687 -3 c-9 -9 -19 -14 -23 -11 -10 10 6 28 24 28 15 0 15 -1
-1 -17z m-2417 -24 c0 -3 21 -16 46 -28 43 -22 63 -45 51 -57 -11 -11 -43 7
-90 49 -48 45 -65 79 -27 55 11 -7 20 -15 20 -19z m1730 21 c11 -5 29 -14 40
-20 11 -5 29 -10 41 -10 18 0 19 -2 9 -15 -7 -8 -16 -15 -21 -15 -22 0 -99 44
-99 56 0 17 4 17 30 4z m768 -12 c-3 -7 -22 -14 -43 -16 -34 -3 -37 -2 -26 12
16 19 75 22 69 4z m-1968 -38 c0 -5 -4 -12 -10 -15 -5 -3 -7 -19 -3 -35 4 -23
2 -30 -11 -30 -9 0 -16 -4 -16 -10 0 -5 5 -10 10 -10 6 0 10 -5 10 -11 0 -6
-10 -9 -23 -7 -20 4 -23 1 -19 -18 2 -12 16 -28 30 -35 l27 -13 -34 -4 c-43
-4 -77 26 -79 71 -2 81 56 160 100 136 10 -5 18 -14 18 -19z m1550 -1 c0 -21
-16 -56 -45 -100 -25 -38 -45 -77 -45 -89 0 -15 -7 -20 -25 -20 -30 0 -32 14
-5 33 23 16 16 27 -18 27 -19 0 -23 4 -19 19 5 22 -10 31 -54 31 -38 0 -37
-15 2 -29 38 -13 29 -35 -12 -27 -27 5 -29 4 -19 -14 7 -13 21 -20 40 -20 17
0 30 -5 30 -11 0 -12 -39 -8 -75 6 -18 8 -18 7 -6 -8 7 -9 19 -17 26 -17 6 0
20 -9 30 -20 10 -11 26 -20 37 -20 10 0 18 -7 18 -15 0 -8 -5 -15 -11 -15 -24
0 11 -27 52 -40 40 -13 128 -92 129 -115 0 -7 -28 -9 -75 -7 l-75 4 0 -89 0
-89 -60 -59 c-47 -46 -60 -66 -58 -85 3 -23 8 -25 53 -27 41 -1 44 0 16 5 -19
4 -36 13 -39 20 -3 11 11 13 74 9 l79 -6 -65 12 c-94 17 -96 21 -41 72 51 47
68 53 101 33 17 -11 22 -10 30 1 7 12 12 12 23 3 8 -7 22 -9 32 -6 15 6 16 3
11 -24 -8 -34 6 -49 24 -27 7 8 22 15 34 14 21 0 21 0 -1 -16 -13 -8 -23 -25
-23 -37 0 -12 -6 -34 -12 -50 -12 -25 -16 -27 -53 -21 -22 3 -60 8 -85 10
l-45 4 50 -13 c28 -7 74 -23 103 -34 58 -22 54 -25 89 50 34 74 74 118 105
118 15 0 30 -4 33 -10 3 -5 15 -10 26 -10 23 0 26 32 4 50 -23 19 -20 43 12
99 2 2 8 -1 16 -7 17 -15 87 -32 167 -42 36 -4 85 -11 110 -15 43 -7 47 -5 89
34 24 23 48 41 54 41 13 0 57 40 57 52 0 4 -46 5 -102 2 -70 -5 -123 -2 -163
6 -33 8 -51 15 -40 17 44 9 45 10 29 49 -27 64 0 108 86 146 68 30 134 21 176
-24 l32 -35 1 -742 1 -741 -34 0 c-25 0 -42 8 -61 27 -30 33 -32 57 -5 80 11
10 20 21 20 25 0 12 -38 10 -45 -2 -16 -26 -117 0 -133 34 -19 38 -21 82 -6
110 18 37 18 57 -1 50 -9 -4 -27 -32 -41 -63 -37 -83 -38 -84 -74 -108 -36
-25 -107 -31 -170 -13 -40 11 -94 61 -109 103 -12 32 -31 35 -38 8 -4 -17 -15
-11 -78 43 -40 35 -85 72 -101 82 -16 10 -35 24 -42 31 -7 7 -18 13 -23 13
-24 0 -5 19 26 24 55 11 86 44 92 99 5 39 1 54 -20 86 -21 32 -39 44 -99 66
-40 15 -78 28 -84 30 -6 2 -14 16 -17 32 -8 42 -106 164 -149 188 -38 20 -69
12 -33 -9 35 -20 134 -130 155 -172 21 -42 19 -65 -7 -95 -17 -20 -7 -174 11
-160 6 5 20 5 31 0 31 -12 110 -10 123 3 7 7 12 28 12 48 0 46 -32 82 -93 105
-35 12 -46 20 -38 28 13 13 124 -23 153 -50 44 -39 47 -139 5 -168 -27 -19
-84 -19 -121 0 -15 8 -41 15 -56 15 -15 0 -48 9 -74 21 -36 15 -46 25 -41 38
6 19 -39 51 -72 51 -21 0 -49 26 -67 62 -6 13 -30 29 -55 38 -87 31 -126 101
-96 174 21 49 68 78 117 72 45 -5 59 9 24 25 -32 15 -66 6 -105 -27 -29 -24
-61 -27 -61 -6 0 16 89 92 107 92 9 0 34 -12 54 -26 52 -36 105 -41 147 -14
32 20 33 23 27 63 -9 50 -24 92 -30 85 -3 -3 0 -29 7 -58 12 -51 11 -53 -12
-72 -32 -26 -82 -20 -134 16 -48 32 -70 33 -108 1 -16 -14 -36 -25 -43 -25 -8
0 -19 -8 -25 -17 -8 -15 -9 -12 -4 12 l5 30 -19 -22 c-26 -30 -34 -29 -22 3
13 34 13 41 -2 26 -18 -18 -26 -14 -21 11 5 23 82 87 107 87 7 0 26 24 41 53
15 28 33 59 40 67 15 17 125 200 125 207 0 3 10 17 21 31 l21 27 -7 -25 c-4
-14 -13 -32 -19 -40 -6 -8 -19 -28 -28 -45 -9 -16 -27 -50 -41 -75 -13 -25
-43 -76 -66 -115 -22 -38 -41 -73 -41 -77 0 -5 12 -8 28 -8 19 0 23 3 13 9
-11 7 -8 18 14 55 15 25 30 46 33 46 4 0 21 -9 37 -20 47 -31 52 -23 11 19
l-37 38 27 49 c15 27 59 104 98 172 120 208 156 275 156 294 0 15 5 17 28 12
15 -4 27 -7 28 -8 1 -1 18 -23 39 -51 34 -45 37 -47 31 -20 -4 17 -14 37 -22
46 -21 23 -18 27 25 34 22 4 45 13 52 21 19 23 29 16 29 -17z m-123 15 c-3 -3
-12 -4 -19 -1 -8 3 -5 6 6 6 11 1 17 -2 13 -5z m550 -10 c-3 -3 -12 -4 -19 -1
-8 3 -5 6 6 6 11 1 17 -2 13 -5z m-1827 -13 c0 -5 -7 -12 -16 -15 -24 -9 -28
-7 -14 9 14 17 30 20 30 6z m1712 -3 c-8 -8 -17 -8 -34 0 -22 10 -21 11 12 11
26 1 31 -2 22 -11z m73 2 c-3 -5 -15 -10 -26 -10 -10 0 -19 5 -19 10 0 6 12
10 26 10 14 0 23 -4 19 -10z m-781 -32 c9 -17 16 -37 16 -44 0 -7 9 -19 20
-27 19 -13 18 -17 -41 -113 -33 -54 -68 -111 -77 -126 -10 -16 -20 -28 -23
-28 -7 0 -63 116 -98 203 -6 15 -15 27 -21 27 -16 0 -12 48 6 75 14 21 24 25
70 25 43 0 55 -4 64 -20 6 -11 18 -20 26 -20 12 0 14 7 9 30 -12 56 24 70 49
18z m166 17 c0 -8 -7 -15 -15 -15 -8 0 -15 7 -15 15 0 8 7 15 15 15 8 0 15 -7
15 -15z m-1781 -54 c16 -9 7 -31 -13 -31 -14 0 -86 68 -86 82 0 6 41 -15 99
-51z m156 39 c-3 -5 -13 -10 -21 -10 -8 0 -23 -5 -33 -12 -10 -6 -26 -8 -36
-4 -14 5 -15 9 -5 21 14 17 105 22 95 5z m2125 0 c0 -5 -4 -10 -9 -10 -6 0
-13 5 -16 10 -3 6 1 10 9 10 9 0 16 -4 16 -10z m260 -20 c0 -11 -51 -60 -63
-60 -5 0 -21 -9 -35 -21 l-27 -21 40 8 c38 7 39 6 25 -11 -8 -10 -32 -29 -53
-42 -31 -19 -41 -22 -53 -12 -11 9 -11 15 -3 25 15 18 4 44 -18 45 -10 1 0 5
22 8 34 5 40 9 38 28 -2 18 7 25 55 41 70 24 72 24 72 12z m-2640 -10 c0 -5
-4 -10 -10 -10 -5 0 -10 5 -10 10 0 6 5 10 10 10 6 0 10 -4 10 -10z m260 0 c0
-5 -7 -10 -16 -10 -8 0 -12 5 -9 10 3 6 10 10 16 10 5 0 9 -4 9 -10z m440 0
c0 -5 -4 -10 -10 -10 -5 0 -10 5 -10 10 0 6 5 10 10 10 6 0 10 -4 10 -10z
m1788 -5 c3 -3 3 -8 -1 -11 -10 -10 -97 6 -97 18 0 10 87 4 98 -7z m-1828 -10
c0 -8 -7 -15 -15 -15 -8 0 -15 7 -15 15 0 8 7 15 15 15 8 0 15 -7 15 -15z
m1130 0 c0 -8 -6 -15 -14 -15 -17 0 -28 14 -19 24 12 12 33 6 33 -9z m-1570
-15 c0 -5 -8 -10 -17 -10 -9 0 -31 -5 -50 -12 -38 -14 -57 -3 -29 18 22 16 96
19 96 4z m2170 -5 c10 -12 10 -15 -4 -15 -9 0 -16 7 -16 15 0 8 2 15 4 15 2 0
9 -7 16 -15z m-2341 -21 c11 -14 23 -34 26 -45 4 -10 17 -22 31 -25 19 -5 23
-11 18 -29 -4 -18 0 -26 23 -37 15 -7 34 -26 41 -41 7 -15 21 -27 31 -27 15 0
19 -10 23 -51 3 -28 9 -54 15 -58 25 -17 57 -87 54 -121 -3 -45 10 -77 48
-117 30 -33 30 -33 129 -33 96 0 102 -1 148 -32 l49 -33 3 -83 c2 -67 0 -83
-13 -88 -14 -6 -13 -8 2 -20 16 -12 17 -15 3 -40 -29 -53 -150 -80 -211 -48
-37 18 -59 12 -59 -16 0 -32 -31 -71 -67 -86 -39 -17 -42 -30 -8 -38 28 -7 55
-52 55 -92 0 -30 -25 -64 -47 -64 -29 0 -11 -20 29 -31 23 -6 56 -25 74 -43
27 -27 32 -41 39 -104 6 -66 5 -77 -20 -127 -44 -91 -125 -145 -219 -145 -20
0 -45 6 -56 12 -28 18 -46 -1 -31 -31 16 -29 -2 -61 -35 -61 -20 0 -56 -12
-72 -25 -1 -1 16 -20 38 -43 64 -68 66 -138 5 -199 -23 -23 -42 -33 -64 -33
-27 0 -31 3 -31 28 0 15 -2 326 -5 692 -2 366 -1 689 2 718 4 36 11 56 22 60
9 3 35 22 59 43 50 43 100 56 162 39 50 -14 60 -8 34 21 -17 19 -26 21 -87 16
-63 -6 -73 -10 -124 -51 -30 -26 -59 -46 -64 -46 -5 0 -9 68 -9 150 0 83 -1
153 -2 158 -2 4 18 8 45 10 42 3 51 -1 79 -28 43 -43 59 -24 19 23 -19 21 -29
41 -25 51 6 16 1 19 -46 30 -51 11 -92 120 -58 154 17 17 24 15 47 -14z m261
1 c7 -14 11 -26 9 -28 -2 -2 -17 -11 -33 -21 -39 -25 -57 -6 -20 23 30 24 27
39 -4 22 -25 -13 -52 -14 -52 -3 0 12 40 30 66 31 12 1 26 -9 34 -24z m2165 5
c17 -7 15 -9 -12 -9 -18 -1 -33 4 -33 9 0 12 17 12 45 0z m-1895 -16 c0 -8 -5
-12 -10 -9 -6 4 -8 11 -5 16 9 14 15 11 15 -7z m-390 -9 c0 -12 -28 -35 -44
-35 -13 0 -5 24 12 36 22 18 32 17 32 -1z m-80 -15 c0 -5 -2 -10 -4 -10 -3 0
-8 5 -11 10 -3 6 -1 10 4 10 6 0 11 -4 11 -10z m2320 -4 c20 -8 28 -16 21 -20
-6 -4 -26 2 -44 13 -37 24 -25 27 23 7z m-1926 -34 c28 3 59 8 69 12 13 6 17
3 17 -13 0 -16 -7 -21 -27 -22 -16 -1 -35 -2 -45 -3 -26 -2 -34 -16 -8 -16 20
0 22 -4 16 -31 -3 -17 -6 -43 -6 -57 0 -35 -17 -16 -22 23 -3 27 -6 30 -37 27
-39 -3 -101 15 -101 29 0 5 5 9 10 9 6 0 10 5 10 10 0 6 -17 10 -38 10 -45 0
-56 8 -41 27 17 20 67 16 86 -7 28 -32 47 -26 39 13 l-6 32 16 -23 c14 -21 23
-23 68 -20z m953 -4 c-8 -18 -17 -42 -19 -53 -5 -18 -6 -18 -13 -2 -11 27 3
85 23 89 25 6 26 2 9 -34z m863 27 c0 -8 -4 -15 -10 -15 -5 0 -7 7 -4 15 4 8
8 15 10 15 2 0 4 -7 4 -15z m36 -17 c-5 -51 -5 -53 -16 -42 -11 11 -2 74 10
74 5 0 7 -15 6 -32z m-2168 -13 c-26 -29 -34 -32 -37 -19 -2 10 7 25 20 35 41
32 52 21 17 -16z m1055 28 c3 -5 8 -29 11 -55 6 -41 5 -48 -9 -48 -14 0 -16 7
-10 39 4 24 2 42 -4 46 -6 3 -11 10 -11 16 0 11 17 12 23 2z m83 -49 c5 -34 3
-48 -7 -54 -21 -14 -29 -2 -29 44 0 72 25 79 36 10z m62 -9 c2 -25 -1 -45 -6
-45 -10 0 -21 87 -13 96 9 9 15 -8 19 -51z m115 -7 c-5 -10 -43 -10 -43 0 0 4
8 19 17 32 l17 24 7 -24 c3 -14 4 -28 2 -32z m-1283 34 c0 -5 -9 -19 -20 -32
-24 -27 -27 -14 -4 18 16 23 24 28 24 14z m46 -38 c-4 -14 -12 -24 -19 -21
-14 5 -10 35 6 56 15 17 21 -1 13 -35z m2156 -4 c4 -48 -7 -52 -26 -7 -9 21
-10 36 -3 44 15 20 25 7 29 -37z m38 20 c0 -5 -4 -10 -10 -10 -5 0 -10 5 -10
10 0 6 5 10 10 10 6 0 10 -4 10 -10z m-1240 -21 c0 -5 -4 -9 -10 -9 -5 0 -10
7 -10 16 0 8 5 12 10 9 6 -3 10 -10 10 -16z m743 14 c-7 -2 -19 -2 -25 0 -7 3
-2 5 12 5 14 0 19 -2 13 -5z m62 -29 c7 -40 3 -49 -18 -41 -18 7 -28 65 -13
71 21 9 24 6 31 -30z m-1371 5 c45 -12 85 -25 90 -30 9 -8 -3 -63 -29 -126
l-14 -32 -51 15 c-29 8 -54 13 -57 10 -3 -2 12 -9 33 -15 41 -12 72 -28 64
-33 -3 -2 -35 -23 -71 -46 -61 -39 -68 -41 -98 -31 -18 7 -36 22 -41 35 -7 17
-17 24 -35 24 -34 0 -33 29 3 55 18 13 43 20 73 20 41 0 43 1 28 15 -15 13
-16 24 -7 88 6 39 16 72 21 72 6 0 47 -10 91 -21z m526 1 c0 -5 -2 -10 -4 -10
-3 0 -8 5 -11 10 -3 6 -1 10 4 10 6 0 11 -4 11 -10z m-842 -12 c7 -7 12 -28
12 -47 0 -21 10 -50 26 -73 21 -29 25 -45 20 -71 -10 -53 -28 -72 -54 -58 -12
6 -22 17 -22 24 0 7 -13 28 -30 47 -25 30 -29 43 -30 94 0 42 5 65 17 78 19
21 44 23 61 6z m2029 -20 c-3 -7 -5 -2 -5 12 0 14 2 19 5 13 2 -7 2 -19 0 -25z
m-2337 5 l24 -17 -29 -8 c-35 -9 -45 -4 -38 22 6 24 12 25 43 3z m204 -14
c-10 -16 -24 -9 -24 12 0 18 2 19 15 9 8 -7 12 -16 9 -21z m1301 7 c0 -26 -53
-42 -62 -19 -7 18 24 45 47 41 8 -2 15 -12 15 -22z m-1115 -38 c0 -51 10 -77
26 -71 20 7 17 -14 -3 -25 -13 -8 -20 -4 -30 15 -15 30 -18 113 -3 113 6 0 10
-15 10 -32z m791 22 c31 -17 22 -30 -21 -30 -42 0 -58 24 -22 33 9 3 18 5 20
6 2 0 12 -4 23 -9z m154 -32 c-2 -23 -8 -44 -14 -46 -6 -2 -11 -10 -11 -17 0
-7 -6 -16 -12 -18 -19 -8 12 -28 37 -25 15 2 21 12 23 42 2 25 11 45 25 57 40
34 44 24 22 -64 l-7 -25 66 18 c68 19 93 13 52 -13 -34 -23 -93 -32 -111 -17
-12 10 -18 8 -34 -11 -18 -22 -22 -23 -52 -12 -39 15 -50 9 -23 -12 13 -10 31
-13 57 -9 l38 6 -6 -44 c-13 -89 -27 -148 -35 -148 -20 0 -72 93 -82 148 -5
31 -19 84 -29 118 -23 73 -25 97 -5 72 22 -30 56 -23 63 12 3 20 12 30 23 30
15 0 18 -7 15 -42z m-883 -3 c3 -14 1 -25 -3 -25 -5 0 -9 11 -9 25 0 14 2 25
4 25 2 0 6 -11 8 -25z m1968 16 c0 -6 -4 -13 -10 -16 -5 -3 -10 1 -10 9 0 9 5
16 10 16 6 0 10 -4 10 -9z m-883 -26 c7 -21 6 -22 -54 -30 -59 -8 -70 5 -25
28 36 20 71 20 79 2z m-337 -35 c10 -19 8 -20 -45 -20 -39 0 -55 4 -55 13 0
21 11 27 51 27 28 0 41 -5 49 -20z m1234 -43 c61 -33 82 -57 50 -57 -14 0 -15
-3 -6 -12 9 -9 15 -9 24 0 16 16 30 15 54 -3 19 -16 19 -16 -1 -13 -24 4 -47
-31 -32 -49 7 -9 5 -13 -6 -13 -20 0 -39 24 -32 42 4 9 -1 18 -12 22 -10 4
-19 2 -21 -3 -5 -15 -65 -14 -80 1 -13 13 -17 118 -4 117 4 0 34 -15 66 -32z
m-1696 -25 c2 -7 -3 -12 -12 -12 -9 0 -16 7 -16 16 0 17 22 14 28 -4z m795 -2
c-6 -24 -23 -37 -23 -18 0 12 18 38 26 38 1 0 0 -9 -3 -20z m-305 -7 c-5 -25
-108 -26 -108 -1 0 15 9 18 56 18 47 0 55 -3 52 -17z m960 -20 c38 -36 83
-135 68 -150 -8 -8 -47 27 -41 37 2 4 -11 27 -29 51 -29 38 -55 99 -42 99 2 0
22 -17 44 -37z m-101 17 c28 0 35 -6 54 -42 12 -24 28 -51 37 -61 10 -11 12
-21 6 -27 -12 -12 -104 -1 -104 11 0 11 5 11 52 0 21 -5 35 -5 33 0 -3 4 -21
11 -41 15 -39 7 -84 -8 -110 -37 -9 -10 -20 -19 -24 -19 -4 0 -8 39 -9 86 l-2
87 38 -7 c21 -3 53 -6 70 -6z m-607 -44 c-19 -17 -67 -29 -74 -18 -8 13 7 28
39 39 36 12 56 0 35 -21z m1188 13 c55 -1 56 -1 23 -11 -39 -11 -97 -3 -107
14 -5 8 -1 9 10 5 10 -4 43 -7 74 -8z m-2252 -34 c13 -41 3 -46 -20 -10 -19
29 -20 45 -3 45 6 0 17 -16 23 -35z m244 25 c0 -5 -4 -10 -10 -10 -5 0 -10 5
-10 10 0 6 5 10 10 10 6 0 10 -4 10 -10z m40 -20 c0 -5 8 -10 18 -10 18 -1 52
-43 135 -168 43 -65 48 -78 38 -98 -6 -13 -17 -24 -25 -24 -7 0 -19 -7 -26
-15 -20 -25 -59 -19 -66 10 -3 14 -4 32 -1 40 8 20 -19 195 -32 208 -18 18
-21 3 -7 -43 15 -52 27 -258 15 -265 -8 -6 -14 11 -24 70 -9 58 -37 145 -47
145 -12 0 -9 -30 7 -75 18 -48 18 -55 5 -55 -5 0 -10 6 -10 13 0 22 -36 57
-84 83 -37 20 -60 24 -128 24 -79 0 -85 2 -121 33 -47 41 -60 91 -26 100 14 4
33 0 46 -8 12 -8 43 -19 70 -25 26 -6 63 -18 81 -26 33 -15 33 -15 92 33 33
26 60 51 60 56 0 4 7 7 15 7 8 0 15 -4 15 -10z m544 -6 c11 -29 6 -34 -39 -34
-34 0 -47 5 -55 19 -15 30 -14 31 39 31 35 0 51 -4 55 -16z m1451 -3 c36 -1
46 -4 35 -11 -17 -11 -112 -13 -147 -4 -37 10 -26 20 20 18 23 -1 65 -3 92 -3z
m-2105 -10 c0 -12 -20 -25 -27 -18 -7 7 6 27 18 27 5 0 9 -4 9 -9z m-95 -23
c14 -6 25 -15 25 -19 0 -10 -58 10 -66 22 -7 12 10 11 41 -3z m965 2 c0 -22
-33 -60 -51 -60 -45 0 -4 64 44 69 4 1 7 -4 7 -9z m-192 -42 c18 -18 14 -28
-11 -28 -23 0 -47 17 -47 32 0 12 45 9 58 -4z m1058 -32 c20 -20 18 -23 -18
-24 -17 0 -44 -10 -59 -21 -31 -23 -44 -27 -33 -10 3 6 1 15 -6 19 -24 15 0
31 36 24 26 -5 35 -2 40 10 8 20 21 20 40 2z m-1076 -41 c29 -19 61 -35 71
-35 20 0 26 -15 10 -25 -5 -3 -12 -19 -16 -35 -5 -23 -12 -30 -31 -30 -14 0
-27 -7 -30 -15 -9 -23 -42 -18 -59 9 -13 20 -15 39 -9 95 3 39 8 71 9 71 2 0
26 -16 55 -35z m66 3 c3 -5 4 -12 1 -14 -7 -7 -47 15 -47 25 0 11 38 2 46 -11z
m79 2 c-3 -5 -11 -10 -16 -10 -6 0 -7 5 -4 10 3 6 11 10 16 10 6 0 7 -4 4 -10z
m771 -137 c-10 -10 -19 5 -10 18 6 11 8 11 12 0 2 -7 1 -15 -2 -18z m-1461
-13 c3 -5 1 -10 -4 -10 -6 0 -11 5 -11 10 0 6 2 10 4 10 3 0 8 -4 11 -10z
m620 -20 c18 -8 17 -9 -7 -9 -15 -1 -30 4 -33 9 -7 12 12 12 40 0z m-47 -32
c-6 -18 -28 -21 -28 -4 0 9 7 16 16 16 9 0 14 -5 12 -12z m119 -15 c3 -7 -3
-9 -16 -6 -12 3 -21 10 -21 15 0 13 32 6 37 -9z m-593 -34 c-3 -5 -17 -9 -31
-9 -21 0 -23 3 -14 14 12 15 55 10 45 -5z m500 -6 c-7 -32 -30 -60 -40 -50 -9
8 24 77 37 77 5 0 7 -12 3 -27z m106 0 c0 -3 -10 -13 -22 -22 -18 -15 -21 -27
-20 -86 1 -38 -3 -74 -8 -80 -7 -8 3 -12 33 -14 23 -1 46 -6 51 -11 17 -17 -5
-27 -68 -32 -52 -5 -71 -11 -103 -37 -21 -17 -54 -34 -73 -37 l-35 -7 49 44
c27 24 61 49 75 55 17 7 21 13 13 18 -7 4 -12 31 -12 66 0 54 3 62 42 108 29
34 47 48 60 44 10 -2 18 -6 18 -9z m-162 -91 c3 -19 -1 -23 -15 -20 -10 2 -19
14 -21 26 -3 19 1 23 15 20 10 -2 19 -14 21 -26z m-565 -58 c25 -21 38 -25 71
-21 23 2 51 8 63 12 18 6 22 2 28 -25 5 -21 3 -35 -4 -40 -7 -4 -11 -13 -9
-20 2 -7 -10 -17 -27 -21 -39 -11 -90 -62 -82 -83 5 -14 11 -13 42 5 l36 21
-12 -26 c-7 -14 -10 -29 -6 -32 3 -3 45 -6 94 -6 70 0 84 -2 70 -11 -206 -129
-337 -240 -420 -355 -27 -37 -33 -41 -43 -28 -6 9 -16 16 -23 16 -14 0 -14 1
6 41 22 45 29 138 13 195 -13 45 -68 104 -98 104 -10 0 -12 6 -6 18 16 37 16
100 -1 137 -18 36 -18 36 9 64 14 15 26 35 26 45 0 13 5 16 18 11 9 -5 44 -10
77 -12 47 -3 69 0 100 16 50 25 42 26 78 -5z m749 7 c8 -10 30 -29 51 -41 20
-12 34 -26 31 -31 -8 -13 -22 -11 -51 8 -15 10 -34 18 -42 18 -11 0 -17 11
-19 33 -4 36 10 42 30 13z m470 -87 c36 -8 72 -65 64 -99 -5 -21 -13 -25 -41
-25 -63 0 -83 14 -90 64 -9 56 -1 79 22 72 10 -3 30 -8 45 -12z m-310 -33 c27
-24 31 -32 21 -42 -9 -9 -13 -10 -13 -1 0 6 -6 9 -14 6 -7 -3 -16 2 -20 11 -5
15 -9 14 -33 -3 -23 -16 -30 -17 -40 -6 -7 7 -13 18 -13 24 0 18 -18 10 -23
-11 -3 -12 -10 -18 -16 -15 -13 8 -3 37 17 54 9 6 35 12 59 12 33 0 50 -7 75
-29z m-179 3 c11 -11 -5 -34 -24 -34 -18 0 -26 20 -12 33 8 9 28 9 36 1z m-63
-14 c0 -11 -33 -30 -51 -30 -8 0 -5 7 6 20 19 21 45 27 45 10z m341 -41 l24
-21 -25 6 c-14 3 -30 6 -37 6 -7 0 -10 7 -7 15 8 20 17 19 45 -6z m-21 -69
c90 -26 221 -87 299 -141 56 -39 231 -205 231 -220 0 -4 13 -27 29 -51 52 -77
88 -156 117 -256 25 -86 29 -113 28 -237 0 -77 -3 -162 -6 -190 -9 -64 -42
-175 -74 -243 -13 -29 -24 -55 -24 -59 0 -3 -11 -20 -24 -37 -12 -17 -30 -45
-39 -62 -9 -18 -50 -66 -90 -108 -72 -74 -76 -77 -143 -90 -38 -7 -81 -18 -95
-24 -33 -13 -66 -54 -74 -91 -5 -26 -38 -51 -66 -51 -6 0 -25 -6 -42 -14 -75
-33 -304 -49 -459 -32 -77 9 -261 70 -321 107 -26 16 -50 29 -53 29 -17 0
-163 122 -217 181 -243 267 -316 673 -179 1005 65 155 140 264 254 364 73 64
113 90 227 149 96 49 114 56 226 81 115 26 388 21 495 -10z m941 -355 c27 -22
85 -45 117 -45 7 0 12 -13 12 -30 0 -30 28 -65 62 -76 11 -3 18 -15 18 -30 0
-27 32 -64 55 -64 13 0 15 -53 15 -417 0 -230 0 -737 1 -1128 l1 -710 -29 3
c-24 2 -25 1 -10 -8 26 -16 21 -30 -12 -30 -32 0 -49 14 -31 25 8 5 7 11 -1
21 -13 16 -5 20 46 27 23 3 20 4 -12 6 -31 1 -43 5 -43 16 0 11 12 15 43 17
40 1 40 1 7 5 -53 7 -62 23 -12 23 23 0 42 5 42 10 0 6 -15 10 -34 10 -19 0
-38 4 -41 10 -3 6 5 10 19 10 37 0 56 10 56 31 0 13 -10 20 -35 25 -47 8 -62
1 -70 -35 -4 -17 -13 -31 -20 -31 -22 0 -29 -39 -11 -59 9 -10 16 -23 16 -29
0 -7 7 -12 16 -12 8 0 13 -4 10 -9 -12 -19 -44 2 -61 40 -10 21 -22 39 -27 39
-15 0 -8 14 20 45 15 17 38 47 51 68 12 20 38 56 58 79 20 25 33 49 30 59 -3
10 1 26 9 36 19 25 17 33 -7 33 -30 0 -101 -73 -99 -102 5 -60 -1 -73 -61
-130 -57 -55 -90 -70 -104 -48 -3 6 -13 10 -22 10 -9 0 -25 8 -35 17 -18 16
-17 17 19 38 21 11 38 28 38 37 0 9 11 27 25 41 89 89 130 138 130 156 0 27
-8 26 -74 -6 -63 -31 -85 -24 -41 12 40 32 12 32 -40 0 -22 -14 -55 -32 -74
-41 -19 -8 -40 -21 -47 -29 -26 -26 -79 -53 -117 -60 -20 -4 -40 -11 -43 -16
-7 -12 4 -11 51 5 22 7 53 16 69 20 25 6 28 5 18 -7 -7 -7 -37 -20 -67 -27
-30 -7 -60 -19 -66 -27 -15 -17 -7 -16 38 2 20 8 38 13 41 10 11 -11 -22 -34
-58 -40 -21 -4 -46 -12 -56 -19 -15 -11 -13 -12 16 -8 23 3 31 1 26 -7 -4 -6
-25 -14 -47 -17 -29 -5 -44 -14 -56 -35 -9 -15 -27 -33 -39 -40 -13 -6 -25
-18 -28 -26 -4 -10 -1 -11 14 -3 25 13 30 13 30 -3 0 -8 10 -23 23 -35 23 -22
82 -28 104 -10 7 5 20 7 30 4 10 -3 25 -1 33 4 12 8 13 13 3 29 -15 25 -8 31
38 31 27 0 41 5 49 19 9 17 5 20 -33 27 -59 11 -59 11 -92 14 -17 1 7 8 55 15
66 9 87 9 97 0 9 -10 9 -15 0 -24 -9 -10 -9 -12 3 -10 20 4 90 -23 90 -34 0
-4 -14 -13 -30 -19 -17 -5 -35 -18 -40 -28 -15 -29 -12 -32 10 -10 24 24 37
25 79 4 34 -17 79 -11 51 6 -11 7 -12 12 -4 20 17 17 43 -21 50 -73 8 -58 -1
-96 -24 -96 -9 0 -31 -1 -49 -2 -45 -3 -110 41 -122 83 l-9 33 -7 -32 c-7 -33
-8 -33 -67 -33 -37 0 -57 -4 -53 -10 3 -5 35 -10 69 -10 43 0 67 -5 76 -14 6
-8 21 -16 33 -18 40 -6 23 -23 -25 -26 -46 -3 -67 12 -30 21 10 3 6 5 -11 6
-28 1 -44 -18 -34 -42 4 -10 21 -11 73 -6 185 20 184 20 200 50 25 49 48 32
49 -35 0 -22 5 -41 13 -43 9 -3 12 12 12 55 l0 59 45 1 46 0 -3 -91 -3 -92
-510 -6 c-498 -7 -1410 -20 -1450 -22 -11 0 -131 0 -266 1 l-247 2 -6 35 c-7
34 -46 75 -72 75 -7 0 -18 9 -24 20 -10 19 -10 19 32 0 24 -11 63 -19 88 -19
l45 1 -50 8 c-70 10 -111 33 -123 70 -6 16 -21 35 -34 40 -13 5 -33 17 -46 26
-12 9 -22 13 -22 8 1 -5 19 -22 41 -37 32 -22 40 -33 37 -54 -2 -21 -10 -29
-38 -35 -33 -9 -70 -40 -70 -60 0 -5 16 -6 38 -2 20 3 41 7 46 8 5 0 11 -18
12 -41 l4 -43 -158 3 -157 2 -1 55 c-2 70 2 75 33 50 14 -11 36 -20 50 -20 18
0 25 -7 29 -30 4 -16 13 -30 20 -30 16 0 19 16 4 25 -8 5 -7 12 1 22 15 18 -3
33 -40 33 -33 0 -61 27 -61 59 l0 26 25 -28 c14 -15 36 -27 48 -27 l22 1 -22
12 c-32 18 -68 69 -64 91 1 11 14 36 27 55 26 38 29 51 15 51 -14 0 -50 -67
-63 -116 -7 -24 -15 -44 -18 -44 -3 0 -4 116 -4 257 l1 258 39 21 c41 23 63
49 51 60 -4 4 -18 -5 -32 -20 -43 -46 -59 -32 -63 53 -4 66 -2 73 15 69 10 -2
22 -13 28 -25 11 -25 38 -39 92 -48 32 -4 30 -3 -16 13 -66 23 -56 35 16 19
59 -14 74 -24 53 -37 -13 -8 -12 -10 2 -10 17 0 73 -48 65 -56 -9 -9 -101 26
-123 47 -13 12 -24 17 -24 11 0 -6 5 -14 11 -18 6 -3 8 -16 5 -28 -7 -29 34
-73 98 -104 55 -28 58 -37 11 -29 -43 7 -47 -9 -4 -18 38 -8 32 -31 -7 -27
-29 2 -29 2 -8 -15 12 -10 24 -26 27 -36 4 -9 15 -20 24 -23 10 -3 31 -12 46
-20 16 -7 40 -14 53 -14 13 0 25 -4 25 -10 1 -5 2 -14 3 -19 2 -16 10 -20 46
-24 41 -5 90 -26 108 -47 11 -13 13 -11 9 12 -3 19 0 28 9 28 8 0 14 -10 14
-24 0 -25 62 -85 68 -66 2 5 9 7 15 4 15 -5 77 32 77 47 0 6 -9 22 -20 36 -28
36 -25 43 15 43 37 0 85 18 85 32 0 4 -4 8 -10 8 -5 0 -10 -4 -10 -10 0 -5
-18 -10 -41 -10 -24 0 -38 4 -34 10 9 15 -12 12 -28 -4 -13 -13 -18 -11 -39
12 -32 36 -46 67 -57 127 -20 105 -47 158 -103 200 -29 22 -55 43 -58 46 -3 4
-21 16 -40 26 -19 11 -62 35 -94 53 -58 33 -119 86 -144 125 -12 19 -12 18 -7
-5 8 -34 81 -100 149 -136 93 -48 71 -56 -26 -9 -111 54 -111 55 -133 110 -13
35 -14 49 -5 59 8 11 7 23 -6 53 -17 36 -18 37 -21 13 -2 -14 0 -52 5 -83 5
-32 6 -59 2 -62 -7 -5 -43 18 -88 57 -32 27 -32 27 -32 127 0 90 2 102 20 113
25 16 26 30 2 26 -16 -3 -17 22 -18 392 -1 261 3 400 9 408 6 8 13 32 16 55 5
34 10 42 35 48 68 19 125 119 111 199 -4 21 -13 44 -21 51 -20 17 -17 33 9 44
12 6 30 27 40 48 16 31 24 37 51 37 32 0 33 -1 32 -42 -1 -41 1 -44 41 -63 23
-11 42 -27 43 -35 0 -11 2 -12 12 -1 14 14 8 20 -51 53 -64 35 -28 79 57 70
40 -4 42 -3 43 24 1 16 2 36 3 45 1 19 35 54 43 45 3 -3 -2 -15 -12 -26 -18
-19 -17 -20 1 -20 18 -1 18 -1 -1 -16 -11 -8 -20 -27 -20 -42 0 -23 -5 -27
-33 -30 -42 -4 -31 -22 14 -22 38 0 38 -1 19 -50 -10 -26 -14 -29 -14 -14 -1
26 -17 40 -54 49 -17 5 -26 13 -23 20 7 19 -5 27 -21 14 -16 -14 0 -39 26 -39
25 -1 53 -27 49 -46 -2 -10 -19 -29 -38 -42 l-35 -25 30 6 c17 3 37 8 46 12
15 5 15 1 6 -42 -6 -26 -12 -50 -13 -52 -2 -2 -13 8 -26 22 -13 15 -36 29 -53
31 l-30 6 32 -11 c43 -16 60 -56 39 -97 -16 -31 -39 -42 -96 -42 -102 -1 -110
-45 -12 -64 43 -8 91 -42 102 -71 24 -64 -29 -110 -139 -120 -103 -9 -145 -48
-107 -97 22 -30 64 -39 155 -33 73 6 91 4 121 -13 44 -24 64 -63 56 -107 -6
-32 -10 -34 -64 -45 -122 -24 -162 -50 -162 -107 0 -44 25 -59 128 -72 45 -6
95 -17 112 -26 34 -17 44 -19 35 -5 -12 20 -72 38 -143 44 -91 8 -112 18 -112
55 0 39 36 68 106 84 63 15 98 30 125 53 14 12 18 9 38 -29 33 -63 41 -76 101
-152 74 -95 154 -167 272 -245 21 -14 38 -28 38 -32 0 -3 13 -9 29 -13 29 -6
64 -35 43 -35 -6 0 -30 -20 -52 -44 -29 -30 -63 -53 -111 -73 -38 -15 -69 -33
-69 -40 0 -19 76 -24 194 -15 136 11 317 -6 374 -36 46 -24 181 -81 277 -117
39 -14 96 -39 128 -55 66 -34 115 -38 155 -13 66 43 290 214 319 245 17 18 62
66 100 107 37 40 97 101 132 135 213 202 229 224 243 347 6 52 12 110 12 129
1 19 6 54 10 78 8 40 11 43 35 37 14 -3 42 -22 62 -42 40 -38 73 -42 93 -11 8
14 5 39 -13 105 -13 49 -28 120 -33 158 -9 71 -12 81 -55 195 -13 36 -29 94
-36 130 -7 36 -17 64 -22 62 -6 -2 -16 -20 -23 -40 -10 -29 -11 -50 -1 -101
12 -66 7 -80 -31 -81 -8 0 -25 -3 -37 -6 -19 -5 -23 -2 -23 18 0 14 -16 58
-36 98 -54 107 -60 90 -56 -165 1 -117 -2 -224 -7 -238 -12 -31 -59 -82 -68
-74 -3 4 0 32 7 62 8 33 14 120 14 213 1 204 -10 251 -113 462 -20 41 -37 77
-39 80 -1 3 39 4 90 2 83 -4 99 -1 148 21 30 14 57 26 59 26 2 1 16 -10 32
-24z m-2244 -130 c-7 -16 -47 -22 -47 -7 0 9 42 32 49 26 2 -2 1 -10 -2 -19z
m83 -10 c0 -8 -4 -15 -10 -15 -5 0 -10 7 -10 15 0 8 5 15 10 15 6 0 10 -7 10
-15z m2436 -61 c-3 -9 -10 -12 -16 -9 -14 9 -13 38 3 54 10 10 13 8 15 -9 2
-12 1 -28 -2 -36z m-173 -297 c-6 -7 -9 -29 -7 -49 3 -40 -5 -52 -30 -42 -12
5 -13 10 -4 30 9 18 8 28 0 36 -9 9 -6 17 15 34 27 22 44 16 26 -9z m-2357 -3
c-3 -9 -6 -43 -6 -77 l0 -61 -30 31 c-17 17 -45 36 -63 43 -87 32 -87 33 -14
40 43 4 74 13 85 23 21 21 36 22 28 1z m2209 -14 c3 -5 -1 -10 -9 -10 -9 0
-16 5 -16 10 0 6 4 10 9 10 6 0 13 -4 16 -10z m60 -31 c-9 -14 -45 -11 -45 4
0 8 3 17 6 20 10 9 46 -12 39 -24z m-45 -39 c0 -5 -4 -10 -10 -10 -5 0 -10 5
-10 10 0 6 5 10 10 10 6 0 10 -4 10 -10z m10 -72 c0 -15 -28 -8 -34 8 -11 28
-6 34 14 17 11 -10 20 -21 20 -25z m40 32 c0 -5 -4 -10 -9 -10 -6 0 -13 5 -16
10 -3 6 1 10 9 10 9 0 16 -4 16 -10z m140 -26 c0 -8 -4 -12 -10 -9 -5 3 -10
10 -10 16 0 5 5 9 10 9 6 0 10 -7 10 -16z m-210 -44 c0 -5 -4 -10 -10 -10 -5
0 -10 5 -10 10 0 6 5 10 10 10 6 0 10 -4 10 -10z m119 -18 c10 -19 4 -62 -8
-62 -3 0 -13 13 -22 29 -12 21 -14 32 -6 40 16 16 25 14 36 -7z m-2290 -145
c7 -21 11 -41 8 -43 -3 -3 -20 2 -38 11 -24 13 -61 18 -141 19 -96 1 -111 3
-124 20 -32 44 -10 60 108 76 73 11 99 21 132 52 l21 19 11 -58 c6 -32 16 -75
23 -96z m2220 86 c12 -42 5 -59 -15 -42 -7 6 -20 9 -27 6 -17 -7 -13 63 5 74
18 11 26 3 37 -38z m187 10 c-6 -40 -7 -40 -16 -18 -13 31 -12 45 5 45 12 0
14 -7 11 -27z m14 -79 c11 -12 10 -18 -3 -32 -16 -15 -17 -15 -17 0 0 9 -5 18
-12 20 -12 4 -3 28 11 28 5 0 14 -7 21 -16z m-306 -25 c-3 -5 -9 -7 -14 -4 -5
3 -21 -10 -36 -29 -29 -36 -55 -40 -30 -4 26 37 102 72 80 37z m116 0 c0 -11
-4 -17 -10 -14 -5 3 -10 13 -10 21 0 8 5 14 10 14 6 0 10 -9 10 -21z m-97 -70
c-6 -21 -29 -36 -40 -25 -4 4 33 43 44 46 0 0 -1 -9 -4 -21z m65 -42 c18 -38
-3 -83 -37 -79 -28 3 -61 -24 -61 -49 0 -10 -21 -35 -47 -56 -54 -43 -143
-134 -143 -146 0 -4 -11 -20 -25 -35 -14 -15 -28 -36 -31 -47 -7 -21 -71 -97
-88 -104 -6 -2 -24 -19 -42 -38 -36 -38 -57 -42 -78 -11 -21 29 -10 41 30 35
29 -5 37 -1 64 29 16 19 30 39 30 44 0 5 6 7 14 4 9 -3 13 3 13 23 0 27 9 58
41 133 27 63 183 240 213 240 5 0 14 12 19 26 8 21 15 25 35 20 19 -5 28 -1
41 19 20 31 34 28 52 -8z m-178 17 c0 -6 -92 -134 -96 -134 -7 0 12 49 28 72
10 14 18 30 18 35 0 13 22 33 37 33 7 0 13 -3 13 -6z m180 -146 c0 -29 -23
-95 -38 -110 -7 -7 -12 -16 -12 -21 0 -15 -32 -50 -90 -101 -30 -27 -89 -79
-130 -117 -41 -37 -79 -68 -83 -67 -5 0 -21 -12 -37 -27 -18 -17 -30 -23 -34
-16 -4 6 -2 11 4 11 6 0 14 10 19 23 5 12 29 45 53 73 23 27 52 68 63 89 11
21 29 50 40 63 33 39 132 110 165 117 23 5 30 12 30 30 0 12 6 28 14 35 8 6
12 18 9 26 -3 8 1 14 11 14 10 0 16 -8 16 -22z m-448 -260 c-3 -13 -18 -36
-34 -53 -23 -25 -36 -30 -75 -31 -27 0 -61 -4 -77 -9 -20 -5 -31 -4 -37 6 -7
11 -12 12 -28 2 -21 -13 -31 -8 -31 17 0 37 35 52 139 59 74 5 105 11 117 23
22 22 34 15 26 -14z m-262 -118 c0 -13 -11 -13 -30 0 -12 8 -11 10 8 10 12 0
22 -4 22 -10z m-755 -101 c16 -16 -30 -10 -51 7 -18 15 -18 15 11 9 17 -4 34
-11 40 -16z m269 -8 c3 -5 -1 -12 -10 -15 -8 -3 -14 -13 -12 -22 5 -26 -15
-27 -31 -2 -12 19 -11 23 5 35 21 15 40 17 48 4z m356 -1 c-19 -13 -30 -13
-30 0 0 6 10 10 23 10 18 0 19 -2 7 -10z m374 -14 c-13 -22 -19 -23 -40 -14
-40 19 -27 36 29 37 27 1 27 0 11 -23z m-224 -6 c0 -5 -5 -12 -11 -16 -14 -8
-33 11 -25 25 7 11 36 4 36 -9z m129 -8 c11 -11 9 -13 -15 -10 -15 2 -29 8
-31 15 -6 16 30 12 46 -5z m-576 -7 c11 -11 28 -13 68 -8 48 6 53 5 41 -9 -11
-14 -9 -20 10 -38 12 -11 33 -23 45 -26 37 -10 18 -21 -39 -23 -49 -1 -55 1
-81 31 -25 30 -28 32 -38 15 -16 -27 -37 -4 -37 38 0 38 8 43 31 20z m251 -12
c-4 -16 -11 -34 -17 -41 -9 -11 -3 -13 29 -10 34 3 39 6 39 27 0 28 39 40 49
16 3 -8 12 -15 21 -15 8 0 15 -4 15 -10 0 -5 -5 -10 -12 -10 -6 0 -19 -7 -28
-15 -23 -21 -91 -22 -133 -1 -64 30 -57 86 9 86 32 0 34 -2 28 -27z m366 -73
c12 -1 11 -3 -3 -11 -20 -12 -57 -3 -57 13 0 6 10 8 23 4 12 -3 29 -6 37 -6z
m-2082 -59 c-14 -5 -31 15 -23 29 5 8 11 6 20 -7 9 -11 10 -19 3 -22z m1792
19 c0 -5 -4 -10 -10 -10 -5 0 -10 5 -10 10 0 6 5 10 10 10 6 0 10 -4 10 -10z
m-1629 -57 c57 -28 156 -76 220 -106 113 -53 116 -55 137 -104 11 -27 25 -77
31 -110 11 -69 27 -103 68 -150 84 -94 87 -102 48 -119 -20 -10 -27 -8 -42 9
-13 14 -15 21 -5 24 19 7 14 30 -12 50 -43 35 -112 203 -119 292 -2 34 -3 34
-55 36 -29 1 -58 8 -65 15 -10 10 -6 12 16 8 53 -10 36 9 -21 22 -31 7 -72 21
-90 31 -41 23 -39 23 -45 -1 -7 -25 -28 -25 -58 0 l-24 19 28 1 c40 0 33 14
-25 45 -55 29 -108 72 -108 88 0 11 -6 13 121 -50z m1519 26 c0 -5 4 -8 9 -5
4 3 6 -6 3 -19 -2 -14 -8 -28 -13 -31 -5 -3 -6 1 -3 9 3 8 1 18 -5 22 -14 8
-14 35 -1 35 6 0 10 -5 10 -11z m-1646 -44 c27 -14 60 -25 73 -25 27 0 29 -6
8 -26 -12 -13 -21 -13 -49 -4 -36 12 -86 52 -86 70 0 13 -3 14 54 -15z m1876
-7 c0 -17 -20 -17 -29 1 -16 29 -14 33 9 19 11 -7 20 -16 20 -20z m-1588 -123
c13 -17 0 -17 -41 1 -22 9 -38 21 -35 25 5 9 66 -12 76 -26z m-37 -36 c12 -19
-5 -23 -22 -6 -16 16 -16 17 -1 17 9 0 20 -5 23 -11z m102 -9 c18 0 24 -4 20
-14 -9 -22 39 -69 63 -61 15 5 20 2 20 -14 0 -23 -22 -41 -28 -23 -2 7 -8 12
-13 12 -13 0 0 -51 18 -71 19 -23 -4 -41 -44 -33 -18 4 -33 1 -37 -5 -11 -17
-73 -13 -109 6 l-32 18 34 3 c18 2 46 -2 63 -9 16 -6 31 -9 35 -5 3 3 1 6 -5
6 -7 0 -12 8 -12 19 0 16 -6 18 -45 13 -27 -3 -45 -1 -45 6 0 10 46 27 66 24
19 -3 87 35 75 42 -6 4 -11 15 -11 26 0 17 -27 36 -38 25 -3 -3 0 -5 6 -5 7 0
12 -9 12 -20 0 -25 -13 -25 -70 1 -44 20 -44 21 -21 30 14 6 31 7 39 4 12 -4
12 -2 4 8 -14 16 -4 30 16 22 7 -3 25 -5 39 -5z m-240 -26 c-9 -9 -28 6 -21
18 4 6 10 6 17 -1 6 -6 8 -13 4 -17z m122 -27 c35 -20 40 -26 25 -30 -17 -4
-17 -6 4 -12 12 -4 22 -11 22 -16 0 -16 -54 -9 -100 12 -49 23 -40 38 12 20
52 -18 44 -4 -11 20 -49 21 -58 29 -45 42 8 7 37 -4 93 -36z m201 23 c8 -16 8
-20 -4 -20 -25 0 -46 12 -46 26 0 21 38 17 50 -6z m2215 -53 c-51 -31 -161
-87 -172 -87 -23 0 -13 20 15 31 37 14 111 47 142 64 29 16 43 9 15 -8z m-7
-52 c-26 -25 -56 -45 -68 -45 -29 0 -25 12 12 41 84 64 121 67 56 4z m175 29
c3 -3 1 -14 -6 -25 -8 -13 -14 -15 -24 -7 -10 8 -10 14 -2 24 12 15 22 17 32
8z m-2338 -83 c6 -26 4 -32 -6 -28 -8 2 -13 11 -11 18 2 7 -5 19 -15 27 -15
11 -16 14 -3 22 19 12 26 4 35 -39z m2321 2 c-10 -10 -19 5 -10 18 6 11 8 11
12 0 2 -7 1 -15 -2 -18z m-341 -13 c-11 -5 -27 -9 -35 -9 -13 -1 -13 0 0 9 8
5 24 9 35 9 l20 0 -20 -9z m-2216 -16 c3 -3 0 -8 -5 -13 -12 -12 -57 6 -49 19
6 9 42 5 54 -6z m2301 -7 c-26 -16 -30 -23 -17 -25 22 -4 22 -19 0 -30 -26
-13 -207 -26 -199 -14 3 5 20 12 38 16 38 7 134 52 143 66 3 6 21 10 38 10
l32 0 -35 -23z m-2202 -23 c29 -9 8 -24 -33 -24 -31 0 -45 4 -45 13 0 27 19
29 78 11z m80 -7 c4 -18 -14 -22 -37 -8 -7 5 -10 14 -6 20 10 17 39 9 43 -12z
m90 -12 c13 -28 9 -30 -37 -14 -39 14 -41 39 -3 39 21 0 32 -7 40 -25z m-120
-27 c-3 -7 -11 -13 -18 -13 -7 0 -15 6 -17 13 -3 7 4 12 17 12 13 0 20 -5 18
-12z m76 2 c28 -10 35 -30 11 -30 -8 0 -15 -6 -15 -12 0 -7 -5 -5 -11 5 -5 9
-17 17 -24 17 -8 0 -15 7 -15 15 0 17 18 19 54 5z m2356 -31 c0 -5 -11 -9 -25
-9 -14 0 -25 6 -25 14 0 9 8 12 25 8 14 -2 25 -8 25 -13z m-2260 -4 c7 -9 10
-18 6 -22 -8 -9 -56 14 -56 27 0 15 36 12 50 -5z m2100 -24 c-12 -24 -29 -35
-38 -26 -4 4 4 15 17 26 29 24 34 24 21 0z m-263 -7 c13 -4 20 -10 17 -15 -8
-13 -46 -10 -74 6 l-25 14 30 1 c17 0 40 -3 52 -6z m-146 -20 c12 -14 11 -16
-5 -13 -11 2 -21 10 -24 17 -5 17 13 15 29 -4z m496 -30 c-9 -9 -28 6 -21 18
4 6 10 6 17 -1 6 -6 8 -13 4 -17z m-413 -6 c5 -9 7 -20 4 -23 -8 -8 -58 24
-58 37 0 15 42 4 54 -14z m276 2 c0 -5 -5 -10 -11 -10 -5 0 -7 5 -4 10 3 6 8
10 11 10 2 0 4 -4 4 -10z m-380 -19 c7 -14 7 -22 -1 -27 -12 -7 -29 12 -29 34
0 19 18 14 30 -7z m50 -6 c0 -8 -4 -15 -9 -15 -5 0 -11 7 -15 15 -3 9 0 15 9
15 8 0 15 -7 15 -15z m468 -83 c2 -7 -6 -12 -17 -12 -21 0 -27 11 -14 24 9 9
26 2 31 -12z m-2474 -118 c9 -8 16 -26 16 -39 0 -26 33 -55 62 -55 10 0 18 -4
18 -10 0 -16 -62 -11 -82 7 -10 9 -18 26 -18 39 0 27 -24 54 -48 54 -15 0 -15
2 -2 10 21 14 36 12 54 -6z m77 -43 c22 -18 22 -20 6 -26 -19 -8 -47 10 -47
31 0 19 14 17 41 -5z"/>
<g>
<path d="M1353 5082 c-36 -5 -27 -22 11 -22 29 0 41 -8 71 -45 22 -27 34 -49
29 -57 -19 -35 -50 -58 -76 -58 -18 0 -28 -5 -28 -15 0 -12 17 -13 103 -9 127
6 167 12 167 24 0 9 -15 14 -22 8 -10 -6 -51 28 -63 53 -15 28 -15 33 2 62 12
19 33 37 53 44 19 7 31 13 25 14 -15 4 -247 4 -272 1z m161 -53 c-17 -19 -18
-19 -42 3 l-24 23 39 5 c44 6 52 -3 27 -31z m2 -100 c8 -13 -13 -29 -39 -29
-15 0 -15 3 -5 20 14 22 33 26 44 9z"/>
</g>
<g>
<path d="M1590 4950 c0 -5 9 -10 19 -10 11 0 23 -5 27 -11 4 -8 9 -7 15 2 5 8
3 17 -4 21 -17 11 -57 10 -57 -2z"/>
</g>
<g>
<path d="M1701 4921 c13 -11 26 -17 28 -15 5 5 -30 33 -43 34 -4 0 2 -9 15
-19z"/>
</g>
<g>
<path d="M2525 5010 c-3 -5 -2 -10 4 -10 5 0 13 5 16 10 3 6 2 10 -4 10 -5 0
-13 -4 -16 -10z"/>
</g>
<g>
<path d="M2355 4957 c-28 -27 -30 -35 -32 -105 -1 -43 -2 -88 -2 -102 -2 -34
-17 -58 -30 -45 -7 7 -7 32 1 77 10 60 9 70 -9 104 -18 36 -63 72 -90 73 -25
2 -12 -17 15 -22 21 -4 35 -18 52 -50 22 -41 23 -48 12 -112 -6 -38 -9 -72 -6
-77 8 -13 52 -10 61 5 4 6 10 60 13 119 4 92 8 109 25 122 11 9 26 13 32 11
12 -4 83 21 83 29 0 2 -21 3 -47 2 -38 -1 -54 -7 -78 -29z"/>
</g>
<g>
<path d="M2768 5093 c7 -3 16 -2 19 1 4 3 -2 6 -13 5 -11 0 -14 -3 -6 -6z"/>
</g>
<g>
<path d="M686 5083 c-26 -13 -46 -26 -43 -29 5 -6 117 42 117 50 0 11 -25 3
-74 -21z"/>
</g>
<g>
<path d="M539 5041 c-47 -15 -69 -32 -69 -52 0 -21 1 -21 19 2 11 13 43 30 77
40 43 13 51 17 29 17 -16 0 -42 -3 -56 -7z"/>
</g>
<g>
<path d="M1040 3630 c0 -5 8 -10 18 -10 11 0 27 -9 37 -20 17 -19 17 -20 -1
-20 -17 0 -16 -3 6 -20 28 -22 39 -24 58 -11 11 6 4 18 -30 49 -40 38 -88 56
-88 32z"/>
</g>
<g>
<path d="M535 4800 c-3 -6 1 -13 10 -16 19 -8 30 0 20 15 -8 14 -22 14 -30 1z"/>
</g>
<g>
<path d="M1955 4751 c-3 -5 -1 -12 4 -15 5 -4 13 -1 16 5 5 7 22 -3 46 -27 22
-21 39 -32 39 -25 0 37 -88 89 -105 62z"/>
</g>
<g>
<path d="M1760 4182 c6 -13 14 -21 18 -18 3 4 -2 14 -12 24 -18 16 -18 16 -6
-6z"/>
</g>
<g>
<path d="M1666 4164 c-4 -9 -4 -19 -2 -21 8 -8 26 8 26 23 0 19 -16 18 -24 -2z"/>
</g>
<g>
<path d="M2145 4040 c3 -5 15 -10 26 -10 11 0 17 5 14 10 -3 6 -15 10 -26 10
-11 0 -17 -4 -14 -10z"/>
</g>
<g>
<path d="M668 3864 c-8 -7 2 -44 12 -44 4 0 7 11 6 25 -1 24 -7 31 -18 19z"/>
</g>
<g>
<path d="M2510 4330 c0 -5 4 -10 9 -10 6 0 13 5 16 10 3 6 -1 10 -9 10 -9 0
-16 -4 -16 -10z"/>
</g>
<g>
<path d="M1295 4051 c-6 -11 9 -23 19 -14 9 9 7 23 -3 23 -6 0 -12 -4 -16 -9z"/>
</g>
<g>
<path d="M1580 3605 c0 -8 5 -15 10 -15 6 0 10 7 10 15 0 8 -4 15 -10 15 -5 0
-10 -7 -10 -15z"/>
</g>
<g>
<path d="M1377 3483 c-4 -3 -7 -14 -7 -24 0 -13 9 -19 38 -21 36 -3 37 -4 46
-55 6 -37 14 -54 27 -58 31 -10 39 3 39 61 l0 56 41 -3 c41 -3 68 18 54 41 -7
11 -228 14 -238 3z"/>
</g>
<g>
<path d="M887 3262 c-16 -16 -46 -38 -68 -47 -22 -10 -38 -23 -36 -29 7 -19
60 -7 104 23 l42 30 21 -35 c26 -41 57 -61 72 -46 8 8 2 29 -19 69 -25 49 -34
58 -59 61 -22 2 -37 -5 -57 -26z"/>
</g>
<g>
<path d="M2071 3261 c-12 -8 -12 -12 -2 -25 10 -12 9 -19 -4 -40 -15 -23 -15
-28 -1 -58 14 -29 58 -58 87 -58 3 0 4 32 3 71 -4 99 -35 140 -83 110z"/>
</g>
<g>
<path d="M1296 3229 c-208 -60 -363 -181 -452 -353 -74 -142 -101 -324 -69
-457 18 -74 72 -189 116 -250 58 -80 178 -186 246 -218 37 -18 76 -37 85 -42
10 -5 25 -9 33 -9 9 0 35 -9 58 -20 37 -18 55 -20 156 -15 130 6 140 8 236 42
107 37 135 52 206 110 104 83 173 180 224 312 33 88 48 264 29 353 -17 80 -63
197 -99 253 -56 87 -167 186 -265 235 -120 61 -164 71 -305 75 -108 4 -142 1
-199 -16z m164 -28 c0 -6 -4 -12 -9 -15 -5 -3 -7 -24 -4 -46 3 -21 2 -47 -2
-57 -7 -15 -9 -13 -14 12 -4 17 -13 30 -21 30 -21 0 -18 -70 4 -94 15 -17 15
-19 -4 -36 -11 -10 -20 -28 -20 -40 0 -22 33 -65 50 -65 6 0 10 -6 10 -14 0
-9 -8 -12 -24 -9 -36 7 -40 -13 -6 -38 35 -27 39 -49 8 -49 -12 0 -42 -10 -66
-22 l-45 -21 -30 34 c-55 64 -135 154 -161 183 -15 15 -30 41 -33 57 -7 35
-22 37 -51 6 -17 -18 -19 -26 -10 -35 7 -7 17 -12 24 -12 13 0 171 -167 211
-223 l26 -36 -29 -58 c-16 -32 -29 -59 -29 -60 0 0 -26 -4 -57 -8 -55 -7 -58
-6 -67 17 -24 64 -119 73 -159 16 -14 -19 -72 -26 -72 -8 0 6 -9 10 -20 10
-17 0 -20 -7 -20 -44 0 -53 13 -65 37 -36 24 28 39 25 77 -15 44 -46 88 -48
136 -5 34 30 60 36 119 24 20 -4 31 -13 31 -23 0 -9 9 -34 20 -56 11 -22 20
-46 20 -55 -1 -21 -213 -240 -233 -240 -25 0 -30 -19 -13 -45 20 -31 34 -32
45 -2 10 24 224 247 238 247 4 0 37 -11 73 -24 l65 -24 3 -72 c3 -71 3 -72
-20 -67 -26 7 -78 -12 -78 -29 0 -17 49 -27 65 -14 10 8 15 8 21 -1 11 -18
-26 -42 -43 -28 -7 6 -21 8 -30 4 -16 -6 -15 -9 10 -31 15 -13 37 -24 49 -24
20 0 20 -4 14 -65 l-7 -65 36 0 c28 0 35 4 35 19 0 11 -4 22 -8 25 -4 3 -8 24
-7 47 1 40 3 42 35 46 32 3 70 27 70 44 0 5 -15 6 -32 3 l-33 -5 33 29 c39 35
41 45 4 37 -16 -3 -41 -1 -55 4 -26 10 -27 14 -27 80 l0 69 52 17 53 17 107
-114 c59 -62 116 -130 125 -150 18 -37 36 -46 61 -29 21 13 11 55 -14 59 -12
2 -46 31 -75 65 -29 34 -72 81 -95 103 -23 23 -50 54 -59 68 -16 24 -16 28 -2
44 20 24 57 98 57 117 0 8 9 15 20 15 11 0 20 -6 20 -14 0 -26 23 -30 41 -8
30 38 40 30 51 -43 6 -31 52 -22 138 25 80 44 95 48 104 25 8 -22 33 -18 41 8
l8 22 4 -23 c12 -63 -49 -246 -116 -344 -32 -46 -126 -148 -137 -148 -3 0 -23
-13 -44 -30 -21 -16 -43 -30 -50 -30 -7 0 -24 -6 -38 -14 -57 -31 -131 -48
-234 -53 -106 -6 -106 -6 -110 18 -2 13 -11 25 -21 27 -15 3 -18 0 -12 -17 8
-26 -8 -27 -80 -7 -278 77 -493 371 -470 644 12 154 40 242 104 336 51 73 164
179 228 214 75 40 189 71 296 80 9 1 17 -2 17 -7z m140 -7 c205 -38 369 -165
467 -359 31 -62 47 -121 58 -212 7 -54 1 -65 -20 -37 -9 14 -15 14 -32 4 -17
-11 -32 -7 -112 34 -51 25 -99 46 -106 46 -16 0 -25 -22 -25 -61 0 -23 -5 -29
-20 -29 -17 0 -20 6 -18 28 3 23 -1 27 -22 27 -20 0 -26 -6 -28 -27 -2 -20 -9
-28 -23 -28 -10 0 -19 5 -19 10 0 6 -9 30 -20 52 -26 55 -26 61 13 91 17 13
72 66 121 116 62 62 97 91 113 91 28 0 31 25 6 52 -20 22 -43 24 -43 2 0 -13
-80 -96 -229 -238 l-30 -28 -43 21 c-24 11 -58 23 -76 27 -38 8 -40 19 -10 52
l23 23 -25 20 -25 19 22 6 c30 8 39 55 19 96 -14 28 -14 33 -1 48 26 29 16 80
-16 80 -23 0 -25 16 -3 24 12 5 15 14 10 36 -7 35 -11 34 94 14z m-150 -240
c0 -8 -4 -12 -10 -9 -5 3 -10 13 -10 21 0 8 5 12 10 9 6 -3 10 -13 10 -21z
m129 -249 c11 -11 6 -20 -33 -60 -26 -25 -51 -43 -56 -40 -11 7 -14 128 -4
138 8 8 74 -19 93 -38z m-131 -40 c0 -41 -1 -75 -3 -75 -1 0 -23 27 -49 60
l-47 59 28 15 c15 8 38 15 49 16 20 0 22 -5 22 -75z m-80 -27 c17 -22 32 -44
32 -49 0 -5 -28 -9 -61 -9 l-61 0 6 32 c6 30 32 69 45 67 3 0 21 -18 39 -41z
m278 -26 l7 -32 -53 0 c-48 0 -51 1 -39 17 26 33 64 62 71 54 4 -3 11 -21 14
-39z m-588 -10 c3 -10 -5 -13 -29 -10 -18 2 -34 9 -37 16 -3 10 5 13 29 10 18
-2 34 -9 37 -16z m860 -9 c2 -8 -5 -13 -17 -13 -12 0 -21 6 -21 16 0 18 31 15
38 -3z m-885 -50 c-7 -2 -19 -2 -25 0 -7 3 -2 5 12 5 14 0 19 -2 13 -5z m385
-8 c4 -3 -88 -95 -96 -95 -22 0 -52 86 -36 102 5 5 125 -1 132 -7z m232 -14
c0 -27 -39 -91 -55 -91 -13 0 -85 82 -85 97 0 5 32 10 70 11 64 3 70 2 70 -17z
m287 -6 c-51 -28 -68 -26 -60 5 4 17 14 20 57 20 l51 0 -48 -25z m-487 -75 c0
-59 -1 -60 -27 -60 -16 0 -37 7 -48 15 -18 15 -17 17 25 60 24 25 45 45 47 45
2 0 3 -27 3 -60z m93 -47 c-31 -24 -52 -16 -59 22 -3 19 -3 43 1 52 6 15 12
12 41 -22 31 -36 32 -41 17 -52z m-25 -274 c-16 -10 -33 5 -23 21 5 8 11 8 21
-1 12 -10 12 -14 2 -20z"/>
</g>
<g>
<path d="M843 3159 c-13 -13 25 -89 44 -89 22 0 26 47 6 74 -20 28 -33 32 -50
15z"/>
</g>
<g>
<path d="M600 2691 c-71 -14 -105 -56 -98 -121 2 -24 13 -41 39 -62 33 -27 41
-29 85 -22 64 9 94 40 94 94 0 40 -20 83 -50 107 -17 14 -20 14 -70 4z m53
-81 c33 -55 -18 -95 -63 -50 -24 24 -24 29 -4 58 21 30 46 28 67 -8z"/>
</g>
<g>
<path d="M2230 2635 c-19 -23 -5 -43 40 -56 52 -16 63 -29 51 -62 -7 -17 -20
-27 -43 -32 -62 -12 -98 -42 -70 -58 7 -5 182 19 214 29 15 4 18 17 18 70 0
57 -2 65 -17 63 -10 -2 -29 3 -41 10 -19 10 -128 51 -137 51 -2 0 -8 -7 -15
-15z m160 -110 c0 -8 -4 -15 -10 -15 -5 0 -10 7 -10 15 0 8 5 15 10 15 6 0 10
-7 10 -15z"/>
</g>
<g>
<path d="M2009 2030 c-1 -11 -2 -23 -3 -28 -1 -4 11 -22 25 -41 20 -26 31 -32
48 -26 21 6 30 35 11 35 -5 0 -10 6 -10 13 0 7 -9 18 -20 25 -11 7 -20 19 -20
27 0 23 -30 18 -31 -5z"/>
</g>
<g>
<path d="M878 1972 c-61 -62 -72 -94 -38 -112 11 -6 20 -20 20 -30 0 -15 7
-20 25 -20 33 0 44 40 21 75 -16 25 -16 27 25 75 38 45 44 70 17 70 -6 0 -37
-26 -70 -58z"/>
</g>
<g>
<path d="M1917 1963 c-15 -14 -5 -36 39 -83 26 -28 51 -50 55 -50 5 0 31 16
58 35 26 19 52 35 57 35 5 0 15 9 21 19 25 40 -47 28 -99 -16 -15 -13 -21 -11
-59 26 -42 40 -59 48 -72 34z"/>
</g>
<g>
<path d="M1373 1830 c-31 -12 -29 -29 7 -68 36 -39 36 -42 10 -65 -25 -21 -25
-29 -1 -58 17 -22 27 -24 97 -24 l78 0 1 113 0 113 -35 -3 c-34 -3 -35 -4 -36
-48 -1 -25 -2 -49 -3 -54 -2 -13 -41 24 -41 39 0 14 -38 65 -48 64 -4 0 -17
-4 -29 -9z m115 -171 c-2 -6 -7 -10 -11 -10 -4 1 -14 1 -22 1 -8 0 -15 5 -15
10 0 6 12 10 26 10 14 0 24 -5 22 -11z"/>
</g>
<g>
<path d="M271 2834 c-35 -45 -25 -63 45 -88 44 -15 56 -42 28 -63 -14 -10 -15
-13 -3 -13 22 0 39 21 39 47 0 24 -26 43 -58 43 -20 0 -52 29 -52 48 0 7 7 12
15 12 8 0 15 -4 15 -9 0 -5 7 -11 14 -14 10 -4 13 -1 9 9 -3 9 1 14 12 14 14
0 15 3 6 14 -9 11 -9 15 1 19 7 3 -1 6 -19 6 -23 1 -37 -6 -52 -25z"/>
</g>
<g>
<path d="M253 2673 c9 -2 23 -2 30 0 6 3 -1 5 -18 5 -16 0 -22 -2 -12 -5z"/>
</g>
<g>
<path d="M184 2634 c-16 -39 -11 -74 12 -74 8 0 14 -4 14 -10 0 -5 11 -10 24
-10 53 0 83 -12 100 -42 17 -28 17 -30 0 -49 -11 -12 -30 -19 -56 -19 -50 0
-124 -17 -165 -38 -63 -31 -65 -98 -6 -154 23 -21 35 -23 151 -26 97 -3 131
-8 145 -20 31 -28 21 -49 -35 -72 -52 -20 -53 -21 -13 -15 64 10 75 15 81 41
16 63 -35 86 -182 82 l-104 -2 -32 31 c-22 23 -31 41 -31 64 0 54 39 73 196
94 58 8 91 36 81 68 -11 38 -35 56 -83 63 -87 12 -111 46 -70 98 17 22 18 26
4 26 -9 0 -23 -16 -31 -36z"/>
</g>
<g>
<path d="M223 2054 c-30 -34 -31 -124 -1 -124 6 0 7 8 3 18 -13 31 -5 86 17
109 12 13 17 23 12 23 -5 0 -19 -12 -31 -26z"/>
</g>
<g>
<path d="M260 1896 c0 -13 69 -36 104 -36 20 0 54 -7 76 -16 38 -15 40 -18 40
-59 0 -56 25 -78 90 -81 57 -2 70 -9 70 -34 0 -13 5 -17 15 -14 29 12 8 44
-44 65 -7 3 -14 22 -15 46 -1 25 -11 51 -26 69 -15 19 -21 22 -15 9 16 -42 17
-55 5 -55 -8 0 -9 -10 -5 -30 5 -22 3 -32 -9 -36 -26 -10 -46 15 -46 58 0 57
-31 82 -122 96 -40 6 -83 14 -95 18 -13 3 -23 3 -23 0z"/>
</g>
<g>
<path d="M112 1732 c-9 -6 7 -11 47 -15 116 -10 165 -77 149 -202 -3 -22 13
-24 64 -11 36 10 68 -22 68 -69 0 -26 4 -35 16 -35 11 0 15 -6 11 -20 -5 -21
8 -26 32 -11 10 7 11 13 2 30 -7 11 -16 21 -21 21 -5 0 -10 14 -12 32 -4 39
-46 72 -91 71 -32 -1 -33 -1 -35 49 -2 56 -22 91 -76 131 -37 28 -130 46 -154
29z"/>
</g>
<g>
<path d="M2892 1450 c-18 -11 -42 -36 -53 -55 -15 -24 -28 -35 -44 -35 -13 0
-37 -11 -53 -25 l-30 -25 -32 40 c-37 47 -115 90 -162 90 -50 0 -107 -19 -165
-53 -63 -37 -96 -101 -92 -173 2 -24 1 -46 -2 -48 -3 -3 -23 1 -46 9 -53 18
-109 4 -125 -31 -8 -18 -19 -24 -42 -24 -17 0 -42 -9 -56 -20 -21 -16 -35 -18
-91 -13 -58 5 -73 2 -122 -21 -84 -39 -102 -71 -102 -178 0 -57 -3 -88 -10
-88 -6 0 -30 -16 -52 -34 -30 -27 -53 -37 -94 -42 -30 -4 -56 -6 -59 -5 -3 1
-3 15 -2 31 9 78 -45 144 -141 174 -60 19 -61 20 -42 83 6 18 -31 84 -57 102
-13 9 -43 18 -67 21 -40 4 -46 8 -53 36 -9 34 -54 79 -96 95 -37 14 -116 1
-156 -26 -26 -18 -41 -21 -67 -16 -28 6 -34 12 -40 40 -15 73 -85 131 -158
131 -33 0 -42 -3 -31 -10 8 -5 28 -10 43 -10 18 0 42 -13 69 -38 37 -35 41
-44 41 -84 -1 -58 9 -77 32 -58 13 11 20 11 40 0 20 -11 25 -21 25 -52 0 -21
5 -38 10 -38 6 0 10 12 10 26 0 49 32 87 95 111 51 19 73 15 116 -24 40 -36
41 -39 36 -85 -5 -37 -3 -48 8 -48 8 0 17 5 21 11 4 7 26 9 57 6 37 -3 55 -10
68 -28 36 -47 15 -130 -38 -150 -13 -5 -21 -13 -18 -19 4 -6 17 -4 35 5 16 8
38 15 49 15 40 0 107 -33 138 -69 28 -31 33 -43 33 -91 0 -65 -26 -116 -65
-126 -35 -9 -31 -24 5 -24 24 0 33 -6 42 -28 23 -52 48 -72 95 -72 24 0 43 5
43 10 0 6 -3 9 -7 8 -29 -7 -72 16 -90 50 -20 39 -16 67 16 106 22 26 83 21
109 -9 26 -30 41 -26 35 8 -3 16 4 34 22 55 31 37 60 48 81 31 11 -9 18 -9 26
-1 9 9 6 24 -12 61 -67 144 63 275 218 219 31 -12 35 -11 53 11 16 19 25 22
55 17 40 -8 64 5 64 35 0 12 10 21 28 25 15 3 34 8 44 10 10 3 24 -7 38 -26
24 -33 54 -39 68 -13 6 9 7 42 5 74 -6 59 20 159 41 159 5 0 23 11 40 24 17
12 54 29 83 36 45 12 58 11 106 -4 61 -19 97 -54 128 -123 10 -24 22 -43 26
-43 9 0 33 48 33 67 0 14 31 33 55 33 10 0 26 -11 37 -25 11 -14 28 -25 39
-25 24 0 24 12 -1 35 -43 39 -8 125 52 125 19 0 28 4 26 13 -7 20 -31 19 -66
-3z"/>
</g>
<g>
<path d="M2763 1167 c-11 -18 -14 -47 -4 -47 9 0 41 33 41 42 0 12 -30 16 -37
5z"/>
</g>
<g>
<path d="M913 1082 c10 -11 17 -36 17 -60 0 -31 4 -42 15 -42 32 0 12 -31 -32
-51 -18 -8 -33 -18 -33 -22 0 -14 64 4 86 25 14 12 32 18 50 16 38 -4 39 -32
2 -36 -34 -4 -37 -31 -9 -71 11 -15 19 -35 18 -45 -1 -11 4 -21 11 -23 16 -6
15 11 -3 70 -14 47 -14 48 10 59 25 11 39 34 29 49 -3 5 -23 12 -45 15 -38 6
-40 8 -34 35 4 17 0 42 -10 64 -15 30 -22 35 -53 35 -33 0 -34 -1 -19 -18z
m67 -63 c0 -10 -4 -20 -9 -23 -10 -7 -21 27 -21 69 l0 30 15 -29 c8 -15 15
-37 15 -47z"/>
</g>
<g>
<path d="M2503 1047 c-59 -30 -128 -75 -163 -107 -34 -30 -67 -55 -73 -55 -7
0 -20 17 -30 38 -16 31 -24 37 -50 37 -18 0 -49 9 -70 20 -20 11 -43 20 -49
20 -22 0 -109 -92 -134 -142 -13 -26 -24 -59 -24 -74 0 -23 -3 -25 -26 -20
-75 19 -78 19 -104 -21 -14 -21 -35 -47 -46 -58 l-22 -20 39 -1 c33 -1 37 1
23 11 -15 10 -14 15 11 53 15 23 30 42 32 42 3 0 27 -8 53 -17 45 -16 48 -19
43 -44 -7 -36 27 -57 65 -40 32 15 41 5 16 -18 -17 -17 -26 -18 -79 -10 -33 5
-70 13 -82 19 -12 5 -25 5 -27 1 -3 -5 22 -15 55 -22 33 -7 55 -15 47 -17 -7
-2 -23 -8 -35 -14 -32 -15 -189 -1 -209 20 -15 14 -19 13 -45 -19 -16 -19 -27
-38 -25 -44 1 -5 25 -11 52 -13 27 -1 95 -9 151 -18 88 -14 105 -14 120 -3 11
10 49 14 132 14 106 0 119 2 145 23 19 14 42 22 67 22 47 0 51 15 8 24 -48 9
-69 7 -69 -7 0 -18 -29 -43 -60 -50 -14 -4 -76 -4 -137 0 -101 5 -113 8 -113
25 0 16 9 18 80 18 52 0 91 5 110 15 37 19 74 79 66 109 -3 13 1 31 9 42 12
17 13 15 8 -23 -3 -26 -2 -43 4 -43 6 0 13 21 17 46 5 41 3 50 -19 72 -24 23
-27 24 -42 10 -10 -10 -13 -23 -9 -34 6 -16 9 -16 17 -4 9 13 10 13 6 0 -2
-10 -17 -15 -43 -16 -21 0 -50 -6 -62 -13 -30 -16 -42 -6 -16 13 10 8 16 18
12 22 -4 4 -13 2 -20 -3 -7 -6 -25 -13 -39 -17 -21 -5 -28 -2 -32 15 -3 11 1
32 9 47 8 15 14 32 14 37 1 12 46 65 56 65 4 0 18 9 30 21 l22 20 21 -34 c26
-43 26 -53 0 -60 -14 -4 -19 -12 -17 -24 5 -23 49 -21 94 3 18 10 39 14 49 10
17 -6 17 -7 0 -26 -10 -11 -13 -20 -8 -20 6 0 16 7 23 15 31 37 40 6 10 -32
-11 -15 -18 -29 -14 -32 3 -3 14 4 24 17 10 12 23 22 30 22 6 0 10 7 8 15 -4
20 32 72 59 84 13 6 23 15 23 20 0 15 85 71 180 118 47 23 78 42 70 43 -8 0
-61 -24 -117 -53z m-297 -118 c10 -16 -18 -40 -35 -29 -12 7 -12 11 -2 24 16
19 27 20 37 5z m-186 -214 c11 -13 7 -15 -29 -15 -46 0 -56 16 -13 23 15 2 28
5 28 6 1 0 7 -6 14 -14z m11 -76 c-29 -31 -36 -18 -9 16 12 16 24 23 26 17 2
-6 -6 -21 -17 -33z m34 -8 c-3 -6 -11 -11 -17 -11 -6 0 -6 6 2 15 14 17 26 13
15 -4z m-292 -37 c47 -5 67 -11 67 -20 0 -8 5 -14 10 -14 6 0 10 -5 10 -11 0
-6 -7 -8 -17 -5 -9 4 -62 12 -117 18 -56 6 -103 13 -105 14 -2 2 2 11 9 20 10
11 23 14 44 10 17 -3 61 -8 99 -12z"/>
</g>
<g>
<path d="M170 1061 c0 -5 7 -14 15 -21 16 -14 18 -10 9 14 -6 17 -24 22 -24 7z"/>
</g>
<g>
<path d="M749 988 c-10 -19 -8 -25 20 -50 17 -15 31 -32 31 -38 0 -16 17 -12
24 6 4 11 -3 19 -24 27 -28 11 -46 34 -35 45 3 3 13 -2 22 -10 41 -36 60 -39
95 -18 l33 20 -45 -6 c-40 -5 -48 -3 -69 20 -30 32 -37 32 -52 4z"/>
</g>
<g>
<path d="M1980 860 c0 -5 5 -10 10 -10 6 0 10 5 10 10 0 6 -4 10 -10 10 -5 0
-10 -4 -10 -10z"/>
</g>
<g>
<path d="M896 853 c-11 -11 -6 -23 9 -23 8 0 15 4 15 9 0 13 -16 22 -24 14z"/>
</g>
<g>
<path d="M265 831 c-6 -11 74 -25 101 -18 11 3 0 5 -23 6 -23 0 -45 6 -48 11
-8 13 -22 13 -30 1z"/>
</g>
<g>
<path d="M960 770 c0 -5 5 -10 10 -10 6 0 10 5 10 10 0 6 -4 10 -10 10 -5 0
-10 -4 -10 -10z"/>
</g>
<g>
<path d="M917 753 c-13 -12 -7 -51 9 -57 24 -9 76 -7 70 3 -7 10 12 27 36 32
12 3 15 8 9 18 -8 12 -13 12 -34 -2 -22 -14 -27 -14 -37 -2 -13 16 -42 20 -53
8z m43 -33 c8 -5 11 -12 8 -16 -10 -9 -38 3 -38 16 0 12 10 13 30 0z"/>
</g>
<g>
<path d="M1216 718 c-3 -13 -6 -36 -6 -53 -1 -66 -8 -75 -60 -75 -34 0 -49 4
-52 15 -2 11 -8 10 -28 -6 -23 -19 -23 -20 -3 -14 28 8 43 -30 20 -52 -18 -18
-37 -9 -37 18 0 25 -45 48 -62 31 -9 -9 -4 -12 20 -12 27 0 32 -4 32 -24 0
-21 -8 -27 -54 -40 -67 -20 -239 -22 -254 -3 -5 6 -11 20 -13 29 -3 14 -6 13
-16 -8 -11 -24 -10 -26 25 -41 27 -11 57 -14 114 -10 l77 5 3 -31 3 -31 73 -2
c40 -2 83 1 95 5 13 5 29 4 39 -2 28 -18 67 9 74 52 12 69 32 129 59 171 19
30 23 45 16 54 -6 7 -8 16 -5 19 4 4 -5 11 -20 17 -35 13 -33 14 -40 -12z m39
-7 c3 -5 1 -12 -5 -16 -5 -3 -10 1 -10 9 0 18 6 21 15 7z m-65 -143 c0 -25
-37 -111 -51 -118 -8 -4 -54 -6 -104 -6 -73 1 -90 4 -90 16 0 16 51 35 118 45
31 5 40 12 52 40 12 29 19 35 44 35 18 0 31 -5 31 -12z"/>
</g>
<g>
<path d="M866 698 c5 -13 8 -45 9 -73 0 -36 4 -50 14 -50 8 0 16 6 19 13 2 6
-1 12 -7 12 -6 0 -11 7 -11 15 0 9 9 15 21 15 15 0 19 -4 15 -16 -4 -10 -1
-14 6 -12 7 3 13 13 13 24 0 13 -8 20 -27 22 -22 3 -29 10 -34 38 -3 19 -11
34 -16 34 -5 0 -6 -9 -2 -22z"/>
</g>
<g>
<path d="M1020 661 c9 -17 8 -26 -2 -38 -11 -14 -11 -15 2 -11 19 6 20 60 2
66 -11 3 -12 0 -2 -17z"/>
</g>
<g>
<path d="M2325 600 c-3 -5 -1 -10 4 -10 6 0 11 5 11 10 0 6 -2 10 -4 10 -3 0
-8 -4 -11 -10z"/>
</g>
<g>
<path d="M223 543 c-13 -2 -23 -11 -23 -19 0 -19 13 -18 41 6 24 20 22 21 -18
13z"/>
</g>
<g>
<path d="M225 430 c-16 -7 -13 -9 15 -9 19 0 44 4 55 9 16 7 13 9 -15 9 -19 0
-44 -4 -55 -9z"/>
</g>
<g>
<path d="M2577 2133 c-12 -11 -8 -23 8 -23 8 0 15 7 15 15 0 16 -12 20 -23 8z"/>
</g>
<g>
<path d="M2550 2074 c0 -8 5 -12 10 -9 6 3 10 10 10 16 0 5 -4 9 -10 9 -5 0
-10 -7 -10 -16z"/>
</g>
<g>
<path d="M445 990 c3 -5 17 -10 31 -10 13 0 24 5 24 10 0 6 -14 10 -31 10 -17
0 -28 -4 -24 -10z"/>
</g>
</g>
<g>
<path d="M2650 310 c-8 -5 -10 -10 -4 -10 14 0 27 -91 15 -103 -5 -5 -22 13
-39 40 -45 68 -50 73 -80 73 l-27 0 4 -81 c2 -51 -1 -85 -8 -92 -20 -20 -12
-27 29 -27 22 0 40 5 40 10 0 6 -4 10 -10 10 -5 0 -10 23 -10 50 0 28 5 50 10
50 6 0 10 -3 10 -8 0 -12 81 -107 92 -107 6 0 12 32 14 70 2 39 6 82 9 97 3
17 -1 28 -11 32 -19 7 -16 8 -34 -4z"/>
</g>
<g>
<path d="M2750 295 c-6 -15 -10 -62 -10 -106 l0 -79 34 0 c18 0 48 3 65 6 26
6 31 11 31 35 0 33 -16 39 -25 9 -4 -14 -15 -20 -36 -20 -26 0 -29 3 -29 30 0
27 2 30 25 24 22 -5 25 -3 25 19 0 29 -18 46 -30 27 -12 -19 -23 6 -16 36 7
27 43 34 52 9 9 -23 26 -18 22 8 -3 19 -10 22 -51 25 -43 3 -48 1 -57 -23z"/>
</g>
<g>
<path d="M1485 208 l0 -103 38 -3 c35 -3 49 9 27 23 -5 3 -10 20 -10 36 0 26
3 29 20 24 17 -5 20 -2 20 24 0 17 -4 31 -10 31 -5 0 -10 -4 -10 -10 0 -5 -5
-10 -11 -10 -6 0 -9 14 -7 31 3 28 7 32 36 35 28 3 34 0 43 -23 12 -32 33 -18
27 18 -3 23 -7 24 -83 27 l-80 3 0 -103z"/>
</g>
<g>
<path d="M1706 288 c-21 -18 -29 -36 -33 -71 -5 -43 -3 -49 31 -83 33 -33 40
-36 74 -30 79 14 121 116 71 175 -30 36 -106 41 -143 9z m110 -13 c13 -19 15
-38 11 -76 -3 -27 -9 -54 -12 -59 -7 -12 -55 -13 -73 -2 -20 13 -26 110 -7
138 21 32 60 31 81 -1z"/>
</g>
<g>
<path d="M1912 303 c-6 -2 -9 -10 -5 -16 4 -7 6 -51 4 -99 l-3 -88 31 0 c30 0
41 13 21 25 -5 3 -10 19 -10 36 0 35 26 40 41 6 12 -26 68 -67 92 -67 23 0 21
17 -3 25 -11 3 -29 19 -40 35 l-21 29 22 31 c20 26 21 33 10 54 -8 13 -23 27
-35 30 -25 7 -86 6 -104 -1z m92 -53 c-1 -29 -4 -34 -20 -32 -28 5 -33 14 -27
45 4 22 10 27 27 25 17 -2 21 -10 20 -38z"/>
</g>
<g>
<path d="M2093 303 c-14 -5 -18 -43 -5 -43 4 0 13 5 19 11 7 7 19 9 27 6 19
-7 23 -108 6 -151 -9 -25 -8 -26 26 -26 31 0 35 2 29 21 -12 36 -10 138 2 150
8 8 16 8 31 0 23 -12 35 -1 26 23 -5 13 -21 16 -78 15 -39 0 -77 -3 -83 -6z"/>
</g>
<g>
<path d="M2275 301 c-3 -5 -1 -12 5 -16 5 -3 10 -37 10 -74 0 -79 18 -105 72
-102 18 0 52 1 76 1 31 0 42 4 42 15 0 8 -9 15 -20 15 -12 0 -21 7 -21 18 -3
43 4 118 12 128 6 8 4 14 -7 18 -38 14 -42 8 -37 -51 6 -68 -9 -116 -34 -111
-28 5 -44 48 -40 105 3 45 1 52 -17 57 -29 8 -34 7 -41 -3z"/>
</g>
<g>
<path d="M570 189 l0 -111 58 7 c65 8 72 11 72 31 0 16 -16 19 -25 4 -3 -5
-22 -10 -42 -10 -32 0 -35 2 -29 23 3 12 6 28 6 35 0 9 7 11 20 7 14 -4 22 -1
26 10 10 24 -11 41 -31 25 -13 -11 -15 -7 -15 28 0 33 4 41 23 46 14 4 26 0
34 -10 7 -10 13 -11 18 -5 12 21 -7 31 -61 31 l-54 0 0 -111z"/>
</g>
<g>
<path d="M718 192 c2 -59 5 -108 6 -109 1 -1 26 0 54 4 46 5 52 8 52 29 0 15
-6 24 -15 24 -8 0 -15 -7 -15 -15 0 -9 -9 -15 -25 -15 -22 0 -25 4 -25 36 0
29 3 35 20 32 10 -2 19 0 20 5 2 42 -1 48 -21 42 -18 -6 -20 -3 -17 21 4 35
21 41 47 15 28 -28 33 -26 29 6 -3 24 -7 26 -58 29 l-55 3 3 -107z"/>
</g>
<g>
<path d="M859 295 c-3 -2 -4 -48 -3 -102 3 -92 4 -98 24 -97 109 4 107 3 112
29 6 28 -4 32 -25 11 -13 -13 -37 -20 -64 -17 -9 1 -11 23 -7 83 3 45 7 85 10
90 5 8 -39 12 -47 3z"/>
</g>
<g>
<path d="M1267 252 c-23 -26 -22 -36 13 -75 37 -43 48 -88 26 -110 -19 -18
-20 -27 -5 -27 7 0 20 10 31 22 15 17 18 31 13 60 -5 25 -3 38 4 38 14 0 14
27 0 36 -6 3 -16 1 -22 -5 -8 -8 -16 -6 -29 6 -21 19 -23 39 -5 46 8 3 9 8 1
16 -8 9 -15 7 -27 -7z"/>
</g>
<g>
<path d="M1180 149 c-15 -27 3 -49 42 -49 33 0 44 19 28 49 -14 27 -56 28 -70
0z m55 -19 c-3 -5 -13 -10 -21 -10 -8 0 -14 5 -14 10 0 6 9 10 21 10 11 0 17
-4 14 -10z"/>
</g>
<g>
<path d="M2905 140 c-4 -7 -3 -16 3 -22 14 -14 45 -2 40 15 -6 16 -34 21 -43
7z"/>
</g>
</g>
</svg>
